<svg xmlns="http://www.w3.org/2000/svg" viewBox="0 0 296 296"><defs><style>.cls-1{fill:#f36;}.cls-2{fill:#ffeded;}</style></defs><title>a</title><g id="Livello_1" data-name="Livello 1"><path class="cls-1" d="M174.532,57.214c-.044-.489-.465-.734-1.353-.767-1.242-.046-2.487-.063-3.727-.123a3.827,3.827,0,0,0-1.726.172,1.873,1.873,0,0,1-.467.041,14.871,14.871,0,0,1-3.112-.125,3.729,3.729,0,0,0-.95-.007,10,10,0,0,1-1.666.133c-1.169-.062-2.329.027-3.5-.01a15.755,15.755,0,0,1-4.321-.514l-.937.306c-.734-.01-1.336-.013-1.937-.029a2.222,2.222,0,0,1-.688-.073,2.887,2.887,0,0,0-1.588-.2,1.917,1.917,0,0,1-.589-.054,8.561,8.561,0,0,0-3.176-.051,5.441,5.441,0,0,1-.719.046c-.923.024-1.848.028-2.768.07-.444.02-.872.021-1.317,0a5.579,5.579,0,0,0-2.2.2.619.619,0,0,1-.33.007,1.345,1.345,0,0,0-.906-.043,2.751,2.751,0,0,1-1.058-.012,8.645,8.645,0,0,0-1.773-.137,18.967,18.967,0,0,1-3.24-.09,9.64,9.64,0,0,0-1.674-.042,5.84,5.84,0,0,1-1.893-.146,3.3,3.3,0,0,0-1.655-.24c-.074.016-.205-.061-.316-.084a1.955,1.955,0,0,0-.439-.068,5.1,5.1,0,0,0-1.063.078,2.488,2.488,0,0,1-1.865-.235,1.417,1.417,0,0,0-.2-.074,18.906,18.906,0,0,1-.007,2.4c.031.56.118,1.119.12,1.678a3.456,3.456,0,0,1-.122,1.524,1.008,1.008,0,0,0,.012.719,4.681,4.681,0,0,1,.174,2.478c-.016.073-.079.171-.019.215.523.391.132.781.065,1.18-.106.63-.1,1.266-.148,1.9-.044.559-.1,1.118-.148,1.677a2.059,2.059,0,0,0-.035.365c.088.972.2,1.944.273,2.917.066.949.07,1.9.133,2.846a5.407,5.407,0,0,0,.214.945,1.255,1.255,0,0,1-.061.87,2.805,2.805,0,0,0,.181,2.814.606.606,0,0,1,.057.572,3.65,3.65,0,0,1-.408.988.892.892,0,0,0-.089.93c.2.522.065,1.072.419,1.584.058.084.009.193,0,.29-.032.242-.083.485-.13.728a4.269,4.269,0,0,1,.6.063,3.621,3.621,0,0,0,.594.024c.755,0,1.51,0,2.265.006.842.01,1.686.053,2.527.044.88-.01,1.759-.07,2.639-.1a6.5,6.5,0,0,1,1.083.015,5.69,5.69,0,0,0,2,.026,3.307,3.307,0,0,1,.706.056,17.239,17.239,0,0,0,1.919.085c.717-.042,1.43-.05,2.144-.048a12.449,12.449,0,0,1,2.134-.076c1.11-.135,2.226.194,3.339-.012a1.062,1.062,0,0,1,.35.04,9.526,9.526,0,0,0,2.63.056c.355-.03.717-.038,1.077-.045.483-.01.966-.01,1.449-.013,1.161-.007,2.343-.091,3.479,0,1.58.127,3.127-.046,4.69-.023a6.415,6.415,0,0,1,1.65.048.788.788,0,0,0,.353.015,4.914,4.914,0,0,1,1.632-.079c.674.027,1.4-.121,2.028-.026a7.933,7.933,0,0,0,2,0,1.3,1.3,0,0,1,.352.043,1.634,1.634,0,0,0,1.02-.1,1.421,1.421,0,0,1,.912-.053,4.989,4.989,0,0,0,1.412.149,22.091,22.091,0,0,1,2.888.024c.943.061,1.776-.3,1.92-.81a2.5,2.5,0,0,0,.093-1.008,15.26,15.26,0,0,1-.018-2.029c0-.516.243-1.033,0-1.55a1.4,1.4,0,0,1-.008-1.139,2.52,2.52,0,0,0,.253-1.07c-.092-.975.15-1.941.133-2.912a7.09,7.09,0,0,0,.015-1.758,6.879,6.879,0,0,1,.03-2.291,15.661,15.661,0,0,0,.058-1.621,2.612,2.612,0,0,1,.061-1.48.491.491,0,0,0,.03-.271c-.033-.7-.072-1.4-.108-2.1a1.2,1.2,0,0,1,0-.339c.226-.919-.207-1.856.229-2.77.03-.062,0-.135-.007-.2-.034-.632-.114-1.265-.088-1.9a4.783,4.783,0,0,1,.155-2.155A.491.491,0,0,0,174.532,57.214Z"/><path class="cls-1" d="M174.352,40.7c.044-.559.1-1.118.148-1.677a2.059,2.059,0,0,0,.035-.365c-.088-.972-.2-1.944-.273-2.917-.066-.949-.07-1.9-.133-2.847a5.428,5.428,0,0,0-.214-.945,1.256,1.256,0,0,1,.061-.87,2.806,2.806,0,0,0-.181-2.814.6.6,0,0,1-.057-.571,3.65,3.65,0,0,1,.408-.988.892.892,0,0,0,.089-.93c-.205-.523-.065-1.073-.419-1.584-.058-.084-.009-.193,0-.29.033-.242.084-.486.131-.728a4.438,4.438,0,0,1-.6-.063c-.022,0-.048,0-.07,0a.453.453,0,0,1-.059-.29,1.254,1.254,0,0,1,.047-.18c.017-.054.042-.105.064-.159l-.443-.165c.03-.176.048-.349-.114-.424a1.039,1.039,0,0,1-.38-.4l.076-.23c-.038-.084-.07-.152-.1-.22-.084-.188-.035-.434-.247-.567a.04.04,0,0,1-.008-.036c.043-.113-.017-.188-.087-.267a.185.185,0,0,1-.044-.139c.07-.289-.061-.612.156-.856-.066-.156-.2-.262-.159-.436a.2.2,0,0,0-.057-.131c-.079-.1-.171-.183-.249-.281a.816.816,0,0,1-.16-.248c-.034-.1,0-.231-.044-.333a1.211,1.211,0,0,0-.2-.257.058.058,0,0,1-.01-.036c.016-.16-.124-.229-.2-.314a.752.752,0,0,0,.026-.135c0-.2.124-.412-.028-.615-.027-.037.007-.12.016-.181a3.764,3.764,0,0,0,.092-.668,4.387,4.387,0,0,1-.01-.444.873.873,0,0,0-.124-.609c-.129-.165-.147-.452-.443-.464-.026,0-.055-.047-.076-.077a1.266,1.266,0,0,0-.455-.383.622.622,0,0,1-.329-.343.446.446,0,0,0-.149-.161c-.172-.145-.353-.28-.52-.431a.973.973,0,0,0-.23-.186.615.615,0,0,1-.333-.393,4.629,4.629,0,0,0-.3-.684c-.106-.234-.262-.469-.151-.754.014-.038-.016-.1-.031-.141a2.108,2.108,0,0,1-.073-.211,1.544,1.544,0,0,0-.029-.26,1.2,1.2,0,0,0-.16-.23c.028-.052.047-.084.064-.117a.748.748,0,0,0-.261-1.077c-.256-.173-.489-.381-.731-.571V7.8c-.323-.032-.617-.1-.732-.43-.136-.041-.257-.073-.375-.114a.535.535,0,0,1-.2-.1A1.3,1.3,0,0,0,165,6.877c-.262-.085-.537-.137-.792-.241a4.428,4.428,0,0,1-.849-.376,1.45,1.45,0,0,1-.488-.509,1.115,1.115,0,0,0-.521-.467.424.424,0,0,1-.153-.1c-.091-.113-.174-.216-.345-.163-.025.007-.075-.051-.108-.085a2.195,2.195,0,0,0-.581-.324c-.33.029-.667-.115-.97.053a.746.746,0,0,1-.346-.3.65.65,0,0,0-.165-.143,2.971,2.971,0,0,1-.726-.575.469.469,0,0,0-.192-.168,1.319,1.319,0,0,1-.562-.362.923.923,0,0,0-.355-.2,2.207,2.207,0,0,1-.6-.309,2.977,2.977,0,0,0-.508-.313,3.335,3.335,0,0,1-.483-.356.211.211,0,0,0-.031-.021,7.388,7.388,0,0,0-1.381-.575.244.244,0,0,1-.158-.09c-.1-.186-.294-.227-.46-.308-.214-.1-.427-.211-.646-.3A.528.528,0,0,0,153.326.6a1.04,1.04,0,0,1-.8-.261c-.076-.063-.183-.087-.261-.149a.578.578,0,0,0-.623-.144.1.1,0,0,1-.074,0,.752.752,0,0,0-.584.046,1.31,1.31,0,0,1-.22.032.491.491,0,0,0-.175.045c-.243.163-.565.124-.8.318a.113.113,0,0,1-.072.018,1.361,1.361,0,0,0-.333-.011c-.091.019-.2-.057-.293-.087l-.673.414c-.059-.039-.1-.086-.141-.09a.855.855,0,0,0-.544.035.947.947,0,0,1-.756.137.83.83,0,0,0-.15,0c-.175-.016-.35-.027-.523-.053a.654.654,0,0,0-.4.044.592.592,0,0,1-.249.077.822.822,0,0,0-.453.159.844.844,0,0,1-.721.115.8.8,0,0,0-.445,0c-.081.021-.2.04-.253,0a.443.443,0,0,0-.423-.059.666.666,0,0,1-.552-.11.387.387,0,0,0-.061.017,1.563,1.563,0,0,1-.806.274c-.06,0-.133.061-.185.109-.073.069-.126.159-.2.225-.054.046-.135.1-.194.093-.305-.05-.549.164-.837.178-.141.119-.3.079-.463.064a1.451,1.451,0,0,0-.839.163c-.229.126-.443.28-.66.424-.188.125-.37.259-.56.38a.281.281,0,0,1-.206.055c-.219-.085-.419.06-.631.034a.126.126,0,0,0-.1.044c-.154.195-.456.148-.6.369-.019.031-.091.029-.14.041-.084.021-.17.035-.252.062-.166.056-.329.119-.493.178a1.19,1.19,0,0,0-.478.206.263.263,0,0,1-.282.045.417.417,0,0,0-.45.117.53.53,0,0,1-.656.083.912.912,0,0,0-.327-.07.519.519,0,0,0-.543.423c-.012.049-.008.1-.021.149-.032.128-.088.235-.239.257-.134.02-.174.115-.2.238a4.921,4.921,0,0,1-.156.542.313.313,0,0,1-.123.181,6.437,6.437,0,0,0-.671.462,1.708,1.708,0,0,0-.176.131c-.066.055-.128.113-.193.168a1.014,1.014,0,0,0-.143.115,4.306,4.306,0,0,1-.973.874,1.261,1.261,0,0,0-.36.327,3.062,3.062,0,0,1-.988,1,.156.156,0,0,0-.079.079c-.058.209-.246.277-.407.364-.134.074-.158.24-.269.3a.83.83,0,0,0-.32.244,1.348,1.348,0,0,1-.155.159c-.152-.126-.287-.238-.422-.348-.285-.235-.325-.227-.491.088a.415.415,0,0,1-.038.064.773.773,0,0,0-.118.682.469.469,0,0,1-.006.294,2.621,2.621,0,0,0-.276,1,.261.261,0,0,1-.03.108,2.084,2.084,0,0,0-.155.692.319.319,0,0,1-.1.191,7.361,7.361,0,0,1-.626.519,1.711,1.711,0,0,0-.4.392c-.116.157-.065.363-.183.516a.153.153,0,0,0,.013.143c.161.185.316.388.595.394.056,0,.1.006.1.1a.882.882,0,0,1-.11.068.324.324,0,0,0-.208.354.845.845,0,0,1-.194.627,1.011,1.011,0,0,0-.2.439,9.023,9.023,0,0,0-.158.925.513.513,0,0,1-.165.4.237.237,0,0,0-.065.168,2.6,2.6,0,0,1-.223.949,1.67,1.67,0,0,1-.5.8c-.013.167-.036.316-.033.465a.908.908,0,0,1-.132.463c-.028.051-.012.124-.023.185a1.818,1.818,0,0,1-.052.218c-.054.173-.189.328-.121.529-.162.567-.256,1.153-.467,1.707-.011.027-.017.057-.027.084a.914.914,0,0,0-.417.469,3.128,3.128,0,0,0-.084.427.3.3,0,0,0-.176.33,2.65,2.65,0,0,0,.189.769c.017.5,0,1.007,0,1.51s-.243,1.034,0,1.55a1.4,1.4,0,0,1,.008,1.139,2.521,2.521,0,0,0-.253,1.071c.092.974-.15,1.94-.133,2.912a7.09,7.09,0,0,0-.015,1.758,6.879,6.879,0,0,1-.03,2.291,15.652,15.652,0,0,0-.058,1.62,2.616,2.616,0,0,1-.061,1.481.489.489,0,0,0-.03.27c.033.7.072,1.4.107,2.1a1.167,1.167,0,0,1,0,.339c-.226.919.207,1.855-.229,2.769-.03.063,0,.135.007.2.034.633.114,1.266.088,1.9a4.777,4.777,0,0,1-.155,2.154.487.487,0,0,0-.034.271c.044.488.464.734,1.353.767,1.242.046,2.487.062,3.727.123a3.827,3.827,0,0,0,1.726-.172,1.869,1.869,0,0,1,.467-.042,14.939,14.939,0,0,1,3.112.125,3.721,3.721,0,0,0,.949.008,10.135,10.135,0,0,1,1.667-.134c1.169.062,2.329-.027,3.494.011a15.8,15.8,0,0,1,4.322.513l.937-.3c.734.01,1.336.013,1.937.029a2.192,2.192,0,0,1,.688.073,2.9,2.9,0,0,0,1.588.2,1.917,1.917,0,0,1,.589.054,8.561,8.561,0,0,0,3.176.051,5.121,5.121,0,0,1,.719-.046c.923-.024,1.848-.029,2.768-.07.444-.02.872-.021,1.317,0a5.579,5.579,0,0,0,2.195-.2.618.618,0,0,1,.33-.006,1.339,1.339,0,0,0,.906.042,2.732,2.732,0,0,1,1.058.013,8.645,8.645,0,0,0,1.773.137,19.071,19.071,0,0,1,3.24.089,9.64,9.64,0,0,0,1.674.043,5.84,5.84,0,0,1,1.893.145,3.284,3.284,0,0,0,1.655.24c.074-.016.205.061.316.084a1.9,1.9,0,0,0,.439.069,5.082,5.082,0,0,0,1.062-.079,2.5,2.5,0,0,1,1.866.236,1.557,1.557,0,0,0,.2.074,18.905,18.905,0,0,1,.007-2.4c-.031-.56-.118-1.119-.12-1.679a3.451,3.451,0,0,1,.122-1.523,1.016,1.016,0,0,0-.012-.72,4.68,4.68,0,0,1-.174-2.478c.016-.072.079-.171.019-.215-.523-.39-.132-.781-.065-1.179C174.31,41.968,174.3,41.332,174.352,40.7Z"/><path class="cls-1" d="M174.532,122.98c-.044-.489-.465-.734-1.353-.767-1.242-.046-2.487-.063-3.727-.123a3.827,3.827,0,0,0-1.726.172,1.827,1.827,0,0,1-.467.041,14.8,14.8,0,0,1-3.112-.125,3.729,3.729,0,0,0-.95-.007,10,10,0,0,1-1.666.133c-1.169-.061-2.329.027-3.5-.01a15.755,15.755,0,0,1-4.321-.514l-.937.306c-.734-.01-1.336-.013-1.937-.029a2.192,2.192,0,0,1-.688-.073,2.887,2.887,0,0,0-1.588-.2,1.917,1.917,0,0,1-.589-.054,8.561,8.561,0,0,0-3.176-.051,5.441,5.441,0,0,1-.719.046c-.923.024-1.848.029-2.768.07-.444.02-.872.021-1.317,0a5.561,5.561,0,0,0-2.2.2.618.618,0,0,1-.33.006,1.345,1.345,0,0,0-.906-.043,2.713,2.713,0,0,1-1.058-.012,8.645,8.645,0,0,0-1.773-.137,18.967,18.967,0,0,1-3.24-.09,9.74,9.74,0,0,0-1.674-.042,5.84,5.84,0,0,1-1.893-.146,3.306,3.306,0,0,0-1.655-.24c-.074.017-.205-.06-.316-.084a1.955,1.955,0,0,0-.439-.068,5.03,5.03,0,0,0-1.063.079,2.493,2.493,0,0,1-1.865-.236,1.417,1.417,0,0,0-.2-.074,18.906,18.906,0,0,1-.007,2.4c.031.56.118,1.119.12,1.679a3.453,3.453,0,0,1-.122,1.523,1.01,1.01,0,0,0,.012.72,4.677,4.677,0,0,1,.174,2.477c-.016.073-.079.171-.019.216.523.39.132.78.065,1.179-.106.63-.1,1.266-.148,1.9-.044.559-.1,1.118-.148,1.677a2.059,2.059,0,0,0-.035.365c.088.972.2,1.944.273,2.917.066.949.07,1.9.133,2.847a5.4,5.4,0,0,0,.214.944,1.255,1.255,0,0,1-.061.87,2.805,2.805,0,0,0,.181,2.814.606.606,0,0,1,.057.572,3.65,3.65,0,0,1-.408.988.892.892,0,0,0-.089.93c.2.522.065,1.072.419,1.584.058.084.009.193,0,.29-.032.242-.083.485-.13.728a4.421,4.421,0,0,1,.6.063,3.621,3.621,0,0,0,.594.024c.755,0,1.51,0,2.265.006.842.01,1.686.054,2.527.044.88-.01,1.759-.07,2.639-.1a6.394,6.394,0,0,1,1.083.014,5.69,5.69,0,0,0,2,.026,3.373,3.373,0,0,1,.706.056,17.239,17.239,0,0,0,1.919.085c.717-.041,1.43-.05,2.144-.048a12.551,12.551,0,0,1,2.134-.076c1.11-.135,2.226.195,3.339-.012a1.09,1.09,0,0,1,.35.04,9.526,9.526,0,0,0,2.63.056c.355-.03.717-.038,1.077-.045.483-.01.966-.01,1.449-.013,1.161-.006,2.343-.091,3.479,0,1.58.127,3.127-.045,4.69-.023a6.415,6.415,0,0,1,1.65.048.788.788,0,0,0,.353.015,4.914,4.914,0,0,1,1.632-.079c.674.027,1.4-.121,2.028-.026a7.933,7.933,0,0,0,2,0,1.3,1.3,0,0,1,.352.043,1.634,1.634,0,0,0,1.02-.1,1.421,1.421,0,0,1,.912-.053,4.989,4.989,0,0,0,1.412.149,22.091,22.091,0,0,1,2.888.024c.943.061,1.776-.3,1.92-.81a2.5,2.5,0,0,0,.093-1.008,15.245,15.245,0,0,1-.018-2.028c0-.517.243-1.034,0-1.551a1.4,1.4,0,0,1-.008-1.138,2.524,2.524,0,0,0,.253-1.071c-.092-.974.15-1.941.133-2.912a7.09,7.09,0,0,0,.015-1.758,6.879,6.879,0,0,1,.03-2.291,15.652,15.652,0,0,0,.058-1.62,2.615,2.615,0,0,1,.061-1.481.489.489,0,0,0,.03-.27c-.033-.7-.072-1.4-.108-2.1a1.2,1.2,0,0,1,0-.339c.226-.919-.207-1.855.229-2.769.03-.063,0-.136-.007-.2-.034-.633-.114-1.266-.088-1.9a4.777,4.777,0,0,1,.155-2.154A.5.5,0,0,0,174.532,122.98Z"/><path class="cls-1" d="M149.1,118.535a9.156,9.156,0,0,0,.069-2.345c.031-2.221-.214-4.421-.034-6.665.13-1.616.01-3.294,0-4.945,0-.686,0-1.373-.018-2.059-.01-.511-.021-1.026-.064-1.53a13.553,13.553,0,0,1,.079-3.738,1.548,1.548,0,0,0,.058-.5c-.294-1.582.174-3.168-.017-4.746a17.725,17.725,0,0,0-.109-3.032c0-.777,0-1.553-.034-2.332a7.419,7.419,0,0,0-2.073-.246,17.992,17.992,0,0,0-4.268.2,4.354,4.354,0,0,1-.7-.048c-1.1.047-2.2-.464-3.3-.021a.582.582,0,0,1-.353,0,11.515,11.515,0,0,0-2.972-.106,3.629,3.629,0,0,1-1.173-.128,4.15,4.15,0,0,0-2.69-.081,1.429,1.429,0,0,1-.7.038,7.078,7.078,0,0,0-2.022-.092,15.1,15.1,0,0,1-2.505.027,19.322,19.322,0,0,0-3.1-.084c-.436,0-.872-.029-1.308-.056s-.869-.093-1.3-.1c-.677,0-1.354.045-2.032.049a21.21,21.21,0,0,1-4.644-.059.662.662,0,0,0-.239,0,28.229,28.229,0,0,1-3.679.067,6.348,6.348,0,0,0-1.987.184.717.717,0,0,1-.682-.066,1.282,1.282,0,0,0-1.255-.1,1.013,1.013,0,0,1-.924.042,1.887,1.887,0,0,0-1.823-.107,1.1,1.1,0,0,1-.355.046,10.818,10.818,0,0,1-2.141-.065,6.5,6.5,0,0,0-2.362-.054,11.9,11.9,0,0,1-1.78-.011c-.628.022-1.253.122-1.88.155-.12.007-.239.009-.358.012a2.074,2.074,0,0,0,.062.384,1.913,1.913,0,0,1-.061,1.288.882.882,0,0,0,.009.469,7.91,7.91,0,0,1,.287,3.119c-.032.632-.03,1.24,0,1.871.059,1.307.066,2.623.1,3.934a7.428,7.428,0,0,0,.065,1.022,12.159,12.159,0,0,1-.072,4.513,2.729,2.729,0,0,0-.077.837,4.114,4.114,0,0,1-.28,2.257,3.134,3.134,0,0,0-.1.977c-.023.854-.027,1.71-.041,2.753.137.422.282.865.434,1.333a22.367,22.367,0,0,0-.729,6.14c-.022.657-.014,1.312,0,1.967.4,0,.739.33,1.14.326a1.165,1.165,0,0,0,.462-.1,4.809,4.809,0,0,1,2.333-.268c1.28.088,2.546,0,3.816-.037a9.422,9.422,0,0,1,2.723.242,2.711,2.711,0,0,0,1.408,0,3.528,3.528,0,0,1,1.3-.109c1.537.2,3.079.25,4.625.326,1.473.073,2.939.072,4.409.067a2.046,2.046,0,0,1,.474.054,5.509,5.509,0,0,0,2.714-.086,2.843,2.843,0,0,1,.828-.081c.907.035,1.818.052,2.717.159.558.066,1.115-.057,1.647.022a12.956,12.956,0,0,0,2.474.33,3.44,3.44,0,0,0,2.2.143,2.206,2.206,0,0,0,1.358-.344c.092-.079.3-.027.454-.028a1.806,1.806,0,0,0,.588,0,1.986,1.986,0,0,1,1.283-.031,1.182,1.182,0,0,0,.59-.017,2.637,2.637,0,0,1,1.055-.039,4.3,4.3,0,0,0,1.428-.019,5.655,5.655,0,0,1,2.114-.047c.351.059.708.085,1.063.121a14.349,14.349,0,0,0,3.323.212,5.872,5.872,0,0,1,2.7-.095.333.333,0,0,0,.234-.023,2.187,2.187,0,0,1,1.407-.009c.786.105,1.568.237,2.352.354a3.755,3.755,0,0,0-.144-.9A1.116,1.116,0,0,1,149.1,118.535Z"/><path class="cls-1" d="M199.12,118.092c-.271-.789.082-1.646-.265-2.427-.029-1.6-.386-3.22.218-4.817-.194-.17-.437-.289-.514-.476a1.365,1.365,0,0,1,.02-.678c.147-.929.253-1.869.482-2.778a2.854,2.854,0,0,0-.228-1.945,4.461,4.461,0,0,1-.408-2.06c.022-.7-.2-1.423.243-2.073a.381.381,0,0,0,.051-.224c-.076-1.212.122-2.424-.01-3.636a5.929,5.929,0,0,1,.177-1.75,10,10,0,0,0,.144-4.777,6.01,6.01,0,0,1-.095-.938c-.069-.544-.157-1.085-.223-1.629-.018-.146-.043-.294-.059-.442a15.927,15.927,0,0,1-3.816-.066c-.144-.027-.306.063-.461.076a2.35,2.35,0,0,1-.58.01,4.563,4.563,0,0,0-1.758.054.817.817,0,0,1-.562-.024,2.343,2.343,0,0,0-1.607-.228,23.148,23.148,0,0,0-3.049.066.483.483,0,0,1-.235-.016,8.2,8.2,0,0,0-2.467-.1c-.746,0-1.493,0-2.24-.025-.43-.013-.859-.094-1.288-.092-.867.006-1.733.055-2.6.07a4.479,4.479,0,0,1-1.056-.061,2.189,2.189,0,0,0-1.155.035,4.05,4.05,0,0,1-1.987.055,6.118,6.118,0,0,0-2.689.079,7.936,7.936,0,0,1-2.818.124c-1.13-.142-2.252-.27-3.394-.319-1.068-.046-2.11.162-3.167.128-.354-.012-.708-.013-1.061-.033-.548-.031-1.1-.114-1.642-.1a30.528,30.528,0,0,1-3.87-.272,3.255,3.255,0,0,0-1.041.066,6.208,6.208,0,0,1-1.686.151,1.758,1.758,0,0,1-.131.869.873.873,0,0,0,.008.464,7.81,7.81,0,0,1,.284,3.084c-.031.625-.03,1.226,0,1.85.059,1.293.065,2.593.1,3.89a7.268,7.268,0,0,0,.065,1.011,12.04,12.04,0,0,1-.072,4.463,2.726,2.726,0,0,0-.076.827,4.059,4.059,0,0,1-.277,2.231,3.137,3.137,0,0,0-.1.967c-.022.845-.026,1.691-.04,2.723q.2.624.429,1.317a22.118,22.118,0,0,0-.721,6.072c-.034,1.05,0,2.1.014,3.148q.559-.048,1.12-.13a.719.719,0,0,1,.452.034,2.509,2.509,0,0,0,1.951.19,8.152,8.152,0,0,1,1.62-.049,40.22,40.22,0,0,1,4.121.134,4.453,4.453,0,0,1,1.384.222,1.332,1.332,0,0,0,.681.115c.853-.117,1.7-.276,2.549-.417a1.314,1.314,0,0,1,.351-.033c.662.073,1.329.125,1.982.25a2.872,2.872,0,0,0,1.278-.035,6.222,6.222,0,0,1,2.575-.081,4.854,4.854,0,0,0,1.172.07,10.826,10.826,0,0,1,3.741.351c.379.1.776.141,1.153.248a2.814,2.814,0,0,0,2.173-.169,1.8,1.8,0,0,1,1.811.012,1.548,1.548,0,0,0,1.13.075,7.11,7.11,0,0,1,2.547-.266.637.637,0,0,0,.348-.032,5.635,5.635,0,0,1,1.871-.2c.866-.036,1.741.011,2.6-.1s1.714.316,2.567-.015a.276.276,0,0,1,.228.027,1.437,1.437,0,0,0,1.343.129,2.27,2.27,0,0,1,.7.056,3.055,3.055,0,0,0,.928.05,1.554,1.554,0,0,1,1.137.077,1.323,1.323,0,0,0,1.246-.066,2.332,2.332,0,0,1,.315-.129A9.319,9.319,0,0,1,199.12,118.092Z"/><path class="cls-1" d="M144.17,153.957a9.2,9.2,0,0,0-.068,2.345c-.032,2.221.213,4.421.033,6.665-.129,1.615-.009,3.294,0,4.945,0,.686,0,1.373.019,2.059.01.511.021,1.025.063,1.53a13.507,13.507,0,0,1-.079,3.737,1.552,1.552,0,0,0-.057.5c.294,1.582-.175,3.168.017,4.746a17.724,17.724,0,0,0,.108,3.032c0,.777.005,1.553.034,2.332a7.428,7.428,0,0,0,2.073.246,17.951,17.951,0,0,0,4.269-.2,4.373,4.373,0,0,1,.7.049c1.1-.048,2.2.464,3.3.021a.575.575,0,0,1,.353-.005,11.558,11.558,0,0,0,2.972.106,3.657,3.657,0,0,1,1.173.127,4.143,4.143,0,0,0,2.69.082,1.428,1.428,0,0,1,.7-.038,7.109,7.109,0,0,0,2.021.092A15.006,15.006,0,0,1,167,186.3a19.312,19.312,0,0,0,3.095.084c.436,0,.873.029,1.308.056s.869.093,1.3.1c.677,0,1.355-.045,2.032-.049a21.219,21.219,0,0,1,4.645.059.7.7,0,0,0,.238,0,28.229,28.229,0,0,1,3.679-.067,6.375,6.375,0,0,0,1.987-.184.721.721,0,0,1,.683.065,1.281,1.281,0,0,0,1.254.1,1.017,1.017,0,0,1,.924-.043,1.884,1.884,0,0,0,1.824.107,1.121,1.121,0,0,1,.354-.045,10.827,10.827,0,0,1,2.142.064,6.475,6.475,0,0,0,2.362.055,11.888,11.888,0,0,1,1.779.011c.628-.023,1.253-.122,1.881-.156.119-.006.238-.008.358-.011a2.241,2.241,0,0,0-.062-.384,1.919,1.919,0,0,1,.06-1.288.872.872,0,0,0-.009-.469,7.931,7.931,0,0,1-.287-3.119c.032-.632.031-1.24,0-1.871-.059-1.308-.066-2.623-.1-3.934a7.417,7.417,0,0,0-.065-1.022,12.164,12.164,0,0,1,.073-4.514,2.725,2.725,0,0,0,.076-.837,4.111,4.111,0,0,1,.28-2.256,3.138,3.138,0,0,0,.1-.977c.023-.854.027-1.71.041-2.753-.137-.422-.281-.865-.434-1.333a22.369,22.369,0,0,0,.73-6.141c.021-.656.014-1.311,0-1.966-.4,0-.738-.33-1.14-.326a1.165,1.165,0,0,0-.462.1,4.805,4.805,0,0,1-2.332.268c-1.281-.089-2.547,0-3.817.037a9.45,9.45,0,0,1-2.722-.242,2.7,2.7,0,0,0-1.409,0,3.525,3.525,0,0,1-1.294.109c-1.538-.2-3.08-.251-4.626-.327-1.473-.072-2.939-.071-4.409-.066a2.093,2.093,0,0,1-.473-.054,5.512,5.512,0,0,0-2.715.086,2.836,2.836,0,0,1-.827.081c-.907-.035-1.818-.052-2.718-.159-.558-.066-1.114.057-1.647-.022a12.957,12.957,0,0,0-2.473-.33,3.434,3.434,0,0,0-2.2-.143,2.209,2.209,0,0,0-1.359.344c-.091.079-.3.027-.454.028a1.8,1.8,0,0,0-.587,0,1.986,1.986,0,0,1-1.283.031,1.193,1.193,0,0,0-.59.016,2.624,2.624,0,0,1-1.056.04,4.3,4.3,0,0,0-1.427.019,5.639,5.639,0,0,1-2.115.046c-.351-.058-.707-.085-1.062-.12a14.294,14.294,0,0,0-3.323-.212,5.886,5.886,0,0,1-2.7.095.33.33,0,0,0-.235.023,2.187,2.187,0,0,1-1.407.009c-.785-.1-1.568-.237-2.352-.354a3.715,3.715,0,0,0,.145.9A1.118,1.118,0,0,1,144.17,153.957Z"/><path class="cls-1" d="M94.152,154.4c.271.79-.083,1.647.264,2.427.03,1.605.387,3.22-.218,4.818.2.17.437.289.515.475a1.369,1.369,0,0,1-.02.679c-.148.929-.253,1.869-.482,2.778a2.842,2.842,0,0,0,.228,1.945,4.473,4.473,0,0,1,.407,2.06c-.022.7.2,1.423-.242,2.072a.38.38,0,0,0-.052.225c.076,1.212-.121,2.424.011,3.636a5.929,5.929,0,0,1-.178,1.75,9.986,9.986,0,0,0-.143,4.777,6,6,0,0,1,.094.937c.069.544.157,1.086.223,1.63.018.146.043.294.059.442a15.884,15.884,0,0,1,3.817.066c.143.027.3-.063.46-.077a2.4,2.4,0,0,1,.58-.01,4.563,4.563,0,0,0,1.758-.053.815.815,0,0,1,.563.024,2.34,2.34,0,0,0,1.606.228,23,23,0,0,0,3.05-.067.491.491,0,0,1,.234.017,8.2,8.2,0,0,0,2.467.1c.747,0,1.494,0,2.24.025.43.013.859.094,1.288.091.867,0,1.733-.054,2.6-.069a4.527,4.527,0,0,1,1.056.06,2.189,2.189,0,0,0,1.155-.034,4.041,4.041,0,0,1,1.988-.055,6.119,6.119,0,0,0,2.689-.08,7.98,7.98,0,0,1,2.818-.124c1.129.143,2.251.271,3.393.32,1.068.046,2.11-.162,3.168-.128.353.011.708.013,1.061.033.547.03,1.095.114,1.641.1a30.543,30.543,0,0,1,3.871.272,3.221,3.221,0,0,0,1.04-.067,6.218,6.218,0,0,1,1.687-.15,1.746,1.746,0,0,1,.131-.869.873.873,0,0,0-.009-.464,7.829,7.829,0,0,1-.284-3.084c.032-.625.03-1.226,0-1.85-.058-1.293-.065-2.594-.1-3.891a7.422,7.422,0,0,0-.064-1.01,12.019,12.019,0,0,1,.072-4.463,2.7,2.7,0,0,0,.075-.828,4.06,4.06,0,0,1,.277-2.231,3.1,3.1,0,0,0,.1-.966c.023-.845.027-1.691.041-2.723l-.43-1.317a22.118,22.118,0,0,0,.722-6.072c.033-1.051,0-2.1-.015-3.148q-.559.048-1.119.13a.725.725,0,0,1-.452-.034,2.508,2.508,0,0,0-1.952-.19,8.149,8.149,0,0,1-1.62.049,40.487,40.487,0,0,1-4.12-.134,4.454,4.454,0,0,1-1.385-.222,1.328,1.328,0,0,0-.681-.115c-.852.117-1.7.276-2.549.416a1.272,1.272,0,0,1-.351.034c-.662-.073-1.329-.125-1.982-.25a2.868,2.868,0,0,0-1.277.035,6.222,6.222,0,0,1-2.575.081,4.865,4.865,0,0,0-1.173-.07,10.826,10.826,0,0,1-3.741-.351c-.378-.1-.775-.141-1.153-.248a2.816,2.816,0,0,0-2.172.168,1.792,1.792,0,0,1-1.812-.012,1.55,1.55,0,0,0-1.129-.074,7.093,7.093,0,0,1-2.548.265.648.648,0,0,0-.348.033,5.632,5.632,0,0,1-1.87.2c-.867.036-1.742-.011-2.6.1s-1.715-.316-2.567.014a.279.279,0,0,1-.228-.026,1.438,1.438,0,0,0-1.344-.129,2.274,2.274,0,0,1-.7-.057,3.081,3.081,0,0,0-.927-.049,1.552,1.552,0,0,1-1.138-.078,1.328,1.328,0,0,0-1.246.066,2.335,2.335,0,0,1-.315.13A9.306,9.306,0,0,1,94.152,154.4Z"/><path class="cls-1" d="M170.939,221.471a9.421,9.421,0,0,0,.07-2.408c.033-2.282-.219-4.541-.034-6.846.133-1.659.01-3.383,0-5.078,0-.705,0-1.411-.019-2.115-.01-.525-.021-1.053-.065-1.571a13.893,13.893,0,0,1,.081-3.839,1.577,1.577,0,0,0,.059-.511c-.3-1.624.179-3.254-.018-4.874a18.165,18.165,0,0,0-.111-3.114c0-.8,0-1.595-.035-2.4a7.633,7.633,0,0,0-2.129-.253,18.441,18.441,0,0,0-4.384.206,4.493,4.493,0,0,1-.721-.05c-1.129.049-2.254-.476-3.388-.021a.6.6,0,0,1-.362,0,11.83,11.83,0,0,0-3.053-.109,3.771,3.771,0,0,1-1.205-.131,4.254,4.254,0,0,0-2.762-.084,1.458,1.458,0,0,1-.722.039,7.279,7.279,0,0,0-2.077-.094,15.486,15.486,0,0,1-2.573.027,19.891,19.891,0,0,0-3.179-.086c-.447,0-.9-.029-1.343-.057s-.892-.1-1.338-.1c-.7,0-1.392.045-2.087.05a21.924,21.924,0,0,1-4.77-.061.7.7,0,0,0-.245,0,29.236,29.236,0,0,1-3.779.069,6.53,6.53,0,0,0-2.04.188.738.738,0,0,1-.7-.067,1.319,1.319,0,0,0-1.289-.1,1.041,1.041,0,0,1-.949.044,1.937,1.937,0,0,0-1.873-.11,1.121,1.121,0,0,1-.363.047,11.109,11.109,0,0,1-2.2-.067,6.692,6.692,0,0,0-2.426-.056,12.012,12.012,0,0,1-1.828-.011c-.644.023-1.286.126-1.931.16-.123.006-.245.009-.367.012a2.168,2.168,0,0,0,.063.394,1.966,1.966,0,0,1-.062,1.323.9.9,0,0,0,.009.481,8.132,8.132,0,0,1,.295,3.2c-.033.649-.031,1.273,0,1.921.061,1.343.068,2.694.1,4.041a7.487,7.487,0,0,0,.067,1.049,12.5,12.5,0,0,1-.075,4.636,2.844,2.844,0,0,0-.079.86,4.215,4.215,0,0,1-.287,2.317,3.21,3.21,0,0,0-.107,1c-.024.877-.028,1.756-.042,2.827l.446,1.369a22.971,22.971,0,0,0-.75,6.306c-.021.674-.014,1.347,0,2.02.407,0,.758.339,1.171.335a1.2,1.2,0,0,0,.474-.1,4.934,4.934,0,0,1,2.4-.276c1.315.091,2.615,0,3.92-.038a9.715,9.715,0,0,1,2.8.248,2.771,2.771,0,0,0,1.446,0,3.653,3.653,0,0,1,1.33-.112c1.579.207,3.162.258,4.75.336,1.513.074,3.019.074,4.528.068a2.1,2.1,0,0,1,.487.056,5.663,5.663,0,0,0,2.788-.089,2.914,2.914,0,0,1,.849-.083c.932.036,1.867.054,2.791.164.573.068,1.145-.059,1.692.022a13.328,13.328,0,0,0,2.54.339,3.529,3.529,0,0,0,2.259.147,2.269,2.269,0,0,0,1.4-.354c.094-.081.307-.027.466-.028a1.9,1.9,0,0,0,.6,0,2.032,2.032,0,0,1,1.318-.032,1.222,1.222,0,0,0,.606-.017,2.69,2.69,0,0,1,1.084-.04,4.45,4.45,0,0,0,1.466-.02,5.775,5.775,0,0,1,2.172-.048c.36.06.727.087,1.091.123a14.629,14.629,0,0,0,3.413.218,6.035,6.035,0,0,1,2.774-.1.342.342,0,0,0,.241-.024,2.249,2.249,0,0,1,1.445-.009c.807.108,1.61.244,2.415.364a3.822,3.822,0,0,0-.148-.925A1.146,1.146,0,0,1,170.939,221.471Z"/><path class="cls-1" d="M170.939,294.479a9.419,9.419,0,0,0,.07-2.408c.033-2.281-.219-4.54-.034-6.846.133-1.658.01-3.383,0-5.078,0-.7,0-1.41-.019-2.114-.01-.525-.021-1.054-.065-1.572a13.886,13.886,0,0,1,.081-3.838,1.583,1.583,0,0,0,.059-.511c-.3-1.625.179-3.254-.018-4.875a18.157,18.157,0,0,0-.111-3.113c0-.8,0-1.6-.035-2.4a7.6,7.6,0,0,0-2.129-.253,18.389,18.389,0,0,0-4.384.206,4.385,4.385,0,0,1-.721-.051c-1.129.05-2.254-.476-3.388-.021a.581.581,0,0,1-.362,0,11.874,11.874,0,0,0-3.053-.109,3.743,3.743,0,0,1-1.205-.13,4.248,4.248,0,0,0-2.762-.084,1.458,1.458,0,0,1-.722.039,7.279,7.279,0,0,0-2.077-.094,15.594,15.594,0,0,1-2.573.027,19.891,19.891,0,0,0-3.179-.086c-.447,0-.9-.03-1.343-.057s-.892-.1-1.338-.1c-.7,0-1.392.046-2.087.05a21.8,21.8,0,0,1-4.77-.061.72.72,0,0,0-.245,0,29.416,29.416,0,0,1-3.779.069,6.53,6.53,0,0,0-2.04.188.738.738,0,0,1-.7-.067,1.319,1.319,0,0,0-1.289-.1,1.044,1.044,0,0,1-.949.044,1.934,1.934,0,0,0-1.873-.11,1.121,1.121,0,0,1-.363.046,11.108,11.108,0,0,1-2.2-.066,6.67,6.67,0,0,0-2.426-.056,12.276,12.276,0,0,1-1.828-.011c-.644.023-1.286.125-1.931.16-.123.006-.245.009-.367.012a2.2,2.2,0,0,0,.063.394,1.963,1.963,0,0,1-.062,1.322.9.9,0,0,0,.009.482,8.127,8.127,0,0,1,.295,3.2c-.033.65-.031,1.274,0,1.922.061,1.343.068,2.694.1,4.041a7.507,7.507,0,0,0,.067,1.049,12.5,12.5,0,0,1-.075,4.636,2.841,2.841,0,0,0-.079.859,4.212,4.212,0,0,1-.287,2.317,3.214,3.214,0,0,0-.107,1c-.024.878-.028,1.756-.042,2.828q.212.649.446,1.368a22.978,22.978,0,0,0-.75,6.307c-.021.674-.014,1.347,0,2.02.407,0,.758.339,1.171.335a1.222,1.222,0,0,0,.474-.1,4.934,4.934,0,0,1,2.4-.275c1.315.09,2.615,0,3.92-.038a9.68,9.68,0,0,1,2.8.248,2.781,2.781,0,0,0,1.446,0,3.631,3.631,0,0,1,1.33-.112c1.579.207,3.162.257,4.75.336,1.513.074,3.019.073,4.528.068a2.152,2.152,0,0,1,.487.055,5.663,5.663,0,0,0,2.788-.088,2.881,2.881,0,0,1,.849-.083c.932.035,1.867.053,2.791.163.573.068,1.145-.058,1.692.022a13.249,13.249,0,0,0,2.54.339,3.536,3.536,0,0,0,2.259.148,2.269,2.269,0,0,0,1.4-.354c.094-.081.307-.028.466-.029a1.842,1.842,0,0,0,.6,0,2.045,2.045,0,0,1,1.318-.032,1.21,1.21,0,0,0,.606-.017,2.726,2.726,0,0,1,1.084-.04,4.423,4.423,0,0,0,1.466-.019,5.775,5.775,0,0,1,2.172-.048c.36.059.727.087,1.091.123a14.684,14.684,0,0,0,3.413.218,6.035,6.035,0,0,1,2.774-.1.347.347,0,0,0,.241-.024,2.242,2.242,0,0,1,1.445-.009c.807.107,1.61.243,2.415.363a3.83,3.83,0,0,0-.148-.925A1.147,1.147,0,0,1,170.939,294.479Z"/><path class="cls-1" d="M114.482,225.678a9.42,9.42,0,0,0-.071,2.408c-.032,2.281.22,4.541.035,6.846-.133,1.659-.01,3.383,0,5.078,0,.705,0,1.41.019,2.115.01.524.021,1.053.065,1.571a13.894,13.894,0,0,1-.081,3.839,1.574,1.574,0,0,0-.059.51c.3,1.625-.18,3.254.017,4.875a18.158,18.158,0,0,0,.112,3.113c0,.8,0,1.6.035,2.4a7.628,7.628,0,0,0,2.129.252,18.43,18.43,0,0,0,4.383-.2,4.26,4.26,0,0,1,.721.05c1.13-.049,2.255.476,3.389.021a.588.588,0,0,1,.362-.005,11.866,11.866,0,0,0,3.052.109,3.709,3.709,0,0,1,1.2.131,4.257,4.257,0,0,0,2.763.083,1.458,1.458,0,0,1,.722-.038,7.273,7.273,0,0,0,2.076.093,15.6,15.6,0,0,1,2.573-.027,19.779,19.779,0,0,0,3.179.087c.448,0,.9.029,1.344.056s.892.1,1.338.1c.7,0,1.391-.046,2.087-.05a21.8,21.8,0,0,1,4.77.061.673.673,0,0,0,.245,0,29.221,29.221,0,0,1,3.778-.068,6.507,6.507,0,0,0,2.041-.189.738.738,0,0,1,.7.067,1.317,1.317,0,0,0,1.289.1,1.039,1.039,0,0,1,.948-.043,1.939,1.939,0,0,0,1.873.11,1.131,1.131,0,0,1,.364-.047,11.108,11.108,0,0,1,2.2.066,6.664,6.664,0,0,0,2.425.056,12.275,12.275,0,0,1,1.828.011c.645-.023,1.287-.125,1.932-.159.122-.007.245-.009.367-.012a2.192,2.192,0,0,0-.063-.4,1.957,1.957,0,0,1,.062-1.322.92.92,0,0,0-.009-.482,8.109,8.109,0,0,1-.295-3.2c.033-.649.031-1.274,0-1.922-.061-1.343-.068-2.693-.1-4.041a7.507,7.507,0,0,0-.067-1.049,12.491,12.491,0,0,1,.075-4.635,2.817,2.817,0,0,0,.078-.86,4.223,4.223,0,0,1,.288-2.317,3.21,3.21,0,0,0,.107-1c.023-.877.028-1.756.042-2.828q-.212-.649-.446-1.368a22.974,22.974,0,0,0,.749-6.307c.022-.674.015-1.347,0-2.02-.407,0-.759-.339-1.171-.335a1.231,1.231,0,0,0-.475.1,4.928,4.928,0,0,1-2.4.275c-1.315-.09-2.615,0-3.92.038a9.68,9.68,0,0,1-2.8-.248,2.781,2.781,0,0,0-1.446,0,3.633,3.633,0,0,1-1.33.112c-1.579-.207-3.162-.257-4.75-.335-1.513-.075-3.019-.074-4.529-.068a2.209,2.209,0,0,1-.486-.056,5.663,5.663,0,0,0-2.788.088,2.887,2.887,0,0,1-.85.083c-.931-.035-1.867-.053-2.79-.163-.573-.068-1.145.058-1.692-.022a13.259,13.259,0,0,0-2.541-.339,3.532,3.532,0,0,0-2.258-.148,2.267,2.267,0,0,0-1.4.354c-.094.081-.308.028-.466.029a1.848,1.848,0,0,0-.6,0,2.042,2.042,0,0,1-1.317.032,1.222,1.222,0,0,0-.606.017,2.708,2.708,0,0,1-1.084.04,4.429,4.429,0,0,0-1.467.019,5.79,5.79,0,0,1-2.171.049c-.361-.06-.727-.088-1.091-.124a14.739,14.739,0,0,0-3.413-.218,6.049,6.049,0,0,1-2.774.1.342.342,0,0,0-.241.023,2.249,2.249,0,0,1-1.445.01c-.807-.108-1.61-.244-2.416-.364a3.873,3.873,0,0,0,.149.925A1.146,1.146,0,0,1,114.482,225.678Z"/></g><g id="solo_testo" data-name="solo testo"><path class="cls-2" d="M146.211,21.7l-1.467,4.875c-1.264,4.13-2.279,7.741-3.318,11.758l-2.821-.676c.722-2.957,1.76-6.907,2.731-10.315L139.4,27v-.113l4.062-5.732v.135l.023-.09Z"/><path class="cls-2" d="M159.481,26.573c0,5.462-3.657,11.126-8.058,12.142l-4.152-1.241a15.679,15.679,0,0,1-.722-4.9c0-6.68,4.062-11.6,9.411-11.6a12.53,12.53,0,0,1,1.76.135l.677,2.461.948.067C159.413,24.339,159.481,25.738,159.481,26.573Zm-2.889-.609a18.04,18.04,0,0,0-.181-2.347c-3.836.045-6.7,3.859-6.7,9.163a14.154,14.154,0,0,0,.541,4.152C153.455,35.916,156.592,31.4,156.592,25.964Z"/><path class="cls-2" d="M155.023,67.557c0,5.958-4.378,10.178-10.02,11.736l-1.873-2.415c3.611-.768,6.161-2.438,7.538-4.695a5.848,5.848,0,0,1-3.34,1.264c-1.783,0-3.679-1.579-3.341-4.852.294-2.753,1.806-5.507,5.665-7.245l4.6,1.512A13.919,13.919,0,0,1,155.023,67.557Zm-3.182.248a14.943,14.943,0,0,0-.654-4.446,7.055,7.055,0,0,0-4,5.033c-.271,2.031.474,3.047,1.4,3.047a4.663,4.663,0,0,0,2.866-1.016A8.932,8.932,0,0,0,151.841,67.805Z"/><path class="cls-2" d="M154.279,137.314c-.294,2.754-1.806,5.507-5.665,7.245l-4.6-1.512a13.919,13.919,0,0,1-.767-4.695c0-5.958,4.378-10.178,10.02-11.735l1.873,2.415c-3.611.767-6.161,2.437-7.538,4.694a5.848,5.848,0,0,1,3.341-1.264C152.721,132.462,154.617,134.042,154.279,137.314Zm-4.6-2.843a4.664,4.664,0,0,0-2.867,1.015,8.96,8.96,0,0,0-.383,2.618,14.948,14.948,0,0,0,.654,4.446,7.055,7.055,0,0,0,4-5.033C151.345,135.486,150.6,134.471,149.675,134.471Z"/><path class="cls-2" d="M147.26,208.065c0,2.527-2.347,5.461-5.619,6.816l-4.853-1.377a14.331,14.331,0,0,1-.655-4.311,12.981,12.981,0,0,1,.068-1.354h2.844a12.415,12.415,0,0,0,.79,5.394c2.595-1.129,4.288-3.205,4.288-4.9,0-1.715-2.325-2.1-3.272-2.189-.926-.09-1.219-.045-1.829-.09l.271-1.58a14.848,14.848,0,0,0,1.67-.248,4.68,4.68,0,0,0,3.724-4.875c0-.226,0-.5-.022-.812a9.572,9.572,0,0,0-4.131,3.927l-2.527-1.129a10.141,10.141,0,0,1,4.536-4.333l4.965,1.354a5.024,5.024,0,0,1,.248,1.535c0,2.528-2.189,4.22-4.468,4.581C144.958,204.724,147.26,205.74,147.26,208.065Z"/><path class="cls-2" d="M146.256,247.739l-.677,2.663a57.926,57.926,0,0,0-5.913-.2,51.533,51.533,0,0,0-5.258.293l.767-2.708c.677-.09,1.286-.135,1.918-.181,2.6-1.715,6.884-4.942,7.854-9.253a9.932,9.932,0,0,0,.294-2.166,6.191,6.191,0,0,0-.136-1.377c-2.031,1.128-3.814,3.791-4.83,6.184l-2.708-1.016c1.106-3.2,3.318-6.138,5.688-6.883l5.055,1.444a7.042,7.042,0,0,1,.181,1.445,10.44,10.44,0,0,1-2.822,7.334,20.329,20.329,0,0,1-5.1,4.176C142.645,247.491,144.112,247.581,146.256,247.739Z"/><path class="cls-2" d="M146.425,269.945l-1.467,4.875c-1.264,4.13-2.28,7.741-3.318,11.758l-2.821-.676c.722-2.957,1.76-6.907,2.731-10.315l-1.941-.338v-.113l4.063-5.732v.135l.022-.09Z"/><path class="cls-2" d="M122.943,174.642l-3.385-.068c-.294,1.173-.609,2.369-.948,3.679l-2.776-.677c.271-1.084.519-2.077.745-3.047-.993-.023-2.009-.023-2.979-.023-1.332,0-2.573.023-3.589.045l.045-1.941c1.9-2.663,4.74-6.928,6.861-9.772h2.822c.2-.722.428-1.467.676-2.279l3,.587c-1.512,4.829-2.415,8.034-3.227,11.058,1.218-.045,2.37-.09,3.408-.09Zm-5.822-2.325c.676-2.641,1.376-5.3,2.482-9.028-2.257,3.115-4.694,6.365-6.68,9.208C114.209,172.453,115.653,172.385,117.121,172.317Z"/><path class="cls-2" d="M171.848,163.921l-1.422,3.453a13.637,13.637,0,0,1,2.438-.361c1.94,0,4.039.926,4.039,3.589,0,3.159-2.776,6.59-5.89,8.215L166.3,177.26a18.182,18.182,0,0,1-.542-4.469c0-.406,0-.993.023-1.2H168.6a18.122,18.122,0,0,0,.677,5.348c2.46-1.466,4.311-3.768,4.311-5.777,0-1.941-1.806-2.167-2.889-2.167a17.662,17.662,0,0,0-3.386.316l-.09-.225,2.009-4.988c-.564.045-1.151.113-1.761.18l.79-2.73a54.906,54.906,0,0,1,6.523-.384c1.422,0,2.527.045,3.408.09l-.678,2.686c-.767-.023-1.805-.09-3.2-.09C173.586,163.854,172.75,163.876,171.848,163.921Z"/><path class="cls-2" d="M130.21,95.924c-4.762,5.913-8.689,11.623-11.194,17.085l-2.324-.881A58.05,58.05,0,0,1,124.41,98.9c-2.37.023-4.446.091-6.658.226l.813-2.979C122.356,95.992,125.945,95.9,130.21,95.924Z"/><path class="cls-2" d="M181.687,105.561c1.264,1.264,1.715,2.077,1.715,3.182,0,2.528-2.663,4.492-5.958,4.492-3.543,0-6.048-1.648-6.048-4.131,0-2.369,1.986-3.633,4.491-4.762l-.406-.406a3.8,3.8,0,0,1-1.241-2.844,5.026,5.026,0,0,1,2.5-4.084h3.093a24.109,24.109,0,0,0-2.1-1.4l2.731-1.6c2.46,1.377,4.333,3.543,4.333,5.665a6.143,6.143,0,0,1-3.724,5.281Zm-3.543,5.868a4.838,4.838,0,0,0,2.211-.541,3.066,3.066,0,0,0,.136-1.084,2.932,2.932,0,0,0-1.106-2.212c-.857-.857-1.692-1.579-2.46-2.3-1.354.768-2.3,1.761-2.3,3.273C174.623,110.617,176,111.429,178.144,111.429Zm-.858-10.9c0,.429.136.858.858,1.648.384.429,1.128,1.106,1.9,1.8a5.14,5.14,0,0,0,1.534-3.565,3.885,3.885,0,0,0-1.263-2.979C178.415,98.362,177.286,99.445,177.286,100.528Z"/></g></svg>