<svg id="Livello_1" data-name="Livello 1" xmlns="http://www.w3.org/2000/svg" viewBox="0 0 952 347.575"><defs><style>.cls-1{fill:none;stroke:#1858a8;stroke-miterlimit:10;stroke-width:2.6px;}.cls-2{fill:#f36;}</style></defs><title>manuale_ill_nuove</title><line class="cls-1" x1="181.174" y1="45.368" x2="181.174" y2="3.921"/><line class="cls-1" x1="257.309" y1="45.368" x2="257.309" y2="3.921"/><line class="cls-1" x1="333.444" y1="45.368" x2="333.444" y2="3.921"/><line class="cls-1" x1="409.578" y1="45.368" x2="409.578" y2="3.921"/><line class="cls-1" x1="485.713" y1="45.368" x2="485.713" y2="3.921"/><line class="cls-1" x1="561.847" y1="45.368" x2="561.847" y2="3.921"/><line class="cls-1" x1="637.982" y1="45.368" x2="637.982" y2="3.921"/><line class="cls-1" x1="714.117" y1="45.368" x2="714.117" y2="3.921"/><line class="cls-1" x1="88.099" y1="46.625" x2="181.174" y2="46.625"/><line class="cls-1" x1="181.174" y1="46.625" x2="257.308" y2="46.625"/><line class="cls-1" x1="181.174" y1="88.072" x2="181.174" y2="47.882"/><line class="cls-1" x1="257.309" y1="46.625" x2="333.442" y2="46.625"/><line class="cls-1" x1="257.309" y1="88.072" x2="257.309" y2="47.882"/><line class="cls-1" x1="333.444" y1="46.625" x2="409.577" y2="46.625"/><line class="cls-1" x1="333.444" y1="88.072" x2="333.444" y2="47.882"/><line class="cls-1" x1="409.578" y1="46.625" x2="485.712" y2="46.625"/><line class="cls-1" x1="409.578" y1="88.072" x2="409.578" y2="47.882"/><line class="cls-1" x1="485.713" y1="46.625" x2="561.846" y2="46.625"/><line class="cls-1" x1="485.713" y1="88.072" x2="485.713" y2="47.882"/><line class="cls-1" x1="561.847" y1="46.625" x2="637.981" y2="46.625"/><line class="cls-1" x1="561.847" y1="88.072" x2="561.847" y2="47.882"/><line class="cls-1" x1="637.982" y1="46.625" x2="714.116" y2="46.625"/><line class="cls-1" x1="637.982" y1="88.072" x2="637.982" y2="47.882"/><line class="cls-1" x1="714.117" y1="46.625" x2="790.25" y2="46.625"/><line class="cls-1" x1="714.117" y1="88.072" x2="714.117" y2="47.882"/><line class="cls-1" x1="88.099" y1="89.329" x2="181.174" y2="89.329"/><line class="cls-1" x1="181.174" y1="89.329" x2="257.308" y2="89.329"/><line class="cls-1" x1="181.174" y1="130.775" x2="181.174" y2="90.586"/><line class="cls-1" x1="257.309" y1="89.329" x2="333.442" y2="89.329"/><line class="cls-1" x1="257.309" y1="130.775" x2="257.309" y2="90.586"/><line class="cls-1" x1="333.444" y1="89.329" x2="409.577" y2="89.329"/><line class="cls-1" x1="333.444" y1="130.775" x2="333.444" y2="90.586"/><line class="cls-1" x1="409.578" y1="89.329" x2="485.712" y2="89.329"/><line class="cls-1" x1="409.578" y1="130.775" x2="409.578" y2="90.586"/><line class="cls-1" x1="485.713" y1="89.329" x2="561.846" y2="89.329"/><line class="cls-1" x1="485.713" y1="130.775" x2="485.713" y2="90.586"/><line class="cls-1" x1="561.847" y1="89.329" x2="637.981" y2="89.329"/><line class="cls-1" x1="561.847" y1="130.775" x2="561.847" y2="90.586"/><line class="cls-1" x1="637.982" y1="89.329" x2="714.116" y2="89.329"/><line class="cls-1" x1="637.982" y1="130.775" x2="637.982" y2="90.586"/><line class="cls-1" x1="714.117" y1="89.329" x2="790.25" y2="89.329"/><line class="cls-1" x1="714.117" y1="130.775" x2="714.117" y2="90.586"/><line class="cls-1" x1="88.099" y1="132.033" x2="181.174" y2="132.033"/><line class="cls-1" x1="181.174" y1="132.033" x2="257.308" y2="132.033"/><line class="cls-1" x1="181.174" y1="173.479" x2="181.174" y2="133.29"/><line class="cls-1" x1="257.309" y1="132.033" x2="333.442" y2="132.033"/><line class="cls-1" x1="257.309" y1="173.479" x2="257.309" y2="133.29"/><line class="cls-1" x1="333.444" y1="132.033" x2="409.577" y2="132.033"/><line class="cls-1" x1="333.444" y1="173.479" x2="333.444" y2="133.29"/><line class="cls-1" x1="409.578" y1="132.033" x2="485.712" y2="132.033"/><line class="cls-1" x1="409.578" y1="173.479" x2="409.578" y2="133.29"/><line class="cls-1" x1="485.713" y1="132.033" x2="561.846" y2="132.033"/><line class="cls-1" x1="485.713" y1="173.479" x2="485.713" y2="133.29"/><line class="cls-1" x1="561.847" y1="132.033" x2="637.981" y2="132.033"/><line class="cls-1" x1="561.847" y1="173.479" x2="561.847" y2="133.29"/><line class="cls-1" x1="637.982" y1="132.033" x2="714.116" y2="132.033"/><line class="cls-1" x1="637.982" y1="173.479" x2="637.982" y2="133.29"/><line class="cls-1" x1="714.117" y1="132.033" x2="790.25" y2="132.033"/><line class="cls-1" x1="714.117" y1="173.479" x2="714.117" y2="133.29"/><line class="cls-1" x1="181.174" y1="174.737" x2="257.308" y2="174.737"/><line class="cls-1" x1="181.174" y1="216.183" x2="181.174" y2="175.994"/><line class="cls-1" x1="257.309" y1="174.737" x2="333.442" y2="174.737"/><line class="cls-1" x1="257.309" y1="216.183" x2="257.309" y2="175.994"/><line class="cls-1" x1="333.444" y1="174.737" x2="409.577" y2="174.737"/><line class="cls-1" x1="333.444" y1="216.183" x2="333.444" y2="175.994"/><line class="cls-1" x1="409.578" y1="174.737" x2="485.712" y2="174.737"/><line class="cls-1" x1="409.578" y1="216.183" x2="409.578" y2="175.994"/><line class="cls-1" x1="485.713" y1="174.737" x2="561.846" y2="174.737"/><line class="cls-1" x1="485.713" y1="216.183" x2="485.713" y2="175.994"/><line class="cls-1" x1="561.847" y1="174.737" x2="637.981" y2="174.737"/><line class="cls-1" x1="561.847" y1="216.183" x2="561.847" y2="175.994"/><line class="cls-1" x1="637.982" y1="174.737" x2="714.116" y2="174.737"/><line class="cls-1" x1="637.982" y1="216.183" x2="637.982" y2="175.994"/><line class="cls-1" x1="714.117" y1="174.737" x2="790.25" y2="174.737"/><line class="cls-1" x1="714.117" y1="216.183" x2="714.117" y2="175.994"/><line class="cls-1" x1="88.099" y1="217.441" x2="181.174" y2="217.441"/><line class="cls-1" x1="181.174" y1="217.441" x2="257.308" y2="217.441"/><line class="cls-1" x1="181.174" y1="258.887" x2="181.174" y2="218.698"/><line class="cls-1" x1="257.309" y1="217.441" x2="333.442" y2="217.441"/><line class="cls-1" x1="257.309" y1="258.887" x2="257.309" y2="218.698"/><line class="cls-1" x1="333.444" y1="217.441" x2="409.577" y2="217.441"/><line class="cls-1" x1="333.444" y1="258.887" x2="333.444" y2="218.698"/><line class="cls-1" x1="409.578" y1="217.441" x2="485.712" y2="217.441"/><line class="cls-1" x1="409.578" y1="258.887" x2="409.578" y2="218.698"/><line class="cls-1" x1="485.713" y1="217.441" x2="561.846" y2="217.441"/><line class="cls-1" x1="485.713" y1="258.887" x2="485.713" y2="218.698"/><line class="cls-1" x1="561.847" y1="217.441" x2="637.981" y2="217.441"/><line class="cls-1" x1="561.847" y1="258.887" x2="561.847" y2="218.698"/><line class="cls-1" x1="637.982" y1="217.441" x2="714.116" y2="217.441"/><line class="cls-1" x1="637.982" y1="258.887" x2="637.982" y2="218.698"/><line class="cls-1" x1="714.117" y1="217.441" x2="790.25" y2="217.441"/><line class="cls-1" x1="714.117" y1="258.887" x2="714.117" y2="218.698"/><line class="cls-1" x1="88.099" y1="260.145" x2="181.174" y2="260.145"/><line class="cls-1" x1="181.174" y1="260.145" x2="257.308" y2="260.145"/><line class="cls-1" x1="181.174" y1="301.59" x2="181.174" y2="261.401"/><line class="cls-1" x1="257.309" y1="260.145" x2="333.442" y2="260.145"/><line class="cls-1" x1="257.309" y1="301.59" x2="257.309" y2="261.401"/><line class="cls-1" x1="333.444" y1="260.145" x2="409.577" y2="260.145"/><line class="cls-1" x1="333.444" y1="301.59" x2="333.444" y2="261.401"/><line class="cls-1" x1="409.578" y1="260.145" x2="485.712" y2="260.145"/><line class="cls-1" x1="409.578" y1="301.59" x2="409.578" y2="261.401"/><line class="cls-1" x1="485.713" y1="260.145" x2="561.846" y2="260.145"/><line class="cls-1" x1="485.713" y1="301.59" x2="485.713" y2="261.401"/><line class="cls-1" x1="561.847" y1="260.145" x2="637.981" y2="260.145"/><line class="cls-1" x1="561.847" y1="301.59" x2="561.847" y2="261.401"/><line class="cls-1" x1="637.982" y1="260.145" x2="714.116" y2="260.145"/><line class="cls-1" x1="637.982" y1="301.59" x2="637.982" y2="261.401"/><line class="cls-1" x1="714.117" y1="260.145" x2="790.25" y2="260.145"/><line class="cls-1" x1="714.117" y1="301.59" x2="714.117" y2="261.401"/><line class="cls-1" x1="88.099" y1="302.848" x2="181.174" y2="302.848"/><line class="cls-1" x1="181.174" y1="302.848" x2="257.308" y2="302.848"/><line class="cls-1" x1="181.174" y1="344.294" x2="181.174" y2="304.105"/><line class="cls-1" x1="257.309" y1="302.848" x2="333.442" y2="302.848"/><line class="cls-1" x1="257.309" y1="344.294" x2="257.309" y2="304.105"/><line class="cls-1" x1="333.444" y1="302.848" x2="409.577" y2="302.848"/><line class="cls-1" x1="333.444" y1="344.294" x2="333.444" y2="304.105"/><line class="cls-1" x1="409.578" y1="302.848" x2="485.712" y2="302.848"/><line class="cls-1" x1="409.578" y1="344.294" x2="409.578" y2="304.105"/><line class="cls-1" x1="485.713" y1="302.848" x2="561.846" y2="302.848"/><line class="cls-1" x1="485.713" y1="344.294" x2="485.713" y2="304.105"/><line class="cls-1" x1="561.847" y1="302.848" x2="637.981" y2="302.848"/><line class="cls-1" x1="561.847" y1="344.294" x2="561.847" y2="304.105"/><line class="cls-1" x1="637.982" y1="302.848" x2="714.116" y2="302.848"/><line class="cls-1" x1="637.982" y1="344.294" x2="637.982" y2="304.105"/><line class="cls-1" x1="714.117" y1="302.848" x2="790.25" y2="302.848"/><line class="cls-1" x1="714.117" y1="344.294" x2="714.117" y2="304.105"/><path class="cls-2" d="M222.753,34.089v2.475H207.9V33.787c5.282-3.229,11.439-6.519,11.439-11.771,0-2.324-1.027-3.8-4.467-3.8-3.743,0-4.739,1.66-4.739,4.5a5.14,5.14,0,0,0,.242,1.841l-2.868-.211a14.153,14.153,0,0,1-.12-1.932c0-4.014,2.626-6.67,7.635-6.67,5.886,0,7.154,3.26,7.154,5.976,0,5.8-5.433,9.055-8.753,11.288l-1.63.725v.362Z"/><path class="cls-2" d="M239.386,15.074,235.372,22.5h3.048v1.9h-8.028V22.5h2.838l3.44-6.308.815-1.056v-.242h-7.576V13.022h9.477Z"/><path class="cls-2" d="M298.417,34.089v2.475H283.568V33.787c5.282-3.229,11.439-6.519,11.439-11.771,0-2.324-1.026-3.8-4.467-3.8-3.743,0-4.739,1.66-4.739,4.5a5.14,5.14,0,0,0,.242,1.841l-2.868-.211a14.153,14.153,0,0,1-.12-1.932c0-4.014,2.626-6.67,7.636-6.67,5.885,0,7.153,3.26,7.153,5.976,0,5.8-5.433,9.055-8.753,11.288l-1.63.725v.362Z"/><path class="cls-2" d="M315.262,20.9c0,2.021-1.479,3.712-4.678,3.712-3.23,0-5.041-1.932-5.041-5.554,0-3.32,1.268-6.247,5.523-6.247a12.886,12.886,0,0,1,4.015.573l-.483,1.932a9.927,9.927,0,0,0-3.682-.634c-2.113,0-2.9,1.026-3.14,2.535l2.747.3C314.054,17.881,315.262,18.756,315.262,20.9Zm-2.113.18c0-.935-.724-1.539-3.2-1.78l-2.294-.242c.03,2.294.935,3.682,3.078,3.682C312.425,22.74,313.149,22.016,313.149,21.08Z"/><path class="cls-2" d="M375.066,34.089v2.475h-14.85V33.787c5.282-3.229,11.439-6.519,11.439-11.771,0-2.324-1.026-3.8-4.466-3.8-3.744,0-4.739,1.66-4.739,4.5a5.145,5.145,0,0,0,.241,1.841l-2.867-.211a14.119,14.119,0,0,1-.121-1.932c0-4.014,2.626-6.67,7.636-6.67,5.886,0,7.153,3.26,7.153,5.976,0,5.8-5.432,9.055-8.753,11.288l-1.63.725v.362Z"/><path class="cls-2" d="M391.7,20.9c0,2.021-1.509,3.742-5.373,3.742a11.489,11.489,0,0,1-4.345-.845l.6-1.962a9.3,9.3,0,0,0,3.924.9c2.142,0,3.078-.6,3.078-1.629,0-1.087-.845-1.57-3.2-1.962l-3.562-.6.061-5.523h8.39v1.9h-6.308l-.03,1.992,2.052.332C390.371,17.821,391.7,18.666,391.7,20.9Z"/><path class="cls-2" d="M450.722,34.089v2.475H435.873V33.787c5.281-3.229,11.439-6.519,11.439-11.771,0-2.324-1.027-3.8-4.467-3.8-3.743,0-4.739,1.66-4.739,4.5a5.117,5.117,0,0,0,.242,1.841l-2.868-.211a14.119,14.119,0,0,1-.121-1.932c0-4.014,2.626-6.67,7.636-6.67,5.886,0,7.154,3.26,7.154,5.976,0,5.8-5.433,9.055-8.753,11.288l-1.63.725v.362Z"/><path class="cls-2" d="M468.049,22.228h-1.69V24.4h-2.173V22.228h-6.7V20.175l4.437-7.153h2.264l-3.743,6.006-.935,1.086v.211h4.678v-7.3h2.173v7.3h1.69Z"/><path class="cls-2" d="M527.374,34.089v2.475H512.525V33.787c5.282-3.229,11.439-6.519,11.439-11.771,0-2.324-1.026-3.8-4.467-3.8-3.743,0-4.739,1.66-4.739,4.5A5.14,5.14,0,0,0,515,24.551l-2.868-.211a14.153,14.153,0,0,1-.12-1.932c0-4.014,2.626-6.67,7.636-6.67,5.885,0,7.153,3.26,7.153,5.976,0,5.8-5.433,9.055-8.753,11.288l-1.63.725v.362Z"/><path class="cls-2" d="M543.8,21.171c0,1.9-1.509,3.441-5.553,3.441a11.333,11.333,0,0,1-4.528-.875l.483-1.812a9.485,9.485,0,0,0,4.226.815c2.173,0,3.169-.453,3.169-1.569,0-.966-.815-1.51-2.988-1.51h-3.622V17.79h4.558a2.709,2.709,0,0,1,.452.031A1.9,1.9,0,0,0,541.2,16.1c0-1-.844-1.419-2.6-1.419a9.857,9.857,0,0,0-4.226.9l-.452-1.78a10.894,10.894,0,0,1,4.708-1c3.018,0,4.739.966,4.739,3.108a2.651,2.651,0,0,1-1.721,2.6A2.57,2.57,0,0,1,543.8,21.171Z"/><path class="cls-2" d="M603.03,34.262v2.475l-14.849-.005V33.955c5.283-3.227,11.441-6.515,11.443-11.767,0-2.325-1.025-3.8-4.466-3.8-3.742,0-4.739,1.659-4.74,4.5a5.145,5.145,0,0,0,.241,1.841l-2.867-.212a13.991,13.991,0,0,1-.12-1.932c0-4.014,2.628-6.669,7.638-6.668,5.885,0,7.152,3.263,7.151,5.979,0,5.795-5.436,9.053-8.757,11.285l-1.63.724v.362Z"/><path class="cls-2" d="M619.667,22.678v1.9l-9.085,0V22.493c5.162-2.472,6.551-3.77,6.551-5.823,0-.935-.482-1.78-2.293-1.78-1.75,0-2.415,1.025-2.415,2.052a3.418,3.418,0,0,0,.271,1.448l-2.2-.122a6.047,6.047,0,0,1-.211-1.539c0-2.234,1.812-3.711,4.679-3.71,3.26,0,4.346,1.811,4.346,3.471,0,3.109-2.537,4.587-4.651,5.583l-1.207.421v.182Z"/><path class="cls-2" d="M679.679,34.089v2.475H664.83V33.787c5.281-3.229,11.439-6.519,11.439-11.771,0-2.324-1.027-3.8-4.467-3.8-3.743,0-4.739,1.66-4.739,4.5a5.117,5.117,0,0,0,.242,1.841l-2.868-.211a14.119,14.119,0,0,1-.121-1.932c0-4.014,2.626-6.67,7.636-6.67,5.886,0,7.154,3.26,7.154,5.976,0,5.8-5.433,9.055-8.753,11.288l-1.63.725v.362Z"/><path class="cls-2" d="M696.614,22.5v1.9h-8.753V22.5h3.682V16.462l-3.682,1.389V15.859l3.682-1.418V13.022h2.113V22.5Z"/><path class="cls-2" d="M755.347,34.089v2.475H740.5V33.787c5.281-3.229,11.439-6.519,11.439-11.771,0-2.324-1.027-3.8-4.467-3.8-3.743,0-4.739,1.66-4.739,4.5a5.117,5.117,0,0,0,.242,1.841l-2.868-.211a14.119,14.119,0,0,1-.121-1.932c0-4.014,2.626-6.67,7.636-6.67,5.886,0,7.154,3.26,7.154,5.976,0,5.8-5.433,9.055-8.753,11.288l-1.63.725v.362Z"/><path class="cls-2" d="M762.5,18.786c0-3.772,1.75-5.915,4.708-5.915,3.109,0,4.588,2.113,4.588,5.8,0,3.8-1.751,5.946-4.708,5.946C763.982,24.612,762.5,22.5,762.5,18.786Zm7.184-.03c0-2.6-.7-3.953-2.506-3.953-1.871,0-2.565,1.388-2.565,3.923,0,2.565.694,3.924,2.5,3.924C768.992,22.65,769.687,21.291,769.687,18.756Z"/><path class="cls-2" d="M228.191,68.835c0,7.607-2.868,10.745-7.7,10.745-5.071,0-7.515-3.531-7.515-10.383,0-7.152,2.867-10.744,7.7-10.744C225.746,58.453,228.191,61.985,228.191,68.835Zm-12.375.212c0,.905.03,1.75.09,2.505l8.844-7.666a3.925,3.925,0,0,0-4.135-2.958C216.933,60.928,215.816,63.765,215.816,69.047Zm9.538-.06c0-.906-.031-1.751-.091-2.5l-8.843,7.666a3.924,3.924,0,0,0,4.134,2.958C224.236,77.106,225.354,74.872,225.354,68.987Z"/><path class="cls-2" d="M303.847,68.835c0,7.607-2.867,10.745-7.7,10.745-5.07,0-7.515-3.531-7.515-10.383,0-7.152,2.867-10.744,7.7-10.744C301.4,58.453,303.847,61.985,303.847,68.835Zm-12.375.212c0,.905.03,1.75.091,2.505l8.843-7.666a3.925,3.925,0,0,0-4.135-2.958C292.589,60.928,291.472,63.765,291.472,69.047Zm9.538-.06c0-.906-.03-1.751-.091-2.5l-8.843,7.666a3.924,3.924,0,0,0,4.135,2.958C299.893,77.106,301.01,74.872,301.01,68.987Z"/><path class="cls-2" d="M380.5,68.835c0,7.607-2.867,10.745-7.7,10.745-5.071,0-7.516-3.531-7.516-10.383,0-7.152,2.867-10.744,7.7-10.744C378.054,58.453,380.5,61.985,380.5,68.835Zm-12.375.212c0,.905.03,1.75.091,2.505l8.843-7.666a3.924,3.924,0,0,0-4.135-2.958C369.241,60.928,368.124,63.765,368.124,69.047Zm9.538-.06c0-.906-.03-1.751-.091-2.5l-8.843,7.666a3.925,3.925,0,0,0,4.135,2.958C376.545,77.106,377.662,74.872,377.662,68.987Z"/><path class="cls-2" d="M456.159,68.835c0,7.607-2.867,10.745-7.7,10.745-5.071,0-7.516-3.531-7.516-10.383,0-7.152,2.868-10.744,7.7-10.744C453.714,58.453,456.159,61.985,456.159,68.835Zm-12.375.212c0,.905.031,1.75.091,2.505l8.843-7.666a3.923,3.923,0,0,0-4.134-2.958C444.9,60.928,443.784,63.765,443.784,69.047Zm9.538-.06c0-.906-.03-1.751-.09-2.5l-8.844,7.666a3.925,3.925,0,0,0,4.135,2.958C452.205,77.106,453.322,74.872,453.322,68.987Z"/><path class="cls-2" d="M532.808,68.835c0,7.607-2.867,10.745-7.7,10.745-5.07,0-7.515-3.531-7.515-10.383,0-7.152,2.867-10.744,7.7-10.744C530.363,58.453,532.808,61.985,532.808,68.835Zm-12.375.212c0,.905.03,1.75.091,2.505l8.843-7.666a3.925,3.925,0,0,0-4.135-2.958C521.55,60.928,520.433,63.765,520.433,69.047Zm9.538-.06c0-.906-.03-1.751-.091-2.5l-8.843,7.666a3.924,3.924,0,0,0,4.134,2.958C528.854,77.106,529.971,74.872,529.971,68.987Z"/><path class="cls-2" d="M608.472,68.835c0,7.607-2.867,10.745-7.7,10.745-5.07,0-7.515-3.531-7.515-10.383,0-7.152,2.867-10.744,7.7-10.744C606.027,58.453,608.472,61.985,608.472,68.835Zm-12.375.212c0,.905.03,1.75.091,2.505l8.843-7.666a3.925,3.925,0,0,0-4.135-2.958C597.214,60.928,596.1,63.765,596.1,69.047Zm9.538-.06c0-.906-.03-1.751-.091-2.5L596.7,74.148a3.924,3.924,0,0,0,4.135,2.958C604.518,77.106,605.635,74.872,605.635,68.987Z"/><path class="cls-2" d="M685.12,68.835c0,7.607-2.867,10.745-7.7,10.745-5.071,0-7.516-3.531-7.516-10.383,0-7.152,2.867-10.744,7.7-10.744C682.675,58.453,685.12,61.985,685.12,68.835Zm-12.375.212c0,.905.03,1.75.091,2.505l8.843-7.666a3.923,3.923,0,0,0-4.134-2.958C673.862,60.928,672.745,63.765,672.745,69.047Zm9.538-.06c0-.906-.03-1.751-.091-2.5l-8.843,7.666a3.925,3.925,0,0,0,4.135,2.958C681.166,77.106,682.283,74.872,682.283,68.987Z"/><path class="cls-2" d="M760.776,68.835c0,7.607-2.867,10.745-7.7,10.745-5.071,0-7.515-3.531-7.515-10.383,0-7.152,2.867-10.744,7.7-10.744C758.332,58.453,760.776,61.985,760.776,68.835Zm-12.375.212c0,.905.031,1.75.091,2.505l8.844-7.666a3.925,3.925,0,0,0-4.135-2.958C749.519,60.928,748.4,63.765,748.4,69.047Zm9.539-.06c0-.906-.031-1.751-.091-2.5l-8.844,7.666a3.926,3.926,0,0,0,4.135,2.958C756.822,77.106,757.94,74.872,757.94,68.987Z"/><path class="cls-2" d="M228.183,111.546c0,7.607-2.867,10.745-7.7,10.745-5.07,0-7.515-3.531-7.515-10.383,0-7.152,2.867-10.744,7.7-10.744C225.738,101.164,228.183,104.7,228.183,111.546Zm-12.375.212c0,.905.03,1.75.091,2.505l8.843-7.666a3.925,3.925,0,0,0-4.135-2.958C216.925,103.639,215.808,106.476,215.808,111.758Zm9.538-.061c0-.905-.03-1.751-.091-2.5l-8.843,7.666a3.924,3.924,0,0,0,4.134,2.958C224.229,119.817,225.346,117.583,225.346,111.7Z"/><path class="cls-2" d="M303.851,111.546c0,7.607-2.868,10.745-7.7,10.745-5.07,0-7.515-3.531-7.515-10.383,0-7.152,2.867-10.744,7.7-10.744C301.406,101.164,303.851,104.7,303.851,111.546Zm-12.375.212c0,.905.03,1.75.09,2.505l8.844-7.666a3.925,3.925,0,0,0-4.135-2.958C292.593,103.639,291.476,106.476,291.476,111.758Zm9.538-.061c0-.905-.031-1.751-.091-2.5l-8.843,7.666a3.924,3.924,0,0,0,4.134,2.958C299.9,119.817,301.014,117.583,301.014,111.7Z"/><path class="cls-2" d="M380.5,111.546c0,7.607-2.867,10.745-7.7,10.745-5.071,0-7.516-3.531-7.516-10.383,0-7.152,2.867-10.744,7.7-10.744C378.054,101.164,380.5,104.7,380.5,111.546Zm-12.375.212c0,.905.03,1.75.091,2.505l8.843-7.666a3.924,3.924,0,0,0-4.135-2.958C369.241,103.639,368.124,106.476,368.124,111.758Zm9.538-.061c0-.905-.03-1.751-.091-2.5l-8.843,7.666a3.925,3.925,0,0,0,4.135,2.958C376.545,119.817,377.662,117.583,377.662,111.7Z"/><path class="cls-2" d="M456.163,111.546c0,7.607-2.867,10.745-7.7,10.745-5.071,0-7.516-3.531-7.516-10.383,0-7.152,2.867-10.744,7.7-10.744C453.718,101.164,456.163,104.7,456.163,111.546Zm-12.375.212c0,.905.03,1.75.091,2.505l8.843-7.666a3.924,3.924,0,0,0-4.135-2.958C444.905,103.639,443.788,106.476,443.788,111.758Zm9.538-.061c0-.905-.03-1.751-.091-2.5l-8.843,7.666a3.925,3.925,0,0,0,4.135,2.958C452.209,119.817,453.326,117.583,453.326,111.7Z"/><path class="cls-2" d="M532.808,111.546c0,7.607-2.867,10.745-7.7,10.745-5.07,0-7.515-3.531-7.515-10.383,0-7.152,2.867-10.744,7.7-10.744C530.363,101.164,532.808,104.7,532.808,111.546Zm-12.375.212c0,.905.03,1.75.091,2.505l8.843-7.666a3.925,3.925,0,0,0-4.135-2.958C521.55,103.639,520.433,106.476,520.433,111.758Zm9.538-.061c0-.905-.03-1.751-.091-2.5l-8.843,7.666a3.924,3.924,0,0,0,4.134,2.958C528.854,119.817,529.971,117.583,529.971,111.7Z"/><path class="cls-2" d="M608.472,111.546c0,7.607-2.867,10.745-7.7,10.745-5.07,0-7.515-3.531-7.515-10.383,0-7.152,2.867-10.744,7.7-10.744C606.027,101.164,608.472,104.7,608.472,111.546Zm-12.375.212c0,.905.03,1.75.091,2.505l8.843-7.666a3.925,3.925,0,0,0-4.135-2.958C597.214,103.639,596.1,106.476,596.1,111.758Zm9.538-.061c0-.905-.03-1.751-.091-2.5l-8.843,7.666a3.924,3.924,0,0,0,4.135,2.958C604.518,119.817,605.635,117.583,605.635,111.7Z"/><path class="cls-2" d="M685.12,111.546c0,7.607-2.867,10.745-7.7,10.745-5.071,0-7.516-3.531-7.516-10.383,0-7.152,2.867-10.744,7.7-10.744C682.675,101.164,685.12,104.7,685.12,111.546Zm-12.375.212c0,.905.03,1.75.091,2.505l8.843-7.666a3.923,3.923,0,0,0-4.134-2.958C673.862,103.639,672.745,106.476,672.745,111.758Zm9.538-.061c0-.905-.03-1.751-.091-2.5l-8.843,7.666a3.925,3.925,0,0,0,4.135,2.958C681.166,119.817,682.283,117.583,682.283,111.7Z"/><path class="cls-2" d="M761.108,119.515v2.474H746.742v-2.474h6.4V106.536l-6.4,2.445V106.3l6.4-2.445v-2.384h2.777v18.049Z"/><path class="cls-2" d="M228.183,154.263c0,7.606-2.867,10.745-7.7,10.745-5.07,0-7.515-3.531-7.515-10.383,0-7.152,2.867-10.744,7.7-10.744C225.738,143.881,228.183,147.412,228.183,154.263Zm-12.375.212c0,.905.03,1.75.091,2.5l8.843-7.666a3.925,3.925,0,0,0-4.135-2.958C216.925,146.356,215.808,149.193,215.808,154.475Zm9.538-.061c0-.905-.03-1.751-.091-2.5l-8.843,7.666a3.924,3.924,0,0,0,4.134,2.958C224.229,162.533,225.346,160.3,225.346,154.414Z"/><path class="cls-2" d="M303.847,154.263c0,7.606-2.867,10.745-7.7,10.745-5.07,0-7.515-3.531-7.515-10.383,0-7.152,2.867-10.744,7.7-10.744C301.4,143.881,303.847,147.412,303.847,154.263Zm-12.375.212c0,.905.03,1.75.091,2.5l8.843-7.666a3.925,3.925,0,0,0-4.135-2.958C292.589,146.356,291.472,149.193,291.472,154.475Zm9.538-.061c0-.905-.03-1.751-.091-2.5l-8.843,7.666a3.924,3.924,0,0,0,4.135,2.958C299.893,162.533,301.01,160.3,301.01,154.414Z"/><path class="cls-2" d="M380.5,154.263c0,7.606-2.867,10.745-7.7,10.745-5.071,0-7.516-3.531-7.516-10.383,0-7.152,2.867-10.744,7.7-10.744C378.054,143.881,380.5,147.412,380.5,154.263Zm-12.375.212c0,.905.03,1.75.091,2.5l8.843-7.666a3.924,3.924,0,0,0-4.135-2.958C369.241,146.356,368.124,149.193,368.124,154.475Zm9.538-.061c0-.905-.03-1.751-.091-2.5l-8.843,7.666a3.925,3.925,0,0,0,4.135,2.958C376.545,162.533,377.662,160.3,377.662,154.414Z"/><path class="cls-2" d="M456.159,154.263c0,7.606-2.867,10.745-7.7,10.745-5.071,0-7.516-3.531-7.516-10.383,0-7.152,2.868-10.744,7.7-10.744C453.714,143.881,456.159,147.412,456.159,154.263Zm-12.375.212c0,.905.031,1.75.091,2.5l8.843-7.666a3.923,3.923,0,0,0-4.134-2.958C444.9,146.356,443.784,149.193,443.784,154.475Zm9.538-.061c0-.905-.03-1.751-.09-2.5l-8.844,7.666a3.925,3.925,0,0,0,4.135,2.958C452.205,162.533,453.322,160.3,453.322,154.414Z"/><path class="cls-2" d="M532.808,154.263c0,7.606-2.867,10.745-7.7,10.745-5.07,0-7.515-3.531-7.515-10.383,0-7.152,2.867-10.744,7.7-10.744C530.363,143.881,532.808,147.412,532.808,154.263Zm-12.375.212c0,.905.03,1.75.091,2.5l8.843-7.666a3.925,3.925,0,0,0-4.135-2.958C521.55,146.356,520.433,149.193,520.433,154.475Zm9.538-.061c0-.905-.03-1.751-.091-2.5l-8.843,7.666a3.924,3.924,0,0,0,4.134,2.958C528.854,162.533,529.971,160.3,529.971,154.414Z"/><path class="cls-2" d="M608.472,154.263c0,7.606-2.867,10.745-7.7,10.745-5.07,0-7.515-3.531-7.515-10.383,0-7.152,2.867-10.744,7.7-10.744C606.027,143.881,608.472,147.412,608.472,154.263Zm-12.375.212c0,.905.03,1.75.091,2.5l8.843-7.666a3.925,3.925,0,0,0-4.135-2.958C597.214,146.356,596.1,149.193,596.1,154.475Zm9.538-.061c0-.905-.03-1.751-.091-2.5l-8.843,7.666a3.924,3.924,0,0,0,4.135,2.958C604.518,162.533,605.635,160.3,605.635,154.414Z"/><path class="cls-2" d="M685.452,162.232v2.474H671.086v-2.474h6.4V149.253l-6.4,2.444v-2.685l6.4-2.445v-2.384h2.777v18.049Z"/><path class="cls-2" d="M760.776,154.263c0,7.606-2.867,10.745-7.7,10.745-5.071,0-7.515-3.531-7.515-10.383,0-7.152,2.867-10.744,7.7-10.744C758.332,143.881,760.776,147.412,760.776,154.263Zm-12.375.212c0,.905.031,1.75.091,2.5l8.844-7.666a3.925,3.925,0,0,0-4.135-2.958C749.519,146.356,748.4,149.193,748.4,154.475Zm9.539-.061c0-.905-.031-1.751-.091-2.5l-8.844,7.666a3.926,3.926,0,0,0,4.135,2.958C756.822,162.533,757.94,160.3,757.94,154.414Z"/><path class="cls-2" d="M228.523,247.661v2.475H214.156v-2.475h6.4V234.683l-6.4,2.444v-2.685l6.4-2.446v-2.384h2.777v18.049Z"/><path class="cls-2" d="M304.179,247.661v2.475H289.812v-2.475h6.4V234.683l-6.4,2.444v-2.685l6.4-2.446v-2.384h2.776v18.049Z"/><path class="cls-2" d="M380.831,247.661v2.475H366.464v-2.475h6.4V234.683l-6.4,2.444v-2.685l6.4-2.446v-2.384h2.777v18.049Z"/><path class="cls-2" d="M456.491,247.661v2.475H442.125v-2.475h6.4V234.683l-6.4,2.444v-2.685l6.4-2.446v-2.384H451.3v18.049Z"/><path class="cls-2" d="M533.14,247.661v2.475H518.773v-2.475h6.4V234.683l-6.4,2.444v-2.685l6.4-2.446v-2.384h2.777v18.049Z"/><path class="cls-2" d="M608.8,247.661v2.475H594.437v-2.475h6.4V234.683l-6.4,2.444v-2.685l6.4-2.446v-2.384h2.776v18.049Z"/><path class="cls-2" d="M685.12,239.693c0,7.606-2.867,10.745-7.7,10.745-5.071,0-7.516-3.532-7.516-10.383,0-7.152,2.867-10.744,7.7-10.744C682.675,229.311,685.12,232.842,685.12,239.693Zm-12.375.211c0,.906.03,1.75.091,2.5l8.843-7.666a3.923,3.923,0,0,0-4.134-2.958C673.862,231.785,672.745,234.622,672.745,239.9Zm9.538-.06c0-.905-.03-1.751-.091-2.5l-8.843,7.666a3.925,3.925,0,0,0,4.135,2.958C681.166,247.963,682.283,245.73,682.283,239.844Z"/><path class="cls-2" d="M761.108,247.661v2.475H746.742v-2.475h6.4V234.683l-6.4,2.444v-2.685l6.4-2.446v-2.384h2.777v18.049Z"/><path class="cls-2" d="M228.515,290.374v2.475H214.148v-2.475h6.4V277.4l-6.4,2.444v-2.686l6.4-2.445v-2.384h2.777v18.049Z"/><path class="cls-2" d="M304.179,290.374v2.475H289.812v-2.475h6.4V277.4l-6.4,2.444v-2.686l6.4-2.445v-2.384h2.776v18.049Z"/><path class="cls-2" d="M380.831,290.374v2.475H366.464v-2.475h6.4V277.4l-6.4,2.444v-2.686l6.4-2.445v-2.384h2.777v18.049Z"/><path class="cls-2" d="M456.491,290.374v2.475H442.125v-2.475h6.4V277.4l-6.4,2.444v-2.686l6.4-2.445v-2.384H451.3v18.049Z"/><path class="cls-2" d="M533.14,290.374v2.475H518.773v-2.475h6.4V277.4l-6.4,2.444v-2.686l6.4-2.445v-2.384h2.777v18.049Z"/><path class="cls-2" d="M608.8,290.374v2.475H594.437v-2.475h6.4V277.4l-6.4,2.444v-2.686l6.4-2.445v-2.384h2.776v18.049Z"/><path class="cls-2" d="M685.444,290.374v2.475H671.078v-2.475h6.4V277.4l-6.4,2.444v-2.686l6.4-2.445v-2.384h2.777v18.049Z"/><path class="cls-2" d="M760.776,282.4c0,7.607-2.867,10.746-7.7,10.746-5.071,0-7.515-3.532-7.515-10.383,0-7.153,2.867-10.744,7.7-10.744C758.332,272.024,760.776,275.555,760.776,282.4Zm-12.375.212c0,.906.031,1.75.091,2.5l8.844-7.666A3.925,3.925,0,0,0,753.2,274.5C749.519,274.5,748.4,277.335,748.4,282.617Zm9.539-.06c0-.905-.031-1.751-.091-2.5l-8.844,7.666a3.926,3.926,0,0,0,4.135,2.958C756.822,290.676,757.94,288.443,757.94,282.557Z"/><line class="cls-1" x1="88.099" y1="174.737" x2="181.174" y2="174.737"/><path class="cls-2" d="M168.335,68.835c0,7.607-2.867,10.745-7.7,10.745-5.071,0-7.515-3.531-7.515-10.383,0-7.152,2.867-10.744,7.7-10.744C165.891,58.453,168.335,61.985,168.335,68.835Zm-12.374.212c0,.905.03,1.75.09,2.505l8.844-7.666a3.925,3.925,0,0,0-4.135-2.958C157.077,60.928,155.961,63.765,155.961,69.047Zm9.537-.06c0-.906-.03-1.751-.091-2.5l-8.842,7.666a3.924,3.924,0,0,0,4.134,2.958C164.381,77.106,165.5,74.872,165.5,68.987Z"/><path class="cls-2" d="M168.667,119.515v2.474H154.3v-2.474h6.4V106.536l-6.4,2.445V106.3l6.4-2.445v-2.384h2.777v18.049Z"/><path class="cls-2" d="M168.546,162.232v2.474H153.7V161.93c5.282-3.23,11.439-6.52,11.439-11.772,0-2.324-1.027-3.8-4.467-3.8-3.743,0-4.738,1.66-4.738,4.5a5.149,5.149,0,0,0,.241,1.841l-2.867-.211a13.969,13.969,0,0,1-.121-1.932c0-4.015,2.626-6.67,7.636-6.67,5.885,0,7.153,3.26,7.153,5.976,0,5.795-5.433,9.054-8.753,11.288l-1.63.724v.363Z"/><path class="cls-2" d="M95.433,183.209V204.82h6.1V207.3H92.656v-26.56h8.873v2.474Z"/><path class="cls-2" d="M112.458,201.832a2.717,2.717,0,1,1,2.716,2.716A2.7,2.7,0,0,1,112.458,201.832Z"/><path class="cls-2" d="M132.079,201.832a2.717,2.717,0,1,1,2.717,2.716A2.706,2.706,0,0,1,132.079,201.832Z"/><path class="cls-2" d="M151.7,201.832a2.717,2.717,0,1,1,2.717,2.716A2.706,2.706,0,0,1,151.7,201.832Z"/><path class="cls-2" d="M176.936,207.3h-8.874V204.82h6.1V183.209h-6.1v-2.474h8.874Z"/><path class="cls-2" d="M126.5,247.661v2.475H111.646V247.36c5.282-3.23,11.439-6.52,11.439-11.772,0-2.324-1.026-3.8-4.467-3.8-3.743,0-4.739,1.661-4.739,4.5a5.14,5.14,0,0,0,.242,1.841l-2.868-.211a14.136,14.136,0,0,1-.12-1.931c0-4.015,2.626-6.67,7.636-6.67,5.885,0,7.153,3.26,7.153,5.975,0,5.795-5.433,9.055-8.753,11.288l-1.63.725v.362Z"/><path class="cls-2" d="M145.724,243.737c0,3.623-2.445,6.7-8.27,6.7a14.518,14.518,0,0,1-6.639-1.359l.784-2.353a12.549,12.549,0,0,0,6.1,1.267c3.8,0,5.251-1.6,5.251-4.075,0-2.353-1.75-3.38-5.4-4.044l-5.342-.966.12-9.3H145.06v2.475H135.04l-.091,4.8,3.562.634C143.37,238.335,145.724,239.935,145.724,243.737Z"/><path class="cls-2" d="M165.255,244.22c0,3.441-2.445,6.218-8.572,6.218a16.2,16.2,0,0,1-6.942-1.359l.785-2.353a15.025,15.025,0,0,0,6.4,1.267c4.1,0,5.553-1.3,5.553-3.622,0-1.962-1.328-3.35-5.251-3.35h-5.584v-2.445h7.244c2.173-.875,2.928-2.022,2.928-3.622,0-2.324-1.57-3.2-4.739-3.2a13.941,13.941,0,0,0-6.248,1.419l-.724-2.264a15.914,15.914,0,0,1,7.183-1.6c4.467,0,7.3,1.719,7.3,5.493a5.139,5.139,0,0,1-2.988,4.617C164.138,240.357,165.255,241.745,165.255,244.22Z"/><path class="cls-2" d="M126.5,290.374v2.475H111.646v-2.777c5.282-3.229,11.439-6.519,11.439-11.771,0-2.324-1.026-3.8-4.467-3.8-3.743,0-4.739,1.66-4.739,4.5a5.14,5.14,0,0,0,.242,1.841l-2.868-.211a14.136,14.136,0,0,1-.12-1.931c0-4.015,2.626-6.67,7.636-6.67,5.885,0,7.153,3.259,7.153,5.975,0,5.795-5.433,9.055-8.753,11.288l-1.63.725v.362Z"/><path class="cls-2" d="M145.724,286.45c0,3.622-2.445,6.7-8.27,6.7a14.531,14.531,0,0,1-6.639-1.359l.784-2.353a12.56,12.56,0,0,0,6.1,1.267c3.8,0,5.251-1.6,5.251-4.075,0-2.353-1.75-3.38-5.4-4.044l-5.342-.966.12-9.3H145.06V274.8H135.04l-.091,4.8,3.562.634C143.37,281.048,145.724,282.648,145.724,286.45Z"/><path class="cls-2" d="M166.191,288.623h-2.958v4.226h-2.777v-4.226H150.134v-2.776l7.455-13.522h2.867l-6.338,11.5-1.419,1.932v.393h7.757V272.325h2.777v13.824h2.958Z"/><path class="cls-2" d="M126.5,333.087v2.475H111.646v-2.777c5.282-3.229,11.439-6.519,11.439-11.771,0-2.324-1.026-3.8-4.467-3.8-3.743,0-4.739,1.66-4.739,4.5a5.14,5.14,0,0,0,.242,1.841l-2.868-.211a14.153,14.153,0,0,1-.12-1.932c0-4.014,2.626-6.669,7.636-6.669,5.885,0,7.153,3.259,7.153,5.975,0,5.8-5.433,9.055-8.753,11.288l-1.63.725v.362Z"/><path class="cls-2" d="M145.724,329.163c0,3.622-2.445,6.7-8.27,6.7a14.531,14.531,0,0,1-6.639-1.358l.784-2.353a12.56,12.56,0,0,0,6.1,1.267c3.8,0,5.251-1.6,5.251-4.075,0-2.354-1.75-3.38-5.4-4.044l-5.342-.966.12-9.3H145.06v2.475H135.04l-.091,4.8,3.562.634C143.37,323.761,145.724,325.361,145.724,329.163Z"/><path class="cls-2" d="M165.346,329.163c0,3.622-2.446,6.7-8.27,6.7a14.536,14.536,0,0,1-6.64-1.358l.784-2.353a12.56,12.56,0,0,0,6.1,1.267c3.8,0,5.251-1.6,5.251-4.075,0-2.354-1.75-3.38-5.4-4.044l-5.342-.966.12-9.3h12.738v2.475H154.661l-.091,4.8,3.562.634C162.991,323.761,165.346,325.361,165.346,329.163Z"/><path class="cls-2" d="M228.515,333.087v2.475H214.148v-2.475h6.4V320.109l-6.4,2.444v-2.686l6.4-2.445v-2.384h2.777v18.049Z"/><path class="cls-2" d="M304.179,333.087v2.475H289.812v-2.475h6.4V320.109l-6.4,2.444v-2.686l6.4-2.445v-2.384h2.776v18.049Z"/><path class="cls-2" d="M380.831,333.087v2.475H366.464v-2.475h6.4V320.109l-6.4,2.444v-2.686l6.4-2.445v-2.384h2.777v18.049Z"/><path class="cls-2" d="M456.491,333.087v2.475H442.125v-2.475h6.4V320.109l-6.4,2.444v-2.686l6.4-2.445v-2.384H451.3v18.049Z"/><path class="cls-2" d="M533.14,333.087v2.475H518.773v-2.475h6.4V320.109l-6.4,2.444v-2.686l6.4-2.445v-2.384h2.777v18.049Z"/><path class="cls-2" d="M608.8,333.087v2.475H594.437v-2.475h6.4V320.109l-6.4,2.444v-2.686l6.4-2.445v-2.384h2.776v18.049Z"/><path class="cls-2" d="M685.452,333.087v2.475H671.086v-2.475h6.4V320.109l-6.4,2.444v-2.686l6.4-2.445v-2.384h2.777v18.049Z"/><path class="cls-2" d="M761.108,333.087v2.475H746.742v-2.475h6.4V320.109l-6.4,2.444v-2.686l6.4-2.445v-2.384h2.777v18.049Z"/></svg>