<svg id="Livello_1" data-name="Livello 1" xmlns="http://www.w3.org/2000/svg" viewBox="0 0 952 139.363"><defs><style>.cls-1{fill:#ffeded;}.cls-2{fill:#f36;}.cls-3{fill:#1858a8;}</style></defs><title>manuale_ill_nuove</title><path class="cls-1" d="M606.78,83.5c-.05-.478-.1-.957-.118-1.436a9.88,9.88,0,0,1,.165-2.652,20.343,20.343,0,0,0,.4-2.428c-.139-1.6-.26-3.206-.4-4.809a1.819,1.819,0,0,1,.483-1.7c.028-1.028.057-2.056.069-3.084a4.937,4.937,0,0,1-.09-2.518c-.027-.334-.036-.667-.081-1a3.7,3.7,0,0,0-.219-1,2.214,2.214,0,0,1,.24-2.5,2.105,2.105,0,0,0,.425-1.1,2.122,2.122,0,0,1,.026-.551,5.852,5.852,0,0,0-.271-1.319,19.4,19.4,0,0,1-.643-4.048,6.082,6.082,0,0,0-.16-1.428c-.448-1.262-.777-2.493.045-3.727-.033-2.191.648-4.333.394-6.543a18.7,18.7,0,0,1,.006-6.141,3.572,3.572,0,0,0-.148-1.391,4.064,4.064,0,0,1,.01-2.233,4.359,4.359,0,0,0-.136-3c-.112-.322-.211-.647-.343-1.053a3.969,3.969,0,0,0,.878-3.214,2.8,2.8,0,0,1,.08-.813,13.479,13.479,0,0,0-.084-5.056,8.641,8.641,0,0,1-.022-5.273c.3-.785-.044-1.679.335-2.565a7.676,7.676,0,0,0,.184-2.634,1.112,1.112,0,0,0-.091-.6,3.846,3.846,0,0,1-.539-2.169,5.967,5.967,0,0,0-4.206.541c-.341.186-.874.026-1.317.009-2.5-.1-5.018-.071-7.5-.34-2.443-.264-4.958.925-7.343-.406-.2-.11-.594.033-.851.156-1.854.886-3.721.587-5.655.283a3.982,3.982,0,0,0-2.946.525c-1.769,1.637-3.592,1.082-5.415.551a23.246,23.246,0,0,0-9.218-.657c-5.3.589-10.624,1.007-15.943,1.408a6.423,6.423,0,0,1-3.426-.4,8.02,8.02,0,0,0-3.714-.875,3.491,3.491,0,0,0,.475,1.372,1.112,1.112,0,0,1,.091.6,7.676,7.676,0,0,1-.184,2.634c-.379.886-.039,1.78-.335,2.565a8.641,8.641,0,0,0,.022,5.273,13.479,13.479,0,0,1,.084,5.056,2.8,2.8,0,0,0-.08.813,3.969,3.969,0,0,1-.878,3.214c.132.406.231.731.343,1.053a4.359,4.359,0,0,1,.136,3,4.064,4.064,0,0,0-.01,2.233,3.572,3.572,0,0,1,.148,1.391,18.7,18.7,0,0,0-.006,6.141c.254,2.21-.427,4.352-.394,6.543-.822,1.234-.493,2.465-.045,3.727a6.082,6.082,0,0,1,.16,1.428c.038.4.084.792.124,1.187.028.266.069.531.1.8.013.1.023.193.037.289v0a11.328,11.328,0,0,0,.379,1.775c.074.236.145.482.2.733.023.107.026.217.041.326a2.977,2.977,0,0,1-.009.928,2.1,2.1,0,0,1-.41.981,2.268,2.268,0,0,0-.424.86,2.082,2.082,0,0,0-.037.987,3.461,3.461,0,0,0,.221.652,3.7,3.7,0,0,1,.219,1,26.2,26.2,0,0,1,.172,4.094v0h0c-.029,1.367-.1,2.733-.1,4.1,0,.306-.024.615-.041.923a5.74,5.74,0,0,0,0,.918,16.874,16.874,0,0,1-.421,5.5,9.88,9.88,0,0,0-.165,2.652c.1,2.32.682,4.623.283,6.966a1.01,1.01,0,0,0,.076.6c.507.974.086,1.863-.2,2.775a5.016,5.016,0,0,0-.376,1.563,30.844,30.844,0,0,1,.009,4.92,6.87,6.87,0,0,0-.043.7,10.241,10.241,0,0,1-.067,1.092,2.925,2.925,0,0,1-.291,1,3.22,3.22,0,0,0-.1,1.612c.141,1.985.315,3.967.49,5.949a9.248,9.248,0,0,1,.033,1.429,4.844,4.844,0,0,1-.3,1.408,4.038,4.038,0,0,0-.187,1.612,41.156,41.156,0,0,1,.188,6.765,3.279,3.279,0,0,0,.029.808l0,0c.02.145.052.291.082.437,0,.016,0,.031.009.047.03.14.055.278.086.418q.93.459,1.883.876c2.038.895,3.546,2.562,5.454,3.636A3.053,3.053,0,0,0,548,128.255a7.889,7.889,0,0,0,.708-1.229c1.475-.22,2.8-.371,4.059-.454.694-.046,1.364-.067,2.027-.071.211,0,.418.007.626.01.475.006.948.022,1.421.051.232.015.464.032.7.051.476.04.958.094,1.446.156.212.027.421.049.636.081.7.1,1.414.22,2.17.368.661.128,1.348.275,2.07.439a11.641,11.641,0,0,0,3.076.212c3.221-.15,6.486-1,9.557.754a.956.956,0,0,0,.439.042c1.17.009,2.336-.083,3.5-.176.536-.044,1.072-.079,1.608-.112.092-.006.186-.014.28-.019.5-.029.992-.036,1.487-.04.277,0,.555-.019.831-.011a14.279,14.279,0,0,1,2.458.271c3.471-1.092,7.012-.368,10.5-.242a17.61,17.61,0,0,0,6.551-.619,13.729,13.729,0,0,1,2.067-.523c.009-.147.014-.294.024-.44.024-.352.083-.7.133-1.052a10.4,10.4,0,0,0-.147-1.595,8.875,8.875,0,0,1-.051-3.568c0-.025,0-.05,0-.075a41.156,41.156,0,0,0-.188-6.765,4.038,4.038,0,0,1,.187-1.612,6.225,6.225,0,0,0,.264-2.837c-.175-1.982-.349-3.964-.49-5.949a3.22,3.22,0,0,1,.1-1.612,7.289,7.289,0,0,0,.4-2.8,30.844,30.844,0,0,0-.009-4.92,5.016,5.016,0,0,1,.376-1.563,11.916,11.916,0,0,0,.378-1.3c-.03-.212-.073-.441-.085-.626a4.4,4.4,0,0,1,.022-.477,1.9,1.9,0,0,0-.117-.374,1,1,0,0,1-.072-.57c.185-.444.372-.888.565-1.333a6.1,6.1,0,0,0,.552-1.326,7.7,7.7,0,0,1,.419-1.6,7.838,7.838,0,0,1-1.262-.934C607.082,83.736,606.923,83.628,606.78,83.5Z"/><path class="cls-1" d="M680.988,20.63a2.574,2.574,0,0,0-.057-.454c.034-1.055.144-2.108.195-3.165a3.269,3.269,0,0,0-.082-1.413,3.426,3.426,0,0,1-.03-2.219,10.4,10.4,0,0,0,.11-3.021A5.521,5.521,0,0,0,681,8.608c-.025-.309-.051-.617-.072-.925-.086-.035-.173-.062-.26-.093-1.928-.68-3.977-.249-6-.152a7.719,7.719,0,0,1-3.073-.19c-3.59-1.412-7.174-1.175-10.815-.365-3.453.769-7.063-.79-10.494.677a1.682,1.682,0,0,1-1.254-.31c-2.1-1.327-4.361-.863-6.484-.385-3.792.855-7.647.189-11.434.77a1.97,1.97,0,0,1-1.285-.26c-2.045-1.372-4.264-.913-6.472-.734-2.651.215-5.312.669-7.933-.224-.71-.242-1.418-.486-2.129-.683-.306-.085-.614-.156-.919-.216a3.846,3.846,0,0,0,.539,2.169,1.112,1.112,0,0,1,.091.6,7.676,7.676,0,0,1-.184,2.634c-.379.886-.039,1.78-.335,2.565a8.641,8.641,0,0,0,.022,5.273,13.479,13.479,0,0,1,.084,5.056,2.8,2.8,0,0,0-.08.813,3.969,3.969,0,0,1-.878,3.214c.132.406.231.731.343,1.053a4.359,4.359,0,0,1,.136,3,4.064,4.064,0,0,0-.01,2.233,3.572,3.572,0,0,1,.148,1.391,18.7,18.7,0,0,0-.006,6.141c.254,2.21-.427,4.352-.394,6.543-.822,1.234-.493,2.465-.045,3.727a6.082,6.082,0,0,1,.16,1.428,19.4,19.4,0,0,0,.643,4.048,5.852,5.852,0,0,1,.271,1.319,2.122,2.122,0,0,0-.026.551,2.105,2.105,0,0,1-.425,1.1,2.214,2.214,0,0,0-.24,2.5,3.7,3.7,0,0,1,.219,1c.045.334.054.667.081,1a4.937,4.937,0,0,0,.09,2.518c-.012,1.028-.041,2.056-.069,3.083h0a1.819,1.819,0,0,0-.483,1.7c.136,1.6.257,3.207.4,4.809a20.343,20.343,0,0,1-.4,2.428,9.88,9.88,0,0,0-.165,2.652c.021.506.072,1.012.124,1.517a3.176,3.176,0,0,0-.9,1.219c.307.19.619.373.946.545.048.025.1.045.147.07a13.6,13.6,0,0,1-.033,3.615,1.01,1.01,0,0,0,.076.6,1.9,1.9,0,0,1,.117.374,4.4,4.4,0,0,0-.022.477c.012.185.055.414.085.626a11.916,11.916,0,0,1-.378,1.3,5.016,5.016,0,0,0-.376,1.563,30.844,30.844,0,0,1,.009,4.92,7.289,7.289,0,0,1-.4,2.8,3.22,3.22,0,0,0-.1,1.612c.141,1.985.315,3.967.49,5.949a6.225,6.225,0,0,1-.264,2.837,4.038,4.038,0,0,0-.187,1.612,41.156,41.156,0,0,1,.188,6.765c0,.025,0,.05,0,.075-.073.961.4,1.967.413,2.955a14.133,14.133,0,0,1-.215,2.208c.011.207.058.408.058.62,0,.28.022.561.029.842a26.2,26.2,0,0,1,5.569-.176c3.3.178,6.741,1.22,9.909-.789a2.414,2.414,0,0,1,1.287-.2c1.916.056,4.036-.335,5.692.363,1.918.808,3.845.062,5.544.691,3.86,1.429,7.789.831,11.387-.111,3.763-.986,7.273-.645,10.918-.246a6,6,0,0,0,1.757.164,8.57,8.57,0,0,1,6.952,1.853c.875-.29,1.578-.507,2.27-.754a9.761,9.761,0,0,1,5.911-.464,7.06,7.06,0,0,1,.31-1.879,10.571,10.571,0,0,0-.14-1.506,7.179,7.179,0,0,1,.74-5.53,18.361,18.361,0,0,0-.171-2.048,2.971,2.971,0,0,1,.1-1.963,3.019,3.019,0,0,0,.1-1.409c-.032-.6-.09-1.19-.14-1.785a5.51,5.51,0,0,1-.124-1.748,10.435,10.435,0,0,1,.109-3.022,3.435,3.435,0,0,0-.029-2.22,3.283,3.283,0,0,1-.083-1.413c.051-1.056.162-2.109.2-3.164a2.684,2.684,0,0,1-.057-.454,4.485,4.485,0,0,1,1.051-2.537c.272-.378.485-.8.7-1.151a16.155,16.155,0,0,1-1.5-5.18,3.7,3.7,0,0,1,.3-1.777,7.908,7.908,0,0,0,.685-5.561c-.257-1.326-.539-2.654-.683-3.994-.031-.294-.051-.589-.08-.883.017-.367,0-.738.047-1.1.263-2.064-.114-4.1.021-6.148.008-.137.08-.305.024-.4-.035-.061-.052-.123-.083-.185a1.87,1.87,0,0,0,.379-1.862,9.06,9.06,0,0,0-.3-.98,5.871,5.871,0,0,1-.25-1.354,11.376,11.376,0,0,0,.132-1.2c0-.109.015-.216.024-.324.033-.117.051-.233.094-.351.51-1.377.108-2.855.418-4.258a2.222,2.222,0,0,1,.061-2.155.8.8,0,0,0-.061-.588,4.141,4.141,0,0,1-.127-2.094,4.472,4.472,0,0,0,.156-1.522c.213-1.4.515-2.812-.172-4.195.016-.014.021-.032.037-.047a1.819,1.819,0,0,0,.484-1.7c-.171-2.031-.315-4.065-.512-6.093.055-1.263.009-2.54.029-3.809a3.69,3.69,0,0,1,.174-1.01,6.383,6.383,0,0,0-.124-4.435c.34-.475.65-.908.873-1.221a11.086,11.086,0,0,1-.3-2.159c.123-1.906.362-3.8.541-5.707a2.975,2.975,0,0,0-.457-2.159A1.72,1.72,0,0,1,680.988,20.63Z"/><path class="cls-1" d="M804.493,7.869a4.8,4.8,0,0,1-4.653-.1,1.714,1.714,0,0,0-1.269.138c-1.727.756-3.447.318-5.221.252-4.006-.15-8.1-1.928-12.046.334-.212.121-.577-.03-.871-.048-4.422-.263-8.817.576-13.28.035-3.488-.422-7.07-.066-10.608-.1a7.831,7.831,0,0,1-2.183-.361,13.767,13.767,0,0,0-9.576.323l-2.647-1.871c-.167.027-.317.06-.476.089a3.736,3.736,0,0,1-.183,1.341,6.212,6.212,0,0,0-.264,2.837c.175,1.982.349,3.965.49,5.949a3.231,3.231,0,0,1-.1,1.612,7.309,7.309,0,0,0-.4,2.8,30.961,30.961,0,0,0,.009,4.92,4.98,4.98,0,0,1-.375,1.563c-.284.912-.7,1.8-.2,2.775a1.022,1.022,0,0,1,.077.6c-.4,2.342.182,4.645.283,6.966a9.919,9.919,0,0,1-.165,2.651,16.825,16.825,0,0,0-.422,5.5,18.3,18.3,0,0,1-.038,1.841,62.236,62.236,0,0,0,.075,8.194,3.724,3.724,0,0,0,.218,1,2.208,2.208,0,0,1-.24,2.5,3.076,3.076,0,0,0-.18,2.968,19.465,19.465,0,0,1,.644,4.048,6.076,6.076,0,0,0,.16,1.428c.448,1.262.777,2.493-.046,3.727.034,2.19-.647,4.333-.393,6.543a18.723,18.723,0,0,1-.007,6.141,3.571,3.571,0,0,0,.149,1.391,4.086,4.086,0,0,1-.01,2.234,4.367,4.367,0,0,0,.135,3c.112.322.211.647.343,1.053a3.969,3.969,0,0,0-.877,3.214,2.793,2.793,0,0,1-.08.813,13.458,13.458,0,0,0,.084,5.056,8.642,8.642,0,0,1,.021,5.273c-.295.785.045,1.679-.335,2.565a7.726,7.726,0,0,0-.184,2.634,1.122,1.122,0,0,0,.091.6c.922,1.472.43,3.061.338,4.59a9.434,9.434,0,0,0,.318,3.65,8.144,8.144,0,0,1,.267,3.035c-.041,1-.17,2.012-.158,3.019,5.883-.836,11.791-.2,17.688-.264,1.326-.013,2.669.2,3.976.06a36.392,36.392,0,0,1,11.889.84,21.234,21.234,0,0,0,5.729.323c5.012-.245,9.977-1.531,15.041-.7a2.2,2.2,0,0,0,1.3-.171c2.1-1.108,4.023-.209,6,.393a10.785,10.785,0,0,0,3.381.792c.614-.026,1.226-.06,1.839-.093.014-.4,0-.8.051-1.2.263-2.064-.114-4.1.021-6.148.008-.137.08-.3.024-.4-1.038-1.835-.2-3.724-.122-5.578a5.2,5.2,0,0,0-.1-2.418.8.8,0,0,1-.061-.589,2.225,2.225,0,0,0,.061-2.154,6.418,6.418,0,0,0,.126-1.244,16.443,16.443,0,0,1,.513-5.195,6.269,6.269,0,0,0-.221-1.044,8.712,8.712,0,0,1-.3-.981,1.841,1.841,0,0,1,.415-1.909,1.17,1.17,0,0,0,.112-.136,4.13,4.13,0,0,1,.373-1.535c.045-.1.056-.194.111-.29a.447.447,0,0,0,.021-.2c.021-1.569-.349-3.138-.013-4.708-.5-1.61-.152-3.247-.085-4.863a8.144,8.144,0,0,0-.267-3.035,9.283,9.283,0,0,1-.32-3.581,3.712,3.712,0,0,0,.266-1.655c-.009-.152-.048-.346-.071-.516a4.062,4.062,0,0,0-.531-2.488,1.122,1.122,0,0,1-.091-.6,7.726,7.726,0,0,1,.184-2.634,2.443,2.443,0,0,0,.177-.814,3.036,3.036,0,0,0,.4-2.712,6.927,6.927,0,0,0,.142-1.36,7.76,7.76,0,0,0-.1-2.378,13.819,13.819,0,0,1,.134-4.7,5.609,5.609,0,0,0-.282-3.632,5.265,5.265,0,0,1,.715-1.323c-.132-.406-.231-.731-.343-1.053a4.367,4.367,0,0,1-.135-3,3.1,3.1,0,0,0,.142-1.254,7.4,7.4,0,0,0,.544-5.156,11.359,11.359,0,0,1-.2-2.216,26.009,26.009,0,0,0-.377-4.71c-.023-.118-.025-.233-.046-.35a18.443,18.443,0,0,0,.2-2.623c.823-1.234.494-2.465.046-3.727a6.076,6.076,0,0,1-.16-1.428c-.069-.714-.135-1.425-.235-2.133,0-.79-.01-1.581.052-2.372.079-1.01.437-2.009.43-3.011-.006-.937-.481-1.873-.477-2.808.006-1.7.01-3.424,1.049-4.941a2.141,2.141,0,0,0,.245-1.361,19.453,19.453,0,0,1,.1-4.262,9.378,9.378,0,0,0,.019-1.2c-.574-.006-1.15,0-1.725,0A16.12,16.12,0,0,1,804.493,7.869Z"/><path class="cls-1" d="M743.816,10.73a6.212,6.212,0,0,1,.264-2.837,3.736,3.736,0,0,0,.183-1.341c-.422.076-.827.152-1.215.233a11.476,11.476,0,0,1-2.969.365c-4.117-.245-8.22-.734-12.331-1.1a6.424,6.424,0,0,0-4.657,1.012,3.531,3.531,0,0,1-2.009.706c-2.355-.05-4.705-.295-7.06-.395a7.073,7.073,0,0,0-3.049.2,7.411,7.411,0,0,1-4.795.092,24.427,24.427,0,0,0-7.511-.142c-2.211.226-4.427.429-6.644.558a6.507,6.507,0,0,1-3.045-.2c-1.475-.722-2.747-.428-4.24-.188-2.608.419-5.286.4-7.935.559a5.535,5.535,0,0,0-1.076-.57c.021.308.047.616.072.925a5.521,5.521,0,0,1,.125,1.75,10.4,10.4,0,0,1-.11,3.021,3.426,3.426,0,0,0,.03,2.219,3.269,3.269,0,0,1,.082,1.413c-.051,1.057-.161,2.11-.2,3.165a2.574,2.574,0,0,1,.057.454,1.72,1.72,0,0,0,.258.581,2.975,2.975,0,0,1,.457,2.159c-.179,1.9-.418,3.8-.541,5.707a11.086,11.086,0,0,0,.3,2.159c-.223.313-.533.746-.873,1.221a6.383,6.383,0,0,1,.124,4.435,3.69,3.69,0,0,0-.174,1.01c-.02,1.269.026,2.546-.029,3.809.2,2.028.341,4.062.512,6.093a1.819,1.819,0,0,1-.484,1.7c-.016.015-.021.033-.037.047.687,1.383.385,2.793.172,4.2a4.472,4.472,0,0,1-.156,1.522,4.141,4.141,0,0,0,.127,2.094.8.8,0,0,1,.061.588,2.222,2.222,0,0,0-.061,2.155c-.31,1.4.092,2.881-.418,4.258-.043.118-.061.234-.094.351-.009.108-.02.215-.024.324a11.376,11.376,0,0,1-.132,1.2,5.871,5.871,0,0,0,.25,1.354,9.06,9.06,0,0,1,.3.98,1.87,1.87,0,0,1-.379,1.862c.031.062.048.124.083.185.056.1-.016.267-.024.4-.135,2.046.242,4.084-.021,6.148-.045.363-.03.734-.047,1.1.029.294.049.589.08.883.144,1.34.426,2.668.683,3.994a7.908,7.908,0,0,1-.685,5.561,3.7,3.7,0,0,0-.3,1.777,16.155,16.155,0,0,0,1.5,5.18c-.211.353-.424.773-.7,1.151a4.485,4.485,0,0,0-1.051,2.537,1.306,1.306,0,0,1,.063.35c0,.034,0,.069-.006.1a2.722,2.722,0,0,0,.211.762.488.488,0,0,1,0,.386c-.547.99-.221,2.023-.129,3.03a13.788,13.788,0,0,1-.135,4.7,5.91,5.91,0,0,0-.138.94c.011.151.009.3.024.455.041.43.065.862.1,1.293a6.436,6.436,0,0,0,.746,1.857,5.846,5.846,0,0,1,.774,3.493c-.462.584-.91,1.1-1.3,1.655-.046.065-.063.135-.106.2.022.543.036,1.086.066,1.627-.744,1.061-.447,2.238-.4,3.393a3.575,3.575,0,0,1-.1,1.422c-.078.2-.114.4-.172.594.013.237.065.466.065.709,0,.421.029.844.044,1.267.052.017.1.018.156.036a8.8,8.8,0,0,0,4.824,0,7.767,7.767,0,0,1,3-.34c4.44.932,8.855.468,13.262-.062,4.769-.576,9.406.868,14.135.768,2.676,1.76,5.332,1.034,8.051.052a13.066,13.066,0,0,1,3.08-.365,42.005,42.005,0,0,0,8.735-1.439c2.036-.651,4.424-1.2,6.413.352a4.725,4.725,0,0,0,5.23.544c.057-.025.111-.032.169-.058a7.937,7.937,0,0,1,2.156-.484h.009c-.012-1.007.117-2.017.158-3.019a8.144,8.144,0,0,0-.267-3.035,9.434,9.434,0,0,1-.318-3.65c.092-1.529.584-3.118-.338-4.59a1.122,1.122,0,0,1-.091-.6,7.726,7.726,0,0,1,.184-2.634c.38-.886.04-1.78.335-2.565a8.642,8.642,0,0,0-.021-5.273,13.458,13.458,0,0,1-.084-5.056,2.793,2.793,0,0,0,.08-.813,3.969,3.969,0,0,1,.877-3.214c-.132-.406-.231-.731-.343-1.053a4.367,4.367,0,0,1-.135-3,4.086,4.086,0,0,0,.01-2.234,3.571,3.571,0,0,1-.149-1.391,18.723,18.723,0,0,0,.007-6.141c-.254-2.21.427-4.353.393-6.543.823-1.234.494-2.465.046-3.727a6.076,6.076,0,0,1-.16-1.428,19.465,19.465,0,0,0-.644-4.048,3.076,3.076,0,0,1,.18-2.968,2.208,2.208,0,0,0,.24-2.5,3.724,3.724,0,0,1-.218-1,62.236,62.236,0,0,1-.075-8.194,18.3,18.3,0,0,0,.038-1.841,16.825,16.825,0,0,1,.422-5.5,9.919,9.919,0,0,0,.165-2.651c-.1-2.321-.682-4.624-.283-6.966a1.022,1.022,0,0,0-.077-.6c-.506-.974-.085-1.863.2-2.775a4.98,4.98,0,0,0,.375-1.563,30.961,30.961,0,0,1-.009-4.92,7.309,7.309,0,0,1,.4-2.8,3.231,3.231,0,0,0,.1-1.612C744.165,14.7,743.991,12.712,743.816,10.73Z"/><path class="cls-1" d="M871.631,31.455a7.721,7.721,0,0,0,.075-3.043c-.605-1.964-.007-3.936-.158-5.884a7.287,7.287,0,0,0,.084-1.448,3.348,3.348,0,0,0,.1-2.75,3.514,3.514,0,0,1-.121-1.391c.289-2.365.667-4.725.017-7.093a1.378,1.378,0,0,1,0-.613A9.968,9.968,0,0,0,871.8,7.5c-.3.1-.6.193-.893.286a27.624,27.624,0,0,1-6,1.281,7.992,7.992,0,0,1-3.843-.632c-5.03-2.141-7.553-2.3-12.017-1.41-2.86.571-5.724,1.2-8.618,1.524-5,.566-10.035.912-15.054,1.365-1.365.124-2.659.127-3.678-1.023-1.146-1.3-2.644-1.159-4.127-.873a19.322,19.322,0,0,0-2.114.659,10.477,10.477,0,0,1-6.964.041,11.882,11.882,0,0,0-4.03-.58,9.378,9.378,0,0,1-.019,1.2,19.453,19.453,0,0,0-.1,4.262,2.141,2.141,0,0,1-.245,1.361c-1.039,1.517-1.043,3.244-1.049,4.941,0,.935.471,1.871.477,2.808.007,1-.351,2-.43,3.011-.062.791-.051,1.582-.052,2.372.1.708.166,1.419.235,2.133a6.076,6.076,0,0,0,.16,1.428c.448,1.262.777,2.493-.046,3.727A18.443,18.443,0,0,1,803.2,38c.021.117.023.232.046.35a26.009,26.009,0,0,1,.377,4.71,11.359,11.359,0,0,0,.2,2.216,7.4,7.4,0,0,1-.544,5.156,3.1,3.1,0,0,1-.142,1.254,4.367,4.367,0,0,0,.135,3c.112.322.211.647.343,1.053a5.265,5.265,0,0,0-.715,1.323,5.609,5.609,0,0,1,.282,3.632,13.819,13.819,0,0,0-.134,4.7,7.76,7.76,0,0,1,.1,2.378,6.927,6.927,0,0,1-.142,1.36,3.036,3.036,0,0,1-.4,2.712,2.443,2.443,0,0,1-.177.814,7.726,7.726,0,0,0-.184,2.634,1.122,1.122,0,0,0,.091.6,4.062,4.062,0,0,1,.531,2.488c.023.17.062.364.071.516a3.712,3.712,0,0,1-.266,1.655,9.283,9.283,0,0,0,.32,3.581,8.144,8.144,0,0,1,.267,3.035c-.067,1.616-.412,3.253.085,4.863-.336,1.57.034,3.139.013,4.708a.447.447,0,0,1-.021.2c-.055.1-.066.194-.111.29a1.9,1.9,0,0,1-.373,1.535c-.046.859.074,1.731.109,2.6a5.386,5.386,0,0,1-.107,1.424c0,.017,0,.031-.008.048a4.484,4.484,0,0,1-.221,2.18,9.031,9.031,0,0,0-.292,3.015c.036.551.1,1.128.189,1.771,1.638.773,2.041,2.3,2.089,4.01a3.423,3.423,0,0,0,.172.983,15.725,15.725,0,0,1,.594,1.518,14.668,14.668,0,0,1,.178,1.919l-1.1.091a3.783,3.783,0,0,1-.74,2.475,1.453,1.453,0,0,0-.281.958,5.022,5.022,0,0,1-.48,2.564,3.085,3.085,0,0,0,.084,2.778c.1.2.193.414.288.621a45.878,45.878,0,0,1,7.8.059c2.02.236,4.052-.2,6.049.831a6.956,6.956,0,0,0,3.483.2c4.284-.329,8.564-.728,12.843-1.132a13.441,13.441,0,0,1,6.13.533,8.738,8.738,0,0,0,3.483.383c4.863-.3,9.684-.992,14.609-.49,2.121.216,4.349-.891,6.537-.931a34.2,34.2,0,0,1,5.137.509c.407.054.814.09,1.222.13,0-.033-.007-.066-.01-.1-.254-2.21.427-4.353.393-6.543.823-1.234.494-2.465.046-3.727a6.076,6.076,0,0,1-.16-1.428,19.465,19.465,0,0,0-.644-4.048,3.076,3.076,0,0,1,.18-2.968,2.208,2.208,0,0,0,.24-2.5,3.724,3.724,0,0,1-.218-1,62.236,62.236,0,0,1-.075-8.194,18.3,18.3,0,0,0,.038-1.841,16.825,16.825,0,0,1,.422-5.5A9.919,9.919,0,0,0,871,87.316c-.1-2.321-.682-4.624-.283-6.966a1.022,1.022,0,0,0-.077-.6c-.506-.974-.085-1.863.2-2.775a4.98,4.98,0,0,0,.375-1.563,30.961,30.961,0,0,1-.009-4.92,7.309,7.309,0,0,1,.4-2.8,3.231,3.231,0,0,0,.1-1.612c-.141-1.984-.315-3.967-.49-5.949a6.212,6.212,0,0,1,.264-2.837,4.039,4.039,0,0,0,.186-1.612,41.375,41.375,0,0,1-.188-6.765c.107-.983-.4-2.017-.413-3.03-.013-1.085.271-2.169.347-3.259a47.284,47.284,0,0,1,.511-6.121,5.853,5.853,0,0,0-.149-3.047A4.382,4.382,0,0,1,871.631,31.455Z"/><path class="cls-2" d="M458.374,14.849c0,.032,0,.063,0,.094.01-.026.014-.054.023-.081Z"/><path class="cls-2" d="M120.838,125.358c.228-.224.552-.535.871-.852a2.875,2.875,0,0,0,.817-1.3,9.552,9.552,0,0,1-.089-1.059,2.411,2.411,0,0,0-.269-.583.684.684,0,0,1-.044-.568,2.218,2.218,0,0,0-.065-1.608,3,3,0,0,1-.033-2.082,1.86,1.86,0,0,0-.14-1.172,2.072,2.072,0,0,1,0-1.61,2.131,2.131,0,0,0-.3-2.413,2.086,2.086,0,0,1-.338-1.143,3.324,3.324,0,0,0-1.046-2.291c-.061-.057-.058-.182-.087-.288.229-.512.778-.594,1.2-.855a.956.956,0,0,0,.559-.989,21.676,21.676,0,0,1,.221-4.539,1.227,1.227,0,0,0-.194-1,2.661,2.661,0,0,1-.589-1.646c.338-.809.606-1.451.871-2.092.038-.094.114-.247.08-.283-.665-.7.076-1.425-.042-2.14a3.565,3.565,0,0,1,.116-1.044.782.782,0,0,1,.087-.29c.4-.681-.409-1.281-.16-1.9a2.261,2.261,0,0,0,0-1.9,2.775,2.775,0,0,1-.052-2.355,2.015,2.015,0,0,0-.135-1.907,2.16,2.16,0,0,1-.267-1.727c.138-.74.387-1.461.58-2.166-.076-.594-.128-1.192-.237-1.779a7.234,7.234,0,0,1-.341-1.405,1.466,1.466,0,0,0-.453-1.154c.367-.508.686-.951,1.032-1.433a4.177,4.177,0,0,1-.306-2.369,1.054,1.054,0,0,0-.259-.826,1.621,1.621,0,0,1-.408-1.679,1.955,1.955,0,0,0-.028-.528c-.348-.2-.723-.424-1.166-.685.52-.94.346-2.076.952-3a.832.832,0,0,0,.051-.593c-.225-.884.1-1.816-.263-2.694a.954.954,0,0,1,.163-.7,7.533,7.533,0,0,1,.729-.874,1.917,1.917,0,0,0-.041-.681,1.677,1.677,0,0,1,.173-1.964c.132-.151.095-.476.082-.719-.01-.2-.172-.4-.143-.579a3.451,3.451,0,0,0-.473-2.6,1.071,1.071,0,0,1,.012-1,2.337,2.337,0,0,0,.4-1.712c.008-1.252-.114-2.5-.185-3.79l.53-.772-.8-.534a2.171,2.171,0,0,1,.141-.519,5.781,5.781,0,0,0,.467-4.114,2.592,2.592,0,0,1-.045-.6,2.779,2.779,0,0,0-.6-2.25,1.64,1.64,0,0,1,.118-.424c.391-.642.667-1.231-.055-1.88a1.108,1.108,0,0,1-.186-.986c.258-.7.14-1.523.759-2.055a13.527,13.527,0,0,1-.364-1.365,2.679,2.679,0,0,1,.231-2.053,1.684,1.684,0,0,0,.166-1.613,3.682,3.682,0,0,1,.021-2.517,1.9,1.9,0,0,0-.064-1.606,1.926,1.926,0,0,1-.067-1.476,2.186,2.186,0,0,0-.015-1.629.889.889,0,0,1-.036-.586,19.418,19.418,0,0,0-.136-6.954,4.036,4.036,0,0,1,.111-2.676,1.107,1.107,0,0,0-.1-.862,1.574,1.574,0,0,1-.1-1.321,17.982,17.982,0,0,0,.446-3.426c.064-.4.1-.8.145-1.2a5.529,5.529,0,0,0-2.852.675c-.341.186-.874.026-1.317.009-2.5-.1-5.018-.071-7.5-.34-2.443-.264-4.958.925-7.343-.406-.2-.11-.594.033-.851.156-1.854.886-3.721.587-5.655.283a3.982,3.982,0,0,0-2.946.525c-1.769,1.637-3.592,1.082-5.415.551a23.246,23.246,0,0,0-9.218-.657c-5.3.589-10.624,1.007-15.943,1.408a6.423,6.423,0,0,1-3.426-.4,8.02,8.02,0,0,0-3.714-.875,3.491,3.491,0,0,0,.475,1.372,1.112,1.112,0,0,1,.091.6,7.676,7.676,0,0,1-.184,2.634c-.379.886-.039,1.78-.335,2.565a8.641,8.641,0,0,0,.022,5.273,13.479,13.479,0,0,1,.084,5.056,2.8,2.8,0,0,0-.08.813,3.969,3.969,0,0,1-.878,3.214c.132.406.231.731.343,1.053a4.359,4.359,0,0,1,.136,3,4.064,4.064,0,0,0-.01,2.233,3.572,3.572,0,0,1,.148,1.391,18.7,18.7,0,0,0-.006,6.141c.254,2.21-.427,4.352-.394,6.543-.822,1.234-.493,2.465-.045,3.727a6.082,6.082,0,0,1,.16,1.428c.038.4.084.792.124,1.187.028.266.069.531.1.8.013.1.023.193.037.289v0a11.328,11.328,0,0,0,.379,1.775c.074.236.145.482.2.733.023.107.026.217.041.326a2.977,2.977,0,0,1-.009.928,2.1,2.1,0,0,1-.41.981,2.268,2.268,0,0,0-.424.86,2.082,2.082,0,0,0-.037.987,3.461,3.461,0,0,0,.221.652,3.7,3.7,0,0,1,.219,1,26.2,26.2,0,0,1,.172,4.094v0h0c-.029,1.367-.1,2.733-.1,4.1,0,.306-.024.615-.041.923a5.74,5.74,0,0,0,0,.918,16.874,16.874,0,0,1-.421,5.5,9.88,9.88,0,0,0-.165,2.652c.1,2.32.682,4.623.283,6.966a1.01,1.01,0,0,0,.076.6c.507.974.086,1.863-.2,2.775a5.016,5.016,0,0,0-.376,1.563,30.844,30.844,0,0,1,.009,4.92,6.87,6.87,0,0,0-.043.7,10.241,10.241,0,0,1-.067,1.092,2.925,2.925,0,0,1-.291,1,3.22,3.22,0,0,0-.1,1.612c.141,1.985.315,3.967.49,5.949a9.248,9.248,0,0,1,.033,1.429,4.844,4.844,0,0,1-.3,1.408,4.038,4.038,0,0,0-.187,1.612,41.156,41.156,0,0,1,.188,6.765,3.279,3.279,0,0,0,.029.808l0,0c.02.145.052.291.082.437,0,.016,0,.031.009.047.03.14.055.278.086.418q.93.459,1.883.876c2.038.895,3.546,2.562,5.454,3.636a3.053,3.053,0,0,0,1.878,1.566,7.889,7.889,0,0,0,.708-1.229c1.475-.22,2.8-.371,4.059-.454.694-.046,1.364-.067,2.027-.071.211,0,.418.007.626.01.475.006.948.022,1.421.051.232.015.464.032.7.051.476.04.958.094,1.446.156.212.027.421.049.636.081.7.1,1.414.22,2.17.368.661.128,1.348.275,2.07.439a11.641,11.641,0,0,0,3.076.212c3.221-.15,6.486-1,9.557.754a.956.956,0,0,0,.439.042c1.17.009,2.336-.083,3.5-.176.536-.044,1.072-.079,1.608-.112.092-.006.186-.014.28-.019.5-.029.992-.036,1.487-.04.277,0,.555-.019.831-.011a14.279,14.279,0,0,1,2.458.271c3.471-1.092,7.012-.368,10.5-.242a18.522,18.522,0,0,0,6.173-.521c.167-.487.376-.962.528-1.454A6.4,6.4,0,0,0,120.838,125.358Z"/><path class="cls-2" d="M188.013,125.358c.218-.224.526-.535.829-.852a2.944,2.944,0,0,0,.761-1.263,10.652,10.652,0,0,1-.071-1.108,2.43,2.43,0,0,0-.252-.575.715.715,0,0,1-.043-.568,2.319,2.319,0,0,0-.061-1.608,3.143,3.143,0,0,1-.032-2.082,1.94,1.94,0,0,0-.133-1.172,2.17,2.17,0,0,1,0-1.61,2.214,2.214,0,0,0-.282-2.413,2.154,2.154,0,0,1-.322-1.143,3.4,3.4,0,0,0-1-2.291c-.058-.057-.055-.182-.083-.288.219-.512.741-.594,1.138-.855a.964.964,0,0,0,.533-.989,22.736,22.736,0,0,1,.211-4.539,1.278,1.278,0,0,0-.185-1,2.741,2.741,0,0,1-.561-1.646c.321-.809.576-1.451.829-2.092.036-.094.109-.247.076-.283-.633-.7.073-1.425-.04-2.14a3.77,3.77,0,0,1,.11-1.044.817.817,0,0,1,.084-.29c.385-.681-.39-1.281-.153-1.9a2.365,2.365,0,0,0,0-1.9,2.9,2.9,0,0,1-.05-2.355,2.1,2.1,0,0,0-.129-1.907,2.253,2.253,0,0,1-.254-1.727c.132-.74.369-1.461.552-2.166-.072-.594-.122-1.192-.226-1.779a7.624,7.624,0,0,1-.324-1.405,1.507,1.507,0,0,0-.431-1.154l.983-1.433a4.359,4.359,0,0,1-.292-2.369,1.09,1.09,0,0,0-.246-.826,1.679,1.679,0,0,1-.389-1.679,2.079,2.079,0,0,0-.027-.528c-.331-.2-.688-.424-1.109-.685.494-.94.328-2.076.906-3a.871.871,0,0,0,.048-.593c-.214-.884.093-1.816-.25-2.694a.99.99,0,0,1,.155-.7,7.474,7.474,0,0,1,.694-.874,2.011,2.011,0,0,0-.039-.681A1.744,1.744,0,0,1,189.1,59.2c.126-.151.091-.476.079-.719-.01-.2-.165-.4-.137-.579a3.6,3.6,0,0,0-.449-2.6,1.116,1.116,0,0,1,.011-1,2.428,2.428,0,0,0,.381-1.712c.008-1.252-.108-2.5-.176-3.79l.505-.772-.765-.534a2.349,2.349,0,0,1,.134-.519,6.039,6.039,0,0,0,.445-4.114,2.648,2.648,0,0,1-.042-.6,2.886,2.886,0,0,0-.574-2.25,1.669,1.669,0,0,1,.112-.424c.372-.642.635-1.231-.053-1.88a1.156,1.156,0,0,1-.177-.986c.246-.7.133-1.523.723-2.055a14.05,14.05,0,0,1-.347-1.365,2.8,2.8,0,0,1,.22-2.053,1.755,1.755,0,0,0,.159-1.613,3.855,3.855,0,0,1,.019-2.517,1.994,1.994,0,0,0-.06-1.606,2.011,2.011,0,0,1-.065-1.476,2.282,2.282,0,0,0-.014-1.629.929.929,0,0,1-.034-.586,20.4,20.4,0,0,0-.129-6.954,4.218,4.218,0,0,1,.1-2.676,1.154,1.154,0,0,0-.1-.862,1.646,1.646,0,0,1-.1-1.321,10.843,10.843,0,0,0,.36-2.765c-1.176-.027-2.372.134-3.562.194a7,7,0,0,1-2.924-.19c-3.418-1.412-6.83-1.175-10.3-.365-3.287.769-6.724-.79-9.989.677a1.542,1.542,0,0,1-1.194-.31c-2-1.327-4.152-.863-6.172-.385-3.61.855-7.281.189-10.886.77a1.8,1.8,0,0,1-1.223-.26c-1.947-1.372-4.059-.913-6.161-.734-2.523.215-5.056.669-7.552-.224-.273-.1-.545-.18-.818-.275.021.066.034.137.056.2a2.892,2.892,0,0,1-.127,2.352,1.854,1.854,0,0,0-.081,1.451,26.905,26.905,0,0,1,.936,3.809,1.561,1.561,0,0,1-.276,1.28,3.369,3.369,0,0,0-.594,2.437c.121,1.908.328,3.811.56,5.709a4.992,4.992,0,0,1-.22,2.68A1.37,1.37,0,0,0,128.7,27.5c1.08,1.54.875,3.246.467,4.933a3.723,3.723,0,0,0-.217,1.471,1.163,1.163,0,0,1-.042.6,6.14,6.14,0,0,0-.1,3,7.371,7.371,0,0,1-.054,3.115,1.1,1.1,0,0,0,.165.855,10.407,10.407,0,0,1,.479,1.4.578.578,0,0,1-.029.438,1.439,1.439,0,0,0,0,1.7.844.844,0,0,1,.079.291c.029.251.155.58.05.742-.479.737.093,1.562-.263,2.324a4.108,4.108,0,0,0-.188,3.508,1.449,1.449,0,0,1,.016.887,7.054,7.054,0,0,0-.09,3.434,1.134,1.134,0,0,1-.027.6,4.381,4.381,0,0,0-.12,2.249,7.647,7.647,0,0,1,.027.91c.013.705-.034,1.417.048,2.114a7.357,7.357,0,0,1-.215,3.3.931.931,0,0,0-.065.438,34.762,34.762,0,0,1,.062,5.57,31.421,31.421,0,0,0,.274,5.6,9.036,9.036,0,0,1,.117,2.568,9.387,9.387,0,0,0,.136,2.39,13.065,13.065,0,0,1-.05,3.309,6.114,6.114,0,0,0,.085,2.546,3.615,3.615,0,0,1-.077,2.079,3.138,3.138,0,0,0-.2,1.011c.141,2.266.334,4.529.474,6.8.071,1.157.095,2.322.086,3.482a3.608,3.608,0,0,1-.257,1.332,1.8,1.8,0,0,0-.019,1.593c.235.493.338,1.059.92,1.273.066.024.094.163.168.3a1.745,1.745,0,0,1-.189.518,2.8,2.8,0,0,0-.587,2.409,4.227,4.227,0,0,1-.021,1.058,27.928,27.928,0,0,0-.014,3.337c.09,1.357.024,2.725.026,4.089a4.226,4.226,0,0,0,.015.756,19.533,19.533,0,0,1,.086,4.691,1.922,1.922,0,0,0,.054.9,4.513,4.513,0,0,1,.271,2.368,6.98,6.98,0,0,0,.112,1.208c.265.01.526,0,.793.017,3.145.178,6.417,1.22,9.433-.789a2.2,2.2,0,0,1,1.225-.2c1.824.056,3.842-.335,5.418.363,1.826.808,3.66.062,5.277.691,3.676,1.429,7.416.831,10.841-.111,3.582-.986,6.924-.645,10.393-.246a5.451,5.451,0,0,0,1.673.164,7.879,7.879,0,0,1,6.618,1.853c.832-.29,1.5-.507,2.161-.754a10.288,10.288,0,0,1,3.647-.706c.107-.3.219-.588.307-.889A6.757,6.757,0,0,0,188.013,125.358Z"/><path class="cls-2" d="M328.838,125.358c.228-.224.552-.535.871-.852a2.091,2.091,0,0,0,.459-2.946.684.684,0,0,1-.044-.568,2.218,2.218,0,0,0-.065-1.608,3,3,0,0,1-.033-2.082,1.86,1.86,0,0,0-.14-1.172,2.072,2.072,0,0,1-.005-1.61,2.131,2.131,0,0,0-.3-2.413,2.086,2.086,0,0,1-.338-1.143,3.324,3.324,0,0,0-1.046-2.291c-.061-.057-.058-.182-.087-.288.229-.512.778-.594,1.2-.855a.956.956,0,0,0,.559-.989,21.676,21.676,0,0,1,.221-4.539,1.227,1.227,0,0,0-.194-1,2.661,2.661,0,0,1-.589-1.646c.338-.809.606-1.451.871-2.092.038-.094.114-.247.08-.283-.665-.7.076-1.425-.042-2.14a3.565,3.565,0,0,1,.116-1.044.782.782,0,0,1,.087-.29c.4-.681-.409-1.281-.16-1.9a2.261,2.261,0,0,0,0-1.9,2.775,2.775,0,0,1-.052-2.355,2.015,2.015,0,0,0-.135-1.907,2.16,2.16,0,0,1-.267-1.727c.138-.74.387-1.461.58-2.166-.076-.594-.128-1.192-.237-1.779a7.234,7.234,0,0,1-.341-1.405,1.466,1.466,0,0,0-.453-1.154c.367-.508.686-.951,1.032-1.433a4.177,4.177,0,0,1-.306-2.369,1.054,1.054,0,0,0-.259-.826,1.621,1.621,0,0,1-.408-1.679,1.955,1.955,0,0,0-.028-.528c-.348-.2-.723-.424-1.166-.685.52-.94.346-2.076.952-3a.832.832,0,0,0,.051-.593c-.225-.884.1-1.816-.263-2.694a.954.954,0,0,1,.163-.7,7.533,7.533,0,0,1,.729-.874,1.917,1.917,0,0,0-.041-.681,1.677,1.677,0,0,1,.173-1.964c.132-.151.095-.476.082-.719-.01-.2-.172-.4-.143-.579a3.451,3.451,0,0,0-.473-2.6,1.071,1.071,0,0,1,.012-1,2.337,2.337,0,0,0,.4-1.712c.008-1.252-.114-2.5-.185-3.79l.53-.772-.8-.534a2.171,2.171,0,0,1,.141-.519,5.781,5.781,0,0,0,.467-4.114,2.592,2.592,0,0,1-.045-.6,2.779,2.779,0,0,0-.6-2.25,1.64,1.64,0,0,1,.118-.424c.391-.642.667-1.231-.055-1.88a1.108,1.108,0,0,1-.186-.986c.258-.7.14-1.523.759-2.055a13.527,13.527,0,0,1-.364-1.365,2.679,2.679,0,0,1,.231-2.053,1.684,1.684,0,0,0,.166-1.613,3.682,3.682,0,0,1,.021-2.517,1.9,1.9,0,0,0-.064-1.606,1.926,1.926,0,0,1-.067-1.476,2.186,2.186,0,0,0-.015-1.629.889.889,0,0,1-.036-.586,19.418,19.418,0,0,0-.136-6.954,4.036,4.036,0,0,1,.111-2.676,1.107,1.107,0,0,0-.1-.862,1.574,1.574,0,0,1-.1-1.321,6.856,6.856,0,0,0,.322-1.973,11.224,11.224,0,0,1-1.263-.167,4.8,4.8,0,0,1-4.653-.1,1.714,1.714,0,0,0-1.269.138c-1.727.756-3.447.318-5.221.252-4.006-.15-8.1-1.928-12.046.334-.212.121-.577-.03-.871-.048-4.422-.263-8.817.576-13.28.035-3.488-.422-7.07-.066-10.608-.1a7.831,7.831,0,0,1-2.183-.361,13.767,13.767,0,0,0-9.576.323l-2.647-1.871-.079.014a2.719,2.719,0,0,1-.168,2.22,1.776,1.776,0,0,0-.085,1.451,25.881,25.881,0,0,1,.984,3.809,1.5,1.5,0,0,1-.291,1.28,3.248,3.248,0,0,0-.623,2.437c.127,1.908.344,3.811.588,5.709a4.763,4.763,0,0,1-.231,2.68,1.314,1.314,0,0,0,.094,1.433c1.133,1.54.919,3.246.49,4.933a3.542,3.542,0,0,0-.227,1.471,1.132,1.132,0,0,1-.045.6,5.855,5.855,0,0,0-.1,3,7.031,7.031,0,0,1-.057,3.115,1.056,1.056,0,0,0,.174.855,10.1,10.1,0,0,1,.5,1.4.551.551,0,0,1-.031.438,1.384,1.384,0,0,0,0,1.7.828.828,0,0,1,.084.291c.03.251.162.58.052.742-.5.737.1,1.562-.277,2.324a3.935,3.935,0,0,0-.2,3.508,1.385,1.385,0,0,1,.017.887,6.733,6.733,0,0,0-.094,3.434,1.076,1.076,0,0,1-.029.6,4.178,4.178,0,0,0-.126,2.249,7.246,7.246,0,0,1,.028.91,20.666,20.666,0,0,0,.051,2.114,7.02,7.02,0,0,1-.226,3.3.9.9,0,0,0-.069.438,33,33,0,0,1,.066,5.57,30,30,0,0,0,.287,5.6,8.554,8.554,0,0,1,.123,2.568,8.921,8.921,0,0,0,.144,2.39,12.493,12.493,0,0,1-.053,3.309,5.814,5.814,0,0,0,.09,2.546,3.455,3.455,0,0,1-.082,2.079,3,3,0,0,0-.207,1.011c.149,2.266.351,4.529.5,6.8.075,1.157.1,2.322.09,3.482a3.445,3.445,0,0,1-.269,1.332,1.716,1.716,0,0,0-.02,1.593c.246.493.355,1.059.966,1.273.07.024.1.163.176.3a1.691,1.691,0,0,1-.2.518,2.706,2.706,0,0,0-.617,2.409,4.046,4.046,0,0,1-.021,1.058,26.534,26.534,0,0,0-.015,3.337c.095,1.357.025,2.725.027,4.089a3.963,3.963,0,0,0,.016.756,18.6,18.6,0,0,1,.09,4.691,1.833,1.833,0,0,0,.057.9,4.307,4.307,0,0,1,.284,2.368,3.652,3.652,0,0,0,.035.561c4.885-.33,9.783.047,14.674,0,1.326-.013,2.669.2,3.976.06a36.392,36.392,0,0,1,11.889.84,21.234,21.234,0,0,0,5.729.323c5.012-.245,9.977-1.531,15.041-.7a2.2,2.2,0,0,0,1.3-.171c2.1-1.108,4.023-.209,6,.393.569.173,1.148.387,1.729.549.153-.418.324-.831.456-1.257A6.4,6.4,0,0,0,328.838,125.358Z"/><path class="cls-2" d="M258.638,125.358c.228-.224.552-.535.871-.852a2.091,2.091,0,0,0,.459-2.946.684.684,0,0,1-.044-.568,2.218,2.218,0,0,0-.065-1.608,3,3,0,0,1-.033-2.082,1.86,1.86,0,0,0-.14-1.172,2.072,2.072,0,0,1,0-1.61,2.131,2.131,0,0,0-.3-2.413,2.086,2.086,0,0,1-.338-1.143A3.324,3.324,0,0,0,258,108.673c-.061-.057-.058-.182-.087-.288.229-.512.778-.594,1.2-.855a.956.956,0,0,0,.559-.989,21.676,21.676,0,0,1,.221-4.539,1.227,1.227,0,0,0-.194-1,2.661,2.661,0,0,1-.589-1.646c.338-.809.606-1.451.871-2.092.038-.094.114-.247.08-.283-.665-.7.076-1.425-.042-2.14a3.565,3.565,0,0,1,.116-1.044.782.782,0,0,1,.087-.29c.4-.681-.409-1.281-.16-1.9a2.261,2.261,0,0,0,0-1.9A2.775,2.775,0,0,1,260,87.359a2.015,2.015,0,0,0-.135-1.907,2.16,2.16,0,0,1-.267-1.727c.138-.74.387-1.461.58-2.166-.076-.594-.128-1.192-.237-1.779a7.234,7.234,0,0,1-.341-1.405,1.466,1.466,0,0,0-.453-1.154c.367-.508.686-.951,1.032-1.433a4.177,4.177,0,0,1-.306-2.369,1.054,1.054,0,0,0-.259-.826,1.621,1.621,0,0,1-.408-1.679,1.955,1.955,0,0,0-.028-.528c-.348-.2-.723-.424-1.166-.685.52-.94.346-2.076.952-3a.832.832,0,0,0,.051-.593c-.225-.884.1-1.816-.263-2.694a.954.954,0,0,1,.163-.7,7.533,7.533,0,0,1,.729-.874,1.917,1.917,0,0,0-.041-.681,1.677,1.677,0,0,1,.173-1.964c.132-.151.095-.476.082-.719-.01-.2-.172-.4-.143-.579a3.451,3.451,0,0,0-.473-2.6,1.071,1.071,0,0,1,.012-1,2.337,2.337,0,0,0,.4-1.712c.008-1.252-.114-2.5-.185-3.79l.53-.772-.8-.534a2.171,2.171,0,0,1,.141-.519,5.781,5.781,0,0,0,.467-4.114,2.592,2.592,0,0,1-.045-.6,2.779,2.779,0,0,0-.6-2.25,1.64,1.64,0,0,1,.118-.424c.391-.642.667-1.231-.055-1.88a1.108,1.108,0,0,1-.186-.986c.258-.7.14-1.523.759-2.055a13.527,13.527,0,0,1-.364-1.365,2.679,2.679,0,0,1,.231-2.053,1.684,1.684,0,0,0,.166-1.613,3.682,3.682,0,0,1,.021-2.517,1.9,1.9,0,0,0-.064-1.606,1.926,1.926,0,0,1-.067-1.476,2.186,2.186,0,0,0-.015-1.629.889.889,0,0,1-.036-.586,19.418,19.418,0,0,0-.136-6.954,4.036,4.036,0,0,1,.111-2.676,1.107,1.107,0,0,0-.1-.862,1.574,1.574,0,0,1-.1-1.321,11.323,11.323,0,0,0,.392-2.9,6.291,6.291,0,0,1-.747.041c-4.117-.245-8.22-.734-12.331-1.1a6.424,6.424,0,0,0-4.657,1.012,3.531,3.531,0,0,1-2.009.706c-2.355-.05-4.7-.295-7.06-.395a7.073,7.073,0,0,0-3.049.2,7.411,7.411,0,0,1-4.8.092,24.427,24.427,0,0,0-7.511-.142c-2.211.226-4.427.429-6.644.558a6.507,6.507,0,0,1-3.045-.2c-1.475-.722-2.747-.428-4.24-.188a75.193,75.193,0,0,1-7.655.545,2.6,2.6,0,0,1-.191.458,1.776,1.776,0,0,0-.085,1.451,25.881,25.881,0,0,1,.984,3.809,1.5,1.5,0,0,1-.291,1.28,3.248,3.248,0,0,0-.623,2.437c.127,1.908.344,3.811.588,5.709a4.763,4.763,0,0,1-.231,2.68,1.314,1.314,0,0,0,.094,1.433c1.133,1.54.919,3.246.49,4.933a3.542,3.542,0,0,0-.227,1.471,1.132,1.132,0,0,1-.045.6,5.855,5.855,0,0,0-.1,3,7.031,7.031,0,0,1-.057,3.115,1.056,1.056,0,0,0,.174.855,10.1,10.1,0,0,1,.5,1.4.551.551,0,0,1-.031.438,1.384,1.384,0,0,0,0,1.7.828.828,0,0,1,.084.291c.03.251.162.58.052.742-.5.737.1,1.562-.277,2.324a3.935,3.935,0,0,0-.2,3.508,1.385,1.385,0,0,1,.017.887,6.733,6.733,0,0,0-.094,3.434,1.076,1.076,0,0,1-.029.6,4.178,4.178,0,0,0-.126,2.249,7.246,7.246,0,0,1,.028.91,20.666,20.666,0,0,0,.051,2.114,7.02,7.02,0,0,1-.226,3.3.9.9,0,0,0-.069.438,33,33,0,0,1,.066,5.57,30,30,0,0,0,.287,5.6,8.554,8.554,0,0,1,.123,2.568,8.921,8.921,0,0,0,.144,2.39,12.493,12.493,0,0,1-.053,3.309,5.814,5.814,0,0,0,.09,2.546,3.455,3.455,0,0,1-.082,2.079,3,3,0,0,0-.207,1.011c.149,2.266.351,4.529.5,6.8.075,1.157.1,2.322.09,3.482a3.445,3.445,0,0,1-.269,1.332,1.716,1.716,0,0,0-.02,1.593c.246.493.355,1.059.966,1.273.07.024.1.163.176.3a1.691,1.691,0,0,1-.2.518,2.706,2.706,0,0,0-.617,2.409,4.046,4.046,0,0,1-.021,1.058,26.534,26.534,0,0,0-.015,3.337c.095,1.357.025,2.725.027,4.089a3.963,3.963,0,0,0,.016.756,18.6,18.6,0,0,1,.09,4.691,1.833,1.833,0,0,0,.057.9,4.307,4.307,0,0,1,.284,2.368,8.182,8.182,0,0,0,.14,1.361c.023.18.016.356.027.535.071-.014.141-.024.21-.039a7.767,7.767,0,0,1,3-.34c4.44.932,8.855.468,13.262-.062,4.769-.576,9.406.868,14.135.768,2.676,1.76,5.332,1.034,8.051.052a13.066,13.066,0,0,1,3.08-.365,42.005,42.005,0,0,0,8.735-1.439c2.036-.651,4.424-1.2,6.413.352a4.488,4.488,0,0,0,3.312,1.019c.152-.414.321-.823.452-1.244A6.4,6.4,0,0,0,258.638,125.358Z"/><path class="cls-2" d="M462.352,8.805c-1.2-.838-2.322-1.8-3.589-2.79a12.607,12.607,0,0,0-7.534,1.717,12.488,12.488,0,0,1-9.807,1.634c-3.348-.827-6.75-.563-10.155-.231-2.171.211-4.4.928-6.546-.24a1.042,1.042,0,0,0-.832,0c-3.136,1.53-5.645.107-8.116-1.645-.819-.582-1.73-1.036-2.5-1.488a37.061,37.061,0,0,1-3.87,1.585,2.519,2.519,0,0,1-.316,1.349,1.776,1.776,0,0,0-.085,1.451,25.881,25.881,0,0,1,.984,3.809,1.5,1.5,0,0,1-.291,1.28,3.248,3.248,0,0,0-.623,2.437c.127,1.908.344,3.811.588,5.709a4.763,4.763,0,0,1-.231,2.68,1.314,1.314,0,0,0,.094,1.433c1.133,1.54.919,3.246.49,4.933a3.542,3.542,0,0,0-.227,1.471,1.132,1.132,0,0,1-.045.6,5.855,5.855,0,0,0-.1,3,7.031,7.031,0,0,1-.057,3.115,1.056,1.056,0,0,0,.174.855,10.1,10.1,0,0,1,.5,1.4.551.551,0,0,1-.031.438,1.384,1.384,0,0,0,0,1.7.828.828,0,0,1,.084.291c.03.251.162.58.052.742-.5.737.1,1.562-.277,2.324a3.935,3.935,0,0,0-.2,3.508,1.385,1.385,0,0,1,.017.887,6.733,6.733,0,0,0-.094,3.434,1.076,1.076,0,0,1-.029.6,4.178,4.178,0,0,0-.126,2.249,7.246,7.246,0,0,1,.028.91,20.666,20.666,0,0,0,.051,2.114,7.02,7.02,0,0,1-.226,3.3.9.9,0,0,0-.069.438,33,33,0,0,1,.066,5.57,30,30,0,0,0,.287,5.6,8.554,8.554,0,0,1,.123,2.568,8.921,8.921,0,0,0,.144,2.39,12.493,12.493,0,0,1-.053,3.309,5.814,5.814,0,0,0,.09,2.546,3.455,3.455,0,0,1-.082,2.079,3,3,0,0,0-.207,1.011c.149,2.266.351,4.529.5,6.8.075,1.157.1,2.322.09,3.482a3.445,3.445,0,0,1-.269,1.332,1.716,1.716,0,0,0-.02,1.593c.246.493.355,1.059.966,1.273.07.024.1.163.176.3a1.691,1.691,0,0,1-.2.518,2.706,2.706,0,0,0-.617,2.409,4.046,4.046,0,0,1-.021,1.058,26.534,26.534,0,0,0-.015,3.337c.095,1.357.025,2.725.027,4.089a3.963,3.963,0,0,0,.016.756,18.6,18.6,0,0,1,.09,4.691,1.833,1.833,0,0,0,.057.9,4.307,4.307,0,0,1,.284,2.368,8.182,8.182,0,0,0,.14,1.361,8.031,8.031,0,0,1,.044.887,69.334,69.334,0,0,1,10.662.9,12.666,12.666,0,0,0,6.577-.359,9.463,9.463,0,0,1,4.327-.336c2.184.251,4.584.748,6.574.124,4.843-1.522,9.727.357,14.514-.677a2.091,2.091,0,0,1,1.247.4c1.976,1.13,3.954.841,6.011.214a7.566,7.566,0,0,1,3-.278,55.173,55.173,0,0,0,11.5.641,10.049,10.049,0,0,0-.34-4.015,13.458,13.458,0,0,1-.084-5.056,2.793,2.793,0,0,0,.08-.813,3.969,3.969,0,0,1,.877-3.214c-.132-.406-.231-.731-.343-1.053a4.367,4.367,0,0,1-.135-3,4.086,4.086,0,0,0,.01-2.234,3.571,3.571,0,0,1-.149-1.391,18.723,18.723,0,0,0,.007-6.141c-.254-2.21.427-4.353.393-6.543.823-1.234.494-2.465.046-3.727a6.076,6.076,0,0,1-.16-1.428,19.465,19.465,0,0,0-.644-4.048,3.076,3.076,0,0,1,.18-2.968,2.208,2.208,0,0,0,.24-2.5,3.724,3.724,0,0,1-.218-1,62.236,62.236,0,0,1-.075-8.194,18.3,18.3,0,0,0,.038-1.841,16.825,16.825,0,0,1,.422-5.5,9.919,9.919,0,0,0,.165-2.651c-.1-2.321-.682-4.624-.283-6.966a1.022,1.022,0,0,0-.077-.6c-.506-.974-.085-1.863.2-2.775a4.98,4.98,0,0,0,.375-1.563A30.961,30.961,0,0,1,476,44.49a7.309,7.309,0,0,1,.4-2.8,3.231,3.231,0,0,0,.1-1.612c-.141-1.984-.315-3.967-.49-5.949a6.212,6.212,0,0,1,.264-2.837,4.039,4.039,0,0,0,.186-1.612,41.375,41.375,0,0,1-.188-6.765c.107-.983-.4-2.017-.413-3.03-.013-1.085.271-2.169.347-3.259a47.284,47.284,0,0,1,.511-6.121c.016-.083.006-.163.02-.245-.665.073-1.329.158-2.006.3C470.436,11.443,466.173,11.46,462.352,8.805Z"/><path class="cls-2" d="M399.038,125.358c.228-.224.552-.535.871-.852a2.091,2.091,0,0,0,.459-2.946.684.684,0,0,1-.044-.568,2.218,2.218,0,0,0-.065-1.608,3,3,0,0,1-.033-2.082,1.86,1.86,0,0,0-.14-1.172,2.072,2.072,0,0,1,0-1.61,2.131,2.131,0,0,0-.3-2.413,2.086,2.086,0,0,1-.338-1.143,3.324,3.324,0,0,0-1.046-2.291c-.061-.057-.058-.182-.087-.288.229-.512.778-.594,1.2-.855a.956.956,0,0,0,.559-.989,21.676,21.676,0,0,1,.221-4.539,1.227,1.227,0,0,0-.194-1,2.661,2.661,0,0,1-.589-1.646c.338-.809.606-1.451.871-2.092.038-.094.114-.247.08-.283-.665-.7.076-1.425-.042-2.14a3.565,3.565,0,0,1,.116-1.044.782.782,0,0,1,.087-.29c.405-.681-.409-1.281-.16-1.9a2.261,2.261,0,0,0,0-1.9,2.775,2.775,0,0,1-.052-2.355,2.015,2.015,0,0,0-.135-1.907A2.16,2.16,0,0,1,400,83.725c.138-.74.387-1.461.58-2.166-.076-.594-.128-1.192-.237-1.779A7.234,7.234,0,0,1,400,78.375a1.466,1.466,0,0,0-.453-1.154c.367-.508.686-.951,1.032-1.433a4.177,4.177,0,0,1-.306-2.369,1.054,1.054,0,0,0-.259-.826,1.621,1.621,0,0,1-.408-1.679,1.955,1.955,0,0,0-.028-.528c-.348-.2-.723-.424-1.166-.685.52-.94.346-2.076.952-3a.832.832,0,0,0,.051-.593c-.225-.884.1-1.816-.263-2.694a.954.954,0,0,1,.163-.7,7.533,7.533,0,0,1,.729-.874,1.917,1.917,0,0,0-.041-.681,1.677,1.677,0,0,1,.173-1.964c.132-.151.1-.476.082-.719-.01-.2-.172-.4-.143-.579a3.451,3.451,0,0,0-.473-2.6,1.071,1.071,0,0,1,.012-1,2.337,2.337,0,0,0,.4-1.712c.008-1.252-.114-2.5-.185-3.79l.53-.772-.8-.534a2.171,2.171,0,0,1,.141-.519,5.781,5.781,0,0,0,.467-4.114,2.592,2.592,0,0,1-.045-.6,2.779,2.779,0,0,0-.6-2.25,1.64,1.64,0,0,1,.118-.424c.391-.642.667-1.231-.055-1.88a1.108,1.108,0,0,1-.186-.986c.258-.7.14-1.523.759-2.055a13.527,13.527,0,0,1-.364-1.365,2.679,2.679,0,0,1,.231-2.053,1.684,1.684,0,0,0,.166-1.613,3.682,3.682,0,0,1,.021-2.517,1.9,1.9,0,0,0-.064-1.606,1.926,1.926,0,0,1-.067-1.476,2.186,2.186,0,0,0-.015-1.629.889.889,0,0,1-.036-.586,19.418,19.418,0,0,0-.136-6.954,4.036,4.036,0,0,1,.111-2.676,1.107,1.107,0,0,0-.1-.862,1.574,1.574,0,0,1-.1-1.321,5.706,5.706,0,0,0,.28-1.466,21,21,0,0,1-3.2.523,7.992,7.992,0,0,1-3.843-.632c-5.03-2.141-7.553-2.3-12.017-1.41-2.86.571-5.724,1.2-8.618,1.524-5,.566-10.035.912-15.054,1.365-1.365.124-2.659.127-3.678-1.023-1.146-1.3-2.644-1.159-4.127-.873a19.322,19.322,0,0,0-2.114.659,10.477,10.477,0,0,1-6.964.041,11.8,11.8,0,0,0-3.971-.577c-.014.049-.044.1-.061.145a8.161,8.161,0,0,1-.017,1.047c-.042.427-.067.856-.1,1.284a20.061,20.061,0,0,1,.844,3.341,1.5,1.5,0,0,1-.291,1.28,3.248,3.248,0,0,0-.623,2.437c.127,1.908.344,3.811.588,5.709a4.763,4.763,0,0,1-.231,2.68,1.314,1.314,0,0,0,.094,1.433c1.133,1.54.919,3.246.49,4.933a3.542,3.542,0,0,0-.227,1.471,1.132,1.132,0,0,1-.045.6,5.855,5.855,0,0,0-.1,3,7.031,7.031,0,0,1-.057,3.115,1.056,1.056,0,0,0,.174.855,10.1,10.1,0,0,1,.5,1.4.551.551,0,0,1-.031.438,1.384,1.384,0,0,0,0,1.7.828.828,0,0,1,.084.291c.03.251.162.58.052.742-.5.737.1,1.562-.277,2.324a3.935,3.935,0,0,0-.2,3.508,1.385,1.385,0,0,1,.017.887,6.733,6.733,0,0,0-.094,3.434,1.076,1.076,0,0,1-.029.6,4.178,4.178,0,0,0-.126,2.249,7.246,7.246,0,0,1,.028.91,20.666,20.666,0,0,0,.051,2.114,7.02,7.02,0,0,1-.226,3.3.9.9,0,0,0-.069.438,33,33,0,0,1,.066,5.57,30,30,0,0,0,.287,5.6,8.554,8.554,0,0,1,.123,2.568,8.921,8.921,0,0,0,.144,2.39,12.493,12.493,0,0,1-.053,3.309,5.814,5.814,0,0,0,.09,2.546,3.455,3.455,0,0,1-.082,2.079,3,3,0,0,0-.207,1.011c.149,2.266.351,4.529.5,6.8.075,1.157.1,2.322.09,3.482a3.445,3.445,0,0,1-.269,1.332,1.716,1.716,0,0,0-.02,1.593c.246.493.355,1.059.966,1.273.07.024.1.163.176.3a1.691,1.691,0,0,1-.2.518,2.706,2.706,0,0,0-.617,2.409,4.046,4.046,0,0,1-.021,1.058,26.534,26.534,0,0,0-.015,3.337c.095,1.357.025,2.725.027,4.089a3.963,3.963,0,0,0,.016.756,18.6,18.6,0,0,1,.09,4.691,1.833,1.833,0,0,0,.057.9,4.307,4.307,0,0,1,.284,2.368,8.182,8.182,0,0,0,.14,1.361c.02.162.014.321.024.481a34.851,34.851,0,0,1,4.879.174c2.02.236,4.052-.2,6.049.831a6.956,6.956,0,0,0,3.483.2c4.284-.329,8.564-.728,12.843-1.132a13.441,13.441,0,0,1,6.13.533,8.738,8.738,0,0,0,3.483.383c4.863-.3,9.684-.992,14.609-.49,2.121.216,4.349-.891,6.537-.931a17.867,17.867,0,0,1,2.3.14c.122-.318.248-.633.348-.957A6.4,6.4,0,0,0,399.038,125.358Z"/><path class="cls-2" d="M908.174,14.849c0,.032,0,.063,0,.094.01-.026.014-.054.023-.081Z"/><path class="cls-3" d="M604.85,72.269a5.724,5.724,0,0,0,.076-1.026c.011-.6-.015-1.193-.036-1.79,0-.118.009-.235.009-.354a3.774,3.774,0,0,0-.009-.534,16.715,16.715,0,0,1-.065-1.895.906.906,0,0,0,0-.172,1.582,1.582,0,0,1-.025-.832c0-.019,0-.04,0-.095a3.163,3.163,0,0,1-.281-1.285l.084-.477.151.076c.063-.714.046-.864-.133-1.067l.019-.459.105.048a.41.41,0,0,0,.032-.082,1.23,1.23,0,0,0-.006-.464,3.858,3.858,0,0,1-.044-.943,4.154,4.154,0,0,0-.045-.889c-.023-.152-.038-.313-.047-.471a1.887,1.887,0,0,0-.113-.64,2.481,2.481,0,0,1-.1-.921c0-.2.018-.389.03-.632l.146.31a.8.8,0,0,0,.03-.186,6.2,6.2,0,0,1-.006-1.348,6.537,6.537,0,0,0-.075-1.471,13.207,13.207,0,0,1-.076-1.892,2.431,2.431,0,0,0-.011-.531.593.593,0,0,1,.009-.223.851.851,0,0,0-.012-.543.962.962,0,0,1-.027-.278,4.9,4.9,0,0,0-.052-.83,5.2,5.2,0,0,1-.033-.591c0-.275,0-.549,0-.878a.864.864,0,0,0,.036-.625c-.032-.167-.068-.332-.1-.5a2.71,2.71,0,0,1-.054-.818.786.786,0,0,0-.018-.286c-.087-.239-.094-.572-.2-.789a1.481,1.481,0,0,1-.089-.5c-.031-.5-.019-1-.095-1.492a.725.725,0,0,1,.014-.223,2.453,2.453,0,0,0-.007-.871,6.1,6.1,0,0,1-.059-1.3,1.83,1.83,0,0,0-.044-.584,2.391,2.391,0,0,1-.013-1.023,1.313,1.313,0,0,0,0-.565,4.242,4.242,0,0,1-.02-1.488c.055.084.1.118.118.188.037.136.062.291.087.442.032.187.06.378.088.558.079.01.076-.106.061-.193-.059-.34-.123-.675-.187-1.011a2.081,2.081,0,0,1-.055-.272c-.019-.4-.052-.807-.039-1.2a6.889,6.889,0,0,1,.092-1.2,1.26,1.26,0,0,0-.018-.464,4.39,4.39,0,0,1-.038-1.005,1.472,1.472,0,0,1,.089-.519.54.54,0,0,0-.01-.407l-.068.108a.154.154,0,0,1-.028-.059c-.024-.48-.053-.96-.066-1.439-.007-.255.013-.509.021-.78l.2-.179c-.032-.7-.024-1.371-.068-2.044a.621.621,0,0,1,0-.175,1.644,1.644,0,0,0-.022-.788,1.514,1.514,0,0,1,.018-.682,4.41,4.41,0,0,0,.076-.963,2.211,2.211,0,0,1,.012-.407,3.2,3.2,0,0,0,.031-.81c-.014-.438-.016-.877-.037-1.314-.013-.256-.054-.51-.08-.765a2.682,2.682,0,0,1-.039-.467,1.884,1.884,0,0,0-.122-.833,5.152,5.152,0,0,1-.209-.92,1.032,1.032,0,0,1,.026-.163,1.651,1.651,0,0,0,0-1.042,2.479,2.479,0,0,1-.087-1.026c.018-.169.021-.35.039-.519a1.88,1.88,0,0,0-.017-.584,2.331,2.331,0,0,1-.012-.7,3.716,3.716,0,0,0,0-.761,3.379,3.379,0,0,1,.026-.87,3.151,3.151,0,0,0,.029-.456c0-.3,0-.594-.008-.891a2.527,2.527,0,0,0-.057-.461,3.053,3.053,0,0,1-.033-1.047c.025-.2.04-.415.06-.623a9.769,9.769,0,0,0-.094-1.651,9.666,9.666,0,0,1-.04-1.929.785.785,0,0,0,.169-.051c.055-.027.106-.1.162-.117a.263.263,0,0,1,.2-.014.768.768,0,0,0,.714-.036.311.311,0,0,1,.271-.015.967.967,0,0,0,.643.019.749.749,0,0,1,.4.085c.074.023.148.086.223.116.049.019.1.042.147.01.221-.163.458-.082.688-.11a.2.2,0,0,1,.149.053c.15.126.288.171.427-.033a.126.126,0,0,1,.214-.007c.175.264.343.176.51.121a.174.174,0,0,1,.236.076.143.143,0,0,0,.193.041c.171-.1.348.058.519.018.035-.008.076.083.116.117s.09.1.118.068c.115-.127.243-.055.364-.087s.245-.075.291-.445c.094.219.164.366.225.532a1.274,1.274,0,0,1,.048.277c.012.139.015.28.022.42a2.237,2.237,0,0,0,.127.725c.109.246.128.58.212.844.051.161,0,.377.066.569a2.019,2.019,0,0,1,.064.511c.008.2-.009.393-.009.591a2.319,2.319,0,0,0,.018.414,3.054,3.054,0,0,1,.026.762,5.04,5.04,0,0,0,.008.587c.023.309,0,.627-.005.942,0,.217-.015.438,0,.651.06.756.065,1.512.1,2.267.018.435,0,.87-.007,1.3,0,.079-.013.157-.009.235.034.66.034,1.314.039,1.971.007.775.034,1.553.05,2.33a3.158,3.158,0,0,1-.014.352,10.974,10.974,0,0,0,0,1.484c.028.519.053,1.039.072,1.559.01.277,0,.554,0,.831,0,.259.013.519.023.779.015.4.027.792.021,1.192a11.11,11.11,0,0,0,.089,1.669,3.736,3.736,0,0,1,.026.589,9.551,9.551,0,0,0,.031,1.36,4.045,4.045,0,0,1,0,.946,2.016,2.016,0,0,0,.009.584,2.258,2.258,0,0,1,.02.473,2.393,2.393,0,0,0,.029.586,1.686,1.686,0,0,1,.02.3c0,.395-.011.789-.017,1.183a.944.944,0,0,0,0,.176,4.372,4.372,0,0,1,.03.823,7.056,7.056,0,0,0,.042,1.066,1.325,1.325,0,0,1,.009.238c0,.434-.008.868-.01,1.3a1.257,1.257,0,0,0,.125.547,2.472,2.472,0,0,0-.087.376c-.015.146.006.318,0,.474a13.126,13.126,0,0,0,.019,1.429c.012.158.019.323.044.472a4.139,4.139,0,0,1,.024.586,12.548,12.548,0,0,0,.043,1.537,1.634,1.634,0,0,1,.012.3c-.024.468-.028.942-.036,1.416-.006.339,0,.672.009,1.012.006.139,0,.278,0,.416a1.088,1.088,0,0,0,0,.232,3.733,3.733,0,0,1,.076,1.041c.01.256.062.512.067.766s-.055.467-.057.735a10.768,10.768,0,0,0,.054,1.543,2.6,2.6,0,0,1-.01.528,2.764,2.764,0,0,0,.025.7,2.223,2.223,0,0,1,.006.813.532.532,0,0,0-.02.162,11.272,11.272,0,0,1,.033,1.245,4.49,4.49,0,0,1,.01.89.294.294,0,0,0,0,.059,9.05,9.05,0,0,1,.057,1.356c.073.34-.007.714.08,1.055a.437.437,0,0,1-.006.169,2.733,2.733,0,0,0-.037.8,4.094,4.094,0,0,1,0,.415,3,3,0,0,0,.027.648,3.3,3.3,0,0,1,.03.527c-.007.353-.024.692,0,1.061a10.86,10.86,0,0,1,.007,1.127,5.549,5.549,0,0,0,.027.644,5.142,5.142,0,0,1-.025,1.621,2.864,2.864,0,0,0,.019.939,8.469,8.469,0,0,1,.081,1.423,1.234,1.234,0,0,0,.017.235,3.055,3.055,0,0,1,.017.648c-.014.351-.014.709-.015,1.065,0,.159.017.32.02.48,0,.277,0,.554.007.832a1.754,1.754,0,0,0,.009.294,3.537,3.537,0,0,1,.036.941c-.009.151.009.318.015.478a11.717,11.717,0,0,1,.021,1.311c-.011.15.012.319.012.478,0,.217,0,.44-.013.647a7.088,7.088,0,0,0-.012.946c.048,1,.1,2,.138,3,.012.277,0,.554,0,.831,0,.179,0,.359.011.538a10.461,10.461,0,0,1,.016,1.251,3.13,3.13,0,0,0,.01.359c.028.575.04,1.147.033,1.719,0,.216.02.44.025.659,0,.238,0,.475,0,.712a1.689,1.689,0,0,0,0,.236,9.315,9.315,0,0,1,.029,1.473,8.928,8.928,0,0,0,.071,1.369,1.2,1.2,0,0,1,.006.405,3.372,3.372,0,0,0-.023.819,22.133,22.133,0,0,1,.015,2.259c0,.135,0,.279.01.418.024.54.05,1.08.073,1.62.018.418.026.833.025,1.252,0,.53.045,1.074.084,1.61a3.175,3.175,0,0,1,.012.467,9.183,9.183,0,0,0-.01,1.243c.013.216,0,.435,0,.653,0,.139,0,.278,0,.417.02.932.028,1.863.076,2.8.01.195-.035.411-.009.586a9.417,9.417,0,0,1,.028,1.3c0,.116.014.235.025.351a6.354,6.354,0,0,1,.027,1.068,13.716,13.716,0,0,0,0,1.419c.01.34.03.68.045,1.02,0,.12.019.246.012.358a14.455,14.455,0,0,0,.03,1.611,10.779,10.779,0,0,1,.009,1.368c-.011.128,0,.272,0,.41,0,.117.009.235.009.352,0,.079-.013.158-.008.234.055.741.026,1.473.049,2.21.007.238,0,.476,0,.714,0,.178,0,.358.008.537.025.58.044,1.16.081,1.739.036.564.012,1.112.011,1.666,0,.237-.008.474,0,.712.015.419.028.832.02,1.252-.008.451.031.917.05,1.377.017.418.032.832.024,1.252-.009.451.022.919.05,1.377a15.279,15.279,0,0,1-.035,1.853c-.058.024-.112.05-.167.068-.081.027-.163.049-.244.071-.04.011-.083.048-.121.022a.517.517,0,0,0-.4-.049,2.358,2.358,0,0,1-1-.171.12.12,0,0,0-.05-.013,4.1,4.1,0,0,1-.921-.079c-.241-.032-.479.058-.723-.083-.056-.032-.115,0-.174,0-.207-.008-.412.057-.622-.075a.216.216,0,0,0-.15-.011,2.06,2.06,0,0,1-.97-.171c-.017-.007-.036-.023-.049-.01-.195.189-.412-.052-.611.045-.024.012-.051.028-.073.01-.239-.2-.482-.091-.722-.219-.182-.1-.282-.357-.277-.8,0-.177.014-.352.016-.529a6.869,6.869,0,0,0,0-.885c-.04-.329-.009-.633-.03-.95-.02-.3-.037-.6-.041-.9-.006-.476,0-.95,0-1.426,0-.2,0-.395,0-.593,0-.178,0-.359,0-.533a6.544,6.544,0,0,0-.056-1.188,6.046,6.046,0,0,1-.052-1.126,7.4,7.4,0,0,0-.021-1.177,9.552,9.552,0,0,1-.044-1.43,7.351,7.351,0,0,0-.023-1.064,8.5,8.5,0,0,1,.014-.941c0-.2.007-.395,0-.593-.011-.4-.039-.8-.013-1.192.012-.188-.014-.4-.018-.6,0-.238,0-.475,0-.713,0-.2,0-.4-.013-.595a13.763,13.763,0,0,1-.039-1.836c.012-.273.009-.552.012-.829a1.324,1.324,0,0,0,0-.179,14.756,14.756,0,0,1-.061-1.486c-.018-.374,0-.752.016-1.123a5.553,5.553,0,0,0-.055-1.125.4.4,0,0,1-.009-.057c0-.49-.084-.984-.044-1.473a8.094,8.094,0,0,0,0-1.246c-.037-.524,0-1.029,0-1.543a4.26,4.26,0,0,0-.016-.59c-.108-.791-.1-1.592-.141-2.388a2.552,2.552,0,0,1,.019-.349c.039-.5.014-1.016.016-1.526,0-.616-.06-1.233-.032-1.849.02-.423-.01-.871-.019-1.308-.012-.515-.045-1.038-.032-1.544.011-.421-.01-.834-.024-1.252-.019-.6-.072-1.193-.041-1.791.019-.366,0-.752-.007-1.13a1.284,1.284,0,0,0-.02-.175,6.378,6.378,0,0,1-.043-1.42,7.593,7.593,0,0,0,0-1.067,7.127,7.127,0,0,1-.011-1.012,3.682,3.682,0,0,0-.007-.418c-.017-.5-.045-.993-.028-1.492.011-.369-.027-.758-.043-1.138a9.67,9.67,0,0,1-.017-1.191,2.534,2.534,0,0,0-.014-.476c-.061-.476-.04-.951-.062-1.426-.009-.177.01-.355,0-.533a10.647,10.647,0,0,0-.02-1.181,3.884,3.884,0,0,1,.007-.706A8.661,8.661,0,0,0,604.85,72.269ZM603.9,30.84a4.3,4.3,0,0,0,.105,1.046c.015.051.055.062.083.091a.826.826,0,0,0,.02-.2C604.05,31.487,603.983,31.2,603.9,30.84Z"/><path class="cls-3" d="M648.1,72.136a5.863,5.863,0,0,0,.114-1.022c.033-.6.029-1.193.03-1.791,0-.118.018-.234.023-.353a3.846,3.846,0,0,0,.011-.534,16.885,16.885,0,0,1,0-1.9.834.834,0,0,0,0-.172,1.585,1.585,0,0,1,.007-.832c0-.019,0-.04,0-.095a3.168,3.168,0,0,1-.233-1.3l.1-.473.148.081c.09-.711.078-.861-.093-1.071l.036-.458.1.052a.483.483,0,0,0,.035-.081,1.223,1.223,0,0,0,.011-.464,3.821,3.821,0,0,1-.008-.944,4.208,4.208,0,0,0-.012-.89c-.018-.153-.027-.314-.03-.472a1.869,1.869,0,0,0-.089-.645,2.516,2.516,0,0,1-.063-.923c.013-.2.033-.388.054-.63l.134.315a.853.853,0,0,0,.038-.186,6.2,6.2,0,0,1,.043-1.346,6.465,6.465,0,0,0-.02-1.473,13.308,13.308,0,0,1-.006-1.894,2.338,2.338,0,0,0,.009-.53.609.609,0,0,1,.018-.223.846.846,0,0,0,.008-.543.925.925,0,0,1-.016-.279,4.9,4.9,0,0,0-.022-.831,5.056,5.056,0,0,1-.01-.592c.006-.275.021-.548.035-.878a.867.867,0,0,0,.06-.623c-.027-.168-.057-.335-.078-.507a2.689,2.689,0,0,1-.024-.818.8.8,0,0,0-.007-.287c-.078-.242-.074-.575-.172-.8a1.465,1.465,0,0,1-.07-.5c-.013-.5.017-1-.039-1.494a.7.7,0,0,1,.022-.223,2.461,2.461,0,0,0,.025-.87,6.1,6.1,0,0,1-.011-1.3,1.843,1.843,0,0,0-.021-.585,2.386,2.386,0,0,1,.024-1.023,1.3,1.3,0,0,0,.024-.564,4.263,4.263,0,0,1,.034-1.488c.053.086.1.121.112.192.032.138.05.293.07.445.025.188.046.38.067.561.079.013.08-.1.068-.19-.045-.342-.1-.68-.148-1.018a2.035,2.035,0,0,1-.046-.274c0-.4-.021-.808.006-1.2a6.849,6.849,0,0,1,.137-1.2,1.27,1.27,0,0,0,0-.464,4.453,4.453,0,0,1,0-1.006,1.494,1.494,0,0,1,.108-.516.538.538,0,0,0,.006-.406l-.072.105c-.007-.016-.026-.038-.026-.06-.006-.48-.017-.961-.012-1.441,0-.255.032-.508.05-.778l.2-.172c-.006-.7.027-1.37.008-2.045a.684.684,0,0,1,.012-.175,1.64,1.64,0,0,0,.007-.788,1.506,1.506,0,0,1,.044-.68,4.462,4.462,0,0,0,.112-.96,2.283,2.283,0,0,1,.026-.406,3.209,3.209,0,0,0,.062-.809c0-.438.017-.876.012-1.314,0-.256-.035-.511-.052-.767a2.719,2.719,0,0,1-.021-.469,1.873,1.873,0,0,0-.092-.836,5.241,5.241,0,0,1-.174-.927,1.068,1.068,0,0,1,.032-.163,1.648,1.648,0,0,0,.036-1.041,2.5,2.5,0,0,1-.049-1.028c.024-.169.035-.349.058-.518a1.874,1.874,0,0,0,.006-.584,2.323,2.323,0,0,1,.013-.7,3.636,3.636,0,0,0,.03-.76,3.375,3.375,0,0,1,.059-.869,3.2,3.2,0,0,0,.045-.454c.013-.3.025-.594.026-.891a2.66,2.66,0,0,0-.04-.463,3.041,3.041,0,0,1,.006-1.047c.032-.2.055-.414.083-.621a9.712,9.712,0,0,0-.033-1.654A9.668,9.668,0,0,1,649,7.369a.807.807,0,0,0,.171-.045c.056-.025.11-.092.167-.11a.257.257,0,0,1,.2-.007.773.773,0,0,0,.714-.009.307.307,0,0,1,.271-.006.971.971,0,0,0,.643.043.757.757,0,0,1,.392.1c.074.027.145.092.219.125.048.021.1.045.146.015.228-.154.461-.065.692-.084a.2.2,0,0,1,.147.059c.145.131.282.181.428-.018a.126.126,0,0,1,.214,0c.165.27.337.188.5.139a.175.175,0,0,1,.233.085.142.142,0,0,0,.192.048c.174-.095.345.071.518.038.035-.007.072.086.11.121s.087.1.116.073c.12-.124.245-.047.367-.074s.248-.066.308-.434c.085.223.15.372.2.54a1.206,1.206,0,0,1,.038.279c.007.139,0,.28.007.42a2.252,2.252,0,0,0,.1.73c.1.249.106.583.18.85.045.164-.017.378.045.571a2.062,2.062,0,0,1,.045.513c0,.2-.024.393-.031.591a2.289,2.289,0,0,0,0,.415,3.131,3.131,0,0,1,0,.762,5.15,5.15,0,0,0-.014.587c.011.309-.026.626-.041.941-.01.217-.031.437-.022.651.032.757.009,1.513.012,2.269,0,.435-.035.869-.055,1.3,0,.079-.019.156-.018.234.01.66-.015,1.314-.034,1.971-.023.774-.024,1.553-.037,2.33a3.369,3.369,0,0,1-.027.351,10.876,10.876,0,0,0-.053,1.483c.009.52.015,1.041.014,1.561,0,.278-.02.554-.026.831,0,.259-.006.519-.006.779,0,.4,0,.793-.023,1.192a11.238,11.238,0,0,0,.026,1.671,3.749,3.749,0,0,1,0,.59,9.613,9.613,0,0,0-.02,1.36,3.932,3.932,0,0,1-.031.945,2.025,2.025,0,0,0-.012.584,2.345,2.345,0,0,1,0,.474,2.4,2.4,0,0,0,.006.587,1.525,1.525,0,0,1,.009.3c-.018.395-.04.788-.061,1.182a.969.969,0,0,0-.007.175,4.362,4.362,0,0,1,0,.824,7.026,7.026,0,0,0,0,1.066,1.466,1.466,0,0,1,0,.239c-.019.434-.041.867-.059,1.3a1.276,1.276,0,0,0,.1.551,2.585,2.585,0,0,0-.1.373c-.019.145,0,.317-.015.473a13.312,13.312,0,0,0-.034,1.429c.006.158.007.323.026.474a4.1,4.1,0,0,1,0,.586,12.5,12.5,0,0,0-.015,1.537,1.551,1.551,0,0,1,0,.3c-.041.467-.063.941-.089,1.414-.018.339-.03.672-.028,1.012,0,.139-.008.277-.013.416a1.027,1.027,0,0,0,0,.232,3.711,3.711,0,0,1,.036,1.043c0,.256.044.514.039.767s-.072.465-.084.733a10.751,10.751,0,0,0,0,1.544,2.686,2.686,0,0,1-.03.527,2.756,2.756,0,0,0,0,.7,2.213,2.213,0,0,1-.025.812.512.512,0,0,0-.025.162,11.744,11.744,0,0,1-.014,1.245,4.479,4.479,0,0,1-.024.89.288.288,0,0,0,0,.059,9.04,9.04,0,0,1,.006,1.357c.06.343-.034.713.04,1.057a.419.419,0,0,1-.012.169,2.686,2.686,0,0,0-.066.8c0,.139,0,.282-.018.414a2.935,2.935,0,0,0,0,.649,3.319,3.319,0,0,1,.01.528,10.266,10.266,0,0,0-.035,1.06,11.145,11.145,0,0,1-.035,1.126,5.552,5.552,0,0,0,0,.645,5.108,5.108,0,0,1-.085,1.619,2.881,2.881,0,0,0-.015.939,8.478,8.478,0,0,1,.027,1.425,1.153,1.153,0,0,0,.009.235,3.127,3.127,0,0,1-.007.649c-.028.35-.041.708-.055,1.064-.006.158,0,.32,0,.479,0,.278-.016.555-.024.832a1.819,1.819,0,0,0,0,.3,3.53,3.53,0,0,1,0,.941c-.015.151,0,.318,0,.478a11.7,11.7,0,0,1-.028,1.312c-.016.149,0,.319-.006.478-.008.216-.012.44-.037.645a7.03,7.03,0,0,0-.047.945q.016,1.5.026,3c0,.277-.018.554-.026.832,0,.179-.009.358-.009.538a10.4,10.4,0,0,1-.03,1.25,2.675,2.675,0,0,0,0,.359c0,.575,0,1.148-.032,1.719-.01.216,0,.44,0,.66,0,.237-.015.474-.023.711a1.74,1.74,0,0,0-.009.236,9.262,9.262,0,0,1-.025,1.473,8.946,8.946,0,0,0,.019,1.37,1.193,1.193,0,0,1-.009.406,3.372,3.372,0,0,0-.053.817,22.255,22.255,0,0,1-.069,2.258c-.011.135-.007.279-.006.419,0,.54.01,1.08.013,1.621,0,.418,0,.833-.022,1.252-.021.53,0,1.075.024,1.612a3.029,3.029,0,0,1-.006.467,9.237,9.237,0,0,0-.055,1.242c0,.217-.015.435-.023.653,0,.138-.011.277-.013.416-.015.932-.042,1.863-.028,2.8,0,.2-.051.41-.031.585a9.471,9.471,0,0,1-.02,1.3c0,.117,0,.236.011.352a6.359,6.359,0,0,1-.012,1.069,13.566,13.566,0,0,0-.05,1.418c0,.34,0,.68.007,1.02a3.3,3.3,0,0,1,0,.359,14.175,14.175,0,0,0-.029,1.611,10.877,10.877,0,0,1-.043,1.367c-.016.128-.009.273-.012.41,0,.117,0,.235,0,.352,0,.079-.019.158-.017.234.027.742-.029,1.473-.033,2.21,0,.238-.016.475-.023.713,0,.179-.012.358-.011.537,0,.581,0,1.162.015,1.741s-.029,1.112-.051,1.666c-.009.237-.025.473-.026.711,0,.419,0,.833-.027,1.252-.025.45,0,.918,0,1.378,0,.418,0,.833-.023,1.252-.026.45-.012.919,0,1.378a15.24,15.24,0,0,1-.1,1.85c-.059.022-.114.046-.17.062-.082.024-.164.043-.246.062-.04.01-.085.045-.121.017a.518.518,0,0,0-.4-.063,2.376,2.376,0,0,1-.989-.208.118.118,0,0,0-.049-.016,4.109,4.109,0,0,1-.918-.112c-.239-.041-.48.04-.719-.11-.054-.034-.115-.006-.173-.01a1.092,1.092,0,0,1-.62-.1.211.211,0,0,0-.148-.016,2.048,2.048,0,0,1-.964-.208c-.016-.007-.035-.024-.049-.011-.2.182-.409-.068-.612.022-.024.011-.052.026-.073.007-.231-.212-.478-.108-.713-.246-.178-.1-.269-.367-.248-.807.009-.177.028-.351.036-.529a6.78,6.78,0,0,0,.031-.883c-.028-.331.015-.634,0-.951-.009-.3-.014-.6-.007-.9.012-.476.036-.95.055-1.425l.024-.592c.007-.178.008-.359.022-.534a6.456,6.456,0,0,0-.012-1.188,6.157,6.157,0,0,1-.01-1.128,7.392,7.392,0,0,0,.024-1.177,9.494,9.494,0,0,1,.009-1.43,7.206,7.206,0,0,0,.016-1.064,8.164,8.164,0,0,1,.05-.94c.01-.2.021-.394.022-.592,0-.4-.009-.8.031-1.192.02-.188,0-.4,0-.6,0-.238.018-.475.025-.713.006-.2.021-.4.01-.595a13.706,13.706,0,0,1,.029-1.837c.022-.272.03-.551.043-.827a1.19,1.19,0,0,0,0-.179c-.054-.5,0-.992,0-1.488,0-.374.029-.751.057-1.122a5.5,5.5,0,0,0-.012-1.126c0-.019-.008-.039-.008-.057.019-.49-.047-.986.011-1.474a8.126,8.126,0,0,0,.05-1.244c-.018-.525.036-1.029.06-1.542a4.175,4.175,0,0,0,0-.591c-.077-.794-.035-1.594-.052-2.391a2.728,2.728,0,0,1,.032-.348c.058-.5.052-1.015.073-1.525.025-.615-.013-1.234.038-1.848.035-.423.022-.871.029-1.308.008-.515-.006-1.039.026-1.544.026-.42.021-.834.023-1.252,0-.6-.028-1.195.025-1.792.033-.365.026-.752.035-1.129a1.3,1.3,0,0,0-.013-.176,6.358,6.358,0,0,1,.009-1.42,7.52,7.52,0,0,0,.043-1.067,7.113,7.113,0,0,1,.027-1.012,3.808,3.808,0,0,0,.009-.417c0-.5-.008-.994.026-1.493.026-.367,0-.757,0-1.138a9.627,9.627,0,0,1,.028-1.19,2.45,2.45,0,0,0,0-.477c-.043-.478,0-.952-.009-1.428,0-.177.024-.353.025-.531a10.511,10.511,0,0,0,.024-1.182,4.023,4.023,0,0,1,.033-.7A8.684,8.684,0,0,0,648.1,72.136ZM648.7,30.7a4.337,4.337,0,0,0,.066,1.049c.013.051.053.063.08.094a.812.812,0,0,0,.027-.2C648.822,31.353,648.766,31.068,648.7,30.7Z"/><path class="cls-3" d="M695.593,72.219a5.86,5.86,0,0,0,.091-1.025c.019-.6,0-1.193-.011-1.791,0-.118.012-.235.014-.353a3.67,3.67,0,0,0,0-.535,16.681,16.681,0,0,1-.038-1.895.853.853,0,0,0,0-.172,1.583,1.583,0,0,1-.012-.833c0-.018,0-.039,0-.094a3.162,3.162,0,0,1-.263-1.289l.091-.476.15.078c.073-.713.058-.863-.118-1.069l.026-.459.1.05a.485.485,0,0,0,.033-.082,1.221,1.221,0,0,0,0-.463,3.87,3.87,0,0,1-.031-.944,4.08,4.08,0,0,0-.032-.889c-.021-.153-.034-.314-.04-.472a1.872,1.872,0,0,0-.105-.642,2.525,2.525,0,0,1-.083-.922c.008-.2.024-.389.039-.631l.142.311a.813.813,0,0,0,.033-.186,6.176,6.176,0,0,1,.012-1.347,6.5,6.5,0,0,0-.053-1.472,13.338,13.338,0,0,1-.05-1.893,2.36,2.36,0,0,0,0-.531.59.59,0,0,1,.013-.223.842.842,0,0,0,0-.543.941.941,0,0,1-.022-.279,5,5,0,0,0-.041-.83,4.794,4.794,0,0,1-.024-.591c0-.275.009-.549.015-.878a.866.866,0,0,0,.046-.624c-.031-.168-.064-.334-.09-.505a2.682,2.682,0,0,1-.042-.818.771.771,0,0,0-.015-.287c-.083-.24-.086-.574-.189-.792a1.45,1.45,0,0,1-.082-.5c-.024-.5,0-1-.074-1.493a.7.7,0,0,1,.018-.223,2.449,2.449,0,0,0,0-.871,6.166,6.166,0,0,1-.04-1.3,1.83,1.83,0,0,0-.035-.584,2.4,2.4,0,0,1,0-1.023,1.3,1.3,0,0,0,.011-.565,4.279,4.279,0,0,1,0-1.489c.055.085.1.12.116.19.035.137.057.292.081.443.029.188.054.379.079.559.08.012.078-.1.065-.191-.054-.341-.114-.677-.173-1.014a2.043,2.043,0,0,1-.051-.273c-.014-.4-.04-.807-.022-1.2a6.92,6.92,0,0,1,.109-1.2,1.282,1.282,0,0,0-.011-.465,4.4,4.4,0,0,1-.024-1.006,1.471,1.471,0,0,1,.1-.517.539.539,0,0,0,0-.407l-.07.107c-.008-.016-.027-.037-.027-.06-.017-.48-.039-.96-.045-1.439,0-.256.02-.509.032-.78l.2-.177c-.022-.7,0-1.37-.039-2.044a.7.7,0,0,1,.007-.175,1.634,1.634,0,0,0-.01-.789,1.514,1.514,0,0,1,.028-.681,4.44,4.44,0,0,0,.09-.962,2.256,2.256,0,0,1,.017-.406,3.187,3.187,0,0,0,.043-.81c-.007-.438,0-.877-.018-1.314-.009-.256-.047-.51-.069-.766a2.656,2.656,0,0,1-.032-.468,1.857,1.857,0,0,0-.111-.834,5.2,5.2,0,0,1-.2-.923,1.126,1.126,0,0,1,.029-.163,1.655,1.655,0,0,0,.012-1.042,2.485,2.485,0,0,1-.073-1.027c.021-.168.027-.349.047-.518a1.915,1.915,0,0,0-.008-.585,2.361,2.361,0,0,1,0-.7,3.756,3.756,0,0,0,.013-.761,3.328,3.328,0,0,1,.038-.869,3.123,3.123,0,0,0,.035-.455c.007-.3.012-.594.006-.892a2.645,2.645,0,0,0-.051-.462,3.048,3.048,0,0,1-.018-1.047c.027-.2.045-.415.069-.622a9.8,9.8,0,0,0-.071-1.653,9.688,9.688,0,0,1-.012-1.928.828.828,0,0,0,.169-.049c.056-.027.108-.094.165-.114a.262.262,0,0,1,.2-.012.771.771,0,0,0,.714-.025.3.3,0,0,1,.271-.011.974.974,0,0,0,.643.027.758.758,0,0,1,.394.091c.075.024.147.088.222.119.048.02.1.043.146.012.224-.159.46-.075.69-.1a.2.2,0,0,1,.148.056c.149.127.286.174.428-.028a.126.126,0,0,1,.214,0c.171.266.341.18.508.127a.175.175,0,0,1,.235.08.141.141,0,0,0,.193.043c.172-.1.346.064.518.026.035-.007.075.085.114.119s.089.1.117.07c.117-.126.244-.052.366-.082s.246-.072.3-.441c.091.221.159.369.217.535a1.245,1.245,0,0,1,.044.278c.01.139.012.28.016.42a2.244,2.244,0,0,0,.117.727c.105.248.12.581.2.847.049.162-.008.377.057.569a2.065,2.065,0,0,1,.057.512c.006.2-.014.393-.017.591a2.353,2.353,0,0,0,.012.415,3.1,3.1,0,0,1,.015.762,5,5,0,0,0,0,.587c.018.309-.012.627-.019.942,0,.217-.021.438-.008.651.05.757.044,1.513.065,2.268.011.435-.016.87-.026,1.3,0,.079-.016.157-.013.235.025.66.015,1.314.011,1.971,0,.775.012,1.553.017,2.33a3.4,3.4,0,0,1-.019.352,10.938,10.938,0,0,0-.019,1.484q.033.78.05,1.56c.006.277-.007.554-.007.831,0,.259.006.519.012.779.01.4.016.793,0,1.193a11.1,11.1,0,0,0,.065,1.669,3.634,3.634,0,0,1,.018.59,9.664,9.664,0,0,0,.011,1.36,3.991,3.991,0,0,1-.009.946,2.04,2.04,0,0,0,0,.584,2.27,2.27,0,0,1,.014.474,2.391,2.391,0,0,0,.02.586,1.691,1.691,0,0,1,.016.3c-.009.4-.022.789-.034,1.183a.866.866,0,0,0,0,.175,4.458,4.458,0,0,1,.018.824,7.041,7.041,0,0,0,.027,1.066,1.335,1.335,0,0,1,0,.238c-.009.435-.02.869-.029,1.3a1.273,1.273,0,0,0,.117.549,2.421,2.421,0,0,0-.092.375c-.017.146,0,.317,0,.474a13.336,13.336,0,0,0,0,1.428c.01.159.014.324.037.474a3.975,3.975,0,0,1,.016.586,12.332,12.332,0,0,0,.021,1.537,1.634,1.634,0,0,1,.007.3c-.03.468-.041.942-.056,1.416-.01.338-.015.672,0,1.012,0,.138,0,.277,0,.416a1.049,1.049,0,0,0,0,.232,3.7,3.7,0,0,1,.06,1.042c.007.255.055.513.057.766s-.062.466-.068.735a10.922,10.922,0,0,0,.032,1.544,2.6,2.6,0,0,1-.018.527,2.757,2.757,0,0,0,.016.7,2.221,2.221,0,0,1-.006.813.51.51,0,0,0-.022.163,11.741,11.741,0,0,1,.015,1.244,4.572,4.572,0,0,1,0,.891.232.232,0,0,0,0,.059,8.906,8.906,0,0,1,.037,1.356c.069.342-.017.714.065,1.056a.418.418,0,0,1-.008.169,2.685,2.685,0,0,0-.048.8c0,.138,0,.281-.008.414a3,3,0,0,0,.017.649,3.3,3.3,0,0,1,.023.527,10.38,10.38,0,0,0-.011,1.061,10.867,10.867,0,0,1-.01,1.127,5.541,5.541,0,0,0,.018.644,5.132,5.132,0,0,1-.048,1.621,2.877,2.877,0,0,0,.006.939,8.473,8.473,0,0,1,.06,1.424,1.232,1.232,0,0,0,.014.235,3.121,3.121,0,0,1,.008.648c-.02.351-.025.709-.03,1.065,0,.159.012.32.012.48,0,.278,0,.555,0,.832a1.788,1.788,0,0,0,0,.3,3.527,3.527,0,0,1,.023.94c-.011.151,0,.319.008.478a11.487,11.487,0,0,1,0,1.312c-.013.15.008.32.006.478,0,.217,0,.441-.023.647a7.064,7.064,0,0,0-.025.946q.051,1.5.1,3c.007.277-.006.554-.007.832,0,.179,0,.358,0,.538a10.441,10.441,0,0,1,0,1.251,3.082,3.082,0,0,0,0,.358c.019.576.023,1.148.008,1.72,0,.216.014.44.016.659,0,.238,0,.475-.007.712a1.71,1.71,0,0,0,0,.236A9.19,9.19,0,0,1,702.943,89a8.807,8.807,0,0,0,.051,1.369,1.229,1.229,0,0,1,0,.406,3.4,3.4,0,0,0-.035.818,22.077,22.077,0,0,1-.017,2.259c-.007.135,0,.279,0,.418.016.54.035,1.08.05,1.621.012.418.014.833.007,1.252-.009.53.029,1.075.061,1.611a3.168,3.168,0,0,1,0,.467,9.16,9.16,0,0,0-.027,1.244c.009.216-.006.434-.009.652,0,.139,0,.278,0,.417.007.932,0,1.863.036,2.8.007.2-.041.41-.017.585a9.39,9.39,0,0,1,.009,1.3c0,.116.01.235.019.351a6.259,6.259,0,0,1,.013,1.069,13.662,13.662,0,0,0-.017,1.419c0,.339.02.68.03,1.02a3.1,3.1,0,0,1,.007.359,14.437,14.437,0,0,0,.008,1.611,10.735,10.735,0,0,1-.011,1.367c-.013.128,0,.273,0,.41,0,.117,0,.235,0,.352,0,.079-.016.158-.011.235.044.741,0,1.473.017,2.21,0,.238,0,.475-.006.713,0,.179,0,.358,0,.538.016.58.027,1.161.056,1.739s0,1.113-.013,1.667c0,.237-.014.474-.009.711.008.419.015.833,0,1.252-.014.451.018.918.03,1.378.012.419.021.833.006,1.253-.015.451.01.919.031,1.377a15.257,15.257,0,0,1-.062,1.852c-.058.024-.113.049-.168.066-.081.026-.163.047-.244.068-.041.01-.084.047-.121.02a.519.519,0,0,0-.4-.054,2.378,2.378,0,0,1-.993-.186.129.129,0,0,0-.05-.014,4.169,4.169,0,0,1-.92-.092c-.24-.035-.479.051-.721-.093-.055-.033-.115,0-.174-.006a1.082,1.082,0,0,1-.621-.084.219.219,0,0,0-.149-.013,2.049,2.049,0,0,1-.968-.185c-.016-.006-.036-.023-.049-.01-.2.186-.411-.058-.612.036-.023.011-.051.027-.073.008-.236-.206-.48-.1-.718-.229-.181-.1-.278-.361-.266-.8,0-.177.019-.352.024-.529a6.91,6.91,0,0,0,.01-.885c-.035-.33,0-.633-.016-.95-.016-.3-.029-.6-.028-.9,0-.477.014-.951.022-1.426,0-.2.007-.4.01-.593,0-.178,0-.359.011-.534a6.543,6.543,0,0,0-.04-1.188,5.972,5.972,0,0,1-.035-1.127,7.591,7.591,0,0,0,0-1.177,9.447,9.447,0,0,1-.024-1.43,7.293,7.293,0,0,0-.008-1.064,8.311,8.311,0,0,1,.028-.941c.006-.2.012-.395.009-.593-.006-.4-.028-.8,0-1.192.015-.188-.009-.4-.009-.6,0-.238.007-.475.008-.713,0-.2.012-.4,0-.6a13.566,13.566,0,0,1-.013-1.836c.016-.273.017-.552.023-.829a1.184,1.184,0,0,0,0-.179,14.759,14.759,0,0,1-.04-1.487c-.012-.373.012-.752.032-1.122a5.567,5.567,0,0,0-.038-1.126.4.4,0,0,1-.009-.057c.008-.49-.07-.985-.023-1.474a8.181,8.181,0,0,0,.021-1.245c-.03-.524.012-1.03.025-1.543a4.3,4.3,0,0,0-.008-.591c-.1-.792-.073-1.593-.107-2.389a2.544,2.544,0,0,1,.024-.348c.046-.5.028-1.017.037-1.527.012-.615-.041-1.233,0-1.848.025-.424,0-.872,0-1.309,0-.515-.03-1.038-.01-1.544.017-.42,0-.834,0-1.252-.012-.6-.056-1.194-.016-1.792.024-.365.009-.752.009-1.13a1.5,1.5,0,0,0-.017-.175,6.37,6.37,0,0,1-.024-1.42,7.417,7.417,0,0,0,.019-1.067,7.285,7.285,0,0,1,0-1.013,3.866,3.866,0,0,0,0-.417c-.011-.5-.031-.994-.008-1.493.018-.368-.015-.758-.026-1.138a9.86,9.86,0,0,1,0-1.191,2.446,2.446,0,0,0-.007-.476c-.055-.477-.027-.952-.042-1.428-.006-.177.016-.354.013-.532a10.6,10.6,0,0,0,0-1.182,3.9,3.9,0,0,1,.017-.7A8.664,8.664,0,0,0,695.593,72.219Zm-.356-41.439a4.331,4.331,0,0,0,.09,1.048c.014.051.054.062.082.092a.894.894,0,0,0,.023-.2C695.377,31.429,695.314,31.146,695.237,30.78Z"/><path class="cls-3" d="M793.993,69.619a5.86,5.86,0,0,0,.091-1.025c.019-.6,0-1.193-.011-1.791,0-.118.012-.235.014-.353a3.67,3.67,0,0,0,0-.535,16.681,16.681,0,0,1-.038-1.9.853.853,0,0,0,0-.172,1.583,1.583,0,0,1-.012-.833c0-.018,0-.039,0-.094a3.162,3.162,0,0,1-.263-1.289l.091-.476.15.078c.073-.713.058-.863-.118-1.069l.026-.459.1.05a.485.485,0,0,0,.033-.082,1.221,1.221,0,0,0,0-.463,3.87,3.87,0,0,1-.031-.944,4.08,4.08,0,0,0-.032-.889c-.021-.153-.034-.314-.04-.472a1.872,1.872,0,0,0-.105-.642,2.525,2.525,0,0,1-.083-.922c.008-.2.024-.389.039-.631l.142.311a.813.813,0,0,0,.033-.186,6.176,6.176,0,0,1,.012-1.347,6.5,6.5,0,0,0-.053-1.472,13.338,13.338,0,0,1-.05-1.893,2.36,2.36,0,0,0,0-.531.59.59,0,0,1,.013-.223.842.842,0,0,0,0-.543.941.941,0,0,1-.022-.279,5,5,0,0,0-.041-.83,4.794,4.794,0,0,1-.024-.591c0-.275.009-.549.015-.878a.866.866,0,0,0,.046-.624c-.031-.168-.064-.334-.09-.505a2.682,2.682,0,0,1-.042-.818.771.771,0,0,0-.015-.287c-.083-.24-.086-.574-.189-.792a1.45,1.45,0,0,1-.082-.5c-.024-.5,0-1-.074-1.493a.7.7,0,0,1,.018-.223,2.449,2.449,0,0,0,0-.871,6.166,6.166,0,0,1-.04-1.3,1.83,1.83,0,0,0-.035-.584,2.4,2.4,0,0,1,0-1.023,1.3,1.3,0,0,0,.011-.565,4.279,4.279,0,0,1,0-1.489c.055.085.1.12.116.19.035.137.057.292.081.443.029.188.054.379.079.559.08.012.078-.1.065-.191-.054-.341-.114-.677-.173-1.014a2.043,2.043,0,0,1-.051-.273c-.014-.4-.04-.807-.022-1.2a6.92,6.92,0,0,1,.109-1.2,1.282,1.282,0,0,0-.011-.465,4.4,4.4,0,0,1-.024-1.006,1.471,1.471,0,0,1,.1-.517.539.539,0,0,0,0-.407l-.07.107c-.008-.016-.027-.037-.027-.06-.017-.48-.039-.96-.045-1.439,0-.256.02-.509.032-.78l.2-.177c-.022-.7,0-1.37-.039-2.044a.7.7,0,0,1,.007-.175,1.634,1.634,0,0,0-.01-.789,1.514,1.514,0,0,1,.028-.681,4.44,4.44,0,0,0,.09-.962,2.256,2.256,0,0,1,.017-.406,3.187,3.187,0,0,0,.043-.81c-.007-.438,0-.877-.018-1.314-.009-.256-.047-.51-.069-.766a2.656,2.656,0,0,1-.032-.468,1.857,1.857,0,0,0-.111-.834,5.2,5.2,0,0,1-.2-.923,1.126,1.126,0,0,1,.029-.163,1.655,1.655,0,0,0,.012-1.042,2.485,2.485,0,0,1-.073-1.027c.021-.168.027-.349.047-.518a1.915,1.915,0,0,0-.008-.585,2.361,2.361,0,0,1,0-.7,3.756,3.756,0,0,0,.013-.761,3.328,3.328,0,0,1,.038-.869,3.123,3.123,0,0,0,.035-.455c.007-.3.012-.594.006-.892a2.645,2.645,0,0,0-.051-.462,3.048,3.048,0,0,1-.018-1.047c.027-.2.045-.415.069-.622a9.8,9.8,0,0,0-.071-1.653,9.688,9.688,0,0,1-.012-1.928.828.828,0,0,0,.169-.049c.056-.027.108-.094.165-.114a.262.262,0,0,1,.2-.012.771.771,0,0,0,.714-.025.3.3,0,0,1,.271-.011.974.974,0,0,0,.643.027.758.758,0,0,1,.394.091c.075.024.147.088.222.119.048.02.1.043.146.012.224-.159.46-.075.69-.1a.2.2,0,0,1,.148.056c.149.127.286.174.428-.028a.126.126,0,0,1,.214,0c.171.266.341.18.508.127a.175.175,0,0,1,.235.08.141.141,0,0,0,.193.043c.172-.1.346.064.518.026.035-.007.075.085.114.119s.089.1.117.07c.117-.126.244-.052.366-.082s.246-.072.3-.441c.091.221.159.369.217.535a1.245,1.245,0,0,1,.044.278c.01.139.012.28.016.42a2.244,2.244,0,0,0,.117.727c.1.248.12.581.2.847.049.162-.008.377.057.569a2.065,2.065,0,0,1,.057.512c.006.2-.014.393-.017.591a2.353,2.353,0,0,0,.012.415,3.1,3.1,0,0,1,.015.762,5,5,0,0,0,0,.587c.018.309-.012.627-.019.942,0,.217-.021.438-.008.651.05.757.044,1.513.065,2.268.011.435-.016.87-.026,1.3,0,.079-.016.157-.013.235.025.66.015,1.314.011,1.971,0,.775.012,1.553.017,2.33a3.4,3.4,0,0,1-.019.352,10.938,10.938,0,0,0-.019,1.484q.033.78.05,1.56c.006.277-.007.554-.007.831,0,.259.006.519.012.779.01.4.016.793,0,1.193a11.1,11.1,0,0,0,.065,1.669,3.634,3.634,0,0,1,.018.59,9.664,9.664,0,0,0,.011,1.36,3.991,3.991,0,0,1-.009.946,2.04,2.04,0,0,0,0,.584,2.27,2.27,0,0,1,.014.474,2.391,2.391,0,0,0,.02.586,1.691,1.691,0,0,1,.016.3c-.009.395-.022.789-.034,1.183a.866.866,0,0,0,0,.175,4.458,4.458,0,0,1,.018.824,7.041,7.041,0,0,0,.027,1.066,1.335,1.335,0,0,1,0,.238c-.009.435-.02.869-.029,1.3a1.273,1.273,0,0,0,.117.549,2.421,2.421,0,0,0-.092.375c-.017.146,0,.317,0,.474a13.336,13.336,0,0,0,0,1.428c.01.159.014.324.037.474a3.975,3.975,0,0,1,.016.586,12.332,12.332,0,0,0,.021,1.537,1.634,1.634,0,0,1,.007.3c-.03.468-.041.942-.056,1.416-.01.338-.015.672,0,1.012,0,.138,0,.277,0,.416a1.049,1.049,0,0,0,0,.232,3.7,3.7,0,0,1,.06,1.042c.007.255.055.513.057.766s-.062.466-.068.735a10.922,10.922,0,0,0,.032,1.544,2.6,2.6,0,0,1-.018.527,2.757,2.757,0,0,0,.016.7,2.221,2.221,0,0,1-.006.813.51.51,0,0,0-.022.163,11.741,11.741,0,0,1,.015,1.244,4.572,4.572,0,0,1,0,.891.232.232,0,0,0,0,.059,8.906,8.906,0,0,1,.037,1.356c.069.342-.017.714.065,1.056a.418.418,0,0,1-.008.169,2.685,2.685,0,0,0-.048.8c0,.138,0,.281-.008.414a3,3,0,0,0,.017.649,3.3,3.3,0,0,1,.023.527,10.38,10.38,0,0,0-.011,1.061,10.867,10.867,0,0,1-.01,1.127,5.541,5.541,0,0,0,.018.644,5.132,5.132,0,0,1-.048,1.621,2.877,2.877,0,0,0,.006.939,8.473,8.473,0,0,1,.06,1.424,1.232,1.232,0,0,0,.014.235,3.121,3.121,0,0,1,.008.648c-.02.351-.025.709-.03,1.065,0,.159.012.32.012.48,0,.278,0,.555,0,.832a1.788,1.788,0,0,0,0,.3,3.527,3.527,0,0,1,.023.94c-.011.151,0,.319.008.478a11.487,11.487,0,0,1,0,1.312c-.013.15.008.32.006.478,0,.217,0,.441-.023.647a7.064,7.064,0,0,0-.025.946q.051,1.5.1,3c.007.277-.006.554-.007.832,0,.179,0,.358,0,.538a10.441,10.441,0,0,1,0,1.251,3.082,3.082,0,0,0,0,.358c.019.576.023,1.148.008,1.72,0,.216.014.44.016.659,0,.238,0,.475-.007.712a1.71,1.71,0,0,0,0,.236,9.19,9.19,0,0,1,.009,1.474,8.807,8.807,0,0,0,.051,1.369,1.229,1.229,0,0,1,0,.406,3.4,3.4,0,0,0-.035.818,22.077,22.077,0,0,1-.017,2.259c-.007.135,0,.279,0,.418.016.54.035,1.08.05,1.621.012.418.014.833.007,1.252-.009.53.029,1.075.061,1.611a3.168,3.168,0,0,1,0,.467,9.16,9.16,0,0,0-.027,1.244c.009.216-.006.434-.009.652,0,.139,0,.278,0,.417.007.932,0,1.863.036,2.8.007.2-.041.41-.017.585a9.39,9.39,0,0,1,.009,1.3c0,.116.01.235.019.351a6.259,6.259,0,0,1,.013,1.069,13.662,13.662,0,0,0-.017,1.419c0,.339.02.68.03,1.02a3.1,3.1,0,0,1,.007.359,14.437,14.437,0,0,0,.008,1.611,10.735,10.735,0,0,1-.011,1.367c-.013.128,0,.273,0,.41,0,.117,0,.235,0,.352,0,.079-.016.158-.011.235.044.741,0,1.473.017,2.21,0,.238,0,.475-.006.713,0,.179,0,.358,0,.538.016.58.027,1.161.056,1.739s0,1.113-.013,1.667c0,.237-.014.474-.009.711.008.419.015.833,0,1.252-.014.451.018.918.03,1.378.012.419.021.833.006,1.253-.015.451.01.919.031,1.377a15.257,15.257,0,0,1-.062,1.852c-.058.024-.113.049-.168.066-.081.026-.163.047-.244.068-.041.01-.084.047-.121.02a.519.519,0,0,0-.4-.054,2.378,2.378,0,0,1-.993-.186.129.129,0,0,0-.05-.014,4.169,4.169,0,0,1-.92-.092c-.24-.035-.479.051-.721-.093-.055-.033-.115,0-.174-.006a1.082,1.082,0,0,1-.621-.084.219.219,0,0,0-.149-.013,2.049,2.049,0,0,1-.968-.185c-.016-.006-.036-.023-.049-.01-.2.186-.411-.058-.612.036-.023.011-.051.027-.073.008-.236-.206-.48-.1-.718-.229-.181-.1-.278-.361-.266-.8,0-.177.019-.352.024-.529a6.91,6.91,0,0,0,.01-.885c-.035-.33,0-.633-.016-.95-.016-.3-.029-.6-.028-.9,0-.477.014-.951.022-1.426,0-.2.007-.4.01-.593,0-.178,0-.359.011-.534a6.543,6.543,0,0,0-.04-1.188,5.972,5.972,0,0,1-.035-1.127,7.591,7.591,0,0,0,0-1.177,9.447,9.447,0,0,1-.024-1.43,7.293,7.293,0,0,0-.008-1.064,8.311,8.311,0,0,1,.028-.941c.006-.2.012-.4.009-.593-.006-.4-.028-.8,0-1.192.015-.188-.009-.4-.009-.6,0-.238.007-.475.008-.713,0-.2.012-.4,0-.6a13.566,13.566,0,0,1-.013-1.836c.016-.273.017-.552.023-.829a1.184,1.184,0,0,0,0-.179,14.759,14.759,0,0,1-.04-1.487c-.012-.373.012-.752.032-1.122a5.567,5.567,0,0,0-.038-1.126.4.4,0,0,1-.009-.057c.008-.49-.07-.985-.023-1.474a8.181,8.181,0,0,0,.021-1.245c-.03-.524.012-1.03.025-1.543a4.3,4.3,0,0,0-.008-.591c-.1-.792-.073-1.593-.107-2.389a2.544,2.544,0,0,1,.024-.348c.046-.5.028-1.017.037-1.527.012-.615-.041-1.233,0-1.848.025-.424,0-.872,0-1.309,0-.515-.03-1.038-.01-1.544.017-.42,0-.834,0-1.252-.012-.6-.056-1.194-.016-1.792.024-.365.009-.752.009-1.13a1.5,1.5,0,0,0-.017-.175,6.37,6.37,0,0,1-.024-1.42,7.417,7.417,0,0,0,.019-1.067,7.285,7.285,0,0,1,0-1.013,3.866,3.866,0,0,0,0-.417c-.011-.5-.031-.994-.008-1.493.018-.368-.015-.758-.026-1.138a9.86,9.86,0,0,1,0-1.191,2.446,2.446,0,0,0-.007-.476c-.055-.477-.027-.952-.042-1.428-.006-.177.016-.354.013-.532a10.6,10.6,0,0,0,0-1.182,3.9,3.9,0,0,1,.017-.7A8.664,8.664,0,0,0,793.993,69.619Zm-.356-41.439a4.331,4.331,0,0,0,.09,1.048c.014.051.054.062.082.092a.894.894,0,0,0,.023-.2C793.777,28.829,793.714,28.546,793.637,28.18Z"/><path class="cls-3" d="M749.5,61.677a5.86,5.86,0,0,0-.091,1.025c-.019.6,0,1.193.011,1.791,0,.118-.013.235-.015.353a3.812,3.812,0,0,0,0,.535,16.916,16.916,0,0,1,.038,1.895.853.853,0,0,0,0,.172,1.583,1.583,0,0,1,.012.833c0,.019,0,.039,0,.095a3.157,3.157,0,0,1,.263,1.288l-.091.476-.15-.078c-.074.714-.058.863.118,1.069l-.026.459-.1-.05a.485.485,0,0,0-.033.082,1.221,1.221,0,0,0,0,.463,3.87,3.87,0,0,1,.03.944,4.153,4.153,0,0,0,.033.89c.021.152.034.313.04.471a1.872,1.872,0,0,0,.1.642,2.5,2.5,0,0,1,.084.922c-.008.2-.024.389-.039.631l-.142-.311a.813.813,0,0,0-.033.186,6.174,6.174,0,0,1-.013,1.347,6.5,6.5,0,0,0,.054,1.472,13.194,13.194,0,0,1,.049,1.893,2.422,2.422,0,0,0,0,.531.59.59,0,0,1-.013.223.842.842,0,0,0,0,.543.941.941,0,0,1,.022.279,5,5,0,0,0,.041.83,5.222,5.222,0,0,1,.024.591c0,.275-.009.549-.016.879a.871.871,0,0,0-.045.624c.031.167.064.333.09.505a2.678,2.678,0,0,1,.042.818.8.8,0,0,0,.014.287c.084.239.087.573.19.791a1.45,1.45,0,0,1,.082.5c.024.5,0,1,.073,1.493a.7.7,0,0,1-.017.223,2.449,2.449,0,0,0,0,.871,6.168,6.168,0,0,1,.041,1.3,1.838,1.838,0,0,0,.035.585,2.394,2.394,0,0,1,0,1.022,1.3,1.3,0,0,0-.011.565,4.256,4.256,0,0,1,0,1.489.717.717,0,0,1-.116-.19c-.034-.137-.057-.292-.08-.443-.029-.188-.054-.379-.079-.559-.08-.012-.078.1-.065.191.054.341.114.678.172,1.015a1.887,1.887,0,0,1,.052.272c.014.4.04.807.022,1.2a6.94,6.94,0,0,1-.109,1.2,1.255,1.255,0,0,0,.011.464,4.454,4.454,0,0,1,.024,1.006,1.5,1.5,0,0,1-.1.518.536.536,0,0,0,0,.406l.07-.107c.007.016.026.037.027.06.017.48.039.96.045,1.439,0,.256-.02.509-.032.78l-.2.177c.022.7,0,1.37.039,2.044a.651.651,0,0,1-.008.175,1.646,1.646,0,0,0,.011.789,1.513,1.513,0,0,1-.028.681,4.44,4.44,0,0,0-.09.962,2.369,2.369,0,0,1-.017.407,3.177,3.177,0,0,0-.043.809c.007.438,0,.877.018,1.315.009.255.046.51.069.765a2.663,2.663,0,0,1,.032.468,1.857,1.857,0,0,0,.111.834,5.115,5.115,0,0,1,.2.923,1.027,1.027,0,0,1-.028.164,1.644,1.644,0,0,0-.012,1.041,2.5,2.5,0,0,1,.073,1.027c-.021.169-.027.349-.047.518a1.914,1.914,0,0,0,.008.585,2.361,2.361,0,0,1,0,.7,3.685,3.685,0,0,0-.013.761,3.372,3.372,0,0,1-.038.869,3.126,3.126,0,0,0-.035.456c-.007.3-.012.593-.006.891a2.553,2.553,0,0,0,.051.462,3.048,3.048,0,0,1,.018,1.047c-.027.2-.046.415-.069.622a9.8,9.8,0,0,0,.071,1.653,9.688,9.688,0,0,1,.012,1.928.828.828,0,0,0-.169.049c-.056.027-.108.094-.165.114a.262.262,0,0,1-.2.012.771.771,0,0,0-.714.025.308.308,0,0,1-.271.012.968.968,0,0,0-.643-.028.754.754,0,0,1-.395-.091c-.074-.024-.147-.088-.221-.119-.048-.02-.1-.043-.146-.012-.225.159-.46.076-.691.1a.2.2,0,0,1-.147-.055c-.149-.128-.286-.175-.428.027a.126.126,0,0,1-.214,0c-.171-.267-.341-.181-.508-.128a.175.175,0,0,1-.235-.08.142.142,0,0,0-.193-.043c-.172.1-.346-.064-.519-.026-.034.008-.074-.085-.113-.119s-.089-.1-.117-.07c-.117.126-.245.052-.366.082s-.246.072-.3.441c-.091-.221-.159-.369-.217-.535a1.182,1.182,0,0,1-.044-.278c-.011-.139-.012-.28-.017-.42a2.224,2.224,0,0,0-.116-.727c-.105-.248-.12-.581-.2-.847-.049-.162.008-.377-.058-.569a2.016,2.016,0,0,1-.056-.512c-.006-.2.014-.393.017-.591a2.353,2.353,0,0,0-.012-.415,3.046,3.046,0,0,1-.015-.762,5.223,5.223,0,0,0,0-.587c-.018-.309.012-.627.019-.942,0-.217.021-.438.007-.651-.049-.756-.043-1.513-.064-2.268-.012-.435.015-.87.026-1.3,0-.079.016-.157.013-.235-.026-.659-.015-1.314-.011-1.971,0-.774-.012-1.553-.017-2.33a3.4,3.4,0,0,1,.019-.352,11.1,11.1,0,0,0,.019-1.484q-.033-.78-.05-1.56c-.006-.277.007-.554.007-.831,0-.259-.006-.519-.012-.779-.01-.4-.016-.793,0-1.193a11.228,11.228,0,0,0-.065-1.669,3.634,3.634,0,0,1-.018-.59,9.664,9.664,0,0,0-.011-1.36,3.939,3.939,0,0,1,.009-.946,2.04,2.04,0,0,0,0-.584,2.263,2.263,0,0,1-.014-.473,2.4,2.4,0,0,0-.02-.587,1.6,1.6,0,0,1-.016-.3c.009-.395.022-.789.034-1.183a.946.946,0,0,0,0-.175,4.449,4.449,0,0,1-.018-.823,7.051,7.051,0,0,0-.027-1.067,1.335,1.335,0,0,1,0-.238c.009-.435.02-.869.029-1.3a1.275,1.275,0,0,0-.117-.549,2.672,2.672,0,0,0,.092-.375c.016-.146,0-.317,0-.473a13.355,13.355,0,0,0,0-1.429c-.01-.159-.014-.323-.037-.474a3.972,3.972,0,0,1-.016-.586,12.733,12.733,0,0,0-.021-1.537,1.472,1.472,0,0,1-.007-.3c.03-.468.041-.942.056-1.416.01-.338.014-.672,0-1.011,0-.139,0-.278,0-.417a1.049,1.049,0,0,0,0-.232,3.7,3.7,0,0,1-.06-1.042c-.007-.255-.055-.513-.057-.766s.062-.466.068-.735a10.922,10.922,0,0,0-.032-1.544,2.6,2.6,0,0,1,.017-.527,2.713,2.713,0,0,0-.015-.7,2.221,2.221,0,0,1,.006-.813.534.534,0,0,0,.022-.162,11.5,11.5,0,0,1-.015-1.245,4.572,4.572,0,0,1,0-.891.188.188,0,0,0,0-.058,9.053,9.053,0,0,1-.037-1.357c-.068-.341.017-.714-.065-1.056a.418.418,0,0,1,.009-.169,2.685,2.685,0,0,0,.048-.8,4.058,4.058,0,0,1,.008-.414,2.941,2.941,0,0,0-.018-.649,3.422,3.422,0,0,1-.022-.527,10.38,10.38,0,0,0,.011-1.061,11.132,11.132,0,0,1,.009-1.126,5.339,5.339,0,0,0-.017-.645,5.1,5.1,0,0,1,.048-1.621,2.9,2.9,0,0,0-.006-.939,8.473,8.473,0,0,1-.06-1.424,1.232,1.232,0,0,0-.014-.235,3.054,3.054,0,0,1-.008-.648c.02-.351.024-.709.03-1.065,0-.158-.012-.32-.012-.48,0-.278,0-.555,0-.832a1.788,1.788,0,0,0,0-.3,3.485,3.485,0,0,1-.023-.94c.011-.151,0-.318-.009-.478a11.965,11.965,0,0,1,0-1.312c.013-.15-.007-.319,0-.478,0-.217,0-.44.023-.647a7.064,7.064,0,0,0,.025-.946q-.051-1.5-.1-3c-.007-.277,0-.554.007-.832,0-.179,0-.358,0-.538a10.655,10.655,0,0,1,0-1.251,3.078,3.078,0,0,0,0-.358c-.02-.576-.024-1.148-.009-1.72.006-.216-.014-.44-.015-.659,0-.238,0-.475.007-.712a1.71,1.71,0,0,0,0-.236,9.19,9.19,0,0,1-.009-1.474,8.807,8.807,0,0,0-.051-1.369,1.2,1.2,0,0,1,0-.405,3.4,3.4,0,0,0,.035-.818,21.812,21.812,0,0,1,.017-2.26c.007-.135,0-.279,0-.418-.016-.54-.035-1.08-.05-1.62-.012-.419-.014-.834-.007-1.253.009-.53-.029-1.075-.061-1.611a3.168,3.168,0,0,1,0-.467,9.149,9.149,0,0,0,.027-1.243c-.01-.216.006-.435.008-.653,0-.139,0-.278,0-.417-.006-.932,0-1.863-.035-2.8-.008-.2.041-.41.017-.585a9.389,9.389,0,0,1-.009-1.3c0-.116-.01-.235-.02-.351A6.362,6.362,0,0,1,742,26.261a13.647,13.647,0,0,0,.017-1.418c-.006-.34-.02-.68-.031-1.021,0-.12-.016-.246-.007-.358a14.217,14.217,0,0,0-.007-1.612,10.555,10.555,0,0,1,.011-1.367c.013-.128,0-.273,0-.41,0-.117-.006-.235,0-.352,0-.079.015-.158.011-.235-.044-.741,0-1.472-.017-2.21,0-.238,0-.475.006-.713,0-.179,0-.358,0-.537-.016-.58-.027-1.162-.055-1.74s0-1.112.013-1.667c0-.237.014-.474.009-.711-.008-.419-.015-.833,0-1.252.015-.451-.017-.918-.03-1.378-.011-.419-.02-.833-.006-1.253.016-.45-.009-.918-.03-1.377a15.069,15.069,0,0,1,.061-1.852c.059-.023.114-.049.169-.066.081-.026.163-.046.244-.068.041-.01.084-.047.121-.02a.514.514,0,0,0,.4.054,2.4,2.4,0,0,1,.993.186.114.114,0,0,0,.049.014,4.163,4.163,0,0,1,.92.092c.24.035.48-.051.721.093.056.033.116,0,.174.006.207.011.414-.051.622.084a.219.219,0,0,0,.149.013,2.049,2.049,0,0,1,.968.185c.016.007.036.023.049.01.2-.186.411.058.611-.036.024-.011.052-.027.074-.008.235.206.48.1.718.229.181.1.277.361.266.8,0,.178-.019.352-.024.53a6.9,6.9,0,0,0-.01.884c.035.33,0,.633.016.95.016.3.029.6.028.9,0,.476-.014.95-.022,1.425,0,.2-.007.4-.01.593,0,.179,0,.359-.011.534a6.543,6.543,0,0,0,.04,1.188,6.144,6.144,0,0,1,.035,1.127,7.468,7.468,0,0,0,0,1.177,9.447,9.447,0,0,1,.024,1.43,7.293,7.293,0,0,0,.008,1.064,8.311,8.311,0,0,1-.028.941c-.006.2-.012.395-.009.593,0,.4.028.8,0,1.192-.015.188.009.4.009.6,0,.238-.007.474-.009.712,0,.2-.011.4,0,.6a13.58,13.58,0,0,1,.013,1.837c-.016.272-.017.551-.024.828a1.329,1.329,0,0,0,0,.179c.066.5.023.991.04,1.487.012.374-.012.752-.032,1.123a5.486,5.486,0,0,0,.038,1.125.4.4,0,0,1,.009.057c-.008.49.07.985.023,1.474a8.181,8.181,0,0,0-.021,1.245c.03.524-.012,1.03-.025,1.543a4.144,4.144,0,0,0,.008.591c.1.792.073,1.593.107,2.389a2.559,2.559,0,0,1-.024.349c-.046.5-.028,1.016-.038,1.526-.011.616.042,1.233,0,1.848-.025.424,0,.872,0,1.309,0,.515.029,1.038.01,1.544-.017.421,0,.834,0,1.252.012.6.056,1.194.016,1.792-.024.365-.009.752-.009,1.13a1.518,1.518,0,0,0,.017.176,6.36,6.36,0,0,1,.023,1.419,7.566,7.566,0,0,0-.018,1.067,7.285,7.285,0,0,1,0,1.013,3.624,3.624,0,0,0,0,.417c.01.5.031.994.007,1.493-.017.368.016.758.027,1.138a9.86,9.86,0,0,1,0,1.191,2.446,2.446,0,0,0,.007.476c.055.477.027.952.042,1.428,0,.177-.016.354-.013.532a10.6,10.6,0,0,0,0,1.182,3.9,3.9,0,0,1-.017.7A8.664,8.664,0,0,0,749.5,61.677Zm.356,41.439a4.331,4.331,0,0,0-.09-1.048c-.014-.05-.054-.062-.082-.092a.839.839,0,0,0-.023.2C749.714,102.467,749.777,102.75,749.854,103.116Z"/><path class="cls-1" d="M116.305,87.35l-.071,2.879H97V87.35l7.442-.07L98.121,73.1H78.885l-3.37,7.793V87.35h6.108v2.879H64.071V87.35h5.056L86.818,47.543,85.2,43.893l.421-1.544h5.687l20.218,45ZM96.366,69.027l-7.933-17.9-7.793,17.9Z"/><path class="cls-1" d="M137.852,45.227h-3.511l.07-2.878h17.482v2.878l-7.021.07L161.02,81.8l11.864-29.557.421-7.02h-8.986V42.349h19.166v2.878h-4.072l-18.815,45H157.86Z"/><path class="cls-1" d="M253.9,87.35l-.071,2.879H234.589V87.35l7.441-.07L235.712,73.1H216.476l-3.37,7.793V87.35h6.108v2.879H201.662V87.35h5.055l17.692-39.807-1.615-3.65.421-1.544H228.9l20.219,45ZM233.957,69.027l-7.933-17.9-7.793,17.9Z"/><path class="cls-1" d="M322.34,39.54V57.092h-3.861V47.613L313.424,45.3h-11.3V87.35h6.529v2.879H289.274V87.35h6.458V45.3H280.006l-4.7,2.036v9.759h-3.861V39.54H275.3v2.809h43.177V39.54Z"/><path class="cls-1" d="M393.664,87.35l-.071,2.879H374.357V87.35l7.442-.07L375.481,73.1H356.244l-3.37,7.793V87.35h6.108v2.879H341.431V87.35h5.054l17.692-39.807-1.614-3.65.42-1.544h5.687l20.22,45ZM373.725,69.027l-7.933-17.9L358,69.027Z"/><path class="cls-1" d="M465.968,83.91c-.351,4.914-4.142,7.021-8.565,7.021-6.178,0-8.635-3.721-8.635-11.234,0-7.862-3.23-11.793-10.18-11.793h-6.107V87.35h5.826v2.879H419.633V87.35h6.458V45.227h-6.458V42.349h11.232l15.235-.281c9.478,0,13.76,6.038,13.76,11.373,0,7.512-6.669,12.988-16.779,13.269v.421c7.723.491,11.514,5.195,12.707,11.8,1.054,5.9,1.966,8.424,4.7,8.424a2.546,2.546,0,0,0,2.809-2.808l-.422-11.8h3.861ZM442.8,65.025c7.091,0,9.549-5.476,9.549-10.25,0-5.055-2.668-9.9-11.3-9.9h-8.564V65.025Z"/><path class="cls-2" d="M610.391,87.35l-.071,2.879H591.084V87.35l7.442-.07L592.208,73.1H572.971L569.6,80.892V87.35h6.107v2.879H558.158V87.35h5.055L580.9,47.543l-1.614-3.65.421-1.544H585.4l20.219,45ZM590.452,69.027l-7.933-17.9-7.792,17.9Z"/><path class="cls-2" d="M609.052,45.227h-3.51l.07-2.878h17.482v2.878l-7.021.07L632.22,81.8l11.865-29.557.421-7.02H635.52V42.349h19.166v2.878h-4.072l-18.815,45h-2.738Z"/><path class="cls-2" d="M702.211,87.35l-.07,2.879H682.9V87.35l7.443-.07L684.028,73.1H664.792l-3.37,7.793V87.35h6.107v2.879H649.978V87.35h5.055l17.692-39.807-1.615-3.65.421-1.544h5.687l20.219,45ZM682.273,69.027l-7.934-17.9-7.792,17.9Z"/><path class="cls-2" d="M747.771,39.54V57.092h-3.862V47.613L738.855,45.3h-11.3V87.35h6.529v2.879H714.7V87.35h6.458V45.3H705.437l-4.7,2.036v9.759h-3.862V39.54h3.862v2.809h43.176V39.54Z"/><path class="cls-2" d="M796.209,87.35l-.07,2.879H776.9V87.35l7.442-.07L778.025,73.1H758.789l-3.369,7.793V87.35h6.107v2.879H743.976V87.35h5.055l17.692-39.807-1.615-3.65.421-1.544h5.687l20.219,45ZM776.271,69.027l-7.934-17.9-7.792,17.9Z"/><path class="cls-2" d="M845.628,83.91c-.351,4.914-4.142,7.021-8.564,7.021-6.179,0-8.636-3.721-8.636-11.234,0-7.862-3.23-11.793-10.18-11.793h-6.107V87.35h5.826v2.879H799.293V87.35h6.459V45.227h-6.459V42.349h11.232l15.235-.281c9.478,0,13.761,6.038,13.761,11.373,0,7.512-6.67,12.988-16.78,13.269v.421c7.723.491,11.514,5.195,12.707,11.8,1.054,5.9,1.966,8.424,4.7,8.424a2.546,2.546,0,0,0,2.809-2.808l-.422-11.8H846.4ZM822.461,65.025c7.09,0,9.548-5.476,9.548-10.25,0-5.055-2.668-9.9-11.3-9.9h-8.564V65.025Z"/></svg>