<svg xmlns="http://www.w3.org/2000/svg" viewBox="0 0 952 257.931"><defs><style>.cls-1{fill:#f36;}.cls-2{fill:#1858a8;}</style></defs><title>manuale_ill_nuove</title><g id="Livello_1" data-name="Livello 1"><path class="cls-1" d="M364.985,27.557v9.855h-2.339V27.9c0-2.105-.859-2.964-2.6-2.964a7.173,7.173,0,0,0-4.16,1.352V37.412h-2.34V16.091h2.34v6.241l-.208,2.235a7.051,7.051,0,0,1,4.654-1.742C363.633,22.825,364.985,24.515,364.985,27.557Z"/><path class="cls-1" d="M364.673,59.225l-.129,9.387h-1.951V66.9a6.745,6.745,0,0,1-5.018,2c-2.86-.026-4.472-1.534-4.472-3.926,0-2.757,2.834-3.978,9.178-4.472l.027-1.014c.026-1.82-.182-3.355-3.017-3.355a11.251,11.251,0,0,0-4.992,1.222l-.624-1.949a12.559,12.559,0,0,1,5.8-1.379C364.18,54.025,364.7,56.418,364.673,59.225ZM362.2,65.31l.052-2.912c-4.784.39-6.812,1.066-6.812,2.522,0,1.2.832,1.9,2.444,1.923A6.387,6.387,0,0,0,362.2,65.31Z"/><path class="cls-1" d="M365.454,98.954a10.542,10.542,0,0,1-4.915,1.118c-3.9,0-4.6-2.132-4.55-5.2l.156-7.281h-3.51v-2.08h3.536l.078-3.38h2.418l-.442,3.38h6.709v2.08h-6.4l-.156,7.021c-.052,1.82.183,3.354,2.236,3.354A9.325,9.325,0,0,0,364.83,97Z"/><path class="cls-1" d="M431.285,238.156v9.854h-2.34v-9.516c0-2.106-.858-2.964-2.6-2.964a7.166,7.166,0,0,0-4.16,1.352V248.01h-2.341V226.689h2.341v6.24l-.208,2.237a7.047,7.047,0,0,1,4.654-1.743C429.933,233.423,431.285,235.114,431.285,238.156Z"/><path class="cls-1" d="M447.873,238.624l-.13,9.386h-1.95V246.3a6.752,6.752,0,0,1-5.019,2c-2.86-.027-4.472-1.535-4.472-3.926,0-2.757,2.834-3.979,9.179-4.473l.026-1.014c.026-1.82-.182-3.354-3.017-3.354a11.238,11.238,0,0,0-4.992,1.222l-.624-1.95a12.562,12.562,0,0,1,5.8-1.379C447.379,233.423,447.9,235.816,447.873,238.624Zm-2.471,6.085.053-2.912c-4.785.389-6.812,1.065-6.812,2.521,0,1.2.832,1.9,2.444,1.924A6.394,6.394,0,0,0,445.4,244.709Z"/><path class="cls-1" d="M465.552,247.152a10.525,10.525,0,0,1-4.914,1.118c-3.9,0-4.6-2.132-4.55-5.2l.156-7.28h-3.51v-2.08h3.536l.078-3.38h2.418l-.442,3.38h6.708v2.08h-6.4l-.156,7.02c-.052,1.821.182,3.355,2.236,3.355a9.331,9.331,0,0,0,4.212-.962Z"/><path class="cls-2" d="M499.352,237.87v2.548l-12.48,5.617v-2.549l10.348-4.212v-.26l-10.348-4.186v-2.574Z"/><path class="cls-1" d="M537.884,238.156v9.854h-2.34v-9.516c0-2.106-.858-2.964-2.6-2.964a7.164,7.164,0,0,0-4.16,1.352V248.01h-2.341V226.689h2.341v6.24l-.208,2.237a7.047,7.047,0,0,1,4.654-1.743C536.532,233.423,537.884,235.114,537.884,238.156Z"/><path class="cls-1" d="M554.472,238.624l-.13,9.386h-1.95V246.3a6.755,6.755,0,0,1-5.019,2c-2.86-.027-4.472-1.535-4.472-3.926,0-2.757,2.834-3.979,9.179-4.473l.026-1.014c.025-1.82-.183-3.354-3.017-3.354a11.235,11.235,0,0,0-4.992,1.222l-.624-1.95a12.56,12.56,0,0,1,5.8-1.379C553.978,233.423,554.5,235.816,554.472,238.624ZM552,244.709l.052-2.912c-4.784.389-6.813,1.065-6.813,2.521,0,1.2.832,1.9,2.445,1.924A6.4,6.4,0,0,0,552,244.709Z"/><path class="cls-1" d="M572.412,240.314c0,5.721-2.835,7.956-7.1,7.956a16.034,16.034,0,0,1-5.123-.754V226.689h2.34v6.24l-.208,2.211a7.018,7.018,0,0,1,4.655-1.717C570.514,233.45,572.412,235.92,572.412,240.314Zm-2.367.26c0-3.25-1.144-5.018-3.354-5.044a6.986,6.986,0,0,0-4.16,1.352V245.8a10.9,10.9,0,0,0,2.964.365C568.642,246.165,570.045,244.293,570.045,240.574Z"/><path class="cls-1" d="M589.259,245.93v2.08H576.883v-2.08h5.278V235.79h-5.278v-2.08H584.5v12.22Zm-8.528-16.9a2.34,2.34,0,1,1,2.34,2.34A2.331,2.331,0,0,1,580.731,229.03Z"/><path class="cls-1" d="M605.951,247.152a10.525,10.525,0,0,1-4.914,1.118c-3.9,0-4.6-2.132-4.55-5.2l.156-7.28h-3.51v-2.08h3.536l.078-3.38h2.418l-.442,3.38h6.708v2.08h-6.4l-.156,7.02c-.052,1.821.182,3.355,2.236,3.355a9.331,9.331,0,0,0,4.212-.962Z"/><path class="cls-2" d="M466.464,24.412h17.161v2.105H466.464Zm0,6.24h17.161v2.1H466.464Z"/><path class="cls-2" d="M488.564,24.412h13v2.105h-13Zm0,6.24h13v2.1h-13Z"/><path class="cls-2" d="M466.464,55.611h17.161v2.106H466.464Zm0,6.24h17.161v2.107H466.464Z"/><path class="cls-2" d="M488.564,55.611h13v2.106h-13Zm0,6.24h13v2.107h-13Z"/><path class="cls-2" d="M490.254,89.672V92.22l-12.48,5.616V95.288l10.348-4.212v-.26L477.774,86.63V84.055Z"/><path class="cls-1" d="M572.985,27.557v9.855h-2.339V27.9c0-2.105-.859-2.964-2.6-2.964a7.173,7.173,0,0,0-4.16,1.352V37.412h-2.34V16.091h2.34v6.241l-.208,2.235a7.051,7.051,0,0,1,4.654-1.742C571.633,22.825,572.985,24.515,572.985,27.557Z"/><path class="cls-1" d="M572.673,59.225l-.129,9.387h-1.951V66.9a6.745,6.745,0,0,1-5.018,2c-2.86-.026-4.472-1.534-4.472-3.926,0-2.757,2.834-3.978,9.178-4.472l.027-1.014c.026-1.82-.182-3.355-3.017-3.355a11.251,11.251,0,0,0-4.992,1.222l-.624-1.949a12.559,12.559,0,0,1,5.8-1.379C572.18,54.025,572.7,56.418,572.673,59.225ZM570.2,65.31l.052-2.912c-4.784.39-6.812,1.066-6.812,2.522,0,1.2.832,1.9,2.444,1.923A6.387,6.387,0,0,0,570.2,65.31Z"/><path class="cls-1" d="M573.713,92.116c0,5.72-2.834,7.956-7.1,7.956a16.032,16.032,0,0,1-5.122-.754V78.492h2.34v6.24l-.208,2.21a7.017,7.017,0,0,1,4.654-1.717C571.816,85.252,573.713,87.721,573.713,92.116Zm-2.365.26c0-3.25-1.145-5.018-3.355-5.044a6.984,6.984,0,0,0-4.16,1.351V97.6a10.9,10.9,0,0,0,2.964.364C569.943,97.966,571.348,96.094,571.348,92.376Z"/><path class="cls-1" d="M573.662,128.931v2.08H561.285v-2.08h5.279v-10.14h-5.279v-2.08H568.9v12.22Zm-8.529-16.9a2.341,2.341,0,1,1,2.34,2.34A2.33,2.33,0,0,1,565.133,112.031Z"/><path class="cls-1" d="M573.454,161.353a10.529,10.529,0,0,1-4.915,1.118c-3.9,0-4.6-2.131-4.55-5.2l.156-7.28h-3.51v-2.08h3.536l.078-3.38h2.418l-.442,3.38h6.709v2.08h-6.4l-.156,7.02c-.052,1.821.183,3.355,2.236,3.355a9.338,9.338,0,0,0,4.213-.962Z"/></g><g id="solo_testo" data-name="solo testo"><path class="cls-2" d="M387.5,18.977l-1.69,5.616c-1.456,4.758-2.626,8.918-3.823,13.547l-3.25-.78c.832-3.406,2.028-7.956,3.146-11.883l-2.236-.389v-.13l4.68-6.6v.156l.027-.1Z"/><path class="cls-2" d="M402.79,24.593c0,6.292-4.212,12.819-9.283,13.989l-4.784-1.43a18.056,18.056,0,0,1-.832-5.643c0-7.7,4.68-13.364,10.842-13.364a14.4,14.4,0,0,1,2.029.156l.78,2.834,1.092.079C402.712,22.019,402.79,23.631,402.79,24.593Zm-3.328-.7a20.654,20.654,0,0,0-.209-2.7c-4.419.052-7.722,4.446-7.722,10.557a16.306,16.306,0,0,0,.624,4.784C395.848,35.358,399.462,30.158,399.462,23.891Z"/><path class="cls-2" d="M417.9,33.98,414,33.9c-.338,1.352-.7,2.729-1.092,4.238l-3.2-.78c.312-1.248.6-2.393.858-3.511-1.144-.025-2.314-.025-3.432-.025-1.534,0-2.964.025-4.134.052l.052-2.237c2.184-3.067,5.46-7.982,7.9-11.258h3.25c.234-.832.494-1.69.78-2.625l3.458.675c-1.742,5.565-2.782,9.256-3.718,12.741,1.4-.052,2.73-.1,3.926-.1ZM411.187,31.3c.78-3.042,1.586-6.11,2.86-10.4-2.6,3.588-5.408,7.332-7.7,10.608C407.833,31.458,409.5,31.38,411.187,31.3Z"/><path class="cls-2" d="M399.4,56.21c0,6.864-5.044,11.726-11.545,13.52l-2.158-2.782c4.16-.884,7.1-2.808,8.684-5.408A6.734,6.734,0,0,1,390.53,63c-2.054,0-4.238-1.821-3.848-5.59.338-3.173,2.08-6.345,6.526-8.347l5.3,1.742A16.025,16.025,0,0,1,399.4,56.21Zm-3.666.286a17.223,17.223,0,0,0-.754-5.122,8.127,8.127,0,0,0-4.6,5.8c-.312,2.339.546,3.509,1.612,3.509a5.363,5.363,0,0,0,3.3-1.17A10.307,10.307,0,0,0,395.731,56.5Z"/><path class="cls-2" d="M415.776,49.891c-5.486,6.813-10.01,13.391-12.9,19.683L400.2,68.56a66.8,66.8,0,0,1,8.892-15.236c-2.73.025-5.122.1-7.67.26l.936-3.433C406.728,49.969,410.862,49.865,415.776,49.891Z"/><path class="cls-2" d="M391.649,81.378l-1.69,5.616c-1.456,4.758-2.627,8.918-3.823,13.547l-3.25-.781c.832-3.406,2.028-7.956,3.146-11.882l-2.236-.39v-.13l4.681-6.6v.156l.026-.1Z"/><path class="cls-2" d="M400.826,81.378l-1.69,5.616c-1.456,4.758-2.626,8.918-3.821,13.547l-3.251-.781c.832-3.406,2.028-7.956,3.146-11.882l-2.236-.39v-.13l4.68-6.6v.156l.026-.1Z"/><path class="cls-2" d="M414.139,92.376c-.338,3.172-2.08,6.344-6.527,8.346l-5.3-1.742a16.02,16.02,0,0,1-.884-5.408c0-6.864,5.044-11.727,11.545-13.521l2.158,2.783c-4.161.883-7.1,2.807-8.685,5.408a6.737,6.737,0,0,1,3.849-1.456C412.345,86.786,414.528,88.606,414.139,92.376Zm-5.3-3.277a5.374,5.374,0,0,0-3.3,1.171,10.313,10.313,0,0,0-.442,3.016,17.223,17.223,0,0,0,.754,5.122,8.128,8.128,0,0,0,4.6-5.8C410.758,90.27,409.9,89.1,408.835,89.1Z"/><path class="cls-2" d="M595.5,18.977l-1.69,5.616c-1.456,4.758-2.626,8.918-3.823,13.547l-3.25-.78c.832-3.406,2.028-7.956,3.146-11.883l-2.236-.389v-.13l4.68-6.6v.156l.027-.1Z"/><path class="cls-2" d="M610.79,24.593c0,6.292-4.212,12.819-9.283,13.989l-4.784-1.43a18.056,18.056,0,0,1-.832-5.643c0-7.7,4.68-13.364,10.842-13.364a14.4,14.4,0,0,1,2.029.156l.78,2.834,1.092.079C610.712,22.019,610.79,23.631,610.79,24.593Zm-3.328-.7a20.654,20.654,0,0,0-.209-2.7c-4.419.052-7.722,4.446-7.722,10.557a16.306,16.306,0,0,0,.624,4.784C603.848,35.358,607.462,30.158,607.462,23.891Z"/><path class="cls-2" d="M625.9,33.98,622,33.9c-.338,1.352-.7,2.729-1.092,4.238l-3.2-.78c.312-1.248.6-2.393.858-3.511-1.144-.025-2.314-.025-3.432-.025-1.534,0-2.964.025-4.134.052l.052-2.237c2.184-3.067,5.46-7.982,7.9-11.258h3.25c.234-.832.494-1.69.78-2.625l3.458.675c-1.742,5.565-2.782,9.256-3.718,12.741,1.4-.052,2.73-.1,3.926-.1ZM619.187,31.3c.78-3.042,1.586-6.11,2.86-10.4-2.6,3.588-5.408,7.332-7.7,10.608C615.833,31.458,617.5,31.38,619.187,31.3Z"/><path class="cls-2" d="M607.4,56.21c0,6.864-5.044,11.726-11.545,13.52l-2.158-2.782c4.16-.884,7.1-2.808,8.684-5.408A6.734,6.734,0,0,1,598.53,63c-2.054,0-4.238-1.821-3.848-5.59.338-3.173,2.08-6.345,6.526-8.347l5.305,1.742A16.025,16.025,0,0,1,607.4,56.21Zm-3.666.286a17.223,17.223,0,0,0-.754-5.122,8.127,8.127,0,0,0-4.6,5.8c-.312,2.339.546,3.509,1.612,3.509a5.363,5.363,0,0,0,3.3-1.17A10.307,10.307,0,0,0,603.731,56.5Z"/><path class="cls-2" d="M623.776,49.891c-5.486,6.813-10.01,13.391-12.9,19.683L608.2,68.56a66.8,66.8,0,0,1,8.892-15.236c-2.73.025-5.122.1-7.67.26l.936-3.433C614.728,49.969,618.862,49.865,623.776,49.891Z"/><path class="cls-2" d="M605.941,87.41c0,6.864-5.044,11.726-11.544,13.52l-2.159-2.782c4.161-.884,7.1-2.808,8.684-5.408a6.731,6.731,0,0,1-3.848,1.456c-2.053,0-4.238-1.82-3.848-5.59.339-3.173,2.08-6.345,6.527-8.347l5.3,1.743A16.016,16.016,0,0,1,605.941,87.41Zm-3.667.286a17.253,17.253,0,0,0-.753-5.122,8.126,8.126,0,0,0-4.6,5.8c-.312,2.34.545,3.509,1.611,3.509a5.37,5.37,0,0,0,3.3-1.169A10.318,10.318,0,0,0,602.274,87.7Z"/><path class="cls-2" d="M618.212,92.194c1.457,1.456,1.977,2.392,1.977,3.666,0,2.912-3.068,5.174-6.865,5.174-4.082,0-6.968-1.9-6.968-4.758,0-2.73,2.288-4.186,5.174-5.486l-.467-.468a4.377,4.377,0,0,1-1.431-3.276,5.79,5.79,0,0,1,2.887-4.706h3.562a28.038,28.038,0,0,0-2.419-1.613l3.147-1.846c2.834,1.586,4.992,4.083,4.992,6.527,0,2.548-1.742,4.809-4.29,6.084Zm-4.082,6.76a5.573,5.573,0,0,0,2.549-.624,3.558,3.558,0,0,0,.156-1.248,3.381,3.381,0,0,0-1.274-2.548c-.989-.988-1.951-1.82-2.834-2.653-1.561.885-2.653,2.029-2.653,3.771C610.074,98.018,611.66,98.954,614.13,98.954ZM613.143,86.4c0,.493.155.987.987,1.9.442.494,1.3,1.274,2.185,2.08a5.926,5.926,0,0,0,1.768-4.109,4.475,4.475,0,0,0-1.456-3.431C614.442,83.9,613.143,85.148,613.143,86.4Z"/><path class="cls-2" d="M596.386,112.577l-1.691,5.616c-1.456,4.758-2.626,8.918-3.822,13.547l-3.25-.78c.832-3.407,2.028-7.956,3.147-11.883l-2.237-.39v-.13l4.68-6.6v.156l.026-.1Z"/><path class="cls-2" d="M611.674,118.193c0,6.292-4.212,12.818-9.282,13.988l-4.784-1.429a18.03,18.03,0,0,1-.833-5.643c0-7.7,4.68-13.364,10.843-13.364a14.412,14.412,0,0,1,2.028.156l.78,2.834,1.092.078C611.6,115.619,611.674,117.231,611.674,118.193Zm-3.328-.7a20.816,20.816,0,0,0-.208-2.7c-4.421.052-7.723,4.446-7.723,10.556a16.313,16.313,0,0,0,.624,4.785C604.732,128.958,608.346,123.757,608.346,117.491Z"/><path class="cls-2" d="M619.837,115.229l-1.638,3.978a15.6,15.6,0,0,1,2.808-.416c2.236,0,4.654,1.066,4.654,4.134,0,3.64-3.2,7.592-6.786,9.464l-5.434-1.794a20.952,20.952,0,0,1-.624-5.148c0-.468,0-1.144.026-1.378h3.25a20.913,20.913,0,0,0,.78,6.162c2.834-1.689,4.966-4.342,4.966-6.656,0-2.235-2.08-2.5-3.328-2.5a20.315,20.315,0,0,0-3.9.364l-.1-.26,2.314-5.746c-.65.052-1.326.13-2.028.208l.91-3.146a63.068,63.068,0,0,1,7.514-.443c1.639,0,2.912.053,3.927.105l-.781,3.094c-.883-.026-2.08-.1-3.692-.1C621.839,115.151,620.877,115.176,619.837,115.229Z"/><path class="cls-2" d="M599.649,143.777l-1.69,5.616c-1.456,4.758-2.627,8.918-3.823,13.546l-3.25-.779c.832-3.406,2.028-7.957,3.146-11.883l-2.236-.39v-.13l4.681-6.6v.156l.026-.1Z"/><path class="cls-2" d="M608.826,143.777l-1.69,5.616c-1.456,4.758-2.626,8.918-3.821,13.546l-3.251-.779c.832-3.406,2.028-7.957,3.146-11.883l-2.236-.39v-.13l4.68-6.6v.156l.026-.1Z"/><path class="cls-2" d="M622.139,154.775c-.338,3.172-2.08,6.345-6.527,8.347l-5.3-1.742a16.029,16.029,0,0,1-.884-5.409c0-6.864,5.044-11.726,11.545-13.52l2.158,2.782c-4.161.884-7.1,2.808-8.685,5.408a6.737,6.737,0,0,1,3.849-1.456C620.345,149.185,622.528,151.006,622.139,154.775Zm-5.3-3.275a5.366,5.366,0,0,0-3.3,1.17,10.3,10.3,0,0,0-.442,3.015,17.223,17.223,0,0,0,.754,5.122,8.128,8.128,0,0,0,4.6-5.8C618.758,152.67,617.9,151.5,616.835,151.5Z"/></g></svg>