<svg xmlns="http://www.w3.org/2000/svg" viewBox="0 0 952 236.372"><defs><style>.cls-1{fill:#f36;}.cls-2{fill:#ffeded;}.cls-3{fill:#1858a8;}</style></defs><title>manuale_ill_nuove</title><g id="Livello_1" data-name="Livello 1"><path class="cls-1" d="M552.574,27.162a8.384,8.384,0,0,1,5.147-2.06,12.8,12.8,0,0,0,4.364-1.211,8.818,8.818,0,0,1,5.288-.916c1.14.174,2.477-.421,3.472.378.109.088.519-.012.763-.088.377-.116.829-.473,1.079-.4,1.419.394,2.4-.431,3.569-.82,1.378-.459,2.653-1.523,4.248-.808.337-.524.5-1.038.909-1.327.308-.218.935-.146,1.419-.208,2.36-.3,4.593.172,6.962.378.509-.405,1.011-.806,1.483-1.183a11.9,11.9,0,0,0,2.742-.173c2.378-.729,4.553-.084,6.8.051a2.565,2.565,0,0,1,.949.473c.236.128.506.423.683.381,2.229-.534,4.835.851,6.668-1.228a7.739,7.739,0,0,0,1.856.592c1.065.061,1.554-.7,2.216-1.4,2.877.816,5.829.164,8.832-.458a4.142,4.142,0,0,1,.549.5,1.635,1.635,0,0,0,2,.589,1.391,1.391,0,0,1,1.046.112c1.008,1.088,2.454.736,3.839.594.3-.031.636-.247.873-.192,3.125.72,6.419-.117,9.6.113,1.588.114,3.223-.419,4.841-.117,1.086.2,2.257.2,2.207,1.438,0,.121.207.345.315.337,1.735-.125,1.931,1.074,2.487,1.881,2.838.071,5.546.154,8.259.192a5.744,5.744,0,0,0,1.775-.247A15.485,15.485,0,0,1,663.4,21.7c1.81-.142,3.6-.534,4.768-1.934.927.008,1.247.865,2.342.766a7.516,7.516,0,0,1,3.993.77,3.277,3.277,0,0,0,1.734.182c.987-.144,1.428.411,2.057.722a38.263,38.263,0,0,1,7.864-.769c2.025-.731,4.3-.312,6.207-.942a9.987,9.987,0,0,1,5.816.059,8.7,8.7,0,0,0,3.524.136c.7-.112,1.421-.173,2.117-.318a5.143,5.143,0,0,1,3.438.329c2.374,1.108,5.161.99,7.909.815a14.006,14.006,0,0,0,2.112-.347,9.206,9.206,0,0,1,7.255,1.236,4.846,4.846,0,0,0,1.8.729c1.414.217,1.885,1.335,3.02,1.761,1.03.387,2.325.3,3.059,1.227a8.8,8.8,0,0,0,2.088,1.565,2.061,2.061,0,0,0,1.033.353,5.5,5.5,0,0,1,3.962,1.809c1.4,1.386,3.413,1.946,5.324,2.67a8.7,8.7,0,0,1,1.357.422c2.216,1.366,4.76,2.449,6.3,4.41.205.261.558.494.607.779a2.483,2.483,0,0,0,2.336,2.352c.28.043.668.5.605.721-.489,1.7.855,2.871,1.685,4.1a39.438,39.438,0,0,1,3.78,7.344,7.989,7.989,0,0,1,.365,1.388,28.912,28.912,0,0,0,1.038,3.912,12.866,12.866,0,0,1,.757,5.9c-.039.318-.214.8-.022.928,1.439.962.72,2.528,1.442,3.7a3.132,3.132,0,0,1-.39,3.906,7.086,7.086,0,0,0-1.766,4.84,2.1,2.1,0,0,1-.935,1.739,2.222,2.222,0,0,0-.694,2.923,9.123,9.123,0,0,1,.527,1.093,2.436,2.436,0,0,1-.219,2.342,5.141,5.141,0,0,0-.836,2.811,11.652,11.652,0,0,1-1.171,4.49c-.635,1.252-1.042,2.592-1.638,3.887-.589,1.28-.419,2.734-.977,4.026a10.513,10.513,0,0,0-.827,5.676,1.538,1.538,0,0,1-.147.952c-1.077,1.859-1.323,3.91-2.642,5.717a4.02,4.02,0,0,0-.709,1.613,9.941,9.941,0,0,1-3.279,5.464,2.107,2.107,0,0,0-.7,2.037,17.24,17.24,0,0,1,.346,3.087,6.187,6.187,0,0,1-1.671,4.392,16.2,16.2,0,0,0-6,2.913,14.249,14.249,0,0,1-3.939,2.429,1.431,1.431,0,0,0-.665.494,8.244,8.244,0,0,1-3.994,2.617,25.846,25.846,0,0,0-3.125,1.626c-2.476,1.37-4.939,2.757-7.629,4.26a14.059,14.059,0,0,1-4.006,4.4,4.733,4.733,0,0,0-.9,1.008c-1.184,1.358-1.537,1.593-3.9,2.562a3.849,3.849,0,0,0-1.253-.372,16.044,16.044,0,0,1-4.873-.94,5.362,5.362,0,0,0-2.059-.14,24.75,24.75,0,0,1-4.54.329,6.842,6.842,0,0,0-2.66.5,8.51,8.51,0,0,1-3.554.516c-1.5-.042-3.028.12-4.543.22a3.521,3.521,0,0,0-.869.241c-.285.1-.551.24-.837.337-1.419.484-3.107.724-4.191,1.5-1.148.823-2.316,1.628-3.4,2.387-2.1-.119-4.107-.122-6.046-.371-2.518-.323-5.2-.21-7.487-1.227a3.278,3.278,0,0,0-1.427-.26,7.537,7.537,0,0,1-3.552-.2.982.982,0,0,0-.589-.01,7.413,7.413,0,0,1-5.408-.622,10.2,10.2,0,0,0-3.156-.6,11.033,11.033,0,0,1-4.308-.788,2.059,2.059,0,0,0-1.4-.066,4.605,4.605,0,0,1-2.659.119,17.8,17.8,0,0,0-5.4-.158,11.9,11.9,0,0,1-4.433-.378,19.521,19.521,0,0,0-3.493-.594,24.571,24.571,0,0,1-5.018-.593,5.093,5.093,0,0,0-2.083.052,12.318,12.318,0,0,1-5.017-.234,83.806,83.806,0,0,0-14.363-2.115c-3.008-.133-5.965-.584-9.05-.282a5.06,5.06,0,0,1-2.608-.373c-1.893-1.01-3.866-.548-5.833-.076-1.865.447-3.688,1.038-5.524,1.578a2.76,2.76,0,0,1-2.047-.028,5.1,5.1,0,0,0-4.806-.287,1.708,1.708,0,0,1-1.181.059c-1.605-.818-3.686-.6-5.318-1.3a3.158,3.158,0,0,0-2.574.012,17.273,17.273,0,0,1-5.5.96c-1.2-1.77-3.268-2.287-5.64-2.023a34.007,34.007,0,0,1-2.761-3.077c-1.171-1.675-3.515-2.163-5.177-3.327a1.018,1.018,0,0,0-.538-.18c-2.628.007-4.335-1.309-6.2-2.405a4.718,4.718,0,0,0-1.487-.731,7.207,7.207,0,0,1-4.759-3.235,10.237,10.237,0,0,0-3.473-3.381,4.931,4.931,0,0,1-1.482-1.693,3.622,3.622,0,0,0-1.969-1.649,5.059,5.059,0,0,1-3.655-3.969c-.51-2.17-2.014-3.664-3.836-5.051a2.271,2.271,0,0,1-1.008-1.357,8.259,8.259,0,0,0-2.188-4.284c-.282-.294-.323-.732-.526-1.083s-.357-.8-.722-.969c-2.136-.959-1.869-2.761-1.608-4.229a22.386,22.386,0,0,0,.015-5.924,19.281,19.281,0,0,1-.234-4.771,4.24,4.24,0,0,0-.789-2.976,9.849,9.849,0,0,1-1.178-7.882c.288-1.27.349-2.558.582-3.834a8.869,8.869,0,0,1,.632-2.126,4.127,4.127,0,0,0,.35-3.082c-.571-1.723.028-3.509-.06-5.256a1.523,1.523,0,0,1,.548-1.1,6.121,6.121,0,0,0,2.128-4.933c.019-.4-.137-.9.118-1.175,1.153-1.225.841-2.648,1.372-3.929.893-2.152,1.3-4.417,2.9-6.427.828-1.04,1.306-2.237,2.071-3.311.869-1.219,1.943-2.356,2.815-3.574a40.711,40.711,0,0,0,2.507-3.931,1.487,1.487,0,0,0-.468-1.983,3,3,0,0,1-.868-1.153,1.009,1.009,0,0,1,.893-1.36c1.58-.266,2.985-1.292,4.7-.944,1.976-.6,4.23-.769,5.461-2.5a1.608,1.608,0,0,1,.852-.658c2.4-.378,3.9-2.189,6.249-2.676.591-.122,1.078-.743,1.578-1.161a8.641,8.641,0,0,1,6.322-2.088C551.8,27.191,552,27.173,552.574,27.162Z"/><path class="cls-1" d="M291.638,102.907a22.748,22.748,0,0,0-1.11,5.122,8.527,8.527,0,0,1-.68,2.913,9.089,9.089,0,0,0-.8,3.457,3.739,3.739,0,0,1-.924,2.571,17.252,17.252,0,0,0-3.75,7.264,4.605,4.605,0,0,1-1.077,1.94,17.935,17.935,0,0,0-1.837,3.056c-.447.826-.806,1.7-1.224,2.542a1.744,1.744,0,0,1-.444.6,11.336,11.336,0,0,0-2.678,3.357,6.214,6.214,0,0,1-.726.864,12.224,12.224,0,0,1-1.492,1.689c-1.631,1.292-2.826,3.007-4.378,4.368a4.814,4.814,0,0,0-.576.479,15.635,15.635,0,0,1-7,4.534c-2.177.807-4.537,1.071-6.575,2.263a.9.9,0,0,1-.531.177c-1.875-.347-3.384.67-4.969,1.346-1.093.466-2.09,1.162-3.191,1.6a11.613,11.613,0,0,0-2.738,1.627c-1.2.916-2.432,1.789-3.686,2.626a6.081,6.081,0,0,1-1.689.793,8.206,8.206,0,0,0-3.993,3,5.048,5.048,0,0,1-2.209,1.655,15.122,15.122,0,0,0-2.882,1.386,3.508,3.508,0,0,1-3.226.576.919.919,0,0,0-.559-.011c-1.621.491-3.351.521-4.935,1.175a4.422,4.422,0,0,1-1.093.251c-.745.1-1.494.18-2.242.251a1.408,1.408,0,0,1-.74-.026c-1.1-.6-2.343-.282-3.489-.572-.667-.17-1.354-.262-2.024-.424a1.07,1.07,0,0,1-.636-.343c-1.21-2.026-3.234-2.14-5.25-2.279-.439-.03-.883-.011-1.322-.046a35.487,35.487,0,0,1-4.5-.42,9.4,9.4,0,0,1-3.8-1.51,5.91,5.91,0,0,0-5.72-.871c-.535.189-1.063.4-1.589.607a2.952,2.952,0,0,1-2.722-.2,13.526,13.526,0,0,0-4.556-1.734,1.393,1.393,0,0,1-1.1-.635c-.787-1.4-2.32-1.639-3.585-2.262a4.581,4.581,0,0,0-1.755-.036,1.806,1.806,0,0,0-1.187-1.449,1.522,1.522,0,0,1-.9-1.154,3.549,3.549,0,0,0-.989-1.575c-1.082-1.217-1.937-2.645-3.348-3.552-.912-1.633-2.79-2.342-3.763-3.932a1.488,1.488,0,0,0-.938-.544,1.614,1.614,0,0,1-1.416-1.561,5.2,5.2,0,0,0-1.734-3.242,16.055,16.055,0,0,1-1.112-1.5,13.885,13.885,0,0,0-1.964-1.984.4.4,0,0,0-.172-.076c-.876-.245-1.091-1.2-1.757-1.649a11.992,11.992,0,0,1-1.93-1.148,6.012,6.012,0,0,1-1.348-3.053,28.819,28.819,0,0,0-.894-3.66,10.856,10.856,0,0,1-.754-2.107c-.036-.248-.2-.528-.131-.73a4.471,4.471,0,0,0-.294-2.935,1.557,1.557,0,0,1,.016-.919,3.08,3.08,0,0,0-.778-3.128,47.929,47.929,0,0,1-3.389-5.184,3.1,3.1,0,0,1-.386-1.394,17.737,17.737,0,0,0-.668-4.261,8.7,8.7,0,0,1-.257-2.418,3.915,3.915,0,0,0-.446-2.183,1.694,1.694,0,0,1-.24-.893c-.024-2.066-.306-4.107-.526-6.155a9.542,9.542,0,0,1,.04-1.118c0-.377.135-.85-.041-1.115-.705-1.063-.394-2.15-.277-3.261a4.015,4.015,0,0,0-.2-1.482,3.938,3.938,0,0,1,.029-2.228c.391-1.389.695-2.8,1.09-4.193a3.261,3.261,0,0,0-.045-2.033c-.638-1.837-.412-3.738-.39-5.621a2.328,2.328,0,0,1,.235-.894c.52-1.141,1.068-2.269,1.6-3.4.508-1.08.982-2.176,2.253-2.611a1.375,1.375,0,0,0,.817-.978,11.93,11.93,0,0,0,.715-3.109,6.079,6.079,0,0,1,1.727-4.048,12.633,12.633,0,0,0,2.752-4.187,4.632,4.632,0,0,1,2-2.419,7.525,7.525,0,0,0,2.132-2.087,22.329,22.329,0,0,1,2.16-3.235c.478-.463.53-1.366.855-2.3,1.285-.683,1.682-2.105,1.825-3.694l-.512-.435a8.311,8.311,0,0,0,2.822-3.655,7.272,7.272,0,0,1,1.371-2.213c.931-1.03,1.622-2.217,2.483-3.286.157-.2.242-.473.434-.61.555-.4,1.177-.7,1.716-1.115a12.039,12.039,0,0,1,1.531-1.347,3.109,3.109,0,0,0,1.628-1.562c.614,0,1.174,0,1.734,0a3.9,3.9,0,0,0,2.489-.628,4.007,4.007,0,0,1,3.3-.391,5.266,5.266,0,0,0,2.783-.015,7.388,7.388,0,0,1,1.315-.09,1.906,1.906,0,0,0,.913-.173,7.58,7.58,0,0,1,2.805-1.032,1.526,1.526,0,0,0,.782-.47,2.61,2.61,0,0,1,2.139-.987,6.3,6.3,0,0,0,1.818-.41,12.123,12.123,0,0,1,3.481-.756,18.686,18.686,0,0,0,3.295-.712c.427-.1.838-.264,1.261-.383,1.873-.526,3.754-1.027,5.619-1.581a3.856,3.856,0,0,1,2.035-.191,2.818,2.818,0,0,0,1.1.005,5.4,5.4,0,0,1,3.833.524c.521.3,1.264.227,1.781.533a5.064,5.064,0,0,0,3.622.379,29.363,29.363,0,0,0,3.368-.371,3.355,3.355,0,0,1,1.679.073,4.424,4.424,0,0,0,3.944-.619.913.913,0,0,1,1.545.651A3.08,3.08,0,0,0,233.821,21a14.12,14.12,0,0,1,2.877,2.116,4.869,4.869,0,0,0,2.926,1.115,3.461,3.461,0,0,1,1.956.591,3.194,3.194,0,0,0,2.138.581q.662,0,1.324,0a2.833,2.833,0,0,1,.939.044,21.189,21.189,0,0,0,2.4,1.026c.783.193,1.648.087,2.332.625a5.08,5.08,0,0,0,2.651.893,6.414,6.414,0,0,1,3.668,1.664,5.138,5.138,0,0,0,2.97,1.483,6.237,6.237,0,0,1,4.406,2.276,1.7,1.7,0,0,0,1.478.676c1.547-.071,2.487,1.045,3.58,1.839.213.154.242.562.3.71,1.329.8,2.557,1.533,3.766,2.292a2.279,2.279,0,0,1,.662.668,3.5,3.5,0,0,0,2.059,1.822.455.455,0,0,1,.289.228c.491,1.241,1.627,1.441,2.742,1.648.77,1.176,1.715,2.208,1.756,3.7a1.7,1.7,0,0,0,.342.861,1.58,1.58,0,0,1,.171,1.433,3.288,3.288,0,0,0,.3,2.551,3.377,3.377,0,0,1,.271,1.644c-.071,3.02,2.658,4.987,5,5.2.435.039.871.07,1.324.107a4.4,4.4,0,0,1,.87,2.85,7.2,7.2,0,0,0,.832,3.632,9.82,9.82,0,0,1,.679,2.342c.14.609.209,1.235.288,1.857a2.133,2.133,0,0,1,.027.927,11.843,11.843,0,0,0-.279,3.562,3.56,3.56,0,0,0,.766,2.457Z"/><path class="cls-2" d="M589.771,113.151V116.5H566.017v-3.353h7.546V87.628c0-4.937-3.726-8.2-9.036-8.2A16.672,16.672,0,0,0,552.6,84.46v28.691h7.545V116.5H536.4v-3.353h8.384V56.515l-9.315,4.472-1.3-3.82L552.6,50.554V82.411c4.191-4.937,9.687-8.849,15.835-8.849,8.384,0,12.948,4.75,12.948,12.575v27.014Z"/><path class="cls-2" d="M615.105,117.529c-11.644,0-19.469-7.452-19.469-21.8,0-13.88,9.129-22.17,19.375-22.17,10.62,0,17.792,7.545,17.792,17.326H602.622c-.279,12.761,6.521,19.841,14.625,19.841,6.055,0,11.644-2.888,13.041-10.34h2.422C632.431,110.822,625.444,117.529,615.105,117.529Zm8.849-29.622c0-5.682-2.608-10.9-10.247-10.9-6.241,0-10.433,4.937-10.9,10.9Z"/><path class="cls-2" d="M655.064,50.554v62.6h8.383V116.5H638.855v-3.353h8.384V56.515l-9.315,4.472-1.3-3.82Z"/><path class="cls-2" d="M683.286,50.554v62.6h8.383V116.5H667.078v-3.353h8.383V56.515l-9.315,4.472-1.3-3.82Z"/><path class="cls-2" d="M741.6,94.614c0,14.531-10.9,22.915-22.636,22.915-11.83,0-21.145-8.849-21.145-21.238,0-14.532,10.8-22.729,22.543-22.729C732.374,73.562,741.6,82.132,741.6,94.614Zm-8.849,3.819c0-13.041-5.59-21.983-14.159-21.983-6.894,0-11.924,5.961-11.924,16.3,0,12.948,5.776,21.611,14.252,21.611C727.9,114.362,732.747,108.773,732.747,98.433Z"/><path class="cls-2" d="M247.619,111.064v3.353H223.865v-3.353h7.545V85.54c0-4.937-3.726-8.2-9.035-8.2a16.671,16.671,0,0,0-11.924,5.03v28.691H218v3.353H194.243v-3.353h8.384V54.428L193.311,58.9l-1.3-3.819,18.444-6.614V80.324c4.192-4.937,9.688-8.85,15.836-8.85,8.384,0,12.948,4.751,12.948,12.576v27.014Z"/><path class="cls-2" d="M220.7,115.442c-11.644,0-19.468-7.453-19.468-21.8,0-13.879,9.128-22.17,19.375-22.17,10.619,0,17.792,7.545,17.792,17.326H208.216c-.28,12.762,6.52,19.842,14.625,19.842,6.054,0,11.643-2.888,13.041-10.34H238.3C238.024,108.735,231.038,115.442,220.7,115.442Zm8.849-29.622c0-5.683-2.608-10.9-10.246-10.9-6.241,0-10.433,4.937-10.9,10.9Z"/><path class="cls-2" d="M224.843,48.466v62.6h8.384v3.353H208.635v-3.353h8.384V54.428L207.7,58.9l-1.3-3.819Z"/><path class="cls-2" d="M224.843,48.466v62.6h8.384v3.353H208.635v-3.353h8.383V54.428L207.7,58.9,206.4,55.08Z"/><path class="cls-2" d="M241.7,92.526c0,14.532-10.9,22.916-22.636,22.916-11.83,0-21.145-8.85-21.145-21.239,0-14.532,10.805-22.729,22.542-22.729C232.482,71.474,241.7,80.044,241.7,92.526Zm-8.85,3.819c0-13.04-5.589-21.983-14.159-21.983-6.893,0-11.923,5.962-11.923,16.3,0,12.949,5.775,21.611,14.252,21.611C228.01,112.274,232.854,106.685,232.854,96.345Z"/></g><g id="solo_testo" data-name="solo testo"><path class="cls-3" d="M167.108,202.237c-2.621,5.96-5.243,16.008-6.771,21.874l-3.683-.842c.906-4.525,4.026-16.539,6.4-22.093Zm.905-2.9-3.744-1.092a41.8,41.8,0,0,1,3.057-7.333l3.745,1.154A67.584,67.584,0,0,0,168.013,199.335Z"/><path class="cls-3" d="M184.362,203.2a77.6,77.6,0,0,0-4.555,15.229l-3.963-.625a47.306,47.306,0,0,1,1.435-6.366,61.5,61.5,0,0,1-7.3,6.866l-2.4-1.342.031-.031-1.03-.593c1.436-5.087,3-9.862,4.306-15.228l3.963.873c-.967,3.994-2.184,8.02-3.369,11.734,2.87-2.591,5.46-5.305,7.675-7.74q.75-1.918,1.5-3.744Z"/><path class="cls-3" d="M191.912,204.577a4.7,4.7,0,0,0-1.56.219c0,1.154.717,2.028,1.684,3.182,1.717,2.123,3.339,3.652,3.339,5.524,0,2.465-3.713,4.743-6.927,4.743a8.052,8.052,0,0,1-5.18-1.748l1.092-3.37a12.285,12.285,0,0,0,7.271,2c-.219-1.279-1.685-2.621-2.715-3.9-1.747-2.184-2.371-3.308-2.371-4.65,0-2.371,3.307-5.336,6.583-5.336a10.96,10.96,0,0,1,4.837,1.093l-1.061,3.807A10.148,10.148,0,0,0,191.912,204.577Z"/><path class="cls-3" d="M209.977,204.172c-1.217.094-2.434.156-3.651.156a124.863,124.863,0,0,0-4.088,13.168l-3.619-.78c.624-2.621,1.622-7.052,3.37-12.482-1.279-.093-2.372-.187-3.058-.281l.468-2.4c1,.062,2.184.125,3.432.156.749-2.153,1.623-4.432,2.59-6.8l4.213,1.28c-.843,1.872-1.591,3.712-2.309,5.554,1-.062,2.028-.125,3.276-.25Z"/><path class="cls-3" d="M229.54,205.764c0,5.46-2.372,11.732-9.986,13.667l-1.03-3.527c5.711-1.528,6.959-5.835,7.053-10.765-2.777,2.9-7.084,7.864-9.018,10.047l-2.871-1.5c1.4-3.276,5.18-15.758,6.709-21.094l3.963,1.373c-1.311,4.025-3.246,10.3-5.086,14.6a45.13,45.13,0,0,1,6.989-7.582c.718.437,1.779,1,3.09,1.685A21.226,21.226,0,0,1,229.54,205.764Z"/><path class="cls-3" d="M242.362,194.405a152.588,152.588,0,0,0-8.175,23.091l-3.651-.78a146.994,146.994,0,0,1,7.645-23.9Z"/><path class="cls-3" d="M254,207.729a56.628,56.628,0,0,0-3.745,10.7l-3.557-.781a35.379,35.379,0,0,1,1.5-5.4,48.735,48.735,0,0,1-6.085,5.71c-.717-.437-1.466-.78-2.746-1.436a15.022,15.022,0,0,1-.25-3.151c0-5.149,3.776-11.515,12.544-13.043l.874,3.65c-6.865,1.248-9.517,5.743-9.611,10.329,2.435-2.215,5.992-5.8,8.207-8.113Z"/><path class="cls-3" d="M259.208,213.876a11.21,11.21,0,0,0,.063,1.56,21.983,21.983,0,0,0,6.834-2.371l-.344,2.684a11.109,11.109,0,0,1-6.3,2.434c-2.309,0-4.4-1.373-4.4-4.931,0-5.991,4.587-11.983,10.61-11.983a5.214,5.214,0,0,1,3.4,1.093l-.842,3.12a5.928,5.928,0,0,0-2.466-.592C261.455,204.89,259.208,210.038,259.208,213.876Z"/><path class="cls-3" d="M280.425,213.127c.094,2.059.25,3.62.531,5.8l-4.275.467a75.24,75.24,0,0,1-.406-7.832,7.393,7.393,0,0,0,5.648-7.489c-2.309,2.247-5.648,4.868-9.174,9.236l-1.373,4.4-3.745-.812c1.779-5.928,5.492-17.381,7.583-24.09l3.963,1.373c-1.841,6.4-3.183,9.581-4.587,13.325,2.434-2.5,4.9-4.837,6.646-6.522l4.276,1.248A9.008,9.008,0,0,1,280.425,213.127Z"/><path class="cls-3" d="M551.569,205.764c0,5.46-2.371,11.732-9.985,13.667l-1.029-3.527c5.71-1.528,6.958-5.835,7.052-10.765-2.777,2.9-7.083,7.864-9.018,10.047l-2.871-1.5c1.4-3.276,5.18-15.758,6.709-21.094l3.963,1.373c-1.311,4.025-3.245,10.3-5.086,14.6a45.172,45.172,0,0,1,6.989-7.582c.718.437,1.779,1,3.09,1.685A21.386,21.386,0,0,1,551.569,205.764Z"/><path class="cls-3" d="M564.393,194.405a152.481,152.481,0,0,0-8.176,23.091l-3.651-.78a146.994,146.994,0,0,1,7.645-23.9Z"/><path class="cls-3" d="M576.03,207.729a56.628,56.628,0,0,0-3.745,10.7l-3.557-.781a35.262,35.262,0,0,1,1.5-5.4,48.666,48.666,0,0,1-6.085,5.71c-.718-.437-1.467-.78-2.746-1.436a15.022,15.022,0,0,1-.249-3.151c0-5.149,3.775-11.515,12.544-13.043l.874,3.65c-6.866,1.248-9.518,5.743-9.612,10.329,2.434-2.215,5.991-5.8,8.207-8.113Z"/><path class="cls-3" d="M581.238,213.876a11.21,11.21,0,0,0,.063,1.56,21.983,21.983,0,0,0,6.834-2.371l-.344,2.684a11.111,11.111,0,0,1-6.3,2.434c-2.309,0-4.4-1.373-4.4-4.931,0-5.991,4.587-11.983,10.609-11.983a5.215,5.215,0,0,1,3.4,1.093l-.843,3.12a5.917,5.917,0,0,0-2.465-.592C583.485,204.89,581.238,210.038,581.238,213.876Z"/><path class="cls-3" d="M602.455,213.127c.094,2.059.25,3.62.53,5.8l-4.274.467a75.24,75.24,0,0,1-.406-7.832,7.393,7.393,0,0,0,5.648-7.489c-2.309,2.247-5.648,4.868-9.174,9.236l-1.373,4.4-3.745-.812c1.78-5.928,5.492-17.381,7.583-24.09l3.963,1.373c-1.841,6.4-3.183,9.581-4.587,13.325,2.434-2.5,4.9-4.837,6.647-6.522l4.275,1.248A9.007,9.007,0,0,1,602.455,213.127Z"/><path class="cls-3" d="M628.57,207.729a56.628,56.628,0,0,0-3.745,10.7l-3.557-.781a35.262,35.262,0,0,1,1.5-5.4,48.666,48.666,0,0,1-6.085,5.71c-.718-.437-1.467-.78-2.746-1.436a15.022,15.022,0,0,1-.249-3.151c0-5.149,3.775-11.515,12.544-13.043l.874,3.65c-6.866,1.248-9.518,5.743-9.612,10.329,2.434-2.215,5.991-5.8,8.207-8.113Z"/><path class="cls-3" d="M647.228,203.579a51.378,51.378,0,0,0-5.056,14.854l-3.869-.656a69.62,69.62,0,0,1,3.307-11.452,84.7,84.7,0,0,0-7.52,6.522c-.405,1.622-.811,3.057-1.186,4.43l-3.744-.935c1.155-4.119,2.621-8.457,4.057-14.823l3.994.812a49.111,49.111,0,0,1-1.716,6.116,84.2,84.2,0,0,1,8.144-6.9Z"/><path class="cls-3" d="M667.851,194.061c-2.122,5.555-6.741,16.445-7.77,24.184l-3.807-.78a62.806,62.806,0,0,1,1.435-6.74,60.366,60.366,0,0,1-6.8,7.052c-.687-.437-2.06-.967-3.339-1.623a19.8,19.8,0,0,1-.218-2.84c0-5.741,3-10.983,10.2-12.918l.968,3.682c-4.744,1.436-7.146,4.213-7.24,9.954,2.309-2.247,5.711-5.679,7.8-7.894,1.217-3.682,2.777-7.832,4.743-13.293Z"/><path class="cls-3" d="M695.089,202.8l-8.925,15.352-1.966-.717-3.089-1.123c.249-3.277.686-6.335,1.155-9.456l-6.928,11.484-1.123-.406-3.62-1.28c.531-4.555,1.124-10.328,1.4-15.2l4.4.437c-.407,3.776-1.093,8.207-1.686,12.263l7.677-12.888,4.212.25c-.374,4.462-.936,8.613-1.373,12.95l6.959-13.325Z"/><path class="cls-3" d="M711.28,203.579a63.466,63.466,0,0,0-5.367,15.446l-3.713-.874a69.146,69.146,0,0,1,3.37-11.608,92.382,92.382,0,0,0-7.676,7.3c-.406,1.466-.781,2.715-1.061,3.651l-3.745-.936c1.155-4.119,5.305-16.632,7.395-23.747l3.963,1.373c-.9,3.464-2.87,9.049-4.961,14.729a76.086,76.086,0,0,1,8.238-7.333Z"/><path class="cls-3" d="M719.578,202.237a125.689,125.689,0,0,0-4.993,15.29l-3.713-.811a99.379,99.379,0,0,1,4.65-15.54Zm.936-2.9-3.744-1.092a64.88,64.88,0,0,1,2.964-7.333l3.838,1.154C722.855,193.531,721.887,195.747,720.514,199.335Z"/><path class="cls-3" d="M731.777,204.172c-1.216.094-2.434.156-3.65.156a124.394,124.394,0,0,0-4.088,13.168l-3.62-.78c.624-2.621,1.623-7.052,3.37-12.482-1.279-.093-2.371-.187-3.058-.281l.468-2.4c1,.062,2.184.125,3.433.156.748-2.153,1.622-4.432,2.59-6.8l4.212,1.28c-.842,1.872-1.591,3.712-2.309,5.554,1-.062,2.028-.125,3.276-.25Z"/><path class="cls-3" d="M734.428,211.941a13.4,13.4,0,0,0-.062,3.121c1.03-.062,2.84-.062,6.927-2.09l-.343,2.714a10.58,10.58,0,0,1-6.022,2.184c-3.058,0-4.775-1.778-4.556-5.367.28-4.8,3.12-10.047,8.924-11.67l5.149,1.529a9.7,9.7,0,0,1,.437,2.777c0,3.338-2.527,5.991-7.115,5.991a22.4,22.4,0,0,1-3.152-.28A8.244,8.244,0,0,0,734.428,211.941Zm.968-3.245a8.4,8.4,0,0,0,1.591.156,3.93,3.93,0,0,0,4.119-3.962,5.608,5.608,0,0,0-.249-1.561A11.654,11.654,0,0,0,735.4,208.7Z"/></g></svg>