<svg xmlns="http://www.w3.org/2000/svg" viewBox="0 0 296 296"><defs><style>.cls-1{fill:#1858a8;}.cls-2{fill:#f36;}.cls-3{fill:#ffeded;}</style></defs><title>manuale_ill_nuove</title><g id="Livello_1" data-name="Livello 1"><path class="cls-1" d="M148.41,6.465c.069-1.245.066-2.491.081-3.734a109.807,109.807,0,0,1-16.4-2.237,40.043,40.043,0,0,1,.241,13.991,9.692,9.692,0,0,0,.553,3.557,21.841,21.841,0,0,1-.538,12.862,6.989,6.989,0,0,0-.519,2.821,35.1,35.1,0,0,1-1.634,12.946c-.322,1.036-.337,2.824.252,3.44a5.633,5.633,0,0,1,1.111,1.719c-.1.075-.174.127-.279.2-.546,6.1-1.855,12.249-.774,18.623a14.466,14.466,0,0,1-.38,5.723,32.457,32.457,0,0,0,.647,17.95,15.037,15.037,0,0,1,.379,2.018,10.681,10.681,0,0,1-.883,1.861c-2.195,3.594-1.862,8.122-1.525,12.088a10.562,10.562,0,0,0,3.485,6.726,9.438,9.438,0,0,1-.775,4.769,4.185,4.185,0,0,0-.294,2.782c1.17,3.663.109,7.343-.213,10.869a66.985,66.985,0,0,0-.236,12.333,21.076,21.076,0,0,1,.023,2.221c-.027,1.442-.108,2.89-.159,4.332a8.155,8.155,0,0,0-.2,1.439c1.781,10.321-.891,20.87,1.371,31.168a8.1,8.1,0,0,1,.139,2.881c-.852,5.5-1.831,10.976-2.68,16.478-.553,3.6-.979,7.218-1.405,10.838A3.764,3.764,0,0,0,128,219.27c1.979,3.352,1.386,7.028,1.4,10.663.007,1.685.554,3.369.554,5.053,0,4.018.693,7.922-.283,12.1-.837,3.582-.3,7.819.569,11.512,1.119,4.757.759,9.607,1.952,14.318-1.34,1.271-2.5,2.374-3.648,3.468a8.373,8.373,0,0,0,.484,1.258c.693,1.189,1.808,2.259,2.052,3.536a19.017,19.017,0,0,1,.078,5.821c-.391,3.146-.879,6.28-1.356,9.415,3.346,0,6.723.6,9.81-1.512a3.067,3.067,0,0,1,1.983-.228c1.9.263,3.8.576,5.7.86-.143-5.009-.476-10.014-.716-15.026a12.99,12.99,0,0,1-.062-3.628c1.452-5.75.7-11.65,1.142-17.464a54.99,54.99,0,0,0-.383-7.286c-.174-3.144-.407-6.288-.488-9.434-.136-5.095.751-10.2-.132-15.289a1.956,1.956,0,0,1-.019-.73c1.665-6.628.414-13.538,1.653-20.212a12.452,12.452,0,0,0,.322-3.612c-.569-4.794-1.46-9.553-1.867-14.364a51.241,51.241,0,0,1,.376-8.7c.151-1.688,1.239-3.536.852-4.984-1.847-6.918.476-14.033-1.139-20.934a19.347,19.347,0,0,1-.007-10.1c.507-1.732.116-3.8.019-5.706-.136-2.577-.329-5.151-.5-7.726q-.184-2.826-.263-5.656a108.588,108.588,0,0,1,1.433-15.222,22.158,22.158,0,0,0,.627-5.042c-.511-10.945-.751-21.9-.182-32.837.484-9.234-.91-18.4-.437-27.608.128-2.514.333-5.028.526-7.538q.233-3.14.438-6.278c.143-2.186.2-4.377.325-6.561a28,28,0,0,1,.442-5.794c.879-3.2,1-6.192-.461-9.207A4.518,4.518,0,0,1,148.41,6.465Z"/><path class="cls-2" d="M217.914,51.709l1.007-.324a4.486,4.486,0,0,1,1.791-2.56,2.542,2.542,0,0,0,.522-.5,31.436,31.436,0,0,1,2.1-2.745c1.015-1.058,1.658-2.368,2.592-3.47.062-.073.173-.138.183-.217.185-1.473,1.448-2.191,2.273-3.206a3.639,3.639,0,0,0,.956-1.411.568.568,0,0,1,.213-.358,1.561,1.561,0,0,0,.938-1.192c.766-.664,1.158-1.669,2.025-2.234a3.41,3.41,0,0,0,1.353-1.823,6.157,6.157,0,0,1,.243-.68c.215-.443.474-.86,1.036-.906a1.282,1.282,0,0,0,.987-.758c.865-1.4,1.76-2.776,2.593-4.192.482-.818.879-1.688,1.291-2.546a5.315,5.315,0,0,1,2.032-2.413c0-.038,0-.077,0-.115a2.07,2.07,0,0,0-.246-1.269,1.756,1.756,0,0,1-.066-1.408c.054-.193.083-.394.125-.59-.787-.255-1.583-.48-2.372-.732a2.84,2.84,0,0,1-1.014-.528,4.386,4.386,0,0,0-1.8-.886c-1.348-.382-2.7-.766-4.038-1.172A2.285,2.285,0,0,1,231.608,13a5.149,5.149,0,0,0-1.74-.967,21.881,21.881,0,0,0-3.24-1.23,3.469,3.469,0,0,1-.933-.639c-.529-.416-1.008-.917-1.776-.828a.718.718,0,0,1-.415-.1,22.9,22.9,0,0,0-4.655-1.564,6.957,6.957,0,0,1-1.7-.774,13.8,13.8,0,0,0-1.815-1.022q-.358.033-.716.075c-.666.078-1.291.5-1.956.581-.712.091-1.454-.077-2.178-.047a28.782,28.782,0,0,0-4.929.7,6.493,6.493,0,0,1-2.044.187,4.964,4.964,0,0,0-2,.3,18.635,18.635,0,0,1-3.317.674,8.134,8.134,0,0,0-1.558.336,5.067,5.067,0,0,1-4.149-.108c-.428-.23-.834-.5-1.289-.783a4.177,4.177,0,0,0-2.417.851,4.143,4.143,0,0,1-3.17.911,9.885,9.885,0,0,0-3.356.309,3.521,3.521,0,0,1-2.166.169.346.346,0,0,0-.275.032,2.472,2.472,0,0,1-2.737-.235c-.292-.16-.61-.275-.879-.4a11.568,11.568,0,0,1-3.555,1.512,2.666,2.666,0,0,1-1.291-.062,5.654,5.654,0,0,0-4.013-.01c-.921.3-1.841.612-2.783.83-1.628.376-3.273.681-4.909,1.02a1.3,1.3,0,0,1-1.251-.2A1.317,1.317,0,0,0,157,12.4a6.575,6.575,0,0,0-.672.3,3.471,3.471,0,0,1-2.293.277c-1.025-.244-2.041.169-3.067.07a1.59,1.59,0,0,1-1.537.142.567.567,0,0,0-.413.094,3.734,3.734,0,0,1-1.711.281c-1.325.1-2.741-.328-3.958.567-.065.048-.191.012-.288.017-1.467.081-2.884.524-4.376.515a32.309,32.309,0,0,0-3.5.368,2.614,2.614,0,0,1-.733-.036,4.564,4.564,0,0,0-3.144.47l-.944-.517a7.957,7.957,0,0,1-1.509.4c-1.366.075-2.736.069-4.105.106a2.126,2.126,0,0,0-1.5.51,1.18,1.18,0,0,1-.635.309c-.779.073-1.562.081-2.342.137a2.354,2.354,0,0,0-1,.181,2.464,2.464,0,0,1-1.576.212,8.075,8.075,0,0,0-2.481.238c-.719.158-1.443.309-2.169.436a2.16,2.16,0,0,1-1.01.05,2.127,2.127,0,0,0-1.4.1c-.844.237-1.729.331-2.594.485a3.6,3.6,0,0,0-2.448.009,2.553,2.553,0,0,1-1.02.054,5.966,5.966,0,0,0-3.578.29c-1.11.385-2.358.008-3.433.621a.556.556,0,0,1-.425-.054,2.693,2.693,0,0,0-2.151.119c-1.218.425-2.514.352-3.74.687a.65.65,0,0,1-.433-.037,3.108,3.108,0,0,0-2.161,0,6.375,6.375,0,0,1-2.623.227,2.806,2.806,0,0,0-2.405.157c-.105.074-.286.042-.434.053-.828.062-1.656.167-2.485.172s-1.6.493-2.435.145c-.069-.029-.194.033-.275.084a3.048,3.048,0,0,1-1.853.307,1.322,1.322,0,0,0-.951.285,1.648,1.648,0,0,1-1.764.387,7.716,7.716,0,0,0-3.063.133c-1.724.395-3.462.735-5.2,1.069a2.128,2.128,0,0,1-1.145,0,5.035,5.035,0,0,0-2.1-.105,2.451,2.451,0,0,0,.137.773,2.249,2.249,0,0,1,.078,2.356,4.3,4.3,0,0,0-.059,1.874,2.453,2.453,0,0,0,.2.985,4.449,4.449,0,0,1,.371,1.551,3.76,3.76,0,0,1,.035,2.134c-.1.229.055.574.1.865a5.3,5.3,0,0,1,.152,1.165,9.219,9.219,0,0,0,.312,2.625c.168.888.039,1.86.754,2.607.146.153.119.468.183.7a13.956,13.956,0,0,1,.381,4.232c-.027.737.4,1.307.426,1.988.026.733.015,1.467.028,2.2a.563.563,0,0,0,.072.284,4.468,4.468,0,0,1,.376,2.141c.061.583.062,1.172.1,1.757.066.976.164,1.95.205,2.927a23.772,23.772,0,0,0,.387,4.383,4.284,4.284,0,0,1,.1.729A45.419,45.419,0,0,0,67,68.73a2.379,2.379,0,0,1,.051.876c-.133.835.406,1.219,1.121,1.1a52.551,52.551,0,0,1,5.708-.231.48.48,0,0,1,.548.531,6,6,0,0,0-.568.655.415.415,0,0,0,.051.4.893.893,0,0,0,.5.226.637.637,0,0,0,.39-.176c.457-.365.85-.905,1.367-1.076A5.214,5.214,0,0,1,77.9,71.1a6.775,6.775,0,0,1,4.025,1.133c-.05-.991.662-1.216,1.229-1.6a2.209,2.209,0,0,1,1.969-.3,3.605,3.605,0,0,0,1.866.12,1.039,1.039,0,0,1,.7.117,2.7,2.7,0,0,0,1.824.314c.059.284.1.5.16.776a10.4,10.4,0,0,0,1.35-.292,11.388,11.388,0,0,0,1.029-.553,2.436,2.436,0,0,1,.684-.206,2.9,2.9,0,0,0,2.672-1.832,11.793,11.793,0,0,1,5.018-.367,3.853,3.853,0,0,0,1.022-.046c1.056-.172,2.1-.575,3.178-.114a.334.334,0,0,0,.147,0,16.837,16.837,0,0,1,3.347-.414,10.085,10.085,0,0,1,3.451-.478,5.842,5.842,0,0,0,2.136-.453,6.768,6.768,0,0,1,2.569-.539c1.1-.066,2.269.147,3.236-.636a.8.8,0,0,1,.417-.115,5.5,5.5,0,0,1,1.89-.1c.662.194,1.269-.125,1.852.018a6.192,6.192,0,0,0,3.749-.469,9.649,9.649,0,0,1,3.589-.5,2.006,2.006,0,0,0,.586-.012,2.841,2.841,0,0,1,2.361.347c.278-.129.5-.227.72-.335a3.126,3.126,0,0,1,2.125-.355,2.912,2.912,0,0,0,1.59-.185,2.568,2.568,0,0,1,.977-.226,13.354,13.354,0,0,0,4.368-.524c1.551-.37,3.133-.07,4.687-.282a2.787,2.787,0,0,0,2.656-.289,4.393,4.393,0,0,1,1-.236,13.908,13.908,0,0,0,2.824-.806,2.2,2.2,0,0,1,2.127-.127,1.584,1.584,0,0,0,1.8-.045,2.633,2.633,0,0,1,.691-.241,44.239,44.239,0,0,1,5.823-.758c.436-.055.887-.035,1.313-.131a12.058,12.058,0,0,1,3.95-.174,7.115,7.115,0,0,0,1.9-.111c1.643-.271,3.23-.883,4.93-.8a.733.733,0,0,0,.422-.106,2.438,2.438,0,0,1,1.99-.1,3.575,3.575,0,0,0,1.145.133,22.114,22.114,0,0,1,3.5-.43,5.239,5.239,0,0,1,2.025.045,2.314,2.314,0,0,0,1.156-.065c1.4-.271,2.8-.565,4.191-.86a4.442,4.442,0,0,1,2.039-.057,2.9,2.9,0,0,0,1.163-.006,29.551,29.551,0,0,1,4.8-.715,19.729,19.729,0,0,0,2.119-.555c.77-.1,1.567.006,2.349-.033a33.654,33.654,0,0,1,4.4-.164A4.2,4.2,0,0,0,210.88,56a3.148,3.148,0,0,1,1.414-.275,5.54,5.54,0,0,0,2.171-.208,4.082,4.082,0,0,1,.679-.194c.686-.748,1.38-1.489,2.037-2.262A7.846,7.846,0,0,0,217.914,51.709Z"/><path class="cls-2" d="M217.036,129.392c-.233-.255-.452-.523-.681-.79a5.358,5.358,0,0,0,.118-3.236,2.815,2.815,0,0,1,.384-.395,1.8,1.8,0,0,0,.795-1.974,5.854,5.854,0,0,1-.046-1.66,1.363,1.363,0,0,0-.319-1.254.647.647,0,0,1,.009-.961c.621-.484.538-1.238.91-1.759a6.958,6.958,0,0,1-.836-3.139,5.077,5.077,0,0,0-.721-2.753,1.16,1.16,0,0,1-.088-1.3,1.825,1.825,0,0,0,.034-1.867,16.669,16.669,0,0,1-.48-1.765,4.145,4.145,0,0,0,.649-2.312,7.286,7.286,0,0,1,.162-1.656,2.139,2.139,0,0,0-.114-1.328,1.8,1.8,0,0,1,.083-1.45,15.532,15.532,0,0,0,.762-2.768c.232-1.2.121-2.326-1.15-2.975-.037-.02-.05-.086-.115-.2.023-.18.05-.427.086-.673.176-1.186.573-2.361.13-3.578-.056-.156.054-.387.118-.573a6.162,6.162,0,0,0-.334-5.01,8.323,8.323,0,0,1-1.238.894,8.738,8.738,0,0,1-1.452.405,4.467,4.467,0,0,0-.424.164,3.734,3.734,0,0,1-1.941.2c-.3-.043-.6-.075-.9-.094-1.156-.072-2.312-.172-3.47-.194-.957-.019-1.935-.406-2.861-.055-.948.359-1.918,0-2.848.251-.245.067-.488.135-.726.216a5.83,5.83,0,0,1-2.394.247,14.288,14.288,0,0,0-3.149-.022,1.577,1.577,0,0,1-1.008-.166,6.145,6.145,0,0,0-3.661-.717c-.691.008-1.376.369-2.069.385-.74.016-1.481-.237-2.228-.283a29.524,29.524,0,0,0-5.13.19,6.733,6.733,0,0,1-2.115-.028,5.094,5.094,0,0,0-2.084.087,19.115,19.115,0,0,1-3.473.332,8.376,8.376,0,0,0-1.634.178,5.228,5.228,0,0,1-4.242-.559c-.415-.282-.8-.608-1.237-.942a4.313,4.313,0,0,0-2.57.613,4.27,4.27,0,0,1-3.348.591,10.21,10.21,0,0,0-3.475-.045,3.629,3.629,0,0,1-2.238-.06.358.358,0,0,0-.285,0c-1.068.534-1.93.056-2.781-.535-.283-.2-.6-.349-.858-.5a11.94,11.94,0,0,1-3.809,1.167,2.725,2.725,0,0,1-1.316-.2,5.837,5.837,0,0,0-4.114-.442c-.977.2-1.953.428-2.942.55-1.71.21-3.43.345-5.144.517a1.345,1.345,0,0,1-1.261-.337,1.36,1.36,0,0,0-1.415-.285,6.568,6.568,0,0,0-.721.232,3.575,3.575,0,0,1-2.381.037c-1.023-.361-2.11-.046-3.15-.259a1.642,1.642,0,0,1-1.592-.02.587.587,0,0,0-.433.051,3.824,3.824,0,0,1-1.785.1c-1.371-.038-2.775-.632-4.118.155-.072.042-.2-.008-.3-.013-1.513-.076-3.012.226-4.541.056a33.263,33.263,0,0,0-3.628,0,2.684,2.684,0,0,1-.748-.117,4.711,4.711,0,0,0-3.274.143l-.911-.631a8.122,8.122,0,0,1-1.592.25c-1.408-.069-2.812-.223-4.22-.333a2.2,2.2,0,0,0-1.59.361,1.2,1.2,0,0,1-.683.248c-.806-.009-1.611-.085-2.416-.111a2.41,2.41,0,0,0-1.042.077,2.54,2.54,0,0,1-1.64.048,8.323,8.323,0,0,0-2.569-.023c-.755.084-1.513.161-2.271.212a2.226,2.226,0,0,1-1.041-.057,2.2,2.2,0,0,0-1.452-.05c-.89.151-1.806.153-2.711.217a2.074,2.074,0,0,0-1.13-.335c-.523.492-1.037.994-1.587,1.45a7.275,7.275,0,0,1-1.635,1.085,12.474,12.474,0,0,0-3.429,2.206c-.329.307-.74.523-1.1.8a45.719,45.719,0,0,0-4.792,3.7,2.743,2.743,0,0,0-.49.574A1.636,1.636,0,0,1,64,96.565a2.271,2.271,0,0,0-1.828,1.218,14.357,14.357,0,0,1-2.1,2.183,4.494,4.494,0,0,0-.768.731,2.875,2.875,0,0,1-2.217,1.636c-1.274,1-2.839,1.55-4.027,2.685a13.816,13.816,0,0,1-3.62,2.735,2.654,2.654,0,0,0-.753.708,3,3,0,0,1-1.318.99,3.221,3.221,0,0,0-1.71,1.419c-.139.21-.286.413-.467.672a2.932,2.932,0,0,0-2.283.917,2.064,2.064,0,0,1-.514.315,10.927,10.927,0,0,0-2.645,1.987,2.743,2.743,0,0,0,1.193.746.586.586,0,0,1,.376.221,1.642,1.642,0,0,0,1.256.979c.7.8,1.757,1.2,2.353,2.11a3.582,3.582,0,0,0,1.92,1.41,6.643,6.643,0,0,1,.715.251c.465.224.9.492.954,1.082a1.346,1.346,0,0,0,.8,1.031c1.47.9,2.922,1.831,4.411,2.7.862.5,1.774.913,2.677,1.34a5.837,5.837,0,0,1,3.01,2.839,2.737,2.737,0,0,0,.926.958,11.917,11.917,0,0,0,3.738,1.372c.118.28.275.591.382.917.32.986.719,1.888,1.892,2.108a.359.359,0,0,1,.228.17c.351.758,1.109,1.016,1.747,1.4.222.133.429.282.646.419a3.286,3.286,0,0,1,1.857.341.335.335,0,0,0,.15.013,17.417,17.417,0,0,1,3.477-.064,10.414,10.414,0,0,1,3.59-.118,6.028,6.028,0,0,0,2.238-.233,6.956,6.956,0,0,1,2.693-.276c1.13.05,2.309.4,3.386-.3a.818.818,0,0,1,.439-.074,5.666,5.666,0,0,1,1.948.106c.659.269,1.316.008,1.9.217a6.383,6.383,0,0,0,3.895-.076,9.963,9.963,0,0,1,3.732-.121,2.049,2.049,0,0,0,.6.051,2.932,2.932,0,0,1,2.384.61c.3-.1.537-.178.773-.265a3.224,3.224,0,0,1,2.217-.135,3.009,3.009,0,0,0,1.651-.018,2.636,2.636,0,0,1,1.025-.126,13.8,13.8,0,0,0,4.535-.066c1.63-.213,3.22.265,4.837.216a2.872,2.872,0,0,0,2.753-.01,4.537,4.537,0,0,1,1.052-.135,14.4,14.4,0,0,0,2.983-.521,2.271,2.271,0,0,1,2.2.1,1.632,1.632,0,0,0,1.847.148,2.736,2.736,0,0,1,.736-.173,45.773,45.773,0,0,1,6.051-.149c.454-.009.914.06,1.361.007a12.471,12.471,0,0,1,4.069.247,7.228,7.228,0,0,0,1.958.091c1.713-.1,3.409-.557,5.142-.289a.75.75,0,0,0,.443-.063,2.512,2.512,0,0,1,2.052.115,3.7,3.7,0,0,0,1.159.259,22.828,22.828,0,0,1,3.634-.063,5.384,5.384,0,0,1,2.071.264,2.392,2.392,0,0,0,1.192.058c1.463-.127,2.927-.278,4.389-.43a4.583,4.583,0,0,1,2.1.162,2.986,2.986,0,0,0,1.193.119,30.375,30.375,0,0,1,5-.216,20.512,20.512,0,0,0,2.231-.341c.8-.022,1.606.175,2.412.219a34.734,34.734,0,0,1,4.526.307,4.33,4.33,0,0,0,2.248-.145,3.249,3.249,0,0,1,1.479-.129,5.718,5.718,0,0,0,2.248.02c1.652-.537,3.328.09,4.963-.28a.712.712,0,0,1,.427.132,2.461,2.461,0,0,0,2.056.053,2.586,2.586,0,0,1,1.026-.105,13.333,13.333,0,0,0,5.239-.07,1.018,1.018,0,0,1,.453-.009c1.557.291,3.118-.07,4.687.035a14.365,14.365,0,0,0,4.083-.041,2.747,2.747,0,0,1,.6.03,13.688,13.688,0,0,0,1.811.01,17.458,17.458,0,0,1,5.288.014,1.661,1.661,0,0,0,1.524-.375c-.022-.447-.018-.945-.077-1.437a1.56,1.56,0,0,1,.5-1.515,1.38,1.38,0,0,0,.406-1.378A2.675,2.675,0,0,0,217.036,129.392Z"/></g><g id="solo_testo" data-name="solo testo"><path class="cls-3" d="M98.416,39.306a95.638,95.638,0,0,0-2.7,11.921l-2.866-.352a75.5,75.5,0,0,1,2.419-12.086Zm.5-2.262-2.911-.563a49.378,49.378,0,0,1,1.725-5.757l2.985.6C100.279,32.486,99.7,34.231,98.919,37.044Z"/><path class="cls-3" d="M106.5,32.571a116.093,116.093,0,0,0-4.552,18.049l-2.817-.332a111.612,111.612,0,0,1,4.094-18.624Z"/><path class="cls-3" d="M112.714,31.991a116.037,116.037,0,0,0-4.553,18.049l-2.817-.332a111.723,111.723,0,0,1,4.094-18.625Z"/><path class="cls-3" d="M123.985,37.654a58.852,58.852,0,0,0-2.37,11.843l-3.042-.192a35.719,35.719,0,0,1,.635-4.917A46.825,46.825,0,0,1,114.17,50.1l-1.914-.846.022-.027-.821-.376c.726-3.95,1.569-7.672,2.181-11.825l3.061.381c-.45,3.091-1.087,6.223-1.721,9.115,1.989-2.162,3.756-4.4,5.261-6.4q.43-1.506.869-2.94Z"/><path class="cls-3" d="M129.8,38.158a3.607,3.607,0,0,0-1.165.275,3.935,3.935,0,0,0,1.5,2.29c1.448,1.484,2.784,2.526,2.916,3.942.175,1.865-2.474,3.851-4.905,4.079a6.107,6.107,0,0,1-4.043-.956l.588-2.627a9.344,9.344,0,0,0,5.642,1c-.255-.952-1.46-1.864-2.329-2.76-1.478-1.528-2.029-2.334-2.124-3.349-.167-1.794,2.125-4.272,4.6-4.5a8.319,8.319,0,0,1,3.737.484l-.533,2.956A7.719,7.719,0,0,0,129.8,38.158Z"/><path class="cls-3" d="M143.442,36.573c-.914.157-1.831.291-2.751.377A94.755,94.755,0,0,0,138.529,47.2l-2.794-.334c.288-2.026.729-5.449,1.667-9.682-.974.02-1.807.027-2.333,0l.184-1.85c.76-.025,1.662-.06,2.609-.125.414-1.682.914-3.467,1.478-5.329l3.278.669c-.506,1.476-.942,2.922-1.355,4.366.752-.118,1.526-.238,2.462-.422Z"/><path class="cls-3" d="M154.039,34.25a36.033,36.033,0,0,0-1.763,7.642l-2.761-.242a35.808,35.808,0,0,1,.709-3.877c-1.317,1.957-2.67,4.3-3.882,6.366-.142.774-.329,1.578-.492,2.377l-2.9-.442c.582-3.2,1.41-6.824,2-11.714l3.083.379a30.231,30.231,0,0,1-.929,5.088,55.365,55.365,0,0,1,4.527-6.853Z"/><path class="cls-3" d="M165.347,37.24a43.069,43.069,0,0,0-2.076,8.363l-2.747-.337a26.984,26.984,0,0,1,.752-4.192,36.822,36.822,0,0,1-4.2,4.752c-.574-.28-1.165-.487-2.179-.892a11.44,11.44,0,0,1-.412-2.368c-.364-3.894,2.042-8.977,8.569-10.755l.919,2.7c-5.106,1.43-6.8,5.017-6.541,8.494,1.685-1.848,4.122-4.815,5.635-6.719Z"/><path class="cls-3" d="M174.637,33.657c-.914.157-1.83.291-2.751.377a94.856,94.856,0,0,0-2.162,10.251l-2.793-.333c.286-2.027.728-5.45,1.666-9.682-.974.019-1.807.026-2.333,0l.184-1.85c.76-.024,1.661-.06,2.608-.124.414-1.683.914-3.468,1.479-5.33l3.277.669c-.505,1.476-.941,2.922-1.354,4.366.751-.117,1.525-.238,2.462-.421Z"/><path class="cls-3" d="M179.767,31.7a95.512,95.512,0,0,0-2.7,11.922l-2.867-.353a75.767,75.767,0,0,1,2.419-12.086Zm.5-2.262-2.911-.562a49.317,49.317,0,0,1,1.725-5.757l2.985.6C181.63,24.883,181.055,26.628,180.27,29.44Z"/><path class="cls-3" d="M191.3,33.315c.4,4.3-1.943,9.017-6.736,10.227-1.081-.352-2.113-.684-3.075-1.047a13.9,13.9,0,0,1-.736-3.288c-.457-4.888,2.314-9.124,7.2-9.58a10.46,10.46,0,0,1,1.475-.02l.808,2.284.838.04A9.344,9.344,0,0,1,191.3,33.315Zm-2.664-.227c-.025-.26-.049-.52-.095-.754-3.45.537-5.047,3.33-4.681,7.249a11.192,11.192,0,0,0,.347,1.921C187.821,40.4,188.918,36.087,188.638,33.088Z"/><path class="cls-3" d="M205.316,30.338a39.053,39.053,0,0,0-2.774,11.6l-2.975-.222a52.848,52.848,0,0,1,1.694-8.9,64.311,64.311,0,0,0-5.23,5.466c-.192,1.256-.4,2.371-.583,3.437l-2.9-.445c.582-3.2,1.385-6.583,2.021-11.5l3.079.332a37.023,37.023,0,0,1-.866,4.749,64.212,64.212,0,0,1,5.675-5.792Z"/><path class="cls-3" d="M86.975,108.426c-.924.081-1.848.138-2.772.148a94.511,94.511,0,0,0-3,10.038l-2.757-.564c.454-2,1.177-5.371,2.462-9.511-.973-.062-1.8-.124-2.326-.188l.337-1.83c.759.039,1.661.078,2.609.091.552-1.641,1.2-3.38,1.915-5.189l3.21.938c-.625,1.43-1.179,2.835-1.71,4.24.758-.055,1.54-.112,2.488-.216Z"/><path class="cls-3" d="M99.651,107.2a152.937,152.937,0,0,0-6.154,17.02l-2.783-.778c.685-2.567,2.185-6.52,3.616-10.306a42.931,42.931,0,0,1-6.079,6.063l-2.667-1.063c1.259-4.376,2.5-8.349,3.266-12.08l3.065.561c-.589,2.638-1.435,5.634-2.469,8.9a39.39,39.39,0,0,0,7.4-9.326Z"/><path class="cls-3" d="M111.818,109.377c.041,3.983-1.553,10.189-7.985,9.688l-.194-2.655c4.484.168,5.127-4.108,5.161-7.642-2.11,2.322-4.173,4.574-6,6.679-.66,2.616-1.388,5.588-2.281,8.656l-2.923-.61c1.42-4.852,3.633-13.247,4.513-17.452l3.136.536a30.2,30.2,0,0,1-1.394,5.018,51.031,51.031,0,0,1,5.369-5.842l2.409,1.279A14.294,14.294,0,0,1,111.818,109.377Z"/><path class="cls-3" d="M124.1,109.249c.045,4.315-2.683,8.826-7.559,9.636-1.048-.44-2.049-.856-2.979-1.3a13.972,13.972,0,0,1-.461-3.339c-.051-4.909,3.062-8.9,7.969-8.952a10.635,10.635,0,0,1,1.471.1l.618,2.342.831.109A9.264,9.264,0,0,1,124.1,109.249Zm-2.637-.447c0-.261,0-.522-.032-.758-3.483.25-5.305,2.9-5.264,6.838a11.054,11.054,0,0,0,.187,1.942C120.048,116.026,121.5,111.813,121.467,108.8Z"/><path class="cls-3" d="M136.476,110.613c-.464,1.049-1.647,5.876-3.975,10a6.607,6.607,0,0,1-5.539,3.211,6.718,6.718,0,0,1-3.734-1l.26-2.375a6.533,6.533,0,0,0,3.137.656c2.3-.024,3.51-2.147,5.361-6.625a33.118,33.118,0,0,1-4.652,4.127c-.549-.326-1.168-.581-2.145-1.068a11.976,11.976,0,0,1-.146-2.631,9.868,9.868,0,0,1,9.6-9.8l.788,2.789c-5.69.179-7.118,4.225-7.366,7.761a49.526,49.526,0,0,0,6.22-6.183Z"/><path class="cls-3" d="M148.979,106.454a35.907,35.907,0,0,0-2.388,7.47l-2.733-.47a35.957,35.957,0,0,1,1.028-3.8c-1.475,1.842-3.017,4.063-4.4,6.022-.205.761-.458,1.546-.687,2.331l-2.852-.682c.844-3.138,1.969-6.684,2.962-11.508l3.042.633a30.279,30.279,0,0,1-1.347,4.993,55.2,55.2,0,0,1,5.079-6.455Z"/><path class="cls-3" d="M160,110.368a42.951,42.951,0,0,0-2.761,8.164l-2.709-.564a26.789,26.789,0,0,1,1.1-4.116,36.955,36.955,0,0,1-4.579,4.389c-.549-.326-1.121-.581-2.1-1.069a11.445,11.445,0,0,1-.214-2.394c-.041-3.912,2.778-8.778,9.429-10.01l.693,2.767c-5.207,1-7.187,4.438-7.222,7.925,1.832-1.7,4.507-4.458,6.172-6.23Z"/><path class="cls-3" d="M173.149,108.738c.041,3.984-1.554,10.19-7.986,9.688l-.194-2.655c4.484.167,5.127-4.108,5.161-7.642-2.11,2.322-4.173,4.573-6,6.679-.66,2.616-1.388,5.587-2.281,8.656l-2.923-.611c1.42-4.851,3.633-13.246,4.514-17.452l3.135.537a30.064,30.064,0,0,1-1.394,5.017,51.2,51.2,0,0,1,5.369-5.842l2.409,1.28A14.283,14.283,0,0,1,173.149,108.738Z"/><path class="cls-3" d="M187.455,106.93a48.147,48.147,0,0,0-3.955,11.779l-2.829-.635a52.49,52.49,0,0,1,2.469-8.848,70.01,70.01,0,0,0-5.776,5.611c-.3,1.117-.571,2.068-.777,2.781l-2.852-.681c.845-3.139,3.9-12.679,5.431-18.1l3.022,1.012c-.66,2.639-2.109,6.9-3.653,11.23a57.817,57.817,0,0,1,6.2-5.637Z"/><path class="cls-3" d="M201.157,106.146A153.009,153.009,0,0,0,195,123.166l-2.783-.777c.684-2.569,2.185-6.521,3.616-10.307a43.036,43.036,0,0,1-6.079,6.063l-2.667-1.063c1.259-4.376,2.5-8.349,3.266-12.079l3.064.56c-.589,2.638-1.435,5.634-2.468,8.895a39.409,39.409,0,0,0,7.4-9.325Z"/></g></svg>