<svg xmlns="http://www.w3.org/2000/svg" viewBox="0 0 952 438.692"><defs><style>.cls-1{fill:#1858a8;}.cls-2{fill:#f36;}.cls-3{fill:#ffeded;}</style></defs><title>manuale_ill_nuove</title><g id="Livello_1" data-name="Livello 1"><path class="cls-1" d="M548.046,292.946a1.2,1.2,0,0,1-.159-.472c-.007-.407.171-.886.013-1.2a4.98,4.98,0,0,1-.389-1.17,2.981,2.981,0,0,1,.244-2.2c.019-.033.025-.067.043-.1-.061.068-.131.125-.189.195a1.577,1.577,0,0,1-.692.518,4.745,4.745,0,0,0-.9.434,1.1,1.1,0,0,1-1.012.181.29.29,0,0,0-.175,0c-.508.155-1.05.164-1.546.369a1.405,1.405,0,0,1-.342.078c-.233.032-.468.057-.7.079a.45.45,0,0,1-.232-.008c-.344-.189-.734-.088-1.093-.18-.208-.053-.424-.082-.634-.133a.331.331,0,0,1-.2-.107c-.38-.635-1.013-.67-1.645-.714-.139-.009-.277,0-.414-.014a11.145,11.145,0,0,1-1.409-.132,2.955,2.955,0,0,1-1.193-.473,1.849,1.849,0,0,0-1.792-.273c-.168.059-.333.124-.5.19a.924.924,0,0,1-.853-.063,4.21,4.21,0,0,0-1.427-.543.436.436,0,0,1-.344-.2c-.246-.438-.727-.514-1.123-.709a1.436,1.436,0,0,0-.55-.011.562.562,0,0,0-.372-.454.482.482,0,0,1-.282-.362,1.106,1.106,0,0,0-.31-.494,5.588,5.588,0,0,0-1.048-1.113c-.286-.511-.875-.733-1.18-1.232a.466.466,0,0,0-.294-.17.506.506,0,0,1-.443-.489,1.626,1.626,0,0,0-.544-1.016,4.991,4.991,0,0,1-.348-.469,4.4,4.4,0,0,0-.615-.621.126.126,0,0,0-.054-.024c-.073-.021-.109-.08-.16-.125a20.975,20.975,0,0,0-.257-3.276,5.282,5.282,0,0,1,.024-1.3,8.422,8.422,0,0,0-.719-4.344,4.1,4.1,0,0,1,.041-3.615,4.769,4.769,0,0,0,.387-3.364,1.622,1.622,0,0,1-.007-1.072,2.865,2.865,0,0,0-.086-2.352,4.985,4.985,0,0,1-.359-1.413,27.029,27.029,0,0,0-.411-3.1,7.377,7.377,0,0,1,.087-2.953c.12-.545.207-1.1.331-1.642a4.715,4.715,0,0,0-.621-3.7,1.582,1.582,0,0,0,.477-1.55,10.168,10.168,0,0,1-.161-3.147,18.263,18.263,0,0,0,.028-4.815,1.874,1.874,0,0,1,.084-.737,4.063,4.063,0,0,0-1.069-4.16c1.013-2.446.949-4.984.887-7.524a2.07,2.07,0,0,0-.96-2.065,1.514,1.514,0,0,1-.53-.929,3.6,3.6,0,0,1-.074-2.547c.107-.218-.034-.589-.131-.867a5.214,5.214,0,0,1,.7-4.771,2,2,0,0,0,.413-1.554,8.7,8.7,0,0,0-.493-1.977,6.81,6.81,0,0,1-.519-3.993,7.649,7.649,0,0,0-.02-1.845c-.073-.741-.219-1.474-.339-2.209a14.244,14.244,0,0,1,.477-6.766c.221-.688,0-1.483.472-2.136.076-.1-.042-.35-.068-.531-.062-.419-.135-.837-.183-1.258a16.3,16.3,0,0,1,.324-3.7,17.33,17.33,0,0,0,.161-2.405c-.036-1.3-.145-2.594-.258-3.887-.018-.208-.019-.416-.033-.624a3.878,3.878,0,0,1,.62-.843c.274-.287.546-.576.844-.892a2.2,2.2,0,0,1-.013-1.6,8.377,8.377,0,0,0,.052-1.443c.05-.479.2-.947.262-1.425a2.237,2.237,0,0,0-.1-.521c-.131-.962-.4-1.9-.483-2.876a5.167,5.167,0,0,0-.472-1.782,5.888,5.888,0,0,1-.509-3.229l-.472.052c-.084-.095-.151-.192-.229-.288a2.727,2.727,0,0,1-.784-2.448c-.323-.621-.762-1.087-.768-1.558a15.793,15.793,0,0,0-.615-2.685,5.352,5.352,0,0,1-.037-2.113,3.282,3.282,0,0,0-.27-2.207,8.9,8.9,0,0,1-.816-3.452,4.305,4.305,0,0,0-1.245-2.857,8.5,8.5,0,0,1-1.251-1.881.974.974,0,0,1-.107-.9,2.94,2.94,0,0,0-.248-2.43q-.342-.87-.684-1.741c-.1-.246-.189-.494-.289-.739a1.641,1.641,0,0,0-.346-.555,11.4,11.4,0,0,0-3.082-2.533,2.308,2.308,0,0,1-1.068-.966c-.523-.878-1.1-1.723-1.628-2.6a2.789,2.789,0,0,0-1.132-1.1,2.848,2.848,0,0,1-.86-.619c-.515-.6-.923-1.289-1.812-1.443-.222-.038-.4-.335-.594-.521a6.6,6.6,0,0,0-.556-.565c-1.161-.882-2.349-1.73-3.423-2.722a1.2,1.2,0,0,0-.576-.311,2.771,2.771,0,0,1-1.341-.833,6.168,6.168,0,0,0-1.37-1.043,12.57,12.57,0,0,1-2.517-1.729,2.2,2.2,0,0,0-.9-.479,33.9,33.9,0,0,0-4.317-.777,2.182,2.182,0,0,1-1.988-1.121,1.1,1.1,0,0,0-.464-.455,3.155,3.155,0,0,1-1.653-1.276c-.07-.135-.3-.186-.44-.288a7.788,7.788,0,0,0-1.451-.637,13.488,13.488,0,0,1-1.7-.939q-.309-.192-.62-.38c-.166-.1-.335-.2-.506-.29a3.52,3.52,0,0,0-1.722-.5,5.5,5.5,0,0,0-1.362.379c-.182-.2-.376-.393-.556-.6-.226.2-.436.414-.654.62a1.113,1.113,0,0,0-.66.134.286.286,0,0,1-.123.051c-.47.021-.945.062-1.413.062-.122-.071-.242-.146-.368-.209-.192-.095-.351-.235-.554-.313a5.1,5.1,0,0,1-1.729-1.13,8.577,8.577,0,0,1-2.092-.256c-1.651-.431-3.274.188-4.811.736a5.771,5.771,0,0,1-2.973.542,2.453,2.453,0,0,0-.772.022c-.208-.016-.416-.034-.624-.04a2.53,2.53,0,0,1-1.293-.257,1.075,1.075,0,0,0-1.029-.1,1.279,1.279,0,0,1-1.323-.094c-.324.342-.542.764-.872.886-.122.045-.241.1-.363.158-1.379.038-2.76.054-4.133.17-3.757.318-7.531.226-11.291.449-.152-.273-.3-.551-.462-.817a2.732,2.732,0,0,0-.664-.54c-.253.189-.452.314-.625.469-.407.367-.807.743-1.208,1.117-1.6.171-3.2.33-4.8.441.036.574.084,1.146.172,1.712a10.855,10.855,0,0,1,.133,1.839,8.446,8.446,0,0,1-1.146.81c-.148.085-.238.267-.377.374a14.052,14.052,0,0,1-3.375,2.18,2.876,2.876,0,0,0-1.908,1.474c-.109.256-.55.415-.87.529a3.386,3.386,0,0,0-1.713,1.215,4.149,4.149,0,0,1-1.792,1.427,3.276,3.276,0,0,0-1.792,2.064c-.127.331-.233.671-.337,1.011-.007.025-.02.046-.028.071-.991.87-1.979,1.745-3.02,2.557-.18.14-.35.292-.524.438-.083.061-.158.131-.236.2a28.523,28.523,0,0,1-3.867,3.079c-.182.108-.308.314-.482.444a29.826,29.826,0,0,1-3.327,2.294c-.185-1.828-.3-3.672-1.545-5.242a3.514,3.514,0,0,1-.277-2.19,45.735,45.735,0,0,0-2-15.684,40.723,40.723,0,0,1-1.211-5.839c-2.48.4-4.725.762-6.962,1.115a6.846,6.846,0,0,0-.912.025c-.028.009-.056.015-.084.024-6.088,1.918-12.6,1.548-18.7,3.557-3.414,1.124-6.9,2.356-10.655,1.931a3.065,3.065,0,0,0-1.084.118c-.239.06-.479.127-.7.2-6.235,2.147-12.877,2.311-19.216,3.964a10.23,10.23,0,0,1-2.727.163c-.5-.01-.985.009-1.473.042a11.427,11.427,0,0,1-.2,1.366c-.084.378.25.862.429,1.28a16.5,16.5,0,0,1,.8,8.978c-.076.576-.122,1.159-.191,1.738,2.552,1.185,5.12,2.337,7.682,3.5,3.042,1.378,6.067,2.81,9.188,3.985a28.862,28.862,0,0,1,3.621,1.632,5.315,5.315,0,0,0,.474,1.594c.305.643-.14,1.755-.467,2.561a8.888,8.888,0,0,0-.662,4.849c.026.165.029.328.068.495a10.611,10.611,0,0,1-.324,5.851c-.873,2.573-.234,4.741.9,6.938.415.807.886,1.588,1.359,2.364a7.685,7.685,0,0,1,.845,7.314,16.69,16.69,0,0,0-1.115,6.4,15.552,15.552,0,0,0,.52,3.879c.243.875.261,1.814.521,2.683a19.712,19.712,0,0,1-.375,11.613,13.321,13.321,0,0,0,.824,9.713c2.061,4.608,1.895,9.1.393,13.715a5.359,5.359,0,0,0-.555,1.717c.176,3.23-.886,6.2-1.652,9.259-.546,2.189-.646,4.526,2.11,5.791a3.547,3.547,0,0,1,1.371,2.173,28.2,28.2,0,0,1,.051,13.49c-.528,2.494-1.056,5.049-.3,7.482-.041.012-.079.019-.12.031l-.255.075v4.98a6.461,6.461,0,0,0-.316,1.457,2.422,2.422,0,0,1-.193.828,2.6,2.6,0,0,0-.226.984,1.069,1.069,0,0,1-.263.731,4.91,4.91,0,0,0-1.066,2.066,1.314,1.314,0,0,1-.307.552,5.1,5.1,0,0,0-.523.869c-.127.236-.229.484-.348.723a.5.5,0,0,1-.126.171,2.471,2.471,0,0,0-.434.452,5.362,5.362,0,0,0-.328.5,1.719,1.719,0,0,1-.207.246,3.433,3.433,0,0,1-.424.481c-.464.367-.8.855-1.245,1.242a1.558,1.558,0,0,0-.164.136,4.446,4.446,0,0,1-1.992,1.29,11.254,11.254,0,0,0-1.87.644.257.257,0,0,1-.151.05,2.423,2.423,0,0,0-1.414.383c-.311.133-.594.33-.908.456a3.321,3.321,0,0,0-.778.463c-.341.26-.692.509-1.049.747a1.765,1.765,0,0,1-.479.226,2.337,2.337,0,0,0-1.137.854,1.428,1.428,0,0,1-.628.471,4.262,4.262,0,0,0-.82.394,1,1,0,0,1-.918.164.261.261,0,0,0-.159,0c-.461.14-.953.148-1.4.334a1.311,1.311,0,0,1-.312.072c-.211.029-.424.051-.637.071a.4.4,0,0,1-.211-.007c-.312-.172-.665-.08-.991-.163-.191-.048-.386-.075-.577-.121a.3.3,0,0,1-.18-.1c-.344-.576-.921-.609-1.494-.648-.125-.009-.252,0-.376-.013a10.287,10.287,0,0,1-1.28-.12,2.674,2.674,0,0,1-1.08-.429,1.663,1.663,0,0,0-1.046-.308c.25.427.514.847.74,1.287,1.131,2.2,1.77,4.365.9,6.938a11.21,11.21,0,0,0-.536,2.588,3.906,3.906,0,0,0,.529-.2c.227-.107.446-.229.666-.352a2.123,2.123,0,0,1,2.029-.161,4.446,4.446,0,0,0,2.833.266c.244-.058.5-.054.746-.117a5.447,5.447,0,0,1,3.2.219,3.68,3.68,0,0,0,2.69-.131,5.05,5.05,0,0,1,3.792.028,1.489,1.489,0,0,0,.469.17,8.58,8.58,0,0,1,2.54.547c.6.173,1.244.224,1.62-.525a.981.981,0,0,1,.614-.357,7.792,7.792,0,0,1,3.725.12,3.145,3.145,0,0,0,2.714-.15c.013-.009.026-.01.038-.018a.878.878,0,0,1,.476-.117c1.086-.015,2.173-.024,3.258-.021.543,0,1.088.013,1.63.053a3.131,3.131,0,0,1,1.108.189,5.833,5.833,0,0,0,1.718.326c.409.064.837,0,1.252.035a23.5,23.5,0,0,0,2.373.206c.566-.014,1.121-.328,1.692-.374s1.182.157,1.732-.127a2,2,0,0,1,1.216-.167c.665.076,1.337.107,2.006.134a16.011,16.011,0,0,0,2.377.036,7.966,7.966,0,0,1,1.959-.3,2.373,2.373,0,0,1,2.463.44,2.808,2.808,0,0,0,.652.368c.848.234,1.7.475,2.564.623.454.077,1,.195,1.277-.456a.923.923,0,0,1,.627-.375c.988-.182,1.983-.331,2.979-.458a.922.922,0,0,1,.587.177,1.645,1.645,0,0,0,1.186.26,2.883,2.883,0,0,0,.377-.03,1.482,1.482,0,0,1,.624-.03,2.2,2.2,0,0,0,1.217-.166,4.4,4.4,0,0,1,2.231-.2,8.173,8.173,0,0,0,2.379.007,6.03,6.03,0,0,1,2.116.069,9.352,9.352,0,0,0,3.349.178,12.646,12.646,0,0,1,4.366.174.966.966,0,0,0,.609.025c.758-.418,1.573-.051,2.35-.2a1.976,1.976,0,0,1,.96.237,5.625,5.625,0,0,1,.736.4,5.948,5.948,0,0,1,2.76-.381,1.37,1.37,0,0,0,.625-.03,7.079,7.079,0,0,1,2.1-.282,10.154,10.154,0,0,0,1.778-.083,6.561,6.561,0,0,0,.332-2.557,7.092,7.092,0,0,1,.1-1.372,2.917,2.917,0,0,0-.168-1.844,1.2,1.2,0,0,1-.159-.472c-.007-.407.171-.886.013-1.2a4.98,4.98,0,0,1-.389-1.17,2.981,2.981,0,0,1,.244-2.2c.019-.033.025-.067.043-.1-.061.068-.131.125-.189.195a1.577,1.577,0,0,1-.692.518,4.745,4.745,0,0,0-.9.434,1.1,1.1,0,0,1-1.012.181.29.29,0,0,0-.175,0c-.508.155-1.05.164-1.546.369a1.405,1.405,0,0,1-.342.078c-.233.032-.468.057-.7.079a.45.45,0,0,1-.232-.008c-.344-.189-.734-.088-1.093-.18-.208-.053-.424-.082-.634-.133a.331.331,0,0,1-.2-.107c-.38-.635-1.013-.67-1.645-.714-.139-.009-.277,0-.414-.014a11.145,11.145,0,0,1-1.409-.132,2.955,2.955,0,0,1-1.193-.473,1.849,1.849,0,0,0-1.792-.273c-.168.059-.333.124-.5.19a.924.924,0,0,1-.853-.063,4.21,4.21,0,0,0-1.427-.543.436.436,0,0,1-.344-.2c-.246-.438-.727-.514-1.123-.709a1.436,1.436,0,0,0-.55-.011.562.562,0,0,0-.372-.454.482.482,0,0,1-.282-.362,1.106,1.106,0,0,0-.31-.494,5.588,5.588,0,0,0-1.048-1.113c-.286-.511-.875-.733-1.18-1.232a.466.466,0,0,0-.294-.17.506.506,0,0,1-.443-.489,1.626,1.626,0,0,0-.544-1.016,4.991,4.991,0,0,1-.348-.469,4.4,4.4,0,0,0-.615-.621.126.126,0,0,0-.054-.024c-.275-.077-.342-.376-.551-.517-.124-.085-.255-.158-.385-.23a.893.893,0,0,1-.219-.13,1.877,1.877,0,0,1-.424-.957,8.825,8.825,0,0,0-.279-1.146,3.4,3.4,0,0,1-.236-.661c-.012-.077-.064-.165-.041-.228a1.406,1.406,0,0,0-.093-.92.488.488,0,0,1,0-.288.965.965,0,0,0-.243-.98,15.073,15.073,0,0,1-1.063-1.625.977.977,0,0,1-.12-.436,5.653,5.653,0,0,0-.21-1.336,2.744,2.744,0,0,1-.08-.757,1.231,1.231,0,0,0-.14-.685.537.537,0,0,1-.076-.28c0-.142-.026-.282-.035-.424a3.363,3.363,0,0,1-1.84.03c-.322-4.663-.136-9.362-.716-14.007a10.263,10.263,0,0,1,.194-2.725,23.23,23.23,0,0,0-.058-6.369c-.408-3.31-.543-6.654-.735-9.987-.263-4.549-.625-9.1-.648-13.652a67.174,67.174,0,0,1,.763-9.544,17.473,17.473,0,0,0-.443-8.043c-.1-.313-.166-.629-.3-.94-.176-.419-.506-.906-.42-1.283.712-3.151-.153-6.389.461-9.486a13.121,13.121,0,0,0,.213-4.942,15.563,15.563,0,0,1,.173-6.338,18.7,18.7,0,0,0,.066-8.616,14.124,14.124,0,0,1-.024-7.232,6.54,6.54,0,0,0,.114-.86c.018-.126,0-.251.011-.376.154-.1.307-.188.46-.3.351-.266.7-.532,1.07-.777a4.674,4.674,0,0,1,3.164-1,5.489,5.489,0,0,0,2.678-.4,4.064,4.064,0,0,1,1.4-.3,7.607,7.607,0,0,1,1.26-.844,7.01,7.01,0,0,0,2.374-2.512,4.911,4.911,0,0,1,1.433-1.589,2.976,2.976,0,0,0,.639-.6c1.433-1.656,3.241-2.964,4.833-4.47,2.39-2.262,5.046-4.259,7.388-6.567.482-.474.975-.935,1.464-1.4a4.032,4.032,0,0,0,1.77-.178,2.943,2.943,0,0,1,1.187-.158,4.894,4.894,0,0,1,1.016-.679,4.759,4.759,0,0,0,1.833-2.144,8.29,8.29,0,0,1,.448-.737c2.025-.071,4.05-.175,6.07-.109,2.754.09,5.517-.4,8.265.131a7.814,7.814,0,0,0,.915-.062,24.182,24.182,0,0,1,6.866.951c1.336.486,2.678.952,4.156.224.429-.213,1.184.076,1.731.287a5.823,5.823,0,0,0,3.608.343,7.145,7.145,0,0,1,3.948.154,4.849,4.849,0,0,0,2.159.184,2.054,2.054,0,0,1,.311.329,24.271,24.271,0,0,1,3.457,6.008,8.389,8.389,0,0,0,.949,2.149,3.532,3.532,0,0,0,1.421,1.271c.43.21.665.983.834,1.544a5.815,5.815,0,0,0,1.941,3.062,7.153,7.153,0,0,1,2.3,3.214,4.84,4.84,0,0,0,.994,1.609,5.435,5.435,0,0,1-.081,2.37,4.956,4.956,0,0,0,.381,2.914,3.488,3.488,0,0,1,.288,1.8,2.037,2.037,0,0,0,.044.739c.033.184.043.368.067.552a23.321,23.321,0,0,0,.068,6.255c.094.768.138,1.541.208,2.312,0,1.592-.011,3.185.128,4.774.113,1.293.222,2.59.258,3.887a17.33,17.33,0,0,1-.161,2.405,16.3,16.3,0,0,0-.324,3.7c.048.421.121.839.183,1.258.026.181.144.427.068.531-.477.653-.251,1.448-.472,2.136a14.244,14.244,0,0,0-.477,6.766c.12.735.266,1.468.339,2.209a7.649,7.649,0,0,1,.02,1.845,6.81,6.81,0,0,0,.519,3.993c.04.085.052.182.085.271a16.094,16.094,0,0,0,.177,2.9,3.431,3.431,0,0,1-.182.364,5.214,5.214,0,0,0-.7,4.771c.026.072.048.156.074.237a.937.937,0,0,1,.057.63,3.6,3.6,0,0,0,.074,2.547,1.514,1.514,0,0,0,.53.929,2.07,2.07,0,0,1,.96,2.065q.016.717.023,1.432c-.032.253-.025.51-.075.761a14.884,14.884,0,0,0-.344,3.749,10.717,10.717,0,0,1-.491,1.582,3.768,3.768,0,0,1,.812,1.091,15.539,15.539,0,0,1-.362,4.811,18.6,18.6,0,0,0-.066,8.581,14.052,14.052,0,0,1,.023,7.2c-.674,2.429.2,4.841.975,7.123.1.3.2.593.3.885a1.981,1.981,0,0,0,.028.951,4.769,4.769,0,0,1-.387,3.364v0c-.022.006-.045.01-.066.017-.041.012-.079.019-.12.031l-.255.075v4.98a6.461,6.461,0,0,0-.316,1.457,2.422,2.422,0,0,1-.193.828,2.6,2.6,0,0,0-.226.984,1.069,1.069,0,0,1-.263.731,4.91,4.91,0,0,0-1.066,2.066,1.314,1.314,0,0,1-.307.552,5.1,5.1,0,0,0-.523.869c-.127.236-.229.484-.348.723a.5.5,0,0,1-.126.171,2.471,2.471,0,0,0-.434.452,5.362,5.362,0,0,0-.328.5,1.719,1.719,0,0,1-.207.246,3.433,3.433,0,0,1-.424.481c-.464.367-.8.855-1.245,1.242a1.558,1.558,0,0,0-.164.136,4.446,4.446,0,0,1-1.992,1.29,11.254,11.254,0,0,0-1.87.644.257.257,0,0,1-.151.05,2.423,2.423,0,0,0-1.414.383c-.311.133-.594.33-.908.456a3.321,3.321,0,0,0-.778.463c-.341.26-.692.509-1.049.747a1.765,1.765,0,0,1-.479.226,2.337,2.337,0,0,0-1.137.854,1.428,1.428,0,0,1-.628.471,4.262,4.262,0,0,0-.82.394,1,1,0,0,1-.918.164.261.261,0,0,0-.159,0c-.461.14-.953.148-1.4.334a1.311,1.311,0,0,1-.312.072c-.211.029-.424.051-.637.071a.4.4,0,0,1-.211-.007c-.312-.172-.665-.08-.991-.163-.191-.048-.386-.075-.577-.121a.3.3,0,0,1-.18-.1c-.344-.576-.921-.609-1.494-.648-.125-.009-.252,0-.376-.013a10.287,10.287,0,0,1-1.28-.12,2.674,2.674,0,0,1-1.08-.429,1.663,1.663,0,0,0-1.046-.308c.25.427.514.847.74,1.287,1.131,2.2,1.77,4.365.9,6.938a11.21,11.21,0,0,0-.536,2.588,3.906,3.906,0,0,0,.529-.2c.227-.107.446-.229.666-.352a2.123,2.123,0,0,1,2.029-.161,4.446,4.446,0,0,0,2.833.266c.244-.058.5-.054.746-.117a5.447,5.447,0,0,1,3.2.219,3.68,3.68,0,0,0,2.69-.131,5.05,5.05,0,0,1,3.792.028,1.489,1.489,0,0,0,.469.17,8.58,8.58,0,0,1,2.54.547c.6.173,1.244.224,1.62-.525a.981.981,0,0,1,.614-.357,7.792,7.792,0,0,1,3.725.12,3.145,3.145,0,0,0,2.714-.15c.013-.009.026-.01.038-.018a.878.878,0,0,1,.476-.117c1.086-.015,2.173-.024,3.258-.021.543,0,1.088.013,1.63.053a3.131,3.131,0,0,1,1.108.189,5.833,5.833,0,0,0,1.718.326c.409.064.837,0,1.252.035a23.5,23.5,0,0,0,2.373.206c.566-.014,1.121-.328,1.692-.374s1.182.157,1.732-.127a2,2,0,0,1,1.216-.167c.665.076,1.337.107,2.006.134a16.011,16.011,0,0,0,2.377.036,7.966,7.966,0,0,1,1.959-.3,2.373,2.373,0,0,1,2.463.44,2.808,2.808,0,0,0,.652.368c.848.234,1.7.475,2.564.623.454.077,1,.195,1.277-.456a.923.923,0,0,1,.627-.375c.988-.182,1.983-.331,2.979-.458a.922.922,0,0,1,.587.177,1.645,1.645,0,0,0,1.186.26,2.883,2.883,0,0,0,.377-.03,1.482,1.482,0,0,1,.624-.03,2.2,2.2,0,0,0,1.217-.166,4.4,4.4,0,0,1,2.231-.2,8.173,8.173,0,0,0,2.379.007,6.03,6.03,0,0,1,2.116.069,9.352,9.352,0,0,0,3.349.178,12.646,12.646,0,0,1,4.366.174.966.966,0,0,0,.609.025c.758-.418,1.573-.051,2.35-.2a1.976,1.976,0,0,1,.96.237,5.625,5.625,0,0,1,.736.4,5.948,5.948,0,0,1,2.76-.381,1.37,1.37,0,0,0,.625-.03,7.079,7.079,0,0,1,2.1-.282,10.154,10.154,0,0,0,1.778-.083,6.561,6.561,0,0,0,.332-2.557,7.092,7.092,0,0,1,.1-1.372A2.917,2.917,0,0,0,548.046,292.946Z"/><path class="cls-2" d="M524.336,310.19a12.262,12.262,0,0,1-1.253-.049,4.3,4.3,0,0,0-1.851.117c-.32.111-.646.183-.97.265,1.329-.067,2.658-.169,3.986-.325C524.277,310.194,524.3,310.193,524.336,310.19Z"/><path class="cls-2" d="M444.9,310.868a32.151,32.151,0,0,0-4.152.122A6.879,6.879,0,0,0,444.9,310.868Z"/><path class="cls-2" d="M527.333,309.967c-.993.039-1.989.106-3,.223A15.048,15.048,0,0,0,527.333,309.967Z"/><path class="cls-2" d="M569.534,392.576a13.273,13.273,0,0,1,.076-3.456,11.9,11.9,0,0,0-.785-7.489,15.182,15.182,0,0,1-.862-3.713,3.646,3.646,0,0,1,.926-2.9,9.336,9.336,0,0,0,1.7-8.922c-.175-.522-.433-1.22-.207-1.628.911-1.639.355-3.206.017-4.771a2.714,2.714,0,0,0-1.006-1.751c-1.692-.909-1.8-2.327-1.791-3.886.037-4.759.071-9.516,2.261-14.076-2.5-2.251-2.614-4.943-1.879-7.813a3.3,3.3,0,0,0,.215-1.378c-.625-3.024.137-6.016.364-9.019a17.849,17.849,0,0,0-.12-5.9,2.9,2.9,0,0,1,1.057-2.894,8.566,8.566,0,0,1-1.076-2.4c-.145-.026-.3-.036-.438-.067a29.657,29.657,0,0,0-9.941-.312,40.1,40.1,0,0,1-12.958-.246,3.068,3.068,0,0,0-1.808-.038c-2.252,1.2-4.665.226-6.975.695a6.1,6.1,0,0,1-2.846-.6,17.051,17.051,0,0,1-2.183-1.069,30.913,30.913,0,0,1-3.945,1.03,15.048,15.048,0,0,1-3,.223c-.031,0-.059,0-.088.008-1.328.156-2.657.258-3.986.325a34.937,34.937,0,0,1-8.972-.571,3.068,3.068,0,0,0-1.808-.038c-2.252,1.2-4.665.226-6.975.695a6.1,6.1,0,0,1-2.846-.6,17.051,17.051,0,0,1-2.183-1.069,19.016,19.016,0,0,1-8.195,1.2,4.3,4.3,0,0,0-1.851.117,19.147,19.147,0,0,1-5.255.836,32.144,32.144,0,0,0-11.319.525c-.222-.042-.443-.073-.668-.125a4.432,4.432,0,0,0-1.116.034c-.58.025-1.159.047-1.738.073a10.268,10.268,0,0,0-3.356.142c-.534.022-1.067.049-1.6.068a2.845,2.845,0,0,1-1.445-.161,4.447,4.447,0,0,0-3.842-.289c-.693-.048-1.393-.05-2.078-.134-2.086-.258-4.194-.385-6.3-.5a9.774,9.774,0,0,0-3.663.1c-.052.019-.1.024-.151.042a6.879,6.879,0,0,1-4.152.122c-.146-.041-.3-.064-.438-.114a12.649,12.649,0,0,0-5.472-.434c-2.118.189-4.23.189-5.765-1.615a2.712,2.712,0,0,0-3.014-.887c-2.374.969-5.257.735-6.975,2.774-1.649.07-2.962-1.129-4.515-.254-.325.183-.978-.034-1.427-.19a14.163,14.163,0,0,0-6.222-.66,14.841,14.841,0,0,1-4.814-.055,10.965,10.965,0,0,0-5.621.286,4.532,4.532,0,0,1-1.212-1.014,2.712,2.712,0,0,0-3.014-.887c-2.374.969-5.257.735-6.975,2.774-1.649.07-2.962-1.129-4.515-.254-.325.183-.978-.034-1.427-.19a14.163,14.163,0,0,0-6.222-.66,14.841,14.841,0,0,1-4.814-.055c-3.248-.776-6.071.419-8.987,1.355-1.184.38-2.339.837-3.532,1.18a4.825,4.825,0,0,1-1.383.253h-.026a1.049,1.049,0,0,1-.38-.084c-1.7-.795-3.391-.313-5.121-.232a22.481,22.481,0,0,1-5.167-.349,6.751,6.751,0,0,0-4.317.14,6.915,6.915,0,0,1-5.487.1,10.441,10.441,0,0,1-1.781-1.028l-.349.216a10.123,10.123,0,0,0-5.016.026,16.043,16.043,0,0,0-3.475,1.139c-.943.458-2.362-.011-3.568.029a3.808,3.808,0,0,0-1.4.467,7.651,7.651,0,0,1-3.1.7c.257,3.575.077,7.152.077,10.724,0,2.943.488,5.934-.481,8.841a6.069,6.069,0,0,0,.169,2.937,39.205,39.205,0,0,1,.759,7.05c-.138.29-.283.59-.41.862l.444.833q.036,2.041.094,4.083c-1.069,1.93-.952,2.9-.047,5.832a4.235,4.235,0,0,1,.107.553q-.017.795-.046,1.589a5.5,5.5,0,0,1-.621,1.514,15.988,15.988,0,0,1-3.332,3.464q1.115,2.935,2.168,5.715a32.81,32.81,0,0,0-.812,4.358c-.083,1.434-.508,3.045,1.065,4.151.227.159.249.643.259.981a26.765,26.765,0,0,1,.013,4.132,4.933,4.933,0,0,0,1.3,4.109c.017.3.032.6.047.893a3.515,3.515,0,0,1-2.729.231c-.113.183-.328.37-.32.549.078,1.72.514,3.417-.351,5.111-.459.9-.195,1.125,1.3,2.685,1.345-.659.629-2.439,1.536-3.74a16.54,16.54,0,0,1,.406,7.021,10.923,10.923,0,0,0-.185,1.922l.556-.039c.483-.035,1.116-.416,1.414-.244a5.666,5.666,0,0,0,3.814.531,1.7,1.7,0,0,0,1.781.537,34.189,34.189,0,0,0,4.466-.889,18.058,18.058,0,0,0,6.016.566c3.475-.117,6.961-.365,10.421-.232a43.935,43.935,0,0,0,7.685-.34c2.165,1,4.355.034,6.533-.1a8.163,8.163,0,0,1,2.92.053,17.582,17.582,0,0,0,6.241.623c3.475-.117,6.961-.365,10.421-.232a41.712,41.712,0,0,0,10.028-.735,11.047,11.047,0,0,1,4.444-.021,13.851,13.851,0,0,0,4.952-.011c2.294.1,4.59.162,6.894.138l.012.033.859-.046c.45-.01.9,0,1.348-.02,3.93-.177,7.869-.041,11.782-.562,2,.074,4,.161,6.01.2,5.334.095,10.642.608,16.008.366,4.71-.212,9.437.09,14.111-.92a6.082,6.082,0,0,1,2.937-.169c2.907.968,5.9.482,8.842.482,4.461,0,8.934.318,13.4-.345a11.3,11.3,0,0,1,2.6.071,18.156,18.156,0,0,0,8.756-1.258,9.256,9.256,0,0,1,1.384-.411c.223.04.448.07.673.118,1.085.234,2.187.409,3.271.651a10.855,10.855,0,0,0,2.958.217,11.025,11.025,0,0,0,5.68.366,3.488,3.488,0,0,1,2.151.006,6.126,6.126,0,0,0,4.72-.111,10.622,10.622,0,0,1,2.856-.644c.261-.013.518-.049.779-.067a25.616,25.616,0,0,0,7.367-.018,3.941,3.941,0,0,1,1.471.171,10.7,10.7,0,0,0,5.228-.038c.2.04.395.074.59.118a10.121,10.121,0,0,0,7.459-1.089,3.253,3.253,0,0,0,3.077.925,22.008,22.008,0,0,1,6.321-.237c3.212.149,6.4.8,9.654.15a3.941,3.941,0,0,1,1.471.171c3.058.625,5.945.464,8.41-1.921a22.417,22.417,0,0,0,3.685,1.117c0-.017,0-.034,0-.051C569.875,395.342,569.63,393.964,569.534,392.576Z"/><path class="cls-2" d="M569.432,98.491c-.185-.518-.458-1.211-.246-1.623.854-1.657.265-3.211-.108-4.767a2.748,2.748,0,0,0-1.035-1.729,3.294,3.294,0,0,1-.454-.34,9.619,9.619,0,0,1,.1-1.839,12.271,12.271,0,0,0-.984-7.579,7.1,7.1,0,0,1-.4-1.105,22.211,22.211,0,0,1,1.732-7.1c-.138-.12-.244-.248-.368-.372a9.119,9.119,0,0,0,.391-7.226c-.188-.526-.465-1.228-.25-1.647.867-1.682.269-3.26-.109-4.839a2.8,2.8,0,0,0-1.05-1.754,3.271,3.271,0,0,1-.523-.392c.061-.647.122-1.293.152-1.94A18.116,18.116,0,0,0,566,48.351a2.911,2.911,0,0,1,.965-2.914,8.775,8.775,0,0,1-1.124-2.378c-.142-.022-.29-.028-.431-.056-.059-.012-.115-.014-.173-.025a20.805,20.805,0,0,1,1.395-4.634c-2.558-2.229-2.743-4.958-2.084-7.884a3.424,3.424,0,0,0,.177-1.4c-.7-3.053-.022-6.1.124-9.155a18.351,18.351,0,0,0-.277-5.98,2.955,2.955,0,0,1,.98-2.958,8.867,8.867,0,0,1-1.14-2.413c-.145-.023-.3-.029-.439-.058a29.212,29.212,0,0,0-9.941-.1,39.481,39.481,0,0,1-12.952.029,3.021,3.021,0,0,0-1.806,0c-2.218,1.265-4.657.328-6.951.853a6.033,6.033,0,0,1-2.861-.55,16.845,16.845,0,0,1-2.208-1.037,18.708,18.708,0,0,1-8.156,1.4,4.229,4.229,0,0,0-1.847.158,22.278,22.278,0,0,1-6.205,1.041c-1.854.149-3.8-.017-5.537.5a10.671,10.671,0,0,1-5.45.086,4.353,4.353,0,0,0-1.114.059c-2.228.146-4.454.3-6.682.43a2.784,2.784,0,0,1-1.448-.132c-1.717-1.018-3.314-.437-4.978.193a4.876,4.876,0,0,1-2.147.293c-1.586-.169-3.138-.594-4.726-.733-4.2-.369-8.406-.437-12.528.853a3.11,3.11,0,0,1-1.776.245c-1.864-.759-3.671-.242-5.5.078-1.22.214-2.476.681-3.657.1-1.4-.693-2.921-.448-4.382-.6-2.091-.216-4.2-.3-6.307-.367a9.581,9.581,0,0,0-3.656.175,6.824,6.824,0,0,1-4.736.153,12.453,12.453,0,0,0-5.479-.324c-2.11.239-4.22.284-5.8-1.513a2.69,2.69,0,0,0-3.033-.835c-2.349,1.033-5.234.859-6.9,2.964-1.645.106-2.989-1.082-4.518-.161-.32.193-.979-.013-1.432-.162a13.977,13.977,0,0,0-6.234-.535,14.616,14.616,0,0,1-4.81.048c-3.267-.718-6.054.556-8.944,1.568-1.172.41-2.314.9-3.5,1.272a2.971,2.971,0,0,1-1.782.209c-1.715-.77-3.4-.245-5.123-.125a22.181,22.181,0,0,1-5.171-.243,6.649,6.649,0,0,0-4.309.234,6.807,6.807,0,0,1-6.1,0,9.24,9.24,0,0,0-6.542-.423,15.726,15.726,0,0,0-3.441,1.23c-.93.485-2.359.04-3.564.107a3.716,3.716,0,0,0-1.388.5,9.166,9.166,0,0,1-5.456.693,22.254,22.254,0,0,0-4.073-.115c-3.764.246-7.423.125-10.494-2.052-1.782,1.182-1.782,1.186-3.134,1.165-.372-.006-.743-.066-1.113-.063-4.76.035-4.784.066-3.323,4.464-1.076,1.2-2.267,2.536-3.5,3.92.642,1.508,1.308,3.012,1.922,4.536a3.7,3.7,0,0,1,.048,3.1c-.3.642-.367,1.375-.637,2.033-.81,1.966-1.235,4.083-2.953,5.68a3.852,3.852,0,0,0-1.38,3.858,3.977,3.977,0,0,1-.5,2.017c-.418,1.1-.918,2.17-1.328,3.12l1.735,3.11c-2.129,3.489-2.2,4.026-.957,7.781a4.367,4.367,0,0,1-.462,3.72,16,16,0,0,1-3.238,3.586q1.191,2.952,2.319,5.75a33.327,33.327,0,0,0-.695,4.438c-.045,1.456-.428,3.1,1.175,4.186.229.157.265.648.283.991a27.591,27.591,0,0,1,.123,4.19,5.223,5.223,0,0,0,1.924,4.7,11.448,11.448,0,0,1,3.578,5.182,6.914,6.914,0,0,1-.317.693,15.8,15.8,0,0,1-3.19,3.532q1.175,2.908,2.284,5.665c-.185,1.1-.424,2.238-.562,3.376,2.082-.266,4.254.39,6.247-.747a2.976,2.976,0,0,1,1.78,0,38.9,38.9,0,0,0,12.762-.029c1.188-.169,2.361-.263,3.531-.315.054-.316.112-.631.141-.947.488-.033.977-.052,1.473-.042a10.23,10.23,0,0,0,2.727-.163c6.339-1.653,12.981-1.817,19.216-3.964.224-.078.464-.145.7-.2a3.065,3.065,0,0,1,1.084-.118c3.751.425,7.241-.807,10.655-1.931,6.1-2.009,12.612-1.639,18.7-3.557l.084-.024a6.846,6.846,0,0,1,.912-.025c2.237-.353,4.482-.715,6.962-1.115a40.723,40.723,0,0,0,1.211,5.839,45.735,45.735,0,0,1,2,15.684,3.514,3.514,0,0,0,.277,2.19c1.245,1.57,1.36,3.414,1.545,5.242a29.826,29.826,0,0,0,3.327-2.294c.174-.13.3-.336.482-.444a28.523,28.523,0,0,0,3.867-3.079c.078-.066.153-.136.236-.2.174-.146.344-.3.524-.438,1.041-.812,2.029-1.687,3.02-2.557.008-.025.021-.046.028-.071.1-.34.21-.68.337-1.011a3.276,3.276,0,0,1,1.792-2.064,4.149,4.149,0,0,0,1.792-1.427,3.386,3.386,0,0,1,1.713-1.215c.32-.114.761-.273.87-.529a2.876,2.876,0,0,1,1.908-1.474,14.052,14.052,0,0,0,3.375-2.18c.139-.107.229-.289.377-.374a8.446,8.446,0,0,0,1.146-.81,10.855,10.855,0,0,0-.133-1.839c-.088-.566-.136-1.138-.172-1.712,1.6-.111,3.2-.27,4.8-.441.4-.374.8-.75,1.208-1.117.173-.155.372-.28.625-.469a2.732,2.732,0,0,1,.664.54c.165.266.31.544.462.817,3.76-.223,7.534-.131,11.291-.449,1.373-.116,2.754-.132,4.133-.17.122-.054.241-.113.363-.158.33-.122.548-.544.872-.886a1.279,1.279,0,0,0,1.323.094,1.075,1.075,0,0,1,1.029.1,2.53,2.53,0,0,0,1.293.257c.208.006.416.024.624.04a2.453,2.453,0,0,1,.772-.022,5.771,5.771,0,0,0,2.973-.542c1.537-.548,3.16-1.167,4.811-.736a8.577,8.577,0,0,0,2.092.256A5.1,5.1,0,0,0,474,98.979c.2.078.362.218.554.313.126.063.246.138.368.209.468,0,.943-.041,1.413-.062a.286.286,0,0,0,.123-.051,1.113,1.113,0,0,1,.66-.134c.218-.206.428-.422.654-.62.18.2.374.395.556.6a5.5,5.5,0,0,1,1.362-.379,3.52,3.52,0,0,1,1.722.5c.171.091.34.189.506.29q.31.188.62.38a13.488,13.488,0,0,0,1.7.939,7.788,7.788,0,0,1,1.451.637c.145.1.37.153.44.288a3.155,3.155,0,0,0,1.653,1.276,1.1,1.1,0,0,1,.464.455,2.182,2.182,0,0,0,1.988,1.121,33.9,33.9,0,0,1,4.317.777,2.2,2.2,0,0,1,.905.479,12.57,12.57,0,0,0,2.517,1.729,6.168,6.168,0,0,1,1.37,1.043,2.771,2.771,0,0,0,1.341.833,1.2,1.2,0,0,1,.576.311c1.074.992,2.262,1.84,3.423,2.722a6.6,6.6,0,0,1,.556.565c.192.186.372.483.594.521a2.6,2.6,0,0,1,1.574,1.154c.549-.353,1.663-.388,3.672-.4.365,0,.731.057,1.1.062,1.331.021,1.333.018,3.088-1.148,3.026,2.145,6.63,2.265,10.338,2.022a22.039,22.039,0,0,1,4.013.113,9.016,9.016,0,0,0,5.375-.682,3.687,3.687,0,0,1,1.368-.5c1.187-.066,2.6.372,3.511-.106a15.615,15.615,0,0,1,3.391-1.211,9.107,9.107,0,0,1,6.445.417,6.7,6.7,0,0,0,6.008,0,6.556,6.556,0,0,1,4.245-.23,21.865,21.865,0,0,0,5.1.238c.934-.064,1.853-.231,2.772-.26a26.517,26.517,0,0,1-.663-2.821,3.664,3.664,0,0,1,.835-2.921A9.422,9.422,0,0,0,569.432,98.491Z"/><path class="cls-2" d="M336.262,148.769a27.182,27.182,0,0,1-9.25-.1c-.134-.027-.273-.033-.408-.054a8.23,8.23,0,0,0-1.062-2.245,2.743,2.743,0,0,0,.911-2.753,17.074,17.074,0,0,1-.256-5.566c.014-.3.048-.61.072-.914-.937-.09-1.873-.183-2.809-.228a17.1,17.1,0,0,0-5.565.258,2.75,2.75,0,0,1-2.753-.912,8.26,8.26,0,0,1-2.245,1.062c-.022.134-.028.274-.054.407a27.189,27.189,0,0,0-.1,9.251,36.747,36.747,0,0,1,.028,12.054,2.793,2.793,0,0,0,0,1.681c1.177,2.064.306,4.332.794,6.468a5.632,5.632,0,0,1-.512,2.662,15.912,15.912,0,0,1-.965,2.056,17.417,17.417,0,0,1,1.3,7.589,3.9,3.9,0,0,0,.146,1.718,20.791,20.791,0,0,1,.969,5.776,25.508,25.508,0,0,0,.464,5.151,9.94,9.94,0,0,1,.079,5.073,4.067,4.067,0,0,0,.055,1.037c.136,2.073.284,4.144.4,6.218a2.6,2.6,0,0,1-.124,1.347c-.947,1.6-.4,3.083.18,4.633a4.516,4.516,0,0,1,.272,2c-.157,1.476-.553,2.921-.682,4.4a29.773,29.773,0,0,0,.794,11.658,2.89,2.89,0,0,1,.228,1.653c-.706,1.735-.225,3.416.073,5.12.2,1.136.633,2.305.088,3.4-.643,1.3-.416,2.719-.557,4.079-.2,1.945-.278,3.909-.341,5.868a8.942,8.942,0,0,0,.163,3.4,6.347,6.347,0,0,1,.142,4.406,11.61,11.61,0,0,0-.3,5.1c.222,1.963.264,3.927-1.408,5.4a2.5,2.5,0,0,0-.777,2.823c.962,2.185.8,4.871,2.758,6.417.1,1.531-1.006,2.782-.15,4.2.18.3-.012.91-.151,1.332a13.033,13.033,0,0,0-.5,5.8,13.6,13.6,0,0,1,.045,4.476,9.14,9.14,0,0,0,.078,4.05,3.639,3.639,0,0,1,2.649.429,2.6,2.6,0,0,0,1.348.124c2.074-.116,4.144-.265,6.218-.4a4.108,4.108,0,0,1,1.036-.055c.378.079.75.139,1.122.188-.072-.662-.138-1.324-.232-1.986a27.182,27.182,0,0,1,.1-9.25c.027-.133.033-.274.054-.408a8.286,8.286,0,0,0,2.245-1.061,2.75,2.75,0,0,0,2.753.911,17.13,17.13,0,0,1,5.566-.258,59.373,59.373,0,0,0,6.685.355c-.035-.68-.109-1.364-.192-2.026a13,13,0,0,1,.5-5.8c.139-.423.331-1.035.151-1.333-.856-1.423.248-2.674.15-4.205-1.96-1.546-1.8-4.232-2.758-6.417a2.5,2.5,0,0,1,.777-2.823c1.671-1.472,1.629-3.436,1.407-5.4a11.619,11.619,0,0,1,.3-5.1,6.35,6.35,0,0,0-.141-4.407,8.938,8.938,0,0,1-.163-3.4c.062-1.96.14-3.924.34-5.869.142-1.36-.086-2.777.558-4.078.544-1.1.11-2.268-.089-3.4-.3-1.7-.778-3.385-.073-5.12a2.876,2.876,0,0,0-.228-1.653,29.773,29.773,0,0,1-.794-11.658c.13-1.477.526-2.922.683-4.4a4.545,4.545,0,0,0-.272-2c-.586-1.549-1.128-3.035-.18-4.632a2.6,2.6,0,0,0,.123-1.348c-.116-2.074-.265-4.145-.4-6.218a4.067,4.067,0,0,1-.056-1.037,9.929,9.929,0,0,0-.079-5.073,25.58,25.58,0,0,1-.464-5.151,20.7,20.7,0,0,0-.969-5.775,3.923,3.923,0,0,1-.146-1.719,17.416,17.416,0,0,0-1.3-7.589,15.981,15.981,0,0,0,.964-2.056,5.6,5.6,0,0,0,.512-2.662c-.488-2.135.384-4.4-.794-6.468a2.809,2.809,0,0,1,0-1.681,29.584,29.584,0,0,0,.479-5.851A47.243,47.243,0,0,0,336.262,148.769Z"/><path class="cls-2" d="M569.949,269.9a2.964,2.964,0,0,0,0-1.779c-1.246-2.185-.323-4.587-.84-6.848a5.953,5.953,0,0,1,.542-2.819,16.932,16.932,0,0,1,1.021-2.176,18.452,18.452,0,0,1-1.378-8.035,4.163,4.163,0,0,0-.154-1.819,21.927,21.927,0,0,1-1.026-6.114,27.019,27.019,0,0,0-.492-5.454,10.515,10.515,0,0,1-.083-5.37,4.321,4.321,0,0,0-.059-1.1c-.143-2.2-.3-4.387-.424-6.583a2.756,2.756,0,0,1,.131-1.426c1-1.691.429-3.264-.19-4.905a4.791,4.791,0,0,1-.289-2.115c.167-1.562.586-3.092.723-4.656.363-4.143.429-8.281-.841-12.343a3.049,3.049,0,0,1-.241-1.749c.747-1.837.237-3.617-.077-5.421-.211-1.2-.671-2.44-.094-3.6.681-1.377.44-2.878.59-4.318.212-2.059.3-4.138.361-6.213a9.469,9.469,0,0,0-.173-3.6,6.721,6.721,0,0,1-.15-4.665,12.3,12.3,0,0,0,.319-5.4c-.235-2.078-.28-4.158,1.49-5.717a2.874,2.874,0,0,0,1-2.132,2.176,2.176,0,0,0-.179-.856c-1.018-2.313-.846-5.157-2.92-6.794-.1-1.621,1.065-2.945.159-4.452-.191-.315.012-.963.16-1.41a13.783,13.783,0,0,0,.526-6.141,14.432,14.432,0,0,1-.047-4.739,9.669,9.669,0,0,0-.082-4.288,4.432,4.432,0,0,1-.527.05,1.339,1.339,0,0,1-.176-.556,3.238,3.238,0,0,0-.351-1.06,1.306,1.306,0,0,1-.047-1.059,12.814,12.814,0,0,1-2.934.084,4.148,4.148,0,0,0-1.819.155,21.962,21.962,0,0,1-6.114,1.025,27.013,27.013,0,0,0-5.454.492,10.515,10.515,0,0,1-5.37.083,4.321,4.321,0,0,0-1.1.059c-2.195.143-4.388.3-6.583.424a2.76,2.76,0,0,1-1.427-.131c-1.691-1-3.264-.429-4.9.19a4.791,4.791,0,0,1-2.115.289c-1.563-.167-3.092-.586-4.656-.723a36.3,36.3,0,0,0-9.73.228,10.668,10.668,0,0,0,2.239,1.511,6.168,6.168,0,0,1,1.37,1.043,2.771,2.771,0,0,0,1.341.833,1.2,1.2,0,0,1,.576.311c1.074.992,2.262,1.84,3.423,2.722a6.6,6.6,0,0,1,.556.565c.192.186.372.483.594.521.889.154,1.3.843,1.812,1.443a2.848,2.848,0,0,0,.86.619,2.789,2.789,0,0,1,1.132,1.1c.525.877,1.1,1.722,1.628,2.6a2.308,2.308,0,0,0,1.068.966,11.4,11.4,0,0,1,3.082,2.533,1.641,1.641,0,0,1,.346.555c.1.245.193.493.289.739q.343.87.684,1.741a2.94,2.94,0,0,1,.248,2.43.974.974,0,0,0,.107.9c.16.292.321.579.492.861a11.9,11.9,0,0,0-.458,2.694c1.319,1.04,1.729,2.567,2.115,4.136a16.119,16.119,0,0,0,.8,2.658,2.65,2.65,0,0,1-.823,2.988c-1.77,1.559-1.725,3.639-1.49,5.717a12.3,12.3,0,0,1-.319,5.4,6.721,6.721,0,0,0,.15,4.665,9.469,9.469,0,0,1,.173,3.6c-.066,2.075-.149,4.154-.361,6.213-.15,1.44.091,2.941-.59,4.318-.577,1.163-.117,2.4.094,3.6.314,1.8.824,3.584.077,5.421a3.049,3.049,0,0,0,.241,1.749c1.27,4.062,1.2,8.2.841,12.343-.137,1.564-.556,3.094-.723,4.656a4.791,4.791,0,0,0,.289,2.115c.619,1.641,1.193,3.214.19,4.905a2.756,2.756,0,0,0-.131,1.426c.123,2.2.281,4.388.424,6.583a4.321,4.321,0,0,1,.059,1.1,10.515,10.515,0,0,0,.083,5.37,27.019,27.019,0,0,1,.492,5.454,21.927,21.927,0,0,0,1.026,6.114,4.163,4.163,0,0,1,.154,1.819,18.452,18.452,0,0,0,1.378,8.035,16.932,16.932,0,0,0-1.021,2.176,5.953,5.953,0,0,0-.542,2.819c.517,2.261-.406,4.663.84,6.848a2.964,2.964,0,0,1,0,1.779,31.239,31.239,0,0,0-.507,6.195,50.076,50.076,0,0,0,6.786-.522c.043.058.081.119.129.175a1.626,1.626,0,0,1,.544,1.016.506.506,0,0,0,.443.489.466.466,0,0,1,.294.17c.305.5.894.721,1.18,1.232a5.588,5.588,0,0,1,1.048,1.113,1.106,1.106,0,0,1,.31.494.482.482,0,0,0,.282.362.562.562,0,0,1,.372.454,1.436,1.436,0,0,1,.55.011c.4.195.877.271,1.123.709a.436.436,0,0,0,.344.2,4.21,4.21,0,0,1,1.427.543.924.924,0,0,0,.853.063c.165-.066.33-.131.5-.19a1.805,1.805,0,0,1,1.33.073,26.561,26.561,0,0,1-.016,4.423c-.015.322-.051.646-.076.968.991.1,1.983.194,2.973.241a18.093,18.093,0,0,0,5.892-.273,2.913,2.913,0,0,1,2.915.965,8.919,8.919,0,0,1,1.476-.78,8.512,8.512,0,0,1,.9-.343c.023-.143.029-.291.057-.432a28.754,28.754,0,0,0,.1-9.793A38.877,38.877,0,0,1,569.949,269.9ZM566.64,124.919a4.08,4.08,0,0,1-.99-.054A4.08,4.08,0,0,0,566.64,124.919Z"/><path class="cls-3" d="M472.134,184.937a8.1,8.1,0,0,1-.032-1.244,17.437,17.437,0,0,0-.062-2.525,1.7,1.7,0,0,1,.069-.911,1.412,1.412,0,0,0-.078-1c-.077-.289-.406-.107-.511-.423a1.506,1.506,0,0,0-.282-.871.579.579,0,0,1-.108-.371,19.509,19.509,0,0,1-.126-3.132c.048-.255.066-.514.1-.774a3.714,3.714,0,0,0-.343-.358,1.245,1.245,0,0,1-.477-1.106c.019-.471-.028-.946-.049-1.493-.411-.05-.5-.34-.542-.677-.012-.1-.1-.185-.134-.282a1.429,1.429,0,0,1-.167-.513,1.882,1.882,0,0,0-.428-1.239,4.279,4.279,0,0,1-.233-.414,1.3,1.3,0,0,1-.161-.979,1.743,1.743,0,0,0-.464-1.814c-.484-.054-.484-.054-.676-.478a4.169,4.169,0,0,1-.188-.953,1.584,1.584,0,0,0-.283-1.121,1.335,1.335,0,0,1-.21-.509,5.585,5.585,0,0,0-.68-1.24l-.482.071c-.309.043-.438-.039-.507-.341-.034-.153-.027-.319-.075-.466a.469.469,0,0,0-.432-.3c-.156-.02-.219.1-.289.219-.031.05-.117.066-.195.106a2.528,2.528,0,0,0-1.058-1.141,1.132,1.132,0,0,1-.423-.544,1.452,1.452,0,0,0-.488-.6,1.529,1.529,0,0,1-.75-1.04l-.589.022c-.2-.325-.592-.39-.846-.674a6.4,6.4,0,0,1-.944-1.3c-.265-.067-.558-.055-.7-.2a1.959,1.959,0,0,0-.83-.4,2.3,2.3,0,0,1-.749-.424,1.364,1.364,0,0,0-.982-.421c-.067,0-.139-.063-.222-.1a1.614,1.614,0,0,1-.078-.3.59.59,0,0,0-.488-.553,2.857,2.857,0,0,0-1.4-.178,1.931,1.931,0,0,1-1.568-.32,3.213,3.213,0,0,0-.692-.376,7.283,7.283,0,0,0-2.953-.228,6,6,0,0,1-1.315.047c-1.016-.121-2.041-.168-3.06-.259a1.417,1.417,0,0,1-1.308-.726c-.1-.194-.321-.323-.563-.553-.292.4-.706.57-.945.966-.176.292-.323.343-.576.175a1.2,1.2,0,0,0-.668-.181c-.26-.009-.52-.048-.779-.08a2.475,2.475,0,0,0-1.4.093,2.38,2.38,0,0,1-.618.108,2.17,2.17,0,0,0-.542.086,3.593,3.593,0,0,1-1.458.231,1.709,1.709,0,0,0-1.252.353,4.073,4.073,0,0,1-1.851.969,4.935,4.935,0,0,1-1.26.372.418.418,0,0,0-.207.109,1.641,1.641,0,0,1-1.316.293c-.452.383-.883.729-1.293,1.1a2.154,2.154,0,0,1-1.321.732c-.394.351-.7.636-1.017.906a18.136,18.136,0,0,0-2.047,1.852q-.782.9-1.608,1.747c-.365.376-.769.715-1.15,1.076a1.342,1.342,0,0,0-.3.352,3.023,3.023,0,0,1-.989,1.11.756.756,0,0,0-.36,1.006.629.629,0,0,1-.109.735.911.911,0,0,0-.228.732,1.5,1.5,0,0,1-.32,1.035c-.154.212-.31.423-.457.641a1.969,1.969,0,0,0-.319.54,3.735,3.735,0,0,1-.707,1.313,16.277,16.277,0,0,0-.967,1.72c-.267.451-.5.923-.773,1.372-.191.314-.421.6-.635.905a1.754,1.754,0,0,0-.4,1.321,7.822,7.822,0,0,0,.148,1.489.957.957,0,0,1-.021.461,10.09,10.09,0,0,0-.257,3.192,25.321,25.321,0,0,1,.123,2.687c.008.472-.059.944-.075,1.416a5.587,5.587,0,0,0,.108,1.729,1.491,1.491,0,0,1,.026.542,17.361,17.361,0,0,0-.147,2.754c.065,1.159.1,2.319.154,3.479a6.911,6.911,0,0,1-.107,2.044,2.946,2.946,0,0,0-.036.542,9.152,9.152,0,0,1-.094,1.254,2.975,2.975,0,0,0,.041,1.324,2.578,2.578,0,0,1-.006,1.557,2.09,2.09,0,0,0-.062,1.237,3.183,3.183,0,0,1,.063,1.094,4.867,4.867,0,0,0,.069,1.8,2.993,2.993,0,0,1,.068.783c-.021.366-.086.73-.143,1.094a11.76,11.76,0,0,0-.019,3.19,5.729,5.729,0,0,1,.009.945c-.011.314-.067.629-.056.942a20.762,20.762,0,0,1-.044,2.982.994.994,0,0,0,.015.393,4.861,4.861,0,0,1,.012,1.952,5.3,5.3,0,0,0,.087,1.875,1.714,1.714,0,0,1,.021.546c-.016.367-.053.734-.072,1.1-.039.789-.062,1.579-.108,2.367-.046.761-.131,1.52-.163,2.282a7.5,7.5,0,0,0,.09,1.02,1.473,1.473,0,0,1,.041.541c-.128.385.056.725.075,1.085a9.184,9.184,0,0,1-.064,1.1.161.161,0,0,0,.013.078,1.785,1.785,0,0,1,.052.932,4.618,4.618,0,0,0-.021.948,6.749,6.749,0,0,1-.357,2.873,3.5,3.5,0,0,0-.131.855c-.078.759.29,1.5.123,2.261a1.666,1.666,0,0,1,.031,1.16.615.615,0,0,0,.012.313,11.044,11.044,0,0,1,.239,2.432,2.919,2.919,0,0,1-.034.55,6.357,6.357,0,0,0-.038,2.342,2.075,2.075,0,0,1-.025.7c-.013.157-.067.311-.072.467-.032,1.048-.094,2.1-.037,3.145a4.377,4.377,0,0,1-.116,1.412,4.668,4.668,0,0,0-.108,1.333,4.543,4.543,0,0,1-.13,2.1c.127.356-.06.577-.293.822a1.123,1.123,0,0,0-.186.588,2.25,2.25,0,0,0-.007.247c0,.159-.01.312-.014.49a2.987,2.987,0,0,0-.386.385.941.941,0,0,0-.165.43,7.926,7.926,0,0,0,.2,2.727,1.917,1.917,0,0,1-.007.934,3.792,3.792,0,0,0-.155,1.484,1.445,1.445,0,0,1-.21.831,5.828,5.828,0,0,0-.278.652.8.8,0,0,0,.109.819.693.693,0,0,1,0,.88,1.69,1.69,0,0,0-.264,1.055,1.152,1.152,0,0,1-.054.543,2.763,2.763,0,0,0-.181,1.472,2.966,2.966,0,0,1,0,.711,15.091,15.091,0,0,0-.015,2.763.91.91,0,0,0,.115.528,1.382,1.382,0,0,1,.263.807.645.645,0,0,0,.132.36,1.06,1.06,0,0,1,.212.74.761.761,0,0,1,.049.593.451.451,0,0,0,0,.272,1.321,1.321,0,0,1,.1.867c-.019.06.03.142.041.215a3.355,3.355,0,0,0,.232.621,8.542,8.542,0,0,1,.28,1.079,1.777,1.777,0,0,0,.411.9,3.579,3.579,0,0,0,.576.332c.2.131.265.412.525.481a.132.132,0,0,1,.053.022,4.079,4.079,0,0,1,.588.579,4.581,4.581,0,0,0,.336.438,1.539,1.539,0,0,1,.526.952.477.477,0,0,0,.425.457.438.438,0,0,1,.279.157c.294.467.853.669,1.13,1.149a5.221,5.221,0,0,1,1,1.037,1.054,1.054,0,0,1,.3.463.446.446,0,0,0,.27.337.541.541,0,0,1,.357.424,1.372,1.372,0,0,1,.519,0c.377.179.831.245,1.071.655a.407.407,0,0,0,.326.184,3.992,3.992,0,0,1,1.355.5.876.876,0,0,0,.807.048c.154-.064.31-.128.467-.185a1.755,1.755,0,0,1,.508-.06,1.726,1.726,0,0,1,1.189.295,2.776,2.776,0,0,0,1.131.431,10.7,10.7,0,0,0,1.332.107c.13.008.261,0,.391.008.6.033,1.2.059,1.563.653a.315.315,0,0,0,.189.1c.2.046.4.07.6.118.341.081.707-.019,1.035.155a.413.413,0,0,0,.219,0c.222-.024.442-.05.663-.083a1.354,1.354,0,0,0,.322-.079,2.469,2.469,0,0,1,.327-.089.425.425,0,0,1,.027.254,1.9,1.9,0,0,0-.041,1.026,4.183,4.183,0,0,1-.066,1.036,1.265,1.265,0,0,0,.037.863,1.3,1.3,0,0,1-.016,1.222,1.768,1.768,0,0,0-.108,1.311,2.993,2.993,0,0,0,.25.688c.1.186,0,.473.012.714a.7.7,0,0,0,.1.278,1.731,1.731,0,0,1,.13,1.092,4.2,4.2,0,0,0-.036.816,3.021,3.021,0,0,1-.463,2.1c.245.356.246.356.237.627,0,.074-.015.149-.016.223-.006.954,0,.958.934.661l.818.7c.319-.13.639-.265.962-.389a.821.821,0,0,1,.654-.014c.135.06.29.073.428.126a2.981,2.981,0,0,1,1.191.586.824.824,0,0,0,.81.272.881.881,0,0,1,.425.1c.23.084.456.183.655.263l.661-.35a1.466,1.466,0,0,0,1.64.184.962.962,0,0,1,.785.088,3.212,3.212,0,0,1,.747.645l1.222-.47a7.234,7.234,0,0,0,.935.134c.307.008.652.083.887-.239.033-.047.137-.054.21-.058a6.1,6.1,0,0,1,.885-.029,1.156,1.156,0,0,0,1-.39,2.393,2.393,0,0,1,1.245-.767,1.344,1.344,0,0,0,.4-.189,1.345,1.345,0,0,1,1.094-.112c.311.092.494-.048.443-.381a5.633,5.633,0,0,0-.255-1.085,1.532,1.532,0,0,1-.093-1.088.762.762,0,0,0-.061-.646.616.616,0,0,1,.06-.761.484.484,0,0,0,.088-.409,1.312,1.312,0,0,1,.032-1.011.85.85,0,0,0,.007-.356c-.009-.1-.092-.221-.056-.282.278-.466.038-.923,0-1.384a1.551,1.551,0,0,1,.006-.585,3.324,3.324,0,0,0,.123-1.253c-.031-.694-.091-1.391-.067-2.084a7.815,7.815,0,0,0-.176-2,2.065,2.065,0,0,1-.012-.889,2.481,2.481,0,0,0,.014-.789l.082-.014a5.19,5.19,0,0,1,.544-.031c.155-.009.313-.008.466-.03a4.216,4.216,0,0,1,2.325.048.766.766,0,0,0,.46.015,9.688,9.688,0,0,0,1.824-.5.679.679,0,0,1,.379-.068,5.3,5.3,0,0,0,.868.052c.026-.009.044-.031.07-.039a1.79,1.79,0,0,0,.5-.242c.368-.252.73-.515,1.08-.792a3.5,3.5,0,0,1,.8-.492c.324-.135.616-.345.938-.487a2.515,2.515,0,0,1,1.466-.418.262.262,0,0,0,.155-.055,11.829,11.829,0,0,1,1.937-.7,4.635,4.635,0,0,0,2.055-1.369,1.3,1.3,0,0,1,.168-.144c.454-.409.8-.921,1.279-1.31a3.659,3.659,0,0,0,.434-.506,1.859,1.859,0,0,0,.212-.259,5.443,5.443,0,0,1,.3-.482c-.01-.03,0-.06-.014-.09a.347.347,0,0,1,.052-.3,1.165,1.165,0,0,0,.159-.832,3.8,3.8,0,0,1,.024-.709,6.287,6.287,0,0,0-.022-2.12,1.817,1.817,0,0,1-.041-.31,11.681,11.681,0,0,0,.026-2.5.431.431,0,0,1,.082-.3.819.819,0,0,0,.053-.825,2.044,2.044,0,0,1-.148-.691c.007-.454-.246-.93.095-1.359a5.19,5.19,0,0,0,.069-1.635,3.871,3.871,0,0,1-.083-1.334,1.643,1.643,0,0,0-.151-.986.431.431,0,0,1,.028-.521.95.95,0,0,0,.229-1.017c-.036-.112.047-.256.053-.386a3.3,3.3,0,0,0,.007-1.172,1.708,1.708,0,0,1,.035-.545,2.9,2.9,0,0,0-.249-1.914.458.458,0,0,1-.067-.224,5.067,5.067,0,0,1,.086-2.118,6.954,6.954,0,0,0,.3-1.451,2.781,2.781,0,0,0-.054-1.083,2.432,2.432,0,0,1,.039-1.37,1.311,1.311,0,0,1,.04-.179,1.456,1.456,0,0,0,.1-.613c0-.421-.038-.843-.037-1.265a11.446,11.446,0,0,1,.033-2.289,1.339,1.339,0,0,0-.036-.389,11.624,11.624,0,0,1-.133-1.411c.008-.414.184-.823.2-1.238s-.1-.833-.12-1.251c-.01-.258.105-.52.1-.779a16.234,16.234,0,0,0,.072-2.126,1.612,1.612,0,0,1,.031-.313c.026-.366.065-.733.067-1.1a13.459,13.459,0,0,1-.016-1.58,12.737,12.737,0,0,0,.065-1.655,9.172,9.172,0,0,1,.033-2.364,1.255,1.255,0,0,0-.032-.39,2.934,2.934,0,0,1-.037-.465,6.211,6.211,0,0,0,.01-1.8.8.8,0,0,1,.014-.392,3.288,3.288,0,0,0,.054-1.257,14.8,14.8,0,0,1,.02-1.646c.015-.471.052-.946.02-1.416-.106-1.58.013-3.16.018-4.739,0-.6.1-1.205.067-1.811a1.256,1.256,0,0,1,.019-.237,9.465,9.465,0,0,0-.106-3.14,3.747,3.747,0,0,1-.034-1.021,16.771,16.771,0,0,1,.229-1.954c.072-.358-.108-.681-.034-1.017a6.991,6.991,0,0,0,.047-1.734c0-.183.013-.368.023-.551.02-.367.06-.733.06-1.1a12.032,12.032,0,0,1-.022-1.738,11.85,11.85,0,0,0,.048-1.891,6.077,6.077,0,0,1,0-1.183,7.242,7.242,0,0,0,.07-1.416,4,4,0,0,1,.009-.79,12.959,12.959,0,0,0,.009-2.605c0-.2-.1-.413-.086-.616a19.321,19.321,0,0,0,.125-2.836,1.434,1.434,0,0,1,.049-.469,1.815,1.815,0,0,0-.029-1.012,1.242,1.242,0,0,1-.059-.618,6.37,6.37,0,0,0,.055-1.654,15.688,15.688,0,0,1,.039-1.733,6.713,6.713,0,0,1,.1-1.781C472.2,185.105,472.138,185.015,472.134,184.937Zm-20.279,97.536c-.032-.03-.032-.036-.059-.061l.147-.025A.3.3,0,0,1,451.855,282.473Z"/><path class="cls-3" d="M456.452,193.67l.009,0a40.77,40.77,0,0,0,.565-6.162l-.106-.1a2.276,2.276,0,0,1,.6-.609,1.663,1.663,0,0,0,.342-1.362,13.336,13.336,0,0,1,.174-5.317,2.687,2.687,0,0,0-.034-1.172,8.291,8.291,0,0,1,.642-5.2,3.687,3.687,0,0,0,.482-1.389,15.991,15.991,0,0,1,1.354-6.414c.4-.99.838-1.97,1.324-2.934a5.562,5.562,0,0,0,.624-3.726c-.135-.68-.157-1.384-.241-2.073a20.481,20.481,0,0,1,.924-10.259,12.863,12.863,0,0,0,.447-2.318c.522-2.707.943-5.45,2.746-7.707a13.892,13.892,0,0,0,.827-1.309,11.427,11.427,0,0,0-.759-1.29c-.352-.46-.782-.858-1.175-1.278a21.54,21.54,0,0,1,.3-2.149c.535-2.219,1.081-4.437,1.7-6.636.292-1.036.793-2.013,1.13-3.038a7.122,7.122,0,0,0,.414-1.98c.039-1.5.017-3.012.02-4.518a1.335,1.335,0,0,0,.34-.409,1.09,1.09,0,0,1,.375-.525,1,1,0,0,0,.387-.577c.045-.13.089-.262.136-.394a.9.9,0,0,1,.108-.274,6.947,6.947,0,0,0,.548-.611c.136-.215.193-.483.422-.632a1.6,1.6,0,0,0,.533-.7,2.018,2.018,0,0,1,.867-.923,1.612,1.612,0,0,0,.741-.735,1.961,1.961,0,0,1,1.124-1.081.532.532,0,0,0,.351-.372c.137-.468.564-.635.909-.88.068-.049.192-.015.243-.017.373-.313.714-.607,1.062-.889a.744.744,0,0,1,.266-.131,1.1,1.1,0,0,0,.746-.425l.006,0a.143.143,0,0,1,.1-.062c.42-.022.593-.339.767-.65a2.252,2.252,0,0,1,1.281-.149.542.542,0,0,0,.29-.013c.075-.024.131.027.194.041.924-.731,1.861-1.448,2.77-2.195a13.044,13.044,0,0,0,3.879-4.14,3.2,3.2,0,0,1,1.469-1.421,2.086,2.086,0,0,0,.532-1.075c.467-.123.891-.235,1.319-.344a3.055,3.055,0,0,0,1.766-.968,3.144,3.144,0,0,1,2.425-.949,4.121,4.121,0,0,0,2.111-.561,5.816,5.816,0,0,1,.98-.329,1.555,1.555,0,0,0,.662-.31,5.939,5.939,0,0,1,1.926-1.339,1.2,1.2,0,0,0,.5-.512A2.051,2.051,0,0,1,502.317,89a4.945,4.945,0,0,0,1.3-.672,9.5,9.5,0,0,1,2.494-1.261,14.976,14.976,0,0,0,2.361-1.192c.3-.162.585-.366.882-.54,1.319-.77,2.648-1.524,3.955-2.31a3,3,0,0,1,1.509-.548,2.215,2.215,0,0,0,.838-.215,4.235,4.235,0,0,1,3.014-.36c.458.127,1.006-.078,1.459.054a3.985,3.985,0,0,0,2.827-.43c.763-.331,1.591-.494,2.346-.889,1.306.415,2.605.86,3.916,1.258a4.735,4.735,0,0,0,1.474.106c2.77-.082,5.453.928,8.237.659a.7.7,0,0,1,.292.057c1.977.728,4.092.691,6.128,1.1,1.258.249,2.5.564,3.753.853a20.85,20.85,0,0,0,2.9.661c2.367.2,4.681.93,7.1.692a4.907,4.907,0,0,1,1.452.274c2,.444,3.98.928,5.981,1.331.335.067.667.149,1,.211,2.412.436,4.673,1.663,7.235,1.368.021,0,.045.007.066.006.027-.289.071-.576.109-.864-.04-.035-.1-.031-.146-.056.229-1.269.506-2.532.622-3.815-.078,1.3-.306,2.581-.476,3.871.006,0,.016,0,.02.008a1.09,1.09,0,0,0,.713.245c.15.01.3.02.451.032a.965.965,0,0,1,.318.038,7.767,7.767,0,0,0,.792.4c.265.084.561.067.781.267a1.753,1.753,0,0,0,.88.364,2.262,2.262,0,0,1,.372.128,2.542,2.542,0,0,0,.115-.97,13.173,13.173,0,0,1,.7-4.683c.032-.14.054-.282.085-.422a.852.852,0,0,1-.342-.188,1.183,1.183,0,0,0-.652-.247,1.772,1.772,0,0,1-.75-.345,2.976,2.976,0,0,0-1.74-1.648c-.015-.064-.058-.106-.06-.182a.311.311,0,0,0-.509-.257,1.506,1.506,0,0,1-1.357.12,1.161,1.161,0,0,0-.569-.063,5.36,5.36,0,0,1-.953.047,19.624,19.624,0,0,0,1.983.746c.13.037.259.064.387.1-.015.049-.029.1-.04.148-.084-.026-.168-.051-.251-.078a19.824,19.824,0,0,1-1.949-.83c-.067,0-.135-.009-.2-.006A2.536,2.536,0,0,1,572.4,81a3.105,3.105,0,0,0,.631-.007c.066-.006.134,0,.2,0-.345-.145-.69-.293-1.044-.413a7,7,0,0,0-1.975-.432c-.685-.025-1.37-.026-2.053-.031-1.295-.007-2.589-.009-3.88-.053a7.223,7.223,0,0,1-2.331-.43c-.5-.192-.844-.747-1.27-1.128a3.289,3.289,0,0,0-.471-.3l-1.659,1.343c-1.8-.838-3.777-1.01-5.606-1.818a10,10,0,0,0-4.581-1.028,19,19,0,0,1-4.88-.7c-.675-.114-1.312-.465-1.988-.583-1.458-.253-2.977-.247-4.179-1.331a1.439,1.439,0,0,0-.844-.236c-1.484-.061-2.968-.123-4.454-.128-1.414,0-2.827.011-4.241.025a.711.711,0,0,0-1.287-.171c-.055.066-.129.079-.186.14-.017.018-.039.023-.056.039a3.466,3.466,0,0,1-2.632,1.071,2.661,2.661,0,0,0-1.29.278,23.024,23.024,0,0,1-2.485.946,3.979,3.979,0,0,1-2.827.43c-.452-.132-1,.074-1.459-.052a4.242,4.242,0,0,0-3.014.358,2.215,2.215,0,0,1-.838.215,3.032,3.032,0,0,0-1.509.548c-.148.09-.3.173-.449.264-1.163.69-2.337,1.365-3.506,2.046-.3.174-.577.378-.882.54A14.939,14.939,0,0,1,503,81.6a9.512,9.512,0,0,0-2.493,1.262,4.947,4.947,0,0,1-1.3.671,2.055,2.055,0,0,0-1.432,1.176,1.2,1.2,0,0,1-.5.509,5.98,5.98,0,0,0-1.926,1.339,1.57,1.57,0,0,1-.661.312,5.581,5.581,0,0,0-.98.327,4.1,4.1,0,0,1-2.11.562,3.151,3.151,0,0,0-2.427.949,3.05,3.05,0,0,1-1.765.968c-.427.109-.853.221-1.32.343a2.089,2.089,0,0,1-.532,1.077,3.2,3.2,0,0,0-1.469,1.421,13.026,13.026,0,0,1-3.879,4.138c-.909.75-1.845,1.465-2.77,2.2-.063-.014-.118-.063-.193-.042a.533.533,0,0,1-.29.014,2.267,2.267,0,0,0-1.281.148c-.175.312-.348.629-.768.651a.131.131,0,0,0-.1.063l-.008,0a1.1,1.1,0,0,1-.743.424.723.723,0,0,0-.267.13c-.348.283-.688.577-1.062.889-.05,0-.174-.029-.244.019-.345.243-.772.411-.908.879a.531.531,0,0,1-.351.371,1.967,1.967,0,0,0-1.123,1.082,1.416,1.416,0,0,1-.581.62,1.686,1.686,0,0,0,.943.71,1.529,1.529,0,0,1-.949-.706c-.054.036-.1.08-.156.11a2.015,2.015,0,0,0-.865.924,1.6,1.6,0,0,1-.535.7c-.228.149-.284.417-.421.631a6.807,6.807,0,0,1-.548.611.9.9,0,0,0-.108.275c-.047.133-.092.263-.135.394a1.006,1.006,0,0,1-.388.577,1.1,1.1,0,0,0-.376.524,1.615,1.615,0,0,1-.484.585,2.752,2.752,0,0,0-1.883,1.16c-.052,0-.1.013-.148.009-.374-.056-.747-.112-1.121-.158-.428,1.977-.888,3.948-1.256,5.934a.892.892,0,0,1-.11.322,1.187,1.187,0,0,0-.15.626c0,.114-.013.228-.018.343-.485,2.2-1.457,4.317-1.164,6.669a2.717,2.717,0,0,1-.292,1.448,14.728,14.728,0,0,0-1,5.515,107.49,107.49,0,0,1-2.172,15.6,13.174,13.174,0,0,0-.7,4.683,6.826,6.826,0,0,1-.407,2.025,34.632,34.632,0,0,0-.948,4.946c-.167,3.191-1.072,6.253-1.413,9.406a1.753,1.753,0,0,1-.313.828,4.752,4.752,0,0,0-.825,3.663,10.786,10.786,0,0,1-.2,2.359c-.1.887-.219,1.769-.305,2.658-.082.851-.165,1.7-.238,2.553-.089,1.022-.169,2.046-.285,3.066-.311,2.766-1.065,5.448-1.6,8.176a26.671,26.671,0,0,0,5.236,1.793A12.811,12.811,0,0,1,456.452,193.67ZM575.443,84.12c0-.031,0-.062,0-.093C575.443,84.058,575.446,84.089,575.443,84.12Zm-7.19-3.709a12.789,12.789,0,0,1-.572,2.278,15.289,15.289,0,0,0,.434-2.25Zm-1.367,4.975a1.75,1.75,0,0,0,1.215.262,10.1,10.1,0,0,0,1.154,0,1.144,1.144,0,0,1,.566.09,1.516,1.516,0,0,0,1.361-.063c.059-.033.105,0,.16-.009-.033.01-.058-.012-.091.009a1.514,1.514,0,0,1-1.358.12,1.125,1.125,0,0,0-.568-.064,10.181,10.181,0,0,1-1.154.048,1.736,1.736,0,0,1-1.224-.211,1.115,1.115,0,0,0-.357-.134c0-.058,0-.115,0-.174A.944.944,0,0,1,566.886,85.386Z"/></g><g id="solo_testo" data-name="solo testo"><path class="cls-1" d="M597.65,92.058a11.513,11.513,0,0,0,.079,1.561,22.017,22.017,0,0,0,6.809-2.442l-.315,2.686a11.114,11.114,0,0,1-6.278,2.5c-2.309.024-4.414-1.328-4.451-4.886-.062-5.991,4.462-12.028,10.484-12.091a5.214,5.214,0,0,1,3.413,1.057l-.81,3.128A5.936,5.936,0,0,0,604.109,83C599.8,83.049,597.61,88.221,597.65,92.058Z"/><path class="cls-1" d="M621.59,83.7c.059,5.679-3.53,11.614-9.947,12.68-1.379-.578-2.7-1.127-3.919-1.707a18.307,18.307,0,0,1-.608-4.394c-.067-6.459,4.029-11.713,10.488-11.78a13.732,13.732,0,0,1,1.936.136l.812,3.082,1.094.143A12.1,12.1,0,0,1,621.59,83.7Zm-3.47-.589c0-.342-.007-.684-.042-1-4.584.329-6.981,3.817-6.927,9a14.648,14.648,0,0,0,.245,2.557C616.253,92.614,618.161,87.071,618.12,83.107Z"/><path class="cls-1" d="M639.939,80.946a77.608,77.608,0,0,0-4.4,15.275l-3.969-.583a47.171,47.171,0,0,1,1.369-6.381,61.43,61.43,0,0,1-7.23,6.941L623.3,94.882l.03-.032-1.035-.582c1.382-5.1,2.892-9.892,4.147-15.271l3.971.831c-.925,4-2.1,8.042-3.247,11.768,2.844-2.621,5.4-5.362,7.595-7.82q.729-1.926,1.459-3.759Z"/><path class="cls-1" d="M657.882,81.134a51.389,51.389,0,0,0-4.9,14.905l-3.876-.615a69.7,69.7,0,0,1,3.188-11.487,84.838,84.838,0,0,0-7.452,6.6c-.388,1.626-.779,3.065-1.139,4.442l-3.754-.9c1.112-4.131,2.533-8.485,3.9-14.863l4,.769a48.933,48.933,0,0,1-1.652,6.134,84.055,84.055,0,0,1,8.072-6.981Z"/><path class="cls-1" d="M670.086,81.6c-1.216.107-2.433.182-3.649.195A124.737,124.737,0,0,0,662.486,95l-3.628-.743c.6-2.627,1.55-7.069,3.241-12.516-1.281-.08-2.374-.162-3.061-.249l.443-2.407c1,.052,2.185.1,3.434.12.726-2.161,1.576-4.448,2.519-6.829l4.225,1.235c-.822,1.881-1.552,3.73-2.251,5.578,1-.072,2.027-.145,3.274-.283Z"/><path class="cls-1" d="M672.817,89.341a13.374,13.374,0,0,0-.029,3.122c1.028-.073,2.839-.093,6.9-2.163l-.314,2.717a10.586,10.586,0,0,1-6,2.248c-3.058.031-4.792-1.729-4.611-5.321.231-4.807,3.015-10.078,8.8-11.761l5.164,1.475a9.678,9.678,0,0,1,.466,2.771c.035,3.338-2.465,6.017-7.051,6.065a22.151,22.151,0,0,1-3.155-.247A8.14,8.14,0,0,0,672.817,89.341Zm.934-3.255a8.524,8.524,0,0,0,1.593.139,3.93,3.93,0,0,0,4.077-4,5.592,5.592,0,0,0-.266-1.558A11.657,11.657,0,0,0,673.751,86.086Z"/><path class="cls-1" d="M698.957,79.552a47.331,47.331,0,0,0-3.142,9.831l-3.6-.618a47.141,47.141,0,0,1,1.352-5.008c-1.94,2.424-3.969,5.346-5.784,7.925-.27,1-.6,2.034-.9,3.067l-3.754-.9c1.111-4.129,2.592-8.794,3.9-15.143l4,.832a39.882,39.882,0,0,1-1.773,6.571,72.9,72.9,0,0,1,6.683-8.494Z"/><path class="cls-1" d="M711.115,81.576a4.72,4.72,0,0,0-1.558.235c.012,1.155.739,2.021,1.718,3.165,1.739,2.105,3.376,3.617,3.4,5.489.026,2.465-3.664,4.782-6.877,4.815a8.045,8.045,0,0,1-5.2-1.693l1.057-3.382a12.28,12.28,0,0,0,7.29,1.921c-.231-1.277-1.711-2.6-2.754-3.872-1.771-2.165-2.407-3.282-2.42-4.624-.025-2.37,3.252-5.37,6.528-5.405a10.982,10.982,0,0,1,4.848,1.043l-1.021,3.817A10.162,10.162,0,0,0,711.115,81.576Z"/><path class="cls-1" d="M733.279,82.532c.055,5.242-2.045,13.408-10.508,12.749l-.255-3.493c5.9.219,6.747-5.407,6.792-10.058-2.777,3.056-5.492,6.019-7.9,8.79-.868,3.442-1.826,7.353-3,11.39l-3.847-.8c1.868-6.385,4.78-17.431,5.939-22.966l4.127.706a39.572,39.572,0,0,1-1.835,6.6,67.181,67.181,0,0,1,7.066-7.686l3.169,1.682A18.69,18.69,0,0,1,733.279,82.532Z"/><path class="cls-1" d="M749.4,84.33a56.5,56.5,0,0,0-3.633,10.742l-3.566-.743a35.306,35.306,0,0,1,1.442-5.414,48.655,48.655,0,0,1-6.025,5.773c-.722-.428-1.474-.764-2.76-1.407a14.9,14.9,0,0,1-.283-3.148c-.054-5.149,3.656-11.553,12.408-13.173l.911,3.641c-6.851,1.319-9.457,5.84-9.5,10.428,2.411-2.24,5.93-5.866,8.122-8.2Z"/><path class="cls-1" d="M754.67,90.423a11.321,11.321,0,0,0,.079,1.559,21.975,21.975,0,0,0,6.809-2.442l-.316,2.687a11.107,11.107,0,0,1-6.277,2.5c-2.31.025-4.414-1.327-4.451-4.884-.063-5.992,4.462-12.03,10.484-12.092a5.208,5.208,0,0,1,3.412,1.057l-.809,3.127a5.921,5.921,0,0,0-2.472-.566C756.823,81.413,754.63,86.585,754.67,90.423Z"/><path class="cls-1" d="M767.909,88.349a13.4,13.4,0,0,0-.03,3.123c1.029-.074,2.839-.092,6.9-2.164l-.315,2.719a10.577,10.577,0,0,1-6,2.246c-3.058.033-4.792-1.728-4.612-5.319.231-4.808,3.016-10.079,8.8-11.763l5.164,1.476a9.747,9.747,0,0,1,.466,2.771c.034,3.339-2.465,6.018-7.052,6.066a22.309,22.309,0,0,1-3.154-.248A8.152,8.152,0,0,0,767.909,88.349Zm.933-3.254a8.359,8.359,0,0,0,1.594.139,3.931,3.931,0,0,0,4.077-4.006,5.609,5.609,0,0,0-.266-1.556A11.654,11.654,0,0,0,768.842,85.1Z"/><path class="cls-3" d="M391.957,30.621A152.649,152.649,0,0,0,384.023,53.8l-3.659-.742a146.994,146.994,0,0,1,7.4-23.98Z"/><path class="cls-3" d="M397.123,38.4A125.905,125.905,0,0,0,392.29,53.74l-3.721-.772a99.473,99.473,0,0,1,4.487-15.588Zm.906-2.912-3.755-1.053a64.759,64.759,0,0,1,2.887-7.363l3.85,1.114C400.309,29.66,399.364,31.885,398.029,35.487Z"/><path class="cls-3" d="M414.766,39.558a51.359,51.359,0,0,0-4.9,14.905l-3.876-.616a69.556,69.556,0,0,1,3.189-11.485,84.513,84.513,0,0,0-7.452,6.6c-.389,1.626-.78,3.065-1.14,4.442l-3.754-.9c1.112-4.13,2.533-8.484,3.9-14.864l4,.771a48.979,48.979,0,0,1-1.652,6.134,84.319,84.319,0,0,1,8.072-6.982Z"/><path class="cls-3" d="M419,47.876A13.326,13.326,0,0,0,418.97,51c1.029-.073,2.839-.092,6.9-2.163l-.314,2.719a10.589,10.589,0,0,1-6,2.246c-3.058.032-4.792-1.729-4.612-5.319.231-4.807,3.016-10.08,8.8-11.763l5.164,1.476a9.713,9.713,0,0,1,.466,2.772c.035,3.339-2.465,6.017-7.052,6.065a22.3,22.3,0,0,1-3.154-.248A7.832,7.832,0,0,0,419,47.876Zm.933-3.255a8.376,8.376,0,0,0,1.593.14,3.932,3.932,0,0,0,4.078-4.006,5.58,5.58,0,0,0-.266-1.558A11.66,11.66,0,0,0,419.933,44.621Z"/><path class="cls-3" d="M442.2,40.269a4.723,4.723,0,0,0-1.558.236c.012,1.154.739,2.02,1.719,3.165,1.738,2.1,3.376,3.616,3.395,5.487.026,2.465-3.663,4.782-6.877,4.816a8.051,8.051,0,0,1-5.2-1.7l1.057-3.381a12.283,12.283,0,0,0,7.291,1.921c-.231-1.277-1.712-2.6-2.755-3.871-1.77-2.165-2.406-3.283-2.42-4.625-.025-2.371,3.252-5.37,6.528-5.4a10.969,10.969,0,0,1,4.848,1.042l-1.021,3.818A10.162,10.162,0,0,0,442.2,40.269Z"/><path class="cls-3" d="M464.361,41.225c.055,5.243-2.045,13.408-10.508,12.748L453.6,50.48c5.9.219,6.747-5.406,6.792-10.056-2.777,3.055-5.492,6.017-7.9,8.788-.869,3.442-1.827,7.352-3,11.39l-3.846-.8c1.868-6.386,4.779-17.432,5.939-22.967l4.126.706a39.55,39.55,0,0,1-1.835,6.6,67.284,67.284,0,0,1,7.066-7.687l3.17,1.683A18.712,18.712,0,0,1,464.361,41.225Z"/><path class="cls-3" d="M480.48,43.023a56.617,56.617,0,0,0-3.633,10.742l-3.565-.744a35.269,35.269,0,0,1,1.442-5.413,48.8,48.8,0,0,1-6.026,5.773c-.721-.43-1.474-.766-2.76-1.407a14.992,14.992,0,0,1-.283-3.149c-.053-5.147,3.656-11.554,12.408-13.173l.912,3.642c-6.852,1.319-9.457,5.841-9.5,10.428,2.41-2.241,5.93-5.867,8.122-8.2Z"/><path class="cls-3" d="M485.752,49.114a11.532,11.532,0,0,0,.079,1.561,22.029,22.029,0,0,0,6.809-2.443l-.316,2.687a11.115,11.115,0,0,1-6.277,2.5c-2.309.023-4.414-1.327-4.451-4.885-.063-5.99,4.462-12.029,10.484-12.093a5.22,5.22,0,0,1,3.412,1.058l-.809,3.129a5.937,5.937,0,0,0-2.471-.568C487.905,40.1,485.712,45.277,485.752,49.114Z"/><path class="cls-3" d="M498.991,47.043a13.309,13.309,0,0,0-.029,3.121c1.028-.073,2.838-.093,6.905-2.163l-.315,2.718a10.583,10.583,0,0,1-6,2.247c-3.057.031-4.792-1.73-4.611-5.32.231-4.807,3.016-10.079,8.8-11.762l5.164,1.475a9.679,9.679,0,0,1,.466,2.772c.035,3.339-2.465,6.017-7.052,6.065a22.149,22.149,0,0,1-3.154-.247A8.14,8.14,0,0,0,498.991,47.043Zm.934-3.255a8.532,8.532,0,0,0,1.593.14,3.931,3.931,0,0,0,4.077-4.006,5.593,5.593,0,0,0-.266-1.559A11.659,11.659,0,0,0,499.925,43.788Z"/><path class="cls-1" d="M148.3,184.148a152.554,152.554,0,0,0-7.935,23.175l-3.659-.742a147.06,147.06,0,0,1,7.4-23.982Z"/><path class="cls-1" d="M149.415,201.674a13.383,13.383,0,0,0-.03,3.121c1.029-.072,2.839-.092,6.905-2.162l-.315,2.717a10.573,10.573,0,0,1-6,2.247c-3.058.032-4.793-1.729-4.612-5.32.231-4.807,3.016-10.078,8.8-11.761l5.164,1.475a9.711,9.711,0,0,1,.465,2.772c.035,3.337-2.464,6.016-7.051,6.064a22.151,22.151,0,0,1-3.155-.247A7.947,7.947,0,0,0,149.415,201.674Zm.933-3.256a8.453,8.453,0,0,0,1.593.14,3.93,3.93,0,0,0,4.078-4,5.667,5.667,0,0,0-.266-1.559A11.667,11.667,0,0,0,150.348,198.418Z"/><path class="cls-1" d="M181.814,193.566l-3.619.132a126.048,126.048,0,0,0-3.981,13.273l-3.627-.744c.6-2.627,1.549-7.037,3.209-12.42l-1.154.011c-1.373.015-2.715,0-3.994.011a116.4,116.4,0,0,0-3.982,13.241l-3.628-.743c.6-2.658,1.58-7.131,3.271-12.609-1.249-.05-2.311-.1-3.091-.156l.442-2.407,3.465.058c.727-2.13,1.545-4.417,2.488-6.767l4.226,1.236c-.823,1.88-1.552,3.76-2.251,5.578.968.021,1.966.01,2.964,0,.5-.006,1.218-.013,2.091-.054.726-2.161,1.545-4.479,2.518-6.86l4.226,1.235c-.792,1.85-1.522,3.667-2.221,5.453,1.123-.043,2.308-.086,3.556-.162Z"/><path class="cls-1" d="M184.763,201.306a13.325,13.325,0,0,0-.03,3.121c1.028-.074,2.838-.092,6.905-2.163l-.316,2.718a10.567,10.567,0,0,1-6,2.246c-3.057.033-4.792-1.728-4.611-5.319.23-4.808,3.016-10.078,8.8-11.762l5.164,1.476a9.71,9.71,0,0,1,.465,2.771c.035,3.338-2.464,6.017-7.051,6.065a22.276,22.276,0,0,1-3.154-.247A7.809,7.809,0,0,0,184.763,201.306Zm.932-3.256a8.365,8.365,0,0,0,1.594.139,3.929,3.929,0,0,0,4.077-4,5.608,5.608,0,0,0-.265-1.557A11.66,11.66,0,0,0,185.7,198.05Z"/><path class="cls-1" d="M210.9,191.516a47.433,47.433,0,0,0-3.143,9.831l-3.595-.618a47.142,47.142,0,0,1,1.353-5.007c-1.942,2.423-3.97,5.346-5.784,7.924-.271,1-.6,2.035-.905,3.068l-3.754-.9c1.112-4.13,2.592-8.8,3.9-15.143l4,.832a39.935,39.935,0,0,1-1.773,6.571,72.635,72.635,0,0,1,6.684-8.494Z"/><path class="cls-1" d="M223.06,193.542a4.72,4.72,0,0,0-1.558.235c.012,1.154.738,2.02,1.718,3.164,1.738,2.1,3.377,3.617,3.4,5.489.026,2.464-3.664,4.782-6.878,4.815a8.056,8.056,0,0,1-5.2-1.694l1.057-3.381a12.286,12.286,0,0,0,7.291,1.921c-.232-1.278-1.712-2.6-2.755-3.872-1.771-2.165-2.406-3.284-2.42-4.625-.025-2.37,3.252-5.37,6.528-5.4a10.963,10.963,0,0,1,4.847,1.043l-1.021,3.817A10.167,10.167,0,0,0,223.06,193.542Z"/><path class="cls-1" d="M245.224,194.5c.054,5.242-2.045,13.408-10.509,12.748l-.254-3.492c5.9.219,6.746-5.407,6.792-10.057-2.777,3.055-5.493,6.017-7.9,8.788-.87,3.443-1.828,7.354-3,11.391l-3.847-.8c1.868-6.386,4.78-17.431,5.939-22.967l4.127.706a39.651,39.651,0,0,1-1.835,6.6,67.193,67.193,0,0,1,7.066-7.687l3.17,1.683A18.839,18.839,0,0,1,245.224,194.5Z"/><path class="cls-1" d="M261.343,196.3a56.5,56.5,0,0,0-3.633,10.742l-3.565-.743a35.251,35.251,0,0,1,1.441-5.414,48.655,48.655,0,0,1-6.025,5.773c-.722-.429-1.474-.764-2.761-1.407a14.983,14.983,0,0,1-.282-3.148c-.054-5.149,3.655-11.553,12.407-13.173l.912,3.641c-6.852,1.32-9.457,5.84-9.5,10.428,2.41-2.241,5.93-5.867,8.121-8.2Z"/><path class="cls-1" d="M266.615,202.387a11.367,11.367,0,0,0,.078,1.56,22.007,22.007,0,0,0,6.81-2.442l-.316,2.687a11.114,11.114,0,0,1-6.278,2.5c-2.308.024-4.414-1.327-4.45-4.884-.063-5.992,4.461-12.03,10.483-12.092a5.215,5.215,0,0,1,3.413,1.056l-.81,3.129a5.914,5.914,0,0,0-2.471-.566C268.768,193.378,266.575,198.549,266.615,202.387Z"/><path class="cls-1" d="M279.854,200.314a13.333,13.333,0,0,0-.03,3.122c1.029-.073,2.839-.092,6.906-2.163l-.316,2.718a10.58,10.58,0,0,1-6,2.247c-3.057.031-4.793-1.728-4.611-5.32.23-4.808,3.015-10.078,8.8-11.762l5.164,1.476a9.636,9.636,0,0,1,.465,2.771c.036,3.338-2.464,6.017-7.051,6.065a22.461,22.461,0,0,1-3.155-.247A8.139,8.139,0,0,0,279.854,200.314Zm.933-3.255a8.453,8.453,0,0,0,1.593.14,3.93,3.93,0,0,0,4.078-4.005,5.623,5.623,0,0,0-.266-1.558A11.662,11.662,0,0,0,280.787,197.059Z"/><path class="cls-1" d="M608.5,184.148a152.514,152.514,0,0,0-7.934,23.175l-3.659-.742a147.03,147.03,0,0,1,7.4-23.982Z"/><path class="cls-1" d="M609.613,201.674a13.307,13.307,0,0,0-.029,3.121c1.028-.073,2.838-.092,6.905-2.162l-.315,2.717a10.583,10.583,0,0,1-6,2.247c-3.057.032-4.792-1.729-4.611-5.32.231-4.807,3.015-10.079,8.8-11.762l5.164,1.475a9.679,9.679,0,0,1,.466,2.772c.035,3.338-2.465,6.017-7.052,6.065a22.3,22.3,0,0,1-3.154-.247A8.115,8.115,0,0,0,609.613,201.674Zm.934-3.256a8.447,8.447,0,0,0,1.593.14,3.93,3.93,0,0,0,4.077-4.006,5.614,5.614,0,0,0-.265-1.558A11.655,11.655,0,0,0,610.547,198.418Z"/><path class="cls-1" d="M642.013,193.565l-3.619.132a125.9,125.9,0,0,0-3.981,13.274l-3.628-.744c.6-2.627,1.55-7.037,3.21-12.421l-1.155.011c-1.373.015-2.714,0-3.994.011a116.668,116.668,0,0,0-3.981,13.242l-3.628-.743c.6-2.658,1.579-7.131,3.27-12.61-1.248-.05-2.31-.1-3.091-.156l.443-2.407,3.465.058c.726-2.129,1.545-4.416,2.488-6.766l4.226,1.236c-.823,1.88-1.553,3.76-2.251,5.577.967.021,1.966.01,2.964,0,.5-.006,1.217-.013,2.09-.054.727-2.16,1.545-4.479,2.519-6.859l4.226,1.235c-.792,1.849-1.522,3.666-2.222,5.452,1.123-.043,2.309-.087,3.556-.162Z"/><path class="cls-1" d="M644.961,201.306a13.325,13.325,0,0,0-.03,3.121c1.029-.074,2.84-.092,6.906-2.163l-.315,2.718a10.572,10.572,0,0,1-6,2.246c-3.058.033-4.792-1.728-4.611-5.319.231-4.808,3.015-10.079,8.8-11.763l5.164,1.476a9.678,9.678,0,0,1,.466,2.771c.035,3.339-2.465,6.018-7.052,6.066a22.287,22.287,0,0,1-3.154-.247A8.115,8.115,0,0,0,644.961,201.306Zm.934-3.256a8.346,8.346,0,0,0,1.592.139,3.93,3.93,0,0,0,4.078-4.006,5.573,5.573,0,0,0-.266-1.557A11.657,11.657,0,0,0,645.9,198.05Z"/><path class="cls-1" d="M671.1,191.516a47.433,47.433,0,0,0-3.143,9.831l-3.595-.619a47.176,47.176,0,0,1,1.352-5.006c-1.941,2.422-3.969,5.345-5.784,7.924-.27,1-.6,2.035-.905,3.068l-3.753-.9c1.112-4.13,2.592-8.8,3.9-15.144l4,.832a39.945,39.945,0,0,1-1.773,6.572,72.543,72.543,0,0,1,6.683-8.494Z"/><path class="cls-1" d="M683.259,193.541a4.727,4.727,0,0,0-1.559.235c.013,1.155.74,2.021,1.719,3.165,1.738,2.1,3.376,3.617,3.4,5.489.026,2.464-3.664,4.782-6.878,4.815a8.054,8.054,0,0,1-5.2-1.694l1.056-3.381a12.29,12.29,0,0,0,7.291,1.921c-.231-1.278-1.712-2.6-2.755-3.872-1.77-2.165-2.406-3.284-2.42-4.625-.024-2.371,3.252-5.37,6.529-5.405a10.977,10.977,0,0,1,4.847,1.043l-1.02,3.818A10.152,10.152,0,0,0,683.259,193.541Z"/><path class="cls-1" d="M705.423,194.5c.055,5.242-2.045,13.407-10.509,12.748l-.254-3.492c5.9.219,6.746-5.407,6.791-10.058-2.776,3.056-5.492,6.018-7.9,8.789-.868,3.443-1.826,7.353-3,11.391l-3.846-.8c1.868-6.385,4.779-17.43,5.939-22.967l4.127.706a39.782,39.782,0,0,1-1.835,6.6A67.212,67.212,0,0,1,702,189.726l3.169,1.683A18.694,18.694,0,0,1,705.423,194.5Z"/><path class="cls-1" d="M721.542,196.3a56.641,56.641,0,0,0-3.634,10.742l-3.564-.743a35.134,35.134,0,0,1,1.441-5.414,48.585,48.585,0,0,1-6.025,5.773c-.722-.429-1.475-.765-2.761-1.407a15.05,15.05,0,0,1-.282-3.148c-.054-5.149,3.655-11.555,12.407-13.173l.912,3.64c-6.851,1.32-9.457,5.841-9.5,10.429,2.411-2.241,5.931-5.867,8.122-8.2Z"/><path class="cls-1" d="M726.814,202.387a11.189,11.189,0,0,0,.079,1.56,22,22,0,0,0,6.808-2.442l-.315,2.686a11.108,11.108,0,0,1-6.278,2.5c-2.309.024-4.414-1.327-4.451-4.884-.062-5.992,4.462-12.031,10.485-12.094a5.213,5.213,0,0,1,3.412,1.057l-.81,3.129a5.932,5.932,0,0,0-2.471-.567C728.967,193.377,726.774,198.549,726.814,202.387Z"/><path class="cls-1" d="M740.053,200.314a13.333,13.333,0,0,0-.03,3.122c1.029-.073,2.838-.092,6.9-2.163l-.315,2.718a10.583,10.583,0,0,1-6,2.247c-3.057.031-4.792-1.729-4.611-5.32.231-4.808,3.016-10.079,8.8-11.763l5.164,1.476a9.742,9.742,0,0,1,.466,2.771c.034,3.339-2.465,6.018-7.052,6.066a22.427,22.427,0,0,1-3.154-.247A7.843,7.843,0,0,0,740.053,200.314Zm.933-3.255a8.453,8.453,0,0,0,1.593.14,3.93,3.93,0,0,0,4.077-4.006,5.62,5.62,0,0,0-.265-1.558A11.659,11.659,0,0,0,740.986,197.059Z"/><path class="cls-3" d="M389.358,345.221a152.611,152.611,0,0,0-7.934,23.174l-3.659-.742a147.027,147.027,0,0,1,7.4-23.981Z"/><path class="cls-3" d="M394.524,353a125.808,125.808,0,0,0-4.833,15.342l-3.721-.774a99.463,99.463,0,0,1,4.487-15.587Zm.906-2.912-3.756-1.053a65.03,65.03,0,0,1,2.888-7.363l3.85,1.114C397.71,344.259,396.766,346.485,395.43,350.087Z"/><path class="cls-3" d="M412.166,354.157a51.368,51.368,0,0,0-4.9,14.905l-3.876-.614a69.453,69.453,0,0,1,3.188-11.487,84.522,84.522,0,0,0-7.452,6.6c-.389,1.626-.78,3.066-1.14,4.443l-3.754-.9c1.112-4.131,2.533-8.484,3.9-14.863l4,.77a48.928,48.928,0,0,1-1.653,6.133,83.914,83.914,0,0,1,8.072-6.98Z"/><path class="cls-3" d="M416.4,362.475a13.382,13.382,0,0,0-.029,3.123c1.029-.074,2.839-.093,6.905-2.164l-.315,2.719a10.579,10.579,0,0,1-6,2.246c-3.058.032-4.793-1.728-4.611-5.32.23-4.808,3.015-10.078,8.8-11.762l5.165,1.476a9.672,9.672,0,0,1,.466,2.771c.034,3.339-2.465,6.018-7.052,6.065a22.161,22.161,0,0,1-3.155-.247A8.152,8.152,0,0,0,416.4,362.475Zm.934-3.254a8.524,8.524,0,0,0,1.593.139,3.931,3.931,0,0,0,4.078-4.006,5.6,5.6,0,0,0-.266-1.556A11.654,11.654,0,0,0,417.334,359.221Z"/><path class="cls-3" d="M439.6,354.869a4.7,4.7,0,0,0-1.558.234c.012,1.155.739,2.022,1.718,3.165,1.739,2.105,3.377,3.618,3.4,5.49.026,2.465-3.663,4.781-6.877,4.815a8.053,8.053,0,0,1-5.2-1.694l1.057-3.382a12.288,12.288,0,0,0,7.291,1.922c-.232-1.278-1.712-2.6-2.755-3.872-1.771-2.166-2.406-3.283-2.42-4.625-.024-2.371,3.252-5.369,6.528-5.4a10.98,10.98,0,0,1,4.848,1.042l-1.021,3.817A10.147,10.147,0,0,0,439.6,354.869Z"/><path class="cls-3" d="M461.762,355.824c.055,5.242-2.044,13.409-10.508,12.749L451,365.08c5.9.219,6.746-5.406,6.791-10.057-2.776,3.056-5.492,6.018-7.9,8.789-.869,3.443-1.827,7.353-3,11.39l-3.847-.8c1.868-6.383,4.78-17.431,5.939-22.966l4.127.706a39.576,39.576,0,0,1-1.835,6.6,67.107,67.107,0,0,1,7.067-7.687l3.169,1.683A18.812,18.812,0,0,1,461.762,355.824Z"/><path class="cls-3" d="M477.881,357.623a56.547,56.547,0,0,0-3.633,10.742l-3.565-.743a35.276,35.276,0,0,1,1.442-5.414,48.634,48.634,0,0,1-6.025,5.772c-.722-.428-1.475-.764-2.761-1.406a14.986,14.986,0,0,1-.283-3.149c-.053-5.149,3.656-11.553,12.408-13.172l.912,3.639c-6.852,1.32-9.457,5.842-9.5,10.43,2.411-2.241,5.931-5.867,8.121-8.2Z"/><path class="cls-3" d="M483.153,363.715a11.3,11.3,0,0,0,.08,1.559,21.944,21.944,0,0,0,6.808-2.442l-.315,2.687a11.106,11.106,0,0,1-6.278,2.5c-2.309.025-4.414-1.327-4.451-4.884-.062-5.992,4.462-12.03,10.484-12.092a5.209,5.209,0,0,1,3.413,1.057l-.81,3.128a5.92,5.92,0,0,0-2.472-.567C485.307,354.705,483.113,359.877,483.153,363.715Z"/><path class="cls-3" d="M496.393,361.642a13.409,13.409,0,0,0-.031,3.122c1.03-.074,2.839-.092,6.906-2.164l-.315,2.719a10.572,10.572,0,0,1-6,2.246c-3.057.033-4.792-1.728-4.611-5.319.23-4.808,3.016-10.078,8.8-11.762l5.164,1.476a9.7,9.7,0,0,1,.465,2.77c.035,3.339-2.464,6.018-7.051,6.066a22.289,22.289,0,0,1-3.155-.247A7.958,7.958,0,0,0,496.393,361.642Zm.933-3.255a8.356,8.356,0,0,0,1.593.139A3.93,3.93,0,0,0,503,354.52a5.6,5.6,0,0,0-.265-1.556A11.649,11.649,0,0,0,497.326,358.387Z"/></g></svg>