<svg id="Livello_1" data-name="Livello 1" xmlns="http://www.w3.org/2000/svg" viewBox="0 0 952 514.642"><defs><style>.cls-1,.cls-5,.cls-6{fill:none;}.cls-2{fill:#ff4f79;}.cls-3{fill:#fff0f0;}.cls-4{fill:#1b6eb6;}.cls-5,.cls-6{stroke:#1b6eb6;stroke-miterlimit:10;}.cls-5{stroke-width:1.3px;}.cls-6{stroke-width:2.6px;}</style></defs><title>manuale_ill_nuove</title><rect class="cls-1" x="785.399" y="124.969" width="38.045" height="38.045"/><path class="cls-2" d="M803.361,148.037v1.321h-7.927v-1.482c2.819-1.725,6.107-3.48,6.107-6.284,0-1.241-.548-2.03-2.385-2.03-2,0-2.53.886-2.53,2.4a2.735,2.735,0,0,0,.129.983l-1.531-.112a7.559,7.559,0,0,1-.064-1.031c0-2.144,1.4-3.562,4.076-3.562,3.142,0,3.819,1.741,3.819,3.191,0,3.093-2.9,4.834-4.673,6.026l-.87.387v.193Z"/><path class="cls-2" d="M807.175,139.868c0-2.014.935-3.158,2.514-3.158,1.66,0,2.449,1.127,2.449,3.094,0,2.029-.934,3.174-2.513,3.174C807.965,142.978,807.175,141.85,807.175,139.868Zm3.835-.016c0-1.386-.37-2.111-1.337-2.111-1,0-1.37.74-1.37,2.094,0,1.37.371,2.1,1.338,2.1C810.64,141.931,811.01,141.205,811.01,139.852Z"/><rect class="cls-1" x="785.399" y="86.924" width="38.045" height="38.045"/><path class="cls-2" d="M803.361,109.994v1.321h-7.927v-1.482c2.819-1.725,6.107-3.48,6.107-6.284,0-1.241-.548-2.03-2.385-2.03-2,0-2.53.886-2.53,2.4a2.735,2.735,0,0,0,.129.983l-1.531-.112a7.559,7.559,0,0,1-.064-1.031c0-2.144,1.4-3.562,4.076-3.562,3.142,0,3.819,1.741,3.819,3.191,0,3.093-2.9,4.834-4.673,6.026l-.87.387v.193Z"/><path class="cls-2" d="M812.4,103.807v1.014h-4.673v-1.014h1.966v-3.223l-1.966.741v-1.063l1.966-.757v-.758h1.128v5.06Z"/><rect class="cls-1" x="785.399" y="48.88" width="38.045" height="38.045"/><path class="cls-2" d="M803.361,71.949v1.322h-7.927V71.788c2.819-1.724,6.107-3.48,6.107-6.284,0-1.241-.548-2.03-2.385-2.03-2,0-2.53.886-2.53,2.4a2.735,2.735,0,0,0,.129.983l-1.531-.112a7.559,7.559,0,0,1-.064-1.031c0-2.144,1.4-3.562,4.076-3.562,3.142,0,3.819,1.741,3.819,3.191,0,3.094-2.9,4.834-4.673,6.026l-.87.387v.193Z"/><path class="cls-2" d="M812.235,65.762v1.014h-4.85V65.665c2.755-1.321,3.5-2.014,3.5-3.109,0-.5-.257-.951-1.224-.951-.935,0-1.289.547-1.289,1.1a1.822,1.822,0,0,0,.145.774l-1.176-.065a3.208,3.208,0,0,1-.113-.822c0-1.191.967-1.981,2.5-1.981,1.741,0,2.321.966,2.321,1.852,0,1.66-1.354,2.449-2.482,2.981l-.644.226v.1Z"/><rect class="cls-1" x="785.399" y="10.835" width="38.045" height="38.045"/><path class="cls-2" d="M803.361,33.9v1.322h-7.927V33.743c2.819-1.724,6.107-3.48,6.107-6.284,0-1.241-.548-2.03-2.385-2.03-2,0-2.53.886-2.53,2.4a2.745,2.745,0,0,0,.129.984l-1.531-.113a7.559,7.559,0,0,1-.064-1.031c0-2.144,1.4-3.562,4.076-3.562,3.142,0,3.819,1.741,3.819,3.191,0,3.094-2.9,4.834-4.673,6.026l-.87.387V33.9Z"/><path class="cls-2" d="M812.122,27.008c0,1.014-.806,1.837-2.965,1.837a6.055,6.055,0,0,1-2.417-.467l.258-.967a5.085,5.085,0,0,0,2.256.435c1.16,0,1.692-.241,1.692-.838,0-.516-.435-.806-1.6-.806h-1.934v-1h2.433a1.413,1.413,0,0,1,.242.017,1.013,1.013,0,0,0,.644-.919c0-.532-.451-.757-1.385-.757a5.277,5.277,0,0,0-2.256.482l-.242-.95a5.838,5.838,0,0,1,2.514-.532c1.611,0,2.53.516,2.53,1.66a1.414,1.414,0,0,1-.919,1.386A1.371,1.371,0,0,1,812.122,27.008Z"/><rect class="cls-3" x="138.636" y="163.014" width="38.045" height="38.045"/><rect class="cls-1" x="138.636" y="163.014" width="38.045" height="38.045"/><path class="cls-4" d="M161.725,181.832c0,4.061-1.531,5.736-4.109,5.736-2.707,0-4.012-1.885-4.012-5.543,0-3.819,1.531-5.736,4.109-5.736C160.42,176.289,161.725,178.175,161.725,181.832Zm-6.606.112c0,.485.016.936.048,1.338l4.721-4.093a2.1,2.1,0,0,0-2.207-1.579C155.715,177.61,155.119,179.125,155.119,181.944Zm5.092-.031c0-.484-.017-.935-.049-1.338l-4.721,4.093a2.094,2.094,0,0,0,2.208,1.579C159.614,186.247,160.211,185.055,160.211,181.913Z"/><rect class="cls-3" x="100.591" y="163.014" width="38.045" height="38.045"/><rect class="cls-1" x="100.591" y="163.014" width="38.045" height="38.045"/><path class="cls-4" d="M123.678,181.832c0,4.061-1.53,5.736-4.109,5.736-2.707,0-4.012-1.885-4.012-5.543,0-3.819,1.531-5.736,4.109-5.736C122.373,176.289,123.678,178.175,123.678,181.832Zm-6.606.112c0,.485.016.936.048,1.338l4.721-4.093a2.1,2.1,0,0,0-2.207-1.579C117.668,177.61,117.072,179.125,117.072,181.944Zm5.092-.031c0-.484-.016-.935-.049-1.338l-4.721,4.093a2.1,2.1,0,0,0,2.208,1.579C121.567,186.247,122.164,185.055,122.164,181.913Z"/><rect class="cls-3" x="62.547" y="163.014" width="38.045" height="38.045"/><rect class="cls-1" x="62.547" y="163.014" width="38.045" height="38.045"/><path class="cls-4" d="M85.635,181.832c0,4.061-1.53,5.736-4.109,5.736-2.707,0-4.012-1.885-4.012-5.543,0-3.819,1.531-5.736,4.109-5.736C84.33,176.289,85.635,178.175,85.635,181.832Zm-6.606.112c0,.485.016.936.048,1.338l4.721-4.093a2.1,2.1,0,0,0-2.207-1.579C79.625,177.61,79.029,179.125,79.029,181.944Zm5.092-.031c0-.484-.016-.935-.049-1.338l-4.721,4.093a2.1,2.1,0,0,0,2.208,1.579C83.524,186.247,84.121,185.055,84.121,181.913Z"/><rect class="cls-3" x="176.681" y="124.969" width="38.045" height="38.045"/><rect class="cls-1" x="176.681" y="124.969" width="38.045" height="38.045"/><path class="cls-4" d="M199.768,143.783c0,4.061-1.531,5.737-4.109,5.737-2.707,0-4.012-1.886-4.012-5.543,0-3.82,1.531-5.737,4.109-5.737C198.463,138.24,199.768,140.126,199.768,143.783Zm-6.606.113c0,.484.016.935.048,1.337l4.721-4.092a2.094,2.094,0,0,0-2.207-1.579C193.758,139.562,193.162,141.076,193.162,143.9Zm5.091-.032c0-.484-.016-.935-.048-1.338l-4.721,4.093a2.094,2.094,0,0,0,2.207,1.579C197.657,148.2,198.253,147.006,198.253,143.864Z"/><rect class="cls-3" x="176.681" y="86.925" width="38.045" height="38.045"/><rect class="cls-1" x="176.681" y="86.924" width="38.045" height="38.045"/><path class="cls-4" d="M199.768,105.74c0,4.061-1.531,5.737-4.109,5.737-2.707,0-4.012-1.886-4.012-5.543,0-3.82,1.531-5.737,4.109-5.737C198.463,100.2,199.768,102.083,199.768,105.74Zm-6.606.113c0,.484.016.935.048,1.337l4.721-4.092a2.094,2.094,0,0,0-2.207-1.579C193.758,101.519,193.162,103.033,193.162,105.853Zm5.091-.032c0-.484-.016-.935-.048-1.338l-4.721,4.093a2.094,2.094,0,0,0,2.207,1.579C197.657,110.155,198.253,108.963,198.253,105.821Z"/><rect class="cls-3" x="176.681" y="48.88" width="38.045" height="38.045"/><rect class="cls-1" x="176.681" y="48.88" width="38.045" height="38.045"/><path class="cls-4" d="M199.768,67.695c0,4.061-1.531,5.737-4.109,5.737-2.707,0-4.012-1.886-4.012-5.543,0-3.82,1.531-5.737,4.109-5.737C198.463,62.152,199.768,64.038,199.768,67.695Zm-6.606.113c0,.484.016.935.048,1.338l4.721-4.093a2.094,2.094,0,0,0-2.207-1.579C193.758,63.474,193.162,64.988,193.162,67.808Zm5.091-.032c0-.484-.016-.935-.048-1.337l-4.721,4.092a2.094,2.094,0,0,0,2.207,1.579C197.657,72.11,198.253,70.918,198.253,67.776Z"/><rect class="cls-3" x="176.681" y="10.835" width="38.045" height="38.045"/><rect class="cls-1" x="176.681" y="10.835" width="38.045" height="38.045"/><path class="cls-4" d="M199.768,29.65c0,4.061-1.531,5.737-4.109,5.737-2.707,0-4.012-1.886-4.012-5.543,0-3.82,1.531-5.737,4.109-5.737C198.463,24.107,199.768,25.993,199.768,29.65Zm-6.606.113c0,.484.016.935.048,1.338l4.721-4.093a2.094,2.094,0,0,0-2.207-1.579C193.758,25.429,193.162,26.943,193.162,29.763Zm5.091-.032c0-.484-.016-.935-.048-1.337l-4.721,4.092a2.094,2.094,0,0,0,2.207,1.579C197.657,34.065,198.253,32.873,198.253,29.731Z"/><rect class="cls-2" x="176.681" y="163.014" width="38.045" height="38.045"/><rect class="cls-1" x="176.681" y="163.014" width="38.045" height="38.045"/><path class="cls-4" d="M190.067,178.276v9.131h-1.906l-3.061-7.748h-.135l.067,7.748h-1.141v-9.131H185.8l3.075,7.748h.12l-.067-7.748Z"/><path class="cls-4" d="M198.926,178.276v5.358c0,2.82-1.343,3.908-3.263,3.908-2.028,0-3.182-1.061-3.182-3.814v-5.452h1.235v5.385c0,2.081.577,2.779,1.974,2.779s2-.724,2-2.739v-5.425Z"/><path class="cls-4" d="M207.556,186.293v1.114h-5.828v-9.131h1.235v8.017Z"/><rect class="cls-3" x="214.726" y="124.969" width="38.045" height="38.045"/><rect class="cls-1" x="214.726" y="124.969" width="38.045" height="38.045"/><path class="cls-4" d="M237.988,148.037v1.321h-7.67v-1.321h3.416v-6.929l-3.416,1.305V140.98l3.416-1.3V138.4h1.483v9.636Z"/><rect class="cls-3" x="214.726" y="86.925" width="38.045" height="38.045"/><rect class="cls-1" x="214.726" y="86.924" width="38.045" height="38.045"/><path class="cls-4" d="M237.811,105.74c0,4.061-1.531,5.737-4.109,5.737-2.707,0-4.012-1.886-4.012-5.543,0-3.82,1.531-5.737,4.109-5.737C236.506,100.2,237.811,102.083,237.811,105.74Zm-6.606.113c0,.484.016.935.048,1.337l4.721-4.092a2.094,2.094,0,0,0-2.207-1.579C231.8,101.519,231.205,103.033,231.205,105.853Zm5.091-.032c0-.484-.016-.935-.048-1.338l-4.721,4.093a2.094,2.094,0,0,0,2.207,1.579C235.7,110.155,236.3,108.963,236.3,105.821Z"/><rect class="cls-3" x="214.726" y="48.88" width="38.045" height="38.045"/><rect class="cls-1" x="214.726" y="48.88" width="38.045" height="38.045"/><path class="cls-4" d="M237.811,67.695c0,4.061-1.531,5.737-4.109,5.737-2.707,0-4.012-1.886-4.012-5.543,0-3.82,1.531-5.737,4.109-5.737C236.506,62.152,237.811,64.038,237.811,67.695Zm-6.606.113c0,.484.016.935.048,1.338l4.721-4.093a2.094,2.094,0,0,0-2.207-1.579C231.8,63.474,231.205,64.988,231.205,67.808Zm5.091-.032c0-.484-.016-.935-.048-1.337l-4.721,4.092a2.094,2.094,0,0,0,2.207,1.579C235.7,72.11,236.3,70.918,236.3,67.776Z"/><rect class="cls-3" x="214.726" y="10.835" width="38.045" height="38.045"/><rect class="cls-1" x="214.726" y="10.835" width="38.045" height="38.045"/><path class="cls-4" d="M237.811,29.65c0,4.061-1.531,5.737-4.109,5.737-2.707,0-4.012-1.886-4.012-5.543,0-3.82,1.531-5.737,4.109-5.737C236.506,24.107,237.811,25.993,237.811,29.65Zm-6.606.113c0,.484.016.935.048,1.338l4.721-4.093a2.094,2.094,0,0,0-2.207-1.579C231.8,25.429,231.205,26.943,231.205,29.763Zm5.091-.032c0-.484-.016-.935-.048-1.337l-4.721,4.092a2.094,2.094,0,0,0,2.207,1.579C235.7,34.065,236.3,32.873,236.3,29.731Z"/><rect class="cls-2" x="214.726" y="163.014" width="38.045" height="38.045"/><rect class="cls-1" x="214.726" y="163.014" width="38.045" height="38.045"/><path class="cls-4" d="M221.74,186.991l.363-1.155a5.624,5.624,0,0,0,2.793.618c1.329,0,2.094-.363,2.094-1.275,0-1.826-5.115-1.826-5.115-4.633,0-1.558,1.356-2.4,3.249-2.4a6.914,6.914,0,0,1,2.847.55l-.349,1.116a5.619,5.619,0,0,0-2.592-.578c-1.141,0-1.907.363-1.907,1.209,0,1.892,5.116,1.892,5.116,4.632,0,1.705-1.49,2.471-3.423,2.471A7.284,7.284,0,0,1,221.74,186.991Z"/><path class="cls-4" d="M230.062,182.923c0-3.385,1.678-4.781,3.732-4.781,2.162,0,3.652,1.37,3.652,4.686s-1.678,4.714-3.732,4.714C231.552,187.542,230.062,186.172,230.062,182.923Zm6.123-.027c0-2.686-.887-3.653-2.417-3.653s-2.445.994-2.445,3.613.887,3.584,2.417,3.584S236.185,185.46,236.185,182.9Z"/><path class="cls-4" d="M245.66,178.276v9.131h-1.235v-4.014h-3.894v4.014H239.3v-9.131h1.236v4.029h3.894v-4.029Z"/><rect class="cls-3" x="252.771" y="124.969" width="38.045" height="38.045"/><rect class="cls-1" x="252.771" y="124.969" width="38.045" height="38.045"/><path class="cls-4" d="M275.858,143.783c0,4.061-1.531,5.737-4.109,5.737-2.707,0-4.012-1.886-4.012-5.543,0-3.82,1.531-5.737,4.109-5.737C274.553,138.24,275.858,140.126,275.858,143.783Zm-6.606.113c0,.484.016.935.048,1.337l4.721-4.092a2.094,2.094,0,0,0-2.207-1.579C269.848,139.562,269.252,141.076,269.252,143.9Zm5.091-.032c0-.484-.016-.935-.048-1.338l-4.721,4.093a2.094,2.094,0,0,0,2.207,1.579C273.747,148.2,274.343,147.006,274.343,143.864Z"/><rect class="cls-3" x="252.771" y="86.925" width="38.045" height="38.045"/><rect class="cls-1" x="252.771" y="86.924" width="38.045" height="38.045"/><path class="cls-4" d="M276.035,109.994v1.321h-7.67v-1.321h3.416v-6.929l-3.416,1.305v-1.433l3.416-1.3v-1.274h1.483v9.636Z"/><rect class="cls-3" x="252.771" y="48.88" width="38.045" height="38.045"/><rect class="cls-1" x="252.771" y="48.88" width="38.045" height="38.045"/><path class="cls-4" d="M275.858,67.695c0,4.061-1.531,5.737-4.109,5.737-2.707,0-4.012-1.886-4.012-5.543,0-3.82,1.531-5.737,4.109-5.737C274.553,62.152,275.858,64.038,275.858,67.695Zm-6.606.113c0,.484.016.935.048,1.338l4.721-4.093a2.094,2.094,0,0,0-2.207-1.579C269.848,63.474,269.252,64.988,269.252,67.808Zm5.091-.032c0-.484-.016-.935-.048-1.337l-4.721,4.092a2.094,2.094,0,0,0,2.207,1.579C273.747,72.11,274.343,70.918,274.343,67.776Z"/><rect class="cls-3" x="252.771" y="10.835" width="38.045" height="38.045"/><rect class="cls-1" x="252.771" y="10.835" width="38.045" height="38.045"/><path class="cls-4" d="M275.858,29.65c0,4.061-1.531,5.737-4.109,5.737-2.707,0-4.012-1.886-4.012-5.543,0-3.82,1.531-5.737,4.109-5.737C274.553,24.107,275.858,25.993,275.858,29.65Zm-6.606.113c0,.484.016.935.048,1.338l4.721-4.093a2.094,2.094,0,0,0-2.207-1.579C269.848,25.429,269.252,26.943,269.252,29.763Zm5.091-.032c0-.484-.016-.935-.048-1.337l-4.721,4.092a2.094,2.094,0,0,0,2.207,1.579C273.747,34.065,274.343,32.873,274.343,29.731Z"/><rect class="cls-2" x="252.771" y="163.014" width="38.045" height="38.045"/><rect class="cls-1" x="252.771" y="163.014" width="38.045" height="38.045"/><path class="cls-4" d="M259.783,186.991l.363-1.155a5.624,5.624,0,0,0,2.793.618c1.329,0,2.094-.363,2.094-1.275,0-1.826-5.115-1.826-5.115-4.633,0-1.558,1.356-2.4,3.249-2.4a6.914,6.914,0,0,1,2.847.55l-.349,1.116a5.619,5.619,0,0,0-2.592-.578c-1.141,0-1.907.363-1.907,1.209,0,1.892,5.116,1.892,5.116,4.632,0,1.705-1.49,2.471-3.424,2.471A7.282,7.282,0,0,1,259.783,186.991Z"/><path class="cls-4" d="M275.261,179.4h-2.846v8h-1.236v-8h-2.846v-1.128h6.928Z"/><path class="cls-4" d="M280.615,183.231h-.228l-2.135,4.176h-1.33l2.565-4.78-2.5-4.351h1.3l2.149,3.8h.214l2.162-3.8h1.235l-2.511,4.325,2.578,4.806H282.79Z"/><rect class="cls-3" x="290.816" y="124.969" width="38.045" height="38.045"/><rect class="cls-1" x="290.816" y="124.969" width="38.045" height="38.045"/><path class="cls-4" d="M314.078,148.037v1.321h-7.67v-1.321h3.416v-6.929l-3.416,1.305V140.98l3.416-1.3V138.4h1.483v9.636Z"/><rect class="cls-3" x="290.816" y="86.925" width="38.045" height="38.045"/><rect class="cls-1" x="290.816" y="86.924" width="38.045" height="38.045"/><path class="cls-4" d="M314.078,109.994v1.321h-7.67v-1.321h3.416v-6.929l-3.416,1.305v-1.433l3.416-1.3v-1.274h1.483v9.636Z"/><rect class="cls-3" x="290.816" y="48.88" width="38.045" height="38.045"/><rect class="cls-1" x="290.816" y="48.88" width="38.045" height="38.045"/><path class="cls-4" d="M313.9,67.695c0,4.061-1.531,5.737-4.109,5.737-2.707,0-4.012-1.886-4.012-5.543,0-3.82,1.531-5.737,4.109-5.737C312.6,62.152,313.9,64.038,313.9,67.695Zm-6.606.113c0,.484.016.935.048,1.338l4.721-4.093a2.094,2.094,0,0,0-2.207-1.579C307.891,63.474,307.3,64.988,307.3,67.808Zm5.091-.032c0-.484-.016-.935-.048-1.337l-4.721,4.092a2.094,2.094,0,0,0,2.207,1.579C311.79,72.11,312.386,70.918,312.386,67.776Z"/><rect class="cls-3" x="290.816" y="10.835" width="38.045" height="38.045"/><rect class="cls-1" x="290.816" y="10.835" width="38.045" height="38.045"/><path class="cls-4" d="M313.9,29.65c0,4.061-1.531,5.737-4.109,5.737-2.707,0-4.012-1.886-4.012-5.543,0-3.82,1.531-5.737,4.109-5.737C312.6,24.107,313.9,25.993,313.9,29.65Zm-6.606.113c0,.484.016.935.048,1.338l4.721-4.093a2.094,2.094,0,0,0-2.207-1.579C307.891,25.429,307.3,26.943,307.3,29.763Zm5.091-.032c0-.484-.016-.935-.048-1.337l-4.721,4.092a2.094,2.094,0,0,0,2.207,1.579C311.79,34.065,312.386,32.873,312.386,29.731Z"/><rect class="cls-2" x="290.816" y="163.014" width="38.045" height="38.045"/><rect class="cls-1" x="290.816" y="163.014" width="38.045" height="38.045"/><path class="cls-4" d="M299.518,179.364v2.941h4.458v1.088h-4.458v2.926h4.592v1.088h-5.827v-9.131h5.827v1.088Z"/><path class="cls-4" d="M313.3,179.4h-2.846v8h-1.236v-8h-2.846v-1.128H313.3Z"/><path class="cls-4" d="M318.658,183.231h-.228l-2.135,4.176h-1.33l2.565-4.78-2.5-4.351h1.3l2.148,3.8h.215l2.162-3.8H322.1l-2.511,4.325,2.578,4.806h-1.329Z"/><rect class="cls-3" x="328.86" y="124.969" width="38.045" height="38.045"/><rect class="cls-1" x="328.86" y="124.969" width="38.045" height="38.045"/><path class="cls-4" d="M351.948,143.783c0,4.061-1.531,5.737-4.109,5.737-2.707,0-4.012-1.886-4.012-5.543,0-3.82,1.531-5.737,4.109-5.737C350.643,138.24,351.948,140.126,351.948,143.783Zm-6.607.113c0,.484.017.935.049,1.337l4.721-4.092a2.1,2.1,0,0,0-2.208-1.579C345.938,139.562,345.341,141.076,345.341,143.9Zm5.092-.032c0-.484-.016-.935-.048-1.338l-4.721,4.093a2.094,2.094,0,0,0,2.207,1.579C349.837,148.2,350.433,147.006,350.433,143.864Z"/><rect class="cls-3" x="328.86" y="86.925" width="38.045" height="38.045"/><rect class="cls-1" x="328.86" y="86.924" width="38.045" height="38.045"/><path class="cls-4" d="M351.948,105.74c0,4.061-1.531,5.737-4.109,5.737-2.707,0-4.012-1.886-4.012-5.543,0-3.82,1.531-5.737,4.109-5.737C350.643,100.2,351.948,102.083,351.948,105.74Zm-6.607.113c0,.484.017.935.049,1.337l4.721-4.092a2.1,2.1,0,0,0-2.208-1.579C345.938,101.519,345.341,103.033,345.341,105.853Zm5.092-.032c0-.484-.016-.935-.048-1.338l-4.721,4.093a2.094,2.094,0,0,0,2.207,1.579C349.837,110.155,350.433,108.963,350.433,105.821Z"/><rect class="cls-3" x="328.86" y="48.88" width="38.045" height="38.045"/><rect class="cls-1" x="328.86" y="48.88" width="38.045" height="38.045"/><path class="cls-4" d="M352.125,71.949v1.322h-7.67V71.949h3.416V65.021l-3.416,1.3V64.892l3.416-1.3V62.314h1.483v9.635Z"/><rect class="cls-3" x="328.86" y="10.835" width="38.045" height="38.045"/><rect class="cls-1" x="328.86" y="10.835" width="38.045" height="38.045"/><path class="cls-4" d="M351.948,29.65c0,4.061-1.531,5.737-4.109,5.737-2.707,0-4.012-1.886-4.012-5.543,0-3.82,1.531-5.737,4.109-5.737C350.643,24.107,351.948,25.993,351.948,29.65Zm-6.607.113c0,.484.017.935.049,1.338l4.721-4.093a2.1,2.1,0,0,0-2.208-1.579C345.938,25.429,345.341,26.943,345.341,29.763Zm5.092-.032c0-.484-.016-.935-.048-1.337l-4.721,4.092a2.094,2.094,0,0,0,2.207,1.579C349.837,34.065,350.433,32.873,350.433,29.731Z"/><rect class="cls-2" x="328.86" y="163.014" width="38.045" height="38.045"/><rect class="cls-1" x="328.86" y="163.014" width="38.045" height="38.045"/><path class="cls-4" d="M337.565,179.364v2.941h4.458v1.088h-4.458v2.926h4.592v1.088H336.33v-9.131h5.827v1.088Z"/><path class="cls-4" d="M344.194,182.923c0-3.385,1.679-4.781,3.733-4.781,2.162,0,3.652,1.37,3.652,4.686s-1.678,4.714-3.732,4.714C345.685,187.542,344.194,186.172,344.194,182.923Zm6.123-.027c0-2.686-.886-3.653-2.417-3.653s-2.444.994-2.444,3.613.887,3.584,2.417,3.584C349.418,186.44,350.317,185.46,350.317,182.9Z"/><path class="cls-4" d="M360.075,179.4h-2.846v8h-1.236v-8h-2.846v-1.128h6.928Z"/><rect class="cls-3" x="366.905" y="124.969" width="38.045" height="38.045"/><rect class="cls-1" x="366.905" y="124.969" width="38.045" height="38.045"/><path class="cls-4" d="M390.168,148.037v1.321H382.5v-1.321h3.416v-6.929l-3.416,1.305V140.98l3.416-1.3V138.4H387.4v9.636Z"/><rect class="cls-3" x="366.905" y="86.925" width="38.045" height="38.045"/><rect class="cls-1" x="366.905" y="86.924" width="38.045" height="38.045"/><path class="cls-4" d="M389.991,105.74c0,4.061-1.531,5.737-4.109,5.737-2.707,0-4.012-1.886-4.012-5.543,0-3.82,1.53-5.737,4.109-5.737C388.686,100.2,389.991,102.083,389.991,105.74Zm-6.607.113c0,.484.016.935.049,1.337l4.721-4.092a2.1,2.1,0,0,0-2.208-1.579C383.981,101.519,383.384,103.033,383.384,105.853Zm5.092-.032c0-.484-.016-.935-.048-1.338l-4.721,4.093a2.094,2.094,0,0,0,2.207,1.579C387.88,110.155,388.476,108.963,388.476,105.821Z"/><rect class="cls-3" x="366.905" y="48.88" width="38.045" height="38.045"/><rect class="cls-1" x="366.905" y="48.88" width="38.045" height="38.045"/><path class="cls-4" d="M390.168,71.949v1.322H382.5V71.949h3.416V65.021l-3.416,1.3V64.892l3.416-1.3V62.314H387.4v9.635Z"/><rect class="cls-3" x="366.905" y="10.835" width="38.045" height="38.045"/><rect class="cls-1" x="366.905" y="10.835" width="38.045" height="38.045"/><path class="cls-4" d="M389.991,29.65c0,4.061-1.531,5.737-4.109,5.737-2.707,0-4.012-1.886-4.012-5.543,0-3.82,1.53-5.737,4.109-5.737C388.686,24.107,389.991,25.993,389.991,29.65Zm-6.607.113c0,.484.016.935.049,1.338l4.721-4.093a2.1,2.1,0,0,0-2.208-1.579C383.981,25.429,383.384,26.943,383.384,29.763Zm5.092-.032c0-.484-.016-.935-.048-1.337l-4.721,4.092a2.094,2.094,0,0,0,2.207,1.579C387.88,34.065,388.476,32.873,388.476,29.731Z"/><rect class="cls-2" x="366.905" y="163.014" width="38.045" height="38.045"/><rect class="cls-1" x="366.905" y="163.014" width="38.045" height="38.045"/><path class="cls-4" d="M375.608,179.364v2.941h4.458v1.088h-4.458v2.926H380.2v1.088h-5.827v-9.131H380.2v1.088Z"/><path class="cls-4" d="M389.018,178.276v9.131h-1.907l-3.061-7.748h-.134l.067,7.748h-1.142v-9.131h1.907l3.075,7.748h.121l-.067-7.748Z"/><path class="cls-4" d="M398.709,189.851l-3.921-2.309h-.175c-2.162,0-3.652-1.37-3.652-4.619,0-3.385,1.679-4.781,3.733-4.781,2.162,0,3.652,1.37,3.652,4.686,0,2.377-.859,3.76-2.108,4.364l.752.229,1.732.967Zm-4.069-3.411c1.545,0,2.444-.98,2.444-3.544,0-2.686-.886-3.653-2.417-3.653s-2.444.994-2.444,3.613S393.109,186.44,394.64,186.44Z"/><rect class="cls-3" x="404.95" y="124.969" width="38.045" height="38.045"/><rect class="cls-1" x="404.95" y="124.969" width="38.045" height="38.045"/><path class="cls-4" d="M428.034,143.783c0,4.061-1.531,5.737-4.109,5.737-2.707,0-4.012-1.886-4.012-5.543,0-3.82,1.53-5.737,4.109-5.737C426.729,138.24,428.034,140.126,428.034,143.783Zm-6.607.113c0,.484.016.935.049,1.337l4.721-4.092a2.1,2.1,0,0,0-2.208-1.579C422.024,139.562,421.427,141.076,421.427,143.9Zm5.092-.032c0-.484-.016-.935-.048-1.338l-4.721,4.093a2.094,2.094,0,0,0,2.207,1.579C425.923,148.2,426.519,147.006,426.519,143.864Z"/><rect class="cls-3" x="404.95" y="86.925" width="38.045" height="38.045"/><rect class="cls-1" x="404.95" y="86.924" width="38.045" height="38.045"/><path class="cls-4" d="M428.211,109.994v1.321h-7.67v-1.321h3.416v-6.929l-3.416,1.305v-1.433l3.416-1.3v-1.274h1.483v9.636Z"/><rect class="cls-3" x="404.95" y="48.88" width="38.045" height="38.045"/><rect class="cls-1" x="404.95" y="48.88" width="38.045" height="38.045"/><path class="cls-4" d="M428.211,71.949v1.322h-7.67V71.949h3.416V65.021l-3.416,1.3V64.892l3.416-1.3V62.314h1.483v9.635Z"/><rect class="cls-3" x="404.95" y="10.835" width="38.045" height="38.045"/><rect class="cls-1" x="404.95" y="10.835" width="38.045" height="38.045"/><path class="cls-4" d="M428.034,29.65c0,4.061-1.531,5.737-4.109,5.737-2.707,0-4.012-1.886-4.012-5.543,0-3.82,1.53-5.737,4.109-5.737C426.729,24.107,428.034,25.993,428.034,29.65Zm-6.607.113c0,.484.016.935.049,1.338l4.721-4.093a2.1,2.1,0,0,0-2.208-1.579C422.024,25.429,421.427,26.943,421.427,29.763Zm5.092-.032c0-.484-.016-.935-.048-1.337l-4.721,4.092a2.094,2.094,0,0,0,2.207,1.579C425.923,34.065,426.519,32.873,426.519,29.731Z"/><rect class="cls-2" x="404.95" y="163.014" width="38.045" height="38.045"/><rect class="cls-1" x="404.95" y="163.014" width="38.045" height="38.045"/><path class="cls-4" d="M416.8,184.278h-3.142l-.913,3.129h-1.249l2.78-9.131h1.96l2.78,9.131h-1.289Zm-.322-1.088-.739-2.47-.322-1.369h-.39l-.322,1.369-.725,2.47Z"/><path class="cls-4" d="M420.633,182.923c0-3.545,2.176-4.781,4.163-4.781a5.252,5.252,0,0,1,2.618.6l-.349,1.062a4.4,4.4,0,0,0-2.376-.565c-1.357,0-2.793.846-2.793,3.613,0,2.739,1.168,3.584,2.793,3.584a4.768,4.768,0,0,0,2.376-.63l.322,1.02a5.4,5.4,0,0,1-2.726.712C422.405,187.542,420.633,186.306,420.633,182.923Z"/><path class="cls-4" d="M432.352,182.788l-1.249,1.154v3.465h-1.236v-9.131H431.1v2.887l-.135,1.424,4.915-4.472.014,1.572-2.539,2.322,2.847,5.4h-1.477Z"/><rect class="cls-3" x="442.995" y="124.969" width="38.045" height="38.045"/><rect class="cls-1" x="442.995" y="124.969" width="38.045" height="38.045"/><path class="cls-4" d="M466.258,148.037v1.321h-7.67v-1.321H462v-6.929l-3.416,1.305V140.98l3.416-1.3V138.4h1.482v9.636Z"/><rect class="cls-3" x="442.995" y="86.925" width="38.045" height="38.045"/><rect class="cls-1" x="442.995" y="86.924" width="38.045" height="38.045"/><path class="cls-4" d="M466.258,109.994v1.321h-7.67v-1.321H462v-6.929l-3.416,1.305v-1.433l3.416-1.3v-1.274h1.482v9.636Z"/><rect class="cls-3" x="442.995" y="48.88" width="38.045" height="38.045"/><rect class="cls-1" x="442.995" y="48.88" width="38.045" height="38.045"/><path class="cls-4" d="M466.258,71.949v1.322h-7.67V71.949H462V65.021l-3.416,1.3V64.892l3.416-1.3V62.314h1.482v9.635Z"/><rect class="cls-3" x="442.995" y="10.835" width="38.045" height="38.045"/><rect class="cls-1" x="442.995" y="10.835" width="38.045" height="38.045"/><path class="cls-4" d="M466.081,29.65c0,4.061-1.531,5.737-4.109,5.737-2.707,0-4.012-1.886-4.012-5.543,0-3.82,1.53-5.737,4.108-5.737C464.775,24.107,466.081,25.993,466.081,29.65Zm-6.607.113c0,.484.016.935.049,1.338l4.721-4.093a2.1,2.1,0,0,0-2.208-1.579C460.07,25.429,459.474,26.943,459.474,29.763Zm5.092-.032c0-.484-.016-.935-.048-1.337L459.8,32.486A2.1,2.1,0,0,0,462,34.065C463.97,34.065,464.566,32.873,464.566,29.731Z"/><rect class="cls-2" x="442.995" y="163.014" width="38.045" height="38.045"/><rect class="cls-1" x="442.995" y="163.014" width="38.045" height="38.045"/><path class="cls-4" d="M456.854,184.775c0,1.612-.994,2.632-3.048,2.632h-3.545v-9.131H453.3c2.027,0,3.008.766,3.008,2.444a3.143,3.143,0,0,1-.86,2.014A1.962,1.962,0,0,1,456.854,184.775Zm-5.358-5.411v3.022h2.887a2.366,2.366,0,0,0,.658-1.572c0-.926-.443-1.45-1.88-1.45Zm4.1,5.492c0-.739-.269-1.383-1.49-1.383H451.5v2.846h2.2C455.337,186.319,455.592,185.7,455.592,184.856Z"/><path class="cls-4" d="M460.422,179.364v2.941h4.458v1.088h-4.458v2.926h4.592v1.088h-5.827v-9.131h5.827v1.088Z"/><path class="cls-4" d="M473.872,186.293v1.114h-5.827v-9.131h1.235v8.017Z"/><rect class="cls-3" x="481.04" y="124.969" width="38.045" height="38.045"/><rect class="cls-1" x="481.04" y="124.969" width="38.045" height="38.045"/><path class="cls-4" d="M504.124,143.783c0,4.061-1.531,5.737-4.109,5.737-2.707,0-4.012-1.886-4.012-5.543,0-3.82,1.53-5.737,4.108-5.737C502.818,138.24,504.124,140.126,504.124,143.783Zm-6.607.113c0,.484.016.935.049,1.337l4.721-4.092a2.1,2.1,0,0,0-2.208-1.579C498.113,139.562,497.517,141.076,497.517,143.9Zm5.092-.032c0-.484-.016-.935-.048-1.338l-4.722,4.093a2.1,2.1,0,0,0,2.208,1.579C502.013,148.2,502.609,147.006,502.609,143.864Z"/><rect class="cls-3" x="481.04" y="86.925" width="38.045" height="38.045"/><rect class="cls-1" x="481.04" y="86.924" width="38.045" height="38.045"/><path class="cls-4" d="M504.124,105.74c0,4.061-1.531,5.737-4.109,5.737-2.707,0-4.012-1.886-4.012-5.543,0-3.82,1.53-5.737,4.108-5.737C502.818,100.2,504.124,102.083,504.124,105.74Zm-6.607.113c0,.484.016.935.049,1.337l4.721-4.092a2.1,2.1,0,0,0-2.208-1.579C498.113,101.519,497.517,103.033,497.517,105.853Zm5.092-.032c0-.484-.016-.935-.048-1.338l-4.722,4.093a2.1,2.1,0,0,0,2.208,1.579C502.013,110.155,502.609,108.963,502.609,105.821Z"/><rect class="cls-3" x="481.04" y="48.88" width="38.045" height="38.045"/><rect class="cls-1" x="481.04" y="48.88" width="38.045" height="38.045"/><path class="cls-4" d="M504.124,67.695c0,4.061-1.531,5.737-4.109,5.737-2.707,0-4.012-1.886-4.012-5.543,0-3.82,1.53-5.737,4.108-5.737C502.818,62.152,504.124,64.038,504.124,67.695Zm-6.607.113c0,.484.016.935.049,1.338l4.721-4.093a2.1,2.1,0,0,0-2.208-1.579C498.113,63.474,497.517,64.988,497.517,67.808Zm5.092-.032c0-.484-.016-.935-.048-1.337l-4.722,4.092a2.1,2.1,0,0,0,2.208,1.579C502.013,72.11,502.609,70.918,502.609,67.776Z"/><rect class="cls-3" x="481.04" y="10.835" width="38.045" height="38.045"/><rect class="cls-1" x="481.04" y="10.835" width="38.045" height="38.045"/><path class="cls-4" d="M504.3,33.9v1.322h-7.67V33.9h3.416V26.976l-3.416,1.3V26.847l3.416-1.3V24.269h1.482V33.9Z"/><rect class="cls-2" x="481.04" y="163.014" width="38.045" height="38.045"/><rect class="cls-1" x="481.04" y="163.014" width="38.045" height="38.045"/><path class="cls-4" d="M499.26,184.775c0,1.612-.993,2.632-3.048,2.632h-3.545v-9.131H495.7c2.028,0,3.008.766,3.008,2.444a3.146,3.146,0,0,1-.859,2.014A1.961,1.961,0,0,1,499.26,184.775Zm-5.358-5.411v3.022h2.888a2.369,2.369,0,0,0,.657-1.572c0-.926-.443-1.45-1.88-1.45Zm4.1,5.492c0-.739-.268-1.383-1.49-1.383H493.9v2.846h2.2C497.743,186.319,498,185.7,498,184.856Z"/><path class="cls-4" d="M501.136,186.991l.363-1.155a5.624,5.624,0,0,0,2.793.618c1.329,0,2.094-.363,2.094-1.275,0-1.826-5.115-1.826-5.115-4.633,0-1.558,1.356-2.4,3.249-2.4a6.906,6.906,0,0,1,2.846.55l-.348,1.116a5.622,5.622,0,0,0-2.592-.578c-1.142,0-1.907.363-1.907,1.209,0,1.892,5.116,1.892,5.116,4.632,0,1.705-1.49,2.471-3.424,2.471A7.279,7.279,0,0,1,501.136,186.991Z"/><rect class="cls-3" x="519.085" y="124.969" width="38.045" height="38.045"/><rect class="cls-1" x="519.085" y="124.969" width="38.045" height="38.045"/><path class="cls-4" d="M542.344,148.037v1.321h-7.67v-1.321h3.416v-6.929l-3.416,1.305V140.98l3.416-1.3V138.4h1.482v9.636Z"/><rect class="cls-3" x="519.085" y="86.925" width="38.045" height="38.045"/><rect class="cls-1" x="519.085" y="86.924" width="38.045" height="38.045"/><path class="cls-4" d="M542.167,105.74c0,4.061-1.531,5.737-4.109,5.737-2.707,0-4.013-1.886-4.013-5.543,0-3.82,1.531-5.737,4.109-5.737C540.861,100.2,542.167,102.083,542.167,105.74Zm-6.607.113c0,.484.016.935.048,1.337l4.722-4.092a2.1,2.1,0,0,0-2.208-1.579C536.156,101.519,535.56,103.033,535.56,105.853Zm5.092-.032c0-.484-.016-.935-.048-1.338l-4.722,4.093a2.1,2.1,0,0,0,2.208,1.579C540.056,110.155,540.652,108.963,540.652,105.821Z"/><rect class="cls-3" x="519.085" y="48.88" width="38.045" height="38.045"/><rect class="cls-1" x="519.085" y="48.88" width="38.045" height="38.045"/><path class="cls-4" d="M542.167,67.695c0,4.061-1.531,5.737-4.109,5.737-2.707,0-4.013-1.886-4.013-5.543,0-3.82,1.531-5.737,4.109-5.737C540.861,62.152,542.167,64.038,542.167,67.695Zm-6.607.113c0,.484.016.935.048,1.338l4.722-4.093a2.1,2.1,0,0,0-2.208-1.579C536.156,63.474,535.56,64.988,535.56,67.808Zm5.092-.032c0-.484-.016-.935-.048-1.337l-4.722,4.092a2.1,2.1,0,0,0,2.208,1.579C540.056,72.11,540.652,70.918,540.652,67.776Z"/><rect class="cls-3" x="519.085" y="10.835" width="38.045" height="38.045"/><rect class="cls-1" x="519.085" y="10.835" width="38.045" height="38.045"/><path class="cls-4" d="M542.344,33.9v1.322h-7.67V33.9h3.416V26.976l-3.416,1.3V26.847l3.416-1.3V24.269h1.482V33.9Z"/><rect class="cls-2" x="519.085" y="163.014" width="38.045" height="38.045"/><rect class="cls-1" x="519.085" y="163.014" width="38.045" height="38.045"/><path class="cls-4" d="M536.927,178.276v9.131h-1.235v-4.014H531.8v4.014h-1.235v-9.131H531.8v4.029h3.894v-4.029Z"/><path class="cls-4" d="M545.933,179.4h-2.846v8h-1.236v-8H539v-1.128h6.929Z"/><rect class="cls-3" x="557.13" y="124.969" width="38.045" height="38.045"/><rect class="cls-1" x="557.13" y="124.969" width="38.045" height="38.045"/><path class="cls-4" d="M580.217,143.783c0,4.061-1.53,5.737-4.109,5.737-2.707,0-4.012-1.886-4.012-5.543,0-3.82,1.531-5.737,4.109-5.737C578.912,138.24,580.217,140.126,580.217,143.783Zm-6.606.113c0,.484.016.935.048,1.337l4.721-4.092a2.094,2.094,0,0,0-2.207-1.579C574.207,139.562,573.611,141.076,573.611,143.9Zm5.092-.032c0-.484-.016-.935-.049-1.338l-4.721,4.093a2.1,2.1,0,0,0,2.208,1.579C578.107,148.2,578.7,147.006,578.7,143.864Z"/><rect class="cls-3" x="557.13" y="86.925" width="38.045" height="38.045"/><rect class="cls-1" x="557.13" y="86.924" width="38.045" height="38.045"/><path class="cls-4" d="M580.4,109.994v1.321h-7.67v-1.321h3.416v-6.929l-3.416,1.305v-1.433l3.416-1.3v-1.274h1.482v9.636Z"/><rect class="cls-3" x="557.13" y="48.88" width="38.045" height="38.045"/><rect class="cls-1" x="557.13" y="48.88" width="38.045" height="38.045"/><path class="cls-4" d="M580.217,67.695c0,4.061-1.53,5.737-4.109,5.737-2.707,0-4.012-1.886-4.012-5.543,0-3.82,1.531-5.737,4.109-5.737C578.912,62.152,580.217,64.038,580.217,67.695Zm-6.606.113c0,.484.016.935.048,1.338l4.721-4.093a2.094,2.094,0,0,0-2.207-1.579C574.207,63.474,573.611,64.988,573.611,67.808Zm5.092-.032c0-.484-.016-.935-.049-1.337l-4.721,4.092a2.1,2.1,0,0,0,2.208,1.579C578.107,72.11,578.7,70.918,578.7,67.776Z"/><rect class="cls-3" x="557.13" y="10.835" width="38.045" height="38.045"/><rect class="cls-1" x="557.13" y="10.835" width="38.045" height="38.045"/><path class="cls-4" d="M580.4,33.9v1.322h-7.67V33.9h3.416V26.976l-3.416,1.3V26.847l3.416-1.3V24.269h1.482V33.9Z"/><rect class="cls-2" x="557.13" y="163.014" width="38.045" height="38.045"/><rect class="cls-1" x="557.13" y="163.014" width="38.045" height="38.045"/><path class="cls-4" d="M574.92,186.293v1.114h-5.827v-9.131h1.235v8.017Z"/><path class="cls-4" d="M578.918,179.364v2.941h4.458v1.088h-4.458v4.014h-1.235v-9.131h5.827v1.088Z"/><rect class="cls-3" x="595.174" y="124.969" width="38.045" height="38.045"/><rect class="cls-1" x="595.174" y="124.969" width="38.045" height="38.045"/><path class="cls-4" d="M618.434,148.037v1.321h-7.67v-1.321h3.416v-6.929l-3.416,1.305V140.98l3.416-1.3V138.4h1.482v9.636Z"/><rect class="cls-3" x="595.174" y="86.925" width="38.045" height="38.045"/><rect class="cls-1" x="595.174" y="86.924" width="38.045" height="38.045"/><path class="cls-4" d="M618.434,109.994v1.321h-7.67v-1.321h3.416v-6.929l-3.416,1.305v-1.433l3.416-1.3v-1.274h1.482v9.636Z"/><rect class="cls-3" x="595.174" y="48.88" width="38.045" height="38.045"/><rect class="cls-1" x="595.174" y="48.88" width="38.045" height="38.045"/><path class="cls-4" d="M618.256,67.695c0,4.061-1.53,5.737-4.108,5.737-2.707,0-4.013-1.886-4.013-5.543,0-3.82,1.531-5.737,4.109-5.737C616.951,62.152,618.256,64.038,618.256,67.695Zm-6.606.113c0,.484.016.935.048,1.338l4.722-4.093a2.1,2.1,0,0,0-2.208-1.579C612.246,63.474,611.65,64.988,611.65,67.808Zm5.092-.032c0-.484-.016-.935-.049-1.337l-4.721,4.092a2.1,2.1,0,0,0,2.208,1.579C616.146,72.11,616.742,70.918,616.742,67.776Z"/><rect class="cls-3" x="595.174" y="10.835" width="38.045" height="38.045"/><rect class="cls-1" x="595.174" y="10.835" width="38.045" height="38.045"/><path class="cls-4" d="M618.434,33.9v1.322h-7.67V33.9h3.416V26.976l-3.416,1.3V26.847l3.416-1.3V24.269h1.482V33.9Z"/><rect class="cls-2" x="595.174" y="163.014" width="38.045" height="38.045"/><rect class="cls-1" x="595.174" y="163.014" width="38.045" height="38.045"/><path class="cls-4" d="M613.434,178.276l-2.592,9.131h-2.014l-2.592-9.131h1.289l1.827,6.688.308,1.369h.416l.309-1.369,1.8-6.688Z"/><path class="cls-4" d="M622.023,179.4h-2.847v8h-1.235v-8h-2.847v-1.128h6.929Z"/><rect class="cls-3" x="633.219" y="124.969" width="38.045" height="38.045"/><rect class="cls-1" x="633.219" y="124.969" width="38.045" height="38.045"/><path class="cls-4" d="M656.307,143.783c0,4.061-1.531,5.737-4.109,5.737-2.707,0-4.012-1.886-4.012-5.543,0-3.82,1.531-5.737,4.109-5.737C655,138.24,656.307,140.126,656.307,143.783Zm-6.606.113c0,.484.016.935.048,1.337l4.721-4.092a2.094,2.094,0,0,0-2.207-1.579C650.3,139.562,649.7,141.076,649.7,143.9Zm5.092-.032c0-.484-.017-.935-.049-1.338l-4.721,4.093a2.1,2.1,0,0,0,2.208,1.579C654.2,148.2,654.793,147.006,654.793,143.864Z"/><rect class="cls-3" x="633.219" y="86.925" width="38.045" height="38.045"/><rect class="cls-1" x="633.219" y="86.924" width="38.045" height="38.045"/><path class="cls-4" d="M656.307,105.74c0,4.061-1.531,5.737-4.109,5.737-2.707,0-4.012-1.886-4.012-5.543,0-3.82,1.531-5.737,4.109-5.737C655,100.2,656.307,102.083,656.307,105.74Zm-6.606.113c0,.484.016.935.048,1.337l4.721-4.092a2.094,2.094,0,0,0-2.207-1.579C650.3,101.519,649.7,103.033,649.7,105.853Zm5.092-.032c0-.484-.017-.935-.049-1.338l-4.721,4.093a2.1,2.1,0,0,0,2.208,1.579C654.2,110.155,654.793,108.963,654.793,105.821Z"/><rect class="cls-3" x="633.219" y="48.88" width="38.045" height="38.045"/><rect class="cls-1" x="633.219" y="48.88" width="38.045" height="38.045"/><path class="cls-4" d="M656.484,71.949v1.322h-7.669V71.949h3.416V65.021l-3.416,1.3V64.892l3.416-1.3V62.314h1.482v9.635Z"/><rect class="cls-3" x="633.219" y="10.835" width="38.045" height="38.045"/><rect class="cls-1" x="633.219" y="10.835" width="38.045" height="38.045"/><path class="cls-4" d="M656.484,33.9v1.322h-7.669V33.9h3.416V26.976l-3.416,1.3V26.847l3.416-1.3V24.269h1.482V33.9Z"/><rect class="cls-2" x="633.219" y="163.014" width="38.045" height="38.045"/><rect class="cls-1" x="633.219" y="163.014" width="38.045" height="38.045"/><path class="cls-4" d="M646.284,179.364v2.941h4.458v1.088h-4.458v4.014h-1.236v-9.131h5.828v1.088Z"/><path class="cls-4" d="M655.008,179.364v2.941h4.458v1.088h-4.458v4.014h-1.235v-9.131H659.6v1.088Z"/><rect class="cls-3" x="671.264" y="124.969" width="38.045" height="38.045"/><rect class="cls-1" x="671.264" y="124.969" width="38.045" height="38.045"/><path class="cls-4" d="M694.527,148.037v1.321h-7.669v-1.321h3.416v-6.929l-3.416,1.305V140.98l3.416-1.3V138.4h1.482v9.636Z"/><rect class="cls-3" x="671.264" y="86.925" width="38.045" height="38.045"/><rect class="cls-1" x="671.264" y="86.924" width="38.045" height="38.045"/><path class="cls-4" d="M694.35,105.74c0,4.061-1.531,5.737-4.109,5.737-2.707,0-4.012-1.886-4.012-5.543,0-3.82,1.531-5.737,4.109-5.737C693.045,100.2,694.35,102.083,694.35,105.74Zm-6.606.113c0,.484.016.935.048,1.337l4.721-4.092a2.094,2.094,0,0,0-2.207-1.579C688.34,101.519,687.744,103.033,687.744,105.853Zm5.092-.032c0-.484-.017-.935-.049-1.338l-4.721,4.093a2.094,2.094,0,0,0,2.208,1.579C692.239,110.155,692.836,108.963,692.836,105.821Z"/><rect class="cls-3" x="671.264" y="48.88" width="38.045" height="38.045"/><rect class="cls-1" x="671.264" y="48.88" width="38.045" height="38.045"/><path class="cls-4" d="M694.527,71.949v1.322h-7.669V71.949h3.416V65.021l-3.416,1.3V64.892l3.416-1.3V62.314h1.482v9.635Z"/><rect class="cls-3" x="671.264" y="10.835" width="38.045" height="38.045"/><rect class="cls-1" x="671.264" y="10.835" width="38.045" height="38.045"/><path class="cls-4" d="M694.527,33.9v1.322h-7.669V33.9h3.416V26.976l-3.416,1.3V26.847l3.416-1.3V24.269h1.482V33.9Z"/><rect class="cls-2" x="671.264" y="163.014" width="38.045" height="38.045"/><rect class="cls-1" x="671.264" y="163.014" width="38.045" height="38.045"/><path class="cls-4" d="M682.581,182.923c0-3.545,2.175-4.781,4.163-4.781a5.252,5.252,0,0,1,2.618.6l-.349,1.062a4.406,4.406,0,0,0-2.377-.565c-1.356,0-2.793.846-2.793,3.613,0,2.739,1.169,3.584,2.793,3.584a4.772,4.772,0,0,0,2.377-.63l.322,1.02a5.4,5.4,0,0,1-2.726.712C684.354,187.542,682.581,186.306,682.581,182.923Z"/><path class="cls-4" d="M694.823,184.01h-1.974v3.4h-1.235v-9.131h2.9c2.3,0,3.411.995,3.411,2.672a3.24,3.24,0,0,1-1.786,2.78l2.216,3.679h-1.531Zm-1.974-1.087h2.619a2.077,2.077,0,0,0,1.2-1.881c0-1.154-.632-1.678-2.283-1.678h-1.531Z"/><rect class="cls-3" x="709.309" y="124.969" width="38.045" height="38.045"/><rect class="cls-1" x="709.309" y="124.969" width="38.045" height="38.045"/><path class="cls-4" d="M732.393,143.783c0,4.061-1.531,5.737-4.109,5.737-2.707,0-4.012-1.886-4.012-5.543,0-3.82,1.531-5.737,4.109-5.737C731.088,138.24,732.393,140.126,732.393,143.783Zm-6.606.113c0,.484.016.935.048,1.337l4.721-4.092a2.094,2.094,0,0,0-2.207-1.579C726.383,139.562,725.787,141.076,725.787,143.9Zm5.091-.032c0-.484-.016-.935-.048-1.338l-4.721,4.093a2.094,2.094,0,0,0,2.207,1.579C730.282,148.2,730.878,147.006,730.878,143.864Z"/><rect class="cls-3" x="709.309" y="86.925" width="38.045" height="38.045"/><rect class="cls-1" x="709.309" y="86.924" width="38.045" height="38.045"/><path class="cls-4" d="M732.57,109.994v1.321H724.9v-1.321h3.416v-6.929L724.9,104.37v-1.433l3.416-1.3v-1.274H729.8v9.636Z"/><rect class="cls-3" x="709.309" y="48.88" width="38.045" height="38.045"/><rect class="cls-1" x="709.309" y="48.88" width="38.045" height="38.045"/><path class="cls-4" d="M732.57,71.949v1.322H724.9V71.949h3.416V65.021l-3.416,1.3V64.892l3.416-1.3V62.314H729.8v9.635Z"/><rect class="cls-3" x="709.309" y="10.835" width="38.045" height="38.045"/><rect class="cls-1" x="709.309" y="10.835" width="38.045" height="38.045"/><path class="cls-4" d="M732.57,33.9v1.322H724.9V33.9h3.416V26.976l-3.416,1.3V26.847l3.416-1.3V24.269H729.8V33.9Z"/><rect class="cls-2" x="709.309" y="163.014" width="38.045" height="38.045"/><rect class="cls-1" x="709.309" y="163.014" width="38.045" height="38.045"/><path class="cls-4" d="M720.682,186.991l.362-1.155a5.629,5.629,0,0,0,2.793.618c1.33,0,2.1-.363,2.1-1.275,0-1.826-5.116-1.826-5.116-4.633,0-1.558,1.356-2.4,3.25-2.4a6.906,6.906,0,0,1,2.846.55l-.349,1.116a5.615,5.615,0,0,0-2.591-.578c-1.142,0-1.907.363-1.907,1.209,0,1.892,5.116,1.892,5.116,4.632,0,1.705-1.49,2.471-3.424,2.471A7.275,7.275,0,0,1,720.682,186.991Z"/><path class="cls-4" d="M729,182.923c0-3.385,1.678-4.781,3.732-4.781,2.163,0,3.653,1.37,3.653,4.686s-1.678,4.714-3.733,4.714C730.493,187.542,729,186.172,729,182.923Zm6.123-.027c0-2.686-.887-3.653-2.417-3.653s-2.444.994-2.444,3.613.886,3.584,2.417,3.584S735.126,185.46,735.126,182.9Z"/><rect class="cls-3" x="747.354" y="124.969" width="38.045" height="38.045"/><rect class="cls-1" x="747.354" y="124.969" width="38.045" height="38.045"/><path class="cls-4" d="M770.617,148.037v1.321h-7.67v-1.321h3.416v-6.929l-3.416,1.305V140.98l3.416-1.3V138.4h1.483v9.636Z"/><rect class="cls-3" x="747.354" y="86.925" width="38.045" height="38.045"/><rect class="cls-1" x="747.354" y="86.924" width="38.045" height="38.045"/><path class="cls-4" d="M770.617,109.994v1.321h-7.67v-1.321h3.416v-6.929l-3.416,1.305v-1.433l3.416-1.3v-1.274h1.483v9.636Z"/><rect class="cls-3" x="747.354" y="48.88" width="38.045" height="38.045"/><rect class="cls-1" x="747.354" y="48.88" width="38.045" height="38.045"/><path class="cls-4" d="M770.617,71.949v1.322h-7.67V71.949h3.416V65.021l-3.416,1.3V64.892l3.416-1.3V62.314h1.483v9.635Z"/><rect class="cls-3" x="747.354" y="10.835" width="38.045" height="38.045"/><rect class="cls-1" x="747.354" y="10.835" width="38.045" height="38.045"/><path class="cls-4" d="M770.617,33.9v1.322h-7.67V33.9h3.416V26.976l-3.416,1.3V26.847l3.416-1.3V24.269h1.483V33.9Z"/><rect class="cls-2" x="747.354" y="163.014" width="38.045" height="38.045"/><rect class="cls-1" x="747.354" y="163.014" width="38.045" height="38.045"/><path class="cls-4" d="M758.725,186.991l.362-1.155a5.629,5.629,0,0,0,2.793.618c1.33,0,2.1-.363,2.1-1.275,0-1.826-5.116-1.826-5.116-4.633,0-1.558,1.356-2.4,3.249-2.4a6.908,6.908,0,0,1,2.847.55l-.349,1.116a5.615,5.615,0,0,0-2.591-.578c-1.142,0-1.907.363-1.907,1.209,0,1.892,5.116,1.892,5.116,4.632,0,1.705-1.491,2.471-3.424,2.471A7.275,7.275,0,0,1,758.725,186.991Z"/><path class="cls-4" d="M771.356,179.378v6.928h2.578v1.1h-6.391v-1.1h2.578v-6.928h-2.578v-1.1h6.391v1.1Z"/><rect class="cls-3" x="138.636" y="201.059" width="38.045" height="38.045"/><rect class="cls-1" x="138.636" y="201.059" width="38.045" height="38.045"/><path class="cls-4" d="M161.9,224.129v1.321h-7.669v-1.321h3.416V217.2l-3.416,1.305v-1.434l3.416-1.3v-1.274h1.482v9.636Z"/><rect class="cls-3" x="100.591" y="201.059" width="38.045" height="38.045"/><rect class="cls-1" x="100.591" y="201.059" width="38.045" height="38.045"/><path class="cls-4" d="M123.678,219.875c0,4.061-1.53,5.736-4.109,5.736-2.707,0-4.012-1.885-4.012-5.543,0-3.819,1.531-5.736,4.109-5.736C122.373,214.332,123.678,216.218,123.678,219.875Zm-6.606.112c0,.485.016.936.048,1.338l4.721-4.093a2.1,2.1,0,0,0-2.207-1.579C117.668,215.653,117.072,217.168,117.072,219.987Zm5.092-.031c0-.484-.016-.935-.049-1.338l-4.721,4.093a2.1,2.1,0,0,0,2.208,1.579C121.567,224.29,122.164,223.1,122.164,219.956Z"/><rect class="cls-3" x="62.547" y="201.059" width="38.045" height="38.045"/><rect class="cls-1" x="62.547" y="201.059" width="38.045" height="38.045"/><path class="cls-4" d="M85.635,219.875c0,4.061-1.53,5.736-4.109,5.736-2.707,0-4.012-1.885-4.012-5.543,0-3.819,1.531-5.736,4.109-5.736C84.33,214.332,85.635,216.218,85.635,219.875Zm-6.606.112c0,.485.016.936.048,1.338l4.721-4.093a2.1,2.1,0,0,0-2.207-1.579C79.625,215.653,79.029,217.168,79.029,219.987Zm5.092-.031c0-.484-.016-.935-.049-1.338l-4.721,4.093a2.1,2.1,0,0,0,2.208,1.579C83.524,224.29,84.121,223.1,84.121,219.956Z"/><rect class="cls-2" x="176.681" y="201.059" width="38.045" height="38.045"/><rect class="cls-1" x="176.681" y="201.059" width="38.045" height="38.045"/><path class="cls-4" d="M190.605,220.8c0,3.182-1.531,4.646-4.391,4.646h-2.336v-9.131h2.591C189.235,216.319,190.605,217.756,190.605,220.8Zm-1.262.067c0-2.417-.806-3.464-2.968-3.464h-1.262v6.955h.994C188.55,224.362,189.343,223.288,189.343,220.871Z"/><path class="cls-4" d="M198.832,224.336v1.114H193v-9.131h1.235v8.017Z"/><path class="cls-4" d="M202.829,217.407v2.941h4.458v1.088h-4.458v2.926h4.592v1.088h-5.827v-9.131h5.827v1.088Z"/><rect class="cls-2" x="214.726" y="201.059" width="38.045" height="38.045"/><rect class="cls-1" x="214.726" y="201.059" width="38.045" height="38.045"/><path class="cls-4" d="M228.655,220.8c0,3.182-1.53,4.646-4.39,4.646h-2.337v-9.131h2.592C227.286,216.319,228.655,217.756,228.655,220.8Zm-1.261.067c0-2.417-.806-3.464-2.968-3.464h-1.262v6.955h.993C226.6,224.362,227.394,223.288,227.394,220.871Z"/><path class="cls-4" d="M230.41,220.966c0-3.545,2.176-4.781,4.163-4.781a5.25,5.25,0,0,1,2.618.6l-.349,1.062a4.4,4.4,0,0,0-2.376-.565c-1.357,0-2.793.846-2.793,3.612,0,2.74,1.168,3.585,2.793,3.585a4.768,4.768,0,0,0,2.376-.63l.323,1.02a5.4,5.4,0,0,1-2.726.712C232.183,225.585,230.41,224.349,230.41,220.966Z"/><path class="cls-4" d="M246.009,224.349v1.1h-6.391v-1.1h2.846v-5.774l-2.846,1.088v-1.2l2.846-1.088v-1.061H243.7v8.03Z"/><rect class="cls-2" x="252.771" y="201.059" width="38.045" height="38.045"/><rect class="cls-1" x="252.771" y="201.059" width="38.045" height="38.045"/><path class="cls-4" d="M266.7,220.8c0,3.182-1.53,4.646-4.39,4.646h-2.337v-9.131h2.592C265.329,216.319,266.7,217.756,266.7,220.8Zm-1.261.067c0-2.417-.806-3.464-2.968-3.464h-1.262v6.955h.993C264.644,224.362,265.437,223.288,265.437,220.871Z"/><path class="cls-4" d="M268.453,220.966c0-3.545,2.176-4.781,4.163-4.781a5.25,5.25,0,0,1,2.618.6l-.349,1.062a4.4,4.4,0,0,0-2.376-.565c-1.357,0-2.793.846-2.793,3.612,0,2.74,1.168,3.585,2.793,3.585a4.768,4.768,0,0,0,2.376-.63l.323,1.02a5.4,5.4,0,0,1-2.726.712C270.226,225.585,268.453,224.349,268.453,220.966Z"/><path class="cls-4" d="M284,224.349v1.1h-6.607v-1.235c2.35-1.437,5.09-2.9,5.09-5.237,0-1.034-.458-1.692-1.988-1.692-1.665,0-2.108.738-2.108,2a2.3,2.3,0,0,0,.107.819l-1.275-.094a6.219,6.219,0,0,1-.054-.86c0-1.786,1.168-2.967,3.4-2.967,2.619,0,3.182,1.451,3.182,2.659,0,2.578-2.417,4.028-3.893,5.022l-.726.323v.16Z"/><rect class="cls-2" x="290.816" y="201.059" width="38.045" height="38.045"/><rect class="cls-1" x="290.816" y="201.059" width="38.045" height="38.045"/><path class="cls-4" d="M304.741,220.8c0,3.182-1.53,4.646-4.39,4.646h-2.337v-9.131h2.592C303.372,216.319,304.741,217.756,304.741,220.8Zm-1.261.067c0-2.417-.806-3.464-2.968-3.464H299.25v6.955h.993C302.687,224.362,303.48,223.288,303.48,220.871Z"/><path class="cls-4" d="M306.5,220.966c0-3.545,2.176-4.781,4.163-4.781a5.25,5.25,0,0,1,2.618.6l-.349,1.062a4.4,4.4,0,0,0-2.376-.565c-1.357,0-2.793.846-2.793,3.612,0,2.74,1.168,3.585,2.793,3.585a4.768,4.768,0,0,0,2.376-.63l.323,1.02a5.4,5.4,0,0,1-2.727.712C308.269,225.585,306.5,224.349,306.5,220.966Z"/><path class="cls-4" d="M321.827,222.818c0,1.531-1.088,2.767-3.814,2.767a7.209,7.209,0,0,1-3.088-.6l.349-1.048a6.671,6.671,0,0,0,2.847.564c1.826,0,2.47-.578,2.47-1.611,0-.873-.59-1.49-2.336-1.49h-2.484v-1.088h3.222c.967-.39,1.3-.9,1.3-1.612,0-1.034-.7-1.424-2.108-1.424a6.211,6.211,0,0,0-2.78.631l-.322-1.006a7.078,7.078,0,0,1,3.2-.712c1.987,0,3.249.765,3.249,2.444a2.287,2.287,0,0,1-1.329,2.055A2.072,2.072,0,0,1,321.827,222.818Z"/><rect class="cls-2" x="328.86" y="201.059" width="38.045" height="38.045"/><rect class="cls-1" x="328.86" y="201.059" width="38.045" height="38.045"/><path class="cls-4" d="M342.788,220.8c0,3.182-1.53,4.646-4.39,4.646h-2.337v-9.131h2.591C341.419,216.319,342.788,217.756,342.788,220.8Zm-1.262.067c0-2.417-.805-3.464-2.967-3.464H337.3v6.955h.994C340.734,224.362,341.526,223.288,341.526,220.871Z"/><path class="cls-4" d="M344.543,220.966c0-3.545,2.176-4.781,4.163-4.781a5.25,5.25,0,0,1,2.618.6l-.349,1.062a4.4,4.4,0,0,0-2.376-.565c-1.357,0-2.793.846-2.793,3.612,0,2.74,1.168,3.585,2.793,3.585a4.768,4.768,0,0,0,2.376-.63l.322,1.02a5.4,5.4,0,0,1-2.726.712C346.316,225.585,344.543,224.349,344.543,220.966Z"/><path class="cls-4" d="M360.29,223.57h-1.316v1.88h-1.236v-1.88h-4.591v-1.235l3.316-6.016h1.275l-2.819,5.117-.631.859v.175h3.45v-6.151h1.236v6.151h1.316Z"/><rect class="cls-2" x="366.905" y="201.059" width="38.045" height="38.045"/><rect class="cls-1" x="366.905" y="201.059" width="38.045" height="38.045"/><path class="cls-4" d="M380.294,216.319v9.131h-1.906l-3.062-7.748h-.135l.068,7.748h-1.142v-9.131h1.907l3.075,7.748h.121l-.067-7.748Z"/><path class="cls-4" d="M387.474,222.321h-3.142l-.913,3.129H382.17l2.779-9.131h1.961l2.78,9.131H388.4Zm-.323-1.088-.738-2.47-.322-1.369h-.39l-.322,1.369-.725,2.47Z"/><path class="cls-4" d="M394.305,220.831l-1.249,1.154v3.465H391.82v-9.131h1.236v2.887l-.135,1.424,4.915-4.472.014,1.572-2.538,2.322,2.846,5.4h-1.477Z"/><rect class="cls-2" x="404.95" y="201.059" width="38.045" height="38.045"/><rect class="cls-1" x="404.95" y="201.059" width="38.045" height="38.045"/><path class="cls-4" d="M411.963,225.034l.362-1.155a5.629,5.629,0,0,0,2.793.618c1.33,0,2.1-.363,2.1-1.275,0-1.826-5.116-1.826-5.116-4.633,0-1.558,1.356-2.4,3.25-2.4a6.906,6.906,0,0,1,2.846.55l-.349,1.116a5.615,5.615,0,0,0-2.591-.579c-1.142,0-1.907.364-1.907,1.209,0,1.893,5.116,1.893,5.116,4.633,0,1.7-1.49,2.471-3.424,2.471A7.279,7.279,0,0,1,411.963,225.034Z"/><path class="cls-4" d="M424.594,224.349h2.578v1.1h-6.391v-1.1h2.578v-2.82l-3.25-5.21h1.383l1.773,2.954.672,1.343h.161l.684-1.343,1.773-2.954h1.289l-3.25,5.21Z"/><path class="cls-4" d="M435.789,216.319v9.131h-1.907L430.82,217.7h-.133l.066,7.748h-1.141v-9.131h1.907l3.075,7.748h.121l-.067-7.748Z"/><rect class="cls-2" x="442.995" y="201.059" width="38.045" height="38.045"/><rect class="cls-1" x="442.995" y="201.059" width="38.045" height="38.045"/><path class="cls-4" d="M451.7,217.407v2.941h4.458v1.088H451.7v2.926h4.592v1.088h-5.828v-9.131h5.828v1.088Z"/><path class="cls-4" d="M465.484,217.447h-2.847v8H461.4v-8h-2.847v-1.128h6.929Z"/><path class="cls-4" d="M474.3,222.818c0,1.612-.994,2.632-3.048,2.632h-3.545v-9.131h3.034c2.028,0,3.008.766,3.008,2.444a3.149,3.149,0,0,1-.859,2.014A1.961,1.961,0,0,1,474.3,222.818Zm-5.358-5.411v3.022h2.887a2.366,2.366,0,0,0,.658-1.572c0-.926-.443-1.45-1.88-1.45Zm4.1,5.492c0-.739-.269-1.383-1.491-1.383h-2.6v2.846h2.2C472.784,224.362,473.04,223.745,473.04,222.9Z"/><rect class="cls-2" x="481.04" y="201.059" width="38.045" height="38.045"/><rect class="cls-1" x="481.04" y="201.059" width="38.045" height="38.045"/><path class="cls-4" d="M488,220.966c0-3.545,2.175-4.781,4.163-4.781a5.252,5.252,0,0,1,2.618.6l-.349,1.062a4.406,4.406,0,0,0-2.377-.565c-1.356,0-2.793.846-2.793,3.612,0,2.74,1.169,3.585,2.793,3.585a4.772,4.772,0,0,0,2.377-.63l.322,1.02a5.394,5.394,0,0,1-2.725.712C489.768,225.585,488,224.349,488,220.966Z"/><path class="cls-4" d="M501.607,222.321h-3.142l-.913,3.129H496.3l2.779-9.131h1.961l2.779,9.131h-1.289Zm-.323-1.088-.738-2.47-.322-1.369h-.39l-.322,1.369-.725,2.47Z"/><path class="cls-4" d="M511.875,216.319v9.131h-1.907l-3.062-7.748h-.133l.066,7.748H505.7v-9.131h1.907l3.075,7.748h.121l-.068-7.748Z"/><rect class="cls-2" x="519.085" y="201.059" width="38.045" height="38.045"/><rect class="cls-1" x="519.085" y="201.059" width="38.045" height="38.045"/><path class="cls-4" d="M532.147,217.407v2.941h4.458v1.088h-4.458v2.926h4.592v1.088h-5.827v-9.131h5.827v1.088Z"/><path class="cls-4" d="M545.624,225.45h-1.1v-4.7l.107-3.357h-.121l-.309,1.476-.913,3.089H541.8l-1.02-3.089-.336-1.476h-.134l.107,3.357v4.7h-1.1v-9.131H541.1l1.182,3.613.215.953h.12l.2-.953,1.061-3.613h1.745Z"/><rect class="cls-2" x="557.13" y="201.059" width="38.045" height="38.045"/><rect class="cls-1" x="557.13" y="201.059" width="38.045" height="38.045"/><path class="cls-4" d="M564.139,225.034l.362-1.155a5.629,5.629,0,0,0,2.793.618c1.33,0,2.1-.363,2.1-1.275,0-1.826-5.116-1.826-5.116-4.633,0-1.558,1.356-2.4,3.25-2.4a6.906,6.906,0,0,1,2.846.55l-.349,1.116a5.615,5.615,0,0,0-2.591-.579c-1.142,0-1.907.364-1.907,1.209,0,1.893,5.116,1.893,5.116,4.633,0,1.7-1.49,2.471-3.424,2.471A7.275,7.275,0,0,1,564.139,225.034Z"/><path class="cls-4" d="M579.375,216.319v5.358c0,2.82-1.343,3.908-3.263,3.908-2.027,0-3.182-1.062-3.182-3.814v-5.452h1.235V221.7c0,2.081.577,2.779,1.974,2.779s2-.724,2-2.739v-5.425Z"/><path class="cls-4" d="M588.435,222.818c0,1.612-.994,2.632-3.048,2.632h-3.545v-9.131h3.034c2.028,0,3.008.766,3.008,2.444a3.145,3.145,0,0,1-.86,2.014A1.961,1.961,0,0,1,588.435,222.818Zm-5.358-5.411v3.022h2.887a2.366,2.366,0,0,0,.658-1.572c0-.926-.443-1.45-1.88-1.45Zm4.1,5.492c0-.739-.268-1.383-1.49-1.383h-2.605v2.846h2.2C586.917,224.362,587.172,223.745,587.172,222.9Z"/><rect class="cls-2" x="595.174" y="201.059" width="38.045" height="38.045"/><rect class="cls-1" x="595.174" y="201.059" width="38.045" height="38.045"/><path class="cls-4" d="M603.878,217.407v2.941h4.458v1.088h-4.458v2.926h4.592v1.088h-5.828v-9.131h5.828v1.088Z"/><path class="cls-4" d="M610.909,225.034l.363-1.155a5.624,5.624,0,0,0,2.793.618c1.33,0,2.095-.363,2.095-1.275,0-1.826-5.116-1.826-5.116-4.633,0-1.558,1.356-2.4,3.249-2.4a6.908,6.908,0,0,1,2.847.55l-.349,1.116a5.616,5.616,0,0,0-2.592-.579c-1.141,0-1.906.364-1.906,1.209,0,1.893,5.115,1.893,5.115,4.633,0,1.7-1.49,2.471-3.424,2.471A7.282,7.282,0,0,1,610.909,225.034Z"/><path class="cls-4" d="M619.58,220.966c0-3.545,2.175-4.781,4.162-4.781a5.25,5.25,0,0,1,2.618.6l-.348,1.062a4.411,4.411,0,0,0-2.377-.565c-1.357,0-2.793.846-2.793,3.612,0,2.74,1.168,3.585,2.793,3.585a4.775,4.775,0,0,0,2.377-.63l.322,1.02a5.4,5.4,0,0,1-2.726.712C621.352,225.585,619.58,224.349,619.58,220.966Z"/><rect class="cls-2" x="633.219" y="201.059" width="38.045" height="38.045"/><rect class="cls-1" x="633.219" y="201.059" width="38.045" height="38.045"/><path class="cls-4" d="M646.284,217.407v2.941h4.458v1.088h-4.458v4.014h-1.236v-9.131h5.828v1.088Z"/><path class="cls-4" d="M653.316,225.034l.362-1.155a5.624,5.624,0,0,0,2.793.618c1.33,0,2.1-.363,2.1-1.275,0-1.826-5.116-1.826-5.116-4.633,0-1.558,1.356-2.4,3.249-2.4a6.908,6.908,0,0,1,2.847.55l-.349,1.116a5.615,5.615,0,0,0-2.591-.579c-1.142,0-1.907.364-1.907,1.209,0,1.893,5.116,1.893,5.116,4.633,0,1.7-1.491,2.471-3.424,2.471A7.275,7.275,0,0,1,653.316,225.034Z"/><rect class="cls-2" x="671.264" y="201.059" width="38.045" height="38.045"/><rect class="cls-1" x="671.264" y="201.059" width="38.045" height="38.045"/><path class="cls-4" d="M688.006,220.8h1.235v4.284a7.6,7.6,0,0,1-2.86.5c-2.121,0-3.894-1.1-3.894-4.619,0-3.545,2.135-4.781,4.364-4.781a6.027,6.027,0,0,1,2.551.51l-.349,1.088a5.481,5.481,0,0,0-2.309-.5c-1.6,0-3,.846-3,3.612,0,2.874,1.169,3.585,2.659,3.585a6.7,6.7,0,0,0,1.6-.161Z"/><path class="cls-4" d="M691.358,225.034l.363-1.155a5.624,5.624,0,0,0,2.793.618c1.33,0,2.1-.363,2.1-1.275,0-1.826-5.116-1.826-5.116-4.633,0-1.558,1.356-2.4,3.249-2.4a6.908,6.908,0,0,1,2.847.55l-.349,1.116a5.615,5.615,0,0,0-2.591-.579c-1.142,0-1.907.364-1.907,1.209,0,1.893,5.116,1.893,5.116,4.633,0,1.7-1.491,2.471-3.424,2.471A7.284,7.284,0,0,1,691.358,225.034Z"/><rect class="cls-2" x="709.309" y="201.059" width="38.045" height="38.045"/><rect class="cls-1" x="709.309" y="201.059" width="38.045" height="38.045"/><path class="cls-4" d="M724.146,222.053h-1.974v3.4h-1.235v-9.131h2.9c2.3,0,3.411,1,3.411,2.672a3.24,3.24,0,0,1-1.786,2.78l2.216,3.679h-1.531Zm-1.974-1.087h2.619a2.076,2.076,0,0,0,1.194-1.881c0-1.154-.63-1.678-2.282-1.678h-1.531Z"/><path class="cls-4" d="M729.405,225.034l.363-1.155a5.624,5.624,0,0,0,2.793.618c1.33,0,2.095-.363,2.095-1.275,0-1.826-5.116-1.826-5.116-4.633,0-1.558,1.356-2.4,3.249-2.4a6.908,6.908,0,0,1,2.847.55l-.349,1.116a5.616,5.616,0,0,0-2.592-.579c-1.141,0-1.906.364-1.906,1.209,0,1.893,5.115,1.893,5.115,4.633,0,1.7-1.49,2.471-3.423,2.471A7.284,7.284,0,0,1,729.405,225.034Z"/><rect class="cls-2" x="747.354" y="201.059" width="38.045" height="38.045"/><rect class="cls-1" x="747.354" y="201.059" width="38.045" height="38.045"/><path class="cls-4" d="M765.237,216.319v5.358c0,2.82-1.342,3.908-3.263,3.908-2.028,0-3.182-1.062-3.182-3.814v-5.452h1.235V221.7c0,2.081.578,2.779,1.974,2.779s2-.724,2-2.739v-5.425Z"/><path class="cls-4" d="M767.448,225.034l.363-1.155a5.624,5.624,0,0,0,2.793.618c1.33,0,2.095-.363,2.095-1.275,0-1.826-5.116-1.826-5.116-4.633,0-1.558,1.356-2.4,3.249-2.4a6.908,6.908,0,0,1,2.847.55l-.349,1.116a5.616,5.616,0,0,0-2.592-.579c-1.141,0-1.906.364-1.906,1.209,0,1.893,5.115,1.893,5.115,4.633,0,1.7-1.49,2.471-3.423,2.471A7.284,7.284,0,0,1,767.448,225.034Z"/><rect class="cls-3" x="138.636" y="239.104" width="38.045" height="38.045"/><rect class="cls-1" x="138.636" y="239.104" width="38.045" height="38.045"/><path class="cls-4" d="M161.725,257.92c0,4.061-1.531,5.736-4.109,5.736-2.707,0-4.012-1.885-4.012-5.543,0-3.819,1.531-5.736,4.109-5.736C160.42,252.377,161.725,254.263,161.725,257.92Zm-6.606.112c0,.485.016.936.048,1.338l4.721-4.093a2.1,2.1,0,0,0-2.207-1.579C155.715,253.7,155.119,255.213,155.119,258.032Zm5.092-.031c0-.484-.017-.936-.049-1.338l-4.721,4.093a2.094,2.094,0,0,0,2.208,1.579C159.614,262.335,160.211,261.143,160.211,258Z"/><rect class="cls-3" x="100.591" y="239.104" width="38.045" height="38.045"/><rect class="cls-1" x="100.591" y="239.104" width="38.045" height="38.045"/><path class="cls-4" d="M123.856,262.174V263.5h-7.67v-1.321H119.6v-6.929l-3.416,1.305v-1.434l3.416-1.3v-1.274h1.482v9.636Z"/><rect class="cls-3" x="62.547" y="239.104" width="38.045" height="38.045"/><rect class="cls-1" x="62.547" y="239.104" width="38.045" height="38.045"/><path class="cls-4" d="M85.635,257.92c0,4.061-1.53,5.736-4.109,5.736-2.707,0-4.012-1.885-4.012-5.543,0-3.819,1.531-5.736,4.109-5.736C84.33,252.377,85.635,254.263,85.635,257.92Zm-6.606.112c0,.485.016.936.048,1.338l4.721-4.093a2.1,2.1,0,0,0-2.207-1.579C79.625,253.7,79.029,255.213,79.029,258.032ZM84.121,258c0-.484-.016-.936-.049-1.338l-4.721,4.093a2.1,2.1,0,0,0,2.208,1.579C83.524,262.335,84.121,261.143,84.121,258Z"/><rect class="cls-1" x="176.681" y="239.104" width="38.045" height="38.045"/><rect class="cls-1" x="214.726" y="239.104" width="38.045" height="38.045"/><path class="cls-4" d="M232.3,262.19a1.451,1.451,0,1,1,1.451,1.45A1.445,1.445,0,0,1,232.3,262.19Zm.6-10.135h1.708l-.194,7.251h-1.273Z"/><rect class="cls-1" x="252.771" y="239.104" width="38.045" height="38.045"/><path class="cls-4" d="M268.768,252.538h2.03l-.145,5.479h-1.74Zm4.028,0h2.031l-.145,5.479h-1.741Z"/><rect class="cls-1" x="290.816" y="239.104" width="38.045" height="38.045"/><path class="cls-4" d="M312.628,256.356l-.483,3.321h1.724v1.24h-1.9l-.386,2.578h-1.322l.387-2.578H308.2l-.387,2.578h-1.321l.387-2.578H305.49v-1.24h1.563l.483-3.321h-1.724v-1.24h1.9l.387-2.578h1.321l-.386,2.578h2.449l.387-2.578h1.321l-.387,2.578h1.386v1.24Zm-1.321,0h-2.449l-.484,3.321h2.449Z"/><rect class="cls-1" x="328.86" y="239.104" width="38.045" height="38.045"/><path class="cls-4" d="M348.451,263.463l-.08,1.643H346.92L347,263.48a7.966,7.966,0,0,1-3.061-.678l.435-1.354a6.415,6.415,0,0,0,2.674.726l.178-3.706c-1.563-.645-3.126-1.418-3.126-3.094,0-1.772,1.418-2.691,3.383-2.82l.081-1.627h1.45l-.08,1.66a7.194,7.194,0,0,1,2.481.644L351,254.536a6.241,6.241,0,0,0-2.111-.629l-.177,3.674c1.531.645,3.029,1.4,3.029,3C351.738,262.351,350.433,263.27,348.451,263.463Zm-1.16-6.493.145-3.111c-1.192.081-1.837.516-1.837,1.386C345.6,256.034,346.324,256.534,347.291,256.97Zm2.949,3.738c0-.742-.677-1.209-1.6-1.628l-.145,3.077C349.676,262.028,350.24,261.577,350.24,260.708Z"/><rect class="cls-1" x="366.905" y="239.104" width="38.045" height="38.045"/><path class="cls-4" d="M382.128,258.6l7.605-2.127v.967l-7.605,2.127Zm.338-3.932a2,2,0,0,1,2.062-2.207,1.925,1.925,0,0,1,2,2.158,2.011,2.011,0,0,1-2.062,2.208A1.91,1.91,0,0,1,382.466,254.665Zm3.061-.016c0-.837-.322-1.322-1.015-1.322-.741,0-1.047.5-1.047,1.306s.306,1.321,1.015,1.321C385.205,255.954,385.527,255.454,385.527,254.649Zm-.193,6.848a2,2,0,0,1,2.063-2.207,1.926,1.926,0,0,1,2,2.158,2.012,2.012,0,0,1-2.063,2.208A1.911,1.911,0,0,1,385.334,261.5Zm3.062-.016c0-.837-.323-1.322-1.016-1.322-.741,0-1.047.5-1.047,1.306,0,.821.306,1.321,1.015,1.321C388.073,262.786,388.4,262.286,388.4,261.481Z"/><rect class="cls-1" x="404.95" y="239.104" width="38.045" height="38.045"/><path class="cls-4" d="M428.807,263.673a17.835,17.835,0,0,1-2.465-1.145,4.015,4.015,0,0,1-3.142,1.241c-1.805,0-3.271-.676-3.271-2.514a3.28,3.28,0,0,1,1.466-2.578,5.763,5.763,0,0,1-1.724-3.447c0-1.9,1.305-2.965,3.609-2.965,2.24,0,3.416.95,3.416,2.513,0,1.917-1.9,2.916-3.432,3.932a17.49,17.49,0,0,0,2.659,2.014,9.678,9.678,0,0,0,.354-3l1.418-.017a8.94,8.94,0,0,1-.644,3.674,18.827,18.827,0,0,0,1.756.822Zm-6.332-5.753c1.385-.9,2.8-1.692,2.8-3.062,0-.853-.692-1.321-2.11-1.321-1.306,0-2.079.419-2.079,1.611A4.6,4.6,0,0,0,422.475,257.92Zm2.755,3.948A19.7,19.7,0,0,1,422.2,259.5a2.235,2.235,0,0,0-.886,1.66c0,.886.5,1.385,1.981,1.385A2.6,2.6,0,0,0,425.23,261.868Z"/><rect class="cls-1" x="442.995" y="239.104" width="38.045" height="38.045"/><path class="cls-4" d="M461.005,252.538h2.03l-.145,5.479h-1.74Z"/><rect class="cls-1" x="481.04" y="239.104" width="38.045" height="38.045"/><path class="cls-4" d="M497.9,258.017c0-5.9,1.869-7.09,4.786-7.09v1.321c-2.208,0-3.255.757-3.255,5.608,0,5.172,1.047,5.929,3.255,5.929v1.321C499.773,265.106,497.9,264.075,497.9,258.017Z"/><rect class="cls-1" x="519.085" y="239.104" width="38.045" height="38.045"/><path class="cls-4" d="M540.265,258.017c0,5.9-1.869,7.089-4.785,7.089v-1.321c2.207,0,3.254-.757,3.254-5.607,0-5.173-1.047-5.93-3.254-5.93v-1.321C538.4,250.927,540.265,251.958,540.265,258.017Z"/><rect class="cls-1" x="557.13" y="239.104" width="38.045" height="38.045"/><path class="cls-4" d="M577.333,254.987l2.852,1.418-.677,1.193-2.852-1.708.194,3.431h-1.467l.194-3.416L572.8,257.63l-.677-1.192,2.917-1.451-3-1.66.693-1.191,2.836,1.981-.194-3.657h1.467l-.194,3.674,2.917-1.967.693,1.193Z"/><rect class="cls-1" x="595.174" y="239.104" width="38.045" height="38.045"/><path class="cls-4" d="M618.224,258.677h-3.351v3.368h-1.338v-3.368h-3.367v-1.305h3.367v-3.384h1.338v3.384h3.351Z"/><rect class="cls-1" x="633.219" y="239.104" width="38.045" height="38.045"/><path class="cls-4" d="M653.971,263a2.99,2.99,0,0,1-3.287,3.078v-1.209a1.712,1.712,0,0,0,1.949-1.433.97.97,0,0,1-.58.209,1.451,1.451,0,0,1,.065-2.9A2,2,0,0,1,653.971,263Z"/><rect class="cls-1" x="671.264" y="239.104" width="38.045" height="38.045"/><path class="cls-4" d="M693.351,257.92v1.306h-6.123V257.92Z"/><rect class="cls-1" x="709.309" y="239.104" width="38.045" height="38.045"/><path class="cls-4" d="M726.882,262.19a1.451,1.451,0,1,1,1.451,1.45A1.445,1.445,0,0,1,726.882,262.19Z"/><rect class="cls-1" x="747.354" y="239.104" width="38.045" height="38.045"/><path class="cls-4" d="M768.99,250.927h1.563l-6.784,14.179h-1.563Z"/><rect class="cls-3" x="138.636" y="277.149" width="38.045" height="38.045"/><rect class="cls-1" x="138.636" y="277.149" width="38.045" height="38.045"/><path class="cls-4" d="M161.9,300.219v1.321h-7.669v-1.321h3.416V293.29l-3.416,1.305v-1.434l3.416-1.305v-1.273h1.482v9.636Z"/><rect class="cls-3" x="100.591" y="277.149" width="38.045" height="38.045"/><rect class="cls-1" x="100.591" y="277.149" width="38.045" height="38.045"/><path class="cls-4" d="M123.856,300.219v1.321h-7.67v-1.321H119.6V293.29l-3.416,1.305v-1.434l3.416-1.305v-1.273h1.482v9.636Z"/><rect class="cls-3" x="62.547" y="277.149" width="38.045" height="38.045"/><rect class="cls-1" x="62.547" y="277.149" width="38.045" height="38.045"/><path class="cls-4" d="M85.635,295.965c0,4.06-1.53,5.736-4.109,5.736-2.707,0-4.012-1.886-4.012-5.543,0-3.819,1.531-5.736,4.109-5.736C84.33,290.422,85.635,292.308,85.635,295.965Zm-6.606.112c0,.485.016.936.048,1.338l4.721-4.093a2.094,2.094,0,0,0-2.207-1.579C79.625,291.743,79.029,293.258,79.029,296.077Zm5.092-.031c0-.484-.016-.936-.049-1.338L79.351,298.8a2.1,2.1,0,0,0,2.208,1.579C83.524,300.38,84.121,299.188,84.121,296.046Z"/><rect class="cls-1" x="176.681" y="277.149" width="38.045" height="38.045"/><path class="cls-4" d="M199.768,295.965c0,4.06-1.531,5.736-4.109,5.736-2.707,0-4.012-1.886-4.012-5.543,0-3.819,1.531-5.736,4.109-5.736C198.463,290.422,199.768,292.308,199.768,295.965Zm-6.606.112c0,.485.016.936.048,1.338l4.721-4.093a2.094,2.094,0,0,0-2.207-1.579C193.758,291.743,193.162,293.258,193.162,296.077Zm5.091-.031c0-.484-.016-.936-.048-1.338l-4.721,4.093a2.094,2.094,0,0,0,2.207,1.579C197.657,300.38,198.253,299.188,198.253,296.046Z"/><rect class="cls-1" x="214.726" y="277.149" width="38.045" height="38.045"/><path class="cls-4" d="M237.988,300.219v1.321h-7.67v-1.321h3.416V293.29l-3.416,1.305v-1.434l3.416-1.305v-1.273h1.483v9.636Z"/><rect class="cls-1" x="252.771" y="277.149" width="38.045" height="38.045"/><path class="cls-4" d="M275.971,300.219v1.321h-7.928v-1.482c2.82-1.725,6.107-3.481,6.107-6.285,0-1.241-.548-2.03-2.385-2.03-2,0-2.53.887-2.53,2.4a2.762,2.762,0,0,0,.129.983l-1.53-.112a7.394,7.394,0,0,1-.065-1.032c0-2.143,1.4-3.561,4.077-3.561,3.142,0,3.819,1.74,3.819,3.19,0,3.094-2.9,4.834-4.673,6.027l-.87.386v.194Z"/><rect class="cls-1" x="290.816" y="277.149" width="38.045" height="38.045"/><path class="cls-4" d="M313.756,298.382c0,1.837-1.3,3.319-4.576,3.319a8.638,8.638,0,0,1-3.706-.725l.419-1.256a8.028,8.028,0,0,0,3.416.676c2.191,0,2.965-.693,2.965-1.934,0-1.047-.709-1.788-2.8-1.788h-2.981v-1.306h3.867c1.16-.467,1.563-1.079,1.563-1.933,0-1.241-.838-1.707-2.53-1.707a7.457,7.457,0,0,0-3.335.756l-.387-1.208a8.487,8.487,0,0,1,3.835-.854c2.385,0,3.9.919,3.9,2.933a2.741,2.741,0,0,1-1.6,2.464A2.488,2.488,0,0,1,313.756,298.382Z"/><rect class="cls-1" x="328.86" y="277.149" width="38.045" height="38.045"/><path class="cls-4" d="M352.3,299.284h-1.579v2.256h-1.482v-2.256H343.73V297.8l3.98-7.219h1.531l-3.384,6.139-.757,1.031v.21h4.141v-7.38h1.482v7.38H352.3Z"/><rect class="cls-1" x="366.905" y="277.149" width="38.045" height="38.045"/><path class="cls-4" d="M389.894,298.124c0,1.934-1.305,3.577-4.415,3.577a7.751,7.751,0,0,1-3.545-.725l.419-1.256a6.7,6.7,0,0,0,3.255.676c2.03,0,2.8-.854,2.8-2.175,0-1.257-.935-1.805-2.885-2.159l-2.852-.516.065-4.963h6.8V291.9h-5.35l-.048,2.562,1.9.339C388.637,295.239,389.894,296.094,389.894,298.124Z"/><rect class="cls-1" x="404.95" y="277.149" width="38.045" height="38.045"/><path class="cls-4" d="M428.05,298.414c0,1.788-1.064,3.287-3.819,3.287-2.594,0-4.141-1.386-4.141-5.139,0-3.369,1.273-6.157,5.059-6.157a9.037,9.037,0,0,1,2.74.4l-.4,1.289a7.488,7.488,0,0,0-2.465-.387c-2.369,0-3.143,1.418-3.368,3.19l2.546.307C426.712,295.5,428.05,296.416,428.05,298.414Zm-1.483.129c0-1.257-.725-1.805-2.723-2.046l-2.272-.274v.258c0,3,.87,3.915,2.788,3.915C425.955,300.4,426.567,299.687,426.567,298.543Z"/><rect class="cls-1" x="442.995" y="277.149" width="38.045" height="38.045"/><path class="cls-4" d="M465.952,292.065l-3.626,8.154h2.5v1.321h-6.478v-1.321H460.7l3.222-7.073.693-1.016V291.9h-6.429v-1.321h7.767Z"/><rect class="cls-1" x="481.04" y="277.149" width="38.045" height="38.045"/><path class="cls-4" d="M503.785,298.93c0,1.885-1.466,2.884-3.754,2.884-2.224,0-3.69-.838-3.69-2.674,0-1.387,1.079-2.176,2.369-2.836-1.451-.629-2.788-1.435-2.788-3.014,0-1.853,1.579-2.98,4.206-2.98,2.771,0,4.076,1,4.076,2.722,0,1.6-1.353,2.449-2.82,3.158C502.673,296.786,503.785,297.544,503.785,298.93Zm-3.674-3.287c1.386-.645,2.611-1.306,2.611-2.546,0-.9-.693-1.483-2.707-1.483-1.724,0-2.611.58-2.611,1.612C497.4,294.435,498.693,295.046,500.111,295.643Zm2.192,3.351c0-1.031-1.064-1.6-2.32-2.143-1.193.58-2.16,1.193-2.16,2.224,0,.805.451,1.466,2.288,1.466C501.852,300.541,502.3,299.88,502.3,298.994Z"/><rect class="cls-1" x="519.085" y="277.149" width="38.045" height="38.045"/><path class="cls-4" d="M541.989,295.707c0,3.206-.95,5.994-4.576,5.994a9.7,9.7,0,0,1-3.061-.4l.4-1.354a7.358,7.358,0,0,0,2.788.452c2.191,0,2.772-1.37,2.917-3.03l-2.579-.305c-2.61-.306-3.851-1.208-3.851-3.206,0-1.967,1.289-3.45,3.819-3.45C540.555,290.4,541.989,292.21,541.989,295.707Zm-1.482.339v-.258c0-2.74-.757-4.077-2.788-4.077a1.92,1.92,0,0,0-2.207,2.015c0,1.255.628,1.788,2.723,2.046Z"/><rect class="cls-1" x="557.13" y="277.149" width="38.045" height="38.045"/><path class="cls-4" d="M574.707,294.74a1.45,1.45,0,1,1,1.45,1.45A1.444,1.444,0,0,1,574.707,294.74Zm0,5.5a1.45,1.45,0,1,1,1.45,1.45A1.444,1.444,0,0,1,574.707,300.235Z"/><rect class="cls-1" x="595.174" y="277.149" width="38.045" height="38.045"/><path class="cls-4" d="M615.92,301.04a2.99,2.99,0,0,1-3.287,3.078v-1.209a1.714,1.714,0,0,0,1.95-1.433.975.975,0,0,1-.58.209,1.451,1.451,0,0,1,.064-2.9A2,2,0,0,1,615.92,301.04Zm-3.174-6.3a1.45,1.45,0,1,1,1.45,1.45A1.444,1.444,0,0,1,612.746,294.74Z"/><rect class="cls-1" x="633.219" y="277.149" width="38.045" height="38.045"/><path class="cls-4" d="M649.7,295.965v.161l6.413,2.594v1.595l-7.735-3.48v-1.579l7.735-3.481v1.58Z"/><rect class="cls-1" x="671.264" y="277.149" width="38.045" height="38.045"/><path class="cls-4" d="M686.261,293.483h8.057v1.305h-8.057Zm0,3.868h8.057v1.3h-8.057Z"/><rect class="cls-1" x="709.309" y="277.149" width="38.045" height="38.045"/><path class="cls-4" d="M732.2,295.256v1.579l-7.735,3.48v-1.579l6.413-2.61v-.161l-6.413-2.595v-1.6Z"/><rect class="cls-1" x="747.354" y="277.149" width="38.045" height="38.045"/><path class="cls-4" d="M764.881,296.513c2.03-.725,3.819-1.579,3.819-2.916,0-1.241-.87-1.869-2.643-1.869a6,6,0,0,0-3.094.773l-.386-1.225a6.767,6.767,0,0,1,3.512-.854c2.546,0,4.061,1.079,4.061,3.094,0,2.288-2.336,3.416-4.866,4.318Zm-.242,3.722a1.451,1.451,0,1,1,1.45,1.45A1.445,1.445,0,0,1,764.639,300.235Z"/><rect class="cls-3" x="138.636" y="315.194" width="38.045" height="38.045"/><rect class="cls-1" x="138.636" y="315.194" width="38.045" height="38.045"/><path class="cls-4" d="M161.725,334.008c0,4.06-1.531,5.736-4.109,5.736-2.707,0-4.012-1.886-4.012-5.543,0-3.819,1.531-5.736,4.109-5.736C160.42,328.465,161.725,330.351,161.725,334.008Zm-6.606.112c0,.485.016.936.048,1.338l4.721-4.093a2.094,2.094,0,0,0-2.207-1.579C155.715,329.786,155.119,331.3,155.119,334.12Zm5.092-.031c0-.484-.017-.936-.049-1.338l-4.721,4.093a2.094,2.094,0,0,0,2.208,1.579C159.614,338.423,160.211,337.231,160.211,334.089Z"/><rect class="cls-3" x="100.591" y="315.194" width="38.045" height="38.045"/><rect class="cls-1" x="100.591" y="315.194" width="38.045" height="38.045"/><path class="cls-4" d="M123.678,334.008c0,4.06-1.53,5.736-4.109,5.736-2.707,0-4.012-1.886-4.012-5.543,0-3.819,1.531-5.736,4.109-5.736C122.373,328.465,123.678,330.351,123.678,334.008Zm-6.606.112c0,.485.016.936.048,1.338l4.721-4.093a2.094,2.094,0,0,0-2.207-1.579C117.668,329.786,117.072,331.3,117.072,334.12Zm5.092-.031c0-.484-.016-.936-.049-1.338l-4.721,4.093a2.1,2.1,0,0,0,2.208,1.579C121.567,338.423,122.164,337.231,122.164,334.089Z"/><rect class="cls-3" x="62.547" y="315.194" width="38.045" height="38.045"/><rect class="cls-1" x="62.547" y="315.194" width="38.045" height="38.045"/><path class="cls-4" d="M85.813,338.262v1.321h-7.67v-1.321h3.416v-6.929l-3.416,1.3V331.2l3.416-1.305v-1.273h1.482v9.636Z"/><rect class="cls-1" x="176.681" y="315.194" width="38.045" height="38.045"/><path class="cls-4" d="M199.865,339.583a7.193,7.193,0,0,1-3.142.66c-3.481,0-5.205-2.013-5.205-5.752,0-4.367,2.095-6.332,5.092-6.332,2.159,0,3.126,1.031,3.126,3.158v5.591h-1.08V336.1a3.9,3.9,0,0,1-2.481.934,2.156,2.156,0,0,1-2.4-2.191c0-1.6,1.595-2.321,4.705-2.611v-.757c0-1.5-.338-2.24-1.982-2.24-2.256,0-3.738,1.466-3.738,5.253,0,2.74.87,4.656,4.077,4.656a5.954,5.954,0,0,0,2.642-.611Zm-3.61-3.689a3.718,3.718,0,0,0,2.224-.694v-1.949c-2.336.209-3.416.611-3.416,1.5A1.082,1.082,0,0,0,196.255,335.894Z"/><rect class="cls-1" x="214.726" y="315.194" width="38.045" height="38.045"/><path class="cls-4" d="M235.6,335.829h-3.771l-1.1,3.754h-1.5l3.335-10.957h2.353l3.335,10.957h-1.547Zm-.387-1.306-.886-2.964-.387-1.644h-.467l-.387,1.644-.87,2.964Z"/><rect class="cls-1" x="252.771" y="315.194" width="38.045" height="38.045"/><path class="cls-4" d="M276.067,336.425c0,1.933-1.192,3.158-3.657,3.158h-4.254V328.626H271.8c2.434,0,3.61.918,3.61,2.933a3.782,3.782,0,0,1-1.031,2.417A2.352,2.352,0,0,1,276.067,336.425Zm-6.429-6.494v3.626H273.1a2.841,2.841,0,0,0,.789-1.886c0-1.111-.532-1.74-2.256-1.74Zm4.915,6.591c0-.886-.322-1.66-1.789-1.66h-3.126v3.416h2.643C274.247,338.278,274.553,337.536,274.553,336.522Z"/><rect class="cls-1" x="290.816" y="315.194" width="38.045" height="38.045"/><path class="cls-4" d="M305.828,334.2c0-4.254,2.611-5.736,5-5.736a6.286,6.286,0,0,1,3.142.725l-.419,1.273a5.3,5.3,0,0,0-2.852-.677c-1.627,0-3.351,1.016-3.351,4.334,0,3.287,1.4,4.3,3.351,4.3a5.725,5.725,0,0,0,2.852-.758l.387,1.225a6.485,6.485,0,0,1-3.271.854C307.955,339.744,305.828,338.262,305.828,334.2Z"/><rect class="cls-1" x="328.86" y="315.194" width="38.045" height="38.045"/><path class="cls-4" d="M352.238,334.008c0,3.819-1.837,5.575-5.269,5.575h-2.8V328.626h3.11C350.594,328.626,352.238,330.351,352.238,334.008Zm-1.515.081c0-2.9-.967-4.158-3.561-4.158h-1.514v8.347h1.192C349.773,338.278,350.723,336.989,350.723,334.089Z"/><rect class="cls-1" x="366.905" y="315.194" width="38.045" height="38.045"/><path class="cls-4" d="M384.013,329.931v3.529h5.349v1.305h-5.349v3.513h5.511v1.305H382.53V328.626h6.994v1.305Z"/><rect class="cls-1" x="404.95" y="315.194" width="38.045" height="38.045"/><path class="cls-4" d="M422.056,329.931v3.529h5.349v1.305h-5.349v4.818h-1.483V328.626h6.993v1.305Z"/><rect class="cls-1" x="442.995" y="315.194" width="38.045" height="38.045"/><path class="cls-4" d="M464.518,334.008H466v5.139a9.086,9.086,0,0,1-3.432.6c-2.546,0-4.673-1.321-4.673-5.543,0-4.254,2.562-5.736,5.237-5.736a7.22,7.22,0,0,1,3.061.612l-.419,1.305a6.569,6.569,0,0,0-2.771-.6c-1.917,0-3.593,1.016-3.593,4.334,0,3.449,1.4,4.3,3.19,4.3a8.136,8.136,0,0,0,1.918-.193Z"/><rect class="cls-1" x="481.04" y="315.194" width="38.045" height="38.045"/><path class="cls-4" d="M503.882,328.626v10.957H502.4v-4.818h-4.672v4.818h-1.483V328.626h1.483v4.834H502.4v-4.834Z"/><rect class="cls-1" x="519.085" y="315.194" width="38.045" height="38.045"/><path class="cls-4" d="M538.847,329.947v8.315h3.094v1.321h-7.67v-1.321h3.094v-8.315h-3.094v-1.321h7.67v1.321Z"/><rect class="cls-1" x="557.13" y="315.194" width="38.045" height="38.045"/><path class="cls-4" d="M579.815,335.378c0,3.641-1.821,4.366-3.964,4.366a6.965,6.965,0,0,1-3.32-.725l.435-1.321a6.337,6.337,0,0,0,3.03.741c1.24,0,2.336-.354,2.336-2.981v-5.511H573.4v-1.321h6.414Z"/><rect class="cls-1" x="595.174" y="315.194" width="38.045" height="38.045"/><path class="cls-4" d="M613.777,334.04l-1.5,1.386v4.157H610.8V328.626h1.482v3.465l-.161,1.707,5.9-5.365.016,1.884-3.046,2.789,3.416,6.477h-1.772Z"/><rect class="cls-1" x="633.219" y="315.194" width="38.045" height="38.045"/><path class="cls-4" d="M656,338.245v1.338h-6.993V328.626h1.482v9.619Z"/><rect class="cls-1" x="671.264" y="315.194" width="38.045" height="38.045"/><path class="cls-4" d="M694.076,339.583h-1.321v-5.64l.129-4.028h-.145l-.371,1.773-1.1,3.706h-1.789l-1.225-3.706-.4-1.773H687.7l.129,4.028v5.64H686.5V328.626h2.143l1.418,4.334.258,1.145h.145l.242-1.145,1.273-4.334h2.094Z"/><rect class="cls-1" x="709.309" y="315.194" width="38.045" height="38.045"/><path class="cls-4" d="M732.039,328.626v10.957h-2.288l-3.674-9.3h-.161l.08,9.3h-1.369V328.626h2.288l3.69,9.3h.145l-.081-9.3Z"/><rect class="cls-1" x="747.354" y="315.194" width="38.045" height="38.045"/><path class="cls-4" d="M761.948,334.2c0-4.06,2.014-5.736,4.48-5.736,2.594,0,4.383,1.643,4.383,5.624s-2.015,5.655-4.48,5.655C763.737,339.744,761.948,338.1,761.948,334.2Zm7.348-.032c0-3.223-1.063-4.383-2.9-4.383-1.853,0-2.933,1.193-2.933,4.334,0,3.158,1.063,4.3,2.9,4.3C768.216,338.423,769.3,337.247,769.3,334.169Z"/><rect class="cls-3" x="138.636" y="353.238" width="38.045" height="38.045"/><rect class="cls-1" x="138.636" y="353.238" width="38.045" height="38.045"/><path class="cls-4" d="M161.9,376.309v1.321h-7.669v-1.321h3.416V369.38l-3.416,1.305v-1.434l3.416-1.3v-1.273h1.482v9.636Z"/><rect class="cls-3" x="100.591" y="353.238" width="38.045" height="38.045"/><rect class="cls-1" x="100.591" y="353.238" width="38.045" height="38.045"/><path class="cls-4" d="M123.678,372.055c0,4.06-1.53,5.736-4.109,5.736-2.707,0-4.012-1.886-4.012-5.543,0-3.819,1.531-5.736,4.109-5.736C122.373,366.512,123.678,368.4,123.678,372.055Zm-6.606.112c0,.484.016.936.048,1.338l4.721-4.093a2.094,2.094,0,0,0-2.207-1.579C117.668,367.833,117.072,369.348,117.072,372.167Zm5.092-.031c0-.485-.016-.936-.049-1.338l-4.721,4.093a2.1,2.1,0,0,0,2.208,1.579C121.567,376.47,122.164,375.277,122.164,372.136Z"/><rect class="cls-3" x="62.547" y="353.238" width="38.045" height="38.045"/><rect class="cls-1" x="62.547" y="353.238" width="38.045" height="38.045"/><path class="cls-4" d="M85.813,376.309v1.321h-7.67v-1.321h3.416V369.38l-3.416,1.305v-1.434l3.416-1.3v-1.273h1.482v9.636Z"/><rect class="cls-1" x="176.681" y="353.238" width="38.045" height="38.045"/><path class="cls-4" d="M199.8,370.267c0,2.593-1.837,3.818-4.3,3.818h-1.8v3.545h-1.482V366.673h3.48C198.157,366.673,199.8,367.865,199.8,370.267Zm-1.514.1c0-1.611-.967-2.384-2.756-2.384h-1.837v4.8h1.676C197.335,372.78,198.286,372.038,198.286,370.362Z"/><rect class="cls-1" x="214.726" y="353.238" width="38.045" height="38.045"/><path class="cls-4" d="M238.617,380.563l-4.7-2.772h-.21c-2.594,0-4.383-1.644-4.383-5.543,0-4.06,2.015-5.736,4.48-5.736,2.594,0,4.383,1.643,4.383,5.624,0,2.851-1.032,4.511-2.53,5.236l.9.274,2.079,1.16Zm-4.883-4.093c1.853,0,2.933-1.176,2.933-4.254,0-3.223-1.063-4.383-2.9-4.383-1.853,0-2.933,1.192-2.933,4.334C230.834,375.325,231.9,376.47,233.734,376.47Z"/><rect class="cls-1" x="252.771" y="353.238" width="38.045" height="38.045"/><path class="cls-4" d="M272.007,373.554h-2.369v4.076h-1.482V366.673h3.48c2.756,0,4.093,1.192,4.093,3.207a3.886,3.886,0,0,1-2.143,3.335l2.659,4.415h-1.837Zm-2.369-1.306h3.142a2.49,2.49,0,0,0,1.434-2.256c0-1.386-.757-2.014-2.739-2.014h-1.837Z"/><rect class="cls-1" x="290.816" y="353.238" width="38.045" height="38.045"/><path class="cls-4" d="M305.893,377.13l.435-1.385a6.753,6.753,0,0,0,3.351.74c1.6,0,2.514-.434,2.514-1.53,0-2.191-6.139-2.191-6.139-5.559,0-1.87,1.627-2.884,3.9-2.884a8.263,8.263,0,0,1,3.416.661l-.419,1.337a6.756,6.756,0,0,0-3.11-.693c-1.369,0-2.288.435-2.288,1.45,0,2.272,6.139,2.272,6.139,5.559,0,2.046-1.788,2.965-4.108,2.965A8.741,8.741,0,0,1,305.893,377.13Z"/><rect class="cls-1" x="328.86" y="353.238" width="38.045" height="38.045"/><path class="cls-4" d="M352.045,368.026h-3.417v9.6h-1.482v-9.6H343.73v-1.353h8.315Z"/><rect class="cls-1" x="366.905" y="353.238" width="38.045" height="38.045"/><path class="cls-4" d="M389.8,366.673v6.43c0,3.382-1.611,4.688-3.915,4.688-2.433,0-3.819-1.272-3.819-4.576v-6.542h1.482v6.461c0,2.5.693,3.336,2.369,3.336,1.692,0,2.4-.87,2.4-3.287v-6.51Z"/><rect class="cls-1" x="404.95" y="353.238" width="38.045" height="38.045"/><path class="cls-4" d="M428.292,366.673l-3.11,10.957h-2.417l-3.11-10.957H421.2l2.191,8.024.371,1.644h.5l.371-1.644,2.159-8.024Z"/><rect class="cls-1" x="442.995" y="353.238" width="38.045" height="38.045"/><path class="cls-4" d="M466.29,366.673l-1.45,10.957h-2.095l-.467-3.062-.193-2.417h-.129l-.194,2.417-.467,3.062h-2.1l-1.45-10.957h1.321l.709,5.64.387,4.028h.193l.355-3.045.371-2.434h1.869l.37,2.434.355,3.045h.193l.387-4.028.709-5.64Z"/><rect class="cls-1" x="481.04" y="353.238" width="38.045" height="38.045"/><path class="cls-4" d="M500.176,372.618H499.9l-2.562,5.012h-1.595l3.077-5.736-3-5.221h1.563l2.578,4.56h.258l2.594-4.56H504.3l-3.013,5.188,3.093,5.769h-1.595Z"/><rect class="cls-1" x="519.085" y="353.238" width="38.045" height="38.045"/><path class="cls-4" d="M538.847,376.309h3.094v1.321h-7.67v-1.321h3.094v-3.384l-3.9-6.252h1.66l2.127,3.545.806,1.611h.193l.822-1.611,2.127-3.545h1.547l-3.9,6.252Z"/><rect class="cls-1" x="557.13" y="353.238" width="38.045" height="38.045"/><path class="cls-4" d="M580.121,376.309v1.321h-7.928v-1.483l5.414-7.234.709-.693v-.226h-5.962v-1.321h7.606v1.482l-5.415,7.235-.725.693v.226Z"/><rect class="cls-1" x="595.174" y="353.238" width="38.045" height="38.045"/><path class="cls-4" d="M614.131,366.383V377.92h3.255v1.321h-4.737V365.062h4.737v1.321Z"/><rect class="cls-1" x="633.219" y="353.238" width="38.045" height="38.045"/><path class="cls-4" d="M648.073,365.062h1.612l6.735,14.179h-1.611Z"/><rect class="cls-1" x="671.264" y="353.238" width="38.045" height="38.045"/><path class="cls-4" d="M691.837,379.241H687.1V377.92h3.255V366.383H687.1v-1.321h4.738Z"/><rect class="cls-1" x="709.309" y="353.238" width="38.045" height="38.045"/><path class="cls-4" d="M728.381,367.56H728.2l-2.079,4.591h-1.643l2.8-5.88h2.1l2.8,5.88H730.46Z"/><rect class="cls-1" x="747.354" y="353.238" width="38.045" height="38.045"/><path class="cls-4" d="M771.213,378.339v1.305h-9.668v-1.305Z"/><rect class="cls-3" x="138.636" y="391.283" width="38.045" height="38.045"/><rect class="cls-1" x="138.636" y="391.283" width="38.045" height="38.045"/><path class="cls-4" d="M161.725,410.1c0,4.06-1.531,5.736-4.109,5.736-2.707,0-4.012-1.886-4.012-5.543,0-3.819,1.531-5.736,4.109-5.736C160.42,404.555,161.725,406.44,161.725,410.1Zm-6.606.112c0,.484.016.936.048,1.338l4.721-4.093a2.094,2.094,0,0,0-2.207-1.579C155.715,405.876,155.119,407.391,155.119,410.21Zm5.092-.031c0-.485-.017-.936-.049-1.338l-4.721,4.093a2.1,2.1,0,0,0,2.208,1.579C159.614,414.513,160.211,413.32,160.211,410.179Z"/><rect class="cls-3" x="100.591" y="391.283" width="38.045" height="38.045"/><rect class="cls-1" x="100.591" y="391.283" width="38.045" height="38.045"/><path class="cls-4" d="M123.856,414.352v1.321h-7.67v-1.321H119.6v-6.929l-3.416,1.305v-1.434l3.416-1.305v-1.273h1.482v9.636Z"/><rect class="cls-3" x="62.547" y="391.283" width="38.045" height="38.045"/><rect class="cls-1" x="62.547" y="391.283" width="38.045" height="38.045"/><path class="cls-4" d="M85.813,414.352v1.321h-7.67v-1.321h3.416v-6.929l-3.416,1.305v-1.434l3.416-1.305v-1.273h1.482v9.636Z"/><rect class="cls-1" x="176.681" y="391.283" width="38.045" height="38.045"/><path class="cls-4" d="M195.175,405.2l-2.03-2.739h1.74l1.789,2.739Z"/><rect class="cls-1" x="214.726" y="391.283" width="38.045" height="38.045"/><path class="cls-4" d="M237.134,409.856l-.08,5.817h-1.209v-1.064a4.184,4.184,0,0,1-3.11,1.242c-1.772-.017-2.771-.952-2.771-2.434,0-1.708,1.756-2.465,5.688-2.771l.016-.629c.016-1.127-.113-2.078-1.869-2.078a6.964,6.964,0,0,0-3.094.757l-.387-1.209a7.8,7.8,0,0,1,3.594-.853C236.828,406.634,237.15,408.116,237.134,409.856Zm-1.53,3.77.032-1.8c-2.965.243-4.222.661-4.222,1.564,0,.741.516,1.177,1.515,1.192A3.964,3.964,0,0,0,235.6,413.626Z"/><rect class="cls-1" x="252.771" y="391.283" width="38.045" height="38.045"/><path class="cls-4" d="M275.826,410.9c0,3.545-1.757,4.931-4.4,4.931a9.922,9.922,0,0,1-3.174-.468V402.46h1.45v3.867l-.129,1.369a4.34,4.34,0,0,1,2.884-1.062C274.649,406.649,275.826,408.181,275.826,410.9Zm-1.467.161c0-2.014-.709-3.11-2.078-3.125a4.328,4.328,0,0,0-2.578.837V414.3a6.8,6.8,0,0,0,1.837.224C273.489,414.528,274.359,413.368,274.359,411.064Z"/><rect class="cls-1" x="290.816" y="391.283" width="38.045" height="38.045"/><path class="cls-4" d="M306.005,411.339c0-3.207,1.95-4.69,4.415-4.69a6.855,6.855,0,0,1,3.223.725l-.419,1.306a5.807,5.807,0,0,0-2.932-.726c-1.708,0-2.8,1.016-2.8,3.3,0,2.256.87,3.27,2.8,3.27a5.517,5.517,0,0,0,2.932-.821l.387,1.273a6.576,6.576,0,0,1-3.352.854C307.552,415.834,306.005,414.352,306.005,411.339Z"/><rect class="cls-1" x="328.86" y="391.283" width="38.045" height="38.045"/><path class="cls-4" d="M351.432,402.46v13.213h-1.257v-.951a4.272,4.272,0,0,1-2.948,1.129c-2.192-.017-3.368-1.547-3.368-4.271,0-3.545,1.756-4.931,4.4-4.931a10.813,10.813,0,0,1,1.724.129V402.46Zm-1.45,11.247v-5.526a6.718,6.718,0,0,0-1.837-.227c-1.95,0-2.82,1.16-2.82,3.465,0,2.014.709,3.109,2.079,3.126A4.325,4.325,0,0,0,349.982,413.707Z"/><rect class="cls-1" x="366.905" y="391.283" width="38.045" height="38.045"/><path class="cls-4" d="M383.562,411.258c0,2.256.95,3.27,2.819,3.27a5.811,5.811,0,0,0,2.933-.756l.387,1.208a6.576,6.576,0,0,1-3.352.854c-2.626,0-4.254-1.482-4.254-4.5s1.853-4.69,4.174-4.69c2.642,0,3.818,1.644,3.464,4.512h-6.171Zm.112-1.257h4.673c-.032-1.482-.725-2.095-2.175-2.095A2.363,2.363,0,0,0,383.674,410Z"/><rect class="cls-1" x="404.95" y="391.283" width="38.045" height="38.045"/><path class="cls-4" d="M423.877,404.974c0,.853.322,1.579.451,2.8h3.48v1.289h-3.432v5.318h3.432v1.289h-7.67v-1.289h2.788v-5.318h-2.788v-1.289h2.74a21.758,21.758,0,0,1-.452-2.723c0-2,1.467-2.755,3.3-2.755a6.636,6.636,0,0,1,2.562.451l-.419,1.306a5.044,5.044,0,0,0-2.224-.451C424.521,403.605,423.877,403.894,423.877,404.974Z"/><rect class="cls-1" x="442.995" y="391.283" width="38.045" height="38.045"/><path class="cls-4" d="M466.532,415.705c0,1.644-1.644,3.029-4.528,3.029-2.353,0-3.754-.79-3.754-2.239a2.369,2.369,0,0,1,1.256-1.838c-1.095-.224-1.579-.644-1.579-1.5,0-.741.548-1.224,1.451-1.643a2.315,2.315,0,0,1-.806-1.869c0-1.886,1.692-3,3.674-3a4.515,4.515,0,0,1,1.724.323l.644-2.256h1.547l-1.128,3.078a2.311,2.311,0,0,1,.79,1.74c0,1.805-1.692,2.755-3.674,2.755a5.632,5.632,0,0,1-1.708-.225c-.757.322-1.1.595-1.1.917,0,.356.306.516,1.064.581l3.77.322C465.694,414.013,466.532,414.481,466.532,415.705Zm-1.483.241c0-.547-.306-.789-1.418-.885l-2.9-.242a1.96,1.96,0,0,0-1,1.45c0,.677.564,1.241,2.353,1.241C464.276,417.51,465.049,416.7,465.049,415.946Zm-5.011-6.4c0,1.063.709,1.627,2.143,1.627,1.531,0,2.176-.676,2.176-1.578,0-1.065-.709-1.725-2.144-1.725C460.683,407.874,460.038,408.567,460.038,409.55Z"/><rect class="cls-1" x="481.04" y="391.283" width="38.045" height="38.045"/><path class="cls-4" d="M503.64,409.565v6.108h-1.45v-5.9c0-1.3-.532-1.836-1.611-1.836a4.438,4.438,0,0,0-2.578.837v6.9H496.55V402.46H498v3.867l-.129,1.386a4.361,4.361,0,0,1,2.884-1.079C502.8,406.634,503.64,407.681,503.64,409.565Z"/><rect class="cls-1" x="519.085" y="391.283" width="38.045" height="38.045"/><path class="cls-4" d="M542.1,414.384v1.289h-7.67v-1.289H537.7V408.1h-3.271v-1.289h4.721v7.573Zm-5.285-10.474a1.45,1.45,0,1,1,1.45,1.45A1.445,1.445,0,0,1,536.817,403.91Z"/><rect class="cls-1" x="557.13" y="391.283" width="38.045" height="38.045"/><path class="cls-4" d="M577.688,406.811V413.9c0,3.191-1.338,4.706-4.222,4.706v-1.371c1.9,0,2.771-.982,2.771-3.576V408.1h-3.754v-1.289Zm.725-2.9a1.451,1.451,0,1,1-1.451-1.45A1.444,1.444,0,0,1,578.413,403.91Z"/><rect class="cls-1" x="595.174" y="391.283" width="38.045" height="38.045"/><path class="cls-4" d="M613.761,411.017l-1.4,1.1v3.561h-1.45V402.46h1.45v6.574l-.161,1.692,5.269-4.125.016,1.675L615,410.243l3.013,5.43h-1.692Z"/><rect class="cls-1" x="633.219" y="391.283" width="38.045" height="38.045"/><path class="cls-4" d="M656.082,414.384v1.289h-7.67v-1.289h3.11V402.46h1.45v11.924Z"/><rect class="cls-1" x="671.264" y="391.283" width="38.045" height="38.045"/><path class="cls-4" d="M694.576,409.083v6.59h-1.289v-6.059c0-1.3-.129-1.837-.983-1.837a2.179,2.179,0,0,0-1.4.662c.016.193.032.4.032.644v6.59h-1.289v-6.059c0-1.3-.129-1.837-.983-1.837a2.13,2.13,0,0,0-1.369.628v7.268H686v-8.862h1.064l.016.773a2.539,2.539,0,0,1,1.9-.95,1.661,1.661,0,0,1,1.66.886,2.888,2.888,0,0,1,1.982-.886C693.931,406.634,694.576,407.358,694.576,409.083Z"/><rect class="cls-1" x="709.309" y="391.283" width="38.045" height="38.045"/><path class="cls-4" d="M731.91,409.565v6.108h-1.45v-5.9c0-1.3-.532-1.836-1.612-1.836a4.443,4.443,0,0,0-2.578.837v6.9h-1.45v-8.862h1.225v.983a4.379,4.379,0,0,1,2.98-1.16C731.072,406.634,731.91,407.681,731.91,409.565Z"/><rect class="cls-1" x="747.354" y="391.283" width="38.045" height="38.045"/><path class="cls-4" d="M762.351,411.339c0-2.949,1.692-4.7,4.077-4.7,2.513,0,3.98,1.723,3.98,4.592s-1.692,4.625-4.077,4.625C763.817,415.851,762.351,414.126,762.351,411.339Zm6.59-.033c0-2.111-.789-3.367-2.545-3.367-1.773,0-2.579,1.289-2.579,3.319s.79,3.287,2.546,3.287C768.136,414.545,768.941,413.256,768.941,411.306Z"/><rect class="cls-3" x="138.636" y="429.328" width="38.045" height="38.045"/><rect class="cls-1" x="138.636" y="429.328" width="38.045" height="38.045"/><path class="cls-4" d="M161.9,452.4v1.321h-7.669V452.4h3.416v-6.929l-3.416,1.3v-1.433l3.416-1.305v-1.273h1.482V452.4Z"/><rect class="cls-3" x="100.591" y="429.328" width="38.045" height="38.045"/><rect class="cls-1" x="100.591" y="429.328" width="38.045" height="38.045"/><path class="cls-4" d="M123.856,452.4v1.321h-7.67V452.4H119.6v-6.929l-3.416,1.3v-1.433l3.416-1.305v-1.273h1.482V452.4Z"/><rect class="cls-3" x="62.547" y="429.328" width="38.045" height="38.045"/><rect class="cls-1" x="62.547" y="429.328" width="38.045" height="38.045"/><path class="cls-4" d="M85.813,452.4v1.321h-7.67V452.4h3.416v-6.929l-3.416,1.3v-1.433l3.416-1.305v-1.273h1.482V452.4Z"/><rect class="cls-1" x="176.681" y="429.328" width="38.045" height="38.045"/><path class="cls-4" d="M199.736,448.948c0,3.545-1.756,4.931-4.4,4.931a10.7,10.7,0,0,1-1.724-.129v2.868h-1.45V444.856h1.224v.983a4.3,4.3,0,0,1,2.981-1.16C198.56,444.694,199.736,446.226,199.736,448.948Zm-1.466.161c0-2.014-.709-3.11-2.079-3.126a4.339,4.339,0,0,0-2.578.838v5.528a6.8,6.8,0,0,0,1.837.224C197.4,452.573,198.27,451.413,198.27,449.109Z"/><rect class="cls-1" x="214.726" y="429.328" width="38.045" height="38.045"/><path class="cls-4" d="M237.3,442.761v13.857h-1.45V454.2l.129-1.37a4.349,4.349,0,0,1-2.884,1.065c-2.191-.017-3.368-1.547-3.368-4.271,0-3.545,1.757-4.931,4.4-4.931a12.31,12.31,0,0,1,1.869.145l-.145-2.078Zm-1.45,8.991v-5.526a6.718,6.718,0,0,0-1.837-.227c-1.949,0-2.819,1.16-2.819,3.465,0,2.014.709,3.109,2.078,3.126A4.33,4.33,0,0,0,235.845,451.752Z"/><rect class="cls-1" x="252.771" y="429.328" width="38.045" height="38.045"/><path class="cls-4" d="M275.794,452.429v1.289h-7.67v-1.289h2.3v-7.573h1.289l-.032,1.708,3.931-1.918.016,1.434-3.754,1.821v4.528Z"/><rect class="cls-1" x="290.816" y="429.328" width="38.045" height="38.045"/><path class="cls-4" d="M306.054,453.2l.435-1.353a6.823,6.823,0,0,0,3.239.741c1.643,0,2.433-.387,2.433-1.208,0-1.789-5.946-1.193-5.946-4.125,0-1.66,1.466-2.563,3.787-2.563a8.249,8.249,0,0,1,3.206.629l-.419,1.321a6.3,6.3,0,0,0-2.787-.661c-1.531,0-2.321.4-2.321,1.112,0,1.724,5.946,1.129,5.946,4.125,0,1.838-1.627,2.659-3.964,2.659A8.4,8.4,0,0,1,306.054,453.2Z"/><rect class="cls-1" x="328.86" y="429.328" width="38.045" height="38.045"/><path class="cls-4" d="M351.754,453.187a6.528,6.528,0,0,1-3.045.692c-2.417,0-2.852-1.321-2.82-3.223l.1-4.511h-2.175v-1.289H346l.048-2.095h1.5l-.274,2.095h4.157v1.289h-3.964l-.1,4.35c-.033,1.128.112,2.078,1.385,2.078a5.775,5.775,0,0,0,2.611-.595Z"/><rect class="cls-1" x="366.905" y="429.328" width="38.045" height="38.045"/><path class="cls-4" d="M389.443,444.856v8.862h-1.225v-.983a4.385,4.385,0,0,1-2.981,1.161c-2.046,0-2.884-1.048-2.884-2.934v-6.106h1.45v5.9c0,1.305.532,1.837,1.612,1.837a4.444,4.444,0,0,0,2.578-.838v-6.9Z"/><rect class="cls-1" x="404.95" y="429.328" width="38.045" height="38.045"/><path class="cls-4" d="M428.13,444.856l-3.109,8.862h-2.1l-3.11-8.862h1.563l1.789,5.3.66,2.272h.371l.66-2.272,1.789-5.3Z"/><rect class="cls-1" x="442.995" y="429.328" width="38.045" height="38.045"/><path class="cls-4" d="M466.822,444.856l-1.547,8.862h-1.95l-1.047-5.946-.177-1.627h-.145l-.178,1.627-1.047,5.946h-1.966l-1.547-8.862h1.37l.951,5.784.193,1.789h.193l.178-1.773.95-5.8h2.031l.95,5.8.178,1.773h.177l.193-1.756.951-5.817Z"/><rect class="cls-1" x="481.04" y="429.328" width="38.045" height="38.045"/><path class="cls-4" d="M500.128,449.883h-.178l-2.368,3.835h-1.6l3.03-4.641-2.981-4.221h1.595L500,448.319h.209l2.369-3.463h1.514l-2.981,4.189,3.03,4.673h-1.595Z"/><rect class="cls-1" x="519.085" y="429.328" width="38.045" height="38.045"/><path class="cls-4" d="M538.831,455.329h2.546v1.289h-6.542v-1.289h2.546V453.54l-3.432-8.684h1.563l1.853,4.817.628,2h.323l.644-2,1.821-4.817h1.482l-3.432,8.684Z"/><rect class="cls-1" x="557.13" y="429.328" width="38.045" height="38.045"/><path class="cls-4" d="M580.008,452.429v1.289H572.4v-1.612l5.817-5.961h-5.655v-1.289h7.283v1.611l-5.817,5.962Z"/><rect class="cls-1" x="595.174" y="429.328" width="38.045" height="38.045"/><path class="cls-4" d="M613.406,443.261c0,1.176,3.142,1.676,3.142,3.206,0,.967-.837,1.466-2.094,1.708v.129c1.257.242,2.094.741,2.094,1.691,0,1.354-3.142,2.127-3.142,3.175,0,.516.435.854,2.305.854h1.353v1.305h-1.37c-2.239,0-3.722-.371-3.722-2.047,0-1.933,3.11-2.529,3.11-3.431,0-.516-.918-.967-2.352-.967h-1.112V447.6h1.112c1.434,0,2.352-.516,2.352-.967,0-.87-3.11-1.273-3.11-3.384,0-1.4,1.209-2.1,3.722-2.1h1.37v1.305h-1.353C613.841,442.454,613.406,442.761,613.406,443.261Z"/><rect class="cls-1" x="633.219" y="429.328" width="38.045" height="38.045"/><path class="cls-4" d="M651.505,441.149h1.483v14.18h-1.483Z"/><rect class="cls-1" x="671.264" y="429.328" width="38.045" height="38.045"/><path class="cls-4" d="M692.868,447.6v1.289h-1.112c-1.434,0-2.353.515-2.353.967,0,.87,3.11,1.273,3.11,3.383,0,1.4-1.208,2.1-3.722,2.1h-1.37v-1.305h1.354c1.869,0,2.3-.306,2.3-.806,0-1.176-3.142-1.676-3.142-3.206,0-.967.838-1.466,2.1-1.708v-.129c-1.257-.242-2.1-.741-2.1-1.692,0-1.353,3.142-2.127,3.142-3.174,0-.516-.435-.855-2.3-.855h-1.354v-1.305h1.37c2.24,0,3.722.372,3.722,2.047,0,1.934-3.11,2.53-3.11,3.432,0,.516.919.967,2.353.967Z"/><rect class="cls-1" x="709.309" y="429.328" width="38.045" height="38.045"/><path class="cls-4" d="M732.441,447.353l-.354.951a1.431,1.431,0,0,1-1.45,1.063,6.045,6.045,0,0,1-1.289-.193l-3.3-.774-.6,1.225-1.224-.483.354-.952a1.432,1.432,0,0,1,1.45-1.062,5.573,5.573,0,0,1,1.306.209l3.287.758.6-1.225Z"/><rect class="cls-2" x="747.354" y="429.328" width="38.045" height="38.045"/><rect class="cls-1" x="747.354" y="429.328" width="38.045" height="38.045" transform="matrix(0.002, -1, 1, 0.002, 316.357, 1213.748)"/><path class="cls-4" d="M761.276,449.071c0,3.183-1.53,4.647-4.39,4.647h-2.337v-9.131h2.592C759.907,444.587,761.276,446.023,761.276,449.071Zm-1.261.068c0-2.417-.806-3.464-2.968-3.464h-1.262v6.955h.993C759.222,452.63,760.015,451.556,760.015,449.139Z"/><path class="cls-4" d="M764.777,445.675v2.94h4.458V449.7h-4.458v2.927h4.592v1.088h-5.827v-9.131h5.827v1.088Z"/><path class="cls-4" d="M778.228,452.6v1.114H772.4v-9.131h1.235V452.6Z"/><line class="cls-5" x1="99.663" y1="163.251" x2="99.663" y2="498.65"/><line class="cls-5" x1="137.506" y1="163.251" x2="137.506" y2="498.65"/><line class="cls-5" x1="174.8" y1="124.599" x2="818.357" y2="124.599"/><line class="cls-5" x1="174.8" y1="86.756" x2="818.357" y2="86.756"/><line class="cls-5" x1="174.8" y1="48.914" x2="818.357" y2="48.914"/><line class="cls-5" x1="63.036" y1="239.395" x2="785.8" y2="239.395"/><line class="cls-5" x1="63.036" y1="201.529" x2="784.5" y2="201.529"/><line class="cls-6" x1="177.4" y1="163.67" x2="784.5" y2="164.558"/><line class="cls-5" x1="63.036" y1="352.993" x2="785.8" y2="352.993"/><line class="cls-5" x1="63.036" y1="315.127" x2="785.8" y2="315.127"/><line class="cls-5" x1="63.036" y1="277.261" x2="785.8" y2="277.261"/><line class="cls-6" x1="176.1" y1="466.15" x2="784.5" y2="466.168"/><line class="cls-5" x1="63.015" y1="429.118" x2="785.779" y2="428.922"/><line class="cls-5" x1="63" y1="391.056" x2="785.764" y2="390.86"/><line class="cls-6" x1="814.4" y1="466.15" x2="835.2" y2="466.15"/><line class="cls-6" x1="813.53" y1="161.95" x2="834.33" y2="161.95"/><line class="cls-5" x1="291.93" y1="467.428" x2="291.93" y2="9.873"/><line class="cls-5" x1="254.064" y1="467.428" x2="254.064" y2="9.873"/><line class="cls-5" x1="216.198" y1="467.428" x2="216.198" y2="9.873"/><line class="cls-5" x1="405.529" y1="467.428" x2="405.529" y2="9.873"/><line class="cls-5" x1="367.662" y1="467.428" x2="367.662" y2="9.873"/><line class="cls-5" x1="329.796" y1="467.428" x2="329.796" y2="9.873"/><line class="cls-5" x1="519.715" y1="467.432" x2="519.519" y2="9.878"/><line class="cls-5" x1="481.653" y1="467.441" x2="481.457" y2="9.887"/><line class="cls-5" x1="443.591" y1="467.45" x2="443.395" y2="9.896"/><line class="cls-5" x1="633.902" y1="467.405" x2="633.706" y2="9.85"/><line class="cls-5" x1="595.839" y1="467.414" x2="595.643" y2="9.86"/><line class="cls-5" x1="557.777" y1="467.423" x2="557.581" y2="9.869"/><line class="cls-5" x1="748.088" y1="467.432" x2="747.892" y2="9.878"/><line class="cls-5" x1="823.93" y1="466.15" x2="823.93" y2="161.95"/><line class="cls-5" x1="710.026" y1="467.441" x2="709.83" y2="9.887"/><line class="cls-5" x1="671.964" y1="467.45" x2="671.768" y2="9.896"/><path class="cls-4" d="M835.99,349.915h6.43c3.383,0,4.688,1.611,4.688,3.915,0,2.433-1.272,3.819-4.576,3.819H835.99v-1.482h6.462c2.5,0,3.335-.693,3.335-2.369,0-1.692-.87-2.4-3.287-2.4h-6.51Z"/><path class="cls-4" d="M846.448,347.261l-1.386-.436a6.746,6.746,0,0,0,.741-3.351c0-1.595-.435-2.514-1.53-2.514-2.192,0-2.192,6.14-5.56,6.14-1.869,0-2.884-1.628-2.884-3.9a8.279,8.279,0,0,1,.661-3.416l1.337.419a6.76,6.76,0,0,0-.693,3.111c0,1.369.435,2.287,1.451,2.287,2.272,0,2.272-6.139,5.559-6.139,2.046,0,2.964,1.789,2.964,4.109A8.742,8.742,0,0,1,846.448,347.261Z"/><path class="cls-4" d="M841.372,329.782h1.305v6.123h-1.305Z"/><path class="cls-4" d="M843.193,320.522v3.771l3.754,1.1v1.5l-10.957-3.336V321.2l10.957-3.335v1.547Zm-1.3.387-2.965.887-1.644.387v.466l1.644.387,2.965.87Z"/><path class="cls-4" d="M846.448,315.855l-1.386-.436a6.748,6.748,0,0,0,.741-3.352c0-1.594-.435-2.513-1.53-2.513-2.192,0-2.192,6.139-5.56,6.139-1.869,0-2.884-1.628-2.884-3.9a8.279,8.279,0,0,1,.661-3.416l1.337.419a6.759,6.759,0,0,0-.693,3.11c0,1.369.435,2.287,1.451,2.287,2.272,0,2.272-6.138,5.559-6.138,2.046,0,2.964,1.789,2.964,4.109A8.745,8.745,0,0,1,846.448,315.855Z"/><path class="cls-4" d="M841.566,305.451c-4.254,0-5.737-2.61-5.737-5a6.3,6.3,0,0,1,.725-3.142l1.273.419a5.3,5.3,0,0,0-.677,2.852c0,1.627,1.016,3.352,4.335,3.352,3.287,0,4.3-1.4,4.3-3.352a5.727,5.727,0,0,0-.757-2.852l1.224-.386a6.471,6.471,0,0,1,.854,3.27C847.108,303.324,845.626,305.451,841.566,305.451Z"/><path class="cls-4" d="M837.312,290.23h8.314v-3.094h1.321v7.67h-1.321v-3.094h-8.314v3.094H835.99v-7.67h1.322Z"/><path class="cls-4" d="M837.312,279.761h8.314v-3.094h1.321v7.67h-1.321v-3.094h-8.314v3.094H835.99v-7.67h1.322Z"/><path class="cls-2" d="M161.8,488v1.321h-7.928v-1.482c2.82-1.725,6.107-3.481,6.107-6.284,0-1.241-.548-2.031-2.385-2.031-2,0-2.53.887-2.53,2.4a2.758,2.758,0,0,0,.129.983l-1.53-.112a7.378,7.378,0,0,1-.065-1.031c0-2.144,1.4-3.562,4.077-3.562,3.142,0,3.819,1.74,3.819,3.191,0,3.093-2.9,4.834-4.673,6.026l-.87.387V488Z"/><path class="cls-2" d="M171.047,481.667h-.9v1.16h-1.161v-1.16h-3.577v-1.1l2.369-3.818h1.208l-2,3.207-.5.58v.112h2.5v-3.9h1.161v3.9h.9Z"/><path class="cls-2" d="M123.756,488v1.321h-7.928v-1.482c2.82-1.725,6.107-3.481,6.107-6.284,0-1.241-.548-2.031-2.385-2.031-2,0-2.529.887-2.529,2.4a2.763,2.763,0,0,0,.128.983l-1.53-.112a7.537,7.537,0,0,1-.065-1.031c0-2.144,1.4-3.562,4.077-3.562,3.142,0,3.819,1.74,3.819,3.191,0,3.093-2.9,4.834-4.673,6.026l-.87.387V488Z"/><path class="cls-2" d="M132.629,480.958c0,1.08-.8,2-2.868,2a6.122,6.122,0,0,1-2.32-.451l.322-1.047a4.956,4.956,0,0,0,2.095.483c1.144,0,1.644-.322,1.644-.87,0-.58-.452-.838-1.708-1.047l-1.9-.322.032-2.949h4.48v1.016h-3.368l-.016,1.062,1.1.178C131.92,479.315,132.629,479.767,132.629,480.958Z"/><path class="cls-2" d="M85.709,488v1.321H77.781v-1.482c2.82-1.725,6.107-3.481,6.107-6.284,0-1.241-.548-2.031-2.385-2.031-2,0-2.529.887-2.529,2.4a2.735,2.735,0,0,0,.129.983l-1.531-.112a7.537,7.537,0,0,1-.065-1.031c0-2.144,1.4-3.562,4.077-3.562,3.142,0,3.819,1.74,3.819,3.191,0,3.093-2.9,4.834-4.673,6.026l-.87.387V488Z"/><path class="cls-2" d="M94.7,480.958c0,1.08-.789,1.982-2.5,1.982-1.724,0-2.691-1.031-2.691-2.964,0-1.773.677-3.336,2.949-3.336a6.9,6.9,0,0,1,2.143.306l-.258,1.032a5.285,5.285,0,0,0-1.966-.338,1.46,1.46,0,0,0-1.676,1.353l1.467.16C94.051,479.347,94.7,479.814,94.7,480.958Zm-1.128.1c0-.5-.386-.823-1.708-.951l-1.224-.129c.016,1.224.5,1.965,1.643,1.965C93.181,481.941,93.567,481.555,93.567,481.056Z"/></svg>