<svg id="Livello_1" data-name="Livello 1" xmlns="http://www.w3.org/2000/svg" viewBox="0 0 296 296"><defs><style>.cls-1{fill:#ff3466;}.cls-2{fill:#1858a8;}</style></defs><title>arrow</title><path class="cls-1" d="M265.72,66.671c1.731,2.909,3.088,6.022,5.5,8.541a16.562,16.562,0,0,1,3.06,4.925,17.606,17.606,0,0,0,3.648,5.826,7.248,7.248,0,0,1,2.257,4.791A33.429,33.429,0,0,0,285,105.847a8.947,8.947,0,0,1,1.184,4.136,34.743,34.743,0,0,0,1.669,6.7c.52,1.745,1.224,3.434,1.807,5.161a3.4,3.4,0,0,1,.215,1.434,22,22,0,0,0,.93,8.269,12.162,12.162,0,0,1,.19,2.179,23.744,23.744,0,0,1,.27,4.361c-.466,4,.247,7.994-.015,11.986a9.276,9.276,0,0,0-.132,1.445c.542,5.635-1.049,10.724-3.385,15.812-1.877,4.089-4.749,7.687-5.908,12.113a1.752,1.752,0,0,1-.486.969c-3.044,2.095-3.719,5.557-4.965,8.656-.86,2.137-1.272,4.456-2.174,6.571a22.538,22.538,0,0,0-1.524,5.982c-.386,2.9-.88,5.784-1.451,8.651a11.862,11.862,0,0,1-1.228,3.4c-1.693,3.042-1.668,6.345-1.356,9.591a9.778,9.778,0,0,1-.758,5.3,29.2,29.2,0,0,0-2.05,5.848c-.489,2.141-1.37,4.2-3.633,5.211a1.786,1.786,0,0,0-.781.751c-1.547,2.9-3.878,5.306-5.153,8.373a8.7,8.7,0,0,1-1.153,1.844c-.881,1.16-1.8,2.293-2.73,3.416-.306.37-.637.859-1.049.979-2.338.681-3.6,2.823-5.565,4-1.148.683-2.216,1.5-3.356,2.194a2.076,2.076,0,0,1-1.342.4c-4.434-1.118-7.364,1.5-10.317,4.071-.645.561-1.225,1.2-1.875,1.751a69.332,69.332,0,0,1-6.739,5.586,18.22,18.22,0,0,1-7.28,3.142,11.445,11.445,0,0,0-9.032,6.645c-.475.991-.916,2-1.347,3.009a5.721,5.721,0,0,1-4,3.455,26.233,26.233,0,0,0-8.621,3.867,2.7,2.7,0,0,1-2.373.633c-2.992-.834-5.426.934-8.015,1.814-.911.309-1.542,1.445-2.452,2.356a3.5,3.5,0,0,0-3.614-.359,2.955,2.955,0,0,1-2.811-.352,6.886,6.886,0,0,0-3.514-.8c-3.151-.184-6.28-.971-9.456-.28-3.488-.988-7.033.616-10.546-.23a2.872,2.872,0,0,0-2.032.539,3.125,3.125,0,0,1-4.079-.2c-2.014-1.868-4.406-1.891-6.82-2.066a30.578,30.578,0,0,1-3.574-.528,26.993,26.993,0,0,0-5.41-.026.791.791,0,0,0-.339.131c-1.538.866-3.137-.146-4.67.148-1.427.274-2.817,1.086-4.217,1.072-2.212-.024-4.172-1.139-6.033-2.336a55.626,55.626,0,0,0-6.241-3.791,21.055,21.055,0,0,1-3.921-1.855c-.388-.29-1-.446-1.179-.821-.924-1.921-2.7-2.71-4.426-3.619a3.007,3.007,0,0,1-1.237-1.28c-1.086-2.287-3.03-2.936-5.352-3.222a93.008,93.008,0,0,1-11.751-2.459,6.046,6.046,0,0,1-2.44-1.382,34.371,34.371,0,0,0-6.755-4.925,16.833,16.833,0,0,1-3.665-2.96c-1.084-.986-2.041-2.082-3.6-2.382a3.29,3.29,0,0,1-1.554-.895c-2.863-2.8-6.047-5.209-9.154-7.714a18.151,18.151,0,0,1-1.479-1.587c-.51-.524-.981-1.35-1.584-1.472-2.422-.491-3.485-2.406-4.847-4.089a7.781,7.781,0,0,0-2.306-1.759,7.621,7.621,0,0,1-3.012-3.093c-1.369-2.441-2.891-4.8-4.253-7.24a6.321,6.321,0,0,0-2.85-2.725c-3.39-1.644-5.686-4.558-8.236-7.169a4.466,4.466,0,0,1-.9-1.547c-.852-2.276-1.646-4.573-2.471-6.859-.785-2.177-1.636-4.328-.491-6.667a2.664,2.664,0,0,0-.221-2.459,23.121,23.121,0,0,0-3.281-5.242,11.784,11.784,0,0,1-3.181-7.913,24.464,24.464,0,0,0-1.967-9.51,8.966,8.966,0,0,1-.569-6.06,14.6,14.6,0,0,0,.061-5.782c-.376-2.484-1.517-4.772-1.474-7.4.022-1.289-1.144-2.6-1.978-4.322.825-2.7-.579-5.191-2.562-7.564l-1.3.1a16.1,16.1,0,0,0-1.142-8.875,14.129,14.129,0,0,1-1.154-4.911c-.136-2.689-.815-5.264-1.1-7.908a5.874,5.874,0,0,1-.242-1.432c.217-1.3.652-2.573.824-3.879s-.139-2.731.253-3.944a6.02,6.02,0,0,0,.089-4.371c.842-.841,1.606-1.613,2.378-2.376A7.563,7.563,0,0,0,4.178,113c.378-2.247,2.094-3.9,3.982-5.054a10.2,10.2,0,0,0,3.792-3.835,14.451,14.451,0,0,1,1.68-1.925c.386-.466.937-.952,1.014-1.487.291-2.019,1.449-3.583,2.43-5.26a2.953,2.953,0,0,0,.427-1.716,5.055,5.055,0,0,1,1.58-4.284,12.249,12.249,0,0,0,1.929-3.054,23.532,23.532,0,0,1,3.734-5.807,36.323,36.323,0,0,0,3.541-5.49c.444-.725.786-1.511,1.2-2.253,1.845-3.289,3.736-6.553,5.533-9.868a7.46,7.46,0,0,1,2.528-3.05,5.456,5.456,0,0,0,1.516-1.5,10.466,10.466,0,0,1,5.972-4.533c1.129-.3,2.042-1.422,3.171-1.711,2.575-.658,4.02-2.437,5.485-4.445,1.282-1.758,2.993-3.176,4.1-5.124a6.516,6.516,0,0,1,2.4-2.2,8.582,8.582,0,0,0,4.556-6.254c.289-1.65,1.764-2.26,3.009-1.225,2.074,1.725,4.05,1.565,6.464.743a27.412,27.412,0,0,1,6.842-1.044,9.426,9.426,0,0,0,5.538-2.48A6.7,6.7,0,0,1,90.1,28.263a6.2,6.2,0,0,0,3.727-2.135q.9-.914,1.819-1.81A5.449,5.449,0,0,1,97,23.093a40.972,40.972,0,0,0,4.7-1.891c1.337-.807,2.377-2.139,4.053-2.339a9.839,9.839,0,0,0,4.857-2.409,12.42,12.42,0,0,1,7.307-2.745,9.971,9.971,0,0,0,6.1-2.039,12.094,12.094,0,0,1,9.157-2.92,3.289,3.289,0,0,0,2.953-1.1c2.022-2.218,4.84-1.977,7.426-2.387.5-.08,1.1.438,1.386.562,2.924-.719,5.605-1.405,8.3-2.021a4.444,4.444,0,0,1,1.823.008c1.811.369,3.6.759,5.318-.325a.89.89,0,0,1,.709-.085c2.374,1.031,4.2-.253,6.016-1.5,2.668.556,5.376.675,7.477,2.664a3.308,3.308,0,0,0,1.65.712,3.057,3.057,0,0,1,2.2,1.729,6.372,6.372,0,0,0,3.9,3.087,6.554,6.554,0,0,1,2.625,1.882c4.041,4.236,10.477,3.192,13.983.266.65-.542,1.29-1.1,1.961-1.667a8.553,8.553,0,0,1,5.1,2.713,13.943,13.943,0,0,0,6.118,3.839,18.97,18.97,0,0,1,4.139,2.278c1.027.642,1.98,1.408,2.94,2.151a4.129,4.129,0,0,1,1.307,1.234c1.022,2.181,2.957,3.551,4.5,5.264a6.9,6.9,0,0,0,4.418,2.316Z"/><path class="cls-2" d="M286.142,66.648c.035-.136.062-.276.087-.417.019-.113.022-.22.036-.333a.493.493,0,0,0-.028-.329c-.028-.036-.056-.077-.091-.083a2.816,2.816,0,0,0-.346-.038.194.194,0,0,1-.169-.072.065.065,0,0,0-.108-.01c-.068.057-.115.025-.159-.027a.439.439,0,0,1-.127-.221c-.007-.034-.021-.062-.039-.061-.1,0-.168-.128-.244-.219-.034-.041-.073-.062-.123-.026a.192.192,0,0,1-.259,0,.073.073,0,0,0-.07-.019c-.146.05-.269-.021-.421.061-.056.031-.1,0-.123-.1a.228.228,0,0,0-.124-.162.172.172,0,0,0-.2.007c-.06.036-.117.039-.179.073a.51.51,0,0,1-.218.074c-.169.01-.316-.084-.491-.045a.018.018,0,0,1-.017-.008c-.059-.067-.139-.048-.211-.058-.03-.005-.064,0-.089-.019a.346.346,0,0,0-.417-.036.081.081,0,0,1-.091,0c-.138-.123-.312-.106-.451-.224-.02-.016-.049,0-.076.011a.2.2,0,0,1-.272-.023.144.144,0,0,0-.142-.03.8.8,0,0,1-.4.031.152.152,0,0,0-.135.027.109.109,0,0,1-.159-.03,1.285,1.285,0,0,1-.086-.1.115.115,0,0,0-.158-.036c-.066.031-.137.054-.187.012-.086-.075-.185-.114-.25-.266-.03-.071-.069-.111-.122-.1-.072.007-.124-.051-.157-.179-.026-.1-.062-.181-.119-.179-.081,0-.144-.1-.241,0s-.159.074-.217,0a.129.129,0,0,0-.063-.046c-.116-.039-.233-.072-.349-.113a.277.277,0,0,1-.114-.066.282.282,0,0,0-.3-.08.135.135,0,0,1-.158-.041.107.107,0,0,0-.14-.037c-.07.033-.125,0-.17-.063a.306.306,0,0,0-.289-.12c-.061,0-.129.031-.161-.091-.006-.026-.034-.016-.053,0-.055.047-.088.02-.11-.063-.065-.242-.186-.292-.328-.237-.075.029-.144.053-.195-.026-.027-.043-.069-.027-.113.022-.088.094-.174.193-.25.182-.023,0-.056.045-.084.067s-.062.066-.083.056c-.118-.055-.268.035-.372-.085a.064.064,0,0,0-.091,0,.1.1,0,0,1-.143-.019.1.1,0,0,0-.146,0,.159.159,0,0,1-.1.025c-.133.007-.286.151-.424.191-.148.15-.274.171-.389.119-.027-.012-.062.007-.094.013s-.056.029-.077.019c-.08-.033-.167-.03-.233-.123-.045-.065-.093-.126-.161-.1a.168.168,0,0,1-.2-.035.052.052,0,0,0-.055-.007c-.1.025-.195.053-.294.08-.008-.011-.02-.017-.027-.036-.063-.2-.15-.309-.273-.306-.062,0-.119-.026-.18-.028a.171.171,0,0,1-.167-.081c-.041-.067-.093-.066-.161-.016s-.115.075-.155.047c-.076-.052-.163-.056-.234-.118a.292.292,0,0,0-.286-.053.163.163,0,0,1-.109-.01.49.49,0,0,0-.341-.054c-.045.014-.078-.041-.121-.04a1.08,1.08,0,0,0-.156.044c-.018,0-.033-.016-.048-.032-.06-.062-.117-.129-.211-.043-.026.024-.048,0-.073,0a.3.3,0,0,1-.254-.178c-.062-.1-.133-.166-.244-.05a.074.074,0,0,1-.06.028c-.081-.009-.169.049-.267.168a.131.131,0,0,1-.1.06c-.121-.015-.262.063-.352-.086,0-.007-.011,0-.017,0-.055.011-.087-.046-.112-.136-.04-.146-.1-.21-.193-.186a.457.457,0,0,1-.074,0c-.079.009-.143-.039-.171-.192-.024-.126-.071-.143-.136-.1-.042.024-.084.054-.124.074s-.047-.011-.057-.063a1.121,1.121,0,0,1-.012-.127c-.006-.134-.038-.188-.088-.2a.293.293,0,0,1-.133-.066c-.043-.04-.093-.033-.153.039s-.112.079-.151.029-.094-.021-.155.057a.543.543,0,0,1-.232.183.4.4,0,0,0-.122.059c-.088.074-.163.091-.218,0-.023-.036-.055-.041-.092,0-.083.1-.151.086-.227.142-.108.08-.186.052-.222-.122-.041-.2-.122-.23-.22-.214-.032.005-.065.015-.1.022a.687.687,0,0,1-.429.011.11.11,0,0,0-.052-.017c-.025,0-.051-.006-.078.024-.139.155-.244.132-.336.043-.052-.05-.115-.047-.187.012s-.109.062-.148.011-.085-.056-.147.006-.124.075-.169.023c-.069-.08-.159-.065-.249-.05a.486.486,0,0,0-.173.026c-.161.081-.276-.039-.4-.106-.071-.037-.128-.133-.212-.127-.018,0-.039-.009-.044-.043-.029-.179-.109-.141-.192-.093-.013.007-.024,0-.035-.012-.038-.035-.084-.008-.139.085-.073.123-.127.13-.174.08-.08-.083-.19-.043-.265-.145-.017-.024-.047-.009-.073-.005-.14.021-.282.048-.423.067a.316.316,0,0,1-.147-.009,3.652,3.652,0,0,1-.374-.156.3.3,0,0,1-.194-.247c-.008-.033-.027-.038-.043-.052-.042-.038-.121.075-.154.235-.074.351-.179.691-.252,1.042a.17.17,0,0,0-.114.018c-.063.033-.114.015-.151-.065-.027-.061-.064-.094-.113-.066-.092.052-.163.011-.238-.017-.092-.035-.185-.065-.275-.1-.107-.047-.239.019-.335-.078-.024-.024-.073.039-.094.01-.052-.074-.124-.049-.191-.052a.184.184,0,0,1-.182-.1c-.038-.071-.089-.041-.152.062s-.112.116-.162.108c-.081-.01-.141-.093-.193-.2a.4.4,0,0,0-.317-.231.114.114,0,0,0-.095.013c-.084.058-.169.131-.226.041-.1.079-.156-.029-.242.007s-.144-.072-.218-.1c-.156-.055-.309-.122-.465-.178a.182.182,0,0,0-.111,0,.723.723,0,0,1-.435.041c-.039-.016-.089.01-.135.024a.287.287,0,0,1-.31-.1c-.116-.131-.226-.286-.338-.43-.03-.037-.067-.036-.114.036-.163.244-.3.3-.42.231a.265.265,0,0,0-.086-.035.121.121,0,0,0-.093,0c-.093.057-.164.011-.241,0s-.144-.067-.173-.248c-.009-.056-.028-.081-.052-.085a.258.258,0,0,0-.037-.134c-.028-.037-.056-.077-.091-.084a3.051,3.051,0,0,0-.346-.038.2.2,0,0,1-.17-.071.064.064,0,0,0-.107-.011c-.068.058-.115.025-.159-.027L253.874,60l-.007-.01h0a.356.356,0,0,1-.071-.155c-.008-.033-.022-.061-.039-.061-.1,0-.168-.127-.245-.219-.034-.041-.072-.062-.123-.026a.191.191,0,0,1-.258,0,.071.071,0,0,0-.07-.018c-.146.049-.269-.022-.421.061-.056.03-.1,0-.123-.1a.226.226,0,0,0-.124-.162.173.173,0,0,0-.2.006c-.061.036-.118.039-.179.074a.523.523,0,0,1-.218.074c-.169.009-.316-.085-.492-.046a.018.018,0,0,1-.017-.007c-.059-.068-.138-.049-.21-.059-.03,0-.064.006-.089-.019a.348.348,0,0,0-.417-.036.083.083,0,0,1-.091,0c-.139-.124-.312-.107-.452-.224-.019-.017-.048-.005-.075.01a.2.2,0,0,1-.272-.022.142.142,0,0,0-.142-.03.791.791,0,0,1-.4.03.153.153,0,0,0-.135.028.109.109,0,0,1-.158-.031,1.123,1.123,0,0,1-.087-.1.113.113,0,0,0-.157-.037c-.067.032-.137.055-.187.012-.087-.075-.185-.114-.25-.265-.03-.072-.07-.111-.122-.106-.072.008-.125-.051-.157-.178-.026-.1-.063-.181-.119-.179-.081,0-.144-.1-.241,0s-.159.074-.217,0a.138.138,0,0,0-.064-.046c-.116-.039-.233-.072-.348-.112a.289.289,0,0,1-.115-.067.283.283,0,0,0-.3-.08.133.133,0,0,1-.157-.041.106.106,0,0,0-.14-.036c-.07.033-.125,0-.171-.063a.3.3,0,0,0-.288-.121c-.062,0-.129.032-.161-.09-.007-.027-.034-.017-.054,0-.055.047-.087.021-.109-.063-.066-.242-.186-.292-.328-.236-.075.028-.145.053-.195-.027-.028-.043-.069-.027-.113.022-.088.1-.175.193-.25.183-.023,0-.057.044-.085.066s-.062.066-.082.057c-.118-.056-.268.035-.372-.086a.064.064,0,0,0-.091,0,.1.1,0,0,1-.143-.019.1.1,0,0,0-.146,0,.16.16,0,0,1-.1.024c-.132.007-.285.152-.423.191-.148.15-.274.171-.389.12-.027-.012-.062.006-.094.013s-.056.028-.078.019c-.079-.034-.167-.031-.232-.124-.045-.065-.093-.126-.162-.1a.167.167,0,0,1-.2-.035c-.014-.015-.035-.011-.054-.007-.1.025-.2.053-.294.08-.009-.011-.021-.017-.027-.036-.064-.2-.15-.309-.273-.3-.063,0-.119-.027-.181-.028a.172.172,0,0,1-.166-.082c-.041-.066-.094-.066-.161-.015s-.115.074-.156.046c-.075-.052-.162-.056-.233-.118a.292.292,0,0,0-.286-.052.175.175,0,0,1-.109-.01.481.481,0,0,0-.342-.054c-.044.013-.077-.041-.12-.04a1.216,1.216,0,0,0-.156.043c-.019,0-.034-.016-.048-.031-.06-.063-.117-.13-.211-.044-.026.025-.048,0-.073,0a.305.305,0,0,1-.255-.177c-.061-.1-.132-.167-.243-.051a.075.075,0,0,1-.06.029c-.081-.01-.169.048-.267.167a.128.128,0,0,1-.1.06c-.121-.014-.262.063-.352-.086,0-.006-.011,0-.018,0-.054.01-.087-.046-.111-.137-.04-.145-.1-.209-.193-.185-.026.007-.049,0-.074,0-.079.01-.143-.038-.172-.191-.023-.127-.07-.143-.135-.1-.042.025-.084.054-.125.075s-.047-.012-.056-.064a1.089,1.089,0,0,1-.013-.126c0-.134-.037-.189-.087-.2a.3.3,0,0,1-.134-.067c-.043-.04-.092-.032-.152.04s-.112.079-.151.028-.094-.021-.155.057a.533.533,0,0,1-.232.183.405.405,0,0,0-.122.06c-.089.073-.163.091-.219,0-.022-.036-.054-.041-.091,0-.083.1-.151.086-.227.142-.108.08-.186.053-.223-.122-.04-.2-.121-.23-.219-.214-.033,0-.066.016-.1.023a.694.694,0,0,1-.429.011.112.112,0,0,0-.052-.018c-.025,0-.051-.006-.078.024-.139.156-.244.133-.337.044-.051-.05-.114-.048-.186.012s-.11.062-.148.01-.085-.056-.147.006-.125.076-.169.024c-.07-.081-.159-.066-.249-.051a.506.506,0,0,0-.173.026c-.161.082-.276-.039-.4-.1-.072-.038-.129-.134-.212-.128-.018,0-.039-.008-.045-.042-.028-.179-.108-.141-.191-.094-.013.007-.024,0-.035-.012-.038-.034-.084-.007-.139.085-.073.123-.128.13-.174.081-.08-.083-.19-.044-.265-.146-.017-.024-.047-.009-.073-.005-.141.022-.283.048-.423.067a.315.315,0,0,1-.147-.008,3.569,3.569,0,0,1-.374-.157.3.3,0,0,1-.194-.247c-.008-.033-.028-.038-.043-.051-.043-.038-.121.075-.155.234-.073.351-.178.692-.251,1.042a.176.176,0,0,0-.114.018c-.063.033-.115.016-.151-.064-.028-.062-.065-.094-.113-.066a.252.252,0,0,1-.238-.018c-.092-.035-.185-.065-.276-.1-.107-.047-.239.019-.334-.078-.024-.024-.073.039-.094.01-.052-.074-.124-.048-.192-.052a.183.183,0,0,1-.181-.1c-.038-.071-.089-.041-.152.063s-.113.115-.163.108c-.08-.011-.14-.094-.193-.2a.4.4,0,0,0-.316-.232.118.118,0,0,0-.095.013c-.084.059-.17.132-.227.042-.1.078-.156-.03-.241.007s-.144-.073-.219-.1c-.155-.055-.308-.122-.464-.179a.2.2,0,0,0-.111,0,.716.716,0,0,1-.435.041c-.039-.016-.089.011-.135.024a.285.285,0,0,1-.31-.1c-.116-.131-.226-.286-.338-.429-.03-.038-.067-.036-.114.035-.163.245-.3.3-.42.231a.262.262,0,0,0-.086-.034.115.115,0,0,0-.094,0c-.092.057-.163.011-.24-.006s-.145-.066-.173-.247c-.018-.109-.07-.106-.132-.047-.043.04-.09.1-.126.1-.087.007-.184.067-.249-.043a.116.116,0,0,0-.174-.048c-.053.03-.075-.034-.1-.092a1.512,1.512,0,0,0-.232-.387.321.321,0,0,0-.35-.1.2.2,0,0,1-.15.009c-.086-.036-.175-.055-.26-.093a.387.387,0,0,0-.389.1.893.893,0,0,1-.263.119c-.067.027-.122-.008-.146-.143,0-.022-.018-.024-.027-.036-.042.032-.085.07-.126.1-.063.039-.119.053-.16-.02a.292.292,0,0,0-.211-.135.431.431,0,0,0-.2-.047,1.971,1.971,0,0,0-.392.112.2.2,0,0,1-.17.017c-.083-.046-.2.055-.267-.051l-.1.036a60.172,60.172,0,0,1-3.348,11.344.135.135,0,0,0,.178.056.123.123,0,0,1,.059-.019c.072.014.14.042.213.049a1.777,1.777,0,0,1,.242,0c.082.02.17.02.231.127a.345.345,0,0,1,.272.03c.146.105.327.035.5.013a.337.337,0,0,1,.167,0c.155.058.309.12.465.175.052.018.1.05.163.021a.321.321,0,0,1,.257.013,3.329,3.329,0,0,1,.327.125.3.3,0,0,0,.241,0,.507.507,0,0,1,.325-.047c.064.017.142-.027.208-.02a1.334,1.334,0,0,1,.21.064A.116.116,0,0,0,220,66.5c.042-.018.072.006.1.041.058.069.119.131.206.074a.211.211,0,0,1,.222,0c.091.035.178.09.292.023.046-.028.084.011.126.018.179.031.333.177.538.092.033-.013.06.009.089.018.046.015.091.038.139.05.188.047.357.181.573.1.026-.009.048.008.071.016.07.024.138.052.208.072a.424.424,0,0,0,.179.032.118.118,0,0,1,.135.056.13.13,0,0,0,.081.052c.161.056.324.111.486.164.041.013.081.036.127.015a.344.344,0,0,1,.224,0,.239.239,0,0,0,.13,0,.222.222,0,0,1,.275.1c.028.039.066.031.1.027a1.284,1.284,0,0,0,.314-.086c.1-.038.194-.04.239.145.007.028.031.034.049.014a.149.149,0,0,1,.176-.055c.065.013.126.048.2,0,.059-.035.094.018.106.143.007.074.036.086.071.073a1.446,1.446,0,0,1,.178-.055c.032-.007.068-.02.091.005.145.152.327.15.49.227a.121.121,0,0,0,.136-.039c.037-.033.072-.053.1-.023.072.086.175.058.235.188.02.045.057.015.091,0,.176-.073.357-.166.509-.106l0,.039c-.009.062.011.127.035.115a.239.239,0,0,0,.1-.067.394.394,0,0,1,.148-.126.527.527,0,0,1,.373,0,.376.376,0,0,0,.255.024c.039-.009.081-.03.113-.01.152.094.358-.05.492.122.009.011.024,0,.038,0,.134-.052.241.033.377-.03.046-.02.083.018.123.035s.051.053.082.047c.08-.017.139.046.2.114.04.047.086.053.146,0a.15.15,0,0,1,.219.005.282.282,0,0,0,.339.059.249.249,0,0,1,.291.022.194.194,0,0,0,.235.021.128.128,0,0,1,.208.055.126.126,0,0,0,.186.072.36.36,0,0,1,.281-.015.625.625,0,0,0,.42.035c.058-.019.115-.015.142.1a.048.048,0,0,0,.045.039c.082.02.148.105.254.019a.122.122,0,0,1,.132-.013.283.283,0,0,0,.2.007.07.07,0,0,1,.055,0c.072.036.146.07.216.114a.141.141,0,0,0,.142.029.158.158,0,0,1,.222.079c.02.035.055.027.086.028.08,0,.161,0,.242,0a.609.609,0,0,1,.222.009.365.365,0,0,0,.27.036c.032-.011.057.022.082.045a.444.444,0,0,0,.4.137.221.221,0,0,1,.26.079.064.064,0,0,0,.086.027.74.74,0,0,1,.376-.025.342.342,0,0,1,.249.048c.08.071.178.037.271.035.012,0,.023.009.034.012a1.394,1.394,0,0,1,.278.092c.094.053.182.122.3.07.013-.006.024.007.033.018.05.058.118.027.181.02s.159-.049.221.012c.046.047.1.032.162.017.092-.023.183-.045.248.054.031.049.073.055.125.012a.072.072,0,0,1,.11,0,.254.254,0,0,0,.343.033.171.171,0,0,1,.167,0,.863.863,0,0,0,.293.1.271.271,0,0,1,.21.065.066.066,0,0,0,.091,0c.075-.054.125-.011.173.048s.1.1.174.043a.049.049,0,0,1,.073,0c.069.079.162.056.236.112a.109.109,0,0,0,.144.014c.132-.093.226-.016.318.064.031.026.058.063.1.063a1.073,1.073,0,0,1,.507.065c.044.024.106-.022.146.012.162.138.379.029.542.159.01.008.024,0,.038,0a.354.354,0,0,1,.369.091.06.06,0,0,0,.071.015c.1-.052.166.036.254.027a.963.963,0,0,1,.258.011c.018,0,.04-.005.052.015.069.112.169.074.267.05a.83.83,0,0,1,.173-.031c.062,0,.132-.023.179.028a.315.315,0,0,0,.225.075.39.39,0,0,1,.106.025.939.939,0,0,0,.238.1c.079.007.143.087.241,0,.027-.024.052-.011.074,0,.08.033.158.073.237.107a1.045,1.045,0,0,0,.205.079.528.528,0,0,0,.274.024.4.4,0,0,1,.27.038c.011,0,.026-.007.039-.006a.768.768,0,0,1,.127.01,3.784,3.784,0,0,1,.5.158.256.256,0,0,0,.092,0c.106,0,.213-.012.318-.013a.086.086,0,0,1,.067.032.166.166,0,0,0,.195.043.144.144,0,0,1,.089.013,1.181,1.181,0,0,0,.14.042.66.66,0,0,1,.193.053.581.581,0,0,0,.336.076,1.1,1.1,0,0,1,.294.019.2.2,0,0,0,.151-.016.065.065,0,0,1,.088.016.364.364,0,0,0,.234.114,1.664,1.664,0,0,0,.6.054.157.157,0,0,1,.175.05c.043.059.1.046.167-.012.088-.076.161-.068.213.027a.329.329,0,0,0,.36.2c.051-.008.1,0,.152-.012a.414.414,0,0,1,.254.027.581.581,0,0,0,.229.063,1.537,1.537,0,0,1,.548.134,1.045,1.045,0,0,0,.251.041c.048.008.095.022.142.034a.771.771,0,0,0,.141.037,2.339,2.339,0,0,1,.752.139.4.4,0,0,1,.131.079.2.2,0,0,0,.136.055.586.586,0,0,1,.305.051c.085.057.16-.021.254-.278.019-.05.036-.1.044-.124l.014-.1.018.007c.179.031.333.177.538.092.033-.014.06.009.089.018.047.015.092.038.139.05.188.046.357.18.573.1.026-.009.048.008.071.016.07.023.138.051.208.072a.425.425,0,0,0,.18.031.118.118,0,0,1,.134.057.131.131,0,0,0,.081.051q.243.085.487.164c.04.013.08.037.126.016a.338.338,0,0,1,.224,0,.239.239,0,0,0,.13,0,.223.223,0,0,1,.275.1c.028.039.066.031.1.027a1.33,1.33,0,0,0,.314-.086c.1-.038.194-.04.239.144.007.028.031.035.049.014a.15.15,0,0,1,.176-.055c.066.013.126.048.2,0,.059-.035.094.017.106.142.007.075.037.086.072.073a1.616,1.616,0,0,1,.177-.054c.032-.008.068-.02.091,0,.145.152.327.149.49.226.04.019.085.009.136-.038s.072-.054.1-.024c.071.087.174.058.234.189.02.045.057.014.091,0,.177-.073.357-.165.51-.1l-.006.039c-.009.061.011.127.035.115a.239.239,0,0,0,.1-.067.376.376,0,0,1,.148-.126.533.533,0,0,1,.373-.006.377.377,0,0,0,.255.025c.039-.01.082-.03.113-.011.122.076.277,0,.4.055-.023,0-.044,0-.067,0a.15.15,0,0,0-.168.136.444.444,0,0,1-.041.126,1.157,1.157,0,0,1-.13-.007.152.152,0,0,0-.181.119l-.009.025a.615.615,0,0,1-.276,0c-.1-.024-.181-.014-.217.045-.05.081-.158.091-.327.024-.135-.053-.253-.077-.3-.016s-.1.069-.143.1c-.1-.046-.192-.065-.234-.018-.071.08-.231.052-.215.235s-.069.22-.2.21a.187.187,0,0,0-.106.019c-.146.077-.286.16-.433.235a.4.4,0,0,1-.173.05.38.38,0,0,0-.354.215.178.178,0,0,1-.186.114.142.142,0,0,0-.165.1c-.03.1-.109.124-.221.108a.413.413,0,0,0-.387.169c-.057.059-.085.153-.24.074-.034-.017-.048.018-.048.052,0,.095-.059.1-.166.049-.309-.154-.47-.083-.543.1-.039.1-.077.187-.2.164-.07-.012-.091.041-.081.129.019.169.042.341-.039.4-.024.019,0,.094-.007.141s.011.119-.017.13c-.165.064-.209.289-.428.281-.048,0-.078.033-.085.085a.13.13,0,0,1-.15.121c-.081,0-.127.044-.136.139a.2.2,0,0,1-.064.115c-.114.134-.1.411-.188.579.02.277-.073.417-.231.481-.037.016-.05.066-.073.1s-.021.079-.05.092c-.107.045-.184.133-.34.112-.108-.015-.215-.023-.252.065a.223.223,0,0,1-.215.158c-.028,0-.043.023-.056.046-.063.116-.124.235-.186.354a.136.136,0,0,1-.061-.006c-.259-.113-.457-.133-.565-.011-.055.062-.135.091-.193.149a.239.239,0,0,1-.236.087c-.106-.021-.154.031-.163.141-.007.09-.028.178-.094.192-.122.025-.2.106-.335.119a.382.382,0,0,0-.314.227.218.218,0,0,1-.11.1.641.641,0,0,0-.367.281c-.027.055-.113.037-.151.08a1.289,1.289,0,0,0-.1.189c-.014.021-.047.018-.077.019-.119,0-.24,0-.237.163,0,.047-.046.045-.069.069a.428.428,0,0,1-.415.085c-.162-.032-.293-.022-.274.189a.091.091,0,0,1-.026.084c-.083.07-.1.206-.069.407a.161.161,0,0,1-.031.151c-.124.1-.173.309-.409.262-.01,0-.014.007-.019.015-.039.061-.127.042-.243-.016-.186-.092-.311-.088-.367.02-.016.031-.048.043-.068.071-.063.084-.17.1-.354-.007-.152-.091-.212-.06-.231.038-.012.062-.02.129-.036.186-.012.04-.055.035-.117,0a1.633,1.633,0,0,1-.143-.1c-.143-.115-.229-.133-.288-.1a.4.4,0,0,1-.191.069c-.08,0-.117.06-.1.183s-.02.178-.108.17-.107.072-.082.2a.678.678,0,0,1-.022.387.491.491,0,0,0-.05.171c0,.151-.055.239-.2.211-.057-.011-.091.015-.08.091.025.166-.048.222-.06.345-.016.176-.115.227-.329.105-.239-.136-.349-.089-.422.02-.024.035-.043.076-.065.114a.886.886,0,0,1-.38.423.15.15,0,0,0-.065.034c-.022.026-.053.043-.046.1.033.273-.086.353-.262.363-.1,0-.153.068-.158.19,0,.1-.035.161-.124.152s-.136.032-.127.147-.036.188-.13.184c-.146,0-.213.094-.28.194-.042.064-.106.1-.13.19-.063.228-.292.231-.476.293-.1.035-.255,0-.325.09a.06.06,0,0,1-.085.005c-.211-.134-.244-.023-.272.1,0,.019-.024.021-.043.023-.071.006-.085.075-.039.21.061.181.018.239-.076.24-.158,0-.218.143-.391.124-.041,0-.053.038-.072.066-.106.155-.208.315-.316.467a.419.419,0,0,1-.143.135,5.419,5.419,0,0,1-.5.22.433.433,0,0,1-.432-.035c-.041-.023-.064-.008-.092-.006-.078.007-.033.184.1.359.3.386.552.793.848,1.178a.214.214,0,0,0-.085.126c-.023.09-.088.124-.2.087-.088-.029-.156-.022-.172.05-.03.135-.137.166-.235.213-.119.057-.235.12-.359.171-.146.061-.2.247-.386.252-.046,0-.025.106-.075.1-.124-.016-.163.076-.228.138a.256.256,0,0,1-.267.087c-.108-.027-.123.049-.073.2s.016.212-.037.254a.447.447,0,0,1-.379.009.559.559,0,0,0-.528.1.145.145,0,0,0-.073.1c-.016.133-.019.281-.164.255-.006.163-.172.124-.213.239s-.206.074-.3.122c-.2.1-.408.187-.608.286a.243.243,0,0,0-.1.106c-.1.177-.176.379-.354.456-.053.023-.07.095-.1.151a.344.344,0,0,1-.216.18c-.091-.082-.183-.161-.274-.247a.853.853,0,0,0-.466-.285.333.333,0,0,0-.2.032,4.612,4.612,0,0,0-.4.395.322.322,0,0,1-.265.142c-.079,0-.127.033-.122.124.009.141-.081.169-.194.172a.749.749,0,0,1-.421-.057c-.052-.023-.1-.032-.12-.01-.1.13-.338.085-.536.091-.089,0-.155.03-.158.129a.3.3,0,0,1-.255.324.117.117,0,0,0-.095.069c-.079.231-.3.315-.339.585-.016.1-.1.124-.251.06a.394.394,0,0,0-.339,0,.268.268,0,0,0-.194.26c-.013.11-.066.184-.082.3a.788.788,0,0,1-.118.343c-.156.221-.429.313-.552.569a.027.027,0,0,1-.027.014c-.148.009-.2.126-.288.206-.036.033-.057.086-.114.092-.275.03-.4.228-.464.486-.015.055-.043.1-.1.109-.3.053-.454.285-.75.346-.041.008-.054.056-.062.1a.321.321,0,0,1-.3.318.229.229,0,0,0-.182.147c-.1.191-.173.417-.355.525a.232.232,0,0,0-.1.2c-.008.125-.09.161-.2.169-.073,0-.146.009-.224.007a.182.182,0,0,0-.206.16c-.025.114-.065.225-.171.245a1.137,1.137,0,0,1-.6.053c-.126-.031-.218-.021-.263.05-.061.1-.192.106-.394.022-.162-.067-.3-.1-.358-.026-.077.1-.273.086-.235.3s-.061.272-.218.271a.233.233,0,0,0-.125.034c-.167.107-.328.221-.5.326a.49.49,0,0,1-.2.078.456.456,0,0,0-.4.293.217.217,0,0,1-.212.156.172.172,0,0,0-.189.139c-.026.119-.118.16-.254.152a.5.5,0,0,0-.449.242c-.062.076-.086.192-.28.113-.042-.018-.057.026-.054.067.008.114-.06.129-.193.076-.387-.155-.574-.053-.643.178-.036.122-.073.232-.229.218-.085-.008-.105.059-.085.163.04.2.084.405-.006.489-.027.025,0,.114,0,.17s.026.142-.008.159c-.191.092-.221.368-.485.38-.059,0-.091.048-.095.111,0,.112-.071.152-.167.16s-.148.066-.15.18a.244.244,0,0,1-.065.145c-.123.172-.084.5-.168.715.051.33-.047.508-.229.6-.044.023-.054.084-.078.131s-.017.1-.052.115c-.124.066-.207.179-.4.169-.131-.007-.261-.006-.3.1a.267.267,0,0,1-.243.21c-.034,0-.05.033-.063.061-.064.146-.125.3-.188.445a.17.17,0,0,1-.074,0c-.323-.11-.562-.113-.68.044-.059.08-.153.122-.217.2a.285.285,0,0,1-.275.128c-.129-.014-.182.053-.182.186,0,.109-.015.216-.093.24-.145.043-.236.148-.391.176a.465.465,0,0,0-.355.305.254.254,0,0,1-.122.126.771.771,0,0,0-.413.374c-.027.069-.132.057-.174.111a1.767,1.767,0,0,0-.1.238c-.013.027-.054.026-.09.03-.142.013-.289.019-.268.22.006.056-.051.058-.076.089a.516.516,0,0,1-.491.145c-.2-.023-.353,0-.31.254a.112.112,0,0,1-.022.1c-.093.092-.1.258-.043.5a.194.194,0,0,1-.022.185c-.139.136-.177.388-.465.355-.013,0-.016.011-.021.02-.041.078-.149.063-.294.006-.233-.092-.382-.075-.439.06-.017.039-.054.057-.075.092-.067.108-.194.141-.426.028-.192-.094-.261-.052-.274.068-.008.076-.011.157-.025.227-.009.05-.062.048-.14.009a1.69,1.69,0,0,1-.182-.108c-.183-.123-.289-.137-.356-.087a.488.488,0,0,1-.222.1c-.1.015-.135.084-.1.23s-.006.216-.112.215-.123.1-.079.249a.815.815,0,0,1,.012.468.6.6,0,0,0-.043.21c.01.183-.042.293-.218.274-.07-.008-.108.027-.087.117.046.2-.036.272-.037.421,0,.213-.117.284-.385.159-.3-.139-.428-.072-.5.066-.025.045-.044.1-.067.143a1.075,1.075,0,0,1-.414.547.177.177,0,0,0-.076.048c-.022.032-.058.057-.045.121.068.325-.067.433-.279.462-.118.016-.177.1-.17.244.006.122-.027.2-.134.195s-.159.052-.138.189-.024.23-.138.235c-.176.008-.246.134-.316.261-.045.081-.118.135-.137.241-.054.28-.329.306-.544.4-.122.052-.306.03-.382.14a.072.072,0,0,1-.1.015c-.267-.139-.3,0-.316.147,0,.024-.028.028-.05.032-.084.014-.095.1-.026.257.092.21.045.285-.067.3-.19.018-.247.193-.458.188-.049,0-.06.05-.08.086-.111.2-.218.4-.333.593a.5.5,0,0,1-.158.176,6,6,0,0,1-.582.314.519.519,0,0,1-.523,0,.143.143,0,0,0-.111,0c-.093.016-.022.224.157.421.395.434.743.9,1.137,1.33a.261.261,0,0,0-.089.16c-.019.11-.094.157-.237.125-.109-.026-.19-.011-.2.077-.023.165-.149.214-.261.279-.138.081-.271.168-.415.242-.169.088-.213.317-.439.342-.055.006-.02.129-.08.126-.15-.007-.189.108-.26.189a.306.306,0,0,1-.312.131c-.132-.022-.143.071-.068.25s.041.253-.019.308a.533.533,0,0,1-.455.049.672.672,0,0,0-.624.17.173.173,0,0,0-.078.131c-.006.161.006.339-.171.323.008.2-.195.166-.232.308s-.241.109-.35.176c-.229.141-.471.267-.7.406a.3.3,0,0,0-.113.137c-.1.223-.174.473-.38.583-.06.033-.074.122-.1.192a.468.468,0,0,1-.449.286c-.29.017-.606,0-.91,0-.079,0-.114.048-.066.177.162.442.1.672-.112.75a.423.423,0,0,0-.132.073c-.037.032-.082.058-.088.12-.016.172-.148.215-.247.3s-.233.116-.5-.025c-.162-.084-.21-.015-.2.119.011.092.044.21.012.257-.078.115-.1.3-.307.268a.188.188,0,0,0-.237.171c-.013.095-.12.06-.226.039a2.648,2.648,0,0,0-.748-.088.589.589,0,0,0-.388.183c-.137-.205-.453-.252-.454-.577,0-.024-.026-.028-.048-.035-.218-.064-.27-.284-.5-.337-.078-.018-.087-.107-.12-.169-.023-.044-.012-.121-.057-.144-.115-.058-.127-.2-.132-.349,0-.1-.057-.155-.18-.149-.18.01-.24-.091-.268-.225-.044-.207-.135-.382-.367-.417a.39.39,0,0,1-.34-.32.305.305,0,0,0-.274-.262.207.207,0,0,1-.205-.281c.032-.167-.032-.254-.161-.283a.547.547,0,0,1-.366-.26.977.977,0,0,0-.49-.466c-.091-.033-.159-.094-.083-.271a.084.084,0,0,0-.018-.1c-.083-.109-.083-.288-.3-.279a.189.189,0,0,1-.178-.115.439.439,0,0,0-.246-.212.109.109,0,0,1-.064-.06,3.573,3.573,0,0,1-.158-.368c-.028-.08-.058-.157-.15-.181a.256.256,0,0,1-.2-.326c.009-.067-.043-.091-.08-.123-.1-.084-.2-.162-.3-.243s-.21-.129-.268-.234a.574.574,0,0,0-.3-.317c-.05-.018-.048-.087-.058-.143a.722.722,0,0,0-.361-.577.36.36,0,0,1-.247-.366.1.1,0,0,0-.081-.122c-.237-.046-.338-.219-.492-.342-.109-.085-.24-.158-.266-.312-.03-.175-.185-.227-.3-.317-.016-.012-.02-.035-.031-.051a2.155,2.155,0,0,1-.258-.4c-.064-.164-.108-.345-.305-.391-.022-.006-.023-.033-.024-.058,0-.127-.12-.153-.206-.207-.1-.064-.247-.093-.263-.236-.012-.108-.1-.147-.186-.186-.137-.06-.272-.122-.256-.318.007-.1-.038-.148-.146-.142a.113.113,0,0,1-.137-.11.4.4,0,0,0-.4-.386.263.263,0,0,1-.21-.164,1.422,1.422,0,0,0-.265-.431.435.435,0,0,1-.2-.294.1.1,0,0,0-.112-.093c-.146,0-.167-.111-.169-.237s-.022-.236-.175-.231c-.055,0-.091-.025-.093-.072-.009-.173-.147-.236-.185-.384-.022-.087-.058-.16-.167-.163-.255-.008-.3-.2-.334-.4-.013-.066-.011-.142-.059-.18a1.677,1.677,0,0,1-.569-.594c-.032-.075-.154-.075-.171-.161-.067-.345-.445-.418-.521-.753,0-.021-.03-.026-.05-.034a.575.575,0,0,1-.373-.49.094.094,0,0,0-.073-.091c-.174-.028-.172-.213-.291-.289a1.539,1.539,0,0,1-.311-.273c-.02-.022-.055-.033-.051-.073.024-.217-.138-.266-.284-.331a1.256,1.256,0,0,1-.246-.133c-.079-.06-.187-.1-.2-.216-.013-.161-.119-.233-.207-.324a.669.669,0,0,1-.109-.139,1.463,1.463,0,0,0-.2-.37c-.09-.088-.091-.259-.3-.238-.057.006-.075-.037-.093-.072-.067-.123-.125-.254-.191-.378a1.8,1.8,0,0,0-.179-.311.821.821,0,0,0-.319-.305.629.629,0,0,1-.3-.32c-.01-.018-.039-.018-.055-.031a1.1,1.1,0,0,1-.149-.141,6.24,6.24,0,0,1-.476-.714.381.381,0,0,0-.11-.1c-.137-.1-.277-.2-.41-.3a.142.142,0,0,1-.053-.11.261.261,0,0,0-.2-.25c-.05-.019-.07-.069-.1-.108a1.911,1.911,0,0,0-.133-.195,1.048,1.048,0,0,1-.189-.264.937.937,0,0,0-.346-.437,1.763,1.763,0,0,1-.348-.318.311.311,0,0,0-.2-.13.1.1,0,0,1-.094-.109.6.6,0,0,0-.182-.387,2.64,2.64,0,0,0-.7-.674.252.252,0,0,1-.169-.241c0-.122-.081-.16-.22-.15-.185.013-.267-.071-.24-.25a.549.549,0,0,0-.253-.628c-.071-.041-.128-.095-.2-.135a.655.655,0,0,1-.291-.291.921.921,0,0,0-.224-.311,2.477,2.477,0,0,1-.553-.726,1.658,1.658,0,0,0-.274-.306c-.052-.059-.1-.124-.144-.187a1.142,1.142,0,0,0-.14-.189,3.744,3.744,0,0,1-.8-.938.677.677,0,0,1-.086-.235.341.341,0,0,0-.115-.21c-.125-.111-.278-.2-.332-.372s-.221-.132-.588.116l-.176.122c-.368.375-.693.715-1.033,1.049-.432.424-.883.846-1.353,1.228-.449.364-.876.756-1.318,1.124-.4.332-.753.7-1.136,1.039a4.614,4.614,0,0,0-.528.528,3.3,3.3,0,0,1-.468.461c-.295.244-.589.514-.883.736-.355.267-.58.58-.9.85-.1.082-.189.171-.275.249-.158.095-.3.188-.443.267a2.793,2.793,0,0,0-.631.518c-.3.313-.642.618-.93.94a.791.791,0,0,1-.206.144,1.079,1.079,0,0,0-.336.194c-.12.1-.246.182-.369.272-.093.069-.187.144-.277.222l-.017,0a.328.328,0,0,0-.2.032,4.473,4.473,0,0,0-.4.395.322.322,0,0,1-.265.142c-.079,0-.128.033-.122.124.009.141-.081.169-.195.172a.737.737,0,0,1-.42-.057c-.052-.023-.1-.032-.121-.01-.1.13-.337.085-.536.091-.088,0-.154.03-.157.129a.3.3,0,0,1-.255.324.115.115,0,0,0-.095.069c-.08.231-.3.315-.339.585-.016.1-.1.124-.252.06a.392.392,0,0,0-.338,0,.266.266,0,0,0-.194.26c-.013.11-.066.184-.082.3a.776.776,0,0,1-.119.343c-.156.221-.428.313-.552.569a.025.025,0,0,1-.026.014c-.149.009-.2.126-.288.206-.036.033-.057.086-.114.092-.276.031-.4.228-.465.486a.129.129,0,0,1-.1.109c-.3.053-.453.285-.749.346-.042.008-.055.056-.062.1a.322.322,0,0,1-.3.318.228.228,0,0,0-.182.147c-.1.191-.173.417-.355.525a.233.233,0,0,0-.1.2c-.008.125-.09.161-.2.169-.072,0-.146.009-.224.007a.181.181,0,0,0-.2.16c-.025.114-.065.225-.172.245a1.133,1.133,0,0,1-.6.053c-.127-.031-.218-.021-.263.05-.062.1-.192.106-.4.022-.161-.067-.3-.1-.358-.026-.077.1-.272.086-.235.3s-.06.272-.217.271a.228.228,0,0,0-.125.034c-.168.107-.328.221-.5.326a.5.5,0,0,1-.2.078.457.457,0,0,0-.4.292.215.215,0,0,1-.212.157.171.171,0,0,0-.188.139c-.026.119-.119.16-.254.152a.5.5,0,0,0-.449.242c-.063.076-.087.192-.281.113-.042-.017-.056.026-.053.067.007.114-.06.129-.194.076-.387-.155-.573-.053-.642.178-.037.122-.073.232-.23.218-.085-.008-.1.059-.084.163.039.2.084.405-.007.489-.026.025,0,.114,0,.17s.026.142-.007.159c-.192.092-.222.368-.486.38a.1.1,0,0,0-.094.111c-.006.112-.071.152-.168.16s-.148.066-.15.18a.239.239,0,0,1-.065.145c-.123.172-.083.5-.168.715.052.33-.046.508-.229.6-.044.023-.054.084-.077.131s-.017.1-.052.115c-.124.066-.208.179-.4.169-.131-.007-.26-.006-.3.1a.265.265,0,0,1-.242.21c-.035,0-.05.033-.063.061-.065.146-.126.3-.188.445a.173.173,0,0,1-.075,0c-.322-.111-.562-.114-.679.043-.06.08-.154.122-.218.2a.284.284,0,0,1-.275.128c-.129-.014-.181.053-.181.186,0,.109-.015.216-.093.24-.145.043-.237.148-.391.176a.463.463,0,0,0-.355.305.256.256,0,0,1-.123.126.771.771,0,0,0-.413.374c-.026.069-.131.057-.173.111a1.646,1.646,0,0,0-.1.238c-.014.027-.055.026-.09.03-.143.013-.29.019-.268.22.006.056-.051.058-.076.089a.517.517,0,0,1-.491.145c-.2-.023-.354,0-.31.254a.112.112,0,0,1-.023.1c-.092.092-.1.258-.042.5a.2.2,0,0,1-.022.185c-.14.136-.177.388-.465.355-.013,0-.017.011-.022.02-.04.078-.148.063-.293.006-.233-.092-.383-.075-.44.06-.016.039-.053.057-.075.092-.066.108-.193.141-.426.028-.192-.094-.261-.052-.274.068-.008.076-.01.157-.024.227-.01.05-.063.048-.141.009a1.591,1.591,0,0,1-.181-.108c-.184-.123-.289-.137-.356-.087a.492.492,0,0,1-.223.1c-.1.015-.135.084-.1.23s-.006.216-.113.215-.122.1-.078.249a.822.822,0,0,1,.011.468.609.609,0,0,0-.042.211c.009.182-.043.292-.218.273-.07-.008-.109.028-.088.117.047.2-.035.272-.036.421,0,.213-.117.284-.386.159-.3-.139-.428-.072-.5.066-.026.045-.045.1-.068.143a1.07,1.07,0,0,1-.414.547.173.173,0,0,0-.075.048c-.023.032-.059.057-.046.121.068.325-.067.433-.278.462-.118.016-.177.1-.17.244.006.122-.027.2-.134.2s-.16.052-.139.189-.024.23-.138.235c-.176.008-.246.134-.316.261-.045.081-.117.135-.137.241-.053.28-.328.306-.543.4-.122.053-.307.03-.382.14a.072.072,0,0,1-.1.015c-.267-.139-.3,0-.317.147,0,.024-.027.028-.049.032-.085.014-.095.1-.026.257.091.21.045.285-.067.3-.19.018-.248.194-.459.188-.049,0-.059.05-.079.086-.112.2-.218.4-.333.593a.507.507,0,0,1-.158.176,6.36,6.36,0,0,1-.582.315.522.522,0,0,1-.524,0c-.051-.023-.077,0-.111,0-.093.016-.021.224.158.421.394.434.742.9,1.137,1.33a.257.257,0,0,0-.09.16c-.019.11-.094.157-.236.125-.11-.026-.19-.011-.2.077-.023.165-.149.214-.261.279-.138.081-.27.168-.414.242-.17.088-.214.317-.439.342-.055.006-.02.129-.08.126-.151-.007-.189.108-.26.189a.309.309,0,0,1-.313.131c-.132-.022-.143.071-.068.25s.041.253-.018.308a.533.533,0,0,1-.455.049.671.671,0,0,0-.624.17.173.173,0,0,0-.078.131c-.007.162,0,.339-.171.323.008.2-.195.166-.233.308s-.24.109-.349.176c-.229.141-.471.267-.7.406a.291.291,0,0,0-.112.138c-.1.222-.174.472-.38.582-.061.033-.075.122-.1.192a.468.468,0,0,1-.449.286c-.291.017-.607,0-.91,0-.079,0-.115.048-.067.177.163.442.106.672-.112.75a.418.418,0,0,0-.131.073c-.037.032-.082.058-.088.12-.017.172-.148.215-.248.295s-.233.116-.5-.025c-.163-.084-.211-.015-.195.119.011.092.043.21.011.257-.078.115-.095.3-.306.268a.189.189,0,0,0-.238.171c-.013.095-.119.06-.226.039a2.641,2.641,0,0,0-.747-.088.52.52,0,0,0-.481.341.314.314,0,0,1-.139.2c-.132.072-.246.166-.382.234-.184.093-.253.3-.25.586a1.348,1.348,0,0,1-.1.445c-.032.11-.134.144-.337.044-.034-.017-.051,0-.076,0,0,.083.009.174,0,.251a.446.446,0,0,1-.011.067c-.066-.057-.132-.114-.2-.175a.85.85,0,0,0-.466-.285.323.323,0,0,0-.2.032,4.761,4.761,0,0,0-.4.394.32.32,0,0,1-.264.142c-.079,0-.128.033-.122.125.009.141-.081.168-.195.172a.759.759,0,0,1-.421-.057c-.052-.024-.1-.033-.12-.011-.1.13-.338.086-.536.091-.088,0-.154.03-.157.129a.3.3,0,0,1-.255.325.115.115,0,0,0-.1.069c-.079.23-.3.314-.338.584-.016.1-.105.124-.251.061a.391.391,0,0,0-.339,0,.266.266,0,0,0-.194.26c-.013.111-.067.184-.082.295a.775.775,0,0,1-.119.344c-.156.22-.428.312-.552.569a.03.03,0,0,1-.027.014c-.148.008-.2.125-.288.205-.035.034-.056.086-.114.093-.275.03-.4.228-.464.486a.131.131,0,0,1-.1.109c-.3.052-.454.285-.749.345-.042.009-.055.057-.062.105a.322.322,0,0,1-.3.317.227.227,0,0,0-.181.148c-.1.19-.174.416-.355.524a.234.234,0,0,0-.1.195c-.008.126-.09.161-.2.169-.073.005-.146.009-.224.007a.183.183,0,0,0-.206.161c-.024.113-.064.224-.171.244a1.135,1.135,0,0,1-.6.054c-.126-.032-.217-.021-.262.049-.062.1-.192.106-.395.022-.161-.066-.3-.1-.358-.026-.077.1-.272.086-.235.3s-.061.272-.218.272a.218.218,0,0,0-.124.034c-.168.106-.329.22-.5.325a.5.5,0,0,1-.2.078.456.456,0,0,0-.4.293.216.216,0,0,1-.212.156.173.173,0,0,0-.189.14c-.025.119-.118.159-.253.151a.5.5,0,0,0-.449.242c-.063.076-.087.193-.281.113-.042-.017-.056.026-.053.067.007.115-.06.129-.194.076-.387-.154-.573-.053-.642.178-.037.123-.074.233-.23.219-.085-.008-.105.058-.084.162.039.2.083.406-.007.49-.026.025,0,.113.005.17s.026.142-.007.158c-.192.093-.222.368-.486.38-.058,0-.091.048-.094.112-.006.112-.072.151-.168.16s-.148.065-.15.18a.236.236,0,0,1-.065.144c-.123.173-.083.5-.168.715.052.33-.046.508-.229.6-.044.022-.054.083-.077.13s-.018.1-.052.115c-.124.066-.208.179-.4.169-.132-.006-.261-.006-.3.1a.268.268,0,0,1-.242.211c-.035,0-.051.032-.063.061-.065.145-.126.295-.188.444a.159.159,0,0,1-.075,0c-.323-.11-.562-.114-.679.043-.06.08-.154.123-.218.2a.287.287,0,0,1-.275.129c-.129-.015-.181.052-.181.185,0,.11-.015.217-.094.24-.144.043-.236.148-.39.177a.46.46,0,0,0-.355.305.267.267,0,0,1-.122.126.772.772,0,0,0-.414.373c-.026.069-.132.057-.173.112a1.68,1.68,0,0,0-.1.237c-.014.027-.055.027-.09.03-.143.013-.29.019-.269.22.007.057-.05.059-.076.089a.512.512,0,0,1-.49.145c-.2-.023-.354,0-.31.254a.112.112,0,0,1-.023.1c-.093.092-.1.259-.043.5a.194.194,0,0,1-.022.185c-.139.136-.176.388-.464.356-.013,0-.017.01-.022.019-.041.078-.148.064-.294.006-.233-.092-.382-.074-.439.06-.016.039-.053.057-.075.092-.066.108-.194.142-.426.028-.192-.094-.261-.051-.274.068-.008.076-.011.157-.024.228-.01.049-.063.047-.141.008a1.734,1.734,0,0,1-.181-.107c-.184-.124-.289-.137-.357-.088a.474.474,0,0,1-.222.1c-.1.015-.135.084-.1.23s-.005.216-.112.215-.122.1-.078.25a.823.823,0,0,1,.011.468.626.626,0,0,0-.043.21c.01.182-.042.292-.217.273-.071-.008-.109.028-.088.117.047.2-.035.272-.037.422,0,.213-.116.283-.385.158-.3-.139-.428-.072-.5.066-.025.045-.044.1-.067.144a1.071,1.071,0,0,1-.414.546.187.187,0,0,0-.075.048c-.023.033-.059.057-.046.121.068.325-.067.433-.278.462-.118.016-.177.1-.17.245.006.121-.027.2-.134.195s-.16.051-.139.188-.024.23-.138.235c-.176.008-.246.134-.316.261-.045.081-.117.135-.137.241-.053.281-.328.307-.543.4-.122.053-.307.031-.382.141a.074.074,0,0,1-.1.014c-.266-.139-.3,0-.316.148,0,.023-.027.027-.05.031-.084.015-.094.1-.025.257.091.211.045.286-.068.3-.189.019-.247.194-.458.188-.049,0-.059.051-.08.086-.111.2-.217.4-.332.593a.483.483,0,0,1-.159.176,6.231,6.231,0,0,1-.582.315.52.52,0,0,1-.523,0c-.051-.023-.077,0-.111,0-.093.016-.021.224.158.421.394.434.742.9,1.137,1.331a.259.259,0,0,0-.09.159c-.019.111-.094.158-.237.125-.109-.025-.189-.011-.2.077-.023.165-.149.214-.261.28-.138.08-.271.167-.414.242-.17.087-.214.316-.439.341-.055.006-.02.129-.08.126-.151-.006-.189.108-.26.189a.309.309,0,0,1-.313.131c-.132-.021-.143.071-.068.25s.041.253-.018.309a.537.537,0,0,1-.455.049.674.674,0,0,0-.624.169.172.172,0,0,0-.078.131c-.007.162.005.34-.172.323.009.2-.194.166-.232.309s-.24.109-.349.176c-.23.14-.471.266-.7.405a.3.3,0,0,0-.112.138c-.1.222-.174.472-.38.583-.061.033-.075.121-.1.191a.465.465,0,0,1-.448.286c-.291.018-.607,0-.91,0-.08,0-.115.047-.067.177.163.441.106.672-.112.749a.439.439,0,0,0-.131.073c-.037.032-.082.059-.088.121-.017.171-.148.214-.248.294s-.233.116-.5-.025c-.163-.084-.211-.015-.195.119.01.093.043.21.011.258-.078.114-.095.294-.306.267a.189.189,0,0,0-.238.171c-.013.095-.119.06-.226.039a2.678,2.678,0,0,0-.747-.088.521.521,0,0,0-.481.341.319.319,0,0,1-.138.2c-.133.071-.247.165-.383.233-.184.093-.253.3-.25.586a1.342,1.342,0,0,1-.1.445c-.032.111-.134.144-.337.044-.034-.017-.051,0-.077,0a2.354,2.354,0,0,1,0,.251c-.01.117-.049.2-.187.18a.5.5,0,0,0-.39.131c-.09.061-.2.1-.257.2a2.977,2.977,0,0,0-.243.6.8.8,0,0,1-.049.13.348.348,0,0,1-.058-.005.818.818,0,0,1-.471-.366.6.6,0,0,0-.294-.287c-.058-.026-.131-.041-.152-.1-.1-.277-.494-.291-.5-.654,0-.024-.027-.029-.048-.035-.218-.065-.27-.284-.5-.338-.077-.018-.086-.106-.119-.168-.023-.044-.012-.121-.057-.144-.115-.058-.127-.2-.133-.349,0-.1-.056-.155-.179-.149-.18.009-.24-.091-.268-.226-.044-.207-.135-.382-.367-.416a.393.393,0,0,1-.341-.32.3.3,0,0,0-.273-.262c-.155-.018-.24-.1-.205-.282.032-.167-.032-.253-.162-.282a.55.55,0,0,1-.365-.26.983.983,0,0,0-.49-.467c-.091-.033-.159-.094-.083-.27a.082.082,0,0,0-.019-.1c-.082-.109-.083-.289-.3-.279a.189.189,0,0,1-.178-.116.446.446,0,0,0-.246-.212.107.107,0,0,1-.065-.06,3.788,3.788,0,0,1-.158-.367c-.027-.08-.058-.158-.149-.181a.256.256,0,0,1-.2-.327c.009-.066-.043-.09-.08-.123-.1-.084-.2-.161-.3-.243s-.21-.128-.268-.233a.576.576,0,0,0-.3-.318c-.05-.017-.048-.087-.058-.143a.72.72,0,0,0-.361-.576.361.361,0,0,1-.247-.367.1.1,0,0,0-.081-.121c-.237-.047-.338-.22-.493-.342-.109-.086-.239-.159-.265-.312-.03-.175-.185-.228-.3-.317-.016-.012-.021-.035-.031-.051a2.188,2.188,0,0,1-.258-.4c-.064-.164-.108-.345-.3-.392-.022,0-.023-.032-.024-.057,0-.127-.12-.153-.206-.207-.1-.064-.247-.094-.263-.236-.012-.109-.1-.147-.186-.186-.137-.06-.272-.122-.257-.318.008-.1-.037-.148-.145-.142a.113.113,0,0,1-.137-.111.4.4,0,0,0-.4-.386.263.263,0,0,1-.21-.163,1.43,1.43,0,0,0-.265-.431.437.437,0,0,1-.2-.294.1.1,0,0,0-.113-.093c-.145,0-.166-.111-.168-.238s-.022-.235-.175-.23c-.055,0-.091-.026-.094-.072-.008-.174-.146-.237-.184-.384-.022-.087-.059-.16-.167-.163-.255-.008-.3-.205-.334-.4-.013-.067-.011-.142-.059-.18a1.685,1.685,0,0,1-.569-.594c-.032-.075-.155-.076-.171-.162-.068-.345-.445-.417-.522-.753,0-.021-.029-.026-.049-.034a.571.571,0,0,1-.373-.489.1.1,0,0,0-.073-.091c-.174-.028-.173-.214-.291-.289a1.543,1.543,0,0,1-.311-.274c-.02-.021-.055-.032-.051-.072.024-.217-.138-.267-.284-.332a1.226,1.226,0,0,1-.246-.132c-.079-.061-.187-.1-.2-.217-.013-.16-.119-.232-.207-.323a.65.65,0,0,1-.109-.14,1.48,1.48,0,0,0-.2-.37c-.09-.087-.092-.259-.3-.237-.057.006-.075-.037-.094-.072-.066-.123-.124-.254-.19-.379a1.8,1.8,0,0,0-.179-.311.826.826,0,0,0-.319-.3.627.627,0,0,1-.3-.321c-.01-.017-.04-.017-.055-.03a1.247,1.247,0,0,1-.149-.141,6.329,6.329,0,0,1-.476-.714.4.4,0,0,0-.111-.1c-.136-.1-.277-.2-.409-.3a.139.139,0,0,1-.053-.109.263.263,0,0,0-.2-.251c-.05-.019-.07-.068-.1-.108a2.161,2.161,0,0,0-.133-.195,1.043,1.043,0,0,1-.189-.263.946.946,0,0,0-.346-.438,1.737,1.737,0,0,1-.349-.318.305.305,0,0,0-.2-.129.1.1,0,0,1-.094-.109.6.6,0,0,0-.182-.387,2.625,2.625,0,0,0-.7-.674.253.253,0,0,1-.169-.241c0-.122-.081-.161-.22-.15-.185.013-.267-.071-.24-.25a.549.549,0,0,0-.253-.628c-.071-.041-.129-.095-.2-.136a.643.643,0,0,1-.291-.29.939.939,0,0,0-.224-.312,2.434,2.434,0,0,1-.553-.726,1.729,1.729,0,0,0-.274-.306c-.052-.059-.1-.123-.144-.186a1.194,1.194,0,0,0-.14-.19,3.722,3.722,0,0,1-.8-.937.685.685,0,0,1-.086-.235.335.335,0,0,0-.116-.21c-.125-.111-.277-.2-.331-.373s-.221-.131-.588.117c-.072.048-.145.1-.176.122-.208.211-.4.41-.592.6a.823.823,0,0,0-.455-.276.323.323,0,0,0-.2.032,4.6,4.6,0,0,0-.4.394.32.32,0,0,1-.265.142c-.079,0-.128.033-.122.125.009.141-.081.168-.194.172a.757.757,0,0,1-.421-.057c-.052-.024-.1-.033-.121-.011-.1.13-.337.086-.536.091-.088,0-.154.03-.157.129a.3.3,0,0,1-.255.325.112.112,0,0,0-.095.069c-.08.23-.3.314-.339.584-.016.1-.1.124-.251.061a.391.391,0,0,0-.339,0,.266.266,0,0,0-.194.26c-.013.111-.066.185-.082.3a.775.775,0,0,1-.119.344c-.156.22-.428.312-.551.569a.032.032,0,0,1-.027.014c-.149.008-.2.125-.288.205-.036.034-.057.086-.114.093-.275.03-.4.228-.465.486a.128.128,0,0,1-.1.109c-.3.052-.453.285-.749.345-.042.009-.055.057-.062.1a.321.321,0,0,1-.3.317.227.227,0,0,0-.182.148c-.1.19-.173.417-.355.524a.234.234,0,0,0-.1.2c-.008.126-.089.162-.2.169-.072,0-.145.009-.224.007a.182.182,0,0,0-.2.161c-.025.113-.065.224-.172.244a1.132,1.132,0,0,1-.6.054c-.126-.032-.218-.021-.263.049-.062.1-.192.106-.4.022-.161-.066-.3-.1-.357-.025-.078.1-.273.085-.236.3s-.06.272-.217.272a.219.219,0,0,0-.125.034c-.167.106-.328.22-.5.325a.5.5,0,0,1-.2.078.455.455,0,0,0-.4.293.219.219,0,0,1-.213.157.17.17,0,0,0-.188.139c-.026.119-.119.159-.254.151a.5.5,0,0,0-.449.242c-.063.076-.087.193-.281.113-.042-.017-.056.026-.053.067.007.115-.06.13-.194.076-.387-.154-.573-.053-.642.178-.037.123-.073.233-.23.219-.085-.008-.105.058-.084.162.039.2.084.406-.007.49-.026.025,0,.113,0,.17s.026.142-.007.158c-.192.093-.221.368-.486.38-.058,0-.091.048-.094.112,0,.112-.071.151-.168.16s-.148.065-.15.18a.236.236,0,0,1-.065.144c-.123.173-.083.5-.168.715.052.33-.046.508-.229.6-.043.022-.054.084-.077.13s-.017.1-.052.115c-.124.066-.208.179-.4.17-.132-.007-.261-.007-.3.1a.267.267,0,0,1-.242.211c-.035,0-.05.032-.063.061-.065.146-.126.295-.188.444a.155.155,0,0,1-.074,0c-.323-.11-.562-.114-.68.043-.06.08-.154.123-.218.2a.286.286,0,0,1-.275.129c-.129-.015-.181.052-.181.185,0,.11-.015.217-.093.24-.145.043-.237.148-.391.177a.463.463,0,0,0-.355.305.267.267,0,0,1-.122.126.772.772,0,0,0-.414.373c-.026.069-.131.057-.173.112a1.68,1.68,0,0,0-.1.237c-.014.027-.055.027-.09.03-.143.013-.289.019-.268.22.006.057-.051.059-.076.089a.515.515,0,0,1-.491.145c-.2-.023-.354,0-.31.254a.115.115,0,0,1-.023.1c-.092.091-.1.258-.042.5a.2.2,0,0,1-.022.184c-.139.137-.177.388-.465.356-.013,0-.017.01-.022.019-.04.078-.148.064-.293.006-.233-.092-.383-.074-.439.06-.017.039-.054.058-.076.092-.066.108-.193.142-.426.028-.192-.094-.261-.051-.273.068-.009.076-.011.157-.025.228-.009.049-.063.047-.141.008a1.574,1.574,0,0,1-.181-.107c-.183-.124-.289-.137-.356-.088a.493.493,0,0,1-.223.1c-.1.014-.135.083-.1.229s-.006.216-.113.215-.122.1-.078.25a.833.833,0,0,1,.012.468.58.58,0,0,0-.043.21c.009.182-.042.292-.218.273-.07-.007-.109.028-.088.117.047.2-.035.273-.036.422,0,.213-.117.283-.385.158-.3-.139-.429-.072-.5.066-.026.045-.045.1-.068.144a1.071,1.071,0,0,1-.414.546.194.194,0,0,0-.075.048c-.023.033-.059.057-.046.121.068.325-.067.433-.278.462-.118.016-.177.1-.17.245.006.121-.027.2-.134.2s-.16.051-.139.188-.024.23-.138.235c-.176.008-.246.134-.316.261-.044.081-.117.136-.137.241-.053.281-.328.307-.543.4-.122.053-.306.031-.382.141-.016.024-.05.04-.1.014-.267-.139-.3,0-.316.148,0,.023-.028.027-.05.031-.085.015-.1.1-.026.257.091.211.045.286-.067.3-.19.019-.248.194-.458.188-.05,0-.06.051-.08.086-.112.2-.218.4-.333.593a.49.49,0,0,1-.158.176,6.36,6.36,0,0,1-.582.315.522.522,0,0,1-.524,0c-.05-.023-.077,0-.11,0-.094.016-.022.224.157.421.394.434.743.9,1.137,1.331a.259.259,0,0,0-.09.159c-.018.111-.093.158-.236.125-.109-.025-.19-.011-.2.077-.023.165-.148.214-.261.28-.138.08-.27.168-.414.242-.17.087-.214.316-.439.341-.055.006-.02.129-.08.126-.151-.006-.189.108-.26.189a.308.308,0,0,1-.312.131c-.133-.021-.143.071-.069.25s.041.253-.018.309a.537.537,0,0,1-.455.049.674.674,0,0,0-.624.169.174.174,0,0,0-.078.131c-.006.162.005.34-.171.323.008.2-.2.166-.232.309s-.241.109-.35.176c-.229.14-.471.266-.7.405a.3.3,0,0,0-.112.138c-.1.222-.174.472-.38.583-.061.033-.074.121-.1.191a.468.468,0,0,1-.449.286c-.291.018-.607,0-.91,0-.079,0-.114.047-.067.177.163.441.106.672-.111.749a.432.432,0,0,0-.132.073c-.037.032-.082.059-.088.121-.017.171-.148.214-.248.294s-.233.116-.5-.025c-.162-.084-.21-.015-.2.119.011.093.043.21.011.258-.077.114-.1.294-.306.268a.188.188,0,0,0-.238.17c-.013.1-.119.06-.225.039a2.647,2.647,0,0,0-.748-.087.517.517,0,0,0-.48.34.324.324,0,0,1-.139.2c-.133.072-.247.165-.382.233-.185.093-.254.3-.251.586a1.342,1.342,0,0,1-.1.445c-.032.111-.134.145-.337.044-.034-.017-.051,0-.076,0,0,.084.009.175,0,.251-.01.117-.048.2-.186.18a.5.5,0,0,0-.391.131c-.089.061-.2.1-.257.2a3.037,3.037,0,0,0-.243.6c-.029.1-.06.195-.147.23-.143.058-.123.3-.333.283-.019.054-.036.108-.055.161a98.468,98.468,0,0,1,11.766,15.234.218.218,0,0,0,.253-.167c.008-.034.012-.074.034-.092.09-.076.2-.134.278-.218s.139-.226.24-.3.2-.193.4-.164a.543.543,0,0,1,.312-.311c.285-.08.373-.374.515-.61a.529.529,0,0,1,.165-.209c.233-.136.469-.269.7-.41.076-.048.169-.08.191-.182.035-.168.16-.231.274-.31.155-.106.325-.194.493-.286a.461.461,0,0,0,.244-.3.789.789,0,0,1,.262-.451c.087-.063.106-.2.182-.28a2.272,2.272,0,0,1,.3-.2.182.182,0,0,0,.062-.106c.017-.07.079-.085.155-.087.15,0,.293-.02.3-.184s.12-.216.223-.276c.138-.08.3-.134.322-.342.009-.085.1-.095.15-.14.22-.194.569-.243.66-.582.015-.054.072-.066.113-.094.067-.043.142-.077.2-.124.25-.189.6-.27.71-.615.013-.041.058-.052.092-.073.1-.064.206-.122.3-.19a.655.655,0,0,0,.222-.193.2.2,0,0,1,.209-.113.219.219,0,0,0,.15-.05q.356-.22.7-.447c.058-.038.129-.065.147-.144a.531.531,0,0,1,.221-.28.371.371,0,0,0,.129-.164.362.362,0,0,1,.4-.249c.081,0,.107-.052.14-.105a1.96,1.96,0,0,0,.2-.475c.05-.163.141-.28.432-.157.044.018.077-.006.067-.048a.228.228,0,0,1,.1-.273c.083-.069.19-.11.206-.254.011-.108.116-.1.295.006.106.064.151.039.168-.017a2.255,2.255,0,0,1,.105-.276c.022-.047.041-.1.1-.109.347-.031.525-.261.791-.39.064-.032.1-.1.084-.207-.008-.078,0-.141.065-.143.187,0,.252-.161.485-.109.081.018.077-.058.092-.113.079-.292.137-.607.369-.739l.046.045c.073.072.18.11.189.069a.367.367,0,0,0,.013-.194.573.573,0,0,1-.02-.308.82.82,0,0,1,.365-.471.587.587,0,0,0,.287-.294c.026-.058.041-.131.1-.152.278-.1.292-.494.655-.5.024,0,.028-.026.035-.048.064-.218.284-.27.337-.5.018-.078.107-.087.168-.12.045-.023.122-.012.145-.057.058-.115.2-.127.349-.133.1,0,.155-.056.149-.179-.01-.18.091-.24.225-.268.207-.044.382-.135.417-.367a.392.392,0,0,1,.32-.341.305.305,0,0,0,.262-.273.207.207,0,0,1,.281-.205c.167.032.254-.032.283-.162a.547.547,0,0,1,.26-.365.977.977,0,0,0,.466-.49c.033-.091.094-.159.271-.083a.083.083,0,0,0,.1-.019c.108-.082.288-.082.279-.3a.189.189,0,0,1,.115-.178.44.44,0,0,0,.212-.245.1.1,0,0,1,.06-.065,3.573,3.573,0,0,1,.368-.158c.08-.028.157-.058.18-.15a.257.257,0,0,1,.327-.2c.067.009.091-.043.123-.08.084-.1.162-.2.243-.3s.129-.21.234-.268a.574.574,0,0,0,.317-.3c.017-.05.087-.048.143-.058a.722.722,0,0,0,.577-.361.36.36,0,0,1,.366-.247.1.1,0,0,0,.122-.081c.046-.237.219-.338.342-.493.085-.108.158-.239.312-.265.175-.03.227-.185.317-.3.012-.016.035-.02.051-.031a2.124,2.124,0,0,1,.4-.257c.165-.065.345-.109.392-.306.006-.022.033-.023.058-.024.127,0,.153-.12.207-.206.064-.1.093-.247.236-.263.108-.012.147-.1.186-.186.06-.137.122-.272.318-.256.1.007.148-.038.142-.146a.113.113,0,0,1,.11-.137.4.4,0,0,0,.386-.4.263.263,0,0,1,.164-.21,1.442,1.442,0,0,0,.431-.265.432.432,0,0,1,.294-.2.1.1,0,0,0,.093-.112c0-.146.111-.167.237-.169s.236-.022.231-.175c0-.055.025-.091.072-.093.173-.009.236-.147.384-.185.087-.022.16-.059.163-.167.008-.255.2-.3.4-.334.066-.013.142-.011.18-.059.021-.025.041-.052.061-.078a2.222,2.222,0,0,1,.45.083c.33-.051.508.046.6.229.022.044.083.054.13.078s.1.017.115.051c.066.124.179.208.17.4-.007.131-.007.261.1.3a.269.269,0,0,1,.211.243c0,.034.032.05.061.063.145.064.295.125.444.188a.155.155,0,0,1,0,.074c-.11.323-.114.562.043.68.08.059.122.153.2.217a.287.287,0,0,1,.129.275c-.015.129.052.182.185.182.11,0,.217.015.24.093.043.145.148.236.177.391a.463.463,0,0,0,.3.355.256.256,0,0,1,.125.122.779.779,0,0,0,.374.413c.069.027.057.132.112.174a1.753,1.753,0,0,0,.237.1c.027.013.026.054.03.09.013.142.019.289.22.268.057-.006.059.051.089.076a.514.514,0,0,1,.145.491c-.023.2,0,.353.254.31a.112.112,0,0,1,.1.022c.092.093.258.1.5.043a.194.194,0,0,1,.185.022c.136.139.388.176.356.465,0,.013.01.016.019.021.078.041.064.148.006.294-.092.233-.075.382.06.439.039.017.057.054.092.075.108.067.142.194.028.426-.094.192-.051.261.068.274.076.008.157.011.228.025.049.009.047.062.008.14a1.671,1.671,0,0,1-.107.182c-.124.183-.137.289-.088.356a.489.489,0,0,1,.1.222c.014.1.083.135.229.1s.216.006.215.112.1.122.25.079a.824.824,0,0,1,.468-.012.6.6,0,0,0,.21.043c.182-.01.292.042.273.218-.008.07.028.108.117.087.2-.046.272.036.422.037.213,0,.283.117.158.385-.139.3-.072.428.066.505.045.025.1.044.144.067a1.071,1.071,0,0,1,.546.414.2.2,0,0,0,.048.076c.033.022.057.058.121.045.325-.068.433.067.462.279.016.118.1.177.244.17.122-.006.2.027.2.134s.051.16.188.138.23.024.235.138c.008.176.134.246.261.316.081.045.136.118.241.137.281.053.307.329.4.544.053.122.031.306.141.382.024.016.04.05.014.1-.139.267,0,.3.148.316.023,0,.027.028.031.05.015.084.1.095.257.026.211-.092.285-.045.3.067.018.19.194.247.188.458,0,.049.051.06.086.08.2.111.4.218.593.333a.489.489,0,0,1,.176.158,6.231,6.231,0,0,1,.315.582.52.52,0,0,1,0,.523.143.143,0,0,0,0,.111c.016.093.224.022.421-.157.434-.4.9-.743,1.331-1.137a.258.258,0,0,0,.159.089c.111.019.158.094.125.237-.025.109-.011.19.077.2.165.023.214.149.28.261.08.138.167.271.242.415.087.169.316.213.341.439.006.055.129.02.126.08-.006.15.108.188.189.26a.306.306,0,0,1,.131.312c-.021.132.071.143.25.068s.253-.041.309.019a.536.536,0,0,1,.049.455.674.674,0,0,0,.169.624.174.174,0,0,0,.131.078c.162.006.34-.006.323.171.2-.009.166.195.309.232s.109.241.176.35c.14.229.266.471.405.7a.3.3,0,0,0,.138.113c.222.1.472.174.583.38.033.06.121.074.191.1a.468.468,0,0,1,.286.449c.018.29,0,.606,0,.91,0,.079.047.114.177.066.441-.162.672-.105.749.112a.444.444,0,0,0,.073.132c.032.037.059.082.121.088.171.016.214.148.294.247s.116.233-.025.5c-.084.162-.015.21.119.194.093-.01.21-.043.258-.011.114.078.294.1.267.306a.189.189,0,0,0,.171.238c.095.013.06.12.039.226a2.684,2.684,0,0,0-.088.748.521.521,0,0,0,.341.48.316.316,0,0,1,.2.139c.071.132.165.247.233.382.093.185.3.254.586.251a1.318,1.318,0,0,1,.445.1c.11.031.144.133.044.337-.017.034,0,.05,0,.076a2.356,2.356,0,0,1,.251,0c.117.011.2.049.18.187a.5.5,0,0,0,.131.39c.061.09.1.2.2.257a2.977,2.977,0,0,0,.6.243c.1.03.2.061.23.147.058.144.3.124.283.334l.161.055a96.22,96.22,0,0,1,13.547-10.669c.095.147.193.293.287.441a.217.217,0,0,0,.252-.167c.009-.034.013-.074.035-.092a3.475,3.475,0,0,0,.278-.219c.089-.091.139-.225.24-.3s.2-.194.4-.164a.54.54,0,0,1,.312-.311c.285-.08.373-.374.514-.61a.54.54,0,0,1,.166-.209c.233-.136.469-.269.7-.41.075-.048.169-.08.191-.182.034-.168.16-.231.274-.31.155-.106.325-.194.493-.286a.463.463,0,0,0,.244-.3.78.78,0,0,1,.262-.451c.087-.063.106-.2.182-.28a2.272,2.272,0,0,1,.3-.2.181.181,0,0,0,.061-.106c.017-.07.08-.085.156-.087.15,0,.293-.02.3-.184s.119-.216.223-.276c.137-.08.3-.134.321-.342.01-.085.1-.095.15-.14.221-.194.57-.243.661-.582.015-.054.072-.066.113-.094.066-.043.142-.077.2-.124.251-.189.6-.27.71-.615.014-.041.059-.052.093-.073.1-.064.206-.122.3-.19a.666.666,0,0,0,.222-.193.2.2,0,0,1,.209-.113.216.216,0,0,0,.149-.05c.237-.147.473-.3.7-.447.058-.038.129-.066.147-.144a.522.522,0,0,1,.221-.28.378.378,0,0,0,.129-.164.361.361,0,0,1,.4-.249c.08,0,.107-.052.14-.1a1.96,1.96,0,0,0,.2-.475c.05-.163.14-.28.431-.157.044.018.078-.006.068-.048a.228.228,0,0,1,.1-.273c.083-.069.19-.11.205-.254.012-.108.117-.1.295.006.107.064.151.039.169-.017a2.429,2.429,0,0,1,.1-.276c.023-.047.041-.1.1-.109.348-.031.526-.261.791-.39.065-.032.1-.1.085-.208-.008-.078,0-.14.065-.142.187,0,.251-.161.485-.109.081.018.077-.058.092-.113.079-.292.137-.607.368-.739l.047.045c.072.071.18.11.188.069a.357.357,0,0,0,.013-.194.581.581,0,0,1-.019-.308.82.82,0,0,1,.365-.471.591.591,0,0,0,.287-.294c.026-.058.041-.131.1-.152.277-.1.292-.494.654-.5.025,0,.029-.026.035-.048.065-.218.285-.27.338-.5.018-.078.106-.087.168-.12.045-.023.121-.012.145-.057.058-.115.2-.127.348-.133.1,0,.156-.056.15-.179-.01-.18.09-.24.225-.268.207-.044.382-.135.417-.367a.392.392,0,0,1,.319-.341.305.305,0,0,0,.263-.273.207.207,0,0,1,.281-.2c.167.032.253-.032.282-.162a.551.551,0,0,1,.261-.365.977.977,0,0,0,.466-.49c.033-.091.094-.159.271-.083a.083.083,0,0,0,.1-.019c.108-.082.288-.083.279-.3a.187.187,0,0,1,.115-.178.443.443,0,0,0,.212-.246.106.106,0,0,1,.06-.064,3.578,3.578,0,0,1,.368-.159c.08-.027.157-.058.18-.149a.256.256,0,0,1,.327-.2c.066.009.091-.043.123-.08.084-.1.162-.2.243-.3s.129-.21.233-.268a.576.576,0,0,0,.318-.3c.017-.05.087-.048.143-.058a.722.722,0,0,0,.577-.361.359.359,0,0,1,.366-.247.1.1,0,0,0,.122-.081c.046-.237.219-.338.341-.493.086-.108.159-.239.313-.265.175-.03.227-.185.317-.3.012-.016.034-.02.051-.031a2.147,2.147,0,0,1,.4-.258c.165-.064.345-.108.392-.305,0-.022.033-.023.057-.024.127,0,.154-.12.207-.206.065-.1.094-.247.237-.263.108-.012.146-.1.185-.186.06-.137.123-.272.319-.256.1.007.147-.038.141-.146a.114.114,0,0,1,.111-.137.4.4,0,0,0,.386-.4.263.263,0,0,1,.164-.21,1.425,1.425,0,0,0,.43-.265.436.436,0,0,1,.3-.2.1.1,0,0,0,.093-.112c0-.146.111-.167.237-.169s.236-.022.231-.175c0-.055.025-.091.071-.093.174-.009.237-.147.385-.185.087-.022.159-.059.163-.167.008-.255.2-.3.4-.334.066-.013.141-.011.18-.059a1.669,1.669,0,0,1,.594-.569c.075-.032.075-.155.161-.171.345-.068.417-.445.753-.522.021,0,.026-.029.034-.049a.571.571,0,0,1,.489-.373.1.1,0,0,0,.091-.073c.029-.174.214-.173.29-.291a1.509,1.509,0,0,1,.273-.311c.022-.02.033-.055.072-.051.217.024.267-.138.332-.284a1.18,1.18,0,0,1,.133-.246c.06-.079.1-.187.216-.2.16-.013.233-.119.324-.207a.669.669,0,0,1,.139-.109,1.463,1.463,0,0,0,.37-.2c.088-.09.259-.092.238-.3-.006-.057.036-.075.071-.094.123-.066.255-.124.379-.19a1.864,1.864,0,0,0,.311-.179.835.835,0,0,0,.305-.319.629.629,0,0,1,.32-.3c.018-.01.017-.04.03-.055a1.179,1.179,0,0,1,.142-.149,6.24,6.24,0,0,1,.714-.476.4.4,0,0,0,.1-.111c.1-.136.2-.276.3-.409a.141.141,0,0,1,.11-.053.261.261,0,0,0,.25-.2c.019-.05.068-.07.108-.1a1.911,1.911,0,0,0,.2-.133,1.048,1.048,0,0,1,.264-.189.949.949,0,0,0,.437-.346,1.767,1.767,0,0,1,.318-.349.3.3,0,0,0,.129-.2.1.1,0,0,1,.109-.094.6.6,0,0,0,.387-.182,2.625,2.625,0,0,0,.674-.7.25.25,0,0,1,.241-.169c.122,0,.161-.081.151-.22-.013-.185.07-.267.249-.24a.55.55,0,0,0,.629-.253c.04-.072.095-.129.135-.2a.645.645,0,0,1,.291-.291.935.935,0,0,0,.311-.224,2.331,2.331,0,0,1,.473-.4l.072.111a.219.219,0,0,0,.253-.168c.008-.033.012-.073.034-.092a3.464,3.464,0,0,0,.278-.218c.089-.091.139-.225.24-.3l0,0a.467.467,0,0,1,.4-.16.543.543,0,0,1,.312-.311c.217-.062.32-.247.42-.436a.574.574,0,0,1,.1-.026.335.335,0,0,0,.21-.116c.112-.125.2-.277.373-.331.087-.027.113-.095.083-.206.065-.039.131-.075.195-.115s.169-.08.191-.182c.035-.167.16-.231.274-.309.155-.106.325-.194.493-.286a.466.466,0,0,0,.244-.3.78.78,0,0,1,.262-.451c.087-.064.106-.2.182-.28a2.272,2.272,0,0,1,.295-.2.176.176,0,0,0,.061-.106c.018-.071.08-.085.156-.087.15,0,.293-.021.3-.184s.12-.216.223-.276c.137-.081.3-.135.322-.343.009-.085.1-.094.15-.139.22-.194.568-.244.66-.582.015-.054.072-.067.113-.094.066-.043.142-.077.2-.124.251-.19.6-.27.71-.615.014-.042.059-.052.093-.074.1-.063.206-.121.3-.189a.666.666,0,0,0,.222-.193.194.194,0,0,1,.209-.113.224.224,0,0,0,.15-.05c.236-.147.472-.3.7-.448.058-.038.129-.065.147-.143a.528.528,0,0,1,.221-.281.375.375,0,0,0,.129-.163.361.361,0,0,1,.4-.25c.08,0,.107-.052.14-.1a1.977,1.977,0,0,0,.2-.475c.05-.163.14-.281.431-.158.045.019.078-.005.068-.047a.23.23,0,0,1,.1-.274c.083-.069.19-.11.205-.253.012-.108.117-.1.295.006.107.064.151.039.169-.018a2.239,2.239,0,0,1,.1-.275c.022-.047.04-.1.1-.109.348-.032.526-.262.791-.39.065-.032.1-.1.085-.208-.008-.078,0-.141.065-.143.187,0,.251-.161.485-.108.081.018.077-.058.092-.113.079-.292.137-.607.369-.739l.046.045c.073.071.18.11.188.068a.356.356,0,0,0,.013-.194.581.581,0,0,1-.019-.308.815.815,0,0,1,.365-.47.6.6,0,0,0,.287-.294c.026-.058.041-.132.1-.152.278-.1.292-.494.654-.495.025,0,.029-.027.035-.049.065-.217.285-.269.338-.5.018-.077.106-.086.168-.119.045-.024.122-.012.145-.057.058-.116.2-.128.349-.133.1,0,.155-.057.149-.179-.01-.181.091-.24.225-.269.207-.043.382-.134.417-.366a.391.391,0,0,1,.319-.341.306.306,0,0,0,.263-.273.207.207,0,0,1,.281-.205c.167.032.253-.032.283-.162a.549.549,0,0,1,.26-.366.971.971,0,0,0,.466-.489c.033-.092.094-.159.271-.083a.084.084,0,0,0,.1-.019c.108-.082.288-.083.279-.3a.188.188,0,0,1,.115-.177.442.442,0,0,0,.212-.246.11.11,0,0,1,.06-.065,3.573,3.573,0,0,1,.368-.158c.08-.028.157-.058.18-.149a.256.256,0,0,1,.327-.2c.067.009.091-.044.123-.08.084-.1.162-.2.243-.3s.129-.21.234-.268a.581.581,0,0,0,.317-.3c.017-.05.087-.049.143-.058a.72.72,0,0,0,.577-.362.358.358,0,0,1,.366-.246.1.1,0,0,0,.122-.081c.046-.237.219-.338.342-.493.085-.109.158-.239.312-.266.175-.029.227-.184.317-.3.012-.015.034-.02.051-.031a2.176,2.176,0,0,1,.4-.257c.165-.065.345-.108.392-.306,0-.021.033-.022.057-.023.127,0,.154-.12.208-.207.064-.1.093-.246.236-.262.108-.013.146-.1.186-.187.06-.136.122-.271.318-.256.1.008.148-.038.141-.145a.114.114,0,0,1,.111-.137.4.4,0,0,0,.386-.4.266.266,0,0,1,.164-.211,1.4,1.4,0,0,0,.43-.264.433.433,0,0,1,.3-.2.1.1,0,0,0,.093-.113c0-.146.111-.166.237-.168s.236-.022.231-.176c0-.054.025-.091.072-.093.173-.008.236-.147.384-.184.087-.022.16-.059.163-.167.008-.256.2-.3.4-.334.066-.013.142-.011.18-.059a1.66,1.66,0,0,1,.594-.569c.075-.033.075-.155.161-.171.345-.068.418-.445.753-.522.021,0,.026-.029.034-.049a.572.572,0,0,1,.489-.373.094.094,0,0,0,.091-.074c.029-.173.214-.172.29-.29a1.487,1.487,0,0,1,.273-.311c.022-.02.033-.056.073-.051.217.023.266-.138.331-.284a1.18,1.18,0,0,1,.133-.246c.06-.079.1-.188.216-.2.16-.013.233-.119.324-.208a.665.665,0,0,1,.139-.108,1.5,1.5,0,0,0,.37-.2c.088-.091.259-.092.238-.3-.006-.058.036-.075.071-.094.123-.067.255-.124.379-.19A1.936,1.936,0,0,0,160.3,132a.835.835,0,0,0,.305-.319.631.631,0,0,1,.32-.3c.018-.01.017-.039.031-.054a1.1,1.1,0,0,1,.141-.149,6.381,6.381,0,0,1,.714-.477.368.368,0,0,0,.1-.11c.1-.136.2-.277.3-.41a.145.145,0,0,1,.11-.052.261.261,0,0,0,.25-.2c.019-.051.068-.07.108-.1a1.911,1.911,0,0,0,.195-.133,1.024,1.024,0,0,1,.264-.189.939.939,0,0,0,.437-.347,1.761,1.761,0,0,1,.318-.348.3.3,0,0,0,.129-.2.105.105,0,0,1,.11-.095.594.594,0,0,0,.386-.181,2.613,2.613,0,0,0,.674-.7.254.254,0,0,1,.242-.169c.121,0,.16-.08.15-.22-.013-.184.07-.266.249-.239a.885.885,0,0,0,.227.007.421.421,0,0,1,.139.154c.022.043.084.054.13.077s.1.017.116.052c.065.124.178.207.169.4-.007.132-.007.261.1.3a.267.267,0,0,1,.211.242c0,.035.032.05.061.063.146.065.295.126.444.188a.155.155,0,0,1,0,.074c-.11.323-.114.562.043.68.08.06.123.154.2.218a.287.287,0,0,1,.129.275c-.015.129.052.181.185.181.11,0,.217.015.24.093.043.145.148.237.177.391a.463.463,0,0,0,.305.355.267.267,0,0,1,.126.122.764.764,0,0,0,.374.413c.068.027.056.132.111.174a1.68,1.68,0,0,0,.237.1c.027.014.027.055.03.09.013.143.019.29.22.268.057-.006.059.051.089.076a.515.515,0,0,1,.145.491c-.022.2,0,.354.254.31a.115.115,0,0,1,.1.023c.091.092.258.1.5.042a.2.2,0,0,1,.185.022c.136.14.387.177.355.465,0,.013.01.017.019.022.078.04.064.148.006.293-.092.233-.074.383.06.439.039.017.058.054.092.076.108.066.142.193.028.426-.094.191-.051.261.068.273.076.009.157.011.228.025.049.009.047.063.008.141a1.574,1.574,0,0,1-.107.181c-.124.184-.137.289-.088.356a.493.493,0,0,1,.1.223c.014.1.083.135.229.1s.216.006.216.113.1.122.249.078a.824.824,0,0,1,.468-.012.58.58,0,0,0,.21.043c.182-.009.292.042.273.218-.007.07.028.109.118.087.2-.046.272.036.421.037.213,0,.283.117.158.385-.139.3-.071.429.066.505.045.026.1.044.144.068a1.071,1.071,0,0,1,.546.414.194.194,0,0,0,.048.075c.033.023.057.059.121.045.325-.067.433.068.462.279.016.118.1.177.245.17.121-.006.2.027.195.134s.051.16.189.139.229.024.234.137c.008.177.134.247.261.317.081.045.136.117.241.137.281.053.307.328.4.543.053.122.031.307.141.382.024.016.04.05.014.1-.139.267,0,.3.148.316.023,0,.027.028.031.05.015.085.1.095.257.026.211-.091.286-.045.3.067.019.19.194.248.188.458,0,.05.051.06.086.08.2.112.4.218.593.333a.49.49,0,0,1,.176.158,6.36,6.36,0,0,1,.315.582.52.52,0,0,1,0,.523.143.143,0,0,0,0,.111c.016.094.224.022.421-.157.434-.394.9-.743,1.331-1.137a.259.259,0,0,0,.159.09c.111.018.158.093.125.236-.025.109-.011.19.077.2.165.023.215.148.28.261.08.138.168.27.242.414.087.17.316.213.341.439.006.055.129.02.126.08-.006.151.109.189.189.26a.308.308,0,0,1,.131.312c-.021.133.071.143.25.068s.253-.041.309.019a.537.537,0,0,1,.049.455.674.674,0,0,0,.169.624.174.174,0,0,0,.131.078c.162.006.34,0,.323.171.2-.008.167.2.309.232s.109.241.176.35c.14.229.266.471.405.7a.3.3,0,0,0,.138.112c.223.1.472.174.583.38.033.061.121.075.191.1a.468.468,0,0,1,.286.449c.018.291,0,.607,0,.91,0,.079.047.114.177.067.442-.163.672-.106.749.111a.432.432,0,0,0,.073.132c.032.037.059.082.121.088.171.017.214.148.294.248s.116.233-.025.5c-.084.162-.015.21.119.195.093-.011.21-.043.258-.011.114.077.294.095.268.306a.188.188,0,0,0,.17.238c.1.013.061.119.04.225a2.615,2.615,0,0,0-.088.748.517.517,0,0,0,.34.48.324.324,0,0,1,.2.139c.071.133.165.247.233.382.093.185.3.254.587.251a1.342,1.342,0,0,1,.444.1c.111.032.144.134.044.337-.017.034,0,.051,0,.076.084,0,.175-.009.251,0,.117.01.2.048.181.186a.5.5,0,0,0,.13.391c.061.089.1.2.2.257a3.022,3.022,0,0,0,.6.243c.1.029.194.06.229.147.058.143.3.123.283.333l.161.055A92.024,92.024,0,0,1,202.44,146.6c.079.123.16.244.238.367a.219.219,0,0,0,.253-.168c.008-.033.012-.073.034-.092.091-.076.2-.134.279-.218s.139-.225.24-.3.2-.193.4-.163a.543.543,0,0,1,.312-.311c.286-.081.373-.374.515-.61a.793.793,0,0,1,.124-.169l.176-.12c.189-.109.379-.217.563-.331.074-.045.162-.079.188-.174q.912-.6,1.836-1.194a.218.218,0,0,0-.167-.253c-.034-.008-.074-.012-.092-.034-.041-.049-.077-.1-.115-.153a2.552,2.552,0,0,1,.291-.2.177.177,0,0,0,.062-.106c.017-.071.079-.085.155-.087.15,0,.293-.021.3-.184s.12-.216.223-.276c.138-.081.3-.135.322-.343.009-.085.1-.094.15-.139.221-.194.569-.244.66-.582.015-.054.072-.067.113-.094.067-.043.142-.077.205-.125.25-.189.6-.269.71-.614.014-.042.058-.052.092-.074.1-.063.207-.121.3-.189a.674.674,0,0,0,.221-.193.194.194,0,0,1,.209-.113.224.224,0,0,0,.15-.05q.356-.22.7-.448c.058-.038.13-.065.148-.143a.531.531,0,0,1,.22-.281.376.376,0,0,0,.13-.163.36.36,0,0,1,.4-.25c.081,0,.108-.052.141-.1a2.036,2.036,0,0,0,.2-.475c.05-.163.14-.281.431-.158.044.019.077,0,.068-.048a.228.228,0,0,1,.1-.273c.082-.069.19-.11.205-.253.011-.109.116-.1.295.006.107.064.151.039.169-.018a2.086,2.086,0,0,1,.1-.275c.022-.047.041-.1.1-.109.347-.032.526-.262.791-.39.065-.032.1-.1.084-.208-.008-.078,0-.141.065-.143.187,0,.252-.161.485-.108.081.018.077-.058.092-.113.08-.292.137-.607.369-.739l.046.045c.073.071.181.11.189.068a.366.366,0,0,0,.013-.194.583.583,0,0,1-.02-.308.812.812,0,0,1,.366-.47.593.593,0,0,0,.286-.294c.026-.058.042-.132.1-.152.277-.1.291-.494.654-.5.024,0,.028-.027.035-.049.064-.217.284-.269.337-.5.019-.077.107-.086.169-.119.044-.024.121-.012.144-.057.058-.116.2-.128.349-.133.1,0,.155-.057.149-.179-.009-.181.091-.24.226-.269.207-.043.382-.134.416-.366a.393.393,0,0,1,.32-.341.3.3,0,0,0,.262-.273c.018-.155.1-.24.282-.2.167.031.253-.032.282-.162a.552.552,0,0,1,.26-.366.981.981,0,0,0,.467-.489c.033-.092.094-.159.27-.083a.083.083,0,0,0,.1-.019c.109-.082.289-.083.279-.3a.19.19,0,0,1,.115-.177.448.448,0,0,0,.213-.246.109.109,0,0,1,.059-.065,3.67,3.67,0,0,1,.368-.158c.08-.028.158-.058.181-.149a.256.256,0,0,1,.327-.2c.066.009.09-.044.123-.081.084-.1.161-.2.243-.3s.128-.21.233-.268a.578.578,0,0,0,.318-.3c.017-.049.087-.048.143-.057a.724.724,0,0,0,.577-.362.357.357,0,0,1,.366-.246.1.1,0,0,0,.121-.081c.047-.237.219-.338.342-.493.086-.109.158-.239.312-.266.175-.029.228-.184.317-.3.012-.015.035-.02.051-.031a2.184,2.184,0,0,1,.4-.257c.164-.065.345-.108.392-.306,0-.021.032-.022.057-.023.127,0,.153-.12.207-.207.064-.1.094-.246.236-.262.109-.013.147-.1.186-.187.06-.136.122-.271.318-.256.1.008.148-.038.142-.145a.113.113,0,0,1,.111-.137.4.4,0,0,0,.386-.4.266.266,0,0,1,.163-.211,1.391,1.391,0,0,0,.431-.265.433.433,0,0,1,.3-.2.1.1,0,0,0,.092-.113c0-.146.111-.167.238-.168s.235-.022.23-.176c0-.054.025-.091.072-.093.174-.008.237-.147.384-.184.087-.022.16-.059.163-.167.008-.256.2-.3.4-.335.066-.012.142-.01.18-.058a1.677,1.677,0,0,1,.594-.569c.075-.033.076-.155.162-.171.344-.068.417-.445.753-.522.02-.005.026-.029.034-.049a.571.571,0,0,1,.489-.373.094.094,0,0,0,.091-.074c.029-.173.214-.172.289-.29a1.516,1.516,0,0,1,.273-.311c.022-.02.033-.056.073-.051.217.023.267-.138.332-.284a1.226,1.226,0,0,1,.132-.246c.061-.079.1-.188.217-.2.16-.013.232-.119.324-.208a.616.616,0,0,1,.139-.108,1.5,1.5,0,0,0,.37-.2c.087-.091.258-.092.237-.3-.006-.058.037-.075.072-.094.123-.067.254-.125.379-.19a1.936,1.936,0,0,0,.311-.179.833.833,0,0,0,.3-.319.629.629,0,0,1,.321-.3c.017-.01.017-.039.03-.054a1.247,1.247,0,0,1,.141-.149,6.247,6.247,0,0,1,.714-.477.355.355,0,0,0,.1-.11c.1-.136.2-.277.3-.41a.141.141,0,0,1,.109-.052.263.263,0,0,0,.251-.2c.019-.051.068-.07.108-.1a2.161,2.161,0,0,0,.195-.133,1.019,1.019,0,0,1,.263-.189.942.942,0,0,0,.438-.347,1.761,1.761,0,0,1,.318-.348.305.305,0,0,0,.129-.2.1.1,0,0,1,.038-.07l.076.111a.18.18,0,0,0,.206-.143A.257.257,0,0,1,241.5,113a1.017,1.017,0,0,0,.154-.113,4.4,4.4,0,0,0,.523-.481.307.307,0,0,1,.081,0,.447.447,0,0,1,.253-.263c.236-.071.3-.316.418-.513l.04-.069a.548.548,0,0,0,.628-.254c.041-.071.095-.128.135-.2a.65.65,0,0,1,.291-.291.928.928,0,0,0,.311-.225,2.468,2.468,0,0,1,.727-.553,1.654,1.654,0,0,0,.306-.274c.058-.051.123-.1.186-.144a1.252,1.252,0,0,0,.19-.139,3.7,3.7,0,0,1,.937-.8.665.665,0,0,1,.235-.086.34.34,0,0,0,.21-.116c.111-.125.2-.277.373-.331s.131-.221-.117-.589l-.015-.021a.538.538,0,0,0,.216-.282c.011-.035.048-.044.075-.063.083-.054.17-.1.249-.161a.548.548,0,0,0,.181-.164.161.161,0,0,1,.172-.1.184.184,0,0,0,.123-.044q.291-.189.578-.382c.047-.033.106-.056.119-.121a.437.437,0,0,1,.179-.236.311.311,0,0,0,.105-.138.3.3,0,0,1,.329-.213c.067,0,.089-.045.115-.088a1.679,1.679,0,0,0,.158-.4c.039-.136.112-.235.355-.138.037.015.064-.005.055-.04a.189.189,0,0,1,.081-.228c.067-.059.156-.095.166-.214.008-.09.095-.085.245,0,.09.051.126.03.14-.017a1.644,1.644,0,0,1,.082-.23c.018-.039.032-.087.079-.092.288-.031.432-.225.65-.336.054-.027.078-.082.067-.173-.007-.065,0-.117.052-.119.155-.007.206-.138.4-.1.067.014.062-.049.074-.095.061-.243.1-.5.295-.618l.038.036c.062.058.152.089.158.054a.3.3,0,0,0,.008-.161.482.482,0,0,1-.021-.255.674.674,0,0,1,.3-.395.493.493,0,0,0,.233-.249c.021-.048.032-.109.08-.127.229-.085.234-.414.535-.42.02,0,.023-.023.028-.041.051-.182.232-.228.273-.42.013-.064.087-.073.137-.1s.1-.012.119-.05c.047-.1.164-.109.287-.115.085-.005.128-.05.121-.151-.01-.15.072-.2.183-.226.171-.04.315-.118.34-.311a.324.324,0,0,1,.26-.287A.253.253,0,0,0,256,99.3c.012-.129.075-.2.23-.175.139.024.209-.03.231-.138a.456.456,0,0,1,.211-.307.813.813,0,0,0,.379-.414c.026-.076.075-.133.223-.072a.071.071,0,0,0,.08-.017c.089-.07.238-.074.227-.252a.156.156,0,0,1,.093-.149.367.367,0,0,0,.172-.207.087.087,0,0,1,.049-.055,3.079,3.079,0,0,1,.3-.137c.066-.024.13-.05.148-.126a.212.212,0,0,1,.267-.171c.056.006.075-.037.1-.068.069-.082.131-.169.2-.253s.1-.177.19-.226a.479.479,0,0,0,.259-.257c.013-.041.071-.041.117-.05a.6.6,0,0,0,.473-.308.3.3,0,0,1,.3-.21.087.087,0,0,0,.1-.069c.035-.2.176-.284.276-.414.069-.091.127-.2.255-.225.144-.027.185-.156.258-.256.009-.013.028-.017.042-.026a1.765,1.765,0,0,1,.327-.22c.135-.056.284-.095.32-.259,0-.018.027-.02.047-.021.106-.006.125-.1.169-.174.051-.087.074-.206.192-.221.089-.012.12-.084.151-.158.048-.114.1-.227.26-.217.08,0,.122-.034.115-.123a.094.094,0,0,1,.09-.115.333.333,0,0,0,.314-.334.218.218,0,0,1,.132-.177,1.16,1.16,0,0,0,.353-.226.363.363,0,0,1,.242-.169.085.085,0,0,0,.075-.095c0-.121.089-.14.194-.144s.195-.021.189-.149c0-.045.019-.075.058-.078.144-.009.194-.125.316-.158.072-.02.131-.052.132-.142,0-.211.165-.249.329-.283.055-.011.118-.011.149-.051a1.376,1.376,0,0,1,.484-.481c.061-.028.06-.129.131-.145.285-.061.339-.375.616-.443.017,0,.021-.025.028-.042a.476.476,0,0,1,.4-.317.077.077,0,0,0,.074-.062c.021-.144.175-.146.236-.245a1.248,1.248,0,0,1,.221-.262c.018-.017.027-.047.06-.044.18.017.219-.118.271-.24a1.025,1.025,0,0,1,.106-.206c.049-.066.08-.157.176-.167.133-.013.191-.1.266-.177a.561.561,0,0,1,.113-.092,1.217,1.217,0,0,0,.3-.172c.072-.076.213-.08.192-.255,0-.047.03-.062.059-.079.1-.057.208-.107.311-.163a1.58,1.58,0,0,0,.255-.153.689.689,0,0,0,.247-.269.524.524,0,0,1,.262-.253c.014-.009.013-.033.024-.046a.983.983,0,0,1,.115-.126l.026-.02.008,0a.785.785,0,0,0,.386-.256c.014-.019.032-.033.047-.05l.118-.076a.325.325,0,0,0,.079-.093l.021-.029.022-.018a.249.249,0,0,0,.12-.159.086.086,0,0,1,.1-.071.494.494,0,0,0,.332-.123,2.193,2.193,0,0,0,.606-.532.208.208,0,0,1,.21-.123.139.139,0,0,0,.066-.007.128.128,0,0,1-.044.065c-.033.026-.034.059.015.09.107.069.1.138.171.206.093.1.076.178-.092.237-.188.066-.212.151-.183.246.009.031.024.062.035.093a.689.689,0,0,1,.068.425.1.1,0,0,0-.01.053c0,.025,0,.051.034.074.172.118.163.225.087.328-.042.058-.031.12.037.184s.076.1.03.145-.045.092.025.145.092.113.046.165c-.071.079-.044.166-.018.253a.5.5,0,0,0,.049.167c.1.15,0,.28-.051.414-.028.076-.115.145-.1.227,0,.018,0,.04-.037.05-.174.052-.125.126-.067.2.009.012,0,.025-.007.036-.03.043,0,.085.1.127.132.056.146.109.1.162-.072.09-.018.194-.109.281-.022.021,0,.049,0,.074.04.136.085.273.123.41a.321.321,0,0,1,.011.147,3.731,3.731,0,0,1-.106.392.3.3,0,0,1-.219.225c-.031.011-.034.032-.045.049-.032.047.09.11.252.122.358.026.709.086,1.067.112a.166.166,0,0,0,.033.11c.041.058.03.112-.045.158-.057.036-.084.077-.05.121a.25.25,0,0,1,.014.238c-.023.1-.04.192-.067.287-.033.112.05.235-.034.342-.02.027.049.067.022.092-.066.061-.031.129-.025.2a.187.187,0,0,1-.074.193c-.065.047-.029.093.082.142s.129.1.129.147c0,.081-.074.152-.17.217a.4.4,0,0,0-.187.344.113.113,0,0,0,.025.093c.069.075.152.151.071.219.09.085-.009.158.039.238s-.053.153-.069.23c-.035.162-.081.322-.116.484a.186.186,0,0,0,.014.11.727.727,0,0,1,.1.426c-.011.041.022.087.041.13a.287.287,0,0,1-.062.322c-.114.132-.254.261-.381.392-.033.034-.027.07.051.108.263.129.341.258.284.386a.26.26,0,0,0-.023.089.117.117,0,0,0,.016.092c.069.085.033.161.026.239s-.046.153-.222.2c-.054.016-.077.038-.078.063a.255.255,0,0,0-.128.054c-.032.033-.069.066-.07.1a3.11,3.11,0,0,0,.007.348.192.192,0,0,1-.048.178.065.065,0,0,0,0,.108c.066.06.04.111-.006.161l-.048.054-.009.008v0a.357.357,0,0,1-.144.091c-.032.012-.058.03-.055.047.015.1-.1.183-.185.271-.036.039-.052.08-.01.126a.191.191,0,0,1,.037.255.071.071,0,0,0-.01.072c.069.138.014.27.116.409.038.052.011.1-.078.135a.223.223,0,0,0-.144.144.17.17,0,0,0,.033.2c.043.055.054.111.1.168a.5.5,0,0,1,.1.206c.032.166-.042.324.02.493a.018.018,0,0,1,0,.018c-.059.067-.029.143-.03.216,0,.03.014.063-.007.091a.346.346,0,0,0,.019.418.083.083,0,0,1,.008.091c-.1.154-.065.323-.162.477-.014.022,0,.049.02.074a.2.2,0,0,1,.014.272.145.145,0,0,0-.012.145.789.789,0,0,1,.083.389.151.151,0,0,0,.045.13.109.109,0,0,1-.009.161,1.045,1.045,0,0,1-.091.1.114.114,0,0,0-.016.161c.04.062.073.129.037.184a.66.66,0,0,1-.23.283c-.067.04-.1.084-.089.135.017.07-.034.13-.156.179-.1.039-.171.086-.162.142.014.08-.077.156.036.238s.094.148.028.216a.134.134,0,0,0-.037.069c-.023.119-.041.24-.065.359a.291.291,0,0,1-.051.123.283.283,0,0,0-.04.3.135.135,0,0,1-.02.162.106.106,0,0,0-.018.143c.042.065.021.123-.04.177a.3.3,0,0,0-.081.3c.007.062.049.124-.068.172-.026.01-.012.035.007.053.054.048.032.084-.048.117-.231.1-.264.222-.191.356.039.071.072.136,0,.2-.039.033-.018.071.036.109.106.074.215.147.214.224,0,.023.052.05.078.075s.073.052.067.074c-.04.124.069.261-.036.38a.065.065,0,0,0,.009.091.1.1,0,0,1,0,.144c-.037.045-.033.093.017.145a.162.162,0,0,1,.037.093c.024.131.188.264.245.395.168.126.206.249.17.369-.008.029.014.061.025.092s.036.052.03.074c-.024.083-.009.17-.092.247-.059.053-.113.109-.079.174a.168.168,0,0,1-.009.2.05.05,0,0,0,0,.054c.037.094.078.187.117.281-.009.01-.013.023-.032.032-.184.088-.286.189-.266.311.01.061-.011.121,0,.182a.172.172,0,0,1-.059.176c-.06.049-.053.1.006.162s.089.1.067.148c-.042.081-.034.168-.086.247a.292.292,0,0,0-.015.29.164.164,0,0,1,0,.109.485.485,0,0,0-.009.346c.019.043-.03.082-.023.125a1.105,1.105,0,0,0,.063.149c.006.018-.011.035-.024.052-.055.067-.114.133-.016.214.028.023,0,.049.008.073a.306.306,0,0,1-.142.276c-.093.074-.148.153-.018.248a.079.079,0,0,1,.036.056c0,.081.07.161.2.242a.13.13,0,0,1,.073.093c0,.121.1.25-.039.359,0,.005,0,.012,0,.018.018.053-.034.093-.121.129-.138.058-.194.13-.158.215.011.025,0,.049.009.074.02.077-.019.147-.167.195-.122.041-.132.089-.085.149.03.038.065.075.091.113s-.005.048-.056.064a.859.859,0,0,1-.123.029c-.132.023-.182.063-.189.114a.3.3,0,0,1-.049.141c-.034.048-.019.1.06.146s.093.1.048.146-.008.1.077.146a.53.53,0,0,1,.212.206.452.452,0,0,0,.075.113c.085.078.112.15.03.216-.033.027-.034.06.015.091.107.069.105.138.171.206.093.1.076.177-.092.236-.188.067-.212.152-.183.247.009.031.024.062.035.093a.7.7,0,0,1,.068.424.116.116,0,0,0-.011.054c0,.025,0,.051.035.074.172.118.163.224.087.328-.043.058-.032.12.036.183s.076.1.03.146-.044.092.026.144.091.114.046.165c-.071.08-.045.166-.018.254a.511.511,0,0,0,.049.167c.1.15,0,.279-.052.414-.027.076-.115.145-.1.227,0,.018,0,.04-.036.05-.174.052-.126.125-.067.2.009.012,0,.025-.008.036-.029.043,0,.085.1.127.132.055.145.109.1.162-.072.09-.019.194-.11.281-.021.021,0,.049,0,.073.04.137.085.274.122.411a.3.3,0,0,1,.011.147,3.424,3.424,0,0,1-.105.391.3.3,0,0,1-.219.225c-.032.012-.034.033-.046.049-.032.048.09.111.253.123.358.026.709.086,1.067.112a.165.165,0,0,0,.032.11c.041.058.031.111-.044.158-.057.035-.085.076-.05.121a.25.25,0,0,1,.014.238c-.023.1-.04.192-.068.287-.032.112.051.234-.033.342-.021.027.048.067.022.092-.066.061-.031.129-.026.2a.185.185,0,0,1-.073.194c-.065.046-.029.093.082.141s.129.1.129.147c0,.082-.075.152-.17.218a.4.4,0,0,0-.188.344.117.117,0,0,0,.026.093c.068.075.152.15.071.219.09.084-.009.158.038.238s-.053.153-.069.23c-.034.161-.08.322-.116.484a.2.2,0,0,0,.014.11.719.719,0,0,1,.1.426c-.011.041.022.086.041.13a.287.287,0,0,1-.062.321c-.115.133-.254.262-.381.392-.033.035-.027.071.05.109.264.129.342.257.285.386a.239.239,0,0,0-.023.089.114.114,0,0,0,.016.092c.069.085.033.16.026.239s-.046.152-.222.205c-.106.031-.1.083-.029.137.045.037.111.076.118.111.018.085.09.174-.01.252a.117.117,0,0,0-.025.179c.037.049-.023.079-.077.115a1.483,1.483,0,0,0-.353.281.321.321,0,0,0-.052.36.194.194,0,0,1,.028.147c-.023.09-.03.181-.057.27-.036.121.028.246.154.372a.877.877,0,0,1,.153.244c.036.064.008.123-.122.165-.022.007-.022.021-.033.032a1.33,1.33,0,0,1,.113.112c.047.057.067.11,0,.161a.3.3,0,0,0-.107.226.454.454,0,0,0-.02.2,1.948,1.948,0,0,0,.163.374.208.208,0,0,1,.039.166c-.034.088.081.189-.015.271.016.032.033.065.048.1a60.2,60.2,0,0,1,11.687,1.819.135.135,0,0,0,.033-.184c-.012-.018-.028-.038-.027-.056a1.985,1.985,0,0,0,.021-.218,1.805,1.805,0,0,1-.033-.239c.01-.084,0-.171.1-.245a.347.347,0,0,1-.007-.275c.084-.158-.009-.328-.053-.5a.359.359,0,0,1-.024-.166c.038-.161.079-.322.112-.484.011-.054.037-.109,0-.164a.324.324,0,0,1-.021-.257c.018-.114.051-.227.081-.341a.3.3,0,0,0-.03-.238.524.524,0,0,1-.089-.316c.009-.066-.045-.137-.047-.2a1.488,1.488,0,0,1,.036-.217.12.12,0,0,0-.021-.074c-.024-.039,0-.072.027-.106.061-.066.114-.135.046-.213a.214.214,0,0,1-.029-.22c.023-.095.066-.188-.016-.292-.033-.043,0-.085,0-.128.006-.182.131-.354.02-.545-.018-.031,0-.061.006-.091.009-.048.025-.1.031-.144.021-.193.132-.378.026-.582-.012-.025,0-.049.006-.073.015-.072.033-.143.044-.215a.415.415,0,0,0,.008-.182.119.119,0,0,1,.038-.141.136.136,0,0,0,.041-.087q.051-.252.1-.5c.007-.042.025-.085,0-.128a.341.341,0,0,1-.031-.221.234.234,0,0,0-.018-.129.222.222,0,0,1,.059-.285c.035-.033.022-.07.013-.107a1.368,1.368,0,0,0-.127-.3c-.051-.095-.065-.187.112-.256.026-.011.03-.036.007-.051a.149.149,0,0,1-.078-.167c0-.066.031-.131-.026-.2-.043-.054,0-.095.127-.124.073-.017.08-.047.063-.08a1.688,1.688,0,0,1-.078-.169c-.011-.031-.029-.064-.007-.091.132-.163.105-.344.16-.515.013-.043,0-.086-.056-.13s-.062-.064-.036-.093c.076-.082.034-.18.156-.257.042-.026.007-.059-.012-.09-.1-.166-.211-.332-.172-.492H284c.062,0,.124-.028.109-.05a.241.241,0,0,0-.08-.093.374.374,0,0,1-.144-.131.524.524,0,0,1-.055-.368.371.371,0,0,0-.01-.256c-.014-.037-.04-.077-.025-.111.073-.163-.1-.348.056-.5.01-.01,0-.024-.007-.037-.069-.126,0-.243-.079-.37-.027-.043.007-.085.018-.126s.046-.058.035-.088c-.026-.077.028-.144.089-.21.041-.045.04-.092-.017-.144a.15.15,0,0,1-.024-.218.282.282,0,0,0,.013-.344.248.248,0,0,1-.016-.291.194.194,0,0,0-.011-.236.128.128,0,0,1,.027-.213.127.127,0,0,0,.048-.194.354.354,0,0,1-.052-.277.626.626,0,0,0-.021-.421c-.027-.055-.031-.111.077-.153a.049.049,0,0,0,.033-.05c.009-.084.084-.161-.015-.255a.121.121,0,0,1-.03-.129.281.281,0,0,0-.02-.2.066.066,0,0,1,0-.055,2.114,2.114,0,0,1,.084-.229.142.142,0,0,0,.01-.145.157.157,0,0,1,.049-.23c.032-.024.019-.058.016-.089-.007-.08-.02-.16-.031-.24a.621.621,0,0,1-.02-.221.363.363,0,0,0,0-.273c-.015-.03.016-.059.035-.087a.441.441,0,0,0,.082-.411.222.222,0,0,1,.045-.268.065.065,0,0,0,.016-.089.729.729,0,0,1-.075-.369.34.34,0,0,1,.014-.253c.061-.089.014-.181,0-.273a.115.115,0,0,1,.007-.036,1.288,1.288,0,0,1,.055-.287c.04-.1.1-.2.029-.306-.008-.012,0-.025.013-.036.052-.056.012-.12,0-.181s-.069-.152-.017-.22c.04-.052.019-.107,0-.164-.035-.087-.069-.175.021-.252.044-.038.045-.08,0-.126a.073.073,0,0,1-.014-.11.255.255,0,0,0-.013-.344.17.17,0,0,1-.024-.165.852.852,0,0,0,.063-.3.273.273,0,0,1,.036-.216.066.066,0,0,0-.01-.091c-.064-.067-.028-.122.025-.178s.089-.11.019-.178a.05.05,0,0,1-.011-.072c.07-.079.035-.168.08-.248a.111.111,0,0,0,0-.146c-.11-.118-.045-.221.021-.323.023-.034.055-.066.05-.1a1.064,1.064,0,0,1,0-.511c.017-.047-.036-.1-.008-.147.116-.178-.021-.379.086-.558.007-.011,0-.024-.007-.037a.356.356,0,0,1,.04-.378.059.059,0,0,0,.006-.072c-.065-.091.014-.17-.007-.255a.992.992,0,0,1-.023-.258c0-.018-.01-.039.008-.054.1-.082.051-.177.014-.27a.879.879,0,0,1-.053-.168c-.009-.062-.04-.128,0-.182a.307.307,0,0,0,.044-.232.444.444,0,0,1,.011-.109.9.9,0,0,0,.067-.249c0-.079.068-.153-.035-.239-.027-.023-.017-.049-.011-.073.022-.083.052-.165.075-.248a1.094,1.094,0,0,0,.052-.214.537.537,0,0,0-.013-.275.4.4,0,0,1,0-.272c0-.012-.01-.026-.011-.038a.692.692,0,0,1-.007-.128,4.052,4.052,0,0,1,.089-.521.234.234,0,0,0-.007-.091c-.018-.1-.04-.21-.055-.314a.086.086,0,0,1,.023-.071.163.163,0,0,0,.016-.2.157.157,0,0,1,0-.091,1.392,1.392,0,0,0,.023-.144.635.635,0,0,1,.027-.2.588.588,0,0,0,.031-.344,1.173,1.173,0,0,1-.021-.294.2.2,0,0,0-.035-.147.064.064,0,0,1,0-.089.362.362,0,0,0,.082-.248,1.667,1.667,0,0,0-.026-.6.158.158,0,0,1,.027-.18c.053-.051.032-.105-.034-.164-.087-.078-.089-.15,0-.215a.332.332,0,0,0,.152-.384c-.015-.049-.017-.1-.032-.148a.416.416,0,0,1-.007-.256.573.573,0,0,0,.032-.235,1.524,1.524,0,0,1,.061-.561,1.086,1.086,0,0,0,.007-.255c0-.048.009-.1.015-.145a.777.777,0,0,0,.018-.144,2.33,2.33,0,0,1,.039-.764.381.381,0,0,1,.06-.14.208.208,0,0,0,.038-.142.568.568,0,0,1,.01-.309c.045-.092-.043-.157-.31-.216l-.129-.027h-.1a.106.106,0,0,0,0-.019c.007-.181.131-.353.02-.545-.018-.031,0-.061.006-.091.009-.048.026-.1.031-.144.021-.193.132-.378.027-.582-.013-.024,0-.048.006-.072.014-.072.033-.144.044-.216a.414.414,0,0,0,.007-.182.12.12,0,0,1,.038-.141.131.131,0,0,0,.041-.087q.053-.252.1-.5c.008-.042.026-.085,0-.128a.329.329,0,0,1-.031-.221.255.255,0,0,0-.018-.129A.222.222,0,0,1,285,95.1c.035-.033.022-.069.013-.107a1.3,1.3,0,0,0-.127-.3c-.051-.1-.065-.187.112-.257.027-.01.03-.035.007-.05a.153.153,0,0,1-.078-.167c0-.067.031-.132-.026-.2-.043-.054,0-.095.127-.123.073-.018.081-.048.063-.081a1.4,1.4,0,0,1-.077-.169c-.012-.031-.029-.064-.008-.091.133-.163.106-.343.16-.515.014-.042,0-.086-.056-.13s-.062-.064-.036-.092c.077-.083.035-.181.156-.257.042-.027.007-.06-.011-.091-.1-.165-.211-.332-.172-.491h.039c.062,0,.125-.028.11-.05a.244.244,0,0,0-.081-.093.389.389,0,0,1-.144-.13.533.533,0,0,1-.055-.369.377.377,0,0,0-.009-.256c-.015-.037-.041-.077-.025-.111.073-.163-.1-.348.056-.5.01-.01,0-.024-.007-.037-.069-.126,0-.243-.08-.37-.026-.043.007-.085.019-.126s.045-.058.035-.088c-.027-.077.028-.143.088-.209.041-.046.04-.093-.017-.145a.151.151,0,0,1-.024-.218.282.282,0,0,0,.013-.344.249.249,0,0,1-.016-.291.193.193,0,0,0-.011-.236.129.129,0,0,1,.028-.213.127.127,0,0,0,.047-.194.352.352,0,0,1-.052-.276.625.625,0,0,0-.021-.421c-.026-.056-.03-.112.077-.154a.049.049,0,0,0,.033-.05c.009-.084.084-.161-.015-.254a.123.123,0,0,1-.03-.13.282.282,0,0,0-.02-.2.07.07,0,0,1,0-.055,2.349,2.349,0,0,1,.084-.229.142.142,0,0,0,.01-.145.157.157,0,0,1,.049-.23c.032-.024.019-.058.016-.089-.007-.08-.02-.16-.03-.24a.622.622,0,0,1-.021-.221.368.368,0,0,0,0-.273c-.015-.03.015-.059.034-.087a.445.445,0,0,0,.083-.411.22.22,0,0,1,.045-.268.066.066,0,0,0,.015-.089.724.724,0,0,1-.074-.368.342.342,0,0,1,.014-.254c.06-.089.014-.181,0-.273a.094.094,0,0,1,.008-.036,1.286,1.286,0,0,1,.054-.287c.04-.1.1-.2.029-.306-.007-.012,0-.024.014-.035.051-.057.011-.12,0-.182s-.07-.152-.017-.22c.04-.052.018-.107,0-.164-.035-.087-.068-.175.021-.252.044-.038.045-.08,0-.126a.072.072,0,0,1-.014-.109.255.255,0,0,0-.013-.345.17.17,0,0,1-.024-.165.871.871,0,0,0,.064-.3.266.266,0,0,1,.036-.216.067.067,0,0,0-.011-.091c-.063-.067-.027-.122.025-.177s.09-.111.02-.178c-.025-.024-.03-.052-.011-.073.069-.078.034-.168.08-.248a.11.11,0,0,0-.006-.145c-.11-.119-.045-.222.022-.324.022-.034.054-.066.05-.1a1.052,1.052,0,0,1,0-.511c.017-.047-.036-.1-.007-.147.115-.178-.022-.379.086-.558.006-.011,0-.024-.008-.037a.357.357,0,0,1,.041-.378.057.057,0,0,0,0-.072c-.064-.09.014-.169-.006-.255a.988.988,0,0,1-.023-.258c0-.018-.011-.039.008-.054.1-.082.051-.177.014-.27a.741.741,0,0,1-.053-.168c-.01-.061-.041-.128,0-.182a.308.308,0,0,0,.045-.232.4.4,0,0,1,.01-.109.9.9,0,0,0,.067-.249c0-.079.068-.153-.034-.239-.028-.023-.018-.049-.012-.073.023-.083.052-.165.076-.248a1.167,1.167,0,0,0,.051-.214.537.537,0,0,0-.013-.275.4.4,0,0,1,0-.272c0-.012-.01-.025-.011-.038a.687.687,0,0,1-.007-.128,3.889,3.889,0,0,1,.09-.521.258.258,0,0,0-.008-.091c-.018-.1-.04-.21-.055-.314a.087.087,0,0,1,.023-.071.164.164,0,0,0,.017-.2.149.149,0,0,1,0-.091,1.166,1.166,0,0,0,.023-.144.612.612,0,0,1,.028-.2.6.6,0,0,0,.03-.344,1.122,1.122,0,0,1-.02-.293.2.2,0,0,0-.036-.148.065.065,0,0,1,0-.089.363.363,0,0,0,.083-.248,1.69,1.69,0,0,0-.026-.6.156.156,0,0,1,.026-.18c.053-.051.032-.105-.034-.164-.087-.077-.088-.15,0-.215a.33.33,0,0,0,.152-.384c-.014-.049-.017-.1-.032-.148a.408.408,0,0,1-.006-.256.572.572,0,0,0,.031-.235,1.546,1.546,0,0,1,.061-.561,1.084,1.084,0,0,0,.008-.255,1.4,1.4,0,0,1,.014-.144.719.719,0,0,0,.018-.145,2.333,2.333,0,0,1,.039-.764.409.409,0,0,1,.061-.14.207.207,0,0,0,.037-.142.568.568,0,0,1,.01-.309C286.323,66.75,286.28,66.7,286.142,66.648Z"/></svg>