<svg xmlns="http://www.w3.org/2000/svg" viewBox="0 0 952 326"><defs><style>.cls-1{fill:#1858a8;}.cls-2{fill:#ffeded;}.cls-3{fill:#f36;}</style></defs><title>alias</title><g id="Livello_1" data-name="Livello 1"><path class="cls-1" d="M412.511,2.945a8.43,8.43,0,0,0,2.406.69,18.731,18.731,0,0,0,2.866.376,1.446,1.446,0,0,1,.5.1,3.143,3.143,0,0,0,1.21.242c.94.082,1.878.178,2.8.3a6.075,6.075,0,0,1,1.322.29,5.628,5.628,0,0,0,1.892.3,1.526,1.526,0,0,1,1.062.288,1.757,1.757,0,0,0,.2.139c.275.009.29-.041.3-.108.032-.331.653-.491,1.224-.66a1.083,1.083,0,0,1,.432,0c.459.158,1.085.121,1.559.278a5.642,5.642,0,0,1,1.168.521c.464.28,1.006.543,1.545.805a1.826,1.826,0,0,0,.575.137,15.026,15.026,0,0,1,2.09.264,1.754,1.754,0,0,0,.327.048,18.394,18.394,0,0,1,3.027.446,3.527,3.527,0,0,0,.893.041,5.5,5.5,0,0,1,2.062.221c.06.02.128.037.194.053.949.234.97.283.246.594-.343.148-.689.295-1.078.461a4.855,4.855,0,0,0,.476.2,1.975,1.975,0,0,1,.725.409c.175.139.681.187.9.355a1.847,1.847,0,0,0,1.088.526.524.524,0,0,1,.233.1,10.389,10.389,0,0,0,2.994,1.292,3.881,3.881,0,0,1,.974.466,12.832,12.832,0,0,0,2.6,1.26,2.693,2.693,0,0,1,.343.182c.164.085.339.166.5.25a3.97,3.97,0,0,1,.392.225,13.707,13.707,0,0,1,1.367.852,1.514,1.514,0,0,0,.545.167c.536.093,1.081.181,1.636.248.372.046.659.1.712.266.061.181.381.26.767.314.147.02.305.022.452.042.805.105,1.3.367,1.257.7a.594.594,0,0,1-.226.38c-.329.273-.38.528.222.79.368.16.522.35.334.548-.115.122-.095.243.124.342.393.177.43.391.6.592s.357.4.518.606a2.41,2.41,0,0,1,.177.308c.034.059.025.144.117.171.665.192.508.546,1.093.751.077.027.141.087.128.124-.09.249.343.5.073.755-.067.062.049.177.159.251.356.24.755.472,1.125.71.429.276.885.548,1.256.834a.95.95,0,0,1,.455,1.017c-.052.191-.181.376.173.558.03.344.667.659.5,1.016-.032.069.136.172.274.241.195.1.468.169.67.264.145.068.339.163.324.233-.078.367.422.671.8.991.016.013.018.029.046.074-.372.168-.465.4-.357.643.081.184.161.345-.2.5-.132.055-.08.2-.021.3a.415.415,0,0,1-.009.529c-.249.3-.1.589.316.871.26.176.473.35.462.557-.006.1.11.208.222.3a.377.377,0,0,1,.115.486,4.364,4.364,0,0,0-.184.615c-.016.059.027.125-.016.178-.261.319,0,.621.383.915.294.224.146.436.081.651-.015.051-.159.091-.28.156l1.224.849c-.095.1-.329.227-.277.338.069.145-.039.264-.046.4a.086.086,0,0,0,.048.087c.579.3.446.674.929.982.094.06.1.141.127.214.036.088.017.181.089.265.2.236.388.467.112.7a.057.057,0,0,0,0,.088c.309.3-.013.518-.466.724-.189.086-.27.21-.463.294-.593.256-.915.548-.828.919a.335.335,0,0,1-.155.3c-.3.249-.625.491-.953.732a1.722,1.722,0,0,1-.957.511.423.423,0,0,0-.28.178,8.372,8.372,0,0,1-1.806,1.574.369.369,0,0,1-.066.034,7.738,7.738,0,0,0-1.1.533,5.607,5.607,0,0,1-.974.567,3.225,3.225,0,0,0-.963.673,1.465,1.465,0,0,1-.611.4,2.58,2.58,0,0,0-1.123.626,1.312,1.312,0,0,1-.519.208,7.65,7.65,0,0,0-1.778.8,1.7,1.7,0,0,1-.439.179,2.207,2.207,0,0,0-.934.376c.5.38.046.764.118,1.16a3.532,3.532,0,0,1-1.011.653c-.1.035-.282.088-.259.119.15.209-.167.3-.512.39a.876.876,0,0,0-.306.17,3.219,3.219,0,0,1-1.439.565,5.067,5.067,0,0,0-1.565.521,5.374,5.374,0,0,0-1.179.966,9.261,9.261,0,0,0-.769.913,1.961,1.961,0,0,1-.866.591.766.766,0,0,0-.306.22c-.13.135-.232.276-.361.432-1.016.1-1.227.439-1.341.82l-.61-.023c-.589.264-1.231.517-1.765.8a4.6,4.6,0,0,1-3.277.184l-.353-.091a5.371,5.371,0,0,1-.7.163c-.239.028-.53,0-.791.005-.22.009-.426.044-.642.063a1.9,1.9,0,0,1-.431.019,6.562,6.562,0,0,0-2.291.091c-.693.1-1.343.225-2.09.276a2.353,2.353,0,0,0-1.206.35,2.584,2.584,0,0,1-.573.251c-.467.181-.884.381-1.332.569a1.629,1.629,0,0,1-.494.157,2.1,2.1,0,0,0-1.057.352,3.5,3.5,0,0,1-1.181.5c-.092.021-.233.05-.238.081-.05.35-.922.338-1.427.472a6.268,6.268,0,0,1-1.852.077c-.445-.029-.9-.031-1.349-.041-.671-.016-1.346-.122-2.019-.188a2.457,2.457,0,0,0-.548-.039,6.392,6.392,0,0,1-1.868-.039c-.112-.005-.222-.025-.409-.047a1.917,1.917,0,0,1-.96.206.348.348,0,0,0-.109.008,5.2,5.2,0,0,1-.791.2c-.308.035-.691-.014-1.011.014a4.219,4.219,0,0,0-.759.16c-.3.082-.565.181-.861.264a1.2,1.2,0,0,1-.4.052,4.546,4.546,0,0,0-1.327.139,12.263,12.263,0,0,0-2.588-.286,1.2,1.2,0,0,0-.423.036,1.553,1.553,0,0,1-.817.072.261.261,0,0,0-.107.005,5.674,5.674,0,0,1-1.732.227c-.209.028-.416.058-.671.094l-.695-.117a3.666,3.666,0,0,0-1.242.4,2.142,2.142,0,0,1-1.291.085l-.521.507c-.161-.032-.316-.067-.479-.094s-.359-.056-.542-.077a6.384,6.384,0,0,0-1.4.105,4.516,4.516,0,0,0-1.24.136,6.675,6.675,0,0,1-2.128.2c-.946,0-1.9-.032-2.85-.054a1.24,1.24,0,0,1-.324-.037,2.934,2.934,0,0,0-1.188-.095,4.7,4.7,0,0,1-1.548-.061,1.823,1.823,0,0,0-.443-.011,3.893,3.893,0,0,1-1.107-.1,3.391,3.391,0,0,0-1.1-.095,9.641,9.641,0,0,1-1.018-.008,4.2,4.2,0,0,1-.783-.058c-.6-.154-1.336-.152-1.905-.345a3.492,3.492,0,0,0-1.111-.062c-.411.012-.828.016-1.243.01a2.227,2.227,0,0,1-.549-.063,8.116,8.116,0,0,0-1.522-.214,14.172,14.172,0,0,0-1.57-.064,14.293,14.293,0,0,1-3.187-.383c-.307-.07-.606-.148-.894-.23a7.222,7.222,0,0,0-2.06-.247,17.7,17.7,0,0,1-3.358-.3c-.634-.115-1.277-.208-1.868-.372a5.512,5.512,0,0,0-2.007-.132,6.281,6.281,0,0,0-2.188-.4,4.324,4.324,0,0,1-1.576-.366,2.819,2.819,0,0,0-1.416-.248,4.518,4.518,0,0,1-1.1-.1c-.492-.093-1.008-.162-1.516-.239a3.252,3.252,0,0,1-.331-.041,17.308,17.308,0,0,1-3.486-1.1.878.878,0,0,1-.335-.287.955.955,0,0,0-.606-.387,12.541,12.541,0,0,1-1.944-.875,1.488,1.488,0,0,1-.722-.578c-.115-.271-.526-.428-1.179-.527-.434-.066-.89-.122-1.294-.2a10.488,10.488,0,0,1-1.985-.453c-.425-.18-.976-.315-1.472-.469a1.975,1.975,0,0,1-.285-.083,5.889,5.889,0,0,0-1.546-.488,1.72,1.72,0,0,1-.484-.2c-.49-.279-.962-.563-1.471-.864-.283-.045-.6-.106-.931-.146-.512-.061-.8-.2-.911-.391a1.218,1.218,0,0,0-.79-.6c-.107-.035-.131-.109-.2-.163-.2-.148-.4-.3-.626-.443-.356-.227-.644-.453-.693-.723-.073-.406-.392-.533-1.439-.577a2.436,2.436,0,0,1-1.473-.392c-.218-.2-.767-.214-1.045-.36-.256-.133-.386-.323-.7-.414a6.36,6.36,0,0,1-1.549-.7,5.5,5.5,0,0,0-1.39-.62,2.173,2.173,0,0,1-1.158-.737A6.011,6.011,0,0,0,325.108,44a8.136,8.136,0,0,1-1.117-.8c-.173-.132-.262-.282-.113-.437.177-.182-.017-.363-.363-.5a17.353,17.353,0,0,1-1.765-1.043.44.44,0,0,1-.225-.436c-.017-.345.027-.688.038-1.032.014-.412-.231-.792-.827-1.168-.516-.325-.88-.683-1.458-1-.233-.128-.178-.329-.386-.47-.184-.124-.667-.193-.809-.318a2.61,2.61,0,0,1-.5-.7c-.054-.088,0-.187-.083-.268a1.2,1.2,0,0,1-.327-1.2.9.9,0,0,0-.447-.837.606.606,0,0,1-.2-.3,3.989,3.989,0,0,1-.12-.494.276.276,0,0,1-.023-.134c.1-.367.238-.731.306-1.1.044-.239-.075-.483-.426-.7s-.722-.4-1.177-.654a.621.621,0,0,0-.1-.249c-.114-.145-.008-.265.105-.389a8.011,8.011,0,0,0,.654-.742,1.851,1.851,0,0,1,.842-.652c.262-.113.378-.241.391-.4.026-.306.294-.572.73-.813.275-.152.46-.331.747-.479.267-.137.328-.274.245-.452-.06-.129.036-.264.073-.4.029-.1.11-.2.107-.306a1.679,1.679,0,0,1,.512-1.036.963.963,0,0,0,.153-1.144c-.068-.13-.047-.233.143-.334.08-.042.153-.109.126-.159-.075-.137.057-.226.259-.318a1.434,1.434,0,0,0,.317-.224,3.251,3.251,0,0,1,.539-.421c.43-.227.492-.481.361-.759a2.47,2.47,0,0,0-.238-.4c-.124-.171-.065-.313.146-.466.279-.2.418-.433.288-.682-.109-.209-.023-.391.408-.515a.965.965,0,0,0,.634-.447,2.853,2.853,0,0,1,.459-.583,1.525,1.525,0,0,0,.3-.6c.017-.041-.014-.092-.06-.132-.447-.405-.181-.757.262-1.1a1.573,1.573,0,0,0,.374-.41c.2-.313.348-.631.541-.944a.742.742,0,0,1,.284-.177,1.813,1.813,0,0,1,.282-.066c.793-.177,1.225-.439,1.142-.825a.129.129,0,0,1,.077-.166,9.828,9.828,0,0,1,2.05-.8,11.167,11.167,0,0,0,1.39-.343,4.364,4.364,0,0,1,1.273-.236.941.941,0,0,0,.76-.285,1.972,1.972,0,0,1,1.225-.518c.5-.093.88-.249,1.42-.325a1.518,1.518,0,0,0,.713-.308,3.762,3.762,0,0,0,.722-.731,1.5,1.5,0,0,1,.957-.446c.428-.084.854-.17,1.291-.248a15.384,15.384,0,0,0,2.2-.549,4.047,4.047,0,0,0,1.282-.69,8.6,8.6,0,0,0,.662-.594,1.622,1.622,0,0,1,1.113-.437,1.315,1.315,0,0,0,.553-.194,10.862,10.862,0,0,1,1.653-.744c.571-.221,1.176-.425,1.766-.636.237-.085.643-.109.82-.206a7.1,7.1,0,0,1,1.94-.471c.231-.041.483-.066.722-.1a4.178,4.178,0,0,0,.6-.1,8.864,8.864,0,0,1,2-.342c.145-.013.289-.029.422-.053,1.176-.208,2.4-.372,3.635-.526.669-.083,1.325-.182,1.969-.288.794-.132,1.676-.142,2.507-.221.21-.02.457.009.681,0a5.044,5.044,0,0,0,.648-.05c.973-.167,1.922-.343,2.807-.58a10.049,10.049,0,0,1,2.41-.291,18.391,18.391,0,0,0,3.959-.514,8.964,8.964,0,0,1,1.311-.22,13.036,13.036,0,0,0,1.406-.24c.6-.109,1.219-.2,1.76-.35a8.7,8.7,0,0,1,3.062-.111c.563.054.928.237,1.026.466.079.183.325.263.77.293a4.557,4.557,0,0,1,.75.109,8.019,8.019,0,0,0,2.287.23,12.461,12.461,0,0,0,1.909-.2,12.007,12.007,0,0,1,1.839-.156,20.866,20.866,0,0,0,3.26-.272C392.9,1.1,394.163.918,395.361.7a17.4,17.4,0,0,1,2.43-.144,1.415,1.415,0,0,1,1.081.3c.191.266.627.36,1.243.426.554.06,1.088.169,1.617.269,1.671.315,3.442.5,5.155.755a5.71,5.71,0,0,1,1.6.206c.214.034.435.063.657.087a5.287,5.287,0,0,1,.56.049,6.315,6.315,0,0,0,1.4.211C411.553,2.866,412.005,2.91,412.511,2.945Z"/></g><g id="solo_testo" data-name="solo testo"><path class="cls-2" d="M500.246,300.818a70.058,70.058,0,0,1,.091-10.331c.1-2.908.22-5.824.529-8.714a8.715,8.715,0,0,0-.753-5.28c-1.25-2.381-.38-5.016-.6-7.516-.216-2.48-1.594-4.883-1.669-7.344-.1-3.423.581-6.865.83-10.306.131-1.808-.149-3.66.118-5.438.374-2.49.231-5.048,1.371-7.469a13.707,13.707,0,0,0,.794-4.819c.16-2.354.195-4.721.186-7.082-.01-2.684-.064-5.368-.1-8.052-1.383-.062-2.767-.142-4.145-.19-2.909-.1-5.824-.219-8.715-.529a8.706,8.706,0,0,0-5.279.754c-2.382,1.249-5.016.379-7.517.6-2.479.217-4.882,1.594-7.343,1.669-3.423.1-6.865-.581-10.306-.83-1.808-.131-3.661.149-5.438-.118-2.491-.374-5.048-.23-7.469-1.371a13.715,13.715,0,0,0-4.819-.794c-2.354-.16-4.721-.195-7.083-.186q-7.073.025-14.146.178a3.847,3.847,0,0,0-2.066.518c-3.832,2.758-7.956,1.775-11.947.805a33.847,33.847,0,0,0-16.185-.422,4.256,4.256,0,0,0-2.656,1.567c-1.617,3.261-4.418,3.058-7.023,2.324-3.646-1.028-7.168-2.408-11.05-2.313a6.466,6.466,0,0,1-2.04-.726c-5.485-1.968-10.865-2.328-16.468-.021a15.99,15.99,0,0,1-11.682.64,23.675,23.675,0,0,0-13.919-.865c-1.051.281-2.179.268-3.238.529A19.333,19.333,0,0,1,308.2,218.6c-3.255-1.374-5.984-.854-8.806.752-.947.54-1.9,1.076-2.884,1.546-2.676,1.278-5.3,1.967-8.356.827a12.743,12.743,0,0,0-7.008-.6,10.369,10.369,0,0,1-6.39-.9c-.955-.42-2.272-.995-3.055-.653-2.685,1.176-5.034.236-7.37-.737-3.9-1.624-8.036-1.8-12.132-2.252a2.484,2.484,0,0,0-.485.024c.2,4.118-.153,8.246,0,12.36.312,8.166-.513,16.323,0,24.486.241,3.8.471,7.617.483,11.426a51.489,51.489,0,0,1-.644,7.049c-.489,3.6-1.546,7.14-1.212,10.832.112,1.238.294,2.471.447,3.706.066.532.4,1.263.166,1.563-1.45,1.883-.841,4.231-1.537,6.235a41.374,41.374,0,0,0-2.3,14.517c.453-.064.911-.1,1.363-.172a21.63,21.63,0,0,1,8.66.466c1.592.388,3.206.684,4.8,1.084a13.839,13.839,0,0,0,10.9-1.561c1.319,1.238,2.719,1.959,4.516,1.511,3.062-.763,6.156-.442,9.248-.248,4.7.295,9.379,1.374,14.131.423a5.491,5.491,0,0,1,2.156.3c4.484,1.04,8.707.843,12.285-2.846,7.1,3.149,14.561,3.142,22.021,3.137,2.443,0,4.669-.181,6.127-2.67a4.45,4.45,0,0,1,2.765-1.492c2.458-.513,4.926-1.347,7.478-.034.634.326,1.734-.061,2.555-.323,5.076-1.62,9.735-.544,13.954,2.385a5.887,5.887,0,0,0,4.533,1.318,25.608,25.608,0,0,0,5.837-1.306,20.009,20.009,0,0,1,11.756-1.24,22.377,22.377,0,0,0,5.415.071c2.179-.161,4.342-.536,6.509-.84a41.79,41.79,0,0,1,19.823,1.883c2,.7,4.352.088,6.235,1.537.3.231,1.031-.1,1.563-.166,1.235-.153,2.467-.335,3.706-.447,3.692-.334,7.229.723,10.832,1.212a51.649,51.649,0,0,0,7.049.645c3.809-.013,7.622-.243,11.426-.484,8.163-.516,16.32.31,24.486,0,4.312-.165,8.639.218,12.952-.046a8.151,8.151,0,0,0-.6-1.557C501.972,306.339,500.57,303.645,500.246,300.818Z"/><path class="cls-3" d="M500.45,210.307c-2.759-3.833-1.776-7.957-.806-11.948a33.822,33.822,0,0,0,.422-16.185,4.251,4.251,0,0,0-1.567-2.655,4.613,4.613,0,0,1-2.689-5.3c-1.372.013-2.745.047-4.118.052-2.361.009-4.728-.026-7.082-.186a13.707,13.707,0,0,1-4.819-.794c-2.421-1.141-4.979-1-7.469-1.371-1.778-.267-3.631.013-5.438-.118-3.441-.249-6.883-.934-10.306-.83-2.461.075-4.864,1.452-7.344,1.669-2.5.218-5.135-.652-7.516.6a8.708,8.708,0,0,1-5.28.754c-2.89-.31-5.806-.428-8.714-.529a70.058,70.058,0,0,0-10.331-.091c-2.827.324-5.521,1.726-8.5,1.352-4.036,2.082-7.374.136-10.71-1.85a12.346,12.346,0,0,0-2.839-1.581,114.528,114.528,0,0,0-11.156-2.637c-1.972-.323-4.348-.818-5.532,2.016a4.022,4.022,0,0,1-2.717,1.645c-4.284.814-8.6,1.489-12.922,2.067a4.011,4.011,0,0,1-2.556-.755c-2.141-1.507-4.382-1.53-6.792-.955a6.51,6.51,0,0,1-2.709.145,9.6,9.6,0,0,0-5.282.752A19.1,19.1,0,0,1,336,174.5a35.5,35.5,0,0,0-10.333.035,26.221,26.221,0,0,1-9.193-.246,40.654,40.654,0,0,0-14.552-.685c-6.328.713-12.685.849-18.969-.64a4.214,4.214,0,0,0-2.646-.093c-3.282,1.836-6.826.261-10.2.951-1.276.26-2.827-.5-4.173-1a25.155,25.155,0,0,1-3.207-1.717c-4,1.323-7.829,2.3-11.885,1.736a18.787,18.787,0,0,1-.611,4.805,22.323,22.323,0,0,0-.386,10.292,16.88,16.88,0,0,1-.23,8.641c-.9,2.89.068,5.815.914,8.581.543,1.776,1.121,3.423.717,5.307a6.07,6.07,0,0,0,.077,2.174,35.828,35.828,0,0,1,.391,3.962,2.484,2.484,0,0,1,.485-.024c4.1.457,8.233.628,12.132,2.252,2.336.973,4.685,1.913,7.37.737.783-.342,2.1.233,3.055.653a10.369,10.369,0,0,0,6.39.9,12.743,12.743,0,0,1,7.008.6c3.056,1.14,5.68.451,8.356-.827.983-.47,1.937-1.006,2.884-1.546,2.822-1.606,5.551-2.126,8.806-.752a19.333,19.333,0,0,0,12.314,1.082c1.059-.261,2.187-.248,3.238-.529a23.675,23.675,0,0,1,13.919.865,15.99,15.99,0,0,0,11.682-.64c5.6-2.307,10.983-1.947,16.468.021a6.466,6.466,0,0,0,2.04.726c3.882-.095,7.4,1.285,11.05,2.313,2.605.734,5.406.937,7.023-2.324a4.256,4.256,0,0,1,2.656-1.567,33.847,33.847,0,0,1,16.185.422c3.991.97,8.115,1.953,11.947-.805a3.847,3.847,0,0,1,2.066-.518q7.073-.145,14.146-.178c2.362-.009,4.729.026,7.083.186a13.715,13.715,0,0,1,4.819.794c2.421,1.141,4.978,1,7.469,1.371,1.777.267,3.63-.013,5.438.118,3.441.249,6.883.934,10.306.83,2.461-.075,4.864-1.452,7.343-1.669,2.5-.218,5.135.652,7.517-.6a8.706,8.706,0,0,1,5.279-.754c2.891.31,5.806.428,8.715.529,1.378.048,2.762.128,4.145.19-.029-2.032-.035-4.063-.077-6.094A3.853,3.853,0,0,0,500.45,210.307Z"/><path class="cls-1" d="M582.6,248.851a.332.332,0,0,0-.38.094.161.161,0,0,1-.2.049.57.57,0,0,0-.453-.073.038.038,0,0,1-.031,0c-.218-.2-.518-.06-.757-.183-.045-.023-.124.012-.183.03-.111.035-.219.082-.33.115a1.438,1.438,0,0,1-.212.025l-.181.18a.44.44,0,0,1-.621.087.142.142,0,0,0-.119-.012.462.462,0,0,1-.337-.018.627.627,0,0,0-.438-.014.393.393,0,0,1-.245-.033.436.436,0,0,0-.338-.007.447.447,0,0,1-.506-.07.445.445,0,0,0-.239-.075.7.7,0,0,1-.478-.227c-.012-.013-.038-.012-.06-.019-.109.047-.128.162-.184.249a.2.2,0,0,1-.21.114,4.479,4.479,0,0,0-.954.032.262.262,0,0,1-.208-.044.56.56,0,0,0-.344-.13c-.171.069-.307.123-.443.176-.019.008-.051.024-.059.016-.145-.142-.3.011-.449-.016a.793.793,0,0,0-.22.021.18.18,0,0,0-.061.018c-.145.083-.268-.09-.4-.04a.475.475,0,0,1-.4-.007.579.579,0,0,0-.495-.018.425.425,0,0,1-.4-.035.45.45,0,0,0-.361-.062c-.157.027-.309.077-.457.115-.125-.018-.25-.031-.374-.056a1.534,1.534,0,0,0-.294-.076.305.305,0,0,1-.24-.1l-.3.213a.878.878,0,0,0-.5-.073.219.219,0,0,1-.173-.057.34.34,0,0,0-.351-.091.384.384,0,0,1-.111-.008c-.042-.073-.087-.153-.14-.247-.2.106-.437.066-.632.19a.173.173,0,0,1-.125.009c-.185-.05-.382.015-.565-.064a.2.2,0,0,0-.148.032,1.589,1.589,0,0,0-.186.15.413.413,0,0,1-.143-.01.352.352,0,0,0-.413.029c-.032.028-.1.019-.151.015s-.084-.037-.122-.032a.717.717,0,0,1-.543-.107.222.222,0,0,0-.211,0,.491.491,0,0,1-.361.079c-.263,0-.526-.033-.8-.052l-.164.109-.109-.17a.491.491,0,0,0-.11.027,1.214,1.214,0,0,1-.866.085.576.576,0,0,0-.125-.011.586.586,0,0,1-.471-.134.3.3,0,0,0-.089.024c-.136.08-.261.135-.395-.019a.238.238,0,0,0-.207-.042c-.147.052-.32.025-.434.153a2.725,2.725,0,0,0-.285-.081.564.564,0,0,0-.432.042.353.353,0,0,1-.339.03.776.776,0,0,0-.529,0,.4.4,0,0,1-.337-.019.406.406,0,0,0-.31-.019.46.46,0,0,1-.342-.008.192.192,0,0,0-.124-.01,4.073,4.073,0,0,1-1.46-.051.848.848,0,0,0-.562.015.235.235,0,0,1-.18-.025.333.333,0,0,0-.278-.026,3.877,3.877,0,0,1-.721.083c-.157.022-.316.033-.474.049-.021,0-.046.015-.063.009a.866.866,0,0,0-.28-.039c-.014-.069-.036-.138-.054-.2-.142-.066-.256.057-.392-.013-.1-.052-.248-.012-.374-.015a.231.231,0,0,1-.1-.012,1.361,1.361,0,0,0-.869-.021.29.29,0,0,1-.124-.007c-.163-.044-.327-.087-.487-.142a.581.581,0,0,0-.494.027.373.373,0,0,1-.305.018,5.345,5.345,0,0,0-.8-.209.315.315,0,0,0-.269.061.676.676,0,0,1-.512.129c-.4-.027-.8-.073-1.2-.126a1,1,0,0,0-.563.048.276.276,0,0,1-.3-.021,1.159,1.159,0,0,0-1.036-.1.744.744,0,0,1-.309.047.254.254,0,0,0-.126.009,1.224,1.224,0,0,1-.63.021,1.473,1.473,0,0,0-.654.01.224.224,0,0,1-.18-.036,2.011,2.011,0,0,0-.293-.107.112.112,0,0,0-.092.007.291.291,0,0,1-.356,0,.187.187,0,0,0-.061-.018c-.053-.006-.122-.034-.156-.011-.155.1-.328-.021-.489.057a.827.827,0,0,1-.737.04.288.288,0,0,0-.186,0,1.425,1.425,0,0,1-.722.019.217.217,0,0,0-.124,0,.886.886,0,0,1-.473.026,1.525,1.525,0,0,0-.191-.007,4.373,4.373,0,0,1-.444-.011,1.465,1.465,0,0,0-.693.046.185.185,0,0,1-.092.013,7.142,7.142,0,0,0-1.17-.016,6.352,6.352,0,0,1-1.177-.062,1.8,1.8,0,0,0-.539-.028,1.818,1.818,0,0,1-.5-.031,2.655,2.655,0,0,0-.695.01,1.225,1.225,0,0,1-.535-.02.727.727,0,0,0-.437.016.617.617,0,0,1-.212.043c-.476-.032-.951-.075-1.428-.107-.243-.017-.488-.022-.731-.021a.74.74,0,0,0-.28.056.361.361,0,0,1-.335,0c-.1-.052-.222-.075-.267-.2,0-.015-.034-.021-.063-.037a.381.381,0,0,0-.109.041.565.565,0,0,1-.506.129.835.835,0,0,0-.223,0,5.653,5.653,0,0,1-.7,0c-.082-.006-.166,0-.249,0a.432.432,0,0,1-.011.211c-.072.134.05.25-.019.391-.059.015-.122.038-.187.051a.736.736,0,0,1-.029.232c-.006.018.008.042.01.062.018.159.031.318.056.475a3.866,3.866,0,0,0,.092.719.332.332,0,0,1-.022.278.228.228,0,0,0-.022.181.848.848,0,0,1,.021.562,5.079,5.079,0,0,0-.049,1.194c.024-.006.048.011.073,0a.446.446,0,0,1,.507.064.437.437,0,0,0,.24.071.7.7,0,0,1,.481.221c.012.012.038.012.06.018.108-.048.125-.163.18-.251a.2.2,0,0,1,.208-.117,4.546,4.546,0,0,0,.954-.044.256.256,0,0,1,.209.041.559.559,0,0,0,.346.125l.439-.182c.02-.008.052-.025.06-.017.147.14.3-.015.45.01a.8.8,0,0,0,.219-.024.18.18,0,0,0,.061-.018c.143-.085.269.086.4.034a.475.475,0,0,1,.4,0,.587.587,0,0,0,.5.012.422.422,0,0,1,.4.029.457.457,0,0,0,.363.057c.156-.029.307-.081.456-.121.124.016.25.027.373.05a1.569,1.569,0,0,0,.295.073.309.309,0,0,1,.242.095l.3-.216a.874.874,0,0,0,.5.065.23.23,0,0,1,.174.055.34.34,0,0,0,.352.087.408.408,0,0,1,.111.006l.143.245c.2-.108.437-.071.63-.2a.172.172,0,0,1,.125-.011c.186.048.381-.02.566.056a.2.2,0,0,0,.147-.033,1.548,1.548,0,0,0,.184-.153.412.412,0,0,1,.143.009.353.353,0,0,0,.413-.036c.032-.027.1-.019.151-.017s.084.037.121.031a.724.724,0,0,1,.545.1.222.222,0,0,0,.211,0,.49.49,0,0,1,.36-.083c.263,0,.526.025.8.04l.163-.111.111.169a.441.441,0,0,0,.109-.029,1.208,1.208,0,0,1,.865-.1.519.519,0,0,0,.125.009.585.585,0,0,1,.473.128.347.347,0,0,0,.089-.025c.135-.082.259-.139.395.013a.231.231,0,0,0,.207.039c.146-.054.32-.029.432-.158a2.725,2.725,0,0,0,.286.076.56.56,0,0,0,.432-.047.351.351,0,0,1,.339-.034.775.775,0,0,0,.529,0,.4.4,0,0,1,.337.014.406.406,0,0,0,.31.015.46.46,0,0,1,.342,0,.184.184,0,0,0,.123.008,4.077,4.077,0,0,1,1.461.032.848.848,0,0,0,.562-.022.228.228,0,0,1,.181.022.336.336,0,0,0,.278.023,3.785,3.785,0,0,1,.719-.093c.157-.025.317-.038.475-.056.021,0,.044-.016.062-.01a.767.767,0,0,0,.232.03c.013.064.036.127.052.187.14.068.256-.054.391.018.1.054.248.016.374.02a.249.249,0,0,1,.1.013,1.358,1.358,0,0,0,.868.033.289.289,0,0,1,.124.009c.163.047.326.091.485.148a.583.583,0,0,0,.5-.02.368.368,0,0,1,.3-.013,5.484,5.484,0,0,0,.8.219.32.32,0,0,0,.27-.057.68.68,0,0,1,.514-.123c.4.032.8.084,1.2.142a1,1,0,0,0,.564-.04.276.276,0,0,1,.3.025,1.16,1.16,0,0,0,1.034.119.749.749,0,0,1,.31-.044.224.224,0,0,0,.126-.007,1.224,1.224,0,0,1,.63-.012,1.463,1.463,0,0,0,.655,0,.223.223,0,0,1,.179.04,2.087,2.087,0,0,0,.292.11.121.121,0,0,0,.092,0,.291.291,0,0,1,.356.006.161.161,0,0,0,.061.019c.052.007.121.036.155.013.157-.1.328.026.49-.051a.827.827,0,0,1,.737-.029.3.3,0,0,0,.186.006,1.425,1.425,0,0,1,.722-.008.23.23,0,0,0,.125,0,.875.875,0,0,1,.473-.02,1.509,1.509,0,0,0,.191.009,4.1,4.1,0,0,1,.444.018,1.477,1.477,0,0,0,.693-.037.185.185,0,0,1,.092-.013,6.928,6.928,0,0,0,1.17.032,6.263,6.263,0,0,1,1.176.079,1.8,1.8,0,0,0,.539.034,1.855,1.855,0,0,1,.5.038,2.609,2.609,0,0,0,.7,0,1.227,1.227,0,0,1,.535.028.734.734,0,0,0,.437-.011.613.613,0,0,1,.213-.04c.475.039.95.089,1.426.127.243.019.487.028.731.03a.718.718,0,0,0,.28-.052.364.364,0,0,1,.335,0c.1.054.221.079.265.208,0,.015.034.021.062.038a.366.366,0,0,0,.11-.04.568.568,0,0,1,.507-.122.833.833,0,0,0,.223,0,5.469,5.469,0,0,1,.7.008c.285.024.572.014.859.019a.84.84,0,0,1,.159.006,3.96,3.96,0,0,0,.985.034.388.388,0,0,1,.188.015.9.9,0,0,0,.5.067,1.731,1.731,0,0,1,.285.034,1.791,1.791,0,0,0,.537-.005c.048-.008.1,0,.145-.007.021-.025.048-.049.052-.076.02-.128.122-.232.1-.371a.16.16,0,0,1,.038-.092,2.076,2.076,0,0,0,.273-.658,1.5,1.5,0,0,1,.216-.5,1,1,0,0,0,.129-.32,1.389,1.389,0,0,1,.135-.363.716.716,0,0,0,.1-.353.365.365,0,0,1,.043-.195.235.235,0,0,0,.031-.1.3.3,0,0,1,.123-.226.153.153,0,0,0,.06-.08c.037-.159.07-.32.1-.481a.151.151,0,0,0-.022-.117c-.084-.079-.035-.156,0-.221a4.047,4.047,0,0,1,.24-.357.447.447,0,0,1,.093-.079,1.06,1.06,0,0,0,.123-.118A1.15,1.15,0,0,1,582.6,248.851Z"/><path class="cls-1" d="M608.6,248.851a.332.332,0,0,0-.38.094.161.161,0,0,1-.2.049.57.57,0,0,0-.453-.073.038.038,0,0,1-.031,0c-.218-.2-.518-.06-.757-.183-.045-.023-.124.012-.183.03-.111.035-.219.082-.33.115a1.438,1.438,0,0,1-.212.025l-.181.18a.44.44,0,0,1-.621.087.142.142,0,0,0-.119-.012.462.462,0,0,1-.337-.018.627.627,0,0,0-.438-.014.393.393,0,0,1-.245-.033.436.436,0,0,0-.338-.007.447.447,0,0,1-.506-.07.445.445,0,0,0-.239-.075.7.7,0,0,1-.478-.227c-.012-.013-.038-.012-.06-.019-.109.047-.128.162-.184.249a.2.2,0,0,1-.21.114,4.479,4.479,0,0,0-.954.032.262.262,0,0,1-.208-.044.56.56,0,0,0-.344-.13c-.171.069-.307.123-.443.176-.019.008-.051.024-.059.016-.145-.142-.3.011-.449-.016a.793.793,0,0,0-.22.021.18.18,0,0,0-.061.018c-.145.083-.268-.09-.4-.04a.475.475,0,0,1-.4-.007.579.579,0,0,0-.495-.018.425.425,0,0,1-.4-.035.45.45,0,0,0-.361-.062c-.157.027-.309.077-.457.115-.125-.018-.25-.031-.374-.056a1.534,1.534,0,0,0-.294-.076.305.305,0,0,1-.24-.1l-.3.213a.878.878,0,0,0-.5-.073.219.219,0,0,1-.173-.057.34.34,0,0,0-.351-.091.384.384,0,0,1-.111-.008c-.042-.073-.087-.153-.14-.247-.2.106-.437.066-.632.19a.173.173,0,0,1-.125.009c-.185-.05-.382.015-.565-.064a.2.2,0,0,0-.148.032,1.589,1.589,0,0,0-.186.15.413.413,0,0,1-.143-.01.352.352,0,0,0-.413.029c-.032.028-.1.019-.151.015s-.084-.037-.122-.032a.717.717,0,0,1-.543-.107.222.222,0,0,0-.211,0,.491.491,0,0,1-.361.079c-.263,0-.526-.033-.8-.052l-.164.109-.109-.17a.491.491,0,0,0-.11.027,1.214,1.214,0,0,1-.866.085.576.576,0,0,0-.125-.011.586.586,0,0,1-.471-.134.3.3,0,0,0-.089.024c-.136.08-.261.135-.395-.019a.238.238,0,0,0-.207-.042c-.147.052-.32.025-.434.153a2.725,2.725,0,0,0-.285-.081.564.564,0,0,0-.432.042.353.353,0,0,1-.339.03.776.776,0,0,0-.529,0,.4.4,0,0,1-.337-.019.406.406,0,0,0-.31-.019.46.46,0,0,1-.342-.008.192.192,0,0,0-.124-.01,4.073,4.073,0,0,1-1.46-.051.848.848,0,0,0-.562.015.235.235,0,0,1-.18-.025.333.333,0,0,0-.278-.026,3.877,3.877,0,0,1-.721.083c-.157.022-.316.033-.474.049-.021,0-.046.015-.063.009a.866.866,0,0,0-.28-.039c-.014-.069-.036-.138-.054-.2-.142-.066-.256.057-.392-.013-.1-.052-.248-.012-.374-.015a.231.231,0,0,1-.1-.012,1.361,1.361,0,0,0-.869-.021.29.29,0,0,1-.124-.007c-.163-.044-.327-.087-.487-.142a.581.581,0,0,0-.494.027.373.373,0,0,1-.305.018,5.345,5.345,0,0,0-.8-.209.315.315,0,0,0-.269.061.676.676,0,0,1-.512.129c-.4-.027-.8-.073-1.2-.126a1,1,0,0,0-.563.048.276.276,0,0,1-.3-.021,1.159,1.159,0,0,0-1.036-.1.744.744,0,0,1-.309.047.254.254,0,0,0-.126.009,1.224,1.224,0,0,1-.63.021,1.473,1.473,0,0,0-.654.01.224.224,0,0,1-.18-.036,2.011,2.011,0,0,0-.293-.107.112.112,0,0,0-.092.007.291.291,0,0,1-.356,0,.187.187,0,0,0-.061-.018c-.053-.006-.122-.034-.156-.011-.155.1-.328-.021-.489.057a.827.827,0,0,1-.737.04.288.288,0,0,0-.186,0,1.425,1.425,0,0,1-.722.019.217.217,0,0,0-.124,0,.886.886,0,0,1-.473.026,1.525,1.525,0,0,0-.191-.007,4.373,4.373,0,0,1-.444-.011,1.465,1.465,0,0,0-.693.046.185.185,0,0,1-.092.013,7.142,7.142,0,0,0-1.17-.016,6.352,6.352,0,0,1-1.177-.062,1.8,1.8,0,0,0-.539-.028,1.818,1.818,0,0,1-.5-.031,2.655,2.655,0,0,0-.695.01,1.225,1.225,0,0,1-.535-.02.727.727,0,0,0-.437.016.617.617,0,0,1-.212.043c-.476-.032-.951-.075-1.428-.107-.243-.017-.488-.022-.731-.021a.74.74,0,0,0-.28.056.361.361,0,0,1-.335,0c-.1-.052-.222-.075-.267-.2,0-.015-.034-.021-.063-.037a.381.381,0,0,0-.109.041.565.565,0,0,1-.506.129.835.835,0,0,0-.223,0,5.653,5.653,0,0,1-.7,0c-.082-.006-.166,0-.249,0a.432.432,0,0,1-.011.211c-.072.134.05.25-.019.391-.059.015-.122.038-.187.051a.736.736,0,0,1-.029.232c-.006.018.008.042.01.062.018.159.031.318.056.475a3.866,3.866,0,0,0,.092.719.332.332,0,0,1-.022.278.228.228,0,0,0-.022.181.848.848,0,0,1,.021.562,5.079,5.079,0,0,0-.049,1.194c.024-.006.048.011.073,0a.446.446,0,0,1,.507.064.437.437,0,0,0,.24.071.7.7,0,0,1,.481.221c.012.012.038.012.06.018.108-.048.125-.163.18-.251a.2.2,0,0,1,.208-.117,4.546,4.546,0,0,0,.954-.044.256.256,0,0,1,.209.041.559.559,0,0,0,.346.125l.439-.182c.02-.008.052-.025.06-.017.147.14.3-.015.45.01a.8.8,0,0,0,.219-.024.18.18,0,0,0,.061-.018c.143-.085.269.086.4.034a.475.475,0,0,1,.4,0,.587.587,0,0,0,.5.012.422.422,0,0,1,.4.029.457.457,0,0,0,.363.057c.156-.029.307-.081.456-.121.124.016.25.027.373.05a1.569,1.569,0,0,0,.295.073.309.309,0,0,1,.242.095l.3-.216a.874.874,0,0,0,.5.065.23.23,0,0,1,.174.055.34.34,0,0,0,.352.087.408.408,0,0,1,.111.006l.143.245c.2-.108.437-.071.63-.2a.172.172,0,0,1,.125-.011c.186.048.381-.02.566.056a.2.2,0,0,0,.147-.033,1.548,1.548,0,0,0,.184-.153.412.412,0,0,1,.143.009.353.353,0,0,0,.413-.036c.032-.027.1-.019.151-.017s.084.037.121.031a.724.724,0,0,1,.545.1.222.222,0,0,0,.211,0,.49.49,0,0,1,.36-.083c.263,0,.526.025.8.04l.163-.111.111.169a.441.441,0,0,0,.109-.029,1.208,1.208,0,0,1,.865-.1.519.519,0,0,0,.125.009.585.585,0,0,1,.473.128.347.347,0,0,0,.089-.025c.135-.082.259-.139.395.013a.231.231,0,0,0,.207.039c.146-.054.32-.029.432-.158a2.725,2.725,0,0,0,.286.076.56.56,0,0,0,.432-.047.351.351,0,0,1,.339-.034.775.775,0,0,0,.529,0,.4.4,0,0,1,.337.014.406.406,0,0,0,.31.015.46.46,0,0,1,.342,0,.184.184,0,0,0,.123.008,4.077,4.077,0,0,1,1.461.032.848.848,0,0,0,.562-.022.228.228,0,0,1,.181.022.336.336,0,0,0,.278.023,3.785,3.785,0,0,1,.719-.093c.157-.025.317-.038.475-.056.021,0,.044-.016.062-.01a.767.767,0,0,0,.232.03c.013.064.036.127.052.187.14.068.256-.054.391.018.1.054.248.016.374.02a.249.249,0,0,1,.1.013,1.358,1.358,0,0,0,.868.033.289.289,0,0,1,.124.009c.163.047.326.091.485.148a.583.583,0,0,0,.5-.02.368.368,0,0,1,.3-.013,5.484,5.484,0,0,0,.8.219.32.32,0,0,0,.27-.057.68.68,0,0,1,.514-.123c.4.032.8.084,1.2.142a1,1,0,0,0,.564-.04.276.276,0,0,1,.3.025,1.16,1.16,0,0,0,1.034.119.749.749,0,0,1,.31-.044.224.224,0,0,0,.126-.007,1.224,1.224,0,0,1,.63-.012,1.463,1.463,0,0,0,.655,0,.223.223,0,0,1,.179.04,2.087,2.087,0,0,0,.292.11.121.121,0,0,0,.092,0,.291.291,0,0,1,.356.006.161.161,0,0,0,.061.019c.052.007.121.036.155.013.157-.1.328.026.49-.051a.827.827,0,0,1,.737-.029.3.3,0,0,0,.186.006,1.425,1.425,0,0,1,.722-.008.23.23,0,0,0,.125,0,.875.875,0,0,1,.473-.02,1.509,1.509,0,0,0,.191.009,4.1,4.1,0,0,1,.444.018,1.477,1.477,0,0,0,.693-.037.185.185,0,0,1,.092-.013,6.928,6.928,0,0,0,1.17.032,6.263,6.263,0,0,1,1.176.079,1.8,1.8,0,0,0,.539.034,1.855,1.855,0,0,1,.5.038,2.609,2.609,0,0,0,.7,0,1.227,1.227,0,0,1,.535.028.734.734,0,0,0,.437-.011.613.613,0,0,1,.213-.04c.475.039.95.089,1.426.127.243.019.487.028.731.03a.718.718,0,0,0,.28-.052.364.364,0,0,1,.335,0c.1.054.221.079.265.208,0,.015.034.021.062.038a.366.366,0,0,0,.11-.04.568.568,0,0,1,.507-.122.833.833,0,0,0,.223,0,5.469,5.469,0,0,1,.7.008c.285.024.572.014.859.019a.84.84,0,0,1,.159.006,3.96,3.96,0,0,0,.985.034.388.388,0,0,1,.188.015.9.9,0,0,0,.5.067,1.731,1.731,0,0,1,.285.034,1.791,1.791,0,0,0,.537-.005c.048-.008.1,0,.145-.007.021-.025.048-.049.052-.076.02-.128.122-.232.1-.371a.16.16,0,0,1,.038-.092,2.076,2.076,0,0,0,.273-.658,1.5,1.5,0,0,1,.216-.5,1,1,0,0,0,.129-.32,1.389,1.389,0,0,1,.135-.363.716.716,0,0,0,.1-.353.365.365,0,0,1,.043-.195.235.235,0,0,0,.031-.1.3.3,0,0,1,.123-.226.153.153,0,0,0,.06-.08c.037-.159.07-.32.1-.481a.151.151,0,0,0-.022-.117c-.084-.079-.035-.156,0-.221a4.047,4.047,0,0,1,.24-.357.447.447,0,0,1,.093-.079,1.06,1.06,0,0,0,.123-.118A1.15,1.15,0,0,1,608.6,248.851Z"/><path class="cls-1" d="M549.668,241.755a9.852,9.852,0,0,0,3.05-1.792,5.067,5.067,0,0,1,1.368-.715,25.786,25.786,0,0,0,3.319-1.771,41.645,41.645,0,0,1,4.457-2.611,1.527,1.527,0,0,1-.237-.349,9.968,9.968,0,0,0-2.4-3.172c-.246-.223-.518-.695-.44-.952.011-.038,0-.07.01-.107l-.083.029c-.764.231-1.538.436-2.327.606a4.17,4.17,0,0,0-2.459,1.389c-.331.4-.729.74-1.092,1.113a15.283,15.283,0,0,1-6.393,4.279,9.576,9.576,0,0,0-1.557.83c-1.82.968-3.61,2.011-5.768,2.023a10.253,10.253,0,0,0-1.15.135,8.713,8.713,0,0,0-.394,1.046,12.924,12.924,0,0,0-.19,1.283,15.777,15.777,0,0,1-1.388.836c-1.541.731-3.088,1.456-4.654,2.129-.74.317-1.541.485-2.3.77a5.241,5.241,0,0,0-1.344.69c-.786.6-1.55,1.23-2.318,1.854a2.683,2.683,0,0,0,1.09,0,9.856,9.856,0,0,1,3.537-.069,64.994,64.994,0,0,0,7.465-.04c.732-.4,1.411-.9,2.107-1.373A80.468,80.468,0,0,1,549.668,241.755Z"/><path class="cls-1" d="M536.037,249.142a11.957,11.957,0,0,0-2.906-.221c-.78.391-1.564.775-2.343,1.168-.173-.276-.337-.559-.5-.841-.642.137-1.282.3-1.92.492-.1.029-.2.059-.3.086a1.156,1.156,0,0,1-.365.62c.012.083.026.165.039.248.611.432,1.212.882,1.794,1.365a4.163,4.163,0,0,0,2.61,1.078c.517.016,1.032.116,1.549.172a15.286,15.286,0,0,1,7.313,2.389,9.406,9.406,0,0,0,1.614.712c1.885.836,3.811,1.6,5.152,3.291a10.3,10.3,0,0,0,.816.822,8.966,8.966,0,0,0,1.066-.336c.393-.18.755-.427,1.127-.643.55.207,1.055.346,1.515.576,1.526.762,3.05,1.531,4.547,2.349.706.386,1.333.913,2.023,1.331a5.236,5.236,0,0,0,1.373.632c1.43.369,2.884.646,4.315,1.015a5.492,5.492,0,0,1,1.507.621c.059-.1.1-.207.165-.305a.524.524,0,0,0,.091-.2,20.709,20.709,0,0,1,1.4-4.307c-1.532-.718-3.046-1.479-4.605-2.13-1.691-.706-3.144-1.965-5.061-2.16a2.05,2.05,0,0,1-1.006-.455,10.984,10.984,0,0,0-3.847-1.655,80.6,80.6,0,0,1-10.992-4.193,9.851,9.851,0,0,0-3.292-1.294,1.623,1.623,0,0,1-.472-.169l-.644-.017A9.67,9.67,0,0,1,536.037,249.142Z"/><path class="cls-1" d="M250.816,74.082a1.479,1.479,0,0,0-.025-.807,8.032,8.032,0,0,1-.038-3.063,58.642,58.642,0,0,0,.251-8.6,7.216,7.216,0,0,1,.051-2.587,3.749,3.749,0,0,0-.035-1.128,19.221,19.221,0,0,1-.06-2.732.4.4,0,0,0,.613-.026,1.209,1.209,0,0,1,.346-.234c-.018.081-.025.163-.047.244a.387.387,0,0,0,0,.162c.015.084.015.168.026.252a4.07,4.07,0,0,1,1.192,0c.762.11,1.52.247,2.279.375-.062.223-.128.444-.194.665a11.181,11.181,0,0,0-.437,5.61,7,7,0,0,1,.029,1.29,9.122,9.122,0,0,0,.777,4.4,7.787,7.787,0,0,1,.325.781,6.378,6.378,0,0,1-.526.626c-.231.215-.5.39-.749.581a11.61,11.61,0,0,0-.037,1.184c.087,1.244.179,2.489.311,3.73.063.585.243,1.156.331,1.739a3.872,3.872,0,0,1,.043,1.1c-.116.814-.265,1.624-.4,2.435a.724.724,0,0,1,.145.252.6.6,0,0,0,.155.317A.545.545,0,0,1,255.3,81c.012.074.024.149.037.225a.522.522,0,0,0,.033.157,3.754,3.754,0,0,1,.24.379c.054.128.06.278.169.379a.87.87,0,0,1,.224.425,1.105,1.105,0,0,0,.383.577.882.882,0,0,1,.332.463,1.071,1.071,0,0,0,.507.685.288.288,0,0,1,.155.232c.031.265.246.394.409.557.033.033.1.026.13.032.173.2.329.392.491.575a.4.4,0,0,0,.131.095.6.6,0,0,1,.363.3l0,0a.076.076,0,0,0,.046.042c.224.05.289.236.354.42a1.236,1.236,0,0,0,.677.2.3.3,0,0,1,.155.034c.038.019.073,0,.108-.005.431.478.871.95,1.292,1.435a7.136,7.136,0,0,1,1.712,2.584,1.746,1.746,0,0,0,.662.9,1.136,1.136,0,0,1,.188.628c.241.109.459.208.68.306a1.675,1.675,0,0,1,.863.682,1.718,1.718,0,0,0,1.22.732,2.258,2.258,0,0,1,1.086.5,3.077,3.077,0,0,0,.5.267c.117.066.269.124.327.227a3.259,3.259,0,0,0,.916.9.653.653,0,0,1,.223.321,1.122,1.122,0,0,0,.664.763,2.667,2.667,0,0,1,.639.481,5.17,5.17,0,0,0,1.229.906,8.236,8.236,0,0,1,1.163.858c.149.115.282.251.426.371.64.535,1.287,1.063,1.92,1.606a1.647,1.647,0,0,0,.762.432,1.227,1.227,0,0,1,.433.192,2.305,2.305,0,0,0,1.59.469c.258-.027.535.134.791.1a2.176,2.176,0,0,1,1.484.49c.381.247.812.411,1.183.692.741-.1,1.481-.225,2.224-.32a2.564,2.564,0,0,1,.8.077c1.485.3,3.022,0,4.5.4a.386.386,0,0,0,.162,0,21.586,21.586,0,0,1,3.4-.032c.7-.019,1.4-.075,2.1-.117a11.5,11.5,0,0,1,1.621-.092,20.916,20.916,0,0,1,3.886.274,2.676,2.676,0,0,0,.807-.015c1.115-.057,2.228-.137,3.343-.172.187-.005.373-.019.559-.022,1.34-.015,2.67-.47,4.023-.077.011,0,.025,0,.036,0-.012.158-.014.317-.02.475l.011,0a.6.6,0,0,1,.407-.066l.246.024a.549.549,0,0,0,.175.008,4.261,4.261,0,0,1,.463-.145,1.02,1.02,0,0,0,.445-.072.958.958,0,0,1,.507-.116,1.2,1.2,0,0,0,.711-.24.959.959,0,0,1,.578-.22,1.157,1.157,0,0,0,.859-.339.315.315,0,0,1,.288-.1c.285.042.48-.148.7-.274.043-.025.056-.1.07-.126.26-.125.5-.236.74-.355a.425.425,0,0,0,.135-.111.653.653,0,0,1,.412-.3l0,0a.083.083,0,0,0,.057-.036c.115-.221.329-.237.54-.254a1.345,1.345,0,0,0,.394-.653.312.312,0,0,1,.079-.154c.03-.035.017-.077.025-.115.621-.319,1.237-.648,1.864-.953a7.73,7.73,0,0,1,3.184-1.075,1.891,1.891,0,0,0,1.127-.442,1.237,1.237,0,0,1,.711-.022c.18-.222.346-.424.509-.627a1.82,1.82,0,0,1,.955-.715,1.859,1.859,0,0,0,1.108-1.074,2.432,2.432,0,0,1,.822-1,3.357,3.357,0,0,0,.417-.448c.1-.1.206-.248.331-.28a3.551,3.551,0,0,0,1.2-.71.7.7,0,0,1,.4-.144,1.213,1.213,0,0,0,.985-.483,2.9,2.9,0,0,1,.682-.535,5.633,5.633,0,0,0,1.292-1.035,8.807,8.807,0,0,1,1.224-.98c.162-.124.341-.226.508-.343.738-.521,1.471-1.053,2.217-1.564a1.785,1.785,0,0,0,.665-.679,1.33,1.33,0,0,1,.322-.4,2.5,2.5,0,0,0,.934-1.536c.045-.278.29-.523.33-.8a2.363,2.363,0,0,1,.926-1.418,13.955,13.955,0,0,1,1.121-1.107,1.58,1.58,0,0,0,.467-.627,2.186,2.186,0,0,1,.434-.628c-.046-.871-.09-1.741-.092-2.611,0-1.339-.445-2.673-.039-4.023a1.5,1.5,0,0,0-.025-.807,8.032,8.032,0,0,1-.039-3.063c.092-1.046.164-2.093.222-3.14-.294.535-.656,1.031-1,1.541a58.776,58.776,0,0,0-4.432,7.374,7.209,7.209,0,0,1-1.311,2.23,3.721,3.721,0,0,0-.522,1,18.927,18.927,0,0,1-1.3,2.426,30.608,30.608,0,0,0-1.91,3.26,1.1,1.1,0,0,0-.255-.174,7.275,7.275,0,0,1-2.319-1.751c-.164-.181-.509-.379-.7-.323a.711.711,0,0,1-.078.008c.006-.021.014-.04.021-.061.169-.558.319-1.125.443-1.7a3.054,3.054,0,0,1,1.016-1.8c.29-.242.541-.532.814-.8a11.169,11.169,0,0,0,3.129-4.675,7.022,7.022,0,0,1,.607-1.139,9.111,9.111,0,0,0,1.479-4.218,7.556,7.556,0,0,1,.1-.841,6.438,6.438,0,0,1,.765-.288c.307-.074.627-.1.939-.139.223-.367.45-.675.611-1.015.534-1.127,1.064-2.258,1.556-3.4.232-.541.355-1.127.563-1.679a3.89,3.89,0,0,1,.5-.983c.44-.575.9-1.133,1.356-1.7.225-.277.452-.553.669-.837a4,4,0,0,0,.586-1.037c.079.031.152.073.234.1a.49.49,0,0,1,.113.06l.132.149.038-.015c.079.072.162.139.245.207a7.769,7.769,0,0,1,1.98-.432.98.98,0,0,0,.192-.035.84.84,0,0,0,.453-.267l.181.028c.317.447.646.887,1,1.312a3.05,3.05,0,0,1,.788,1.909c.012.378.085.755.126,1.133a11.169,11.169,0,0,0,1.747,5.348,6.923,6.923,0,0,1,.521,1.18,9.127,9.127,0,0,0,2.406,3.767,7.641,7.641,0,0,1,.6.6,6.387,6.387,0,0,1-.246.78c-.131.288-.311.552-.469.824a11.623,11.623,0,0,0,.421,1.108c.557,1.116,1.119,2.231,1.717,3.325.283.516.668.975.974,1.479a3.85,3.85,0,0,1,.462,1c.27,1.047.473,2.11.742,3.156a4.03,4.03,0,0,0,.454,1.1c-.073.043-.151.075-.223.121a.391.391,0,0,1-.147.067,15.08,15.08,0,0,0-3.15,1.023c-.525-1.12-1.081-2.227-1.558-3.367-.516-1.237-1.436-2.3-1.58-3.7a1.5,1.5,0,0,0-.332-.736,8.048,8.048,0,0,1-1.211-2.813,58.658,58.658,0,0,0-3.066-8.039,7.219,7.219,0,0,1-.946-2.407,1.156,1.156,0,0,0-.124-.345,8.148,8.148,0,0,0,.765,3.931,7.554,7.554,0,0,1,.326.781,6.52,6.52,0,0,1-.526.626c-.232.215-.5.39-.75.581-.015.43-.062.809-.036,1.184.086,1.244.178,2.489.31,3.73.063.585.244,1.156.332,1.739a3.836,3.836,0,0,1,.042,1.1c-.153,1.069-.373,2.129-.526,3.2a4.07,4.07,0,0,0,0,1.192c-.084.011-.168.011-.252.026a.37.37,0,0,1-.162,0c-.081-.021-.163-.029-.243-.046a1.184,1.184,0,0,0,.233.346.424.424,0,0,1-.216.748c-.05.014-.075.051-.122.066a2.06,2.06,0,0,0-1.259,1.176,1.562,1.562,0,0,1-.466.627,13.957,13.957,0,0,0-1.121,1.107,2.366,2.366,0,0,0-.926,1.418c-.041.277-.285.522-.33.8a2.516,2.516,0,0,1-.934,1.536,1.308,1.308,0,0,0-.322.4,1.79,1.79,0,0,1-.666.68c-.746.511-1.478,1.042-2.217,1.563-.166.117-.346.219-.508.344a8.791,8.791,0,0,0-1.223.979,5.628,5.628,0,0,1-1.292,1.035,2.9,2.9,0,0,0-.682.535,1.215,1.215,0,0,1-.985.484.7.7,0,0,0-.4.144,3.539,3.539,0,0,1-1.195.709c-.125.032-.228.176-.33.28a3.493,3.493,0,0,1-.417.448,2.441,2.441,0,0,0-.823,1,1.856,1.856,0,0,1-1.107,1.075,1.815,1.815,0,0,0-.955.714c-.164.2-.329.405-.51.627a1.225,1.225,0,0,0-.71.023,1.906,1.906,0,0,1-1.127.442,7.738,7.738,0,0,0-3.184,1.074c-.627.306-1.243.635-1.864.954-.009.037,0,.079-.026.115a.307.307,0,0,0-.078.153,1.34,1.34,0,0,1-.395.653c-.21.018-.424.033-.539.254a.088.088,0,0,1-.057.037l0,0a.648.648,0,0,0-.412.3.433.433,0,0,1-.135.11c-.239.119-.48.23-.74.355-.015.027-.027.1-.071.127-.216.126-.411.315-.7.273a.318.318,0,0,0-.287.1,1.16,1.16,0,0,1-.859.34.849.849,0,0,0-.478.161,1,1,0,0,1-.15-.683.906.906,0,0,0,.147.685c-.032.02-.067.035-.1.056a1.193,1.193,0,0,1-.711.241.945.945,0,0,0-.508.116,1.033,1.033,0,0,1-.444.072,3.876,3.876,0,0,0-.464.145.55.55,0,0,1-.175-.009c-.082-.008-.164-.015-.245-.024a.6.6,0,0,0-.407.067.637.637,0,0,1-.374.074.964.964,0,0,0-.435.118,1.624,1.624,0,0,1-1.088.728c-.014.034-.041.052-.048.093a.17.17,0,0,1-.3.092.82.82,0,0,0-.72-.188.642.642,0,0,1-.312-.018,2.855,2.855,0,0,0-.51-.112c-.2.046-.4.094-.6.127a3.862,3.862,0,0,1-1.1.053c-.371-.049-.74-.112-1.109-.171-.7-.114-1.395-.231-2.095-.325a3.933,3.933,0,0,0-1.3.019c-.284.058-.522.326-.787.492a1.788,1.788,0,0,1-.28.116l-.771-.875c-1.049.287-2.128.2-3.186.468a5.478,5.478,0,0,1-2.562.137,10.372,10.372,0,0,0-2.692-.068c-.375,0-.75.131-1.125.133a4.108,4.108,0,0,0-2.372.336.789.789,0,0,1-.476.05c-.805-.1-1.611-.2-2.411-.337-.762-.127-1.522-.264-2.282-.4a.39.39,0,0,1-.71-.025c-.023-.041-.062-.055-.087-.093-.007-.011-.019-.016-.026-.026a1.9,1.9,0,0,0-1.321-.817,1.437,1.437,0,0,1-.669-.268,12.816,12.816,0,0,0-1.253-.736,2.171,2.171,0,0,0-1.483-.489c-.256.03-.533-.131-.791-.1a2.314,2.314,0,0,1-1.591-.468,1.214,1.214,0,0,0-.432-.192,1.648,1.648,0,0,1-.763-.433c-.071-.062-.146-.12-.218-.183-.563-.478-1.134-.948-1.7-1.422-.144-.121-.277-.256-.427-.371a8.1,8.1,0,0,0-1.162-.858,5.208,5.208,0,0,1-1.229-.907,2.69,2.69,0,0,0-.639-.48,1.125,1.125,0,0,1-.665-.764.643.643,0,0,0-.222-.32,3.273,3.273,0,0,1-.916-.9c-.058-.1-.21-.161-.327-.229a3.042,3.042,0,0,1-.5-.265,2.241,2.241,0,0,0-1.085-.5,1.721,1.721,0,0,1-1.221-.733,1.667,1.667,0,0,0-.863-.682c-.22-.1-.438-.2-.679-.305a1.142,1.142,0,0,0-.189-.629,1.748,1.748,0,0,1-.661-.9,7.122,7.122,0,0,0-1.713-2.583c-.421-.487-.86-.957-1.291-1.436-.036,0-.07.024-.109,0a.281.281,0,0,0-.155-.033,1.249,1.249,0,0,1-.676-.2c-.065-.184-.13-.371-.354-.421a.073.073,0,0,1-.046-.042l0,0a.605.605,0,0,0-.363-.3.412.412,0,0,1-.131-.095c-.162-.184-.319-.373-.491-.576-.027-.006-.1,0-.13-.032-.164-.163-.378-.292-.409-.556a.291.291,0,0,0-.155-.232,1.076,1.076,0,0,1-.507-.685.782.782,0,0,0-.256-.388.926.926,0,0,1,.573-.3.838.838,0,0,0-.576.294c-.026-.025-.047-.052-.074-.074a1.1,1.1,0,0,1-.382-.576.865.865,0,0,0-.224-.425c-.109-.1-.115-.251-.17-.379a3.635,3.635,0,0,0-.239-.379.505.505,0,0,1-.033-.158c-.013-.076-.025-.15-.037-.225a.55.55,0,0,0-.156-.346.6.6,0,0,1-.155-.316.882.882,0,0,0-.207-.36,1.5,1.5,0,0,1-.909-.8c-.028,0-.05-.016-.079-.019-.206,0-.412-.007-.618-.017-.05-1.1-.118-2.207-.136-3.311a.473.473,0,0,0-.03-.183.655.655,0,0,1-.023-.351l.021-.187A10.632,10.632,0,0,1,250.816,74.082Z"/><path class="cls-1" d="M57.258,39.27v3.12H38.693V39.27h5.578V20.939h3.12l-.078,4.135,9.516-4.642.039,3.471L47.78,28.31V39.27Z"/><path class="cls-1" d="M67.2,31.7c0,5.461,2.3,7.918,6.825,7.918a14.062,14.062,0,0,0,7.1-1.833l.936,2.925a15.9,15.9,0,0,1-8.113,2.067c-6.357,0-10.3-3.588-10.3-10.881s4.485-11.35,10.1-11.35c6.4,0,9.244,3.978,8.386,10.921H67.2Zm.273-3.041h11.31c-.078-3.588-1.755-5.071-5.264-5.071C70.127,23.591,68.177,25.424,67.475,28.662Z"/><path class="cls-1" d="M89,31.9c0-7.762,4.719-11.35,10.686-11.35a16.549,16.549,0,0,1,7.8,1.755l-1.013,3.159a14.06,14.06,0,0,0-7.1-1.755c-4.134,0-6.786,2.457-6.786,8,0,5.461,2.105,7.918,6.786,7.918a13.353,13.353,0,0,0,7.1-1.989l.935,3.081A15.893,15.893,0,0,1,99.3,42.78C92.747,42.78,89,39.192,89,31.9Z"/><path class="cls-1" d="M133,41.1a15.809,15.809,0,0,1-7.371,1.677c-5.85,0-6.9-3.2-6.826-7.8l.234-10.921h-5.265v-3.12h5.3l.118-5.07h3.627l-.664,5.07h10.063v3.12H122.62l-.233,10.531c-.078,2.73.272,5.031,3.353,5.031a13.981,13.981,0,0,0,6.319-1.443Z"/><path class="cls-1" d="M159.319,15.869,155.81,42.39h-5.071l-1.131-7.41-.468-5.851h-.312l-.468,5.851-1.13,7.41h-5.071l-3.51-26.521h3.2l1.716,13.65.936,9.751h.468l.858-7.371.9-5.89h4.524l.9,5.89L153,39.27h.469l.935-9.751,1.716-13.65Z"/><path class="cls-1" d="M184.006,39.27v3.12H165.441V39.27h7.917V24.059h-7.917v-3.12h11.428V39.27ZM171.214,13.919a3.51,3.51,0,1,1,3.51,3.51A3.5,3.5,0,0,1,171.214,13.919Z"/><path class="cls-1" d="M208.264,10.409V42.39h-3.042v-2.3a10.332,10.332,0,0,1-7.138,2.73c-5.3-.039-8.151-3.744-8.151-10.335,0-8.581,4.252-11.935,10.647-11.935a26.051,26.051,0,0,1,4.174.312V10.409Zm-3.51,27.223V24.254a16.351,16.351,0,0,0-4.446-.546c-4.72,0-6.826,2.808-6.826,8.386,0,4.875,1.716,7.527,5.032,7.566A10.48,10.48,0,0,0,204.754,37.632Z"/><path class="cls-1" d="M234.394,41.1a15.812,15.812,0,0,1-7.371,1.677c-5.851,0-6.9-3.2-6.827-7.8l.235-10.921h-5.266v-3.12h5.305l.117-5.07h3.627l-.663,5.07h10.062v3.12h-9.594l-.234,10.531c-.078,2.73.273,5.031,3.354,5.031a13.974,13.974,0,0,0,6.318-1.443Z"/><path class="cls-1" d="M259.041,27.608V42.39H255.53V28.116c0-3.16-1.287-4.447-3.9-4.447a10.739,10.739,0,0,0-6.24,2.029V42.39H241.88V10.409h3.511v9.36l-.313,3.354a10.571,10.571,0,0,1,6.982-2.613C257.013,20.51,259.041,23.045,259.041,27.608Z"/><path class="cls-1" d="M291.331,22.889h19.5v3.159h-19.5Zm0,9.36h19.5v3.16h-19.5Z"/><path class="cls-2" d="M360.972,191.836a157.148,157.148,0,0,0-6.24,19.111l-4.641-1.014A124.4,124.4,0,0,1,355.9,190.51Zm1.171-3.627-4.681-1.365a81.128,81.128,0,0,1,3.7-9.165l4.8,1.443C365.067,180.955,363.858,183.724,362.143,188.209Z"/><path class="cls-2" d="M383.008,193.514a64.189,64.189,0,0,0-6.318,18.564l-4.836-.819a86.82,86.82,0,0,1,4.133-14.313,106.1,106.1,0,0,0-9.4,8.151c-.507,2.028-1.014,3.822-1.482,5.538l-4.68-1.17c1.443-5.148,3.276-10.569,5.07-18.526l4.992,1.014a61.1,61.1,0,0,1-2.145,7.645,105.625,105.625,0,0,1,10.18-8.62Z"/><path class="cls-2" d="M398.256,194.254c-1.522.117-3.042.2-4.564.2a155.935,155.935,0,0,0-5.109,16.458l-4.524-.975c.78-3.276,2.028-8.814,4.213-15.6-1.6-.116-2.965-.233-3.823-.351l.585-3c1.248.079,2.73.156,4.29.195.936-2.691,2.029-5.538,3.238-8.5l5.264,1.6c-1.052,2.34-1.989,4.642-2.885,6.942,1.248-.078,2.535-.155,4.094-.312Z"/><path class="cls-1" d="M643.232,260.27v3.12H624.667v-3.12h5.577V241.939h3.12l-.078,4.135,9.517-4.642.039,3.471-9.088,4.407v10.96Z"/><path class="cls-1" d="M653.176,252.7c0,5.461,2.3,7.918,6.825,7.918a14.065,14.065,0,0,0,7.1-1.833l.935,2.925a15.893,15.893,0,0,1-8.112,2.067c-6.357,0-10.3-3.588-10.3-10.881s4.484-11.35,10.1-11.35c6.4,0,9.244,3.978,8.385,10.921H653.176Zm.272-3.041h11.311c-.078-3.588-1.755-5.071-5.265-5.071C656.1,244.591,654.15,246.424,653.448,249.662Z"/><path class="cls-1" d="M674.977,252.9c0-7.762,4.718-11.35,10.685-11.35a16.556,16.556,0,0,1,7.8,1.755l-1.014,3.159a14.053,14.053,0,0,0-7.1-1.755c-4.134,0-6.786,2.457-6.786,8,0,5.461,2.1,7.918,6.786,7.918a13.347,13.347,0,0,0,7.1-1.989l.936,3.081a15.9,15.9,0,0,1-8.112,2.067C678.721,263.78,674.977,260.192,674.977,252.9Z"/><path class="cls-1" d="M718.969,262.1a15.81,15.81,0,0,1-7.372,1.677c-5.85,0-6.9-3.2-6.825-7.8l.234-10.921h-5.265v-3.12h5.3l.117-5.07h3.627l-.663,5.07h10.063v3.12h-9.595l-.234,10.531c-.078,2.73.273,5.031,3.354,5.031a13.974,13.974,0,0,0,6.318-1.443Z"/><path class="cls-1" d="M745.293,236.869l-3.51,26.521h-5.07l-1.131-7.41-.469-5.851H734.8l-.468,5.851-1.132,7.41h-5.069l-3.511-26.521h3.2l1.716,13.65.937,9.751h.468l.858-7.371.9-5.89h4.525l.9,5.89.858,7.371h.467l.937-9.751,1.716-13.65Z"/><path class="cls-1" d="M769.98,260.27v3.12H751.415v-3.12h7.917V245.059h-7.917v-3.12h11.428V260.27Zm-12.792-25.351a3.51,3.51,0,1,1,3.509,3.51A3.495,3.495,0,0,1,757.188,234.919Z"/><path class="cls-1" d="M794.237,231.409V263.39H791.2v-2.3a10.33,10.33,0,0,1-7.137,2.73c-5.3-.039-8.152-3.744-8.152-10.335,0-8.581,4.251-11.935,10.648-11.935a26.051,26.051,0,0,1,4.174.312V231.409Zm-3.509,27.223V245.254a16.359,16.359,0,0,0-4.447-.546c-4.719,0-6.825,2.808-6.825,8.386,0,4.875,1.716,7.527,5.031,7.566A10.481,10.481,0,0,0,790.728,258.632Z"/><path class="cls-1" d="M820.367,262.1A15.81,15.81,0,0,1,813,263.78c-5.849,0-6.9-3.2-6.825-7.8l.234-10.921H801.14v-3.12h5.3l.118-5.07h3.627l-.664,5.07h10.063v3.12h-9.6l-.233,10.531c-.078,2.73.272,5.031,3.353,5.031a13.981,13.981,0,0,0,6.319-1.443Z"/><path class="cls-1" d="M845.015,248.608V263.39H841.5V249.116c0-3.16-1.286-4.447-3.9-4.447a10.744,10.744,0,0,0-6.241,2.029V263.39h-3.51V231.409h3.51v9.36l-.312,3.354a10.569,10.569,0,0,1,6.981-2.613C842.986,241.51,845.015,244.045,845.015,248.608Z"/><path class="cls-2" d="M352.194,35.444c0,4.68-3.159,8.658-10.686,8.658a18.777,18.777,0,0,1-8.58-1.755l1.014-3.042a16.211,16.211,0,0,0,7.878,1.638c4.914,0,6.787-2.067,6.787-5.265,0-3.042-2.262-4.369-6.982-5.226l-6.9-1.249.156-12.012h16.459v3.2H338.388l-.116,6.2,4.6.819C349.152,28.463,352.194,30.53,352.194,35.444Z"/><path class="cls-2" d="M377.778,30.218c0,9.828-3.705,13.884-9.945,13.884-6.553,0-9.712-4.563-9.712-13.417,0-9.243,3.705-13.884,9.945-13.884C374.619,16.8,377.778,21.364,377.778,30.218Zm-15.99.273c0,1.17.038,2.262.116,3.236l11.428-9.906A5.071,5.071,0,0,0,367.989,20C363.231,20,361.788,23.665,361.788,30.491Zm12.324-.079c0-1.169-.039-2.262-.117-3.236l-11.428,9.906a5.073,5.073,0,0,0,5.344,3.822C372.669,40.9,374.112,38.018,374.112,30.412Z"/><path class="cls-2" d="M403.05,32.051h-8.112V40.2H391.7V32.051h-8.151v-3.16H391.7V20.7h3.238v8.19h8.112Z"/><path class="cls-2" d="M428.127,36.068c0,4.446-3.159,8.034-11.077,8.034a20.931,20.931,0,0,1-8.97-1.755l1.014-3.042a19.391,19.391,0,0,0,8.268,1.638c5.3,0,7.176-1.677,7.176-4.68,0-2.536-1.716-4.33-6.786-4.33h-7.215V28.774H419.9c2.807-1.131,3.783-2.612,3.783-4.679,0-3-2.029-4.135-6.124-4.135a18.024,18.024,0,0,0-8.074,1.833l-.935-2.925A20.557,20.557,0,0,1,417.83,16.8c5.773,0,9.439,2.223,9.439,7.1,0,2.769-1.522,4.641-3.862,5.968C426.684,31.076,428.127,32.87,428.127,36.068Z"/><path class="cls-2" d="M453.866,36.146c0,4.329-2.574,7.956-9.243,7.956-6.279,0-10.023-3.354-10.023-12.441,0-8.152,3.081-14.9,12.246-14.9a21.865,21.865,0,0,1,6.631.975l-.976,3.12a18.192,18.192,0,0,0-5.967-.936c-5.733,0-7.605,3.432-8.151,7.722l6.162.742C450.629,29.087,453.866,31.309,453.866,36.146Zm-3.588.312c0-3.042-1.755-4.368-6.591-4.953l-5.5-.663v.624c0,7.254,2.106,9.477,6.747,9.477C448.8,40.943,450.278,39.227,450.278,36.458Z"/><path class="cls-3" d="M375.933,269.55c0,4.678-3.64,7.158-9.319,7.158-5.519,0-9.158-2.079-9.158-6.639,0-3.439,2.679-5.4,5.879-7.039-3.6-1.559-6.919-3.559-6.919-7.478,0-4.6,3.919-7.4,10.439-7.4,6.878,0,10.118,2.48,10.118,6.759,0,3.959-3.36,6.079-7,7.839C373.173,264.23,375.933,266.11,375.933,269.55Zm-9.118-8.159c3.439-1.6,6.478-3.24,6.478-6.319,0-2.24-1.72-3.68-6.719-3.68-4.279,0-6.478,1.44-6.478,4C360.1,258.391,363.3,259.911,366.815,261.391Zm5.438,8.318c0-2.56-2.64-3.959-5.759-5.318-2.96,1.439-5.359,2.958-5.359,5.518,0,2,1.12,3.64,5.68,3.64C371.134,273.549,372.253,271.909,372.253,269.709Z"/><path class="cls-3" d="M402.813,268.269c0,4.44-2.64,8.16-9.479,8.16-6.438,0-10.278-3.44-10.278-12.759,0-8.359,3.159-15.278,12.557-15.278a22.43,22.43,0,0,1,6.8,1l-1,3.2a18.656,18.656,0,0,0-6.119-.959c-5.879,0-7.8,3.518-8.358,7.918l6.318.759C399.493,261.031,402.813,263.31,402.813,268.269Zm-3.68.321c0-3.12-1.8-4.48-6.759-5.079l-5.639-.681v.641c0,7.438,2.16,9.717,6.919,9.717C397.613,273.188,399.133,271.429,399.133,268.59Z"/></g></svg>