<svg xmlns="http://www.w3.org/2000/svg" viewBox="0 0 952 173"><defs><style>.cls-1{fill:#1858a8;}</style></defs><title>a</title><g id="solo_testo" data-name="solo testo"><path class="cls-1" d="M246,21.993V40.486h-1.759v-1.33a5.974,5.974,0,0,1-4.127,1.578c-3.067-.022-4.714-2.165-4.714-5.976,0-4.962,2.458-6.9,6.158-6.9a15.172,15.172,0,0,1,2.413.18V21.993Zm-2.029,15.742V30a9.479,9.479,0,0,0-2.572-.316c-2.728,0-3.946,1.625-3.946,4.849,0,2.819.992,4.353,2.909,4.376A6.063,6.063,0,0,0,243.974,37.735Z"/><path class="cls-1" d="M252.388,34.307c0,3.157,1.33,4.578,3.946,4.578a8.137,8.137,0,0,0,4.105-1.06l.541,1.691a9.189,9.189,0,0,1-4.691,1.2c-3.676,0-5.954-2.075-5.954-6.292s2.594-6.563,5.841-6.563c3.7,0,5.346,2.3,4.849,6.315h-8.637Zm.157-1.759h6.541c-.046-2.075-1.016-2.932-3.045-2.932A3.307,3.307,0,0,0,252.545,32.548Z"/><path class="cls-1" d="M270.228,25.512c0,1.194.451,2.21.631,3.923h4.872v1.8h-4.8v7.442h4.8v1.8H265v-1.8h3.9V31.24H265v-1.8h3.834a30.56,30.56,0,0,1-.632-3.811c0-2.8,2.053-3.857,4.624-3.857a9.28,9.28,0,0,1,3.586.632l-.587,1.827a7.071,7.071,0,0,0-3.112-.631C271.13,23.6,270.228,24,270.228,25.512Z"/><path class="cls-1" d="M284.892,34.54a2.757,2.757,0,0,1-1.661-.462,1.687,1.687,0,0,1-.636-1.466v-.574a1.745,1.745,0,0,1,.636-1.486,2.676,2.676,0,0,1,1.661-.482,2.633,2.633,0,0,1,1.65.482,1.758,1.758,0,0,1,.626,1.486v.574a1.69,1.69,0,0,1-.636,1.466A2.721,2.721,0,0,1,284.892,34.54Z"/><path class="cls-1" d="M304.97,38.682v1.8H294.234v-1.8h4.579v-8.8h-4.579v-1.8h6.609v10.6Zm-7.4-14.659a2.03,2.03,0,1,1,2.03,2.03A2.022,2.022,0,0,1,297.572,24.023Z"/><path class="cls-1" d="M319.044,31.939v8.547h-2.029V32.232c0-1.827-.744-2.571-2.256-2.571a6.222,6.222,0,0,0-3.609,1.173v9.652h-2.029v-12.4h1.714v1.376a6.141,6.141,0,0,1,4.173-1.624C317.871,27.834,319.044,29.3,319.044,31.939Z"/><path class="cls-1" d="M334.11,39.742a9.144,9.144,0,0,1-4.262.97c-3.383,0-3.991-1.85-3.947-4.511l.135-6.314h-3.044v-1.8h3.067l.068-2.932h2.1l-.384,2.932h5.818v1.8h-5.548l-.135,6.088c-.045,1.58.158,2.91,1.94,2.91a8.085,8.085,0,0,0,3.653-.834Z"/><path class="cls-1" d="M340.044,34.307c0,3.157,1.33,4.578,3.946,4.578a8.137,8.137,0,0,0,4.105-1.06l.541,1.691a9.186,9.186,0,0,1-4.691,1.2c-3.675,0-5.954-2.075-5.954-6.292s2.594-6.563,5.841-6.563c3.7,0,5.346,2.3,4.85,6.315h-8.638Zm.157-1.759h6.541c-.046-2.075-1.015-2.932-3.045-2.932A3.308,3.308,0,0,0,340.2,32.548Z"/><path class="cls-1" d="M363.613,38.682v1.8H352.878v-1.8H356.1v-10.6h1.8l-.045,2.391,5.5-2.684.023,2.007-5.255,2.549v6.337Z"/><path class="cls-1" d="M378.318,33.81c0,4.962-2.458,6.9-6.157,6.9a15.018,15.018,0,0,1-2.413-.181v4.015h-2.029V28.082h1.714v1.376a6.035,6.035,0,0,1,4.172-1.624C376.672,27.857,378.318,30,378.318,33.81Zm-2.052.226c0-2.819-.992-4.353-2.909-4.375a6.063,6.063,0,0,0-3.609,1.173v7.735a9.438,9.438,0,0,0,2.571.316C375.048,38.885,376.266,37.261,376.266,34.036Z"/><path class="cls-1" d="M381.7,34.42c0-4.128,2.368-6.586,5.706-6.586,3.518,0,5.571,2.413,5.571,6.428s-2.369,6.472-5.706,6.472C383.756,40.734,381.7,38.321,381.7,34.42Zm9.224-.046c0-2.954-1.105-4.713-3.563-4.713-2.481,0-3.608,1.8-3.608,4.646s1.1,4.6,3.562,4.6C389.8,38.908,390.927,37.1,390.927,34.374Z"/><path class="cls-1" d="M407.369,38.682v1.8H396.634v-1.8h4.352V21.993h2.031V38.682Z"/><path class="cls-1" d="M421.4,32.345l-.113,8.141H419.6V39a5.85,5.85,0,0,1-4.353,1.736c-2.481-.022-3.88-1.33-3.88-3.405,0-2.391,2.459-3.451,7.962-3.879l.023-.88c.022-1.578-.158-2.909-2.616-2.909a9.751,9.751,0,0,0-4.331,1.06l-.541-1.691a10.893,10.893,0,0,1,5.029-1.2C420.97,27.834,421.421,29.909,421.4,32.345Zm-2.143,5.277L419.3,35.1c-4.15.338-5.908.925-5.908,2.188,0,1.037.721,1.646,2.12,1.669A5.549,5.549,0,0,0,419.256,37.622Z"/><path class="cls-1" d="M436.735,39.742a9.144,9.144,0,0,1-4.262.97c-3.383,0-3.991-1.85-3.947-4.511l.135-6.314h-3.044v-1.8h3.067l.068-2.932h2.1l-.384,2.932h5.818v1.8h-5.548l-.135,6.088c-.045,1.58.158,2.91,1.94,2.91a8.085,8.085,0,0,0,3.653-.834Z"/><path class="cls-1" d="M442.669,34.307c0,3.157,1.33,4.578,3.946,4.578a8.137,8.137,0,0,0,4.105-1.06l.541,1.691a9.186,9.186,0,0,1-4.691,1.2c-3.675,0-5.954-2.075-5.954-6.292s2.594-6.563,5.841-6.563c3.7,0,5.346,2.3,4.85,6.315h-8.638Zm.157-1.759h6.541c-.046-2.075-1.015-2.932-3.045-2.932A3.308,3.308,0,0,0,442.826,32.548Z"/><path class="cls-1" d="M466.69,25.15l-4.354,15.336h-3.383L454.6,25.15h2.165l3.067,11.232.519,2.3h.7l.518-2.3,3.023-11.232Z"/><path class="cls-1" d="M480.041,32.345l-.112,8.141h-1.692V39a5.847,5.847,0,0,1-4.352,1.736c-2.482-.022-3.88-1.33-3.88-3.405,0-2.391,2.459-3.451,7.962-3.879l.022-.88c.023-1.578-.158-2.909-2.616-2.909a9.75,9.75,0,0,0-4.33,1.06L470.5,29.03a10.885,10.885,0,0,1,5.028-1.2C479.612,27.834,480.064,29.909,480.041,32.345ZM477.9,37.622l.044-2.526c-4.149.338-5.908.925-5.908,2.188,0,1.037.722,1.646,2.12,1.669A5.552,5.552,0,0,0,477.9,37.622Z"/><path class="cls-1" d="M495.334,38.682v1.8H484.6v-1.8h4.352V21.993h2.031V38.682Z"/><path class="cls-1" d="M509.543,28.082v12.4h-1.714V39.111a6.14,6.14,0,0,1-4.173,1.623c-2.863,0-4.036-1.466-4.036-4.1V28.082h2.029v8.255c0,1.826.745,2.571,2.255,2.571a6.213,6.213,0,0,0,3.609-1.173V28.082Z"/><path class="cls-1" d="M515.973,34.307c0,3.157,1.33,4.578,3.946,4.578a8.137,8.137,0,0,0,4.105-1.06l.541,1.691a9.189,9.189,0,0,1-4.691,1.2c-3.676,0-5.954-2.075-5.954-6.292s2.594-6.563,5.841-6.563c3.7,0,5.346,2.3,4.849,6.315h-8.637Zm.157-1.759h6.541c-.046-2.075-1.016-2.932-3.045-2.932A3.307,3.307,0,0,0,516.13,32.548Z"/><path class="cls-1" d="M530.927,32.818c0-8.254,2.616-9.923,6.7-9.923v1.85c-3.09,0-4.556,1.06-4.556,7.848,0,7.239,1.466,8.3,4.556,8.3v1.85C533.543,42.742,530.927,41.3,530.927,32.818Z"/><path class="cls-1" d="M553.345,32.345l-.112,8.141h-1.692V39a5.847,5.847,0,0,1-4.352,1.736c-2.482-.022-3.88-1.33-3.88-3.405,0-2.391,2.459-3.451,7.962-3.879l.022-.88c.023-1.578-.158-2.909-2.616-2.909a9.75,9.75,0,0,0-4.33,1.06L543.8,29.03a10.893,10.893,0,0,1,5.029-1.2C552.916,27.834,553.367,29.909,553.345,32.345ZM551.2,37.622l.045-2.526c-4.149.338-5.908.925-5.908,2.188,0,1.037.722,1.646,2.12,1.669A5.548,5.548,0,0,0,551.2,37.622Z"/><path class="cls-1" d="M565.684,39.787c0,1.985-1.219,4.308-4.6,4.308V42.4c1.512,0,2.436-.586,2.73-2.007a1.364,1.364,0,0,1-.813.293,2.031,2.031,0,0,1,.091-4.059C564.285,36.63,565.684,37.622,565.684,39.787Z"/><path class="cls-1" d="M583.568,33.81c0,4.962-2.458,6.9-6.157,6.9a13.922,13.922,0,0,1-4.442-.654V21.993H575v5.413l-.18,1.917a6.083,6.083,0,0,1,4.037-1.489C581.922,27.857,583.568,30,583.568,33.81Zm-2.052.226c0-2.819-.992-4.353-2.909-4.375A6.063,6.063,0,0,0,575,30.834v7.735a9.438,9.438,0,0,0,2.571.316C580.3,38.885,581.516,37.261,581.516,34.036Z"/><path class="cls-1" d="M595,39.787c0,1.985-1.218,4.308-4.6,4.308V42.4c1.512,0,2.437-.586,2.73-2.007a1.364,1.364,0,0,1-.813.293,2.031,2.031,0,0,1,.091-4.059C593.607,36.63,595,37.622,595,39.787Z"/><path class="cls-1" d="M607.116,25.512c0,1.194.451,2.21.632,3.923h4.871v1.8h-4.8v7.442h4.8v1.8H601.884v-1.8h3.9V31.24h-3.9v-1.8h3.834a30.376,30.376,0,0,1-.632-3.811c0-2.8,2.053-3.857,4.624-3.857a9.283,9.283,0,0,1,3.586.632l-.587,1.827A7.071,7.071,0,0,0,609.6,23.6C608.019,23.6,607.116,24,607.116,25.512Z"/><path class="cls-1" d="M626.649,32.345l-.113,8.141h-1.691V39a5.85,5.85,0,0,1-4.353,1.736c-2.481-.022-3.88-1.33-3.88-3.405,0-2.391,2.459-3.451,7.962-3.879l.023-.88c.022-1.578-.158-2.909-2.616-2.909a9.751,9.751,0,0,0-4.331,1.06l-.541-1.691a10.893,10.893,0,0,1,5.029-1.2C626.22,27.834,626.671,29.909,626.649,32.345Zm-2.143,5.277.045-2.526c-4.15.338-5.908.925-5.908,2.188,0,1.037.721,1.646,2.12,1.669A5.549,5.549,0,0,0,624.506,37.622Z"/><path class="cls-1" d="M631.205,34.42c0-4.488,2.729-6.563,6.18-6.563a9.585,9.585,0,0,1,4.511,1.014l-.587,1.828a8.123,8.123,0,0,0-4.105-1.016c-2.39,0-3.924,1.421-3.924,4.624,0,3.157,1.218,4.578,3.924,4.578a7.717,7.717,0,0,0,4.105-1.15l.541,1.781a9.186,9.186,0,0,1-4.691,1.2C633.37,40.712,631.205,38.637,631.205,34.42Z"/><path class="cls-1" d="M656.647,39.742a9.148,9.148,0,0,1-4.263.97c-3.383,0-3.991-1.85-3.946-4.511l.134-6.314h-3.044v-1.8H648.6l.067-2.932h2.1l-.383,2.932H656.2v1.8h-5.547l-.136,6.088c-.045,1.58.158,2.91,1.94,2.91a8.092,8.092,0,0,0,3.654-.834Z"/><path class="cls-1" d="M660.257,34.42c0-4.128,2.368-6.586,5.706-6.586,3.518,0,5.57,2.413,5.57,6.428s-2.368,6.472-5.706,6.472C662.31,40.734,660.257,38.321,660.257,34.42Zm9.224-.046c0-2.954-1.105-4.713-3.563-4.713-2.481,0-3.608,1.8-3.608,4.646s1.1,4.6,3.562,4.6C668.354,38.908,669.481,37.1,669.481,34.374Z"/><path class="cls-1" d="M686.149,38.682v1.8H675.413v-1.8h3.226v-10.6h1.8l-.044,2.391,5.5-2.684.023,2.007-5.255,2.549v6.337Z"/><path class="cls-1" d="M698.238,32.818c0,8.255-2.616,9.924-6.7,9.924v-1.85c3.09,0,4.556-1.06,4.556-7.848,0-7.239-1.466-8.3-4.556-8.3V22.9C695.622,22.9,698.238,24.339,698.238,32.818Z"/><path class="cls-1" d="M707.847,30.969A2.03,2.03,0,1,1,709.876,33,2.022,2.022,0,0,1,707.847,30.969Zm0,7.691a2.03,2.03,0,1,1,2.029,2.029A2.021,2.021,0,0,1,707.847,38.66Z"/><path class="cls-1" d="M240.909,87.169a2.761,2.761,0,0,1-1.661-.462,1.687,1.687,0,0,1-.636-1.466v-.574a1.744,1.744,0,0,1,.636-1.486,2.68,2.68,0,0,1,1.661-.482,2.634,2.634,0,0,1,1.651.482,1.757,1.757,0,0,1,.626,1.486v.574a1.69,1.69,0,0,1-.636,1.466A2.724,2.724,0,0,1,240.909,87.169Z"/><path class="cls-1" d="M255.263,87.169a2.757,2.757,0,0,1-1.661-.462,1.687,1.687,0,0,1-.636-1.466v-.574a1.744,1.744,0,0,1,.636-1.486,2.676,2.676,0,0,1,1.661-.482,2.633,2.633,0,0,1,1.65.482,1.757,1.757,0,0,1,.626,1.486v.574a1.69,1.69,0,0,1-.636,1.466A2.719,2.719,0,0,1,255.263,87.169Z"/><path class="cls-1" d="M269.615,87.169a2.761,2.761,0,0,1-1.661-.462,1.687,1.687,0,0,1-.636-1.466v-.574a1.744,1.744,0,0,1,.636-1.486,2.68,2.68,0,0,1,1.661-.482,2.634,2.634,0,0,1,1.651.482,1.757,1.757,0,0,1,.626,1.486v.574a1.69,1.69,0,0,1-.636,1.466A2.724,2.724,0,0,1,269.615,87.169Z"/><path class="cls-1" d="M283.969,87.169a2.759,2.759,0,0,1-1.661-.462,1.687,1.687,0,0,1-.636-1.466v-.574a1.744,1.744,0,0,1,.636-1.486,2.678,2.678,0,0,1,1.661-.482,2.633,2.633,0,0,1,1.65.482,1.757,1.757,0,0,1,.626,1.486v.574a1.69,1.69,0,0,1-.636,1.466A2.719,2.719,0,0,1,283.969,87.169Z"/><path class="cls-1" d="M303.19,84.974l-.113,8.141h-1.691V91.627a5.854,5.854,0,0,1-4.353,1.736c-2.481-.022-3.88-1.33-3.88-3.405,0-2.391,2.459-3.451,7.962-3.879l.023-.88c.022-1.579-.158-2.909-2.616-2.909a9.751,9.751,0,0,0-4.331,1.06l-.541-1.691a10.893,10.893,0,0,1,5.029-1.2C302.761,80.463,303.212,82.538,303.19,84.974Zm-2.143,5.277.045-2.526c-4.15.338-5.908.925-5.908,2.187,0,1.038.721,1.647,2.12,1.669A5.543,5.543,0,0,0,301.047,90.251Z"/><path class="cls-1" d="M319.159,77.779l-4.352,15.336h-3.384L307.07,77.779h2.165L312.3,89.011l.518,2.3h.7l.518-2.3,3.023-11.232Z"/><path class="cls-1" d="M332.511,84.974l-.112,8.141h-1.692V91.627a5.85,5.85,0,0,1-4.352,1.736c-2.482-.022-3.88-1.33-3.88-3.405,0-2.391,2.459-3.451,7.962-3.879l.022-.88c.023-1.579-.158-2.909-2.616-2.909a9.75,9.75,0,0,0-4.33,1.06l-.542-1.691a10.893,10.893,0,0,1,5.029-1.2C332.082,80.463,332.533,82.538,332.511,84.974Zm-2.143,5.277.045-2.526c-4.149.338-5.908.925-5.908,2.187,0,1.038.722,1.647,2.12,1.669A5.541,5.541,0,0,0,330.368,90.251Z"/><path class="cls-1" d="M347.8,91.311v1.8H337.068v-1.8h4.353V74.622h2.03V91.311Z"/><path class="cls-1" d="M362.013,80.711v12.4H360.3V91.74a6.146,6.146,0,0,1-4.173,1.623c-2.863,0-4.036-1.466-4.036-4.1V80.711h2.029v8.255c0,1.826.744,2.571,2.255,2.571a6.218,6.218,0,0,0,3.609-1.173V80.711Z"/><path class="cls-1" d="M368.442,86.936c0,3.157,1.331,4.578,3.947,4.578a8.133,8.133,0,0,0,4.1-1.06l.541,1.691a9.185,9.185,0,0,1-4.69,1.2c-3.676,0-5.954-2.075-5.954-6.292s2.593-6.563,5.841-6.563c3.7,0,5.345,2.3,4.849,6.315h-8.638Zm.158-1.759h6.541c-.046-2.075-1.016-2.932-3.045-2.932A3.307,3.307,0,0,0,368.6,85.177Z"/><path class="cls-1" d="M386.286,87.169a2.761,2.761,0,0,1-1.661-.462,1.687,1.687,0,0,1-.636-1.466v-.574a1.744,1.744,0,0,1,.636-1.486,2.68,2.68,0,0,1,1.661-.482,2.634,2.634,0,0,1,1.651.482,1.757,1.757,0,0,1,.626,1.486v.574a1.69,1.69,0,0,1-.636,1.466A2.724,2.724,0,0,1,386.286,87.169Z"/><path class="cls-1" d="M395.133,81.839h11.276v1.826H395.133Zm0,5.412h11.276v1.827H395.133Z"/><path class="cls-1" d="M415.3,87.169a2.759,2.759,0,0,1-1.661-.462A1.687,1.687,0,0,1,413,85.241v-.574a1.744,1.744,0,0,1,.636-1.486A2.678,2.678,0,0,1,415.3,82.7a2.633,2.633,0,0,1,1.65.482,1.757,1.757,0,0,1,.626,1.486v.574a1.692,1.692,0,0,1-.635,1.466A2.724,2.724,0,0,1,415.3,87.169Z"/><path class="cls-1" d="M434.521,84.974l-.113,8.141h-1.691V91.627a5.854,5.854,0,0,1-4.353,1.736c-2.481-.022-3.88-1.33-3.88-3.405,0-2.391,2.459-3.451,7.962-3.879l.023-.88c.022-1.579-.158-2.909-2.616-2.909a9.743,9.743,0,0,0-4.33,1.06l-.542-1.691a10.893,10.893,0,0,1,5.029-1.2C434.092,80.463,434.543,82.538,434.521,84.974Zm-2.143,5.277.045-2.526c-4.149.338-5.908.925-5.908,2.187,0,1.038.721,1.647,2.12,1.669A5.543,5.543,0,0,0,432.378,90.251Z"/><path class="cls-1" d="M450.084,86.372h-4.691v4.713h-1.871V86.372h-4.714V84.545h4.714V79.809h1.871v4.736h4.691Z"/><path class="cls-1" d="M456.084,85.447c0-8.254,2.616-9.923,6.7-9.923v1.849c-3.09,0-4.555,1.06-4.555,7.849,0,7.239,1.465,8.3,4.555,8.3V95.37C458.7,95.37,456.084,93.927,456.084,85.447Z"/><path class="cls-1" d="M479.405,86.439c0,4.962-2.458,6.9-6.157,6.9a13.89,13.89,0,0,1-4.442-.655V74.622h2.029v5.413l-.18,1.917a6.081,6.081,0,0,1,4.036-1.489C477.759,80.486,479.405,82.628,479.405,86.439Zm-2.052.226c0-2.819-.993-4.353-2.91-4.375a6.056,6.056,0,0,0-3.608,1.173V91.2a9.438,9.438,0,0,0,2.571.316C476.135,91.514,477.353,89.89,477.353,86.665Z"/><path class="cls-1" d="M492.712,85.312v1.827h-8.569V85.312Z"/><path class="cls-1" d="M507.824,84.974l-.112,8.141h-1.691V91.627a5.854,5.854,0,0,1-4.353,1.736c-2.481-.022-3.88-1.33-3.88-3.405,0-2.391,2.459-3.451,7.962-3.879l.023-.88c.022-1.579-.159-2.909-2.617-2.909a9.75,9.75,0,0,0-4.33,1.06l-.541-1.691a10.886,10.886,0,0,1,5.029-1.2C507.4,80.463,507.847,82.538,507.824,84.974Zm-2.142,5.277.045-2.526c-4.15.338-5.909.925-5.909,2.187,0,1.038.722,1.647,2.121,1.669A5.543,5.543,0,0,0,505.682,90.251Z"/><path class="cls-1" d="M520.772,85.447c0,8.255-2.617,9.923-6.7,9.923V93.521c3.09,0,4.556-1.06,4.556-7.848,0-7.24-1.466-8.3-4.556-8.3V75.524C518.155,75.524,520.772,76.968,520.772,85.447Z"/><path class="cls-1" d="M534.056,81.207l3.992,1.985-.947,1.669-3.993-2.39.271,4.8h-2.052l.271-4.781-3.879,2.413-.947-1.669,4.082-2.03-4.2-2.322.97-1.669L531.6,79.99l-.271-5.12h2.052l-.271,5.142,4.083-2.751.969,1.669Z"/><path class="cls-1" d="M546.936,78.141c0,1.194.451,2.209.631,3.923h4.872v1.805h-4.8v7.442h4.8v1.8H541.7v-1.8h3.9V83.869h-3.9V82.064h3.834a30.56,30.56,0,0,1-.632-3.811c0-2.8,2.053-3.857,4.624-3.857a9.28,9.28,0,0,1,3.586.632l-.587,1.827a7.071,7.071,0,0,0-3.112-.631C547.838,76.224,546.936,76.629,546.936,78.141Z"/><path class="cls-1" d="M566.467,84.974l-.112,8.141h-1.692V91.627a5.85,5.85,0,0,1-4.352,1.736c-2.482-.022-3.88-1.33-3.88-3.405,0-2.391,2.459-3.451,7.962-3.879l.022-.88c.023-1.579-.158-2.909-2.616-2.909a9.75,9.75,0,0,0-4.33,1.06l-.541-1.691a10.885,10.885,0,0,1,5.028-1.2C566.038,80.463,566.489,82.538,566.467,84.974Zm-2.143,5.277.045-2.526c-4.149.338-5.908.925-5.908,2.187,0,1.038.722,1.647,2.12,1.669A5.541,5.541,0,0,0,564.324,90.251Z"/><path class="cls-1" d="M571.024,87.049c0-4.489,2.73-6.563,6.18-6.563a9.582,9.582,0,0,1,4.511,1.014l-.587,1.828a8.122,8.122,0,0,0-4.1-1.016c-2.391,0-3.924,1.421-3.924,4.624,0,3.157,1.217,4.578,3.924,4.578a7.724,7.724,0,0,0,4.1-1.15l.541,1.781a9.185,9.185,0,0,1-4.69,1.2C573.19,93.341,571.024,91.266,571.024,87.049Z"/><path class="cls-1" d="M596.465,92.371a9.148,9.148,0,0,1-4.263.97c-3.383,0-3.991-1.85-3.946-4.511l.135-6.314h-3.044V80.711h3.067l.068-2.932h2.1l-.383,2.932h5.819v1.805h-5.548L590.33,88.6c-.045,1.579.158,2.91,1.941,2.91a8.088,8.088,0,0,0,3.653-.834Z"/><path class="cls-1" d="M600.075,87.049c0-4.128,2.368-6.586,5.706-6.586,3.518,0,5.571,2.413,5.571,6.428s-2.369,6.472-5.706,6.472C602.128,93.363,600.075,90.95,600.075,87.049ZM609.3,87c0-2.954-1.105-4.713-3.563-4.713-2.481,0-3.608,1.8-3.608,4.646s1.1,4.6,3.563,4.6C608.172,91.537,609.3,89.732,609.3,87Z"/><path class="cls-1" d="M625.968,91.311v1.8H615.233v-1.8h3.224v-10.6h1.8l-.045,2.391,5.5-2.684.022,2.007-5.255,2.549v6.337Z"/><path class="cls-1" d="M240.909,139.8a2.761,2.761,0,0,1-1.661-.462,1.687,1.687,0,0,1-.636-1.466V137.3a1.747,1.747,0,0,1,.636-1.487,2.686,2.686,0,0,1,1.661-.481,2.64,2.64,0,0,1,1.651.481,1.76,1.76,0,0,1,.626,1.487v.574a1.69,1.69,0,0,1-.636,1.466A2.724,2.724,0,0,1,240.909,139.8Z"/><path class="cls-1" d="M255.263,139.8a2.757,2.757,0,0,1-1.661-.462,1.687,1.687,0,0,1-.636-1.466V137.3a1.747,1.747,0,0,1,.636-1.487,2.682,2.682,0,0,1,1.661-.481,2.639,2.639,0,0,1,1.65.481,1.76,1.76,0,0,1,.626,1.487v.574a1.69,1.69,0,0,1-.636,1.466A2.719,2.719,0,0,1,255.263,139.8Z"/><path class="cls-1" d="M269.615,139.8a2.761,2.761,0,0,1-1.661-.462,1.687,1.687,0,0,1-.636-1.466V137.3a1.747,1.747,0,0,1,.636-1.487,2.686,2.686,0,0,1,1.661-.481,2.64,2.64,0,0,1,1.651.481,1.76,1.76,0,0,1,.626,1.487v.574a1.69,1.69,0,0,1-.636,1.466A2.724,2.724,0,0,1,269.615,139.8Z"/><path class="cls-1" d="M283.969,139.8a2.759,2.759,0,0,1-1.661-.462,1.687,1.687,0,0,1-.636-1.466V137.3a1.747,1.747,0,0,1,.636-1.487,2.684,2.684,0,0,1,1.661-.481,2.639,2.639,0,0,1,1.65.481,1.76,1.76,0,0,1,.626,1.487v.574a1.69,1.69,0,0,1-.636,1.466A2.719,2.719,0,0,1,283.969,139.8Z"/><path class="cls-1" d="M304.047,143.94v1.8H293.312v-1.8h3.225v-10.6h1.8l-.045,2.391,5.5-2.684.022,2.007-5.255,2.548v6.338Z"/><path class="cls-1" d="M309.8,139.565c0,3.157,1.33,4.578,3.946,4.578a8.137,8.137,0,0,0,4.105-1.06l.541,1.691a9.186,9.186,0,0,1-4.691,1.2c-3.676,0-5.954-2.075-5.954-6.292s2.594-6.563,5.841-6.563c3.7,0,5.346,2.3,4.85,6.315H309.8Zm.157-1.759H316.5c-.046-2.075-1.015-2.932-3.045-2.932A3.306,3.306,0,0,0,309.957,137.806Z"/><path class="cls-1" d="M333.188,145a9.148,9.148,0,0,1-4.263.97c-3.383,0-3.991-1.85-3.946-4.511l.134-6.315h-3.044v-1.8h3.068l.067-2.932h2.1l-.383,2.932h5.818v1.8h-5.547l-.136,6.089c-.045,1.579.158,2.91,1.94,2.91a8.08,8.08,0,0,0,3.654-.835Z"/><path class="cls-1" d="M347.353,133.34v12.4h-1.714v-1.375a6.146,6.146,0,0,1-4.173,1.623c-2.863,0-4.036-1.466-4.036-4.1V133.34h2.029V141.6c0,1.826.744,2.57,2.255,2.57a6.218,6.218,0,0,0,3.608-1.172V133.34Z"/><path class="cls-1" d="M362.69,143.94v1.8H351.954v-1.8h3.226v-10.6h1.8l-.044,2.391,5.5-2.684.023,2.007-5.255,2.548v6.338Z"/><path class="cls-1" d="M376.764,137.2v8.547h-2.03V137.49c0-1.827-.744-2.571-2.255-2.571a6.218,6.218,0,0,0-3.609,1.173v9.652h-2.029v-12.4h1.714v1.376a6.136,6.136,0,0,1,4.172-1.624C375.591,133.092,376.764,134.558,376.764,137.2Z"/><path class="cls-1" d="M405.815,137.6l-.113,8.142h-1.691v-1.488a5.854,5.854,0,0,1-4.353,1.736c-2.481-.022-3.88-1.33-3.88-3.405,0-2.391,2.459-3.451,7.962-3.879l.023-.88c.022-1.579-.158-2.909-2.616-2.909a9.751,9.751,0,0,0-4.331,1.06l-.541-1.692a10.9,10.9,0,0,1,5.029-1.195C405.386,133.092,405.837,135.167,405.815,137.6Zm-2.143,5.278.045-2.526c-4.15.338-5.908.925-5.908,2.187,0,1.038.721,1.647,2.12,1.669A5.543,5.543,0,0,0,403.672,142.88Z"/><path class="cls-1" d="M421.784,130.408l-4.352,15.336h-3.384L409.7,130.408h2.165l3.068,11.232.518,2.3h.7l.518-2.3,3.023-11.232Z"/><path class="cls-1" d="M435.136,137.6l-.112,8.142h-1.692v-1.488a5.85,5.85,0,0,1-4.352,1.736c-2.482-.022-3.88-1.33-3.88-3.405,0-2.391,2.459-3.451,7.962-3.879l.022-.88c.023-1.579-.158-2.909-2.616-2.909a9.75,9.75,0,0,0-4.33,1.06l-.542-1.692a10.9,10.9,0,0,1,5.029-1.195C434.707,133.092,435.158,135.167,435.136,137.6Zm-2.143,5.278.045-2.526c-4.149.338-5.908.925-5.908,2.187,0,1.038.722,1.647,2.12,1.669A5.541,5.541,0,0,0,432.993,142.88Z"/><path class="cls-1" d="M450.429,143.94v1.8H439.693v-1.8h4.353V127.251h2.03V143.94Z"/><path class="cls-1" d="M464.638,133.34v12.4h-1.714v-1.375a6.146,6.146,0,0,1-4.173,1.623c-2.863,0-4.036-1.466-4.036-4.1V133.34h2.029V141.6c0,1.826.744,2.57,2.255,2.57a6.223,6.223,0,0,0,3.609-1.172V133.34Z"/><path class="cls-1" d="M471.067,139.565c0,3.157,1.331,4.578,3.947,4.578a8.133,8.133,0,0,0,4.1-1.06l.541,1.691a9.185,9.185,0,0,1-4.69,1.2c-3.676,0-5.954-2.075-5.954-6.292s2.593-6.563,5.841-6.563c3.7,0,5.345,2.3,4.849,6.315h-8.638Zm.158-1.759h6.541c-.046-2.075-1.016-2.932-3.045-2.932A3.306,3.306,0,0,0,471.225,137.806Z"/></g></svg>