<?xml version="1.0" encoding="utf-8"?>
<!-- Generator: Adobe Illustrator 22.1.0, SVG Export Plug-In . SVG Version: 6.00 Build 0)  -->
<svg version="1.1" id="Livello_1" xmlns="http://www.w3.org/2000/svg" xmlns:xlink="http://www.w3.org/1999/xlink" x="0px" y="0px"
	 viewBox="0 0 296 296" style="enable-background:new 0 0 296 296;" xml:space="preserve">
<style type="text/css">
	.st0{fill:#FF3366;}
	.st1{fill:#1858A8;}
	.st2{fill:#FFEDED;}
</style>
<title>a</title>
<path class="st0" d="M115.2,192.6c-0.4-0.1-0.8-0.1-1.2-0.1c-0.4,0-0.8,0.1-1.2,0c-0.3,0-0.5-0.1-0.7-0.2c-0.1,0-0.1,0-0.2,0
	c-0.5,0.1-1,0.1-1.5-0.1c-0.3-0.1-0.6-0.2-0.9-0.2c-0.1,0-0.2-0.1-0.2-0.1c-0.3-0.1-0.7-0.2-1-0.3c-0.1,0-0.2,0-0.3,0
	c-0.7,0.3-1.4,0.5-2.2,0.5c-0.2,0-0.3,0.1-0.5,0.1c-0.2,0.1-0.5,0-0.6-0.3c-0.1-0.3-0.3-0.6-0.6-0.8c0-0.3-0.3-0.5-0.5-0.6l0.2-0.5
	c-0.3-0.4-0.3-0.4-0.1-1l-0.9-0.2c0-0.1,0-0.3,0.1-0.4c0.1-0.2,0.1-0.3,0.1-0.5c0-0.4,0.2-0.8,0.4-1.1c0.2-0.3,0.4-0.6,0.4-1
	c0-0.3,0.2-0.7,0.1-1c0,0,0-0.1,0.1-0.2c0.1-0.2,0.2-0.5,0.3-0.7c0.1-0.6,0.4-1.1,0.9-1.5c0.2-0.2,0.4-0.5,0.5-0.8
	c0.1-0.4,0.2-0.7,0.5-1c0.1-0.2,0.2-0.4,0.3-0.7c0.1-0.2,0.2-0.4,0.4-0.5c0.6-0.6,1.1-1.3,1.6-2c0-0.1,0.1-0.1,0.1-0.2
	c0.1-0.5,0.4-1,0.8-1.3c0.5-0.6,1-1.2,1.5-1.8c0.1-0.1,0.1-0.3,0.2-0.4c0-0.1,0.1-0.3,0.1-0.4c0.2-0.7,0.5-1.3,0.9-1.8
	c0.1-0.2,0.3-0.4,0.4-0.5c0.1-0.1,0.1-0.2,0.1-0.3c0-0.4,0.2-0.9,0.6-1.2c0.2-0.3,0.4-0.6,0.5-0.9c0.1-0.4,0.3-0.7,0.5-1
	c0.1-0.3,0.3-0.6,0.3-0.9c0.1-0.4,0.3-0.7,0.5-1c0.2-0.3,0.3-0.7,0.4-1c0.2-0.5,0.4-1,0.8-1.3c0.3-0.4,0.5-0.8,0.6-1.3
	c0.1-0.3,0.2-0.7,0.4-1c0.2-0.4,0.5-0.8,0.8-1.1c0.1-0.1,0.1-0.2,0.2-0.2c0.4-0.4,0.8-0.8,1.2-1.1c0,0,0.1-0.1,0.1-0.1
	c0.2-0.5,0.7-0.9,0.9-1.5c0.2-0.5,0.4-1.1,0.6-1.7c0.1-0.2,0.1-0.4,0.1-0.6c0.1-0.5,0.3-1,0.7-1.3c0.2-0.2,0.3-0.4,0.4-0.7
	c0.1-0.4,0.4-0.8,0.8-1.1c0.2-0.1,0.3-0.3,0.3-0.5c0.1-0.3,0.3-0.6,0.6-0.9c0.2-0.2,0.3-0.3,0.4-0.5c0.2-0.5,0.4-0.9,0.6-1.4
	c0.1-0.2,0.1-0.4,0.3-0.5c0-0.1,0.1-0.1,0.1-0.2c0.1-0.3,0.2-0.6,0.4-0.8c0.2-0.2,0.4-0.4,0.6-0.7c0.2-0.3,0.5-0.5,0.8-0.5
	c0.2,0,0.3-0.1,0.4-0.1c0.2,0,0.3-0.1,0.5-0.1c0.1,0,0.1,0,0.2,0c0.3-0.2,0.6-0.3,1-0.4c0.3,0,0.6-0.1,0.9-0.3c0,0,0,0,0.1,0
	c0.6-0.3,0.8-0.3,1.3,0.2c0.2,0,0.5,0,0.8,0.1c0.3,0,0.6,0,0.9,0.2c0.1,0,0.2,0.1,0.3,0.1c0.3,0,0.6,0.2,0.7,0.5
	c0.2,0.2,0.3,0.5,0.5,0.7c0.1,0.2,0.3,0.4,0.5,0.4c0.2,0.1,0.4,0.3,0.4,0.5c0,0.2,0.1,0.4,0.4,0.5c0.5,0.3,0.9,0.8,1,1.3
	c0.1,0.3,0.3,0.5,0.4,0.8c0,0.3,0.1,0.6,0.3,0.8c0,0.1,0.1,0.2,0.1,0.3l0.3,0.1v0.5c-0.4,0.4-0.7,0.9-0.9,1.4
	c-0.1,0.3-0.3,0.7-0.5,0.9c-0.1,0.1-0.1,0.1-0.1,0.2c-0.2,0.6-0.5,1.2-0.9,1.7c-0.1,0.1-0.1,0.2-0.2,0.3c-0.1,0.1-0.2,0.2-0.2,0.3
	c0,0.3-0.3,0.5-0.3,0.8c-0.3,0.7-0.6,1.4-1,2.1c-0.1,0.2-0.2,0.3-0.3,0.4c-0.3,0.3-0.5,0.6-0.6,0.9c-0.1,0.3-0.2,0.5-0.4,0.7
	c-0.1,0.1-0.1,0.1-0.1,0.2c-0.3,0.7-0.7,1.3-1.1,2c-0.2,0.4-0.4,0.9-0.7,1.4c-0.2,0.4-0.4,0.8-0.7,1.2c-0.1,0.2-0.2,0.4-0.3,0.6
	c-0.2,0.7-0.6,1.4-1,2c0,0.1-0.1,0.1-0.1,0.2c0.1,0.4-0.3,0.6-0.5,0.9c-0.3,0.5-0.6,1-0.9,1.5c-0.3,0.4-0.5,0.9-0.8,1.3
	c-0.1,0.1-0.1,0.2-0.2,0.3c-0.4,0.8-0.8,1.6-1.1,2.4c-0.4,0.8-0.8,1.5-1.2,2.3c-0.1,0.3-0.2,0.5-0.3,0.8c-0.1,0.2-0.2,0.5-0.4,0.7
	c-0.6,0.6-1,1.4-1.1,2.3c0,0.2-0.1,0.3-0.2,0.5c-0.2,0.2-0.4,0.5-0.6,0.7c-0.2,0.2-0.4,0.4-0.4,0.7c-0.2,0.4-0.4,0.9-0.5,1.4
	c0,0.1-0.1,0.2-0.1,0.2c-0.3,0.4-0.6,0.9-0.9,1.4c-0.4,0.7-0.8,1.4-1.2,2.2c0,0.1,0,0.1-0.1,0.2c-0.6,0.8-0.8,1.7-1.4,2.5
	c-0.2,0.4-0.4,0.8-0.6,1.2C115.3,192.3,115.3,192.4,115.2,192.6z"/>
<path class="st1" d="M260.1,88.9c-0.2-0.4-0.1-1,0.1-1.3c0.1-0.1,0.1-0.2,0.1-0.4c0-1.1-0.1-2.2-0.2-3.2c0-0.9-0.2-1.7-0.8-2.4
	c-0.5-0.4-0.4-0.9-0.5-1.4c-0.2-0.5-0.6-1-0.5-1.6c0-0.2,0.1-0.4,0.2-0.6c0.1-0.2,0.1-0.4,0.2-0.5l-1.5-0.6c0.1-0.6,0.2-1.2-0.4-1.5
	c-0.6-0.3-1-0.8-1.3-1.4l0.3-0.8c-0.1-0.3-0.2-0.5-0.3-0.8c-0.3-0.6-0.1-1.5-0.9-2c0,0,0-0.1,0-0.1c0.1-0.4-0.1-0.6-0.3-0.9
	c-0.1-0.1-0.2-0.3-0.2-0.5c0.2-1-0.2-2.1,0.5-2.9c-0.2-0.5-0.7-0.9-0.6-1.5c0-0.2-0.1-0.3-0.2-0.5c-0.3-0.3-0.6-0.6-0.9-1
	c-0.2-0.2-0.4-0.5-0.6-0.9c-0.1-0.4,0-0.8-0.2-1.1c-0.2-0.3-0.4-0.6-0.7-0.9c0,0,0-0.1,0-0.1c0.1-0.6-0.4-0.8-0.7-1.1
	c0-0.2,0.1-0.3,0.1-0.5c0-0.7,0.4-1.4-0.1-2.1c-0.1-0.1,0-0.4,0.1-0.6c0.2-0.8,0.3-1.5,0.3-2.3c0-0.5,0-1,0-1.5
	c0.1-0.7,0-1.5-0.4-2.1c-0.4-0.6-0.5-1.6-1.5-1.6c-0.1,0-0.2-0.2-0.3-0.3c-0.4-0.6-1-1-1.6-1.3c-0.5-0.2-0.9-0.7-1.1-1.2
	c-0.1-0.2-0.3-0.4-0.5-0.6c-0.6-0.5-1.2-1-1.8-1.5c-0.2-0.3-0.5-0.5-0.8-0.6c-0.6-0.3-1-0.8-1.2-1.4c-0.3-0.8-0.6-1.6-1-2.3
	c-0.4-0.8-0.9-1.6-0.5-2.6c0.1-0.1-0.1-0.3-0.1-0.5c-0.1-0.2-0.2-0.5-0.3-0.7c0-0.3,0-0.6-0.1-0.9c-0.2-0.3-0.3-0.6-0.6-0.8
	c0.1-0.2,0.2-0.3,0.2-0.4c0.8-1.2,0.5-2.8-0.7-3.6c-0.1,0-0.1-0.1-0.2-0.1c-0.9-0.6-1.7-1.3-2.5-2v-0.7c-1.1-0.1-2.1-0.3-2.5-1.5
	c-0.5-0.1-0.9-0.2-1.3-0.4c-0.2-0.1-0.5-0.2-0.7-0.3c-0.5-0.5-1.1-0.8-1.8-1c-0.9-0.3-1.9-0.5-2.7-0.8c-1-0.3-2-0.8-2.9-1.3
	c-0.7-0.4-1.3-1-1.7-1.8c-0.4-0.7-1-1.3-1.8-1.6c-0.2-0.1-0.4-0.2-0.5-0.3c-0.3-0.4-0.6-0.7-1.2-0.6c-0.1,0-0.3-0.2-0.4-0.3
	c-0.6-0.5-1.3-0.9-2-1.1c-1.1,0.1-2.3-0.4-3.4,0.2c-0.5-0.2-0.9-0.6-1.2-1c-0.2-0.2-0.4-0.4-0.6-0.5c-0.9-0.5-1.8-1.2-2.5-2
	c-0.2-0.3-0.4-0.5-0.7-0.6c-0.7-0.2-1.4-0.7-1.9-1.2c-0.4-0.3-0.8-0.5-1.2-0.7c-0.7-0.2-1.4-0.6-2.1-1.1c-0.5-0.4-1.1-0.8-1.8-1.1
	c-0.6-0.4-1.2-0.8-1.7-1.2c0,0-0.1-0.1-0.1-0.1c-1.5-0.8-3.1-1.5-4.8-2c-0.2,0-0.4-0.1-0.5-0.3c-0.4-0.6-1-0.8-1.6-1.1
	c-0.7-0.4-1.5-0.7-2.2-1c-0.3-0.1-0.6-0.2-0.9-0.2c-1,0.1-2-0.2-2.8-0.9c-0.3-0.2-0.6-0.3-0.9-0.5c-0.6-0.6-1.4-0.8-2.2-0.5
	c-0.1,0-0.2,0-0.3,0c-0.7-0.2-1.4-0.2-2,0.2c-0.2,0.1-0.5,0.1-0.8,0.1c-0.2,0-0.4,0.1-0.6,0.2c-0.8,0.6-2,0.4-2.7,1.1
	c-0.1,0-0.2,0.1-0.2,0.1c-0.4-0.1-0.8-0.1-1.2,0c-0.3,0.1-0.7-0.2-1-0.3l-2.3,1.4c-0.2-0.1-0.3-0.3-0.5-0.3
	c-0.6-0.2-1.3-0.1-1.9,0.1c-0.8,0.5-1.7,0.7-2.6,0.5c-0.2,0-0.3,0-0.5,0C166.6,3,166,3,165.4,2.9c-0.5-0.1-1,0-1.4,0.2
	c-0.3,0.2-0.6,0.2-0.9,0.3c-0.6,0-1.1,0.2-1.6,0.5c-0.7,0.5-1.6,0.6-2.5,0.4c-0.5-0.1-1-0.1-1.5,0c-0.3,0.1-0.7,0.1-0.9,0
	c-0.4-0.3-1-0.4-1.5-0.2c-0.7,0.2-1.4,0-1.9-0.4c-0.1,0-0.1,0-0.2,0.1c-0.8,0.6-1.8,0.9-2.8,0.9c-0.2,0-0.5,0.2-0.6,0.4
	c-0.3,0.2-0.4,0.5-0.7,0.8c-0.2,0.2-0.4,0.3-0.7,0.3c-1.1-0.2-1.9,0.6-2.9,0.6c-0.5,0.4-1,0.3-1.6,0.2c-1-0.1-2,0.1-2.9,0.6
	c-0.8,0.4-1.5,1-2.3,1.5c-0.6,0.4-1.3,0.9-1.9,1.3c-0.2,0.2-0.5,0.2-0.7,0.2c-0.8-0.3-1.4,0.2-2.2,0.1c-0.1,0-0.3,0.1-0.3,0.1
	c-0.5,0.7-1.6,0.5-2.1,1.3c-0.1,0.1-0.3,0.1-0.5,0.1c-0.3,0.1-0.6,0.1-0.9,0.2c-0.6,0.2-1.1,0.4-1.7,0.6c-0.6,0.1-1.2,0.4-1.7,0.7
	c-0.3,0.2-0.6,0.3-1,0.2c-0.6-0.2-1.2,0-1.6,0.4c-0.6,0.6-1.5,0.7-2.3,0.3c-0.4-0.1-0.7-0.2-1.1-0.2c-0.9-0.1-1.7,0.6-1.9,1.5
	c0,0.2,0,0.3-0.1,0.5c-0.1,0.4-0.3,0.8-0.8,0.9c-0.5,0.1-0.6,0.4-0.7,0.8c-0.1,0.6-0.3,1.3-0.5,1.9c-0.1,0.3-0.2,0.5-0.4,0.6
	c-0.8,0.5-1.6,1-2.3,1.6c-0.2,0.1-0.4,0.3-0.6,0.5c-0.2,0.2-0.4,0.4-0.7,0.6c-0.2,0.1-0.3,0.3-0.5,0.4c-1,1.2-2.1,2.2-3.4,3
	c-0.5,0.3-0.9,0.7-1.2,1.1c-0.9,1.4-2,2.6-3.4,3.5c-0.1,0.1-0.2,0.1-0.3,0.3c-0.2,0.7-0.8,1-1.4,1.3c-0.5,0.3-0.5,0.8-0.9,1
	c-0.4,0.2-0.8,0.5-1.1,0.8c-0.2,0.2-0.3,0.4-0.5,0.5c-0.5-0.4-1-0.8-1.5-1.2c-1-0.8-1.1-0.8-1.7,0.3c0,0.1-0.1,0.2-0.1,0.2
	c-0.5,0.7-0.7,1.5-0.4,2.3c0.1,0.3,0.1,0.7,0,1c-0.5,1.1-0.9,2.2-1,3.5c0,0.1,0,0.3-0.1,0.4c-0.3,0.8-0.5,1.6-0.5,2.4
	c0,0.3-0.1,0.5-0.3,0.7c-0.7,0.6-1.4,1.2-2.2,1.8c-0.5,0.4-1,0.8-1.4,1.3c-0.4,0.5-0.2,1.3-0.6,1.8c-0.1,0.2-0.1,0.3,0,0.5
	c0.6,0.6,1.1,1.3,2.1,1.4c0.2,0,0.3,0,0.3,0.3c-0.1,0.1-0.2,0.2-0.4,0.2c-0.5,0.2-0.8,0.7-0.7,1.2c0.1,0.8-0.2,1.6-0.7,2.2
	c-0.4,0.4-0.6,1-0.7,1.5c-0.2,1.1-0.4,2.1-0.6,3.2c0,0.5-0.2,1-0.6,1.4c-0.1,0.2-0.2,0.4-0.2,0.6c0,1.1-0.3,2.2-0.8,3.3
	c-0.3,1.1-0.9,2-1.7,2.8c0,0.6-0.1,1.1-0.1,1.6c0,0.6-0.2,1.1-0.5,1.6c-0.1,0.2,0,0.4-0.1,0.6c0,0.3-0.1,0.5-0.2,0.7
	c-0.2,0.6-0.7,1.1-0.4,1.8c-0.6,2-0.9,4-1.6,5.9c-0.3,0.6-0.5,1.2-0.6,1.8c0,0.7-0.5,1.2-1.1,1.4c-0.5,0.2-0.9,0.7-0.7,1.2
	c0.1,0.9,0.3,1.9,0.7,2.8c0.8,1.3,1.4,2.8,2.2,4.1c0.6,1.1,1,2.4,1.2,3.7c0.1,0.7,0.3,1.4,0.7,2.1c0.4,0.7,0.7,1.4,0.8,2.2
	c0.2,0.9,0,1.8-0.4,2.6c-0.1,0.3-0.2,0.6-0.2,0.9c0,0.5-0.3,0.8-0.8,0.9c-0.6,0.1-1.1,0.6-1.2,1.2c-0.3,1.2-0.1,2.5,0.7,3.5
	c0.5,0.6,0.9,1.3,1.2,2c0.3,0.5,0.6,1,0.9,1.6c0.2,0.5,0.5,1,0.8,1.5c1,1.3,1.7,2.8,1.9,4.5c0.1,1,0.5,1.9,1.1,2.7
	c0.8,1,1.4,2,2,3.2c0.1,0.2,0.2,0.5,0.2,0.7c0,0.3,0,0.5,0.1,0.8c0.2,1,0.5,1.9,0.9,2.8c0.4,0.7,0.7,1.5,1.1,2.2
	c0.6,1.4,1.2,2.8,1.9,4.1c0.1,0.2,0.1,0.3,0.2,0.5c0.2,0.8,0.6,1.6,1.2,2.3c0.2,0.2,0.3,0.4,0.4,0.7c0.1,0.3,0.2,0.6,0.4,0.8
	c0.3,0.8,0.9,1.6,1.6,2.2c0.3,0.2,0.4,0.7,0.7,0.9c0.7,0.7,1.3,1.3,2,2c0.7,0.7,1.5,1.3,2.3,1.8c0.3,0.1,0.5,0.4,0.6,0.6
	c0.2,0.6,0.8,1.1,1.4,1.2c0.6,0.2,1.2,0.5,1.8,0.7c0.8,0.3,1.5,0.8,2.1,1.4c0.7,0.7,1.3,1.6,1.8,2.5c0.3,0.5,0.6,1,0.9,1.5
	c0.3,0.5,0.8,0.9,1.4,1.1c0.8,0.2,1.5,0.5,2.2,0.8c0.4,0.2,0.7,0.4,1,0.8c0.3,0.6,0.8,1,1.1,1.6c0.3,0.7,0.9,1.2,1.6,1.4
	c0.4,0.1,0.8,0.4,0.9,0.8c0.1,0.5,0.4,1,0.8,1.4c0.4,0.5,0.8,1,1.2,1.6c0.6,1.1,1.8,1.5,2.6,2.3c0.1,0.1,0.3,0.1,0.5,0.1
	c1-0.1,2,0.4,2.5,1.3c0.1,0.1,0.1,0.2,0.2,0.3c0.2,0.1,0.3,0.2,0.5,0.3c0.9,0.2,1.9,0.4,2.8,0.6c0.4,0.1,0.8,0.2,1.2,0.4
	c1,0.6,2.2,0.7,3.2,0.2c0.1-0.1,0.2-0.1,0.4-0.1c0.6,0,1.2,0.2,1.8,0.3c0.6,0.2,1.2,0.4,1.7,0.5c0.5,0.1,1,0.3,1.4,0.7
	c0.4,0.4,1,0.6,1.5,0.4c0.7-0.1,1.4,0,2,0.3c0.4,0.2,0.9,0.3,1.4,0.1c0.4-0.1,0.8-0.2,1.1-0.3c0.8-0.2,1.6-0.1,2.2,0.4
	c0.4,0.2,0.8,0.4,1.3,0.6c0.2,0.1,0.5,0.2,0.7,0.4c0.3,0.2,0.6,0.4,1,0.3c0.2,0,0.3,0,0.5,0.1c0.3,0.2,0.7,0.2,1,0.1
	c1.1-0.3,2.3-0.2,3.3,0.1c1,0.3,2,0.5,3.1,0.5c0.3,0,0.6,0.1,0.9,0.1c0.4,0.1,0.8,0.1,1.2,0.1c0.5-0.1,1,0,1.3,0.3
	c0.5,0.3,1,0.5,1.5,0.8c0.7,0.5,1.6,0.8,2.4,0.8c0.4,0,0.9,0.1,1.2,0.4c0.6,0.5,1.3,0.8,2,0.9c0.8,0.2,1.5,0.5,2.2,0.7
	c0.4,0.2,0.8,0.2,1.1,0.1c0.2-0.1,0.5-0.1,0.7-0.1c0.7-0.5,1.2-1,1.8-1.4c0.6-0.4,1.3-0.6,2-0.5c1.1,0.1,2.2,0.2,3.2,0.3
	c0.1,0,0.3,0,0.4,0c0.5-0.1,0.9-0.1,1.4-0.2c0.3,0,0.6-0.1,0.9-0.2c0.7-0.4,1.6-0.6,2.4-0.5c1.2,0.1,2.4,0,3.5-0.4
	c0.3-0.1,0.5-0.1,0.8-0.1c0.7-0.1,1.3-0.3,2-0.6c0.3-0.2,0.5-0.7,0.8-0.9c0.4-0.2,1-0.2,1.3-0.5c0.9-0.7,1.9-1.1,2.7-1.7
	c1-0.7,2.1-1,3.3-1c1,0,2,0,3,0c0.4,0,0.9-0.1,1.2-0.3c1-0.6,1.9-1.3,2.8-2c0.3-0.4,0.9-0.6,1.4-0.4c0.4,0.1,0.9,0.1,1.3-0.1
	c0.8-0.4,1.5-0.8,2.2-1.3c0.9-0.8,2-1.4,3.1-1.8c0.8-0.2,1.5-0.7,2-1.3c0.4-0.6,1-1.2,1.6-1.6c0.7-0.5,1.3-1.1,1.8-1.8
	c0.2-0.4,0.8-0.5,1.1-0.8c0.4-0.3,0.4-0.9,0.9-1.2c0.6-0.3,1-1,1-1.7c0-1.2,0.3-1.6,1.5-1.7c0.7-0.1,1.4-0.4,2-0.8
	c0.4-0.3,0.8-0.5,1.2-0.7c0.1-0.1,0.4-0.1,0.4-0.2c0.4-0.5,1-0.8,1.7-0.9c0.5-0.1,0.9-0.5,1-1.1c0.1-0.4,0.2-0.7,0.3-1.1
	c0.8-0.6,1.6-1.1,2.3-1.7c0.2-0.1,0.4-0.3,0.5-0.6c0.3-0.7,0.7-1.3,1.2-1.8c0.1-0.1,0.1-0.2,0.2-0.3c0.4-0.6,0.8-1.2,1.2-1.7
	c0.5-0.7,0.9-1.4,1.1-2.3c0.2-0.5,0.3-1,0.4-1.5c0.1-0.7,0.7-1.2,1.4-1.4c0.6-0.1,1.1-0.4,1.6-0.8c0.9-0.6,1.6-1.4,2.3-2.2
	c0.2-0.4,0.6-0.6,1.1-0.7c0.3-0.1,0.6-0.2,0.8-0.4c1.4-1,1.9-2.6,2.8-4c0.1-0.1,0-0.3,0.1-0.4c0.2-0.6,0.3-1.2,0.5-1.7
	c0.2-0.4,0.2-0.8,0.2-1.3c-0.2-0.6,0.1-1.2,0.6-1.6c0.5-0.5,0.8-1.1,0.9-1.8c0-0.9,0.3-1.8,0.9-2.5c-0.3-0.7-0.2-1.6,0.2-2.3
	c0.4-0.7,0.7-1.4,0.9-2.1c0.5-1.2,0.6-2.5,0.5-3.8c-0.1-0.8,0-1.6,0.5-2.3c0.2-0.3,0.4-0.7,0.6-1c0.6-1.1,0.8-2.4,0.8-3.6
	c-0.1-0.6-0.1-1.2,0-1.8c0-0.6,0.2-1.2,0.5-1.7c0.1-0.2,0.1-0.4,0.1-0.6c0-0.5-0.1-0.9-0.2-1.4c-0.1-0.4-0.2-0.9,0.1-1.3
	c0.5-0.7,0.4-1.5,0.8-2.2c0.1-0.3,0.1-0.6,0.1-0.9c0-0.4,0-0.8-0.1-1.2c-0.1-0.4-0.1-0.9,0.2-1.2c0.2-0.4,0.3-0.8,0.2-1.3
	c-0.1-0.2-0.1-0.3,0-0.5C260.4,90.1,260.4,89.5,260.1,88.9z M242.7,83.1c-0.5,0.2-0.8,0.7-0.7,1.3c0,0.5-0.1,1-0.3,1.5
	c-0.4,1.6-0.4,3.2-0.6,4.9c0.3,0.5,0,1-0.1,1.5c0,0.2-0.1,0.4-0.1,0.6c0,0.2,0.1,0.4,0,0.5c-0.2,0.4-0.2,0.9-0.2,1.3
	c0.1,0.4,0.1,0.8,0.1,1.3c-0.6,0.7-1,1.5-1.1,2.4c-0.3,0.9-0.3,1.8-0.3,2.7c0,0.2,0,0.3-0.1,0.5c-0.3,0.3-0.4,0.8-0.3,1.2
	c0,0.9,0,1.7-0.1,2.6c0,0.5-0.2,0.9-0.4,1.3c-0.3,0.5-0.4,1.2-0.3,1.8c0.1,0.4-0.1,0.8-0.4,1.1c-0.1,0.1-0.2,0.1-0.3,0.2
	c0,0.2,0.2,0.2,0.3,0.2c0.7,0,1.4,0.3,1.8,0.9c0.1,0.1,0.1,0.3,0.1,0.4c-0.3,0.5,0,1-0.3,1.5c-0.2,0.5-0.6,0.9-1,1.2
	c-0.5,0.5-1.1,1.1-1.5,1.7c-0.1,0.2-0.2,0.4-0.2,0.6c0.1,0.7,0,1.3-0.2,2c0,0.1-0.1,0.2,0,0.3c0.1,1-0.1,1.9-0.4,2.9
	c-0.1,0.3,0,0.6,0.1,0.8c0.3,0.6,0.3,1.3-0.1,1.9c0,0.1-0.1,0.1-0.1,0.2c-0.3,0.9-0.4,1-1.3,0.4c-0.4-0.3-0.8-0.5-1.3-0.8
	c-0.1,0.2-0.3,0.3-0.4,0.5c-0.2,0.3-0.5,0.6-0.8,0.8c-0.3,0.2-0.3,0.7-0.6,0.9c-0.4,0.3-0.9,0.6-1,1.2c0,0.1-0.1,0.2-0.2,0.2
	c-1,0.8-1.8,1.9-2.3,3.1c-0.2,0.4-0.5,0.7-0.9,1c-0.9,0.8-1.7,1.7-2.4,2.8c-0.1,0.1-0.2,0.3-0.3,0.4c-0.2,0.2-0.3,0.4-0.5,0.5
	c-0.1,0.2-0.3,0.3-0.4,0.4c-0.5,0.5-1.1,1-1.7,1.5c-0.2,0.1-0.2,0.3-0.3,0.5c-0.1,0.5-0.2,1-0.2,1.6c0,0.3-0.1,0.6-0.5,0.7
	c-0.3,0.1-0.6,0.4-0.6,0.8c0,0.1,0,0.3,0,0.4c0,0.7-0.6,1.3-1.3,1.4c-0.3,0-0.6,0-0.9-0.1c-0.6-0.3-1.4-0.1-1.8,0.5
	c-0.3,0.4-0.7,0.6-1.2,0.5c-0.3-0.1-0.6,0-0.8,0.2c-0.4,0.3-0.8,0.6-1.2,0.7c-0.4,0.2-0.9,0.5-1.3,0.7c-0.2,0.1-0.4,0.2-0.7,0.3
	c-0.1,0.1-0.3,0.1-0.4,0.2c-0.3,0.7-1.2,0.6-1.5,1.2c-0.1,0.1-0.2,0.1-0.3,0.2c-0.6,0-1.1,0.5-1.7,0.3c-0.2,0-0.4,0.1-0.5,0.2
	c-0.5,0.4-0.9,0.8-1.4,1.3c-0.5,0.5-1.1,1-1.7,1.4c-0.7,0.5-1.4,0.7-2.3,0.8c-0.5,0-0.9,0-1.3,0.4c-0.8,0.1-1.4,0.8-2.2,0.8
	c-0.2,0-0.4,0.2-0.5,0.3c-0.2,0.2-0.3,0.5-0.5,0.7c-0.1,0.2-0.3,0.4-0.5,0.4c-0.8,0.2-1.5,0.5-2.1,1.1c-0.1,0-0.1,0-0.2,0.1
	c-0.5-0.3-1.1-0.3-1.6-0.1c-0.4,0.2-0.8,0.2-1.2,0c-0.2-0.1-0.5,0-0.7,0.1c-0.4,0.2-0.8,0.2-1.2,0.2c-0.7-0.1-1.4,0.1-1.9,0.6
	c-0.3,0.3-0.7,0.5-1.2,0.6c-0.2,0.1-0.5,0.2-0.7,0.3c-0.3,0.2-0.7,0.3-1.1,0.3c-0.5,0-1,0-1.5,0.1c-0.1,0-0.3,0-0.4,0
	c-0.7-0.1-1.5,0.2-2,0.7c-0.5,0.3-1,0.4-1.5,0.3c-0.1,0-0.2-0.1-0.4-0.2l-1.7,1.4c-0.3,0-0.6-0.2-0.8-0.1c-0.3,0.1-0.6,0.1-0.9,0.1
	c-0.1,0-0.1,0-0.2,0.1c-0.6,0.6-1.5,0.6-2.1,1.2c-0.1,0.1-0.3,0.2-0.5,0.2c-0.2,0-0.4,0.1-0.6,0.2c-0.5,0.3-1,0.5-1.6,0.3
	c-0.1,0-0.1,0-0.2,0c-0.6,0.3-1.3,0.2-1.8-0.2c-0.2-0.1-0.5-0.2-0.8-0.3c-0.7-0.5-1.5-0.6-2.3-0.4c-0.2,0-0.5,0-0.7,0
	c-0.6-0.2-1.3-0.4-1.9-0.6c-0.5-0.2-1-0.2-1.4-0.7c-0.1-0.1-0.3-0.2-0.5-0.2c-1.4-0.2-2.7-0.6-4-1.1c0,0-0.1,0-0.1,0
	c-0.5-0.3-1-0.6-1.5-0.8c-0.5-0.2-1-0.4-1.5-0.7c-0.6-0.3-1.1-0.5-1.8-0.6c-0.4-0.1-0.7-0.2-1.1-0.4c-0.5-0.4-1.1-0.7-1.7-0.8
	c-0.2-0.1-0.4-0.2-0.6-0.4c-0.7-0.5-1.4-1-2.2-1.3c-0.2-0.1-0.4-0.2-0.5-0.3c-0.3-0.3-0.6-0.6-1.1-0.7c-0.8,0.6-1.8,0.3-2.7,0.5
	c-0.6-0.1-1.2-0.4-1.7-0.7c-0.1-0.1-0.3-0.2-0.3-0.2c-0.5,0.2-0.7,0-1-0.3c-0.1-0.1-0.3-0.2-0.5-0.2c-0.6-0.2-1.2-0.6-1.6-1.1
	c-0.4-0.5-0.9-0.9-1.5-1.2c-0.8-0.3-1.6-0.6-2.5-0.7c-0.7-0.2-1.5-0.2-2.3-0.4c-0.6-0.1-1.1-0.3-1.6-0.6c-0.2-0.1-0.4-0.2-0.6-0.2
	c-0.3-0.1-0.7-0.1-1.1-0.2c-0.4-0.9-1.3-0.9-2.2-0.9l-0.1-0.6c-0.7-0.4-1.5-0.9-2.2-1.3c-1.1-0.4-1.6-1.6-1.2-2.7
	c0-0.1,0.1-0.1,0.1-0.2c0-0.1,0.1-0.2,0.1-0.3c-0.2-0.2-0.4-0.4-0.5-0.6c-0.1-0.2-0.1-0.5-0.2-0.7c-0.1-0.2-0.2-0.4-0.3-0.6
	c-0.1-0.1-0.2-0.3-0.1-0.4c0.2-0.8-0.3-1.4-0.7-2c-0.4-0.6-0.8-1.2-1.1-1.8c-0.2-0.5-0.6-0.8-1.1-1c-0.3-0.1-0.5-0.2-0.7-0.4
	c-0.5-0.4-1.1-0.7-1.6-1c-0.2-0.1-0.3-0.2-0.5-0.4c-0.2-0.4-0.6-0.7-1-0.8c-0.5-0.2-1-0.5-1.4-0.9c-0.1-0.1-0.2-0.2-0.2-0.2
	c-0.8,0.1-1-0.7-1.4-1.1c-0.4-0.5-0.6-1-0.6-1.6c0-0.4-0.1-0.8-0.2-1.2c-0.1-0.6-0.1-1.2,0-1.9c0-0.2,0.1-0.4,0-0.5
	c-0.5-0.5-0.2-1.1-0.3-1.7c0-0.1,0-0.3,0-0.4c-0.3-0.2-0.7-0.3-0.7-0.8c0,0,0-0.1,0-0.1c-0.2-0.2-0.5-0.4-0.6-0.6
	c-0.1-0.3-0.1-0.6-0.2-0.9c-0.1-0.2-0.3-0.4-0.5-0.6c-0.3-0.2-0.5-0.4-0.8-0.7c-0.1-0.1-0.2-0.2-0.2-0.3c0-0.5-0.4-0.7-0.6-1.1
	c0.5-0.8,0-1.6,0.1-2.4c0-0.1-0.1-0.3-0.2-0.4c-0.2-0.2-0.4-0.4-0.3-0.7c0,0,0-0.1,0-0.1c-0.6-0.3-0.6-1-0.9-1.5
	c-0.1-0.2-0.2-0.4-0.4-0.6l0.1-0.7c-0.3-0.4-0.7-0.8-1.2-1c-0.5-0.1-0.5-0.6-0.5-1.1l-1.3-0.3c0-0.2,0.1-0.3,0.1-0.5
	c0-0.2,0.1-0.3,0.1-0.5c0-0.5-0.4-0.8-0.5-1.2c-0.2-0.4-0.2-0.8-0.6-1.1c-0.5-0.5-0.8-1.1-0.9-1.8c-0.2-0.8-0.3-1.7-0.5-2.6
	c0-0.1,0-0.2,0-0.3c0.2-0.3,0.2-0.8,0-1.1c-0.3-0.4-0.3-0.9-0.2-1.4c0-0.1,0-0.3-0.1-0.4c-0.1-0.3-0.1-0.7,0-1c0.1-0.3,0.1-0.7,0-1
	c-0.1-0.3-0.2-0.6-0.2-0.9c-0.1-0.2-0.1-0.5,0-0.7c0.2-0.6,0.1-1.2,0.4-1.8c0.2-0.3,0-0.7-0.1-1c-0.1-0.4-0.2-0.7-0.3-1.1
	c0-0.2,0-0.3,0-0.5c0.2-0.5,0.2-1,0.2-1.4c0-0.5-0.1-1-0.2-1.4c-0.2-1-0.1-2,0.2-3c0.1-0.3,0.2-0.6,0.3-0.9c0.3-0.6,0.3-1.3,0.1-1.9
	c-0.3-1-0.3-2.1,0-3.1c0.1-0.6,0.2-1.2,0.5-1.8c0.2-0.6,0.2-1.3-0.1-1.8c0.4-0.6,0.6-1.4,0.5-2.1c0-0.6,0.1-1.1,0.5-1.5
	c0.4-0.4,0.5-0.9,0.3-1.4c-0.1-0.3-0.1-0.7,0-1c0.1-0.5,0.2-1,0.2-1.4c0-0.1,0-0.2,0-0.3c0.6-1.2,0.8-2.5,1.8-3.5
	c0.2-0.2,0.4-0.3,0.6-0.4c0.3-0.1,0.6-0.4,0.8-0.7c0.4-0.7,1-1.4,1.6-2c0.3-0.4,0.7-0.7,1.2-0.8c0.6-0.2,0.9-0.7,1-1.2
	c0.1-0.4,0.1-0.8,0.2-1.2c0.1-0.7,0.3-1.3,0.6-1.9c0.3-0.5,0.6-1,0.8-1.5c0-0.1,0.1-0.2,0.1-0.3c0.4-0.4,0.7-1,0.8-1.6
	c0.1-0.2,0.2-0.4,0.3-0.5c0.5-0.5,1.1-1.1,1.7-1.6c0-0.3,0.1-0.6,0.1-0.9c0-0.4,0.3-0.8,0.7-1c0.5-0.1,0.9-0.5,1.2-0.9
	c0.1-0.1,0.2-0.2,0.3-0.2c0.3-0.2,0.6-0.5,0.9-0.7c0.4-0.4,0.9-0.7,1.5-0.9c0.9-0.2,1.1-0.5,1-1.5c-0.1-0.6,0.1-1.1,0.6-1.5
	c0.4-0.3,0.3-0.8,0.6-1.1c0.3-0.3,0.7-0.5,0.8-0.8c0.3-0.6,0.7-1.2,1.3-1.6c0.5-0.4,0.9-0.9,1.1-1.5c0.3-0.6,0.8-1,1.5-1.3
	c0.9-0.5,1.6-1.1,2.3-1.8c0.5-0.5,1-0.9,1.6-1.3c0.3-0.2,0.6-0.3,1-0.3c0.4,0.1,0.9-0.1,1.1-0.5c0.6-0.7,1.3-1.4,2-2
	c0.3-0.2,0.6-0.3,1-0.4c0.8-0.1,1.6-0.2,2.4-0.3c0.9-0.1,1.8-0.5,2.5-1.2c0.6-0.6,1.4-1,2-1.7c0.2-0.3,0.7-0.3,1-0.5
	c0.2-0.2,0.3-0.7,0.6-0.8c0.5-0.3,1-0.5,1.5-0.7c0.2,0,0.4-0.1,0.6-0.2c0.8-0.4,1.8-0.7,2.7-0.7c0.7-0.1,1.3-0.3,1.8-0.7
	c0.2-0.1,0.4-0.2,0.7-0.3c0.4-0.1,0.7-0.2,1.1-0.3c0.1,0,0.2-0.1,0.3-0.1c0.9,0,1.7,0,2.6-0.1c0.6,0,1.1-0.3,1.5-0.6
	c0.4-0.4,0.8-0.8,1.3-1.3c0.2,0,0.4-0.1,0.6-0.2c0.3-0.1,0.6-0.1,0.9,0c0.6,0.1,1.2,0.3,1.9,0.3c0.6,0,1.2,0.2,1.7,0.5
	c0.3,0.2,0.7,0.3,1,0.2c0.7-0.1,1.4,0.1,2,0.4c0.4,0.2,0.9,0.3,1.3,0.5c0.3,0.2,0.7,0.2,1.1,0.1c0.3-0.1,0.6-0.1,0.9-0.1
	c0.2,0,0.5,0,0.7,0c0.8-0.1,1.7-0.1,2.5,0.1c0.9,0.1,1.8,0.1,2.7-0.3c0.3-0.1,0.5-0.1,0.8,0c0.1,0.1,0.3,0.1,0.4,0.1
	c0.3-0.1,0.6,0,0.8,0.1c0.2,0.1,0.4,0.2,0.6,0.2c0.4,0.1,0.7,0.2,1.1,0.3c0.6,0.3,1.2,0.3,1.8,0.1c0.3-0.1,0.6-0.2,0.9-0.4
	c0.3-0.2,0.8-0.2,1.1,0c0.5,0.2,1.1,0.2,1.6,0c0.4-0.2,0.9-0.1,1.3,0.2c0.3,0.3,0.7,0.4,1.2,0.4c0.5,0,1,0.1,1.4,0.2
	c0.5,0.1,1,0.1,1.5,0.1c0.1,0,0.2,0,0.3-0.1c0.8-0.5,1.8-0.5,2.6-0.2c0.3,0.1,0.7,0.2,1,0.2c0.8,0.1,1.5,0.1,2.3,0.1
	c0.2,0,0.3,0.1,0.5,0.2c0.1,0.1,0.2,0.1,0.2,0.2c0.5,0.6,1.4,0.9,2.2,0.7c0.1,0,0.3,0,0.4,0c0.7,0.6,1.7,0.7,2.3,1.5
	c0.3,0.4,0.7,0.8,1.1,1.1c0.4,0.3,0.7,0.6,0.8,1.1c0.1,0.3,0.5,0.6,0.8,0.6c0.6,0.1,1.1,0.4,1.5,0.9c0.3,0.4,0.8,0.7,1.1,1.2
	c0.2,0.3,0.5,0.4,0.9,0.5c0.6,0.2,1.2,0.3,1.8,0.4c0.5,0.1,0.9,0.3,1.2,0.7c0.3,0.4,0.6,0.7,0.8,1.1c0.5,0.7,1.1,1.3,1.7,1.8
	c0.6,0.4,1.2,0.7,1.9,0.9c0.5,0.2,1,0.3,1.5,0.4c0.5,0.1,1,0.4,1.2,0.8c0.1,0.2,0.3,0.3,0.6,0.4c0.7,0.3,1.4,0.7,2.1,1.2
	c0.6,0.4,1.2,0.9,1.8,1.4c0.2,0.2,0.4,0.5,0.7,0.7c0.6,0.4,1.1,0.9,1.5,1.6c0.1,0.2,0.3,0.4,0.4,0.6c0.1,0.2,0.2,0.4,0.4,0.5
	c0.5,0.5,1,1,1.2,1.7c0.1,0.1,0.1,0.2,0.2,0.4c0.7,1,1.4,2,2,3.1c0.3,0.6,0.7,1.1,1.1,1.7c0.4,0.7,0.8,1.4,1.1,2.2
	c0.1,0.2,0.1,0.4,0.1,0.6c0.1,0.2,0.1,0.4,0.3,0.6c0.6,0.8,1.2,1.6,1.9,2.3c0.6,0.6,1,1.3,1.2,2c0.4,1.3,1.1,2.4,2,3.4
	c0.3,0.3,0.6,0.7,0.8,1.1c0.2,0.4,0.5,0.8,0.9,1.2c0.4,0.5,0.8,1,1.2,1.4c0.7,0.7,1,1.7,0.9,2.7c0,0.5-0.4,1-0.9,1.1
	c-0.4,0.1-0.6,0.4-0.5,0.8c0,0.2,0,0.5-0.1,0.7c-0.3,0.7-0.3,1.4,0,2.1c0.2,0.6,0.5,1.1,0.9,1.6c0.3,0.5,0.6,1,0.8,1.6
	c0.3,1,0.7,2,1.3,2.8c0.8,1,1.5,2,2.2,3c0.4,0.7,0.7,1.4,0.9,2.1C243.3,82.4,243.1,82.9,242.7,83.1L242.7,83.1z"/>
<path class="st2" d="M242.3,79.9c-0.8-1-1.5-2.1-2.2-3c-0.6-0.8-1.1-1.8-1.3-2.8c-0.2-0.6-0.4-1.1-0.8-1.6c-0.4-0.5-0.7-1-0.9-1.6
	c-0.2-0.7-0.2-1.4,0-2.1c0.1-0.2,0.1-0.5,0.1-0.7c-0.1-0.4,0.2-0.7,0.5-0.8c0.5-0.1,0.8-0.6,0.9-1.1c0.1-1-0.2-2-0.9-2.7
	c-0.4-0.4-0.8-0.9-1.2-1.4c-0.3-0.4-0.6-0.7-0.9-1.2c-0.2-0.4-0.5-0.8-0.8-1.1c-0.9-0.9-1.6-2.1-2-3.4c-0.2-0.8-0.6-1.5-1.2-2
	c-0.7-0.7-1.4-1.5-1.9-2.3c-0.1-0.2-0.2-0.4-0.3-0.6c0-0.2-0.1-0.4-0.1-0.6c-0.3-0.7-0.6-1.5-1.1-2.2c-0.4-0.5-0.8-1.1-1.1-1.7
	c-0.6-1.1-1.3-2.1-2-3.1c-0.1-0.1-0.2-0.2-0.2-0.4c-0.3-0.6-0.7-1.2-1.2-1.7c-0.1-0.1-0.3-0.3-0.4-0.5c-0.1-0.2-0.2-0.4-0.4-0.6
	c-0.4-0.6-0.9-1.2-1.5-1.6c-0.3-0.1-0.4-0.5-0.7-0.7c-0.6-0.5-1.2-0.9-1.8-1.4c-0.6-0.5-1.3-0.9-2.1-1.2c-0.2-0.1-0.4-0.2-0.6-0.4
	c-0.3-0.5-0.7-0.8-1.2-0.8c-0.5-0.1-1-0.2-1.5-0.4c-0.7-0.2-1.3-0.5-1.9-0.9c-0.7-0.5-1.2-1.1-1.7-1.8c-0.3-0.4-0.6-0.7-0.8-1.1
	c-0.3-0.4-0.7-0.6-1.2-0.7c-0.6-0.1-1.2-0.2-1.8-0.4c-0.3-0.1-0.6-0.3-0.9-0.5c-0.3-0.5-0.7-0.7-1.1-1.2c-0.3-0.5-0.9-0.8-1.5-0.9
	c-0.4,0-0.7-0.2-0.8-0.6c-0.2-0.4-0.4-0.8-0.8-1.1c-0.4-0.3-0.8-0.7-1.1-1.1c-0.6-0.8-1.6-1-2.3-1.5c-0.1-0.1-0.3-0.1-0.4,0
	c-0.8,0.2-1.6-0.1-2.2-0.7c-0.1-0.1-0.1-0.2-0.2-0.2c-0.1-0.1-0.3-0.2-0.5-0.2c-0.8-0.1-1.5-0.1-2.3-0.1c-0.3,0-0.7-0.1-1-0.2
	c-0.8-0.4-1.8-0.3-2.6,0.2c-0.1,0.1-0.2,0.1-0.3,0.1c-0.5,0-1,0-1.5-0.1c-0.5-0.1-1-0.2-1.4-0.2c-0.4,0-0.8-0.1-1.2-0.4
	c-0.4-0.3-0.9-0.4-1.3-0.2c-0.5,0.2-1.1,0.2-1.6,0c-0.4-0.1-0.8-0.1-1.1,0c-0.3,0.1-0.6,0.2-0.9,0.4c-0.6,0.2-1.3,0.2-1.8-0.1
	c-0.4-0.1-0.7-0.2-1.1-0.3c-0.2,0-0.4-0.1-0.6-0.2c-0.2-0.2-0.5-0.2-0.8-0.1c-0.1,0-0.3,0-0.4-0.1c-0.3-0.1-0.5-0.1-0.8,0
	c-0.9,0.3-1.8,0.4-2.7,0.3c-0.8-0.2-1.7-0.2-2.5-0.1c-0.2,0-0.5,0-0.7,0c-0.3,0-0.6,0-0.9,0.1c-0.4,0.1-0.8,0.1-1.1-0.1
	c-0.4-0.2-0.9-0.3-1.3-0.5c-0.6-0.3-1.3-0.4-2-0.4c-0.3,0.1-0.7,0-1-0.2c-0.5-0.3-1.1-0.5-1.7-0.5c-0.6-0.1-1.2-0.2-1.9-0.3
	c-0.3-0.1-0.6-0.1-0.9,0c-0.2,0.1-0.4,0.1-0.6,0.2c-0.5,0.5-0.9,0.9-1.3,1.3c-0.4,0.4-1,0.6-1.5,0.6c-0.9,0.1-1.7,0.1-2.6,0.1
	c-0.1,0-0.2,0-0.3,0.1c-0.4,0.1-0.7,0.2-1.1,0.3c-0.2,0.1-0.5,0.2-0.7,0.3c-0.5,0.4-1.2,0.6-1.8,0.7c-0.9,0-1.9,0.3-2.7,0.7
	c-0.2,0.1-0.4,0.1-0.6,0.2c-0.5,0.2-1,0.4-1.5,0.7c-0.3,0.2-0.3,0.6-0.6,0.8c-0.3,0.2-0.8,0.3-1,0.5c-0.6,0.6-1.4,1.1-2,1.7
	c-0.7,0.6-1.6,1-2.5,1.2c-0.8,0.1-1.6,0.2-2.4,0.3c-0.3,0-0.7,0.1-1,0.4c-0.7,0.6-1.4,1.3-2,1.9c-0.2,0.4-0.7,0.6-1.1,0.5
	c-0.3-0.1-0.7,0-1,0.3c-0.6,0.4-1.1,0.8-1.6,1.3c-0.7,0.7-1.4,1.3-2.3,1.8c-0.6,0.3-1.1,0.7-1.5,1.3c-0.3,0.6-0.7,1.1-1.1,1.5
	c-0.5,0.5-1,1-1.3,1.6c-0.1,0.3-0.6,0.5-0.8,0.8c-0.3,0.3-0.2,0.8-0.6,1.1c-0.5,0.3-0.7,0.9-0.6,1.5c0.1,1-0.1,1.3-1,1.5
	c-0.6,0.2-1.1,0.5-1.5,0.9c-0.3,0.3-0.6,0.5-0.9,0.7c-0.1,0.1-0.3,0.1-0.3,0.2c-0.3,0.4-0.7,0.8-1.2,0.9c-0.4,0.1-0.7,0.5-0.7,1
	c0,0.3-0.1,0.6-0.1,0.9c-0.6,0.6-1.1,1.1-1.7,1.6c-0.2,0.1-0.3,0.3-0.3,0.5c-0.1,0.6-0.4,1.1-0.8,1.6c-0.1,0.1-0.1,0.2-0.1,0.3
	c-0.2,0.5-0.5,1-0.8,1.5c-0.3,0.6-0.6,1.3-0.6,1.9c-0.1,0.4-0.1,0.8-0.2,1.2c0,0.6-0.4,1.1-1,1.2c-0.5,0.2-0.9,0.5-1.2,0.8
	c-0.6,0.6-1.2,1.3-1.6,2c-0.2,0.3-0.4,0.6-0.8,0.7c-0.2,0.1-0.4,0.2-0.6,0.4c-1,1-1.2,2.3-1.8,3.5c0,0.1,0,0.2,0,0.3
	c-0.1,0.5-0.1,1-0.2,1.4c-0.1,0.3-0.1,0.7,0,1c0.2,0.5,0.1,1-0.3,1.4c-0.4,0.4-0.5,1-0.5,1.5c0.1,0.7,0,1.5-0.5,2.1
	c0.3,0.6,0.4,1.2,0.1,1.8c-0.2,0.6-0.4,1.2-0.5,1.8c-0.2,1-0.2,2.1,0,3.1c0.2,0.6,0.1,1.3-0.1,1.9c-0.1,0.3-0.2,0.6-0.3,0.9
	c-0.3,1-0.4,2-0.2,3c0.1,0.5,0.2,0.9,0.2,1.4c0.1,0.5,0,1-0.2,1.4c-0.1,0.2-0.1,0.3,0,0.5c0.1,0.4,0.2,0.7,0.3,1.1
	c0.1,0.3,0.3,0.7,0.1,1c-0.3,0.6-0.2,1.2-0.4,1.8c0,0.2,0,0.5,0,0.7c0,0.3,0.1,0.6,0.2,0.9c0.1,0.3,0.2,0.7,0,1
	c-0.1,0.3-0.1,0.7,0,1c0,0.1,0.1,0.3,0.1,0.4c-0.1,0.5-0.1,1,0.2,1.4c0.2,0.3,0.2,0.7,0,1.1c0,0.1,0,0.2,0,0.3
	c0.2,0.9,0.3,1.7,0.5,2.6c0.1,0.7,0.4,1.4,0.9,1.8c0.4,0.3,0.4,0.7,0.6,1.1c0.2,0.4,0.6,0.7,0.5,1.2c0,0.2,0,0.3-0.1,0.5
	c0,0.2-0.1,0.3-0.1,0.5l1.3,0.3c0,0.5,0,1,0.5,1.1c0.5,0.2,0.9,0.5,1.2,1l-0.1,0.7c0.1,0.2,0.3,0.4,0.4,0.6c0.3,0.5,0.3,1.2,0.9,1.5
	c0,0,0,0.1,0,0.1c-0.1,0.3,0.1,0.5,0.3,0.7c0.1,0.1,0.2,0.2,0.2,0.4c-0.1,0.8,0.4,1.7-0.1,2.4c0.2,0.4,0.6,0.6,0.6,1.1
	c0,0.1,0.1,0.3,0.2,0.3c0.3,0.2,0.5,0.4,0.8,0.7c0.2,0.2,0.4,0.4,0.5,0.6c0.1,0.3,0.1,0.6,0.2,0.9c0.2,0.2,0.4,0.5,0.6,0.6
	c0,0,0,0.1,0,0.1c0,0.4,0.4,0.6,0.7,0.8c0,0.1,0,0.3,0,0.4c0.1,0.6-0.2,1.2,0.3,1.7c0.1,0.1,0,0.3,0,0.5c-0.1,0.6-0.1,1.2,0,1.9
	c0.1,0.4,0.2,0.8,0.2,1.2c0,0.6,0.2,1.2,0.6,1.6c0.4,0.4,0.6,1.2,1.4,1.1c0.1,0,0.2,0.1,0.2,0.2c0.4,0.4,0.9,0.7,1.4,0.9
	c0.4,0.1,0.8,0.4,1,0.8c0.1,0.2,0.3,0.3,0.5,0.4c0.5,0.3,1.1,0.6,1.6,1c0.2,0.2,0.5,0.3,0.7,0.4c0.5,0.1,0.9,0.5,1.1,1
	c0.3,0.6,0.7,1.2,1.1,1.8c0.4,0.6,0.9,1.2,0.7,2c0,0.1,0.1,0.3,0.1,0.4c0.1,0.2,0.2,0.4,0.3,0.6c0,0.2,0.1,0.5,0.2,0.7
	c0.2,0.2,0.3,0.4,0.5,0.6c-0.1,0.2-0.1,0.3-0.1,0.3c-0.5,1-0.1,2.3,0.9,2.8c0.1,0,0.1,0.1,0.2,0.1c0.8,0.4,1.5,0.9,2.2,1.3l0.1,0.6
	c0.9,0,1.7,0,2.2,0.9c0.4,0.1,0.7,0.1,1.1,0.2c0.2,0,0.4,0.1,0.6,0.2c0.5,0.3,1,0.5,1.6,0.6c0.8,0.1,1.5,0.2,2.3,0.4
	c0.9,0.1,1.7,0.4,2.5,0.7c0.6,0.3,1.1,0.7,1.5,1.2c0.4,0.5,1,0.9,1.6,1.1c0.2,0,0.3,0.1,0.5,0.2c0.3,0.3,0.6,0.5,1,0.3
	c0.1,0,0.2,0.1,0.3,0.2c0.5,0.3,1.1,0.5,1.7,0.7c0.9-0.2,1.9,0.1,2.7-0.5c0.4,0.1,0.8,0.4,1.1,0.7c0.1,0.1,0.3,0.2,0.5,0.3
	c0.8,0.3,1.6,0.8,2.2,1.3c0.2,0.2,0.4,0.3,0.6,0.4c0.6,0.1,1.2,0.4,1.7,0.8c0.3,0.2,0.7,0.3,1.1,0.4c0.6,0.1,1.2,0.3,1.8,0.6
	c0.5,0.3,1,0.5,1.5,0.7c0.5,0.2,1,0.5,1.5,0.8c0,0,0.1,0,0.1,0c1.3,0.5,2.7,0.8,4,1.1c0.2,0,0.3,0.1,0.5,0.2
	c0.4,0.5,0.9,0.5,1.4,0.7c0.6,0.2,1.3,0.4,1.9,0.6c0.2,0.1,0.5,0.1,0.7,0c0.8-0.2,1.6,0,2.3,0.4c0.2,0.1,0.5,0.2,0.8,0.3
	c0.5,0.4,1.2,0.5,1.8,0.2c0.1,0,0.1,0,0.2,0c0.6,0.1,1.1,0,1.6-0.3c0.2-0.1,0.4-0.1,0.6-0.2c0.2,0,0.3-0.1,0.5-0.2
	c0.6-0.5,1.5-0.6,2.1-1.2c0.1,0,0.1-0.1,0.2-0.1c0.3,0,0.6,0,0.9-0.1c0.2-0.1,0.6,0.1,0.8,0.1l1.7-1.4c0.2,0.1,0.3,0.2,0.4,0.2
	c0.5,0.1,1,0,1.5-0.3c0.6-0.5,1.3-0.7,2-0.7c0.1,0,0.3,0,0.4,0c0.5,0,1-0.1,1.5-0.1c0.4,0,0.8-0.1,1.1-0.3c0.2-0.1,0.4-0.3,0.7-0.3
	c0.4-0.1,0.9-0.3,1.2-0.6c0.5-0.5,1.2-0.7,1.9-0.6c0.4,0.1,0.8,0,1.2-0.2c0.2-0.1,0.5-0.2,0.7-0.1c0.4,0.2,0.8,0.2,1.2,0
	c0.5-0.2,1.1-0.2,1.6,0.1c0.1,0,0.1,0,0.2-0.1c0.6-0.5,1.3-0.9,2.1-1.1c0.2,0,0.3-0.2,0.5-0.4c0.2-0.2,0.3-0.5,0.5-0.7
	c0.1-0.1,0.3-0.3,0.5-0.3c0.9,0,1.5-0.7,2.2-0.8c0.3-0.4,0.8-0.3,1.3-0.4c0.8,0,1.6-0.3,2.3-0.8c0.6-0.4,1.1-0.9,1.7-1.4
	c0.5-0.4,0.9-0.9,1.4-1.3c0.1-0.1,0.3-0.2,0.5-0.2c0.6,0.2,1.1-0.3,1.7-0.3c0.1,0,0.2-0.1,0.3-0.2c0.3-0.6,1.2-0.6,1.5-1.2
	c0-0.1,0.2-0.1,0.4-0.2c0.2-0.1,0.5-0.2,0.7-0.3c0.4-0.2,0.9-0.5,1.3-0.7c0.5-0.2,0.9-0.4,1.2-0.7c0.2-0.2,0.5-0.3,0.8-0.2
	c0.5,0.1,0.9-0.1,1.2-0.5c0.4-0.6,1.1-0.8,1.8-0.5c0.3,0.1,0.6,0.1,0.9,0.1c0.7-0.1,1.3-0.6,1.3-1.4c0-0.1,0-0.3,0-0.4
	c0-0.4,0.2-0.7,0.6-0.8c0.4-0.1,0.4-0.4,0.5-0.7c0-0.5,0.1-1,0.2-1.6c0-0.2,0.1-0.4,0.3-0.5c0.6-0.5,1.1-1,1.7-1.5
	c0.2-0.1,0.3-0.3,0.4-0.4c0.2-0.2,0.3-0.4,0.5-0.5c0.1-0.1,0.2-0.2,0.3-0.4c0.6-1,1.4-2,2.4-2.8c0.4-0.3,0.6-0.6,0.9-1
	c0.5-1.2,1.3-2.3,2.3-3.1c0.1-0.1,0.2-0.1,0.2-0.2c0.1-0.6,0.6-0.9,1-1.2c0.3-0.3,0.3-0.7,0.6-0.9c0.3-0.2,0.6-0.5,0.8-0.8
	c0.1-0.2,0.2-0.3,0.4-0.5c0.5,0.3,0.9,0.5,1.3,0.8c0.9,0.5,1,0.5,1.3-0.4c0-0.1,0.1-0.1,0.1-0.2c0.3-0.6,0.3-1.3,0.1-1.9
	c-0.1-0.3-0.2-0.5-0.1-0.8c0.3-0.9,0.4-1.9,0.4-2.9c0-0.1,0-0.2,0-0.3c0.2-0.6,0.2-1.3,0.2-2c0-0.2,0.1-0.4,0.2-0.6
	c0.5-0.6,1-1.1,1.5-1.7c0.4-0.4,0.7-0.8,1-1.2c0.3-0.5,0-1,0.3-1.5c0-0.1,0-0.3-0.1-0.4c-0.4-0.5-1.1-0.9-1.8-0.9
	c-0.2,0-0.3,0-0.3-0.2c0.1-0.1,0.2-0.2,0.3-0.2c0.4-0.2,0.6-0.6,0.4-1.1c-0.1-0.6,0-1.3,0.3-1.8c0.2-0.4,0.4-0.8,0.4-1.3
	c0.1-0.9,0.1-1.7,0.1-2.6c-0.1-0.4,0-0.8,0.3-1.2c0.1-0.1,0.1-0.3,0.1-0.5c-0.1-0.9,0-1.8,0.3-2.7c0.1-0.9,0.5-1.7,1.1-2.4
	c0-0.5,0-0.9-0.1-1.3c-0.1-0.4,0-0.9,0.2-1.3c0.1-0.2,0-0.3,0-0.5c0-0.2,0-0.4,0.1-0.6c0.1-0.5,0.4-1,0.1-1.5
	c0.2-1.6,0.3-3.3,0.6-4.9c0.1-0.5,0.2-1,0.3-1.5c-0.1-0.5,0.2-1,0.7-1.3c0.4-0.2,0.6-0.7,0.5-1.1C243,81.2,242.7,80.5,242.3,79.9z"
	/>
<path class="st1" d="M67.6,296c-1-0.2-1.9-0.3-2.9-0.3c-0.9,0.1-1.9,0.1-2.8,0.1c-0.6,0-1.2-0.1-1.7-0.5c-0.1,0-0.3,0-0.4,0
	c-1.3,0.5-2.5,0-3.7-0.2c-0.7-0.2-1.4-0.4-2.1-0.6c-0.2-0.1-0.4-0.2-0.6-0.2c-0.8-0.3-1.6-0.6-2.4-0.8c-0.2,0-0.4,0-0.6,0.1
	c-1.7,0.7-3.4,1.1-5.2,1.2c-0.4,0-0.7,0.2-1.1,0.2c-0.5,0.1-1.1-0.1-1.3-0.6c-0.3-0.8-0.8-1.5-1.5-2c-0.1-0.8-0.7-1.1-1.2-1.5
	l0.4-1.1c-0.8-1-0.8-1-0.3-2.3l-2.1-0.4c0-0.3,0.1-0.6,0.1-0.9c0.2-0.4,0.3-0.8,0.3-1.2c0-1,0.4-1.9,1.1-2.6c0.6-0.7,0.9-1.6,1-2.5
	c0.1-0.8,0.6-1.6,0.2-2.5c0-0.1,0.1-0.3,0.1-0.4c0.3-0.6,0.5-1.1,0.8-1.7c0.3-1.3,1.1-2.5,2.1-3.5c0.6-0.6,1-1.3,1.2-2
	c0.2-0.9,0.6-1.7,1.1-2.5c0.3-0.5,0.5-1,0.7-1.6c0.2-0.5,0.5-0.9,0.9-1.3c1.4-1.5,2.7-3.1,3.8-4.8c0.1-0.2,0.3-0.4,0.3-0.5
	c0.1-1.3,1-2.2,1.8-3.1c1.3-1.4,2.4-2.9,3.6-4.4c0.2-0.3,0.3-0.6,0.4-1c0.1-0.4,0.2-0.7,0.3-1.1c0.5-1.6,1.2-3,2.2-4.3
	c0.3-0.4,0.6-0.9,0.9-1.3c0.2-0.2,0.3-0.4,0.3-0.7c0.1-1.1,0.5-2.1,1.3-2.8c0.5-0.6,1-1.4,1.2-2.2c0.3-0.9,0.6-1.7,1.1-2.4
	c0.3-0.7,0.6-1.3,0.8-2.1c0.3-0.9,0.6-1.7,1.1-2.5c0.4-0.8,0.8-1.6,1-2.5c0.4-1.2,1.1-2.3,2-3.2c0.8-0.9,1.3-1.9,1.4-3.1
	c0.2-0.8,0.5-1.6,0.9-2.3c0.6-0.9,1.2-1.8,1.9-2.7c0.2-0.2,0.4-0.4,0.6-0.5c1-0.9,1.9-1.8,2.9-2.7c0.1-0.1,0.1-0.2,0.2-0.3
	c0.5-1.3,1.6-2.3,2.2-3.5c0.6-1.3,1.1-2.6,1.4-4c0.1-0.5,0.2-0.9,0.2-1.4c0.1-1.2,0.7-2.3,1.6-3.2c0.4-0.5,0.8-1,1-1.6
	c0.3-1.1,0.9-2,1.8-2.7c0.4-0.3,0.6-0.7,0.7-1.2c0.3-0.8,0.7-1.5,1.3-2.1c0.4-0.4,0.6-0.8,0.9-1.3c0.5-1.1,0.9-2.2,1.3-3.4
	c0.1-0.5,0.4-0.9,0.6-1.3c0.1-0.1,0.2-0.3,0.2-0.4c0.2-0.7,0.5-1.4,0.9-2c0.5-0.5,1-1.1,1.5-1.6c0.4-0.7,1.2-1.2,2-1.1
	c0.4,0,0.7-0.1,1.1-0.3c0.4-0.1,0.8-0.2,1.2-0.3c0.2,0,0.3,0,0.5-0.1c0.7-0.4,1.5-0.8,2.3-1c0.8-0.1,1.5-0.4,2.2-0.8
	c0,0,0.1-0.1,0.1-0.1c1.4-0.7,1.9-0.7,3.1,0.5c0.6,0,1.2,0.1,1.8,0.2c0.7-0.1,1.5,0.1,2.1,0.5c0.2,0.1,0.5,0.2,0.8,0.2
	c0.7,0.1,1.4,0.6,1.8,1.2c0.4,0.6,0.8,1.1,1.1,1.7c0.2,0.5,0.6,0.9,1.1,1.1c0.5,0.2,0.9,0.7,0.9,1.2c0,0.5,0.3,1,0.8,1.2
	c1.2,0.7,2,1.8,2.4,3.2c0.3,0.6,0.6,1.3,0.9,2c0.1,0.7,0.3,1.3,0.7,1.9c0.1,0.2,0.2,0.5,0.2,0.7l0.8,0.3l0,1.1
	c-1,0.9-1.7,2.1-2.1,3.4c-0.2,0.8-0.6,1.6-1.2,2.2c-0.2,0.1-0.3,0.3-0.4,0.5c-0.5,1.5-1.3,2.9-2.2,4.1c-0.2,0.3-0.3,0.5-0.5,0.8
	c-0.2,0.2-0.4,0.4-0.4,0.6c-0.1,0.7-0.6,1.2-0.8,1.9c-0.7,1.7-1.5,3.4-2.5,4.9c-0.2,0.4-0.4,0.7-0.8,1c-0.7,0.6-1.1,1.4-1.4,2.3
	c-0.1,0.7-0.5,1.3-1.1,1.7c-0.2,0.1-0.3,0.3-0.3,0.5c-0.7,1.7-1.8,3.1-2.6,4.7c-0.5,1.1-1,2.2-1.6,3.3c-0.5,1-1,2-1.7,2.8
	c-0.3,0.4-0.6,0.9-0.7,1.4c-0.5,1.7-1.4,3.3-2.4,4.8c-0.1,0.1-0.3,0.3-0.2,0.4c0.2,1-0.7,1.6-1.2,2.3c-0.8,1.1-1.4,2.3-2.1,3.5
	c-0.6,1-1.3,2.1-1.9,3.1c-0.1,0.2-0.3,0.4-0.4,0.7c-0.9,1.9-1.8,3.8-2.7,5.7c-0.9,1.8-1.9,3.6-2.8,5.5c-0.3,0.6-0.5,1.3-0.8,1.9
	c-0.2,0.6-0.5,1.1-1,1.6c-1.4,1.5-2.4,3.4-2.7,5.4c-0.1,0.4-0.3,0.8-0.5,1.1c-0.4,0.6-0.9,1.1-1.5,1.6c-0.5,0.4-0.9,1-1.1,1.7
	c-0.5,1-0.9,2.1-1.2,3.2c-0.1,0.2-0.2,0.4-0.3,0.5c-0.8,1.1-1.5,2.2-2.1,3.3c-0.9,1.8-2.2,3.4-2.8,5.3c0,0.2-0.1,0.3-0.2,0.4
	c-1.4,1.8-2,4-3.3,5.9c-0.6,1-1,1.9-1.5,3C67.9,295.4,67.8,295.6,67.6,296z"/>
<path class="st1" d="M121.1,61.5l-0.4,2.8h1.5v1.1h-1.6l-0.3,2.2h-1.1l0.3-2.2h-2.1l-0.3,2.2h-1.1l0.3-2.2H115v-1.1h1.3l0.4-2.8
	h-1.5v-1.1h1.6l0.3-2.2h1.1l-0.3,2.2h2.1l0.3-2.2h1.1l-0.3,2.2h1.2v1.1H121.1z M119.9,61.5h-2.1l-0.4,2.8h2.1L119.9,61.5z"/>
<path class="st1" d="M127.5,58.4c0,0.7,0.3,1.3,0.4,2.4h3v1.1H128v4.5h2.9v1.1h-6.5v-1.1h2.4v-4.5h-2.4v-1.1h2.3
	c-0.2-0.8-0.3-1.5-0.4-2.3c0-1.7,1.3-2.3,2.8-2.3c0.7,0,1.5,0.1,2.2,0.4l-0.4,1.1c-0.6-0.3-1.2-0.4-1.9-0.4
	C128.1,57.3,127.5,57.5,127.5,58.4z"/>
<path class="st1" d="M139.6,60v7.5h-1v-0.8c-0.7,0.6-1.6,1-2.5,1c-1.2,0.2-2.3-0.6-2.5-1.8c0-0.2,0-0.4,0-0.7V60h1.2v5
	c0,1.1,0.5,1.6,1.4,1.6c0.8,0,1.6-0.3,2.2-0.7V60H139.6z"/>
<path class="st1" d="M148.6,62.3v5.2h-1.2v-5c0-1.1-0.5-1.6-1.4-1.6c-0.8,0-1.6,0.3-2.2,0.7v5.9h-1.2V60h1v0.8c0.7-0.6,1.6-1,2.5-1
	c1.2-0.2,2.3,0.6,2.5,1.8C148.6,61.9,148.6,62.1,148.6,62.3z"/>
<path class="st1" d="M151.2,63.8c0-2.7,1.7-4,3.8-4c1,0,1.9,0.2,2.8,0.6l-0.4,1.1c-0.8-0.4-1.6-0.6-2.5-0.6c-1.5,0-2.4,0.9-2.4,2.8
	c0,1.9,0.7,2.8,2.4,2.8c0.9,0,1.7-0.2,2.5-0.7l0.3,1.1c-0.9,0.5-1.9,0.7-2.9,0.7C152.5,67.7,151.2,66.4,151.2,63.8z"/>
<path class="st1" d="M166.7,67.1c-0.8,0.4-1.7,0.6-2.6,0.6c-2.1,0-2.4-1.1-2.4-2.7l0.1-3.8h-1.9V60h1.9l0-1.8h1.3l-0.2,1.8h3.5v1.1
	H163l-0.1,3.7c0,1,0.1,1.8,1.2,1.8c0.8,0,1.5-0.2,2.2-0.5L166.7,67.1z"/>
<path class="st1" d="M175.7,66.4v1.1h-6.5v-1.1h2.8v-5.3h-2.8V60h4v6.4L175.7,66.4z M171.2,57.5c0-0.7,0.5-1.2,1.2-1.2
	c0.7,0,1.2,0.5,1.2,1.2c0,0.7-0.5,1.2-1.2,1.2c0,0,0,0,0,0C171.8,58.8,171.2,58.2,171.2,57.5C171.2,57.5,171.2,57.5,171.2,57.5
	L171.2,57.5z"/>
<path class="st1" d="M177.8,63.8c0-2.5,1.4-4,3.5-4c2.1,0,3.4,1.5,3.4,3.9c0,2.4-1.4,3.9-3.5,3.9C179,67.7,177.8,66.2,177.8,63.8z
	 M183.4,63.8c0-1.8-0.7-2.9-2.2-2.9s-2.2,1.1-2.2,2.8s0.7,2.8,2.2,2.8C182.7,66.6,183.4,65.5,183.4,63.8L183.4,63.8z"/>
<path class="st1" d="M193.2,62.3v5.2H192v-5c0-1.1-0.5-1.6-1.4-1.6c-0.8,0-1.6,0.3-2.2,0.7v5.9h-1.2V60h1v0.8c0.7-0.6,1.6-1,2.5-1
	c1.2-0.2,2.3,0.6,2.5,1.8C193.3,61.9,193.3,62.1,193.2,62.3z"/>
<path class="st1" d="M208,58.4c0,0.7,0.3,1.3,0.4,2.4h3v1.1h-2.9v4.5h2.9v1.1h-6.5v-1.1h2.4v-4.5h-2.4v-1.1h2.3
	c-0.2-0.8-0.3-1.5-0.4-2.3c0-1.7,1.3-2.3,2.8-2.3c0.7,0,1.5,0.1,2.2,0.4l-0.4,1.1c-0.6-0.3-1.2-0.4-1.9-0.4
	C208.5,57.3,208,57.5,208,58.4z"/>
<path class="st1" d="M213.5,63.8c0-2.5,1.4-4,3.5-4c2.1,0,3.4,1.5,3.4,3.9c0,2.4-1.4,3.9-3.5,3.9C214.8,67.7,213.5,66.2,213.5,63.8z
	 M219.2,63.8c0-1.8-0.7-2.9-2.2-2.9s-2.2,1.1-2.2,2.8s0.7,2.8,2.2,2.8C218.5,66.6,219.2,65.5,219.2,63.8z"/>
<path class="st1" d="M229.3,66.4v1.1h-6.5v-1.1h2V60h1.1l0,1.5l3.4-1.6l0,1.2l-3.2,1.5v3.9L229.3,66.4z"/>
<path class="st1" d="M121.7,76.7V88h-1.1v-0.8c-0.7,0.6-1.6,1-2.5,1c-1.9,0-2.9-1.3-2.9-3.6c0-3,1.5-4.2,3.8-4.2c0.5,0,1,0,1.5,0.1
	v-3.7H121.7z M120.5,86.3v-4.7c-0.5-0.1-1-0.2-1.6-0.2c-1.7,0-2.4,1-2.4,2.9c0,1.7,0.6,2.6,1.8,2.7C119.1,87,119.8,86.8,120.5,86.3z
	"/>
<path class="st1" d="M125.6,84.2c0,1.9,0.8,2.8,2.4,2.8c0.9,0,1.7-0.2,2.5-0.6l0.3,1c-0.9,0.5-1.9,0.7-2.9,0.7
	c-2.2,0-3.6-1.3-3.6-3.8s1.6-4,3.6-4c2.3,0,3.3,1.4,3,3.8L125.6,84.2L125.6,84.2z M125.7,83.1h4c0-1.3-0.6-1.8-1.9-1.8
	C126.8,81.3,125.8,82.1,125.7,83.1L125.7,83.1z"/>
<path class="st1" d="M136.5,78.9c0,0.7,0.3,1.3,0.4,2.4h3v1.1h-2.9v4.5h2.9V88h-6.5v-1.1h2.4v-4.5h-2.4v-1.1h2.3
	c-0.2-0.8-0.3-1.5-0.4-2.3c0-1.7,1.3-2.3,2.8-2.3c0.7,0,1.5,0.1,2.2,0.4l-0.4,1.1c-0.6-0.3-1.2-0.4-1.9-0.4
	C137,77.7,136.5,78,136.5,78.9z"/>
<path class="st1" d="M157.5,76.7V88h-1.1v-0.8c-0.7,0.6-1.6,1-2.5,1c-1.9,0-2.9-1.3-2.9-3.6c0-3,1.5-4.2,3.8-4.2c0.5,0,1,0,1.5,0.1
	v-3.7H157.5z M156.2,86.3v-4.7c-0.5-0.1-1-0.2-1.6-0.2c-1.7,0-2.4,1-2.4,2.9c0,1.7,0.6,2.6,1.8,2.7C154.8,87,155.6,86.8,156.2,86.3z
	"/>
<path class="st1" d="M166.8,86.9V88h-6.5v-1.1h2v-6.4h1.1l0,1.5l3.4-1.6l0,1.2l-3.2,1.5v3.8L166.8,86.9z"/>
<path class="st1" d="M175.2,83l-0.1,4.9h-1v-0.9c-0.7,0.7-1.7,1.1-2.7,1.1c-1.5,0-2.4-0.8-2.4-2.1c0-1.5,1.5-2.1,4.9-2.4l0-0.5
	c0-1-0.1-1.8-1.6-1.8c-0.9,0-1.8,0.2-2.6,0.6l-0.3-1c0.9-0.5,2-0.7,3.1-0.7C174.9,80.3,175.2,81.5,175.2,83z M173.9,86.2l0-1.5
	c-2.5,0.2-3.6,0.6-3.6,1.3c0,0.6,0.4,1,1.3,1C172.4,87.1,173.2,86.8,173.9,86.2L173.9,86.2z"/>
<path class="st1" d="M185.3,80.4L184,88h-1.7l-0.9-5.1l-0.2-1.4h-0.1l-0.2,1.4l-0.9,5.1h-1.7l-1.3-7.5h1.2l0.8,4.9l0.2,1.5h0.2
	l0.2-1.5l0.8-4.9h1.7l0.8,4.9l0.2,1.5h0.2l0.2-1.5l0.8-4.9L185.3,80.4z"/>
<path class="st1" d="M193.4,86.8V88h-6v-9.3h1.3v8.2H193.4z"/>
<path class="st1" d="M202.5,86.9V88H196v-1.1h2.8v-5.3H196v-1.1h4v6.4L202.5,86.9z M198,78c0-0.7,0.5-1.2,1.2-1.2
	c0.7,0,1.2,0.5,1.2,1.2s-0.5,1.2-1.2,1.2c0,0,0,0,0,0C198.6,79.2,198,78.7,198,78C198,78,198,78,198,78z"/>
<path class="st1" d="M211.1,82.8V88h-1.2v-5c0-1.1-0.5-1.6-1.4-1.6c-0.8,0-1.6,0.3-2.2,0.7V88H205v-7.5h1v0.8c0.7-0.6,1.6-1,2.5-1
	c1.2-0.2,2.3,0.6,2.5,1.8C211.1,82.3,211.1,82.6,211.1,82.8z"/>
<path class="st1" d="M214.9,84.2c0,1.9,0.8,2.8,2.4,2.8c0.9,0,1.7-0.2,2.5-0.6l0.3,1c-0.9,0.5-1.9,0.7-2.9,0.7
	c-2.2,0-3.6-1.3-3.6-3.8s1.6-4,3.6-4c2.3,0,3.3,1.4,3,3.8L214.9,84.2L214.9,84.2z M215,83.1h4c0-1.3-0.6-1.8-1.9-1.8
	C216.1,81.3,215.2,82.1,215,83.1L215,83.1z"/>
<path class="st1" d="M224.1,83.3c0-5,1.6-6,4.1-6v1.1c-1.9,0-2.8,0.6-2.8,4.8c0,4.4,0.9,5,2.8,5v1.1
	C225.7,89.3,224.1,88.5,224.1,83.3z"/>
<path class="st1" d="M238.1,86.9V88h-6.5v-1.1h2.7V76.7h1.2v10.1H238.1z"/>
<path class="st1" d="M241.7,84.2c0,1.9,0.8,2.8,2.4,2.8c0.9,0,1.7-0.2,2.5-0.6l0.3,1c-0.9,0.5-1.9,0.7-2.9,0.7
	c-2.2,0-3.6-1.3-3.6-3.8s1.6-4,3.6-4c2.3,0,3.3,1.4,3,3.8L241.7,84.2L241.7,84.2z M241.8,83.1h4c0-1.3-0.6-1.8-1.9-1.8
	C242.9,81.3,242,82.1,241.8,83.1L241.8,83.1z"/>
<path class="st1" d="M255.8,82.8V88h-1.2v-5c0-1.1-0.5-1.6-1.4-1.6c-0.8,0-1.6,0.3-2.2,0.7V88h-1.2v-7.5h1v0.8c0.7-0.6,1.6-1,2.5-1
	c1.2-0.2,2.3,0.6,2.5,1.8C255.8,82.3,255.8,82.6,255.8,82.8z"/>
<path class="st1" d="M151.2,109l0.4-1.2c0.9,0.4,1.8,0.7,2.8,0.6c1.4,0,2.1-0.3,2.1-1c0-1.5-5.1-1-5.1-3.5c0-1.4,1.3-2.2,3.2-2.2
	c0.9,0,1.9,0.2,2.7,0.5l-0.4,1.1c-0.7-0.4-1.6-0.6-2.4-0.6c-1.3,0-2,0.3-2,0.9c0,1.5,5.1,1,5.1,3.5c0,1.6-1.4,2.3-3.4,2.3
	C153.2,109.6,152.2,109.4,151.2,109z"/>
<path class="st1" d="M166.7,109c-0.8,0.4-1.7,0.6-2.6,0.6c-2.1,0-2.4-1.1-2.4-2.7l0.1-3.8h-1.9v-1.1h1.9l0-1.8h1.3l-0.2,1.8h3.5v1.1
	H163l-0.1,3.7c0,1,0.1,1.8,1.2,1.8c0.8,0,1.5-0.2,2.2-0.5L166.7,109z"/>
<path class="st1" d="M175.7,108.3v1.1h-6.5v-1.1h2v-6.4h1.1l0,1.5l3.4-1.6l0,1.2l-3.2,1.5v3.9H175.7z"/>
<path class="st1" d="M177.8,105.7c0-2.5,1.4-4,3.5-4c2.1,0,3.4,1.5,3.4,3.9s-1.4,3.9-3.5,3.9C179,109.6,177.8,108.1,177.8,105.7z
	 M183.4,105.7c0-1.8-0.7-2.9-2.2-2.9s-2.2,1.1-2.2,2.8s0.7,2.8,2.2,2.8C182.7,108.4,183.4,107.4,183.4,105.7L183.4,105.7z"/>
<path class="st1" d="M189.8,105.4l-1.2,0.9v3h-1.2V98.2h1.2v5.6l-0.1,1.4l4.5-3.5l0,1.4l-2.1,1.7l2.6,4.6H192L189.8,105.4z"/>
<path class="st1" d="M197.1,105.7c0,1.9,0.8,2.8,2.4,2.8c0.9,0,1.7-0.2,2.5-0.6l0.3,1c-0.9,0.5-1.9,0.7-2.9,0.7
	c-2.2,0-3.6-1.3-3.6-3.8s1.6-4,3.6-4c2.3,0,3.3,1.4,3,3.8L197.1,105.7L197.1,105.7z M197.2,104.6h4c0-1.3-0.6-1.8-1.9-1.8
	C198.2,102.7,197.3,103.5,197.2,104.6L197.2,104.6z"/>
<path class="st1" d="M206.2,104.8c0-5,1.6-6,4.1-6v1.1c-1.9,0-2.8,0.6-2.8,4.8c0,4.4,0.9,5,2.8,5v1.1
	C207.8,110.8,206.2,109.9,206.2,104.8z"/>
<path class="st1" d="M220.6,108.3v1.1H214v-1.1h2.9v-5.9l-2.9,1.1v-1.2l2.9-1.1v-1.1h1.3v8.2L220.6,108.3z"/>
<path class="st1" d="M227.4,109c0,1.4-1.1,2.6-2.5,2.6c-0.1,0-0.2,0-0.3,0v-1c0.8,0.1,1.5-0.4,1.7-1.2c-0.1,0.1-0.3,0.2-0.5,0.2
	c-0.7,0-1.2-0.6-1.2-1.3c0-0.6,0.6-1.2,1.2-1.2c0.9,0.1,1.7,0.9,1.6,1.8C227.4,108.9,227.4,108.9,227.4,109z"/>
<path class="st1" d="M238.3,104.7c0,3.5-1.3,4.9-3.5,4.9c-2.3,0-3.4-1.6-3.4-4.7c0-3.2,1.3-4.9,3.5-4.9
	C237.2,100,238.3,101.6,238.3,104.7z M232.7,104.8c0,0.4,0,0.8,0,1.1l4-3.5c-0.2-0.8-1-1.4-1.9-1.3
	C233.2,101.1,232.7,102.4,232.7,104.8L232.7,104.8z M237,104.7c0-0.4,0-0.8,0-1.1l-4,3.5c0.2,0.8,1,1.4,1.9,1.3
	C236.5,108.4,237,107.4,237,104.7L237,104.7z"/>
<path class="st1" d="M242.5,108.3c0-0.7,0.5-1.2,1.2-1.2c0.7,0,1.2,0.5,1.2,1.2s-0.5,1.2-1.2,1.2c0,0,0,0,0,0
	C243.1,109.5,242.5,109,242.5,108.3C242.5,108.3,242.5,108.3,242.5,108.3z"/>
<path class="st1" d="M256.1,106.5c0,1.6-1.1,3-3.8,3c-1,0-2.1-0.2-3-0.6l0.4-1.1c0.9,0.4,1.8,0.6,2.8,0.6c1.7,0,2.4-0.7,2.4-1.8
	c0-1.1-0.8-1.5-2.5-1.8l-2.4-0.4l0.1-4.2h5.8v1.1h-4.6l0,2.2l1.6,0.3C255,104.1,256.1,104.8,256.1,106.5z"/>
<path class="st1" d="M157.7,129.8v1.1h-6.5v-1.1h2.7v-10.1h1.2v10.1H157.7z"/>
<path class="st1" d="M166.8,129.8v1.1h-6.5v-1.1h2.8v-5.3h-2.8v-1.1h4v6.4L166.8,129.8z M162.3,120.8c0-0.7,0.5-1.2,1.2-1.2
	c0.7,0,1.2,0.5,1.2,1.2c0,0.7-0.5,1.2-1.2,1.2c0,0,0,0,0,0C162.8,122.1,162.3,121.5,162.3,120.8
	C162.3,120.9,162.3,120.8,162.3,120.8L162.3,120.8z"/>
<path class="st1" d="M175.4,125.7v5.2h-1.2v-5c0-1.1-0.5-1.6-1.4-1.6c-0.8,0-1.6,0.3-2.2,0.7v5.9h-1.2v-7.5h1v0.8
	c0.7-0.6,1.6-1,2.5-1c1.2-0.2,2.3,0.6,2.5,1.8C175.4,125.2,175.4,125.4,175.4,125.7z"/>
<path class="st1" d="M179.2,127.1c0,1.9,0.8,2.8,2.4,2.8c0.9,0,1.7-0.2,2.5-0.6l0.3,1c-0.9,0.5-1.9,0.7-2.9,0.7
	c-2.2,0-3.6-1.3-3.6-3.8c0-2.6,1.6-4,3.6-4c2.3,0,3.3,1.4,3,3.8L179.2,127.1L179.2,127.1z M179.3,126h4c0-1.3-0.6-1.8-1.9-1.8
	C180.4,124.2,179.4,125,179.3,126L179.3,126z"/>
<path class="st1" d="M188.3,126.2c0-5,1.6-6,4.1-6v1.1c-1.9,0-2.8,0.6-2.8,4.8c0,4.4,0.9,5,2.8,5v1.1
	C189.9,132.2,188.3,131.3,188.3,126.2z"/>
<path class="st1" d="M197.3,126.2c0-5,1.6-6,4.1-6v1.1c-1.9,0-2.8,0.6-2.8,4.8c0,4.4,0.9,5,2.8,5v1.1
	C198.9,132.2,197.3,131.3,197.3,126.2z"/>
<path class="st1" d="M211.4,127.9c0,1.6-1.1,3-3.8,3c-1,0-2.1-0.2-3-0.6l0.4-1.1c0.9,0.4,1.8,0.6,2.8,0.6c1.7,0,2.4-0.7,2.4-1.8
	c0-1.1-0.8-1.5-2.5-1.8l-2.4-0.4l0.1-4.2h5.8v1.1h-4.6l0,2.2l1.6,0.3C210.3,125.5,211.4,126.2,211.4,127.9z"/>
<path class="st1" d="M220.4,126.1c0,3.5-1.3,4.9-3.5,4.9c-2.3,0-3.4-1.6-3.4-4.7c0-3.2,1.3-4.9,3.5-4.9
	C219.3,121.4,220.4,123,220.4,126.1z M214.8,126.2c0,0.4,0,0.8,0,1.1l4-3.5c-0.2-0.8-1-1.4-1.9-1.3
	C215.3,122.5,214.8,123.8,214.8,126.2L214.8,126.2z M219.1,126.2c0-0.4,0-0.8,0-1.1l-4,3.5c0.2,0.8,1,1.4,1.9,1.3
	C218.6,129.9,219.1,128.8,219.1,126.2L219.1,126.2z"/>
<path class="st1" d="M227.4,130.4c0,1.4-1.1,2.6-2.5,2.6c-0.1,0-0.2,0-0.3,0v-1c0.8,0.1,1.5-0.4,1.7-1.2c-0.1,0.1-0.3,0.2-0.5,0.2
	c-0.7,0-1.2-0.6-1.2-1.3c0-0.7,0.6-1.2,1.2-1.2c0.9,0.1,1.7,0.9,1.6,1.8C227.4,130.3,227.4,130.4,227.4,130.4z"/>
<path class="st1" d="M238.2,122.8l-3.1,6.9h2.1v1.1h-5.5v-1.1h2l2.8-6l0.6-0.9v-0.2h-5.5v-1.1h6.6L238.2,122.8z"/>
<path class="st1" d="M247.2,126.1c0,3.5-1.3,4.9-3.5,4.9c-2.3,0-3.4-1.6-3.4-4.7c0-3.2,1.3-4.9,3.5-4.9
	C246.1,121.4,247.2,123,247.2,126.1z M241.6,126.2c0,0.4,0,0.8,0,1.1l4-3.5c-0.2-0.8-1-1.4-1.9-1.3
	C242.1,122.5,241.6,123.8,241.6,126.2L241.6,126.2z M245.9,126.2c0-0.4,0-0.8,0-1.1l-4,3.5c0.2,0.8,1,1.4,1.9,1.3
	C245.4,129.9,245.9,128.8,245.9,126.2L245.9,126.2z"/>
</svg>
