<svg id="Livello_1" data-name="Livello 1" xmlns="http://www.w3.org/2000/svg" viewBox="0 0 296 296"><defs><style>.cls-1{fill:#1858a8;}.cls-2{fill:#f36;}.cls-3{fill:#ffeded;}</style></defs><title>a</title><path class="cls-1" d="M76.948,51.673a5.826,5.826,0,0,0-1.2-.375c-.455-.1-.9-.209-1.343-.331a7.39,7.39,0,0,1,1.109,1.073,2.022,2.022,0,0,0,.837.735,3.919,3.919,0,0,1,.544.206c0-.36.032-.72.022-1.08A.882.882,0,0,1,76.948,51.673Z"/><path class="cls-2" d="M233.3,28.253a9.7,9.7,0,0,0,3.234,4.415,15.1,15.1,0,0,0,4.622,3.237,1.349,1.349,0,0,1,.763.709c.277.963,1.017,1.312,1.806,1.745a51.272,51.272,0,0,1,4.635,2.841,5.8,5.8,0,0,1,1.931,2.021,4.9,4.9,0,0,0,2.956,2.393,1.874,1.874,0,0,1,1.455,1.873,5.169,5.169,0,0,0,.135.742c.49.187.6-.031.732-.332.633-1.49,2.053-1.888,3.4-2.354a.871.871,0,0,1,.794.234c.571.963,1.786,1.13,2.386,2.1a9.917,9.917,0,0,1,1.249,2.99,42.49,42.49,0,0,0,1.448,4.484,1.854,1.854,0,0,0,.823.928,12.077,12.077,0,0,1,3.387,2.315,1.484,1.484,0,0,0,.518.393c1.973.721,3.315,2.277,4.8,3.638a2.7,2.7,0,0,0,1.572.663,4.47,4.47,0,0,1,3.412,2.1,2.758,2.758,0,0,0,.265.346c1.341,1.567,1.295,1.8-.576,2.833-.887.49-1.777.972-2.781,1.521a7.527,7.527,0,0,0,.525,1.179,4.726,4.726,0,0,1,.625,2.245c.082.727.931,1.213,1.035,2.094.125,1.048.087,2.209,1.093,2.968a.938.938,0,0,1,.25.595c.344,2.82,1.772,5.164,3.275,7.469a7.454,7.454,0,0,1,.984,2.639,25.011,25.011,0,0,0,2.614,7.116,5.919,5.919,0,0,1,.313,1.014c.156.47.338.931.488,1.4a9.749,9.749,0,0,1,.334,1.229,37.305,37.305,0,0,1,1.04,4.6,1.848,1.848,0,0,0,.713,1.049,27.057,27.057,0,0,0,2.581,2c.606.4,1.032.822.851,1.585a1.672,1.672,0,0,0,.868,1.838c.234.169.521.264.759.43a3,3,0,0,1,1.108,3.832,5.269,5.269,0,0,1-1.073,1.611c-1.078,1.067-1.613,2.2-.959,3.71a2.411,2.411,0,0,1-.335,2.673,1.524,1.524,0,0,0-.363,1.619,6.824,6.824,0,0,1,.082,3.014c-.032,1.012-.042,2.024-.1,3.034-.028.5-.139,1-.207,1.493-.039.285-.2.67-.079.84.891,1.227-.011,2.754.71,4a.76.76,0,0,1,.02.634c-.6,1.084-.241,2.474-1.173,3.472a1.65,1.65,0,0,0-.141,1.225c.239,1.284.573,2.55.842,3.828.312,1.484.681,2.964.866,4.465a8.42,8.42,0,0,1-.922,4.866c-.426.843-.985,1.617-.648,2.633-.539,1.579.088,3.351-.834,4.888a1.744,1.744,0,0,0,.087,1.242c.192.544.567,1.02.776,1.56a1.865,1.865,0,0,1,.192,1.231c-.778,1.627-.385,3.278-.252,4.93a2.562,2.562,0,0,1-.044.363,3.886,3.886,0,0,0-1.77,2.736,2.57,2.57,0,0,1-1.222,2.15c-.338.182-.5.875-.56,1.358a4.637,4.637,0,0,1-.932,2.4,4.895,4.895,0,0,0-.925,4.128,4.783,4.783,0,0,1-.116,2.783,3.472,3.472,0,0,0-.12,1.506,3.825,3.825,0,0,1-.628,2.27c-.509.876-.947,1.794-1.4,2.7a4.711,4.711,0,0,1-.339.8,5.51,5.51,0,0,0-.877,4.364,4.991,4.991,0,0,1-.977,3.006c-.117.223-.451.332-.786.563l.783,4.512c-.357.426-1,.86-1.095,1.391a8.5,8.5,0,0,1-.769,1.774.689.689,0,0,0-.064.425c.553,1.652-.347,3.305.01,4.961a2.714,2.714,0,0,1-.135,1.039,7.6,7.6,0,0,0-.3,1.252,4.365,4.365,0,0,1-1,3.243.6.6,0,0,0-.153.4c.043,1.541-.922,2.35-2.112,3.046-.5.29-.859.811-1.36,1.088a6.009,6.009,0,0,0-3.114,3.743,3.078,3.078,0,0,1-.8,1.27c-.974.974-2,1.9-3.021,2.825-.8.72-1.423,1.667-2.644,1.814a1.475,1.475,0,0,0-.823.661c-1.652,2.426-3.977,4.188-6.049,6.2a.986.986,0,0,1-.18.123,19.009,19.009,0,0,0-2.947,1.838,17.608,17.608,0,0,1-2.772,2.063,12.575,12.575,0,0,0-2.937,2.548,5.305,5.305,0,0,1-1.814,1.486,7.7,7.7,0,0,0-3.15,2.252,2.669,2.669,0,0,1-1.314.67,17.266,17.266,0,0,0-4.65,2.678,3.6,3.6,0,0,1-1.118.58,4.372,4.372,0,0,0-2.369,1.214c.255,1.992-1.238,3.5-1.79,5.338a12.493,12.493,0,0,1-2.99,2.432c-.25.107-.671.251-.684.4-.085,1.033-.819,1.259-1.617,1.5a2.535,2.535,0,0,0-.857.611,6.406,6.406,0,0,1-3.626,1.805,8.4,8.4,0,0,0-3.782,1.539,25.53,25.53,0,0,0-3.841,3.766c-1.105,1.144-1.973,2.516-2.994,3.746a7.53,7.53,0,0,1-2.615,2.226,3.1,3.1,0,0,0-.945.839c-.475.547-.906,1.131-1.413,1.773-2.038-.093-3.018,1.348-3.888,3.02l-1.081-.431c-1.542.891-3.16,1.7-4.636,2.711-2.2,1.51-4.413,1.374-6.347-.905-.14-.165-.275-.335-.5-.6a6.659,6.659,0,0,1-1.576.369,9.041,9.041,0,0,1-1.465-.4,11.717,11.717,0,0,0-1.289-.057c-.282-.02-.653.019-.825-.141-1.3-1.2-2.893-.872-4.376-.8a26.715,26.715,0,0,1-4.321.14,3.563,3.563,0,0,0-2.825.952,5.586,5.586,0,0,1-1.491.839c-1.17.574-2.284,1.261-3.433,1.878a2.584,2.584,0,0,1-1.182.454,3.577,3.577,0,0,0-2.554,1.037,7.371,7.371,0,0,1-3.032,1.63c-.2.047-.515.1-.577.243-.7,1.567-2.282,1.045-3.444,1.387a5.053,5.053,0,0,1-3.541-.635,24.987,24.987,0,0,0-2.411-.9,21.088,21.088,0,0,1-3.39-1.927c-.309-.18-.687-.54-.94-.471-1.418.383-2.275-.719-3.371-1.169a5.137,5.137,0,0,1-.67-.432c-.623.25-1.3.855-2.123.426a.316.316,0,0,0-.214-.021,6.842,6.842,0,0,1-1.809.508c-.628,0-1.247-.431-1.883-.475a4.845,4.845,0,0,0-1.676.327c-.691.213-1.351.523-2.04.743a1.139,1.139,0,0,1-.832.022c-.85-.579-1.7-.1-2.682-.075-.849-1.693-2.863-1.679-4.267-2.678a1.059,1.059,0,0,0-.842-.058c-.576.206-1.108.367-1.626-.11a.225.225,0,0,0-.207-.031c-1.17.858-2.387.064-3.578.111-.434.017-.867.044-1.4.071l-1.075-.9a6,6,0,0,0-2.985,1.178c-.751.713-1.644.242-2.524-.3l-1.836,2.03c-.24-.232-.465-.475-.717-.685a8.536,8.536,0,0,0-.865-.639c-.875-.561-1.842-.19-2.766-.267-.836-.071-1.571-.5-2.516-.04-1.381.672-2.871.162-4.256-.238-1.742-.5-3.44-1.155-5.152-1.757a1.008,1.008,0,0,1-.532-.343,2.337,2.337,0,0,0-2.02-1.062,3.644,3.644,0,0,1-2.744-1.1c-.148-.19-.518-.235-.8-.285a3.059,3.059,0,0,1-1.861-1.05,2.666,2.666,0,0,0-1.854-1.013,7.5,7.5,0,0,1-1.859-.578,3.2,3.2,0,0,1-1.342-.68c-.834-1.021-2.194-1.4-2.907-2.583-.39-.644-1.217-.718-1.936-.872a22.24,22.24,0,0,1-2.3-.618,1.775,1.775,0,0,1-.9-.576,6.649,6.649,0,0,0-2.429-1.783,10.721,10.721,0,0,0-2.777-1.129,11.434,11.434,0,0,1-5.2-3.435,18.147,18.147,0,0,1-1.246-1.521,5.836,5.836,0,0,0-3.363-2.219,13.641,13.641,0,0,1-5.662-3.144,19.28,19.28,0,0,1-2.793-2.683,4.334,4.334,0,0,0-3.465-1.668c-.538-1.667-2.02-2.293-3.324-3.007a4.4,4.4,0,0,1-2.268-2.5,2.618,2.618,0,0,0-2.176-1.883,3.522,3.522,0,0,1-1.86-1.037c-.744-.684-1.575-1.273-2.375-1.9-.171-.134-.423-.2-.54-.36-1.588-2.232-3.815-4.048-4.509-6.861a3.656,3.656,0,0,1-.12-1.483,2.758,2.758,0,0,0-.446-2.082,22.285,22.285,0,0,1-2.061-5.016,5.681,5.681,0,0,1-.33-3.011,2.851,2.851,0,0,0-1.256-3.025c-.685-.53-1.427-1.03-2.037-1.595-1.02-.946-2.243-1.73-2.868-3.115a21.273,21.273,0,0,0-1.9-2.917c-.121-.181-.325-.332-.381-.528a7.31,7.31,0,0,0-2-3.045,2.694,2.694,0,0,1-.551-1.148c-.418-1.531-.795-3.073-1.212-4.711-.443-.356-.921-.8-1.46-1.159a2.191,2.191,0,0,1-1-2.267,4.446,4.446,0,0,0-.407-3.165c-.137-.217-.052-.566-.1-.851-.119-.784-.22-1.573-.386-2.347a7.1,7.1,0,0,1-.023-3.658c.568-1.889.2-2.636-1.648-3.393a2.861,2.861,0,0,1-2.032-2.567c-.048-1.045-1.042-1.38-1.3-2.191-.238-.743-.15-1.674-.571-2.26a11.4,11.4,0,0,1-1.647-3.986,9.693,9.693,0,0,0-1.484-3.563,6.226,6.226,0,0,1-.854-3.968,20.449,20.449,0,0,0-.882-6,27.092,27.092,0,0,1-.662-4.257,2.491,2.491,0,0,1,.548-2.047,2.174,2.174,0,0,0,.2-2.478c-.874-1.8-.819-3.822-1.441-5.686a3.642,3.642,0,0,1,.341-2.1c.566-1.577,1.241-3.115,1.857-4.675a9.534,9.534,0,0,0,.5-5.75c-.387-1.755-.435-3.579-.945-5.339-.206-.71.24-1.593.1-2.343-.122-.663-.892-1.234-.937-1.877a18.23,18.23,0,0,1,.295-3.455,8.494,8.494,0,0,0,.311-1.264,12.6,12.6,0,0,1,1.483-5.653,7.415,7.415,0,0,0,.626-4.045,4.365,4.365,0,0,1,.152-1.491c.175-.778.416-1.542.632-2.311a3.3,3.3,0,0,1,.191-.622c.821-1.616,1.7-3.2,2.468-4.845a5.208,5.208,0,0,0,.424-3.4c-.261-1.121-.63-2.218-1.033-3.6a6.167,6.167,0,0,0,.243-1.188,2.893,2.893,0,0,1,.867-1.715c.839-1,1.727-1.967,2.487-3.026A8.257,8.257,0,0,1,12.8,92.848a3.084,3.084,0,0,0,1.407-1.6,7.671,7.671,0,0,1,2.75-3.311c.769-.546,1.42-1.263,2.2-1.782A2.678,2.678,0,0,0,20.4,84.231a6.926,6.926,0,0,1,.819-1.764,13.058,13.058,0,0,0,.728-1.336,16.268,16.268,0,0,1,2.732-4.438,10.845,10.845,0,0,0,2.263-5.126,1.943,1.943,0,0,1,.84-1.441,1.169,1.169,0,0,0,.508-.658,1.766,1.766,0,0,1,1.027-1.31,5.8,5.8,0,0,0,.972-.849,14.744,14.744,0,0,1,1.72-1.631,4.681,4.681,0,0,0,1.979-3.261c.115-.644.2-1.3.255-1.949a2.9,2.9,0,0,1,1.076-2.043,5.016,5.016,0,0,0,1.711-2.952,2.424,2.424,0,0,1,1.642-2.125,3.87,3.87,0,0,0,1.939-1.7,20.884,20.884,0,0,1,1.853-2.408,14.8,14.8,0,0,0,1.6-2.573,1.2,1.2,0,0,0,.12-.634c-.123-2.08.975-3.539,2.386-4.872a10.208,10.208,0,0,0,1.4-1.667c.9-1.319,1.731-2.685,2.629-4.006a2.532,2.532,0,0,1,.827-.654,2.18,2.18,0,0,1,.634-.15,4.3,4.3,0,0,0,3.531-3.15c.076-.263.222-.631.429-.713,1.789-.7,3.081-2.364,5.157-2.552a14.276,14.276,0,0,0,3.153-.825,4.792,4.792,0,0,1,2.75-.4,1.883,1.883,0,0,0,1.89-.89,4.349,4.349,0,0,1,3.153-1.708c1.072-.157,2.049-.662,3.175-.722a3.319,3.319,0,0,0,1.845-1.023,22.3,22.3,0,0,0,2.593-2.942,3.679,3.679,0,0,1,2.534-1.521c.933-.154,1.866-.319,2.8-.438a19.829,19.829,0,0,0,5-1.331,11.437,11.437,0,0,0,3.552-2.457c.787-.743,1.515-1.549,2.247-2.348a3.348,3.348,0,0,1,2.8-1.4,2.322,2.322,0,0,0,1.354-.589,24.6,24.6,0,0,1,4.331-2.508c1.431-.7,2.9-1.307,4.348-1.953.583-.26,1.372-.153,1.866-.5,1.347-.946,2.883-.923,4.385-1.113.5-.062,1-.042,1.5-.075a4.252,4.252,0,0,0,1.273-.139,9.257,9.257,0,0,1,4.273-.493,4.33,4.33,0,0,0,.867-.013,68.647,68.647,0,0,1,7.6-.462c1.376-.022,2.754-.122,4.123-.264a32.325,32.325,0,0,1,5,.329,8.98,8.98,0,0,1,1.25.369,4.139,4.139,0,0,0,1.277.118,35.875,35.875,0,0,0,6.169-1.147,9.248,9.248,0,0,1,4.939-.041,17.241,17.241,0,0,0,8.173-.233,9.2,9.2,0,0,1,2.794-.306,13.409,13.409,0,0,0,3-.342,23.1,23.1,0,0,0,3.847-.66c2.131-.673,4.039.1,5.826,1.126a2.391,2.391,0,0,1,1.081,2.665,1.41,1.41,0,0,0,.908,1.742,3.745,3.745,0,0,1,1.193.894,6.332,6.332,0,0,0,3.809,2.262,10.975,10.975,0,0,0,3.853.126,10.181,10.181,0,0,1,3.653.266,17.621,17.621,0,0,0,6.469.5c2.58-.42,5.206-.559,7.8-.932,1.658-.239,3.165.351,4.72.64a1.766,1.766,0,0,1,1.476,1.921,2.565,2.565,0,0,0,1.551,2.6,17.378,17.378,0,0,1,2.509,2.081c2.529,2.324,5.474,4.089,8.179,6.176,1.227.068,1.77,1.123,2.586,1.787a10.249,10.249,0,0,0,1.057.749c.307.192.734.263.946.521a5.276,5.276,0,0,0,2.209,1.7C231.671,27.381,232.425,27.824,233.3,28.253Z"/><path class="cls-3" d="M192.009,48.158c-3.4-1.03-6.851-.2-10.274-.306a12.174,12.174,0,0,1-4.058-.427,13.835,13.835,0,0,0-9.3-.225,4.749,4.749,0,0,1-2.429.152c-2.327-.636-4.657-.335-6.989-.277-2.891.072-5.839.584-8.658.157a64.459,64.459,0,0,0-10.7-.224c-1.507.021-3.017-.081-4.523-.166s-3-.314-4.5-.312c-2.341,0-4.681.193-7.021.226-5.351.076-10.708,1.042-16.053-.1a2.283,2.283,0,0,0-.824,0c-4.22.7-8.477.206-12.713.332-2.329.069-4.628-.11-6.863.706a3.427,3.427,0,0,1-.691.177c.023.041.045.082.072.123a3.885,3.885,0,0,1,.279.638c-.394.446-1.058.414-1.361.985.241.164.418-.139.614-.038.227.4.227.4-.037,1.029a1.341,1.341,0,0,1,.288.784,2.662,2.662,0,0,0,.232.669l-.627.587c.039.162.074.326.116.487a.793.793,0,0,0,.456.521,12.119,12.119,0,0,1,1.145.773c-.17.418-.544.456-.89.582.032.1.125.249.088.309-.271.448-.008,1.026-.34,1.452-.011.015,0,.048,0,.136.1.154.225.354.373.585l-.482.421a9.164,9.164,0,0,0,.763,3.794l-.337.562a1.69,1.69,0,0,1,.2,1.333c-.013.1-.074.213-.042.288.3.7-.03,1.472.216,2.185.071.207.064.44.256.587a.525.525,0,0,1,.19.456,1.945,1.945,0,0,1,0,.517A13.984,13.984,0,0,0,87.5,69.1a.632.632,0,0,0,.084.349c.072.154.17.3.274.47a12.686,12.686,0,0,1-.563,2.416.683.683,0,0,0-.034.361c.063.536.147,1.069.207,1.606a3.17,3.17,0,0,1-.044.438c0,.116-.025.278.036.344a.573.573,0,0,1,.1.614.95.95,0,0,0,0,.434.544.544,0,0,1-.04.422,1.613,1.613,0,0,0-.076,1.221,4.019,4.019,0,0,0,.376.951.823.823,0,0,1,.08.563c-.078.51-.143,1.023-.2,1.536a.836.836,0,0,0,.226.748.787.787,0,0,1,.208.607c.008.742.026,1.484.032,2.226a.859.859,0,0,1-.058.433,2.184,2.184,0,0,0-.273.906c-.035.247-.324.452-.083.747.149.183-.038.483.2.675.074.059.078.291.036.416a7.634,7.634,0,0,0-.235,2.567,6.456,6.456,0,0,1-.081.805,1.9,1.9,0,0,0,.131,1.292.732.732,0,0,1,.058.643.68.68,0,0,0,.064.568,1.185,1.185,0,0,1,.064,1,1.212,1.212,0,0,0,.066,1,1.03,1.03,0,0,1,.072.569A4.607,4.607,0,0,0,88.3,98.3a.419.419,0,0,1,.043.284c-.155.356.121.733-.065,1.085a.343.343,0,0,0,.017.216,6.173,6.173,0,0,1,.278,1.447,1.737,1.737,0,0,0,.172.45c-.423.626-.252,1.406-.408,2.123a.2.2,0,0,0,.016.143c.216.265.121.641.272.9a1.711,1.711,0,0,1-.057,1.617,2.194,2.194,0,0,0-.118.421c-.076.435-.142.872-.225,1.4.284.31.211.792.227,1.252a1.347,1.347,0,0,0,.268.89,6.052,6.052,0,0,1,.539.951c-.145.339-.3.668-.423,1.009a.708.708,0,0,0-.018.431,1.931,1.931,0,0,1-.007,1.015c-.027.151-.062.3-.093.455a5.473,5.473,0,0,1,.794.44,2.886,2.886,0,0,0,2.717-.15,3.658,3.658,0,0,1,3.693.272,2.052,2.052,0,0,0,2.01.184c1.9-.7,3.86-.543,5.843-.6,3.607-.106,7.231.31,10.824-.282a1.943,1.943,0,0,1,.7,0c4.551.971,9.112.148,13.668.083,1.992-.028,3.984-.189,5.977-.192,1.278,0,2.556.192,3.836.265s2.567.16,3.85.142a54.751,54.751,0,0,1,9.11.191c2.4.363,4.91-.073,7.371-.134a20.119,20.119,0,0,1,5.95.236,4.051,4.051,0,0,0,2.068-.129,11.775,11.775,0,0,1,7.917.191,10.373,10.373,0,0,0,3.455.363c2.914.094,5.848-.616,8.746.261a1.64,1.64,0,0,0,1.039-.022c2.737-1.162,5.472-.246,8.206-.037a.954.954,0,0,0-.051-.195.2.2,0,0,1,0-.145c.223-.471,0-.918-.062-1.409-.1-.073-.207-.164-.325-.243a1.587,1.587,0,0,1-.579-.99.351.351,0,0,1,.046-.278c.243-.254.261-.617.45-.926l-.222-.347c0-.025-.013-.062,0-.073.321-.307.1-.7.157-1.053s.042-.689.063-1.034c0-.073,0-.168.037-.215.3-.348.2-.721.12-1.118-.049-.257.062-.546.014-.8s-.23-.482-.3-.736a1.1,1.1,0,0,1,.041-.5,2.249,2.249,0,0,1,.151-.375c-.029-.086-.031-.155-.061-.174a.957.957,0,0,1-.482-.914,6.661,6.661,0,0,1-.017-1.1,2.614,2.614,0,0,0-.073-1.175,1.058,1.058,0,0,1,.118-1.053.432.432,0,0,0,.089-.273,1.615,1.615,0,0,1,.387-1.1,3.075,3.075,0,0,1-.145-1.305c.021-.075-.049-.185-.093-.27-.088-.173-.186-.341-.284-.519l.258-.568-.357-.443c.023-.272.036-.542.072-.808a1.765,1.765,0,0,1,.129-.567.648.648,0,0,0-.211-.9,1.05,1.05,0,0,1-.249-.345,1.009,1.009,0,0,1-.063-.716,2.138,2.138,0,0,1,.469-1.071l-.245-.116h0a2.17,2.17,0,0,0-.145-.634,1.4,1.4,0,0,1-.136-.86c.029-.343.073-.685.132-1.023a.564.564,0,0,1,.164-.312.779.779,0,0,0,.239-.665c-.011-.445-.008-.89-.011-1.352-.186-.213-.374-.433-.565-.65a.594.594,0,0,1-.05-.749,1.373,1.373,0,0,1,.246-.363.713.713,0,0,0,.178-.814,3.834,3.834,0,0,1-.116-1.1,1.649,1.649,0,0,1,.259-1.126.742.742,0,0,0,.094-.707,1.323,1.323,0,0,1-.009-.8.909.909,0,0,0-.033-.5,7.785,7.785,0,0,0-.467-1.158.894.894,0,0,1-.083-.844,1.96,1.96,0,0,0,.086-1.286,4.87,4.87,0,0,1,.034-1.8,11.234,11.234,0,0,1-.919-1.438,7.793,7.793,0,0,0-1.132-1.553c.09-.169.176-.366.291-.543a1.19,1.19,0,0,0,.036-1.382.431.431,0,0,1-.028-.141c.05-.224.285-.137.451-.306a1.7,1.7,0,0,0,.014-.514c-.11-.442-.077-.794.4-.923a1.886,1.886,0,0,0-.021-.921c-.111-.419-.174-.825.225-1.148a.486.486,0,0,0,.1-.338q-.012-.921-.056-1.841a1.1,1.1,0,0,0-.123-.344,1.037,1.037,0,0,1,.133-1.171,1.1,1.1,0,0,0,.224-1.171.547.547,0,0,1-.045-.216,3.8,3.8,0,0,0-.331-1.723.843.843,0,0,1-.029-.43,4.2,4.2,0,0,0-.049-1.544,1.761,1.761,0,0,1-.02-.806,1.368,1.368,0,0,0-.063-.863,1.086,1.086,0,0,1-.039-.862.382.382,0,0,0,.01-.218,6.548,6.548,0,0,1,.011-1.595c.021-.37,0-.742,0-1.112,0-.222-.058-.492.04-.657.288-.484.075-.959.039-1.43a2.159,2.159,0,0,1,0-.652,2.469,2.469,0,0,0,.037-.59c0-.214-.038-.427-.062-.64a8.039,8.039,0,0,0-.967.335A1.927,1.927,0,0,1,192.009,48.158Z"/><path class="cls-1" d="M194.238,46.978a.1.1,0,0,0,0-.073c-.286-.516-.074-1.114-.254-1.65a1.085,1.085,0,0,1-.028-.441,1.363,1.363,0,0,0-.262-.984,3.227,3.227,0,0,0,.306-2.3,1.583,1.583,0,0,1,.013-.433c0-.1.054-.232.01-.286-.25-.312-.108-.652-.108-.987a5.555,5.555,0,0,0-.111-1.7,1.834,1.834,0,0,1-.036-.516c-.008-.643-.017-1.287-.011-1.93a2.3,2.3,0,0,1,.075-.654.635.635,0,0,0-.171-.738,1.046,1.046,0,0,1-.358-.922,1.934,1.934,0,0,0-.2-.933,3.865,3.865,0,0,1-.18-2.107c.012-.122.053-.241.069-.363a.675.675,0,0,0-.4-.782c-.186-.089-.408-.139-.531-.4l.57-.349c-.007-.291-.129-.621.1-.893a5.472,5.472,0,0,1,.153-.643c-1.22-.151-2.44-.33-3.662-.446-1.044-.1-2.094-.174-3.128-.344a16,16,0,0,0-6.221.187,12.255,12.255,0,0,1-4.2.088,7.477,7.477,0,0,0-3.1.142,3.36,3.36,0,0,1-1.736.062,5.646,5.646,0,0,0-3.775.123,5.142,5.142,0,0,1-1.729.024c-.454.007-1.067-.148-1.335.094-1.184,1.073-2.6.914-3.99,1.081-2.19.264-4.374.817-6.473-.391-2.487.133-4.86-.6-7.285-.955-1.569-.228-3.2.159-4.847-.032-2.649-.306-5.329-.341-8-.427a8.029,8.029,0,0,0-2.433.264,15.67,15.67,0,0,1-7.986.32,5.959,5.959,0,0,0-1.394-.155c-4.326.048-8.64.08-12.975-.109-4.551-.2-9.089-.318-13.617-.9a10.068,10.068,0,0,0-3.807.361,7.691,7.691,0,0,1-4.143.03c-.181-.049-.363-.087-.545-.13.142.282.094.655.4.842a1.573,1.573,0,0,1,.072.786.8.8,0,0,0,.079.712,4.986,4.986,0,0,1,.434,1.7.455.455,0,0,1-.234.5c-.48.262-.569.832-.914,1.2a.71.71,0,0,0-.058.713,1.463,1.463,0,0,1-.15,1.271,1.4,1.4,0,0,0-.181,1.2.667.667,0,0,1-.012.432.991.991,0,0,0,.23,1.024c.089.114.17.234.256.352-.167.468-.328.92-.5,1.405a8.722,8.722,0,0,1,.256,1.843c.033.142.006.326.083.426.221.285.108.557.044.844a1.16,1.16,0,0,0-.065.572.842.842,0,0,1-.153.845.611.611,0,0,1,.142.744,4.689,4.689,0,0,0-.209.468,1.2,1.2,0,0,0,.228,1.314c-.021.6-.045,1.168-.059,1.735a2.237,2.237,0,0,0,.228,1.149A3.427,3.427,0,0,0,87.1,47.7c2.235-.816,4.534-.637,6.863-.706,4.236-.126,8.493.363,12.713-.332a2.283,2.283,0,0,1,.824,0c5.345,1.14,10.7.174,16.053.1,2.34-.033,4.68-.223,7.021-.226,1.5,0,3,.226,4.5.312s3.016.187,4.523.166a64.459,64.459,0,0,1,10.7.224c2.819.427,5.767-.085,8.658-.157,2.332-.058,4.662-.359,6.989.277a4.749,4.749,0,0,0,2.429-.152,13.835,13.835,0,0,1,9.3.225,12.174,12.174,0,0,0,4.058.427c3.423.11,6.87-.724,10.274.306a1.927,1.927,0,0,0,1.22-.025,8.039,8.039,0,0,1,.967-.335A1.915,1.915,0,0,1,194.238,46.978Z"/><path class="cls-3" d="M101.5,36.444a1.316,1.316,0,0,0-.061.293.54.54,0,0,1-.038.167.543.543,0,0,0-.044.2.222.222,0,0,1-.051.147,1.013,1.013,0,0,0-.207.416.252.252,0,0,1-.06.111,1.077,1.077,0,0,0-.1.175c-.025.048-.045.1-.068.146a.1.1,0,0,1-.024.034.65.65,0,0,0-.148.193.372.372,0,0,1-.04.049.652.652,0,0,1-.083.1c-.09.074-.156.172-.241.25a.221.221,0,0,0-.032.028.857.857,0,0,1-.387.259,2.121,2.121,0,0,0-.363.13c-.009.005-.02.012-.029.01a.456.456,0,0,0-.275.077c-.06.027-.115.067-.176.092a.633.633,0,0,0-.151.093c-.066.053-.135.1-.2.151a.348.348,0,0,1-.093.045.458.458,0,0,0-.221.172.275.275,0,0,1-.122.095.841.841,0,0,0-.159.079.187.187,0,0,1-.178.033.054.054,0,0,0-.031,0,2.569,2.569,0,0,0-.272.067.246.246,0,0,1-.061.014c-.041.006-.082.011-.124.015a.08.08,0,0,1-.041,0c-.06-.034-.129-.016-.192-.033-.037-.009-.075-.015-.112-.024a.054.054,0,0,1-.035-.02c-.067-.116-.179-.122-.29-.13-.024,0-.049,0-.073,0a1.694,1.694,0,0,1-.248-.024.512.512,0,0,1-.21-.086.315.315,0,0,0-.316-.05l-.088.035a.16.16,0,0,1-.15-.012.729.729,0,0,0-.252-.1.078.078,0,0,1-.061-.037c-.043-.08-.128-.093-.2-.129-.024-.013-.06,0-.1,0a.1.1,0,0,0-.065-.083.089.089,0,0,1-.05-.066.207.207,0,0,0-.054-.091,1.02,1.02,0,0,0-.185-.2c-.051-.093-.154-.134-.208-.225a.078.078,0,0,0-.052-.031.091.091,0,0,1-.078-.09.3.3,0,0,0-.1-.185,1.029,1.029,0,0,1-.061-.086.9.9,0,0,0-.109-.114l-.009,0c-.049-.014-.06-.069-.1-.095a.662.662,0,0,1-.107-.065.349.349,0,0,1-.074-.175,1.687,1.687,0,0,0-.05-.21.629.629,0,0,1-.041-.12c0-.015-.011-.031-.008-.042a.255.255,0,0,0-.016-.168.1.1,0,0,1,0-.053.181.181,0,0,0-.043-.179,2.749,2.749,0,0,1-.187-.3.17.17,0,0,1-.021-.08,1.067,1.067,0,0,0-.037-.244.487.487,0,0,1-.014-.138.233.233,0,0,0-.025-.125.1.1,0,0,1-.013-.052c0-.118-.017-.235-.029-.352a.456.456,0,0,1,0-.064c0-.022.007-.049,0-.064a.269.269,0,0,1-.016-.187.229.229,0,0,0-.011-.085.229.229,0,0,1,0-.127c.022-.08.038-.161.06-.24a.2.2,0,0,0,0-.117.942.942,0,0,1-.022-.322.133.133,0,0,1,.013-.051l.088-.2c.029-.062.055-.125.125-.15a.077.077,0,0,0,.045-.056.708.708,0,0,0,.04-.178.348.348,0,0,1,.095-.231.748.748,0,0,0,.152-.24.261.261,0,0,1,.111-.139.442.442,0,0,0,.117-.119,1.309,1.309,0,0,1,.12-.186c.026-.026.029-.078.047-.131a.246.246,0,0,0,.1-.212l-.029-.025a.468.468,0,0,0,.156-.209.42.42,0,0,1,.076-.127c.051-.059.089-.127.137-.188.009-.011.013-.027.024-.035.031-.023.065-.04.095-.064s.052-.06.084-.077a.174.174,0,0,0,.09-.089c.034,0,.065,0,.1,0a.214.214,0,0,0,.137-.036.216.216,0,0,1,.182-.023.278.278,0,0,0,.154,0,.584.584,0,0,1,.073,0,.09.09,0,0,0,.05-.01.425.425,0,0,1,.155-.059.078.078,0,0,0,.043-.027.142.142,0,0,1,.119-.056.356.356,0,0,0,.1-.024.661.661,0,0,1,.192-.043.975.975,0,0,0,.182-.041c.024-.006.046-.015.07-.022.1-.03.207-.059.31-.09a.2.2,0,0,1,.112-.011.157.157,0,0,0,.061,0,.287.287,0,0,1,.212.03c.029.017.07.013.1.031a.269.269,0,0,0,.2.021A1.45,1.45,0,0,0,97.8,31.6a.184.184,0,0,1,.093,0,.237.237,0,0,0,.218-.035.05.05,0,0,1,.085.037.177.177,0,0,0,.116.151.76.76,0,0,1,.159.121.265.265,0,0,0,.161.064.18.18,0,0,1,.108.034.175.175,0,0,0,.118.033h.073a.127.127,0,0,1,.052,0,1.191,1.191,0,0,0,.133.058c.043.011.091,0,.129.036a.274.274,0,0,0,.146.051.347.347,0,0,1,.2.1.277.277,0,0,0,.164.084.338.338,0,0,1,.243.131.1.1,0,0,0,.082.039c.085-.005.137.059.2.1.011.009.013.032.016.041.074.046.141.087.208.131a.134.134,0,0,1,.037.038c.029.046.057.091.113.1a.027.027,0,0,1,.016.013c.027.072.09.083.152.095a.417.417,0,0,1,.1.212.09.09,0,0,0,.019.049.092.092,0,0,1,.009.082.192.192,0,0,0,.017.146.212.212,0,0,1,.015.094.3.3,0,0,0,.276.3l.073.006a.257.257,0,0,1,.048.164.433.433,0,0,0,.046.208.63.63,0,0,1,.038.134c.007.035.011.07.015.106a.12.12,0,0,1,0,.053.7.7,0,0,0-.015.2.209.209,0,0,0,.042.141Z"/><path class="cls-3" d="M115.565,36.444a1.375,1.375,0,0,0-.061.293.489.489,0,0,1-.038.167.522.522,0,0,0-.043.2.217.217,0,0,1-.052.147,1.013,1.013,0,0,0-.207.416.26.26,0,0,1-.059.111,1.082,1.082,0,0,0-.1.175c-.024.048-.044.1-.067.146a.086.086,0,0,1-.025.034.667.667,0,0,0-.148.193.306.306,0,0,1-.04.049.646.646,0,0,1-.082.1c-.09.074-.156.172-.242.25-.01.01-.023.017-.032.028a.852.852,0,0,1-.387.259,2.152,2.152,0,0,0-.363.13.046.046,0,0,1-.029.01.453.453,0,0,0-.274.077c-.061.027-.116.067-.177.092a.654.654,0,0,0-.151.093c-.066.053-.134.1-.2.151a.37.37,0,0,1-.094.045.456.456,0,0,0-.22.172.281.281,0,0,1-.122.095.786.786,0,0,0-.159.079.189.189,0,0,1-.179.033.051.051,0,0,0-.03,0,2.528,2.528,0,0,0-.273.067.249.249,0,0,1-.06.014l-.124.015a.08.08,0,0,1-.041,0c-.061-.034-.129-.016-.193-.033-.037-.009-.075-.015-.112-.024a.056.056,0,0,1-.035-.02c-.067-.116-.178-.122-.29-.13-.024,0-.048,0-.073,0a1.707,1.707,0,0,1-.248-.024.512.512,0,0,1-.21-.086.314.314,0,0,0-.316-.05l-.088.035a.16.16,0,0,1-.15-.012.729.729,0,0,0-.252-.1.078.078,0,0,1-.06-.037c-.044-.08-.128-.093-.2-.129-.025-.013-.06,0-.1,0a.1.1,0,0,0-.066-.083.086.086,0,0,1-.049-.066.209.209,0,0,0-.055-.091,1.02,1.02,0,0,0-.185-.2c-.05-.093-.154-.134-.208-.225a.078.078,0,0,0-.051-.031.092.092,0,0,1-.079-.09.3.3,0,0,0-.095-.185,1.041,1.041,0,0,1-.062-.086.826.826,0,0,0-.108-.114l-.01,0c-.048-.014-.06-.069-.1-.095a.7.7,0,0,1-.106-.065.35.35,0,0,1-.075-.175,1.881,1.881,0,0,0-.049-.21.632.632,0,0,1-.042-.12c0-.015-.011-.031-.007-.042a.268.268,0,0,0-.016-.168.087.087,0,0,1,0-.053.181.181,0,0,0-.043-.179,2.757,2.757,0,0,1-.188-.3.2.2,0,0,1-.021-.08,1.015,1.015,0,0,0-.037-.244.526.526,0,0,1-.014-.138.224.224,0,0,0-.025-.125.1.1,0,0,1-.013-.052c0-.118-.017-.235-.029-.352,0-.021,0-.043,0-.064s.008-.049,0-.064a.263.263,0,0,1-.015-.187.252.252,0,0,0-.011-.085.238.238,0,0,1,0-.127c.022-.08.039-.161.061-.24a.2.2,0,0,0,0-.117.968.968,0,0,1-.022-.322.153.153,0,0,1,.013-.051c.029-.065.059-.13.089-.2s.054-.125.124-.15a.075.075,0,0,0,.045-.056.708.708,0,0,0,.04-.178.353.353,0,0,1,.095-.231.716.716,0,0,0,.152-.24.27.27,0,0,1,.111-.139.431.431,0,0,0,.118-.119,1.221,1.221,0,0,1,.119-.186c.026-.026.029-.078.047-.131a.246.246,0,0,0,.1-.212l-.028-.025a.476.476,0,0,0,.156-.209.4.4,0,0,1,.075-.127c.052-.059.09-.127.137-.188.009-.011.014-.027.024-.035.031-.023.065-.04.095-.064s.052-.06.085-.077a.181.181,0,0,0,.09-.089c.034,0,.064,0,.095,0a.216.216,0,0,0,.138-.036.216.216,0,0,1,.182-.023.278.278,0,0,0,.154,0,.555.555,0,0,1,.072,0,.1.1,0,0,0,.051-.01.412.412,0,0,1,.155-.059.086.086,0,0,0,.043-.027.139.139,0,0,1,.118-.056.348.348,0,0,0,.1-.024.668.668,0,0,1,.193-.043.993.993,0,0,0,.182-.041c.023-.006.046-.015.069-.022.1-.03.208-.059.311-.09a.2.2,0,0,1,.112-.011.157.157,0,0,0,.061,0,.283.283,0,0,1,.211.03c.029.017.07.013.1.031a.268.268,0,0,0,.2.021,1.492,1.492,0,0,0,.186-.021.185.185,0,0,1,.093,0,.235.235,0,0,0,.217-.035.05.05,0,0,1,.086.037.177.177,0,0,0,.115.151.76.76,0,0,1,.159.121.268.268,0,0,0,.162.064.18.18,0,0,1,.108.034.172.172,0,0,0,.118.033h.073a.13.13,0,0,1,.052,0,1.176,1.176,0,0,0,.132.058c.044.011.091,0,.129.036a.274.274,0,0,0,.147.051.345.345,0,0,1,.2.1.28.28,0,0,0,.164.084.342.342,0,0,1,.244.131.093.093,0,0,0,.081.039c.086-.005.138.059.2.1.012.009.013.032.017.041.073.046.141.087.208.131a.119.119,0,0,1,.036.038.192.192,0,0,0,.114.1.03.03,0,0,1,.016.013c.027.072.09.083.151.095a.409.409,0,0,1,.1.212.1.1,0,0,0,.019.049.1.1,0,0,1,.01.082.192.192,0,0,0,.016.146.2.2,0,0,1,.015.094.3.3,0,0,0,.276.3l.073.006a.264.264,0,0,1,.049.164.432.432,0,0,0,.045.208.531.531,0,0,1,.038.134c.008.035.011.07.016.106a.119.119,0,0,1,0,.053.7.7,0,0,0-.015.2.209.209,0,0,0,.042.141Z"/><path class="cls-3" d="M131.305,36.444a1.316,1.316,0,0,0-.061.293.489.489,0,0,1-.038.167.543.543,0,0,0-.044.2.212.212,0,0,1-.051.147,1.013,1.013,0,0,0-.207.416.26.26,0,0,1-.059.111,1.082,1.082,0,0,0-.1.175c-.024.048-.044.1-.067.146a.086.086,0,0,1-.025.034.667.667,0,0,0-.148.193.306.306,0,0,1-.04.049.646.646,0,0,1-.082.1c-.09.074-.156.172-.242.25-.01.01-.023.017-.032.028a.852.852,0,0,1-.387.259,2.152,2.152,0,0,0-.363.13c-.009.005-.02.012-.029.01a.456.456,0,0,0-.275.077c-.06.027-.115.067-.176.092a.633.633,0,0,0-.151.093c-.066.053-.134.1-.2.151a.348.348,0,0,1-.093.045.456.456,0,0,0-.22.172.281.281,0,0,1-.122.095.821.821,0,0,0-.16.079.187.187,0,0,1-.178.033.054.054,0,0,0-.031,0,2.569,2.569,0,0,0-.272.067.246.246,0,0,1-.061.014q-.062.009-.123.015a.079.079,0,0,1-.041,0c-.061-.034-.13-.016-.193-.033-.037-.009-.075-.015-.112-.024a.056.056,0,0,1-.035-.02c-.067-.116-.178-.122-.29-.13-.024,0-.049,0-.073,0a1.707,1.707,0,0,1-.248-.024.512.512,0,0,1-.21-.086.314.314,0,0,0-.316-.05l-.088.035a.16.16,0,0,1-.15-.012.729.729,0,0,0-.252-.1.078.078,0,0,1-.06-.037c-.044-.08-.128-.093-.2-.129-.025-.013-.061,0-.1,0a.1.1,0,0,0-.066-.083.086.086,0,0,1-.049-.066.219.219,0,0,0-.055-.091,1.02,1.02,0,0,0-.185-.2c-.05-.093-.154-.134-.208-.225a.078.078,0,0,0-.052-.031.092.092,0,0,1-.078-.09.3.3,0,0,0-.1-.185,1.029,1.029,0,0,1-.061-.086.826.826,0,0,0-.108-.114l-.01,0c-.048-.014-.06-.069-.1-.095a.708.708,0,0,1-.107-.065.349.349,0,0,1-.074-.175,1.881,1.881,0,0,0-.049-.21.632.632,0,0,1-.042-.12c0-.015-.011-.031-.007-.042a.268.268,0,0,0-.016-.168.1.1,0,0,1,0-.053.177.177,0,0,0-.043-.179,2.749,2.749,0,0,1-.187-.3.2.2,0,0,1-.021-.08,1.067,1.067,0,0,0-.037-.244.526.526,0,0,1-.014-.138.224.224,0,0,0-.025-.125.1.1,0,0,1-.013-.052c0-.118-.017-.235-.029-.352,0-.021,0-.043,0-.064s.008-.049,0-.064a.263.263,0,0,1-.015-.187.28.28,0,0,0-.011-.085.229.229,0,0,1,0-.127c.022-.08.039-.161.06-.24a.2.2,0,0,0,0-.117.968.968,0,0,1-.022-.322.153.153,0,0,1,.013-.051c.029-.065.059-.13.089-.2s.054-.125.124-.15a.077.077,0,0,0,.045-.056.708.708,0,0,0,.04-.178.353.353,0,0,1,.095-.231.732.732,0,0,0,.152-.24.265.265,0,0,1,.111-.139.431.431,0,0,0,.118-.119,1.221,1.221,0,0,1,.119-.186c.026-.026.029-.078.047-.131a.246.246,0,0,0,.1-.212l-.028-.025a.466.466,0,0,0,.155-.209.42.42,0,0,1,.076-.127c.052-.059.09-.127.137-.188.009-.011.014-.027.024-.035.031-.023.065-.04.095-.064s.052-.06.085-.077a.175.175,0,0,0,.089-.089c.034,0,.065,0,.1,0a.218.218,0,0,0,.138-.036.215.215,0,0,1,.182-.023.274.274,0,0,0,.153,0,.584.584,0,0,1,.073,0,.1.1,0,0,0,.051-.01.414.414,0,0,1,.154-.059.084.084,0,0,0,.044-.027.139.139,0,0,1,.118-.056.348.348,0,0,0,.1-.024.668.668,0,0,1,.192-.043.957.957,0,0,0,.182-.041c.024-.006.047-.015.07-.022.1-.03.207-.059.31-.09a.2.2,0,0,1,.113-.011.157.157,0,0,0,.061,0,.284.284,0,0,1,.211.03c.029.017.07.013.1.031a.268.268,0,0,0,.2.021,1.492,1.492,0,0,0,.186-.021.185.185,0,0,1,.093,0,.235.235,0,0,0,.217-.035A.05.05,0,0,1,128,31.6a.177.177,0,0,0,.115.151.76.76,0,0,1,.159.121.267.267,0,0,0,.161.064.176.176,0,0,1,.108.034.176.176,0,0,0,.119.033h.073a.13.13,0,0,1,.052,0,1.1,1.1,0,0,0,.132.058c.044.011.091,0,.129.036a.274.274,0,0,0,.147.051.348.348,0,0,1,.2.1.28.28,0,0,0,.164.084.338.338,0,0,1,.243.131.1.1,0,0,0,.082.039c.086-.005.137.059.2.1.012.009.013.032.016.041.074.046.142.087.208.131a.112.112,0,0,1,.037.038.192.192,0,0,0,.114.1.03.03,0,0,1,.016.013c.027.072.09.083.151.095a.409.409,0,0,1,.1.212.1.1,0,0,0,.019.049.092.092,0,0,1,.009.082.2.2,0,0,0,.017.146.2.2,0,0,1,.015.094.3.3,0,0,0,.276.3l.073.006a.257.257,0,0,1,.048.164.433.433,0,0,0,.046.208.531.531,0,0,1,.038.134c.008.035.011.07.016.106a.119.119,0,0,1,0,.053.7.7,0,0,0-.015.2.209.209,0,0,0,.042.141Z"/><path class="cls-1" d="M118.591,78.521a.3.3,0,0,1-.107-.105,2.353,2.353,0,0,0-.86-.713,6.705,6.705,0,0,1-.588-.4,2.364,2.364,0,0,0-.255-.171,1.409,1.409,0,0,1-.591-.478.354.354,0,0,0-.158-.125,2.271,2.271,0,0,1-.923-.7.453.453,0,0,0-.245-.169,1.322,1.322,0,0,1-.924-.746c-.128-.238-.428-.251-.555-.483a.3.3,0,0,1-.028-.053c-.024-.063-.139-.09-.213-.131a.261.261,0,0,0-.1-.033.463.463,0,0,1-.465-.333.189.189,0,0,0-.114-.095,3.355,3.355,0,0,0-.478-.132c-.1-.017-.2-.023-.267-.118a2.334,2.334,0,0,0-.842-.629,1.957,1.957,0,0,1-.8-.619.391.391,0,0,0-.156-.131,1.211,1.211,0,0,1-.36-.353,1.818,1.818,0,0,0-1.443-.831.436.436,0,0,1-.41-.255,1.594,1.594,0,0,0-.69-.593c-.566-.3-1.128-.617-1.675-.956a1.116,1.116,0,0,1-.549-.657.511.511,0,0,0-.3-.334,8.381,8.381,0,0,0-1.229-.469.592.592,0,0,1-.381-.31.93.93,0,0,0-.619-.5c-.258-.076-.509-.173-.762-.267a.451.451,0,0,1-.168-.107,2.153,2.153,0,0,0-1.15-.787.4.4,0,0,1-.134-.072c-.167-.116-.323-.308-.5-.332-.239-.033-.276-.306-.521-.35-.143.123-.341.233-.395.436-.094.35-.373.581-.492.909a.3.3,0,0,1-.117.166c-.2.089-.227.279-.31.449-.106.215-.275.4-.386.61a1.876,1.876,0,0,1-.521.633,1.528,1.528,0,0,0-.431.566c-.135.263-.271.526-.405.789-.055.109-.109.218-.16.329a.691.691,0,0,0,.047.649.975.975,0,0,0,.565.414,1.676,1.676,0,0,1,.373.147,5.02,5.02,0,0,0,.47.288,3.415,3.415,0,0,0,.756.476c.028.009.047.049.072.072.189.174.385.34.567.521a6.034,6.034,0,0,1,.853.8.523.523,0,0,0,.381.23.36.36,0,0,1,.256.14c.151.314.443.415.711.557a6.457,6.457,0,0,1,1.93,1.329.29.29,0,0,0,.167.105c.212.018.32.183.449.317s.23.262.417.271a.629.629,0,0,1,.452.3,1.225,1.225,0,0,0,.685.5.57.57,0,0,1,.41.365.9.9,0,0,0,.518.469,4.493,4.493,0,0,0,.443.165c.028.281.277.41.419.62a.362.362,0,0,0,.3.141c.315-.077.424.117.525.354a.561.561,0,0,0,.094.117.837.837,0,0,1,.554.142c-.188.131-.265.395-.517.441-.064.012-.112.124-.165.192a.3.3,0,0,0-.049.092c-.061.214-.159.384-.4.41a.188.188,0,0,0-.111.1,3.522,3.522,0,0,0-.216.462c-.035.1-.06.2-.162.25a2.367,2.367,0,0,0-.755.739,1.971,1.971,0,0,1-.738.7.379.379,0,0,0-.152.133,1.176,1.176,0,0,1-.4.3,1.889,1.889,0,0,0-1.06,1.313.448.448,0,0,1-.319.37,1.59,1.59,0,0,0-.691.59c-.395.519-.8,1.033-1.222,1.525a1.074,1.074,0,0,1-.725.435.5.5,0,0,0-.372.238,8.925,8.925,0,0,0-.677,1.163.593.593,0,0,1-.365.329.936.936,0,0,0-.591.536c-.12.248-.26.486-.4.725a.438.438,0,0,1-.132.151,2.208,2.208,0,0,0-.963,1.023.381.381,0,0,1-.094.123c-.14.148-.352.271-.408.447-.076.238-.343.224-.43.465.089.168.156.391.338.485.314.162.48.489.768.672a.3.3,0,0,1,.135.151c.048.216.222.284.366.4.184.149.324.355.5.508a1.883,1.883,0,0,1,.5.65,1.487,1.487,0,0,0,.455.546c.223.187.446.376.67.562.092.077.186.152.281.225a.624.624,0,0,0,.624.074.983.983,0,0,0,.5-.5,1.791,1.791,0,0,1,.21-.352,5.536,5.536,0,0,0,.362-.425,3.516,3.516,0,0,0,.593-.68c.014-.027.055-.039.082-.06.2-.16.394-.327.6-.478a6.11,6.11,0,0,1,.919-.718.54.54,0,0,0,.29-.345.38.38,0,0,1,.181-.234c.326-.095.477-.373.662-.619a6.624,6.624,0,0,1,1.623-1.714.3.3,0,0,0,.131-.151c.057-.212.234-.291.385-.4s.292-.185.335-.373a.647.647,0,0,1,.368-.4,1.247,1.247,0,0,0,.6-.6.565.565,0,0,1,.422-.348.9.9,0,0,0,.543-.439,4.587,4.587,0,0,0,.24-.42c.271.024.44-.2.666-.309a.385.385,0,0,0,.191-.284c-.014-.336.191-.41.434-.469a.516.516,0,0,0,.129-.073.965.965,0,0,1,.4-.693.887.887,0,0,0,.132-.155,1.936,1.936,0,0,1,1.087-.879.73.73,0,0,0,.157-.09l-.061-.328.308-.055c.193-.219.379-.436.57-.648.095-.107.188-.214.288-.314a.776.776,0,0,1,.5-.315.36.36,0,0,0,.241-.239,1.19,1.19,0,0,1,.508-.744c.049-.037.06-.125.1-.175s.124-.15.19-.154a.564.564,0,0,0,.508-.432c.029-.074.109-.126.152-.174a2.437,2.437,0,0,0,.378-.032.313.313,0,0,0,.205-.129c.125-.3.422-.447.58-.716a.281.281,0,0,1,.153-.131c.36-.073.59-.39.935-.489l-.109-.453c.051-.059.078-.111.119-.135a.545.545,0,0,0,.279-.342C118.768,78.613,118.681,78.564,118.591,78.521Z"/><path class="cls-1" d="M140.981,78.187a.318.318,0,0,1-.107-.106,2.347,2.347,0,0,0-.859-.712,6.787,6.787,0,0,1-.588-.4,2.456,2.456,0,0,0-.255-.17,1.4,1.4,0,0,1-.592-.479.365.365,0,0,0-.157-.125,2.253,2.253,0,0,1-.923-.7.457.457,0,0,0-.246-.17,1.319,1.319,0,0,1-.923-.745c-.128-.239-.428-.251-.556-.483-.009-.018-.02-.033-.028-.053-.023-.063-.138-.091-.213-.131a.278.278,0,0,0-.095-.034.461.461,0,0,1-.465-.332.189.189,0,0,0-.114-.1,3.262,3.262,0,0,0-.478-.132c-.1-.017-.2-.024-.267-.119a2.357,2.357,0,0,0-.842-.629,1.945,1.945,0,0,1-.8-.619.372.372,0,0,0-.155-.13,1.191,1.191,0,0,1-.36-.354,1.824,1.824,0,0,0-1.443-.831.437.437,0,0,1-.411-.255,1.6,1.6,0,0,0-.69-.593c-.565-.3-1.128-.616-1.674-.956a1.107,1.107,0,0,1-.549-.656.514.514,0,0,0-.295-.334,8.441,8.441,0,0,0-1.23-.47.593.593,0,0,1-.381-.309.925.925,0,0,0-.618-.5c-.258-.075-.51-.173-.762-.267a.429.429,0,0,1-.168-.106,2.15,2.15,0,0,0-1.151-.787.392.392,0,0,1-.134-.073c-.167-.115-.323-.307-.5-.332-.24-.032-.277-.306-.521-.349-.143.122-.341.233-.4.435-.094.351-.372.581-.491.91a.3.3,0,0,1-.118.166c-.2.089-.226.279-.31.448-.106.215-.274.4-.385.61a1.866,1.866,0,0,1-.521.633,1.51,1.51,0,0,0-.431.567c-.135.263-.271.525-.406.789-.055.108-.109.218-.159.328a.69.69,0,0,0,.047.65.972.972,0,0,0,.564.413,1.686,1.686,0,0,1,.373.147,5.269,5.269,0,0,0,.471.289,3.466,3.466,0,0,0,.756.476c.028.009.047.049.072.072.189.173.384.34.566.521a6.085,6.085,0,0,1,.853.8.524.524,0,0,0,.382.23.363.363,0,0,1,.255.14,1.352,1.352,0,0,0,.712.558,6.47,6.47,0,0,1,1.93,1.329.3.3,0,0,0,.167.105c.212.017.32.182.449.316s.23.263.417.271a.635.635,0,0,1,.452.3,1.227,1.227,0,0,0,.685.5.57.57,0,0,1,.41.364.9.9,0,0,0,.518.47,4.4,4.4,0,0,0,.443.165c.028.28.276.409.418.619a.364.364,0,0,0,.305.142c.315-.078.424.116.526.353a.5.5,0,0,0,.093.117.84.84,0,0,1,.555.143c-.188.131-.266.394-.518.441-.064.012-.112.124-.164.192a.289.289,0,0,0-.05.091c-.061.215-.159.384-.4.411a.187.187,0,0,0-.112.1,3.586,3.586,0,0,0-.215.462c-.036.1-.061.2-.163.249a2.375,2.375,0,0,0-.754.739,1.979,1.979,0,0,1-.738.7.392.392,0,0,0-.153.134,1.188,1.188,0,0,1-.4.3,1.884,1.884,0,0,0-1.059,1.312.448.448,0,0,1-.319.37,1.6,1.6,0,0,0-.692.591c-.394.519-.8,1.032-1.221,1.525a1.08,1.08,0,0,1-.726.435.5.5,0,0,0-.372.237,8.977,8.977,0,0,0-.676,1.164.6.6,0,0,1-.366.329.93.93,0,0,0-.59.536c-.12.248-.26.486-.4.725a.459.459,0,0,1-.132.151,2.208,2.208,0,0,0-.963,1.023.408.408,0,0,1-.094.123c-.141.148-.352.27-.409.447-.076.238-.342.224-.429.465.089.168.156.391.338.484.313.162.479.49.768.673a.3.3,0,0,1,.135.151c.047.215.221.283.366.4.184.149.324.355.505.508a1.883,1.883,0,0,1,.5.65,1.515,1.515,0,0,0,.455.546l.67.562c.093.076.186.152.282.224a.624.624,0,0,0,.623.075.994.994,0,0,0,.5-.5,1.769,1.769,0,0,1,.209-.352,5.15,5.15,0,0,0,.362-.425,3.579,3.579,0,0,0,.594-.679c.013-.028.055-.039.081-.06.2-.16.395-.328.6-.479a5.991,5.991,0,0,1,.919-.717.545.545,0,0,0,.29-.345c.029-.092.1-.212.181-.234.326-.095.477-.373.662-.62a6.59,6.59,0,0,1,1.623-1.714.3.3,0,0,0,.131-.15c.057-.213.233-.292.384-.4s.292-.185.336-.374a.648.648,0,0,1,.367-.4,1.246,1.246,0,0,0,.6-.6.566.566,0,0,1,.422-.349.9.9,0,0,0,.542-.439,4.7,4.7,0,0,0,.24-.419c.271.024.44-.2.666-.31a.384.384,0,0,0,.192-.284c-.014-.335.19-.41.434-.468a.493.493,0,0,0,.128-.073.97.97,0,0,1,.4-.693.847.847,0,0,0,.132-.155,1.934,1.934,0,0,1,1.088-.879.769.769,0,0,0,.156-.091l-.06-.327.307-.056c.193-.218.38-.436.57-.648.095-.106.189-.213.289-.314a.777.777,0,0,1,.5-.315.362.362,0,0,0,.241-.239,1.192,1.192,0,0,1,.507-.743c.05-.037.061-.126.1-.176s.123-.149.19-.153a.562.562,0,0,0,.507-.432.656.656,0,0,1,.153-.175,2.457,2.457,0,0,0,.378-.031.309.309,0,0,0,.2-.13c.126-.3.423-.446.581-.715a.275.275,0,0,1,.152-.131c.361-.073.591-.391.935-.49l-.108-.453c.051-.059.077-.111.119-.134a.543.543,0,0,0,.278-.342C141.159,78.278,141.072,78.23,140.981,78.187Z"/><path class="cls-1" d="M163.917,77.518a.312.312,0,0,1-.108-.106,2.356,2.356,0,0,0-.859-.712,7.008,7.008,0,0,1-.588-.4,2.225,2.225,0,0,0-.255-.171,1.406,1.406,0,0,1-.592-.479.365.365,0,0,0-.157-.125,2.253,2.253,0,0,1-.923-.7.457.457,0,0,0-.246-.17,1.321,1.321,0,0,1-.923-.745c-.128-.239-.428-.251-.556-.483-.009-.018-.02-.033-.028-.053-.023-.063-.138-.091-.212-.131a.261.261,0,0,0-.1-.033.463.463,0,0,1-.465-.333.189.189,0,0,0-.114-.095,3.355,3.355,0,0,0-.478-.132c-.1-.017-.2-.024-.267-.118a2.348,2.348,0,0,0-.842-.63,1.958,1.958,0,0,1-.8-.619.379.379,0,0,0-.155-.13,1.2,1.2,0,0,1-.36-.354,1.821,1.821,0,0,0-1.443-.831.436.436,0,0,1-.41-.255,1.606,1.606,0,0,0-.69-.593c-.566-.3-1.128-.616-1.675-.956a1.111,1.111,0,0,1-.549-.656.511.511,0,0,0-.295-.334,8.473,8.473,0,0,0-1.229-.47.589.589,0,0,1-.381-.309.929.929,0,0,0-.619-.5c-.258-.075-.51-.173-.762-.267a.429.429,0,0,1-.168-.106,2.152,2.152,0,0,0-1.15-.787.384.384,0,0,1-.134-.073c-.167-.115-.323-.307-.5-.331-.24-.033-.277-.307-.521-.35-.143.122-.341.233-.4.436-.094.35-.373.58-.492.909a.3.3,0,0,1-.118.166c-.2.089-.226.279-.309.448-.107.215-.275.4-.386.61a1.87,1.87,0,0,1-.521.634,1.528,1.528,0,0,0-.431.566c-.135.263-.271.526-.405.789-.056.108-.109.218-.16.329a.688.688,0,0,0,.047.649.978.978,0,0,0,.564.414,1.638,1.638,0,0,1,.373.147,5.4,5.4,0,0,0,.471.288,3.415,3.415,0,0,0,.756.476c.028.009.047.049.072.072.189.173.385.34.566.521a6.148,6.148,0,0,1,.854.8.52.52,0,0,0,.381.23.367.367,0,0,1,.256.14c.151.315.443.416.711.558a6.457,6.457,0,0,1,1.93,1.329.292.292,0,0,0,.167.105c.212.018.32.182.449.316s.23.263.417.272a.631.631,0,0,1,.452.3,1.222,1.222,0,0,0,.685.5.568.568,0,0,1,.41.364.9.9,0,0,0,.518.47,4.4,4.4,0,0,0,.443.165c.028.28.277.409.418.619a.366.366,0,0,0,.306.142c.314-.078.424.116.525.354a.525.525,0,0,0,.094.116.837.837,0,0,1,.554.143c-.188.131-.266.394-.518.441-.063.012-.111.124-.164.192a.278.278,0,0,0-.049.091c-.061.215-.159.385-.4.411a.188.188,0,0,0-.111.1,3.522,3.522,0,0,0-.216.462c-.036.1-.061.2-.162.249a2.378,2.378,0,0,0-.755.739,1.971,1.971,0,0,1-.738.7.392.392,0,0,0-.153.134,1.185,1.185,0,0,1-.4.3,1.887,1.887,0,0,0-1.06,1.313.447.447,0,0,1-.319.369,1.607,1.607,0,0,0-.692.591c-.394.519-.8,1.032-1.221,1.525a1.076,1.076,0,0,1-.725.435.5.5,0,0,0-.372.237,8.87,8.87,0,0,0-.677,1.164.6.6,0,0,1-.365.329.934.934,0,0,0-.591.536c-.12.248-.26.486-.4.725a.459.459,0,0,1-.132.151,2.208,2.208,0,0,0-.963,1.023.4.4,0,0,1-.094.123c-.141.148-.352.271-.409.447-.076.238-.342.224-.429.465.089.168.156.391.338.484.314.162.479.49.768.673a.3.3,0,0,1,.135.151c.047.215.222.283.366.4.184.149.324.355.5.508a1.859,1.859,0,0,1,.5.65,1.507,1.507,0,0,0,.455.546l.671.562c.092.077.185.152.281.224a.621.621,0,0,0,.624.075.993.993,0,0,0,.5-.5,1.783,1.783,0,0,1,.21-.351c.136-.132.242-.285.361-.425a3.516,3.516,0,0,0,.594-.68c.014-.027.055-.039.082-.06.2-.16.394-.327.6-.479a5.991,5.991,0,0,1,.919-.717.542.542,0,0,0,.29-.345c.029-.091.1-.212.181-.234.326-.095.477-.373.662-.619a6.607,6.607,0,0,1,1.623-1.714.3.3,0,0,0,.131-.151c.057-.212.233-.292.384-.4s.293-.185.336-.374a.648.648,0,0,1,.367-.4,1.246,1.246,0,0,0,.6-.6.568.568,0,0,1,.422-.349.9.9,0,0,0,.543-.439,4.809,4.809,0,0,0,.24-.419c.271.024.44-.2.665-.31a.382.382,0,0,0,.192-.284c-.014-.335.19-.409.434-.468a.493.493,0,0,0,.128-.073.97.97,0,0,1,.4-.693.847.847,0,0,0,.132-.155,1.937,1.937,0,0,1,1.088-.879.806.806,0,0,0,.157-.091l-.061-.327.307-.056c.193-.218.38-.436.57-.648.095-.106.189-.213.289-.314a.776.776,0,0,1,.5-.314.361.361,0,0,0,.241-.24,1.19,1.19,0,0,1,.508-.743c.049-.037.06-.126.1-.176s.123-.149.19-.153a.562.562,0,0,0,.507-.432c.03-.074.11-.127.153-.175a2.446,2.446,0,0,0,.378-.031.313.313,0,0,0,.205-.13c.125-.3.422-.446.58-.715a.273.273,0,0,1,.153-.131c.36-.073.59-.39.935-.49l-.109-.452c.051-.06.077-.112.119-.135a.543.543,0,0,0,.278-.342C164.094,77.609,164.007,77.561,163.917,77.518Z"/><path class="cls-3" d="M179.932,263.023a3.072,3.072,0,0,0,2.127.259,2.81,2.81,0,0,1,1.91.308,3.669,3.669,0,0,0,2.435.491,7.043,7.043,0,0,1,3.152.472,2.412,2.412,0,0,0,1.8.036,2.077,2.077,0,0,1,1.677.054c.522.2.992.425,1.54.089a.519.519,0,0,1,.442.006,2.089,2.089,0,0,0,1.887-.209c.248-.112.5-.344.738-.327.75.052,1.541-.283,2.251.247a.787.787,0,0,0,.88-.051c.377-.206.782-.349,1.17-.532a1.224,1.224,0,0,0,.489-.3,1.449,1.449,0,0,1,1.784-.471,3.172,3.172,0,0,0,1.235.127,6.8,6.8,0,0,1,2.485.049,3.544,3.544,0,0,0,2.57.1c.214-.1.523.08.791.1.226.015.533.08.67-.048a3.5,3.5,0,0,1,1.954-.686,3.97,3.97,0,0,1,2.453.253,1.291,1.291,0,0,0,1,.1c.37-.118.751-.187,1.128-.278a1.035,1.035,0,0,0,.828-.783,3.559,3.559,0,0,1,.326-.646c.077-.467.154-.933.231-1.4l.036.008a14.381,14.381,0,0,1,1.561-1.259,2.516,2.516,0,0,0,1.2-2.391,12.571,12.571,0,0,1,.044-1.578,58.285,58.285,0,0,0,.417-5.83c.025-1.1.055-2.213-.018-3.313a8.219,8.219,0,0,1,.08-2.205c.147-.725.268-1.456.383-2.187a2.078,2.078,0,0,0,.062-.936,7.055,7.055,0,0,1-.233-3.439,1.888,1.888,0,0,0-.091-.783,5.718,5.718,0,0,1-.108-3.11,1.661,1.661,0,0,0,.027-.473,51.6,51.6,0,0,1-.014-5.218,13.468,13.468,0,0,1,.641-3.88,1.4,1.4,0,0,0-.1-1.346,3.362,3.362,0,0,1-.465-1.642,10.743,10.743,0,0,1,.658-4.347.914.914,0,0,0-.016-.3l-.927-.781c.74-.773.446-1.691.45-2.575,0-.315-.05-.632-.036-.947a51.811,51.811,0,0,0-.11-6.948,7.319,7.319,0,0,1,.271-2.954,6,6,0,0,0,.2-4.031,3.337,3.337,0,0,1-.09-1.256,18.618,18.618,0,0,0-.583-4.7,5.857,5.857,0,0,1-.074-2.168,29.359,29.359,0,0,0,.729-4.851,1.554,1.554,0,0,1,.186-.595,2.252,2.252,0,0,0,.241-1.773,6.334,6.334,0,0,1,.012-2.506,6.96,6.96,0,0,1,.382-2.48.554.554,0,0,0-.026-.457,1.565,1.565,0,0,1,.032-1.492,11.174,11.174,0,0,0,.353-1.809,1.224,1.224,0,0,0-.151-.328,2.445,2.445,0,0,1-.563-2.328c.239-1.6.348-3.222.5-4.753-.183-.179-.392-.288-.425-.438-.053-.248.085-.553,0-.781a2.075,2.075,0,0,1,.053-1.819.535.535,0,0,0,0-.456c-.043-.063-.085-.126-.129-.188a2.3,2.3,0,0,0-.208-.264c-.1-.106-.176-.241-.282-.342a7.41,7.41,0,0,1-.79-.907c-.122-.061-.243-.121-.363-.19a2.1,2.1,0,0,0-1.846-.22,1.335,1.335,0,0,1-.63.063,1.919,1.919,0,0,1-.833-.345,5.811,5.811,0,0,0-3.115-.922,27.736,27.736,0,0,1-7.429-1.722,3.726,3.726,0,0,0-.193-.366l-10.633-.31a14.422,14.422,0,0,0-1.3-1.544,2.436,2.436,0,0,1-.7-2.551,11.872,11.872,0,0,0,.286-1.521,54.465,54.465,0,0,1,.8-5.674c.206-1.063.407-2.132.71-3.169a7.706,7.706,0,0,0,.38-2.128c.006-.727.037-1.453.075-2.178a1.939,1.939,0,0,1,.134-.91,6.641,6.641,0,0,0,.951-3.242,1.769,1.769,0,0,1,.255-.73,5.528,5.528,0,0,0,.345-.705,8.506,8.506,0,0,1-2.579-.508.957.957,0,0,0-1.01.087,2.361,2.361,0,0,1-1.236.395,7.232,7.232,0,0,1-3.254-.539.608.608,0,0,0-.226.014l-.595.78c-.572-.618-1.263-.369-1.926-.369-.237,0-.475.043-.711.032a34.887,34.887,0,0,0-5.211.113,4.919,4.919,0,0,1-2.213-.218,4.05,4.05,0,0,0-3.021-.155,2.267,2.267,0,0,1-.943.08,12.627,12.627,0,0,0-3.53.5,3.919,3.919,0,0,1-1.627.069,19.657,19.657,0,0,0-3.63-.6,1.052,1.052,0,0,1-.445-.155,1.526,1.526,0,0,0-1.328-.2,4.251,4.251,0,0,1-1.878,0,4.661,4.661,0,0,1-1.857-.313.38.38,0,0,0-.342.023,1.064,1.064,0,0,1-1.119-.022,7.558,7.558,0,0,0-1.353-.291.871.871,0,0,0-.247.128,1.715,1.715,0,0,1-1.752.479c-1.2-.2-2.413-.283-3.56-.409-.136.154-.219.33-.332.358-.187.046-.414-.07-.586,0a1.408,1.408,0,0,1-1.364-.038.36.36,0,0,0-.343,0c-.613.482-1.387.37-2.036.695a1.483,1.483,0,0,1-1.042.131,3.917,3.917,0,0,0-2.119.095,1.247,1.247,0,0,1-1.137-.124.938.938,0,0,0-.916-.032,3.431,3.431,0,0,1-1.994.136,16.364,16.364,0,0,0-4.689.024c-.475.658-1.189.927-1.611,1.555a3.991,3.991,0,0,0-1.793,1.427,4.556,4.556,0,0,1-1.683,1.14,4.892,4.892,0,0,0-.551.253.638.638,0,0,0-.308.863,4.261,4.261,0,0,1,.391,1.447,6.877,6.877,0,0,1,.2,1.49,1.581,1.581,0,0,0,.209.851,2.117,2.117,0,0,1,.248,1.587,7.425,7.425,0,0,0-.033.766,6.838,6.838,0,0,1-.171.989,5.032,5.032,0,0,1-.388,1.076,1.4,1.4,0,0,0,.031,1.552,1.164,1.164,0,0,1-.092,1.419,1.461,1.461,0,0,0-.146.286c.024.239.06.469.1.7a3.139,3.139,0,0,0-.04.607,10.308,10.308,0,0,1-.012,1.28,47.321,47.321,0,0,0-.25,4.731c0,.9-.011,1.795.065,2.685a6.688,6.688,0,0,1-.031,1.788c-.108.59-.195,1.184-.278,1.778a1.681,1.681,0,0,0-.035.76,5.722,5.722,0,0,1,.24,2.783,1.528,1.528,0,0,0,.086.633,4.639,4.639,0,0,1,.135,2.518,1.375,1.375,0,0,0-.015.385,41.947,41.947,0,0,1,.091,4.227,10.9,10.9,0,0,1-.462,3.155,1.138,1.138,0,0,0,.1,1.089,2.712,2.712,0,0,1,.4,1.323,8.716,8.716,0,0,1-.467,3.533.742.742,0,0,0,.018.245l.762.617c-.587.639-.335,1.378-.325,2.094,0,.256.05.512.043.767a42.156,42.156,0,0,0,.195,5.629,5.928,5.928,0,0,1-.175,2.4,4.875,4.875,0,0,0-.1,3.27,2.694,2.694,0,0,1,.093,1.016,15.115,15.115,0,0,0,.543,3.8,4.719,4.719,0,0,1,.093,1.755,23.969,23.969,0,0,0-.517,3.943,1.263,1.263,0,0,1-.142.486,1.83,1.83,0,0,0-.168,1.44,5.125,5.125,0,0,1,.028,2.031,5.635,5.635,0,0,1-.272,2.016.453.453,0,0,0,.028.37,1.27,1.27,0,0,1,0,1.21,9.08,9.08,0,0,0-.259,1.471.987.987,0,0,0,.128.263,1.983,1.983,0,0,1,.491,1.878c-.169,1.3-.233,2.617-.336,3.86.15.142.322.227.351.348.047.2-.061.449.008.633a1.686,1.686,0,0,1-.015,1.475.43.43,0,0,0,.008.371c.475.647.38,1.487.7,2.178a1.772,1.772,0,0,1,.144,1.122,4.7,4.7,0,0,0,.126,2.288,1.488,1.488,0,0,1-.1,1.232,1.119,1.119,0,0,0-.016.991,4.106,4.106,0,0,1,.164,2.151,19.709,19.709,0,0,0,.1,5.066,10.953,10.953,0,0,1,1.212,1.41,5.758,5.758,0,0,1-.624.326,4.634,4.634,0,0,0-.53.259.627.627,0,0,0-.282.851,4.209,4.209,0,0,1,.407,1.407,6.839,6.839,0,0,1,.22,1.453,1.547,1.547,0,0,0,.219.827,2.081,2.081,0,0,1,.271,1.546,7.446,7.446,0,0,0-.018.75,6.556,6.556,0,0,1-.147.971,4.924,4.924,0,0,1-.357,1.061,1.377,1.377,0,0,0,.061,1.517,1.148,1.148,0,0,1-.063,1.391,1.472,1.472,0,0,0-.137.282,5.483,5.483,0,0,0,1.4,3.247c.957.073.938.08,1.251,1.138a3.426,3.426,0,0,1,.125,1.1,16.287,16.287,0,0,0,.136,1.749,16.173,16.173,0,0,0,1.8.526,7.54,7.54,0,0,0,1.605.051,28.023,28.023,0,0,0,3.561-.013,1.692,1.692,0,0,1,.46-.02,2.862,2.862,0,0,0,2.161-.652,2.418,2.418,0,0,1,.979-.324,7.237,7.237,0,0,1,2.178.078,15.692,15.692,0,0,0,2.183-.092,1.126,1.126,0,0,0,.114.011c1.183-.184,2.362.364,3.554-.053a1.835,1.835,0,0,1,.8.04c.344.047.686.108,1.024.187a1.994,1.994,0,0,0,1.569-.144,1.015,1.015,0,0,1,1.107.006,1.733,1.733,0,0,0,1.236.149,1.06,1.06,0,0,1,1.059.343c.388.474.965.482,1.461.658a2.536,2.536,0,0,0,1.015-.09c.336-.589,1.04-.5,1.382-.968a5.175,5.175,0,0,1,1.828.908,3.018,3.018,0,0,0,1.977.508c.652-.036,1.306-.051,1.959-.072a1.427,1.427,0,0,0,1.243-.545,1.77,1.77,0,0,1,1.211-.653,15.976,15.976,0,0,1,5.736.106A.888.888,0,0,1,179.932,263.023Z"/><path class="cls-1" d="M221.934,159.506c-.073.022-.144.047-.217.064a.171.171,0,0,1-.176-.073.151.151,0,0,1-.006-.192c.028-.038.057-.078.087-.116a.88.88,0,0,0-.332-.4.235.235,0,0,1-.107-.238.487.487,0,0,0-.178-.429c-.134-.121-.232-.272-.356-.4a.222.222,0,0,1-.08-.177c0-.03-.022-.087-.036-.088-.178-.007-.188-.174-.257-.283-.006-.01-.017-.018-.019-.028-.028-.106-.187-.058-.2-.2a1.122,1.122,0,0,0-.127-.277.216.216,0,0,0-.145-.13c-.03-.01-.074-.027-.082-.051a.393.393,0,0,0-.36-.26c-.039-.007-.074-.047-.107-.077-.1-.093-.194-.188-.29-.282-.024-.024-.057-.049-.064-.079-.046-.211-.211-.283-.377-.355a.877.877,0,0,1-.1-.058c-.073-.293.148-.531.072-.817-.046-.034-.1-.075-.153-.113a.673.673,0,0,1-.32-.381.35.35,0,0,0-.094-.142c-.1-.095-.2-.181-.3-.277s-.075-.271-.22-.335c-.026-.012-.043-.051-.061-.079-.144-.216-.144-.216-.421-.33-.149.057-.294.2-.5.124-.083-.12-.182-.243-.261-.379a.605.605,0,0,1-.107-.55.5.5,0,0,0-.118-.513.923.923,0,0,1-.269-.541.651.651,0,0,0-.141-.308,2.7,2.7,0,0,1-.38-.6,1.839,1.839,0,0,0-.491-.6c-.048-.046-.115-.088-.134-.146a1.24,1.24,0,0,0-.282-.425,8.172,8.172,0,0,1-.595-.917c-.06-.086-.1-.173-.21-.2a.314.314,0,0,1-.2-.219.706.706,0,0,0-.29-.367,4.168,4.168,0,0,0-.633-.421.191.191,0,0,1-.1-.088,1.565,1.565,0,0,0-.352-.45,1.836,1.836,0,0,1-.26-.359.5.5,0,0,0-.25-.261.3.3,0,0,1-.174-.2.722.722,0,0,0-.219-.3,7.793,7.793,0,0,0-.969-.691l.029-.193-.2-.1c.019-.112.031-.214.054-.314a.562.562,0,0,0-.215-.608,2.026,2.026,0,0,1-.471-.435c-.13-.2-.279-.382-.394-.592a.66.66,0,0,1-.1-.324.579.579,0,0,0-.191-.391,1.563,1.563,0,0,0-.227-.245.669.669,0,0,1-.216-.339c-.016-.043-.017-.106-.047-.128-.188-.135-.25-.379-.418-.523a2.629,2.629,0,0,1-.4-.462.533.533,0,0,0-.272-.243.375.375,0,0,1-.226-.238.991.991,0,0,0-.157-.261c-.094-.1-.2-.176-.2-.337a.15.15,0,0,0-.078-.1.516.516,0,0,1-.224-.33.672.672,0,0,0-.162-.253,7.725,7.725,0,0,1-.52-.632.385.385,0,0,1-.066-.223.379.379,0,0,0-.179-.343,3.11,3.11,0,0,1-.388-.374.788.788,0,0,1-.083-.183c-.049-.1-.1-.2-.152-.3a3.743,3.743,0,0,0-.81-.9c-.095-.1-.189-.194-.281-.293a1.35,1.35,0,0,0-.13-.158,3.447,3.447,0,0,1-.588-.5.086.086,0,0,0-.059-.031c-.193-.012-.284-.135-.359-.308a.672.672,0,0,0-.33-.322,1.747,1.747,0,0,1-.558-.425,1.218,1.218,0,0,0-.635-.411,1.678,1.678,0,0,1-.376-.18l-.155,0-.325-.019a5.528,5.528,0,0,1-.345.705,1.769,1.769,0,0,0-.255.73,6.641,6.641,0,0,1-.951,3.242,1.939,1.939,0,0,0-.134.91c-.038.725-.069,1.451-.075,2.178a7.706,7.706,0,0,1-.38,2.128c-.3,1.037-.5,2.106-.71,3.169a54.465,54.465,0,0,0-.8,5.674,11.872,11.872,0,0,1-.286,1.521,2.436,2.436,0,0,0,.7,2.551,14.422,14.422,0,0,1,1.3,1.544l10.633.31a3.726,3.726,0,0,1,.193.366,27.736,27.736,0,0,0,7.429,1.722,5.811,5.811,0,0,1,3.115.922,1.919,1.919,0,0,0,.833.345,1.335,1.335,0,0,0,.63-.063,2.1,2.1,0,0,1,1.846.22c.12.069.241.129.363.19-.282-.367-.551-.744-.849-1.1Z"/><path class="cls-1" d="M140.462,213.136a.356.356,0,0,0,.1-.171.567.567,0,0,0,.046-.2.049.049,0,0,1,.014-.036.115.115,0,0,0,.034-.086,1.917,1.917,0,0,1,.032-.2.223.223,0,0,1,.042-.094.185.185,0,0,0,.04-.134.07.07,0,0,1,.043-.076.232.232,0,0,0,.023-.014c0-.02-.009-.021-.021-.021-.058,0-.09-.045-.123-.085a.035.035,0,0,1,0-.03c.025-.033.014-.077.038-.111a.368.368,0,0,1,.083-.084,1.485,1.485,0,0,0,.129-.111.067.067,0,0,0,.02-.041.467.467,0,0,1,.032-.148.06.06,0,0,0,.006-.023.591.591,0,0,1,.057-.215.1.1,0,0,0,0-.063.169.169,0,0,1,.025-.146l.008-.014c.034-.067.042-.069.1-.019l.087.075a.25.25,0,0,0,.032-.034.176.176,0,0,1,.066-.052c.023-.013.028-.049.056-.065s.072-.033.084-.078a.035.035,0,0,1,.016-.016.646.646,0,0,0,.2-.215.262.262,0,0,1,.075-.07.914.914,0,0,0,.2-.187.226.226,0,0,1,.029-.025l.04-.036a.327.327,0,0,1,.037-.028,1.236,1.236,0,0,1,.138-.1.064.064,0,0,0,.025-.039.955.955,0,0,0,.033-.116c0-.026.013-.047.041-.051a.061.061,0,0,0,.049-.055c0-.01,0-.022,0-.032a.107.107,0,0,1,.112-.09.171.171,0,0,1,.067.014.107.107,0,0,0,.136-.017.082.082,0,0,1,.093-.025.053.053,0,0,0,.058-.01.245.245,0,0,1,.1-.044c.034-.013.067-.026.1-.038.016-.006.034-.009.052-.014s.025,0,.029-.008c.028-.048.091-.038.123-.08a.027.027,0,0,1,.02-.009c.044.006.085-.025.131-.007a.058.058,0,0,0,.042-.012c.04-.026.077-.055.116-.081s.089-.064.136-.091a.293.293,0,0,1,.174-.035c.033,0,.066.012.095-.014.06,0,.11-.049.173-.038.012,0,.029-.01.04-.02s.026-.033.042-.048.025-.024.038-.023a.321.321,0,0,0,.166-.059l.013,0a.135.135,0,0,0,.114.024.091.091,0,0,1,.087.012c.011.01.036.006.053,0a.157.157,0,0,1,.091,0,.169.169,0,0,0,.149-.024.161.161,0,0,1,.094-.034.123.123,0,0,0,.051-.017.129.129,0,0,1,.084-.009c.036,0,.072.008.108.011a.161.161,0,0,1,.031,0,.192.192,0,0,0,.156-.03.173.173,0,0,1,.112-.007c.009,0,.017.01.029.019l.139-.089c.019.007.042.023.061.019a.315.315,0,0,1,.069,0,.026.026,0,0,0,.015,0c.047-.041.114-.033.164-.068a.087.087,0,0,1,.036-.009.365.365,0,0,0,.046-.007.148.148,0,0,1,.12-.01.019.019,0,0,0,.015,0,.115.115,0,0,1,.129.031c.016.013.038.018.054.031a.207.207,0,0,0,.165.056.109.109,0,0,1,.053.01c.045.021.089.043.133.066s.074.026.095.066a.052.052,0,0,0,.033.019,1.5,1.5,0,0,1,.285.123l.007,0a.7.7,0,0,0,.1.076.55.55,0,0,1,.105.067.448.448,0,0,0,.124.066.191.191,0,0,1,.073.042.271.271,0,0,0,.116.078c.015,0,.028.022.039.036a.662.662,0,0,0,.151.123.118.118,0,0,1,.033.03.155.155,0,0,0,.072.065c.063-.036.132,0,.2-.011a.421.421,0,0,1,.12.069c.007.007.018.02.023.018.035-.011.052.011.071.035a.072.072,0,0,0,.032.021.235.235,0,0,1,.107.1.294.294,0,0,0,.1.109.848.848,0,0,0,.176.081c.052.022.109.033.163.052a.261.261,0,0,1,.108.059.1.1,0,0,0,.041.021c.024.009.049.016.077.024.024.072.084.086.151.093v.043c.05.041.1.085.151.122a.164.164,0,0,1,.054.231l-.013.025a.263.263,0,0,1,.033.049.5.5,0,0,1,.006.056.339.339,0,0,0,.015.045c0,.01.009.022.006.03a.208.208,0,0,0,.032.162.909.909,0,0,1,.061.147.132.132,0,0,0,.069.084.228.228,0,0,1,.048.039c.034.033.072.062.107.093a.1.1,0,0,1,.031.034.127.127,0,0,0,.068.074.264.264,0,0,1,.094.082c0,.006.01.016.016.016.061,0,.064.064.091.1a.19.19,0,0,1,.026.13c0,.032,0,.064,0,.095a.768.768,0,0,1-.019.143c0,.013-.009.031,0,.039.031.044.006.088,0,.132a.253.253,0,0,1,0,.029c.016.018.045.033.042.067l0,.008a.239.239,0,0,1,.041.055c.008.022,0,.049.009.071a.163.163,0,0,0,.033.053c.016.021.035.04.052.06a.042.042,0,0,1,.011.029c-.008.037.019.06.033.093-.045.052-.018.121-.032.183a.041.041,0,0,0,.009.03c.015.017.027.033.018.057l0,.008c.044.029.033.081.051.122l.02.047-.015.049a.218.218,0,0,0,.078.087c.034.016.03.053.024.09l.091.036c0,.011-.009.022-.013.034s-.007.025-.01.038c-.007.038.018.066.028.1s0,.061.032.087a.225.225,0,0,1,.048.15c.007.066.007.134.01.2a.043.043,0,0,1,0,.023.089.089,0,0,0-.009.084.138.138,0,0,1,0,.109.059.059,0,0,0,0,.032.117.117,0,0,1-.01.078.1.1,0,0,0-.009.077.288.288,0,0,1,0,.072.128.128,0,0,1,0,.056c-.022.042-.017.094-.047.135-.016.022-.007.052,0,.079a.858.858,0,0,1,.01.087.064.064,0,0,1-.007.039.254.254,0,0,0-.027.108.458.458,0,0,0,0,.111.434.434,0,0,1-.045.226.562.562,0,0,1-.034.064.224.224,0,0,0-.029.146.518.518,0,0,1-.029.237.8.8,0,0,1-.052.133.163.163,0,0,0-.009.142.21.21,0,0,0-.056.155.172.172,0,0,1-.053.113.1.1,0,0,0-.034.1.13.13,0,0,1-.009.078c-.013.035-.022.072-.032.108a.137.137,0,0,1,0,.023.787.787,0,0,1-.168.249.13.13,0,0,1-.048.025.1.1,0,0,0-.063.043.8.8,0,0,1-.138.14.205.205,0,0,1-.1.052.1.1,0,0,0-.083.085c-.009.031-.016.063-.026.092a.38.38,0,0,1-.066.141.84.84,0,0,0-.071.1.105.105,0,0,1-.012.021.255.255,0,0,0-.075.11.1.1,0,0,1-.031.035l-.14.106c-.006.02-.014.042-.019.066a.079.079,0,0,1-.062.065.16.16,0,0,0-.1.057c0,.008-.018.01-.027.015-.024.015-.049.029-.072.046a.256.256,0,0,1-.121.051c-.07.006-.09.029-.091.1a.105.105,0,0,1-.058.1c-.034.016-.032.054-.055.074s-.054.028-.068.051a.415.415,0,0,1-.11.111.359.359,0,0,0-.1.1.229.229,0,0,1-.12.084.693.693,0,0,0-.187.112.965.965,0,0,1-.133.081.085.085,0,0,1-.075.009.075.075,0,0,0-.084.027,1.392,1.392,0,0,1-.17.127.119.119,0,0,1-.074.018c-.059,0-.119,0-.179,0a.33.33,0,0,0-.2.061c-.053.037-.113.064-.164.106-.021.017-.056.013-.079.028s-.029.048-.05.058a.6.6,0,0,1-.118.037.317.317,0,0,0-.046.007.432.432,0,0,1-.207.026.254.254,0,0,0-.142.034.15.15,0,0,1-.051.015c-.029,0-.057.007-.085.01a.093.093,0,0,1-.023,0c-.065-.006-.129-.015-.193-.019a.187.187,0,0,0-.119.032c-.033.025-.065.052-.1.085a.2.2,0,0,0-.043.008.1.1,0,0,1-.068-.006c-.044-.015-.088-.033-.133-.044a.307.307,0,0,1-.119-.058.11.11,0,0,0-.071-.027.256.256,0,0,1-.146-.049c-.029-.019-.061-.031-.089-.051a.088.088,0,0,0-.08-.016.269.269,0,0,1-.069,0,.5.5,0,0,0-.054-.007.574.574,0,0,1-.183-.033.374.374,0,0,0-.2-.008.068.068,0,0,1-.059-.009.04.04,0,0,0-.029-.009.061.061,0,0,1-.057-.017.2.2,0,0,0-.041-.022.444.444,0,0,1-.076-.037.164.164,0,0,0-.134-.023c-.023,0-.046.011-.068.018a.1.1,0,0,1-.082-.009.178.178,0,0,0-.12-.019.085.085,0,0,1-.093-.027.127.127,0,0,0-.081-.043.788.788,0,0,1-.105-.031.462.462,0,0,0-.106-.02.041.041,0,0,0-.022,0,.21.21,0,0,1-.193-.015.4.4,0,0,0-.074-.025c-.056-.013-.112-.023-.167-.036a.109.109,0,0,1-.033-.019.069.069,0,0,1-.013-.02.151.151,0,0,0-.151-.078c-.01,0-.024,0-.029,0-.047-.052-.119-.074-.153-.143a.536.536,0,0,0-.069-.1.174.174,0,0,1-.049-.089.071.071,0,0,0-.055-.053.156.156,0,0,1-.1-.085c-.019-.035-.049-.061-.066-.1a.124.124,0,0,0-.058-.05.808.808,0,0,0-.132-.049.13.13,0,0,1-.084-.066c-.017-.03-.035-.06-.051-.09a.731.731,0,0,0-.11-.154.415.415,0,0,0-.129-.089c-.035-.017-.071-.031-.107-.045a.119.119,0,0,1-.083-.077.089.089,0,0,0-.038-.039.8.8,0,0,1-.14-.114c-.042-.04-.082-.082-.122-.123-.016-.016-.023-.045-.041-.057a.339.339,0,0,1-.095-.136.544.544,0,0,1-.022-.05.167.167,0,0,0-.022-.042.352.352,0,0,1-.073-.141.148.148,0,0,0-.012-.029c-.043-.083-.08-.168-.115-.255-.019-.047-.041-.093-.063-.138a1.1,1.1,0,0,1-.055-.177.354.354,0,0,1,0-.048.145.145,0,0,0-.013-.045,1.264,1.264,0,0,0-.119-.2.349.349,0,0,1-.067-.17.663.663,0,0,0-.115-.278.316.316,0,0,1-.048-.091.484.484,0,0,0-.05-.1.847.847,0,0,0-.073-.123.27.27,0,0,1-.04-.216.088.088,0,0,1,.074-.074.051.051,0,0,0,.046-.055.139.139,0,0,1,.014-.053.242.242,0,0,0,.024-.162.434.434,0,0,0-.046-.134.381.381,0,0,1-.04-.129.66.66,0,0,0-.069-.229c-.048-.083-.087-.172-.134-.256a.528.528,0,0,1-.041-.171.066.066,0,0,1,.044-.077c.045-.014.058-.045.066-.089a.58.58,0,0,1,.036-.114c.043-.119.063-.245.1-.366-.014-.043.014-.076.025-.113a.4.4,0,0,0,.011-.047.129.129,0,0,1,0-.04.209.209,0,0,0,.027-.1A.9.9,0,0,1,140.462,213.136Z"/><path class="cls-1" d="M178.7,201.911a.2.2,0,0,1,.019-.188.083.083,0,0,0,.01-.052c-.006-.151-.008-.3-.022-.452a.5.5,0,0,0-.109-.336c-.062-.059-.052-.129-.071-.2s-.078-.137-.063-.221a.79.79,0,0,1,.022-.087c.008-.026.02-.051.03-.076l-.206-.08c.015-.084.023-.168-.052-.2a.484.484,0,0,1-.176-.194l.035-.111c-.018-.04-.033-.073-.047-.106-.039-.091-.016-.209-.114-.273a.017.017,0,0,1,0-.017c.02-.055-.008-.091-.04-.129a.089.089,0,0,1-.021-.067c.033-.139-.028-.294.073-.412-.031-.075-.092-.126-.074-.209a.1.1,0,0,0-.027-.064c-.037-.046-.079-.088-.116-.134a.428.428,0,0,1-.074-.12c-.015-.05,0-.111-.02-.16a.594.594,0,0,0-.092-.124.025.025,0,0,1,0-.017c.007-.077-.058-.111-.095-.151a.384.384,0,0,0,.012-.065c0-.1.058-.2-.013-.3-.013-.018,0-.058.007-.088a1.767,1.767,0,0,0,.043-.321,1.906,1.906,0,0,1,0-.214.44.44,0,0,0-.058-.293c-.06-.079-.068-.217-.206-.223-.012,0-.025-.023-.035-.037a.592.592,0,0,0-.211-.184.291.291,0,0,1-.153-.166.218.218,0,0,0-.069-.077c-.08-.07-.164-.135-.241-.208a.483.483,0,0,0-.107-.089.3.3,0,0,1-.155-.189,2.33,2.33,0,0,0-.138-.329.459.459,0,0,1-.071-.363c.007-.018-.007-.046-.014-.068s-.027-.067-.034-.1a.839.839,0,0,0-.013-.126.548.548,0,0,0-.075-.11l.03-.057a.366.366,0,0,0-.121-.518c-.119-.083-.227-.183-.339-.275v-.1c-.15-.015-.286-.047-.34-.207-.063-.02-.119-.035-.174-.055a.235.235,0,0,1-.09-.047.6.6,0,0,0-.243-.133c-.122-.042-.25-.066-.368-.117a2,2,0,0,1-.394-.181.69.69,0,0,1-.227-.244.517.517,0,0,0-.242-.225.194.194,0,0,1-.07-.048c-.042-.054-.081-.1-.16-.078-.012,0-.035-.025-.051-.041a.98.98,0,0,0-.269-.156c-.154.014-.31-.055-.451.026a.35.35,0,0,1-.16-.146.3.3,0,0,0-.077-.068,1.419,1.419,0,0,1-.337-.277.212.212,0,0,0-.088-.081.629.629,0,0,1-.262-.174.416.416,0,0,0-.164-.1.987.987,0,0,1-.277-.148,1.423,1.423,0,0,0-.235-.151,1.51,1.51,0,0,1-.224-.171l-.015-.01a3.337,3.337,0,0,0-.641-.277.113.113,0,0,1-.073-.043c-.047-.09-.137-.109-.214-.149-.1-.05-.2-.1-.3-.146a.248.248,0,0,0-.119-.023.469.469,0,0,1-.37-.125c-.036-.031-.085-.043-.122-.072a.261.261,0,0,0-.289-.07.045.045,0,0,1-.034,0,.338.338,0,0,0-.271.022.678.678,0,0,1-.1.016.216.216,0,0,0-.082.021c-.112.078-.262.06-.368.153a.054.054,0,0,1-.034.008.72.72,0,0,0-.155,0c-.042.009-.093-.027-.136-.041l-.312.2c-.027-.019-.045-.041-.065-.044a.387.387,0,0,0-.253.017.427.427,0,0,1-.35.067.326.326,0,0,0-.07,0c-.081-.007-.162-.013-.243-.025a.294.294,0,0,0-.187.021.277.277,0,0,1-.116.037.365.365,0,0,0-.21.077.382.382,0,0,1-.335.055.361.361,0,0,0-.206,0c-.038.01-.094.019-.118,0a.2.2,0,0,0-.2-.028.3.3,0,0,1-.256-.053l-.028.008a.711.711,0,0,1-.375.132c-.027,0-.061.029-.085.053s-.059.076-.093.108-.063.049-.09.045a.569.569,0,0,0-.284.063.956.956,0,0,1,.17-.436c-.1-.146-.1-.146-.1-.258,0-.031.007-.061.007-.092,0-.393,0-.395-.372-.271l-.326-.286c-.127.054-.254.11-.382.162a.314.314,0,0,1-.26.006c-.053-.024-.115-.029-.17-.051a1.176,1.176,0,0,1-.474-.239.32.32,0,0,0-.322-.111.338.338,0,0,1-.169-.04c-.092-.034-.181-.074-.261-.107l-.262.145a.566.566,0,0,0-.652-.073.368.368,0,0,1-.311-.035,1.289,1.289,0,0,1-.3-.264l-.485.195a2.858,2.858,0,0,0-.371-.054c-.122,0-.26-.033-.352.1-.014.02-.055.023-.084.025a2.429,2.429,0,0,1-.351.013.452.452,0,0,0-.4.162.946.946,0,0,1-.493.318.532.532,0,0,0-.158.079.522.522,0,0,1-.435.048c-.123-.038-.2.02-.175.157a2.417,2.417,0,0,0,.1.447.66.66,0,0,1,.039.448.319.319,0,0,0,.025.266.262.262,0,0,1-.022.313.2.2,0,0,0-.035.169.559.559,0,0,1-.011.416.363.363,0,0,0,0,.147c0,.04.036.091.022.116-.11.193-.014.381,0,.57a.649.649,0,0,1,0,.241,1.435,1.435,0,0,0-.047.517c.014.286.038.573.031.858a3.305,3.305,0,0,0,.072.825.884.884,0,0,1,.006.366,1.319,1.319,0,0,0,.042.578c.076-.11.013-.255.127-.313.128.124.151.142.113.217a.376.376,0,0,0-.037.115,2.276,2.276,0,0,1-.2.169.814.814,0,0,0-.186.189c-.054.076-.03.175-.085.248a.077.077,0,0,0,.006.069.422.422,0,0,0,.251.187l.007.091.014.218c.006.092.019.184.016.275,0,.194-.011.388-.012.582,0,.441-.041.88-.016,1.321a6.637,6.637,0,0,0,.093,1.161.489.489,0,0,1,.017.241,2.194,2.194,0,0,0-.032.731,7.258,7.258,0,0,0,.042,1.1.86.86,0,0,1,0,.215,1.433,1.433,0,0,0,.116.718.7.7,0,0,1-.006.6.821.821,0,0,0-.061.556.278.278,0,0,1,0,.178.491.491,0,0,0,.014.389.83.83,0,0,1,.058.233,4.641,4.641,0,0,0,.066.513,1.252,1.252,0,0,1-.013.488c-.019.091-.033.182-.052.272a.805.805,0,0,0,.1.612.268.268,0,0,0-.076.256.949.949,0,0,1,.028.189,3.065,3.065,0,0,1,0,.332,3.074,3.074,0,0,0,0,.8.324.324,0,0,1-.014.122.688.688,0,0,0,.172.687,3.063,3.063,0,0,0-.139,1.245.346.346,0,0,0,.153.341.254.254,0,0,1,.085.153.615.615,0,0,1,.013.421.23.23,0,0,0,.021.144.889.889,0,0,1-.11.789.338.338,0,0,0-.065.257,1.474,1.474,0,0,0,.079.327,1.168,1.168,0,0,1,.083.66,1.354,1.354,0,0,0,0,.305c.012.123.035.244.055.365a2.436,2.436,0,0,1-.075,1.119c-.034.114,0,.245-.074.354-.012.017.007.057.011.087.01.07.022.139.029.208a2.79,2.79,0,0,1-.05.612,2.954,2.954,0,0,0-.025.4c.006.214.024.429.042.643.04.458.006.919.035,1.378a7.632,7.632,0,0,0,.044.919.36.36,0,0,1,.007.122.6.6,0,0,0,.047.3.85.85,0,0,1,.061.482.975.975,0,0,0,0,.486,1.309,1.309,0,0,1-.007.581,1.112,1.112,0,0,0-.013.426.892.892,0,0,1-.015.333c-.04.208.015.426-.032.638-.006.026.016.059.027.087a1.161,1.161,0,0,1,.046.6,4.458,4.458,0,0,0-.052.642c0,.307.022.613.038.92.012.224.02.449.045.672a1.581,1.581,0,0,1,0,.429.712.712,0,0,0-.013.183c.051.438,0,.883.087,1.318a.281.281,0,0,1,0,.122,1.738,1.738,0,0,0,.032.729c.076.427-.006.86.066,1.285,0,.02-.007.041-.006.061,0,.193.009.386.014.611a3.635,3.635,0,0,1,.6-.1,3.427,3.427,0,0,0,.908-.135.975.975,0,0,1,.6-.014.2.2,0,0,0,.14-.012.231.231,0,0,1,.226.02c.042.024.086.044.138.07a.539.539,0,0,1,.517-.171.6.6,0,0,0,.286-.062,1.038,1.038,0,0,1,.8-.077,1.522,1.522,0,0,0,.263.046c.124.024.261,0,.359.116a.117.117,0,0,0,.082.026,3.991,3.991,0,0,0,.5-.018.694.694,0,0,1,.433.052.853.853,0,0,0,.516.1.9.9,0,0,1,.289.051c.136.03.269.067.405.092a.437.437,0,0,0,.141-.023c0-.054.012-.094.012-.134,0-.246-.013-.493,0-.738a5.324,5.324,0,0,1,.029-.828c.006-.029-.007-.062,0-.092a2.5,2.5,0,0,1,.105-.686.514.514,0,0,0,.03-.416c-.02-.044.009-.119.031-.173a.606.606,0,0,0,.04-.361.745.745,0,0,1,.023-.4.588.588,0,0,0-.057-.469c-.027-.055-.057-.108-.088-.16a.537.537,0,0,1-.053-.5,1.129,1.129,0,0,0,.041-.695c-.015-.059-.016-.123-.033-.182a1.384,1.384,0,0,1,.027-.784.923.923,0,0,0-.051-.657,1.282,1.282,0,0,1-.022-.928.356.356,0,0,0,.037-.116,2.144,2.144,0,0,1,.11-.625c.036-.148.043-.306-.136-.392a.242.242,0,0,1-.089-.147,1.993,1.993,0,0,1,0-.912.787.787,0,0,0-.06-.672.223.223,0,0,1-.031-.116q-.018-.4-.03-.8c0-.133,0-.266,0-.4a.786.786,0,0,1,.036-.272,1.5,1.5,0,0,0,.064-.423c.012-.1-.006-.2,0-.306.008-.194.041-.389.03-.582-.007-.138-.085-.272-.1-.411s.029-.29-.043-.422a.513.513,0,0,1-.048-.3c.013-.164.015-.328.016-.492a4.032,4.032,0,0,0-.009-.582,1.949,1.949,0,0,1-.085-.476.6.6,0,0,1,.085-.606.705.705,0,0,0,.082-.162c.033-.14.065-.281.092-.422.029.012.058.023.086.037a.451.451,0,0,1,.092.049.137.137,0,0,0,.127.039.089.089,0,0,1,.065.019.15.15,0,0,0,.132.02.843.843,0,0,1,.448.018,1.254,1.254,0,0,0,.411.074c.04,0,.081.012.121.015a.519.519,0,0,0,.156.01.2.2,0,0,1,.18.036c.062.044.134.073.2.115a.593.593,0,0,0,.328.111.244.244,0,0,1,.16.059.653.653,0,0,0,.267.13c.1.026.2.065.3.1a.224.224,0,0,0,.153.014.534.534,0,0,1,.1-.018c.091-.073.161-.135.237-.19a.409.409,0,0,1,.266-.072c.145.009.289.028.433.042a.3.3,0,0,0,.052,0c.064-.007.128-.012.191-.023a.337.337,0,0,0,.116-.034.578.578,0,0,1,.319-.076.967.967,0,0,0,.464-.059.685.685,0,0,1,.1-.015,1.407,1.407,0,0,0,.265-.083c.047-.023.067-.1.112-.13s.131-.027.178-.064c.115-.094.25-.154.369-.237a.745.745,0,0,1,.442-.139c.134,0,.269,0,.4,0a.284.284,0,0,0,.167-.038,3.629,3.629,0,0,0,.38-.286.169.169,0,0,1,.19-.061.192.192,0,0,0,.169-.021,2.132,2.132,0,0,0,.3-.182,1.606,1.606,0,0,1,.42-.252.494.494,0,0,0,.269-.188.8.8,0,0,1,.221-.224.922.922,0,0,0,.248-.25c.031-.05.1-.072.151-.113s.048-.133.125-.168a.24.24,0,0,0,.13-.236c0-.166.046-.218.2-.232a.55.55,0,0,0,.271-.114c.053-.037.108-.069.163-.1.02-.012.049-.016.061-.033a.349.349,0,0,1,.223-.129.179.179,0,0,0,.139-.147c.01-.053.03-.1.043-.149.109-.082.213-.159.314-.238a.214.214,0,0,0,.069-.078.615.615,0,0,1,.168-.248.2.2,0,0,0,.027-.045,1.794,1.794,0,0,1,.161-.237.857.857,0,0,0,.147-.317c.024-.064.039-.137.058-.206a.233.233,0,0,1,.188-.19.453.453,0,0,0,.214-.118,1.818,1.818,0,0,0,.312-.314.218.218,0,0,1,.142-.1.291.291,0,0,0,.106-.055,1.767,1.767,0,0,0,.377-.559c.009-.014.006-.036.011-.053.022-.081.041-.163.07-.242a.3.3,0,0,0,.022-.175.222.222,0,0,1,.075-.226.367.367,0,0,0,.119-.252.486.486,0,0,1,.125-.349.373.373,0,0,1,.021-.319,1.646,1.646,0,0,0,.117-.3,1.185,1.185,0,0,0,.066-.534.505.505,0,0,1,.065-.328,1.4,1.4,0,0,0,.076-.143.975.975,0,0,0,.1-.508.944.944,0,0,1,0-.249.56.56,0,0,1,.061-.243.156.156,0,0,0,.016-.087,1.856,1.856,0,0,0-.023-.2c-.01-.06-.029-.126.008-.176.066-.092.054-.208.1-.3a.271.271,0,0,0,.011-.125.615.615,0,0,0-.012-.161.231.231,0,0,1,.02-.175.261.261,0,0,0,.023-.176c0-.023-.012-.053,0-.07A.314.314,0,0,0,178.7,201.911Zm-4.786-.009a.2.2,0,0,1,0,.156.078.078,0,0,0,0,.045.174.174,0,0,1-.015.112.147.147,0,0,0-.013.111.384.384,0,0,1,.008.1.176.176,0,0,1-.007.08c-.032.061-.025.135-.067.193a.149.149,0,0,0,0,.112,1.079,1.079,0,0,1,.014.126.092.092,0,0,1-.01.055.357.357,0,0,0-.038.154.565.565,0,0,0,0,.159.626.626,0,0,1-.065.323.882.882,0,0,1-.048.091.315.315,0,0,0-.042.208.73.73,0,0,1-.042.34,1.052,1.052,0,0,1-.074.19.237.237,0,0,0-.013.2.308.308,0,0,0-.08.223.239.239,0,0,1-.075.16.142.142,0,0,0-.048.144.2.2,0,0,1-.014.111c-.018.05-.031.1-.045.154,0,.011,0,.025-.007.034a1.133,1.133,0,0,1-.239.355.192.192,0,0,1-.068.035.137.137,0,0,0-.09.063,1.171,1.171,0,0,1-.2.2.281.281,0,0,1-.136.075.148.148,0,0,0-.119.121c-.013.044-.022.09-.038.131a.539.539,0,0,1-.093.2,1.317,1.317,0,0,0-.1.15.1.1,0,0,1-.018.029.4.4,0,0,0-.106.158.15.15,0,0,1-.044.05l-.2.151a.988.988,0,0,0-.027.095.114.114,0,0,1-.089.093.224.224,0,0,0-.142.082c-.007.011-.026.014-.038.021-.035.021-.07.042-.1.065a.352.352,0,0,1-.173.073c-.1.009-.128.041-.129.147a.153.153,0,0,1-.083.15c-.049.023-.046.078-.079.107s-.077.04-.1.072a.6.6,0,0,1-.158.159.489.489,0,0,0-.14.143.32.32,0,0,1-.172.119,1.006,1.006,0,0,0-.267.161,1.432,1.432,0,0,1-.189.116.124.124,0,0,1-.107.013.107.107,0,0,0-.121.038,2.354,2.354,0,0,1-.242.182.184.184,0,0,1-.106.025c-.086,0-.171,0-.256,0a.469.469,0,0,0-.282.088c-.076.053-.161.091-.235.15-.029.024-.08.02-.113.041s-.041.068-.071.083a.874.874,0,0,1-.169.053c-.021.006-.046,0-.065.009a.612.612,0,0,1-.3.038.363.363,0,0,0-.2.048.206.206,0,0,1-.073.022c-.041.007-.081.01-.122.014a.184.184,0,0,1-.033,0c-.092-.009-.183-.021-.276-.027a.265.265,0,0,0-.169.046c-.048.035-.093.074-.151.121a.293.293,0,0,0-.06.012.15.15,0,0,1-.1-.009c-.063-.022-.126-.047-.19-.063a.429.429,0,0,1-.17-.083.154.154,0,0,0-.1-.038.376.376,0,0,1-.208-.07c-.041-.027-.087-.045-.126-.074a.135.135,0,0,0-.115-.023.333.333,0,0,1-.1,0,.491.491,0,0,0-.077-.01.83.83,0,0,1-.261-.047.532.532,0,0,0-.285-.011.1.1,0,0,1-.085-.014.061.061,0,0,0-.04-.012.092.092,0,0,1-.082-.024.3.3,0,0,0-.058-.032.693.693,0,0,1-.11-.052.23.23,0,0,0-.191-.034.985.985,0,0,0-.1.026.142.142,0,0,1-.117-.013.245.245,0,0,0-.172-.026.123.123,0,0,1-.132-.04.161.161,0,0,0-.051-.04,2.739,2.739,0,0,0-.024-.477,3.224,3.224,0,0,1,.008-1.069.245.245,0,0,0,0-.149c-.105-.182-.024-.384-.066-.573a.5.5,0,0,1,.048-.237,1.414,1.414,0,0,1,.089-.183,1.512,1.512,0,0,1-.111-.672.338.338,0,0,0-.011-.152,1.816,1.816,0,0,1-.083-.512,2.212,2.212,0,0,0-.037-.456.87.87,0,0,1,0-.45.319.319,0,0,0,0-.092c-.01-.184-.022-.367-.03-.551a.226.226,0,0,1,.012-.12.432.432,0,0,0-.012-.41.382.382,0,0,1-.023-.177c.015-.131.052-.26.065-.391a2.572,2.572,0,0,0-.061-1.033.257.257,0,0,1-.019-.146.78.78,0,0,0,0-.454.467.467,0,0,1-.005-.3,1,1,0,0,0,.054-.362c.019-.173.028-.347.036-.521a.8.8,0,0,0-.012-.3.55.55,0,0,1-.009-.391,1,1,0,0,0,.031-.452.5.5,0,0,1,.132-.48.222.222,0,0,0,.073-.251c-.085-.193-.068-.431-.243-.567-.008-.136.093-.247.017-.373-.016-.026,0-.081.015-.118a1.15,1.15,0,0,0,.05-.515,1.151,1.151,0,0,1,0-.4,1.284,1.284,0,0,0-.125-.737c-.024-.071-.052-.142-.077-.213.059-.041.118-.084.18-.119a.411.411,0,0,1,.248-.05c.048,0,.095.017.136-.02.085,0,.157-.07.247-.054.018,0,.042-.015.058-.029s.037-.048.059-.069.037-.034.054-.033a.451.451,0,0,0,.238-.084l.018,0a.2.2,0,0,0,.163.034.126.126,0,0,1,.125.018c.015.013.051.007.075,0a.225.225,0,0,1,.131,0,.242.242,0,0,0,.213-.035.238.238,0,0,1,.134-.049.168.168,0,0,0,.073-.023.191.191,0,0,1,.12-.014c.051.008.1.012.154.017a.215.215,0,0,1,.044,0,.271.271,0,0,0,.223-.042.255.255,0,0,1,.161-.011c.013,0,.024.016.041.028l.2-.127c.027.01.06.033.087.027a.455.455,0,0,1,.1,0,.036.036,0,0,0,.021-.005c.068-.06.163-.048.235-.1a.142.142,0,0,1,.052-.013.449.449,0,0,0,.064-.01.214.214,0,0,1,.173-.014.033.033,0,0,0,.022,0,.165.165,0,0,1,.184.044c.023.018.054.026.077.045a.3.3,0,0,0,.236.08.143.143,0,0,1,.075.015c.064.028.127.061.191.093s.1.037.135.094a.078.078,0,0,0,.047.028,2.13,2.13,0,0,1,.408.176l.009.006a.975.975,0,0,0,.142.109.869.869,0,0,1,.15.1.651.651,0,0,0,.176.095.251.251,0,0,1,.1.06.388.388,0,0,0,.166.11.148.148,0,0,1,.057.052.882.882,0,0,0,.214.176.187.187,0,0,1,.049.044.222.222,0,0,0,.1.092c.089-.051.189-.007.286-.016a.642.642,0,0,1,.172.1c.009.01.024.028.032.026.05-.016.075.016.1.05a.127.127,0,0,0,.045.03.329.329,0,0,1,.154.143.44.44,0,0,0,.144.156,1.35,1.35,0,0,0,.251.115c.075.032.156.048.234.074a.388.388,0,0,1,.155.085.155.155,0,0,0,.057.03c.035.012.071.022.111.034.034.1.12.122.216.132v.062c.071.058.14.122.216.175a.233.233,0,0,1,.077.329l-.019.036a.38.38,0,0,1,.047.071.5.5,0,0,1,.009.079c0,.023.015.043.021.065s.013.032.009.043a.293.293,0,0,0,.045.231,1.487,1.487,0,0,1,.088.209.189.189,0,0,0,.1.121.286.286,0,0,1,.068.056c.049.047.1.088.154.133a.137.137,0,0,1,.044.049.186.186,0,0,0,.1.1.367.367,0,0,1,.134.117c.006.009.015.023.023.024.087,0,.092.091.13.142a.272.272,0,0,1,.037.186,1.235,1.235,0,0,0,0,.136,1.189,1.189,0,0,1-.027.2c0,.019-.013.045,0,.056.045.062.009.126.008.188a.329.329,0,0,1-.007.042c.023.025.065.047.06.1l0,.011a.334.334,0,0,1,.058.079c.012.03,0,.069.013.1a.261.261,0,0,0,.047.076c.023.03.051.057.074.086a.064.064,0,0,1,.017.041c-.012.053.027.085.047.133-.064.075-.026.173-.046.262a.056.056,0,0,0,.013.042c.02.025.038.048.025.082l0,.011c.062.041.048.116.073.174l.029.067-.022.071c.033.047.056.1.112.123s.042.076.034.13l.13.051-.019.048c0,.018-.01.037-.014.055-.01.054.026.094.04.141s.006.087.046.125a.319.319,0,0,1,.069.213c.009.1.01.192.014.288a.059.059,0,0,1-.006.033A.125.125,0,0,0,173.912,201.9Z"/><path class="cls-1" d="M204.518,202.294a1.206,1.206,0,0,1-.076-.767,1.185,1.185,0,0,1,.038-.657.834.834,0,0,0,.006-.435.294.294,0,0,1,.009-.185c.054-.146.121-.287.184-.432a2.543,2.543,0,0,0-.229-.409.581.581,0,0,1-.112-.383c0-.074,0-.15,0-.222a3.011,3.011,0,0,1-.895.044,3.1,3.1,0,0,0-.871.058,4.387,4.387,0,0,1-1.205-.015,2.064,2.064,0,0,0-.927.039,1.214,1.214,0,0,1-.757-.027,1.055,1.055,0,0,0-.369-.077l-.282.023a.235.235,0,0,1,0,.026.46.46,0,0,0,.419.451l.11.01a.388.388,0,0,1,.073.247.643.643,0,0,0,.07.315.9.9,0,0,1,.057.2c.011.052.017.107.024.161a.2.2,0,0,1,0,.08,1.071,1.071,0,0,0-.024.309.316.316,0,0,0,.065.213v2.3a2.015,2.015,0,0,0-.093.444.768.768,0,0,1-.057.253.818.818,0,0,0-.067.3.328.328,0,0,1-.077.223,1.81,1.81,0,0,0-.192.294,1.319,1.319,0,0,0-.121.336.411.411,0,0,1-.09.168,1.541,1.541,0,0,0-.154.265c-.037.072-.067.147-.1.221a.164.164,0,0,1-.037.052.969.969,0,0,0-.224.291.607.607,0,0,1-.061.075,1.034,1.034,0,0,1-.125.146c-.136.112-.236.261-.366.379a.383.383,0,0,0-.048.041,1.3,1.3,0,0,1-.585.393,3.162,3.162,0,0,0-.55.2.074.074,0,0,1-.045.015.692.692,0,0,0-.415.117c-.091.04-.175.1-.267.139a.968.968,0,0,0-.229.141c-.1.079-.2.155-.308.228a.733.733,0,0,1-.067.039.42.42,0,0,1-.074.029.694.694,0,0,0-.334.261.421.421,0,0,1-.185.143,1.223,1.223,0,0,0-.24.12.283.283,0,0,1-.27.05.084.084,0,0,0-.047,0c-.135.043-.28.046-.413.1a.346.346,0,0,1-.091.022c-.062.009-.125.016-.187.022a.117.117,0,0,1-.062,0c-.092-.053-.2-.025-.292-.05-.056-.015-.113-.023-.169-.037a.088.088,0,0,1-.053-.03c-.1-.175-.271-.185-.439-.2-.037,0-.074,0-.111,0a2.783,2.783,0,0,1-.376-.037.783.783,0,0,1-.318-.13.478.478,0,0,0-.478-.076c-.045.016-.089.034-.133.053a.241.241,0,0,1-.227-.018,1.108,1.108,0,0,0-.381-.15.117.117,0,0,1-.092-.055c-.066-.121-.194-.142-.3-.2-.037-.019-.091,0-.146,0a.157.157,0,0,0-.1-.126.134.134,0,0,1-.075-.1.311.311,0,0,0-.082-.137,1.548,1.548,0,0,0-.28-.308c-.076-.141-.233-.2-.315-.34a.123.123,0,0,0-.078-.048.139.139,0,0,1-.119-.135.45.45,0,0,0-.145-.281,1.324,1.324,0,0,1-.092-.13,1.272,1.272,0,0,0-.165-.172l-.014-.006c-.073-.022-.091-.1-.147-.143a.994.994,0,0,1-.161-.1.528.528,0,0,1-.113-.265,2.435,2.435,0,0,0-.075-.317.965.965,0,0,1-.063-.183c0-.021-.017-.045-.011-.063a.4.4,0,0,0-.024-.254.136.136,0,0,1,0-.08.273.273,0,0,0-.065-.271,4.255,4.255,0,0,1-.283-.45.277.277,0,0,1-.033-.121,1.606,1.606,0,0,0-.055-.369.765.765,0,0,1-.022-.21.355.355,0,0,0-.037-.189.145.145,0,0,1-.02-.077c0-.179-.026-.356-.044-.534a.786.786,0,0,1,0-.1c0-.033.011-.074,0-.1a.4.4,0,0,1-.023-.282.382.382,0,0,0-.017-.129.361.361,0,0,1,0-.193c.033-.12.058-.243.091-.363a.3.3,0,0,0,0-.177,1.425,1.425,0,0,1-.033-.487.2.2,0,0,1,.02-.078c.043-.1.089-.2.134-.295s.082-.188.188-.226a.117.117,0,0,0,.068-.085,1.02,1.02,0,0,0,.06-.269.536.536,0,0,1,.144-.351l.019-.023-.37-.019a.639.639,0,0,0-.326.024,1.524,1.524,0,0,1-.862.111,2.874,2.874,0,0,0-.5.055,2.972,2.972,0,0,1-.931-.02,6.606,6.606,0,0,0-1.486-.086c-.163.009-.327.013-.49.019a1.7,1.7,0,0,1-.018.175c-.025.15.068.321-.07.451-.005,0,0,.021,0,.031l.094.15c-.082.132-.091.288-.2.4a.147.147,0,0,0-.02.119.678.678,0,0,0,.245.426c.05.035.1.074.138.106.024.21.12.4.023.6a.091.091,0,0,0,0,.063.535.535,0,0,1-.115.5,1.682,1.682,0,0,0-.191.5l.318.279a.588.588,0,0,0-.139.469c.01.094.029.187.034.282a2.673,2.673,0,0,0,0,.31,1.919,1.919,0,0,1,0,.408,1.914,1.914,0,0,0,.083.432.38.38,0,0,1,0,.126,1.013,1.013,0,0,0-.011.53c.012.032-.016.081-.025.122-.022.093-.046.185-.065.278a.159.159,0,0,0,.06.169.578.578,0,0,0,.421.159.416.416,0,0,1,.394.121c.046.049.127.062.19.1s.12.072.2.121c-.083.163.037.328-.053.5a3.333,3.333,0,0,0-.174.491c.017.026.025.051.041.058a.907.907,0,0,1,.45.573,4.244,4.244,0,0,0,.319.649.8.8,0,0,0,.261.258,3.673,3.673,0,0,1,.877.72.769.769,0,0,0,.116.1,1.4,1.4,0,0,0,.511.275.628.628,0,0,1,.4.278c.1.184.279.279.377.454.009.016.036.035.05.032.116-.032.159.062.225.127a.336.336,0,0,0,.154.094c.192.043.318.231.521.243a2.081,2.081,0,0,0,.534.29.405.405,0,0,1,.123.087,2.15,2.15,0,0,0,.547.436.629.629,0,0,1,.367.7,1.659,1.659,0,0,0,.2.078.615.615,0,0,0,.182.016,1.274,1.274,0,0,1,.6.118.255.255,0,0,0,.266.209.251.251,0,0,1,.141.051.337.337,0,0,0,.231.07.6.6,0,0,1,.4.136.985.985,0,0,0,.331.152c.207.05.413.109.569.15a1.53,1.53,0,0,1,.358-.148,3.662,3.662,0,0,1,.847-.1.3.3,0,0,0,.139-.047,1.094,1.094,0,0,1,.134-.073c.1-.028.2-.057.3-.084,0,.017,0,.035-.006.053a1.69,1.69,0,0,0-.013.9.72.72,0,0,1-.023.338,7.232,7.232,0,0,0-.2,1.76,1.545,1.545,0,0,1-.032.284c-.066.51-.158,1.019-.19,1.531a10.415,10.415,0,0,1-.169,1.249,1.6,1.6,0,0,0-.06.394,1.037,1.037,0,0,1-.34.87.653.653,0,0,0-.1.184c.021.056.025.109.049.122.21.111.221.329.286.526a.669.669,0,0,1-.085.595,1.36,1.36,0,0,0-.163.484c-.06.434-.108.871-.138,1.308-.057.856-.095,1.713-.153,2.569a1.152,1.152,0,0,1-.124.368,1.342,1.342,0,0,0-.131.774,2.284,2.284,0,0,1-.092.957,4.861,4.861,0,0,0-.181,1.236,3.5,3.5,0,0,1-.066.9,3.327,3.327,0,0,0-.081.967,11.655,11.655,0,0,1-.171,2.111c-.07.586-.218,1.161-.246,1.752a.561.561,0,0,1,.46.112.671.671,0,0,0,.185.053l.372-.334c.264.3.677.374.924.7a.3.3,0,0,0,.2.089c.331.026.615.254.96.231.073,0,.169.075.223.143a2.832,2.832,0,0,1,.217.366.683.683,0,0,0,.24.068.6.6,0,0,1,.658.3c.037.066.153.091.238.116.069.02.158-.013.217.019a1.22,1.22,0,0,0,.951.144.377.377,0,0,1,.344.125.857.857,0,0,0,.544.35c.144.051.292.092.438.136a1.049,1.049,0,0,0,.087-.09.364.364,0,0,0,.093-.254c-.087-.347.075-.679.037-1.021a.325.325,0,0,1,.048-.22c.264-.313.257-.748.49-1.073l-.387-.315a.724.724,0,0,1,.016-.2.632.632,0,0,0-.066-.649.419.419,0,0,1-.053-.323,1.627,1.627,0,0,0,.006-.9l.442-.484a.577.577,0,0,1-.107-.455,2.784,2.784,0,0,0-.054-.543c-.01-.225,0-.452,0-.678.1-.254.229-.511.315-.781a.842.842,0,0,0-.011-.66.781.781,0,0,1,.044-.72,1.083,1.083,0,0,0,.1-.884.882.882,0,0,1,.091-.711c.12-.218-.144-.484.035-.718a.3.3,0,0,0,.046-.1,1.4,1.4,0,0,0,.093-.385c-.008-.273.3-.508.09-.8-.011-.016.024-.069.042-.1.127-.227.256-.453.417-.739a1.034,1.034,0,0,0-.132-.646.479.479,0,0,1-.021-.383,8.442,8.442,0,0,0,.3-1.687.36.36,0,0,1,.25-.342c.164-.076.366-.079.474-.259-.006-.041,0-.088-.018-.112a1.291,1.291,0,0,1-.265-.911.813.813,0,0,0-.066-.445.83.83,0,0,1,.011-.918.812.812,0,0,0,.077-.6.729.729,0,0,1,.007-.445,1.173,1.173,0,0,0,.09-.781.865.865,0,0,1,.055-.6.269.269,0,0,0,.012-.215.8.8,0,0,1,.31-1.079c.131-.1.263-.2.356-.275a2.541,2.541,0,0,1,.1-.369c.085-.189.193-.367.281-.556.047-.1.127-.231.1-.316-.149-.459.167-.955-.116-1.4a.065.065,0,0,1,0-.056,1.066,1.066,0,0,0-.006-.826.291.291,0,0,1,.135-.343.607.607,0,0,0,.26-.649,3.446,3.446,0,0,1,.107-1.241,6.212,6.212,0,0,1,.092-1.066,1.14,1.14,0,0,1,.019-.674,1.362,1.362,0,0,0-.01-.565,1.019,1.019,0,0,1,.032-.616c.057-.154.1-.315.15-.472.065-.124.136-.244.207-.362a2.215,2.215,0,0,0,.259-.564.674.674,0,0,1-.006-.448.268.268,0,0,0,0-.063c-.013-.221-.024-.443-.039-.664a.611.611,0,0,1,.1-.421.529.529,0,0,0,.056-.457C204.576,202.627,204.575,202.45,204.518,202.294Z"/></svg>