<svg id="Livello_1" data-name="Livello 1" xmlns="http://www.w3.org/2000/svg" viewBox="0 0 952 379"><defs><style>.cls-1{fill:#f36;}.cls-2{fill:#1858a8;}</style></defs><title>themerson</title><g id="solo_testo" data-name="solo testo"><path class="cls-1" d="M786.38,54.7a1.086,1.086,0,0,1-.04-.122,1.322,1.322,0,0,0-.757-.92.812.812,0,0,1-.38-.34,4.454,4.454,0,0,0-1-1.485.441.441,0,0,1-.107-.161,3.56,3.56,0,0,0-.728-.978.536.536,0,0,1-.14-.339,12.087,12.087,0,0,1,.046-1.385,2.872,2.872,0,0,0-.05-.956c-.073-.327-.4-.495-.466-.818a.271.271,0,0,0-.2-.144,1.487,1.487,0,0,0-1.208.314c-.068.071-.122.12-.242.02a1.354,1.354,0,0,1,.037-.219.545.545,0,0,0-.223-.669,1.433,1.433,0,0,1-.6-.956,1.683,1.683,0,0,0-.343-.751,14.936,14.936,0,0,0-1.031-1.248.877.877,0,0,1-.336-.663.4.4,0,0,0-.145-.272,4.489,4.489,0,0,1-.986-1.356,2.8,2.8,0,0,1-.47-1.544,7.443,7.443,0,0,0-.572-.568,1.56,1.56,0,0,1-.455-.692c-.034-.095-.148-.154-.216-.238a2.971,2.971,0,0,1-.225-.312c-.164-.266-.212-.612-.554-.752-.557-.847-1.216-1.629-1.7-2.524a5.16,5.16,0,0,0-.5-.826.741.741,0,0,1-.176-.874.514.514,0,0,0-.224-.679,4.379,4.379,0,0,0-1.279-.647c-.776-.154-1.538-.376-2.316-.518a5.418,5.418,0,0,1-1.792-.78,3.1,3.1,0,0,0-1.014-.438,3.389,3.389,0,0,1-1.084-.419,1.873,1.873,0,0,1-.854-1,1.1,1.1,0,0,0-.249-.366.406.406,0,0,1-.08-.573.687.687,0,0,0-.037-.845,2.156,2.156,0,0,0-1.544-.891,7.366,7.366,0,0,1-1.163-.2,4.226,4.226,0,0,1-.89-.2,2.894,2.894,0,0,0-.827-.191,5.317,5.317,0,0,1-2.352-.749,2.848,2.848,0,0,0-1.411-.478,11.065,11.065,0,0,1-1.874-.3,1.272,1.272,0,0,1-.352-.159,2.656,2.656,0,0,0-.318-.227,9.767,9.767,0,0,0-1.39-.588c-.4-.1-.807-.207-1.2-.338a21.119,21.119,0,0,0-2.212-.628,1.314,1.314,0,0,1-.248-.083,2.869,2.869,0,0,0-1.267-.286,1.382,1.382,0,0,1-.377-.089c-.146-.041-.289-.1-.437-.129a2.789,2.789,0,0,0-1.362-.128c-.176.047-.39-.061-.583-.048-.479.034-.959.057-1.438.108a7.505,7.505,0,0,0-1.49.264.717.717,0,0,1-.446.027,1.043,1.043,0,0,0-.941.108c-.035.019-.072.035-.108.053a20.376,20.376,0,0,1-3.473.213,5.266,5.266,0,0,1-2.086-.175,4.155,4.155,0,0,1-1.555.2c-.9,0-1.8.021-2.7.017a2.729,2.729,0,0,1-.691-.095,3.272,3.272,0,0,0-1.65-.042,1.149,1.149,0,0,1-.682,0,2.343,2.343,0,0,0-.83-.051c-.929.03-1.862.043-2.8.045a14.113,14.113,0,0,0-2.415.009,1.013,1.013,0,0,1-.36-.011,11.613,11.613,0,0,0-3.143-.111c-.487.021-.979.049-1.467.037a8.668,8.668,0,0,0-2.268.141,3.455,3.455,0,0,1-.844.019c-.773-.03-1.545-.084-2.317-.108a22.828,22.828,0,0,1-2.325-.07,4.18,4.18,0,0,0-.725.023,3.645,3.645,0,0,1-.6.041,15.4,15.4,0,0,0-2.071-.04c-1.175,0-2.357-.073-3.525-.138a14.389,14.389,0,0,0-2.649.095,4.235,4.235,0,0,1-1.32,0q-.7-.123-1.4-.264a13.855,13.855,0,0,0-1.533-.215,11.365,11.365,0,0,1-3.164-.489,5.483,5.483,0,0,0-2.21-.28,4.559,4.559,0,0,1-1.634-.2,2.769,2.769,0,0,0-1.414-.063,6,6,0,0,1-1.07.1,3.988,3.988,0,0,0-1.02.151,10.937,10.937,0,0,1-1.717.28c-.467.041-.969-.009-1.455-.014a19.7,19.7,0,0,1-2.56-.035,17.519,17.519,0,0,0-4.219.111c-.83.074-1.664.152-2.506.182a13.445,13.445,0,0,0-2.863.157,3.149,3.149,0,0,1-.726.012,4.305,4.305,0,0,0-1.74.191,1.564,1.564,0,0,1-.577.076,18.361,18.361,0,0,1-3.274-.032,1.227,1.227,0,0,0-.363,0,9.487,9.487,0,0,1-1.95-.062,8.152,8.152,0,0,0-1.094-.02c-1.008.046-2.012.115-3.021.16a4.44,4.44,0,0,1-.7-.07c-.279-.032-.555-.095-.833-.1-1.345-.042-2.69-.073-4.036-.1-.244-.006-.488.009-.733.006a6.8,6.8,0,0,1-.968-.036,2.949,2.949,0,0,0-1.072.028,4.886,4.886,0,0,1-1.684.055,9.47,9.47,0,0,0-1.579-.081q-.8.019-1.595-.037c-.415-.041-.8-.013-1.2-.019a6.836,6.836,0,0,1-1.8-.131,2.352,2.352,0,0,0-1.6-.043,1.106,1.106,0,0,1-.354,0,13.526,13.526,0,0,0-2.9.124,10.388,10.388,0,0,1-1.332.05,6.052,6.052,0,0,0-.606-.03,11.841,11.841,0,0,1-2.687-.085c-1.156-.133-2.286.025-3.422-.081a2.855,2.855,0,0,1-1.574-.141l-.875.286a5.673,5.673,0,0,0-.843-.07c-.926.066-1.872,0-2.788.057a10.038,10.038,0,0,1-2.043-.07,14.133,14.133,0,0,0-2.9-.1c-.2-.2-.376-.365-.556-.532a.919.919,0,0,0-.605-.2,3.058,3.058,0,0,0-1.663.286,3.323,3.323,0,0,1-1.864.349c-.848-.039-1.7-.02-2.542-.137a5.276,5.276,0,0,0-1.687.047,5.066,5.066,0,0,1-2.354.109,2.322,2.322,0,0,0-.486,0,7.217,7.217,0,0,1-1.191-.145,8.165,8.165,0,0,0-1.191-.022.483.483,0,0,1-.114-.025,4.157,4.157,0,0,0-1.779-.08c-.464.071-.944.116-1.414.177a3.05,3.05,0,0,1-1.835-.169,1.7,1.7,0,0,0-1.033-.085c-.826.111-1.361.346-1.472.8a.762.762,0,0,1-.142.3c-.015.019,0,.036-.016.055-.067.027-.134.04-.2.074-.29.148-.58.3-.88.426a3.532,3.532,0,0,1-1.263.327,6.138,6.138,0,0,1-1.56-.13c-.279-.06-.562-.107-.844-.158a1.139,1.139,0,0,0-.877.17,6.9,6.9,0,0,1-1.039.556,1.029,1.029,0,0,1-.63.1c-.324-.054-.651-.093-.978-.115a1.347,1.347,0,0,0-1.073.158.582.582,0,0,1-.629.058,1.487,1.487,0,0,0-.824-.163,4.425,4.425,0,0,1-.982-.086c-.611-.155-1.149.177-1.73.191-.067,0-.147.09-.195.155a1.322,1.322,0,0,1-1.328.521.644.644,0,0,0-.2-.022.787.787,0,0,0-.3.095c-.391.277-.767.574-1.158.847a3.064,3.064,0,0,1-.569.322,1.812,1.812,0,0,0-1.177,1.111.35.35,0,0,1-.1.164,4.461,4.461,0,0,1-.719.553,6.3,6.3,0,0,0-.773.478,1.187,1.187,0,0,1-.726.277.731.731,0,0,0-.684.424,1.506,1.506,0,0,1-.79.647.865.865,0,0,0-.515.459c-.082.175-.173.347-.272.514a1.413,1.413,0,0,1-.9.706,4.382,4.382,0,0,0-.657.28,1.819,1.819,0,0,1-.364.138.537.537,0,0,0-.426.26.354.354,0,0,1-.212.132.582.582,0,0,0-.386.315,3.23,3.23,0,0,1-1.168,1.194,4.858,4.858,0,0,0-1.232.956,4.246,4.246,0,0,1-.344.3,2.064,2.064,0,0,0-.413.406.807.807,0,0,1-.549.411c-.276.065-.535.2-.809.273a2.336,2.336,0,0,0-1.122.643.943.943,0,0,1-.564.3,2.535,2.535,0,0,0-1.02.431c-.324.218-.677.4-1.018.59a.867.867,0,0,0-.422.388,1.809,1.809,0,0,1-.19.3c-.027.423-.034.765-.074,1.1a1.518,1.518,0,0,1-.469.9c-.385.382-.8.73-1.2,1.1a.868.868,0,0,0-.118.153c-.14.191-.287.382-.416.573a1.242,1.242,0,0,0-.2.4,2.169,2.169,0,0,1-.592,1.057,3.677,3.677,0,0,0-1,1.418c-.037.116-.159.2-.218.318a5.133,5.133,0,0,0-.437.928c-.053.182.108.416.075.612-.037.222-.254.422-.268.639-.035.538-.207,1.051-.276,1.572a2.784,2.784,0,0,1-.729,1.543c-.335.369-.684.728-1.007,1.108a1.048,1.048,0,0,0-.311.549,12.4,12.4,0,0,0-.171,1.72.632.632,0,0,1-.31.668.731.731,0,0,0-.365.513,7.626,7.626,0,0,0-.247,1.242,5.863,5.863,0,0,1-.361,1.748,1.786,1.786,0,0,0-.143,1.191,2.794,2.794,0,0,1,.059,1.133,3.245,3.245,0,0,0,.062,1.268c.059.2-.06.453-.069.683-.008.25.241.441.148.735a.829.829,0,0,0,.316.914c.45.393.478.636.123,1.1a2.046,2.046,0,0,0-.367,1.014c-.032.232-.084.46-.13.689-.017.083-.076.171-.06.245a1.272,1.272,0,0,1-.207.917.628.628,0,0,0,.054.726c.117.153.207.324.3.467-.049.495-.1.955-.136,1.424a.764.764,0,0,0,.04.373,2.109,2.109,0,0,1,.258,1.043.655.655,0,0,0,.055.183,6.117,6.117,0,0,1,.243,1,2.952,2.952,0,0,0,.5,1.146c.116.218.277.43.417.645a.819.819,0,0,1,.049.963,1.635,1.635,0,0,0-.213.865,6.4,6.4,0,0,0,.074,1.594.788.788,0,0,1-.085.621,1.05,1.05,0,0,0-.117.423,6.1,6.1,0,0,0,.583,2.348c.017.057.082.1.117.153.164.252.341.5.483.765a1.047,1.047,0,0,0,.424.477.766.766,0,0,1,.427.738,1.276,1.276,0,0,0,.391.917,1.67,1.67,0,0,1,.64,1.164,1.294,1.294,0,0,1,.816.807,5.608,5.608,0,0,0,.522,1.02,4.044,4.044,0,0,0,1.292,1.434,1.727,1.727,0,0,1,.731.948,5.323,5.323,0,0,0,.2.546,3.379,3.379,0,0,0,1.131,1.469,3.226,3.226,0,0,1,.676.588,1.958,1.958,0,0,1,.51.736.519.519,0,0,0,.2.249,6.626,6.626,0,0,0,.593.4c.189.114.417.217.462.434.083.4.431.638.565,1,.046.128.2.225.313.322a2.259,2.259,0,0,0,.47.345.791.791,0,0,1,.425.465.906.906,0,0,0,.423.478c.074.041.174.091.2.158a.784.784,0,0,0,.383.421,1.52,1.52,0,0,0-.261.017.175.175,0,0,0-.108.134.371.371,0,0,0,.082.217.287.287,0,0,0,.174.065,2.357,2.357,0,0,1,.752.089c.032.016.054.051.083.073.006.023.026.033.03.058a.309.309,0,0,0,.117.148c.063.049.127.095.19.147.03.038.059.078.091.114a2.845,2.845,0,0,1,.885,1.547c.291-.311.578-.165.87-.108a.961.961,0,0,1,.7.5,1.55,1.55,0,0,0,.535.6.44.44,0,0,1,.18.246,1.141,1.141,0,0,0,.462.641c-.069.1-.123.182-.19.28a4.4,4.4,0,0,0,.5.318,4.765,4.765,0,0,0,.486.145,1.04,1.04,0,0,1,.274.144,1.283,1.283,0,0,0,1.385.256,5.1,5.1,0,0,1,1.651,1.4,1.661,1.661,0,0,0,.328.292c.377.267.822.46,1.01.922.007.018.029.03.045.043a7.264,7.264,0,0,1,1.155.883,4.377,4.377,0,0,1,1.206.893,2.548,2.548,0,0,0,.794.506,2.958,2.958,0,0,1,.955.612c.356.309.65.725,1.188.782a.353.353,0,0,1,.164.09,2.4,2.4,0,0,1,.609.539c.143.257.427.344.563.563a2.681,2.681,0,0,0,1.294.986,4.179,4.179,0,0,1,1.253.93.86.86,0,0,0,.183.173,1.2,1.2,0,0,1,.617.812c.125.045.224.083.324.117a1.36,1.36,0,0,1,.762.532,1.255,1.255,0,0,0,.544.422,1.139,1.139,0,0,1,.369.227,5.832,5.832,0,0,0,1.5,1.156,19.7,19.7,0,0,1,1.521,1.318,1.206,1.206,0,0,0,.9.711,1.9,1.9,0,0,1,.38.23,6.1,6.1,0,0,0,1.114.608.949.949,0,0,1,.692.6.687.687,0,0,0,.565.527,1.139,1.139,0,0,1,.286.136,19.169,19.169,0,0,1,2.02,1.523c.151.115.283.256.443.354a5.22,5.22,0,0,1,1.265,1.136,3.054,3.054,0,0,0,.617.538,10.073,10.073,0,0,1,1.759,1.242.315.315,0,0,0,.162.095c.336.062.472.33.64.574a1.557,1.557,0,0,0,.31.382,9.685,9.685,0,0,1,1.206.922c.206.2.475.333.607.622a.989.989,0,0,0,.374.328c.513.34,1.032.669,1.551,1a1.912,1.912,0,0,1,.643.595,1.225,1.225,0,0,0,.358.348,12.984,12.984,0,0,1,1.692,1.227,7.952,7.952,0,0,0,.821.472c.268.2.478.472.73.7a14.442,14.442,0,0,1,1.4,1.272,1.828,1.828,0,0,0,.774.537,1.359,1.359,0,0,1,.518.343,2.406,2.406,0,0,0,.73.589c.684.258,1.065.893,1.7,1.2a.289.289,0,0,1,.105.153,1.032,1.032,0,0,0,.659.551,1.089,1.089,0,0,1,.363.232,7.907,7.907,0,0,0,1.262,1.043.988.988,0,0,1,.064.108,1.064,1.064,0,0,0,.5.562c.088.049.207.107.234.187.13.382.47.526.789.682a.82.82,0,0,1,.551.585.359.359,0,0,0,.138.175c.5.4,1,.81,1.52,1.179a2.129,2.129,0,0,0,1.4.573c.056-.006.088.023.137.028a5.3,5.3,0,0,1,.663.616.711.711,0,0,0,.6.276l.211-.281c.041.032.1.038.13.081a2.959,2.959,0,0,1,.214.311c.059.1.106.2.159.308l.861-.447c.231.279.475.537.813.393a2.2,2.2,0,0,1,1.145-.034l.253.421c.182.054.331.1.479.142.406.124.719.527,1.216.382a.079.079,0,0,1,.066.034c.117.217.315.227.533.227a.389.389,0,0,1,.277.118c.351.491,1.03.723,1.111,1.376.333.108.677.051.893.34a.41.41,0,0,0,.282.09c.258.01.518-.014.775,0a1.794,1.794,0,0,1,.6.09c.209.09.366.3.577.376a2.5,2.5,0,0,0,.669.047.11.11,0,0,1,.069.033c.227.237.526.118.766.11a1.734,1.734,0,0,0,.173.219c.314.277.469.737.992.778.093.008.177.169.259.265a7.483,7.483,0,0,0,.907,1.027q.365.273.7.579a1.818,1.818,0,0,0,1.113.623c.432.025.9.382,1.325-.049.038-.038.149-.02.224-.011a2.7,2.7,0,0,0,1.215-.176,1.31,1.31,0,0,1,.984-.039.934.934,0,0,0,.452-.01c.461-.066.918-.16,1.381-.21a2.029,2.029,0,0,0,.6-.095,1.3,1.3,0,0,1,1.065.022,9.74,9.74,0,0,0,1.469.461c.508.151,1.085.229,1.375.776.039.072.168.1.261.142a3.943,3.943,0,0,1,.426.171,3.2,3.2,0,0,0,.444.3,2.365,2.365,0,0,0,.575.065c.041.113.066.184.094.255a1.546,1.546,0,0,0,1.857,1.089,1.612,1.612,0,0,0,.168-.048c.618-.158,1.259-.231,1.885-.341l.311.268c.5-.445,1-.8,1.672-.53.247-.15.463-.287.688-.414a1.116,1.116,0,0,1,.419-.162,2.751,2.751,0,0,0,1.148-.42c.492-.287.948-.628,1.458-.873a9.289,9.289,0,0,1,1.745-.779,3.087,3.087,0,0,1,1.458-.059,2.345,2.345,0,0,0,1.436-.163.927.927,0,0,1,.362-.1c.3.014.572.026.725-.3.023-.049.182-.046.279-.051a4.556,4.556,0,0,0,1.3-.444c.407-.536,1.091-.853,1.246-1.529a1.6,1.6,0,0,1,.942-.118,1.345,1.345,0,0,0,.446-.058,6.286,6.286,0,0,1,1.886-.329.98.98,0,0,0,.522-.064,2.809,2.809,0,0,1,1.331-.366,1.931,1.931,0,0,0,.789-.273,4.564,4.564,0,0,1,1.295-.488,6.324,6.324,0,0,0,1.18-.348,7.029,7.029,0,0,1,1.213-.254.375.375,0,0,0,.075-.019,15.281,15.281,0,0,0,2.781-1.315.532.532,0,0,1,.357-.119,1.2,1.2,0,0,0,.791-.144.928.928,0,0,0-.032.106.178.178,0,0,0,.091.145.4.4,0,0,0,.238,0,.276.276,0,0,0,.123-.136c.06-.115.108-.243.162-.365.366-.147.733-.292,1.091-.457A1.134,1.134,0,0,0,684.5,142a2.434,2.434,0,0,1,1.207-.078c-.174-.33-.007-.533.143-.746.064-.014.115-.049.183-.06.2-.031.387-.158.588-.191a1.262,1.262,0,0,0,.974-.616c.037-.007.071-.033.1-.027a1.209,1.209,0,0,0,.78-.2l.2.272a4.765,4.765,0,0,0,.483-.347,4.851,4.851,0,0,0,.309-.393,1.042,1.042,0,0,1,.234-.2,1.223,1.223,0,0,0,.733-1.172,5.171,5.171,0,0,1,1.924-1.015,1.711,1.711,0,0,0,.4-.191,2.393,2.393,0,0,1,1.241-.6.129.129,0,0,0,.057-.026,7.315,7.315,0,0,1,1.254-.743,4.4,4.4,0,0,1,1.283-.786,2.518,2.518,0,0,0,.766-.547,2.982,2.982,0,0,1,.923-.655c.422-.216.926-.338,1.169-.808a.342.342,0,0,1,.145-.118,2.418,2.418,0,0,1,.732-.366c.3-.04.481-.269.738-.316a2.7,2.7,0,0,0,1.4-.833,4.213,4.213,0,0,1,1.335-.816.91.91,0,0,0,.23-.107,1.265,1.265,0,0,1,1-.278c.087-.095.157-.173.225-.254a1.37,1.37,0,0,1,.78-.507,1.263,1.263,0,0,0,.6-.348,1.117,1.117,0,0,1,.347-.257,5.827,5.827,0,0,0,1.639-.963q.879-.507,1.809-.925a1.217,1.217,0,0,0,1-.573,1.891,1.891,0,0,1,.355-.266,6.036,6.036,0,0,0,.976-.8.963.963,0,0,1,.821-.419.7.7,0,0,0,.705-.331,1.175,1.175,0,0,1,.231-.214,19.554,19.554,0,0,1,2.174-1.306c.163-.1.345-.168.5-.279a5.285,5.285,0,0,1,1.536-.755,3.054,3.054,0,0,0,.733-.374,10.174,10.174,0,0,1,1.813-1.167.323.323,0,0,0,.148-.114c.178-.287.483-.315.772-.382a1.621,1.621,0,0,0,.477-.147,9.739,9.739,0,0,1,1.311-.776,2.323,2.323,0,0,1,.812-.336,1,1,0,0,0,.446-.225c.507-.349,1.008-.7,1.508-1.062a1.957,1.957,0,0,1,.8-.377,1.265,1.265,0,0,0,.46-.2,12.909,12.909,0,0,1,1.774-1.111c.28-.127.474-.421.742-.584.287-.174.622-.27.925-.421a14.881,14.881,0,0,1,1.715-.829,1.832,1.832,0,0,0,.789-.517,1.373,1.373,0,0,1,.511-.352,2.436,2.436,0,0,0,.824-.459c.487-.532,1.232-.657,1.749-1.127a.319.319,0,0,1,.184-.042,1.038,1.038,0,0,0,.76-.407,1.073,1.073,0,0,1,.352-.249,5.665,5.665,0,0,0,1.9-1.11.415.415,0,0,1,.163-.1,15.085,15.085,0,0,0,1.682-.939h0l.265.227c.418-.376.844-.677,1.415-.449.21-.127.393-.246.584-.351a.955.955,0,0,1,.355-.137,2.319,2.319,0,0,0,.972-.357c.417-.238.8-.532,1.236-.738a7.809,7.809,0,0,1,1.478-.661,2.606,2.606,0,0,1,1.235-.049,1.987,1.987,0,0,0,1.217-.139.8.8,0,0,1,.307-.084c.252.012.484.022.614-.255.019-.041.154-.039.236-.044a3.89,3.89,0,0,0,1.1-.375c.345-.455.925-.724,1.056-1.3a1.363,1.363,0,0,1,.8-.1,1.1,1.1,0,0,0,.378-.049,5.3,5.3,0,0,1,1.6-.278.838.838,0,0,0,.443-.055,2.37,2.37,0,0,1,1.127-.31,1.648,1.648,0,0,0,.669-.231,3.864,3.864,0,0,1,1.1-.412,5.475,5.475,0,0,0,1-.3,5.972,5.972,0,0,1,1.027-.216.231.231,0,0,0,.064-.016,13,13,0,0,0,2.357-1.114.454.454,0,0,1,.3-.1,1.527,1.527,0,0,0,.939-.239c.386-.154.772-.308,1.149-.478a.933.933,0,0,0,.357-.272,1.826,1.826,0,0,1,1.27-.726c.171-.027.327-.135.5-.166a1.009,1.009,0,0,0,.913-.633.18.18,0,0,1,.084-.1,1.283,1.283,0,0,0,.618-.8,2.162,2.162,0,0,1,.212-.317.8.8,0,0,0,.145-.274c.067-.494.493-.86.5-1.374a.2.2,0,0,1,.061-.112,2.615,2.615,0,0,0,.4-.415c.081-.137.308-.191.454-.276l.237-1.327c.119-.03.226-.027.282-.078a1.474,1.474,0,0,0,.585-.734,1.612,1.612,0,0,1,.7-1.121c.072-.043.115-.13.178-.191.223-.206.441-.416.676-.608a1.132,1.132,0,0,0,.411-.566.983.983,0,0,1,.188-.405,1.392,1.392,0,0,0,.317-.759,1.435,1.435,0,0,1,.685-1.051,1.37,1.37,0,0,0,.511-.573c.068-.127.183-.3.3-.32.313-.045.43-.247.568-.478a1.17,1.17,0,0,1,.784-.581c.018-.031.035-.063.05-.1a2.622,2.622,0,0,1,.575-1.337.542.542,0,0,0,.071-.36c0-.17-.063-.339-.062-.509a.5.5,0,0,1,.1-.352c.42-.334.422-.887.737-1.27.008-.315.246-.478.453-.664a2.457,2.457,0,0,0,.76-1.256c.1-.434.147-.88.21-1.323.054-.382.088-.764.151-1.146a.476.476,0,0,1,.165-.325c.368-.184.408-.6.689-.845a.22.22,0,0,0,.059-.177c-.078-.417.334-.75.206-1.178-.018-.06.068-.15.108-.224.071-.132.153-.258.212-.394.119-.273.225-.553.337-.829a1.985,1.985,0,0,0,.285-.843.445.445,0,0,1,.269-.412.705.705,0,0,0,.368-.707.906.906,0,0,1,.652-.932,1.586,1.586,0,0,0,.47-.339.863.863,0,0,0,.076-1.17c-.05-.07-.123-.126-.172-.192a.481.481,0,0,1-.059-.595c.129-.191.051-.351-.081-.524a7.666,7.666,0,0,1-.53-.81.535.535,0,0,1-.1-.362,10.657,10.657,0,0,0,.174-1.378,2.733,2.733,0,0,0,.031-.373v-.437a1.712,1.712,0,0,0,.014-.312,7.158,7.158,0,0,1-.017-2.23,2.156,2.156,0,0,0-.011-.828,5.062,5.062,0,0,1-.17-2.394.279.279,0,0,0-.01-.191,1.081,1.081,0,0,1-.008-.931c.06-.254-.133-.478-.082-.682a1.36,1.36,0,0,0,.051-.684,2.136,2.136,0,0,1-.028-.382l.947-.145C786.566,55.323,786.6,55.263,786.38,54.7Z"/><path class="cls-1" d="M821.37,162.519a.758.758,0,0,1,.051-.644.326.326,0,0,0,.027-.177c-.025-.513-.037-1.029-.086-1.539a1.844,1.844,0,0,0-.343-1.14c-.19-.2-.163-.436-.226-.663-.068-.25-.241-.463-.2-.753q.024-.151.063-.3c.024-.088.057-.174.087-.262l-.625-.26c.039-.289.061-.574-.168-.693a1.615,1.615,0,0,1-.542-.653c.038-.14.074-.273.1-.38l-.145-.358c-.121-.307-.057-.712-.358-.925a.071.071,0,0,1-.012-.058.441.441,0,0,0-.127-.437.33.33,0,0,1-.065-.227c.092-.475-.1-1,.2-1.407-.1-.255-.283-.425-.233-.71a.348.348,0,0,0-.082-.216c-.114-.156-.244-.3-.356-.453a1.409,1.409,0,0,1-.229-.4c-.049-.172-.011-.38-.068-.545a1.946,1.946,0,0,0-.283-.418.1.1,0,0,1-.015-.059c.019-.263-.178-.373-.293-.509a1.507,1.507,0,0,0,.034-.222c0-.336.166-.68-.051-1.009-.039-.06.006-.2.018-.3a7,7,0,0,0,.116-1.1c-.011-.241-.033-.488-.023-.729a1.639,1.639,0,0,0-.186-1c-.185-.267-.216-.738-.632-.751-.037,0-.078-.076-.107-.125a1.88,1.88,0,0,0-.647-.616.955.955,0,0,1-.47-.556.684.684,0,0,0-.211-.26c-.245-.234-.5-.451-.739-.7a1.418,1.418,0,0,0-.328-.3.98.98,0,0,1-.475-.637,8.255,8.255,0,0,0-.433-1.116,1.724,1.724,0,0,1-.228-1.232c.02-.062-.023-.155-.045-.231-.033-.116-.085-.226-.107-.344a2.92,2.92,0,0,0-.047-.427,1.87,1.87,0,0,0-.229-.372c.04-.087.065-.141.088-.2a1.339,1.339,0,0,0-.387-1.759c-.364-.277-.7-.613-1.038-.92v-.33a2.36,2.36,0,0,1-.331-.084.85.85,0,0,1-.706-.606c-.191-.063-.362-.112-.528-.177a.714.714,0,0,1-.276-.156,1.76,1.76,0,0,0-.741-.444c-.37-.133-.758-.212-1.116-.377a5.729,5.729,0,0,1-1.2-.6,2.253,2.253,0,0,1-.7-.823,1.648,1.648,0,0,0-.741-.753.619.619,0,0,1-.216-.159c-.129-.182-.248-.35-.487-.26-.035.014-.107-.081-.154-.135A2.954,2.954,0,0,0,803.3,128c-.463.056-.939-.172-1.36.111a1.116,1.116,0,0,1-.492-.488.934.934,0,0,0-.235-.23c-.2-.147-.4-.294-.584-.456a2.652,2.652,0,0,1-.447-.47c-.076-.107-.167-.24-.272-.272a1.846,1.846,0,0,1-.8-.58,1.236,1.236,0,0,0-.5-.313,2.9,2.9,0,0,1-.843-.493,4.24,4.24,0,0,0-.719-.5,4.752,4.752,0,0,1-.686-.572.207.207,0,0,0-.044-.034,9.479,9.479,0,0,0-1.949-.911.351.351,0,0,1-.225-.143c-.146-.3-.417-.366-.652-.5-.3-.167-.6-.335-.913-.484a.662.662,0,0,0-.358-.072,1.322,1.322,0,0,1-1.128-.409c-.108-.1-.258-.139-.37-.237-.266-.236-.536-.4-.877-.223a.124.124,0,0,1-.1,0,.914.914,0,0,0-.819.089,1.6,1.6,0,0,1-.307.058.591.591,0,0,0-.245.077c-.337.273-.791.217-1.109.541a.156.156,0,0,1-.1.03,1.754,1.754,0,0,0-.469-.009c-.127.032-.284-.089-.413-.136l-.936.695c-.083-.063-.139-.139-.2-.145a1.049,1.049,0,0,0-.764.07,1.177,1.177,0,0,1-1.058.244.931.931,0,0,0-.211,0c-.245-.021-.491-.037-.734-.075a.816.816,0,0,0-.567.082.769.769,0,0,1-.348.133,1.06,1.06,0,0,0-.633.271,1.048,1.048,0,0,1-1.01.206.967.967,0,0,0-.624.017c-.114.035-.284.069-.356,0a.551.551,0,0,0-.6-.086.828.828,0,0,1-.776-.167.664.664,0,0,0-.086.028,2.012,2.012,0,0,1-1.126.469c-.084,0-.185.1-.258.184-.1.113-.172.263-.276.372-.074.078-.188.172-.27.158-.43-.074-.768.282-1.171.312-.2.2-.422.136-.65.117a1.8,1.8,0,0,0-1.174.286c-.319.211-.616.468-.918.711-.261.209-.514.434-.778.636-.082.062-.211.129-.288.1-.31-.136-.587.108-.885.07a.171.171,0,0,0-.14.074c-.212.324-.637.253-.829.619-.027.052-.129.05-.2.071-.117.036-.239.061-.352.108-.232.1-.459.2-.688.3a1.54,1.54,0,0,0-.667.348.33.33,0,0,1-.4.081.533.533,0,0,0-.629.2.669.669,0,0,1-.92.152.979.979,0,0,0-.219-.05,1.172,1.172,0,0,0-.241-.056.762.762,0,0,0-.754.706c-.015.08-.009.166-.026.245-.042.211-.119.386-.33.426-.187.036-.242.193-.276.4a8.386,8.386,0,0,1-.2.857c-.162.175-.312.367-.461.556-.218.182-.423.384-.648.553a2.33,2.33,0,0,0-.245.22c-.091.091-.177.188-.268.28a1.577,1.577,0,0,0-.2.192l-.03.032a8.221,8.221,0,0,0-3.372,2.53,5.011,5.011,0,0,1-1.783,1.581,1.725,1.725,0,0,0-.655.639c-.138-.048-.22.058-.364.389-.016.037-.034.072-.053.107s-.013.048-.025.072a3.571,3.571,0,0,1-2.13,1.336c-.256.045-.475.384-.711.587-.277.239-.524.585-.834.7a19.609,19.609,0,0,1-4.638,1.456,3.387,3.387,0,0,0-.646.21,3.135,3.135,0,0,1-1.765,1.95,1.578,1.578,0,0,0-.584.546,2.043,2.043,0,0,1-1.161.748,8.279,8.279,0,0,0-3.7,2.247,2.235,2.235,0,0,1-.755.548c-1.27.533-2.546,1.052-3.831,1.534a2.019,2.019,0,0,1-1.76-.078,9.942,9.942,0,0,0-1.764-.569c-.519.48-1.049.925-1.531,1.433a1.864,1.864,0,0,1-1.057.623c-1.538.239-2.991.96-4.548,1.088a3.041,3.041,0,0,1-3.02.333,8.539,8.539,0,0,0-1.519.726,1.772,1.772,0,0,1-2.384.095,1.4,1.4,0,0,0-1.847-.045c-.116.088-.29.074-.487.118-.6-.321-1.2-.783-1.956-.565a.672.672,0,0,1-.572-.143,2.1,2.1,0,0,0-2.3-.246,2.34,2.34,0,0,1-1.916-.123,1.507,1.507,0,0,0-1.284-.033,8.122,8.122,0,0,1-3.386.325,3.529,3.529,0,0,0-2.637.426.975.975,0,0,1-.586.141,5.145,5.145,0,0,0-2.973.96,3.369,3.369,0,0,0-2.261-.047,9.7,9.7,0,0,1-2.156.75,9.86,9.86,0,0,0-3.127,1.222,4.182,4.182,0,0,1-2.18.549,11.529,11.529,0,0,0-3.423.405,13.255,13.255,0,0,1-3.843.706,2.774,2.774,0,0,0-2.653,1.338.635.635,0,0,1-.527.269,4.18,4.18,0,0,1-1.609-.3,4.39,4.39,0,0,0-1.59-.4,6.829,6.829,0,0,0-2.533.359c-.1.023-.192.028-.288.044-.036-.03-.076-.04-.11-.073-.109-.1-.259-.139-.371-.238-.266-.235-.537-.4-.877-.222a.133.133,0,0,1-.1,0,.719.719,0,0,0-.592.009c-.076.026-.152.046-.227.079a1.709,1.709,0,0,1-.308.059.587.587,0,0,0-.245.077c-.337.273-.79.217-1.109.541a.146.146,0,0,1-.1.029,1.8,1.8,0,0,0-.47-.008c-.127.032-.283-.089-.412-.136l-.937.7c-.083-.063-.138-.139-.2-.145a1.046,1.046,0,0,0-.763.07,2.153,2.153,0,0,1-.3.15,1.867,1.867,0,0,0-.936-.023.652.652,0,0,1-.733-.2,2.74,2.74,0,0,0-2.509-.8,1.721,1.721,0,0,1-.785-.026.555.555,0,0,0-.314-.038,2.851,2.851,0,0,1-1.565-.257,3.435,3.435,0,0,0-1.62-.3c-.176.032-.292-.081-.426-.188a5.365,5.365,0,0,0-.675-.432.274.274,0,0,0-.23-.028.688.688,0,0,1-.879-.18.416.416,0,0,0-.143-.078c-.126-.044-.284-.153-.378-.108-.432.207-.8-.219-1.232-.087a1.935,1.935,0,0,1-1.838-.257.673.673,0,0,0-.458-.1,3.294,3.294,0,0,1-1.789-.307.514.514,0,0,0-.311-.047,2.043,2.043,0,0,1-1.179-.165,3.619,3.619,0,0,0-.468-.112,9.9,9.9,0,0,1-1.091-.25,3.4,3.4,0,0,0-1.731-.219.433.433,0,0,1-.234-.007,16.108,16.108,0,0,0-2.88-.623,14.619,14.619,0,0,1-2.875-.75,4.222,4.222,0,0,0-1.319-.34,4.338,4.338,0,0,1-1.225-.332,6.076,6.076,0,0,0-1.72-.317,2.874,2.874,0,0,1-1.311-.319,1.692,1.692,0,0,0-1.086-.173,1.443,1.443,0,0,1-.544.011c-1.161-.322-2.313-.674-3.474-1-.593-.164-1.193-.3-1.8-.417a1.667,1.667,0,0,0-.717.012.845.845,0,0,1-.827-.155c-.231-.191-.514-.313-.565-.68-.007-.042-.076-.073-.14-.132a.858.858,0,0,0-.288.057,1.32,1.32,0,0,1-1.308.1,1.955,1.955,0,0,0-.551-.1,13.049,13.049,0,0,1-1.731-.342c-.694-.2-1.41-.3-2.116-.446a1.875,1.875,0,0,1-.391-.088,6.208,6.208,0,0,0-1.6-.417,1.439,1.439,0,0,0-.33-.228c-.2-.115-.4-.23-.6-.333a.432.432,0,0,0-.239-.052.887.887,0,0,1-.748-.286c-.071-.069-.171-.1-.244-.163-.176-.161-.355-.274-.583-.159a.085.085,0,0,1-.07,0,.612.612,0,0,0-.546.05,1.123,1.123,0,0,1-.206.035.391.391,0,0,0-.164.049.652.652,0,0,1-.174.074,4.22,4.22,0,0,0-.6-.1c-.121,0-.24-.042-.361-.049-.062.058-.138.111-.161.183a1.176,1.176,0,0,1-.085.161l-.018-.006-.63.452c-.055-.043-.091-.094-.131-.1a.7.7,0,0,0-.51.038.785.785,0,0,1-.707.15.665.665,0,0,0-.141,0c-.163-.017-.327-.03-.489-.059a.544.544,0,0,0-.378.048.505.505,0,0,1-.234.084.707.707,0,0,0-.424.174.7.7,0,0,1-.674.125.647.647,0,0,0-.417,0c-.076.022-.19.043-.237,0a.368.368,0,0,0-.4-.065.554.554,0,0,1-.516-.12.27.27,0,0,0-.057.018,1.338,1.338,0,0,1-.755.3c-.056,0-.124.067-.173.12-.069.074-.118.173-.188.245-.05.05-.126.112-.181.1-.286-.055-.514.178-.783.194-.133.13-.282.085-.434.069a1.2,1.2,0,0,0-.785.177c-.214.138-.415.306-.619.464-.175.136-.346.283-.524.414-.055.041-.142.084-.192.061-.206-.094-.393.065-.591.036a.114.114,0,0,0-.094.048c-.144.213-.427.161-.558.4-.018.034-.086.032-.131.045a2.123,2.123,0,0,0-.236.068c-.155.06-.308.129-.461.194a1.01,1.01,0,0,0-.448.224.219.219,0,0,1-.264.049.353.353,0,0,0-.422.128.444.444,0,0,1-.614.09.735.735,0,0,0-.3-.076.5.5,0,0,0-.509.461c-.011.054-.008.111-.02.164-.03.14-.083.256-.223.28s-.163.125-.188.26a5.763,5.763,0,0,1-.146.593.357.357,0,0,1-.115.2,5.81,5.81,0,0,0-.628.5,1.418,1.418,0,0,0-.165.144c-.062.059-.12.123-.181.183a.943.943,0,0,0-.134.126,4.346,4.346,0,0,1-.911.955,1.288,1.288,0,0,0-.338.356,3.152,3.152,0,0,1-.925,1.1.166.166,0,0,0-.074.085c-.054.23-.231.3-.38.4-.126.08-.148.262-.253.328a.778.778,0,0,0-.3.266,1.338,1.338,0,0,1-.145.174c-.142-.138-.268-.261-.394-.382-.268-.257-.3-.249-.46.1-.011.024-.023.048-.036.071a.956.956,0,0,0-.111.745.587.587,0,0,1-.006.322,3.239,3.239,0,0,0-.259,1.1.351.351,0,0,1-.028.119,2.564,2.564,0,0,0-.145.756.386.386,0,0,1-.09.209,7.306,7.306,0,0,1-.587.567,1.738,1.738,0,0,0-.374.428c-.109.172-.061.4-.172.564a.189.189,0,0,0,.012.156c.151.2.3.425.556.432.053,0,.093.007.094.106a1.043,1.043,0,0,1-.1.075.361.361,0,0,0-.194.386,1.045,1.045,0,0,1-.183.686,1.189,1.189,0,0,0-.188.48c-.066.333-.114.672-.15,1.012a.617.617,0,0,1-.154.438.284.284,0,0,0-.061.184,3.256,3.256,0,0,1-.209,1.037,1.9,1.9,0,0,1-.469.875c-.013.183-.034.346-.032.509a1.129,1.129,0,0,1-.124.506.846.846,0,0,0-.022.2,2.12,2.12,0,0,1-.049.237c-.05.19-.176.359-.113.579-.152.62-.241,1.261-.439,1.866a3.743,3.743,0,0,0-.162.586c-.034.223-.094.381-.3.454a.341.341,0,0,0-.2.392,3.08,3.08,0,0,0,.186.874c.211.429.389.88.606,1.3a3.714,3.714,0,0,1,.311,1.17,2.135,2.135,0,0,0,.179.66,2.348,2.348,0,0,1,.211.685,1.377,1.377,0,0,1-.112.827.794.794,0,0,0-.063.271c-.01.161-.066.251-.207.281a.421.421,0,0,0-.336.376,1.528,1.528,0,0,0,.179,1.1,4.543,4.543,0,0,1,.329.63,2.7,2.7,0,0,1,.231.5,1.805,1.805,0,0,0,.213.469,3.563,3.563,0,0,1,.523,1.419,1.912,1.912,0,0,0,.3.864,7.036,7.036,0,0,1,.54,1,.886.886,0,0,1,.059.233,1.825,1.825,0,0,0,.019.245,6.7,6.7,0,0,0,.249.9c.1.231.2.466.286.706a13.936,13.936,0,0,0,.523,1.3.8.8,0,0,1,.054.151,1.849,1.849,0,0,0,.329.716.836.836,0,0,1,.1.214c.035.085.062.176.1.259a1.726,1.726,0,0,0,.429.692c.082.062.113.208.186.293.184.209.363.425.553.627a4.149,4.149,0,0,0,.635.586.416.416,0,0,1,.17.2.578.578,0,0,0,.377.4c.163.073.328.145.486.231a1.831,1.831,0,0,1,.581.453,3.813,3.813,0,0,1,.5.785c.073.156.154.309.233.462a.618.618,0,0,0,.379.339,3.249,3.249,0,0,1,.6.25.573.573,0,0,1,.264.253,5.633,5.633,0,0,0,.3.507.739.739,0,0,0,.444.434.333.333,0,0,1,.247.27.937.937,0,0,0,.223.455,2.757,2.757,0,0,1,.313.5c.152.351.478.462.69.727.025.031.089.031.133.025a.676.676,0,0,1,.684.4.391.391,0,0,0,.06.1.4.4,0,0,0,.148.1c.251.065.506.116.758.182a1.493,1.493,0,0,1,.334.13,1.6,1.6,0,0,0,.234.087c-.028.031-.053.064-.081.094a1.133,1.133,0,0,1-.264.17,2.463,2.463,0,0,0-.355.262,2.672,2.672,0,0,1,.635.232.779.779,0,0,0,.979-.08.376.376,0,0,1,.516-.04,4.331,4.331,0,0,0,.538.337,4.328,4.328,0,0,1,.283.674c.07.2.12.4.174.608a.838.838,0,0,1,.053.309,4.434,4.434,0,0,0,.084,1.2,1.323,1.323,0,0,0,.182.412,3.279,3.279,0,0,1,.545.584c.2.262.345.566.536.834a3,3,0,0,1,.58,1.515.966.966,0,0,0,.217.582,1,1,0,0,1,.341,1.179c.6.55,1.15,1.032,1.675,1.543a1.831,1.831,0,0,1,.311.538,9.134,9.134,0,0,0,1.341,2.358,5.185,5.185,0,0,0,.429.448,1.84,1.84,0,0,1,.643,1.062.9.9,0,0,0,.117.345,4.98,4.98,0,0,1,.566,2.3c.013.09-.034.194-.008.275.213.646-.127,1.184-.24,1.763-.029.148-.2.258-.335.413.078.1.132.221.22.275a21.847,21.847,0,0,1,1.868,1.583,5.505,5.505,0,0,1,1.412,1.578,1.317,1.317,0,0,0,.374.366c.35.259.7.521,1.069.747a3.628,3.628,0,0,1,1.328,2.275,7.7,7.7,0,0,0,.308.9c.069.134.124.277.172.386,0,.1.013.175-.014.217a2.175,2.175,0,0,0-.079,1.848,5.247,5.247,0,0,0,.955,1.95,1.624,1.624,0,0,1,.274,1.533.587.587,0,0,1-.092.252,1.9,1.9,0,0,0-.24,1.73c.16.843.377,1.677.487,2.525a25.528,25.528,0,0,0,.9,3.948,5.1,5.1,0,0,1,.155.911,2.011,2.011,0,0,0,.395,1.087c.009.709.017,1.32.024,1.931a1.353,1.353,0,0,1-.008.365,2.337,2.337,0,0,0,.528,2.127,2.044,2.044,0,0,1,.35,1.3,4.814,4.814,0,0,0,.348,1.7,1.8,1.8,0,0,1,.136.9,4.3,4.3,0,0,0,.171,1.55,10.78,10.78,0,0,1,.323,1.717,5.33,5.33,0,0,0,.338,1.607,3.742,3.742,0,0,1,.2,1.447c-.028.982-.238,1.933-.309,2.906a2.089,2.089,0,0,0,.111,1.17.943.943,0,0,1-.085.959,1.246,1.246,0,0,0-.129.969,4.71,4.71,0,0,1,.084,1.376,1.9,1.9,0,0,0,.056.642,9.64,9.64,0,0,1,.147,2.386,1.392,1.392,0,0,1-.042.257.7.7,0,0,1-.332.192c-.3.054-.521.41-.868.393-.1,0-.193.089-.29.137-.212.106-.42.227-.639.314a.8.8,0,0,0-.5.41.443.443,0,0,1-.4.312.4.4,0,0,0-.277.137v.014a4.922,4.922,0,0,1-.294,1.561,2.873,2.873,0,0,1-.688,1.326c-.014.274-.043.519-.037.763a1.7,1.7,0,0,1-.175.763,1.208,1.208,0,0,0-.029.3,3.139,3.139,0,0,1-.069.358c-.073.286-.258.543-.16.871-.214.935-.336,1.9-.621,2.811a5.6,5.6,0,0,0-.232.883c-.046.335-.134.574-.437.688a.515.515,0,0,0-.293.594,4.627,4.627,0,0,0,.3,1.306c.324.637.6,1.309.934,1.939a5.6,5.6,0,0,1,.49,1.747,3.258,3.258,0,0,0,.28.985,3.467,3.467,0,0,1,.331,1.022,2.068,2.068,0,0,1-.152,1.243,1.2,1.2,0,0,0-.089.409c-.012.241-.1.377-.306.427a.634.634,0,0,0-.5.572,2.286,2.286,0,0,0,.29,1.647c.007.009.01.021.016.03a5.548,5.548,0,0,0-.139,2.243,1.084,1.084,0,0,1-.167.867,1.969,1.969,0,0,0-.18.324,6.114,6.114,0,0,0-.057,1.443,3.171,3.171,0,0,1-.066,1,3.334,3.334,0,0,0-.075,1.19,1.351,1.351,0,0,1-.156.9c-.094.173-.152.362-.233.54.14.062.287.112.422.187.221.122.331.431.607.474a.134.134,0,0,1,.055.019,4.444,4.444,0,0,1,.684.578,5.59,5.59,0,0,0,.4.451,1.812,1.812,0,0,1,.675,1.008.527.527,0,0,0,.5.461.44.44,0,0,1,.308.141c.368.489.966.645,1.317,1.151a5.712,5.712,0,0,1,1.175,1.041,1.221,1.221,0,0,1,.372.484.508.508,0,0,0,.324.347.6.6,0,0,1,.425.433c.12-.018.231-.047.334-.064.031.028.045.07.079.1.123.092.173.31.285.434.28.31.552.628.842.927a6.151,6.151,0,0,0,.963.861.612.612,0,0,1,.258.29.867.867,0,0,0,.574.583c.246.105.494.208.734.333a2.773,2.773,0,0,1,.879.663,5.545,5.545,0,0,1,.763,1.165c.1.209.214.413.323.617l.036.069a.924.924,0,0,0,.576.5,4.929,4.929,0,0,1,.9.36.84.84,0,0,1,.4.372c.118.288.322.489.457.753a1.11,1.11,0,0,0,.675.64.493.493,0,0,1,.375.4,1.421,1.421,0,0,0,.344.677,4.054,4.054,0,0,1,.478.736c.236.523.728.681,1.051,1.073.037.046.133.044.2.035a1,1,0,0,1,1.033.583.621.621,0,0,0,.093.149.6.6,0,0,0,.223.146c.379.092.762.161,1.141.253a2.229,2.229,0,0,1,.5.186,1.285,1.285,0,0,0,1.312.1.251.251,0,0,1,.153-.037,3.031,3.031,0,0,1,.724.14,4.782,4.782,0,0,0,.712.224.889.889,0,0,1,.559.323.534.534,0,0,0,.628.2,1.064,1.064,0,0,1,.82.128.618.618,0,0,0,.557.06,4.38,4.38,0,0,1,.46-.145,1,1,0,0,1,.913.164,3.487,3.487,0,0,0,.525.273,1.3,1.3,0,0,1,.28.163.39.39,0,0,0,.389.126.256.256,0,0,1,.2.062.415.415,0,0,0,.4.064,2.253,2.253,0,0,1,1.357.035,3.415,3.415,0,0,0,1.247.234,2.808,2.808,0,0,1,.367.045,1.429,1.429,0,0,0,.47.024.575.575,0,0,1,.546.113c.19.149.411.242.6.384a1.678,1.678,0,0,0,1,.36.685.685,0,0,1,.488.2,1.891,1.891,0,0,0,.814.427c.307.084.606.212.908.323a.607.607,0,0,0,.463.041,1.441,1.441,0,0,1,.289-.066c.273-.255.484-.471.711-.661a1.129,1.129,0,0,1,.8-.258c.439.021.876.08,1.313.12a.687.687,0,0,0,.157-.017c.193-.027.386-.047.577-.086a.947.947,0,0,0,.347-.122,1.587,1.587,0,0,1,.963-.275,2.642,2.642,0,0,0,1.4-.225c.091-.05.21-.024.312-.056h.006a3.883,3.883,0,0,0,.794-.3c.139-.081.2-.345.333-.449.154-.117.393-.1.533-.227.347-.325.75-.535,1.107-.827a2.091,2.091,0,0,1,1.332-.494h.046c.392-.007.783,0,1.173-.021a.78.78,0,0,0,.5-.139,10.975,10.975,0,0,0,1.138-.994.485.485,0,0,1,.573-.216.53.53,0,0,0,.509-.08,6.345,6.345,0,0,0,.891-.635,4.889,4.889,0,0,1,1.26-.882,2.572,2.572,0,0,0,.492-.294,13.351,13.351,0,0,1,3.781-.421,3.4,3.4,0,0,0,.681-.1,3,3,0,0,1,2.042-1.653,1.532,1.532,0,0,0,.663-.448,1.975,1.975,0,0,1,1.273-.547,8.036,8.036,0,0,0,4.044-1.6,2.143,2.143,0,0,1,.835-.418c1.354-.311,2.713-.6,4.076-.86a2.1,2.1,0,0,1,1.77.395,10.589,10.589,0,0,0,1.708.893c.588-.391,1.183-.746,1.738-1.172a1.8,1.8,0,0,1,1.15-.44c1.588.036,3.152-.431,4.744-.28a3.106,3.106,0,0,1,3.1.207,8.315,8.315,0,0,0,1.632-.459,1.822,1.822,0,0,1,2.423.333,1.453,1.453,0,0,0,1.862.379c.129-.069.3-.023.507-.032.559.432,1.109,1.008,1.9.924a.707.707,0,0,1,.558.248,2.2,2.2,0,0,0,2.3.664,2.438,2.438,0,0,1,1.92.47,1.573,1.573,0,0,0,1.294.265,8.268,8.268,0,0,1,3.468.282,3.58,3.58,0,0,0,2.722.045.966.966,0,0,1,.612-.038,5.117,5.117,0,0,0,3.134-.434,3.5,3.5,0,0,0,2.279.455,9.574,9.574,0,0,1,2.279-.37,9.732,9.732,0,0,0,3.324-.672,4.181,4.181,0,0,1,2.276-.162,11.8,11.8,0,0,0,3.516.208,13.368,13.368,0,0,1,3.979-.022,2.722,2.722,0,0,0,2.86-.875.619.619,0,0,1,.568-.177,4.434,4.434,0,0,1,1.587.6,4.674,4.674,0,0,0,1.555.7,6.942,6.942,0,0,0,2.609.094,3.151,3.151,0,0,1,1.162.138l-.006.111c.354.44.638.789.917,1.143a2.645,2.645,0,0,0,.361.475c.583.443,1.182.859,1.876,1.357.093.152-.018.566.271.773.658.471.779,1.359,1.161,2.045a1.089,1.089,0,0,1,.707.133.615.615,0,0,0,.557.059,4.641,4.641,0,0,1,.461-.144,1,1,0,0,1,.913.164,3.4,3.4,0,0,0,.525.273,1.344,1.344,0,0,1,.28.162.388.388,0,0,0,.389.128.249.249,0,0,1,.194.061c.077.059.162.036.242.038.052,0,.1.042.158.025a2.272,2.272,0,0,1,1.358.036,3.415,3.415,0,0,0,1.247.234,2.648,2.648,0,0,1,.367.046,1.456,1.456,0,0,0,.47.023.573.573,0,0,1,.546.114c.189.149.41.241.6.383a1.67,1.67,0,0,0,1,.36.677.677,0,0,1,.488.2,1.888,1.888,0,0,0,.813.427c.308.084.606.212.909.323a.607.607,0,0,0,.463.041,1.375,1.375,0,0,1,.289-.066c.272-.255.483-.471.71-.661a1.129,1.129,0,0,1,.8-.258c.438.022.875.08,1.313.12a.382.382,0,0,0,.068-.007.541.541,0,0,0,.089-.011c.192-.026.385-.046.576-.085a.958.958,0,0,0,.348-.122,1.6,1.6,0,0,1,.963-.275,2.642,2.642,0,0,0,1.4-.225c.091-.05.211-.023.312-.056a4.056,4.056,0,0,0,.8-.3c.139-.082.2-.346.332-.449.155-.119.394-.1.534-.228.346-.325.75-.536,1.106-.827a2.094,2.094,0,0,1,1.333-.494c.407-.008.813,0,1.219-.021a.78.78,0,0,0,.5-.139,10.975,10.975,0,0,0,1.138-.994.485.485,0,0,1,.573-.217.53.53,0,0,0,.509-.078,6.557,6.557,0,0,0,.891-.636,4.889,4.889,0,0,1,1.26-.882,1.523,1.523,0,0,0,.808-.654,2.625,2.625,0,0,1,.659-.775,3.018,3.018,0,0,0,.739-.864c.092-.173.308-.251.453-.394s.139-.453.368-.579a.841.841,0,0,0,.386-.81c0-.566.13-.743.605-.8a1.587,1.587,0,0,0,.817-.4c.158-.127.325-.239.49-.356.059-.042.145-.057.18-.117a1.063,1.063,0,0,1,.671-.45.586.586,0,0,0,.414-.508c.029-.179.085-.353.124-.508l.028-.025c.317-.277.619-.536.913-.8a.738.738,0,0,0,.2-.269,2.116,2.116,0,0,1,.5-.854.652.652,0,0,0,.082-.157,6.236,6.236,0,0,1,.476-.813,3.155,3.155,0,0,0,.431-1.088c.069-.222.112-.47.167-.707a.758.758,0,0,1,.56-.657,1.325,1.325,0,0,0,.642-.413,5.875,5.875,0,0,0,.931-1.084.677.677,0,0,1,.425-.342.853.853,0,0,0,.32-.193,6.16,6.16,0,0,0,1.116-1.925.692.692,0,0,0,.03-.18c.065-.277.119-.558.2-.827a1.147,1.147,0,0,0,.059-.6.822.822,0,0,1,.219-.774,1.338,1.338,0,0,0,.349-.864,1.792,1.792,0,0,1,.364-1.2,1.416,1.416,0,0,1,.05-1.088,5.952,5.952,0,0,0,.341-1.022,4.51,4.51,0,0,0,.177-1.785v-.039a1.9,1.9,0,0,1,.184-1.12c.082-.16.158-.324.225-.492a3.709,3.709,0,0,0,.284-1.735,3.653,3.653,0,0,1-.006-.849,2.148,2.148,0,0,1,.173-.829.562.562,0,0,0,.045-.3c-.014-.224-.041-.449-.076-.671a.878.878,0,0,1,.016-.6c.2-.314.156-.712.307-1.041a1.051,1.051,0,0,0,.027-.425,2.476,2.476,0,0,0-.043-.55.875.875,0,0,1,.053-.6.981.981,0,0,0,.062-.6.472.472,0,0,1-.01-.239,1.186,1.186,0,0,0-.009-.838.758.758,0,0,1,.051-.644.326.326,0,0,0,.026-.177c-.024-.513-.036-1.029-.085-1.539a1.852,1.852,0,0,0-.343-1.14c-.191-.2-.163-.436-.226-.662-.068-.251-.241-.464-.2-.753q.024-.151.063-.3c.023-.088.057-.173.086-.261-.228-.1-.424-.177-.625-.26.039-.29.062-.574-.168-.694a1.611,1.611,0,0,1-.54-.653c.037-.14.073-.272.1-.38-.056-.136-.1-.246-.145-.358-.122-.307-.058-.711-.358-.924a.075.075,0,0,1-.012-.058.445.445,0,0,0-.127-.438.336.336,0,0,1-.066-.227,10.561,10.561,0,0,1,.1-1.165,1.192,1.192,0,0,0,.281-.146c.08-.078.159-.158.241-.235a2.561,2.561,0,0,1-.342-.741,2.261,2.261,0,0,0-.507-.9,3.2,3.2,0,0,1-.5-.694,4.923,4.923,0,0,0-.579-.972c-.007-.011-.007-.029-.015-.04a.922.922,0,0,1-.168-.446,5.423,5.423,0,0,0-.78-2.359,3.162,3.162,0,0,1-.512-1.221,1.061,1.061,0,0,0-.223-.467,2.664,2.664,0,0,1-.565-1.71,1.375,1.375,0,0,0-.185-.482c-.007-.016-.015-.032-.023-.048a1.725,1.725,0,0,1-.2-.519,15.474,15.474,0,0,1-.172-2.909,2.76,2.76,0,0,0-.027-.406,1.8,1.8,0,0,1-.675-1.247,1,1,0,0,0-.18-.4.956.956,0,0,1-.067-.154,1.733,1.733,0,0,1-.144-.613,5.909,5.909,0,0,0-.61-2.432,1.524,1.524,0,0,1-.164-.5q-.159-1.216-.286-2.437a1.606,1.606,0,0,1,.21-1.041,7.188,7.188,0,0,0,.424-.994c-.157-.357-.3-.717-.472-1.056a1.337,1.337,0,0,1-.166-.692c.049-.94-.12-1.878-.02-2.819a2.416,2.416,0,0,1,.156-1.832,6.464,6.464,0,0,0-.165-.978,1.364,1.364,0,0,1,.2-1.43,1.076,1.076,0,0,0,.2-1.1,1.077,1.077,0,0,1,0-.3,1.87,1.87,0,0,0,.442-1.11.5.5,0,0,1,.12-.326,1.617,1.617,0,0,0,.338-1.348,1.854,1.854,0,0,1,.245-1.13,1.2,1.2,0,0,0,.143-.761,6.593,6.593,0,0,1,.2-2.051,4.01,4.01,0,0,0,.146-.876,2.036,2.036,0,0,0-.069-.737.8.8,0,0,1,0-.364,4.047,4.047,0,0,0-.122-1.868,2.7,2.7,0,0,0,.247-1.342,7.558,7.558,0,0,1-.112-1.36,7.63,7.63,0,0,0-.221-1.985,3.356,3.356,0,0,1-.021-1.354c.067-.479.126-.966.15-1.45a4.749,4.749,0,0,0,.015-.631,10.9,10.9,0,0,1,.076-2.36,2.024,2.024,0,0,0-.319-1.715.468.468,0,0,1-.065-.34,3.224,3.224,0,0,1,.293-.929,3.287,3.287,0,0,0,.335-.908,5.565,5.565,0,0,0,.1-1.545,1.885,1.885,0,0,1,.43-1.328,2.49,2.49,0,0,0,.419-.76c.243-.6.533-1.182.808-1.769a2.81,2.81,0,0,1,.666-.889,2.991,2.991,0,0,0,.546-.647c.234-.391.6-.583.879-.9.3-.336.427-.839.79-1.123.106-.082.247-.2.268-.32a1,1,0,0,1,.748-.8,5.292,5.292,0,0,1,.416-.981,3.574,3.574,0,0,0,.527-1.309c.062-.262.177-.508.239-.771a1.219,1.219,0,0,1,.078-.163,4.675,4.675,0,0,1,1.035-.724,1.523,1.523,0,0,0,.808-.654,1.813,1.813,0,0,1,.295-.347,1.669,1.669,0,0,0,.876-.994c.02-.082.1-.141.155-.214.02-.033.053-.049.072-.084.092-.174.309-.252.452-.4a.743.743,0,0,0,.145-.275.53.53,0,0,1,.225-.3.7.7,0,0,0,.316-.437,12.321,12.321,0,0,0,.855-1.166c.015-.026.028-.054.044-.079a1.938,1.938,0,0,0,.592-.331c.158-.128.325-.24.49-.356.059-.042.145-.058.181-.117a.947.947,0,0,1,.539-.4l.149.021.25-.247h0a.657.657,0,0,0,.143-.332c.03-.18.086-.353.124-.508.327-.287.637-.553.941-.828a.754.754,0,0,0,.206-.269,2.116,2.116,0,0,1,.5-.854c.039-.036.053-.106.082-.157a6.236,6.236,0,0,1,.476-.813,3.172,3.172,0,0,0,.431-1.089c.069-.221.112-.469.167-.706a.76.76,0,0,1,.56-.658,1.326,1.326,0,0,0,.643-.412,5.87,5.87,0,0,0,.93-1.084.682.682,0,0,1,.425-.343.831.831,0,0,0,.32-.192,6.16,6.16,0,0,0,1.116-1.925.789.789,0,0,0,.031-.18c.064-.277.119-.559.2-.828a1.136,1.136,0,0,0,.059-.6.821.821,0,0,1,.219-.774,1.324,1.324,0,0,0,.348-.865,1.792,1.792,0,0,1,.364-1.2,1.426,1.426,0,0,1,.051-1.088,5.962,5.962,0,0,0,.341-1.023,4.482,4.482,0,0,0,.177-1.823,1.91,1.91,0,0,1,.147-1.009c.016-.036.018-.076.036-.112.082-.159.158-.323.225-.491a3.709,3.709,0,0,0,.284-1.735,3.653,3.653,0,0,1-.006-.849,2.195,2.195,0,0,1,.173-.83.573.573,0,0,0,.046-.3c-.015-.225-.042-.449-.076-.671a.872.872,0,0,1,.015-.6c.2-.314.156-.712.307-1.041a1.051,1.051,0,0,0,.027-.425,2.476,2.476,0,0,0-.043-.55.867.867,0,0,1,.054-.595,1,1,0,0,0,.062-.6.476.476,0,0,1-.011-.24A1.183,1.183,0,0,0,821.37,162.519Z"/><path class="cls-2" d="M201.5,51.181h1.592V43.339h-1.779V42.333l1.756-.679V40.39c0-2.809,1.684-4.307,3.978-4.307a3.635,3.635,0,0,1,3.856,3.4c0,.053,0,.105.006.158v.211h-3.183V38.471c0-.749-.327-1.288-1.031-1.288-.771,0-1.287.75-1.052,1.85l.561,2.621h2.927v1.522h-2.669v8H208.8V52.3h-7.3Z"/><path class="cls-2" d="M215.889,52.585c-3.465,0-5.548-2.059-5.548-5.617a5.34,5.34,0,0,1,5.1-5.57c.149-.007.3-.007.448,0,3.674,0,5.1,1.755,5.1,4.588h-7.466c-.024,2.34,1.147,3.885,3.464,3.885a2.794,2.794,0,0,0,2.973-2.364h.937C221.014,50.479,219.118,52.585,215.889,52.585Zm1.545-7.56c0-1.639-.7-2.6-1.9-2.6-1.053,0-1.943.889-1.99,2.6Z"/><path class="cls-2" d="M228.056,46.265V51.2h3.136v1.124h-8.379V51.2h1.873V43.456l-2.155,1.218-.513-1.077,6.038-2.622V45.61c1.358-3.3,2.294-4.33,4.307-4.33v3.464h-1.451A3.343,3.343,0,0,0,228.056,46.265Z"/><path class="cls-2" d="M254.924,51.2v1.124h-6.3V51.2h1.4V45.282a1.67,1.67,0,0,0-1.58-1.755,1.7,1.7,0,0,0-.175,0,3.3,3.3,0,0,0-1.918.678l-.071.071a2.467,2.467,0,0,1,.024.421v6.5h1.521v1.124h-6.3V51.2h1.405V45.282a1.672,1.672,0,0,0-1.756-1.755,3.318,3.318,0,0,0-2.082.819V51.2h1.5v1.124h-6.414V51.2h1.545V43.456l-2.155,1.218-.513-1.077,6.039-2.622v2.716A4.816,4.816,0,0,1,242.94,41.4a3.112,3.112,0,0,1,3.23,2.294,4.918,4.918,0,0,1,3.861-2.294,3.162,3.162,0,0,1,3.367,2.945,3.234,3.234,0,0,1,0,.355v6.5Z"/><path class="cls-2" d="M261.752,52.585c-3.465,0-5.547-2.059-5.547-5.617a5.34,5.34,0,0,1,5.1-5.57c.149-.007.3-.007.447,0,3.675,0,5.1,1.755,5.1,4.588h-7.467c-.024,2.34,1.147,3.885,3.464,3.885a2.793,2.793,0,0,0,2.972-2.364h.938C266.878,50.479,264.983,52.585,261.752,52.585Zm1.545-7.56c0-1.639-.7-2.6-1.9-2.6-1.052,0-1.942.889-1.989,2.6Z"/><path class="cls-2" d="M282.627,51.2v1.124h-6.3V51.2h1.4V45.282a1.669,1.669,0,0,0-1.578-1.755,1.722,1.722,0,0,0-.176,0,3.282,3.282,0,0,0-2.107.842V51.2h1.475v1.124h-6.485V51.2H270.5V43.456l-2.153,1.218-.515-1.077,6.039-2.622v2.739a4.845,4.845,0,0,1,3.861-2.317,3.164,3.164,0,0,1,3.368,2.946,3.216,3.216,0,0,1,0,.354v6.5Z"/><path class="cls-2" d="M285.1,49.308V43.339h-1.545v-.983l2.668-1.076-.258-4.682h2.3l-.446,5.056H292.5v1.615h-4.025v5.618c0,1.264.771,1.592,1.684,1.592a1.444,1.444,0,0,0,1.512-1.373,1.477,1.477,0,0,0-.012-.266l-.186-2.411h1.567L292.922,49c-.094,2.271-1.5,3.581-3.934,3.581C286.7,52.585,285.1,51.906,285.1,49.308Z"/><path class="cls-2" d="M300.174,52.585c-3.465,0-5.547-2.059-5.547-5.617a5.34,5.34,0,0,1,5.1-5.57c.149-.007.3-.007.447,0,3.675,0,5.1,1.755,5.1,4.588H297.81c-.024,2.34,1.147,3.885,3.464,3.885a2.793,2.793,0,0,0,2.972-2.364h.938A4.634,4.634,0,0,1,300.174,52.585Zm1.545-7.56c0-1.639-.7-2.6-1.9-2.6-1.052,0-1.942.889-1.989,2.6Z"/><path class="cls-2" d="M315.643,49.94a5.028,5.028,0,0,1-4.238,2.645c-2.5,0-4.423-1.943-4.423-5.173,0-3.675,1.989-6.015,5.43-6.015a3.745,3.745,0,0,1,3,1.17V38l-2.154,1.217-.515-1.077,6.04-2.621v14.91l2.153-1.217.515,1.076-6.039,2.622Zm-.235-.491V44.018a2.493,2.493,0,0,0-2.154-1.311c-1.5,0-2.621,1.335-2.621,3.769,0,2.154,1.053,3.792,2.832,3.792a2.937,2.937,0,0,0,1.943-.819Z"/><path class="cls-2" d="M213.293,94.981c0,2.037-1.873,3.792-6.133,3.792-4.166,0-5.734-1.053-5.734-2.458,0-.8.538-1.357,2.269-1.708v-.094a1.874,1.874,0,0,1-1.754-1.872c0-1.077.749-1.826,2.036-2.575a3.185,3.185,0,0,1-2.224-2.95c0-2.527,2.13-4.119,4.938-4.119a6.462,6.462,0,0,1,3.02.725V83c0-1.639.983-2.271,1.99-2.271,1.311,0,2.083.843,2.083,2.692h-2.012c0-.772-.211-1.17-.7-1.17-.374,0-.677.234-.677.866V84.17a2.914,2.914,0,0,1,1.17,2.247c0,2.739-2.037,4.12-4.916,4.12a8.037,8.037,0,0,1-2.082-.258,3,3,0,0,0-.235.983c0,.632.374.96,1.076.89l3.98-.374C211.889,91.54,213.293,92.921,213.293,94.981Zm-2.06.96a1.3,1.3,0,0,0-1.352-1.246c-.025,0-.051,0-.076.005h-5.453a1.556,1.556,0,0,0-.493,1.217c0,.867.867,1.686,3.606,1.686C210.438,97.6,211.233,96.76,211.233,95.941Zm-6.157-9.48c0,1.615.4,3.043,1.733,3.043.679,0,1.474-.328,1.474-2.364,0-1.686-.561-3.113-1.732-3.113C205.873,84.027,205.076,84.448,205.076,86.461Z"/><path class="cls-2" d="M219.491,87.865V92.8h3.137v1.124h-8.38V92.8h1.873V85.057l-2.154,1.217-.514-1.077,6.038-2.621V87.21c1.359-3.3,2.294-4.33,4.308-4.33v3.464h-1.451A3.341,3.341,0,0,0,219.491,87.865Z"/><path class="cls-2" d="M238.308,87.631l-.211,3.23a3.058,3.058,0,0,1-3.417,3.207c-1.709,0-2.926-.725-2.926-2.2V91.7a4.414,4.414,0,0,1-3.723,2.481,2.666,2.666,0,0,1-2.826-2.495c-.005-.072-.006-.144-.005-.216,0-1.826,1.241-2.668,3.254-3.043l3.3-.632V86.016c0-1.264-.516-1.872-1.5-1.872a1.476,1.476,0,0,0-1.512,1.438,1.522,1.522,0,0,0,.012.224v1.287H225.5c0-2.575,2.13-4.1,5.033-4.1,3.206,0,4.564,1.311,4.564,3.7v4.12c0,.632.3,1.006.936,1.006a.861.861,0,0,0,.959-.8l-.21-3.4Zm-6.554.843-1.686.7a1.735,1.735,0,0,0-1.263,1.522,1.148,1.148,0,0,0,1.074,1.218c.04,0,.081,0,.121,0a2.26,2.26,0,0,0,1.756-.936Z"/><path class="cls-2" d="M238.983,97.415H240.9V85.057l-2.153,1.217-.515-1.077,6.039-2.621v2.738A4.845,4.845,0,0,1,248.251,83c2.528,0,4.447,1.943,4.447,5.173,0,3.675-1.989,6.015-5.477,6.015a4.329,4.329,0,0,1-2.949-1.076v4.306h1.662v1.124h-6.951Zm10.064-8.309c0-2.153-1.053-3.792-2.879-3.792a2.758,2.758,0,0,0-1.9.819v5.431a2.5,2.5,0,0,0,2.177,1.311C247.947,92.875,249.047,91.517,249.047,89.106Z"/><path class="cls-2" d="M259.949,94.185c-3.464,0-5.547-2.059-5.547-5.617a5.34,5.34,0,0,1,5.1-5.567c.148-.007.3-.007.444,0,3.676,0,5.1,1.755,5.1,4.588h-7.467c-.023,2.34,1.147,3.885,3.464,3.885a2.794,2.794,0,0,0,2.973-2.364h.936C265.076,92.079,263.18,94.185,259.949,94.185Zm1.545-7.56c0-1.639-.7-2.6-1.9-2.6-1.054,0-1.943.889-1.99,2.6Z"/><path class="cls-2" d="M272.117,87.865V92.8h3.137v1.124h-8.38V92.8h1.872V85.057l-2.152,1.217-.516-1.077,6.039-2.621V87.21c1.358-3.3,2.294-4.33,4.307-4.33v3.464h-1.451A3.343,3.343,0,0,0,272.117,87.865Z"/><path class="cls-2" d="M286.533,86.882v2.692l-8.17-.14V87.023Z"/><path class="cls-2" d="M199.74,137.26v-.234h2.668v.843c0,1.287.328,1.755.866,1.755.445,0,.773-.4.8-1.03.047-1.381-.608-2.294-.608-3.721v-8.216l-2.153,1.217L200.8,126.8l6.039-2.621V137.26c0,1.849-1.334,3.113-3.534,3.113C201.356,140.373,199.74,139.671,199.74,137.26Zm3.7-16.127c0-1.592.8-2.154,1.778-2.154,1.03,0,1.8.562,1.8,2.154s-.773,2.2-1.8,2.2c-.984,0-1.779-.609-1.779-2.2Z"/><path class="cls-2" d="M218.158,136.207v-2.715a5.02,5.02,0,0,1-3.791,2.294c-2.154,0-3.207-1.218-3.207-3.512v-5.617l-2.153,1.217-.515-1.077,6.039-2.621v7.607a1.635,1.635,0,0,0,1.409,1.835,1.61,1.61,0,0,0,.183.014,3.055,3.055,0,0,0,2.035-.843v-6.132l-2.152,1.217-.516-1.077,6.039-2.621v9.55l2.155-1.218.513,1.077Z"/><path class="cls-2" d="M230.3,124.176V134.4h1.732v1.124h-6.976V134.4h1.873v-7.747l-2.154,1.217-.514-1.077Zm-3.418-3.043c0-1.592.8-2.154,1.779-2.154,1.029,0,1.8.562,1.8,2.154s-.774,2.2-1.8,2.2c-.98,0-1.776-.609-1.776-2.2Z"/><path class="cls-2" d="M238.914,135.786c-3.652,0-5.641-2.271-5.641-5.548a5.454,5.454,0,0,1,5.251-5.648c.177-.006.354,0,.53.007,2.927,0,4.8,1.311,4.915,3.956l-3.486.023c0-1.779-.586-2.856-1.8-2.856-1.24,0-1.99,1.124-2.061,3.043-.094,2.786,1.334,4.354,3.278,4.354a2.829,2.829,0,0,0,3.019-2.2h.913C243.945,133.211,242.565,135.786,238.914,135.786Z"/><path class="cls-2" d="M251.128,135.786c-3.464,0-5.548-2.06-5.548-5.618a5.341,5.341,0,0,1,5.1-5.57c.148-.007.3-.007.446,0,3.675,0,5.1,1.755,5.1,4.588h-7.467c-.024,2.34,1.146,3.885,3.465,3.885a2.793,2.793,0,0,0,2.972-2.364h.936C256.254,133.679,254.358,135.786,251.128,135.786Zm1.545-7.561c0-1.638-.7-2.6-1.9-2.6-1.053,0-1.943.889-1.99,2.6Z"/><path class="cls-2" d="M206.926,171.065V176h3.137v1.124h-8.38V176h1.872v-7.748L201.4,169.47l-.515-1.077,6.039-2.621v4.634c1.357-3.3,2.294-4.33,4.307-4.33v3.464h-1.452A3.343,3.343,0,0,0,206.926,171.065Z"/><path class="cls-2" d="M218.182,177.385c-3.465,0-5.547-2.059-5.547-5.617a5.34,5.34,0,0,1,5.1-5.57c.149-.007.3-.007.447,0,3.675,0,5.1,1.755,5.1,4.588h-7.467c-.023,2.34,1.148,3.885,3.464,3.885a2.794,2.794,0,0,0,2.973-2.364h.937C223.308,175.279,221.412,177.385,218.182,177.385Zm1.545-7.56c0-1.639-.7-2.6-1.9-2.6-1.053,0-1.942.889-1.989,2.6Z"/><path class="cls-2" d="M224.849,180.615h1.919V168.256l-2.153,1.218L224.1,168.4l6.039-2.621v2.738a4.841,4.841,0,0,1,3.978-2.317c2.53,0,4.448,1.943,4.448,5.173,0,3.675-1.989,6.015-5.477,6.015a4.323,4.323,0,0,1-2.949-1.077v4.307H231.8v1.124h-6.952Zm10.065-8.309c0-2.154-1.054-3.792-2.879-3.792a2.758,2.758,0,0,0-1.9.819v5.431a2.5,2.5,0,0,0,2.177,1.311C233.814,176.075,234.914,174.717,234.914,172.306Z"/><path class="cls-2" d="M245.652,171.065V176h3.137v1.124h-8.38V176h1.872v-7.748l-2.152,1.218-.516-1.077,6.039-2.621v4.634c1.358-3.3,2.294-4.33,4.307-4.33v3.464h-1.451A3.344,3.344,0,0,0,245.652,171.065Z"/><path class="cls-2" d="M263.3,171.463c0,3.98-2.739,5.922-6.274,5.922-3.488,0-5.664-2.106-5.664-5.36,0-4.026,2.926-5.828,6.249-5.828C261.215,166.2,263.3,168.256,263.3,171.463Zm-3.7,1.264c0-3.206-.725-5.453-2.621-5.453-1.217,0-1.92,1.263-1.92,3.557,0,3.184.656,5.454,2.575,5.454,1.194,0,1.966-1.311,1.966-3.558Z"/><path class="cls-2" d="M273.664,174.74a5.025,5.025,0,0,1-4.237,2.645c-2.5,0-4.424-1.942-4.424-5.173,0-3.675,1.989-6.015,5.431-6.015a3.748,3.748,0,0,1,3,1.17V162.8l-2.155,1.217-.514-1.077,6.039-2.621v14.91l2.153-1.217.516,1.076-6.039,2.622Zm-.234-.491v-5.431a2.5,2.5,0,0,0-2.155-1.311c-1.5,0-2.621,1.335-2.621,3.769,0,2.154,1.053,3.792,2.832,3.792a2.939,2.939,0,0,0,1.944-.819Z"/><path class="cls-2" d="M288.9,177.807v-2.716a5.023,5.023,0,0,1-3.791,2.294c-2.155,0-3.207-1.217-3.207-3.511v-5.618l-2.155,1.218-.514-1.077,6.039-2.621v7.607a1.635,1.635,0,0,0,1.409,1.835,1.575,1.575,0,0,0,.182.014,3.062,3.062,0,0,0,2.037-.843v-6.133l-2.154,1.218-.514-1.077,6.039-2.621v9.55l2.153-1.218.515,1.077Z"/><path class="cls-2" d="M301.3,177.385c-3.651,0-5.642-2.27-5.642-5.547a5.454,5.454,0,0,1,5.253-5.648c.177-.006.353,0,.529.007,2.925,0,4.8,1.31,4.916,3.955l-3.489.024c0-1.779-.584-2.856-1.8-2.856-1.241,0-1.99,1.124-2.06,3.043-.094,2.786,1.334,4.354,3.277,4.354a2.829,2.829,0,0,0,3.02-2.2h.912C306.33,174.81,304.949,177.385,301.3,177.385Z"/><path class="cls-2" d="M309.158,174.108V168.14h-1.545v-.984l2.669-1.076-.258-4.682h2.294l-.445,5.056h4.682v1.615h-4.026v5.618c0,1.264.772,1.592,1.686,1.592a1.444,1.444,0,0,0,1.512-1.373,1.477,1.477,0,0,0-.012-.266l-.188-2.411H317.1l-.117,2.575c-.094,2.271-1.5,3.581-3.933,3.581C310.75,177.385,309.158,176.706,309.158,174.108Z"/><path class="cls-2" d="M324.066,165.776V176H325.8v1.124h-6.975V176H320.7v-7.748l-2.154,1.218-.514-1.077Zm-3.417-3.043c0-1.592.794-2.154,1.779-2.154,1.029,0,1.8.562,1.8,2.154s-.772,2.2-1.8,2.2c-.985,0-1.779-.609-1.779-2.2Z"/><path class="cls-2" d="M339.348,167.6h-1.194l-4.775,9.784h-1.428l-4.728-9.784h-1.194v-1.123h6.459V167.6h-1.545l2.928,6.133,2.27-4.658V167.6h-1.358v-1.123h4.565Z"/><path class="cls-2" d="M345.242,177.385c-3.465,0-5.547-2.059-5.547-5.617a5.34,5.34,0,0,1,5.1-5.57c.149-.007.3-.007.447,0,3.676,0,5.1,1.755,5.1,4.588h-7.467c-.023,2.34,1.146,3.885,3.463,3.885a2.8,2.8,0,0,0,2.973-2.364h.937C350.369,175.279,348.473,177.385,345.242,177.385Zm1.545-7.56c0-1.639-.7-2.6-1.9-2.6-1.053,0-1.942.889-1.989,2.6Z"/><path class="cls-2" d="M201.426,222.215h1.919V209.857l-2.154,1.217L200.676,210l6.039-2.621v2.738a4.847,4.847,0,0,1,3.979-2.317c2.529,0,4.448,1.943,4.448,5.173,0,3.675-1.99,6.015-5.478,6.015a4.329,4.329,0,0,1-2.949-1.076v4.306h1.662v1.124h-6.951Zm10.064-8.309c0-2.153-1.052-3.792-2.879-3.792a2.762,2.762,0,0,0-1.9.819v5.431a2.5,2.5,0,0,0,2.178,1.311c1.5,0,2.6-1.358,2.6-3.769Z"/><path class="cls-2" d="M229.953,212.432l-.211,3.23a3.058,3.058,0,0,1-3.417,3.206c-1.708,0-2.926-.725-2.926-2.2V216.5a4.408,4.408,0,0,1-3.721,2.481,2.666,2.666,0,0,1-2.827-2.494c0-.074-.006-.147,0-.221,0-1.826,1.24-2.668,3.254-3.043l3.3-.632v-1.779c0-1.264-.514-1.872-1.5-1.872a1.475,1.475,0,0,0-1.511,1.438,1.4,1.4,0,0,0,.011.224v1.287h-3.25c0-2.575,2.129-4.1,5.032-4.1,3.207,0,4.564,1.311,4.564,3.7v4.12c0,.632.3,1.006.938,1.006a.862.862,0,0,0,.959-.8l-.211-3.393Zm-6.554.842-1.684.7a1.733,1.733,0,0,0-1.265,1.522,1.149,1.149,0,0,0,1.078,1.216.992.992,0,0,0,.122,0,2.259,2.259,0,0,0,1.754-.936Z"/><path class="cls-2" d="M236.269,212.665V217.6h3.136v1.124h-8.38V217.6H232.9v-7.747l-2.155,1.217-.514-1.07,6.038-2.621v4.634c1.358-3.3,2.294-4.33,4.307-4.33v3.464h-1.451A3.34,3.34,0,0,0,236.269,212.665Z"/><path class="cls-2" d="M243.171,215.708V209.74h-1.545v-.984l2.669-1.076-.258-4.68h2.293l-.444,5.056h4.681v1.615h-4.026v5.618c0,1.264.774,1.592,1.686,1.592a1.444,1.444,0,0,0,1.512-1.373,1.477,1.477,0,0,0-.012-.266l-.188-2.411h1.569l-.118,2.575c-.093,2.271-1.5,3.581-3.931,3.581C244.762,218.985,243.171,218.307,243.171,215.708Z"/><path class="cls-2" d="M254.66,217.23v1.5h-1.638v-4h1.591v1.592a4.759,4.759,0,0,0,3.418,1.358c1.287,0,1.871-.539,1.871-1.241,0-.749-.327-1.17-3.112-1.826-3.183-.749-3.839-1.8-3.839-3.558,0-2.106,1.8-3.253,4.1-3.253a5.21,5.21,0,0,1,3.7,1.381v-1.1h1.686v3.581h-1.6v-1.428a4.809,4.809,0,0,0-3.09-1.24c-1.24,0-1.732.515-1.732,1.1,0,.655.328,1.147,2.48,1.662,3.676.889,4.424,1.638,4.4,3.721-.023,2.271-1.755,3.511-4.166,3.511A5.124,5.124,0,0,1,254.66,217.23Z"/><path class="cls-2" d="M213.481,254.663c0,3.979-2.74,5.922-6.274,5.922-3.488,0-5.664-2.106-5.664-5.36,0-4.026,2.926-5.828,6.249-5.828C211.4,249.4,213.481,251.456,213.481,254.663Zm-3.7,1.264c0-3.206-.724-5.453-2.621-5.453-1.217,0-1.92,1.263-1.92,3.557,0,3.184.657,5.454,2.576,5.454C209.01,259.485,209.781,258.174,209.781,255.927Z"/><path class="cls-2" d="M215.114,259.181h1.592v-7.842h-1.779v-1.006l1.756-.679V248.39c0-2.809,1.684-4.307,3.979-4.307a3.635,3.635,0,0,1,3.856,3.4c0,.053,0,.1.006.158v.211H221.34v-1.381c0-.749-.327-1.288-1.029-1.288-.773,0-1.287.75-1.053,1.85l.56,2.621h2.926v1.522h-2.668v8h2.341V260.3h-7.3Z"/><path class="cls-2" d="M203.508,300.43v1.5H201.87v-4h1.592v1.592a4.761,4.761,0,0,0,3.417,1.358c1.287,0,1.873-.539,1.873-1.241,0-.749-.328-1.17-3.113-1.826-3.184-.749-3.839-1.8-3.839-3.558,0-2.106,1.8-3.253,4.1-3.253a5.2,5.2,0,0,1,3.7,1.381v-1.1h1.685v3.581h-1.591v-1.428a4.809,4.809,0,0,0-3.09-1.24c-1.24,0-1.732.514-1.732,1.1,0,.655.327,1.147,2.482,1.662,3.674.889,4.424,1.638,4.4,3.721-.023,2.271-1.756,3.511-4.166,3.511A5.127,5.127,0,0,1,203.508,300.43Z"/><path class="cls-2" d="M219.07,302.185c-3.464,0-5.546-2.059-5.546-5.617a5.339,5.339,0,0,1,5.1-5.567c.148-.007.3-.007.445,0,3.675,0,5.1,1.755,5.1,4.588H216.7c-.023,2.34,1.148,3.885,3.464,3.885a2.794,2.794,0,0,0,2.973-2.364h.937C224.2,300.079,222.3,302.185,219.07,302.185Zm1.545-7.56c0-1.639-.7-2.6-1.9-2.6-1.053,0-1.943.889-1.989,2.6Z"/><path class="cls-2" d="M231.4,302.185c-3.464,0-5.547-2.059-5.547-5.617a5.34,5.34,0,0,1,5.1-5.567c.148-.007.3-.007.444,0,3.674,0,5.1,1.755,5.1,4.588h-7.467c-.023,2.34,1.148,3.885,3.465,3.885a2.794,2.794,0,0,0,2.973-2.364h.936C236.527,300.079,234.632,302.185,231.4,302.185Zm1.545-7.56c0-1.639-.7-2.6-1.9-2.6-1.053,0-1.943.889-1.99,2.6Z"/><path class="cls-2" d="M246.87,299.54a5.023,5.023,0,0,1-4.237,2.645c-2.5,0-4.424-1.942-4.424-5.173,0-3.674,1.99-6.015,5.431-6.015a3.745,3.745,0,0,1,3,1.17V287.6l-2.153,1.217-.516-1.077,6.039-2.621v14.91l2.154-1.217.515,1.076-6.039,2.622Zm-.234-.491v-5.431a2.493,2.493,0,0,0-2.153-1.31c-1.5,0-2.622,1.334-2.622,3.768,0,2.154,1.053,3.792,2.832,3.792A2.937,2.937,0,0,0,246.636,299.049Z"/><path class="cls-2" d="M258.66,305.415h1.92V293.057l-2.153,1.217-.515-1.077,6.039-2.621v2.738A4.84,4.84,0,0,1,267.93,291c2.528,0,4.447,1.943,4.447,5.173,0,3.675-1.989,6.015-5.477,6.015a4.329,4.329,0,0,1-2.949-1.076v4.306h1.662v1.124H258.66Zm10.066-8.309c0-2.153-1.054-3.792-2.879-3.792a2.758,2.758,0,0,0-1.9.819v5.431a2.5,2.5,0,0,0,2.176,1.311c1.5,0,2.6-1.358,2.6-3.769Z"/><path class="cls-2" d="M278.9,285.122V300.8h1.663v1.124h-6.952V300.8h1.919V287.6l-2.153,1.217-.516-1.077Z"/><path class="cls-2" d="M294.981,295.631l-.211,3.23a3.058,3.058,0,0,1-3.417,3.207c-1.708,0-2.926-.725-2.926-2.2V299.7a4.412,4.412,0,0,1-3.722,2.481,2.666,2.666,0,0,1-2.827-2.494c0-.074-.006-.147,0-.221,0-1.826,1.24-2.668,3.254-3.043l3.3-.632v-1.779c0-1.264-.515-1.872-1.5-1.872a1.476,1.476,0,0,0-1.512,1.438,1.522,1.522,0,0,0,.012.224v1.287h-3.253c0-2.575,2.129-4.1,5.031-4.1,3.207,0,4.565,1.311,4.565,3.7v4.12c0,.632.3,1.006.937,1.006a.862.862,0,0,0,.959-.8l-.211-3.4Zm-6.554.843-1.685.7a1.735,1.735,0,0,0-1.264,1.522,1.148,1.148,0,0,0,1.076,1.216,1.161,1.161,0,0,0,.118,0,2.259,2.259,0,0,0,1.755-.936Z"/><path class="cls-2" d="M310,300.8v1.124h-6.3V300.8h1.4v-5.922a1.67,1.67,0,0,0-1.58-1.755,1.7,1.7,0,0,0-.175,0,3.28,3.28,0,0,0-2.106.842V300.8h1.475v1.124H296.24V300.8h1.639v-7.747l-2.154,1.217-.514-1.077,6.039-2.621v2.738a4.847,4.847,0,0,1,3.861-2.31,3.163,3.163,0,0,1,3.368,2.946,3.216,3.216,0,0,1,0,.354v6.5Z"/><path class="cls-2" d="M312.481,298.908V292.94h-1.545v-.984l2.668-1.076-.258-4.682h2.294l-.445,5.056h4.682v1.615h-4.026v5.618c0,1.264.772,1.592,1.684,1.592a1.444,1.444,0,0,0,1.512-1.373,1.477,1.477,0,0,0-.012-.266l-.187-2.411h1.568L320.3,298.6c-.094,2.271-1.5,3.581-3.932,3.581C314.071,302.185,312.481,301.506,312.481,298.908Z"/><path class="cls-2" d="M323.969,300.43v1.5H322.33v-4h1.592v1.592a4.763,4.763,0,0,0,3.418,1.358c1.287,0,1.873-.539,1.873-1.241,0-.749-.328-1.17-3.113-1.826-3.184-.749-3.838-1.8-3.838-3.558,0-2.106,1.8-3.253,4.1-3.253a5.2,5.2,0,0,1,3.7,1.381v-1.1h1.685v3.581h-1.591v-1.428a4.807,4.807,0,0,0-3.09-1.24c-1.241,0-1.733.514-1.733,1.1,0,.655.328,1.147,2.483,1.662,3.674.889,4.424,1.638,4.4,3.721-.023,2.271-1.756,3.511-4.166,3.511A5.129,5.129,0,0,1,323.969,300.43Z"/><path class="cls-2" d="M167.941,35.428v6.3h-1.779V38.752l-1.709-1.264h-3.3V51.157h2.178v1.171h-8.1V51.157h2.154V37.488H153.1l-1.428.655v3.581H149.9v-6.3h1.778v.936h14.489v-.936Z"/><path class="cls-2" d="M183.149,51.2v1.124h-6.295V51.2h1.4V45.282a1.672,1.672,0,0,0-1.585-1.755,1.626,1.626,0,0,0-.171,0,3.282,3.282,0,0,0-2.107.842V51.2h1.474v1.124h-6.482V51.2h1.637V38l-2.153,1.217-.515-1.077,6.039-2.621v8.192a4.849,4.849,0,0,1,3.863-2.317,3.167,3.167,0,0,1,3.37,3.3V51.2Z"/><path class="cls-2" d="M189.981,52.585c-3.465,0-5.548-2.059-5.548-5.617a5.34,5.34,0,0,1,5.1-5.57c.149-.007.3-.007.448,0,3.673,0,5.1,1.755,5.1,4.588h-7.467c-.023,2.34,1.148,3.885,3.465,3.885a2.794,2.794,0,0,0,2.973-2.364h.936C195.106,50.479,193.21,52.585,189.981,52.585Zm1.544-7.56c0-1.639-.7-2.6-1.9-2.6-1.053,0-1.943.889-1.99,2.6Z"/><path class="cls-2" d="M88.733,170.831l-.211,3.23a3.06,3.06,0,0,1-3.418,3.207c-1.709,0-2.926-.725-2.926-2.2V174.9a4.413,4.413,0,0,1-3.722,2.481,2.666,2.666,0,0,1-2.827-2.494c-.005-.074-.006-.147-.005-.221,0-1.826,1.24-2.668,3.253-3.043l3.3-.632v-1.779c0-1.264-.515-1.872-1.5-1.872a1.475,1.475,0,0,0-1.511,1.438,1.4,1.4,0,0,0,.011.224v1.287H75.928c0-2.575,2.131-4.1,5.033-4.1,3.207,0,4.564,1.31,4.564,3.7v4.12c0,.632.3,1.006.936,1.006a.862.862,0,0,0,.96-.8l-.21-3.394Zm-6.555.843-1.686.7a1.735,1.735,0,0,0-1.263,1.522,1.15,1.15,0,0,0,1.078,1.216,1.1,1.1,0,0,0,.115,0,2.26,2.26,0,0,0,1.756-.936Z"/><path class="cls-2" d="M110.823,176v1.124h-6.3V176h1.405v-5.922a1.672,1.672,0,0,0-1.585-1.755,1.626,1.626,0,0,0-.171,0,3.3,3.3,0,0,0-1.92.679l-.07.07a2.572,2.572,0,0,1,.023.421V176h1.522v1.124h-6.3V176h1.4v-5.922a1.671,1.671,0,0,0-1.583-1.755,1.645,1.645,0,0,0-.172,0,3.325,3.325,0,0,0-2.084.819V176h1.5v1.124h-6.4V176h1.544v-7.748l-2.152,1.218-.516-1.077L95,165.776v2.715a4.821,4.821,0,0,1,3.839-2.294,3.109,3.109,0,0,1,3.23,2.294,4.921,4.921,0,0,1,3.863-2.294,3.163,3.163,0,0,1,3.366,2.946,3.216,3.216,0,0,1,0,.354V176Z"/><path class="cls-2" d="M124.041,171.463c0,3.98-2.738,5.922-6.272,5.922-3.488,0-5.665-2.106-5.665-5.36,0-4.026,2.925-5.828,6.25-5.828C121.958,166.2,124.041,168.256,124.041,171.463Zm-3.7,1.264c0-3.206-.727-5.453-2.622-5.453-1.218,0-1.919,1.263-1.919,3.557,0,3.184.654,5.454,2.574,5.454,1.2,0,1.97-1.311,1.97-3.558Z"/><path class="cls-2" d="M139.814,176v1.124h-6.3V176h1.4v-5.922a1.672,1.672,0,0,0-1.585-1.755,1.626,1.626,0,0,0-.171,0,3.283,3.283,0,0,0-2.107.843V176h1.475v1.124h-6.483V176h1.639v-7.748l-2.155,1.218-.514-1.077,6.038-2.621v2.738a4.849,4.849,0,0,1,3.863-2.317,3.163,3.163,0,0,1,3.366,2.946,3.216,3.216,0,0,1,0,.354V176Z"/><path class="cls-2" d="M152.846,178.181c0,2.036-1.872,3.792-6.132,3.792-4.167,0-5.735-1.053-5.735-2.458,0-.8.539-1.357,2.271-1.708v-.094a1.875,1.875,0,0,1-1.756-1.873c0-1.076.749-1.825,2.036-2.574a3.184,3.184,0,0,1-2.223-2.95c0-2.528,2.131-4.119,4.939-4.119a6.474,6.474,0,0,1,3.02.725V166.2c0-1.639.982-2.271,1.989-2.271,1.311,0,2.083.843,2.083,2.692h-2.014c0-.772-.21-1.17-.7-1.17-.375,0-.68.234-.68.866v1.053a2.9,2.9,0,0,1,1.171,2.247c0,2.739-2.036,4.12-4.915,4.12a8.047,8.047,0,0,1-2.084-.258,3,3,0,0,0-.234.983c0,.632.375.96,1.077.89l3.98-.375C151.441,174.74,152.846,176.121,152.846,178.181Zm-2.059.96a1.3,1.3,0,0,0-1.352-1.246c-.025,0-.051,0-.076,0H143.9a1.563,1.563,0,0,0-.49,1.217c0,.867.865,1.686,3.6,1.686,2.98,0,3.777-.843,3.777-1.662Zm-6.156-9.48c0,1.615.4,3.043,1.732,3.043.678,0,1.475-.328,1.475-2.364,0-1.686-.563-3.113-1.732-3.113-.68,0-1.475.421-1.475,2.434Z"/><path class="cls-2" d="M160.237,174.108V168.14h-1.545v-.984l2.669-1.076-.261-4.68h2.3l-.445,5.056h4.682v1.615h-4.026v5.618c0,1.264.773,1.592,1.685,1.592a1.444,1.444,0,0,0,1.512-1.373,1.477,1.477,0,0,0-.012-.266l-.187-2.411h1.568l-.117,2.575c-.094,2.271-1.5,3.581-3.932,3.581C161.828,177.385,160.237,176.706,160.237,174.108Z"/><path class="cls-2" d="M183.149,176v1.124h-6.3V176h1.4v-5.922a1.671,1.671,0,0,0-1.583-1.755,1.645,1.645,0,0,0-.172,0,3.278,3.278,0,0,0-2.107.843V176h1.474v1.124h-6.483V176h1.638V162.8l-2.153,1.217-.515-1.077,6.039-2.621v8.192a4.847,4.847,0,0,1,3.862-2.317,3.163,3.163,0,0,1,3.366,2.946,3.216,3.216,0,0,1,0,.354V176Z"/><path class="cls-2" d="M189.98,177.385c-3.464,0-5.548-2.059-5.548-5.617a5.341,5.341,0,0,1,5.1-5.57c.148-.007.3-.007.446,0,3.674,0,5.1,1.755,5.1,4.588h-7.467c-.023,2.34,1.147,3.885,3.465,3.885a2.794,2.794,0,0,0,2.973-2.364h.935C195.106,175.279,193.209,177.385,189.98,177.385Zm1.544-7.56c0-1.639-.7-2.6-1.9-2.6-1.054,0-1.943.889-1.99,2.6Z"/><path class="cls-2" d="M630.5,51.181h1.592V43.339h-1.779V42.333l1.756-.679V40.39c0-2.809,1.685-4.307,3.978-4.307a3.634,3.634,0,0,1,3.855,3.4q0,.079.006.159v.211h-3.181V38.471c0-.749-.328-1.288-1.032-1.288-.771,0-1.287.75-1.052,1.85l.562,2.621h2.926v1.522h-2.67v8H637.8V52.3h-7.3Z"/><path class="cls-2" d="M644.887,52.585c-3.463,0-5.547-2.059-5.547-5.617a5.341,5.341,0,0,1,5.1-5.57c.148-.007.3-.007.445,0,3.676,0,5.1,1.755,5.1,4.588h-7.466c-.024,2.34,1.146,3.885,3.464,3.885a2.794,2.794,0,0,0,2.973-2.364h.936C650.014,50.479,648.117,52.585,644.887,52.585Zm1.545-7.56c0-1.639-.7-2.6-1.895-2.6-1.054,0-1.943.889-1.99,2.6Z"/><path class="cls-2" d="M657.057,46.265V51.2h3.134v1.124h-8.378V51.2h1.873V43.456l-2.155,1.218-.513-1.077,6.039-2.622V45.61c1.357-3.3,2.293-4.33,4.306-4.33v3.464h-1.451A3.338,3.338,0,0,0,657.057,46.265Z"/><path class="cls-2" d="M683.924,51.2v1.124h-6.3V51.2h1.4V45.282a1.67,1.67,0,0,0-1.58-1.755,1.722,1.722,0,0,0-.176,0,3.306,3.306,0,0,0-1.917.678l-.071.071a2.467,2.467,0,0,1,.024.421v6.5h1.521v1.124h-6.3V51.2h1.4V45.282a1.67,1.67,0,0,0-1.58-1.755,1.722,1.722,0,0,0-.176,0,3.318,3.318,0,0,0-2.082.819V51.2h1.5v1.124h-6.414V51.2h1.545V43.456l-2.155,1.218-.513-1.077,6.039-2.622v2.716A4.816,4.816,0,0,1,671.94,41.4a3.112,3.112,0,0,1,3.23,2.294,4.918,4.918,0,0,1,3.861-2.294,3.162,3.162,0,0,1,3.367,2.945,3.234,3.234,0,0,1,0,.355v6.5Z"/><path class="cls-2" d="M690.752,52.585c-3.465,0-5.547-2.059-5.547-5.617a5.34,5.34,0,0,1,5.1-5.57c.149-.007.3-.007.447,0,3.676,0,5.1,1.755,5.1,4.588h-7.467c-.024,2.34,1.146,3.885,3.463,3.885a2.793,2.793,0,0,0,2.972-2.364h.938C695.879,50.479,693.983,52.585,690.752,52.585Zm1.545-7.56c0-1.639-.7-2.6-1.9-2.6-1.052,0-1.941.889-1.988,2.6Z"/><path class="cls-2" d="M711.627,51.2v1.124h-6.3V51.2h1.406V45.282a1.671,1.671,0,0,0-1.755-1.755,3.285,3.285,0,0,0-2.108.842V51.2h1.475v1.124H697.86V51.2h1.64V43.456l-2.152,1.218-.516-1.077,6.039-2.622v2.739a4.853,4.853,0,0,1,3.863-2.317,3.163,3.163,0,0,1,3.366,2.946,3.216,3.216,0,0,1,0,.354v6.5Z"/><path class="cls-2" d="M714.1,49.308V43.339h-1.545v-.983l2.67-1.076-.258-4.682h2.293l-.444,5.056h4.68v1.615h-4.025v5.618c0,1.264.773,1.592,1.685,1.592a1.444,1.444,0,0,0,1.512-1.373,1.477,1.477,0,0,0-.012-.266l-.187-2.411h1.568L721.922,49c-.094,2.271-1.5,3.581-3.932,3.581C715.7,52.585,714.1,51.906,714.1,49.308Z"/><path class="cls-2" d="M729.174,52.585c-3.463,0-5.547-2.059-5.547-5.617a5.341,5.341,0,0,1,5.1-5.57c.148-.007.3-.007.445,0,3.676,0,5.1,1.755,5.1,4.588h-7.466c-.024,2.34,1.146,3.885,3.464,3.885a2.793,2.793,0,0,0,2.973-2.364h.936C734.3,50.479,732.4,52.585,729.174,52.585Zm1.545-7.56c0-1.639-.7-2.6-1.9-2.6-1.054,0-1.943.889-1.99,2.6Z"/><path class="cls-2" d="M744.643,49.94a5.023,5.023,0,0,1-4.237,2.645c-2.5,0-4.423-1.943-4.423-5.173,0-3.675,1.99-6.015,5.431-6.015a3.748,3.748,0,0,1,3,1.17V38l-2.154,1.217-.516-1.077,6.039-2.621v14.91l2.155-1.217.515,1.076-6.039,2.622Zm-.233-.491V44.018a2.5,2.5,0,0,0-2.154-1.311c-1.5,0-2.621,1.335-2.621,3.769,0,2.154,1.053,3.792,2.832,3.792a2.937,2.937,0,0,0,1.943-.819Z"/><path class="cls-2" d="M642.293,94.981c0,2.037-1.873,3.792-6.133,3.792-4.166,0-5.734-1.053-5.734-2.458,0-.8.537-1.357,2.269-1.708v-.094a1.875,1.875,0,0,1-1.755-1.872c0-1.077.75-1.826,2.037-2.575a3.183,3.183,0,0,1-2.223-2.95c0-2.527,2.129-4.119,4.937-4.119a6.45,6.45,0,0,1,3.02.725V83c0-1.639.984-2.271,1.99-2.271,1.311,0,2.084.843,2.084,2.692h-2.013c0-.772-.211-1.17-.7-1.17-.373,0-.677.234-.677.866V84.17a2.914,2.914,0,0,1,1.17,2.247c0,2.739-2.037,4.12-4.916,4.12a8.037,8.037,0,0,1-2.082-.258,2.977,2.977,0,0,0-.235.983c0,.632.375.96,1.076.89l3.979-.374C640.889,91.54,642.293,92.921,642.293,94.981Zm-2.06.96a1.3,1.3,0,0,0-1.351-1.247c-.027,0-.055,0-.082.006h-5.453a1.556,1.556,0,0,0-.493,1.217c0,.867.868,1.686,3.606,1.686,2.978,0,3.773-.843,3.773-1.662Zm-6.157-9.48c0,1.615.4,3.043,1.733,3.043.679,0,1.474-.328,1.474-2.364,0-1.686-.56-3.113-1.732-3.113-.678,0-1.475.421-1.475,2.434Z"/><path class="cls-2" d="M648.492,87.865V92.8h3.135v1.124h-8.379V92.8h1.873V85.057l-2.154,1.217-.514-1.077,6.039-2.621V87.21c1.358-3.3,2.293-4.33,4.307-4.33v3.464h-1.451A3.341,3.341,0,0,0,648.492,87.865Z"/><path class="cls-2" d="M667.307,87.631l-.209,3.23a3.06,3.06,0,0,1-3.418,3.207c-1.709,0-2.926-.725-2.926-2.2V91.7a4.414,4.414,0,0,1-3.723,2.481,2.666,2.666,0,0,1-2.826-2.495c0-.072-.006-.144,0-.216,0-1.826,1.241-2.668,3.254-3.043l3.3-.632V86.016c0-1.264-.516-1.872-1.5-1.872a1.474,1.474,0,0,0-1.512,1.435,1.433,1.433,0,0,0,.012.227v1.287H654.5c0-2.575,2.131-4.1,5.033-4.1,3.2,0,4.565,1.311,4.565,3.7v4.12c0,.632.3,1.006.935,1.006a.861.861,0,0,0,.959-.8l-.211-3.4Zm-6.553.843-1.686.7a1.733,1.733,0,0,0-1.263,1.522,1.148,1.148,0,0,0,1.074,1.218c.04,0,.081,0,.121,0a2.26,2.26,0,0,0,1.756-.936Z"/><path class="cls-2" d="M667.983,97.415H669.9V85.057l-2.152,1.217-.515-1.077,6.039-2.621v2.738A4.845,4.845,0,0,1,677.252,83c2.527,0,4.447,1.943,4.447,5.173,0,3.675-1.99,6.015-5.478,6.015a4.329,4.329,0,0,1-2.949-1.076v4.306h1.662v1.124h-6.951Zm10.064-8.309c0-2.153-1.053-3.792-2.879-3.792a2.762,2.762,0,0,0-1.9.819v5.431a2.5,2.5,0,0,0,2.177,1.311C676.947,92.875,678.047,91.517,678.047,89.106Z"/><path class="cls-2" d="M688.949,94.185c-3.463,0-5.547-2.059-5.547-5.617a5.341,5.341,0,0,1,5.1-5.567c.147-.007.3-.007.442,0,3.676,0,5.1,1.755,5.1,4.588h-7.467c-.023,2.34,1.147,3.885,3.465,3.885a2.8,2.8,0,0,0,2.973-2.364h.935C694.076,92.079,692.18,94.185,688.949,94.185Zm1.545-7.56c0-1.639-.7-2.6-1.894-2.6-1.055,0-1.944.889-1.991,2.6Z"/><path class="cls-2" d="M701.119,87.865V92.8h3.135v1.124h-8.379V92.8h1.873V85.057l-2.154,1.217L695.08,85.2l6.039-2.621V87.21c1.358-3.3,2.293-4.33,4.307-4.33v3.464h-1.451A3.341,3.341,0,0,0,701.119,87.865Z"/><path class="cls-2" d="M715.533,86.882v2.692l-8.168-.14V87.023Z"/><path class="cls-2" d="M628.74,137.26v-.234h2.668v.843c0,1.287.328,1.755.867,1.755.444,0,.772-.4.8-1.03.047-1.381-.609-2.294-.609-3.721v-8.216l-2.152,1.217L629.8,126.8l6.039-2.621V137.26c0,1.849-1.334,3.113-3.533,3.113C630.356,140.373,628.74,139.671,628.74,137.26Zm3.7-16.127c0-1.592.8-2.154,1.779-2.154,1.031,0,1.8.562,1.8,2.154s-.772,2.2-1.8,2.2c-.985,0-1.781-.609-1.781-2.2Z"/><path class="cls-2" d="M647.158,136.207v-2.715a5.02,5.02,0,0,1-3.791,2.294c-2.154,0-3.207-1.218-3.207-3.512v-5.617l-2.154,1.217-.514-1.077,6.039-2.621v7.607a1.637,1.637,0,0,0,1.592,1.849,3.055,3.055,0,0,0,2.035-.843v-6.132l-2.152,1.217-.516-1.077,6.039-2.621v9.55l2.155-1.218.513,1.077Z"/><path class="cls-2" d="M659.3,124.176V134.4h1.732v1.124h-6.974V134.4h1.871v-7.747l-2.153,1.217-.515-1.077Zm-3.418-3.043c0-1.592.8-2.154,1.779-2.154,1.029,0,1.8.562,1.8,2.154s-.774,2.2-1.8,2.2c-.979,0-1.776-.609-1.776-2.2Z"/><path class="cls-2" d="M667.914,135.786c-3.652,0-5.64-2.271-5.64-5.548a5.452,5.452,0,0,1,5.249-5.648c.177-.006.355,0,.532.007,2.926,0,4.8,1.311,4.916,3.956l-3.488.023c0-1.779-.586-2.856-1.8-2.856-1.24,0-1.99,1.124-2.061,3.043-.092,2.786,1.336,4.354,3.278,4.354a2.829,2.829,0,0,0,3.019-2.2h.914C672.947,133.211,671.565,135.786,667.914,135.786Z"/><path class="cls-2" d="M680.127,135.786c-3.463,0-5.547-2.06-5.547-5.618a5.341,5.341,0,0,1,5.1-5.57c.148-.007.3-.007.445,0,3.676,0,5.1,1.755,5.1,4.588H677.76c-.024,2.34,1.146,3.885,3.465,3.885a2.793,2.793,0,0,0,2.972-2.364h.936C685.254,133.679,683.358,135.786,680.127,135.786Zm1.545-7.561c0-1.638-.7-2.6-1.895-2.6-1.054,0-1.943.889-1.99,2.6Z"/><path class="cls-2" d="M635.926,171.065V176h3.137v1.124h-8.379V176h1.871v-7.748L630.4,169.47l-.515-1.077,6.039-2.621v4.634c1.357-3.3,2.295-4.33,4.307-4.33v3.464h-1.452A3.341,3.341,0,0,0,635.926,171.065Z"/><path class="cls-2" d="M647.182,177.385c-3.465,0-5.547-2.059-5.547-5.617a5.34,5.34,0,0,1,5.1-5.57c.149-.007.3-.007.447,0,3.676,0,5.1,1.755,5.1,4.588h-7.467c-.023,2.34,1.147,3.885,3.463,3.885a2.794,2.794,0,0,0,2.973-2.364h.937C652.309,175.279,650.412,177.385,647.182,177.385Zm1.545-7.56c0-1.639-.7-2.6-1.9-2.6-1.053,0-1.941.889-1.988,2.6Z"/><path class="cls-2" d="M653.85,180.615h1.918V168.256l-2.153,1.218L653.1,168.4l6.039-2.621v2.738a4.844,4.844,0,0,1,3.98-2.317c2.528,0,4.447,1.943,4.447,5.173,0,3.675-1.99,6.015-5.478,6.015a4.323,4.323,0,0,1-2.949-1.077v4.307H660.8v1.124h-6.95Zm10.064-8.309c0-2.154-1.053-3.792-2.879-3.792a2.762,2.762,0,0,0-1.9.819v5.431a2.5,2.5,0,0,0,2.177,1.311C662.815,176.075,663.914,174.717,663.914,172.306Z"/><path class="cls-2" d="M674.654,171.065V176h3.135v1.124H669.41V176h1.873v-7.748l-2.154,1.218-.514-1.077,6.039-2.621v4.634c1.358-3.3,2.293-4.33,4.307-4.33v3.464H677.51A3.342,3.342,0,0,0,674.654,171.065Z"/><path class="cls-2" d="M692.3,171.463c0,3.98-2.738,5.922-6.274,5.922-3.486,0-5.664-2.106-5.664-5.36,0-4.026,2.926-5.828,6.25-5.828C690.217,166.2,692.3,168.256,692.3,171.463Zm-3.7,1.264c0-3.206-.727-5.453-2.623-5.453-1.217,0-1.918,1.263-1.918,3.557,0,3.184.654,5.454,2.574,5.454C687.828,176.285,688.6,174.974,688.6,172.727Z"/><path class="cls-2" d="M702.664,174.74a5.021,5.021,0,0,1-4.236,2.645c-2.506,0-4.424-1.942-4.424-5.173,0-3.675,1.988-6.015,5.43-6.015a3.748,3.748,0,0,1,3,1.17V162.8l-2.155,1.217-.513-1.077,6.039-2.621v14.91l2.152-1.217.516,1.076-6.039,2.622Zm-.234-.491v-5.431a2.5,2.5,0,0,0-2.155-1.311c-1.5,0-2.621,1.335-2.621,3.769,0,2.154,1.055,3.792,2.832,3.792a2.939,2.939,0,0,0,1.944-.819Z"/><path class="cls-2" d="M717.9,177.807v-2.716a5.023,5.023,0,0,1-3.791,2.294c-2.155,0-3.207-1.217-3.207-3.511v-5.618l-2.155,1.218-.513-1.077,6.039-2.621v7.607a1.635,1.635,0,0,0,1.407,1.835,1.61,1.61,0,0,0,.184.014,3.057,3.057,0,0,0,2.036-.843v-6.133l-2.153,1.218-.515-1.077,6.039-2.621v9.55l2.154-1.218.514,1.077Z"/><path class="cls-2" d="M730.3,177.385c-3.652,0-5.641-2.27-5.641-5.547a5.454,5.454,0,0,1,5.251-5.648c.177-.006.354,0,.531.007,2.925,0,4.8,1.31,4.916,3.955l-3.489.024c0-1.779-.586-2.856-1.8-2.856-1.241,0-1.991,1.124-2.061,3.043-.092,2.786,1.336,4.354,3.277,4.354a2.829,2.829,0,0,0,3.02-2.2h.914C735.332,174.81,733.949,177.385,730.3,177.385Z"/><path class="cls-2" d="M738.158,174.108V168.14h-1.545v-.984l2.67-1.076-.258-4.682h2.293l-.443,5.056h4.68v1.615h-4.026v5.618c0,1.264.774,1.592,1.686,1.592a1.444,1.444,0,0,0,1.512-1.373,1.477,1.477,0,0,0-.012-.266l-.188-2.411H746.1l-.117,2.575c-.094,2.271-1.5,3.581-3.932,3.581C739.75,177.385,738.158,176.706,738.158,174.108Z"/><path class="cls-2" d="M753.066,165.776V176H754.8v1.124h-6.975V176H749.7v-7.748l-2.154,1.218-.514-1.077Zm-3.417-3.043c0-1.592.794-2.154,1.779-2.154,1.029,0,1.8.562,1.8,2.154s-.772,2.2-1.8,2.2C750.443,164.933,749.649,164.324,749.649,162.733Z"/><path class="cls-2" d="M768.348,167.6h-1.194l-4.775,9.784h-1.428l-4.728-9.784h-1.194v-1.123h6.459V167.6h-1.545l2.928,6.133,2.27-4.658V167.6h-1.358v-1.123h4.565Z"/><path class="cls-2" d="M774.242,177.385c-3.465,0-5.547-2.059-5.547-5.617a5.34,5.34,0,0,1,5.1-5.57c.149-.007.3-.007.447,0,3.676,0,5.1,1.755,5.1,4.588h-7.467c-.023,2.34,1.146,3.885,3.463,3.885a2.8,2.8,0,0,0,2.973-2.364h.937C779.369,175.279,777.473,177.385,774.242,177.385Zm1.545-7.56c0-1.639-.7-2.6-1.9-2.6-1.053,0-1.942.889-1.989,2.6Z"/><path class="cls-2" d="M630.426,222.215h1.918V209.857l-2.153,1.217L629.676,210l6.039-2.621v2.738a4.844,4.844,0,0,1,3.98-2.317c2.528,0,4.448,1.943,4.448,5.173,0,3.675-1.991,6.015-5.479,6.015a4.329,4.329,0,0,1-2.949-1.076v4.306h1.662v1.124h-6.951Zm10.064-8.309c0-2.153-1.052-3.792-2.879-3.792a2.766,2.766,0,0,0-1.9.819v5.431a2.5,2.5,0,0,0,2.178,1.311c1.5,0,2.6-1.358,2.6-3.769Z"/><path class="cls-2" d="M658.953,212.432l-.209,3.23a3.06,3.06,0,0,1-2.888,3.223,3.028,3.028,0,0,1-.53-.017c-1.709,0-2.926-.725-2.926-2.2V216.5a4.412,4.412,0,0,1-3.722,2.481,2.666,2.666,0,0,1-2.827-2.494c0-.074-.007-.147,0-.221,0-1.826,1.24-2.668,3.254-3.043l3.3-.632v-1.779c0-1.264-.515-1.872-1.5-1.872a1.474,1.474,0,0,0-1.512,1.435,1.433,1.433,0,0,0,.012.227v1.287h-3.25c0-2.575,2.131-4.1,5.034-4.1,3.205,0,4.564,1.311,4.564,3.7v4.12c0,.632.3,1.006.936,1.006a.861.861,0,0,0,.959-.8l-.211-3.393Zm-6.553.842-1.685.7a1.732,1.732,0,0,0-1.264,1.522,1.148,1.148,0,0,0,1.076,1.216,1.161,1.161,0,0,0,.118,0,2.259,2.259,0,0,0,1.755-.936Z"/><path class="cls-2" d="M665.27,212.665V217.6h3.136v1.124h-8.379V217.6H661.9v-7.747l-2.153,1.217-.516-1.07,6.039-2.621v4.634c1.357-3.3,2.3-4.33,4.306-4.33v3.464h-1.451A3.34,3.34,0,0,0,665.27,212.665Z"/><path class="cls-2" d="M672.172,215.708V209.74h-1.545v-.984l2.668-1.076-.258-4.68h2.295l-.445,5.056h4.681v1.615h-4.025v5.618c0,1.264.772,1.592,1.686,1.592a1.443,1.443,0,0,0,1.5-1.639l-.188-2.411h1.569l-.118,2.575c-.093,2.271-1.5,3.581-3.933,3.581C673.764,218.985,672.172,218.307,672.172,215.708Z"/><path class="cls-2" d="M683.66,217.23v1.5h-1.638v-4h1.591v1.592a4.763,4.763,0,0,0,3.418,1.358c1.287,0,1.873-.539,1.873-1.241,0-.749-.328-1.17-3.113-1.826-3.183-.749-3.838-1.8-3.838-3.558,0-2.106,1.8-3.253,4.1-3.253a5.2,5.2,0,0,1,3.7,1.381v-1.1h1.686v3.581h-1.6v-1.428a4.8,4.8,0,0,0-3.09-1.24c-1.24,0-1.732.515-1.732,1.1,0,.655.328,1.147,2.482,1.662,3.674.889,4.424,1.638,4.4,3.721-.023,2.271-1.755,3.511-4.166,3.511A5.128,5.128,0,0,1,683.66,217.23Z"/><path class="cls-2" d="M642.481,254.663c0,3.979-2.739,5.922-6.274,5.922-3.488,0-5.664-2.106-5.664-5.36,0-4.026,2.926-5.828,6.25-5.828C640.4,249.4,642.481,251.456,642.481,254.663Zm-3.7,1.264c0-3.206-.724-5.453-2.621-5.453-1.217,0-1.92,1.263-1.92,3.557,0,3.184.657,5.454,2.575,5.454C638.01,259.485,638.781,258.174,638.781,255.927Z"/><path class="cls-2" d="M644.113,259.181h1.592v-7.842h-1.779v-1.006l1.756-.679V248.39c0-2.809,1.685-4.307,3.98-4.307a3.634,3.634,0,0,1,3.855,3.4c0,.053.006.1.007.158v.211H650.34v-1.381c0-.749-.328-1.288-1.029-1.288-.774,0-1.287.75-1.055,1.85l.562,2.621h2.926v1.522h-2.668v8h2.34V260.3h-7.3Z"/><path class="cls-2" d="M632.508,300.43v1.5h-1.639v-4h1.592v1.592a4.763,4.763,0,0,0,3.418,1.358c1.287,0,1.873-.539,1.873-1.241,0-.749-.328-1.17-3.113-1.826-3.184-.749-3.838-1.8-3.838-3.558,0-2.106,1.8-3.253,4.1-3.253a5.2,5.2,0,0,1,3.7,1.381v-1.1h1.685v3.581H638.7v-1.428a4.807,4.807,0,0,0-3.09-1.24c-1.24,0-1.733.514-1.733,1.1,0,.655.328,1.147,2.483,1.662,3.674.889,4.424,1.638,4.4,3.721-.023,2.271-1.756,3.511-4.166,3.511A5.129,5.129,0,0,1,632.508,300.43Z"/><path class="cls-2" d="M648.07,302.185c-3.464,0-5.546-2.059-5.546-5.617a5.339,5.339,0,0,1,5.1-5.567c.148-.007.3-.007.445,0,3.676,0,5.1,1.755,5.1,4.588H645.7c-.023,2.34,1.147,3.885,3.463,3.885a2.794,2.794,0,0,0,2.973-2.364h.937C653.2,300.079,651.3,302.185,648.07,302.185Zm1.545-7.56c0-1.639-.7-2.6-1.9-2.6-1.053,0-1.942.889-1.988,2.6Z"/><path class="cls-2" d="M660.4,302.185c-3.464,0-5.546-2.059-5.546-5.617a5.339,5.339,0,0,1,5.1-5.567c.148-.007.3-.007.445,0,3.676,0,5.1,1.755,5.1,4.588h-7.467c-.023,2.34,1.147,3.885,3.463,3.885a2.794,2.794,0,0,0,2.973-2.364h.937C665.529,300.079,663.633,302.185,660.4,302.185Zm1.545-7.56c0-1.639-.7-2.6-1.9-2.6-1.053,0-1.942.889-1.988,2.6Z"/><path class="cls-2" d="M675.871,299.54a5.021,5.021,0,0,1-4.236,2.645c-2.506,0-4.424-1.942-4.424-5.173,0-3.674,1.988-6.015,5.43-6.015a3.748,3.748,0,0,1,3,1.17V287.6l-2.154,1.217-.514-1.077,6.039-2.621v14.91l2.152-1.217.516,1.076-6.039,2.622Zm-.234-.491v-5.431a2.494,2.494,0,0,0-2.154-1.31c-1.5,0-2.622,1.334-2.622,3.768,0,2.154,1.055,3.792,2.832,3.792a2.939,2.939,0,0,0,1.944-.819Z"/><path class="cls-2" d="M687.662,305.415h1.918V293.057l-2.152,1.217-.516-1.077,6.039-2.621v2.738A4.85,4.85,0,0,1,696.932,291c2.527,0,4.447,1.943,4.447,5.173,0,3.675-1.99,6.015-5.479,6.015a4.329,4.329,0,0,1-2.949-1.076v4.306h1.662v1.124h-6.951Zm10.065-8.309c0-2.153-1.053-3.792-2.879-3.792a2.768,2.768,0,0,0-1.9.819v5.431a2.5,2.5,0,0,0,2.178,1.311c1.5,0,2.6-1.358,2.6-3.769Z"/><path class="cls-2" d="M707.9,285.122V300.8h1.662v1.124h-6.953V300.8h1.92V287.6l-2.152,1.217-.516-1.077Z"/><path class="cls-2" d="M723.983,295.631l-.211,3.23a3.06,3.06,0,0,1-3.418,3.207c-1.709,0-2.926-.725-2.926-2.2V299.7a4.408,4.408,0,0,1-3.721,2.481,2.666,2.666,0,0,1-2.827-2.494c0-.074-.007-.147,0-.221,0-1.826,1.24-2.668,3.254-3.043l3.3-.632v-1.779c0-1.264-.514-1.872-1.5-1.872a1.476,1.476,0,0,0-1.512,1.438,1.522,1.522,0,0,0,.012.224v1.287h-3.254c0-2.575,2.131-4.1,5.033-4.1,3.207,0,4.564,1.311,4.564,3.7v4.12c0,.632.3,1.006.936,1.006.492,0,.984-.3.961-.8l-.211-3.4Zm-6.555.843-1.686.7a1.735,1.735,0,0,0-1.263,1.522,1.15,1.15,0,0,0,1.078,1.216,1.1,1.1,0,0,0,.115,0,2.257,2.257,0,0,0,1.756-.936Z"/><path class="cls-2" d="M739.006,300.8v1.124h-6.3V300.8h1.4v-5.922a1.67,1.67,0,0,0-1.58-1.755,1.7,1.7,0,0,0-.175,0,3.28,3.28,0,0,0-2.106.842V300.8h1.475v1.124h-6.485V300.8h1.639v-7.747l-2.154,1.217-.514-1.077,6.039-2.621v2.738a4.844,4.844,0,0,1,3.868-2.31,3.162,3.162,0,0,1,3.367,2.945,3.234,3.234,0,0,1,0,.355v6.5Z"/><path class="cls-2" d="M741.483,298.908V292.94h-1.545v-.984l2.668-1.076-.258-4.682h2.3l-.446,5.056h4.682v1.615h-4.025v5.618c0,1.264.771,1.592,1.685,1.592a1.444,1.444,0,0,0,1.512-1.373,1.477,1.477,0,0,0-.012-.266l-.187-2.411h1.568L749.3,298.6c-.094,2.271-1.5,3.581-3.934,3.581C743.074,302.185,741.483,301.506,741.483,298.908Z"/><path class="cls-2" d="M752.971,300.43v1.5h-1.639v-4h1.592v1.592a4.759,4.759,0,0,0,3.418,1.358c1.287,0,1.873-.539,1.873-1.241,0-.749-.328-1.17-3.113-1.826-3.184-.749-3.838-1.8-3.838-3.558,0-2.106,1.8-3.253,4.1-3.253a5.2,5.2,0,0,1,3.7,1.381v-1.1h1.685v3.581h-1.6v-1.428a4.8,4.8,0,0,0-3.089-1.24c-1.241,0-1.733.514-1.733,1.1,0,.655.328,1.147,2.483,1.662,3.673.889,4.423,1.638,4.4,3.721-.023,2.271-1.756,3.511-4.166,3.511A5.128,5.128,0,0,1,752.971,300.43Z"/><path class="cls-2" d="M596.863,34.953v6.3h-1.779V38.277l-1.709-1.264h-3.3v13.67h2.178v1.17h-8.1v-1.17h2.155V37.013h-4.283l-1.428.656V41.25h-1.78v-6.3h1.78v.937h14.488V34.95Z"/><path class="cls-2" d="M612.072,50.73v1.123h-6.3V50.73h1.4V44.808a1.672,1.672,0,0,0-1.756-1.756,3.286,3.286,0,0,0-2.106.843V50.73h1.475v1.123H598.3V50.73h1.638V37.53l-2.154,1.217-.514-1.076,6.039-2.622v8.192a4.845,4.845,0,0,1,3.862-2.317,3.163,3.163,0,0,1,3.367,2.947,3.2,3.2,0,0,1,0,.353V50.73Z"/><path class="cls-2" d="M618.9,52.111c-3.464,0-5.546-2.06-5.546-5.618a5.339,5.339,0,0,1,5.1-5.57c.149-.007.3-.007.448,0,3.676,0,5.1,1.756,5.1,4.588h-7.467C616.51,47.85,617.68,49.4,620,49.4a2.794,2.794,0,0,0,2.973-2.364h.937C624.029,50,622.133,52.111,618.9,52.111Zm1.545-7.561c0-1.638-.7-2.6-1.9-2.6-1.053,0-1.942.889-1.988,2.6Z"/><path class="cls-2" d="M516.859,170.357l-.21,3.23a3.06,3.06,0,0,1-3.418,3.207c-1.709,0-2.926-.726-2.926-2.2v-.163a4.41,4.41,0,0,1-3.721,2.481,2.667,2.667,0,0,1-2.827-2.5c0-.073-.007-.147,0-.22,0-1.825,1.24-2.668,3.254-3.043l3.3-.631v-1.779c0-1.264-.514-1.873-1.5-1.873a1.476,1.476,0,0,0-1.512,1.438,1.522,1.522,0,0,0,.012.224v1.287h-3.254c0-2.574,2.131-4.1,5.033-4.1,3.207,0,4.564,1.311,4.564,3.7v4.119c0,.632.3,1.007.936,1.007.492,0,.984-.3.961-.8l-.211-3.394Zm-6.554.842-1.686.7a1.737,1.737,0,0,0-1.263,1.522,1.15,1.15,0,0,0,1.078,1.216,1.1,1.1,0,0,0,.115,0,2.255,2.255,0,0,0,1.756-.936Z"/><path class="cls-2" d="M538.951,175.53v1.123h-6.3V175.53h1.4v-5.922a1.671,1.671,0,0,0-1.581-1.756,1.7,1.7,0,0,0-.175,0,3.3,3.3,0,0,0-1.918.679l-.07.07a2.591,2.591,0,0,1,.023.422v6.507h1.521v1.123h-6.3V175.53h1.4v-5.922a1.671,1.671,0,0,0-1.581-1.756,1.7,1.7,0,0,0-.175,0,3.319,3.319,0,0,0-2.082.82v6.858h1.5v1.123H518.2V175.53h1.545v-7.748L517.6,169l-.514-1.077,6.039-2.621v2.715a4.815,4.815,0,0,1,3.838-2.294,3.11,3.11,0,0,1,3.23,2.294,4.92,4.92,0,0,1,3.862-2.294,3.163,3.163,0,0,1,3.367,2.947,3.2,3.2,0,0,1,0,.353v6.507Z"/><path class="cls-2" d="M552.17,170.989c0,3.979-2.738,5.922-6.273,5.922-3.489,0-5.664-2.107-5.664-5.361,0-4.025,2.925-5.828,6.25-5.828C550.086,165.722,552.17,167.782,552.17,170.989Zm-3.7,1.264c0-3.207-.725-5.454-2.621-5.454-1.217,0-1.92,1.264-1.92,3.558,0,3.183.656,5.454,2.574,5.454,1.2,0,1.968-1.311,1.968-3.558Z"/><path class="cls-2" d="M567.941,175.53v1.123h-6.3V175.53h1.4v-5.922a1.671,1.671,0,0,0-1.581-1.756,1.7,1.7,0,0,0-.175,0,3.281,3.281,0,0,0-2.105.843v6.835h1.474v1.123H554.17V175.53h1.638v-7.748L553.662,169l-.513-1.077,6.039-2.621v2.738a4.844,4.844,0,0,1,3.861-2.317,3.163,3.163,0,0,1,3.367,2.947,3.2,3.2,0,0,1,0,.353v6.507Z"/><path class="cls-2" d="M580.975,177.706c0,2.037-1.873,3.792-6.133,3.792-4.166,0-5.734-1.053-5.734-2.457,0-.8.537-1.358,2.269-1.709v-.094a1.876,1.876,0,0,1-1.756-1.872c0-1.077.75-1.826,2.037-2.575a3.184,3.184,0,0,1-2.222-2.949c0-2.528,2.129-4.12,4.937-4.12a6.463,6.463,0,0,1,3.02.726v-.726c0-1.638.984-2.27,1.99-2.27,1.31,0,2.084.842,2.084,2.691h-2.014c0-.772-.211-1.17-.7-1.17-.373,0-.678.234-.678.866v1.053a2.909,2.909,0,0,1,1.17,2.248c0,2.738-2.037,4.119-4.916,4.119a8.036,8.036,0,0,1-2.082-.257,3,3,0,0,0-.234.983c0,.632.375.959,1.076.889l3.979-.374C579.57,174.266,580.975,175.647,580.975,177.706Zm-2.061.96a1.3,1.3,0,0,0-1.352-1.245c-.026,0-.051,0-.076,0h-5.453a1.56,1.56,0,0,0-.492,1.217c0,.866.867,1.685,3.606,1.685C578.119,180.328,578.914,179.485,578.914,178.666Zm-6.156-9.48c0,1.615.4,3.043,1.732,3.043.68,0,1.475-.328,1.475-2.364,0-1.685-.561-3.113-1.732-3.113C573.555,166.752,572.758,167.173,572.758,169.186Z"/><path class="cls-2" d="M588.365,173.634v-5.969H586.82v-.983l2.668-1.077-.257-4.681h2.294l-.445,5.056h4.682v1.62h-4.026v5.617c0,1.264.772,1.592,1.686,1.592a1.444,1.444,0,0,0,1.512-1.373,1.466,1.466,0,0,0-.012-.265l-.187-2.411H596.3l-.117,2.574c-.094,2.271-1.5,3.582-3.934,3.582C589.957,176.911,588.365,176.232,588.365,173.634Z"/><path class="cls-2" d="M611.277,175.53v1.123h-6.3V175.53h1.4v-5.922a1.672,1.672,0,0,0-1.584-1.756,1.645,1.645,0,0,0-.172,0,3.281,3.281,0,0,0-2.105.843v6.835H604v1.123h-6.484V175.53h1.638v-13.2L597,163.545l-.514-1.076,6.04-2.622v8.192a4.844,4.844,0,0,1,3.861-2.317,3.163,3.163,0,0,1,3.367,2.947,3.2,3.2,0,0,1,0,.353v6.507Z"/><path class="cls-2" d="M618.108,176.911c-3.465,0-5.547-2.06-5.547-5.618a5.34,5.34,0,0,1,5.1-5.57c.149-.007.3-.007.447,0,3.675,0,5.1,1.756,5.1,4.588h-7.467c-.023,2.341,1.147,3.885,3.463,3.885a2.794,2.794,0,0,0,2.973-2.364h.937C623.234,174.8,621.338,176.911,618.108,176.911Zm1.544-7.561c0-1.638-.7-2.6-1.9-2.6-1.053,0-1.941.889-1.988,2.6Z"/><path class="cls-1" d="M805.477,45.025c-1.014.078-2.028.13-3.041.13a103.6,103.6,0,0,0-3.407,10.973l-3.017-.651c.521-2.184,1.353-5.876,2.808-10.4-1.066-.078-1.976-.156-2.548-.234l.39-2c.832.052,1.821.1,2.862.13.623-1.794,1.351-3.692,2.156-5.668l3.511,1.066c-.7,1.56-1.326,3.094-1.923,4.628.832-.052,1.689-.1,2.728-.208Z"/><path class="cls-1" d="M819.024,44.531a52.792,52.792,0,0,0-4.473,12.87l-3.094-.728A57.588,57.588,0,0,1,814.264,47a76.719,76.719,0,0,0-6.395,6.084c-.338,1.222-.65,2.262-.885,3.043l-3.121-.781c.963-3.432,4.422-13.858,6.164-19.786l3.3,1.144c-.754,2.886-2.392,7.54-4.133,12.272a63.369,63.369,0,0,1,6.864-6.11Z"/><path class="cls-1" d="M822.481,51.5a11.141,11.141,0,0,0-.053,2.6c.859-.052,2.367-.052,5.773-1.742l-.287,2.262a8.812,8.812,0,0,1-5.014,1.82c-2.549,0-3.979-1.483-3.8-4.473a10.459,10.459,0,0,1,7.437-9.724l4.289,1.274a8.036,8.036,0,0,1,.365,2.314c0,2.782-2.107,4.992-5.929,4.992a18.621,18.621,0,0,1-2.625-.234A6.544,6.544,0,0,0,822.481,51.5Zm.806-2.7a7.028,7.028,0,0,0,1.326.13,3.274,3.274,0,0,0,3.428-3.114c0-.062,0-.124,0-.186a4.625,4.625,0,0,0-.209-1.3,9.719,9.719,0,0,0-4.549,4.47Z"/><path class="cls-1" d="M856.723,43.881l-7.438,12.792-1.636-.6-2.575-.936c.207-2.73.573-5.278.961-7.878l-5.771,9.568-.936-.338-3.015-1.066c.441-3.8.935-8.606,1.17-12.662l3.666.364c-.338,3.146-.911,6.838-1.4,10.218l6.4-10.738,3.509.208c-.312,3.718-.781,7.176-1.144,10.79l5.8-11.1Z"/><path class="cls-1" d="M862.469,43.413a104.361,104.361,0,0,0-4.16,12.74l-3.1-.676a82.879,82.879,0,0,1,3.875-12.948ZM863.248,41l-3.121-.91a54.2,54.2,0,0,1,2.471-6.11l3.2.962C865.2,36.159,864.393,38.005,863.248,41Z"/><path class="cls-1" d="M877.158,44.531a42.861,42.861,0,0,0-4.213,12.376l-3.222-.546a57.637,57.637,0,0,1,2.756-9.542,70.555,70.555,0,0,0-6.268,5.434c-.338,1.352-.676,2.548-.986,3.692l-3.121-.78c.962-3.432,2.183-7.046,3.38-12.35l3.329.676a40.965,40.965,0,0,1-1.432,5.1,70.43,70.43,0,0,1,6.787-5.746Z"/><path class="cls-1" d="M880.615,51.5a11.2,11.2,0,0,0-.052,2.6c.859-.052,2.367-.052,5.773-1.742l-.287,2.262a8.808,8.808,0,0,1-5.018,1.821c-2.548,0-3.978-1.483-3.8-4.473a10.462,10.462,0,0,1,7.438-9.724l4.289,1.274a8.111,8.111,0,0,1,.365,2.314c0,2.782-2.107,4.992-5.929,4.992a18.621,18.621,0,0,1-2.625-.234A6.5,6.5,0,0,0,880.615,51.5Zm.807-2.7a7.028,7.028,0,0,0,1.326.13,3.274,3.274,0,0,0,3.428-3.114c0-.062,0-.124,0-.186a4.625,4.625,0,0,0-.209-1.3A9.719,9.719,0,0,0,881.422,48.8Z"/><path class="cls-1" d="M771.678,349.224c-1.016.078-2.029.13-3.043.13a103.823,103.823,0,0,0-3.406,10.973l-3.016-.65c.52-2.184,1.352-5.877,2.809-10.4-1.067-.078-1.977-.156-2.549-.234l.39-2c.832.052,1.821.1,2.86.13.625-1.794,1.351-3.692,2.158-5.668l3.51,1.066c-.7,1.56-1.326,3.094-1.924,4.628.832-.052,1.689-.1,2.73-.208Z"/><path class="cls-1" d="M785.223,348.73a53.018,53.018,0,0,0-4.473,12.87l-3.094-.728a57.6,57.6,0,0,1,2.809-9.673,76.95,76.95,0,0,0-6.4,6.085c-.337,1.221-.65,2.262-.884,3.042l-3.119-.78c.962-3.433,4.419-13.859,6.162-19.787l3.3,1.144c-.754,2.886-2.392,7.54-4.134,12.272a63.474,63.474,0,0,1,6.865-6.11Z"/><path class="cls-1" d="M788.68,355.7a11.086,11.086,0,0,0-.051,2.6c.857-.051,2.365-.051,5.771-1.741l-.285,2.261a8.821,8.821,0,0,1-5.019,1.821c-2.547,0-3.977-1.482-3.795-4.472a10.458,10.458,0,0,1,7.435-9.725l4.291,1.274a8.07,8.07,0,0,1,.364,2.314c0,2.782-2.106,4.993-5.928,4.993a18.65,18.65,0,0,1-2.627-.235A7.034,7.034,0,0,0,788.68,355.7Zm.806-2.7a7.039,7.039,0,0,0,1.327.13,3.273,3.273,0,0,0,3.427-3.113c0-.062,0-.125,0-.187a4.7,4.7,0,0,0-.207-1.3,9.715,9.715,0,0,0-4.551,4.464Z"/><path class="cls-1" d="M816.4,339.812l-.729,2.73a4.611,4.611,0,0,0-2.08-.468c-1.664,0-2.756,1.248-3.641,4.238-.078.312-.181.6-.259.91,1.119-.026,2.211-.1,3.615-.234l-.522,2.236c-1.195.1-2.418.13-3.588.13h-.156c-1.767,5.824-3.638,11.831-4.808,17.031l-3.018-.624c1.119-5.2,2.652-10.946,4.188-16.537-.754-.052-1.379-.13-1.821-.182l.391-2c.6.026,1.3.078,2.027.1.129-.546.285-1.066.442-1.612.91-3.25,2.861-6.526,6.812-6.526A5.854,5.854,0,0,1,816.4,339.812Z"/><path class="cls-1" d="M821.129,341.086a127.184,127.184,0,0,0-6.813,19.241l-3.042-.65a122.542,122.542,0,0,1,6.371-19.917Z"/><path class="cls-1" d="M830.879,350.55c0,4.732-3.043,9.647-8.4,10.479-1.145-.494-2.237-.962-3.25-1.456a15.221,15.221,0,0,1-.469-3.667c0-5.382,3.459-9.724,8.84-9.724a11.616,11.616,0,0,1,1.613.13l.65,2.574.91.13A10.229,10.229,0,0,1,830.879,350.55Zm-2.887-.52c0-.286,0-.572-.025-.832-3.822.234-5.852,3.12-5.852,7.436a12.1,12.1,0,0,0,.184,2.133C826.354,357.935,827.992,353.332,827.992,350.03Z"/><path class="cls-1" d="M852.666,348.08l-7.435,12.793-1.639-.6-2.574-.936c.209-2.73.572-5.279.963-7.879l-5.772,9.569-.937-.338-3.016-1.066c.441-3.8.935-8.607,1.17-12.663l3.666.364c-.338,3.146-.91,6.838-1.4,10.219l6.4-10.739,3.51.208c-.311,3.718-.779,7.177-1.143,10.791l5.8-11.1Z"/><path class="cls-1" d="M854.953,355.7a11.2,11.2,0,0,0-.051,2.6c.858-.051,2.366-.051,5.772-1.741l-.285,2.261a8.817,8.817,0,0,1-5.02,1.821c-2.547,0-3.976-1.482-3.8-4.472a10.46,10.46,0,0,1,7.436-9.725l4.291,1.274a8.074,8.074,0,0,1,.363,2.314c0,2.782-2.105,4.993-5.928,4.993a18.65,18.65,0,0,1-2.627-.235A7.021,7.021,0,0,0,854.953,355.7Zm.807-2.7a7.028,7.028,0,0,0,1.326.13,3.274,3.274,0,0,0,3.428-3.114c0-.062,0-.124,0-.186a4.7,4.7,0,0,0-.207-1.3,9.715,9.715,0,0,0-4.551,4.464Z"/><path class="cls-1" d="M876.82,347.768a39.524,39.524,0,0,0-2.705,8.165l-2.99-.547a39.677,39.677,0,0,1,1.17-4.16c-1.637,2-3.354,4.421-4.887,6.552-.234.832-.521,1.691-.781,2.549l-3.119-.78c.961-3.433,2.236-7.307,3.379-12.585l3.328.728a33.4,33.4,0,0,1-1.533,5.461,60.627,60.627,0,0,1,5.642-7.021Z"/><path class="cls-1" d="M882.514,349.562a3.922,3.922,0,0,0-1.3.182c0,.962.6,1.69,1.4,2.652,1.43,1.768,2.783,3.043,2.783,4.6,0,2.054-3.1,3.952-5.773,3.952a6.708,6.708,0,0,1-4.316-1.456l.91-2.808a10.236,10.236,0,0,0,6.058,1.664c-.181-1.066-1.4-2.184-2.261-3.251-1.457-1.82-1.977-2.756-1.977-3.874,0-1.976,2.756-4.446,5.486-4.446a9.151,9.151,0,0,1,4.032.91l-.885,3.172A8.476,8.476,0,0,0,882.514,349.562Z"/></g></svg>