<svg xmlns="http://www.w3.org/2000/svg" viewBox="0 0 952 379"><defs><style>.cls-1{fill:#f36;}.cls-2{fill:#1858a8;}</style></defs><title>themerson</title><g id="solo_testo" data-name="solo testo"><path class="cls-1" d="M786.38,54.127a1.118,1.118,0,0,1-.04-.128,1.372,1.372,0,0,0-.757-.963.823.823,0,0,1-.38-.356,4.673,4.673,0,0,0-1-1.554.457.457,0,0,1-.107-.168,3.737,3.737,0,0,0-.728-1.024.574.574,0,0,1-.14-.354,13.222,13.222,0,0,1,.046-1.45,3.141,3.141,0,0,0-.05-1c-.073-.342-.4-.518-.466-.856a.269.269,0,0,0-.2-.151,1.438,1.438,0,0,0-1.208.329c-.068.074-.122.125-.242.02a1.479,1.479,0,0,1,.037-.229.584.584,0,0,0-.223-.7,1.511,1.511,0,0,1-.6-1,1.8,1.8,0,0,0-.343-.786,15.645,15.645,0,0,0-1.031-1.306.932.932,0,0,1-.336-.694.417.417,0,0,0-.145-.285,4.682,4.682,0,0,1-.986-1.419,3.034,3.034,0,0,1-.47-1.616c-.2-.215-.373-.422-.572-.594a1.637,1.637,0,0,1-.455-.724c-.034-.1-.148-.161-.216-.249a3.21,3.21,0,0,1-.225-.327c-.164-.278-.212-.64-.554-.787-.557-.886-1.216-1.705-1.7-2.641a5.362,5.362,0,0,0-.5-.865.8.8,0,0,1-.176-.914.55.55,0,0,0-.224-.711,4.314,4.314,0,0,0-1.279-.677c-.776-.161-1.538-.394-2.316-.542a5.29,5.29,0,0,1-1.792-.817,3.049,3.049,0,0,0-1.014-.458,3.307,3.307,0,0,1-1.084-.438,1.946,1.946,0,0,1-.854-1.052,1.151,1.151,0,0,0-.249-.383.439.439,0,0,1-.08-.6.745.745,0,0,0-.037-.884,2.138,2.138,0,0,0-1.544-.933,6.953,6.953,0,0,1-1.163-.21,4.072,4.072,0,0,1-.89-.213,2.745,2.745,0,0,0-.827-.2,5.161,5.161,0,0,1-2.352-.784,2.76,2.76,0,0,0-1.411-.5,10.7,10.7,0,0,1-1.874-.311,1.235,1.235,0,0,1-.352-.167,2.675,2.675,0,0,0-.318-.237,9.633,9.633,0,0,0-1.39-.616c-.4-.1-.807-.216-1.2-.353a20.564,20.564,0,0,0-2.212-.658,1.277,1.277,0,0,1-.248-.086,2.763,2.763,0,0,0-1.267-.3,1.293,1.293,0,0,1-.377-.093c-.146-.043-.289-.1-.437-.135a2.678,2.678,0,0,0-1.362-.134c-.176.049-.39-.064-.583-.05-.479.036-.959.06-1.438.113a7.26,7.26,0,0,0-1.49.276.693.693,0,0,1-.446.029,1,1,0,0,0-.941.113c-.035.019-.072.036-.108.055a19.489,19.489,0,0,1-3.473.223,5.046,5.046,0,0,1-2.086-.183,3.989,3.989,0,0,1-1.555.205c-.9,0-1.8.022-2.7.018a2.6,2.6,0,0,1-.691-.1,3.139,3.139,0,0,0-1.65-.044,1.1,1.1,0,0,1-.682,0,2.245,2.245,0,0,0-.83-.053c-.929.031-1.862.045-2.795.047a13.619,13.619,0,0,0-2.415.009.948.948,0,0,1-.36-.011,11.1,11.1,0,0,0-3.143-.116c-.487.022-.979.051-1.467.039a8.279,8.279,0,0,0-2.268.147,3.3,3.3,0,0,1-.844.02c-.773-.031-1.545-.088-2.317-.113a21.773,21.773,0,0,1-2.325-.073,3.951,3.951,0,0,0-.725.024,3.5,3.5,0,0,1-.6.043,14.625,14.625,0,0,0-2.071-.042c-1.175,0-2.357-.077-3.525-.145a13.752,13.752,0,0,0-2.649.1,4.087,4.087,0,0,1-1.32,0q-.7-.129-1.4-.276a13,13,0,0,0-1.533-.225,10.941,10.941,0,0,1-3.164-.512,5.243,5.243,0,0,0-2.21-.293,4.393,4.393,0,0,1-1.634-.206,2.643,2.643,0,0,0-1.414-.066,5.723,5.723,0,0,1-1.07.1,3.821,3.821,0,0,0-1.02.158,10.458,10.458,0,0,1-1.717.293c-.467.043-.969-.009-1.455-.014a19.058,19.058,0,0,1-2.56-.037,16.771,16.771,0,0,0-4.219.116c-.83.078-1.664.159-2.506.19a12.831,12.831,0,0,0-2.863.165,2.991,2.991,0,0,1-.726.012,4.133,4.133,0,0,0-1.74.2,1.508,1.508,0,0,1-.577.08,17.478,17.478,0,0,1-3.274-.034,1.194,1.194,0,0,0-.363,0,9.018,9.018,0,0,1-1.95-.065,7.83,7.83,0,0,0-1.094-.02c-1.008.048-2.012.12-3.021.167a4.293,4.293,0,0,1-.7-.073c-.279-.034-.555-.1-.833-.108-1.345-.044-2.69-.077-4.036-.109-.244-.006-.488.009-.733.006a6.55,6.55,0,0,1-.968-.037,2.821,2.821,0,0,0-1.072.029,4.65,4.65,0,0,1-1.684.057,9.11,9.11,0,0,0-1.579-.084,15.929,15.929,0,0,1-1.595-.039c-.415-.043-.8-.014-1.2-.02a6.542,6.542,0,0,1-1.8-.137,2.252,2.252,0,0,0-1.6-.045,1.032,1.032,0,0,1-.354,0,12.945,12.945,0,0,0-2.9.13,9.86,9.86,0,0,1-1.332.052c-.2,0-.42-.053-.606-.031a11.345,11.345,0,0,1-2.687-.089c-1.156-.139-2.286.026-3.422-.085a2.735,2.735,0,0,1-1.574-.148l-.875.3a5.4,5.4,0,0,0-.843-.074c-.926.07-1.872.006-2.788.06a9.6,9.6,0,0,1-2.043-.073,13.507,13.507,0,0,0-2.9-.106c-.2-.205-.376-.382-.556-.557a.9.9,0,0,0-.605-.206,2.939,2.939,0,0,0-1.663.3,3.2,3.2,0,0,1-1.864.365c-.848-.041-1.7-.021-2.542-.144a5.04,5.04,0,0,0-1.687.05,4.851,4.851,0,0,1-2.354.114,2.237,2.237,0,0,0-.486,0,6.891,6.891,0,0,1-1.191-.152,7.8,7.8,0,0,0-1.191-.023.469.469,0,0,1-.114-.026,3.978,3.978,0,0,0-1.779-.084c-.464.074-.944.121-1.414.185a2.921,2.921,0,0,1-1.835-.177,1.64,1.64,0,0,0-1.033-.089c-.826.117-1.361.363-1.472.839a.811.811,0,0,1-.142.319c-.015.02,0,.038-.016.057-.067.029-.134.042-.2.078-.29.155-.58.313-.88.446a3.412,3.412,0,0,1-1.263.342,5.867,5.867,0,0,1-1.56-.136c-.279-.063-.562-.112-.844-.165a1.1,1.1,0,0,0-.877.177,6.7,6.7,0,0,1-1.039.582.989.989,0,0,1-.63.1,9.813,9.813,0,0,0-.978-.121,1.3,1.3,0,0,0-1.073.166.562.562,0,0,1-.629.061,1.424,1.424,0,0,0-.824-.171,4.276,4.276,0,0,1-.982-.09c-.611-.162-1.149.185-1.73.2-.067,0-.147.094-.195.162a1.293,1.293,0,0,1-1.328.545.637.637,0,0,0-.2-.023.759.759,0,0,0-.3.1c-.391.289-.767.6-1.158.886a3,3,0,0,1-.569.337,1.851,1.851,0,0,0-1.177,1.163.36.36,0,0,1-.1.171,4.472,4.472,0,0,1-.719.579,6.366,6.366,0,0,0-.773.5,1.159,1.159,0,0,1-.726.29.729.729,0,0,0-.684.444,1.521,1.521,0,0,1-.79.677.884.884,0,0,0-.515.48,6.023,6.023,0,0,1-.272.538,1.422,1.422,0,0,1-.9.739,4.353,4.353,0,0,0-.657.293,1.794,1.794,0,0,1-.364.145.535.535,0,0,0-.426.272.352.352,0,0,1-.212.138.589.589,0,0,0-.386.33,3.312,3.312,0,0,1-1.168,1.249,4.914,4.914,0,0,0-1.232,1,3.933,3.933,0,0,1-.344.312,2.126,2.126,0,0,0-.413.425.811.811,0,0,1-.549.43c-.276.068-.535.209-.809.286a2.318,2.318,0,0,0-1.122.673.926.926,0,0,1-.564.316,2.481,2.481,0,0,0-1.02.451c-.324.228-.677.415-1.018.618a.879.879,0,0,0-.422.406,1.947,1.947,0,0,1-.19.319c-.027.443-.034.8-.074,1.152a1.611,1.611,0,0,1-.469.941c-.385.4-.8.764-1.2,1.147a.986.986,0,0,0-.118.16c-.14.2-.287.4-.416.6a1.342,1.342,0,0,0-.2.416,2.293,2.293,0,0,1-.592,1.106,3.871,3.871,0,0,0-1,1.484c-.037.122-.159.215-.218.333a5.613,5.613,0,0,0-.437.971c-.053.191.108.436.075.641-.037.232-.254.441-.268.668-.035.563-.207,1.1-.276,1.646a2.962,2.962,0,0,1-.729,1.614c-.335.387-.684.762-1.007,1.16a1.12,1.12,0,0,0-.311.574,13.709,13.709,0,0,0-.171,1.8.672.672,0,0,1-.31.7.764.764,0,0,0-.365.536,8.458,8.458,0,0,0-.247,1.3,6.344,6.344,0,0,1-.361,1.83A1.951,1.951,0,0,0,549.737,58a3.052,3.052,0,0,1,.059,1.186,3.546,3.546,0,0,0,.062,1.327c.059.213-.06.474-.069.714-.008.262.241.462.148.77a.889.889,0,0,0,.316.956c.45.411.478.666.123,1.154a2.211,2.211,0,0,0-.367,1.062c-.032.242-.084.481-.13.721-.017.087-.076.179-.06.256a1.382,1.382,0,0,1-.207.96.683.683,0,0,0,.054.76c.117.16.207.339.3.488-.049.518-.1,1-.136,1.491a.832.832,0,0,0,.04.39,2.284,2.284,0,0,1,.258,1.091.715.715,0,0,0,.055.192,6.645,6.645,0,0,1,.243,1.043,3.176,3.176,0,0,0,.5,1.2c.116.228.277.45.417.675a.889.889,0,0,1,.049,1.007,1.773,1.773,0,0,0-.213.906,7.009,7.009,0,0,0,.074,1.668.858.858,0,0,1-.085.65,1.136,1.136,0,0,0-.117.442,6.65,6.65,0,0,0,.583,2.458c.017.059.082.1.117.16.164.264.341.521.483.8a1.087,1.087,0,0,0,.424.5.808.808,0,0,1,.427.772,1.368,1.368,0,0,0,.391.96,1.771,1.771,0,0,1,.64,1.218,1.325,1.325,0,0,1,.816.844,6,6,0,0,0,.522,1.068,4.175,4.175,0,0,0,1.292,1.5,1.8,1.8,0,0,1,.731.993,5.762,5.762,0,0,0,.2.571,3.517,3.517,0,0,0,1.131,1.537,3.269,3.269,0,0,1,.676.616,2.057,2.057,0,0,1,.51.77.544.544,0,0,0,.2.261,6.815,6.815,0,0,0,.593.419c.189.119.417.227.462.454.083.416.431.668.565,1.051.046.134.2.236.313.337a2.274,2.274,0,0,0,.47.361.816.816,0,0,1,.425.487.938.938,0,0,0,.423.5c.074.043.174.095.2.165a.807.807,0,0,0,.383.441,1.408,1.408,0,0,0-.261.018.182.182,0,0,0-.108.14.4.4,0,0,0,.082.227.282.282,0,0,0,.174.068,2.277,2.277,0,0,1,.752.093c.032.017.054.054.083.077.006.024.026.034.03.06a.316.316,0,0,0,.117.155c.063.052.127.1.19.154.03.04.059.082.091.119a3.016,3.016,0,0,1,.885,1.619c.291-.325.578-.172.87-.113a.965.965,0,0,1,.7.526,1.6,1.6,0,0,0,.535.624.46.46,0,0,1,.18.258,1.2,1.2,0,0,0,.462.671c-.069.108-.123.19-.19.293a4.452,4.452,0,0,0,.5.333,4.813,4.813,0,0,0,.486.151,1.049,1.049,0,0,1,.274.151,1.243,1.243,0,0,0,1.385.268,5.159,5.159,0,0,1,1.651,1.463,1.7,1.7,0,0,0,.328.306c.377.279.822.481,1.01.964.007.019.029.032.045.045a7.281,7.281,0,0,1,1.155.924,4.4,4.4,0,0,1,1.206.935,2.535,2.535,0,0,0,.794.53,2.943,2.943,0,0,1,.955.64c.356.323.65.759,1.188.818a.354.354,0,0,1,.164.095,2.432,2.432,0,0,1,.609.564c.143.269.427.36.563.589a2.7,2.7,0,0,0,1.294,1.032,4.2,4.2,0,0,1,1.253.973.87.87,0,0,0,.183.181,1.255,1.255,0,0,1,.617.85c.125.047.224.087.324.122a1.363,1.363,0,0,1,.762.557,1.264,1.264,0,0,0,.544.442,1.115,1.115,0,0,1,.369.237,5.861,5.861,0,0,0,1.5,1.21A20.228,20.228,0,0,1,589.3,119.1a1.217,1.217,0,0,0,.9.744,1.91,1.91,0,0,1,.38.241,6,6,0,0,0,1.114.636.967.967,0,0,1,.692.629.7.7,0,0,0,.565.552,1.123,1.123,0,0,1,.286.142,19.351,19.351,0,0,1,2.02,1.594c.151.12.283.268.443.371a5.31,5.31,0,0,1,1.265,1.188,3.109,3.109,0,0,0,.617.563,10.134,10.134,0,0,1,1.759,1.3.313.313,0,0,0,.162.1c.336.065.472.345.64.6a1.6,1.6,0,0,0,.31.4,9.751,9.751,0,0,1,1.206.965c.206.213.475.349.607.651a1,1,0,0,0,.374.343c.513.356,1.032.7,1.551,1.049a1.952,1.952,0,0,1,.643.623,1.266,1.266,0,0,0,.358.364,12.99,12.99,0,0,1,1.692,1.284c.219.22.57.3.821.494.268.209.478.494.73.728a14.776,14.776,0,0,1,1.4,1.331,1.821,1.821,0,0,0,.774.562,1.366,1.366,0,0,1,.518.359,2.434,2.434,0,0,0,.73.617c.684.27,1.065.934,1.7,1.255a.3.3,0,0,1,.105.16,1.043,1.043,0,0,0,.659.576,1.083,1.083,0,0,1,.363.243,8.016,8.016,0,0,0,1.262,1.092,1.135,1.135,0,0,1,.064.113,1.1,1.1,0,0,0,.5.588c.088.051.207.112.234.195.13.4.47.551.789.714a.844.844,0,0,1,.551.612.368.368,0,0,0,.138.183c.5.416,1,.848,1.52,1.234a2.082,2.082,0,0,0,1.4.6c.056-.006.088.024.137.029a5.453,5.453,0,0,1,.663.645.7.7,0,0,0,.6.289c.066-.091.139-.195.211-.294.041.033.1.039.13.085a3.089,3.089,0,0,1,.214.325c.059.1.106.213.159.322l.861-.468c.231.293.475.563.813.412a2.114,2.114,0,0,1,1.145-.036l.253.441c.182.056.331.1.479.148.406.13.719.552,1.216.4a.08.08,0,0,1,.066.036c.117.227.315.237.533.237a.381.381,0,0,1,.277.124c.351.514,1.03.757,1.111,1.44.333.113.677.053.893.356a.4.4,0,0,0,.282.094c.258.01.518-.015.775,0a1.717,1.717,0,0,1,.6.094c.209.094.366.316.577.394a2.413,2.413,0,0,0,.669.049.109.109,0,0,1,.069.034c.227.248.526.124.766.115a1.819,1.819,0,0,0,.173.23c.314.289.469.771.992.814.093.008.177.177.259.277a7.7,7.7,0,0,0,.907,1.075,9.229,9.229,0,0,1,.7.606,1.8,1.8,0,0,0,1.113.652c.432.026.9.4,1.325-.051.038-.04.149-.021.224-.012a2.586,2.586,0,0,0,1.215-.184,1.255,1.255,0,0,1,.984-.041.9.9,0,0,0,.452-.01c.461-.069.918-.168,1.381-.22a1.944,1.944,0,0,0,.6-.1,1.255,1.255,0,0,1,1.065.023,9.454,9.454,0,0,0,1.469.483c.508.158,1.085.24,1.375.812.039.075.168.108.261.149a3.906,3.906,0,0,1,.426.179c.156.092.28.256.444.316a2.336,2.336,0,0,0,.575.068c.041.118.066.192.094.266a1.541,1.541,0,0,0,2.025,1.09c.618-.165,1.259-.242,1.885-.357l.311.28c.5-.465,1-.837,1.672-.554.247-.157.463-.3.688-.433a1.089,1.089,0,0,1,.419-.17,2.681,2.681,0,0,0,1.148-.44c.492-.3.948-.657,1.458-.913a9.034,9.034,0,0,1,1.745-.815,2.944,2.944,0,0,1,1.458-.062,2.246,2.246,0,0,0,1.436-.171.889.889,0,0,1,.362-.1c.3.014.572.027.725-.316.023-.051.182-.048.279-.054a4.429,4.429,0,0,0,1.3-.464c.407-.561,1.091-.893,1.246-1.6a1.526,1.526,0,0,1,.942-.124,1.266,1.266,0,0,0,.446-.061,6.067,6.067,0,0,1,1.886-.344.935.935,0,0,0,.522-.067,2.714,2.714,0,0,1,1.331-.383,1.868,1.868,0,0,0,.789-.286,4.461,4.461,0,0,1,1.295-.51,6.15,6.15,0,0,0,1.18-.364,6.664,6.664,0,0,1,1.213-.266.377.377,0,0,0,.075-.02,15.02,15.02,0,0,0,2.781-1.376.518.518,0,0,1,.357-.125,1.148,1.148,0,0,0,.791-.151,1.08,1.08,0,0,0-.032.111.186.186,0,0,0,.091.152.38.38,0,0,0,.238,0,.281.281,0,0,0,.123-.142c.06-.121.108-.255.162-.382.366-.154.733-.306,1.091-.478a1.146,1.146,0,0,0,.387-.308,2.328,2.328,0,0,1,1.207-.082c-.174-.345-.007-.558.143-.78.064-.015.115-.052.183-.063.2-.033.387-.166.588-.2a1.26,1.26,0,0,0,.974-.645c.037-.007.071-.034.1-.028a1.167,1.167,0,0,0,.78-.206l.2.284a4.6,4.6,0,0,0,.483-.363,4.9,4.9,0,0,0,.309-.411,1.052,1.052,0,0,1,.234-.208,1.286,1.286,0,0,0,.733-1.227,5.1,5.1,0,0,1,1.924-1.062,1.68,1.68,0,0,0,.4-.2,2.356,2.356,0,0,1,1.241-.626.13.13,0,0,0,.057-.027,7.281,7.281,0,0,1,1.254-.778,4.377,4.377,0,0,1,1.283-.822,2.532,2.532,0,0,0,.766-.572,2.967,2.967,0,0,1,.923-.686c.422-.226.926-.354,1.169-.846a.352.352,0,0,1,.145-.123,2.385,2.385,0,0,1,.732-.383c.3-.042.481-.282.738-.331a2.681,2.681,0,0,0,1.4-.872,4.2,4.2,0,0,1,1.335-.854.876.876,0,0,0,.23-.111,1.222,1.222,0,0,1,1-.291c.087-.1.157-.182.225-.266a1.366,1.366,0,0,1,.78-.531,1.256,1.256,0,0,0,.6-.364,1.115,1.115,0,0,1,.347-.269,5.792,5.792,0,0,0,1.639-1.008,20.144,20.144,0,0,1,1.809-.968,1.206,1.206,0,0,0,1-.6,1.881,1.881,0,0,1,.355-.278,6.165,6.165,0,0,0,.976-.84.952.952,0,0,1,.821-.439.686.686,0,0,0,.705-.346,1.2,1.2,0,0,1,.231-.224,19.386,19.386,0,0,1,2.174-1.367c.163-.1.345-.176.5-.292a5.2,5.2,0,0,1,1.536-.79,3.02,3.02,0,0,0,.733-.391,10.145,10.145,0,0,1,1.813-1.222.328.328,0,0,0,.148-.119c.178-.3.483-.33.772-.4a1.544,1.544,0,0,0,.477-.154,9.7,9.7,0,0,1,1.311-.812,2.273,2.273,0,0,1,.812-.351.99.99,0,0,0,.446-.236c.507-.365,1.008-.738,1.508-1.111a1.924,1.924,0,0,1,.8-.395,1.239,1.239,0,0,0,.46-.214,12.808,12.808,0,0,1,1.774-1.163c.28-.133.474-.441.742-.611.287-.182.622-.283.925-.441a14.582,14.582,0,0,1,1.715-.867,1.831,1.831,0,0,0,.789-.541,1.376,1.376,0,0,1,.511-.369,2.4,2.4,0,0,0,.824-.48c.487-.557,1.232-.688,1.749-1.179a.3.3,0,0,1,.184-.044,1.031,1.031,0,0,0,.76-.426,1.085,1.085,0,0,1,.352-.261,5.614,5.614,0,0,0,1.9-1.162.411.411,0,0,1,.163-.1,14.937,14.937,0,0,0,1.682-.983h0l.265.238c.418-.394.844-.709,1.415-.47.21-.133.393-.258.584-.367a.928.928,0,0,1,.355-.144,2.257,2.257,0,0,0,.972-.373c.417-.25.8-.557,1.236-.773a7.628,7.628,0,0,1,1.478-.691,2.5,2.5,0,0,1,1.235-.052,1.908,1.908,0,0,0,1.217-.145.763.763,0,0,1,.307-.088c.252.012.484.023.614-.267.019-.043.154-.041.236-.046a3.758,3.758,0,0,0,1.1-.393c.345-.476.925-.757,1.056-1.36a1.3,1.3,0,0,1,.8-.1,1.067,1.067,0,0,0,.378-.052,5.116,5.116,0,0,1,1.6-.291.807.807,0,0,0,.443-.057,2.3,2.3,0,0,1,1.127-.325,1.594,1.594,0,0,0,.669-.241,3.746,3.746,0,0,1,1.1-.432,5.308,5.308,0,0,0,1-.309,5.687,5.687,0,0,1,1.027-.226.233.233,0,0,0,.064-.017,12.759,12.759,0,0,0,2.357-1.166.443.443,0,0,1,.3-.106c.363.085.639-.124.939-.25.386-.161.772-.322,1.149-.5a.942.942,0,0,0,.357-.285,1.815,1.815,0,0,1,1.27-.76c.171-.028.327-.141.5-.173a1.013,1.013,0,0,0,.913-.663.189.189,0,0,1,.084-.1,1.338,1.338,0,0,0,.618-.834,2.216,2.216,0,0,1,.212-.332.837.837,0,0,0,.145-.287c.067-.517.493-.9.5-1.438a.215.215,0,0,1,.061-.117,2.613,2.613,0,0,0,.4-.434c.081-.144.308-.2.454-.289l.237-1.389c.119-.031.226-.028.282-.081a1.529,1.529,0,0,0,.585-.769,1.7,1.7,0,0,1,.7-1.173c.072-.045.115-.136.178-.2.223-.215.441-.435.676-.636a1.185,1.185,0,0,0,.411-.592,1.054,1.054,0,0,1,.188-.424,1.488,1.488,0,0,0,.317-.794,1.51,1.51,0,0,1,.685-1.1,1.417,1.417,0,0,0,.511-.6c.068-.133.183-.318.3-.335.313-.047.43-.258.568-.5a1.177,1.177,0,0,1,.784-.608,1.018,1.018,0,0,0,.05-.1,2.815,2.815,0,0,1,.575-1.4.585.585,0,0,0,.071-.376c0-.178-.063-.355-.062-.533a.543.543,0,0,1,.1-.369c.42-.349.422-.928.737-1.329.008-.329.246-.5.453-.695a2.593,2.593,0,0,0,.76-1.314c.1-.454.147-.921.21-1.384.054-.4.088-.8.151-1.2.019-.123.075-.293.165-.34.368-.193.408-.632.689-.884a.239.239,0,0,0,.059-.186c-.078-.436.334-.784.206-1.232-.018-.063.068-.157.108-.235.071-.138.153-.27.212-.412.119-.286.225-.579.337-.868a2.132,2.132,0,0,0,.285-.882.468.468,0,0,1,.269-.431.747.747,0,0,0,.368-.74.946.946,0,0,1,.652-.975,1.577,1.577,0,0,0,.47-.355.935.935,0,0,0,.076-1.225c-.05-.073-.123-.131-.172-.2a.522.522,0,0,1-.059-.623c.129-.2.051-.367-.081-.548a8.133,8.133,0,0,1-.53-.848.582.582,0,0,1-.1-.379,11.509,11.509,0,0,0,.174-1.442,2.986,2.986,0,0,0,.031-.39c0-.153,0-.305,0-.458a1.8,1.8,0,0,0,.014-.326,7.837,7.837,0,0,1-.017-2.334,2.342,2.342,0,0,0-.011-.867,5.543,5.543,0,0,1-.17-2.505.3.3,0,0,0-.01-.2,1.178,1.178,0,0,1-.008-.974c.06-.266-.133-.5-.082-.714a1.478,1.478,0,0,0,.051-.716,2.435,2.435,0,0,1-.028-.4l.947-.151C786.566,54.784,786.6,54.721,786.38,54.127Z"/><path class="cls-1" d="M814.372,162.519a.781.781,0,0,1,.049-.644.327.327,0,0,0,.027-.177c-.024-.513-.035-1.029-.084-1.539a1.874,1.874,0,0,0-.334-1.14c-.185-.2-.158-.436-.219-.663-.067-.25-.235-.463-.192-.753a2.929,2.929,0,0,1,.061-.3c.023-.088.056-.174.084-.262l-.609-.26c.039-.289.06-.574-.163-.693a1.6,1.6,0,0,1-.527-.653c.037-.14.071-.273.1-.38-.054-.136-.1-.247-.142-.358-.118-.307-.055-.712-.348-.925a.071.071,0,0,1-.012-.058.449.449,0,0,0-.123-.437.34.34,0,0,1-.064-.227c.09-.475-.1-1,.2-1.407-.094-.255-.276-.425-.227-.71a.353.353,0,0,0-.08-.216c-.111-.156-.237-.3-.346-.453a1.4,1.4,0,0,1-.223-.4c-.048-.172-.011-.38-.067-.545a1.986,1.986,0,0,0-.275-.418.1.1,0,0,1-.014-.059c.017-.263-.174-.373-.286-.509a1.546,1.546,0,0,0,.033-.222c0-.336.162-.68-.05-1.009-.038-.06.006-.2.017-.3a6.954,6.954,0,0,0,.113-1.1c-.01-.241-.032-.488-.022-.729a1.673,1.673,0,0,0-.181-1c-.18-.267-.21-.738-.615-.751-.036,0-.076-.076-.105-.125a1.842,1.842,0,0,0-.63-.616.955.955,0,0,1-.457-.556.677.677,0,0,0-.206-.26c-.238-.234-.489-.451-.72-.7a1.368,1.368,0,0,0-.319-.3.983.983,0,0,1-.463-.637,8.361,8.361,0,0,0-.421-1.116,1.762,1.762,0,0,1-.222-1.232.494.494,0,0,0-.044-.231c-.032-.116-.083-.226-.1-.344a3.05,3.05,0,0,0-.046-.427,1.891,1.891,0,0,0-.223-.372c.039-.087.063-.141.086-.2a1.36,1.36,0,0,0-.377-1.759c-.355-.277-.677-.613-1.011-.92,0-.119,0-.215,0-.33a2.169,2.169,0,0,1-.322-.084.836.836,0,0,1-.688-.606c-.185-.063-.353-.112-.514-.177a.7.7,0,0,1-.269-.156,1.694,1.694,0,0,0-.722-.444c-.36-.133-.737-.212-1.087-.377a5.527,5.527,0,0,1-1.168-.6,2.241,2.241,0,0,1-.678-.823,1.63,1.63,0,0,0-.722-.753.588.588,0,0,1-.21-.159c-.126-.182-.242-.35-.475-.26-.034.014-.1-.081-.149-.135a2.872,2.872,0,0,0-.8-.519c-.451.056-.915-.172-1.325.111a1.106,1.106,0,0,1-.479-.488.923.923,0,0,0-.228-.23c-.193-.147-.386-.294-.57-.456a2.648,2.648,0,0,1-.435-.47c-.074-.107-.163-.24-.264-.272a1.8,1.8,0,0,1-.777-.58,1.19,1.19,0,0,0-.488-.313,2.814,2.814,0,0,1-.821-.493,4.044,4.044,0,0,0-.7-.5,4.669,4.669,0,0,1-.668-.572.174.174,0,0,0-.043-.034,9.112,9.112,0,0,0-1.9-.911.34.34,0,0,1-.219-.143c-.142-.3-.406-.366-.635-.5-.294-.167-.589-.335-.889-.484a.628.628,0,0,0-.349-.072,1.266,1.266,0,0,1-1.1-.409c-.105-.1-.252-.139-.36-.237-.259-.236-.523-.4-.854-.223a.119.119,0,0,1-.1,0,.873.873,0,0,0-.8.089,1.561,1.561,0,0,1-.3.058.557.557,0,0,0-.238.077c-.328.273-.77.217-1.08.541a.145.145,0,0,1-.1.03,1.657,1.657,0,0,0-.457-.009c-.124.032-.277-.089-.4-.136l-.912.695c-.081-.063-.135-.139-.194-.145a1,1,0,0,0-.744.07,1.124,1.124,0,0,1-1.03.244.935.935,0,0,0-.2,0c-.239-.021-.478-.037-.716-.075a.773.773,0,0,0-.551.082.74.74,0,0,1-.339.133,1.019,1.019,0,0,0-.617.271,1,1,0,0,1-.983.206.919.919,0,0,0-.608.017c-.111.035-.276.069-.347,0-.191-.187-.371-.137-.579-.086a.793.793,0,0,1-.756-.167.643.643,0,0,0-.083.028,1.931,1.931,0,0,1-1.1.469c-.082,0-.18.1-.251.184-.1.113-.168.263-.269.372-.072.078-.183.172-.263.158-.419-.074-.748.282-1.141.312-.191.2-.41.136-.632.117a1.713,1.713,0,0,0-1.144.286c-.31.211-.6.468-.894.711-.254.209-.5.434-.757.636-.08.062-.206.129-.28.1-.3-.136-.573.108-.863.07a.166.166,0,0,0-.136.074c-.207.324-.621.253-.807.619-.026.052-.125.05-.191.071-.114.036-.232.061-.343.108-.226.1-.447.2-.67.3a1.483,1.483,0,0,0-.649.348.317.317,0,0,1-.386.081.511.511,0,0,0-.613.2.639.639,0,0,1-.895.152.953.953,0,0,0-.214-.05,1.12,1.12,0,0,0-.234-.056.75.75,0,0,0-.735.706c-.015.08-.009.166-.025.245-.041.211-.116.386-.322.426-.182.036-.235.193-.268.395-.047.29-.119.576-.194.857-.158.175-.3.367-.449.556-.212.182-.412.384-.632.553a2.451,2.451,0,0,0-.238.22c-.088.091-.172.188-.261.28a1.583,1.583,0,0,0-.192.192c-.008.013-.02.02-.029.032a8.042,8.042,0,0,0-3.285,2.53,4.909,4.909,0,0,1-1.736,1.581,1.689,1.689,0,0,0-.637.639c-.135-.048-.216.058-.355.389a.962.962,0,0,1-.052.107c-.013.023-.013.048-.024.072a3.463,3.463,0,0,1-2.074,1.336c-.25.045-.463.384-.693.587-.269.239-.51.585-.812.7a18.693,18.693,0,0,1-4.517,1.456,3.247,3.247,0,0,0-.629.21,3.1,3.1,0,0,1-1.719,1.95,1.581,1.581,0,0,0-.569.546,1.982,1.982,0,0,1-1.13.748,8.044,8.044,0,0,0-3.609,2.247,2.168,2.168,0,0,1-.734.548c-1.237.533-2.48,1.052-3.731,1.534a1.92,1.92,0,0,1-1.714-.078,9.51,9.51,0,0,0-1.718-.569c-.5.48-1.022.925-1.491,1.433a1.8,1.8,0,0,1-1.029.623c-1.5.239-2.913.96-4.43,1.088a2.893,2.893,0,0,1-2.94.333,8.222,8.222,0,0,0-1.48.726,1.692,1.692,0,0,1-2.321.095,1.339,1.339,0,0,0-1.8-.045c-.113.088-.283.074-.474.118-.579-.321-1.168-.783-1.906-.565a.639.639,0,0,1-.556-.143,2,2,0,0,0-2.244-.246,2.227,2.227,0,0,1-1.866-.123,1.435,1.435,0,0,0-1.25-.033,7.7,7.7,0,0,1-3.3.325,3.356,3.356,0,0,0-2.568.426.926.926,0,0,1-.57.141,4.925,4.925,0,0,0-2.9.96,3.2,3.2,0,0,0-2.2-.047,9.245,9.245,0,0,1-2.1.75,9.458,9.458,0,0,0-3.046,1.222,3.981,3.981,0,0,1-2.122.549,10.944,10.944,0,0,0-3.334.405,12.615,12.615,0,0,1-3.743.706,2.681,2.681,0,0,0-2.583,1.338.61.61,0,0,1-.513.269,3.96,3.96,0,0,1-1.567-.3,4.178,4.178,0,0,0-1.549-.4,6.5,6.5,0,0,0-2.467.359c-.1.023-.186.028-.28.044-.035-.03-.073-.04-.107-.073-.106-.1-.252-.139-.361-.238-.259-.235-.523-.4-.855-.222a.123.123,0,0,1-.1,0,.685.685,0,0,0-.576.009c-.074.026-.148.046-.221.079a1.562,1.562,0,0,1-.3.059.571.571,0,0,0-.239.077c-.328.273-.769.217-1.079.541a.139.139,0,0,1-.1.029,1.7,1.7,0,0,0-.457-.008c-.124.032-.277-.089-.4-.136l-.912.7c-.081-.063-.135-.139-.194-.145a1,1,0,0,0-.744.07,2.017,2.017,0,0,1-.292.15,1.767,1.767,0,0,0-.911-.023.626.626,0,0,1-.714-.2,2.625,2.625,0,0,0-2.443-.795,1.63,1.63,0,0,1-.764-.026.53.53,0,0,0-.307-.038,2.71,2.71,0,0,1-1.523-.257,3.274,3.274,0,0,0-1.578-.3c-.171.032-.285-.081-.415-.188a5.178,5.178,0,0,0-.658-.432.261.261,0,0,0-.223-.028.659.659,0,0,1-.856-.18.4.4,0,0,0-.139-.078c-.123-.044-.278-.153-.369-.108-.42.207-.78-.219-1.2-.087a1.842,1.842,0,0,1-1.79-.257.643.643,0,0,0-.446-.1,3.136,3.136,0,0,1-1.742-.307.489.489,0,0,0-.3-.047,1.939,1.939,0,0,1-1.148-.165,3.335,3.335,0,0,0-.456-.112,9.359,9.359,0,0,1-1.062-.25,3.232,3.232,0,0,0-1.685-.219.409.409,0,0,1-.228-.007,15.364,15.364,0,0,0-2.8-.623,13.979,13.979,0,0,1-2.8-.75,4,4,0,0,0-1.285-.34,4.113,4.113,0,0,1-1.192-.332,5.772,5.772,0,0,0-1.676-.317,2.735,2.735,0,0,1-1.276-.319,1.607,1.607,0,0,0-1.057-.173,1.356,1.356,0,0,1-.53.011c-1.131-.322-2.253-.674-3.383-1-.578-.164-1.163-.3-1.75-.417a1.6,1.6,0,0,0-.7.012.806.806,0,0,1-.806-.155c-.225-.191-.5-.313-.55-.68-.006-.042-.073-.073-.136-.132a.823.823,0,0,0-.28.057,1.257,1.257,0,0,1-1.275.1,1.857,1.857,0,0,0-.536-.1,12.424,12.424,0,0,1-1.685-.342c-.676-.2-1.373-.3-2.061-.446a1.79,1.79,0,0,1-.381-.088,5.906,5.906,0,0,0-1.554-.417,1.418,1.418,0,0,0-.322-.228c-.194-.115-.389-.23-.588-.333a.412.412,0,0,0-.232-.052.852.852,0,0,1-.729-.286c-.069-.069-.166-.1-.238-.163-.171-.161-.345-.274-.568-.159a.079.079,0,0,1-.067,0,.585.585,0,0,0-.532.05,1.018,1.018,0,0,1-.2.035.371.371,0,0,0-.159.049.617.617,0,0,1-.169.074,4.006,4.006,0,0,0-.584-.1c-.118,0-.234-.042-.352-.049-.06.058-.135.111-.157.183a1.06,1.06,0,0,1-.082.161l-.018-.006-.613.452c-.054-.043-.089-.094-.128-.1a.667.667,0,0,0-.5.038.748.748,0,0,1-.688.15.624.624,0,0,0-.137,0c-.159-.017-.319-.03-.477-.059a.515.515,0,0,0-.368.048.472.472,0,0,1-.227.084.677.677,0,0,0-.413.174.666.666,0,0,1-.657.125.614.614,0,0,0-.406,0c-.074.022-.185.043-.231,0-.126-.127-.246-.1-.385-.065a.53.53,0,0,1-.5-.12.371.371,0,0,0-.055.018,1.286,1.286,0,0,1-.736.3c-.054,0-.12.067-.168.12-.067.074-.115.173-.183.245-.049.05-.123.112-.177.1-.278-.055-.5.178-.762.194-.129.13-.275.085-.423.069a1.148,1.148,0,0,0-.765.177c-.208.138-.4.306-.6.464-.171.136-.337.283-.511.414-.053.041-.138.084-.187.061-.2-.094-.382.065-.575.036a.112.112,0,0,0-.092.048c-.14.213-.415.161-.543.4-.018.034-.083.032-.127.045a2.1,2.1,0,0,0-.231.068c-.15.06-.3.129-.449.194a.981.981,0,0,0-.435.224.21.21,0,0,1-.258.049.339.339,0,0,0-.41.128.425.425,0,0,1-.6.09.715.715,0,0,0-.3-.076.5.5,0,0,0-.5.461c-.01.054-.007.111-.018.164-.03.14-.081.256-.218.28s-.159.125-.183.26a5.684,5.684,0,0,1-.142.593.352.352,0,0,1-.112.2,5.825,5.825,0,0,0-.612.5,1.53,1.53,0,0,0-.16.144c-.06.059-.117.123-.177.183a1.031,1.031,0,0,0-.13.126,4.267,4.267,0,0,1-.888.955,1.277,1.277,0,0,0-.328.356,3.129,3.129,0,0,1-.9,1.1.168.168,0,0,0-.073.085c-.052.23-.224.3-.37.4-.123.08-.144.262-.246.328a.772.772,0,0,0-.292.266,1.267,1.267,0,0,1-.141.174c-.139-.138-.261-.261-.384-.382-.26-.257-.3-.249-.447.1a.591.591,0,0,1-.036.071.983.983,0,0,0-.108.745.607.607,0,0,1-.006.322,3.321,3.321,0,0,0-.252,1.1.327.327,0,0,1-.027.119,2.663,2.663,0,0,0-.142.756.386.386,0,0,1-.087.209,7.11,7.11,0,0,1-.572.567,1.742,1.742,0,0,0-.364.428c-.106.172-.06.4-.167.564a.187.187,0,0,0,.012.156c.146.2.286.425.541.432.051,0,.09.007.091.106a.867.867,0,0,1-.1.075.364.364,0,0,0-.189.386,1.063,1.063,0,0,1-.178.686,1.182,1.182,0,0,0-.183.48c-.065.333-.111.672-.146,1.012a.627.627,0,0,1-.15.438.28.28,0,0,0-.059.184,3.335,3.335,0,0,1-.2,1.037,1.918,1.918,0,0,1-.457.875c-.012.183-.033.346-.032.509a1.123,1.123,0,0,1-.12.506.855.855,0,0,0-.021.2,2.072,2.072,0,0,1-.048.237c-.049.19-.172.359-.11.579-.148.62-.235,1.261-.427,1.866a3.845,3.845,0,0,0-.159.586c-.032.223-.091.381-.29.454a.342.342,0,0,0-.194.392,3.135,3.135,0,0,0,.181.874c.205.429.378.88.589,1.3a3.8,3.8,0,0,1,.3,1.17,2.208,2.208,0,0,0,.174.66,2.361,2.361,0,0,1,.205.685,1.4,1.4,0,0,1-.109.827.843.843,0,0,0-.061.271c-.01.161-.064.251-.2.281a.417.417,0,0,0-.326.376,1.564,1.564,0,0,0,.174,1.1,4.6,4.6,0,0,1,.32.63,2.723,2.723,0,0,1,.225.5,1.881,1.881,0,0,0,.207.469,3.623,3.623,0,0,1,.51,1.419,1.94,1.94,0,0,0,.293.864,7.134,7.134,0,0,1,.526,1,.893.893,0,0,1,.057.233,1.931,1.931,0,0,0,.019.245,7.14,7.14,0,0,0,.242.9c.1.231.2.466.279.706.154.443.316.881.509,1.3a.929.929,0,0,1,.053.151,1.886,1.886,0,0,0,.32.716.851.851,0,0,1,.094.214c.034.085.061.176.1.259a1.733,1.733,0,0,0,.417.692c.08.062.11.208.182.293.179.209.354.425.539.627a4.06,4.06,0,0,0,.618.586.408.408,0,0,1,.165.2.572.572,0,0,0,.367.4c.16.073.32.145.474.231a1.818,1.818,0,0,1,.566.453,3.793,3.793,0,0,1,.485.785c.072.156.15.309.227.462a.608.608,0,0,0,.37.339,3.153,3.153,0,0,1,.581.25.562.562,0,0,1,.257.253c.073.193.2.329.29.507a.728.728,0,0,0,.433.434.329.329,0,0,1,.24.27.945.945,0,0,0,.218.455,2.754,2.754,0,0,1,.3.5c.148.351.466.462.672.727.025.031.087.031.129.025a.653.653,0,0,1,.666.4.447.447,0,0,0,.059.1.4.4,0,0,0,.144.1c.245.065.493.116.738.182a1.415,1.415,0,0,1,.325.13,1.648,1.648,0,0,0,.229.087c-.028.031-.052.064-.08.094a1.066,1.066,0,0,1-.256.17,2.381,2.381,0,0,0-.346.262,2.58,2.58,0,0,1,.618.232.743.743,0,0,0,.953-.08.36.36,0,0,1,.5-.04,4.146,4.146,0,0,0,.524.337,4.4,4.4,0,0,1,.275.674c.069.2.118.4.17.608a.815.815,0,0,1,.051.309,4.53,4.53,0,0,0,.083,1.2,1.325,1.325,0,0,0,.177.412,3.219,3.219,0,0,1,.53.584c.191.262.337.566.522.834a3.052,3.052,0,0,1,.565,1.515.99.99,0,0,0,.211.582,1.017,1.017,0,0,1,.333,1.179c.586.55,1.119,1.032,1.631,1.543a1.833,1.833,0,0,1,.3.538,9.272,9.272,0,0,0,1.306,2.358,5.4,5.4,0,0,0,.418.448,1.839,1.839,0,0,1,.626,1.062.914.914,0,0,0,.115.345,5.078,5.078,0,0,1,.551,2.3c.012.09-.033.194-.008.275.208.646-.124,1.184-.234,1.763-.028.148-.2.258-.326.413a1.147,1.147,0,0,0,.214.275,21.337,21.337,0,0,1,1.819,1.583,5.459,5.459,0,0,1,1.376,1.578,1.3,1.3,0,0,0,.363.366c.342.259.683.521,1.041.747a3.644,3.644,0,0,1,1.294,2.275,7.847,7.847,0,0,0,.3.9c.067.134.121.277.167.386,0,.1.013.175-.013.217a2.232,2.232,0,0,0-.077,1.848,5.312,5.312,0,0,0,.93,1.95,1.658,1.658,0,0,1,.266,1.533.565.565,0,0,1-.089.252,1.94,1.94,0,0,0-.233,1.73c.155.843.367,1.677.474,2.525a26.227,26.227,0,0,0,.875,3.948,5.156,5.156,0,0,1,.151.911,2.04,2.04,0,0,0,.385,1.087c.009.709.017,1.32.024,1.931a1.429,1.429,0,0,1-.008.365,2.38,2.38,0,0,0,.513,2.127,2.079,2.079,0,0,1,.341,1.305,4.969,4.969,0,0,0,.339,1.7,1.834,1.834,0,0,1,.132.9,4.417,4.417,0,0,0,.167,1.55,10.915,10.915,0,0,1,.314,1.717,5.5,5.5,0,0,0,.33,1.607,3.841,3.841,0,0,1,.194,1.447c-.028.982-.232,1.933-.3,2.906a2.13,2.13,0,0,0,.108,1.17.965.965,0,0,1-.083.959,1.275,1.275,0,0,0-.126.969,4.776,4.776,0,0,1,.082,1.376,1.993,1.993,0,0,0,.055.642,9.856,9.856,0,0,1,.143,2.386,1.446,1.446,0,0,1-.041.257.679.679,0,0,1-.323.192c-.293.054-.507.41-.846.393-.092,0-.187.089-.281.137-.208.106-.41.227-.623.314a.779.779,0,0,0-.492.41.433.433,0,0,1-.388.312.383.383,0,0,0-.269.137s0,.009,0,.014a5,5,0,0,1-.287,1.561,2.893,2.893,0,0,1-.669,1.326c-.014.274-.042.519-.037.763a1.72,1.72,0,0,1-.17.763,1.273,1.273,0,0,0-.028.3c-.017.121-.039.241-.067.358-.071.286-.252.543-.156.871-.209.935-.327,1.9-.605,2.811a5.718,5.718,0,0,0-.226.883c-.045.335-.13.574-.426.688a.519.519,0,0,0-.285.594,4.735,4.735,0,0,0,.289,1.306c.315.637.583,1.309.909,1.939a5.708,5.708,0,0,1,.478,1.747,3.294,3.294,0,0,0,.272.985,3.52,3.52,0,0,1,.322,1.022,2.119,2.119,0,0,1-.148,1.243,1.24,1.24,0,0,0-.087.409c-.011.241-.092.377-.3.427a.628.628,0,0,0-.482.572,2.336,2.336,0,0,0,.283,1.647c.006.009.009.021.016.03a5.685,5.685,0,0,0-.136,2.243,1.115,1.115,0,0,1-.162.867,1.873,1.873,0,0,0-.176.324,6.364,6.364,0,0,0-.056,1.443,3.217,3.217,0,0,1-.064,1,3.455,3.455,0,0,0-.073,1.19,1.377,1.377,0,0,1-.152.9c-.091.173-.148.362-.226.54.136.062.279.112.41.187.216.122.323.431.591.474a.129.129,0,0,1,.054.019,4.379,4.379,0,0,1,.666.578,5.493,5.493,0,0,0,.395.451,1.819,1.819,0,0,1,.657,1.008.519.519,0,0,0,.486.461.422.422,0,0,1,.3.141c.358.489.94.645,1.283,1.151a5.65,5.65,0,0,1,1.144,1.041,1.239,1.239,0,0,1,.362.484.5.5,0,0,0,.316.347.59.59,0,0,1,.414.433c.117-.018.224-.047.325-.064.03.028.043.07.077.1.12.092.168.31.278.434.272.31.537.628.819.927a6.075,6.075,0,0,0,.938.861.608.608,0,0,1,.251.29.857.857,0,0,0,.559.583c.24.105.482.208.715.333a2.708,2.708,0,0,1,.856.663,5.6,5.6,0,0,1,.743,1.165c.1.209.208.413.315.617l.035.069a.9.9,0,0,0,.561.5,4.757,4.757,0,0,1,.875.36.824.824,0,0,1,.39.372c.116.288.314.489.446.753a1.091,1.091,0,0,0,.657.64.487.487,0,0,1,.365.4,1.435,1.435,0,0,0,.336.677,4.12,4.12,0,0,1,.465.736c.229.523.708.681,1.023,1.073.037.046.13.044.194.035a.971.971,0,0,1,1.006.583.624.624,0,0,0,.091.149.578.578,0,0,0,.217.146c.369.092.742.161,1.111.253a2.158,2.158,0,0,1,.49.186,1.221,1.221,0,0,0,1.277.1.239.239,0,0,1,.149-.037,2.889,2.889,0,0,1,.706.14,4.441,4.441,0,0,0,.693.224.858.858,0,0,1,.544.323.513.513,0,0,0,.612.2,1.012,1.012,0,0,1,.8.128.588.588,0,0,0,.543.06,4.176,4.176,0,0,1,.448-.145.949.949,0,0,1,.889.164,3.3,3.3,0,0,0,.511.273,1.3,1.3,0,0,1,.273.163.373.373,0,0,0,.379.126.245.245,0,0,1,.189.062.4.4,0,0,0,.39.064,2.142,2.142,0,0,1,1.322.035,3.236,3.236,0,0,0,1.214.234,2.614,2.614,0,0,1,.358.045,1.366,1.366,0,0,0,.457.024.549.549,0,0,1,.532.113c.185.149.4.242.588.384a1.6,1.6,0,0,0,.97.36.655.655,0,0,1,.475.2,1.821,1.821,0,0,0,.793.427c.3.084.59.212.884.323a.578.578,0,0,0,.452.041,1.346,1.346,0,0,1,.281-.066c.265-.255.471-.471.692-.661a1.079,1.079,0,0,1,.779-.258c.427.021.853.08,1.279.12a.665.665,0,0,0,.153-.017c.187-.027.375-.047.561-.086a.915.915,0,0,0,.339-.122,1.517,1.517,0,0,1,.937-.275,2.514,2.514,0,0,0,1.366-.225c.089-.05.205-.024.3-.056l.006,0a3.758,3.758,0,0,0,.774-.3c.135-.081.19-.345.323-.449.151-.117.384-.1.52-.227.337-.325.73-.535,1.078-.827a2,2,0,0,1,1.3-.494h.045c.381-.007.762,0,1.142-.021a.746.746,0,0,0,.489-.139,10.785,10.785,0,0,0,1.109-.994.465.465,0,0,1,.558-.216.5.5,0,0,0,.495-.08,6.288,6.288,0,0,0,.868-.635,4.732,4.732,0,0,1,1.227-.882,2.53,2.53,0,0,0,.479-.294,12.662,12.662,0,0,1,3.682-.421,3.266,3.266,0,0,0,.663-.1,2.93,2.93,0,0,1,1.989-1.653,1.488,1.488,0,0,0,.645-.448,1.9,1.9,0,0,1,1.24-.547,7.711,7.711,0,0,0,3.938-1.6,2.057,2.057,0,0,1,.813-.418c1.319-.311,2.642-.605,3.97-.86a2,2,0,0,1,1.724.395,10.171,10.171,0,0,0,1.663.893c.573-.391,1.152-.746,1.693-1.172a1.728,1.728,0,0,1,1.12-.44c1.546.036,3.069-.431,4.619-.28a2.957,2.957,0,0,1,3.017.207,7.914,7.914,0,0,0,1.589-.459,1.743,1.743,0,0,1,2.36.333,1.391,1.391,0,0,0,1.813.379c.126-.069.295-.023.494-.032.545.432,1.081,1.008,1.855.924a.685.685,0,0,1,.544.248,2.107,2.107,0,0,0,2.238.664,2.331,2.331,0,0,1,1.871.47,1.5,1.5,0,0,0,1.26.265,7.854,7.854,0,0,1,3.377.282,3.4,3.4,0,0,0,2.651.045.917.917,0,0,1,.6-.038,4.865,4.865,0,0,0,3.052-.434,3.342,3.342,0,0,0,2.22.455,9.1,9.1,0,0,1,2.22-.37,9.25,9.25,0,0,0,3.236-.672,3.974,3.974,0,0,1,2.218-.162,11.176,11.176,0,0,0,3.424.208,12.678,12.678,0,0,1,3.874-.022,2.609,2.609,0,0,0,2.786-.875.589.589,0,0,1,.552-.177,4.251,4.251,0,0,1,1.546.6,4.49,4.49,0,0,0,1.514.695,6.6,6.6,0,0,0,2.541.094,2.982,2.982,0,0,1,1.132.138l-.006.111c.344.44.621.789.893,1.143a2.658,2.658,0,0,0,.351.475c.568.443,1.152.859,1.827,1.357.091.152-.017.566.264.773.641.471.759,1.359,1.13,2.045a1.037,1.037,0,0,1,.69.133.583.583,0,0,0,.542.059,4.488,4.488,0,0,1,.448-.144.951.951,0,0,1,.89.164,3.208,3.208,0,0,0,.511.273,1.319,1.319,0,0,1,.273.162.372.372,0,0,0,.378.128.239.239,0,0,1,.19.061c.075.059.157.036.235.038.051,0,.1.042.155.025a2.155,2.155,0,0,1,1.321.036,3.245,3.245,0,0,0,1.215.234,2.457,2.457,0,0,1,.357.046,1.4,1.4,0,0,0,.458.023.548.548,0,0,1,.532.114c.184.149.4.241.588.383a1.6,1.6,0,0,0,.97.36.653.653,0,0,1,.475.2,1.813,1.813,0,0,0,.792.427c.3.084.59.212.885.323a.576.576,0,0,0,.451.041,1.284,1.284,0,0,1,.281-.066c.265-.255.471-.471.692-.661a1.082,1.082,0,0,1,.78-.258c.427.022.852.08,1.279.12a.39.39,0,0,0,.066-.007c.029,0,.057-.006.086-.011.188-.026.376-.046.562-.085a.917.917,0,0,0,.338-.122,1.526,1.526,0,0,1,.938-.275,2.525,2.525,0,0,0,1.366-.225c.088-.05.2-.023.3-.056a3.848,3.848,0,0,0,.78-.3c.135-.082.191-.346.324-.449.151-.119.384-.1.52-.228.336-.325.73-.536,1.077-.827a2,2,0,0,1,1.3-.494c.4-.008.792,0,1.187-.021a.748.748,0,0,0,.489-.139,10.671,10.671,0,0,0,1.108-.994.467.467,0,0,1,.558-.217.5.5,0,0,0,.5-.078,6.3,6.3,0,0,0,.868-.636,4.772,4.772,0,0,1,1.227-.882,1.5,1.5,0,0,0,.788-.654,2.57,2.57,0,0,1,.641-.775,3,3,0,0,0,.72-.864c.089-.173.3-.251.441-.394s.135-.453.359-.579a.85.85,0,0,0,.375-.81c0-.566.127-.743.59-.8a1.536,1.536,0,0,0,.8-.4c.154-.127.316-.239.477-.356.057-.042.141-.057.176-.117a1.029,1.029,0,0,1,.653-.45.584.584,0,0,0,.4-.508c.029-.179.083-.353.121-.508l.028-.025c.308-.277.6-.536.888-.8a.75.75,0,0,0,.2-.269,2.129,2.129,0,0,1,.483-.854.679.679,0,0,0,.08-.157,6.11,6.11,0,0,1,.464-.813,3.217,3.217,0,0,0,.419-1.088c.068-.222.109-.47.163-.707a.75.75,0,0,1,.545-.657,1.29,1.29,0,0,0,.626-.413,5.91,5.91,0,0,0,.906-1.084.662.662,0,0,1,.413-.342.831.831,0,0,0,.313-.193,6.189,6.189,0,0,0,1.086-1.925.815.815,0,0,0,.03-.18c.063-.277.116-.558.2-.827a1.183,1.183,0,0,0,.058-.6.833.833,0,0,1,.213-.774,1.352,1.352,0,0,0,.339-.864,1.827,1.827,0,0,1,.355-1.2,1.448,1.448,0,0,1,.049-1.088,6.16,6.16,0,0,0,.332-1.022,4.63,4.63,0,0,0,.172-1.785c0-.013,0-.025,0-.039a1.929,1.929,0,0,1,.179-1.12q.12-.24.218-.492a3.794,3.794,0,0,0,.277-1.735,3.653,3.653,0,0,1,0-.849,2.2,2.2,0,0,1,.168-.829.578.578,0,0,0,.044-.3c-.014-.224-.04-.449-.074-.671a.9.9,0,0,1,.015-.6c.192-.314.152-.712.3-1.041a1.094,1.094,0,0,0,.027-.425,2.56,2.56,0,0,0-.043-.55.894.894,0,0,1,.053-.6,1.017,1.017,0,0,0,.06-.6.48.48,0,0,1-.01-.239,1.219,1.219,0,0,0-.009-.838.778.778,0,0,1,.05-.644.337.337,0,0,0,.026-.177c-.024-.513-.036-1.029-.084-1.539a1.874,1.874,0,0,0-.334-1.14c-.185-.2-.158-.436-.219-.662-.067-.251-.235-.464-.192-.753a2.7,2.7,0,0,1,.061-.3c.023-.088.055-.173.084-.261l-.609-.26c.038-.29.06-.574-.163-.694a1.6,1.6,0,0,1-.527-.653c.036-.14.071-.272.1-.38-.054-.136-.1-.246-.142-.358-.118-.307-.056-.711-.348-.924a.079.079,0,0,1-.012-.058.452.452,0,0,0-.124-.438.338.338,0,0,1-.063-.227,10.612,10.612,0,0,1,.092-1.165,1.16,1.16,0,0,0,.274-.146c.078-.078.155-.158.234-.235a2.631,2.631,0,0,1-.333-.741,2.273,2.273,0,0,0-.494-.9,3.269,3.269,0,0,1-.49-.694,4.953,4.953,0,0,0-.563-.972c-.007-.011-.007-.029-.015-.04a.954.954,0,0,1-.164-.446,5.521,5.521,0,0,0-.759-2.359,3.209,3.209,0,0,1-.5-1.221,1.07,1.07,0,0,0-.217-.467,2.717,2.717,0,0,1-.55-1.71,1.385,1.385,0,0,0-.18-.482l-.022-.048a1.752,1.752,0,0,1-.193-.519,15.877,15.877,0,0,1-.167-2.909,3.073,3.073,0,0,0-.027-.406,1.815,1.815,0,0,1-.657-1.247,1,1,0,0,0-.175-.4.9.9,0,0,1-.065-.154,1.745,1.745,0,0,1-.14-.613,6.041,6.041,0,0,0-.594-2.432,1.525,1.525,0,0,1-.16-.5c-.1-.811-.2-1.623-.279-2.437a1.633,1.633,0,0,1,.205-1.041,7.447,7.447,0,0,0,.413-.994c-.153-.357-.292-.717-.46-1.056a1.364,1.364,0,0,1-.162-.692c.048-.94-.117-1.878-.019-2.819a2.47,2.47,0,0,1,.152-1.832,6.586,6.586,0,0,0-.161-.978,1.4,1.4,0,0,1,.192-1.43,1.1,1.1,0,0,0,.2-1.1,1.094,1.094,0,0,1,0-.3,1.9,1.9,0,0,0,.43-1.11.517.517,0,0,1,.117-.326,1.651,1.651,0,0,0,.329-1.348,1.9,1.9,0,0,1,.239-1.13,1.23,1.23,0,0,0,.139-.761,6.763,6.763,0,0,1,.192-2.051,4.219,4.219,0,0,0,.142-.876,2.1,2.1,0,0,0-.067-.737.812.812,0,0,1,0-.364,4.164,4.164,0,0,0-.118-1.868,2.775,2.775,0,0,0,.239-1.342,7.815,7.815,0,0,1-.108-1.36,7.877,7.877,0,0,0-.215-1.985,3.427,3.427,0,0,1-.021-1.354c.066-.479.123-.966.146-1.45a4.942,4.942,0,0,0,.015-.631,11.133,11.133,0,0,1,.074-2.36,2.067,2.067,0,0,0-.311-1.715.477.477,0,0,1-.064-.34,3.308,3.308,0,0,1,.286-.929,3.386,3.386,0,0,0,.326-.908,5.734,5.734,0,0,0,.094-1.545,1.921,1.921,0,0,1,.418-1.328,2.488,2.488,0,0,0,.408-.76c.238-.6.52-1.182.787-1.769a2.79,2.79,0,0,1,.649-.889,3.021,3.021,0,0,0,.532-.647c.227-.391.585-.583.856-.9.288-.336.416-.839.769-1.123.1-.082.241-.2.261-.32a.988.988,0,0,1,.728-.8,5.414,5.414,0,0,1,.405-.981,3.644,3.644,0,0,0,.514-1.309c.06-.262.172-.508.233-.771a.982.982,0,0,1,.076-.163,4.532,4.532,0,0,1,1.007-.724,1.5,1.5,0,0,0,.787-.654,1.821,1.821,0,0,1,.288-.347,1.658,1.658,0,0,0,.852-.994.686.686,0,0,1,.152-.214c.019-.033.052-.049.07-.084.09-.174.3-.252.44-.4a.755.755,0,0,0,.141-.275.531.531,0,0,1,.219-.3.7.7,0,0,0,.308-.437,12.511,12.511,0,0,0,.833-1.166c.014-.026.027-.054.042-.079a1.873,1.873,0,0,0,.577-.331c.154-.128.316-.24.477-.356.058-.042.141-.058.176-.117a.919.919,0,0,1,.526-.4l.144.021.244-.247,0,0a.674.674,0,0,0,.139-.332c.029-.18.084-.353.121-.508.319-.287.621-.553.916-.828a.764.764,0,0,0,.2-.269,2.121,2.121,0,0,1,.482-.854.66.66,0,0,0,.08-.157,6.222,6.222,0,0,1,.464-.813,3.214,3.214,0,0,0,.419-1.089c.067-.221.109-.469.163-.706a.752.752,0,0,1,.545-.658,1.284,1.284,0,0,0,.626-.412,5.87,5.87,0,0,0,.906-1.084.666.666,0,0,1,.414-.343.82.82,0,0,0,.312-.192,6.209,6.209,0,0,0,1.086-1.925.76.76,0,0,0,.03-.18c.063-.277.116-.559.2-.828a1.2,1.2,0,0,0,.057-.6.831.831,0,0,1,.213-.774,1.353,1.353,0,0,0,.339-.865,1.828,1.828,0,0,1,.354-1.2,1.453,1.453,0,0,1,.05-1.088,6.171,6.171,0,0,0,.332-1.023,4.594,4.594,0,0,0,.172-1.823,1.936,1.936,0,0,1,.144-1.009c.015-.036.017-.076.035-.112.079-.159.153-.323.218-.491a3.807,3.807,0,0,0,.278-1.735,3.6,3.6,0,0,1-.006-.849,2.224,2.224,0,0,1,.168-.83.573.573,0,0,0,.044-.3c-.014-.225-.04-.449-.074-.671a.9.9,0,0,1,.015-.6c.192-.314.152-.712.3-1.041a1.1,1.1,0,0,0,.027-.425,2.493,2.493,0,0,0-.043-.55.888.888,0,0,1,.054-.595,1.034,1.034,0,0,0,.06-.6.463.463,0,0,1-.011-.24A1.216,1.216,0,0,0,814.372,162.519Z"/><path class="cls-2" d="M201.5,51.181h1.592V43.339h-1.779V42.333l1.756-.679V40.39c0-2.809,1.684-4.307,3.978-4.307a3.635,3.635,0,0,1,3.862,3.558v.211h-3.183V38.471c0-.749-.327-1.288-1.031-1.288-.771,0-1.287.75-1.052,1.85l.561,2.621h2.927v1.522h-2.669v8H208.8V52.3h-7.3Z"/><path class="cls-2" d="M215.889,52.585c-3.465,0-5.548-2.059-5.548-5.617a5.34,5.34,0,0,1,5.548-5.571c3.674,0,5.1,1.755,5.1,4.588h-7.466c-.024,2.34,1.147,3.885,3.464,3.885a2.794,2.794,0,0,0,2.973-2.364h.937C221.014,50.479,219.118,52.585,215.889,52.585Zm1.545-7.56c0-1.639-.7-2.6-1.9-2.6-1.053,0-1.943.889-1.99,2.6Z"/><path class="cls-2" d="M228.056,46.265V51.2h3.136v1.124h-8.379V51.2h1.873V43.456l-2.155,1.218-.513-1.077,6.038-2.622V45.61c1.358-3.3,2.294-4.33,4.307-4.33v3.464h-1.451A3.342,3.342,0,0,0,228.056,46.265Z"/><path class="cls-2" d="M254.924,51.2v1.124h-6.3V51.2h1.4V45.282a1.67,1.67,0,0,0-1.755-1.755,3.306,3.306,0,0,0-1.919.678l-.07.071a2.478,2.478,0,0,1,.024.421V51.2h1.521v1.124h-6.3V51.2h1.405V45.282a1.671,1.671,0,0,0-1.756-1.755,3.316,3.316,0,0,0-2.082.819V51.2h1.5v1.124h-6.414V51.2h1.545V43.456l-2.155,1.218-.513-1.077,6.039-2.622v2.716A4.816,4.816,0,0,1,242.94,41.4a3.111,3.111,0,0,1,3.23,2.294,4.919,4.919,0,0,1,3.861-2.294,3.163,3.163,0,0,1,3.371,3.3V51.2Z"/><path class="cls-2" d="M261.752,52.585c-3.465,0-5.547-2.059-5.547-5.617a5.34,5.34,0,0,1,5.547-5.571c3.675,0,5.1,1.755,5.1,4.588h-7.467c-.024,2.34,1.147,3.885,3.464,3.885a2.793,2.793,0,0,0,2.972-2.364h.938C266.878,50.479,264.982,52.585,261.752,52.585Zm1.545-7.56c0-1.639-.7-2.6-1.9-2.6-1.052,0-1.942.889-1.989,2.6Z"/><path class="cls-2" d="M282.627,51.2v1.124h-6.3V51.2h1.4V45.282a1.669,1.669,0,0,0-1.754-1.755,3.284,3.284,0,0,0-2.107.842V51.2h1.475v1.124h-6.485V51.2H270.5V43.456l-2.153,1.218-.515-1.077,6.039-2.622v2.739a4.847,4.847,0,0,1,3.861-2.317,3.164,3.164,0,0,1,3.372,3.3V51.2Z"/><path class="cls-2" d="M285.1,49.308V43.339h-1.545v-.983l2.668-1.076-.258-4.682h2.3l-.446,5.056H292.5v1.615h-4.025v5.618c0,1.264.771,1.592,1.684,1.592a1.444,1.444,0,0,0,1.5-1.639l-.186-2.411h1.567L292.922,49c-.094,2.271-1.5,3.581-3.934,3.581C286.7,52.585,285.1,51.906,285.1,49.308Z"/><path class="cls-2" d="M300.174,52.585c-3.465,0-5.547-2.059-5.547-5.617a5.34,5.34,0,0,1,5.547-5.571c3.675,0,5.1,1.755,5.1,4.588H297.81c-.024,2.34,1.147,3.885,3.464,3.885a2.793,2.793,0,0,0,2.972-2.364h.938C305.3,50.479,303.4,52.585,300.174,52.585Zm1.545-7.56c0-1.639-.7-2.6-1.9-2.6-1.052,0-1.942.889-1.989,2.6Z"/><path class="cls-2" d="M315.643,49.94a5.027,5.027,0,0,1-4.238,2.645c-2.5,0-4.423-1.943-4.423-5.173,0-3.675,1.989-6.015,5.43-6.015a3.744,3.744,0,0,1,3,1.17V38l-2.154,1.217-.515-1.077,6.04-2.621v14.91l2.153-1.217.515,1.076-6.039,2.622Zm-.235-.491V44.018a2.493,2.493,0,0,0-2.154-1.311c-1.5,0-2.621,1.335-2.621,3.769,0,2.154,1.053,3.792,2.832,3.792A2.937,2.937,0,0,0,315.408,49.449Z"/><path class="cls-2" d="M213.293,94.981c0,2.037-1.873,3.792-6.133,3.792-4.166,0-5.734-1.053-5.734-2.458,0-.8.538-1.357,2.269-1.708v-.094a1.874,1.874,0,0,1-1.754-1.872c0-1.077.749-1.826,2.036-2.575a3.184,3.184,0,0,1-2.224-2.95c0-2.527,2.13-4.119,4.938-4.119a6.461,6.461,0,0,1,3.02.725V83c0-1.639.983-2.271,1.99-2.271,1.311,0,2.083.843,2.083,2.692h-2.012c0-.772-.211-1.17-.7-1.17-.374,0-.677.234-.677.866v1.053a2.912,2.912,0,0,1,1.17,2.247c0,2.739-2.037,4.12-4.916,4.12a8.028,8.028,0,0,1-2.082-.258,2.993,2.993,0,0,0-.235.983c0,.632.374.96,1.076.89l3.98-.374C211.889,91.54,213.293,92.921,213.293,94.981Zm-2.061.96a1.3,1.3,0,0,0-1.427-1.241h-5.453a1.556,1.556,0,0,0-.493,1.217c0,.867.867,1.686,3.606,1.686C210.438,97.6,211.232,96.76,211.232,95.941Zm-6.156-9.48c0,1.615.4,3.043,1.733,3.043.679,0,1.474-.328,1.474-2.364,0-1.686-.561-3.113-1.732-3.113C205.873,84.027,205.076,84.448,205.076,86.461Z"/><path class="cls-2" d="M219.491,87.865V92.8h3.137v1.124h-8.38V92.8h1.873V85.057l-2.154,1.217-.514-1.077,6.038-2.621V87.21c1.359-3.3,2.294-4.33,4.308-4.33v3.464h-1.451A3.343,3.343,0,0,0,219.491,87.865Z"/><path class="cls-2" d="M238.308,87.631l-.211,3.23a3.059,3.059,0,0,1-3.417,3.207c-1.709,0-2.926-.725-2.926-2.2V91.7a4.414,4.414,0,0,1-3.723,2.481A2.666,2.666,0,0,1,225.2,91.47c0-1.826,1.241-2.668,3.254-3.043l3.3-.632V86.016c0-1.264-.516-1.872-1.5-1.872a1.475,1.475,0,0,0-1.5,1.662v1.287H225.5c0-2.575,2.13-4.1,5.033-4.1,3.206,0,4.564,1.311,4.564,3.7v4.12c0,.632.3,1.006.936,1.006.492,0,.983-.3.959-.8l-.21-3.395Zm-6.554.843-1.686.7a1.735,1.735,0,0,0-1.263,1.522A1.148,1.148,0,0,0,230,91.915a2.262,2.262,0,0,0,1.756-.936Z"/><path class="cls-2" d="M238.982,97.415H240.9V85.057l-2.153,1.217-.516-1.077,6.04-2.621v2.738A4.846,4.846,0,0,1,248.251,83c2.528,0,4.447,1.943,4.447,5.173,0,3.675-1.989,6.015-5.477,6.015a4.33,4.33,0,0,1-2.949-1.076v4.306h1.662v1.124h-6.952Zm10.065-8.309c0-2.153-1.053-3.792-2.879-3.792a2.761,2.761,0,0,0-1.9.819v5.431a2.5,2.5,0,0,0,2.177,1.311C247.947,92.875,249.047,91.517,249.047,89.106Z"/><path class="cls-2" d="M259.949,94.185c-3.464,0-5.547-2.059-5.547-5.617A5.34,5.34,0,0,1,259.949,83c3.676,0,5.1,1.755,5.1,4.588h-7.467c-.023,2.34,1.146,3.885,3.464,3.885a2.794,2.794,0,0,0,2.973-2.364h.936C265.076,92.079,263.18,94.185,259.949,94.185Zm1.545-7.56c0-1.639-.7-2.6-1.9-2.6-1.054,0-1.943.889-1.99,2.6Z"/><path class="cls-2" d="M277.533,86.882v2.692l-8.17-.14V87.023Z"/><path class="cls-2" d="M199.74,137.26v-.234h2.668v.843c0,1.287.328,1.755.866,1.755.445,0,.773-.4.8-1.03.047-1.381-.608-2.294-.608-3.721v-8.216l-2.153,1.217-.516-1.077,6.039-2.621V137.26c0,1.849-1.334,3.113-3.534,3.113C201.356,140.373,199.74,139.671,199.74,137.26Zm3.7-16.127c0-1.592.8-2.154,1.778-2.154,1.03,0,1.8.562,1.8,2.154s-.773,2.2-1.8,2.2C204.234,123.333,203.439,122.724,203.439,121.133Z"/><path class="cls-2" d="M218.158,136.207v-2.715a5.02,5.02,0,0,1-3.791,2.294c-2.154,0-3.207-1.218-3.207-3.512v-5.617l-2.153,1.217-.515-1.077,6.039-2.621v7.607a1.636,1.636,0,0,0,1.592,1.849,3.055,3.055,0,0,0,2.035-.843v-6.132l-2.152,1.217-.516-1.077,6.039-2.621v9.55l2.155-1.218.513,1.077Z"/><path class="cls-2" d="M230.3,124.176V134.4h1.732v1.124h-6.976V134.4h1.873v-7.747l-2.154,1.217-.514-1.077Zm-3.418-3.043c0-1.592.8-2.154,1.779-2.154,1.029,0,1.8.562,1.8,2.154s-.774,2.2-1.8,2.2C227.681,123.333,226.885,122.724,226.885,121.133Z"/><path class="cls-2" d="M238.914,135.786c-3.652,0-5.641-2.271-5.641-5.548a5.453,5.453,0,0,1,5.781-5.641c2.927,0,4.8,1.311,4.915,3.956l-3.487.023c0-1.779-.585-2.856-1.8-2.856-1.24,0-1.99,1.124-2.061,3.043-.094,2.786,1.334,4.354,3.278,4.354a2.829,2.829,0,0,0,3.019-2.2h.913C243.945,133.211,242.565,135.786,238.914,135.786Z"/><path class="cls-2" d="M251.128,135.786c-3.464,0-5.548-2.06-5.548-5.618a5.341,5.341,0,0,1,5.548-5.571c3.675,0,5.1,1.755,5.1,4.588h-7.467c-.024,2.34,1.146,3.885,3.465,3.885a2.793,2.793,0,0,0,2.972-2.364h.936C256.254,133.679,254.357,135.786,251.128,135.786Zm1.545-7.561c0-1.638-.7-2.6-1.9-2.6-1.053,0-1.943.889-1.99,2.6Z"/><path class="cls-2" d="M206.926,171.065V176h3.137v1.124h-8.38V176h1.872v-7.748l-2.153,1.218-.515-1.077,6.039-2.621v4.634c1.357-3.3,2.294-4.33,4.306-4.33v3.464h-1.451A3.343,3.343,0,0,0,206.926,171.065Z"/><path class="cls-2" d="M218.182,177.385c-3.465,0-5.547-2.059-5.547-5.617a5.34,5.34,0,0,1,5.547-5.571c3.675,0,5.1,1.755,5.1,4.588h-7.467c-.023,2.34,1.148,3.885,3.464,3.885a2.794,2.794,0,0,0,2.973-2.364h.937C223.308,175.279,221.412,177.385,218.182,177.385Zm1.545-7.56c0-1.639-.7-2.6-1.9-2.6-1.053,0-1.942.889-1.989,2.6Z"/><path class="cls-2" d="M224.849,180.615h1.919V168.256l-2.153,1.218L224.1,168.4l6.039-2.621v2.738a4.842,4.842,0,0,1,3.978-2.317c2.53,0,4.448,1.943,4.448,5.173,0,3.675-1.989,6.015-5.477,6.015a4.324,4.324,0,0,1-2.949-1.077v4.307H231.8v1.124h-6.952Zm10.065-8.309c0-2.154-1.054-3.792-2.879-3.792a2.759,2.759,0,0,0-1.9.819v5.431a2.5,2.5,0,0,0,2.177,1.311C233.814,176.075,234.914,174.717,234.914,172.306Z"/><path class="cls-2" d="M245.652,171.065V176h3.137v1.124h-8.38V176h1.872v-7.748l-2.152,1.218-.516-1.077,6.039-2.621v4.634c1.358-3.3,2.294-4.33,4.307-4.33v3.464h-1.451A3.345,3.345,0,0,0,245.652,171.065Z"/><path class="cls-2" d="M263.3,171.463c0,3.98-2.739,5.922-6.274,5.922-3.488,0-5.664-2.106-5.664-5.36,0-4.026,2.926-5.828,6.249-5.828C261.215,166.2,263.3,168.256,263.3,171.463Zm-3.7,1.264c0-3.206-.725-5.453-2.621-5.453-1.217,0-1.92,1.263-1.92,3.557,0,3.184.656,5.454,2.575,5.454C258.828,176.285,259.6,174.974,259.6,172.727Z"/><path class="cls-2" d="M273.664,174.74a5.025,5.025,0,0,1-4.237,2.645c-2.5,0-4.424-1.942-4.424-5.173,0-3.675,1.989-6.015,5.431-6.015a3.748,3.748,0,0,1,3,1.17V162.8l-2.155,1.217-.514-1.077,6.039-2.621v14.91l2.153-1.217.516,1.076-6.039,2.622Zm-.234-.491v-5.431a2.5,2.5,0,0,0-2.155-1.311c-1.5,0-2.621,1.335-2.621,3.769,0,2.154,1.053,3.792,2.832,3.792A2.942,2.942,0,0,0,273.43,174.249Z"/><path class="cls-2" d="M288.9,177.807v-2.716a5.022,5.022,0,0,1-3.791,2.294c-2.155,0-3.207-1.217-3.207-3.511v-5.618l-2.155,1.218-.514-1.077,6.039-2.621v7.607a1.636,1.636,0,0,0,1.591,1.849,3.062,3.062,0,0,0,2.037-.843v-6.133l-2.154,1.218-.514-1.077,6.039-2.621v9.55l2.153-1.218.515,1.077Z"/><path class="cls-2" d="M301.3,177.385c-3.651,0-5.642-2.27-5.642-5.547a5.454,5.454,0,0,1,5.782-5.641c2.925,0,4.8,1.31,4.916,3.955l-3.489.024c0-1.779-.584-2.856-1.8-2.856-1.241,0-1.99,1.124-2.06,3.043-.094,2.786,1.334,4.354,3.277,4.354a2.829,2.829,0,0,0,3.02-2.2h.912C306.33,174.81,304.949,177.385,301.3,177.385Z"/><path class="cls-2" d="M309.158,174.108V168.14h-1.545v-.984l2.669-1.076-.258-4.682h2.294l-.445,5.056h4.682v1.615h-4.026v5.618c0,1.264.772,1.592,1.686,1.592a1.444,1.444,0,0,0,1.5-1.639l-.188-2.411h1.569l-.117,2.575c-.094,2.271-1.5,3.581-3.933,3.581C310.75,177.385,309.158,176.706,309.158,174.108Z"/><path class="cls-2" d="M324.066,165.776V176H325.8v1.124h-6.975V176H320.7v-7.748l-2.154,1.218-.514-1.077Zm-3.417-3.043c0-1.592.794-2.154,1.779-2.154,1.029,0,1.8.562,1.8,2.154s-.772,2.2-1.8,2.2C321.443,164.933,320.649,164.324,320.649,162.733Z"/><path class="cls-2" d="M339.348,167.6h-1.194l-4.775,9.784h-1.428l-4.728-9.784h-1.194v-1.123h6.459V167.6h-1.545l2.928,6.133,2.27-4.658V167.6h-1.358v-1.123h4.565Z"/><path class="cls-2" d="M345.242,177.385c-3.465,0-5.547-2.059-5.547-5.617a5.34,5.34,0,0,1,5.547-5.571c3.676,0,5.1,1.755,5.1,4.588h-7.467c-.023,2.34,1.146,3.885,3.463,3.885a2.8,2.8,0,0,0,2.973-2.364h.937C350.369,175.279,348.473,177.385,345.242,177.385Zm1.545-7.56c0-1.639-.7-2.6-1.9-2.6-1.053,0-1.942.889-1.989,2.6Z"/><path class="cls-2" d="M201.426,222.215h1.919V209.857l-2.154,1.217L200.676,210l6.039-2.621v2.738a4.846,4.846,0,0,1,3.979-2.317c2.529,0,4.448,1.943,4.448,5.173,0,3.675-1.99,6.015-5.478,6.015a4.332,4.332,0,0,1-2.949-1.076v4.306h1.662v1.124h-6.951Zm10.064-8.309c0-2.153-1.052-3.792-2.879-3.792a2.763,2.763,0,0,0-1.9.819v5.431a2.5,2.5,0,0,0,2.178,1.311C210.391,217.675,211.49,216.317,211.49,213.906Z"/><path class="cls-2" d="M229.953,212.432l-.211,3.23a3.058,3.058,0,0,1-3.417,3.206c-1.708,0-2.926-.725-2.926-2.2V216.5a4.408,4.408,0,0,1-3.721,2.481,2.666,2.666,0,0,1-2.832-2.715c0-1.826,1.24-2.668,3.254-3.043l3.3-.632v-1.779c0-1.264-.514-1.872-1.5-1.872a1.475,1.475,0,0,0-1.5,1.662v1.287H217.15c0-2.575,2.129-4.1,5.032-4.1,3.207,0,4.564,1.311,4.564,3.7v4.12c0,.632.3,1.006.938,1.006.49,0,.982-.3.959-.8l-.211-3.393Zm-6.554.842-1.684.7a1.734,1.734,0,0,0-1.265,1.522,1.149,1.149,0,0,0,1.2,1.217,2.258,2.258,0,0,0,1.754-.936Z"/><path class="cls-2" d="M236.269,212.665V217.6h3.136v1.124h-8.38V217.6H232.9v-7.747l-2.155,1.217L230.231,210l6.038-2.621v4.634c1.358-3.3,2.294-4.33,4.307-4.33v3.464h-1.451A3.342,3.342,0,0,0,236.269,212.665Z"/><path class="cls-2" d="M243.171,215.708V209.74h-1.545v-.984l2.669-1.076L244.037,203h2.293l-.444,5.056h4.681v1.615h-4.026v5.618c0,1.264.774,1.592,1.686,1.592a1.444,1.444,0,0,0,1.5-1.639l-.188-2.411h1.569l-.118,2.575c-.093,2.271-1.5,3.581-3.931,3.581C244.762,218.985,243.171,218.307,243.171,215.708Z"/><path class="cls-2" d="M254.66,217.23v1.5h-1.638v-4h1.591v1.592a4.76,4.76,0,0,0,3.418,1.358c1.287,0,1.871-.539,1.871-1.241,0-.749-.327-1.17-3.112-1.826-3.183-.749-3.839-1.8-3.839-3.558,0-2.106,1.8-3.253,4.1-3.253a5.208,5.208,0,0,1,3.7,1.381v-1.1h1.686v3.581H260.84v-1.428a4.81,4.81,0,0,0-3.09-1.24c-1.24,0-1.732.515-1.732,1.1,0,.655.328,1.147,2.48,1.662,3.676.889,4.424,1.638,4.4,3.721-.023,2.271-1.755,3.511-4.167,3.511A5.123,5.123,0,0,1,254.66,217.23Z"/><path class="cls-2" d="M213.481,254.663c0,3.979-2.74,5.922-6.274,5.922-3.488,0-5.664-2.106-5.664-5.36,0-4.026,2.926-5.828,6.249-5.828C211.4,249.4,213.481,251.456,213.481,254.663Zm-3.7,1.264c0-3.206-.724-5.453-2.621-5.453-1.217,0-1.92,1.263-1.92,3.557,0,3.184.657,5.454,2.576,5.454C209.01,259.485,209.781,258.174,209.781,255.927Z"/><path class="cls-2" d="M215.114,259.181h1.592v-7.842h-1.779v-1.006l1.756-.679V248.39c0-2.809,1.684-4.307,3.979-4.307a3.635,3.635,0,0,1,3.862,3.558v.211H221.34v-1.381c0-.749-.327-1.288-1.029-1.288-.773,0-1.287.75-1.053,1.85l.56,2.621h2.926v1.522h-2.668v8h2.341V260.3h-7.3Z"/><path class="cls-2" d="M203.508,300.43v1.5H201.87v-4h1.592v1.592a4.758,4.758,0,0,0,3.417,1.358c1.287,0,1.873-.539,1.873-1.241,0-.749-.328-1.17-3.113-1.826-3.184-.749-3.839-1.8-3.839-3.558,0-2.106,1.8-3.253,4.1-3.253a5.2,5.2,0,0,1,3.7,1.381v-1.1h1.685v3.581h-1.591v-1.428a4.81,4.81,0,0,0-3.09-1.24c-1.241,0-1.732.514-1.732,1.1,0,.655.327,1.147,2.482,1.662,3.674.889,4.424,1.638,4.4,3.721-.023,2.271-1.756,3.511-4.166,3.511A5.128,5.128,0,0,1,203.508,300.43Z"/><path class="cls-2" d="M219.07,302.185c-3.464,0-5.546-2.059-5.546-5.617A5.339,5.339,0,0,1,219.07,291c3.675,0,5.1,1.755,5.1,4.588h-7.467c-.023,2.34,1.148,3.885,3.464,3.885a2.794,2.794,0,0,0,2.973-2.364h.937C224.2,300.079,222.3,302.185,219.07,302.185Zm1.545-7.56c0-1.639-.7-2.6-1.9-2.6-1.053,0-1.943.889-1.989,2.6Z"/><path class="cls-2" d="M231.4,302.185c-3.464,0-5.547-2.059-5.547-5.617A5.34,5.34,0,0,1,231.4,291c3.674,0,5.1,1.755,5.1,4.588h-7.467c-.023,2.34,1.148,3.885,3.465,3.885a2.794,2.794,0,0,0,2.973-2.364h.936C236.527,300.079,234.632,302.185,231.4,302.185Zm1.545-7.56c0-1.639-.7-2.6-1.9-2.6-1.053,0-1.944.889-1.99,2.6Z"/><path class="cls-2" d="M246.87,299.54a5.023,5.023,0,0,1-4.237,2.645c-2.5,0-4.424-1.942-4.424-5.173,0-3.674,1.99-6.015,5.431-6.015a3.746,3.746,0,0,1,3,1.17V287.6l-2.154,1.217-.515-1.077,6.039-2.621v14.91l2.154-1.217.515,1.076-6.039,2.622Zm-.234-.491v-5.431a2.493,2.493,0,0,0-2.154-1.31c-1.5,0-2.621,1.334-2.621,3.768,0,2.154,1.053,3.792,2.832,3.792A2.939,2.939,0,0,0,246.636,299.049Z"/><path class="cls-2" d="M258.66,305.415h1.92V293.057l-2.153,1.217-.515-1.077,6.039-2.621v2.738A4.841,4.841,0,0,1,267.93,291c2.528,0,4.447,1.943,4.447,5.173,0,3.675-1.989,6.015-5.477,6.015a4.328,4.328,0,0,1-2.949-1.076v4.306h1.662v1.124H258.66Zm10.066-8.309c0-2.153-1.054-3.792-2.879-3.792a2.759,2.759,0,0,0-1.9.819v5.431a2.5,2.5,0,0,0,2.176,1.311C267.625,300.875,268.726,299.517,268.726,297.106Z"/><path class="cls-2" d="M278.9,285.122V300.8h1.663v1.124h-6.952V300.8h1.919V287.6l-2.153,1.217-.516-1.077Z"/><path class="cls-2" d="M294.981,295.631l-.211,3.23a3.059,3.059,0,0,1-3.417,3.207c-1.708,0-2.926-.725-2.926-2.2V299.7a4.411,4.411,0,0,1-3.722,2.481,2.666,2.666,0,0,1-2.832-2.715c0-1.826,1.24-2.668,3.254-3.043l3.3-.632v-1.779c0-1.264-.515-1.872-1.5-1.872a1.475,1.475,0,0,0-1.5,1.662v1.287h-3.253c0-2.575,2.129-4.1,5.031-4.1,3.207,0,4.565,1.311,4.565,3.7v4.12c0,.632.3,1.006.937,1.006.49,0,.982-.3.959-.8l-.211-3.4Zm-6.554.843-1.685.7a1.735,1.735,0,0,0-1.264,1.522,1.148,1.148,0,0,0,1.194,1.217,2.26,2.26,0,0,0,1.755-.936Z"/><path class="cls-2" d="M310,300.8v1.124h-6.3V300.8h1.4v-5.922a1.67,1.67,0,0,0-1.755-1.755,3.281,3.281,0,0,0-2.106.842V300.8h1.475v1.124H296.24V300.8h1.639v-7.747l-2.154,1.217-.514-1.077,6.039-2.621v2.738A4.845,4.845,0,0,1,305.111,291a3.163,3.163,0,0,1,3.371,3.3V300.8Z"/><path class="cls-2" d="M312.481,298.908V292.94h-1.545v-.984l2.668-1.076-.258-4.682h2.294l-.445,5.056h4.682v1.615h-4.026v5.618c0,1.264.772,1.592,1.684,1.592a1.444,1.444,0,0,0,1.5-1.639l-.187-2.411h1.568L320.3,298.6c-.094,2.271-1.5,3.581-3.932,3.581C314.071,302.185,312.481,301.506,312.481,298.908Z"/><path class="cls-2" d="M323.969,300.43v1.5H322.33v-4h1.592v1.592a4.762,4.762,0,0,0,3.418,1.358c1.287,0,1.873-.539,1.873-1.241,0-.749-.328-1.17-3.113-1.826-3.184-.749-3.838-1.8-3.838-3.558,0-2.106,1.8-3.253,4.1-3.253a5.2,5.2,0,0,1,3.7,1.381v-1.1h1.685v3.581h-1.591v-1.428a4.805,4.805,0,0,0-3.09-1.24c-1.241,0-1.733.514-1.733,1.1,0,.655.328,1.147,2.483,1.662,3.674.889,4.424,1.638,4.4,3.721-.023,2.271-1.756,3.511-4.166,3.511A5.128,5.128,0,0,1,323.969,300.43Z"/><path class="cls-2" d="M167.941,35.428v6.3h-1.779V38.752l-1.709-1.264h-3.3V51.157h2.178v1.171h-8.1V51.157h2.154V37.488H153.1l-1.428.655v3.581H149.9v-6.3h1.778v.936h14.489v-.936Z"/><path class="cls-2" d="M183.149,51.2v1.124h-6.295V51.2h1.4V45.282a1.672,1.672,0,0,0-1.756-1.755,3.284,3.284,0,0,0-2.107.842V51.2h1.474v1.124h-6.482V51.2h1.637V38l-2.153,1.217-.515-1.077,6.039-2.621v8.192a4.849,4.849,0,0,1,3.863-2.317,3.164,3.164,0,0,1,3.37,3.3V51.2Z"/><path class="cls-2" d="M189.981,52.585c-3.465,0-5.548-2.059-5.548-5.617a5.34,5.34,0,0,1,5.548-5.571c3.673,0,5.1,1.755,5.1,4.588h-7.467c-.023,2.34,1.148,3.885,3.465,3.885a2.794,2.794,0,0,0,2.973-2.364h.936C195.106,50.479,193.21,52.585,189.981,52.585Zm1.544-7.56c0-1.639-.7-2.6-1.9-2.6-1.053,0-1.943.889-1.99,2.6Z"/><path class="cls-2" d="M88.732,170.831l-.21,3.23a3.06,3.06,0,0,1-3.418,3.207c-1.709,0-2.926-.725-2.926-2.2V174.9a4.413,4.413,0,0,1-3.722,2.481,2.666,2.666,0,0,1-2.832-2.715c0-1.826,1.24-2.668,3.253-3.043l3.3-.632v-1.779c0-1.264-.515-1.872-1.5-1.872a1.475,1.475,0,0,0-1.5,1.662v1.287H75.928c0-2.575,2.131-4.1,5.033-4.1,3.207,0,4.564,1.31,4.564,3.7v4.12c0,.632.3,1.006.936,1.006.492,0,.983-.3.96-.8l-.21-3.394Zm-6.554.843-1.686.7a1.735,1.735,0,0,0-1.263,1.522,1.149,1.149,0,0,0,1.193,1.217,2.26,2.26,0,0,0,1.756-.936Z"/><path class="cls-2" d="M110.823,176v1.124h-6.3V176h1.405v-5.922a1.672,1.672,0,0,0-1.756-1.755,3.3,3.3,0,0,0-1.92.679l-.07.07a2.585,2.585,0,0,1,.023.421V176h1.522v1.124h-6.3V176h1.4v-5.922a1.671,1.671,0,0,0-1.755-1.755,3.324,3.324,0,0,0-2.084.819V176h1.5v1.124H90.085V176h1.544v-7.748l-2.152,1.218-.516-1.077L95,165.776v2.715a4.822,4.822,0,0,1,3.839-2.294,3.109,3.109,0,0,1,3.23,2.294,4.921,4.921,0,0,1,3.863-2.294,3.163,3.163,0,0,1,3.37,3.3V176Z"/><path class="cls-2" d="M124.041,171.463c0,3.98-2.738,5.922-6.272,5.922-3.488,0-5.665-2.106-5.665-5.36,0-4.026,2.925-5.828,6.25-5.828C121.958,166.2,124.041,168.256,124.041,171.463Zm-3.7,1.264c0-3.206-.727-5.453-2.622-5.453-1.218,0-1.919,1.263-1.919,3.557,0,3.184.654,5.454,2.574,5.454C119.57,176.285,120.344,174.974,120.344,172.727Z"/><path class="cls-2" d="M139.814,176v1.124h-6.3V176h1.4v-5.922a1.672,1.672,0,0,0-1.756-1.755,3.282,3.282,0,0,0-2.107.843V176h1.475v1.124h-6.483V176h1.639v-7.748l-2.155,1.218-.514-1.077,6.038-2.621v2.738a4.851,4.851,0,0,1,3.863-2.317,3.163,3.163,0,0,1,3.37,3.3V176Z"/><path class="cls-2" d="M152.846,178.181c0,2.036-1.872,3.792-6.132,3.792-4.167,0-5.735-1.053-5.735-2.458,0-.8.539-1.357,2.271-1.708v-.094a1.875,1.875,0,0,1-1.756-1.873c0-1.076.749-1.825,2.036-2.574a3.185,3.185,0,0,1-2.223-2.95c0-2.528,2.131-4.119,4.939-4.119a6.473,6.473,0,0,1,3.02.725V166.2c0-1.639.982-2.271,1.989-2.271,1.311,0,2.083.843,2.083,2.692h-2.014c0-.772-.21-1.17-.7-1.17-.375,0-.68.234-.68.866v1.053a2.9,2.9,0,0,1,1.171,2.247c0,2.739-2.036,4.12-4.915,4.12a8.055,8.055,0,0,1-2.084-.258,3.016,3.016,0,0,0-.234.983c0,.632.375.96,1.077.89l3.98-.375C151.441,174.74,152.846,176.121,152.846,178.181Zm-2.059.96a1.3,1.3,0,0,0-1.428-1.241H143.9a1.56,1.56,0,0,0-.49,1.217c0,.867.865,1.686,3.6,1.686C149.99,180.8,150.787,179.96,150.787,179.141Zm-6.156-9.48c0,1.615.4,3.043,1.732,3.043.678,0,1.475-.328,1.475-2.364,0-1.686-.563-3.113-1.732-3.113C145.426,167.227,144.631,167.648,144.631,169.661Z"/><path class="cls-2" d="M160.237,174.108V168.14h-1.545v-.984l2.669-1.076L161.1,161.4H163.4l-.445,5.056h4.682v1.615h-4.027v5.618c0,1.264.774,1.592,1.686,1.592a1.444,1.444,0,0,0,1.5-1.639l-.187-2.411h1.568l-.117,2.575c-.094,2.271-1.5,3.581-3.932,3.581C161.828,177.385,160.237,176.706,160.237,174.108Z"/><path class="cls-2" d="M183.149,176v1.124h-6.3V176h1.4v-5.922a1.671,1.671,0,0,0-1.755-1.755,3.278,3.278,0,0,0-2.107.843V176h1.474v1.124h-6.483V176h1.638V162.8l-2.153,1.217-.515-1.077,6.039-2.621v8.192a4.847,4.847,0,0,1,3.862-2.317,3.163,3.163,0,0,1,3.37,3.3V176Z"/><path class="cls-2" d="M189.98,177.385c-3.464,0-5.548-2.059-5.548-5.617a5.341,5.341,0,0,1,5.548-5.571c3.674,0,5.1,1.755,5.1,4.588h-7.467c-.023,2.34,1.147,3.885,3.465,3.885a2.794,2.794,0,0,0,2.973-2.364h.935C195.106,175.279,193.209,177.385,189.98,177.385Zm1.544-7.56c0-1.639-.7-2.6-1.9-2.6-1.054,0-1.943.889-1.99,2.6Z"/><path class="cls-2" d="M630.5,51.181h1.592V43.339h-1.779V42.333l1.756-.679V40.39c0-2.809,1.685-4.307,3.978-4.307a3.634,3.634,0,0,1,3.861,3.558v.211h-3.181V38.471c0-.749-.328-1.288-1.032-1.288-.771,0-1.287.75-1.052,1.85l.562,2.621h2.926v1.522h-2.67v8H637.8V52.3h-7.3Z"/><path class="cls-2" d="M644.887,52.585c-3.463,0-5.547-2.059-5.547-5.617a5.341,5.341,0,0,1,5.547-5.571c3.676,0,5.1,1.755,5.1,4.588h-7.466c-.024,2.34,1.146,3.885,3.464,3.885a2.794,2.794,0,0,0,2.973-2.364h.936C650.014,50.479,648.117,52.585,644.887,52.585Zm1.545-7.56c0-1.639-.7-2.6-1.895-2.6-1.054,0-1.943.889-1.99,2.6Z"/><path class="cls-2" d="M657.057,46.265V51.2h3.134v1.124h-8.378V51.2h1.873V43.456l-2.155,1.218-.513-1.077,6.039-2.622V45.61c1.357-3.3,2.293-4.33,4.306-4.33v3.464h-1.451A3.339,3.339,0,0,0,657.057,46.265Z"/><path class="cls-2" d="M683.924,51.2v1.124h-6.3V51.2h1.4V45.282a1.67,1.67,0,0,0-1.756-1.755,3.3,3.3,0,0,0-1.917.678l-.071.071a2.478,2.478,0,0,1,.024.421V51.2h1.521v1.124h-6.3V51.2h1.405V45.282a1.67,1.67,0,0,0-1.756-1.755,3.316,3.316,0,0,0-2.082.819V51.2h1.5v1.124h-6.414V51.2h1.545V43.456l-2.155,1.218-.513-1.077,6.039-2.622v2.716A4.816,4.816,0,0,1,671.94,41.4a3.111,3.111,0,0,1,3.23,2.294,4.918,4.918,0,0,1,3.861-2.294,3.163,3.163,0,0,1,3.371,3.3V51.2Z"/><path class="cls-2" d="M690.752,52.585c-3.465,0-5.547-2.059-5.547-5.617a5.34,5.34,0,0,1,5.547-5.571c3.676,0,5.1,1.755,5.1,4.588h-7.467c-.024,2.34,1.146,3.885,3.463,3.885a2.793,2.793,0,0,0,2.972-2.364h.938C695.879,50.479,693.983,52.585,690.752,52.585Zm1.545-7.56c0-1.639-.7-2.6-1.9-2.6-1.052,0-1.941.889-1.988,2.6Z"/><path class="cls-2" d="M711.627,51.2v1.124h-6.3V51.2h1.406V45.282a1.671,1.671,0,0,0-1.755-1.755,3.287,3.287,0,0,0-2.108.842V51.2h1.475v1.124h-6.485V51.2H699.5V43.456l-2.152,1.218-.516-1.077,6.039-2.622v2.739a4.852,4.852,0,0,1,3.863-2.317,3.163,3.163,0,0,1,3.37,3.3V51.2Z"/><path class="cls-2" d="M714.1,49.308V43.339h-1.545v-.983l2.67-1.076-.258-4.682h2.293l-.444,5.056h4.68v1.615h-4.025v5.618c0,1.264.773,1.592,1.685,1.592a1.444,1.444,0,0,0,1.5-1.639l-.187-2.411h1.568L721.922,49c-.094,2.271-1.5,3.581-3.932,3.581C715.7,52.585,714.1,51.906,714.1,49.308Z"/><path class="cls-2" d="M729.174,52.585c-3.463,0-5.547-2.059-5.547-5.617a5.341,5.341,0,0,1,5.547-5.571c3.676,0,5.1,1.755,5.1,4.588h-7.466c-.024,2.34,1.146,3.885,3.464,3.885a2.793,2.793,0,0,0,2.973-2.364h.936C734.3,50.479,732.4,52.585,729.174,52.585Zm1.545-7.56c0-1.639-.7-2.6-1.9-2.6-1.054,0-1.943.889-1.99,2.6Z"/><path class="cls-2" d="M744.643,49.94a5.021,5.021,0,0,1-4.237,2.645c-2.5,0-4.423-1.943-4.423-5.173,0-3.675,1.99-6.015,5.431-6.015a3.748,3.748,0,0,1,3,1.17V38l-2.154,1.217-.516-1.077,6.039-2.621v14.91l2.155-1.217.515,1.076-6.039,2.622Zm-.233-.491V44.018a2.5,2.5,0,0,0-2.154-1.311c-1.5,0-2.621,1.335-2.621,3.769,0,2.154,1.053,3.792,2.832,3.792A2.939,2.939,0,0,0,744.41,49.449Z"/><path class="cls-2" d="M642.293,94.981c0,2.037-1.873,3.792-6.133,3.792-4.166,0-5.734-1.053-5.734-2.458,0-.8.537-1.357,2.269-1.708v-.094a1.875,1.875,0,0,1-1.755-1.872c0-1.077.75-1.826,2.037-2.575a3.182,3.182,0,0,1-2.223-2.95c0-2.527,2.129-4.119,4.937-4.119a6.458,6.458,0,0,1,3.02.725V83c0-1.639.984-2.271,1.99-2.271,1.311,0,2.084.843,2.084,2.692h-2.013c0-.772-.211-1.17-.7-1.17-.373,0-.677.234-.677.866v1.053a2.912,2.912,0,0,1,1.17,2.247c0,2.739-2.037,4.12-4.916,4.12a8.028,8.028,0,0,1-2.082-.258,2.993,2.993,0,0,0-.235.983c0,.632.375.96,1.076.89l3.979-.374C640.889,91.54,642.293,92.921,642.293,94.981Zm-2.06.96A1.3,1.3,0,0,0,638.8,94.7h-5.453a1.556,1.556,0,0,0-.493,1.217c0,.867.868,1.686,3.606,1.686C639.438,97.6,640.233,96.76,640.233,95.941Zm-6.157-9.48c0,1.615.4,3.043,1.733,3.043.679,0,1.474-.328,1.474-2.364,0-1.686-.56-3.113-1.732-3.113C634.873,84.027,634.076,84.448,634.076,86.461Z"/><path class="cls-2" d="M648.492,87.865V92.8h3.135v1.124h-8.379V92.8h1.873V85.057l-2.154,1.217-.514-1.077,6.039-2.621V87.21c1.358-3.3,2.293-4.33,4.307-4.33v3.464h-1.451A3.341,3.341,0,0,0,648.492,87.865Z"/><path class="cls-2" d="M667.307,87.631l-.209,3.23a3.06,3.06,0,0,1-3.418,3.207c-1.709,0-2.926-.725-2.926-2.2V91.7a4.414,4.414,0,0,1-3.723,2.481A2.666,2.666,0,0,1,654.2,91.47c0-1.826,1.241-2.668,3.254-3.043l3.3-.632V86.016c0-1.264-.516-1.872-1.5-1.872a1.474,1.474,0,0,0-1.5,1.662v1.287H654.5c0-2.575,2.131-4.1,5.033-4.1,3.2,0,4.565,1.311,4.565,3.7v4.12c0,.632.3,1.006.935,1.006.492,0,.983-.3.959-.8l-.211-3.395Zm-6.553.843-1.686.7a1.733,1.733,0,0,0-1.263,1.522A1.148,1.148,0,0,0,659,91.915a2.26,2.26,0,0,0,1.756-.936Z"/><path class="cls-2" d="M667.983,97.415H669.9V85.057l-2.152,1.217-.515-1.077,6.039-2.621v2.738A4.846,4.846,0,0,1,677.252,83c2.527,0,4.447,1.943,4.447,5.173,0,3.675-1.99,6.015-5.478,6.015a4.33,4.33,0,0,1-2.949-1.076v4.306h1.662v1.124h-6.951Zm10.064-8.309c0-2.153-1.053-3.792-2.879-3.792a2.763,2.763,0,0,0-1.9.819v5.431a2.5,2.5,0,0,0,2.177,1.311C676.947,92.875,678.047,91.517,678.047,89.106Z"/><path class="cls-2" d="M688.949,94.185c-3.463,0-5.547-2.059-5.547-5.617A5.341,5.341,0,0,1,688.949,83c3.676,0,5.1,1.755,5.1,4.588h-7.467c-.023,2.34,1.147,3.885,3.465,3.885a2.8,2.8,0,0,0,2.973-2.364h.935C694.076,92.079,692.18,94.185,688.949,94.185Zm1.545-7.56c0-1.639-.7-2.6-1.894-2.6-1.055,0-1.944.889-1.991,2.6Z"/><path class="cls-2" d="M705.533,86.882v2.692l-8.168-.14V87.023Z"/><path class="cls-2" d="M628.74,137.26v-.234h2.668v.843c0,1.287.328,1.755.867,1.755.444,0,.772-.4.8-1.03.047-1.381-.609-2.294-.609-3.721v-8.216l-2.152,1.217-.516-1.077,6.039-2.621V137.26c0,1.849-1.334,3.113-3.533,3.113C630.356,140.373,628.74,139.671,628.74,137.26Zm3.7-16.127c0-1.592.8-2.154,1.779-2.154,1.031,0,1.8.562,1.8,2.154s-.772,2.2-1.8,2.2C633.234,123.333,632.438,122.724,632.438,121.133Z"/><path class="cls-2" d="M647.158,136.207v-2.715a5.02,5.02,0,0,1-3.791,2.294c-2.154,0-3.207-1.218-3.207-3.512v-5.617l-2.154,1.217-.514-1.077,6.039-2.621v7.607a1.635,1.635,0,0,0,1.592,1.849,3.055,3.055,0,0,0,2.035-.843v-6.132l-2.152,1.217-.516-1.077,6.039-2.621v9.55l2.155-1.218.513,1.077Z"/><path class="cls-2" d="M659.3,124.176V134.4h1.732v1.124h-6.974V134.4h1.871v-7.747l-2.153,1.217-.515-1.077Zm-3.418-3.043c0-1.592.8-2.154,1.779-2.154,1.029,0,1.8.562,1.8,2.154s-.774,2.2-1.8,2.2C656.682,123.333,655.885,122.724,655.885,121.133Z"/><path class="cls-2" d="M667.914,135.786c-3.652,0-5.64-2.271-5.64-5.548a5.452,5.452,0,0,1,5.781-5.641c2.926,0,4.8,1.311,4.916,3.956l-3.488.023c0-1.779-.586-2.856-1.8-2.856-1.24,0-1.99,1.124-2.061,3.043-.092,2.786,1.336,4.354,3.278,4.354a2.829,2.829,0,0,0,3.019-2.2h.914C672.947,133.211,671.565,135.786,667.914,135.786Z"/><path class="cls-2" d="M680.127,135.786c-3.463,0-5.547-2.06-5.547-5.618a5.341,5.341,0,0,1,5.547-5.571c3.676,0,5.1,1.755,5.1,4.588h-7.467c-.024,2.34,1.146,3.885,3.465,3.885a2.793,2.793,0,0,0,2.972-2.364h.936C685.254,133.679,683.358,135.786,680.127,135.786Zm1.545-7.561c0-1.638-.7-2.6-1.895-2.6-1.054,0-1.943.889-1.99,2.6Z"/><path class="cls-2" d="M635.926,171.065V176h3.137v1.124h-8.379V176h1.871v-7.748l-2.153,1.218-.515-1.077,6.039-2.621v4.634c1.357-3.3,2.295-4.33,4.307-4.33v3.464h-1.452A3.341,3.341,0,0,0,635.926,171.065Z"/><path class="cls-2" d="M647.182,177.385c-3.465,0-5.547-2.059-5.547-5.617a5.34,5.34,0,0,1,5.547-5.571c3.676,0,5.1,1.755,5.1,4.588h-7.467c-.023,2.34,1.147,3.885,3.463,3.885a2.794,2.794,0,0,0,2.973-2.364h.937C652.309,175.279,650.412,177.385,647.182,177.385Zm1.545-7.56c0-1.639-.7-2.6-1.9-2.6-1.053,0-1.941.889-1.988,2.6Z"/><path class="cls-2" d="M653.85,180.615h1.918V168.256l-2.153,1.218L653.1,168.4l6.039-2.621v2.738a4.846,4.846,0,0,1,3.98-2.317c2.528,0,4.447,1.943,4.447,5.173,0,3.675-1.99,6.015-5.478,6.015a4.326,4.326,0,0,1-2.949-1.077v4.307H660.8v1.124H653.85Zm10.064-8.309c0-2.154-1.053-3.792-2.879-3.792a2.763,2.763,0,0,0-1.9.819v5.431a2.5,2.5,0,0,0,2.177,1.311C662.815,176.075,663.914,174.717,663.914,172.306Z"/><path class="cls-2" d="M674.654,171.065V176h3.135v1.124H669.41V176h1.873v-7.748l-2.154,1.218-.514-1.077,6.039-2.621v4.634c1.358-3.3,2.293-4.33,4.307-4.33v3.464H677.51A3.341,3.341,0,0,0,674.654,171.065Z"/><path class="cls-2" d="M692.3,171.463c0,3.98-2.738,5.922-6.274,5.922-3.486,0-5.664-2.106-5.664-5.36,0-4.026,2.926-5.828,6.25-5.828C690.217,166.2,692.3,168.256,692.3,171.463Zm-3.7,1.264c0-3.206-.727-5.453-2.623-5.453-1.217,0-1.918,1.263-1.918,3.557,0,3.184.654,5.454,2.574,5.454C687.828,176.285,688.6,174.974,688.6,172.727Z"/><path class="cls-2" d="M702.664,174.74a5.02,5.02,0,0,1-4.236,2.645c-2.506,0-4.424-1.942-4.424-5.173,0-3.675,1.988-6.015,5.43-6.015a3.748,3.748,0,0,1,3,1.17V162.8l-2.155,1.217-.513-1.077,6.039-2.621v14.91l2.152-1.217.516,1.076-6.039,2.622Zm-.234-.491v-5.431a2.5,2.5,0,0,0-2.155-1.311c-1.5,0-2.621,1.335-2.621,3.769,0,2.154,1.055,3.792,2.832,3.792A2.94,2.94,0,0,0,702.43,174.249Z"/><path class="cls-2" d="M717.9,177.807v-2.716a5.021,5.021,0,0,1-3.791,2.294c-2.155,0-3.207-1.217-3.207-3.511v-5.618l-2.155,1.218-.513-1.077,6.039-2.621v7.607a1.635,1.635,0,0,0,1.591,1.849,3.06,3.06,0,0,0,2.036-.843v-6.133l-2.153,1.218-.515-1.077,6.039-2.621v9.55l2.154-1.218.514,1.077Z"/><path class="cls-2" d="M730.3,177.385c-3.652,0-5.641-2.27-5.641-5.547a5.453,5.453,0,0,1,5.782-5.641c2.925,0,4.8,1.31,4.916,3.955l-3.489.024c0-1.779-.586-2.856-1.8-2.856-1.241,0-1.991,1.124-2.061,3.043-.092,2.786,1.336,4.354,3.277,4.354a2.829,2.829,0,0,0,3.02-2.2h.914C735.332,174.81,733.949,177.385,730.3,177.385Z"/><path class="cls-2" d="M738.158,174.108V168.14h-1.545v-.984l2.67-1.076-.258-4.682h2.293l-.443,5.056h4.68v1.615h-4.026v5.618c0,1.264.774,1.592,1.686,1.592a1.444,1.444,0,0,0,1.5-1.639l-.188-2.411h1.569l-.117,2.575c-.094,2.271-1.5,3.581-3.932,3.581C739.75,177.385,738.158,176.706,738.158,174.108Z"/><path class="cls-2" d="M753.066,165.776V176H754.8v1.124h-6.975V176H749.7v-7.748l-2.154,1.218-.514-1.077Zm-3.417-3.043c0-1.592.794-2.154,1.779-2.154,1.029,0,1.8.562,1.8,2.154s-.772,2.2-1.8,2.2C750.443,164.933,749.649,164.324,749.649,162.733Z"/><path class="cls-2" d="M768.348,167.6h-1.194l-4.775,9.784h-1.428l-4.728-9.784h-1.194v-1.123h6.459V167.6h-1.545l2.928,6.133,2.27-4.658V167.6h-1.358v-1.123h4.565Z"/><path class="cls-2" d="M774.242,177.385c-3.465,0-5.547-2.059-5.547-5.617a5.34,5.34,0,0,1,5.547-5.571c3.676,0,5.1,1.755,5.1,4.588h-7.467c-.023,2.34,1.146,3.885,3.463,3.885a2.8,2.8,0,0,0,2.973-2.364h.937C779.369,175.279,777.473,177.385,774.242,177.385Zm1.545-7.56c0-1.639-.7-2.6-1.9-2.6-1.053,0-1.942.889-1.989,2.6Z"/><path class="cls-2" d="M630.426,222.215h1.918V209.857l-2.153,1.217L629.676,210l6.039-2.621v2.738a4.846,4.846,0,0,1,3.98-2.317c2.528,0,4.448,1.943,4.448,5.173,0,3.675-1.991,6.015-5.479,6.015a4.332,4.332,0,0,1-2.949-1.076v4.306h1.662v1.124h-6.951Zm10.064-8.309c0-2.153-1.052-3.792-2.879-3.792a2.766,2.766,0,0,0-1.9.819v5.431a2.5,2.5,0,0,0,2.178,1.311C639.391,217.675,640.49,216.317,640.49,213.906Z"/><path class="cls-2" d="M658.953,212.432l-.209,3.23a3.06,3.06,0,0,1-3.418,3.206c-1.709,0-2.926-.725-2.926-2.2V216.5a4.411,4.411,0,0,1-3.722,2.481,2.666,2.666,0,0,1-2.832-2.715c0-1.826,1.24-2.668,3.254-3.043l3.3-.632v-1.779c0-1.264-.515-1.872-1.5-1.872a1.474,1.474,0,0,0-1.5,1.662v1.287H646.15c0-2.575,2.131-4.1,5.034-4.1,3.205,0,4.564,1.311,4.564,3.7v4.12c0,.632.3,1.006.936,1.006.492,0,.982-.3.959-.8l-.211-3.393Zm-6.553.842-1.685.7a1.733,1.733,0,0,0-1.264,1.522,1.148,1.148,0,0,0,1.194,1.217,2.259,2.259,0,0,0,1.755-.936Z"/><path class="cls-2" d="M665.27,212.665V217.6h3.136v1.124h-8.379V217.6H661.9v-7.747l-2.153,1.217L659.231,210l6.039-2.621v4.634c1.357-3.3,2.3-4.33,4.306-4.33v3.464h-1.451A3.341,3.341,0,0,0,665.27,212.665Z"/><path class="cls-2" d="M672.172,215.708V209.74h-1.545v-.984l2.668-1.076L673.037,203h2.295l-.445,5.056h4.681v1.615h-4.025v5.618c0,1.264.772,1.592,1.686,1.592a1.445,1.445,0,0,0,1.5-1.639l-.188-2.411h1.569l-.118,2.575c-.093,2.271-1.5,3.581-3.933,3.581C673.764,218.985,672.172,218.307,672.172,215.708Z"/><path class="cls-2" d="M683.66,217.23v1.5h-1.638v-4h1.591v1.592a4.762,4.762,0,0,0,3.418,1.358c1.287,0,1.873-.539,1.873-1.241,0-.749-.328-1.17-3.113-1.826-3.183-.749-3.838-1.8-3.838-3.558,0-2.106,1.8-3.253,4.1-3.253a5.2,5.2,0,0,1,3.7,1.381v-1.1h1.686v3.581H689.84v-1.428a4.8,4.8,0,0,0-3.09-1.24c-1.24,0-1.732.515-1.732,1.1,0,.655.328,1.147,2.482,1.662,3.674.889,4.424,1.638,4.4,3.721-.023,2.271-1.755,3.511-4.166,3.511A5.128,5.128,0,0,1,683.66,217.23Z"/><path class="cls-2" d="M642.481,254.663c0,3.979-2.739,5.922-6.274,5.922-3.488,0-5.664-2.106-5.664-5.36,0-4.026,2.926-5.828,6.25-5.828C640.4,249.4,642.481,251.456,642.481,254.663Zm-3.7,1.264c0-3.206-.724-5.453-2.621-5.453-1.217,0-1.92,1.263-1.92,3.557,0,3.184.657,5.454,2.575,5.454C638.01,259.485,638.781,258.174,638.781,255.927Z"/><path class="cls-2" d="M644.113,259.181h1.592v-7.842h-1.779v-1.006l1.756-.679V248.39c0-2.809,1.685-4.307,3.98-4.307a3.635,3.635,0,0,1,3.862,3.558v.211H650.34v-1.381c0-.749-.328-1.288-1.029-1.288-.774,0-1.287.75-1.055,1.85l.562,2.621h2.926v1.522h-2.668v8h2.34V260.3h-7.3Z"/><path class="cls-2" d="M632.508,300.43v1.5h-1.639v-4h1.592v1.592a4.762,4.762,0,0,0,3.418,1.358c1.287,0,1.873-.539,1.873-1.241,0-.749-.328-1.17-3.113-1.826-3.184-.749-3.838-1.8-3.838-3.558,0-2.106,1.8-3.253,4.1-3.253a5.2,5.2,0,0,1,3.7,1.381v-1.1h1.685v3.581h-1.591v-1.428a4.805,4.805,0,0,0-3.09-1.24c-1.24,0-1.733.514-1.733,1.1,0,.655.328,1.147,2.483,1.662,3.674.889,4.424,1.638,4.4,3.721-.023,2.271-1.756,3.511-4.166,3.511A5.128,5.128,0,0,1,632.508,300.43Z"/><path class="cls-2" d="M648.07,302.185c-3.464,0-5.546-2.059-5.546-5.617A5.339,5.339,0,0,1,648.07,291c3.676,0,5.1,1.755,5.1,4.588h-7.467c-.023,2.34,1.147,3.885,3.463,3.885a2.794,2.794,0,0,0,2.973-2.364h.937C653.2,300.079,651.3,302.185,648.07,302.185Zm1.545-7.56c0-1.639-.7-2.6-1.9-2.6-1.053,0-1.942.889-1.988,2.6Z"/><path class="cls-2" d="M660.4,302.185c-3.464,0-5.546-2.059-5.546-5.617A5.339,5.339,0,0,1,660.4,291c3.676,0,5.1,1.755,5.1,4.588h-7.467c-.023,2.34,1.147,3.885,3.463,3.885a2.794,2.794,0,0,0,2.973-2.364h.937C665.529,300.079,663.633,302.185,660.4,302.185Zm1.545-7.56c0-1.639-.7-2.6-1.9-2.6-1.053,0-1.942.889-1.988,2.6Z"/><path class="cls-2" d="M675.871,299.54a5.02,5.02,0,0,1-4.236,2.645c-2.506,0-4.424-1.942-4.424-5.173,0-3.674,1.988-6.015,5.43-6.015a3.748,3.748,0,0,1,3,1.17V287.6l-2.154,1.217-.514-1.077,6.039-2.621v14.91l2.152-1.217.516,1.076-6.039,2.622Zm-.234-.491v-5.431a2.494,2.494,0,0,0-2.154-1.31c-1.5,0-2.622,1.334-2.622,3.768,0,2.154,1.055,3.792,2.832,3.792A2.94,2.94,0,0,0,675.637,299.049Z"/><path class="cls-2" d="M687.662,305.415h1.918V293.057l-2.152,1.217-.516-1.077,6.039-2.621v2.738A4.848,4.848,0,0,1,696.932,291c2.527,0,4.447,1.943,4.447,5.173,0,3.675-1.99,6.015-5.479,6.015a4.332,4.332,0,0,1-2.949-1.076v4.306h1.662v1.124h-6.951Zm10.065-8.309c0-2.153-1.053-3.792-2.879-3.792a2.766,2.766,0,0,0-1.9.819v5.431a2.5,2.5,0,0,0,2.178,1.311C696.627,300.875,697.727,299.517,697.727,297.106Z"/><path class="cls-2" d="M707.9,285.122V300.8h1.662v1.124h-6.953V300.8h1.92V287.6l-2.152,1.217-.516-1.077Z"/><path class="cls-2" d="M723.983,295.631l-.211,3.23a3.06,3.06,0,0,1-3.418,3.207c-1.709,0-2.926-.725-2.926-2.2V299.7a4.408,4.408,0,0,1-3.721,2.481,2.666,2.666,0,0,1-2.832-2.715c0-1.826,1.24-2.668,3.254-3.043l3.3-.632v-1.779c0-1.264-.514-1.872-1.5-1.872a1.475,1.475,0,0,0-1.5,1.662v1.287h-3.254c0-2.575,2.131-4.1,5.033-4.1,3.207,0,4.564,1.311,4.564,3.7v4.12c0,.632.305,1.006.936,1.006.492,0,.984-.3.961-.8l-.211-3.4Zm-6.555.843-1.686.7a1.735,1.735,0,0,0-1.263,1.522,1.149,1.149,0,0,0,1.193,1.217,2.257,2.257,0,0,0,1.756-.936Z"/><path class="cls-2" d="M739.006,300.8v1.124h-6.3V300.8h1.4v-5.922a1.67,1.67,0,0,0-1.755-1.755,3.281,3.281,0,0,0-2.106.842V300.8h1.475v1.124h-6.485V300.8h1.639v-7.747l-2.154,1.217-.514-1.077,6.039-2.621v2.738A4.845,4.845,0,0,1,734.113,291a3.163,3.163,0,0,1,3.371,3.3V300.8Z"/><path class="cls-2" d="M741.483,298.908V292.94h-1.545v-.984l2.668-1.076-.258-4.682h2.3l-.446,5.056h4.682v1.615h-4.025v5.618c0,1.264.771,1.592,1.685,1.592a1.444,1.444,0,0,0,1.5-1.639l-.187-2.411h1.568L749.3,298.6c-.094,2.271-1.5,3.581-3.934,3.581C743.074,302.185,741.483,301.506,741.483,298.908Z"/><path class="cls-2" d="M752.971,300.43v1.5h-1.639v-4h1.592v1.592a4.76,4.76,0,0,0,3.418,1.358c1.287,0,1.873-.539,1.873-1.241,0-.749-.328-1.17-3.113-1.826-3.184-.749-3.838-1.8-3.838-3.558,0-2.106,1.8-3.253,4.1-3.253a5.2,5.2,0,0,1,3.7,1.381v-1.1h1.685v3.581H759.15v-1.428a4.8,4.8,0,0,0-3.089-1.24c-1.241,0-1.733.514-1.733,1.1,0,.655.328,1.147,2.483,1.662,3.673.889,4.423,1.638,4.4,3.721-.023,2.271-1.756,3.511-4.166,3.511A5.128,5.128,0,0,1,752.971,300.43Z"/><path class="cls-2" d="M596.863,34.953v6.3h-1.779V38.277l-1.709-1.264h-3.3v13.67h2.178v1.17h-8.1v-1.17h2.155V37.013h-4.283l-1.428.656V41.25h-1.78v-6.3h1.78v.937h14.488v-.937Z"/><path class="cls-2" d="M612.072,50.73v1.123h-6.3V50.73h1.4V44.808a1.672,1.672,0,0,0-1.756-1.756,3.283,3.283,0,0,0-2.106.843V50.73h1.475v1.123h-6.484V50.73h1.638v-13.2l-2.154,1.217-.514-1.076,6.039-2.622v8.192a4.846,4.846,0,0,1,3.862-2.317,3.164,3.164,0,0,1,3.371,3.3V50.73Z"/><path class="cls-2" d="M618.9,52.111c-3.464,0-5.546-2.06-5.546-5.618a5.339,5.339,0,0,1,5.546-5.571c3.676,0,5.1,1.756,5.1,4.588h-7.467c-.023,2.34,1.147,3.885,3.463,3.885a2.794,2.794,0,0,0,2.973-2.364h.937C624.029,50,622.133,52.111,618.9,52.111Zm1.545-7.561c0-1.638-.7-2.6-1.9-2.6-1.053,0-1.942.889-1.988,2.6Z"/><path class="cls-2" d="M516.859,170.357l-.21,3.23a3.06,3.06,0,0,1-3.418,3.207c-1.709,0-2.926-.726-2.926-2.2v-.163a4.41,4.41,0,0,1-3.721,2.481,2.667,2.667,0,0,1-2.832-2.716c0-1.825,1.24-2.668,3.254-3.043l3.3-.631v-1.779c0-1.264-.514-1.873-1.5-1.873a1.475,1.475,0,0,0-1.5,1.662v1.287h-3.254c0-2.574,2.131-4.1,5.033-4.1,3.207,0,4.564,1.311,4.564,3.7v4.119c0,.632.3,1.007.936,1.007.492,0,.984-.305.961-.8l-.211-3.394Zm-6.554.842-1.686.7a1.737,1.737,0,0,0-1.263,1.522,1.149,1.149,0,0,0,1.193,1.217,2.254,2.254,0,0,0,1.756-.936Z"/><path class="cls-2" d="M538.951,175.53v1.123h-6.3V175.53h1.4v-5.922a1.671,1.671,0,0,0-1.756-1.756,3.3,3.3,0,0,0-1.918.679l-.07.07a2.6,2.6,0,0,1,.023.422v6.507h1.521v1.123h-6.3V175.53h1.4v-5.922a1.671,1.671,0,0,0-1.756-1.756,3.32,3.32,0,0,0-2.082.82v6.858h1.5v1.123h-6.414V175.53h1.545v-7.748L517.6,169l-.514-1.077,6.039-2.621v2.715a4.816,4.816,0,0,1,3.838-2.294,3.11,3.11,0,0,1,3.23,2.294,4.918,4.918,0,0,1,3.862-2.294,3.164,3.164,0,0,1,3.371,3.3v6.507Z"/><path class="cls-2" d="M552.17,170.989c0,3.979-2.738,5.922-6.273,5.922-3.489,0-5.664-2.107-5.664-5.361,0-4.025,2.925-5.828,6.25-5.828C550.086,165.722,552.17,167.782,552.17,170.989Zm-3.7,1.264c0-3.207-.725-5.454-2.621-5.454-1.217,0-1.92,1.264-1.92,3.558,0,3.183.656,5.454,2.574,5.454C547.7,175.811,548.471,174.5,548.471,172.253Z"/><path class="cls-2" d="M567.941,175.53v1.123h-6.3V175.53h1.4v-5.922a1.671,1.671,0,0,0-1.756-1.756,3.278,3.278,0,0,0-2.105.843v6.835h1.474v1.123h-6.484V175.53h1.638v-7.748L553.662,169l-.513-1.077,6.039-2.621v2.738a4.842,4.842,0,0,1,3.861-2.317,3.164,3.164,0,0,1,3.371,3.3v6.507Z"/><path class="cls-2" d="M580.975,177.706c0,2.037-1.873,3.792-6.133,3.792-4.166,0-5.734-1.053-5.734-2.457,0-.8.537-1.358,2.269-1.709v-.094a1.876,1.876,0,0,1-1.756-1.872c0-1.077.75-1.826,2.037-2.575a3.183,3.183,0,0,1-2.222-2.949c0-2.528,2.129-4.12,4.937-4.12a6.464,6.464,0,0,1,3.02.726v-.726c0-1.638.984-2.27,1.99-2.27,1.31,0,2.084.842,2.084,2.691h-2.014c0-.772-.211-1.17-.7-1.17-.373,0-.678.234-.678.866v1.053a2.906,2.906,0,0,1,1.17,2.248c0,2.738-2.037,4.119-4.916,4.119a8.042,8.042,0,0,1-2.082-.257,3.01,3.01,0,0,0-.234.983c0,.632.375.959,1.076.889l3.979-.374C579.57,174.266,580.975,175.647,580.975,177.706Zm-2.061.96a1.3,1.3,0,0,0-1.428-1.24h-5.453a1.556,1.556,0,0,0-.492,1.217c0,.866.867,1.685,3.606,1.685C578.119,180.328,578.914,179.485,578.914,178.666Zm-6.156-9.48c0,1.615.4,3.043,1.732,3.043.68,0,1.475-.328,1.475-2.364,0-1.685-.561-3.113-1.732-3.113C573.555,166.752,572.758,167.173,572.758,169.186Z"/><path class="cls-2" d="M588.365,173.634v-5.969H586.82v-.983l2.668-1.077-.257-4.681h2.294l-.445,5.056h4.682V167.6h-4.026v5.617c0,1.264.772,1.592,1.686,1.592a1.444,1.444,0,0,0,1.5-1.638l-.187-2.411H596.3l-.117,2.574c-.094,2.271-1.5,3.582-3.934,3.582C589.957,176.911,588.365,176.232,588.365,173.634Z"/><path class="cls-2" d="M611.277,175.53v1.123h-6.3V175.53h1.4v-5.922a1.672,1.672,0,0,0-1.756-1.756,3.278,3.278,0,0,0-2.105.843v6.835H604v1.123h-6.484V175.53h1.638v-13.2L597,163.545l-.514-1.076,6.04-2.622v8.192a4.842,4.842,0,0,1,3.861-2.317,3.164,3.164,0,0,1,3.371,3.3v6.507Z"/><path class="cls-2" d="M618.108,176.911c-3.465,0-5.547-2.06-5.547-5.618a5.34,5.34,0,0,1,5.547-5.571c3.675,0,5.1,1.756,5.1,4.588h-7.467c-.023,2.341,1.147,3.885,3.463,3.885a2.794,2.794,0,0,0,2.973-2.364h.937C623.234,174.8,621.338,176.911,618.108,176.911Zm1.544-7.561c0-1.638-.7-2.6-1.9-2.6-1.053,0-1.941.889-1.988,2.6Z"/><path class="cls-1" d="M805.477,45.025c-1.014.078-2.028.13-3.041.13a103.448,103.448,0,0,0-3.407,10.973l-3.017-.651c.521-2.184,1.353-5.876,2.808-10.4-1.066-.078-1.976-.156-2.548-.234l.39-2c.832.052,1.821.1,2.862.13.623-1.794,1.351-3.692,2.156-5.668l3.511,1.066c-.7,1.56-1.326,3.094-1.923,4.628.832-.052,1.689-.1,2.728-.208Z"/><path class="cls-1" d="M819.024,44.531a52.787,52.787,0,0,0-4.473,12.87l-3.094-.728A57.578,57.578,0,0,1,814.264,47a76.834,76.834,0,0,0-6.395,6.084c-.338,1.222-.65,2.262-.885,3.043l-3.121-.781c.963-3.432,4.422-13.858,6.164-19.786l3.3,1.144c-.754,2.886-2.392,7.54-4.133,12.272a63.265,63.265,0,0,1,6.864-6.11Z"/><path class="cls-1" d="M822.481,51.5a11.156,11.156,0,0,0-.053,2.6c.859-.052,2.367-.052,5.773-1.742l-.287,2.262A8.807,8.807,0,0,1,822.9,56.44c-2.549,0-3.979-1.483-3.8-4.473a10.459,10.459,0,0,1,7.437-9.724l4.289,1.274a8.06,8.06,0,0,1,.365,2.314c0,2.782-2.107,4.992-5.929,4.992a18.632,18.632,0,0,1-2.625-.234A6.532,6.532,0,0,0,822.481,51.5Zm.806-2.7a7.014,7.014,0,0,0,1.326.13,3.275,3.275,0,0,0,3.432-3.3,4.636,4.636,0,0,0-.209-1.3A9.717,9.717,0,0,0,823.287,48.8Z"/><path class="cls-1" d="M856.723,43.881l-7.438,12.792-1.636-.6-2.575-.936c.207-2.73.573-5.278.961-7.878l-5.771,9.568-.936-.338-3.015-1.066c.441-3.8.935-8.606,1.17-12.662l3.666.364c-.338,3.146-.911,6.838-1.4,10.218l6.4-10.738,3.509.208c-.312,3.718-.781,7.176-1.144,10.79l5.8-11.1Z"/><path class="cls-1" d="M862.469,43.413a104.373,104.373,0,0,0-4.16,12.74l-3.1-.676a82.916,82.916,0,0,1,3.875-12.948ZM863.248,41l-3.121-.91a54.242,54.242,0,0,1,2.471-6.11l3.2.962C865.2,36.159,864.393,38.005,863.248,41Z"/><path class="cls-1" d="M877.158,44.531a42.873,42.873,0,0,0-4.213,12.376l-3.222-.546a57.654,57.654,0,0,1,2.756-9.542,70.524,70.524,0,0,0-6.268,5.434c-.338,1.352-.676,2.548-.986,3.692l-3.121-.78c.962-3.432,2.183-7.046,3.38-12.35l3.329.676a40.947,40.947,0,0,1-1.432,5.1,70.449,70.449,0,0,1,6.787-5.746Z"/><path class="cls-1" d="M880.615,51.5a11.2,11.2,0,0,0-.052,2.6c.859-.052,2.367-.052,5.773-1.742l-.287,2.262a8.808,8.808,0,0,1-5.018,1.821c-2.548,0-3.978-1.483-3.8-4.473a10.461,10.461,0,0,1,7.438-9.724l4.289,1.274a8.1,8.1,0,0,1,.365,2.314c0,2.782-2.107,4.992-5.929,4.992a18.62,18.62,0,0,1-2.625-.234A6.544,6.544,0,0,0,880.615,51.5Zm.807-2.7a7.014,7.014,0,0,0,1.326.13,3.275,3.275,0,0,0,3.432-3.3,4.636,4.636,0,0,0-.209-1.3A9.717,9.717,0,0,0,881.422,48.8Z"/><path class="cls-1" d="M771.678,349.224c-1.016.078-2.029.13-3.043.13a103.736,103.736,0,0,0-3.406,10.973l-3.016-.65c.52-2.184,1.352-5.877,2.809-10.4-1.067-.078-1.977-.156-2.549-.234l.39-2c.832.052,1.821.1,2.86.13.625-1.794,1.351-3.692,2.158-5.668l3.51,1.066c-.7,1.56-1.326,3.094-1.924,4.628.832-.052,1.689-.1,2.73-.208Z"/><path class="cls-1" d="M785.223,348.73A53.006,53.006,0,0,0,780.75,361.6l-3.094-.728a57.6,57.6,0,0,1,2.809-9.673,76.879,76.879,0,0,0-6.4,6.085c-.337,1.221-.65,2.262-.884,3.042l-3.119-.78c.962-3.433,4.419-13.859,6.162-19.787l3.3,1.144c-.754,2.886-2.392,7.54-4.134,12.272a63.472,63.472,0,0,1,6.865-6.11Z"/><path class="cls-1" d="M788.68,355.7a11.118,11.118,0,0,0-.051,2.6c.857-.051,2.365-.051,5.771-1.741l-.285,2.261a8.815,8.815,0,0,1-5.019,1.821c-2.547,0-3.977-1.482-3.795-4.472a10.457,10.457,0,0,1,7.435-9.725l4.291,1.274a8.058,8.058,0,0,1,.364,2.314c0,2.782-2.106,4.993-5.928,4.993a18.655,18.655,0,0,1-2.627-.235A6.869,6.869,0,0,0,788.68,355.7Zm.806-2.7a7.038,7.038,0,0,0,1.327.13,3.274,3.274,0,0,0,3.431-3.3,4.7,4.7,0,0,0-.207-1.3A9.712,9.712,0,0,0,789.486,352.994Z"/><path class="cls-1" d="M816.4,339.812l-.729,2.73a4.609,4.609,0,0,0-2.08-.468c-1.664,0-2.756,1.248-3.641,4.238-.078.312-.181.6-.259.91,1.119-.026,2.211-.1,3.615-.234l-.522,2.236c-1.195.1-2.418.13-3.588.13h-.156c-1.767,5.824-3.638,11.831-4.808,17.031l-3.018-.624c1.119-5.2,2.652-10.946,4.188-16.537-.754-.052-1.379-.13-1.821-.182l.391-2c.6.026,1.3.078,2.027.1.129-.546.285-1.066.442-1.612.91-3.25,2.861-6.526,6.812-6.526A5.849,5.849,0,0,1,816.4,339.812Z"/><path class="cls-1" d="M821.129,341.086a127.118,127.118,0,0,0-6.813,19.241l-3.042-.65a122.488,122.488,0,0,1,6.371-19.917Z"/><path class="cls-1" d="M830.879,350.55c0,4.732-3.043,9.647-8.4,10.479-1.145-.494-2.237-.962-3.25-1.456a15.2,15.2,0,0,1-.469-3.667c0-5.382,3.459-9.724,8.84-9.724a11.549,11.549,0,0,1,1.613.13l.65,2.574.91.13A10.271,10.271,0,0,1,830.879,350.55Zm-2.887-.52c0-.286,0-.572-.025-.832-3.822.234-5.852,3.12-5.852,7.436a12.131,12.131,0,0,0,.184,2.133C826.354,357.935,827.992,353.332,827.992,350.03Z"/><path class="cls-1" d="M852.666,348.08l-7.435,12.793-1.639-.6-2.574-.936c.209-2.73.572-5.279.963-7.879l-5.772,9.569-.937-.338-3.016-1.066c.441-3.8.935-8.607,1.17-12.663l3.666.364c-.338,3.146-.91,6.838-1.4,10.219l6.4-10.739,3.51.208c-.311,3.718-.779,7.177-1.143,10.791l5.8-11.1Z"/><path class="cls-1" d="M854.953,355.7a11.235,11.235,0,0,0-.051,2.6c.858-.051,2.366-.051,5.772-1.741l-.285,2.261a8.817,8.817,0,0,1-5.02,1.821c-2.547,0-3.976-1.482-3.8-4.472a10.46,10.46,0,0,1,7.436-9.725l4.291,1.274a8.091,8.091,0,0,1,.363,2.314c0,2.782-2.105,4.993-5.928,4.993a18.667,18.667,0,0,1-2.627-.235A7.037,7.037,0,0,0,854.953,355.7Zm.807-2.7a7.028,7.028,0,0,0,1.326.13,3.275,3.275,0,0,0,3.432-3.3,4.7,4.7,0,0,0-.207-1.3A9.712,9.712,0,0,0,855.76,352.994Z"/><path class="cls-1" d="M876.82,347.768a39.489,39.489,0,0,0-2.705,8.165l-2.99-.547a39.619,39.619,0,0,1,1.17-4.16c-1.637,2-3.354,4.421-4.887,6.552-.234.832-.521,1.691-.781,2.549l-3.119-.78c.961-3.433,2.236-7.307,3.379-12.585l3.328.728a33.434,33.434,0,0,1-1.533,5.461,60.55,60.55,0,0,1,5.642-7.021Z"/><path class="cls-1" d="M882.514,349.562a3.936,3.936,0,0,0-1.3.182c0,.962.6,1.69,1.4,2.652,1.43,1.768,2.783,3.043,2.783,4.6,0,2.054-3.1,3.952-5.773,3.952a6.713,6.713,0,0,1-4.316-1.456l.91-2.808a10.241,10.241,0,0,0,6.058,1.664c-.181-1.066-1.4-2.184-2.261-3.251-1.457-1.82-1.977-2.756-1.977-3.874,0-1.976,2.756-4.446,5.486-4.446a9.148,9.148,0,0,1,4.032.91l-.885,3.172A8.472,8.472,0,0,0,882.514,349.562Z"/></g></svg>