<svg xmlns="http://www.w3.org/2000/svg" viewBox="0 0 952 367"><defs><style>.cls-1{fill:#f36;}.cls-2{fill:#ffeded;}.cls-3{fill:#1858a8;}</style></defs><title>manuale_ill_nuove</title><g id="solo_testo" data-name="solo testo"><path class="cls-1" d="M564.83,327.434c-.028-.019-.061-.03-.088-.049a.192.192,0,0,1-.1-.213c.021-.088-.029-.136-.1-.183a3,3,0,0,1-.3-.231.211.211,0,0,1-.083-.121,4.178,4.178,0,0,0-.12-.532,1.2,1.2,0,0,0-.039-.142c-.017-.054-.038-.108-.056-.162a.724.724,0,0,0-.036-.117,2.885,2.885,0,0,1-.3-.822.849.849,0,0,0-.114-.305,2.043,2.043,0,0,1-.378-.863.109.109,0,0,0-.029-.068c-.117-.088-.112-.222-.127-.343-.012-.1-.11-.158-.12-.242a.531.531,0,0,0-.072-.259.922.922,0,0,1-.061-.137l.322-.175c.217-.12.222-.147.067-.328a.25.25,0,0,1-.031-.04.515.515,0,0,0-.4-.242.31.31,0,0,1-.181-.077,1.75,1.75,0,0,0-.556-.42.169.169,0,0,1-.059-.045,1.4,1.4,0,0,0-.392-.268.211.211,0,0,1-.1-.107,4.739,4.739,0,0,1-.168-.518,1.138,1.138,0,0,0-.144-.345c-.07-.112-.21-.131-.276-.242a.1.1,0,0,0-.092-.027c-.155.053-.32.1-.393.272-.015.034-.028.059-.085.038a.61.61,0,0,1-.015-.086.216.216,0,0,0-.169-.216.566.566,0,0,1-.341-.277.682.682,0,0,0-.224-.233,5.862,5.862,0,0,0-.536-.328c-.091-.05-.177-.091-.209-.2a.161.161,0,0,0-.088-.082,1.756,1.756,0,0,1-.535-.374,1.12,1.12,0,0,1-.374-.51c-.1-.049-.188-.1-.281-.136a.6.6,0,0,1-.255-.2c-.025-.03-.074-.038-.11-.06a1.5,1.5,0,0,1-.122-.087c-.094-.077-.157-.2-.3-.206-.313-.241-.654-.445-.946-.714a2.005,2.005,0,0,0-.291-.24.3.3,0,0,1-.179-.3.2.2,0,0,0-.171-.222,1.617,1.617,0,0,0-.546-.074c-.3.043-.6.059-.9.107a2.047,2.047,0,0,1-.749-.057,1.16,1.16,0,0,0-.422-.031,1.289,1.289,0,0,1-.446-.014.731.731,0,0,1-.44-.262.453.453,0,0,0-.138-.1.162.162,0,0,1-.105-.2.275.275,0,0,0-.126-.308.817.817,0,0,0-.673-.13,2.706,2.706,0,0,1-.445.076,1.6,1.6,0,0,1-.347.04,1.058,1.058,0,0,0-.324.035c-.062.013-.125.025-.187.036a2.761,2.761,0,0,0-.416.015c-.049.006-.1.009-.147.012a1.335,1.335,0,0,1-.2-.036,1.08,1.08,0,0,0-.375-.03c-.033-.01-.066-.021-.1-.033a1.133,1.133,0,0,0-.513-.065c-.565.048-1.131.084-1.695.133a1.792,1.792,0,0,1-.852,0,1.037,1.037,0,0,0-.346.006c-.16,0-.319,0-.478,0s-.289-.017-.433-.011a2.849,2.849,0,0,1-.738-.007.426.426,0,0,0-.258.01,1.13,1.13,0,0,1-.682.032,5.084,5.084,0,0,1-1.2-.2.452.452,0,0,0-.3.007.69.69,0,0,1-.426.007.425.425,0,0,0-.212-.029.851.851,0,0,1-.512-.033,1.071,1.071,0,0,0-.559.023c-.083.024-.177.084-.248.063a2.124,2.124,0,0,0-.685.025c-.169,0-.341.066-.5-.054-.039-.03-.112-.014-.169-.021-.216-.027-.431-.052-.646-.081-.316-.042-.63-.1-.947-.126a1.8,1.8,0,0,0-.371.033l-.159.335a4.2,4.2,0,0,0-.527-.112,4.573,4.573,0,0,0-.522.02.369.369,0,0,1-.129-.015.85.85,0,0,0-.676-.029.364.364,0,0,1-.212-.014,14.9,14.9,0,0,0-2.079-.116c-.374-.03-.756.024-1.127-.021a5.461,5.461,0,0,0-1.172.023,2.632,2.632,0,0,1-.693-.032c-.295-.051-.585-.2-.892-.048-.021.01-.057-.014-.085-.011-.128.01-.257.02-.384.039a3.18,3.18,0,0,1-.427.074c-.4,0-.81,0-1.213-.03a.735.735,0,0,0-.535.1.457.457,0,0,1-.324.08.9.9,0,0,0-.512.062,2.687,2.687,0,0,1-1.028.069c-.1,0-.2-.046-.3-.043a3.646,3.646,0,0,1-1.254-.049,1.18,1.18,0,0,1-.831-.174,1.2,1.2,0,0,0-.886-.034.757.757,0,0,0-.394.2.864.864,0,0,1-.23.02,1.048,1.048,0,0,0-.323.035,2,2,0,0,1-.946.027,1.074,1.074,0,0,0-.571,0,4.171,4.171,0,0,1-.714.132.489.489,0,0,1-.147-.013,1.033,1.033,0,0,0-.145-.043,3.853,3.853,0,0,0-.578-.038c-.158.016-.318.028-.477.03a8.069,8.069,0,0,0-.879.054.478.478,0,0,1-.1,0,1.078,1.078,0,0,0-.494.057.477.477,0,0,1-.148.016c-.058,0-.116,0-.174.009a1.036,1.036,0,0,0-.507.129c-.057.04-.148.027-.216.057-.167.075-.337.145-.5.226a2.876,2.876,0,0,0-.5.29.269.269,0,0,1-.156.068.384.384,0,0,0-.324.161c-.085.092-.169.185-.26.271a1.331,1.331,0,0,1-.411.284,2.349,2.349,0,0,1-.579.154c-.108.014-.216.033-.324.05a.427.427,0,0,0-.293.176,2.616,2.616,0,0,1-.3.34.39.39,0,0,1-.213.118,3.585,3.585,0,0,0-.368.084.5.5,0,0,0-.364.2.22.22,0,0,1-.219.1.556.556,0,0,0-.318.045,1.625,1.625,0,0,1-.365.1c-.24.022-.389.214-.6.3-.024.009-.041.052-.05.082a.5.5,0,0,1-.409.364.251.251,0,0,0-.073.017.289.289,0,0,0-.1.076c-.1.152-.2.31-.3.462a1.151,1.151,0,0,1-.162.193.7.7,0,0,0-.276.563.138.138,0,0,1-.013.073,1.728,1.728,0,0,1-.186.3,2.5,2.5,0,0,0-.214.278.448.448,0,0,1-.224.2.279.279,0,0,0-.19.246.588.588,0,0,1-.2.341.333.333,0,0,0-.125.236c-.006.075-.016.15-.029.225a.539.539,0,0,1-.229.376,1.688,1.688,0,0,0-.2.189.69.69,0,0,1-.112.1.2.2,0,0,0-.119.151.132.132,0,0,1-.059.076.222.222,0,0,0-.1.167,1.263,1.263,0,0,1-.262.592,1.878,1.878,0,0,0-.316.513,1.445,1.445,0,0,1-.084.154.8.8,0,0,0-.1.2.309.309,0,0,1-.143.222c-.09.06-.166.143-.255.206a.885.885,0,0,0-.318.383.355.355,0,0,1-.162.184.947.947,0,0,0-.31.291c-.088.122-.191.234-.288.35a.328.328,0,0,0-.1.2.722.722,0,0,1-.028.137c.046.16.089.287.119.416a.6.6,0,0,1-.049.393c-.088.19-.19.373-.285.56a.356.356,0,0,0-.023.072c-.024.089-.052.177-.073.267a.5.5,0,0,0-.017.172.852.852,0,0,1-.073.467,1.469,1.469,0,0,0-.171.653,1,1,0,0,1-.036.146,2.165,2.165,0,0,0-.034.4c0,.074.094.14.108.217s-.035.189-.012.271c.059.2.065.414.11.616a1.109,1.109,0,0,1-.058.665c-.071.18-.149.357-.215.54a.427.427,0,0,0-.039.243,5.084,5.084,0,0,0,.167.656.252.252,0,0,1-.023.287.288.288,0,0,0-.064.236,3.223,3.223,0,0,0,.077.492,2.363,2.363,0,0,1,.1.693.714.714,0,0,0,.1.458,1.11,1.11,0,0,1,.171.412,1.319,1.319,0,0,0,.191.46c.048.068.038.176.066.261s.145.133.15.253a.332.332,0,0,0,.235.3c.214.087.257.174.191.392a.816.816,0,0,0,0,.422c.019.09.031.181.044.272,0,.033,0,.073.011.1a.511.511,0,0,1,.048.366.252.252,0,0,0,.115.261,2.079,2.079,0,0,1,.169.134c.048.189.092.368.14.544a.317.317,0,0,0,.064.133.839.839,0,0,1,.231.352c.007.022.03.04.044.061a2.435,2.435,0,0,1,.22.337,1.193,1.193,0,0,0,.332.36c.07.065.156.123.235.184a.331.331,0,0,1,.146.349.652.652,0,0,0,.038.348,2.586,2.586,0,0,0,.238.579.32.32,0,0,1,.052.241.415.415,0,0,0,.014.171,2.465,2.465,0,0,0,.521.793c.014.019.043.026.063.041.092.072.188.14.274.219a.408.408,0,0,0,.216.12.3.3,0,0,1,.251.218.5.5,0,0,0,.263.288c.15.083.322.155.384.348a.5.5,0,0,1,.4.192,2.2,2.2,0,0,0,.323.31,1.589,1.589,0,0,0,.655.364.674.674,0,0,1,.389.256,2.209,2.209,0,0,0,.144.176,1.327,1.327,0,0,0,.6.4,1.246,1.246,0,0,1,.321.131.751.751,0,0,1,.281.206.2.2,0,0,0,.105.066,2.674,2.674,0,0,0,.266.072c.083.017.179.026.224.1.083.137.24.181.336.3a.376.376,0,0,0,.156.078.837.837,0,0,0,.215.067.307.307,0,0,1,.214.117.352.352,0,0,0,.215.121c.033.006.075.011.093.033a.421.421,0,0,0,.317.128.269.269,0,0,1,.234.122.111.111,0,0,0,.061.04c.2.069.4.145.6.2a.677.677,0,0,0,.492.027c.11-.053.195,0,.292,0s.218-.034.319.031a.9.9,0,0,1,.1.074c.029.024.055.052.082.079l.213-.235c.1.063.205.117.292.035a.684.684,0,0,1,.345-.136l.124.1.162-.008c.138-.006.279.086.414-.013a.024.024,0,0,1,.024,0c.06.055.122.036.188.012a.123.123,0,0,1,.1.007c.162.115.395.114.493.309.114,0,.212-.058.31.009a.131.131,0,0,0,.1,0c.079-.025.156-.061.236-.085a.53.53,0,0,1,.193-.038c.074,0,.146.054.218.055a.827.827,0,0,0,.21-.059.04.04,0,0,1,.024,0c.1.05.174-.02.246-.049a.59.59,0,0,0,.077.05c.127.052.226.179.39.135.03-.008.073.034.109.055a2.427,2.427,0,0,0,.392.222c.093.033.19.062.279.1a.586.586,0,0,0,.41.074c.134-.04.317.021.4-.161.007-.016.043-.022.067-.028s.029-.009.043-.013c.05,0,.1-.009.149-.015a12.9,12.9,0,0,1,1.875,0c.363.011.725.04,1.088.05a1.056,1.056,0,0,0,.345-.044.926.926,0,0,1,.428-.029,2.76,2.76,0,0,0,.436,0c.131,0,.262,0,.393,0,.174,0,.348.018.521.012.321-.011.642-.061.961-.044a11.056,11.056,0,0,0,1.7.039,2.318,2.318,0,0,1,.262.012c.173,0,.347.012.521.01.6-.008,1.193-.048,1.788-.022.389.018.777.086,1.17.11a3.67,3.67,0,0,0,.993-.07,3.087,3.087,0,0,1,.693-.05c.347.007.694.042,1.041.063a.444.444,0,0,0,.131-.01,3.543,3.543,0,0,1,1.167-.013,5.546,5.546,0,0,0,1.262.017,9.253,9.253,0,0,1,1.656-.026.414.414,0,0,1,.206.054.4.4,0,0,0,.331.028,1.3,1.3,0,0,1,.515-.042c.444.094.9-.031,1.338.09a.158.158,0,0,0,.086,0,4.5,4.5,0,0,1,1-.119,1.328,1.328,0,0,1,.6.05.837.837,0,0,0,.678-.051.523.523,0,0,1,.288-.083c.308.056.616-.035.915.01a4.784,4.784,0,0,0,1,0c.247-.012.5-.026.742-.028.2,0,.406.013.609.02.159.006.319.01.478.018a7.2,7.2,0,0,0,1.22.028,2.626,2.626,0,0,1,.7-.011,2.211,2.211,0,0,0,.473.015.852.852,0,0,0,.149.072c.093.033.19.062.279.1a.584.584,0,0,0,.409.074c.135-.04.318.021.4-.161.007-.016.043-.022.066-.028a.843.843,0,0,0,.351-.188.416.416,0,0,1,.3-.12.291.291,0,0,0,.136-.052c.133-.071.262-.151.4-.217a.644.644,0,0,0,.173-.1.413.413,0,0,1,.327-.11,3.089,3.089,0,0,0,.5-.016.622.622,0,0,1,.506.092c.02.019.063.014.1.017a1.221,1.221,0,0,1,.149.006,1.108,1.108,0,0,0,.17.047.754.754,0,0,0,.182-.043l.057.069a.5.5,0,0,0,.734.1c.171-.117.358-.21.537-.313l.125.05c.1-.194.214-.36.449-.349.059-.075.109-.142.164-.205a.357.357,0,0,1,.109-.1.867.867,0,0,0,.3-.257c.118-.142.218-.3.346-.433a3,3,0,0,1,.444-.435.984.984,0,0,1,.438-.178.744.744,0,0,0,.419-.208.293.293,0,0,1,.1-.071c.093-.028.178-.054.187-.174,0-.017.051-.034.08-.046a1.461,1.461,0,0,0,.345-.281c.064-.213.237-.387.208-.617a.5.5,0,0,1,.273-.14.423.423,0,0,0,.13-.067,1.986,1.986,0,0,1,.538-.309.315.315,0,0,0,.152-.078.886.886,0,0,1,.364-.26.611.611,0,0,0,.21-.172,1.446,1.446,0,0,1,.34-.294,2.076,2.076,0,0,0,.32-.238,2.224,2.224,0,0,1,.341-.213.1.1,0,0,0,.021-.014,4.885,4.885,0,0,0,.7-.716.166.166,0,0,1,.1-.076c.141-.017.214-.127.306-.21.118-.107.236-.214.349-.326a.358.358,0,0,0,.093-.147.69.69,0,0,1,.36-.432c.058-.032.1-.092.157-.126a.386.386,0,0,0,.245-.352.066.066,0,0,1,.017-.046.5.5,0,0,0,.116-.375.943.943,0,0,1,.035-.144.317.317,0,0,0,.015-.12c-.041-.192.063-.383,0-.573a.072.072,0,0,1,.008-.049,1.084,1.084,0,0,0,.089-.2c.01-.062.085-.112.126-.161l-.09-.521c.038-.027.077-.039.09-.065a.58.58,0,0,0,.114-.348.634.634,0,0,1,.1-.5.509.509,0,0,0,.039-.092c.053-.105.1-.211.162-.312a.439.439,0,0,0,.073-.263.4.4,0,0,1,.014-.173.554.554,0,0,0,.013-.322.566.566,0,0,1,.107-.477.531.531,0,0,0,.108-.277c.008-.056.026-.136.065-.157a.3.3,0,0,0,.141-.249.45.45,0,0,1,.205-.316.263.263,0,0,0,0-.042,1.05,1.05,0,0,1,.029-.569c.018-.036,0-.1-.022-.142-.024-.063-.067-.118-.09-.18a.209.209,0,0,1-.01-.144c.107-.177.034-.382.1-.564-.039-.118.026-.207.075-.305a.964.964,0,0,0,.106-.562c-.021-.173-.064-.344-.1-.515-.031-.148-.069-.294-.1-.443a.189.189,0,0,1,.016-.141c.108-.116.067-.276.136-.4a.091.091,0,0,0,0-.074c-.084-.143.02-.32-.083-.461-.014-.02,0-.065.01-.1.007-.058.02-.115.023-.173.007-.117.008-.234.012-.35a.792.792,0,0,0-.01-.349.177.177,0,0,1,.042-.187.277.277,0,0,0,.039-.308.354.354,0,0,1,.111-.429.631.631,0,0,0,.124-.186A.348.348,0,0,0,564.83,327.434Z"/><path class="cls-2" d="M513.522,320.967a3.285,3.285,0,0,0,.747-.215,1.265,1.265,0,0,1,.429-.116,1.344,1.344,0,0,0,.508-.139.555.555,0,0,1,.4-.06,2.566,2.566,0,0,0,1.213-.021.684.684,0,0,1,.33,0,2.645,2.645,0,0,0,.528.025c.14,0,.279-.014.419-.019a.25.25,0,0,1,.109.016,1.708,1.708,0,0,0,.628.114.8.8,0,0,1,.164.034,1.729,1.729,0,0,1,.325.076c.284.122.592.158.879.265a.736.736,0,0,0,.1.041,2.314,2.314,0,0,1,1.086.6,5.912,5.912,0,0,0,.758.7.131.131,0,0,1,.061.057c.086.269.325.395.525.554.138.11.3.192.435.3a1.706,1.706,0,0,0,.405.244c.2.092.4.192.6.3a.916.916,0,0,1,.222.165,1.216,1.216,0,0,0,.674.31.753.753,0,0,1,.372.173,2.263,2.263,0,0,0,.383.279.521.521,0,0,1,.3.381.141.141,0,0,0,.037.074c.179.177.3.4.5.562a.625.625,0,0,1,.11.125c.066.09.129.183.191.276a.2.2,0,0,1,.048.1c0,.187.128.326.171.5.025.1.061.2.087.3a.157.157,0,0,1,0,.107.844.844,0,0,0,.072.846c.027.06.06.117.087.177a5.278,5.278,0,0,1,.261.617,1.386,1.386,0,0,1,.07.6.876.876,0,0,0,.289.809c.062.057.126.111.191.165a.435.435,0,0,1,.165.37,2.024,2.024,0,0,0,.094.717.2.2,0,0,1-.006.188c-.127.2-.05.419-.043.628,0,.074.072.145.119.232a.267.267,0,0,0-.106.257.226.226,0,0,1-.088.2.528.528,0,0,0-.136.24,2.645,2.645,0,0,0-.229.687c-.149.234-.109.53-.249.769a.222.222,0,0,0,0,.161.238.238,0,0,1-.1.294.771.771,0,0,0-.3.455,2.379,2.379,0,0,1-.117.251,2,2,0,0,0-.121.4.054.054,0,0,0,0,.028c.029.132-.08.227-.092.346a1.744,1.744,0,0,1-.014.333.9.9,0,0,1-.3.391,4.338,4.338,0,0,0-.415.374,1.675,1.675,0,0,1-.222.247c-.03.022-.055.063-.087.068a.667.667,0,0,0-.362.245.232.232,0,0,1-.122.063.458.458,0,0,0-.354.322,7.015,7.015,0,0,1-.439.808.458.458,0,0,1-.155.148,2.608,2.608,0,0,0-.51.387,1.257,1.257,0,0,1-.3.2.588.588,0,0,0-.254.212.252.252,0,0,1-.1.094c-.268.148-.515.329-.767.5a1.285,1.285,0,0,1-.149.073c-.05.026-.121.043-.143.084-.089.167-.253.2-.406.266a.587.587,0,0,0-.18.13.581.581,0,0,1-.293.153c-.21.047-.416.106-.625.153a.477.477,0,0,0-.263.149,2.4,2.4,0,0,1-.707.446.333.333,0,0,1-.133.032c-.186.013-.372.02-.558.03a.618.618,0,0,1-.5-.11.2.2,0,0,0-.185-.038,1.8,1.8,0,0,0-.457.125.9.9,0,0,1-.65.059,1.886,1.886,0,0,0-.741-.065.688.688,0,0,1-.457-.091,1.106,1.106,0,0,0-.423-.132,3.311,3.311,0,0,1-.575-.055c-.094-.03-.216.027-.36.05a.627.627,0,0,0-.612.022l-.021.1a1.229,1.229,0,0,0-.676-.112,1.089,1.089,0,0,1-.385-.023c-.2-.049-.4-.056-.605-.093a.48.48,0,0,1-.11-.014c-.091-.045-.174-.105-.267-.146a1.758,1.758,0,0,1-.283-.105.46.46,0,0,0-.319-.1c-.043-.08-.083-.153-.122-.227a.578.578,0,0,0-.257-.281.591.591,0,0,1-.283-.4.78.78,0,0,0-.2-.363,1.109,1.109,0,0,1-.1-.166c-.026-.038-.049-.089-.087-.107a1.1,1.1,0,0,1-.332-.294.228.228,0,0,0-.117-.069.385.385,0,0,1-.279-.21.977.977,0,0,0-.182-.209,1.8,1.8,0,0,1-.344-.4,2.761,2.761,0,0,0-.324-.38c-.044-.049-.094-.091-.139-.138-.2-.208-.4-.418-.6-.623a.565.565,0,0,1-.168-.253.427.427,0,0,0-.077-.144.8.8,0,0,1-.2-.538c0-.089-.059-.181-.055-.27a.748.748,0,0,0-.206-.5,4.229,4.229,0,0,0-.285-.414.5.5,0,0,1-.109-.225.658.658,0,0,0-.358-.472.136.136,0,0,1-.024-.248.457.457,0,0,0,.2-.457,2.145,2.145,0,0,1,.074-.525.72.72,0,0,0-.06-.461.505.505,0,0,1-.06-.3.475.475,0,0,0-.075-.321l-.093-.173a.44.44,0,0,1-.06-.126,3.059,3.059,0,0,0-.035-.386c-.03-.116-.105-.222-.082-.349a.758.758,0,0,0-.07-.409.953.953,0,0,1-.041-.6.757.757,0,0,0-.015-.492.927.927,0,0,1-.013-.736.254.254,0,0,0-.015-.241c-.118-.2-.039-.4-.012-.6.005-.039.057-.072.072-.09.012-.23.02-.442.034-.653a.337.337,0,0,1,.041-.134.516.516,0,0,0,.093-.4.068.068,0,0,1,.01-.054c.128-.151.074-.314.022-.474a1.067,1.067,0,0,1,.36-.49.254.254,0,0,0,.089-.105.233.233,0,0,1,.175-.124.489.489,0,0,0,.313-.218.491.491,0,0,1,.2-.151.8.8,0,0,0,.328-1.02l-.079-.181a.654.654,0,0,1,.311-.314,1.065,1.065,0,0,0,.416-.364,1.478,1.478,0,0,1,.258-.254c.07-.061.147-.114.223-.168a.322.322,0,0,1,.119-.069,1.728,1.728,0,0,0,.485-.214.523.523,0,0,0,.267-.273Z"/><path class="cls-2" d="M550.221,326.04c0-.133.012-.266.018-.4a.439.439,0,0,0-.014-.151.222.222,0,0,1-.009-.065c0-.076,0-.152.006-.229a.525.525,0,0,0,0-.1.583.583,0,0,1,0-.156,1.789,1.789,0,0,0,0-.243c0-.071-.006-.143-.007-.215a.447.447,0,0,1,0-.1.456.456,0,0,0,0-.138c0-.067,0-.136-.006-.2l-.02-.018a.219.219,0,0,1-.183.014.1.1,0,0,0-.041-.007,1.5,1.5,0,0,1-.2,0c-.084-.01-.169.013-.252.01-.006,0-.013,0-.017,0-.078.057-.153.017-.229.016a.168.168,0,0,0-.1.009.026.026,0,0,1-.025,0,.075.075,0,0,0-.088,0c-.057-.014-.118.01-.174-.014a.161.161,0,0,0-.132,0,.237.237,0,0,1-.041.017c-.029.008-.057.012-.077-.018a.061.061,0,0,0-.069-.022c-.1.014-.192.026-.288.043a1.369,1.369,0,0,0-.137.034c0,.037,0,.074,0,.112a1.148,1.148,0,0,0,.009.321.18.18,0,0,1,0,.041,1.235,1.235,0,0,1-.006.185c-.012.062,0,.124-.011.179a1.381,1.381,0,0,0,0,.369,2.192,2.192,0,0,1,0,.353.559.559,0,0,0,0,.057.571.571,0,0,1-.027.225l.01.073a.672.672,0,0,1,0,.21.687.687,0,0,0,0,.157.529.529,0,0,1,0,.1,3.071,3.071,0,0,0,0,.429c.008.155-.014.3-.013.458a.6.6,0,0,0,0,.26c0,.031,0,.067,0,.1a2.654,2.654,0,0,0,.019.283.481.481,0,0,1-.006.207.324.324,0,0,0-.008.175.507.507,0,0,1,.006.07c.011.191,0,.382,0,.573,0,.043,0,.086,0,.129a2.717,2.717,0,0,1-.014.384,1.44,1.44,0,0,0-.005.186c0,.162.019.323.007.487a.146.146,0,0,0,0,.042.548.548,0,0,1-.006.194.673.673,0,0,0-.012.109l0,.134a.251.251,0,0,1,.072.006.544.544,0,0,0,.224.012.645.645,0,0,1,.076,0c.054,0,.107,0,.161,0l-.185,0a.626.626,0,0,0-.075,0,.549.549,0,0,1-.225-.013.284.284,0,0,0-.071-.006c0,.07,0,.14,0,.211a1.155,1.155,0,0,1-.013.195.521.521,0,0,0,0,.113c0,.139.009.277.014.416a1,1,0,0,1-.009.2.6.6,0,0,0-.006.113c0,.158.013.314,0,.473,0,.069.012.141.012.212s-.009.151-.011.228,0,.137,0,.206l-.02,0c0,.037,0,.074,0,.112a1.111,1.111,0,0,0,.01.321.176.176,0,0,1,0,.041,1.216,1.216,0,0,1-.006.184c-.011.062,0,.125-.01.18a1.375,1.375,0,0,0,0,.368,2.1,2.1,0,0,1,0,.354.559.559,0,0,0,0,.057.553.553,0,0,1-.027.225l.01.073a.671.671,0,0,1,0,.21.678.678,0,0,0,0,.156.535.535,0,0,1,0,.1,3.086,3.086,0,0,0,0,.43c.008.154-.013.3-.013.457a.6.6,0,0,0,0,.261.807.807,0,0,1,0,.1c0,.1.006.189.019.283a.466.466,0,0,1-.006.207.324.324,0,0,0-.008.175c0,.021,0,.046.007.07.01.19,0,.382,0,.573,0,.043,0,.086,0,.128a2.726,2.726,0,0,1-.014.385,1.644,1.644,0,0,0,0,.186c0,.162.02.323.007.486a.188.188,0,0,0,0,.042.51.51,0,0,1-.006.195.79.79,0,0,0-.012.109l0,.133a.292.292,0,0,1,.072.006.532.532,0,0,0,.225.013.47.47,0,0,1,.075,0,2.122,2.122,0,0,0,.337-.018.151.151,0,0,0,.041-.013.073.073,0,0,1,.1.008c.036.036.082.021.121,0a.684.684,0,0,1,.168-.04.228.228,0,0,0,.059-.011c.053-.025.105-.045.153,0a2.169,2.169,0,0,0,.268.009.6.6,0,0,1,.252-.01.132.132,0,0,0,.057-.01.133.133,0,0,1,.092,0,.124.124,0,0,0,.087,0,2.312,2.312,0,0,1-.037-.317.528.528,0,0,1,.01-.125,1.234,1.234,0,0,0,.021-.388c-.007-.093-.016-.186-.02-.28-.007-.162-.011-.325-.016-.487a.253.253,0,0,1,.014-.119.252.252,0,0,0,.013-.133c0-.024,0-.046-.008-.069a.771.771,0,0,1,0-.225c.016-.1,0-.2.013-.3a.335.335,0,0,1,0-.151.145.145,0,0,0,0-.041.867.867,0,0,1,0-.169,1.5,1.5,0,0,0,0-.39.131.131,0,0,1,0-.028c0-.143-.006-.286,0-.43.006-.113,0-.229,0-.343a.417.417,0,0,1,.006-.071,1.039,1.039,0,0,0,0-.31l.026-.086c0-.057-.01-.1-.009-.15,0-.134.012-.266.018-.4a.437.437,0,0,0-.014-.151.227.227,0,0,1-.009-.065c0-.055,0-.11,0-.165h.007c0-.06.01-.119.012-.178.006-.162,0-.324,0-.486a1.336,1.336,0,0,1,0-.2,1.094,1.094,0,0,0,0-.2c-.008-.107-.011-.219-.01-.329,0-.053,0-.1-.006-.155a1.061,1.061,0,0,1,.026-.4c.012-.039.026-.075.04-.116a.858.858,0,0,0-.023-.244.874.874,0,0,1-.021-.318,2.252,2.252,0,0,0,0-.329.745.745,0,0,1,0-.211.061.061,0,0,0,0-.027.494.494,0,0,1,.025-.263c.008-.026.015-.056.021-.08l-.008-.043a.16.16,0,0,0,.023,0,2.308,2.308,0,0,1-.036-.318.571.571,0,0,1,.009-.124,1.215,1.215,0,0,0,.022-.389c-.007-.093-.016-.186-.02-.279-.007-.162-.011-.325-.017-.488a.266.266,0,0,1,.015-.119.252.252,0,0,0,.013-.133c0-.024-.006-.046-.009-.069a.738.738,0,0,1,0-.225c.016-.1,0-.2.013-.3a.335.335,0,0,1,0-.151.146.146,0,0,0,0-.041.794.794,0,0,1,0-.169,1.5,1.5,0,0,0,0-.39c0-.007,0-.018,0-.028,0-.143-.007-.285,0-.43.006-.113,0-.229,0-.343a.552.552,0,0,1,0-.071.977.977,0,0,0,0-.31l.027-.085C550.226,326.133,550.22,326.086,550.221,326.04Z"/><path class="cls-2" d="M511.106,330.14a1.434,1.434,0,0,0,.046-.328.546.546,0,0,1,.029-.187.583.583,0,0,0,.034-.222.234.234,0,0,1,.046-.166,1.086,1.086,0,0,0,.2-.476.3.3,0,0,1,.059-.128,1.084,1.084,0,0,0,.1-.2c.024-.054.043-.111.065-.166a.109.109,0,0,1,.025-.04.707.707,0,0,0,.153-.225.567.567,0,0,1,.042-.058.819.819,0,0,1,.086-.113c.1-.089.164-.2.256-.3.011-.012.025-.021.034-.033a.987.987,0,0,1,.421-.319,2.486,2.486,0,0,0,.4-.174.054.054,0,0,1,.032-.014.542.542,0,0,0,.308-.108c.066-.035.126-.083.193-.116a.711.711,0,0,0,.165-.116c.072-.063.145-.124.221-.183a.4.4,0,0,1,.1-.058.514.514,0,0,0,.238-.208.318.318,0,0,1,.132-.115.957.957,0,0,0,.175-.1.221.221,0,0,1,.2-.051.059.059,0,0,0,.035,0c.1-.039.209-.049.306-.1a.316.316,0,0,1,.068-.021c.046-.01.093-.018.14-.026a.085.085,0,0,1,.047,0c.072.033.149.007.223.02.043.007.086.01.129.017a.064.064,0,0,1,.042.019c.086.122.214.119.342.119.028,0,.056,0,.084,0a2.252,2.252,0,0,1,.285.006.584.584,0,0,1,.247.077.374.374,0,0,0,.365.028c.033-.014.065-.03.1-.046a.187.187,0,0,1,.172,0,.858.858,0,0,0,.3.088.09.09,0,0,1,.072.035c.056.084.154.092.237.126.029.012.069,0,.111-.006a.115.115,0,0,0,.082.086.1.1,0,0,1,.062.068.225.225,0,0,0,.069.095,1.1,1.1,0,0,0,.228.208c.066.1.187.135.256.231a.1.1,0,0,0,.062.03.1.1,0,0,1,.1.091.33.33,0,0,0,.124.2.927.927,0,0,1,.077.089.887.887,0,0,0,.134.116l.011,0c.056.011.074.07.119.1a.751.751,0,0,1,.127.063.379.379,0,0,1,.1.186,1.941,1.941,0,0,0,.074.227.675.675,0,0,1,.057.129c0,.016.015.033.012.046a.287.287,0,0,0,.032.184.1.1,0,0,1,0,.058.194.194,0,0,0,.063.193,3.13,3.13,0,0,1,.239.311.2.2,0,0,1,.031.086,1.061,1.061,0,0,0,.062.266.538.538,0,0,1,.027.151.253.253,0,0,0,.039.136.117.117,0,0,1,.019.055c.011.131.039.258.062.386a.554.554,0,0,1,0,.071c0,.024,0,.054.008.07a.287.287,0,0,1,.033.2.249.249,0,0,0,.019.093.251.251,0,0,1,.009.141c-.018.089-.031.18-.049.269a.207.207,0,0,0,.012.128,1.007,1.007,0,0,1,.051.353.165.165,0,0,1-.01.058l-.085.222a.261.261,0,0,1-.13.175.089.089,0,0,0-.047.066.787.787,0,0,0-.031.2.385.385,0,0,1-.089.264.778.778,0,0,0-.154.277.294.294,0,0,1-.115.162.473.473,0,0,0-.125.142,1.465,1.465,0,0,1-.121.214c-.028.031-.027.089-.043.149a.269.269,0,0,0-.1.242l.034.025a.529.529,0,0,0-.16.244.473.473,0,0,1-.077.146c-.053.069-.092.147-.141.219-.009.013-.013.031-.024.04-.033.028-.071.05-.1.079s-.055.07-.091.092a.2.2,0,0,0-.095.106l-.109.008a.252.252,0,0,0-.154.051.255.255,0,0,1-.206.041.329.329,0,0,0-.176.014.535.535,0,0,1-.083.012.111.111,0,0,0-.056.015.479.479,0,0,1-.172.078.1.1,0,0,0-.048.033.165.165,0,0,1-.13.073.387.387,0,0,0-.113.034.759.759,0,0,1-.216.064,1.188,1.188,0,0,0-.2.061c-.027.008-.052.02-.078.03-.116.042-.232.082-.347.126a.243.243,0,0,1-.127.022.183.183,0,0,0-.07,0,.333.333,0,0,1-.244-.015c-.035-.016-.081-.008-.115-.025a.328.328,0,0,0-.231-.007,1.725,1.725,0,0,0-.21.04.227.227,0,0,1-.107,0,.277.277,0,0,0-.245.058.058.058,0,0,1-.1-.034.2.2,0,0,0-.144-.156.888.888,0,0,1-.191-.12.308.308,0,0,0-.19-.057.217.217,0,0,1-.126-.028.211.211,0,0,0-.138-.027q-.042,0-.084.006a.148.148,0,0,1-.059,0,1.318,1.318,0,0,0-.157-.053c-.05-.009-.1,0-.15-.029a.326.326,0,0,0-.171-.044.4.4,0,0,1-.239-.087.323.323,0,0,0-.2-.08.4.4,0,0,1-.288-.123.107.107,0,0,0-.1-.035c-.1.011-.162-.055-.234-.1-.015-.008-.018-.034-.023-.043-.087-.045-.168-.085-.248-.127a.14.14,0,0,1-.045-.039.221.221,0,0,0-.138-.105.029.029,0,0,1-.02-.013c-.037-.076-.109-.083-.18-.091a.454.454,0,0,1-.129-.225.108.108,0,0,0-.025-.053.1.1,0,0,1-.018-.09.2.2,0,0,0-.031-.159.209.209,0,0,1-.024-.1.341.341,0,0,0-.341-.3h-.084a.278.278,0,0,1-.068-.175.458.458,0,0,0-.07-.226.635.635,0,0,1-.053-.144,1.148,1.148,0,0,1-.027-.116.131.131,0,0,1-.006-.058.745.745,0,0,0,0-.226.225.225,0,0,0-.059-.152Z"/><path class="cls-1" d="M688.829,232.518l-1.668-4.158-.349-.034a9.3,9.3,0,0,1-.449,1.933c-.522,1.331-1.633,2.455-1.6,3.986a4.966,4.966,0,0,1-.952,2.884c-.889,1.4-1.688,2.855-2.475,4.313a39.847,39.847,0,0,0-2.662,5.248c-.55,1.524-.516,3.254-1.461,4.677.041,2.587-1.8,3.8-3.655,5a7.033,7.033,0,0,0-1.524,1.048,64.75,64.75,0,0,0-4.169,5.025c-.665.924-1.519,2.011-.373,3.333a2.288,2.288,0,0,1,.152,1.8c-.669,2.392-1.416,4.765-2.216,7.117A2.289,2.289,0,0,1,664.4,275.8a4.481,4.481,0,0,0-2.207,3.223,3.7,3.7,0,0,1-.611,1.419,5.464,5.464,0,0,0-.953,2.886,10.884,10.884,0,0,1-1.975,5.176,20.223,20.223,0,0,0-2.6,5.281,14.928,14.928,0,0,1-2.452,4.629,23.143,23.143,0,0,0-4.033,7.251,40.925,40.925,0,0,1-2.145,4.971c3.113.169,6.205.385,9.287.852a1.673,1.673,0,0,0,.088-.332c.126-2.14,1.41-4.187.426-6.257.572-1.251,2.033-1.756,1.923-3.251-.023-.313.4-.713.7-.985a11.154,11.154,0,0,0,2.9-4.358,11.568,11.568,0,0,1,1.876-3.549c1.859-2.106,1.973-4.668,2.331-7.2.145-1.025.218-2.061.4-3.08a2.343,2.343,0,0,1,.545-1.392c1.283-.948,1.541-2.393,2.135-3.709a17.611,17.611,0,0,1,2.246-3.7,5.271,5.271,0,0,0,1.53-3.256,5.422,5.422,0,0,1,2.422-4.476,7.374,7.374,0,0,0,2.932-4.629,12.484,12.484,0,0,0,.408-3.023c-.009-.878.907-1.748,1.334-2.659a2.941,2.941,0,0,0,.158-1.221,7.24,7.24,0,0,1,1.629-4.284,17.727,17.727,0,0,0,1.709-2.942c1.3-2.862,2.854-5.5,5.775-6.87-.214-1.787-.217-1.788.337-2.772.152-.27.346-.518.492-.792C692.861,233.253,692.846,233.223,688.829,232.518Z"/><path class="cls-1" d="M719.124,273.21a2.293,2.293,0,0,1,.981,1.52c.535,2.425.991,4.87,1.392,7.322a2.286,2.286,0,0,1-.388,1.468,4.48,4.48,0,0,0-.431,3.882,3.7,3.7,0,0,1,.128,1.54,5.47,5.47,0,0,0,.516,3,10.887,10.887,0,0,1,.692,5.5,20.185,20.185,0,0,0,.191,5.882c.1.664.146,1.354.184,2.04a18.143,18.143,0,0,0,6.723.75,11.565,11.565,0,0,0,.178-3.711,11.567,11.567,0,0,1-.014-4.014c.651-2.733-.454-5.047-1.327-7.447-.354-.973-.778-1.922-1.1-2.905a2.337,2.337,0,0,1-.173-1.486c.687-1.439.234-2.836.14-4.277a17.55,17.55,0,0,1,.243-4.318,5.276,5.276,0,0,0-.181-3.594,5.418,5.418,0,0,1,.033-5.088,7.38,7.38,0,0,0,.41-5.465,12.519,12.519,0,0,0-1.062-2.859c-.421-.771-.022-1.969-.073-2.974a2.956,2.956,0,0,0-.435-1.152,7.24,7.24,0,0,1-.578-4.546,17.662,17.662,0,0,0,.125-3.4c-.195-3.139-.067-6.193,1.866-8.779-1.03-1.476-1.034-1.476-1.007-2.6.007-.311.062-.621.062-.931,0-3.971-.031-3.991-3.907-2.724l-3.427-2.884-.325.134a9.252,9.252,0,0,1,.513,1.917c.165,1.419-.286,2.934.465,4.269a4.965,4.965,0,0,1,.516,2.993c-.128,1.651-.147,3.313-.156,4.97a39.894,39.894,0,0,0,.119,5.883c.232,1.6,1.075,3.115.911,4.815,1.252,2.264.2,4.2-.875,6.129a6.95,6.95,0,0,0-.853,1.642,64.976,64.976,0,0,0-1.316,6.395C717.733,271.222,717.491,272.583,719.124,273.21Z"/><path class="cls-1" d="M782.108,288.378a10.889,10.889,0,0,1,2.146,5.108,20.24,20.24,0,0,0,1.766,5.614,14.909,14.909,0,0,1,1.422,5.041,23.175,23.175,0,0,0,2.089,8.03c.333.757.643,1.523.937,2.293a73.155,73.155,0,0,0,7.541.436,3.909,3.909,0,0,1,.5-1.1,2.206,2.206,0,0,0,.041-2.65c-1.387-1.634-1.871-4-4.012-4.821-.45-1.3.258-2.674-.854-3.679-.233-.21-.2-.79-.177-1.192a11.158,11.158,0,0,0-.913-5.153,11.563,11.563,0,0,1-1.094-3.862c-.109-2.808-1.8-4.739-3.282-6.816-.6-.841-1.266-1.641-1.84-2.5a2.345,2.345,0,0,1-.567-1.384c.274-1.571-.537-2.8-1.016-4.157a17.638,17.638,0,0,1-.928-4.224,5.274,5.274,0,0,0-1.141-3.413,5.418,5.418,0,0,1-1.338-4.91,7.378,7.378,0,0,0-1.075-5.373,12.534,12.534,0,0,0-1.792-2.468c-.613-.629-.551-1.891-.871-2.844a2.953,2.953,0,0,0-.729-.993,7.233,7.233,0,0,1-1.779-4.223,17.746,17.746,0,0,0-.795-3.309c-1.033-2.971-1.731-5.947-.566-8.957-1.389-1.144-1.392-1.143-1.67-2.237-.077-.3-.107-.615-.191-.913-1.071-3.824-1.1-3.836-4.5-1.572l-4.077-1.856-.276.216a9.243,9.243,0,0,1,1.009,1.708c.542,1.323.514,2.9,1.6,3.987a4.963,4.963,0,0,1,1.3,2.744c.32,1.624.749,3.23,1.187,4.829a39.739,39.739,0,0,0,1.7,5.634c.654,1.482,1.872,2.71,2.172,4.392,1.815,1.843,1.322,3.988.806,6.138a7.045,7.045,0,0,0-.379,1.811,64.877,64.877,0,0,0,.453,6.513c.158,1.127.291,2.5,2.032,2.668.494.047,1.081.687,1.354,1.2,1.168,2.193,2.265,4.425,3.311,6.678a2.282,2.282,0,0,1,.021,1.518,4.48,4.48,0,0,0,.63,3.855,3.7,3.7,0,0,1,.537,1.449A5.479,5.479,0,0,0,782.108,288.378Z"/><path class="cls-1" d="M781.851,198.388a.175.175,0,0,1-.017-.121,1.072,1.072,0,0,0-.191-.918.827.827,0,0,1-.1-.477c.183-.984-.11-2.09.418-2.917-.149-.536-.455-.9-.354-1.492a.847.847,0,0,0-.128-.454c-.182-.332-.4-.63-.576-.966a3.2,3.2,0,0,1-.365-.853c-.074-.36,0-.792-.087-1.138a4.2,4.2,0,0,0-.454-.888.262.262,0,0,1-.022-.123c.047-.546-.282-.788-.467-1.078a4.24,4.24,0,0,0,.07-.461c.016-.7.317-1.4-.033-2.1-.062-.125.022-.409.047-.617a17.711,17.711,0,0,0,.255-2.276c-.006-.5-.029-1.018,0-1.519a4.09,4.09,0,0,0-.263-2.084c-.3-.568-.323-1.55-1.024-1.6-.063-.005-.128-.164-.176-.267a3.641,3.641,0,0,0-1.058-1.324,1.962,1.962,0,0,1-.763-1.186,1.464,1.464,0,0,0-.343-.555c-.4-.5-.824-.97-1.211-1.493a2.7,2.7,0,0,0-.536-.642,2.067,2.067,0,0,1-.768-1.354,20.039,20.039,0,0,0-.672-2.35,4.323,4.323,0,0,1-.318-2.579,1.245,1.245,0,0,0-.063-.485c-.05-.242-.133-.475-.163-.722a7.5,7.5,0,0,0-.056-.891,1.96,1.96,0,0,0-.18-.437,2.986,2.986,0,0,1-2.342.014,1.771,1.771,0,0,1-.176-.47,1.321,1.321,0,0,0-.31-.5c-.363-.455-.745-.877-1.1-1.35a2.462,2.462,0,0,0-.484-.581,1.874,1.874,0,0,1-.7-1.224,18.066,18.066,0,0,0-.607-2.124,3.905,3.905,0,0,1-.287-2.332,1.114,1.114,0,0,0-.058-.438c-.045-.219-.119-.429-.147-.653a6.716,6.716,0,0,0-.05-.805,1.843,1.843,0,0,0-.163-.395c-.057-.109-.118-.214-.169-.319.064-.16.105-.26.145-.362a2.916,2.916,0,0,0-.506-3.333c-.542-.54-1.031-1.191-1.54-1.788l.01-.621a1.6,1.6,0,0,1-1.55-1.356c-.288-.13-.546-.232-.8-.364a1.064,1.064,0,0,1-.413-.309,2.658,2.658,0,0,0-1.11-.875c-.559-.273-1.147-.442-1.686-.773a8.371,8.371,0,0,1-1.8-1.191,4.187,4.187,0,0,1-1.022-1.587,2.95,2.95,0,0,0-1.1-1.459.991.991,0,0,1-.322-.31c-.189-.35-.362-.672-.731-.516-.055.023-.16-.159-.229-.263a4.551,4.551,0,0,0-1.23-1.023c-.709.078-1.425-.376-2.083.132a2.01,2.01,0,0,1-.727-.946,1.629,1.629,0,0,0-.346-.446,7.444,7.444,0,0,1-1.529-1.8c-.111-.2-.244-.46-.4-.526a2.98,2.98,0,0,1-1.188-1.136,1.927,1.927,0,0,0-.75-.618,4.419,4.419,0,0,1-1.264-.974,6.666,6.666,0,0,0-1.073-.985,7.916,7.916,0,0,1-1.019-1.114.377.377,0,0,0-.065-.067,13.679,13.679,0,0,0-2.933-1.822.545.545,0,0,1-.335-.283c-.209-.58-.619-.711-.971-.969-.453-.332-.906-.664-1.37-.962a.843.843,0,0,0-.544-.155,1.84,1.84,0,0,1-1.7-.833c-.16-.2-.388-.277-.553-.468-.395-.459-.8-.785-1.329-.468a.161.161,0,0,1-.159,0c-.432-.279-.84-.088-1.254.121a2.1,2.1,0,0,1-.473.093.769.769,0,0,0-.378.131c-.529.5-1.218.364-1.72.956a.2.2,0,0,1-.155.05,2.178,2.178,0,0,0-.715-.043c-.2.055-.43-.183-.624-.279-.5.43-.981.842-1.464,1.255-.123-.122-.2-.268-.3-.283-.39-.064-.78-.212-1.169.089a1.546,1.546,0,0,1-1.627.4c-.1-.044-.215,0-.322-.014-.374-.054-.749-.1-1.118-.181a1.023,1.023,0,0,0-.869.122,1.032,1.032,0,0,1-.538.229,1.47,1.47,0,0,0-.98.475,1.366,1.366,0,0,1-1.551.331,1.216,1.216,0,0,0-.954,0c-.176.06-.437.115-.544-.019-.291-.364-.576-.28-.9-.2a1.1,1.1,0,0,1-1.177-.357.864.864,0,0,0-.132.048c-.556.383-1.078.9-1.743.819-.128-.014-.287.184-.4.332-.16.207-.277.486-.441.685-.116.142-.294.313-.419.282-.653-.165-1.186.487-1.8.521-.309.363-.649.233-1,.182a2.334,2.334,0,0,0-1.807.474c-.5.38-.962.847-1.437,1.287-.409.379-.8.787-1.219,1.153-.128.112-.329.231-.443.164-.467-.272-.9.171-1.356.082a.253.253,0,0,0-.218.131c-.338.6-.985.441-1.295,1.12-.043.095-.2.086-.3.122a5.189,5.189,0,0,0-.544.183c-.358.166-.71.355-1.065.533s-.738.216-1.035.619a.439.439,0,0,1-.609.129c-.368-.189-.7-.031-.97.346a.9.9,0,0,1-1.411.233,1.467,1.467,0,0,0-.7-.225c-.593-.037-1.039.466-1.186,1.286-.026.15-.022.311-.051.46-.076.394-.2.721-.525.784-.288.057-.378.349-.44.728-.093.566-.222,1.121-.361,1.668a1.064,1.064,0,0,1-.272.556,14.9,14.9,0,0,0-1.462,1.4,4.076,4.076,0,0,0-.384.4c-.144.165-.281.344-.423.512a2.556,2.556,0,0,0-.312.351,11.552,11.552,0,0,1-2.13,2.665,3.448,3.448,0,0,0-.789,1,8.7,8.7,0,0,1-2.168,3.062.458.458,0,0,0-.174.238,1.726,1.726,0,0,1-.888,1.113c-.292.221-.351.737-.593.917a2,2,0,0,0-.7.742,3.619,3.619,0,0,1-.341.486c-.32-.394-.6-.745-.887-1.092-.6-.734-.687-.712-1.057.256a1.688,1.688,0,0,1-.086.2,3.171,3.171,0,0,0-.313,1.836c.009.089.011.175.026.265a2.039,2.039,0,0,1-.027.909,10.933,10.933,0,0,0-.642,3.087,1.088,1.088,0,0,1-.07.333,8.9,8.9,0,0,0-.365,2.13,1.186,1.186,0,0,1-.216.587,18.737,18.737,0,0,1-1.368,1.581,4.777,4.777,0,0,0-.876,1.194c-.258.484-.159,1.121-.419,1.59a.644.644,0,0,0,.021.44,4.369,4.369,0,0,0,.651.933,8.847,8.847,0,0,0-.473,2.606,1.169,1.169,0,0,1-.077.368,9.9,9.9,0,0,0-.4,2.356,1.315,1.315,0,0,1-.239.65,20.711,20.711,0,0,1-1.513,1.748,5.31,5.31,0,0,0-.969,1.321c-.285.536-.175,1.24-.463,1.759a.713.713,0,0,0,.023.487c.371.64.726,1.337,1.389,1.37.133.007.233.023.232.333a2.264,2.264,0,0,1-.266.231,1.22,1.22,0,0,0-.511,1.2,6.727,6.727,0,0,1-.037.695c-.009.01-.016.024-.025.034-.009.134-.021.256-.031.384a2.871,2.871,0,0,1-.4,1.021,4.263,4.263,0,0,0-.5,1.492c-.184,1.038-.321,2.1-.428,3.155a2.213,2.213,0,0,1-.412,1.365,1.014,1.014,0,0,0-.163.57,12.228,12.228,0,0,1-.581,3.231,6.44,6.44,0,0,1-1.232,2.717c-.04.57-.1,1.079-.105,1.588a4.184,4.184,0,0,1-.338,1.577,3.14,3.14,0,0,0-.064.631c-.036.25-.08.5-.137.741a3.778,3.778,0,0,0-.316,1.8c-.118.553-.224,1.111-.327,1.671a4.884,4.884,0,0,0,1,.04c.818-.04,1.638-.1,2.455-.09.164,0,.329-.011.493,0a7.767,7.767,0,0,0,2.836-.31,2.062,2.062,0,0,1,1.258,0,3.1,3.1,0,0,0,1.986-.17c-.37-.4-.872-.086-1.061-.674.438-.65.5-.765.757-.564.481.379.96.191,1.447.159.051,0,.1.091.156.14a2.306,2.306,0,0,0,.071,1.191l2.716-.212a7.184,7.184,0,0,1,.947-.063c.665.038,1.329.087,2,.108,1.51.047,3.013.276,4.531.176a15.482,15.482,0,0,0,3.991-.387,1.149,1.149,0,0,1,.831-.071,5.065,5.065,0,0,0,2.5.22,16.672,16.672,0,0,0,3.792-.137,2.1,2.1,0,0,1,.736.034,3.519,3.519,0,0,0,2.476-.54,1.7,1.7,0,0,1,2.05.073,1.981,1.981,0,0,0,1.9.352c.212-.046.4-.146.608,0a1.182,1.182,0,0,0,1.336-.044,2.161,2.161,0,0,1,.807-.277,11,11,0,0,0,1.767-.3,2.942,2.942,0,0,1,1.674.1c.308.1.62.181.927.287a2.014,2.014,0,0,0,2.109-.467c.255.34.525.537.873.407a4.054,4.054,0,0,1,1.788-.1,7.237,7.237,0,0,0,2.732.075.759.759,0,0,1,.417.076,1.862,1.862,0,0,0,2.376-.829,7.3,7.3,0,0,0,4.257.807,1.088,1.088,0,0,0,1.185-.762.855.855,0,0,1,.535-.423c.476-.151.953-.39,1.446-.032.123.089.336-.023.494-.1a2.243,2.243,0,0,1,2.7.622.9.9,0,0,0,.876.353,3.775,3.775,0,0,0,1.129-.381,2.817,2.817,0,0,1,2.273-.381,3.017,3.017,0,0,0,1.047,0c.422-.052.84-.163,1.259-.254a5.745,5.745,0,0,1,3.832.465c.388.187.842.011,1.206.408.058.064.2-.03.3-.05.239-.047.477-.1.717-.136a6.531,6.531,0,0,1,2.094.305,7.009,7.009,0,0,0,1.363.158c.736-.015,1.473-.091,2.209-.169,1.578-.168,3.156.037,4.734-.075a18.132,18.132,0,0,0,3.156-.159.822.822,0,0,1,.421-.028,1.454,1.454,0,0,0,1.026-.216,2.048,2.048,0,0,1,1.66-.28,2.3,2.3,0,0,0,1.67.038,3.044,3.044,0,0,1,1.99.076,2.539,2.539,0,0,0,1.463.1,2.128,2.128,0,0,1,1.14.1c.711.224,1.466-.044,2.188.213.087.031.2-.075.3-.132a2.723,2.723,0,0,1,2.08-.189,10.948,10.948,0,0,0,2.2.314c.78.015,1.561-.032,2.342-.081q.408-.025.816-.048c.771-.043,1.545-.067,2.312-.182a3.759,3.759,0,0,1,1.472.021c.038.01.078.017.117.027C782.233,199.592,782.319,198.824,781.851,198.388Z"/><path class="cls-3" d="M728.854,48.205a2.3,2.3,0,0,1-.941-1.552c-.467-2.448-.854-4.914-1.186-7.385a2.29,2.29,0,0,1,.43-1.46,4.5,4.5,0,0,0,.544-3.882,3.713,3.713,0,0,1-.084-1.549,5.491,5.491,0,0,0-.431-3.019,10.9,10.9,0,0,1-.537-5.533,20.334,20.334,0,0,0-.023-5.906,14.982,14.982,0,0,1,.137-5.254,23.223,23.223,0,0,0,.386-8.317,33.109,33.109,0,0,1,.116-9.652c-2.192-.985-4.391-1.957-6.614-2.867a11.706,11.706,0,0,0-.116,3.451c.148,1.769.125,3.536-1.508,4.834a2.215,2.215,0,0,0-.827,2.527c.843,1.979.6,4.393,2.411,5.814.045,1.379-1.043,2.486-.276,3.78.16.27-.04.818-.186,1.2a11.189,11.189,0,0,0-.657,5.209,11.6,11.6,0,0,1-.1,4.026c-.73,2.724.311,5.077,1.118,7.509.328.986.725,1.95,1.019,2.945a2.349,2.349,0,0,1,.132,1.5c-.73,1.424-.317,2.838-.263,4.286a17.674,17.674,0,0,1-.368,4.324,5.292,5.292,0,0,0,.079,3.611,5.437,5.437,0,0,1-.179,5.1,7.408,7.408,0,0,0-.568,5.47,12.584,12.584,0,0,0,.984,2.9c.4.786-.035,1.976-.012,2.985a2.979,2.979,0,0,0,.4,1.168,7.266,7.266,0,0,1,.45,4.577,17.674,17.674,0,0,0-.223,3.407c.105,3.155-.11,6.214-2.123,8.753.991,1.509,1,1.509.935,2.641-.016.311-.08.62-.088.931-.111,3.983-.084,4,3.841,2.844l3.355,2.992.329-.125a9.294,9.294,0,0,1-.459-1.938c-.125-1.428.371-2.935-.344-4.3a4.976,4.976,0,0,1-.432-3.018c.175-1.652.242-3.318.3-4.98a39.9,39.9,0,0,0,.049-5.905c-.186-1.615-.988-3.155-.776-4.855-1.19-2.306-.08-4.215,1.054-6.122a7,7,0,0,0,.9-1.623,65.257,65.257,0,0,0,1.5-6.377C730.192,50.24,730.474,48.881,728.854,48.205Z"/><path class="cls-3" d="M700.884,95.664l-.512-.817a8.306,8.306,0,0,0,.682-3.869c.024-1.038-.152-2.065-.089-3.108A5.152,5.152,0,0,0,700.7,86.4a1.87,1.87,0,0,1-.018-.845,7.518,7.518,0,0,0,.1-2.773c-.024-.14,0-.318-.079-.413a2.024,2.024,0,0,1-.325-1.526c.058-1.105.046-2.213.081-3.32a1.133,1.133,0,0,1,1.175-1.244,1.339,1.339,0,0,1,.429.016,13.294,13.294,0,0,0,3.417.021c1-.011,2-.116,3-.18a1.169,1.169,0,0,1,.321-.017c1.461.338,2.93-.1,4.393.054a3.224,3.224,0,0,0,.537-.02c1.108-.069,2.215-.141,3.322-.209a1.4,1.4,0,0,1,.43.012,7.242,7.242,0,0,0,2.346-.025c.857-.05,1.712-.035,2.568-.036a19.356,19.356,0,0,0,3.63-.1,19.964,19.964,0,0,1,2.785-.082c1.538-.068,3.075.1,4.616-.038a6.661,6.661,0,0,1,1.7.166,3.842,3.842,0,0,0,1.8-.068,9.353,9.353,0,0,1,2.456-.083c1.072-.034,2.15-.01,3.213-.125a6.925,6.925,0,0,1,1.6.028,1.536,1.536,0,0,1,1.342,1.664,11.082,11.082,0,0,0,.049,2.568,2.615,2.615,0,0,1-.194,1.264.759.759,0,0,0,.113.808.887.887,0,0,1,.191.9.685.685,0,0,0-.056.315,4,4,0,0,1,.063,1.78,10.12,10.12,0,0,0,.1,1.8A2.5,2.5,0,0,0,746,88.141a.408.408,0,0,1-.013.315,3.255,3.255,0,0,0-.027,1.469,35.058,35.058,0,0,1,.18,4.169,20.581,20.581,0,0,0,.105,3.093c.019.429.034.859.064,1.288a8.694,8.694,0,0,0,.1.954,4.809,4.809,0,0,1-.009,2.342.571.571,0,0,0-.053.313c.361.978-.127,1.989.12,2.968-.175.654.168,1.256.186,1.893a17.416,17.416,0,0,0,.14,1.9,8.579,8.579,0,0,1-.077,1.711c-.014.213-.135.457-.066.63a2.9,2.9,0,0,1,.019,1.783,3.216,3.216,0,0,0,.01.964c.07.781.192,1.559.234,2.341.04.748,0,1.5.007,2.249.009.672.042,1.343.059,2.014a1.862,1.862,0,0,1-.02.529,3.831,3.831,0,0,0,.064,1.806c.08.419.108.848.181,1.269a1.253,1.253,0,0,1-.254,1.108.857.857,0,0,0-.131.712,8.735,8.735,0,0,1,.066,1.39,2.012,2.012,0,0,1-.272.615,2.241,2.241,0,0,1,.3,1.348.358.358,0,0,1-.488.272c-.159-.079-.3-.208-.46-.274a3.1,3.1,0,0,0-2.276-.36,2.329,2.329,0,0,1-.534.04,1.322,1.322,0,0,1-1.171-.4c-.207-.22-.235-.194-.724-.184-.044.411-.076.835-.135,1.255-.063.447-.216.576-.7.652l-1.13.173c-.773-.469-1.43-.888-2.108-1.271a1.135,1.135,0,0,0-.936-.113,3.922,3.922,0,0,1-2.518-.234,2.734,2.734,0,0,0-2.371.084,1.887,1.887,0,0,1-.936.151,4.61,4.61,0,0,1-2.774-.628.608.608,0,0,0-.387-.155c-.855.16-1.714-.088-2.6.044a1.974,1.974,0,0,1-1.67.753,1.325,1.325,0,0,1-.969-.372,1.649,1.649,0,0,0-1.636-.589,1.739,1.739,0,0,1-.636-.045,7.909,7.909,0,0,0-2.546-.1,6.451,6.451,0,0,1-1.382-.122,2.95,2.95,0,0,0-.633-.092c-.954.115-1.9.261-2.9.4-.164.418-.31.819-.477,1.211-.191.447-.343.528-.839.454-.346-.052-.688-.123-1.083-.195l.253-.726c-.056-.041-.118-.121-.161-.112a2.687,2.687,0,0,1-1.558-.315,1.307,1.307,0,0,0-1.522.114c-.209-.13-.384-.247-.567-.349a.971.971,0,0,0-.92-.12,1.728,1.728,0,0,1-.416.087,3.832,3.832,0,0,1-2.414-.158,1.671,1.671,0,0,0-.739-.054c-.319.009-.637.05-.984.08l-.8-1.362a7.534,7.534,0,0,1,.363-.746.62.62,0,0,0,.028-.711c-.4-.426-.289-1.018-.578-1.487a2.555,2.555,0,0,1,.207-.363,1.407,1.407,0,0,0,.316-1.671,2.6,2.6,0,0,1-.156-.94,1.062,1.062,0,0,1,.1-.395c.033-.1.151-.22.124-.285-.248-.582.143-1,.329-1.485a3.015,3.015,0,0,0,.174-1.69,4.872,4.872,0,0,1,.016-1.491,9.58,9.58,0,0,0,.044-2.885,4.4,4.4,0,0,1,.163-1.584,1.388,1.388,0,0,0-.012-.941.719.719,0,0,1,.04-.808.322.322,0,0,0-.02-.293,2.914,2.914,0,0,1-.386-1.94,6.832,6.832,0,0,0-.038-1.171c-.094-.816-.129-1.638-.195-2.458a2.642,2.642,0,0,0-.1-.636,4.366,4.366,0,0,1-.015-2.827.993.993,0,0,0,.068-.526A1.571,1.571,0,0,1,700.8,98a1.17,1.17,0,0,0,.1-.616C700.9,96.853,700.89,96.317,700.884,95.664Zm10.663,31.475a4.489,4.489,0,0,0-.664-.127.5.5,0,0,0-.368.158c-.064.082-.08.317-.022.363a1.731,1.731,0,0,0,1.361.428.429.429,0,0,0,.285-.268.455.455,0,0,0-.158-.342A1.768,1.768,0,0,0,711.547,127.139Z"/><path class="cls-3" d="M782.056,201.679c-.345.194-.859.38-.89.586-.018.112-.25.228-.546.333-.363.128-.644.257-.638.395,0,.112-.213.2-.742.294a9.931,9.931,0,0,0-3.008.83,3.108,3.108,0,0,1-.865.222,14.834,14.834,0,0,0-1.474.349c-.358.094-.647.194-.982.29a2.057,2.057,0,0,1-.356.069,15.872,15.872,0,0,0-2.149.384c-.15.036-.385.066-.582.1-.395.065-.733.14-1.2.193-1.309.147-2.268.343-3.513.5-.151.019-.337.033-.462.055a51.655,51.655,0,0,1-5.62.518c-1.746.092-3.64.122-5.275.259-.128.01-.3.023-.426.02-1.5-.04-2.716.076-3.988.154-.877.053-1.677.132-2.56.183-.811.046-1.511.111-2.2.186-.961.1-1.951.2-2.957.3-.412.039-.881.071-1.355.091a23.163,23.163,0,0,0-3.205.343,14.15,14.15,0,0,1-1.773.189c-.806.042-1.575.093-2.311.159a17.748,17.748,0,0,1-2.589.066c-.133-.008-.311-.008-.449,0-1.3.056-2.688.06-3.96.135-.274.016-.58.023-.877.028q-.9.018-1.8.029c-.2,0-.438.009-.594,0-.884-.069-1.879-.032-2.8-.065-.535-.02-1.087-.03-1.624-.049a3.994,3.994,0,0,1-.511-.039,22.974,22.974,0,0,0-4.212-.261c-.353,0-.709,0-1.061,0-1.206-.013-2.434-.013-3.608-.048-1.061-.031-2.118-.074-3.051-.172a30,30,0,0,0-4.59-.1c-.429.022-.853.045-1.275.069a15.365,15.365,0,0,1-2.184-.023c-1.141-.095-2.349-.166-3.656-.2a4.827,4.827,0,0,1-.88-.072,22.41,22.41,0,0,0-2.877-.259c-.357-.025-.874,0-1.408,0a2.223,2.223,0,0,0-.952-.166,1.836,1.836,0,0,1-.72-.131,3.08,3.08,0,0,0-.794-.181c-.868-.139-1.554-.3-2.686-.406-.732-.186-2.239-.267-3.02-.449a5.292,5.292,0,0,0-.752-.062c-.733-.018-1.114-.095-1.136-.179-.043-.161-.737-.262-1.392-.37-.329-.054-.61-.112-.892-.171-.412-.087-1.038-.153-1.576-.227-.034,0-.089-.007-.138-.008-.7-.028-.875-.137-1.41-.189-.5-.048-1.143-.072-1.548-.131a2.387,2.387,0,0,1-1.082-.349,3.3,3.3,0,0,0-.718-.418,2.927,2.927,0,0,1-.605-.241c-.028-.029-.161-.061-.1-.084.292-.118,0-.225-.236-.335-.07-.032-.067-.074.012-.105.352-.141-.027-.249-.624-.358-1.021-.186-1.875-.389-2.72-.592-.213-.052-.269-.1-.309-.16a.912.912,0,0,0-.536-.487c-.209-.085-.176-.183-.207-.276s.012-.172-.357-.25c-.132-.027-.19-.067-.193-.1-.019-.236-.245-.469-.422-.7-.031-.042.028-.085.032-.128s.108-.1-.033-.127c-.565-.122-.315-.246-.222-.373.041-.055-.05-.115-.159-.17-.175-.086-.147-.168.023-.254.314-.159.558-.321.874-.479.16-.08.152-.156-.036-.233-.511-.21-.33-.427-.312-.642,0-.035.087-.071.188-.1.417-.131.857-.26,1.285-.39a6.17,6.17,0,0,1,1.808-.3,1.868,1.868,0,0,0,.655-.112c.262-.116.531-.229.574-.355.059-.175.479-.325,1.385-.463a12.336,12.336,0,0,0,2.208-.478,6.618,6.618,0,0,1,1.608-.277,15.716,15.716,0,0,0,1.71-.238c.617-.12.953-.263,1.734-.37a1.912,1.912,0,0,0,.686-.263c1.031-.078,1.35-.241,1.464-.422l-.41-.05a10.645,10.645,0,0,0,2.264-.418,6.464,6.464,0,0,1,1.1-.253c.747-.117,1.3-.253,1.992-.375.126-.022.2-.054.349-.07.445-.045.944-.08,1.376-.127s.759-.12,1.229-.154a6.371,6.371,0,0,0,1.306-.179h1.392a19.51,19.51,0,0,0,2-.071,21,21,0,0,1,2.645-.045c.768.026,1.48.029,2.232,0,.332-.013.7,0,1.056-.01.249,0,.553,0,.732-.02.676-.072,1.473-.089,2.251-.118a5.149,5.149,0,0,0,.628-.054,10.409,10.409,0,0,1,1.716-.112c.491,0,.991-.024,1.459-.047.908-.046,1.81-.079,2.793-.087.889-.006,1.766-.051,2.644-.081.342-.012.672-.03,1.012-.044,1.5-.06,3.012-.117,4.508-.181.543-.023,1.061-.04,1.633-.021.281.009.6.007.884,0a28.771,28.771,0,0,1,3.076.06c.419.035,1.014.026,1.429.061a27.092,27.092,0,0,0,2.907.043c.89-.02,1.806-.007,2.7-.042.415-.016.92-.008,1.347.008a22.672,22.672,0,0,0,3.165-.071,2.624,2.624,0,0,1,1.24.075c.1.158.727.234,1.674.3.845.06,1.587.153,2.309.242a21.915,21.915,0,0,0,2.347.128c.572.006,1.122.017,1.57.067a15.907,15.907,0,0,0,1.716.067q.531,0,1.062,0c.253,0,.531-.007.753,0,.653.036,1.26.094,1.93.117.628.022,1.322.01,1.871.072.627.07,1.391.089,2.127.1a26.642,26.642,0,0,1,2.943.19,20.229,20.229,0,0,0,2.383.17,23.478,23.478,0,0,1,3.536.26,6.762,6.762,0,0,0,1.186.077,21.9,21.9,0,0,1,2.872.21.5.5,0,0,1,.241.081c1.067.092,2.053.175,3.022.262a4.5,4.5,0,0,1,.532.077,8,8,0,0,0,1.652.208,1.153,1.153,0,0,1,.232.026,9.827,9.827,0,0,0,2.2.188c.618.135,1.376.253,1.409.423.006.034.134.07.274.1.262.053.247.1.138.163-.186.1-.135.2.239.292.2.053.228.125.217.188-.057.345,2.133.57,4.016.594.349,0,.7.008,1.062.012.519.1.722.209.7.326-.029.147.182.283.668.415a1.618,1.618,0,0,1,.545.268.941.941,0,0,1,.23.212c.032.035.1.075.022.106-.339.134-.174.271-.224.407-.038.1.16.2.615.281Z"/><path class="cls-1" d="M82.215,336.348c.028.02.061.031.088.05a.193.193,0,0,1,.1.212c-.021.089.029.137.1.184a3,3,0,0,1,.3.231.215.215,0,0,1,.083.121,4.178,4.178,0,0,0,.12.532,1.2,1.2,0,0,0,.039.142c.017.054.038.107.056.162a.724.724,0,0,0,.036.117,2.9,2.9,0,0,1,.3.822.849.849,0,0,0,.114.305,2.055,2.055,0,0,1,.378.863.109.109,0,0,0,.029.068c.117.088.112.222.127.343.012.1.11.158.119.242a.543.543,0,0,0,.073.259.856.856,0,0,1,.06.136l-.321.176c-.217.119-.222.146-.067.327a.39.39,0,0,1,.031.04.513.513,0,0,0,.394.243.31.31,0,0,1,.182.077,1.772,1.772,0,0,0,.555.42.164.164,0,0,1,.06.045,1.4,1.4,0,0,0,.392.268.207.207,0,0,1,.095.107,4.965,4.965,0,0,1,.168.518,1.138,1.138,0,0,0,.144.345c.07.112.21.131.276.242a.1.1,0,0,0,.092.027c.155-.054.32-.1.393-.272.015-.034.028-.06.085-.038a.585.585,0,0,1,.015.086.217.217,0,0,0,.168.216.567.567,0,0,1,.342.276.676.676,0,0,0,.224.234,5.862,5.862,0,0,0,.536.328c.091.05.177.09.209.2a.158.158,0,0,0,.088.082,1.753,1.753,0,0,1,.535.373,1.128,1.128,0,0,1,.374.511c.1.049.188.1.281.136a.6.6,0,0,1,.255.2c.025.03.074.038.11.06a1.289,1.289,0,0,1,.122.087c.094.077.157.2.3.206.313.241.654.445.946.714a2.053,2.053,0,0,0,.29.24.3.3,0,0,1,.18.3.2.2,0,0,0,.171.222,1.613,1.613,0,0,0,.546.074c.3-.043.6-.059.9-.107a2.047,2.047,0,0,1,.749.057,1.183,1.183,0,0,0,.422.031,1.265,1.265,0,0,1,.446.014.735.735,0,0,1,.44.261.441.441,0,0,0,.138.1.162.162,0,0,1,.105.2.275.275,0,0,0,.126.308.817.817,0,0,0,.673.13,2.706,2.706,0,0,1,.445-.076,1.6,1.6,0,0,1,.348-.04,1.051,1.051,0,0,0,.323-.035c.062-.013.125-.025.187-.036a2.761,2.761,0,0,0,.416-.015c.049-.006.1-.009.147-.012a1.335,1.335,0,0,1,.195.036,1.084,1.084,0,0,0,.376.03c.032.01.065.021.1.033a1.133,1.133,0,0,0,.513.065c.565-.048,1.131-.084,1.695-.133a1.8,1.8,0,0,1,.853,0,1.031,1.031,0,0,0,.345-.006c.16,0,.319,0,.478,0s.289.017.433.011a2.849,2.849,0,0,1,.738.007.426.426,0,0,0,.258-.01,1.13,1.13,0,0,1,.682-.032,5.075,5.075,0,0,1,1.2.2.452.452,0,0,0,.3-.007.69.69,0,0,1,.426-.007.426.426,0,0,0,.212.029.851.851,0,0,1,.512.033,1.071,1.071,0,0,0,.559-.023c.083-.024.178-.084.248-.064a2.1,2.1,0,0,0,.685-.024c.169,0,.341-.066.5.054.039.03.112.014.17.021.215.026.43.052.646.081.315.042.63.1.946.126a1.82,1.82,0,0,0,.372-.033l.159-.335a4.188,4.188,0,0,0,.526.112,4.564,4.564,0,0,0,.522-.02.377.377,0,0,1,.13.015.847.847,0,0,0,.675.028.377.377,0,0,1,.213.015,14.875,14.875,0,0,0,2.078.116c.374.03.756-.024,1.127.021a5.469,5.469,0,0,0,1.173-.023,2.627,2.627,0,0,1,.692.032c.3.051.585.2.892.048.021-.01.057.014.085.011.128-.01.257-.02.384-.039a3.208,3.208,0,0,1,.427-.074c.405,0,.811,0,1.213.029a.729.729,0,0,0,.535-.1.464.464,0,0,1,.324-.081.879.879,0,0,0,.512-.062,2.708,2.708,0,0,1,1.028-.068c.1,0,.2.046.3.043a3.645,3.645,0,0,1,1.254.049,1.173,1.173,0,0,1,.831.174,1.207,1.207,0,0,0,.887.034.765.765,0,0,0,.394-.2.857.857,0,0,1,.23-.02,1.051,1.051,0,0,0,.323-.035,2,2,0,0,1,.945-.027,1.077,1.077,0,0,0,.572,0,4.16,4.16,0,0,1,.713-.132.465.465,0,0,1,.148.013,1,1,0,0,0,.145.043,3.831,3.831,0,0,0,.577.038c.159-.016.318-.028.477-.031a7.825,7.825,0,0,0,.879-.053.486.486,0,0,1,.1,0,1.081,1.081,0,0,0,.494-.057.474.474,0,0,1,.147-.016c.058,0,.117,0,.174-.009a1.034,1.034,0,0,0,.507-.129c.057-.04.149-.027.216-.057.168-.075.338-.145.5-.226a2.839,2.839,0,0,0,.5-.29.275.275,0,0,1,.157-.068.388.388,0,0,0,.324-.161c.085-.092.169-.186.26-.271a1.314,1.314,0,0,1,.411-.284,2.287,2.287,0,0,1,.578-.154c.109-.014.217-.033.325-.051a.428.428,0,0,0,.293-.175,2.483,2.483,0,0,1,.3-.34.378.378,0,0,1,.213-.118c.13-.007.243-.066.367-.084a.5.5,0,0,0,.365-.2.22.22,0,0,1,.219-.1.55.55,0,0,0,.318-.046,1.684,1.684,0,0,1,.364-.1c.241-.022.39-.214.6-.295.024-.009.041-.052.05-.082a.5.5,0,0,1,.408-.364.237.237,0,0,0,.073-.017.3.3,0,0,0,.1-.076c.1-.152.2-.31.3-.463a1.144,1.144,0,0,1,.162-.192.7.7,0,0,0,.276-.563.139.139,0,0,1,.014-.073,1.724,1.724,0,0,1,.185-.3,2.409,2.409,0,0,0,.215-.279.447.447,0,0,1,.224-.195.281.281,0,0,0,.19-.246.577.577,0,0,1,.2-.341.335.335,0,0,0,.124-.236,2.132,2.132,0,0,1,.03-.225.543.543,0,0,1,.229-.377,1.755,1.755,0,0,0,.2-.188.69.69,0,0,1,.112-.1.2.2,0,0,0,.119-.151.137.137,0,0,1,.059-.077.225.225,0,0,0,.1-.166,1.243,1.243,0,0,1,.262-.592,1.878,1.878,0,0,0,.316-.513,1.445,1.445,0,0,1,.084-.154.8.8,0,0,0,.095-.2.307.307,0,0,1,.142-.222c.091-.06.166-.143.255-.206a.878.878,0,0,0,.318-.383.357.357,0,0,1,.163-.184.947.947,0,0,0,.31-.291c.088-.123.191-.234.288-.35a.334.334,0,0,0,.1-.2.688.688,0,0,1,.028-.137c-.047-.16-.089-.287-.12-.416a.6.6,0,0,1,.05-.393c.088-.19.19-.373.285-.56a.429.429,0,0,0,.022-.072c.025-.089.053-.177.073-.267a.5.5,0,0,0,.018-.172.851.851,0,0,1,.072-.467,1.46,1.46,0,0,0,.172-.653,1,1,0,0,1,.036-.146,2.168,2.168,0,0,0,.034-.4c0-.074-.094-.14-.109-.216s.036-.189.012-.271c-.059-.2-.064-.414-.109-.617a1.1,1.1,0,0,1,.057-.664c.072-.18.15-.358.215-.54a.419.419,0,0,0,.04-.243,5.141,5.141,0,0,0-.167-.657.251.251,0,0,1,.023-.286.284.284,0,0,0,.063-.236,3.083,3.083,0,0,0-.076-.492,2.335,2.335,0,0,1-.1-.693.717.717,0,0,0-.1-.459,1.124,1.124,0,0,1-.172-.411,1.3,1.3,0,0,0-.19-.461c-.049-.067-.039-.175-.066-.261s-.145-.132-.151-.253a.33.33,0,0,0-.235-.3c-.214-.088-.256-.174-.19-.392a.83.83,0,0,0,0-.423c-.019-.089-.031-.18-.045-.271,0-.033,0-.073-.011-.1a.517.517,0,0,1-.047-.366.254.254,0,0,0-.116-.262c-.062-.041-.117-.093-.168-.134-.049-.189-.092-.367-.141-.544a.312.312,0,0,0-.063-.132.848.848,0,0,1-.232-.352c-.006-.023-.03-.04-.044-.061a2.4,2.4,0,0,1-.219-.337,1.194,1.194,0,0,0-.332-.36c-.071-.065-.156-.123-.236-.184a.329.329,0,0,1-.145-.35.649.649,0,0,0-.038-.347,2.551,2.551,0,0,0-.239-.58.318.318,0,0,1-.051-.24.421.421,0,0,0-.014-.172,2.448,2.448,0,0,0-.522-.792c-.013-.019-.042-.026-.062-.042-.093-.072-.189-.14-.275-.219a.407.407,0,0,0-.215-.119.306.306,0,0,1-.252-.218.508.508,0,0,0-.262-.289c-.151-.082-.322-.155-.384-.347a.5.5,0,0,1-.4-.193,2.251,2.251,0,0,0-.323-.31,1.582,1.582,0,0,0-.655-.363.672.672,0,0,1-.389-.256,2.021,2.021,0,0,0-.145-.176,1.313,1.313,0,0,0-.6-.4,1.236,1.236,0,0,1-.322-.13.791.791,0,0,1-.281-.206.2.2,0,0,0-.1-.067,2.689,2.689,0,0,0-.267-.071c-.083-.018-.179-.026-.224-.1-.082-.136-.239-.18-.336-.3a.38.38,0,0,0-.155-.079.892.892,0,0,0-.215-.067.306.306,0,0,1-.215-.117.357.357,0,0,0-.215-.121c-.032-.006-.075-.011-.092-.033a.423.423,0,0,0-.317-.127.27.27,0,0,1-.234-.123.117.117,0,0,0-.062-.039c-.2-.07-.394-.145-.6-.2a.677.677,0,0,0-.492-.028c-.109.053-.194,0-.291,0s-.219.033-.32-.031a1.23,1.23,0,0,1-.1-.074c-.029-.024-.055-.052-.083-.079l-.212.234c-.1-.062-.2-.117-.292-.034a.7.7,0,0,1-.346.136l-.124-.1-.162.008c-.137,0-.278-.087-.414.013a.027.027,0,0,1-.024,0c-.059-.055-.121-.036-.188-.013a.121.121,0,0,1-.1-.006c-.162-.116-.4-.114-.494-.31-.113,0-.212.059-.31-.008a.133.133,0,0,0-.1,0c-.08.026-.156.061-.236.086a.576.576,0,0,1-.194.038c-.074,0-.145-.055-.218-.055a.792.792,0,0,0-.209.059.036.036,0,0,1-.025,0c-.095-.049-.173.02-.245.049a.561.561,0,0,0-.078-.049c-.127-.053-.226-.18-.39-.136-.029.008-.073-.033-.109-.054a2.466,2.466,0,0,0-.392-.223,2.747,2.747,0,0,1-.279-.1.583.583,0,0,0-.409-.073c-.135.039-.318-.021-.4.16-.008.016-.044.023-.067.028l-.044.014-.149.014a12.9,12.9,0,0,1-1.875,0c-.362-.012-.725-.04-1.087-.051a1.066,1.066,0,0,0-.346.045.911.911,0,0,1-.428.028,2.761,2.761,0,0,0-.436,0c-.131,0-.261,0-.392,0-.174,0-.348-.018-.522-.012-.32.011-.642.062-.96.044a11.325,11.325,0,0,0-1.7-.039,2.082,2.082,0,0,1-.261-.012c-.174,0-.348-.012-.521-.01-.6.009-1.194.048-1.788.022-.39-.017-.778-.085-1.17-.109a3.675,3.675,0,0,0-.994.069,3.087,3.087,0,0,1-.693.051c-.347-.008-.694-.043-1.041-.064a.438.438,0,0,0-.13.011,3.544,3.544,0,0,1-1.167.012,5.556,5.556,0,0,0-1.263-.016,9.442,9.442,0,0,1-1.656.026.424.424,0,0,1-.206-.054.4.4,0,0,0-.331-.029,1.3,1.3,0,0,1-.515.042c-.444-.093-.9.031-1.338-.09a.158.158,0,0,0-.086,0,4.438,4.438,0,0,1-.994.12,1.332,1.332,0,0,1-.605-.051.837.837,0,0,0-.678.051.522.522,0,0,1-.288.084c-.307-.057-.616.035-.915-.011a4.924,4.924,0,0,0-1,0c-.247.013-.495.027-.742.029-.2,0-.406-.013-.609-.021-.159-.006-.319-.009-.478-.018a7.2,7.2,0,0,0-1.22-.028,2.627,2.627,0,0,1-.7.012,2.21,2.21,0,0,0-.473-.016.929.929,0,0,0-.149-.072,2.747,2.747,0,0,1-.279-.1.583.583,0,0,0-.409-.073c-.135.039-.318-.021-.4.16-.007.016-.043.023-.066.028a.849.849,0,0,0-.351.188.416.416,0,0,1-.3.12.293.293,0,0,0-.136.053c-.133.071-.262.15-.4.216a.689.689,0,0,0-.173.1.41.41,0,0,1-.327.11,3.073,3.073,0,0,0-.5.017.624.624,0,0,1-.507-.093c-.02-.018-.063-.014-.095-.016a1.458,1.458,0,0,1-.149-.007,1.1,1.1,0,0,0-.17-.046.754.754,0,0,0-.182.043l-.057-.07a.5.5,0,0,0-.734-.1c-.171.117-.358.21-.537.313l-.125-.05c-.1.193-.214.36-.449.349-.059.074-.109.142-.164.2a.385.385,0,0,1-.109.1.857.857,0,0,0-.3.257c-.118.142-.218.3-.346.432a2.946,2.946,0,0,1-.444.435.961.961,0,0,1-.438.178.739.739,0,0,0-.419.209.3.3,0,0,1-.1.07c-.093.029-.178.055-.187.174,0,.018-.051.034-.08.047a1.436,1.436,0,0,0-.345.281c-.064.212-.237.386-.208.616a.506.506,0,0,1-.273.141.4.4,0,0,0-.13.067,1.986,1.986,0,0,1-.538.309.31.31,0,0,0-.152.077.889.889,0,0,1-.364.261.608.608,0,0,0-.21.171,1.45,1.45,0,0,1-.34.3,1.954,1.954,0,0,0-.32.238,2.191,2.191,0,0,1-.341.212l-.021.014a4.892,4.892,0,0,0-.7.717.17.17,0,0,1-.095.076c-.141.017-.214.126-.306.209-.118.107-.237.214-.349.327a.358.358,0,0,0-.093.147.7.7,0,0,1-.36.432c-.058.032-.1.092-.157.126a.385.385,0,0,0-.245.351.071.071,0,0,1-.017.047.5.5,0,0,0-.117.374.845.845,0,0,1-.034.145.317.317,0,0,0-.015.12c.041.191-.063.382,0,.573a.086.086,0,0,1-.008.049,1.084,1.084,0,0,0-.089.205c-.011.061-.085.111-.126.161l.09.521c-.038.027-.077.039-.091.065a.585.585,0,0,0-.113.347.636.636,0,0,1-.1.5.552.552,0,0,0-.039.093c-.053.105-.1.211-.163.312a.44.44,0,0,0-.072.262.4.4,0,0,1-.014.174.553.553,0,0,0-.014.322.561.561,0,0,1-.107.476.533.533,0,0,0-.107.278c-.008.056-.026.136-.065.157-.107.057-.122.146-.142.248a.445.445,0,0,1-.2.316.29.29,0,0,0-.005.042,1.054,1.054,0,0,1-.03.57.213.213,0,0,0,.023.142c.024.062.067.117.089.18a.2.2,0,0,1,.011.144c-.107.177-.035.382-.1.564.039.118-.026.207-.075.3a.974.974,0,0,0-.107.562c.022.174.065.345.1.516.031.148.069.294.1.442a.191.191,0,0,1-.016.142c-.108.115-.067.276-.136.4a.089.089,0,0,0,0,.073c.084.144-.021.321.082.462.015.02,0,.064-.009.1-.008.058-.02.115-.024.173-.006.116-.007.233-.011.35a.773.773,0,0,0,.01.348.176.176,0,0,1-.042.187.279.279,0,0,0-.039.309.355.355,0,0,1-.111.429.588.588,0,0,0-.124.186A.346.346,0,0,0,82.215,336.348Z"/><path class="cls-2" d="M133.524,342.815a3.347,3.347,0,0,0-.748.216,1.282,1.282,0,0,1-.429.116,1.339,1.339,0,0,0-.507.139.556.556,0,0,1-.4.06,2.57,2.57,0,0,0-1.214.021.679.679,0,0,1-.329,0,2.659,2.659,0,0,0-.529-.025c-.139,0-.279.014-.418.019a.27.27,0,0,1-.11-.016,1.7,1.7,0,0,0-.627-.114.937.937,0,0,1-.164-.034,1.758,1.758,0,0,1-.326-.076c-.284-.122-.592-.158-.879-.265a.69.69,0,0,0-.1-.041,2.319,2.319,0,0,1-1.085-.6,5.987,5.987,0,0,0-.759-.7c-.023-.014-.053-.034-.06-.057-.087-.269-.326-.395-.526-.555-.138-.11-.3-.191-.434-.3a1.778,1.778,0,0,0-.405-.243c-.2-.092-.405-.192-.6-.3a.9.9,0,0,1-.223-.165,1.218,1.218,0,0,0-.673-.311.735.735,0,0,1-.372-.172,2.312,2.312,0,0,0-.384-.279.52.52,0,0,1-.3-.381.143.143,0,0,0-.038-.074c-.178-.177-.3-.4-.5-.562a.73.73,0,0,1-.11-.125c-.066-.091-.128-.183-.19-.276a.2.2,0,0,1-.049-.1c0-.187-.128-.326-.171-.5-.024-.1-.061-.195-.087-.294a.157.157,0,0,1,0-.107.849.849,0,0,0-.071-.847c-.027-.059-.061-.116-.087-.176a5.358,5.358,0,0,1-.262-.617,1.386,1.386,0,0,1-.07-.6.876.876,0,0,0-.289-.809c-.062-.057-.126-.111-.191-.165a.439.439,0,0,1-.165-.37,2.007,2.007,0,0,0-.094-.718.207.207,0,0,1,.006-.188c.127-.2.051-.418.043-.627,0-.074-.072-.145-.119-.232a.268.268,0,0,0,.106-.257.229.229,0,0,1,.088-.2.519.519,0,0,0,.136-.24,2.608,2.608,0,0,0,.229-.687c.149-.235.11-.53.249-.769a.222.222,0,0,0,0-.161.24.24,0,0,1,.105-.3.768.768,0,0,0,.3-.455,2.281,2.281,0,0,1,.118-.25,2.09,2.09,0,0,0,.121-.4.067.067,0,0,0,0-.028c-.03-.132.079-.227.091-.346a1.82,1.82,0,0,1,.015-.333.885.885,0,0,1,.3-.391,4.23,4.23,0,0,0,.415-.375,1.574,1.574,0,0,1,.223-.246c.029-.022.054-.064.086-.069a.662.662,0,0,0,.363-.245.224.224,0,0,1,.121-.062.458.458,0,0,0,.354-.322,7.334,7.334,0,0,1,.439-.808.467.467,0,0,1,.155-.148,2.653,2.653,0,0,0,.51-.388,1.306,1.306,0,0,1,.3-.2.582.582,0,0,0,.254-.212.245.245,0,0,1,.1-.094c.268-.149.515-.329.767-.5a1.588,1.588,0,0,1,.149-.074c.05-.026.121-.042.143-.084.09-.166.253-.2.407-.265a.6.6,0,0,0,.18-.13.574.574,0,0,1,.293-.153c.209-.047.415-.107.624-.153a.483.483,0,0,0,.263-.149,2.376,2.376,0,0,1,.707-.446.343.343,0,0,1,.134-.033c.185-.012.371-.02.557-.03a.614.614,0,0,1,.5.111.206.206,0,0,0,.185.038,1.755,1.755,0,0,0,.457-.126.908.908,0,0,1,.651-.059,1.864,1.864,0,0,0,.741.065.691.691,0,0,1,.457.092,1.113,1.113,0,0,0,.422.132,3.39,3.39,0,0,1,.575.054.948.948,0,0,0,.361-.05.627.627,0,0,0,.611-.021l.021-.1a1.241,1.241,0,0,0,.676.111,1.071,1.071,0,0,1,.386.024c.2.049.4.056.6.093a.438.438,0,0,1,.111.014c.09.044.174.1.266.146a1.806,1.806,0,0,1,.284.105.462.462,0,0,0,.318.1c.044.08.083.153.122.227a.584.584,0,0,0,.258.281.6.6,0,0,1,.283.4.776.776,0,0,0,.2.363,1.1,1.1,0,0,1,.1.165c.025.039.049.09.087.107a1.155,1.155,0,0,1,.332.294.225.225,0,0,0,.116.069.388.388,0,0,1,.28.211.918.918,0,0,0,.181.208,1.791,1.791,0,0,1,.344.4,2.848,2.848,0,0,0,.325.381c.043.048.094.091.139.138.2.207.4.418.6.623a.57.57,0,0,1,.168.252.415.415,0,0,0,.077.145.8.8,0,0,1,.2.538c0,.089.059.181.056.27a.751.751,0,0,0,.2.5,4.364,4.364,0,0,0,.286.414.492.492,0,0,1,.108.225.659.659,0,0,0,.359.472.135.135,0,0,1,.023.247.459.459,0,0,0-.2.458,2.053,2.053,0,0,1-.074.525.728.728,0,0,0,.061.461.52.52,0,0,1,.06.3.477.477,0,0,0,.074.32q.048.087.093.174a.393.393,0,0,1,.06.126,3.276,3.276,0,0,0,.036.386c.029.116.1.221.082.349a.751.751,0,0,0,.07.409.953.953,0,0,1,.04.6.764.764,0,0,0,.016.492.927.927,0,0,1,.012.736.251.251,0,0,0,.016.241c.118.2.038.4.011.6-.005.039-.056.071-.071.089-.012.231-.021.443-.035.654a.342.342,0,0,1-.041.134.524.524,0,0,0-.093.4.068.068,0,0,1-.009.054c-.128.151-.074.314-.023.474a1.065,1.065,0,0,1-.36.49.253.253,0,0,0-.088.1.234.234,0,0,1-.176.123.492.492,0,0,0-.312.219.5.5,0,0,1-.2.151.8.8,0,0,0-.327,1.02c.025.059.052.119.079.18a.656.656,0,0,1-.311.315,1.068,1.068,0,0,0-.417.364,1.444,1.444,0,0,1-.258.254c-.069.061-.147.114-.222.168a.326.326,0,0,1-.12.069,1.725,1.725,0,0,0-.485.214.527.527,0,0,0-.267.273Z"/><path class="cls-1" d="M91.642,331a2.022,2.022,0,0,0,.065-.466.782.782,0,0,1,.042-.265.822.822,0,0,0,.048-.314.332.332,0,0,1,.065-.236,1.54,1.54,0,0,0,.287-.675.425.425,0,0,1,.083-.181,1.523,1.523,0,0,0,.144-.285c.035-.077.061-.158.093-.236a.162.162,0,0,1,.036-.057,1.021,1.021,0,0,0,.217-.318.515.515,0,0,1,.059-.082,1.081,1.081,0,0,1,.122-.161c.137-.126.233-.288.363-.42a.522.522,0,0,0,.048-.046,1.4,1.4,0,0,1,.6-.453,3.5,3.5,0,0,0,.573-.246.083.083,0,0,1,.046-.019.771.771,0,0,0,.436-.154c.094-.049.179-.118.274-.165a1.033,1.033,0,0,0,.234-.163c.1-.09.206-.177.313-.26a.532.532,0,0,1,.145-.082.74.74,0,0,0,.337-.3.451.451,0,0,1,.187-.163,1.425,1.425,0,0,0,.248-.143.313.313,0,0,1,.285-.073.086.086,0,0,0,.05,0c.142-.055.3-.069.434-.138a.384.384,0,0,1,.1-.03c.066-.014.132-.026.2-.037a.125.125,0,0,1,.066,0c.1.047.212.01.316.028.061.011.123.014.184.024a.1.1,0,0,1,.059.027.512.512,0,0,0,.485.169c.039,0,.079,0,.118,0a3.214,3.214,0,0,1,.405.007.843.843,0,0,1,.35.11.531.531,0,0,0,.518.04l.138-.065a.265.265,0,0,1,.245,0,1.207,1.207,0,0,0,.419.124.124.124,0,0,1,.1.05c.08.12.219.131.336.178.041.017.1,0,.157-.008a.162.162,0,0,0,.116.121.139.139,0,0,1,.088.1.32.32,0,0,0,.1.134,1.56,1.56,0,0,0,.323.3c.092.14.265.191.363.327a.134.134,0,0,0,.087.042.144.144,0,0,1,.137.131.472.472,0,0,0,.177.278,1.3,1.3,0,0,1,.109.126,1.249,1.249,0,0,0,.189.165.043.043,0,0,0,.016.005c.08.016.106.1.168.136a1.091,1.091,0,0,1,.181.09.535.535,0,0,1,.141.264,2.5,2.5,0,0,0,.1.321,1.012,1.012,0,0,1,.082.184c0,.022.021.046.016.064a.4.4,0,0,0,.046.261.135.135,0,0,1,0,.082.277.277,0,0,0,.09.275,4.152,4.152,0,0,1,.338.441.276.276,0,0,1,.044.122,1.545,1.545,0,0,0,.088.376.8.8,0,0,1,.039.215.353.353,0,0,0,.054.192.148.148,0,0,1,.028.079c.016.184.055.365.088.546a.844.844,0,0,1,0,.1c0,.034-.007.077.011.1a.4.4,0,0,1,.046.29.371.371,0,0,0,.028.131.35.35,0,0,1,.012.2c-.025.127-.043.255-.069.382a.291.291,0,0,0,.018.182,1.46,1.46,0,0,1,.072.5.211.211,0,0,1-.015.081c-.039.106-.081.21-.121.315a.373.373,0,0,1-.184.249.123.123,0,0,0-.066.093,1.072,1.072,0,0,0-.044.283.542.542,0,0,1-.127.373,1.131,1.131,0,0,0-.218.393.418.418,0,0,1-.163.23.657.657,0,0,0-.177.2,1.98,1.98,0,0,1-.172.3c-.039.045-.038.126-.061.212a.378.378,0,0,0-.138.342l.048.036a.751.751,0,0,0-.228.346.666.666,0,0,1-.107.207c-.077.1-.131.209-.2.31a.253.253,0,0,1-.034.058c-.047.039-.1.07-.146.111s-.078.1-.128.13a.279.279,0,0,0-.135.151l-.156.012a.348.348,0,0,0-.218.072.354.354,0,0,1-.292.057.478.478,0,0,0-.249.02.733.733,0,0,1-.117.017.183.183,0,0,0-.081.021.7.7,0,0,1-.244.112.126.126,0,0,0-.066.047.235.235,0,0,1-.185.1.6.6,0,0,0-.16.049,1.081,1.081,0,0,1-.306.091,1.687,1.687,0,0,0-.29.086c-.038.012-.073.029-.11.042-.164.06-.329.117-.492.179a.343.343,0,0,1-.181.031.256.256,0,0,0-.1.007.482.482,0,0,1-.346-.022c-.049-.023-.115-.011-.163-.035a.453.453,0,0,0-.326-.01,2.577,2.577,0,0,0-.3.056.3.3,0,0,1-.151,0,.4.4,0,0,0-.349.082.082.082,0,0,1-.142-.048.277.277,0,0,0-.2-.221,1.249,1.249,0,0,1-.272-.17.432.432,0,0,0-.269-.08.322.322,0,0,1-.179-.04.285.285,0,0,0-.2-.038l-.118.009a.265.265,0,0,1-.084,0,1.877,1.877,0,0,0-.222-.076.5.5,0,0,1-.213-.04.448.448,0,0,0-.243-.062.576.576,0,0,1-.339-.125.465.465,0,0,0-.276-.112.56.56,0,0,1-.409-.175.151.151,0,0,0-.137-.05c-.138.016-.229-.077-.332-.141-.02-.012-.026-.048-.032-.061-.124-.063-.239-.12-.352-.18a.214.214,0,0,1-.064-.056.314.314,0,0,0-.2-.149.037.037,0,0,1-.027-.018c-.053-.108-.156-.118-.257-.129a.643.643,0,0,1-.181-.32.149.149,0,0,0-.037-.074.145.145,0,0,1-.025-.127.294.294,0,0,0-.043-.226.309.309,0,0,1-.036-.146.482.482,0,0,0-.482-.431h-.119a.393.393,0,0,1-.1-.249.652.652,0,0,0-.1-.32.877.877,0,0,1-.077-.2c-.016-.054-.027-.11-.038-.165a.2.2,0,0,1-.008-.082,1.079,1.079,0,0,0,0-.321.321.321,0,0,0-.085-.214Z"/><path class="cls-2" d="M93.506,331.14a1.434,1.434,0,0,0,.046-.328.546.546,0,0,1,.029-.187.583.583,0,0,0,.034-.222.234.234,0,0,1,.046-.166,1.086,1.086,0,0,0,.2-.476.3.3,0,0,1,.059-.128,1.084,1.084,0,0,0,.1-.2c.024-.054.043-.111.065-.166a.109.109,0,0,1,.025-.04.707.707,0,0,0,.153-.225.567.567,0,0,1,.042-.058.819.819,0,0,1,.086-.113c.1-.089.164-.2.256-.3.011-.012.025-.021.034-.033a.987.987,0,0,1,.421-.319,2.486,2.486,0,0,0,.4-.174.054.054,0,0,1,.032-.014.542.542,0,0,0,.308-.108c.066-.035.126-.083.193-.116a.711.711,0,0,0,.165-.116c.072-.063.145-.124.221-.183a.4.4,0,0,1,.1-.058.514.514,0,0,0,.238-.208.318.318,0,0,1,.132-.115.957.957,0,0,0,.175-.1.221.221,0,0,1,.2-.051.059.059,0,0,0,.035,0c.1-.039.209-.049.306-.1a.316.316,0,0,1,.068-.021c.046-.01.093-.018.14-.026a.085.085,0,0,1,.047,0c.072.033.149.007.223.02.043.007.086.01.129.017a.064.064,0,0,1,.042.019c.086.122.214.119.342.119.028,0,.056,0,.084,0a2.252,2.252,0,0,1,.285.006.584.584,0,0,1,.247.077.374.374,0,0,0,.365.028c.033-.014.065-.03.1-.046a.187.187,0,0,1,.172,0,.858.858,0,0,0,.3.088.09.09,0,0,1,.072.035c.056.084.154.092.237.126.029.012.069,0,.111-.006a.115.115,0,0,0,.082.086.1.1,0,0,1,.062.068.225.225,0,0,0,.069.095,1.1,1.1,0,0,0,.228.208c.066.1.187.135.256.231a.1.1,0,0,0,.062.03.1.1,0,0,1,.1.091.33.33,0,0,0,.124.2.927.927,0,0,1,.077.089.887.887,0,0,0,.134.116l.011,0c.056.011.074.07.119.1a.751.751,0,0,1,.127.063.379.379,0,0,1,.1.186,1.941,1.941,0,0,0,.074.227.675.675,0,0,1,.057.129c0,.016.015.033.012.046a.287.287,0,0,0,.032.184.1.1,0,0,1,0,.058.194.194,0,0,0,.063.193,3.13,3.13,0,0,1,.239.311.2.2,0,0,1,.031.086,1.061,1.061,0,0,0,.062.266.538.538,0,0,1,.027.151.253.253,0,0,0,.039.136.117.117,0,0,1,.019.055c.011.131.039.258.062.386a.554.554,0,0,1,0,.071c0,.024,0,.054.008.07a.287.287,0,0,1,.033.2.249.249,0,0,0,.019.093.251.251,0,0,1,.009.141c-.018.089-.031.18-.049.269a.207.207,0,0,0,.012.128,1.007,1.007,0,0,1,.051.353.165.165,0,0,1-.01.058l-.085.222a.261.261,0,0,1-.13.175.089.089,0,0,0-.047.066.787.787,0,0,0-.031.2.385.385,0,0,1-.089.264.778.778,0,0,0-.154.277.294.294,0,0,1-.115.162.473.473,0,0,0-.125.142,1.465,1.465,0,0,1-.121.214c-.028.031-.027.089-.043.149a.269.269,0,0,0-.1.242l.034.025a.529.529,0,0,0-.16.244.473.473,0,0,1-.077.146c-.053.069-.092.147-.141.219-.009.013-.013.031-.024.04-.033.028-.071.05-.1.079s-.055.07-.091.092a.2.2,0,0,0-.095.106l-.109.008a.252.252,0,0,0-.154.051.255.255,0,0,1-.206.041.329.329,0,0,0-.176.014.535.535,0,0,1-.083.012.111.111,0,0,0-.056.015.479.479,0,0,1-.172.078.1.1,0,0,0-.048.033.165.165,0,0,1-.13.073.387.387,0,0,0-.113.034.759.759,0,0,1-.216.064,1.188,1.188,0,0,0-.2.061c-.027.008-.052.02-.078.03-.116.042-.232.082-.347.126a.243.243,0,0,1-.127.022.183.183,0,0,0-.07,0,.333.333,0,0,1-.244-.015c-.035-.016-.081-.008-.115-.025a.328.328,0,0,0-.231-.007,1.725,1.725,0,0,0-.21.04.227.227,0,0,1-.107,0,.277.277,0,0,0-.245.058.058.058,0,0,1-.1-.034.2.2,0,0,0-.144-.156.888.888,0,0,1-.191-.12.308.308,0,0,0-.19-.057.217.217,0,0,1-.126-.028.211.211,0,0,0-.138-.027q-.042,0-.084.006a.148.148,0,0,1-.059,0,1.318,1.318,0,0,0-.157-.053c-.05-.009-.1,0-.15-.029a.326.326,0,0,0-.171-.044.4.4,0,0,1-.239-.087.323.323,0,0,0-.2-.08.4.4,0,0,1-.288-.123.107.107,0,0,0-.1-.035c-.1.011-.162-.055-.234-.1-.015-.008-.018-.034-.023-.043-.087-.045-.168-.085-.248-.127a.14.14,0,0,1-.045-.039.221.221,0,0,0-.138-.105.029.029,0,0,1-.02-.013c-.037-.076-.109-.083-.18-.091a.454.454,0,0,1-.129-.225.108.108,0,0,0-.025-.053.1.1,0,0,1-.018-.09.2.2,0,0,0-.031-.159.209.209,0,0,1-.024-.1.341.341,0,0,0-.341-.3h-.084a.278.278,0,0,1-.068-.175.458.458,0,0,0-.07-.226.635.635,0,0,1-.053-.144,1.148,1.148,0,0,1-.027-.116.131.131,0,0,1-.006-.058.745.745,0,0,0,0-.226.225.225,0,0,0-.059-.152Z"/><path class="cls-1" d="M325.466,198.388a.175.175,0,0,1-.018-.121,1.072,1.072,0,0,0-.19-.918.82.82,0,0,1-.1-.477c.182-.984-.111-2.09.418-2.917-.15-.536-.456-.9-.355-1.492a.846.846,0,0,0-.127-.454c-.183-.332-.4-.63-.577-.966a3.2,3.2,0,0,1-.365-.853c-.074-.36,0-.792-.087-1.138a4.246,4.246,0,0,0-.453-.888.251.251,0,0,1-.023-.123c.047-.546-.281-.788-.466-1.078a3.959,3.959,0,0,0,.069-.461c.017-.7.317-1.4-.033-2.1-.062-.125.022-.409.047-.617a17.711,17.711,0,0,0,.255-2.276c0-.5-.029-1.018,0-1.519a4.1,4.1,0,0,0-.262-2.084c-.3-.568-.323-1.55-1.025-1.6-.063-.005-.128-.164-.176-.267a3.621,3.621,0,0,0-1.058-1.324,1.962,1.962,0,0,1-.763-1.186,1.464,1.464,0,0,0-.343-.555c-.4-.5-.824-.97-1.211-1.493a2.693,2.693,0,0,0-.535-.642,2.072,2.072,0,0,1-.769-1.354,20.037,20.037,0,0,0-.671-2.35,4.323,4.323,0,0,1-.318-2.579,1.247,1.247,0,0,0-.064-.485c-.05-.242-.132-.475-.162-.722a7.718,7.718,0,0,0-.056-.891,2.059,2.059,0,0,0-.18-.437,2.986,2.986,0,0,1-2.342.014,1.771,1.771,0,0,1-.177-.47,1.309,1.309,0,0,0-.31-.5c-.362-.455-.745-.877-1.1-1.35a2.439,2.439,0,0,0-.484-.581,1.874,1.874,0,0,1-.695-1.224,17.876,17.876,0,0,0-.607-2.124,3.905,3.905,0,0,1-.287-2.332,1.114,1.114,0,0,0-.058-.438c-.045-.219-.119-.429-.146-.653a6.926,6.926,0,0,0-.051-.805,1.793,1.793,0,0,0-.163-.395c-.057-.109-.117-.214-.168-.319.064-.16.105-.26.144-.362a2.914,2.914,0,0,0-.506-3.333c-.542-.54-1.031-1.191-1.539-1.788l.01-.621a1.6,1.6,0,0,1-1.55-1.356c-.288-.13-.547-.232-.8-.364a1.078,1.078,0,0,1-.413-.309,2.652,2.652,0,0,0-1.11-.875c-.559-.273-1.146-.442-1.686-.773a8.341,8.341,0,0,1-1.8-1.191,4.177,4.177,0,0,1-1.023-1.587,2.948,2.948,0,0,0-1.094-1.459.984.984,0,0,1-.323-.31c-.189-.35-.362-.672-.731-.516-.055.023-.159-.159-.228-.263a4.551,4.551,0,0,0-1.23-1.023c-.71.078-1.425-.376-2.083.132a2,2,0,0,1-.727-.946,1.668,1.668,0,0,0-.346-.446,7.447,7.447,0,0,1-1.53-1.8c-.111-.2-.244-.46-.4-.526a2.987,2.987,0,0,1-1.188-1.136,1.913,1.913,0,0,0-.75-.618,4.415,4.415,0,0,1-1.263-.974,6.63,6.63,0,0,0-1.074-.985,7.911,7.911,0,0,1-1.018-1.114.382.382,0,0,0-.066-.067,13.673,13.673,0,0,0-2.932-1.822.544.544,0,0,1-.336-.283c-.208-.58-.618-.711-.971-.969-.453-.332-.906-.664-1.37-.962a.841.841,0,0,0-.544-.155,1.839,1.839,0,0,1-1.7-.833c-.161-.2-.389-.277-.553-.468-.4-.459-.8-.785-1.33-.468a.161.161,0,0,1-.159,0c-.432-.279-.839-.088-1.254.121a2.086,2.086,0,0,1-.473.093.769.769,0,0,0-.378.131c-.528.5-1.218.364-1.719.956a.2.2,0,0,1-.156.05,2.178,2.178,0,0,0-.715-.043c-.2.055-.43-.183-.624-.279l-1.463,1.255c-.124-.122-.2-.268-.3-.283-.39-.064-.781-.212-1.17.089a1.545,1.545,0,0,1-1.627.4c-.1-.044-.215,0-.322-.014-.373-.054-.748-.1-1.118-.181a1.023,1.023,0,0,0-.869.122,1.029,1.029,0,0,1-.538.229,1.472,1.472,0,0,0-.98.475,1.366,1.366,0,0,1-1.551.331,1.216,1.216,0,0,0-.954,0c-.176.06-.437.115-.544-.019-.29-.364-.576-.28-.9-.2a1.1,1.1,0,0,1-1.178-.357.864.864,0,0,0-.132.048c-.555.383-1.077.9-1.743.819-.127-.014-.287.184-.4.332-.16.207-.277.486-.44.685-.117.142-.294.313-.42.282-.652-.165-1.186.487-1.8.521-.309.363-.65.233-1,.182a2.332,2.332,0,0,0-1.807.474c-.5.38-.963.847-1.437,1.287-.409.379-.805.787-1.22,1.153-.127.112-.328.231-.443.164-.466-.272-.9.171-1.356.082a.252.252,0,0,0-.217.131c-.339.6-.985.441-1.3,1.12-.044.095-.2.086-.3.122a5.128,5.128,0,0,0-.545.183c-.357.166-.71.355-1.065.533s-.737.216-1.035.619a.438.438,0,0,1-.608.129c-.368-.189-.7-.031-.971.346a.9.9,0,0,1-1.411.233,1.464,1.464,0,0,0-.7-.225c-.594-.037-1.04.466-1.186,1.286-.027.15-.023.311-.052.46-.075.394-.2.721-.525.784-.288.057-.378.349-.44.728-.092.566-.222,1.121-.361,1.668a1.057,1.057,0,0,1-.272.556,15.015,15.015,0,0,0-1.462,1.4,3.955,3.955,0,0,0-.383.4c-.145.165-.281.344-.424.512a2.55,2.55,0,0,0-.311.351,11.529,11.529,0,0,1-2.131,2.665,3.463,3.463,0,0,0-.788,1,8.728,8.728,0,0,1-2.168,3.062.453.453,0,0,0-.174.238,1.727,1.727,0,0,1-.889,1.113c-.292.221-.351.737-.592.917a1.982,1.982,0,0,0-.7.742,3.722,3.722,0,0,1-.342.486c-.32-.394-.6-.745-.886-1.092-.6-.734-.687-.712-1.057.256a2.107,2.107,0,0,1-.086.2,3.163,3.163,0,0,0-.314,1.836c.009.089.012.175.026.265a2.039,2.039,0,0,1-.027.909,10.968,10.968,0,0,0-.642,3.087,1.058,1.058,0,0,1-.069.333,8.9,8.9,0,0,0-.366,2.13,1.194,1.194,0,0,1-.215.587,18.746,18.746,0,0,1-1.369,1.581,4.827,4.827,0,0,0-.876,1.194c-.257.484-.158,1.121-.418,1.59a.644.644,0,0,0,.021.44,4.366,4.366,0,0,0,.65.933,8.847,8.847,0,0,0-.473,2.606,1.2,1.2,0,0,1-.076.368,9.847,9.847,0,0,0-.405,2.356,1.324,1.324,0,0,1-.238.65,20.72,20.72,0,0,1-1.514,1.748,5.31,5.31,0,0,0-.969,1.321c-.285.536-.175,1.24-.463,1.759a.713.713,0,0,0,.023.487c.371.64.727,1.337,1.389,1.37.134.007.234.023.232.333a2.264,2.264,0,0,1-.266.231,1.22,1.22,0,0,0-.51,1.2,6.728,6.728,0,0,1-.038.695c-.009.01-.015.024-.025.034-.009.134-.02.256-.031.384a2.869,2.869,0,0,1-.4,1.021,4.264,4.264,0,0,0-.5,1.492c-.184,1.038-.32,2.1-.428,3.155a2.213,2.213,0,0,1-.411,1.365,1,1,0,0,0-.163.57,12.27,12.27,0,0,1-.582,3.231,6.44,6.44,0,0,1-1.232,2.717c-.04.57-.1,1.079-.1,1.588a4.183,4.183,0,0,1-.337,1.577,3.137,3.137,0,0,0-.065.631c-.035.25-.08.5-.136.741a3.767,3.767,0,0,0-.317,1.8c-.118.553-.224,1.111-.326,1.671a4.872,4.872,0,0,0,1,.04c.818-.04,1.638-.1,2.455-.09.165,0,.33-.011.494,0a7.769,7.769,0,0,0,2.836-.31,2.062,2.062,0,0,1,1.258,0,3.1,3.1,0,0,0,1.986-.17c-.37-.4-.873-.086-1.062-.674.439-.65.5-.765.758-.564.481.379.96.191,1.446.159.051,0,.1.091.157.14a2.3,2.3,0,0,0,.07,1.191l2.716-.212a7.2,7.2,0,0,1,.947-.063c.666.038,1.329.087,2,.108,1.51.047,3.014.276,4.531.176a15.493,15.493,0,0,0,3.992-.387,1.148,1.148,0,0,1,.831-.071,5.064,5.064,0,0,0,2.5.22,16.661,16.661,0,0,0,3.791-.137,2.11,2.11,0,0,1,.737.034,3.516,3.516,0,0,0,2.475-.54,1.7,1.7,0,0,1,2.05.073,1.982,1.982,0,0,0,1.9.352c.212-.046.406-.146.609,0a1.18,1.18,0,0,0,1.335-.044,2.159,2.159,0,0,1,.808-.277,10.983,10.983,0,0,0,1.766-.3,2.946,2.946,0,0,1,1.675.1c.307.1.619.181.927.287a2.013,2.013,0,0,0,2.108-.467c.255.34.525.537.873.407a4.055,4.055,0,0,1,1.788-.1,7.243,7.243,0,0,0,2.733.075.756.756,0,0,1,.416.076,1.862,1.862,0,0,0,2.376-.829,7.3,7.3,0,0,0,4.257.807,1.089,1.089,0,0,0,1.186-.762.855.855,0,0,1,.535-.423c.475-.151.952-.39,1.446-.032.122.089.335-.023.494-.1a2.242,2.242,0,0,1,2.7.622.9.9,0,0,0,.876.353,3.775,3.775,0,0,0,1.129-.381,2.818,2.818,0,0,1,2.274-.381,3.017,3.017,0,0,0,1.047,0c.421-.052.839-.163,1.259-.254a5.746,5.746,0,0,1,3.832.465c.387.187.841.011,1.2.408.058.064.2-.03.3-.05.239-.047.478-.1.717-.136a6.527,6.527,0,0,1,2.094.305,7.018,7.018,0,0,0,1.363.158c.736-.015,1.474-.091,2.209-.169,1.579-.168,3.156.037,4.735-.075a18.142,18.142,0,0,0,3.156-.159.817.817,0,0,1,.42-.028,1.457,1.457,0,0,0,1.027-.216,2.046,2.046,0,0,1,1.659-.28,2.307,2.307,0,0,0,1.671.038,3.044,3.044,0,0,1,1.99.076,2.535,2.535,0,0,0,1.462.1,2.131,2.131,0,0,1,1.141.1c.711.224,1.465-.044,2.188.213.086.031.2-.075.3-.132a2.726,2.726,0,0,1,2.081-.189,10.938,10.938,0,0,0,2.2.314c.78.015,1.561-.032,2.342-.081q.408-.025.816-.048c.772-.043,1.545-.067,2.313-.182a3.754,3.754,0,0,1,1.471.021c.039.01.078.017.117.027C325.847,199.592,325.934,198.824,325.466,198.388Z"/><path class="cls-3" d="M272.468,48.205a2.3,2.3,0,0,1-.941-1.552c-.466-2.448-.854-4.914-1.186-7.385a2.285,2.285,0,0,1,.431-1.46,4.5,4.5,0,0,0,.544-3.882,3.7,3.7,0,0,1-.084-1.549,5.5,5.5,0,0,0-.432-3.019,10.921,10.921,0,0,1-.537-5.533,20.3,20.3,0,0,0-.023-5.906,14.958,14.958,0,0,1,.138-5.254,23.246,23.246,0,0,0,.386-8.317,33.072,33.072,0,0,1,.119-9.672c-2.262-.177-4.526-.32-6.793-.412.013.335.031.672.059,1.016.148,1.769.125,3.536-1.507,4.834a2.212,2.212,0,0,0-.827,2.527c.842,1.979.6,4.393,2.411,5.814.044,1.379-1.043,2.486-.277,3.78.16.27-.04.818-.185,1.2a11.176,11.176,0,0,0-.657,5.209,11.623,11.623,0,0,1-.1,4.026c-.73,2.724.311,5.077,1.119,7.509.327.986.725,1.95,1.019,2.945a2.355,2.355,0,0,1,.131,1.5c-.73,1.424-.316,2.838-.263,4.286a17.674,17.674,0,0,1-.367,4.324,5.286,5.286,0,0,0,.079,3.611,5.442,5.442,0,0,1-.179,5.1,7.408,7.408,0,0,0-.568,5.47,12.534,12.534,0,0,0,.983,2.9c.4.786-.035,1.976-.012,2.985a2.965,2.965,0,0,0,.4,1.168,7.273,7.273,0,0,1,.449,4.577,17.754,17.754,0,0,0-.223,3.407c.106,3.155-.11,6.214-2.122,8.753.99,1.509.994,1.509.935,2.641-.016.311-.08.62-.089.931-.11,3.983-.084,4,3.841,2.844l3.355,2.992.33-.125a9.3,9.3,0,0,1-.46-1.938c-.125-1.428.371-2.935-.344-4.3a4.976,4.976,0,0,1-.432-3.018c.176-1.652.242-3.318.3-4.98a40.033,40.033,0,0,0,.049-5.905c-.186-1.615-.989-3.155-.776-4.855-1.191-2.306-.08-4.215,1.053-6.122a7.043,7.043,0,0,0,.9-1.623,65.252,65.252,0,0,0,1.5-6.377C273.806,50.24,274.088,48.881,272.468,48.205Z"/><path class="cls-3" d="M244.5,95.664l-.512-.817a8.294,8.294,0,0,0,.682-3.869c.024-1.038-.151-2.065-.089-3.108a5.118,5.118,0,0,0-.261-1.474,1.87,1.87,0,0,1-.018-.845,7.476,7.476,0,0,0,.1-2.773c-.024-.14,0-.318-.079-.413A2.028,2.028,0,0,1,244,80.839c.058-1.105.047-2.213.082-3.32a1.132,1.132,0,0,1,1.174-1.244,1.339,1.339,0,0,1,.429.016,13.294,13.294,0,0,0,3.417.021c1-.011,2-.116,3-.18a1.176,1.176,0,0,1,.322-.017c1.46.338,2.93-.1,4.392.054a3.236,3.236,0,0,0,.538-.02c1.107-.069,2.214-.141,3.322-.209a1.4,1.4,0,0,1,.429.012,7.248,7.248,0,0,0,2.347-.025c.857-.05,1.711-.035,2.568-.036a19.348,19.348,0,0,0,3.629-.1,19.978,19.978,0,0,1,2.786-.082c1.537-.068,3.075.1,4.615-.038a6.669,6.669,0,0,1,1.7.166,3.843,3.843,0,0,0,1.8-.068,9.347,9.347,0,0,1,2.455-.083c1.072-.034,2.15-.01,3.213-.125a6.934,6.934,0,0,1,1.6.028,1.534,1.534,0,0,1,1.341,1.664,11.082,11.082,0,0,0,.049,2.568,2.6,2.6,0,0,1-.193,1.264.756.756,0,0,0,.112.808.888.888,0,0,1,.192.9.7.7,0,0,0-.057.315,4,4,0,0,1,.063,1.78,10.311,10.311,0,0,0,.1,1.8,2.512,2.512,0,0,0,.174,1.446.4.4,0,0,1-.013.315,3.255,3.255,0,0,0-.026,1.469,35.058,35.058,0,0,1,.179,4.169,20.583,20.583,0,0,0,.106,3.093c.019.429.034.859.064,1.288a8.455,8.455,0,0,0,.1.954,4.821,4.821,0,0,1-.008,2.342.573.573,0,0,0-.054.313c.361.978-.127,1.989.12,2.968-.175.654.168,1.256.186,1.893a17.668,17.668,0,0,0,.14,1.9,8.579,8.579,0,0,1-.077,1.711c-.014.213-.135.457-.066.63a2.9,2.9,0,0,1,.02,1.783,3.216,3.216,0,0,0,.009.964c.071.781.192,1.559.234,2.341.041.748,0,1.5.008,2.249.008.672.041,1.343.058,2.014a1.792,1.792,0,0,1-.02.529,3.818,3.818,0,0,0,.065,1.806c.08.419.107.848.18,1.269a1.247,1.247,0,0,1-.254,1.108.857.857,0,0,0-.131.712,8.855,8.855,0,0,1,.067,1.39,2.062,2.062,0,0,1-.272.615,2.24,2.24,0,0,1,.3,1.348.357.357,0,0,1-.487.272c-.16-.079-.3-.208-.461-.274a3.1,3.1,0,0,0-2.275-.36,2.338,2.338,0,0,1-.534.04,1.321,1.321,0,0,1-1.171-.4c-.207-.22-.235-.194-.725-.184-.043.411-.076.835-.135,1.255-.063.447-.216.576-.7.652l-1.131.173c-.772-.469-1.43-.888-2.108-1.271a1.134,1.134,0,0,0-.936-.113,3.923,3.923,0,0,1-2.518-.234,2.732,2.732,0,0,0-2.37.084,1.887,1.887,0,0,1-.936.151,4.61,4.61,0,0,1-2.774-.628.611.611,0,0,0-.388-.155c-.855.16-1.714-.088-2.6.044a1.971,1.971,0,0,1-1.67.753,1.321,1.321,0,0,1-.968-.372,1.651,1.651,0,0,0-1.636-.589,1.736,1.736,0,0,1-.636-.045,7.915,7.915,0,0,0-2.547-.1,6.437,6.437,0,0,1-1.381-.122,2.968,2.968,0,0,0-.634-.092c-.954.115-1.9.261-2.9.4-.164.418-.311.819-.478,1.211-.19.447-.343.528-.838.454-.346-.052-.689-.123-1.084-.195l.253-.726c-.056-.041-.118-.121-.16-.112a2.688,2.688,0,0,1-1.559-.315,1.307,1.307,0,0,0-1.522.114c-.208-.13-.383-.247-.567-.349a.97.97,0,0,0-.92-.12,1.718,1.718,0,0,1-.416.087,3.833,3.833,0,0,1-2.414-.158,1.671,1.671,0,0,0-.739-.054c-.319.009-.637.05-.983.08l-.8-1.362a7.762,7.762,0,0,1,.363-.746.618.618,0,0,0,.028-.711c-.4-.426-.289-1.018-.578-1.487a2.561,2.561,0,0,1,.208-.363,1.409,1.409,0,0,0,.316-1.671,2.6,2.6,0,0,1-.157-.94,1.062,1.062,0,0,1,.095-.395c.034-.1.152-.22.124-.285-.248-.582.143-1,.33-1.485a3.015,3.015,0,0,0,.173-1.69,4.872,4.872,0,0,1,.016-1.491,9.547,9.547,0,0,0,.044-2.885,4.445,4.445,0,0,1,.163-1.584,1.388,1.388,0,0,0-.012-.941.721.721,0,0,1,.04-.808.322.322,0,0,0-.02-.293,2.914,2.914,0,0,1-.386-1.94,6.732,6.732,0,0,0-.038-1.171c-.093-.816-.129-1.638-.2-2.458a2.641,2.641,0,0,0-.094-.636,4.353,4.353,0,0,1-.015-2.827,1,1,0,0,0,.067-.526A1.574,1.574,0,0,1,244.416,98a1.16,1.16,0,0,0,.095-.616C244.519,96.853,244.505,96.317,244.5,95.664Zm10.663,31.475a4.463,4.463,0,0,0-.664-.127.5.5,0,0,0-.367.158c-.065.082-.081.317-.023.363a1.731,1.731,0,0,0,1.361.428.432.432,0,0,0,.286-.268.453.453,0,0,0-.159-.342A1.768,1.768,0,0,0,255.161,127.139Z"/><path class="cls-3" d="M325.671,201.679c-.345.194-.859.38-.891.586-.017.112-.25.228-.546.333-.363.128-.643.257-.638.395,0,.112-.212.2-.741.294a9.939,9.939,0,0,0-3.009.83,3.088,3.088,0,0,1-.864.222,14.928,14.928,0,0,0-1.475.349c-.358.094-.646.194-.981.29a2.071,2.071,0,0,1-.357.069,15.872,15.872,0,0,0-2.149.384c-.15.036-.384.066-.582.1-.395.065-.732.14-1.2.193-1.308.147-2.267.343-3.513.5-.15.019-.336.033-.461.055a51.679,51.679,0,0,1-5.62.518c-1.747.092-3.641.122-5.276.259-.128.01-.3.023-.426.02-1.5-.04-2.715.076-3.987.154-.877.053-1.677.132-2.56.183-.812.046-1.512.111-2.2.186-.961.1-1.95.2-2.957.3-.411.039-.88.071-1.355.091a23.163,23.163,0,0,0-3.2.343,14.131,14.131,0,0,1-1.772.189c-.807.042-1.575.093-2.312.159a17.748,17.748,0,0,1-2.589.066c-.133-.008-.311-.008-.449,0-1.3.056-2.688.06-3.959.135-.274.016-.581.023-.877.028q-.9.018-1.8.029c-.2,0-.438.009-.593,0-.884-.069-1.88-.032-2.8-.065-.536-.02-1.087-.03-1.625-.049a3.976,3.976,0,0,1-.51-.039,22.987,22.987,0,0,0-4.212-.261c-.353,0-.709,0-1.062,0-1.2-.013-2.433-.013-3.608-.048-1.06-.031-2.118-.074-3.051-.172a29.984,29.984,0,0,0-4.589-.1c-.429.022-.853.045-1.276.069a15.349,15.349,0,0,1-2.183-.023c-1.142-.095-2.349-.166-3.656-.2a4.827,4.827,0,0,1-.88-.072A22.427,22.427,0,0,0,234,207.71c-.357-.025-.874,0-1.407,0a2.234,2.234,0,0,0-.953-.166,1.841,1.841,0,0,1-.72-.131,3.081,3.081,0,0,0-.793-.181c-.869-.139-1.554-.3-2.686-.406-.732-.186-2.24-.267-3.02-.449a5.322,5.322,0,0,0-.753-.062c-.732-.018-1.114-.095-1.136-.179-.043-.161-.736-.262-1.391-.37-.33-.054-.611-.112-.892-.171-.412-.087-1.039-.153-1.576-.227-.034,0-.09-.007-.138-.008-.7-.028-.876-.137-1.41-.189-.5-.048-1.143-.072-1.549-.131a2.387,2.387,0,0,1-1.082-.349,3.311,3.311,0,0,0-.717-.418,2.927,2.927,0,0,1-.6-.241c-.029-.029-.162-.061-.105-.084.292-.118,0-.225-.236-.335-.07-.032-.066-.074.013-.105.351-.141-.028-.249-.624-.358-1.022-.186-1.875-.389-2.72-.592-.213-.052-.27-.1-.31-.16a.912.912,0,0,0-.536-.487c-.209-.085-.175-.183-.206-.276s.012-.172-.358-.25c-.132-.027-.19-.067-.192-.1-.019-.236-.246-.469-.422-.7-.032-.042.027-.085.032-.128s.108-.1-.033-.127c-.565-.122-.316-.246-.222-.373.041-.055-.05-.115-.16-.17-.175-.086-.147-.168.023-.254.314-.159.558-.321.875-.479.16-.08.151-.156-.037-.233-.511-.21-.33-.427-.312-.642,0-.035.087-.071.189-.1.416-.131.856-.26,1.284-.39a6.17,6.17,0,0,1,1.808-.3,1.868,1.868,0,0,0,.655-.112c.263-.116.532-.229.574-.355.06-.175.479-.325,1.385-.463a12.33,12.33,0,0,0,2.209-.478,6.618,6.618,0,0,1,1.607-.277,15.738,15.738,0,0,0,1.711-.238c.617-.12.952-.263,1.733-.37a1.9,1.9,0,0,0,.686-.263c1.031-.078,1.35-.241,1.465-.422l-.411-.05a10.619,10.619,0,0,0,2.264-.418,6.464,6.464,0,0,1,1.1-.253c.747-.117,1.3-.253,1.993-.375.126-.022.194-.054.348-.07.445-.045.944-.08,1.377-.127s.759-.12,1.229-.154a6.359,6.359,0,0,0,1.305-.179h1.392a19.5,19.5,0,0,0,2-.071,21,21,0,0,1,2.645-.045c.769.026,1.48.029,2.233,0,.331-.013.7,0,1.055-.01.25,0,.554,0,.733-.02.676-.072,1.473-.089,2.251-.118a5.13,5.13,0,0,0,.627-.054,10.414,10.414,0,0,1,1.717-.112c.491,0,.991-.024,1.458-.047.909-.046,1.811-.079,2.793-.087.89-.006,1.766-.051,2.644-.081.342-.012.673-.03,1.012-.044,1.5-.06,3.012-.117,4.509-.181.543-.023,1.061-.04,1.632-.021.281.009.6.007.885,0a28.752,28.752,0,0,1,3.075.06c.419.035,1.014.026,1.429.061a27.1,27.1,0,0,0,2.907.043c.891-.02,1.806-.007,2.7-.042.416-.016.92-.008,1.348.008a22.676,22.676,0,0,0,3.165-.071,2.619,2.619,0,0,1,1.239.075c.1.158.727.234,1.675.3.845.06,1.587.153,2.309.242a21.885,21.885,0,0,0,2.347.128c.571.006,1.122.017,1.569.067a15.917,15.917,0,0,0,1.716.067q.531,0,1.063,0c.252,0,.53-.007.753,0,.652.036,1.26.094,1.929.117.628.022,1.322.01,1.871.072.628.07,1.392.089,2.127.1a26.642,26.642,0,0,1,2.943.19,20.248,20.248,0,0,0,2.384.17,23.453,23.453,0,0,1,3.535.26,6.776,6.776,0,0,0,1.186.077,21.915,21.915,0,0,1,2.873.21.5.5,0,0,1,.241.081c1.066.092,2.052.175,3.022.262a4.484,4.484,0,0,1,.531.077,8,8,0,0,0,1.652.208,1.165,1.165,0,0,1,.233.026,9.823,9.823,0,0,0,2.2.188c.618.135,1.376.253,1.409.423.007.034.134.07.275.1.261.053.246.1.137.163-.185.1-.135.2.239.292.2.053.228.125.218.188-.057.345,2.132.57,4.015.594.349,0,.7.008,1.062.012.519.1.722.209.7.326-.03.147.181.283.667.415a1.618,1.618,0,0,1,.545.268.947.947,0,0,1,.231.212c.031.035.1.075.021.106-.339.134-.174.271-.223.407-.039.1.159.2.615.281Z"/></g></svg>