<svg xmlns="http://www.w3.org/2000/svg" viewBox="0 0 952 157"><defs><style>.cls-1{fill:#f36;}.cls-2,.cls-3{fill:#ffeded;}.cls-2{opacity:0.75;}.cls-4{fill:#1858a8;}</style></defs><title>aaa</title><g id="solo_testo" data-name="solo testo"><path class="cls-1" d="M516.908,39.475a15.337,15.337,0,0,0,4.064,1.653,16.914,16.914,0,0,1,3.125.809,20.149,20.149,0,0,0,2.813.857,22.889,22.889,0,0,1,3.125.813,22.884,22.884,0,0,0,2.806.878c.538.142,1.054.369,1.579.558a24.686,24.686,0,0,0,3.714,1.253c1.335.255,2.651.607,3.971.931.408.1.8.244,1.2.377.531.178,1.05.394,1.589.541a50.529,50.529,0,0,0,4.971,1.475,3.636,3.636,0,0,1,.51.229c.26.089.53.148.794.228a4.158,4.158,0,0,1,.914.3,10.568,10.568,0,0,0,3.046,1.033,14.1,14.1,0,0,1,3.618,1.1,3.255,3.255,0,0,0,.813.217c.775.186,1.557.346,2.325.557a13.482,13.482,0,0,1,3.153,1.1,6.221,6.221,0,0,0,2.41.689,4.725,4.725,0,0,1,.813.145,9.281,9.281,0,0,0,2.918.869c.424-.008.84.411,1.287.51,2.14.473,4.217,1.163,6.312,1.79.313.094.622.2.93.312a10.855,10.855,0,0,0,1.45.508,9.2,9.2,0,0,1,2.746,1.031,3.029,3.029,0,0,0,1.054.3,21.141,21.141,0,0,1,3.689.809,27.073,27.073,0,0,0,2.813.854c1.23.3,2.465.578,3.7.873.215.052.426.121.638.188.244-1.091.572-2.164.8-3.258a2.746,2.746,0,0,1,.38-.747,11.4,11.4,0,0,0,.9-2.2,7.112,7.112,0,0,1-.819-.294,42.845,42.845,0,0,0-4.144-1.287,20.838,20.838,0,0,1-3.366-1.289,2.755,2.755,0,0,0-.748-.381,30.245,30.245,0,0,0-5.494-1.108,4.138,4.138,0,0,1-1.334-.375,18.37,18.37,0,0,0-3.42-1.233,8.109,8.109,0,0,1-2.76-1c-1.03-.6-2.244-.532-3.332-.922a.417.417,0,0,0-.139.008,5.452,5.452,0,0,1-2.572-.588,12.95,12.95,0,0,0-2.47-.973,14.506,14.506,0,0,0-3.383-.838,1.172,1.172,0,0,1-.4-.113c-.61-.233-1.234-.437-1.823-.715a13.4,13.4,0,0,0-4.129-1.235,7.037,7.037,0,0,1-1.339-.4c-.53-.177-1.051-.384-1.584-.552a7.69,7.69,0,0,1-1.35-.376,12.5,12.5,0,0,0-2.663-.866,12.632,12.632,0,0,1-1.315-.471,8.34,8.34,0,0,0-2.068-.821,7.167,7.167,0,0,1-2.394-.71,9.288,9.288,0,0,0-3.234-.887,7.325,7.325,0,0,1-2.64-.814,6,6,0,0,0-2.572-.606,6.409,6.409,0,0,1-2.714-.626c-.377-.179-.786-.293-1.18-.436l-1.314-.477c-1.053-.381-2.1-.789-3.162-1.133a15.77,15.77,0,0,0-2.052-.485,16.05,16.05,0,0,0-2.15-.584,6.85,6.85,0,0,1-1.966-.685c-.391-.152-.762-.355-1.153-.507a1.566,1.566,0,0,0-2.155.888c-.611,1.2-.709,2.591-1.464,3.728-.026.2-.055.4-.078.6C516.954,38.821,516.936,39.137,516.908,39.475Z"/><path class="cls-1" d="M729.832,106.763a2.719,2.719,0,0,0,.049-.766,1.642,1.642,0,0,1,.7-1.749,2.286,2.286,0,0,0,.749-2.1A14.462,14.462,0,0,1,731.7,99.1a4.5,4.5,0,0,0,.18-1.061,2.887,2.887,0,0,1,.809-2.676c.432-1.584,1.374-2.985,1.65-4.63a13.829,13.829,0,0,1,1.283-4.421,2.649,2.649,0,0,0,.181-1.033,3.018,3.018,0,0,1,.473-1.607,3.233,3.233,0,0,0,.526-2.192c-.015-.255-.02-.511-.03-.83a3.448,3.448,0,0,0,1.063-1.267,4.756,4.756,0,0,1-1-1.014c-.215-.277-.473-.52-.684-.747a12,12,0,0,1-4.043.015,2.758,2.758,0,0,1-1.218-.591,5.866,5.866,0,0,0-3.861-1.658c-1.009-.088-2.024-.159-3.02-.333-1.723-.3-3.432-.68-5.147-1.021a1.354,1.354,0,0,1-1.123-.706,1.37,1.37,0,0,0-1.288-.7,6.589,6.589,0,0,0-.769.015,3.6,3.6,0,0,1-2.323-.672c-.885-.659-2.034-.673-2.98-1.191a1.647,1.647,0,0,1-1.538-.492.591.591,0,0,0-.437-.079,3.846,3.846,0,0,1-1.763-.428c-1.319-.445-2.5-1.446-4.044-1.073-.082.02-.189-.066-.285-.1-1.446-.524-2.992-.673-4.424-1.294a33.373,33.373,0,0,0-3.522-1.079,2.713,2.713,0,0,1-.691-.336,4.722,4.722,0,0,0-3.22-.833c-.272-.347-.518-.663-.7-.892a8.146,8.146,0,0,1-1.619-.226c-1.347-.487-2.664-1.056-4-1.583a2.215,2.215,0,0,0-1.652-.117,1.213,1.213,0,0,1-.738.041c-.779-.249-1.537-.562-2.311-.828a2.424,2.424,0,0,0-1.035-.233,2.552,2.552,0,0,1-1.605-.441A8.386,8.386,0,0,0,674.311,60c-.759-.141-1.516-.291-2.267-.465a2.24,2.24,0,0,1-.994-.366,2.205,2.205,0,0,0-1.393-.481c-.91-.115-1.8-.386-2.7-.592-.608-.763-1.519-.791-2.361-1a2.65,2.65,0,0,1-1-.366,6.176,6.176,0,0,0-3.565-1.187c-1.226-.08-2.273-.961-3.56-.8-.12.015-.292-.117-.387-.227a2.794,2.794,0,0,0-2.121-.768c-1.347-.085-2.564-.688-3.883-.865a.671.671,0,0,1-.4-.214,3.225,3.225,0,0,0-2.083-.884,6.573,6.573,0,0,1-2.619-.856,2.909,2.909,0,0,0-2.38-.834c-.131.029-.293-.077-.439-.127-.823-.279-1.664-.517-2.464-.852s-1.743-.176-2.4-.859c-.055-.057-.2-.047-.3-.031a3.15,3.15,0,0,1-1.91-.461,1.37,1.37,0,0,0-1.033-.113,1.709,1.709,0,0,1-1.858-.347,7.985,7.985,0,0,0-3-1.128c-1.823-.323-3.636-.7-5.447-1.093a2.214,2.214,0,0,1-1.1-.471,5.218,5.218,0,0,0-1.977-.964,2.664,2.664,0,0,0-.186.81,2.521,2.521,0,0,1-.081,1.129c-.185-.061-.4.032-.657.4a.741.741,0,0,1-.384.259c-.53.209-1.11.746-1.57.489-.038-.021-.1,0-.151.051-.472.46-.85.274-1.274.41a2.379,2.379,0,0,0-.52.124,1.087,1.087,0,0,1-.874.123.506.506,0,0,0-.5.034c-.742.6-1.414.423-2.169,1.177a.372.372,0,0,1-.431.062c-.425-.192-.906.06-1.416.437a3.529,3.529,0,0,1-1.981.837,1.49,1.49,0,0,0-1.289.554c-.138.155-.3.143-.451.179a4.3,4.3,0,0,0-1.269.3c-.859.475-1.617.178-2.514.988-.515-.118-1.1.332-1.67.7a.532.532,0,0,1-.367.064,3.681,3.681,0,0,0-2.167.568,1.168,1.168,0,0,1-.874.129.794.794,0,0,0-.565.013c-.875.451-1.76,1.008-2.63,1.421-.5.238-1.055.637-1.42.13-.059-.083-.259.012-.361.154a6.87,6.87,0,0,0-.688,1.138c-.262.567-.461,1.209-.71,1.8a12.048,12.048,0,0,0-.773,3.522c.085.074.132.156.2.166.387.057.607.444.789.97.217.625.515,1.124.766,1.7a2.622,2.622,0,0,1,.318.943,3.125,3.125,0,0,0,.554,1.567c.4.667.817,1.305,1.242,1.922a2.358,2.358,0,0,1,.393,1.514,1.172,1.172,0,0,0,.295.948,1.155,1.155,0,0,1,.355.718,2.819,2.819,0,0,0,.527,1.322,4.251,4.251,0,0,1,.528,1.751,1.564,1.564,0,0,0,.294.8,6.47,6.47,0,0,1,1.37,2.591,3.332,3.332,0,0,0,.354.734,2.1,2.1,0,0,1,.273.711,7.687,7.687,0,0,0,.8,2.494c.26.61.545,1.179.817,1.769a.517.517,0,0,1,.091.282,1.054,1.054,0,0,0,.3.924c.344.553.679,1.124,1.014,1.7a3.941,3.941,0,0,1,.236.492,12.562,12.562,0,0,0,.658,1.573,2,2,0,0,1,.252,1.511c-.086.582.056.887.313,1.012.228.111.43.3.651.436.342.205.658.532,1.048.544a1.661,1.661,0,0,1,1.181.341c.117.109.244.016.341-.181a1.324,1.324,0,0,0,.3.129,54.032,54.032,0,0,1,5.593,2.119.507.507,0,0,1,.309.742,6.265,6.265,0,0,0-.816.406.444.444,0,0,0-.116.41.942.942,0,0,0,.385.424.66.66,0,0,0,.448-.011,5.556,5.556,0,0,1,1.76-.488,5.383,5.383,0,0,1,1.641.773,7.058,7.058,0,0,1,3.411,2.758c.359-.987,1.137-.915,1.84-1.055a2.291,2.291,0,0,1,2.018.517,3.744,3.744,0,0,0,1.747.884,1.08,1.08,0,0,1,.631.4,2.817,2.817,0,0,0,1.628,1.055c-.06.3-.106.532-.165.823a10.978,10.978,0,0,0,1.419.269,11.528,11.528,0,0,0,1.218-.117,2.515,2.515,0,0,1,.743.08c1.246.322,2.428.344,3.326-.689a12.2,12.2,0,0,1,4.983,1.7,4.015,4.015,0,0,0,1,.374c1.088.266,2.258.3,3.108,1.194a.33.33,0,0,0,.142.057,17.5,17.5,0,0,1,3.394.971,10.453,10.453,0,0,1,3.52.951,6.029,6.029,0,0,0,2.242.436,7,7,0,0,1,2.7.529c1.083.385,2.125,1.075,3.377.709a.827.827,0,0,1,.449.058,5.7,5.7,0,0,1,1.859.682c.559.461,1.274.4,1.777.778a6.4,6.4,0,0,0,3.8,1.083,9.963,9.963,0,0,1,3.66.991,2.08,2.08,0,0,0,.568.228,2.954,2.954,0,0,1,2.132,1.308c.319-.011.575-.015.83-.03a3.23,3.23,0,0,1,2.192.526,3.022,3.022,0,0,0,1.607.472,2.677,2.677,0,0,1,1.034.182,13.873,13.873,0,0,0,4.421,1.283c1.645.275,3.045,1.217,4.63,1.649a2.884,2.884,0,0,0,2.675.809,4.508,4.508,0,0,1,1.062.18,14.388,14.388,0,0,0,3.05.374,2.285,2.285,0,0,1,2.1.75,1.645,1.645,0,0,0,1.75.7,2.75,2.75,0,0,1,.765.048,46.008,46.008,0,0,1,5.919,1.652c.443.126.868.331,1.317.411a12.5,12.5,0,0,1,3.876,1.453,7.283,7.283,0,0,0,1.875.672c1.693.41,3.473.465,5.077,1.244a.745.745,0,0,0,.448.069c.808-.166,1.36.326,1.958.723a3.7,3.7,0,0,0,1.047.6c.853.214,1.7.423,2.544.686q.066-.273.133-.546a3.7,3.7,0,0,1,.6-1.047c.4-.6.889-1.149.722-1.957a.764.764,0,0,1,.069-.449c.779-1.6.834-3.384,1.245-5.076a7.27,7.27,0,0,1,.672-1.875A12.529,12.529,0,0,0,727.77,114c.08-.449.285-.875.411-1.318A46.152,46.152,0,0,0,729.832,106.763Z"/><path class="cls-1" d="M373.324,117.713a2.143,2.143,0,0,0,.035-.692,4.379,4.379,0,0,1-.026-.908,4.332,4.332,0,0,0-.247-1.559c-.046-.145-.086-.291-.124-.437,0-.2-.01-.408-.018-.611a5.08,5.08,0,0,1-.012-.717,12.642,12.642,0,0,0,.016-1.946c-.007-.17-.014-.339-.019-.508a14.116,14.116,0,0,1,.008-2.147,4.789,4.789,0,0,0-.008-.717q-.051-1.386-.1-2.771a12.012,12.012,0,0,1,.009-1.839,2.872,2.872,0,0,0,.012-.337c0-.226-.022-.459-.025-.686-.012-.887-.128-1.77-.055-2.663a1.8,1.8,0,0,0-.091-.578,2.025,2.025,0,0,1-.056-1.081,2.422,2.422,0,0,0,.015-.99,4.845,4.845,0,0,1,0-.807c0-.076,0-.15,0-.227-.29.248-.564.514-.873.746a6.85,6.85,0,0,0-1.485,1.586,3.215,3.215,0,0,1-1.545,1.3,2.406,2.406,0,0,0-.666.38,18.251,18.251,0,0,1-3.128,2.247c-.113.059-.261.117-.314.217-.532.988-1.579,1.433-2.316,2.21a26.986,26.986,0,0,1-2.419,2.1c-.461.382-.959.72-1.439,1.082a20.944,20.944,0,0,0-2.533,1.965c-.758.782-1.739,1.405-2.107,2.54a1.859,1.859,0,0,1-.634.794,3.384,3.384,0,0,0-.993.987.578.578,0,0,1-.409.277c-.481,0-.637.366-.872.669a1.715,1.715,0,0,1-.2.2.775.775,0,0,1-.668.254c-.493-.073-.783.236-1.119.519-1.146.967-2.317,1.9-3.473,2.859-.265.219-.517.455-.763.7a3.747,3.747,0,0,1-1.878,1.3.808.808,0,0,0-.331.191c-.7.572-1.38,1.159-2.083,1.722a11.675,11.675,0,0,0-2.437,2.431,3.314,3.314,0,0,1-1.738,1.283c-.107.035-.2.1-.3.149a22.241,22.241,0,0,1-.6,5.486,42.937,42.937,0,0,0-1.442,13.448,14.559,14.559,0,0,1,5.546-3,10.2,10.2,0,0,0,3.6-1.947c4.481-3.518,8.658-7.391,13.729-10.181,2.186-1.2,3.592-3.748,5.67-5.241,2.225-1.6,4.881-2.581,7.248-4,1.2-.719,2.381-1.467,3.561-2.218A3.993,3.993,0,0,1,373.324,117.713Z"/><path class="cls-2" d="M332.633,146.133c.423.086.843.186,1.271.242,0-.28.006-.559-.015-.837-.01-.139,0-.276-.01-.415-.235.188-.473.367-.706.562C332.994,145.835,332.813,145.983,332.633,146.133Z"/><path class="cls-1" d="M335.321,131.675a22.241,22.241,0,0,0,.6-5.486,4.383,4.383,0,0,0-1.5,1.06,5.443,5.443,0,0,1-1.572,1.322,1.038,1.038,0,0,0-.39.333,6.5,6.5,0,0,1-.643.739,13.693,13.693,0,0,0-1.658-.152,2.256,2.256,0,0,1-.631-.119,10.846,10.846,0,0,0-3.45-.369,17.641,17.641,0,0,1-1.789-.141c-.3-.026-.6-.081-.9-.084-.166,0-.33-.032-.5-.039-.288-.127-.575-.251-.864-.378,0-.082-.007-.168-.017-.252-.084-.684-.425-.969-.993-.776-.406.137-.782.358-1.176.532a2.351,2.351,0,0,1-.357.1l-.952-.33c-.266.14-.482.279-.716.375a9.123,9.123,0,0,1-1.241.375,2.265,2.265,0,0,0-.292-.08,18.315,18.315,0,0,1-3.8-.622.71.71,0,0,0-.375-.07c-1.076.323-2.131-.1-3.2-.075a19.475,19.475,0,0,1-2.525-.157c-.223-.024-.447-.047-.67-.068-.6-.056-1.188-.169-1.784-.253-.74-.1-1.481-.234-2.222-.318a4.405,4.405,0,0,1-.8-.824c-.147-.2-.326-.378-.5-.576-.046.011-.092.017-.139.028a5.34,5.34,0,0,1-2.824.017.605.605,0,0,0-.258,0c-.719.111-1.447.186-2.153.354a3.235,3.235,0,0,1-1.529.041,1.478,1.478,0,0,0-1.236.122,1.2,1.2,0,0,1-.73.092c-.571-.072-1.14-.16-1.71-.245-.4-.061-.81-.121-1.217-.174a5.551,5.551,0,0,1-2.726-.946,1.465,1.465,0,0,0-1.2-.319,6.534,6.534,0,0,1-2.046-.079,1.838,1.838,0,0,0-.751.028,2.7,2.7,0,0,1-1.883.085,1.977,1.977,0,0,0-.641-.017,28.5,28.5,0,0,0-3.6.233c-.176.018-.347.046-.522.065-.083-.035-.169-.039-.252-.081a4.235,4.235,0,0,0-2.131-.421,5.448,5.448,0,0,1-2.046-.178,1.045,1.045,0,0,0-.511-.04,13.4,13.4,0,0,1-3.677-.042,3.44,3.44,0,0,1-.024,1.022,3.873,3.873,0,0,0-.051.813c.029.645-.143,1.257-.095,1.927.009.118.008.239.006.36-.008.478-.081.979-.122,1.465-.034.406-.1.807-.129,1.213-.089,1.128-.066,2.248-.047,3.37,0,.132,0,.264,0,.4a10.8,10.8,0,0,1-.134,1.722,9.8,9.8,0,0,0-.088,1.937,5.876,5.876,0,0,1-.075,1.41,8.725,8.725,0,0,0-.124,1.42c-.025.9-.057,1.8-.136,2.7a1.934,1.934,0,0,0,.448.059c.743-.025,1.48-.071,2.22-.107a1.945,1.945,0,0,1,.305,0c.574.058,1.153.1,1.718.187a4.587,4.587,0,0,0,1.11.028,9.867,9.867,0,0,1,2.237.051,7.7,7.7,0,0,0,1.018.074,17.11,17.11,0,0,1,3.243.3c.327.062.671.093,1,.157a4.365,4.365,0,0,0,1.89,0,2.734,2.734,0,0,1,1.572.069,2.421,2.421,0,0,0,.981.074,11.209,11.209,0,0,1,2.216-.036,1.018,1.018,0,0,0,.3,0,8.748,8.748,0,0,1,1.628-.03c.753.013,1.512.066,2.257.045a15.873,15.873,0,0,0,2.23.083.415.415,0,0,1,.2.02,2.185,2.185,0,0,0,1.165.108,3.543,3.543,0,0,1,.6.051,4.884,4.884,0,0,0,.806.055,2.421,2.421,0,0,1,.986.076,2.022,2.022,0,0,0,1.083.013,1.776,1.776,0,0,1,.582-.056c.888.128,1.776.068,2.662.111.227.011.461.007.686.018a2.6,2.6,0,0,1,.336.034,12.14,12.14,0,0,0,1.835.122c.924.024,1.848.045,2.772.069a4.913,4.913,0,0,1,.715.036,14.08,14.08,0,0,0,2.143.142c.169.006.339.009.508.012a12.749,12.749,0,0,1,1.942.138,5.086,5.086,0,0,0,.716.033c.2.005.407.012.611.019.148-.029.3-.06.444-.095a4.305,4.305,0,0,1,1.572-.15,4.43,4.43,0,0,0,.907.03,2.155,2.155,0,0,1,.688.078,3.686,3.686,0,0,0,1.595.1,1.468,1.468,0,0,1,.788.053,3.729,3.729,0,0,0,1.679.13,6.756,6.756,0,0,1,2.407.134,1.96,1.96,0,0,0,.588.018c.539-.029,1.074-.072,1.612-.1.4-.022.811-.026,1.213-.051a1.267,1.267,0,0,1,.675.084.97.97,0,0,0,.662.1,3.934,3.934,0,0,1,1.173-.093,1.056,1.056,0,0,1,.98-.325c.056.007.112.022.169.03,1.061.161,2.1.411,3.153.624.18-.15.361-.3.54-.448.233-.195.471-.374.706-.562A42.937,42.937,0,0,1,335.321,131.675Z"/><path class="cls-3" d="M372.7,93.745a3.39,3.39,0,0,1-.05-.81l-.038-.033a14.108,14.108,0,0,0-2.31-.154,17.1,17.1,0,0,1-1.789-.141c-.3-.026-.6-.081-.9-.084a16.658,16.658,0,0,1-2.181-.17,6.867,6.867,0,0,0-2.173.071,3.21,3.21,0,0,1-2.011-.174,2.409,2.409,0,0,0-.739-.2,18.313,18.313,0,0,1-3.8-.622.732.732,0,0,0-.375-.07c-1.075.323-2.13-.1-3.2-.075a26.8,26.8,0,0,1-3.194-.224c-.6-.057-1.189-.17-1.783-.253a20.869,20.869,0,0,0-3.181-.4c-1.088.018-2.223-.236-3.285.307a1.885,1.885,0,0,1-1.01.113c-.119-.014-.237-.024-.354-.038a2.483,2.483,0,0,0-1.046.034.577.577,0,0,1-.485-.094c-.342-.339-.71-.192-1.09-.143a.921.921,0,0,1-.936-.3c-.3-.4-.72-.387-1.157-.424-.882-.075-1.762-.167-2.643-.256-.611-.062-1.223-.12-1.835-.178-.342-.033-.687-.043-1.031-.048a3.751,3.751,0,0,1-2.245-.409.8.8,0,0,0-.371-.1c-.9-.089-1.795-.157-2.69-.255a11.644,11.644,0,0,0-3.442-.005,3.311,3.311,0,0,1-2.136-.321,4.244,4.244,0,0,0-2.131-.421,5.446,5.446,0,0,1-2.046-.178,1.043,1.043,0,0,0-.511-.039c-1.585.3-3.149-.085-4.722-.112a5.471,5.471,0,0,1-1.514-.2c-.342.133-.681.268-1.024.4-.062-.054-.124-.114-.191-.167-.543-.423-.985-.384-1.251.155-.189.383-.3.806-.455,1.207a2.384,2.384,0,0,1-.183.322l-.907.44c-.088.287-.143.538-.241.771a14.781,14.781,0,0,1-1.808,2.944c-.476.656-.861,1.4-1.765,1.587-.113.023-.2.151-.3.233a12.255,12.255,0,0,1-2.475,1.61,6.49,6.49,0,0,0-2.074,1.5c-.427.483-.913.913-1.368,1.371a4.021,4.021,0,0,1-3.64,1.229c-.024,0-.049,0-.072-.006-.224-.027-.451-.033-.688-.049-.02.032-.045.058-.065.09a5.384,5.384,0,0,1-2,2.038.6.6,0,0,0-.185.179c-.43.587-.892,1.155-1.272,1.773a3.222,3.222,0,0,1-1.053,1.11,1.478,1.478,0,0,0-.786.959,1.2,1.2,0,0,1-.452.582c-.778.6-1.584,1.173-2.366,1.773a5.557,5.557,0,0,1-2.6,1.26,1.47,1.47,0,0,0-1.078.625,6.551,6.551,0,0,1-1.5,1.391,1.81,1.81,0,0,0-.511.551,2.7,2.7,0,0,1-1.272,1.39c-.184.08-.309.293-.465.442a28.494,28.494,0,0,0-2.379,2.709,6.78,6.78,0,0,0-1.376,2.154,1.617,1.617,0,0,1-1.113,1.152,1.832,1.832,0,0,0-1.2,1.09c-.039.092-.1.184-.143.275a8.268,8.268,0,0,0-.948-.023c-.1.006-.2,0-.292,0,0,.065.016.126.014.189a1.352,1.352,0,0,1-.059.28,2.42,2.42,0,0,0-1.018.919c.3.009.6.035.893.06a13.4,13.4,0,0,0,3.677.042,1.045,1.045,0,0,1,.511.04,5.448,5.448,0,0,0,2.046.178,4.235,4.235,0,0,1,2.131.421c.083.042.169.046.252.081.175-.019.346-.047.522-.065a28.5,28.5,0,0,1,3.6-.233,1.977,1.977,0,0,1,.641.017,2.7,2.7,0,0,0,1.883-.085,1.838,1.838,0,0,1,.751-.028,6.534,6.534,0,0,0,2.046.079,1.465,1.465,0,0,1,1.2.319,5.551,5.551,0,0,0,2.726.946c.407.053.812.113,1.217.174.57.085,1.139.173,1.71.245a1.2,1.2,0,0,0,.73-.092,1.478,1.478,0,0,1,1.236-.122,3.235,3.235,0,0,0,1.529-.041c.706-.168,1.434-.243,2.153-.354a.605.605,0,0,1,.258,0,5.34,5.34,0,0,0,2.824-.017c.047-.011.093-.017.139-.028.173.2.352.375.5.576a4.405,4.405,0,0,0,.8.824c.741.084,1.482.215,2.222.318.6.084,1.186.2,1.784.253.223.021.447.044.67.068a19.475,19.475,0,0,0,2.525.157c1.07-.028,2.125.4,3.2.075a.71.71,0,0,1,.375.07,18.315,18.315,0,0,0,3.8.622,2.265,2.265,0,0,1,.292.08,9.123,9.123,0,0,0,1.241-.375c.234-.1.45-.235.716-.375l.952.33a2.351,2.351,0,0,0,.357-.1c.394-.174.77-.395,1.176-.532.568-.193.909.092.993.776.01.084.012.17.017.252.289.127.576.251.864.378.166.007.33.037.5.039.3,0,.6.058.9.084a17.641,17.641,0,0,0,1.789.141,10.846,10.846,0,0,1,3.45.369,2.256,2.256,0,0,0,.631.119,13.693,13.693,0,0,1,1.658.152,6.5,6.5,0,0,0,.643-.739,1.038,1.038,0,0,1,.39-.333,5.443,5.443,0,0,0,1.572-1.322,4.383,4.383,0,0,1,1.5-1.06c.1-.044.192-.114.3-.149a3.314,3.314,0,0,0,1.738-1.283,11.675,11.675,0,0,1,2.437-2.431c.7-.563,1.387-1.15,2.083-1.722a.808.808,0,0,1,.331-.191,3.747,3.747,0,0,0,1.878-1.3c.246-.24.5-.476.763-.7,1.156-.955,2.327-1.892,3.473-2.859.336-.283.626-.592,1.119-.519a.775.775,0,0,0,.668-.254,1.715,1.715,0,0,0,.2-.2c.235-.3.391-.666.872-.669a.578.578,0,0,0,.409-.277,3.384,3.384,0,0,1,.993-.987,1.859,1.859,0,0,0,.634-.794c.368-1.135,1.349-1.758,2.107-2.54a20.944,20.944,0,0,1,2.533-1.965c.48-.362.978-.7,1.439-1.082a26.986,26.986,0,0,0,2.419-2.1c.737-.777,1.784-1.222,2.316-2.21.053-.1.2-.158.314-.217a18.251,18.251,0,0,0,3.128-2.247,2.406,2.406,0,0,1,.666-.38,3.215,3.215,0,0,0,1.545-1.3,6.85,6.85,0,0,1,1.485-1.586c.309-.232.583-.5.873-.746a1.745,1.745,0,0,0,.009-.38,2.176,2.176,0,0,1,.035-1.168A.456.456,0,0,0,372.7,93.745Z"/><path class="cls-1" d="M341.564,108.307a2.156,2.156,0,0,0-.316.777.837.837,0,0,1-.194.441.9.9,0,0,0-.226.524.451.451,0,0,1-.263.39,2.645,2.645,0,0,0-1.067,1.1.748.748,0,0,1-.307.295,3.154,3.154,0,0,0-.523.463c-.127.125-.229.257-.348.385a.35.35,0,0,1-.126.091,2.534,2.534,0,0,0-.762.509,1.414,1.414,0,0,1-.207.131,2.937,2.937,0,0,1-.425.256c-.464.2-.8.456-1.245.662a1.391,1.391,0,0,0-.164.073,5.767,5.767,0,0,1-1.993.687,19.015,19.015,0,0,0-1.871.343.428.428,0,0,1-.152.027,4.172,4.172,0,0,0-1.414.2c-.311.071-.6.176-.908.243a4.589,4.589,0,0,0-.779.247c-.341.139-.692.271-1.049.4a2.583,2.583,0,0,1-.481.12,2.755,2.755,0,0,0-1.136.456,1.693,1.693,0,0,1-.629.251,6.3,6.3,0,0,0-.82.21,1.74,1.74,0,0,1-.918.087.471.471,0,0,0-.159,0c-.461.075-.953.079-1.4.179a2.36,2.36,0,0,1-.311.038c-.212.015-.425.027-.639.038a.764.764,0,0,1-.21,0,6.787,6.787,0,0,0-.993-.087c-.19-.026-.385-.04-.576-.064a.433.433,0,0,1-.181-.052,2.42,2.42,0,0,0-1.494-.346c-.125,0-.251,0-.376-.007-.428-.018-.863-.017-1.28-.063a4.29,4.29,0,0,1-1.082-.229,2.932,2.932,0,0,0-1.628-.132c-.152.028-.3.06-.452.092a1.5,1.5,0,0,1-.775-.031,6.277,6.277,0,0,0-1.3-.263.53.53,0,0,1-.312-.1,2.526,2.526,0,0,0-1.021-.343,2.453,2.453,0,0,0-.5,0c-.036-.1-.13-.179-.338-.22a.327.327,0,0,1-.255-.175c-.04-.1-.161-.166-.282-.239a4.608,4.608,0,0,0-.952-.538c-.26-.248-.8-.355-1.071-.6a.569.569,0,0,0-.267-.083c-.26-.024-.395-.125-.4-.236-.015-.215-.261-.349-.494-.492a3.236,3.236,0,0,1-.316-.227,3.793,3.793,0,0,0-.559-.3.207.207,0,0,0-.049-.012c-.249-.037-.31-.181-.5-.25a4.74,4.74,0,0,1-.549-.174.819.819,0,0,1-.384-.463,2.865,2.865,0,0,0-.254-.554,1.275,1.275,0,0,1-.215-.32c-.01-.037-.057-.08-.037-.111.1-.157,0-.3-.084-.444a.133.133,0,0,1,0-.14c.124-.186-.01-.33-.222-.474a8.954,8.954,0,0,1-.964-.786.324.324,0,0,1-.11-.211,1.585,1.585,0,0,0-.19-.646.744.744,0,0,1-.073-.367c-.011-.114,0-.228-.127-.331a.176.176,0,0,1-.069-.135,5.361,5.361,0,0,0-.149-.933.8.8,0,0,1,.011-.169c0-.058.038-.129-.012-.17-.2-.161-.112-.325-.078-.494a.359.359,0,0,0-.057-.225.333.333,0,0,1,.008-.337c.112-.211.2-.425.311-.636a.282.282,0,0,0-.013-.308,1.349,1.349,0,0,1-.111-.852.236.236,0,0,1,.067-.136c.148-.173.3-.344.455-.516a.99.99,0,0,1,.641-.4.314.314,0,0,0,.233-.148,1.156,1.156,0,0,0,.2-.471.813.813,0,0,1,.492-.614,2.376,2.376,0,0,0,.783-.634,1.058,1.058,0,0,1,.57-.367,2.126,2.126,0,0,0,.607-.316,4.288,4.288,0,0,1,.614-.491c.137-.07.151-.207.244-.348a.641.641,0,0,0,.519-.56l-.145-.066a1.8,1.8,0,0,0,.8-.554,1.307,1.307,0,0,1,.391-.336c.265-.156.461-.336.706-.5.045-.03.069-.072.124-.093.158-.06.335-.106.488-.169a3.865,3.865,0,0,1,.436-.2.86.86,0,0,0,.463-.237h.494a1.922,1.922,0,0,0,.708-.1,2.05,2.05,0,0,1,.938-.059,2.8,2.8,0,0,0,.792,0c.117-.018.25-.007.374-.014a.974.974,0,0,0,.26-.026,3.473,3.473,0,0,1,.8-.156.58.58,0,0,0,.223-.072,1.091,1.091,0,0,1,.609-.149,3.261,3.261,0,0,0,.517-.062,6.178,6.178,0,0,1,.991-.115c.315-.009.626-.068.937-.108.122-.015.239-.04.359-.058.533-.08,1.068-.156,1.6-.24a2.033,2.033,0,0,1,.579-.029,1.433,1.433,0,0,0,.314,0,2.761,2.761,0,0,1,1.091.08c.148.045.359.034.507.08a2.615,2.615,0,0,0,1.031.058c.315-.027.64-.01.958-.057a1.786,1.786,0,0,1,.478.012,2.216,2.216,0,0,0,1.122-.094c.2-.076.418-.028.44.1.036.21.258.311.594.4a4.88,4.88,0,0,1,.819.321,2.207,2.207,0,0,0,.832.169,1.66,1.66,0,0,1,.557.089,1.529,1.529,0,0,0,.608.088h.377a1.462,1.462,0,0,1,.267.007c.232.047.447.124.685.155a2.666,2.666,0,0,1,.663.095,2.391,2.391,0,0,0,.755.135,2.754,2.754,0,0,1,1.043.253,2.138,2.138,0,0,0,.846.224,2.544,2.544,0,0,1,1.254.345.707.707,0,0,0,.42.1,2.34,2.34,0,0,1,1.019.278c.061.024.069.086.085.108.379.122.728.233,1.072.348a.615.615,0,0,1,.189.1,1.029,1.029,0,0,0,.586.276.142.142,0,0,1,.082.035c.14.188.463.218.78.249.219.179.488.335.5.561,0,.045.048.093.1.131a.15.15,0,0,1,.049.217.3.3,0,0,0,.085.387.309.309,0,0,1,.077.249c-.02.458.756.756,1.424.788l.377.016a.49.49,0,0,1,.247.432.715.715,0,0,0,.237.551,1.041,1.041,0,0,1,.193.355,1.59,1.59,0,0,1,.082.282c.011.046.036.1.008.14-.12.177-.062.36-.079.54a.4.4,0,0,0,.218.373Z"/><path class="cls-3" d="M341.564,103.107a2.156,2.156,0,0,0-.316.777.837.837,0,0,1-.194.441.9.9,0,0,0-.226.524.451.451,0,0,1-.263.39,2.645,2.645,0,0,0-1.067,1.1.748.748,0,0,1-.307.3,3.154,3.154,0,0,0-.523.463c-.127.125-.229.257-.348.385a.35.35,0,0,1-.126.091,2.534,2.534,0,0,0-.762.509,1.414,1.414,0,0,1-.207.131,2.937,2.937,0,0,1-.425.256c-.464.2-.8.456-1.245.662a1.391,1.391,0,0,0-.164.073,5.767,5.767,0,0,1-1.993.687,19.015,19.015,0,0,0-1.871.343.428.428,0,0,1-.152.027,4.172,4.172,0,0,0-1.414.2c-.311.071-.6.176-.908.243a4.589,4.589,0,0,0-.779.247c-.341.139-.692.271-1.049.4a2.583,2.583,0,0,1-.481.12,2.755,2.755,0,0,0-1.136.456,1.693,1.693,0,0,1-.629.251,6.3,6.3,0,0,0-.82.21,1.74,1.74,0,0,1-.918.087.471.471,0,0,0-.159,0c-.461.075-.953.079-1.4.179a2.36,2.36,0,0,1-.311.038c-.212.015-.425.027-.639.038a.764.764,0,0,1-.21,0,6.787,6.787,0,0,0-.993-.087c-.19-.026-.385-.04-.576-.064a.433.433,0,0,1-.181-.052,2.42,2.42,0,0,0-1.494-.346c-.125,0-.251,0-.376-.007-.428-.018-.863-.017-1.28-.063a4.29,4.29,0,0,1-1.082-.229,2.932,2.932,0,0,0-1.628-.132c-.152.028-.3.06-.452.092a1.5,1.5,0,0,1-.775-.031,6.277,6.277,0,0,0-1.3-.263.53.53,0,0,1-.312-.1,2.526,2.526,0,0,0-1.021-.343,2.453,2.453,0,0,0-.5,0c-.036-.1-.13-.179-.338-.22a.327.327,0,0,1-.255-.175c-.04-.1-.161-.166-.282-.239a4.608,4.608,0,0,0-.952-.538c-.26-.248-.8-.355-1.071-.6a.569.569,0,0,0-.267-.083c-.26-.024-.395-.125-.4-.236-.015-.215-.261-.349-.494-.492a3.236,3.236,0,0,1-.316-.227,3.793,3.793,0,0,0-.559-.3.207.207,0,0,0-.049-.012c-.249-.037-.31-.181-.5-.25a4.74,4.74,0,0,1-.549-.174.819.819,0,0,1-.384-.463,2.865,2.865,0,0,0-.254-.554,1.275,1.275,0,0,1-.215-.32c-.01-.037-.057-.08-.037-.111.1-.157,0-.3-.084-.444a.133.133,0,0,1,0-.14c.124-.186-.01-.33-.222-.474a8.954,8.954,0,0,1-.964-.786.324.324,0,0,1-.11-.211,1.585,1.585,0,0,0-.19-.646.744.744,0,0,1-.073-.367c-.011-.114,0-.228-.127-.331a.176.176,0,0,1-.069-.135,5.361,5.361,0,0,0-.149-.933.8.8,0,0,1,.011-.169c0-.058.038-.129-.012-.17-.2-.161-.112-.325-.078-.494a.359.359,0,0,0-.057-.225.333.333,0,0,1,.008-.337c.112-.211.2-.425.311-.636a.282.282,0,0,0-.013-.308,1.349,1.349,0,0,1-.111-.852.236.236,0,0,1,.067-.136c.148-.173.3-.344.455-.516a.99.99,0,0,1,.641-.4.314.314,0,0,0,.233-.148,1.156,1.156,0,0,0,.2-.471.813.813,0,0,1,.492-.614,2.376,2.376,0,0,0,.783-.634,1.058,1.058,0,0,1,.57-.367,2.126,2.126,0,0,0,.607-.316,4.288,4.288,0,0,1,.614-.491c.137-.07.151-.207.244-.348a.641.641,0,0,0,.519-.56l-.145-.066a1.8,1.8,0,0,0,.8-.554,1.307,1.307,0,0,1,.391-.336c.265-.156.461-.336.706-.5.045-.03.069-.072.124-.093.158-.06.335-.106.488-.169a3.865,3.865,0,0,1,.436-.2.86.86,0,0,0,.463-.237h.494a1.922,1.922,0,0,0,.708-.1,2.05,2.05,0,0,1,.938-.059,2.8,2.8,0,0,0,.792,0c.117-.018.25-.007.374-.014a.974.974,0,0,0,.26-.026,3.473,3.473,0,0,1,.8-.156.58.58,0,0,0,.223-.072,1.091,1.091,0,0,1,.609-.149,3.261,3.261,0,0,0,.517-.062,6.178,6.178,0,0,1,.991-.115c.315-.009.626-.068.937-.108.122-.015.239-.04.359-.058.533-.08,1.068-.156,1.6-.24a2.033,2.033,0,0,1,.579-.029,1.433,1.433,0,0,0,.314,0,2.761,2.761,0,0,1,1.091.08c.148.045.359.034.507.08a2.615,2.615,0,0,0,1.031.058c.315-.027.64-.01.958-.057a1.786,1.786,0,0,1,.478.012,2.216,2.216,0,0,0,1.122-.094c.2-.076.418-.028.44.1.036.21.258.311.594.4a4.88,4.88,0,0,1,.819.321,2.207,2.207,0,0,0,.832.169,1.66,1.66,0,0,1,.557.089,1.529,1.529,0,0,0,.608.088h.377a1.462,1.462,0,0,1,.267.007c.232.047.447.124.685.155a2.666,2.666,0,0,1,.663.095,2.391,2.391,0,0,0,.755.135,2.754,2.754,0,0,1,1.043.253,2.138,2.138,0,0,0,.846.224,2.544,2.544,0,0,1,1.254.345.707.707,0,0,0,.42.1,2.34,2.34,0,0,1,1.019.278c.061.024.069.086.085.108.379.122.728.233,1.072.348a.615.615,0,0,1,.189.1,1.029,1.029,0,0,0,.586.276.142.142,0,0,1,.082.035c.14.188.463.218.78.249.219.179.488.335.5.561,0,.045.048.093.1.131a.15.15,0,0,1,.049.217.3.3,0,0,0,.085.387.309.309,0,0,1,.077.249c-.02.458.756.756,1.424.788l.377.016a.49.49,0,0,1,.247.432.715.715,0,0,0,.237.551,1.041,1.041,0,0,1,.193.355,1.59,1.59,0,0,1,.082.282c.011.046.036.1.008.14-.12.177-.062.36-.079.54a.4.4,0,0,0,.218.373Z"/><path class="cls-4" d="M154.07,8.468v17.68h-3.692l-5.928-15h-.26l.13,15h-2.211V8.468H145.8l5.954,15h.234l-.13-15Z"/><path class="cls-4" d="M158.489,19.154c0-4.758,2.73-7.592,6.578-7.592,4.056,0,6.422,2.782,6.422,7.41s-2.729,7.462-6.578,7.462C160.856,26.434,158.489,23.652,158.489,19.154Zm10.634-.052c0-3.406-1.273-5.434-4.107-5.434-2.861,0-4.16,2.08-4.16,5.356s1.273,5.3,4.107,5.3C167.823,24.328,169.123,22.248,169.123,19.1Z"/><path class="cls-4" d="M187.662,16.294v9.854h-2.34V16.632c0-2.106-.858-2.964-2.6-2.964a7.166,7.166,0,0,0-4.16,1.352V26.148h-2.34v-14.3H178.2v1.586a7.081,7.081,0,0,1,4.811-1.872C186.31,11.562,187.662,13.252,187.662,16.294Z"/><path class="cls-4" d="M194.967,19.024c0,3.64,1.534,5.278,4.551,5.278a9.368,9.368,0,0,0,4.731-1.222l.624,1.95a10.594,10.594,0,0,1-5.408,1.378c-4.238,0-6.864-2.392-6.864-7.254s2.99-7.566,6.734-7.566c4.265,0,6.162,2.652,5.591,7.28h-9.959ZM195.149,17h7.541c-.052-2.392-1.17-3.38-3.51-3.38A3.813,3.813,0,0,0,195.149,17Z"/><path class="cls-3" d="M651.638,75.111A50.836,50.836,0,0,0,644,86.085l-2.838-1.407a56.8,56.8,0,0,1,5.176-8.34,70.3,70.3,0,0,0-7.856,3.833c-.478.97-.949,1.835-1.468,2.766l-2.906-1.455c1.619-2.721,3.212-5.178,5.176-7.879-2.707,1.179-5.268,2.321-7.53,3.55-.769,1.319-1.5,2.43-2.355,3.751l-2.738-1.65c2.157-3.266,4.259-6.523,6.983-11.249l3.015,1.542A39.066,39.066,0,0,1,634,73.884c2.4-1.325,5.1-2.479,7.884-3.743l2.289,2.438c-1.228,1.589-2.236,2.891-3.271,4.185,2.446-1.393,5.233-2.657,8.35-4.122Z"/><path class="cls-3" d="M666.248,78.695a167.945,167.945,0,0,0-11.926,15.862l-2.667-1.709c1.543-2.473,4.387-6.133,7.106-9.641a47.25,47.25,0,0,1-8.323,4.4l-2.455-1.972c2.728-4.183,5.3-7.949,7.309-11.614l3.033,1.575c-1.466,2.576-3.318,5.445-5.449,8.529a43.117,43.117,0,0,0,10.754-7.4Z"/><path class="cls-3" d="M682.378,83.651l-11.736,9.9L669,92.331l-1.611-1.153c1.672-4.007,3.325-8.046,4.724-11.862l3.4,1.438c-1.129,2.811-2.67,6.1-3.979,8.964l8.845-8.1Z"/><path class="cls-3" d="M692.047,90.656a47.283,47.283,0,0,0-5.52,7.669l-2.657-1.463a29.36,29.36,0,0,1,2.471-3.96,40.737,40.737,0,0,1-6.211,3.126c-.471-.518-.988-.97-1.856-1.8a12.588,12.588,0,0,1,.545-2.578c1.216-4.114,5.736-8.309,13.1-7.461l-.165,3.124c-5.778-.624-8.96,2.341-10.117,5.984,2.467-1.2,6.157-3.223,8.473-4.545Z"/><path class="cls-3" d="M706.516,90.322a39.385,39.385,0,0,0-4.908,7.064L698.9,96.015a39.48,39.48,0,0,1,2.3-3.659c-2.138,1.456-4.468,3.289-6.544,4.9-.461.732-.978,1.473-1.469,2.223l-2.772-1.632c1.9-3.019,4.215-6.373,6.807-11.111l2.985,1.641a33.287,33.287,0,0,1-3.018,4.8,60.691,60.691,0,0,1,7.4-5.134Z"/></g></svg>