<svg id="Layer_1" data-name="Layer 1" xmlns="http://www.w3.org/2000/svg" xmlns:xlink="http://www.w3.org/1999/xlink" viewBox="0 0 296 296"><defs><style>.cls-1{fill:none;}.cls-2{clip-path:url(#clip-path);}.cls-3{fill:#404040;}.cls-4{fill:#bfbfbf;}</style><clipPath id="clip-path"><rect class="cls-1" width="296" height="296"/></clipPath></defs><title>pattern_oval</title><g class="cls-2"><circle class="cls-3" cx="29.6" cy="266.4" r="4.44"/><circle class="cls-4" cx="59.2" cy="266.4" r="5.18"/><circle class="cls-3" cx="88.8" cy="266.4" r="5.92"/><circle class="cls-4" cx="118.4" cy="266.4" r="6.66"/><circle class="cls-3" cx="148" cy="266.4" r="7.4"/><circle class="cls-4" cx="177.6" cy="266.4" r="8.14"/><circle class="cls-3" cx="207.2" cy="266.4" r="8.88"/><circle class="cls-4" cx="236.8" cy="266.4" r="9.62"/><circle class="cls-3" cx="266.4" cy="266.4" r="10.36"/><circle class="cls-4" cx="266.4" cy="236.8" r="5.18"/><circle class="cls-3" cx="236.8" cy="236.8" r="5.92"/><circle class="cls-4" cx="207.2" cy="236.8" r="6.66"/><circle class="cls-3" cx="177.6" cy="236.8" r="7.4"/><circle class="cls-4" cx="148" cy="236.8" r="8.14"/><circle class="cls-3" cx="118.4" cy="236.8" r="8.88"/><circle class="cls-4" cx="88.8" cy="236.8" r="9.62"/><circle class="cls-3" cx="59.2" cy="236.8" r="10.36"/><circle class="cls-4" cx="29.6" cy="236.8" r="11.1"/><circle class="cls-3" cx="29.6" cy="207.2" r="5.18"/><circle class="cls-4" cx="59.2" cy="207.2" r="5.92"/><circle class="cls-3" cx="88.8" cy="207.2" r="6.66"/><circle class="cls-4" cx="118.4" cy="207.2" r="7.4"/><circle class="cls-3" cx="148" cy="207.2" r="8.14"/><circle class="cls-4" cx="177.6" cy="207.2" r="8.88"/><circle class="cls-3" cx="207.2" cy="207.2" r="9.62"/><circle class="cls-4" cx="236.8" cy="207.2" r="10.36"/><circle class="cls-3" cx="266.4" cy="207.2" r="11.1"/><circle class="cls-4" cx="266.4" cy="177.6" r="5.18"/><circle class="cls-3" cx="236.8" cy="177.6" r="5.92"/><circle class="cls-4" cx="207.2" cy="177.6" r="6.66"/><circle class="cls-3" cx="177.6" cy="177.6" r="7.4"/><circle class="cls-4" cx="148" cy="177.6" r="8.14"/><circle class="cls-3" cx="118.4" cy="177.6" r="8.88"/><circle class="cls-4" cx="88.8" cy="177.6" r="9.62"/><circle class="cls-3" cx="59.2" cy="177.6" r="10.36"/><circle class="cls-4" cx="29.6" cy="177.6" r="11.1"/><circle class="cls-3" cx="29.6" cy="148" r="5.18"/><circle class="cls-4" cx="59.2" cy="148" r="5.92"/><circle class="cls-3" cx="88.8" cy="148" r="6.66"/><circle class="cls-4" cx="118.4" cy="148" r="7.4"/><path class="cls-3" d="M153.756,153.756a8.14,8.14,0,1,0-11.512,0A8.14,8.14,0,0,0,153.756,153.756Z"/><circle class="cls-4" cx="177.6" cy="148" r="8.88"/><circle class="cls-3" cx="207.2" cy="148" r="9.62"/><circle class="cls-4" cx="236.8" cy="148" r="10.36"/><circle class="cls-3" cx="266.4" cy="148" r="11.1"/><circle class="cls-4" cx="266.4" cy="118.4" r="5.18"/><circle class="cls-3" cx="236.8" cy="118.4" r="5.92"/><circle class="cls-4" cx="207.2" cy="118.4" r="6.66"/><circle class="cls-3" cx="177.6" cy="118.4" r="7.4"/><circle class="cls-4" cx="148" cy="118.4" r="8.14"/><circle class="cls-3" cx="118.4" cy="118.4" r="8.88"/><circle class="cls-4" cx="88.8" cy="118.4" r="9.62"/><circle class="cls-3" cx="59.2" cy="118.4" r="10.36"/><circle class="cls-4" cx="29.6" cy="118.4" r="11.1"/><circle class="cls-3" cx="29.6" cy="88.8" r="5.18"/><circle class="cls-4" cx="59.2" cy="88.8" r="5.92"/><circle class="cls-3" cx="88.8" cy="88.8" r="6.66"/><circle class="cls-4" cx="118.4" cy="88.8" r="7.4"/><circle class="cls-3" cx="148" cy="88.8" r="8.14"/><circle class="cls-4" cx="177.6" cy="88.8" r="8.88"/><circle class="cls-3" cx="207.2" cy="88.8" r="9.62"/><circle class="cls-4" cx="236.8" cy="88.8" r="10.36"/><circle class="cls-3" cx="266.4" cy="88.8" r="11.1"/><circle class="cls-4" cx="266.4" cy="59.2" r="5.18"/><circle class="cls-3" cx="236.8" cy="59.2" r="5.92"/><circle class="cls-4" cx="207.2" cy="59.2" r="6.66"/><circle class="cls-3" cx="177.6" cy="59.2" r="7.4"/><circle class="cls-4" cx="148" cy="59.2" r="8.14"/><circle class="cls-3" cx="118.4" cy="59.2" r="8.88"/><circle class="cls-4" cx="88.8" cy="59.2" r="9.62"/><circle class="cls-3" cx="59.2" cy="59.2" r="10.36"/><circle class="cls-4" cx="29.6" cy="59.2" r="11.1"/><circle class="cls-3" cx="29.6" cy="29.6" r="5.18"/><circle class="cls-4" cx="59.2" cy="29.6" r="5.92"/><circle class="cls-3" cx="88.8" cy="29.6" r="6.66"/><circle class="cls-4" cx="118.4" cy="29.6" r="7.4"/><circle class="cls-3" cx="148" cy="29.6" r="8.14"/><circle class="cls-4" cx="177.6" cy="29.6" r="8.88"/><circle class="cls-3" cx="207.2" cy="29.6" r="9.62"/><circle class="cls-4" cx="236.8" cy="29.6" r="10.36"/><circle class="cls-3" cx="266.4" cy="29.6" r="11.1"/></g></svg>