<svg id="base" xmlns="http://www.w3.org/2000/svg" xmlns:xlink="http://www.w3.org/1999/xlink" viewBox="0 0 100 100"><defs><style>.cls-1{fill:#f36;}.cls-2{clip-path:url(#clip-path);}.cls-3{fill:#ffeded;}</style><clipPath id="clip-path"><path class="cls-1" d="M63.711,96.282a5.682,5.682,0,0,0,1.554-.383,11.617,11.617,0,0,1,2.721-.815,2.037,2.037,0,0,0,.875-.377,31.6,31.6,0,0,0,3.08-2.686,2.017,2.017,0,0,1,1.971-.788,1.009,1.009,0,0,0,.6-.071A2.923,2.923,0,0,1,76.4,90.71c.139.029.306-.1.465-.15a7.149,7.149,0,0,0,1.307-.682,18.823,18.823,0,0,1,2.308-.911,3.94,3.94,0,0,0,1.872-1.157,7.99,7.99,0,0,0,.577-1.37c.235-.478.838-.7.919-1.3a.28.28,0,0,1,.035-.12A9.175,9.175,0,0,1,85,83.552a10.2,10.2,0,0,0,.877-.863,3.412,3.412,0,0,1,1.96-1.426,1.065,1.065,0,0,0,.893-1.069A.99.99,0,0,1,89,79.529c.951-.78,1.246-2.077,2.23-2.821a11.649,11.649,0,0,1,2.019-2.515,2.343,2.343,0,0,1,.94-.79,1,1,0,0,0,.673-.692,1.192,1.192,0,0,1,.84-.908,3.088,3.088,0,0,1-.134-1.157c.3-.887.317-1.916,1.157-2.557a.928.928,0,0,0,.317-.778,9.024,9.024,0,0,1,.725-3.149,1.969,1.969,0,0,0-.111-1.807c-.184-.327-.366-.657-.537-.992a3.945,3.945,0,0,1,.059-3.838,6.258,6.258,0,0,0,.647-2.633A23.864,23.864,0,0,0,97.7,51.9c-.017-.292-.069-.582-.088-.874-.089-1.338-.194-2.679,1.019-3.653a.708.708,0,0,0,.167-.449c.047-.454.046-.914.1-1.368.087-.779-.233-1.567.063-2.344a.951.951,0,0,0-.049-.49c-.113-.485-.23-.971-.363-1.452a3.006,3.006,0,0,0-.262-.7c-.567-.984-.74-2.119-1.206-3.142a.614.614,0,0,1-.042-.368,2.342,2.342,0,0,0-.663-2.071,10.062,10.062,0,0,1-1.16-1.772,3.344,3.344,0,0,0-1.277-1.306,5.446,5.446,0,0,1-2.315-2.362,4.109,4.109,0,0,0-.667-1.04c-.658-.751-1.338-1.485-2.042-2.192a7.726,7.726,0,0,1-1.305-1.657c-.386-.684-.929-1.278-1.33-1.956-.582-.983-1.38-1.886-1.321-3.149a.6.6,0,0,0-.162-.333A26.329,26.329,0,0,1,82.735,15.1a10.385,10.385,0,0,0-3.581-4.2,3.177,3.177,0,0,1-.363-.336c-1.026-.9-2.251-1.535-3.239-2.493a8.038,8.038,0,0,0-1.235-.832,4.092,4.092,0,0,0-.628-.4,7.483,7.483,0,0,1-2.428-1.464,1.144,1.144,0,0,0-.432-.239c-.587-.2-1.188-.36-1.767-.58a11.837,11.837,0,0,1-2.157-.939,3.026,3.026,0,0,0-1.362-.537,11.325,11.325,0,0,1-5.072-1.824A2.448,2.448,0,0,0,58.712.868,5.93,5.93,0,0,1,56.386.651a5.555,5.555,0,0,0-1.961-.19,14.922,14.922,0,0,1-3.44-.278L33.709,2.521a2.33,2.33,0,0,1-1.535.721,7.734,7.734,0,0,1-2.348.131,1.381,1.381,0,0,0-.6.1,12.364,12.364,0,0,0-1.187.353,6.4,6.4,0,0,0-1.466.653,4.7,4.7,0,0,1-2.3.868,2.893,2.893,0,0,0-1.782.823c.017.3.035.591.048.881A3.562,3.562,0,0,1,19.6,10.8a2.205,2.205,0,0,0-1.048.324,2.154,2.154,0,0,1-1.637.421,1.028,1.028,0,0,0-.92.239,1.119,1.119,0,0,1-.531.3A4.707,4.707,0,0,0,13.2,13.566c-.036.752-.065,1.516-.831,1.948a.306.306,0,0,0-.123.211,2.314,2.314,0,0,1-1,1.514,1.517,1.517,0,0,0-.377.5c-.388.862-.753,1.734-1.16,2.679-.091.051-.355.106-.437.26-.42.789-1.064,1.506-.88,2.516a1.132,1.132,0,0,1-.31,1.032,4.151,4.151,0,0,0-1.092,3.1,3.421,3.421,0,0,1-.7,2.084,4.268,4.268,0,0,0-.759,2.559,3.4,3.4,0,0,1-.347,1.822,3.656,3.656,0,0,0-.2,1.588,14.152,14.152,0,0,1-.455,1.672,1.877,1.877,0,0,0,.054.621q.054.437.116.871A2.13,2.13,0,0,1,4.5,39.993a2.317,2.317,0,0,0-.211,1.339,3.24,3.24,0,0,1-.467,2.022A9.354,9.354,0,0,0,2.7,45.433a2.03,2.03,0,0,1-1.53,1.6A.606.606,0,0,0,.884,48.11a2.957,2.957,0,0,1,.755,2.539,2.247,2.247,0,0,0,.1,1.111,19.748,19.748,0,0,1,.542,2.182,3.391,3.391,0,0,1,.075,2.415c-.154.367-.039.849-.189,1.219a3.6,3.6,0,0,0,0,2.566,1.894,1.894,0,0,1,.095.726,2.574,2.574,0,0,0,.305,1.321C3.1,63.366,3.59,64.559,4.1,65.744c.115.267.257.524.362.8a12.467,12.467,0,0,1,.757,2.1,8.1,8.1,0,0,0,.8,2.222,4.232,4.232,0,0,1,.429,1.159,1.735,1.735,0,0,0,.834,1.32,1.008,1.008,0,0,1,.376.472,5.055,5.055,0,0,0,.923,1.754,1.272,1.272,0,0,1,.194.585,4.93,4.93,0,0,0,.176.857,3.529,3.529,0,0,1,.257,1.829,2.676,2.676,0,0,0,.549,2.132,2.613,2.613,0,0,1,.631,1.582c.048.368.1.736.154,1.14a2.061,2.061,0,0,1,1.164.932,7.9,7.9,0,0,0,1.014.889c.318.317.572.7.88,1.029.107.114.3.145.437.232.774.471,1.61.822,2.365,1.343a4.764,4.764,0,0,0,1.565.7,5.476,5.476,0,0,1,2.635,1.533c.073-.115.16-.25.238-.375a2.779,2.779,0,0,1,2.573.874c.638.132,1.231.086,1.576.36a14.762,14.762,0,0,0,2.3,1.135,4.965,4.965,0,0,1,1.552,1.217,3.051,3.051,0,0,0,1.756,1.1,8.291,8.291,0,0,1,2.976,1.44,3.991,3.991,0,0,0,2.794.778,7.782,7.782,0,0,1,2.092.2.905.905,0,0,1,.71.45,2.74,2.74,0,0,0,1.905,1.251c.787.251,1.572.512,2.363.752a1.506,1.506,0,0,0,.6.076,10.543,10.543,0,0,0,3.631-.752A2.124,2.124,0,0,1,49,98.655c.941.136,1.891.211,2.832.346a2.569,2.569,0,0,0,1.456-.178,2.625,2.625,0,0,1,.949-.262,2.934,2.934,0,0,0,2.1-.469c.158-.139.478-.1.724-.126a6.105,6.105,0,0,0,.733-.072c1.317-.326,2.623-.692,3.968-.89a1.1,1.1,0,0,0,.562-.236A2.558,2.558,0,0,1,63.711,96.282Z"/></clipPath></defs><title>bibliography</title><path class="cls-1" d="M63.711,96.282a5.682,5.682,0,0,0,1.554-.383,11.617,11.617,0,0,1,2.721-.815,2.037,2.037,0,0,0,.875-.377,31.6,31.6,0,0,0,3.08-2.686,2.017,2.017,0,0,1,1.971-.788,1.009,1.009,0,0,0,.6-.071A2.923,2.923,0,0,1,76.4,90.71c.139.029.306-.1.465-.15a7.149,7.149,0,0,0,1.307-.682,18.823,18.823,0,0,1,2.308-.911,3.94,3.94,0,0,0,1.872-1.157,7.99,7.99,0,0,0,.577-1.37c.235-.478.838-.7.919-1.3a.28.28,0,0,1,.035-.12A9.175,9.175,0,0,1,85,83.552a10.2,10.2,0,0,0,.877-.863,3.412,3.412,0,0,1,1.96-1.426,1.065,1.065,0,0,0,.893-1.069A.99.99,0,0,1,89,79.529c.951-.78,1.246-2.077,2.23-2.821a11.649,11.649,0,0,1,2.019-2.515,2.343,2.343,0,0,1,.94-.79,1,1,0,0,0,.673-.692,1.192,1.192,0,0,1,.84-.908,3.088,3.088,0,0,1-.134-1.157c.3-.887.317-1.916,1.157-2.557a.928.928,0,0,0,.317-.778,9.024,9.024,0,0,1,.725-3.149,1.969,1.969,0,0,0-.111-1.807c-.184-.327-.366-.657-.537-.992a3.945,3.945,0,0,1,.059-3.838,6.258,6.258,0,0,0,.647-2.633A23.864,23.864,0,0,0,97.7,51.9c-.017-.292-.069-.582-.088-.874-.089-1.338-.194-2.679,1.019-3.653a.708.708,0,0,0,.167-.449c.047-.454.046-.914.1-1.368.087-.779-.233-1.567.063-2.344a.951.951,0,0,0-.049-.49c-.113-.485-.23-.971-.363-1.452a3.006,3.006,0,0,0-.262-.7c-.567-.984-.74-2.119-1.206-3.142a.614.614,0,0,1-.042-.368,2.342,2.342,0,0,0-.663-2.071,10.062,10.062,0,0,1-1.16-1.772,3.344,3.344,0,0,0-1.277-1.306,5.446,5.446,0,0,1-2.315-2.362,4.109,4.109,0,0,0-.667-1.04c-.658-.751-1.338-1.485-2.042-2.192a7.726,7.726,0,0,1-1.305-1.657c-.386-.684-.929-1.278-1.33-1.956-.582-.983-1.38-1.886-1.321-3.149a.6.6,0,0,0-.162-.333A26.329,26.329,0,0,1,82.735,15.1a10.385,10.385,0,0,0-3.581-4.2,3.177,3.177,0,0,1-.363-.336c-1.026-.9-2.251-1.535-3.239-2.493a8.038,8.038,0,0,0-1.235-.832,4.092,4.092,0,0,0-.628-.4,7.483,7.483,0,0,1-2.428-1.464,1.144,1.144,0,0,0-.432-.239c-.587-.2-1.188-.36-1.767-.58a11.837,11.837,0,0,1-2.157-.939,3.026,3.026,0,0,0-1.362-.537,11.325,11.325,0,0,1-5.072-1.824A2.448,2.448,0,0,0,58.712.868,5.93,5.93,0,0,1,56.386.651a5.555,5.555,0,0,0-1.961-.19,14.922,14.922,0,0,1-3.44-.278L33.709,2.521a2.33,2.33,0,0,1-1.535.721,7.734,7.734,0,0,1-2.348.131,1.381,1.381,0,0,0-.6.1,12.364,12.364,0,0,0-1.187.353,6.4,6.4,0,0,0-1.466.653,4.7,4.7,0,0,1-2.3.868,2.893,2.893,0,0,0-1.782.823c.017.3.035.591.048.881A3.562,3.562,0,0,1,19.6,10.8a2.205,2.205,0,0,0-1.048.324,2.154,2.154,0,0,1-1.637.421,1.028,1.028,0,0,0-.92.239,1.119,1.119,0,0,1-.531.3A4.707,4.707,0,0,0,13.2,13.566c-.036.752-.065,1.516-.831,1.948a.306.306,0,0,0-.123.211,2.314,2.314,0,0,1-1,1.514,1.517,1.517,0,0,0-.377.5c-.388.862-.753,1.734-1.16,2.679-.091.051-.355.106-.437.26-.42.789-1.064,1.506-.88,2.516a1.132,1.132,0,0,1-.31,1.032,4.151,4.151,0,0,0-1.092,3.1,3.421,3.421,0,0,1-.7,2.084,4.268,4.268,0,0,0-.759,2.559,3.4,3.4,0,0,1-.347,1.822,3.656,3.656,0,0,0-.2,1.588,14.152,14.152,0,0,1-.455,1.672,1.877,1.877,0,0,0,.054.621q.054.437.116.871A2.13,2.13,0,0,1,4.5,39.993a2.317,2.317,0,0,0-.211,1.339,3.24,3.24,0,0,1-.467,2.022A9.354,9.354,0,0,0,2.7,45.433a2.03,2.03,0,0,1-1.53,1.6A.606.606,0,0,0,.884,48.11a2.957,2.957,0,0,1,.755,2.539,2.247,2.247,0,0,0,.1,1.111,19.748,19.748,0,0,1,.542,2.182,3.391,3.391,0,0,1,.075,2.415c-.154.367-.039.849-.189,1.219a3.6,3.6,0,0,0,0,2.566,1.894,1.894,0,0,1,.095.726,2.574,2.574,0,0,0,.305,1.321C3.1,63.366,3.59,64.559,4.1,65.744c.115.267.257.524.362.8a12.467,12.467,0,0,1,.757,2.1,8.1,8.1,0,0,0,.8,2.222,4.232,4.232,0,0,1,.429,1.159,1.735,1.735,0,0,0,.834,1.32,1.008,1.008,0,0,1,.376.472,5.055,5.055,0,0,0,.923,1.754,1.272,1.272,0,0,1,.194.585,4.93,4.93,0,0,0,.176.857,3.529,3.529,0,0,1,.257,1.829,2.676,2.676,0,0,0,.549,2.132,2.613,2.613,0,0,1,.631,1.582c.048.368.1.736.154,1.14a2.061,2.061,0,0,1,1.164.932,7.9,7.9,0,0,0,1.014.889c.318.317.572.7.88,1.029.107.114.3.145.437.232.774.471,1.61.822,2.365,1.343a4.764,4.764,0,0,0,1.565.7,5.476,5.476,0,0,1,2.635,1.533c.073-.115.16-.25.238-.375a2.779,2.779,0,0,1,2.573.874c.638.132,1.231.086,1.576.36a14.762,14.762,0,0,0,2.3,1.135,4.965,4.965,0,0,1,1.552,1.217,3.051,3.051,0,0,0,1.756,1.1,8.291,8.291,0,0,1,2.976,1.44,3.991,3.991,0,0,0,2.794.778,7.782,7.782,0,0,1,2.092.2.905.905,0,0,1,.71.45,2.74,2.74,0,0,0,1.905,1.251c.787.251,1.572.512,2.363.752a1.506,1.506,0,0,0,.6.076,10.543,10.543,0,0,0,3.631-.752A2.124,2.124,0,0,1,49,98.655c.941.136,1.891.211,2.832.346a2.569,2.569,0,0,0,1.456-.178,2.625,2.625,0,0,1,.949-.262,2.934,2.934,0,0,0,2.1-.469c.158-.139.478-.1.724-.126a6.105,6.105,0,0,0,.733-.072c1.317-.326,2.623-.692,3.968-.89a1.1,1.1,0,0,0,.562-.236A2.558,2.558,0,0,1,63.711,96.282Z"/><g class="cls-2"><path class="cls-3" d="M82.077,102.326c-.085-.14-.2-.326-.158-.454a2.268,2.268,0,0,0-.232-1.335,4.94,4.94,0,0,1-.2-1.353,1.544,1.544,0,0,0-.3-1.109,1.573,1.573,0,0,1-.323-1.583,2.1,2.1,0,0,0-.216-1.717,4.044,4.044,0,0,0-.56-.84c-.2-.221-.137-.611-.221-.921a.963.963,0,0,0-.228-.338,2.169,2.169,0,0,1-.5-1.387,4.958,4.958,0,0,0-.18-1.062,3.633,3.633,0,0,1,.014-2.681h.013l-.007-.013c.02-.04.034-.08.057-.12-.137-.123-.226-.206-.3-.275-.065-.1-.127-.2-.188-.293-.014-.053-.026-.113-.041-.195-.018-.1-.019-.2-.04-.292a6.322,6.322,0,0,0-.172-.7c-.047,0-.1.006-.146.01a1.136,1.136,0,0,0-.259-.458,1.528,1.528,0,0,1-.405-.9c-.079-.517-.2-1.032-.318-1.546a11.716,11.716,0,0,0-.483-1.814,6.064,6.064,0,0,1-.679-1.442c-.607-.635-.385-1.288-.154-1.942a1.925,1.925,0,0,0,.173-.553,17.939,17.939,0,0,0-.02-2.048c-.032-.357-.049-.791-.666-.9a.821.821,0,0,1-.457-.419c-.368-.723-.711-1.455-1.035-2.193a.637.637,0,0,1,.025-.475,1.27,1.27,0,0,0-.14-1.223,1.1,1.1,0,0,1-.161-.47,1.674,1.674,0,0,0-.4-.9,3.273,3.273,0,0,1-.654-1.665,5.9,5.9,0,0,0-.509-1.81,4.323,4.323,0,0,1-.4-1.62,6.663,6.663,0,0,0-.57-2.575,9.006,9.006,0,0,1-.8-3.348.69.69,0,0,0-.11-.467c-.521-.511-.382-1.187-.682-1.755a1.346,1.346,0,0,1-.005-.766,3.878,3.878,0,0,1,.183-.623,4.529,4.529,0,0,1-.922-2.04.978.978,0,0,0-.16-.469,5.348,5.348,0,0,1-.694-1.553,6.509,6.509,0,0,0-.489-1.407,2.46,2.46,0,0,1-.356-1.4,1.01,1.01,0,0,0-.086-.285c-.18-.569-.363-1.137-.537-1.706a.645.645,0,0,1-.047-.382c.208-.493-.067-.877-.361-1.277a1.171,1.171,0,0,1-.22-.54c-.044-.419-.008-.841-.061-1.259a7.453,7.453,0,0,0-1.021-3.2c-.089-.139-.212-.316-.182-.447a2.2,2.2,0,0,0-.358-1.418c-.139-.3-.358-.607-.251-.941a2.692,2.692,0,0,0-.082-1.163c-.06-.551-.163-1.1-.27-1.649a2.223,2.223,0,0,0-.275-.937,1.585,1.585,0,0,1-.334-1.216,2.823,2.823,0,0,0-.232-1.433,1.39,1.39,0,0,1,.11-1.575.62.62,0,0,0,.072-.826c-.458-.556-.579-1.311-1.325-1.636a.9.9,0,0,1-.035-.243c-.009-.333.112-.651-.189-.933-.079-.073-.056-.254-.037-.378a3.15,3.15,0,0,0-.215-1.639,3.349,3.349,0,0,1-.306-1.241,3.848,3.848,0,0,0-1.022-2.235c-.2-.282-.415-.554-.6-.841-.09-.139-.207-.322-.172-.451A2.285,2.285,0,0,0,58.7,15.7a5.021,5.021,0,0,1-.239-1.349,1.551,1.551,0,0,0-.333-1.1,1.585,1.585,0,0,1-.371-1.577,2.1,2.1,0,0,0-.266-1.712,4.137,4.137,0,0,0-.585-.829c-.2-.217-.156-.608-.249-.916a.986.986,0,0,0-.238-.334,2.187,2.187,0,0,1-.543-1.377,5.059,5.059,0,0,0-.212-1.059,3.518,3.518,0,0,1-.008-2.814c-.469-.4-.471-.4-.546-.753-.021-.1-.025-.195-.049-.291A6.567,6.567,0,0,0,54.87.9c-.128.015-.256.03-.39.033a7.866,7.866,0,0,0-2.038.368c-.081.023-.165.044-.248.066A2.544,2.544,0,0,1,52.484.1c-.471-.4-.472-.4-.547-.753-.021-.1-.025-.195-.049-.291a6.332,6.332,0,0,0-.192-.7c-.128.015-.256.03-.39.033a7.866,7.866,0,0,0-2.038.368,5.854,5.854,0,0,1-1.826.278c-.057,0-.111,0-.166,0l-.146,0c-.252,0-.5.012-.744.035a.187.187,0,0,0,.007.022,7.368,7.368,0,0,0,.72,1.339A1.919,1.919,0,0,1,47.6,1.806a.954.954,0,0,0,.3.819.746.746,0,0,1,.16.993.561.561,0,0,0,0,.546,1.571,1.571,0,0,1,.281,1.309.865.865,0,0,0,.086.4,6.277,6.277,0,0,0-1.671-.083,6.323,6.323,0,0,1-1.585,0,6.7,6.7,0,0,0-2.945.376c-.385.1-.76.22-1.149.312a1.274,1.274,0,0,1-.587.049,4.328,4.328,0,0,0-1.689-.04,9.6,9.6,0,0,1-1.7-.069,2.854,2.854,0,0,0-1.42.052,2.9,2.9,0,0,1-2.009-.009,3.965,3.965,0,0,0-2.158-.117,6.3,6.3,0,0,0-1.131.3,4.365,4.365,0,0,1-1.175.021,1.484,1.484,0,0,0-.456.123,3.906,3.906,0,0,1-1.8.164,9.692,9.692,0,0,0-1.342-.035c-.264.011-.525.015-.784.014a3.35,3.35,0,0,1-.067-.43,5.19,5.19,0,0,0-.212-1.059,3.514,3.514,0,0,1-.008-2.814c-.47-.4-.471-.4-.547-.753-.02-.1-.025-.195-.048-.291a6.567,6.567,0,0,0-.192-.7c-.129.015-.257.03-.39.033A7.873,7.873,0,0,0,21.32,1.3c-.08.023-.165.044-.248.066A2.555,2.555,0,0,1,21.362.1c-.47-.4-.471-.4-.547-.753-.02-.1-.024-.195-.048-.291a6.819,6.819,0,0,0-.192-.7c-.129.015-.257.03-.39.033a7.866,7.866,0,0,0-2.038.368,5.861,5.861,0,0,1-1.827.278c-.056,0-.11,0-.166,0l-.146,0c-.252,0-.5.012-.744.035l.007.022A7.435,7.435,0,0,0,15.992.427a1.919,1.919,0,0,1,.487,1.379.954.954,0,0,0,.3.819.747.747,0,0,1,.16.993.564.564,0,0,0,0,.546,1.568,1.568,0,0,1,.282,1.309,1.031,1.031,0,0,0,.106.46c.043.122.2.263.17.35-.253.664.243,1.2.443,1.783a1.844,1.844,0,0,1,.18.755,3.907,3.907,0,0,0,.226,1.641c.27.887.58,1.77.772,2.667a9.592,9.592,0,0,0,.9,2.538,2.511,2.511,0,0,1,.305,1.142,3.8,3.8,0,0,0,.6,1.783c.192-.386-.149-.8.223-1.05.566.317.662.36.581.617a2.12,2.12,0,0,0,.235,1.335c.015.046-.039.106-.062.16a1.269,1.269,0,0,0-.827.215c.25.764.506,1.542.761,2.319.013.041.026.081.04.121.093.284.209.565.272.853.133.609.257,1.218.4,1.827.329,1.378.527,2.773.962,4.139a19.315,19.315,0,0,0,1.231,3.578,1.4,1.4,0,0,1,.25.746,6.06,6.06,0,0,0,.445,2.3,20.568,20.568,0,0,0,1.006,3.427,2.545,2.545,0,0,1,.152.674,4.329,4.329,0,0,0,.977,2.181,1.992,1.992,0,0,1,.44,1.872,2.261,2.261,0,0,0,.207,1.774c.084.187.2.35.143.554a1.41,1.41,0,0,0,.351,1.208,2.609,2.609,0,0,1,.39.7,13.873,13.873,0,0,0,.638,1.567,3.535,3.535,0,0,1,.329,1.534c0,.293.02.587.019.879a2.418,2.418,0,0,0,.837,1.857.738.738,0,0,0-.08.844,5.03,5.03,0,0,1,.5,1.613,8.835,8.835,0,0,0,.6,2.492.865.865,0,0,1,.045.388,2.156,2.156,0,0,0,1.159,2.054,8.427,8.427,0,0,0,.448,3.97,1.177,1.177,0,0,0,.825.981.894.894,0,0,1,.428.432,1.763,1.763,0,0,1,.37,1.31c-.034.122.1.3.187.437a2.466,2.466,0,0,1,.207,2.529.931.931,0,0,0-.041.841,4.6,4.6,0,0,0,.542.978,3.441,3.441,0,0,1,.814,2.017,3.719,3.719,0,0,0,.249.952c.138.376.317.742.482,1.111a6.777,6.777,0,0,1,.59,3.541c-.04.376.194.766,0,1.147-.031.061.07.177.109.268.09.211.185.421.268.634a7.762,7.762,0,0,1,.286,1.941c.008.064.017.129.025.193-.034,0-.07,0-.1,0a.2.2,0,0,0,.007.023c.043.109.095.216.142.325v.006h0a6.327,6.327,0,0,0,.535,1.021,1.9,1.9,0,0,1,.446,1.388.938.938,0,0,0,.272.824.744.744,0,0,1,.13,1,.565.565,0,0,0-.015.546A1.56,1.56,0,0,1,40.59,91.1a1.037,1.037,0,0,0,.092.462c.04.123.2.267.16.353-.272.659.207,1.2.39,1.791a1.841,1.841,0,0,1,.157.758,3.885,3.885,0,0,0,.177,1.645c.243.892.527,1.78.691,2.681a9.75,9.75,0,0,0,.681,2.232l2.427.023c.02.095.049.188.067.283a9.775,9.775,0,0,0,.679,2.232q2.618.021,5.234.05c-.081-.117-.162-.234-.235-.354-.086-.141-.2-.326-.159-.454a2.271,2.271,0,0,0-.232-1.336,5.006,5.006,0,0,1-.2-1.353A1.537,1.537,0,0,0,50.22,99a1.573,1.573,0,0,1-.323-1.583,2.1,2.1,0,0,0-.215-1.717,4.084,4.084,0,0,0-.56-.84c-.2-.22-.138-.611-.222-.92a.962.962,0,0,0-.228-.339,2.157,2.157,0,0,1-.5-1.386,5.115,5.115,0,0,0-.159-.969c1.346.029,2.691.078,4.043.016a35.639,35.639,0,0,0,4.635-.285,2.571,2.571,0,0,1,.965-.054,11.637,11.637,0,0,0,2.917.089,38.828,38.828,0,0,0,4.408-.137,4.828,4.828,0,0,1,.858.008,7.552,7.552,0,0,0,2.869-.351,3.677,3.677,0,0,1,2.386.011,3.466,3.466,0,0,0,.6.173c.059.1.146.2.118.268-.273.659.207,1.2.389,1.792a1.822,1.822,0,0,1,.158.757,3.87,3.87,0,0,0,.177,1.645c.243.892.527,1.781.691,2.682a9.778,9.778,0,0,0,.68,2.232q1.213.009,2.428.023c.02.094.049.188.066.283a9.706,9.706,0,0,0,.68,2.231q2.618.023,5.234.05C82.232,102.563,82.151,102.446,82.077,102.326Zm-23.8-17.74a1.332,1.332,0,0,1-.585.058,4.122,4.122,0,0,0-1.813.01,2.46,2.46,0,0,1-1.205.018,5.2,5.2,0,0,0-1.447-.156c-.689-.058-1.385-.082-2.079-.1a4.136,4.136,0,0,0-1.2.038,2.929,2.929,0,0,1-1.56.03,5.441,5.441,0,0,0-1.808-.09c-.062.005-.123.006-.184.01-.006-.031-.013-.06-.018-.092-.079-.517-.2-1.032-.319-1.546a11.5,11.5,0,0,0-.483-1.814,6.1,6.1,0,0,1-.679-1.442c-.607-.635-.384-1.288-.154-1.942a1.959,1.959,0,0,0,.174-.553,17.939,17.939,0,0,0-.021-2.048c-.031-.357-.049-.791-.666-.9a.823.823,0,0,1-.456-.419c-.369-.723-.711-1.455-1.035-2.193a.632.632,0,0,1,.025-.475,1.273,1.273,0,0,0-.141-1.223c-.028-.05-.051-.105-.074-.158,1.268.029,2.536.07,3.81.011a35.639,35.639,0,0,0,4.635-.285,2.571,2.571,0,0,1,.965-.054,11.639,11.639,0,0,0,2.917.089,38.828,38.828,0,0,0,4.408-.137,4.816,4.816,0,0,1,.857.008A7.555,7.555,0,0,0,63,68.879a3.677,3.677,0,0,1,2.386.011,3.56,3.56,0,0,0,1.457.232,2.489,2.489,0,0,1-.114,1.907.931.931,0,0,0-.04.841,4.6,4.6,0,0,0,.541.978,3.449,3.449,0,0,1,.815,2.017,3.719,3.719,0,0,0,.249.952c.137.376.316.742.481,1.111a6.767,6.767,0,0,1,.59,3.541c-.04.376.194.766,0,1.147-.031.061.07.177.109.268.09.211.186.421.268.634a4.141,4.141,0,0,1,.224,1.2c-.056,0-.114,0-.17,0a.18.18,0,0,0,.006.022c.063.156.135.311.2.466.007.081.013.162.022.243l0,.013a6.341,6.341,0,0,1-.678-.071,1.824,1.824,0,0,0-.367.013c-.734.032-1.468.068-2.2.1a1.226,1.226,0,0,1-.477-.035,2.258,2.258,0,0,0-1.64.04,2.1,2.1,0,0,1-.707.069c-.524-.045-1.037-.153-1.56-.19A13.788,13.788,0,0,0,58.272,84.586ZM28.807,13.069a1.048,1.048,0,0,0,.672.1,2.933,2.933,0,0,1,1.664.028,1.952,1.952,0,0,0,.587,0c.158-.01.362-.109.462-.067a4.732,4.732,0,0,0,2.278-.008,3.477,3.477,0,0,1,.962,0,7.541,7.541,0,0,0,2.062.134c1.143-.043,2.288-.118,3.429-.1a17.6,17.6,0,0,0,3.293-.223,4.718,4.718,0,0,1,1.463-.022,7,7,0,0,0,2.307-.129c-.439-.224-1.016-.036-1.249-.374.5-.383.569-.451.87-.338a4.041,4.041,0,0,0,1.687.069c.059,0,.123.051.184.079a.712.712,0,0,0,.108.69l.587-.031c.019.08.047.16.064.24a9.627,9.627,0,0,0,.9,2.538,2.486,2.486,0,0,1,.3,1.142,3.821,3.821,0,0,0,.6,1.783c.193-.386-.148-.8.223-1.05.566.317.663.36.581.617a2.127,2.127,0,0,0,.235,1.335c.015.046-.039.106-.061.16a1.273,1.273,0,0,0-.828.215l.761,2.319.04.121a8.7,8.7,0,0,1,.272.853c.133.609.258,1.218.4,1.827.066.275.124.551.182.827l-.078.011a1.183,1.183,0,0,1-.579-.11,2.383,2.383,0,0,0-1.533-.122,2.009,2.009,0,0,1-.608.036,2.946,2.946,0,0,0-1.184.146,5.879,5.879,0,0,1-2.172.2,11.1,11.1,0,0,0-2.324.055,8.234,8.234,0,0,1-2.069,0,12.7,12.7,0,0,0-3.276-.042,17.131,17.131,0,0,1-4.269-.014,1.316,1.316,0,0,0-.6,0,9.514,9.514,0,0,1-2.289.2,2.564,2.564,0,0,1-.945-.142,5.886,5.886,0,0,1-.693-.247,1.726,1.726,0,0,0-.8-.789.9.9,0,0,1-.036-.243c-.009-.333.113-.651-.189-.933-.078-.073-.055-.254-.037-.378a3.149,3.149,0,0,0-.214-1.639,3.349,3.349,0,0,1-.306-1.241,3.848,3.848,0,0,0-1.022-2.235c-.2-.282-.415-.554-.6-.841-.09-.139-.207-.322-.172-.451a2.285,2.285,0,0,0-.273-1.331,5.021,5.021,0,0,1-.239-1.349,1.546,1.546,0,0,0-.333-1.1c-.037-.043-.06-.089-.093-.133a1.766,1.766,0,0,0,.64-.114A1.337,1.337,0,0,1,28.807,13.069ZM35.219,44.51c.207-.493-.067-.877-.361-1.277a1.16,1.16,0,0,1-.22-.54c-.044-.419-.008-.841-.062-1.259a7.465,7.465,0,0,0-1.02-3.2c-.09-.139-.213-.316-.183-.447a2.2,2.2,0,0,0-.357-1.418c-.139-.3-.359-.607-.251-.941a2.707,2.707,0,0,0-.082-1.163c-.061-.551-.163-1.1-.27-1.649-.017-.085-.031-.172-.045-.261a7.582,7.582,0,0,1,1.029.085c.359.055.725.1,1.084.152a4.166,4.166,0,0,0,2.443-.3,1.322,1.322,0,0,0,1.024.222,9.441,9.441,0,0,1,2.079-.084,16.725,16.725,0,0,0,3.18,0,1.7,1.7,0,0,1,.487.038,3.449,3.449,0,0,0,2.747-.517,16.207,16.207,0,0,0,4.97.4,1.61,1.61,0,0,0,1.363-.46,1.132,1.132,0,0,1,.613-.253,3.246,3.246,0,0,1,1.682-.041.652.652,0,0,0,.307,0,7.844,7.844,0,0,0,.482,1.107,1.4,1.4,0,0,1,.25.746,6.078,6.078,0,0,0,.444,2.3,20.663,20.663,0,0,0,1.006,3.427,2.547,2.547,0,0,1,.153.674,4.321,4.321,0,0,0,.977,2.181,2,2,0,0,1,.444,1.848c-.1-.012-.193-.012-.29-.027-.36-.055-.725-.095-1.085-.152a4.176,4.176,0,0,0-2.443.3,1.322,1.322,0,0,0-1.024-.222,9.369,9.369,0,0,1-2.078.083,16.818,16.818,0,0,0-3.181,0,1.727,1.727,0,0,1-.486-.038,3.445,3.445,0,0,0-2.747.517,16.21,16.21,0,0,0-4.97-.4,1.609,1.609,0,0,0-1.363.46,1.143,1.143,0,0,1-.613.253,3.247,3.247,0,0,1-1.682.041,1.229,1.229,0,0,0-.573.064,4.62,4.62,0,0,1-1.333.124A.624.624,0,0,1,35.219,44.51Zm3.25,5.964a1.179,1.179,0,0,1,.579.11,2.39,2.39,0,0,0,1.533.122,1.984,1.984,0,0,1,.609-.036,2.929,2.929,0,0,0,1.184-.147,5.9,5.9,0,0,1,2.172-.2,11.089,11.089,0,0,0,2.323-.054,8.141,8.141,0,0,1,2.069,0,12.7,12.7,0,0,0,3.276.041,17.235,17.235,0,0,1,4.27.014,1.3,1.3,0,0,0,.6,0,9.464,9.464,0,0,1,2.289-.2,2.581,2.581,0,0,1,.944.141,6.955,6.955,0,0,1,.731.262l.07-.017a3.961,3.961,0,0,1,.071.73c0,.293.021.587.019.879a2.422,2.422,0,0,0,.837,1.857.737.737,0,0,0-.079.844,5.03,5.03,0,0,1,.5,1.613,8.8,8.8,0,0,0,.6,2.492.865.865,0,0,1,.046.388,2.154,2.154,0,0,0,1.158,2.054,5.19,5.19,0,0,0-.078,1.44c-.179-.014-.359-.034-.541-.063a1.9,1.9,0,0,0-.367.012c-.734.033-1.467.069-2.2.1a1.23,1.23,0,0,1-.478-.035,2.252,2.252,0,0,0-1.64.04,2.1,2.1,0,0,1-.707.069c-.523-.045-1.037-.153-1.56-.191a13.821,13.821,0,0,0-4.127.193,1.332,1.332,0,0,1-.585.058,4.122,4.122,0,0,0-1.813.01,2.472,2.472,0,0,1-1.2.018,5.2,5.2,0,0,0-1.446-.156c-.69-.058-1.386-.082-2.08-.1a4.138,4.138,0,0,0-1.2.038,2.929,2.929,0,0,1-1.56.03,5.441,5.441,0,0,0-1.808-.09c-.136.011-.272.017-.407.021a7.177,7.177,0,0,0-.539-2.043,9.024,9.024,0,0,1-.794-3.348.7.7,0,0,0-.11-.467c-.522-.511-.383-1.187-.682-1.755a1.345,1.345,0,0,1-.006-.766,3.879,3.879,0,0,1,.184-.623,4.519,4.519,0,0,1-.922-2.04.989.989,0,0,0-.16-.469,3.284,3.284,0,0,1-.334-.587C37.553,50.6,38.009,50.528,38.469,50.474Z"/></g></svg>