<svg id="base" xmlns="http://www.w3.org/2000/svg" viewBox="0 0 100 100"><defs><style>.cls-1{fill:#ffeded;}.cls-2{fill:#f36;}.cls-3{fill:#1858a8;}.cls-4{fill:#fde8e6;}</style></defs><title>how-to-keep-doing-things-until-you-need-to</title><path class="cls-1" d="M20.253,59.456a.26.26,0,0,1-.124-.224,1.1,1.1,0,0,0-.407-.782.7.7,0,0,1-.171-.2.238.238,0,0,0-.063-.087,1.17,1.17,0,0,1-.3-.441,1.431,1.431,0,0,0-.3-.463.2.2,0,0,1-.059-.143,2.009,2.009,0,0,0-.068-.253.108.108,0,0,0-.046-.063.272.272,0,0,1-.161-.255.18.18,0,0,0-.017-.051c-.02-.04-.035-.1-.064-.115-.137-.068-.137-.243-.259-.325a.782.782,0,0,1-.361-.51.28.28,0,0,0-.083-.135,1.369,1.369,0,0,1-.341-.507.2.2,0,0,0-.061-.087.852.852,0,0,1-.232-.327,1.085,1.085,0,0,0-.083-.139c-.066-.107-.14-.21-.2-.322a1.4,1.4,0,0,0-.344-.475.188.188,0,0,1-.052-.06,6.042,6.042,0,0,0-.51-.821,1.588,1.588,0,0,1-.127.145.3.3,0,0,1-.253.108.286.286,0,0,0-.264.143.393.393,0,0,1-.315.194.321.321,0,0,0-.251.162c-.057.09-.214.019-.264.139a.157.157,0,0,1-.03.038.716.716,0,0,1-.113.1.265.265,0,0,0,.041.041,1.144,1.144,0,0,1,.455.577.523.523,0,0,0,.051.093.55.55,0,0,1,.136.39.407.407,0,0,0,.056.054c.113.062.206.127.173.287a.221.221,0,0,0,.07.164c.1.082.164.216.3.243.03.086.05.164.083.236a.528.528,0,0,0,.227.288.332.332,0,0,1,.176.228.734.734,0,0,0,.243.376.379.379,0,0,1,.146.247.386.386,0,0,0,.132.227.438.438,0,0,1,.154.246.18.18,0,0,0,.051.091,3.914,3.914,0,0,1,.648,1.056.8.8,0,0,0,.27.392.221.221,0,0,1,.069.138.315.315,0,0,0,.112.208,3.521,3.521,0,0,1,.387.475c.087.1.168.211.252.316.011.014.03.026.034.041a2.111,2.111,0,0,0,.233.411c.047.085.086.173.141.256a.959.959,0,0,1,.073.2.591.591,0,0,0,.2.31.314.314,0,0,0,.307.053c.052-.022.1-.045.153-.069.123-.057.245-.116.367-.175a.618.618,0,0,0,.263-.2.751.751,0,0,1,.292-.241c.091-.044.17-.112.26-.159-.116-.218-.232-.435-.34-.657A.923.923,0,0,0,20.253,59.456Z"/><path class="cls-1" d="M10.158,46.274a.259.259,0,0,1-.157-.2,1.1,1.1,0,0,0-.518-.713.71.71,0,0,1-.2-.174.244.244,0,0,0-.075-.075,1.172,1.172,0,0,1-.362-.392,1.446,1.446,0,0,0-.371-.412.2.2,0,0,1-.079-.133,2.127,2.127,0,0,0-.105-.24.111.111,0,0,0-.054-.055.273.273,0,0,1-.2-.228.154.154,0,0,0-.024-.048c-.025-.037-.048-.095-.08-.1-.145-.046-.171-.219-.3-.282a.783.783,0,0,1-.432-.451.291.291,0,0,0-.1-.12,1.349,1.349,0,0,1-.412-.451.224.224,0,0,0-.073-.077.845.845,0,0,1-.278-.289c-.029-.044-.068-.083-.1-.125-.081-.1-.17-.186-.241-.289A1.4,1.4,0,0,0,5.581,41a.2.2,0,0,1-.059-.052,6.338,6.338,0,0,0-.625-.735c-.033.056-.067.111-.105.163a.3.3,0,0,1-.234.144.285.285,0,0,0-.24.181.392.392,0,0,1-.283.239.32.32,0,0,0-.224.2c-.043.1-.209.051-.242.176a.1.1,0,0,1-.024.042.626.626,0,0,1-.1.112.2.2,0,0,0,.055.03,1.148,1.148,0,0,1,.535.5.446.446,0,0,0,.065.085.543.543,0,0,1,.191.365.4.4,0,0,0,.063.045c.122.045.223.1.213.258a.219.219,0,0,0,.094.151c.111.067.194.19.329.2.042.08.073.154.116.221a.529.529,0,0,0,.268.251.335.335,0,0,1,.208.2.735.735,0,0,0,.295.336.38.38,0,0,1,.181.222.385.385,0,0,0,.164.2c.074.062.161.112.188.22a.175.175,0,0,0,.065.082,3.928,3.928,0,0,1,.8.947.811.811,0,0,0,.326.348.217.217,0,0,1,.088.126.313.313,0,0,0,.142.188,3.538,3.538,0,0,1,.452.413c.1.088.2.183.3.274.013.013.033.021.04.035a2.1,2.1,0,0,0,.291.373c.058.076.11.158.177.232a1.01,1.01,0,0,1,.1.186.585.585,0,0,0,.244.276.309.309,0,0,0,.311.006q.072-.044.141-.09l.338-.228a.618.618,0,0,0,.23-.235A.764.764,0,0,1,10.7,47.4c.083-.057.152-.136.233-.2-.146-.2-.293-.4-.432-.6A.949.949,0,0,0,10.158,46.274Z"/><path class="cls-2" d="M99.088,43.058c-.535-.7-1.009-1.439-1.556-2.124a5.962,5.962,0,0,1-.923-1.973,3.453,3.453,0,0,0-.525-1.112,3.7,3.7,0,0,1-.6-1.146,2.149,2.149,0,0,1,.027-1.489,1.267,1.267,0,0,0,.062-.5.474.474,0,0,1,.356-.555.8.8,0,0,0,.593-.758,2.389,2.389,0,0,0-.634-1.889,7.661,7.661,0,0,1-.826-1.015,4.523,4.523,0,0,1-.594-.82,3.1,3.1,0,0,0-.549-.766,5.8,5.8,0,0,1-1.416-2.35,3.114,3.114,0,0,0-.827-1.436,12.089,12.089,0,0,1-1.349-1.613,1.379,1.379,0,0,1-.177-.393,2.961,2.961,0,0,0-.1-.426,10.876,10.876,0,0,0-.729-1.515c-.267-.376-.523-.762-.756-1.161a23.34,23.34,0,0,0-1.387-2.144,1.341,1.341,0,0,1-.147-.251,3.109,3.109,0,0,0-.848-1.167,1.464,1.464,0,0,1-.25-.349c-.092-.141-.17-.292-.27-.427a3.021,3.021,0,0,0-1.045-1.1c-.183-.087-.282-.336-.453-.463-.427-.317-.845-.645-1.283-.947a8.277,8.277,0,0,0-1.441-.85.771.771,0,0,1-.395-.3,1.115,1.115,0,0,0-.867-.588c-.352-.081-.706-.16-1.051-.267a3.785,3.785,0,0,1-1.3-.631,6.579,6.579,0,0,1-1.21-1.24c-.19-.255-.391-.5-.59-.747a1.226,1.226,0,0,0-.859-.488,7.359,7.359,0,0,1-1.28-.27,1.11,1.11,0,0,1-.6-.37,10.492,10.492,0,0,0-.732-.808,1.455,1.455,0,0,0-1.016-.638.629.629,0,0,1-.569-.4,1.609,1.609,0,0,0-.569-.738,4.86,4.86,0,0,1-.759-.785c-.4-.576-1.092-.677-1.59-1.084-.058-.047-.189-.028-.278-.007a1.431,1.431,0,0,1-1.495-.509.731.731,0,0,0-.148-.161.84.84,0,0,0-.326-.133c-.531-.043-1.064-.059-1.594-.1a3.34,3.34,0,0,1-.714-.132,2.009,2.009,0,0,0-1.806.11.38.38,0,0,1-.2.07,4.944,4.944,0,0,1-1.01-.041,6.879,6.879,0,0,0-1-.142,1.294,1.294,0,0,1-.811-.286.8.8,0,0,0-.887-.127,1.664,1.664,0,0,1-1.137-.01.96.96,0,0,0-.77.024c-.2.093-.4.176-.607.249A1.548,1.548,0,0,1,54,1.735a4.9,4.9,0,0,0-.757-.232,1.9,1.9,0,0,1-.406-.143.587.587,0,0,0-.549-.083.393.393,0,0,1-.275-.039.641.641,0,0,0-.556-.007A3.585,3.585,0,0,1,49.6,1.42a5.36,5.36,0,0,0-1.737-.062,4.307,4.307,0,0,1-.508.009,2.263,2.263,0,0,0-.646.053.886.886,0,0,1-.762-.041c-.279-.143-.6-.215-.88-.349A2.546,2.546,0,0,0,43.649.776a1.031,1.031,0,0,1-.7-.147A2.756,2.756,0,0,0,41.782.264C41.35.218,40.924.119,40.495.04a.951.951,0,0,0-.64.031A2.064,2.064,0,0,1,39.471.2c-.335.347-.592.637-.874.9a1.728,1.728,0,0,1-1.056.441c-.6.049-1.207.054-1.811.082a1.181,1.181,0,0,0-.212.047c-.258.065-.52.121-.774.2a1.447,1.447,0,0,0-.457.2,2.46,2.46,0,0,1-1.276.488,4.17,4.17,0,0,0-1.882.5,2.887,2.887,0,0,1-.418.119,5.956,5.956,0,0,0-1.05.487c-.179.119-.217.439-.389.585-.195.165-.525.181-.7.359-.426.441-.947.758-1.392,1.162a3.169,3.169,0,0,1-1.748.808c-.554.078-1.111.136-1.661.232a1.214,1.214,0,0,0-.666.25A14.5,14.5,0,0,0,21.7,8.426a.723.723,0,0,1-.751.353.822.822,0,0,0-.684.179,8.919,8.919,0,0,0-1.124.9,6.813,6.813,0,0,1-1.594,1.253,2.088,2.088,0,0,0-1.009.908,3.235,3.235,0,0,1-.788,1.025,3.826,3.826,0,0,0-.883,1.142c-.1.22-.385.349-.561.542-.192.21-.125.556-.42.744a.962.962,0,0,0-.409,1.019c.086.666-.071.9-.712,1.045a2.351,2.351,0,0,0-1.056.613c-.2.177-.409.338-.617.5-.075.06-.19.093-.231.169a1.475,1.475,0,0,1-.849.644.734.734,0,0,0-.492.669,5.624,5.624,0,0,1-.1.618c-.4.394-.79.76-1.165,1.136a.915.915,0,0,0-.242.352,2.445,2.445,0,0,1-.553,1.089.818.818,0,0,0-.09.2,7.2,7.2,0,0,1-.532,1.038,3.489,3.489,0,0,0-.43,1.355c-.063.272-.085.572-.126.86a.955.955,0,0,1-.67.868,1.9,1.9,0,0,0-.818.6A7.514,7.514,0,0,0,3.68,29.681a.914.914,0,0,1-.53.476,1.23,1.23,0,0,0-.41.281A7.189,7.189,0,0,0,1.5,32.89c-.028.061,0,.145-.015.217-.049.337-.083.678-.158,1.009a1.2,1.2,0,0,0,.006.715.886.886,0,0,1-.186.948A1.479,1.479,0,0,0,.8,36.857a1.933,1.933,0,0,1-.323,1.47A1.466,1.466,0,0,1,.56,39.616a6.462,6.462,0,0,0-.317,1.262,4.627,4.627,0,0,0,.023,2.176A1.969,1.969,0,0,1,.177,44.4a6.119,6.119,0,0,0-.235.617,3.872,3.872,0,0,0-.137,2.09,3.672,3.672,0,0,1,.131,1A2.247,2.247,0,0,1-.18,49.116a.6.6,0,0,0-.019.359,7.955,7.955,0,0,0,.2.776c.074.235.19.49.067.71-.224.4-.111.865-.269,1.278a1.092,1.092,0,0,0,.024.505,2.6,2.6,0,0,0,.139.64.9.9,0,0,1,.013.709,1.043,1.043,0,0,0,0,.718c.032.09.08.206.049.28a1.239,1.239,0,0,0,.133.985.79.79,0,0,1,.025.767.342.342,0,0,0-.011.212c.108.6.2,1.2.34,1.8a1.983,1.983,0,0,0,.633,1.283c.289.2.286.486.4.742.13.283.4.5.379.853a3.111,3.111,0,0,1-.043.359c-.019.108-.052.214-.08.323l.891.2c-.011.347,0,.686.33.788a2,2,0,0,1,.834.676l-.085.464c.1.151.175.273.252.4.21.341.18.828.622,1.028a.072.072,0,0,1,.025.065c-.053.231.082.36.236.494a.36.36,0,0,1,.123.256c-.058.575.278,1.161-.073,1.691.169.283.448.451.421.8-.006.076.076.177.143.239.178.165.377.307.552.473a1.635,1.635,0,0,1,.371.436c.092.193.071.445.173.629a2.316,2.316,0,0,0,.446.444.108.108,0,0,1,.029.066c.012.313.3.409.474.55a1.7,1.7,0,0,0-.015.267c.05.395-.128.829.217,1.179.062.063.02.233.019.353a6.991,6.991,0,0,0,0,1.31,8.5,8.5,0,0,1,.136.855,1.713,1.713,0,0,0,.4,1.14c.291.283.4.832.97.776.051,0,.118.077.166.129a2.471,2.471,0,0,0,.972.616,1.191,1.191,0,0,1,.722.574.857.857,0,0,0,.327.27c.368.234.751.445,1.11.692a1.866,1.866,0,0,0,.489.3,1.191,1.191,0,0,1,.742.668,8.846,8.846,0,0,0,.754,1.239c.265.422.624.834.489,1.412-.018.077.055.179.1.265a3.812,3.812,0,0,1,.2.386,3.111,3.111,0,0,0,.126.494,2.211,2.211,0,0,0,.367.4c-.041.108-.068.176-.092.244a1.457,1.457,0,0,0,.67,1.95c.037.018.075.035.114.05.537.263,1.038.6,1.55.9l.054.388c.628-.024,1.207.024,1.516.635.27.042.51.071.747.119a1.019,1.019,0,0,1,.4.137,2.509,2.509,0,0,0,1.076.395c.525.094,1.066.12,1.58.253a8.5,8.5,0,0,1,1.725.5,2.81,2.81,0,0,1,1.07.85,2.137,2.137,0,0,0,1.121.76.839.839,0,0,1,.318.15c.2.192.39.369.7.223.047-.022.158.077.23.132a4.151,4.151,0,0,0,1.2.471c.624-.144,1.307.042,1.842-.362a1.458,1.458,0,0,1,.743.49,1.193,1.193,0,0,0,.352.231,5.732,5.732,0,0,1,1.543.915.9.9,0,0,0,.411.273,2.544,2.544,0,0,1,1.172.547,1.785,1.785,0,0,0,.73.283,4.157,4.157,0,0,1,1.223.436,5.814,5.814,0,0,0,1.055.468,6.365,6.365,0,0,1,1.019.556.361.361,0,0,0,.065.033,14.217,14.217,0,0,0,2.8.739.485.485,0,0,1,.327.131c.244.332.622.359.962.472.437.145.874.291,1.317.414a1.021,1.021,0,0,0,.5.023,1.989,1.989,0,0,1,1.6.289c.163.1.374.121.54.217a1.1,1.1,0,0,0,1.231.112.2.2,0,0,1,.141-.021,1.447,1.447,0,0,0,1.1-.257,2.591,2.591,0,0,1,.412-.121.906.906,0,0,0,.323-.133c.421-.378,1.048-.39,1.436-.825a.228.228,0,0,1,.134-.052,2.762,2.762,0,0,0,.641-.07c.169-.06.4.056.584.09l1.178-.977c.122.059.209.139.293.136a1.655,1.655,0,0,0,1.032-.213,1.822,1.822,0,0,1,1.409-.468,1.562,1.562,0,0,0,.289-.034c.338-.017.676-.041,1.014-.038a1.257,1.257,0,0,0,.762-.193,1.153,1.153,0,0,1,.456-.214,1.593,1.593,0,0,0,.825-.428,1.625,1.625,0,0,1,1.349-.414,1.543,1.543,0,0,0,.85-.127c.151-.061.378-.13.486-.061a.852.852,0,0,0,.825,0,1.289,1.289,0,0,1,1.085.064A.985.985,0,0,0,66,95.465a3.01,3.01,0,0,1,1.471-.744c.115-.009.237-.153.325-.261.122-.15.2-.339.324-.485.089-.1.23-.234.345-.232.6.015,1.008-.462,1.554-.567.239-.267.556-.232.87-.247a2.8,2.8,0,0,0,1.563-.538c.4-.3.772-.656,1.151-.993.326-.291.638-.6.97-.881a.551.551,0,0,1,.379-.162c.443.107.787-.228,1.2-.233a.252.252,0,0,0,.181-.111c.242-.418.833-.407,1.042-.871.029-.065.167-.08.256-.116.156-.063.317-.113.467-.187.3-.152.6-.317.895-.475a2.271,2.271,0,0,0,.86-.524.506.506,0,0,1,.529-.163.8.8,0,0,0,.83-.345A1.02,1.02,0,0,1,82.444,87a1.747,1.747,0,0,0,.644.046,1,1,0,0,0,.927-.959c.009-.1-.011-.2,0-.293a.561.561,0,0,1,.389-.559c.251-.074.3-.267.319-.511a9.264,9.264,0,0,1,.155-1.087.619.619,0,0,1,.186-.382,12.5,12.5,0,0,0,1.163-1.068,3.034,3.034,0,0,0,.3-.3c.112-.122.216-.252.326-.375a1.988,1.988,0,0,0,.242-.26A8.4,8.4,0,0,1,88.727,79.3a2.509,2.509,0,0,0,.6-.725,5.939,5.939,0,0,1,1.624-2.2.313.313,0,0,0,.131-.172c.054-.42.4-.6.68-.811.238-.177.239-.506.436-.65a1.583,1.583,0,0,0,.548-.555A2.577,2.577,0,0,1,93,73.844c.325.2.611.382.9.56.608.376.684.351.916-.3a1.136,1.136,0,0,1,.057-.135,1.512,1.512,0,0,0,.046-1.345.9.9,0,0,1-.067-.57,5.119,5.119,0,0,0,.262-2.006.512.512,0,0,1,.029-.216,4.076,4.076,0,0,0,.112-1.374.623.623,0,0,1,.133-.394A14.291,14.291,0,0,1,96.452,66.9a3.339,3.339,0,0,0,.661-.861c.18-.336.028-.719.213-1.045a.3.3,0,0,0-.062-.271,1.6,1.6,0,0,0-1.243-.6c-.108.013-.19.016-.217-.158A1.711,1.711,0,0,1,96,63.8a.632.632,0,0,0,.3-.736,1.655,1.655,0,0,1,.206-1.26,1.971,1.971,0,0,0,.267-.9,17.663,17.663,0,0,0,.059-1.826,1.01,1.01,0,0,1,.208-.817.46.46,0,0,0,.08-.341,5.1,5.1,0,0,1,.175-1.887,3.268,3.268,0,0,1,.746-1.678c-.019-.325-.015-.619-.059-.9a1.788,1.788,0,0,1,.129-.928c.04-.1-.01-.241-.005-.362a3.524,3.524,0,0,1,.043-.434c.058-.348.274-.682.091-1.052.159-1.136.184-2.29.441-3.414a5.889,5.889,0,0,0,.189-1.079.862.862,0,0,1,.5-.884.594.594,0,0,0,.313-.75A4.772,4.772,0,0,0,99.088,43.058Z"/><path class="cls-3" d="M81.866,30.447a8.22,8.22,0,0,0-1.574,3.22,1.208,1.208,0,0,1-.321.18.478.478,0,0,0-.234.174c-.121.168-.254.327-.377.494a.547.547,0,0,1-.248.2.6.6,0,0,0-.185.108c-.115.112-.211.243-.392.257-.045,0-.087.06-.129.094a1.309,1.309,0,0,1-.123.1,8.242,8.242,0,0,0-.74.484.229.229,0,0,1-.122.051.561.561,0,0,0-.285.143,1.169,1.169,0,0,1-.3.184,2.631,2.631,0,0,0-.539.3.419.419,0,0,1-.191.079,6.517,6.517,0,0,1-.882.073.442.442,0,0,0-.42.188.213.213,0,0,1-.1.083.643.643,0,0,0-.356.226c-.017.026-.063.032-.094.049a1.448,1.448,0,0,1-.3.1,4.079,4.079,0,0,0-.491.222.854.854,0,0,1-.463.116,1.715,1.715,0,0,1-.3-.118c-.11-.036-.236.024-.34-.054a.092.092,0,0,0-.024-.013,2.143,2.143,0,0,0-.4-.048,1.965,1.965,0,0,1-.266.006.744.744,0,0,0-.518.09.229.229,0,0,1-.3-.023.214.214,0,0,0-.144-.059c-.264.03-.509-.121-.773-.08a2.572,2.572,0,0,0-.694-.067.516.516,0,0,0-.264.027.216.216,0,0,1-.209,0,.26.26,0,0,0-.268-.007c-.058-.075-.094-.165-.158-.2-.181-.088-.343-.241-.569-.207a.2.2,0,0,1-.168-.069,1.945,1.945,0,0,0-.595-.364.424.424,0,0,1-.261-.291c-.023-.079-.046-.157-.071-.234a.849.849,0,0,0-.6-.573,1.34,1.34,0,0,1-.5-.3,5.208,5.208,0,0,1-.441-.474c-.043-.047-.08-.1-.122-.146-.192-.217-.382-.437-.717-.4a.148.148,0,0,1-.094-.042c-.077-.062-.148-.132-.225-.193-.134-.1-.206-.273-.371-.345-.029-.013-.049-.052-.068-.082-.057-.091-.114-.183-.168-.277a.671.671,0,0,1-.068-.146q-.133-.339-.3-.664a.133.133,0,0,0-.05-.063.5.5,0,0,1-.218-.417,2.174,2.174,0,0,0-.1-.449.725.725,0,0,1-.007-.4,1.189,1.189,0,0,0-.012-.718.866.866,0,0,1-.058-.262c-.016-.216-.026-.434-.027-.651a1.658,1.658,0,0,0-.057-.454c-.047-.164-.056-.339-.1-.5a1.225,1.225,0,0,0-.284-.683.136.136,0,0,1-.026-.076,5.774,5.774,0,0,0-.322-.947,2.26,2.26,0,0,1-.1-1.2.649.649,0,0,0,0-.108c.018-.3.106-.584.109-.883a1.845,1.845,0,0,1,.059-.319,1.086,1.086,0,0,1,.034-.158,1.635,1.635,0,0,0,.144-.6.268.268,0,0,1,.029-.1c.058-.122.125-.24.179-.364a2.539,2.539,0,0,0,.184-.478.679.679,0,0,1,.124-.294A2.488,2.488,0,0,0,63,21.033.543.543,0,0,1,63.2,20.7a1.292,1.292,0,0,0,.321-.395,1.256,1.256,0,0,1,.268-.335,3.211,3.211,0,0,0,.481-.578l2.987-2.335a.493.493,0,0,0,.345-.13,1.654,1.654,0,0,0,.377-.346.318.318,0,0,1,.107-.078c.077-.046.154-.094.235-.132a1.434,1.434,0,0,1,.323-.129,1.019,1.019,0,0,0,.483-.227.645.645,0,0,1,.4-.153c.043.049.085.1.128.141a.767.767,0,0,0,1.025.11A.484.484,0,0,1,70.893,16a.465.465,0,0,0,.314-.191.231.231,0,0,1,.176-.107.241.241,0,0,0,.128-.037,1.033,1.033,0,0,1,.571-.128c.121.109.243.22.426.166a.071.071,0,0,1,.051.013.5.5,0,0,0,.386.073.332.332,0,0,1,.133.016c.192.07.382.145.589.225.022-.006.07-.039.107-.028.185.054.393.062.521.244a.241.241,0,0,0,.206.108.89.89,0,0,1,.643.3.732.732,0,0,0,.427.206.917.917,0,0,1,.51.269.714.714,0,0,0,.333.223c.121.03.184.137.275.209a2.983,2.983,0,0,0,.326.183.4.4,0,0,1,.088.1c.039.049.078.1.116.15a.456.456,0,0,0,.253.191.5.5,0,0,1,.238.17.687.687,0,0,0,.383.234,2.022,2.022,0,0,1,.49.14.436.436,0,0,0,.48,0,.13.13,0,0,1,.209.118.635.635,0,0,0,.276.5.483.483,0,0,1,.155.184,4.276,4.276,0,0,0,.254.416.73.73,0,0,0,.36.378c.08.031.136.122.216.155a.778.778,0,0,1,.4.389.4.4,0,0,0,.1.124.566.566,0,0,1,.157.248c.1.261.209.519.314.778.024.059.041.12.067.177a2.783,2.783,0,0,0,.209.437,1.75,1.75,0,0,1,.22.462.929.929,0,0,0,.113.243.376.376,0,0,1,.076.33.222.222,0,0,0,.016.13,1.086,1.086,0,0,1,.129.41.293.293,0,0,0,.061.119,1.041,1.041,0,0,1,.1.157.761.761,0,0,0,.242.318.571.571,0,0,1,.245.408.558.558,0,0,0,.148.338l.152.2a.452.452,0,0,0-.034.323,1.689,1.689,0,0,1-.017.293c0,.1.021.2.025.293a.43.43,0,0,1-.031.1c-.045.192-.119.376-.153.573a1.068,1.068,0,0,1-.129.351,1.193,1.193,0,0,0-.165.643l-.094-.02a.61.61,0,0,0-.257.533c-.076.12-.174.205-.184.3a3.164,3.164,0,0,1-.175.53,1.1,1.1,0,0,0-.049.427.666.666,0,0,1-.059.268A.767.767,0,0,0,81.866,30.447Z"/><path class="cls-4" d="M32.029,87.8c-.241-.043-.178-.367-.367-.435a.6.6,0,0,1-.406-.4.74.74,0,0,0-.492-.5.543.543,0,0,1-.377-.43.578.578,0,0,0-.306-.423,3.317,3.317,0,0,0-.321-.174,11.7,11.7,0,0,1,1.29-1.306.344.344,0,0,0,.088-.122,2.686,2.686,0,0,1,.727-.849c.182-.151.339-.335.508-.5a2.481,2.481,0,0,1,.22-.215,1.6,1.6,0,0,0,.5-.574.417.417,0,0,1,.133-.15,2.6,2.6,0,0,0,.788-.855.512.512,0,0,1,.212-.213,1.5,1.5,0,0,0,.782-.894c.1-.265.425-.339.488-.624.014-.062.12-.115.185-.169a.271.271,0,0,1,.087-.054.519.519,0,0,0,.4-.412.215.215,0,0,1,.1-.113,3.737,3.737,0,0,1,.436-.236.392.392,0,0,0,.238-.172,2.7,2.7,0,0,1,.721-.77,2.246,2.246,0,0,0,.682-.752.445.445,0,0,1,.131-.155,1.337,1.337,0,0,0,.3-.405,2.081,2.081,0,0,1,1.265-1.1.5.5,0,0,0,.357-.33,1.821,1.821,0,0,1,.581-.7c.361-.3.713-.61,1.062-.917.125.146.283.264.4.415a1.437,1.437,0,0,0,.57.439,1.185,1.185,0,0,1,.477.4c.159.2.321.4.48.607.065.084.129.169.19.255a.6.6,0,0,1,.035.594,1.12,1.12,0,0,1-.481.51,1.924,1.924,0,0,0-.334.223c-.129.14-.275.25-.411.375a4.052,4.052,0,0,1-.658.611c-.025.015-.038.055-.06.086-.158.2-.323.4-.473.6a6.913,6.913,0,0,0-.709.927.607.607,0,0,1-.334.3.411.411,0,0,0-.224.188,1.548,1.548,0,0,1-.605.674,7.377,7.377,0,0,0-1.665,1.667.366.366,0,0,1-.149.135.827.827,0,0,0-.386.393.734.734,0,0,1-.363.345.729.729,0,0,0-.391.379,1.4,1.4,0,0,1-.587.616.633.633,0,0,0-.348.426,1.011,1.011,0,0,1-.434.547c-.119.093-.253.164-.4.257.008.258-.211.435-.319.659a.416.416,0,0,1-.275.2c-.306.006-.383.21-.454.447a.577.577,0,0,1-.074.127,1.033,1.033,0,0,0-.662.422.97.97,0,0,1-.15.136,2.2,2.2,0,0,0-.867,1.1.467.467,0,0,1-.056.094,1.318,1.318,0,0,0-.225-.168A.193.193,0,0,0,32.029,87.8Z"/><path class="cls-4" d="M17.193,66.538c.1-.223.4-.079.512-.246A.6.6,0,0,1,18.191,66a.742.742,0,0,0,.611-.348.542.542,0,0,1,.511-.255.579.579,0,0,0,.486-.188,3.172,3.172,0,0,0,.251-.268,11.681,11.681,0,0,1,.917,1.591.368.368,0,0,0,.094.117,2.676,2.676,0,0,1,.625.925c.1.215.233.415.351.623a2.824,2.824,0,0,1,.149.269,1.6,1.6,0,0,0,.42.636.41.41,0,0,1,.11.168,2.584,2.584,0,0,0,.615.986.524.524,0,0,1,.149.261,1.489,1.489,0,0,0,.654.991c.227.164.216.5.471.634.056.03.079.146.115.224a.287.287,0,0,1,.028.1.519.519,0,0,0,.292.494.207.207,0,0,1,.083.123,3.815,3.815,0,0,1,.112.484.4.4,0,0,0,.1.276,2.711,2.711,0,0,1,.551.9,2.211,2.211,0,0,0,.543.857.44.44,0,0,1,.114.168,1.349,1.349,0,0,0,.311.393,2.085,2.085,0,0,1,.73,1.5.493.493,0,0,0,.223.432,1.816,1.816,0,0,1,.52.744c.192.428.4.849.6,1.27-.172.082-.327.206-.5.284a1.455,1.455,0,0,0-.572.44,1.174,1.174,0,0,1-.51.36c-.236.1-.472.207-.708.309q-.15.063-.3.12a.591.591,0,0,1-.578-.12,1.114,1.114,0,0,1-.362-.6,1.912,1.912,0,0,0-.127-.383,5.568,5.568,0,0,1-.252-.5,4.026,4.026,0,0,1-.416-.8c-.007-.029-.043-.052-.063-.08-.152-.2-.3-.416-.458-.615a6.8,6.8,0,0,0-.7-.928.6.6,0,0,1-.2-.4.415.415,0,0,0-.122-.267,1.538,1.538,0,0,1-.489-.762,7.428,7.428,0,0,0-1.163-2.045.343.343,0,0,1-.091-.177.832.832,0,0,0-.277-.476.737.737,0,0,1-.237-.441.719.719,0,0,0-.261-.477,1.4,1.4,0,0,1-.438-.73.633.633,0,0,0-.321-.444,1.006,1.006,0,0,1-.412-.562c-.059-.139-.091-.289-.142-.454-.25-.059-.362-.317-.548-.481a.422.422,0,0,1-.123-.315c.073-.3-.1-.43-.309-.556a.628.628,0,0,1-.1-.106,1.036,1.036,0,0,0-.234-.748,1.027,1.027,0,0,1-.092-.181A2.176,2.176,0,0,0,17,66.852a.48.48,0,0,1-.077-.079,1.289,1.289,0,0,0,.221-.175A.206.206,0,0,0,17.193,66.538Z"/><path class="cls-4" d="M3.746,49.014c.062-.239.377-.15.459-.335a.6.6,0,0,1,.426-.376.745.745,0,0,0,.538-.454.54.54,0,0,1,.456-.344.576.576,0,0,0,.444-.274,3.617,3.617,0,0,0,.2-.309,11.659,11.659,0,0,1,1.188,1.4.339.339,0,0,0,.113.1,2.663,2.663,0,0,1,.782.8,6.909,6.909,0,0,0,.457.548A2.806,2.806,0,0,1,9,50a1.571,1.571,0,0,0,.527.548.429.429,0,0,1,.138.146,2.562,2.562,0,0,0,.783.857.531.531,0,0,1,.193.229,1.486,1.486,0,0,0,.822.856c.253.12.3.449.577.537.061.019.1.129.153.2a.279.279,0,0,1,.046.091.517.517,0,0,0,.376.432.211.211,0,0,1,.1.106,3.622,3.622,0,0,1,.2.456.394.394,0,0,0,.151.252,2.676,2.676,0,0,1,.7.783,2.231,2.231,0,0,0,.689.744.431.431,0,0,1,.142.143,1.311,1.311,0,0,0,.377.33,2.08,2.08,0,0,1,.985,1.355.491.491,0,0,0,.3.384,1.809,1.809,0,0,1,.646.637c.265.386.544.762.822,1.139-.155.112-.285.262-.444.371a1.456,1.456,0,0,0-.482.537,1.18,1.18,0,0,1-.437.447l-.641.433c-.088.059-.178.117-.269.172a.592.592,0,0,1-.59-.012,1.105,1.105,0,0,1-.465-.525,1.9,1.9,0,0,0-.194-.354c-.127-.139-.225-.3-.336-.441a3.984,3.984,0,0,1-.553-.707c-.012-.027-.051-.043-.076-.066-.187-.174-.369-.355-.561-.521a6.875,6.875,0,0,0-.86-.785.6.6,0,0,1-.27-.357.4.4,0,0,0-.168-.24,1.535,1.535,0,0,1-.618-.661,7.421,7.421,0,0,0-1.512-1.8.343.343,0,0,1-.122-.157c-.051-.2-.216-.3-.358-.418a.728.728,0,0,1-.312-.389.715.715,0,0,0-.342-.422,1.4,1.4,0,0,1-.563-.638.634.634,0,0,0-.4-.378,1,1,0,0,1-.507-.477c-.082-.127-.142-.268-.221-.421-.257-.012-.414-.246-.626-.373a.418.418,0,0,1-.177-.288c.018-.309-.175-.4-.4-.49A.538.538,0,0,1,5.1,51.18a1.038,1.038,0,0,0-.364-.693.915.915,0,0,1-.123-.161A2.175,2.175,0,0,0,3.6,49.369a.427.427,0,0,1-.089-.064,1.244,1.244,0,0,0,.186-.211A.227.227,0,0,0,3.746,49.014Z"/><path class="cls-4" d="M51.779,49.878a.185.185,0,0,0-.1-.078c-.13-.021-.18-.126-.257-.211-.1-.108-.227-.187-.328-.294a1.147,1.147,0,0,0-.412-.285.935.935,0,0,1-.348-.262l-.369-.393c-.05-.055-.1-.109-.148-.166a.4.4,0,0,1-.077-.383.586.586,0,0,1,.268-.327.946.946,0,0,0,.2-.143c.074-.084.152-.164.233-.24a2.094,2.094,0,0,1,.372-.392c.015-.01.02-.036.031-.053.084-.13.174-.256.252-.389a3.627,3.627,0,0,0,.378-.6.318.318,0,0,1,.189-.192c.053-.022.12-.072.129-.121.039-.2.2-.309.333-.433a3.841,3.841,0,0,0,.931-1.068.184.184,0,0,1,.083-.087c.123-.043.16-.155.215-.253s.094-.187.2-.221a.415.415,0,0,0,.22-.243.741.741,0,0,1,.326-.4.334.334,0,0,0,.186-.266.537.537,0,0,1,.232-.352c.076-.059.155-.113.236-.164-.028-.167.1-.28.149-.424a.224.224,0,0,1,.158-.129c.2,0,.233-.133.255-.286a.356.356,0,0,1,.037-.082.555.555,0,0,0,.39-.271.538.538,0,0,1,.085-.087,1.154,1.154,0,0,0,.464-.706.532.532,0,0,1,.046-.1l.2.025.017-.192c.179-.191.363-.371.525-.568a.469.469,0,0,0,.161-.321.214.214,0,0,1,.129-.158.686.686,0,0,0,.416-.341c.019-.032.071-.042.1-.071s.082-.082.081-.124a.337.337,0,0,1,.23-.33c.042-.021.069-.072.095-.1a1.843,1.843,0,0,1,0-.235.2.2,0,0,1,.066-.131c.172-.089.243-.278.394-.386a.167.167,0,0,0,.07-.1c.024-.226.2-.38.241-.6l.274.05c.033-.034.062-.052.074-.079a.327.327,0,0,1,.284-.207.205.205,0,0,0,.149-.094.851.851,0,0,1,.359-.329l.024-.363A.3.3,0,0,0,60.45,35c.058-.075.161-.111.237-.174.095-.077.181-.163.271-.246.028-.063.055-.128.084-.193l.023.019a6.451,6.451,0,0,1,.852.8,1.765,1.765,0,0,0,.391.366,1.935,1.935,0,0,1,.361.345,2.658,2.658,0,0,0,.532.438,1.244,1.244,0,0,1,.392.358.737.737,0,0,0,.341.268.653.653,0,0,1,.188.1l.083.081c-.015.014-.028.029-.043.041a1.842,1.842,0,0,0-.335.354,1.692,1.692,0,0,1-.356.385,6.044,6.044,0,0,0-.778.837,6.52,6.52,0,0,1-.739.861.19.19,0,0,0-.047.078,1.4,1.4,0,0,1-.4.545c-.1.1-.19.216-.285.324a1.145,1.145,0,0,1-.123.138.846.846,0,0,0-.275.369.209.209,0,0,1-.073.1,1.367,1.367,0,0,0-.435.549.262.262,0,0,1-.118.136.794.794,0,0,0-.428.575c-.04.17-.243.218-.26.4,0,.04-.068.074-.1.109a.161.161,0,0,1-.052.034.277.277,0,0,0-.222.264.113.113,0,0,1-.053.073,1.887,1.887,0,0,1-.262.15c-.059.026-.116.045-.14.11a1.384,1.384,0,0,1-.4.5,1.169,1.169,0,0,0-.376.482.219.219,0,0,1-.072.1.729.729,0,0,0-.156.26,1.1,1.1,0,0,1-.723.7.265.265,0,0,0-.2.211.948.948,0,0,1-.314.451c-.287.263-.57.531-.84.812a.66.66,0,0,0-.22.465.3.3,0,0,1-.121.239,5.161,5.161,0,0,1-.655.463.353.353,0,0,0-.176.238.552.552,0,0,1-.287.386c-.141.083-.274.179-.409.272a.279.279,0,0,0-.083.088,1.288,1.288,0,0,1-.556.634.228.228,0,0,0-.068.063c-.08.092-.142.228-.244.269-.137.056-.114.22-.253.283-.1-.048-.24-.082-.3-.191C52.106,50.14,51.9,50.05,51.779,49.878Z"/><path class="cls-4" d="M45.3,70.1a.181.181,0,0,0-.118-.037c-.129.027-.213-.053-.315-.105-.13-.065-.279-.092-.411-.155a1.151,1.151,0,0,0-.486-.117.915.915,0,0,1-.418-.117l-.485-.234c-.066-.032-.132-.066-.2-.1a.4.4,0,0,1-.209-.33.582.582,0,0,1,.133-.4,1.112,1.112,0,0,0,.134-.2,3.214,3.214,0,0,1,.131-.309,2.1,2.1,0,0,1,.207-.5c.011-.014.006-.041.01-.061.032-.151.07-.3.1-.455a3.706,3.706,0,0,0,.139-.692.315.315,0,0,1,.108-.249.217.217,0,0,0,.077-.159.809.809,0,0,1,.155-.525,3.937,3.937,0,0,0,.487-1.335.183.183,0,0,1,.045-.111c.1-.085.095-.2.111-.314a.392.392,0,0,1,.111-.281A.386.386,0,0,0,44.722,63a.738.738,0,0,1,.162-.488.34.34,0,0,0,.074-.323.542.542,0,0,1,.091-.413,2.7,2.7,0,0,1,.161-.239c-.086-.145-.008-.3-.013-.449a.222.222,0,0,1,.1-.178c.184-.076.169-.209.135-.359a.3.3,0,0,1,0-.09.559.559,0,0,0,.267-.394.486.486,0,0,1,.048-.113,1.161,1.161,0,0,0,.181-.827.4.4,0,0,1,.006-.11l.193-.048-.053-.186c.1-.244.206-.477.287-.72a.477.477,0,0,0,.035-.359.214.214,0,0,1,.064-.194.7.7,0,0,0,.264-.47c.006-.036.051-.065.066-.1s.048-.106.032-.144a.338.338,0,0,1,.1-.392.375.375,0,0,0,.053-.129,1.574,1.574,0,0,1-.085-.219.19.19,0,0,1,.014-.146c.129-.146.127-.348.23-.5a.169.169,0,0,0,.029-.118c-.058-.22.051-.428.011-.645l.274-.052a.4.4,0,0,0,.041-.1.327.327,0,0,1,.191-.3.21.21,0,0,0,.1-.142A.843.843,0,0,1,48,53.619l-.107-.348a.3.3,0,0,0,.167-.193,1.432,1.432,0,0,1,.159-.248c.061-.106.11-.218.165-.328,0-.069.006-.14.009-.211l.028.01a6.367,6.367,0,0,1,1.08.439,1.836,1.836,0,0,0,.5.2,1.871,1.871,0,0,1,.46.191,2.6,2.6,0,0,0,.653.216,1.222,1.222,0,0,1,.493.192.726.726,0,0,0,.414.126.662.662,0,0,1,.212.029l.107.046c-.009.018-.016.037-.025.054a1.751,1.751,0,0,0-.186.452,1.747,1.747,0,0,1-.194.488A6,6,0,0,0,51.51,55.8a6.666,6.666,0,0,1-.381,1.072.17.17,0,0,0-.016.089,1.406,1.406,0,0,1-.174.653c-.062.129-.1.27-.149.405a1.593,1.593,0,0,1-.066.174.857.857,0,0,0-.124.444.221.221,0,0,1-.034.117,1.35,1.35,0,0,0-.208.67.277.277,0,0,1-.062.17.8.8,0,0,0-.194.692c.024.173-.149.291-.1.468.011.039-.037.094-.059.14a.182.182,0,0,1-.036.051.28.28,0,0,0-.113.327.109.109,0,0,1-.023.087,2.053,2.053,0,0,1-.191.236c-.045.045-.092.084-.09.153a1.416,1.416,0,0,1-.2.606,1.173,1.173,0,0,0-.178.587.225.225,0,0,1-.031.119.716.716,0,0,0-.053.3,1.107,1.107,0,0,1-.422.92.266.266,0,0,0-.114.271.96.96,0,0,1-.131.534c-.174.35-.342.7-.493,1.063a.653.653,0,0,0-.039.514.3.3,0,0,1-.028.267,5.046,5.046,0,0,1-.445.669.355.355,0,0,0-.079.287.556.556,0,0,1-.129.464c-.1.129-.192.266-.285.4a.264.264,0,0,0-.045.111,1.313,1.313,0,0,1-.292.794.2.2,0,0,0-.041.083c-.042.116-.051.264-.131.34-.108.1-.028.247-.135.356a.608.608,0,0,1-.353-.067C45.7,70.226,45.474,70.215,45.3,70.1Z"/></svg>