<svg id="base" xmlns="http://www.w3.org/2000/svg" viewBox="0 0 100 100"><defs><style>.cls-1{fill:#1858a8;}.cls-2{fill:#f36;}.cls-3{fill:#ffeded;}</style></defs><title>c 2</title><path class="cls-1" d="M58.087,56.975c0-.027,0-.054,0-.081-.018.008-.036.019-.054.028Z"/><path class="cls-1" d="M53.577,56.108A1.8,1.8,0,0,0,55.841,57.9a8.011,8.011,0,0,0,2.2-.979c-.4-.434-.79-.866-1.14-1.248Z"/><path class="cls-1" d="M50.249,42.744h0l.026-.028.877.643c.2-.346.541-.681.584-1.042a10.938,10.938,0,0,0-.174-2.027l-3.343-.44-.094.416,1.928.708-2.311.227a12.633,12.633,0,0,1,2.059.632c.255.129.3.563.435.876l-.07-.013C50.192,42.715,50.223,42.725,50.249,42.744Z"/><path class="cls-1" d="M45.018,43.763l1.113-.634c.755.314,1.4.812,1.91.73.491-.079.851-.762,1.384-1.294l.741.131A3.765,3.765,0,0,0,45.018,43.763Z"/><path class="cls-1" d="M43.273,60.314l.506.171,1.357-3.13-.409-.134Q44,58.768,43.273,60.314Z"/><path class="cls-1" d="M17.925,67.76c.072.373.131.751.2,1.125.026.147.055.294.088.439.265.5.619,1,.887,1.465l.008.013a35.83,35.83,0,0,0,7.608,9.362c.135.2.27.392.415.579a1.908,1.908,0,0,1,.453.838A.791.791,0,0,0,28,82.2a.94.94,0,0,1,.548.773c.313,0,.618-.088.826.031.591.337,1.312.476,1.672,1.217a.647.647,0,0,0,.512.343,5.987,5.987,0,0,1,2.133.946,1.264,1.264,0,0,0,1.281.125c.126-.054.255-.1.382-.156q1.1.461,2.272.859a76.773,76.773,0,0,0,7.755,1.826l.006.01a.489.489,0,0,0,.3.186c.314.09.637.143.95.237.538.162,1.125,0,1.64.327a.588.588,0,0,0,.348.019c.353-.032.707-.068,1.058-.116a1.906,1.906,0,0,0,.517-.125,22.138,22.138,0,0,1,2.335-.585.4.4,0,0,1,.263.01,1.516,1.516,0,0,0,1.525-.28,6.437,6.437,0,0,1,.976-.544c1.6-.332,3.207-.671,4.8-1.043A2.326,2.326,0,0,0,61.4,85.217a16.956,16.956,0,0,0,.975-2.464l2.685,1.338c1.225-.819,2.67-1.866,4.21-2.795a2.769,2.769,0,0,0,1.494-2.373,7.384,7.384,0,0,0-.255-1.989l.665-.055c.186.477.373.954.567,1.451.08.206.161.413.245.627A30.358,30.358,0,0,0,79.968,67.4l-.007,0c-2.734-1.088-5.214-2.275-7.851-3.062-2.36-.7-3.546-2.456-5.3-3.692a.786.786,0,0,1-.318-.451,13.237,13.237,0,0,0-.337-2.36c-.569-1.6-.529-3.3-1.8-4.792a4.909,4.909,0,0,1-1.309-4.479,8.622,8.622,0,0,0,.073-2.629c-.045-.848.107-1.37,1.255-1.637a3.235,3.235,0,0,0,1.8-1.43c.807-1.358,1.341-2.817-.2-4.164,3.617-1.129,3.669-1.23,4.689-3.769.2-.488.225-1.4-.1-1.612-1.8-1.183-1.4-3.312-2.827-4.617-.571-.523-.99-1.391-1.663-1.568-1.993-.525-3.724-1.869-6.014-1.548-.216.03-.549-.318-.761-.539a8.844,8.844,0,0,0-6.452-2.918c-4.508-.09-8.984-.15-13.4.984a9.7,9.7,0,0,0-5.509,3.515A6.215,6.215,0,0,1,31.651,28c-.969.442-2.788.659-2.871,1.152-.189,1.122-1.483.3-1.724,1.128-.254.866-1.174,1.6-1.343,2.465a28.355,28.355,0,0,0-.347,4.764,6.016,6.016,0,0,0,.408,1.591l.267-.421a5.787,5.787,0,0,0,.835,1.621,7.5,7.5,0,0,0,2.334,1.743c.432.181,1.24-.451,1.9-.509a1.756,1.756,0,0,1,1.318.484,7.12,7.12,0,0,0,2.519,2.8,2.1,2.1,0,0,1,1.13,2.642c-.11.279.128.656.174.991.068.483.108.969.16,1.454-.508-.076-1.018-.142-1.524-.231a4.169,4.169,0,0,1-.567-.185l-.117.192L36,50.927c.647-.169,1.319-.482,1.452-.358,1.02.951,2.928,1.518,1.872,3.485,2.441-.972,2.228,1.437,3.761,1.758-.507-1.02-.781-2.56-1.438-2.7-1.56-.325-1.04-1.216-1.279-1.928a.646.646,0,0,0-.248-.371c-2.5-1.279-1.081-3.881-2.5-5.523-.03-.035.092-.151.111-.235a27.538,27.538,0,0,0,.849-3.879c.235-2.92,1.281-4.1,4.5-4.934a25.992,25.992,0,0,1,9.24-.861c2.478.256,4.981.411,7.423.833,1.9.329,3.368,2.41,2.961,3.692-.777.024-1.541.019-2.3.079a18.238,18.238,0,0,0-2.281.3c-1.306.273-2.438,1.49-2.243,2.53.357,1.89.752,3.78,1.291,5.636.6,2.073.169,2.677-2.221,2.892A6,6,0,0,0,53.317,52l.186.331c1.69-.543,2.283-.223,2.673,1.6a6.068,6.068,0,0,1-1.925-.06c-1.989-.8-4.314-.262-5.25,1.419-1.41,2.532-2.737,5.1-4.087,7.654a5.39,5.39,0,0,0-.29.841A15.7,15.7,0,0,0,47.619,61.3a6.114,6.114,0,0,0,2.092-4.633c-.067-1.312.477-1.857,1.852-1.86,1.923,0,3.85.035,5.769.148.277.016.63.517.746.846a2.975,2.975,0,0,1,.014,1.095c.07,1.2,1.724,2.1.681,3.556-.752,1.048,1.93,2.087.194,3.506-.025-.433-.039-.684-.053-.934l-.352-.06-1.475,3.9-2.01-.334c.113-.784.233-1.622.353-2.46l-.188-.036L54.3,65.8l-1.126-1.058c.4.922.674,1.555.814,1.879-.435.869-.761,1.521-.974,1.945.39.186.626.228.692.342.451.781.884,1.571,1.289,2.371.431.85-.077,1.515-1.209,1.71-.183.032-.314.291-.467.455l0-.008A2.556,2.556,0,0,0,51.1,74.574c-.183.237-.039.663-.046,1.176l.764-.569.416.231c-.84,1.218-1.682,2.436-2.662,3.855l-1.9-1.845a1.738,1.738,0,0,0-.056,2.69c.531.47,1.62.463,2.46.67,1.714.979.57,2.249-.238,3.819.018-1.167.03-2.039.043-2.911l-.321.017q-.213,1.013-.425,2.024l-.237-.362-3.453.552c-.106-.337-.412-.778-.322-1.142a9.559,9.559,0,0,1,.869-1.916c.3-.6.962-1.179-.041-1.835-.043.31-.086.62-.136.989a7.91,7.91,0,0,1-2.647.193c-.646-.184-1.054-1.007-1.535-1.513l-1.9,1.134-.333-.153a10.061,10.061,0,0,1,.815-1.66c.522-.715,1.215-1.334,1.746-2.044.125-.168-.1-.535-.174-.825L40,76.716,38.955,74.3l.512-.129q.037.388.076.777c.653-.9,1.409-1.972,1.147-2.812-.2-.634-.335-1,.055-1.532.12-.164.086-.412.122-.622l-.382-.08-.8,2.7-.319-.09q.771-2.454,1.541-4.907c-.582.553-.936,1.224-1.451,1.784a1.442,1.442,0,0,1-1.141.326,19.085,19.085,0,0,1-2.459-2.114c-.3-.3-.216-.921-.539-1.172a9.9,9.9,0,0,1-3.126-4.671c-.321-.872-.764-.952-1.548-.577-3.348,1.6-6.71,3.184-10.027,4.833C19.639,66.494,18.258,67.039,17.925,67.76Zm45.83,11.094c-.154.5-.135,1.006-.41,1.215-.532.4-1.078,1.151-2,.428-.679-.529-.683-1.145-.1-2.53l2.975-1.251C65.317,77.516,65.213,78.265,63.755,78.854Zm2.1,1.73c-.741-.654-.454-1.469.863-2.675.134.859.249,1.6.368,2.371.052.333.1.671.16,1.029A4.309,4.309,0,0,1,65.858,80.584Zm2.089-14.658.566.134q-.4,1.287-.8,2.575l-.554-.131Zm-32.6-22.84c-.775-.416-.874-.9.323-1.61.307.757.55,1.358.793,1.958A6.127,6.127,0,0,1,35.345,43.086ZM57.534,32.624c-.323-.152-.791-.444-.853-.389-.928.815-1.95-.255-2.419-.085-1.618.587-1.413-.6-1.942-1.245l-2.769,1.458-.524-.595c-1.374.193-2.547.283-3.663.549-.511.122-.36,1.18-1.4.884a2.284,2.284,0,0,0-1.129.129c-.866.249-1.925.072-2.427,1.105a1.277,1.277,0,0,1-1.841.7c-.119-.059-.415.1-.6.2-.485.256-.954.535-1.511.851.047-.583.077-.958.107-1.334l-.32-.054c-.151.263-.229.612-.471.768a2.29,2.29,0,0,1-1.176.355c-.179,0-.513-.429-.511-.661a37.456,37.456,0,0,1,.189-3.744c.132-1.2,1.59-1.146,2.42-1.627,1.048-.608,2.238-.922,1.483-2.564,1.637-.263,3.124-.5,4.609-.74,1.175-.192,2.348-.395,3.614-.609.163.071.525.211.869.379a3.78,3.78,0,0,1,1.079.6c.891.938.866.957,2.566.206l-1.522-.34-.073-.377,2.3-.328.176-.621a15.523,15.523,0,0,1,3.005.081c1.567.342,1.441,1.759,1.92,2.764.554,1.162,1.008,2.36,1.528,3.6Zm5.221,1.446-1.27-1.189c-.583-.147-.55-.168-2.037-1.95-1.278-1.532,1.525-1.29,1.115-2.112a14.279,14.279,0,0,0,1.637.291c.742.043,1.308.17,1.165.976l.029.006c-.28.433-.467,1.068-.88,1.209-.946.324-.95.926-1.01,1.582.107-.15.183-.4.328-.435,1.874-.452,2.091-.749,1.6-2.349a6.1,6.1,0,0,1,1.406.322,13.262,13.262,0,0,1-.381,2.765c-.057.238-.5.406-.833.662L63,32.922Zm-.293,8.588-2.379-1.665C61.649,40.495,62.631,41.122,62.462,42.658Zm-1.469-.326-3.74-.382C58.948,41.08,59.746,41.16,60.993,42.332ZM57.66,47.481c-.376-1.359-.511-2.767-.741-4.089a9.1,9.1,0,0,0,2.065.292c.271-.015.492-.677.828-1.183.3.411.574.8.965,1.34.06.461.139,1.061.218,1.662l.413.048.983-1.57c1.072,2.314-.342,4.271-.17,6.449.369.179.167,1.635-.672,2.651C58.564,52.1,58.27,49.682,57.66,47.481Zm2.057,19.841a3.943,3.943,0,0,0,1.629-4.213,4.378,4.378,0,0,1,0-1.024l2.488.653c.007-.47.011-.724.015-.985l-1.261.05a18.317,18.317,0,0,0,.151-1.917,2.342,2.342,0,0,0-.3-1.243C61.6,57.4,60.61,56.23,59.8,54.975a5.789,5.789,0,0,1-.487-1.71l.421-.168c.862,1.019,1.713,2.045,2.59,3.054.275.316.73.547.895.891.129.27-.175.677-.091.983.664,2.42,1.376,4.831,2.073,7.246l.447-.07c.113-.175.225-.349.375-.58.082.177.2.3.178.405C66,66.067,65.727,67.1,65.6,68.148a1.233,1.233,0,0,0,.48,1.051,4.181,4.181,0,0,1,2.412,3.3,23.478,23.478,0,0,0,.665,2.961c-.709-.207-1.517-.555-1.605-.449a6.066,6.066,0,0,0-.744,1.556c-2.649-.385-1.526-2.364-1.958-3.912-.954,2.158-3.593,2.669-4.892,4.442l-.327-.165a10.834,10.834,0,0,0,0-2.415c-.238-1.1-.74-2.161-1.083-3.249A3.175,3.175,0,0,1,59.717,67.322Zm-7,10.27c1.545-1.348.051-2.817.59-4.128.357.633.666,1.29,1.084,1.891.529.757.888,1.383,0,2.208-.563.525.352,2.507,1.273,3.171l-1.034.631c-.27-.592-.545-1.193-.964-2.109-.191.617-.262.843-.334,1.076-.108-.035-.261-.054-.267-.091C52.913,79.333,52.266,77.986,52.718,77.592Zm.77,3.169,1.139.635c.594,1.683-.482,2.808-1.768,3.8C51.271,82.378,51.377,81.839,53.488,80.761Z"/><path class="cls-2" d="M14.109,81.228a8.938,8.938,0,0,0,.754,1.239c.265.422.624.834.489,1.412-.018.077.055.179.095.265a4.007,4.007,0,0,1,.2.386,3,3,0,0,0,.125.494,2.214,2.214,0,0,0,.367.4c-.041.108-.068.176-.092.244a1.458,1.458,0,0,0,.784,2c.537.263,1.038.6,1.55.905.02.14.035.252.054.388.628-.024,1.207.024,1.516.635.27.042.511.071.747.119a1.023,1.023,0,0,1,.4.137,2.522,2.522,0,0,0,1.076.395c.525.094,1.066.12,1.58.253a8.473,8.473,0,0,1,1.725.5,2.816,2.816,0,0,1,1.07.85,2.137,2.137,0,0,0,1.121.76.85.85,0,0,1,.318.15c.2.192.39.369.7.223.047-.022.158.077.23.132a4.15,4.15,0,0,0,1.2.471c.624-.144,1.307.042,1.843-.362a1.459,1.459,0,0,1,.742.49,1.181,1.181,0,0,0,.352.231,5.737,5.737,0,0,1,1.543.915.9.9,0,0,0,.411.273,2.555,2.555,0,0,1,1.173.547,1.754,1.754,0,0,0,.729.283,4.163,4.163,0,0,1,1.223.436,5.806,5.806,0,0,0,1.055.468,6.365,6.365,0,0,1,1.019.556.37.37,0,0,0,.066.033,14.171,14.171,0,0,0,2.794.739.484.484,0,0,1,.327.131c.244.332.622.359.962.472.437.145.874.291,1.317.414a1.024,1.024,0,0,0,.5.023,1.994,1.994,0,0,1,1.6.289c.162.1.373.12.539.217a1.107,1.107,0,0,0,1.231.112.2.2,0,0,1,.141-.021,1.443,1.443,0,0,0,1.106-.245,2.616,2.616,0,0,1,.412-.121.889.889,0,0,0,.323-.133c.421-.379,1.048-.39,1.436-.825a.227.227,0,0,1,.134-.052,2.753,2.753,0,0,0,.641-.07c.169-.06.4.056.583.09L55.5,97.5c.122.059.209.139.293.136a1.654,1.654,0,0,0,1.032-.213,1.826,1.826,0,0,1,1.41-.468,1.536,1.536,0,0,0,.288-.034c.338-.017.676-.041,1.014-.038a1.266,1.266,0,0,0,.762-.193,1.155,1.155,0,0,1,.456-.214,1.593,1.593,0,0,0,.825-.428,1.623,1.623,0,0,1,1.349-.414,1.54,1.54,0,0,0,.85-.127c.151-.061.378-.13.486-.061a.852.852,0,0,0,.825,0,1.289,1.289,0,0,1,1.085.064.865.865,0,0,0,.112-.047,3.014,3.014,0,0,1,1.471-.744c.115-.009.237-.153.325-.261.122-.15.2-.339.324-.485.089-.1.23-.234.345-.232.6.015,1.008-.462,1.555-.567.239-.267.555-.232.869-.247a2.8,2.8,0,0,0,1.563-.537c.4-.3.772-.657,1.151-.994.326-.291.638-.6.971-.881a.546.546,0,0,1,.378-.162c.443.107.787-.228,1.2-.234a.249.249,0,0,0,.18-.11c.242-.418.833-.407,1.042-.871.029-.065.167-.08.256-.116.156-.063.318-.113.467-.187.3-.152.6-.317.895-.475a2.271,2.271,0,0,0,.86-.524.507.507,0,0,1,.53-.163.8.8,0,0,0,.829-.345A1.02,1.02,0,0,1,82.727,87a1.744,1.744,0,0,0,.644.046,1,1,0,0,0,.927-.959c.009-.1-.011-.2,0-.293a.56.56,0,0,1,.39-.559c.251-.074.3-.267.318-.511a9.294,9.294,0,0,1,.155-1.087.622.622,0,0,1,.186-.382,12.391,12.391,0,0,0,1.163-1.067,3.3,3.3,0,0,0,.3-.3c.112-.122.215-.252.326-.375a2.033,2.033,0,0,0,.242-.26A8.384,8.384,0,0,1,89.01,79.3a2.5,2.5,0,0,0,.6-.725,5.939,5.939,0,0,1,1.624-2.2.31.31,0,0,0,.131-.172c.054-.42.4-.6.68-.811.239-.177.24-.506.436-.65a1.574,1.574,0,0,0,.548-.555,2.482,2.482,0,0,1,.255-.349c.325.2.611.382.9.56.607.376.683.351.916-.3a.892.892,0,0,1,.056-.135,1.514,1.514,0,0,0,.046-1.346.9.9,0,0,1-.067-.569,5.109,5.109,0,0,0,.262-2.006.505.505,0,0,1,.029-.216,4.076,4.076,0,0,0,.112-1.374.627.627,0,0,1,.133-.394A14.344,14.344,0,0,1,96.735,66.9a3.339,3.339,0,0,0,.661-.861c.181-.336.028-.719.213-1.045a.293.293,0,0,0-.063-.271,1.6,1.6,0,0,0-1.242-.6c-.108.013-.19.016-.217-.158a1.692,1.692,0,0,1,.193-.163.631.631,0,0,0,.3-.736,1.658,1.658,0,0,1,.206-1.261,1.962,1.962,0,0,0,.267-.9,17.379,17.379,0,0,0,.059-1.826,1.007,1.007,0,0,1,.208-.817.451.451,0,0,0,.079-.341,5.147,5.147,0,0,1,.176-1.887,3.272,3.272,0,0,1,.746-1.678c-.019-.325-.015-.619-.059-.905a1.783,1.783,0,0,1,.129-.928c.04-.105-.01-.241-.005-.362a3.5,3.5,0,0,1,.043-.434c.058-.348.274-.682.091-1.052.159-1.136.185-2.29.441-3.414a5.893,5.893,0,0,0,.189-1.079.863.863,0,0,1,.5-.884.594.594,0,0,0,.314-.75,4.794,4.794,0,0,0-.593-1.485c-.535-.7-1.009-1.439-1.556-2.124a5.953,5.953,0,0,1-.923-1.973,3.432,3.432,0,0,0-.525-1.111,3.7,3.7,0,0,1-.6-1.147,2.146,2.146,0,0,1,.027-1.489,1.261,1.261,0,0,0,.062-.5.475.475,0,0,1,.355-.555.8.8,0,0,0,.595-.758,2.4,2.4,0,0,0-.635-1.889,7.807,7.807,0,0,1-.826-1.015,4.556,4.556,0,0,1-.594-.82,3.1,3.1,0,0,0-.549-.766,5.8,5.8,0,0,1-1.416-2.35,3.114,3.114,0,0,0-.826-1.436,12.035,12.035,0,0,1-1.35-1.613,1.413,1.413,0,0,1-.177-.393,3.152,3.152,0,0,0-.1-.426,10.98,10.98,0,0,0-.728-1.515c-.268-.376-.524-.762-.757-1.161a23.205,23.205,0,0,0-1.387-2.144,1.4,1.4,0,0,1-.147-.251,3.124,3.124,0,0,0-.848-1.167,1.451,1.451,0,0,1-.25-.349c-.092-.141-.17-.292-.27-.427a3,3,0,0,0-1.046-1.1c-.181-.087-.281-.336-.452-.463-.427-.317-.844-.645-1.283-.947a8.288,8.288,0,0,0-1.441-.85.773.773,0,0,1-.394-.3,1.12,1.12,0,0,0-.868-.588c-.352-.081-.706-.16-1.05-.267a3.794,3.794,0,0,1-1.3-.631,6.637,6.637,0,0,1-1.21-1.24c-.19-.255-.391-.5-.59-.747a1.224,1.224,0,0,0-.858-.488,7.37,7.37,0,0,1-1.281-.27,1.109,1.109,0,0,1-.6-.37c-.2-.319-.51-.521-.732-.808a1.452,1.452,0,0,0-1.015-.638.629.629,0,0,1-.57-.4,1.607,1.607,0,0,0-.568-.738,4.816,4.816,0,0,1-.76-.785c-.4-.576-1.092-.677-1.59-1.084-.058-.047-.189-.028-.277-.007a1.432,1.432,0,0,1-1.5-.509.694.694,0,0,0-.148-.161.837.837,0,0,0-.326-.133c-.53-.043-1.064-.059-1.594-.1a3.38,3.38,0,0,1-.714-.132,2.006,2.006,0,0,0-1.8.11.391.391,0,0,1-.2.07,4.913,4.913,0,0,1-1.01-.041,6.817,6.817,0,0,0-1-.142,1.289,1.289,0,0,1-.811-.286.8.8,0,0,0-.886-.127,1.666,1.666,0,0,1-1.138-.01.962.962,0,0,0-.77.024,6.55,6.55,0,0,1-.607.249,1.55,1.55,0,0,1-1.271-.038,4.872,4.872,0,0,0-.756-.232,1.905,1.905,0,0,1-.407-.143.586.586,0,0,0-.549-.083.389.389,0,0,1-.274-.039.643.643,0,0,0-.557-.007,3.589,3.589,0,0,1-1.858.189,5.385,5.385,0,0,0-1.737-.062,4.5,4.5,0,0,1-.507.009,2.264,2.264,0,0,0-.647.053.887.887,0,0,1-.761-.041c-.28-.143-.6-.215-.881-.349A2.545,2.545,0,0,0,43.932.776a1.03,1.03,0,0,1-.7-.147A2.752,2.752,0,0,0,42.065.264C41.633.218,41.207.119,40.778.04a.953.953,0,0,0-.64.031A2.073,2.073,0,0,1,39.754.2c-.335.347-.592.637-.874.9a1.728,1.728,0,0,1-1.056.441c-.6.049-1.207.054-1.811.082a1.117,1.117,0,0,0-.212.047c-.258.065-.52.121-.774.2a1.451,1.451,0,0,0-.457.2,2.461,2.461,0,0,1-1.276.488,4.176,4.176,0,0,0-1.882.5,2.943,2.943,0,0,1-.418.119,5.977,5.977,0,0,0-1.05.487c-.179.119-.217.439-.389.585-.2.165-.525.181-.7.359-.426.441-.947.758-1.392,1.162a3.164,3.164,0,0,1-1.748.808c-.554.078-1.111.136-1.661.232a1.213,1.213,0,0,0-.666.25,14.527,14.527,0,0,0-1.41,1.364.723.723,0,0,1-.751.353.822.822,0,0,0-.684.179,8.946,8.946,0,0,0-1.124.9,6.8,6.8,0,0,1-1.594,1.253,2.083,2.083,0,0,0-1.009.908,3.25,3.25,0,0,1-.788,1.025,3.826,3.826,0,0,0-.884,1.142c-.1.22-.384.349-.56.542-.192.21-.125.556-.42.744a.962.962,0,0,0-.409,1.019c.086.666-.07.9-.712,1.045a2.361,2.361,0,0,0-1.056.613c-.2.177-.409.338-.616.5-.076.06-.191.093-.231.169a1.476,1.476,0,0,1-.85.644.735.735,0,0,0-.492.669c-.015.216-.066.43-.1.618-.4.394-.79.76-1.165,1.136a.9.9,0,0,0-.242.351,2.457,2.457,0,0,1-.552,1.09.774.774,0,0,0-.091.2,7.141,7.141,0,0,1-.532,1.038,3.478,3.478,0,0,0-.43,1.355c-.063.272-.086.572-.126.86a.955.955,0,0,1-.67.868,1.909,1.909,0,0,0-.818.6,7.541,7.541,0,0,0-1.114,1.434.913.913,0,0,1-.529.476,1.22,1.22,0,0,0-.411.281A7.181,7.181,0,0,0,1.782,32.89c-.029.061-.005.145-.015.217-.049.337-.082.678-.158,1.009a1.187,1.187,0,0,0,.007.715.885.885,0,0,1-.187.948,1.481,1.481,0,0,0-.351,1.078,1.933,1.933,0,0,1-.323,1.47,1.465,1.465,0,0,1,.088,1.289,6.571,6.571,0,0,0-.317,1.262,4.626,4.626,0,0,0,.023,2.176A1.974,1.974,0,0,1,.461,44.4a6.126,6.126,0,0,0-.236.617,3.869,3.869,0,0,0-.137,2.09,3.594,3.594,0,0,1,.131,1A2.254,2.254,0,0,1,.1,49.116a.6.6,0,0,0-.018.359,7.492,7.492,0,0,0,.2.776c.073.235.189.49.067.71-.225.4-.112.865-.27,1.278a1.094,1.094,0,0,0,.024.505,2.545,2.545,0,0,0,.14.639.9.9,0,0,1,.012.71,1.037,1.037,0,0,0,0,.718c.032.09.08.206.049.28a1.236,1.236,0,0,0,.133.985.793.793,0,0,1,.026.767.336.336,0,0,0-.012.212c.108.6.2,1.2.34,1.8a1.978,1.978,0,0,0,.634,1.283c.288.2.285.486.4.742.13.283.4.5.379.853a2.906,2.906,0,0,1-.043.359c-.019.108-.052.214-.08.323l.892.2c-.012.347,0,.686.329.788a2.006,2.006,0,0,1,.834.676c-.031.171-.06.333-.084.464.095.151.174.273.251.4.21.341.18.828.622,1.028a.072.072,0,0,1,.025.065c-.053.231.082.36.236.494a.352.352,0,0,1,.122.255c-.057.576.279,1.162-.072,1.692.169.283.448.451.421.8-.006.076.077.177.144.239.177.165.376.307.551.473a1.61,1.61,0,0,1,.371.436c.093.193.071.445.173.629a2.316,2.316,0,0,0,.446.444.11.11,0,0,1,.029.066c.012.313.3.409.474.55a1.673,1.673,0,0,0-.015.268c.051.394-.128.828.218,1.178.061.063.019.233.018.353a7.176,7.176,0,0,0,0,1.311,8.287,8.287,0,0,1,.136.854,1.713,1.713,0,0,0,.4,1.14c.291.283.4.832.971.776.05-.005.117.077.165.129a2.473,2.473,0,0,0,.973.616,1.191,1.191,0,0,1,.721.574.864.864,0,0,0,.327.27c.368.234.751.445,1.11.692a1.872,1.872,0,0,0,.489.3A1.192,1.192,0,0,1,14.109,81.228Zm.036-36.216c.2-.73.349-1.474.546-2.2a1.916,1.916,0,0,0-.005-1.072,9.455,9.455,0,0,1-.14-2.965,1.323,1.323,0,0,1,.118-.469c.254-.6.521-1.189.78-1.783.248-.566.48-1.14,1.082-1.361a.71.71,0,0,0,.393-.509,6.905,6.905,0,0,0,.361-1.634,3.4,3.4,0,0,1,.846-2.121,6.768,6.768,0,0,0,1.329-2.188,2.4,2.4,0,0,1,.963-1.26,3.787,3.787,0,0,0,1.021-1.085,11.909,11.909,0,0,1,1.043-1.69,3.659,3.659,0,0,0,.42-1.206,2.316,2.316,0,0,0,.889-1.934l-.237-.233a4.352,4.352,0,0,0,1.358-1.906,3.94,3.94,0,0,1,.663-1.156c.447-.537.782-1.158,1.2-1.715.075-.1.118-.248.209-.319.264-.2.56-.361.817-.575s.454-.545.732-.7a1.549,1.549,0,0,0,.779-.812c.29,0,.553.007.818.013a1.692,1.692,0,0,0,1.177-.313,1.711,1.711,0,0,1,1.556-.183,2.237,2.237,0,0,0,1.311.012,3.109,3.109,0,0,1,.621-.038.812.812,0,0,0,.431-.085A3.344,3.344,0,0,1,36.552,13a.7.7,0,0,0,.372-.242,1.179,1.179,0,0,1,1.016-.5,2.724,2.724,0,0,0,.86-.2,5.2,5.2,0,0,1,1.646-.374A8.025,8.025,0,0,0,42,11.323c.2-.051.4-.133.6-.193.886-.264,1.777-.515,2.66-.794a1.628,1.628,0,0,1,.96-.085,1.2,1.2,0,0,0,.519.01,2.307,2.307,0,0,1,1.8.3c.243.163.594.129.835.294a2.161,2.161,0,0,0,1.7.225,12.324,12.324,0,0,0,1.589-.172,1.429,1.429,0,0,1,.791.051,1.906,1.906,0,0,0,1.863-.3c.338-.257.694-.085.723.354a1.6,1.6,0,0,0,.963,1.4,6.774,6.774,0,0,1,1.339,1.136,2.157,2.157,0,0,0,1.369.608,1.513,1.513,0,0,1,.918.326,1.391,1.391,0,0,0,1,.321c.207,0,.415.005.623.011a1.217,1.217,0,0,1,.442.03,9.48,9.48,0,0,0,1.125.558c.367.107.776.057,1.094.346a2.233,2.233,0,0,0,1.242.489,2.894,2.894,0,0,1,1.715.9,2.344,2.344,0,0,0,1.388.8,2.854,2.854,0,0,1,2.058,1.231.77.77,0,0,0,.691.367c.73-.027,1.164.568,1.673.994.1.083.109.3.136.377.62.433,1.193.826,1.756,1.234a1.157,1.157,0,0,1,.307.357c.242.423.475.845.956.975a.226.226,0,0,1,.135.122c.221.658.754.771,1.278.888a4,4,0,0,1,.8,1.963.955.955,0,0,0,.154.456.915.915,0,0,1,.069.757,1.918,1.918,0,0,0,.121,1.346,1.979,1.979,0,0,1,.115.869,2.714,2.714,0,0,0,2.317,2.775c.2.024.41.044.623.066a2.537,2.537,0,0,1,.388,1.509,4.156,4.156,0,0,0,.363,1.92,5.669,5.669,0,0,1,.3,1.239c.061.322.088.653.12.981a1.224,1.224,0,0,1,.006.489,6.958,6.958,0,0,0-.159,1.875,2.03,2.03,0,0,0,.342,1.3q-.1,6.979-.208,13.958a13.29,13.29,0,0,0-.563,2.692,4.931,4.931,0,0,1-.343,1.531,5.262,5.262,0,0,0-.4,1.816,2.125,2.125,0,0,1-.456,1.349,9.513,9.513,0,0,0-1.824,3.8,1.784,1.784,0,0,1-.062.208l.007,0a30.358,30.358,0,0,1-7.983,11.558c-.084-.214-.165-.421-.245-.627a7.658,7.658,0,0,1-.977.593A2.769,2.769,0,0,1,69.269,81.3c-1.54.929-2.985,1.976-4.21,2.795l-2.685-1.338a16.956,16.956,0,0,1-.975,2.464,2.326,2.326,0,0,1-1.308,1.038c-1.592.372-3.194.711-4.8,1.043a6.437,6.437,0,0,0-.976.544,1.516,1.516,0,0,1-1.525.28.4.4,0,0,0-.263-.01,22.138,22.138,0,0,0-2.335.585,1.906,1.906,0,0,1-.517.125c-.351.048-.705.084-1.058.116a.588.588,0,0,1-.348-.019c-.515-.326-1.1-.165-1.64-.327-.313-.094-.636-.147-.95-.237a.489.489,0,0,1-.3-.186l-.006-.01a76.773,76.773,0,0,1-7.755-1.826q-1.17-.4-2.272-.859c-.127.052-.256.1-.382.156a1.264,1.264,0,0,1-1.281-.125,5.987,5.987,0,0,0-2.133-.946.647.647,0,0,1-.512-.343c-.36-.741-1.081-.88-1.672-1.217-.208-.119-.513-.027-.826-.031A.94.94,0,0,0,28,82.2a.791.791,0,0,1-.414-.614,1.908,1.908,0,0,0-.453-.838c-.145-.187-.28-.383-.415-.579A35.83,35.83,0,0,1,19.106,70.8l-.008-.013c-.268-.462-.622-.97-.887-1.465-.033-.145-.062-.292-.088-.439-.067-.374-.126-.752-.2-1.125a8.329,8.329,0,0,0-.194-.811,6.24,6.24,0,0,1-.339-1.116c-.015-.13-.091-.279-.056-.385A2.606,2.606,0,0,0,17.22,63.9a.924.924,0,0,1,.015-.484,1.759,1.759,0,0,0-.342-1.654A26.146,26.146,0,0,1,15.336,59a1.8,1.8,0,0,1-.17-.737,10.391,10.391,0,0,0-.282-2.251,5.157,5.157,0,0,1-.1-1.276,2.27,2.27,0,0,0-.193-1.154.985.985,0,0,1-.106-.473c0-1.088-.112-2.166-.2-3.247a5.552,5.552,0,0,1,.027-.589c.005-.2.07-.448-.011-.588a2.63,2.63,0,0,1-.1-1.721,2.349,2.349,0,0,0-.083-.783A2.309,2.309,0,0,1,14.145,45.012Z"/><path class="cls-2" d="M67.089,80.28a4.182,4.182,0,0,0-.464.251.4.4,0,0,1-.252.089,1.784,1.784,0,0,0-.515-.036,4.309,4.309,0,0,0,1.391.725C67.193,80.951,67.141,80.613,67.089,80.28Z"/><path class="cls-3" d="M65.858,80.584a1.784,1.784,0,0,1,.515.036.4.4,0,0,0,.252-.089,4.182,4.182,0,0,1,.464-.251c-.119-.772-.234-1.512-.368-2.371C65.4,79.115,65.117,79.93,65.858,80.584Z"/><path class="cls-3" d="M38.562,35.138a1.277,1.277,0,0,0,1.841-.7c.5-1.033,1.561-.856,2.427-1.105a2.284,2.284,0,0,1,1.129-.129c1.045.3.894-.762,1.4-.884,1.116-.266,2.289-.356,3.663-.549l.524.595,2.769-1.458c.529.643.324,1.832,1.942,1.245.469-.17,1.491.9,2.419.085.062-.055.53.237.853.389l.713-.688c-.52-1.236-.974-2.434-1.528-3.6-.479-1-.353-2.422-1.92-2.764a15.523,15.523,0,0,0-3.005-.081l-.176.621-2.3.328.073.377,1.522.34c-1.7.751-1.675.732-2.566-.206a3.78,3.78,0,0,0-1.079-.6c-.344-.168-.706-.308-.869-.379-1.266.214-2.439.417-3.614.609-1.485.243-2.972.477-4.609.74.755,1.642-.435,1.956-1.483,2.564-.83.481-2.288.424-2.42,1.627a37.456,37.456,0,0,0-.189,3.744c0,.232.332.661.511.661a2.29,2.29,0,0,0,1.176-.355c.242-.156.32-.5.471-.768l.32.054c-.03.376-.06.751-.107,1.334.557-.316,1.026-.595,1.511-.851C38.147,35.238,38.443,35.079,38.562,35.138Z"/><path class="cls-3" d="M35.345,43.086a6.127,6.127,0,0,0,1.116.348c-.243-.6-.486-1.2-.793-1.958C34.471,42.19,34.57,42.67,35.345,43.086Z"/><path class="cls-3" d="M71.173,76.879l-.665.055a7.384,7.384,0,0,1,.255,1.989,7.658,7.658,0,0,0,.977-.593C71.546,77.833,71.359,77.356,71.173,76.879Z"/><path class="cls-3" d="M52.859,85.192c1.286-.988,2.362-2.113,1.768-3.8l-1.139-.635C51.377,81.839,51.271,82.378,52.859,85.192Z"/><path class="cls-3" d="M52.718,77.592c-.452.394.195,1.741.353,2.649.006.037.159.056.267.091.072-.233.143-.459.334-1.076.419.916.694,1.517.964,2.109l1.034-.631c-.921-.664-1.836-2.646-1.273-3.171.883-.825.524-1.451,0-2.208-.418-.6-.727-1.258-1.084-1.891C52.769,74.775,54.263,76.244,52.718,77.592Z"/><path class="cls-3" d="M57.253,41.95l3.74.382C59.746,41.16,58.948,41.08,57.253,41.95Z"/><path class="cls-3" d="M64.212,76.716l-2.975,1.251c-.58,1.385-.576,2,.1,2.53.927.723,1.473-.024,2-.428.275-.209.256-.711.41-1.215C65.213,78.265,65.317,77.516,64.212,76.716Z"/><path class="cls-3" d="M57.66,47.481c.61,2.2.9,4.617,3.889,5.6.839-1.016,1.041-2.472.672-2.651-.172-2.178,1.242-4.135.17-6.449l-.983,1.57L61,45.5c-.079-.6-.158-1.2-.218-1.662-.391-.543-.67-.929-.965-1.34-.336.506-.557,1.168-.828,1.183a9.1,9.1,0,0,1-2.065-.292C57.149,44.714,57.284,46.122,57.66,47.481Z"/><path class="cls-3" d="M59.717,67.322a3.175,3.175,0,0,0-1.164,3.941c.343,1.088.845,2.147,1.083,3.249a10.834,10.834,0,0,1,0,2.415l.327.165c1.3-1.773,3.938-2.284,4.892-4.442.432,1.548-.691,3.527,1.958,3.912a6.066,6.066,0,0,1,.744-1.556c.088-.106.9.242,1.605.449a23.478,23.478,0,0,1-.665-2.961,4.181,4.181,0,0,0-2.412-3.3,1.233,1.233,0,0,1-.48-1.051c.123-1.048.4-2.081.592-3.122.02-.1-.1-.228-.178-.405-.15.231-.262.405-.375.58l-.447.07c-.7-2.415-1.409-4.826-2.073-7.246-.084-.306.22-.713.091-.983-.165-.344-.62-.575-.895-.891-.877-1.009-1.728-2.035-2.59-3.054l-.421.168a5.789,5.789,0,0,0,.487,1.71c.815,1.255,1.8,2.426,2.645,3.668a2.342,2.342,0,0,1,.3,1.243,18.317,18.317,0,0,1-.151,1.917l1.261-.05c0,.261-.008.515-.015.985l-2.488-.653a4.378,4.378,0,0,0,0,1.024A3.943,3.943,0,0,1,59.717,67.322Z"/><path class="cls-3" d="M83.635,38.864a1.224,1.224,0,0,0-.006-.489c-.032-.328-.059-.659-.12-.981a5.669,5.669,0,0,0-.3-1.239,4.156,4.156,0,0,1-.363-1.92,2.537,2.537,0,0,0-.388-1.509c-.213-.022-.418-.042-.623-.066a2.714,2.714,0,0,1-2.317-2.775,1.979,1.979,0,0,0-.115-.869,1.918,1.918,0,0,1-.121-1.346.915.915,0,0,0-.069-.757.955.955,0,0,1-.154-.456,4,4,0,0,0-.8-1.963c-.524-.117-1.057-.23-1.278-.888a.226.226,0,0,0-.135-.122c-.481-.13-.714-.552-.956-.975a1.157,1.157,0,0,0-.307-.357c-.563-.408-1.136-.8-1.756-1.234-.027-.079-.037-.294-.136-.377-.509-.426-.943-1.021-1.673-.994a.77.77,0,0,1-.691-.367,2.854,2.854,0,0,0-2.058-1.231,2.344,2.344,0,0,1-1.388-.8,2.894,2.894,0,0,0-1.715-.9,2.233,2.233,0,0,1-1.242-.489c-.318-.289-.727-.239-1.094-.346A9.48,9.48,0,0,1,62.7,14.85a1.217,1.217,0,0,0-.442-.03c-.208-.006-.416-.009-.623-.011a1.391,1.391,0,0,1-1-.321,1.513,1.513,0,0,0-.918-.326,2.157,2.157,0,0,1-1.369-.608,6.774,6.774,0,0,0-1.339-1.136,1.6,1.6,0,0,1-.963-1.4c-.029-.439-.385-.611-.723-.354a1.906,1.906,0,0,1-1.863.3,1.429,1.429,0,0,0-.791-.051,12.324,12.324,0,0,1-1.589.172,2.161,2.161,0,0,1-1.7-.225c-.241-.165-.592-.131-.835-.294a2.307,2.307,0,0,0-1.8-.3,1.2,1.2,0,0,1-.519-.01,1.628,1.628,0,0,0-.96.085c-.883.279-1.774.53-2.66.794-.2.06-.395.142-.6.193a8.025,8.025,0,0,1-1.558.352,5.2,5.2,0,0,0-1.646.374,2.724,2.724,0,0,1-.86.2,1.179,1.179,0,0,0-1.016.5.7.7,0,0,1-.372.242,3.344,3.344,0,0,0-1.33.524.812.812,0,0,1-.431.085,3.109,3.109,0,0,0-.621.038,2.237,2.237,0,0,1-1.311-.012,1.711,1.711,0,0,0-1.556.183,1.692,1.692,0,0,1-1.177.313c-.265-.006-.528-.008-.818-.013a1.549,1.549,0,0,1-.779.812c-.278.154-.474.485-.732.7s-.553.371-.817.575c-.091.071-.134.218-.209.319-.414.557-.749,1.178-1.2,1.715a3.94,3.94,0,0,0-.663,1.156A4.352,4.352,0,0,1,23.554,21.3l.237.233a2.316,2.316,0,0,1-.889,1.934,3.659,3.659,0,0,1-.42,1.206,11.909,11.909,0,0,0-1.043,1.69,3.787,3.787,0,0,1-1.021,1.085,2.4,2.4,0,0,0-.963,1.26A6.768,6.768,0,0,1,18.126,30.9a3.4,3.4,0,0,0-.846,2.121,6.905,6.905,0,0,1-.361,1.634.71.71,0,0,1-.393.509c-.6.221-.834.8-1.082,1.361-.259.594-.526,1.185-.78,1.783a1.323,1.323,0,0,0-.118.469,9.455,9.455,0,0,0,.14,2.965,1.916,1.916,0,0,1,.005,1.072c-.2.729-.351,1.473-.546,2.2a2.309,2.309,0,0,0-.032,1.173,2.349,2.349,0,0,1,.083.783,2.63,2.63,0,0,0,.1,1.721c.081.14.016.389.011.588a5.552,5.552,0,0,0-.027.589c.087,1.081.2,2.159.2,3.247a.985.985,0,0,0,.106.473,2.27,2.27,0,0,1,.193,1.154,5.157,5.157,0,0,0,.1,1.276,10.391,10.391,0,0,1,.282,2.251,1.8,1.8,0,0,0,.17.737,26.146,26.146,0,0,0,1.557,2.757,1.759,1.759,0,0,1,.342,1.654.924.924,0,0,0-.015.484,2.606,2.606,0,0,1,.116,1.549c-.035.106.041.255.056.385a6.24,6.24,0,0,0,.339,1.116,8.329,8.329,0,0,1,.194.811c.333-.721,1.714-1.266,2.693-1.753,3.317-1.649,6.679-3.231,10.027-4.833.784-.375,1.227-.3,1.548.577a9.9,9.9,0,0,0,3.126,4.671c.323.251.241.868.539,1.172a19.085,19.085,0,0,0,2.459,2.114,1.442,1.442,0,0,0,1.141-.326c.515-.56.869-1.231,1.451-1.784q-.77,2.454-1.541,4.907l.319.09.8-2.7.382.08c-.036.21,0,.458-.122.622-.39.531-.253.9-.055,1.532.262.84-.494,1.916-1.147,2.812q-.039-.389-.076-.777l-.512.129L40,76.716l1.786-1.567c.07.29.3.657.174.825-.531.71-1.224,1.329-1.746,2.044a10.061,10.061,0,0,0-.815,1.66l.333.153,1.9-1.134c.481.506.889,1.329,1.535,1.513a7.91,7.91,0,0,0,2.647-.193c.05-.369.093-.679.136-.989,1,.656.346,1.233.041,1.835a9.559,9.559,0,0,0-.869,1.916c-.09.364.216.805.322,1.142l3.453-.552.237.362q.213-1.012.425-2.024l.321-.017c-.013.872-.025,1.744-.043,2.911.808-1.57,1.952-2.84.238-3.819-.84-.207-1.929-.2-2.46-.67a1.738,1.738,0,0,1,.056-2.69l1.9,1.845c.98-1.419,1.822-2.637,2.662-3.855l-.416-.231-.764.569c.007-.513-.137-.939.046-1.176a2.556,2.556,0,0,1,2.217-1.141l0,.008c.153-.164.284-.423.467-.455,1.132-.2,1.64-.86,1.209-1.71-.405-.8-.838-1.59-1.289-2.371-.066-.114-.3-.156-.692-.342.213-.424.539-1.076.974-1.945-.14-.324-.414-.957-.814-1.879L54.3,65.8l.944-1.764.188.036c-.12.838-.24,1.676-.353,2.46l2.01.334,1.475-3.9.352.06c.014.25.028.5.053.934,1.736-1.419-.946-2.458-.194-3.506,1.043-1.452-.611-2.359-.681-3.556,0,.027,0,.054,0,.081l-.049-.053a8.011,8.011,0,0,1-2.2.979,1.8,1.8,0,0,1-2.264-1.793l3.321-.434c.35.382.744.814,1.14,1.248.018-.009.036-.02.054-.028a2.975,2.975,0,0,0-.014-1.095c-.116-.329-.469-.83-.746-.846-1.919-.113-3.846-.152-5.769-.148-1.375,0-1.919.548-1.852,1.86A6.114,6.114,0,0,1,47.619,61.3a15.7,15.7,0,0,1-2.995,2.489,5.39,5.39,0,0,1,.29-.841c1.35-2.556,2.677-5.122,4.087-7.654.936-1.681,3.261-2.217,5.25-1.419a6.068,6.068,0,0,0,1.925.06c-.39-1.823-.983-2.143-2.673-1.6L53.317,52a6,6,0,0,1,1.634-.661c2.39-.215,2.822-.819,2.221-2.892-.539-1.856-.934-3.746-1.291-5.636-.2-1.04.937-2.257,2.243-2.53a18.238,18.238,0,0,1,2.281-.3c.757-.06,1.521-.055,2.3-.079.407-1.282-1.062-3.363-2.961-3.692-2.442-.422-4.945-.577-7.423-.833a25.992,25.992,0,0,0-9.24.861c-3.221.83-4.267,2.014-4.5,4.934a27.538,27.538,0,0,1-.849,3.879c-.019.084-.141.2-.111.235,1.419,1.642,0,4.244,2.5,5.523a.646.646,0,0,1,.248.371c.239.712-.281,1.6,1.279,1.928.657.137.931,1.677,1.438,2.7-1.533-.321-1.32-2.73-3.761-1.758,1.056-1.967-.852-2.534-1.872-3.485-.133-.124-.8.189-1.452.358l-1.791-1.243.117-.192a4.169,4.169,0,0,0,.567.185c.506.089,1.016.155,1.524.231-.052-.485-.092-.971-.16-1.454-.046-.335-.284-.712-.174-.991a2.1,2.1,0,0,0-1.13-2.642,7.12,7.12,0,0,1-2.519-2.8,1.756,1.756,0,0,0-1.318-.484c-.663.058-1.471.69-1.9.509A7.5,7.5,0,0,1,26.876,40.3a5.787,5.787,0,0,1-.835-1.621l-.267.421a6.016,6.016,0,0,1-.408-1.591,28.355,28.355,0,0,1,.347-4.764c.169-.863,1.089-1.6,1.343-2.465.241-.828,1.535-.006,1.724-1.128.083-.493,1.9-.71,2.871-1.152a6.215,6.215,0,0,0,2.277-1.372,9.7,9.7,0,0,1,5.509-3.515c4.414-1.134,8.89-1.074,13.4-.984a8.844,8.844,0,0,1,6.452,2.918c.212.221.545.569.761.539,2.29-.321,4.021,1.023,6.014,1.548.673.177,1.092,1.045,1.663,1.568,1.426,1.3,1.025,3.434,2.827,4.617.328.215.3,1.124.1,1.612-1.02,2.539-1.072,2.64-4.689,3.769,1.543,1.347,1.009,2.806.2,4.164a3.235,3.235,0,0,1-1.8,1.43c-1.148.267-1.3.789-1.255,1.637a8.622,8.622,0,0,1-.073,2.629,4.909,4.909,0,0,0,1.309,4.479c1.274,1.494,1.234,3.2,1.8,4.792a13.237,13.237,0,0,1,.337,2.36.786.786,0,0,0,.318.451c1.753,1.236,2.939,2.988,5.3,3.692,2.637.787,5.117,1.974,7.851,3.062a1.784,1.784,0,0,0,.062-.208,9.513,9.513,0,0,1,1.824-3.8,2.125,2.125,0,0,0,.456-1.349,5.262,5.262,0,0,1,.4-1.816,4.931,4.931,0,0,0,.343-1.531A13.29,13.29,0,0,1,83.61,56q.105-6.979.208-13.958a2.03,2.03,0,0,1-.342-1.3A6.958,6.958,0,0,1,83.635,38.864ZM50.166,42.7l.07.013c-.131-.313-.18-.747-.435-.876a12.633,12.633,0,0,0-2.059-.632l2.311-.227-1.928-.708.094-.416,3.343.44a10.938,10.938,0,0,1,.174,2.027c-.043.361-.379.7-.584,1.042l-.877-.643-.026.028h0c-.026-.019-.057-.029-.083-.048l-.741-.131c-.533.532-.893,1.215-1.384,1.294-.515.082-1.155-.416-1.91-.73l-1.113.634A3.765,3.765,0,0,1,50.166,42.7ZM44.727,57.221l.409.134-1.357,3.13-.506-.171Q44,58.768,44.727,57.221Z"/><path class="cls-3" d="M68.513,66.06l-.566-.134-.79,2.578.554.131Q68.113,67.348,68.513,66.06Z"/><path class="cls-3" d="M60.083,40.993l2.379,1.665C62.631,41.122,61.649,40.495,60.083,40.993Z"/><path class="cls-3" d="M59.448,30.931c1.487,1.782,1.454,1.8,2.037,1.95l1.27,1.189L63,32.922l.628.926c.337-.256.776-.424.833-.662a13.262,13.262,0,0,0,.381-2.765,6.1,6.1,0,0,0-1.406-.322c.492,1.6.275,1.9-1.6,2.349-.145.035-.221.285-.328.435.06-.656.064-1.258,1.01-1.582.413-.141.6-.776.88-1.209l-.029-.006c.143-.806-.423-.933-1.165-.976a14.279,14.279,0,0,1-1.637-.291C60.973,29.641,58.17,29.4,59.448,30.931Z"/></svg>