<svg id="base" xmlns="http://www.w3.org/2000/svg" viewBox="0 0 100 100"><defs><style>.cls-1{fill:#f36;}.cls-2{fill:#ffeded;}</style></defs><title>transform-strings</title><path class="cls-1" d="M23.525,8.1a14.849,14.849,0,0,0,2.972-1.7,5.568,5.568,0,0,1,1.713-.946A5.924,5.924,0,0,0,30.236,4.32a2.445,2.445,0,0,1,1.654-.677,11.261,11.261,0,0,0,5.171-1.359,3.013,3.013,0,0,1,1.415-.327,11.715,11.715,0,0,0,2.29-.445c.6-.144,1.178-.352,1.771-.518a1.141,1.141,0,0,1,.487-.048A7.4,7.4,0,0,0,45.829.778a4.2,4.2,0,0,1,.738-.026A8,8,0,0,1,48.042.738c1.343.227,2.7.057,4.043.216a3.15,3.15,0,0,0,.485.07,10.245,10.245,0,0,1,5.277,1.42A25.913,25.913,0,0,0,61.833,4.65a.592.592,0,0,1,.319.181c.656,1.064,1.812,1.352,2.837,1.827.706.328,1.481.508,2.18.849a7.589,7.589,0,0,0,1.992.62c.97.181,1.936.4,2.893.641a4.026,4.026,0,0,1,1.127.474,5.369,5.369,0,0,0,3.212.626,3.314,3.314,0,0,1,1.774.349,9.832,9.832,0,0,0,1.938.8,2.305,2.305,0,0,1,1.7,1.317.608.608,0,0,0,.24.277c.951.573,1.725,1.4,2.738,1.885a2.962,2.962,0,0,1,.6.422c.376.317.743.647,1.106.981.12.109.279.23.313.371.19.8.892,1.263,1.254,1.948.211.4.469.773.684,1.17a.7.7,0,0,1,.113.46c-.451,1.476.382,2.51,1.2,3.552.178.227.382.434.559.663a23.423,23.423,0,0,1,1.771,2.372,6.176,6.176,0,0,1,.938,2.511,3.88,3.88,0,0,0,2.09,3.164c.326.177.659.344.993.507a1.94,1.94,0,0,1,1.1,1.412A8.881,8.881,0,0,0,98.663,37a.914.914,0,0,1,.174.812c-.332.994.224,1.847.477,2.735.089.313.462.546.754.869a1.183,1.183,0,0,0-.182,1.213,1,1,0,0,1-.165.942,2.312,2.312,0,0,0-.331,1.171,11.59,11.59,0,0,0-.252,3.185c-.392,1.159.09,2.383-.254,3.553a.975.975,0,0,0,.147.7,1.055,1.055,0,0,1-.135,1.373,3.4,3.4,0,0,0-.811,2.264,10.136,10.136,0,0,1-.238,1.2,9.106,9.106,0,0,0-.1,1.824.273.273,0,0,0,.038.117c.267.534-.1,1.056-.028,1.578a7.819,7.819,0,0,1,.291,1.441,3.922,3.922,0,0,1-.889,1.994A18.691,18.691,0,0,0,95.777,66a7.087,7.087,0,0,1-.691,1.29c-.1.126-.167.329-.3.383a2.921,2.921,0,0,0-1.3,1.43,1.011,1.011,0,0,1-.452.394,2.011,2.011,0,0,0-1.176,1.749,31.483,31.483,0,0,1-1.027,3.921,2.033,2.033,0,0,1-.507.8,11.561,11.561,0,0,0-1.774,2.192,5.656,5.656,0,0,1-1.06,1.184,2.561,2.561,0,0,0-.863,1.174,1.115,1.115,0,0,1-.328.508c-.992.917-1.858,1.948-2.755,2.953a6.214,6.214,0,0,1-.56.47c-.186.163-.472.307-.523.509-.207.808-.87,1.133-1.461,1.563a2.615,2.615,0,0,0-.632.747,2.572,2.572,0,0,1-1.093.962c-.846.418-1.666.891-2.513,1.307a2.123,2.123,0,0,0-.967.913A10.55,10.55,0,0,1,73.247,93.1a1.517,1.517,0,0,1-.537.277c-.782.247-1.57.475-2.355.713a2.719,2.719,0,0,1-2.257.048.9.9,0,0,0-.833.032,7.773,7.773,0,0,0-1.823,1.014,3.975,3.975,0,0,1-2.722.934,8.267,8.267,0,0,0-3.241.5,3.034,3.034,0,0,1-2.054.086,4.922,4.922,0,0,0-1.949-.123,14.6,14.6,0,0,1-2.519.367c-.434-.03-.9.341-1.491.592a2.76,2.76,0,0,0-2.594.731l.014.439a5.429,5.429,0,0,0-3.013.229,4.765,4.765,0,0,1-1.676.3c-.909,0-1.789.182-2.685.232a1.949,1.949,0,0,1-.487.056c-.436-.1-.857-.265-1.3-.346a7.772,7.772,0,0,1-1.326-.155,2.042,2.042,0,0,0-1.473-.107c-.269-.3-.517-.57-.762-.844a2.565,2.565,0,0,0-1.4-.935,2.629,2.629,0,0,1-1.638-1.432,3.465,3.465,0,0,0-1.23-1.347,4.747,4.747,0,0,1-.621-.6c-.151-.138-.306-.333-.485-.368a4.978,4.978,0,0,1-1.734-.912,1,1,0,0,0-.571-.174,1.711,1.711,0,0,1-1.419-.609,4.159,4.159,0,0,0-1-.7,7.95,7.95,0,0,1-1.9-1.362,12.394,12.394,0,0,0-1.792-1.291c-.237-.163-.5-.292-.74-.446-1.079-.68-2.148-1.375-3.236-2.04a2.522,2.522,0,0,1-.986-.906,1.846,1.846,0,0,0-.482-.538,3.546,3.546,0,0,1-1.43-2.094c-.082-.387-.445-.714-.523-1.1a3.337,3.337,0,0,0-1.408-1.929,19.555,19.555,0,0,0-1.66-1.475,2.22,2.22,0,0,1-.7-.849,2.906,2.906,0,0,0-2.033-1.647.6.6,0,0,1-.363-1.036,2.016,2.016,0,0,0,.359-2.168,9.287,9.287,0,0,1-.238-2.327A3.19,3.19,0,0,0,8.2,67.876a2.271,2.271,0,0,1-.573-1.211,2.1,2.1,0,0,0-.658-1.294q-.293-.321-.58-.646A1.868,1.868,0,0,1,6,64.249a13.6,13.6,0,0,0-.559-1.619c-.249-.465-.681-.839-.721-1.408a3.327,3.327,0,0,0-.731-1.681,4.2,4.2,0,0,1-.8-2.513A3.379,3.379,0,0,0,2.6,54.933a4.1,4.1,0,0,1-.832-3.14,1.113,1.113,0,0,0-.321-1.016C.734,50.056.863,49.11.768,48.23c-.019-.171.166-.364.212-.457-.193-1-.38-1.916-.542-2.836a1.5,1.5,0,0,1,.033-.615,2.288,2.288,0,0,0-.021-1.8.3.3,0,0,1-.016-.241c.387-.782-.015-1.422-.4-2.056A4.691,4.691,0,0,1,1.053,37.75a1.118,1.118,0,0,0,.268-.544,1.026,1.026,0,0,1,.62-.711,2.148,2.148,0,0,0,1.107-1.263,2.2,2.2,0,0,1,.678-.852,3.53,3.53,0,0,0,.324-4.712c-.172-.229-.348-.455-.529-.691a2.879,2.879,0,0,1,1-1.673,4.688,4.688,0,0,0,1.4-2,6.376,6.376,0,0,1,.838-1.356c.234-.335.508-.643.775-.954a1.388,1.388,0,0,1,.437-.419,7.713,7.713,0,0,0,1.851-1.426,2.322,2.322,0,0,0,.856-1.449Z"/><path class="cls-2" d="M26.854,27.778l-.541,1.25.691.986,1.079.5.789.732.9.578,1.2.082.488,1.261,1.023.362.93.522.787.744,1.35-.086.495,1.134.687.809.8.679.543.883.35.959.746,1.005-.92.961.477,1.214-1.107.593-.263,1.11-.781.734-.783.777-1.3-.274-.882.542-.995.256-1.031.117-.891.6-.412.7,1.359.085,1.125-.185,1.069.146.848.746.666.958.846.506.906.461.784.671.249,1.009.564.884.329,1.035-.462,1.031.045,1.237-1.448.258-.268,1.172-1.052.385-.8.673-.765.738-.882.573-.967.444-.608,1.019-.79.716-1.025.343-1.24.084-.836.7-.642.9-.1,1.158-.566.845.065,1.064.983.473.646.805.966.381.943.646,1.135-.49,1.029.1,1.017.383,1.045.325,1.058-.39,1.04-.485,1.046.522,1.047-.366,1.05.146L41,69.122,40.967,70.4l-.043,1.008.248,1.01-.7,1.013.189.926-.969.122-1.058.1-1.06.055-1.063.266-1.063-.07-1.1-.421-1.115.509-1.064-.825-1.077-.21-1.075-.122L28.9,73.9l-1.188.33-1-.592-1.076-.275-.877-.724-.932-.537-.973-.532-1.095-.579-.436-1.106-.047-1.178.228-1.127-.334-1.049L20.95,65.4l.8-.917.458-.935.247-1.107.279-1.222,1.066-.535,1.154-.34L25.319,59l1.026-.482.825-.774,1.4.151.761-.861.67-.993.985-.485,1.173-.295.427-1.081.382-.924.266-1.284-1.2-.449-1.093-.162-.767-.771-.922-.563-1.032-.265-1-.548-1.095.1-1.093.446-1.052.02-1.072-.136-1.074-.332-1.076-.325-.927.368-.351-.827.257-1-.315-1,.307-1,.068-.876.956-.009,1.074-.19,1.076-.026L23.98,44.3l1.072.693,1.024-.579.971-.6,1.19.662.781-1.148,1.038-.1,1.094-.1.533-1.034.8-.511.4-.794-.57-.722-.064-1.459L31.211,38.1l-1.24-.075-.781-.841-1.009-.449-1.061-.37-.919-.62L25.59,34.7l-.717-.829-1.482.013-.573-1.014-.936-.725.082-1.326-.7-.9-.245-1.088-.168-1.113.546-1.054.2-1.031-.008-1.163,1-.65.242-1.229,1.082-.424.64-1.092,1.3.158.984-.453.964-.612,1.092-.149,1.075-.22,1.074-.294,1.165.774,1.032-.98,1.111.266,1.1.535,1.053-.789,1.058.367,1.06-.141,1.062-.126,1.311-.055L41.1,20.62l-.668,1.008-.1,1.01.24,1.013-.187.649-.686.456-1.046-.469-1.047.735-1.05-.41-1.05-.124-1.035.337-1.032.006-1.018.2-1.069-.371-.98.471-1.017.13-1.024.182-.95.456-.611.862Z"/><path class="cls-2" d="M80.046,44.608l.41.92-.489,1,.508,1-.874,1,.211.68-.773.461L77.966,50l-1.077-.351-1.077.3-1.063-.7-1.063.081-.988.6-1.062.016L70.5,49.8l-.878.732-1.025.3-.955.518-.888.725-.339,1.185.449,1.178,1.207.352.821.688.572,1.171.981.507,1.2.115,1.093.32.76.872.714.894,1.354.053.214,1.415,1.164.4.6.941.193,1.128.18,1.037,1.013.882L78.2,66.343l.008,1.03.207,1.118-.461.975-.529.932-.32,1.214-1.378.055-.8.73-.962.485-1.081.167-.827,1.093-1.2-.356-1.091.031-1.059.271-1.086.068-1.086.042-1.077.657-1.106-.826-1.053.8-1.058-.7-1.059.507-1.063.052-1.39.105L59.4,73.44l-.182-1.009.058-1.01.145-1.012-.405-1.051,1.077.469,1.046-.334,1.047-.461,1.05-.182,1.051.386,1.044.559,1.042-.051,1.028-.285L68.42,69.2l1.065.127.962-.493.891-.529,1.02-.22.152-1.031,1.173-.776-.827-.985-.23-1.12-.806-.753-.947-.543L70,62.273l-.83-.687-1.193-.079-1.011-.383-.779-.789-.56-1.115-.881-.573-.95-.483-1.186-.288-.471-1.046-.467-.957-.873-.837.211-1.154.13-1.034.681-.838-.092-1.2.686-.831,1.006-.436,1-.294.736-.809.807-.838,1.16.179.924-.617.933.013-.159-.2-.742-.19-1-.3L66,46.4l-.712-1.035-.978-.31-.953-.417-.861-.6-.726-.776-.757-.838-.248-1.092.315-1.1-.352-1.187,1.151-.665.7-.727.707-.716.587-.9.514-1.074,1.062-.334.841-.642,1.057-.3.887-.574.78-.742.619-.961.939-.465,1.027-.386,1.067-.462.395-1.074L73,27.965l.335-1.161-.692-.99-1.137-.255-1.133.188-.905-.593-.967-.645-1.116.743L66.372,25l-1.045.165-1.04-.878-1.041.333L62.2,25.1l-1.047-.154-1.051-.5-1.175.351.014-1.135.655-1.008-.588-1.01-.462-1.012.425-1.1,1.134.216,1.058.016,1.059.373,1.063-.224,1.063-.516,1.1-.034,1.1.163,1.081.381,1.062.4,1.109-.2,1.145-.268,1.035.456,1.149-.039.953.638.941.548.952.5.961.547.737.828.669.911-.322,1.248.683.952.53,1.1-.953,1.035.612,1.3-.692.97-.9.751-.252,1.242-.949.659-.913.653-.709.914L73,34.873l-.817.748L71.557,36.7l-1.116.288-.874.679-.785.8-.865.641-1.132.493-.614,1.2,1.232.756.438.876,1,.277.65,1.083,1.108.017,1.021.238,1.049.086,1,.6,1.072.052,1.072-.4,1.072.514,1.074-.635,1.074.359Z"/></svg>