<svg xmlns="http://www.w3.org/2000/svg" viewBox="0 0 100 100"><defs><style>.cls-1{fill:#f36;}.cls-2{fill:#ffeded;}.cls-3{fill:#1858a8;}</style></defs><title>typesetting-with-drawbot</title><g id="base"><path class="cls-1" d="M47.147.513a5.714,5.714,0,0,0-1.612.021,11.686,11.686,0,0,1-2.856.18,2.057,2.057,0,0,0-.945.17A31.965,31.965,0,0,0,38.1,2.821a2.031,2.031,0,0,1-2.114.324,1.013,1.013,0,0,0-.605-.068,2.933,2.933,0,0,1-1.957.013c-.129-.059-.324.033-.49.042a7.144,7.144,0,0,0-1.439.372,18.851,18.851,0,0,1-2.473.367,3.972,3.972,0,0,0-2.1.71A7.96,7.96,0,0,0,26.041,5.8c-.341.417-.983.5-1.2,1.07a.265.265,0,0,1-.061.109A9.294,9.294,0,0,1,23.347,8.16a10.507,10.507,0,0,0-1.058.648,3.439,3.439,0,0,1-2.25.954,1.073,1.073,0,0,0-1.119.847.992.992,0,0,1-.419.591c-1.111.55-1.7,1.758-2.832,2.264a11.8,11.8,0,0,1-2.556,2.011,2.354,2.354,0,0,1-1.1.561,1.01,1.01,0,0,0-.819.526,1.2,1.2,0,0,1-1.031.7,3.1,3.1,0,0,1-.134,1.167c-.491.8-.748,1.811-1.719,2.249a.933.933,0,0,0-.488.692A9.122,9.122,0,0,1,6.388,24.3a2,2,0,0,0-.3,1.8c.107.364.21.729.3,1.1a3.985,3.985,0,0,1-.935,3.759A6.337,6.337,0,0,0,4.215,33.4a24.081,24.081,0,0,0-.561,2.972c-.05.29-.065.587-.113.878-.218,1.336-.421,2.678-1.835,3.358a.722.722,0,0,0-.266.4c-.149.436-.253.888-.407,1.323-.264.746-.129,1.593-.6,2.29a.959.959,0,0,0-.063.492c0,.5,0,1.007.024,1.51a3.039,3.039,0,0,0,.1.745c.332,1.1.243,2.251.466,3.363a.632.632,0,0,1-.043.372,2.367,2.367,0,0,0,.177,2.186A10.153,10.153,0,0,1,1.828,55.3a3.373,3.373,0,0,0,.954,1.576,5.488,5.488,0,0,1,1.733,2.85A4.13,4.13,0,0,0,4.932,60.9c.474.888.973,1.765,1.5,2.621a7.791,7.791,0,0,1,.9,1.926c.223.762.62,1.469.858,2.227.347,1.1.924,2.169.577,3.4a.6.6,0,0,0,.083.364A26.637,26.637,0,0,1,9.936,75.96a10.478,10.478,0,0,0,2.554,4.951,3.251,3.251,0,0,1,.28.413c.8,1.12,1.858,2.023,2.608,3.191a8.138,8.138,0,0,0,1.022,1.1,4.054,4.054,0,0,0,.525.538,7.545,7.545,0,0,1,2.048,1.994,1.162,1.162,0,0,0,.369.334c.53.331,1.084.625,1.6.974a11.867,11.867,0,0,1,1.9,1.415,3.054,3.054,0,0,0,1.214.839,11.391,11.391,0,0,1,4.56,2.952,2.466,2.466,0,0,0,1.64.776,5.954,5.954,0,0,1,2.232.745,5.622,5.622,0,0,0,1.881.635,14.93,14.93,0,0,1,3.312,1.059l17.487,1.649a2.347,2.347,0,0,1,1.67-.358,7.8,7.8,0,0,1,2.335.408,1.4,1.4,0,0,0,.614.04c.415-.015.833-.021,1.244-.076a6.484,6.484,0,0,0,1.589-.308,4.74,4.74,0,0,1,2.45-.328,2.912,2.912,0,0,0,1.937-.4c.053-.3.1-.589.154-.876a3.591,3.591,0,0,1,3.747-3.012,2.219,2.219,0,0,0,1.1-.079,2.165,2.165,0,0,1,1.7-.04,1.032,1.032,0,0,0,.956-.025,1.124,1.124,0,0,1,.591-.174,4.744,4.744,0,0,0,2.553-.94c.207-.731.41-1.476,1.261-1.725a.308.308,0,0,0,.169-.179,2.332,2.332,0,0,1,1.332-1.259,1.52,1.52,0,0,0,.483-.4c.577-.759,1.135-1.532,1.75-2.368.1-.029.372-.024.488-.156.593-.679,1.388-1.237,1.439-2.272a1.141,1.141,0,0,1,.539-.944,4.191,4.191,0,0,0,1.78-2.8,3.455,3.455,0,0,1,1.165-1.888,4.307,4.307,0,0,0,1.33-2.341,3.418,3.418,0,0,1,.757-1.712c.4-.423.382-1.006.559-1.516a14.327,14.327,0,0,1,.828-1.539,1.9,1.9,0,0,0,.088-.623c.032-.294.06-.588.086-.882a2.15,2.15,0,0,1,.518-1.389A2.339,2.339,0,0,0,92.9,68.1a3.275,3.275,0,0,1,.92-1.881A9.459,9.459,0,0,0,95.4,64.432,2.048,2.048,0,0,1,97.267,63.2a.612.612,0,0,0,.527-.989,2.991,2.991,0,0,1-.161-2.668,2.266,2.266,0,0,0,.154-1.115,19.77,19.77,0,0,1-.033-2.268,3.422,3.422,0,0,1,.478-2.391c.235-.326.231-.825.463-1.154a3.645,3.645,0,0,0,.588-2.523,1.915,1.915,0,0,1,.072-.735,2.6,2.6,0,0,0,0-1.368c-.248-1.278-.461-2.563-.691-3.844-.052-.289-.133-.574-.173-.865a12.611,12.611,0,0,1-.263-2.24,8.171,8.171,0,0,0-.281-2.368,4.275,4.275,0,0,1-.156-1.238,1.753,1.753,0,0,0-.517-1.487,1.018,1.018,0,0,1-.261-.551,5.094,5.094,0,0,0-.506-1.934,1.291,1.291,0,0,1-.056-.619,5.042,5.042,0,0,0,.023-.883,3.567,3.567,0,0,1,.165-1.856,2.7,2.7,0,0,0-.051-2.221,2.634,2.634,0,0,1-.258-1.7c.037-.373.071-.747.11-1.156a2.074,2.074,0,0,1-.93-1.182,7.951,7.951,0,0,0-.792-1.105c-.24-.385-.4-.819-.628-1.213-.079-.137-.258-.21-.376-.328-.652-.64-1.392-1.175-2.014-1.86a4.816,4.816,0,0,0-1.375-1.051,5.522,5.522,0,0,1-2.236-2.109l-.319.314a2.8,2.8,0,0,1-2.325-1.447c-.595-.274-1.188-.365-1.464-.713a14.862,14.862,0,0,0-2-1.642,5.03,5.03,0,0,1-1.244-1.55,3.08,3.08,0,0,0-1.471-1.487,8.36,8.36,0,0,1-2.592-2.1,4.011,4.011,0,0,0-2.564-1.4A7.832,7.832,0,0,1,72.1,5.49a.913.913,0,0,1-.594-.605c-.208-.874-.9-1.259-1.583-1.665-.716-.426-1.426-.861-2.147-1.279a1.523,1.523,0,0,0-.575-.212,10.588,10.588,0,0,0-3.736-.09,2.137,2.137,0,0,1-1.345-.1c-.892-.349-1.807-.64-2.7-.987A2.586,2.586,0,0,0,57.955.4a2.64,2.64,0,0,1-.992.041,2.956,2.956,0,0,0-2.17-.019c-.186.1-.49-.015-.739-.042a6.42,6.42,0,0,0-.736-.1c-1.366.019-2.731.08-4.1-.032a1.109,1.109,0,0,0-.605.1A2.578,2.578,0,0,1,47.147.513Z"/></g><g id="originali"><path class="cls-2" d="M84.489,61.811a9.036,9.036,0,0,1-.36-3.594,1.28,1.28,0,0,0-.082-.592A3.27,3.27,0,0,1,84,55.981c.12-.9.152-1.809.188-2.716.017-.4-.069-.809-.071-1.213,0-.7.025-1.411.034-2.116a1.864,1.864,0,0,0-.028-.746,3.805,3.805,0,0,1-.137-2.38,5.33,5.33,0,0,0-.046-1.212,12.55,12.55,0,0,1,0-3.331,7.478,7.478,0,0,0-.029-1.211,8.457,8.457,0,0,1,.141-1.651,7.649,7.649,0,0,0,.159-2.412c-.2-2.527-.4-5.055-.561-7.584-.046-.7.036-1.41.046-2.115.008-.455.01-.912-.013-1.366a12.688,12.688,0,0,1-.02-2.941,34.334,34.334,0,0,0-4.832.087,3.961,3.961,0,0,1-.6-.07c-.3-.008-.595.019-.893.022a4.415,4.415,0,0,1-1.042-.017,11.385,11.385,0,0,0-3.476-.077,15.221,15.221,0,0,1-4.09.037,3.587,3.587,0,0,0-.909.041c-.86.06-1.719.148-2.579.18a14.68,14.68,0,0,1-3.61-.112,6.707,6.707,0,0,0-2.708.07,5.132,5.132,0,0,1-.885.115c-1.1.014-2.178-.327-3.294.049-.434.147-1-.151-1.492-.108-2.362.207-4.728.169-7.093.2-.353.005-.707-.008-1.06-.021a11.857,11.857,0,0,0-1.66-.053,9.97,9.97,0,0,1-3.169-.172,3.252,3.252,0,0,0-1.184.028,22.923,22.923,0,0,1-4.068.363,29.044,29.044,0,0,0-3.179.031c-1.365.091-2.73.2-4.1.3a5.376,5.376,0,0,1-1.06.019,23.661,23.661,0,0,0-5.746-.118,3.775,3.775,0,0,1-2.09-.214,1.112,1.112,0,0,0-.614-.084c.008.094.015.189.019.283a23.6,23.6,0,0,1,.036,3.789,16.267,16.267,0,0,0,.156,2.879,10.573,10.573,0,0,1-.008,3.025,2.594,2.594,0,0,0,.041,1.207,18.3,18.3,0,0,1,.245,3.61c.033.447-.1.905-.08,1.356a11.3,11.3,0,0,0,.011,3,4.242,4.242,0,0,1-.108,1.8,9.273,9.273,0,0,0,.529,5.075,6.779,6.779,0,0,0-.556,2.637,34.969,34.969,0,0,0,.057,4.545c.013.3-.081.6-.094.9a4.055,4.055,0,0,0,0,1.356c.5,1.589.157,3.2.222,4.8.007.149-.062.373.011.437.8.688.176,1.4.07,2.11a1.529,1.529,0,0,0,.017.239,2.021,2.021,0,0,1,.992,1.027,12.534,12.534,0,0,1,1.434.038,35.367,35.367,0,0,0,3.918-.049,20.958,20.958,0,0,1,3.324,0,46.447,46.447,0,0,0,4.691-.017,22.518,22.518,0,0,1,3.891.237,2.982,2.982,0,0,0,.894.15c2.009-.207,4.053-.058,6.027-.639a3.647,3.647,0,0,1,1.247-.059h.008a2.989,2.989,0,0,1,.005.39,8.554,8.554,0,0,0-.048,1.29,1.475,1.475,0,0,1-.011.2c0,.132-.013.264-.013.4,0,.453.024.908,0,1.359-.017.3-.073.59-.095.888,0,.033.007.063.005.095h-.029c-.144,0-.287.011-.431.009a2.768,2.768,0,0,0-.516.045c-.071.012-.141.025-.215.034-.159.018-.321.033-.482.05-.107.011-.213.032-.32.034a1.027,1.027,0,0,0-.379.072c-.241.092-.491.182-.741.27a.753.753,0,0,1-.2.049,2.6,2.6,0,0,0-.778.194c-.153.064-.356.108-.519.168a6.987,6.987,0,0,1-.782.248c-.016,0-.019.015-.034.029l.09.08c-.066.054-.125.107-.194.158a.1.1,0,0,0-.045.117c.037.1.08.2.115.306.024.073.025.144-.139.2-.083.026-.115.065-.113.108,0,.061-.036.114-.14.161-.04.018-.042.049-.064.074s-.052.059-.083.087a1.217,1.217,0,0,1-.4.214,1.842,1.842,0,0,0-.182.086l.2.164c-.138.046-.25-.044-.392,0-.028.078-.1.162.131.219-.046.031-.168-.02-.187.04l.343.125-.3.044c.051.055.04.1-.03.146a.189.189,0,0,0-.09.14.483.483,0,0,0,.056.225.11.11,0,0,1-.019.145c-.035.035-.05.068.015.1.02.01.035.025.033.037a.685.685,0,0,0,.084.332.191.191,0,0,1,0,.162.385.385,0,0,0,.048.384c.063.006.115.012.168.015.175.012.2.056.19.106a.134.134,0,0,1-.027.053c-.043.059.018.108.114.147.149.06.312.114.466.171a.726.726,0,0,1,.157.07.6.6,0,0,0,.184.09,1.579,1.579,0,0,1,.3.143c.11.065.144.146.263.211.052.03.05.077.065.117.03.087.115.155.3.172l.393.257c.06,0,.113-.009.166-.011a.485.485,0,0,1,.127,0,1.64,1.64,0,0,0,.518.078.146.146,0,0,1,.058.012,2.087,2.087,0,0,0,.547.088,2.5,2.5,0,0,1,.4.055,2.458,2.458,0,0,0,.491.076c.15.015.309.018.457.036a4.184,4.184,0,0,0,.593.023,2.392,2.392,0,0,1,.48.045c.2.035.334.1.52.145a.374.374,0,0,1,.213.1.376.376,0,0,0,.091.054,1.882,1.882,0,0,0,.529-.013.649.649,0,0,1,.443.02.5.5,0,0,0,.061.015l.082,0c.166,0,.322-.008.472-.008h4.739a6.1,6.1,0,0,1,.729.021,1.456,1.456,0,0,0,.2,0,4.413,4.413,0,0,1,.69-.006.418.418,0,0,0,.1-.008,1.291,1.291,0,0,1,.139,0c.084,0,.169,0,.256,0,.242.009.49.017.73.005a13.19,13.19,0,0,1,1.392,0c.07,0,.14,0,.211,0a1.666,1.666,0,0,0,.187,0,3.625,3.625,0,0,1,.691,0,.934.934,0,0,0,.4-.038c.132-.047.313-.065.439-.119a.853.853,0,0,1,.183-.026c.149-.017.313-.022.444-.051a3.271,3.271,0,0,1,.94-.047,4.835,4.835,0,0,0,.825,0A2.1,2.1,0,0,1,61,78.9c.083.012.173.016.257.026a1.263,1.263,0,0,0,.45-.023c.087-.02.167-.044.25-.067a1.72,1.72,0,0,1,.406-.088.272.272,0,0,0,.172-.057c.024-.02.037-.043.062-.063a.574.574,0,0,1,.377-.174,1.127,1.127,0,0,0,.128-.042c.112-.028.229-.054.347-.078a2.728,2.728,0,0,0,.274-.047,2.4,2.4,0,0,1,.38-.08c.165-.025.277-.07.31-.145a1.237,1.237,0,0,1,.119-.2.209.209,0,0,1,.074-.074,1.2,1.2,0,0,1,.5-.2c.108-.17.108-.17,0-.273.071-.09.14-.174.2-.26.046-.063.032-.069-.151-.108a.293.293,0,0,1-.064-.032c.145-.054.181-.12.184-.2a.6.6,0,0,1,.079-.226c.009-.019.068-.033.1-.05v-.757a.659.659,0,0,0-.256-.182c.04-.1.08-.19.114-.283.011-.031.032-.067.005-.093-.106-.107-.079-.22-.105-.329a.706.706,0,0,1,.014-.471.111.111,0,0,0,0-.119A.5.5,0,0,0,64.852,74a.09.09,0,0,1-.04-.021c-.037-.06-.016-.116.067-.168a.771.771,0,0,0,.07-.046c.038-.031,0-.063-.087-.073-.032,0-.066-.005-.1-.006a.9.9,0,0,1-.438-.108c-.076-.044-.175-.081-.263-.121a1.457,1.457,0,0,1-.2-.091,4.522,4.522,0,0,0-.727-.33.449.449,0,0,0-.116-.023,1.063,1.063,0,0,1-.453-.125.388.388,0,0,0-.114-.049,1.263,1.263,0,0,1-.411-.174.365.365,0,0,0-.2-.063.494.494,0,0,1-.122-.02,3.94,3.94,0,0,0-.693-.117,1.244,1.244,0,0,1-.467-.121,1.273,1.273,0,0,0-.467-.14,5.743,5.743,0,0,0-.688-.093c-.089,0-.181-.019-.205-.059-.046-.079-.191-.09-.356-.092-.111,0-.222,0-.332-.008l-.13-.006c.052-.421.027-.848.07-1.269.028-.285-.007-.578.033-.86a4.111,4.111,0,0,0,0-.894,2.031,2.031,0,0,1,.036-.528c.043-.224.16-.443.051-.679-.007-.016.011-.043.01-.065-.006-.1-.011-.2-.024-.293s-.041-.2-.045-.3a7.66,7.66,0,0,1,.78.052,13.974,13.974,0,0,0,2.864.2,15.71,15.71,0,0,0,3.762-.233,1.252,1.252,0,0,1,.454-.015c.7.042,1.414.05,2.112.147a14.481,14.481,0,0,0,4.659-.067,7.634,7.634,0,0,1,1.513-.02c.6.011,1.208.056,1.813.056a8.208,8.208,0,0,1,1.513-.05,13.463,13.463,0,0,0,3.029.029,13.842,13.842,0,0,1,1.509.059c.514.04,1.039.156,1.551.2a4.679,4.679,0,0,1,.446-3.232A3.141,3.141,0,0,0,84.489,61.811Z"/><path class="cls-3" d="M22.291,29.049a2.531,2.531,0,0,0,.026,1.974A7.23,7.23,0,0,1,22.625,34a1.036,1.036,0,0,0,.071.49,2.632,2.632,0,0,1,.037,1.362c-.1.744-.13,1.5-.161,2.251-.015.334.06.67.061,1.006,0,.584-.021,1.168-.029,1.753a1.509,1.509,0,0,0,.024.618,3.058,3.058,0,0,1,.117,1.973,4.308,4.308,0,0,0,.039,1,10.005,10.005,0,0,1,0,2.76,6.056,6.056,0,0,0,.025,1,6.761,6.761,0,0,1-.121,1.368,6.119,6.119,0,0,0-.136,2c.172,2.094.34,4.189.48,6.285.039.581-.03,1.168-.039,1.753-.007.377-.008.755.012,1.132a10.24,10.24,0,0,1,.017,2.437,30.226,30.226,0,0,0,4.137-.073,3.585,3.585,0,0,1,.514.059c.254.006.509-.016.764-.018a3.9,3.9,0,0,1,.892.014,10.074,10.074,0,0,0,2.977.063,13.5,13.5,0,0,1,3.5-.03,3.16,3.16,0,0,0,.779-.034c.736-.05,1.471-.123,2.208-.149a12.946,12.946,0,0,1,3.092.093,5.95,5.95,0,0,0,2.319-.058,4.53,4.53,0,0,1,.758-.1,8.873,8.873,0,0,0,2.82-.041c.372-.121.855.126,1.278.09,2.022-.171,4.048-.14,6.073-.167.3,0,.6.007.908.017a10.436,10.436,0,0,0,1.422.044,8.815,8.815,0,0,1,2.713.143A2.9,2.9,0,0,0,61.2,63.03a20.2,20.2,0,0,1,3.484-.3A26.017,26.017,0,0,0,67.4,62.7c1.168-.075,2.337-.169,3.507-.248a4.677,4.677,0,0,1,.908-.015,20.98,20.98,0,0,0,4.92.1,3.327,3.327,0,0,1,1.79.178.985.985,0,0,0,.525.07c-.006-.079-.013-.158-.017-.235a19.13,19.13,0,0,1-.03-3.14,12.988,12.988,0,0,0-.134-2.386,8.5,8.5,0,0,1,.008-2.508,2.1,2.1,0,0,0-.035-1,14.648,14.648,0,0,1-.21-2.991c-.029-.371.083-.75.069-1.124a9.043,9.043,0,0,0-.011-2.486,3.416,3.416,0,0,1,.093-1.49,7.46,7.46,0,0,0-.453-4.206,5.45,5.45,0,0,0,.476-2.185,27.989,27.989,0,0,0-.048-3.766c-.012-.248.069-.5.08-.749a3.284,3.284,0,0,0,0-1.124c-.431-1.317-.134-2.652-.191-3.977,0-.123.054-.309-.009-.361-.686-.571-.151-1.165-.06-1.749a1.146,1.146,0,0,0-.014-.2,1.7,1.7,0,0,1-.851-.851,10.982,10.982,0,0,1-1.227-.031,31.078,31.078,0,0,0-3.355.041,18.518,18.518,0,0,1-2.846,0c-1.349-.19-2.675.075-4.017.015a19.86,19.86,0,0,1-3.332-.2,2.618,2.618,0,0,0-.765-.124,28.787,28.787,0,0,0-5.162.53,3.949,3.949,0,0,1-1.282.037,17.676,17.676,0,0,0-3.364-.133,7.759,7.759,0,0,1-2.714-.11c-1.079-.24-2.131.149-3.2.108a.4.4,0,0,0-.12.044,5.212,5.212,0,0,1-2.435.189,12.443,12.443,0,0,0-2.453-.168,13.9,13.9,0,0,0-3.221.194,1.122,1.122,0,0,1-.389.012c-.6-.035-1.211-.042-1.808-.122a12.775,12.775,0,0,0-3.99.056,6.819,6.819,0,0,1-1.295.016c-.517-.009-1.035-.047-1.553-.046a7.35,7.35,0,0,1-1.3.041,11.962,11.962,0,0,0-2.593-.024A12.15,12.15,0,0,1,24,26.536c-.439-.033-.889-.129-1.328-.166A3.762,3.762,0,0,1,22.291,29.049Z"/><path class="cls-2" d="M58.768,41.089l.026,1.06-.123,1.059.019,1.066-.2,1.062.032,1.064-.046,1.066-.006,1.066.24,1.07-.037,1.062-.012,1.068L58.352,52.8l.356,1.078-.081,1.2-1.1-.042-.96-.089-.869-.068-.094-1.2-.149-1.229L54.765,53l-.808.617-.87.525-.861.574-.984.3-1.008.18-1.011.173-1.027.05-1.129.093-1.078-.349-1.022-.425-1.086-.324-.644-.953-.833-.72-.471-1-.4-1.049L41.4,49.571l.2-1.117.572-.962.516-.964.844-.7.846-.733,1-.483,1.126-.123,1.029-.386,1.019-.468,1.154.176,1.073-.233,1.092-.119,1.091-.112,1.093-.15,1.064-.233.019-1.491.016-1.122-.067-1.124-.4-1.058-.756-.826-1-.47L51.85,36.6l-1.12.031-1.095-.111-1.112-.035-1.049.387-1.1.112-.991.51-.991.455-1.15.468L43.1,37.352l-.254-.977-.347-.93,1.012-.324.93-.643,1.026-.454,1.167.075,1.048-.4,1.114-.043,1.1-.142,1.107.1,1.066-.216,1.081-.06,1.03.344.981.414.869.585,1,.415.522.934.573.88.2,1.035.143,1.035.244,1.043Zm-3.827,8.957L54.917,49l.127-1.072-.015-1.077.195-1.114-1.166.053-1.043.072-1.036.131-1,.4-1.033.151-1.015.214-1.085-.017-.843.7-.877.471-.744.639-.338.948.059,1.061.66.83.922.429.914.533,1.054.077,1.161-.037,1.116-.326,1.107-.29,1.068-.431.964-.63Z"/></g></svg>