<svg id="Livello_1" data-name="Livello 1" xmlns="http://www.w3.org/2000/svg" viewBox="0 0 296 296"><defs><style>.cls-1{fill:#f36;}.cls-2{fill:#1858a8;}.cls-3{fill:#ffeded;}</style></defs><title>9</title><path class="cls-1" d="M267.3,171.905a36.354,36.354,0,0,0,1.313-4.36c.16-.77.407-1.7-1.023-2.159a1.577,1.577,0,0,1-.832-1.059c-.417-1.673-.762-3.357-1.059-5.045a1.326,1.326,0,0,1,.376-1,2.5,2.5,0,0,0,.472-2.654,2,2,0,0,1-.077-1.058,3.005,3.005,0,0,0-.385-2.063,5.9,5.9,0,0,1-.484-3.781,10.768,10.768,0,0,0-.032-4.036,8,8,0,0,1,.111-3.591,12.4,12.4,0,0,0,.326-5.685,16.727,16.727,0,0,1,.3-7.41c.1-.335.232-.775.044-1.034-.929-1.28-.141-2.666-.494-3.984-.132-.5.246-1.1.5-1.631a9.265,9.265,0,0,1,.861-1.254,8.076,8.076,0,0,1-.886-4.678,1.8,1.8,0,0,0-.078-1.057,9.575,9.575,0,0,1-.657-3.56,11.562,11.562,0,0,0-.252-3.171,4.568,4.568,0,0,1,.068-3.119,1.835,1.835,0,0,0-.018-.638c-.059-1.275-.128-2.55-.17-3.826a1.221,1.221,0,0,1,.138-.827c.834-.973.42-1.891-.028-2.849a2.108,2.108,0,0,1-.175-1.231c.171-.905.54-1.79.687-2.7a13.543,13.543,0,0,0-.355-7.174c-.124-.328-.306-.752-.147-1.018.636-1.06.279-2.1.074-3.148-.136-.7-.468-1.423.017-2.093a5.349,5.349,0,0,0,.574-2.5c.219-1.193.336-2.4.44-3.6a4.063,4.063,0,0,0-.047-2.094,2.951,2.951,0,0,1,0-2.71,4.229,4.229,0,0,0,.343-1.053,6.69,6.69,0,0,0,.043-2.078c-.132-1.209-.116-2.417,1.32-3.307.668-.413,1.067-1.107.724-1.728-.745-1.351-.539-3-2.135-3.97-.042-.942.915-1.7.237-2.583-.142-.185.034-.56.161-.818a6.077,6.077,0,0,0,.569-3.561,6.206,6.206,0,0,1,.081-2.752c.64-1.862-.283-3.469-1-5.13-.29-.674-.643-1.332-.9-2.011-.126-.328-.29-.762-.119-1.022.64-.974.274-1.94.223-2.93a9.428,9.428,0,0,1,.317-2.956,2.865,2.865,0,0,0-.077-2.467,3,3,0,0,1,.148-3.488,4.055,4.055,0,0,0,.491-3.739,7.4,7.4,0,0,0-.873-1.979c-.354-.536.027-1.351.005-2.04a1.747,1.747,0,0,0-.357-.8,3.945,3.945,0,0,1-.4-3.127,9.57,9.57,0,0,0,.152-1.053c-1.439-.294-2.882-.578-4.345-.761-.994-.124-2.192-.315-2.784.793a2.166,2.166,0,0,1-1.367.646c-2.157.323-4.329.591-6.507.821a2.457,2.457,0,0,1-1.288-.292,4.956,4.956,0,0,0-3.423-.366,4.212,4.212,0,0,1-1.365.06,6.117,6.117,0,0,0-2.66.3,12.249,12.249,0,0,1-4.876.375,23,23,0,0,0-5.205.025,16.956,16.956,0,0,1-4.632-.087,26.3,26.3,0,0,0-7.331-.252A35.535,35.535,0,0,1,210,14.548a2.7,2.7,0,0,0-1.333-.034c-1.651.721-3.438.109-5.138.382a5.327,5.327,0,0,1-2.1-.386,14.221,14.221,0,0,1-1.619-.667c-.823.212-1.631.388-2.438.524a12.927,12.927,0,0,1-3.595.163,3.762,3.762,0,0,0-1.363.06,19.757,19.757,0,0,1-4.591.509,24.787,24.787,0,0,0-4.089.2,9.584,9.584,0,0,1-4.022-.052,3.935,3.935,0,0,0-.824.014c-1.644.046-3.289.1-4.933.132a2.505,2.505,0,0,1-1.067-.107,4.711,4.711,0,0,0-3.675.021,4.323,4.323,0,0,1-1.587.136c-1.168-.132-2.31-.418-3.479-.533a28.667,28.667,0,0,0-9.252.276,2.755,2.755,0,0,1-1.312.114,8.571,8.571,0,0,0-4.061-.058,5.136,5.136,0,0,1-2.7-.012,10.779,10.779,0,0,0-3.227-.445c-1.539-.17-3.1-.261-4.649-.342a8.644,8.644,0,0,0-2.7.036,6.1,6.1,0,0,1-3.5,0,11.2,11.2,0,0,0-4.038-.3c-1.56.1-3.117.091-4.265-1.023a2.287,2.287,0,0,0-2.229-.562c-1.743.579-3.87.418-5.118,1.656-1.216.033-2.194-.709-3.333-.183a1.315,1.315,0,0,1-.751-.049c-.1-.027-.213-.05-.3-.076a12.527,12.527,0,0,0-4.593-.442,13.141,13.141,0,0,1-3.549-.063c-2.4-.495-4.475.22-6.617.775-.868.225-1.717.5-2.593.7A2.65,2.65,0,0,1,94.038,15a8.994,8.994,0,0,0-3.779-.173,20.026,20.026,0,0,1-3.811-.245,5.939,5.939,0,0,0-3.183.059,6.034,6.034,0,0,1-4.5-.115,8.242,8.242,0,0,0-4.822-.38,13.381,13.381,0,0,0-2.553.676,8.967,8.967,0,0,1-2.63,0,3.161,3.161,0,0,0-1.03.278,8.131,8.131,0,0,1-4.033.313,20.2,20.2,0,0,0-3-.147c-2.781.077-5.477-.066-7.719-1.438-1.329.679-1.329.682-2.327.643-.274-.01-.547-.054-.821-.059-3.51-.07-3.529-.051-2.5,2.629l-2.631,2.3c.457.922.932,1.842,1.368,2.773a1.871,1.871,0,0,1,0,1.869c-.227.381-.286.822-.493,1.213-.376.711-.67,1.45-1.114,2.135a4.4,4.4,0,0,1-1.128,1.235,2.1,2.1,0,0,0-1.061,2.3c.1.367-.2.817-.393,1.207-.321.654-.7,1.291-1.014,1.856.479.733.883,1.354,1.245,1.909-1.609,2.064-1.67,2.387-.793,4.675a2.22,2.22,0,0,1-.383,2.235,10.562,10.562,0,0,1-2.428,2.1l1.646,3.512a16.666,16.666,0,0,0-.561,2.664c-.051.877-.351,1.861.818,2.547.169.1.19.4.2.6a13.728,13.728,0,0,1,.043,2.53,2.93,2.93,0,0,0,1.368,2.87,7.035,7.035,0,0,1,2.613,3.28,12.342,12.342,0,0,1-.578,3.491c-.483,1.56-.973,3.172.422,4.666a1.248,1.248,0,0,1,.263.807q.084,2.762.11,5.525c.007.922-.007,1.847-.084,2.767a4.273,4.273,0,0,1-.394,1.883,7.953,7.953,0,0,0-.681,2.919c-.131.694.012,1.418-.051,2.124a30.809,30.809,0,0,0-.4,4.027c.041.961.739,1.9.851,2.866s-.322,2.006.311,2.935a2.735,2.735,0,0,1,.387,2.062c-.152,1.129-.207,2.268-.255,3.4a21.272,21.272,0,0,0-.031,4.036c.167,1.1.877,2.154.693,3.317,1.054,1.575.078,2.881-.917,4.186a4.645,4.645,0,0,0-.793,1.11,36.649,36.649,0,0,0-1.313,4.36c-.16.771-.406,1.7,1.023,2.159a1.578,1.578,0,0,1,.832,1.06c.417,1.672.763,3.357,1.059,5.045a1.326,1.326,0,0,1-.376,1,2.5,2.5,0,0,0-.472,2.654,2,2,0,0,1,.077,1.058,3,3,0,0,0,.386,2.063,5.9,5.9,0,0,1,.483,3.781,10.81,10.81,0,0,0,.032,4.036,8,8,0,0,1-.111,3.591,12.4,12.4,0,0,0-.326,5.685,16.727,16.727,0,0,1-.3,7.41c-.1.335-.232.775-.043,1.034.928,1.279.14,2.666.493,3.983.132.5-.246,1.1-.5,1.631a9.34,9.34,0,0,1-.861,1.255,8.083,8.083,0,0,1,.887,4.678,1.8,1.8,0,0,0,.077,1.057,9.555,9.555,0,0,1,.657,3.56,11.552,11.552,0,0,0,.252,3.17,4.562,4.562,0,0,1-.068,3.119A1.817,1.817,0,0,0,45.4,183c.058,1.275.127,2.55.169,3.825a1.222,1.222,0,0,1-.138.828c-.834.973-.42,1.891.028,2.849a2.089,2.089,0,0,1,.175,1.23c-.171.906-.54,1.791-.687,2.7a13.543,13.543,0,0,0,.355,7.174c.125.328.306.751.147,1.017-.635,1.06-.278,2.1-.074,3.149.136.7.469,1.422-.016,2.093a5.321,5.321,0,0,0-.574,2.5c-.219,1.194-.337,2.4-.441,3.605a4.07,4.07,0,0,0,.047,2.093,2.95,2.95,0,0,1,0,2.711A5.371,5.371,0,0,0,44,221.907c.133,1.209.116,2.417-1.32,3.306-.668.414-1.067,1.108-.724,1.729.712,1.29.573,2.847,1.949,3.828a4.069,4.069,0,0,1-.574.538,2.1,2.1,0,0,0-1.061,2.3c.1.367-.2.817-.393,1.207-.321.654-.7,1.291-1.014,1.856.479.733.883,1.354,1.245,1.909-1.609,2.064-1.67,2.387-.793,4.675a2.22,2.22,0,0,1-.383,2.235,10.562,10.562,0,0,1-2.428,2.1l1.646,3.512a16.678,16.678,0,0,0-.561,2.663c-.051.878-.351,1.862.818,2.548.169.1.19.4.2.6a13.728,13.728,0,0,1,.043,2.53,2.93,2.93,0,0,0,1.368,2.87,9.255,9.255,0,0,1,1.915,1.913c.013.046.015.092.031.137a7.338,7.338,0,0,0,.871,1.98c.354.536-.027,1.35-.005,2.04a1.765,1.765,0,0,0,.358.8,3.3,3.3,0,0,1,.5,1.385.814.814,0,0,0,.03.367c.137.4.6.626,1.41.542a26.044,26.044,0,0,0,4.017-.668,7.214,7.214,0,0,1,4.014-.207,3.5,3.5,0,0,0,2.269-.1,8.393,8.393,0,0,0-.237,1.007,9.434,9.434,0,0,0,.314,4.992c.089.227.22.522.112.707A2.848,2.848,0,0,0,57.6,279.4c.1.486.339.988.008,1.457a3.693,3.693,0,0,0-.376,1.745c-.141.832-.212,1.673-.274,2.511-.008.123-.02.252-.034.379.584-.014,1.168-.04,1.749-.039a55.939,55.939,0,0,0,6.875-.146,7.044,7.044,0,0,1,1.336.031,10.984,10.984,0,0,0,4.481-.535,5.322,5.322,0,0,1,3.72.064,6.193,6.193,0,0,0,3.459.338,2.151,2.151,0,0,1,1.1,0,3.723,3.723,0,0,0,2.421-.047,6.349,6.349,0,0,1,1.46-.273c.987-.044,1.973-.151,2.949-.278a16.165,16.165,0,0,0-.459-4.375,1.78,1.78,0,0,1-.093-1.168c.533-1.165.265-2.351.267-3.523,0-1.359.1-2.72-.017-4.078.43,0,.86-.012,1.289.006a36.766,36.766,0,0,0,7.387-.389,9.778,9.778,0,0,1,3.278.014,14.621,14.621,0,0,0,5.174-.206c-.968-.563-2.274-.136-2.772-.964,1.139-.9,1.3-1.065,1.97-.778a8.378,8.378,0,0,0,3.771.246c.132,0,.272.129.407.2a1.837,1.837,0,0,0,.194,1.673l6.939-.248.134,0c.823-.029,1.649-.1,2.467-.073,1.735.064,3.465.144,5.2.184,3.935.09,7.853.437,11.807.321,3.472-.1,6.959.113,10.4-.477a5.341,5.341,0,0,1,2.165-.086c2.15.611,4.352.331,6.523.349a80.381,80.381,0,0,0,9.877-.129,9.971,9.971,0,0,1,1.919.059,15.8,15.8,0,0,0,6.446-.717,7.652,7.652,0,0,1,5.343.135,8.882,8.882,0,0,0,4.962.526,3.077,3.077,0,0,1,1.586.017,5.365,5.365,0,0,0,3.48-.04,9.09,9.09,0,0,1,2.1-.376c1.539-.056,3.078-.2,4.6-.4a13.953,13.953,0,0,1,4.363.173c.107.02.215.037.322.056.7.122,1.4.229,2.1.362a8.739,8.739,0,0,0,5.491-.621,2.77,2.77,0,0,0,2.277.585,19.405,19.405,0,0,1,4.658-.106c2.37.11,4.727.526,7.12.15a3.468,3.468,0,0,1,1.086.114,8.467,8.467,0,0,0,4.713-.261,11.472,11.472,0,0,0,.486,3.523,1.426,1.426,0,0,1,.112.882,4.364,4.364,0,0,0-.023,2.732,2.626,2.626,0,0,1,.008,1.816,5.571,5.571,0,0,0-.376,2.174c-.141,1.037-.212,2.085-.274,3.13-.008.153-.02.314-.034.472.584-.018,1.168-.049,1.749-.049a44.979,44.979,0,0,0,6.875-.181,5.6,5.6,0,0,1,1.336.038,8.969,8.969,0,0,0,4.481-.667,4.35,4.35,0,0,1,3.72.08,5.068,5.068,0,0,0,3.459.422,1.731,1.731,0,0,1,1.1,0,3.043,3.043,0,0,0,2.422-.058,5.2,5.2,0,0,1,1.459-.341,28.391,28.391,0,0,0,2.949-.346,24.926,24.926,0,0,0-.459-5.453,2.727,2.727,0,0,1-.093-1.455c.533-1.453.265-2.931.267-4.391,0-.943.021-1.886.029-2.83a3.542,3.542,0,0,0,2.217.478,16.148,16.148,0,0,0,2.94-.516,12.787,12.787,0,0,1,5.92-.5,14.527,14.527,0,0,0,2.728.022c.034,0,.068-.007.1-.01a2.671,2.671,0,0,0-.066-.916,3.934,3.934,0,0,1,.29-2.738,3.171,3.171,0,0,0-.427-3.263c-.238-.383-.51-.755-.783-1.125a2.923,2.923,0,0,1-.391-3.438,6,6,0,0,0,.528-4.812c-.133-.413-.129-.853-.272-1.264a7.3,7.3,0,0,1,.417-5.437,4.971,4.971,0,0,0-.338-4.563,6.811,6.811,0,0,1-.013-6.433c.123-.267.372-.534.363-.8a11.781,11.781,0,0,1,1.15-4.319c.367-1.018.465-2.112-1.18-2.741a1.645,1.645,0,0,1-.792-1.035,10.341,10.341,0,0,1,.19-6.323c.406-1.312.8-2.66.092-3.945a3.547,3.547,0,0,0-.514-.72,1.249,1.249,0,0,1-.264-.807q-.084-2.762-.11-5.525c-.007-.923.007-1.847.085-2.767a4.256,4.256,0,0,1,.393-1.883,7.913,7.913,0,0,0,.681-2.919c.131-.7-.012-1.418.051-2.124a30.826,30.826,0,0,0,.4-4.027c-.041-.961-.739-1.9-.851-2.866s.322-2.007-.311-2.936a2.732,2.732,0,0,1-.387-2.061c.152-1.13.208-2.268.255-3.4a21.357,21.357,0,0,0,.032-4.036c-.168-1.1-.878-2.154-.694-3.317-1.054-1.575-.078-2.881.917-4.186A4.65,4.65,0,0,0,267.3,171.905Z"/><path class="cls-2" d="M251.07,55.251a1.164,1.164,0,0,1,.095-.587,2.761,2.761,0,0,0-1.056-3.33c1.073-1.943,1.036-3.97,1-6a1.539,1.539,0,0,0-.966-1.656,1.181,1.181,0,0,1-.535-.747c-.192-.666-.5-1.334-.047-2.033.112-.173-.029-.471-.125-.693a3.422,3.422,0,0,1,.773-3.8,1.356,1.356,0,0,0,.442-1.237,5.722,5.722,0,0,0-.485-1.582,4.337,4.337,0,0,1-.489-3.192,4.725,4.725,0,0,0,0-1.473c-.065-.592-.207-1.179-.323-1.767a8.991,8.991,0,0,1-.054-3.174c-.41,0-.821,0-1.23-.013a6.083,6.083,0,0,1-1.694-.2,11.222,11.222,0,0,0-2.625-.346c-.624-.066-1.273.016-1.907-.013-1.208-.055-2.418-.229-3.618-.189-.863.029-1.7.412-2.567.48a8.281,8.281,0,0,0-2.634.189,3.836,3.836,0,0,1-1.847.224c-1.015-.074-2.038-.1-3.058-.113a31.716,31.716,0,0,0-3.623.012,15.445,15.445,0,0,1-2.973.4c-1.407.58-2.586.063-3.765-.465a4.846,4.846,0,0,0-1-.42c-1.3-.257-2.6-.522-3.924-.677-.694-.081-1.529-.207-1.931.568a1.5,1.5,0,0,1-.945.457c-1.5.236-3.009.435-4.522.608a1.721,1.721,0,0,1-.9-.2,3.216,3.216,0,0,0-2.01-.29c-.125.017-.248.029-.375.054a2.9,2.9,0,0,1-.95.049,4.256,4.256,0,0,0-1.848.223,8.52,8.52,0,0,1-3.391.289,15.988,15.988,0,0,0-3.624.046,11.875,11.875,0,0,1-3.225-.034,18.317,18.317,0,0,0-5.106-.135,24.757,24.757,0,0,1-6.654-.106,1.878,1.878,0,0,0-.928-.016c-1.142.511-2.393.095-3.574.3a3.731,3.731,0,0,1-1.467-.258,9.972,9.972,0,0,1-1.133-.455,11.5,11.5,0,0,1-4.192.512,2.635,2.635,0,0,0-.949.049,13.629,13.629,0,0,1-3.191.38,17.259,17.259,0,0,0-2.845.159,6.674,6.674,0,0,1-2.8-.014,2.771,2.771,0,0,0-.573.015c-1.144.041-2.288.087-3.433.119a1.747,1.747,0,0,1-.743-.069,3.284,3.284,0,0,0-2.559.036,3,3,0,0,1-1.1.1c-.815-.085-1.612-.278-2.427-.351a19.954,19.954,0,0,0-6.438.243,1.911,1.911,0,0,1-.912.087,5.971,5.971,0,0,0-2.828-.018,3.566,3.566,0,0,1-1.879.007,7.516,7.516,0,0,0-2.25-.292c-1.073-.11-2.157-.164-3.238-.212a6.015,6.015,0,0,0-1.879.041,4.241,4.241,0,0,1-2.434.02,7.806,7.806,0,0,0-2.814-.186,3.661,3.661,0,0,1-2.977-.688,1.6,1.6,0,0,0-1.557-.379c-1.208.413-2.691.313-3.549,1.182-.846.029-1.534-.482-2.321-.109a1.351,1.351,0,0,1-.735-.082,8.737,8.737,0,0,0-3.2-.281,9.2,9.2,0,0,1-2.471-.024,9.709,9.709,0,0,0-4.6.576c-.6.162-1.191.356-1.8.5a1.828,1.828,0,0,1-.916.072,6.268,6.268,0,0,0-2.632-.1,13.933,13.933,0,0,1-2.656-.149,4.128,4.128,0,0,0-2.214.059A4.2,4.2,0,0,1,86,25.1a5.751,5.751,0,0,0-3.361-.238,9.362,9.362,0,0,0-1.771.485,6.257,6.257,0,0,1-1.831.013,2.188,2.188,0,0,0-.714.2,5.64,5.64,0,0,1-2.8.241,13.915,13.915,0,0,0-2.092-.085,9.625,9.625,0,0,1-5.386-.958c-.92.48-.92.482-1.613.46-.192-.006-.382-.034-.573-.036-2.445-.029-2.457-.016-1.716,1.844l-1.81,1.614c.327.639.666,1.276.978,1.922a1.3,1.3,0,0,1,.019,1.3c-.156.267-.192.574-.333.847a5.568,5.568,0,0,1-1.528,2.358,1.452,1.452,0,0,0-.718,1.608c.071.255-.133.57-.263.842-.216.458-.476.9-.688,1.3.339.508.628.938.885,1.322-1.1,1.446-1.141,1.671-.509,3.259a1.547,1.547,0,0,1-.245,1.558,7.287,7.287,0,0,1-1.672,1.476q.608,1.249,1.179,2.435a11.731,11.731,0,0,0-.367,1.857c-.026.612-.226,1.3.595,1.769.117.068.135.275.143.419a9.447,9.447,0,0,1,.054,1.761,2.053,2.053,0,0,0,.979,1.99,4.71,4.71,0,0,1,1.936,2.49,2.534,2.534,0,0,0,.478.793,2.156,2.156,0,0,1,.263,2.179c-.244.616.109.983.966.887a18.044,18.044,0,0,0,2.789-.488,5.009,5.009,0,0,1,2.791-.166,2.461,2.461,0,0,0,1.66-.109,1.945,1.945,0,0,1,1.95.131,1.515,1.515,0,0,0,1.045.185,4.243,4.243,0,0,1,2.592.08,2.846,2.846,0,0,0,.915.019c.249-.015.568-.177.723-.1,1.191.562,2.368.093,3.551.031a5.035,5.035,0,0,1,1.5.022,10.852,10.852,0,0,0,3.21.267c1.783-.05,3.569-.155,5.348-.1a25.515,25.515,0,0,0,5.138-.312,6.827,6.827,0,0,1,2.282-.008,10.145,10.145,0,0,0,3.6-.173c-.678-.386-1.583-.081-1.937-.655.784-.636.9-.748,1.363-.553a5.814,5.814,0,0,0,2.628.15c.092,0,.191.089.285.137a1.281,1.281,0,0,0,.15,1.163l4.922-.215c.573-.025,1.147-.082,1.718-.065,1.207.035,2.411.081,3.621.1,2.74.041,5.472.26,8.222.158a51.343,51.343,0,0,0,7.233-.391,3.706,3.706,0,0,1,1.506-.071,16.779,16.779,0,0,0,4.544.206,55.918,55.918,0,0,0,6.874-.145,6.969,6.969,0,0,1,1.337.03,10.961,10.961,0,0,0,4.48-.535,5.336,5.336,0,0,1,3.721.064A6.191,6.191,0,0,0,157.7,62a2.144,2.144,0,0,1,1.1,0,3.736,3.736,0,0,0,2.421-.047,6.287,6.287,0,0,1,1.46-.274c1.07-.047,2.141-.159,3.2-.3a9.724,9.724,0,0,1,3.038.1c.561.1,1.128.174,1.687.277a6.064,6.064,0,0,0,3.816-.463,1.938,1.938,0,0,0,1.591.4,13.518,13.518,0,0,1,3.242-.1,24.22,24.22,0,0,0,4.957.064,2.42,2.42,0,0,1,.757.074,5.06,5.06,0,0,0,4.3-.818,23.437,23.437,0,0,0,7.736.775,2.4,2.4,0,0,0,2.136-.748,1.709,1.709,0,0,1,.963-.415,4.7,4.7,0,0,1,2.621-.036.783.783,0,0,0,.293.008,3.507,3.507,0,0,0,.6-.105,6.671,6.671,0,0,1,4.905.6,2.512,2.512,0,0,0,1.595.343,11.188,11.188,0,0,0,2.04-.376,8.907,8.907,0,0,1,4.118-.379,10.113,10.113,0,0,0,1.9,0c.764-.051,1.521-.161,2.279-.252a18.72,18.72,0,0,1,6.96.442c.705.182,1.526.008,2.193.4.106.061.362-.031.548-.051.432-.046.863-.1,1.3-.135a21.562,21.562,0,0,1,3.8.291,23.023,23.023,0,0,0,2.475.15c1.335-.017,2.671-.093,4-.172,2.86-.169,5.724.026,8.586-.088.228-.009.455-.007.684-.01a8.151,8.151,0,0,1-.02-2.047A11.356,11.356,0,0,0,251.07,55.251Z"/><path class="cls-2" d="M58.631,78.436a1.188,1.188,0,0,1-.1.586,2.755,2.755,0,0,0,1.027,3.336c-1.089,1.937-1.068,3.965-1.05,5.993a1.534,1.534,0,0,0,.951,1.661,1.171,1.171,0,0,1,.529.749c.187.668.485,1.337.03,2.034-.112.173.026.471.12.694a3.425,3.425,0,0,1-.8,3.8,1.362,1.362,0,0,0-.452,1.235,5.692,5.692,0,0,0,.472,1.585,4.328,4.328,0,0,1,.462,3.194,4.723,4.723,0,0,0-.011,1.473c.06.592.2,1.18.308,1.768a9.013,9.013,0,0,1,.028,3.175c.41.006.821,0,1.229.019a6.09,6.09,0,0,1,1.692.207,11.207,11.207,0,0,0,2.622.36c.624.069,1.274-.01,1.907.022,1.209.061,2.417.242,3.617.207.863-.025,1.7-.4,2.571-.467a8.287,8.287,0,0,0,2.635-.176,3.857,3.857,0,0,1,1.849-.214c1.015.079,2.037.106,3.057.128a31.739,31.739,0,0,0,3.623.006,15.5,15.5,0,0,1,2.977-.383c1.411-.573,2.586-.05,3.76.484a4.9,4.9,0,0,0,1,.425c1.3.263,2.6.535,3.919.7.692.085,1.527.215,1.935-.557a1.507,1.507,0,0,1,.949-.453c1.5-.229,3.013-.42,4.527-.585a1.706,1.706,0,0,1,.9.2,3.217,3.217,0,0,0,2.008.3c.125-.016.248-.028.375-.052a2.924,2.924,0,0,1,.95-.044,4.254,4.254,0,0,0,1.851-.214,8.533,8.533,0,0,1,3.393-.271,16.039,16.039,0,0,0,3.624-.028,11.79,11.79,0,0,1,3.225.05,18.3,18.3,0,0,0,5.1.16,24.759,24.759,0,0,1,6.654.14,1.879,1.879,0,0,0,.927.021c1.147-.506,2.394-.084,3.576-.277a3.712,3.712,0,0,1,1.466.264,9.967,9.967,0,0,1,1.129.461,11.532,11.532,0,0,1,4.2-.491,2.637,2.637,0,0,0,.949-.044,13.661,13.661,0,0,1,3.194-.364,17.2,17.2,0,0,0,2.847-.145,6.666,6.666,0,0,1,2.8.028,2.694,2.694,0,0,0,.573-.011c1.145-.036,2.289-.076,3.434-.1a1.757,1.757,0,0,1,.743.073,3.284,3.284,0,0,0,2.559-.023,2.986,2.986,0,0,1,1.1-.1c.814.089,1.609.286,2.424.363a19.96,19.96,0,0,0,6.439-.211,1.9,1.9,0,0,1,.914-.082,5.968,5.968,0,0,0,2.827.031,3.586,3.586,0,0,1,1.879,0,7.535,7.535,0,0,0,2.248.3c1.072.115,2.156.175,3.236.228a6,6,0,0,0,1.88-.031,4.246,4.246,0,0,1,2.434-.008,7.794,7.794,0,0,0,2.812.2,3.658,3.658,0,0,1,2.971.7,1.594,1.594,0,0,0,1.554.387c1.211-.407,2.693-.3,3.559-1.164.846-.025,1.529.489,2.319.121a1.354,1.354,0,0,1,.735.085,8.721,8.721,0,0,0,3.2.3,9.146,9.146,0,0,1,2.471.037,9.72,9.72,0,0,0,4.6-.553c.6-.159,1.194-.351,1.8-.494a1.834,1.834,0,0,1,.916-.066,6.269,6.269,0,0,0,2.632.112,13.928,13.928,0,0,1,2.655.163,4.137,4.137,0,0,0,2.214-.048,4.2,4.2,0,0,1,3.132.071,5.756,5.756,0,0,0,3.358.254,9.323,9.323,0,0,0,1.775-.476,6.249,6.249,0,0,1,1.831,0,2.187,2.187,0,0,0,.716-.2,5.663,5.663,0,0,1,2.807-.227,14.022,14.022,0,0,0,2.091.1,9.6,9.6,0,0,1,5.377.985c.924-.476.924-.477,1.617-.452.192.006.382.036.573.039,2.444.041,2.457.028,1.731-1.836l1.823-1.6c-.321-.641-.654-1.28-.962-1.928a1.306,1.306,0,0,1-.008-1.3c.158-.266.2-.573.34-.846a5.607,5.607,0,0,1,1.548-2.351,1.458,1.458,0,0,0,.732-1.6c-.07-.256.137-.569.269-.841.221-.457.484-.9.7-1.3-.336-.509-.62-.941-.875-1.326,1.114-1.44,1.155-1.665.537-3.256a1.546,1.546,0,0,1,.258-1.557,7.323,7.323,0,0,1,1.683-1.467q-.6-1.254-1.158-2.442a11.721,11.721,0,0,0,.382-1.855c.031-.611.237-1.3-.58-1.772-.116-.069-.132-.275-.139-.419a9.355,9.355,0,0,1-.039-1.761,2.045,2.045,0,0,0-.963-1.995,4.689,4.689,0,0,1-1.915-2.5,2.507,2.507,0,0,0-.472-.8,2.154,2.154,0,0,1-.244-2.18c.249-.614-.1-.983-.959-.892a18.119,18.119,0,0,0-2.793.474,5,5,0,0,1-2.792.152,2.464,2.464,0,0,0-1.661.1,1.941,1.941,0,0,1-1.949-.141,1.519,1.519,0,0,0-1.044-.19,4.247,4.247,0,0,1-2.591-.093,2.841,2.841,0,0,0-.915-.024c-.248.014-.569.174-.723.1-1.187-.567-2.368-.1-3.551-.048a5.019,5.019,0,0,1-1.5-.03,10.848,10.848,0,0,0-3.209-.283c-1.783.041-3.57.137-5.348.071a25.551,25.551,0,0,0-5.141.287,6.829,6.829,0,0,1-2.282,0,10.148,10.148,0,0,0-3.6.154c.675.39,1.583.089,1.932.665-.789.632-.9.744-1.368.546a5.822,5.822,0,0,0-2.626-.163c-.093,0-.191-.09-.285-.138a1.28,1.28,0,0,0-.14-1.164l-4.924.19c-.573.022-1.147.076-1.718.057-1.207-.042-2.411-.093-3.621-.117-2.739-.055-5.469-.288-8.22-.2a51.39,51.39,0,0,0-7.236.355,3.74,3.74,0,0,1-1.507.064,16.767,16.767,0,0,0-4.542-.229,55.931,55.931,0,0,0-6.875.11,6.884,6.884,0,0,1-1.336-.037,10.984,10.984,0,0,0-4.485.513,5.331,5.331,0,0,1-3.72-.083,6.186,6.186,0,0,0-3.456-.356,2.151,2.151,0,0,1-1.1-.008,3.727,3.727,0,0,0-2.422.035,6.361,6.361,0,0,1-1.462.266c-1.07.042-2.142.148-3.2.285a9.715,9.715,0,0,1-3.037-.111c-.561-.1-1.127-.18-1.685-.286a6.078,6.078,0,0,0-3.82.444,1.933,1.933,0,0,0-1.587-.4,13.53,13.53,0,0,1-3.243.084,24.146,24.146,0,0,0-4.957-.089,2.476,2.476,0,0,1-.756-.077,5.069,5.069,0,0,0-4.3.8,23.394,23.394,0,0,0-7.729-.814,2.413,2.413,0,0,0-2.142.737,1.717,1.717,0,0,1-.967.411,4.707,4.707,0,0,1-2.621.023.74.74,0,0,0-.293-.01,3.437,3.437,0,0,0-.6.1,6.663,6.663,0,0,1-4.9-.623,2.508,2.508,0,0,0-1.593-.351,11.164,11.164,0,0,0-2.043.366,8.908,8.908,0,0,1-4.121.358,10.108,10.108,0,0,0-1.9-.009c-.765.047-1.522.153-2.281.24a18.7,18.7,0,0,1-6.956-.477c-.7-.185-1.526-.016-2.189-.406-.106-.063-.363.029-.549.048-.433.043-.864.095-1.3.128a21.633,21.633,0,0,1-3.8-.31,23.264,23.264,0,0,0-2.473-.163c-1.336.011-2.672.08-4.005.152-2.862.155-5.724-.054-8.587.045-.228.008-.456.005-.684.007a8.208,8.208,0,0,1,0,2.048A11.327,11.327,0,0,0,58.631,78.436Z"/><path class="cls-2" d="M251.07,150.114a1.164,1.164,0,0,1,.095-.587,2.761,2.761,0,0,0-1.056-3.33c1.073-1.943,1.036-3.97,1-6a1.54,1.54,0,0,0-.966-1.657,1.181,1.181,0,0,1-.535-.746c-.192-.667-.5-1.335-.047-2.033.112-.174-.029-.472-.125-.694a3.42,3.42,0,0,1,.773-3.8,1.359,1.359,0,0,0,.442-1.238,5.722,5.722,0,0,0-.485-1.582,4.337,4.337,0,0,1-.489-3.192,4.725,4.725,0,0,0,0-1.473c-.065-.591-.207-1.178-.323-1.766a9,9,0,0,1-.054-3.175c-.41,0-.821.005-1.23-.013a6.083,6.083,0,0,1-1.694-.2,11.222,11.222,0,0,0-2.625-.346c-.624-.066-1.273.017-1.907-.012-1.208-.056-2.418-.23-3.618-.189-.863.029-1.7.412-2.567.479a8.281,8.281,0,0,0-2.634.19,3.848,3.848,0,0,1-1.847.223c-1.015-.074-2.038-.095-3.058-.112a31.717,31.717,0,0,0-3.623.011,15.367,15.367,0,0,1-2.973.4c-1.407.581-2.586.064-3.765-.465a4.788,4.788,0,0,0-1-.419c-1.3-.258-2.6-.523-3.924-.678-.694-.081-1.529-.207-1.931.568a1.5,1.5,0,0,1-.945.457c-1.5.237-3.009.436-4.522.608a1.721,1.721,0,0,1-.9-.2,3.216,3.216,0,0,0-2.01-.29c-.125.017-.248.029-.375.054a2.9,2.9,0,0,1-.95.049,4.242,4.242,0,0,0-1.848.224,8.538,8.538,0,0,1-3.391.288,16.046,16.046,0,0,0-3.624.046,11.8,11.8,0,0,1-3.225-.034,18.317,18.317,0,0,0-5.106-.135,24.757,24.757,0,0,1-6.654-.106,1.89,1.89,0,0,0-.928-.016c-1.142.511-2.393.095-3.574.3a3.748,3.748,0,0,1-1.467-.257,10.159,10.159,0,0,1-1.133-.456,11.475,11.475,0,0,1-4.192.512,2.658,2.658,0,0,0-.949.049,13.683,13.683,0,0,1-3.191.381,17.152,17.152,0,0,0-2.845.158,6.691,6.691,0,0,1-2.8-.013,2.7,2.7,0,0,0-.573.014c-1.144.041-2.288.087-3.433.119a1.748,1.748,0,0,1-.743-.068,3.279,3.279,0,0,0-2.559.035,2.981,2.981,0,0,1-1.1.1c-.815-.085-1.612-.278-2.427-.351a19.983,19.983,0,0,0-6.438.243,1.911,1.911,0,0,1-.912.087,5.971,5.971,0,0,0-2.828-.017,3.576,3.576,0,0,1-1.879.006,7.515,7.515,0,0,0-2.25-.291c-1.073-.11-2.157-.165-3.238-.212a5.986,5.986,0,0,0-1.879.04,4.25,4.25,0,0,1-2.434.021,7.806,7.806,0,0,0-2.814-.187,3.661,3.661,0,0,1-2.977-.688,1.6,1.6,0,0,0-1.557-.379c-1.208.413-2.691.313-3.549,1.182-.846.029-1.534-.482-2.321-.109a1.35,1.35,0,0,1-.735-.081,8.738,8.738,0,0,0-3.2-.282,9.154,9.154,0,0,1-2.471-.024,9.722,9.722,0,0,0-4.6.576c-.6.162-1.191.357-1.8.5a1.838,1.838,0,0,1-.916.071,6.268,6.268,0,0,0-2.632-.1,13.933,13.933,0,0,1-2.656-.149,4.128,4.128,0,0,0-2.214.059A4.2,4.2,0,0,1,86,119.961a5.751,5.751,0,0,0-3.361-.237,9.215,9.215,0,0,0-1.771.485,6.259,6.259,0,0,1-1.831.012,2.165,2.165,0,0,0-.714.2,5.651,5.651,0,0,1-2.8.24,14.049,14.049,0,0,0-2.092-.085,9.617,9.617,0,0,1-5.386-.958c-.92.48-.92.482-1.613.46-.192,0-.382-.034-.573-.036-2.445-.029-2.457-.016-1.716,1.844l-1.81,1.614c.327.639.666,1.277.978,1.922a1.305,1.305,0,0,1,.019,1.3c-.156.267-.192.574-.333.847a5.577,5.577,0,0,1-1.528,2.359,1.451,1.451,0,0,0-.718,1.607c.071.255-.133.57-.263.843-.216.457-.476.9-.688,1.3L60.685,135c-1.1,1.446-1.141,1.671-.509,3.259a1.547,1.547,0,0,1-.245,1.558,7.287,7.287,0,0,1-1.672,1.476q.608,1.251,1.179,2.436a11.687,11.687,0,0,0-.367,1.857c-.026.611-.226,1.3.595,1.769.117.067.135.274.143.418a9.449,9.449,0,0,1,.054,1.761,2.052,2.052,0,0,0,.979,1.99,4.71,4.71,0,0,1,1.936,2.49,2.523,2.523,0,0,0,.478.793,2.158,2.158,0,0,1,.263,2.18c-.244.615.109.982.966.887a18.164,18.164,0,0,0,2.789-.488,5.009,5.009,0,0,1,2.791-.167,2.455,2.455,0,0,0,1.66-.109,1.945,1.945,0,0,1,1.95.131,1.521,1.521,0,0,0,1.045.186,4.243,4.243,0,0,1,2.592.079,2.846,2.846,0,0,0,.915.02c.249-.015.568-.177.723-.1,1.191.561,2.368.092,3.551.03a5.034,5.034,0,0,1,1.5.023,10.851,10.851,0,0,0,3.21.266c1.783-.049,3.569-.155,5.348-.1a25.515,25.515,0,0,0,5.138-.312,6.827,6.827,0,0,1,2.282-.008,10.167,10.167,0,0,0,3.6-.172c-.678-.387-1.583-.082-1.937-.655.784-.637.9-.749,1.363-.553a5.842,5.842,0,0,0,2.628.15c.092,0,.191.088.285.136a1.284,1.284,0,0,0,.15,1.164l4.922-.216c.573-.025,1.147-.082,1.718-.065,1.207.035,2.411.081,3.621.1,2.74.041,5.472.261,8.222.158a51.493,51.493,0,0,0,7.233-.39,3.706,3.706,0,0,1,1.506-.072,16.779,16.779,0,0,0,4.544.206,55.918,55.918,0,0,0,6.874-.145,6.97,6.97,0,0,1,1.337.031,10.978,10.978,0,0,0,4.48-.536,5.33,5.33,0,0,1,3.721.065,6.2,6.2,0,0,0,3.458.338,2.144,2.144,0,0,1,1.1,0,3.736,3.736,0,0,0,2.421-.047,6.287,6.287,0,0,1,1.46-.274c1.07-.047,2.141-.159,3.2-.3a9.724,9.724,0,0,1,3.038.1c.561.1,1.128.175,1.687.278a6.072,6.072,0,0,0,3.816-.464,1.938,1.938,0,0,0,1.591.4,13.518,13.518,0,0,1,3.242-.1,24.291,24.291,0,0,0,4.957.065,2.448,2.448,0,0,1,.757.073,5.06,5.06,0,0,0,4.3-.818,23.437,23.437,0,0,0,7.736.775,2.4,2.4,0,0,0,2.136-.748,1.709,1.709,0,0,1,.963-.415,4.7,4.7,0,0,1,2.621-.036.763.763,0,0,0,.293.008,3.413,3.413,0,0,0,.6-.105,6.666,6.666,0,0,1,4.905.6,2.512,2.512,0,0,0,1.595.342,11.188,11.188,0,0,0,2.04-.376,8.907,8.907,0,0,1,4.118-.379,10.113,10.113,0,0,0,1.9,0c.764-.051,1.521-.161,2.279-.251a18.719,18.719,0,0,1,6.96.441c.705.182,1.526.009,2.193.4.106.062.362-.031.548-.051.432-.046.863-.1,1.3-.134a21.562,21.562,0,0,1,3.8.29,23.285,23.285,0,0,0,2.475.151c1.335-.017,2.671-.094,4-.172,2.86-.17,5.724.026,8.586-.088.228-.009.455-.008.684-.011a8.151,8.151,0,0,1-.02-2.047A11.356,11.356,0,0,0,251.07,150.114Z"/><path class="cls-2" d="M250.6,169.893a1.177,1.177,0,0,0,.116.585,2.736,2.736,0,0,1-.938,3.351c1.141,1.92,1.174,3.947,1.211,5.975a1.517,1.517,0,0,1-.907,1.676,1.159,1.159,0,0,0-.509.758c-.169.67-.448,1.344.025,2.033.117.171-.013.472-.1.7a3.444,3.444,0,0,0,.906,3.784,1.375,1.375,0,0,1,.485,1.228,5.655,5.655,0,0,1-.429,1.592,4.31,4.31,0,0,0-.376,3.2,4.745,4.745,0,0,1,.05,1.472c-.045.593-.166,1.183-.261,1.773a9,9,0,0,0,.058,3.175c-.41.012-.821.012-1.229.038a6.094,6.094,0,0,0-1.686.235,11.132,11.132,0,0,1-2.612.4c-.622.08-1.274.011-1.906.053-1.207.081-2.41.281-3.61.266-.864-.011-1.713-.376-2.584-.426a8.294,8.294,0,0,1-2.639-.133,3.865,3.865,0,0,0-1.854-.185c-1.013.1-2.034.139-3.053.178a31.793,31.793,0,0,1-3.622.064,15.535,15.535,0,0,0-2.986-.335c-1.427-.55-2.588-.008-3.747.544a4.743,4.743,0,0,1-.988.441c-1.289.285-2.582.578-3.9.76-.691.1-1.521.239-1.95-.527a1.524,1.524,0,0,0-.961-.436c-1.507-.2-3.023-.372-4.542-.513a1.7,1.7,0,0,0-.892.215,3.2,3.2,0,0,1-2,.332c-.125-.014-.249-.024-.376-.046a2.927,2.927,0,0,0-.951-.029,4.262,4.262,0,0,1-1.856-.184,8.545,8.545,0,0,0-3.4-.216,16.075,16.075,0,0,1-3.624.03,11.836,11.836,0,0,0-3.223.1,18.269,18.269,0,0,1-5.1.242,24.759,24.759,0,0,0-6.648.247,1.881,1.881,0,0,1-.927.036c-1.159-.487-2.4-.045-3.583-.219a3.7,3.7,0,0,0-1.458.288,10.006,10.006,0,0,0-1.116.479,11.538,11.538,0,0,0-4.209-.423,2.627,2.627,0,0,1-.95-.03,13.789,13.789,0,0,0-3.2-.312,17.2,17.2,0,0,1-2.849-.1,6.682,6.682,0,0,0-2.8.073,2.689,2.689,0,0,1-.574,0c-1.145-.017-2.291-.039-3.436-.047a1.739,1.739,0,0,0-.741.084,3.277,3.277,0,0,1-2.558.019,3.025,3.025,0,0,0-1.106-.08c-.812.1-1.6.312-2.414.4a19.929,19.929,0,0,1-6.443-.107,1.932,1.932,0,0,0-.916-.067,5.963,5.963,0,0,1-2.825.077,3.581,3.581,0,0,0-1.879.033,7.483,7.483,0,0,1-2.239.339c-1.069.133-2.151.21-3.23.28a6.012,6.012,0,0,1-1.88,0,4.228,4.228,0,0,0-2.433.031,7.79,7.79,0,0,1-2.806.245,3.63,3.63,0,0,0-2.953.751,1.582,1.582,0,0,1-1.542.411c-1.222-.386-2.7-.255-3.59-1.106-.846-.011-1.516.514-2.316.158a1.35,1.35,0,0,0-.732.1,8.686,8.686,0,0,1-3.19.349,9.115,9.115,0,0,0-2.47.077,9.761,9.761,0,0,1-4.616-.48c-.608-.148-1.2-.331-1.816-.464a1.84,1.84,0,0,0-.918-.052,6.237,6.237,0,0,1-2.628.155,13.862,13.862,0,0,0-2.65.206,4.125,4.125,0,0,1-2.215-.013,4.2,4.2,0,0,0-3.129.121,5.725,5.725,0,0,1-3.351.309,9.454,9.454,0,0,1-1.788-.447,6.249,6.249,0,0,0-1.83.026,2.22,2.22,0,0,1-.722-.183,5.659,5.659,0,0,0-2.811-.182,13.991,13.991,0,0,1-2.088.13,9.547,9.547,0,0,0-5.351,1.071c-.936-.461-.936-.462-1.628-.426-.192.01-.381.042-.571.048-2.443.081-2.456.068-1.78-1.807l-1.866-1.575c.3-.646.62-1.29.91-1.942a1.306,1.306,0,0,0-.027-1.3c-.165-.263-.212-.57-.362-.84a5.689,5.689,0,0,0-1.611-2.325,1.473,1.473,0,0,1-.774-1.592c.062-.257-.153-.567-.292-.836-.233-.453-.509-.893-.734-1.283.321-.515.594-.951.838-1.34-1.152-1.422-1.2-1.646-.623-3.247a1.555,1.555,0,0,0-.3-1.552,7.443,7.443,0,0,0-1.723-1.44q.563-1.263,1.093-2.46a11.817,11.817,0,0,1-.432-1.849c-.047-.61-.271-1.292.533-1.78.114-.071.125-.278.128-.422a9.415,9.415,0,0,0-.008-1.761,2.021,2.021,0,0,1,.909-2.01,4.62,4.62,0,0,0,1.848-2.53,2.464,2.464,0,0,1,.45-.8,2.149,2.149,0,0,0,.186-2.184c-.266-.61.074-.985.934-.907a18.263,18.263,0,0,1,2.805.428,5.018,5.018,0,0,0,2.8.108,2.457,2.457,0,0,1,1.663.074,1.941,1.941,0,0,0,1.945-.172,1.509,1.509,0,0,1,1.037-.208,4.237,4.237,0,0,0,2.589-.134,2.849,2.849,0,0,1,.914-.039c.248.01.574.165.726.089,1.171-.586,2.364-.142,3.549-.1a5.052,5.052,0,0,0,1.5-.055,10.855,10.855,0,0,1,3.2-.334c1.784.012,3.573.079,5.349-.015a25.55,25.55,0,0,1,5.147.2,6.8,6.8,0,0,0,2.281-.039,10.145,10.145,0,0,1,3.6.1c-.665.4-1.581.115-1.914.7.806.619.923.729,1.382.524a5.806,5.806,0,0,1,2.621-.206c.093,0,.188-.092.281-.142a1.279,1.279,0,0,1,.109-1.167l4.928.112c.573.013,1.149.057,1.719.029,1.206-.061,2.408-.132,3.617-.176,2.737-.1,5.46-.376,8.213-.331a51.363,51.363,0,0,1,7.244.237,3.71,3.71,0,0,0,1.508.04,16.725,16.725,0,0,1,4.535-.3,55.758,55.758,0,0,1,6.877,0,6.976,6.976,0,0,0,1.335-.059,11.005,11.005,0,0,1,4.5.441,5.33,5.33,0,0,0,3.717-.143,6.166,6.166,0,0,1,3.446-.412,2.138,2.138,0,0,0,1.1-.026,3.735,3.735,0,0,1,2.422,0,6.372,6.372,0,0,0,1.468.243c1.072.024,2.146.113,3.208.233a9.718,9.718,0,0,0,3.034-.16c.558-.111,1.122-.2,1.677-.313a6.1,6.1,0,0,1,3.831.382,1.92,1.92,0,0,1,1.576-.428,13.5,13.5,0,0,0,3.245.032,24.167,24.167,0,0,1,4.953-.169,2.407,2.407,0,0,0,.753-.09,5.1,5.1,0,0,1,4.323.727,23.335,23.335,0,0,1,7.705-.938,2.435,2.435,0,0,1,2.162.7,1.736,1.736,0,0,0,.977.4,4.7,4.7,0,0,0,2.622-.019.77.77,0,0,1,.293-.014,3.372,3.372,0,0,1,.605.092,6.638,6.638,0,0,0,4.882-.7,2.484,2.484,0,0,1,1.582-.376,11.223,11.223,0,0,1,2.053.333,8.931,8.931,0,0,0,4.129.291,10.093,10.093,0,0,1,1.9-.04c.766.036,1.526.129,2.287.2a18.659,18.659,0,0,0,6.942-.589c.7-.2,1.525-.04,2.178-.441.1-.064.363.023.549.039.434.036.867.081,1.3.107a21.513,21.513,0,0,0,3.791-.371,22.932,22.932,0,0,1,2.469-.2c1.335-.011,2.673.037,4.008.088,2.866.109,5.722-.147,8.586-.094.229.005.456,0,.684,0a8.258,8.258,0,0,0,.052,2.047A11.363,11.363,0,0,1,250.6,169.893Z"/><path class="cls-2" d="M251.07,243.118a1.166,1.166,0,0,1,.095-.588,2.761,2.761,0,0,0-1.056-3.33c1.073-1.943,1.036-3.97,1-6a1.54,1.54,0,0,0-.966-1.657,1.181,1.181,0,0,1-.535-.746c-.192-.667-.5-1.335-.047-2.033.112-.174-.029-.472-.125-.694a3.42,3.42,0,0,1,.773-3.8,1.358,1.358,0,0,0,.442-1.237,5.728,5.728,0,0,0-.485-1.583,4.337,4.337,0,0,1-.489-3.192,4.719,4.719,0,0,0,0-1.472c-.065-.592-.207-1.179-.323-1.767a9,9,0,0,1-.054-3.175c-.41,0-.821,0-1.23-.013a6.121,6.121,0,0,1-1.694-.2,11.171,11.171,0,0,0-2.625-.347c-.624-.066-1.273.017-1.907-.012-1.208-.056-2.418-.23-3.618-.189-.863.029-1.7.412-2.567.48a8.281,8.281,0,0,0-2.634.189,3.848,3.848,0,0,1-1.847.223c-1.015-.073-2.038-.095-3.058-.112a31.489,31.489,0,0,0-3.623.012,15.366,15.366,0,0,1-2.973.4c-1.407.581-2.586.064-3.765-.464a4.846,4.846,0,0,0-1-.42c-1.3-.257-2.6-.523-3.924-.677-.694-.081-1.529-.207-1.931.567a1.5,1.5,0,0,1-.945.457c-1.5.237-3.009.436-4.522.608a1.712,1.712,0,0,1-.9-.2,3.216,3.216,0,0,0-2.01-.289c-.125.016-.248.029-.375.053a2.926,2.926,0,0,1-.95.05,4.241,4.241,0,0,0-1.848.223,8.52,8.52,0,0,1-3.391.288,16.046,16.046,0,0,0-3.624.046,11.8,11.8,0,0,1-3.225-.034,18.279,18.279,0,0,0-5.106-.134,24.757,24.757,0,0,1-6.654-.107,1.89,1.89,0,0,0-.928-.016c-1.142.511-2.393.1-3.574.295a3.748,3.748,0,0,1-1.467-.257,9.97,9.97,0,0,1-1.133-.456,11.475,11.475,0,0,1-4.192.512,2.635,2.635,0,0,0-.949.05,13.736,13.736,0,0,1-3.191.38,17.26,17.26,0,0,0-2.845.158,6.674,6.674,0,0,1-2.8-.013,2.7,2.7,0,0,0-.573.014c-1.144.041-2.288.087-3.433.119a1.732,1.732,0,0,1-.743-.068,3.284,3.284,0,0,0-2.559.035,2.981,2.981,0,0,1-1.1.1c-.815-.085-1.612-.278-2.427-.351a19.955,19.955,0,0,0-6.438.244,1.922,1.922,0,0,1-.912.086,5.971,5.971,0,0,0-2.828-.017,3.576,3.576,0,0,1-1.879.006,7.547,7.547,0,0,0-2.25-.291c-1.073-.11-2.157-.165-3.238-.212a5.986,5.986,0,0,0-1.879.04,4.25,4.25,0,0,1-2.434.021,7.784,7.784,0,0,0-2.814-.186,3.665,3.665,0,0,1-2.977-.689,1.6,1.6,0,0,0-1.557-.378c-1.208.412-2.691.312-3.549,1.181-.846.03-1.534-.481-2.321-.109a1.35,1.35,0,0,1-.735-.081,8.738,8.738,0,0,0-3.2-.282,9.154,9.154,0,0,1-2.471-.024,9.722,9.722,0,0,0-4.6.576c-.6.162-1.191.357-1.8.5a1.827,1.827,0,0,1-.916.071,6.252,6.252,0,0,0-2.632-.1,13.933,13.933,0,0,1-2.656-.15,4.138,4.138,0,0,0-2.214.059A4.2,4.2,0,0,1,86,212.964a5.759,5.759,0,0,0-3.361-.237,9.288,9.288,0,0,0-1.771.485,6.259,6.259,0,0,1-1.831.012,2.165,2.165,0,0,0-.714.2,5.651,5.651,0,0,1-2.8.241,13.916,13.916,0,0,0-2.092-.086,9.617,9.617,0,0,1-5.386-.958c-.92.48-.92.482-1.613.461-.192-.006-.382-.035-.573-.037-2.445-.029-2.457-.016-1.716,1.844l-1.81,1.614c.327.639.666,1.277.978,1.922a1.305,1.305,0,0,1,.019,1.3c-.156.267-.192.574-.333.848a5.58,5.58,0,0,1-1.528,2.358,1.451,1.451,0,0,0-.718,1.607c.071.256-.133.57-.263.843-.216.457-.476.9-.688,1.3.339.507.628.937.885,1.322-1.1,1.445-1.141,1.67-.509,3.258a1.547,1.547,0,0,1-.245,1.558,7.287,7.287,0,0,1-1.672,1.476q.608,1.251,1.179,2.436a11.687,11.687,0,0,0-.367,1.857c-.026.611-.226,1.3.595,1.769.117.068.135.274.143.418a9.449,9.449,0,0,1,.054,1.761,2.052,2.052,0,0,0,.979,1.99,4.714,4.714,0,0,1,1.936,2.49,2.538,2.538,0,0,0,.478.794,2.156,2.156,0,0,1,.263,2.179c-.244.615.109.982.966.887a18.164,18.164,0,0,0,2.789-.488,5.009,5.009,0,0,1,2.791-.167,2.455,2.455,0,0,0,1.66-.109,1.945,1.945,0,0,1,1.95.131,1.521,1.521,0,0,0,1.045.186,4.236,4.236,0,0,1,2.592.08,2.875,2.875,0,0,0,.915.019c.249-.015.568-.177.723-.1,1.191.561,2.368.092,3.551.03a5.067,5.067,0,0,1,1.5.023,10.851,10.851,0,0,0,3.21.266c1.783-.049,3.569-.154,5.348-.1a25.588,25.588,0,0,0,5.138-.312,6.8,6.8,0,0,1,2.282-.009,10.167,10.167,0,0,0,3.6-.172c-.678-.387-1.583-.082-1.937-.655.784-.637.9-.749,1.363-.553a5.842,5.842,0,0,0,2.628.15c.092,0,.191.088.285.136a1.283,1.283,0,0,0,.15,1.164l4.922-.216c.573-.025,1.147-.081,1.718-.065,1.207.036,2.411.081,3.621.1,2.74.041,5.472.261,8.222.158a51.493,51.493,0,0,0,7.233-.39,3.724,3.724,0,0,1,1.506-.072,16.779,16.779,0,0,0,4.544.206,55.721,55.721,0,0,0,6.874-.145,6.97,6.97,0,0,1,1.337.031,10.978,10.978,0,0,0,4.48-.536,5.33,5.33,0,0,1,3.721.065,6.2,6.2,0,0,0,3.458.338,2.144,2.144,0,0,1,1.1,0,3.729,3.729,0,0,0,2.421-.047,6.393,6.393,0,0,1,1.46-.274c1.07-.047,2.141-.158,3.2-.3a9.724,9.724,0,0,1,3.038.1c.561.1,1.128.175,1.687.278a6.078,6.078,0,0,0,3.816-.463,1.934,1.934,0,0,0,1.591.394,13.518,13.518,0,0,1,3.242-.1,24.22,24.22,0,0,0,4.957.065,2.448,2.448,0,0,1,.757.073,5.06,5.06,0,0,0,4.3-.818,23.411,23.411,0,0,0,7.736.775,2.4,2.4,0,0,0,2.136-.748,1.716,1.716,0,0,1,.963-.415,4.706,4.706,0,0,1,2.621-.036.763.763,0,0,0,.293.008,3.413,3.413,0,0,0,.6-.1,6.676,6.676,0,0,1,4.905.6,2.505,2.505,0,0,0,1.595.342,11.1,11.1,0,0,0,2.04-.376,8.907,8.907,0,0,1,4.118-.379,10.029,10.029,0,0,0,1.9,0c.764-.051,1.521-.161,2.279-.251a18.719,18.719,0,0,1,6.96.441c.705.182,1.526.009,2.193.4.106.062.362-.031.548-.051.432-.046.863-.1,1.3-.134a21.468,21.468,0,0,1,3.8.291,23.283,23.283,0,0,0,2.475.15c1.335-.017,2.671-.093,4-.172,2.86-.17,5.724.026,8.586-.088.228-.009.455-.007.684-.011a8.151,8.151,0,0,1-.02-2.047A11.351,11.351,0,0,0,251.07,243.118Z"/><path class="cls-3" d="M178.917,99.091a1.147,1.147,0,0,1-.046-.661c0-.013,0-.026.01-.038A5.336,5.336,0,0,0,179,96.437a16.891,16.891,0,0,0-.092-3.016,2.147,2.147,0,0,1,.019-.587,3.436,3.436,0,0,0-.34-1.965,1.8,1.8,0,0,1-.165-.583c-.148.02-.3.038-.445.072a1.348,1.348,0,0,1-1.222-.348,4.045,4.045,0,0,1-2.474.467,1.069,1.069,0,0,0,.046,1.076.922.922,0,0,1,.065.483c-.053.358-.176.707-.222,1.065a6.085,6.085,0,0,0,.154,2.824c.045.129.108.3.055.4a1.84,1.84,0,0,0-.011,1.24,1.447,1.447,0,0,1,.048.707,9.4,9.4,0,0,0-1.2.061,10.671,10.671,0,0,1-3.279-.06.812.812,0,0,0-.457-.01c-.563.29-1.179.054-1.761.167a1.624,1.624,0,0,1-.723-.145,4.593,4.593,0,0,1-.559-.258,4.981,4.981,0,0,1-2.065.29,1.13,1.13,0,0,0-.468.028,5.906,5.906,0,0,1-1.571.215,7.352,7.352,0,0,0-1.4.09,2.887,2.887,0,0,1-1.38-.008,1.176,1.176,0,0,0-.283.008c-.563.023-1.127.049-1.691.067a.768.768,0,0,1-.367-.038,1.423,1.423,0,0,0-1.26.02,1.3,1.3,0,0,1-.543.058c-.4-.048-.794-.157-1.2-.2a8.592,8.592,0,0,0-3.172.138.821.821,0,0,1-.45.049,2.575,2.575,0,0,0-1.393-.01,1.537,1.537,0,0,1-.925,0,3.253,3.253,0,0,0-1.109-.165c-.529-.062-1.064-.093-1.6-.12a2.568,2.568,0,0,0-.925.023,1.83,1.83,0,0,1-1.2.011,3.387,3.387,0,0,0-1.386-.105A1.631,1.631,0,0,1,140.585,98a.717.717,0,0,0-.767-.215,7.852,7.852,0,0,1-.949.242,8.655,8.655,0,0,0,.022-1.585,16.8,16.8,0,0,0-.092-3.016,2.147,2.147,0,0,1,.02-.587,3.475,3.475,0,0,0-.273-1.758l-.086,0c-1.477.064-2.946-.012-4.416-.075a2.1,2.1,0,0,0,.175.55.922.922,0,0,1,.065.483c-.054.358-.176.707-.223,1.065a6.111,6.111,0,0,0,.154,2.824c.045.129.109.3.056.4a1.834,1.834,0,0,0-.012,1.24,1.662,1.662,0,0,1,.068.653.509.509,0,0,1-.063.171,2.36,2.36,0,0,0-.186.987c-.069.471-.1.947-.134,1.421a1.838,1.838,0,0,0,.025.825,1.287,1.287,0,0,1,.09.7c.178-.009.357-.029.538-.037.044,0,.093.05.14.077a.816.816,0,0,0,.074.659l2.425-.122c.282-.014.565-.046.846-.037.322.011.645.02.967.03.272.01.544.021.818.026,1.349.023,2.7.147,4.05.089a21.9,21.9,0,0,0,3.565-.221,1.613,1.613,0,0,1,.742-.04,7.2,7.2,0,0,0,2.238.116,23.8,23.8,0,0,0,3.388-.082,2.967,2.967,0,0,1,.658.018,4.755,4.755,0,0,0,2.208-.3,2.308,2.308,0,0,1,1.833.036,2.682,2.682,0,0,0,1.7.192.925.925,0,0,1,.544,0,1.616,1.616,0,0,0,1.193-.026,2.744,2.744,0,0,1,.719-.155,15.7,15.7,0,0,0,1.577-.17,4.182,4.182,0,0,1,1.5.054c.276.056.556.1.831.157a2.642,2.642,0,0,0,1.88-.262.865.865,0,0,0,.785.223,5.85,5.85,0,0,1,1.6-.057,10.389,10.389,0,0,0,2.442.037,1.073,1.073,0,0,1,.373.041,4.064,4.064,0,0,0,.417.053,2.049,2.049,0,0,0,1.7-.515,9.046,9.046,0,0,0,3.355.44c0-.093.007-.185,0-.278A15.719,15.719,0,0,0,178.917,99.091Z"/><path class="cls-3" d="M178.917,141.872a1.147,1.147,0,0,1-.046-.661c0-.012,0-.025.01-.038a5.336,5.336,0,0,0,.121-1.955,16.9,16.9,0,0,0-.092-3.016,2.138,2.138,0,0,1,.019-.586,3.438,3.438,0,0,0-.34-1.966,1.792,1.792,0,0,1-.165-.582,4.291,4.291,0,0,0-.445.072,1.349,1.349,0,0,1-1.222-.349,4.046,4.046,0,0,1-2.474.468,1.067,1.067,0,0,0,.046,1.075.927.927,0,0,1,.065.484c-.053.357-.176.707-.222,1.064a6.089,6.089,0,0,0,.154,2.825c.045.129.108.3.055.4a1.843,1.843,0,0,0-.011,1.241,1.447,1.447,0,0,1,.048.707,9.585,9.585,0,0,0-1.2.06,10.64,10.64,0,0,1-3.279-.06.8.8,0,0,0-.457-.009c-.563.289-1.179.054-1.761.167a1.639,1.639,0,0,1-.723-.146,4.593,4.593,0,0,1-.559-.258,4.949,4.949,0,0,1-2.065.29,1.147,1.147,0,0,0-.468.028,5.906,5.906,0,0,1-1.571.215,7.434,7.434,0,0,0-1.4.09,2.874,2.874,0,0,1-1.38-.008,1.176,1.176,0,0,0-.283.008c-.563.024-1.127.05-1.691.068a.756.756,0,0,1-.367-.039,1.423,1.423,0,0,0-1.26.02,1.3,1.3,0,0,1-.543.059c-.4-.049-.794-.158-1.2-.2a8.591,8.591,0,0,0-3.172.137.831.831,0,0,1-.45.05,2.566,2.566,0,0,0-1.393-.01,1.545,1.545,0,0,1-.925,0,3.3,3.3,0,0,0-1.109-.165c-.529-.062-1.064-.093-1.6-.12a2.59,2.59,0,0,0-.925.023,1.836,1.836,0,0,1-1.2.012,3.353,3.353,0,0,0-1.386-.1,1.634,1.634,0,0,1-1.467-.39.718.718,0,0,0-.767-.214,7.667,7.667,0,0,1-.949.241,8.654,8.654,0,0,0,.022-1.585,16.8,16.8,0,0,0-.092-3.016,2.139,2.139,0,0,1,.02-.586,3.472,3.472,0,0,0-.273-1.758c-.028,0-.058,0-.086,0-1.477.063-2.946-.012-4.416-.076a2.076,2.076,0,0,0,.175.55.927.927,0,0,1,.065.484c-.054.357-.176.707-.223,1.064a6.116,6.116,0,0,0,.154,2.825c.045.129.109.3.056.4a1.837,1.837,0,0,0-.012,1.241,1.657,1.657,0,0,1,.068.652.513.513,0,0,1-.063.172,2.357,2.357,0,0,0-.186.987c-.069.471-.1.946-.134,1.421a1.834,1.834,0,0,0,.025.824,1.288,1.288,0,0,1,.09.7c.178-.009.357-.029.538-.036.044,0,.093.05.14.077a.814.814,0,0,0,.074.658l2.425-.122c.282-.014.565-.046.846-.037l.967.031c.272.009.544.021.818.025,1.349.024,2.7.148,4.05.09a22.128,22.128,0,0,0,3.565-.221,1.6,1.6,0,0,1,.742-.041,7.2,7.2,0,0,0,2.238.117,24.1,24.1,0,0,0,3.388-.082,3.028,3.028,0,0,1,.658.017,4.755,4.755,0,0,0,2.208-.3,2.308,2.308,0,0,1,1.833.037,2.688,2.688,0,0,0,1.7.191.925.925,0,0,1,.544,0,1.612,1.612,0,0,0,1.193-.027,2.785,2.785,0,0,1,.719-.155,15.139,15.139,0,0,0,1.577-.17,4.182,4.182,0,0,1,1.5.054c.276.057.556.1.831.157a2.642,2.642,0,0,0,1.88-.262.868.868,0,0,0,.785.224,5.772,5.772,0,0,1,1.6-.057,10.443,10.443,0,0,0,2.442.037,1.027,1.027,0,0,1,.373.041c.141.027.279.04.417.053a2.05,2.05,0,0,0,1.7-.516,9.047,9.047,0,0,0,3.355.441c0-.093.007-.186,0-.279A15.719,15.719,0,0,0,178.917,141.872Z"/><path class="cls-3" d="M178.917,190.234a1.147,1.147,0,0,1-.046-.661c0-.013,0-.026.01-.038A5.336,5.336,0,0,0,179,187.58a16.891,16.891,0,0,0-.092-3.016,2.147,2.147,0,0,1,.019-.587,3.436,3.436,0,0,0-.34-1.965,1.791,1.791,0,0,1-.165-.583c-.148.02-.3.038-.445.072a1.348,1.348,0,0,1-1.222-.348,4.053,4.053,0,0,1-2.474.468,1.067,1.067,0,0,0,.046,1.075.923.923,0,0,1,.065.483c-.053.358-.176.707-.222,1.065a6.085,6.085,0,0,0,.154,2.824c.045.129.108.3.055.4a1.84,1.84,0,0,0-.011,1.24,1.447,1.447,0,0,1,.048.707,9.587,9.587,0,0,0-1.2.061,10.671,10.671,0,0,1-3.279-.06.8.8,0,0,0-.457-.009c-.563.289-1.179.054-1.761.166a1.624,1.624,0,0,1-.723-.145,4.593,4.593,0,0,1-.559-.258,4.981,4.981,0,0,1-2.065.29,1.13,1.13,0,0,0-.468.028,5.906,5.906,0,0,1-1.571.215,7.352,7.352,0,0,0-1.4.09,2.887,2.887,0,0,1-1.38-.008,1.176,1.176,0,0,0-.283.008c-.563.023-1.127.049-1.691.068a.756.756,0,0,1-.367-.039,1.423,1.423,0,0,0-1.26.02,1.3,1.3,0,0,1-.543.058c-.4-.048-.794-.157-1.2-.2a8.592,8.592,0,0,0-3.172.138.821.821,0,0,1-.45.049,2.575,2.575,0,0,0-1.393-.01,1.537,1.537,0,0,1-.925,0,3.253,3.253,0,0,0-1.109-.165c-.529-.062-1.064-.093-1.6-.12a2.568,2.568,0,0,0-.925.023,1.836,1.836,0,0,1-1.2.012,3.37,3.37,0,0,0-1.386-.106,1.631,1.631,0,0,1-1.467-.389.715.715,0,0,0-.767-.214,7.849,7.849,0,0,1-.949.241,8.655,8.655,0,0,0,.022-1.585,16.8,16.8,0,0,0-.092-3.016,2.147,2.147,0,0,1,.02-.587,3.475,3.475,0,0,0-.273-1.758c-.028,0-.058,0-.086,0-1.477.064-2.946-.012-4.416-.075a2.088,2.088,0,0,0,.175.55.923.923,0,0,1,.065.483c-.054.358-.176.707-.223,1.065a6.111,6.111,0,0,0,.154,2.824c.045.129.109.3.056.4a1.834,1.834,0,0,0-.012,1.24,1.662,1.662,0,0,1,.068.653.509.509,0,0,1-.063.171,2.362,2.362,0,0,0-.186.988c-.069.47-.1.946-.134,1.421a1.834,1.834,0,0,0,.025.824,1.287,1.287,0,0,1,.09.7c.178-.009.357-.029.538-.037.044,0,.093.05.14.077a.816.816,0,0,0,.074.659l2.425-.122c.282-.014.565-.046.846-.037.322.011.645.02.967.03.272.01.544.021.818.026,1.349.023,2.7.147,4.05.089a22.014,22.014,0,0,0,3.565-.22,1.6,1.6,0,0,1,.742-.041,7.232,7.232,0,0,0,2.238.117,24.1,24.1,0,0,0,3.388-.082,2.967,2.967,0,0,1,.658.017,4.755,4.755,0,0,0,2.208-.3,2.308,2.308,0,0,1,1.833.036,2.682,2.682,0,0,0,1.7.192.917.917,0,0,1,.544,0,1.621,1.621,0,0,0,1.193-.027,2.744,2.744,0,0,1,.719-.155,15.7,15.7,0,0,0,1.577-.17,4.182,4.182,0,0,1,1.5.054c.276.056.556.1.831.157a2.642,2.642,0,0,0,1.88-.262.865.865,0,0,0,.785.223,5.85,5.85,0,0,1,1.6-.057,10.389,10.389,0,0,0,2.442.037,1.051,1.051,0,0,1,.373.042c.141.027.279.039.417.052a2.049,2.049,0,0,0,1.7-.515,9.046,9.046,0,0,0,3.355.44c0-.093.007-.185,0-.278A15.719,15.719,0,0,0,178.917,190.234Z"/><path class="cls-3" d="M178.917,236.735a1.144,1.144,0,0,1-.046-.66c0-.013,0-.026.01-.039a5.336,5.336,0,0,0,.121-1.955,16.9,16.9,0,0,0-.092-3.016,2.141,2.141,0,0,1,.019-.586,3.441,3.441,0,0,0-.34-1.966,1.785,1.785,0,0,1-.165-.582,4.291,4.291,0,0,0-.445.072,1.348,1.348,0,0,1-1.222-.348,4.052,4.052,0,0,1-2.474.467,1.067,1.067,0,0,0,.046,1.075.927.927,0,0,1,.065.484c-.053.358-.176.707-.222,1.065a6.085,6.085,0,0,0,.154,2.824c.045.129.108.3.055.4a1.843,1.843,0,0,0-.011,1.241,1.447,1.447,0,0,1,.048.707,9.585,9.585,0,0,0-1.2.06,10.609,10.609,0,0,1-3.279-.06.82.82,0,0,0-.457-.009c-.563.289-1.179.054-1.761.167a1.625,1.625,0,0,1-.723-.146,4.593,4.593,0,0,1-.559-.257,4.981,4.981,0,0,1-2.065.29,1.13,1.13,0,0,0-.468.027,5.906,5.906,0,0,1-1.571.215,7.434,7.434,0,0,0-1.4.09,2.874,2.874,0,0,1-1.38-.007,1.127,1.127,0,0,0-.283.008c-.563.023-1.127.049-1.691.067a.756.756,0,0,1-.367-.039,1.427,1.427,0,0,0-1.26.02,1.3,1.3,0,0,1-.543.059c-.4-.049-.794-.158-1.2-.2a8.592,8.592,0,0,0-3.172.138.84.84,0,0,1-.45.049,2.566,2.566,0,0,0-1.393-.01,1.545,1.545,0,0,1-.925,0,3.253,3.253,0,0,0-1.109-.165c-.529-.063-1.064-.093-1.6-.12a2.568,2.568,0,0,0-.925.022,1.83,1.83,0,0,1-1.2.012,3.353,3.353,0,0,0-1.386-.1,1.631,1.631,0,0,1-1.467-.39.718.718,0,0,0-.767-.214,7.667,7.667,0,0,1-.949.241,8.654,8.654,0,0,0,.022-1.585,16.8,16.8,0,0,0-.092-3.016,2.141,2.141,0,0,1,.02-.586,3.475,3.475,0,0,0-.273-1.758l-.086,0c-1.477.063-2.946-.012-4.416-.076a2.076,2.076,0,0,0,.175.55.927.927,0,0,1,.065.484c-.054.358-.176.707-.223,1.065a6.111,6.111,0,0,0,.154,2.824c.045.129.109.3.056.4a1.837,1.837,0,0,0-.012,1.241,1.657,1.657,0,0,1,.068.652.506.506,0,0,1-.063.172,2.36,2.36,0,0,0-.186.987c-.069.471-.1.947-.134,1.421a1.833,1.833,0,0,0,.025.824,1.288,1.288,0,0,1,.09.7c.178-.009.357-.028.538-.036.044,0,.093.05.14.077a.814.814,0,0,0,.074.658l2.425-.122c.282-.014.565-.046.846-.036.322.011.645.019.967.03.272.009.544.021.818.026,1.349.023,2.7.147,4.05.089a22.128,22.128,0,0,0,3.565-.221,1.586,1.586,0,0,1,.742-.04,7.232,7.232,0,0,0,2.238.116,23.95,23.95,0,0,0,3.388-.082,3.028,3.028,0,0,1,.658.017,4.754,4.754,0,0,0,2.208-.3,2.308,2.308,0,0,1,1.833.036,2.688,2.688,0,0,0,1.7.191.925.925,0,0,1,.544,0,1.612,1.612,0,0,0,1.193-.027,2.784,2.784,0,0,1,.719-.154,15.417,15.417,0,0,0,1.577-.171,4.2,4.2,0,0,1,1.5.054c.276.057.556.1.831.158a2.643,2.643,0,0,0,1.88-.263.868.868,0,0,0,.785.224,5.772,5.772,0,0,1,1.6-.057,10.389,10.389,0,0,0,2.442.037,1.049,1.049,0,0,1,.373.041,4.064,4.064,0,0,0,.417.053,2.049,2.049,0,0,0,1.7-.515,9.067,9.067,0,0,0,3.355.44c0-.093.007-.185,0-.278A15.734,15.734,0,0,0,178.917,236.735Z"/><path class="cls-3" d="M69.007,35.975l.32-.124a2.711,2.711,0,0,1-.039-.331c0-.289.081-.544.633-.625.125-.018.2-.118.3-.176a2.5,2.5,0,0,1,1.533-.466.489.489,0,0,0,.179-.018,6.128,6.128,0,0,1,2.457-.05c1.071.084,2.14.194,3.211.28a7.343,7.343,0,0,0,.938,0,2.4,2.4,0,0,0,1.8-.583c.741.02,1.492.034,2.244.066a4.866,4.866,0,0,1,.643.112c.31.057.618.12.929.169a2.292,2.292,0,0,0,.916-.015,7.55,7.55,0,0,1,.875-.137,4.291,4.291,0,0,1,1.205-.013,4.042,4.042,0,0,0,1.394.03,1.941,1.941,0,0,1,.835.072,16.564,16.564,0,0,0,2.475.526,3.044,3.044,0,0,1,.779.24,1.283,1.283,0,0,0,1.045.017,5.119,5.119,0,0,0,1.02-.491,2.86,2.86,0,0,1,1.771-.579,6.349,6.349,0,0,0,2.5.451c.25.008.505.015.753.048a23.211,23.211,0,0,0,2.359.2,6.291,6.291,0,0,0,1.8-.151c.136-.037.279-.064.441-.1a4.817,4.817,0,0,1,1.345.468c.169.095.372.17.53.27a4.484,4.484,0,0,0,2.388.522c.188,0,.377-.006.563.014a3.4,3.4,0,0,0,1.773-.306c.1-.039.162-.1.262-.138a1.327,1.327,0,0,1,1.053.068c.461.245.984.449,1.142.857.127.326.653.544,1.114.733s.946.358,1.39.571a6.917,6.917,0,0,0,.93.283,1.341,1.341,0,0,1,.2.349c.074.338.438.635.53.975a9.521,9.521,0,0,1,.505,1.321.2.2,0,0,0,.058.108,2.4,2.4,0,0,1,.614,1.534.321.321,0,0,0,.042.166A1.762,1.762,0,0,1,119,43.721a1.647,1.647,0,0,0,.328,1.375.617.617,0,0,1,.157.325,2.4,2.4,0,0,0,.018,1.1c-.147.171-.221.393-.456.5a1.7,1.7,0,0,0-.918,1.169,3.525,3.525,0,0,1-.442.979c-.082.105-.051.247-.07.363-.126.067-.232.128-.344.183-.306.152-.48.34-.5.6a.556.556,0,0,1-.2.4,1.237,1.237,0,0,1-.96.222,6.876,6.876,0,0,0-1.764.023,2.886,2.886,0,0,1-.742-.01,6.632,6.632,0,0,0-1.495-.018,11.344,11.344,0,0,1-2.335-.02,5.739,5.739,0,0,0-1.393.01c-.665.079-1.345.087-2.027.107a5.285,5.285,0,0,0-1.37.073,1.8,1.8,0,0,1-.646-.036,7.6,7.6,0,0,0-1.5-.063c-.462.021-.945-.015-1.4.016-1.043.072-2.119-.005-3.169.033-.247.009-.506,0-.74.03a14.268,14.268,0,0,1-2.042.051c-.215,0-.426.022-.64.029a4.715,4.715,0,0,1-.732.012,7.887,7.887,0,0,0-1.3-.012c-.77.028-1.56-.008-2.342-.015a3.189,3.189,0,0,0-.646.015,8.292,8.292,0,0,1-2.3.049c-.753-.052-1.505-.051-2.258-.1a3.036,3.036,0,0,1-1.194-.161.488.488,0,0,0-.259-.033,3.114,3.114,0,0,1-1.009.025,3.6,3.6,0,0,0-.72.063c-.352.051-.7.114-1.042.176a1.574,1.574,0,0,1-.764-.066l.292-.183c-.723-.168-1.3-.5-1.993-.667l-.84.4a6.883,6.883,0,0,1-1.171-.357,8.956,8.956,0,0,0-1.13-.355c-.236-.068-.48-.125-.722-.185a2.39,2.39,0,0,0-1.266-.117,2.961,2.961,0,0,1-.709-.007,1.633,1.633,0,0,0-.184.061c-.621.31-.711.306-1.409-.061a7.206,7.206,0,0,1-1.692-.993.886.886,0,0,0-.29-.161,1.44,1.44,0,0,1-1.017-1.072,2.086,2.086,0,0,0-.056-.333c-.089-.19.074-.313.211-.444-.1-.113-.31-.171-.281-.343a5.792,5.792,0,0,0-.1-1.874.8.8,0,0,0-.36-.583.543.543,0,0,1-.28-.585.593.593,0,0,0-.032-.386,1.774,1.774,0,0,1-.087-1.214.8.8,0,0,0-.226-.765c-.05-.05-.117-.109-.114-.158a6.39,6.39,0,0,0-.242-1.1,4.934,4.934,0,0,0-.217-1c-.217-.623-.222-.6.545-.9.272-.106.547-.21.8-.328a1.13,1.13,0,0,0,.417-.26,1.932,1.932,0,0,1,1.114-.647C69.179,36.389,69.2,36.212,69.007,35.975Z"/><path class="cls-2" d="M81.275,38.716v3.078h-.869V40.341l-.836-.618H77.957v6.683h1.065v.572h-3.96v-.572h1.052V39.723H74.021l-.7.32v1.751h-.87V38.716h.87v.458h7.084v-.458Z"/><path class="cls-2" d="M81.858,46.406h1.053v-6.66H81.858v-.572h3.96v.572H84.754v6.66h1.064v.572h-3.96Z"/><path class="cls-2" d="M96.724,39.746v6.66h1.063v.572H93.851v-.572H94.9v-6.66h-.17l-2.61,6.477h-.882L88.6,39.746h-.183v5.4l.458,1.259h.973v.572H86.607v-.572h.755l.457-1.259v-5.4H86.8v-.572H90.36l1.992,4.9,1.957-4.9h3.478v.572Z"/><path class="cls-2" d="M106.656,43.866l-.275,3.685h-.869l.046-.573h-6.89v-.572h1.053v-6.66H98.668v-.572h6.614v-.458h.87V41.68h-.87V40.4l-1.029-.641h-2.689V42.7h1.11l.881-.411v-.8h.87v3.033h-.87V43.282h-1.991V46.36h3.055l1.019-.56.148-1.934Z"/><path class="cls-2" d="M109.024,46.154v.824H107.96V44.049h1.064v1.5a2.388,2.388,0,0,0,2.048.972c1.145,0,1.591-.491,1.591-1.144,0-.378-.172-.824-1.007-1.19l-2.277-1.007a2.012,2.012,0,0,1-1.442-2.049c0-1.224,1.018-2.105,2.712-2.128a2.674,2.674,0,0,1,2.244,1.03v-.858h1.017v2.735h-1.017v-1.19a2.279,2.279,0,0,0-2.027-1.111c-.915,0-1.315.458-1.315.916,0,.412.16.812.881,1.121l2.209.95c1.339.584,1.7,1.191,1.7,2.22,0,1.294-1.065,2.335-2.976,2.335A3,3,0,0,1,109.024,46.154Z"/><path class="cls-3" d="M222.277,31.347l.457-.234a5,5,0,0,0,2.1.405c.566.032,1.131-.034,1.7.016a3.142,3.142,0,0,0,.811-.1,1.154,1.154,0,0,1,.461.007,4.572,4.572,0,0,0,1.512.1c.077-.009.174.006.228-.03a1.216,1.216,0,0,1,.839-.129c.6.049,1.208.064,1.811.1.432.028.635.218.655.595a.6.6,0,0,1-.018.208,5.789,5.789,0,0,0-.085,1.661c-.015.487.021.975.035,1.463a.518.518,0,0,1,0,.157,14.933,14.933,0,0,0-.122,2.134,1.349,1.349,0,0,0,0,.262c.014.539.03,1.079.043,1.618a.583.583,0,0,1-.016.209,3.174,3.174,0,0,0-.036,1.141c.009.418-.017.833-.035,1.249a8.333,8.333,0,0,0-.024,1.766,8.785,8.785,0,0,1-.015,1.356c0,.749-.118,1.493-.077,2.244a2.942,2.942,0,0,1-.128.825,1.666,1.666,0,0,0,0,.878,4.029,4.029,0,0,1-.007,1.2c0,.521-.04,1.045,0,1.564a2.95,2.95,0,0,1-.05.776.828.828,0,0,1-.936.621,6.786,6.786,0,0,0-1.4-.025,1.574,1.574,0,0,1-.686-.118.459.459,0,0,0-.444.039.531.531,0,0,1-.5.076.419.419,0,0,0-.171-.033,2.471,2.471,0,0,1-.973,0,6.172,6.172,0,0,0-.986.016,1.523,1.523,0,0,0-.793.057.246.246,0,0,1-.172-.013,1.986,1.986,0,0,0-.8-.04,21.669,21.669,0,0,1-2.28.008,12.548,12.548,0,0,0-1.691-.007c-.235,0-.47,0-.7.006a5.064,5.064,0,0,0-.523.033,2.947,2.947,0,0,1-1.278-.049.346.346,0,0,0-.17-.032c-.542.157-1.083-.1-1.623,0a3.844,3.844,0,0,0-1.038.055,10.38,10.38,0,0,0-1.042.032,5.271,5.271,0,0,1-.933-.07c-.116-.011-.246-.075-.342-.044a1.771,1.771,0,0,1-.974-.025,2.012,2.012,0,0,0-.527-.013c-.428.019-.855.064-1.283.069-.409.006-.818-.029-1.228-.039-.367-.008-.734-.005-1.1-.01a1.142,1.142,0,0,1-.288-.019,2.318,2.318,0,0,0-.988,0c-.23.031-.465.036-.7.063a.742.742,0,0,1-.6-.144.515.515,0,0,0-.386-.077,5.508,5.508,0,0,1-.76.006,1.2,1.2,0,0,1-.33-.144,1.354,1.354,0,0,1-.742.119.172.172,0,0,1-.139-.242c.047-.076.121-.14.16-.219a1.376,1.376,0,0,0,.245-1.1,1.025,1.025,0,0,1-.011-.261.605.605,0,0,1,.244-.561c.124-.1.111-.111.115-.349-.223-.029-.454-.053-.681-.089-.243-.039-.311-.116-.341-.355-.027-.206-.053-.412-.071-.553.273-.366.515-.678.739-1a.5.5,0,0,0,.082-.453,1.714,1.714,0,0,1,.181-1.219,1.2,1.2,0,0,0,0-1.155.819.819,0,0,1-.063-.457,2.057,2.057,0,0,1,.4-1.337c.047-.052.1-.128.093-.185-.069-.419.084-.832.031-1.263a.914.914,0,0,1-.376-.826.612.612,0,0,1,.224-.464.764.764,0,0,0,.357-.784.741.741,0,0,1,.038-.308,3.442,3.442,0,0,0,.109-1.237,2.828,2.828,0,0,1,.1-.669,1.316,1.316,0,0,0,.064-.306c-.043-.466-.1-.931-.158-1.418-.225-.088-.441-.167-.651-.255-.24-.1-.281-.177-.23-.416.036-.168.082-.333.13-.524l.39.137c.024-.026.069-.055.065-.076a1.2,1.2,0,0,1,.2-.751c.123-.253.206-.495-.029-.742.075-.1.142-.182.2-.269a.429.429,0,0,0,.085-.445.736.736,0,0,1-.038-.2,1.676,1.676,0,0,1,.137-1.171.717.717,0,0,0,.045-.358c0-.155-.013-.31-.022-.48l.76-.361a4.422,4.422,0,0,1,.4.19.371.371,0,0,0,.387.027c.242-.188.562-.121.825-.252a1.4,1.4,0,0,1,.193.107.834.834,0,0,0,.906.186,1.577,1.577,0,0,1,.516-.059.642.642,0,0,1,.214.054c.054.018.117.078.153.066.323-.11.546.088.8.188a1.83,1.83,0,0,0,.919.116,2.993,2.993,0,0,1,.813.037,5.873,5.873,0,0,0,1.575.076,2.681,2.681,0,0,1,.861.109.852.852,0,0,0,.514.012.43.43,0,0,1,.44.035.2.2,0,0,0,.161,0,1.763,1.763,0,0,1,1.068-.152,4.01,4.01,0,0,0,.639,0c.448-.03.9-.031,1.346-.048a1.563,1.563,0,0,0,.35-.034,2.663,2.663,0,0,1,1.544.046.6.6,0,0,0,.285.043.942.942,0,0,1,.771.156.708.708,0,0,0,.334.057C221.627,31.334,221.92,31.338,222.277,31.347Zm-17.412,4.587a1.908,1.908,0,0,0,.084-.321.227.227,0,0,0-.079-.181c-.043-.033-.171-.046-.2-.018a.788.788,0,0,0-.263.653.218.218,0,0,0,.14.144.263.263,0,0,0,.191-.071A.83.83,0,0,0,204.865,35.934Z"/><path class="cls-2" d="M216.131,43.808v-.08c-1.339-.584-1.625-1.007-1.625-1.877,0-1.2.984-2.025,2.724-2.025,1.888,0,2.827.515,2.827,1.407,0,.847-.584,1.248-1.671,1.6v.08c1.637.767,1.957,1.156,1.957,2.048,0,1.408-1.167,2.163-3.216,2.163-1.843,0-2.793-.721-2.793-1.774C214.334,44.8,214.655,44.037,216.131,43.808Zm1,2.827c1.019,0,1.557-.366,1.557-.984,0-.573-.218-.847-2.129-1.694a1.3,1.3,0,0,0-.973,1.431C215.582,46.109,216.005,46.635,217.127,46.635Zm.813-3.959a1.316,1.316,0,0,0,.87-1.328c0-.595-.424-1.03-1.477-1.03-.95,0-1.328.3-1.328.824C216.005,41.691,216.211,41.886,217.94,42.676Z"/><path class="cls-3" d="M214.027,102l-.457.233a5.02,5.02,0,0,0-2.1-.405c-.566-.031-1.131.035-1.7-.016a3.186,3.186,0,0,0-.811.1,1.136,1.136,0,0,1-.461-.007,4.6,4.6,0,0,0-1.512-.1c-.077.009-.174-.006-.228.031a1.229,1.229,0,0,1-.84.129c-.6-.049-1.207-.065-1.81-.1-.432-.027-.635-.217-.655-.594a.609.609,0,0,1,.018-.209,5.747,5.747,0,0,0,.084-1.66c.016-.487-.02-.976-.034-1.464a.512.512,0,0,1,0-.156,14.947,14.947,0,0,0,.122-2.135,1.338,1.338,0,0,0,0-.261c-.014-.54-.03-1.079-.043-1.619a.576.576,0,0,1,.016-.208,3.179,3.179,0,0,0,.036-1.142c-.009-.417.017-.832.035-1.249a8.332,8.332,0,0,0,.024-1.766,8.787,8.787,0,0,1,.015-1.356c0-.748.118-1.493.077-2.244a2.906,2.906,0,0,1,.128-.825,1.666,1.666,0,0,0,0-.878,4.022,4.022,0,0,1,.007-1.2c0-.522.04-1.045,0-1.564a3,3,0,0,1,.049-.777.829.829,0,0,1,.937-.62,6.856,6.856,0,0,0,1.4.025,1.573,1.573,0,0,1,.686.117.456.456,0,0,0,.444-.039.531.531,0,0,1,.5-.076.421.421,0,0,0,.171.034,2.434,2.434,0,0,1,.973,0,6.415,6.415,0,0,0,.986-.016,1.534,1.534,0,0,0,.793-.057.246.246,0,0,1,.172.012,2,2,0,0,0,.8.041,21.141,21.141,0,0,1,2.28-.008,12.714,12.714,0,0,0,1.691.007c.235,0,.47,0,.7-.007.174,0,.35-.01.523-.032a2.947,2.947,0,0,1,1.278.048.346.346,0,0,0,.17.032c.542-.157,1.083.1,1.623,0a3.843,3.843,0,0,0,1.038-.054c.347,0,.693,0,1.042-.032a5.16,5.16,0,0,1,.932.07c.116.011.247.074.343.044a1.762,1.762,0,0,1,.974.024,1.969,1.969,0,0,0,.527.014c.428-.02.855-.064,1.283-.07.409,0,.818.03,1.228.039.367.009.734.006,1.1.01a1.1,1.1,0,0,1,.288.02,2.346,2.346,0,0,0,.987,0c.231-.031.466-.037.7-.064a.742.742,0,0,1,.6.144.506.506,0,0,0,.386.077,5.355,5.355,0,0,1,.76,0,1.138,1.138,0,0,1,.33.144,1.345,1.345,0,0,1,.742-.119.171.171,0,0,1,.139.242c-.047.076-.121.14-.16.218a1.377,1.377,0,0,0-.245,1.1,1.017,1.017,0,0,1,.011.26.608.608,0,0,1-.244.562c-.124.1-.111.11-.115.348.223.029.453.053.681.09s.311.116.341.354c.027.206.053.413.071.553-.273.367-.516.678-.739,1a.5.5,0,0,0-.082.453,1.72,1.72,0,0,1-.181,1.219,1.2,1.2,0,0,0,0,1.154.824.824,0,0,1,.063.458,2.058,2.058,0,0,1-.4,1.337c-.047.052-.1.128-.093.185.069.418-.084.831-.031,1.263a.912.912,0,0,1,.376.826.614.614,0,0,1-.224.464.764.764,0,0,0-.357.784.743.743,0,0,1-.038.308,3.437,3.437,0,0,0-.109,1.236,2.828,2.828,0,0,1-.1.669,1.324,1.324,0,0,0-.064.307c.043.465.1.93.158,1.418.225.087.44.166.651.255.24.1.281.176.23.416-.036.167-.082.332-.13.523l-.39-.137c-.024.027-.069.055-.065.076a1.206,1.206,0,0,1-.2.752c-.123.252-.206.5.029.742-.075.1-.142.182-.2.269a.429.429,0,0,0-.085.445.723.723,0,0,1,.038.2,1.674,1.674,0,0,1-.137,1.17.719.719,0,0,0-.045.358c0,.156.013.311.022.48l-.76.362a4.432,4.432,0,0,1-.4-.191.371.371,0,0,0-.387-.027c-.242.188-.562.121-.825.253a1.514,1.514,0,0,1-.193-.108.834.834,0,0,0-.906-.185,1.583,1.583,0,0,1-.517.058.614.614,0,0,1-.213-.054c-.054-.018-.117-.077-.153-.065-.323.109-.546-.089-.8-.189a1.83,1.83,0,0,0-.919-.116,2.961,2.961,0,0,1-.814-.036,5.864,5.864,0,0,0-1.574-.076,2.709,2.709,0,0,1-.861-.109.837.837,0,0,0-.514-.012.434.434,0,0,1-.44-.035.2.2,0,0,0-.161,0,1.77,1.77,0,0,1-1.068.151,4.26,4.26,0,0,0-.639,0c-.448.03-.9.032-1.346.048a1.682,1.682,0,0,0-.35.034,2.663,2.663,0,0,1-1.544-.046.6.6,0,0,0-.286-.043.94.94,0,0,1-.77-.155.7.7,0,0,0-.334-.058C214.677,102.013,214.384,102.01,214.027,102Zm17.412-4.587a1.921,1.921,0,0,0-.084.32.229.229,0,0,0,.079.182.234.234,0,0,0,.2.018.79.79,0,0,0,.263-.654.218.218,0,0,0-.14-.144.267.267,0,0,0-.191.071A.809.809,0,0,0,231.439,97.414Z"/><path class="cls-2" d="M214.489,94.664h1.649v.676h-5.265v-.676h1.854V89.343l-2.312,1.842v-1.2l3.33-1.728h.744Z"/><path class="cls-2" d="M223.3,91.838c0,2.7-1.785,3.639-3.274,3.639s-3.272-.939-3.272-3.639,1.785-3.651,3.272-3.651S223.3,89.137,223.3,91.838Zm-1.809.023c0-2.507-.572-3.113-1.465-3.113s-1.464.583-1.464,3.09c0,2.449.686,3.078,1.464,3.078S221.492,94.31,221.492,91.861Z"/><path class="cls-3" d="M222.277,124.35l.457-.234a5.005,5.005,0,0,0,2.1.406c.566.031,1.131-.035,1.7.015a3.1,3.1,0,0,0,.811-.1,1.154,1.154,0,0,1,.461.007,4.6,4.6,0,0,0,1.512.1c.077-.01.174,0,.228-.031a1.216,1.216,0,0,1,.839-.129c.6.049,1.208.064,1.811.1.432.027.635.217.655.594a.6.6,0,0,1-.018.208,5.791,5.791,0,0,0-.085,1.661c-.015.487.021.975.035,1.463a.518.518,0,0,1,0,.157,14.933,14.933,0,0,0-.122,2.134,1.349,1.349,0,0,0,0,.262c.014.539.03,1.079.043,1.619a.58.58,0,0,1-.016.208,3.174,3.174,0,0,0-.036,1.141c.009.418-.017.833-.035,1.249a8.342,8.342,0,0,0-.024,1.767,8.773,8.773,0,0,1-.015,1.355c0,.749-.118,1.493-.077,2.244a2.955,2.955,0,0,1-.128.826,1.662,1.662,0,0,0,0,.877,4.029,4.029,0,0,1-.007,1.2c0,.521-.04,1.045,0,1.564a2.947,2.947,0,0,1-.05.776.828.828,0,0,1-.936.621,6.856,6.856,0,0,0-1.4-.025,1.574,1.574,0,0,1-.686-.118.459.459,0,0,0-.444.039.528.528,0,0,1-.5.076.419.419,0,0,0-.171-.033,2.434,2.434,0,0,1-.973,0,6.172,6.172,0,0,0-.986.016,1.523,1.523,0,0,0-.793.057.246.246,0,0,1-.172-.012,1.987,1.987,0,0,0-.8-.041,21.4,21.4,0,0,1-2.28.008,12.548,12.548,0,0,0-1.691-.007c-.235,0-.47,0-.7.007a4.8,4.8,0,0,0-.523.032,2.947,2.947,0,0,1-1.278-.049.346.346,0,0,0-.17-.032c-.542.157-1.083-.1-1.623,0a3.844,3.844,0,0,0-1.038.055c-.347,0-.693,0-1.042.032a5.271,5.271,0,0,1-.933-.07c-.116-.011-.246-.074-.342-.044a1.781,1.781,0,0,1-.974-.024,1.969,1.969,0,0,0-.527-.014c-.428.02-.855.064-1.283.069-.409.006-.818-.029-1.228-.039-.367-.008-.734,0-1.1-.009a1.142,1.142,0,0,1-.288-.02,2.35,2.35,0,0,0-.988,0c-.23.031-.465.036-.7.064a.746.746,0,0,1-.6-.145.515.515,0,0,0-.386-.077,5.355,5.355,0,0,1-.76.006,1.167,1.167,0,0,1-.33-.144,1.354,1.354,0,0,1-.742.119.172.172,0,0,1-.139-.242c.047-.076.121-.14.16-.218a1.378,1.378,0,0,0,.245-1.1,1.017,1.017,0,0,1-.011-.26.608.608,0,0,1,.244-.562c.124-.1.111-.111.115-.349-.223-.029-.454-.052-.681-.089-.243-.039-.311-.116-.341-.354-.027-.207-.053-.413-.071-.553.273-.367.515-.679.739-1a.5.5,0,0,0,.082-.453,1.715,1.715,0,0,1,.181-1.219,1.2,1.2,0,0,0,0-1.154.824.824,0,0,1-.063-.458,2.057,2.057,0,0,1,.4-1.337c.047-.052.1-.128.093-.185-.069-.419.084-.832.031-1.263a.912.912,0,0,1-.376-.826.614.614,0,0,1,.224-.464.764.764,0,0,0,.357-.784.741.741,0,0,1,.038-.308,3.437,3.437,0,0,0,.109-1.236,2.837,2.837,0,0,1,.1-.67,1.316,1.316,0,0,0,.064-.306c-.043-.466-.1-.93-.158-1.418-.225-.088-.441-.166-.651-.255-.24-.1-.281-.177-.23-.416.036-.167.082-.333.13-.523l.39.136c.024-.026.069-.054.065-.075a1.2,1.2,0,0,1,.2-.752c.123-.253.206-.5-.029-.742.075-.1.142-.182.2-.269a.429.429,0,0,0,.085-.445.729.729,0,0,1-.038-.2,1.673,1.673,0,0,1,.137-1.17.723.723,0,0,0,.045-.359c0-.155-.013-.31-.022-.479l.76-.362a4.177,4.177,0,0,1,.4.191.375.375,0,0,0,.387.027c.242-.189.562-.122.825-.253a1.4,1.4,0,0,1,.193.108.836.836,0,0,0,.906.185,1.577,1.577,0,0,1,.516-.058.64.64,0,0,1,.214.053c.054.018.117.078.153.066.323-.11.546.089.8.188a1.841,1.841,0,0,0,.919.117,2.953,2.953,0,0,1,.813.036,5.873,5.873,0,0,0,1.575.076,2.681,2.681,0,0,1,.861.109.852.852,0,0,0,.514.012.432.432,0,0,1,.44.035.2.2,0,0,0,.161,0,1.763,1.763,0,0,1,1.068-.151,4.26,4.26,0,0,0,.639,0c.448-.031.9-.032,1.346-.049a1.563,1.563,0,0,0,.35-.034,2.655,2.655,0,0,1,1.544.047.609.609,0,0,0,.285.042.942.942,0,0,1,.771.156.721.721,0,0,0,.334.058C221.627,124.337,221.92,124.341,222.277,124.35Zm-17.412,4.587a1.908,1.908,0,0,0,.084-.321.229.229,0,0,0-.079-.181.234.234,0,0,0-.2-.018.79.79,0,0,0-.263.654.219.219,0,0,0,.14.143.266.266,0,0,0,.191-.07A.859.859,0,0,0,204.865,128.937Z"/><path class="cls-2" d="M214.489,139.308h1.649v.675h-5.265v-.675h1.854v-5.321l-2.312,1.842v-1.2l3.33-1.728h.744Z"/><path class="cls-2" d="M216.743,139.5l2.209-2.049c1.145-1.064,1.568-1.659,1.568-2.472a1.254,1.254,0,0,0-1.282-1.293,1.805,1.805,0,0,0-1.236.469v1.5h-1.041v-2.679H218v.825a2.949,2.949,0,0,1,2.175-.973c1.4,0,2.22.789,2.22,1.9,0,1.317-1.431,2.129-2.54,2.839l-1.615,1.03,4.143-.149v1.533h-5.642Z"/><path class="cls-3" d="M213.957,172.685a.692.692,0,0,0,.334-.058.941.941,0,0,1,.771-.155.6.6,0,0,0,.286-.043,2.66,2.66,0,0,1,1.543-.046,1.623,1.623,0,0,0,.35.034c.449.016.9.018,1.346.048a4.022,4.022,0,0,0,.64,0,1.771,1.771,0,0,1,1.068.151.191.191,0,0,0,.16,0,.432.432,0,0,1,.44-.034.852.852,0,0,0,.514-.012,2.692,2.692,0,0,1,.862-.11,5.827,5.827,0,0,0,1.574-.076,3.041,3.041,0,0,1,.814-.036,1.831,1.831,0,0,0,.919-.116c.257-.1.48-.3.8-.189.036.013.1-.047.154-.065a.614.614,0,0,1,.213-.054,1.577,1.577,0,0,1,.516.059.834.834,0,0,0,.906-.186,1.46,1.46,0,0,1,.194-.108c.262.132.583.065.824.253a.373.373,0,0,0,.388-.027,4.041,4.041,0,0,1,.4-.19l.761.361c-.009.169-.025.325-.023.48a.741.741,0,0,0,.045.358,1.682,1.682,0,0,1,.138,1.171.737.737,0,0,1-.039.2.434.434,0,0,0,.085.445c.06.087.128.17.2.269-.236.247-.153.489-.03.741a1.2,1.2,0,0,1,.2.752c0,.021.041.05.065.076l.391-.137c.047.191.094.356.129.523.051.24.011.316-.23.417-.21.088-.426.167-.651.255-.056.487-.115.952-.157,1.418a1.266,1.266,0,0,0,.064.306,2.827,2.827,0,0,1,.095.669,3.437,3.437,0,0,0,.11,1.236.783.783,0,0,1,.038.309.763.763,0,0,0,.356.784.612.612,0,0,1,.224.464.913.913,0,0,1-.375.826c-.054.431.1.844.031,1.262-.01.057.046.134.093.186a2.059,2.059,0,0,1,.4,1.336.823.823,0,0,1-.062.458,1.2,1.2,0,0,0,0,1.154,1.718,1.718,0,0,1,.182,1.22.5.5,0,0,0,.082.453c.223.322.466.634.739,1-.018.141-.045.347-.071.553-.031.239-.1.315-.341.355s-.459.06-.682.089c0,.238-.009.252.116.349a.607.607,0,0,1,.243.561.981.981,0,0,1-.011.261,1.376,1.376,0,0,0,.246,1.1c.039.078.113.143.159.219a.172.172,0,0,1-.138.242,1.354,1.354,0,0,1-.742-.119,1.209,1.209,0,0,1-.33.144,5.521,5.521,0,0,1-.761-.006.511.511,0,0,0-.386.077.741.741,0,0,1-.6.144c-.232-.027-.467-.032-.7-.063a2.329,2.329,0,0,0-.987,0,1.1,1.1,0,0,1-.289.02c-.367,0-.734,0-1.1.01-.409.01-.819.045-1.228.039-.428-.006-.855-.05-1.283-.069a1.962,1.962,0,0,0-.526.013,1.772,1.772,0,0,1-.974.025c-.1-.031-.227.033-.343.044a5.265,5.265,0,0,1-.932.069c-.349-.03-.7-.035-1.043-.032a3.877,3.877,0,0,0-1.037-.054c-.54-.1-1.082.155-1.623,0a.346.346,0,0,0-.17.032,2.948,2.948,0,0,1-1.278.049,5.083,5.083,0,0,0-.524-.033c-.235-.006-.469,0-.7-.007a12.712,12.712,0,0,0-1.691.008,21.668,21.668,0,0,1-2.28-.008,1.991,1.991,0,0,0-.8.04.244.244,0,0,1-.171.013,1.527,1.527,0,0,0-.794-.057,6.17,6.17,0,0,0-.986-.016,2.471,2.471,0,0,1-.973,0,.423.423,0,0,0-.171.033.531.531,0,0,1-.5-.076.454.454,0,0,0-.443-.039,1.588,1.588,0,0,1-.686.118,6.716,6.716,0,0,0-1.4.025.829.829,0,0,1-.937-.621,3.037,3.037,0,0,1-.05-.776c.04-.519,0-1.043,0-1.565a4.056,4.056,0,0,1-.007-1.195,1.666,1.666,0,0,0,0-.878,2.9,2.9,0,0,1-.127-.825c.04-.751-.082-1.5-.078-2.244a8.661,8.661,0,0,1-.014-1.356,8.4,8.4,0,0,0-.025-1.766c-.018-.416-.044-.832-.035-1.249a3.129,3.129,0,0,0-.036-1.141.607.607,0,0,1-.016-.209c.013-.539.029-1.079.044-1.619a1.516,1.516,0,0,0,0-.261,14.956,14.956,0,0,0-.123-2.135.512.512,0,0,1,0-.156c.014-.488.05-.976.035-1.463a5.789,5.789,0,0,0-.085-1.661.582.582,0,0,1-.017-.208c.019-.377.222-.568.654-.595.6-.038,1.209-.053,1.811-.1a1.219,1.219,0,0,1,.84.129c.053.036.15.021.227.03a4.572,4.572,0,0,0,1.512-.1,1.136,1.136,0,0,1,.461-.007,3.147,3.147,0,0,0,.811.1c.568-.05,1.132.016,1.7-.016a5.009,5.009,0,0,0,2.1-.405l.457.234C213.372,172.7,213.665,172.7,213.957,172.685Zm16.6,4.82a.265.265,0,0,0,.19.071.218.218,0,0,0,.14-.144.789.789,0,0,0-.262-.653.231.231,0,0,0-.2.017.225.225,0,0,0-.078.182,1.973,1.973,0,0,0,.083.32A.819.819,0,0,0,230.552,177.505Z"/><path class="cls-2" d="M214.489,187.669h1.649v.676h-5.265v-.676h1.854v-5.321l-2.312,1.842v-1.2l3.33-1.728h.744Z"/><path class="cls-2" d="M218.678,184.705a3.061,3.061,0,0,1,2.036-.835,1.96,1.96,0,0,1,2.117,2.06c0,1.819-1.475,2.552-3.09,2.552a2.728,2.728,0,0,1-3-2.964c0-2.266,1.133-4.223,5.253-4.337l.08.366C219.559,181.936,218.815,183.264,218.678,184.705Zm1.155,3.2c.595,0,1.191-.435,1.191-1.591,0-1.041-.527-1.614-1.213-1.614a2.1,2.1,0,0,0-1.145.31C218.563,187.223,219.055,187.91,219.833,187.91Z"/><path class="cls-3" d="M222.277,219.213l.457-.233a5.02,5.02,0,0,0,2.1.405c.566.031,1.131-.035,1.7.015a3.1,3.1,0,0,0,.811-.1,1.136,1.136,0,0,1,.461.008,4.6,4.6,0,0,0,1.512.1c.077-.009.174,0,.228-.031a1.222,1.222,0,0,1,.839-.129c.6.049,1.208.065,1.811.1.432.027.635.217.655.594a.609.609,0,0,1-.018.209,5.782,5.782,0,0,0-.085,1.66c-.015.487.021.976.035,1.463a.518.518,0,0,1,0,.157,14.941,14.941,0,0,0-.122,2.134,1.349,1.349,0,0,0,0,.262c.014.54.03,1.079.043,1.619a.58.58,0,0,1-.016.208,3.179,3.179,0,0,0-.036,1.142c.009.417-.017.832-.035,1.249a8.331,8.331,0,0,0-.024,1.766,8.773,8.773,0,0,1-.015,1.355c0,.749-.118,1.494-.077,2.245a2.942,2.942,0,0,1-.128.825,1.666,1.666,0,0,0,0,.878,4.022,4.022,0,0,1-.007,1.195c0,.522-.04,1.045,0,1.564a2.957,2.957,0,0,1-.05.777.828.828,0,0,1-.936.62,6.856,6.856,0,0,0-1.4-.025,1.559,1.559,0,0,1-.686-.118.456.456,0,0,0-.444.04.534.534,0,0,1-.5.076.421.421,0,0,0-.171-.034,2.434,2.434,0,0,1-.973,0,6.291,6.291,0,0,0-.986.016,1.533,1.533,0,0,0-.793.057.246.246,0,0,1-.172-.012,1.987,1.987,0,0,0-.8-.041,21.4,21.4,0,0,1-2.28.008,12.714,12.714,0,0,0-1.691-.007c-.235,0-.47,0-.7.007-.174,0-.351.01-.523.032a2.947,2.947,0,0,1-1.278-.048.335.335,0,0,0-.17-.032c-.542.157-1.083-.1-1.623,0a3.8,3.8,0,0,0-1.038.054c-.347,0-.693,0-1.042.032a5.271,5.271,0,0,1-.933-.07c-.116-.011-.246-.074-.342-.044a1.771,1.771,0,0,1-.974-.024,1.969,1.969,0,0,0-.527-.014c-.428.02-.855.064-1.283.07-.409,0-.818-.03-1.228-.039-.367-.009-.734-.006-1.1-.01a1.1,1.1,0,0,1-.288-.02,2.35,2.35,0,0,0-.988,0c-.23.031-.465.036-.7.064a.742.742,0,0,1-.6-.144.511.511,0,0,0-.386-.078,5.211,5.211,0,0,1-.76.006,1.138,1.138,0,0,1-.33-.144,1.345,1.345,0,0,1-.742.119.171.171,0,0,1-.139-.242c.047-.076.121-.14.16-.218a1.378,1.378,0,0,0,.245-1.1,1.017,1.017,0,0,1-.011-.26.608.608,0,0,1,.244-.562c.124-.1.111-.11.115-.349-.223-.028-.454-.052-.681-.089-.243-.039-.311-.116-.341-.354-.027-.206-.053-.413-.071-.553.273-.367.515-.678.739-1a.5.5,0,0,0,.082-.453,1.715,1.715,0,0,1,.181-1.219,1.2,1.2,0,0,0,0-1.154.824.824,0,0,1-.063-.458,2.057,2.057,0,0,1,.4-1.337c.047-.052.1-.128.093-.185-.069-.419.084-.832.031-1.263a.912.912,0,0,1-.376-.826.614.614,0,0,1,.224-.464.764.764,0,0,0,.357-.784.741.741,0,0,1,.038-.308,3.437,3.437,0,0,0,.109-1.236,2.828,2.828,0,0,1,.1-.669,1.324,1.324,0,0,0,.064-.307c-.043-.466-.1-.93-.158-1.418-.225-.087-.441-.166-.651-.255-.24-.1-.281-.177-.23-.416.036-.167.082-.332.13-.523l.39.137c.024-.027.069-.055.065-.076a1.206,1.206,0,0,1,.2-.752c.123-.253.206-.5-.029-.742.075-.1.142-.182.2-.269a.429.429,0,0,0,.085-.445.723.723,0,0,1-.038-.2,1.674,1.674,0,0,1,.137-1.17.719.719,0,0,0,.045-.358c0-.156-.013-.311-.022-.48l.76-.362a4.177,4.177,0,0,1,.4.191.373.373,0,0,0,.387.027c.242-.189.562-.121.825-.253a1.4,1.4,0,0,1,.193.108.834.834,0,0,0,.906.185,1.577,1.577,0,0,1,.516-.058.64.64,0,0,1,.214.053c.054.019.117.078.153.066.323-.109.546.089.8.189a1.83,1.83,0,0,0,.919.116,2.953,2.953,0,0,1,.813.036,5.873,5.873,0,0,0,1.575.076,2.709,2.709,0,0,1,.861.109.844.844,0,0,0,.514.012.434.434,0,0,1,.44.035.2.2,0,0,0,.161,0,1.763,1.763,0,0,1,1.068-.151,4.26,4.26,0,0,0,.639,0c.448-.03.9-.032,1.346-.049a1.623,1.623,0,0,0,.35-.033,2.663,2.663,0,0,1,1.544.046.61.61,0,0,0,.285.043.941.941,0,0,1,.771.155.7.7,0,0,0,.334.058C221.627,219.2,221.92,219.2,222.277,219.213ZM204.865,223.8a1.921,1.921,0,0,0,.084-.32.229.229,0,0,0-.079-.182.234.234,0,0,0-.2-.018.79.79,0,0,0-.263.654.218.218,0,0,0,.14.144.272.272,0,0,0,.191-.071A.859.859,0,0,0,204.865,223.8Z"/><path class="cls-2" d="M210.507,234.365l2.209-2.049c1.144-1.064,1.567-1.659,1.567-2.471A1.254,1.254,0,0,0,213,228.551a1.8,1.8,0,0,0-1.236.469v1.5h-1.041v-2.678h1.041v.824a2.953,2.953,0,0,1,2.175-.973c1.4,0,2.219.79,2.219,1.9,0,1.316-1.43,2.129-2.54,2.838l-1.614,1.03,4.143-.149v1.534h-5.642Z"/><path class="cls-2" d="M222.214,232.683v1.6h1.247v.561h-4.417v-.561h1.407v-1.522h-3.444V231.71l3.948-4.006h1.259v4.486l1.842-.835v1.328Zm-1.763-.916v-2.941h-.022l-2.461,2.941Z"/><path class="cls-3" d="M116.23,97.424l-.318.127a2.724,2.724,0,0,1,.042.331c0,.289-.075.545-.625.632-.125.02-.2.121-.3.18a2.489,2.489,0,0,1-1.526.484.507.507,0,0,0-.179.02,6.149,6.149,0,0,1-2.457.079c-1.071-.072-2.142-.169-3.213-.242a7.35,7.35,0,0,0-.939.006,2.4,2.4,0,0,0-1.8.6c-.741-.011-1.492-.016-2.244-.039a4.892,4.892,0,0,1-.645-.1c-.31-.053-.619-.112-.931-.158a2.285,2.285,0,0,0-.915.026,7.321,7.321,0,0,1-.873.147,4.249,4.249,0,0,1-1.206.027,4.059,4.059,0,0,0-1.394-.014,1.92,1.92,0,0,1-.835-.061,16.4,16.4,0,0,0-2.482-.5,3.032,3.032,0,0,1-.782-.232,1.281,1.281,0,0,0-1.044,0,5.162,5.162,0,0,0-1.015.5,2.848,2.848,0,0,1-1.764.6,6.336,6.336,0,0,0-2.508-.422c-.25,0-.5-.009-.754-.039a22.957,22.957,0,0,0-2.36-.175,6.258,6.258,0,0,0-1.8.172c-.135.038-.278.067-.44.105a4.866,4.866,0,0,1-1.35-.452c-.17-.093-.374-.166-.533-.265a4.494,4.494,0,0,0-2.394-.493c-.187,0-.377.01-.563-.008a3.4,3.4,0,0,0-1.769.327c-.1.04-.161.105-.26.141a1.329,1.329,0,0,1-1.055-.055c-.463-.24-.989-.438-1.152-.844-.13-.324-.659-.536-1.122-.72s-.95-.347-1.4-.554a6.759,6.759,0,0,0-.932-.273,1.313,1.313,0,0,1-.21-.346c-.078-.337-.445-.63-.541-.969a9.683,9.683,0,0,1-.521-1.315.2.2,0,0,0-.059-.108,2.392,2.392,0,0,1-.632-1.526.317.317,0,0,0-.044-.165,1.767,1.767,0,0,1-.251-1.59,1.646,1.646,0,0,0-.343-1.371.609.609,0,0,1-.161-.323,2.379,2.379,0,0,0-.032-1.1c.146-.172.217-.4.451-.506a1.7,1.7,0,0,0,.9-1.18A3.513,3.513,0,0,1,67.4,84.8c.081-.106.048-.247.065-.363.126-.069.23-.131.342-.188.3-.155.476-.345.488-.6a.555.555,0,0,1,.2-.4,1.238,1.238,0,0,1,.957-.233,6.9,6.9,0,0,0,1.763-.043,2.879,2.879,0,0,1,.742,0,6.615,6.615,0,0,0,1.5,0,11.245,11.245,0,0,1,2.336-.008,5.835,5.835,0,0,0,1.393-.026c.664-.087,1.343-.1,2.025-.131a5.269,5.269,0,0,0,1.369-.09,1.839,1.839,0,0,1,.647.029,7.579,7.579,0,0,0,1.5.045c.461-.026.945.005,1.4-.032,1.042-.084,2.119-.02,3.168-.07.247-.011.507,0,.74-.039a14.517,14.517,0,0,1,2.041-.075c.215,0,.426-.026.64-.036a4.714,4.714,0,0,1,.731-.021,7.869,7.869,0,0,0,1.3,0c.77-.037,1.561-.01,2.343-.013a3.158,3.158,0,0,0,.645-.022,8.347,8.347,0,0,1,2.3-.076c.753.043,1.505.033,2.258.077a3.038,3.038,0,0,1,1.2.146.48.48,0,0,0,.26.03,3.129,3.129,0,0,1,1.008-.036,3.579,3.579,0,0,0,.719-.072c.352-.055.7-.122,1.041-.188a1.585,1.585,0,0,1,.765.057l-.29.186c.725.16,1.3.49,2,.644l.835-.411a6.735,6.735,0,0,1,1.175.344,8.923,8.923,0,0,0,1.135.341c.237.066.481.119.723.177a2.4,2.4,0,0,0,1.268.1,2.894,2.894,0,0,1,.709,0,1.921,1.921,0,0,0,.183-.063c.618-.318.708-.315,1.41.044a7.226,7.226,0,0,1,1.7.973.862.862,0,0,0,.291.157,1.443,1.443,0,0,1,1.03,1.061,2,2,0,0,0,.06.332c.091.189-.071.314-.206.446.106.112.312.168.285.34a5.771,5.771,0,0,0,.12,1.873.792.792,0,0,0,.367.578.545.545,0,0,1,.287.582.59.59,0,0,0,.036.385,1.778,1.778,0,0,1,.1,1.214.8.8,0,0,0,.235.762c.051.05.118.108.116.157a6.4,6.4,0,0,0,.255,1.094,5.009,5.009,0,0,0,.228,1c.225.621.23.595-.534.9-.271.108-.544.216-.8.337a1.1,1.1,0,0,0-.414.265,1.932,1.932,0,0,1-1.106.66C116.053,97.012,116.038,97.189,116.23,97.424Z"/><path class="cls-2" d="M81.275,87.077v3.079h-.869V88.7l-.836-.618H77.957v6.683h1.065v.573h-3.96v-.573h1.052V88.084H74.021l-.7.321v1.751h-.87V87.077h.87v.458h7.084v-.458Z"/><path class="cls-2" d="M81.858,94.767h1.053v-6.66H81.858v-.572h3.96v.572H84.754v6.66h1.064v.573h-3.96Z"/><path class="cls-2" d="M96.724,88.107v6.66h1.063v.573H93.851v-.573H94.9v-6.66h-.17l-2.61,6.477h-.882L88.6,88.107h-.183v5.4l.458,1.258h.973v.573H86.607v-.573h.755l.457-1.258v-5.4H86.8v-.572H90.36l1.992,4.9,1.957-4.9h3.478v.572Z"/><path class="cls-2" d="M106.656,92.227l-.275,3.685h-.869l.046-.572h-6.89v-.573h1.053v-6.66H98.668v-.572h6.614v-.458h.87v2.964h-.87V88.759l-1.029-.64h-2.689v2.94h1.11l.881-.411v-.8h.87v3.032h-.87V91.643h-1.991v3.079h3.055l1.019-.561.148-1.934Z"/><path class="cls-2" d="M109.024,94.516v.824H107.96V92.41h1.064v1.5a2.387,2.387,0,0,0,2.048.973c1.145,0,1.591-.492,1.591-1.144,0-.378-.172-.825-1.007-1.191l-2.277-1.007a2.011,2.011,0,0,1-1.442-2.048c0-1.225,1.018-2.106,2.712-2.129a2.674,2.674,0,0,1,2.244,1.03v-.858h1.017V90.27h-1.017V89.08a2.28,2.28,0,0,0-2.027-1.11c-.915,0-1.315.458-1.315.915,0,.412.16.813.881,1.122l2.209.949c1.339.584,1.7,1.191,1.7,2.221,0,1.293-1.065,2.335-2.976,2.335A3,3,0,0,1,109.024,94.516Z"/><path class="cls-3" d="M69.007,132.7l.32-.124a2.7,2.7,0,0,1-.039-.33c0-.29.081-.544.633-.625.125-.019.2-.119.3-.177a2.5,2.5,0,0,1,1.533-.466.489.489,0,0,0,.179-.018,6.146,6.146,0,0,1,2.457-.05c1.071.084,2.14.194,3.211.28a7.343,7.343,0,0,0,.938,0,2.4,2.4,0,0,0,1.8-.582c.741.02,1.492.033,2.244.065a5.036,5.036,0,0,1,.643.112c.31.057.618.12.929.169a2.292,2.292,0,0,0,.916-.015,7.344,7.344,0,0,1,.875-.136,4.217,4.217,0,0,1,1.205-.013,4.066,4.066,0,0,0,1.394.03,1.94,1.94,0,0,1,.835.071,16.317,16.317,0,0,0,2.475.526,3.008,3.008,0,0,1,.779.241,1.287,1.287,0,0,0,1.045.017,5.23,5.23,0,0,0,1.02-.491,2.854,2.854,0,0,1,1.771-.58,6.349,6.349,0,0,0,2.5.451c.25.009.505.015.753.048a22.927,22.927,0,0,0,2.359.2,6.291,6.291,0,0,0,1.8-.151c.136-.036.279-.064.441-.1a4.849,4.849,0,0,1,1.345.468c.169.095.372.17.53.271a4.493,4.493,0,0,0,2.388.521c.188,0,.377-.006.563.015a3.414,3.414,0,0,0,1.773-.306c.1-.04.162-.1.262-.139a1.327,1.327,0,0,1,1.053.068c.461.245.984.449,1.142.857.127.326.653.544,1.114.733s.946.358,1.39.571a7.055,7.055,0,0,0,.93.284,1.335,1.335,0,0,1,.2.348c.074.338.438.635.53.975a9.57,9.57,0,0,1,.505,1.321.2.2,0,0,0,.058.109,2.393,2.393,0,0,1,.614,1.533.318.318,0,0,0,.042.166,1.762,1.762,0,0,1,.232,1.592,1.65,1.65,0,0,0,.328,1.376.613.613,0,0,1,.157.325,2.4,2.4,0,0,0,.018,1.1c-.147.17-.221.393-.456.5a1.7,1.7,0,0,0-.918,1.169,3.531,3.531,0,0,1-.442.98c-.082.1-.051.246-.07.362-.126.068-.232.128-.344.184-.306.151-.48.339-.5.6a.556.556,0,0,1-.2.4,1.245,1.245,0,0,1-.96.222,6.877,6.877,0,0,0-1.764.022,2.885,2.885,0,0,1-.742-.009,6.575,6.575,0,0,0-1.495-.019,11.274,11.274,0,0,1-2.335-.02,5.79,5.79,0,0,0-1.393.01c-.665.08-1.345.088-2.027.108a5.241,5.241,0,0,0-1.37.073,1.829,1.829,0,0,1-.646-.037,7.6,7.6,0,0,0-1.5-.063c-.462.022-.945-.015-1.4.016-1.043.072-2.119-.005-3.169.033-.247.009-.506,0-.74.031a14.566,14.566,0,0,1-2.042.051c-.215,0-.426.021-.64.029a4.714,4.714,0,0,1-.732.011,8,8,0,0,0-1.3-.012c-.77.028-1.56-.008-2.342-.015a3.263,3.263,0,0,0-.646.015,8.292,8.292,0,0,1-2.3.049c-.753-.051-1.505-.051-2.258-.1a3.036,3.036,0,0,1-1.194-.161.488.488,0,0,0-.259-.033,3.114,3.114,0,0,1-1.009.025,3.674,3.674,0,0,0-.72.064c-.352.05-.7.113-1.042.175a1.574,1.574,0,0,1-.764-.066l.292-.182c-.723-.168-1.3-.506-1.993-.668l-.84.4a6.794,6.794,0,0,1-1.171-.357,8.8,8.8,0,0,0-1.13-.354c-.236-.069-.48-.125-.722-.186a2.39,2.39,0,0,0-1.266-.117,2.91,2.91,0,0,1-.709-.007,1.868,1.868,0,0,0-.184.061c-.621.311-.711.306-1.409-.061a7.239,7.239,0,0,1-1.692-.992.851.851,0,0,0-.29-.161,1.443,1.443,0,0,1-1.017-1.073,2.093,2.093,0,0,0-.056-.332c-.089-.191.074-.314.211-.444-.1-.114-.31-.172-.281-.344a5.793,5.793,0,0,0-.1-1.874.8.8,0,0,0-.36-.583.542.542,0,0,1-.28-.584.592.592,0,0,0-.032-.386,1.776,1.776,0,0,1-.087-1.215.8.8,0,0,0-.226-.765c-.05-.05-.117-.109-.114-.158a6.411,6.411,0,0,0-.242-1.1,4.925,4.925,0,0,0-.217-1c-.217-.624-.222-.6.545-.9.272-.1.547-.21.8-.328a1.1,1.1,0,0,0,.417-.26,1.932,1.932,0,0,1,1.114-.647C69.179,133.112,69.2,132.935,69.007,132.7Z"/><path class="cls-2" d="M81.275,135.439v3.079h-.869v-1.454l-.836-.617H77.957v6.683h1.065v.572h-3.96v-.572h1.052v-6.683H74.021l-.7.32v1.751h-.87v-3.079h.87v.458h7.084v-.458Z"/><path class="cls-2" d="M81.858,143.13h1.053v-6.66H81.858V135.9h3.96v.573H84.754v6.66h1.064v.572h-3.96Z"/><path class="cls-2" d="M96.724,136.47v6.66h1.063v.572H93.851v-.572H94.9v-6.66h-.17l-2.61,6.477h-.882L88.6,136.47h-.183v5.4l.458,1.259h.973v.572H86.607v-.572h.755l.457-1.259v-5.4H86.8V135.9H90.36l1.992,4.9,1.957-4.9h3.478v.573Z"/><path class="cls-2" d="M106.656,140.589l-.275,3.685h-.869l.046-.572h-6.89v-.572h1.053v-6.66H98.668V135.9h6.614v-.458h.87V138.4h-.87v-1.282l-1.029-.64h-2.689v2.941h1.11l.881-.412v-.8h.87v3.033h-.87v-1.236h-1.991v3.078h3.055l1.019-.561.148-1.934Z"/><path class="cls-2" d="M109.024,142.878v.824H107.96v-2.93h1.064v1.5a2.387,2.387,0,0,0,2.048.973c1.145,0,1.591-.492,1.591-1.144,0-.378-.172-.824-1.007-1.19l-2.277-1.007a2.013,2.013,0,0,1-1.442-2.049c0-1.224,1.018-2.106,2.712-2.129a2.674,2.674,0,0,1,2.244,1.03V135.9h1.017v2.735h-1.017v-1.19a2.28,2.28,0,0,0-2.027-1.11c-.915,0-1.315.458-1.315.915,0,.413.16.813.881,1.122l2.209.95c1.339.584,1.7,1.19,1.7,2.22,0,1.293-1.065,2.335-2.976,2.335A3,3,0,0,1,109.024,142.878Z"/><path class="cls-3" d="M116.5,189.335l-.312.142a2.714,2.714,0,0,1,.057.328c.017.289-.049.548-.595.661-.124.025-.19.129-.29.193a2.488,2.488,0,0,1-1.5.553.5.5,0,0,0-.178.029,6.137,6.137,0,0,1-2.45.191c-1.074-.022-2.148-.07-3.221-.094a7.462,7.462,0,0,0-.937.049,2.4,2.4,0,0,0-1.769.686c-.741.023-1.491.053-2.244.064a4.873,4.873,0,0,1-.649-.075c-.312-.039-.623-.084-.937-.115a2.267,2.267,0,0,0-.913.068,7.231,7.231,0,0,1-.866.186,4.252,4.252,0,0,1-1.2.083,4.06,4.06,0,0,0-1.394.05,1.929,1.929,0,0,1-.837-.023,16.452,16.452,0,0,0-2.5-.383,3.054,3.054,0,0,1-.791-.195,1.286,1.286,0,0,0-1.044.043,5.152,5.152,0,0,0-.99.549,2.86,2.86,0,0,1-1.735.681,6.359,6.359,0,0,0-2.525-.307c-.25.007-.5.014-.755,0a23.031,23.031,0,0,0-2.366-.067,6.267,6.267,0,0,0-1.785.255c-.134.043-.275.079-.435.125a4.845,4.845,0,0,1-1.369-.39c-.175-.085-.382-.149-.545-.24A4.5,4.5,0,0,0,77,192c-.188.008-.376.028-.563.018a3.409,3.409,0,0,0-1.752.408c-.094.045-.157.112-.254.153a1.328,1.328,0,0,1-1.056-.007c-.474-.218-1.008-.392-1.189-.79-.145-.318-.683-.5-1.154-.667s-.965-.3-1.421-.49a6.885,6.885,0,0,0-.944-.23,1.3,1.3,0,0,1-.226-.336c-.093-.333-.473-.609-.584-.943a9.566,9.566,0,0,1-.581-1.289.2.2,0,0,0-.064-.106,2.392,2.392,0,0,1-.7-1.5.319.319,0,0,0-.051-.164,1.764,1.764,0,0,1-.324-1.576,1.644,1.644,0,0,0-.406-1.354.616.616,0,0,1-.175-.315,2.4,2.4,0,0,0-.082-1.1c.137-.178.2-.405.427-.525a1.705,1.705,0,0,0,.849-1.221,3.519,3.519,0,0,1,.385-1c.076-.109.036-.249.049-.365.122-.075.223-.142.332-.2a.732.732,0,0,0,.46-.624.558.558,0,0,1,.181-.41,1.241,1.241,0,0,1,.946-.277,6.908,6.908,0,0,0,1.76-.124,2.847,2.847,0,0,1,.74-.033,6.656,6.656,0,0,0,1.494-.068,11.365,11.365,0,0,1,2.333-.115,5.738,5.738,0,0,0,1.39-.09c.659-.117,1.337-.165,2.017-.224a5.262,5.262,0,0,0,1.364-.152,1.838,1.838,0,0,1,.647,0,7.621,7.621,0,0,0,1.5-.023c.459-.048.944-.039,1.4-.1,1.038-.131,2.117-.117,3.162-.215.247-.023.506-.028.738-.073a14.459,14.459,0,0,1,2.035-.169c.215-.011.424-.046.637-.065a4.626,4.626,0,0,1,.73-.054,8.014,8.014,0,0,0,1.3-.063c.767-.073,1.558-.082,2.339-.12a3.276,3.276,0,0,0,.644-.052,8.273,8.273,0,0,1,2.291-.181c.754.008,1.5-.037,2.259-.028a3.055,3.055,0,0,1,1.2.092.488.488,0,0,0,.261.018,3.11,3.11,0,0,1,1.005-.083,3.545,3.545,0,0,0,.715-.105c.349-.071.689-.153,1.031-.235a1.58,1.58,0,0,1,.767.022l-.281.2c.731.126,1.326.43,2.027.552l.816-.449a6.785,6.785,0,0,1,1.189.289,8.768,8.768,0,0,0,1.149.289c.24.055.487.1.731.143a2.4,2.4,0,0,0,1.271.045,2.931,2.931,0,0,1,.708-.035,1.732,1.732,0,0,0,.18-.071c.6-.346.693-.347,1.411-.02a7.209,7.209,0,0,1,1.746.893.863.863,0,0,0,.3.144,1.444,1.444,0,0,1,1.078,1.012,1.959,1.959,0,0,0,.075.329c.1.185-.056.317-.186.455.112.108.32.154.3.327a5.778,5.778,0,0,0,.206,1.865.791.791,0,0,0,.393.561.546.546,0,0,1,.314.568.592.592,0,0,0,.054.384,1.776,1.776,0,0,1,.156,1.207.8.8,0,0,0,.27.751c.052.047.123.1.123.151a6.357,6.357,0,0,0,.3,1.081,5.059,5.059,0,0,0,.274.985c.253.609.257.584-.492.925-.266.121-.534.241-.782.374a1.1,1.1,0,0,0-.4.283,1.931,1.931,0,0,1-1.075.71C116.3,188.932,116.3,189.11,116.5,189.335Z"/><path class="cls-2" d="M81.275,180.082v3.079h-.869v-1.454l-.836-.618H77.957v6.683h1.065v.573h-3.96v-.573h1.052v-6.683H74.021l-.7.321v1.751h-.87v-3.079h.87v.458h7.084v-.458Z"/><path class="cls-2" d="M81.858,187.772h1.053v-6.66H81.858v-.572h3.96v.572H84.754v6.66h1.064v.573h-3.96Z"/><path class="cls-2" d="M96.724,181.112v6.66h1.063v.573H93.851v-.573H94.9v-6.66h-.17l-2.61,6.477h-.882L88.6,181.112h-.183v5.4l.458,1.258h.973v.573H86.607v-.573h.755l.457-1.258v-5.4H86.8v-.572H90.36l1.992,4.9,1.957-4.9h3.478v.572Z"/><path class="cls-2" d="M106.656,185.232l-.275,3.685h-.869l.046-.572h-6.89v-.573h1.053v-6.66H98.668v-.572h6.614v-.458h.87v2.964h-.87v-1.282l-1.029-.641h-2.689v2.941h1.11l.881-.411v-.8h.87v3.033h-.87v-1.236h-1.991v3.078h3.055l1.019-.56.148-1.934Z"/><path class="cls-2" d="M109.024,187.52v.825H107.96v-2.93h1.064v1.5a2.389,2.389,0,0,0,2.048.973c1.145,0,1.591-.492,1.591-1.144,0-.378-.172-.825-1.007-1.191l-2.277-1.007a2.012,2.012,0,0,1-1.442-2.049c0-1.224,1.018-2.105,2.712-2.128a2.674,2.674,0,0,1,2.244,1.03v-.858h1.017v2.735h-1.017v-1.19a2.279,2.279,0,0,0-2.027-1.111c-.915,0-1.315.459-1.315.916,0,.412.16.813.881,1.122l2.209.949c1.339.584,1.7,1.191,1.7,2.221,0,1.293-1.065,2.334-2.976,2.334A3,3,0,0,1,109.024,187.52Z"/><path class="cls-3" d="M69.007,223.841l.32-.123a2.711,2.711,0,0,1-.039-.331c0-.29.081-.544.633-.625.125-.019.2-.119.3-.177a2.491,2.491,0,0,1,1.533-.465.511.511,0,0,0,.179-.019,6.146,6.146,0,0,1,2.457-.05c1.071.084,2.14.194,3.211.28a7.532,7.532,0,0,0,.938.005,2.4,2.4,0,0,0,1.8-.583c.741.02,1.492.033,2.244.066a4.862,4.862,0,0,1,.643.111c.31.057.618.12.929.169a2.274,2.274,0,0,0,.916-.015,7.344,7.344,0,0,1,.875-.136,4.217,4.217,0,0,1,1.205-.013,4.066,4.066,0,0,0,1.394.03,1.94,1.94,0,0,1,.835.071,16.317,16.317,0,0,0,2.475.526,3.047,3.047,0,0,1,.779.241,1.287,1.287,0,0,0,1.045.017,5.23,5.23,0,0,0,1.02-.491,2.854,2.854,0,0,1,1.771-.58,6.349,6.349,0,0,0,2.5.451c.25.009.505.015.753.048a22.651,22.651,0,0,0,2.359.2,6.255,6.255,0,0,0,1.8-.151c.136-.036.279-.064.441-.1a4.849,4.849,0,0,1,1.345.468c.169.095.372.17.53.271a4.493,4.493,0,0,0,2.388.521c.188,0,.377-.006.563.015a3.414,3.414,0,0,0,1.773-.306c.1-.04.162-.1.262-.139a1.327,1.327,0,0,1,1.053.068c.461.245.984.449,1.142.857.127.326.653.544,1.114.733s.946.358,1.39.571a7.055,7.055,0,0,0,.93.284,1.335,1.335,0,0,1,.2.348c.074.338.438.636.53.975a9.57,9.57,0,0,1,.505,1.321.2.2,0,0,0,.058.109,2.393,2.393,0,0,1,.614,1.533.316.316,0,0,0,.042.166,1.763,1.763,0,0,1,.232,1.593,1.649,1.649,0,0,0,.328,1.375.613.613,0,0,1,.157.325,2.4,2.4,0,0,0,.018,1.1c-.147.17-.221.393-.456.5a1.7,1.7,0,0,0-.918,1.17,3.538,3.538,0,0,1-.442.979c-.082.1-.051.246-.07.362-.126.068-.232.128-.344.184-.306.151-.48.339-.5.6a.556.556,0,0,1-.2.4,1.241,1.241,0,0,1-.96.222,6.922,6.922,0,0,0-1.764.022,2.885,2.885,0,0,1-.742-.009,6.575,6.575,0,0,0-1.495-.019,11.2,11.2,0,0,1-2.335-.02,5.79,5.79,0,0,0-1.393.01c-.665.08-1.345.088-2.027.108a5.241,5.241,0,0,0-1.37.073,1.85,1.85,0,0,1-.646-.036,7.6,7.6,0,0,0-1.5-.064c-.462.022-.945-.015-1.4.016-1.043.072-2.119,0-3.169.033-.247.009-.506,0-.74.031a14.566,14.566,0,0,1-2.042.051c-.215,0-.426.021-.64.029a4.842,4.842,0,0,1-.732.012,8,8,0,0,0-1.3-.013c-.77.028-1.56-.008-2.342-.014a3.266,3.266,0,0,0-.646.014,8.292,8.292,0,0,1-2.3.049c-.753-.051-1.505-.05-2.258-.1a3.054,3.054,0,0,1-1.194-.16.479.479,0,0,0-.259-.033,3.115,3.115,0,0,1-1.009.024,3.674,3.674,0,0,0-.72.064c-.352.051-.7.114-1.042.175a1.574,1.574,0,0,1-.764-.066l.292-.182c-.723-.168-1.3-.5-1.993-.668l-.84.4a6.882,6.882,0,0,1-1.171-.358,8.8,8.8,0,0,0-1.13-.354c-.236-.069-.48-.125-.722-.186a2.39,2.39,0,0,0-1.266-.117,2.91,2.91,0,0,1-.709-.007,1.868,1.868,0,0,0-.184.061c-.621.311-.711.307-1.409-.061a7.239,7.239,0,0,1-1.692-.992.851.851,0,0,0-.29-.161,1.443,1.443,0,0,1-1.017-1.073,2.093,2.093,0,0,0-.056-.332c-.089-.191.074-.313.211-.444-.1-.114-.31-.172-.281-.343a5.8,5.8,0,0,0-.1-1.875.793.793,0,0,0-.36-.582.544.544,0,0,1-.28-.585.592.592,0,0,0-.032-.386,1.776,1.776,0,0,1-.087-1.215.8.8,0,0,0-.226-.765c-.05-.05-.117-.109-.114-.158a6.379,6.379,0,0,0-.242-1.1,4.934,4.934,0,0,0-.217-1c-.217-.624-.222-.6.545-.9.272-.1.547-.21.8-.328a1.1,1.1,0,0,0,.417-.26,1.937,1.937,0,0,1,1.114-.647C69.179,224.255,69.2,224.078,69.007,223.841Z"/><path class="cls-2" d="M81.275,226.583v3.079h-.869v-1.454l-.836-.618H77.957v6.683h1.065v.573h-3.96v-.573h1.052V227.59H74.021l-.7.321v1.751h-.87v-3.079h.87v.458h7.084v-.458Z"/><path class="cls-2" d="M81.858,234.273h1.053v-6.66H81.858v-.572h3.96v.572H84.754v6.66h1.064v.573h-3.96Z"/><path class="cls-2" d="M96.724,227.613v6.66h1.063v.573H93.851v-.573H94.9v-6.66h-.17l-2.61,6.477h-.882L88.6,227.613h-.183v5.4l.458,1.258h.973v.573H86.607v-.573h.755l.457-1.258v-5.4H86.8v-.572H90.36l1.992,4.9,1.957-4.9h3.478v.572Z"/><path class="cls-2" d="M106.656,231.733l-.275,3.685h-.869l.046-.572h-6.89v-.573h1.053v-6.66H98.668v-.572h6.614v-.458h.87v2.964h-.87v-1.282l-1.029-.641h-2.689v2.941h1.11l.881-.411v-.8h.87v3.033h-.87v-1.236h-1.991v3.078h3.055l1.019-.56.148-1.934Z"/><path class="cls-2" d="M109.024,234.021v.825H107.96v-2.93h1.064v1.5a2.389,2.389,0,0,0,2.048.973c1.145,0,1.591-.492,1.591-1.144,0-.378-.172-.825-1.007-1.191l-2.277-1.007A2.012,2.012,0,0,1,107.937,229c0-1.224,1.018-2.105,2.712-2.128a2.674,2.674,0,0,1,2.244,1.03v-.858h1.017v2.735h-1.017v-1.19a2.279,2.279,0,0,0-2.027-1.111c-.915,0-1.315.458-1.315.916,0,.412.16.812.881,1.122l2.209.949c1.339.584,1.7,1.191,1.7,2.221,0,1.293-1.065,2.334-2.976,2.334A3,3,0,0,1,109.024,234.021Z"/><path class="cls-3" d="M178.917,48.869a1.147,1.147,0,0,1-.046-.661c0-.013,0-.025.01-.038A5.336,5.336,0,0,0,179,46.215a16.894,16.894,0,0,0-.092-3.016,2.138,2.138,0,0,1,.019-.586,3.438,3.438,0,0,0-.34-1.966,1.791,1.791,0,0,1-.165-.583c-.148.02-.3.038-.445.072a1.346,1.346,0,0,1-1.222-.348,4.053,4.053,0,0,1-2.474.468,1.067,1.067,0,0,0,.046,1.075.923.923,0,0,1,.065.483c-.053.358-.176.708-.222,1.065a6.09,6.09,0,0,0,.154,2.825c.045.129.108.3.055.4a1.84,1.84,0,0,0-.011,1.24,1.45,1.45,0,0,1,.048.708,9.4,9.4,0,0,0-1.2.06,10.64,10.64,0,0,1-3.279-.06.8.8,0,0,0-.457-.009c-.563.289-1.179.054-1.761.167a1.639,1.639,0,0,1-.723-.146,4.593,4.593,0,0,1-.559-.258,4.965,4.965,0,0,1-2.065.29,1.13,1.13,0,0,0-.468.028,5.906,5.906,0,0,1-1.571.215,7.434,7.434,0,0,0-1.4.09,2.874,2.874,0,0,1-1.38-.008,1.176,1.176,0,0,0-.283.008c-.563.023-1.127.05-1.691.068a.756.756,0,0,1-.367-.039,1.423,1.423,0,0,0-1.26.02,1.3,1.3,0,0,1-.543.058c-.4-.048-.794-.157-1.2-.2a8.57,8.57,0,0,0-3.172.137.821.821,0,0,1-.45.049,2.575,2.575,0,0,0-1.393-.009,1.545,1.545,0,0,1-.925,0,3.277,3.277,0,0,0-1.109-.165c-.529-.062-1.064-.093-1.6-.12a2.59,2.59,0,0,0-.925.023,1.836,1.836,0,0,1-1.2.012,3.37,3.37,0,0,0-1.386-.106,1.631,1.631,0,0,1-1.467-.389.716.716,0,0,0-.767-.214,7.667,7.667,0,0,1-.949.241,8.655,8.655,0,0,0,.022-1.585A16.8,16.8,0,0,0,138.8,43.2a2.139,2.139,0,0,1,.02-.586,3.477,3.477,0,0,0-.273-1.759c-.028,0-.058,0-.086,0-1.477.063-2.946-.013-4.416-.076a2.088,2.088,0,0,0,.175.55.923.923,0,0,1,.065.483c-.054.358-.176.708-.223,1.065a6.116,6.116,0,0,0,.154,2.825c.045.129.109.3.056.4a1.834,1.834,0,0,0-.012,1.24,1.662,1.662,0,0,1,.068.653.513.513,0,0,1-.063.172,2.354,2.354,0,0,0-.186.987c-.069.47-.1.946-.134,1.421a1.834,1.834,0,0,0,.025.824,1.288,1.288,0,0,1,.09.7c.178-.009.357-.029.538-.037.044,0,.093.05.14.077a.816.816,0,0,0,.074.659l2.425-.122c.282-.014.565-.046.846-.037l.967.031c.272.009.544.021.818.025,1.349.024,2.7.148,4.05.09a22.128,22.128,0,0,0,3.565-.221,1.6,1.6,0,0,1,.742-.041,7.2,7.2,0,0,0,2.238.117,24.1,24.1,0,0,0,3.388-.082,2.967,2.967,0,0,1,.658.017,4.755,4.755,0,0,0,2.208-.3,2.308,2.308,0,0,1,1.833.037,2.688,2.688,0,0,0,1.7.191.925.925,0,0,1,.544,0,1.616,1.616,0,0,0,1.193-.027,2.744,2.744,0,0,1,.719-.155,15.415,15.415,0,0,0,1.577-.17,4.182,4.182,0,0,1,1.5.054c.276.056.556.1.831.157a2.642,2.642,0,0,0,1.88-.262.865.865,0,0,0,.785.223,5.81,5.81,0,0,1,1.6-.056,10.388,10.388,0,0,0,2.442.036,1.051,1.051,0,0,1,.373.042,4.058,4.058,0,0,0,.417.052,2.049,2.049,0,0,0,1.7-.515,9.046,9.046,0,0,0,3.355.44c0-.092.007-.185,0-.278A15.719,15.719,0,0,0,178.917,48.869Z"/></svg>