<svg xmlns="http://www.w3.org/2000/svg" viewBox="0 0 296 296"><defs><style>.cls-1{fill:#f36;}.cls-2{fill:#1858a8;}.cls-3{fill:#0046b7;}.cls-4{fill:#ffeded;}</style></defs><title>ill_1.1 copy 2</title><g id="Livello_1" data-name="Livello 1"><path class="cls-1" d="M199.8,138.784a29.6,29.6,0,0,0,4.961-4.017,6.848,6.848,0,0,0-3.655-2.778c-.15-.04-.247-.271-.372-.41-1.88-2.093-4.241-3.675-6.016-5.911a62.053,62.053,0,0,0-4.747-4.782,4.971,4.971,0,0,1-.825-1.137,8.744,8.744,0,0,0-4.471-4.128c-.141-.79-.269-1.508-.361-2.027a15.173,15.173,0,0,1-2.412-1.77c-1.752-1.948-3.387-4-5.082-6a4.082,4.082,0,0,0-2.557-1.621,2.244,2.244,0,0,1-1.222-.578c-1.042-1.073-1.995-2.233-3.013-3.329a4.487,4.487,0,0,0-1.467-1.273,4.714,4.714,0,0,1-2.207-2.1,15.5,15.5,0,0,0-3.331-3.417c-1.1-.884-2.191-1.781-3.251-2.713a4.113,4.113,0,0,1-1.287-1.449,4.084,4.084,0,0,0-1.832-1.977c-1.365-.975-2.566-2.18-3.835-3.289-.328-1.746-1.769-2.582-2.949-3.641a4.9,4.9,0,0,1-1.3-1.456,11.412,11.412,0,0,0-4.723-4.992c-1.9-1.2-2.84-3.51-5.044-4.378-.207-.082-.369-.441-.429-.7-.356-1.536-1.585-2.337-2.758-3.069-2.094-1.3-3.539-3.326-5.51-4.755a1.249,1.249,0,0,1-.465-.69c-.311-1.533-1.519-2.317-2.6-3.221a12.168,12.168,0,0,1-3.485-3.642c-.714-1.429-1.372-2.9-3.118-3.4-.236-.067-.406-.377-.6-.583-1.087-1.161-2.237-2.272-3.239-3.5-.986-1.21-2.653-1.8-3.136-3.461-.04-.137-.284-.25-.455-.309a5.836,5.836,0,0,1-2.682-2.4,2.525,2.525,0,0,0-1.565-1.078c-1.529-.05-2.106-1.113-2.693-2.168a14.747,14.747,0,0,0-3.872-4.41c-2.658-2.1-5.249-4.287-7.831-6.48A4.075,4.075,0,0,1,93,24.041c-.391-1.368-1.431-2.111-2.359-3.256-.417.463-.847.744-.988,1.131a4.309,4.309,0,0,1-3.423,2.942c-1.068.25-1.954,1.367-2.866,2.158A4.736,4.736,0,0,0,82.13,28.5a8.511,8.511,0,0,1-1.869,2.414,21.357,21.357,0,0,1-1.876,1.967,27.6,27.6,0,0,1,4.7,5.766,8.66,8.66,0,0,0,1.529,1.712c1.8,1.6,3.976,2.84,4.7,5.371.027.1.134.173.212.25,1.793,1.777,4.021,3.1,5.464,5.24,2.418,1.223,3.928,3.449,5.723,5.33a13.112,13.112,0,0,0,3.813,3.075,15.18,15.18,0,0,1,4.578,3.708c1.668,1.813,2.959,4.155,5.691,4.731a1.8,1.8,0,0,1,.792.561c.992,1.026,2.325,1.919,2.845,3.152.6,1.428,2.016,2.032,2.595,3.251,1.315,2.768,3.72,4.492,6.127,5.86a21.634,21.634,0,0,1,5.947,5.545,4.467,4.467,0,0,0,.851,1,6.381,6.381,0,0,1,2.742,4.6c.616.3,1.1.55,1.6.778a7.016,7.016,0,0,1,3.629,3.2,6.54,6.54,0,0,0,2.574,2.5,5.782,5.782,0,0,1,1.777,1.381,30.035,30.035,0,0,0,7.1,6.861c2.841,2.173,4.561,5.352,7.134,7.758.511,2.329,2.3,3.323,4.264,4.213a9.729,9.729,0,0,1,1.831,1.407,31.283,31.283,0,0,0,5.4,3.774c1.422.711,2.983,1.658,3.234,3.521a3.556,3.556,0,0,0,2.625,3.066,5.944,5.944,0,0,1,1.4.863c3.573,2.614,6.4,6.023,9.569,9.059.714.682,1.318,1.5,2.089,2.1a23.354,23.354,0,0,1,2.879,2.711c.93-1.2,1.841-2.419,2.844-3.554A15.793,15.793,0,0,1,199.8,138.784Z"/><path class="cls-1" d="M222.553,54.7a31.451,31.451,0,0,0-1.634-4.67,24.02,24.02,0,0,1-5.888,3.131,1.643,1.643,0,0,0-.8.557c-1.007,1.45-2.588,1.515-4.1,1.792a8.016,8.016,0,0,0-2.506.633,49.749,49.749,0,0,1-7,3.69c-1.417.535-2.61,1.521-4.284,1.52a5.177,5.177,0,0,0-2.373,1.056c-2.721,1.684-5.414,3.413-8.106,5.144a9.993,9.993,0,0,1-4.235,1.745,6.479,6.479,0,0,0-2.434.939c-3.114,1.86-6.064,3.969-9.492,5.322-1.477.583-2.571,2.078-4,2.853-1.534.829-3.291,1.235-4.9,1.941a75.774,75.774,0,0,1-9.1,3.847,9.422,9.422,0,0,0-4.226,2.488,7.05,7.05,0,0,1-2.746,1.7c-1.529.581-3.287,1.073-4.388,2.167-2.683,2.664-6.554,3.092-9.367,5.414a1.551,1.551,0,0,1-.96.164,5.352,5.352,0,0,0-4.048,1.916,5.631,5.631,0,0,1-1.89,1.211c-3.584,1.357-7.225,2.582-10.111,5.278a2.211,2.211,0,0,1-.871.461c-3.312.965-5.99,3.2-9.142,4.533-2.7,1.146-5.547,2.173-7.893,4.088a5.873,5.873,0,0,1-1.2.532,29.953,29.953,0,0,0-3.527,1.759,38.058,38.058,0,0,1-10.292,5.165A3.612,3.612,0,0,0,78.45,123.3c.48.848.962,1.821,1.558,2.719a3.383,3.383,0,0,1,.522,3.43c-.553,1.211-.027,2.11.566,3.076a5.764,5.764,0,0,0,2.975,2.344,7.48,7.48,0,0,1,1.713-.809c.534-.176,1.062-.373,1.58-.592,1.983-.835,3.988-1.625,5.931-2.545,1.606-.761,3.554-.926,4.8-2.274,1.28-1.382,3.19-1.584,4.529-2.775.35-.311.7-.626,1.029-.958a10.83,10.83,0,0,1,3.776-2.391,26.59,26.59,0,0,0,5.254-2.567,2.933,2.933,0,0,1,1.813-.558c2.5.311,4.609-.773,6.68-1.834,1.142-.585,1.984-1.752,3.122-2.35,1.217-.64,2.659-.833,3.939-1.372a55.018,55.018,0,0,0,8.372-4.558,12.443,12.443,0,0,1,3.541-1.7,9.474,9.474,0,0,0,3.393-1.869,35.611,35.611,0,0,1,5.5-3.425,15.606,15.606,0,0,0,2.57-1.646c2.179-1.74,4.587-2.979,7.515-2.578.923.126,1.833.348,2.835.543a8,8,0,0,0,3.768-3.144,7.93,7.93,0,0,1,5.079-3.752,18.95,18.95,0,0,0,5.813-2.8c1.168-.746,2.222-1.8,3.773-1.752a.666.666,0,0,0,.471-.241c1.334-1.77,3.163-1.688,5.067-1.409.631.093,1.278.088,1.841.122a22.143,22.143,0,0,1,5.367-5.088A5.076,5.076,0,0,1,195.5,79.8c3.464-.238,4.938-.875,7.206-2.667,1.455-1.149,2.9-2.328,4.438-3.348,2.67-1.763,5.416-3.41,8.125-5.113a2.5,2.5,0,0,1,2.376-.481,2.525,2.525,0,0,0,2.588-.7,12.09,12.09,0,0,0,1.006-.982,6.653,6.653,0,0,1,3.929-2.031,7.485,7.485,0,0,0,2.413-.828c-1.08-1.694-2.277-3.319-3.285-5.054A15.78,15.78,0,0,1,222.553,54.7Z"/><path class="cls-1" d="M12.03,197.124a6.207,6.207,0,0,0,2.8-1.324c.644-.5,1.266-1.014,1.248-1.569,0-.094.132-.224.363-.277.763-.175.812-.408.918-.663a6.431,6.431,0,0,1,.889-1.53,2.263,2.263,0,0,1,1.12-.726c.953-.31,1.118-.677,1.087-1.037-.025-.306.3-.468,1.159-.583.238-.033.448-.083.617-.115-.008-.149-.244-.156-.56-.159a9.045,9.045,0,0,1-3.323-.652c-.148-.05-.2-.188-.073-.235.658-.253.374-.594,1.024-.855a13.217,13.217,0,0,1,2.233-.647c1.233-.258,2.37-.559,3.5-.857.281-.074.5-.206.538-.317a1.9,1.9,0,0,1,.864-1.143c.087-.055.172-.119.166-.179-.059-.6.856-1.12,1.544-1.657.214-.167.176-.322.033-.487-.352-.4-.189-.783.661-1.127a1.672,1.672,0,0,0,.216-.107c.924-.521,1.149-.534,2.744-.146.756.183,1.506.369,2.357.577.32-.095.648-.168.869-.263a8.112,8.112,0,0,1,1.788-.4c.622-.1.754-.375,1.506-.5a5.277,5.277,0,0,0,2.269-.6,1.178,1.178,0,0,1,.444-.13,22.309,22.309,0,0,0,5.522-1.657,10.914,10.914,0,0,1,2.013-.54,36.911,36.911,0,0,0,5.442-1.444c.211-.077.535-.125.8-.191.365-.091.714-.187,1.083-.277.317-.077.635-.155.982-.218,1.289-.237,2.346-.571,3.753-.762a1.344,1.344,0,0,0,.685-.3,5.515,5.515,0,0,0,.871-.9c.146-.2.368-.361,1.116-.394.842-.036,1.155-.212,1.337-.424.068-.08.05-.166.114-.247.348-.44,1.489-.713,3.037-.7a16.11,16.11,0,0,1,1.827.114,8.806,8.806,0,0,0,3.668-.137,6.6,6.6,0,0,1,2.515-.193,4.412,4.412,0,0,0,1.581-.075,17.451,17.451,0,0,1,2.671-.34c.918-.1,1.829-.2,2.754-.294.457-.046.941-.068,1.411-.1a4.618,4.618,0,0,0,.782-.067c.78-.366,2.47-.288,3.328-.611a1.854,1.854,0,0,1,.562-.072c1.184.044,2.3-.2,3.53-.056a4.688,4.688,0,0,0,1.148-.092c1.065-.2,2.08-.421,3.13-.627,1.218-.24,2.412-.494,3.691-.7a25.6,25.6,0,0,1,4.69-.269,10.013,10.013,0,0,0,2.591-.106c1.607-.024,2.97-.377,4.678-.295a4.146,4.146,0,0,0,1.082-.154c.418-.108.711-.258,1.12-.371a4.025,4.025,0,0,1,1.034-.181,25.056,25.056,0,0,0,4.508-.453c.061-.009.134-.011.341-.027a11.45,11.45,0,0,0,3.085.181,7.719,7.719,0,0,1,2.363.1,6.366,6.366,0,0,0,1.418.006,14.844,14.844,0,0,1,2.486-.007,14.7,14.7,0,0,0,4.029-.19,13,13,0,0,1,2.535-.263,9.959,9.959,0,0,0,1.392-.127,11.89,11.89,0,0,1,2.259-.073c.967.042,1.946.062,2.921.087.279.007.582-.018.841,0a16.469,16.469,0,0,0,4.224-.228,15.766,15.766,0,0,1,3.043-.058,5.277,5.277,0,0,1,.786.149l3.762-.684a11.185,11.185,0,0,0,1.638.144c.667-.041,1.248.016,1.865.017a2.114,2.114,0,0,0,.4-.028c1.282-.322,3.085-.257,4.442-.527a7.994,7.994,0,0,1,.978-.073c.409-.022.848-.013,1.229-.054a13.584,13.584,0,0,1,3.264-.076,1.91,1.91,0,0,0,.414,0,9.336,9.336,0,0,1,3.484.238c.437.1,1.034.143,1.462.246a16.3,16.3,0,0,0,4.466.431,9.5,9.5,0,0,1,1.424.079c1.222.155,2.417.329,3.612.5a9.494,9.494,0,0,1,2.57.51,3.17,3.17,0,0,0,.887.149c2.764.182,5.175.613,7.718.95.063.008.118.023.175.035.893.2,1.715.443,2.7.588,1.014.149,1.936.313,2.838.518a29.825,29.825,0,0,0,3.334.51,12.031,12.031,0,0,1,1.98.324,15.471,15.471,0,0,0,3.144.6,4.026,4.026,0,0,1,1.071.277,29.01,29.01,0,0,0,4.061.951,5.529,5.529,0,0,1,.92.236,6.319,6.319,0,0,0,1.934.5,42.228,42.228,0,0,1,5.424-.088,28.248,28.248,0,0,1,3.248.536,2.274,2.274,0,0,0,.606.139,3.775,3.775,0,0,1,1.927.27,4.942,4.942,0,0,0,.854.163,9.259,9.259,0,0,1,2.913.772,10.222,10.222,0,0,0,2.732.841c1.463.295,3.15.428,4.747.621,1.421.173,2.959.258,4.427.4a17.386,17.386,0,0,1,2.93.458,7.233,7.233,0,0,0,1.089.162c.659.069,1.337.121,2.094.188.645.551,2.286.659,4.1.713v.332c1.35.315,2.651.66,4.086.944,2.141.425,2.81,1.026,1.458,1.78-.1.055-.2.108-.361.195a5.035,5.035,0,0,1,.894.379c.174.129.07.289.166.431a3.067,3.067,0,0,0,.409.348c.083.077.251.171.169.234-.616.471.253.859.846,1.245a9.826,9.826,0,0,1,1.671,1.132,3.484,3.484,0,0,0,1.863.649,9.231,9.231,0,0,1,1.285.307c.932.25,1.946.473,2.909.713a2.941,2.941,0,0,1,.83.266,4.219,4.219,0,0,0,1.842.568,11.611,11.611,0,0,1,2.544.632,1.2,1.2,0,0,0,.425.128,4.2,4.2,0,0,1,2.474.767c.727.274.777.646.7,1.006a2.11,2.11,0,0,0,.053.736c.047.365-.327.734-.515,1.1-.052.1-.239.239-.087.3.85.335.17.679.158,1.017,0,.061-.078.122-.148.224.447.139,1.23.253,1.141.518-.006.019.017.044.057.059a6.114,6.114,0,0,1,1.1.427c.223.166.061.376.249.549a3.243,3.243,0,0,0,.892.41c.437.161.951.3,1.394.463.168.061.365.155.318.219-.215.286.519.461.892.719-1.215.4-.482.937-.875,1.415-.056.068.081.173.249.23.39.131.725.255.483.443-.021.016,0,.05.046.058,1.187.22.911.627,1.378.938.171.113.35.225.564.363L285.8,200a7.066,7.066,0,0,0,2.122.668c.907.124.805.41.635.7l2.476.273c-.122.088-.259.173-.358.262a1.572,1.572,0,0,0-.263.3c-.19.292.488.509.749.762.236.23.115.47.864.672,1.1.3,1.172.745,1.309,1.155a8.447,8.447,0,0,1,.267,1.552.153.153,0,0,1-.117.177c-.554.206-.437.416-.23.649.246.275.554.558-.007.844-.116.059-.025.162.03.241.144.213.071.413-.276.6s-.457.379-.244.6a.724.724,0,0,1,.146.554c.007.144.086.313-.129.428-.617.329-.475.73-1.276,1.044-.438.171-.208.4-.089.606a2.3,2.3,0,0,1,.27.677c.021.1-.013.223-.194.3-.6.255-.56.547-.729.833a.953.953,0,0,0-.018.856c.206.608-.326,1.192-1.219,1.743a9.919,9.919,0,0,1-.916.491c-.732.348-.96.723-.787,1.127.271.631-.068,1.238-.793,1.834a6.355,6.355,0,0,1-1.406,1.024c-.667.328-.734.709-.256,1.1-1.3.318-1.332.778-1.506,1.2-.147.356-.534.641-1.43.866-.833.209-1.137.472-.909.776.163.218-.008.4-.265.6a8.387,8.387,0,0,0-.849.83c-.058.06-.023.133-.129.181-1.432.657-2.263,1.44-4.536,1.921a8.74,8.74,0,0,1-1.286.189,5.153,5.153,0,0,0-1.706.338,30.229,30.229,0,0,1-3.758,1.076,12.919,12.919,0,0,1-2.579.405,3.387,3.387,0,0,0-2.262.653,6.331,6.331,0,0,1-.7.709,4.319,4.319,0,0,1-1.766,1.09,16.887,16.887,0,0,0-1.935.811,1.577,1.577,0,0,1-.337.157,5.6,5.6,0,0,0-2.014.852,3.067,3.067,0,0,1-.831.267c-1.222.273-2.47.536-3.788.819a4.088,4.088,0,0,0-.517.51c-.2.28-.815.441-1.674.5a9.681,9.681,0,0,0-2.69.443,5.743,5.743,0,0,1-.728.115c-.661.114-1.331.224-1.966.35a18.4,18.4,0,0,1-3.27.392c-1.895.049-2.434.225-2.451.8-.011.373-.474.663-1.574.81-.919.123-.863.422-1.5.577a15.208,15.208,0,0,0-1.821.39,15.3,15.3,0,0,1-2.983.858,12.885,12.885,0,0,0-2.663.769,11.87,11.87,0,0,1-3.25.646,44.931,44.931,0,0,0-5.061.867c-1.12.26-2.372.427-3.578.625a7.586,7.586,0,0,1-2.03.071,5.714,5.714,0,0,0-2.292.209c-1.3.422-3.131.621-4.58.982a10.82,10.82,0,0,1-2.006.132c-1.616.016-3.235,0-4.852,0a26.921,26.921,0,0,0-5.332.475c-1.434.288-3.051.493-4.446.814-.562.13-1.513.105-2.136.221-.55.1-.786.367-1.346.446-.993.142-2.121.2-3.2.287-.4.031-.878,0-1.244.051a39.714,39.714,0,0,1-5.595.2,22.127,22.127,0,0,0-3.848.261,12.661,12.661,0,0,1-1.391.117c-.76.036-1.53.052-2.3.076-.209.007-.421.021-.626.015-1.742-.047-3.479-.114-5.224-.143a15.141,15.141,0,0,0-3.2.246c-.912.188-1.763.4-2.86.655-.19.009-.693.015-1.151.061a9.091,9.091,0,0,1-1.847-.049c-1.2-.117-2.38-.251-3.6-.34a20.3,20.3,0,0,1-3.214-.445,8.28,8.28,0,0,0-1.934-.2,21.421,21.421,0,0,1-3.95-.38c-.764-.147-1.64-.243-2.385-.4a7.961,7.961,0,0,0-2.168-.124c-.593.036-1.248-.013-1.873-.031-.488-.014-.974-.056-1.457-.052-1.714.013-3.347-.112-4.954-.256a34.662,34.662,0,0,0-5.4-.06,5.857,5.857,0,0,1-1.592-.07,3.334,3.334,0,0,0-.771-.066,4.835,4.835,0,0,1-1.541-.134c-.322-.074-.73-.117-1.108-.168-.694-.1-1.454-.16-2.077-.285a14.08,14.08,0,0,0-3.629-.18c-.619.037-1.234.083-1.838.138a8.944,8.944,0,0,1-2.215-.07,15.415,15.415,0,0,0-3.257-.142,6.527,6.527,0,0,1-2.492-.212,8.929,8.929,0,0,0-2.212-.335c-.963-.062-1.89-.136-2.82-.238-.9-.1-1.911-.111-2.878-.153a3.516,3.516,0,0,0-.611.035,18.672,18.672,0,0,1-5.218-.119c-.631-.087-1.314-.15-1.995-.195-1.5-.1-3.025-.176-4.529-.275a5.578,5.578,0,0,1-.882-.151,1.689,1.689,0,0,1-.361-.152,9.461,9.461,0,0,0-4.084-.6,3.491,3.491,0,0,1-.793-.039c-1.268-.4-3.219-.568-4.13-1.1a12.134,12.134,0,0,0-1.867-.749c-.592-.208-1.191-.4-1.338-.688-.111-.22-.787-.357-1.474-.408a6.6,6.6,0,0,1-2.657-.656c-.524-.268-1.326-.474-1.782-.766a5.257,5.257,0,0,0-1.577-.382c-1.146-.154-2.344-.285-3.563-.377a6.148,6.148,0,0,1-2.268-.512c-.472-.231-.953-.461-1.395-.7a17.059,17.059,0,0,0-2.981-1.186,22.5,22.5,0,0,0-3.472-.683c-.946-.13-1.929-.238-2.906-.348a4.644,4.644,0,0,1-2.254-.6,2.932,2.932,0,0,0-1.012-.3c-1.4-.246-2.595-.561-3.8-.884-1.138-.306-2.207-.631-3.3-.948a10.091,10.091,0,0,0-1.116-.442,7.291,7.291,0,0,1-2.564-1.046c-.234-.125-.4-.262-.606-.391a2.12,2.12,0,0,0-.579-.323,4.69,4.69,0,0,1-1.97-1.082,1.443,1.443,0,0,0-.321-.229,28.365,28.365,0,0,1-3.13-1.967,19.689,19.689,0,0,0-1.711-1.066c-.761-.43-.968-.909-1.491-1.36-.132-.114-.042-.249-.116-.371a.862.862,0,0,0-.351-.351,23.916,23.916,0,0,0-3.232-1.516,3.017,3.017,0,0,1-1.8-1.306c-.323-.815-1.654-1.484-3.131-2.144a4.651,4.651,0,0,1-1.273-.709,6.862,6.862,0,0,0-1.379-.761,14.836,14.836,0,0,0-1.967-.951c-1.365-.494-1.356-1.082-1.073-1.664.15-.308.943-.51,2-.568.843-.047,1.177-.183,1.237-.425a.71.71,0,0,1,.375-.411c.706-.4.962-.784.664-1.25a3.028,3.028,0,0,0-1.264-1.035,2.345,2.345,0,0,1-1.068-1A3.969,3.969,0,0,0,8.2,208.477c-1.3-.641-2.362-1.323-3.622-1.97-.807-.415-.816-.877-1.114-1.32-.177-.263.3-.514,1.194-.595,1.213-.109,1.574-.349,1.774-.686a4.125,4.125,0,0,1,.968-.885,22.665,22.665,0,0,0,2.611-2.822c-.378-.333.373-.588.677-.875a1.743,1.743,0,0,0,.293-.36c.062-.1-.027-.222.128-.306.447-.241.752-.483.736-.765A2.7,2.7,0,0,1,12.03,197.124Z"/></g><g id="solo_testo" data-name="solo testo"><path class="cls-2" d="M96.825,78.091c-6.845,11.3-13.068,23.6-19.53,34.9l-4.882-.958.048-.048-1.82-.382-.1-20.631c-3.829,5.887-7.275,11.3-11.918,19.1l-2.92-1.58-.622,4.643L49.58,111.98l3.255-35.421,7.324-.431-3.83,27.907c5.17-8.856,9-14.791,14.121-23.168V78.139l6.7-.814-.574,26.566c4.547-9.095,9.047-18.477,13.977-27.284Z"/><path class="cls-2" d="M123.675,77.564c-6.03,9.526-15.413,25.657-21.922,36.619l-5.266-2.442,4.643-8.424-3.4-.671-1.34-26.087,7.323-.431v22.5c4.595-8.329,9.334-16.9,12.829-23.168Z"/><path class="cls-2" d="M135.688,90.01a42.961,42.961,0,0,0,2.25-9.43c-6.367,3.255-9.047,6.8-9.047,8.951,0,2.01,1.675,3.638,7.228,9.765,1.675,1.819,3.351,3.59,3.351,6.175,0,4.738-5.553,7.993-12.781,7.993a37.667,37.667,0,0,1-10.626-1.819l1.675-6.222c3.16,1.053,7.467,2.345,11.488,2.345a19.293,19.293,0,0,0,4.213-.479A16.393,16.393,0,0,0,131,104.13c-3.015-3.255-4.978-5.5-6.8-7.706a9.409,9.409,0,0,1-2.393-5.936c0-4.26,3.063-9.382,10.626-13.4l5.6,2.489a38.145,38.145,0,0,0,.24-5.17l6.461.527a50.726,50.726,0,0,1-3.015,16.609Z"/><path class="cls-2" d="M159.046,77.086C155.312,89,151.865,100.923,148.8,112.842l-5.984-1.436c2.92-11.871,6.175-23.694,9.765-35.565Z"/><path class="cls-2" d="M207.438,78.091c-6.845,11.3-13.068,23.6-19.531,34.9l-4.882-.958.048-.048-1.819-.382-.1-20.631c-3.829,5.887-7.275,11.3-11.919,19.1l-2.92-1.58-.622,4.643-5.5-1.149,3.255-35.421,7.325-.431-3.83,27.907c5.169-8.856,9-14.791,14.121-23.168V78.139l6.7-.814-.574,26.566c4.547-9.095,9.046-18.477,13.977-27.284Z"/><path class="cls-2" d="M234.288,77.564c-6.031,9.526-15.413,25.657-21.923,36.619l-5.265-2.442,4.642-8.424-3.4-.671L207,76.559l7.323-.431v22.5c4.6-8.329,9.334-16.9,12.828-23.168Z"/><path class="cls-2" d="M249.6,96.95l6.031,1.867c-2.92,8.377-4.6,14.743-6.653,20.966l-5.553-.91c.765-2.632,1.819-6.127,3.685-11.584a47.726,47.726,0,0,1-6.94,6.846l-8.425-2.681a34.954,34.954,0,0,1-1.244-9.286c0-10.962,5.265-20.583,14.791-25.37l5.025,2.155c.048-.719.048-1.484.048-2.2,0-.861-.048-1.244-.048-2.106h6.414c.048.862.1,1.628.1,2.394a42.08,42.08,0,0,1-2.488,14.456l-6.031-1.532a41.151,41.151,0,0,0,1.914-9.765c-8.282,4.4-13.02,12.541-13.02,22.784a37.077,37.077,0,0,0,.766,7.372C241.514,107.721,246.54,101.929,249.6,96.95Z"/><path class="cls-3" d="M155.814,151.947c-.67,1.532-1.388,3.064-2.058,4.595,2.537,0,5.313.048,9.43.048l-1.2,5.074H151.41c-1.579,3.59-3.111,7.084-4.547,10.387l-4.26-1.962c1.149-2.681,2.393-5.553,3.685-8.425h-6.366l1.245-5.169c3.016,0,5.36.047,7.419.047.67-1.531,1.341-3.063,2.059-4.595h-8.282l1.245-5.169c4.069,0,6.845.048,9.382.048,1.675-3.734,3.4-7.42,5.074-10.962l4.308,1.963c-1.389,2.919-2.776,5.935-4.213,9,2.059,0,4.405.047,7.468.047l-1.2,5.074Z"/><path class="cls-4" d="M94.408,192.966c-6.845,11.3-13.068,23.6-19.53,34.895L70,226.9l.048-.048-1.82-.383-.1-20.63c-3.829,5.887-7.275,11.3-11.918,19.1l-2.92-1.579-.622,4.643-5.505-1.149,3.255-35.422,7.324-.43-3.83,27.906c5.17-8.855,9-14.791,14.121-23.167v-2.729l6.7-.813-.574,26.565c4.547-9.094,9.047-18.476,13.977-27.284Z"/><path class="cls-4" d="M121.258,192.44c-6.03,9.525-15.413,25.657-21.922,36.618l-5.266-2.441,4.643-8.425-3.4-.67-1.34-26.088L101.3,191v22.5c4.595-8.329,9.334-16.9,12.829-23.168Z"/><path class="cls-4" d="M136.573,211.826l6.032,1.867c-2.919,8.376-4.595,14.742-6.654,20.965l-5.552-.909c.766-2.633,1.819-6.127,3.686-11.584a47.606,47.606,0,0,1-6.941,6.845l-8.424-2.681a34.908,34.908,0,0,1-1.244-9.286c0-10.961,5.264-20.583,14.79-25.369l5.026,2.154c.048-.718.048-1.484.048-2.2,0-.861-.048-1.244-.048-2.106h6.414c.048.862.1,1.627.1,2.393a42.049,42.049,0,0,1-2.489,14.456l-6.032-1.532a41.045,41.045,0,0,0,1.915-9.764c-8.281,4.4-13.02,12.541-13.02,22.784a37.135,37.135,0,0,0,.766,7.371C128.484,222.6,133.511,216.8,136.573,211.826Z"/><path class="cls-4" d="M161.463,191.961c-3.734,11.919-7.181,23.838-10.244,35.757l-5.984-1.436c2.92-11.871,6.175-23.7,9.765-35.565Z"/><path class="cls-4" d="M209.855,192.966c-6.845,11.3-13.069,23.6-19.531,34.895l-4.882-.957.048-.048-1.819-.383-.1-20.63c-3.829,5.887-7.275,11.3-11.919,19.1l-2.92-1.579-.622,4.643-5.5-1.149,3.255-35.422,7.325-.43-3.83,27.906c5.169-8.855,9-14.791,14.121-23.167v-2.729l6.7-.813-.574,26.565c4.547-9.094,9.046-18.476,13.977-27.284Z"/><path class="cls-4" d="M236.705,192.44c-6.031,9.525-15.413,25.657-21.923,36.618l-5.265-2.441,4.642-8.425-3.4-.67-1.34-26.088,7.323-.43v22.5c4.6-8.329,9.334-16.9,12.828-23.168Z"/><path class="cls-4" d="M252.021,211.826l6.031,1.867c-2.92,8.376-4.6,14.742-6.653,20.965l-5.553-.909c.765-2.633,1.819-6.127,3.685-11.584a47.608,47.608,0,0,1-6.94,6.845l-8.425-2.681a34.949,34.949,0,0,1-1.244-9.286c0-10.961,5.265-20.583,14.791-25.369l5.025,2.154c.048-.718.048-1.484.048-2.2,0-.861-.048-1.244-.048-2.106h6.414c.048.862.1,1.627.1,2.393a42.072,42.072,0,0,1-2.488,14.456l-6.031-1.532a41.143,41.143,0,0,0,1.914-9.764c-8.281,4.4-13.02,12.541-13.02,22.784a37.06,37.06,0,0,0,.766,7.371C243.931,222.6,248.957,216.8,252.021,211.826Z"/></g></svg>