<svg xmlns="http://www.w3.org/2000/svg" viewBox="0 0 952 161"><defs><style>.cls-1{fill:#1858a8;}</style></defs><title>a</title><g id="solo_testo" data-name="solo testo"><path class="cls-1" d="M189.946,28.23v8.506h-1.663v-7.82c0-1.684-.167-2.371-1.268-2.371a2.816,2.816,0,0,0-1.81.853c.021.25.041.52.041.832v8.506h-1.663v-7.82c0-1.684-.167-2.371-1.268-2.371a2.75,2.75,0,0,0-1.769.811v9.38h-1.663V25.3h1.372l.02,1a3.28,3.28,0,0,1,2.455-1.227,2.144,2.144,0,0,1,2.142,1.144,3.73,3.73,0,0,1,2.559-1.144C189.115,25.069,189.946,26.005,189.946,28.23Z"/><path class="cls-1" d="M198.87,38.816h3.286V40.48h-8.444V38.816H197V36.507l-4.43-11.21h2.018l2.392,6.219.81,2.579h.416l.832-2.579,2.351-6.219H203.3l-4.43,11.21Z"/><path class="cls-1" d="M217.028,22.594l-4.013,14.142H209.9l-4.014-14.142h2l2.829,10.357.479,2.121h.644l.479-2.121,2.786-10.357Z"/><path class="cls-1" d="M229.342,29.228l-.105,7.508h-1.559V35.364a5.393,5.393,0,0,1-4.014,1.6c-2.288-.021-3.577-1.227-3.577-3.14,0-2.205,2.267-3.183,7.342-3.578l.02-.811c.021-1.456-.145-2.683-2.413-2.683a8.978,8.978,0,0,0-3.993.978l-.5-1.56a10.041,10.041,0,0,1,4.638-1.1C228.946,25.069,229.362,26.982,229.342,29.228ZM227.366,34.1l.041-2.329c-3.826.312-5.449.852-5.449,2.017,0,.957.666,1.518,1.955,1.539A5.115,5.115,0,0,0,227.366,34.1Z"/><path class="cls-1" d="M243.443,35.072v1.664h-9.9V35.072h4.014V19.682h1.872v15.39Z"/><path class="cls-1" d="M256.548,25.3V36.736h-1.58V35.468a5.664,5.664,0,0,1-3.848,1.5c-2.641,0-3.722-1.352-3.722-3.785V25.3h1.871V32.91c0,1.684.686,2.37,2.08,2.37a5.734,5.734,0,0,0,3.327-1.081V25.3Z"/><path class="cls-1" d="M262.477,31.037c0,2.912,1.226,4.223,3.639,4.223a7.49,7.49,0,0,0,3.785-.978l.5,1.56a8.48,8.48,0,0,1-4.326,1.1c-3.389,0-5.49-1.913-5.49-5.8s2.392-6.051,5.387-6.051c3.41,0,4.928,2.121,4.471,5.823h-7.965Zm.145-1.622h6.031c-.042-1.913-.935-2.7-2.807-2.7A3.049,3.049,0,0,0,262.622,29.415Z"/><path class="cls-1" d="M287.374,26.337h10.4v1.685h-10.4Zm0,4.992h10.4v1.685h-10.4Z"/><path class="cls-1" d="M324.771,35.072v1.664h-9.9V35.072h4.222V26.961h-4.222V25.3h6.094v9.775Zm-6.822-13.518a1.872,1.872,0,1,1,1.871,1.872A1.864,1.864,0,0,1,317.949,21.554Z"/><path class="cls-1" d="M337.75,28.854v7.882h-1.871V29.124c0-1.684-.687-2.371-2.08-2.371a5.729,5.729,0,0,0-3.328,1.082v8.9H328.6V25.3h1.58v1.269a5.663,5.663,0,0,1,3.847-1.5C336.669,25.069,337.75,26.421,337.75,28.854Z"/><path class="cls-1" d="M351.645,36.05a8.435,8.435,0,0,1-3.931.894c-3.12,0-3.682-1.705-3.64-4.159l.124-5.824h-2.807V25.3h2.829l.062-2.7h1.934l-.354,2.7h5.367v1.664h-5.117l-.125,5.616c-.042,1.456.146,2.683,1.789,2.683a7.463,7.463,0,0,0,3.37-.77Z"/><path class="cls-1" d="M357.115,31.037c0,2.912,1.227,4.223,3.64,4.223a7.49,7.49,0,0,0,3.785-.978l.5,1.56a8.48,8.48,0,0,1-4.326,1.1c-3.39,0-5.49-1.913-5.49-5.8s2.391-6.051,5.386-6.051c3.411,0,4.929,2.121,4.472,5.823h-7.966Zm.146-1.622h6.031c-.042-1.913-.935-2.7-2.808-2.7A3.048,3.048,0,0,0,357.261,29.415Z"/><path class="cls-1" d="M378.851,35.072v1.664h-9.9V35.072h2.974V25.3h1.664l-.042,2.2,5.075-2.475.021,1.851-4.846,2.35v5.844Z"/><path class="cls-1" d="M392.412,30.58c0,4.576-2.267,6.364-5.678,6.364a13.873,13.873,0,0,1-2.225-.166v3.7h-1.872V25.3h1.581v1.269a5.562,5.562,0,0,1,3.848-1.5C390.894,25.09,392.412,27.065,392.412,30.58Zm-1.892.208c0-2.6-.915-4.014-2.684-4.035a5.577,5.577,0,0,0-3.327,1.082v7.134a8.751,8.751,0,0,0,2.371.291C389.4,35.26,390.52,33.762,390.52,30.788Z"/><path class="cls-1" d="M395.532,31.141c0-3.8,2.184-6.072,5.262-6.072,3.245,0,5.138,2.225,5.138,5.927s-2.184,5.969-5.262,5.969C397.425,36.965,395.532,34.74,395.532,31.141Zm8.507-.041c0-2.725-1.019-4.347-3.286-4.347-2.288,0-3.328,1.664-3.328,4.284s1.019,4.243,3.286,4.243C403,35.28,404.039,33.617,404.039,31.1Z"/><path class="cls-1" d="M419.2,35.072v1.664h-9.9V35.072h4.013V19.682h1.873v15.39Z"/><path class="cls-1" d="M432.14,29.228l-.1,7.508h-1.559V35.364a5.393,5.393,0,0,1-4.014,1.6c-2.288-.021-3.577-1.227-3.577-3.14,0-2.205,2.266-3.183,7.342-3.578l.02-.811c.021-1.456-.145-2.683-2.413-2.683a8.978,8.978,0,0,0-3.993.978l-.5-1.56a10.038,10.038,0,0,1,4.638-1.1C431.744,25.069,432.16,26.982,432.14,29.228ZM430.164,34.1l.041-2.329c-3.826.312-5.449.852-5.449,2.017,0,.957.666,1.518,1.955,1.539A5.115,5.115,0,0,0,430.164,34.1Z"/><path class="cls-1" d="M446.284,36.05a8.431,8.431,0,0,1-3.93.894c-3.121,0-3.682-1.705-3.64-4.159l.124-5.824H436.03V25.3h2.829l.063-2.7h1.934l-.354,2.7h5.366v1.664h-5.116l-.125,5.616c-.042,1.456.146,2.683,1.789,2.683a7.459,7.459,0,0,0,3.369-.77Z"/><path class="cls-1" d="M451.755,31.037c0,2.912,1.227,4.223,3.64,4.223a7.49,7.49,0,0,0,3.785-.978l.5,1.56a8.482,8.482,0,0,1-4.326,1.1c-3.39,0-5.491-1.913-5.491-5.8s2.392-6.051,5.387-6.051c3.41,0,4.929,2.121,4.472,5.823h-7.966Zm.145-1.622h6.032c-.042-1.913-.936-2.7-2.808-2.7A3.049,3.049,0,0,0,451.9,29.415Z"/><path class="cls-1" d="M473.905,22.594l-4.013,14.142h-3.12l-4.014-14.142h2l2.829,10.357.479,2.121h.644l.479-2.121,2.786-10.357Z"/><path class="cls-1" d="M486.22,29.228l-.105,7.508h-1.559V35.364a5.393,5.393,0,0,1-4.014,1.6c-2.288-.021-3.577-1.227-3.577-3.14,0-2.205,2.267-3.183,7.342-3.578l.02-.811c.021-1.456-.145-2.683-2.413-2.683a8.978,8.978,0,0,0-3.993.978l-.5-1.56a10.041,10.041,0,0,1,4.638-1.1C485.824,25.069,486.24,26.982,486.22,29.228ZM484.244,34.1l.041-2.329c-3.826.312-5.449.852-5.449,2.017,0,.957.666,1.518,1.955,1.539A5.115,5.115,0,0,0,484.244,34.1Z"/><path class="cls-1" d="M500.321,35.072v1.664h-9.9V35.072h4.014V19.682h1.872v15.39Z"/><path class="cls-1" d="M513.425,25.3V36.736h-1.58V35.468a5.664,5.664,0,0,1-3.848,1.5c-2.641,0-3.723-1.352-3.723-3.785V25.3h1.872V32.91c0,1.684.686,2.37,2.08,2.37a5.734,5.734,0,0,0,3.327-1.081V25.3Z"/><path class="cls-1" d="M519.355,31.037c0,2.912,1.226,4.223,3.639,4.223a7.49,7.49,0,0,0,3.785-.978l.5,1.56a8.48,8.48,0,0,1-4.326,1.1c-3.389,0-5.49-1.913-5.49-5.8s2.392-6.051,5.387-6.051c3.41,0,4.928,2.121,4.471,5.823h-7.965Zm.145-1.622h6.031c-.042-1.913-.935-2.7-2.807-2.7A3.049,3.049,0,0,0,519.5,29.415Z"/><path class="cls-1" d="M533.145,29.665c0-7.612,2.412-9.151,6.176-9.151V22.22c-2.849,0-4.2.977-4.2,7.237,0,6.676,1.352,7.654,4.2,7.654v1.705C535.557,38.816,533.145,37.485,533.145,29.665Z"/><path class="cls-1" d="M554.921,35.031v1.7h-9.9v-1.7h4.409V26.088l-4.409,1.684V25.921l4.409-1.684V22.594h1.914V35.031Z"/><path class="cls-1" d="M568.212,29.54c0,5.241-1.976,7.4-5.3,7.4-3.494,0-5.178-2.433-5.178-7.154,0-4.929,1.975-7.4,5.3-7.4C566.527,22.386,568.212,24.819,568.212,29.54Zm-8.526.146c0,.624.02,1.206.061,1.726l6.094-5.283a2.7,2.7,0,0,0-2.849-2.038C560.455,24.091,559.686,26.046,559.686,29.686Zm6.571-.042c0-.624-.021-1.206-.062-1.726L560.1,33.2a2.7,2.7,0,0,0,2.848,2.038C565.487,35.239,566.257,33.7,566.257,29.644Z"/><path class="cls-1" d="M578.716,36.092a3.859,3.859,0,0,1-4.242,3.972V38.5a2.211,2.211,0,0,0,2.516-1.851,1.254,1.254,0,0,1-.749.27,1.872,1.872,0,0,1,.083-3.743C577.427,33.18,578.716,34.1,578.716,36.092Z"/><path class="cls-1" d="M595.4,35.031v1.7H585.164V34.823c3.64-2.225,7.883-4.493,7.883-8.111,0-1.6-.707-2.621-3.078-2.621-2.579,0-3.266,1.144-3.266,3.1a3.549,3.549,0,0,0,.167,1.269l-1.976-.146a9.791,9.791,0,0,1-.083-1.331c0-2.766,1.809-4.6,5.261-4.6,4.056,0,4.93,2.246,4.93,4.118,0,3.993-3.744,6.239-6.031,7.778l-1.123.5v.25Z"/><path class="cls-1" d="M608.772,29.54c0,5.241-1.976,7.4-5.3,7.4-3.494,0-5.179-2.433-5.179-7.154,0-4.929,1.976-7.4,5.3-7.4C607.087,22.386,608.772,24.819,608.772,29.54Zm-8.527.146c0,.624.021,1.206.062,1.726l6.093-5.283a2.7,2.7,0,0,0-2.848-2.038C601.015,24.091,600.245,26.046,600.245,29.686Zm6.571-.042c0-.624-.02-1.206-.062-1.726L600.661,33.2a2.7,2.7,0,0,0,2.849,2.038C606.047,35.239,606.816,33.7,606.816,29.644Z"/><path class="cls-1" d="M619.275,36.092a3.859,3.859,0,0,1-4.242,3.972V38.5a2.212,2.212,0,0,0,2.517-1.851,1.256,1.256,0,0,1-.749.27,1.872,1.872,0,0,1,.083-3.743C617.986,33.18,619.275,34.1,619.275,36.092Z"/><path class="cls-1" d="M628.7,35.052a1.872,1.872,0,1,1,1.871,1.871A1.864,1.864,0,0,1,628.7,35.052Z"/><path class="cls-1" d="M649.207,32.327c0,2.5-1.685,4.617-5.7,4.617a10.011,10.011,0,0,1-4.575-.936l.541-1.622a8.634,8.634,0,0,0,4.2.874c2.62,0,3.618-1.1,3.618-2.808,0-1.623-1.206-2.33-3.723-2.787L639.89,29l.083-6.4h8.776v1.7h-6.9l-.062,3.307,2.454.437C647.584,28.6,649.207,29.706,649.207,32.327Z"/><path class="cls-1" d="M660.4,29.665c0,7.612-2.413,9.151-6.177,9.151V37.111c2.849,0,4.2-.978,4.2-7.238,0-6.676-1.352-7.653-4.2-7.653V20.514C657.984,20.514,660.4,21.845,660.4,29.665Z"/><path class="cls-1" d="M189.614,135.838c0,4.575-2.267,6.364-5.677,6.364a13.886,13.886,0,0,1-2.226-.166v3.7h-1.872V130.555h1.581v1.269a5.562,5.562,0,0,1,3.848-1.5C188.1,130.348,189.614,132.323,189.614,135.838Zm-1.892.208c0-2.6-.915-4.014-2.684-4.035a5.581,5.581,0,0,0-3.327,1.082v7.133a8.717,8.717,0,0,0,2.371.291C186.6,140.517,187.722,139.02,187.722,136.046Z"/><path class="cls-1" d="M203.092,140.33v1.664h-9.9V140.33h2.974v-9.775h1.664l-.042,2.2,5.075-2.475.021,1.851-4.846,2.35v5.844Z"/><path class="cls-1" d="M216.612,140.33v1.664h-9.9V140.33h4.222v-8.111h-4.222v-1.664h6.094v9.775Zm-6.821-13.518a1.872,1.872,0,1,1,1.871,1.871A1.864,1.864,0,0,1,209.791,126.812Z"/><path class="cls-1" d="M229.591,134.112v7.882H227.72v-7.612c0-1.684-.687-2.371-2.08-2.371a5.729,5.729,0,0,0-3.328,1.082v8.9h-1.871V130.555h1.58v1.269a5.663,5.663,0,0,1,3.847-1.5C228.51,130.327,229.591,131.679,229.591,134.112Z"/><path class="cls-1" d="M243.485,141.308a8.431,8.431,0,0,1-3.93.894c-3.12,0-3.682-1.706-3.64-4.16l.124-5.823h-2.807v-1.664h2.829l.062-2.7h1.934l-.354,2.7h5.366v1.664h-5.116l-.125,5.615c-.042,1.456.146,2.683,1.789,2.683a7.457,7.457,0,0,0,3.369-.769Z"/><path class="cls-1" d="M249.228,134.923c0-7.612,2.412-9.151,6.176-9.151v1.7c-2.849,0-4.2.977-4.2,7.238,0,6.676,1.352,7.654,4.2,7.654v1.705C251.64,144.074,249.228,142.743,249.228,134.923Z"/><path class="cls-1" d="M271.066,133.488v8.506H269.4v-7.82c0-1.684-.167-2.371-1.268-2.371a2.816,2.816,0,0,0-1.81.853c.021.25.041.52.041.832v8.506H264.7v-7.82c0-1.684-.167-2.371-1.268-2.371a2.75,2.75,0,0,0-1.769.811v9.38H260V130.555h1.372l.021,1a3.277,3.277,0,0,1,2.454-1.227,2.144,2.144,0,0,1,2.142,1.144,3.73,3.73,0,0,1,2.559-1.144C270.234,130.327,271.066,131.263,271.066,133.488Z"/><path class="cls-1" d="M279.989,144.074h3.286v1.664h-8.444v-1.664h3.286v-2.309l-4.429-11.21h2.017l2.392,6.219.81,2.579h.416l.832-2.579,2.351-6.219h1.913l-4.43,11.21Z"/><path class="cls-1" d="M298.148,127.851l-4.014,14.143h-3.12L287,127.851h2l2.829,10.358.479,2.121h.644l.479-2.121,2.786-10.358Z"/><path class="cls-1" d="M310.461,134.486l-.1,7.508H308.8v-1.373a5.391,5.391,0,0,1-4.014,1.6c-2.288-.021-3.577-1.227-3.577-3.141,0-2.2,2.267-3.182,7.342-3.577l.02-.811c.021-1.456-.145-2.683-2.413-2.683a8.978,8.978,0,0,0-3.993.978l-.5-1.56a10.041,10.041,0,0,1,4.638-1.1C310.066,130.327,310.482,132.24,310.461,134.486Zm-1.976,4.867.041-2.33c-3.826.312-5.449.853-5.449,2.018,0,.956.666,1.518,1.955,1.539A5.12,5.12,0,0,0,308.485,139.353Z"/><path class="cls-1" d="M324.563,140.33v1.664h-9.9V140.33h4.014V124.94h1.872v15.39Z"/><path class="cls-1" d="M337.667,130.555v11.439h-1.58v-1.269a5.66,5.66,0,0,1-3.848,1.5c-2.641,0-3.722-1.352-3.722-3.786v-7.882h1.871v7.612c0,1.685.686,2.371,2.08,2.371a5.734,5.734,0,0,0,3.327-1.081v-8.9Z"/><path class="cls-1" d="M343.6,136.295c0,2.912,1.226,4.222,3.639,4.222a7.5,7.5,0,0,0,3.786-.977l.5,1.559a8.474,8.474,0,0,1-4.327,1.1c-3.389,0-5.49-1.914-5.49-5.8s2.392-6.051,5.387-6.051c3.41,0,4.929,2.121,4.472,5.823H343.6Zm.145-1.622h6.032c-.042-1.913-.936-2.7-2.808-2.7A3.049,3.049,0,0,0,343.741,134.673Z"/><path class="cls-1" d="M362.959,134.923c0,7.612-2.412,9.151-6.177,9.151v-1.705c2.85,0,4.2-.978,4.2-7.238,0-6.677-1.351-7.654-4.2-7.654v-1.7C360.547,125.772,362.959,127.1,362.959,134.923Z"/></g></svg>