<svg xmlns="http://www.w3.org/2000/svg" viewBox="0 0 952 312"><defs><style>.cls-1{fill:#f36;}.cls-2{fill:#ffeded;}.cls-3{fill:#0046b7;}.cls-4{fill:#1858a8;}</style></defs><title>manuale_ill_nuove</title><g id="solo_testo" data-name="solo testo"><path class="cls-1" d="M703.844,179.835a5.9,5.9,0,0,0-.076-1.232,4.591,4.591,0,0,1-.107-1.972.752.752,0,0,0-.195-.687c-.059-.063-.114-.133-.175-.193a2.063,2.063,0,0,1-.676-1.547.666.666,0,0,0-.237-.569.894.894,0,0,1-.293-.742,1.79,1.79,0,0,0-.256-.985,2.054,2.054,0,0,1-.339-1.142.848.848,0,0,0-.3-.628,6.27,6.27,0,0,0-1.221-1,3.78,3.78,0,0,1-.644-.542,8.807,8.807,0,0,0-.745-.707,4.8,4.8,0,0,1-1.073-1.114,1.227,1.227,0,0,0-.279-.329c-.558-.351-.919-1.066-1.574-1.234a2.188,2.188,0,0,0-1.184-.682,1.044,1.044,0,0,0-.887-.048l-.483-.42a.659.659,0,0,1-.8.3,2.53,2.53,0,0,0-.781-.119,1.121,1.121,0,0,0-1.007.415,2.318,2.318,0,0,1-1.02.768,2.231,2.231,0,0,1-1.895-.967c-.129-.192-.307-.336-.449-.517a3.01,3.01,0,0,0-1.181-.892c-.16.071-.3.125-.437.195a3.233,3.233,0,0,1-1.731.3,10.464,10.464,0,0,1-2.192-.375,3.615,3.615,0,0,0-.7-.087,3.15,3.15,0,0,1-2.281-.851,2.375,2.375,0,0,0-1.789,1.127,5.687,5.687,0,0,1-1.062.951.676.676,0,0,1-.985-.025,1.773,1.773,0,0,0-.691-.458,8.232,8.232,0,0,1-2.24-1,.919.919,0,0,0-.776-.131,1.913,1.913,0,0,1-1.313-.048,2.025,2.025,0,0,0-1.144.033,4.24,4.24,0,0,0-.855.268,1.11,1.11,0,0,1-.869.036c-.285-.093-.564-.213-.846-.319a2.349,2.349,0,0,0-.588-.211c-.7-.057-1.413-.078-2.111-.112a2,2,0,0,1-1.822,1.133,3.42,3.42,0,0,1-.887,0c-1-.158-1.987-.362-2.984-.517a3,3,0,0,0-2.336.113.268.268,0,0,1-.173.036,1.439,1.439,0,0,0-1.169.528,8.06,8.06,0,0,1-1-.257,1.62,1.62,0,0,0-1.212-.069.987.987,0,0,1-.74-.024c-.364-.129-.741-.2-1.109-.318a2.212,2.212,0,0,1-1.19-.662.564.564,0,0,0-.709-.168,1.687,1.687,0,0,1-1.122.1c-.682-.169-1.364-.335-2.044-.509a3.109,3.109,0,0,0-1.785.019,1.044,1.044,0,0,1-1.1-.118c-.077-.065-.228-.023-.34,0-.149.032-.313.174-.438.13a9.623,9.623,0,0,0-2.555-.158,1.051,1.051,0,0,0-1.159.582c-.047.092-.159.234-.2.216-.429-.19-.684.368-1.064.347a.94.94,0,0,0-.962.576.613.613,0,0,1-.475.305,15.966,15.966,0,0,1-2.264.083,1.867,1.867,0,0,0-1.854.566c-.724.755-.776.637-1.625.692-.361.024-.555-.368-.961-.314a.853.853,0,0,1-1.307.009,2.659,2.659,0,0,0-.9-.324,1.919,1.919,0,0,1-.894-.626,5.649,5.649,0,0,0-.412-.418,3.739,3.739,0,0,0-1.83.683.941.941,0,0,1-.821.113,7.916,7.916,0,0,1-2.514-.972c-.117-.086-.378-.126-.438-.043-.346.474-.761.216-1.086.191l-1,.86c-.451-.416-.84-.069-1.24.137-.177-.436-.377-.626-.774-.518-.894.242-.919.2-1.379-.692-.033-.065-.044-.145-.078-.209a1.4,1.4,0,0,0-1.849-.641.688.688,0,0,0-.319.385,1.356,1.356,0,0,1-.736.947c-.516-.04-.924-.075-1.332-.1-.379-.026-.758-.035-1.137-.071s-.752-.1-1.128-.141a12.569,12.569,0,0,1-1.7-.113,1.046,1.046,0,0,0-1.154.608c.009.75-.548,1.141-.769,1.748a3.391,3.391,0,0,1-.427.751,1,1,0,0,1-1.3.353c-.088-.032-.16-.132-.248-.166-.752-.294-1.5-.608-2.261-.852a1.382,1.382,0,0,0-.845.037,4.811,4.811,0,0,1-1.51.153,1.652,1.652,0,0,1-1.443-.916,3.987,3.987,0,0,0-.444-.582.955.955,0,0,1-.308-.991.311.311,0,0,0-.347-.4,6.6,6.6,0,0,0-1.1.352,1.911,1.911,0,0,0-1.216,1.318,13.008,13.008,0,0,1-.635,1.527,1.468,1.468,0,0,1-1.137,1.064.757.757,0,0,0-.64.587c-.1.283-.182.571-.285.85a1.881,1.881,0,0,1-.183.3h-.554a2.465,2.465,0,0,1-.295.6,17.051,17.051,0,0,0-1.061,1.739.938.938,0,0,0-.223.483,4.42,4.42,0,0,0,.214,2.343.65.65,0,0,1,.089.322,2.831,2.831,0,0,0,.628,1.754,6.535,6.535,0,0,1,.723,1.425c-.072.511-.132.914-.186,1.318-.141,1.065.424,1.983.44,3.017a.311.311,0,0,0,.094.193c.534.481.465,1.305.8,1.9-.12.3-.226.574-.323.818.119.556.2,1.084.348,1.586.175.606.325,1.248.915,1.518.123.056.187.293.289.434.037.051.108.067.172.1l.557-.272a2.624,2.624,0,0,1,1.212,1.617c-.3.381-.77.645-.808,1.344l.7.263a1.376,1.376,0,0,0,.008.477,3.16,3.16,0,0,0,1.061,1.552c.286.161.59.277.876.439a1.111,1.111,0,0,0,1.412-.3c.2-.187.379-.4.575-.6a5.008,5.008,0,0,1,1.3.324,3.094,3.094,0,0,0,.894.3,5.2,5.2,0,0,0,2.635.094c.057-.017.124.017.187.024.786.081,1.571.205,2.359.232a4.968,4.968,0,0,1,2.484.549,1.492,1.492,0,0,0,.45.183,4.1,4.1,0,0,1,1.557.812,4.513,4.513,0,0,0,1.138.556.71.71,0,0,0,.642-.034c.507-.465,1.194-.524,1.64-1.116a1.478,1.478,0,0,1,1.4-.538,5.638,5.638,0,0,0,2.682-.432,2.418,2.418,0,0,1,2.13-.15c.141.071.325.016.467.087a.82.82,0,0,0,1.049-.278,1.433,1.433,0,0,1,1.564-.516.775.775,0,0,0,.639-.1,5.9,5.9,0,0,1,.883-.387,7.762,7.762,0,0,1,2.269-.144,2.382,2.382,0,0,1,1.55.424,2.466,2.466,0,0,0,1.643.458c.5-.049,1-.1,1.494-.13a.711.711,0,0,1,.366.087c.375.2.739.431,1.115.627a2.581,2.581,0,0,0,.8.329,2.965,2.965,0,0,0,1.69-.16,2.853,2.853,0,0,1,1.4-.253,2.991,2.991,0,0,0,1.391-.283,2.886,2.886,0,0,1,1.758-.26,13.951,13.951,0,0,0,2.45.191,1.521,1.521,0,0,1,.718.132,5.015,5.015,0,0,0,2.652.7,13.93,13.93,0,0,1,3.95.459c.973.194.975.2.758-.937a2.174,2.174,0,0,1,1.023,1.486.987.987,0,0,0,.891-.012c.386-.174.776-.336,1.171-.477a1.981,1.981,0,0,0,.813-.56,4.623,4.623,0,0,1,1.388-1.165v-.349c.155.063.307.148.462.23.216.114.436.222.646.352a5.121,5.121,0,0,1,1,.674,3.964,3.964,0,0,0,1.038.68l.874-.778c.624.308,1.1.952,1.755,1.271l-.312.352a.752.752,0,0,0,.711.122c.338-.121.677-.244,1.02-.344a1.879,1.879,0,0,1,.7-.127,1.507,1.507,0,0,0,.958-.054.237.237,0,0,1,.24.062c.32.356.73.251,1.1.3.7.095,1.414.088,2.116.182a3.973,3.973,0,0,0,2.184-.11,1.572,1.572,0,0,1,.614-.032c.739.008,1.48.072,2.215.012a3.734,3.734,0,0,1,1.23.016,2.238,2.238,0,0,0,.7-.028c.2-.015.408-.061.612-.06a6.89,6.89,0,0,0,1.942-.111,3.619,3.619,0,0,1,.707-.064c1-.08,2,.061,3.006-.084.438-.064.888,0,1.329-.04a3.486,3.486,0,0,1,1.41.111c.2.061.448.158.6.065a2.613,2.613,0,0,1,1.311-.149,11.281,11.281,0,0,0,1.94-.22,2.733,2.733,0,0,1,1.32-.029,5.281,5.281,0,0,0,2.207.022,3.1,3.1,0,0,1,1.411.026,1.341,1.341,0,0,0,.7.013,3.3,3.3,0,0,1,1.674-.055.876.876,0,0,0,.952-.433,1.782,1.782,0,0,0,.272-.769,1.784,1.784,0,0,1,.5-1.041c.2,0,.4.006.607.008a5.423,5.423,0,0,1,.783.069.794.794,0,0,0,.754-.16.523.523,0,0,1,.595-.1,3.893,3.893,0,0,0,1.726.093,1.869,1.869,0,0,0,.438-.178c0-.231.011-.419.009-.608a2.253,2.253,0,0,1,.511-1.726,2.258,2.258,0,0,0,.224-.391c.454-.739.895-1.49,1.37-2.209a5.771,5.771,0,0,0,.775-1.645,16.183,16.183,0,0,1,.993-3.093.824.824,0,0,0,.074-.27c.064-.5.123-1,.183-1.488A1.614,1.614,0,0,1,703.844,179.835Z"/><path class="cls-1" d="M327.623,182.015a5.224,5.224,0,0,0-.076-1.158A4.04,4.04,0,0,1,327.44,179a.679.679,0,0,0-.2-.646c-.059-.06-.114-.126-.176-.182a1.888,1.888,0,0,1-.678-1.454.607.607,0,0,0-.237-.535.817.817,0,0,1-.294-.7,1.6,1.6,0,0,0-.257-.925,1.846,1.846,0,0,1-.34-1.075.782.782,0,0,0-.305-.59,6.2,6.2,0,0,0-1.225-.939,3.809,3.809,0,0,1-.646-.51,8.412,8.412,0,0,0-.747-.664,4.648,4.648,0,0,1-1.076-1.048,1.2,1.2,0,0,0-.28-.31c-.56-.33-.923-1-1.579-1.16a2.238,2.238,0,0,0-1.188-.642,1.112,1.112,0,0,0-.89-.044l-.485-.4a.678.678,0,0,1-.8.284,2.7,2.7,0,0,0-.784-.111,1.164,1.164,0,0,0-1.01.39,2.327,2.327,0,0,1-1.023.722,2.285,2.285,0,0,1-1.9-.91c-.13-.18-.308-.315-.45-.486a3.015,3.015,0,0,0-1.185-.838c-.161.067-.3.117-.438.183a3.435,3.435,0,0,1-1.737.285,11.127,11.127,0,0,1-2.2-.352,3.791,3.791,0,0,0-.706-.082,3.288,3.288,0,0,1-2.288-.8,2.407,2.407,0,0,0-1.795,1.059,5.636,5.636,0,0,1-1.065.9.709.709,0,0,1-.988-.024,1.8,1.8,0,0,0-.693-.431,8.531,8.531,0,0,1-2.247-.936.974.974,0,0,0-.779-.123,2.042,2.042,0,0,1-1.317-.046,2.168,2.168,0,0,0-1.147.031,4.471,4.471,0,0,0-.858.252,1.182,1.182,0,0,1-.872.034c-.286-.088-.566-.2-.849-.3a2.434,2.434,0,0,0-.589-.2c-.708-.054-1.418-.073-2.118-.106a2.029,2.029,0,0,1-1.828,1.066,3.68,3.68,0,0,1-.89,0c-1-.149-1.993-.341-2.993-.486a3.187,3.187,0,0,0-2.343.106.284.284,0,0,1-.174.034,1.486,1.486,0,0,0-1.173.5,8.821,8.821,0,0,1-1.006-.242,1.719,1.719,0,0,0-1.215-.065,1.051,1.051,0,0,1-.743-.023c-.365-.121-.743-.191-1.112-.3a2.258,2.258,0,0,1-1.194-.622.59.59,0,0,0-.711-.158,1.8,1.8,0,0,1-1.126.091c-.684-.159-1.368-.315-2.05-.479a3.312,3.312,0,0,0-1.791.019,1.111,1.111,0,0,1-1.1-.111c-.077-.061-.228-.023-.34,0-.15.03-.315.163-.439.122a10.268,10.268,0,0,0-2.564-.149,1.074,1.074,0,0,0-1.162.548c-.047.086-.16.219-.2.2-.431-.179-.686.347-1.067.327a.954.954,0,0,0-.966.541.619.619,0,0,1-.476.287,17.018,17.018,0,0,1-2.271.078,1.958,1.958,0,0,0-1.86.532c-.726.711-.778.6-1.63.651-.362.023-.557-.346-.964-.295a.894.894,0,0,1-1.312.009,2.779,2.779,0,0,0-.906-.306,1.915,1.915,0,0,1-.9-.588,5.5,5.5,0,0,0-.413-.393,3.915,3.915,0,0,0-1.836.643,1,1,0,0,1-.824.106,8.267,8.267,0,0,1-2.521-.915c-.118-.08-.379-.118-.439-.04-.348.446-.765.2-1.091.18l-1,.808c-.453-.391-.843-.065-1.244.13-.178-.411-.378-.589-.776-.488-.9.228-.923.192-1.384-.651-.033-.06-.044-.136-.078-.2a1.455,1.455,0,0,0-1.855-.6.661.661,0,0,0-.32.362,1.3,1.3,0,0,1-.739.891c-.517-.038-.926-.071-1.336-.1-.38-.025-.76-.033-1.14-.067s-.754-.1-1.132-.133a13.313,13.313,0,0,1-1.709-.106,1.066,1.066,0,0,0-1.157.572c.009.706-.55,1.072-.772,1.643a3.182,3.182,0,0,1-.428.707,1.038,1.038,0,0,1-1.3.331c-.088-.03-.16-.123-.248-.155-.754-.276-1.5-.572-2.269-.8a1.471,1.471,0,0,0-.848.034,5.139,5.139,0,0,1-1.514.145,1.675,1.675,0,0,1-1.447-.862,3.856,3.856,0,0,0-.445-.548.865.865,0,0,1-.31-.932.3.3,0,0,0-.348-.376,7.057,7.057,0,0,0-1.1.331,1.857,1.857,0,0,0-1.221,1.24,11.885,11.885,0,0,1-.636,1.436,1.44,1.44,0,0,1-1.141,1,.744.744,0,0,0-.642.552c-.1.266-.182.537-.285.8a1.794,1.794,0,0,1-.184.284H211.8a2.219,2.219,0,0,1-.3.565,16.088,16.088,0,0,0-1.064,1.636.855.855,0,0,0-.224.454,3.915,3.915,0,0,0,.215,2.2.584.584,0,0,1,.089.3,2.563,2.563,0,0,0,.63,1.649,5.992,5.992,0,0,1,.725,1.34c-.072.48-.132.859-.186,1.24-.142,1,.425,1.864.441,2.837a.283.283,0,0,0,.095.181c.535.452.466,1.227.8,1.79l-.324.769c.12.522.2,1.019.349,1.491.176.569.326,1.174.918,1.427.124.053.187.275.29.408.037.048.108.063.172.1l.559-.256a2.5,2.5,0,0,1,1.216,1.521c-.3.358-.773.607-.811,1.264l.7.247c0,.167-.047.34.008.448a2.972,2.972,0,0,0,1.064,1.46c.287.152.592.261.879.413a1.162,1.162,0,0,0,1.416-.28c.2-.175.38-.373.577-.568a5.326,5.326,0,0,1,1.3.305,3.224,3.224,0,0,0,.9.283,5.551,5.551,0,0,0,2.643.089c.057-.017.125.016.187.022.789.077,1.577.193,2.367.218a5.271,5.271,0,0,1,2.492.516,1.5,1.5,0,0,0,.451.172,4.234,4.234,0,0,1,1.563.764,4.6,4.6,0,0,0,1.141.523.754.754,0,0,0,.644-.032c.509-.437,1.2-.493,1.645-1.05a1.537,1.537,0,0,1,1.4-.506,5.979,5.979,0,0,0,2.691-.406,2.576,2.576,0,0,1,2.137-.141c.141.068.326.015.468.082a.857.857,0,0,0,1.053-.261,1.49,1.49,0,0,1,1.568-.485.827.827,0,0,0,.642-.1,6.122,6.122,0,0,1,.885-.364,8.322,8.322,0,0,1,2.276-.136,2.516,2.516,0,0,1,1.555.4,2.587,2.587,0,0,0,1.648.43c.5-.045,1-.091,1.5-.121a.754.754,0,0,1,.367.081c.377.188.741.406,1.119.59a2.677,2.677,0,0,0,.8.309,3.165,3.165,0,0,0,1.7-.15,3.039,3.039,0,0,1,1.4-.238,3.178,3.178,0,0,0,1.4-.266,3.069,3.069,0,0,1,1.764-.245,14.95,14.95,0,0,0,2.458.18,1.627,1.627,0,0,1,.72.124,5.291,5.291,0,0,0,2.66.658,14.914,14.914,0,0,1,3.962.432c.977.182.979.191.761-.881a2.047,2.047,0,0,1,1.026,1.4,1.05,1.05,0,0,0,.894-.011c.387-.164.779-.316,1.175-.449a2,2,0,0,0,.815-.526,4.566,4.566,0,0,1,1.392-1.1v-.328c.156.059.308.14.464.217.217.107.437.208.648.33a5.189,5.189,0,0,1,1,.634,3.98,3.98,0,0,0,1.041.639l.877-.731c.626.289,1.107.9,1.761,1.2-.116.122-.21.222-.313.332a.8.8,0,0,0,.712.114c.34-.113.68-.23,1.024-.324a1.985,1.985,0,0,1,.7-.119,1.606,1.606,0,0,0,.962-.051.249.249,0,0,1,.24.058c.321.335.732.237,1.1.284.7.089,1.418.083,2.123.171a4.246,4.246,0,0,0,2.191-.1,1.663,1.663,0,0,1,.616-.03c.741.007,1.485.067,2.222.011a3.96,3.96,0,0,1,1.234.015,2.448,2.448,0,0,0,.7-.026c.2-.015.409-.058.614-.057a7.364,7.364,0,0,0,1.948-.1,3.984,3.984,0,0,1,.709-.06c1-.075,2.011.057,3.016-.079.439-.06.89,0,1.333-.038a3.71,3.71,0,0,1,1.414.1c.2.058.45.148.606.061a2.78,2.78,0,0,1,1.316-.14,11.947,11.947,0,0,0,1.945-.207,2.911,2.911,0,0,1,1.325-.027,5.653,5.653,0,0,0,2.214.021,3.3,3.3,0,0,1,1.415.024,1.45,1.45,0,0,0,.7.013,3.5,3.5,0,0,1,1.68-.052.9.9,0,0,0,.955-.407,1.621,1.621,0,0,0,.272-.723,1.65,1.65,0,0,1,.5-.98c.2,0,.406.006.61.008a5.907,5.907,0,0,1,.785.064.839.839,0,0,0,.757-.149.549.549,0,0,1,.6-.091,4.147,4.147,0,0,0,1.731.087,1.955,1.955,0,0,0,.439-.167c0-.217.012-.394.01-.571a2.032,2.032,0,0,1,.511-1.624,1.984,1.984,0,0,0,.225-.368c.456-.694.9-1.4,1.375-2.076a5.33,5.33,0,0,0,.778-1.547,14.474,14.474,0,0,1,1-2.909.735.735,0,0,0,.074-.253c.064-.469.124-.94.183-1.4A1.452,1.452,0,0,1,327.623,182.015Z"/><path class="cls-1" d="M579.248,178.923a.823.823,0,0,1,.007-.292,5.705,5.705,0,0,0-.174-2.706.432.432,0,0,1-.027-.192,23.136,23.136,0,0,0-.124-2.329c.008-.6-.281-1.133-.255-1.727a2.636,2.636,0,0,0-.108-.618,4.586,4.586,0,0,1-.882-.539c-.4-.392-.85-.708-1.274-1.062a2.056,2.056,0,0,1-.937-1.332,2.493,2.493,0,0,0-.929-1.549.862.862,0,0,0-1.077-.168c-.114.057-.2.165-.315.229a2.582,2.582,0,0,1-1.94.451,3.726,3.726,0,0,0-.582-.051,2.866,2.866,0,0,1-2.329-1.023c-.133-.182-.322-.323-.47-.5a3.329,3.329,0,0,0-1.258-.88c-.18.056-.338.1-.49.153a4.209,4.209,0,0,1-1.918.18,13.8,13.8,0,0,1-2.4-.465,4.621,4.621,0,0,0-.77-.119,3.91,3.91,0,0,1-2.47-.905,2.72,2.72,0,0,0-2.022.929,6.039,6.039,0,0,1-1.212.809.853.853,0,0,1-1.083-.079,2.018,2.018,0,0,0-.738-.457,10.094,10.094,0,0,1-2.419-1.034,1.184,1.184,0,0,0-.847-.164,2.5,2.5,0,0,1-1.443-.118,2.686,2.686,0,0,0-1.26-.033,5.251,5.251,0,0,0-.953.2,1.458,1.458,0,0,1-.959-.017c-.309-.1-.61-.225-.915-.338a2.94,2.94,0,0,0-.637-.226c-.774-.091-1.551-.15-2.318-.22a2.294,2.294,0,0,1-2.057.932,4.481,4.481,0,0,1-.976-.052c-1.089-.2-2.17-.441-3.259-.639a5.4,5.4,0,0,0-2.091-.175,1.517,1.517,0,0,0-1.421.277,4.217,4.217,0,0,0-.994.635.277.277,0,0,0-.025.024,5.417,5.417,0,0,1-1.384-.3,4.388,4.388,0,0,0-1.09-.305,7.6,7.6,0,0,0-3.212-.095.756.756,0,0,1-.228-.023c-.959-.083-1.916-.208-2.876-.236a7.112,7.112,0,0,1-3.03-.555,2.026,2.026,0,0,0-.548-.185,5.428,5.428,0,0,1-1.9-.822,6.034,6.034,0,0,0-1.387-.563,1.023,1.023,0,0,0-.782.035c-.619.471-1.457.53-2,1.13a2.014,2.014,0,0,1-1.706.544,8.134,8.134,0,0,0-3.27.437,3.493,3.493,0,0,1-2.6.152c-.172-.073-.4-.017-.569-.088a1.13,1.13,0,0,0-1.28.28,1.959,1.959,0,0,1-1.906.523,1.113,1.113,0,0,0-.78.1,7.806,7.806,0,0,1-1.076.391,11.346,11.346,0,0,1-2.767.147,3.383,3.383,0,0,1-1.89-.429,3.46,3.46,0,0,0-2-.464c-.606.05-1.213.1-1.821.131a1.014,1.014,0,0,1-.447-.087c-.457-.2-.9-.437-1.359-.635a3.5,3.5,0,0,0-.972-.332,4.3,4.3,0,0,0-2.062.161,4.121,4.121,0,0,1-1.706.256,4.29,4.29,0,0,0-1.7.287,4.18,4.18,0,0,1-2.144.263,20.244,20.244,0,0,0-2.987-.193,2.217,2.217,0,0,1-.875-.134c-.1-.041-.2-.076-.3-.116-.013-.035-.016-.072-.03-.108a.939.939,0,0,0-.661-.6,7.723,7.723,0,0,0-2.129-.335,2.025,2.025,0,0,1-1.729-.657c-.564-.637-1.271-1.1-1.833-1.725a6.457,6.457,0,0,0-1-.762.84.84,0,0,0-.874-.12c-.843.43-1.9.294-2.565,1.038l-1.191-.312c-.124-.293-.237-.573-.361-.849a1.3,1.3,0,0,0-1.354-.855c-.612.029-1.227,0-1.84,0a2.008,2.008,0,0,1-1.2-.338c-.152-.1-.314-.194-.6-.369-.252.453-.432.787-.622,1.115a1.756,1.756,0,0,1-1.428,1.013,5.292,5.292,0,0,0-1.426.4,3.716,3.716,0,0,1-2.1.338,1.179,1.179,0,0,0-.563.032,1.748,1.748,0,0,1-1.621-.336,2.438,2.438,0,0,0-1.152-.471c-.265-.034-.522-.126-.786-.164a3.463,3.463,0,0,1-2.239-1.026c-.041-.046-.142-.04-.245-.065l-.581.3c-.384-.015-.614-.45-1.068-.331a5.977,5.977,0,0,1-1.186.064c-.062.6-.547.821-1.059,1.036a3.785,3.785,0,0,0-.877.51,4.138,4.138,0,0,1-2.967.983,2.369,2.369,0,0,1-1.609,1.157,5.931,5.931,0,0,1-1.939.042,9.461,9.461,0,0,0-1.934-.173,1.315,1.315,0,0,1-.663-.14,5.646,5.646,0,0,0-2.89-.5c-.375-.349-.747-.737-1.166-1.065a1.748,1.748,0,0,0-.819-.37,3.156,3.156,0,0,0-2.4.543,4.393,4.393,0,0,1-1.549.936,12.359,12.359,0,0,0-1.867.755c-.628-.229-1.312-.47-1.988-.728-.866-.33-1.522-.181-1.9.5a17.174,17.174,0,0,0-1.033,2.033,2.7,2.7,0,0,1-.982,1.159l-.082-.058a5.944,5.944,0,0,1-1.523-1.188,9.455,9.455,0,0,0-1.759-1.625,2.717,2.717,0,0,0-1.186-.651,7.474,7.474,0,0,0-3.172-.093c-1.738.369-1.87.349-2.914-.05a12.639,12.639,0,0,0-3.14-.583,4.88,4.88,0,0,1-1.652-.427,1.881,1.881,0,0,0-2.239.134,6.9,6.9,0,0,1-.9.5,2.141,2.141,0,0,0-.731.525c-.642,1-1.74,1.36-2.669,1.942a1.379,1.379,0,0,1-1.5.013,25.1,25.1,0,0,0-2.749-1.12,1.683,1.683,0,0,0-1-.061,16.144,16.144,0,0,1-2.268.312,2.249,2.249,0,0,0-1.518.7,1.639,1.639,0,0,1-.532.406c-.574.2-1.166.347-1.7.5a7.256,7.256,0,0,0-3.68-.9,8.452,8.452,0,0,1-1.591-.148c-.228-.024-.455-.068-.683-.078a16.748,16.748,0,0,0-4.334.354,3.62,3.62,0,0,1-1.917.133,1.239,1.239,0,0,0-.675.068,2.855,2.855,0,0,1-1.582,0,1.8,1.8,0,0,0-1.117.013,9.987,9.987,0,0,1-2.187.639,2.653,2.653,0,0,0-1.632.775,6.529,6.529,0,0,1-1.461,1.28,6.6,6.6,0,0,0-1.324,1.085,17.511,17.511,0,0,0-1.325,2,1.962,1.962,0,0,0-.122,2.07,10.665,10.665,0,0,1,.549,2.685.8.8,0,0,1-.095.554c-.326.535-.357,1.2-.643,1.7a9.1,9.1,0,0,0-.769,2.6c-.144.632-.456,1.23-.168,1.9a.383.383,0,0,1,0,.227c-.138.544-.283,1.087-.428,1.638a1.736,1.736,0,0,1-.352.03c-.151-.017-.3-.089-.447-.1a.612.612,0,0,0-.709.785.98.98,0,0,0,.195.526,1.254,1.254,0,0,1,.271,1.473c-.141.392-.2.816-.344,1.2a2.135,2.135,0,0,0-.1,1.239,6.586,6.586,0,0,0,.761,2.256c-.414.366-.81.619-.891,1.2a3.4,3.4,0,0,0,.249,1.781.937.937,0,0,0,.661.6,7.71,7.71,0,0,0,2.128.335,2.027,2.027,0,0,1,1.73.657c.563.636,1.27,1.1,1.833,1.725a6.335,6.335,0,0,0,1,.761.838.838,0,0,0,.874.121c.843-.43,1.9-.294,2.565-1.038l1.192.312c.123.292.237.573.36.849a1.3,1.3,0,0,0,1.354.855c.613-.029,1.227,0,1.84,0a2.007,2.007,0,0,1,1.2.337c.152.1.314.2.6.37.252-.453.432-.787.622-1.115a1.759,1.759,0,0,1,1.428-1.014,5.244,5.244,0,0,0,1.426-.4,3.709,3.709,0,0,1,2.1-.338,1.179,1.179,0,0,0,.563-.032,1.745,1.745,0,0,1,1.621.336,2.452,2.452,0,0,0,1.152.471c.265.033.522.125.786.164a3.465,3.465,0,0,1,2.239,1.026c.041.046.142.04.245.065l.581-.3c.384.015.615.45,1.068.331a5.9,5.9,0,0,1,1.186-.064c.063-.6.548-.822,1.059-1.036a3.753,3.753,0,0,0,.877-.511,4.138,4.138,0,0,1,2.967-.982,2.366,2.366,0,0,1,1.609-1.157,5.96,5.96,0,0,1,1.939-.043,9.462,9.462,0,0,0,1.934.174,1.3,1.3,0,0,1,.662.14,5.64,5.64,0,0,0,2.891.5c.375.349.747.738,1.166,1.066a1.748,1.748,0,0,0,.819.37,3.156,3.156,0,0,0,2.4-.544,4.39,4.39,0,0,1,1.549-.935,12.317,12.317,0,0,0,1.867-.755c.628.229,1.312.47,1.988.728.866.33,1.523.18,1.9-.5a17.251,17.251,0,0,0,1.033-2.033,2.7,2.7,0,0,1,.982-1.159l.082.058a5.922,5.922,0,0,1,1.523,1.188,9.416,9.416,0,0,0,1.759,1.624,2.719,2.719,0,0,0,1.186.652,7.474,7.474,0,0,0,3.172.093c1.738-.37,1.87-.349,2.914.05a12.638,12.638,0,0,0,3.14.582,4.9,4.9,0,0,1,1.652.428,1.88,1.88,0,0,0,2.239-.135,7.011,7.011,0,0,1,.9-.5,2.154,2.154,0,0,0,.731-.525c.642-1,1.74-1.36,2.669-1.942a1.381,1.381,0,0,1,1.506-.014,24.776,24.776,0,0,0,2.748,1.12,1.675,1.675,0,0,0,1,.062,16.144,16.144,0,0,1,2.268-.312,2.246,2.246,0,0,0,1.518-.7,1.667,1.667,0,0,1,.532-.406c.574-.2,1.166-.347,1.7-.5a7.26,7.26,0,0,0,3.681.9,8.385,8.385,0,0,1,1.591.148c.227.024.454.068.683.077a16.7,16.7,0,0,0,4.333-.354,7.4,7.4,0,0,1,1.176-.206v.93a12.05,12.05,0,0,1,1.233.263,2.339,2.339,0,0,0,1.477.069,1.448,1.448,0,0,1,.9.025c.443.131.9.206,1.351.322a2.893,2.893,0,0,1,1.452.67.78.78,0,0,0,.864.17,2.44,2.44,0,0,1,1.368-.1c.831.171,1.662.338,2.492.515a4.525,4.525,0,0,0,2.176-.02,1.494,1.494,0,0,1,1.335.12c.094.065.278.024.414,0,.182-.032.383-.177.534-.132a14.027,14.027,0,0,0,3.116.16,1.369,1.369,0,0,0,1.413-.589c.057-.093.194-.236.243-.218.525.192.835-.373,1.3-.351a1.2,1.2,0,0,0,1.173-.583.778.778,0,0,1,.579-.309,23.485,23.485,0,0,1,2.76-.084,2.6,2.6,0,0,0,2.262-.572c.881-.765.945-.645,1.98-.7.441-.024.677.372,1.171.317a1.186,1.186,0,0,1,1.595-.008,3.724,3.724,0,0,0,1.1.328,2.38,2.38,0,0,1,1.09.633,6.488,6.488,0,0,0,.5.423,5.156,5.156,0,0,0,2.231-.692,1.356,1.356,0,0,1,1-.114,10.9,10.9,0,0,1,3.064.985c.143.086.461.126.535.043.421-.48.928-.219,1.324-.194l1.217-.869c.55.42,1.025.069,1.512-.14.216.442.46.634.944.525,1.09-.246,1.121-.207,1.681.7.04.065.054.147.1.211a1.891,1.891,0,0,0,2.255.649.746.746,0,0,0,.39-.39,1.458,1.458,0,0,1,.9-.958c.628.041,1.125.076,1.623.1.462.026.925.035,1.386.071s.917.1,1.377.144a18.163,18.163,0,0,1,2.076.113,1.354,1.354,0,0,0,1.407-.616c-.011-.759.668-1.153.938-1.767a3.378,3.378,0,0,1,.52-.761,1.366,1.366,0,0,1,1.586-.357c.108.032.2.133.3.168.917.3,1.827.615,2.757.862a2.018,2.018,0,0,0,1.031-.038,7.092,7.092,0,0,1,1.84-.155,2.094,2.094,0,0,1,1.76.927,4.263,4.263,0,0,0,.54.59.877.877,0,0,1,.377,1,.342.342,0,0,0,.423.405,9.541,9.541,0,0,0,1.34-.356,2.41,2.41,0,0,0,1.288-.937c.359-.087.716-.175,1.078-.244a2.472,2.472,0,0,1,.769-.076,1.969,1.969,0,0,0,1.058,0,.3.3,0,0,1,.26.071c.337.343.792.27,1.195.337.769.125,1.552.159,2.321.285a5.238,5.238,0,0,0,2.408.021,2.055,2.055,0,0,1,.677.006c.813.048,1.625.149,2.436.135a4.916,4.916,0,0,1,1.353.083,2.965,2.965,0,0,0,.766.014c.226,0,.452-.033.676-.021a9.135,9.135,0,0,0,2.142.007,4.95,4.95,0,0,1,.781-.019c1.1-.016,2.2.168,3.311.092.485-.033.977.054,1.464.038a4.612,4.612,0,0,1,1.546.181,1.114,1.114,0,0,0,.662.093,3.44,3.44,0,0,1,1.45-.063,14.653,14.653,0,0,0,2.144-.092,3.61,3.61,0,0,1,1.454.048,7,7,0,0,0,2.427.144,4.068,4.068,0,0,1,1.552.1,1.783,1.783,0,0,0,.769.051,4.348,4.348,0,0,1,1.845.044,1.049,1.049,0,0,0,1.067-.342,1.467,1.467,0,0,0,.335-.688,1.567,1.567,0,0,1,.7-1.018c.134-.092.262-.193.414-.305a2.19,2.19,0,0,1,.183-.629,9.681,9.681,0,0,0,.758-1.689,3.8,3.8,0,0,1,1.313-2c.278-.176.423-.561.628-.852a7.177,7.177,0,0,1,.316-1.924,1.361,1.361,0,0,0-.065-.575,4.382,4.382,0,0,1,.078-2.416A4.906,4.906,0,0,0,579.248,178.923Z"/><path class="cls-2" d="M239.041,176.9v8.506h-1.663v-7.82c0-1.684-.167-2.371-1.269-2.371a2.812,2.812,0,0,0-1.809.853c.02.25.041.52.041.832v8.506h-1.663v-7.82c0-1.684-.167-2.371-1.27-2.371a2.75,2.75,0,0,0-1.767.811v9.38h-1.663V173.971h1.372l.02,1a3.28,3.28,0,0,1,2.454-1.227,2.147,2.147,0,0,1,2.143,1.144,3.73,3.73,0,0,1,2.558-1.144C238.21,173.743,239.041,174.679,239.041,176.9Z"/><path class="cls-2" d="M247.965,187.49h3.286v1.664h-8.444V187.49h3.286v-2.309l-4.43-11.21h2.018l2.391,6.219.811,2.579h.416l.832-2.579,2.351-6.219H252.4l-4.43,11.21Z"/><path class="cls-2" d="M266.123,171.267l-4.014,14.143h-3.12l-4.013-14.143h2l2.829,10.358.478,2.121h.645l.478-2.121,2.787-10.358Z"/><path class="cls-2" d="M278.437,177.9l-.105,7.508h-1.559v-1.373a5.392,5.392,0,0,1-4.014,1.6c-2.288-.021-3.577-1.227-3.577-3.141,0-2.2,2.266-3.182,7.342-3.577l.02-.811c.021-1.456-.145-2.683-2.413-2.683a8.978,8.978,0,0,0-3.993.978l-.5-1.56a10.037,10.037,0,0,1,4.637-1.1C278.041,173.743,278.457,175.656,278.437,177.9Zm-1.976,4.867.041-2.33c-3.826.312-5.449.853-5.449,2.018,0,.956.666,1.518,1.955,1.539A5.122,5.122,0,0,0,276.461,182.769Z"/><path class="cls-2" d="M292.538,183.746v1.664h-9.9v-1.664h4.013v-15.39h1.872v15.39Z"/><path class="cls-2" d="M305.643,173.971V185.41h-1.58v-1.269a5.662,5.662,0,0,1-3.848,1.5c-2.642,0-3.723-1.352-3.723-3.786v-7.882h1.871v7.612c0,1.685.687,2.371,2.08,2.371a5.734,5.734,0,0,0,3.328-1.081v-8.9Z"/><path class="cls-2" d="M311.571,179.711c0,2.912,1.227,4.222,3.64,4.222a7.5,7.5,0,0,0,3.785-.977l.5,1.56a8.48,8.48,0,0,1-4.326,1.1c-3.39,0-5.49-1.914-5.49-5.8s2.391-6.051,5.387-6.051c3.41,0,4.928,2.121,4.471,5.823h-7.966Zm.146-1.622h6.031c-.042-1.913-.935-2.7-2.807-2.7A3.049,3.049,0,0,0,311.717,178.089Z"/><path class="cls-3" d="M336.469,175.011h10.4V176.7h-10.4Zm0,4.992h10.4v1.684h-10.4Z"/><path class="cls-2" d="M373.865,183.746v1.664h-9.9v-1.664h4.222v-8.111h-4.222v-1.664h6.094v9.775Zm-6.821-13.518a1.872,1.872,0,1,1,1.871,1.871A1.864,1.864,0,0,1,367.044,170.228Z"/><path class="cls-2" d="M386.845,177.528v7.882h-1.871V177.8c0-1.684-.687-2.371-2.08-2.371a5.729,5.729,0,0,0-3.328,1.082v8.9h-1.872V173.971h1.58v1.269a5.667,5.667,0,0,1,3.848-1.5C385.764,173.743,386.845,175.1,386.845,177.528Z"/><path class="cls-2" d="M400.739,184.724a8.431,8.431,0,0,1-3.93.894c-3.12,0-3.682-1.706-3.64-4.16l.124-5.823h-2.808v-1.664h2.83l.062-2.7h1.934l-.354,2.7h5.366v1.664h-5.116l-.125,5.615c-.042,1.456.146,2.683,1.789,2.683a7.457,7.457,0,0,0,3.369-.769Z"/><path class="cls-2" d="M406.21,179.711c0,2.912,1.227,4.222,3.64,4.222a7.5,7.5,0,0,0,3.785-.977l.5,1.56a8.482,8.482,0,0,1-4.326,1.1c-3.39,0-5.491-1.914-5.491-5.8s2.392-6.051,5.387-6.051c3.41,0,4.929,2.121,4.472,5.823H406.21Zm.146-1.622h6.031c-.042-1.913-.936-2.7-2.808-2.7A3.048,3.048,0,0,0,406.356,178.089Z"/><path class="cls-2" d="M427.945,183.746v1.664h-9.9v-1.664h2.974v-9.775h1.664l-.042,2.2,5.075-2.475.02,1.851-4.845,2.35v5.844Z"/><path class="cls-2" d="M441.507,179.254c0,4.575-2.268,6.364-5.678,6.364a13.873,13.873,0,0,1-2.225-.166v3.7h-1.872V173.971h1.581v1.269a5.561,5.561,0,0,1,3.847-1.5C439.988,173.764,441.507,175.739,441.507,179.254Zm-1.893.208c0-2.6-.915-4.014-2.683-4.035a5.577,5.577,0,0,0-3.327,1.082v7.133a8.712,8.712,0,0,0,2.371.291C438.491,183.933,439.614,182.436,439.614,179.462Z"/><path class="cls-2" d="M444.628,179.815c0-3.805,2.184-6.072,5.262-6.072,3.245,0,5.137,2.225,5.137,5.927s-2.183,5.969-5.261,5.969C446.521,185.639,444.628,183.413,444.628,179.815Zm8.507-.041c0-2.725-1.02-4.347-3.286-4.347-2.288,0-3.328,1.664-3.328,4.284s1.019,4.243,3.286,4.243C452.1,183.954,453.135,182.29,453.135,179.774Z"/><path class="cls-2" d="M468.3,183.746v1.664h-9.9v-1.664h4.013v-15.39h1.872v15.39Z"/><path class="cls-2" d="M481.234,177.9l-.1,7.508h-1.56v-1.373a5.388,5.388,0,0,1-4.013,1.6c-2.288-.021-3.577-1.227-3.577-3.141,0-2.2,2.266-3.182,7.341-3.577l.021-.811c.02-1.456-.146-2.683-2.413-2.683a8.978,8.978,0,0,0-3.993.978l-.5-1.56a10.037,10.037,0,0,1,4.637-1.1C480.839,173.743,481.255,175.656,481.234,177.9Zm-1.975,4.867.041-2.33c-3.826.312-5.449.853-5.449,2.018,0,.956.666,1.518,1.955,1.539A5.122,5.122,0,0,0,479.259,182.769Z"/><path class="cls-2" d="M495.379,184.724a8.435,8.435,0,0,1-3.931.894c-3.12,0-3.681-1.706-3.639-4.16l.124-5.823h-2.808v-1.664h2.829l.063-2.7h1.933l-.353,2.7h5.366v1.664h-5.116l-.125,5.615c-.042,1.456.145,2.683,1.789,2.683a7.457,7.457,0,0,0,3.369-.769Z"/><path class="cls-2" d="M500.85,179.711c0,2.912,1.226,4.222,3.639,4.222a7.5,7.5,0,0,0,3.785-.977l.5,1.56a8.486,8.486,0,0,1-4.327,1.1c-3.389,0-5.49-1.914-5.49-5.8s2.392-6.051,5.387-6.051c3.41,0,4.929,2.121,4.472,5.823H500.85Zm.145-1.622h6.031c-.042-1.913-.935-2.7-2.807-2.7A3.049,3.049,0,0,0,501,178.089Z"/><path class="cls-2" d="M523,171.267l-4.014,14.143h-3.12l-4.013-14.143h2l2.829,10.358.478,2.121h.645l.478-2.121,2.787-10.358Z"/><path class="cls-2" d="M535.315,177.9l-.105,7.508h-1.56v-1.373a5.388,5.388,0,0,1-4.013,1.6c-2.288-.021-3.577-1.227-3.577-3.141,0-2.2,2.266-3.182,7.341-3.577l.021-.811c.02-1.456-.146-2.683-2.413-2.683a8.978,8.978,0,0,0-3.993.978l-.5-1.56a10.037,10.037,0,0,1,4.637-1.1C534.919,173.743,535.335,175.656,535.315,177.9Zm-1.976,4.867.041-2.33c-3.826.312-5.449.853-5.449,2.018,0,.956.666,1.518,1.955,1.539A5.122,5.122,0,0,0,533.339,182.769Z"/><path class="cls-2" d="M549.416,183.746v1.664h-9.9v-1.664h4.013v-15.39H545.4v15.39Z"/><path class="cls-2" d="M562.52,173.971V185.41h-1.58v-1.269a5.664,5.664,0,0,1-3.848,1.5c-2.642,0-3.723-1.352-3.723-3.786v-7.882h1.871v7.612c0,1.685.687,2.371,2.08,2.371a5.734,5.734,0,0,0,3.328-1.081v-8.9Z"/><path class="cls-2" d="M568.449,179.711c0,2.912,1.227,4.222,3.64,4.222a7.5,7.5,0,0,0,3.785-.977l.5,1.56a8.48,8.48,0,0,1-4.326,1.1c-3.39,0-5.49-1.914-5.49-5.8s2.391-6.051,5.386-6.051c3.411,0,4.929,2.121,4.472,5.823h-7.966Zm.146-1.622h6.031c-.042-1.913-.935-2.7-2.808-2.7A3.048,3.048,0,0,0,568.6,178.089Z"/><path class="cls-3" d="M582.239,178.339c0-7.612,2.412-9.151,6.177-9.151v1.705c-2.85,0-4.2.977-4.2,7.238,0,6.676,1.351,7.654,4.2,7.654v1.705C584.651,187.49,582.239,186.159,582.239,178.339Z"/><path class="cls-2" d="M604.016,183.7v1.706h-9.9V183.7h4.409v-8.942l-4.409,1.684V174.6l4.409-1.684v-1.644h1.914V183.7Z"/><path class="cls-2" d="M617.307,178.214c0,5.241-1.976,7.4-5.3,7.4-3.494,0-5.179-2.434-5.179-7.154,0-4.929,1.976-7.405,5.3-7.405C615.622,171.059,617.307,173.493,617.307,178.214Zm-8.527.146c0,.624.021,1.206.062,1.726l6.094-5.283a2.7,2.7,0,0,0-2.849-2.038C609.55,172.765,608.78,174.72,608.78,178.36Zm6.572-.042c0-.624-.021-1.206-.063-1.726l-6.093,5.282a2.7,2.7,0,0,0,2.849,2.038C614.582,183.912,615.352,182.373,615.352,178.318Z"/><path class="cls-2" d="M627.811,184.766a3.859,3.859,0,0,1-4.243,3.972v-1.56a2.212,2.212,0,0,0,2.517-1.851,1.254,1.254,0,0,1-.749.27,1.873,1.873,0,0,1,.083-3.744C626.522,181.853,627.811,182.769,627.811,184.766Z"/><path class="cls-2" d="M644.491,183.7v1.706H634.259V183.5c3.64-2.225,7.883-4.492,7.883-8.11,0-1.6-.707-2.621-3.078-2.621-2.58,0-3.266,1.144-3.266,3.1a3.526,3.526,0,0,0,.167,1.269l-1.977-.146a9.791,9.791,0,0,1-.083-1.331c0-2.766,1.81-4.6,5.262-4.6,4.056,0,4.93,2.247,4.93,4.119,0,3.993-3.744,6.239-6.031,7.778l-1.124.5v.249Z"/><path class="cls-2" d="M657.866,178.214c0,5.241-1.975,7.4-5.3,7.4-3.5,0-5.179-2.434-5.179-7.154,0-4.929,1.975-7.405,5.3-7.405C656.182,171.059,657.866,173.493,657.866,178.214Zm-8.526.146c0,.624.02,1.206.061,1.726L655.5,174.8a2.7,2.7,0,0,0-2.848-2.038C650.109,172.765,649.34,174.72,649.34,178.36Zm6.571-.042c0-.624-.02-1.206-.061-1.726l-6.094,5.282a2.7,2.7,0,0,0,2.849,2.038C655.142,183.912,655.911,182.373,655.911,178.318Z"/><path class="cls-2" d="M668.37,184.766a3.859,3.859,0,0,1-4.242,3.972v-1.56a2.212,2.212,0,0,0,2.517-1.851,1.256,1.256,0,0,1-.749.27,1.873,1.873,0,0,1,.083-3.744C667.081,181.853,668.37,182.769,668.37,184.766Z"/><path class="cls-2" d="M677.793,183.725a1.872,1.872,0,1,1,1.871,1.872A1.864,1.864,0,0,1,677.793,183.725Z"/><path class="cls-2" d="M698.3,181c0,2.5-1.686,4.617-5.7,4.617a10.018,10.018,0,0,1-4.576-.936l.541-1.622a8.651,8.651,0,0,0,4.2.873c2.62,0,3.618-1.1,3.618-2.807,0-1.623-1.206-2.33-3.723-2.787l-3.681-.666.083-6.406h8.777v1.706h-6.905l-.062,3.307,2.454.437C696.679,177.278,698.3,178.38,698.3,181Z"/><path class="cls-3" d="M709.491,178.339c0,7.612-2.412,9.151-6.176,9.151v-1.705c2.849,0,4.2-.978,4.2-7.238,0-6.677-1.352-7.654-4.2-7.654v-1.705C707.079,169.188,709.491,170.519,709.491,178.339Z"/><path class="cls-3" d="M238.709,284.512c0,4.575-2.268,6.364-5.678,6.364a13.864,13.864,0,0,1-2.225-.167v3.7h-1.872V279.229h1.581V280.5a5.558,5.558,0,0,1,3.847-1.5C237.191,279.021,238.709,281,238.709,284.512Zm-1.893.208c0-2.6-.915-4.014-2.683-4.035a5.582,5.582,0,0,0-3.327,1.081V288.9a8.712,8.712,0,0,0,2.371.291C235.693,289.191,236.816,287.694,236.816,284.72Z"/><path class="cls-3" d="M252.187,289v1.664h-9.9V289h2.974v-9.775h1.664l-.042,2.2,5.075-2.474.021,1.851-4.846,2.35V289Z"/><path class="cls-3" d="M265.707,289v1.664h-9.9V289h4.221v-8.111h-4.221v-1.664H261.9V289Zm-6.821-13.518a1.872,1.872,0,1,1,1.871,1.871A1.864,1.864,0,0,1,258.886,275.486Z"/><path class="cls-3" d="M278.686,282.786v7.882h-1.871v-7.612c0-1.685-.687-2.371-2.081-2.371a5.739,5.739,0,0,0-3.328,1.081v8.9h-1.871V279.229h1.58V280.5a5.66,5.66,0,0,1,3.848-1.5C277.605,279,278.686,280.352,278.686,282.786Z"/><path class="cls-3" d="M292.58,289.981a8.42,8.42,0,0,1-3.931.895c-3.12,0-3.681-1.706-3.639-4.16l.124-5.823h-2.808v-1.664h2.829l.063-2.7h1.933l-.353,2.7h5.366v1.664h-5.116l-.125,5.615c-.042,1.456.145,2.683,1.789,2.683a7.457,7.457,0,0,0,3.369-.769Z"/><path class="cls-3" d="M298.322,283.6c0-7.612,2.412-9.151,6.177-9.151v1.7c-2.85,0-4.2.977-4.2,7.238,0,6.676,1.351,7.653,4.2,7.653v1.705C300.734,292.747,298.322,291.416,298.322,283.6Z"/><path class="cls-3" d="M320.16,282.162v8.506H318.5v-7.82c0-1.685-.167-2.371-1.268-2.371a2.814,2.814,0,0,0-1.81.852c.021.25.041.52.041.833v8.506H313.8v-7.82c0-1.685-.167-2.371-1.27-2.371a2.745,2.745,0,0,0-1.767.811v9.38H309.1V279.229h1.372l.02,1A3.28,3.28,0,0,1,312.943,279a2.147,2.147,0,0,1,2.143,1.144A3.73,3.73,0,0,1,317.645,279C319.329,279,320.16,279.936,320.16,282.162Z"/><path class="cls-3" d="M329.084,292.747h3.286v1.665h-8.444v-1.665h3.286v-2.308l-4.43-11.21H324.8l2.391,6.219.811,2.579h.416l.832-2.579,2.351-6.219h1.913l-4.43,11.21Z"/><path class="cls-3" d="M347.242,276.525l-4.013,14.143h-3.121L336.1,276.525h2l2.829,10.358L341.4,289h.644l.479-2.121,2.786-10.358Z"/><path class="cls-3" d="M359.556,283.16l-.1,7.508h-1.559V289.3a5.4,5.4,0,0,1-4.014,1.6c-2.288-.021-3.577-1.227-3.577-3.141,0-2.2,2.266-3.182,7.342-3.577l.02-.811c.021-1.456-.145-2.683-2.413-2.683a8.991,8.991,0,0,0-3.993.977l-.5-1.56A10.05,10.05,0,0,1,355.4,279C359.16,279,359.576,280.914,359.556,283.16Zm-1.976,4.867.041-2.33c-3.826.312-5.449.853-5.449,2.018,0,.956.666,1.518,1.955,1.539A5.12,5.12,0,0,0,357.58,288.027Z"/><path class="cls-3" d="M373.657,289v1.664h-9.9V289h4.014v-15.39h1.872V289Z"/><path class="cls-3" d="M386.762,279.229v11.439h-1.58V289.4a5.665,5.665,0,0,1-3.848,1.5c-2.642,0-3.723-1.352-3.723-3.786v-7.882h1.872v7.612c0,1.685.686,2.371,2.08,2.371a5.734,5.734,0,0,0,3.327-1.081v-8.9Z"/><path class="cls-3" d="M392.691,284.969c0,2.912,1.226,4.222,3.639,4.222a7.5,7.5,0,0,0,3.785-.977l.5,1.559a8.47,8.47,0,0,1-4.326,1.1c-3.389,0-5.49-1.914-5.49-5.8s2.392-6.052,5.387-6.052c3.41,0,4.928,2.121,4.471,5.824h-7.965Zm.145-1.622h6.031c-.042-1.914-.935-2.7-2.807-2.7A3.05,3.05,0,0,0,392.836,283.347Z"/><path class="cls-3" d="M412.054,283.6c0,7.611-2.412,9.15-6.177,9.15v-1.705c2.85,0,4.2-.977,4.2-7.237,0-6.677-1.351-7.654-4.2-7.654v-1.7C409.642,274.446,412.054,275.777,412.054,283.6Z"/><path class="cls-4" d="M588.323,146.551a4.922,4.922,0,0,0,1.242.7c.149.074.294.158.439.241a2.5,2.5,0,0,1,.252-.383,3.477,3.477,0,0,0,.258-.48,3.732,3.732,0,0,1,.42-.613,3.408,3.408,0,0,0,.6-.907c.482-1.031.966-2.062,1.462-3.086.138-.284.326-.544.486-.817.1-.176.206-.353.3-.536a4.956,4.956,0,0,1,.711-1.238,1.425,1.425,0,0,0,.19-.361,14.045,14.045,0,0,1,.951-1.714c.137-.207.215-.452.335-.671.131-.238.279-.466.42-.7.048-.077.126-.147.142-.23a4.409,4.409,0,0,1,.812-1.469,4.285,4.285,0,0,0,.648-1.418.591.591,0,0,1,.229-.4,1.7,1.7,0,0,0,.547-.768,10.61,10.61,0,0,1,1.318-2.218,2.393,2.393,0,0,0,.229-.419c.265-.555.523-1.113.79-1.666a13,13,0,0,1,.692-1.248,10.246,10.246,0,0,0,.76-1.67,1.5,1.5,0,0,1,.251-.469,4.507,4.507,0,0,0,.77-1.2,5.16,5.16,0,0,1,.388-.637c.083-.135.166-.27.243-.41.511-.93,1.05-1.846,1.493-2.815.093-.2.334-.357.373-.559a4.5,4.5,0,0,1,.71-1.3,2.418,2.418,0,0,0,.152-.372,3.032,3.032,0,0,1,.572-1.074,6.587,6.587,0,0,0,.844-1.385c.179-.343.333-.7.5-1.047a1.6,1.6,0,0,1,.185-.364,6.844,6.844,0,0,0,.892-1.606,5.131,5.131,0,0,1,.8-1.34,2.025,2.025,0,0,0,.238-.4c.065-.117.12-.239.189-.354.047-.077.129-.137.161-.218a24.358,24.358,0,0,1,1.207-2.21c.124-.241.28-.466.418-.7.1-.175.213-.35.3-.533.289-.594.59-1.183.847-1.791a12.048,12.048,0,0,1,.973-1.635c.143-.23.3-.452.425-.694a11.2,11.2,0,0,1,.7-1.242,11.122,11.122,0,0,0,.705-1.4v0a1.818,1.818,0,0,0-.258-.121,4.562,4.562,0,0,1-1.67-.785,1.6,1.6,0,0,0-.461-.211c-.141-.045-.3-.041-.442-.079s-.3-.106-.419-.147a4.4,4.4,0,0,0-1,1.812,4.371,4.371,0,0,1-.715,1.621c-.163.167-.318.343-.489.5a1.4,1.4,0,0,0-.515,1,1.24,1.24,0,0,1-.128.488,9.4,9.4,0,0,1-.488.825,1.5,1.5,0,0,1-.322.385,1.572,1.572,0,0,0-.552.767,1.7,1.7,0,0,1-.433.695,1.066,1.066,0,0,0-.367.658.861.861,0,0,1-.293.554c-.136.134-.246.3-.384.431a1.178,1.178,0,0,0-.377,1.039.831.831,0,0,1-.581.957.64.64,0,0,0-.153.121,2.826,2.826,0,0,0-.037,1.081.947.947,0,0,1-.187.9,1.208,1.208,0,0,0-.175.472,6.555,6.555,0,0,1-.246.792c-.2.426-.441.829-.657,1.247a1.516,1.516,0,0,1-.53.705c-.116.07-.177.235-.256.36a2.223,2.223,0,0,1-.721.795.739.739,0,0,0-.426.6.782.782,0,0,1-.4.747.31.31,0,0,0-.109.154c-.279.668-.677,1.274-1,1.951l-.561-.064a6.349,6.349,0,0,0-.489.691c-.24.454-.446.927-.661,1.393-.01.022.022.063.031.087l.219-.021c.04.223-.044.349-.208.383a.914.914,0,0,0-.5.374,2,2,0,0,0-.48.964.592.592,0,0,1-.22.447,3.369,3.369,0,0,0-.892,1,6.674,6.674,0,0,0-.585,1.138,1.125,1.125,0,0,0-.026.312c-.043.381-.083.762-.14,1.141-.014.1-.073.207-.25.106.037-.2.08-.4.113-.612a2.606,2.606,0,0,0,.049-.5c0-.087-.087-.169-.168-.309-.393.441-.817.771-.793,1.387a.624.624,0,0,1-.325.515,1.126,1.126,0,0,0-.546.952.837.837,0,0,1-.23.584,2.775,2.775,0,0,0-.6,1.261,1.138,1.138,0,0,1-.473.806.352.352,0,0,0-.16.189,7.473,7.473,0,0,1-.622,1.475.753.753,0,0,0-.077.56c.123.321-.048.634.019.952a.37.37,0,0,1-.12.284,1.229,1.229,0,0,0-.337.81c-.032.189-.042.382-.061.573-.03.311-.166.526-.436.531-.19.3-.356.544-.5.8a2.224,2.224,0,0,0-.26.579,2.228,2.228,0,0,1-.346.819.444.444,0,0,0-.1.286.424.424,0,0,1-.278.511.294.294,0,0,0-.148.194,1.086,1.086,0,0,1-.275.5,5.914,5.914,0,0,0-.891,1.821,2.931,2.931,0,0,1-.659,1.433,2.821,2.821,0,0,0-.745,1.242c-.016.053-.108.085-.177.136-.062-.175-.107-.3-.161-.451-.165.208-.3.37-.426.544a1.182,1.182,0,0,0-.3.954.757.757,0,0,1,.01.2c.212.111.412.245.63.345A1.429,1.429,0,0,1,588.323,146.551Zm13.093-26.076a2,2,0,0,1,.349-1.079c-.017.428-.022.763-.049,1.1,0,.057-.1.107-.159.16C601.509,120.594,601.422,120.538,601.416,120.475Z"/><path class="cls-4" d="M653.978,269.758a4.989,4.989,0,0,0,1.428.016c.166-.007.333,0,.5,0a2.52,2.52,0,0,1,.035-.457,3.3,3.3,0,0,0,0-.544,3.724,3.724,0,0,1,.072-.741,3.424,3.424,0,0,0,.085-1.081c-.076-1.136-.149-2.272-.209-3.409-.016-.315.023-.633.032-.95.006-.2.01-.409,0-.613a4.947,4.947,0,0,1,.025-1.427,1.4,1.4,0,0,0-.008-.408,13.936,13.936,0,0,1,.007-1.96c.02-.247-.03-.5-.03-.75,0-.271.019-.542.031-.813a.8.8,0,0,0,.014-.27,4.366,4.366,0,0,1,0-1.678,4.243,4.243,0,0,0-.117-1.555.6.6,0,0,1,.007-.463,1.7,1.7,0,0,0,.108-.937,10.6,10.6,0,0,1,.085-2.579,2.453,2.453,0,0,0,0-.477c-.035-.614-.079-1.227-.111-1.841a12.82,12.82,0,0,1,0-1.427,10.348,10.348,0,0,0-.14-1.829,1.442,1.442,0,0,1-.006-.532,4.492,4.492,0,0,0,.1-1.422,5.328,5.328,0,0,1,.033-.745c.007-.158.015-.317.015-.476,0-1.062.029-2.124-.05-3.186-.016-.222.12-.473.057-.669a4.5,4.5,0,0,1,0-1.479,2.249,2.249,0,0,0-.046-.4,3.017,3.017,0,0,1-.017-1.216,6.658,6.658,0,0,0,.072-1.621c-.01-.386-.045-.772-.067-1.159a1.6,1.6,0,0,1-.013-.408,6.841,6.841,0,0,0,.006-1.836,5.143,5.143,0,0,1,.054-1.561,1.968,1.968,0,0,0,.014-.468c0-.134-.01-.267,0-.4a1.82,1.82,0,0,0,.035-.269,24.88,24.88,0,0,1-.009-2.518c-.007-.271.021-.543.029-.814.007-.2.018-.41.007-.613-.033-.659-.054-1.321-.122-1.977a11.95,11.95,0,0,1,.063-1.9c.014-.27.048-.543.038-.812a11.163,11.163,0,0,1,.017-1.428,11.132,11.132,0,0,0-.059-1.567v0a2.024,2.024,0,0,0-.284.018,4.542,4.542,0,0,1-1.841.118,1.6,1.6,0,0,0-.506.038c-.145.028-.281.108-.426.144s-.317.054-.438.073a4.41,4.41,0,0,0,0,2.069,4.365,4.365,0,0,1,.156,1.764c-.062.225-.113.455-.187.677a1.406,1.406,0,0,0,.03,1.121,1.223,1.223,0,0,1,.124.489,9.29,9.29,0,0,1-.03.958,1.485,1.485,0,0,1-.1.493,1.569,1.569,0,0,0-.113.938,1.693,1.693,0,0,1-.045.818,1.073,1.073,0,0,0,0,.753.867.867,0,0,1,.011.626c-.054.184-.073.379-.128.563a1.175,1.175,0,0,0,.17,1.092.83.83,0,0,1-.047,1.119.665.665,0,0,0-.075.179,2.818,2.818,0,0,0,.489.966.947.947,0,0,1,.272.881,1.208,1.208,0,0,0,.075.5,6.584,6.584,0,0,1,.166.813c.031.468.014.939.026,1.408a1.516,1.516,0,0,1-.124.875,1.051,1.051,0,0,0-.05.438,2.215,2.215,0,0,1-.249,1.044.742.742,0,0,0-.082.735.781.781,0,0,1,.015.845.3.3,0,0,0-.022.188c.078.72.022,1.443.068,2.189l-.522.216a6.319,6.319,0,0,0-.1.84c.008.514.056,1.027.092,1.54,0,.024.051.044.07.061l.181-.124c.143.176.13.326,0,.436a.916.916,0,0,0-.256.567,2,2,0,0,0,.045,1.077.586.586,0,0,1,.022.5,3.4,3.4,0,0,0-.3,1.3,6.7,6.7,0,0,0,.037,1.28c.007.1.089.188.128.286.146.354.295.707.428,1.066.034.092.035.217-.169.214-.062-.19-.124-.392-.2-.59a2.5,2.5,0,0,0-.2-.465c-.045-.074-.157-.106-.3-.189-.131.576-.343,1.069-.025,1.6a.622.622,0,0,1-.036.608,1.124,1.124,0,0,0-.019,1.1.846.846,0,0,1,.08.623,2.769,2.769,0,0,0,.084,1.393,1.143,1.143,0,0,1-.026.935.349.349,0,0,0-.048.242,7.485,7.485,0,0,1,.166,1.592.752.752,0,0,0,.2.528c.262.222.264.578.475.825a.364.364,0,0,1,.032.306,1.235,1.235,0,0,0,.1.873c.064.181.148.354.223.531.124.286.109.541-.126.675-.021.354-.049.649-.053.944a2.214,2.214,0,0,0,.052.632,2.235,2.235,0,0,1,.092.885.441.441,0,0,0,.053.3.424.424,0,0,1,0,.582.292.292,0,0,0-.035.241,1.1,1.1,0,0,1,0,.57,5.929,5.929,0,0,0,.1,2.025,2.924,2.924,0,0,1,.114,1.573,2.828,2.828,0,0,0-.053,1.447c.011.055-.054.127-.089.2l-.359-.317c-.044.263-.088.472-.111.682a1.184,1.184,0,0,0,.2.979.726.726,0,0,1,.105.17c.239,0,.479.016.719,0A1.362,1.362,0,0,1,653.978,269.758Zm-1.11-29.159a1.987,1.987,0,0,1-.215-1.112c.192.382.348.678.486.984.024.052-.039.143-.062.216C653.006,240.659,652.9,240.652,652.868,240.6Z"/><path class="cls-4" d="M466.778,147.558a4.989,4.989,0,0,0,1.428.016c.166-.007.333,0,.5,0a2.52,2.52,0,0,1,.035-.457,3.3,3.3,0,0,0,0-.544,3.724,3.724,0,0,1,.072-.741,3.424,3.424,0,0,0,.085-1.081c-.076-1.136-.149-2.272-.209-3.409-.016-.315.023-.633.032-.95.006-.2.01-.409,0-.613a4.947,4.947,0,0,1,.025-1.427,1.4,1.4,0,0,0-.008-.408,13.936,13.936,0,0,1,.007-1.96c.02-.247-.03-.5-.03-.75,0-.271.019-.542.031-.813a.8.8,0,0,0,.014-.27,4.366,4.366,0,0,1,0-1.678,4.243,4.243,0,0,0-.117-1.555.6.6,0,0,1,.007-.463,1.7,1.7,0,0,0,.108-.937,10.6,10.6,0,0,1,.085-2.579,2.453,2.453,0,0,0,0-.477c-.035-.614-.079-1.227-.111-1.841a12.82,12.82,0,0,1,0-1.427,10.348,10.348,0,0,0-.14-1.829,1.442,1.442,0,0,1-.006-.532,4.492,4.492,0,0,0,.095-1.422,5.328,5.328,0,0,1,.033-.745c.007-.158.015-.317.015-.476,0-1.062.029-2.124-.05-3.186-.016-.222.12-.473.057-.669a4.5,4.5,0,0,1,0-1.479,2.249,2.249,0,0,0-.046-.4,3.017,3.017,0,0,1-.017-1.216,6.658,6.658,0,0,0,.072-1.621c-.01-.386-.045-.772-.067-1.159a1.6,1.6,0,0,1-.013-.408,6.841,6.841,0,0,0,.006-1.836,5.143,5.143,0,0,1,.054-1.561,1.968,1.968,0,0,0,.014-.468c0-.134-.01-.267,0-.4a1.82,1.82,0,0,0,.035-.269,24.88,24.88,0,0,1-.009-2.518c-.007-.271.021-.543.029-.814.007-.2.018-.41.007-.613-.033-.659-.054-1.321-.122-1.977a11.95,11.95,0,0,1,.063-1.9c.014-.27.048-.543.038-.812a11.163,11.163,0,0,1,.017-1.428,11.132,11.132,0,0,0-.059-1.567v0a2.024,2.024,0,0,0-.284.018,4.542,4.542,0,0,1-1.841.118,1.6,1.6,0,0,0-.506.038c-.145.028-.281.108-.426.144s-.317.054-.438.073a4.41,4.41,0,0,0,0,2.069,4.365,4.365,0,0,1,.156,1.764c-.062.225-.113.455-.187.677a1.406,1.406,0,0,0,.03,1.121,1.223,1.223,0,0,1,.124.489,9.29,9.29,0,0,1-.03.958,1.485,1.485,0,0,1-.1.493,1.569,1.569,0,0,0-.113.938,1.693,1.693,0,0,1-.045.818,1.073,1.073,0,0,0,0,.753.867.867,0,0,1,.011.626c-.054.184-.073.379-.128.563a1.175,1.175,0,0,0,.17,1.092.83.83,0,0,1-.047,1.119.665.665,0,0,0-.075.179,2.818,2.818,0,0,0,.489.966.947.947,0,0,1,.272.881,1.208,1.208,0,0,0,.075.5,6.584,6.584,0,0,1,.166.813c.031.468.014.939.026,1.408a1.516,1.516,0,0,1-.124.875,1.051,1.051,0,0,0-.05.438,2.215,2.215,0,0,1-.249,1.044.742.742,0,0,0-.082.735.781.781,0,0,1,.015.845.3.3,0,0,0-.022.188c.078.72.022,1.443.068,2.189l-.522.216a6.319,6.319,0,0,0-.1.84c.008.514.056,1.027.092,1.54,0,.024.051.044.07.061l.181-.124c.143.176.13.326,0,.436a.916.916,0,0,0-.256.567,2,2,0,0,0,.045,1.077.586.586,0,0,1,.022.5,3.4,3.4,0,0,0-.3,1.3,6.7,6.7,0,0,0,.037,1.28c.007.1.089.188.128.286.146.354.3.707.428,1.066.034.092.035.217-.169.214-.062-.19-.124-.392-.2-.59a2.5,2.5,0,0,0-.2-.465c-.045-.074-.157-.106-.3-.189-.131.576-.343,1.069-.025,1.6a.622.622,0,0,1-.036.608,1.124,1.124,0,0,0-.019,1.1.846.846,0,0,1,.08.623,2.769,2.769,0,0,0,.084,1.393,1.143,1.143,0,0,1-.026.935.349.349,0,0,0-.048.242,7.485,7.485,0,0,1,.166,1.592.752.752,0,0,0,.2.528c.262.222.264.578.475.825a.364.364,0,0,1,.032.306,1.235,1.235,0,0,0,.1.873c.064.181.148.354.223.531.124.286.109.541-.126.675-.021.354-.049.649-.053.944a2.214,2.214,0,0,0,.052.632,2.235,2.235,0,0,1,.092.885.441.441,0,0,0,.053.3.424.424,0,0,1,0,.582.292.292,0,0,0-.035.241,1.1,1.1,0,0,1,0,.57,5.929,5.929,0,0,0,.1,2.025,2.924,2.924,0,0,1,.114,1.573,2.828,2.828,0,0,0-.053,1.447c.011.055-.054.127-.089.2l-.359-.317c-.044.263-.088.472-.111.682a1.184,1.184,0,0,0,.2.979.726.726,0,0,1,.1.17c.239-.005.479.016.719,0A1.362,1.362,0,0,1,466.778,147.558Zm-1.11-29.159a1.987,1.987,0,0,1-.215-1.112c.192.382.348.678.486.984.024.052-.039.143-.062.216C465.806,118.459,465.7,118.452,465.668,118.4Z"/><path class="cls-4" d="M256.178,139.758a4.989,4.989,0,0,0,1.428.016c.166-.007.333,0,.5,0a2.52,2.52,0,0,1,.035-.457,3.3,3.3,0,0,0,0-.544,3.724,3.724,0,0,1,.072-.741,3.424,3.424,0,0,0,.085-1.081c-.076-1.136-.149-2.272-.209-3.409-.016-.315.023-.633.032-.95.006-.2.01-.409,0-.613a4.947,4.947,0,0,1,.025-1.427,1.4,1.4,0,0,0-.008-.408,13.936,13.936,0,0,1,.007-1.96c.02-.247-.03-.5-.03-.75,0-.271.019-.542.031-.813a.8.8,0,0,0,.014-.27,4.366,4.366,0,0,1,0-1.678,4.243,4.243,0,0,0-.117-1.555.6.6,0,0,1,.007-.463,1.7,1.7,0,0,0,.108-.937,10.6,10.6,0,0,1,.085-2.579,2.453,2.453,0,0,0,0-.477c-.035-.614-.079-1.227-.111-1.841a12.82,12.82,0,0,1,0-1.427,10.348,10.348,0,0,0-.14-1.829,1.442,1.442,0,0,1-.006-.532,4.492,4.492,0,0,0,.1-1.422,5.328,5.328,0,0,1,.033-.745c.007-.158.015-.317.015-.476,0-1.062.029-2.124-.05-3.186-.016-.222.12-.473.057-.669a4.5,4.5,0,0,1,0-1.479,2.249,2.249,0,0,0-.046-.4,3.017,3.017,0,0,1-.017-1.216,6.658,6.658,0,0,0,.072-1.621c-.01-.386-.045-.772-.067-1.159a1.6,1.6,0,0,1-.013-.408,6.841,6.841,0,0,0,.006-1.836,5.143,5.143,0,0,1,.054-1.561,1.968,1.968,0,0,0,.014-.468c0-.134-.01-.267,0-.4a1.82,1.82,0,0,0,.035-.269,24.88,24.88,0,0,1-.009-2.518c-.007-.271.021-.543.029-.814.007-.2.018-.41.007-.613-.033-.659-.054-1.321-.122-1.977a11.95,11.95,0,0,1,.063-1.9c.014-.27.048-.543.038-.812a11.163,11.163,0,0,1,.017-1.428,11.132,11.132,0,0,0-.059-1.567v0a2.024,2.024,0,0,0-.284.018,4.542,4.542,0,0,1-1.841.118,1.6,1.6,0,0,0-.506.038c-.145.028-.281.108-.426.144s-.317.054-.438.073a4.41,4.41,0,0,0,0,2.069,4.365,4.365,0,0,1,.156,1.764c-.062.225-.113.455-.187.677a1.406,1.406,0,0,0,.03,1.121,1.223,1.223,0,0,1,.124.489,9.29,9.29,0,0,1-.03.958,1.485,1.485,0,0,1-.1.493,1.569,1.569,0,0,0-.113.938,1.693,1.693,0,0,1-.045.818,1.073,1.073,0,0,0,0,.753.867.867,0,0,1,.011.626c-.054.184-.073.379-.128.563a1.175,1.175,0,0,0,.17,1.092.83.83,0,0,1-.047,1.119.665.665,0,0,0-.075.179,2.818,2.818,0,0,0,.489.966.947.947,0,0,1,.272.881,1.208,1.208,0,0,0,.075.5,6.584,6.584,0,0,1,.166.813c.031.468.014.939.026,1.408a1.516,1.516,0,0,1-.124.875,1.051,1.051,0,0,0-.05.438,2.215,2.215,0,0,1-.249,1.044.742.742,0,0,0-.082.735.781.781,0,0,1,.015.845.3.3,0,0,0-.022.188c.078.72.022,1.443.068,2.189l-.522.216a6.319,6.319,0,0,0-.095.84c.008.514.056,1.027.092,1.54,0,.024.051.044.07.061l.181-.124c.143.176.13.326,0,.436a.916.916,0,0,0-.256.567,2,2,0,0,0,.045,1.077.586.586,0,0,1,.022.5,3.4,3.4,0,0,0-.3,1.3,6.7,6.7,0,0,0,.037,1.28c.007.1.089.188.128.286.146.354.3.707.428,1.066.034.092.035.217-.169.214-.062-.19-.124-.392-.2-.59a2.5,2.5,0,0,0-.2-.465c-.045-.074-.157-.106-.3-.189-.131.576-.343,1.069-.025,1.6a.622.622,0,0,1-.036.608,1.124,1.124,0,0,0-.019,1.1.846.846,0,0,1,.08.623,2.769,2.769,0,0,0,.084,1.393,1.143,1.143,0,0,1-.026.935.349.349,0,0,0-.048.242,7.485,7.485,0,0,1,.166,1.592.752.752,0,0,0,.2.528c.262.222.264.578.475.825a.364.364,0,0,1,.032.306,1.235,1.235,0,0,0,.1.873c.064.181.148.354.223.531.124.286.109.541-.126.675-.021.354-.049.649-.053.944a2.214,2.214,0,0,0,.052.632,2.235,2.235,0,0,1,.092.885.441.441,0,0,0,.053.3.424.424,0,0,1,0,.582.292.292,0,0,0-.035.241,1.1,1.1,0,0,1,0,.57,5.929,5.929,0,0,0,.1,2.025,2.924,2.924,0,0,1,.114,1.573,2.828,2.828,0,0,0-.053,1.447c.011.055-.054.127-.089.2l-.359-.317c-.044.263-.088.472-.111.682a1.184,1.184,0,0,0,.2.979.726.726,0,0,1,.1.17c.239,0,.479.016.719,0A1.362,1.362,0,0,1,256.178,139.758Zm-1.11-29.159a1.987,1.987,0,0,1-.215-1.112c.192.382.348.678.486.984.024.052-.039.143-.062.216C255.206,110.659,255.1,110.652,255.068,110.6Z"/><path class="cls-4" d="M672.35,97.553a4.953,4.953,0,0,0-1.266.659c-.143.085-.292.161-.441.238a2.624,2.624,0,0,1,.185.419,3.446,3.446,0,0,0,.261.478,3.686,3.686,0,0,1,.286.686,3.4,3.4,0,0,0,.436.994c.6.966,1.2,1.933,1.792,2.907.164.27.279.569.42.852.092.183.185.366.288.541a4.941,4.941,0,0,1,.652,1.27,1.414,1.414,0,0,0,.2.356,13.788,13.788,0,0,1,.919,1.732c.1.227.263.426.381.646.129.239.239.487.356.732a.834.834,0,0,0,.115.244,4.382,4.382,0,0,1,.791,1.481,4.26,4.26,0,0,0,.837,1.316.591.591,0,0,1,.212.411,1.707,1.707,0,0,0,.347.877,10.625,10.625,0,0,1,1.143,2.314,2.426,2.426,0,0,0,.226.419c.321.525.649,1.045.967,1.571a12.742,12.742,0,0,1,.671,1.26,10.363,10.363,0,0,0,.986,1.546,1.467,1.467,0,0,1,.257.466,4.5,4.5,0,0,0,.587,1.3,5.255,5.255,0,0,1,.322.672c.069.143.137.287.212.427.5.935.977,1.886,1.548,2.785.119.188.117.474.266.617a4.527,4.527,0,0,1,.7,1.3,2.228,2.228,0,0,0,.229.329,3.04,3.04,0,0,1,.589,1.065,6.578,6.578,0,0,0,.7,1.462c.19.337.4.66.605.991a1.58,1.58,0,0,1,.205.353,6.784,6.784,0,0,0,.861,1.622,5.139,5.139,0,0,1,.689,1.4,2,2,0,0,0,.208.419c.063.118.135.231.194.351a1.963,1.963,0,0,0,.1.254,24.5,24.5,0,0,1,1.2,2.216c.134.235.238.488.359.731.09.183.178.369.283.543.34.566.671,1.139,1.041,1.685a12.179,12.179,0,0,1,.842,1.707c.115.245.213.5.35.734a11.175,11.175,0,0,1,.659,1.267,11.056,11.056,0,0,0,.792,1.353v0a1.831,1.831,0,0,0,.242-.151,4.567,4.567,0,0,1,1.567-.973,1.617,1.617,0,0,0,.429-.271c.114-.094.2-.228.307-.328s.254-.2.351-.271a4.393,4.393,0,0,0-.977-1.824,4.354,4.354,0,0,1-.97-1.482c-.051-.228-.115-.454-.155-.684a1.4,1.4,0,0,0-.556-.975,1.222,1.222,0,0,1-.339-.373,8.89,8.89,0,0,1-.426-.858,1.51,1.51,0,0,1-.148-.48,1.564,1.564,0,0,0-.343-.88,1.707,1.707,0,0,1-.347-.742,1.07,1.07,0,0,0-.352-.666.873.873,0,0,1-.305-.547c-.039-.188-.115-.368-.153-.557a1.174,1.174,0,0,0-.665-.882.832.832,0,0,1-.487-1.009.668.668,0,0,0-.018-.194,2.849,2.849,0,0,0-.887-.62.945.945,0,0,1-.656-.649c-.034-.15-.193-.273-.3-.4a6.529,6.529,0,0,1-.53-.639c-.249-.4-.456-.821-.688-1.229a1.51,1.51,0,0,1-.3-.829,1.046,1.046,0,0,0-.163-.41,2.243,2.243,0,0,1-.274-1.038.743.743,0,0,0-.274-.687.777.777,0,0,1-.411-.738.305.305,0,0,0-.071-.175c-.408-.6-.7-1.262-1.093-1.9.113-.136.231-.28.359-.436a6.278,6.278,0,0,0-.313-.786c-.25-.449-.534-.879-.808-1.313-.013-.02-.066-.016-.09-.021l-.1.194c-.208-.087-.268-.226-.208-.382a.917.917,0,0,0-.042-.622,2.014,2.014,0,0,0-.547-.928.582.582,0,0,1-.255-.427,3.381,3.381,0,0,0-.351-1.291,6.729,6.729,0,0,0-.636-1.111c-.052-.083-.167-.124-.248-.191-.3-.244-.594-.485-.88-.738-.074-.065-.134-.175.047-.269.145.139.3.288.452.428a2.535,2.535,0,0,0,.395.316c.075.043.189.018.35.027-.155-.57-.2-1.105-.731-1.421a.62.62,0,0,1-.255-.552,1.127,1.127,0,0,0-.5-.977.844.844,0,0,1-.365-.511,2.767,2.767,0,0,0-.731-1.188,1.146,1.146,0,0,1-.419-.837.345.345,0,0,0-.072-.236,7.462,7.462,0,0,1-.9-1.326.761.761,0,0,0-.429-.369c-.335-.071-.5-.385-.808-.5a.365.365,0,0,1-.173-.255,1.234,1.234,0,0,0-.5-.724c-.141-.129-.3-.242-.447-.362-.245-.195-.352-.426-.208-.655-.148-.323-.263-.595-.4-.858a2.217,2.217,0,0,0-.344-.532,2.247,2.247,0,0,1-.5-.737.434.434,0,0,0-.187-.237.424.424,0,0,1-.277-.512.291.291,0,0,0-.082-.229,1.1,1.1,0,0,1-.269-.5,5.949,5.949,0,0,0-1.041-1.74,2.923,2.923,0,0,1-.844-1.333,2.813,2.813,0,0,0-.636-1.3c-.035-.043-.012-.137-.017-.222l.466.11c-.085-.252-.145-.457-.224-.653a1.186,1.186,0,0,0-.639-.769.748.748,0,0,1-.172-.1c-.209.118-.43.212-.634.341A1.4,1.4,0,0,1,672.35,97.553Zm14.742,25.182a1.99,1.99,0,0,1,.715.879c-.35-.246-.628-.434-.893-.638-.046-.035-.034-.145-.048-.22C686.942,122.747,687.036,122.705,687.092,122.735Z"/><path class="cls-4" d="M579.445,19.358a7.775,7.775,0,0,0-.036,1.821,9.012,9.012,0,0,0,4.041-1.22l-.2,1.583a6.175,6.175,0,0,1-3.514,1.275c-1.784,0-2.785-1.038-2.657-3.132a7.321,7.321,0,0,1,5.206-6.808l3,.892a5.665,5.665,0,0,1,.255,1.621c0,1.947-1.474,3.5-4.15,3.5a13.065,13.065,0,0,1-1.838-.164A4.587,4.587,0,0,0,579.445,19.358Zm.565-1.893a4.976,4.976,0,0,0,.928.091,2.292,2.292,0,0,0,2.4-2.312,3.269,3.269,0,0,0-.146-.91A6.8,6.8,0,0,0,580.01,17.465Z"/><path class="cls-4" d="M594.608,14.115l-5.917,8.975-1.347-.492-1.311-.455c.328-3.022.638-6.062.82-8.9l2.566.291c-.2,2.111-.582,4.624-.892,6.808l4.332-7.191Z"/><path class="cls-4" d="M596.244,19.358a7.775,7.775,0,0,0-.036,1.821,9.015,9.015,0,0,0,4.041-1.22l-.2,1.583a6.177,6.177,0,0,1-3.514,1.275c-1.784,0-2.785-1.038-2.657-3.132a7.321,7.321,0,0,1,5.206-6.808l3,.892a5.665,5.665,0,0,1,.255,1.621c0,1.947-1.474,3.5-4.151,3.5a13.065,13.065,0,0,1-1.837-.164A4.587,4.587,0,0,0,596.244,19.358Zm.565-1.893a4.974,4.974,0,0,0,.927.091,2.293,2.293,0,0,0,2.4-2.312,3.269,3.269,0,0,0-.146-.91A6.8,6.8,0,0,0,596.809,17.465Z"/><path class="cls-4" d="M612.789,14.479a30,30,0,0,0-2.949,8.665l-2.258-.382a40.649,40.649,0,0,1,1.93-6.681,49.258,49.258,0,0,0-4.387,3.805c-.236.946-.474,1.784-.691,2.585l-2.185-.546c.673-2.4,1.528-4.933,2.366-8.647l2.33.473a28.39,28.39,0,0,1-1,3.568A49.187,49.187,0,0,1,610.7,13.3Z"/><path class="cls-4" d="M620.723,13.7a73.086,73.086,0,0,0-2.912,8.92l-2.167-.474a57.918,57.918,0,0,1,2.713-9.065ZM621.269,12l-2.185-.637a37.536,37.536,0,0,1,1.73-4.278l2.239.673C622.634,8.618,622.069,9.91,621.269,12Z"/><path class="cls-4" d="M630.77,8.236l-.51,1.911a3.234,3.234,0,0,0-1.456-.328c-1.165,0-1.93.874-2.549,2.968-.055.218-.127.418-.182.637.783-.019,1.547-.073,2.531-.164l-.365,1.565c-.837.073-1.692.091-2.511.091h-.11c-1.238,4.078-2.549,8.283-3.368,11.924l-2.111-.437c.783-3.641,1.856-7.664,2.93-11.578-.527-.036-.964-.091-1.274-.127l.273-1.4c.419.018.911.055,1.42.073.091-.382.2-.747.31-1.129.637-2.275,2-4.569,4.769-4.569A4.09,4.09,0,0,1,630.77,8.236Z"/><path class="cls-4" d="M641.526,14.479a30,30,0,0,0-2.949,8.665l-2.258-.382a40.747,40.747,0,0,1,1.93-6.681,49.541,49.541,0,0,0-4.387,3.805c-.236.946-.473,1.784-.691,2.585l-2.185-.546c.673-2.4,1.529-4.933,2.367-8.647l2.33.473a28.732,28.732,0,0,1-1,3.568,49.187,49.187,0,0,1,4.751-4.023Z"/><path class="cls-4" d="M650.225,15.754a7.226,7.226,0,0,1-5.88,7.336c-.8-.346-1.566-.674-2.276-1.02a10.686,10.686,0,0,1-.328-2.566c0-3.769,2.421-6.809,6.19-6.809a8.036,8.036,0,0,1,1.129.092l.455,1.8.636.091A7.051,7.051,0,0,1,650.225,15.754ZM648.2,15.39c0-.2,0-.4-.018-.583-2.676.164-4.1,2.185-4.1,5.207a8.551,8.551,0,0,0,.127,1.492C647.057,20.924,648.2,17.7,648.2,15.39Z"/><path class="cls-4" d="M662.619,16.9a33,33,0,0,0-2.184,6.244l-2.076-.455a20.586,20.586,0,0,1,.874-3.149,28.361,28.361,0,0,1-3.55,3.331c-.418-.254-.856-.455-1.6-.837a8.781,8.781,0,0,1-.145-1.839c0-3,2.2-6.717,7.318-7.609l.509,2.13c-4,.728-5.552,3.349-5.607,6.026,1.42-1.293,3.5-3.387,4.788-4.733Z"/><path class="cls-4" d="M672.265,13.806a27.687,27.687,0,0,0-1.894,5.716l-2.093-.382a27.42,27.42,0,0,1,.82-2.913c-1.148,1.4-2.349,3.095-3.423,4.587-.164.583-.364,1.183-.546,1.784l-2.185-.546c.674-2.4,1.566-5.115,2.367-8.81l2.33.509a23.19,23.19,0,0,1-1.075,3.823,42.449,42.449,0,0,1,3.952-4.915Z"/><path class="cls-4" d="M680.873,16.9a46.648,46.648,0,0,1-3.131,7.646,5.072,5.072,0,0,1-4.278,2.421,5.157,5.157,0,0,1-2.857-.8l.217-1.82a5.019,5.019,0,0,0,2.4.528c1.765,0,2.712-1.62,4.169-5.043a25.442,25.442,0,0,1-3.605,3.131c-.419-.255-.893-.455-1.639-.837a9.253,9.253,0,0,1-.09-2.021,7.574,7.574,0,0,1,7.445-7.445l.582,2.148c-4.368.091-5.5,3.186-5.716,5.9a38,38,0,0,0,4.824-4.7Z"/><path class="cls-4" d="M691.539,14.261a45.21,45.21,0,0,0-2.658,8.883l-2.312-.364a27.616,27.616,0,0,1,.837-3.713,35.955,35.955,0,0,1-4.259,4l-1.4-.783.019-.019-.6-.345c.838-2.968,1.748-5.753,2.513-8.884l2.311.51c-.564,2.33-1.274,4.678-1.965,6.844,1.674-1.51,3.185-3.094,4.478-4.514q.436-1.119.873-2.184Z"/><path class="cls-4" d="M707.337,14.479a35.636,35.636,0,0,0-2.949,8.884L702.2,22.98a39.8,39.8,0,0,1,1.82-6.626,49.077,49.077,0,0,0-4.514,4.133c-.128.746-.274,1.42-.438,2.148l-2.238-.4c.546-2.148,1.128-4.114,1.911-6.317-1.584,1.329-3.076,2.6-4.35,3.878-.255,1.037-.529,1.929-.838,2.985l-2.166-.564c.8-2.621,1.565-5.224,2.458-8.938l2.33.437a27.625,27.625,0,0,1-.929,3.44c1.347-1.365,2.931-2.676,4.551-4.077l2.02,1.183c-.509,1.311-.928,2.384-1.365,3.459,1.365-1.42,2.985-2.822,4.788-4.424Z"/><path class="cls-4" d="M709.755,19.358a7.775,7.775,0,0,0-.036,1.821,9.018,9.018,0,0,0,4.041-1.22l-.2,1.583a6.179,6.179,0,0,1-3.514,1.275c-1.784,0-2.785-1.038-2.657-3.132a7.321,7.321,0,0,1,5.206-6.808l3,.892a5.665,5.665,0,0,1,.255,1.621c0,1.947-1.474,3.5-4.151,3.5a13.077,13.077,0,0,1-1.838-.164A4.728,4.728,0,0,0,709.755,19.358Zm.564-1.893a4.984,4.984,0,0,0,.928.091,2.292,2.292,0,0,0,2.4-2.312,3.266,3.266,0,0,0-.145-.91A6.8,6.8,0,0,0,710.319,17.465Z"/><path class="cls-4" d="M726.3,14.479a29.966,29.966,0,0,0-2.949,8.665l-2.258-.382a40.649,40.649,0,0,1,1.93-6.681,49.258,49.258,0,0,0-4.387,3.805c-.237.946-.474,1.784-.692,2.585l-2.184-.546c.673-2.4,1.528-4.933,2.366-8.647l2.33.473a28.56,28.56,0,0,1-1,3.568,49.187,49.187,0,0,1,4.751-4.023Z"/><path class="cls-4" d="M733.415,14.825c-.71.055-1.42.091-2.13.091A72.884,72.884,0,0,0,728.9,22.6l-2.111-.455c.364-1.529.946-4.114,1.966-7.281-.746-.055-1.384-.11-1.784-.164l.273-1.4c.582.036,1.275.073,2,.091.438-1.256.947-2.585,1.512-3.968l2.457.746c-.491,1.092-.929,2.166-1.347,3.24.582-.036,1.183-.073,1.911-.145Z"/><path class="cls-4" d="M584.205,35.537a73.3,73.3,0,0,0-2.912,8.919l-2.167-.473a58.067,58.067,0,0,1,2.713-9.066Zm.546-1.693-2.185-.638a37.962,37.962,0,0,1,1.73-4.277l2.239.673C586.116,30.457,585.552,31.75,584.751,33.844Z"/><path class="cls-4" d="M588.427,36.9a2.748,2.748,0,0,0-.91.127,3.021,3.021,0,0,0,.983,1.857c1,1.238,1.947,2.13,1.947,3.222,0,1.438-2.166,2.767-4.041,2.767a4.691,4.691,0,0,1-3.021-1.02l.637-1.965a7.179,7.179,0,0,0,4.241,1.165c-.127-.747-.983-1.53-1.583-2.276-1.02-1.274-1.384-1.93-1.384-2.712,0-1.384,1.93-3.113,3.841-3.113a6.413,6.413,0,0,1,2.822.637l-.619,2.221A5.931,5.931,0,0,0,588.427,36.9Z"/><path class="cls-4" d="M605.228,36.319a29.966,29.966,0,0,0-2.95,8.665l-2.257-.382a40.647,40.647,0,0,1,1.929-6.681,49.385,49.385,0,0,0-4.386,3.805c-.237.946-.474,1.784-.692,2.584l-2.184-.545c.672-2.4,1.528-4.934,2.366-8.647l2.33.473a28.732,28.732,0,0,1-1,3.568,49.187,49.187,0,0,1,4.751-4.023Z"/><path class="cls-4" d="M607.646,41.2a7.727,7.727,0,0,0-.037,1.82A8.989,8.989,0,0,0,611.65,41.8l-.2,1.583a6.174,6.174,0,0,1-3.513,1.275c-1.785,0-2.786-1.038-2.658-3.132a7.322,7.322,0,0,1,5.206-6.808l3,.892a5.664,5.664,0,0,1,.255,1.62c0,1.948-1.473,3.495-4.15,3.495a13.055,13.055,0,0,1-1.838-.163A4.408,4.408,0,0,0,607.646,41.2Zm.564-1.893a4.976,4.976,0,0,0,.928.091,2.293,2.293,0,0,0,2.4-2.312,3.3,3.3,0,0,0-.145-.91A6.793,6.793,0,0,0,608.21,39.305Z"/><path class="cls-4" d="M616.327,41.2a7.766,7.766,0,0,0-.036,1.82,8.992,8.992,0,0,0,4.041-1.219l-.2,1.583a6.177,6.177,0,0,1-3.514,1.275c-1.784,0-2.785-1.038-2.657-3.132a7.321,7.321,0,0,1,5.206-6.808l3,.892a5.664,5.664,0,0,1,.255,1.62c0,1.948-1.474,3.495-4.151,3.495a13.042,13.042,0,0,1-1.837-.163A4.562,4.562,0,0,0,616.327,41.2Zm.565-1.893a4.974,4.974,0,0,0,.927.091,2.293,2.293,0,0,0,2.4-2.312,3.263,3.263,0,0,0-.146-.91A6.8,6.8,0,0,0,616.892,39.305Z"/><path class="cls-4" d="M634.619,30.767c-1.238,3.24-3.931,9.593-4.532,14.108l-2.222-.455a36.933,36.933,0,0,1,.838-3.932,35.169,35.169,0,0,1-3.969,4.114c-.4-.255-1.2-.565-1.947-.947A11.522,11.522,0,0,1,622.659,42a7.429,7.429,0,0,1,5.953-7.537l.565,2.149c-2.768.837-4.169,2.457-4.224,5.806,1.347-1.31,3.331-3.313,4.551-4.605.71-2.148,1.62-4.569,2.767-7.755Z"/><path class="cls-4" d="M635.219,41.2a7.709,7.709,0,0,0-.036,1.82,9,9,0,0,0,4.041-1.219l-.2,1.583a6.179,6.179,0,0,1-3.514,1.275c-1.784,0-2.785-1.038-2.657-3.132a7.321,7.321,0,0,1,5.206-6.808l3,.892a5.662,5.662,0,0,1,.254,1.62c0,1.948-1.473,3.495-4.15,3.495a13.055,13.055,0,0,1-1.838-.163A4.55,4.55,0,0,0,635.219,41.2Zm.564-1.893a4.984,4.984,0,0,0,.928.091,2.293,2.293,0,0,0,2.4-2.312,3.261,3.261,0,0,0-.145-.91A6.793,6.793,0,0,0,635.783,39.305Z"/><path class="cls-4" d="M653.511,30.767c-1.237,3.24-3.932,9.593-4.532,14.108l-2.222-.455a36.687,36.687,0,0,1,.838-3.932,35.251,35.251,0,0,1-3.969,4.114c-.4-.255-1.2-.565-1.947-.947A11.522,11.522,0,0,1,641.551,42a7.429,7.429,0,0,1,5.953-7.537l.564,2.149c-2.767.837-4.169,2.457-4.223,5.806,1.346-1.31,3.331-3.313,4.551-4.605.71-2.148,1.62-4.569,2.766-7.755Z"/><path class="cls-4" d="M654.946,41.89a14.983,14.983,0,0,1-2.6,6.28L650.56,47.5a25.592,25.592,0,0,0,2.22-6.353Z"/><path class="cls-4" d="M671.019,35.828a117.486,117.486,0,0,0-4.861,13.016l-2.13-.62c.546-1.965,1.73-4.987,2.858-7.882a32.993,32.993,0,0,1-4.714,4.606l-2.039-.838c1-3.349,1.984-6.389,2.6-9.247l2.349.455c-.474,2.021-1.146,4.314-1.966,6.808a30.166,30.166,0,0,0,5.752-7.1Z"/><path class="cls-4" d="M679.536,37.594a7.226,7.226,0,0,1-5.88,7.336c-.8-.346-1.565-.674-2.275-1.02a10.642,10.642,0,0,1-.328-2.566c0-3.769,2.422-6.809,6.189-6.809a8.172,8.172,0,0,1,1.129.091l.455,1.8.637.09A7.063,7.063,0,0,1,679.536,37.594Zm-2.02-.365a5.774,5.774,0,0,0-.019-.582c-2.676.164-4.1,2.184-4.1,5.206a8.652,8.652,0,0,0,.127,1.493C676.368,42.764,677.516,39.541,677.516,37.229Z"/><path class="cls-4" d="M690.256,36.1a45.21,45.21,0,0,0-2.658,8.883l-2.312-.364a27.463,27.463,0,0,1,.837-3.713,35.888,35.888,0,0,1-4.26,4.005l-1.4-.783.019-.019-.6-.345c.838-2.968,1.748-5.753,2.513-8.884l2.311.51c-.564,2.33-1.274,4.678-1.966,6.844,1.675-1.511,3.186-3.094,4.479-4.514q.436-1.12.873-2.184Z"/><path class="cls-4" d="M709.148,36.319A35.678,35.678,0,0,0,706.2,45.2l-2.183-.383a39.672,39.672,0,0,1,1.82-6.626,49.1,49.1,0,0,0-4.515,4.133c-.128.746-.273,1.419-.437,2.147l-2.238-.4c.546-2.148,1.128-4.114,1.911-6.317-1.584,1.329-3.076,2.6-4.351,3.878-.255,1.037-.528,1.929-.838,2.985l-2.166-.564c.8-2.622,1.566-5.225,2.458-8.938l2.33.437a27.622,27.622,0,0,1-.928,3.44c1.346-1.365,2.93-2.676,4.55-4.078l2.021,1.184c-.51,1.311-.929,2.384-1.365,3.458,1.365-1.419,2.985-2.821,4.788-4.423Z"/><path class="cls-4" d="M719.231,36.1a45.27,45.27,0,0,0-2.659,8.883l-2.311-.364a27.312,27.312,0,0,1,.837-3.713,35.966,35.966,0,0,1-4.26,4.005l-1.4-.783.018-.019-.6-.345c.837-2.968,1.748-5.753,2.512-8.884l2.312.51c-.565,2.33-1.275,4.678-1.966,6.844,1.675-1.511,3.186-3.094,4.479-4.514q.436-1.12.873-2.184Z"/><path class="cls-4" d="M723.633,36.9a2.748,2.748,0,0,0-.91.127,3.021,3.021,0,0,0,.983,1.857c1,1.238,1.947,2.13,1.947,3.222,0,1.438-2.166,2.767-4.041,2.767a4.691,4.691,0,0,1-3.021-1.02l.637-1.965a7.179,7.179,0,0,0,4.241,1.165c-.127-.747-.983-1.53-1.583-2.276-1.02-1.274-1.384-1.93-1.384-2.712,0-1.384,1.93-3.113,3.841-3.113a6.409,6.409,0,0,1,2.822.637l-.619,2.221A5.931,5.931,0,0,0,723.633,36.9Z"/><path class="cls-4" d="M734.171,36.665c-.71.055-1.42.091-2.13.091a72.884,72.884,0,0,0-2.385,7.682l-2.111-.455c.364-1.529.946-4.114,1.966-7.281-.746-.055-1.384-.11-1.784-.165l.273-1.4c.582.036,1.274.073,2,.091.438-1.256.947-2.585,1.512-3.968l2.457.746c-.491,1.092-.929,2.166-1.347,3.24.582-.036,1.183-.073,1.911-.146Z"/><path class="cls-4" d="M581.457,57.377a73.259,73.259,0,0,0-2.912,8.92l-2.167-.474a58.026,58.026,0,0,1,2.713-9.065ZM582,55.684l-2.185-.637a37.915,37.915,0,0,1,1.73-4.278l2.239.673C583.368,52.3,582.8,53.59,582,55.684Z"/><path class="cls-4" d="M591.741,58.16a29.975,29.975,0,0,0-2.949,8.665l-2.258-.383a40.637,40.637,0,0,1,1.93-6.68,49.39,49.39,0,0,0-4.387,3.8c-.236.947-.473,1.784-.691,2.585l-2.185-.546c.673-2.4,1.529-4.933,2.366-8.647l2.331.474a28.67,28.67,0,0,1-1,3.567,49.208,49.208,0,0,1,4.751-4.023Z"/><path class="cls-4" d="M594.178,64.167a6.5,6.5,0,0,0,.037.91,12.831,12.831,0,0,0,3.986-1.383l-.2,1.565a6.481,6.481,0,0,1-3.677,1.42c-1.347,0-2.567-.8-2.567-2.876,0-3.495,2.676-6.991,6.189-6.991a3.044,3.044,0,0,1,1.985.638l-.491,1.82A3.467,3.467,0,0,0,598,58.924C595.489,58.924,594.178,61.928,594.178,64.167Z"/><path class="cls-4" d="M606.154,52.808a89,89,0,0,0-4.769,13.47l-2.13-.455a85.85,85.85,0,0,1,4.46-13.944Z"/><path class="cls-4" d="M614.363,57.941a45.27,45.27,0,0,0-2.658,8.884l-2.311-.365a27.312,27.312,0,0,1,.837-3.713,35.966,35.966,0,0,1-4.26,4l-1.4-.783.019-.018-.6-.346c.838-2.967,1.748-5.753,2.513-8.883l2.312.509c-.565,2.33-1.275,4.679-1.966,6.845,1.675-1.511,3.185-3.095,4.478-4.515q.437-1.119.873-2.184Z"/><path class="cls-4" d="M626.575,52.607c-1.237,3.241-3.931,9.594-4.532,14.108l-2.222-.455a36.933,36.933,0,0,1,.838-3.932,35.174,35.174,0,0,1-3.968,4.114c-.4-.255-1.2-.564-1.948-.947a11.511,11.511,0,0,1-.128-1.656,7.429,7.429,0,0,1,5.953-7.536l.565,2.148c-2.768.837-4.169,2.457-4.224,5.807,1.347-1.311,3.331-3.313,4.551-4.606.71-2.148,1.62-4.569,2.767-7.755Z"/><path class="cls-4" d="M627.174,63.038a7.775,7.775,0,0,0-.036,1.821,9.018,9.018,0,0,0,4.041-1.22l-.2,1.584a6.184,6.184,0,0,1-3.514,1.274c-1.784,0-2.785-1.038-2.657-3.131a7.319,7.319,0,0,1,5.206-6.808l3,.892a5.659,5.659,0,0,1,.255,1.62c0,1.947-1.474,3.495-4.151,3.495a13.077,13.077,0,0,1-1.838-.164A4.6,4.6,0,0,0,627.174,63.038Zm.564-1.893a4.9,4.9,0,0,0,.928.091,2.292,2.292,0,0,0,2.4-2.312,3.272,3.272,0,0,0-.145-.91A6.8,6.8,0,0,0,627.738,61.145Z"/><path class="cls-4" d="M646.03,59.434c0,3.058-1.274,7.809-6.207,7.373l-.128-2.04c3.441.165,3.969-3.112,4.024-5.825-1.639,1.766-3.24,3.477-4.66,5.079-.529,2-1.111,4.278-1.821,6.626L635,70.156c1.129-3.714,2.895-10.14,3.605-13.362l2.4.437a23.051,23.051,0,0,1-1.11,3.841,39.211,39.211,0,0,1,4.169-4.442l1.838,1A11.015,11.015,0,0,1,646.03,59.434Z"/><path class="cls-4" d="M655.422,60.58a33.055,33.055,0,0,0-2.185,6.245l-2.075-.455a20.536,20.536,0,0,1,.873-3.15,28.384,28.384,0,0,1-3.55,3.332c-.418-.255-.855-.455-1.6-.838a8.781,8.781,0,0,1-.146-1.839c0-3,2.2-6.716,7.319-7.609l.509,2.13c-4,.728-5.552,3.349-5.607,6.026,1.42-1.293,3.5-3.386,4.788-4.733Z"/><path class="cls-4" d="M665.067,57.486a27.681,27.681,0,0,0-1.893,5.716l-2.093-.382a27.47,27.47,0,0,1,.819-2.913c-1.147,1.4-2.348,3.1-3.422,4.588-.164.582-.365,1.183-.546,1.783l-2.185-.546c.674-2.4,1.566-5.115,2.366-8.81l2.33.51a23.2,23.2,0,0,1-1.074,3.822,42.546,42.546,0,0,1,3.951-4.915Z"/><path class="cls-4" d="M667.25,63.038a7.775,7.775,0,0,0-.036,1.821,9.015,9.015,0,0,0,4.041-1.22l-.2,1.584a6.181,6.181,0,0,1-3.514,1.274c-1.784,0-2.785-1.038-2.657-3.131a7.319,7.319,0,0,1,5.206-6.808l3,.892a5.659,5.659,0,0,1,.255,1.62c0,1.947-1.474,3.495-4.151,3.495a13.09,13.09,0,0,1-1.838-.164A4.754,4.754,0,0,0,667.25,63.038Zm.565-1.893a4.883,4.883,0,0,0,.927.091,2.293,2.293,0,0,0,2.4-2.312,3.274,3.274,0,0,0-.146-.91A6.8,6.8,0,0,0,667.815,61.145Z"/><path class="cls-4" d="M683.8,58.16a29.975,29.975,0,0,0-2.949,8.665l-2.258-.383a40.637,40.637,0,0,1,1.93-6.68,49.248,49.248,0,0,0-4.387,3.8c-.236.947-.474,1.784-.691,2.585l-2.185-.546c.673-2.4,1.528-4.933,2.366-8.647l2.33.474a28.5,28.5,0,0,1-1,3.567,49.33,49.33,0,0,1,4.751-4.023Z"/><path class="cls-4" d="M690.91,58.505c-.71.055-1.42.092-2.13.092a72.548,72.548,0,0,0-2.384,7.681l-2.112-.455c.365-1.529.947-4.114,1.966-7.281-.746-.055-1.384-.109-1.784-.164l.273-1.4c.582.037,1.275.073,2,.091.438-1.256.948-2.585,1.512-3.968l2.457.746c-.491,1.092-.929,2.167-1.347,3.24.582-.036,1.183-.072,1.911-.145Z"/><path class="cls-4" d="M700.393,58.16a36.981,36.981,0,0,0-3.131,9.01l-2.166-.509a40.234,40.234,0,0,1,1.966-6.772,53.8,53.8,0,0,0-4.479,4.26c-.236.855-.455,1.583-.619,2.129l-2.185-.546c.674-2.4,3.1-9.7,4.315-13.853l2.312.8c-.528,2.021-1.674,5.279-2.894,8.592A44.541,44.541,0,0,1,698.317,57Z"/><path class="cls-4" d="M702.812,63.038a7.736,7.736,0,0,0-.037,1.821,9.012,9.012,0,0,0,4.041-1.22l-.2,1.584A6.179,6.179,0,0,1,703.1,66.5c-1.785,0-2.786-1.038-2.658-3.131a7.321,7.321,0,0,1,5.206-6.808l3,.892a5.659,5.659,0,0,1,.255,1.62c0,1.947-1.473,3.495-4.15,3.495a13.077,13.077,0,0,1-1.838-.164A4.455,4.455,0,0,0,702.812,63.038Zm.564-1.893a4.892,4.892,0,0,0,.928.091,2.292,2.292,0,0,0,2.4-2.312,3.309,3.309,0,0,0-.145-.91A6.8,6.8,0,0,0,703.376,61.145Z"/><path class="cls-4" d="M713.3,58.742a2.747,2.747,0,0,0-.91.128,3.019,3.019,0,0,0,.983,1.856c1,1.238,1.948,2.13,1.948,3.222,0,1.439-2.167,2.767-4.042,2.767a4.7,4.7,0,0,1-3.021-1.019l.637-1.966a7.164,7.164,0,0,0,4.241,1.165c-.127-.746-.982-1.529-1.583-2.275-1.02-1.275-1.384-1.93-1.384-2.713,0-1.383,1.93-3.113,3.841-3.113a6.394,6.394,0,0,1,2.822.638l-.619,2.22A5.931,5.931,0,0,0,713.3,58.742Z"/><path class="cls-4" d="M719.137,63.038a7.718,7.718,0,0,0-.036,1.821,9.018,9.018,0,0,0,4.041-1.22l-.2,1.584a6.179,6.179,0,0,1-3.513,1.274c-1.784,0-2.785-1.038-2.657-3.131a7.319,7.319,0,0,1,5.206-6.808l3,.892a5.657,5.657,0,0,1,.254,1.62c0,1.947-1.473,3.495-4.15,3.495a13.077,13.077,0,0,1-1.838-.164A4.455,4.455,0,0,0,719.137,63.038Zm.564-1.893a4.9,4.9,0,0,0,.928.091,2.292,2.292,0,0,0,2.4-2.312,3.272,3.272,0,0,0-.145-.91A6.8,6.8,0,0,0,719.7,61.145Z"/><path class="cls-4" d="M729.62,58.742a2.747,2.747,0,0,0-.91.128,3.019,3.019,0,0,0,.983,1.856c1,1.238,1.948,2.13,1.948,3.222,0,1.439-2.166,2.767-4.041,2.767a4.7,4.7,0,0,1-3.022-1.019l.637-1.966a7.166,7.166,0,0,0,4.241,1.165c-.127-.746-.982-1.529-1.583-2.275-1.019-1.275-1.384-1.93-1.384-2.713,0-1.383,1.93-3.113,3.841-3.113a6.394,6.394,0,0,1,2.822.638l-.619,2.22A5.931,5.931,0,0,0,729.62,58.742Z"/><path class="cls-4" d="M600.239,80.345c-.71.055-1.42.091-2.13.091a72.633,72.633,0,0,0-2.384,7.682l-2.112-.455c.365-1.529.947-4.114,1.966-7.281-.746-.055-1.384-.11-1.784-.164l.273-1.4c.582.036,1.275.073,2,.091.438-1.256.948-2.585,1.512-3.968l2.457.746c-.491,1.092-.929,2.166-1.347,3.24.582-.036,1.183-.073,1.912-.145Z"/><path class="cls-4" d="M608.066,81.274a7.226,7.226,0,0,1-5.88,7.336c-.8-.346-1.566-.674-2.276-1.02a10.636,10.636,0,0,1-.328-2.566c0-3.769,2.422-6.809,6.19-6.809a8.01,8.01,0,0,1,1.128.092l.456,1.8.636.091A7.051,7.051,0,0,1,608.066,81.274Zm-2.021-.364a5.784,5.784,0,0,0-.019-.583c-2.675.164-4.095,2.185-4.095,5.207a8.551,8.551,0,0,0,.127,1.492C604.9,86.444,606.045,83.222,606.045,80.91Z"/><path class="cls-4" d="M614.233,86.007a6.331,6.331,0,0,0,.038.91,12.84,12.84,0,0,0,3.986-1.383l-.2,1.565a6.481,6.481,0,0,1-3.677,1.42c-1.348,0-2.567-.8-2.567-2.877,0-3.495,2.675-6.99,6.189-6.99a3.044,3.044,0,0,1,1.984.637L619.5,81.11a3.444,3.444,0,0,0-1.438-.346C615.545,80.764,614.233,83.767,614.233,86.007Z"/><path class="cls-4" d="M628.213,82.42a33.07,33.07,0,0,0-2.185,6.244l-2.075-.455a20.561,20.561,0,0,1,.873-3.149,28.292,28.292,0,0,1-3.55,3.331c-.418-.254-.855-.455-1.6-.837a8.781,8.781,0,0,1-.146-1.839c0-3,2.2-6.717,7.319-7.609l.509,2.13c-4,.728-5.552,3.349-5.607,6.026,1.42-1.293,3.5-3.387,4.788-4.733Z"/><path class="cls-4" d="M635.474,74.647a89.019,89.019,0,0,0-4.77,13.471l-2.13-.455a85.85,85.85,0,0,1,4.46-13.944Z"/><path class="cls-4" d="M640.26,74.647a89.019,89.019,0,0,0-4.77,13.471l-2.13-.455a85.953,85.953,0,0,1,4.46-13.944Z"/><path class="cls-4" d="M650.144,82.42a33,33,0,0,0-2.185,6.244l-2.075-.455a20.561,20.561,0,0,1,.873-3.149,28.292,28.292,0,0,1-3.55,3.331c-.418-.254-.855-.455-1.6-.837a8.781,8.781,0,0,1-.146-1.839c0-3,2.2-6.717,7.317-7.609l.51,2.13c-4,.728-5.552,3.349-5.606,6.026,1.42-1.293,3.5-3.387,4.788-4.733Z"/><path class="cls-4" d="M663.884,73.756l-.51,1.911a3.234,3.234,0,0,0-1.456-.328c-1.165,0-1.93.874-2.549,2.968-.054.218-.127.418-.181.637.783-.019,1.546-.073,2.53-.164l-.364,1.565c-.837.073-1.693.091-2.512.091h-.109c-1.239,4.078-2.549,8.283-3.369,11.924l-2.111-.437c.783-3.641,1.856-7.664,2.931-11.578-.528-.036-.965-.091-1.275-.127l.274-1.4c.419.018.91.055,1.42.073.09-.382.2-.747.309-1.129.637-2.275,2-4.569,4.77-4.569A4.087,4.087,0,0,1,663.884,73.756Z"/><path class="cls-4" d="M670.618,79.781a45.279,45.279,0,0,0-2.658,8.883l-2.311-.364a27.461,27.461,0,0,1,.836-3.713,35.878,35.878,0,0,1-4.259,4l-1.4-.783.018-.019-.6-.345c.838-2.968,1.748-5.753,2.513-8.884l2.312.51c-.565,2.33-1.275,4.678-1.966,6.844,1.674-1.51,3.185-3.094,4.478-4.514q.437-1.119.873-2.184Z"/><path class="cls-4" d="M681.083,80a30,30,0,0,0-2.949,8.665l-2.258-.382a40.649,40.649,0,0,1,1.93-6.681,49.258,49.258,0,0,0-4.387,3.805c-.236.946-.474,1.784-.691,2.585l-2.185-.546c.673-2.4,1.528-4.933,2.366-8.647l2.33.473a28.512,28.512,0,0,1-1,3.568,49.187,49.187,0,0,1,4.751-4.023Z"/><path class="cls-4" d="M683.52,86.007a6.5,6.5,0,0,0,.037.91,12.831,12.831,0,0,0,3.986-1.383l-.2,1.565a6.481,6.481,0,0,1-3.677,1.42c-1.348,0-2.567-.8-2.567-2.877,0-3.495,2.675-6.99,6.189-6.99a3.049,3.049,0,0,1,1.985.637l-.492,1.821a3.444,3.444,0,0,0-1.438-.346C684.831,80.764,683.52,83.767,683.52,86.007Z"/><path class="cls-4" d="M695.951,80.345c-.71.055-1.42.091-2.13.091a72.633,72.633,0,0,0-2.384,7.682l-2.112-.455c.365-1.529.947-4.114,1.966-7.281-.746-.055-1.384-.11-1.784-.164l.273-1.4c.582.036,1.275.073,2,.091.438-1.256.948-2.585,1.512-3.968l2.457.746c-.491,1.092-.929,2.166-1.347,3.24.582-.036,1.183-.073,1.912-.145Z"/><path class="cls-4" d="M700.009,79.217a73.259,73.259,0,0,0-2.912,8.92l-2.167-.474a57.918,57.918,0,0,1,2.713-9.065Zm.546-1.693-2.185-.637a37.724,37.724,0,0,1,1.73-4.278l2.239.673C701.92,74.138,701.356,75.43,700.555,77.524Z"/><path class="cls-4" d="M708.71,81.274a7.226,7.226,0,0,1-5.88,7.336c-.8-.346-1.565-.674-2.275-1.02a10.636,10.636,0,0,1-.328-2.566c0-3.769,2.422-6.809,6.189-6.809a8.036,8.036,0,0,1,1.129.092l.455,1.8.637.091A7.18,7.18,0,0,1,708.71,81.274Zm-2.02-.364a5.784,5.784,0,0,0-.019-.583c-2.676.164-4.1,2.185-4.1,5.207a8.551,8.551,0,0,0,.127,1.492C705.542,86.444,706.69,83.222,706.69,80.91Z"/><path class="cls-4" d="M719.63,80a29.966,29.966,0,0,0-2.949,8.665l-2.258-.382a40.649,40.649,0,0,1,1.93-6.681,49.258,49.258,0,0,0-4.387,3.805c-.236.946-.474,1.784-.692,2.585l-2.184-.546c.673-2.4,1.528-4.933,2.366-8.647l2.33.473a28.512,28.512,0,0,1-1,3.568,49.187,49.187,0,0,1,4.751-4.023Z"/><path class="cls-4" d="M446.327,36.835l-.51,1.911a3.233,3.233,0,0,0-1.456-.327c-1.165,0-1.929.874-2.548,2.967-.055.218-.127.419-.182.637.783-.018,1.547-.072,2.53-.164l-.364,1.566c-.837.073-1.692.091-2.512.091h-.109c-1.238,4.078-2.549,8.283-3.368,11.923L435.7,55c.784-3.64,1.857-7.663,2.931-11.577-.527-.036-.965-.091-1.274-.128l.273-1.4c.419.018.91.055,1.42.073.091-.383.2-.747.31-1.129.636-2.276,2-4.569,4.769-4.569A4.094,4.094,0,0,1,446.327,36.835Z"/><path class="cls-4" d="M453.062,42.861a45.27,45.27,0,0,0-2.659,8.883l-2.311-.364a27.512,27.512,0,0,1,.837-3.714,35.8,35.8,0,0,1-4.26,4.005l-1.4-.782.017-.019-.6-.346c.838-2.967,1.748-5.752,2.512-8.883l2.312.51c-.565,2.33-1.275,4.678-1.966,6.844,1.675-1.511,3.186-3.094,4.479-4.514q.436-1.12.873-2.185Z"/><path class="cls-4" d="M463.526,43.079a29.985,29.985,0,0,0-2.949,8.665l-2.258-.382a40.747,40.747,0,0,1,1.93-6.681,49.541,49.541,0,0,0-4.387,3.805c-.236.946-.473,1.783-.691,2.584l-2.185-.546c.673-2.4,1.529-4.933,2.367-8.647l2.33.474a28.732,28.732,0,0,1-1,3.568,49.045,49.045,0,0,1,4.751-4.023Z"/><path class="cls-4" d="M465.963,49.086A6.494,6.494,0,0,0,466,50a12.805,12.805,0,0,0,3.986-1.383l-.2,1.566a6.485,6.485,0,0,1-3.677,1.42c-1.347,0-2.567-.8-2.567-2.877,0-3.5,2.676-6.99,6.19-6.99a3.041,3.041,0,0,1,1.984.637l-.491,1.82a3.465,3.465,0,0,0-1.439-.345C467.274,43.844,465.963,46.847,465.963,49.086Z"/><path class="cls-4" d="M478.4,43.425c-.71.054-1.42.091-2.13.091A72.884,72.884,0,0,0,473.88,51.2l-2.111-.455c.364-1.529.946-4.114,1.965-7.282-.746-.054-1.383-.109-1.784-.164l.274-1.4c.582.036,1.274.073,2,.091.437-1.256.947-2.585,1.511-3.969l2.457.747c-.491,1.092-.928,2.166-1.346,3.24.582-.036,1.182-.073,1.911-.146Z"/><path class="cls-4" d="M482.453,42.3a73.315,73.315,0,0,0-2.912,8.92l-2.167-.473a58.035,58.035,0,0,1,2.713-9.066ZM483,40.6l-2.184-.637a37.917,37.917,0,0,1,1.729-4.278l2.239.674C484.364,37.217,483.8,38.51,483,40.6Z"/><path class="cls-4" d="M491.153,44.353a7.225,7.225,0,0,1-5.879,7.336c-.8-.345-1.566-.673-2.276-1.019a10.65,10.65,0,0,1-.328-2.567c0-3.768,2.422-6.808,6.189-6.808a8.008,8.008,0,0,1,1.129.091l.455,1.8.637.091A7.05,7.05,0,0,1,491.153,44.353Zm-2.02-.364a5.774,5.774,0,0,0-.019-.582c-2.675.164-4.095,2.184-4.095,5.206a8.562,8.562,0,0,0,.127,1.493C487.985,49.523,489.133,46.3,489.133,43.989Z"/><path class="cls-4" d="M502.073,43.079a29.985,29.985,0,0,0-2.949,8.665l-2.258-.382a40.649,40.649,0,0,1,1.93-6.681,49.4,49.4,0,0,0-4.387,3.805c-.236.946-.473,1.783-.691,2.584l-2.185-.546c.673-2.4,1.529-4.933,2.366-8.647l2.331.474a28.732,28.732,0,0,1-1,3.568A48.925,48.925,0,0,1,499.98,41.9Z"/><path class="cls-4" d="M436.907,64.136A73.315,73.315,0,0,0,434,73.056l-2.167-.474a58.166,58.166,0,0,1,2.713-9.065Zm.546-1.693-2.184-.637A37.759,37.759,0,0,1,437,57.528l2.239.674C438.818,59.057,438.254,60.349,437.453,62.443Z"/><path class="cls-4" d="M448.939,59.367c-1.238,3.24-3.932,9.593-4.533,14.107l-2.221-.455a36.5,36.5,0,0,1,.838-3.932,35.192,35.192,0,0,1-3.969,4.115c-.4-.255-1.2-.565-1.947-.947a11.38,11.38,0,0,1-.128-1.656,7.429,7.429,0,0,1,5.953-7.537l.564,2.148c-2.767.837-4.169,2.458-4.223,5.807,1.346-1.311,3.331-3.313,4.55-4.6.71-2.148,1.62-4.569,2.767-7.755Z"/><path class="cls-4" d="M449.537,69.8a7.774,7.774,0,0,0-.036,1.821,9.015,9.015,0,0,0,4.041-1.22l-.2,1.584a6.181,6.181,0,0,1-3.514,1.274c-1.784,0-2.785-1.037-2.657-3.131a7.321,7.321,0,0,1,5.206-6.808l3,.892a5.659,5.659,0,0,1,.255,1.62c0,1.948-1.474,3.5-4.151,3.5a13.2,13.2,0,0,1-1.837-.163A4.574,4.574,0,0,0,449.537,69.8ZM450.1,67.9a4.883,4.883,0,0,0,.927.091,2.293,2.293,0,0,0,2.4-2.312,3.274,3.274,0,0,0-.146-.91A6.8,6.8,0,0,0,450.1,67.9Z"/><path class="cls-4" d="M466.083,64.919a29.975,29.975,0,0,0-2.949,8.665l-2.258-.382a40.649,40.649,0,0,1,1.93-6.681,49.258,49.258,0,0,0-4.387,3.8c-.236.946-.474,1.783-.691,2.584l-2.185-.546c.673-2.4,1.528-4.933,2.366-8.647l2.33.474a28.56,28.56,0,0,1-1,3.568,49.045,49.045,0,0,1,4.751-4.023Z"/><path class="cls-4" d="M473.2,65.265c-.71.054-1.42.091-2.13.091a72.691,72.691,0,0,0-2.384,7.681l-2.112-.455c.365-1.528.947-4.113,1.966-7.281-.746-.055-1.384-.109-1.784-.164l.273-1.4c.582.036,1.275.072,2,.091.438-1.256.948-2.585,1.512-3.969L473,60.6c-.491,1.093-.929,2.167-1.347,3.241.583-.037,1.183-.073,1.912-.146Z"/><path class="cls-4" d="M477.256,64.136a73.315,73.315,0,0,0-2.912,8.92l-2.167-.474a57.95,57.95,0,0,1,2.713-9.065Zm.546-1.693-2.185-.637a37.915,37.915,0,0,1,1.73-4.278l2.239.674C479.167,59.057,478.6,60.349,477.8,62.443Z"/><path class="cls-4" d="M487.3,58.675l-.51,1.911a3.233,3.233,0,0,0-1.456-.327c-1.165,0-1.93.874-2.549,2.967-.055.218-.127.418-.181.637.782-.018,1.546-.073,2.53-.164l-.364,1.566c-.837.073-1.693.091-2.512.091h-.11c-1.238,4.077-2.548,8.283-3.368,11.923l-2.111-.437c.783-3.64,1.856-7.663,2.931-11.577-.528-.037-.965-.091-1.275-.128l.274-1.4c.419.018.91.054,1.42.072.09-.382.2-.746.309-1.128.637-2.276,2-4.569,4.77-4.569A4.094,4.094,0,0,1,487.3,58.675Z"/><path class="cls-4" d="M488.794,64.136a73.315,73.315,0,0,0-2.912,8.92l-2.167-.474a58.058,58.058,0,0,1,2.713-9.065Zm.546-1.693-2.185-.637a37.915,37.915,0,0,1,1.73-4.278l2.239.674C490.705,59.057,490.141,60.349,489.34,62.443Z"/><path class="cls-4" d="M491.214,69.8a7.774,7.774,0,0,0-.036,1.821,9.018,9.018,0,0,0,4.041-1.22l-.2,1.584a6.184,6.184,0,0,1-3.514,1.274c-1.784,0-2.785-1.037-2.657-3.131a7.321,7.321,0,0,1,5.206-6.808l3,.892a5.659,5.659,0,0,1,.255,1.62c0,1.948-1.474,3.5-4.151,3.5a13.207,13.207,0,0,1-1.838-.163A4.715,4.715,0,0,0,491.214,69.8Zm.564-1.893a4.9,4.9,0,0,0,.928.091,2.292,2.292,0,0,0,2.4-2.312,3.272,3.272,0,0,0-.145-.91A6.8,6.8,0,0,0,491.778,67.9Z"/><path class="cls-4" d="M506.522,64.245a27.627,27.627,0,0,0-1.894,5.716l-2.093-.382a27.316,27.316,0,0,1,.82-2.913c-1.148,1.4-2.349,3.095-3.423,4.588-.164.582-.365,1.183-.546,1.783l-2.185-.545c.674-2.4,1.566-5.116,2.366-8.811l2.331.51a23.217,23.217,0,0,1-1.075,3.823,42.461,42.461,0,0,1,3.951-4.915Z"/><path class="cls-4" d="M592.972,290.662a2.748,2.748,0,0,0-.91.127,3.024,3.024,0,0,0,.983,1.857c1,1.238,1.947,2.13,1.947,3.222,0,1.438-2.166,2.767-4.041,2.767a4.7,4.7,0,0,1-3.021-1.02l.636-1.966a7.169,7.169,0,0,0,4.242,1.165c-.127-.746-.983-1.529-1.583-2.275-1.02-1.274-1.384-1.93-1.384-2.712,0-1.384,1.93-3.113,3.841-3.113a6.4,6.4,0,0,1,2.822.637l-.619,2.221A5.931,5.931,0,0,0,592.972,290.662Z"/><path class="cls-4" d="M605.094,291.353a7.226,7.226,0,0,1-5.88,7.336c-.8-.345-1.565-.673-2.275-1.019a10.653,10.653,0,0,1-.329-2.567c0-3.768,2.421-6.808,6.19-6.808a8.032,8.032,0,0,1,1.129.091l.455,1.8.637.091A7.18,7.18,0,0,1,605.094,291.353Zm-2.021-.364c0-.2,0-.4-.018-.582-2.676.164-4.1,2.184-4.1,5.206a8.562,8.562,0,0,0,.127,1.493C601.926,296.523,603.073,293.3,603.073,290.989Z"/><path class="cls-4" d="M621.348,290.079a35.642,35.642,0,0,0-2.949,8.883l-2.184-.382a39.672,39.672,0,0,1,1.82-6.626,49.075,49.075,0,0,0-4.514,4.132c-.128.746-.274,1.42-.438,2.148l-2.238-.4c.546-2.148,1.128-4.114,1.911-6.317-1.584,1.329-3.076,2.6-4.351,3.877-.255,1.038-.528,1.93-.838,2.986l-2.166-.564c.8-2.622,1.566-5.225,2.458-8.939l2.331.437a27.687,27.687,0,0,1-.929,3.441c1.347-1.365,2.93-2.676,4.551-4.078l2.02,1.184c-.51,1.31-.929,2.384-1.365,3.458,1.365-1.42,2.985-2.821,4.788-4.423Z"/><path class="cls-4" d="M623.766,294.957a7.661,7.661,0,0,0-.036,1.821,8.989,8.989,0,0,0,4.041-1.22l-.2,1.584a6.171,6.171,0,0,1-3.513,1.274c-1.784,0-2.785-1.037-2.658-3.131a7.323,7.323,0,0,1,5.207-6.808l3,.892a5.624,5.624,0,0,1,.255,1.62c0,1.948-1.473,3.5-4.15,3.5a13.055,13.055,0,0,1-1.838-.163A4.419,4.419,0,0,0,623.766,294.957Zm.564-1.893a4.914,4.914,0,0,0,.928.092,2.293,2.293,0,0,0,2.4-2.312,3.273,3.273,0,0,0-.145-.911A6.8,6.8,0,0,0,624.33,293.064Z"/><path class="cls-4" d="M641.785,292.5a32.975,32.975,0,0,0-2.184,6.244l-2.076-.455a20.555,20.555,0,0,1,.874-3.149,28.361,28.361,0,0,1-3.55,3.331c-.418-.255-.856-.455-1.6-.837a8.787,8.787,0,0,1-.145-1.839c0-3,2.2-6.717,7.318-7.609l.509,2.13c-4,.728-5.552,3.349-5.607,6.025,1.42-1.292,3.5-3.386,4.788-4.733Z"/><path class="cls-4" d="M651.431,289.406a27.679,27.679,0,0,0-1.894,5.715l-2.093-.382a27.472,27.472,0,0,1,.82-2.912c-1.148,1.4-2.349,3.094-3.423,4.587-.164.582-.364,1.183-.546,1.784l-2.185-.546c.674-2.4,1.566-5.115,2.367-8.811l2.33.51a23.31,23.31,0,0,1-1.074,3.823,42.251,42.251,0,0,1,3.951-4.915Z"/><path class="cls-4" d="M660.039,292.5a46.721,46.721,0,0,1-3.131,7.646,5.072,5.072,0,0,1-4.278,2.421,5.157,5.157,0,0,1-2.857-.8l.217-1.821a5.021,5.021,0,0,0,2.4.529c1.765,0,2.712-1.621,4.169-5.043a25.572,25.572,0,0,1-3.605,3.131c-.419-.255-.892-.455-1.639-.838a9.243,9.243,0,0,1-.09-2.02,7.574,7.574,0,0,1,7.445-7.445l.582,2.148c-4.368.091-5.5,3.185-5.716,5.9a38.079,38.079,0,0,0,4.824-4.7Z"/><path class="cls-4" d="M670.7,289.861a45.21,45.21,0,0,0-2.658,8.883l-2.312-.364a27.665,27.665,0,0,1,.837-3.714,35.715,35.715,0,0,1-4.259,4l-1.4-.782.018-.019-.6-.346c.838-2.967,1.748-5.752,2.513-8.883l2.311.51c-.564,2.33-1.274,4.678-1.965,6.844,1.674-1.511,3.185-3.094,4.478-4.514q.437-1.12.873-2.185Z"/><path class="cls-4" d="M686.5,290.079a35.642,35.642,0,0,0-2.949,8.883l-2.184-.382a39.673,39.673,0,0,1,1.821-6.626,48.965,48.965,0,0,0-4.515,4.132c-.128.746-.274,1.42-.438,2.148l-2.238-.4c.546-2.148,1.128-4.114,1.911-6.317-1.584,1.329-3.076,2.6-4.35,3.877-.255,1.038-.529,1.93-.838,2.986l-2.166-.564c.8-2.622,1.565-5.225,2.458-8.939l2.33.437a27.514,27.514,0,0,1-.929,3.441c1.347-1.365,2.931-2.676,4.551-4.078l2.02,1.184c-.509,1.31-.928,2.384-1.365,3.458,1.365-1.42,2.986-2.821,4.788-4.423Z"/><path class="cls-4" d="M688.92,294.957a7.774,7.774,0,0,0-.036,1.821,8.989,8.989,0,0,0,4.041-1.22l-.2,1.584a6.174,6.174,0,0,1-3.514,1.274c-1.784,0-2.785-1.037-2.657-3.131a7.321,7.321,0,0,1,5.206-6.808l3,.892a5.659,5.659,0,0,1,.255,1.62c0,1.948-1.474,3.5-4.151,3.5a13.067,13.067,0,0,1-1.838-.163A4.715,4.715,0,0,0,688.92,294.957Zm.564-1.893a4.914,4.914,0,0,0,.928.092,2.293,2.293,0,0,0,2.4-2.312,3.275,3.275,0,0,0-.146-.911A6.8,6.8,0,0,0,689.484,293.064Z"/><path class="cls-4" d="M705.466,290.079a29.955,29.955,0,0,0-2.949,8.665l-2.258-.382a40.649,40.649,0,0,1,1.93-6.681,49.258,49.258,0,0,0-4.387,3.805c-.236.946-.474,1.783-.692,2.584l-2.184-.546c.673-2.4,1.528-4.933,2.366-8.647l2.33.474a28.56,28.56,0,0,1-1,3.568,49.045,49.045,0,0,1,4.751-4.023Z"/><path class="cls-4" d="M712.581,290.425c-.71.054-1.42.091-2.13.091a72.884,72.884,0,0,0-2.385,7.682l-2.111-.455c.364-1.529.946-4.114,1.966-7.282-.746-.054-1.384-.109-1.784-.164l.273-1.4c.582.036,1.275.073,2,.091.438-1.256.947-2.585,1.512-3.969l2.457.747c-.491,1.092-.929,2.166-1.347,3.24.582-.036,1.183-.073,1.911-.146Z"/><path class="cls-4" d="M716.02,290.662a2.755,2.755,0,0,0-.911.127,3.02,3.02,0,0,0,.984,1.857c1,1.238,1.947,2.13,1.947,3.222,0,1.438-2.166,2.767-4.041,2.767a4.7,4.7,0,0,1-3.021-1.02l.636-1.966a7.169,7.169,0,0,0,4.242,1.165c-.127-.746-.983-1.529-1.583-2.275-1.02-1.274-1.384-1.93-1.384-2.712,0-1.384,1.929-3.113,3.841-3.113a6.4,6.4,0,0,1,2.822.637l-.619,2.221A5.931,5.931,0,0,0,716.02,290.662Z"/><path class="cls-4" d="M231.919,42.406a27.679,27.679,0,0,0-1.894,5.715l-2.092-.382a27.22,27.22,0,0,1,.819-2.912c-1.147,1.4-2.349,3.094-3.423,4.587-.164.582-.364,1.183-.546,1.784l-2.184-.546c.674-2.4,1.565-5.115,2.366-8.811l2.33.51a23.211,23.211,0,0,1-1.074,3.823,42.355,42.355,0,0,1,3.951-4.915Z"/><path class="cls-4" d="M234.1,47.957a7.661,7.661,0,0,0-.036,1.821,8.989,8.989,0,0,0,4.041-1.22l-.2,1.584a6.171,6.171,0,0,1-3.513,1.274c-1.785,0-2.785-1.037-2.658-3.131a7.324,7.324,0,0,1,5.206-6.808l3,.892a5.659,5.659,0,0,1,.255,1.62c0,1.948-1.473,3.5-4.15,3.5a13.055,13.055,0,0,1-1.838-.163A4.419,4.419,0,0,0,234.1,47.957Zm.564-1.893a4.906,4.906,0,0,0,.928.092,2.293,2.293,0,0,0,2.4-2.312,3.31,3.31,0,0,0-.145-.911A6.8,6.8,0,0,0,234.666,46.064Z"/><path class="cls-4" d="M247.48,43.425c-.71.054-1.42.091-2.13.091a72.884,72.884,0,0,0-2.385,7.682l-2.111-.455c.364-1.529.946-4.114,1.965-7.282-.746-.054-1.383-.109-1.784-.164l.274-1.4c.582.036,1.274.073,2,.091.437-1.256.947-2.585,1.511-3.969l2.457.747c-.491,1.092-.928,2.166-1.346,3.24.582-.036,1.182-.073,1.911-.146Z"/><path class="cls-4" d="M256.78,42.861a45.279,45.279,0,0,0-2.658,8.883l-2.311-.364a27.36,27.36,0,0,1,.837-3.714,35.8,35.8,0,0,1-4.26,4.005l-1.4-.782L247,50.87l-.6-.346c.838-2.967,1.748-5.752,2.513-8.883l2.312.51c-.565,2.33-1.275,4.678-1.966,6.844,1.675-1.511,3.185-3.094,4.478-4.514q.436-1.12.873-2.185Z"/><path class="cls-4" d="M266.007,42.406a27.679,27.679,0,0,0-1.894,5.715l-2.092-.382a27.22,27.22,0,0,1,.819-2.912c-1.148,1.4-2.349,3.094-3.423,4.587-.164.582-.364,1.183-.546,1.784l-2.184-.546c.673-2.4,1.565-5.115,2.366-8.811l2.33.51a23.211,23.211,0,0,1-1.074,3.823,42.355,42.355,0,0,1,3.951-4.915Z"/><path class="cls-4" d="M276.054,43.079a29.955,29.955,0,0,0-2.949,8.665l-2.258-.382a40.745,40.745,0,0,1,1.929-6.681,49.385,49.385,0,0,0-4.386,3.805c-.237.946-.474,1.783-.692,2.584l-2.184-.546c.673-2.4,1.528-4.933,2.366-8.647l2.33.474a28.56,28.56,0,0,1-1,3.568A49.045,49.045,0,0,1,273.96,41.9Z"/><path class="cls-4" d="M200.7,64.555l-5.916,8.974-1.347-.492-1.311-.455c.328-3.021.638-6.061.819-8.9l2.567.291c-.2,2.112-.582,4.624-.892,6.809l4.332-7.191Z"/><path class="cls-4" d="M208.578,67.34a32.95,32.95,0,0,0-2.184,6.244l-2.076-.455a20.653,20.653,0,0,1,.873-3.15,28.234,28.234,0,0,1-3.549,3.332c-.418-.255-.856-.455-1.6-.837a8.787,8.787,0,0,1-.145-1.839c0-3,2.2-6.717,7.318-7.609l.509,2.13c-4,.728-5.552,3.349-5.607,6.025,1.42-1.292,3.5-3.386,4.788-4.733Z"/><path class="cls-4" d="M215.839,59.567a89.225,89.225,0,0,0-4.77,13.47l-2.129-.455A85.817,85.817,0,0,1,213.4,58.639Z"/><path class="cls-4" d="M224.048,64.7a45.188,45.188,0,0,0-2.658,8.883l-2.312-.364a27.477,27.477,0,0,1,.837-3.714,35.888,35.888,0,0,1-4.26,4l-1.4-.783.018-.018-.6-.346c.838-2.967,1.748-5.752,2.513-8.883l2.311.51c-.564,2.33-1.274,4.678-1.966,6.844,1.675-1.511,3.186-3.094,4.479-4.514q.436-1.12.873-2.185Z"/><path class="cls-4" d="M226.649,69.8a7.736,7.736,0,0,0-.037,1.821,9.012,9.012,0,0,0,4.041-1.22l-.2,1.584a6.179,6.179,0,0,1-3.513,1.274c-1.785,0-2.786-1.037-2.658-3.131a7.322,7.322,0,0,1,5.206-6.808l3,.892a5.659,5.659,0,0,1,.255,1.62c0,1.948-1.473,3.5-4.15,3.5a13.207,13.207,0,0,1-1.838-.163A4.419,4.419,0,0,0,226.649,69.8Zm.564-1.893a4.892,4.892,0,0,0,.928.091,2.292,2.292,0,0,0,2.4-2.312,3.309,3.309,0,0,0-.145-.91A6.8,6.8,0,0,0,227.213,67.9Z"/><path class="cls-4" d="M240.845,64.136a73.142,73.142,0,0,0-2.912,8.92l-2.167-.474a57.95,57.95,0,0,1,2.713-9.065Zm.546-1.693-2.185-.637a37.724,37.724,0,0,1,1.73-4.278l2.239.674C242.756,59.057,242.191,60.349,241.391,62.443Z"/><path class="cls-4" d="M252.876,59.367c-1.237,3.24-3.932,9.593-4.532,14.107l-2.222-.455a36.739,36.739,0,0,1,.838-3.932,35.192,35.192,0,0,1-3.969,4.115c-.4-.255-1.2-.565-1.947-.947a11.522,11.522,0,0,1-.128-1.656,7.429,7.429,0,0,1,5.953-7.537l.565,2.148c-2.768.837-4.169,2.458-4.224,5.807,1.347-1.311,3.331-3.313,4.551-4.6.71-2.148,1.62-4.569,2.766-7.755Z"/><path class="cls-4" d="M253.475,69.8a7.661,7.661,0,0,0-.036,1.821,9.018,9.018,0,0,0,4.041-1.22l-.2,1.584a6.179,6.179,0,0,1-3.513,1.274c-1.784,0-2.785-1.037-2.658-3.131a7.323,7.323,0,0,1,5.207-6.808l3,.892a5.624,5.624,0,0,1,.255,1.62c0,1.948-1.473,3.5-4.15,3.5a13.207,13.207,0,0,1-1.838-.163A4.419,4.419,0,0,0,253.475,69.8Zm.564-1.893a4.9,4.9,0,0,0,.928.091,2.292,2.292,0,0,0,2.4-2.312,3.272,3.272,0,0,0-.145-.91A6.8,6.8,0,0,0,254.039,67.9Z"/><path class="cls-4" d="M270.021,64.919a29.945,29.945,0,0,0-2.95,8.665l-2.257-.382a40.647,40.647,0,0,1,1.929-6.681,49.385,49.385,0,0,0-4.386,3.8c-.237.946-.474,1.783-.692,2.584l-2.184-.546c.672-2.4,1.528-4.933,2.366-8.647l2.33.474a28.732,28.732,0,0,1-1,3.568,49.045,49.045,0,0,1,4.751-4.023Z"/><path class="cls-4" d="M277.135,65.265c-.71.054-1.42.091-2.13.091a72.943,72.943,0,0,0-2.385,7.681l-2.111-.455c.364-1.528.946-4.113,1.966-7.281-.746-.055-1.384-.109-1.784-.164l.273-1.4c.582.036,1.274.072,2,.091.437-1.256.947-2.585,1.512-3.969l2.457.746c-.492,1.093-.929,2.167-1.347,3.241.582-.037,1.183-.073,1.911-.146Z"/><path class="cls-4" d="M281.193,64.136a73.315,73.315,0,0,0-2.912,8.92l-2.167-.474a58.166,58.166,0,0,1,2.713-9.065Zm.546-1.693-2.184-.637a37.759,37.759,0,0,1,1.729-4.278l2.24.674C283.105,59.057,282.54,60.349,281.739,62.443Z"/><path class="cls-4" d="M291.24,58.675l-.509,1.911a3.24,3.24,0,0,0-1.457-.327c-1.165,0-1.929.874-2.548,2.967-.055.218-.127.418-.182.637.782-.018,1.547-.073,2.53-.164l-.364,1.566c-.837.073-1.692.091-2.512.091h-.109c-1.238,4.077-2.549,8.283-3.368,11.923l-2.112-.437c.784-3.64,1.857-7.663,2.931-11.577-.527-.037-.965-.091-1.274-.128l.273-1.4c.419.018.91.054,1.42.072.091-.382.2-.746.31-1.128.636-2.276,2-4.569,4.769-4.569A4.092,4.092,0,0,1,291.24,58.675Z"/><path class="cls-4" d="M292.732,64.136a73.156,73.156,0,0,0-2.913,8.92l-2.167-.474a58.166,58.166,0,0,1,2.713-9.065Zm.545-1.693-2.184-.637a37.759,37.759,0,0,1,1.729-4.278l2.24.674C294.643,59.057,294.078,60.349,293.277,62.443Z"/><path class="cls-4" d="M295.151,69.8a7.774,7.774,0,0,0-.036,1.821,9.012,9.012,0,0,0,4.041-1.22l-.2,1.584a6.179,6.179,0,0,1-3.514,1.274c-1.784,0-2.785-1.037-2.657-3.131a7.322,7.322,0,0,1,5.206-6.808l3,.892a5.659,5.659,0,0,1,.255,1.62c0,1.948-1.474,3.5-4.15,3.5a13.2,13.2,0,0,1-1.838-.163A4.574,4.574,0,0,0,295.151,69.8Zm.565-1.893a4.892,4.892,0,0,0,.928.091,2.292,2.292,0,0,0,2.4-2.312,3.274,3.274,0,0,0-.146-.91A6.8,6.8,0,0,0,295.716,67.9Z"/><path class="cls-4" d="M310.459,64.245a27.622,27.622,0,0,0-1.893,5.716l-2.093-.382a27.3,27.3,0,0,1,.819-2.913c-1.147,1.4-2.349,3.095-3.423,4.588-.164.582-.364,1.183-.546,1.783l-2.184-.545c.674-2.4,1.565-5.116,2.366-8.811l2.33.51a23.211,23.211,0,0,1-1.074,3.823,42.452,42.452,0,0,1,3.95-4.915Z"/></g></svg>