<svg xmlns="http://www.w3.org/2000/svg" viewBox="0 0 296 296"><defs><style>.cls-1{fill:#f36;}.cls-2{fill:#ffeded;}.cls-3{fill:#1858a8;}</style></defs><title>manuale_ill_nuove</title><g id="solo_testo" data-name="solo testo"><path class="cls-1" d="M223.036,22.328a9.724,9.724,0,0,0,3.668,4.084,15.26,15.26,0,0,0,4.947,2.778,1.358,1.358,0,0,1,.833.632c.371.932,1.146,1.209,1.98,1.564a51.743,51.743,0,0,1,4.921,2.383,5.833,5.833,0,0,1,2.131,1.826,4.936,4.936,0,0,0,3.194,2.1,1.879,1.879,0,0,1,1.64,1.725,5.135,5.135,0,0,0,.207.726c.509.138.6-.09.7-.4.491-1.544,1.876-2.076,3.177-2.67a.88.88,0,0,1,.818.158c.665.9,1.9.953,2.595,1.856a9.924,9.924,0,0,1,1.541,2.856,42.08,42.08,0,0,0,1.884,4.325,1.865,1.865,0,0,0,.914.845,12.18,12.18,0,0,1,3.62,1.979,1.487,1.487,0,0,0,.557.341c2.048.528,3.543,1.948,5.163,3.16a2.721,2.721,0,0,0,1.64.509,4.515,4.515,0,0,1,3.623,1.762,3.013,3.013,0,0,0,.3.32c1.5,1.43,1.473,1.667-.3,2.875-.842.572-1.688,1.138-2.641,1.78a7.5,7.5,0,0,0,.639,1.123,4.691,4.691,0,0,1,.843,2.175c.153.715,1.051,1.118,1.241,1.984.225,1.032.3,2.191,1.381,2.85a.94.94,0,0,1,.309.568c.617,2.774,2.274,4.97,4,7.12a7.435,7.435,0,0,1,1.241,2.532,24.921,24.921,0,0,0,3.307,6.832,5.889,5.889,0,0,1,.412.979c.2.453.429.9.625,1.35a9.914,9.914,0,0,1,.453,1.191,37.174,37.174,0,0,1,1.487,4.482A1.846,1.846,0,0,0,286.9,94a27.264,27.264,0,0,0,2.781,1.744c.647.345,1.113.719,1.006,1.5a1.67,1.67,0,0,0,1.047,1.745c.251.147.549.214.8.356a2.991,2.991,0,0,1,1.48,3.707,5.239,5.239,0,0,1-.92,1.707c-.978,1.166-1.4,2.341-.6,3.785a2.4,2.4,0,0,1-.078,2.692,1.516,1.516,0,0,0-.208,1.647,6.776,6.776,0,0,1,.373,2.992c.065,1.01.153,2.019.195,3.029.02.5-.043,1-.063,1.506-.012.287-.14.686,0,.844,1.012,1.135.255,2.741,1.1,3.912a.753.753,0,0,1,.081.629c-.494,1.136,0,2.485-.841,3.569a1.631,1.631,0,0,0-.023,1.233c.363,1.254.82,2.482,1.213,3.729.456,1.447.968,2.885,1.3,4.361a8.367,8.367,0,0,1-.456,4.932c-.345.879-.831,1.7-.4,2.683-.389,1.623.411,3.326-.365,4.945a1.725,1.725,0,0,0,.207,1.228c.244.522.667.961.928,1.478.187.37.431.881.312,1.206-.624,1.695-.07,3.3.222,4.932a2.47,2.47,0,0,1-.009.365,3.877,3.877,0,0,0-1.511,2.894,2.565,2.565,0,0,1-1.018,2.257c-.322.213-.412.918-.431,1.406a4.615,4.615,0,0,1-.7,2.481,4.868,4.868,0,0,0-.53,4.2,4.747,4.747,0,0,1,.153,2.781,3.428,3.428,0,0,0,.025,1.51,3.8,3.8,0,0,1-.412,2.32c-.425.921-.776,1.877-1.146,2.822a4.646,4.646,0,0,1-.262.832,5.477,5.477,0,0,0-.459,4.428,4.961,4.961,0,0,1-.69,3.086c-.095.233-.42.374-.734.636.4,1.455.8,2.9,1.221,4.415-.317.459-.92.952-.964,1.49a8.478,8.478,0,0,1-.6,1.84.679.679,0,0,0-.023.429c.714,1.591-.029,3.322.488,4.937a2.674,2.674,0,0,1-.035,1.046,7.686,7.686,0,0,0-.176,1.276,4.336,4.336,0,0,1-.695,3.323.6.6,0,0,0-.115.414c.192,1.53-.7,2.427-1.824,3.234-.469.337-.783.89-1.258,1.214a6.01,6.01,0,0,0-2.762,4.024,3.066,3.066,0,0,1-.679,1.341c-.883,1.063-1.821,2.083-2.757,3.1-.728.792-1.266,1.8-2.477,2.059a1.473,1.473,0,0,0-.76.736c-1.424,2.574-3.584,4.551-5.468,6.753a.956.956,0,0,1-.169.139,19.213,19.213,0,0,0-2.777,2.113,17.67,17.67,0,0,1-2.581,2.319,12.608,12.608,0,0,0-2.7,2.818,5.352,5.352,0,0,1-1.675,1.654,7.727,7.727,0,0,0-2.942,2.544,2.706,2.706,0,0,1-1.253.793,17.326,17.326,0,0,0-4.4,3.111,3.628,3.628,0,0,1-1.066.685,4.4,4.4,0,0,0-2.258,1.435c.447,1.958-.9,3.6-1.28,5.486a12.591,12.591,0,0,1-2.764,2.708c-.24.13-.648.313-.646.467.014,1.036-.7,1.332-1.476,1.653a2.542,2.542,0,0,0-.8.691,6.464,6.464,0,0,1-3.462,2.144,8.479,8.479,0,0,0-3.643,1.895A25.57,25.57,0,0,0,230,270.509c-1,1.245-1.736,2.693-2.642,4.016a7.561,7.561,0,0,1-2.407,2.467,3.1,3.1,0,0,0-.866.926c-.423.589-.8,1.212-1.246,1.9-2.053.1-2.9,1.631-3.606,3.379l-1.126-.326c-1.46,1.036-3,1.994-4.387,3.144-2.062,1.714-4.293,1.791-6.452-.292-.156-.151-.308-.306-.553-.55a6.712,6.712,0,0,1-1.546.518,9.14,9.14,0,0,1-1.507-.257,11.6,11.6,0,0,0-1.3.067c-.284.007-.653.081-.841-.062-1.415-1.074-2.985-.59-4.465-.377a26.959,26.959,0,0,1-4.318.555A3.6,3.6,0,0,0,190,286.835a5.629,5.629,0,0,1-1.413.979c-1.118.683-2.169,1.474-3.262,2.2a2.6,2.6,0,0,1-1.141.565,3.608,3.608,0,0,0-2.46,1.278,7.435,7.435,0,0,1-2.883,1.913c-.2.067-.507.151-.556.3-.55,1.628-2.187,1.26-3.319,1.712a5.133,5.133,0,0,1-3.612-.292,25.088,25.088,0,0,0-2.505-.667,21.442,21.442,0,0,1-3.584-1.593c-.328-.15-.741-.472-.988-.379-1.385.517-2.35-.5-3.492-.841a5,5,0,0,1-.714-.365c-.6.309-1.217.976-2.088.628a.32.32,0,0,0-.216,0,6.946,6.946,0,0,1-1.765.68c-.63.058-1.292-.309-1.934-.292a4.9,4.9,0,0,0-1.649.487c-.672.277-1.305.649-1.974.934a1.149,1.149,0,0,1-.832.1c-.908-.494-1.713.066-2.7.183-1.015-1.6-3.033-1.4-4.536-2.256a1.079,1.079,0,0,0-.851.023c-.558.261-1.075.472-1.641.047a.227.227,0,0,0-.211-.011c-1.09.967-2.387.293-3.577.454-.433.058-.864.127-1.4.2l-1.165-.8a6.06,6.06,0,0,0-2.879,1.459c-.685.782-1.625.4-2.56-.054l-1.645,2.2c-.263-.208-.512-.428-.785-.613a8.361,8.361,0,0,0-.929-.553c-.932-.474-1.865-.012-2.8,0-.845.01-1.623-.345-2.526.2-1.32.8-2.864.436-4.291.171-1.794-.333-3.56-.82-5.335-1.254a1.016,1.016,0,0,1-.566-.29,2.361,2.361,0,0,0-2.129-.864,3.687,3.687,0,0,1-2.857-.834c-.167-.174-.542-.183-.826-.207a3.088,3.088,0,0,1-1.967-.866,2.69,2.69,0,0,0-1.957-.83,7.679,7.679,0,0,1-1.92-.4,3.249,3.249,0,0,1-1.411-.548c-.935-.937-2.335-1.188-3.164-2.293-.453-.6-1.29-.6-2.025-.681a22.8,22.8,0,0,1-2.371-.394,1.78,1.78,0,0,1-.959-.487,6.714,6.714,0,0,0-2.609-1.542,10.831,10.831,0,0,0-2.893-.856,11.529,11.529,0,0,1-5.548-2.921,18,18,0,0,1-1.4-1.393,5.878,5.878,0,0,0-3.585-1.886,13.791,13.791,0,0,1-5.98-2.586,19.394,19.394,0,0,1-3.06-2.4,4.386,4.386,0,0,0-3.636-1.328c-.7-1.607-2.246-2.087-3.622-2.674a4.412,4.412,0,0,1-2.515-2.27,2.64,2.64,0,0,0-2.364-1.666,3.558,3.558,0,0,1-1.964-.853c-.813-.609-1.7-1.116-2.564-1.658-.185-.117-.443-.154-.576-.307-1.808-2.068-4.216-3.663-5.183-6.4a3.633,3.633,0,0,1-.264-1.464,2.74,2.74,0,0,0-.648-2.03,22.2,22.2,0,0,1-2.549-4.795,5.643,5.643,0,0,1-.622-2.964,2.846,2.846,0,0,0-1.551-2.891c-.738-.462-1.53-.888-2.2-1.393-1.114-.843-2.415-1.506-3.176-2.825a21.355,21.355,0,0,0-2.184-2.721c-.139-.169-.358-.3-.432-.488a7.3,7.3,0,0,0-2.3-2.839,2.687,2.687,0,0,1-.663-1.09c-.568-1.484-1.094-2.983-1.67-4.573-.478-.312-1-.711-1.575-1.014a2.188,2.188,0,0,1-1.222-2.16,4.42,4.42,0,0,0-.714-3.111c-.158-.2-.106-.558-.177-.838-.2-.769-.373-1.544-.614-2.3a7.06,7.06,0,0,1-.376-3.639c.388-1.934-.051-2.643-1.979-3.219a2.867,2.867,0,0,1-2.285-2.36c-.149-1.036-1.178-1.273-1.517-2.055-.31-.718-.312-1.653-.79-2.195a11.349,11.349,0,0,1-2.036-3.81,9.672,9.672,0,0,0-1.831-3.4,6.194,6.194,0,0,1-1.24-3.868,20.279,20.279,0,0,0-1.463-5.888A26.929,26.929,0,0,1,3,180.047a2.475,2.475,0,0,1,.352-2.09,2.161,2.161,0,0,0-.039-2.486c-1.05-1.707-1.19-3.725-1.993-5.521a3.624,3.624,0,0,1,.139-2.126c.415-1.624.944-3.219,1.411-4.831a9.469,9.469,0,0,0-.055-5.772c-.557-1.709-.782-3.52-1.463-5.223-.275-.687.088-1.608-.124-2.342-.186-.648-1.013-1.143-1.121-1.778a18.147,18.147,0,0,1-.037-3.467,8.421,8.421,0,0,0,.19-1.288,12.529,12.529,0,0,1,.941-5.769,7.362,7.362,0,0,0,.239-4.086,4.339,4.339,0,0,1,.008-1.5c.1-.791.269-1.574.411-2.361a3.288,3.288,0,0,1,.131-.637c.668-1.687,1.4-3.352,2.007-5.059a5.168,5.168,0,0,0,.1-3.428c-.37-1.091-.846-2.148-1.383-3.487a6.172,6.172,0,0,0,.129-1.206,2.875,2.875,0,0,1,.7-1.79c.744-1.077,1.542-2.124,2.2-3.251a8.271,8.271,0,0,1,2.443-2.764,3.1,3.1,0,0,0,1.257-1.725,7.673,7.673,0,0,1,2.438-3.56c.718-.617,1.3-1.393,2.037-1.985A2.671,2.671,0,0,0,14.97,98.48a6.887,6.887,0,0,1,.651-1.834,12.85,12.85,0,0,0,.6-1.4,16.238,16.238,0,0,1,2.312-4.68,10.8,10.8,0,0,0,1.774-5.319,1.94,1.94,0,0,1,.7-1.515,1.173,1.173,0,0,0,.446-.7,1.765,1.765,0,0,1,.9-1.4,5.809,5.809,0,0,0,.893-.938A14.733,14.733,0,0,1,24.822,78.9a4.67,4.67,0,0,0,1.669-3.435c.054-.653.079-1.31.068-1.965a2.885,2.885,0,0,1,.882-2.137,5.005,5.005,0,0,0,1.431-3.1,2.424,2.424,0,0,1,1.441-2.273,3.89,3.89,0,0,0,1.781-1.874,21.01,21.01,0,0,1,1.625-2.574,14.746,14.746,0,0,0,1.358-2.715,1.172,1.172,0,0,0,.059-.642c-.323-2.059.637-3.616,1.924-5.078A10.279,10.279,0,0,0,38.3,51.31c.776-1.4,1.477-2.839,2.25-4.24a2.542,2.542,0,0,1,.767-.73,2.169,2.169,0,0,1,.62-.21,4.319,4.319,0,0,0,3.237-3.474c.051-.27.162-.65.361-.751,1.727-.871,2.861-2.649,4.925-3.036a14.473,14.473,0,0,0,3.082-1.123,4.844,4.844,0,0,1,2.719-.659,1.906,1.906,0,0,0,1.81-1.067,4.378,4.378,0,0,1,3-2c1.06-.259,1.991-.856,3.114-1.024a3.35,3.35,0,0,0,1.752-1.2,22.334,22.334,0,0,0,2.315-3.177,3.705,3.705,0,0,1,2.394-1.757c.921-.244,1.84-.5,2.769-.705A20.089,20.089,0,0,0,78.3,24.353a11.5,11.5,0,0,0,3.325-2.786c.716-.815,1.369-1.687,2.026-2.552a3.375,3.375,0,0,1,2.676-1.66,2.337,2.337,0,0,0,1.3-.717,24.941,24.941,0,0,1,4.1-2.912c1.367-.832,2.779-1.578,4.171-2.36.56-.315,1.362-.284,1.824-.677,1.258-1.071,2.8-1.2,4.289-1.529.492-.11,1-.138,1.5-.22a4.3,4.3,0,0,0,1.263-.259,9.391,9.391,0,0,1,4.237-.9,4.354,4.354,0,0,0,.868-.1,69.627,69.627,0,0,1,7.574-1.189c1.377-.154,2.749-.386,4.108-.659a32.917,32.917,0,0,1,5.041-.152,9.138,9.138,0,0,1,1.289.248,4.213,4.213,0,0,0,1.293,0,36.468,36.468,0,0,0,6.074-1.734,9.384,9.384,0,0,1,4.948-.515A17.467,17.467,0,0,0,148.38,2.66a9.339,9.339,0,0,1,2.772-.572,13.647,13.647,0,0,0,2.976-.628A23.608,23.608,0,0,0,157.922.434c2.071-.876,4.059-.291,5.949.561a2.386,2.386,0,0,1,1.341,2.549,1.41,1.41,0,0,0,1.079,1.647,3.775,3.775,0,0,1,1.282.775,6.4,6.4,0,0,0,4.037,1.885,11.139,11.139,0,0,0,3.875-.244,10.331,10.331,0,0,1,3.689-.086,17.875,17.875,0,0,0,6.534-.126c2.547-.666,5.166-1.056,7.726-1.676,1.64-.4,3.207.046,4.8.184a1.77,1.77,0,0,1,1.665,1.77,2.564,2.564,0,0,0,1.805,2.438,17.527,17.527,0,0,1,2.717,1.831c2.759,2.07,5.883,3.545,8.8,5.362,1.236-.05,1.883.948,2.765,1.531a10.625,10.625,0,0,0,1.133.644c.326.161.76.191,1,.427a5.317,5.317,0,0,0,2.379,1.482C221.324,21.616,222.122,21.985,223.036,22.328Z"/><path class="cls-2" d="M59.273,192.181a1.974,1.974,0,0,0,1.166-.591c.625-.629,1.579-.844,2.1-1.626a.483.483,0,0,1,.4-.151,1.887,1.887,0,0,0,1.615-.548c.173-.147.488-.121.687-.252.121-.078.145-.3.24-.527,1.4-.361,2.858-.793,4.345-1.1a2.24,2.24,0,0,0,1.853-1.272c.036-.084.134-.141.236-.244a10.211,10.211,0,0,1,1.708-.273,1.423,1.423,0,0,0,1.321-.46.515.515,0,0,1,.393-.173,6.316,6.316,0,0,0,2.308-.466,5.761,5.761,0,0,0,2.2-.808,2.058,2.058,0,0,1,1.639-.363,1.431,1.431,0,0,0,.586-.026,26.779,26.779,0,0,1,4.508-.928,5.313,5.313,0,0,0,1.878-.777,16.932,16.932,0,0,1,3.928-2.066,3.027,3.027,0,0,0,1.072-.493,5.469,5.469,0,0,1,3.607-1.14,6.658,6.658,0,0,0,2.686-.722,47.178,47.178,0,0,1,6.063-2.374c.281-.09.542-.239.82-.341.777-.286,1.482-.853,2.414-.436.158-.471.264-.783.369-1.095a.815.815,0,0,1,.259-.113,9.811,9.811,0,0,0,4.041-.827,3.065,3.065,0,0,0,1.283-.959,1.277,1.277,0,0,1,1.148-.53,12.269,12.269,0,0,0,3.626-.69,46.528,46.528,0,0,0,4.576-1.721,1.536,1.536,0,0,1,.425-.13,5.2,5.2,0,0,0,2.694-1.116,1.7,1.7,0,0,1,.656-.338,6.856,6.856,0,0,0,2.6-1.124,2.325,2.325,0,0,0-.993-.689,1.972,1.972,0,0,1-1.168-1.493,4.6,4.6,0,0,0-1.287-2.04c-1.41-1.574-2.522-3.423-4.359-4.6-1.188-2.114-3.634-3.031-4.9-5.089a1.935,1.935,0,0,0-1.221-.7,2.092,2.092,0,0,1-1.844-2.02c-.069-1.833-1.194-2.973-2.258-4.2a20.232,20.232,0,0,1-1.447-1.937,18.073,18.073,0,0,0-2.557-2.566.538.538,0,0,0-.224-.1c-1.141-.317-1.42-1.55-2.288-2.135a15.534,15.534,0,0,1-2.512-1.485,7.751,7.751,0,0,1-1.756-3.951,37.13,37.13,0,0,0-1.164-4.737,14.061,14.061,0,0,1-.982-2.728c-.046-.32-.262-.682-.17-.945.474-1.343.007-2.552-.383-3.8a1.993,1.993,0,0,1,.021-1.189c.57-1.592-.045-2.816-1.013-4.048a55.684,55.684,0,0,1-3.875-5.831,1.659,1.659,0,0,0-.959,1.037c-.069.208-.3.371-.475.532-.4.365-.832.694-1.207,1.079a1.089,1.089,0,0,1-1.05.425c-1.079-.289-1.906.413-2.84.668-.3.081-.509.444-.766.672a2.89,2.89,0,0,1-2.211,1.022.73.73,0,0,0-.541.177c-.53.6-1.195.544-1.91.547a2.91,2.91,0,0,0-2.063.643,3.365,3.365,0,0,1-2.2.714,9.914,9.914,0,0,0-4.029.8,5.145,5.145,0,0,1-3.163.477,3.943,3.943,0,0,0-2.45.458,4.316,4.316,0,0,1-2.693.606,1.253,1.253,0,0,0-.442.049,22.493,22.493,0,0,0-7.025,2.286,2.288,2.288,0,0,0-1.208,1.229,1.881,1.881,0,0,1-1.292,1.124c-.786.3-1.575.586-2.355.9a4.212,4.212,0,0,1-2.611.267,7.108,7.108,0,0,0-2.595-.239c-.226.662-1.118.858-1.288,1.649a3.5,3.5,0,0,1-1.2.524,3.781,3.781,0,0,1-2.045-.115,1.472,1.472,0,0,0-1.429.064,2.417,2.417,0,0,1-1.565.353,1.409,1.409,0,0,0-1.349.458,2.772,2.772,0,0,1-1.852.816c-.443.054-.884.13-1.321.222a2.566,2.566,0,0,0-.99.291c-1.281.96-2.937.847-4.3,1.546-.042.022-.1.018-.143.036a21.962,21.962,0,0,1-2.619,1.017,10.122,10.122,0,0,0-2.683.826,3.268,3.268,0,0,0-1.06.767,4.305,4.305,0,0,1-.924.937,5.142,5.142,0,0,0,.2,1.11,22.822,22.822,0,0,1,.869,5.515,4.013,4.013,0,0,0,.5,1.8,62.034,62.034,0,0,0,4.413,6.71c.968,1.232,1.583,2.456,1.013,4.049a1.982,1.982,0,0,0-.021,1.188c.39,1.246.857,2.456.383,3.8-.092.262.124.625.17.945a14.01,14.01,0,0,0,.982,2.727,37.13,37.13,0,0,1,1.164,4.737,7.751,7.751,0,0,0,1.756,3.951,15.534,15.534,0,0,0,2.512,1.485c.868.586,1.147,1.819,2.288,2.136a.536.536,0,0,1,.224.1,18.079,18.079,0,0,1,2.557,2.567,20.486,20.486,0,0,0,1.447,1.937c1.064,1.222,2.189,2.363,2.258,4.195a2.091,2.091,0,0,0,1.843,2.02,1.94,1.94,0,0,1,1.222.706c1.266,2.057,3.712,2.974,4.9,5.088a11.408,11.408,0,0,1,2.617,2.489c.015-.011.032-.013.047-.024A5.273,5.273,0,0,1,59.273,192.181Z"/><path class="cls-2" d="M232.278,244.184a11.55,11.55,0,0,0-.335-1.123c-.322-1.121-.638-2.243-.959-3.364-.205-.716-.378-1.443-.631-2.142-.276-.76-.7-1.473-.933-2.243-.051-.168-.092-.339-.141-.508a9.026,9.026,0,0,0-.775-2.791c-.167-.623-.332-1.246-.518-1.863-.4-1.339-.836-2.67-1.264-4q-.391-1.41-.785-2.82c-.184-.653-.357-1.309-.547-1.96-.237-.813-.554-1.568-.037-2.378a1.763,1.763,0,0,0-.108-1.891c-.351-.65-.873-1.209-.5-2.06a1.111,1.111,0,0,0-.167-.938,6.494,6.494,0,0,1-.967-2.524,3.607,3.607,0,0,0-.907-1.739c-.071-.063-.108-.141-.174-.207-.266-1.311-.528-2.624-.811-3.932-.24-1.112-.607-2.2-.86-3.307-.714-3.13-1.394-6.268-2.1-9.4a6.305,6.305,0,0,0-.372-.9c-.278-.693-.6-1.374-.818-2.085-.542-1.74-.938-3.533-1.581-5.235a49.409,49.409,0,0,0-2.459-5.413,5.709,5.709,0,0,0-.606-.923c-.2-.83-.406-1.658-.634-2.482a8.857,8.857,0,0,1-4,.551,1.138,1.138,0,0,0-.49.087c-.963.346-1.933.677-2.886,1.043-1.564.065-3.129.12-4.692.2a17.292,17.292,0,0,0-3.5.385,52.859,52.859,0,0,1-7.648,1.026c-.856.1-1.713.192-2.569.287-.166-.064-.335-.109-.5-.188a2.864,2.864,0,0,0-2.41-.159,12.719,12.719,0,0,1-3.924.609,4.538,4.538,0,0,0-.945.167c-2.586.021-5.17.13-7.749.358a13.815,13.815,0,0,0-2.175.515,28.7,28.7,0,0,1-7.013,1.362,24.289,24.289,0,0,0-4.091.377c-1.468.264-2.881.86-4.352,1.061-2.359.324-4.746.442-7.12.648l.008.1-1.362.186a1.011,1.011,0,0,0-.776,1.556c.3.425.159.581-.177.731a1.2,1.2,0,0,0-.753,1.423c.02.141.033.284.051.425-.214.054-.427.112-.641.165a10.371,10.371,0,0,0,.634,1.981c.154.336.281.685.416,1.029a24.587,24.587,0,0,0,.437,2.559c.32,1.316.684,2.621,1.04,3.929a7.9,7.9,0,0,1-1.234,3.346c-.26.4-.458.849-.7,1.295a10.611,10.611,0,0,1,2.144,5.305,1.121,1.121,0,0,0,.172.465c.7,1.218,1.343,2.478,2.14,3.632a6.224,6.224,0,0,1,1.137,2.724,5.448,5.448,0,0,0,.134.684,2.475,2.475,0,0,0,.946,1.455,2.311,2.311,0,0,1,.675,1.251c.458,1.845.831,3.71,1.278,5.558a10.646,10.646,0,0,1,.186,5.562,3.142,3.142,0,0,0-.094,1.364,2.637,2.637,0,0,0,.353,1.023,12.56,12.56,0,0,1,1.281,3.737,3.5,3.5,0,0,0,.574,1.333,5.2,5.2,0,0,1,1.463,3.33,3.791,3.791,0,0,0,.415,1.165,42.064,42.064,0,0,0,2.163,4.8c.1.356.212.712.314,1.068.472,1.653.886,3.324,1.349,4.98.428,1.532.933,3.044,1.32,4.586a2.125,2.125,0,0,0,2.328,1.887,33.007,33.007,0,0,0,4-.38c2.259-.4,4.5-.891,6.752-1.357a9.711,9.711,0,0,0,3.556-.641c.64-.184,1.287-.358,1.94-.489,2.7-.542,5.406-1.051,8.1-1.614.152-.032.305-.059.457-.091.833-.177,1.613-.437,2.388.135a1.794,1.794,0,0,0,1.906.03c.678-.3,1.277-.778,2.1-.346a1.134,1.134,0,0,0,.954-.1,6.56,6.56,0,0,1,2.6-.777,3.646,3.646,0,0,0,1.811-.774c1.667-1.6,3.916-1.763,5.927-2.4a17.163,17.163,0,0,1,2.8-.6c1.109-.159,2.231-.271,3.334-.443,1.152-.18,2.314-.3,3.455-.532a52.442,52.442,0,0,0,6.056-1.374c1.737-.573,3.637-.542,5.307-1.333a1.789,1.789,0,0,1,1.539.494,1.156,1.156,0,0,0,1.511.209,3.667,3.667,0,0,1,.918-.3A1.667,1.667,0,0,0,232.278,244.184Z"/><path class="cls-2" d="M123.4,26.326a11.591,11.591,0,0,0-.1,1.168c-.109,1.16-.223,2.32-.333,3.48-.07.741-.174,1.481-.193,2.223-.02.809.115,1.625.052,2.427-.014.175-.038.35-.054.525a9.01,9.01,0,0,0-.3,2.88c-.072.641-.145,1.281-.2,1.923-.113,1.393-.194,2.79-.282,4.186q-.148,1.455-.3,2.911c-.066.675-.145,1.349-.2,2.024-.075.843-.055,1.661-.833,2.23a1.767,1.767,0,0,0-.589,1.8c.091.733.373,1.442-.286,2.1a1.109,1.109,0,0,0-.186.934,6.47,6.47,0,0,1-.019,2.7,3.585,3.585,0,0,0,.212,1.947c.042.084.048.171.086.256-.23,1.318-.465,2.636-.678,3.956-.181,1.124-.235,2.267-.4,3.392-.476,3.175-.986,6.345-1.468,9.519a6.32,6.32,0,0,0,.019.971c.007.746.055,1.5,0,2.238-.129,1.817-.413,3.631-.435,5.449a49.191,49.191,0,0,0,.318,5.93,5.58,5.58,0,0,0,.229,1.079c-.119.845-.227,1.692-.315,2.542a8.852,8.852,0,0,1,3.928.927,1.11,1.11,0,0,0,.489.095c1.023.026,2.048.067,3.07.069,1.481.5,2.96,1.016,4.447,1.5a17.28,17.28,0,0,0,3.405.9,52.7,52.7,0,0,1,7.5,1.8c.834.216,1.666.438,2.5.658.131.119.272.222.395.355a2.852,2.852,0,0,0,2.189,1.016,12.743,12.743,0,0,1,3.879.847,4.479,4.479,0,0,0,.941.184c2.419.913,4.867,1.742,7.353,2.459a13.861,13.861,0,0,0,2.215.3,28.737,28.737,0,0,1,7.033,1.257,24.273,24.273,0,0,0,3.95,1.123c1.464.283,3,.237,4.443.579,2.316.548,4.584,1.3,6.872,1.962l.028-.094,1.338.317a1.015,1.015,0,0,0,1.29-1.171c-.121-.5.063-.6.431-.617a1.21,1.21,0,0,0,1.221-1.055c.033-.138.073-.276.107-.415.219.027.439.05.658.078a10.43,10.43,0,0,0,.132-2.075c-.022-.369-.013-.739-.013-1.109a24.608,24.608,0,0,0,.526-2.542c.182-1.342.319-2.69.463-4.037a7.951,7.951,0,0,1,2.37-2.674c.39-.282.736-.626,1.12-.957a10.591,10.591,0,0,1-.064-5.717,1.1,1.1,0,0,0,.009-.5c-.209-1.388-.348-2.793-.669-4.155a6.217,6.217,0,0,1-.067-2.949,5.5,5.5,0,0,0,.125-.686,2.466,2.466,0,0,0-.351-1.7,2.288,2.288,0,0,1-.173-1.408c.246-1.885.578-3.758.835-5.642a10.662,10.662,0,0,1,1.855-5.25,3.14,3.14,0,0,0,.584-1.237,2.636,2.636,0,0,0,.045-1.081,12.529,12.529,0,0,1,.169-3.945,3.488,3.488,0,0,0-.05-1.448,5.183,5.183,0,0,1-.148-3.631,3.809,3.809,0,0,0,.037-1.236,41.82,41.82,0,0,0-.267-5.25c.033-.37.062-.739.1-1.108.163-1.711.387-3.417.559-5.127.159-1.583.24-3.174.442-4.75a2.115,2.115,0,0,0-1.482-2.6,33.172,33.172,0,0,0-3.868-1.088c-2.253-.438-4.523-.793-6.787-1.168a9.741,9.741,0,0,0-3.548-.684c-.665-.059-1.33-.13-1.987-.243-2.714-.467-5.421-.968-8.138-1.414-.153-.025-.306-.055-.459-.08-.841-.136-1.663-.174-2.177-.986a1.788,1.788,0,0,0-1.765-.715c-.741.037-1.473.265-2.086-.436a1.128,1.128,0,0,0-.924-.252,6.582,6.582,0,0,1-2.708-.214,3.65,3.65,0,0,0-1.969.069c-2.136.887-4.294.232-6.4.106a17.112,17.112,0,0,1-2.822-.453c-1.091-.251-2.178-.551-3.269-.788-1.139-.247-2.266-.552-3.413-.749a52.556,52.556,0,0,0-6.145-.9c-1.829-.092-3.588-.8-5.433-.669a1.785,1.785,0,0,1-1.254-1.015,1.153,1.153,0,0,0-1.332-.74,3.645,3.645,0,0,1-.967-.047A1.675,1.675,0,0,0,123.4,26.326Z"/><path class="cls-3" d="M106.694,133.66a.591.591,0,0,1,.011-.087c-.062-.2-.111-.409-.165-.613q-.021-.083-.036-.165a.686.686,0,0,0-.149-.33c-.018-.022-.038-.042-.054-.065a1.567,1.567,0,0,0-.156-.232,1.529,1.529,0,0,0-.23-.167,1.151,1.151,0,0,1,.868-.349c.037,0,.084.007.108-.012a1.322,1.322,0,0,1,.642-.184l.124-.024c.017-.018.028-.024.029-.032s.007-.018.01-.029a.371.371,0,0,1,.031-.1.4.4,0,0,1,.059-.084c.007-.008.01-.017.018-.025s0-.018.008-.043l-.056-.112a1.288,1.288,0,0,1-.242-.619c0-.031-.033-.065-.056-.093a1.137,1.137,0,0,1-.247-.9,1.525,1.525,0,0,0,.273.081,1.565,1.565,0,0,0,.28-.017.8.8,0,0,1,.085,0,.692.692,0,0,0,.354-.082c.05-.026.1-.05.154-.071.148-.062.3-.124.446-.183a2.534,2.534,0,0,1-.037-.286c-.056-.034-.111-.068-.167-.1a.49.49,0,0,1-.229-.24.255.255,0,0,1-.009-.266.287.287,0,0,0,0-.3c-.039-.083-.067-.172-.1-.249a.308.308,0,0,1,.248-.154,3.293,3.293,0,0,0,.938-.3,2.668,2.668,0,0,1,.321-.1.284.284,0,0,1,.031-.006.624.624,0,0,0-.034-.182,3.024,3.024,0,0,1-.592-.389.95.95,0,0,0-.212-.122,1.3,1.3,0,0,1-.655-.388.08.08,0,0,0-.03-.018l-.024-.011a.078.078,0,0,0,0-.016l-.027,0a3.26,3.26,0,0,1-.678-.327,2.418,2.418,0,0,1-.757-.35,1.425,1.425,0,0,0-.489-.185,1.617,1.617,0,0,1-.587-.224c-.229-.128-.438-.322-.734-.29a.2.2,0,0,1-.1-.031,1.331,1.331,0,0,1-.393-.224c-.108-.125-.272-.139-.371-.243a1.484,1.484,0,0,0-.815-.39,1.682,1.682,0,0,1-.166-.047c-.015-.01-.028-.021-.043-.03a4.815,4.815,0,0,0-.54-.264l-.038-.023a.455.455,0,0,0-.119-.073.684.684,0,0,1-.431-.375c-.072-.01-.13-.019-.188-.026a.745.745,0,0,1-.474-.2.7.7,0,0,0-.344-.168.616.616,0,0,1-.226-.081,2.855,2.855,0,0,0-.811-.41c-.026-.054-.053-.107-.081-.165a.8.8,0,0,0-.479-.114h-.02a4.835,4.835,0,0,0-.537-.319.67.67,0,0,0-.572-.285,1.033,1.033,0,0,1-.232-.081,4.294,4.294,0,0,0-.544-.172,1.155,1.155,0,0,1-.11-.165c-.03-.056-.069-.107-.1-.154a2.527,2.527,0,0,1-.416-.041.386.386,0,0,0-.316-.144.581.581,0,0,1-.146-.033.537.537,0,0,1-.056-.051,1.093,1.093,0,0,0-.648-.418c-.18-.048-.361-.092-.536-.155-.129-.046-.256-.1-.383-.147a2.872,2.872,0,0,1-.729-.424.246.246,0,0,0-.117-.08,1.883,1.883,0,0,0-.322-.174c-.127-.055-.258-.1-.389-.147-.126-.081-.275-.127-.394-.22a.307.307,0,0,1-.263-.137.116.116,0,0,0-.077-.028.7.7,0,0,1-.3-.132c-.114-.061-.218-.146-.33-.213a.3.3,0,0,0-.064-.044,5.36,5.36,0,0,1-.76-.366,1.259,1.259,0,0,1-.4-.27.548.548,0,0,0-.241-.136c-.317-.127-.636-.248-.955-.369-.026-.01-.049-.023-.075-.034l-.055-.1c-.084-.026-.157-.044-.224-.069a.494.494,0,0,1-.064-.049.708.708,0,0,0-.235-.149L88.6,116.4c-.094-.058-.189-.115-.284-.172a.414.414,0,0,0-.3-.073h-.007a2.964,2.964,0,0,1-.319-.17.762.762,0,0,0-.232-.083.334.334,0,0,0-.149-.058.475.475,0,0,1-.277-.129,1.223,1.223,0,0,0-.254-.147c-.022-.014-.042-.029-.064-.042a8.061,8.061,0,0,1-.906-.534,1.009,1.009,0,0,0-.482-.2.751.751,0,0,1-.32-.127,1.763,1.763,0,0,0-.394-.219,1.345,1.345,0,0,0-.452-.19c-.182-.044-.326-.176-.505-.23a1.338,1.338,0,0,0-.158-.055.133.133,0,0,1-.019-.024.354.354,0,0,0-.132-.121.632.632,0,0,0-.358-.156.616.616,0,0,1-.224-.085,3.335,3.335,0,0,0-1.016-.51.628.628,0,0,1-.169-.118.542.542,0,0,0-.405-.224c-.025,0-.051-.023-.076-.036-.14-.076-.285-.145-.419-.23s-.31-.086-.409-.229c-.008-.012-.035-.014-.053-.015a.585.585,0,0,1-.331-.142.254.254,0,0,0-.183-.053.289.289,0,0,1-.056.006l-.013-.008c-.107-.057-.213-.119-.324-.167a1.494,1.494,0,0,0-.441-.247c-.32-.116-.636-.241-.952-.368a.416.416,0,0,1-.185-.118c-.08-.118-.2-.155-.328-.235a.48.48,0,0,0-.058.139.589.589,0,0,1-.012.087c.062.2.111.409.165.614.014.054.026.109.036.164a.7.7,0,0,0,.149.33c.018.022.038.042.054.066a1.774,1.774,0,0,0,.156.232,1.61,1.61,0,0,0,.231.166,1.154,1.154,0,0,1-.869.349c-.036,0-.084-.007-.108.012a1.311,1.311,0,0,1-.641.184l-.125.024c-.017.018-.028.024-.029.032s-.007.019-.009.029a.363.363,0,0,1-.032.1.342.342,0,0,1-.059.084c-.007.008-.01.017-.018.025s0,.018-.008.043c.015.03.035.072.057.112a1.3,1.3,0,0,1,.241.619c0,.031.034.065.056.093a1.138,1.138,0,0,1,.248.9,1.549,1.549,0,0,0-.273-.081,1.67,1.67,0,0,0-.281.017.814.814,0,0,1-.085,0,.7.7,0,0,0-.354.082c-.05.026-.1.05-.153.071-.149.062-.3.124-.447.183a2.565,2.565,0,0,1,.037.286c.057.034.111.068.167.1a.5.5,0,0,1,.23.24.252.252,0,0,1,.008.266.288.288,0,0,0,0,.3c.039.083.068.171.1.248a.306.306,0,0,1-.248.154,3.3,3.3,0,0,0-.938.3,2.612,2.612,0,0,1-.321.1c-.01,0-.02,0-.03.006a.591.591,0,0,0,.033.182,3.075,3.075,0,0,1,.593.389.928.928,0,0,0,.212.122,1.3,1.3,0,0,1,.654.388.069.069,0,0,0,.03.018l.024.011,0,.016.027-.005a3.344,3.344,0,0,1,.679.327,2.429,2.429,0,0,1,.757.35,1.374,1.374,0,0,0,.488.185,1.617,1.617,0,0,1,.587.224c.23.128.438.322.734.29a.2.2,0,0,1,.1.031,1.3,1.3,0,0,1,.393.225c.108.124.272.138.371.242a1.474,1.474,0,0,0,.816.39,1.682,1.682,0,0,1,.166.047.4.4,0,0,0,.042.03,4.568,4.568,0,0,0,.54.264l.038.024a.489.489,0,0,0,.12.073.68.68,0,0,1,.43.374c.073.01.13.019.188.026a.753.753,0,0,1,.474.2.692.692,0,0,0,.344.168.616.616,0,0,1,.226.081,2.861,2.861,0,0,0,.812.41l.08.165a.805.805,0,0,0,.48.114.133.133,0,0,1,.02,0,4.76,4.76,0,0,0,.536.319.671.671,0,0,0,.572.285,1.02,1.02,0,0,1,.232.082,4.458,4.458,0,0,0,.544.171,1.076,1.076,0,0,1,.11.165c.031.056.07.107.1.155a2.42,2.42,0,0,1,.415.04.387.387,0,0,0,.316.144.55.55,0,0,1,.147.034.438.438,0,0,1,.056.051,1.09,1.09,0,0,0,.647.417c.18.048.361.092.536.155.129.046.256.1.384.147a2.92,2.92,0,0,1,.729.424.239.239,0,0,0,.116.08,1.961,1.961,0,0,0,.322.174c.127.055.258.1.389.147.126.081.275.127.394.221a.306.306,0,0,1,.263.136.111.111,0,0,0,.077.028.71.71,0,0,1,.306.132c.114.061.217.146.329.214a.377.377,0,0,0,.064.043,5.36,5.36,0,0,1,.76.366,1.248,1.248,0,0,1,.4.27.548.548,0,0,0,.241.136c.317.127.636.248.955.369.026.01.05.024.075.034l.055.1c.084.026.158.044.224.069a.6.6,0,0,1,.064.049.708.708,0,0,0,.235.149l.153.061c.094.059.189.115.284.172a.405.405,0,0,0,.3.073h.007a2.873,2.873,0,0,1,.319.17.813.813,0,0,0,.232.084.347.347,0,0,0,.15.057.476.476,0,0,1,.277.13,1.238,1.238,0,0,0,.254.146c.021.014.041.029.063.042a7.933,7.933,0,0,1,.907.535,1.014,1.014,0,0,0,.481.2.759.759,0,0,1,.32.127,1.748,1.748,0,0,0,.395.219,1.331,1.331,0,0,0,.451.19c.182.044.327.177.5.23a1.094,1.094,0,0,0,.158.055.212.212,0,0,1,.02.024.343.343,0,0,0,.131.121.635.635,0,0,0,.359.156.6.6,0,0,1,.223.086,3.371,3.371,0,0,0,1.017.509.715.715,0,0,1,.169.118.54.54,0,0,0,.4.224c.025,0,.051.023.076.036.14.076.285.145.419.23s.31.086.409.229c.008.012.035.015.053.015a.6.6,0,0,1,.332.142.249.249,0,0,0,.183.053.274.274,0,0,1,.056-.006l.012.008c.108.057.213.12.324.167a1.525,1.525,0,0,0,.442.248c.32.115.636.24.951.367a.4.4,0,0,1,.185.119.982.982,0,0,0,.328.234A.493.493,0,0,0,106.694,133.66Z"/><path class="cls-3" d="M146.215,26.474a.62.62,0,0,1-.057-.075c-.2-.107-.4-.227-.594-.343-.052-.03-.1-.063-.153-.1a.752.752,0,0,0-.365-.138c-.03,0-.061,0-.091-.009a1.824,1.824,0,0,0-.3-.059,1.71,1.71,0,0,0-.3.047,1.22,1.22,0,0,1,.394-.919c.029-.028.069-.059.073-.092a1.407,1.407,0,0,1,.348-.623c.029-.041.056-.082.076-.112,0-.026,0-.039,0-.046s-.009-.02-.015-.03a.35.35,0,0,1-.051-.1.372.372,0,0,1-.019-.108.323.323,0,0,1-.006-.033c0-.008-.011-.016-.026-.038L145,23.657a1.417,1.417,0,0,1-.656-.288c-.023-.024-.074-.025-.113-.029a1.235,1.235,0,0,1-.873-.5,1.747,1.747,0,0,0,.269-.144,1.878,1.878,0,0,0,.2-.225c.02-.023.045-.041.067-.062a.751.751,0,0,0,.207-.329c.018-.058.039-.115.062-.17.066-.159.132-.318.2-.476a2.784,2.784,0,0,1-.246-.189c-.069.016-.137.031-.2.05a.537.537,0,0,1-.358-.01c-.1-.039-.185-.077-.21-.2a.305.305,0,0,0-.225-.224c-.093-.034-.182-.08-.264-.116a.334.334,0,0,1,.071-.3,3.445,3.445,0,0,0,.482-.938,2.777,2.777,0,0,1,.166-.32.268.268,0,0,1,.018-.028.657.657,0,0,0-.164-.113,3.272,3.272,0,0,1-.747.151.99.99,0,0,0-.255.067,1.414,1.414,0,0,1-.793.2.071.071,0,0,0-.037.008l-.026.01-.012-.014-.016.025a3.572,3.572,0,0,1-.766.262,2.62,2.62,0,0,1-.842.3,1.508,1.508,0,0,0-.513.227,1.74,1.74,0,0,1-.617.273c-.272.075-.579.085-.78.333a.218.218,0,0,1-.1.051,1.436,1.436,0,0,1-.47.125c-.177-.013-.313.1-.467.095a1.6,1.6,0,0,0-.918.318,1.532,1.532,0,0,1-.162.09c-.018,0-.037,0-.055.009a5.062,5.062,0,0,0-.612.207l-.047.011a.5.5,0,0,0-.147.034.736.736,0,0,1-.613.04c-.062.047-.113.084-.162.122a.81.81,0,0,1-.516.2.755.755,0,0,0-.39.131.639.639,0,0,1-.234.109,3.1,3.1,0,0,0-.929.3l-.188-.065a.87.87,0,0,0-.451.275l-.015.016a5.157,5.157,0,0,0-.651.161.721.721,0,0,0-.653.215,1.143,1.143,0,0,1-.239.113,4.649,4.649,0,0,0-.544.279,1.149,1.149,0,0,1-.21-.042c-.066-.02-.135-.029-.194-.042a2.7,2.7,0,0,1-.347.283.416.416,0,0,0-.35.128.583.583,0,0,1-.137.085.55.55,0,0,1-.082,0,1.173,1.173,0,0,0-.811.171c-.173.1-.345.2-.526.286-.133.062-.268.119-.4.177a3.08,3.08,0,0,1-.878.227.262.262,0,0,0-.15.027,2.02,2.02,0,0,0-.378.111c-.138.054-.273.117-.408.181-.158.034-.306.111-.467.13a.331.331,0,0,1-.305.094.121.121,0,0,0-.079.037.77.77,0,0,1-.333.13c-.134.039-.278.053-.414.086a.361.361,0,0,0-.082.015,5.739,5.739,0,0,1-.857.3,1.352,1.352,0,0,1-.512.1.6.6,0,0,0-.287.078c-.337.143-.673.291-1.008.44-.027.012-.055.02-.083.031l-.118-.035c-.084.044-.153.086-.223.117a.808.808,0,0,1-.086.011.732.732,0,0,0-.292.064l-.163.068-.348.084a.443.443,0,0,0-.28.166l-.005.006a3.265,3.265,0,0,1-.372.112.791.791,0,0,0-.24.111.378.378,0,0,0-.158.068.511.511,0,0,1-.309.111,1.3,1.3,0,0,0-.305.08c-.027.006-.054.009-.08.016a8.649,8.649,0,0,1-1.1.277,1.089,1.089,0,0,0-.522.207.808.808,0,0,1-.341.145,1.88,1.88,0,0,0-.466.131,1.444,1.444,0,0,0-.489.2c-.171.1-.383.112-.559.206a1.261,1.261,0,0,0-.162.077c-.011,0-.023,0-.033,0a.38.38,0,0,0-.193.006.684.684,0,0,0-.391.152.658.658,0,0,1-.236.1,3.592,3.592,0,0,0-1.161.379.724.724,0,0,1-.219.037.583.583,0,0,0-.478.135c-.018.02-.056.021-.085.03-.165.048-.328.1-.5.141s-.3.168-.485.134c-.015,0-.038.015-.052.029a.632.632,0,0,1-.361.141.274.274,0,0,0-.18.1.308.308,0,0,1-.037.047l-.016,0c-.125.038-.253.07-.374.117a1.677,1.677,0,0,0-.525.145c-.331.154-.667.3-1,.439a.454.454,0,0,1-.231.049,1.036,1.036,0,0,0-.429.069.5.5,0,0,0,.062.149.62.62,0,0,1,.057.075c.2.107.4.227.594.342q.078.046.153.1a.752.752,0,0,0,.365.138c.03,0,.061,0,.091.009a1.824,1.824,0,0,0,.3.059,1.71,1.71,0,0,0,.3-.047,1.224,1.224,0,0,1-.394.919c-.029.028-.069.059-.073.092a1.407,1.407,0,0,1-.348.623c-.029.041-.056.082-.076.112,0,.026,0,.039,0,.046s.009.02.015.03a.379.379,0,0,1,.051.1.372.372,0,0,1,.019.108.323.323,0,0,1,.006.033c0,.008.011.016.026.038l.129.043a1.417,1.417,0,0,1,.656.288c.023.024.074.025.113.029a1.235,1.235,0,0,1,.873.5,1.747,1.747,0,0,0-.269.144,1.878,1.878,0,0,0-.2.225c-.02.023-.045.041-.067.062a.751.751,0,0,0-.207.329c-.018.058-.039.115-.062.17-.066.159-.132.318-.2.476a2.784,2.784,0,0,1,.246.189c.069-.016.136-.031.2-.05a.537.537,0,0,1,.358.01c.1.039.184.077.209.2a.308.308,0,0,0,.226.224c.093.034.182.08.264.116a.334.334,0,0,1-.071.3,3.445,3.445,0,0,0-.482.938,2.777,2.777,0,0,1-.166.32.268.268,0,0,1-.018.028.639.639,0,0,0,.164.113,3.261,3.261,0,0,1,.747-.151.99.99,0,0,0,.255-.067,1.414,1.414,0,0,1,.793-.2.073.073,0,0,0,.037-.008l.026-.01.012.014.016-.025a3.572,3.572,0,0,1,.766-.262,2.62,2.62,0,0,1,.842-.3,1.508,1.508,0,0,0,.513-.227,1.74,1.74,0,0,1,.617-.273c.272-.075.579-.085.78-.333a.218.218,0,0,1,.1-.051,1.436,1.436,0,0,1,.47-.125c.177.013.313-.1.467-.095a1.6,1.6,0,0,0,.918-.318,1.532,1.532,0,0,1,.162-.09c.018,0,.037,0,.055-.009a5.062,5.062,0,0,0,.612-.207l.047-.011a.5.5,0,0,0,.147-.034.736.736,0,0,1,.613-.04c.062-.047.113-.084.162-.122a.81.81,0,0,1,.516-.2.755.755,0,0,0,.39-.131.639.639,0,0,1,.234-.109,3.1,3.1,0,0,0,.929-.3l.188.065a.87.87,0,0,0,.451-.275l.015-.016a5.157,5.157,0,0,0,.651-.161.721.721,0,0,0,.653-.215,1.1,1.1,0,0,1,.239-.113,4.507,4.507,0,0,0,.544-.28,1.244,1.244,0,0,1,.21.043c.066.02.135.029.194.042a2.7,2.7,0,0,1,.347-.283.416.416,0,0,0,.35-.128.563.563,0,0,1,.137-.085.55.55,0,0,1,.082,0,1.173,1.173,0,0,0,.811-.171c.173-.1.345-.2.525-.286.134-.062.269-.119.4-.177a3.114,3.114,0,0,1,.878-.227.262.262,0,0,0,.15-.027,2.02,2.02,0,0,0,.378-.111c.138-.054.273-.117.408-.181.158-.034.305-.111.467-.13a.331.331,0,0,1,.3-.094.121.121,0,0,0,.079-.037.77.77,0,0,1,.333-.13c.134-.039.278-.053.414-.086a.371.371,0,0,0,.082-.015,5.739,5.739,0,0,1,.857-.295,1.352,1.352,0,0,1,.512-.1.614.614,0,0,0,.287-.078c.337-.143.673-.291,1.008-.44.027-.012.055-.02.083-.031l.118.035c.084-.044.153-.086.223-.117A.808.808,0,0,1,133.1,31a.732.732,0,0,0,.292-.064l.163-.068c.116-.027.232-.056.347-.084a.442.442,0,0,0,.281-.166l0-.006a3.265,3.265,0,0,1,.372-.112.8.8,0,0,0,.24-.111.378.378,0,0,0,.158-.068.511.511,0,0,1,.309-.111,1.3,1.3,0,0,0,.305-.08c.027-.006.054-.009.08-.016a8.649,8.649,0,0,1,1.1-.277,1.089,1.089,0,0,0,.522-.207.81.81,0,0,1,.34-.145,1.875,1.875,0,0,0,.467-.131,1.444,1.444,0,0,0,.489-.2c.171-.1.383-.112.559-.206a1.261,1.261,0,0,0,.162-.077c.011,0,.023,0,.033,0a.38.38,0,0,0,.193-.006.684.684,0,0,0,.391-.152.658.658,0,0,1,.236-.1,3.592,3.592,0,0,0,1.161-.379.724.724,0,0,1,.219-.037.583.583,0,0,0,.478-.135c.018-.02.056-.021.085-.03.165-.048.328-.1.5-.141s.3-.168.485-.134c.015,0,.038-.015.052-.029a.632.632,0,0,1,.361-.141.274.274,0,0,0,.18-.1.308.308,0,0,1,.037-.047l.016,0c.125-.038.253-.07.374-.117a1.677,1.677,0,0,0,.525-.145c.331-.154.667-.3,1-.439a.454.454,0,0,1,.231-.049,1.029,1.029,0,0,0,.428-.069A.481.481,0,0,0,146.215,26.474Z"/><path class="cls-3" d="M198.132,103.5a.561.561,0,0,1-.053-.07c-.188-.1-.369-.211-.553-.318-.049-.029-.1-.059-.143-.092a.7.7,0,0,0-.339-.129.789.789,0,0,1-.085-.008.808.808,0,0,0-.557-.011,1.137,1.137,0,0,1,.367-.856c.026-.025.064-.054.068-.085a1.3,1.3,0,0,1,.324-.581c.026-.037.052-.076.071-.1,0-.024,0-.037,0-.043s-.009-.018-.015-.027a.391.391,0,0,1-.047-.091.371.371,0,0,1-.018-.1c0-.011,0-.019,0-.031s-.01-.015-.024-.036c-.033-.01-.076-.026-.12-.04a1.316,1.316,0,0,1-.611-.268c-.022-.022-.069-.023-.106-.027a1.153,1.153,0,0,1-.813-.462,1.52,1.52,0,0,0,.251-.134,1.629,1.629,0,0,0,.187-.209.676.676,0,0,1,.062-.057.7.7,0,0,0,.192-.307c.018-.054.037-.107.058-.159.062-.148.123-.3.187-.442a2.438,2.438,0,0,1-.23-.177c-.063.016-.127.03-.189.047a.5.5,0,0,1-.333-.009c-.09-.036-.172-.072-.195-.183a.289.289,0,0,0-.21-.209c-.087-.031-.169-.074-.245-.108a.3.3,0,0,1,.066-.283,3.237,3.237,0,0,0,.448-.873,2.569,2.569,0,0,1,.155-.3.192.192,0,0,1,.017-.026.64.64,0,0,0-.153-.105,3.031,3.031,0,0,1-.7.141.942.942,0,0,0-.237.062,1.3,1.3,0,0,1-.739.185.073.073,0,0,0-.034.008l-.024.009-.011-.013-.015.023a3.321,3.321,0,0,1-.713.245,2.451,2.451,0,0,1-.784.283,1.4,1.4,0,0,0-.478.212,1.609,1.609,0,0,1-.575.254c-.253.07-.538.079-.726.31a.2.2,0,0,1-.091.047,1.348,1.348,0,0,1-.438.117c-.165-.012-.291.093-.435.088a1.489,1.489,0,0,0-.855.3,1.4,1.4,0,0,1-.151.083l-.051.009a4.7,4.7,0,0,0-.569.192l-.045.01a.5.5,0,0,0-.136.032.685.685,0,0,1-.571.037c-.058.044-.1.078-.151.114a.75.75,0,0,1-.48.189.7.7,0,0,0-.363.122.61.61,0,0,1-.218.1,2.837,2.837,0,0,0-.865.279l-.175-.061a.806.806,0,0,0-.42.256l-.014.015a4.846,4.846,0,0,0-.607.15.67.67,0,0,0-.607.2,1.037,1.037,0,0,1-.223.105,4.5,4.5,0,0,0-.507.261,1.063,1.063,0,0,1-.194-.04c-.062-.018-.126-.027-.181-.039a2.473,2.473,0,0,1-.323.263.388.388,0,0,0-.326.12.538.538,0,0,1-.128.079.474.474,0,0,1-.076,0,1.1,1.1,0,0,0-.755.159c-.161.093-.321.188-.49.267-.124.058-.25.11-.375.165a2.9,2.9,0,0,1-.818.211.25.25,0,0,0-.139.025,1.971,1.971,0,0,0-.352.1c-.129.051-.254.11-.38.169-.147.031-.285.1-.435.121a.309.309,0,0,1-.283.088.106.106,0,0,0-.074.034.724.724,0,0,1-.311.121c-.124.037-.258.049-.385.08a.365.365,0,0,0-.076.014,5.369,5.369,0,0,1-.8.275,1.269,1.269,0,0,1-.477.09.566.566,0,0,0-.267.073c-.314.133-.626.271-.938.41-.026.011-.052.018-.078.028l-.11-.032c-.078.04-.142.08-.207.109-.027,0-.052.01-.08.01a.7.7,0,0,0-.272.059l-.152.064c-.108.025-.216.052-.324.078a.4.4,0,0,0-.26.155l0,.005a3.088,3.088,0,0,1-.347.1.775.775,0,0,0-.223.1.358.358,0,0,0-.147.064.47.47,0,0,1-.288.1,1.225,1.225,0,0,0-.284.075c-.025,0-.05.009-.075.015a8.13,8.13,0,0,1-1.022.258,1,1,0,0,0-.486.193.756.756,0,0,1-.317.134,1.808,1.808,0,0,0-.434.122,1.336,1.336,0,0,0-.455.183c-.16.1-.357.1-.521.192a1.149,1.149,0,0,0-.151.071.155.155,0,0,1-.031,0,.359.359,0,0,0-.179.006.639.639,0,0,0-.364.142.61.61,0,0,1-.22.1,3.365,3.365,0,0,0-1.081.353.686.686,0,0,1-.2.035.545.545,0,0,0-.446.126c-.017.018-.052.019-.079.027-.154.045-.305.1-.461.132s-.28.156-.452.124c-.014,0-.035.015-.048.027a.588.588,0,0,1-.336.132.254.254,0,0,0-.167.091.226.226,0,0,1-.035.044l-.015,0c-.116.035-.235.065-.348.109a1.524,1.524,0,0,0-.488.135c-.309.143-.622.276-.935.408a.408.408,0,0,1-.215.045.972.972,0,0,0-.4.065.489.489,0,0,0,.057.139.487.487,0,0,1,.054.07c.188.1.369.211.553.319.048.028.1.059.142.091a.7.7,0,0,0,.34.129.771.771,0,0,1,.084.008,1.586,1.586,0,0,0,.276.055,1.54,1.54,0,0,0,.281-.044,1.137,1.137,0,0,1-.367.856c-.026.026-.064.054-.068.085a1.307,1.307,0,0,1-.323.581c-.027.037-.052.076-.071.1,0,.025,0,.037,0,.043s.008.018.014.027a.347.347,0,0,1,.047.092.358.358,0,0,1,.018.1.234.234,0,0,1,.005.03c0,.008.011.015.025.036l.12.04a1.317,1.317,0,0,1,.61.268c.022.022.07.023.106.027a1.151,1.151,0,0,1,.813.462,1.562,1.562,0,0,0-.251.134,1.622,1.622,0,0,0-.186.209c-.019.021-.042.038-.062.058a.687.687,0,0,0-.193.306c-.017.054-.037.107-.058.159q-.091.222-.187.442a2.478,2.478,0,0,1,.23.177c.064-.016.127-.029.189-.047a.5.5,0,0,1,.333.009c.09.037.172.072.195.183a.289.289,0,0,0,.21.209c.087.031.17.074.246.108a.308.308,0,0,1-.066.283,3.212,3.212,0,0,0-.449.873,2.562,2.562,0,0,1-.154.3c-.005.009-.011.017-.017.026a.59.59,0,0,0,.152.1,3.085,3.085,0,0,1,.7-.141.882.882,0,0,0,.237-.062,1.321,1.321,0,0,1,.739-.185.071.071,0,0,0,.034-.008l.025-.009.01.013.015-.023a3.272,3.272,0,0,1,.714-.244,2.413,2.413,0,0,1,.784-.284,1.4,1.4,0,0,0,.477-.212,1.635,1.635,0,0,1,.575-.254c.253-.07.539-.079.726-.309a.189.189,0,0,1,.092-.048,1.342,1.342,0,0,1,.438-.117c.165.012.291-.092.435-.088a1.486,1.486,0,0,0,.854-.3,1.614,1.614,0,0,1,.151-.083.471.471,0,0,0,.052-.009,4.756,4.756,0,0,0,.569-.192l.044-.01a.484.484,0,0,0,.136-.032.685.685,0,0,1,.571-.037c.058-.044.106-.078.152-.114a.75.75,0,0,1,.48-.189.7.7,0,0,0,.363-.122.614.614,0,0,1,.217-.1,2.843,2.843,0,0,0,.866-.279l.174.061a.812.812,0,0,0,.421-.256l.014-.015a4.831,4.831,0,0,0,.606-.15.669.669,0,0,0,.607-.2,1.037,1.037,0,0,1,.223-.1,4.412,4.412,0,0,0,.507-.261,1.073,1.073,0,0,1,.195.04c.061.018.126.027.181.039a2.408,2.408,0,0,1,.323-.263.39.39,0,0,0,.326-.12.55.55,0,0,1,.128-.079.457.457,0,0,1,.075,0,1.1,1.1,0,0,0,.755-.159c.161-.093.322-.188.49-.267.124-.057.25-.11.376-.165a2.894,2.894,0,0,1,.817-.211.254.254,0,0,0,.14-.025,1.985,1.985,0,0,0,.351-.1c.129-.051.255-.11.38-.169.147-.031.285-.1.436-.121a.308.308,0,0,1,.283-.088.11.11,0,0,0,.074-.034.725.725,0,0,1,.31-.121c.124-.037.258-.049.385-.08a.388.388,0,0,0,.077-.014,5.353,5.353,0,0,1,.8-.274,1.254,1.254,0,0,1,.477-.091.563.563,0,0,0,.267-.073c.315-.133.627-.271.939-.409.025-.012.051-.019.077-.029l.11.033c.078-.041.142-.081.207-.11.028,0,.053-.01.081-.01a.687.687,0,0,0,.272-.059l.152-.064c.108-.025.215-.052.323-.078a.407.407,0,0,0,.261-.155l0,0a3.072,3.072,0,0,1,.346-.1.768.768,0,0,0,.224-.1.358.358,0,0,0,.147-.064.468.468,0,0,1,.288-.1,1.252,1.252,0,0,0,.284-.075c.025,0,.05-.008.074-.015a8.219,8.219,0,0,1,1.022-.258,1,1,0,0,0,.486-.193.756.756,0,0,1,.317-.134,1.771,1.771,0,0,0,.435-.122,1.352,1.352,0,0,0,.455-.183c.159-.1.356-.1.52-.192a1.091,1.091,0,0,0,.151-.071.148.148,0,0,1,.031,0,.359.359,0,0,0,.179-.006.642.642,0,0,0,.365-.142.606.606,0,0,1,.219-.1,3.371,3.371,0,0,0,1.082-.353.681.681,0,0,1,.2-.035.545.545,0,0,0,.446-.126c.016-.018.052-.019.079-.027.153-.045.3-.1.46-.132s.281-.156.452-.124c.014,0,.035-.015.048-.027a.588.588,0,0,1,.336-.132.256.256,0,0,0,.168-.091.226.226,0,0,1,.035-.044l.014,0c.117-.035.236-.065.348-.109a1.529,1.529,0,0,0,.489-.135c.308-.143.621-.276.934-.408a.413.413,0,0,1,.216-.045.968.968,0,0,0,.4-.065A.462.462,0,0,0,198.132,103.5Z"/><path class="cls-3" d="M194.239,181.4a.516.516,0,0,1-.036-.081c-.158-.141-.308-.292-.461-.44-.04-.039-.079-.08-.116-.122a.7.7,0,0,0-.3-.2c-.027-.01-.055-.017-.08-.028a1.541,1.541,0,0,0-.255-.118,1.493,1.493,0,0,0-.283-.024,1.143,1.143,0,0,1,.56-.746c.032-.018.075-.037.086-.066a1.3,1.3,0,0,1,.453-.488c.035-.03.069-.062.094-.084,0-.025.011-.036.008-.043a.264.264,0,0,1-.007-.03.35.35,0,0,1-.024-.1.318.318,0,0,1,.007-.1.151.151,0,0,1,0-.03c0-.008-.007-.018-.016-.041-.028-.018-.067-.043-.107-.067a1.308,1.308,0,0,1-.529-.405c-.016-.026-.062-.038-.1-.051a1.144,1.144,0,0,1-.68-.64,1.567,1.567,0,0,0,.276-.071,1.758,1.758,0,0,0,.231-.159.665.665,0,0,1,.074-.041.7.7,0,0,0,.26-.253c.029-.048.061-.095.094-.14.095-.13.19-.259.287-.386a2.754,2.754,0,0,1-.181-.226c-.066,0-.131,0-.195,0a.5.5,0,0,1-.321-.087c-.079-.057-.15-.11-.147-.224a.285.285,0,0,0-.154-.252c-.076-.051-.147-.112-.212-.163a.3.3,0,0,1,.131-.259,3.238,3.238,0,0,0,.644-.743,2.644,2.644,0,0,1,.221-.254.229.229,0,0,1,.023-.021.6.6,0,0,0-.123-.138,3.123,3.123,0,0,1-.71-.027.915.915,0,0,0-.245,0,1.31,1.31,0,0,1-.762.006c-.009,0-.023,0-.035,0l-.026,0-.007-.015-.02.018a3.325,3.325,0,0,1-.751.07,2.429,2.429,0,0,1-.83.091,1.4,1.4,0,0,0-.514.093,1.625,1.625,0,0,1-.619.111,1.235,1.235,0,0,0-.779.13.2.2,0,0,1-.1.025,1.309,1.309,0,0,1-.453.01c-.157-.05-.3.022-.444-.016a1.494,1.494,0,0,0-.9.086,1.544,1.544,0,0,1-.167.046c-.017,0-.035,0-.052,0a4.811,4.811,0,0,0-.6.053h-.045a.469.469,0,0,0-.14,0,.687.687,0,0,1-.564-.1c-.067.029-.121.051-.174.075a.754.754,0,0,1-.511.07.7.7,0,0,0-.382.034.624.624,0,0,1-.236.047,2.845,2.845,0,0,0-.907.068l-.155-.1a.8.8,0,0,0-.47.15l-.017.01a4.656,4.656,0,0,0-.625,0,.669.669,0,0,0-.637.051,1.06,1.06,0,0,1-.242.049,4.424,4.424,0,0,0-.554.134,1.124,1.124,0,0,1-.18-.084c-.055-.033-.116-.056-.167-.081a2.546,2.546,0,0,1-.376.18.39.39,0,0,0-.346.039.511.511,0,0,1-.143.047.422.422,0,0,1-.074-.015,1.1,1.1,0,0,0-.771-.023c-.179.052-.357.107-.539.144-.135.027-.27.048-.405.072a2.912,2.912,0,0,1-.844.013.245.245,0,0,0-.142-.009,2.04,2.04,0,0,0-.366.017c-.137.019-.273.047-.409.075-.151,0-.3.033-.452.014a.3.3,0,0,1-.3.019.108.108,0,0,0-.08.016.732.732,0,0,1-.331.045c-.129.006-.262-.013-.393-.013a.336.336,0,0,0-.077,0,5.251,5.251,0,0,1-.841.079,1.265,1.265,0,0,1-.485-.024.557.557,0,0,0-.277.008c-.337.055-.673.116-1.009.177-.027,0-.055,0-.082.009l-.1-.057c-.086.021-.157.044-.228.057a.753.753,0,0,1-.08-.009.7.7,0,0,0-.278-.007c-.055.008-.109.018-.163.027-.111,0-.222,0-.333,0a.415.415,0,0,0-.29.089l-.006,0a2.891,2.891,0,0,1-.361.02.737.737,0,0,0-.242.047.351.351,0,0,0-.158.028.474.474,0,0,1-.3.032,1.2,1.2,0,0,0-.294.006c-.026,0-.051,0-.076,0a8.061,8.061,0,0,1-1.054.01,1,1,0,0,0-.519.073.764.764,0,0,1-.34.056,1.78,1.78,0,0,0-.451.016,1.355,1.355,0,0,0-.486.07c-.178.056-.371.018-.551.064a1.326,1.326,0,0,0-.164.034.2.2,0,0,1-.029-.01.351.351,0,0,0-.176-.036.635.635,0,0,0-.388.051.59.59,0,0,1-.235.042,3.383,3.383,0,0,0-1.135.088.653.653,0,0,1-.206-.013.541.541,0,0,0-.463.017c-.021.013-.055.006-.084.008-.159.007-.319.023-.478.019s-.31.086-.469.015c-.013-.006-.038,0-.053.014a.58.58,0,0,1-.358.049.256.256,0,0,0-.184.05.332.332,0,0,1-.045.034h-.015c-.121.007-.244.008-.364.024a1.544,1.544,0,0,0-.507.016c-.333.066-.669.122-1.005.177a.418.418,0,0,1-.22-.007.974.974,0,0,0-.4-.031.44.44,0,0,0,.022.148.508.508,0,0,1,.035.081c.159.141.309.292.461.44.041.039.08.08.117.122a.693.693,0,0,0,.3.2c.026.01.054.017.08.028a1.532,1.532,0,0,0,.254.118,1.511,1.511,0,0,0,.284.024,1.142,1.142,0,0,1-.561.746c-.031.018-.075.037-.086.066a1.309,1.309,0,0,1-.452.488c-.035.03-.069.062-.094.084,0,.025-.012.036-.009.043a.263.263,0,0,1,.008.03.337.337,0,0,1,.017.2c0,.01,0,.019,0,.03s.006.018.015.041l.107.067a1.311,1.311,0,0,1,.53.405c.015.026.062.038.1.051a1.14,1.14,0,0,1,.679.64,1.556,1.556,0,0,0-.275.071,1.694,1.694,0,0,0-.231.159.665.665,0,0,1-.074.041.7.7,0,0,0-.26.253c-.03.048-.061.095-.094.14-.095.13-.19.259-.287.386a2.754,2.754,0,0,1,.181.226c.066,0,.13,0,.195,0a.5.5,0,0,1,.321.087c.079.057.15.11.146.224a.287.287,0,0,0,.154.252c.077.051.147.112.213.163a.305.305,0,0,1-.132.259,3.287,3.287,0,0,0-.644.743,2.512,2.512,0,0,1-.221.254.218.218,0,0,1-.022.021.578.578,0,0,0,.123.138,3.123,3.123,0,0,1,.71.027.915.915,0,0,0,.245,0,1.307,1.307,0,0,1,.761-.006.069.069,0,0,0,.035,0l.026,0,.008.015.02-.018a3.32,3.32,0,0,1,.751-.07,2.423,2.423,0,0,1,.83-.091,1.405,1.405,0,0,0,.514-.093,1.621,1.621,0,0,1,.619-.111,1.235,1.235,0,0,0,.779-.13.193.193,0,0,1,.1-.025,1.315,1.315,0,0,1,.454-.01c.157.05.3-.022.443.016a1.5,1.5,0,0,0,.9-.086,1.483,1.483,0,0,1,.167-.046c.017,0,.034,0,.052,0a4.811,4.811,0,0,0,.6-.053h.045a.469.469,0,0,0,.14,0,.684.684,0,0,1,.563.1c.067-.029.122-.051.175-.075a.754.754,0,0,1,.511-.07.7.7,0,0,0,.382-.034.623.623,0,0,1,.235-.047,2.853,2.853,0,0,0,.908-.068l.155.1a.8.8,0,0,0,.469-.15l.017-.01a4.654,4.654,0,0,0,.625,0,.671.671,0,0,0,.638-.051,1.063,1.063,0,0,1,.241-.049,4.4,4.4,0,0,0,.555-.134,1.166,1.166,0,0,1,.18.084c.055.033.115.056.166.081a2.606,2.606,0,0,1,.377-.18.388.388,0,0,0,.345-.039.534.534,0,0,1,.143-.047.415.415,0,0,1,.075.015,1.1,1.1,0,0,0,.771.023c.178-.052.357-.107.539-.144.134-.027.27-.048.4-.072a2.912,2.912,0,0,1,.844-.013.245.245,0,0,0,.142.009,2.045,2.045,0,0,0,.366-.017c.137-.019.273-.047.409-.075.15,0,.3-.033.452-.015a.306.306,0,0,1,.3-.018.113.113,0,0,0,.08-.016.728.728,0,0,1,.33-.045c.13-.006.263.013.394.013a.336.336,0,0,0,.077,0,5.241,5.241,0,0,1,.841-.079,1.26,1.26,0,0,1,.484.024.557.557,0,0,0,.277-.008c.337-.055.673-.116,1.009-.177.028-.005.055-.005.083-.009l.1.057c.085-.021.157-.044.227-.057a.725.725,0,0,1,.08.009.707.707,0,0,0,.279.007l.163-.027c.111,0,.221,0,.332,0a.416.416,0,0,0,.291-.089l.006,0a2.88,2.88,0,0,1,.361-.02.8.8,0,0,0,.242-.047.365.365,0,0,0,.158-.028.474.474,0,0,1,.3-.032,1.2,1.2,0,0,0,.294-.006c.025,0,.051,0,.076,0a8.06,8.06,0,0,1,1.054-.01,1,1,0,0,0,.518-.073.769.769,0,0,1,.341-.056,1.78,1.78,0,0,0,.451-.016,1.349,1.349,0,0,0,.485-.07c.178-.056.371-.018.552-.064a1.311,1.311,0,0,0,.163-.034.211.211,0,0,1,.03.01.345.345,0,0,0,.175.036.633.633,0,0,0,.388-.051.594.594,0,0,1,.236-.042,3.387,3.387,0,0,0,1.135-.088.655.655,0,0,1,.206.013.544.544,0,0,0,.463-.017c.02-.013.055-.006.083-.008.16-.007.319-.023.479-.019s.31-.086.469-.015c.013.006.037,0,.053-.014a.58.58,0,0,1,.358-.049.257.257,0,0,0,.184-.05.273.273,0,0,1,.044-.034h.015c.122-.007.245-.008.365-.024a1.538,1.538,0,0,0,.506-.016c.334-.066.67-.122,1-.177a.418.418,0,0,1,.22.007.979.979,0,0,0,.4.031A.467.467,0,0,0,194.239,181.4Z"/><path class="cls-3" d="M75.056,194.789a.528.528,0,0,1,0-.088c-.1-.189-.179-.384-.267-.577-.023-.051-.045-.1-.064-.156a.7.7,0,0,0-.2-.3.684.684,0,0,1-.064-.055,1.618,1.618,0,0,0-.194-.2,1.523,1.523,0,0,0-.256-.125,1.152,1.152,0,0,1,.8-.491c.037,0,.084-.007.105-.03a1.313,1.313,0,0,1,.6-.29c.043-.015.087-.032.118-.044.014-.021.024-.029.023-.037s0-.019,0-.03a.334.334,0,0,1,.014-.1.362.362,0,0,1,.044-.093c.005-.009.007-.018.013-.027s0-.019,0-.044c-.02-.027-.047-.065-.075-.1a1.3,1.3,0,0,1-.344-.569c-.005-.031-.044-.058-.071-.082a1.14,1.14,0,0,1-.4-.843,1.6,1.6,0,0,0,.282.034,1.652,1.652,0,0,0,.274-.065c.027-.006.056-.007.084-.011a.69.69,0,0,0,.335-.141c.045-.034.092-.066.139-.1.136-.086.272-.172.409-.255a2.539,2.539,0,0,1-.085-.276c-.062-.024-.121-.049-.182-.07a.5.5,0,0,1-.267-.2.254.254,0,0,1-.054-.261.286.286,0,0,0-.051-.291c-.052-.075-.095-.157-.138-.229a.306.306,0,0,1,.218-.193,3.281,3.281,0,0,0,.873-.458,2.564,2.564,0,0,1,.3-.156l.029-.011a.639.639,0,0,0-.064-.174,3,3,0,0,1-.651-.283.977.977,0,0,0-.23-.085,1.3,1.3,0,0,1-.711-.271.066.066,0,0,0-.032-.013l-.026-.006v-.017l-.026.01a3.313,3.313,0,0,1-.724-.208,2.417,2.417,0,0,1-.806-.217,1.4,1.4,0,0,0-.513-.1,1.623,1.623,0,0,1-.617-.121,1.225,1.225,0,0,0-.773-.162.2.2,0,0,1-.1-.014,1.319,1.319,0,0,1-.425-.155c-.128-.1-.292-.091-.407-.176a1.487,1.487,0,0,0-.871-.247,1.57,1.57,0,0,1-.171-.018c-.016-.007-.031-.016-.047-.022a4.7,4.7,0,0,0-.577-.169l-.042-.017a.5.5,0,0,0-.13-.052.679.679,0,0,1-.488-.3c-.074,0-.132,0-.19.006a.748.748,0,0,1-.5-.12.7.7,0,0,0-.368-.107.627.627,0,0,1-.236-.042,2.878,2.878,0,0,0-.87-.267l-.108-.149a.806.806,0,0,0-.492-.031l-.019,0a4.742,4.742,0,0,0-.584-.223.671.671,0,0,0-.612-.185,1.039,1.039,0,0,1-.243-.041,4.287,4.287,0,0,0-.565-.077,1.04,1.04,0,0,1-.136-.144c-.04-.05-.088-.094-.126-.135a2.516,2.516,0,0,1-.416.03.393.393,0,0,0-.336-.089.515.515,0,0,1-.151-.008.458.458,0,0,1-.064-.041,1.091,1.091,0,0,0-.709-.3c-.185-.017-.372-.031-.555-.063-.134-.023-.268-.053-.4-.08a2.87,2.87,0,0,1-.79-.294.245.245,0,0,0-.129-.06,2,2,0,0,0-.347-.117c-.135-.032-.272-.056-.409-.079-.138-.059-.292-.079-.426-.151a.305.305,0,0,1-.282-.09.111.111,0,0,0-.08-.014.714.714,0,0,1-.324-.079c-.123-.041-.24-.107-.362-.154a.319.319,0,0,0-.07-.033,5.241,5.241,0,0,1-.811-.232,1.259,1.259,0,0,1-.443-.2.567.567,0,0,0-.26-.094c-.334-.071-.67-.136-1.005-.2-.027,0-.053-.014-.08-.021l-.071-.089c-.087-.012-.163-.016-.233-.03a.6.6,0,0,1-.071-.037.681.681,0,0,0-.257-.107c-.053-.013-.107-.024-.161-.035l-.309-.121a.414.414,0,0,0-.3-.023l-.006,0a3.292,3.292,0,0,1-.344-.113.748.748,0,0,0-.243-.044.346.346,0,0,0-.157-.032.475.475,0,0,1-.3-.08,1.256,1.256,0,0,0-.276-.1c-.023-.01-.045-.021-.069-.03a8.012,8.012,0,0,1-.985-.374,1.006,1.006,0,0,0-.509-.12.753.753,0,0,1-.338-.072,1.747,1.747,0,0,0-.425-.148,1.332,1.332,0,0,0-.478-.111c-.187-.013-.352-.119-.537-.141a1.137,1.137,0,0,0-.165-.028.236.236,0,0,1-.023-.02.352.352,0,0,0-.151-.1.64.64,0,0,0-.38-.093.6.6,0,0,1-.235-.046,3.38,3.38,0,0,0-1.088-.331.649.649,0,0,1-.187-.087.542.542,0,0,0-.437-.152c-.024,0-.054-.014-.081-.023-.151-.051-.3-.095-.452-.156s-.32-.033-.442-.157c-.01-.01-.037-.008-.055-.005a.6.6,0,0,1-.351-.085.258.258,0,0,0-.19-.021.231.231,0,0,1-.054.015l-.013,0c-.116-.038-.231-.082-.348-.11a1.515,1.515,0,0,0-.478-.169c-.335-.06-.668-.13-1-.2a.414.414,0,0,1-.2-.085.961.961,0,0,0-.363-.176.473.473,0,0,0-.034.146.449.449,0,0,1,0,.089c.1.188.18.383.268.576.023.051.045.1.064.156a.689.689,0,0,0,.2.3c.021.019.045.035.064.056a1.769,1.769,0,0,0,.194.2,1.551,1.551,0,0,0,.255.125,1.143,1.143,0,0,1-.8.49c-.036.006-.083.008-.1.031a1.323,1.323,0,0,1-.6.29c-.044.015-.087.032-.118.044-.014.021-.024.029-.024.037a.154.154,0,0,1,0,.03.334.334,0,0,1-.014.1.355.355,0,0,1-.044.092c-.006.01-.007.019-.013.028s0,.019,0,.043c.02.028.047.065.075.1a1.3,1.3,0,0,1,.344.569c0,.03.044.058.071.082a1.138,1.138,0,0,1,.4.843,1.614,1.614,0,0,0-.283-.034,1.77,1.77,0,0,0-.273.064.809.809,0,0,1-.084.012.686.686,0,0,0-.335.141c-.045.034-.092.066-.14.1-.135.086-.271.172-.408.255a2.473,2.473,0,0,1,.085.276c.061.024.121.049.182.07a.5.5,0,0,1,.267.2.254.254,0,0,1,.054.261.286.286,0,0,0,.051.291c.052.075.095.157.138.229a.31.31,0,0,1-.218.193,3.266,3.266,0,0,0-.873.458,2.564,2.564,0,0,1-.3.156l-.029.011a.621.621,0,0,0,.064.173,3.106,3.106,0,0,1,.651.283.876.876,0,0,0,.229.085,1.311,1.311,0,0,1,.712.272.093.093,0,0,0,.032.013l.026.006v.017l.026-.01a3.274,3.274,0,0,1,.724.208,2.423,2.423,0,0,1,.806.217,1.415,1.415,0,0,0,.513.1,1.607,1.607,0,0,1,.617.121,1.238,1.238,0,0,0,.773.162.188.188,0,0,1,.1.014,1.319,1.319,0,0,1,.425.155c.128.1.292.09.407.176a1.486,1.486,0,0,0,.87.247,1.563,1.563,0,0,1,.172.018c.016.007.031.016.047.022a4.647,4.647,0,0,0,.577.169l.042.017a.491.491,0,0,0,.13.052.679.679,0,0,1,.488.3c.073,0,.132,0,.19-.007a.756.756,0,0,1,.5.121.7.7,0,0,0,.368.107.627.627,0,0,1,.236.042,2.878,2.878,0,0,0,.87.267l.108.149a.8.8,0,0,0,.491.031l.02,0a4.96,4.96,0,0,0,.583.223.67.67,0,0,0,.613.184,1.1,1.1,0,0,1,.243.042,4.437,4.437,0,0,0,.565.077,1.04,1.04,0,0,1,.136.144c.04.05.087.094.126.135a2.508,2.508,0,0,1,.416-.03.389.389,0,0,0,.336.088.543.543,0,0,1,.15.009.4.4,0,0,1,.064.04,1.092,1.092,0,0,0,.71.3c.185.017.372.03.554.063.135.023.269.052.4.079a2.911,2.911,0,0,1,.791.295.249.249,0,0,0,.129.06,2,2,0,0,0,.347.117c.135.032.271.056.408.079.139.059.293.078.426.15a.311.311,0,0,1,.283.09.111.111,0,0,0,.08.015.716.716,0,0,1,.324.078c.123.041.24.108.362.155a.319.319,0,0,0,.07.033,5.384,5.384,0,0,1,.811.231,1.279,1.279,0,0,1,.443.2.555.555,0,0,0,.26.093c.334.072.669.137,1,.2.027.006.053.015.08.021l.071.09c.087.011.162.016.232.029a.709.709,0,0,1,.072.038.7.7,0,0,0,.257.107l.161.035.309.121a.407.407,0,0,0,.3.022h.007a3.072,3.072,0,0,1,.344.113.748.748,0,0,0,.243.044.344.344,0,0,0,.157.031.482.482,0,0,1,.3.081,1.267,1.267,0,0,0,.275.1c.024.009.046.021.07.03a8.012,8.012,0,0,1,.985.374,1.006,1.006,0,0,0,.509.12.745.745,0,0,1,.337.071,1.772,1.772,0,0,0,.426.149,1.332,1.332,0,0,0,.478.111c.186.013.352.119.537.141a1.137,1.137,0,0,0,.165.028.15.15,0,0,1,.023.02.355.355,0,0,0,.15.1.643.643,0,0,0,.38.093.59.59,0,0,1,.235.046,3.367,3.367,0,0,0,1.089.33.693.693,0,0,1,.187.088.542.542,0,0,0,.437.152c.024,0,.054.014.08.023.152.051.306.095.453.156s.32.033.442.156c.01.011.037.009.055.006a.589.589,0,0,1,.351.085.258.258,0,0,0,.19.021.243.243,0,0,1,.053-.016l.014.006c.116.038.231.082.348.11a1.506,1.506,0,0,0,.478.169c.334.06.668.13,1,.2a.42.42,0,0,1,.2.086.971.971,0,0,0,.364.175A.49.49,0,0,0,75.056,194.789Z"/><path class="cls-3" d="M132.734,53.785c-.421.875-.8,1.653-1.2,2.505.64.089,1.29.18,1.964.288l-.568,1.252c-.676-.095-1.337-.2-1.976-.29-.357.743-.747,1.585-1.217,2.594l-1.305-.534c.406-.865.75-1.6,1.055-2.272-.691-.085-1.367-.181-2.058-.266-.3.624-.622,1.333-1.01,2.162l-1.3-.533.853-1.814c-.679-.082-1.357-.165-2.061-.253l.566-1.239c.717.089,1.4.16,2.075.256.428-.914.79-1.682,1.2-2.519-.639-.089-1.278-.165-1.946-.246l.567-1.239,1.973.237c.372-.753.791-1.615,1.3-2.657l1.3.533c-.436.886-.8,1.641-1.127,2.311.691.086,1.37.168,2.058.267l1.151-2.372,1.3.534-.987,2.036c.665.094,1.339.2,2.04.3l-.583,1.263C134.086,53.976,133.409,53.88,132.734,53.785Zm-1.468-.212c-.675-.1-1.367-.181-2.046-.264-.418.862-.793,1.628-1.2,2.506.688.1,1.367.18,2.055.278C130.483,55.216,130.86,54.437,131.266,53.573Z"/><path class="cls-3" d="M135.856,59.23a4.537,4.537,0,0,0-.09.635,9.115,9.115,0,0,0,2.95-.459l-.337,1.059a4.611,4.611,0,0,1-2.74.524,1.761,1.761,0,0,1-1.423-2.315c.44-2.421,2.745-4.507,5.191-4.066a2.147,2.147,0,0,1,1.3.689l-.571,1.2a2.444,2.444,0,0,0-.958-.42C137.429,55.762,136.138,57.679,135.856,59.23Z"/><path class="cls-3" d="M146.213,57.707a5.106,5.106,0,0,1-5.019,4.346c-.514-.34-1-.663-1.457-.992a7.476,7.476,0,0,1,.1-1.818c.476-2.611,2.544-4.414,5.168-3.941a5.664,5.664,0,0,1,.773.2l.091,1.3.432.143A4.973,4.973,0,0,1,146.213,57.707Zm-1.36-.505a3.9,3.9,0,0,0,.059-.406c-1.883-.221-3.127,1-3.508,3.094a6.056,6.056,0,0,0-.1,1.05C143.357,60.892,144.562,58.8,144.853,57.2Z"/><path class="cls-3" d="M157.694,58.862a25.064,25.064,0,0,0-3.174,5.784l-1.472-.539a27.967,27.967,0,0,1,2.1-4.362,34.949,34.949,0,0,0-3.665,2.3c-.182.5-.369.95-.575,1.434l-1.508-.559c.651-1.419,1.305-2.708,2.127-4.136-1.27.723-2.469,1.418-3.518,2.141-.308.687-.611,1.271-.959,1.964l-1.438-.663c.889-1.715,1.749-3.423,2.839-5.884l1.568.595a19.558,19.558,0,0,1-1.081,2.267c1.11-.777,2.377-1.487,3.683-2.255l1.258,1.073c-.521.845-.948,1.536-1.388,2.225,1.131-.812,2.436-1.58,3.892-2.464Z"/><path class="cls-3" d="M168.572,60.819A24.955,24.955,0,0,0,165.4,66.6l-1.472-.539a27.738,27.738,0,0,1,2.1-4.361,34.7,34.7,0,0,0-3.666,2.3c-.181.5-.369.95-.575,1.434l-1.509-.559c.653-1.419,1.306-2.708,2.128-4.136-1.27.723-2.47,1.418-3.518,2.141-.308.687-.611,1.271-.959,1.964l-1.438-.663c.889-1.715,1.749-3.423,2.839-5.884l1.568.595a19.242,19.242,0,0,1-1.082,2.267c1.111-.777,2.378-1.486,3.684-2.255l1.258,1.073c-.52.844-.948,1.536-1.388,2.225,1.131-.812,2.436-1.58,3.893-2.464Z"/><path class="cls-3" d="M169.646,64.5a5.418,5.418,0,0,0-.256,1.256,6.412,6.412,0,0,0,2.968-.338l-.339,1.072a4.389,4.389,0,0,1-2.608.442c-1.242-.223-1.808-1.067-1.456-2.5a5.172,5.172,0,0,1,4.485-4.063l1.978.994a3.96,3.96,0,0,1-.026,1.154c-.245,1.349-1.468,2.236-3.33,1.9a9.3,9.3,0,0,1-1.26-.344A3.15,3.15,0,0,0,169.646,64.5Zm.63-1.241a3.516,3.516,0,0,0,.635.18,1.623,1.623,0,0,0,1.965-1.3,2.294,2.294,0,0,0,.014-.649A4.823,4.823,0,0,0,170.276,63.261Z"/><path class="cls-3" d="M181.783,63.2a21.1,21.1,0,0,0-3.146,5.632l-1.524-.547A28.3,28.3,0,0,1,179.3,63.9a34.74,34.74,0,0,0-3.534,2.086c-.285.626-.555,1.176-.808,1.7l-1.453-.652c.772-1.58,1.687-3.226,2.739-5.694l1.563.62a20.011,20.011,0,0,1-1.148,2.347,34.8,34.8,0,0,1,3.816-2.192Z"/><path class="cls-3" d="M186.7,64.327c-.5-.051-1-.115-1.5-.2a51.53,51.53,0,0,0-2.628,5.023l-1.413-.58c.447-1.013,1.178-2.731,2.286-4.8-.512-.131-.948-.249-1.219-.336l.366-.937c.4.1.878.21,1.383.314.463-.815.985-1.672,1.551-2.56l1.618.825c-.48.7-.919,1.384-1.346,2.076.409.047.832.1,1.349.138Z"/><path class="cls-3" d="M175.428,213.754c-.079.967-.153,1.828-.224,2.767.628-.143,1.27-.289,1.938-.427l-.081,1.371c-.666.151-1.323.287-1.952.429-.066.822-.127,1.746-.207,2.856l-1.408-.037c.069-.952.126-1.758.17-2.5-.677.166-1.343.316-2.019.481-.053.688-.1,1.467-.166,2.379l-1.411-.037.148-2c-.664.163-1.328.326-2.017.493l.084-1.358c.7-.17,1.364-.345,2.03-.5.072-1,.134-1.851.221-2.781-.628.145-1.255.3-1.905.461l.084-1.358,1.928-.478c.078-.836.16-1.79.257-2.943l1.409.037c-.09.981-.156,1.815-.225,2.559.677-.166,1.341-.329,2.02-.482l.224-2.623,1.409.036-.19,2.252c.654-.148,1.322-.286,2.015-.442l-.092,1.387C176.761,213.453,176.1,213.6,175.428,213.754Zm-1.445.323c-.667.15-1.343.315-2.007.479-.082.954-.158,1.8-.224,2.766.679-.152,1.342-.316,2.022-.468C173.84,215.889,173.913,215.028,173.983,214.077Z"/><path class="cls-3" d="M182.812,213.209c-.487.13-.976.247-1.47.34a51.058,51.058,0,0,0-.653,5.625l-1.529-.041c.054-1.105.121-2.969.415-5.293-.526.059-.975.1-1.261.118l.006-1c.411-.05.9-.115,1.405-.2.138-.926.32-1.912.531-2.942l1.807.2c-.2.819-.363,1.62-.513,2.417.4-.1.813-.2,1.31-.35Z"/><path class="cls-3" d="M188.378,212.834a5.081,5.081,0,0,1-3.13,5.84c-.6-.135-1.176-.263-1.716-.409a7.55,7.55,0,0,1-.563-1.734c-.493-2.607.794-5.025,3.414-5.514a5.79,5.79,0,0,1,.8-.084l.552,1.187.455-.019A4.97,4.97,0,0,1,188.378,212.834Zm-1.453.011c-.026-.139-.053-.277-.089-.4-1.84.46-2.562,2.043-2.168,4.133a6.1,6.1,0,0,0,.284,1.017C186.852,216.823,187.228,214.445,186.925,212.845Z"/><path class="cls-3" d="M198.45,206.063c-.437,2.4-1.48,7.149-1.307,10.349l-1.6-.026a25.344,25.344,0,0,1,.069-2.829,24.855,24.855,0,0,1-2.223,3.362c-.312-.124-.909-.235-1.478-.4a8.116,8.116,0,0,1-.305-1.129,5.218,5.218,0,0,1,3.154-5.987l.673,1.412c-1.815.939-2.577,2.242-2.178,4.566.766-1.081,1.884-2.724,2.564-3.777.211-1.579.529-3.372.909-5.725Z"/><path class="cls-3" d="M204.13,209.892a5.079,5.079,0,0,1-3.13,5.839c-.6-.134-1.176-.262-1.716-.409a7.487,7.487,0,0,1-.563-1.734c-.493-2.607.794-5.024,3.414-5.514a5.641,5.641,0,0,1,.8-.083l.551,1.187.456-.02A5.111,5.111,0,0,1,204.13,209.892Zm-1.453.01c-.027-.138-.053-.277-.089-.4-1.84.461-2.563,2.043-2.168,4.134a6.087,6.087,0,0,0,.284,1.016C202.6,213.88,202.98,211.5,202.677,209.9Z"/><path class="cls-3" d="M44.278,160.068c.1.965.186,1.824.288,2.76.591-.255,1.2-.515,1.828-.772l.172,1.362c-.628.269-1.25.522-1.841.777.085.819.194,1.738.32,2.843l-1.393.22c-.106-.947-.2-1.75-.291-2.483-.634.285-1.261.555-1.9.84.074.686.168,1.461.272,2.368l-1.392.22-.222-1.988-1.892.853-.167-1.351c.658-.3,1.277-.588,1.9-.857-.113-1-.207-1.844-.292-2.772-.592.255-1.179.522-1.789.8l-.167-1.35,1.808-.821c-.076-.835-.171-1.787-.288-2.938l1.394-.22c.092.981.181,1.812.248,2.554.636-.285,1.26-.566,1.9-.84l-.259-2.619,1.392-.221.227,2.248c.615-.265,1.247-.522,1.9-.8l.164,1.379C45.533,159.53,44.906,159.8,44.278,160.068Zm-1.363.58c-.628.27-1.263.555-1.886.836.095.953.176,1.8.287,2.76.641-.274,1.263-.555,1.9-.829C43.108,162.455,43.022,161.6,42.915,160.648Z"/><path class="cls-3" d="M52.448,157.032a19.342,19.342,0,0,0,.212,4.231l-1.48.281a19.067,19.067,0,0,1-.2-2.119c-.4,1.212-.76,2.628-1.087,3.88.04.424.061.869.094,1.31l-1.581.2c-.17-1.747-.274-3.753-.69-6.381l1.669-.258a16.266,16.266,0,0,1,.268,2.781A29.825,29.825,0,0,1,51,156.724Z"/><path class="cls-3" d="M55.308,160.12a5.439,5.439,0,0,0,.441,1.2,6.369,6.369,0,0,0,2.357-1.828l.273,1.09a4.382,4.382,0,0,1-1.994,1.73c-1.178.453-2.1.027-2.555-1.379a5.132,5.132,0,0,1,1.7-5.79l2.212-.179a3.984,3.984,0,0,1,.582,1c.5,1.278-.08,2.668-1.846,3.348a9.214,9.214,0,0,1-1.256.361A3.224,3.224,0,0,0,55.308,160.12Zm-.112-1.386a3.394,3.394,0,0,0,.636-.176,1.61,1.61,0,0,0,1-2.127,2.266,2.266,0,0,0-.329-.561A4.777,4.777,0,0,0,55.2,158.734Z"/><path class="cls-3" d="M68.5,151.358a24.967,24.967,0,0,0,.325,6.577l-1.54.3a27.789,27.789,0,0,1-.492-4.809,34.287,34.287,0,0,0-1.924,3.859c.107.521.182,1,.26,1.519l-1.58.308c-.189-1.549-.307-2.986-.354-4.631-.7,1.275-1.365,2.49-1.881,3.65.1.746.146,1.4.211,2.171l-1.574.181c-.141-1.923-.3-3.825-.662-6.489l1.649-.3a19.142,19.142,0,0,1,.267,2.493c.54-1.238,1.251-2.5,1.962-3.832l1.637.263c0,.989,0,1.8-.018,2.616.538-1.279,1.249-2.61,2.03-4.12Z"/><path class="cls-3" d="M71.348,153.944a5.4,5.4,0,0,0,.44,1.2,6.369,6.369,0,0,0,2.357-1.828l.272,1.09a4.366,4.366,0,0,1-1.993,1.729c-1.178.454-2.105.028-2.555-1.378a5.131,5.131,0,0,1,1.7-5.79l2.211-.179a3.966,3.966,0,0,1,.582,1c.5,1.278-.08,2.668-1.846,3.348a9.257,9.257,0,0,1-1.256.361A3.105,3.105,0,0,0,71.348,153.944Zm-.113-1.386a3.472,3.472,0,0,0,.636-.176,1.61,1.61,0,0,0,1-2.127,2.266,2.266,0,0,0-.329-.561A4.777,4.777,0,0,0,71.235,152.558Z"/><path class="cls-3" d="M84.543,145.182a24.965,24.965,0,0,0,.324,6.577l-1.539.305a27.912,27.912,0,0,1-.493-4.81,34.716,34.716,0,0,0-1.924,3.859c.107.521.183,1,.261,1.52l-1.58.307c-.19-1.549-.307-2.987-.354-4.631-.706,1.275-1.365,2.49-1.88,3.65.1.745.144,1.4.21,2.172l-1.575.181c-.141-1.924-.3-3.826-.662-6.489l1.65-.306a19.158,19.158,0,0,1,.266,2.493c.54-1.238,1.251-2.5,1.962-3.832l1.637.263c0,.989,0,1.8-.017,2.616.538-1.279,1.249-2.61,2.029-4.12Z"/><path class="cls-3" d="M90.875,143.705a5.358,5.358,0,0,1-1.808,6.712l-.922-1.2c1.971-1.432,1.809-3.266,1.111-5.166-.637,1.523-1.556,4.06-1.976,5.183l-1.329-.148c.053-1.462-.354-6.8-.562-9.068l1.731-.062c.1,1.735.286,4.423.22,6.343a18.5,18.5,0,0,1,1.56-3.938c.342.061.834.118,1.442.187A8.61,8.61,0,0,1,90.875,143.705Z"/><path class="cls-3" d="M93.933,145.247a5.4,5.4,0,0,0,.441,1.2,6.348,6.348,0,0,0,2.357-1.827l.273,1.09a4.382,4.382,0,0,1-1.994,1.73c-1.178.453-2.105.027-2.555-1.379a5.132,5.132,0,0,1,1.7-5.79l2.212-.179a3.966,3.966,0,0,1,.582,1c.5,1.278-.08,2.668-1.846,3.348a9.214,9.214,0,0,1-1.256.361A3.413,3.413,0,0,0,93.933,145.247Zm-.112-1.386a3.472,3.472,0,0,0,.636-.176,1.61,1.61,0,0,0,1-2.127,2.266,2.266,0,0,0-.329-.561A4.777,4.777,0,0,0,93.821,143.861Z"/><path class="cls-3" d="M102.619,137.713a19.344,19.344,0,0,0,.211,4.231l-1.479.281a19.3,19.3,0,0,1-.2-2.118c-.4,1.211-.76,2.627-1.087,3.879.041.424.062.869.1,1.31l-1.583.2c-.169-1.748-.273-3.754-.689-6.382l1.669-.258a16.268,16.268,0,0,1,.267,2.781,29.742,29.742,0,0,1,1.352-4.229Z"/></g></svg>