<svg xmlns="http://www.w3.org/2000/svg" viewBox="0 0 952 379"><defs><style>.cls-1{fill:#f36;}.cls-2{fill:#1858a8;}</style></defs><title>a</title><g id="solo_testo" data-name="solo testo"><path class="cls-1" d="M786.38,54.127a1.118,1.118,0,0,1-.04-.128,1.372,1.372,0,0,0-.757-.963.823.823,0,0,1-.38-.356,4.673,4.673,0,0,0-1-1.554.457.457,0,0,1-.107-.168,3.737,3.737,0,0,0-.728-1.024.574.574,0,0,1-.14-.354,13.222,13.222,0,0,1,.046-1.45,3.141,3.141,0,0,0-.05-1c-.073-.342-.4-.518-.466-.856a.269.269,0,0,0-.2-.151,1.438,1.438,0,0,0-1.208.329c-.068.074-.122.125-.242.02a1.479,1.479,0,0,1,.037-.229.584.584,0,0,0-.223-.7,1.511,1.511,0,0,1-.6-1,1.8,1.8,0,0,0-.343-.786,15.645,15.645,0,0,0-1.031-1.306.932.932,0,0,1-.336-.694.417.417,0,0,0-.145-.285,4.682,4.682,0,0,1-.986-1.419,3.034,3.034,0,0,1-.47-1.616c-.2-.215-.373-.422-.572-.594a1.637,1.637,0,0,1-.455-.724c-.034-.1-.148-.161-.216-.249a3.21,3.21,0,0,1-.225-.327c-.164-.278-.212-.64-.554-.787-.557-.886-1.216-1.705-1.7-2.641a5.362,5.362,0,0,0-.5-.865.8.8,0,0,1-.176-.914.55.55,0,0,0-.224-.711,4.314,4.314,0,0,0-1.279-.677c-.776-.161-1.538-.394-2.316-.542a5.29,5.29,0,0,1-1.792-.817,3.049,3.049,0,0,0-1.014-.458,3.307,3.307,0,0,1-1.084-.438,1.946,1.946,0,0,1-.854-1.052,1.151,1.151,0,0,0-.249-.383.439.439,0,0,1-.08-.6.745.745,0,0,0-.037-.884,2.138,2.138,0,0,0-1.544-.933,6.953,6.953,0,0,1-1.163-.21,4.072,4.072,0,0,1-.89-.213,2.745,2.745,0,0,0-.827-.2,5.161,5.161,0,0,1-2.352-.784,2.76,2.76,0,0,0-1.411-.5,10.7,10.7,0,0,1-1.874-.311,1.235,1.235,0,0,1-.352-.167,2.675,2.675,0,0,0-.318-.237,9.633,9.633,0,0,0-1.39-.616c-.4-.1-.807-.216-1.2-.353a20.564,20.564,0,0,0-2.212-.658,1.277,1.277,0,0,1-.248-.086,2.763,2.763,0,0,0-1.267-.3,1.293,1.293,0,0,1-.377-.093c-.146-.043-.289-.1-.437-.135a2.678,2.678,0,0,0-1.362-.134c-.176.049-.39-.064-.583-.05-.479.036-.959.06-1.438.113a7.26,7.26,0,0,0-1.49.276.693.693,0,0,1-.446.029,1,1,0,0,0-.941.113c-.035.019-.072.036-.108.055a19.489,19.489,0,0,1-3.473.223,5.046,5.046,0,0,1-2.086-.183,3.989,3.989,0,0,1-1.555.205c-.9,0-1.8.022-2.7.018a2.6,2.6,0,0,1-.691-.1,3.139,3.139,0,0,0-1.65-.044,1.1,1.1,0,0,1-.682,0,2.245,2.245,0,0,0-.83-.053c-.929.031-1.862.045-2.795.047a13.619,13.619,0,0,0-2.415.009.948.948,0,0,1-.36-.011,11.1,11.1,0,0,0-3.143-.116c-.487.022-.979.051-1.467.039a8.279,8.279,0,0,0-2.268.147,3.3,3.3,0,0,1-.844.02c-.773-.031-1.545-.088-2.317-.113a21.773,21.773,0,0,1-2.325-.073,3.951,3.951,0,0,0-.725.024,3.5,3.5,0,0,1-.6.043,14.625,14.625,0,0,0-2.071-.042c-1.175,0-2.357-.077-3.525-.145a13.752,13.752,0,0,0-2.649.1,4.087,4.087,0,0,1-1.32,0q-.7-.129-1.4-.276a13,13,0,0,0-1.533-.225,10.941,10.941,0,0,1-3.164-.512,5.243,5.243,0,0,0-2.21-.293,4.393,4.393,0,0,1-1.634-.206,2.643,2.643,0,0,0-1.414-.066,5.723,5.723,0,0,1-1.07.1,3.821,3.821,0,0,0-1.02.158,10.458,10.458,0,0,1-1.717.293c-.467.043-.969-.009-1.455-.014a19.058,19.058,0,0,1-2.56-.037,16.771,16.771,0,0,0-4.219.116c-.83.078-1.664.159-2.506.19a12.831,12.831,0,0,0-2.863.165,2.991,2.991,0,0,1-.726.012,4.133,4.133,0,0,0-1.74.2,1.508,1.508,0,0,1-.577.08,17.478,17.478,0,0,1-3.274-.034,1.194,1.194,0,0,0-.363,0,9.018,9.018,0,0,1-1.95-.065,7.83,7.83,0,0,0-1.094-.02c-1.008.048-2.012.12-3.021.167a4.293,4.293,0,0,1-.7-.073c-.279-.034-.555-.1-.833-.108-1.345-.044-2.69-.077-4.036-.109-.244-.006-.488.009-.733.006a6.55,6.55,0,0,1-.968-.037,2.821,2.821,0,0,0-1.072.029,4.65,4.65,0,0,1-1.684.057,9.11,9.11,0,0,0-1.579-.084,15.929,15.929,0,0,1-1.595-.039c-.415-.043-.8-.014-1.2-.02a6.542,6.542,0,0,1-1.8-.137,2.252,2.252,0,0,0-1.6-.045,1.032,1.032,0,0,1-.354,0,12.945,12.945,0,0,0-2.9.13,9.86,9.86,0,0,1-1.332.052c-.2,0-.42-.053-.606-.031a11.345,11.345,0,0,1-2.687-.089c-1.156-.139-2.286.026-3.422-.085a2.735,2.735,0,0,1-1.574-.148l-.875.3a5.4,5.4,0,0,0-.843-.074c-.926.07-1.872.006-2.788.06a9.6,9.6,0,0,1-2.043-.073,13.507,13.507,0,0,0-2.9-.106c-.2-.205-.376-.382-.556-.557a.9.9,0,0,0-.605-.206,2.939,2.939,0,0,0-1.663.3,3.2,3.2,0,0,1-1.864.365c-.848-.041-1.7-.021-2.542-.144a5.04,5.04,0,0,0-1.687.05,4.851,4.851,0,0,1-2.354.114,2.237,2.237,0,0,0-.486,0,6.891,6.891,0,0,1-1.191-.152,7.8,7.8,0,0,0-1.191-.023.469.469,0,0,1-.114-.026,3.978,3.978,0,0,0-1.779-.084c-.464.074-.944.121-1.414.185a2.921,2.921,0,0,1-1.835-.177,1.64,1.64,0,0,0-1.033-.089c-.826.117-1.361.363-1.472.839a.811.811,0,0,1-.142.319c-.015.02,0,.038-.016.057-.067.029-.134.042-.2.078-.29.155-.58.313-.88.446a3.412,3.412,0,0,1-1.263.342,5.867,5.867,0,0,1-1.56-.136c-.279-.063-.562-.112-.844-.165a1.1,1.1,0,0,0-.877.177,6.7,6.7,0,0,1-1.039.582.989.989,0,0,1-.63.1,9.813,9.813,0,0,0-.978-.121,1.3,1.3,0,0,0-1.073.166.562.562,0,0,1-.629.061,1.424,1.424,0,0,0-.824-.171,4.276,4.276,0,0,1-.982-.09c-.611-.162-1.149.185-1.73.2-.067,0-.147.094-.195.162a1.293,1.293,0,0,1-1.328.545.637.637,0,0,0-.2-.023.759.759,0,0,0-.3.1c-.391.289-.767.6-1.158.886a3,3,0,0,1-.569.337,1.851,1.851,0,0,0-1.177,1.163.36.36,0,0,1-.1.171,4.472,4.472,0,0,1-.719.579,6.366,6.366,0,0,0-.773.5,1.159,1.159,0,0,1-.726.29.729.729,0,0,0-.684.444,1.521,1.521,0,0,1-.79.677.884.884,0,0,0-.515.48,6.023,6.023,0,0,1-.272.538,1.422,1.422,0,0,1-.9.739,4.353,4.353,0,0,0-.657.293,1.794,1.794,0,0,1-.364.145.535.535,0,0,0-.426.272.352.352,0,0,1-.212.138.589.589,0,0,0-.386.33,3.312,3.312,0,0,1-1.168,1.249,4.914,4.914,0,0,0-1.232,1,3.933,3.933,0,0,1-.344.312,2.126,2.126,0,0,0-.413.425.811.811,0,0,1-.549.43c-.276.068-.535.209-.809.286a2.318,2.318,0,0,0-1.122.673.926.926,0,0,1-.564.316,2.481,2.481,0,0,0-1.02.451c-.324.228-.677.415-1.018.618a.879.879,0,0,0-.422.406,1.947,1.947,0,0,1-.19.319c-.027.443-.034.8-.074,1.152a1.611,1.611,0,0,1-.469.941c-.385.4-.8.764-1.2,1.147a.986.986,0,0,0-.118.16c-.14.2-.287.4-.416.6a1.342,1.342,0,0,0-.2.416,2.293,2.293,0,0,1-.592,1.106,3.871,3.871,0,0,0-1,1.484c-.037.122-.159.215-.218.333a5.613,5.613,0,0,0-.437.971c-.053.191.108.436.075.641-.037.232-.254.441-.268.668-.035.563-.207,1.1-.276,1.646a2.962,2.962,0,0,1-.729,1.614c-.335.387-.684.762-1.007,1.16a1.12,1.12,0,0,0-.311.574,13.709,13.709,0,0,0-.171,1.8.672.672,0,0,1-.31.7.764.764,0,0,0-.365.536,8.458,8.458,0,0,0-.247,1.3,6.344,6.344,0,0,1-.361,1.83A1.951,1.951,0,0,0,549.737,58a3.052,3.052,0,0,1,.059,1.186,3.546,3.546,0,0,0,.062,1.327c.059.213-.06.474-.069.714-.008.262.241.462.148.77a.889.889,0,0,0,.316.956c.45.411.478.666.123,1.154a2.211,2.211,0,0,0-.367,1.062c-.032.242-.084.481-.13.721-.017.087-.076.179-.06.256a1.382,1.382,0,0,1-.207.96.683.683,0,0,0,.054.76c.117.16.207.339.3.488-.049.518-.1,1-.136,1.491a.832.832,0,0,0,.04.39,2.284,2.284,0,0,1,.258,1.091.715.715,0,0,0,.055.192,6.645,6.645,0,0,1,.243,1.043,3.176,3.176,0,0,0,.5,1.2c.116.228.277.45.417.675a.889.889,0,0,1,.049,1.007,1.773,1.773,0,0,0-.213.906,7.009,7.009,0,0,0,.074,1.668.858.858,0,0,1-.085.65,1.136,1.136,0,0,0-.117.442,6.65,6.65,0,0,0,.583,2.458c.017.059.082.1.117.16.164.264.341.521.483.8a1.087,1.087,0,0,0,.424.5.808.808,0,0,1,.427.772,1.368,1.368,0,0,0,.391.96,1.771,1.771,0,0,1,.64,1.218,1.325,1.325,0,0,1,.816.844,6,6,0,0,0,.522,1.068,4.175,4.175,0,0,0,1.292,1.5,1.8,1.8,0,0,1,.731.993,5.762,5.762,0,0,0,.2.571,3.517,3.517,0,0,0,1.131,1.537,3.269,3.269,0,0,1,.676.616,2.057,2.057,0,0,1,.51.77.544.544,0,0,0,.2.261,6.815,6.815,0,0,0,.593.419c.189.119.417.227.462.454.083.416.431.668.565,1.051.046.134.2.236.313.337a2.274,2.274,0,0,0,.47.361.816.816,0,0,1,.425.487.938.938,0,0,0,.423.5c.074.043.174.095.2.165a.807.807,0,0,0,.383.441,1.408,1.408,0,0,0-.261.018.182.182,0,0,0-.108.14.4.4,0,0,0,.082.227.282.282,0,0,0,.174.068,2.277,2.277,0,0,1,.752.093c.032.017.054.054.083.077.006.024.026.034.03.06a.316.316,0,0,0,.117.155c.063.052.127.1.19.154.03.04.059.082.091.119a3.016,3.016,0,0,1,.885,1.619c.291-.325.578-.172.87-.113a.965.965,0,0,1,.7.526,1.6,1.6,0,0,0,.535.624.46.46,0,0,1,.18.258,1.2,1.2,0,0,0,.462.671c-.069.108-.123.19-.19.293a4.452,4.452,0,0,0,.5.333,4.813,4.813,0,0,0,.486.151,1.049,1.049,0,0,1,.274.151,1.243,1.243,0,0,0,1.385.268,5.159,5.159,0,0,1,1.651,1.463,1.7,1.7,0,0,0,.328.306c.377.279.822.481,1.01.964.007.019.029.032.045.045a7.281,7.281,0,0,1,1.155.924,4.4,4.4,0,0,1,1.206.935,2.535,2.535,0,0,0,.794.53,2.943,2.943,0,0,1,.955.64c.356.323.65.759,1.188.818a.354.354,0,0,1,.164.095,2.432,2.432,0,0,1,.609.564c.143.269.427.36.563.589a2.7,2.7,0,0,0,1.294,1.032,4.2,4.2,0,0,1,1.253.973.87.87,0,0,0,.183.181,1.255,1.255,0,0,1,.617.85c.125.047.224.087.324.122a1.363,1.363,0,0,1,.762.557,1.264,1.264,0,0,0,.544.442,1.115,1.115,0,0,1,.369.237,5.861,5.861,0,0,0,1.5,1.21A20.228,20.228,0,0,1,589.3,119.1a1.217,1.217,0,0,0,.9.744,1.91,1.91,0,0,1,.38.241,6,6,0,0,0,1.114.636.967.967,0,0,1,.692.629.7.7,0,0,0,.565.552,1.123,1.123,0,0,1,.286.142,19.351,19.351,0,0,1,2.02,1.594c.151.12.283.268.443.371a5.31,5.31,0,0,1,1.265,1.188,3.109,3.109,0,0,0,.617.563,10.134,10.134,0,0,1,1.759,1.3.313.313,0,0,0,.162.1c.336.065.472.345.64.6a1.6,1.6,0,0,0,.31.4,9.751,9.751,0,0,1,1.206.965c.206.213.475.349.607.651a1,1,0,0,0,.374.343c.513.356,1.032.7,1.551,1.049a1.952,1.952,0,0,1,.643.623,1.266,1.266,0,0,0,.358.364,12.99,12.99,0,0,1,1.692,1.284c.219.22.57.3.821.494.268.209.478.494.73.728a14.776,14.776,0,0,1,1.4,1.331,1.821,1.821,0,0,0,.774.562,1.366,1.366,0,0,1,.518.359,2.434,2.434,0,0,0,.73.617c.684.27,1.065.934,1.7,1.255a.3.3,0,0,1,.105.16,1.043,1.043,0,0,0,.659.576,1.083,1.083,0,0,1,.363.243,8.016,8.016,0,0,0,1.262,1.092,1.135,1.135,0,0,1,.064.113,1.1,1.1,0,0,0,.5.588c.088.051.207.112.234.195.13.4.47.551.789.714a.844.844,0,0,1,.551.612.368.368,0,0,0,.138.183c.5.416,1,.848,1.52,1.234a2.082,2.082,0,0,0,1.4.6c.056-.006.088.024.137.029a5.453,5.453,0,0,1,.663.645.7.7,0,0,0,.6.289c.066-.091.139-.195.211-.294.041.033.1.039.13.085a3.089,3.089,0,0,1,.214.325c.059.1.106.213.159.322l.861-.468c.231.293.475.563.813.412a2.114,2.114,0,0,1,1.145-.036l.253.441c.182.056.331.1.479.148.406.13.719.552,1.216.4a.08.08,0,0,1,.066.036c.117.227.315.237.533.237a.381.381,0,0,1,.277.124c.351.514,1.03.757,1.111,1.44.333.113.677.053.893.356a.4.4,0,0,0,.282.094c.258.01.518-.015.775,0a1.717,1.717,0,0,1,.6.094c.209.094.366.316.577.394a2.413,2.413,0,0,0,.669.049.109.109,0,0,1,.069.034c.227.248.526.124.766.115a1.819,1.819,0,0,0,.173.23c.314.289.469.771.992.814.093.008.177.177.259.277a7.7,7.7,0,0,0,.907,1.075,9.229,9.229,0,0,1,.7.606,1.8,1.8,0,0,0,1.113.652c.432.026.9.4,1.325-.051.038-.04.149-.021.224-.012a2.586,2.586,0,0,0,1.215-.184,1.255,1.255,0,0,1,.984-.041.9.9,0,0,0,.452-.01c.461-.069.918-.168,1.381-.22a1.944,1.944,0,0,0,.6-.1,1.255,1.255,0,0,1,1.065.023,9.454,9.454,0,0,0,1.469.483c.508.158,1.085.24,1.375.812.039.075.168.108.261.149a3.906,3.906,0,0,1,.426.179c.156.092.28.256.444.316a2.336,2.336,0,0,0,.575.068c.041.118.066.192.094.266a1.541,1.541,0,0,0,2.025,1.09c.618-.165,1.259-.242,1.885-.357l.311.28c.5-.465,1-.837,1.672-.554.247-.157.463-.3.688-.433a1.089,1.089,0,0,1,.419-.17,2.681,2.681,0,0,0,1.148-.44c.492-.3.948-.657,1.458-.913a9.034,9.034,0,0,1,1.745-.815,2.944,2.944,0,0,1,1.458-.062,2.246,2.246,0,0,0,1.436-.171.889.889,0,0,1,.362-.1c.3.014.572.027.725-.316.023-.051.182-.048.279-.054a4.429,4.429,0,0,0,1.3-.464c.407-.561,1.091-.893,1.246-1.6a1.526,1.526,0,0,1,.942-.124,1.266,1.266,0,0,0,.446-.061,6.067,6.067,0,0,1,1.886-.344.935.935,0,0,0,.522-.067,2.714,2.714,0,0,1,1.331-.383,1.868,1.868,0,0,0,.789-.286,4.461,4.461,0,0,1,1.295-.51,6.15,6.15,0,0,0,1.18-.364,6.664,6.664,0,0,1,1.213-.266.377.377,0,0,0,.075-.02,15.02,15.02,0,0,0,2.781-1.376.518.518,0,0,1,.357-.125,1.148,1.148,0,0,0,.791-.151,1.08,1.08,0,0,0-.032.111.186.186,0,0,0,.091.152.38.38,0,0,0,.238,0,.281.281,0,0,0,.123-.142c.06-.121.108-.255.162-.382.366-.154.733-.306,1.091-.478a1.146,1.146,0,0,0,.387-.308,2.328,2.328,0,0,1,1.207-.082c-.174-.345-.007-.558.143-.78.064-.015.115-.052.183-.063.2-.033.387-.166.588-.2a1.26,1.26,0,0,0,.974-.645c.037-.007.071-.034.1-.028a1.167,1.167,0,0,0,.78-.206l.2.284a4.6,4.6,0,0,0,.483-.363,4.9,4.9,0,0,0,.309-.411,1.052,1.052,0,0,1,.234-.208,1.286,1.286,0,0,0,.733-1.227,5.1,5.1,0,0,1,1.924-1.062,1.68,1.68,0,0,0,.4-.2,2.356,2.356,0,0,1,1.241-.626.13.13,0,0,0,.057-.027,7.281,7.281,0,0,1,1.254-.778,4.377,4.377,0,0,1,1.283-.822,2.532,2.532,0,0,0,.766-.572,2.967,2.967,0,0,1,.923-.686c.422-.226.926-.354,1.169-.846a.352.352,0,0,1,.145-.123,2.385,2.385,0,0,1,.732-.383c.3-.042.481-.282.738-.331a2.681,2.681,0,0,0,1.4-.872,4.2,4.2,0,0,1,1.335-.854.876.876,0,0,0,.23-.111,1.222,1.222,0,0,1,1-.291c.087-.1.157-.182.225-.266a1.366,1.366,0,0,1,.78-.531,1.256,1.256,0,0,0,.6-.364,1.115,1.115,0,0,1,.347-.269,5.792,5.792,0,0,0,1.639-1.008,20.144,20.144,0,0,1,1.809-.968,1.206,1.206,0,0,0,1-.6,1.881,1.881,0,0,1,.355-.278,6.165,6.165,0,0,0,.976-.84.952.952,0,0,1,.821-.439.686.686,0,0,0,.705-.346,1.2,1.2,0,0,1,.231-.224,19.386,19.386,0,0,1,2.174-1.367c.163-.1.345-.176.5-.292a5.2,5.2,0,0,1,1.536-.79,3.02,3.02,0,0,0,.733-.391,10.145,10.145,0,0,1,1.813-1.222.328.328,0,0,0,.148-.119c.178-.3.483-.33.772-.4a1.544,1.544,0,0,0,.477-.154,9.7,9.7,0,0,1,1.311-.812,2.273,2.273,0,0,1,.812-.351.99.99,0,0,0,.446-.236c.507-.365,1.008-.738,1.508-1.111a1.924,1.924,0,0,1,.8-.395,1.239,1.239,0,0,0,.46-.214,12.808,12.808,0,0,1,1.774-1.163c.28-.133.474-.441.742-.611.287-.182.622-.283.925-.441a14.582,14.582,0,0,1,1.715-.867,1.831,1.831,0,0,0,.789-.541,1.376,1.376,0,0,1,.511-.369,2.4,2.4,0,0,0,.824-.48c.487-.557,1.232-.688,1.749-1.179a.3.3,0,0,1,.184-.044,1.031,1.031,0,0,0,.76-.426,1.085,1.085,0,0,1,.352-.261,5.614,5.614,0,0,0,1.9-1.162.411.411,0,0,1,.163-.1,14.937,14.937,0,0,0,1.682-.983h0l.265.238c.418-.394.844-.709,1.415-.47.21-.133.393-.258.584-.367a.928.928,0,0,1,.355-.144,2.257,2.257,0,0,0,.972-.373c.417-.25.8-.557,1.236-.773a7.628,7.628,0,0,1,1.478-.691,2.5,2.5,0,0,1,1.235-.052,1.908,1.908,0,0,0,1.217-.145.763.763,0,0,1,.307-.088c.252.012.484.023.614-.267.019-.043.154-.041.236-.046a3.758,3.758,0,0,0,1.1-.393c.345-.476.925-.757,1.056-1.36a1.3,1.3,0,0,1,.8-.1,1.067,1.067,0,0,0,.378-.052,5.116,5.116,0,0,1,1.6-.291.807.807,0,0,0,.443-.057,2.3,2.3,0,0,1,1.127-.325,1.594,1.594,0,0,0,.669-.241,3.746,3.746,0,0,1,1.1-.432,5.308,5.308,0,0,0,1-.309,5.687,5.687,0,0,1,1.027-.226.233.233,0,0,0,.064-.017,12.759,12.759,0,0,0,2.357-1.166.443.443,0,0,1,.3-.106c.363.085.639-.124.939-.25.386-.161.772-.322,1.149-.5a.942.942,0,0,0,.357-.285,1.815,1.815,0,0,1,1.27-.76c.171-.028.327-.141.5-.173a1.013,1.013,0,0,0,.913-.663.189.189,0,0,1,.084-.1,1.338,1.338,0,0,0,.618-.834,2.216,2.216,0,0,1,.212-.332.837.837,0,0,0,.145-.287c.067-.517.493-.9.5-1.438a.215.215,0,0,1,.061-.117,2.613,2.613,0,0,0,.4-.434c.081-.144.308-.2.454-.289l.237-1.389c.119-.031.226-.028.282-.081a1.529,1.529,0,0,0,.585-.769,1.7,1.7,0,0,1,.7-1.173c.072-.045.115-.136.178-.2.223-.215.441-.435.676-.636a1.185,1.185,0,0,0,.411-.592,1.054,1.054,0,0,1,.188-.424,1.488,1.488,0,0,0,.317-.794,1.51,1.51,0,0,1,.685-1.1,1.417,1.417,0,0,0,.511-.6c.068-.133.183-.318.3-.335.313-.047.43-.258.568-.5a1.177,1.177,0,0,1,.784-.608,1.018,1.018,0,0,0,.05-.1,2.815,2.815,0,0,1,.575-1.4.585.585,0,0,0,.071-.376c0-.178-.063-.355-.062-.533a.543.543,0,0,1,.1-.369c.42-.349.422-.928.737-1.329.008-.329.246-.5.453-.695a2.593,2.593,0,0,0,.76-1.314c.1-.454.147-.921.21-1.384.054-.4.088-.8.151-1.2.019-.123.075-.293.165-.34.368-.193.408-.632.689-.884a.239.239,0,0,0,.059-.186c-.078-.436.334-.784.206-1.232-.018-.063.068-.157.108-.235.071-.138.153-.27.212-.412.119-.286.225-.579.337-.868a2.132,2.132,0,0,0,.285-.882.468.468,0,0,1,.269-.431.747.747,0,0,0,.368-.74.946.946,0,0,1,.652-.975,1.577,1.577,0,0,0,.47-.355.935.935,0,0,0,.076-1.225c-.05-.073-.123-.131-.172-.2a.522.522,0,0,1-.059-.623c.129-.2.051-.367-.081-.548a8.133,8.133,0,0,1-.53-.848.582.582,0,0,1-.1-.379,11.509,11.509,0,0,0,.174-1.442,2.986,2.986,0,0,0,.031-.39c0-.153,0-.305,0-.458a1.8,1.8,0,0,0,.014-.326,7.837,7.837,0,0,1-.017-2.334,2.342,2.342,0,0,0-.011-.867,5.543,5.543,0,0,1-.17-2.505.3.3,0,0,0-.01-.2,1.178,1.178,0,0,1-.008-.974c.06-.266-.133-.5-.082-.714a1.478,1.478,0,0,0,.051-.716,2.435,2.435,0,0,1-.028-.4l.947-.151C786.566,54.784,786.6,54.721,786.38,54.127Z"/><path class="cls-1" d="M814.37,162.519a.759.759,0,0,1,.051-.644.327.327,0,0,0,.027-.177c-.025-.513-.037-1.029-.086-1.539a1.841,1.841,0,0,0-.343-1.14c-.19-.2-.163-.436-.226-.663-.068-.25-.241-.463-.2-.753a2.936,2.936,0,0,1,.063-.3c.024-.088.057-.174.087-.262l-.625-.26c.039-.289.061-.574-.168-.693a1.619,1.619,0,0,1-.542-.653c.038-.14.074-.273.1-.38-.055-.136-.1-.247-.145-.358-.121-.307-.057-.712-.358-.925a.071.071,0,0,1-.012-.058.442.442,0,0,0-.127-.437.331.331,0,0,1-.065-.227c.092-.475-.1-1,.2-1.407-.1-.255-.283-.425-.233-.71a.344.344,0,0,0-.082-.216c-.114-.156-.244-.3-.356-.453a1.414,1.414,0,0,1-.229-.4c-.049-.172-.011-.38-.068-.545a1.948,1.948,0,0,0-.283-.418.108.108,0,0,1-.015-.059c.019-.263-.178-.373-.293-.509a1.441,1.441,0,0,0,.034-.222c0-.336.166-.68-.051-1.009-.039-.06.006-.2.018-.3a6.961,6.961,0,0,0,.116-1.1c-.011-.241-.033-.488-.023-.729a1.638,1.638,0,0,0-.186-1c-.185-.267-.216-.738-.632-.751-.037,0-.078-.076-.107-.125a1.88,1.88,0,0,0-.647-.616.96.96,0,0,1-.47-.556.681.681,0,0,0-.211-.26c-.245-.234-.5-.451-.739-.7a1.429,1.429,0,0,0-.328-.3.982.982,0,0,1-.475-.637,8.27,8.27,0,0,0-.433-1.116,1.723,1.723,0,0,1-.228-1.232c.02-.062-.023-.155-.045-.231-.033-.116-.085-.226-.107-.344a2.906,2.906,0,0,0-.047-.427,1.866,1.866,0,0,0-.229-.372c.04-.087.065-.141.088-.2a1.338,1.338,0,0,0-.387-1.759c-.364-.277-.7-.613-1.038-.92,0-.119,0-.215,0-.33a2.257,2.257,0,0,1-.331-.084.851.851,0,0,1-.706-.606c-.191-.063-.362-.112-.528-.177a.713.713,0,0,1-.276-.156,1.755,1.755,0,0,0-.741-.444c-.37-.133-.758-.212-1.116-.377a5.711,5.711,0,0,1-1.2-.6,2.258,2.258,0,0,1-.7-.823,1.644,1.644,0,0,0-.741-.753.619.619,0,0,1-.216-.159c-.129-.182-.248-.35-.487-.26-.035.014-.107-.081-.154-.135a2.944,2.944,0,0,0-.822-.519c-.463.056-.939-.172-1.36.111a1.121,1.121,0,0,1-.492-.488.934.934,0,0,0-.235-.23c-.2-.147-.4-.294-.584-.456a2.67,2.67,0,0,1-.447-.47c-.076-.107-.167-.24-.272-.272a1.85,1.85,0,0,1-.8-.58,1.226,1.226,0,0,0-.5-.313,2.9,2.9,0,0,1-.843-.493,4.221,4.221,0,0,0-.719-.5,4.741,4.741,0,0,1-.686-.572.2.2,0,0,0-.044-.034,9.479,9.479,0,0,0-1.949-.911.35.35,0,0,1-.225-.143c-.146-.3-.417-.366-.652-.5-.3-.167-.6-.335-.913-.484a.659.659,0,0,0-.358-.072,1.32,1.32,0,0,1-1.128-.409c-.108-.1-.258-.139-.37-.237-.266-.236-.536-.4-.877-.223a.126.126,0,0,1-.1,0,.917.917,0,0,0-.819.089,1.633,1.633,0,0,1-.307.058.588.588,0,0,0-.245.077c-.337.273-.791.217-1.109.541a.153.153,0,0,1-.1.03,1.745,1.745,0,0,0-.469-.009c-.127.032-.284-.089-.413-.136l-.936.695c-.083-.063-.139-.139-.2-.145a1.053,1.053,0,0,0-.764.07,1.179,1.179,0,0,1-1.058.244.99.99,0,0,0-.211,0c-.245-.021-.491-.037-.734-.075a.815.815,0,0,0-.567.082.772.772,0,0,1-.348.133,1.057,1.057,0,0,0-.633.271,1.046,1.046,0,0,1-1.01.206.967.967,0,0,0-.624.017c-.114.035-.284.069-.356,0a.55.55,0,0,0-.6-.086.83.83,0,0,1-.776-.167.7.7,0,0,0-.086.028,2.009,2.009,0,0,1-1.126.469c-.084,0-.185.1-.258.184-.1.113-.172.263-.276.372-.074.078-.188.172-.27.158-.43-.074-.768.282-1.171.312-.2.2-.422.136-.65.117a1.792,1.792,0,0,0-1.174.286c-.319.211-.616.468-.918.711-.261.209-.514.434-.778.636-.082.062-.211.129-.288.1-.31-.136-.587.108-.885.07a.172.172,0,0,0-.14.074c-.212.324-.637.253-.829.619-.027.052-.129.05-.2.071-.117.036-.239.061-.352.108-.232.1-.459.2-.688.3a1.544,1.544,0,0,0-.667.348.33.33,0,0,1-.4.081.532.532,0,0,0-.629.2.669.669,0,0,1-.92.152.983.983,0,0,0-.219-.05,1.182,1.182,0,0,0-.241-.056.762.762,0,0,0-.754.706c-.015.08-.009.166-.026.245-.042.211-.119.386-.33.426-.187.036-.242.193-.276.395a8.26,8.26,0,0,1-.2.857c-.162.175-.312.367-.461.556-.218.182-.423.384-.648.553a2.409,2.409,0,0,0-.245.22c-.091.091-.177.188-.268.28a1.635,1.635,0,0,0-.2.192.3.3,0,0,1-.03.032,8.234,8.234,0,0,0-3.372,2.53,5,5,0,0,1-1.783,1.581,1.727,1.727,0,0,0-.655.639c-.138-.048-.22.058-.364.389a.968.968,0,0,1-.053.107c-.014.023-.013.048-.025.072a3.567,3.567,0,0,1-2.13,1.336c-.256.045-.475.384-.711.587-.277.239-.524.585-.834.7a19.567,19.567,0,0,1-4.638,1.456,3.4,3.4,0,0,0-.646.21,3.132,3.132,0,0,1-1.765,1.95,1.588,1.588,0,0,0-.584.546,2.043,2.043,0,0,1-1.161.748,8.289,8.289,0,0,0-3.7,2.247,2.223,2.223,0,0,1-.755.548c-1.27.533-2.546,1.052-3.831,1.534a2.019,2.019,0,0,1-1.76-.078,9.931,9.931,0,0,0-1.764-.569c-.519.48-1.049.925-1.531,1.433a1.856,1.856,0,0,1-1.057.623c-1.538.239-2.991.96-4.548,1.088a3.039,3.039,0,0,1-3.02.333,8.545,8.545,0,0,0-1.519.726,1.772,1.772,0,0,1-2.384.095,1.4,1.4,0,0,0-1.847-.045c-.116.088-.29.074-.487.118-.6-.321-1.2-.783-1.956-.565a.67.67,0,0,1-.572-.143,2.1,2.1,0,0,0-2.3-.246,2.341,2.341,0,0,1-1.916-.123,1.51,1.51,0,0,0-1.284-.033,8.107,8.107,0,0,1-3.386.325,3.526,3.526,0,0,0-2.637.426.973.973,0,0,1-.586.141,5.148,5.148,0,0,0-2.973.96,3.372,3.372,0,0,0-2.261-.047,9.645,9.645,0,0,1-2.156.75,9.859,9.859,0,0,0-3.127,1.222,4.18,4.18,0,0,1-2.18.549,11.523,11.523,0,0,0-3.423.405,13.266,13.266,0,0,1-3.843.706,2.776,2.776,0,0,0-2.653,1.338.633.633,0,0,1-.527.269,4.164,4.164,0,0,1-1.609-.3,4.382,4.382,0,0,0-1.59-.4,6.838,6.838,0,0,0-2.533.359c-.1.023-.192.028-.288.044-.036-.03-.076-.04-.11-.073-.109-.1-.259-.139-.371-.238-.266-.235-.537-.4-.877-.222a.13.13,0,0,1-.1,0,.722.722,0,0,0-.592.009c-.076.026-.152.046-.227.079a1.645,1.645,0,0,1-.308.059.593.593,0,0,0-.245.077c-.337.273-.79.217-1.109.541a.143.143,0,0,1-.1.029,1.8,1.8,0,0,0-.47-.008c-.127.032-.283-.089-.412-.136l-.937.7c-.083-.063-.138-.139-.2-.145a1.046,1.046,0,0,0-.763.07,2.153,2.153,0,0,1-.3.15,1.863,1.863,0,0,0-.936-.023.653.653,0,0,1-.733-.2,2.741,2.741,0,0,0-2.509-.795,1.72,1.72,0,0,1-.785-.026.553.553,0,0,0-.314-.038,2.852,2.852,0,0,1-1.565-.257,3.438,3.438,0,0,0-1.62-.3c-.176.032-.292-.081-.426-.188a5.294,5.294,0,0,0-.675-.432.277.277,0,0,0-.23-.028.688.688,0,0,1-.879-.18.407.407,0,0,0-.143-.078c-.126-.044-.284-.153-.378-.108-.432.207-.8-.219-1.232-.087a1.933,1.933,0,0,1-1.838-.257.675.675,0,0,0-.458-.1,3.294,3.294,0,0,1-1.789-.307.514.514,0,0,0-.311-.047,2.04,2.04,0,0,1-1.179-.165,3.542,3.542,0,0,0-.468-.112,9.8,9.8,0,0,1-1.091-.25,3.4,3.4,0,0,0-1.731-.219.431.431,0,0,1-.234-.007,16.134,16.134,0,0,0-2.88-.623,14.644,14.644,0,0,1-2.875-.75,4.2,4.2,0,0,0-1.319-.34,4.32,4.32,0,0,1-1.225-.332,6.062,6.062,0,0,0-1.72-.317,2.872,2.872,0,0,1-1.311-.319,1.689,1.689,0,0,0-1.086-.173,1.427,1.427,0,0,1-.544.011c-1.161-.322-2.313-.674-3.474-1-.593-.164-1.193-.3-1.8-.417a1.683,1.683,0,0,0-.717.012.843.843,0,0,1-.827-.155c-.231-.191-.514-.313-.565-.68-.007-.042-.076-.073-.14-.132a.862.862,0,0,0-.288.057,1.318,1.318,0,0,1-1.308.1,1.96,1.96,0,0,0-.551-.1,13.11,13.11,0,0,1-1.731-.342c-.694-.2-1.41-.3-2.116-.446a1.881,1.881,0,0,1-.391-.088,6.193,6.193,0,0,0-1.6-.417,1.442,1.442,0,0,0-.33-.228c-.2-.115-.4-.23-.6-.333a.433.433,0,0,0-.239-.052.888.888,0,0,1-.748-.286c-.071-.069-.171-.1-.244-.163-.176-.161-.355-.274-.583-.159a.085.085,0,0,1-.07,0,.614.614,0,0,0-.546.05,1.068,1.068,0,0,1-.206.035.388.388,0,0,0-.164.049.621.621,0,0,1-.174.074,4.186,4.186,0,0,0-.6-.1c-.121,0-.24-.042-.361-.049-.062.058-.138.111-.161.183a1.075,1.075,0,0,1-.085.161l-.018-.006-.63.452c-.055-.043-.091-.094-.131-.1a.7.7,0,0,0-.51.038.785.785,0,0,1-.707.15.659.659,0,0,0-.141,0c-.163-.017-.327-.03-.489-.059a.542.542,0,0,0-.378.048.492.492,0,0,1-.234.084.709.709,0,0,0-.424.174.7.7,0,0,1-.674.125.647.647,0,0,0-.417,0c-.076.022-.19.043-.237,0a.369.369,0,0,0-.4-.065.555.555,0,0,1-.516-.12.388.388,0,0,0-.057.018,1.336,1.336,0,0,1-.755.3c-.056,0-.124.067-.173.12-.069.074-.118.173-.188.245-.05.05-.126.112-.181.1-.286-.055-.514.178-.783.194-.133.13-.282.085-.434.069a1.2,1.2,0,0,0-.785.177c-.214.138-.415.306-.619.464-.175.136-.346.283-.524.414-.055.041-.142.084-.192.061-.206-.094-.393.065-.591.036a.114.114,0,0,0-.094.048c-.144.213-.427.161-.558.4-.018.034-.086.032-.131.045a2.123,2.123,0,0,0-.236.068c-.155.06-.308.129-.461.194a1.021,1.021,0,0,0-.448.224.218.218,0,0,1-.264.049.354.354,0,0,0-.422.128.444.444,0,0,1-.614.09.742.742,0,0,0-.305-.076.5.5,0,0,0-.509.461c-.011.054-.008.111-.02.164-.03.14-.083.256-.223.28s-.163.125-.188.26a5.7,5.7,0,0,1-.146.593.35.35,0,0,1-.115.2,6,6,0,0,0-.628.5,1.479,1.479,0,0,0-.165.144c-.062.059-.12.123-.181.183a1,1,0,0,0-.134.126,4.338,4.338,0,0,1-.911.955,1.294,1.294,0,0,0-.338.356,3.147,3.147,0,0,1-.925,1.1.165.165,0,0,0-.074.085c-.054.23-.231.3-.38.4-.126.08-.148.262-.253.328a.786.786,0,0,0-.3.266,1.31,1.31,0,0,1-.145.174c-.142-.138-.268-.261-.394-.382-.268-.257-.3-.249-.46.1a.591.591,0,0,1-.036.071.958.958,0,0,0-.111.745.588.588,0,0,1-.006.322,3.255,3.255,0,0,0-.259,1.1.329.329,0,0,1-.028.119,2.6,2.6,0,0,0-.145.756.382.382,0,0,1-.09.209,7.282,7.282,0,0,1-.587.567,1.756,1.756,0,0,0-.374.428c-.109.172-.061.4-.172.564a.191.191,0,0,0,.012.156c.151.2.3.425.556.432.053,0,.093.007.094.106a.918.918,0,0,1-.1.075.361.361,0,0,0-.194.386,1.038,1.038,0,0,1-.183.686,1.187,1.187,0,0,0-.188.48c-.066.333-.114.672-.15,1.012a.616.616,0,0,1-.154.438.287.287,0,0,0-.061.184,3.256,3.256,0,0,1-.209,1.037,1.9,1.9,0,0,1-.469.875c-.013.183-.034.346-.032.509a1.126,1.126,0,0,1-.124.506.854.854,0,0,0-.022.2,2.074,2.074,0,0,1-.049.237c-.05.19-.176.359-.113.579-.152.62-.241,1.261-.439,1.866a3.743,3.743,0,0,0-.162.586c-.034.223-.094.381-.3.454a.341.341,0,0,0-.2.392,3.072,3.072,0,0,0,.186.874c.211.429.389.88.606,1.3a3.726,3.726,0,0,1,.311,1.17,2.155,2.155,0,0,0,.179.66,2.338,2.338,0,0,1,.211.685,1.369,1.369,0,0,1-.112.827.8.8,0,0,0-.063.271c-.01.161-.066.251-.207.281a.421.421,0,0,0-.336.376,1.53,1.53,0,0,0,.179,1.1,4.533,4.533,0,0,1,.329.63,2.685,2.685,0,0,1,.231.5,1.823,1.823,0,0,0,.213.469,3.563,3.563,0,0,1,.523,1.419,1.912,1.912,0,0,0,.3.864,7.006,7.006,0,0,1,.54,1,.857.857,0,0,1,.059.233,1.931,1.931,0,0,0,.019.245,6.839,6.839,0,0,0,.249.9c.1.231.2.466.286.706.158.443.324.881.523,1.3a.846.846,0,0,1,.054.151,1.856,1.856,0,0,0,.329.716.856.856,0,0,1,.1.214c.035.085.062.176.1.259a1.724,1.724,0,0,0,.429.692c.082.062.113.208.186.293.184.209.363.425.553.627a4.169,4.169,0,0,0,.635.586.413.413,0,0,1,.17.2.578.578,0,0,0,.377.4c.163.073.328.145.486.231a1.849,1.849,0,0,1,.581.453,3.8,3.8,0,0,1,.5.785c.073.156.154.309.233.462a.618.618,0,0,0,.379.339,3.268,3.268,0,0,1,.6.25.573.573,0,0,1,.264.253c.075.193.21.329.3.507a.74.74,0,0,0,.444.434.333.333,0,0,1,.247.27.943.943,0,0,0,.223.455,2.74,2.74,0,0,1,.313.5c.152.351.478.462.69.727.025.031.089.031.133.025a.675.675,0,0,1,.684.4.415.415,0,0,0,.06.1.4.4,0,0,0,.148.1c.251.065.506.116.758.182a1.482,1.482,0,0,1,.334.13,1.66,1.66,0,0,0,.234.087c-.028.031-.053.064-.081.094a1.115,1.115,0,0,1-.264.17,2.523,2.523,0,0,0-.355.262,2.7,2.7,0,0,1,.635.232.779.779,0,0,0,.979-.08.376.376,0,0,1,.516-.04,4.288,4.288,0,0,0,.538.337,4.333,4.333,0,0,1,.283.674c.07.2.12.4.174.608a.838.838,0,0,1,.053.309,4.449,4.449,0,0,0,.084,1.2,1.336,1.336,0,0,0,.182.412,3.259,3.259,0,0,1,.545.584c.2.262.345.566.536.834a3,3,0,0,1,.58,1.515.968.968,0,0,0,.217.582,1,1,0,0,1,.341,1.179c.6.55,1.15,1.032,1.675,1.543a1.83,1.83,0,0,1,.311.538,9.169,9.169,0,0,0,1.341,2.358,5.2,5.2,0,0,0,.429.448,1.836,1.836,0,0,1,.643,1.062.9.9,0,0,0,.117.345,4.967,4.967,0,0,1,.566,2.3c.013.09-.034.194-.008.275.213.646-.127,1.184-.24,1.763-.029.148-.2.258-.335.413.078.1.132.221.22.275a21.806,21.806,0,0,1,1.868,1.583,5.5,5.5,0,0,1,1.412,1.578,1.331,1.331,0,0,0,.374.366c.35.259.7.521,1.069.747a3.624,3.624,0,0,1,1.328,2.275,7.683,7.683,0,0,0,.308.9c.069.134.124.277.172.386,0,.1.013.175-.014.217a2.177,2.177,0,0,0-.079,1.848,5.246,5.246,0,0,0,.955,1.95,1.623,1.623,0,0,1,.274,1.533.58.58,0,0,1-.092.252,1.9,1.9,0,0,0-.24,1.73c.16.843.377,1.677.487,2.525a25.572,25.572,0,0,0,.9,3.948,5.072,5.072,0,0,1,.155.911,2.011,2.011,0,0,0,.395,1.087c.009.709.017,1.32.024,1.931a1.344,1.344,0,0,1-.008.365,2.336,2.336,0,0,0,.528,2.127,2.044,2.044,0,0,1,.35,1.305,4.816,4.816,0,0,0,.348,1.7,1.8,1.8,0,0,1,.136.9,4.283,4.283,0,0,0,.171,1.55,10.718,10.718,0,0,1,.323,1.717,5.348,5.348,0,0,0,.338,1.607,3.747,3.747,0,0,1,.2,1.447c-.028.982-.238,1.933-.309,2.906a2.087,2.087,0,0,0,.111,1.17.942.942,0,0,1-.085.959,1.245,1.245,0,0,0-.129.969,4.707,4.707,0,0,1,.084,1.376,1.913,1.913,0,0,0,.056.642,9.613,9.613,0,0,1,.147,2.386,1.363,1.363,0,0,1-.042.257.7.7,0,0,1-.332.192c-.3.054-.521.41-.868.393-.1,0-.193.089-.29.137-.212.106-.42.227-.639.314a.8.8,0,0,0-.5.41.443.443,0,0,1-.4.312.4.4,0,0,0-.277.137s0,.009,0,.014a4.921,4.921,0,0,1-.294,1.561,2.871,2.871,0,0,1-.688,1.326c-.014.274-.043.519-.037.763a1.684,1.684,0,0,1-.175.763,1.222,1.222,0,0,0-.029.3,3.279,3.279,0,0,1-.069.358c-.073.286-.258.543-.16.871-.214.935-.336,1.9-.621,2.811a5.625,5.625,0,0,0-.232.883c-.046.335-.134.574-.437.688a.515.515,0,0,0-.293.594,4.64,4.64,0,0,0,.3,1.306c.324.637.6,1.309.934,1.939a5.589,5.589,0,0,1,.49,1.747,3.246,3.246,0,0,0,.28.985,3.472,3.472,0,0,1,.331,1.022,2.066,2.066,0,0,1-.152,1.243,1.193,1.193,0,0,0-.089.409c-.012.241-.1.377-.306.427a.634.634,0,0,0-.5.572,2.283,2.283,0,0,0,.29,1.647c.007.009.01.021.016.03a5.541,5.541,0,0,0-.139,2.243,1.085,1.085,0,0,1-.167.867,1.961,1.961,0,0,0-.18.324,6.088,6.088,0,0,0-.057,1.443,3.159,3.159,0,0,1-.066,1,3.337,3.337,0,0,0-.075,1.19,1.354,1.354,0,0,1-.156.9c-.094.173-.152.362-.233.54.14.062.287.112.422.187.221.122.331.431.607.474a.134.134,0,0,1,.055.019,4.47,4.47,0,0,1,.684.578,5.425,5.425,0,0,0,.405.451,1.814,1.814,0,0,1,.675,1.008.527.527,0,0,0,.5.461.439.439,0,0,1,.308.141c.368.489.966.645,1.317,1.151a5.73,5.73,0,0,1,1.175,1.041,1.233,1.233,0,0,1,.372.484.506.506,0,0,0,.324.347.594.594,0,0,1,.425.433c.12-.018.231-.047.334-.064.031.028.045.07.079.1.123.092.173.31.285.434.28.31.552.628.842.927a6.147,6.147,0,0,0,.963.861.613.613,0,0,1,.258.29.868.868,0,0,0,.574.583c.246.105.494.208.734.333a2.769,2.769,0,0,1,.879.663,5.563,5.563,0,0,1,.763,1.165c.1.209.214.413.323.617l.036.069a.92.92,0,0,0,.576.5,4.92,4.92,0,0,1,.9.36.844.844,0,0,1,.4.372c.118.288.322.489.457.753a1.111,1.111,0,0,0,.675.64.493.493,0,0,1,.375.4,1.427,1.427,0,0,0,.344.677,4.073,4.073,0,0,1,.478.736c.236.523.728.681,1.051,1.073.037.046.133.044.2.035a1,1,0,0,1,1.033.583.629.629,0,0,0,.093.149.6.6,0,0,0,.223.146c.379.092.762.161,1.141.253a2.257,2.257,0,0,1,.5.186,1.284,1.284,0,0,0,1.312.1.251.251,0,0,1,.153-.037,3.033,3.033,0,0,1,.724.14,4.7,4.7,0,0,0,.712.224.888.888,0,0,1,.559.323.534.534,0,0,0,.628.2,1.064,1.064,0,0,1,.82.128.616.616,0,0,0,.557.06,4.456,4.456,0,0,1,.46-.145,1,1,0,0,1,.913.164,3.394,3.394,0,0,0,.525.273,1.322,1.322,0,0,1,.28.163.39.39,0,0,0,.389.126.258.258,0,0,1,.195.062.415.415,0,0,0,.4.064,2.255,2.255,0,0,1,1.357.035,3.406,3.406,0,0,0,1.247.234,2.723,2.723,0,0,1,.367.045,1.443,1.443,0,0,0,.47.024.575.575,0,0,1,.546.113c.19.149.411.242.6.384a1.673,1.673,0,0,0,1,.36.683.683,0,0,1,.488.2,1.883,1.883,0,0,0,.814.427c.307.084.606.212.908.323a.606.606,0,0,0,.463.041,1.434,1.434,0,0,1,.289-.066c.273-.255.484-.471.711-.661a1.13,1.13,0,0,1,.8-.258c.439.021.876.08,1.313.12a.7.7,0,0,0,.157-.017c.193-.027.386-.047.577-.086a.953.953,0,0,0,.347-.122,1.59,1.59,0,0,1,.963-.275,2.645,2.645,0,0,0,1.4-.225c.091-.05.21-.024.312-.056l.006,0a3.885,3.885,0,0,0,.794-.3c.139-.081.2-.345.333-.449.154-.117.393-.1.533-.227.347-.325.75-.535,1.107-.827a2.088,2.088,0,0,1,1.332-.494h.046c.392-.007.783,0,1.173-.021a.779.779,0,0,0,.5-.139,10.87,10.87,0,0,0,1.138-.994.484.484,0,0,1,.573-.216.529.529,0,0,0,.509-.08,6.425,6.425,0,0,0,.891-.635,4.879,4.879,0,0,1,1.26-.882,2.592,2.592,0,0,0,.492-.294,13.335,13.335,0,0,1,3.781-.421,3.44,3.44,0,0,0,.681-.1,2.993,2.993,0,0,1,2.042-1.653,1.533,1.533,0,0,0,.663-.448,1.974,1.974,0,0,1,1.273-.547,8.04,8.04,0,0,0,4.044-1.6,2.136,2.136,0,0,1,.835-.418c1.354-.311,2.713-.605,4.076-.86a2.1,2.1,0,0,1,1.77.395,10.572,10.572,0,0,0,1.708.893c.588-.391,1.183-.746,1.738-1.172a1.8,1.8,0,0,1,1.15-.44c1.588.036,3.152-.431,4.744-.28a3.105,3.105,0,0,1,3.1.207,8.317,8.317,0,0,0,1.632-.459,1.822,1.822,0,0,1,2.423.333,1.454,1.454,0,0,0,1.862.379c.129-.069.3-.023.507-.032.559.432,1.109,1.008,1.9.924a.71.71,0,0,1,.558.248,2.2,2.2,0,0,0,2.3.664,2.44,2.44,0,0,1,1.92.47,1.571,1.571,0,0,0,1.294.265,8.274,8.274,0,0,1,3.468.282,3.578,3.578,0,0,0,2.722.045.969.969,0,0,1,.612-.038,5.117,5.117,0,0,0,3.134-.434,3.5,3.5,0,0,0,2.279.455,9.565,9.565,0,0,1,2.279-.37,9.723,9.723,0,0,0,3.324-.672,4.179,4.179,0,0,1,2.276-.162,11.781,11.781,0,0,0,3.516.208,13.37,13.37,0,0,1,3.979-.022,2.721,2.721,0,0,0,2.86-.875.618.618,0,0,1,.568-.177,4.437,4.437,0,0,1,1.587.6,4.674,4.674,0,0,0,1.555.695,6.957,6.957,0,0,0,2.609.094,3.136,3.136,0,0,1,1.162.138l-.006.111c.354.44.638.789.917,1.143a2.647,2.647,0,0,0,.361.475c.583.443,1.182.859,1.876,1.357.093.152-.018.566.271.773.658.471.779,1.359,1.161,2.045a1.085,1.085,0,0,1,.707.133.613.613,0,0,0,.557.059,4.641,4.641,0,0,1,.461-.144,1,1,0,0,1,.913.164,3.349,3.349,0,0,0,.525.273,1.344,1.344,0,0,1,.28.162.388.388,0,0,0,.389.128.248.248,0,0,1,.194.061c.077.059.162.036.242.038.052,0,.1.042.158.025a2.274,2.274,0,0,1,1.358.036,3.406,3.406,0,0,0,1.247.234,2.592,2.592,0,0,1,.367.046,1.469,1.469,0,0,0,.47.023.573.573,0,0,1,.546.114c.189.149.41.241.6.383a1.67,1.67,0,0,0,1,.36.68.68,0,0,1,.488.2,1.88,1.88,0,0,0,.813.427c.308.084.606.212.909.323a.606.606,0,0,0,.463.041,1.354,1.354,0,0,1,.289-.066c.272-.255.483-.471.71-.661a1.131,1.131,0,0,1,.8-.258c.438.022.875.08,1.313.12a.4.4,0,0,0,.068-.007c.03,0,.059-.006.089-.011.192-.026.385-.046.576-.085a.965.965,0,0,0,.348-.122,1.6,1.6,0,0,1,.963-.275,2.65,2.65,0,0,0,1.4-.225c.091-.05.211-.023.312-.056a4.055,4.055,0,0,0,.8-.3c.139-.082.195-.346.332-.449.155-.119.394-.1.534-.228.346-.325.75-.536,1.106-.827a2.088,2.088,0,0,1,1.333-.494c.407-.008.813,0,1.219-.021a.783.783,0,0,0,.5-.139,10.973,10.973,0,0,0,1.138-.994.485.485,0,0,1,.573-.217.531.531,0,0,0,.509-.078,6.555,6.555,0,0,0,.891-.636,4.887,4.887,0,0,1,1.26-.882,1.527,1.527,0,0,0,.808-.654,2.6,2.6,0,0,1,.659-.775,3.02,3.02,0,0,0,.739-.864c.092-.173.308-.251.453-.394s.139-.453.368-.579a.843.843,0,0,0,.386-.81c0-.566.13-.743.605-.8a1.591,1.591,0,0,0,.817-.4c.158-.127.325-.239.49-.356.059-.042.145-.057.18-.117a1.06,1.06,0,0,1,.671-.45.587.587,0,0,0,.414-.508c.029-.179.085-.353.124-.508l.028-.025c.317-.277.619-.536.913-.8a.751.751,0,0,0,.2-.269,2.118,2.118,0,0,1,.5-.854.681.681,0,0,0,.082-.157,6.167,6.167,0,0,1,.476-.813,3.159,3.159,0,0,0,.431-1.088c.069-.222.112-.47.167-.707a.757.757,0,0,1,.56-.657,1.325,1.325,0,0,0,.642-.413,5.912,5.912,0,0,0,.931-1.084.676.676,0,0,1,.425-.342.848.848,0,0,0,.32-.193,6.161,6.161,0,0,0,1.116-1.925.76.76,0,0,0,.03-.18c.065-.277.119-.558.2-.827a1.152,1.152,0,0,0,.059-.6.818.818,0,0,1,.219-.774,1.339,1.339,0,0,0,.349-.864,1.785,1.785,0,0,1,.364-1.2,1.412,1.412,0,0,1,.05-1.088,6.01,6.01,0,0,0,.341-1.022,4.538,4.538,0,0,0,.177-1.785c0-.013,0-.025,0-.039a1.892,1.892,0,0,1,.184-1.12c.082-.16.158-.324.225-.492a3.72,3.72,0,0,0,.284-1.735,3.6,3.6,0,0,1-.006-.849,2.147,2.147,0,0,1,.173-.829.568.568,0,0,0,.045-.3c-.014-.224-.041-.449-.076-.671a.875.875,0,0,1,.016-.6c.2-.314.156-.712.307-1.041a1.076,1.076,0,0,0,.027-.425,2.5,2.5,0,0,0-.043-.55.871.871,0,0,1,.053-.6.987.987,0,0,0,.062-.6.469.469,0,0,1-.01-.239,1.191,1.191,0,0,0-.009-.838.756.756,0,0,1,.051-.644.327.327,0,0,0,.026-.177c-.024-.513-.036-1.029-.085-1.539a1.854,1.854,0,0,0-.343-1.14c-.191-.2-.163-.436-.226-.662-.068-.251-.241-.464-.2-.753a2.955,2.955,0,0,1,.063-.3c.023-.088.057-.173.086-.261-.228-.1-.424-.177-.625-.26.039-.29.062-.574-.168-.694a1.607,1.607,0,0,1-.54-.653c.037-.14.073-.272.1-.38-.056-.136-.1-.246-.145-.358-.122-.307-.058-.711-.358-.924a.071.071,0,0,1-.012-.058.446.446,0,0,0-.127-.438.335.335,0,0,1-.066-.227,10.6,10.6,0,0,1,.1-1.165,1.188,1.188,0,0,0,.281-.146c.08-.078.159-.158.241-.235a2.569,2.569,0,0,1-.342-.741,2.271,2.271,0,0,0-.507-.9,3.187,3.187,0,0,1-.5-.694,4.964,4.964,0,0,0-.579-.972c-.007-.011-.007-.029-.015-.04a.928.928,0,0,1-.168-.446,5.424,5.424,0,0,0-.78-2.359,3.165,3.165,0,0,1-.512-1.221,1.07,1.07,0,0,0-.223-.467,2.664,2.664,0,0,1-.565-1.71,1.38,1.38,0,0,0-.185-.482c-.007-.016-.015-.032-.023-.048a1.736,1.736,0,0,1-.2-.519,15.45,15.45,0,0,1-.172-2.909,2.911,2.911,0,0,0-.027-.406,1.8,1.8,0,0,1-.675-1.247,1,1,0,0,0-.18-.4.909.909,0,0,1-.067-.154,1.726,1.726,0,0,1-.144-.613,5.912,5.912,0,0,0-.61-2.432,1.508,1.508,0,0,1-.164-.5c-.106-.811-.2-1.623-.286-2.437a1.6,1.6,0,0,1,.21-1.041,7.315,7.315,0,0,0,.424-.994c-.157-.357-.3-.717-.472-1.056a1.328,1.328,0,0,1-.166-.692c.049-.94-.12-1.878-.02-2.819a2.414,2.414,0,0,1,.156-1.832,6.461,6.461,0,0,0-.165-.978,1.364,1.364,0,0,1,.2-1.43,1.077,1.077,0,0,0,.2-1.1,1.094,1.094,0,0,1,0-.3,1.875,1.875,0,0,0,.442-1.11.5.5,0,0,1,.12-.326,1.62,1.62,0,0,0,.338-1.348,1.848,1.848,0,0,1,.245-1.13,1.2,1.2,0,0,0,.143-.761,6.583,6.583,0,0,1,.2-2.051,4.09,4.09,0,0,0,.146-.876,2.057,2.057,0,0,0-.069-.737.8.8,0,0,1,0-.364,4.053,4.053,0,0,0-.122-1.868,2.712,2.712,0,0,0,.247-1.342,7.535,7.535,0,0,1-.112-1.36,7.658,7.658,0,0,0-.221-1.985,3.354,3.354,0,0,1-.021-1.354c.067-.479.126-.966.15-1.45a4.942,4.942,0,0,0,.015-.631,10.875,10.875,0,0,1,.076-2.36,2.024,2.024,0,0,0-.319-1.715.463.463,0,0,1-.065-.34,3.219,3.219,0,0,1,.293-.929,3.307,3.307,0,0,0,.335-.908,5.577,5.577,0,0,0,.1-1.545,1.885,1.885,0,0,1,.43-1.328,2.491,2.491,0,0,0,.419-.76c.243-.6.533-1.182.808-1.769a2.792,2.792,0,0,1,.666-.889,3.022,3.022,0,0,0,.546-.647c.234-.391.6-.583.879-.9.3-.336.427-.839.79-1.123.106-.082.247-.2.268-.32a1,1,0,0,1,.748-.8,5.23,5.23,0,0,1,.416-.981,3.594,3.594,0,0,0,.527-1.309c.062-.262.177-.508.239-.771a1.072,1.072,0,0,1,.078-.163,4.671,4.671,0,0,1,1.035-.724,1.531,1.531,0,0,0,.808-.654,1.779,1.779,0,0,1,.295-.347,1.672,1.672,0,0,0,.876-.994c.02-.082.1-.141.155-.214.02-.033.053-.049.072-.084.092-.174.309-.252.452-.4a.747.747,0,0,0,.145-.275.532.532,0,0,1,.225-.3.7.7,0,0,0,.316-.437,12.344,12.344,0,0,0,.855-1.166c.015-.026.028-.054.044-.079a1.943,1.943,0,0,0,.592-.331c.158-.128.325-.24.49-.356.059-.042.145-.058.181-.117a.942.942,0,0,1,.539-.4l.149.021.25-.247,0,0a.667.667,0,0,0,.143-.332c.03-.18.086-.353.124-.508.327-.287.637-.553.941-.828a.766.766,0,0,0,.206-.269,2.1,2.1,0,0,1,.5-.854c.039-.036.053-.106.082-.157a6.28,6.28,0,0,1,.476-.813,3.176,3.176,0,0,0,.431-1.089c.069-.221.112-.469.167-.706a.759.759,0,0,1,.56-.658,1.326,1.326,0,0,0,.643-.412,5.907,5.907,0,0,0,.93-1.084.681.681,0,0,1,.425-.343.833.833,0,0,0,.32-.192,6.161,6.161,0,0,0,1.116-1.925.814.814,0,0,0,.031-.18c.064-.277.119-.559.2-.828a1.147,1.147,0,0,0,.059-.6.817.817,0,0,1,.219-.774,1.328,1.328,0,0,0,.348-.865,1.791,1.791,0,0,1,.364-1.2,1.42,1.42,0,0,1,.051-1.088,6.02,6.02,0,0,0,.341-1.023,4.507,4.507,0,0,0,.177-1.823,1.9,1.9,0,0,1,.147-1.009c.016-.036.018-.076.036-.112.082-.159.158-.323.225-.491a3.72,3.72,0,0,0,.284-1.735,3.6,3.6,0,0,1-.006-.849,2.19,2.19,0,0,1,.173-.83.573.573,0,0,0,.046-.3c-.015-.225-.042-.449-.076-.671a.87.87,0,0,1,.015-.6c.2-.314.156-.712.307-1.041a1.059,1.059,0,0,0,.027-.425,2.493,2.493,0,0,0-.043-.55.864.864,0,0,1,.054-.595,1,1,0,0,0,.062-.6.463.463,0,0,1-.011-.24A1.188,1.188,0,0,0,814.37,162.519Z"/><path class="cls-2" d="M201.5,51.181h1.592V43.339h-1.779V42.333l1.756-.679V40.39c0-2.809,1.684-4.307,3.978-4.307a3.635,3.635,0,0,1,3.862,3.558v.211h-3.183V38.471c0-.749-.327-1.288-1.031-1.288-.771,0-1.287.75-1.052,1.85l.561,2.621h2.927v1.522h-2.669v8H208.8V52.3h-7.3Z"/><path class="cls-2" d="M215.889,52.585c-3.465,0-5.548-2.059-5.548-5.617a5.34,5.34,0,0,1,5.548-5.571c3.674,0,5.1,1.755,5.1,4.588h-7.466c-.024,2.34,1.147,3.885,3.464,3.885a2.794,2.794,0,0,0,2.973-2.364h.937C221.014,50.479,219.118,52.585,215.889,52.585Zm1.545-7.56c0-1.639-.7-2.6-1.9-2.6-1.053,0-1.943.889-1.99,2.6Z"/><path class="cls-2" d="M228.056,46.265V51.2h3.136v1.124h-8.379V51.2h1.873V43.456l-2.155,1.218-.513-1.077,6.038-2.622V45.61c1.358-3.3,2.294-4.33,4.307-4.33v3.464h-1.451A3.342,3.342,0,0,0,228.056,46.265Z"/><path class="cls-2" d="M254.924,51.2v1.124h-6.3V51.2h1.4V45.282a1.67,1.67,0,0,0-1.755-1.755,3.3,3.3,0,0,0-1.918.678l-.071.071a2.478,2.478,0,0,1,.024.421V51.2h1.521v1.124h-6.3V51.2h1.405V45.282a1.671,1.671,0,0,0-1.756-1.755,3.316,3.316,0,0,0-2.082.819V51.2h1.5v1.124h-6.414V51.2h1.545V43.456l-2.155,1.218-.513-1.077,6.039-2.622v2.716A4.816,4.816,0,0,1,242.94,41.4a3.111,3.111,0,0,1,3.23,2.294,4.919,4.919,0,0,1,3.861-2.294,3.163,3.163,0,0,1,3.371,3.3V51.2Z"/><path class="cls-2" d="M261.752,52.585c-3.465,0-5.547-2.059-5.547-5.617a5.34,5.34,0,0,1,5.547-5.571c3.675,0,5.1,1.755,5.1,4.588h-7.467c-.024,2.34,1.147,3.885,3.464,3.885a2.793,2.793,0,0,0,2.972-2.364h.938C266.878,50.479,264.983,52.585,261.752,52.585Zm1.545-7.56c0-1.639-.7-2.6-1.9-2.6-1.052,0-1.942.889-1.989,2.6Z"/><path class="cls-2" d="M282.627,51.2v1.124h-6.3V51.2h1.4V45.282a1.669,1.669,0,0,0-1.754-1.755,3.284,3.284,0,0,0-2.107.842V51.2h1.475v1.124h-6.485V51.2H270.5V43.456l-2.153,1.218-.515-1.077,6.039-2.622v2.739a4.847,4.847,0,0,1,3.861-2.317,3.164,3.164,0,0,1,3.372,3.3V51.2Z"/><path class="cls-2" d="M285.1,49.308V43.339h-1.545v-.983l2.668-1.076-.258-4.682h2.3l-.446,5.056H292.5v1.615h-4.025v5.618c0,1.264.771,1.592,1.684,1.592a1.444,1.444,0,0,0,1.5-1.639l-.186-2.411h1.567L292.922,49c-.094,2.271-1.5,3.581-3.934,3.581C286.7,52.585,285.1,51.906,285.1,49.308Z"/><path class="cls-2" d="M300.174,52.585c-3.465,0-5.547-2.059-5.547-5.617a5.34,5.34,0,0,1,5.547-5.571c3.675,0,5.1,1.755,5.1,4.588H297.81c-.024,2.34,1.147,3.885,3.464,3.885a2.793,2.793,0,0,0,2.972-2.364h.938C305.3,50.479,303.4,52.585,300.174,52.585Zm1.545-7.56c0-1.639-.7-2.6-1.9-2.6-1.052,0-1.942.889-1.989,2.6Z"/><path class="cls-2" d="M315.643,49.94a5.027,5.027,0,0,1-4.238,2.645c-2.5,0-4.423-1.943-4.423-5.173,0-3.675,1.989-6.015,5.43-6.015a3.744,3.744,0,0,1,3,1.17V38l-2.154,1.217-.515-1.077,6.04-2.621v14.91l2.153-1.217.515,1.076-6.039,2.622Zm-.235-.491V44.018a2.493,2.493,0,0,0-2.154-1.311c-1.5,0-2.621,1.335-2.621,3.769,0,2.154,1.053,3.792,2.832,3.792A2.937,2.937,0,0,0,315.408,49.449Z"/><path class="cls-2" d="M213.293,94.981c0,2.037-1.873,3.792-6.133,3.792-4.166,0-5.734-1.053-5.734-2.458,0-.8.538-1.357,2.269-1.708v-.094a1.874,1.874,0,0,1-1.754-1.872c0-1.077.749-1.826,2.036-2.575a3.184,3.184,0,0,1-2.224-2.95c0-2.527,2.13-4.119,4.938-4.119a6.461,6.461,0,0,1,3.02.725V83c0-1.639.983-2.271,1.99-2.271,1.311,0,2.083.843,2.083,2.692h-2.012c0-.772-.211-1.17-.7-1.17-.374,0-.677.234-.677.866v1.053a2.912,2.912,0,0,1,1.17,2.247c0,2.739-2.037,4.12-4.916,4.12a8.028,8.028,0,0,1-2.082-.258,2.993,2.993,0,0,0-.235.983c0,.632.374.96,1.076.89l3.98-.374C211.889,91.54,213.293,92.921,213.293,94.981Zm-2.06.96a1.3,1.3,0,0,0-1.428-1.241h-5.453a1.556,1.556,0,0,0-.493,1.217c0,.867.867,1.686,3.606,1.686C210.438,97.6,211.233,96.76,211.233,95.941Zm-6.157-9.48c0,1.615.4,3.043,1.733,3.043.679,0,1.474-.328,1.474-2.364,0-1.686-.561-3.113-1.732-3.113C205.873,84.027,205.076,84.448,205.076,86.461Z"/><path class="cls-2" d="M219.491,87.865V92.8h3.137v1.124h-8.38V92.8h1.873V85.057l-2.154,1.217-.514-1.077,6.038-2.621V87.21c1.359-3.3,2.294-4.33,4.308-4.33v3.464h-1.451A3.343,3.343,0,0,0,219.491,87.865Z"/><path class="cls-2" d="M238.308,87.631l-.211,3.23a3.059,3.059,0,0,1-3.417,3.207c-1.709,0-2.926-.725-2.926-2.2V91.7a4.414,4.414,0,0,1-3.723,2.481A2.666,2.666,0,0,1,225.2,91.47c0-1.826,1.241-2.668,3.254-3.043l3.3-.632V86.016c0-1.264-.516-1.872-1.5-1.872a1.475,1.475,0,0,0-1.5,1.662v1.287H225.5c0-2.575,2.13-4.1,5.033-4.1,3.206,0,4.564,1.311,4.564,3.7v4.12c0,.632.3,1.006.936,1.006.492,0,.983-.3.959-.8l-.21-3.395Zm-6.554.843-1.686.7a1.735,1.735,0,0,0-1.263,1.522A1.148,1.148,0,0,0,230,91.915a2.262,2.262,0,0,0,1.756-.936Z"/><path class="cls-2" d="M238.983,97.415H240.9V85.057l-2.153,1.217-.515-1.077,6.039-2.621v2.738A4.846,4.846,0,0,1,248.251,83c2.528,0,4.447,1.943,4.447,5.173,0,3.675-1.989,6.015-5.477,6.015a4.33,4.33,0,0,1-2.949-1.076v4.306h1.662v1.124h-6.951Zm10.064-8.309c0-2.153-1.053-3.792-2.879-3.792a2.761,2.761,0,0,0-1.9.819v5.431a2.5,2.5,0,0,0,2.177,1.311C247.947,92.875,249.047,91.517,249.047,89.106Z"/><path class="cls-2" d="M259.949,94.185c-3.464,0-5.547-2.059-5.547-5.617A5.34,5.34,0,0,1,259.949,83c3.676,0,5.1,1.755,5.1,4.588h-7.467c-.023,2.34,1.147,3.885,3.464,3.885a2.794,2.794,0,0,0,2.973-2.364h.936C265.076,92.079,263.18,94.185,259.949,94.185Zm1.545-7.56c0-1.639-.7-2.6-1.9-2.6-1.054,0-1.943.889-1.99,2.6Z"/><path class="cls-2" d="M272.117,87.865V92.8h3.137v1.124h-8.38V92.8h1.872V85.057l-2.152,1.217-.516-1.077,6.039-2.621V87.21c1.358-3.3,2.294-4.33,4.307-4.33v3.464h-1.451A3.344,3.344,0,0,0,272.117,87.865Z"/><path class="cls-2" d="M286.533,86.882v2.692l-8.17-.14V87.023Z"/><path class="cls-2" d="M199.74,137.26v-.234h2.668v.843c0,1.287.328,1.755.866,1.755.445,0,.773-.4.8-1.03.047-1.381-.608-2.294-.608-3.721v-8.216l-2.153,1.217-.516-1.077,6.039-2.621V137.26c0,1.849-1.334,3.113-3.534,3.113C201.356,140.373,199.74,139.671,199.74,137.26Zm3.7-16.127c0-1.592.8-2.154,1.778-2.154,1.03,0,1.8.562,1.8,2.154s-.773,2.2-1.8,2.2C204.234,123.333,203.439,122.724,203.439,121.133Z"/><path class="cls-2" d="M218.158,136.207v-2.715a5.02,5.02,0,0,1-3.791,2.294c-2.154,0-3.207-1.218-3.207-3.512v-5.617l-2.153,1.217-.515-1.077,6.039-2.621v7.607a1.636,1.636,0,0,0,1.592,1.849,3.055,3.055,0,0,0,2.035-.843v-6.132l-2.152,1.217-.516-1.077,6.039-2.621v9.55l2.155-1.218.513,1.077Z"/><path class="cls-2" d="M230.3,124.176V134.4h1.732v1.124h-6.976V134.4h1.873v-7.747l-2.154,1.217-.514-1.077Zm-3.418-3.043c0-1.592.8-2.154,1.779-2.154,1.029,0,1.8.562,1.8,2.154s-.774,2.2-1.8,2.2C227.681,123.333,226.885,122.724,226.885,121.133Z"/><path class="cls-2" d="M238.914,135.786c-3.652,0-5.641-2.271-5.641-5.548a5.453,5.453,0,0,1,5.781-5.641c2.927,0,4.8,1.311,4.915,3.956l-3.486.023c0-1.779-.586-2.856-1.8-2.856-1.24,0-1.99,1.124-2.061,3.043-.094,2.786,1.334,4.354,3.278,4.354a2.829,2.829,0,0,0,3.019-2.2h.913C243.945,133.211,242.565,135.786,238.914,135.786Z"/><path class="cls-2" d="M251.128,135.786c-3.464,0-5.548-2.06-5.548-5.618a5.341,5.341,0,0,1,5.548-5.571c3.675,0,5.1,1.755,5.1,4.588h-7.467c-.024,2.34,1.146,3.885,3.465,3.885a2.793,2.793,0,0,0,2.972-2.364h.936C256.254,133.679,254.358,135.786,251.128,135.786Zm1.545-7.561c0-1.638-.7-2.6-1.9-2.6-1.053,0-1.943.889-1.99,2.6Z"/><path class="cls-2" d="M206.926,171.065V176h3.137v1.124h-8.38V176h1.872v-7.748l-2.153,1.218-.515-1.077,6.039-2.621v4.634c1.357-3.3,2.294-4.33,4.307-4.33v3.464h-1.452A3.343,3.343,0,0,0,206.926,171.065Z"/><path class="cls-2" d="M218.182,177.385c-3.465,0-5.547-2.059-5.547-5.617a5.34,5.34,0,0,1,5.547-5.571c3.675,0,5.1,1.755,5.1,4.588h-7.467c-.023,2.34,1.148,3.885,3.464,3.885a2.794,2.794,0,0,0,2.973-2.364h.937C223.308,175.279,221.412,177.385,218.182,177.385Zm1.545-7.56c0-1.639-.7-2.6-1.9-2.6-1.053,0-1.942.889-1.989,2.6Z"/><path class="cls-2" d="M224.849,180.615h1.919V168.256l-2.153,1.218L224.1,168.4l6.039-2.621v2.738a4.842,4.842,0,0,1,3.978-2.317c2.53,0,4.448,1.943,4.448,5.173,0,3.675-1.989,6.015-5.477,6.015a4.324,4.324,0,0,1-2.949-1.077v4.307H231.8v1.124h-6.952Zm10.065-8.309c0-2.154-1.054-3.792-2.879-3.792a2.759,2.759,0,0,0-1.9.819v5.431a2.5,2.5,0,0,0,2.177,1.311C233.814,176.075,234.914,174.717,234.914,172.306Z"/><path class="cls-2" d="M245.652,171.065V176h3.137v1.124h-8.38V176h1.872v-7.748l-2.152,1.218-.516-1.077,6.039-2.621v4.634c1.358-3.3,2.294-4.33,4.307-4.33v3.464h-1.451A3.345,3.345,0,0,0,245.652,171.065Z"/><path class="cls-2" d="M263.3,171.463c0,3.98-2.739,5.922-6.274,5.922-3.488,0-5.664-2.106-5.664-5.36,0-4.026,2.926-5.828,6.249-5.828C261.215,166.2,263.3,168.256,263.3,171.463Zm-3.7,1.264c0-3.206-.725-5.453-2.621-5.453-1.217,0-1.92,1.263-1.92,3.557,0,3.184.656,5.454,2.575,5.454C258.828,176.285,259.6,174.974,259.6,172.727Z"/><path class="cls-2" d="M273.664,174.74a5.025,5.025,0,0,1-4.237,2.645c-2.5,0-4.424-1.942-4.424-5.173,0-3.675,1.989-6.015,5.431-6.015a3.748,3.748,0,0,1,3,1.17V162.8l-2.155,1.217-.514-1.077,6.039-2.621v14.91l2.153-1.217.516,1.076-6.039,2.622Zm-.234-.491v-5.431a2.5,2.5,0,0,0-2.155-1.311c-1.5,0-2.621,1.335-2.621,3.769,0,2.154,1.053,3.792,2.832,3.792A2.942,2.942,0,0,0,273.43,174.249Z"/><path class="cls-2" d="M288.9,177.807v-2.716a5.022,5.022,0,0,1-3.791,2.294c-2.155,0-3.207-1.217-3.207-3.511v-5.618l-2.155,1.218-.514-1.077,6.039-2.621v7.607a1.636,1.636,0,0,0,1.591,1.849,3.062,3.062,0,0,0,2.037-.843v-6.133l-2.154,1.218-.514-1.077,6.039-2.621v9.55l2.153-1.218.515,1.077Z"/><path class="cls-2" d="M301.3,177.385c-3.651,0-5.642-2.27-5.642-5.547a5.454,5.454,0,0,1,5.782-5.641c2.925,0,4.8,1.31,4.916,3.955l-3.489.024c0-1.779-.584-2.856-1.8-2.856-1.241,0-1.99,1.124-2.06,3.043-.094,2.786,1.334,4.354,3.277,4.354a2.829,2.829,0,0,0,3.02-2.2h.912C306.33,174.81,304.949,177.385,301.3,177.385Z"/><path class="cls-2" d="M309.158,174.108V168.14h-1.545v-.984l2.669-1.076-.258-4.682h2.294l-.445,5.056h4.682v1.615h-4.026v5.618c0,1.264.772,1.592,1.686,1.592a1.444,1.444,0,0,0,1.5-1.639l-.188-2.411h1.569l-.117,2.575c-.094,2.271-1.5,3.581-3.933,3.581C310.75,177.385,309.158,176.706,309.158,174.108Z"/><path class="cls-2" d="M324.066,165.776V176H325.8v1.124h-6.975V176H320.7v-7.748l-2.154,1.218-.514-1.077Zm-3.417-3.043c0-1.592.794-2.154,1.779-2.154,1.029,0,1.8.562,1.8,2.154s-.772,2.2-1.8,2.2C321.443,164.933,320.649,164.324,320.649,162.733Z"/><path class="cls-2" d="M339.348,167.6h-1.194l-4.775,9.784h-1.428l-4.728-9.784h-1.194v-1.123h6.459V167.6h-1.545l2.928,6.133,2.27-4.658V167.6h-1.358v-1.123h4.565Z"/><path class="cls-2" d="M345.242,177.385c-3.465,0-5.547-2.059-5.547-5.617a5.34,5.34,0,0,1,5.547-5.571c3.676,0,5.1,1.755,5.1,4.588h-7.467c-.023,2.34,1.146,3.885,3.463,3.885a2.8,2.8,0,0,0,2.973-2.364h.937C350.369,175.279,348.473,177.385,345.242,177.385Zm1.545-7.56c0-1.639-.7-2.6-1.9-2.6-1.053,0-1.942.889-1.989,2.6Z"/><path class="cls-2" d="M201.426,222.215h1.919V209.857l-2.154,1.217L200.676,210l6.039-2.621v2.738a4.846,4.846,0,0,1,3.979-2.317c2.529,0,4.448,1.943,4.448,5.173,0,3.675-1.99,6.015-5.478,6.015a4.332,4.332,0,0,1-2.949-1.076v4.306h1.662v1.124h-6.951Zm10.064-8.309c0-2.153-1.052-3.792-2.879-3.792a2.763,2.763,0,0,0-1.9.819v5.431a2.5,2.5,0,0,0,2.178,1.311C210.391,217.675,211.49,216.317,211.49,213.906Z"/><path class="cls-2" d="M229.953,212.432l-.211,3.23a3.058,3.058,0,0,1-3.417,3.206c-1.708,0-2.926-.725-2.926-2.2V216.5a4.408,4.408,0,0,1-3.721,2.481,2.666,2.666,0,0,1-2.832-2.715c0-1.826,1.24-2.668,3.254-3.043l3.3-.632v-1.779c0-1.264-.514-1.872-1.5-1.872a1.475,1.475,0,0,0-1.5,1.662v1.287H217.15c0-2.575,2.129-4.1,5.032-4.1,3.207,0,4.564,1.311,4.564,3.7v4.12c0,.632.3,1.006.938,1.006.49,0,.982-.3.959-.8l-.211-3.393Zm-6.554.842-1.684.7a1.734,1.734,0,0,0-1.265,1.522,1.149,1.149,0,0,0,1.2,1.217,2.258,2.258,0,0,0,1.754-.936Z"/><path class="cls-2" d="M236.269,212.665V217.6h3.136v1.124h-8.38V217.6H232.9v-7.747l-2.155,1.217L230.231,210l6.038-2.621v4.634c1.358-3.3,2.294-4.33,4.307-4.33v3.464h-1.451A3.342,3.342,0,0,0,236.269,212.665Z"/><path class="cls-2" d="M243.171,215.708V209.74h-1.545v-.984l2.669-1.076L244.037,203h2.293l-.444,5.056h4.681v1.615h-4.026v5.618c0,1.264.774,1.592,1.686,1.592a1.444,1.444,0,0,0,1.5-1.639l-.188-2.411h1.569l-.118,2.575c-.093,2.271-1.5,3.581-3.931,3.581C244.762,218.985,243.171,218.307,243.171,215.708Z"/><path class="cls-2" d="M254.66,217.23v1.5h-1.638v-4h1.591v1.592a4.76,4.76,0,0,0,3.418,1.358c1.287,0,1.871-.539,1.871-1.241,0-.749-.327-1.17-3.112-1.826-3.183-.749-3.839-1.8-3.839-3.558,0-2.106,1.8-3.253,4.1-3.253a5.208,5.208,0,0,1,3.7,1.381v-1.1h1.686v3.581H260.84v-1.428a4.81,4.81,0,0,0-3.09-1.24c-1.24,0-1.732.515-1.732,1.1,0,.655.328,1.147,2.48,1.662,3.676.889,4.424,1.638,4.4,3.721-.023,2.271-1.755,3.511-4.166,3.511A5.124,5.124,0,0,1,254.66,217.23Z"/><path class="cls-2" d="M213.481,254.663c0,3.979-2.74,5.922-6.274,5.922-3.488,0-5.664-2.106-5.664-5.36,0-4.026,2.926-5.828,6.249-5.828C211.4,249.4,213.481,251.456,213.481,254.663Zm-3.7,1.264c0-3.206-.724-5.453-2.621-5.453-1.217,0-1.92,1.263-1.92,3.557,0,3.184.657,5.454,2.576,5.454C209.01,259.485,209.781,258.174,209.781,255.927Z"/><path class="cls-2" d="M215.114,259.181h1.592v-7.842h-1.779v-1.006l1.756-.679V248.39c0-2.809,1.684-4.307,3.979-4.307a3.635,3.635,0,0,1,3.862,3.558v.211H221.34v-1.381c0-.749-.327-1.288-1.029-1.288-.773,0-1.287.75-1.053,1.85l.56,2.621h2.926v1.522h-2.668v8h2.341V260.3h-7.3Z"/><path class="cls-2" d="M203.508,300.43v1.5H201.87v-4h1.592v1.592a4.758,4.758,0,0,0,3.417,1.358c1.287,0,1.873-.539,1.873-1.241,0-.749-.328-1.17-3.113-1.826-3.184-.749-3.839-1.8-3.839-3.558,0-2.106,1.8-3.253,4.1-3.253a5.2,5.2,0,0,1,3.7,1.381v-1.1h1.685v3.581h-1.591v-1.428a4.81,4.81,0,0,0-3.09-1.24c-1.24,0-1.732.514-1.732,1.1,0,.655.327,1.147,2.482,1.662,3.674.889,4.424,1.638,4.4,3.721-.023,2.271-1.756,3.511-4.166,3.511A5.128,5.128,0,0,1,203.508,300.43Z"/><path class="cls-2" d="M219.07,302.185c-3.464,0-5.546-2.059-5.546-5.617A5.339,5.339,0,0,1,219.07,291c3.675,0,5.1,1.755,5.1,4.588h-7.467c-.023,2.34,1.148,3.885,3.464,3.885a2.794,2.794,0,0,0,2.973-2.364h.937C224.2,300.079,222.3,302.185,219.07,302.185Zm1.545-7.56c0-1.639-.7-2.6-1.9-2.6-1.053,0-1.943.889-1.989,2.6Z"/><path class="cls-2" d="M231.4,302.185c-3.464,0-5.547-2.059-5.547-5.617A5.34,5.34,0,0,1,231.4,291c3.674,0,5.1,1.755,5.1,4.588h-7.467c-.023,2.34,1.148,3.885,3.465,3.885a2.794,2.794,0,0,0,2.973-2.364h.936C236.527,300.079,234.632,302.185,231.4,302.185Zm1.545-7.56c0-1.639-.7-2.6-1.9-2.6-1.053,0-1.943.889-1.99,2.6Z"/><path class="cls-2" d="M246.87,299.54a5.023,5.023,0,0,1-4.237,2.645c-2.5,0-4.424-1.942-4.424-5.173,0-3.674,1.99-6.015,5.431-6.015a3.746,3.746,0,0,1,3,1.17V287.6l-2.153,1.217-.516-1.077,6.039-2.621v14.91l2.154-1.217.515,1.076-6.039,2.622Zm-.234-.491v-5.431a2.492,2.492,0,0,0-2.153-1.31c-1.5,0-2.622,1.334-2.622,3.768,0,2.154,1.053,3.792,2.832,3.792A2.939,2.939,0,0,0,246.636,299.049Z"/><path class="cls-2" d="M258.66,305.415h1.92V293.057l-2.153,1.217-.515-1.077,6.039-2.621v2.738A4.841,4.841,0,0,1,267.93,291c2.528,0,4.447,1.943,4.447,5.173,0,3.675-1.989,6.015-5.477,6.015a4.328,4.328,0,0,1-2.949-1.076v4.306h1.662v1.124H258.66Zm10.066-8.309c0-2.153-1.054-3.792-2.879-3.792a2.759,2.759,0,0,0-1.9.819v5.431a2.5,2.5,0,0,0,2.176,1.311C267.625,300.875,268.726,299.517,268.726,297.106Z"/><path class="cls-2" d="M278.9,285.122V300.8h1.663v1.124h-6.952V300.8h1.919V287.6l-2.153,1.217-.516-1.077Z"/><path class="cls-2" d="M294.981,295.631l-.211,3.23a3.059,3.059,0,0,1-3.417,3.207c-1.708,0-2.926-.725-2.926-2.2V299.7a4.411,4.411,0,0,1-3.722,2.481,2.666,2.666,0,0,1-2.832-2.715c0-1.826,1.24-2.668,3.254-3.043l3.3-.632v-1.779c0-1.264-.515-1.872-1.5-1.872a1.475,1.475,0,0,0-1.5,1.662v1.287h-3.253c0-2.575,2.129-4.1,5.031-4.1,3.207,0,4.565,1.311,4.565,3.7v4.12c0,.632.3,1.006.937,1.006.49,0,.982-.3.959-.8l-.211-3.4Zm-6.554.843-1.685.7a1.735,1.735,0,0,0-1.264,1.522,1.148,1.148,0,0,0,1.194,1.217,2.26,2.26,0,0,0,1.755-.936Z"/><path class="cls-2" d="M310,300.8v1.124h-6.3V300.8h1.4v-5.922a1.67,1.67,0,0,0-1.755-1.755,3.281,3.281,0,0,0-2.106.842V300.8h1.475v1.124H296.24V300.8h1.639v-7.747l-2.154,1.217-.514-1.077,6.039-2.621v2.738A4.845,4.845,0,0,1,305.111,291a3.164,3.164,0,0,1,3.372,3.3V300.8Z"/><path class="cls-2" d="M312.481,298.908V292.94h-1.545v-.984l2.668-1.076-.258-4.682h2.294l-.445,5.056h4.682v1.615h-4.026v5.618c0,1.264.772,1.592,1.684,1.592a1.444,1.444,0,0,0,1.5-1.639l-.187-2.411h1.568L320.3,298.6c-.094,2.271-1.5,3.581-3.932,3.581C314.071,302.185,312.481,301.506,312.481,298.908Z"/><path class="cls-2" d="M323.969,300.43v1.5H322.33v-4h1.592v1.592a4.762,4.762,0,0,0,3.418,1.358c1.287,0,1.873-.539,1.873-1.241,0-.749-.328-1.17-3.113-1.826-3.184-.749-3.838-1.8-3.838-3.558,0-2.106,1.8-3.253,4.1-3.253a5.2,5.2,0,0,1,3.7,1.381v-1.1h1.685v3.581h-1.591v-1.428a4.805,4.805,0,0,0-3.09-1.24c-1.241,0-1.733.514-1.733,1.1,0,.655.328,1.147,2.483,1.662,3.674.889,4.424,1.638,4.4,3.721-.023,2.271-1.756,3.511-4.166,3.511A5.128,5.128,0,0,1,323.969,300.43Z"/><path class="cls-2" d="M167.941,35.428v6.3h-1.779V38.752l-1.709-1.264h-3.3V51.157h2.178v1.171h-8.1V51.157h2.154V37.488H153.1l-1.428.655v3.581H149.9v-6.3h1.778v.936h14.489v-.936Z"/><path class="cls-2" d="M183.149,51.2v1.124h-6.295V51.2h1.4V45.282a1.672,1.672,0,0,0-1.756-1.755,3.284,3.284,0,0,0-2.107.842V51.2h1.474v1.124h-6.482V51.2h1.637V38l-2.153,1.217-.515-1.077,6.039-2.621v8.192a4.849,4.849,0,0,1,3.863-2.317,3.164,3.164,0,0,1,3.37,3.3V51.2Z"/><path class="cls-2" d="M189.981,52.585c-3.465,0-5.548-2.059-5.548-5.617a5.34,5.34,0,0,1,5.548-5.571c3.673,0,5.1,1.755,5.1,4.588h-7.467c-.023,2.34,1.148,3.885,3.465,3.885a2.794,2.794,0,0,0,2.973-2.364h.936C195.106,50.479,193.21,52.585,189.981,52.585Zm1.544-7.56c0-1.639-.7-2.6-1.9-2.6-1.053,0-1.943.889-1.99,2.6Z"/><path class="cls-2" d="M88.733,170.831l-.211,3.23a3.06,3.06,0,0,1-3.418,3.207c-1.709,0-2.926-.725-2.926-2.2V174.9a4.413,4.413,0,0,1-3.722,2.481,2.666,2.666,0,0,1-2.832-2.715c0-1.826,1.24-2.668,3.253-3.043l3.3-.632v-1.779c0-1.264-.515-1.872-1.5-1.872a1.475,1.475,0,0,0-1.5,1.662v1.287H75.928c0-2.575,2.131-4.1,5.033-4.1,3.207,0,4.564,1.31,4.564,3.7v4.12c0,.632.3,1.006.936,1.006.492,0,.983-.3.96-.8l-.21-3.394Zm-6.555.843-1.686.7a1.735,1.735,0,0,0-1.263,1.522,1.149,1.149,0,0,0,1.193,1.217,2.26,2.26,0,0,0,1.756-.936Z"/><path class="cls-2" d="M110.823,176v1.124h-6.3V176h1.405v-5.922a1.672,1.672,0,0,0-1.756-1.755,3.3,3.3,0,0,0-1.92.679l-.07.07a2.585,2.585,0,0,1,.023.421V176h1.522v1.124h-6.3V176h1.4v-5.922a1.671,1.671,0,0,0-1.755-1.755,3.326,3.326,0,0,0-2.084.819V176h1.5v1.124H90.085V176h1.544v-7.748l-2.152,1.218-.516-1.077L95,165.776v2.715a4.822,4.822,0,0,1,3.839-2.294,3.109,3.109,0,0,1,3.23,2.294,4.921,4.921,0,0,1,3.863-2.294,3.163,3.163,0,0,1,3.37,3.3V176Z"/><path class="cls-2" d="M124.041,171.463c0,3.98-2.738,5.922-6.272,5.922-3.488,0-5.665-2.106-5.665-5.36,0-4.026,2.925-5.828,6.25-5.828C121.958,166.2,124.041,168.256,124.041,171.463Zm-3.7,1.264c0-3.206-.727-5.453-2.622-5.453-1.218,0-1.919,1.263-1.919,3.557,0,3.184.654,5.454,2.574,5.454C119.57,176.285,120.344,174.974,120.344,172.727Z"/><path class="cls-2" d="M139.814,176v1.124h-6.3V176h1.4v-5.922a1.672,1.672,0,0,0-1.756-1.755,3.282,3.282,0,0,0-2.107.843V176h1.475v1.124h-6.483V176h1.639v-7.748l-2.155,1.218-.514-1.077,6.038-2.621v2.738a4.851,4.851,0,0,1,3.863-2.317,3.163,3.163,0,0,1,3.37,3.3V176Z"/><path class="cls-2" d="M152.846,178.181c0,2.036-1.872,3.792-6.132,3.792-4.167,0-5.735-1.053-5.735-2.458,0-.8.539-1.357,2.271-1.708v-.094a1.875,1.875,0,0,1-1.756-1.873c0-1.076.749-1.825,2.036-2.574a3.185,3.185,0,0,1-2.223-2.95c0-2.528,2.131-4.119,4.939-4.119a6.473,6.473,0,0,1,3.02.725V166.2c0-1.639.982-2.271,1.989-2.271,1.311,0,2.083.843,2.083,2.692h-2.014c0-.772-.21-1.17-.7-1.17-.375,0-.68.234-.68.866v1.053a2.9,2.9,0,0,1,1.171,2.247c0,2.739-2.036,4.12-4.915,4.12a8.055,8.055,0,0,1-2.084-.258,3.016,3.016,0,0,0-.234.983c0,.632.375.96,1.077.89l3.98-.375C151.441,174.74,152.846,176.121,152.846,178.181Zm-2.059.96a1.3,1.3,0,0,0-1.428-1.241H143.9a1.56,1.56,0,0,0-.49,1.217c0,.867.865,1.686,3.6,1.686C149.99,180.8,150.787,179.96,150.787,179.141Zm-6.156-9.48c0,1.615.4,3.043,1.732,3.043.678,0,1.475-.328,1.475-2.364,0-1.686-.563-3.113-1.732-3.113C145.426,167.227,144.631,167.648,144.631,169.661Z"/><path class="cls-2" d="M160.237,174.108V168.14h-1.545v-.984l2.669-1.076L161.1,161.4H163.4l-.445,5.056h4.682v1.615h-4.026v5.618c0,1.264.773,1.592,1.685,1.592a1.444,1.444,0,0,0,1.5-1.639l-.187-2.411h1.568l-.117,2.575c-.094,2.271-1.5,3.581-3.932,3.581C161.828,177.385,160.237,176.706,160.237,174.108Z"/><path class="cls-2" d="M183.149,176v1.124h-6.3V176h1.4v-5.922a1.671,1.671,0,0,0-1.755-1.755,3.278,3.278,0,0,0-2.107.843V176h1.474v1.124h-6.483V176h1.638V162.8l-2.153,1.217-.515-1.077,6.039-2.621v8.192a4.847,4.847,0,0,1,3.862-2.317,3.163,3.163,0,0,1,3.37,3.3V176Z"/><path class="cls-2" d="M189.98,177.385c-3.464,0-5.548-2.059-5.548-5.617a5.341,5.341,0,0,1,5.548-5.571c3.674,0,5.1,1.755,5.1,4.588h-7.467c-.023,2.34,1.147,3.885,3.465,3.885a2.794,2.794,0,0,0,2.973-2.364h.935C195.106,175.279,193.209,177.385,189.98,177.385Zm1.544-7.56c0-1.639-.7-2.6-1.9-2.6-1.054,0-1.943.889-1.99,2.6Z"/><path class="cls-2" d="M630.5,51.181h1.592V43.339h-1.779V42.333l1.756-.679V40.39c0-2.809,1.685-4.307,3.978-4.307a3.634,3.634,0,0,1,3.861,3.558v.211h-3.181V38.471c0-.749-.328-1.288-1.032-1.288-.771,0-1.287.75-1.052,1.85l.562,2.621h2.926v1.522h-2.67v8H637.8V52.3h-7.3Z"/><path class="cls-2" d="M644.887,52.585c-3.463,0-5.547-2.059-5.547-5.617a5.341,5.341,0,0,1,5.547-5.571c3.676,0,5.1,1.755,5.1,4.588h-7.466c-.024,2.34,1.146,3.885,3.464,3.885a2.794,2.794,0,0,0,2.973-2.364h.936C650.014,50.479,648.117,52.585,644.887,52.585Zm1.545-7.56c0-1.639-.7-2.6-1.895-2.6-1.054,0-1.943.889-1.99,2.6Z"/><path class="cls-2" d="M657.057,46.265V51.2h3.134v1.124h-8.378V51.2h1.873V43.456l-2.155,1.218-.513-1.077,6.039-2.622V45.61c1.357-3.3,2.293-4.33,4.306-4.33v3.464h-1.451A3.339,3.339,0,0,0,657.057,46.265Z"/><path class="cls-2" d="M683.924,51.2v1.124h-6.3V51.2h1.4V45.282a1.67,1.67,0,0,0-1.756-1.755,3.3,3.3,0,0,0-1.917.678l-.071.071a2.478,2.478,0,0,1,.024.421V51.2h1.521v1.124h-6.3V51.2h1.405V45.282a1.67,1.67,0,0,0-1.756-1.755,3.316,3.316,0,0,0-2.082.819V51.2h1.5v1.124h-6.414V51.2h1.545V43.456l-2.155,1.218-.513-1.077,6.039-2.622v2.716A4.816,4.816,0,0,1,671.94,41.4a3.111,3.111,0,0,1,3.23,2.294,4.918,4.918,0,0,1,3.861-2.294,3.163,3.163,0,0,1,3.371,3.3V51.2Z"/><path class="cls-2" d="M690.752,52.585c-3.465,0-5.547-2.059-5.547-5.617a5.34,5.34,0,0,1,5.547-5.571c3.676,0,5.1,1.755,5.1,4.588h-7.467c-.024,2.34,1.146,3.885,3.463,3.885a2.793,2.793,0,0,0,2.972-2.364h.938C695.879,50.479,693.983,52.585,690.752,52.585Zm1.545-7.56c0-1.639-.7-2.6-1.9-2.6-1.052,0-1.941.889-1.988,2.6Z"/><path class="cls-2" d="M711.627,51.2v1.124h-6.3V51.2h1.406V45.282a1.671,1.671,0,0,0-1.755-1.755,3.287,3.287,0,0,0-2.108.842V51.2h1.475v1.124h-6.485V51.2H699.5V43.456l-2.152,1.218-.516-1.077,6.039-2.622v2.739a4.852,4.852,0,0,1,3.863-2.317,3.163,3.163,0,0,1,3.37,3.3V51.2Z"/><path class="cls-2" d="M714.1,49.308V43.339h-1.545v-.983l2.67-1.076-.258-4.682h2.293l-.444,5.056h4.68v1.615h-4.025v5.618c0,1.264.773,1.592,1.685,1.592a1.444,1.444,0,0,0,1.5-1.639l-.187-2.411h1.568L721.922,49c-.094,2.271-1.5,3.581-3.932,3.581C715.7,52.585,714.1,51.906,714.1,49.308Z"/><path class="cls-2" d="M729.174,52.585c-3.463,0-5.547-2.059-5.547-5.617a5.341,5.341,0,0,1,5.547-5.571c3.676,0,5.1,1.755,5.1,4.588h-7.466c-.024,2.34,1.146,3.885,3.464,3.885a2.793,2.793,0,0,0,2.973-2.364h.936C734.3,50.479,732.4,52.585,729.174,52.585Zm1.545-7.56c0-1.639-.7-2.6-1.9-2.6-1.054,0-1.943.889-1.99,2.6Z"/><path class="cls-2" d="M744.643,49.94a5.021,5.021,0,0,1-4.237,2.645c-2.5,0-4.423-1.943-4.423-5.173,0-3.675,1.99-6.015,5.431-6.015a3.748,3.748,0,0,1,3,1.17V38l-2.154,1.217-.516-1.077,6.039-2.621v14.91l2.155-1.217.515,1.076-6.039,2.622Zm-.233-.491V44.018a2.5,2.5,0,0,0-2.154-1.311c-1.5,0-2.621,1.335-2.621,3.769,0,2.154,1.053,3.792,2.832,3.792A2.939,2.939,0,0,0,744.41,49.449Z"/><path class="cls-2" d="M642.293,94.981c0,2.037-1.873,3.792-6.133,3.792-4.166,0-5.734-1.053-5.734-2.458,0-.8.537-1.357,2.269-1.708v-.094a1.875,1.875,0,0,1-1.755-1.872c0-1.077.75-1.826,2.037-2.575a3.182,3.182,0,0,1-2.223-2.95c0-2.527,2.129-4.119,4.937-4.119a6.458,6.458,0,0,1,3.02.725V83c0-1.639.984-2.271,1.99-2.271,1.311,0,2.084.843,2.084,2.692h-2.013c0-.772-.211-1.17-.7-1.17-.373,0-.677.234-.677.866v1.053a2.912,2.912,0,0,1,1.17,2.247c0,2.739-2.037,4.12-4.916,4.12a8.028,8.028,0,0,1-2.082-.258,2.993,2.993,0,0,0-.235.983c0,.632.375.96,1.076.89l3.979-.374C640.889,91.54,642.293,92.921,642.293,94.981Zm-2.06.96A1.3,1.3,0,0,0,638.8,94.7h-5.453a1.556,1.556,0,0,0-.493,1.217c0,.867.868,1.686,3.606,1.686C639.438,97.6,640.233,96.76,640.233,95.941Zm-6.157-9.48c0,1.615.4,3.043,1.733,3.043.679,0,1.474-.328,1.474-2.364,0-1.686-.56-3.113-1.732-3.113C634.873,84.027,634.076,84.448,634.076,86.461Z"/><path class="cls-2" d="M648.492,87.865V92.8h3.135v1.124h-8.379V92.8h1.873V85.057l-2.154,1.217-.514-1.077,6.039-2.621V87.21c1.358-3.3,2.293-4.33,4.307-4.33v3.464h-1.451A3.341,3.341,0,0,0,648.492,87.865Z"/><path class="cls-2" d="M667.307,87.631l-.209,3.23a3.06,3.06,0,0,1-3.418,3.207c-1.709,0-2.926-.725-2.926-2.2V91.7a4.414,4.414,0,0,1-3.723,2.481A2.666,2.666,0,0,1,654.2,91.47c0-1.826,1.241-2.668,3.254-3.043l3.3-.632V86.016c0-1.264-.516-1.872-1.5-1.872a1.474,1.474,0,0,0-1.5,1.662v1.287H654.5c0-2.575,2.131-4.1,5.033-4.1,3.2,0,4.565,1.311,4.565,3.7v4.12c0,.632.3,1.006.935,1.006.492,0,.983-.3.959-.8l-.211-3.395Zm-6.553.843-1.686.7a1.733,1.733,0,0,0-1.263,1.522A1.148,1.148,0,0,0,659,91.915a2.26,2.26,0,0,0,1.756-.936Z"/><path class="cls-2" d="M667.983,97.415H669.9V85.057l-2.152,1.217-.515-1.077,6.039-2.621v2.738A4.846,4.846,0,0,1,677.252,83c2.527,0,4.447,1.943,4.447,5.173,0,3.675-1.99,6.015-5.478,6.015a4.33,4.33,0,0,1-2.949-1.076v4.306h1.662v1.124h-6.951Zm10.064-8.309c0-2.153-1.053-3.792-2.879-3.792a2.763,2.763,0,0,0-1.9.819v5.431a2.5,2.5,0,0,0,2.177,1.311C676.947,92.875,678.047,91.517,678.047,89.106Z"/><path class="cls-2" d="M688.949,94.185c-3.463,0-5.547-2.059-5.547-5.617A5.341,5.341,0,0,1,688.949,83c3.676,0,5.1,1.755,5.1,4.588h-7.467c-.023,2.34,1.147,3.885,3.465,3.885a2.8,2.8,0,0,0,2.973-2.364h.935C694.076,92.079,692.18,94.185,688.949,94.185Zm1.545-7.56c0-1.639-.7-2.6-1.894-2.6-1.055,0-1.944.889-1.991,2.6Z"/><path class="cls-2" d="M701.119,87.865V92.8h3.135v1.124h-8.379V92.8h1.873V85.057l-2.154,1.217L695.08,85.2l6.039-2.621V87.21c1.358-3.3,2.293-4.33,4.307-4.33v3.464h-1.451A3.341,3.341,0,0,0,701.119,87.865Z"/><path class="cls-2" d="M715.533,86.882v2.692l-8.168-.14V87.023Z"/><path class="cls-2" d="M628.74,137.26v-.234h2.668v.843c0,1.287.328,1.755.867,1.755.444,0,.772-.4.8-1.03.047-1.381-.609-2.294-.609-3.721v-8.216l-2.152,1.217-.516-1.077,6.039-2.621V137.26c0,1.849-1.334,3.113-3.533,3.113C630.356,140.373,628.74,139.671,628.74,137.26Zm3.7-16.127c0-1.592.8-2.154,1.779-2.154,1.031,0,1.8.562,1.8,2.154s-.772,2.2-1.8,2.2C633.234,123.333,632.438,122.724,632.438,121.133Z"/><path class="cls-2" d="M647.158,136.207v-2.715a5.02,5.02,0,0,1-3.791,2.294c-2.154,0-3.207-1.218-3.207-3.512v-5.617l-2.154,1.217-.514-1.077,6.039-2.621v7.607a1.635,1.635,0,0,0,1.592,1.849,3.055,3.055,0,0,0,2.035-.843v-6.132l-2.152,1.217-.516-1.077,6.039-2.621v9.55l2.155-1.218.513,1.077Z"/><path class="cls-2" d="M659.3,124.176V134.4h1.732v1.124h-6.974V134.4h1.871v-7.747l-2.153,1.217-.515-1.077Zm-3.418-3.043c0-1.592.8-2.154,1.779-2.154,1.029,0,1.8.562,1.8,2.154s-.774,2.2-1.8,2.2C656.682,123.333,655.885,122.724,655.885,121.133Z"/><path class="cls-2" d="M667.914,135.786c-3.652,0-5.64-2.271-5.64-5.548a5.452,5.452,0,0,1,5.781-5.641c2.926,0,4.8,1.311,4.916,3.956l-3.488.023c0-1.779-.586-2.856-1.8-2.856-1.24,0-1.99,1.124-2.061,3.043-.092,2.786,1.336,4.354,3.278,4.354a2.829,2.829,0,0,0,3.019-2.2h.914C672.947,133.211,671.565,135.786,667.914,135.786Z"/><path class="cls-2" d="M680.127,135.786c-3.463,0-5.547-2.06-5.547-5.618a5.341,5.341,0,0,1,5.547-5.571c3.676,0,5.1,1.755,5.1,4.588h-7.467c-.024,2.34,1.146,3.885,3.465,3.885a2.793,2.793,0,0,0,2.972-2.364h.936C685.254,133.679,683.358,135.786,680.127,135.786Zm1.545-7.561c0-1.638-.7-2.6-1.895-2.6-1.054,0-1.943.889-1.99,2.6Z"/><path class="cls-2" d="M635.926,171.065V176h3.137v1.124h-8.379V176h1.871v-7.748l-2.153,1.218-.515-1.077,6.039-2.621v4.634c1.357-3.3,2.295-4.33,4.307-4.33v3.464h-1.452A3.341,3.341,0,0,0,635.926,171.065Z"/><path class="cls-2" d="M647.182,177.385c-3.465,0-5.547-2.059-5.547-5.617a5.34,5.34,0,0,1,5.547-5.571c3.676,0,5.1,1.755,5.1,4.588h-7.467c-.023,2.34,1.147,3.885,3.463,3.885a2.794,2.794,0,0,0,2.973-2.364h.937C652.309,175.279,650.412,177.385,647.182,177.385Zm1.545-7.56c0-1.639-.7-2.6-1.9-2.6-1.053,0-1.941.889-1.988,2.6Z"/><path class="cls-2" d="M653.85,180.615h1.918V168.256l-2.153,1.218L653.1,168.4l6.039-2.621v2.738a4.846,4.846,0,0,1,3.98-2.317c2.528,0,4.447,1.943,4.447,5.173,0,3.675-1.99,6.015-5.478,6.015a4.326,4.326,0,0,1-2.949-1.077v4.307H660.8v1.124H653.85Zm10.064-8.309c0-2.154-1.053-3.792-2.879-3.792a2.763,2.763,0,0,0-1.9.819v5.431a2.5,2.5,0,0,0,2.177,1.311C662.815,176.075,663.914,174.717,663.914,172.306Z"/><path class="cls-2" d="M674.654,171.065V176h3.135v1.124H669.41V176h1.873v-7.748l-2.154,1.218-.514-1.077,6.039-2.621v4.634c1.358-3.3,2.293-4.33,4.307-4.33v3.464H677.51A3.341,3.341,0,0,0,674.654,171.065Z"/><path class="cls-2" d="M692.3,171.463c0,3.98-2.738,5.922-6.274,5.922-3.486,0-5.664-2.106-5.664-5.36,0-4.026,2.926-5.828,6.25-5.828C690.217,166.2,692.3,168.256,692.3,171.463Zm-3.7,1.264c0-3.206-.727-5.453-2.623-5.453-1.217,0-1.918,1.263-1.918,3.557,0,3.184.654,5.454,2.574,5.454C687.828,176.285,688.6,174.974,688.6,172.727Z"/><path class="cls-2" d="M702.664,174.74a5.02,5.02,0,0,1-4.236,2.645c-2.506,0-4.424-1.942-4.424-5.173,0-3.675,1.988-6.015,5.43-6.015a3.748,3.748,0,0,1,3,1.17V162.8l-2.155,1.217-.513-1.077,6.039-2.621v14.91l2.152-1.217.516,1.076-6.039,2.622Zm-.234-.491v-5.431a2.5,2.5,0,0,0-2.155-1.311c-1.5,0-2.621,1.335-2.621,3.769,0,2.154,1.055,3.792,2.832,3.792A2.94,2.94,0,0,0,702.43,174.249Z"/><path class="cls-2" d="M717.9,177.807v-2.716a5.021,5.021,0,0,1-3.791,2.294c-2.155,0-3.207-1.217-3.207-3.511v-5.618l-2.155,1.218-.513-1.077,6.039-2.621v7.607a1.635,1.635,0,0,0,1.591,1.849,3.06,3.06,0,0,0,2.036-.843v-6.133l-2.153,1.218-.515-1.077,6.039-2.621v9.55l2.154-1.218.514,1.077Z"/><path class="cls-2" d="M730.3,177.385c-3.652,0-5.641-2.27-5.641-5.547a5.453,5.453,0,0,1,5.782-5.641c2.925,0,4.8,1.31,4.916,3.955l-3.489.024c0-1.779-.586-2.856-1.8-2.856-1.241,0-1.991,1.124-2.061,3.043-.092,2.786,1.336,4.354,3.277,4.354a2.829,2.829,0,0,0,3.02-2.2h.914C735.332,174.81,733.949,177.385,730.3,177.385Z"/><path class="cls-2" d="M738.158,174.108V168.14h-1.545v-.984l2.67-1.076-.258-4.682h2.293l-.443,5.056h4.68v1.615h-4.026v5.618c0,1.264.774,1.592,1.686,1.592a1.444,1.444,0,0,0,1.5-1.639l-.188-2.411h1.569l-.117,2.575c-.094,2.271-1.5,3.581-3.932,3.581C739.75,177.385,738.158,176.706,738.158,174.108Z"/><path class="cls-2" d="M753.066,165.776V176H754.8v1.124h-6.975V176H749.7v-7.748l-2.154,1.218-.514-1.077Zm-3.417-3.043c0-1.592.794-2.154,1.779-2.154,1.029,0,1.8.562,1.8,2.154s-.772,2.2-1.8,2.2C750.443,164.933,749.649,164.324,749.649,162.733Z"/><path class="cls-2" d="M768.348,167.6h-1.194l-4.775,9.784h-1.428l-4.728-9.784h-1.194v-1.123h6.459V167.6h-1.545l2.928,6.133,2.27-4.658V167.6h-1.358v-1.123h4.565Z"/><path class="cls-2" d="M774.242,177.385c-3.465,0-5.547-2.059-5.547-5.617a5.34,5.34,0,0,1,5.547-5.571c3.676,0,5.1,1.755,5.1,4.588h-7.467c-.023,2.34,1.146,3.885,3.463,3.885a2.8,2.8,0,0,0,2.973-2.364h.937C779.369,175.279,777.473,177.385,774.242,177.385Zm1.545-7.56c0-1.639-.7-2.6-1.9-2.6-1.053,0-1.942.889-1.989,2.6Z"/><path class="cls-2" d="M630.426,222.215h1.918V209.857l-2.153,1.217L629.676,210l6.039-2.621v2.738a4.846,4.846,0,0,1,3.98-2.317c2.528,0,4.448,1.943,4.448,5.173,0,3.675-1.991,6.015-5.479,6.015a4.332,4.332,0,0,1-2.949-1.076v4.306h1.662v1.124h-6.951Zm10.064-8.309c0-2.153-1.052-3.792-2.879-3.792a2.766,2.766,0,0,0-1.9.819v5.431a2.5,2.5,0,0,0,2.178,1.311C639.391,217.675,640.49,216.317,640.49,213.906Z"/><path class="cls-2" d="M658.953,212.432l-.209,3.23a3.06,3.06,0,0,1-3.418,3.206c-1.709,0-2.926-.725-2.926-2.2V216.5a4.411,4.411,0,0,1-3.722,2.481,2.666,2.666,0,0,1-2.832-2.715c0-1.826,1.24-2.668,3.254-3.043l3.3-.632v-1.779c0-1.264-.515-1.872-1.5-1.872a1.474,1.474,0,0,0-1.5,1.662v1.287H646.15c0-2.575,2.131-4.1,5.034-4.1,3.205,0,4.564,1.311,4.564,3.7v4.12c0,.632.3,1.006.936,1.006.492,0,.982-.3.959-.8l-.211-3.393Zm-6.553.842-1.685.7a1.733,1.733,0,0,0-1.264,1.522,1.148,1.148,0,0,0,1.194,1.217,2.259,2.259,0,0,0,1.755-.936Z"/><path class="cls-2" d="M665.27,212.665V217.6h3.136v1.124h-8.379V217.6H661.9v-7.747l-2.153,1.217L659.231,210l6.039-2.621v4.634c1.357-3.3,2.3-4.33,4.306-4.33v3.464h-1.451A3.341,3.341,0,0,0,665.27,212.665Z"/><path class="cls-2" d="M672.172,215.708V209.74h-1.545v-.984l2.668-1.076L673.037,203h2.295l-.445,5.056h4.681v1.615h-4.025v5.618c0,1.264.772,1.592,1.686,1.592a1.445,1.445,0,0,0,1.5-1.639l-.188-2.411h1.569l-.118,2.575c-.093,2.271-1.5,3.581-3.933,3.581C673.764,218.985,672.172,218.307,672.172,215.708Z"/><path class="cls-2" d="M683.66,217.23v1.5h-1.638v-4h1.591v1.592a4.762,4.762,0,0,0,3.418,1.358c1.287,0,1.873-.539,1.873-1.241,0-.749-.328-1.17-3.113-1.826-3.183-.749-3.838-1.8-3.838-3.558,0-2.106,1.8-3.253,4.1-3.253a5.2,5.2,0,0,1,3.7,1.381v-1.1h1.686v3.581H689.84v-1.428a4.8,4.8,0,0,0-3.09-1.24c-1.24,0-1.732.515-1.732,1.1,0,.655.328,1.147,2.482,1.662,3.674.889,4.424,1.638,4.4,3.721-.023,2.271-1.755,3.511-4.166,3.511A5.128,5.128,0,0,1,683.66,217.23Z"/><path class="cls-2" d="M642.481,254.663c0,3.979-2.739,5.922-6.274,5.922-3.488,0-5.664-2.106-5.664-5.36,0-4.026,2.926-5.828,6.25-5.828C640.4,249.4,642.481,251.456,642.481,254.663Zm-3.7,1.264c0-3.206-.724-5.453-2.621-5.453-1.217,0-1.92,1.263-1.92,3.557,0,3.184.657,5.454,2.575,5.454C638.01,259.485,638.781,258.174,638.781,255.927Z"/><path class="cls-2" d="M644.113,259.181h1.592v-7.842h-1.779v-1.006l1.756-.679V248.39c0-2.809,1.685-4.307,3.98-4.307a3.635,3.635,0,0,1,3.862,3.558v.211H650.34v-1.381c0-.749-.328-1.288-1.029-1.288-.774,0-1.287.75-1.055,1.85l.562,2.621h2.926v1.522h-2.668v8h2.34V260.3h-7.3Z"/><path class="cls-2" d="M632.508,300.43v1.5h-1.639v-4h1.592v1.592a4.762,4.762,0,0,0,3.418,1.358c1.287,0,1.873-.539,1.873-1.241,0-.749-.328-1.17-3.113-1.826-3.184-.749-3.838-1.8-3.838-3.558,0-2.106,1.8-3.253,4.1-3.253a5.2,5.2,0,0,1,3.7,1.381v-1.1h1.685v3.581h-1.591v-1.428a4.805,4.805,0,0,0-3.09-1.24c-1.24,0-1.733.514-1.733,1.1,0,.655.328,1.147,2.483,1.662,3.674.889,4.424,1.638,4.4,3.721-.023,2.271-1.756,3.511-4.166,3.511A5.128,5.128,0,0,1,632.508,300.43Z"/><path class="cls-2" d="M648.07,302.185c-3.464,0-5.546-2.059-5.546-5.617A5.339,5.339,0,0,1,648.07,291c3.676,0,5.1,1.755,5.1,4.588h-7.467c-.023,2.34,1.147,3.885,3.463,3.885a2.794,2.794,0,0,0,2.973-2.364h.937C653.2,300.079,651.3,302.185,648.07,302.185Zm1.545-7.56c0-1.639-.7-2.6-1.9-2.6-1.053,0-1.942.889-1.988,2.6Z"/><path class="cls-2" d="M660.4,302.185c-3.464,0-5.546-2.059-5.546-5.617A5.339,5.339,0,0,1,660.4,291c3.676,0,5.1,1.755,5.1,4.588h-7.467c-.023,2.34,1.147,3.885,3.463,3.885a2.794,2.794,0,0,0,2.973-2.364h.937C665.529,300.079,663.633,302.185,660.4,302.185Zm1.545-7.56c0-1.639-.7-2.6-1.9-2.6-1.053,0-1.942.889-1.988,2.6Z"/><path class="cls-2" d="M675.871,299.54a5.02,5.02,0,0,1-4.236,2.645c-2.506,0-4.424-1.942-4.424-5.173,0-3.674,1.988-6.015,5.43-6.015a3.748,3.748,0,0,1,3,1.17V287.6l-2.154,1.217-.514-1.077,6.039-2.621v14.91l2.152-1.217.516,1.076-6.039,2.622Zm-.234-.491v-5.431a2.494,2.494,0,0,0-2.154-1.31c-1.5,0-2.622,1.334-2.622,3.768,0,2.154,1.055,3.792,2.832,3.792A2.94,2.94,0,0,0,675.637,299.049Z"/><path class="cls-2" d="M687.662,305.415h1.918V293.057l-2.152,1.217-.516-1.077,6.039-2.621v2.738A4.848,4.848,0,0,1,696.932,291c2.527,0,4.447,1.943,4.447,5.173,0,3.675-1.99,6.015-5.479,6.015a4.332,4.332,0,0,1-2.949-1.076v4.306h1.662v1.124h-6.951Zm10.065-8.309c0-2.153-1.053-3.792-2.879-3.792a2.766,2.766,0,0,0-1.9.819v5.431a2.5,2.5,0,0,0,2.178,1.311C696.627,300.875,697.727,299.517,697.727,297.106Z"/><path class="cls-2" d="M707.9,285.122V300.8h1.662v1.124h-6.953V300.8h1.92V287.6l-2.152,1.217-.516-1.077Z"/><path class="cls-2" d="M723.983,295.631l-.211,3.23a3.06,3.06,0,0,1-3.418,3.207c-1.709,0-2.926-.725-2.926-2.2V299.7a4.408,4.408,0,0,1-3.721,2.481,2.666,2.666,0,0,1-2.832-2.715c0-1.826,1.24-2.668,3.254-3.043l3.3-.632v-1.779c0-1.264-.514-1.872-1.5-1.872a1.475,1.475,0,0,0-1.5,1.662v1.287h-3.254c0-2.575,2.131-4.1,5.033-4.1,3.207,0,4.564,1.311,4.564,3.7v4.12c0,.632.305,1.006.936,1.006.492,0,.984-.3.961-.8l-.211-3.4Zm-6.555.843-1.686.7a1.735,1.735,0,0,0-1.263,1.522,1.149,1.149,0,0,0,1.193,1.217,2.257,2.257,0,0,0,1.756-.936Z"/><path class="cls-2" d="M739.006,300.8v1.124h-6.3V300.8h1.4v-5.922a1.67,1.67,0,0,0-1.755-1.755,3.281,3.281,0,0,0-2.106.842V300.8h1.475v1.124h-6.485V300.8h1.639v-7.747l-2.154,1.217-.514-1.077,6.039-2.621v2.738A4.845,4.845,0,0,1,734.113,291a3.163,3.163,0,0,1,3.371,3.3V300.8Z"/><path class="cls-2" d="M741.483,298.908V292.94h-1.545v-.984l2.668-1.076-.258-4.682h2.3l-.446,5.056h4.682v1.615h-4.025v5.618c0,1.264.771,1.592,1.685,1.592a1.444,1.444,0,0,0,1.5-1.639l-.187-2.411h1.568L749.3,298.6c-.094,2.271-1.5,3.581-3.934,3.581C743.074,302.185,741.483,301.506,741.483,298.908Z"/><path class="cls-2" d="M752.971,300.43v1.5h-1.639v-4h1.592v1.592a4.76,4.76,0,0,0,3.418,1.358c1.287,0,1.873-.539,1.873-1.241,0-.749-.328-1.17-3.113-1.826-3.184-.749-3.838-1.8-3.838-3.558,0-2.106,1.8-3.253,4.1-3.253a5.2,5.2,0,0,1,3.7,1.381v-1.1h1.685v3.581H759.15v-1.428a4.8,4.8,0,0,0-3.089-1.24c-1.241,0-1.733.514-1.733,1.1,0,.655.328,1.147,2.483,1.662,3.673.889,4.423,1.638,4.4,3.721-.023,2.271-1.756,3.511-4.166,3.511A5.128,5.128,0,0,1,752.971,300.43Z"/><path class="cls-2" d="M596.863,34.953v6.3h-1.779V38.277l-1.709-1.264h-3.3v13.67h2.178v1.17h-8.1v-1.17h2.155V37.013h-4.283l-1.428.656V41.25h-1.78v-6.3h1.78v.937h14.488v-.937Z"/><path class="cls-2" d="M612.072,50.73v1.123h-6.3V50.73h1.4V44.808a1.672,1.672,0,0,0-1.756-1.756,3.283,3.283,0,0,0-2.106.843V50.73h1.475v1.123h-6.484V50.73h1.638v-13.2l-2.154,1.217-.514-1.076,6.039-2.622v8.192a4.846,4.846,0,0,1,3.862-2.317,3.164,3.164,0,0,1,3.371,3.3V50.73Z"/><path class="cls-2" d="M618.9,52.111c-3.464,0-5.546-2.06-5.546-5.618a5.339,5.339,0,0,1,5.546-5.571c3.676,0,5.1,1.756,5.1,4.588h-7.467c-.023,2.34,1.147,3.885,3.463,3.885a2.794,2.794,0,0,0,2.973-2.364h.937C624.029,50,622.133,52.111,618.9,52.111Zm1.545-7.561c0-1.638-.7-2.6-1.9-2.6-1.053,0-1.942.889-1.988,2.6Z"/><path class="cls-2" d="M516.859,170.357l-.21,3.23a3.06,3.06,0,0,1-3.418,3.207c-1.709,0-2.926-.726-2.926-2.2v-.163a4.41,4.41,0,0,1-3.721,2.481,2.667,2.667,0,0,1-2.832-2.716c0-1.825,1.24-2.668,3.254-3.043l3.3-.631v-1.779c0-1.264-.514-1.873-1.5-1.873a1.475,1.475,0,0,0-1.5,1.662v1.287h-3.254c0-2.574,2.131-4.1,5.033-4.1,3.207,0,4.564,1.311,4.564,3.7v4.119c0,.632.3,1.007.936,1.007.492,0,.984-.305.961-.8l-.211-3.394Zm-6.554.842-1.686.7a1.737,1.737,0,0,0-1.263,1.522,1.149,1.149,0,0,0,1.193,1.217,2.254,2.254,0,0,0,1.756-.936Z"/><path class="cls-2" d="M538.951,175.53v1.123h-6.3V175.53h1.4v-5.922a1.671,1.671,0,0,0-1.756-1.756,3.3,3.3,0,0,0-1.918.679l-.07.07a2.6,2.6,0,0,1,.023.422v6.507h1.521v1.123h-6.3V175.53h1.4v-5.922a1.671,1.671,0,0,0-1.756-1.756,3.32,3.32,0,0,0-2.082.82v6.858h1.5v1.123h-6.414V175.53h1.545v-7.748L517.6,169l-.514-1.077,6.039-2.621v2.715a4.816,4.816,0,0,1,3.838-2.294,3.11,3.11,0,0,1,3.23,2.294,4.918,4.918,0,0,1,3.862-2.294,3.164,3.164,0,0,1,3.371,3.3v6.507Z"/><path class="cls-2" d="M552.17,170.989c0,3.979-2.738,5.922-6.273,5.922-3.489,0-5.664-2.107-5.664-5.361,0-4.025,2.925-5.828,6.25-5.828C550.086,165.722,552.17,167.782,552.17,170.989Zm-3.7,1.264c0-3.207-.725-5.454-2.621-5.454-1.217,0-1.92,1.264-1.92,3.558,0,3.183.656,5.454,2.574,5.454C547.7,175.811,548.471,174.5,548.471,172.253Z"/><path class="cls-2" d="M567.941,175.53v1.123h-6.3V175.53h1.4v-5.922a1.671,1.671,0,0,0-1.756-1.756,3.278,3.278,0,0,0-2.105.843v6.835h1.474v1.123h-6.484V175.53h1.638v-7.748L553.662,169l-.513-1.077,6.039-2.621v2.738a4.842,4.842,0,0,1,3.861-2.317,3.164,3.164,0,0,1,3.371,3.3v6.507Z"/><path class="cls-2" d="M580.975,177.706c0,2.037-1.873,3.792-6.133,3.792-4.166,0-5.734-1.053-5.734-2.457,0-.8.537-1.358,2.269-1.709v-.094a1.876,1.876,0,0,1-1.756-1.872c0-1.077.75-1.826,2.037-2.575a3.183,3.183,0,0,1-2.222-2.949c0-2.528,2.129-4.12,4.937-4.12a6.464,6.464,0,0,1,3.02.726v-.726c0-1.638.984-2.27,1.99-2.27,1.31,0,2.084.842,2.084,2.691h-2.014c0-.772-.211-1.17-.7-1.17-.373,0-.678.234-.678.866v1.053a2.906,2.906,0,0,1,1.17,2.248c0,2.738-2.037,4.119-4.916,4.119a8.042,8.042,0,0,1-2.082-.257,3.01,3.01,0,0,0-.234.983c0,.632.375.959,1.076.889l3.979-.374C579.57,174.266,580.975,175.647,580.975,177.706Zm-2.061.96a1.3,1.3,0,0,0-1.428-1.24h-5.453a1.556,1.556,0,0,0-.492,1.217c0,.866.867,1.685,3.606,1.685C578.119,180.328,578.914,179.485,578.914,178.666Zm-6.156-9.48c0,1.615.4,3.043,1.732,3.043.68,0,1.475-.328,1.475-2.364,0-1.685-.561-3.113-1.732-3.113C573.555,166.752,572.758,167.173,572.758,169.186Z"/><path class="cls-2" d="M588.365,173.634v-5.969H586.82v-.983l2.668-1.077-.257-4.681h2.294l-.445,5.056h4.682V167.6h-4.026v5.617c0,1.264.772,1.592,1.686,1.592a1.444,1.444,0,0,0,1.5-1.638l-.187-2.411H596.3l-.117,2.574c-.094,2.271-1.5,3.582-3.934,3.582C589.957,176.911,588.365,176.232,588.365,173.634Z"/><path class="cls-2" d="M611.277,175.53v1.123h-6.3V175.53h1.4v-5.922a1.672,1.672,0,0,0-1.756-1.756,3.278,3.278,0,0,0-2.105.843v6.835H604v1.123h-6.484V175.53h1.638v-13.2L597,163.545l-.514-1.076,6.04-2.622v8.192a4.842,4.842,0,0,1,3.861-2.317,3.164,3.164,0,0,1,3.371,3.3v6.507Z"/><path class="cls-2" d="M618.108,176.911c-3.465,0-5.547-2.06-5.547-5.618a5.34,5.34,0,0,1,5.547-5.571c3.675,0,5.1,1.756,5.1,4.588h-7.467c-.023,2.341,1.147,3.885,3.463,3.885a2.794,2.794,0,0,0,2.973-2.364h.937C623.234,174.8,621.338,176.911,618.108,176.911Zm1.544-7.561c0-1.638-.7-2.6-1.9-2.6-1.053,0-1.941.889-1.988,2.6Z"/><path class="cls-1" d="M805.477,45.025c-1.014.078-2.028.13-3.041.13a103.448,103.448,0,0,0-3.407,10.973l-3.017-.651c.521-2.184,1.353-5.876,2.808-10.4-1.066-.078-1.976-.156-2.548-.234l.39-2c.832.052,1.821.1,2.862.13.623-1.794,1.351-3.692,2.156-5.668l3.511,1.066c-.7,1.56-1.326,3.094-1.923,4.628.832-.052,1.689-.1,2.728-.208Z"/><path class="cls-1" d="M819.024,44.531a52.787,52.787,0,0,0-4.473,12.87l-3.094-.728A57.578,57.578,0,0,1,814.264,47a76.834,76.834,0,0,0-6.395,6.084c-.338,1.222-.65,2.262-.885,3.043l-3.121-.781c.963-3.432,4.422-13.858,6.164-19.786l3.3,1.144c-.754,2.886-2.392,7.54-4.133,12.272a63.265,63.265,0,0,1,6.864-6.11Z"/><path class="cls-1" d="M822.481,51.5a11.156,11.156,0,0,0-.053,2.6c.859-.052,2.367-.052,5.773-1.742l-.287,2.262A8.807,8.807,0,0,1,822.9,56.44c-2.549,0-3.979-1.483-3.8-4.473a10.459,10.459,0,0,1,7.437-9.724l4.289,1.274a8.06,8.06,0,0,1,.365,2.314c0,2.782-2.107,4.992-5.929,4.992a18.632,18.632,0,0,1-2.625-.234A6.532,6.532,0,0,0,822.481,51.5Zm.806-2.7a7.014,7.014,0,0,0,1.326.13,3.275,3.275,0,0,0,3.432-3.3,4.636,4.636,0,0,0-.209-1.3A9.717,9.717,0,0,0,823.287,48.8Z"/><path class="cls-1" d="M856.723,43.881l-7.438,12.792-1.636-.6-2.575-.936c.207-2.73.573-5.278.961-7.878l-5.771,9.568-.936-.338-3.015-1.066c.441-3.8.935-8.606,1.17-12.662l3.666.364c-.338,3.146-.911,6.838-1.4,10.218l6.4-10.738,3.509.208c-.312,3.718-.781,7.176-1.144,10.79l5.8-11.1Z"/><path class="cls-1" d="M862.469,43.413a104.373,104.373,0,0,0-4.16,12.74l-3.1-.676a82.916,82.916,0,0,1,3.875-12.948ZM863.248,41l-3.121-.91a54.242,54.242,0,0,1,2.471-6.11l3.2.962C865.2,36.159,864.393,38.005,863.248,41Z"/><path class="cls-1" d="M877.158,44.531a42.873,42.873,0,0,0-4.213,12.376l-3.222-.546a57.654,57.654,0,0,1,2.756-9.542,70.524,70.524,0,0,0-6.268,5.434c-.338,1.352-.676,2.548-.986,3.692l-3.121-.78c.962-3.432,2.183-7.046,3.38-12.35l3.329.676a40.947,40.947,0,0,1-1.432,5.1,70.449,70.449,0,0,1,6.787-5.746Z"/><path class="cls-1" d="M880.615,51.5a11.2,11.2,0,0,0-.052,2.6c.859-.052,2.367-.052,5.773-1.742l-.287,2.262a8.808,8.808,0,0,1-5.018,1.821c-2.548,0-3.978-1.483-3.8-4.473a10.461,10.461,0,0,1,7.438-9.724l4.289,1.274a8.1,8.1,0,0,1,.365,2.314c0,2.782-2.107,4.992-5.929,4.992a18.62,18.62,0,0,1-2.625-.234A6.544,6.544,0,0,0,880.615,51.5Zm.807-2.7a7.014,7.014,0,0,0,1.326.13,3.275,3.275,0,0,0,3.432-3.3,4.636,4.636,0,0,0-.209-1.3A9.717,9.717,0,0,0,881.422,48.8Z"/><path class="cls-1" d="M771.678,349.224c-1.016.078-2.029.13-3.043.13a103.736,103.736,0,0,0-3.406,10.973l-3.016-.65c.52-2.184,1.352-5.877,2.809-10.4-1.067-.078-1.977-.156-2.549-.234l.39-2c.832.052,1.821.1,2.86.13.625-1.794,1.351-3.692,2.158-5.668l3.51,1.066c-.7,1.56-1.326,3.094-1.924,4.628.832-.052,1.689-.1,2.73-.208Z"/><path class="cls-1" d="M785.223,348.73A53.006,53.006,0,0,0,780.75,361.6l-3.094-.728a57.6,57.6,0,0,1,2.809-9.673,76.879,76.879,0,0,0-6.4,6.085c-.337,1.221-.65,2.262-.884,3.042l-3.119-.78c.962-3.433,4.419-13.859,6.162-19.787l3.3,1.144c-.754,2.886-2.392,7.54-4.134,12.272a63.472,63.472,0,0,1,6.865-6.11Z"/><path class="cls-1" d="M788.68,355.7a11.118,11.118,0,0,0-.051,2.6c.857-.051,2.365-.051,5.771-1.741l-.285,2.261a8.815,8.815,0,0,1-5.019,1.821c-2.547,0-3.977-1.482-3.795-4.472a10.457,10.457,0,0,1,7.435-9.725l4.291,1.274a8.058,8.058,0,0,1,.364,2.314c0,2.782-2.106,4.993-5.928,4.993a18.655,18.655,0,0,1-2.627-.235A6.869,6.869,0,0,0,788.68,355.7Zm.806-2.7a7.038,7.038,0,0,0,1.327.13,3.274,3.274,0,0,0,3.431-3.3,4.7,4.7,0,0,0-.207-1.3A9.712,9.712,0,0,0,789.486,352.994Z"/><path class="cls-1" d="M816.4,339.812l-.729,2.73a4.609,4.609,0,0,0-2.08-.468c-1.664,0-2.756,1.248-3.641,4.238-.078.312-.181.6-.259.91,1.119-.026,2.211-.1,3.615-.234l-.522,2.236c-1.195.1-2.418.13-3.588.13h-.156c-1.767,5.824-3.638,11.831-4.808,17.031l-3.018-.624c1.119-5.2,2.652-10.946,4.188-16.537-.754-.052-1.379-.13-1.821-.182l.391-2c.6.026,1.3.078,2.027.1.129-.546.285-1.066.442-1.612.91-3.25,2.861-6.526,6.812-6.526A5.849,5.849,0,0,1,816.4,339.812Z"/><path class="cls-1" d="M821.129,341.086a127.118,127.118,0,0,0-6.813,19.241l-3.042-.65a122.488,122.488,0,0,1,6.371-19.917Z"/><path class="cls-1" d="M830.879,350.55c0,4.732-3.043,9.647-8.4,10.479-1.145-.494-2.237-.962-3.25-1.456a15.2,15.2,0,0,1-.469-3.667c0-5.382,3.459-9.724,8.84-9.724a11.549,11.549,0,0,1,1.613.13l.65,2.574.91.13A10.271,10.271,0,0,1,830.879,350.55Zm-2.887-.52c0-.286,0-.572-.025-.832-3.822.234-5.852,3.12-5.852,7.436a12.131,12.131,0,0,0,.184,2.133C826.354,357.935,827.992,353.332,827.992,350.03Z"/><path class="cls-1" d="M852.666,348.08l-7.435,12.793-1.639-.6-2.574-.936c.209-2.73.572-5.279.963-7.879l-5.772,9.569-.937-.338-3.016-1.066c.441-3.8.935-8.607,1.17-12.663l3.666.364c-.338,3.146-.91,6.838-1.4,10.219l6.4-10.739,3.51.208c-.311,3.718-.779,7.177-1.143,10.791l5.8-11.1Z"/><path class="cls-1" d="M854.953,355.7a11.235,11.235,0,0,0-.051,2.6c.858-.051,2.366-.051,5.772-1.741l-.285,2.261a8.817,8.817,0,0,1-5.02,1.821c-2.547,0-3.976-1.482-3.8-4.472a10.46,10.46,0,0,1,7.436-9.725l4.291,1.274a8.091,8.091,0,0,1,.363,2.314c0,2.782-2.105,4.993-5.928,4.993a18.667,18.667,0,0,1-2.627-.235A7.037,7.037,0,0,0,854.953,355.7Zm.807-2.7a7.028,7.028,0,0,0,1.326.13,3.275,3.275,0,0,0,3.432-3.3,4.7,4.7,0,0,0-.207-1.3A9.712,9.712,0,0,0,855.76,352.994Z"/><path class="cls-1" d="M876.82,347.768a39.489,39.489,0,0,0-2.705,8.165l-2.99-.547a39.619,39.619,0,0,1,1.17-4.16c-1.637,2-3.354,4.421-4.887,6.552-.234.832-.521,1.691-.781,2.549l-3.119-.78c.961-3.433,2.236-7.307,3.379-12.585l3.328.728a33.434,33.434,0,0,1-1.533,5.461,60.55,60.55,0,0,1,5.642-7.021Z"/><path class="cls-1" d="M882.514,349.562a3.936,3.936,0,0,0-1.3.182c0,.962.6,1.69,1.4,2.652,1.43,1.768,2.783,3.043,2.783,4.6,0,2.054-3.1,3.952-5.773,3.952a6.713,6.713,0,0,1-4.316-1.456l.91-2.808a10.241,10.241,0,0,0,6.058,1.664c-.181-1.066-1.4-2.184-2.261-3.251-1.457-1.82-1.977-2.756-1.977-3.874,0-1.976,2.756-4.446,5.486-4.446a9.148,9.148,0,0,1,4.032.91l-.885,3.172A8.472,8.472,0,0,0,882.514,349.562Z"/></g></svg>