<svg id="Livello_1" data-name="Livello 1" xmlns="http://www.w3.org/2000/svg" viewBox="0 0 952 350.412"><defs><style>.cls-1{fill:none;stroke:#1858a8;stroke-miterlimit:10;stroke-width:2.6px;}.cls-2{fill:#f36;}</style></defs><title>manuale_ill_nuove</title><line class="cls-1" x1="181.249" y1="47.124" x2="181.249" y2="5.677"/><line class="cls-1" x1="257.559" y1="47.124" x2="257.559" y2="5.677"/><line class="cls-1" x1="333.869" y1="47.124" x2="333.869" y2="5.677"/><line class="cls-1" x1="410.179" y1="47.124" x2="410.179" y2="5.677"/><line class="cls-1" x1="486.489" y1="47.124" x2="486.489" y2="5.677"/><line class="cls-1" x1="562.799" y1="47.124" x2="562.799" y2="5.677"/><line class="cls-1" x1="639.109" y1="47.124" x2="639.109" y2="5.677"/><line class="cls-1" x1="715.419" y1="47.124" x2="715.419" y2="5.677"/><line class="cls-1" x1="90.059" y1="48.382" x2="181.249" y2="48.382"/><line class="cls-1" x1="181.249" y1="48.382" x2="257.558" y2="48.382"/><line class="cls-1" x1="181.249" y1="89.828" x2="181.249" y2="49.638"/><line class="cls-1" x1="257.559" y1="48.382" x2="333.868" y2="48.382"/><line class="cls-1" x1="257.559" y1="89.828" x2="257.559" y2="49.638"/><line class="cls-1" x1="333.869" y1="48.382" x2="410.178" y2="48.382"/><line class="cls-1" x1="333.869" y1="89.828" x2="333.869" y2="49.638"/><line class="cls-1" x1="410.179" y1="48.382" x2="486.488" y2="48.382"/><line class="cls-1" x1="410.179" y1="89.828" x2="410.179" y2="49.638"/><line class="cls-1" x1="486.489" y1="48.382" x2="562.799" y2="48.382"/><line class="cls-1" x1="486.489" y1="89.828" x2="486.489" y2="49.638"/><line class="cls-1" x1="562.799" y1="48.382" x2="639.108" y2="48.382"/><line class="cls-1" x1="562.799" y1="89.828" x2="562.799" y2="49.638"/><line class="cls-1" x1="639.109" y1="48.382" x2="715.419" y2="48.382"/><line class="cls-1" x1="639.109" y1="89.828" x2="639.109" y2="49.638"/><line class="cls-1" x1="715.419" y1="48.382" x2="791.729" y2="48.382"/><line class="cls-1" x1="715.419" y1="89.828" x2="715.419" y2="49.638"/><line class="cls-1" x1="90.059" y1="91.085" x2="181.249" y2="91.085"/><line class="cls-1" x1="181.249" y1="91.085" x2="257.558" y2="91.085"/><line class="cls-1" x1="181.249" y1="132.532" x2="181.249" y2="92.342"/><line class="cls-1" x1="257.559" y1="91.085" x2="333.868" y2="91.085"/><line class="cls-1" x1="257.559" y1="132.532" x2="257.559" y2="92.342"/><line class="cls-1" x1="333.869" y1="91.085" x2="410.178" y2="91.085"/><line class="cls-1" x1="333.869" y1="132.532" x2="333.869" y2="92.342"/><line class="cls-1" x1="410.179" y1="91.085" x2="486.488" y2="91.085"/><line class="cls-1" x1="410.179" y1="132.532" x2="410.179" y2="92.342"/><line class="cls-1" x1="486.489" y1="91.085" x2="562.799" y2="91.085"/><line class="cls-1" x1="486.489" y1="132.532" x2="486.489" y2="92.342"/><line class="cls-1" x1="562.799" y1="91.085" x2="639.108" y2="91.085"/><line class="cls-1" x1="562.799" y1="132.532" x2="562.799" y2="92.342"/><line class="cls-1" x1="639.109" y1="91.085" x2="715.419" y2="91.085"/><line class="cls-1" x1="639.109" y1="132.532" x2="639.109" y2="92.342"/><line class="cls-1" x1="715.419" y1="91.085" x2="791.729" y2="91.085"/><line class="cls-1" x1="715.419" y1="132.532" x2="715.419" y2="92.342"/><line class="cls-1" x1="90.059" y1="133.789" x2="181.249" y2="133.789"/><line class="cls-1" x1="181.249" y1="133.789" x2="257.558" y2="133.789"/><line class="cls-1" x1="181.249" y1="175.235" x2="181.249" y2="135.046"/><line class="cls-1" x1="257.559" y1="133.789" x2="333.868" y2="133.789"/><line class="cls-1" x1="257.559" y1="175.235" x2="257.559" y2="135.046"/><line class="cls-1" x1="333.869" y1="133.789" x2="410.178" y2="133.789"/><line class="cls-1" x1="333.869" y1="175.235" x2="333.869" y2="135.046"/><line class="cls-1" x1="410.179" y1="133.789" x2="486.488" y2="133.789"/><line class="cls-1" x1="410.179" y1="175.235" x2="410.179" y2="135.046"/><line class="cls-1" x1="486.489" y1="133.789" x2="562.799" y2="133.789"/><line class="cls-1" x1="486.489" y1="175.235" x2="486.489" y2="135.046"/><line class="cls-1" x1="562.799" y1="133.789" x2="639.108" y2="133.789"/><line class="cls-1" x1="562.799" y1="175.235" x2="562.799" y2="135.046"/><line class="cls-1" x1="639.109" y1="133.789" x2="715.419" y2="133.789"/><line class="cls-1" x1="639.109" y1="175.235" x2="639.109" y2="135.046"/><line class="cls-1" x1="715.419" y1="133.789" x2="791.729" y2="133.789"/><line class="cls-1" x1="715.419" y1="175.235" x2="715.419" y2="135.046"/><line class="cls-1" x1="90.059" y1="176.493" x2="181.249" y2="176.493"/><line class="cls-1" x1="181.249" y1="176.493" x2="257.558" y2="176.493"/><line class="cls-1" x1="181.249" y1="217.939" x2="181.249" y2="177.75"/><line class="cls-1" x1="257.559" y1="176.493" x2="333.868" y2="176.493"/><line class="cls-1" x1="257.559" y1="217.939" x2="257.559" y2="177.75"/><line class="cls-1" x1="333.869" y1="176.493" x2="410.178" y2="176.493"/><line class="cls-1" x1="333.869" y1="217.939" x2="333.869" y2="177.75"/><line class="cls-1" x1="410.179" y1="176.493" x2="486.488" y2="176.493"/><line class="cls-1" x1="410.179" y1="217.939" x2="410.179" y2="177.75"/><line class="cls-1" x1="486.489" y1="176.493" x2="562.799" y2="176.493"/><line class="cls-1" x1="486.489" y1="217.939" x2="486.489" y2="177.75"/><line class="cls-1" x1="562.799" y1="176.493" x2="639.108" y2="176.493"/><line class="cls-1" x1="562.799" y1="217.939" x2="562.799" y2="177.75"/><line class="cls-1" x1="639.109" y1="176.493" x2="715.419" y2="176.493"/><line class="cls-1" x1="639.109" y1="217.939" x2="639.109" y2="177.75"/><line class="cls-1" x1="715.419" y1="176.493" x2="791.729" y2="176.493"/><line class="cls-1" x1="715.419" y1="217.939" x2="715.419" y2="177.75"/><line class="cls-1" x1="90.059" y1="219.197" x2="181.249" y2="219.197"/><line class="cls-1" x1="181.249" y1="219.197" x2="257.558" y2="219.197"/><line class="cls-1" x1="181.249" y1="260.643" x2="181.249" y2="220.454"/><line class="cls-1" x1="257.559" y1="219.197" x2="333.868" y2="219.197"/><line class="cls-1" x1="257.559" y1="260.643" x2="257.559" y2="220.454"/><line class="cls-1" x1="333.869" y1="219.197" x2="410.178" y2="219.197"/><line class="cls-1" x1="333.869" y1="260.643" x2="333.869" y2="220.454"/><line class="cls-1" x1="410.179" y1="219.197" x2="486.488" y2="219.197"/><line class="cls-1" x1="410.179" y1="260.643" x2="410.179" y2="220.454"/><line class="cls-1" x1="486.489" y1="219.197" x2="562.799" y2="219.197"/><line class="cls-1" x1="486.489" y1="260.643" x2="486.489" y2="220.454"/><line class="cls-1" x1="562.799" y1="219.197" x2="639.108" y2="219.197"/><line class="cls-1" x1="562.799" y1="260.643" x2="562.799" y2="220.454"/><line class="cls-1" x1="639.109" y1="219.197" x2="715.419" y2="219.197"/><line class="cls-1" x1="639.109" y1="260.643" x2="639.109" y2="220.454"/><line class="cls-1" x1="715.419" y1="219.197" x2="791.729" y2="219.197"/><line class="cls-1" x1="715.419" y1="260.643" x2="715.419" y2="220.454"/><line class="cls-1" x1="90.059" y1="261.901" x2="181.249" y2="261.901"/><line class="cls-1" x1="181.249" y1="261.901" x2="257.558" y2="261.901"/><line class="cls-1" x1="181.249" y1="303.347" x2="181.249" y2="263.157"/><line class="cls-1" x1="257.559" y1="261.901" x2="333.868" y2="261.901"/><line class="cls-1" x1="257.559" y1="303.347" x2="257.559" y2="263.157"/><line class="cls-1" x1="333.869" y1="261.901" x2="410.178" y2="261.901"/><line class="cls-1" x1="333.869" y1="303.347" x2="333.869" y2="263.157"/><line class="cls-1" x1="410.179" y1="261.901" x2="486.488" y2="261.901"/><line class="cls-1" x1="410.179" y1="303.347" x2="410.179" y2="263.157"/><line class="cls-1" x1="486.489" y1="261.901" x2="562.799" y2="261.901"/><line class="cls-1" x1="486.489" y1="303.347" x2="486.489" y2="263.157"/><line class="cls-1" x1="562.799" y1="261.901" x2="639.108" y2="261.901"/><line class="cls-1" x1="562.799" y1="303.347" x2="562.799" y2="263.157"/><line class="cls-1" x1="639.109" y1="261.901" x2="715.419" y2="261.901"/><line class="cls-1" x1="639.109" y1="303.347" x2="639.109" y2="263.157"/><line class="cls-1" x1="715.419" y1="261.901" x2="791.729" y2="261.901"/><line class="cls-1" x1="715.419" y1="303.347" x2="715.419" y2="263.157"/><line class="cls-1" x1="90.059" y1="304.604" x2="181.249" y2="304.604"/><line class="cls-1" x1="181.249" y1="304.604" x2="257.558" y2="304.604"/><line class="cls-1" x1="181.249" y1="346.05" x2="181.249" y2="305.861"/><line class="cls-1" x1="257.559" y1="304.604" x2="333.868" y2="304.604"/><line class="cls-1" x1="257.559" y1="346.05" x2="257.559" y2="305.861"/><line class="cls-1" x1="333.869" y1="304.604" x2="410.178" y2="304.604"/><line class="cls-1" x1="333.869" y1="346.05" x2="333.869" y2="305.861"/><line class="cls-1" x1="410.179" y1="304.604" x2="486.488" y2="304.604"/><line class="cls-1" x1="410.179" y1="346.05" x2="410.179" y2="305.861"/><line class="cls-1" x1="486.489" y1="304.604" x2="562.799" y2="304.604"/><line class="cls-1" x1="486.489" y1="346.05" x2="486.489" y2="305.861"/><line class="cls-1" x1="562.799" y1="304.604" x2="639.108" y2="304.604"/><line class="cls-1" x1="562.799" y1="346.05" x2="562.799" y2="305.861"/><line class="cls-1" x1="639.109" y1="304.604" x2="715.419" y2="304.604"/><line class="cls-1" x1="639.109" y1="346.05" x2="639.109" y2="305.861"/><line class="cls-1" x1="715.419" y1="304.604" x2="791.729" y2="304.604"/><line class="cls-1" x1="715.419" y1="346.05" x2="715.419" y2="305.861"/><path class="cls-2" d="M300.14,35.843v2.474H285.291V35.541c5.281-3.229,11.439-6.519,11.439-11.771,0-2.325-1.027-3.8-4.467-3.8-3.743,0-4.739,1.66-4.739,4.5a5.121,5.121,0,0,0,.242,1.841l-2.868-.211a14.119,14.119,0,0,1-.121-1.932c0-4.015,2.626-6.67,7.636-6.67,5.886,0,7.153,3.26,7.153,5.976,0,5.8-5.432,9.054-8.752,11.288l-1.63.725v.362Z"/><path class="cls-2" d="M316.984,22.653c0,2.022-1.479,3.712-4.678,3.712-3.229,0-5.04-1.931-5.04-5.553,0-3.32,1.267-6.248,5.523-6.248a12.879,12.879,0,0,1,4.014.574l-.483,1.931a9.939,9.939,0,0,0-3.682-.633c-2.113,0-2.9,1.026-3.139,2.535l2.747.3C315.777,19.635,316.984,20.51,316.984,22.653Zm-2.112.181c0-.936-.724-1.539-3.2-1.78l-2.294-.242c.031,2.294.936,3.682,3.079,3.682C314.148,24.494,314.872,23.77,314.872,22.834Z"/><path class="cls-2" d="M376.784,35.843v2.474H361.935V35.541c5.282-3.229,11.439-6.519,11.439-11.771,0-2.325-1.026-3.8-4.467-3.8-3.743,0-4.738,1.66-4.738,4.5a5.149,5.149,0,0,0,.241,1.841l-2.867-.211a14.119,14.119,0,0,1-.121-1.932c0-4.015,2.626-6.67,7.636-6.67,5.885,0,7.153,3.26,7.153,5.976,0,5.8-5.433,9.054-8.753,11.288l-1.63.725v.362Z"/><path class="cls-2" d="M393.418,22.653c0,2.022-1.51,3.743-5.373,3.743a11.494,11.494,0,0,1-4.346-.845l.6-1.962a9.3,9.3,0,0,0,3.924.905c2.142,0,3.078-.6,3.078-1.63,0-1.087-.845-1.569-3.2-1.962l-3.562-.6.061-5.524H393v1.9h-6.308l-.03,1.992,2.052.332C392.09,19.574,393.418,20.42,393.418,22.653Z"/><path class="cls-2" d="M452.444,35.843v2.474H437.6V35.541c5.282-3.229,11.439-6.519,11.439-11.771,0-2.325-1.026-3.8-4.467-3.8-3.743,0-4.738,1.66-4.738,4.5a5.149,5.149,0,0,0,.241,1.841l-2.867-.211a14.119,14.119,0,0,1-.121-1.932c0-4.015,2.626-6.67,7.636-6.67,5.886,0,7.153,3.26,7.153,5.976,0,5.8-5.432,9.054-8.753,11.288l-1.63.725v.362Z"/><path class="cls-2" d="M469.772,23.981h-1.69v2.173h-2.173V23.981h-6.7V21.929l4.437-7.154h2.264l-3.743,6.006-.935,1.087v.211h4.678v-7.3h2.173v7.3h1.69Z"/><path class="cls-2" d="M529.093,35.843v2.474H514.244V35.541c5.281-3.229,11.439-6.519,11.439-11.771,0-2.325-1.027-3.8-4.467-3.8-3.743,0-4.739,1.66-4.739,4.5a5.121,5.121,0,0,0,.242,1.841l-2.868-.211a14.153,14.153,0,0,1-.12-1.932c0-4.015,2.626-6.67,7.635-6.67,5.886,0,7.154,3.26,7.154,5.976,0,5.8-5.433,9.054-8.753,11.288l-1.63.725v.362Z"/><path class="cls-2" d="M545.515,22.925c0,1.9-1.509,3.44-5.553,3.44a11.313,11.313,0,0,1-4.528-.875l.483-1.811a9.485,9.485,0,0,0,4.226.815c2.173,0,3.169-.453,3.169-1.569,0-.966-.815-1.51-2.989-1.51H536.7V19.544h4.557a2.8,2.8,0,0,1,.453.03,1.893,1.893,0,0,0,1.207-1.719c0-1-.845-1.419-2.6-1.419a9.856,9.856,0,0,0-4.225.905l-.452-1.78a10.876,10.876,0,0,1,4.708-1c3.018,0,4.738.966,4.738,3.109a2.65,2.65,0,0,1-1.72,2.6A2.57,2.57,0,0,1,545.515,22.925Z"/><path class="cls-2" d="M604.757,35.843v2.474H589.908V35.541c5.282-3.229,11.439-6.519,11.439-11.771,0-2.325-1.027-3.8-4.467-3.8-3.743,0-4.739,1.66-4.739,4.5a5.144,5.144,0,0,0,.242,1.841l-2.868-.211a14.153,14.153,0,0,1-.12-1.932c0-4.015,2.626-6.67,7.635-6.67,5.886,0,7.154,3.26,7.154,5.976,0,5.8-5.433,9.054-8.753,11.288l-1.63.725v.362Z"/><path class="cls-2" d="M621.39,24.253v1.9h-9.084V24.071c5.161-2.474,6.549-3.772,6.549-5.825,0-.935-.483-1.78-2.294-1.78-1.75,0-2.414,1.026-2.414,2.053a3.433,3.433,0,0,0,.271,1.448l-2.2-.121A6.047,6.047,0,0,1,612,18.307c0-2.234,1.811-3.712,4.678-3.712,3.259,0,4.346,1.81,4.346,3.47,0,3.109-2.535,4.588-4.648,5.584l-1.207.422v.182Z"/><path class="cls-2" d="M681.4,35.843v2.474H666.552V35.541c5.282-3.229,11.439-6.519,11.439-11.771,0-2.325-1.026-3.8-4.467-3.8-3.743,0-4.738,1.66-4.738,4.5a5.149,5.149,0,0,0,.241,1.841l-2.867-.211a14.119,14.119,0,0,1-.121-1.932c0-4.015,2.626-6.67,7.636-6.67,5.886,0,7.153,3.26,7.153,5.976,0,5.8-5.432,9.054-8.753,11.288l-1.63.725v.362Z"/><path class="cls-2" d="M698.337,24.253v1.9h-8.753v-1.9h3.682V18.216l-3.682,1.389V17.612l3.682-1.418V14.775h2.113v9.478Z"/><path class="cls-2" d="M757.066,35.843v2.474h-14.85V35.541c5.282-3.229,11.439-6.519,11.439-11.771,0-2.325-1.026-3.8-4.466-3.8-3.744,0-4.739,1.66-4.739,4.5a5.149,5.149,0,0,0,.241,1.841l-2.867-.211a14.119,14.119,0,0,1-.121-1.932c0-4.015,2.626-6.67,7.636-6.67,5.886,0,7.153,3.26,7.153,5.976,0,5.8-5.432,9.054-8.753,11.288l-1.63.725v.362Z"/><path class="cls-2" d="M764.222,20.54c0-3.772,1.75-5.915,4.708-5.915,3.109,0,4.588,2.112,4.588,5.8,0,3.8-1.751,5.945-4.708,5.945C765.7,26.365,764.222,24.253,764.222,20.54Zm7.183-.03c0-2.6-.694-3.953-2.5-3.953-1.872,0-2.565,1.387-2.565,3.923,0,2.565.693,3.923,2.5,3.923C770.711,24.4,771.405,23.045,771.405,20.51Z"/><path class="cls-2" d="M305.569,70.585c0,7.606-2.867,10.745-7.7,10.745-5.071,0-7.515-3.531-7.515-10.383,0-7.152,2.867-10.744,7.7-10.744C303.125,60.2,305.569,63.734,305.569,70.585Zm-12.375.212c0,.905.031,1.75.091,2.505l8.843-7.666a3.923,3.923,0,0,0-4.134-2.958C294.312,62.678,293.194,65.515,293.194,70.8Zm9.539-.061c0-.905-.031-1.751-.091-2.505L293.8,75.9a3.926,3.926,0,0,0,4.135,2.959C301.615,78.856,302.733,76.622,302.733,70.736Z"/><path class="cls-2" d="M382.218,70.585c0,7.606-2.867,10.745-7.7,10.745-5.071,0-7.516-3.531-7.516-10.383,0-7.152,2.867-10.744,7.7-10.744C379.773,60.2,382.218,63.734,382.218,70.585Zm-12.375.212c0,.905.03,1.75.091,2.505l8.843-7.666a3.925,3.925,0,0,0-4.135-2.958C370.96,62.678,369.843,65.515,369.843,70.8Zm9.538-.061c0-.905-.03-1.751-.091-2.505L370.447,75.9a3.925,3.925,0,0,0,4.135,2.959C378.264,78.856,379.381,76.622,379.381,70.736Z"/><path class="cls-2" d="M457.878,70.585c0,7.606-2.867,10.745-7.7,10.745-5.071,0-7.516-3.531-7.516-10.383,0-7.152,2.867-10.744,7.7-10.744C455.433,60.2,457.878,63.734,457.878,70.585ZM445.5,70.8c0,.905.03,1.75.091,2.505l8.843-7.666a3.924,3.924,0,0,0-4.135-2.958C446.62,62.678,445.5,65.515,445.5,70.8Zm9.538-.061c0-.905-.03-1.751-.091-2.505L446.107,75.9a3.926,3.926,0,0,0,4.135,2.959C453.924,78.856,455.041,76.622,455.041,70.736Z"/><path class="cls-2" d="M534.526,70.585c0,7.606-2.867,10.745-7.7,10.745-5.071,0-7.515-3.531-7.515-10.383,0-7.152,2.867-10.744,7.7-10.744C532.082,60.2,534.526,63.734,534.526,70.585Zm-12.375.212c0,.905.031,1.75.091,2.505l8.844-7.666a3.925,3.925,0,0,0-4.135-2.958C523.269,62.678,522.151,65.515,522.151,70.8Zm9.539-.061c0-.905-.031-1.751-.091-2.505L522.755,75.9a3.927,3.927,0,0,0,4.135,2.959C530.572,78.856,531.69,76.622,531.69,70.736Z"/><path class="cls-2" d="M610.191,70.585c0,7.606-2.868,10.745-7.7,10.745-5.071,0-7.515-3.531-7.515-10.383,0-7.152,2.867-10.744,7.7-10.744C607.746,60.2,610.191,63.734,610.191,70.585Zm-12.375.212c0,.905.03,1.75.09,2.505l8.844-7.666a3.925,3.925,0,0,0-4.135-2.958C598.933,62.678,597.816,65.515,597.816,70.8Zm9.538-.061c0-.905-.031-1.751-.091-2.505L598.42,75.9a3.925,3.925,0,0,0,4.134,2.959C606.236,78.856,607.354,76.622,607.354,70.736Z"/><path class="cls-2" d="M686.839,70.585c0,7.606-2.867,10.745-7.7,10.745-5.071,0-7.516-3.531-7.516-10.383,0-7.152,2.867-10.744,7.7-10.744C684.394,60.2,686.839,63.734,686.839,70.585Zm-12.375.212c0,.905.03,1.75.091,2.505l8.843-7.666a3.925,3.925,0,0,0-4.135-2.958C675.581,62.678,674.464,65.515,674.464,70.8ZM684,70.736c0-.905-.03-1.751-.091-2.505L675.068,75.9a3.926,3.926,0,0,0,4.135,2.959C682.885,78.856,684,76.622,684,70.736Z"/><path class="cls-2" d="M762.5,70.585c0,7.606-2.867,10.745-7.7,10.745-5.071,0-7.516-3.531-7.516-10.383,0-7.152,2.867-10.744,7.7-10.744C760.05,60.2,762.5,63.734,762.5,70.585ZM750.12,70.8c0,.905.03,1.75.091,2.505l8.843-7.666a3.923,3.923,0,0,0-4.134-2.958C751.237,62.678,750.12,65.515,750.12,70.8Zm9.538-.061c0-.905-.03-1.751-.091-2.505L750.724,75.9a3.926,3.926,0,0,0,4.135,2.959C758.541,78.856,759.658,76.622,759.658,70.736Z"/><path class="cls-2" d="M305.566,113.3c0,7.606-2.868,10.745-7.7,10.745-5.071,0-7.515-3.531-7.515-10.383,0-7.152,2.867-10.744,7.7-10.744C303.121,102.918,305.566,106.449,305.566,113.3Zm-12.375.212c0,.905.03,1.75.09,2.5l8.844-7.666a3.925,3.925,0,0,0-4.135-2.958C294.308,105.393,293.191,108.23,293.191,113.512Zm9.538-.061c0-.9-.031-1.751-.091-2.5l-8.843,7.666a3.924,3.924,0,0,0,4.134,2.958C301.611,121.57,302.729,119.337,302.729,113.451Z"/><path class="cls-2" d="M382.218,113.3c0,7.606-2.867,10.745-7.7,10.745-5.071,0-7.516-3.531-7.516-10.383,0-7.152,2.867-10.744,7.7-10.744C379.773,102.918,382.218,106.449,382.218,113.3Zm-12.375.212c0,.905.03,1.75.091,2.5l8.843-7.666a3.925,3.925,0,0,0-4.135-2.958C370.96,105.393,369.843,108.23,369.843,113.512Zm9.538-.061c0-.9-.03-1.751-.091-2.5l-8.843,7.666a3.924,3.924,0,0,0,4.135,2.958C378.264,121.57,379.381,119.337,379.381,113.451Z"/><path class="cls-2" d="M457.882,113.3c0,7.606-2.867,10.745-7.7,10.745-5.071,0-7.516-3.531-7.516-10.383,0-7.152,2.867-10.744,7.7-10.744C455.437,102.918,457.882,106.449,457.882,113.3Zm-12.375.212c0,.905.03,1.75.091,2.5l8.843-7.666a3.925,3.925,0,0,0-4.135-2.958C446.624,105.393,445.507,108.23,445.507,113.512Zm9.538-.061c0-.9-.03-1.751-.091-2.5l-8.843,7.666a3.925,3.925,0,0,0,4.135,2.958C453.928,121.57,455.045,119.337,455.045,113.451Z"/><path class="cls-2" d="M534.526,113.3c0,7.606-2.867,10.745-7.7,10.745-5.071,0-7.515-3.531-7.515-10.383,0-7.152,2.867-10.744,7.7-10.744C532.082,102.918,534.526,106.449,534.526,113.3Zm-12.375.212c0,.905.031,1.75.091,2.5l8.844-7.666a3.925,3.925,0,0,0-4.135-2.958C523.269,105.393,522.151,108.23,522.151,113.512Zm9.539-.061c0-.9-.031-1.751-.091-2.5l-8.844,7.666a3.926,3.926,0,0,0,4.135,2.958C530.572,121.57,531.69,119.337,531.69,113.451Z"/><path class="cls-2" d="M610.191,113.3c0,7.606-2.868,10.745-7.7,10.745-5.071,0-7.515-3.531-7.515-10.383,0-7.152,2.867-10.744,7.7-10.744C607.746,102.918,610.191,106.449,610.191,113.3Zm-12.375.212c0,.905.03,1.75.09,2.5l8.844-7.666a3.925,3.925,0,0,0-4.135-2.958C598.933,105.393,597.816,108.23,597.816,113.512Zm9.538-.061c0-.9-.031-1.751-.091-2.5l-8.843,7.666a3.924,3.924,0,0,0,4.134,2.958C606.236,121.57,607.354,119.337,607.354,113.451Z"/><path class="cls-2" d="M686.839,113.3c0,7.606-2.867,10.745-7.7,10.745-5.071,0-7.516-3.531-7.516-10.383,0-7.152,2.867-10.744,7.7-10.744C684.394,102.918,686.839,106.449,686.839,113.3Zm-12.375.212c0,.905.03,1.75.091,2.5l8.843-7.666a3.925,3.925,0,0,0-4.135-2.958C675.581,105.393,674.464,108.23,674.464,113.512Zm9.538-.061c0-.9-.03-1.751-.091-2.5l-8.843,7.666a3.925,3.925,0,0,0,4.135,2.958C682.885,121.57,684,119.337,684,113.451Z"/><path class="cls-2" d="M762.827,121.269v2.474H748.461v-2.474h6.4V108.29l-6.4,2.444v-2.685l6.4-2.445V103.22h2.777v18.049Z"/><path class="cls-2" d="M305.569,156.015c0,7.606-2.867,10.745-7.7,10.745-5.071,0-7.515-3.531-7.515-10.383,0-7.152,2.867-10.744,7.7-10.744C303.125,145.633,305.569,149.164,305.569,156.015Zm-12.375.212c0,.905.031,1.75.091,2.5l8.843-7.666a3.924,3.924,0,0,0-4.134-2.958C294.312,148.107,293.194,150.944,293.194,156.227Zm9.539-.061c0-.905-.031-1.751-.091-2.5l-8.844,7.666a3.925,3.925,0,0,0,4.135,2.958C301.615,164.285,302.733,162.052,302.733,156.166Z"/><path class="cls-2" d="M382.218,156.015c0,7.606-2.867,10.745-7.7,10.745-5.071,0-7.516-3.531-7.516-10.383,0-7.152,2.867-10.744,7.7-10.744C379.773,145.633,382.218,149.164,382.218,156.015Zm-12.375.212c0,.905.03,1.75.091,2.5l8.843-7.666a3.926,3.926,0,0,0-4.135-2.958C370.96,148.107,369.843,150.944,369.843,156.227Zm9.538-.061c0-.905-.03-1.751-.091-2.5l-8.843,7.666a3.924,3.924,0,0,0,4.135,2.958C378.264,164.285,379.381,162.052,379.381,156.166Z"/><path class="cls-2" d="M457.882,156.015c0,7.606-2.867,10.745-7.7,10.745-5.071,0-7.516-3.531-7.516-10.383,0-7.152,2.867-10.744,7.7-10.744C455.437,145.633,457.882,149.164,457.882,156.015Zm-12.375.212c0,.905.03,1.75.091,2.5l8.843-7.666a3.926,3.926,0,0,0-4.135-2.958C446.624,148.107,445.507,150.944,445.507,156.227Zm9.538-.061c0-.905-.03-1.751-.091-2.5l-8.843,7.666a3.925,3.925,0,0,0,4.135,2.958C453.928,164.285,455.045,162.052,455.045,156.166Z"/><path class="cls-2" d="M534.526,156.015c0,7.606-2.867,10.745-7.7,10.745-5.071,0-7.515-3.531-7.515-10.383,0-7.152,2.867-10.744,7.7-10.744C532.082,145.633,534.526,149.164,534.526,156.015Zm-12.375.212c0,.905.031,1.75.091,2.5l8.844-7.666a3.926,3.926,0,0,0-4.135-2.958C523.269,148.107,522.151,150.944,522.151,156.227Zm9.539-.061c0-.905-.031-1.751-.091-2.5l-8.844,7.666a3.926,3.926,0,0,0,4.135,2.958C530.572,164.285,531.69,162.052,531.69,156.166Z"/><path class="cls-2" d="M610.191,156.015c0,7.606-2.868,10.745-7.7,10.745-5.071,0-7.515-3.531-7.515-10.383,0-7.152,2.867-10.744,7.7-10.744C607.746,145.633,610.191,149.164,610.191,156.015Zm-12.375.212c0,.905.03,1.75.09,2.5l8.844-7.666a3.926,3.926,0,0,0-4.135-2.958C598.933,148.107,597.816,150.944,597.816,156.227Zm9.538-.061c0-.905-.031-1.751-.091-2.5l-8.843,7.666a3.924,3.924,0,0,0,4.134,2.958C606.236,164.285,607.354,162.052,607.354,156.166Z"/><path class="cls-2" d="M687.171,163.983v2.475H672.8v-2.475h6.4V151.005l-6.4,2.444v-2.685l6.4-2.446v-2.383h2.777v18.048Z"/><path class="cls-2" d="M762.5,156.015c0,7.606-2.867,10.745-7.7,10.745-5.071,0-7.516-3.531-7.516-10.383,0-7.152,2.867-10.744,7.7-10.744C760.05,145.633,762.5,149.164,762.5,156.015Zm-12.375.212c0,.905.03,1.75.091,2.5l8.843-7.666a3.924,3.924,0,0,0-4.134-2.958C751.237,148.107,750.12,150.944,750.12,156.227Zm9.538-.061c0-.905-.03-1.751-.091-2.5l-8.843,7.666a3.925,3.925,0,0,0,4.135,2.958C758.541,164.285,759.658,162.052,759.658,156.166Z"/><path class="cls-2" d="M305.9,249.415v2.475H291.535v-2.475h6.4V236.437l-6.4,2.444V236.2l6.4-2.445v-2.384h2.777v18.049Z"/><path class="cls-2" d="M382.55,249.415v2.475H368.183v-2.475h6.4V236.437l-6.4,2.444V236.2l6.4-2.445v-2.384h2.776v18.049Z"/><path class="cls-2" d="M458.214,249.415v2.475H443.847v-2.475h6.4V236.437l-6.4,2.444V236.2l6.4-2.445v-2.384h2.777v18.049Z"/><path class="cls-2" d="M534.858,249.415v2.475H520.492v-2.475h6.4V236.437l-6.4,2.444V236.2l6.4-2.445v-2.384h2.777v18.049Z"/><path class="cls-2" d="M610.523,249.415v2.475H596.156v-2.475h6.4V236.437l-6.4,2.444V236.2l6.4-2.445v-2.384h2.777v18.049Z"/><path class="cls-2" d="M686.831,241.446c0,7.607-2.867,10.745-7.7,10.745-5.071,0-7.516-3.531-7.516-10.382,0-7.153,2.867-10.745,7.7-10.745C684.386,231.064,686.831,234.6,686.831,241.446Zm-12.375.212c0,.906.03,1.75.091,2.505l8.843-7.666a3.924,3.924,0,0,0-4.135-2.958C675.573,233.539,674.456,236.376,674.456,241.658Zm9.538-.06c0-.906-.03-1.751-.091-2.505l-8.843,7.666a3.925,3.925,0,0,0,4.135,2.958C682.877,249.717,683.994,247.483,683.994,241.6Z"/><path class="cls-2" d="M762.827,249.415v2.475H748.461v-2.475h6.4V236.437l-6.4,2.444V236.2l6.4-2.445v-2.384h2.777v18.049Z"/><path class="cls-2" d="M305.9,292.13v2.475H291.531V292.13h6.4V279.151l-6.4,2.445V278.91l6.4-2.445v-2.384h2.777V292.13Z"/><path class="cls-2" d="M382.55,292.13v2.475H368.183V292.13h6.4V279.151l-6.4,2.445V278.91l6.4-2.445v-2.384h2.776V292.13Z"/><path class="cls-2" d="M458.214,292.13v2.475H443.847V292.13h6.4V279.151l-6.4,2.445V278.91l6.4-2.445v-2.384h2.777V292.13Z"/><path class="cls-2" d="M534.858,292.13v2.475H520.492V292.13h6.4V279.151l-6.4,2.445V278.91l6.4-2.445v-2.384h2.777V292.13Z"/><path class="cls-2" d="M610.523,292.13v2.475H596.156V292.13h6.4V279.151l-6.4,2.445V278.91l6.4-2.445v-2.384h2.777V292.13Z"/><path class="cls-2" d="M687.163,292.13v2.475H672.8V292.13h6.4V279.151l-6.4,2.445V278.91l6.4-2.445v-2.384h2.777V292.13Z"/><path class="cls-2" d="M762.5,284.161c0,7.607-2.867,10.745-7.7,10.745-5.071,0-7.516-3.531-7.516-10.383,0-7.152,2.867-10.744,7.7-10.744C760.05,273.779,762.5,277.311,762.5,284.161Zm-12.375.212c0,.905.03,1.75.091,2.5l8.843-7.666a3.923,3.923,0,0,0-4.134-2.958C751.237,276.254,750.12,279.091,750.12,284.373Zm9.538-.06c0-.906-.03-1.751-.091-2.5l-8.843,7.666a3.925,3.925,0,0,0,4.135,2.958C758.541,292.432,759.658,290.2,759.658,284.313Z"/><path class="cls-2" d="M305.9,334.843v2.474H291.535v-2.474h6.4V321.864l-6.4,2.445v-2.686l6.4-2.445v-2.384h2.777v18.049Z"/><path class="cls-2" d="M382.55,334.843v2.474H368.183v-2.474h6.4V321.864l-6.4,2.445v-2.686l6.4-2.445v-2.384h2.776v18.049Z"/><path class="cls-2" d="M458.214,334.843v2.474H443.847v-2.474h6.4V321.864l-6.4,2.445v-2.686l6.4-2.445v-2.384h2.777v18.049Z"/><path class="cls-2" d="M534.858,334.843v2.474H520.492v-2.474h6.4V321.864l-6.4,2.445v-2.686l6.4-2.445v-2.384h2.777v18.049Z"/><path class="cls-2" d="M610.523,334.843v2.474H596.156v-2.474h6.4V321.864l-6.4,2.445v-2.686l6.4-2.445v-2.384h2.777v18.049Z"/><path class="cls-2" d="M687.163,334.843v2.474H672.8v-2.474h6.4V321.864l-6.4,2.445v-2.686l6.4-2.445v-2.384h2.777v18.049Z"/><path class="cls-2" d="M762.827,334.843v2.474H748.461v-2.474h6.4V321.864l-6.4,2.445v-2.686l6.4-2.445v-2.384h2.777v18.049Z"/><path class="cls-2" d="M162.257,70.585c0,7.606-2.867,10.745-7.7,10.745-5.071,0-7.516-3.531-7.516-10.383,0-7.152,2.868-10.744,7.7-10.744C159.813,60.2,162.257,63.734,162.257,70.585Zm-12.375.212c0,.905.031,1.75.091,2.505l8.843-7.666a3.924,3.924,0,0,0-4.134-2.958C151,62.678,149.882,65.515,149.882,70.8Zm9.538-.061c0-.905-.03-1.751-.091-2.505L150.486,75.9a3.926,3.926,0,0,0,4.135,2.959C158.3,78.856,159.42,76.622,159.42,70.736Z"/><path class="cls-2" d="M162.585,121.269v2.474H148.219v-2.474h6.4V108.29l-6.4,2.444v-2.685l6.4-2.445V103.22h2.777v18.049Z"/><path class="cls-2" d="M162.468,163.983v2.475H147.619v-2.776c5.281-3.23,11.439-6.52,11.439-11.772,0-2.324-1.027-3.8-4.467-3.8-3.743,0-4.738,1.661-4.738,4.5a5.142,5.142,0,0,0,.241,1.84l-2.867-.211a13.941,13.941,0,0,1-.121-1.931c0-4.015,2.626-6.67,7.636-6.67,5.885,0,7.153,3.26,7.153,5.975,0,5.795-5.433,9.055-8.753,11.289l-1.63.724v.362Z"/><path class="cls-2" d="M89.355,184.965v21.61h6.1v2.476H86.578V182.49h8.873v2.475Z"/><path class="cls-2" d="M106.38,203.588A2.717,2.717,0,1,1,109.1,206.3,2.7,2.7,0,0,1,106.38,203.588Z"/><path class="cls-2" d="M126,203.588a2.717,2.717,0,1,1,2.717,2.716A2.706,2.706,0,0,1,126,203.588Z"/><path class="cls-2" d="M145.622,203.588a2.717,2.717,0,1,1,2.717,2.716A2.706,2.706,0,0,1,145.622,203.588Z"/><path class="cls-2" d="M170.858,209.051h-8.874v-2.476h6.1v-21.61h-6.1V182.49h8.874Z"/><path class="cls-2" d="M128.335,249.415v2.475H113.968v-2.475h6.4V236.437l-6.4,2.444V236.2l6.4-2.445v-2.384h2.777v18.049Z"/><path class="cls-2" d="M147.835,249.415v2.475H132.986v-2.777c5.282-3.229,11.439-6.519,11.439-11.771,0-2.324-1.026-3.8-4.467-3.8-3.743,0-4.739,1.66-4.739,4.5a5.14,5.14,0,0,0,.242,1.841l-2.868-.211a14.153,14.153,0,0,1-.12-1.932c0-4.014,2.626-6.67,7.635-6.67,5.886,0,7.154,3.26,7.154,5.976,0,5.8-5.433,9.055-8.753,11.288l-1.63.725v.362Z"/><path class="cls-2" d="M167.065,245.491c0,3.622-2.446,6.7-8.27,6.7a14.543,14.543,0,0,1-6.641-1.358l.785-2.353a12.56,12.56,0,0,0,6.1,1.267c3.8,0,5.251-1.6,5.251-4.075,0-2.354-1.75-3.38-5.4-4.044l-5.342-.966.12-9.3H166.4v2.475H156.38l-.091,4.8,3.562.633C164.71,240.089,167.065,241.689,167.065,245.491Z"/><path class="cls-2" d="M128.335,292.13v2.475H113.968V292.13h6.4V279.151l-6.4,2.445V278.91l6.4-2.445v-2.384h2.777V292.13Z"/><path class="cls-2" d="M147.835,292.13v2.475H132.986v-2.777c5.282-3.229,11.439-6.519,11.439-11.771,0-2.325-1.026-3.8-4.467-3.8-3.743,0-4.739,1.66-4.739,4.5a5.14,5.14,0,0,0,.242,1.841l-2.868-.211a14.153,14.153,0,0,1-.12-1.932c0-4.014,2.626-6.67,7.635-6.67,5.886,0,7.154,3.26,7.154,5.976,0,5.8-5.433,9.055-8.753,11.288l-1.63.725v.362Z"/><path class="cls-2" d="M167.275,288.749c0,3.351-1.992,6.157-7.153,6.157-4.859,0-7.756-2.6-7.756-9.628,0-6.307,2.384-11.529,9.477-11.529a16.925,16.925,0,0,1,5.131.754l-.755,2.415a14.079,14.079,0,0,0-4.617-.725c-4.437,0-5.886,2.657-6.309,5.977l4.769.573C164.771,283.286,167.275,285.007,167.275,288.749Zm-2.776.241c0-2.353-1.358-3.38-5.1-3.833l-4.255-.512v.482c0,5.614,1.63,7.335,5.221,7.335C163.352,292.462,164.5,291.134,164.5,288.99Z"/><path class="cls-2" d="M128.335,334.843v2.474H113.968v-2.474h6.4V321.864l-6.4,2.445v-2.686l6.4-2.445v-2.384h2.777v18.049Z"/><path class="cls-2" d="M147.835,334.843v2.474H132.986v-2.776c5.282-3.229,11.439-6.519,11.439-11.771,0-2.325-1.026-3.8-4.467-3.8-3.743,0-4.739,1.66-4.739,4.5a5.144,5.144,0,0,0,.242,1.841l-2.868-.211a14.153,14.153,0,0,1-.12-1.932c0-4.015,2.626-6.67,7.635-6.67,5.886,0,7.154,3.26,7.154,5.976,0,5.795-5.433,9.054-8.753,11.288l-1.63.725v.362Z"/><path class="cls-2" d="M167,319.57l-6.791,15.273h4.678v2.474H152.758v-2.474h4.407l6.036-13.25,1.3-1.9v-.422H152.456v-2.475H167Z"/></svg>