<svg xmlns="http://www.w3.org/2000/svg" viewBox="0 0 296 232.509"><defs><style>.cls-1{fill:#1858a8;}.cls-2{fill:none;}.cls-3{fill:#f36;}.cls-4{fill:#ffeded;}</style></defs><title>body</title><g id="solo_testo" data-name="solo testo"><path class="cls-1" d="M178.56,218.6a3.686,3.686,0,0,0-.518-2.192,3.647,3.647,0,0,1-.5-2.856,8.682,8.682,0,0,0,.045-2.961,3.1,3.1,0,0,1,.057-1.91.3.3,0,0,0,0-.243,2.175,2.175,0,0,1,.461-2.369c.168-.241.3-.507.43-.731a10.219,10.219,0,0,1-.989-3.249,2.341,2.341,0,0,1,.177-1.122,4.983,4.983,0,0,0,.387-3.507c-.174-.833-.362-1.666-.464-2.509-.176-1.459-.287-2.925-.432-4.387a1.145,1.145,0,0,1,.292-1.074,1.161,1.161,0,0,0,.246-1.206,6.1,6.1,0,0,0-.2-.615,3.053,3.053,0,0,1-.027-2.03,4.963,4.963,0,0,0,.179-1.731c-.366-.048-.733-.1-1.1-.119-.588-.034-1.192.233-1.783.205a8.752,8.752,0,0,1-1.481-.285c-.132-.03-.263-.069-.4-.087a25.48,25.48,0,0,0-4.375-.141,5.685,5.685,0,0,1-1.8-.148,4.367,4.367,0,0,0-1.778-.048,16.408,16.408,0,0,1-2.974.079,7.13,7.13,0,0,0-1.4.054,4.456,4.456,0,0,1-3.574-.724c-.335-.264-.645-.564-1-.874a3.676,3.676,0,0,0-2.224.37,3.641,3.641,0,0,1-2.882.3,8.722,8.722,0,0,0-2.952-.242,3.1,3.1,0,0,1-1.9-.183.309.309,0,0,0-.244-.015,2.166,2.166,0,0,1-2.332-.619c-.229-.183-.487-.331-.7-.476a10.134,10.134,0,0,1-3.307.768,2.318,2.318,0,0,1-1.108-.25,4.974,4.974,0,0,0-3.473-.618c-.081.011-.163.017-.244.028-.763.107-1.525.226-2.292.267-1.466.078-2.936.091-4.4.137a1.145,1.145,0,0,1-1.052-.361,1.161,1.161,0,0,0-1.188-.326,5.852,5.852,0,0,0-.627.155,3.046,3.046,0,0,1-2.027-.109,18.919,18.919,0,0,0-2.665-.4,1.4,1.4,0,0,1-1.352-.111.492.492,0,0,0-.371.018,3.276,3.276,0,0,1-1.525-.017c-1.163-.113-2.323-.7-3.511-.111-.066.03-.167-.019-.253-.029-1.186-.142-2.38-.034-3.57-.2-.1-.014-.2,0-.3-.022a28.689,28.689,0,0,0-3.085-.214,2.261,2.261,0,0,1-.629-.142,4.079,4.079,0,0,0-2.269-.152,3.461,3.461,0,0,0-.525.081c-.287-.23-.55-.439-.737-.591a6.916,6.916,0,0,1-1.369.119c-1.194-.142-2.38-.355-3.57-.532a1.874,1.874,0,0,0-1.373.214,1.024,1.024,0,0,1-.6.171c-.686-.056-1.364-.168-2.048-.238a2.07,2.07,0,0,0-.891,0,2.164,2.164,0,0,1-1.4-.056,7.078,7.078,0,0,0-2.183-.17c-.647.027-1.3.047-1.943.047a1.883,1.883,0,0,1-.882-.111,1.885,1.885,0,0,0-1.233-.128c-.767.077-1.545.024-2.319.026a3.158,3.158,0,0,0-2.12-.364,2.253,2.253,0,0,1-.891-.108,5.242,5.242,0,0,0-3.142-.293c-1.018.164-2.043-.352-3.066.014a.488.488,0,0,1-.359-.11,2.371,2.371,0,0,0-1.882-.224c-1.118.182-2.229-.078-3.342.026a.572.572,0,0,1-.369-.1,2.738,2.738,0,0,0-1.87-.326,5.6,5.6,0,0,1-2.306-.2,2.466,2.466,0,0,0-2.106-.23c-.1.048-.255-.007-.382-.02-.163-.017-.326-.037-.489-.051a2.514,2.514,0,0,0,.041,2.26,3.725,3.725,0,0,1,.113.9,12.136,12.136,0,0,0,.439,2.544,1.938,1.938,0,0,1-.088,1.87,1.392,1.392,0,0,0-.131,1.576,2.342,2.342,0,0,1,.147.627,39.851,39.851,0,0,1,.115,5.16c.007.387-.054.779-.009,1.16a10.687,10.687,0,0,1-.219,3.468,6.161,6.161,0,0,0-.082,1.67c.025.452.088.9.145,1.349a10.829,10.829,0,0,1,.09,3.036.652.652,0,0,0,.052.377,2.138,2.138,0,0,1-.1,1.75,3.114,3.114,0,0,0-.222.988,19.644,19.644,0,0,1,.045,3.1,4.6,4.6,0,0,1-.228,1.765,1.99,1.99,0,0,0-.052,1.016c.1,1.249.23,2.495.357,3.742a3.954,3.954,0,0,1-.142,1.789,2.547,2.547,0,0,0-.105,1.016,28.679,28.679,0,0,1,.175,4.063c.043-.014.083-.029.126-.042a2.153,2.153,0,0,1,.625-.073,2.549,2.549,0,0,0,2.592-1.18,10.356,10.356,0,0,1,4.4.445,3.388,3.388,0,0,0,.891.115,4.792,4.792,0,0,1,2.769.384.272.272,0,0,0,.129.021,14.9,14.9,0,0,1,2.961.15,8.881,8.881,0,0,1,3.059.111,5.129,5.129,0,0,0,1.918-.067,5.968,5.968,0,0,1,2.308-.076c.957.109,1.941.472,2.895-.058a.708.708,0,0,1,.38-.037,4.821,4.821,0,0,1,1.65.2c.545.268,1.119.085,1.6.3a5.446,5.446,0,0,0,3.317.164,8.49,8.49,0,0,1,3.183.117,1.761,1.761,0,0,0,.509.079,2.5,2.5,0,0,1,1.99.658c.261-.067.469-.119.675-.178a2.745,2.745,0,0,1,1.893.014,2.561,2.561,0,0,0,1.405.083,2.241,2.241,0,0,1,.88-.047c.117.031.235.023.353.048a12.781,12.781,0,0,0,3.508.162c1.4-.084,2.722.416,4.1.468a2.443,2.443,0,0,0,2.341.155,3.753,3.753,0,0,1,.9-.053,12.231,12.231,0,0,0,2.567-.268,1.94,1.94,0,0,1,1.862.214,1.393,1.393,0,0,0,1.563.234,2.275,2.275,0,0,1,.636-.1,39.133,39.133,0,0,1,5.156.228,11.32,11.32,0,0,0,1.156.086,10.63,10.63,0,0,1,3.445.451,6.19,6.19,0,0,0,1.663.192c.982.011,1.966-.054,2.95-.039a6.948,6.948,0,0,1,1.438.095.639.639,0,0,0,.383-.027,2.14,2.14,0,0,1,1.737.219,3.157,3.157,0,0,0,.971.288,19.442,19.442,0,0,1,3.094.161,4.607,4.607,0,0,1,1.747.346,2.036,2.036,0,0,0,1.009.12c1.253-.022,2.506-.064,3.76-.108a3.909,3.909,0,0,1,1.773.261,2.554,2.554,0,0,0,1.009.172,25.932,25.932,0,0,1,4.26.11,17.23,17.23,0,0,0,1.918-.158c.683.028,1.355.243,2.038.328.833.1,1.665.184,2.5.3a11.853,11.853,0,0,1,1.337.229,3.689,3.689,0,0,0,1.92.01,2.76,2.76,0,0,1,1.265-.024,4.848,4.848,0,0,0,1.911.15c1.437-.359,2.826.272,4.238.054a.612.612,0,0,1,.355.137,2.1,2.1,0,0,0,1.746.166,2.192,2.192,0,0,1,.88-.028c.484.085.968.154,1.453.226.013-.019.027-.037.042-.057a17.691,17.691,0,0,1-.233-2.507,7.174,7.174,0,0,0-.149-1.394,4.461,4.461,0,0,1,.484-3.615C177.994,219.3,178.273,218.969,178.56,218.6Z"/><path class="cls-1" d="M292.014,68.468a4.936,4.936,0,0,1-1.257,1.62,12.277,12.277,0,0,0-1.869,1.929,1.338,1.338,0,0,1-.7.523,3.33,3.33,0,0,0-1.009.435c-.016.012-.03.03-.048.041a2.793,2.793,0,0,0-1.076,1.229,1.9,1.9,0,0,1-.514.648c-.213.185-.432.363-.647.545a2.555,2.555,0,0,1-.285.438c-.424.466-1.017.775-1.486,1.207a25.228,25.228,0,0,0-2.9,3.274,5.668,5.668,0,0,1-1.263,1.287,4.36,4.36,0,0,0-1.174,1.337,16.349,16.349,0,0,1-1.841,2.336,7.407,7.407,0,0,0-.853,1.112,4.452,4.452,0,0,1-2.843,2.286c-.4.086-.809.132-1.245.2-.183.2-.375.385-.543.6a3.411,3.411,0,0,0-.658,1.36A3.64,3.64,0,0,1,268.2,93.28a8.737,8.737,0,0,0-2.074,2.115c-.387.5-.678,1.122-1.355,1.344a.31.31,0,0,0-.167.179c-.3.972-1.1,1.222-1.968,1.4-.288.059-.564.162-.813.235a10.88,10.88,0,0,1-1.009,2.2,6.059,6.059,0,0,0-.937-.781c-.045.048-.1.086-.144.136-.26.287-.566.531-.85.8-.161.149-.444.282-.465.449-.144,1.137-1.135,1.573-1.787,2.3-.478.528-.755,1.244-1.256,1.743s-1.24.627-1.81,1.12c-.54.468-1.079.925-1.576,1.421a6.207,6.207,0,0,1-.9,1.047,6.845,6.845,0,0,0-.46.675c-.025.042-.076.07-.105.11-.071.132-.142.264-.2.4a4.936,4.936,0,0,1-1.257,1.62,12.233,12.233,0,0,0-1.869,1.929,1.34,1.34,0,0,1-.7.524,3.44,3.44,0,0,0-1.236.582c-.264.235-.538.461-.816.682-.186.185-.366.378-.545.569-.4.431-.584,1.067-.981,1.5-.426.466-1.018.775-1.487,1.207a25.31,25.31,0,0,0-2.905,3.274,5.979,5.979,0,0,1-1.145,1.185l0,0a.473.473,0,0,1-.27.241,4.657,4.657,0,0,0-1.018,1.193,16.421,16.421,0,0,1-1.842,2.337,7.252,7.252,0,0,0-.852,1.112,4.451,4.451,0,0,1-2.844,2.285c-.335.072-.691.116-1.052.167a10.85,10.85,0,0,1-.989.963,3.414,3.414,0,0,0-.4,1.023,3.639,3.639,0,0,1-1.606,2.413,8.7,8.7,0,0,0-2.074,2.115c-.387.5-.678,1.121-1.355,1.344a.311.311,0,0,0-.167.178c-.3.972-1.1,1.222-1.968,1.4-.288.059-.564.162-.813.234a10.158,10.158,0,0,1-1.524,3.035,2.334,2.334,0,0,1-.9.693,4.976,4.976,0,0,0-2.7,2.275c-.448.723-.887,1.457-1.394,2.138-.878,1.178-1.805,2.317-2.71,3.475a1.153,1.153,0,0,1-.95.579,1.155,1.155,0,0,0-1.009.7,5.289,5.289,0,0,0-.283.581,3.05,3.05,0,0,1-1.378,1.489c-.825.419-1.273,1.274-2.015,1.79a1.4,1.4,0,0,1-.95.969c-.1.033-.183.184-.224.3a3.281,3.281,0,0,1-.987,1.161c-.833.823-2.024,1.339-2.331,2.63-.017.069-.121.117-.184.176-.937.888-1.636,1.99-2.64,2.832a28.528,28.528,0,0,0-2.139,2.238,2.3,2.3,0,0,1-.51.392,4.015,4.015,0,0,0-1.842,2.1l-.925.19a6.984,6.984,0,0,1-.782,1.129c-.873.827-1.8,1.6-2.693,2.4a1.875,1.875,0,0,0-.712,1.193,1.023,1.023,0,0,1-.251.568c-.479.491-1,.943-1.491,1.423a2.05,2.05,0,0,0-.566.689,2.17,2.17,0,0,1-.936,1.038,7.185,7.185,0,0,0-1.53,1.57c-.391.516-.789,1.027-1.205,1.525-.066.079-.136.162-.206.243-.009.106-.029.214-.031.32a3.251,3.251,0,0,0,.083,1.522.493.493,0,0,1,.043.37,1.4,1.4,0,0,0-.02,1.356,4.556,4.556,0,0,0-.048.956,4.958,4.958,0,0,1-.179,1.73,3.053,3.053,0,0,0,.027,2.03,6.186,6.186,0,0,1,.2.615,1.164,1.164,0,0,1-.247,1.206,1.147,1.147,0,0,0-.292,1.075c.145,1.461.256,2.927.432,4.386.1.843.289,1.677.463,2.509a4.975,4.975,0,0,1-.387,3.508,2.335,2.335,0,0,0-.175,1.122,10.192,10.192,0,0,0,.988,3.248c-.131.224-.262.49-.429.731a2.174,2.174,0,0,0-.462,2.37.3.3,0,0,1,0,.243,3.093,3.093,0,0,0-.057,1.909,8.688,8.688,0,0,1-.044,2.962,3.648,3.648,0,0,0,.5,2.855,3.674,3.674,0,0,1,.518,2.193c-.286.372-.564.7-.806,1.053a4.454,4.454,0,0,0-.484,3.615,7.171,7.171,0,0,1,.148,1.393,17.417,17.417,0,0,0,.234,2.508c.622-.783,1.252-1.561,1.852-2.363a6.8,6.8,0,0,1,1.977-1.83c.477-.282.958-.56.962-1.262a1.161,1.161,0,0,1,.477-.732,2.693,2.693,0,0,0,1.066-1.259c.024-.079.074-.193.137-.213.758-.242,1.007-1.014,1.551-1.48s1.046-1.016,1.567-1.53c.093-.09.233-.173.26-.281.211-.808.876-1.128,1.523-1.473a5.555,5.555,0,0,0,1.628-1.643c.4-.5.749-1.07,1.448-1.231a.578.578,0,0,0,.312-.222c.631-.921,1.541-1.608,2.115-2.586a2.375,2.375,0,0,1,1.374-1.3c.12-.031.283-.109.317-.206a5.776,5.776,0,0,1,1.5-1.869,3.186,3.186,0,0,0,.453-.5,5.25,5.25,0,0,1,2.234-2.228,2.21,2.21,0,0,0,.651-.616c.474-.555.84-1.227,1.636-1.4.493-.6,1.035-1.161,1.464-1.8a1.863,1.863,0,0,1,.885-.865,1.9,1.9,0,0,0,.649-.609c.416-.5.815-1.009,1.205-1.525a7.208,7.208,0,0,1,1.53-1.57,2.165,2.165,0,0,0,.936-1.038,2.06,2.06,0,0,1,.566-.689c.419-.41.855-.8,1.273-1.215.073-.07.148-.135.218-.208a1.013,1.013,0,0,0,.251-.568,1.877,1.877,0,0,1,.712-1.193c.9-.8,1.819-1.578,2.693-2.405a6.984,6.984,0,0,0,.782-1.129l.926-.19a4.011,4.011,0,0,1,1.84-2.1,2.258,2.258,0,0,0,.512-.393,28.67,28.67,0,0,1,2.138-2.237c1-.842,1.7-1.943,2.64-2.832.063-.059.167-.107.183-.176.308-1.292,1.5-1.807,2.333-2.629a3.29,3.29,0,0,0,.986-1.162c.04-.114.125-.265.224-.3a1.4,1.4,0,0,0,.951-.97c.741-.516,1.189-1.371,2.015-1.79a3.05,3.05,0,0,0,1.378-1.489,5.11,5.11,0,0,1,.283-.581,1.151,1.151,0,0,1,1.009-.7,1.147,1.147,0,0,0,.949-.579c.905-1.159,1.832-2.3,2.71-3.475.506-.681.946-1.415,1.394-2.138a4.978,4.978,0,0,1,2.7-2.276,2.3,2.3,0,0,0,.9-.692,10.129,10.129,0,0,0,1.526-3.034c.248-.073.524-.176.812-.235.866-.176,1.669-.426,1.967-1.4a.3.3,0,0,1,.138-.146c.012-.007.017-.028.03-.032.676-.223.969-.841,1.356-1.344a8.687,8.687,0,0,1,2.074-2.116A3.636,3.636,0,0,0,255.9,151.1a3.688,3.688,0,0,1,1.138-1.945c.461-.072.891-.118,1.307-.207a4.456,4.456,0,0,0,2.844-2.287,7.269,7.269,0,0,1,.853-1.111,16.492,16.492,0,0,0,1.842-2.337,4.309,4.309,0,0,1,1.174-1.337,5.7,5.7,0,0,0,1.261-1.287,25.392,25.392,0,0,1,2.906-3.274c.467-.432,1.06-.741,1.486-1.207.4-.435.578-1.071.982-1.5a5.228,5.228,0,0,1,2.6-1.833,1.342,1.342,0,0,0,.7-.524,12.188,12.188,0,0,1,1.869-1.929,4.939,4.939,0,0,0,1.258-1.62c.09-.2.192-.386.293-.575.394-.723,1.186-1.108,1.523-1.9.331-.779,1.144-1.153,1.72-1.733.7-.7,1.438-1.354,2.165-2.024.054-.051.115-.1.171-.146.138-.121.274-.243.418-.355a3.172,3.172,0,0,0,1.016-1.318c.051-.12.089-.245.15-.359a7.445,7.445,0,0,0,.6-1.133,6.828,6.828,0,0,0,.178-1.289,5.419,5.419,0,0,1,1.091.578,6.186,6.186,0,0,0,1.043-1.214,25.489,25.489,0,0,1,2.686-3.457c.286-.3.619-.568.934-.845a4.779,4.779,0,0,1,.036-1.263,12.59,12.59,0,0,0,.133-1.287,3.267,3.267,0,0,0-.093-1.522.508.508,0,0,1-.045-.37,1.4,1.4,0,0,0,.013-1.356,19.122,19.122,0,0,1,.213-2.686,3.059,3.059,0,0,0-.039-2.032,5.592,5.592,0,0,1-.2-.612,1.159,1.159,0,0,1,.237-1.208,1.14,1.14,0,0,0,.285-1.075c-.152-1.461-.271-2.927-.455-4.384-.106-.843-.3-1.676-.477-2.508a5,5,0,0,1,.366-3.509,2.293,2.293,0,0,0,.17-1.123,10.188,10.188,0,0,0-1-3.243c.129-.225.258-.492.425-.733a2.176,2.176,0,0,0,.448-2.373.3.3,0,0,1,0-.242,3.092,3.092,0,0,0,.045-1.909,8.638,8.638,0,0,1,.029-2.962,3.638,3.638,0,0,0-.513-2.853,3.68,3.68,0,0,1-.529-2.19c.282-.373.558-.7.8-1.057a4,4,0,0,0,.595-2.814,2.1,2.1,0,0,0-.237.28C292.207,68.082,292.105,68.272,292.014,68.468Z"/><path class="cls-1" d="M177.916,173.908c.26-.287.566-.531.852-.795.16-.149.443-.283.464-.45.145-1.136,1.134-1.573,1.788-2.3.477-.528.754-1.245,1.254-1.744s1.241-.626,1.81-1.119a12.614,12.614,0,0,0,2.935-3.143,3.124,3.124,0,0,1,1.144-.943,3.267,3.267,0,0,0,1.333-1.433,2.688,2.688,0,0,1,1.657-1.552c.157-.045.387-.1.435-.216.486-1.143,1.718-1.547,2.42-2.483a5.361,5.361,0,0,1,1.8-1.715.312.312,0,0,0,.13-.1,10.467,10.467,0,0,1,2.535-2.8c.344-.971,1.515-1.31,1.793-2.344a.543.543,0,0,1,.379-.291,3.37,3.37,0,0,0,1.852-1.344,5,5,0,0,1,.873-.767,3.5,3.5,0,0,0,1.212-1.34,3.884,3.884,0,0,1,.946-1.124,12.316,12.316,0,0,0,2.181-2.009,12.852,12.852,0,0,1,2.3-2.146,6.446,6.446,0,0,0,1.205-1.328c.909-1.244,1.791-2.524,3.488-2.932a1.7,1.7,0,0,0,.313-.143c.043-.071.091-.137.135-.207a4.861,4.861,0,0,1,1.482-1.614,9.747,9.747,0,0,1,2.476-2.922,1.409,1.409,0,0,0,.4-.518,2.609,2.609,0,0,1,.732-.874c.008-.025.02-.051.028-.076l.106-.03c.131-.1.256-.212.394-.314.8-.593,1.542-1.265,2.285-1.932.328-.295.582-.675.9-.986.553-.543,1.129-1.062,1.693-1.595.2-.189.475-.358.566-.593a4.176,4.176,0,0,1,1.77-1.931,1.835,1.835,0,0,0,.25-.234c.006-.024.015-.044.02-.067a3.684,3.684,0,0,1,1.138-1.945c.276-.043.525-.085.782-.124a7.218,7.218,0,0,1,1.348-1.151,8.3,8.3,0,0,0,.932-.95,9.119,9.119,0,0,1,1.408-1.153,7.44,7.44,0,0,0,.9-.653,14.87,14.87,0,0,0,1.473-1.911,4.346,4.346,0,0,1,1.174-1.337,5.674,5.674,0,0,0,1.263-1.288,25.435,25.435,0,0,1,2.9-3.273c.468-.432,1.061-.74,1.486-1.206.4-.437.579-1.072.983-1.5a5.225,5.225,0,0,1,2.6-1.833.35.35,0,0,0,.047-.025c.006,0,.009-.008.014-.011a3.368,3.368,0,0,0,.695-.718,34.349,34.349,0,0,1,2.694-2.716,4.3,4.3,0,0,0,.374-.6c.09-.2.191-.385.293-.574l.007-.008c.4-.717,1.181-1.1,1.517-1.9s1.143-1.152,1.718-1.731c.7-.7,1.438-1.354,2.166-2.025.189-.175.386-.343.59-.5A3.186,3.186,0,0,0,257.78,93a3.8,3.8,0,0,1,.15-.358,7.46,7.46,0,0,0,.6-1.134,6.827,6.827,0,0,0,.178-1.29,4.928,4.928,0,0,1,1.695.959,3.7,3.7,0,0,0,1.248-.926c.114-.268.232-.536.319-.811.191-.056.407-.122.621-.179a26.639,26.639,0,0,1,4.056-3.719,5.959,5.959,0,0,0,.821-.829c.809-.9,1.61-1.814,2.416-2.719.021-.08.053-.155.07-.237a3.691,3.691,0,0,1,1.138-1.946c.382-.059.735-.108,1.086-.172.261-.247.5-.518.766-.76a25.122,25.122,0,0,0,2.925-3.4,3.645,3.645,0,0,1,.911-.93,11.314,11.314,0,0,0,1.442-1.077,3.728,3.728,0,0,1,.89-.937c.062-.043.107-.1.164-.144.041-.048.092-.085.131-.133a5.3,5.3,0,0,1,.665-.648c.1-.121.2-.236.3-.362a25.392,25.392,0,0,1,2.906-3.274c.467-.432,1.06-.741,1.486-1.207.4-.435.578-1.071.982-1.5a5.222,5.222,0,0,1,2.6-1.833.749.749,0,0,0,.084-.044,13.463,13.463,0,0,1,2.422-2.368c.047-.048.081-.108.124-.158a12.284,12.284,0,0,0-2.3.065,6.518,6.518,0,0,0-1.309.228,4.751,4.751,0,0,1-1.631.082c-1.425.018-2.86-.373-4.281.07a1.845,1.845,0,0,1-.827.036c-1.315-.224-2.64-.321-3.967-.44a20.215,20.215,0,0,0-2.825-.08c-.386.019-.775-.024-1.163-.04-.22-.008-.514-.113-.647-.01-.906.7-1.914.31-2.887.359-.712.036-1.413.346-2.119.346s-1.322-.435-2.073-.488a12.588,12.588,0,0,0-4.3.147,3.123,3.123,0,0,1-1.476-.143,3.269,3.269,0,0,0-1.956.071,2.692,2.692,0,0,1-2.269-.075c-.143-.079-.345-.2-.46-.155-1.151.465-2.309-.12-3.469.045a5.336,5.336,0,0,1-2.486-.062.3.3,0,0,0-.164-.017,10.5,10.5,0,0,1-3.772.188c-.931.442-2-.146-2.926.388a.54.54,0,0,1-.474-.062,3.371,3.371,0,0,0-2.26-.359,4.935,4.935,0,0,1-1.16-.075,3.5,3.5,0,0,0-1.8.091,3.9,3.9,0,0,1-1.464.126,12.3,12.3,0,0,0-2.963-.122,12.791,12.791,0,0,1-3.146-.112,6.4,6.4,0,0,0-1.791.088c-1.523.236-3.052.517-4.539-.393a3.444,3.444,0,0,0-2.618,0,9.914,9.914,0,0,1-3.954.34,1.4,1.4,0,0,0-.652.082,3.606,3.606,0,0,1-1.805.023c-.985-.146-1.986-.2-2.981-.249-.442-.024-.89.065-1.334.061-.776-.007-1.55-.048-2.325-.069a2.016,2.016,0,0,0-.819.02,4.186,4.186,0,0,1-2.617.113,5.849,5.849,0,0,0-1.332.033,13.8,13.8,0,0,1-3.659-.045,8.139,8.139,0,0,0-1.332.013,9.239,9.239,0,0,1-1.811-.181,8.313,8.313,0,0,0-2.647-.209c-2.779.182-5.56.359-8.341.5-.771.039-1.548-.059-2.322-.082-.5-.015-1-.025-1.5-.006a12.189,12.189,0,0,1-3.49-.063,3.35,3.35,0,0,0-1,.016,33.511,33.511,0,0,1-4.795-.023c-.606-.048-1.223.074-1.835.075-.662,0-1.325-.05-1.99-.081a2.01,2.01,0,0,0-.659-.033c-1.375.45-2.738.066-4.107-.01a10.375,10.375,0,0,0-3.8.281,1.446,1.446,0,0,1-1.133-.018,2.879,2.879,0,0,0-.708-.228c-.054.032-.095.072-.155.1a7.715,7.715,0,0,0-1.151.694,5.566,5.566,0,0,0-1.654-.8c-.044,0-.088,0-.133,0a6.458,6.458,0,0,1-.118,1.245,7.4,7.4,0,0,1-.552,1.16c-.054.117-.087.244-.131.366a3.194,3.194,0,0,1-.955,1.361c-.2.169-.387.345-.567.529-.695.7-1.405,1.391-2.068,2.123-.548.605-1.346,1.017-1.638,1.808-.3.811-1.075,1.232-1.434,1.973-.093.193-.186.388-.268.587a4.957,4.957,0,0,1-1.18,1.677,12.189,12.189,0,0,0-1.778,2.013,1.35,1.35,0,0,1-.672.555,5.243,5.243,0,0,0-2.511,1.951c-.38.449-.534,1.092-.909,1.547-.406.484-.982.819-1.43,1.273a25.308,25.308,0,0,0-2.751,3.405,5.7,5.7,0,0,1-1.2,1.344,4.365,4.365,0,0,0-1.111,1.389,16.452,16.452,0,0,1-1.731,2.421,7.1,7.1,0,0,0-.8,1.148,4.451,4.451,0,0,1-2.734,2.414c-.416.109-.839.174-1.3.268a3.666,3.666,0,0,0-1.047,2,3.639,3.639,0,0,1-1.493,2.484,8.6,8.6,0,0,0-1.975,2.209c-.365.52-.627,1.151-1.292,1.4a.3.3,0,0,0-.158.186c-.256.985-1.045,1.271-1.9,1.488-.283.072-.557.187-.8.272a10.142,10.142,0,0,1-1.382,3.1,2.343,2.343,0,0,1-.869.733,4.976,4.976,0,0,0-2.587,2.4c-.414.744-.818,1.5-1.3,2.2-.769,1.14-1.587,2.249-2.386,3.369-.055.076-.106.152-.161.228a1.144,1.144,0,0,1-.923.621c-.5.009-.757.367-.975.75a5.891,5.891,0,0,0-.254.594,3.053,3.053,0,0,1-1.309,1.552c-.806.456-1.213,1.33-1.932,1.88a1.4,1.4,0,0,1-.9,1.012.5.5,0,0,0-.211.307,3.285,3.285,0,0,1-.932,1.206c-.792.86-1.962,1.43-2.208,2.736-.013.069-.116.121-.174.183-.9.93-1.543,2.064-2.507,2.952a27.489,27.489,0,0,0-2.031,2.332,2.247,2.247,0,0,1-.5.415,4.013,4.013,0,0,0-1.74,2.186c-.356.09-.682.173-.917.231a6.844,6.844,0,0,1-.729,1.164c-.835.867-1.72,1.683-2.579,2.526a1.875,1.875,0,0,0-.656,1.225,1.031,1.031,0,0,1-.225.579c-.456.512-.956.988-1.425,1.491a2.045,2.045,0,0,0-.533.714,2.164,2.164,0,0,1-.887,1.08,7.094,7.094,0,0,0-1.455,1.639c-.368.532-.741,1.062-1.133,1.579a1.9,1.9,0,0,1-.622.637,1.882,1.882,0,0,0-.844.905c-.4.657-.912,1.248-1.377,1.865-.79.208-1.125.9-1.571,1.471a2.215,2.215,0,0,1-.624.646,5.262,5.262,0,0,0-2.127,2.329c-.484.912-1.513,1.417-1.837,2.456-.031.1-.189.183-.307.22a2.361,2.361,0,0,0-1.312,1.363c-.53,1-1.408,1.732-2,2.683a.568.568,0,0,1-.3.235c-.69.193-1.009.772-1.389,1.3a5.566,5.566,0,0,1-1.552,1.717c-.1.056-.176.125-.269.182.027.264.04.528.074.792a41.083,41.083,0,0,1-.194,4.123c-.019.028-.02.057-.039.087.163.013.327.034.489.051.126.012.281.067.382.02a2.467,2.467,0,0,1,2.106.23,5.6,5.6,0,0,0,2.306.2,2.736,2.736,0,0,1,1.871.326.568.568,0,0,0,.368.1c1.113-.1,2.224.156,3.341-.026a2.373,2.373,0,0,1,1.883.224.489.489,0,0,0,.359.111c1.023-.366,2.048.149,3.065-.015a5.245,5.245,0,0,1,3.143.293,2.271,2.271,0,0,0,.891.109,3.157,3.157,0,0,1,2.12.364c.774,0,1.551.051,2.318-.026a1.886,1.886,0,0,1,1.234.127,1.87,1.87,0,0,0,.882.111c.647,0,1.3-.02,1.943-.047a7.078,7.078,0,0,1,2.183.171,2.164,2.164,0,0,0,1.4.055,2.071,2.071,0,0,1,.891,0c.684.07,1.362.182,2.048.237a1.024,1.024,0,0,0,.6-.171,1.886,1.886,0,0,1,1.374-.214c1.189.177,2.374.391,3.569.532a6.893,6.893,0,0,0,1.368-.118l.738.59a3.567,3.567,0,0,1,.525-.08,4.08,4.08,0,0,1,2.269.151,2.263,2.263,0,0,0,.629.143,28.726,28.726,0,0,1,3.086.213c.1.019.2.009.3.022,1.19.164,2.384.057,3.569.2.087.01.188.06.254.03,1.188-.591,2.349,0,3.511.111a3.276,3.276,0,0,0,1.525.016.5.5,0,0,1,.37-.018,1.4,1.4,0,0,0,1.353.111,19.126,19.126,0,0,1,2.666.405,3.048,3.048,0,0,0,2.026.109,5.8,5.8,0,0,1,.627-.156,1.163,1.163,0,0,1,1.188.326,1.145,1.145,0,0,0,1.052.361c1.467-.045,2.938-.059,4.4-.137.767-.041,1.53-.159,2.292-.267.082-.011.162-.017.244-.028a4.975,4.975,0,0,1,3.473.619,2.33,2.33,0,0,0,1.108.25,10.2,10.2,0,0,0,3.308-.768c.214.145.472.293.7.476a2.172,2.172,0,0,0,2.333.619.308.308,0,0,1,.244.014,3.1,3.1,0,0,0,1.9.184,8.665,8.665,0,0,1,2.952.242,3.641,3.641,0,0,0,2.882-.306,3.686,3.686,0,0,1,2.224-.37c.351.311.661.61,1,.875a4.454,4.454,0,0,0,3.575.723,7.187,7.187,0,0,1,1.4-.053,16.431,16.431,0,0,0,2.976-.08,4.362,4.362,0,0,1,1.777.049,5.712,5.712,0,0,0,1.8.148c.529-.022,1.057-.019,1.584-.017l1.077-.9A20.067,20.067,0,0,0,177.916,173.908Z"/><path class="cls-2" d="M166.948,126.13c7.975,0,14.484-2.234,19.044-5.85-1.429-.559-3.247-1.162-5.511-1.865l-17.534-5.453c-4.6-1.394-7.526-3.046-8.074-5.19l-6.194,7.093c-1.435,1.646-2.595,3.1-3.555,4.429,2.93,3.108,7.974,5.24,14.489,6.25A47.838,47.838,0,0,0,166.948,126.13Z"/><path class="cls-3" d="M24.556,146.725c-.172-.667-.307-1.185-.459-1.772l1.728-.417c.958-1.193,1.885-2.378,2.828-3.541a9.752,9.752,0,0,1-.787-.852c-.22-.268-.71-.3-1-.531-.358-.29-.864-.649-.91-1.027-.189-1.584-1.191-2.266-2.552-2.731a1.252,1.252,0,0,1-.293-.194,2.057,2.057,0,0,0-.261.158,6.843,6.843,0,0,0-1.485,1.326c-.738,1.158-2.7,1.243-2.652,3.073,0,.1-.3.214-.471.3-.5.241-1.012.485-1.539.735.232.349.452.7.707,1.036a4.1,4.1,0,0,0,2.774,1.812,3.815,3.815,0,0,1,2.861,2.224,5.452,5.452,0,0,0,.586.99c.023-.009.042-.023.067-.032A4.313,4.313,0,0,0,24.556,146.725Z"/><path class="cls-3" d="M209.831,58.006A91.04,91.04,0,0,0,195.877,56.9c-21.071,0-38.565,7.974-50.711,21.9L103.76,126.249l-.692.793.715.111,1,.155,16.206,2.516,8.561-9.807.85.135c-.728,8.619,8,14.428,23.156,16.777a78.834,78.834,0,0,0,12.076.947c17.2,0,32.033-5.951,40.826-16.016a29.888,29.888,0,0,0,4.349-6.285,16.855,16.855,0,0,0,.731-1.74,11.666,11.666,0,0,0,.731-3.772v-.412h-.02c-.167-6.277-6.507-11.42-20.206-15.7l-17.494-5.327-.891-.272-.112-.035c-.316-.1-.607-.191-.907-.287-8.986-2.85-10.551-4.185-7.635-7.524,6.5-7.456,16.575-12.181,28.327-12.181a45.822,45.822,0,0,1,7.02.549c1.4.217,2.659.486,3.851.779a21.478,21.478,0,0,1,7.646,3.243c4.534,3.361,4.373,8.175.3,13.557L230.07,89.23a28.749,28.749,0,0,0,4.156-6.819,19.505,19.505,0,0,0,.731-2.046,15.1,15.1,0,0,0,.665-4.322C235.6,67.6,227.484,60.746,209.831,58.006Zm-43.17,40.446,13.82,4.3c12.2,3.783,13.77,8.65,8.251,14.981a20.051,20.051,0,0,1-1.476,1.484c-.2.183-.392.366-.6.543s-.446.345-.667.521c-4.56,3.616-11.069,5.85-19.044,5.85a47.838,47.838,0,0,1-7.335-.586c-6.515-1.01-11.559-3.142-14.489-6.25-.174-.184-.353-.364-.512-.555s-.315-.4-.461-.6c-3.291-4.578-2.414-10.979,4.528-18.94l6.194-7.094c.546,2.132,3.442,3.778,8,5.168.025.007.046.016.072.024l.695.215,1.6.5Z"/><path class="cls-3" d="M103.758,61.916a6.3,6.3,0,0,1,1.427-4.558,3.942,3.942,0,0,0,.971-2.041,4.04,4.04,0,0,1,2.638-3.78,3.925,3.925,0,0,0,2.031-2.279,3.535,3.535,0,0,1,1.29-1.83,5.688,5.688,0,0,0,2.591-2.979,4.188,4.188,0,0,1,1.945-2.351,1.3,1.3,0,0,0,.656-.858c.35-2.583,2.05-3.455,4.383-3.574.85-.043,1.7-.074,2.306-.1a12.378,12.378,0,0,1,1.463-1.244c.9-.538,1.87-.962,2.78-1.486.489-.281,1.2-.59,1.323-1.024.623-2.224,3.12-3.377,3.389-5.772a3.674,3.674,0,0,0,2.17,1.121,3.812,3.812,0,0,1,2.861,2.223,5.272,5.272,0,0,0,3.39,2.912,4.289,4.289,0,0,1,2.686,2.4c.3.621,1,.787,1.652,1.046a2.972,2.972,0,0,1,1.471-1.882,18.99,18.99,0,0,0,3.965-3.359c-.256-.22-.527-.425-.777-.652-.794-.721-1.749-1.412-1.908-2.734a2.02,2.02,0,0,0-1.4-1.286,6.539,6.539,0,0,1-4.259-2.624c-.22-.267-.71-.3-1-.531-.357-.29-.864-.648-.909-1.026a2.771,2.771,0,0,0-1.262-2.087,5.352,5.352,0,0,0-1.291-.644,3.644,3.644,0,0,1-1.012-.806,14.411,14.411,0,0,0-.311-2.137,1.79,1.79,0,0,0-.785-1.117c-1.7-.605-2.6-2.24-4.133-3.043a2.055,2.055,0,0,1-.344-.256,1.243,1.243,0,0,1-.429-.566c-.528-2.023-2.353-3.218-3.022-5.141l-2.441.776c-.343-.269-.639-.4-.781-.63A3.081,3.081,0,0,0,122.2,6.449a2,2,0,0,1-1.492-.682,7.922,7.922,0,0,0-3.732-2.57c-.032-.14-.06-.273-.09-.411a9.858,9.858,0,0,0-.87,1.478,3,3,0,0,1-2.95,1.936,1.438,1.438,0,0,0-1.551,1.028,6.38,6.38,0,0,1-1.777,3.075,6.3,6.3,0,0,1,.816,1.515l2.443-.776c.342.268.638.4.78.63a3.08,3.08,0,0,0,2.888,1.548,2.008,2.008,0,0,1,1.492.681,7.908,7.908,0,0,0,3.732,2.57c.24,1.1.461,2.111.715,3.272a2.788,2.788,0,0,1,2.116.756,10.086,10.086,0,0,0-2.706,3.184c-2.488,3.659-4.927,7.36-8.618,9.984a1.7,1.7,0,0,0-.694.873c-.246,1.185-1.222,1.683-2.042,2.317-.767.593-1.6,1.118-1.776,2.168a3.606,3.606,0,0,1-1.946,2.348c-1.338.9-2.668,1.828-3.215,3.526a3.2,3.2,0,0,1-2.278,2.065,5.066,5.066,0,0,0-2.928,2.6A24.989,24.989,0,0,0,97.3,51.955c-1.548-.033-2.429,1.281-3.673,1.937a2.1,2.1,0,0,0-.989,1.627c.2,1.832-.938,2.315-2.3,2.724a2.956,2.956,0,0,0-.7.448c-.42,2.257-.423,2.254-2,3.94a4.813,4.813,0,0,0-.695.9,10.957,10.957,0,0,1-5.87,5.213,4.241,4.241,0,0,0-.858.554l.458,1.771c-.7.169-1.251.3-1.727.417-1.528,1.9-2.944,3.825-4.541,5.584a4.439,4.439,0,0,1-2.733,1.908,2.022,2.022,0,0,0-1.287,1.4,6.535,6.535,0,0,1-2.623,4.26c-.268.22-.3.71-.531,1-.29.359-.649.865-1.027.911-1.584.189-2.266,1.191-2.731,2.552-.141.416-.575.733-.805,1.012a14.426,14.426,0,0,0-2.138.311c-.423.127-.989.427-1.116.784-.606,1.7-2.241,2.6-3.044,4.134a1.571,1.571,0,0,1-.822.772c-2.022.529-3.217,2.354-5.141,3.023.3.93.545,1.715.777,2.442-.269.342-.4.638-.631.78a3.081,3.081,0,0,0-1.548,2.888,2.006,2.006,0,0,1-.681,1.492,7.925,7.925,0,0,0-2.57,3.733l-3.272.715a2.794,2.794,0,0,1-.822,2.2,13.728,13.728,0,0,0-1.3,2.413c-.59.967-1.274,1.876-1.918,2.811-1.167.749-2.431,1.452-3.564,2.323a4.083,4.083,0,0,0-1.811,2.773,3.823,3.823,0,0,1-2.224,2.862,5.265,5.265,0,0,0-2.912,3.389,4.286,4.286,0,0,1-2.4,2.686c-1.131.551-.741,2.43-2.176,2.879a1.072,1.072,0,0,0-.231.14c-.272-.193-.514-.442-.719-.612a14.431,14.431,0,0,0-.311-2.137,1.794,1.794,0,0,0-.785-1.117c-1.7-.605-2.6-2.24-4.133-3.043a1.577,1.577,0,0,1-.773-.822c-.528-2.023-2.354-3.218-3.022-5.141l-2.442.776c-.342-.269-.638-.4-.781-.63a3.079,3.079,0,0,0-2.888-1.548c-.025,0-.056-.009-.083-.01-.262.269-.511.547-.754.815-1.6,1.759-3.013,3.681-4.54,5.584l-1.132.273a3.943,3.943,0,0,0,.974.109,2,2,0,0,1,1.492.682,7.92,7.92,0,0,0,3.732,2.57l.716,3.271a2.8,2.8,0,0,1,2.2.823,13.679,13.679,0,0,0,2.412,1.3c.967.591,1.877,1.276,2.812,1.919.529.825,1.057,1.686,1.615,2.528.232.349.452.7.707,1.036a4.1,4.1,0,0,0,2.774,1.812,3.815,3.815,0,0,1,2.861,2.224,5.294,5.294,0,0,0,3.39,2.911,4.288,4.288,0,0,1,2.685,2.4c.552,1.13,2.43.742,2.879,2.176a1.511,1.511,0,0,0,.3.493,6.84,6.84,0,0,0,1.326,1.484c1.159.738,1.244,2.705,3.074,2.652.094,0,.214.3.3.471l.37.777.034-.016c.172-.082.474-.2.471-.3-.052-1.831,1.914-1.916,2.652-3.074a6.843,6.843,0,0,1,1.485-1.326,1.517,1.517,0,0,1,.492-.3,1.919,1.919,0,0,0,1.184-1.356,6.884,6.884,0,0,0-.479-.724l-1.77.458c-.169-.7-.3-1.251-.417-1.727-1.9-1.528-3.826-2.944-5.584-4.541a4.438,4.438,0,0,1-1.908-2.734,2.022,2.022,0,0,0-1.4-1.286A6.056,6.056,0,0,1,28.653,141c.56-.692,1.116-1.386,1.713-2.042.72-.794,1.411-1.75,2.734-1.908a2.021,2.021,0,0,0,1.285-1.4,6.539,6.539,0,0,1,2.624-4.26c.268-.219.3-.71.531-1,.29-.358.649-.865,1.026-.91,1.585-.19,2.267-1.192,2.732-2.553.141-.416.575-.733.8-1.012a14.553,14.553,0,0,0,2.137-.31,1.792,1.792,0,0,0,1.117-.785c.606-1.7,2.241-2.6,3.043-4.133a1.581,1.581,0,0,1,.824-.773c2.021-.529,3.216-2.353,5.139-3.022-.294-.93-.544-1.715-.776-2.443.269-.342.4-.638.63-.779a3.08,3.08,0,0,0,1.548-2.888,2.008,2.008,0,0,1,.682-1.493,7.915,7.915,0,0,0,2.57-3.732l3.271-.715a2.8,2.8,0,0,1,.823-2.2,13.715,13.715,0,0,0,1.3-2.412c.591-.967,1.276-1.877,1.919-2.812,1.167-.749,2.431-1.452,3.564-2.322a4.093,4.093,0,0,0,1.812-2.774,3.818,3.818,0,0,1,2.224-2.862,5.264,5.264,0,0,0,2.911-3.389,4.284,4.284,0,0,1,2.4-2.685c1.129-.552.741-2.431,2.176-2.879a1.524,1.524,0,0,0,.492-.3A6.869,6.869,0,0,0,83.4,78.878c.737-1.159,2.7-1.244,2.651-3.074,0-.095.3-.214.472-.3,1.186-.57,2.377-1.134,3.879-1.849a5.03,5.03,0,0,0,1.253-3.069c.006-.742.488-1.162.991-1.654,2.051-2.008,4.44-3.687,6.061-6.123a1.816,1.816,0,0,1,2.044-.687c.919.162,1.8.74,2.772.309C103.609,62.247,103.77,62.075,103.758,61.916Z"/><path class="cls-4" d="M212.268,110.063a11.666,11.666,0,0,1-.731,3.772,16.855,16.855,0,0,1-.731,1.74,29.888,29.888,0,0,1-4.349,6.285c-8.793,10.065-23.628,16.016-40.826,16.016a78.834,78.834,0,0,1-12.076-.947c-15.151-2.349-23.884-8.158-23.156-16.777l-.85-.135-8.561,9.807-16.206-2.516-1-.155-.715-.111.692-.793-.824.633.132,15.825,17.92,2.782,8.561-9.808.85.136c-.728,8.619,8,14.429,23.156,16.776a78.711,78.711,0,0,0,12.076.948c17.2,0,32.032-5.95,40.826-16.016,4.111-4.715,6.123-8.936,5.811-12.734Z"/><path class="cls-4" d="M235.622,76.043a15.1,15.1,0,0,1-.665,4.322,19.505,19.505,0,0,1-.731,2.046,28.749,28.749,0,0,1-4.156,6.819l-17.922-2.782c4.072-5.382,4.233-10.2-.3-13.557a21.478,21.478,0,0,0-7.646-3.243c-1.192-.293-2.451-.562-3.851-.779a45.822,45.822,0,0,0-7.02-.549c-11.752,0-21.823,4.725-28.327,12.181-2.916,3.339-1.351,4.674,7.635,7.524.3.1.591.189.907.287l.112.035.891.272a39.256,39.256,0,0,1,18.782-4.634,45.841,45.841,0,0,1,7.02.549c5.514.857,9.4,2.323,11.823,4.239l.13,13.132c-.052.07-.1.138-.155.208L230.07,104.9c3.605-4.486,5.507-8.881,5.578-12.921l.04-.026V75.977Z"/><path class="cls-4" d="M144.612,118.739c.159.191.338.371.512.555.96-1.327,2.12-2.783,3.555-4.429l6.194-7.093c.548,2.144,3.47,3.8,8.074,5.19l17.534,5.453c2.264.7,4.082,1.306,5.511,1.865.221-.176.456-.34.667-.521s.4-.36.6-.543a20.051,20.051,0,0,0,1.476-1.484c5.519-6.331,3.947-11.2-8.251-14.981l-13.82-4.3-1.415-.44-1.6-.5-.695-.215c-.026-.008-.047-.017-.072-.024-4.56-1.39-7.456-3.036-8-5.168L148.679,99.2c-6.942,7.961-7.819,14.362-4.528,18.94C144.3,118.343,144.45,118.543,144.612,118.739Z"/><path class="cls-4" d="M234.2,58.73c-.488.052-.977.107-1.466.138-.176.011-.348-.025-.522-.023.031.006.06,0,.092.009A3.706,3.706,0,0,0,234.2,58.73Z"/><polygon class="cls-4" points="211.743 110.069 209.779 113.201 212.562 116.442 209.38 119.237 208.137 123.325 203.03 122.656 201.552 125.347 201.459 130.241 198.837 132.086 195.472 132.577 190.829 129.953 190.308 136.399 186.93 136.297 183.855 136.81 180.152 134.343 177.082 133.716 174.552 136.537 171.918 140.756 168.633 137.49 165.631 138.466 162.594 137.97 159.738 135.607 156.18 140.577 153.731 135.794 150.04 138.475 146.587 138.859 144.335 134.921 140.415 136.197 139.463 130.731 136.247 130.283 131.727 130.417 128.877 127.736 127.594 123.883 130.74 119.941 128.822 119.079 125.093 120.443 126.553 126.034 122.042 126.42 121.081 130.08 118.001 127.699 114.874 126.478 111.42 127.36 107.965 128.211 104.823 127.04 103.532 128.771 103.546 127.03 102.114 127.606 100.844 126.442 105.675 130.022 101.335 133.221 102.473 136.375 104.196 139.529 104.14 141.819 106.282 141.671 109.34 141.664 111.857 145.145 114.738 146.285 117.749 146.62 119.804 142.43 125.535 145.142 127.02 142.121 129.516 139.976 129.22 135.256 131.738 134.988 128.891 139.288 131.098 142.189 133.231 144.672 136.17 146.067 137.391 150.305 140.611 151.384 144.727 149.347 147.86 149.472 150.688 150.872 153.096 155.553 156.634 152.361 159.478 154.556 162.608 153.314 165.631 152.96 168.757 156.279 171.664 153.473 174.24 149.816 177.768 153.35 180.738 152.641 184.034 153.118 185.514 147.71 188.593 147.72 191.169 146.353 194.569 146.564 195.855 142.967 201.331 145.719 201.114 140.483 204.037 139.349 208.762 139.536 209.416 136.154 211.28 133.764 208.609 129.258 209.734 127.171 214.107 124.755 214.24 121.848 211.809 118.905 209.844 115.961 214 112.858 211.743 110.069"/><polygon class="cls-4" points="236.453 76.078 232.92 79.762 233.498 82.104 234.455 85.581 232.774 87.84 230.063 89.139 227.385 86.854 224.25 87.353 220.946 88.943 218.14 87.316 214.84 88.843 212.799 85.323 212.133 82.946 214.426 80.852 215.871 77.811 214.578 74.688 211.406 73.485 209.372 71.646 206.29 72.158 204.697 67.634 200.173 70.012 196.939 67.33 193.33 68.326 190.262 69.904 187.131 69.7 184.22 70.883 180.251 68.517 177.245 69.957 174.161 71.194 172.691 75.054 170.67 77.49 166.679 77.655 166.418 81.736 165.046 83.109 166.823 84.506 169.2 87.507 172.631 88.045 173.842 87.359 173.285 89.569 174.316 86.857 177.594 87.466 179.89 84.158 183.86 86.005 187.074 85.976 189.992 83.039 193.33 83.004 196.875 83.804 200.448 83.9 203.215 86.252 206.427 86.273 209.52 87.039 212.865 88.633 210.8 92.067 211.857 95.337 211.673 98.625 214.347 101.917 212.394 100.762 215.201 102.117 218.288 101.926 221.246 102.572 224.025 104.368 227.072 104.473 230.074 104.944 232.434 103.037 234.133 100.613 232.801 96.895 234.182 94.567 233.601 91.854 234.152 91.929 235.821 88.757 235.978 85.565 234.289 82.373 237.642 79.175 235.12 75.837 236.453 76.078"/><polygon class="cls-4" points="143.84 119.378 145.05 119.198 147.305 117.409 148.693 114.877 150.134 111.972 152.789 110.122 154.59 107.317 156.898 110.307 160.378 110.496 163.295 111.837 165.846 113.93 168.612 115.333 172.087 114.462 174.627 116.596 177.615 117.309 180.333 118.891 183.711 117.938 186.18 118.854 186.345 119.395 186.735 118.655 189.019 117.983 190.013 114.817 192.934 112.373 191.729 108.833 188.786 107.144 186.311 105.247 183.848 102.867 180.884 101.453 178.093 100.69 174.657 101.997 172.572 98.959 169.594 98.779 166.543 98.83 165.65 96.713 163.564 97.764 163.005 97.112 162.546 98.356 160 95.629 156.541 95.097 155.051 92.393 152.344 94.061 151.704 97.672 148.273 98.846 147.804 102.311 143.873 103.288 143.654 106.68 142.046 109.375 141.883 112.514 141.924 115.753 144.041 118.22 143.84 119.378"/><polygon class="cls-4" points="234.167 58.706 232.729 58.819 232.211 58.871 232.303 58.847 234.167 58.706"/><path class="cls-3" d="M209.725,58.686l-3.4-.832-3.449-.662-3.442-1.523-3.554,2.452-3.832-1.8-3.73,1.254-3.83-.034-3.6,1.427H177l-3.8.634-3.529,1.524-3.048,2.534-3.27,1.849-3.337,1.714-3.1,2.114-3.141,2.07-2.79,2.521-2.3,3-3.217,2.131-3.237,2.082-1.5,3.6-2.709,2.551-2.191,3-3.437,1.916L130.533,95.5l-1.491,3.616-3.968,1.452-2.427,2.8-.945,4.092-2.343,2.864-2.658,2.6-2.919,2.374-2.129,3.064-3.184,2.144-2.118,3.083-3.122,2.206-.787,1.272,1.242.734.979.283,4.172-.173,4.236-.582,3.938,1.385,3.762.551,4.034-1.854,1.63-4.34,2.9-3.3.171.826,2.026,3.234-.088,4.5,4.136,1.592,3.488,1.572L141.7,135.2l4.435-.856,3.644,1.436,3.65,1.954,4.022.786,4.1-.023,4.078.4,3.715-2.071,3.912,1.683,3.612-1.595,3.819-.147,3.278-2.321,3.952.035,3.6-1.223,3.547-1.431,3.406-1.781,2.6-2.919,2.227-3.139,3.347-1.961,2.714-2.8,1.606-3.57,1.426-1.512.787-4.071-.623-.437.109,0-1.551-3.617-1.061-4.162-3.536-2.114-4.134-.628-2.715-3.306-3.758-1.158-3.585-1.643L188.511,93l-3.647-.569-3.1-2.36-3.712-.381-3.68-.482-.634-1.117-.253.422-.575-1.337-3.226-1L166.5,85.151,163.2,83.669l1.544-3.4,2.48-3.233,3.017-2.767,4.6-.135,3-2.761,3.824-1.045,3.541-2.413,4.092-.087,4.033.062,3.528.46,3.456.747,3.971.207,3.589,2.383,3.784,1.454,3.121,2.4L214,79.386l.015,3.7-1.949,3.488,3.747-.126,3.619.317,3.435,1.5,3.616.382,3.646,1.082,3.328-3.113,1.45-3.924.391-2.232.027-4.423-.713-3.6-1.76-3.174-2.046-3.146-3.034-2.26-3.761-.878-3.06-2.46-3.475-1.737-4.024.48ZM166.865,97.8l3.344,1.42,3.358,1.377,3.069,2.327,4.207-1.335,2.9,3.02,3.757.7,2.631,2.656,2.247,3.155-1.731,3.472-2.443,2.676-1.244,1.624.17,1.408-.556.707-3.595,2.173-3.781,1.772-4.049.939-4.066.766-4.13.779-3.71-1.065-3.522-1.495-4.178.424-3.76-1.569-3.8-1.5-2.265-3.491-1.065-.029-1.477.137.267-4.073-.28-3.2-1.149-3.876,1.445-3.431,2.23-2.9,2.736-2.391,1.753-2.632,2.811-1.715,1.785-2.687,1.695,3.272,3.064,1.543,3.16,1.139.03.146.935-.559,1.7-.723Z"/><path class="cls-3" d="M38.663,64.053c3.607,3.505,6.227,9.1,2.619,15.367l-2.991-1.584c2.656-4.753.612-8.339-2.583-11.566.134,3.7.647,9.725.849,12.4l-2.832.936c-1.262-3.03-7.084-13.534-9.626-17.968l3.451-1.736c1.816,3.448,4.718,8.751,6.381,12.731a41.605,41.605,0,0,1-.523-9.483c.748-.194,1.8-.534,3.095-.96A19.68,19.68,0,0,1,38.663,64.053Z"/><path class="cls-3" d="M49.135,53.276c3.751,3.645,5.3,9.84,1.838,14.727-1.274.526-2.485,1.032-3.657,1.455a16.829,16.829,0,0,1-3.266-2.453c-4.266-4.146-5.044-10.23-.9-14.5A12.66,12.66,0,0,1,44.5,51.332L47.036,52.8l.8-.622A11.087,11.087,0,0,1,49.135,53.276ZM46.5,55.163c-.227-.22-.454-.441-.679-.619-2.758,3.208-2.034,7.038,1.388,10.363a13.45,13.45,0,0,0,1.829,1.5C51.505,62.549,49.117,57.706,46.5,55.163Z"/><path class="cls-3" d="M55.345,31.424c2.3,4.965,6.534,15,10.985,20.651l-2.958,2.013a57.484,57.484,0,0,1-3.53-5.272,55.435,55.435,0,0,1,.292,9.017c-.729.173-1.961.74-3.215,1.164A18.128,18.128,0,0,1,54.9,57.319c-3.792-3.684-5.332-9.027-1.985-15.03l3.054,1.724c-2.1,4.056-1.8,7.424,1.928,11.17,0-2.968-.086-7.416-.207-10.218C56.042,41.8,54.3,38.1,51.958,33.3Z"/><path class="cls-3" d="M70.646,27.141c1.906,5.378,7.26,15.989,9.388,19.82L76.99,48.692c-1.625-2.781-3.744-7.445-5.78-11.907a52.289,52.289,0,0,1,.028,10.4l-3.191,1.389c-2.69-4.819-5.05-9.275-7.6-13.121l3.1-2.158c1.767,2.758,3.623,6.045,5.545,9.716a47.8,47.8,0,0,0-1.709-14.323Z"/></g></svg>