<svg xmlns="http://www.w3.org/2000/svg" viewBox="0 0 296 232.509"><defs><style>.cls-1{fill:#1858a8;}.cls-2{fill:#ffeded;}.cls-3{fill:#f36;}</style></defs><title>manuale_ill_nuove</title><g id="Livello_1" data-name="Livello 1"><path class="cls-1" d="M179.92,217.5a3.675,3.675,0,0,0-.516-2.185,3.634,3.634,0,0,1-.5-2.847,8.681,8.681,0,0,0,.045-2.952,3.084,3.084,0,0,1,.056-1.9.3.3,0,0,0,0-.242,2.168,2.168,0,0,1,.46-2.362c.167-.24.3-.5.428-.729a10.166,10.166,0,0,1-.985-3.238,2.334,2.334,0,0,1,.176-1.118,4.965,4.965,0,0,0,.385-3.5c-.173-.83-.36-1.661-.462-2.5-.176-1.454-.286-2.916-.431-4.372a1.146,1.146,0,0,1,.291-1.071,1.155,1.155,0,0,0,.246-1.2,6.249,6.249,0,0,0-.2-.614,3.036,3.036,0,0,1-.027-2.024,4.974,4.974,0,0,0,.178-1.725c-.365-.047-.731-.1-1.1-.118-.586-.034-1.188.232-1.777.2a8.8,8.8,0,0,1-1.477-.284c-.13-.03-.261-.069-.394-.087a25.325,25.325,0,0,0-4.362-.14,5.668,5.668,0,0,1-1.79-.148,4.361,4.361,0,0,0-1.773-.048,16.309,16.309,0,0,1-2.965.079,7.079,7.079,0,0,0-1.4.054,4.439,4.439,0,0,1-3.563-.722c-.334-.264-.643-.562-.992-.871a3.668,3.668,0,0,0-2.217.368,3.628,3.628,0,0,1-2.873.305,8.64,8.64,0,0,0-2.943-.241,3.1,3.1,0,0,1-1.894-.183.313.313,0,0,0-.244-.015,2.16,2.16,0,0,1-2.324-.617c-.228-.182-.485-.33-.7-.474a10.111,10.111,0,0,1-3.3.765,2.315,2.315,0,0,1-1.105-.249,4.965,4.965,0,0,0-3.462-.617c-.081.012-.162.017-.244.029-.76.107-1.519.225-2.284.266-1.461.077-2.927.091-4.391.136a1.139,1.139,0,0,1-1.048-.36,1.158,1.158,0,0,0-1.184-.324,5.812,5.812,0,0,0-.625.154,3.031,3.031,0,0,1-2.02-.108,18.976,18.976,0,0,0-2.657-.4,1.4,1.4,0,0,1-1.348-.11.494.494,0,0,0-.37.018,3.268,3.268,0,0,1-1.52-.017c-1.159-.113-2.316-.7-3.5-.111-.065.031-.167-.019-.253-.029-1.181-.141-2.372-.034-3.558-.2-.1-.014-.2,0-.3-.022a28.54,28.54,0,0,0-3.076-.213,2.213,2.213,0,0,1-.627-.142,4.073,4.073,0,0,0-2.262-.151,3.541,3.541,0,0,0-.523.08c-.287-.229-.548-.437-.735-.588a6.947,6.947,0,0,1-1.365.118c-1.19-.141-2.372-.354-3.558-.53a1.868,1.868,0,0,0-1.369.213,1.024,1.024,0,0,1-.595.17c-.684-.055-1.36-.167-2.041-.236a2.062,2.062,0,0,0-.889,0,2.162,2.162,0,0,1-1.393-.055,7.039,7.039,0,0,0-2.177-.17c-.645.027-1.292.047-1.937.047a1.874,1.874,0,0,1-.879-.111,1.879,1.879,0,0,0-1.229-.127c-.765.077-1.54.024-2.312.026a3.143,3.143,0,0,0-2.113-.363,2.275,2.275,0,0,1-.888-.108,5.217,5.217,0,0,0-3.132-.292c-1.015.163-2.037-.351-3.056.014a.489.489,0,0,1-.359-.11,2.361,2.361,0,0,0-1.876-.223c-1.114.181-2.221-.078-3.331.025a.561.561,0,0,1-.367-.1,2.723,2.723,0,0,0-1.865-.324,5.579,5.579,0,0,1-2.3-.2,2.459,2.459,0,0,0-2.1-.229c-.1.047-.255-.008-.382-.02-.162-.017-.324-.037-.487-.051a2.5,2.5,0,0,0,.041,2.253,3.8,3.8,0,0,1,.113.9,12.07,12.07,0,0,0,.437,2.536,1.932,1.932,0,0,1-.088,1.864,1.386,1.386,0,0,0-.131,1.57,2.334,2.334,0,0,1,.147.626,39.6,39.6,0,0,1,.115,5.144c.007.386-.054.776-.009,1.156a10.648,10.648,0,0,1-.219,3.457,6.164,6.164,0,0,0-.081,1.665c.025.45.088.9.144,1.344a10.8,10.8,0,0,1,.091,3.026.652.652,0,0,0,.051.377,2.132,2.132,0,0,1-.1,1.744,3.094,3.094,0,0,0-.221.985,19.518,19.518,0,0,1,.045,3.088,4.576,4.576,0,0,1-.228,1.76,2,2,0,0,0-.052,1.013c.1,1.244.23,2.487.357,3.73a3.928,3.928,0,0,1-.142,1.783,2.531,2.531,0,0,0-.1,1.013,28.644,28.644,0,0,1,.174,4.05c.042-.014.083-.029.126-.042a2.133,2.133,0,0,1,.622-.073,2.542,2.542,0,0,0,2.585-1.176,10.319,10.319,0,0,1,4.383.444,3.378,3.378,0,0,0,.889.114,4.778,4.778,0,0,1,2.76.383.272.272,0,0,0,.129.021,14.816,14.816,0,0,1,2.952.15,8.842,8.842,0,0,1,3.048.11,5.124,5.124,0,0,0,1.913-.066,5.927,5.927,0,0,1,2.3-.076c.954.108,1.935.47,2.886-.059a.715.715,0,0,1,.379-.036,4.81,4.81,0,0,1,1.644.2c.544.268,1.116.085,1.6.3a5.433,5.433,0,0,0,3.306.163,8.437,8.437,0,0,1,3.173.117,1.751,1.751,0,0,0,.507.078,2.5,2.5,0,0,1,1.985.657c.259-.068.466-.12.672-.178a2.734,2.734,0,0,1,1.887.014,2.553,2.553,0,0,0,1.4.082,2.268,2.268,0,0,1,.878-.047c.117.032.234.024.351.049a12.749,12.749,0,0,0,3.5.161,41.134,41.134,0,0,1,4.088.467,2.439,2.439,0,0,0,2.335.154,3.82,3.82,0,0,1,.9-.053,12.171,12.171,0,0,0,2.56-.267,1.936,1.936,0,0,1,1.856.213,1.388,1.388,0,0,0,1.558.233,2.291,2.291,0,0,1,.634-.1,38.869,38.869,0,0,1,5.139.228c.386.019.771.1,1.152.085a10.6,10.6,0,0,1,3.435.449,6.146,6.146,0,0,0,1.657.192c.979.011,1.96-.054,2.941-.039a6.909,6.909,0,0,1,1.434.095.641.641,0,0,0,.381-.027,2.136,2.136,0,0,1,1.732.218,3.111,3.111,0,0,0,.968.287,19.559,19.559,0,0,1,3.084.16,4.6,4.6,0,0,1,1.741.345,2.026,2.026,0,0,0,1.006.12c1.249-.022,2.5-.063,3.748-.107a3.872,3.872,0,0,1,1.768.26,2.557,2.557,0,0,0,1.006.172,25.765,25.765,0,0,1,4.246.109,17.346,17.346,0,0,0,1.912-.158c.681.028,1.351.242,2.032.327.83.1,1.66.184,2.488.3a11.761,11.761,0,0,1,1.332.227,3.681,3.681,0,0,0,1.915.011,2.743,2.743,0,0,1,1.261-.024,4.854,4.854,0,0,0,1.905.149c1.432-.358,2.817.272,4.224.054a.612.612,0,0,1,.354.136,2.089,2.089,0,0,0,1.741.166,2.177,2.177,0,0,1,.877-.028c.483.084.965.153,1.448.225a.7.7,0,0,1,.043-.056,17.593,17.593,0,0,1-.233-2.5,7.131,7.131,0,0,0-.149-1.389,4.445,4.445,0,0,1,.483-3.6C179.356,218.2,179.634,217.874,179.92,217.5Z"/><path class="cls-1" d="M293.016,67.847a4.922,4.922,0,0,1-1.253,1.616,12.15,12.15,0,0,0-1.863,1.922,1.332,1.332,0,0,1-.695.522,3.345,3.345,0,0,0-1.006.433c-.016.012-.03.03-.048.042a2.778,2.778,0,0,0-1.072,1.224,1.889,1.889,0,0,1-.513.646c-.212.184-.43.362-.644.544a2.538,2.538,0,0,1-.285.436c-.423.465-1.014.773-1.481,1.2a25.213,25.213,0,0,0-2.895,3.263A5.654,5.654,0,0,1,280,80.982a4.346,4.346,0,0,0-1.17,1.333A16.311,16.311,0,0,1,277,84.644a7.3,7.3,0,0,0-.849,1.108,4.444,4.444,0,0,1-2.835,2.279c-.4.085-.806.131-1.241.2-.182.2-.373.384-.541.594a3.411,3.411,0,0,0-.656,1.356,3.629,3.629,0,0,1-1.6,2.4,8.683,8.683,0,0,0-2.068,2.108c-.386.5-.676,1.118-1.351,1.34a.311.311,0,0,0-.167.178c-.3.969-1.1,1.217-1.961,1.393-.287.059-.562.162-.81.234a10.9,10.9,0,0,1-1.006,2.2,6.031,6.031,0,0,0-.935-.779c-.044.048-.1.086-.143.136-.259.285-.564.529-.847.792-.161.148-.443.282-.464.448-.144,1.133-1.131,1.568-1.781,2.288-.477.527-.753,1.241-1.252,1.738s-1.237.625-1.8,1.117c-.539.466-1.076.922-1.571,1.416a6.215,6.215,0,0,1-.894,1.044,6.529,6.529,0,0,0-.459.673c-.025.042-.076.07-.1.109-.07.132-.141.263-.2.4a4.929,4.929,0,0,1-1.253,1.615,12.162,12.162,0,0,0-1.864,1.923,1.333,1.333,0,0,1-.695.522,3.43,3.43,0,0,0-1.231.58c-.264.235-.537.459-.814.68-.185.185-.365.377-.543.567-.4.43-.582,1.064-.978,1.5-.424.464-1.015.772-1.483,1.2a25.279,25.279,0,0,0-2.9,3.263,5.92,5.92,0,0,1-1.142,1.182l0,0a.479.479,0,0,1-.269.24,4.648,4.648,0,0,0-1.016,1.189,16.368,16.368,0,0,1-1.835,2.33,7.255,7.255,0,0,0-.85,1.108,4.436,4.436,0,0,1-2.834,2.278c-.335.072-.689.115-1.049.167a11.039,11.039,0,0,1-.986.959,3.4,3.4,0,0,0-.4,1.02,3.626,3.626,0,0,1-1.6,2.405,8.724,8.724,0,0,0-2.068,2.109c-.385.5-.676,1.117-1.351,1.339a.316.316,0,0,0-.166.178c-.3.969-1.1,1.218-1.962,1.394-.286.058-.562.162-.81.233a10.122,10.122,0,0,1-1.52,3.026,2.314,2.314,0,0,1-.9.69,4.956,4.956,0,0,0-2.688,2.269c-.446.72-.884,1.452-1.389,2.131-.875,1.173-1.8,2.309-2.7,3.463a1.146,1.146,0,0,1-.947.577,1.155,1.155,0,0,0-1.006.7,5.533,5.533,0,0,0-.282.579,3.036,3.036,0,0,1-1.373,1.485c-.823.417-1.269,1.27-2.009,1.784a1.391,1.391,0,0,1-.947.966c-.1.033-.183.183-.224.3a3.269,3.269,0,0,1-.983,1.158c-.83.82-2.018,1.334-2.324,2.622-.017.068-.12.116-.183.174-.934.886-1.631,1.985-2.632,2.823a28.888,28.888,0,0,0-2.132,2.231,2.239,2.239,0,0,1-.509.391,4.011,4.011,0,0,0-1.836,2.095l-.922.19a7.024,7.024,0,0,1-.779,1.125c-.871.824-1.789,1.6-2.685,2.4a1.864,1.864,0,0,0-.709,1.189,1.027,1.027,0,0,1-.251.567c-.478.489-1,.939-1.486,1.418a2.053,2.053,0,0,0-.564.686,2.159,2.159,0,0,1-.934,1.035,7.184,7.184,0,0,0-1.524,1.566c-.391.514-.787,1.024-1.2,1.52-.065.079-.135.161-.205.242-.009.106-.029.213-.031.319a3.256,3.256,0,0,0,.082,1.517.486.486,0,0,1,.043.369,1.393,1.393,0,0,0-.019,1.352,4.456,4.456,0,0,0-.048.952,4.95,4.95,0,0,1-.178,1.725,3.042,3.042,0,0,0,.026,2.024,5.819,5.819,0,0,1,.2.613,1.156,1.156,0,0,1-.246,1.2,1.146,1.146,0,0,0-.291,1.072c.145,1.456.255,2.917.431,4.372.1.84.288,1.671.462,2.5a4.961,4.961,0,0,1-.386,3.5,2.319,2.319,0,0,0-.175,1.118,10.166,10.166,0,0,0,.985,3.238c-.13.224-.261.489-.428.729a2.168,2.168,0,0,0-.46,2.362.3.3,0,0,1,0,.242,3.082,3.082,0,0,0-.057,1.9,8.661,8.661,0,0,1-.044,2.953,3.635,3.635,0,0,0,.5,2.846,3.674,3.674,0,0,1,.517,2.186c-.286.371-.563.7-.805,1.049a4.444,4.444,0,0,0-.482,3.6,7.13,7.13,0,0,1,.148,1.389,17.448,17.448,0,0,0,.233,2.5c.62-.78,1.248-1.556,1.846-2.356a6.765,6.765,0,0,1,1.971-1.824c.475-.281.955-.558.959-1.258a1.15,1.15,0,0,1,.476-.729,2.675,2.675,0,0,0,1.061-1.256c.025-.078.075-.191.138-.212.755-.241,1-1.011,1.545-1.475s1.044-1.013,1.562-1.525c.094-.09.233-.172.26-.281.21-.8.873-1.124,1.518-1.468a5.545,5.545,0,0,0,1.623-1.638c.4-.5.746-1.066,1.443-1.227a.574.574,0,0,0,.311-.221c.63-.918,1.536-1.6,2.109-2.578a2.361,2.361,0,0,1,1.369-1.3c.12-.032.282-.109.316-.206a5.752,5.752,0,0,1,1.491-1.863,3.255,3.255,0,0,0,.451-.5,5.231,5.231,0,0,1,2.227-2.222,2.185,2.185,0,0,0,.649-.614c.472-.553.837-1.222,1.631-1.393.492-.594,1.031-1.158,1.459-1.793a1.861,1.861,0,0,1,.882-.863,1.871,1.871,0,0,0,.647-.607c.415-.5.813-1.006,1.2-1.52a7.18,7.18,0,0,1,1.524-1.565,2.159,2.159,0,0,0,.934-1.035,2.056,2.056,0,0,1,.564-.687c.417-.409.852-.8,1.269-1.211.073-.07.147-.135.217-.207a1.017,1.017,0,0,0,.251-.566,1.869,1.869,0,0,1,.709-1.189c.9-.8,1.814-1.574,2.685-2.4a6.979,6.979,0,0,0,.779-1.125l.923-.19a4.009,4.009,0,0,1,1.835-2.095,2.21,2.21,0,0,0,.51-.391,28.673,28.673,0,0,1,2.131-2.23c1-.839,1.7-1.937,2.632-2.823.063-.059.166-.106.183-.175.306-1.288,1.5-1.8,2.325-2.621a3.259,3.259,0,0,0,.982-1.159c.041-.113.125-.263.224-.3a1.394,1.394,0,0,0,.948-.966c.739-.515,1.185-1.367,2.009-1.784a3.04,3.04,0,0,0,1.373-1.485,5.263,5.263,0,0,1,.282-.58,1.15,1.15,0,0,1,1.006-.7,1.145,1.145,0,0,0,.946-.577c.9-1.155,1.827-2.29,2.7-3.464.5-.679.943-1.41,1.389-2.131a4.964,4.964,0,0,1,2.688-2.269,2.3,2.3,0,0,0,.9-.69,10.1,10.1,0,0,0,1.521-3.025c.247-.072.523-.175.809-.234.864-.176,1.665-.424,1.962-1.393a.3.3,0,0,1,.137-.146c.012-.007.017-.028.029-.032.675-.222.967-.838,1.352-1.34a8.683,8.683,0,0,1,2.068-2.108,3.634,3.634,0,0,0,1.6-2.405,3.669,3.669,0,0,1,1.134-1.939c.459-.071.888-.118,1.3-.207a4.44,4.44,0,0,0,2.834-2.279,7.3,7.3,0,0,1,.851-1.108,16.454,16.454,0,0,0,1.836-2.329,4.294,4.294,0,0,1,1.17-1.333,5.645,5.645,0,0,0,1.257-1.283,25.228,25.228,0,0,1,2.9-3.263c.466-.431,1.057-.739,1.481-1.2.4-.434.577-1.067.979-1.5a5.215,5.215,0,0,1,2.589-1.828,1.335,1.335,0,0,0,.694-.521,12.028,12.028,0,0,1,1.863-1.923,4.925,4.925,0,0,0,1.254-1.616c.09-.195.191-.385.292-.573.393-.72,1.182-1.105,1.518-1.9.33-.776,1.141-1.149,1.714-1.727.695-.7,1.434-1.35,2.159-2.018.054-.051.114-.1.17-.145.138-.121.274-.243.417-.354a3.174,3.174,0,0,0,1.013-1.314c.05-.119.089-.245.149-.358a7.447,7.447,0,0,0,.6-1.129,6.879,6.879,0,0,0,.177-1.286,5.442,5.442,0,0,1,1.088.577,6.205,6.205,0,0,0,1.039-1.21,25.324,25.324,0,0,1,2.677-3.446c.286-.3.618-.566.932-.843a4.75,4.75,0,0,1,.036-1.259c.053-.428.123-.858.133-1.283a3.272,3.272,0,0,0-.094-1.517.5.5,0,0,1-.044-.368,1.393,1.393,0,0,0,.013-1.352,19,19,0,0,1,.212-2.678,3.058,3.058,0,0,0-.038-2.025,5.582,5.582,0,0,1-.2-.611,1.154,1.154,0,0,1,.237-1.2,1.138,1.138,0,0,0,.284-1.073c-.151-1.456-.27-2.917-.453-4.37-.106-.84-.3-1.67-.476-2.5a4.977,4.977,0,0,1,.365-3.5,2.281,2.281,0,0,0,.169-1.12,10.114,10.114,0,0,0-1-3.232c.129-.225.258-.491.424-.731a2.172,2.172,0,0,0,.447-2.366.3.3,0,0,1,0-.241,3.073,3.073,0,0,0,.046-1.9,8.586,8.586,0,0,1,.029-2.953,3.633,3.633,0,0,0-.512-2.844,3.678,3.678,0,0,1-.528-2.183c.282-.372.557-.7.8-1.054a3.991,3.991,0,0,0,.594-2.8,2.086,2.086,0,0,0-.237.278C293.209,67.463,293.107,67.652,293.016,67.847Z"/><path class="cls-1" d="M179.279,172.955c.258-.286.564-.53.848-.793.16-.148.442-.281.463-.448.144-1.133,1.13-1.568,1.782-2.288.476-.527.752-1.241,1.251-1.738s1.236-.625,1.8-1.116a12.586,12.586,0,0,0,2.925-3.133,3.115,3.115,0,0,1,1.141-.94,3.26,3.26,0,0,0,1.329-1.429,2.684,2.684,0,0,1,1.651-1.547c.157-.045.386-.1.434-.215.485-1.139,1.712-1.542,2.413-2.475a5.325,5.325,0,0,1,1.8-1.709.317.317,0,0,0,.129-.1,10.453,10.453,0,0,1,2.527-2.792c.344-.968,1.51-1.306,1.788-2.336a.544.544,0,0,1,.377-.291,3.354,3.354,0,0,0,1.847-1.339,4.845,4.845,0,0,1,.87-.764,3.494,3.494,0,0,0,1.208-1.336,3.891,3.891,0,0,1,.943-1.121,12.275,12.275,0,0,0,2.174-2,12.767,12.767,0,0,1,2.3-2.138,6.408,6.408,0,0,0,1.2-1.325c.906-1.24,1.786-2.515,3.477-2.923a1.6,1.6,0,0,0,.312-.142c.043-.07.091-.137.134-.207a4.849,4.849,0,0,1,1.478-1.608,9.728,9.728,0,0,1,2.469-2.913,1.408,1.408,0,0,0,.4-.516,2.6,2.6,0,0,1,.729-.872c.009-.024.02-.05.028-.075l.106-.03c.131-.1.256-.211.393-.313.8-.591,1.538-1.261,2.278-1.926.327-.294.58-.673.9-.983.551-.542,1.126-1.059,1.688-1.589.2-.189.473-.358.564-.593a4.162,4.162,0,0,1,1.764-1.924,1.892,1.892,0,0,0,.25-.233c.006-.024.015-.044.019-.067a3.67,3.67,0,0,1,1.135-1.939l.779-.124a7.2,7.2,0,0,1,1.344-1.147,8.252,8.252,0,0,0,.929-.947,9.1,9.1,0,0,1,1.4-1.149,7.4,7.4,0,0,0,.9-.651,14.942,14.942,0,0,0,1.469-1.9,4.306,4.306,0,0,1,1.17-1.333,5.7,5.7,0,0,0,1.259-1.283,25.13,25.13,0,0,1,2.9-3.263c.466-.431,1.057-.739,1.481-1.2.4-.435.577-1.068.979-1.5a5.207,5.207,0,0,1,2.589-1.827c.016,0,.031-.02.046-.025a.085.085,0,0,0,.014-.011,3.368,3.368,0,0,0,.693-.715,34.317,34.317,0,0,1,2.685-2.709,4.262,4.262,0,0,0,.373-.6c.09-.2.191-.385.292-.572l.007-.008c.4-.715,1.178-1.1,1.512-1.89s1.14-1.149,1.713-1.726c.695-.7,1.434-1.35,2.159-2.018q.283-.263.588-.5A3.168,3.168,0,0,0,258.89,92.3c.05-.119.089-.245.149-.357a7.415,7.415,0,0,0,.6-1.13,6.868,6.868,0,0,0,.177-1.286,4.9,4.9,0,0,1,1.69.956,3.7,3.7,0,0,0,1.244-.923c.114-.268.232-.534.318-.809.19-.055.4-.121.619-.178a26.624,26.624,0,0,1,4.043-3.708,5.862,5.862,0,0,0,.818-.826c.807-.9,1.605-1.808,2.409-2.71.021-.08.053-.154.07-.237a3.675,3.675,0,0,1,1.134-1.939c.381-.059.733-.108,1.083-.171.26-.247.493-.517.763-.758a25.085,25.085,0,0,0,2.916-3.391,3.641,3.641,0,0,1,.908-.928,11.171,11.171,0,0,0,1.437-1.074,3.752,3.752,0,0,1,.887-.933c.062-.043.108-.1.165-.144.041-.047.091-.084.13-.132a5.33,5.33,0,0,1,.662-.647c.1-.12.2-.235.3-.36a25.3,25.3,0,0,1,2.9-3.264c.466-.431,1.057-.738,1.482-1.2.4-.434.577-1.068.979-1.5a5.21,5.21,0,0,1,2.588-1.828c.029-.006.056-.033.084-.043a13.418,13.418,0,0,1,2.415-2.361c.047-.048.081-.108.124-.158a12.389,12.389,0,0,0-2.293.065,6.47,6.47,0,0,0-1.3.228,4.745,4.745,0,0,1-1.626.081c-1.421.019-2.851-.371-4.268.07a1.832,1.832,0,0,1-.824.036c-1.311-.223-2.632-.319-3.955-.438a20.087,20.087,0,0,0-2.816-.08c-.384.019-.772-.025-1.159-.04-.219-.008-.512-.113-.645-.01-.9.7-1.908.309-2.877.358-.71.036-1.41.345-2.113.345s-1.318-.433-2.067-.487a12.532,12.532,0,0,0-4.283.147,3.127,3.127,0,0,1-1.471-.142,3.249,3.249,0,0,0-1.95.07,2.687,2.687,0,0,1-2.262-.074c-.142-.079-.344-.2-.458-.155-1.148.463-2.3-.12-3.458.045a5.328,5.328,0,0,1-2.478-.062.3.3,0,0,0-.165-.017,10.473,10.473,0,0,1-3.759.187c-.928.441-1.992-.145-2.917.387a.541.541,0,0,1-.473-.061,3.363,3.363,0,0,0-2.253-.359,4.849,4.849,0,0,1-1.156-.074,3.488,3.488,0,0,0-1.8.09,3.883,3.883,0,0,1-1.46.126,12.211,12.211,0,0,0-2.953-.121,12.806,12.806,0,0,1-3.136-.112,6.365,6.365,0,0,0-1.786.087c-1.517.236-3.042.516-4.524-.392a3.442,3.442,0,0,0-2.61,0,9.873,9.873,0,0,1-3.942.339,1.42,1.42,0,0,0-.649.082,3.582,3.582,0,0,1-1.8.023c-.983-.146-1.981-.194-2.973-.248-.44-.024-.886.065-1.329.061-.773-.007-1.545-.048-2.317-.069a2.023,2.023,0,0,0-.817.02,4.183,4.183,0,0,1-2.609.113,5.8,5.8,0,0,0-1.327.032,13.757,13.757,0,0,1-3.648-.045,8.092,8.092,0,0,0-1.328.014,9.255,9.255,0,0,1-1.805-.181,8.294,8.294,0,0,0-2.639-.208c-2.77.181-5.542.357-8.315.5-.768.039-1.543-.059-2.314-.081-.5-.015-1-.025-1.5-.006a12.112,12.112,0,0,1-3.479-.064,3.364,3.364,0,0,0-1,.017,33.447,33.447,0,0,1-4.78-.023c-.6-.048-1.219.073-1.829.074-.661,0-1.322-.05-1.984-.08a2,2,0,0,0-.657-.033c-1.371.448-2.73.066-4.094-.01a10.354,10.354,0,0,0-3.792.28,1.444,1.444,0,0,1-1.129-.018,2.861,2.861,0,0,0-.706-.227c-.054.031-.095.071-.154.1a7.76,7.76,0,0,0-1.148.692,5.562,5.562,0,0,0-1.648-.794l-.133,0a6.5,6.5,0,0,1-.118,1.241,7.488,7.488,0,0,1-.55,1.157c-.054.116-.087.242-.131.364a3.181,3.181,0,0,1-.952,1.357c-.2.168-.386.344-.565.527-.692.7-1.4,1.387-2.062,2.116-.545.6-1.341,1.014-1.633,1.8-.3.808-1.071,1.228-1.429,1.967-.093.192-.185.386-.267.585a4.949,4.949,0,0,1-1.177,1.672,12.1,12.1,0,0,0-1.771,2.006,1.345,1.345,0,0,1-.67.553,5.23,5.23,0,0,0-2.5,1.945c-.379.448-.531,1.088-.906,1.542-.4.482-.979.817-1.425,1.269a25.144,25.144,0,0,0-2.742,3.394,5.664,5.664,0,0,1-1.2,1.34,4.359,4.359,0,0,0-1.107,1.384,16.431,16.431,0,0,1-1.726,2.414,7.038,7.038,0,0,0-.8,1.145,4.443,4.443,0,0,1-2.725,2.406c-.415.108-.837.174-1.294.267a3.646,3.646,0,0,0-1.044,1.989,3.626,3.626,0,0,1-1.489,2.477,8.557,8.557,0,0,0-1.968,2.2c-.364.518-.625,1.147-1.288,1.4a.3.3,0,0,0-.157.185c-.256.982-1.042,1.267-1.9,1.484-.282.071-.555.185-.8.27a10.077,10.077,0,0,1-1.378,3.092,2.338,2.338,0,0,1-.866.731,4.959,4.959,0,0,0-2.579,2.389c-.413.741-.815,1.491-1.29,2.193-.767,1.136-1.583,2.241-2.379,3.358-.055.076-.106.152-.161.228a1.143,1.143,0,0,1-.92.619c-.5.008-.755.366-.972.747a5.632,5.632,0,0,0-.253.592,3.039,3.039,0,0,1-1.3,1.547c-.8.455-1.209,1.326-1.925,1.875a1.4,1.4,0,0,1-.9,1.008.5.5,0,0,0-.21.306,3.277,3.277,0,0,1-.929,1.2c-.79.857-1.956,1.425-2.2,2.726-.012.069-.115.122-.173.183-.893.927-1.537,2.057-2.5,2.943a27.647,27.647,0,0,0-2.025,2.324,2.21,2.21,0,0,1-.494.414,4,4,0,0,0-1.734,2.179l-.915.231a6.837,6.837,0,0,1-.726,1.16c-.832.864-1.714,1.678-2.571,2.518a1.872,1.872,0,0,0-.654,1.221,1.021,1.021,0,0,1-.224.577c-.454.511-.953.985-1.421,1.486a2.053,2.053,0,0,0-.531.712,2.158,2.158,0,0,1-.885,1.077,7.088,7.088,0,0,0-1.45,1.633c-.367.531-.738,1.059-1.129,1.574a1.9,1.9,0,0,1-.62.636,1.87,1.87,0,0,0-.841.9c-.4.655-.91,1.243-1.373,1.859-.787.207-1.122.893-1.566,1.467a2.222,2.222,0,0,1-.622.643,5.24,5.24,0,0,0-2.12,2.322c-.483.909-1.508,1.413-1.831,2.448-.032.1-.189.183-.307.219a2.351,2.351,0,0,0-1.307,1.359c-.528,1-1.4,1.727-1.99,2.674a.558.558,0,0,1-.3.234c-.688.193-1.006.77-1.385,1.292a5.543,5.543,0,0,1-1.547,1.712c-.095.056-.176.125-.268.182.027.263.04.526.074.789a40.839,40.839,0,0,1-.194,4.11c-.018.028-.02.057-.038.087.162.013.325.034.487.05.126.013.28.068.381.021a2.454,2.454,0,0,1,2.1.229,5.582,5.582,0,0,0,2.3.2,2.729,2.729,0,0,1,1.865.325.569.569,0,0,0,.367.1c1.11-.1,2.217.155,3.331-.026a2.371,2.371,0,0,1,1.877.223.487.487,0,0,0,.358.111c1.02-.365,2.042.149,3.056-.015a5.229,5.229,0,0,1,3.133.293,2.272,2.272,0,0,0,.888.108,3.149,3.149,0,0,1,2.113.362c.771,0,1.546.052,2.311-.025a1.875,1.875,0,0,1,1.23.127,1.881,1.881,0,0,0,.878.111c.646,0,1.293-.021,1.937-.048a7.067,7.067,0,0,1,2.177.17,2.156,2.156,0,0,0,1.393.056,2.077,2.077,0,0,1,.889,0c.681.07,1.357.182,2.042.237a1.023,1.023,0,0,0,.594-.17,1.874,1.874,0,0,1,1.369-.214c1.186.176,2.368.39,3.559.531a6.929,6.929,0,0,0,1.363-.119l.736.589a3.541,3.541,0,0,1,.523-.08,4.064,4.064,0,0,1,2.262.151,2.292,2.292,0,0,0,.627.142,28.54,28.54,0,0,1,3.076.213c.1.018.2.008.3.021,1.187.164,2.377.057,3.558.2.087.01.188.059.253.029,1.184-.588,2.342,0,3.5.111a3.268,3.268,0,0,0,1.52.016.494.494,0,0,1,.37-.017,1.4,1.4,0,0,0,1.348.11,18.866,18.866,0,0,1,2.658.4,3.034,3.034,0,0,0,2.019.108,6.065,6.065,0,0,1,.625-.155,1.157,1.157,0,0,1,1.184.325,1.142,1.142,0,0,0,1.049.36c1.463-.045,2.929-.059,4.391-.137.764-.04,1.524-.159,2.284-.266.082-.011.162-.017.244-.028a4.957,4.957,0,0,1,3.461.617,2.329,2.329,0,0,0,1.1.249,10.157,10.157,0,0,0,3.3-.766c.214.145.471.292.7.475a2.164,2.164,0,0,0,2.326.617.306.306,0,0,1,.243.014,3.085,3.085,0,0,0,1.894.183,8.663,8.663,0,0,1,2.943.242,3.632,3.632,0,0,0,2.873-.305,3.671,3.671,0,0,1,2.217-.369c.35.31.658.608.993.872a4.437,4.437,0,0,0,3.563.721,7.149,7.149,0,0,1,1.4-.053,16.318,16.318,0,0,0,2.966-.08,4.356,4.356,0,0,1,1.772.049,5.7,5.7,0,0,0,1.791.148c.527-.022,1.054-.019,1.58-.018l1.073-.894A20.267,20.267,0,0,0,179.279,172.955Z"/><path class="cls-2" d="M167.032,151.924a77.959,77.959,0,0,1-11.926-.936c-15.16-2.35-23.139-8.012-22.469-15.943a.726.726,0,0,0-.612-.78l-.847-.135a.727.727,0,0,0-.662.24l-8.271,9.474-16.855-2.617-.124-14.792,41.81-32.1a.828.828,0,0,0,.106-.1c1.065-1.222,2.138-2.518,3.175-3.77,4.1-4.95,8.337-10.068,13.83-12.882a49.108,49.108,0,0,0,9.741-6.786c4.114-3.461,7.363-6.2,14.448-6.2a38.474,38.474,0,0,1,5.88.5c11.225,1.743,28.228,10.229,36.466,16.755a.728.728,0,0,0,1.18-.534l4.238-4.237v13.97a.617.617,0,0,0-.04.2c-.067,3.781-1.8,7.853-5.14,12.107l-16.678-2.589-.127-12.7a.73.73,0,0,0-.276-.564c-2.595-2.055-6.675-3.527-12.125-4.374a46.608,46.608,0,0,0-7.111-.556c-11.424,0-21.917,4.517-28.787,12.392-.635.728-1.065,1.289-.8,1.875a.93.93,0,0,0,.927.524,8.57,8.57,0,0,0,1.608-.284,27.487,27.487,0,0,1,6.37-.83,21.059,21.059,0,0,1,6.259.944L196.9,103.4c1.966.616,2.792,3.029,3.59,5.362.715,2.09,1.39,4.063,2.9,4.837a.729.729,0,0,0,1.061-.668l-.091-3.3h8.437v14.363c.292,3.574-1.544,7.55-5.613,12.214-8.725,9.988-23.358,15.717-40.148,15.717M156.308,106.3a.726.726,0,0,0-.548.249l-6.174,7.07c-5.655,6.486-7.63,10.453-6.6,13.27,1.308,3.584,6.973,4.628,16.875,6.164.724.112,1.62.274,2.583.448a49.823,49.823,0,0,0,7.179.982c9.68-.018,14.092-.027,18.757-5.367,2.739-3.141,4.392-5.037,3.867-6.887-.566-1.993-3.6-3.241-10.194-5.286l-17.477-5.436c-4.581-1.388-7.124-2.955-7.559-4.66a.731.731,0,0,0-.538-.528.74.74,0,0,0-.168-.019"/><path class="cls-2" d="M188.377,65.333a38.192,38.192,0,0,1,5.767.5c11.114,1.726,27.959,10.137,36.126,16.607a1.456,1.456,0,0,0,2.307-.751l2.834-2.834V90.942a1.472,1.472,0,0,0-.039.312c-.062,3.521-1.651,7.331-4.724,11.335L215,100.161l-.12-12.087a1.464,1.464,0,0,0-.553-1.128c-2.694-2.135-6.888-3.656-12.466-4.523a47.433,47.433,0,0,0-7.222-.564c-11.635,0-22.328,4.607-29.335,12.641-.589.674-1.394,1.6-.913,2.655a1.666,1.666,0,0,0,1.59.951,8.742,8.742,0,0,0,1.77-.3,26.834,26.834,0,0,1,6.208-.811,20.355,20.355,0,0,1,6.006.9l16.673,6.186c.023.009.047.017.071.024,1.578.494,2.343,2.729,3.083,4.891.764,2.232,1.485,4.342,3.257,5.249a1.466,1.466,0,0,0,.666.161,1.459,1.459,0,0,0,1.456-1.5l-.07-2.548h6.96v13.636c0,.04,0,.08,0,.12.273,3.307-1.506,7.1-5.437,11.614-8.587,9.83-23.021,15.467-39.6,15.467a77.265,77.265,0,0,1-11.814-.927c-19.871-3.08-22.222-10.821-21.855-15.162a1.458,1.458,0,0,0-1.223-1.561l-.848-.135a1.592,1.592,0,0,0-.228-.018,1.457,1.457,0,0,0-1.1.5l-8.005,9.172-15.848-2.46L106,126.791l41.521-31.877a1.414,1.414,0,0,0,.211-.2c1.071-1.228,2.146-2.528,3.187-3.784,4.053-4.892,8.243-9.953,13.6-12.7a49.759,49.759,0,0,0,9.879-6.877c4.156-3.5,7.159-6.024,13.979-6.023M169.619,135.21h.019c9.891-.018,14.406-.027,19.29-5.616,2.8-3.213,4.65-5.335,4.016-7.566-.662-2.331-3.69-3.614-10.677-5.781l-17.488-5.44c-5.376-1.628-6.806-3.15-7.06-4.141a1.457,1.457,0,0,0-1.074-1.056,1.435,1.435,0,0,0-.337-.039,1.454,1.454,0,0,0-1.1.5l-6.174,7.071c-5.932,6.8-7.884,10.856-6.738,14,1.448,3.971,7.274,5.057,17.447,6.635.712.11,1.614.273,2.57.446a50.193,50.193,0,0,0,7.3.992m18.758-71.334c-11.818,0-13.365,7.343-24.522,13.061-7.059,3.617-12,10.838-17.224,16.821l-42.1,32.32.133,15.775,17.863,2.772,8.534-9.776.847.135c-.726,8.592,7.98,14.383,23.083,16.723a78.458,78.458,0,0,0,12.038.945c17.145,0,31.931-5.931,40.7-15.966,4.1-4.7,6.1-8.907,5.793-12.692V108.9h-9.914l.112,4.045c-2.818-1.443-2.47-8.951-6.571-10.234l-16.71-6.2a21.694,21.694,0,0,0-6.475-.977c-4.113,0-7.09,1.113-7.978,1.113-.459,0-.362-.3.421-1.191,6.482-7.433,16.524-12.143,28.237-12.143a45.809,45.809,0,0,1,7,.547c5.5.855,9.373,2.316,11.785,4.227l.129,13.09c-.051.069-.1.138-.153.208l17.864,2.773c3.593-4.472,5.49-8.854,5.561-12.88l.04-.026V75.333l-5.7,5.7.012.255c-8.473-6.711-25.708-15.181-36.807-16.9a39.287,39.287,0,0,0-5.991-.512m-18.758,69.878c-2.35,0-7.075-1.022-9.65-1.422-16.16-2.507-22.418-3.806-9.835-18.234l6.174-7.071c.547,2.138,3.459,3.784,8.049,5.174l17.478,5.436c12.159,3.772,11.5,4.688,6,11-4.442,5.083-8.543,5.1-18.2,5.118Z"/><path class="cls-3" d="M167.032,135.945a77.735,77.735,0,0,1-11.87-.932c-8.655-1.342-23.042-5.146-22.162-15.553a1.093,1.093,0,0,0-.918-1.171l-.847-.134a1.1,1.1,0,0,0-.994.36l-8.139,9.322-15.309-2.376,40.663-46.6c12.241-14.036,29.436-21.455,49.725-21.455A90.038,90.038,0,0,1,210.925,58.5c13.283,2.063,21.608,6.516,24.076,12.879,1.794,4.626.343,10.144-4.2,15.989L215.3,84.96c2.251-3.522,2.845-6.824,1.712-9.622-1.664-4.113-6.78-6.862-15.2-8.17a46.961,46.961,0,0,0-7.167-.561c-11.529,0-22.122,4.563-29.062,12.518-.924,1.059-1.931,2.469-1.5,3.986.608,2.149,3.771,3.463,10.629,5.6l18.334,5.582c11.475,3.591,17.735,7.735,19.129,12.67,1.056,3.739-.668,8.12-5.266,13.392-8.655,9.909-23.188,15.593-39.873,15.593M156.308,90.319a1.09,1.09,0,0,0-.823.374l-6.173,7.071c-7.245,8.306-7.262,14.169-6,17.625,1.924,5.271,8.158,8.978,17.555,10.435a49.08,49.08,0,0,0,7.479.6c9.608,0,17.612-3.106,22.54-8.745,2.794-3.207,3.8-6.011,3.073-8.573-.936-3.294-4.795-5.951-11.8-8.124l-17.477-5.436c-4.454-1.349-6.913-2.829-7.315-4.4a1.091,1.091,0,0,0-.8-.792,1.108,1.108,0,0,0-.254-.03"/><path class="cls-3" d="M197.182,58.5a88.877,88.877,0,0,1,13.576,1.079c12.691,1.97,20.94,6.3,23.225,12.195,1.969,5.081-.72,10.484-3.653,14.413l-13.277-2.06c2.151-4.075,1.79-7.179.973-9.2-1.819-4.494-7.219-7.468-16.05-8.841a48.1,48.1,0,0,0-7.333-.572c-11.845,0-22.737,4.7-29.884,12.891-.649.744-2.377,2.722-1.731,5,.75,2.654,3.962,4.043,11.368,6.347l18.311,5.576c10.95,3.425,17.144,7.438,18.412,11.926.947,3.356-.7,7.405-5.036,12.376-8.448,9.672-22.681,15.219-39.051,15.219a76.462,76.462,0,0,1-11.7-.92c-19.287-2.989-21.586-10.292-21.24-14.379a2.187,2.187,0,0,0-1.835-2.343l-.847-.134a2.1,2.1,0,0,0-.343-.027,2.183,2.183,0,0,0-1.646.748l-7.742,8.869-12.756-1.98,39.359-45.108c12.028-13.789,28.938-21.079,48.9-21.079m-28.837,69.014c9.926,0,18.223-3.239,23.363-9.121,3.056-3.506,4.136-6.642,3.3-9.587-1.058-3.729-5.038-6.548-12.523-8.869L164.99,94.5c-5.671-1.718-6.459-3.208-6.565-3.625a2.186,2.186,0,0,0-3.764-.9l-6.174,7.072c-4.192,4.806-8.67,11.954-6.2,18.718,2.066,5.662,8.605,9.618,18.413,11.14a50.132,50.132,0,0,0,7.648.609m28.837-71.2c-21,0-38.444,7.949-50.551,21.829l-41.964,48.094,17.863,2.773,8.534-9.776.847.135c-.726,8.592,7.98,14.382,23.083,16.723a78.468,78.468,0,0,0,12.038.945c17.144,0,31.932-5.932,40.7-15.966,10.622-12.178,7.258-21.061-14.368-27.826l-18.328-5.581c-9.873-3.071-11.642-4.368-8.626-7.821C172.889,72.41,182.929,67.7,194.643,67.7a45.8,45.8,0,0,1,7,.547c15.1,2.346,18,9.279,11.761,17.523l17.864,2.774c11.221-13.96,5.992-27.063-20.174-31.125a90.724,90.724,0,0,0-13.911-1.1m-28.837,69.014a47.686,47.686,0,0,1-7.313-.584c-16.161-2.506-23.481-11.834-10.9-26.261l6.174-7.072c.547,2.137,3.459,3.785,8.049,5.175l17.478,5.436c12.159,3.772,13.727,8.623,8.225,14.935-4.454,5.1-12.024,8.371-21.715,8.371"/><path class="cls-3" d="M26.4,145.857c-.171-.664-.3-1.181-.457-1.766l1.723-.415c.954-1.19,1.879-2.371,2.818-3.53a10,10,0,0,1-.784-.85c-.219-.267-.708-.3-1-.529-.356-.289-.861-.647-.907-1.024-.188-1.579-1.187-2.258-2.544-2.722a1.247,1.247,0,0,1-.292-.194,2.166,2.166,0,0,0-.26.158,6.831,6.831,0,0,0-1.481,1.322c-.735,1.154-2.695,1.239-2.643,3.063,0,.095-.3.214-.47.3-.5.24-1.009.484-1.533.733.23.347.449.7.7,1.032a4.082,4.082,0,0,0,2.765,1.807,3.8,3.8,0,0,1,2.852,2.216,5.451,5.451,0,0,0,.584.988c.024-.009.042-.024.067-.032A4.258,4.258,0,0,0,26.4,145.857Z"/><path class="cls-3" d="M151.818,31.344a4.43,4.43,0,0,1-1.9-2.725,2.013,2.013,0,0,0-1.394-1.282,6.521,6.521,0,0,1-4.246-2.616c-.219-.266-.707-.3-1-.529-.357-.289-.862-.647-.907-1.023a2.758,2.758,0,0,0-1.258-2.08,5.332,5.332,0,0,0-1.286-.643,3.622,3.622,0,0,1-1.01-.8,14.206,14.206,0,0,0-.31-2.13,1.781,1.781,0,0,0-.782-1.113c-1.691-.6-2.593-2.233-4.12-3.034a2.041,2.041,0,0,1-.343-.255,1.226,1.226,0,0,1-.427-.564c-.527-2.017-2.347-3.208-3.013-5.125L127.39,8.2c-.341-.268-.636-.4-.778-.629a3.072,3.072,0,0,0-2.879-1.543,2,2,0,0,1-1.487-.679,7.9,7.9,0,0,0-3.721-2.562c-.031-.14-.059-.273-.089-.41a9.842,9.842,0,0,0-.868,1.474,2.987,2.987,0,0,1-2.94,1.93A1.433,1.433,0,0,0,113.082,6.8a6.359,6.359,0,0,1-1.771,3.065,6.314,6.314,0,0,1,.813,1.51c.927-.293,1.71-.543,2.435-.774.342.269.636.4.777.629a3.071,3.071,0,0,0,2.879,1.543,2,2,0,0,1,1.487.679,7.9,7.9,0,0,0,3.721,2.562l.713,3.261a2.785,2.785,0,0,1,2.11.754,10.054,10.054,0,0,0-2.7,3.174c-2.48,3.647-4.911,7.336-8.59,9.953a1.693,1.693,0,0,0-.692.869c-.246,1.182-1.218,1.678-2.036,2.31-.764.591-1.591,1.115-1.77,2.162a3.593,3.593,0,0,1-1.94,2.34c-1.333.9-2.659,1.822-3.205,3.515a3.191,3.191,0,0,1-2.27,2.058,5.048,5.048,0,0,0-2.919,2.6,24.935,24.935,0,0,0-1.212,2.38c-1.543-.034-2.422,1.276-3.662,1.931a2.1,2.1,0,0,0-.986,1.621c.2,1.826-.935,2.308-2.3,2.716a2.923,2.923,0,0,0-.7.447c-.419,2.25-.422,2.246-2,3.927a4.825,4.825,0,0,0-.693.9,10.92,10.92,0,0,1-5.851,5.2,4.211,4.211,0,0,0-.855.552c.171.664.305,1.181.457,1.765l-1.722.416c-1.523,1.9-2.935,3.813-4.527,5.566a4.422,4.422,0,0,1-2.725,1.9,2.015,2.015,0,0,0-1.282,1.394,6.516,6.516,0,0,1-2.615,4.247c-.267.219-.3.707-.529,1-.289.357-.647.862-1.024.907-1.579.189-2.258,1.188-2.722,2.544-.141.415-.574.731-.8,1.01a14.359,14.359,0,0,0-2.131.309c-.422.127-.986.426-1.113.782-.6,1.692-2.233,2.594-3.034,4.12a1.571,1.571,0,0,1-.819.771c-2.016.527-3.208,2.346-5.125,3.013.3.927.543,1.709.774,2.434-.268.341-.4.636-.628.778a3.068,3.068,0,0,0-1.543,2.879,2,2,0,0,1-.68,1.487,7.9,7.9,0,0,0-2.562,3.721l-3.261.712a2.783,2.783,0,0,1-.819,2.194,13.683,13.683,0,0,0-1.3,2.406c-.589.964-1.271,1.871-1.913,2.8-1.163.747-2.423,1.447-3.552,2.316a4.073,4.073,0,0,0-1.806,2.764,3.81,3.81,0,0,1-2.216,2.854,5.246,5.246,0,0,0-2.9,3.377,4.268,4.268,0,0,1-2.394,2.678c-1.127.549-.739,2.422-2.169,2.869a1.151,1.151,0,0,0-.23.14c-.271-.191-.512-.44-.717-.609a14.22,14.22,0,0,0-.31-2.131,1.785,1.785,0,0,0-.782-1.113c-1.691-.6-2.594-2.233-4.12-3.034a1.571,1.571,0,0,1-.771-.819c-.527-2.016-2.346-3.208-3.013-5.125l-2.433.774c-.342-.268-.637-.4-.779-.628A3.068,3.068,0,0,0,9.158,120.6c-.025,0-.056-.009-.082-.01-.261.267-.51.545-.752.812-1.592,1.753-3,3.669-4.526,5.566l-1.128.272a3.919,3.919,0,0,0,.971.109,2,2,0,0,1,1.487.68,7.89,7.89,0,0,0,3.72,2.562c.24,1.1.461,2.1.714,3.261a2.782,2.782,0,0,1,2.194.82,13.7,13.7,0,0,0,2.4,1.3c.964.589,1.872,1.272,2.8,1.913.528.822,1.053,1.681,1.611,2.52.23.347.449.7.7,1.032a4.082,4.082,0,0,0,2.765,1.807,3.8,3.8,0,0,1,2.852,2.216,5.451,5.451,0,0,0,.584.988,5.39,5.39,0,0,0,2.795,1.915,4.271,4.271,0,0,1,2.677,2.394c.55,1.125,2.422.738,2.87,2.169a1.5,1.5,0,0,0,.3.49,6.8,6.8,0,0,0,1.322,1.48c1.155.736,1.24,2.7,3.064,2.644.094,0,.213.3.3.469.121.253.247.519.369.775l.034-.016c.171-.083.472-.2.47-.3-.053-1.824,1.908-1.909,2.643-3.063a6.852,6.852,0,0,1,1.48-1.323,1.545,1.545,0,0,1,.491-.3,1.914,1.914,0,0,0,1.18-1.351,6.741,6.741,0,0,0-.477-.722l-1.765.457c-.169-.7-.3-1.247-.416-1.722-1.9-1.523-3.813-2.935-5.566-4.527a4.42,4.42,0,0,1-1.9-2.725,2.015,2.015,0,0,0-1.394-1.282,6.038,6.038,0,0,1-3.462-1.765c.558-.69,1.113-1.382,1.708-2.036.718-.791,1.406-1.745,2.726-1.9a2.016,2.016,0,0,0,1.281-1.394,6.516,6.516,0,0,1,2.615-4.247c.267-.219.3-.708.529-1,.289-.357.647-.862,1.023-.907,1.58-.189,2.26-1.188,2.723-2.545.141-.415.574-.731.8-1.009a14.359,14.359,0,0,0,2.131-.309,1.789,1.789,0,0,0,1.113-.782c.6-1.692,2.234-2.593,3.034-4.12a1.57,1.57,0,0,1,.82-.771c2.015-.528,3.206-2.346,5.124-3.012-.294-.928-.543-1.71-.774-2.435.268-.342.4-.637.628-.778a3.069,3.069,0,0,0,1.543-2.878,2,2,0,0,1,.68-1.488,7.881,7.881,0,0,0,2.561-3.72l3.262-.713a2.784,2.784,0,0,1,.82-2.195,13.7,13.7,0,0,0,1.3-2.405c.589-.964,1.271-1.871,1.913-2.8,1.163-.747,2.423-1.448,3.552-2.316A4.08,4.08,0,0,0,73.4,91.621a3.8,3.8,0,0,1,2.216-2.852,5.246,5.246,0,0,0,2.9-3.379,4.274,4.274,0,0,1,2.394-2.677c1.126-.55.739-2.422,2.169-2.869a1.523,1.523,0,0,0,.491-.3,6.829,6.829,0,0,0,1.48-1.323c.736-1.154,2.7-1.239,2.644-3.063,0-.095.3-.214.469-.3,1.183-.569,2.37-1.131,3.868-1.844a5.015,5.015,0,0,0,1.249-3.059c.006-.74.486-1.158.987-1.649,2.044-2,4.427-3.675,6.042-6.1a1.812,1.812,0,0,1,2.038-.686c.916.162,1.792.738,2.763.309.091-.187.252-.358.239-.516a6.281,6.281,0,0,1,1.423-4.544,3.925,3.925,0,0,0,.967-2.034,4.027,4.027,0,0,1,2.631-3.769A3.907,3.907,0,0,0,112.4,48.7a3.526,3.526,0,0,1,1.286-1.824,5.671,5.671,0,0,0,2.583-2.97,4.172,4.172,0,0,1,1.939-2.343,1.3,1.3,0,0,0,.654-.856c.348-2.574,2.043-3.444,4.368-3.562.848-.043,1.7-.074,2.3-.1a12.24,12.24,0,0,1,1.458-1.241c.9-.536,1.864-.959,2.772-1.481.487-.281,1.2-.588,1.318-1.021.621-2.217,3.11-3.366,3.379-5.754a3.653,3.653,0,0,0,2.163,1.117,3.806,3.806,0,0,1,2.852,2.217,5.251,5.251,0,0,0,3.379,2.9,4.277,4.277,0,0,1,2.677,2.394c.3.619,1,.784,1.647,1.043a2.961,2.961,0,0,1,1.466-1.877,18.928,18.928,0,0,0,3.953-3.348C152.338,31.775,152.068,31.57,151.818,31.344Z"/><path class="cls-2" d="M235.383,58.14c-.487.052-.974.107-1.462.138-.176.011-.347-.025-.521-.023.032.006.061,0,.092.009A3.687,3.687,0,0,0,235.383,58.14Z"/></g><g id="solo_testo" data-name="solo testo"><path class="cls-3" d="M40.467,63.446c3.594,3.493,6.207,9.068,2.609,15.319L40.1,77.187c2.648-4.738.611-8.315-2.575-11.531.134,3.685.646,9.7.845,12.366l-2.822.932c-1.259-3.02-7.062-13.492-9.6-17.913l3.439-1.73C31.2,62.748,34.09,68.035,35.747,72a41.442,41.442,0,0,1-.521-9.453c.747-.193,1.8-.533,3.086-.956A19.642,19.642,0,0,1,40.467,63.446Z"/><path class="cls-3" d="M50.906,52.7c3.739,3.633,5.286,9.81,1.832,14.682-1.269.524-2.479,1.027-3.647,1.449a16.742,16.742,0,0,1-3.256-2.444c-4.253-4.132-5.029-10.2-.9-14.453a12.7,12.7,0,0,1,1.341-1.174l2.533,1.463.8-.619A11.3,11.3,0,0,1,50.906,52.7Zm-2.628,1.88c-.225-.219-.451-.438-.677-.618-2.749,3.2-2.027,7.019,1.385,10.334a13.442,13.442,0,0,0,1.824,1.492C53.267,61.947,50.888,57.12,48.278,54.583Z"/><path class="cls-3" d="M57.1,30.918c2.3,4.952,6.515,14.959,10.952,20.588L65.1,53.514a57.552,57.552,0,0,1-3.518-5.258,55.436,55.436,0,0,1,.291,8.991c-.727.172-1.955.737-3.2,1.16a18.209,18.209,0,0,1-2.01-1.673c-3.78-3.673-5.316-9-1.977-14.983l3.043,1.719c-2.09,4.041-1.8,7.4,1.922,11.135,0-2.958-.086-7.393-.207-10.188-1.646-3.156-3.38-6.839-5.718-11.627Z"/><path class="cls-3" d="M72.347,26.649c1.9,5.362,7.239,15.941,9.36,19.76l-3.035,1.725c-1.619-2.773-3.732-7.422-5.761-11.87a52.139,52.139,0,0,1,.028,10.373L69.758,48.02c-2.683-4.8-5.036-9.248-7.583-13.081l3.089-2.152c1.761,2.751,3.611,6.027,5.528,9.687a47.567,47.567,0,0,0-1.7-14.279Z"/></g></svg>