<svg xmlns="http://www.w3.org/2000/svg" viewBox="0 0 952 191.891"><defs><style>.cls-1{fill:#f36;}.cls-2{fill:#1858a8;}.cls-3{fill:#ffeded;}.cls-4{fill:#0046b7;}</style></defs><title>manuale_ill_nuove</title><g id="Livello_1" data-name="Livello 1"><path class="cls-1" d="M186.273,40.424l.173-.178a.381.381,0,0,1-.008-.138,1.657,1.657,0,0,0,.053-.579c0-.109-.017-.213-.024-.319-.011-.2-.094-.374-.105-.569a.278.278,0,0,0-.058-.161,1.458,1.458,0,0,1-.251-.676c-.034-.122-.028-.258-.068-.377a1.121,1.121,0,0,0-.26-.474,3.056,3.056,0,0,1-.33-.385.314.314,0,0,1-.039-.2.649.649,0,0,0-.161-.487.566.566,0,0,1-.121-.409.708.708,0,0,0-.08-.426.84.84,0,0,1-.033-.3l-.334-.161.045-.548.234-.2a1.155,1.155,0,0,0-.032-.32.438.438,0,0,1,0-.313,1.146,1.146,0,0,0,.039-.142,2.012,2.012,0,0,1,.2-.607.832.832,0,0,0,.085-.307,1.087,1.087,0,0,1,.2-.59,1.278,1.278,0,0,1,.169-.019.825.825,0,0,0,.442-.094.233.233,0,0,1,.1-.027,1.2,1.2,0,0,0,.542-.22,2.323,2.323,0,0,1,.206-.139,1.557,1.557,0,0,0,.573-.559.439.439,0,0,1,.2-.184.877.877,0,0,0,.181-.123c.087-.066.174-.134.285-.22.007-.026.024-.081.037-.137a.219.219,0,0,1,.127-.179.877.877,0,0,0,.437-.421,2.015,2.015,0,0,1,.545-.54c.009-.1.077-.2.05-.33.069-.193.079-.432.305-.506a.276.276,0,0,0,.193-.289.434.434,0,0,1,.314-.454c.05-.022.1-.048.158-.078l.044-.281c.09-.046.193-.1.3-.155.087-.046.177-.089.26-.144a.587.587,0,0,0,.275-.381.164.164,0,0,1,.04-.076.25.25,0,0,0,.029-.311l.182-.018a1.378,1.378,0,0,1,.03-.166.278.278,0,0,1,.062-.125.432.432,0,0,0,.156-.2.1.1,0,0,1,.055-.059c.193-.067.319-.251.5-.34.02-.1.035-.2.058-.295.014-.056.028-.131.065-.157.106-.074.116-.191.134-.316.035.011.059.018.083.027.084.031.142.02.149-.049a.475.475,0,0,1,.2-.324,1.434,1.434,0,0,0,.341-.524c.022-.054.033-.124.071-.157a2.934,2.934,0,0,0,.341-.527.735.735,0,0,1,.149-.2.478.478,0,0,0,.09-.138c.029-.048.048-.123.087-.14.119-.051.147-.162.18-.275a3.486,3.486,0,0,1,.225-.693.736.736,0,0,0,.02-.259.772.772,0,0,0,.2-.12,1.9,1.9,0,0,0,.213-.3.17.17,0,0,0-.064-.248c-.048-.025-.1-.029-.151-.056a.552.552,0,0,1-.1-.1c.1-.121.169-.249.319-.265.155-.132.311-.262.464-.4a1.921,1.921,0,0,1,.509-.378.476.476,0,0,0,.157-.113,5.044,5.044,0,0,1,.638-.486.6.6,0,0,1,.24-.126.551.551,0,0,0,.354-.246.5.5,0,0,1,.212-.156.931.931,0,0,0,.466-.333.2.2,0,0,1,.087-.065,2.392,2.392,0,0,0,.73-.535,4.069,4.069,0,0,1,.537-.437.691.691,0,0,1,.253-.091.375.375,0,0,0,.266-.181.22.22,0,0,1,.231-.116c.124.008.248.024.372.035a.951.951,0,0,0,.265.014c.245-.051.486-.124.731-.178a5.022,5.022,0,0,1,.811-.18.569.569,0,0,0,.156-.04.877.877,0,0,1,.367-.071.789.789,0,0,0,.184-.032.326.326,0,0,1,.131-.019,1.108,1.108,0,0,0,.476-.025c.034,0,.082-.018.1,0,.109.1.238.07.36.074a1.2,1.2,0,0,1,.369.065,4.77,4.77,0,0,0,.466.136.939.939,0,0,1,.338.167.249.249,0,0,1,.093.1c.08.235.261.276.451.3a.122.122,0,0,0,.027,0,.97.97,0,0,1,.644.209c-.026.05-.048.088-.066.128a.255.255,0,0,0,.034.277,3.386,3.386,0,0,0,.453.5.9.9,0,0,1,.149.164.847.847,0,0,0,.2.231c.073.046.106.147.193.193a.619.619,0,0,1,.172.183c.145.188.286.38.427.571.045.061.082.13.13.187a1.212,1.212,0,0,0,.251.263,1.033,1.033,0,0,1,.343.364.376.376,0,0,0,.154.157.626.626,0,0,1,.3.322,4.074,4.074,0,0,0,.725.943,1.139,1.139,0,0,1,.222.292,1.265,1.265,0,0,0,.138.219c.047.057.1.134.163.143.2.029.252.2.335.351a.757.757,0,0,1,.047.139c.03.1.077.173.183.189.161.024.217.191.327.31a.355.355,0,0,0,.151.42c.082.052.13.161.229.2a.061.061,0,0,1,.036.041c0,.212.224.309.2.537a.492.492,0,0,1,.336.319.5.5,0,0,0,.139.173.394.394,0,0,1,.157.327.168.168,0,0,0,.009.087,1.4,1.4,0,0,1,.14.275.6.6,0,0,0,.1.3c.024.025.053.077.045.1-.052.145.039.241.086.353a.341.341,0,0,1,.038.141.754.754,0,0,0,.119.356.414.414,0,0,0,.243.254.285.285,0,0,1,.182.3c0,.1,0,.2,0,.335.03.037.084.1.133.17a.843.843,0,0,1,.193.48.381.381,0,0,0,.084.243c.035.044.059.1.093.144a.431.431,0,0,1,.129.4c-.013.051.034.129.066.186a3.338,3.338,0,0,1,.31.689,3.423,3.423,0,0,0,.127.356.7.7,0,0,0,.21.323c.091.213.292.2.453.264.035.014.085-.017.121-.025a1.485,1.485,0,0,1,.323.744.6.6,0,0,0,.063.225,1.114,1.114,0,0,1,.1.742,1.054,1.054,0,0,0,0,.2.281.281,0,0,1-.059.247.261.261,0,0,0-.066.215.386.386,0,0,1-.048.161c-.059.143-.116.287-.183.426a.4.4,0,0,0-.031.284.862.862,0,0,1-.054.63.426.426,0,0,0-.05.342.334.334,0,0,1-.009.171c-.024.095-.061.187-.093.279a.684.684,0,0,0-.045.4.767.767,0,0,1-.03.289c-.016.1-.046.19-.06.287-.02.136-.037.274-.044.411a2.841,2.841,0,0,1-.1.642.463.463,0,0,0,.072.391c.107.168.18.362.3.521a.686.686,0,0,1,.07.191,2.6,2.6,0,0,0,.161.4.66.66,0,0,1-.13.784c-.15.17-.314.324-.465.493a.533.533,0,0,1-.254.156.431.431,0,0,0-.271.224,1.3,1.3,0,0,1-.12.159.761.761,0,0,0-.195.475.2.2,0,0,1-.03.112,2.4,2.4,0,0,1-.292.384,1.522,1.522,0,0,0-.3.336.306.306,0,0,1-.315.181.662.662,0,0,0-.609.3.816.816,0,0,1-.23.193.947.947,0,0,0-.359.425,1.447,1.447,0,0,1-.217.371,1.244,1.244,0,0,0-.344.8.934.934,0,0,0-.173.107.528.528,0,0,0-.112.161.151.151,0,0,0,.042.185c.057.047.12.085.175.124a.4.4,0,0,1-.214.536,1.856,1.856,0,0,1-.223.113l.024.273c-.128.1-.282.013-.41.074,0,.128.137.1.15.2-.079.037-.151,0-.227-.022a.256.256,0,0,0-.335.1.339.339,0,0,1-.107.087,2.739,2.739,0,0,0-.739.841,2.714,2.714,0,0,1-.32.434,1.1,1.1,0,0,0-.179.357c-.04.1-.057.209-.094.31a3.019,3.019,0,0,1-.128.291.382.382,0,0,1-.27.227.511.511,0,0,0-.343.26.34.34,0,0,1-.266.171,2.455,2.455,0,0,0-.855.227.411.411,0,0,1-.416.025.844.844,0,0,1-.451.18.683.683,0,0,0-.223.1.712.712,0,0,0-.645-.074c-.2.058-.4.1-.6.168-.135.046-.256.141-.391.186a3.666,3.666,0,0,1-.395.072.276.276,0,0,0-.163.084.6.6,0,0,1-.4.219.949.949,0,0,0-.251.093.617.617,0,0,1-.362.091c-.08-.006-.161.007-.241.006a.37.37,0,0,0-.228.072,1.182,1.182,0,0,1-.712.216,2.2,2.2,0,0,1-.667-.047.531.531,0,0,0-.187-.006,3.036,3.036,0,0,1-1.236-.216,1.83,1.83,0,0,1-.527-.211.092.092,0,0,0-.05-.021c-.282,0-.519-.206-.8-.212a1.847,1.847,0,0,1-.388-.112c-.381-.1-.771-.169-1.143-.3a2.2,2.2,0,0,0-.709-.107.255.255,0,0,1-.154-.038,1.762,1.762,0,0,0-.643-.273c-.153-.053-.311-.088-.467-.135a.53.53,0,0,0-.343,0,.322.322,0,0,1-.4-.151c-.238-.308-.493-.6-.74-.9-.163-.2-.319-.4-.485-.595-.153-.179-.319-.346-.472-.524-.1-.114-.181-.244-.278-.36-.14-.167-.287-.327-.429-.491-.1-.115-.195-.232-.293-.347a6.488,6.488,0,0,0-.557-.639,3.032,3.032,0,0,0-.622-.556.34.34,0,0,1-.109-.126c-.064-.1-.123-.216-.184-.324-.009-.017-.022-.031-.031-.048-.093-.174-.3-.2-.386-.4s-.247-.277-.391-.4a2.974,2.974,0,0,1-.477-.423,1.21,1.21,0,0,0-.122-.115,3.038,3.038,0,0,1-.471-.477,1.524,1.524,0,0,0-.257-.257c-.233-.215-.47-.426-.7-.643a2.9,2.9,0,0,1-.208-.233.243.243,0,0,1-.069-.212A.587.587,0,0,0,186.273,40.424Z"/><path class="cls-1" d="M572.707,109.132l-.2.208a.44.44,0,0,1,.01.161,1.914,1.914,0,0,0-.062.675c0,.127.02.249.027.373.014.229.11.436.124.664a.312.312,0,0,0,.067.187,1.7,1.7,0,0,1,.292.788c.04.142.033.3.08.44a1.306,1.306,0,0,0,.3.553,3.7,3.7,0,0,1,.386.449.372.372,0,0,1,.044.229.76.76,0,0,0,.189.568.666.666,0,0,1,.141.478.831.831,0,0,0,.093.5,1,1,0,0,1,.039.356l.389.188-.052.639-.273.231a1.336,1.336,0,0,0,.038.374.515.515,0,0,1,0,.365,1.391,1.391,0,0,0-.045.165,2.352,2.352,0,0,1-.237.709.942.942,0,0,0-.1.358,1.279,1.279,0,0,1-.237.689,1.688,1.688,0,0,1-.2.022.952.952,0,0,0-.516.11.277.277,0,0,1-.121.03,1.415,1.415,0,0,0-.633.258,2.645,2.645,0,0,1-.24.161,1.809,1.809,0,0,0-.668.653.519.519,0,0,1-.236.214,1.025,1.025,0,0,0-.211.144c-.1.077-.2.157-.333.257-.008.03-.028.094-.043.16a.258.258,0,0,1-.149.209,1.027,1.027,0,0,0-.51.491,2.346,2.346,0,0,1-.635.629c-.01.12-.09.239-.058.385-.081.225-.092.505-.357.59a.325.325,0,0,0-.224.338.509.509,0,0,1-.367.53c-.058.026-.113.056-.183.091l-.053.327c-.1.054-.225.117-.345.181-.1.054-.206.1-.3.168a.684.684,0,0,0-.321.444.182.182,0,0,1-.047.089.292.292,0,0,0-.033.363l-.212.022a1.863,1.863,0,0,1-.035.193.33.33,0,0,1-.073.146.506.506,0,0,0-.182.229.115.115,0,0,1-.064.069c-.225.079-.372.293-.582.4-.023.12-.041.234-.068.344-.016.065-.033.152-.076.183a.481.481,0,0,0-.156.369c-.041-.013-.069-.021-.1-.031-.1-.037-.166-.024-.174.056a.555.555,0,0,1-.238.379,1.667,1.667,0,0,0-.4.611.533.533,0,0,1-.083.183,3.354,3.354,0,0,0-.4.615.873.873,0,0,1-.175.235.552.552,0,0,0-.1.161c-.034.056-.056.143-.1.163-.14.06-.173.189-.211.321a4.088,4.088,0,0,1-.262.809.828.828,0,0,0-.023.3.89.89,0,0,0-.239.139,2.2,2.2,0,0,0-.248.355.2.2,0,0,0,.074.289c.056.029.123.034.177.066a.64.64,0,0,1,.113.121c-.115.141-.2.291-.372.309-.181.154-.363.306-.542.462a2.229,2.229,0,0,1-.594.441.551.551,0,0,0-.182.132,5.929,5.929,0,0,1-.745.567.7.7,0,0,1-.28.147.643.643,0,0,0-.413.287.581.581,0,0,1-.247.182,1.089,1.089,0,0,0-.544.389.224.224,0,0,1-.1.075,2.816,2.816,0,0,0-.853.624,4.558,4.558,0,0,1-.626.51.816.816,0,0,1-.3.107.435.435,0,0,0-.31.21.258.258,0,0,1-.269.136c-.145-.01-.289-.029-.434-.041a1.085,1.085,0,0,0-.31-.016c-.285.059-.567.144-.852.207a5.938,5.938,0,0,1-.947.211.658.658,0,0,0-.182.046,1.018,1.018,0,0,1-.428.083,1.02,1.02,0,0,0-.215.037.365.365,0,0,1-.153.022,1.311,1.311,0,0,0-.554.029c-.04.006-.1.021-.12,0-.127-.119-.277-.082-.42-.085a1.381,1.381,0,0,1-.43-.077c-.178-.063-.36-.114-.543-.159a1.09,1.09,0,0,1-.4-.195.281.281,0,0,1-.108-.117c-.094-.274-.305-.322-.527-.353a.108.108,0,0,0-.031,0,1.126,1.126,0,0,1-.751-.243c.03-.059.056-.1.077-.15a.3.3,0,0,0-.041-.322,3.832,3.832,0,0,0-.528-.586,1.1,1.1,0,0,1-.174-.192.953.953,0,0,0-.237-.269c-.084-.054-.123-.172-.225-.226a.749.749,0,0,1-.2-.213c-.168-.219-.333-.443-.5-.666-.053-.071-.1-.152-.152-.218a1.43,1.43,0,0,0-.292-.307,1.2,1.2,0,0,1-.4-.425.441.441,0,0,0-.18-.183.738.738,0,0,1-.352-.376,4.66,4.66,0,0,0-.845-1.1,1.314,1.314,0,0,1-.259-.341,1.456,1.456,0,0,0-.161-.256c-.054-.067-.121-.157-.19-.167-.228-.033-.294-.236-.391-.409a.771.771,0,0,1-.054-.162c-.036-.117-.09-.2-.214-.22-.188-.029-.254-.224-.382-.362a.414.414,0,0,0-.175-.49c-.1-.061-.153-.189-.268-.23-.018-.006-.042-.031-.042-.047,0-.248-.262-.361-.236-.626a.575.575,0,0,1-.393-.373.577.577,0,0,0-.162-.2.46.46,0,0,1-.183-.381.2.2,0,0,0-.011-.1,1.644,1.644,0,0,1-.163-.321.689.689,0,0,0-.117-.348c-.027-.03-.062-.09-.052-.118.06-.17-.045-.281-.1-.412a.406.406,0,0,1-.044-.165.879.879,0,0,0-.138-.415.483.483,0,0,0-.285-.3.332.332,0,0,1-.211-.348c0-.115,0-.23,0-.39-.034-.044-.1-.118-.155-.2a.982.982,0,0,1-.225-.56.437.437,0,0,0-.1-.283c-.041-.052-.068-.116-.108-.169a.5.5,0,0,1-.151-.463c.016-.06-.039-.152-.077-.218a3.871,3.871,0,0,1-.362-.8,3.8,3.8,0,0,0-.147-.416.818.818,0,0,0-.246-.377c-.106-.248-.34-.232-.528-.308-.041-.016-.1.02-.141.029a1.735,1.735,0,0,1-.378-.867.7.7,0,0,0-.072-.263,1.3,1.3,0,0,1-.115-.866,1.167,1.167,0,0,0,0-.236.324.324,0,0,1,.07-.287.307.307,0,0,0,.077-.251.458.458,0,0,1,.055-.189c.069-.167.136-.335.214-.5A.47.47,0,0,0,538.7,117a1,1,0,0,1,.064-.735.5.5,0,0,0,.057-.4.392.392,0,0,1,.011-.2c.029-.11.071-.217.108-.325a.792.792,0,0,0,.053-.469.9.9,0,0,1,.035-.337c.019-.112.054-.222.07-.334.023-.159.043-.32.051-.481a3.377,3.377,0,0,1,.122-.748.539.539,0,0,0-.083-.456c-.126-.2-.21-.422-.354-.609a.747.747,0,0,1-.082-.223,3.056,3.056,0,0,0-.189-.47.772.772,0,0,1,.153-.915c.174-.2.366-.378.542-.575a.618.618,0,0,1,.3-.182.5.5,0,0,0,.316-.262,1.55,1.55,0,0,1,.14-.185.9.9,0,0,0,.228-.555.233.233,0,0,1,.035-.13,2.842,2.842,0,0,1,.341-.448,1.762,1.762,0,0,0,.347-.392.358.358,0,0,1,.368-.211.772.772,0,0,0,.71-.356.946.946,0,0,1,.268-.225,1.1,1.1,0,0,0,.419-.5,1.693,1.693,0,0,1,.253-.432,1.459,1.459,0,0,0,.4-.938,1.092,1.092,0,0,0,.2-.124.666.666,0,0,0,.131-.188.178.178,0,0,0-.05-.216c-.066-.055-.14-.1-.2-.145a.468.468,0,0,1,.25-.625,2.176,2.176,0,0,1,.26-.132l-.028-.319c.149-.112.329-.014.478-.086,0-.149-.16-.111-.175-.229.092-.044.177,0,.265.026a.3.3,0,0,0,.391-.113.412.412,0,0,1,.125-.1,3.2,3.2,0,0,0,.862-.982,3.174,3.174,0,0,1,.373-.506,1.282,1.282,0,0,0,.21-.416c.046-.116.066-.244.109-.362a3.682,3.682,0,0,1,.149-.34.447.447,0,0,1,.315-.264.593.593,0,0,0,.4-.3.4.4,0,0,1,.311-.2,2.888,2.888,0,0,0,1-.265A.478.478,0,0,1,549.24,99a.977.977,0,0,1,.526-.21.8.8,0,0,0,.259-.12.834.834,0,0,0,.753.086c.231-.068.468-.116.695-.195.158-.055.3-.166.457-.218a4.384,4.384,0,0,1,.46-.084.323.323,0,0,0,.191-.1.688.688,0,0,1,.466-.255,1.127,1.127,0,0,0,.293-.109.711.711,0,0,1,.421-.106c.094.007.188-.008.282-.008a.425.425,0,0,0,.265-.083,1.383,1.383,0,0,1,.832-.252,2.574,2.574,0,0,1,.777.055.663.663,0,0,0,.218.007,3.558,3.558,0,0,1,1.443.251,2.161,2.161,0,0,1,.615.247.11.11,0,0,0,.058.024c.329,0,.605.24.937.247a2.162,2.162,0,0,1,.452.132c.445.116.9.2,1.333.352a2.552,2.552,0,0,0,.828.126.3.3,0,0,1,.18.044,2.033,2.033,0,0,0,.75.318c.179.062.363.1.544.157a.619.619,0,0,0,.4,0,.375.375,0,0,1,.462.176c.278.359.576.7.863,1.049.19.23.372.468.566.694.179.209.372.4.551.611.115.133.211.285.324.42.163.195.334.382.5.573.115.134.227.27.342.405a7.531,7.531,0,0,0,.649.745,3.568,3.568,0,0,0,.726.649.406.406,0,0,1,.127.146c.075.124.143.253.215.379.011.019.026.036.036.056.108.2.355.234.45.463s.289.324.456.461a3.409,3.409,0,0,1,.556.493,1.521,1.521,0,0,0,.143.135,3.44,3.44,0,0,1,.549.556,1.818,1.818,0,0,0,.3.3c.272.251.547.5.818.75.087.082.162.18.242.271a.285.285,0,0,1,.08.248C572.624,108.956,572.675,109.033,572.707,109.132Z"/><path class="cls-1" d="M656.319,53.544a.755.755,0,0,0-.243-.13,9.458,9.458,0,0,0-1.089-.1,1.61,1.61,0,0,1-.945-.233.574.574,0,0,0-.156.081c-.186.232-.217.25-.521.191-.413-.079-.822-.168-1.252-.257a2.107,2.107,0,0,1-1.323,0c-.149-.3-.563-.464-.953-.641a1.572,1.572,0,0,0-.356-.094c-.313-.056-.627-.116-.947-.152a.849.849,0,0,1-.7-.394,1.57,1.57,0,0,0-.386-.484c-.117-.094-.142-.235-.228-.348-.114-.151-.241-.3-.373-.442-.055-.06-.178-.1-.2-.162-.118-.288-.5-.369-.843-.481-.1-.031-.2-.048-.3-.078-.145-.044-.258-.112-.277-.22-.036-.21-.256-.354-.424-.516-.108-.106-.224-.209-.322-.318a.492.492,0,0,1-.112-.572c.05-.108.068-.223.124-.329a.724.724,0,0,0,.034-.628,1.683,1.683,0,0,1-.018-1.05,1.231,1.231,0,0,0-.224-1.2,1.94,1.94,0,0,1-.248-.566c-.035-.08-.044-.183-.125-.233-.262-.16-.35-.39-.574-.559a.413.413,0,0,1-.186-.513,1.236,1.236,0,0,0,.009-.88.945.945,0,0,1,0-.506,4.424,4.424,0,0,0,0-1.772,2.959,2.959,0,0,1,.025-.929.876.876,0,0,0,0-.5c-.018-.041-.055-.089-.037-.123.157-.3-.009-.586-.029-.879a.528.528,0,0,1,.018-.253,2.121,2.121,0,0,0,.1-.928q0-3.015,0-6.03c0-.224-.03-.448-.048-.705a.265.265,0,0,1,.072-.077c.261-.173.329-.341.1-.565-.2-.2-.1-.436-.066-.673a1.273,1.273,0,0,1,.261-.116.776.776,0,0,0,.47-.271c.194-.235.53-.406.7-.66a.957.957,0,0,0,.216-.611,1.467,1.467,0,0,1,.115-.756c.085-.188.1-.39.171-.582a1.284,1.284,0,0,1,.367-.625,1.142,1.142,0,0,0,.265-.514c.1-.244.122-.5.428-.7.03-.019.058-.049.058-.075a.839.839,0,0,1,.374-.658c.041-.032.011-.108,0-.162s-.035-.135-.055-.211l1.24-.5c.083-.233.413-.342.83-.38a1.919,1.919,0,0,0,.564-.083c.317-.151.707-.194,1.02-.335a3.389,3.389,0,0,0,.691-.378,1.366,1.366,0,0,1,.436-.234,1.253,1.253,0,0,0,.334-.2c.278-.2.539-.4.829-.593a.931.931,0,0,1,.709-.144,1.764,1.764,0,0,0,.254.033c.241.011.454-.018.51-.241.017-.068.047-.135.075-.215a6.551,6.551,0,0,1,1.854-.06,3.372,3.372,0,0,0,.778,0,11.265,11.265,0,0,1,1.6-.107.393.393,0,0,0,.179-.042.639.639,0,0,1,.488-.019,1.729,1.729,0,0,0,.7.025,8,8,0,0,1,1.086-.072,1.994,1.994,0,0,1,.678.115,1.1,1.1,0,0,0,.7.038l.211.383.605-.436c.287.024.044.18.192.239.278-.289.682-.2,1.056-.168.208.181-.225.324,0,.5l.793-.252a4.05,4.05,0,0,1,.414.231,3.3,3.3,0,0,0,1.033.5c.136.04.278.073.418.106a1.518,1.518,0,0,1,.359.083,1.469,1.469,0,0,0,.776.177.806.806,0,0,1,.523.143,1.272,1.272,0,0,0,.951.177c.492-.044.982-.1,1.473-.145a1.3,1.3,0,0,1,.568.056c.245.088.5.163.763.247l.387-.114a.487.487,0,0,1,.137.043,7.7,7.7,0,0,0,1.2.994c.29.209.5.467.809.661a2.1,2.1,0,0,1,.935.99.66.66,0,0,0,.238.25c.428.317.858.635,1.306.941a.651.651,0,0,1,.346.482,1.527,1.527,0,0,0,.165.408c.082.205.154.411.242.614a1.8,1.8,0,0,0,.164.273,1.1,1.1,0,0,1,.215.658,5.075,5.075,0,0,0,.043.548.669.669,0,0,1-.008.167c-.01.056-.055.113-.043.166a7.06,7.06,0,0,1,.031.918,2.173,2.173,0,0,1-.093.667c-.045.195-.134.385-.186.58a.487.487,0,0,0,.161.565.545.545,0,0,1,.2.481c-.007.268,0,.538.013.806a1.089,1.089,0,0,1-.216.7,1.1,1.1,0,0,0-.2,1.188,1.025,1.025,0,0,1,.1.331c.014.11.049.242-.024.33a1.153,1.153,0,0,0-.129,1.075.765.765,0,0,1,.041.292,2.109,2.109,0,0,0,.093.964,1.028,1.028,0,0,1-.008.628,1.192,1.192,0,0,0-.057.378,1.7,1.7,0,0,1-.1.8.245.245,0,0,0-.016.126,1.818,1.818,0,0,1,.008.753,1.968,1.968,0,0,0-.023.719,2.53,2.53,0,0,0,.1.8.992.992,0,0,1-.01.588,2.317,2.317,0,0,0-.007,1.22,2.494,2.494,0,0,1,.016.717,5.152,5.152,0,0,1-.093.587c-.034.2-.075.392-.1.588-.02.14-.029.282-.035.423-.009.21-.062.394-.445.453a.3.3,0,0,0-.285.261,2.708,2.708,0,0,1-.449.875,1.333,1.333,0,0,1-.677.594,1.051,1.051,0,0,0-.581.6,2.19,2.19,0,0,1-.569.881.276.276,0,0,0-.093.156c-.022.13-.159.2-.306.259a2.26,2.26,0,0,0-.84.521.731.731,0,0,1-.233.146,1.008,1.008,0,0,0-.605.577.284.284,0,0,1-.114.148,9.094,9.094,0,0,1-1.589.924,2.81,2.81,0,0,0-.439.251,6.67,6.67,0,0,1-.587.334c-.306.14-.491.314-.518.559a.437.437,0,0,1-.033.125.28.28,0,0,1-.352.11c-.077-.025-.149-.058-.222-.088a1.44,1.44,0,0,0-.811-.085c-.035.016-.089.028-.1.05-.177.3-.6.4-1.008.481a1.9,1.9,0,0,1-.573,0,12.5,12.5,0,0,0-2.272-.018,8.157,8.157,0,0,0-1.587.134,1.43,1.43,0,0,1-.451-.007c-.448-.044-.894-.095-1.363-.145a2.844,2.844,0,0,1-.882.325Z"/><path class="cls-1" d="M458.785,55.592c-.07-.054-.133-.142-.212-.156a6,6,0,0,0-.952-.122,1.126,1.126,0,0,1-.826-.279c-.057.04-.115.06-.136.1-.163.279-.19.3-.456.23-.361-.1-.718-.2-1.094-.309-.437.164-.437.164-1.156,0-.13-.36-.493-.556-.833-.767a1.112,1.112,0,0,0-.311-.114c-.275-.067-.549-.139-.828-.182a.74.74,0,0,1-.612-.472,1.927,1.927,0,0,0-.338-.58,2.082,2.082,0,0,1-.2-.417c-.1-.181-.211-.357-.327-.53-.047-.071-.155-.12-.177-.193-.1-.345-.436-.442-.737-.576-.084-.038-.178-.058-.264-.094a.344.344,0,0,1-.241-.264,1.387,1.387,0,0,0-.371-.618c-.095-.126-.2-.249-.282-.381a.755.755,0,0,1-.1-.685c.044-.129.059-.267.109-.394a1.163,1.163,0,0,0,.03-.752,2.715,2.715,0,0,1-.016-1.258,1.92,1.92,0,0,0-.2-1.433,2.864,2.864,0,0,1-.216-.677c-.03-.1-.038-.219-.109-.279-.229-.192-.307-.468-.5-.67a.6.6,0,0,1-.163-.615,1.985,1.985,0,0,0,.008-1.054,1.545,1.545,0,0,1,0-.606,7.262,7.262,0,0,0,0-2.123,4.824,4.824,0,0,1,.022-1.113,1.437,1.437,0,0,0,0-.6c-.016-.049-.048-.106-.032-.148a2.425,2.425,0,0,0-.025-1.052.859.859,0,0,1,.015-.3,3.387,3.387,0,0,0,.088-1.111q0-3.612,0-7.225c0-.268-.026-.537-.042-.845a.337.337,0,0,1,.063-.092.438.438,0,0,0,.085-.676c-.179-.238-.087-.522-.058-.807a.988.988,0,0,1,.229-.139.672.672,0,0,0,.41-.324c.169-.282.464-.486.611-.792a1.438,1.438,0,0,0,.188-.732,2.365,2.365,0,0,1,.1-.905c.075-.226.085-.468.15-.7a1.728,1.728,0,0,1,.321-.748,1.6,1.6,0,0,0,.231-.617,1.49,1.49,0,0,1,.375-.833.141.141,0,0,0,.051-.089,1.138,1.138,0,0,1,.326-.789c.037-.039.01-.129,0-.194-.01-.082-.03-.162-.048-.253l1.083-.6c.073-.279.362-.409.726-.455a1.25,1.25,0,0,0,.494-.1c.276-.18.617-.232.891-.4a2.929,2.929,0,0,0,.605-.452,1.118,1.118,0,0,1,.38-.281,1.126,1.126,0,0,0,.292-.238c.243-.236.471-.484.725-.711a.647.647,0,0,1,.619-.173,1.135,1.135,0,0,0,.223.04c.21.013.4-.022.446-.289.015-.081.04-.161.065-.257a4.2,4.2,0,0,1,1.62-.073,2.131,2.131,0,0,0,.681.007,7.228,7.228,0,0,1,1.4-.128.278.278,0,0,0,.156-.05.419.419,0,0,1,.427-.023,1.111,1.111,0,0,0,.609.029,5.114,5.114,0,0,1,.949-.085,1.335,1.335,0,0,1,.593.137.719.719,0,0,0,.616.045l.185.46.529-.523c.251.029.038.216.168.286.242-.346.6-.242.923-.2.181.217-.2.389,0,.6l.694-.3a3.483,3.483,0,0,1,.361.277,2.68,2.68,0,0,0,.9.6c.119.048.242.086.365.126a1.062,1.062,0,0,1,.314.1,1.011,1.011,0,0,0,.678.212.575.575,0,0,1,.457.172.875.875,0,0,0,.832.211c.43-.052.858-.118,1.287-.173a.843.843,0,0,1,.5.067c.214.106.437.2.667.3l.338-.137c.055.023.1.028.12.052a7.8,7.8,0,0,0,1.047,1.191c.253.25.438.559.707.792a2.375,2.375,0,0,1,.818,1.186.75.75,0,0,0,.207.3c.375.38.75.761,1.142,1.128a.82.82,0,0,1,.3.578,2.24,2.24,0,0,0,.144.488c.072.245.135.492.212.736a2.468,2.468,0,0,0,.142.327,1.659,1.659,0,0,1,.188.788c-.006.218.027.437.039.656a1.229,1.229,0,0,1-.008.2c-.008.067-.048.135-.038.2.057.367.006.735.028,1.1a3.53,3.53,0,0,1-.082.8c-.039.234-.117.462-.162.7a.723.723,0,0,0,.141.677.788.788,0,0,1,.176.576c-.006.322,0,.645.012.966a1.671,1.671,0,0,1-.189.841,1.7,1.7,0,0,0-.174,1.423,1.559,1.559,0,0,1,.087.4.688.688,0,0,1-.021.395,1.827,1.827,0,0,0-.113,1.288,1.249,1.249,0,0,1,.037.351,3.366,3.366,0,0,0,.081,1.154,1.665,1.665,0,0,1-.008.753,1.96,1.96,0,0,0-.05.453,2.724,2.724,0,0,1-.089.958.4.4,0,0,0-.014.151,2.994,2.994,0,0,1,.007.9,3.17,3.17,0,0,0-.02.861,4.1,4.1,0,0,0,.085.96,1.594,1.594,0,0,1-.009.7,3.805,3.805,0,0,0-.006,1.462,4.037,4.037,0,0,1,.015.859c-.011.235-.052.469-.082.7s-.066.469-.09.7c-.018.168-.027.337-.032.506-.007.253-.053.473-.389.543a.324.324,0,0,0-.248.313,3.8,3.8,0,0,1-.393,1.048,1.379,1.379,0,0,1-.592.712,1.175,1.175,0,0,0-.508.713,2.86,2.86,0,0,1-.5,1.056.366.366,0,0,0-.081.186.435.435,0,0,1-.268.311,2.011,2.011,0,0,0-.734.624.631.631,0,0,1-.2.174,1.1,1.1,0,0,0-.529.692.338.338,0,0,1-.1.177,7.836,7.836,0,0,1-1.388,1.108,2.452,2.452,0,0,0-.384.3,5.843,5.843,0,0,1-.513.4.846.846,0,0,0-.453.669.634.634,0,0,1-.029.149.215.215,0,0,1-.307.133,1.909,1.909,0,0,1-.194-.106.953.953,0,0,0-.71-.1c-.03.02-.077.034-.089.06-.154.362-.523.473-.881.576a1.191,1.191,0,0,1-.5,0,8,8,0,0,0-1.986-.021,5.278,5.278,0,0,0-1.387.161.925.925,0,0,1-.394-.009c-.392-.052-.782-.113-1.192-.173a2.136,2.136,0,0,1-.771.39Z"/><path class="cls-1" d="M716.1,48.36a1.018,1.018,0,0,1-.364-.734,1.476,1.476,0,0,0-.209-.627,1.013,1.013,0,0,1-.151-.765c.036-.168-.07-.358.081-.511.017-.017,0-.076-.014-.111-.02-.054-.084-.117-.071-.154.078-.212-.071-.347-.139-.515-.08-.2-.273-.374-.135-.614a.779.779,0,0,1-.242-.12c-.04-.043-.024-.135-.034-.206a3.833,3.833,0,0,1,.093-1.022l-.213-.206a1.37,1.37,0,0,0-.023-.4,2.1,2.1,0,0,1,.032-1c0-.05.058-.1.09-.143s.08-.078.073-.1c-.091-.321.173-.715-.2-.964a1.054,1.054,0,0,0,.115-.277c.015-.156-.124-.221-.252-.311a2.136,2.136,0,0,0-.055-1.288.775.775,0,0,1,.094-.085.227.227,0,0,0,.115-.3.171.171,0,0,1,.024-.154c.205-.158.145-.366.123-.568,0-.043-.044-.091-.033-.126a7.254,7.254,0,0,0,.053-1.405,4.9,4.9,0,0,1,0-.707c.041-.161.045-.333.273-.337.022,0,.064-.034.063-.049-.017-.253.2-.293.356-.382.022-.416.047-.813.063-1.21a.657.657,0,0,0-.04-.257,1.765,1.765,0,0,1-.1-.519.8.8,0,0,0-.342-.679c0-.136.164-.191.15-.35a.949.949,0,0,1,.155-.591.393.393,0,0,0,.039-.256c-.023-.143.081-.213.141-.308a4.358,4.358,0,0,1-.116-1.143c-.128-.289-.043-.626-.153-.9a1.179,1.179,0,0,1,.03-.852,1.029,1.029,0,0,0,.037-.517c-.018-.1-.027-.206-.052-.306a.629.629,0,0,1,.073-.506,1.984,1.984,0,0,0,.177-1.165,1.6,1.6,0,0,0-.058-.306,1.169,1.169,0,0,1,.253-1.073.7.7,0,0,0,.141-.271c.045-.209.253-.288.335-.458.075-.155.062-.343.237-.459a1.542,1.542,0,0,0,.3-.321.288.288,0,0,0,.069-.154.818.818,0,0,1,.347-.6,2.2,2.2,0,0,0,.511-.8,1.184,1.184,0,0,1,.082-.2,3.837,3.837,0,0,1,.836-.964c.049-.032.093-.086.146-.1.217-.041.39-.119.442-.364a.166.166,0,0,1,.135-.095c.313.055.534-.153.764-.286a8.823,8.823,0,0,1,1.369-.622,1.879,1.879,0,0,1,.258-.067,6.735,6.735,0,0,0,.726-.188,3.014,3.014,0,0,1,1.091-.167c.059,0,.148.024.172,0,.182-.22.469-.13.688-.246a.689.689,0,0,1,.72.02,1.449,1.449,0,0,0,.888.212.394.394,0,0,1,.318.121.468.468,0,0,0,.538.074c.068-.028.133-.067.2-.088a.55.55,0,0,1,.432.01,1.083,1.083,0,0,0,.517.1,2.507,2.507,0,0,1,.825.129c.229.081.475.128.713.2s.5.035.74.105a2.362,2.362,0,0,0,1.046.067.335.335,0,0,1,.175.013,10.691,10.691,0,0,1,1.047.332.807.807,0,0,0,.3.089,1.812,1.812,0,0,1,1,.428.433.433,0,0,0,.374.083,3.982,3.982,0,0,1,.571-.08,1.262,1.262,0,0,1,.806.2,2.011,2.011,0,0,0,.518.85,1.861,1.861,0,0,1,.435.553.2.2,0,0,0,.089.093,1.1,1.1,0,0,1,.47.559,3.264,3.264,0,0,0,.29.442c.245.35.493.7.762,1.076a2.257,2.257,0,0,1,.8.545.752.752,0,0,0,.183.123,1.019,1.019,0,0,1,.46.546.511.511,0,0,0-.073.187,2.043,2.043,0,0,1-.19.721.654.654,0,0,0-.033.3,2.867,2.867,0,0,1,.046.661.783.783,0,0,0,.084.384.976.976,0,0,1,.083.516,5.88,5.88,0,0,0,.026.662.362.362,0,0,0,.042.125c.017.041.042.078.059.119a2.013,2.013,0,0,0,.263.6c.149.161.293.324.43.475-.029.308-.036.6-.089.888a3.332,3.332,0,0,1-.251,1.107.4.4,0,0,0-.053.211.906.906,0,0,1-.049.522.116.116,0,0,0,0,.086.913.913,0,0,1-.133.8,1.284,1.284,0,0,0-.121.468,1.392,1.392,0,0,1-.16.637.248.248,0,0,0-.017.206.537.537,0,0,1,.013.388,2.093,2.093,0,0,0-.047.792,1.421,1.421,0,0,1-.085.652,2.442,2.442,0,0,0-.121.517,2.974,2.974,0,0,1-.127.74.6.6,0,0,0,0,.3,1.458,1.458,0,0,1-.06.736,10.3,10.3,0,0,0-.438,2.122,7.344,7.344,0,0,0-.083,1.326.628.628,0,0,1-.077.386.941.941,0,0,0-.034.854c.076.268.179.529.273.793a.327.327,0,0,1-.012.3.625.625,0,0,0-.069.706.2.2,0,0,1,.007.172c-.157.242-.123.545-.258.79a.376.376,0,0,0-.007.377,1.96,1.96,0,0,1,.159.8.8.8,0,0,0-.392.845,6.95,6.95,0,0,1-.578.433c-.313.187-.411.534-.632.789a.145.145,0,0,0-.035.08,1.638,1.638,0,0,1-.465.93.723.723,0,0,0-.14.224,1.2,1.2,0,0,1-.613.727,1.933,1.933,0,0,0-.636.54.965.965,0,0,1-.318.233.651.651,0,0,0-.311.3.978.978,0,0,1-.745.572,1.863,1.863,0,0,0-.946.609.466.466,0,0,1-.254.16,1.843,1.843,0,0,0-.8.361,1.118,1.118,0,0,1-.2.087c-.064.033-.149.06-.181.115-.184.321-.516.3-.786.275a5.255,5.255,0,0,0-1.1.054,4.551,4.551,0,0,1-.882.079.982.982,0,0,0-.552.144,2.3,2.3,0,0,1-1.46.246c-.233-.03-.471-.026-.706-.049a1.846,1.846,0,0,1-.391-.072.929.929,0,0,0-.568-.022,4.516,4.516,0,0,1-.971.059.3.3,0,0,1-.2-.07,1.2,1.2,0,0,0-.9-.265c-.073,0-.167.028-.216-.006-.223-.157-.486-.1-.721-.164a4.674,4.674,0,0,1-1.178-.364c-.189-.111-.409-.17-.6-.272-.223-.115-.429-.262-.651-.378a7.274,7.274,0,0,0-.718-.33.333.333,0,0,0-.368.088.638.638,0,0,1-.216.138.177.177,0,0,1-.248-.118c-.044-.229-.228-.425-.158-.679-.1-.283-.128-.611-.445-.775-.048-.025-.11-.073-.119-.119-.061-.347-.391-.549-.473-.889-.021-.085-.134-.15-.209-.22a1.033,1.033,0,0,1-.365-.9C716.1,48.473,716.1,48.443,716.1,48.36Z"/><path class="cls-1" d="M54.627,48.76a1.014,1.014,0,0,1-.363-.734,1.49,1.49,0,0,0-.209-.627,1.018,1.018,0,0,1-.152-.765c.036-.168-.069-.358.082-.511.016-.017,0-.076-.014-.111-.02-.054-.084-.117-.071-.154.078-.212-.071-.347-.139-.515-.081-.2-.273-.374-.135-.614a.8.8,0,0,1-.243-.12c-.039-.043-.023-.135-.033-.206a3.792,3.792,0,0,1,.093-1.022l-.214-.206a1.371,1.371,0,0,0-.022-.4,2.1,2.1,0,0,1,.032-1c.005-.05.058-.1.09-.143s.08-.078.073-.1c-.091-.321.173-.715-.2-.964a1.027,1.027,0,0,0,.116-.277c.015-.156-.125-.221-.252-.311a2.144,2.144,0,0,0-.055-1.288.846.846,0,0,1,.093-.085.226.226,0,0,0,.116-.3.171.171,0,0,1,.024-.154c.2-.158.144-.366.123-.568-.005-.043-.044-.091-.033-.126a7.254,7.254,0,0,0,.053-1.405,4.631,4.631,0,0,1,0-.707c.041-.161.045-.333.273-.337.022,0,.064-.034.063-.049-.018-.253.2-.293.356-.382.022-.416.047-.813.063-1.21a.657.657,0,0,0-.04-.257,1.766,1.766,0,0,1-.1-.519.8.8,0,0,0-.341-.679c0-.136.164-.191.149-.35a.956.956,0,0,1,.156-.591.4.4,0,0,0,.039-.256c-.023-.143.081-.213.141-.308a4.316,4.316,0,0,1-.116-1.143c-.129-.289-.044-.626-.154-.9a1.184,1.184,0,0,1,.031-.852A1.029,1.029,0,0,0,53.931,27c-.019-.1-.028-.206-.052-.306a.628.628,0,0,1,.072-.506,1.976,1.976,0,0,0,.177-1.165,1.6,1.6,0,0,0-.057-.306,1.169,1.169,0,0,1,.253-1.073.712.712,0,0,0,.141-.271c.044-.209.252-.288.335-.458s.062-.343.237-.459a1.569,1.569,0,0,0,.3-.321.279.279,0,0,0,.068-.154.822.822,0,0,1,.348-.6,2.2,2.2,0,0,0,.511-.8,1.108,1.108,0,0,1,.082-.2,3.817,3.817,0,0,1,.836-.964c.049-.032.093-.086.146-.1.217-.041.39-.119.442-.364a.166.166,0,0,1,.135-.095c.313.055.533-.153.764-.286a8.781,8.781,0,0,1,1.369-.622,1.9,1.9,0,0,1,.257-.067,6.616,6.616,0,0,0,.726-.188,3.023,3.023,0,0,1,1.092-.167c.059,0,.147.024.172-.005.182-.22.469-.13.688-.246a.689.689,0,0,1,.72.02,1.449,1.449,0,0,0,.888.212.394.394,0,0,1,.318.121.467.467,0,0,0,.537.074c.069-.028.134-.067.2-.088a.55.55,0,0,1,.432.01,1.079,1.079,0,0,0,.516.1,2.513,2.513,0,0,1,.826.129c.229.081.475.128.712.2s.5.035.741.105a2.357,2.357,0,0,0,1.045.067.338.338,0,0,1,.176.013,10.777,10.777,0,0,1,1.047.332.807.807,0,0,0,.3.089,1.815,1.815,0,0,1,1,.428.433.433,0,0,0,.374.083,3.962,3.962,0,0,1,.571-.08,1.262,1.262,0,0,1,.806.2,2,2,0,0,0,.518.85,1.861,1.861,0,0,1,.435.553.2.2,0,0,0,.089.093,1.1,1.1,0,0,1,.47.559,3.264,3.264,0,0,0,.29.442c.245.35.493.7.761,1.076a2.248,2.248,0,0,1,.8.545.792.792,0,0,0,.183.123,1.015,1.015,0,0,1,.46.546.51.51,0,0,0-.072.187,2.043,2.043,0,0,1-.19.721.628.628,0,0,0-.033.3,2.867,2.867,0,0,1,.046.661.772.772,0,0,0,.084.384.976.976,0,0,1,.083.516,5.653,5.653,0,0,0,.026.662.383.383,0,0,0,.041.125c.018.041.043.078.06.119a1.988,1.988,0,0,0,.263.6c.148.161.293.324.43.475-.029.308-.037.6-.089.888a3.309,3.309,0,0,1-.252,1.107.41.41,0,0,0-.052.211.906.906,0,0,1-.049.522.116.116,0,0,0,0,.086.913.913,0,0,1-.133.8,1.284,1.284,0,0,0-.121.468,1.392,1.392,0,0,1-.16.637.245.245,0,0,0-.017.206.542.542,0,0,1,.013.388,2.093,2.093,0,0,0-.047.792,1.434,1.434,0,0,1-.085.652,2.442,2.442,0,0,0-.121.517,3.02,3.02,0,0,1-.127.74.592.592,0,0,0,0,.3,1.458,1.458,0,0,1-.06.736,10.3,10.3,0,0,0-.439,2.122,7.344,7.344,0,0,0-.082,1.326.622.622,0,0,1-.078.386.944.944,0,0,0-.033.854c.076.268.179.529.273.793a.33.33,0,0,1-.012.3.623.623,0,0,0-.069.706.2.2,0,0,1,.007.172c-.157.242-.123.545-.259.79a.379.379,0,0,0-.006.377,1.96,1.96,0,0,1,.159.795.8.8,0,0,0-.393.845,6.779,6.779,0,0,1-.577.433c-.313.187-.411.534-.632.789a.138.138,0,0,0-.035.08,1.638,1.638,0,0,1-.465.93.723.723,0,0,0-.14.224,1.2,1.2,0,0,1-.613.727,1.933,1.933,0,0,0-.636.54.965.965,0,0,1-.318.233.647.647,0,0,0-.311.3.978.978,0,0,1-.746.572,1.864,1.864,0,0,0-.945.609.469.469,0,0,1-.254.16,1.843,1.843,0,0,0-.8.361,1.118,1.118,0,0,1-.2.087c-.064.033-.15.06-.181.115-.185.321-.517.3-.787.275a5.249,5.249,0,0,0-1.094.054,4.558,4.558,0,0,1-.882.079.982.982,0,0,0-.552.144,2.3,2.3,0,0,1-1.46.246c-.234-.03-.471-.026-.706-.049a1.846,1.846,0,0,1-.391-.072.929.929,0,0,0-.568-.022,4.516,4.516,0,0,1-.971.059.3.3,0,0,1-.2-.07,1.2,1.2,0,0,0-.9-.265c-.073,0-.167.028-.217-.006-.222-.157-.486-.1-.721-.164a4.68,4.68,0,0,1-1.177-.364c-.189-.111-.409-.17-.605-.272-.222-.115-.428-.262-.65-.378a7.381,7.381,0,0,0-.718-.33.333.333,0,0,0-.368.088.638.638,0,0,1-.216.138.177.177,0,0,1-.248-.118c-.044-.229-.229-.425-.159-.679-.1-.283-.128-.611-.444-.775-.049-.025-.111-.073-.119-.119-.062-.347-.391-.549-.473-.889-.021-.085-.134-.15-.209-.22a1.028,1.028,0,0,1-.365-.905C54.63,48.873,54.628,48.843,54.627,48.76Z"/><path class="cls-1" d="M316.272,48.734a1.191,1.191,0,0,1-.426-.859,1.732,1.732,0,0,0-.245-.734,1.192,1.192,0,0,1-.177-.9c.042-.2-.082-.42.1-.6.02-.019,0-.088-.016-.129-.024-.064-.1-.137-.083-.181.091-.247-.084-.406-.164-.6-.093-.231-.319-.438-.158-.719a.92.92,0,0,1-.283-.141c-.046-.051-.028-.159-.04-.241a4.535,4.535,0,0,1,.109-1.2l-.25-.241a1.6,1.6,0,0,0-.026-.468,2.457,2.457,0,0,1,.037-1.166c.006-.059.068-.112.106-.168.029-.041.094-.091.085-.121-.106-.376.2-.838-.239-1.129a1.232,1.232,0,0,0,.135-.324c.018-.184-.146-.259-.3-.365a2.512,2.512,0,0,0-.064-1.508.874.874,0,0,1,.109-.1.267.267,0,0,0,.135-.35.2.2,0,0,1,.029-.18c.239-.185.169-.429.143-.665,0-.05-.051-.106-.038-.147a8.549,8.549,0,0,0,.062-1.646,5.588,5.588,0,0,1-.006-.829c.048-.188.052-.389.319-.394.027,0,.076-.039.075-.058-.021-.3.24-.342.416-.447.027-.487.055-.952.074-1.417a.774.774,0,0,0-.046-.3,2.053,2.053,0,0,1-.121-.607.931.931,0,0,0-.4-.795c.006-.159.192-.224.176-.41a1.114,1.114,0,0,1,.182-.693.476.476,0,0,0,.046-.3c-.028-.168.094-.249.164-.36a5.09,5.09,0,0,1-.135-1.34c-.151-.339-.051-.733-.18-1.053a1.385,1.385,0,0,1,.035-1,1.211,1.211,0,0,0,.044-.606c-.022-.119-.032-.241-.061-.359a.737.737,0,0,1,.085-.593,2.315,2.315,0,0,0,.207-1.364,1.836,1.836,0,0,0-.067-.358,1.37,1.37,0,0,1,.3-1.257.811.811,0,0,0,.165-.317c.052-.245.3-.338.393-.537.088-.181.073-.4.277-.538a1.8,1.8,0,0,0,.347-.375.33.33,0,0,0,.08-.181.961.961,0,0,1,.407-.7,2.587,2.587,0,0,0,.6-.942,1.319,1.319,0,0,1,.1-.237,4.477,4.477,0,0,1,.979-1.128c.057-.038.109-.1.171-.113.254-.048.457-.14.518-.426a.2.2,0,0,1,.158-.112c.367.065.625-.178.895-.334a10.273,10.273,0,0,1,1.6-.729,2.193,2.193,0,0,1,.3-.078,8.047,8.047,0,0,0,.85-.221,3.556,3.556,0,0,1,1.279-.2c.069,0,.172.028.2-.007.213-.257.549-.151.806-.288a.808.808,0,0,1,.843.024,1.7,1.7,0,0,0,1.04.249.459.459,0,0,1,.373.141.544.544,0,0,0,.629.086,2.6,2.6,0,0,1,.239-.1.641.641,0,0,1,.506.012,1.279,1.279,0,0,0,.6.112,2.946,2.946,0,0,1,.967.151c.268.095.556.15.834.238s.59.041.867.122a2.764,2.764,0,0,0,1.225.079.4.4,0,0,1,.2.015,12.663,12.663,0,0,1,1.227.39.95.95,0,0,0,.346.1,2.134,2.134,0,0,1,1.169.5.508.508,0,0,0,.438.1,4.8,4.8,0,0,1,.67-.094,1.473,1.473,0,0,1,.943.238,2.347,2.347,0,0,0,.607.995,2.181,2.181,0,0,1,.51.649.236.236,0,0,0,.1.108,1.3,1.3,0,0,1,.551.656,3.831,3.831,0,0,0,.339.517c.287.409.577.816.892,1.26a2.637,2.637,0,0,1,.936.638.882.882,0,0,0,.214.144,1.191,1.191,0,0,1,.539.64.589.589,0,0,0-.085.219,2.378,2.378,0,0,1-.223.845.751.751,0,0,0-.038.354,3.3,3.3,0,0,1,.053.775.922.922,0,0,0,.1.45,1.148,1.148,0,0,1,.1.6,6.5,6.5,0,0,0,.03.776.478.478,0,0,0,.048.147c.021.047.05.091.07.139a2.345,2.345,0,0,0,.308.7c.174.188.344.379.5.556-.034.36-.043.705-.1,1.04a3.9,3.9,0,0,1-.3,1.3.475.475,0,0,0-.062.247,1.048,1.048,0,0,1-.057.611.135.135,0,0,0,0,.1,1.072,1.072,0,0,1-.156.934,1.494,1.494,0,0,0-.142.547,1.628,1.628,0,0,1-.188.747.292.292,0,0,0-.02.241.628.628,0,0,1,.016.455,2.454,2.454,0,0,0-.056.927,1.67,1.67,0,0,1-.1.764,2.876,2.876,0,0,0-.142.6,3.515,3.515,0,0,1-.148.867.7.7,0,0,0,0,.356,1.7,1.7,0,0,1-.07.862,12.1,12.1,0,0,0-.514,2.485,8.585,8.585,0,0,0-.1,1.554.731.731,0,0,1-.091.451,1.1,1.1,0,0,0-.039,1c.089.314.21.62.319.929a.384.384,0,0,1-.014.351.732.732,0,0,0-.081.827.236.236,0,0,1,.009.2c-.184.284-.144.638-.3.925a.44.44,0,0,0-.007.441,2.322,2.322,0,0,1,.186.932.93.93,0,0,0-.46.989,7.639,7.639,0,0,1-.677.507c-.366.219-.481.627-.74.924a.173.173,0,0,0-.041.094,1.921,1.921,0,0,1-.544,1.09.808.808,0,0,0-.164.263,1.413,1.413,0,0,1-.719.851,2.267,2.267,0,0,0-.745.633,1.135,1.135,0,0,1-.372.272.767.767,0,0,0-.364.356,1.148,1.148,0,0,1-.873.67,2.193,2.193,0,0,0-1.108.713.549.549,0,0,1-.3.188,2.154,2.154,0,0,0-.935.422,1.357,1.357,0,0,1-.236.1c-.076.038-.176.07-.213.134-.216.377-.6.351-.921.322a6.223,6.223,0,0,0-1.282.063,5.315,5.315,0,0,1-1.033.093,1.165,1.165,0,0,0-.647.168,2.694,2.694,0,0,1-1.709.29c-.274-.036-.552-.032-.828-.058a2.142,2.142,0,0,1-.457-.085,1.092,1.092,0,0,0-.666-.025,5.348,5.348,0,0,1-1.137.068.34.34,0,0,1-.235-.082,1.421,1.421,0,0,0-1.059-.31c-.086,0-.2.033-.254-.007-.26-.184-.569-.115-.844-.192a5.508,5.508,0,0,1-1.379-.426c-.222-.131-.479-.2-.709-.319-.26-.135-.5-.307-.762-.443a8.97,8.97,0,0,0-.84-.386.392.392,0,0,0-.431.1.73.73,0,0,1-.253.162.207.207,0,0,1-.291-.138c-.051-.268-.268-.5-.186-.795-.121-.332-.149-.716-.52-.908-.057-.029-.13-.085-.139-.139-.072-.407-.459-.643-.555-1.041-.024-.1-.156-.176-.245-.258a1.209,1.209,0,0,1-.427-1.06C316.275,48.867,316.272,48.832,316.272,48.734Z"/><path class="cls-1" d="M410.738,48.585a.81.81,0,0,1-.151,1.081c-.226.268-.45.583-.891.5a1.486,1.486,0,0,1,.078.416,2.927,2.927,0,0,1-.155.609.535.535,0,0,1-.435.336c-.186.04-.4.057-.5.25-.111.216-.307.4-.256.682.013.073.023.177-.017.223-.272.321-.3.781-.639,1.066a2.115,2.115,0,0,0-.525.671,1.22,1.22,0,0,1-.891.56,6.464,6.464,0,0,0-1.346.447,1.059,1.059,0,0,0-.247.224c-.148.146-.291.3-.443.44-.039.037-.11.082-.151.071-.353-.1-.565.169-.821.311a.894.894,0,0,0-.3.257,4.267,4.267,0,0,1-.988.87c-.177.137-.378.245-.587.376l-.433-.188-.343.344c-.051.011-.094.035-.124.024a2.885,2.885,0,0,0-1.133-.062,2.694,2.694,0,0,1-.568,0,1.794,1.794,0,0,0-1.324.244c-.1.06-.2.11-.324.177a1.3,1.3,0,0,0-.991-.022,1.988,1.988,0,0,1-1.136,0c-.271-.093-.48.071-.718.089s-.4-.209-.654-.173a3.037,3.037,0,0,0-.97.345.669.669,0,0,1-.647.069,1.537,1.537,0,0,0-.536-.026,1.5,1.5,0,0,0-.138-.151.813.813,0,0,0-.882-.236.986.986,0,0,1-.617.012,1.46,1.46,0,0,0-.9.02,1.11,1.11,0,0,1-.884-.118c-.216-.125-.449-.2-.67-.309a.894.894,0,0,0-.549-.109.854.854,0,0,1-.6-.159,2.463,2.463,0,0,1-.38-.258,1.8,1.8,0,0,0-1.255-.452,1.623,1.623,0,0,0-.229-.016.509.509,0,0,1-.589-.349.674.674,0,0,0-.292-.343.767.767,0,0,1-.346-.372,3.336,3.336,0,0,0-.681-1.035,3.731,3.731,0,0,0-.815-.712,1.052,1.052,0,0,1-.532-.77,1.857,1.857,0,0,0-.661-1.173,1.26,1.26,0,0,1-.451-.842,3.066,3.066,0,0,1-.035-.343q0-1.032.016-2.065a2.853,2.853,0,0,1,.036-.515,7.081,7.081,0,0,0,.026-1.373c0-.265-.154-.5-.16-.778-.013-.59-.12-1.176-.115-1.77a.618.618,0,0,0-.055-.28.835.835,0,0,1-.08-.814c.048-.1-.022-.26-.057-.388a2.447,2.447,0,0,0-.125-.258.732.732,0,0,1,.206-.948,1.436,1.436,0,0,1-.095-.89,10.186,10.186,0,0,0-.049-1.831,4.267,4.267,0,0,1,.055-.969,2.846,2.846,0,0,0,.016-.97,5.113,5.113,0,0,1-.039-.569c-.033-.381-.014-.761-.067-1.144-.069-.491-.081-.991-.185-1.479a.291.291,0,0,1,0-.114,9.123,9.123,0,0,0-.025-1.772c0-.419.058-.837.033-1.26-.025-.438,0-.878,0-1.317a2.106,2.106,0,0,0-.077-.511,2.957,2.957,0,0,1-.028-1.2,2.412,2.412,0,0,0,.019-.569c-.1-.95-.206-1.9-.217-2.855,0-.113.036-.227.036-.341a4.554,4.554,0,0,0-.031-.965,2.323,2.323,0,0,1-.056-.618,4.317,4.317,0,0,0-.055-.915,4.9,4.9,0,0,1,0-.686,1.259,1.259,0,0,0-.044-.5,1.157,1.157,0,0,1-.052-.728,1.986,1.986,0,0,0,.044-.566,1.042,1.042,0,0,1,.419-1.01,8.725,8.725,0,0,1,1.034-.905,1.025,1.025,0,0,0,.269-.293c.114-.154.216-.318.319-.479a1.908,1.908,0,0,1,1-.829,1.565,1.565,0,0,0,.773-.473c.5-.21.686-.671.925-1.113.292-.537.665-1.031,1-1.543a.628.628,0,0,1,.665-.249,7.383,7.383,0,0,0,1.6.027c.248-.013.494-.055.741-.082.189-.02.379-.036.568-.056.113-.011.227-.023.339-.041a2.847,2.847,0,0,1,.5-.083,7.755,7.755,0,0,1,1.646.086,1.113,1.113,0,0,0,.34-.008c.3-.024.608-.064.913-.076a2.269,2.269,0,0,0,.784-.131.881.881,0,0,1,.779-.042.15.15,0,0,0,.11.021c.336-.159.682.01,1.021-.035a.729.729,0,0,1,.228-.007,12.72,12.72,0,0,0,1.871-.093c.052,0,.1-.051.159-.059a1.259,1.259,0,0,1,.334-.022c.264.034.524.1.788.127a.6.6,0,0,0,.321-.068.506.506,0,0,1,.493-.032.726.726,0,0,0,.5.02,2.2,2.2,0,0,1,1.136-.048.883.883,0,0,0,.285,0l.742-.03c.229-.01.459,0,.686-.031a.8.8,0,0,1,.813.306,1.705,1.705,0,0,0,.373.351,3.715,3.715,0,0,1,.748.707,1.081,1.081,0,0,1,.316.526.434.434,0,0,0,.149.237c.217.186.465.339.666.538a1.977,1.977,0,0,1,.709,1,1.033,1.033,0,0,0,.378.686.632.632,0,0,1,.178.34,2.141,2.141,0,0,0,.7,1.1.526.526,0,0,0,.236.152.543.543,0,0,1,.453.462,1.34,1.34,0,0,0,.463.638c.183.165.358.339.535.511.027.026.063.057.068.09.063.373.33.69.3,1.09a.52.52,0,0,0,.045.278,3.1,3.1,0,0,1,.273.934,1.112,1.112,0,0,0,.087.332,1.734,1.734,0,0,1,.2.88,1.836,1.836,0,0,1-.107,1.062.083.083,0,0,0-.011.055,4.621,4.621,0,0,1-.032,1.243,12.314,12.314,0,0,0,.327,2.155,2.908,2.908,0,0,1,.039.909,3.467,3.467,0,0,0,.084,1.184.685.685,0,0,1,.008.274c-.051.243-.106.486-.179.723A3.343,3.343,0,0,0,410,32.079a4.827,4.827,0,0,1,.036,1.084,1.8,1.8,0,0,0,.133.95,1.239,1.239,0,0,1,.108.5c.028.419.047.839.051,1.258a4.322,4.322,0,0,0,.08,1.028,2.4,2.4,0,0,1,.048.4c.022.247.03.5.06.741a3.434,3.434,0,0,1-.037,1.366,1.112,1.112,0,0,0,.008.558,3.512,3.512,0,0,1,.038,1.812.538.538,0,0,0,.008.383c.123.32.228.648.339.973a1.706,1.706,0,0,1,.038.91,4.116,4.116,0,0,0-.012,1.537,4.941,4.941,0,0,1,.119,1.252c-.043.436-.066.871-.1,1.306A1.768,1.768,0,0,1,410.738,48.585ZM379.362,18.637l.052-.011c-.015-.015-.028-.035-.046-.042s-.027.017-.041.027Z"/><path class="cls-1" d="M254.23,58.089l-.182-.307c-.165-.01-.329-.01-.491-.032-.43-.058-.807-.18-.925-.683-.026-.114-.174-.2-.26-.3a1.943,1.943,0,0,1-.684-1.446.3.3,0,0,0-.026-.162,3.324,3.324,0,0,1-.063-2.179c.13-.928.3-1.851.431-2.778a3.809,3.809,0,0,0,.011-.827,1.943,1.943,0,0,0-.856-1.71c.034-.651.057-1.31.109-1.968a2.437,2.437,0,0,1,.169-.546c.085-.262.18-.521.255-.786a1.234,1.234,0,0,0-.018-.811,4.5,4.5,0,0,1-.2-.8,2.277,2.277,0,0,1-.014-1.067,2.117,2.117,0,0,0,.051-1.224,1.01,1.01,0,0,1,.11-.723,8.526,8.526,0,0,0,.793-2.08,1.712,1.712,0,0,1,.361-.64.722.722,0,0,0,.03-.919,5.128,5.128,0,0,0-.723-1,2.305,2.305,0,0,1-.852-1.679,3.316,3.316,0,0,0,.682-2.119,3.876,3.876,0,0,1,.074-.656,11.555,11.555,0,0,0,.313-2.041,3.579,3.579,0,0,0-.216-1.617c-.053-.127-.093-.259-.146-.41a2.838,2.838,0,0,1,.7-1.093c.142-.131.255-.295.405-.414a2.428,2.428,0,0,0,.786-2,3.134,3.134,0,0,1,.023-.5,2.188,2.188,0,0,0-.445-1.625c-.058-.093-.152-.164-.2-.259a.731.731,0,0,1,.105-.917c.367-.358.672-.779,1.278-.837a1.741,1.741,0,0,0,1.094-.837c.284-.371.536-.764.854-1.114a3.877,3.877,0,0,0,.426-.764,2.266,2.266,0,0,1,.518-.112c.5,0,.945-.26,1.45-.273.655-.017,1.3-.231,1.963-.183a.361.361,0,0,0,.162-.029,4.8,4.8,0,0,1,2.279-.237.7.7,0,0,0,.247,0,4.144,4.144,0,0,1,2.365.112,3.686,3.686,0,0,0,2.043-.015,1.165,1.165,0,0,1,.483-.074,6.06,6.06,0,0,0,1.636.2c.252.164.582.274.741.5a3.209,3.209,0,0,0,1.731,1.043,8.2,8.2,0,0,1,1.451.585,1.855,1.855,0,0,0,.538.134c.1.125.189.23.271.34a1.328,1.328,0,0,0,.884.556,1.233,1.233,0,0,1,.591.26.889.889,0,0,1,.325.892,3.669,3.669,0,0,0,.025,1.561,1.514,1.514,0,0,1-.018.653,3.492,3.492,0,0,0-.035,1.316,5.934,5.934,0,0,1-.04,2.058,3.057,3.057,0,0,0,.008,1.231,12.531,12.531,0,0,1,.149,1.811,2.917,2.917,0,0,0,.1,1.224.94.94,0,0,1-.057.563,3.927,3.927,0,0,0-.1,1.314c.03.412-.027.831.017,1.24.1.935-.017,1.87.034,2.8a4.015,4.015,0,0,0,.042.66,7.743,7.743,0,0,1,.065,1.812c0,.19.03.381.04.571a2.479,2.479,0,0,1,.014.648,4.166,4.166,0,0,0-.025,1.148c.039.685-.019,1.376-.033,2.065a1.761,1.761,0,0,0,.019.573,4.457,4.457,0,0,1,.062,2.038c-.08.654-.083,1.318-.164,1.972-.042.343.034.726-.244,1.022a.255.255,0,0,0-.051.223,1.67,1.67,0,0,1,.032.9,2.08,2.08,0,0,0,.091.648c.074.321.165.638.255.955a.822.822,0,0,1-.1.662l-.27-.294c-.253.6-.756,1.046-1,1.625l.591.822a3.788,3.788,0,0,1-.536.962,4.945,4.945,0,0,0-.531.928c-.1.194-.188.4-.279.6a1.255,1.255,0,0,0-.181,1.094,1.517,1.517,0,0,1-.013.625,1.34,1.34,0,0,0,.09.174c.458.611.451.689-.1,1.232a5.584,5.584,0,0,1-1.481,1.3.641.641,0,0,0-.24.223,1.805,1.805,0,0,1-1.6.685,4.845,4.845,0,0,0-.494-.017.855.855,0,0,1-.659-.275c-.169.07-.256.24-.51.18a14.5,14.5,0,0,0-2.783-.287,1.312,1.312,0,0,0-.867.2,1,1,0,0,1-.87.131,1.431,1.431,0,0,0-.572-.049,4.377,4.377,0,0,1-1.8-.166,1.692,1.692,0,0,0-1.136.048.48.48,0,0,1-.236.069,14.763,14.763,0,0,0-1.629-.006,11.854,11.854,0,0,0-1.484-.007c-.926.068-.888.077-1.326-.659-.156-.262-.31-.525-.483-.774a1.32,1.32,0,0,0-.384-.42,2.2,2.2,0,0,1-.956-1.113A.541.541,0,0,0,254.23,58.089Z"/><path class="cls-1" d="M582.577,27.188c.127-.206.192-.323.268-.434a1.461,1.461,0,0,0,.244-.866c-.005-.445.018-.89,0-1.333a.94.94,0,0,1,.618-.982c.2-.089.4-.171.614-.261l.226-.863c-.538-.484-.44-1.247-.751-1.857a.612.612,0,0,1,.087-.634,4.7,4.7,0,0,1,.551-.726c.454-.407.787-.919,1.248-1.328a1.471,1.471,0,0,0,.475-1.253,5.566,5.566,0,0,1,.242-1.541.68.68,0,0,1,.432-.479,2.457,2.457,0,0,1,1.289-.18c.419.058.6.345.867.645a4.759,4.759,0,0,1,1.631-.551,1.543,1.543,0,0,1,.9.07c.282.107.589.147.873.249a.905.905,0,0,0,1.065-.2.711.711,0,0,1,.38-.141.444.444,0,0,1,.568.513c-.008.109-.059.215-.072.324a1.238,1.238,0,0,0,.022.255c.4.105.791.21,1.185.31a.271.271,0,0,0,.164,0c.482-.209.915.017,1.372.122a6.567,6.567,0,0,1,1.883.557c.366.207.846.229,1.233.465a.572.572,0,0,0,.4.069,7.692,7.692,0,0,0,1.941-.4,1.418,1.418,0,0,1,1.5.088,12.906,12.906,0,0,1,1.45.96,4.8,4.8,0,0,1,.785.959,4.71,4.71,0,0,0,.925,1.058,1.921,1.921,0,0,1,.56,1.182,7.258,7.258,0,0,0,.463,1.585,1.311,1.311,0,0,1,.009.809,2.073,2.073,0,0,0,0,1.145.887.887,0,0,1,.049.489,2.646,2.646,0,0,0,.1,1.389,12.094,12.094,0,0,1,.256,3.139c-.006.166-.038.33-.056.5a6.2,6.2,0,0,0-.107,1.152,5.276,5.276,0,0,1-.652,2.667c.111.388.218.817.362,1.232a1.185,1.185,0,0,0,.294.386,1.625,1.625,0,0,1,.5,1.1,11.871,11.871,0,0,0,.226,1.642,1.227,1.227,0,0,1-.044.727,18.471,18.471,0,0,1-.81,1.991,1,1,0,0,0,.01,1.09,5.228,5.228,0,0,0,1.4,1.934,1.56,1.56,0,0,1,.38.53,4.971,4.971,0,0,0,.361.654,1.362,1.362,0,0,1,.1,1.622,3.556,3.556,0,0,0-.309,1.2,9.165,9.165,0,0,1-.422,2.275c-.288.756-.3.852-.035,2.11a5.417,5.417,0,0,1-.068,2.3,1.962,1.962,0,0,1-.471.859,6.819,6.819,0,0,1-1.175,1.274,4.292,4.292,0,0,0-.859,1.1,6.31,6.31,0,0,1-.427.609,1.283,1.283,0,0,0-.379.8,1,1,0,0,1-.948.762,9.751,9.751,0,0,0-2.216.2.587.587,0,0,1-.165.023c-.7-.03-1.38.142-2.068.164-1.443.046-2.887.022-4.331.024a1.2,1.2,0,0,1-.413-.035,1.685,1.685,0,0,0-.977.025,8.268,8.268,0,0,1-1.887.2,10.413,10.413,0,0,1-1.553-.064,6.724,6.724,0,0,0-1.729.132c-.137.013-.272.062-.409.063a.67.67,0,0,1-.666-.507,9.418,9.418,0,0,0-.73-1.754,2.6,2.6,0,0,0-1.155-1.149,12.534,12.534,0,0,1-1.47-.748c-.494-.277-.6-.753-.363-1.38.187-.49.36-.985.526-1.44a9,9,0,0,1-.546-1.353,3.188,3.188,0,0,0-.676-1.122,2.28,2.28,0,0,1-.393-1.736,1.271,1.271,0,0,1,.267-.594c.237-.3.518-.572.771-.844a4.1,4.1,0,0,1,.363-2.094.937.937,0,0,0,.1-.48,6.956,6.956,0,0,1,.126-1.4,4.3,4.3,0,0,0-.031-1.4,1.717,1.717,0,0,0-.837-1.166,3,3,0,0,0-.71-2.149,2.722,2.722,0,0,1-.369-.635c-.155-.371-.314-.722-.75-.768a4.252,4.252,0,0,0-.046-.859c-.086-.328.229-.5.239-.774l-.217-.42c.018-.075.013-.148.047-.178a2.515,2.515,0,0,0,.742-1.622c.028-.191.094-.377.118-.569a1.779,1.779,0,0,1,.341-.834,1.267,1.267,0,0,0,.243-1.174.868.868,0,0,1-.023-.408,2.7,2.7,0,0,0-.244-1.524,3.777,3.777,0,0,1-.287-1.034,1.273,1.273,0,0,0-.733-1.034C583.147,27.5,582.905,27.37,582.577,27.188Z"/><path class="cls-1" d="M799.165,14.477a5.91,5.91,0,0,1,.364.487.936.936,0,0,0,.788.472,1.508,1.508,0,0,1,.762.228,1.451,1.451,0,0,0,.482.179,2.008,2.008,0,0,1,1.384,1.1.613.613,0,0,0,.242.254,1.023,1.023,0,0,1,.528.579c.2.473.437.928.685,1.445.377.2.9.223,1.268.628a6.306,6.306,0,0,1-.425,1.669,4.457,4.457,0,0,0-.227,1.368c-.033.293,0,.592-.034.885a1.544,1.544,0,0,1-.148.557.686.686,0,0,0,.017.761c.093.143.166.3.261.474.19.073.4.147.6.232a.459.459,0,0,1,.3.587.7.7,0,0,1-.116.268,1.9,1.9,0,0,0-.244,1.69,1.171,1.171,0,0,1-.139.975,1.849,1.849,0,0,0-.223.69c-.071.41-.116.825-.155,1.24a1.215,1.215,0,0,0,.029.511,2.057,2.057,0,0,1,.043,1.156,1.82,1.82,0,0,0,.114.787,1.012,1.012,0,0,1,0,.711,1.094,1.094,0,0,0-.053.86.632.632,0,0,1,0,.435.887.887,0,0,0,.3,1.074c-.281.51.061.952.133,1.431-.023.068-.028.155-.074.2a.988.988,0,0,0-.276,1.075,1.072,1.072,0,0,1-.029.428,1.389,1.389,0,0,0,.074.938,2.314,2.314,0,0,1,.155,1.844,2.761,2.761,0,0,0,.032,1.376c.255,1.028.247,1.03-.276,2.078.128.344.274.731.417,1.119.059.161.1.33.173.483a5.357,5.357,0,0,0,.316.493.506.506,0,0,1-.418.564.7.7,0,0,0-.527.847.693.693,0,0,1-.187.534c-.355.5-.725.989-1.074,1.493a2.348,2.348,0,0,0-.467.907c-.065.351-.392.489-.69.607-.48.189-.972.347-1.452.534-.3.115-.574.278-.873.387a5.325,5.325,0,0,1-2.318.609,2.811,2.811,0,0,0-1.71.322,1.231,1.231,0,0,1-.787.046,1.436,1.436,0,0,0-.913.093,8.127,8.127,0,0,1-1.492.384,1.07,1.07,0,0,1-.512-.025,8.253,8.253,0,0,1-1.429-.334,1.433,1.433,0,0,0-.58-.067c-.393-.01-.787-.005-1.181-.006a.844.844,0,0,1-.794-.285.36.36,0,0,0-.254-.129,3.449,3.449,0,0,1-1.685-.813,3.5,3.5,0,0,1-1.419-1.349,1.333,1.333,0,0,0-.756-.672,1.119,1.119,0,0,1-.637-.574l.12-.893-.367-.135-.259-.089c.008-.076,0-.143.02-.164.262-.213.531-.419.833-.655a2.8,2.8,0,0,1-.124-.385,2.338,2.338,0,0,1-.068-.646c.039-.364.132-.722.2-1.083a.956.956,0,0,0-.451-1.193c-.224-.116-.236-.355-.232-.584a.434.434,0,0,1,.3-.453.887.887,0,0,0,.214-.16c-.013-.078,0-.151-.031-.169-.706-.472-.489-1.157-.4-1.8a7.661,7.661,0,0,1,.231-.851.96.96,0,0,0-.072-.863l.381-.187c.021-.254-.308-.1-.35-.342l.222-.233a.592.592,0,0,0,.029-.14,3.713,3.713,0,0,1-.037-.583c.01-.1.128-.188.2-.291l-.575-.41.215-.3c-.374-.536-.026-.9.358-1.289l-.31-.25a1.38,1.38,0,0,0-.1-1.408c-.174-.331-.158-.481.038-1.064a2.406,2.406,0,0,1-.513-.363,2.014,2.014,0,0,1-.349-.99l.485-.362c-.054-.065-.1-.177-.167-.191-.215-.045-.439-.043-.655-.082-.077-.014-.142-.095-.217-.149.064-.071.092-.132.128-.137.555-.085.589-.58.764-.964-.125-.466.161-.735.475-.991a1.869,1.869,0,0,0,.136-.145,1.916,1.916,0,0,1-.046-.454,1.467,1.467,0,0,1,.168-.394c-.365-.207-.415-.161-.412.409-.247.181-.43.49-.833.6l-.829-.665a1.493,1.493,0,0,1,.152-.823.714.714,0,0,1,.412-.4.768.768,0,0,0,.5-.937,3.788,3.788,0,0,1,.029-.867.752.752,0,0,0-.039-.354,1.2,1.2,0,0,1,.105-1.185c.11-.218.227-.433.333-.653.149-.31.2-.609-.113-.86a.691.691,0,0,1-.2-.607.824.824,0,0,0-.325-.7.871.871,0,0,1-.051-1.241c.148-.165.307-.319.465-.474a2.552,2.552,0,0,0,.58-.756,1.6,1.6,0,0,1,.579-.655,1.908,1.908,0,0,0,.4-.316,2.336,2.336,0,0,1,1.18-.711,1.249,1.249,0,0,0,.837-.751c.164-.363.288-.734.741-.842l-.08-.732c.032-.041.063-.124.121-.152.264-.128.533-.248.8-.356.294-.116.6-.212.891-.324a.8.8,0,0,1,.642.008,2.261,2.261,0,0,0,1.084.161,4.83,4.83,0,0,1,1.672.218,3.129,3.129,0,0,0,2.024.094.327.327,0,0,1,.146-.014,3.509,3.509,0,0,0,1.992-.55,1.533,1.533,0,0,0,.3.155.354.354,0,0,0,.277-.009,2.849,2.849,0,0,1,1.2-.53A1.552,1.552,0,0,0,799.165,14.477Z"/><path class="cls-1" d="M543.427,37.673a4.952,4.952,0,0,0-.244,1.129,1.891,1.891,0,0,1-.15.641,1.989,1.989,0,0,0-.175.762.826.826,0,0,1-.2.566,3.8,3.8,0,0,0-.826,1.6,1,1,0,0,1-.237.427,4.033,4.033,0,0,0-.4.673c-.1.182-.177.375-.269.56a.384.384,0,0,1-.1.133,2.514,2.514,0,0,0-.59.739,1.373,1.373,0,0,1-.16.191,2.668,2.668,0,0,1-.329.372c-.359.284-.622.662-.964.962a1.18,1.18,0,0,0-.127.105,3.438,3.438,0,0,1-1.542,1,8.671,8.671,0,0,0-1.449.5.2.2,0,0,1-.117.038,1.875,1.875,0,0,0-1.094.3c-.241.1-.461.256-.7.353a2.565,2.565,0,0,0-.6.359c-.264.2-.536.394-.812.578a1.333,1.333,0,0,1-.372.175,1.8,1.8,0,0,0-.88.662,1.1,1.1,0,0,1-.486.364,3.314,3.314,0,0,0-.635.306.773.773,0,0,1-.711.126.2.2,0,0,0-.123,0c-.357.108-.738.115-1.087.259a.971.971,0,0,1-.241.055c-.164.023-.329.04-.494.055a.307.307,0,0,1-.163,0c-.242-.133-.516-.062-.768-.126-.147-.038-.3-.058-.446-.094a.236.236,0,0,1-.14-.075c-.266-.446-.712-.472-1.156-.5-.1-.007-.195,0-.292-.01a7.734,7.734,0,0,1-.99-.093,2.078,2.078,0,0,1-.838-.332,1.3,1.3,0,0,0-1.26-.192c-.117.041-.234.087-.35.133a.649.649,0,0,1-.6-.044,3,3,0,0,0-1-.382.3.3,0,0,1-.241-.14c-.174-.307-.511-.361-.79-.5a1.02,1.02,0,0,0-.387-.008.4.4,0,0,0-.261-.319.335.335,0,0,1-.2-.254.775.775,0,0,0-.218-.347,3.882,3.882,0,0,0-.737-.783c-.2-.359-.615-.515-.829-.866a.33.33,0,0,0-.207-.12.354.354,0,0,1-.311-.343,1.148,1.148,0,0,0-.382-.715,3.264,3.264,0,0,1-.245-.329,3.029,3.029,0,0,0-.433-.437.089.089,0,0,0-.038-.017c-.193-.054-.24-.264-.387-.363a2.607,2.607,0,0,1-.425-.253,1.322,1.322,0,0,1-.3-.672,6.418,6.418,0,0,0-.2-.807,2.418,2.418,0,0,1-.166-.464c-.008-.054-.044-.116-.029-.161a.984.984,0,0,0-.065-.646.339.339,0,0,1,0-.2.681.681,0,0,0-.171-.689,10.519,10.519,0,0,1-.747-1.142.7.7,0,0,1-.085-.307,3.909,3.909,0,0,0-.147-.939,1.951,1.951,0,0,1-.057-.533.861.861,0,0,0-.1-.481.377.377,0,0,1-.053-.2c0-.455-.067-.905-.116-1.356a2.257,2.257,0,0,1,.009-.246c0-.083.03-.188-.009-.246a.989.989,0,0,1-.061-.718.9.9,0,0,0-.044-.327.861.861,0,0,1,.007-.49c.086-.306.153-.618.24-.924a.722.722,0,0,0-.01-.448,3.534,3.534,0,0,1-.086-1.238.51.51,0,0,1,.052-.2c.114-.251.235-.5.352-.75s.217-.479.5-.575a.3.3,0,0,0,.18-.215,2.605,2.605,0,0,0,.157-.685,1.342,1.342,0,0,1,.38-.892,2.776,2.776,0,0,0,.607-.922,1.02,1.02,0,0,1,.441-.533,1.653,1.653,0,0,0,.469-.459,4.972,4.972,0,0,1,.476-.713c.106-.1.117-.3.189-.506a.934.934,0,0,0,.4-.814l-.113-.1a1.828,1.828,0,0,0,.621-.8,1.624,1.624,0,0,1,.3-.487c.205-.227.358-.489.547-.724.035-.043.054-.105.1-.135.122-.087.259-.154.378-.245a2.579,2.579,0,0,1,.337-.3.688.688,0,0,0,.359-.344h.382a.86.86,0,0,0,.548-.138.882.882,0,0,1,.726-.086,1.169,1.169,0,0,0,.613,0,1.625,1.625,0,0,1,.29-.019.428.428,0,0,0,.2-.039,1.678,1.678,0,0,1,.618-.227.337.337,0,0,0,.172-.1.575.575,0,0,1,.471-.218,1.37,1.37,0,0,0,.4-.09,2.657,2.657,0,0,1,.766-.167,4.13,4.13,0,0,0,.726-.157c.094-.022.185-.058.278-.084.413-.116.827-.226,1.238-.348a.844.844,0,0,1,.448-.042.621.621,0,0,0,.243,0,1.189,1.189,0,0,1,.844.115c.115.067.278.05.392.118a1.116,1.116,0,0,0,.8.083,6.258,6.258,0,0,0,.742-.082.74.74,0,0,1,.37.017.977.977,0,0,0,.869-.137.2.2,0,0,1,.34.144.679.679,0,0,0,.46.579,3.092,3.092,0,0,1,.633.466,1.069,1.069,0,0,0,.645.245.766.766,0,0,1,.431.131.706.706,0,0,0,.471.128q.146,0,.291,0a.616.616,0,0,1,.207.01,4.791,4.791,0,0,0,.53.226c.172.042.363.019.513.138a1.118,1.118,0,0,0,.584.2,1.408,1.408,0,0,1,.808.367,1.136,1.136,0,0,0,.654.327,1.371,1.371,0,0,1,.971.5.374.374,0,0,0,.326.149c.34-.016.547.23.788.405.047.034.053.124.066.156.293.177.564.338.83.5a.511.511,0,0,1,.146.147.77.77,0,0,0,.453.4.1.1,0,0,1,.064.051c.108.273.358.317.6.363a1.579,1.579,0,0,1,.387.815.376.376,0,0,0,.075.19.346.346,0,0,1,.038.315.727.727,0,0,0,.065.562.741.741,0,0,1,.06.362,1.187,1.187,0,0,0,1.1,1.145c.1.009.192.016.292.024a.977.977,0,0,1,.192.628,1.589,1.589,0,0,0,.183.8,2.161,2.161,0,0,1,.149.516c.031.134.046.272.064.409a.487.487,0,0,1,.006.2,2.622,2.622,0,0,0-.062.784.788.788,0,0,0,.169.542Z"/><path class="cls-1" d="M150.827,37.673a4.952,4.952,0,0,0-.244,1.129,1.891,1.891,0,0,1-.15.641,1.989,1.989,0,0,0-.175.762.826.826,0,0,1-.2.566,3.8,3.8,0,0,0-.826,1.6,1,1,0,0,1-.237.427,4.033,4.033,0,0,0-.405.673c-.1.182-.177.375-.269.56a.384.384,0,0,1-.1.133,2.514,2.514,0,0,0-.59.739,1.373,1.373,0,0,1-.16.191,2.668,2.668,0,0,1-.329.372c-.359.284-.622.662-.964.962a1.18,1.18,0,0,0-.127.105,3.438,3.438,0,0,1-1.542,1,8.671,8.671,0,0,0-1.449.5.2.2,0,0,1-.117.038,1.875,1.875,0,0,0-1.094.3c-.241.1-.461.256-.7.353a2.565,2.565,0,0,0-.6.359c-.264.2-.536.394-.812.578a1.333,1.333,0,0,1-.372.175,1.8,1.8,0,0,0-.88.662,1.1,1.1,0,0,1-.486.364,3.314,3.314,0,0,0-.635.306.773.773,0,0,1-.711.126.2.2,0,0,0-.123,0c-.357.108-.738.115-1.087.259a.971.971,0,0,1-.241.055c-.164.023-.329.04-.494.055a.307.307,0,0,1-.163,0c-.242-.133-.516-.062-.768-.126-.147-.038-.3-.058-.446-.094a.236.236,0,0,1-.14-.075c-.266-.446-.712-.472-1.156-.5-.1-.007-.195,0-.292-.01a7.734,7.734,0,0,1-.99-.093,2.078,2.078,0,0,1-.838-.332,1.3,1.3,0,0,0-1.26-.192c-.117.041-.234.087-.35.133a.649.649,0,0,1-.6-.044,3,3,0,0,0-1-.382.3.3,0,0,1-.241-.14c-.174-.307-.511-.361-.79-.5a1.02,1.02,0,0,0-.387-.008.4.4,0,0,0-.261-.319.335.335,0,0,1-.2-.254.775.775,0,0,0-.218-.347,3.882,3.882,0,0,0-.737-.783c-.2-.359-.615-.515-.829-.866a.33.33,0,0,0-.207-.12.354.354,0,0,1-.311-.343,1.148,1.148,0,0,0-.382-.715,3.264,3.264,0,0,1-.245-.329,3.029,3.029,0,0,0-.433-.437.089.089,0,0,0-.038-.017c-.193-.054-.24-.264-.387-.363a2.607,2.607,0,0,1-.425-.253,1.322,1.322,0,0,1-.3-.672,6.418,6.418,0,0,0-.2-.807,2.418,2.418,0,0,1-.166-.464c-.008-.054-.044-.116-.029-.161a.984.984,0,0,0-.065-.646.339.339,0,0,1,0-.2.681.681,0,0,0-.171-.689,10.519,10.519,0,0,1-.747-1.142.7.7,0,0,1-.085-.307,3.909,3.909,0,0,0-.147-.939,1.951,1.951,0,0,1-.057-.533.861.861,0,0,0-.1-.481.377.377,0,0,1-.053-.2c0-.455-.067-.905-.116-1.356a2.257,2.257,0,0,1,.009-.246c0-.083.03-.188-.009-.246a.989.989,0,0,1-.061-.718.9.9,0,0,0-.044-.327.861.861,0,0,1,.007-.49c.086-.306.153-.618.24-.924a.722.722,0,0,0-.01-.448,3.534,3.534,0,0,1-.086-1.238.51.51,0,0,1,.052-.2c.114-.251.235-.5.352-.75s.217-.479.5-.575a.3.3,0,0,0,.18-.215,2.605,2.605,0,0,0,.157-.685,1.342,1.342,0,0,1,.38-.892,2.776,2.776,0,0,0,.607-.922,1.02,1.02,0,0,1,.441-.533,1.653,1.653,0,0,0,.469-.459,4.972,4.972,0,0,1,.476-.713c.106-.1.117-.3.189-.506a.934.934,0,0,0,.4-.814l-.113-.1a1.828,1.828,0,0,0,.621-.8,1.624,1.624,0,0,1,.3-.487c.205-.227.358-.489.547-.724.035-.043.054-.105.1-.135.122-.087.259-.154.378-.245a2.579,2.579,0,0,1,.337-.3.688.688,0,0,0,.359-.344h.382a.86.86,0,0,0,.548-.138.882.882,0,0,1,.726-.086,1.169,1.169,0,0,0,.613,0,1.625,1.625,0,0,1,.29-.019.428.428,0,0,0,.2-.039,1.678,1.678,0,0,1,.618-.227.337.337,0,0,0,.172-.1.575.575,0,0,1,.471-.218,1.37,1.37,0,0,0,.4-.09,2.657,2.657,0,0,1,.766-.167,4.13,4.13,0,0,0,.726-.157c.094-.022.185-.058.278-.084.413-.116.827-.226,1.238-.348a.844.844,0,0,1,.448-.042.621.621,0,0,0,.243,0,1.189,1.189,0,0,1,.844.115c.115.067.278.05.392.118a1.116,1.116,0,0,0,.8.083,6.258,6.258,0,0,0,.742-.082.74.74,0,0,1,.37.017.977.977,0,0,0,.869-.137.2.2,0,0,1,.34.144.679.679,0,0,0,.46.579,3.092,3.092,0,0,1,.633.466,1.069,1.069,0,0,0,.645.245.766.766,0,0,1,.431.131.706.706,0,0,0,.471.128q.146,0,.291,0a.616.616,0,0,1,.207.01,4.791,4.791,0,0,0,.53.226c.172.042.363.019.513.138a1.118,1.118,0,0,0,.584.2,1.408,1.408,0,0,1,.808.367,1.136,1.136,0,0,0,.654.327,1.371,1.371,0,0,1,.971.5.374.374,0,0,0,.326.149c.34-.016.547.23.788.405.047.034.053.124.066.156.293.177.564.338.83.5a.511.511,0,0,1,.146.147.77.77,0,0,0,.453.4.1.1,0,0,1,.064.051c.108.273.358.317.6.363a1.579,1.579,0,0,1,.387.815.376.376,0,0,0,.075.19.346.346,0,0,1,.038.315.727.727,0,0,0,.065.562.741.741,0,0,1,.06.362,1.187,1.187,0,0,0,1.1,1.145c.1.009.192.016.292.024a.977.977,0,0,1,.192.628,1.589,1.589,0,0,0,.183.8,2.161,2.161,0,0,1,.149.516c.031.134.046.272.064.409a.487.487,0,0,1,.006.2,2.622,2.622,0,0,0-.062.784.788.788,0,0,0,.169.542Z"/><path class="cls-2" d="M839.775,43.5c-.1,0-.2.009-.3.013a3.534,3.534,0,0,1,.135-.762,1.036,1.036,0,0,0,0-.343c-.043-.532-.058-1.068-.142-1.593a10.991,10.991,0,0,1-.013-3.519,5.666,5.666,0,0,0-.008-1.142c-.015-.457-.058-.912-.066-1.368a6.183,6.183,0,0,0,.018-1.144,10,10,0,0,1-.063-2.286,10.842,10.842,0,0,0-.066-1.139,6.729,6.729,0,0,1-.165-1.809,4.946,4.946,0,0,0,.068-.834,5.03,5.03,0,0,1,.841.069,6.689,6.689,0,0,0,1.809-.165,10.842,10.842,0,0,1,1.139-.066c.352.006.7.026,1.056.032.014.239.034.478.03.716a41.257,41.257,0,0,1,.008,4.235,3.138,3.138,0,0,0,.061.452c.01.225,0,.45,0,.674a3.327,3.327,0,0,0,.028.788,8.559,8.559,0,0,1,.106,2.624,11.521,11.521,0,0,0,.028,3.087,2.692,2.692,0,0,1-.018.687c-.033.65-.088,1.3-.1,1.95,0,.272,0,.543-.009.815a.523.523,0,0,1-.145.02A41.543,41.543,0,0,0,839.775,43.5Z"/><path class="cls-2" d="M839.775,22.7c-.18,0-.362.014-.542.023a7.809,7.809,0,0,0-.1-1.348,4.871,4.871,0,0,1,.12-2.155,5.225,5.225,0,0,0,.134-2.27c-.053-.336-.048-.683-.068-1.024q-.034-.572-.071-1.14c-.054-.913-.135-1.825-.158-2.739a13.547,13.547,0,0,1,.094-1.719,13.385,13.385,0,0,1,.038-1.819,5.592,5.592,0,0,0-.081-1.7c-.03-.342-.1-.679-.132-1.021A1.279,1.279,0,0,1,840.2,4.31c.947-.177,1.92-.029,2.864-.207.216.041.43.087.661.135A12.441,12.441,0,0,1,844.08,7.8a13.864,13.864,0,0,0-.086,2.636,16.892,16.892,0,0,1,.023,2.4,18.627,18.627,0,0,0-.087,2.635,18.007,18.007,0,0,1,.041,2.4c-.013.454.046.91.074,1.366a20.076,20.076,0,0,1,.124,3.2c-.008.079-.006.157-.013.236a.535.535,0,0,1-.146.02A41.543,41.543,0,0,0,839.775,22.7Z"/><path class="cls-2" d="M840.023,48.445a6.689,6.689,0,0,0,1.809-.165,10.842,10.842,0,0,1,1.139-.066c.416.007.832.027,1.247.025a6.5,6.5,0,0,1,0,2.347c-.1.33.127.753.1,1.126-.122,1.786-.061,3.571-.054,5.357,0,.267.016.535.031.8a9.435,9.435,0,0,1,.063,1.252,7.5,7.5,0,0,0,.173,2.391,2.47,2.47,0,0,1,0,.9c-.074.61-.142,1.226-.185,1.842a1.137,1.137,0,0,1-.332.044,41.543,41.543,0,0,0-4.235.008c-.114,0-.23.01-.344.014a1.266,1.266,0,0,1-.061-.434,24.5,24.5,0,0,1,.4-4.56,3.38,3.38,0,0,0,.012-1.132,15.224,15.224,0,0,1-.175-2.964,6.585,6.585,0,0,0-.144-2.39,14.469,14.469,0,0,1,.048-2.823c0-.035.025-.071.038-.108a4.012,4.012,0,0,0,.173-1.485C839.821,48.433,839.92,48.426,840.023,48.445Z"/><path class="cls-2" d="M844.377,74.589a.234.234,0,0,1,.019.222.154.154,0,0,0,.008.111.258.258,0,0,1-.013.223,1.549,1.549,0,0,0-.052.3c.017-.318.015-.636.013-.954A.473.473,0,0,0,844.377,74.589Z"/><path class="cls-2" d="M844.51,79.045a1.092,1.092,0,0,0-.113-.479.415.415,0,0,1-.039-.283,1.02,1.02,0,0,0-.062-.572c-.046-.118-.066-.247-.114-.362a.357.357,0,0,1,0-.306.941.941,0,0,0,.038-.258,1.516,1.516,0,0,1,.018-.2,2.211,2.211,0,0,0,.022-.7c0-.024.013-.045.012-.069.019,0,.039,0,.057.007.01-.125,0-.249.005-.374.017-.318.015-.636.013-.954s0-.663-.021-.994c.022-.045.041-.09.065-.132a.4.4,0,0,0,.032-.309.674.674,0,0,1,.027-.457.326.326,0,0,0-.027-.358.44.44,0,0,1-.07-.254c-.065-.047-.123-.1-.192-.147,0-.02,0-.039-.005-.06a3.908,3.908,0,0,1,0-.8c.033-.649.07-1.3.106-1.946-.432,0-.864-.014-1.3-.021a10.842,10.842,0,0,0-1.139.066c-.136.013-.273.041-.409.065a15.845,15.845,0,0,0-1.706-.12.794.794,0,0,0-.061.327c.02.08.034.165.049.249a7.741,7.741,0,0,0,.074,1.432,7.651,7.651,0,0,1,.07,1.407l-.015.755c0,.116-.008.232-.007.347,0,.675-.011,1.35,0,2.024,0,.124,0,.249,0,.372,0,.044,0,.088,0,.131l.033-.006a.785.785,0,0,0,.227.386.206.206,0,0,1,.042.139c0,.138-.007.277,0,.416.01.236-.1.467-.031.708a.292.292,0,0,1-.025.147c-.046.145-.091.288-.142.431a1,1,0,0,1-.094.2c-.194.284-.271.625-.434.923a.175.175,0,0,0-.021.11.705.705,0,0,1-.246.61,3.055,3.055,0,0,0-.391.51,1.02,1.02,0,0,1-.416.366,1.641,1.641,0,0,0-.754.662,1.35,1.35,0,0,1-.226.3c-.216.211-.44.418-.668.616a2.3,2.3,0,0,0-.432.471c-.133.2-.311.365-.447.562a1.7,1.7,0,0,0-.469.922c0,.032-.032.068-.056.1a7.939,7.939,0,0,0-.716,1.2,3.146,3.146,0,0,1-1.18,1.191,1.118,1.118,0,0,0-.118.093c-.331.248-.717.413-1.038.681a2.416,2.416,0,0,1-.394.224,1.284,1.284,0,0,1-.2.108,2.278,2.278,0,0,0-.771.388.351.351,0,0,1-.136.062c-.182.049-.369.083-.549.137a3.657,3.657,0,0,0-.677.234.911.911,0,0,1-.427.133,3.465,3.465,0,0,0-1.581.438.752.752,0,0,1-.545.077,1.813,1.813,0,0,0-.711.015,1.755,1.755,0,0,1-.6.012,4.642,4.642,0,0,0-1.054.008l-.221-.046c.017-.075.017-.149.037-.223a2.666,2.666,0,0,0,.048-.286c-1.236-.172-2.484-.138-3.723-.2a17.67,17.67,0,0,0-2.175.132,2.578,2.578,0,0,1-.394.056,31.129,31.129,0,0,0-3.276,0c-1.29.037-2.583-.012-3.875-.014a2.513,2.513,0,0,0-.588.084,7.663,7.663,0,0,1-2.473.109c-.861-.073-1.724-.132-2.586-.163-.461-.018-.923.04-1.384.045-.43,0-.863-.012-1.293-.032a16.008,16.008,0,0,0-1.983.013,7.688,7.688,0,0,1-2.765-.222,2.578,2.578,0,0,0-.978-.058,6.738,6.738,0,0,1-2.262-.013,2.81,2.81,0,0,0-1.574.056,1.44,1.44,0,0,1-.972.01,1.6,1.6,0,0,0-.784-.044,1.666,1.666,0,0,1-.973-.068,1.146,1.146,0,0,0-.49-.057c-.657.046-1.315.108-1.974.163-.1.008-.214.053-.291.016-.454-.217-.911-.041-1.368-.053a4.867,4.867,0,0,1-1.767-.083.969.969,0,0,0-.4-.016c-.724.045-1.45.1-2.174.144-.288.018-.288.008-.89-.454a2.746,2.746,0,0,1-.642.377,5.254,5.254,0,0,1-.789.029,9.221,9.221,0,0,1-2.376.038,3.868,3.868,0,0,1-.781-.138,2.849,2.849,0,0,0-.972-.052,8.67,8.67,0,0,1-2.553-.047,1.093,1.093,0,0,0-.493-.023c-.784.131-1.575.187-2.366.257a12.018,12.018,0,0,1-1.685.043c-.231-.012-.463.014-.694.023-.131,0-.306.066-.385,0-.54-.421-1.141-.188-1.722-.219-.424-.023-.843-.208-1.264-.209s-.787.257-1.237.288a7.467,7.467,0,0,1-2.56-.094,1.869,1.869,0,0,0-.881.083,1.941,1.941,0,0,1-1.167-.046,1.6,1.6,0,0,0-1.352.043c-.086.046-.207.119-.274.091-.687-.279-1.378.069-2.07-.031a3.159,3.159,0,0,0-1.481.033.2.2,0,0,1-.1.01,6.238,6.238,0,0,0-2.249-.117c-.555-.265-1.194.083-1.745-.236a.324.324,0,0,0-.283.035,2.014,2.014,0,0,1-1.347.212,2.852,2.852,0,0,0-.692.044,2.093,2.093,0,0,1-1.076-.058,2.313,2.313,0,0,0-.872-.077,7.347,7.347,0,0,1-1.769.067,7.72,7.72,0,0,0-1.875.064,3.872,3.872,0,0,1-1.069-.055,3.733,3.733,0,0,0-2.707.227,2.046,2.046,0,0,1-1.56,0,5.9,5.9,0,0,0-2.357-.208.88.88,0,0,1-.389-.05,2.154,2.154,0,0,0-1.076-.018c-.588.087-1.184.115-1.779.145-.264.014-.529-.04-.795-.038-.462,0-.924.027-1.386.037a1.19,1.19,0,0,1-.489-.013,2.5,2.5,0,0,0-1.56-.071,3.429,3.429,0,0,1-.8-.021,8.22,8.22,0,0,0-2.182.022,4.809,4.809,0,0,1-.794-.011,5.53,5.53,0,0,0-1.079.107,5.06,5.06,0,0,1-1.579.12c-1.657-.113-3.314-.222-4.973-.311-.461-.024-.924.033-1.385.046-.3.007-.6.014-.894,0a7.316,7.316,0,0,0-2.084.033,2.012,2.012,0,0,1-.594-.01,20.06,20.06,0,0,0-2.859.006c-.361.027-.73-.045-1.093-.047-.4,0-.791.027-1.187.045a1.207,1.207,0,0,1-.394.019,6.471,6.471,0,0,0-2.45,0,6.161,6.161,0,0,1-2.266-.173.864.864,0,0,0-.677.009,2.462,2.462,0,0,1-1.367.155,15.493,15.493,0,0,0-3.763.121,3.513,3.513,0,0,1-.695-.006c-.9-.052-1.79-.115-2.686-.165a19.281,19.281,0,0,0-2.082,0,14.9,14.9,0,0,1-2.667-.207,2.159,2.159,0,0,0-.777-.01,6.527,6.527,0,0,1-2.073.137,7.5,7.5,0,0,0-1.088.047c-.231.011-.464.022-.695.02-1.55,0-3.1.04-4.646-.078-.325-.025-.692.175-.979.081a6.59,6.59,0,0,0-2.157-.008,3.233,3.233,0,0,1-.58-.068,4.406,4.406,0,0,0-1.776-.027,9.587,9.587,0,0,1-2.364.1c-.565-.016-1.127-.066-1.691-.1a2.487,2.487,0,0,0-.595-.019,9.98,9.98,0,0,1-2.68.007,7.468,7.468,0,0,0-2.277.076,2.913,2.913,0,0,1-.681.019c-.2,0-.391-.015-.586-.009a2.618,2.618,0,0,1-.393.052,35.735,35.735,0,0,0-3.674-.019c-.395-.01-.791.03-1.189.041-.3.01-.6.025-.892.008-.962-.05-1.927-.08-2.884-.181a8.3,8.3,0,0,0-1.374-.01,4.679,4.679,0,0,0,.261.392A.094.094,0,0,1,649.8,89c-.083.007-.166.016-.25.022a2.578,2.578,0,0,1-.394.056,31.129,31.129,0,0,0-3.276,0c-1.29.037-2.583-.012-3.875-.014a2.513,2.513,0,0,0-.588.084,7.663,7.663,0,0,1-2.473.109c-.861-.073-1.724-.132-2.586-.163-.461-.018-.923.04-1.384.045-.43,0-.863-.012-1.293-.032a16.008,16.008,0,0,0-1.983.013,7.688,7.688,0,0,1-2.765-.222,2.578,2.578,0,0,0-.978-.058,6.738,6.738,0,0,1-2.262-.013,2.81,2.81,0,0,0-1.574.056,1.44,1.44,0,0,1-.972.01,1.6,1.6,0,0,0-.784-.044,1.666,1.666,0,0,1-.973-.068,1.146,1.146,0,0,0-.49-.057c-.657.046-1.315.108-1.974.163-.1.008-.214.053-.291.016-.454-.217-.911-.041-1.368-.053a4.867,4.867,0,0,1-1.767-.083.969.969,0,0,0-.4-.016c-.724.045-1.45.1-2.174.144-.288.018-.288.008-.89-.454a2.746,2.746,0,0,1-.642.377,5.254,5.254,0,0,1-.789.029,9.221,9.221,0,0,1-2.376.038,3.868,3.868,0,0,1-.781-.138,2.849,2.849,0,0,0-.972-.052,8.67,8.67,0,0,1-2.553-.047,1.093,1.093,0,0,0-.493-.023c-.784.131-1.575.187-2.366.257a12.018,12.018,0,0,1-1.685.043c-.231-.012-.463.014-.694.023-.131,0-.306.066-.385,0-.54-.421-1.141-.188-1.722-.219-.424-.023-.843-.208-1.264-.209s-.787.257-1.237.288a7.467,7.467,0,0,1-2.56-.094,1.869,1.869,0,0,0-.881.083,1.941,1.941,0,0,1-1.167-.046,1.6,1.6,0,0,0-1.352.043c-.086.046-.207.119-.274.091-.687-.279-1.378.069-2.07-.031a3.159,3.159,0,0,0-1.481.033.2.2,0,0,1-.1.01,6.238,6.238,0,0,0-2.249-.117c-.555-.265-1.194.083-1.745-.236a.324.324,0,0,0-.283.035,2.014,2.014,0,0,1-1.347.212,2.852,2.852,0,0,0-.692.044,2.093,2.093,0,0,1-1.076-.058,2.313,2.313,0,0,0-.872-.077,7.347,7.347,0,0,1-1.769.067,7.72,7.72,0,0,0-1.875.064,3.872,3.872,0,0,1-1.069-.055,3.733,3.733,0,0,0-2.707.227,2.046,2.046,0,0,1-1.56,0,5.9,5.9,0,0,0-2.357-.208.88.88,0,0,1-.389-.05,2.154,2.154,0,0,0-1.076-.018c-.588.087-1.184.115-1.779.145-.264.014-.529-.04-.795-.038-.462,0-.924.027-1.386.037a1.19,1.19,0,0,1-.489-.013,2.5,2.5,0,0,0-1.56-.071,3.429,3.429,0,0,1-.8-.021,8.22,8.22,0,0,0-2.182.022,4.809,4.809,0,0,1-.794-.011,5.53,5.53,0,0,0-1.079.107,5.06,5.06,0,0,1-1.579.12c-1.657-.113-3.314-.222-4.973-.311-.461-.024-.924.033-1.385.046-.3.007-.6.014-.894,0a7.316,7.316,0,0,0-2.084.033,2.012,2.012,0,0,1-.594-.01,20.06,20.06,0,0,0-2.859.006c-.361.027-.73-.045-1.093-.047-.4,0-.791.027-1.187.045a1.207,1.207,0,0,1-.394.019,6.471,6.471,0,0,0-2.45,0,6.161,6.161,0,0,1-2.266-.173.864.864,0,0,0-.677.009,2.462,2.462,0,0,1-1.367.155,15.493,15.493,0,0,0-3.763.121,3.513,3.513,0,0,1-.695-.006c-.9-.052-1.79-.115-2.686-.165a19.281,19.281,0,0,0-2.082,0,14.9,14.9,0,0,1-2.667-.207,2.159,2.159,0,0,0-.777-.01,6.527,6.527,0,0,1-2.073.137,7.5,7.5,0,0,0-1.088.047c-.231.011-.464.022-.695.02-1.55,0-3.1.04-4.646-.078-.325-.025-.692.175-.979.081a6.59,6.59,0,0,0-2.157-.008,3.233,3.233,0,0,1-.58-.068,4.406,4.406,0,0,0-1.776-.027,9.587,9.587,0,0,1-2.364.1c-.565-.016-1.127-.066-1.691-.1a2.487,2.487,0,0,0-.6-.019,9.98,9.98,0,0,1-2.68.007,7.468,7.468,0,0,0-2.277.076,2.913,2.913,0,0,1-.681.019c-.2,0-.391-.015-.586-.009a2.618,2.618,0,0,1-.393.052,35.735,35.735,0,0,0-3.674-.019c-.395-.01-.791.03-1.189.041-.3.01-.6.025-.892.008-.962-.05-1.927-.08-2.884-.181a8.3,8.3,0,0,0-1.374-.01,4.679,4.679,0,0,0,.261.392,2.478,2.478,0,0,1,.166.3c-.2-.009-.405,0-.61-.023-.861-.073-1.724-.132-2.586-.163-.461-.018-.923.04-1.384.045-.43,0-.863-.012-1.293-.032a16.008,16.008,0,0,0-1.983.013,7.688,7.688,0,0,1-2.765-.222,2.578,2.578,0,0,0-.978-.058,6.738,6.738,0,0,1-2.262-.013,2.81,2.81,0,0,0-1.574.056,1.44,1.44,0,0,1-.972.01,1.6,1.6,0,0,0-.784-.044,1.666,1.666,0,0,1-.973-.068,1.146,1.146,0,0,0-.49-.057l-.362.029a.95.95,0,0,1-.092-.262c-.024-.3-.263-.407-.485-.232a1.257,1.257,0,0,1-1.238.22.932.932,0,0,0-.527-.025,8.324,8.324,0,0,1-1.056.132,1.433,1.433,0,0,1-1.138-.135c-.161-.109-.394-.082-.558-.189a1.526,1.526,0,0,0-1.2-.187.781.781,0,0,1-.347,0,1.089,1.089,0,0,0-.639.067c-.375.127-.755.244-1.135.362-.03-.024-.046-.035-.081-.062-.078.048-.16.108-.241.164l-.305.1c-.133.041-.261.1-.4.135l-.01,0a5.157,5.157,0,0,1-1.023.25,3.41,3.41,0,0,0-1.093.268,1.814,1.814,0,0,1-.57.145.782.782,0,0,0-.672.35.462.462,0,0,1-.245.166,2.213,2.213,0,0,0-.88.367.541.541,0,0,1-.287.061,2,2,0,0,0-.412.032,1.472,1.472,0,0,1-.874,0,1.128,1.128,0,0,0-1.033.14,1.133,1.133,0,0,1-.782.222c-.175,0-.352,0-.543,0a1.05,1.05,0,0,1-.511.553c-.184.106-.312.33-.481.478s-.364.255-.538.394c-.061.05-.088.148-.136.218-.27.378-.487.8-.779,1.165a2.618,2.618,0,0,0-.431.785,2.959,2.959,0,0,1-.618,1,3,3,0,0,1-.267.3l.16.153a1.565,1.565,0,0,1-.572,1.31,2.5,2.5,0,0,1-.268.816,7.917,7.917,0,0,0-.678,1.146,2.522,2.522,0,0,1-.669.74,1.612,1.612,0,0,0-.629.858,4.564,4.564,0,0,1-.863,1.484,2.3,2.3,0,0,0-.542,1.436,4.638,4.638,0,0,1-.225,1.1.475.475,0,0,1-.256.347c-.4.155-.547.543-.707.926-.167.4-.339.8-.5,1.207a.873.873,0,0,0-.073.317,6.378,6.378,0,0,0,.122,1.993,1.308,1.308,0,0,1,.014.721c-.125.493-.22.994-.342,1.487a1.574,1.574,0,0,0-.01.789,1.6,1.6,0,0,1,.063.526,1.79,1.79,0,0,0,.087,1.157c.056.094.015.261.012.394s-.024.267-.012.4c.069.726.157,1.45.165,2.182a.656.656,0,0,0,.076.316,1.549,1.549,0,0,1,.14.775,3.408,3.408,0,0,0,.08.857,6.962,6.962,0,0,1,.209,1.51,1.213,1.213,0,0,0,.122.5,17.385,17.385,0,0,0,1.064,1.839,1.193,1.193,0,0,1,.243,1.108.622.622,0,0,0,0,.326,1.783,1.783,0,0,1,.093,1.04c-.023.072.029.171.041.259a4.174,4.174,0,0,0,.236.748,11.107,11.107,0,0,1,.28,1.3,2.279,2.279,0,0,0,.424,1.083,3.571,3.571,0,0,0,.605.406c.209.162.276.5.552.586a.115.115,0,0,1,.053.026,4.724,4.724,0,0,1,.617.7,5.51,5.51,0,0,0,.349.53,1.929,1.929,0,0,1,.544,1.15.553.553,0,0,0,.444.554.457.457,0,0,1,.3.193c.3.564.895.815,1.18,1.394a6.022,6.022,0,0,1,1.051,1.259,1.3,1.3,0,0,1,.31.559.534.534,0,0,0,.282.409.628.628,0,0,1,.372.514c.208,0,.41-.065.551.012.4.221.877.308,1.125.8a.429.429,0,0,0,.344.225,3.972,3.972,0,0,1,1.429.614.832.832,0,0,0,.855.071c.165-.074.33-.147.5-.214a1.684,1.684,0,0,1,1.794.308,2.75,2.75,0,0,0,1.193.536,10.182,10.182,0,0,0,1.41.15c.139.011.278,0,.415.015.634.049,1.269.09,1.648.809a.322.322,0,0,0,.2.12c.21.059.425.092.634.151.361.1.749-.011,1.1.2a.4.4,0,0,0,.232.009c.235-.025.471-.053.705-.089a1.232,1.232,0,0,0,.342-.089,14.759,14.759,0,0,1,1.549-.417.263.263,0,0,1,.175,0,1,1,0,0,0,1.012-.2,4.542,4.542,0,0,1,.9-.491,1.611,1.611,0,0,0,.693-.588,2.647,2.647,0,0,1,1.253-1.065,1.83,1.83,0,0,0,.531-.28c.394-.3.781-.607,1.157-.932a3.614,3.614,0,0,1,.859-.577c.345-.157.658-.4,1-.568a2.445,2.445,0,0,1,1.559-.478.267.267,0,0,0,.168-.063,11.461,11.461,0,0,1,2.062-.8,4.9,4.9,0,0,0,2.2-1.608,1.456,1.456,0,0,1,.18-.17c.486-.482.862-1.09,1.373-1.549a4.153,4.153,0,0,0,.469-.6,2.108,2.108,0,0,0,.227-.306,3.977,3.977,0,0,1,.841-1.189.644.644,0,0,0,.139-.214c.131-.3.244-.609.384-.9a6.579,6.579,0,0,1,.576-1.084,1.707,1.707,0,0,0,.339-.688,6.421,6.421,0,0,1,1.176-2.575,1.443,1.443,0,0,0,.29-.913,3.578,3.578,0,0,1,.249-1.225,3.327,3.327,0,0,0,.213-1.033,9.014,9.014,0,0,1,.349-1.816v-9.39a1.379,1.379,0,0,1-.241-.871,4.819,4.819,0,0,1,.088-1.263.873.873,0,0,0-.008-.329c-.025-.221-.047-.443-.091-.659a3.785,3.785,0,0,0-.213-.83,2.834,2.834,0,0,1-.261-1.288,1.707,1.707,0,0,0-.273-1.01l-.415-.038a1.82,1.82,0,0,1-1.57-1.844,1.341,1.341,0,0,0-.085-.584,1.3,1.3,0,0,1-.094-.9.615.615,0,0,0-.054-.507.658.658,0,0,1-.107-.306,2.7,2.7,0,0,0-.551-1.312c-.35-.073-.706-.144-.86-.585a.147.147,0,0,0-.091-.08c-.321-.083-.481-.364-.646-.646a.8.8,0,0,0-.207-.238c-.38-.269-.766-.526-1.182-.812-.018-.052-.028-.2-.094-.251-.344-.282-.639-.678-1.124-.653a.506.506,0,0,1-.463-.24,1.934,1.934,0,0,0-.4-.362.949.949,0,0,0,.477.041,1.468,1.468,0,0,1,1.366.424,4.347,4.347,0,0,0,1.5.76,1.01,1.01,0,0,0,.278-.115,1.288,1.288,0,0,1,1.736-.071,1.825,1.825,0,0,0,1.693.266c.284-.086.587-.115.874-.2a1.344,1.344,0,0,1,.969.019,1.671,1.671,0,0,0,1.168-.005,2.628,2.628,0,0,1,1.269-.067,2.436,2.436,0,0,0,1.453-.173,2.308,2.308,0,0,1,.765-.15,14.721,14.721,0,0,1,1.485-.043,1.9,1.9,0,0,1,.757.192,2.167,2.167,0,0,0,1.739.048c.345-.112.7-.19,1.048-.288a6.783,6.783,0,0,1,2.736.246,6.8,6.8,0,0,0,3.207.005c.029-.186.053-.438.114-.679a3.015,3.015,0,0,1,.121-.354,5.794,5.794,0,0,1,1.648-.048,13.175,13.175,0,0,0,2.572-.136,2.921,2.921,0,0,1,.98.019,21.285,21.285,0,0,0,3.955.374,1.9,1.9,0,0,0,.585-.105,14.769,14.769,0,0,1,2.546-.184c1.026-.06,2.043.138,3.074-.023a13.738,13.738,0,0,1,2.177-.027,23.143,23.143,0,0,0,2.567,0,14.645,14.645,0,0,1,2.084,0,14.514,14.514,0,0,0,2.977.022,12.13,12.13,0,0,1,1.881-.063,1,1,0,0,1,.288.065,4.463,4.463,0,0,0,2.358.061,5.429,5.429,0,0,1,1.78-.1,5,5,0,0,0,1.686-.034,2.546,2.546,0,0,1,.693-.008,15.138,15.138,0,0,0,2.483-.005,10.605,10.605,0,0,1,1.886.083,6.9,6.9,0,0,0,1.983-.03,1.694,1.694,0,0,1,.791.019,12.1,12.1,0,0,0,2.366.134c.294.019.592-.071.888-.064a7.48,7.48,0,0,1,1.967-.014,2.778,2.778,0,0,0,1.175-.083,6.065,6.065,0,0,1,3.329.308,4.437,4.437,0,0,1,1.724-.383,22.924,22.924,0,0,1,2.977,0c.2.008.392-.056.59-.067a2.718,2.718,0,0,1,.89-.008,11.6,11.6,0,0,0,3.145.111c.1,0,.245-.045.286,0,.457.519.921.105,1.382.03a1.009,1.009,0,0,1,.158.009c.416.842,1.329.776,2.09,1.021l.812-.374c-.04-.233-.07-.416-.1-.6,1.2-.308,1.449-.249,1.755.448l.769-.114c-.026-.178-.045-.3-.062-.414a.8.8,0,0,1,.142-.134A.892.892,0,0,1,564.5,93a2.684,2.684,0,0,0,1.562.1,2.915,2.915,0,0,1,1.474.109,3.337,3.337,0,0,0,.778.151,1.492,1.492,0,0,1,1.046.4,1.844,1.844,0,0,0,1.517.313c.328-.035.652-.105,1.059-.172-.162-.186-.3-.342-.49-.558.119-.054.231-.155.316-.136a4.384,4.384,0,0,0,2.243-.081,4.543,4.543,0,0,1,2.439.18,9.175,9.175,0,0,0,3.14.155,1.661,1.661,0,0,1,.882,0,.463.463,0,0,0,.373-.055.657.657,0,0,1,.9,0,.7.7,0,0,0,.459.084,3.465,3.465,0,0,1,1.374.143,3.424,3.424,0,0,0,.979.082c.457,0,.914-.049,1.464-.08.208-.365.6-.388,1.047-.2.274.119.542.249.823.348a1.908,1.908,0,0,0,1.35.151.569.569,0,0,1,.477.049c.382.328.936.332,1.278.739a1.153,1.153,0,0,0,.816.315,11.606,11.606,0,0,1,2.47.262.538.538,0,0,0,.374-.075,1.768,1.768,0,0,1,1.45-.037,4.3,4.3,0,0,0,2.159.132,1.312,1.312,0,0,1,.965.124,1.742,1.742,0,0,0,1.7-.026.962.962,0,0,1,.942-.055c.819.494,1.585.166,2.477-.037-.129-.214-.179-.389-.292-.459a4.022,4.022,0,0,0-.721-.311c-.306-.112-.619-.207-.913-.3,0-.316.188-.314.33-.261.556.208,1.105.439,1.653.665a1.669,1.669,0,0,0,.443.2,10.33,10.33,0,0,0,1.985.06,5.265,5.265,0,0,0,2.019-.463.915.915,0,0,1,.772.036,3.114,3.114,0,0,0,1.67.07,1.41,1.41,0,0,0,.88-.395c.168-.2.4-.215.674.006l-.191.281c.023.03.056.1.093.107.8.057,1.591.133,2.387.147a9.646,9.646,0,0,0,1.3-.147c.12-.288.23-.553.334-.807,1.159.072,2.279-.014,3.395.109a.489.489,0,0,0,.292-.033,1.211,1.211,0,0,1,1.309.023,1.148,1.148,0,0,0,1.14-.125,3.436,3.436,0,0,1,1.619-.383,1.628,1.628,0,0,0,.68-.078,2.364,2.364,0,0,1,1.356-.19c.726.02,1.457-.006,2.182.044a9.956,9.956,0,0,1,1.26.259,1.89,1.89,0,0,0,.772.116,1.468,1.468,0,0,1,1.366.424,4.347,4.347,0,0,0,1.5.76,1.01,1.01,0,0,0,.278-.115,1.288,1.288,0,0,1,1.736-.071,1.825,1.825,0,0,0,1.693.266c.284-.086.587-.115.874-.2a1.344,1.344,0,0,1,.969.019,1.671,1.671,0,0,0,1.168-.005,2.628,2.628,0,0,1,1.269-.067,2.436,2.436,0,0,0,1.453-.173,2.308,2.308,0,0,1,.765-.15,14.721,14.721,0,0,1,1.485-.043,1.9,1.9,0,0,1,.757.192,2.167,2.167,0,0,0,1.739.048c.345-.112.7-.19,1.048-.288a6.783,6.783,0,0,1,2.736.246,6.8,6.8,0,0,0,3.207.005c.029-.186.053-.438.114-.679a3.929,3.929,0,0,1,.143-.416c.3-.026.6-.052.906-.074a.82.82,0,0,1,.3.006,10.24,10.24,0,0,0,2.467.125,9.055,9.055,0,0,0,1.874-.153,3.876,3.876,0,0,1,1.865.127c.031.012.062.036.092.035a12.837,12.837,0,0,0,2.448.058,5.761,5.761,0,0,1,2.077-.11,13.175,13.175,0,0,0,2.572-.136,2.921,2.921,0,0,1,.98.019,21.285,21.285,0,0,0,3.955.374,1.9,1.9,0,0,0,.585-.105,14.769,14.769,0,0,1,2.546-.184c1.026-.06,2.043.138,3.074-.023a13.738,13.738,0,0,1,2.177-.027,23.143,23.143,0,0,0,2.567,0,14.645,14.645,0,0,1,2.084,0,14.514,14.514,0,0,0,2.977.022,12.13,12.13,0,0,1,1.881-.063,1,1,0,0,1,.288.065,4.463,4.463,0,0,0,2.358.061,5.429,5.429,0,0,1,1.78-.1,5,5,0,0,0,1.686-.034,2.546,2.546,0,0,1,.693-.008,15.138,15.138,0,0,0,2.483-.005,10.605,10.605,0,0,1,1.886.083,6.9,6.9,0,0,0,1.983-.03,1.694,1.694,0,0,1,.791.019,12.1,12.1,0,0,0,2.366.134c.294.019.592-.071.888-.064a7.48,7.48,0,0,1,1.967-.014,2.778,2.778,0,0,0,1.175-.083,6.065,6.065,0,0,1,3.329.308,4.437,4.437,0,0,1,1.724-.383,22.924,22.924,0,0,1,2.977,0c.2.008.392-.056.59-.067a2.718,2.718,0,0,1,.89-.008,11.6,11.6,0,0,0,3.145.111c.1,0,.245-.045.286,0,.457.519.921.105,1.382.03a1.009,1.009,0,0,1,.158.009c.416.842,1.329.776,2.09,1.021l.812-.374c-.04-.233-.07-.416-.1-.6,1.2-.308,1.449-.249,1.755.448l.769-.114c-.026-.178-.045-.3-.062-.414a.8.8,0,0,1,.142-.134A.892.892,0,0,1,733.5,93a2.684,2.684,0,0,0,1.562.1,2.915,2.915,0,0,1,1.474.109,3.337,3.337,0,0,0,.778.151,1.492,1.492,0,0,1,1.046.4,1.844,1.844,0,0,0,1.517.313c.328-.035.652-.105,1.059-.172-.162-.186-.3-.342-.49-.558.119-.054.231-.155.316-.136a4.384,4.384,0,0,0,2.243-.081,4.543,4.543,0,0,1,2.439.18,9.175,9.175,0,0,0,3.14.155,1.661,1.661,0,0,1,.882,0,.463.463,0,0,0,.373-.055.657.657,0,0,1,.9,0,.7.7,0,0,0,.459.084,3.465,3.465,0,0,1,1.374.143,3.424,3.424,0,0,0,.979.082c.457,0,.914-.049,1.464-.08.208-.365.6-.388,1.047-.2.274.119.542.249.823.348a1.908,1.908,0,0,0,1.35.151.569.569,0,0,1,.477.049c.382.328.936.332,1.278.739a1.153,1.153,0,0,0,.816.315,11.606,11.606,0,0,1,2.47.262.538.538,0,0,0,.374-.075,1.768,1.768,0,0,1,1.45-.037,4.3,4.3,0,0,0,2.159.132,1.312,1.312,0,0,1,.965.124,1.742,1.742,0,0,0,1.7-.026.962.962,0,0,1,.942-.055c.819.494,1.585.166,2.477-.037-.129-.214-.179-.389-.292-.459a4.022,4.022,0,0,0-.721-.311c-.306-.112-.619-.207-.913-.3,0-.316.188-.314.33-.261.556.208,1.105.439,1.653.665a1.669,1.669,0,0,0,.443.2,10.33,10.33,0,0,0,1.985.06,5.265,5.265,0,0,0,2.019-.463.915.915,0,0,1,.772.036,3.114,3.114,0,0,0,1.67.07,1.41,1.41,0,0,0,.88-.395c.168-.2.4-.215.674.006l-.191.281c.023.03.056.1.093.107.8.057,1.591.133,2.387.147a9.646,9.646,0,0,0,1.3-.147c.12-.288.23-.553.334-.807,1.159.072,2.279-.014,3.395.109a.489.489,0,0,0,.292-.033,1.211,1.211,0,0,1,1.309.023,1.148,1.148,0,0,0,1.14-.125,3.436,3.436,0,0,1,1.619-.383,1.628,1.628,0,0,0,.68-.078,2.364,2.364,0,0,1,1.356-.19c.726.02,1.457-.006,2.182.044a9.956,9.956,0,0,1,1.26.259,1.89,1.89,0,0,0,.772.116,1.468,1.468,0,0,1,1.366.424,4.347,4.347,0,0,0,1.5.76,1.01,1.01,0,0,0,.278-.115,1.288,1.288,0,0,1,1.736-.071,1.825,1.825,0,0,0,1.693.266c.284-.086.587-.115.874-.2a1.344,1.344,0,0,1,.969.019,1.671,1.671,0,0,0,1.168-.005,2.628,2.628,0,0,1,1.269-.067,2.436,2.436,0,0,0,1.453-.173,2.308,2.308,0,0,1,.765-.15,14.721,14.721,0,0,1,1.485-.043,1.9,1.9,0,0,1,.757.192,2.167,2.167,0,0,0,1.739.048c.345-.112.7-.19,1.048-.288a6.783,6.783,0,0,1,2.736.246,7.861,7.861,0,0,0,2.882.075,2.5,2.5,0,0,0,.292.1.216.216,0,0,0,.142,0,.892.892,0,0,1,.4-.019,1.438,1.438,0,0,1,.394.08,1.528,1.528,0,0,0,.835,0,2.143,2.143,0,0,0,.251-.077.778.778,0,0,1,.54,0,1.842,1.842,0,0,0,.866.068,2.566,2.566,0,0,0,.51-.092.584.584,0,0,1,.51.069.77.77,0,0,1,.594-.089.589.589,0,0,0,.438-.11.351.351,0,0,1,.383-.05.447.447,0,0,0,.284.022c.133-.02.269-.025.405-.035.029,0,.062.01.088,0a2.856,2.856,0,0,0,1.01-.431.524.524,0,0,0,.123-.157.372.372,0,0,1,.2-.2,2.958,2.958,0,0,0,.6-.406.746.746,0,0,0,.259-.312.384.384,0,0,1,.364-.245c.116-.008.235-.009.346-.027a1.365,1.365,0,0,0,.551-.134,2.745,2.745,0,0,1,.426-.186.284.284,0,0,0,.082-.03.986.986,0,0,1,.449-.192.347.347,0,0,0,.146-.086c.161-.141.316-.286.484-.437.076-.006.162-.022.248-.022a.294.294,0,0,0,.28-.179.6.6,0,0,1,.279-.322c.032-.014.048-.06.074-.088.072-.078.141-.16.217-.233a.962.962,0,0,0,.273-.406c.076-.253.172-.31.435-.257a.384.384,0,0,0,.417-.136c.082-.113.218-.077.307-.148s.141-.175.231-.21a1.529,1.529,0,0,0,.479-.322,1.3,1.3,0,0,1,.429-.288.822.822,0,0,0,.388-.38,2.82,2.82,0,0,1,.542-.6,3.64,3.64,0,0,0,.39-.426.334.334,0,0,0,.089-.269.291.291,0,0,1,.161-.29,5.815,5.815,0,0,0,.581-.527.49.49,0,0,0,.119-.262c.053-.217.091-.439.137-.659a1.281,1.281,0,0,1,.37-.678c.173-.166.313-.367.5-.524.074-.065.09-.2.161-.269s.19-.072.244-.14a2.577,2.577,0,0,0,.222-.407,1.144,1.144,0,0,1,.058-.165,1.693,1.693,0,0,0,.253-.74.994.994,0,0,1,.23-.5.653.653,0,0,0,.092-.178c.038-.1.067-.2.1-.3a.406.406,0,0,0,.025-.084c.028-.241.047-.483.082-.723a.7.7,0,0,1,.205-.411c.113-.105.234-.2.382-.326a.816.816,0,0,1,.061-.15.383.383,0,0,0,.029-.255C844.545,79.393,844.517,79.219,844.51,79.045ZM614.318,93.627c-.081-.055-.093-.213-.136-.325.113-.034.255-.132.336-.094.473.213.932.457,1.524.755A3.079,3.079,0,0,1,614.318,93.627Zm169,0c-.081-.055-.093-.213-.136-.325.113-.034.255-.132.336-.094.473.213.932.457,1.524.755A3.079,3.079,0,0,1,783.318,93.627Z"/><path class="cls-3" d="M71.124,34.775l-.131,9.387H69.044V42.446a6.747,6.747,0,0,1-5.019,2c-2.86-.026-4.472-1.534-4.472-3.927,0-2.756,2.834-3.977,9.179-4.472l.025-1.013c.026-1.821-.182-3.355-3.016-3.355A11.235,11.235,0,0,0,60.749,32.9l-.624-1.95a12.559,12.559,0,0,1,5.8-1.378C70.629,29.575,71.149,31.967,71.124,34.775ZM68.653,40.86l.052-2.912c-4.784.39-6.812,1.065-6.812,2.521,0,1.2.832,1.9,2.444,1.925A6.391,6.391,0,0,0,68.653,40.86Z"/><path class="cls-4" d="M105.235,36.465c0,5.72-2.834,7.957-7.1,7.957a16.032,16.032,0,0,1-5.122-.754V22.841h2.34v6.241l-.208,2.21A7.012,7.012,0,0,1,99.8,29.575C103.337,29.6,105.235,32.071,105.235,36.465Zm-2.366.26c0-3.25-1.144-5.017-3.354-5.044a6.991,6.991,0,0,0-4.16,1.352v8.919a10.9,10.9,0,0,0,2.964.364C101.465,42.316,102.869,40.444,102.869,36.725Z"/><path class="cls-3" d="M125.618,37.168c0-5.174,3.147-7.567,7.125-7.567a11.035,11.035,0,0,1,5.2,1.17l-.676,2.107a9.358,9.358,0,0,0-4.732-1.17c-2.757,0-4.525,1.637-4.525,5.33,0,3.639,1.405,5.278,4.525,5.278a8.907,8.907,0,0,0,4.732-1.326l.624,2.054a10.6,10.6,0,0,1-5.408,1.378C128.114,44.422,125.618,42.03,125.618,37.168Z"/><path class="cls-4" d="M170.6,22.841V44.162H168.57V42.628a6.886,6.886,0,0,1-4.757,1.82c-3.537-.026-5.435-2.5-5.435-6.891,0-5.719,2.834-7.956,7.1-7.956a17.345,17.345,0,0,1,2.781.208V22.841ZM168.258,40.99V32.071a10.886,10.886,0,0,0-2.963-.363c-3.146,0-4.551,1.872-4.551,5.59,0,3.25,1.144,5.018,3.354,5.043A6.974,6.974,0,0,0,168.258,40.99Z"/><path class="cls-3" d="M194.128,37.038c0,3.639,1.534,5.278,4.55,5.278a9.362,9.362,0,0,0,4.732-1.223l.624,1.951a10.6,10.6,0,0,1-5.408,1.378c-4.238,0-6.864-2.392-6.864-7.254s2.99-7.567,6.734-7.567c4.264,0,6.162,2.653,5.59,7.28h-9.958Zm.182-2.029h7.54c-.052-2.392-1.17-3.379-3.51-3.379A3.811,3.811,0,0,0,194.31,35.009Z"/><path class="cls-4" d="M230.866,26.9c0,1.378.52,2.548.728,4.525h5.616V33.5h-5.538v8.58h5.538v2.08H224.834v-2.08h4.5V33.5h-4.5v-2.08h4.419a35.166,35.166,0,0,1-.728-4.395c0-3.224,2.367-4.446,5.331-4.446a10.7,10.7,0,0,1,4.134.728l-.676,2.106a8.157,8.157,0,0,0-3.588-.728C231.906,24.687,230.866,25.155,230.866,26.9Z"/><path class="cls-3" d="M271.374,44.214c0,2.652-2.652,4.888-7.307,4.888-3.8,0-6.058-1.274-6.058-3.614a3.817,3.817,0,0,1,2.028-2.964c-1.768-.364-2.548-1.04-2.548-2.419,0-1.2.884-1.975,2.34-2.651a3.738,3.738,0,0,1-1.3-3.017c0-3.042,2.73-4.836,5.929-4.836a7.258,7.258,0,0,1,2.781.52l1.04-3.64h2.5l-1.819,4.966a3.73,3.73,0,0,1,1.274,2.809c0,2.912-2.73,4.446-5.929,4.446a9.109,9.109,0,0,1-2.756-.364c-1.222.519-1.768.961-1.768,1.482,0,.571.5.832,1.716.936l6.085.52C270.022,41.484,271.374,42.238,271.374,44.214Zm-2.392.39c0-.885-.5-1.274-2.289-1.431l-4.68-.389a3.157,3.157,0,0,0-1.612,2.34c0,1.091.911,2,3.8,2C267.733,47.126,268.982,45.826,268.982,44.6ZM260.9,34.281c0,1.717,1.143,2.627,3.458,2.627,2.469,0,3.509-1.093,3.509-2.549,0-1.716-1.143-2.781-3.458-2.781C261.936,31.578,260.9,32.7,260.9,34.281Z"/><path class="cls-4" d="M302.937,34.307v9.855H300.6V34.645c0-2.105-.858-2.964-2.6-2.964a7.173,7.173,0,0,0-4.16,1.352V44.162H291.5V22.841h2.34v6.241l-.208,2.235a7.051,7.051,0,0,1,4.654-1.742C301.585,29.575,302.937,31.265,302.937,34.307Z"/><path class="cls-3" d="M336.685,42.082v2.08H324.309v-2.08h5.278V31.941h-5.278v-2.08h7.618V42.082Zm-8.528-16.9a2.34,2.34,0,1,1,2.34,2.34A2.33,2.33,0,0,1,328.157,25.181Z"/><path class="cls-4" d="M365.778,29.861V41.3c0,5.149-2.158,7.593-6.812,7.593v-2.21c3.068,0,4.473-1.587,4.473-5.772V31.941H357.38v-2.08Zm1.17-4.68a2.34,2.34,0,1,1-2.34-2.34A2.33,2.33,0,0,1,366.948,25.181Z"/><path class="cls-3" d="M395.678,36.647l-2.262,1.769v5.746h-2.34V22.841h2.34V33.449l-.26,2.73,8.5-6.656.026,2.7-4,3.172,4.862,8.763h-2.73Z"/><path class="cls-4" d="M435.64,42.082v2.08H423.264v-2.08h5.018V22.841h2.34V42.082Z"/><path class="cls-3" d="M469.44,33.527V44.162h-2.081V34.385c0-2.106-.208-2.963-1.585-2.963a3.514,3.514,0,0,0-2.263,1.065c.026.312.053.65.053,1.04V44.162h-2.081V34.385c0-2.106-.208-2.963-1.585-2.963a3.432,3.432,0,0,0-2.211,1.013V44.162h-2.08v-14.3h1.716l.026,1.248a4.1,4.1,0,0,1,3.068-1.534,2.681,2.681,0,0,1,2.678,1.431,4.664,4.664,0,0,1,3.2-1.431C468.4,29.575,469.44,30.746,469.44,33.527Z"/><path class="cls-4" d="M501.367,34.307v9.855h-2.34V34.645c0-2.105-.858-2.964-2.6-2.964a7.173,7.173,0,0,0-4.16,1.352V44.162h-2.34v-14.3H491.9v1.586a7.077,7.077,0,0,1,4.81-1.872C500.015,29.575,501.367,31.265,501.367,34.307Z"/><path class="cls-3" d="M522.167,37.168c0-4.758,2.73-7.593,6.578-7.593,4.056,0,6.422,2.782,6.422,7.411s-2.73,7.462-6.578,7.462C524.532,44.448,522.167,41.666,522.167,37.168Zm10.634-.052c0-3.406-1.274-5.435-4.109-5.435-2.859,0-4.16,2.08-4.16,5.357s1.275,5.3,4.109,5.3C531.5,42.341,532.8,40.261,532.8,37.116Z"/><path class="cls-4" d="M568.239,36.465c0,5.72-2.835,7.957-7.1,7.957a17.479,17.479,0,0,1-2.783-.208v4.627h-2.34V29.861h1.976v1.586a6.958,6.958,0,0,1,4.811-1.872C566.341,29.6,568.239,32.071,568.239,36.465Zm-2.366.26c0-3.25-1.144-5.017-3.354-5.044a6.994,6.994,0,0,0-4.161,1.352v8.919a10.9,10.9,0,0,0,2.964.364C564.469,42.316,565.873,40.444,565.873,36.725Z"/><path class="cls-3" d="M600.53,26.481v22.36h-2.339v-3.9l.208-2.21a7.015,7.015,0,0,1-4.655,1.716c-3.536-.026-5.434-2.5-5.434-6.891,0-5.719,2.834-7.956,7.1-7.956a19.621,19.621,0,0,1,3.016.235l-.233-3.355ZM598.191,40.99V32.071a10.91,10.91,0,0,0-2.965-.363c-3.146,0-4.55,1.872-4.55,5.59,0,3.25,1.144,5.018,3.354,5.043A6.98,6.98,0,0,0,598.191,40.99Z"/><path class="cls-4" d="M634.33,42.082v2.08H621.954v-2.08h3.718V29.861h2.08l-.052,2.756,6.344-3.094.026,2.315-6.058,2.937v7.307Z"/><path class="cls-3" d="M654.843,43.33l.7-2.184a11.025,11.025,0,0,0,5.227,1.2c2.652,0,3.926-.624,3.926-1.95,0-2.885-9.594-1.924-9.594-6.656,0-2.678,2.365-4.134,6.109-4.134a13.3,13.3,0,0,1,5.175,1.014l-.676,2.133a10.128,10.128,0,0,0-4.5-1.067c-2.47,0-3.744.651-3.744,1.794,0,2.782,9.595,1.821,9.595,6.656,0,2.964-2.626,4.291-6.4,4.291A13.547,13.547,0,0,1,654.843,43.33Z"/><path class="cls-4" d="M700.265,43.3a10.525,10.525,0,0,1-4.914,1.119c-3.9,0-4.6-2.132-4.55-5.2l.156-7.28h-3.51v-2.08h3.536l.078-3.38h2.418l-.442,3.38h6.708v2.08h-6.4l-.156,7.021c-.052,1.82.182,3.354,2.236,3.354a9.307,9.307,0,0,0,4.212-.963Z"/><path class="cls-3" d="M732.765,29.861v14.3h-1.976V42.576a7.077,7.077,0,0,1-4.81,1.872c-3.3,0-4.654-1.691-4.654-4.733V29.861h2.34v9.517c0,2.106.858,2.963,2.6,2.963a7.164,7.164,0,0,0,4.16-1.351V29.861Z"/><path class="cls-4" d="M766.877,29.861l-5.019,14.3h-3.379l-5.018-14.3h2.522l2.886,8.555,1.066,3.666h.6l1.066-3.666,2.886-8.555Z"/><path class="cls-3" d="M800.989,29.861l-2.5,14.3h-3.146l-1.691-9.595-.286-2.626h-.234l-.285,2.626-1.691,9.595h-3.172l-2.5-14.3h2.21l1.534,9.335.312,2.886h.312l.287-2.861,1.533-9.36h3.277l1.533,9.36.286,2.861h.287l.312-2.834,1.534-9.387Z"/><path class="cls-4" d="M826.416,37.973h-.286l-3.822,6.189h-2.575l4.889-7.489-4.81-6.812h2.574l3.822,5.591h.338l3.822-5.591h2.444L828,36.622l4.888,7.54h-2.574Z"/><path class="cls-4" d="M860.554,46.761h4.108v2.08H854.106v-2.08h4.107V43.876l-5.538-14.015H855.2l2.991,7.774L859.2,40.86h.521l1.04-3.225,2.938-7.774h2.392l-5.538,14.015Z"/><path class="cls-4" d="M898.67,42.082v2.08H886.4v-2.6l9.386-9.621h-9.126v-2.08h11.752v2.6l-9.386,9.62Z"/><path class="cls-4" d="M378.613,104.808v18.616h5.252v2.132h-7.644V102.675h7.644v2.133Z"/><path class="cls-4" d="M398.477,111.984a2.34,2.34,0,1,1,2.34,2.34A2.33,2.33,0,0,1,398.477,111.984Zm0,8.866a2.34,2.34,0,1,1,2.34,2.341A2.33,2.33,0,0,1,398.477,120.85Z"/><path class="cls-3" d="M449.957,113.961v2.105h-9.88v-2.105Z"/><path class="cls-3" d="M473.851,120.825v2.132H461.058v-2.393c4.55-2.781,9.855-5.615,9.855-10.14,0-2-.885-3.276-3.848-3.276-3.225,0-4.082,1.43-4.082,3.874a4.412,4.412,0,0,0,.208,1.586l-2.471-.182a12.1,12.1,0,0,1-.1-1.664c0-3.458,2.262-5.746,6.578-5.746,5.071,0,6.163,2.808,6.163,5.148,0,4.992-4.681,7.8-7.541,9.724l-1.4.624v.313Z"/><path class="cls-4" d="M508.977,111.984a2.34,2.34,0,1,1,2.339,2.34A2.33,2.33,0,0,1,508.977,111.984Zm0,8.866a2.34,2.34,0,1,1,2.339,2.341A2.33,2.33,0,0,1,508.977,120.85Z"/><path class="cls-3" d="M562.251,120.825v2.132H549.458v-2.393c4.55-2.781,9.855-5.615,9.855-10.14,0-2-.885-3.276-3.849-3.276-3.224,0-4.082,1.43-4.082,3.874a4.435,4.435,0,0,0,.208,1.586l-2.47-.182a12.1,12.1,0,0,1-.1-1.664c0-3.458,2.262-5.746,6.578-5.746,5.071,0,6.162,2.808,6.162,5.148,0,4.992-4.68,7.8-7.54,9.724l-1.4.624v.313Z"/><path class="cls-4" d="M580.112,125.556h-7.644v-2.132h5.252V104.808h-5.252v-2.133h7.644Z"/></g><g id="solo_testo" data-name="solo testo"><path class="cls-2" d="M438.912,178.17a11.138,11.138,0,0,0-.052,2.6c.858-.053,2.366-.053,5.772-1.742l-.286,2.262a8.817,8.817,0,0,1-5.018,1.82c-2.548,0-3.978-1.482-3.8-4.473a10.456,10.456,0,0,1,7.436-9.723l4.29,1.273a8.1,8.1,0,0,1,.364,2.315c0,2.782-2.106,4.992-5.928,4.992a18.505,18.505,0,0,1-2.626-.235A6.67,6.67,0,0,0,438.912,178.17Zm.806-2.7a6.938,6.938,0,0,0,1.326.13,3.274,3.274,0,0,0,3.432-3.3,4.664,4.664,0,0,0-.208-1.3A9.713,9.713,0,0,0,439.718,175.465Z"/><path class="cls-2" d="M462.546,171.2a42.812,42.812,0,0,0-4.212,12.376l-3.225-.546a58.016,58.016,0,0,1,2.757-9.542,70.792,70.792,0,0,0-6.266,5.433c-.338,1.353-.677,2.549-.989,3.693l-3.12-.78c.962-3.432,2.184-7.046,3.381-12.351l3.328.677a40.744,40.744,0,0,1-1.43,5.095,70.594,70.594,0,0,1,6.786-5.746Z"/><path class="cls-2" d="M479.732,163.271c-1.768,4.628-5.617,13.7-6.475,20.151l-3.171-.65a52.237,52.237,0,0,1,1.195-5.616,50.306,50.306,0,0,1-5.668,5.876c-.572-.364-1.716-.806-2.782-1.353a16.485,16.485,0,0,1-.182-2.365c0-4.784,2.5-9.152,8.5-10.765l.807,3.069c-3.953,1.195-5.955,3.51-6.033,8.294,1.924-1.872,4.759-4.733,6.5-6.578,1.015-3.069,2.314-6.527,3.953-11.077Z"/><path class="cls-2" d="M535.1,172.034a3.953,3.953,0,0,0-1.3.181,4.314,4.314,0,0,0,1.4,2.653c1.43,1.767,2.782,3.042,2.782,4.6,0,2.055-3.094,3.953-5.772,3.953a6.7,6.7,0,0,1-4.316-1.457l.91-2.807a10.246,10.246,0,0,0,6.058,1.664c-.182-1.066-1.4-2.185-2.262-3.25-1.456-1.82-1.976-2.756-1.976-3.874,0-1.977,2.756-4.446,5.486-4.446a9.124,9.124,0,0,1,4.03.91l-.884,3.172A8.456,8.456,0,0,0,535.1,172.034Z"/><path class="cls-2" d="M550.152,171.7c-1.014.078-2.028.131-3.042.131A103.884,103.884,0,0,0,543.7,182.8l-3.016-.65c.52-2.184,1.352-5.877,2.808-10.4-1.066-.078-1.976-.157-2.548-.235l.39-2c.832.052,1.82.1,2.86.13.624-1.794,1.352-3.692,2.158-5.668l3.51,1.066c-.7,1.56-1.326,3.094-1.924,4.629.832-.053,1.69-.105,2.73-.208Z"/><path class="cls-2" d="M552.362,178.17a11.138,11.138,0,0,0-.052,2.6c.858-.053,2.366-.053,5.772-1.742l-.286,2.262a8.817,8.817,0,0,1-5.018,1.82c-2.548,0-3.978-1.482-3.8-4.473a10.456,10.456,0,0,1,7.436-9.723l4.29,1.273a8.1,8.1,0,0,1,.364,2.315c0,2.782-2.106,4.992-5.928,4.992a18.505,18.505,0,0,1-2.626-.235A6.67,6.67,0,0,0,552.362,178.17Zm.806-2.7a6.938,6.938,0,0,0,1.326.13,3.274,3.274,0,0,0,3.432-3.3,4.664,4.664,0,0,0-.208-1.3A9.713,9.713,0,0,0,553.168,175.465Z"/><path class="cls-2" d="M574.878,173.021c0,4.368-1.82,11.154-8.866,10.531l-.182-2.912c4.914.234,5.668-4.446,5.746-8.32-2.34,2.521-4.628,4.966-6.656,7.254-.754,2.86-1.586,6.11-2.6,9.464l-3.2-.7c1.611-5.3,4.134-14.483,5.148-19.084l3.432.624a33.069,33.069,0,0,1-1.586,5.486,55.9,55.9,0,0,1,5.954-6.345l2.626,1.43A15.644,15.644,0,0,1,574.878,173.021Z"/></g></svg>