<svg id="Livello_1" data-name="Livello 1" xmlns="http://www.w3.org/2000/svg" viewBox="0 0 952 186.673"><defs><style>.cls-1{fill:none;stroke:#1858a8;stroke-miterlimit:10;stroke-width:2.6px;}.cls-2{fill:#f36;}.cls-3{fill:#ffeded;}</style></defs><title>manuale_ill_nuove</title><path class="cls-1" d="M652.915,122.5c-.062-.095-.245-.109-.372-.16-.042.129-.155.292-.113.386.242.547.52,1.079.859,1.763A3.537,3.537,0,0,0,652.915,122.5Z"/><path class="cls-2" d="M514.791,144.192c-.019-.422-.024-.844-.07-1.264a1.3,1.3,0,0,0-.34-.94c-.195-.164-.164-.359-.225-.546-.068-.207-.245-.383-.195-.621a1.731,1.731,0,0,1,.068-.241c.026-.072.061-.142.093-.213-.236-.083-.438-.151-.645-.222.045-.236.071-.47-.165-.572-.274-.116-.388-.336-.553-.543.04-.114.08-.222.11-.31-.056-.111-.1-.2-.146-.3-.122-.252-.051-.583-.359-.762a.048.048,0,0,1-.013-.047c.064-.154-.024-.254-.126-.361a.239.239,0,0,1-.064-.187c.1-.388-.089-.822.227-1.151-.1-.211-.288-.353-.232-.585.012-.052-.039-.13-.083-.178-.115-.131-.249-.246-.363-.377a1.106,1.106,0,0,1-.232-.334c-.05-.141-.007-.312-.065-.447a1.624,1.624,0,0,0-.287-.348.068.068,0,0,1-.015-.048c.023-.215-.181-.308-.3-.421a1.188,1.188,0,0,0,.038-.182c0-.276.18-.555-.041-.829-.039-.048.009-.16.023-.243a4.576,4.576,0,0,0,.133-.9,5.7,5.7,0,0,1-.014-.6,1.1,1.1,0,0,0-.181-.819c-.188-.221-.213-.608-.644-.623-.039,0-.081-.064-.112-.1a1.818,1.818,0,0,0-.662-.515.864.864,0,0,1-.48-.462c-.032-.085-.135-.152-.216-.216-.251-.2-.515-.377-.758-.58a1.408,1.408,0,0,0-.335-.25.848.848,0,0,1-.485-.528,6.1,6.1,0,0,0-.435-.921c-.155-.315-.383-.631-.221-1.014.021-.051-.023-.127-.045-.191a2.479,2.479,0,0,1-.106-.283,1.882,1.882,0,0,0-.044-.35,1.542,1.542,0,0,0-.232-.309c.042-.069.069-.114.094-.158a.967.967,0,0,0-.38-1.449c-.374-.231-.713-.511-1.065-.768v-.27c-.472-.043-.9-.132-1.067-.58-.2-.055-.374-.1-.545-.153a.782.782,0,0,1-.284-.132,1.971,1.971,0,0,0-.763-.373c-.384-.116-.784-.184-1.154-.325a6.6,6.6,0,0,1-1.237-.5,2.043,2.043,0,0,1-.712-.685,1.579,1.579,0,0,0-.759-.628.642.642,0,0,1-.222-.132c-.132-.151-.254-.291-.5-.221-.037.012-.109-.067-.158-.113a3.3,3.3,0,0,0-.846-.437c-.482.04-.972-.153-1.413.073a1.072,1.072,0,0,1-.5-.408.92.92,0,0,0-.24-.19,4.319,4.319,0,0,1-1.059-.775.665.665,0,0,0-.278-.226,1.966,1.966,0,0,1-.82-.487,1.4,1.4,0,0,0-.516-.264,3.233,3.233,0,0,1-.868-.415,4.577,4.577,0,0,0-.74-.422,4.778,4.778,0,0,1-.7-.477.389.389,0,0,0-.046-.029,11.157,11.157,0,0,0-2.011-.773.38.38,0,0,1-.231-.121c-.149-.251-.428-.306-.671-.415-.311-.141-.622-.283-.94-.41a.821.821,0,0,0-.371-.064,1.59,1.59,0,0,1-1.164-.35c-.112-.085-.267-.118-.381-.2a.892.892,0,0,0-.908-.194.154.154,0,0,1-.108,0,1.178,1.178,0,0,0-.85.061,1.973,1.973,0,0,1-.32.045.723.723,0,0,0-.255.059c-.354.22-.824.168-1.158.429a.188.188,0,0,1-.105.023,2.31,2.31,0,0,0-.487-.014c-.132.024-.293-.077-.426-.118-.335.192-.658.374-.98.558-.085-.052-.143-.116-.205-.121-.124-.013-.249-.03-.373-.034a23.975,23.975,0,0,0-.013-3.525,3,3,0,0,1,.063-.451c.01-.225-.007-.45-.006-.675a3.428,3.428,0,0,1,.028-.787,8.624,8.624,0,0,0,.106-2.624,11.48,11.48,0,0,1,.029-3.087,2.737,2.737,0,0,0-.018-.687c-.034-.65-.089-1.3-.1-1.95a11.089,11.089,0,0,1,.134-2.725,5.07,5.07,0,0,0-.015-2.046,3.894,3.894,0,0,1-.075-.67,7.6,7.6,0,0,0,.009-2.486c-.105-.33.127-.753.1-1.126-.124-1.786-.063-3.571-.055-5.358,0-.266.016-.534.03-.8a8.934,8.934,0,0,0,.064-1.251,7.468,7.468,0,0,1,.174-2.391,2.493,2.493,0,0,0,0-.895,17.232,17.232,0,0,1-.219-3.076c.027-.435.009-.867.012-1.3l-.135.1a1.362,1.362,0,0,0-.257.046.619.619,0,0,1-.414-.037c-.268-.089-.534-.19-.807-.257a1.813,1.813,0,0,1-.721-.338.654.654,0,0,0-.433-.155,1.649,1.649,0,0,1-.884-.288c-.17-.111-.367-.184-.534-.3a.557.557,0,0,0-.4-.077c0,.2,0,.4-.009.6a17.083,17.083,0,0,1-.233,2.934,2.23,2.23,0,0,0-.125.673,24.666,24.666,0,0,0,.4,4.56,3.322,3.322,0,0,1,.014,1.131,15.079,15.079,0,0,0-.175,2.965,6.611,6.611,0,0,1-.145,2.39,14.7,14.7,0,0,0,.047,2.822.339.339,0,0,0,.04.108,4.475,4.475,0,0,1,.132,2.151,10.512,10.512,0,0,0-.192,2.158,11.821,11.821,0,0,0,.124,2.844.962.962,0,0,1,0,.343c-.041.532-.058,1.067-.14,1.593a10.905,10.905,0,0,0-.014,3.519,5.729,5.729,0,0,1-.007,1.141c-.016.457-.058.913-.066,1.369a6.269,6.269,0,0,1,.017,1.144,10.116,10.116,0,0,0-.064,2.286,10.328,10.328,0,0,1-.066,1.139,6.77,6.77,0,0,0-.165,1.809c.018.093.012.182.023.273a1.109,1.109,0,0,1-.222-.014,1.271,1.271,0,0,0-.648.006c-.119.027-.3.052-.369-.005a.69.69,0,0,0-.616-.078,1.036,1.036,0,0,1-.8-.148.528.528,0,0,0-.089.022,2.418,2.418,0,0,1-1.176.369c-.086-.006-.193.082-.269.148-.107.091-.183.213-.292.3a.449.449,0,0,1-.282.125c-.444-.067-.8.221-1.219.24a.88.88,0,0,1-.675.086,2.261,2.261,0,0,0-1.221.219c-.334.17-.645.376-.963.571-.272.168-.538.349-.815.51a.435.435,0,0,1-.3.075c-.32-.115-.612.082-.919.045a.2.2,0,0,0-.148.059c-.223.263-.664.2-.867.5-.028.042-.133.039-.2.056-.123.028-.249.045-.368.082-.241.075-.479.16-.717.24a1.791,1.791,0,0,0-.7.277.408.408,0,0,1-.412.061.638.638,0,0,0-.655.157.82.82,0,0,1-.956.112,1.4,1.4,0,0,0-.476-.094.747.747,0,0,0-.791.569c-.017.066-.012.136-.03.2a.4.4,0,0,1-.348.346c-.195.026-.254.155-.291.32a5.975,5.975,0,0,1-.227.73.426.426,0,0,1-.179.243,9.906,9.906,0,0,0-.977.62,2.29,2.29,0,0,0-.256.178c-.1.073-.187.152-.283.226a1.469,1.469,0,0,0-.207.155,6.133,6.133,0,0,1-1.418,1.175,1.837,1.837,0,0,0-.524.439,4.3,4.3,0,0,1-1.44,1.35.231.231,0,0,0-.115.1c-.084.283-.358.374-.592.491-.195.1-.23.324-.392.4a1.189,1.189,0,0,0-.466.328,1.739,1.739,0,0,1-.226.214l-.614-.47c-.416-.314-.474-.3-.715.12-.018.029-.036.059-.056.086a.976.976,0,0,0-.173.917.583.583,0,0,1-.009.4,3.332,3.332,0,0,0-.4,1.348.3.3,0,0,1-.043.146,2.648,2.648,0,0,0-.225.931.409.409,0,0,1-.141.256,10.122,10.122,0,0,1-.911.7,2.444,2.444,0,0,0-.582.527c-.17.212-.095.489-.268.7a.19.19,0,0,0,.019.19,1.212,1.212,0,0,0,.868.531c.081,0,.143.008.146.13a1.521,1.521,0,0,1-.162.094.433.433,0,0,0-.3.474,1.077,1.077,0,0,1-.283.843,1.3,1.3,0,0,0-.292.592,10.936,10.936,0,0,0-.231,1.244.675.675,0,0,1-.24.541.3.3,0,0,0-.095.225,3.249,3.249,0,0,1-.325,1.275,2.218,2.218,0,0,1-.729,1.078,6.262,6.262,0,0,0-.049.626,1.165,1.165,0,0,1-.192.624c-.041.068-.017.166-.033.248a2.539,2.539,0,0,1-.076.294c-.079.232-.276.44-.177.711-.235.764-.373,1.551-.68,2.3a3.793,3.793,0,0,0-.253.721.606.606,0,0,1-.462.559.408.408,0,0,0-.311.484,3.08,3.08,0,0,0,.291,1.074c.327.526.605,1.081.943,1.6a3.856,3.856,0,0,1,.486,1.439,2.247,2.247,0,0,0,.28.813,2.422,2.422,0,0,1,.328.843,1.37,1.37,0,0,1-.172,1.015.826.826,0,0,0-.1.336.337.337,0,0,1-.323.345.582.582,0,0,0-.521.462,1.543,1.543,0,0,0,.28,1.355,5.371,5.371,0,0,1,.512.774,3.053,3.053,0,0,1,.359.618,2.114,2.114,0,0,0,.333.578,3.865,3.865,0,0,1,.815,1.744,2.066,2.066,0,0,0,.47,1.063,8.41,8.41,0,0,1,.842,1.234.915.915,0,0,1,.092.285,1.863,1.863,0,0,0,.03.3,7.1,7.1,0,0,0,.389,1.107c.16.283.312.572.445.867a15.34,15.34,0,0,0,.815,1.6.863.863,0,0,1,.084.186,2.121,2.121,0,0,0,.513.88.915.915,0,0,1,.151.263c.055.105.1.217.158.318a2.1,2.1,0,0,0,.669.851c.127.078.175.257.29.361.286.257.564.521.861.77a6.03,6.03,0,0,0,.989.72.562.562,0,0,1,.264.243.821.821,0,0,0,.588.484c.254.089.51.178.757.284a2.918,2.918,0,0,1,.9.556,4.581,4.581,0,0,1,.775.966c.116.191.242.379.365.567a.922.922,0,0,0,.59.417,5.877,5.877,0,0,1,.929.307.823.823,0,0,1,.411.31,7.688,7.688,0,0,0,.464.623,1.073,1.073,0,0,0,.692.534.463.463,0,0,1,.385.332,1.094,1.094,0,0,0,.349.56,3.463,3.463,0,0,1,.486.61c.237.432.745.568,1.075.894a.314.314,0,0,0,.207.032,1.114,1.114,0,0,1,1.065.491.519.519,0,0,0,.094.125.637.637,0,0,0,.23.121c.391.082.789.144,1.18.224a2.82,2.82,0,0,1,.52.16,1.634,1.634,0,0,0,1.36.1.322.322,0,0,1,.158-.028,3.94,3.94,0,0,1,.751.125,5.754,5.754,0,0,0,.735.193,1,1,0,0,1,.576.273.643.643,0,0,0,.649.172,1.346,1.346,0,0,1,.849.116.785.785,0,0,0,.577.056c.157-.045.317-.082.479-.112a1.258,1.258,0,0,1,.945.147,3.694,3.694,0,0,0,.542.231,1.591,1.591,0,0,1,.288.137.469.469,0,0,0,.4.11.309.309,0,0,1,.2.053.519.519,0,0,0,.414.057,2.97,2.97,0,0,1,1.408.048,4.383,4.383,0,0,0,1.291.21,3.088,3.088,0,0,1,.38.042,1.873,1.873,0,0,0,.487.025.718.718,0,0,1,.565.1c.194.124.423.2.622.322a2.038,2.038,0,0,0,1.03.309.816.816,0,0,1,.5.167,2.175,2.175,0,0,0,.838.362c.318.072.627.182.939.277a.777.777,0,0,0,.48.039,1.623,1.623,0,0,1,.3-.049c.285-.206.506-.38.745-.532a1.385,1.385,0,0,1,.834-.2c.455.024.906.077,1.361.117a.992.992,0,0,0,.162-.013c.2-.019.4-.033.6-.062a1.138,1.138,0,0,0,.361-.095,1.985,1.985,0,0,1,1-.212,3.4,3.4,0,0,0,1.458-.167,2.347,2.347,0,0,1,.325-.04,4.869,4.869,0,0,0,.834-.234c.146-.065.207-.279.35-.363.163-.094.41-.074.558-.179.363-.261.784-.429,1.157-.664a2.54,2.54,0,0,1,1.389-.386c.422,0,.845.013,1.265,0a.97.97,0,0,0,.523-.108,10.745,10.745,0,0,0,1.193-.8.574.574,0,0,1,.6-.168.667.667,0,0,0,.528-.059,6.861,6.861,0,0,0,.933-.508,5.24,5.24,0,0,1,1.318-.7,1.578,1.578,0,0,0,.848-.526,2.359,2.359,0,0,1,.693-.627,2.738,2.738,0,0,0,.777-.7c.1-.141.324-.2.475-.318s.151-.368.39-.468a.659.659,0,0,0,.41-.659c0-.465.145-.608.64-.648a1.867,1.867,0,0,0,.852-.32c.165-.1.339-.191.511-.284.062-.034.153-.046.191-.094a1.139,1.139,0,0,1,.7-.36.529.529,0,0,0,.436-.41c.033-.148.093-.289.134-.416.344-.231.669-.444.988-.666a.652.652,0,0,0,.217-.217,1.67,1.67,0,0,1,.525-.693c.04-.03.057-.087.087-.129a5.091,5.091,0,0,1,.5-.66,2.316,2.316,0,0,0,.461-.887c.075-.18.122-.384.183-.576a.693.693,0,0,1,.589-.531,1.477,1.477,0,0,0,.671-.33,5.469,5.469,0,0,0,.981-.876.694.694,0,0,1,.444-.276.926.926,0,0,0,.335-.153,4.954,4.954,0,0,0,1.182-1.563c.028-.039.018-.1.033-.147.071-.226.132-.456.222-.676a.771.771,0,0,0,.069-.491.581.581,0,0,1,.237-.631,1,1,0,0,0,.372-.7,1.274,1.274,0,0,1,.392-.976.941.941,0,0,1,.068-.891,4.3,4.3,0,0,0,.365-.834,2.945,2.945,0,0,0,.207-1.493,1.264,1.264,0,0,1,.206-.917,4.322,4.322,0,0,0,.239-.4,2.5,2.5,0,0,0,.317-1.42,2.232,2.232,0,0,1,0-.7,1.434,1.434,0,0,1,.189-.676.394.394,0,0,0,.051-.245,5.122,5.122,0,0,0-.07-.551c-.032-.168-.091-.353.023-.493.208-.255.171-.581.333-.849a.7.7,0,0,0,.033-.348,1.614,1.614,0,0,0-.039-.452.581.581,0,0,1,.064-.488.66.66,0,0,0,.072-.491c-.014-.065-.038-.148-.007-.2a.783.783,0,0,0,0-.686.514.514,0,0,1,.06-.529A.209.209,0,0,0,514.791,144.192Z"/><path class="cls-2" d="M600.236,144.77c-.033-.205-.174-.4-.09-.615a1.473,1.473,0,0,1,.1-.217c.034-.065.079-.124.119-.188-.21-.113-.391-.208-.576-.307.077-.216.137-.433-.071-.564a1.4,1.4,0,0,1-.442-.6l.153-.276c-.037-.114-.067-.207-.1-.3-.076-.257.042-.558-.224-.774a.049.049,0,0,1,0-.047c.082-.135.015-.243-.065-.359a.222.222,0,0,1-.033-.186c.156-.351.041-.789.39-1.052-.06-.212-.22-.376-.131-.588.019-.046-.018-.127-.052-.179-.09-.141-.2-.27-.287-.411a1.065,1.065,0,0,1-.17-.351c-.024-.141.041-.294.006-.431a1.512,1.512,0,0,0-.219-.371.068.068,0,0,1-.007-.048c.055-.2-.124-.319-.218-.443a1.2,1.2,0,0,0,.065-.165c.044-.259.255-.5.086-.788-.03-.052.033-.151.058-.226a4.3,4.3,0,0,0,.263-.826,5.119,5.119,0,0,1,.078-.567,1.051,1.051,0,0,0-.049-.8c-.144-.238-.11-.606-.516-.687-.036-.008-.066-.072-.089-.114a1.723,1.723,0,0,0-.55-.587.838.838,0,0,1-.385-.509.583.583,0,0,0-.172-.237c-.208-.223-.431-.433-.63-.662a1.352,1.352,0,0,0-.279-.287.816.816,0,0,1-.381-.572,5.626,5.626,0,0,0-.273-.935c-.1-.32-.265-.652-.055-.99.028-.044,0-.123-.012-.186a2.138,2.138,0,0,1-.059-.284,1.74,1.74,0,0,0,.012-.336,1.477,1.477,0,0,0-.174-.328l.114-.134a.923.923,0,0,0-.141-1.425c-.32-.275-.6-.59-.892-.886.014-.092.026-.166.04-.255-.44-.113-.831-.261-.923-.71-.179-.081-.34-.148-.493-.227a.739.739,0,0,1-.249-.166,1.883,1.883,0,0,0-.668-.469c-.344-.167-.714-.293-1.044-.482a6.491,6.491,0,0,1-1.094-.665,1.932,1.932,0,0,1-.571-.754,1.5,1.5,0,0,0-.625-.707.611.611,0,0,1-.19-.159c-.1-.163-.2-.312-.442-.284-.037,0-.094-.08-.133-.131a3.12,3.12,0,0,0-.735-.54c-.463-.037-.9-.293-1.35-.147a1.018,1.018,0,0,1-.416-.461.883.883,0,0,0-.2-.217,4.108,4.108,0,0,1-.885-.891.63.63,0,0,0-.231-.255,1.894,1.894,0,0,1-.7-.584,1.311,1.311,0,0,0-.449-.328,3.139,3.139,0,0,1-.76-.523,4.3,4.3,0,0,0-.637-.51,4.607,4.607,0,0,1-.594-.559.251.251,0,0,0-.04-.033,10.667,10.667,0,0,0-1.787-1.036.36.36,0,0,1-.2-.15c-.1-.259-.359-.353-.571-.492-.274-.18-.549-.362-.83-.53a.8.8,0,0,0-.342-.116,1.532,1.532,0,0,1-1.05-.508c-.093-.1-.235-.153-.33-.247a.856.856,0,0,0-.83-.321.165.165,0,0,1-.1-.015,1.129,1.129,0,0,0-.815-.071,2.31,2.31,0,0,1-.31-.008.689.689,0,0,0-.251.018c-.368.152-.8.032-1.162.227a.168.168,0,0,1-.1.007,2.212,2.212,0,0,0-.458-.088c-.129,0-.267-.117-.386-.175l-1.013.377c-.074-.063-.117-.131-.175-.146a1.287,1.287,0,0,0-.759-.076,1.427,1.427,0,0,1-1.071.007,1.242,1.242,0,0,0-.207-.036c-.238-.059-.477-.112-.71-.183a.981.981,0,0,0-.567-.034.889.889,0,0,1-.359.043,1.217,1.217,0,0,0-.659.1,1.473,1.473,0,0,1-.5.1,4.624,4.624,0,0,0-.69-1.273,1.693,1.693,0,0,1-.477-1.578,2.15,2.15,0,0,0-.128-.89,11.62,11.62,0,0,1-.288-1.455c-.052-.837-.017-1.677-.033-2.516a2.719,2.719,0,0,1,.229-1.562,1.849,1.849,0,0,0,.1-.783,3.976,3.976,0,0,1,.454-1.864,1.322,1.322,0,0,0,.153-1.311,1.4,1.4,0,0,1-.016-1.51.561.561,0,0,0,.041-.336c-.133-1.286-.024-2.577-.1-3.913l.934-.38a11.25,11.25,0,0,0,.18-1.5c-.01-.918-.091-1.836-.151-2.752,0-.044-.089-.08-.123-.11-.112.077-.221.149-.325.22-.253-.316-.228-.585,0-.778a1.632,1.632,0,0,0,.463-1.013,3.581,3.581,0,0,0-.068-1.924,1.049,1.049,0,0,1-.036-.888,6.067,6.067,0,0,0,.55-2.326,5.277,5.277,0,0,0,.02-.776,3.914,3.914,0,0,1-.456.172,1.433,1.433,0,0,0-.362.163,2.4,2.4,0,0,1-.859.336,2.2,2.2,0,0,0-.433.16.875.875,0,0,1-.311.105,3.055,3.055,0,0,0-1.143.288c-.081.027-.191.079-.248.048-.311-.171-.608-.038-.908.016a3.208,3.208,0,0,1-.923.036c-.265-.029-.533-.035-.8-.047-.049.529-.1,1.057-.142,1.586a1.323,1.323,0,0,0,.062.565,1.9,1.9,0,0,1,.069,1.12,1.858,1.858,0,0,0,.044.905,1.654,1.654,0,0,1-.018,1.12,3.243,3.243,0,0,0-.077,1.815,7.728,7.728,0,0,1,0,2.606,2.956,2.956,0,0,0,.061,1.128,8.889,8.889,0,0,1,.232,3.188,18.013,18.013,0,0,0-.029,2.287c.018.5.033.993.026,1.489-.009.534-.082,1.066-.065,1.6q.048,1.493.169,2.982a8.851,8.851,0,0,1-.146,2.849,2.956,2.956,0,0,0-.1.678c-.007,1.309.014,2.618-.014,3.924a1.608,1.608,0,0,1-.438.04.849.849,0,0,1-.652-.022,2.189,2.189,0,0,0-1.191.02c-.341.109-.666.257-1,.393-.286.116-.564.247-.851.358a.428.428,0,0,1-.3.025c-.285-.157-.591-.018-.878-.1a.2.2,0,0,0-.147.033c-.252.215-.659.088-.9.337-.033.035-.132.017-.2.021-.121.008-.243.007-.362.023-.239.034-.478.077-.716.117a1.726,1.726,0,0,0-.7.155.393.393,0,0,1-.4,0,.616.616,0,0,0-.644.049.791.791,0,0,1-.923-.04,1.352,1.352,0,0,0-.436-.16.713.713,0,0,0-.836.415c-.026.059-.031.127-.059.185a.384.384,0,0,1-.381.273c-.189-.005-.264.107-.325.258a5.85,5.85,0,0,1-.325.654c-.046.08-.122.181-.206.2a9.164,9.164,0,0,0-1.021.437,2.765,2.765,0,0,0-.269.128c-.1.055-.2.116-.3.17a1.517,1.517,0,0,0-.219.116,5.916,5.916,0,0,1-1.521.892,1.75,1.75,0,0,0-.564.336,4.129,4.129,0,0,1-1.568,1.053c-.047.016-.107.043-.124.082-.122.253-.4.3-.635.373-.2.062-.268.27-.433.321a1.126,1.126,0,0,0-.491.237,1.714,1.714,0,0,1-.247.169l-.511-.537c-.346-.36-.4-.359-.7,0a.76.76,0,0,1-.066.074.925.925,0,0,0-.3.839.559.559,0,0,1-.067.372,3.173,3.173,0,0,0-.587,1.211.3.3,0,0,1-.062.131,2.5,2.5,0,0,0-.354.843.41.41,0,0,1-.172.222,10.122,10.122,0,0,1-.97.519,2.345,2.345,0,0,0-.631.409c-.193.174-.165.447-.358.614a.182.182,0,0,0-.011.184c.184.271.357.563.74.633.078.014.135.029.118.144a1.216,1.216,0,0,1-.166.063.414.414,0,0,0-.358.4,1.022,1.022,0,0,1-.4.753,1.26,1.26,0,0,0-.366.513,10.292,10.292,0,0,0-.407,1.139c-.057.191-.1.369-.309.473a.291.291,0,0,0-.124.2,3.142,3.142,0,0,1-.5,1.155,2.153,2.153,0,0,1-.855.906c-.052.209-.114.393-.141.582a1.109,1.109,0,0,1-.277.559c-.048.058-.04.153-.068.23a2,2,0,0,1-.117.264c-.11.208-.327.374-.275.645-.338.684-.588,1.406-.992,2.063a3.662,3.662,0,0,0-.348.641.58.58,0,0,1-.523.457.39.39,0,0,0-.368.409,2.958,2.958,0,0,0,.113,1.057c.231.547.41,1.112.651,1.656a3.672,3.672,0,0,1,.244,1.432,2.138,2.138,0,0,0,.14.807,2.322,2.322,0,0,1,.185.845,1.309,1.309,0,0,1-.319.932.835.835,0,0,0-.143.3.321.321,0,0,1-.357.277.556.556,0,0,0-.563.358,1.463,1.463,0,0,0,.059,1.319,5.108,5.108,0,0,1,.368.809,2.878,2.878,0,0,1,.247.638,2.014,2.014,0,0,0,.227.594,3.693,3.693,0,0,1,.509,1.77,1.959,1.959,0,0,0,.284,1.074,7.89,7.89,0,0,1,.611,1.293.834.834,0,0,1,.043.283,1.888,1.888,0,0,0-.016.289,6.635,6.635,0,0,0,.2,1.1c.109.292.21.587.291.886a14.683,14.683,0,0,0,.531,1.634.967.967,0,0,1,.05.188,2.02,2.02,0,0,0,.353.909.912.912,0,0,1,.1.271c.036.108.06.219.1.325a2.024,2.024,0,0,0,.5.9c.109.091.128.269.221.383.232.287.455.579.7.858a5.9,5.9,0,0,0,.828.83.541.541,0,0,1,.213.268.788.788,0,0,0,.483.547c.228.124.457.245.675.383a2.781,2.781,0,0,1,.772.661,4.418,4.418,0,0,1,.59,1.03c.08.2.17.394.258.59a.878.878,0,0,0,.5.482,5.8,5.8,0,0,1,.832.432.785.785,0,0,1,.343.355,7.341,7.341,0,0,0,.345.659,1.022,1.022,0,0,0,.576.608.445.445,0,0,1,.313.372,1.053,1.053,0,0,0,.245.581,3.2,3.2,0,0,1,.37.65c.158.444.619.648.883,1.006.031.042.126.057.191.061a1.069,1.069,0,0,1,.934.626.477.477,0,0,0,.071.132.622.622,0,0,0,.2.15c.359.136.726.254,1.084.391a2.546,2.546,0,0,1,.469.229,1.583,1.583,0,0,0,1.273.3.307.307,0,0,1,.156,0,3.923,3.923,0,0,1,.691.232,5.232,5.232,0,0,0,.668.295.959.959,0,0,1,.5.344.612.612,0,0,0,.589.261,1.317,1.317,0,0,1,.787.239.748.748,0,0,0,.538.141c.155-.018.314-.029.47-.033a1.211,1.211,0,0,1,.875.283,3.813,3.813,0,0,0,.477.3,1.608,1.608,0,0,1,.253.172.447.447,0,0,0,.363.165.306.306,0,0,1,.182.08.506.506,0,0,0,.385.119,2.81,2.81,0,0,1,1.327.259,4.2,4.2,0,0,0,1.191.393,3.319,3.319,0,0,1,.353.1,1.84,1.84,0,0,0,.458.1.687.687,0,0,1,.52.181c.165.147.37.257.54.4a1.975,1.975,0,0,0,.928.448.794.794,0,0,1,.453.233,2.058,2.058,0,0,0,.738.47c.29.117.566.267.848.4a.756.756,0,0,0,.449.11,1.748,1.748,0,0,1,.292,0c.3-.151.538-.282.786-.39a1.36,1.36,0,0,1,.82-.062c.428.092.848.212,1.272.318a.814.814,0,0,0,.156.012c.193.013.385.031.577.033a1.089,1.089,0,0,0,.358-.035,1.911,1.911,0,0,1,.982-.047,3.288,3.288,0,0,0,1.406.064,2.567,2.567,0,0,1,.313.011,4.592,4.592,0,0,0,.827-.093c.147-.039.238-.232.387-.29.168-.064.4-.007.555-.085.383-.19.807-.284,1.2-.448a2.436,2.436,0,0,1,1.375-.153c.4.063.8.139,1.2.191a.941.941,0,0,0,.512-.021,10.809,10.809,0,0,0,1.251-.573.552.552,0,0,1,.592-.07.643.643,0,0,0,.51.027,6.722,6.722,0,0,0,.96-.339,5.044,5.044,0,0,1,1.356-.465,1.514,1.514,0,0,0,.882-.366,2.263,2.263,0,0,1,.752-.487,2.672,2.672,0,0,0,.843-.539c.113-.118.336-.142.5-.227.177-.094.2-.325.442-.384a.628.628,0,0,0,.487-.56c.075-.438.23-.551.7-.514a1.787,1.787,0,0,0,.855-.17c.173-.072.352-.129.529-.192.064-.023.151-.02.194-.059a1.1,1.1,0,0,1,.718-.234.505.505,0,0,0,.475-.32,3.767,3.767,0,0,1,.191-.371c.36-.166.7-.318,1.036-.478a.622.622,0,0,0,.238-.173,1.631,1.631,0,0,1,.6-.575c.043-.02.067-.071.1-.107a4.709,4.709,0,0,1,.577-.545,2.214,2.214,0,0,0,.57-.767c.1-.159.174-.343.261-.516a.662.662,0,0,1,.638-.411,1.422,1.422,0,0,0,.687-.21,5.1,5.1,0,0,0,1.06-.677.673.673,0,0,1,.464-.192.925.925,0,0,0,.341-.094c.62-.279.922-.847,1.356-1.295.032-.033.033-.09.053-.133.1-.2.194-.41.313-.6a.725.725,0,0,0,.139-.452.556.556,0,0,1,.32-.559.951.951,0,0,0,.46-.609,1.213,1.213,0,0,1,.52-.86.894.894,0,0,1,.2-.831,4.1,4.1,0,0,0,.472-.731,2.791,2.791,0,0,0,.422-1.376,1.217,1.217,0,0,1,.334-.834,4.228,4.228,0,0,0,.287-.34,2.373,2.373,0,0,0,.515-1.29,2.232,2.232,0,0,1,.109-.656,1.408,1.408,0,0,1,.283-.611.368.368,0,0,0,.086-.224,4.66,4.66,0,0,0,.016-.529c0-.164-.033-.348.1-.462.236-.208.251-.522.443-.75a.678.678,0,0,0,.085-.324,1.539,1.539,0,0,0,.031-.432.553.553,0,0,1,.135-.449.632.632,0,0,0,.142-.453c0-.064-.014-.146.023-.187a.746.746,0,0,0,.105-.647.486.486,0,0,1,.137-.489.207.207,0,0,0,.051-.132c.046-.4.1-.8.125-1.2a1.24,1.24,0,0,0-.181-.939C600.206,145.135,600.266,144.955,600.236,144.77Z"/><path class="cls-2" d="M327.236,147.37c-.033-.205-.174-.4-.09-.615a1.473,1.473,0,0,1,.1-.217c.034-.065.079-.124.119-.188-.21-.113-.391-.208-.576-.307.077-.216.137-.433-.071-.564a1.4,1.4,0,0,1-.442-.6l.153-.276c-.037-.114-.067-.207-.1-.3-.076-.257.042-.558-.224-.774a.049.049,0,0,1,0-.047c.082-.135.015-.243-.065-.359a.222.222,0,0,1-.033-.186c.156-.351.041-.789.39-1.052-.06-.212-.22-.376-.131-.588.019-.046-.018-.127-.052-.179-.09-.141-.2-.27-.287-.411a1.065,1.065,0,0,1-.17-.351c-.024-.141.041-.294.006-.431a1.512,1.512,0,0,0-.219-.371.068.068,0,0,1-.007-.048c.055-.2-.124-.319-.218-.443a1.2,1.2,0,0,0,.065-.165c.044-.259.255-.5.086-.788-.03-.052.033-.151.058-.226a4.3,4.3,0,0,0,.263-.826,5.119,5.119,0,0,1,.078-.567,1.051,1.051,0,0,0-.049-.8c-.144-.238-.11-.606-.516-.687-.036-.008-.066-.072-.089-.114a1.723,1.723,0,0,0-.55-.587.838.838,0,0,1-.385-.509.583.583,0,0,0-.172-.237c-.208-.223-.431-.433-.63-.662a1.352,1.352,0,0,0-.279-.287.816.816,0,0,1-.381-.572,5.626,5.626,0,0,0-.273-.935c-.1-.32-.265-.652-.055-.99.028-.044,0-.123-.012-.186a2.138,2.138,0,0,1-.059-.284,1.74,1.74,0,0,0,.012-.336,1.477,1.477,0,0,0-.174-.328l.114-.134a.923.923,0,0,0-.141-1.425c-.32-.275-.6-.59-.892-.886.014-.092.026-.166.04-.255-.44-.113-.831-.261-.923-.71-.179-.081-.34-.148-.493-.227a.739.739,0,0,1-.249-.166,1.883,1.883,0,0,0-.668-.469c-.344-.167-.714-.293-1.044-.482a6.491,6.491,0,0,1-1.094-.665,1.932,1.932,0,0,1-.571-.754,1.5,1.5,0,0,0-.625-.707.611.611,0,0,1-.19-.159c-.1-.163-.2-.312-.442-.284-.037.005-.094-.08-.133-.131a3.12,3.12,0,0,0-.735-.54c-.463-.037-.9-.293-1.35-.147a1.018,1.018,0,0,1-.416-.461.883.883,0,0,0-.2-.217,4.108,4.108,0,0,1-.885-.891.63.63,0,0,0-.231-.255,1.894,1.894,0,0,1-.7-.584,1.311,1.311,0,0,0-.449-.328,3.139,3.139,0,0,1-.76-.523,4.3,4.3,0,0,0-.637-.51,4.607,4.607,0,0,1-.594-.559.251.251,0,0,0-.04-.033,10.667,10.667,0,0,0-1.787-1.036.36.36,0,0,1-.2-.15c-.1-.259-.359-.353-.571-.492-.274-.18-.549-.362-.83-.53a.8.8,0,0,0-.342-.116,1.532,1.532,0,0,1-1.05-.508c-.093-.1-.235-.153-.33-.247a.856.856,0,0,0-.83-.321.165.165,0,0,1-.1-.015,1.129,1.129,0,0,0-.815-.071,2.31,2.31,0,0,1-.31-.008c-.054,0-.108.007-.162.012a9.452,9.452,0,0,1,.053-2.671,2.737,2.737,0,0,0-.018-.687c-.034-.65-.089-1.3-.1-1.95a11.089,11.089,0,0,1,.134-2.725,5.07,5.07,0,0,0-.015-2.046,3.894,3.894,0,0,1-.075-.67,7.6,7.6,0,0,0,.009-2.486c-.105-.33.127-.753.1-1.126-.124-1.786-.063-3.571-.055-5.358,0-.266.016-.534.03-.8a8.934,8.934,0,0,0,.064-1.251,7.468,7.468,0,0,1,.174-2.391,2.493,2.493,0,0,0,0-.9,17.232,17.232,0,0,1-.219-3.076,21.866,21.866,0,0,0,.021-2.4c-.05-1.032-.116-2.064-.169-3.1a3.98,3.98,0,0,1,0-.8,18.087,18.087,0,0,0,.174-4.039,3.429,3.429,0,0,1-.692.084,5.406,5.406,0,0,1-1.469-.094,1.282,1.282,0,0,0-.411-.011,6.5,6.5,0,0,1-1.934-.226c-.049.836,0,1.684,0,2.527a16,16,0,0,1-.047,2.509,34.939,34.939,0,0,0-.052,3.544,17.083,17.083,0,0,1-.233,2.934,2.23,2.23,0,0,0-.125.673,24.666,24.666,0,0,0,.4,4.56,3.322,3.322,0,0,1,.014,1.131A15.079,15.079,0,0,0,296,95.121a6.611,6.611,0,0,1-.145,2.39,14.7,14.7,0,0,0,.047,2.822.339.339,0,0,0,.04.108,4.475,4.475,0,0,1,.132,2.151,10.512,10.512,0,0,0-.192,2.158,11.821,11.821,0,0,0,.124,2.844.962.962,0,0,1,0,.343c-.041.532-.058,1.067-.14,1.593a10.905,10.905,0,0,0-.014,3.519c.008.056,0,.114.007.171a1.094,1.094,0,0,1-.456-.085,1.242,1.242,0,0,0-.207-.036c-.238-.059-.477-.112-.71-.183a.981.981,0,0,0-.567-.034.889.889,0,0,1-.359.043,1.217,1.217,0,0,0-.659.1,1.27,1.27,0,0,1-1.018-.014,1.22,1.22,0,0,0-.614-.094c-.117.009-.287.007-.35-.059a.662.662,0,0,0-.571-.169,1,1,0,0,1-.739-.26.644.644,0,0,0-.087.006,2.327,2.327,0,0,1-1.17.17.457.457,0,0,0-.276.1c-.116.07-.206.174-.323.24a.435.435,0,0,1-.285.076c-.412-.131-.793.086-1.193.041a.849.849,0,0,1-.652-.022,2.189,2.189,0,0,0-1.191.02c-.341.109-.666.257-1,.393-.286.116-.564.247-.851.358a.428.428,0,0,1-.295.025c-.285-.157-.591-.018-.878-.1a.2.2,0,0,0-.147.033c-.252.215-.659.088-.9.337-.033.035-.132.017-.2.021-.121.008-.243.007-.362.023-.239.034-.478.077-.716.117a1.726,1.726,0,0,0-.7.155.393.393,0,0,1-.4,0,.616.616,0,0,0-.644.049.791.791,0,0,1-.923-.04,1.352,1.352,0,0,0-.436-.16.713.713,0,0,0-.836.415c-.026.059-.031.127-.059.185a.384.384,0,0,1-.381.273c-.189,0-.264.107-.325.258a5.85,5.85,0,0,1-.325.654c-.046.08-.122.181-.206.2a9.164,9.164,0,0,0-1.021.437,2.765,2.765,0,0,0-.269.128c-.1.055-.2.116-.3.17a1.517,1.517,0,0,0-.219.116,5.916,5.916,0,0,1-1.521.892,1.75,1.75,0,0,0-.564.336,4.129,4.129,0,0,1-1.568,1.053c-.047.016-.107.043-.124.082-.122.253-.4.3-.635.373-.2.062-.268.27-.433.321a1.126,1.126,0,0,0-.491.237,1.714,1.714,0,0,1-.247.169l-.511-.537c-.346-.36-.4-.359-.7,0a.76.76,0,0,1-.066.074.925.925,0,0,0-.3.839.559.559,0,0,1-.067.372,3.173,3.173,0,0,0-.587,1.211.3.3,0,0,1-.062.131,2.5,2.5,0,0,0-.354.843.41.41,0,0,1-.172.222,10.122,10.122,0,0,1-.97.519,2.345,2.345,0,0,0-.631.409c-.193.174-.165.447-.358.614a.182.182,0,0,0-.011.184c.184.271.357.563.74.633.078.014.135.029.118.144a1.216,1.216,0,0,1-.166.063.414.414,0,0,0-.358.4,1.022,1.022,0,0,1-.4.753,1.26,1.26,0,0,0-.366.513,10.292,10.292,0,0,0-.407,1.139c-.057.191-.1.369-.309.473a.291.291,0,0,0-.124.2,3.142,3.142,0,0,1-.5,1.155,2.153,2.153,0,0,1-.855.906c-.052.209-.114.393-.141.582a1.109,1.109,0,0,1-.277.559c-.048.058-.04.153-.068.23a2,2,0,0,1-.117.264c-.11.208-.327.374-.275.645-.338.684-.588,1.406-.992,2.063a3.662,3.662,0,0,0-.348.641.58.58,0,0,1-.523.457.39.39,0,0,0-.368.409,2.958,2.958,0,0,0,.113,1.057c.231.547.41,1.112.651,1.656a3.672,3.672,0,0,1,.244,1.432,2.138,2.138,0,0,0,.14.807,2.322,2.322,0,0,1,.185.845,1.309,1.309,0,0,1-.319.932.835.835,0,0,0-.143.3.321.321,0,0,1-.357.277.556.556,0,0,0-.563.358,1.463,1.463,0,0,0,.059,1.319,5.108,5.108,0,0,1,.368.809,2.878,2.878,0,0,1,.247.638,2.014,2.014,0,0,0,.227.594,3.693,3.693,0,0,1,.509,1.77,1.959,1.959,0,0,0,.284,1.074,7.89,7.89,0,0,1,.611,1.293.834.834,0,0,1,.043.283,1.888,1.888,0,0,0-.016.289,6.635,6.635,0,0,0,.2,1.1c.109.292.21.587.291.886a14.683,14.683,0,0,0,.531,1.634.967.967,0,0,1,.05.188,2.02,2.02,0,0,0,.353.909.912.912,0,0,1,.1.271c.036.108.06.219.1.325a2.024,2.024,0,0,0,.5.9c.109.091.128.269.221.383.232.287.455.579.7.858a5.9,5.9,0,0,0,.828.83.541.541,0,0,1,.213.268.788.788,0,0,0,.483.547c.228.124.457.245.675.383a2.781,2.781,0,0,1,.772.661,4.418,4.418,0,0,1,.59,1.03c.08.2.17.394.258.59a.878.878,0,0,0,.5.482,5.8,5.8,0,0,1,.832.432.785.785,0,0,1,.343.355,7.341,7.341,0,0,0,.345.659,1.022,1.022,0,0,0,.576.608.445.445,0,0,1,.313.372,1.053,1.053,0,0,0,.245.581,3.2,3.2,0,0,1,.37.65c.158.444.619.648.883,1.006.031.042.126.057.191.061a1.069,1.069,0,0,1,.934.626.477.477,0,0,0,.071.132.622.622,0,0,0,.2.15c.359.136.726.254,1.084.391a2.546,2.546,0,0,1,.469.229,1.583,1.583,0,0,0,1.273.3.307.307,0,0,1,.156,0,3.923,3.923,0,0,1,.691.232,5.232,5.232,0,0,0,.668.3.959.959,0,0,1,.5.344.612.612,0,0,0,.589.261,1.317,1.317,0,0,1,.787.239.748.748,0,0,0,.538.141c.155-.018.314-.029.47-.033a1.211,1.211,0,0,1,.875.283,3.813,3.813,0,0,0,.477.3,1.608,1.608,0,0,1,.253.172.447.447,0,0,0,.363.165.306.306,0,0,1,.182.08.506.506,0,0,0,.385.119,2.81,2.81,0,0,1,1.327.259,4.2,4.2,0,0,0,1.191.393,3.319,3.319,0,0,1,.353.1,1.84,1.84,0,0,0,.458.1.687.687,0,0,1,.52.181c.165.147.37.257.54.4a1.975,1.975,0,0,0,.928.448.794.794,0,0,1,.453.233,2.058,2.058,0,0,0,.738.47c.29.117.566.267.848.4a.756.756,0,0,0,.449.11,1.748,1.748,0,0,1,.292,0c.3-.151.538-.282.786-.39a1.36,1.36,0,0,1,.82-.062c.428.092.848.212,1.272.318a.814.814,0,0,0,.156.012c.193.013.385.031.577.033a1.089,1.089,0,0,0,.358-.035,1.911,1.911,0,0,1,.982-.047,3.288,3.288,0,0,0,1.406.064,2.567,2.567,0,0,1,.313.011,4.592,4.592,0,0,0,.827-.093c.147-.039.238-.232.387-.29.168-.064.4-.007.555-.085.383-.19.807-.284,1.2-.448a2.436,2.436,0,0,1,1.375-.153c.4.063.8.139,1.2.191a.941.941,0,0,0,.512-.021,10.809,10.809,0,0,0,1.251-.573.552.552,0,0,1,.592-.07.643.643,0,0,0,.51.027,6.722,6.722,0,0,0,.96-.339,5.044,5.044,0,0,1,1.356-.465,1.514,1.514,0,0,0,.882-.366,2.263,2.263,0,0,1,.752-.487,2.672,2.672,0,0,0,.843-.539c.113-.118.336-.142.5-.227.177-.094.2-.325.442-.384a.628.628,0,0,0,.487-.56c.075-.438.23-.551.7-.514a1.787,1.787,0,0,0,.855-.17c.173-.072.352-.129.529-.192.064-.023.151-.02.194-.059a1.1,1.1,0,0,1,.718-.234.505.505,0,0,0,.475-.32,3.767,3.767,0,0,1,.191-.371c.36-.166.7-.318,1.036-.478a.622.622,0,0,0,.238-.173,1.631,1.631,0,0,1,.6-.575c.043-.02.067-.071.1-.107a4.709,4.709,0,0,1,.577-.545,2.214,2.214,0,0,0,.57-.767c.1-.159.174-.343.261-.516a.662.662,0,0,1,.638-.411,1.422,1.422,0,0,0,.687-.21,5.1,5.1,0,0,0,1.06-.677.673.673,0,0,1,.464-.192.925.925,0,0,0,.341-.094c.62-.279.922-.847,1.356-1.295.032-.033.033-.09.053-.133.1-.2.194-.41.313-.6a.725.725,0,0,0,.139-.452.556.556,0,0,1,.32-.559.951.951,0,0,0,.46-.609,1.213,1.213,0,0,1,.52-.86.894.894,0,0,1,.2-.831,4.1,4.1,0,0,0,.472-.731,2.791,2.791,0,0,0,.422-1.376,1.217,1.217,0,0,1,.334-.834,4.228,4.228,0,0,0,.287-.34,2.373,2.373,0,0,0,.515-1.29,2.232,2.232,0,0,1,.109-.656,1.408,1.408,0,0,1,.283-.611.368.368,0,0,0,.086-.224,4.66,4.66,0,0,0,.016-.529c0-.164-.033-.348.1-.462.236-.208.251-.522.443-.75a.678.678,0,0,0,.085-.324,1.539,1.539,0,0,0,.031-.432.553.553,0,0,1,.135-.449.632.632,0,0,0,.142-.453c0-.064-.014-.146.023-.187a.746.746,0,0,0,.1-.647.486.486,0,0,1,.137-.489.207.207,0,0,0,.051-.132c.046-.4.1-.8.125-1.2a1.24,1.24,0,0,0-.181-.939C327.206,147.735,327.266,147.555,327.236,147.37Z"/><path class="cls-2" d="M426.142,135.318a.741.741,0,0,0-.014-.392,6.569,6.569,0,0,0-.147-.787,3.644,3.644,0,0,0-.347-.992,2.63,2.63,0,0,1-.425-1.539,1.656,1.656,0,0,0-.444-1.207c-.232-.015-.455-.029-.677-.046-1.2-.089-2.6-.923-2.558-2.2a1.215,1.215,0,0,0-.14-.7,1.19,1.19,0,0,1-.152-1.08.573.573,0,0,0-.086-.607.649.649,0,0,1-.175-.365c-.022-.632-.5-1.068-.9-1.567-.57-.088-1.151-.173-1.4-.7a.229.229,0,0,0-.147-.1,1.712,1.712,0,0,1-1.052-.772,1.117,1.117,0,0,0-.339-.283c-.618-.321-1.246-.63-1.926-.97-.029-.064-.045-.236-.152-.3a3.166,3.166,0,0,0-1.831-.778.949.949,0,0,1-.755-.287,3.45,3.45,0,0,0-2.253-.964,2.862,2.862,0,0,1-1.518-.628,3.621,3.621,0,0,0-1.875-.7,2.978,2.978,0,0,1-1.355-.378,3.27,3.27,0,0,0-1.192-.266,11.584,11.584,0,0,1-1.229-.434,1.81,1.81,0,0,0-.48-.018c-.226,0-.452,0-.677,0a1.9,1.9,0,0,1-1.092-.246,2.034,2.034,0,0,0-1-.251,2.8,2.8,0,0,1-1.5-.473,7.369,7.369,0,0,0-1.47-.9c-.605-.245-1-.526-1.068-1.113-.039-.352-.428-.487-.79-.276a2.661,2.661,0,0,1-2.016.263,2.075,2.075,0,0,0-.858-.032c-.571.13-1.154.084-1.721.158a3.1,3.1,0,0,1-1.853-.16c-.264-.131-.642-.1-.91-.226a2.919,2.919,0,0,0-1.418-.244c.02-.325.047-.651.041-.976a40.994,40.994,0,0,0,.007-4.236,3,3,0,0,1,.063-.451c.01-.225-.007-.45-.006-.675a3.428,3.428,0,0,1,.028-.787,8.624,8.624,0,0,0,.106-2.624,11.48,11.48,0,0,1,.029-3.087,2.737,2.737,0,0,0-.018-.687c-.034-.65-.089-1.3-.1-1.95a11.089,11.089,0,0,1,.134-2.725,5.07,5.07,0,0,0-.015-2.046,3.894,3.894,0,0,1-.075-.67,7.6,7.6,0,0,0,.009-2.486c-.105-.33.127-.753.1-1.126-.124-1.786-.063-3.571-.055-5.358,0-.266.016-.534.03-.8a8.934,8.934,0,0,0,.064-1.251,7.468,7.468,0,0,1,.174-2.391,2.493,2.493,0,0,0,0-.895,17.232,17.232,0,0,1-.219-3.076,21.866,21.866,0,0,0,.021-2.4c-.016-.322-.036-.646-.054-.97-.2-.025-.406-.042-.613-.055-.172-.013-.345-.006-.517-.018a14.025,14.025,0,0,1-1.758-.165,3.663,3.663,0,0,1-1.488-.591c-.063-.047-.132-.073-.2-.114,0,.769.073,1.538.024,2.309a17.083,17.083,0,0,1-.233,2.934,2.23,2.23,0,0,0-.125.673,24.666,24.666,0,0,0,.4,4.56,3.322,3.322,0,0,1,.014,1.131,15.079,15.079,0,0,0-.175,2.965,6.611,6.611,0,0,1-.145,2.39,14.7,14.7,0,0,0,.047,2.822.339.339,0,0,0,.04.108,4.475,4.475,0,0,1,.132,2.151,10.512,10.512,0,0,0-.192,2.158,11.821,11.821,0,0,0,.124,2.844.962.962,0,0,1,0,.343c-.041.532-.058,1.067-.14,1.593a10.905,10.905,0,0,0-.014,3.519,5.729,5.729,0,0,1-.007,1.141c-.016.457-.058.913-.066,1.369a6.269,6.269,0,0,1,.017,1.144,10.116,10.116,0,0,0-.064,2.286,10.328,10.328,0,0,1-.066,1.139,6.77,6.77,0,0,0-.165,1.809,5.8,5.8,0,0,1,0,1.967c-.038.008-.076.019-.114.026-.217.051-.426.12-.645.163a11.4,11.4,0,0,1-1.684.3,7.325,7.325,0,0,0-1.779.32,3.82,3.82,0,0,1-.929.174,1.46,1.46,0,0,0-1.1.417.808.808,0,0,1-.4.2,4.391,4.391,0,0,0-1.433.438,1.186,1.186,0,0,1-.467.072,4.78,4.78,0,0,0-.672.038,3.253,3.253,0,0,1-1.423.007,2.412,2.412,0,0,0-1.684.166,2.322,2.322,0,0,1-1.272.265c-.287,0-.573,0-.887,0a1.5,1.5,0,0,1-.832.662,5.819,5.819,0,0,0-.782.57c-.276.175-.6.3-.878.472-.1.058-.141.176-.222.259-.439.452-.793.956-1.269,1.391a3.08,3.08,0,0,0-.7.938,3.692,3.692,0,0,1-1.442,1.548l.261.184a1.712,1.712,0,0,1-.932,1.565c-.166.395-.193.779-.438.974a9.646,9.646,0,0,0-1.1,1.37,3.63,3.63,0,0,1-1.089.885,2.1,2.1,0,0,0-1.025,1.024,5.376,5.376,0,0,1-1.407,1.774,2.386,2.386,0,0,0-.882,1.715,4.316,4.316,0,0,1-.366,1.317.621.621,0,0,1-.417.413,1.914,1.914,0,0,0-1.152,1.107c-.273.48-.552.959-.817,1.441a.844.844,0,0,0-.121.38,5.7,5.7,0,0,0,.2,2.38,1.157,1.157,0,0,1,.023.862c-.2.588-.356,1.187-.557,1.776a1.4,1.4,0,0,0-.015.944,1.433,1.433,0,0,1,.1.628c-.06.47-.22.931.14,1.38.091.113.025.314.022.472a3.036,3.036,0,0,0-.02.475,23.081,23.081,0,0,1,.268,2.606.631.631,0,0,0,.123.379,1.425,1.425,0,0,1,.227.925,3.1,3.1,0,0,0,.132,1.024,6.336,6.336,0,0,1,.342,1.805,1.141,1.141,0,0,0,.2.59,20.472,20.472,0,0,0,1.733,2.2c.38.4.621.8.4,1.326a.552.552,0,0,0-.008.388,1.6,1.6,0,0,1,.15,1.243c-.036.086.048.205.067.31a4.132,4.132,0,0,0,.385.892,10.366,10.366,0,0,1,.457,1.551,2.366,2.366,0,0,0,.689,1.293,6.521,6.521,0,0,0,.987.486c.341.192.45.6.9.7a.221.221,0,0,1,.088.033,6.662,6.662,0,0,1,1,.839,6.9,6.9,0,0,0,.569.635,2.127,2.127,0,0,1,.886,1.373.742.742,0,0,0,.724.66.816.816,0,0,1,.48.231c.5.673,1.457.974,1.923,1.666a8.273,8.273,0,0,1,1.711,1.5,1.5,1.5,0,0,1,.506.668.683.683,0,0,0,.458.489.814.814,0,0,1,.607.613,2.852,2.852,0,0,1,.9.015c.646.264,1.43.367,1.832.959a.757.757,0,0,0,.561.269,7.812,7.812,0,0,1,2.329.734,1.782,1.782,0,0,0,1.391.085c.269-.089.54-.177.813-.257a3.529,3.529,0,0,1,2.923.37,5.417,5.417,0,0,0,1.944.638,21.57,21.57,0,0,0,2.3.179c.225.014.451.006.675.019,1.031.059,2.066.107,2.684.965a.581.581,0,0,0,.325.145c.343.07.693.108,1.035.18a7.986,7.986,0,0,1,1.784.243.849.849,0,0,0,.378.01c.382-.029.765-.062,1.146-.1a2.723,2.723,0,0,0,.559-.107c.81-.277,1.693-.29,2.522-.5a.6.6,0,0,1,.286,0,2.083,2.083,0,0,0,1.649-.244,8.531,8.531,0,0,1,1.473-.586,2.586,2.586,0,0,0,1.128-.7,4.217,4.217,0,0,1,2.042-1.273,3.447,3.447,0,0,0,.863-.335c.643-.356,1.272-.725,1.884-1.114a6.264,6.264,0,0,1,1.4-.688c.563-.188,1.073-.482,1.632-.68a5.039,5.039,0,0,1,2.54-.57.542.542,0,0,0,.271-.075,23.014,23.014,0,0,1,3.361-.959,8.3,8.3,0,0,0,3.58-1.921,2.381,2.381,0,0,1,.294-.2c.793-.576,1.4-1.3,2.238-1.849a5.684,5.684,0,0,0,.763-.716,2.848,2.848,0,0,0,.37-.366,5.1,5.1,0,0,1,1.37-1.422.765.765,0,0,0,.226-.255c.214-.357.4-.726.626-1.077a7.486,7.486,0,0,1,.94-1.293,1.882,1.882,0,0,0,.549-.823,6.983,6.983,0,0,1,1.917-3.076,1.43,1.43,0,0,0,.473-1.089,3.324,3.324,0,0,1,.406-1.465,3.1,3.1,0,0,0,.348-1.234,8.223,8.223,0,0,1,.567-2.17V137.868a1.346,1.346,0,0,1-.391-1.041A4.2,4.2,0,0,1,426.142,135.318Z"/><path class="cls-2" d="M689.6,133.646a1.435,1.435,0,0,1-.48-.926,5.515,5.515,0,0,0-.4-.849c-.111-.289-.16-.594-.26-.887-.036-.1-.151-.183-.217-.28-.366-.529-.811-1.01-1.149-1.564a3.7,3.7,0,0,0-.819-.929,4.051,4.051,0,0,1-1.268-1.763l-.277.136c-.712-.325-1.31-.727-1.434-1.364-.383-.289-.793-.462-.935-.735a11.285,11.285,0,0,0-1.173-1.423,3.516,3.516,0,0,1-.647-1.219,2.236,2.236,0,0,0-.82-1.222A6.341,6.341,0,0,1,678.2,118.8a3.2,3.2,0,0,0-1.612-1.384,6.508,6.508,0,0,1-1.33-.812.664.664,0,0,1-.33-.5,1.989,1.989,0,0,0-.871-1.356c-.445-.408-.885-.821-1.334-1.223a1.241,1.241,0,0,0-.378-.247,8.924,8.924,0,0,0-2.651-.784,1.791,1.791,0,0,1-.946-.323c-.583-.393-1.191-.755-1.773-1.147a2.163,2.163,0,0,0-1.025-.386,2.206,2.206,0,0,1-.713-.168,2.48,2.48,0,0,0-1.547-.434c-.148.028-.346-.1-.52-.17a5.375,5.375,0,0,0-.51-.2c-.978-.253-1.962-.481-2.919-.817a.9.9,0,0,0-.447-.052,2.15,2.15,0,0,1-1.074-.186,4.853,4.853,0,0,0-1.154-.3,9.714,9.714,0,0,1-2.066-.443c-.014,0-.025,0-.038,0a1.368,1.368,0,0,1,.135-.775,2.011,2.011,0,0,0,.044-1.961,1.5,1.5,0,0,1-.135-1.113,4.976,4.976,0,0,0-.136-2.49,2.035,2.035,0,0,1,.056-1.669.627.627,0,0,0,.088-.432,13.314,13.314,0,0,1-.28-2.849,1.341,1.341,0,0,0-.358-.943c-.466-.4-.466-1.037-.842-1.48a.656.656,0,0,1-.053-.548,2.2,2.2,0,0,0-.163-1.56c-.111-.324-.26-.635-.393-.95-.219-.515-.189-.968.232-1.206.042-.633.1-1.16.105-1.687a3.94,3.94,0,0,0-.087-1.13,3.984,3.984,0,0,1-.155-1.583.779.779,0,0,0-.093-.53.759.759,0,0,1,0-1.04A.531.531,0,0,0,653,83.48a1.924,1.924,0,0,1,0-1.016,10.606,10.606,0,0,0-.154-3.62,5.251,5.251,0,0,1-.188-2.813c.044-.14.044-.282.074-.423a2.3,2.3,0,0,0-1.526,1.2c-.074.158-.145.315-.22.479a1.776,1.776,0,0,1-1.188-.065,2.908,2.908,0,0,0-1.478-.188.5.5,0,0,1-.067,0,1.925,1.925,0,0,0,.107.838c.032.08-.054.218-.108.316a1.854,1.854,0,0,0-.059,1.56,2.237,2.237,0,0,1,.042,1.344,2.169,2.169,0,0,0-.1,1.015,8.645,8.645,0,0,1,.088,2.953c-.039.517-.34.943-.342,1.423s.208.969.231,1.458c.03.669-.242,1.361.238,1.987.07.091,0,.293-.01.444-.011.265-.043.533-.03.8a14.018,14.018,0,0,1-.064,1.942c-.086.911-.157,1.823-.315,2.725a1.294,1.294,0,0,0,.022.568,9.951,9.951,0,0,1,.036,2.944,3.236,3.236,0,0,0,.05,1.121,4.614,4.614,0,0,1,.154.9,10.751,10.751,0,0,1-.062,2.741,6.326,6.326,0,0,1-.041.909,3.149,3.149,0,0,1-.44.736c.528.7.539.7.518,1.03l-.06.807c-.027-.016-.056-.015-.081-.034-.084-.064-.238-.043-.357-.07a5.815,5.815,0,0,0-1.084-.047,15.416,15.416,0,0,1-1.822-.249,3.154,3.154,0,0,0-1.609.037,5.2,5.2,0,0,0-.816.594c-.307.2-.778.123-1.022.439a.167.167,0,0,1-.06.058,6.523,6.523,0,0,1-1.207.468,7.717,7.717,0,0,0-.856.2,2.661,2.661,0,0,1-1.753.162.764.764,0,0,0-.929.316.64.64,0,0,1-.391.291c-.879.13-1.483.777-2.372.875a8.348,8.348,0,0,1-2.135.768,1.783,1.783,0,0,1-.875.138.742.742,0,0,0-.665.173.868.868,0,0,1-.845.24c-.1.272-.108.565-.276.71-.476.411-.815,1-1.575,1.081a.6.6,0,0,0-.456.342,5.487,5.487,0,0,1-1.475,1.565,1.151,1.151,0,0,0-.5,1.075c.019.25.037.5.045.751a2.325,2.325,0,0,1-1.249,2.185,3.814,3.814,0,0,0-1.261,1.3,13.677,13.677,0,0,0-.861,1.762c-.081.173-.137.357-.217.531-.363.8-.715,1.6-1.829,1.758a.448.448,0,0,0-.253.2c-.174.245-.319.51-.5.754-.3.418-.339.978-.782,1.325-.078.061-.1.193-.121.3-.078.317-.153.634-.217.955a1.671,1.671,0,0,0-.045.488,20.064,20.064,0,0,1-.19,2.209.357.357,0,0,1-.087.226,1.383,1.383,0,0,0-.214,1.412,6.22,6.22,0,0,1,.214,1.406,2.242,2.242,0,0,0,.436,1.18,3.63,3.63,0,0,1,.795,2.131,2.531,2.531,0,0,0,.116.822c.2.651.421,1.3.666,1.942a5,5,0,0,1,.346,1.39c.04.522.214,1.046.267,1.569a3.375,3.375,0,0,1-.115,2.252.361.361,0,0,0,0,.245,15.831,15.831,0,0,1,.072,3.06,6.743,6.743,0,0,0,1.054,3.616,2.077,2.077,0,0,1,.135.314c.4.862,1.013,1.637,1.367,2.519a5.951,5.951,0,0,0,.559.891,2.9,2.9,0,0,0,.292.441,5.509,5.509,0,0,1,1.153,1.655.866.866,0,0,0,.21.282c.328.311.678.6.993.926a9.039,9.039,0,0,1,1.138,1.262,2.37,2.37,0,0,0,.736.764,8.909,8.909,0,0,1,2.8,2.747,1.984,1.984,0,0,0,1.05.808,4.985,4.985,0,0,1,1.477.9,4.644,4.644,0,0,0,1.245.766,12.485,12.485,0,0,1,2.2,1.312l12.225,4.444a1.915,1.915,0,0,1,1.248.1,6.563,6.563,0,0,1,1.6.713,1.192,1.192,0,0,0,.431.144c.3.071.6.149.9.195a5.33,5.33,0,0,0,1.181.115,3.909,3.909,0,0,1,1.8.271,2.375,2.375,0,0,0,1.445.124c.084-.179.164-.352.245-.522a2.518,2.518,0,0,1,3.142-1.168,1.843,1.843,0,0,0,.8.165,1.809,1.809,0,0,1,1.221.307.864.864,0,0,0,.687.171.894.894,0,0,1,.448,0,3.747,3.747,0,0,0,1.968-.1c.261-.419.522-.849,1.168-.84a.2.2,0,0,0,.147-.079,1.6,1.6,0,0,1,1.146-.534,1.075,1.075,0,0,0,.407-.158c.529-.365,1.047-.744,1.616-1.151.077,0,.269.058.372,0,.529-.312,1.183-.507,1.38-1.151a.7.7,0,0,1,.53-.489,2.615,2.615,0,0,0,1.7-1.414,2.142,2.142,0,0,1,1.125-.961,2.654,2.654,0,0,0,1.311-1.216,2.039,2.039,0,0,1,.8-.931c.349-.189.429-.559.634-.845a8.484,8.484,0,0,1,.83-.809,1.11,1.11,0,0,0,.159-.375q.1-.268.2-.539a1.271,1.271,0,0,1,.585-.775,1.374,1.374,0,0,0,.562-.7,1.971,1.971,0,0,1,.949-1,6.207,6.207,0,0,0,1.4-.819,1.492,1.492,0,0,1,1.523-.409c.4.108.654-.148.529-.52a1.737,1.737,0,0,1,.3-1.712,1.319,1.319,0,0,0,.283-.672,11.077,11.077,0,0,1,.327-1.435,1.969,1.969,0,0,1,.711-1.413c.219-.16.294-.475.511-.637a2.106,2.106,0,0,0,.81-1.474,1.088,1.088,0,0,1,.165-.448,1.479,1.479,0,0,0,.213-.862c.022-.853.069-1.7.1-2.556.009-.192,0-.387.01-.578a7.4,7.4,0,0,1,.16-1.462,4.716,4.716,0,0,0,.166-1.546,2.459,2.459,0,0,1,.081-.81,1.085,1.085,0,0,0-.138-1.037.65.65,0,0,1-.1-.4,3.06,3.06,0,0,0-.061-1.316.737.737,0,0,1,.055-.4,2.791,2.791,0,0,0,.154-.55,2.024,2.024,0,0,1,.4-1.138,1.564,1.564,0,0,0,.309-1.409,1.543,1.543,0,0,1,.078-1.12C689.424,134.125,689.507,133.9,689.6,133.646Z"/><path class="cls-3" d="M507.627,40.512c-.016-.392-.021-.786-.061-1.176a1.268,1.268,0,0,0-.292-.874c-.167-.154-.141-.336-.194-.509-.058-.192-.209-.357-.168-.577a1.788,1.788,0,0,1,.059-.226c.023-.067.053-.132.08-.2l-.554-.207c.038-.219.061-.438-.142-.532a1.284,1.284,0,0,1-.476-.505c.036-.107.069-.207.095-.288-.048-.106-.087-.189-.125-.276-.106-.236-.044-.543-.31-.711a.048.048,0,0,1-.01-.043c.054-.142-.021-.236-.108-.336a.225.225,0,0,1-.056-.174c.089-.362-.076-.766.195-1.072-.082-.2-.247-.327-.2-.544a.239.239,0,0,0-.071-.165c-.1-.122-.215-.23-.312-.352a1.015,1.015,0,0,1-.2-.31c-.043-.132-.006-.29-.056-.416a1.466,1.466,0,0,0-.247-.324.069.069,0,0,1-.013-.044c.021-.2-.155-.287-.255-.393a1.09,1.09,0,0,0,.033-.17c0-.255.155-.516-.035-.77-.035-.046.007-.15.02-.226a4.575,4.575,0,0,0,.114-.836,5.455,5.455,0,0,1-.011-.557,1.1,1.1,0,0,0-.157-.763c-.161-.206-.184-.566-.553-.581-.034,0-.07-.059-.095-.1a1.6,1.6,0,0,0-.57-.478.78.78,0,0,1-.413-.431.551.551,0,0,0-.186-.2c-.216-.183-.444-.352-.652-.541a1.2,1.2,0,0,0-.288-.233.767.767,0,0,1-.416-.491,6.021,6.021,0,0,0-.375-.858,1.164,1.164,0,0,1-.19-.943c.019-.047-.019-.12-.037-.177a2.676,2.676,0,0,1-.093-.264,1.8,1.8,0,0,0-.037-.326,1.439,1.439,0,0,0-.2-.288c.037-.065.059-.106.081-.148a.937.937,0,0,0-.326-1.348c-.321-.216-.613-.476-.916-.715v-.251c-.4-.042-.773-.123-.917-.54-.169-.05-.322-.091-.469-.142a.677.677,0,0,1-.244-.123,1.647,1.647,0,0,0-.656-.348c-.329-.106-.674-.171-.993-.3a5.492,5.492,0,0,1-1.062-.471,1.8,1.8,0,0,1-.612-.637,1.384,1.384,0,0,0-.653-.584.547.547,0,0,1-.191-.123c-.113-.141-.218-.271-.432-.206-.032.01-.094-.062-.136-.1a2.711,2.711,0,0,0-.727-.408c-.413.037-.836-.142-1.215.068a.948.948,0,0,1-.433-.379.789.789,0,0,0-.206-.179,3.727,3.727,0,0,1-.91-.719.571.571,0,0,0-.24-.211,1.692,1.692,0,0,1-.705-.453,1.132,1.132,0,0,0-.443-.247,2.671,2.671,0,0,1-.746-.386,3.883,3.883,0,0,0-.636-.392,4.132,4.132,0,0,1-.606-.445.174.174,0,0,0-.038-.027,9.242,9.242,0,0,0-1.729-.72.316.316,0,0,1-.2-.112c-.127-.233-.367-.284-.575-.387-.268-.131-.536-.263-.809-.381a.661.661,0,0,0-.32-.059,1.3,1.3,0,0,1-1-.327c-.1-.078-.229-.11-.328-.186a.721.721,0,0,0-.779-.181.13.13,0,0,1-.093,0,.935.935,0,0,0-.731.057,1.747,1.747,0,0,1-.276.04.6.6,0,0,0-.22.056,2.033,2.033,0,0,1-.605.229.969.969,0,0,0-.389.17.152.152,0,0,1-.091.022,1.7,1.7,0,0,0-.418-.013c-.114.023-.252-.073-.367-.109l-.843.518c-.072-.049-.121-.108-.175-.113a1.07,1.07,0,0,0-.681.044,1.189,1.189,0,0,1-.946.173.914.914,0,0,0-.189,0c-.219-.02-.438-.034-.654-.066a.947.947,0,0,0-.348.038c-.052.01-.107-.009-.159.016a.723.723,0,0,1-.311.1,1.051,1.051,0,0,0-.569.2,1.059,1.059,0,0,1-.9.145,1,1,0,0,0-.556,0c-.1.026-.254.049-.318,0a.558.558,0,0,0-.529-.074.836.836,0,0,1-.692-.137.685.685,0,0,0-.076.021,1.972,1.972,0,0,1-1.009.344c-.075-.005-.167.076-.233.137-.091.085-.156.2-.25.28a.373.373,0,0,1-.242.117c-.382-.062-.688.206-1.049.224-.176.148-.377.1-.58.079a1.809,1.809,0,0,0-1.05.205c-.287.156-.555.349-.826.531-.237.156-.464.325-.7.474a.351.351,0,0,1-.257.07c-.275-.108-.526.075-.791.042a.167.167,0,0,0-.126.055c-.193.245-.571.185-.745.463-.025.038-.115.036-.175.051-.107.025-.214.043-.317.077-.207.07-.41.149-.616.224a1.464,1.464,0,0,0-.6.257.327.327,0,0,1-.354.056.522.522,0,0,0-.563.148.666.666,0,0,1-.821.1,1.129,1.129,0,0,0-.41-.088.65.65,0,0,0-.681.529c-.014.061-.01.127-.025.187-.041.16-.111.293-.3.321-.167.026-.217.145-.25.3a5.88,5.88,0,0,1-.194.679.4.4,0,0,1-.154.226,8.155,8.155,0,0,0-.84.577,2,2,0,0,0-.221.167c-.083.067-.16.141-.243.209a1.328,1.328,0,0,0-.177.145,5.4,5.4,0,0,1-1.219,1.094,1.583,1.583,0,0,0-.451.409,3.83,3.83,0,0,1-1.238,1.256.2.2,0,0,0-.1.1c-.072.263-.308.348-.509.457-.167.092-.2.3-.336.375a1.027,1.027,0,0,0-.4.306,1.712,1.712,0,0,1-.194.2l-.529-.437c-.356-.294-.407-.284-.614.111a.72.72,0,0,1-.048.081.964.964,0,0,0-.149.853.586.586,0,0,1-.007.37,3.3,3.3,0,0,0-.346,1.255.314.314,0,0,1-.037.135,2.658,2.658,0,0,0-.194.867.393.393,0,0,1-.12.239,9.159,9.159,0,0,1-.784.65,2.115,2.115,0,0,0-.5.49c-.146.2-.082.455-.23.647a.187.187,0,0,0,.017.178c.2.232.395.486.744.5.071,0,.124.006.125.119a1.107,1.107,0,0,1-.138.087.4.4,0,0,0-.259.443,1.063,1.063,0,0,1-.244.786,1.269,1.269,0,0,0-.251.549,11.34,11.34,0,0,0-.2,1.158.644.644,0,0,1-.206.5.3.3,0,0,0-.081.211,3.229,3.229,0,0,1-.28,1.187,2.084,2.084,0,0,1-.627,1c-.016.21-.044.4-.042.583a1.122,1.122,0,0,1-.165.58c-.034.064-.014.155-.028.233a2.1,2.1,0,0,1-.066.271c-.068.217-.236.412-.151.663-.2.711-.321,1.444-.585,2.138a3.787,3.787,0,0,0-.217.672.554.554,0,0,1-.4.519.38.38,0,0,0-.268.449,3.1,3.1,0,0,0,.25,1c.282.491.52,1.006.811,1.491a3.845,3.845,0,0,1,.419,1.341,2.181,2.181,0,0,0,.239.755,2.41,2.41,0,0,1,.283.785,1.369,1.369,0,0,1-.149.946.8.8,0,0,0-.083.312.3.3,0,0,1-.279.321.52.52,0,0,0-.448.431,1.534,1.534,0,0,0,.242,1.26,5.107,5.107,0,0,1,.44.721,2.937,2.937,0,0,1,.309.575,2,2,0,0,0,.285.539,3.731,3.731,0,0,1,.7,1.623,1.992,1.992,0,0,0,.4.989,7.947,7.947,0,0,1,.725,1.149.917.917,0,0,1,.077.266,1.833,1.833,0,0,0,.027.281,6.914,6.914,0,0,0,.334,1.03c.138.264.269.533.383.807a14.781,14.781,0,0,0,.7,1.491.951.951,0,0,1,.072.174,2,2,0,0,0,.441.819.9.9,0,0,1,.13.245c.046.1.083.2.135.3a1.952,1.952,0,0,0,.575.793c.109.072.151.238.25.335.245.24.485.486.74.718a5.227,5.227,0,0,0,.85.669.506.506,0,0,1,.227.226.725.725,0,0,0,.5.452c.219.083.438.165.651.263a2.471,2.471,0,0,1,.777.518,4.3,4.3,0,0,1,.668.9c.1.179.207.353.312.528a.8.8,0,0,0,.508.387,4.849,4.849,0,0,1,.8.287.713.713,0,0,1,.353.288,6.839,6.839,0,0,0,.4.581.938.938,0,0,0,.594.5.405.405,0,0,1,.33.309,1.028,1.028,0,0,0,.3.521,3.1,3.1,0,0,1,.417.568c.2.4.642.529.926.833.033.034.118.034.176.029a.93.93,0,0,1,.916.457.445.445,0,0,0,.081.116.54.54,0,0,0,.2.114c.337.075.678.132,1.015.208a2.191,2.191,0,0,1,.447.148,1.306,1.306,0,0,0,1.168.089.247.247,0,0,1,.137-.025,3.191,3.191,0,0,1,.645.116,4.684,4.684,0,0,0,.632.18.836.836,0,0,1,.5.254.523.523,0,0,0,.558.16,1.085,1.085,0,0,1,.729.108.628.628,0,0,0,.5.053c.135-.042.273-.076.412-.1a1.008,1.008,0,0,1,.813.137,3.176,3.176,0,0,0,.465.215,1.388,1.388,0,0,1,.249.127.378.378,0,0,0,.344.1.27.27,0,0,1,.174.049.415.415,0,0,0,.355.054,2.367,2.367,0,0,1,1.21.045,3.518,3.518,0,0,0,1.111.195,2.812,2.812,0,0,1,.326.039,1.492,1.492,0,0,0,.419.024c.033-.007.056.019.087.017a.557.557,0,0,1,.4.077c.167.116.364.189.534.3a1.649,1.649,0,0,0,.884.288.654.654,0,0,1,.433.155,1.813,1.813,0,0,0,.721.338c.273.067.539.168.807.257a.619.619,0,0,0,.414.037,1.362,1.362,0,0,1,.257-.046l.135-.1c.178-.142.344-.279.5-.392a1.118,1.118,0,0,1,.717-.187c.391.022.781.073,1.171.11a.829.829,0,0,0,.14-.013c.172-.018.344-.031.515-.057a.937.937,0,0,0,.311-.089,1.6,1.6,0,0,1,.862-.2,2.719,2.719,0,0,0,1.253-.155,1.77,1.77,0,0,1,.279-.038,3.9,3.9,0,0,0,.716-.217c.126-.061.179-.262.3-.339.14-.088.353-.069.479-.166.312-.244.674-.4,1-.617a2.045,2.045,0,0,1,1.193-.361c.363,0,.725.013,1.087,0a.777.777,0,0,0,.449-.1,9.241,9.241,0,0,0,1.026-.744.467.467,0,0,1,.514-.157.539.539,0,0,0,.455-.055,5.712,5.712,0,0,0,.8-.474,4.43,4.43,0,0,1,1.133-.656,1.347,1.347,0,0,0,.729-.489,2.108,2.108,0,0,1,.6-.584,2.463,2.463,0,0,0,.67-.65c.083-.13.278-.188.407-.294s.13-.344.335-.437a.619.619,0,0,0,.353-.614c0-.432.125-.567.549-.6a1.547,1.547,0,0,0,.732-.3c.142-.1.293-.179.441-.267.053-.03.13-.042.163-.086a.952.952,0,0,1,.6-.335.477.477,0,0,0,.376-.382c.028-.138.08-.27.115-.386.3-.215.576-.414.849-.621a.58.58,0,0,0,.186-.2,1.588,1.588,0,0,1,.451-.645c.035-.027.049-.08.076-.12a4.731,4.731,0,0,1,.433-.614,2.218,2.218,0,0,0,.4-.825c.065-.168.1-.357.156-.537a.617.617,0,0,1,.508-.494,1.244,1.244,0,0,0,.578-.307,4.841,4.841,0,0,0,.841-.815.593.593,0,0,1,.382-.257.791.791,0,0,0,.289-.143,4.583,4.583,0,0,0,1.015-1.455c.024-.037.017-.092.029-.137.061-.21.113-.424.191-.629a.762.762,0,0,0,.058-.457.566.566,0,0,1,.205-.587.954.954,0,0,0,.32-.657,1.235,1.235,0,0,1,.337-.908.937.937,0,0,1,.057-.83,4.154,4.154,0,0,0,.315-.776,2.942,2.942,0,0,0,.178-1.39,1.267,1.267,0,0,1,.176-.853,3.947,3.947,0,0,0,.2-.372,2.462,2.462,0,0,0,.273-1.32,2.276,2.276,0,0,1,0-.649,1.455,1.455,0,0,1,.162-.631.383.383,0,0,0,.045-.227c-.012-.171-.032-.343-.061-.513s-.079-.329.019-.458c.18-.238.148-.542.287-.791a.692.692,0,0,0,.028-.324,1.669,1.669,0,0,0-.032-.42.569.569,0,0,1,.055-.453.664.664,0,0,0,.061-.459.31.31,0,0,1-.007-.182.784.784,0,0,0,0-.64.511.511,0,0,1,.052-.492A.217.217,0,0,0,507.627,40.512Z"/><path class="cls-3" d="M419.037,34.927a.841.841,0,0,0-.01-.362c-.032-.243-.059-.488-.113-.726a3.858,3.858,0,0,0-.266-.916,2.8,2.8,0,0,1-.325-1.421,1.723,1.723,0,0,0-.341-1.113c-.177-.016-.347-.027-.517-.044a2.108,2.108,0,0,1-1.958-2.032,1.307,1.307,0,0,0-.105-.642,1.285,1.285,0,0,1-.117-1,.613.613,0,0,0-.067-.56.657.657,0,0,1-.133-.338,2.82,2.82,0,0,0-.687-1.446c-.436-.081-.88-.159-1.072-.645a.178.178,0,0,0-.114-.089,1.368,1.368,0,0,1-.805-.712.871.871,0,0,0-.259-.261c-.472-.3-.952-.582-1.472-.9-.023-.058-.035-.217-.117-.278-.428-.309-.8-.746-1.4-.718a.662.662,0,0,1-.578-.266,2.433,2.433,0,0,0-1.724-.888A2.014,2.014,0,0,1,405.7,19a2.509,2.509,0,0,0-1.434-.652,1.992,1.992,0,0,1-1.037-.349c-.267-.211-.606-.169-.912-.245a8.244,8.244,0,0,1-.941-.4,1.08,1.08,0,0,0-.366-.017c-.173,0-.346,0-.517,0a1.247,1.247,0,0,1-.837-.227,1.358,1.358,0,0,0-.765-.231,1.906,1.906,0,0,1-1.144-.435,5.537,5.537,0,0,0-1.125-.828,1.2,1.2,0,0,1-.816-1.029.357.357,0,0,0-.605-.253,1.73,1.73,0,0,1-1.541.241A1.312,1.312,0,0,0,393,14.54a11.628,11.628,0,0,1-1.317.145,1.985,1.985,0,0,1-1.417-.149c-.2-.119-.492-.09-.7-.208a2.105,2.105,0,0,0-1.5-.205,1.1,1.1,0,0,1-.431,0,1.5,1.5,0,0,0-.8.075c-.73.217-1.465.412-2.2.618-.165.047-.326.109-.493.15a7.317,7.317,0,0,1-1.288.278,3.752,3.752,0,0,0-.48.1,5.452,5.452,0,0,0-.881.192,2.45,2.45,0,0,1-.711.16,1.026,1.026,0,0,0-.838.386.6.6,0,0,1-.3.184,2.973,2.973,0,0,0-1.1.4.755.755,0,0,1-.358.068,2.9,2.9,0,0,0-.514.035,2.05,2.05,0,0,1-1.088.007,1.559,1.559,0,0,0-1.289.152,1.528,1.528,0,0,1-.974.245h-.677a1.225,1.225,0,0,1-.637.612,4.712,4.712,0,0,0-.6.525c-.21.163-.454.282-.671.437-.075.053-.108.163-.169.239-.337.417-.607.881-.971,1.285a2.822,2.822,0,0,0-.536.865,3.26,3.26,0,0,1-1.1,1.429l.2.17a1.651,1.651,0,0,1-.713,1.444c-.127.366-.148.719-.334.9a8.671,8.671,0,0,0-.846,1.266,2.955,2.955,0,0,1-.833.816,1.8,1.8,0,0,0-.783.946,4.96,4.96,0,0,1-1.077,1.637,2.384,2.384,0,0,0-.675,1.583,4.676,4.676,0,0,1-.279,1.216.54.54,0,0,1-.32.382c-.5.17-.683.6-.881,1.021-.208.444-.423.885-.626,1.331a.9.9,0,0,0-.091.35,6.274,6.274,0,0,0,.152,2.2,1.288,1.288,0,0,1,.018.8c-.155.543-.273,1.1-.427,1.639a1.546,1.546,0,0,0-.011.871,1.585,1.585,0,0,1,.077.58,1.765,1.765,0,0,0,.108,1.276c.07.1.019.288.016.435a4.024,4.024,0,0,0-.015.438c.087.8.2,1.6.206,2.406a.653.653,0,0,0,.094.349,1.538,1.538,0,0,1,.174.855,3.415,3.415,0,0,0,.1.944,6.952,6.952,0,0,1,.262,1.667,1.209,1.209,0,0,0,.151.545,18.522,18.522,0,0,0,1.325,2.027,1.209,1.209,0,0,1,.305,1.224.594.594,0,0,0-.007.359,1.751,1.751,0,0,1,.115,1.148c-.028.079.036.188.052.286a4.235,4.235,0,0,0,.294.824,11.255,11.255,0,0,1,.349,1.43,2.361,2.361,0,0,0,.527,1.194,4.712,4.712,0,0,0,.756.449c.26.177.344.55.686.645a.151.151,0,0,1,.068.03,5.457,5.457,0,0,1,.768.775,6.063,6.063,0,0,0,.434.585,2.036,2.036,0,0,1,.679,1.268.63.63,0,0,0,.554.611.583.583,0,0,1,.367.212c.379.622,1.114.9,1.471,1.537a6.979,6.979,0,0,1,1.309,1.389,1.4,1.4,0,0,1,.387.617.592.592,0,0,0,.35.451.707.707,0,0,1,.465.568,1.816,1.816,0,0,1,.686.012c.5.245,1.094.339,1.4.885a.546.546,0,0,0,.428.249,5.309,5.309,0,0,1,1.783.678,1.158,1.158,0,0,0,1.064.079c.2-.083.412-.164.622-.238a2.29,2.29,0,0,1,2.039.226c.064.041.133.067.2.114a3.663,3.663,0,0,0,1.488.591,14.025,14.025,0,0,0,1.758.165c.172.012.345,0,.517.018.207.013.413.03.613.055a1.777,1.777,0,0,1,1.44.836.42.42,0,0,0,.249.133c.261.063.531.1.791.166.448.113.934-.012,1.365.224a.538.538,0,0,0,.289.01c.293-.028.585-.058.877-.1a1.721,1.721,0,0,0,.427-.1c.619-.256,1.3-.267,1.929-.459a.371.371,0,0,1,.219,0,1.372,1.372,0,0,0,1.262-.225,5.839,5.839,0,0,1,1.127-.542,1.978,1.978,0,0,0,.863-.648,3.209,3.209,0,0,1,1.562-1.174,2.334,2.334,0,0,0,.66-.311c.491-.327.974-.669,1.442-1.027a4.619,4.619,0,0,1,1.07-.636c.431-.173.821-.444,1.248-.627a3.337,3.337,0,0,1,1.944-.527.343.343,0,0,0,.207-.069,15.305,15.305,0,0,1,2.571-.884,6.121,6.121,0,0,0,2.739-1.774,1.876,1.876,0,0,1,.225-.187c.607-.532,1.074-1.2,1.711-1.708a4.571,4.571,0,0,0,.584-.661,2.506,2.506,0,0,0,.285-.337A4.427,4.427,0,0,1,414.6,59.16a.684.684,0,0,0,.174-.235c.163-.33.3-.671.477-.994a7.046,7.046,0,0,1,.719-1.194,1.813,1.813,0,0,0,.421-.76,6.732,6.732,0,0,1,1.467-2.841,1.459,1.459,0,0,0,.362-1.005,3.55,3.55,0,0,1,.309-1.351,3.317,3.317,0,0,0,.267-1.14,8.914,8.914,0,0,1,.434-2V37.281a1.388,1.388,0,0,1-.3-.961A4.636,4.636,0,0,1,419.037,34.927Z"/><path class="cls-3" d="M679.014,39.7a1.231,1.231,0,0,1-.367-.818,4.739,4.739,0,0,0-.3-.754c-.083-.257-.113-.53-.187-.791-.025-.089-.119-.159-.171-.244-.285-.467-.636-.886-.9-1.374a2.91,2.91,0,0,0-.646-.812,3.313,3.313,0,0,1-.99-1.549c-.071.041-.157.087-.234.131-.576-.271-1.057-.612-1.14-1.185-.307-.247-.639-.39-.748-.631a8.928,8.928,0,0,0-.923-1.246,3.013,3.013,0,0,1-.5-1.078,1.855,1.855,0,0,0-.637-1.077,5.024,5.024,0,0,1-1.2-1.6,2.448,2.448,0,0,0-1.287-1.194,4.758,4.758,0,0,1-1.071-.692.545.545,0,0,1-.257-.437,1.653,1.653,0,0,0-.676-1.2c-.354-.354-.7-.712-1.062-1.061a.924.924,0,0,0-.3-.209,6.494,6.494,0,0,0-2.164-.624,1.312,1.312,0,0,1-.77-.26c-.468-.336-.958-.642-1.428-.979a1.593,1.593,0,0,0-.833-.315,1.632,1.632,0,0,1-.584-.128,1.814,1.814,0,0,0-1.262-.341c-.123.029-.283-.084-.424-.137a3.6,3.6,0,0,0-.415-.168c-.8-.2-1.6-.372-2.383-.645a.671.671,0,0,0-.367-.033,1.575,1.575,0,0,1-.881-.132,4.713,4.713,0,0,0-.8-.209.993.993,0,0,0-.141-.025,7.249,7.249,0,0,1-1.691-.333,1.251,1.251,0,0,0-.575-.047c-.7.128-1.394.283-2.077.477-.108.032-.222.042-.329.076a1.243,1.243,0,0,1-1.281-.137.616.616,0,0,0-.342-.132,1.8,1.8,0,0,1-1.142-.291c-.067-.054-.195-.03-.292-.052a4.371,4.371,0,0,0-.893-.006,11.687,11.687,0,0,1-1.5-.168,2.425,2.425,0,0,0-1.33.085,4.741,4.741,0,0,0-.692.563c-.261.185-.647.136-.857.428a.165.165,0,0,1-.052.053,5.552,5.552,0,0,1-1.011.461,6.308,6.308,0,0,0-.712.209,2.087,2.087,0,0,1-1.452.2.642.642,0,0,0-.779.314.583.583,0,0,1-.331.274c-.729.145-1.249.748-1.986.865a7.016,7.016,0,0,1-1.787.76,1.428,1.428,0,0,1-.726.154.61.61,0,0,0-.555.175.72.72,0,0,1-.705.245c-.09.248-.108.512-.251.647-.4.386-.7.923-1.334,1.026a.551.551,0,0,0-.387.321,5.334,5.334,0,0,1-1.267,1.46,1.158,1.158,0,0,0-.445.986c.008.224.014.449.013.674a2.321,2.321,0,0,1-1.1,2.009,3.7,3.7,0,0,0-1.081,1.209,13.835,13.835,0,0,0-.767,1.617c-.073.159-.126.327-.2.485-.325.731-.642,1.47-1.566,1.643-.083.015-.163.112-.215.19-.152.228-.279.47-.434.7-.264.386-.311.893-.687,1.22a.547.547,0,0,0-.109.272c-.075.288-.147.577-.21.868a1.8,1.8,0,0,0-.053.442c.031.679-.192,1.327-.226,2a.368.368,0,0,1-.08.207,1.378,1.378,0,0,0-.221,1.28,5.837,5.837,0,0,1,.131,1.26,1.994,1.994,0,0,0,.323,1.049,3.268,3.268,0,0,1,.589,1.9,2.406,2.406,0,0,0,.068.736c.145.581.306,1.16.489,1.732a4.649,4.649,0,0,1,.24,1.24c.018.471.143.937.171,1.406a3.344,3.344,0,0,1-.167,2.034.355.355,0,0,0,0,.222,15.65,15.65,0,0,1-.04,2.755,6.175,6.175,0,0,0,.756,3.227,1.823,1.823,0,0,1,.1.28c.3.763.785,1.442,1.049,2.225a4.8,4.8,0,0,0,.433.786,2.337,2.337,0,0,0,.226.389,4.574,4.574,0,0,1,.9,1.454.692.692,0,0,0,.165.248c.26.27.539.524.789.8a7.2,7.2,0,0,1,.9,1.1,1.856,1.856,0,0,0,.584.666,6.915,6.915,0,0,1,2.22,2.388,1.5,1.5,0,0,0,.841.694,3.671,3.671,0,0,1,1.192.768,3.422,3.422,0,0,0,1,.651,9.181,9.181,0,0,1,1.773,1.112l9.948,3.617a1.428,1.428,0,0,1,1.027.051,4.794,4.794,0,0,1,1.3.589.848.848,0,0,0,.352.117,7.2,7.2,0,0,0,.736.147,4.534,4.534,0,0,0,.9.066.5.5,0,0,0,.067,0,2.908,2.908,0,0,1,1.478.188,1.776,1.776,0,0,0,1.188.065c.075-.164.146-.321.22-.479a2.3,2.3,0,0,1,1.526-1.2,1.811,1.811,0,0,1,1.1.045,1.348,1.348,0,0,0,.654.124,1.329,1.329,0,0,1,1,.237.64.64,0,0,0,.561.132.686.686,0,0,1,.37-.01,2.87,2.87,0,0,0,1.627-.148c.229-.386.457-.782.991-.8a.181.181,0,0,0,.124-.076,1.38,1.38,0,0,1,.964-.518.922.922,0,0,0,.34-.155c.449-.347.888-.7,1.371-1.089.063,0,.219.043.307-.016.446-.3.993-.5,1.174-1.081a.671.671,0,0,1,.455-.457,2.467,2.467,0,0,0,1.451-1.329,2.028,2.028,0,0,1,.958-.9A2.531,2.531,0,0,0,667.3,68.43a1.99,1.99,0,0,1,.693-.864c.3-.181.372-.518.551-.782a8.264,8.264,0,0,1,.711-.756,1.1,1.1,0,0,0,.143-.343c.061-.163.122-.327.181-.492a1.248,1.248,0,0,1,.507-.716,1.379,1.379,0,0,0,.487-.648,1.917,1.917,0,0,1,.815-.937,5.593,5.593,0,0,0,1.183-.782,1.23,1.23,0,0,1,1.271-.417c.322.085.544-.155.453-.486a1.737,1.737,0,0,1,.3-1.553,1.342,1.342,0,0,0,.255-.615,11.153,11.153,0,0,1,.316-1.3,1.988,1.988,0,0,1,.632-1.3c.186-.15.258-.437.441-.59a2.117,2.117,0,0,0,.716-1.355,1.127,1.127,0,0,1,.151-.41,1.5,1.5,0,0,0,.2-.782c.043-.77.111-1.539.165-2.308.013-.174.008-.349.028-.522a7.394,7.394,0,0,1,.178-1.322,4.764,4.764,0,0,0,.187-1.4,2.493,2.493,0,0,1,.092-.732,1.028,1.028,0,0,0-.081-.932.6.6,0,0,1-.071-.354,3.017,3.017,0,0,0-.008-1.186.738.738,0,0,1,.059-.363,2.924,2.924,0,0,0,.144-.5,2.062,2.062,0,0,1,.371-1.039,1.571,1.571,0,0,0,.3-1.28,1.533,1.533,0,0,1,.1-1.011C678.855,40.142,678.93,39.933,679.014,39.7Z"/><path class="cls-3" d="M331.583,36.183a2.834,2.834,0,0,0-.713-1.477c-.081.017-.19.078-.268.05-.354-.13-.8-.1-1-.524a1.382,1.382,0,0,1-.464-.643,6.33,6.33,0,0,1-.279-.707,6.232,6.232,0,0,0-.683-1.366c-.071-.113-.175-.269-.146-.371.1-.348-.09-.561-.283-.788-.076-.09-.128-.2-.206-.288a.711.711,0,0,1-.184-.483,1.605,1.605,0,0,0-.425-.952c-.108-.137-.229-.264-.293-.338,0-.274,0-.468,0-.663a.562.562,0,0,0-.4-.592.868.868,0,0,1-.537-.5,1.387,1.387,0,0,1-.262-.706.681.681,0,0,0-.082-.282c-.107-.222-.305-.411-.192-.7.019-.047-.046-.15-.1-.2-.171-.167-.165-.385-.221-.592a2.79,2.79,0,0,0-.308-.547.315.315,0,0,1-.022-.174.754.754,0,0,0-.344-.648,1.011,1.011,0,0,1-.307-.342,1.05,1.05,0,0,0-.74-.636c.048-.451-.447-.644-.447-1.066,0-.027-.046-.069-.079-.081-.218-.07-.325-.285-.506-.39a.67.67,0,0,1-.33-.834c-.243-.234-.367-.567-.723-.615a.477.477,0,0,1-.4-.375,1.255,1.255,0,0,0-.1-.275c-.183-.295-.306-.64-.738-.7-.131-.018-.256-.17-.359-.285a2.42,2.42,0,0,1-.3-.435,2.292,2.292,0,0,0-.488-.579,8.186,8.186,0,0,1-1.6-1.871,1.307,1.307,0,0,0-.665-.64.81.81,0,0,1-.339-.312,2.148,2.148,0,0,0-.756-.723,2.592,2.592,0,0,1-.553-.522c-.106-.114-.186-.251-.285-.372-.311-.379-.622-.76-.941-1.133a1.294,1.294,0,0,0-.38-.363c-.193-.092-.265-.292-.424-.384a1.663,1.663,0,0,1-.446-.459,1.957,1.957,0,0,0-.331-.325,6.967,6.967,0,0,1-1-1,.466.466,0,0,1-.077-.549c.041-.08.089-.155.146-.254a2.3,2.3,0,0,0-1.418-.415.188.188,0,0,1-.058,0c-.42-.053-.819-.136-1-.6a.518.518,0,0,0-.206-.2,2.189,2.189,0,0,0-.744-.332c-.347-.077-.691-.163-1.027-.27a2.843,2.843,0,0,0-.813-.13c-.269-.007-.552.057-.793-.146-.044-.038-.15-.01-.226,0a2.707,2.707,0,0,1-1.046.05.778.778,0,0,0-.289.037,1.991,1.991,0,0,1-.4.063,2.155,2.155,0,0,0-.809.141,1.309,1.309,0,0,1-.344.079,4.132,4.132,0,0,0-.7.114c-.363.079-.722.173-1.087.245-.539.107-1.07.253-1.611.353a2.36,2.36,0,0,1-.584-.028c-.273-.021-.546-.053-.82-.07a.685.685,0,0,0-.183.024.453.453,0,0,0-.325.207.836.836,0,0,1-.586.358,1.654,1.654,0,0,0-.556.182,8.627,8.627,0,0,0-1.183.868,5.365,5.365,0,0,1-1.61,1.062.407.407,0,0,0-.191.128,2.053,2.053,0,0,1-1.027.661,1.09,1.09,0,0,0-.467.31,1.228,1.228,0,0,1-.779.49,1.367,1.367,0,0,0-.531.249,11.039,11.039,0,0,0-1.4.966,1.059,1.059,0,0,1-.346.223,4.267,4.267,0,0,0-1.121.751c-.337.266-.681.524-1.022.786-.331.033-.487.287-.7.526a1.158,1.158,0,0,0,.214.206c.1.055.228.062.334.112a.321.321,0,0,1,.141.492,3.979,3.979,0,0,1-.47.605,1.787,1.787,0,0,1-.45.237c-.012.179.033.382-.045.514a6.534,6.534,0,0,0-.495,1.375c-.072.226-.134.446-.4.547-.088.035-.128.183-.192.277s-.109.217-.2.274a1.544,1.544,0,0,0-.329.4,5.692,5.692,0,0,1-.751,1.046c-.083.068-.108.206-.158.313a2.823,2.823,0,0,1-.75,1.041.935.935,0,0,0-.449.643c-.015.137-.144.159-.329.1-.052-.018-.105-.031-.183-.053-.039.248-.061.48-.293.628-.083.052-.114.2-.145.312-.052.188-.084.38-.128.584-.4.179-.674.543-1.1.677a.208.208,0,0,0-.122.116.875.875,0,0,1-.343.391.534.534,0,0,0-.137.248,2.4,2.4,0,0,0-.066.329l-.4.038a.461.461,0,0,1-.064.616.3.3,0,0,0-.088.152,1.186,1.186,0,0,1-.606.757c-.183.109-.381.193-.574.285-.226.109-.454.215-.651.309-.039.222-.07.393-.1.556-.132.059-.238.11-.347.155-.407.163-.716.38-.692.9a.552.552,0,0,1-.425.574c-.5.146-.519.621-.672,1,.06.248-.091.452-.111.657a4.217,4.217,0,0,0-1.2,1.07,1.854,1.854,0,0,1-.963.835.449.449,0,0,0-.282.356c-.027.113-.066.222-.081.271-.244.172-.435.308-.627.438a1.956,1.956,0,0,1-.4.245.953.953,0,0,0-.446.365,3.285,3.285,0,0,1-1.262,1.111,5.161,5.161,0,0,0-.454.274,2.811,2.811,0,0,1-1.195.438.576.576,0,0,0-.227.052,1.959,1.959,0,0,1-.975.186c-.135,0-.269.028-.372.039a2.034,2.034,0,0,0-.448,1.173,1.517,1.517,0,0,1-.187.609,3.709,3.709,0,0,0-.447,1.206,2.279,2.279,0,0,1-.086.282.791.791,0,0,0,0,.619,2.1,2.1,0,0,1,.071.636c-.179.138-.348.266-.516.394-.033.366-.065.713-.1,1.088l.736.32c.022.226-.022.462.074.605a1.307,1.307,0,0,1,.174.846,1.053,1.053,0,0,0,.268.812,1.216,1.216,0,0,1,.355.967.57.57,0,0,0,.084.389,6.2,6.2,0,0,0,.729.765,2.159,2.159,0,0,1,.572.942c.088.234.075.506.15.747a2.73,2.73,0,0,0,.552,1.342.5.5,0,0,1,.127.319c.026.388.209.74.234,1.13.014.21.047.417.052.634a2.953,2.953,0,0,1-.118,1.149.651.651,0,0,0,.02.273l-.382.355c.061.167.156.3.139.413a.458.458,0,0,0,.152.422,6.213,6.213,0,0,0,.457.461c.51.431,1.031.85,1.545,1.277a3.38,3.38,0,0,1,.567.51,6.291,6.291,0,0,0,1.038.947,2.705,2.705,0,0,1,.269.229,6.318,6.318,0,0,0,1.05.839c.317.235.692.414.863.785.179.391.645.443.848.788.02.034.048.062.07.095.134.216.263.436.405.645a.7.7,0,0,0,.241.249,6.6,6.6,0,0,1,1.369,1.1,13.155,13.155,0,0,1,1.227,1.269c.216.228.428.462.646.688.314.326.638.643.945.975.213.23.4.489.612.715.339.355.7.685,1.041,1.041.366.384.71.789,1.068,1.18.544.6,1.107,1.174,1.631,1.785a.744.744,0,0,0,.873.3,1.3,1.3,0,0,1,.757.009c.342.091.689.161,1.027.266a4.12,4.12,0,0,1,1.417.542.6.6,0,0,0,.339.075,5.28,5.28,0,0,1,1.564.214c.817.265,1.677.4,2.517.6a4.367,4.367,0,0,0,.853.223c.628.012,1.149.423,1.771.421a.2.2,0,0,1,.11.043,4.431,4.431,0,0,0,1.161.419c.261.084.527.137.791.2a6.5,6.5,0,0,0,1.934.226,1.282,1.282,0,0,1,.411.011,5.406,5.406,0,0,0,1.469.094,3.429,3.429,0,0,0,.692-.084,2.552,2.552,0,0,0,.878-.345.876.876,0,0,1,.5-.142c.176,0,.355-.024.53-.013a1.5,1.5,0,0,0,.8-.18,2.245,2.245,0,0,1,.552-.186,1.35,1.35,0,0,0,.88-.434.63.63,0,0,1,.36-.166c.288-.059.592-.06.87-.144.3-.09.565-.278.862-.37.43-.135.876-.217,1.313-.333a1.724,1.724,0,0,1,1.421.147,1.538,1.538,0,0,1,.491-.2,1.979,1.979,0,0,0,.994-.358.986.986,0,0,0,.915-.05,5.918,5.918,0,0,1,1.885-.45.768.768,0,0,0,.587-.339,1.115,1.115,0,0,1,.756-.518.818.818,0,0,0,.593-.45,5.81,5.81,0,0,0,.283-.577c.08-.2.118-.419.206-.616a2.141,2.141,0,0,1,.4-.708,5.389,5.389,0,0,0,.7-.862,5.68,5.68,0,0,1,1.627-1.67.751.751,0,0,0,.236-.174.6.6,0,0,1,.739-.19.726.726,0,0,0,.5.043c-.028-.2-.337-.136-.33-.39.281-.122.621.045.9-.146-.018-.18-.035-.35-.053-.543a4.47,4.47,0,0,0,.49-.225c.395-.238.663-.416.472-1.064-.122-.077-.26-.152-.386-.246a.286.286,0,0,1-.094-.368,1.146,1.146,0,0,1,.248-.32,2.23,2.23,0,0,1,.381-.211,2.364,2.364,0,0,1,.759-1.6,2.842,2.842,0,0,0,.477-.735,1.931,1.931,0,0,1,.792-.843,1.807,1.807,0,0,0,.507-.384,1.516,1.516,0,0,1,1.341-.606.687.687,0,0,0,.694-.359,3.1,3.1,0,0,1,.656-.667,4.789,4.789,0,0,0,.644-.763.368.368,0,0,0,.066-.222,1.44,1.44,0,0,1,.43-.943,2.928,2.928,0,0,0,.266-.316.923.923,0,0,1,.6-.444,1.2,1.2,0,0,0,.559-.31c.331-.337.7-.641,1.025-.98A1.218,1.218,0,0,0,331.332,51a4.94,4.94,0,0,1-.355-.8,1.215,1.215,0,0,0-.155-.38c-.272-.317-.432-.7-.669-1.035a.849.849,0,0,1-.157-.777,5.172,5.172,0,0,0,.231-1.273,7.824,7.824,0,0,1,.1-.818c.031-.192.1-.377.133-.569a1.405,1.405,0,0,0,.066-.572,1.229,1.229,0,0,1,.1-.8c.073-.183.151-.364.206-.552a.615.615,0,0,0,.019-.341.782.782,0,0,1,.109-.679,1.559,1.559,0,0,0,.121-1.25.732.732,0,0,1,.067-.565c.147-.276.274-.561.4-.844a.722.722,0,0,0,.105-.323.487.487,0,0,1,.145-.426.515.515,0,0,0,.132-.489,1.924,1.924,0,0,1,.007-.4,2,2,0,0,0-.217-1.474A1.114,1.114,0,0,1,331.583,36.183Z"/><path class="cls-3" d="M599.838,29.552l-.882-.189c-.074-.243-.079-.513-.216-.65a1.47,1.47,0,0,1-.381-.893,1.171,1.171,0,0,0-.475-.836,1.364,1.364,0,0,1-.606-.987.653.653,0,0,0-.179-.411,6.957,6.957,0,0,0-.974-.679,2.457,2.457,0,0,1-.841-.912c-.148-.238-.195-.541-.331-.791-.26-.477-.4-1.037-.908-1.355a.586.586,0,0,1-.21-.324c-.115-.422-.394-.77-.508-1.194-.062-.228-.145-.449-.2-.686A3.353,3.353,0,0,1,593,18.351c.016-.095-.055-.206-.083-.3.116-.16.219-.3.342-.475-.1-.171-.238-.294-.244-.425a.519.519,0,0,0-.261-.431c-.2-.138-.395-.289-.607-.406-.659-.362-1.326-.708-1.987-1.064a3.9,3.9,0,0,1-.739-.435A7.066,7.066,0,0,0,588.07,14a2.925,2.925,0,0,1-.348-.193,7.272,7.272,0,0,0-1.345-.691,2.59,2.59,0,0,1-1.124-.672c-.286-.391-.81-.346-1.111-.681-.029-.033-.067-.058-.1-.09-.2-.207-.387-.42-.59-.619a.745.745,0,0,0-.32-.22,7.481,7.481,0,0,1-1.756-.914A14.775,14.775,0,0,1,579.744,8.8c-.289-.2-.575-.414-.866-.614-.417-.291-.845-.569-1.258-.866-.285-.206-.544-.45-.833-.652-.453-.316-.928-.6-1.38-.915-.487-.343-.957-.712-1.439-1.064-.731-.535-1.48-1.047-2.194-1.6a.839.839,0,0,0-1.03-.136,1.442,1.442,0,0,1-.835.158c-.4-.025-.8-.024-1.192-.066a4.586,4.586,0,0,1-1.682-.281.669.669,0,0,0-.39-.007,5.98,5.98,0,0,1-1.771.112c-.035,0-.071,0-.107-.006-.926-.1-1.867-.065-2.8-.1a4.827,4.827,0,0,0-.99-.055,2.349,2.349,0,0,1-.675,0,4.262,4.262,0,0,0-1.369-.072.266.266,0,0,1-.131-.023,4.912,4.912,0,0,0-1.373-.2,8.284,8.284,0,0,0-3.1.133,1.52,1.52,0,0,1-.456.08,6.044,6.044,0,0,0-1.639.222,3.184,3.184,0,0,0-1.636.823.988.988,0,0,1-.521.268c-.2.039-.385.1-.582.132a1.672,1.672,0,0,0-.838.376,2.554,2.554,0,0,1-.569.327,1.523,1.523,0,0,0-.872.674.7.7,0,0,1-.361.264c-.3.128-.638.2-.926.352-.309.165-.561.432-.867.6-.445.245-.918.436-1.374.659a1.938,1.938,0,0,1-1.6.154,1.754,1.754,0,0,1-.5.335,2.217,2.217,0,0,0-1.015.615,1.111,1.111,0,0,0-1,.258A6.7,6.7,0,0,1,537.6,9.6a.857.857,0,0,0-.57.5,1.261,1.261,0,0,1-.72.74.925.925,0,0,0-.554.627,6.837,6.837,0,0,0-.182.7c-.045.239-.037.489-.091.724a2.373,2.373,0,0,1-.278.87,5.96,5.96,0,0,0-.585,1.107,6.412,6.412,0,0,1-1.423,2.2.844.844,0,0,0-.221.243.68.68,0,0,1-.773.376.818.818,0,0,0-.561.062c.077.216.4.076.452.358-.283.2-.7.087-.964.36.06.2.116.379.179.587a5.194,5.194,0,0,0-.491.358c-.381.35-.636.607-.283,1.277.151.058.321.11.48.185a.321.321,0,0,1,.185.386,1.242,1.242,0,0,1-.2.407,2.408,2.408,0,0,1-.373.317,2.652,2.652,0,0,1-.481,1.927,3.144,3.144,0,0,0-.363.918,2.179,2.179,0,0,1-.685,1.106,1.964,1.964,0,0,0-.473.535,1.7,1.7,0,0,1-1.343.967.774.774,0,0,0-.686.549,3.466,3.466,0,0,1-.575.881,5.405,5.405,0,0,0-.539.984.41.41,0,0,0-.023.259,1.623,1.623,0,0,1-.266,1.136,3.572,3.572,0,0,0-.221.407,1.048,1.048,0,0,1-.558.623,1.354,1.354,0,0,0-.549.466c-.29.444-.623.861-.91,1.306a1.369,1.369,0,0,0,.029,1.781,5.377,5.377,0,0,1,.57.8,1.407,1.407,0,0,0,.256.384c.37.289.632.678.968.993a.956.956,0,0,1,.346.82,5.807,5.807,0,0,0,.027,1.455,8.384,8.384,0,0,1,.077.923c.009.217-.023.437-.021.655a1.618,1.618,0,0,0,.055.648,1.373,1.373,0,0,1,.07.9c-.038.219-.085.436-.1.655a.68.68,0,0,0,.053.38.87.87,0,0,1,.031.772,1.752,1.752,0,0,0,.146,1.406.829.829,0,0,1,.052.638c-.1.335-.178.678-.258,1.019a.793.793,0,0,0-.044.379.549.549,0,0,1-.065.5.578.578,0,0,0-.037.568,2.175,2.175,0,0,1,.081.444,2.272,2.272,0,0,0,.567,1.577,1.232,1.232,0,0,1,.25.462,3.193,3.193,0,0,0,1.113,1.469c.086-.037.193-.128.284-.113.419.063.9-.066,1.217.355a1.551,1.551,0,0,1,.652.605,6.691,6.691,0,0,1,.465.716,7.053,7.053,0,0,0,1.057,1.354c.1.109.253.258.244.377-.033.405.225.6.488.8.1.083.185.193.29.272a.791.791,0,0,1,.311.491,1.8,1.8,0,0,0,.68.955c.149.127.311.24.4.307.061.3.1.518.15.731a.633.633,0,0,0,.571.564.976.976,0,0,1,.7.437,1.567,1.567,0,0,1,.445.721.742.742,0,0,0,.154.29c.166.223.428.388.367.73-.01.058.083.157.153.2.225.146.267.387.375.6a3.1,3.1,0,0,0,.461.533.369.369,0,0,1,.062.188.847.847,0,0,0,.524.637,1.143,1.143,0,0,1,.414.31,1.177,1.177,0,0,0,.957.535c.048.509.635.612.729,1.075.006.03.067.067.105.072.257.028.422.244.645.318a.754.754,0,0,1,.551.845c.319.206.53.544.932.518a.534.534,0,0,1,.528.324,1.49,1.49,0,0,0,.175.281c.267.283.48.637.968.6.148-.01.321.129.459.232a2.766,2.766,0,0,1,.432.413,2.554,2.554,0,0,0,.668.53,9.164,9.164,0,0,1,2.176,1.708,1.482,1.482,0,0,0,.874.557.89.89,0,0,1,.443.267,2.415,2.415,0,0,0,1,.628,2.888,2.888,0,0,1,.725.454c.142.1.261.234.4.345.427.35.853.7,1.288,1.042a1.493,1.493,0,0,0,.5.315c.231.057.357.263.552.327a1.946,1.946,0,0,1,.6.407,2.1,2.1,0,0,0,.435.285,7.944,7.944,0,0,1,1.322.878.524.524,0,0,1,.2.589c-.025.1-.063.19-.1.312a2.594,2.594,0,0,0,1.656.142.28.28,0,0,1,.064-.013,1.156,1.156,0,0,1,1.23.442.582.582,0,0,0,.271.174,2.468,2.468,0,0,0,.895.2c.131,0,.261.016.392.021.267.012.535.018.8.047a3.208,3.208,0,0,0,.923-.036c.3-.054.6-.187.908-.016.057.031.167-.021.248-.048a3.055,3.055,0,0,1,1.143-.288.875.875,0,0,0,.311-.105,2.2,2.2,0,0,1,.433-.16,2.4,2.4,0,0,0,.859-.336,1.433,1.433,0,0,1,.362-.163,3.914,3.914,0,0,0,.456-.172c.488-.185.953-.421,1.435-.622.57-.236,1.123-.515,1.7-.746a2.572,2.572,0,0,1,.65-.1c.307-.038.614-.064.92-.106a.566.566,0,0,0,.508-.368.938.938,0,0,1,.566-.524,1.848,1.848,0,0,0,.574-.325,9.843,9.843,0,0,0,1.111-1.219,5.931,5.931,0,0,1,1.539-1.528.486.486,0,0,0,.181-.185,2.325,2.325,0,0,1,.984-.958,1.224,1.224,0,0,0,.446-.444,1.39,1.39,0,0,1,.75-.714,1.515,1.515,0,0,0,.529-.392,12.666,12.666,0,0,0,1.335-1.376,1.187,1.187,0,0,1,.33-.325,4.77,4.77,0,0,0,1.07-1.076c.312-.369.633-.73.951-1.094.358-.109.473-.424.66-.736a1.293,1.293,0,0,0-.283-.179c-.125-.037-.264-.019-.393-.05a.361.361,0,0,1-.264-.511,4.365,4.365,0,0,1,.384-.771,1.97,1.97,0,0,1,.444-.361c-.028-.2-.122-.415-.067-.576a7.336,7.336,0,0,0,.24-1.627.8.8,0,0,1,.316-.691c.087-.056.1-.23.15-.348a.984.984,0,0,1,.156-.345,1.739,1.739,0,0,0,.274-.514,6.457,6.457,0,0,1,.6-1.322.95.95,0,0,0,.105-.377,3.155,3.155,0,0,1,.6-1.315,1.058,1.058,0,0,0,.353-.809c-.015-.155.122-.207.34-.179.061.008.122.01.213.017a.872.872,0,0,1,.185-.757c.078-.075.079-.246.09-.376.015-.218.007-.438.01-.673.4-.284.622-.747,1.062-.989a.235.235,0,0,0,.107-.156.98.98,0,0,1,.293-.508.607.607,0,0,0,.1-.3,2.787,2.787,0,0,0,0-.377l.433-.131a.517.517,0,0,1-.067-.693.338.338,0,0,0,.063-.187,1.341,1.341,0,0,1,.5-.97c.177-.16.377-.3.568-.441.225-.171.452-.338.649-.485-.006-.254-.01-.45-.015-.635.133-.094.237-.175.348-.248a.983.983,0,0,0,.562-1.149.622.622,0,0,1,.34-.726c.518-.273.436-.8.518-1.257-.12-.26,0-.519-.023-.747a4.76,4.76,0,0,0,1.083-1.448,2.1,2.1,0,0,1,.876-1.135.5.5,0,0,0,.231-.454c0-.13.023-.259.03-.317.231-.243.411-.436.6-.623a2.131,2.131,0,0,1,.385-.358,1.062,1.062,0,0,0,.408-.5,3.708,3.708,0,0,1,1.146-1.506c.159-.114.289-.271.439-.4a3.137,3.137,0,0,1,1.219-.748.642.642,0,0,0,.239-.108,2.2,2.2,0,0,1,1.033-.423,3.969,3.969,0,0,0,.4-.124,2.3,2.3,0,0,0,.233-1.393,1.728,1.728,0,0,1,.071-.713,4.132,4.132,0,0,0,.224-1.427,2.426,2.426,0,0,1,.032-.33.893.893,0,0,0-.135-.685,2.335,2.335,0,0,1-.22-.685l.482-.549Z"/><path class="cls-2" d="M307.945,39.979V54.76h-3.51V40.486c0-3.16-1.287-4.447-3.9-4.447a10.744,10.744,0,0,0-6.24,2.029V54.76h-3.511V22.779H294.3v9.36l-.312,3.354a10.569,10.569,0,0,1,6.981-2.613C305.917,32.88,307.945,35.415,307.945,39.979Z"/><path class="cls-2" d="M381.693,44.073c0,5.46,2.3,7.917,6.826,7.917a14.048,14.048,0,0,0,7.1-1.833l.936,2.926a15.9,15.9,0,0,1-8.112,2.067c-6.357,0-10.3-3.588-10.3-10.881s4.484-11.35,10.1-11.35c6.4,0,9.243,3.979,8.385,10.92H381.693Zm.274-3.042h11.31c-.078-3.587-1.755-5.07-5.265-5.07C384.619,35.961,382.669,37.794,381.967,41.031Z"/><path class="cls-2" d="M484.849,51.64v3.12H466.284V51.64h7.528V22.779h3.51V51.64Z"/><path class="cls-2" d="M572.989,51.64v3.12H554.424V51.64h7.527V22.779h3.511V51.64Z"/><path class="cls-2" d="M642.1,44.269c0-7.138,4.1-11.389,9.867-11.389,6.085,0,9.634,4.173,9.634,11.115s-4.1,11.194-9.867,11.194C645.645,55.189,642.1,51.016,642.1,44.269Zm15.952-.078c0-5.11-1.911-8.152-6.163-8.152-4.29,0-6.24,3.12-6.24,8.034s1.911,7.956,6.163,7.956C656.1,52.029,658.048,48.909,658.048,44.191Z"/><path class="cls-3" d="M276.758,133.437v18.616h5.253v2.132h-7.645V131.3h7.645v2.133Z"/><path class="cls-3" d="M300.315,142.589c0,6.552-2.47,9.256-6.63,9.256-4.369,0-6.475-3.042-6.475-8.944,0-6.163,2.47-9.256,6.63-9.256C298.209,133.645,300.315,136.687,300.315,142.589Zm-10.661.182c0,.78.026,1.508.079,2.158l7.618-6.6a3.382,3.382,0,0,0-3.563-2.547C290.616,135.777,289.654,138.221,289.654,142.771Zm8.217-.052c0-.78-.026-1.508-.078-2.158l-7.619,6.6a3.381,3.381,0,0,0,3.562,2.548C296.908,149.713,297.871,147.789,297.871,142.719Z"/><path class="cls-3" d="M313.158,154.185h-7.644v-2.132h5.252V133.437h-5.252V131.3h7.644Z"/><path class="cls-3" d="M371.008,133.437v18.616h5.253v2.132h-7.645V131.3h7.645v2.133Z"/><path class="cls-3" d="M394.851,149.453v2.132H382.474v-2.132h5.512v-11.18l-5.512,2.106v-2.314l5.512-2.107V133.9h2.392v15.549Z"/><path class="cls-3" d="M407.408,154.185h-7.644v-2.132h5.252V133.437h-5.252V131.3h7.644Z"/><path class="cls-3" d="M460.059,133.437v18.616h5.253v2.132h-7.645V131.3h7.645v2.133Z"/><path class="cls-3" d="M483.8,149.453v2.132H471.005v-2.392c4.55-2.782,9.854-5.616,9.854-10.14,0-2-.884-3.276-3.848-3.276-3.224,0-4.082,1.429-4.082,3.874a4.443,4.443,0,0,0,.208,1.586l-2.47-.182a12.109,12.109,0,0,1-.1-1.664c0-3.458,2.262-5.746,6.578-5.746,5.071,0,6.162,2.807,6.162,5.147,0,4.992-4.68,7.8-7.54,9.725l-1.4.624v.312Z"/><path class="cls-3" d="M496.459,154.185h-7.644v-2.132h5.252V133.437h-5.252V131.3h7.644Z"/><path class="cls-3" d="M546.508,133.437v18.616h5.253v2.132h-7.645V131.3h7.645v2.133Z"/><path class="cls-3" d="M569.831,146.489c0,2.964-2.106,5.356-7.385,5.356a13.939,13.939,0,0,1-5.98-1.17l.676-2.028a12.927,12.927,0,0,0,5.512,1.092c3.537,0,4.785-1.118,4.785-3.12,0-1.69-1.144-2.886-4.525-2.886H558.1v-2.106h6.24c1.872-.755,2.522-1.742,2.522-3.12,0-2-1.351-2.757-4.082-2.757a12.011,12.011,0,0,0-5.382,1.223l-.624-1.95a13.692,13.692,0,0,1,6.188-1.378c3.849,0,6.293,1.481,6.293,4.731a4.428,4.428,0,0,1-2.574,3.979C568.869,143.161,569.831,144.357,569.831,146.489Z"/><path class="cls-3" d="M582.908,154.185h-7.644v-2.132h5.252V133.437h-5.252V131.3h7.644Z"/><path class="cls-3" d="M635.559,133.437v18.616h5.253v2.132h-7.645V131.3h7.645v2.133Z"/><path class="cls-3" d="M659.688,147.945h-2.549v3.64h-2.392v-3.64h-8.892v-2.392l6.422-11.649h2.47l-5.46,9.907-1.222,1.664v.338h6.682V133.9h2.392v11.909h2.549Z"/><path class="cls-3" d="M671.959,154.185h-7.644v-2.132h5.252V133.437h-5.252V131.3h7.644Z"/></svg>