<svg xmlns="http://www.w3.org/2000/svg" viewBox="0 0 952 196.959"><defs><style>.cls-1{opacity:0.33;}.cls-2{fill:#f36;}.cls-3{fill:#0046b7;}.cls-4{fill:#ffeded;}.cls-5{fill:#1858a8;}</style></defs><title>manuale_ill_nuove</title><g id="Livello_1" data-name="Livello 1"><g class="cls-1"><path class="cls-2" d="M304.31.948c.063.095.245.109.372.16.042-.13.155-.292.113-.386-.242-.547-.52-1.079-.859-1.764A3.541,3.541,0,0,0,304.31.948Z"/></g><path class="cls-2" d="M187.473,40.787l.173-.178a.38.38,0,0,1-.008-.138,1.657,1.657,0,0,0,.053-.579c0-.108-.017-.213-.024-.319-.011-.2-.094-.374-.1-.569a.278.278,0,0,0-.058-.161,1.458,1.458,0,0,1-.251-.675c-.034-.122-.028-.259-.068-.377a1.119,1.119,0,0,0-.26-.475,2.978,2.978,0,0,1-.33-.384.315.315,0,0,1-.039-.2.651.651,0,0,0-.161-.487.566.566,0,0,1-.121-.409.706.706,0,0,0-.08-.425.846.846,0,0,1-.033-.3l-.334-.161.045-.548.234-.2a1.162,1.162,0,0,0-.032-.321.435.435,0,0,1,0-.312,1.25,1.25,0,0,0,.039-.142,2.008,2.008,0,0,1,.2-.608.827.827,0,0,0,.085-.306,1.09,1.09,0,0,1,.2-.591,1.278,1.278,0,0,1,.169-.019.816.816,0,0,0,.442-.094.246.246,0,0,1,.1-.026,1.213,1.213,0,0,0,.542-.221,2.114,2.114,0,0,1,.206-.138,1.568,1.568,0,0,0,.573-.56.444.444,0,0,1,.2-.184.84.84,0,0,0,.181-.123c.087-.066.174-.134.285-.22.007-.025.024-.08.037-.137a.219.219,0,0,1,.127-.179.869.869,0,0,0,.437-.421,2.011,2.011,0,0,1,.545-.539c.009-.1.077-.2.05-.33.069-.194.079-.433.305-.506a.278.278,0,0,0,.193-.289.435.435,0,0,1,.314-.455c.05-.022.1-.048.158-.078l.044-.28c.09-.047.193-.1.3-.155.087-.047.177-.089.26-.144a.587.587,0,0,0,.275-.381.163.163,0,0,1,.04-.077.249.249,0,0,0,.029-.31l.182-.019a1.378,1.378,0,0,1,.03-.166.278.278,0,0,1,.062-.125.429.429,0,0,0,.156-.2.1.1,0,0,1,.055-.059c.193-.068.319-.251.5-.341.02-.1.035-.2.058-.294.014-.056.028-.131.065-.157a.411.411,0,0,0,.134-.316c.035.011.059.017.083.026.084.032.142.021.149-.048a.471.471,0,0,1,.2-.324,1.446,1.446,0,0,0,.341-.525c.022-.053.033-.123.071-.157a2.865,2.865,0,0,0,.341-.527.766.766,0,0,1,.149-.2.478.478,0,0,0,.09-.138c.029-.048.048-.123.087-.139.119-.052.147-.163.18-.276a3.486,3.486,0,0,1,.225-.693.734.734,0,0,0,.02-.259.769.769,0,0,0,.2-.119,1.944,1.944,0,0,0,.213-.3.171.171,0,0,0-.064-.249c-.048-.024-.1-.029-.151-.056a.552.552,0,0,1-.1-.1c.1-.12.169-.249.319-.265.155-.131.311-.261.464-.4a1.939,1.939,0,0,1,.509-.377.506.506,0,0,0,.157-.113,5.052,5.052,0,0,1,.638-.487.584.584,0,0,1,.24-.125.556.556,0,0,0,.354-.247.5.5,0,0,1,.212-.156.925.925,0,0,0,.466-.333.2.2,0,0,1,.087-.065,2.389,2.389,0,0,0,.73-.534,3.991,3.991,0,0,1,.537-.437.711.711,0,0,1,.253-.092.373.373,0,0,0,.266-.18.222.222,0,0,1,.231-.117c.124.009.248.025.372.036a.95.95,0,0,0,.265.013c.245-.05.486-.124.731-.177a4.921,4.921,0,0,1,.811-.181.505.505,0,0,0,.156-.04.893.893,0,0,1,.367-.071.789.789,0,0,0,.184-.032.308.308,0,0,1,.131-.018,1.124,1.124,0,0,0,.476-.025c.034-.005.082-.018.1,0,.109.1.238.07.36.073a1.171,1.171,0,0,1,.369.066c.153.054.309.1.466.136a.939.939,0,0,1,.338.167.241.241,0,0,1,.093.1c.08.235.261.276.451.3a.082.082,0,0,0,.027,0,.965.965,0,0,1,.644.209c-.026.049-.048.087-.066.127a.255.255,0,0,0,.034.277,3.386,3.386,0,0,0,.453.5.932.932,0,0,1,.149.164.847.847,0,0,0,.2.231c.073.046.106.148.193.194a.615.615,0,0,1,.172.182c.145.188.286.38.427.571.045.061.082.13.13.187a1.2,1.2,0,0,0,.251.264,1.025,1.025,0,0,1,.343.364.374.374,0,0,0,.154.156.625.625,0,0,1,.3.323,4.068,4.068,0,0,0,.725.942,1.139,1.139,0,0,1,.222.292,1.228,1.228,0,0,0,.138.219c.047.058.1.135.163.143.2.029.252.2.335.351a.757.757,0,0,1,.047.139c.03.1.077.173.183.189.161.024.217.191.327.31a.354.354,0,0,0,.151.42c.082.052.13.161.229.2.015,0,.036.026.036.04,0,.213.224.31.2.537a.493.493,0,0,1,.336.32.509.509,0,0,0,.139.173.393.393,0,0,1,.157.326.172.172,0,0,0,.009.088,1.371,1.371,0,0,1,.14.275.6.6,0,0,0,.1.3c.024.025.053.077.045.1-.052.146.039.241.086.353a.346.346,0,0,1,.038.142.762.762,0,0,0,.119.356.419.419,0,0,0,.243.254.284.284,0,0,1,.182.3c0,.1,0,.2,0,.334.03.038.084.1.133.17a.843.843,0,0,1,.193.48.378.378,0,0,0,.084.243c.035.044.059.1.093.145a.43.43,0,0,1,.129.4c-.013.051.034.13.066.187a3.33,3.33,0,0,1,.31.688,3.342,3.342,0,0,0,.127.356.693.693,0,0,0,.21.323c.091.213.292.2.453.264.035.014.085-.016.121-.025a1.489,1.489,0,0,1,.323.744.59.59,0,0,0,.063.225,1.117,1.117,0,0,1,.1.743,1.051,1.051,0,0,0,0,.2.278.278,0,0,1-.059.246.262.262,0,0,0-.066.215.386.386,0,0,1-.048.162c-.059.143-.116.287-.183.425a.406.406,0,0,0-.031.285.862.862,0,0,1-.054.63.424.424,0,0,0-.05.341.338.338,0,0,1-.009.172c-.024.1-.061.186-.093.278a.687.687,0,0,0-.045.4.769.769,0,0,1-.03.289c-.016.1-.046.19-.06.286-.02.136-.037.274-.044.412a2.833,2.833,0,0,1-.105.641.463.463,0,0,0,.072.391c.107.168.18.362.3.522a.675.675,0,0,1,.07.191,2.625,2.625,0,0,0,.161.4.66.66,0,0,1-.13.784c-.15.171-.314.324-.465.493a.525.525,0,0,1-.254.156.433.433,0,0,0-.271.225,1.38,1.38,0,0,1-.12.159.759.759,0,0,0-.2.475.2.2,0,0,1-.03.111,2.4,2.4,0,0,1-.292.385,1.478,1.478,0,0,0-.3.336.305.305,0,0,1-.315.18.662.662,0,0,0-.609.3.82.82,0,0,1-.23.194.937.937,0,0,0-.359.425,1.458,1.458,0,0,1-.217.37,1.244,1.244,0,0,0-.344.8.99.99,0,0,0-.173.106.541.541,0,0,0-.112.161.153.153,0,0,0,.042.186c.057.046.12.085.175.123a.4.4,0,0,1-.214.536,1.858,1.858,0,0,1-.223.114l.024.273c-.128.1-.282.012-.41.073,0,.128.137.1.15.2-.079.038-.151,0-.227-.022a.257.257,0,0,0-.335.1.339.339,0,0,1-.107.087,2.763,2.763,0,0,0-.739.841,2.67,2.67,0,0,1-.32.434,1.1,1.1,0,0,0-.179.358c-.04.1-.057.208-.094.309a3.15,3.15,0,0,1-.128.292.38.38,0,0,1-.27.226.509.509,0,0,0-.343.261.339.339,0,0,1-.266.17,2.477,2.477,0,0,0-.855.227.411.411,0,0,1-.416.025.836.836,0,0,1-.451.18.683.683,0,0,0-.223.1.715.715,0,0,0-.645-.073c-.2.058-.4.1-.6.167-.135.047-.256.141-.391.187s-.264.042-.4.072a.266.266,0,0,0-.163.084.593.593,0,0,1-.4.218.952.952,0,0,0-.251.094.623.623,0,0,1-.362.09c-.08-.005-.161.007-.241.007a.375.375,0,0,0-.228.071,1.183,1.183,0,0,1-.712.217,2.234,2.234,0,0,1-.667-.048.556.556,0,0,0-.187-.005,3.053,3.053,0,0,1-1.236-.216,1.859,1.859,0,0,1-.527-.211.093.093,0,0,0-.05-.022c-.282,0-.519-.2-.8-.211a1.851,1.851,0,0,1-.388-.113c-.381-.1-.771-.168-1.143-.3a2.17,2.17,0,0,0-.709-.108.255.255,0,0,1-.154-.037,1.728,1.728,0,0,0-.643-.273c-.153-.054-.311-.088-.467-.135a.53.53,0,0,0-.343,0,.322.322,0,0,1-.4-.151c-.238-.308-.493-.6-.74-.9-.163-.2-.319-.4-.485-.595-.153-.179-.319-.345-.472-.524-.1-.114-.181-.244-.278-.36-.14-.167-.287-.327-.429-.491-.1-.114-.195-.231-.293-.347a6.606,6.606,0,0,0-.557-.639,3.091,3.091,0,0,0-.622-.556.336.336,0,0,1-.109-.125c-.064-.106-.123-.216-.184-.325-.009-.016-.022-.031-.031-.048-.093-.174-.3-.2-.386-.4s-.247-.277-.391-.4a3.017,3.017,0,0,1-.477-.422,1.219,1.219,0,0,0-.122-.116,3,3,0,0,1-.471-.477,1.524,1.524,0,0,0-.257-.257c-.233-.215-.47-.426-.7-.643a2.886,2.886,0,0,1-.208-.232.245.245,0,0,1-.069-.212A.591.591,0,0,0,187.473,40.787Z"/><path class="cls-2" d="M564.293,121.387l.173-.178a.36.36,0,0,1-.009-.138,1.634,1.634,0,0,0,.054-.579c0-.108-.018-.213-.024-.319-.012-.2-.094-.374-.106-.569a.277.277,0,0,0-.057-.161,1.447,1.447,0,0,1-.251-.675c-.034-.122-.028-.259-.068-.377a1.13,1.13,0,0,0-.26-.475,2.985,2.985,0,0,1-.331-.384.322.322,0,0,1-.038-.2.655.655,0,0,0-.161-.487.562.562,0,0,1-.122-.409.713.713,0,0,0-.079-.425.846.846,0,0,1-.033-.3l-.334-.161.045-.548.234-.2a1.161,1.161,0,0,0-.033-.321.441.441,0,0,1,0-.312c.013-.048.031-.094.039-.142a1.98,1.98,0,0,1,.2-.608.808.808,0,0,0,.085-.306,1.1,1.1,0,0,1,.2-.591,1.242,1.242,0,0,1,.168-.019.819.819,0,0,0,.443-.094.242.242,0,0,1,.1-.026,1.208,1.208,0,0,0,.542-.221,2.387,2.387,0,0,1,.206-.138,1.553,1.553,0,0,0,.573-.56.449.449,0,0,1,.2-.184.816.816,0,0,0,.181-.123c.088-.066.174-.134.285-.22.007-.025.025-.08.037-.137a.22.22,0,0,1,.128-.179.873.873,0,0,0,.437-.421,2.008,2.008,0,0,1,.544-.539c.009-.1.078-.2.051-.33.069-.194.078-.433.3-.506a.277.277,0,0,0,.192-.289.436.436,0,0,1,.315-.455c.049-.022.1-.048.157-.078l.045-.28c.089-.047.193-.1.295-.155s.178-.089.261-.144a.59.59,0,0,0,.275-.381.155.155,0,0,1,.04-.077.249.249,0,0,0,.029-.31l.181-.019a1.608,1.608,0,0,1,.03-.166.278.278,0,0,1,.062-.125.423.423,0,0,0,.156-.2.1.1,0,0,1,.055-.059c.194-.068.319-.251.5-.341.019-.1.034-.2.057-.294.014-.056.029-.131.066-.157a.414.414,0,0,0,.134-.316c.035.011.059.017.082.026.084.032.143.021.149-.048a.474.474,0,0,1,.2-.324,1.421,1.421,0,0,0,.341-.525.463.463,0,0,1,.071-.157,2.87,2.87,0,0,0,.342-.527.745.745,0,0,1,.149-.2.456.456,0,0,0,.089-.138c.029-.048.048-.123.087-.139.12-.052.148-.163.18-.276a3.62,3.62,0,0,1,.225-.693.712.712,0,0,0,.02-.259.774.774,0,0,0,.205-.119,2.013,2.013,0,0,0,.213-.3.171.171,0,0,0-.064-.249c-.048-.024-.105-.029-.151-.056a.523.523,0,0,1-.1-.1c.1-.12.17-.249.32-.265.155-.131.311-.261.464-.4a1.923,1.923,0,0,1,.509-.377.5.5,0,0,0,.156-.113,5.2,5.2,0,0,1,.638-.487.588.588,0,0,1,.241-.125.558.558,0,0,0,.354-.247.489.489,0,0,1,.212-.156.934.934,0,0,0,.466-.333.188.188,0,0,1,.086-.065,2.393,2.393,0,0,0,.731-.534,3.869,3.869,0,0,1,.537-.437.711.711,0,0,1,.253-.092.377.377,0,0,0,.266-.18.222.222,0,0,1,.23-.117c.124.009.248.025.372.036a.953.953,0,0,0,.265.013c.246-.05.487-.124.731-.177a4.955,4.955,0,0,1,.812-.181.52.52,0,0,0,.156-.04.89.89,0,0,1,.367-.071.808.808,0,0,0,.184-.032.306.306,0,0,1,.131-.018,1.12,1.12,0,0,0,.475-.025c.035-.005.082-.018.1,0,.109.1.237.07.36.073a1.165,1.165,0,0,1,.368.066c.153.054.309.1.466.136a.931.931,0,0,1,.338.167.241.241,0,0,1,.093.1c.08.235.261.276.452.3a.082.082,0,0,0,.027,0,.964.964,0,0,1,.643.209c-.026.049-.048.087-.066.127a.253.253,0,0,0,.035.277,3.38,3.38,0,0,0,.452.5.978.978,0,0,1,.15.164.831.831,0,0,0,.2.231c.072.046.1.148.192.194a.617.617,0,0,1,.173.182c.144.188.285.38.427.571.044.061.081.13.13.187a1.215,1.215,0,0,0,.25.264,1.028,1.028,0,0,1,.344.364.377.377,0,0,0,.153.156.626.626,0,0,1,.3.323,4.014,4.014,0,0,0,.725.942,1.139,1.139,0,0,1,.222.292,1.174,1.174,0,0,0,.138.219c.046.058.1.135.163.143.2.029.251.2.335.351a.687.687,0,0,1,.046.139c.03.1.077.173.183.189.162.024.218.191.328.31a.354.354,0,0,0,.15.42c.083.052.131.161.23.2.015,0,.036.026.036.04,0,.213.224.31.2.537a.491.491,0,0,1,.336.32.5.5,0,0,0,.14.173.393.393,0,0,1,.156.326.183.183,0,0,0,.01.088,1.485,1.485,0,0,1,.14.275.592.592,0,0,0,.1.3c.023.025.053.077.044.1-.051.146.039.241.087.353a.362.362,0,0,1,.038.142.75.75,0,0,0,.118.356.418.418,0,0,0,.244.254.284.284,0,0,1,.181.3c0,.1,0,.2,0,.334.029.038.084.1.133.17a.85.85,0,0,1,.193.48.377.377,0,0,0,.083.243c.036.044.059.1.094.145a.429.429,0,0,1,.128.4c-.013.051.034.13.067.187a3.33,3.33,0,0,1,.31.688,3.337,3.337,0,0,0,.126.356.694.694,0,0,0,.211.323c.091.213.292.2.452.264.035.014.085-.016.122-.025a1.5,1.5,0,0,1,.323.744.608.608,0,0,0,.062.225,1.111,1.111,0,0,1,.1.743,1.05,1.05,0,0,0,0,.2.275.275,0,0,1-.06.246.262.262,0,0,0-.066.215.384.384,0,0,1-.047.162c-.059.143-.117.287-.184.425a.406.406,0,0,0-.03.285.863.863,0,0,1-.055.63.424.424,0,0,0-.049.341.338.338,0,0,1-.009.172c-.025.095-.061.186-.093.278a.671.671,0,0,0-.045.4.79.79,0,0,1-.03.289c-.016.1-.046.19-.06.286a4.052,4.052,0,0,0-.044.412,2.833,2.833,0,0,1-.1.641.466.466,0,0,0,.071.391c.108.168.181.362.3.522a.646.646,0,0,1,.07.191,2.63,2.63,0,0,0,.162.4.66.66,0,0,1-.131.784c-.149.171-.314.324-.464.493a.53.53,0,0,1-.254.156.431.431,0,0,0-.271.225,1.655,1.655,0,0,1-.12.159.76.76,0,0,0-.2.475.2.2,0,0,1-.029.111,2.47,2.47,0,0,1-.293.385,1.474,1.474,0,0,0-.3.336.307.307,0,0,1-.316.18.662.662,0,0,0-.608.305.82.82,0,0,1-.23.194.939.939,0,0,0-.36.425,1.456,1.456,0,0,1-.216.37,1.25,1.25,0,0,0-.345.8,1.071,1.071,0,0,0-.173.106.58.58,0,0,0-.112.161.154.154,0,0,0,.043.186c.057.046.119.085.175.123a.4.4,0,0,1-.214.536,1.936,1.936,0,0,1-.223.114l.024.273c-.128.1-.283.012-.41.073,0,.128.137.1.15.2-.079.038-.152,0-.227-.022a.258.258,0,0,0-.336.1.339.339,0,0,1-.107.087,2.776,2.776,0,0,0-.739.841,2.606,2.606,0,0,1-.319.434,1.125,1.125,0,0,0-.18.358c-.04.1-.057.208-.093.309s-.083.2-.129.292a.379.379,0,0,1-.269.226.513.513,0,0,0-.344.261.337.337,0,0,1-.266.17,2.489,2.489,0,0,0-.855.227.41.41,0,0,1-.416.025.83.83,0,0,1-.451.18c-.073,0-.145.066-.222.1a.715.715,0,0,0-.645-.073c-.2.058-.4.1-.6.167-.135.047-.256.141-.391.187s-.264.042-.395.072a.271.271,0,0,0-.164.084.593.593,0,0,1-.4.218.965.965,0,0,0-.251.094.62.62,0,0,1-.361.09c-.08,0-.161.007-.242.007a.373.373,0,0,0-.227.071,1.188,1.188,0,0,1-.713.217,2.229,2.229,0,0,1-.666-.048.557.557,0,0,0-.187,0,3.061,3.061,0,0,1-1.237-.216,1.883,1.883,0,0,1-.527-.211.091.091,0,0,0-.049-.022c-.283,0-.519-.205-.8-.211a1.843,1.843,0,0,1-.387-.113c-.382-.1-.772-.168-1.143-.3a2.176,2.176,0,0,0-.71-.108.256.256,0,0,1-.154-.037,1.728,1.728,0,0,0-.643-.273c-.153-.054-.311-.088-.466-.135a.53.53,0,0,0-.343,0,.323.323,0,0,1-.4-.151c-.238-.308-.493-.6-.74-.9-.162-.2-.319-.4-.484-.595s-.319-.345-.473-.524c-.1-.114-.181-.244-.278-.36-.139-.167-.286-.327-.429-.491-.1-.114-.195-.231-.293-.347a6.471,6.471,0,0,0-.557-.639,3.086,3.086,0,0,0-.621-.556.32.32,0,0,1-.109-.125c-.065-.106-.123-.216-.184-.325-.01-.016-.023-.031-.032-.048-.092-.174-.3-.2-.385-.4s-.248-.277-.391-.395a2.973,2.973,0,0,1-.477-.422,1.338,1.338,0,0,0-.122-.116,2.954,2.954,0,0,1-.471-.477,1.568,1.568,0,0,0-.258-.257c-.233-.215-.469-.426-.7-.643a3.08,3.08,0,0,1-.207-.232.245.245,0,0,1-.069-.212C564.364,121.538,564.32,121.472,564.293,121.387Z"/><path class="cls-2" d="M657.519,53.908a.736.736,0,0,0-.243-.13,9.242,9.242,0,0,0-1.089-.1,1.6,1.6,0,0,1-.945-.233.574.574,0,0,0-.156.081c-.186.233-.217.251-.521.192-.413-.08-.822-.169-1.252-.258a2.107,2.107,0,0,1-1.323,0c-.149-.3-.563-.464-.953-.64a1.521,1.521,0,0,0-.356-.095c-.313-.056-.627-.116-.947-.152a.847.847,0,0,1-.7-.394,1.582,1.582,0,0,0-.386-.484c-.117-.094-.142-.234-.228-.348-.114-.151-.241-.3-.373-.442-.055-.059-.178-.1-.2-.162-.118-.287-.5-.369-.843-.481-.1-.031-.2-.048-.3-.078-.145-.044-.258-.112-.277-.22-.036-.21-.256-.353-.424-.516-.108-.1-.224-.208-.322-.318a.491.491,0,0,1-.112-.572c.05-.107.068-.222.124-.329a.722.722,0,0,0,.034-.627,1.683,1.683,0,0,1-.018-1.05,1.233,1.233,0,0,0-.224-1.2,1.946,1.946,0,0,1-.248-.565c-.035-.08-.044-.183-.125-.233-.262-.16-.35-.391-.574-.559a.414.414,0,0,1-.186-.514,1.236,1.236,0,0,0,.009-.88.941.941,0,0,1,0-.5,4.424,4.424,0,0,0,0-1.772,2.959,2.959,0,0,1,.025-.929.879.879,0,0,0,0-.5c-.018-.04-.055-.089-.037-.123.157-.3-.009-.586-.029-.878a.531.531,0,0,1,.018-.254,2.115,2.115,0,0,0,.1-.927q0-3.015,0-6.03c0-.225-.03-.449-.048-.706a.265.265,0,0,1,.072-.077c.261-.172.329-.34.1-.564-.205-.2-.1-.436-.066-.674a1.27,1.27,0,0,1,.261-.115.78.78,0,0,0,.47-.271c.194-.236.53-.406.7-.661a.955.955,0,0,0,.216-.611,1.467,1.467,0,0,1,.115-.756c.085-.188.1-.39.171-.581a1.275,1.275,0,0,1,.367-.625,1.15,1.15,0,0,0,.265-.515c.1-.243.122-.5.428-.7.03-.018.058-.049.058-.074a.842.842,0,0,1,.374-.659c.041-.032.011-.107,0-.162s-.035-.135-.055-.211l1.24-.5c.083-.233.413-.341.83-.38a1.886,1.886,0,0,0,.564-.083c.317-.15.707-.194,1.02-.334a3.488,3.488,0,0,0,.691-.378,1.328,1.328,0,0,1,.436-.234,1.283,1.283,0,0,0,.334-.2c.278-.2.539-.4.829-.592a.931.931,0,0,1,.709-.145,1.764,1.764,0,0,0,.254.033c.241.011.454-.018.51-.241.017-.068.047-.134.075-.214a6.515,6.515,0,0,1,1.854-.061,3.372,3.372,0,0,0,.778,0,11.566,11.566,0,0,1,1.6-.107.393.393,0,0,0,.179-.041.634.634,0,0,1,.488-.019,1.73,1.73,0,0,0,.7.024,7.841,7.841,0,0,1,1.086-.071,2.018,2.018,0,0,1,.678.114,1.1,1.1,0,0,0,.705.038l.211.384.605-.437c.287.024.044.181.192.239.278-.289.682-.2,1.056-.167.208.18-.225.324,0,.5l.793-.252a4.241,4.241,0,0,1,.414.232,3.326,3.326,0,0,0,1.033.5c.136.04.278.072.418.105a1.518,1.518,0,0,1,.359.083,1.46,1.46,0,0,0,.776.177.806.806,0,0,1,.523.144,1.276,1.276,0,0,0,.951.176c.492-.043.982-.1,1.473-.145a1.3,1.3,0,0,1,.568.057c.245.088.5.162.763.246l.387-.114c.063.019.119.024.137.044a7.754,7.754,0,0,0,1.2.994c.29.209.5.466.809.661a2.09,2.09,0,0,1,.935.99.665.665,0,0,0,.238.249c.428.318.858.636,1.306.942a.649.649,0,0,1,.346.482,1.554,1.554,0,0,0,.165.408c.082.2.154.41.242.614a1.837,1.837,0,0,0,.164.272,1.1,1.1,0,0,1,.215.658,5.035,5.035,0,0,0,.043.548.667.667,0,0,1-.008.167c-.01.056-.055.114-.043.167a7.054,7.054,0,0,1,.031.918,2.171,2.171,0,0,1-.093.666c-.045.2-.134.386-.186.58a.487.487,0,0,0,.161.565.546.546,0,0,1,.2.481q-.011.4.013.807a1.088,1.088,0,0,1-.216.7,1.1,1.1,0,0,0-.2,1.188,1.04,1.04,0,0,1,.1.331c.014.111.049.243-.024.33a1.153,1.153,0,0,0-.129,1.075.773.773,0,0,1,.041.293,2.11,2.11,0,0,0,.093.964,1.028,1.028,0,0,1-.008.628,1.188,1.188,0,0,0-.057.378,1.691,1.691,0,0,1-.1.8.249.249,0,0,0-.016.127,1.818,1.818,0,0,1,.008.753,1.963,1.963,0,0,0-.023.718,2.526,2.526,0,0,0,.1.8.992.992,0,0,1-.01.588,2.317,2.317,0,0,0-.007,1.22,2.494,2.494,0,0,1,.016.717,5.2,5.2,0,0,1-.093.588c-.034.2-.075.391-.1.587-.02.141-.029.282-.035.423-.009.211-.062.394-.445.453a.3.3,0,0,0-.285.261,2.688,2.688,0,0,1-.449.875,1.329,1.329,0,0,1-.677.594,1.051,1.051,0,0,0-.581.6,2.193,2.193,0,0,1-.569.882.271.271,0,0,0-.093.155c-.022.13-.159.2-.306.259a2.26,2.26,0,0,0-.84.521.7.7,0,0,1-.233.146,1.01,1.01,0,0,0-.605.577.28.28,0,0,1-.114.148,9.1,9.1,0,0,1-1.589.925,2.888,2.888,0,0,0-.439.25,6.677,6.677,0,0,1-.587.335c-.306.139-.491.314-.518.558a.428.428,0,0,1-.033.125.279.279,0,0,1-.352.111c-.077-.025-.149-.058-.222-.089a1.44,1.44,0,0,0-.811-.085c-.035.016-.089.028-.1.05-.177.3-.6.4-1.008.481a1.864,1.864,0,0,1-.573,0,12.588,12.588,0,0,0-2.272-.018,8.316,8.316,0,0,0-1.587.134,1.43,1.43,0,0,1-.451-.007c-.448-.043-.894-.094-1.363-.144a2.869,2.869,0,0,1-.882.325Z"/><path class="cls-2" d="M459.985,55.955c-.07-.054-.133-.142-.212-.156a6,6,0,0,0-.952-.121A1.13,1.13,0,0,1,458,55.4c-.057.039-.115.059-.136.1-.163.279-.19.3-.456.23-.361-.095-.718-.2-1.094-.309-.437.164-.437.164-1.156,0-.13-.36-.493-.555-.833-.767a1.08,1.08,0,0,0-.311-.113c-.275-.067-.549-.139-.828-.183a.739.739,0,0,1-.612-.471,1.9,1.9,0,0,0-.338-.58,2.082,2.082,0,0,1-.2-.417c-.1-.181-.211-.357-.327-.53-.047-.071-.155-.121-.177-.194-.1-.344-.436-.442-.737-.576-.084-.038-.178-.058-.264-.093a.346.346,0,0,1-.241-.264,1.39,1.39,0,0,0-.371-.619c-.1-.126-.2-.249-.282-.38a.755.755,0,0,1-.1-.685c.044-.13.059-.267.109-.395a1.163,1.163,0,0,0,.03-.752,2.714,2.714,0,0,1-.016-1.258,1.918,1.918,0,0,0-.2-1.432,2.886,2.886,0,0,1-.216-.678c-.03-.1-.038-.219-.109-.279-.229-.191-.307-.467-.5-.669a.6.6,0,0,1-.163-.616,1.985,1.985,0,0,0,.008-1.054,1.545,1.545,0,0,1,0-.606,7.262,7.262,0,0,0,0-2.123,4.816,4.816,0,0,1,.022-1.112,1.437,1.437,0,0,0,0-.6c-.016-.049-.048-.107-.032-.148a2.429,2.429,0,0,0-.025-1.053.852.852,0,0,1,.015-.3,3.393,3.393,0,0,0,.088-1.112q0-3.612,0-7.224c0-.269-.026-.537-.042-.845a.337.337,0,0,1,.063-.093.438.438,0,0,0,.085-.676c-.179-.237-.087-.522-.058-.807a1.019,1.019,0,0,1,.229-.138.677.677,0,0,0,.41-.325c.169-.282.464-.486.611-.791a1.438,1.438,0,0,0,.188-.732,2.363,2.363,0,0,1,.1-.9c.075-.226.085-.468.15-.7a1.733,1.733,0,0,1,.321-.748,1.6,1.6,0,0,0,.231-.617,1.49,1.49,0,0,1,.375-.833.139.139,0,0,0,.051-.089,1.134,1.134,0,0,1,.326-.788c.037-.039.01-.129,0-.2-.01-.081-.03-.162-.048-.252l1.083-.6c.073-.279.362-.41.726-.455a1.286,1.286,0,0,0,.494-.1c.276-.18.617-.233.891-.4a2.9,2.9,0,0,0,.605-.453,1.128,1.128,0,0,1,.38-.28,1.11,1.11,0,0,0,.292-.239c.243-.235.471-.484.725-.71a.642.642,0,0,1,.619-.173,1.133,1.133,0,0,0,.223.039c.21.013.4-.021.446-.288.015-.082.04-.162.065-.257a4.178,4.178,0,0,1,1.62-.073,2.16,2.16,0,0,0,.681.006,7.307,7.307,0,0,1,1.4-.128.264.264,0,0,0,.156-.05.421.421,0,0,1,.427-.022,1.12,1.12,0,0,0,.609.029,5.031,5.031,0,0,1,.949-.086,1.335,1.335,0,0,1,.593.137.719.719,0,0,0,.616.046l.185.46.529-.524c.251.029.038.217.168.286.242-.346.6-.242.923-.2.181.216-.2.388,0,.6l.694-.3a3.482,3.482,0,0,1,.361.278,2.678,2.678,0,0,0,.9.6c.119.048.242.087.365.127a1.062,1.062,0,0,1,.314.1,1.017,1.017,0,0,0,.678.213.571.571,0,0,1,.457.171.873.873,0,0,0,.832.211c.43-.051.858-.117,1.287-.173a.844.844,0,0,1,.5.068c.214.105.437.194.667.295l.338-.137c.055.023.1.029.12.052a7.852,7.852,0,0,0,1.047,1.192c.253.25.438.558.707.791a2.374,2.374,0,0,1,.818,1.187.747.747,0,0,0,.207.3c.375.381.75.762,1.142,1.128a.822.822,0,0,1,.3.578,2.248,2.248,0,0,0,.144.489c.072.245.135.491.212.735a2.412,2.412,0,0,0,.142.327,1.661,1.661,0,0,1,.188.788c-.006.218.027.438.039.657a1.217,1.217,0,0,1-.008.2c-.008.067-.048.136-.038.2.057.367.006.736.028,1.1a3.521,3.521,0,0,1-.082.8c-.039.234-.117.462-.162.7a.722.722,0,0,0,.141.676.789.789,0,0,1,.176.576c-.006.322,0,.645.012.967a1.667,1.667,0,0,1-.189.84,1.7,1.7,0,0,0-.174,1.424,1.551,1.551,0,0,1,.087.4.687.687,0,0,1-.021.395,1.83,1.83,0,0,0-.113,1.289,1.239,1.239,0,0,1,.037.35,3.374,3.374,0,0,0,.081,1.155,1.66,1.66,0,0,1-.008.752,1.972,1.972,0,0,0-.05.453,2.722,2.722,0,0,1-.089.958.4.4,0,0,0-.014.151,3,3,0,0,1,.007.9,3.17,3.17,0,0,0-.02.861,4.091,4.091,0,0,0,.085.959,1.6,1.6,0,0,1-.009.7,3.8,3.8,0,0,0-.006,1.461,4.04,4.04,0,0,1,.015.859c-.011.235-.052.47-.082.7s-.066.468-.09.7c-.018.168-.027.338-.032.507-.007.252-.053.472-.389.543a.323.323,0,0,0-.248.312,3.791,3.791,0,0,1-.393,1.049,1.381,1.381,0,0,1-.592.711,1.178,1.178,0,0,0-.508.713,2.86,2.86,0,0,1-.5,1.056.366.366,0,0,0-.081.187.433.433,0,0,1-.268.31,2.011,2.011,0,0,0-.734.624.634.634,0,0,1-.2.175,1.092,1.092,0,0,0-.529.692.336.336,0,0,1-.1.176,7.747,7.747,0,0,1-1.388,1.108,2.452,2.452,0,0,0-.384.3,5.659,5.659,0,0,1-.513.4.848.848,0,0,0-.453.669.652.652,0,0,1-.029.15.217.217,0,0,1-.307.133,1.917,1.917,0,0,1-.194-.107.958.958,0,0,0-.71-.1c-.03.02-.077.034-.089.06-.154.363-.523.474-.881.577a1.207,1.207,0,0,1-.5,0,8.05,8.05,0,0,0-1.986-.022,5.363,5.363,0,0,0-1.387.161.908.908,0,0,1-.394-.008c-.392-.052-.782-.113-1.192-.174a2.12,2.12,0,0,1-.771.39Z"/><path class="cls-2" d="M717.3,48.723a1.018,1.018,0,0,1-.364-.733,1.467,1.467,0,0,0-.209-.627,1.016,1.016,0,0,1-.151-.766c.036-.168-.07-.358.081-.511.017-.017,0-.076-.014-.111-.02-.054-.084-.117-.071-.154.078-.211-.071-.347-.139-.514-.08-.2-.273-.374-.135-.614a.779.779,0,0,1-.242-.121c-.04-.043-.024-.135-.034-.205a3.837,3.837,0,0,1,.093-1.023l-.213-.2a1.377,1.377,0,0,0-.023-.4,2.091,2.091,0,0,1,.032-.995c0-.051.058-.1.09-.144s.08-.078.073-.1c-.091-.321.173-.716-.2-.964a1.083,1.083,0,0,0,.115-.277c.015-.157-.124-.221-.252-.311a2.136,2.136,0,0,0-.055-1.288.7.7,0,0,1,.094-.085.228.228,0,0,0,.115-.3.172.172,0,0,1,.024-.154c.205-.158.145-.366.123-.567,0-.043-.044-.091-.033-.126a7.262,7.262,0,0,0,.053-1.406,4.9,4.9,0,0,1,0-.707c.041-.161.045-.332.273-.337.022,0,.064-.033.063-.049-.017-.252.205-.293.356-.382.022-.415.047-.812.063-1.21a.66.66,0,0,0-.04-.257,1.752,1.752,0,0,1-.1-.518.8.8,0,0,0-.342-.68c0-.135.164-.19.15-.349a.95.95,0,0,1,.155-.592.39.39,0,0,0,.039-.255c-.023-.144.081-.213.141-.308a4.367,4.367,0,0,1-.116-1.143c-.128-.29-.043-.627-.153-.9a1.177,1.177,0,0,1,.03-.851,1.03,1.03,0,0,0,.037-.517c-.018-.1-.027-.206-.052-.307a.629.629,0,0,1,.073-.506,1.983,1.983,0,0,0,.177-1.165,1.619,1.619,0,0,0-.058-.306,1.169,1.169,0,0,1,.253-1.073.687.687,0,0,0,.141-.27c.045-.209.253-.289.335-.459.075-.154.062-.343.237-.459a1.511,1.511,0,0,0,.3-.32.294.294,0,0,0,.069-.155.818.818,0,0,1,.347-.6,2.2,2.2,0,0,0,.511-.8,1.218,1.218,0,0,1,.082-.2,3.855,3.855,0,0,1,.836-.964c.049-.032.093-.086.146-.1.217-.04.39-.119.442-.364a.17.17,0,0,1,.135-.095c.313.056.534-.152.764-.285a8.828,8.828,0,0,1,1.369-.623,1.876,1.876,0,0,1,.258-.066,6.983,6.983,0,0,0,.726-.189,3.035,3.035,0,0,1,1.091-.166c.059,0,.148.023.172-.006.182-.22.469-.129.688-.246a.689.689,0,0,1,.72.02,1.45,1.45,0,0,0,.888.213.393.393,0,0,1,.318.12.465.465,0,0,0,.538.074,2,2,0,0,1,.2-.087.545.545,0,0,1,.432.01,1.094,1.094,0,0,0,.517.1,2.534,2.534,0,0,1,.825.129c.229.081.475.128.713.2s.5.036.74.105a2.362,2.362,0,0,0,1.046.068.345.345,0,0,1,.175.012,10.7,10.7,0,0,1,1.047.333.805.805,0,0,0,.3.088,1.826,1.826,0,0,1,1,.428.43.43,0,0,0,.374.083,4.285,4.285,0,0,1,.571-.08,1.262,1.262,0,0,1,.806.2,2,2,0,0,0,.518.85,1.853,1.853,0,0,1,.435.554.2.2,0,0,0,.089.092,1.1,1.1,0,0,1,.47.56,3.394,3.394,0,0,0,.29.442c.245.349.493.7.762,1.076a2.241,2.241,0,0,1,.8.544.724.724,0,0,0,.183.123,1.023,1.023,0,0,1,.46.546.526.526,0,0,0-.073.187,2.048,2.048,0,0,1-.19.722.648.648,0,0,0-.033.3,2.871,2.871,0,0,1,.046.662.783.783,0,0,0,.084.384.971.971,0,0,1,.083.515,5.888,5.888,0,0,0,.026.663.365.365,0,0,0,.042.124c.017.041.042.079.059.12a2.013,2.013,0,0,0,.263.6c.149.16.293.323.43.474-.029.308-.036.6-.089.888a3.327,3.327,0,0,1-.251,1.107.408.408,0,0,0-.053.212.9.9,0,0,1-.049.521.116.116,0,0,0,0,.086.914.914,0,0,1-.133.8,1.279,1.279,0,0,0-.121.467,1.4,1.4,0,0,1-.16.638.248.248,0,0,0-.017.206.536.536,0,0,1,.013.388,2.089,2.089,0,0,0-.047.791,1.425,1.425,0,0,1-.085.653,2.433,2.433,0,0,0-.121.516,2.958,2.958,0,0,1-.127.74.6.6,0,0,0,0,.3,1.463,1.463,0,0,1-.06.737,10.275,10.275,0,0,0-.438,2.121,7.349,7.349,0,0,0-.083,1.327.625.625,0,0,1-.077.385.941.941,0,0,0-.034.854c.076.269.179.53.273.793a.327.327,0,0,1-.012.3.625.625,0,0,0-.069.706.2.2,0,0,1,.007.172c-.157.243-.123.545-.258.791a.374.374,0,0,0-.007.376,1.965,1.965,0,0,1,.159.8.794.794,0,0,0-.392.844,6.735,6.735,0,0,1-.578.433c-.313.187-.411.535-.632.789a.145.145,0,0,0-.035.08,1.635,1.635,0,0,1-.465.93.727.727,0,0,0-.14.225,1.209,1.209,0,0,1-.613.727,1.921,1.921,0,0,0-.636.54.979.979,0,0,1-.318.233.649.649,0,0,0-.311.3.982.982,0,0,1-.745.573,1.868,1.868,0,0,0-.946.608.473.473,0,0,1-.254.161,1.842,1.842,0,0,0-.8.36,1.2,1.2,0,0,1-.2.088c-.064.032-.149.059-.181.114-.184.322-.516.3-.786.275a5.324,5.324,0,0,0-1.1.054,4.551,4.551,0,0,1-.882.08.981.981,0,0,0-.552.143,2.3,2.3,0,0,1-1.46.247c-.233-.03-.471-.027-.706-.049a1.911,1.911,0,0,1-.391-.072.921.921,0,0,0-.568-.022,4.58,4.58,0,0,1-.971.058.293.293,0,0,1-.2-.07,1.213,1.213,0,0,0-.9-.265c-.073,0-.167.029-.216-.006-.223-.157-.486-.1-.721-.163a4.718,4.718,0,0,1-1.178-.365c-.189-.111-.409-.17-.6-.271-.223-.116-.429-.262-.651-.378a7.274,7.274,0,0,0-.718-.33.334.334,0,0,0-.368.087.609.609,0,0,1-.216.138.177.177,0,0,1-.248-.118c-.044-.229-.228-.424-.158-.678-.1-.284-.128-.612-.445-.776-.048-.025-.11-.073-.119-.118-.061-.348-.391-.55-.473-.889-.021-.086-.134-.151-.209-.22a1.033,1.033,0,0,1-.365-.905C717.3,48.837,717.3,48.807,717.3,48.723Z"/><path class="cls-2" d="M317.472,49.1a1.192,1.192,0,0,1-.426-.859,1.732,1.732,0,0,0-.245-.735,1.191,1.191,0,0,1-.177-.9c.042-.2-.082-.42.095-.6.02-.02,0-.089-.016-.13-.024-.063-.1-.137-.083-.18.091-.248-.084-.407-.164-.6-.093-.231-.319-.438-.158-.719a.92.92,0,0,1-.283-.141c-.046-.05-.028-.159-.04-.241a4.524,4.524,0,0,1,.109-1.2l-.25-.241a1.592,1.592,0,0,0-.026-.468,2.456,2.456,0,0,1,.037-1.166c.006-.059.068-.113.106-.168s.094-.091.085-.121c-.106-.376.2-.838-.239-1.129a1.223,1.223,0,0,0,.135-.325c.018-.183-.146-.259-.3-.364a2.515,2.515,0,0,0-.064-1.509.868.868,0,0,1,.109-.1.267.267,0,0,0,.135-.35.2.2,0,0,1,.029-.181c.239-.185.169-.428.143-.664,0-.051-.051-.107-.038-.148a8.543,8.543,0,0,0,.062-1.646,5.575,5.575,0,0,1-.006-.828c.048-.189.052-.39.319-.395.027,0,.076-.039.075-.057-.021-.3.24-.343.416-.447.027-.487.055-.952.074-1.418a.769.769,0,0,0-.046-.3,2.053,2.053,0,0,1-.121-.607.933.933,0,0,0-.4-.8c.006-.159.192-.223.176-.41a1.11,1.11,0,0,1,.182-.692.479.479,0,0,0,.046-.3c-.028-.167.094-.249.164-.36a5.083,5.083,0,0,1-.135-1.339c-.151-.339-.051-.734-.18-1.053a1.387,1.387,0,0,1,.035-1,1.207,1.207,0,0,0,.044-.605c-.022-.12-.032-.242-.061-.36a.734.734,0,0,1,.085-.592,2.319,2.319,0,0,0,.207-1.365,1.85,1.85,0,0,0-.067-.358,1.37,1.37,0,0,1,.3-1.257.811.811,0,0,0,.165-.317c.052-.244.3-.337.393-.537.088-.181.073-.4.277-.537a1.81,1.81,0,0,0,.347-.376.327.327,0,0,0,.08-.181.961.961,0,0,1,.407-.7,2.584,2.584,0,0,0,.6-.941,1.36,1.36,0,0,1,.1-.238,4.512,4.512,0,0,1,.979-1.128c.057-.038.109-.1.171-.113.254-.047.457-.139.518-.426a.2.2,0,0,1,.158-.112c.367.065.625-.178.9-.334a10.367,10.367,0,0,1,1.6-.729,2.193,2.193,0,0,1,.3-.078,7.81,7.81,0,0,0,.85-.221,3.556,3.556,0,0,1,1.279-.2c.069,0,.172.028.2-.006.213-.258.549-.152.806-.288a.805.805,0,0,1,.843.023,1.7,1.7,0,0,0,1.04.249.466.466,0,0,1,.373.141.544.544,0,0,0,.629.087c.081-.033.157-.079.239-.1a.645.645,0,0,1,.506.012,1.255,1.255,0,0,0,.6.112,2.946,2.946,0,0,1,.967.151c.268.1.556.15.834.238s.59.042.867.123a2.764,2.764,0,0,0,1.225.079.393.393,0,0,1,.2.014,12.663,12.663,0,0,1,1.227.39.932.932,0,0,0,.346.1,2.126,2.126,0,0,1,1.169.5.5.5,0,0,0,.438.1,4.8,4.8,0,0,1,.67-.093,1.472,1.472,0,0,1,.943.237,2.345,2.345,0,0,0,.607,1,2.177,2.177,0,0,1,.51.648.234.234,0,0,0,.1.109,1.29,1.29,0,0,1,.551.655,3.779,3.779,0,0,0,.339.518c.287.409.577.816.892,1.26a2.624,2.624,0,0,1,.936.638.882.882,0,0,0,.214.144,1.189,1.189,0,0,1,.539.639.6.6,0,0,0-.085.219,2.378,2.378,0,0,1-.223.845.755.755,0,0,0-.038.355,3.282,3.282,0,0,1,.053.774.922.922,0,0,0,.1.45,1.154,1.154,0,0,1,.1.6,6.511,6.511,0,0,0,.03.776.472.472,0,0,0,.048.146c.021.048.05.092.07.14a2.339,2.339,0,0,0,.308.7c.174.188.344.379.5.556-.034.361-.043.7-.1,1.04a3.9,3.9,0,0,1-.3,1.3.478.478,0,0,0-.062.247,1.047,1.047,0,0,1-.057.611.135.135,0,0,0,0,.1,1.072,1.072,0,0,1-.156.934,1.5,1.5,0,0,0-.142.547,1.628,1.628,0,0,1-.188.747.294.294,0,0,0-.02.242.625.625,0,0,1,.016.454,2.459,2.459,0,0,0-.056.928,1.668,1.668,0,0,1-.1.763,2.9,2.9,0,0,0-.142.606,3.508,3.508,0,0,1-.148.866.709.709,0,0,0,0,.357,1.706,1.706,0,0,1-.07.862,12.086,12.086,0,0,0-.514,2.485,8.58,8.58,0,0,0-.1,1.554.734.734,0,0,1-.091.451,1.1,1.1,0,0,0-.039,1c.089.315.21.621.319.929a.386.386,0,0,1-.014.352.73.73,0,0,0-.081.826.236.236,0,0,1,.009.2c-.184.284-.144.638-.3.926a.44.44,0,0,0-.007.441,2.318,2.318,0,0,1,.186.932.93.93,0,0,0-.46.989,7.84,7.84,0,0,1-.677.507c-.366.219-.481.626-.74.924a.17.17,0,0,0-.041.094,1.922,1.922,0,0,1-.544,1.089.83.83,0,0,0-.164.263,1.413,1.413,0,0,1-.719.851,2.267,2.267,0,0,0-.745.633,1.151,1.151,0,0,1-.372.273.761.761,0,0,0-.364.355,1.15,1.15,0,0,1-.873.671,2.18,2.18,0,0,0-1.108.713.555.555,0,0,1-.3.188,2.143,2.143,0,0,0-.935.422,1.435,1.435,0,0,1-.236.1c-.076.038-.176.07-.213.135-.216.376-.6.35-.921.322a6.086,6.086,0,0,0-1.282.063,5.315,5.315,0,0,1-1.033.093,1.156,1.156,0,0,0-.647.168,2.694,2.694,0,0,1-1.709.289c-.274-.035-.552-.032-.828-.057a2.274,2.274,0,0,1-.457-.085,1.085,1.085,0,0,0-.666-.026,5.22,5.22,0,0,1-1.137.068.34.34,0,0,1-.235-.082,1.421,1.421,0,0,0-1.059-.31c-.086,0-.2.034-.254-.007-.26-.184-.569-.115-.844-.191a5.511,5.511,0,0,1-1.379-.427c-.222-.13-.479-.2-.709-.318-.26-.136-.5-.307-.762-.443a8.485,8.485,0,0,0-.84-.386.391.391,0,0,0-.431.1.728.728,0,0,1-.253.161.207.207,0,0,1-.291-.138c-.051-.267-.268-.5-.186-.794-.121-.332-.149-.717-.52-.909-.057-.029-.13-.085-.139-.138-.072-.407-.459-.644-.555-1.042-.024-.1-.156-.176-.245-.257a1.21,1.21,0,0,1-.427-1.06C317.475,49.231,317.472,49.2,317.472,49.1Z"/><path class="cls-2" d="M411.938,48.948a.81.81,0,0,1-.151,1.081c-.226.268-.45.584-.891.5a1.5,1.5,0,0,1,.078.417,2.918,2.918,0,0,1-.155.608.538.538,0,0,1-.435.337c-.186.039-.4.056-.5.249-.111.216-.307.4-.256.682a.316.316,0,0,1-.017.224c-.272.32-.3.78-.639,1.066a2.1,2.1,0,0,0-.525.671,1.226,1.226,0,0,1-.891.56,6.349,6.349,0,0,0-1.346.447,1.037,1.037,0,0,0-.247.224c-.148.146-.291.3-.443.44-.039.037-.11.082-.151.07-.353-.1-.565.169-.821.311a.894.894,0,0,0-.3.257,4.271,4.271,0,0,1-.988.871c-.177.137-.378.244-.587.376l-.433-.188-.343.344c-.051.01-.094.034-.124.023a2.866,2.866,0,0,0-1.133-.061,2.835,2.835,0,0,1-.568,0,1.8,1.8,0,0,0-1.324.243c-.1.061-.2.11-.324.177a1.3,1.3,0,0,0-.991-.022,1.988,1.988,0,0,1-1.136,0c-.271-.094-.48.07-.718.089s-.4-.209-.654-.173a3.012,3.012,0,0,0-.97.344.664.664,0,0,1-.647.069,1.562,1.562,0,0,0-.536-.026,1.493,1.493,0,0,0-.138-.15.815.815,0,0,0-.882-.237.986.986,0,0,1-.617.013,1.46,1.46,0,0,0-.9.019,1.11,1.11,0,0,1-.884-.118c-.216-.125-.449-.2-.67-.308a.9.9,0,0,0-.549-.11.849.849,0,0,1-.6-.158,2.536,2.536,0,0,1-.38-.258,1.8,1.8,0,0,0-1.255-.452,1.626,1.626,0,0,0-.229-.017.508.508,0,0,1-.589-.348.67.67,0,0,0-.292-.343.774.774,0,0,1-.346-.373,3.336,3.336,0,0,0-.681-1.035,3.758,3.758,0,0,0-.815-.712,1.052,1.052,0,0,1-.532-.77,1.859,1.859,0,0,0-.661-1.173,1.26,1.26,0,0,1-.451-.842,3.042,3.042,0,0,1-.035-.343q0-1.032.016-2.064a2.847,2.847,0,0,1,.036-.515,7.091,7.091,0,0,0,.026-1.374c0-.265-.154-.5-.16-.777-.013-.59-.12-1.177-.115-1.77a.622.622,0,0,0-.055-.281.833.833,0,0,1-.08-.813c.048-.1-.022-.261-.057-.389a2.652,2.652,0,0,0-.125-.258.732.732,0,0,1,.206-.948,1.432,1.432,0,0,1-.1-.889,10.2,10.2,0,0,0-.049-1.832,4.262,4.262,0,0,1,.055-.968,2.847,2.847,0,0,0,.016-.97,5.114,5.114,0,0,1-.039-.57c-.033-.38-.014-.761-.067-1.144-.069-.491-.081-.99-.185-1.478a.3.3,0,0,1,0-.115,9.113,9.113,0,0,0-.025-1.771c0-.419.058-.837.033-1.26-.025-.438,0-.879,0-1.318a2.1,2.1,0,0,0-.077-.51,2.962,2.962,0,0,1-.028-1.2,2.4,2.4,0,0,0,.019-.568c-.1-.95-.206-1.9-.217-2.855,0-.114.036-.228.036-.341a4.566,4.566,0,0,0-.031-.966,2.319,2.319,0,0,1-.056-.618,4.321,4.321,0,0,0-.055-.915,4.9,4.9,0,0,1,0-.686,1.259,1.259,0,0,0-.044-.5,1.154,1.154,0,0,1-.052-.727,1.993,1.993,0,0,0,.044-.567,1.043,1.043,0,0,1,.419-1.01,8.808,8.808,0,0,1,1.034-.9,1.029,1.029,0,0,0,.269-.294c.114-.154.216-.317.319-.479a1.912,1.912,0,0,1,1-.829,1.564,1.564,0,0,0,.773-.472c.5-.211.686-.672.925-1.113.292-.538.665-1.031,1-1.543a.63.63,0,0,1,.665-.25,7.384,7.384,0,0,0,1.6.028c.248-.014.494-.056.741-.083.189-.02.379-.036.568-.055.113-.012.227-.024.339-.042a2.754,2.754,0,0,1,.5-.082,7.755,7.755,0,0,1,1.646.085,1.082,1.082,0,0,0,.34-.007c.305-.025.608-.064.913-.077a2.246,2.246,0,0,0,.784-.131.881.881,0,0,1,.779-.042.141.141,0,0,0,.11.021c.336-.158.682.01,1.021-.035a.729.729,0,0,1,.228-.007,12.584,12.584,0,0,0,1.871-.092c.052,0,.1-.052.159-.06a1.259,1.259,0,0,1,.334-.022c.264.035.524.1.788.127a.584.584,0,0,0,.321-.068.506.506,0,0,1,.493-.032.726.726,0,0,0,.5.02,2.21,2.21,0,0,1,1.136-.048.911.911,0,0,0,.285,0l.742-.031c.229-.009.459,0,.686-.031a.8.8,0,0,1,.813.306,1.659,1.659,0,0,0,.373.351,3.715,3.715,0,0,1,.748.707,1.08,1.08,0,0,1,.316.527.438.438,0,0,0,.149.237c.217.185.465.338.666.538a1.974,1.974,0,0,1,.709,1,1.031,1.031,0,0,0,.378.686.635.635,0,0,1,.178.341,2.141,2.141,0,0,0,.7,1.1.535.535,0,0,0,.236.152.541.541,0,0,1,.453.461,1.34,1.34,0,0,0,.463.638c.183.165.358.34.535.511.027.027.063.057.068.09.063.374.33.69.3,1.09a.52.52,0,0,0,.045.278,3.1,3.1,0,0,1,.273.935,1.12,1.12,0,0,0,.087.332,1.73,1.73,0,0,1,.2.879A1.836,1.836,0,0,1,411,24.14a.086.086,0,0,0-.011.056,4.622,4.622,0,0,1-.032,1.243,12.328,12.328,0,0,0,.327,2.155,2.9,2.9,0,0,1,.039.908,3.473,3.473,0,0,0,.084,1.185.68.68,0,0,1,.008.273c-.051.243-.106.486-.179.724a3.339,3.339,0,0,0-.035,1.758,4.829,4.829,0,0,1,.036,1.084,1.8,1.8,0,0,0,.133.95,1.244,1.244,0,0,1,.108.5c.028.418.047.838.051,1.258a4.326,4.326,0,0,0,.08,1.028,2.379,2.379,0,0,1,.048.4c.022.246.03.495.06.741a3.434,3.434,0,0,1-.037,1.366,1.112,1.112,0,0,0,.008.558,3.512,3.512,0,0,1,.038,1.812.535.535,0,0,0,.008.382c.123.321.228.648.339.974a1.7,1.7,0,0,1,.038.909,4.121,4.121,0,0,0-.012,1.538,4.933,4.933,0,0,1,.119,1.251c-.043.436-.066.872-.1,1.307A1.762,1.762,0,0,1,411.938,48.948ZM380.562,19l.052-.01a.186.186,0,0,0-.046-.043c-.008,0-.027.017-.041.027Z"/><path class="cls-2" d="M255.43,58.453l-.182-.308c-.165-.01-.329-.01-.491-.031-.43-.058-.807-.181-.925-.683-.026-.114-.174-.2-.26-.3a1.941,1.941,0,0,1-.684-1.446.294.294,0,0,0-.026-.161,3.327,3.327,0,0,1-.063-2.18c.13-.928.3-1.85.431-2.778a3.809,3.809,0,0,0,.011-.827,1.945,1.945,0,0,0-.856-1.71c.034-.65.057-1.31.109-1.968a2.413,2.413,0,0,1,.169-.545c.085-.262.18-.521.255-.786a1.237,1.237,0,0,0-.018-.812,4.509,4.509,0,0,1-.2-.8,2.277,2.277,0,0,1-.014-1.067,2.121,2.121,0,0,0,.051-1.225,1.006,1.006,0,0,1,.11-.722,8.534,8.534,0,0,0,.793-2.081,1.72,1.72,0,0,1,.361-.64.721.721,0,0,0,.03-.918,5.135,5.135,0,0,0-.723-1,2.3,2.3,0,0,1-.852-1.678,3.321,3.321,0,0,0,.682-2.12,3.876,3.876,0,0,1,.074-.656,11.541,11.541,0,0,0,.313-2.041,3.581,3.581,0,0,0-.216-1.617c-.053-.127-.093-.259-.146-.409a2.842,2.842,0,0,1,.7-1.094c.142-.131.255-.295.4-.414a2.426,2.426,0,0,0,.786-2,3.116,3.116,0,0,1,.023-.494,2.189,2.189,0,0,0-.445-1.626c-.058-.093-.152-.164-.2-.259a.731.731,0,0,1,.1-.917c.367-.357.672-.779,1.278-.837a1.738,1.738,0,0,0,1.094-.837c.284-.371.536-.764.854-1.113a3.936,3.936,0,0,0,.426-.764,2.215,2.215,0,0,1,.518-.112c.5,0,.945-.26,1.45-.274.655-.017,1.3-.23,1.963-.183a.348.348,0,0,0,.162-.029,4.812,4.812,0,0,1,2.279-.237.7.7,0,0,0,.247,0,4.153,4.153,0,0,1,2.365.113,3.7,3.7,0,0,0,2.043-.015,1.134,1.134,0,0,1,.483-.074,6.02,6.02,0,0,0,1.636.2c.252.164.582.274.741.5a3.2,3.2,0,0,0,1.731,1.043,8.2,8.2,0,0,1,1.451.585,1.824,1.824,0,0,0,.538.134c.1.126.189.23.271.341a1.33,1.33,0,0,0,.884.555,1.242,1.242,0,0,1,.591.26.889.889,0,0,1,.325.892,3.674,3.674,0,0,0,.025,1.562,1.509,1.509,0,0,1-.018.652,3.492,3.492,0,0,0-.035,1.316,5.934,5.934,0,0,1-.04,2.058,3.062,3.062,0,0,0,.008,1.232,12.519,12.519,0,0,1,.149,1.811,2.919,2.919,0,0,0,.1,1.224.941.941,0,0,1-.057.563,3.923,3.923,0,0,0-.1,1.314c.03.411-.027.83.017,1.239.1.936-.017,1.87.034,2.8a4.008,4.008,0,0,0,.042.66,7.752,7.752,0,0,1,.065,1.813c0,.19.03.38.04.57a2.485,2.485,0,0,1,.014.649,4.159,4.159,0,0,0-.025,1.147c.039.686-.019,1.377-.033,2.065a1.761,1.761,0,0,0,.019.573,4.457,4.457,0,0,1,.062,2.038c-.08.655-.083,1.318-.164,1.973-.042.343.034.726-.244,1.022a.254.254,0,0,0-.051.222,1.67,1.67,0,0,1,.032.9,2.076,2.076,0,0,0,.091.648c.074.321.165.638.255.956a.819.819,0,0,1-.1.661l-.27-.294c-.253.605-.756,1.046-1,1.626l.591.822a3.8,3.8,0,0,1-.536.962,4.905,4.905,0,0,0-.531.927c-.1.2-.188.4-.279.6a1.256,1.256,0,0,0-.181,1.094,1.517,1.517,0,0,1-.013.625,1.34,1.34,0,0,0,.09.174c.458.611.451.689-.1,1.232a5.566,5.566,0,0,1-1.481,1.3.643.643,0,0,0-.24.224,1.8,1.8,0,0,1-1.6.684,4.845,4.845,0,0,0-.494-.017.855.855,0,0,1-.659-.275c-.169.07-.256.24-.51.18a14.584,14.584,0,0,0-2.783-.287,1.317,1.317,0,0,0-.867.2,1,1,0,0,1-.87.131,1.449,1.449,0,0,0-.572-.049,4.343,4.343,0,0,1-1.8-.166,1.7,1.7,0,0,0-1.136.048.47.47,0,0,1-.236.069,14.761,14.761,0,0,0-1.629-.005,11.666,11.666,0,0,0-1.484-.008c-.926.068-.888.078-1.326-.659-.156-.261-.31-.524-.483-.774a1.341,1.341,0,0,0-.384-.42,2.2,2.2,0,0,1-.956-1.112A.541.541,0,0,0,255.43,58.453Z"/><path class="cls-2" d="M583.777,27.551c.127-.206.192-.323.268-.433a1.464,1.464,0,0,0,.244-.867c0-.444.018-.89,0-1.333a.939.939,0,0,1,.618-.981c.2-.09.4-.172.614-.261l.226-.863c-.538-.484-.44-1.248-.751-1.858a.612.612,0,0,1,.087-.634,4.69,4.69,0,0,1,.551-.725c.454-.408.787-.92,1.248-1.328a1.472,1.472,0,0,0,.475-1.253,5.567,5.567,0,0,1,.242-1.542.68.68,0,0,1,.432-.479,2.467,2.467,0,0,1,1.289-.18c.419.059.6.346.867.645a4.759,4.759,0,0,1,1.631-.551,1.551,1.551,0,0,1,.9.07c.282.107.589.148.873.25a.907.907,0,0,0,1.065-.2.711.711,0,0,1,.38-.141.444.444,0,0,1,.568.514c-.008.109-.059.214-.072.324a1.25,1.25,0,0,0,.022.255c.4.105.791.209,1.185.31a.279.279,0,0,0,.164,0c.482-.208.915.018,1.372.122a6.6,6.6,0,0,1,1.883.557c.366.207.846.23,1.233.466a.577.577,0,0,0,.4.068,7.649,7.649,0,0,0,1.941-.4,1.418,1.418,0,0,1,1.5.088,12.906,12.906,0,0,1,1.45.96,4.826,4.826,0,0,1,.785.959,4.667,4.667,0,0,0,.925,1.058,1.921,1.921,0,0,1,.56,1.183,7.233,7.233,0,0,0,.463,1.584,1.311,1.311,0,0,1,.009.809,2.076,2.076,0,0,0,0,1.146.886.886,0,0,1,.049.489,2.646,2.646,0,0,0,.1,1.389,12.087,12.087,0,0,1,.256,3.139c-.006.165-.038.329-.056.494a6.217,6.217,0,0,0-.107,1.153A5.275,5.275,0,0,1,609,34.229c.111.388.218.817.362,1.233a1.182,1.182,0,0,0,.294.385,1.627,1.627,0,0,1,.5,1.1,11.885,11.885,0,0,0,.226,1.643,1.227,1.227,0,0,1-.044.727,18.372,18.372,0,0,1-.81,1.99,1,1,0,0,0,.01,1.091,5.217,5.217,0,0,0,1.4,1.933,1.56,1.56,0,0,1,.38.53,4.908,4.908,0,0,0,.361.654,1.363,1.363,0,0,1,.1,1.622,3.556,3.556,0,0,0-.309,1.2,9.158,9.158,0,0,1-.422,2.274c-.288.756-.3.852-.035,2.111a5.413,5.413,0,0,1-.068,2.3,1.965,1.965,0,0,1-.471.86,6.85,6.85,0,0,1-1.175,1.274,4.287,4.287,0,0,0-.859,1.1,6.188,6.188,0,0,1-.427.609,1.285,1.285,0,0,0-.379.8,1,1,0,0,1-.948.761,9.808,9.808,0,0,0-2.216.2.587.587,0,0,1-.165.023c-.7-.03-1.38.143-2.068.165-1.443.045-2.887.022-4.331.024a1.224,1.224,0,0,1-.413-.035,1.669,1.669,0,0,0-.977.025,8.324,8.324,0,0,1-1.887.2,10.549,10.549,0,0,1-1.553-.064,6.722,6.722,0,0,0-1.729.131c-.137.014-.272.062-.409.063a.669.669,0,0,1-.666-.506,9.39,9.39,0,0,0-.73-1.754,2.605,2.605,0,0,0-1.155-1.15,12.382,12.382,0,0,1-1.47-.748c-.494-.277-.6-.753-.363-1.38.187-.49.36-.985.526-1.44a8.985,8.985,0,0,1-.546-1.352,3.18,3.18,0,0,0-.676-1.122,2.284,2.284,0,0,1-.393-1.737,1.268,1.268,0,0,1,.267-.593c.237-.3.518-.573.771-.845a4.1,4.1,0,0,1,.363-2.094.931.931,0,0,0,.1-.479,6.943,6.943,0,0,1,.126-1.4,4.308,4.308,0,0,0-.031-1.405,1.717,1.717,0,0,0-.837-1.166,3,3,0,0,0-.71-2.149,2.7,2.7,0,0,1-.369-.635c-.155-.371-.314-.722-.75-.767a4.248,4.248,0,0,0-.046-.859c-.086-.329.229-.5.239-.774l-.217-.421c.018-.074.013-.147.047-.177a2.517,2.517,0,0,0,.742-1.622c.028-.191.094-.378.118-.569a1.782,1.782,0,0,1,.341-.835A1.266,1.266,0,0,0,585.871,32a.866.866,0,0,1-.023-.408,2.7,2.7,0,0,0-.244-1.524,3.761,3.761,0,0,1-.287-1.033A1.272,1.272,0,0,0,584.584,28C584.347,27.864,584.105,27.734,583.777,27.551Z"/><path class="cls-2" d="M800.365,14.841a5.59,5.59,0,0,1,.364.487.932.932,0,0,0,.788.471,1.518,1.518,0,0,1,.762.228,1.453,1.453,0,0,0,.482.18,2.008,2.008,0,0,1,1.384,1.1.619.619,0,0,0,.242.254,1.017,1.017,0,0,1,.528.579c.2.472.437.928.685,1.444.377.2.9.224,1.268.628a6.306,6.306,0,0,1-.425,1.669,4.458,4.458,0,0,0-.227,1.369c-.033.292,0,.591-.034.884a1.533,1.533,0,0,1-.148.557.686.686,0,0,0,.017.761c.093.143.166.3.261.475.19.072.4.146.6.231a.461.461,0,0,1,.3.588.7.7,0,0,1-.116.267,1.9,1.9,0,0,0-.244,1.691,1.172,1.172,0,0,1-.139.975,1.837,1.837,0,0,0-.223.69c-.071.409-.116.825-.155,1.239a1.214,1.214,0,0,0,.029.511,2.057,2.057,0,0,1,.043,1.156,1.826,1.826,0,0,0,.114.788,1.012,1.012,0,0,1,0,.711,1.092,1.092,0,0,0-.053.859.632.632,0,0,1,0,.435.887.887,0,0,0,.3,1.074c-.281.51.061.952.133,1.431-.023.068-.028.156-.074.2a.989.989,0,0,0-.276,1.076,1.066,1.066,0,0,1-.029.427,1.391,1.391,0,0,0,.074.939,2.314,2.314,0,0,1,.155,1.844,2.757,2.757,0,0,0,.032,1.375c.255,1.029.247,1.031-.276,2.078.128.344.274.732.417,1.12.059.16.1.329.173.482a5.224,5.224,0,0,0,.316.493.505.505,0,0,1-.418.564.7.7,0,0,0-.527.847.7.7,0,0,1-.187.535c-.355.5-.725.989-1.074,1.493a2.337,2.337,0,0,0-.467.906c-.065.351-.392.49-.69.607-.48.189-.972.347-1.452.534-.3.115-.574.279-.873.388a5.339,5.339,0,0,1-2.318.609,2.81,2.81,0,0,0-1.71.321,1.225,1.225,0,0,1-.787.046,1.436,1.436,0,0,0-.913.094,8.206,8.206,0,0,1-1.492.383,1.083,1.083,0,0,1-.512-.024,8.349,8.349,0,0,1-1.429-.335,1.433,1.433,0,0,0-.58-.067c-.393-.009-.787-.005-1.181-.005a.847.847,0,0,1-.794-.286.364.364,0,0,0-.254-.129,3.456,3.456,0,0,1-1.685-.812,3.507,3.507,0,0,1-1.419-1.35,1.332,1.332,0,0,0-.756-.671,1.122,1.122,0,0,1-.637-.574l.12-.893c-.148-.055-.257-.1-.367-.135-.088-.032-.177-.061-.259-.09.008-.075,0-.143.02-.164.262-.213.531-.419.833-.655a2.715,2.715,0,0,1-.124-.385,2.334,2.334,0,0,1-.068-.645c.039-.364.132-.723.2-1.083a.955.955,0,0,0-.451-1.193c-.224-.116-.236-.355-.232-.585a.434.434,0,0,1,.3-.453.861.861,0,0,0,.214-.16c-.013-.078,0-.15-.031-.168-.706-.473-.489-1.158-.4-1.8a7.677,7.677,0,0,1,.231-.852.96.96,0,0,0-.072-.863l.381-.186c.021-.254-.308-.1-.35-.343l.222-.232a.6.6,0,0,0,.029-.141,3.693,3.693,0,0,1-.037-.582c.01-.1.128-.188.2-.291l-.575-.411.215-.3c-.374-.537-.026-.9.358-1.29l-.31-.25a1.38,1.38,0,0,0-.1-1.408c-.174-.331-.158-.48.038-1.063a2.41,2.41,0,0,1-.513-.364,2.014,2.014,0,0,1-.349-.989l.485-.363c-.054-.065-.1-.176-.167-.19-.215-.045-.439-.043-.655-.083-.077-.014-.142-.095-.217-.149.064-.071.092-.131.128-.137.555-.085.589-.58.764-.964-.125-.466.161-.734.475-.99.037-.031.067-.071.136-.145a1.916,1.916,0,0,1-.046-.454,1.472,1.472,0,0,1,.168-.395c-.365-.206-.415-.161-.412.41-.247.181-.43.489-.833.6l-.829-.665a1.5,1.5,0,0,1,.152-.824.714.714,0,0,1,.412-.4.768.768,0,0,0,.5-.937,3.79,3.79,0,0,1,.029-.867.754.754,0,0,0-.039-.354,1.2,1.2,0,0,1,.105-1.185c.11-.218.227-.433.333-.653.149-.309.2-.609-.113-.86a.689.689,0,0,1-.2-.606.823.823,0,0,0-.325-.7.872.872,0,0,1-.051-1.242c.148-.164.307-.319.465-.474a2.54,2.54,0,0,0,.58-.756,1.589,1.589,0,0,1,.579-.654,1.945,1.945,0,0,0,.4-.317,2.35,2.35,0,0,1,1.18-.711,1.245,1.245,0,0,0,.837-.75c.164-.364.288-.735.741-.843l-.08-.732c.032-.041.063-.124.121-.152.264-.128.533-.247.805-.355.294-.117.595-.213.891-.325a.8.8,0,0,1,.642.009,2.273,2.273,0,0,0,1.084.161,4.806,4.806,0,0,1,1.672.217,3.122,3.122,0,0,0,2.024.094.327.327,0,0,1,.146-.013,3.517,3.517,0,0,0,1.992-.55,1.59,1.59,0,0,0,.3.155.354.354,0,0,0,.277-.01,2.849,2.849,0,0,1,1.2-.53A1.544,1.544,0,0,0,800.365,14.841Z"/><path class="cls-2" d="M544.627,38.037a4.956,4.956,0,0,0-.244,1.128,1.9,1.9,0,0,1-.15.642,1.984,1.984,0,0,0-.175.761.824.824,0,0,1-.2.566,3.806,3.806,0,0,0-.826,1.6,1.012,1.012,0,0,1-.237.428,3.953,3.953,0,0,0-.405.673c-.1.182-.177.374-.269.56a.371.371,0,0,1-.1.132,2.505,2.505,0,0,0-.59.74,1.426,1.426,0,0,1-.16.19,2.668,2.668,0,0,1-.329.372c-.359.285-.622.662-.964.962a1.189,1.189,0,0,0-.127.106,3.445,3.445,0,0,1-1.542,1,8.671,8.671,0,0,0-1.449.5.2.2,0,0,1-.117.039,1.882,1.882,0,0,0-1.094.3c-.241.1-.461.256-.7.354a2.528,2.528,0,0,0-.6.358c-.264.2-.536.394-.812.579a1.358,1.358,0,0,1-.372.174,1.811,1.811,0,0,0-.88.662,1.107,1.107,0,0,1-.486.365,3.31,3.31,0,0,0-.635.305.774.774,0,0,1-.711.127.206.206,0,0,0-.123,0c-.357.109-.738.115-1.087.259a.973.973,0,0,1-.241.056c-.164.022-.329.039-.494.055a.307.307,0,0,1-.163-.006c-.242-.133-.516-.062-.768-.126-.147-.037-.3-.058-.446-.093a.237.237,0,0,1-.14-.076c-.266-.446-.712-.471-1.156-.5-.1-.007-.2,0-.292-.01a7.918,7.918,0,0,1-.99-.092,2.08,2.08,0,0,1-.838-.333,1.3,1.3,0,0,0-1.26-.192c-.117.042-.234.087-.35.134a.649.649,0,0,1-.6-.045,2.981,2.981,0,0,0-1-.381.307.307,0,0,1-.241-.14c-.174-.308-.511-.361-.79-.5a1.022,1.022,0,0,0-.387-.007.4.4,0,0,0-.261-.32.334.334,0,0,1-.2-.254.78.78,0,0,0-.218-.347,3.877,3.877,0,0,0-.737-.782c-.2-.36-.615-.516-.829-.866a.326.326,0,0,0-.207-.12.355.355,0,0,1-.311-.344,1.145,1.145,0,0,0-.382-.714,3.394,3.394,0,0,1-.245-.33,3.08,3.08,0,0,0-.433-.437.077.077,0,0,0-.038-.016c-.193-.054-.24-.264-.387-.364a2.537,2.537,0,0,1-.425-.253,1.315,1.315,0,0,1-.3-.672,6.4,6.4,0,0,0-.2-.806,2.442,2.442,0,0,1-.166-.464c-.008-.055-.044-.117-.029-.161a.987.987,0,0,0-.065-.647.34.34,0,0,1,0-.2.681.681,0,0,0-.171-.689,10.519,10.519,0,0,1-.747-1.142.692.692,0,0,1-.085-.307,3.917,3.917,0,0,0-.147-.939,1.943,1.943,0,0,1-.057-.532.857.857,0,0,0-.1-.481.38.38,0,0,1-.053-.2c0-.455-.067-.9-.116-1.355a2.275,2.275,0,0,1,.009-.247c0-.083.03-.187-.009-.245a.992.992,0,0,1-.061-.719.892.892,0,0,0-.044-.326.864.864,0,0,1,.007-.491c.086-.306.153-.618.24-.923a.721.721,0,0,0-.01-.448,3.537,3.537,0,0,1-.086-1.238.506.506,0,0,1,.052-.2c.114-.252.235-.5.352-.75s.217-.479.5-.575a.307.307,0,0,0,.18-.216,2.6,2.6,0,0,0,.157-.685,1.341,1.341,0,0,1,.38-.891,2.78,2.78,0,0,0,.607-.923,1.018,1.018,0,0,1,.441-.532,1.657,1.657,0,0,0,.469-.46,5.028,5.028,0,0,1,.476-.713c.106-.1.117-.3.189-.506a.932.932,0,0,0,.4-.814l-.113-.1a1.822,1.822,0,0,0,.621-.8,1.637,1.637,0,0,1,.3-.487c.2-.227.358-.489.547-.724.035-.043.054-.1.1-.134.122-.088.259-.155.378-.246s.208-.231.337-.3a.68.68,0,0,0,.359-.344h.382a.854.854,0,0,0,.548-.138.882.882,0,0,1,.726-.086,1.159,1.159,0,0,0,.613,0,1.624,1.624,0,0,1,.29-.02.416.416,0,0,0,.2-.038,1.662,1.662,0,0,1,.618-.228.331.331,0,0,0,.172-.1.571.571,0,0,1,.471-.217,1.4,1.4,0,0,0,.4-.091,2.689,2.689,0,0,1,.766-.166,4.13,4.13,0,0,0,.726-.157c.094-.023.185-.058.278-.084.413-.116.827-.227,1.238-.349a.855.855,0,0,1,.448-.042.621.621,0,0,0,.243,0,1.19,1.19,0,0,1,.844.116c.115.066.278.05.392.117a1.122,1.122,0,0,0,.8.084,6.706,6.706,0,0,0,.742-.082.74.74,0,0,1,.37.016.977.977,0,0,0,.869-.136.2.2,0,0,1,.34.143.679.679,0,0,0,.46.579,3.092,3.092,0,0,1,.633.466,1.077,1.077,0,0,0,.645.246.758.758,0,0,1,.431.13.706.706,0,0,0,.471.128c.1,0,.194,0,.291,0a.643.643,0,0,1,.207.009,4.438,4.438,0,0,0,.53.226c.172.043.363.019.513.138a1.128,1.128,0,0,0,.584.2,1.413,1.413,0,0,1,.808.366,1.131,1.131,0,0,0,.654.327,1.375,1.375,0,0,1,.971.5.374.374,0,0,0,.326.149c.34-.016.547.23.788.4.047.034.053.124.066.157.293.177.564.337.83.5a.515.515,0,0,1,.146.148.77.77,0,0,0,.453.4.1.1,0,0,1,.064.05c.108.274.358.318.6.363a1.579,1.579,0,0,1,.387.815.372.372,0,0,0,.075.19.348.348,0,0,1,.038.316.724.724,0,0,0,.065.561.745.745,0,0,1,.06.363,1.187,1.187,0,0,0,1.1,1.145l.292.023a.979.979,0,0,1,.192.628,1.587,1.587,0,0,0,.183.8,2.161,2.161,0,0,1,.149.516c.031.134.046.272.064.409a.488.488,0,0,1,.006.2,2.629,2.629,0,0,0-.062.785.787.787,0,0,0,.169.541Z"/><path class="cls-3" d="M72.323,33.388l-.131,9.387H70.243V41.059a6.745,6.745,0,0,1-5.018,2c-2.861-.027-4.473-1.534-4.473-3.927,0-2.756,2.835-3.978,9.179-4.472l.026-1.013c.026-1.821-.183-3.355-3.016-3.355a11.239,11.239,0,0,0-4.993,1.222l-.624-1.95a12.563,12.563,0,0,1,5.8-1.378C71.829,28.188,72.349,30.58,72.323,33.388Zm-2.47,6.085.051-2.912c-4.784.389-6.812,1.065-6.812,2.521,0,1.2.832,1.9,2.444,1.925A6.4,6.4,0,0,0,69.853,39.473Z"/><path class="cls-3" d="M106.486,35.078c0,5.72-2.834,7.956-7.1,7.956a16.036,16.036,0,0,1-5.122-.753V21.454h2.34V27.7l-.208,2.21a7.007,7.007,0,0,1,4.654-1.717C104.588,28.214,106.486,30.684,106.486,35.078Zm-2.366.26c0-3.25-1.143-5.017-3.354-5.044a6.984,6.984,0,0,0-4.16,1.352v8.919a10.937,10.937,0,0,0,2.964.364C102.716,40.929,104.12,39.057,104.12,35.338Z"/><path class="cls-3" d="M126.921,35.781c0-5.174,3.146-7.567,7.125-7.567a11.035,11.035,0,0,1,5.2,1.17l-.676,2.106a9.369,9.369,0,0,0-4.732-1.169c-2.756,0-4.524,1.637-4.524,5.33,0,3.639,1.4,5.278,4.524,5.278A8.907,8.907,0,0,0,138.57,39.6l.624,2.053a10.587,10.587,0,0,1-5.408,1.378C129.418,43.034,126.921,40.643,126.921,35.781Z"/><path class="cls-3" d="M171.954,21.454V42.775h-2.028V41.24a6.885,6.885,0,0,1-4.758,1.821c-3.537-.027-5.435-2.5-5.435-6.891,0-5.72,2.834-7.956,7.1-7.956a17.358,17.358,0,0,1,2.782.208V21.454ZM169.614,39.6V30.684a10.9,10.9,0,0,0-2.965-.363c-3.146,0-4.549,1.872-4.549,5.589,0,3.25,1.143,5.019,3.354,5.044A6.976,6.976,0,0,0,169.614,39.6Z"/><path class="cls-4" d="M195.535,35.651c0,3.639,1.534,5.278,4.55,5.278a9.362,9.362,0,0,0,4.732-1.223l.624,1.95a10.587,10.587,0,0,1-5.408,1.378c-4.238,0-6.864-2.391-6.864-7.253s2.99-7.567,6.734-7.567c4.264,0,6.163,2.652,5.59,7.28h-9.958Zm.182-2.029h7.54c-.052-2.392-1.17-3.38-3.51-3.38A3.812,3.812,0,0,0,195.717,33.622Z"/><path class="cls-3" d="M232.325,25.51c0,1.378.52,2.548.728,4.524h5.616v2.08h-5.538V40.7h5.538v2.08H226.293V40.7h4.5V32.114h-4.5v-2.08h4.42a35.151,35.151,0,0,1-.728-4.394c0-3.224,2.366-4.446,5.33-4.446a10.7,10.7,0,0,1,4.134.728l-.676,2.106a8.157,8.157,0,0,0-3.588-.728C233.365,23.3,232.325,23.768,232.325,25.51Z"/><path class="cls-4" d="M272.885,42.826c0,2.653-2.652,4.889-7.306,4.889-3.8,0-6.058-1.274-6.058-3.614a3.817,3.817,0,0,1,2.027-2.964C259.78,40.773,259,40.1,259,38.718c0-1.2.883-1.976,2.339-2.651a3.739,3.739,0,0,1-1.3-3.017c0-3.042,2.73-4.836,5.928-4.836a7.267,7.267,0,0,1,2.782.52l1.04-3.64h2.5l-1.82,4.966a3.729,3.729,0,0,1,1.274,2.808c0,2.913-2.73,4.447-5.928,4.447a9.067,9.067,0,0,1-2.756-.365c-1.222.52-1.768.962-1.768,1.483,0,.571.493.832,1.715.935l6.085.521C271.533,40.1,272.885,40.851,272.885,42.826Zm-2.392.391c0-.885-.494-1.274-2.288-1.431l-4.681-.389a3.158,3.158,0,0,0-1.611,2.34c0,1.091.909,2,3.8,2C269.245,45.739,270.493,44.439,270.493,43.217Zm-8.087-10.323c0,1.717,1.145,2.627,3.459,2.627,2.47,0,3.51-1.093,3.51-2.549,0-1.716-1.144-2.781-3.458-2.781C263.446,30.191,262.406,31.308,262.406,32.894Z"/><path class="cls-3" d="M304.5,32.92v9.855H302.16V33.258c0-2.105-.858-2.964-2.6-2.964a7.166,7.166,0,0,0-4.16,1.352V42.775h-2.34V21.454h2.34V27.7l-.208,2.235a7.046,7.046,0,0,1,4.654-1.742C303.149,28.188,304.5,29.878,304.5,32.92Z"/><path class="cls-4" d="M338.3,40.7v2.08H325.924V40.7H331.2V30.554h-5.278v-2.08h7.618V40.7Zm-8.528-16.9a2.34,2.34,0,1,1,2.34,2.34A2.33,2.33,0,0,1,329.772,23.794Z"/><path class="cls-3" d="M367.446,28.474v11.44c0,5.149-2.158,7.593-6.812,7.593V45.3c3.068,0,4.472-1.587,4.472-5.772V30.554h-6.059v-2.08Zm1.17-4.68a2.34,2.34,0,1,1-2.34-2.34A2.33,2.33,0,0,1,368.616,23.794Z"/><path class="cls-4" d="M397.4,35.26l-2.263,1.769v5.746H392.8V21.454h2.34V32.062l-.26,2.73,8.5-6.656.025,2.7-4,3.172,4.863,8.763h-2.731Z"/><path class="cls-3" d="M437.411,40.7v2.08H425.035V40.7h5.018V21.454h2.34V40.7Z"/><path class="cls-4" d="M471.263,32.14V42.775h-2.08V33c0-2.106-.208-2.964-1.586-2.964a3.514,3.514,0,0,0-2.262,1.066c.025.312.052.65.052,1.04V42.775h-2.08V33c0-2.106-.208-2.964-1.586-2.964a3.436,3.436,0,0,0-2.211,1.014V42.775h-2.08v-14.3h1.717l.025,1.248a4.1,4.1,0,0,1,3.068-1.534,2.683,2.683,0,0,1,2.679,1.43,4.664,4.664,0,0,1,3.2-1.43C470.223,28.188,471.263,29.359,471.263,32.14Z"/><path class="cls-3" d="M503.243,32.92v9.855H500.9V33.258c0-2.105-.857-2.964-2.6-2.964a7.166,7.166,0,0,0-4.16,1.352V42.775H491.8v-14.3h1.976V30.06a7.077,7.077,0,0,1,4.81-1.872C501.891,28.188,503.243,29.878,503.243,32.92Z"/><path class="cls-4" d="M524.094,35.781c0-4.758,2.73-7.593,6.578-7.593,4.056,0,6.422,2.782,6.422,7.411s-2.73,7.462-6.578,7.462C526.46,43.061,524.094,40.279,524.094,35.781Zm10.634-.052c0-3.407-1.274-5.435-4.108-5.435-2.86,0-4.16,2.08-4.16,5.357s1.274,5.3,4.108,5.3C533.428,40.954,534.728,38.874,534.728,35.729Z"/><path class="cls-3" d="M570.218,35.078c0,5.72-2.834,7.956-7.1,7.956a17.381,17.381,0,0,1-2.783-.208v4.628H558V28.474h1.976V30.06a6.954,6.954,0,0,1,4.81-1.872C568.32,28.214,570.218,30.684,570.218,35.078Zm-2.366.26c0-3.25-1.144-5.017-3.354-5.044a6.987,6.987,0,0,0-4.161,1.352v8.919a10.949,10.949,0,0,0,2.965.364C566.448,40.929,567.852,39.057,567.852,35.338Z"/><path class="cls-4" d="M602.562,25.094v22.36h-2.34v-3.9l.208-2.21a7.013,7.013,0,0,1-4.655,1.716c-3.536-.027-5.434-2.5-5.434-6.891,0-5.72,2.834-7.956,7.1-7.956a19.77,19.77,0,0,1,3.016.234l-.234-3.354ZM600.222,39.6V30.684a10.905,10.905,0,0,0-2.965-.363c-3.146,0-4.55,1.872-4.55,5.589,0,3.25,1.145,5.019,3.355,5.044A6.978,6.978,0,0,0,600.222,39.6Z"/><path class="cls-3" d="M636.413,40.7v2.08H624.037V40.7h3.718V28.474h2.08l-.052,2.756,6.344-3.094.026,2.314L630.1,33.388V40.7Z"/><path class="cls-4" d="M656.979,41.943l.7-2.184a11.018,11.018,0,0,0,5.226,1.2c2.652,0,3.926-.624,3.926-1.95,0-2.886-9.595-1.924-9.595-6.656,0-2.678,2.367-4.134,6.111-4.134a13.3,13.3,0,0,1,5.174,1.014l-.676,2.133a10.127,10.127,0,0,0-4.5-1.067c-2.47,0-3.744.651-3.744,1.794,0,2.782,9.594,1.82,9.594,6.656,0,2.964-2.626,4.29-6.4,4.29A13.546,13.546,0,0,1,656.979,41.943Z"/><path class="cls-3" d="M702.453,41.916a10.525,10.525,0,0,1-4.914,1.118c-3.9,0-4.6-2.131-4.551-5.2l.157-7.28h-3.511v-2.08h3.536l.079-3.38h2.418l-.442,3.38h6.708v2.08h-6.4l-.157,7.02c-.051,1.821.183,3.355,2.237,3.355a9.307,9.307,0,0,0,4.212-.963Z"/><path class="cls-4" d="M735,28.474v14.3h-1.976V41.189a7.077,7.077,0,0,1-4.81,1.872c-3.3,0-4.654-1.691-4.654-4.733V28.474h2.34V37.99c0,2.107.858,2.964,2.6,2.964a7.164,7.164,0,0,0,4.16-1.351V28.474Z"/><path class="cls-3" d="M769.168,28.474l-5.018,14.3h-3.38l-5.018-14.3h2.522l2.886,8.555,1.066,3.666h.6l1.066-3.666,2.886-8.555Z"/><path class="cls-4" d="M803.332,28.474l-2.5,14.3H797.69L796,33.18l-.286-2.626h-.234l-.287,2.626-1.69,9.595h-3.171l-2.5-14.3h2.209l1.535,9.335.312,2.886h.312l.285-2.861,1.535-9.36H797.3l1.534,9.36.286,2.861h.286l.312-2.834,1.534-9.387Z"/><path class="cls-3" d="M828.811,36.586h-.286L824.7,42.775h-2.574l4.888-7.489-4.81-6.812h2.574l3.822,5.591h.338l3.822-5.591h2.445l-4.81,6.761,4.887,7.54h-2.573Z"/><path class="cls-3" d="M863,45.374h4.108v2.08H856.553v-2.08h4.108V42.489l-5.538-14.015h2.522l2.99,7.774,1.014,3.225h.52l1.04-3.225,2.938-7.774h2.392L863,42.489Z"/><path class="cls-3" d="M901.169,40.7v2.08H888.9v-2.6l9.386-9.621h-9.127v-2.08h11.753v2.6L891.523,40.7Z"/><path class="cls-5" d="M183.284,51.665c.1,0,.2.009.3.013a3.543,3.543,0,0,0-.134-.762,1.03,1.03,0,0,1-.006-.342c.044-.532.059-1.068.143-1.594a10.991,10.991,0,0,0,.012-3.519,5.731,5.731,0,0,1,.008-1.141c.015-.457.058-.913.066-1.369a6.182,6.182,0,0,1-.018-1.144,10,10,0,0,0,.064-2.286,10.593,10.593,0,0,1,.066-1.139,6.767,6.767,0,0,0,.165-1.809,4.838,4.838,0,0,1-.069-.834,5.012,5.012,0,0,0-.84.07,6.763,6.763,0,0,1-1.809-.165,10.608,10.608,0,0,0-1.139-.066c-.353,0-.705.025-1.056.032-.014.238-.035.477-.031.716A41.257,41.257,0,0,0,179,40.561a3.285,3.285,0,0,1-.061.452c-.011.224,0,.449,0,.674a3.428,3.428,0,0,1-.028.787A8.592,8.592,0,0,0,178.8,45.1a11.529,11.529,0,0,1-.028,3.088,2.684,2.684,0,0,0,.018.686c.033.65.089,1.3.1,1.95.005.272.005.544.008.815a.53.53,0,0,0,.145.021A41.257,41.257,0,0,1,183.284,51.665Z"/><path class="cls-5" d="M183.284,30.865c.181,0,.362.014.542.023a7.91,7.91,0,0,1,.1-1.348,4.867,4.867,0,0,0-.119-2.154,5.227,5.227,0,0,1-.135-2.27c.053-.337.048-.683.069-1.025.022-.381.045-.76.071-1.14.053-.913.134-1.824.157-2.738a13.355,13.355,0,0,0-.094-1.719,13.219,13.219,0,0,0-.038-1.819,5.6,5.6,0,0,1,.081-1.7c.031-.341.1-.679.132-1.021a1.277,1.277,0,0,0-1.193-1.482c-.947-.178-1.92-.03-2.864-.207-.216.04-.429.086-.66.134a12.484,12.484,0,0,0-.356,3.564,13.854,13.854,0,0,1,.087,2.635,16.746,16.746,0,0,0-.023,2.4,18.8,18.8,0,0,1,.086,2.636,18.158,18.158,0,0,0-.041,2.4c.013.455-.045.911-.073,1.366a20.081,20.081,0,0,0-.125,3.2c.008.079.007.158.013.236a.542.542,0,0,0,.146.021A41.257,41.257,0,0,1,183.284,30.865Z"/><path class="cls-5" d="M183.037,56.609a6.763,6.763,0,0,1-1.809-.165,10.608,10.608,0,0,0-1.139-.066c-.417.006-.833.027-1.248.024a6.5,6.5,0,0,0,0,2.347c.1.33-.127.753-.1,1.126.122,1.787.061,3.572.053,5.358,0,.266-.015.534-.031.8a9.427,9.427,0,0,0-.063,1.252,7.463,7.463,0,0,1-.173,2.39,2.47,2.47,0,0,0,.005.895c.074.611.143,1.227.186,1.842a1.132,1.132,0,0,0,.331.045,41.257,41.257,0,0,1,4.235.007c.115,0,.23.011.344.014a1.242,1.242,0,0,0,.061-.434,24.588,24.588,0,0,0-.4-4.56,3.348,3.348,0,0,1-.013-1.131,15.234,15.234,0,0,0,.175-2.965A6.588,6.588,0,0,1,183.6,61a14.618,14.618,0,0,0-.048-2.822c0-.036-.026-.071-.038-.108a4,4,0,0,1-.173-1.485C183.239,56.6,183.14,56.59,183.037,56.609Z"/><path class="cls-5" d="M840.975,43.865c-.1,0-.2.009-.3.013a3.545,3.545,0,0,1,.135-.762,1.03,1.03,0,0,0,0-.342c-.043-.532-.058-1.068-.142-1.594a10.991,10.991,0,0,1-.013-3.519,5.656,5.656,0,0,0-.008-1.141c-.015-.457-.058-.913-.066-1.369a6.182,6.182,0,0,0,.018-1.144,10,10,0,0,1-.063-2.286,10.857,10.857,0,0,0-.066-1.139,6.726,6.726,0,0,1-.165-1.809,4.937,4.937,0,0,0,.068-.834,5.032,5.032,0,0,1,.841.07,6.77,6.77,0,0,0,1.809-.165,10.578,10.578,0,0,1,1.139-.066c.352.005.7.025,1.056.032.014.238.034.477.03.716a41.257,41.257,0,0,1,.008,4.235,3.138,3.138,0,0,0,.061.452c.01.224,0,.449,0,.674a3.319,3.319,0,0,0,.028.787,8.56,8.56,0,0,1,.106,2.624,11.529,11.529,0,0,0,.028,3.088,2.684,2.684,0,0,1-.018.686c-.033.65-.088,1.3-.1,1.95,0,.272,0,.544-.009.815a.524.524,0,0,1-.145.021A41.257,41.257,0,0,0,840.975,43.865Z"/><path class="cls-5" d="M840.975,23.065c-.18,0-.362.014-.542.023a7.809,7.809,0,0,0-.1-1.348,4.867,4.867,0,0,1,.12-2.154,5.227,5.227,0,0,0,.134-2.27c-.053-.337-.048-.683-.068-1.025-.023-.381-.046-.76-.071-1.14-.054-.913-.135-1.824-.158-2.738a13.537,13.537,0,0,1,.094-1.719,13.379,13.379,0,0,1,.038-1.819,5.6,5.6,0,0,0-.081-1.7c-.03-.341-.1-.679-.132-1.021A1.278,1.278,0,0,1,841.4,4.674c.947-.178,1.92-.03,2.864-.207.216.04.43.086.661.134a12.447,12.447,0,0,1,.355,3.564,13.854,13.854,0,0,0-.086,2.635,16.892,16.892,0,0,1,.023,2.4,18.646,18.646,0,0,0-.087,2.636,17.989,17.989,0,0,1,.041,2.4c-.013.455.046.911.074,1.366a20.08,20.08,0,0,1,.124,3.2c-.008.079-.006.158-.013.236a.537.537,0,0,1-.146.021A41.257,41.257,0,0,0,840.975,23.065Z"/><path class="cls-5" d="M841.223,48.809a6.77,6.77,0,0,0,1.809-.165,10.578,10.578,0,0,1,1.139-.066c.416.006.832.027,1.247.024a6.5,6.5,0,0,1,0,2.347c-.1.33.127.753.1,1.126-.122,1.787-.061,3.572-.054,5.358,0,.266.016.534.031.8a9.427,9.427,0,0,1,.063,1.252,7.492,7.492,0,0,0,.173,2.39,2.47,2.47,0,0,1,0,.9c-.074.611-.142,1.227-.185,1.842a1.139,1.139,0,0,1-.332.045,41.257,41.257,0,0,0-4.235.007c-.114,0-.23.011-.344.014a1.266,1.266,0,0,1-.061-.434,24.5,24.5,0,0,1,.4-4.56,3.374,3.374,0,0,0,.012-1.131,15.234,15.234,0,0,1-.175-2.965,6.588,6.588,0,0,0-.144-2.39,14.46,14.46,0,0,1,.048-2.822c0-.036.025-.071.038-.108a4.016,4.016,0,0,0,.173-1.485C841.021,48.8,841.12,48.79,841.223,48.809Z"/><path class="cls-5" d="M845.71,79.408a1.084,1.084,0,0,0-.113-.478.417.417,0,0,1-.039-.283,1.023,1.023,0,0,0-.062-.573c-.046-.118-.066-.246-.114-.362a.357.357,0,0,1,0-.306.939.939,0,0,0,.038-.257,1.5,1.5,0,0,1,.018-.2,2.217,2.217,0,0,0,.022-.7c0-.024.013-.044.012-.068a.523.523,0,0,1,.057.006c.01-.124,0-.249,0-.373a1.572,1.572,0,0,1,.052-.3.257.257,0,0,0,.013-.223.152.152,0,0,1-.008-.11.236.236,0,0,0-.019-.223.473.473,0,0,1-.025-.095c0-.331,0-.663-.021-.994.022-.044.041-.09.065-.132a.393.393,0,0,0,.032-.308.674.674,0,0,1,.027-.457.326.326,0,0,0-.027-.358.44.44,0,0,1-.07-.254c-.065-.047-.123-.1-.192-.148,0-.02,0-.039,0-.059a3.918,3.918,0,0,1,0-.8c.033-.648.07-1.3.106-1.946-.432,0-.864-.014-1.3-.02a10.578,10.578,0,0,0-1.139.066c-.136.013-.273.04-.409.065a15.6,15.6,0,0,0-1.706-.121.8.8,0,0,0-.061.328c.02.08.034.165.049.248a7.737,7.737,0,0,0,.074,1.432,7.651,7.651,0,0,1,.07,1.407l-.015.755c0,.116-.008.233-.007.347,0,.675-.011,1.351,0,2.025,0,.123,0,.249,0,.372,0,.043,0,.087,0,.131l.033-.007a.785.785,0,0,0,.227.386.209.209,0,0,1,.042.14c0,.137-.007.277,0,.415.01.236-.1.467-.031.708a.3.3,0,0,1-.025.148c-.046.144-.091.288-.142.43a.974.974,0,0,1-.094.2c-.194.285-.271.625-.434.923a.178.178,0,0,0-.021.111.7.7,0,0,1-.246.609,3.1,3.1,0,0,0-.391.511,1.01,1.01,0,0,1-.416.365,1.643,1.643,0,0,0-.754.663,1.344,1.344,0,0,1-.226.3c-.216.211-.44.418-.668.616a2.329,2.329,0,0,0-.432.471c-.133.2-.311.366-.447.563a1.7,1.7,0,0,0-.469.921.187.187,0,0,1-.056.1,7.929,7.929,0,0,0-.716,1.2,3.139,3.139,0,0,1-1.18,1.191,1.265,1.265,0,0,0-.118.093c-.331.249-.717.414-1.038.682a2.412,2.412,0,0,1-.394.223,1.284,1.284,0,0,1-.2.108,2.262,2.262,0,0,0-.771.389.383.383,0,0,1-.136.062c-.182.048-.369.082-.549.137a3.582,3.582,0,0,0-.677.233.913.913,0,0,1-.427.134,3.453,3.453,0,0,0-1.581.438.747.747,0,0,1-.545.076,1.813,1.813,0,0,0-.711.015,1.781,1.781,0,0,1-.6.013,4.7,4.7,0,0,0-1.054.007l-.221-.045c.017-.075.017-.15.037-.224a2.647,2.647,0,0,0,.048-.285c-1.236-.173-2.484-.139-3.723-.2a17.67,17.67,0,0,0-2.175.132,2.708,2.708,0,0,1-.394.056,30.861,30.861,0,0,0-3.276,0c-1.29.037-2.583-.013-3.875-.014a2.513,2.513,0,0,0-.588.084,7.691,7.691,0,0,1-2.473.109c-.861-.074-1.724-.132-2.586-.164-.461-.018-.923.041-1.384.046-.43,0-.863-.013-1.293-.032a15.815,15.815,0,0,0-1.983.013,7.711,7.711,0,0,1-2.765-.223,2.6,2.6,0,0,0-.978-.058,6.738,6.738,0,0,1-2.262-.013,2.819,2.819,0,0,0-1.574.056,1.428,1.428,0,0,1-.972.01,1.61,1.61,0,0,0-.784-.044,1.666,1.666,0,0,1-.973-.067,1.116,1.116,0,0,0-.49-.057c-.657.045-1.315.107-1.974.162-.1.009-.214.053-.291.017-.454-.218-.911-.041-1.368-.054a4.867,4.867,0,0,1-1.767-.082.952.952,0,0,0-.4-.017c-.724.046-1.45.1-2.174.145-.288.018-.288.008-.89-.455a2.679,2.679,0,0,1-.642.377,5.387,5.387,0,0,1-.789.03,9.266,9.266,0,0,1-2.376.038,3.94,3.94,0,0,1-.781-.139,2.874,2.874,0,0,0-.972-.052,8.6,8.6,0,0,1-2.553-.047,1.107,1.107,0,0,0-.493-.023c-.784.131-1.575.187-2.366.257a11.868,11.868,0,0,1-1.685.043c-.231-.011-.463.014-.694.023-.131,0-.306.066-.385,0-.54-.42-1.141-.188-1.722-.218-.424-.023-.843-.209-1.264-.21s-.787.258-1.237.288a7.467,7.467,0,0,1-2.56-.094,1.882,1.882,0,0,0-.881.083,1.941,1.941,0,0,1-1.167-.046,1.608,1.608,0,0,0-1.352.043c-.086.046-.207.12-.274.092-.687-.279-1.378.068-2.07-.032a3.159,3.159,0,0,0-1.481.033.187.187,0,0,1-.1.01,6.261,6.261,0,0,0-2.249-.117c-.555-.265-1.194.083-1.745-.236a.321.321,0,0,0-.283.036,2.014,2.014,0,0,1-1.347.212,2.852,2.852,0,0,0-.692.043,2.093,2.093,0,0,1-1.076-.057,2.313,2.313,0,0,0-.872-.078,7.3,7.3,0,0,1-1.769.068,7.669,7.669,0,0,0-1.875.063,3.871,3.871,0,0,1-1.069-.054,3.723,3.723,0,0,0-2.707.227,2.05,2.05,0,0,1-1.56,0,5.919,5.919,0,0,0-2.357-.208.865.865,0,0,1-.389-.049,2.143,2.143,0,0,0-1.076-.018c-.588.086-1.184.114-1.779.145-.264.014-.529-.041-.795-.038-.462,0-.924.026-1.386.036a1.191,1.191,0,0,1-.489-.012,2.5,2.5,0,0,0-1.56-.071,3.43,3.43,0,0,1-.795-.022,8.179,8.179,0,0,0-2.182.023,4.923,4.923,0,0,1-.794-.012,5.53,5.53,0,0,0-1.079.107,5.061,5.061,0,0,1-1.579.121c-1.657-.113-3.314-.223-4.973-.311-.461-.025-.924.033-1.385.045-.3.008-.6.014-.894,0a7.28,7.28,0,0,0-2.084.033,2.047,2.047,0,0,1-.594-.011,19.914,19.914,0,0,0-2.859.007c-.361.026-.73-.046-1.093-.047-.4,0-.791.026-1.187.044a1.18,1.18,0,0,1-.394.019,6.471,6.471,0,0,0-2.45,0,6.182,6.182,0,0,1-2.266-.172.864.864,0,0,0-.677.008,2.453,2.453,0,0,1-1.367.155,15.493,15.493,0,0,0-3.763.121,3.512,3.512,0,0,1-.7-.005c-.9-.052-1.79-.116-2.686-.165a19.541,19.541,0,0,0-2.082,0,14.812,14.812,0,0,1-2.667-.207,2.182,2.182,0,0,0-.777-.01,6.5,6.5,0,0,1-2.073.137,7.794,7.794,0,0,0-1.088.047c-.231.012-.464.022-.7.021-1.55,0-3.1.039-4.646-.079-.325-.024-.692.175-.979.081a6.617,6.617,0,0,0-2.157-.007,3.146,3.146,0,0,1-.58-.069,4.442,4.442,0,0,0-1.776-.027,9.538,9.538,0,0,1-2.364.1c-.565-.015-1.127-.066-1.691-.1a2.487,2.487,0,0,0-.6-.019,9.98,9.98,0,0,1-2.68.006,7.5,7.5,0,0,0-2.277.076,2.913,2.913,0,0,1-.681.019c-.2,0-.391-.015-.586-.009a2.5,2.5,0,0,1-.393.052,36.02,36.02,0,0,0-3.674-.019c-.395-.01-.791.031-1.189.041-.3.01-.6.025-.892.009-.962-.051-1.927-.08-2.884-.182a8.3,8.3,0,0,0-1.374-.01,4.679,4.679,0,0,0,.261.392.164.164,0,0,1,.012.022c-.083.008-.166.017-.25.023a2.708,2.708,0,0,1-.394.056,30.861,30.861,0,0,0-3.276,0c-1.29.037-2.583-.013-3.875-.014a2.513,2.513,0,0,0-.588.084,7.691,7.691,0,0,1-2.473.109c-.861-.074-1.724-.132-2.586-.164-.461-.018-.923.041-1.384.046-.43,0-.863-.013-1.293-.032a15.815,15.815,0,0,0-1.983.013,7.711,7.711,0,0,1-2.765-.223,2.6,2.6,0,0,0-.978-.058,6.738,6.738,0,0,1-2.262-.013,2.819,2.819,0,0,0-1.574.056,1.428,1.428,0,0,1-.972.01,1.61,1.61,0,0,0-.784-.044,1.666,1.666,0,0,1-.973-.067,1.116,1.116,0,0,0-.49-.057c-.657.045-1.315.107-1.974.162-.1.009-.214.053-.291.017-.454-.218-.911-.041-1.368-.054a4.867,4.867,0,0,1-1.767-.082.952.952,0,0,0-.4-.017c-.724.046-1.45.1-2.174.145-.288.018-.288.008-.89-.455a2.679,2.679,0,0,1-.642.377,5.387,5.387,0,0,1-.789.03,9.266,9.266,0,0,1-2.376.038,3.94,3.94,0,0,1-.781-.139,2.874,2.874,0,0,0-.972-.052,8.6,8.6,0,0,1-2.553-.047,1.107,1.107,0,0,0-.493-.023c-.784.131-1.575.187-2.366.257a11.868,11.868,0,0,1-1.685.043c-.231-.011-.463.014-.694.023-.131,0-.306.066-.385,0-.54-.42-1.141-.188-1.722-.218-.424-.023-.843-.209-1.264-.21s-.787.258-1.237.288a7.467,7.467,0,0,1-2.56-.094,1.882,1.882,0,0,0-.881.083,1.941,1.941,0,0,1-1.167-.046,1.608,1.608,0,0,0-1.352.043c-.086.046-.207.12-.274.092-.687-.279-1.378.068-2.07-.032a3.159,3.159,0,0,0-1.481.033.187.187,0,0,1-.1.01,6.261,6.261,0,0,0-2.249-.117c-.555-.265-1.194.083-1.745-.236a.321.321,0,0,0-.283.036,2.014,2.014,0,0,1-1.347.212,2.852,2.852,0,0,0-.692.043,2.093,2.093,0,0,1-1.076-.057,2.313,2.313,0,0,0-.872-.078,7.3,7.3,0,0,1-1.769.068,7.669,7.669,0,0,0-1.875.063,3.871,3.871,0,0,1-1.069-.054,3.723,3.723,0,0,0-2.707.227,2.05,2.05,0,0,1-1.56,0,5.919,5.919,0,0,0-2.357-.208.865.865,0,0,1-.389-.049,2.143,2.143,0,0,0-1.076-.018c-.588.086-1.184.114-1.779.145-.264.014-.529-.041-.795-.038-.462,0-.924.026-1.386.036a1.191,1.191,0,0,1-.489-.012,2.5,2.5,0,0,0-1.56-.071,3.43,3.43,0,0,1-.795-.022,8.179,8.179,0,0,0-2.182.023,4.923,4.923,0,0,1-.794-.012,5.53,5.53,0,0,0-1.079.107,5.061,5.061,0,0,1-1.579.121c-1.657-.113-3.314-.223-4.973-.311-.461-.025-.924.033-1.385.045-.3.008-.6.014-.894,0a7.28,7.28,0,0,0-2.084.033,2.047,2.047,0,0,1-.594-.011,19.914,19.914,0,0,0-2.859.007c-.361.026-.73-.046-1.093-.047-.4,0-.791.026-1.187.044a1.18,1.18,0,0,1-.394.019,6.471,6.471,0,0,0-2.45,0,6.182,6.182,0,0,1-2.266-.172.864.864,0,0,0-.677.008,2.453,2.453,0,0,1-1.367.155,15.493,15.493,0,0,0-3.763.121,3.512,3.512,0,0,1-.7-.005c-.9-.052-1.79-.116-2.686-.165a19.541,19.541,0,0,0-2.082,0,14.812,14.812,0,0,1-2.667-.207,2.182,2.182,0,0,0-.777-.01,6.5,6.5,0,0,1-2.073.137,7.794,7.794,0,0,0-1.088.047c-.231.012-.464.022-.7.021-1.55,0-3.1.039-4.646-.079-.325-.024-.692.175-.979.081a6.617,6.617,0,0,0-2.157-.007,3.146,3.146,0,0,1-.58-.069,4.442,4.442,0,0,0-1.776-.027,9.538,9.538,0,0,1-2.364.1c-.565-.015-1.127-.066-1.691-.1a2.487,2.487,0,0,0-.595-.019,9.98,9.98,0,0,1-2.68.006,7.5,7.5,0,0,0-2.277.076,2.913,2.913,0,0,1-.681.019c-.2,0-.391-.015-.586-.009a2.5,2.5,0,0,1-.393.052,36.02,36.02,0,0,0-3.674-.019c-.395-.01-.791.031-1.189.041-.11,0-.22,0-.332,0a.947.947,0,0,1-.1-.282c-.024-.295-.263-.406-.485-.231a1.257,1.257,0,0,1-1.238.219.941.941,0,0,0-.527-.025,8.324,8.324,0,0,1-1.056.132c-.039.006-.075,0-.114.01-.2-.019-.4,0-.6,0a1.036,1.036,0,0,1-.421-.139c-.161-.11-.394-.083-.558-.19a1.525,1.525,0,0,0-1.2-.186.781.781,0,0,1-.347,0,1.081,1.081,0,0,0-.639.067c-.584.2-1.174.374-1.762.561-.133.042-.261.1-.4.136a5.384,5.384,0,0,1-1.033.252,3.436,3.436,0,0,0-1.093.268,1.787,1.787,0,0,1-.57.145.787.787,0,0,0-.672.35.469.469,0,0,1-.245.167,2.2,2.2,0,0,0-.88.367.56.56,0,0,1-.287.061,2,2,0,0,0-.412.031,1.464,1.464,0,0,1-.874,0,1.131,1.131,0,0,0-1.033.14,1.128,1.128,0,0,1-.782.222c-.175,0-.352,0-.543,0a1.052,1.052,0,0,1-.511.554c-.184.1-.312.33-.481.477s-.364.255-.538.4c-.061.049-.088.147-.136.217-.27.378-.487.8-.779,1.165a2.643,2.643,0,0,0-.431.785,2.928,2.928,0,0,1-.885,1.3l.16.154a1.568,1.568,0,0,1-.572,1.31,2.5,2.5,0,0,1-.268.815,8.026,8.026,0,0,0-.678,1.146,2.51,2.51,0,0,1-.669.74,1.615,1.615,0,0,0-.629.859,4.585,4.585,0,0,1-.863,1.484,2.3,2.3,0,0,0-.542,1.436,4.659,4.659,0,0,1-.225,1.1.471.471,0,0,1-.256.346c-.4.155-.547.543-.707.927-.167.4-.339.8-.5,1.206a.877.877,0,0,0-.073.317,6.378,6.378,0,0,0,.122,1.993,1.311,1.311,0,0,1,.014.722c-.125.492-.22.994-.342,1.486a1.578,1.578,0,0,0-.01.79,1.6,1.6,0,0,1,.063.525,1.79,1.79,0,0,0,.087,1.157c.056.094.015.262.012.395s-.024.266-.012.4c.069.726.157,1.45.165,2.182a.663.663,0,0,0,.076.317,1.545,1.545,0,0,1,.14.774,3.4,3.4,0,0,0,.08.857,6.971,6.971,0,0,1,.209,1.511,1.217,1.217,0,0,0,.122.495,17.37,17.37,0,0,0,1.064,1.838,1.193,1.193,0,0,1,.243,1.108.625.625,0,0,0,0,.327,1.78,1.78,0,0,1,.093,1.039c-.023.073.029.172.041.259a4.124,4.124,0,0,0,.236.748,11.124,11.124,0,0,1,.28,1.3,2.283,2.283,0,0,0,.424,1.083,3.693,3.693,0,0,0,.605.406c.209.161.276.5.552.585a.116.116,0,0,1,.053.027,4.716,4.716,0,0,1,.617.7,5.652,5.652,0,0,0,.349.531,1.926,1.926,0,0,1,.544,1.15.551.551,0,0,0,.444.553.465.465,0,0,1,.295.193c.3.564.9.815,1.18,1.394a6,6,0,0,1,1.051,1.26,1.3,1.3,0,0,1,.31.558.53.53,0,0,0,.282.409.63.63,0,0,1,.372.514c.208,0,.41-.065.551.013.4.221.877.307,1.125.8a.427.427,0,0,0,.344.225,3.99,3.99,0,0,1,1.429.614.834.834,0,0,0,.855.072c.165-.074.33-.148.5-.215a1.688,1.688,0,0,1,1.794.308,2.75,2.75,0,0,0,1.193.536,10.031,10.031,0,0,0,1.41.15c.139.011.278,0,.415.015.634.05,1.269.09,1.648.809a.327.327,0,0,0,.2.121c.21.058.425.091.634.151.361.1.749-.012,1.095.2a.411.411,0,0,0,.232.009c.235-.026.471-.054.7-.089a1.306,1.306,0,0,0,.342-.089,14.765,14.765,0,0,1,1.549-.418.263.263,0,0,1,.175,0,1,1,0,0,0,1.012-.2,4.442,4.442,0,0,1,.9-.491,1.618,1.618,0,0,0,.693-.588A2.641,2.641,0,0,1,488.9,138.4a1.833,1.833,0,0,0,.531-.281c.394-.3.781-.607,1.157-.932a3.61,3.61,0,0,1,.859-.576c.345-.158.658-.4,1-.569a2.444,2.444,0,0,1,1.559-.477.275.275,0,0,0,.168-.064,11.612,11.612,0,0,1,2.062-.8,4.908,4.908,0,0,0,2.2-1.607,1.32,1.32,0,0,1,.18-.17c.486-.483.862-1.091,1.373-1.549a4.209,4.209,0,0,0,.469-.6,2.163,2.163,0,0,0,.227-.306,3.994,3.994,0,0,1,.841-1.19.639.639,0,0,0,.139-.213c.131-.3.244-.61.384-.9a6.579,6.579,0,0,1,.576-1.084,1.7,1.7,0,0,0,.339-.688,6.417,6.417,0,0,1,1.176-2.574,1.445,1.445,0,0,0,.29-.913,3.569,3.569,0,0,1,.249-1.225,3.339,3.339,0,0,0,.213-1.034,8.991,8.991,0,0,1,.349-1.815v-9.391a1.377,1.377,0,0,1-.241-.871,4.825,4.825,0,0,1,.088-1.263.873.873,0,0,0-.008-.329c-.025-.221-.047-.443-.091-.659a3.785,3.785,0,0,0-.213-.83,2.827,2.827,0,0,1-.261-1.287,1.712,1.712,0,0,0-.273-1.011l-.415-.038a1.82,1.82,0,0,1-1.57-1.843,1.339,1.339,0,0,0-.085-.584,1.3,1.3,0,0,1-.094-.9.618.618,0,0,0-.054-.508.658.658,0,0,1-.107-.306,2.692,2.692,0,0,0-.551-1.311c-.35-.074-.706-.145-.86-.586a.15.15,0,0,0-.091-.08c-.321-.082-.481-.364-.646-.646a.793.793,0,0,0-.207-.237c-.38-.269-.766-.527-1.182-.813-.018-.052-.028-.2-.094-.251-.344-.282-.639-.678-1.124-.653a.5.5,0,0,1-.463-.24,1.953,1.953,0,0,0-.436-.4,3.009,3.009,0,0,0,.959-.047,5.783,5.783,0,0,1,2.077-.11,13.1,13.1,0,0,0,2.572-.136,2.948,2.948,0,0,1,.98.019,21.372,21.372,0,0,0,3.955.375,1.934,1.934,0,0,0,.585-.106,14.971,14.971,0,0,1,2.546-.184,30.614,30.614,0,0,0,3.074-.023,13.739,13.739,0,0,1,2.177-.026,23.143,23.143,0,0,0,2.567,0,14.645,14.645,0,0,1,2.084-.006,14.444,14.444,0,0,0,2.977.022,12.256,12.256,0,0,1,1.881-.062.966.966,0,0,1,.288.065,4.473,4.473,0,0,0,2.358.061,5.4,5.4,0,0,1,1.78-.1,5,5,0,0,0,1.686-.034,2.508,2.508,0,0,1,.693-.007,15.25,15.25,0,0,0,2.483,0,10.511,10.511,0,0,1,1.886.082,6.866,6.866,0,0,0,1.983-.029,1.681,1.681,0,0,1,.791.019,12.1,12.1,0,0,0,2.366.133c.294.019.592-.071.888-.063a7.438,7.438,0,0,1,1.967-.014,2.779,2.779,0,0,0,1.175-.084,6.084,6.084,0,0,1,3.329.308,4.437,4.437,0,0,1,1.724-.383,23.1,23.1,0,0,1,2.977,0c.2.007.392-.056.59-.068a2.717,2.717,0,0,1,.89-.007,11.637,11.637,0,0,0,3.145.11c.1,0,.245-.044.286,0,.457.519.921.105,1.382.03a1.009,1.009,0,0,1,.158.009c.416.842,1.329.776,2.09,1.021l.812-.373c-.04-.234-.07-.417-.1-.6,1.2-.309,1.449-.249,1.755.448l.769-.115c-.026-.177-.045-.3-.062-.413a.772.772,0,0,1,.142-.135.892.892,0,0,1,.773-.013,2.684,2.684,0,0,0,1.562.1,2.915,2.915,0,0,1,1.474.11,3.444,3.444,0,0,0,.778.151,1.487,1.487,0,0,1,1.046.4,1.848,1.848,0,0,0,1.517.314c.328-.036.652-.106,1.059-.173l-.49-.557c.119-.055.231-.155.316-.136a4.395,4.395,0,0,0,2.243-.081,4.533,4.533,0,0,1,2.439.18,9.225,9.225,0,0,0,3.14.155,1.651,1.651,0,0,1,.882,0,.459.459,0,0,0,.373-.055.659.659,0,0,1,.9,0,.691.691,0,0,0,.459.084,3.447,3.447,0,0,1,1.374.144,3.389,3.389,0,0,0,.979.081c.457,0,.914-.048,1.464-.08.208-.364.6-.387,1.047-.2.274.12.542.249.823.348a1.9,1.9,0,0,0,1.35.151.569.569,0,0,1,.477.05c.382.327.936.331,1.278.739a1.161,1.161,0,0,0,.816.315,11.67,11.67,0,0,1,2.47.261.538.538,0,0,0,.374-.075,1.768,1.768,0,0,1,1.45-.037,4.29,4.29,0,0,0,2.159.132,1.313,1.313,0,0,1,.965.125,1.744,1.744,0,0,0,1.7-.027.964.964,0,0,1,.942-.054c.819.493,1.585.166,2.477-.037-.129-.215-.179-.39-.292-.46a4.1,4.1,0,0,0-.721-.311c-.306-.112-.619-.207-.913-.305,0-.316.188-.313.33-.261.556.208,1.105.439,1.653.665a1.673,1.673,0,0,0,.443.2,10.41,10.41,0,0,0,1.985.059,5.246,5.246,0,0,0,2.019-.463.911.911,0,0,1,.772.037,3.124,3.124,0,0,0,1.67.07,1.415,1.415,0,0,0,.88-.4c.168-.2.4-.216.674.005l-.191.282c.023.029.056.1.093.106.8.058,1.591.134,2.387.148a9.815,9.815,0,0,0,1.3-.148c.12-.288.23-.553.334-.807,1.159.072,2.279-.014,3.395.109a.489.489,0,0,0,.292-.033,1.213,1.213,0,0,1,1.309.023,1.151,1.151,0,0,0,1.14-.124,3.437,3.437,0,0,1,1.619-.384,1.644,1.644,0,0,0,.68-.077,2.364,2.364,0,0,1,1.356-.191c.726.021,1.457-.006,2.182.045a9.617,9.617,0,0,1,1.26.259,1.872,1.872,0,0,0,.772.115,1.47,1.47,0,0,1,1.366.424,4.367,4.367,0,0,0,1.5.761,1.011,1.011,0,0,0,.278-.116,1.288,1.288,0,0,1,1.736-.071,1.825,1.825,0,0,0,1.693.267c.284-.087.587-.116.874-.2a1.349,1.349,0,0,1,.969.019,1.671,1.671,0,0,0,1.168-.005,2.628,2.628,0,0,1,1.269-.067,2.428,2.428,0,0,0,1.453-.173,2.307,2.307,0,0,1,.765-.149,14.433,14.433,0,0,1,1.485-.044,1.9,1.9,0,0,1,.757.192,2.167,2.167,0,0,0,1.739.048c.345-.111.7-.19,1.048-.288a6.783,6.783,0,0,1,2.736.247,6.827,6.827,0,0,0,3.207,0c.029-.187.053-.438.114-.68a4.008,4.008,0,0,1,.143-.416c.3-.025.6-.052.906-.074a.842.842,0,0,1,.3.007,10.24,10.24,0,0,0,2.467.124,9.054,9.054,0,0,0,1.874-.152,3.852,3.852,0,0,1,1.865.127c.031.011.062.035.092.034a12.837,12.837,0,0,0,2.448.058,5.783,5.783,0,0,1,2.077-.11,13.1,13.1,0,0,0,2.572-.136,2.948,2.948,0,0,1,.98.019,21.372,21.372,0,0,0,3.955.375,1.934,1.934,0,0,0,.585-.106,14.971,14.971,0,0,1,2.546-.184,30.614,30.614,0,0,0,3.074-.023,13.739,13.739,0,0,1,2.177-.026,23.143,23.143,0,0,0,2.567,0,14.645,14.645,0,0,1,2.084-.006,14.444,14.444,0,0,0,2.977.022,12.256,12.256,0,0,1,1.881-.062.966.966,0,0,1,.288.065,4.473,4.473,0,0,0,2.358.061,5.4,5.4,0,0,1,1.78-.1,5,5,0,0,0,1.686-.034,2.508,2.508,0,0,1,.693-.007,15.25,15.25,0,0,0,2.483,0,10.511,10.511,0,0,1,1.886.082,6.866,6.866,0,0,0,1.983-.029,1.681,1.681,0,0,1,.791.019,12.1,12.1,0,0,0,2.366.133c.294.019.592-.071.888-.063a7.438,7.438,0,0,1,1.967-.014,2.779,2.779,0,0,0,1.175-.084,6.084,6.084,0,0,1,3.329.308,4.437,4.437,0,0,1,1.724-.383,23.1,23.1,0,0,1,2.977,0c.2.007.392-.056.59-.068a2.717,2.717,0,0,1,.89-.007,11.637,11.637,0,0,0,3.145.11c.1,0,.245-.044.286,0,.457.519.921.105,1.382.03a1.009,1.009,0,0,1,.158.009c.416.842,1.329.776,2.09,1.021l.812-.373c-.04-.234-.07-.417-.1-.6,1.2-.309,1.449-.249,1.755.448l.769-.115c-.026-.177-.045-.3-.062-.413a.772.772,0,0,1,.142-.135.892.892,0,0,1,.773-.013,2.684,2.684,0,0,0,1.562.1,2.915,2.915,0,0,1,1.474.11,3.444,3.444,0,0,0,.778.151,1.487,1.487,0,0,1,1.046.4,1.848,1.848,0,0,0,1.517.314c.328-.036.652-.106,1.059-.173l-.49-.557c.119-.055.231-.155.316-.136a4.395,4.395,0,0,0,2.243-.081,4.533,4.533,0,0,1,2.439.18,9.225,9.225,0,0,0,3.14.155,1.651,1.651,0,0,1,.882,0,.459.459,0,0,0,.373-.055.659.659,0,0,1,.9,0,.691.691,0,0,0,.459.084,3.447,3.447,0,0,1,1.374.144,3.389,3.389,0,0,0,.979.081c.457,0,.914-.048,1.464-.08.208-.364.6-.387,1.047-.2.274.12.542.249.823.348a1.9,1.9,0,0,0,1.35.151.569.569,0,0,1,.477.05c.382.327.936.331,1.278.739a1.161,1.161,0,0,0,.816.315,11.67,11.67,0,0,1,2.47.261.538.538,0,0,0,.374-.075,1.768,1.768,0,0,1,1.45-.037,4.29,4.29,0,0,0,2.159.132,1.313,1.313,0,0,1,.965.125,1.744,1.744,0,0,0,1.7-.027.964.964,0,0,1,.942-.054c.819.493,1.585.166,2.477-.037-.129-.215-.179-.39-.292-.46a4.1,4.1,0,0,0-.721-.311c-.306-.112-.619-.207-.913-.305,0-.316.188-.313.33-.261.556.208,1.105.439,1.653.665a1.673,1.673,0,0,0,.443.2,10.41,10.41,0,0,0,1.985.059,5.246,5.246,0,0,0,2.019-.463.911.911,0,0,1,.772.037,3.124,3.124,0,0,0,1.67.07,1.415,1.415,0,0,0,.88-.4c.168-.2.4-.216.674.005l-.191.282c.023.029.056.1.093.106.8.058,1.591.134,2.387.148a9.815,9.815,0,0,0,1.3-.148c.12-.288.23-.553.334-.807,1.159.072,2.279-.014,3.395.109a.489.489,0,0,0,.292-.033,1.213,1.213,0,0,1,1.309.023,1.151,1.151,0,0,0,1.14-.124,3.437,3.437,0,0,1,1.619-.384,1.644,1.644,0,0,0,.68-.077,2.364,2.364,0,0,1,1.356-.191c.726.021,1.457-.006,2.182.045a9.617,9.617,0,0,1,1.26.259,1.872,1.872,0,0,0,.772.115,1.47,1.47,0,0,1,1.366.424,4.367,4.367,0,0,0,1.5.761,1.011,1.011,0,0,0,.278-.116,1.288,1.288,0,0,1,1.736-.071,1.825,1.825,0,0,0,1.693.267c.284-.087.587-.116.874-.2a1.349,1.349,0,0,1,.969.019,1.671,1.671,0,0,0,1.168-.005,2.628,2.628,0,0,1,1.269-.067,2.428,2.428,0,0,0,1.453-.173,2.307,2.307,0,0,1,.765-.149,14.433,14.433,0,0,1,1.485-.044,1.9,1.9,0,0,1,.757.192,2.167,2.167,0,0,0,1.739.048c.345-.111.7-.19,1.048-.288a6.783,6.783,0,0,1,2.736.247,7.84,7.84,0,0,0,2.882.074,2.177,2.177,0,0,0,.292.1.217.217,0,0,0,.142,0,.892.892,0,0,1,.4-.019,1.438,1.438,0,0,1,.394.08,1.538,1.538,0,0,0,.835,0,2.139,2.139,0,0,0,.251-.076.783.783,0,0,1,.54,0,1.842,1.842,0,0,0,.866.069,2.568,2.568,0,0,0,.51-.093.585.585,0,0,1,.51.07.766.766,0,0,1,.594-.089.585.585,0,0,0,.438-.111.349.349,0,0,1,.383-.049.454.454,0,0,0,.284.021c.133-.02.269-.025.4-.035.029,0,.062.01.088,0a2.872,2.872,0,0,0,1.01-.43.516.516,0,0,0,.123-.158.367.367,0,0,1,.2-.2,3.042,3.042,0,0,0,.6-.406.755.755,0,0,0,.259-.313.385.385,0,0,1,.364-.245c.116-.007.235-.009.346-.026a1.383,1.383,0,0,0,.551-.135,2.741,2.741,0,0,1,.426-.185c.028-.012.061-.013.082-.031a.984.984,0,0,1,.449-.191.36.36,0,0,0,.146-.087c.161-.141.316-.285.484-.437.076-.006.162-.021.248-.021a.3.3,0,0,0,.28-.179.606.606,0,0,1,.279-.323c.032-.014.048-.059.074-.087.072-.079.141-.16.217-.234a.956.956,0,0,0,.273-.406c.076-.253.172-.31.435-.256a.386.386,0,0,0,.417-.136c.082-.113.218-.078.307-.149s.141-.175.231-.209a1.532,1.532,0,0,0,.479-.323,1.317,1.317,0,0,1,.429-.288.818.818,0,0,0,.388-.38,2.82,2.82,0,0,1,.542-.6,3.631,3.631,0,0,0,.39-.425.334.334,0,0,0,.089-.269.292.292,0,0,1,.161-.291,5.815,5.815,0,0,0,.581-.527.483.483,0,0,0,.119-.261c.053-.217.091-.44.137-.659a1.277,1.277,0,0,1,.37-.678c.173-.167.313-.367.5-.525.074-.064.09-.2.161-.269s.19-.072.244-.139a2.544,2.544,0,0,0,.222-.408,1.188,1.188,0,0,1,.058-.165,1.693,1.693,0,0,0,.253-.74.994.994,0,0,1,.23-.5.633.633,0,0,0,.092-.177c.038-.1.067-.2.1-.3a.406.406,0,0,0,.025-.084c.028-.241.047-.482.082-.722a.706.706,0,0,1,.205-.412c.113-.105.234-.2.382-.326a.845.845,0,0,1,.061-.15.382.382,0,0,0,.029-.255C845.745,79.756,845.717,79.582,845.71,79.408ZM615.518,93.99c-.081-.054-.093-.213-.136-.325.113-.034.255-.132.336-.094.473.214.932.457,1.524.756A3.07,3.07,0,0,1,615.518,93.99Zm169,0c-.081-.054-.093-.213-.136-.325.113-.034.255-.132.336-.094.473.214.932.457,1.524.756A3.07,3.07,0,0,1,784.518,93.99Z"/><path class="cls-5" d="M406.238,109.506a4.037,4.037,0,0,1,.074-1.074.7.7,0,0,0-.008-.279c-.02-.186-.038-.376-.076-.56a3.21,3.21,0,0,0-.182-.706,2.4,2.4,0,0,1-.221-1.094,1.446,1.446,0,0,0-.232-.859c-.122-.012-.237-.021-.353-.033a1.542,1.542,0,0,1-1.31-1.424c0-.05-.027-.091-.025-.143a1.128,1.128,0,0,0-.073-.5,1.109,1.109,0,0,1-.08-.768.525.525,0,0,0-.045-.432.582.582,0,0,1-.092-.26,2.291,2.291,0,0,0-.468-1.116c-.3-.062-.6-.122-.731-.5a.124.124,0,0,0-.077-.068c-.273-.071-.41-.31-.549-.55a.692.692,0,0,0-.177-.2c-.322-.228-.65-.448-1-.69-.016-.045-.023-.168-.08-.215-.037-.029-.073-.061-.108-.094-.249-.223-.486-.478-.847-.459a.436.436,0,0,1-.395-.2A1.61,1.61,0,0,0,398,96.6a1.326,1.326,0,0,1-.793-.447,1.621,1.621,0,0,0-.978-.5,1.264,1.264,0,0,1-.707-.27c-.183-.161-.413-.13-.623-.188a5.305,5.305,0,0,1-.641-.31.668.668,0,0,0-.25-.012c-.118,0-.236,0-.354,0a.774.774,0,0,1-.57-.175.851.851,0,0,0-.522-.178,1.213,1.213,0,0,1-.781-.336,3.776,3.776,0,0,0-.768-.637.921.921,0,0,1-.556-.794c-.02-.25-.223-.345-.412-.195a1.074,1.074,0,0,1-1.053.186.8.8,0,0,0-.447-.023,6.953,6.953,0,0,1-.9.113,1.21,1.21,0,0,1-.966-.114c-.139-.093-.337-.07-.477-.161a1.3,1.3,0,0,0-1.022-.159.663.663,0,0,1-.294,0,.918.918,0,0,0-.542.057c-.5.168-1,.319-1.5.477-.113.036-.223.085-.337.116a4.5,4.5,0,0,1-.878.214,2.925,2.925,0,0,0-.93.229,1.52,1.52,0,0,1-.485.123.667.667,0,0,0-.571.3.394.394,0,0,1-.208.142,1.885,1.885,0,0,0-.748.311.451.451,0,0,1-.244.052,1.849,1.849,0,0,0-.351.027,1.243,1.243,0,0,1-.742,0,.967.967,0,0,0-.88.118.943.943,0,0,1-.663.189h-.464a.873.873,0,0,1-.434.471c-.156.091-.264.281-.408.405s-.309.218-.458.337c-.051.042-.074.126-.115.184-.14.195-.271.4-.4.6a8.288,8.288,0,0,0-1.373.01c-.957.1-1.922.131-2.885.182-.3.016-.6,0-.892-.009-.4-.01-.794-.051-1.188-.041a36.019,36.019,0,0,0-3.674.019,2.507,2.507,0,0,1-.394-.052c-.194-.006-.39.009-.585.009a2.922,2.922,0,0,1-.682-.019,7.493,7.493,0,0,0-2.276-.076,9.98,9.98,0,0,1-2.68-.006,2.5,2.5,0,0,0-.6.019c-.563.034-1.126.085-1.691.1a9.53,9.53,0,0,1-2.363-.1,4.447,4.447,0,0,0-1.777.027,3.136,3.136,0,0,1-.58.069,6.617,6.617,0,0,0-2.157.007c-.287.094-.653-.105-.978-.081-1.548.118-3.1.075-4.647.079-.231,0-.463-.009-.694-.021a7.794,7.794,0,0,0-1.088-.047,6.5,6.5,0,0,1-2.073-.137,2.182,2.182,0,0,0-.777.01,14.816,14.816,0,0,1-2.668.207,19.541,19.541,0,0,0-2.082,0c-.9.049-1.79.113-2.686.165a3.512,3.512,0,0,1-.695,0,15.485,15.485,0,0,0-3.762-.121,2.456,2.456,0,0,1-1.368-.155.862.862,0,0,0-.676-.008,6.183,6.183,0,0,1-2.266.172,6.477,6.477,0,0,0-2.451,0,1.175,1.175,0,0,1-.393-.019c-.4-.018-.791-.047-1.187-.044-.363,0-.733.073-1.093.047a19.915,19.915,0,0,0-2.859-.007,2.049,2.049,0,0,1-.594.011,7.286,7.286,0,0,0-2.085-.033c-.3.012-.6.006-.894,0-.461-.012-.924-.07-1.385-.045-1.659.088-3.316.2-4.973.311a5.063,5.063,0,0,1-1.579-.121,5.514,5.514,0,0,0-1.079-.107,4.909,4.909,0,0,1-.793.012,8.187,8.187,0,0,0-2.183-.023,3.423,3.423,0,0,1-.794.022,2.5,2.5,0,0,0-1.561.071,1.186,1.186,0,0,1-.488.012c-.463-.01-.925-.034-1.387-.036-.265,0-.53.052-.795.038-.6-.031-1.19-.059-1.778-.145a2.147,2.147,0,0,0-1.077.018.861.861,0,0,1-.388.049,5.924,5.924,0,0,0-2.358.208,2.05,2.05,0,0,1-1.56,0,3.723,3.723,0,0,0-2.707-.227,3.869,3.869,0,0,1-1.069.054,7.669,7.669,0,0,0-1.875-.063,7.288,7.288,0,0,1-1.768-.068,2.31,2.31,0,0,0-.872.078,2.1,2.1,0,0,1-1.077.057,2.846,2.846,0,0,0-.692-.043,2.014,2.014,0,0,1-1.347-.212.321.321,0,0,0-.283-.036c-.551.319-1.189-.029-1.744.236a6.265,6.265,0,0,0-2.25.117.187.187,0,0,1-.1-.01,3.159,3.159,0,0,0-1.481-.033c-.692.1-1.383-.247-2.069.032-.068.028-.188-.046-.275-.092a1.608,1.608,0,0,0-1.352-.043,1.938,1.938,0,0,1-1.166.046,1.883,1.883,0,0,0-.881-.083,7.474,7.474,0,0,1-2.561.094c-.449-.03-.821-.288-1.237-.288s-.84.187-1.264.21c-.58.03-1.182-.2-1.722.218-.078.061-.253,0-.384,0-.231-.009-.464-.034-.7-.023a11.854,11.854,0,0,1-1.684-.043c-.791-.07-1.582-.126-2.367-.257a1.1,1.1,0,0,0-.492.023,8.6,8.6,0,0,1-2.553.047,2.879,2.879,0,0,0-.973.052,3.94,3.94,0,0,1-.781.139,9.266,9.266,0,0,1-2.376-.038,5.373,5.373,0,0,1-.788-.03,2.666,2.666,0,0,1-.643-.377c-.6.463-.6.473-.89.455-.723-.045-1.45-.1-2.173-.145a.951.951,0,0,0-.4.017,4.874,4.874,0,0,1-1.768.082c-.457.013-.914-.164-1.368.054-.076.036-.193-.008-.291-.017-.659-.055-1.316-.117-1.974-.162a1.116,1.116,0,0,0-.49.057,1.663,1.663,0,0,1-.972.067,1.614,1.614,0,0,0-.785.044,1.425,1.425,0,0,1-.971-.01,2.819,2.819,0,0,0-1.574-.056A6.744,6.744,0,0,1,226.1,97a2.594,2.594,0,0,0-.977.058,7.713,7.713,0,0,1-2.765.223,15.818,15.818,0,0,0-1.983-.013c-.431.019-.864.035-1.294.032-.461-.005-.923-.064-1.384-.046-.862.032-1.725.09-2.586.164a7.692,7.692,0,0,1-2.473-.109,2.513,2.513,0,0,0-.588-.084c-1.292,0-2.584.051-3.874.014a30.88,30.88,0,0,0-3.277,0,2.714,2.714,0,0,1-.393-.056,17.682,17.682,0,0,0-2.175-.132c-1.239.063-2.487.029-3.724.2a2.648,2.648,0,0,0,.049.285c.02.074.02.149.036.224l-.221.045a4.692,4.692,0,0,0-1.053-.007,1.787,1.787,0,0,1-.6-.013,1.813,1.813,0,0,0-.711-.015.744.744,0,0,1-.544-.076,3.461,3.461,0,0,0-1.582-.438.913.913,0,0,1-.427-.134,3.6,3.6,0,0,0-.676-.233c-.181-.055-.367-.089-.55-.137a.383.383,0,0,1-.136-.062,2.258,2.258,0,0,0-.77-.389,1.293,1.293,0,0,1-.2-.108,2.361,2.361,0,0,1-.393-.223c-.322-.268-.707-.433-1.039-.682a1.147,1.147,0,0,0-.118-.093,3.136,3.136,0,0,1-1.179-1.191,8.013,8.013,0,0,0-.716-1.2.187.187,0,0,1-.056-.1,1.7,1.7,0,0,0-.47-.921c-.136-.2-.313-.363-.447-.563a2.325,2.325,0,0,0-.431-.471c-.229-.2-.452-.405-.668-.616a1.286,1.286,0,0,1-.226-.3,1.653,1.653,0,0,0-.754-.663,1.007,1.007,0,0,1-.417-.365,3.1,3.1,0,0,0-.391-.511.7.7,0,0,1-.246-.609.185.185,0,0,0-.02-.111c-.164-.3-.24-.638-.434-.923a.882.882,0,0,1-.094-.2c-.051-.142-.1-.286-.143-.43a.3.3,0,0,1-.025-.148c.074-.241-.041-.472-.03-.708.006-.138,0-.278,0-.415a.214.214,0,0,1,.041-.14.78.78,0,0,0,.228-.386l.033.007c0-.044,0-.088,0-.131,0-.123,0-.249,0-.372.013-.674,0-1.35,0-2.025,0-.114,0-.231-.006-.347l-.015-.755a7.565,7.565,0,0,1,.069-1.407,7.737,7.737,0,0,0,.074-1.432c.015-.083.029-.168.05-.248a.8.8,0,0,0-.061-.328,15.619,15.619,0,0,0-1.707.121c-.135-.025-.273-.052-.408-.065a10.608,10.608,0,0,0-1.139-.066c-.433.006-.865.024-1.3.02.035.649.072,1.3.1,1.946a3.849,3.849,0,0,1,0,.8c0,.02,0,.039,0,.059-.069.046-.127.1-.192.148a.432.432,0,0,1-.07.254.326.326,0,0,0-.026.358.673.673,0,0,1,.026.457.4.4,0,0,0,.032.308c.024.042.043.088.065.132-.02.331-.019.663-.02.994a.551.551,0,0,1-.026.095.236.236,0,0,0-.019.223.151.151,0,0,1-.007.11.261.261,0,0,0,.012.223,1.572,1.572,0,0,1,.052.3c0,.124,0,.249,0,.373a.516.516,0,0,1,.058-.006c0,.024.013.044.011.068a2.217,2.217,0,0,0,.023.7,1.914,1.914,0,0,1,.018.2.939.939,0,0,0,.038.257.364.364,0,0,1,0,.306c-.048.116-.069.244-.115.362a1.023,1.023,0,0,0-.062.573.417.417,0,0,1-.039.283,1.084,1.084,0,0,0-.113.478c-.006.174-.034.348-.053.522a.376.376,0,0,0,.029.255.932.932,0,0,1,.061.15c.147.126.269.221.382.326a.7.7,0,0,1,.2.412c.036.24.055.481.083.722a.351.351,0,0,0,.024.084c.033.1.062.2.1.3a.61.61,0,0,0,.093.177.994.994,0,0,1,.23.5,1.679,1.679,0,0,0,.252.74,1.336,1.336,0,0,1,.059.165,2.4,2.4,0,0,0,.222.408c.053.067.181.073.244.139s.086.2.161.269c.188.158.327.358.5.525a1.272,1.272,0,0,1,.371.678c.045.219.084.442.137.659a.489.489,0,0,0,.118.261,5.927,5.927,0,0,0,.581.527.294.294,0,0,1,.162.291.333.333,0,0,0,.088.269,3.631,3.631,0,0,0,.39.425,2.793,2.793,0,0,1,.542.6.82.82,0,0,0,.389.38,1.328,1.328,0,0,1,.429.288,1.528,1.528,0,0,0,.478.323c.091.034.15.143.232.209s.224.036.307.149a.385.385,0,0,0,.416.136c.263-.054.359,0,.436.256a.938.938,0,0,0,.273.406c.076.074.144.155.217.234.025.028.042.073.073.087a.607.607,0,0,1,.28.323.293.293,0,0,0,.279.179c.086,0,.173.015.249.021.167.152.322.3.483.437a.36.36,0,0,0,.146.087.992.992,0,0,1,.45.191c.02.018.053.019.081.031a2.8,2.8,0,0,1,.427.185,1.379,1.379,0,0,0,.551.135c.11.017.229.019.345.026a.384.384,0,0,1,.364.245.762.762,0,0,0,.259.313,3.1,3.1,0,0,0,.6.406.367.367,0,0,1,.2.2.532.532,0,0,0,.123.158,2.869,2.869,0,0,0,1.011.43c.025.01.058,0,.087,0,.136.01.272.015.405.035a.457.457,0,0,0,.285-.021.347.347,0,0,1,.382.049.586.586,0,0,0,.438.111.766.766,0,0,1,.594.089.585.585,0,0,1,.51-.07,2.565,2.565,0,0,0,.511.093,1.844,1.844,0,0,0,.866-.069.781.781,0,0,1,.539,0,2.139,2.139,0,0,0,.251.076,1.542,1.542,0,0,0,.836,0,1.431,1.431,0,0,1,.393-.08.892.892,0,0,1,.4.019.217.217,0,0,0,.142,0,2.177,2.177,0,0,0,.292-.1,7.839,7.839,0,0,0,2.882-.074,6.785,6.785,0,0,1,2.736-.247c.349.1.7.177,1.049.288a2.167,2.167,0,0,0,1.739-.048,1.891,1.891,0,0,1,.757-.192,14.45,14.45,0,0,1,1.485.044,2.3,2.3,0,0,1,.764.149,2.431,2.431,0,0,0,1.454.173,2.625,2.625,0,0,1,1.268.067,1.671,1.671,0,0,0,1.168,0,1.352,1.352,0,0,1,.97-.019c.287.084.589.113.873.2a1.827,1.827,0,0,0,1.694-.267,1.287,1.287,0,0,1,1.735.071,1.011,1.011,0,0,0,.278.116,4.371,4.371,0,0,0,1.5-.761,1.47,1.47,0,0,1,1.366-.424,1.872,1.872,0,0,0,.772-.115,9.569,9.569,0,0,1,1.259-.259c.725-.051,1.456-.024,2.182-.045a2.364,2.364,0,0,1,1.356.191,1.649,1.649,0,0,0,.681.077,3.433,3.433,0,0,1,1.618.384,1.151,1.151,0,0,0,1.14.124A1.213,1.213,0,0,1,233.6,102a.49.49,0,0,0,.292.033c1.116-.123,2.236-.037,3.4-.109.1.254.215.519.334.807a9.811,9.811,0,0,0,1.3.148c.8-.014,1.59-.09,2.386-.148.037,0,.07-.077.093-.106l-.19-.282c.271-.221.505-.2.674-.005a1.413,1.413,0,0,0,.88.4,3.12,3.12,0,0,0,1.669-.07.911.911,0,0,1,.772-.037,5.251,5.251,0,0,0,2.02.463,10.4,10.4,0,0,0,1.984-.059,1.673,1.673,0,0,0,.443-.2c.549-.226,1.1-.457,1.653-.665.142-.052.335-.055.33.261-.293.1-.607.193-.913.305a4.1,4.1,0,0,0-.721.311c-.113.07-.162.245-.292.46.893.2,1.658.53,2.477.037a.964.964,0,0,1,.942.054,1.744,1.744,0,0,0,1.7.027,1.313,1.313,0,0,1,.965-.125,4.294,4.294,0,0,0,2.16-.132,1.766,1.766,0,0,1,1.449.037.54.54,0,0,0,.375.075,11.654,11.654,0,0,1,2.469-.261,1.161,1.161,0,0,0,.816-.315c.342-.408.9-.412,1.279-.739a.567.567,0,0,1,.476-.05,1.905,1.905,0,0,0,1.351-.151c.28-.1.548-.228.822-.348.445-.191.84-.168,1.048.2.549.032,1.006.076,1.464.08a3.385,3.385,0,0,0,.978-.081,3.447,3.447,0,0,1,1.374-.144.694.694,0,0,0,.46-.084.658.658,0,0,1,.9,0,.459.459,0,0,0,.373.055,1.654,1.654,0,0,1,.883,0,9.22,9.22,0,0,0,3.139-.155,4.534,4.534,0,0,1,2.439-.18,4.4,4.4,0,0,0,2.243.081c.085-.019.2.081.316.136l-.49.557c.408.067.732.137,1.059.173a1.847,1.847,0,0,0,1.517-.314,1.487,1.487,0,0,1,1.046-.4,3.452,3.452,0,0,0,.779-.151,2.912,2.912,0,0,1,1.473-.11,2.684,2.684,0,0,0,1.562-.1.892.892,0,0,1,.773.013.742.742,0,0,1,.142.135c-.016.11-.035.236-.062.413.281.041.531.079.769.115.306-.7.554-.757,1.755-.448-.03.182-.061.365-.1.6l.811.373c.762-.245,1.674-.179,2.091-1.021a.994.994,0,0,1,.157-.009c.461.075.926.489,1.383-.03.04-.048.188,0,.285,0a11.637,11.637,0,0,0,3.145-.11,2.717,2.717,0,0,1,.89.007c.2.012.4.075.59.068a23.1,23.1,0,0,1,2.977,0,4.437,4.437,0,0,1,1.724.383,6.085,6.085,0,0,1,3.329-.308,2.784,2.784,0,0,0,1.176.084,7.43,7.43,0,0,1,1.966.014c.3-.008.594.082.889.063a12.093,12.093,0,0,0,2.365-.133,1.681,1.681,0,0,1,.791-.019,6.866,6.866,0,0,0,1.983.029,10.515,10.515,0,0,1,1.886-.082,15.262,15.262,0,0,0,2.484.005,2.508,2.508,0,0,1,.693.007,5,5,0,0,0,1.686.034,5.4,5.4,0,0,1,1.78.1,4.469,4.469,0,0,0,2.357-.061.966.966,0,0,1,.288-.065,12.265,12.265,0,0,1,1.882.062,14.444,14.444,0,0,0,2.977-.022,14.631,14.631,0,0,1,2.083.006,23.143,23.143,0,0,0,2.567,0,13.737,13.737,0,0,1,2.177.026,30.614,30.614,0,0,0,3.074.023,14.99,14.99,0,0,1,2.547.184,1.928,1.928,0,0,0,.585.106,21.353,21.353,0,0,0,3.954-.375,2.953,2.953,0,0,1,.981-.019,13.093,13.093,0,0,0,2.572.136,5.784,5.784,0,0,1,2.077.11,12.827,12.827,0,0,0,2.447-.058c.031,0,.061-.023.093-.034a3.852,3.852,0,0,1,1.865-.127,9.043,9.043,0,0,0,1.874.152,10.234,10.234,0,0,0,2.466-.124.842.842,0,0,1,.3-.007c.461.033.927.045,1.382.112a9.622,9.622,0,0,0,2.722.019,3.569,3.569,0,0,1-.186.345,2.089,2.089,0,0,1-.569.629,1.374,1.374,0,0,0-.534.73,3.871,3.871,0,0,1-.734,1.262,1.97,1.97,0,0,0-.461,1.22,4,4,0,0,1-.19.938.411.411,0,0,1-.218.3c-.339.13-.466.46-.6.787s-.289.681-.428,1.027a.766.766,0,0,0-.062.269,5.466,5.466,0,0,0,.1,1.693,1.114,1.114,0,0,1,.012.614c-.106.418-.187.845-.291,1.264a1.342,1.342,0,0,0-.008.672,1.355,1.355,0,0,1,.054.446,1.51,1.51,0,0,0,.073.983c.047.08.013.224.012.336a3.21,3.21,0,0,0-.012.338c.06.617.135,1.233.141,1.855a.56.56,0,0,0,.064.269,1.311,1.311,0,0,1,.119.659,2.959,2.959,0,0,0,.068.729,5.885,5.885,0,0,1,.178,1.284,1.065,1.065,0,0,0,.1.421,15.05,15.05,0,0,0,.9,1.562,1.017,1.017,0,0,1,.207.944.531.531,0,0,0,0,.277,1.513,1.513,0,0,1,.079.884c-.019.061.025.146.034.22a3.57,3.57,0,0,0,.2.636,9.775,9.775,0,0,1,.238,1.1,1.931,1.931,0,0,0,.36.921,3.076,3.076,0,0,0,.514.345c.178.137.235.424.47.5a.13.13,0,0,1,.046.022,4.061,4.061,0,0,1,.524.6,4.625,4.625,0,0,0,.3.452,1.64,1.64,0,0,1,.463.977.47.47,0,0,0,.377.471.383.383,0,0,1,.25.163c.261.48.762.694,1,1.186a5.141,5.141,0,0,1,.893,1.07,1.1,1.1,0,0,1,.263.476.454.454,0,0,0,.24.348.531.531,0,0,1,.316.437c.178,0,.351-.056.469.01.337.188.746.262.957.682a.365.365,0,0,0,.292.192,3.367,3.367,0,0,1,1.216.523.709.709,0,0,0,.725.061c.141-.065.282-.127.424-.183a1.43,1.43,0,0,1,1.526.263,2.365,2.365,0,0,0,1.016.454,8.375,8.375,0,0,0,1.2.127c.118.01.236,0,.353.014.538.042,1.078.076,1.4.687a.281.281,0,0,0,.169.1c.179.049.362.077.541.128.306.087.636-.01.931.173a.331.331,0,0,0,.2.007c.2-.021.4-.044.6-.076a1.082,1.082,0,0,0,.292-.075,12.256,12.256,0,0,1,1.317-.354.215.215,0,0,1,.15,0,.848.848,0,0,0,.86-.172,3.862,3.862,0,0,1,.769-.418,1.373,1.373,0,0,0,.589-.5,2.235,2.235,0,0,1,1.066-.9,1.58,1.58,0,0,0,.451-.239c.334-.253.662-.515.982-.792a3.034,3.034,0,0,1,.732-.49c.293-.135.558-.344.85-.484a2.079,2.079,0,0,1,1.326-.406.233.233,0,0,0,.142-.053,9.563,9.563,0,0,1,1.754-.682,4.166,4.166,0,0,0,1.868-1.367,1.307,1.307,0,0,1,.153-.145c.415-.41.734-.927,1.168-1.317a3.5,3.5,0,0,0,.4-.509,1.952,1.952,0,0,0,.194-.26,3.367,3.367,0,0,1,.714-1.013.539.539,0,0,0,.119-.18c.11-.254.207-.518.326-.767a5.544,5.544,0,0,1,.49-.922,1.445,1.445,0,0,0,.287-.584,5.48,5.48,0,0,1,1-2.19,1.223,1.223,0,0,0,.247-.775,3.073,3.073,0,0,1,.211-1.043,2.872,2.872,0,0,0,.183-.878,7.567,7.567,0,0,1,.3-1.544v-7.984A1.172,1.172,0,0,1,406.238,109.506Z"/><path class="cls-3" d="M359.267,106.94v18.616h5.253v2.133h-7.645V104.808h7.645v2.132Z"/><path class="cls-4" d="M388.6,121.448h-2.548v3.64h-2.392v-3.64h-8.892v-2.392l6.422-11.649h2.47l-5.46,9.907-1.222,1.664v.338h6.682V107.407h2.392v11.909H388.6Z"/><path class="cls-3" d="M423.331,114.115a2.34,2.34,0,1,1,2.34,2.341A2.33,2.33,0,0,1,423.331,114.115Zm0,8.867a2.34,2.34,0,1,1,2.34,2.34A2.33,2.33,0,0,1,423.331,122.982Z"/><path class="cls-4" d="M476.605,122.956v2.132H463.813V122.7c4.55-2.783,9.854-5.618,9.854-10.141,0-2-.884-3.276-3.848-3.276-3.224,0-4.083,1.429-4.083,3.874a4.448,4.448,0,0,0,.208,1.585l-2.469-.181a11.961,11.961,0,0,1-.1-1.664c0-3.458,2.262-5.746,6.578-5.746,5.07,0,6.162,2.807,6.162,5.148,0,4.992-4.68,7.8-7.54,9.724l-1.4.624v.312Z"/><path class="cls-4" d="M499.1,121.448h-2.548v3.64h-2.392v-3.64h-8.893v-2.392l6.423-11.649h2.47l-5.461,9.907-1.221,1.664v.338h6.682V107.407h2.392v11.909H499.1Z"/><path class="cls-3" d="M533.831,114.115a2.34,2.34,0,1,1,2.339,2.341A2.33,2.33,0,0,1,533.831,114.115Zm0,8.867a2.34,2.34,0,1,1,2.339,2.34A2.33,2.33,0,0,1,533.831,122.982Z"/><path class="cls-4" d="M587.105,122.956v2.132H574.312V122.7c4.55-2.783,9.855-5.618,9.855-10.141,0-2-.885-3.276-3.849-3.276-3.224,0-4.082,1.429-4.082,3.874a4.425,4.425,0,0,0,.208,1.585l-2.47-.181a12.121,12.121,0,0,1-.1-1.664c0-3.458,2.262-5.746,6.578-5.746,5.071,0,6.162,2.807,6.162,5.148,0,4.992-4.68,7.8-7.54,9.724l-1.4.624v.312Z"/><path class="cls-3" d="M604.966,127.689h-7.644v-2.133h5.252V106.94h-5.252v-2.132h7.644Z"/></g><g id="solo_testo" data-name="solo testo"><path class="cls-5" d="M360.772,172.4a3.927,3.927,0,0,0-1.3.181,4.314,4.314,0,0,0,1.4,2.653c1.43,1.767,2.782,3.042,2.782,4.6,0,2.055-3.094,3.952-5.772,3.952a6.709,6.709,0,0,1-4.317-1.456l.911-2.807a10.246,10.246,0,0,0,6.058,1.664c-.182-1.067-1.4-2.185-2.262-3.25-1.456-1.821-1.976-2.756-1.976-3.874,0-1.977,2.756-4.447,5.486-4.447a9.123,9.123,0,0,1,4.03.911l-.884,3.172A8.456,8.456,0,0,0,360.772,172.4Z"/><path class="cls-5" d="M375.826,172.058c-1.014.078-2.028.131-3.042.131a103.943,103.943,0,0,0-3.406,10.971l-3.017-.649c.521-2.185,1.353-5.877,2.809-10.4-1.066-.079-1.977-.157-2.548-.235l.39-2c.832.052,1.82.1,2.86.13.624-1.794,1.352-3.692,2.158-5.668l3.51,1.066c-.7,1.56-1.326,3.094-1.924,4.629.832-.053,1.69-.105,2.73-.209Z"/><path class="cls-5" d="M386.954,175.023a47.121,47.121,0,0,0-3.12,8.918l-2.964-.651a29.475,29.475,0,0,1,1.248-4.5,40.626,40.626,0,0,1-5.07,4.759c-.6-.364-1.222-.65-2.288-1.2a12.505,12.505,0,0,1-.208-2.626c0-4.29,3.146-9.6,10.452-10.868l.728,3.042c-5.72,1.04-7.93,4.784-8.008,8.606,2.028-1.847,4.992-4.837,6.838-6.761Z"/><path class="cls-5" d="M400.734,170.6a39.457,39.457,0,0,0-2.7,8.164l-2.99-.546a39.311,39.311,0,0,1,1.17-4.16c-1.638,2-3.354,4.42-4.889,6.552-.234.832-.519,1.69-.779,2.547l-3.121-.779c.962-3.433,2.236-7.307,3.381-12.585l3.328.729a33.331,33.331,0,0,1-1.534,5.46,60.445,60.445,0,0,1,5.642-7.021Z"/><path class="cls-5" d="M410.562,172.058c-1.015.078-2.029.131-3.042.131a103.726,103.726,0,0,0-3.407,10.971l-3.016-.649c.52-2.185,1.352-5.877,2.808-10.4-1.066-.079-1.976-.157-2.547-.235l.389-2c.832.052,1.82.1,2.861.13.624-1.794,1.352-3.692,2.158-5.668l3.509,1.066c-.7,1.56-1.326,3.094-1.923,4.629.832-.053,1.69-.105,2.73-.209Z"/><path class="cls-5" d="M466.111,178.532a11.146,11.146,0,0,0-.052,2.6c.858-.053,2.366-.053,5.772-1.742l-.286,2.262a8.824,8.824,0,0,1-5.018,1.82c-2.548,0-3.978-1.483-3.8-4.473a10.456,10.456,0,0,1,7.436-9.723l4.291,1.273a8.131,8.131,0,0,1,.363,2.314c0,2.783-2.106,4.993-5.928,4.993a18.505,18.505,0,0,1-2.626-.235A6.683,6.683,0,0,0,466.111,178.532Zm.806-2.7a6.938,6.938,0,0,0,1.326.13,3.274,3.274,0,0,0,3.432-3.3,4.657,4.657,0,0,0-.208-1.3A9.708,9.708,0,0,0,466.917,175.828Z"/><path class="cls-5" d="M489.745,171.565a42.812,42.812,0,0,0-4.212,12.376l-3.224-.546a57.917,57.917,0,0,1,2.756-9.542,70.792,70.792,0,0,0-6.266,5.433c-.338,1.353-.676,2.549-.988,3.693l-3.12-.781c.961-3.431,2.184-7.045,3.38-12.35l3.328.677a40.744,40.744,0,0,1-1.43,5.095,70.45,70.45,0,0,1,6.786-5.746Z"/><path class="cls-5" d="M506.931,163.634c-1.768,4.628-5.616,13.7-6.474,20.15l-3.172-.649a51.944,51.944,0,0,1,1.2-5.616,50.387,50.387,0,0,1-5.668,5.876c-.573-.364-1.717-.806-2.783-1.353a16.485,16.485,0,0,1-.182-2.365c0-4.784,2.5-9.152,8.5-10.765l.806,3.069c-3.952,1.195-5.955,3.509-6.032,8.294,1.923-1.872,4.758-4.733,6.5-6.578,1.014-3.069,2.314-6.527,3.952-11.077Z"/><path class="cls-5" d="M562.3,172.4a3.927,3.927,0,0,0-1.3.181,4.314,4.314,0,0,0,1.4,2.653c1.43,1.767,2.783,3.042,2.783,4.6,0,2.055-3.1,3.952-5.773,3.952a6.7,6.7,0,0,1-4.316-1.456l.91-2.807a10.247,10.247,0,0,0,6.059,1.664c-.183-1.067-1.405-2.185-2.263-3.25-1.456-1.821-1.976-2.756-1.976-3.874,0-1.977,2.756-4.447,5.487-4.447a9.122,9.122,0,0,1,4.029.911l-.883,3.172A8.459,8.459,0,0,0,562.3,172.4Z"/><path class="cls-5" d="M577.354,172.058c-1.015.078-2.029.131-3.043.131a103.943,103.943,0,0,0-3.406,10.971l-3.016-.649c.52-2.185,1.352-5.877,2.808-10.4-1.066-.079-1.976-.157-2.548-.235l.39-2c.832.052,1.82.1,2.86.13.624-1.794,1.352-3.692,2.158-5.668l3.51,1.066c-.7,1.56-1.326,3.094-1.924,4.629.832-.053,1.69-.105,2.73-.209Z"/><path class="cls-5" d="M579.563,178.532a11.146,11.146,0,0,0-.052,2.6c.858-.053,2.366-.053,5.772-1.742L585,181.653a8.824,8.824,0,0,1-5.018,1.82c-2.548,0-3.978-1.483-3.8-4.473a10.456,10.456,0,0,1,7.436-9.723l4.29,1.273a8.065,8.065,0,0,1,.365,2.314c0,2.783-2.107,4.993-5.929,4.993a18.505,18.505,0,0,1-2.626-.235A6.683,6.683,0,0,0,579.563,178.532Zm.806-2.7a6.938,6.938,0,0,0,1.326.13,3.274,3.274,0,0,0,3.432-3.3,4.657,4.657,0,0,0-.208-1.3A9.708,9.708,0,0,0,580.369,175.828Z"/><path class="cls-5" d="M602.079,173.384c0,4.368-1.82,11.154-8.866,10.531L593.031,181c4.914.234,5.668-4.446,5.746-8.32-2.34,2.521-4.628,4.966-6.656,7.254-.754,2.86-1.586,6.11-2.6,9.464l-3.2-.7c1.612-5.3,4.134-14.482,5.148-19.084l3.432.625a33.069,33.069,0,0,1-1.586,5.486,55.9,55.9,0,0,1,5.954-6.345l2.627,1.43A15.785,15.785,0,0,1,602.079,173.384Z"/></g></svg>