<svg xmlns="http://www.w3.org/2000/svg" viewBox="0 0 952 485.099"><defs><style>.cls-1,.cls-3{fill:#f36;}.cls-2{fill:#ffeded;}.cls-3{opacity:0.61;}.cls-4{fill:#1858a8;}</style></defs><title>manuale_ill_nuove</title><g id="Livello_1" data-name="Livello 1"><path class="cls-1" d="M483.262,449.469a2.415,2.415,0,0,1,1.109-.435,30.761,30.761,0,0,1,5.647-.233,43.822,43.822,0,0,0,5.655.269,7.823,7.823,0,0,1,4.643,1.059,4.944,4.944,0,0,0,5,.246,10.4,10.4,0,0,1,6.349-.441,5.974,5.974,0,0,0,4.282-.456c1.063-.545,2.163-1.044,3.281-1.5a9.673,9.673,0,0,1,7.105-.367,30,30,0,0,0,4.317.823,11.742,11.742,0,0,1,2.324.532,3.636,3.636,0,0,0,3.094.174,2.414,2.414,0,0,1,1.55.074,4.008,4.008,0,0,0,3.1-.21,22.433,22.433,0,0,1,10.288-1.743,33.812,33.812,0,0,0,9.713-.445,26.755,26.755,0,0,1,2.825-.263,14.428,14.428,0,0,0,3.583-.544,5.537,5.537,0,0,1,4.267-.128c1.616.588,3.4.8,5.05,1.344a15.818,15.818,0,0,0,7.988.647,6.345,6.345,0,0,1,3.935.422,16.829,16.829,0,0,0,6.687,1.3c2.428.041,4.848.348,7.271.553a5.964,5.964,0,0,0,3.555-.432,12.881,12.881,0,0,1,2.093-.791c1.722-1.865,3.037-3.411,4.5-4.835a10.285,10.285,0,0,1,5.708-2.639c3.337-.5,6.71-.792,10.066-1.193a6.9,6.9,0,0,0,1.16-.327c1.414-.432,2.848-.822,4.235-1.32a8.587,8.587,0,0,0,2.466-1.2,14.716,14.716,0,0,1,6.912-2.968c3.615-.617,7.218-1.255,10.292-3.317a17.268,17.268,0,0,1,2.28-.768,35.54,35.54,0,0,0,5.653-2.867c.948-.67,1.031-2.27,1.93-3.067,1.018-.9,2.85-1.126,3.733-2.081,2.192-2.369,4.966-4.163,7.279-6.357a18.253,18.253,0,0,1,8.058-4.4,8.985,8.985,0,0,0,1.609,1.85,36.782,36.782,0,0,1,2.817,2.911c4.256-3.534,8.136-7.45,12.763-10.615a30.474,30.474,0,0,0,4.407-3.343c1.418-1.425,2.759-2.239,4.979-1.675a3.168,3.168,0,0,0,3.791-1.756c.582-1.374,1.308-2.7,1.864-4.088a24.68,24.68,0,0,0,2.888-2.615,37.482,37.482,0,0,1,8.369-6.9c2.086-1.247,4.339-2.605,5.252-4.934a9.7,9.7,0,0,1,.611-1.047c.452-.2.913-.382,1.34-.618,1.727-.95,3.606-1.682,4.739-3.4.415-.631,1.431-.9,2-1.476,1.419-1.433,2.878-2.83,4.245-4.313a30.375,30.375,0,0,0,3.927-4.925,2.941,2.941,0,0,1,1.331-1.323,4.186,4.186,0,0,0,2.663-2.936c.464-1.249.919-2.506,1.478-3.72a13.851,13.851,0,0,1,3.007-4.485,26.113,26.113,0,0,1,5.372-3.941c1.077-.6,2.123-1.237,3.175-1.868a4.526,4.526,0,0,0,2.27-2.94,25.643,25.643,0,0,1,1.581-4.554,4.106,4.106,0,0,1,1.7-2.047c1.337-.622,2.255-1.665,3.474-2.366a5.4,5.4,0,0,0,2.923-3.454,2.381,2.381,0,0,1,1.822-1.921,6.48,6.48,0,0,0,3.133-1.794,18.949,18.949,0,0,1,3.394-2.47c2.425-1.23,3.107-3.718,4.908-5.381.208-.193.189-.676.141-1.006-.335-2.261.669-3.945,2.611-5.246a2.9,2.9,0,0,0,.691-.477,3.037,3.037,0,0,0,.657-1.136c.386-1.914.666-3.846,1.057-5.757a11.744,11.744,0,0,1,.811-2.547c1-2.18,1.561-4.345.3-6.6a1.358,1.358,0,0,1-.192-.768,16.619,16.619,0,0,1,.573-3.653,23.894,23.894,0,0,0,.967-3.594,4.563,4.563,0,0,1,1.452-2.843,2.633,2.633,0,0,0,.991-2.449c.052-.05.114-.094.164-.145,3.629-3.618,4.125-8.4,5.924-12.7.134-.317-.033-.721,0-1.083.13-1.689.179-3.391.461-5.062a5.285,5.285,0,0,0-.33-3.541,4.032,4.032,0,0,1,.649-4.777,6.814,6.814,0,0,0,1.509-5.488c-.251-2.471-.823-5.1,1.2-7.422a6.57,6.57,0,0,1-1.022-6.346,29.553,29.553,0,0,0,1.244-6.387c.121-.805.189-1.607.233-2.4a10.64,10.64,0,0,0,1.253-3.056c.357-1.552.922-3.066,1.407-4.595a3.24,3.24,0,0,0,.137-2.336,7.092,7.092,0,0,1-.338-1.444c-1.229-1.345-2.264-2.387-3.182-3.509a5.094,5.094,0,0,1-.4-.745,6.123,6.123,0,0,1-.9-3.255c.052-2.205.277-4.406.414-6.612a3.883,3.883,0,0,0-.1-.786c-.149-.963-.263-1.934-.466-2.886a5.046,5.046,0,0,0-.612-1.736,8.458,8.458,0,0,1-1.4-4.817c0-2.4-.015-4.791-1.217-7.028-.244-.453-.133-1.056-.3-1.56a20.86,20.86,0,0,0-1.487-4c-.4-.693-1.64-.951-2.142-1.63a10.407,10.407,0,0,1-.8-2.119,1.931,1.931,0,0,0-.327-.542c-1.561-1.71-2.595-3.721-4-5.486a10.98,10.98,0,0,1-2.467-6.653c-.084-2.04-.085-4.086-.239-6.122a4.162,4.162,0,0,0-.709-2.511c-1.752-1.773-2.766-4.052-4.79-5.629a2.528,2.528,0,0,1-1.081-2.859,2.821,2.821,0,0,0-.428-2.55,32.732,32.732,0,0,0-3.079-4.418,24.623,24.623,0,0,1-4.278-6.251c-.7-1.5-1.458-3.119-3.159-4a12.487,12.487,0,0,1-3.707-3.242,14.619,14.619,0,0,0-4.133-3.633c-.824-.446-1.215-1.525-1.9-2.238-.749-.776-2.137-.658-2.754-1.8a3.884,3.884,0,0,0-3.842-1.859c-2.654.066-3.5-.586-3.817-2.97a8.307,8.307,0,0,0-1.981-4.067c-.616-.781-1.161-1.612-1.725-2.427-.2-.3-.288-.724-.57-.9a5.359,5.359,0,0,1-2.187-3.328,2.819,2.819,0,0,0-2.427-2.033c-.845-.133-1.666-.4-2.394-.574-1.383-1.618-2.664-3.153-3.991-4.652a3.527,3.527,0,0,0-1.283-1.011,9.8,9.8,0,0,1-4.059-2.409c-.173-.192-.5-.259-.745-.4a28.345,28.345,0,0,1-3.866-2.316c-1.5-1.238-3.405-1.509-5.152-2.061-1.044-.331-2.213-.523-3.329-.777a3.65,3.65,0,0,1-3.144-2.753,6.8,6.8,0,0,0-2.01-3.193,28.561,28.561,0,0,0-5.185-4.576,3.382,3.382,0,0,1-1.655-2.1,4.36,4.36,0,0,0-.939-1.593c-2.347-2.792-6.025-3.724-9.148-5.426a3.589,3.589,0,0,0-.849-.137c-1.3-.3-2.63-.549-3.9-.944a5.079,5.079,0,0,0-2.816-.242,3.668,3.668,0,0,1-3.652-1.027,6.068,6.068,0,0,0-4.093-1.671c-1.968-.155-4.105-.125-5.649-1.717a6.221,6.221,0,0,1-5.105-.155,27.278,27.278,0,0,0-4.831-1.616,19.643,19.643,0,0,0-8.565-.72,8.319,8.319,0,0,1-5.275-.819c-.754-.4-1.532-.761-2.328-1.083a16.409,16.409,0,0,0-8.164-1.268,15.6,15.6,0,0,1-3.98.109c-1.334-.171-2.689-.072-3.907-.793a2.54,2.54,0,0,0-1.4-.2c-1.05.094-2.1.248-3.133.444-.956.182-2,.506-2.821-.019-.057-.036-.123-.048-.182-.082-.866-.966-1.714-1.946-2.576-2.916a5.023,5.023,0,0,0-2.666-1.884,11.324,11.324,0,0,1-1.964-.742c-2.513.222-4.523.478-6.54.554a9.653,9.653,0,0,1-5.714-1.693c-2.575-1.7-5.015-3.571-7.525-5.356a6.166,6.166,0,0,0-1.007-.487c-1.253-.572-2.488-1.184-3.769-1.694a8.262,8.262,0,0,0-2.517-.687,13.72,13.72,0,0,1-6.753-2.2c-2.841-1.8-5.69-3.569-9.241-4.04a15.829,15.829,0,0,1-2.072-.872,34.1,34.1,0,0,0-5.847-1.5c-1.12-.122-2.356.926-3.537.92-1.337-.007-2.711-.979-4-.864-3.195.279-6.35-.192-9.5-.106a17.784,17.784,0,0,1-9.731-2.512c-2.481-1.443-4.906-2.972-7.435-4.342-1.067-.576-2.406-1.3-3.5-1.168-3.414.422-6.874-.268-10.258.574a4.023,4.023,0,0,1-4.2-1.06,4.513,4.513,0,0,0-3.342-1.481,51.482,51.482,0,0,0-7.54-.228,39,39,0,0,1-10.614-.4c-2.3-.426-4.786-.877-7.108.161a18.362,18.362,0,0,1-6.619,1.276,21.52,21.52,0,0,0-7.4,1.41c-1.145.489-2.717.072-4.076.224-1.479.17-2.381,1.641-4.2,1.4a5.148,5.148,0,0,0-5.084,2.445c-1.908,2.7-3.315,3.054-6.378,1.588a13.414,13.414,0,0,0-6.3-1.062c-1.387.031-2.778-.045-4.166-.092-.5-.018-1.076-.254-1.494-.105-1.938.7-3.723.267-5.58-.3a4.078,4.078,0,0,0-4.228.9c-.79.744-1.717,1.366-2.474,1.96-2.954.169-5.733.3-8.5.505a5.05,5.05,0,0,0-2.157.526,13.435,13.435,0,0,1-5.9,2.252,4.053,4.053,0,0,0-1.034.442,39.235,39.235,0,0,1-5.642,2.126c-2.59.572-4.339,2.271-6.3,3.6-1.174.8-2.277,1.819-3.416,2.743a5.313,5.313,0,0,1-5.618,1.078,9.942,9.942,0,0,0-4.318-.478c-.324.025-.649.052-.969.1-3.126.444-6.321.61-9.307,1.755a5.215,5.215,0,0,1-3.729.08,6.024,6.024,0,0,0-2.009-.253c-1,.5-2,.975-2.966,1.512a25.024,25.024,0,0,1-8.219,2.388c-.116.02-.223.048-.338.069a13.642,13.642,0,0,0-4.3,1.3,15.451,15.451,0,0,1-4.811,1.614,9.067,9.067,0,0,1-5.815-.817,5.286,5.286,0,0,0-1.912-.465,1.828,1.828,0,0,1-1.983-1.555,3.037,3.037,0,0,0-2.653-2.515c-2.711-.348-5.445-.348-7.737,1.383a31.488,31.488,0,0,1-4.415,2.5,18.367,18.367,0,0,1-3.529,1.755,12.69,12.69,0,0,0-3.293,1.619c-3.064,1.876-6.171,3.567-9.958,3.99a12.925,12.925,0,0,0-6.067,2.3,48.93,48.93,0,0,1-7.035,4.108,5.916,5.916,0,0,1-1.633.448,13.49,13.49,0,0,0-1.724.153c-2.1.669-4.325.938-6.32,1.906-1.617.786-3.266,1.527-4.951,2.18a95.084,95.084,0,0,0-9.136,3.985,6.061,6.061,0,0,1-1.063.411,12.669,12.669,0,0,0-5.021,2.506,5.9,5.9,0,0,1-1.5.737c-.6.266-1.235.473-1.816.769-1.758.9-3.662,1.576-4.853,3.257-.437.618-1.462.856-2.053,1.417-1.467,1.392-2.974,2.745-4.392,4.188a30.534,30.534,0,0,0-4.095,4.808,2.975,2.975,0,0,1-1.376,1.282,4.223,4.223,0,0,0-2.764,2.856c-.507,1.236-1,2.479-1.606,3.675a13.929,13.929,0,0,1-3.161,4.395,26.3,26.3,0,0,1-5.5,3.784c-1.1.563-2.165,1.174-3.239,1.774a4.559,4.559,0,0,0-2.37,2.873,25.749,25.749,0,0,1-1.738,4.5,4.142,4.142,0,0,1-1.768,2c-1.358.582-2.312,1.6-3.555,2.264a5.446,5.446,0,0,0-3.04,3.366,2.4,2.4,0,0,1-1.889,1.868,6.53,6.53,0,0,0-3.193,1.7,19.181,19.181,0,0,1-3.477,2.37c-2.467,1.159-3.235,3.625-5.093,5.234-.214.187-.212.669-.175,1,.256,2.269-.805,3.923-2.792,5.167a2.9,2.9,0,0,0-.706.457,3.048,3.048,0,0,0-.7,1.116c-.452,1.9-.8,3.824-1.256,5.724a11.761,11.761,0,0,1-.9,2.52c-1.08,2.151-1.71,4.3-.528,6.59a1.35,1.35,0,0,1,.165.773,16.628,16.628,0,0,1-.7,3.635,23.946,23.946,0,0,0-1.091,3.564,4.6,4.6,0,0,1-1.55,2.8,2.8,2.8,0,0,0-.971,3.149,5.674,5.674,0,0,1-.647,4.114,3.272,3.272,0,0,0-.314,2.8,22.623,22.623,0,0,1,.65,2.316,5.307,5.307,0,0,1-.823,4.585,17.324,17.324,0,0,0-1.313,2.628,6.825,6.825,0,0,1-.777,1.4,2.038,2.038,0,0,0-.617,1.947,1.342,1.342,0,0,1-.3.976,2.207,2.207,0,0,0-.322,2.01,12.158,12.158,0,0,1-.249,6.821,18.365,18.365,0,0,0-1.17,6.258,14.576,14.576,0,0,1-.235,1.841,7.774,7.774,0,0,0-.137,2.366,3.046,3.046,0,0,1-.566,2.739c-.709.942-1.155,2.049-1.833,3.017a8.828,8.828,0,0,0-1.749,5,3.581,3.581,0,0,1-.944,2.445,9.717,9.717,0,0,0-2.053,4.066c-.411,1.542-1.028,3.038-1.566,4.552a3.242,3.242,0,0,0-.218,2.332,7.074,7.074,0,0,1,.288,1.452c1.182,1.38,2.18,2.451,3.058,3.6a5.946,5.946,0,0,1,1.162,4.037c-.128,2.2-.43,4.4-.642,6.6a3.779,3.779,0,0,0,.073.788c.115.967.2,1.94.365,2.9a5.026,5.026,0,0,0,.553,1.754,8.421,8.421,0,0,1,1.231,4.853c-.085,2.4-.151,4.791.973,7.061.228.46.095,1.061.243,1.569a20.684,20.684,0,0,0,1.347,4.036c.374.706,1.606,1,2.085,1.692.542.785.43,1.987,1.035,2.694,1.5,1.754,2.464,3.793,3.809,5.6a10.922,10.922,0,0,1,2.235,6.722c.014,2.043-.056,4.088.027,6.128a4.138,4.138,0,0,0,.622,2.529c1.689,1.824,2.624,4.131,4.592,5.766a2.518,2.518,0,0,1,.982,2.889,2.818,2.818,0,0,0,.339,2.562,32.307,32.307,0,0,0,2.924,4.5,24.443,24.443,0,0,1,4.059,6.375c.644,1.517,1.349,3.158,3.019,4.091a12.368,12.368,0,0,1,3.593,3.349,14.517,14.517,0,0,0,4,3.751c.808.47,1.161,1.56,1.823,2.292.722.8,2.113.721,2.69,1.88a3.859,3.859,0,0,0,3.775,1.973c2.656.01,3.477.687,3.713,3.08a8.258,8.258,0,0,0,1.839,4.122c.589.8,1.1,1.644,1.64,2.475.194.3.263.733.539.917a5.317,5.317,0,0,1,2.07,3.388,2.8,2.8,0,0,0,2.355,2.1c.84.157,1.652.444,2.373.644,1.326,1.659,2.554,3.23,3.828,4.767a3.481,3.481,0,0,0,1.248,1.047,9.738,9.738,0,0,1,3.973,2.526c.166.2.491.274.73.424a28.3,28.3,0,0,1,3.784,2.428c1.457,1.28,3.351,1.608,5.077,2.21,1.032.36,2.195.586,3.3.875a3.623,3.623,0,0,1,3.047,2.844,6.753,6.753,0,0,0,1.9,3.248,28.318,28.318,0,0,0,5.024,4.725,3.36,3.36,0,0,1,1.581,2.149,4.355,4.355,0,0,0,.883,1.621c2.249,2.859,5.893,3.9,8.956,5.691a3.6,3.6,0,0,0,.844.161c1.293.338,2.609.625,3.866,1.057a5.047,5.047,0,0,0,2.805.324,3.657,3.657,0,0,1,3.615,1.133,6.03,6.03,0,0,0,4.033,1.789c1.962.213,4.1.245,5.587,1.881a6.212,6.212,0,0,1,5.1.306,27.237,27.237,0,0,0,4.772,1.756,19.659,19.659,0,0,0,8.536.969,8.3,8.3,0,0,1,5.244.973,25.215,25.215,0,0,0,2.289,1.149,16.354,16.354,0,0,0,8.115,1.507,15.609,15.609,0,0,1,3.982.007c1.327.209,2.685.15,3.878.907a2.542,2.542,0,0,0,1.4.239c1.053-.062,2.107-.187,3.147-.353.962-.154,2.019-.448,2.818.1,1.464,1,3.328.818,4.863,1.593.018.008.044,0,.061.012a10.684,10.684,0,0,1-.176-1.221,40.225,40.225,0,0,0,6.709,2.768,4.352,4.352,0,0,1,2.321,1.3c1.171,1.806,3.007,2.276,5.079,2.536,2,.249,4,.488,5.969.867a22.627,22.627,0,0,1,7.5,2.559,35.515,35.515,0,0,1,7.264,5.619c1.161,1.177,2.386,2.3,3.6,3.443a7.138,7.138,0,0,0,4.99,2.044,45.934,45.934,0,0,1,7.25.781,6.38,6.38,0,0,1,3.5,1.569c1.266,1.493,3.066,2.357,4.423,3.684a8.34,8.34,0,0,0,5.923,2.719,3.553,3.553,0,0,1,3.345,1.757c.682,1.614,2.073,2.452,3.476,3.407a25.82,25.82,0,0,1,4.559,3.556c2.452,2.68,6.368,2.881,9.317,4.678a2.4,2.4,0,0,0,1.551-.086,8.624,8.624,0,0,1,8.549,1.874,3.873,3.873,0,0,0,.89.73,5.081,5.081,0,0,0,1.873.519c2.98-.017,5.959-.168,8.937-.178a21.156,21.156,0,0,1,4.036.346C476.773,451.48,480.172,451.609,483.262,449.469Z"/><path class="cls-2" d="M386.945,283.225a7.918,7.918,0,0,0,.234-.973c.05-.275-.021-.6.1-.828a4.08,4.08,0,0,0,.589-2.073c-.011-.666.092-1.333.15-2.081a7.494,7.494,0,0,0,2.241-3.584,11.7,11.7,0,0,0,1-4.245,1.035,1.035,0,0,1,.291-.75,2.312,2.312,0,0,0,.734-1.8,39.712,39.712,0,0,1,.712-4.141,4.494,4.494,0,0,1,.9-1.964,3.783,3.783,0,0,0,.871-2.806,1.446,1.446,0,0,1,.927-1.581,4.063,4.063,0,0,0,.494-.309c-.007-.405-.2-.425-.449-.43-1.249-.029-1.941-.936-2.659-1.766a.673.673,0,0,1-.059-.637c.527-.685.3-1.606.82-2.313a7.7,7.7,0,0,1,1.787-1.751,32.628,32.628,0,0,0,2.8-2.321,1.434,1.434,0,0,0,.43-.856,9.306,9.306,0,0,1,.692-3.095,1.163,1.163,0,0,0,.133-.484,11.735,11.735,0,0,1,1.235-4.486,2.08,2.08,0,0,0,.027-1.318,3.453,3.453,0,0,1,.529-3.05,2.493,2.493,0,0,0,.173-.29c.739-1.411.919-1.445,2.2-.4.6.5,1.2,1,1.887,1.563a5.934,5.934,0,0,0,.7-.714,3.628,3.628,0,0,1,1.43-1.09c.5-.267.6-1.016,1.2-1.342.716-.389,1.56-.693,1.817-1.633a.725.725,0,0,1,.354-.35,13.666,13.666,0,0,0,4.421-4.486,5.733,5.733,0,0,1,1.611-1.46,19.268,19.268,0,0,0,4.355-3.911,4.559,4.559,0,0,1,.638-.515c.292-.246.571-.509.867-.751a7.576,7.576,0,0,1,.786-.591,28.8,28.8,0,0,1,3-2.063,1.424,1.424,0,0,0,.549-.811,21.17,21.17,0,0,0,.7-2.426c.116-.551.294-.976.893-1.064.675-.1.925-.576,1.071-1.148.054-.217.04-.451.091-.668a2.316,2.316,0,0,1,2.43-1.891,4.054,4.054,0,0,1,1.462.31,2.374,2.374,0,0,0,2.937-.371,1.86,1.86,0,0,1,2.012-.524,1.176,1.176,0,0,0,1.266-.2,5.28,5.28,0,0,1,2.138-.92c.735-.265,1.463-.548,2.2-.8.366-.123.752-.184,1.129-.278.215-.053.539-.045.626-.183.625-.99,1.977-.779,2.664-1.653a.588.588,0,0,1,.449-.195c.949.119,1.844-.534,2.826-.15a1.267,1.267,0,0,0,.919-.249c.852-.538,1.665-1.14,2.5-1.7.975-.648,1.931-1.336,2.954-1.9a6.5,6.5,0,0,1,3.754-.728c.726.065,1.441.245,2.073-.287,1.288-.064,2.378-1.021,3.746-.8.262.043.627-.21.865-.417a3.859,3.859,0,0,0,.445-.491,1.342,1.342,0,0,1,.937-1,1.979,1.979,0,0,0,1.419-1.856,13.393,13.393,0,0,1,.774-2.4c.944-2.48,1.368-5.1,2.09-7.639-.3-.9.3-1.592.542-2.368a8.3,8.3,0,0,0,.235-.973c.05-.275-.022-.6.1-.828a4.089,4.089,0,0,0,.588-2.073c-.011-.666.091-1.333.151-2.081a7.5,7.5,0,0,0,2.24-3.584,11.634,11.634,0,0,0,1-4.245,1.047,1.047,0,0,1,.291-.75,2.307,2.307,0,0,0,.735-1.8,39.709,39.709,0,0,1,.711-4.141,4.486,4.486,0,0,1,.9-1.964,3.79,3.79,0,0,0,.869-2.806,1.448,1.448,0,0,1,.928-1.581,3.987,3.987,0,0,0,.494-.309c-.006-.405-.195-.425-.448-.43-1.251-.03-1.941-.936-2.66-1.766a.673.673,0,0,1-.059-.637c.528-.685.3-1.606.82-2.313a7.7,7.7,0,0,1,1.787-1.751,32.782,32.782,0,0,0,2.8-2.321,1.434,1.434,0,0,0,.43-.856,9.379,9.379,0,0,1,.691-3.095,1.166,1.166,0,0,0,.135-.484,11.7,11.7,0,0,1,1.235-4.486,2.073,2.073,0,0,0,.025-1.318,3.46,3.46,0,0,1,.53-3.05,2.353,2.353,0,0,0,.172-.29c.74-1.411.921-1.445,2.2-.4.6.5,1.2,1,1.886,1.563a5.847,5.847,0,0,0,.695-.714,3.635,3.635,0,0,1,1.432-1.09c.5-.267.6-1.016,1.205-1.342.716-.389,1.56-.693,1.816-1.633a.723.723,0,0,1,.355-.35,13.682,13.682,0,0,0,4.42-4.486,5.76,5.76,0,0,1,1.611-1.46,19.294,19.294,0,0,0,4.356-3.911,4.55,4.55,0,0,1,.637-.515c.292-.246.571-.509.867-.751a7.368,7.368,0,0,1,.786-.591,28.814,28.814,0,0,1,3-2.063.785.785,0,0,0,.259-.263,3.4,3.4,0,0,1-.2-.577,6.92,6.92,0,0,0-.132-1.166,5.134,5.134,0,0,0-.716-1.027c.128-.233.211-.379.29-.527a3.347,3.347,0,0,0-1.167-4.817c-1.149-.77-2.19-1.7-3.272-2.555v-.9c-1.448-.146-2.761-.438-3.278-1.929-.605-.181-1.147-.323-1.675-.508a2.386,2.386,0,0,1-.873-.438,5.813,5.813,0,0,0-2.344-1.242c-1.175-.383-2.407-.614-3.544-1.081a19.635,19.635,0,0,1-3.8-1.682,6.482,6.482,0,0,1-2.186-2.277,4.96,4.96,0,0,0-2.333-2.088,1.959,1.959,0,0,1-.683-.441c-.4-.5-.777-.965-1.542-.732-.114.035-.338-.226-.485-.375a9.689,9.689,0,0,0-2.6-1.453c-1.478.13-2.986-.512-4.342.24a3.376,3.376,0,0,1-1.547-1.354,2.783,2.783,0,0,0-.737-.638,13.329,13.329,0,0,1-3.251-2.574,2.06,2.06,0,0,0-.856-.752,5.958,5.958,0,0,1-2.517-1.619,4.1,4.1,0,0,0-1.585-.878,9.759,9.759,0,0,1-2.668-1.381,13.582,13.582,0,0,0-2.271-1.4,14.582,14.582,0,0,1-2.162-1.591.843.843,0,0,0-.14-.095,32.82,32.82,0,0,0-6.179-2.572,1.137,1.137,0,0,1-.708-.4c-.455-.835-1.314-1.015-2.058-1.381-.956-.47-1.913-.941-2.891-1.363a2.381,2.381,0,0,0-1.14-.211,4.641,4.641,0,0,1-3.575-1.167c-.341-.28-.819-.393-1.169-.666a2.58,2.58,0,0,0-2.789-.646.458.458,0,0,1-.33,0,3.369,3.369,0,0,0-2.614.2,5.94,5.94,0,0,1-.983.145,2.1,2.1,0,0,0-.783.2c-1.087.73-2.529.555-3.555,1.425a.532.532,0,0,1-.324.075,6.588,6.588,0,0,0-1.493-.045c-.407.084-.9-.255-1.311-.389l-3.011,1.852c-.262-.175-.436-.384-.629-.4a3.855,3.855,0,0,0-2.436.157,4.25,4.25,0,0,1-3.381.617,3.66,3.66,0,0,0-.673-.014c-.779-.069-1.562-.121-2.337-.236a2.957,2.957,0,0,0-1.808.2,2.672,2.672,0,0,1-1.114.345,3.675,3.675,0,0,0-2.029.712,3.779,3.779,0,0,1-3.226.515,3.578,3.578,0,0,0-1.989.017c-.366.092-.908.177-1.135-.014a1.984,1.984,0,0,0-1.892-.263,3,3,0,0,1-2.469-.49,2.2,2.2,0,0,0-.273.072c-1.146.567-2.218,1.322-3.608,1.228-.267-.018-.593.272-.828.49-.326.3-.561.71-.9,1a1.336,1.336,0,0,1-.866.418c-1.366-.223-2.458.734-3.744.8-.632.532-1.348.352-2.074.287a6.5,6.5,0,0,0-3.754.728c-1.023.562-1.979,1.249-2.954,1.9-.841.558-1.652,1.16-2.5,1.7a1.273,1.273,0,0,1-.919.249c-.983-.384-1.878.268-2.826.15a.584.584,0,0,0-.448.2c-.687.874-2.04.662-2.665,1.653-.086.138-.41.13-.626.183-.376.093-.763.155-1.13.278-.74.249-1.469.531-2.2.8a5.265,5.265,0,0,0-2.138.92,1.174,1.174,0,0,1-1.265.2,1.863,1.863,0,0,0-2.013.523,2.37,2.37,0,0,1-2.935.372,4.059,4.059,0,0,0-1.462-.31A2.315,2.315,0,0,0,358.4,86.9c-.051.218-.037.452-.092.668-.144.573-.4,1.049-1.07,1.148-.6.089-.777.514-.892,1.065a20.963,20.963,0,0,1-.7,2.425,1.422,1.422,0,0,1-.548.812,28.92,28.92,0,0,0-3,2.063,7.576,7.576,0,0,0-.786.591c-.294.242-.574.5-.867.751a4.669,4.669,0,0,0-.637.515,19.313,19.313,0,0,1-4.355,3.911,5.731,5.731,0,0,0-1.611,1.46,13.682,13.682,0,0,1-4.42,4.486.725.725,0,0,0-.354.35c-.258.939-1.1,1.244-1.818,1.633-.6.326-.707,1.075-1.205,1.341a3.658,3.658,0,0,0-1.431,1.091,5.854,5.854,0,0,1-.7.713c-.68-.564-1.282-1.065-1.886-1.562-1.276-1.049-1.457-1.015-2.2.4a2.361,2.361,0,0,1-.173.29,3.454,3.454,0,0,0-.529,3.049,2.08,2.08,0,0,1-.027,1.318,11.744,11.744,0,0,0-1.235,4.487,1.135,1.135,0,0,1-.134.484,9.317,9.317,0,0,0-.69,3.095,1.43,1.43,0,0,1-.431.855,32.749,32.749,0,0,1-2.8,2.322,7.641,7.641,0,0,0-1.788,1.751c-.52.707-.292,1.628-.82,2.312a.675.675,0,0,0,.058.638c.719.83,1.411,1.736,2.661,1.765.252.006.441.026.447.431a3.842,3.842,0,0,1-.494.309,1.447,1.447,0,0,0-.926,1.58,3.789,3.789,0,0,1-.87,2.807,4.481,4.481,0,0,0-.9,1.964,39.928,39.928,0,0,0-.711,4.141,2.316,2.316,0,0,1-.735,1.8,1.038,1.038,0,0,0-.29.75,11.716,11.716,0,0,1-1,4.245,7.5,7.5,0,0,1-2.242,3.584c-.059.747-.161,1.415-.15,2.081a4.064,4.064,0,0,1-.589,2.072c-.123.227-.052.553-.1.828a7.714,7.714,0,0,1-.234.974c-.243.776-.844,1.468-.542,2.368-.723,2.539-1.146,5.159-2.089,7.639a13.4,13.4,0,0,0-.775,2.4,1.981,1.981,0,0,1-1.42,1.856,1.364,1.364,0,0,0-.956,1.609,10.978,10.978,0,0,0,.892,3.572c1.008,1.754,1.859,3.6,2.9,5.333a13.627,13.627,0,0,1,1.494,4.788,7.866,7.866,0,0,0,.855,2.7,8.506,8.506,0,0,1,1.011,2.8,4.9,4.9,0,0,1-.531,3.382,2.913,2.913,0,0,0-.3,1.112,1.086,1.086,0,0,1-.988,1.15,1.845,1.845,0,0,0-1.6,1.539,5.483,5.483,0,0,0,.86,4.5,18,18,0,0,1,1.574,2.574,10.452,10.452,0,0,1,1.1,2.058,7.162,7.162,0,0,0,1.018,1.919,13.307,13.307,0,0,1,2.507,5.8,7.168,7.168,0,0,0,1.443,3.535,27.718,27.718,0,0,1,2.587,4.1,3.16,3.16,0,0,1,.281.951,6.933,6.933,0,0,0,.094,1,24.939,24.939,0,0,0,1.193,3.682c.493.943.96,1.9,1.369,2.885a52.716,52.716,0,0,0,2.506,5.325,3.429,3.429,0,0,1,.256.62,7.185,7.185,0,0,0,1.577,2.928,3.224,3.224,0,0,1,.463.874c.168.35.3.72.485,1.058a6.948,6.948,0,0,0,2.053,2.832c.39.255.54.852.893,1.2.878.857,1.734,1.737,2.644,2.565a19.054,19.054,0,0,0,3.038,2.394,1.8,1.8,0,0,1,.81.8,2.591,2.591,0,0,0,1.8,1.615c.782.3,1.569.59,2.327.942a8.858,8.858,0,0,1,2.778,1.85,15.318,15.318,0,0,1,2.387,3.211c.354.64.737,1.263,1.115,1.889a2.847,2.847,0,0,0,1.816,1.385,17.3,17.3,0,0,1,2.852,1.021,2.58,2.58,0,0,1,1.262,1.033c.365.792,1.007,1.349,1.426,2.074a3.367,3.367,0,0,0,2.128,1.777,1.458,1.458,0,0,1,1.179,1.1,3.708,3.708,0,0,0,1.07,1.861,10.985,10.985,0,0,1,1.5,2.029c.73,1.438,2.291,1.89,3.307,2.975.117.125.423.125.633.1a3.324,3.324,0,0,1,3.269,1.636,1.663,1.663,0,0,0,.29.412,1.956,1.956,0,0,0,.706.408c1.2.267,2.421.473,3.624.743a7.936,7.936,0,0,1,1.6.529,4.684,4.684,0,0,0,4.177.322.914.914,0,0,1,.489-.095,11.44,11.44,0,0,1,2.3.415c.151.056.307.08.458.131.029-.106.053-.214.083-.32C386.1,284.693,386.7,284,386.945,283.225Z"/><path class="cls-2" d="M609.292,313.476a5.715,5.715,0,0,0-3.08.706,3.381,3.381,0,0,1-1.114.317c-.608.1-1.225.141-1.838.206a2.573,2.573,0,0,1-.5.041c-1.393-.128-2.785-.308-4.181-.388a4.025,4.025,0,0,0-2.562.667c-.73.509-1.41,1.087-2.289,1.772a4.895,4.895,0,0,0-.92.164,2.227,2.227,0,0,1-1.479-.132c-.958-.316-1.9-.678-2.882-.921a6.383,6.383,0,0,1-2.573-1.2,2.383,2.383,0,0,0-1.548-.554,5.928,5.928,0,0,1-3.161-1.029c-.612-.4-1.313-.659-1.91-1.073a2.064,2.064,0,0,0-1.734-.336,5.3,5.3,0,0,1-1.5-.085,9.978,9.978,0,0,0-1.167-.14,12.569,12.569,0,0,1-3.964-.7,8.371,8.371,0,0,0-4.325-.16,1.5,1.5,0,0,1-1.273-.192.905.905,0,0,0-.618-.176,1.367,1.367,0,0,1-1.233-.364,4.551,4.551,0,0,0-.887-.455,11.388,11.388,0,0,1-1.662-.77,3.616,3.616,0,0,0-2.905-.489c-.5.1-.987.224-1.471.373a2.238,2.238,0,0,1-1.774-.188,3.87,3.87,0,0,0-2.606-.386,1.871,1.871,0,0,1-1.994-.572,3,3,0,0,0-1.77-.908,16.2,16.2,0,0,1-2.257-.643,11.446,11.446,0,0,0-2.305-.415.912.912,0,0,0-.488.095,4.681,4.681,0,0,1-4.177-.322,7.883,7.883,0,0,0-1.6-.528c-1.2-.271-2.421-.477-3.626-.744a1.952,1.952,0,0,1-.706-.408,1.638,1.638,0,0,1-.288-.412,3.328,3.328,0,0,0-3.27-1.636c-.211.021-.517.021-.634-.1-1.015-1.085-2.577-1.537-3.307-2.975a11.046,11.046,0,0,0-1.493-2.028,3.709,3.709,0,0,1-1.071-1.862,1.459,1.459,0,0,0-1.18-1.1,3.363,3.363,0,0,1-2.126-1.777,25.113,25.113,0,0,1-1.427-2.073,2.565,2.565,0,0,0-1.262-1.033,17.2,17.2,0,0,0-2.851-1.022,2.845,2.845,0,0,1-1.816-1.385c-.378-.626-.763-1.249-1.117-1.889a15.369,15.369,0,0,0-2.385-3.211,8.842,8.842,0,0,0-2.779-1.849c-.758-.353-1.544-.645-2.326-.943a2.589,2.589,0,0,1-1.805-1.614,1.79,1.79,0,0,0-.81-.8,19.054,19.054,0,0,1-3.038-2.394c-.753-.685-1.467-1.409-2.189-2.123a1.193,1.193,0,0,1-.248.31c-.464.384-1.157.587-1.457,1.057a8.778,8.778,0,0,1-2.388,2.321,7.486,7.486,0,0,0-2.13,2.084,4.8,4.8,0,0,1-2.6,1.747,15.754,15.754,0,0,0-4.052,2.348,20.913,20.913,0,0,1-2.864,1.692,1.922,1.922,0,0,1-1.625.192,1.675,1.675,0,0,0-1.834.564c-1.04,1.142-2.506,1.681-3.666,2.66a2.807,2.807,0,0,1-1.605.356c-1.294.044-2.59,0-3.885,0a7.35,7.35,0,0,0-4.266,1.286c-1.148.779-2.442,1.335-3.559,2.2-.45.351-1.211.283-1.709.6-.441.277-.63.993-1.078,1.209a14.021,14.021,0,0,1-2.563.775,6.645,6.645,0,0,0-1,.138,9.717,9.717,0,0,1-4.479.551,5.727,5.727,0,0,0-3.08.7,3.371,3.371,0,0,1-1.112.318c-.61.1-1.225.141-1.839.206a2.58,2.58,0,0,1-.5.041c-1.394-.128-2.784-.309-4.181-.388a4.015,4.015,0,0,0-2.562.667c-.73.508-1.41,1.087-2.289,1.772a4.807,4.807,0,0,0-.921.164,2.226,2.226,0,0,1-1.478-.132c-.958-.316-1.906-.678-2.882-.921a6.384,6.384,0,0,1-2.573-1.2,2.385,2.385,0,0,0-1.548-.554,5.928,5.928,0,0,1-3.162-1.029c-.611-.4-1.312-.659-1.908-1.073a2.065,2.065,0,0,0-1.736-.336,5.345,5.345,0,0,1-1.5-.085,10.121,10.121,0,0,0-1.167-.141,12.534,12.534,0,0,1-3.963-.694,8.367,8.367,0,0,0-4.324-.16,1.5,1.5,0,0,1-1.275-.192.906.906,0,0,0-.617-.177,1.365,1.365,0,0,1-1.234-.363,4.433,4.433,0,0,0-.886-.455,11.505,11.505,0,0,1-1.663-.77,3.612,3.612,0,0,0-2.9-.489c-.5.1-.989.224-1.472.373a2.236,2.236,0,0,1-1.773-.189,3.874,3.874,0,0,0-2.607-.385,1.872,1.872,0,0,1-1.994-.572,2.992,2.992,0,0,0-1.771-.908,17.028,17.028,0,0,1-1.8-.512c-.67,2.439-1.1,4.942-2.006,7.319a13.563,13.563,0,0,0-.776,2.4,1.977,1.977,0,0,1-1.419,1.856,1.365,1.365,0,0,0-.956,1.609,11.014,11.014,0,0,0,.891,3.573c1.01,1.753,1.86,3.6,2.9,5.332a13.654,13.654,0,0,1,1.494,4.788,7.9,7.9,0,0,0,.855,2.7,8.5,8.5,0,0,1,1.011,2.8,4.89,4.89,0,0,1-.532,3.382,2.888,2.888,0,0,0-.3,1.112,1.089,1.089,0,0,1-.99,1.15,1.842,1.842,0,0,0-1.6,1.538,5.482,5.482,0,0,0,.858,4.5,17.872,17.872,0,0,1,1.574,2.574,10.41,10.41,0,0,1,1.1,2.058,7.14,7.14,0,0,0,1.018,1.92,13.336,13.336,0,0,1,2.506,5.8,7.159,7.159,0,0,0,1.443,3.535,28.027,28.027,0,0,1,2.588,4.1,3.226,3.226,0,0,1,.28.951,7.228,7.228,0,0,0,.093,1,25.177,25.177,0,0,0,1.193,3.682c.494.943.96,1.9,1.37,2.886a53.133,53.133,0,0,0,2.5,5.325,3.4,3.4,0,0,1,.258.619,7.16,7.16,0,0,0,1.576,2.928,3.3,3.3,0,0,1,.464.875c.167.35.3.719.483,1.058a6.982,6.982,0,0,0,2.053,2.831c.391.256.54.853.894,1.2.879.858,1.733,1.737,2.644,2.565a19.009,19.009,0,0,0,3.038,2.394,1.79,1.79,0,0,1,.81.8,2.588,2.588,0,0,0,1.8,1.614c.782.3,1.57.59,2.326.943a8.83,8.83,0,0,1,2.779,1.849,15.293,15.293,0,0,1,2.386,3.212c.354.639.738,1.262,1.117,1.888a2.84,2.84,0,0,0,1.815,1.385A17.249,17.249,0,0,1,428.724,391a2.565,2.565,0,0,1,1.262,1.033c.365.791,1.008,1.349,1.426,2.073a3.362,3.362,0,0,0,2.127,1.777,1.458,1.458,0,0,1,1.179,1.1,3.714,3.714,0,0,0,1.072,1.862,11.145,11.145,0,0,1,1.494,2.028c.729,1.438,2.29,1.89,3.306,2.975.118.125.424.125.635.1a3.328,3.328,0,0,1,3.269,1.636,1.664,1.664,0,0,0,.288.412,1.958,1.958,0,0,0,.706.408c1.2.267,2.422.473,3.626.744a7.894,7.894,0,0,1,1.6.528,4.681,4.681,0,0,0,4.177.322.919.919,0,0,1,.49-.095,11.452,11.452,0,0,1,2.3.415,16.28,16.28,0,0,0,2.257.643,2.992,2.992,0,0,1,1.771.908,1.871,1.871,0,0,0,2,.572,3.872,3.872,0,0,1,2.606.386,2.233,2.233,0,0,0,1.774.188c.482-.149.975-.272,1.47-.373a3.612,3.612,0,0,1,2.9.489,11.4,11.4,0,0,0,1.663.77,4.5,4.5,0,0,1,.887.455,1.366,1.366,0,0,0,1.232.364.905.905,0,0,1,.619.176,1.5,1.5,0,0,0,1.273.192,8.367,8.367,0,0,1,4.324.16,12.58,12.58,0,0,0,3.965.7,9.911,9.911,0,0,1,1.166.14,5.313,5.313,0,0,0,1.5.085,2.067,2.067,0,0,1,1.735.336c.6.414,1.3.677,1.908,1.073a5.929,5.929,0,0,0,3.163,1.029,2.384,2.384,0,0,1,1.547.554,6.382,6.382,0,0,0,2.574,1.2c.976.243,1.923.6,2.881.921a2.225,2.225,0,0,0,1.478.132,4.882,4.882,0,0,1,.922-.164c.877-.685,1.559-1.263,2.289-1.772a4.02,4.02,0,0,1,2.562-.667c1.4.08,2.786.26,4.18.388a2.648,2.648,0,0,0,.5-.04c.614-.066,1.231-.11,1.839-.207a3.382,3.382,0,0,0,1.113-.317,5.715,5.715,0,0,1,3.08-.706,9.7,9.7,0,0,0,4.479-.551,6.646,6.646,0,0,1,1-.137,14.042,14.042,0,0,0,2.562-.775c.448-.216.637-.933,1.078-1.21.5-.314,1.261-.246,1.71-.6,1.116-.87,2.411-1.426,3.559-2.2a7.342,7.342,0,0,1,4.266-1.285c1.295,0,2.592.042,3.885,0a2.8,2.8,0,0,0,1.605-.356c1.16-.979,2.625-1.517,3.666-2.659a1.676,1.676,0,0,1,1.835-.565,1.92,1.92,0,0,0,1.625-.192,20.9,20.9,0,0,0,2.863-1.691,15.748,15.748,0,0,1,4.051-2.348,4.8,4.8,0,0,0,2.6-1.748,7.486,7.486,0,0,1,2.131-2.083,8.8,8.8,0,0,0,2.388-2.322c.3-.47.992-.673,1.458-1.056.506-.418.462-1.228,1.2-1.561a2.21,2.21,0,0,0,1.26-2.193c.012-1.545.444-2.022,1.961-2.153a5.468,5.468,0,0,0,2.618-1.062c.508-.34,1.045-.639,1.573-.948.192-.112.466-.152.583-.312a3.432,3.432,0,0,1,2.153-1.2,1.689,1.689,0,0,0,1.339-1.366c.1-.488.286-.96.414-1.379,1.055-.768,2.054-1.479,3.032-2.217a2.078,2.078,0,0,0,.666-.724,5.633,5.633,0,0,1,1.611-2.306c.126-.1.175-.285.27-.424a16.424,16.424,0,0,1,1.549-2.2,7.92,7.92,0,0,0,1.413-2.95c.231-.6.377-1.276.563-1.919a2.2,2.2,0,0,1,1.81-1.766,4.379,4.379,0,0,0,2.064-1.1,17.134,17.134,0,0,0,3.008-2.913,2.125,2.125,0,0,1,1.366-.915,2.837,2.837,0,0,0,1.029-.51c1.818-1.3,2.485-3.421,3.63-5.2.085-.131.057-.33.1-.491.217-.752.4-1.517.679-2.247a2.714,2.714,0,0,0,.212-1.632,2.026,2.026,0,0,1,.728-2.1,3.391,3.391,0,0,0,1.144-2.343c.139-1.141.165-2.384,1.206-3.246a3.351,3.351,0,0,1,.2-2.966,14.94,14.94,0,0,0,1.125-2.773,10.552,10.552,0,0,0,.635-4.964,4.492,4.492,0,0,1,.63-3.049,14.322,14.322,0,0,0,.733-1.33,8.84,8.84,0,0,0,.975-4.719,8.364,8.364,0,0,1,.014-2.317,5.157,5.157,0,0,1,.584-2.254,1.365,1.365,0,0,0,.155-.812,17.1,17.1,0,0,0-.216-1.832c-.095-.56-.279-1.176.071-1.64.642-.849.527-1.935,1.022-2.826.006-.01,0-.025.008-.036A12.487,12.487,0,0,1,609.292,313.476Z"/><path class="cls-3" d="M389.89,287.333a1.872,1.872,0,0,0,1.994.572,3.874,3.874,0,0,1,2.607.385,2.236,2.236,0,0,0,1.773.189c.483-.149.975-.272,1.472-.373a3.612,3.612,0,0,1,2.9.489,11.505,11.505,0,0,0,1.663.77,4.433,4.433,0,0,1,.886.455,1.365,1.365,0,0,0,1.234.363.906.906,0,0,1,.617.177,1.5,1.5,0,0,0,1.275.192,8.367,8.367,0,0,1,4.324.16,12.534,12.534,0,0,0,3.963.694,10.121,10.121,0,0,1,1.167.141,5.345,5.345,0,0,0,1.5.085,2.065,2.065,0,0,1,1.736.336c.6.414,1.3.676,1.908,1.073a5.928,5.928,0,0,0,3.162,1.029,2.385,2.385,0,0,1,1.548.554,6.384,6.384,0,0,0,2.573,1.2c.976.243,1.924.605,2.882.921a2.226,2.226,0,0,0,1.478.132,4.807,4.807,0,0,1,.921-.164c.879-.685,1.559-1.264,2.289-1.772a4.015,4.015,0,0,1,2.562-.667c1.4.079,2.787.26,4.181.388a2.58,2.58,0,0,0,.5-.041c.614-.065,1.229-.109,1.839-.206a3.371,3.371,0,0,0,1.112-.318,5.727,5.727,0,0,1,3.08-.7,9.717,9.717,0,0,0,4.479-.551,6.645,6.645,0,0,1,1-.138,14.021,14.021,0,0,0,2.563-.775c.448-.216.637-.932,1.078-1.209.5-.314,1.259-.246,1.709-.6,1.117-.869,2.411-1.425,3.559-2.2a7.35,7.35,0,0,1,4.266-1.286c1.3,0,2.591.042,3.885,0a2.807,2.807,0,0,0,1.605-.356c1.16-.979,2.626-1.518,3.666-2.66a1.675,1.675,0,0,1,1.834-.564,1.922,1.922,0,0,0,1.625-.192,20.913,20.913,0,0,0,2.864-1.692,15.754,15.754,0,0,1,4.052-2.348,4.8,4.8,0,0,0,2.6-1.747,7.486,7.486,0,0,1,2.13-2.084,8.778,8.778,0,0,0,2.388-2.321c.3-.47.993-.673,1.457-1.057a1.193,1.193,0,0,0,.248-.31c-.15-.148-.3-.294-.456-.442-.353-.344-.5-.941-.892-1.2a6.955,6.955,0,0,1-2.053-2.831c-.187-.339-.317-.708-.485-1.058a3.274,3.274,0,0,0-.463-.875,7.171,7.171,0,0,1-1.576-2.928,3.328,3.328,0,0,0-.258-.619,53.022,53.022,0,0,1-2.5-5.325c-.41-.982-.876-1.943-1.37-2.886a24.969,24.969,0,0,1-1.194-3.681,6.963,6.963,0,0,1-.092-1,3.2,3.2,0,0,0-.282-.951,27.77,27.77,0,0,0-2.587-4.1,7.149,7.149,0,0,1-1.443-3.535,13.336,13.336,0,0,0-2.506-5.8,7.112,7.112,0,0,1-1.018-1.92,10.4,10.4,0,0,0-1.1-2.058,18.052,18.052,0,0,0-1.574-2.574,5.479,5.479,0,0,1-.86-4.5,1.845,1.845,0,0,1,1.6-1.538,1.088,1.088,0,0,0,.989-1.151,2.908,2.908,0,0,1,.3-1.111,4.9,4.9,0,0,0,.532-3.382,8.477,8.477,0,0,0-1.012-2.8,7.855,7.855,0,0,1-.854-2.7,13.61,13.61,0,0,0-1.5-4.788c-1.038-1.733-1.889-3.579-2.9-5.332a10.963,10.963,0,0,1-.891-3.573,1.431,1.431,0,0,1,.019-.609,3.859,3.859,0,0,1-.445.491c-.238.207-.6.46-.865.417-1.368-.223-2.458.734-3.746.8-.632.532-1.347.352-2.073.287a6.5,6.5,0,0,0-3.754.728c-1.023.562-1.979,1.25-2.954,1.9-.84.558-1.653,1.16-2.5,1.7a1.267,1.267,0,0,1-.919.249c-.982-.384-1.877.269-2.826.15a.588.588,0,0,0-.449.195c-.687.874-2.039.663-2.664,1.653-.087.138-.411.13-.626.183-.377.094-.763.155-1.129.278-.741.249-1.469.532-2.2.8a5.28,5.28,0,0,0-2.138.92,1.176,1.176,0,0,1-1.266.2,1.86,1.86,0,0,0-2.012.524,2.374,2.374,0,0,1-2.937.371,4.054,4.054,0,0,0-1.462-.31,2.316,2.316,0,0,0-2.43,1.891c-.051.217-.037.451-.091.668-.146.572-.4,1.048-1.071,1.148-.6.088-.777.513-.893,1.064a21.17,21.17,0,0,1-.7,2.426,1.424,1.424,0,0,1-.549.811,28.8,28.8,0,0,0-3,2.063,7.576,7.576,0,0,0-.786.591c-.3.242-.575.505-.867.751a4.559,4.559,0,0,0-.638.515,19.268,19.268,0,0,1-4.355,3.911,5.733,5.733,0,0,0-1.611,1.46,13.666,13.666,0,0,1-4.421,4.486.725.725,0,0,0-.354.35c-.257.94-1.1,1.244-1.817,1.633-.6.326-.707,1.075-1.2,1.342a3.628,3.628,0,0,0-1.43,1.09,5.934,5.934,0,0,1-.7.714c-.682-.565-1.282-1.066-1.887-1.563-1.277-1.049-1.457-1.015-2.2.4a2.493,2.493,0,0,1-.173.29,3.453,3.453,0,0,0-.529,3.05,2.08,2.08,0,0,1-.027,1.318,11.735,11.735,0,0,0-1.235,4.486,1.163,1.163,0,0,1-.133.484,9.306,9.306,0,0,0-.692,3.095,1.434,1.434,0,0,1-.43.856,32.628,32.628,0,0,1-2.8,2.321,7.7,7.7,0,0,0-1.787,1.751c-.52.707-.293,1.628-.82,2.313a.673.673,0,0,0,.059.637c.718.83,1.41,1.737,2.659,1.766.253.005.442.025.449.43a4.063,4.063,0,0,1-.494.309,1.446,1.446,0,0,0-.927,1.581,3.783,3.783,0,0,1-.871,2.806,4.494,4.494,0,0,0-.9,1.964,39.712,39.712,0,0,0-.712,4.141,2.312,2.312,0,0,1-.734,1.8,1.035,1.035,0,0,0-.291.75,11.7,11.7,0,0,1-1,4.245,7.494,7.494,0,0,1-2.241,3.584c-.058.748-.161,1.415-.15,2.081a4.08,4.08,0,0,1-.589,2.073c-.124.226-.053.553-.1.828a7.918,7.918,0,0,1-.234.973c-.243.776-.845,1.468-.542,2.368-.03.106-.054.214-.083.32a17.028,17.028,0,0,0,1.8.512A2.992,2.992,0,0,1,389.89,287.333Z"/><path class="cls-1" d="M389.89,287.333a1.872,1.872,0,0,0,1.994.572,3.874,3.874,0,0,1,2.607.385,2.236,2.236,0,0,0,1.773.189c.483-.149.975-.272,1.472-.373a3.612,3.612,0,0,1,2.9.489,11.505,11.505,0,0,0,1.663.77,4.433,4.433,0,0,1,.886.455,1.365,1.365,0,0,0,1.234.363.906.906,0,0,1,.617.177,1.5,1.5,0,0,0,1.275.192,8.367,8.367,0,0,1,4.324.16,12.534,12.534,0,0,0,3.963.694,10.121,10.121,0,0,1,1.167.141,5.345,5.345,0,0,0,1.5.085,2.065,2.065,0,0,1,1.736.336c.6.414,1.3.676,1.908,1.073a5.928,5.928,0,0,0,3.162,1.029,2.385,2.385,0,0,1,1.548.554,6.384,6.384,0,0,0,2.573,1.2c.976.243,1.924.605,2.882.921a2.226,2.226,0,0,0,1.478.132,4.807,4.807,0,0,1,.921-.164c.879-.685,1.559-1.264,2.289-1.772a4.015,4.015,0,0,1,2.562-.667c1.4.079,2.787.26,4.181.388a2.58,2.58,0,0,0,.5-.041c.614-.065,1.229-.109,1.839-.206a3.371,3.371,0,0,0,1.112-.318,5.727,5.727,0,0,1,3.08-.7,9.717,9.717,0,0,0,4.479-.551,6.645,6.645,0,0,1,1-.138,14.021,14.021,0,0,0,2.563-.775c.448-.216.637-.932,1.078-1.209.5-.314,1.259-.246,1.709-.6,1.117-.869,2.411-1.425,3.559-2.2a7.35,7.35,0,0,1,4.266-1.286c1.3,0,2.591.042,3.885,0a2.807,2.807,0,0,0,1.605-.356c1.16-.979,2.626-1.518,3.666-2.66a1.675,1.675,0,0,1,1.834-.564,1.922,1.922,0,0,0,1.625-.192,20.913,20.913,0,0,0,2.864-1.692,15.754,15.754,0,0,1,4.052-2.348,4.8,4.8,0,0,0,2.6-1.747,7.486,7.486,0,0,1,2.13-2.084,8.778,8.778,0,0,0,2.388-2.321c.3-.47.993-.673,1.457-1.057a1.193,1.193,0,0,0,.248-.31c-.15-.148-.3-.294-.456-.442-.353-.344-.5-.941-.892-1.2a6.955,6.955,0,0,1-2.053-2.831c-.187-.339-.317-.708-.485-1.058a3.274,3.274,0,0,0-.463-.875,7.171,7.171,0,0,1-1.576-2.928,3.328,3.328,0,0,0-.258-.619,53.022,53.022,0,0,1-2.5-5.325c-.41-.982-.876-1.943-1.37-2.886a24.969,24.969,0,0,1-1.194-3.681,6.963,6.963,0,0,1-.092-1,3.2,3.2,0,0,0-.282-.951,27.77,27.77,0,0,0-2.587-4.1,7.149,7.149,0,0,1-1.443-3.535,13.336,13.336,0,0,0-2.506-5.8,7.112,7.112,0,0,1-1.018-1.92,10.4,10.4,0,0,0-1.1-2.058,18.052,18.052,0,0,0-1.574-2.574,5.479,5.479,0,0,1-.86-4.5,1.845,1.845,0,0,1,1.6-1.538,1.088,1.088,0,0,0,.989-1.151,2.908,2.908,0,0,1,.3-1.111,4.9,4.9,0,0,0,.532-3.382,8.477,8.477,0,0,0-1.012-2.8,7.855,7.855,0,0,1-.854-2.7,13.61,13.61,0,0,0-1.5-4.788c-1.038-1.733-1.889-3.579-2.9-5.332a10.963,10.963,0,0,1-.891-3.573,1.431,1.431,0,0,1,.019-.609,3.859,3.859,0,0,1-.445.491c-.238.207-.6.46-.865.417-1.368-.223-2.458.734-3.746.8-.632.532-1.347.352-2.073.287a6.5,6.5,0,0,0-3.754.728c-1.023.562-1.979,1.25-2.954,1.9-.84.558-1.653,1.16-2.5,1.7a1.267,1.267,0,0,1-.919.249c-.982-.384-1.877.269-2.826.15a.588.588,0,0,0-.449.195c-.687.874-2.039.663-2.664,1.653-.087.138-.411.13-.626.183-.377.094-.763.155-1.129.278-.741.249-1.469.532-2.2.8a5.28,5.28,0,0,0-2.138.92,1.176,1.176,0,0,1-1.266.2,1.86,1.86,0,0,0-2.012.524,2.374,2.374,0,0,1-2.937.371,4.054,4.054,0,0,0-1.462-.31,2.316,2.316,0,0,0-2.43,1.891c-.051.217-.037.451-.091.668-.146.572-.4,1.048-1.071,1.148-.6.088-.777.513-.893,1.064a21.17,21.17,0,0,1-.7,2.426,1.424,1.424,0,0,1-.549.811,28.8,28.8,0,0,0-3,2.063,7.576,7.576,0,0,0-.786.591c-.3.242-.575.505-.867.751a4.559,4.559,0,0,0-.638.515,19.268,19.268,0,0,1-4.355,3.911,5.733,5.733,0,0,0-1.611,1.46,13.666,13.666,0,0,1-4.421,4.486.725.725,0,0,0-.354.35c-.257.94-1.1,1.244-1.817,1.633-.6.326-.707,1.075-1.2,1.342a3.628,3.628,0,0,0-1.43,1.09,5.934,5.934,0,0,1-.7.714c-.682-.565-1.282-1.066-1.887-1.563-1.277-1.049-1.457-1.015-2.2.4a2.493,2.493,0,0,1-.173.29,3.453,3.453,0,0,0-.529,3.05,2.08,2.08,0,0,1-.027,1.318,11.735,11.735,0,0,0-1.235,4.486,1.163,1.163,0,0,1-.133.484,9.306,9.306,0,0,0-.692,3.095,1.434,1.434,0,0,1-.43.856,32.628,32.628,0,0,1-2.8,2.321,7.7,7.7,0,0,0-1.787,1.751c-.52.707-.293,1.628-.82,2.313a.673.673,0,0,0,.059.637c.718.83,1.41,1.737,2.659,1.766.253.005.442.025.449.43a4.063,4.063,0,0,1-.494.309,1.446,1.446,0,0,0-.927,1.581,3.783,3.783,0,0,1-.871,2.806,4.494,4.494,0,0,0-.9,1.964,39.712,39.712,0,0,0-.712,4.141,2.312,2.312,0,0,1-.734,1.8,1.035,1.035,0,0,0-.291.75,11.7,11.7,0,0,1-1,4.245,7.494,7.494,0,0,1-2.241,3.584c-.058.748-.161,1.415-.15,2.081a4.08,4.08,0,0,1-.589,2.073c-.124.226-.053.553-.1.828a7.918,7.918,0,0,1-.234.973c-.243.776-.845,1.468-.542,2.368-.03.106-.054.214-.083.32a17.028,17.028,0,0,0,1.8.512A2.992,2.992,0,0,1,389.89,287.333Z"/><path class="cls-2" d="M701.548,201.989a1.808,1.808,0,0,1,.184-1.754.78.78,0,0,0,.094-.481c-.059-1.4-.076-2.807-.214-4.2a4.54,4.54,0,0,0-1.047-3.126c-.6-.547-.5-1.2-.692-1.818-.209-.685-.751-1.274-.6-2.063a6.54,6.54,0,0,1,.211-.8c.079-.241.189-.472.287-.711l-1.982-.738c.136-.787.217-1.563-.509-1.9a4.646,4.646,0,0,1-1.7-1.808c.125-.379.243-.738.34-1.03-.172-.374-.315-.677-.452-.984-.373-.842-.152-1.943-1.1-2.538a.176.176,0,0,1-.038-.158c.194-.508-.074-.844-.386-1.2a.818.818,0,0,1-.2-.622c.314-1.293-.272-2.735.7-3.829-.3-.7-.886-1.172-.713-1.947a.88.88,0,0,0-.254-.592c-.356-.431-.767-.817-1.116-1.253a3.733,3.733,0,0,1-.715-1.11c-.15-.469-.02-1.037-.2-1.488a5.285,5.285,0,0,0-.882-1.154.247.247,0,0,1-.046-.16c.071-.717-.555-1.027-.913-1.4a3.79,3.79,0,0,0,.117-.605c.01-.915.555-1.845-.126-2.754-.12-.163.03-.536.07-.81a16.472,16.472,0,0,0,.413-2.985,18.9,18.9,0,0,1-.043-1.99,3.92,3.92,0,0,0-.558-2.725c-.577-.737-.656-2.022-1.98-2.076-.12,0-.247-.212-.34-.346a5.7,5.7,0,0,0-2.037-1.712,2.763,2.763,0,0,1-1.474-1.537,2,2,0,0,0-.664-.719c-.77-.65-1.583-1.253-2.328-1.93a4.3,4.3,0,0,0-1.03-.83,2.761,2.761,0,0,1-1.49-1.758,20.782,20.782,0,0,0-1.337-3.063c-.475-1.045-1.172-2.1-.678-3.372.066-.169-.068-.425-.134-.632a8.783,8.783,0,0,1-.328-.943,7.049,7.049,0,0,0-.133-1.166,5.17,5.17,0,0,0-.715-1.027c.128-.233.211-.379.288-.526a3.345,3.345,0,0,0-1.166-4.817c-1.149-.771-2.19-1.7-3.271-2.556v-.9c-1.448-.147-2.762-.439-3.279-1.929-.606-.181-1.148-.324-1.676-.509a2.4,2.4,0,0,1-.872-.438,5.81,5.81,0,0,0-2.345-1.242c-1.174-.382-2.4-.614-3.543-1.081a19.7,19.7,0,0,1-3.8-1.682,6.506,6.506,0,0,1-2.186-2.276,4.942,4.942,0,0,0-2.332-2.088,1.975,1.975,0,0,1-.683-.442c-.4-.5-.777-.965-1.542-.731-.113.035-.337-.227-.485-.376a9.686,9.686,0,0,0-2.6-1.452c-1.477.129-2.985-.512-4.341.239a3.381,3.381,0,0,1-1.549-1.354,2.775,2.775,0,0,0-.736-.637,13.352,13.352,0,0,1-3.25-2.575,2.082,2.082,0,0,0-.857-.752,5.943,5.943,0,0,1-2.516-1.619,4.108,4.108,0,0,0-1.586-.878,9.7,9.7,0,0,1-2.667-1.381,13.6,13.6,0,0,0-2.273-1.4,14.74,14.74,0,0,1-2.162-1.591.708.708,0,0,0-.139-.094,32.88,32.88,0,0,0-6.178-2.573,1.137,1.137,0,0,1-.709-.4c-.455-.835-1.314-1.015-2.058-1.381-.956-.47-1.912-.941-2.89-1.362a2.387,2.387,0,0,0-1.14-.212,4.637,4.637,0,0,1-3.575-1.167c-.343-.28-.82-.392-1.17-.666a2.582,2.582,0,0,0-2.788-.646.464.464,0,0,1-.332,0,3.365,3.365,0,0,0-2.612.2,6.044,6.044,0,0,1-.984.146,2.083,2.083,0,0,0-.784.2c-1.085.73-2.528.555-3.554,1.425a.541.541,0,0,1-.324.076,6.531,6.531,0,0,0-1.493-.046c-.407.084-.9-.254-1.31-.389l-3.011,1.852c-.262-.175-.436-.384-.63-.4a3.852,3.852,0,0,0-2.435.157,4.245,4.245,0,0,1-3.381.617,3.577,3.577,0,0,0-.673-.013c-.78-.069-1.564-.122-2.338-.237a2.949,2.949,0,0,0-1.808.2,2.679,2.679,0,0,1-1.115.344,3.69,3.69,0,0,0-2.028.712,3.777,3.777,0,0,1-3.225.515,3.585,3.585,0,0,0-1.991.017c-.364.092-.907.177-1.134-.014a1.983,1.983,0,0,0-1.891-.263,3,3,0,0,1-2.469-.49,1.834,1.834,0,0,0-.273.073c-1.148.567-2.219,1.321-3.608,1.227-.268-.018-.594.272-.828.49-.327.3-.562.71-.9,1-.238.207-.6.46-.865.417-1.367-.223-2.458.734-3.745.8-.632.532-1.348.352-2.073.287a6.494,6.494,0,0,0-3.754.728c-1.023.562-1.979,1.25-2.956,1.9-.839.558-1.651,1.16-2.5,1.7a1.269,1.269,0,0,1-.919.249c-.983-.384-1.879.269-2.826.15a.591.591,0,0,0-.45.2c-.686.874-2.04.662-2.664,1.653-.087.138-.41.13-.625.183-.377.093-.764.155-1.13.278-.74.249-1.47.532-2.2.8a5.284,5.284,0,0,0-2.139.92,1.173,1.173,0,0,1-1.264.2,1.863,1.863,0,0,0-2.014.524,2.37,2.37,0,0,1-2.935.371,4.06,4.06,0,0,0-1.463-.31,2.318,2.318,0,0,0-2.431,1.891c-.05.218-.037.451-.091.668-.145.572-.395,1.048-1.069,1.148-.6.088-.777.513-.894,1.064a21.027,21.027,0,0,1-.7,2.426,2.139,2.139,0,0,1-.289.548c.048.121.089.242.127.365.067.208.2.464.136.633-.494,1.275.2,2.327.676,3.372a20.681,20.681,0,0,1,1.338,3.063,2.75,2.75,0,0,0,1.491,1.757,4.353,4.353,0,0,1,1.028.831c.747.677,1.558,1.28,2.33,1.93a1.973,1.973,0,0,1,.662.718,2.768,2.768,0,0,0,1.476,1.538,5.7,5.7,0,0,1,2.036,1.712c.093.134.221.341.339.345,1.325.054,1.4,1.34,1.98,2.077a3.908,3.908,0,0,1,.559,2.725,19.18,19.18,0,0,0,.042,1.99,16.393,16.393,0,0,1-.412,2.985c-.041.273-.191.647-.069.809.68.909.135,1.839.125,2.755a3.836,3.836,0,0,1-.118.6c.358.376.985.686.914,1.4a.241.241,0,0,0,.046.16,5.279,5.279,0,0,1,.881,1.154c.179.451.048,1.018.2,1.488a3.714,3.714,0,0,0,.715,1.11c.349.435.761.821,1.116,1.253a.885.885,0,0,1,.254.591c-.173.776.415,1.249.713,1.948-.971,1.094-.385,2.536-.7,3.829a.811.811,0,0,0,.2.622c.313.355.58.691.386,1.2a.176.176,0,0,0,.037.158c.951.595.729,1.7,1.1,2.538.136.306.28.61.452.984-.1.291-.216.651-.34,1.03a4.624,4.624,0,0,0,1.7,1.807c.726.336.643,1.112.507,1.9l1.982.739c-.1.239-.207.469-.286.71a6.6,6.6,0,0,0-.21.8c-.153.789.391,1.377.6,2.063.189.621.093,1.271.692,1.818a4.547,4.547,0,0,1,1.047,3.125c.139,1.394.155,2.8.214,4.2a.783.783,0,0,1-.093.48,1.8,1.8,0,0,0-.184,1.755,2.811,2.811,0,0,1-.007,2.285,1.087,1.087,0,0,0,.025.654,2.364,2.364,0,0,1-.221,1.636,2.06,2.06,0,0,0-.2,1.621,5.842,5.842,0,0,1,.118,1.5,2.475,2.475,0,0,1-.1,1.158c-.494.891-.38,1.977-1.022,2.826-.35.464-.166,1.079-.071,1.64a17.335,17.335,0,0,1,.217,1.832,1.359,1.359,0,0,1-.156.812,5.156,5.156,0,0,0-.583,2.254c-.024.135-.018.264-.03.4.038.029.077.051.115.08a9.717,9.717,0,0,0,2.668,1.381,4.1,4.1,0,0,1,1.585.878,5.943,5.943,0,0,0,2.518,1.619,2.071,2.071,0,0,1,.855.752,13.324,13.324,0,0,0,3.252,2.575,2.77,2.77,0,0,1,.735.637,3.371,3.371,0,0,0,1.549,1.354c1.355-.751,2.864-.11,4.341-.239a9.686,9.686,0,0,1,2.6,1.452c.148.149.371.411.485.376.765-.234,1.137.228,1.541.731a1.958,1.958,0,0,0,.685.441,4.961,4.961,0,0,1,2.331,2.089,6.491,6.491,0,0,0,2.187,2.276,19.654,19.654,0,0,0,3.8,1.682c1.138.467,2.369.7,3.545,1.081a5.823,5.823,0,0,1,2.345,1.242,2.389,2.389,0,0,0,.872.438c.527.185,1.069.328,1.676.509.515,1.49,1.829,1.782,3.278,1.929v.9c1.08.853,2.121,1.785,3.27,2.556a3.346,3.346,0,0,1,1.168,4.817c-.079.147-.161.293-.289.526a5.217,5.217,0,0,1,.716,1.027,7.146,7.146,0,0,1,.132,1.166,8.776,8.776,0,0,0,.327.943c.066.208.2.463.135.632-.493,1.276.2,2.327.678,3.372a20.672,20.672,0,0,1,1.336,3.063,2.761,2.761,0,0,0,1.492,1.758,4.325,4.325,0,0,1,1.028.83c.746.677,1.558,1.28,2.329,1.93a2,2,0,0,1,.664.719,2.768,2.768,0,0,0,1.475,1.537,5.7,5.7,0,0,1,2.036,1.712c.093.134.221.341.339.346,1.324.054,1.4,1.339,1.981,2.076a3.918,3.918,0,0,1,.557,2.725,19.457,19.457,0,0,0,.043,1.99,16.3,16.3,0,0,1-.412,2.985c-.041.274-.191.647-.069.81.68.909.135,1.839.126,2.754a4.059,4.059,0,0,1-.118.6c.358.376.984.686.912,1.4a.247.247,0,0,0,.046.16,5.254,5.254,0,0,1,.882,1.154c.178.451.049,1.018.2,1.488a3.75,3.75,0,0,0,.714,1.11c.351.436.762.822,1.116,1.253a.876.876,0,0,1,.254.592c-.171.775.416,1.248.715,1.947-.973,1.094-.386,2.536-.7,3.829a.826.826,0,0,0,.2.622c.313.355.581.691.388,1.2a.17.17,0,0,0,.036.158c.95.6.729,1.7,1.1,2.538.135.307.279.61.45.984-.1.292-.214.651-.339,1.03a4.627,4.627,0,0,0,1.7,1.808c.726.335.644,1.111.508,1.9l1.982.738c-.1.239-.209.47-.287.711a6.92,6.92,0,0,0-.211.8c-.151.789.391,1.378.6,2.063.19.621.092,1.271.692,1.818a4.544,4.544,0,0,1,1.046,3.126c.139,1.394.156,2.8.215,4.2a.787.787,0,0,1-.094.481,1.808,1.808,0,0,0-.184,1.754,2.819,2.819,0,0,1-.005,2.285,1.07,1.07,0,0,0,.023.654,2.361,2.361,0,0,1-.22,1.637,2.059,2.059,0,0,0-.2,1.621,5.79,5.79,0,0,1,.117,1.5,2.649,2.649,0,0,1-.1,1.122,5.855,5.855,0,0,0,1.032-.347,6.655,6.655,0,0,1,1-.137,14.061,14.061,0,0,0,2.562-.776c.448-.215.637-.932,1.078-1.209.5-.314,1.259-.246,1.71-.6,1.116-.87,2.41-1.426,3.558-2.2a7.353,7.353,0,0,1,4.267-1.286c1.295,0,2.591.043,3.883,0a2.807,2.807,0,0,0,1.606-.357c1.16-.979,2.626-1.517,3.667-2.66a1.674,1.674,0,0,1,1.833-.564,1.919,1.919,0,0,0,1.625-.192,20.846,20.846,0,0,0,2.864-1.691,15.719,15.719,0,0,1,4.051-2.348,4.8,4.8,0,0,0,2.6-1.748,7.486,7.486,0,0,1,2.131-2.083,8.782,8.782,0,0,0,2.388-2.322c.3-.47.992-.673,1.457-1.056.508-.419.464-1.228,1.2-1.561a2.211,2.211,0,0,0,1.26-2.193c.013-1.545.445-2.022,1.962-2.153a5.465,5.465,0,0,0,2.616-1.062c.509-.34,1.046-.639,1.574-.948.192-.113.466-.152.583-.312a3.429,3.429,0,0,1,2.153-1.2,1.692,1.692,0,0,0,1.34-1.366c.1-.488.285-.96.413-1.379,1.055-.768,2.055-1.479,3.032-2.217a2.091,2.091,0,0,0,.667-.724,5.633,5.633,0,0,1,1.611-2.306c.124-.1.174-.285.269-.424a16.424,16.424,0,0,1,1.549-2.2,7.93,7.93,0,0,0,1.414-2.95c.231-.6.377-1.276.561-1.919a2.2,2.2,0,0,1,1.81-1.766,4.373,4.373,0,0,0,2.065-1.1,17.168,17.168,0,0,0,3.008-2.913,2.122,2.122,0,0,1,1.366-.915,2.823,2.823,0,0,0,1.029-.511c1.819-1.3,2.484-3.42,3.631-5.2.085-.131.057-.33.1-.491.217-.752.4-1.517.679-2.247a2.745,2.745,0,0,0,.212-1.632,2.023,2.023,0,0,1,.727-2.1,3.386,3.386,0,0,0,1.144-2.343c.14-1.141.165-2.384,1.206-3.246a3.354,3.354,0,0,1,.205-2.966,14.8,14.8,0,0,0,1.124-2.773,10.552,10.552,0,0,0,.636-4.964,4.508,4.508,0,0,1,.629-3.049,13.879,13.879,0,0,0,.734-1.33,8.851,8.851,0,0,0,.976-4.719,8.249,8.249,0,0,1,.014-2.317,5.143,5.143,0,0,1,.584-2.254,1.373,1.373,0,0,0,.155-.812,17.1,17.1,0,0,0-.216-1.832c-.1-.56-.279-1.176.071-1.64.641-.849.527-1.935,1.021-2.826a2.488,2.488,0,0,0,.1-1.158,5.79,5.79,0,0,0-.118-1.5,2.067,2.067,0,0,1,.2-1.621,2.356,2.356,0,0,0,.221-1.637,1.078,1.078,0,0,1-.023-.654A2.819,2.819,0,0,0,701.548,201.989Z"/><path class="cls-3" d="M512.345,115.157a7.368,7.368,0,0,0-.786.591c-.3.242-.575.5-.867.751a4.55,4.55,0,0,0-.637.515,19.294,19.294,0,0,1-4.356,3.911,5.76,5.76,0,0,0-1.611,1.46,13.682,13.682,0,0,1-4.42,4.486.723.723,0,0,0-.355.35c-.256.94-1.1,1.244-1.816,1.633-.6.326-.707,1.075-1.205,1.342a3.635,3.635,0,0,0-1.432,1.09,5.847,5.847,0,0,1-.695.714c-.681-.565-1.282-1.066-1.886-1.563-1.277-1.049-1.458-1.015-2.2.4a2.353,2.353,0,0,1-.172.29,3.46,3.46,0,0,0-.53,3.05,2.073,2.073,0,0,1-.025,1.318,11.7,11.7,0,0,0-1.235,4.486,1.166,1.166,0,0,1-.135.484,9.379,9.379,0,0,0-.691,3.095,1.434,1.434,0,0,1-.43.856,32.782,32.782,0,0,1-2.8,2.321,7.7,7.7,0,0,0-1.787,1.751c-.521.707-.292,1.628-.82,2.313a.673.673,0,0,0,.059.637c.719.83,1.409,1.736,2.66,1.766.253.005.442.025.448.43a3.987,3.987,0,0,1-.494.309,1.448,1.448,0,0,0-.928,1.581,3.79,3.79,0,0,1-.869,2.806,4.486,4.486,0,0,0-.9,1.964,39.709,39.709,0,0,0-.711,4.141,2.307,2.307,0,0,1-.735,1.8,1.047,1.047,0,0,0-.291.75,11.634,11.634,0,0,1-1,4.245,7.5,7.5,0,0,1-2.24,3.584c-.06.748-.162,1.415-.151,2.081a4.089,4.089,0,0,1-.588,2.073c-.125.226-.053.553-.1.828a8.3,8.3,0,0,1-.235.973c-.242.776-.844,1.468-.542,2.368-.722,2.539-1.146,5.159-2.09,7.639a13.393,13.393,0,0,0-.774,2.4,1.979,1.979,0,0,1-1.419,1.856,1.342,1.342,0,0,0-.937,1,4.6,4.6,0,0,1,.452-.512c.233-.218.561-.508.827-.49,1.391.094,2.462-.66,3.608-1.227a1.875,1.875,0,0,1,.273-.073,3,3,0,0,0,2.47.49,1.982,1.982,0,0,1,1.891.263c.227.191.77.106,1.135.014a3.581,3.581,0,0,1,1.99-.017,3.775,3.775,0,0,0,3.224-.515,3.69,3.69,0,0,1,2.029-.712,2.679,2.679,0,0,0,1.115-.344,2.953,2.953,0,0,1,1.809-.2c.773.115,1.556.168,2.337.237a3.577,3.577,0,0,1,.673.013,4.241,4.241,0,0,0,3.38-.617,3.857,3.857,0,0,1,2.437-.157c.193.02.367.229.628.4l3.011-1.852c.409.135.9.473,1.312.389a6.537,6.537,0,0,1,1.493.046.535.535,0,0,0,.322-.076c1.027-.87,2.469-.695,3.556-1.425a2.078,2.078,0,0,1,.782-.2,6.027,6.027,0,0,0,.984-.146,3.368,3.368,0,0,1,2.613-.205.461.461,0,0,0,.331,0,2.584,2.584,0,0,1,2.789.646c.349.274.827.386,1.17.666a4.635,4.635,0,0,0,3.575,1.167,2.389,2.389,0,0,1,1.14.212c.977.421,1.934.892,2.89,1.362.744.366,1.6.546,2.058,1.381a1.137,1.137,0,0,0,.709.4,32.962,32.962,0,0,1,6.177,2.572.767.767,0,0,1,.14.095,14.74,14.74,0,0,0,2.162,1.591,13.758,13.758,0,0,1,2.157,1.322c.012-.132.006-.261.03-.4a5.156,5.156,0,0,1,.583-2.254,1.359,1.359,0,0,0,.156-.812,17.335,17.335,0,0,0-.217-1.832c-.095-.561-.279-1.176.071-1.64.642-.849.528-1.935,1.022-2.826a2.475,2.475,0,0,0,.1-1.158,5.842,5.842,0,0,0-.118-1.5,2.06,2.06,0,0,1,.2-1.621,2.364,2.364,0,0,0,.221-1.636,1.087,1.087,0,0,1-.025-.654,2.811,2.811,0,0,0,.007-2.285,1.8,1.8,0,0,1,.184-1.755.783.783,0,0,0,.093-.48c-.059-1.4-.075-2.808-.214-4.2a4.547,4.547,0,0,0-1.047-3.125c-.6-.547-.5-1.2-.692-1.818-.208-.686-.752-1.274-.6-2.063a6.6,6.6,0,0,1,.21-.8c.079-.241.188-.471.286-.71l-1.982-.739c.136-.786.219-1.562-.507-1.9a4.624,4.624,0,0,1-1.7-1.807c.124-.379.244-.739.34-1.03-.172-.374-.316-.678-.452-.984-.374-.842-.152-1.943-1.1-2.538a.176.176,0,0,1-.037-.158c.194-.508-.073-.844-.386-1.2a.811.811,0,0,1-.2-.622c.314-1.293-.272-2.735.7-3.829-.3-.7-.886-1.172-.713-1.948a.885.885,0,0,0-.254-.591c-.355-.432-.767-.818-1.116-1.253a3.714,3.714,0,0,1-.715-1.11c-.151-.47-.02-1.037-.2-1.488a5.279,5.279,0,0,0-.881-1.154.241.241,0,0,1-.046-.16c.071-.717-.556-1.027-.914-1.4a3.836,3.836,0,0,0,.118-.6c.01-.916.555-1.846-.125-2.755-.122-.162.028-.536.069-.809a16.393,16.393,0,0,0,.412-2.985,19.18,19.18,0,0,1-.042-1.99,3.908,3.908,0,0,0-.559-2.725c-.577-.737-.655-2.023-1.98-2.077-.118,0-.246-.211-.339-.345a5.7,5.7,0,0,0-2.036-1.712A2.768,2.768,0,0,1,523.4,125.5a1.973,1.973,0,0,0-.662-.718c-.772-.65-1.583-1.253-2.33-1.93a4.353,4.353,0,0,0-1.028-.831,2.75,2.75,0,0,1-1.491-1.757,20.681,20.681,0,0,0-1.338-3.063c-.475-1.045-1.17-2.1-.676-3.372.064-.169-.069-.425-.136-.633-.038-.123-.079-.244-.127-.365a.785.785,0,0,1-.259.263A28.814,28.814,0,0,0,512.345,115.157Z"/><path class="cls-1" d="M512.345,115.157a7.368,7.368,0,0,0-.786.591c-.3.242-.575.5-.867.751a4.55,4.55,0,0,0-.637.515,19.294,19.294,0,0,1-4.356,3.911,5.76,5.76,0,0,0-1.611,1.46,13.682,13.682,0,0,1-4.42,4.486.723.723,0,0,0-.355.35c-.256.94-1.1,1.244-1.816,1.633-.6.326-.707,1.075-1.205,1.342a3.635,3.635,0,0,0-1.432,1.09,5.847,5.847,0,0,1-.695.714c-.681-.565-1.282-1.066-1.886-1.563-1.277-1.049-1.458-1.015-2.2.4a2.353,2.353,0,0,1-.172.29,3.46,3.46,0,0,0-.53,3.05,2.073,2.073,0,0,1-.025,1.318,11.7,11.7,0,0,0-1.235,4.486,1.166,1.166,0,0,1-.135.484,9.379,9.379,0,0,0-.691,3.095,1.434,1.434,0,0,1-.43.856,32.782,32.782,0,0,1-2.8,2.321,7.7,7.7,0,0,0-1.787,1.751c-.521.707-.292,1.628-.82,2.313a.673.673,0,0,0,.059.637c.719.83,1.409,1.736,2.66,1.766.253.005.442.025.448.43a3.987,3.987,0,0,1-.494.309,1.448,1.448,0,0,0-.928,1.581,3.79,3.79,0,0,1-.869,2.806,4.486,4.486,0,0,0-.9,1.964,39.709,39.709,0,0,0-.711,4.141,2.307,2.307,0,0,1-.735,1.8,1.047,1.047,0,0,0-.291.75,11.634,11.634,0,0,1-1,4.245,7.5,7.5,0,0,1-2.24,3.584c-.06.748-.162,1.415-.151,2.081a4.089,4.089,0,0,1-.588,2.073c-.125.226-.053.553-.1.828a8.3,8.3,0,0,1-.235.973c-.242.776-.844,1.468-.542,2.368-.722,2.539-1.146,5.159-2.09,7.639a13.393,13.393,0,0,0-.774,2.4,1.979,1.979,0,0,1-1.419,1.856,1.342,1.342,0,0,0-.937,1,4.6,4.6,0,0,1,.452-.512c.233-.218.561-.508.827-.49,1.391.094,2.462-.66,3.608-1.227a1.875,1.875,0,0,1,.273-.073,3,3,0,0,0,2.47.49,1.982,1.982,0,0,1,1.891.263c.227.191.77.106,1.135.014a3.581,3.581,0,0,1,1.99-.017,3.775,3.775,0,0,0,3.224-.515,3.69,3.69,0,0,1,2.029-.712,2.679,2.679,0,0,0,1.115-.344,2.953,2.953,0,0,1,1.809-.2c.773.115,1.556.168,2.337.237a3.577,3.577,0,0,1,.673.013,4.241,4.241,0,0,0,3.38-.617,3.857,3.857,0,0,1,2.437-.157c.193.02.367.229.628.4l3.011-1.852c.409.135.9.473,1.312.389a6.537,6.537,0,0,1,1.493.046.535.535,0,0,0,.322-.076c1.027-.87,2.469-.695,3.556-1.425a2.078,2.078,0,0,1,.782-.2,6.027,6.027,0,0,0,.984-.146,3.368,3.368,0,0,1,2.613-.205.461.461,0,0,0,.331,0,2.584,2.584,0,0,1,2.789.646c.349.274.827.386,1.17.666a4.635,4.635,0,0,0,3.575,1.167,2.389,2.389,0,0,1,1.14.212c.977.421,1.934.892,2.89,1.362.744.366,1.6.546,2.058,1.381a1.137,1.137,0,0,0,.709.4,32.962,32.962,0,0,1,6.177,2.572.767.767,0,0,1,.14.095,14.74,14.74,0,0,0,2.162,1.591,13.758,13.758,0,0,1,2.157,1.322c.012-.132.006-.261.03-.4a5.156,5.156,0,0,1,.583-2.254,1.359,1.359,0,0,0,.156-.812,17.335,17.335,0,0,0-.217-1.832c-.095-.561-.279-1.176.071-1.64.642-.849.528-1.935,1.022-2.826a2.475,2.475,0,0,0,.1-1.158,5.842,5.842,0,0,0-.118-1.5,2.06,2.06,0,0,1,.2-1.621,2.364,2.364,0,0,0,.221-1.636,1.087,1.087,0,0,1-.025-.654,2.811,2.811,0,0,0,.007-2.285,1.8,1.8,0,0,1,.184-1.755.783.783,0,0,0,.093-.48c-.059-1.4-.075-2.808-.214-4.2a4.547,4.547,0,0,0-1.047-3.125c-.6-.547-.5-1.2-.692-1.818-.208-.686-.752-1.274-.6-2.063a6.6,6.6,0,0,1,.21-.8c.079-.241.188-.471.286-.71l-1.982-.739c.136-.786.219-1.562-.507-1.9a4.624,4.624,0,0,1-1.7-1.807c.124-.379.244-.739.34-1.03-.172-.374-.316-.678-.452-.984-.374-.842-.152-1.943-1.1-2.538a.176.176,0,0,1-.037-.158c.194-.508-.073-.844-.386-1.2a.811.811,0,0,1-.2-.622c.314-1.293-.272-2.735.7-3.829-.3-.7-.886-1.172-.713-1.948a.885.885,0,0,0-.254-.591c-.355-.432-.767-.818-1.116-1.253a3.714,3.714,0,0,1-.715-1.11c-.151-.47-.02-1.037-.2-1.488a5.279,5.279,0,0,0-.881-1.154.241.241,0,0,1-.046-.16c.071-.717-.556-1.027-.914-1.4a3.836,3.836,0,0,0,.118-.6c.01-.916.555-1.846-.125-2.755-.122-.162.028-.536.069-.809a16.393,16.393,0,0,0,.412-2.985,19.18,19.18,0,0,1-.042-1.99,3.908,3.908,0,0,0-.559-2.725c-.577-.737-.655-2.023-1.98-2.077-.118,0-.246-.211-.339-.345a5.7,5.7,0,0,0-2.036-1.712A2.768,2.768,0,0,1,523.4,125.5a1.973,1.973,0,0,0-.662-.718c-.772-.65-1.583-1.253-2.33-1.93a4.353,4.353,0,0,0-1.028-.831,2.75,2.75,0,0,1-1.491-1.757,20.681,20.681,0,0,0-1.338-3.063c-.475-1.045-1.17-2.1-.676-3.372.064-.169-.069-.425-.136-.633-.038-.123-.079-.244-.127-.365a.785.785,0,0,1-.259.263A28.814,28.814,0,0,0,512.345,115.157Z"/><path class="cls-3" d="M612.832,312.15a5.79,5.79,0,0,0-.117-1.5,2.059,2.059,0,0,1,.2-1.621,2.361,2.361,0,0,0,.22-1.637,1.07,1.07,0,0,1-.023-.654,2.819,2.819,0,0,0,.005-2.285,1.808,1.808,0,0,1,.184-1.754.787.787,0,0,0,.094-.481c-.059-1.4-.076-2.807-.215-4.2a4.544,4.544,0,0,0-1.046-3.126c-.6-.547-.5-1.2-.692-1.818-.209-.685-.751-1.274-.6-2.063a6.92,6.92,0,0,1,.211-.8c.078-.241.189-.472.287-.711l-1.982-.738c.136-.787.218-1.563-.508-1.9a4.627,4.627,0,0,1-1.7-1.808c.125-.379.244-.738.339-1.03-.171-.374-.315-.677-.45-.984-.375-.842-.154-1.943-1.1-2.538a.17.17,0,0,1-.036-.158c.193-.508-.075-.844-.388-1.2a.826.826,0,0,1-.2-.622c.315-1.293-.272-2.735.7-3.829-.3-.7-.886-1.172-.715-1.947a.876.876,0,0,0-.254-.592c-.354-.431-.765-.817-1.116-1.253a3.75,3.75,0,0,1-.714-1.11c-.15-.47-.021-1.037-.2-1.488a5.254,5.254,0,0,0-.882-1.154.247.247,0,0,1-.046-.16c.072-.717-.554-1.027-.912-1.4a4.059,4.059,0,0,0,.118-.6c.009-.915.554-1.845-.126-2.754-.122-.163.028-.536.069-.81a16.3,16.3,0,0,0,.412-2.985,19.457,19.457,0,0,1-.043-1.99,3.918,3.918,0,0,0-.557-2.725c-.578-.737-.657-2.022-1.981-2.076-.118,0-.246-.212-.339-.346a5.7,5.7,0,0,0-2.036-1.712,2.768,2.768,0,0,1-1.475-1.537,2,2,0,0,0-.664-.719c-.771-.65-1.583-1.253-2.329-1.93a4.325,4.325,0,0,0-1.028-.83,2.761,2.761,0,0,1-1.492-1.758,20.672,20.672,0,0,0-1.336-3.063c-.475-1.045-1.171-2.1-.678-3.372.066-.169-.069-.424-.135-.632a8.776,8.776,0,0,1-.327-.943,7.146,7.146,0,0,0-.132-1.166,5.217,5.217,0,0,0-.716-1.027c.128-.233.21-.379.289-.526a3.346,3.346,0,0,0-1.168-4.817c-1.149-.771-2.19-1.7-3.27-2.556v-.9c-1.449-.147-2.763-.439-3.278-1.929-.607-.181-1.149-.324-1.676-.509a2.389,2.389,0,0,1-.872-.438,5.823,5.823,0,0,0-2.345-1.242c-1.176-.382-2.407-.614-3.545-1.081a19.654,19.654,0,0,1-3.8-1.682,6.491,6.491,0,0,1-2.187-2.276,4.961,4.961,0,0,0-2.331-2.089,1.958,1.958,0,0,1-.685-.441c-.4-.5-.776-.965-1.541-.731-.114.035-.337-.227-.485-.376a9.686,9.686,0,0,0-2.6-1.452c-1.477.129-2.986-.512-4.341.239A3.371,3.371,0,0,1,551,208.446a2.77,2.77,0,0,0-.735-.637,13.324,13.324,0,0,1-3.252-2.575,2.071,2.071,0,0,0-.855-.752,5.943,5.943,0,0,1-2.518-1.619,4.1,4.1,0,0,0-1.585-.878,9.717,9.717,0,0,1-2.668-1.381c-.038-.029-.077-.051-.115-.08a9.351,9.351,0,0,0,.015,1.921,8.833,8.833,0,0,1-.975,4.719,13.744,13.744,0,0,1-.734,1.329,4.51,4.51,0,0,0-.629,3.049,10.557,10.557,0,0,1-.635,4.965,14.968,14.968,0,0,1-1.125,2.773,3.354,3.354,0,0,0-.206,2.966c-1.041.862-1.066,2.1-1.2,3.246a3.4,3.4,0,0,1-1.144,2.343,2.024,2.024,0,0,0-.729,2.1,2.714,2.714,0,0,1-.212,1.632c-.277.73-.461,1.495-.679,2.247-.046.161-.019.36-.1.491-1.146,1.778-1.812,3.9-3.631,5.2a2.82,2.82,0,0,1-1.03.511,2.125,2.125,0,0,0-1.366.915,17.129,17.129,0,0,1-3.007,2.913,4.373,4.373,0,0,1-2.064,1.1A2.2,2.2,0,0,0,518,246.707c-.184.643-.33,1.319-.561,1.919a7.933,7.933,0,0,1-1.414,2.949,16.489,16.489,0,0,0-1.549,2.2c-.1.139-.145.329-.269.425a5.635,5.635,0,0,0-1.612,2.306,2.078,2.078,0,0,1-.666.724c-.978.738-1.976,1.449-3.031,2.217-.128.419-.314.89-.414,1.379a1.694,1.694,0,0,1-1.339,1.366,3.429,3.429,0,0,0-2.154,1.2c-.116.16-.392.2-.584.312-.528.309-1.065.607-1.573.948a5.475,5.475,0,0,1-2.616,1.062c-1.517.131-1.949.608-1.963,2.153a2.2,2.2,0,0,1-1.259,2.192c-.583.264-.686.821-.951,1.251.722.714,1.436,1.438,2.189,2.123a19.054,19.054,0,0,0,3.038,2.394,1.79,1.79,0,0,1,.81.8,2.589,2.589,0,0,0,1.805,1.614c.782.3,1.568.59,2.326.943a8.842,8.842,0,0,1,2.779,1.849,15.369,15.369,0,0,1,2.385,3.211c.354.64.739,1.263,1.117,1.889a2.845,2.845,0,0,0,1.816,1.385,17.2,17.2,0,0,1,2.851,1.022,2.565,2.565,0,0,1,1.262,1.033,25.113,25.113,0,0,0,1.427,2.073,3.363,3.363,0,0,0,2.126,1.777,1.459,1.459,0,0,1,1.18,1.1,3.709,3.709,0,0,0,1.071,1.862,11.046,11.046,0,0,1,1.493,2.028c.73,1.438,2.292,1.89,3.307,2.975.117.125.423.125.634.1a3.328,3.328,0,0,1,3.27,1.636,1.638,1.638,0,0,0,.288.412,1.952,1.952,0,0,0,.706.408c1.205.267,2.423.473,3.626.744a7.883,7.883,0,0,1,1.6.528,4.681,4.681,0,0,0,4.177.322.912.912,0,0,1,.488-.095,11.446,11.446,0,0,1,2.305.415,16.2,16.2,0,0,0,2.257.643,3,3,0,0,1,1.77.908,1.871,1.871,0,0,0,1.994.572,3.87,3.87,0,0,1,2.606.386,2.238,2.238,0,0,0,1.774.188c.484-.149.976-.272,1.471-.373a3.616,3.616,0,0,1,2.905.489,11.388,11.388,0,0,0,1.662.77,4.551,4.551,0,0,1,.887.455,1.367,1.367,0,0,0,1.233.364.905.905,0,0,1,.618.176,1.5,1.5,0,0,0,1.273.192,8.371,8.371,0,0,1,4.325.16,12.569,12.569,0,0,0,3.964.7,9.978,9.978,0,0,1,1.167.14,5.3,5.3,0,0,0,1.5.085,2.064,2.064,0,0,1,1.734.336c.6.414,1.3.677,1.91,1.073a5.928,5.928,0,0,0,3.161,1.029,2.383,2.383,0,0,1,1.548.554,6.383,6.383,0,0,0,2.573,1.2c.977.243,1.924.6,2.882.921a2.227,2.227,0,0,0,1.479.132,4.895,4.895,0,0,1,.92-.164c.879-.685,1.559-1.263,2.289-1.772a4.025,4.025,0,0,1,2.562-.667c1.4.08,2.788.26,4.181.388a2.573,2.573,0,0,0,.5-.041c.613-.065,1.23-.109,1.838-.206a3.381,3.381,0,0,0,1.114-.317,5.715,5.715,0,0,1,3.08-.706,12.487,12.487,0,0,0,3.445-.2A2.649,2.649,0,0,0,612.832,312.15Z"/><path class="cls-1" d="M612.832,312.15a5.79,5.79,0,0,0-.117-1.5,2.059,2.059,0,0,1,.2-1.621,2.361,2.361,0,0,0,.22-1.637,1.07,1.07,0,0,1-.023-.654,2.819,2.819,0,0,0,.005-2.285,1.808,1.808,0,0,1,.184-1.754.787.787,0,0,0,.094-.481c-.059-1.4-.076-2.807-.215-4.2a4.544,4.544,0,0,0-1.046-3.126c-.6-.547-.5-1.2-.692-1.818-.209-.685-.751-1.274-.6-2.063a6.92,6.92,0,0,1,.211-.8c.078-.241.189-.472.287-.711l-1.982-.738c.136-.787.218-1.563-.508-1.9a4.627,4.627,0,0,1-1.7-1.808c.125-.379.244-.738.339-1.03-.171-.374-.315-.677-.45-.984-.375-.842-.154-1.943-1.1-2.538a.17.17,0,0,1-.036-.158c.193-.508-.075-.844-.388-1.2a.826.826,0,0,1-.2-.622c.315-1.293-.272-2.735.7-3.829-.3-.7-.886-1.172-.715-1.947a.876.876,0,0,0-.254-.592c-.354-.431-.765-.817-1.116-1.253a3.75,3.75,0,0,1-.714-1.11c-.15-.47-.021-1.037-.2-1.488a5.254,5.254,0,0,0-.882-1.154.247.247,0,0,1-.046-.16c.072-.717-.554-1.027-.912-1.4a4.059,4.059,0,0,0,.118-.6c.009-.915.554-1.845-.126-2.754-.122-.163.028-.536.069-.81a16.3,16.3,0,0,0,.412-2.985,19.457,19.457,0,0,1-.043-1.99,3.918,3.918,0,0,0-.557-2.725c-.578-.737-.657-2.022-1.981-2.076-.118,0-.246-.212-.339-.346a5.7,5.7,0,0,0-2.036-1.712,2.768,2.768,0,0,1-1.475-1.537,2,2,0,0,0-.664-.719c-.771-.65-1.583-1.253-2.329-1.93a4.325,4.325,0,0,0-1.028-.83,2.761,2.761,0,0,1-1.492-1.758,20.672,20.672,0,0,0-1.336-3.063c-.475-1.045-1.171-2.1-.678-3.372.066-.169-.069-.424-.135-.632a8.776,8.776,0,0,1-.327-.943,7.146,7.146,0,0,0-.132-1.166,5.217,5.217,0,0,0-.716-1.027c.128-.233.21-.379.289-.526a3.346,3.346,0,0,0-1.168-4.817c-1.149-.771-2.19-1.7-3.27-2.556v-.9c-1.449-.147-2.763-.439-3.278-1.929-.607-.181-1.149-.324-1.676-.509a2.389,2.389,0,0,1-.872-.438,5.823,5.823,0,0,0-2.345-1.242c-1.176-.382-2.407-.614-3.545-1.081a19.654,19.654,0,0,1-3.8-1.682,6.491,6.491,0,0,1-2.187-2.276,4.961,4.961,0,0,0-2.331-2.089,1.958,1.958,0,0,1-.685-.441c-.4-.5-.776-.965-1.541-.731-.114.035-.337-.227-.485-.376a9.686,9.686,0,0,0-2.6-1.452c-1.477.129-2.986-.512-4.341.239A3.371,3.371,0,0,1,551,208.446a2.77,2.77,0,0,0-.735-.637,13.324,13.324,0,0,1-3.252-2.575,2.071,2.071,0,0,0-.855-.752,5.943,5.943,0,0,1-2.518-1.619,4.1,4.1,0,0,0-1.585-.878,9.717,9.717,0,0,1-2.668-1.381c-.038-.029-.077-.051-.115-.08a9.351,9.351,0,0,0,.015,1.921,8.833,8.833,0,0,1-.975,4.719,13.744,13.744,0,0,1-.734,1.329,4.51,4.51,0,0,0-.629,3.049,10.557,10.557,0,0,1-.635,4.965,14.968,14.968,0,0,1-1.125,2.773,3.354,3.354,0,0,0-.206,2.966c-1.041.862-1.066,2.1-1.2,3.246a3.4,3.4,0,0,1-1.144,2.343,2.024,2.024,0,0,0-.729,2.1,2.714,2.714,0,0,1-.212,1.632c-.277.73-.461,1.495-.679,2.247-.046.161-.019.36-.1.491-1.146,1.778-1.812,3.9-3.631,5.2a2.82,2.82,0,0,1-1.03.511,2.125,2.125,0,0,0-1.366.915,17.129,17.129,0,0,1-3.007,2.913,4.373,4.373,0,0,1-2.064,1.1A2.2,2.2,0,0,0,518,246.707c-.184.643-.33,1.319-.561,1.919a7.933,7.933,0,0,1-1.414,2.949,16.489,16.489,0,0,0-1.549,2.2c-.1.139-.145.329-.269.425a5.635,5.635,0,0,0-1.612,2.306,2.078,2.078,0,0,1-.666.724c-.978.738-1.976,1.449-3.031,2.217-.128.419-.314.89-.414,1.379a1.694,1.694,0,0,1-1.339,1.366,3.429,3.429,0,0,0-2.154,1.2c-.116.16-.392.2-.584.312-.528.309-1.065.607-1.573.948a5.475,5.475,0,0,1-2.616,1.062c-1.517.131-1.949.608-1.963,2.153a2.2,2.2,0,0,1-1.259,2.192c-.583.264-.686.821-.951,1.251.722.714,1.436,1.438,2.189,2.123a19.054,19.054,0,0,0,3.038,2.394,1.79,1.79,0,0,1,.81.8,2.589,2.589,0,0,0,1.805,1.614c.782.3,1.568.59,2.326.943a8.842,8.842,0,0,1,2.779,1.849,15.369,15.369,0,0,1,2.385,3.211c.354.64.739,1.263,1.117,1.889a2.845,2.845,0,0,0,1.816,1.385,17.2,17.2,0,0,1,2.851,1.022,2.565,2.565,0,0,1,1.262,1.033,25.113,25.113,0,0,0,1.427,2.073,3.363,3.363,0,0,0,2.126,1.777,1.459,1.459,0,0,1,1.18,1.1,3.709,3.709,0,0,0,1.071,1.862,11.046,11.046,0,0,1,1.493,2.028c.73,1.438,2.292,1.89,3.307,2.975.117.125.423.125.634.1a3.328,3.328,0,0,1,3.27,1.636,1.638,1.638,0,0,0,.288.412,1.952,1.952,0,0,0,.706.408c1.205.267,2.423.473,3.626.744a7.883,7.883,0,0,1,1.6.528,4.681,4.681,0,0,0,4.177.322.912.912,0,0,1,.488-.095,11.446,11.446,0,0,1,2.305.415,16.2,16.2,0,0,0,2.257.643,3,3,0,0,1,1.77.908,1.871,1.871,0,0,0,1.994.572,3.87,3.87,0,0,1,2.606.386,2.238,2.238,0,0,0,1.774.188c.484-.149.976-.272,1.471-.373a3.616,3.616,0,0,1,2.905.489,11.388,11.388,0,0,0,1.662.77,4.551,4.551,0,0,1,.887.455,1.367,1.367,0,0,0,1.233.364.905.905,0,0,1,.618.176,1.5,1.5,0,0,0,1.273.192,8.371,8.371,0,0,1,4.325.16,12.569,12.569,0,0,0,3.964.7,9.978,9.978,0,0,1,1.167.14,5.3,5.3,0,0,0,1.5.085,2.064,2.064,0,0,1,1.734.336c.6.414,1.3.677,1.91,1.073a5.928,5.928,0,0,0,3.161,1.029,2.383,2.383,0,0,1,1.548.554,6.383,6.383,0,0,0,2.573,1.2c.977.243,1.924.6,2.882.921a2.227,2.227,0,0,0,1.479.132,4.895,4.895,0,0,1,.92-.164c.879-.685,1.559-1.263,2.289-1.772a4.025,4.025,0,0,1,2.562-.667c1.4.08,2.788.26,4.181.388a2.573,2.573,0,0,0,.5-.041c.613-.065,1.23-.109,1.838-.206a3.381,3.381,0,0,0,1.114-.317,5.715,5.715,0,0,1,3.08-.706,12.487,12.487,0,0,0,3.445-.2A2.649,2.649,0,0,0,612.832,312.15Z"/><path class="cls-4" d="M534.948,197.611a.767.767,0,0,0-.14-.095,32.962,32.962,0,0,0-6.177-2.572,1.137,1.137,0,0,1-.709-.4c-.454-.835-1.314-1.015-2.058-1.381-.956-.47-1.913-.941-2.89-1.362a2.389,2.389,0,0,0-1.14-.212,4.635,4.635,0,0,1-3.575-1.167c-.343-.28-.821-.392-1.17-.666a2.584,2.584,0,0,0-2.789-.646.461.461,0,0,1-.331,0,3.368,3.368,0,0,0-2.613.205,6.027,6.027,0,0,1-.984.146,2.078,2.078,0,0,0-.782.2c-1.087.73-2.529.555-3.556,1.425a.535.535,0,0,1-.322.076,6.537,6.537,0,0,0-1.493-.046c-.409.084-.9-.254-1.312-.389L499.9,192.58c-.261-.175-.435-.384-.628-.4a3.857,3.857,0,0,0-2.437.157,4.241,4.241,0,0,1-3.38.617,3.577,3.577,0,0,0-.673-.013c-.781-.069-1.564-.122-2.337-.237a2.953,2.953,0,0,0-1.809.2,2.679,2.679,0,0,1-1.115.344,3.69,3.69,0,0,0-2.029.712,3.775,3.775,0,0,1-3.224.515,3.581,3.581,0,0,0-1.99.017c-.365.092-.908.177-1.135-.014a1.982,1.982,0,0,0-1.891-.263,3,3,0,0,1-2.47-.49,1.875,1.875,0,0,0-.273.073c-1.146.567-2.217,1.321-3.608,1.227-.266-.018-.594.272-.827.49a4.6,4.6,0,0,0-.452.512,1.431,1.431,0,0,0-.019.609,10.963,10.963,0,0,0,.891,3.573c1.009,1.753,1.86,3.6,2.9,5.332a13.61,13.61,0,0,1,1.5,4.788,7.855,7.855,0,0,0,.854,2.7,8.477,8.477,0,0,1,1.012,2.8,4.9,4.9,0,0,1-.532,3.382,2.908,2.908,0,0,0-.3,1.111,1.088,1.088,0,0,1-.989,1.151,1.845,1.845,0,0,0-1.6,1.538,5.479,5.479,0,0,0,.86,4.5,18.052,18.052,0,0,1,1.574,2.574,10.4,10.4,0,0,1,1.1,2.058,7.112,7.112,0,0,0,1.018,1.92,13.336,13.336,0,0,1,2.506,5.8,7.149,7.149,0,0,0,1.443,3.535,27.77,27.77,0,0,1,2.587,4.1,3.2,3.2,0,0,1,.282.951,6.963,6.963,0,0,0,.092,1,24.969,24.969,0,0,0,1.194,3.681c.494.943.96,1.9,1.37,2.886a53.022,53.022,0,0,0,2.5,5.325,3.328,3.328,0,0,1,.258.619,7.171,7.171,0,0,0,1.576,2.928,3.274,3.274,0,0,1,.463.875c.168.35.3.719.485,1.058a6.955,6.955,0,0,0,2.053,2.831c.391.256.539.853.892,1.2.153.148.306.294.456.442.265-.43.368-.987.951-1.251a2.2,2.2,0,0,0,1.259-2.192c.014-1.545.446-2.022,1.963-2.153a5.475,5.475,0,0,0,2.616-1.062c.508-.341,1.045-.639,1.573-.948.192-.113.468-.152.584-.312a3.429,3.429,0,0,1,2.154-1.2,1.694,1.694,0,0,0,1.339-1.366c.1-.489.286-.96.414-1.379,1.055-.768,2.053-1.479,3.031-2.217a2.078,2.078,0,0,0,.666-.724,5.635,5.635,0,0,1,1.612-2.306c.124-.1.174-.286.269-.425a16.489,16.489,0,0,1,1.549-2.2,7.933,7.933,0,0,0,1.414-2.949c.231-.6.377-1.276.561-1.919a2.2,2.2,0,0,1,1.811-1.767,4.373,4.373,0,0,0,2.064-1.1,17.129,17.129,0,0,0,3.007-2.913,2.125,2.125,0,0,1,1.366-.915,2.82,2.82,0,0,0,1.03-.511c1.819-1.3,2.485-3.42,3.631-5.2.084-.131.057-.33.1-.491.218-.752.4-1.517.679-2.247a2.714,2.714,0,0,0,.212-1.632,2.024,2.024,0,0,1,.729-2.1,3.4,3.4,0,0,0,1.144-2.343c.138-1.141.163-2.384,1.2-3.246a3.354,3.354,0,0,1,.206-2.966,14.968,14.968,0,0,0,1.125-2.773,10.557,10.557,0,0,0,.635-4.965,4.51,4.51,0,0,1,.629-3.049,13.744,13.744,0,0,0,.734-1.329,8.833,8.833,0,0,0,.975-4.719,9.351,9.351,0,0,1-.015-1.921,13.758,13.758,0,0,0-2.157-1.322A14.74,14.74,0,0,1,534.948,197.611Z"/></g><g id="solo_testo" data-name="solo testo"><path class="cls-4" d="M326.216,169.251a11.39,11.39,0,0,0,.062,1.56,21.965,21.965,0,0,0,6.834-2.371l-.343,2.684a11.119,11.119,0,0,1-6.3,2.434c-2.309,0-4.4-1.374-4.4-4.931,0-5.991,4.587-11.983,10.609-11.983a5.211,5.211,0,0,1,3.4,1.093l-.842,3.12a5.92,5.92,0,0,0-2.465-.592C328.462,160.265,326.216,165.413,326.216,169.251Z"/><path class="cls-4" d="M350.179,163.1a56.628,56.628,0,0,0-3.745,10.7l-3.557-.781a35.262,35.262,0,0,1,1.5-5.4,48.735,48.735,0,0,1-6.085,5.71c-.718-.437-1.467-.781-2.746-1.436a15.022,15.022,0,0,1-.249-3.151c0-5.149,3.775-11.515,12.543-13.043l.874,3.65c-6.865,1.248-9.517,5.742-9.611,10.329,2.434-2.215,5.991-5.8,8.207-8.113Z"/><path class="cls-4" d="M362.627,149.78a152.59,152.59,0,0,0-8.176,23.091l-3.651-.78a146.963,146.963,0,0,1,7.645-23.9Z"/><path class="cls-4" d="M370.832,149.78a152.59,152.59,0,0,0-8.176,23.091l-3.651-.78a146.963,146.963,0,0,1,7.645-23.9Z"/><path class="cls-4" d="M375.917,157.612a125.515,125.515,0,0,0-4.993,15.29l-3.713-.811a99.367,99.367,0,0,1,4.649-15.54Zm.936-2.9-3.745-1.092a65.264,65.264,0,0,1,2.964-7.333l3.839,1.154C379.193,148.906,378.226,151.122,376.853,154.71Z"/><path class="cls-4" d="M391.08,163.1c-.624,1.373-2.246,7.707-5.367,13.106a8.7,8.7,0,0,1-7.333,4.15,8.857,8.857,0,0,1-4.9-1.373l.375-3.121a8.594,8.594,0,0,0,4.118.9c3.027,0,4.65-2.777,7.146-8.643a43.668,43.668,0,0,1-6.179,5.367c-.717-.437-1.528-.78-2.808-1.436a15.814,15.814,0,0,1-.156-3.463c.219-5.086,3.62-12.326,12.763-12.762l1,3.682c-7.488.156-9.423,5.46-9.8,10.11a65.388,65.388,0,0,0,8.269-8.051Z"/><path class="cls-4" d="M407.585,157.8a47.369,47.369,0,0,0-3.245,9.8l-3.588-.656a47.45,47.45,0,0,1,1.4-4.993c-1.965,2.4-4.025,5.3-5.866,7.864-.281,1-.624,2.028-.936,3.058l-3.745-.937c1.155-4.118,2.684-8.768,4.057-15.1l3.994.874a39.961,39.961,0,0,1-1.841,6.553,72.764,72.764,0,0,1,6.771-8.425Z"/><path class="cls-4" d="M422.03,163.1a56.628,56.628,0,0,0-3.744,10.7l-3.557-.781a35.237,35.237,0,0,1,1.5-5.4,48.735,48.735,0,0,1-6.084,5.71c-.718-.437-1.467-.781-2.746-1.436a14.955,14.955,0,0,1-.25-3.151c0-5.149,3.775-11.515,12.544-13.043l.874,3.65c-6.865,1.248-9.518,5.742-9.611,10.329,2.434-2.215,5.991-5.8,8.207-8.113Z"/><path class="cls-4" d="M439.346,161.139c0,5.242-2.184,13.385-10.64,12.637l-.219-3.5c5.9.28,6.8-5.336,6.9-9.985-2.808,3.026-5.554,5.96-7.988,8.706-.9,3.432-1.9,7.333-3.121,11.358l-3.838-.843c1.935-6.365,4.962-17.38,6.179-22.9l4.119.749a39.689,39.689,0,0,1-1.9,6.584,67.174,67.174,0,0,1,7.146-7.613l3.152,1.716A18.842,18.842,0,0,1,439.346,161.139Z"/><path class="cls-4" d="M458.191,158.954a63.466,63.466,0,0,0-5.367,15.446l-3.714-.874a69.125,69.125,0,0,1,3.371-11.608,92.246,92.246,0,0,0-7.677,7.3c-.4,1.466-.78,2.714-1.061,3.651L440,171.934c1.154-4.118,5.3-16.631,7.395-23.746l3.963,1.373c-.905,3.464-2.871,9.049-4.961,14.729a76.069,76.069,0,0,1,8.237-7.333Z"/><path class="cls-4" d="M476.224,158.111c-2.745,5.555-6.958,17.755-8.331,22.312l-3.651-1.062c.936-3.37,2.964-8.55,4.9-13.512a56.662,56.662,0,0,1-8.082,7.9l-3.5-1.436c1.716-5.742,3.4-10.953,4.462-15.851l4.026.779c-.812,3.464-1.966,7.4-3.37,11.671a51.794,51.794,0,0,0,9.86-12.17Z"/><path class="cls-4" d="M565.78,175.78a152.588,152.588,0,0,0-8.175,23.091l-3.651-.78a146.963,146.963,0,0,1,7.645-23.9Z"/><path class="cls-4" d="M566.715,193.316a13.419,13.419,0,0,0-.063,3.121c1.03-.062,2.84-.062,6.928-2.09l-.343,2.714a10.58,10.58,0,0,1-6.023,2.184c-3.058,0-4.774-1.778-4.556-5.367.281-4.8,3.121-10.047,8.925-11.67l5.149,1.529a9.74,9.74,0,0,1,.437,2.777c0,3.338-2.528,5.991-7.115,5.991a22.256,22.256,0,0,1-3.152-.281A8.122,8.122,0,0,0,566.715,193.316Zm.967-3.245a8.419,8.419,0,0,0,1.592.156,3.93,3.93,0,0,0,4.119-3.962,5.61,5.61,0,0,0-.25-1.561A11.664,11.664,0,0,0,567.682,190.071Z"/><path class="cls-4" d="M599.2,185.547l-3.619.094a125.768,125.768,0,0,0-4.119,13.23l-3.62-.78c.624-2.621,1.623-7.021,3.339-12.388h-1.154c-1.374,0-2.715-.031-4-.031a116.876,116.876,0,0,0-4.119,13.2l-3.619-.78c.624-2.653,1.653-7.115,3.4-12.575-1.248-.063-2.309-.125-3.089-.188l.468-2.4,3.463.093c.749-2.122,1.592-4.4,2.559-6.74l4.213,1.279c-.843,1.873-1.592,3.745-2.309,5.555.967.031,1.966.031,2.964.031.5,0,1.217,0,2.091-.031.748-2.153,1.591-4.463,2.59-6.834l4.212,1.279c-.811,1.841-1.56,3.651-2.278,5.43,1.124-.031,2.309-.062,3.557-.125Z"/><path class="cls-4" d="M602.065,193.316a13.419,13.419,0,0,0-.063,3.121c1.03-.062,2.84-.062,6.928-2.09l-.343,2.714a10.584,10.584,0,0,1-6.023,2.184c-3.058,0-4.774-1.778-4.556-5.367.281-4.8,3.12-10.047,8.925-11.67l5.148,1.529a9.7,9.7,0,0,1,.437,2.777c0,3.338-2.528,5.991-7.115,5.991a22.256,22.256,0,0,1-3.151-.281A7.966,7.966,0,0,0,602.065,193.316Zm.967-3.245a8.41,8.41,0,0,0,1.591.156,3.93,3.93,0,0,0,4.119-3.962,5.608,5.608,0,0,0-.249-1.561A11.659,11.659,0,0,0,603.032,190.071Z"/><path class="cls-4" d="M628.3,183.8a47.369,47.369,0,0,0-3.245,9.8l-3.589-.656a47.466,47.466,0,0,1,1.4-4.993c-1.966,2.4-4.025,5.3-5.866,7.864-.281,1-.624,2.028-.936,3.058l-3.745-.937c1.155-4.118,2.684-8.768,4.057-15.1l3.994.874a40.061,40.061,0,0,1-1.841,6.553,72.554,72.554,0,0,1,6.771-8.425Z"/><path class="cls-4" d="M636.2,183.612a125.675,125.675,0,0,0-4.992,15.29l-3.714-.811a99.487,99.487,0,0,1,4.65-15.54Zm.936-2.9-3.744-1.092a64.88,64.88,0,0,1,2.964-7.333l3.838,1.154C639.474,174.906,638.506,177.122,637.133,180.71Z"/><path class="cls-4" d="M653.826,184.954a51.377,51.377,0,0,0-5.055,14.854l-3.87-.656a69.621,69.621,0,0,1,3.308-11.452,84.392,84.392,0,0,0-7.52,6.522c-.406,1.622-.811,3.057-1.186,4.43l-3.744-.935c1.154-4.119,2.621-8.457,4.057-14.823l3.994.812a48.948,48.948,0,0,1-1.717,6.116,84.442,84.442,0,0,1,8.144-6.9Z"/><path class="cls-4" d="M668.989,189.1c-.624,1.373-2.247,7.707-5.367,13.106a8.7,8.7,0,0,1-7.333,4.15,8.855,8.855,0,0,1-4.9-1.373l.374-3.121a8.6,8.6,0,0,0,4.119.9c3.027,0,4.649-2.777,7.146-8.643a43.776,43.776,0,0,1-6.178,5.367c-.718-.437-1.53-.78-2.809-1.436a15.814,15.814,0,0,1-.156-3.463c.219-5.086,3.62-12.326,12.763-12.762l1,3.682c-7.489.156-9.424,5.46-9.8,10.11a65.255,65.255,0,0,0,8.269-8.051Z"/><path class="cls-1" d="M790.032,67.174l-8.924,15.352-1.966-.718-3.09-1.123c.25-3.276.687-6.335,1.155-9.455L770.28,82.714l-1.124-.406-3.619-1.28c.53-4.555,1.123-10.328,1.4-15.2l4.4.436c-.405,3.777-1.091,8.207-1.684,12.264l7.676-12.888,4.213.25c-.375,4.462-.937,8.613-1.374,12.95l6.959-13.325Z"/><path class="cls-1" d="M804.133,66.8a47.369,47.369,0,0,0-3.245,9.8l-3.589-.656a47.466,47.466,0,0,1,1.4-4.993c-1.966,2.4-4.025,5.305-5.866,7.864-.281,1-.624,2.028-.936,3.058l-3.745-.937c1.155-4.118,2.684-8.768,4.057-15.1l3.994.874a39.961,39.961,0,0,1-1.841,6.553,72.659,72.659,0,0,1,6.771-8.425Z"/><path class="cls-1" d="M812.025,66.612a125.675,125.675,0,0,0-4.992,15.29l-3.714-.811a99.487,99.487,0,0,1,4.65-15.54Zm.937-2.9-3.745-1.092a64.88,64.88,0,0,1,2.964-7.333l3.839,1.154C815.3,57.906,814.335,60.122,812.962,63.71Z"/><path class="cls-1" d="M824.225,68.547c-1.217.094-2.434.156-3.651.156a124.863,124.863,0,0,0-4.088,13.168l-3.62-.78c.624-2.621,1.623-7.052,3.37-12.482-1.279-.093-2.371-.187-3.058-.281l.469-2.4c1,.062,2.184.125,3.432.156.749-2.153,1.623-4.432,2.59-6.8l4.212,1.279c-.842,1.873-1.591,3.713-2.309,5.555,1-.062,2.029-.125,3.277-.25Z"/><path class="cls-1" d="M831.182,66.612a125.689,125.689,0,0,0-4.993,15.29l-3.713-.811a99.367,99.367,0,0,1,4.649-15.54Zm.936-2.9-3.745-1.092a65.264,65.264,0,0,1,2.964-7.333l3.839,1.154C834.458,57.906,833.491,60.122,832.118,63.71Z"/><path class="cls-1" d="M848.811,67.954a51.378,51.378,0,0,0-5.056,14.854l-3.869-.656A69.62,69.62,0,0,1,843.193,70.7a84.533,84.533,0,0,0-7.52,6.522c-.4,1.622-.811,3.057-1.185,4.43l-3.745-.935c1.155-4.119,2.621-8.457,4.057-14.823l3.994.812a48.939,48.939,0,0,1-1.716,6.116,84.2,84.2,0,0,1,8.144-6.9Z"/><path class="cls-1" d="M863.973,72.1c-.624,1.373-2.246,7.707-5.367,13.106a8.7,8.7,0,0,1-7.333,4.15,8.857,8.857,0,0,1-4.9-1.373l.375-3.121a8.594,8.594,0,0,0,4.118.905c3.027,0,4.65-2.777,7.146-8.643a43.72,43.72,0,0,1-6.178,5.367c-.718-.437-1.529-.78-2.809-1.436a15.814,15.814,0,0,1-.156-3.463c.219-5.086,3.62-12.326,12.763-12.762l1,3.682c-7.488.156-9.423,5.46-9.8,10.11a65.33,65.33,0,0,0,8.27-8.051Z"/><path class="cls-4" d="M426.317,336.348c-1.217.093-2.434.156-3.651.156a124.863,124.863,0,0,0-4.088,13.168l-3.619-.781c.624-2.621,1.622-7.051,3.37-12.481-1.28-.094-2.372-.187-3.058-.281l.468-2.4c1,.063,2.184.125,3.432.157.749-2.154,1.623-4.432,2.59-6.8l4.213,1.279c-.843,1.872-1.592,3.713-2.309,5.555,1-.063,2.028-.125,3.276-.25Z"/><path class="cls-4" d="M443.009,334.912c-2.745,5.555-6.958,17.755-8.331,22.312l-3.651-1.062c.936-3.37,2.964-8.55,4.9-13.512a56.662,56.662,0,0,1-8.082,7.9l-3.5-1.436c1.717-5.742,3.4-10.953,4.463-15.851l4.025.779c-.812,3.464-1.966,7.395-3.37,11.671a51.769,51.769,0,0,0,9.86-12.17Z"/><path class="cls-4" d="M458.983,337.939c0,5.243-2.184,13.386-10.64,12.638l-.219-3.5c5.9.28,6.8-5.336,6.9-9.985-2.809,3.026-5.555,5.96-7.989,8.706-.9,3.432-1.9,7.333-3.12,11.358l-3.839-.843c1.935-6.365,4.962-17.381,6.179-22.9l4.119.749a39.589,39.589,0,0,1-1.9,6.584,67.179,67.179,0,0,1,7.146-7.613l3.152,1.715A18.852,18.852,0,0,1,458.983,337.939Z"/><path class="cls-4" d="M475.145,337.939c0,5.679-3.651,11.577-10.079,12.576-1.374-.593-2.684-1.156-3.9-1.749a18.308,18.308,0,0,1-.562-4.4c0-6.459,4.15-11.671,10.61-11.671a13.952,13.952,0,0,1,1.935.156l.779,3.09,1.093.156A12.24,12.24,0,0,1,475.145,337.939Zm-3.464-.625c0-.342,0-.685-.032-1-4.586.282-7.021,3.744-7.021,8.925a14.674,14.674,0,0,0,.219,2.559C469.715,346.8,471.681,341.278,471.681,337.314Z"/><path class="cls-4" d="M491.4,339.905c-.624,1.373-2.246,7.707-5.367,13.106a8.7,8.7,0,0,1-7.333,4.15,8.859,8.859,0,0,1-4.9-1.373l.375-3.121a8.6,8.6,0,0,0,4.119.905c3.026,0,4.649-2.777,7.146-8.643a43.723,43.723,0,0,1-6.179,5.367c-.717-.437-1.529-.78-2.808-1.436a15.745,15.745,0,0,1-.157-3.464c.219-5.086,3.621-12.325,12.763-12.761l1,3.681c-7.489.157-9.424,5.461-9.8,10.111a65.39,65.39,0,0,0,8.269-8.051Z"/><path class="cls-4" d="M507.9,334.6a47.389,47.389,0,0,0-3.245,9.8l-3.589-.655a47.466,47.466,0,0,1,1.4-4.993c-1.966,2.4-4.025,5.305-5.866,7.864-.281,1-.624,2.027-.936,3.058l-3.745-.937c1.155-4.118,2.684-8.768,4.057-15.1l3.994.874a39.923,39.923,0,0,1-1.841,6.552,72.648,72.648,0,0,1,6.771-8.424Z"/><path class="cls-4" d="M522.349,339.905a56.572,56.572,0,0,0-3.744,10.7l-3.558-.78a35.348,35.348,0,0,1,1.5-5.4,48.81,48.81,0,0,1-6.084,5.71c-.718-.437-1.467-.781-2.747-1.436a15.027,15.027,0,0,1-.249-3.151c0-5.149,3.775-11.515,12.544-13.043l.873,3.65c-6.864,1.248-9.517,5.742-9.61,10.329,2.434-2.216,5.991-5.8,8.207-8.113Z"/><path class="cls-4" d="M539.665,337.939c0,5.243-2.184,13.386-10.641,12.638l-.218-3.5c5.9.28,6.8-5.336,6.9-9.985-2.808,3.026-5.554,5.96-7.988,8.706-.905,3.432-1.9,7.333-3.121,11.358l-3.838-.843c1.935-6.365,4.962-17.381,6.179-22.9l4.119.749a39.689,39.689,0,0,1-1.9,6.584,67.179,67.179,0,0,1,7.146-7.613l3.151,1.715A18.7,18.7,0,0,1,539.665,337.939Z"/><path class="cls-4" d="M558.51,335.755a63.451,63.451,0,0,0-5.367,15.446l-3.713-.874a69.119,69.119,0,0,1,3.37-11.608,92.215,92.215,0,0,0-7.676,7.3c-.406,1.467-.781,2.715-1.061,3.652l-3.745-.937c1.155-4.118,5.305-16.632,7.395-23.746l3.963,1.373c-.9,3.464-2.87,9.049-4.961,14.729a76.086,76.086,0,0,1,8.238-7.333Z"/><path class="cls-4" d="M576.543,334.912c-2.746,5.555-6.958,17.755-8.331,22.312l-3.651-1.062c.936-3.37,2.964-8.55,4.9-13.512a56.662,56.662,0,0,1-8.082,7.9l-3.5-1.436c1.716-5.742,3.4-10.953,4.462-15.851l4.026.779c-.812,3.464-1.966,7.395-3.37,11.671a51.819,51.819,0,0,0,9.86-12.17Z"/></g></svg>