<?xml version="1.0" encoding="utf-8"?>
<!-- Generator: Adobe Illustrator 23.1.1, SVG Export Plug-In . SVG Version: 6.00 Build 0)  -->
<svg version="1.2" baseProfile="tiny" id="svg2759" xmlns:svg="http://www.w3.org/2000/svg"
	 xmlns="http://www.w3.org/2000/svg" xmlns:xlink="http://www.w3.org/1999/xlink" x="0px" y="0px" viewBox="0 0 88 31"
	 xml:space="preserve">
<path id="path3817_2_" fill="#C8C8C8" d="M2.499,0.352l83.127,0.149c1.161,0,2.199-0.174,2.199,2.332l-0.102,27.552H0.401V2.731
	C0.401,1.495,0.52,0.352,2.499,0.352z"/>
<path id="path5906_2_" fill="#FFFFFF" d="M25.316,14.449c0.004,5.557-4.471,10.065-9.993,10.069
	C9.801,24.521,5.322,20.018,5.318,14.461c0-0.004,0-0.008,0-0.012C5.315,8.891,9.789,4.383,15.311,4.38
	c5.523-0.004,10.002,4.499,10.005,10.057C25.316,14.44,25.316,14.444,25.316,14.449z"/>
<path id="path5708_2_" d="M23.446,6.252c2.217,2.232,3.326,4.964,3.326,8.197c0,3.233-1.09,5.936-3.269,8.11
	c-2.313,2.29-5.046,3.434-8.2,3.434c-3.116,0-5.802-1.135-8.057-3.406c-2.256-2.27-3.383-4.983-3.383-8.139
	c0-3.155,1.128-5.887,3.383-8.197c2.198-2.232,4.884-3.348,8.057-3.348C18.515,2.904,21.228,4.02,23.446,6.252z M8.739,7.753
	c-1.875,1.906-2.812,4.138-2.812,6.698c0,2.56,0.928,4.773,2.783,6.64c1.855,1.867,4.064,2.801,6.627,2.801
	c2.563,0,4.79-0.943,6.684-2.829c1.798-1.752,2.697-3.955,2.697-6.611c0-2.636-0.914-4.874-2.74-6.713
	c-1.826-1.838-4.04-2.757-6.64-2.757C12.736,4.982,10.536,5.906,8.739,7.753z M13.672,13.325c-0.286-0.628-0.715-0.943-1.287-0.943
	c-1.011,0-1.516,0.685-1.516,2.054c0,1.37,0.505,2.055,1.516,2.055c0.668,0,1.144-0.334,1.431-1.002l1.401,0.751
	c-0.668,1.194-1.67,1.792-3.006,1.792c-1.031,0-1.856-0.318-2.476-0.954c-0.621-0.636-0.931-1.513-0.931-2.63
	c0-1.098,0.32-1.97,0.959-2.616c0.639-0.645,1.436-0.968,2.391-0.968c1.412,0,2.424,0.56,3.035,1.679L13.672,13.325z M20.265,13.325
	c-0.287-0.628-0.707-0.943-1.261-0.943c-1.031,0-1.547,0.685-1.547,2.054c0,1.37,0.516,2.055,1.547,2.055
	c0.669,0,1.137-0.334,1.404-1.002l1.433,0.751c-0.667,1.194-1.667,1.792-3.001,1.792c-1.029,0-1.853-0.318-2.472-0.954
	c-0.618-0.636-0.928-1.513-0.928-2.63c0-1.098,0.315-1.97,0.943-2.616c0.628-0.645,1.428-0.968,2.401-0.968
	c1.41,0,2.42,0.56,3.029,1.679L20.265,13.325z"/>
<path id="path294" d="M86.352,0H1.648C0.739,0,0,0.744,0,1.658v28.967C0,30.832,0.167,31,0.372,31h87.256
	C87.833,31,88,30.832,88,30.625V1.658C88,0.744,87.261,0,86.352,0z M1.648,0.749h84.705c0.498,0,0.903,0.408,0.903,0.909
	c0,0,0,11.676,0,20.109H26.714c-2.219,4.038-6.494,6.78-11.401,6.78c-4.909,0-9.183-2.739-11.401-6.78H0.744
	c0-8.434,0-20.109,0-20.109C0.744,1.157,1.149,0.749,1.648,0.749z"/>
<path id="path298" fill="#FFFFFF" d="M63.26,27.85c0.058,0.114,0.137,0.207,0.234,0.278c0.098,0.071,0.211,0.123,0.342,0.157
	c0.132,0.034,0.268,0.052,0.408,0.052c0.095,0,0.196-0.008,0.305-0.024c0.108-0.016,0.21-0.047,0.305-0.092
	c0.095-0.045,0.174-0.109,0.237-0.188c0.064-0.08,0.095-0.181,0.095-0.305c0-0.132-0.042-0.239-0.126-0.322
	c-0.083-0.082-0.194-0.15-0.33-0.206c-0.135-0.054-0.29-0.102-0.461-0.144c-0.172-0.041-0.347-0.087-0.523-0.137
	c-0.181-0.045-0.358-0.101-0.53-0.168c-0.172-0.066-0.326-0.152-0.462-0.257c-0.136-0.105-0.246-0.236-0.33-0.394
	c-0.083-0.158-0.125-0.348-0.125-0.572c0-0.251,0.053-0.469,0.159-0.654c0.107-0.185,0.246-0.339,0.418-0.462
	c0.172-0.123,0.367-0.215,0.584-0.274c0.217-0.059,0.435-0.089,0.652-0.089c0.254,0,0.497,0.029,0.731,0.086
	c0.233,0.057,0.441,0.15,0.621,0.278c0.181,0.128,0.325,0.291,0.432,0.49c0.106,0.199,0.159,0.44,0.159,0.723h-1.036
	c-0.009-0.146-0.04-0.267-0.091-0.363c-0.052-0.096-0.121-0.171-0.206-0.226c-0.086-0.054-0.184-0.093-0.295-0.116
	c-0.111-0.023-0.231-0.034-0.362-0.034c-0.085,0-0.172,0.009-0.257,0.027c-0.086,0.019-0.164,0.05-0.233,0.096
	c-0.07,0.046-0.128,0.103-0.173,0.171c-0.045,0.069-0.068,0.155-0.068,0.26c0,0.096,0.018,0.174,0.054,0.233
	c0.036,0.059,0.108,0.114,0.214,0.164c0.106,0.05,0.253,0.101,0.441,0.151c0.188,0.05,0.433,0.114,0.737,0.192
	c0.09,0.018,0.216,0.052,0.376,0.1c0.161,0.048,0.32,0.124,0.479,0.229c0.159,0.105,0.295,0.246,0.411,0.421
	c0.115,0.176,0.173,0.401,0.173,0.675c0,0.224-0.043,0.432-0.13,0.623c-0.086,0.192-0.214,0.357-0.384,0.496
	c-0.17,0.14-0.381,0.248-0.632,0.326c-0.252,0.078-0.544,0.116-0.874,0.116c-0.268,0-0.527-0.033-0.779-0.1
	c-0.251-0.066-0.474-0.17-0.667-0.312c-0.192-0.142-0.345-0.323-0.459-0.542c-0.113-0.22-0.167-0.48-0.163-0.781h1.036
	C63.172,27.597,63.201,27.736,63.26,27.85z"/>
<path id="path300" fill="#FFFFFF" d="M69.278,24.171l1.817,4.888h-1.11l-0.367-1.089h-1.817l-0.381,1.089h-1.075l1.837-4.888H69.278
	z M69.339,27.167l-0.612-1.792h-0.014l-0.633,1.792H69.339z"/>
<path id="path304" fill="#FFFFFF" d="M43.998,24.171c0.231,0,0.443,0.021,0.633,0.062c0.191,0.041,0.354,0.109,0.491,0.202
	c0.136,0.093,0.242,0.218,0.317,0.373c0.075,0.155,0.112,0.347,0.112,0.575c0,0.246-0.056,0.451-0.167,0.616
	c-0.111,0.164-0.276,0.299-0.494,0.404c0.3,0.087,0.525,0.239,0.673,0.456c0.148,0.217,0.222,0.478,0.222,0.784
	c0,0.246-0.048,0.46-0.143,0.64c-0.095,0.18-0.224,0.327-0.385,0.442c-0.162,0.114-0.346,0.199-0.552,0.253
	c-0.207,0.055-0.419,0.082-0.638,0.082h-2.359v-4.888L43.998,24.171L43.998,24.171z M43.861,26.148c0.191,0,0.347-0.045,0.47-0.136
	c0.122-0.091,0.184-0.239,0.184-0.444c0-0.114-0.021-0.207-0.061-0.28c-0.041-0.073-0.095-0.13-0.164-0.171
	c-0.068-0.041-0.147-0.069-0.235-0.085c-0.089-0.016-0.181-0.024-0.276-0.024h-1.001v1.14H43.861z M43.923,28.222
	c0.105,0,0.204-0.01,0.3-0.031c0.095-0.02,0.18-0.055,0.253-0.102c0.073-0.048,0.13-0.113,0.174-0.195
	c0.043-0.082,0.065-0.187,0.065-0.315c0-0.251-0.07-0.43-0.211-0.537c-0.141-0.107-0.327-0.161-0.559-0.161h-1.166v1.341H43.923z"/>
<path id="path306" fill="#FFFFFF" d="M45.973,24.171h1.198l1.137,1.93l1.13-1.93h1.191l-1.803,3.012v1.876h-1.07v-1.903
	L45.973,24.171z"/>
<path id="path6318_1_" fill="#FFFFFF" d="M75.096,11.057c0.003,4.314-3.47,7.814-7.757,7.818c-4.287,0.003-7.765-3.492-7.768-7.806
	c0-0.004,0-0.008,0-0.011c-0.003-4.315,3.47-7.814,7.757-7.818c4.287-0.003,7.765,3.492,7.768,7.806
	C75.096,11.05,75.096,11.053,75.096,11.057z"/>
<path id="path6322_1_" d="M67.278,2.499c-2.356,0-4.349,0.827-5.981,2.481c-1.675,1.712-2.512,3.737-2.512,6.077
	s0.837,4.351,2.512,6.034c1.674,1.683,3.668,2.525,5.981,2.525c2.341,0,4.37-0.849,6.089-2.546c1.617-1.612,2.426-3.616,2.426-6.012
	c0-2.396-0.823-4.422-2.47-6.077C71.677,3.327,69.662,2.499,67.278,2.499z M67.299,4.04c1.93,0,3.569,0.684,4.918,2.054
	c1.361,1.355,2.043,3.01,2.043,4.964c0,1.968-0.666,3.602-2.001,4.9c-1.405,1.398-3.058,2.096-4.96,2.096
	c-1.902,0-3.541-0.692-4.917-2.075c-1.376-1.384-2.065-3.024-2.065-4.921c0-1.897,0.695-3.552,2.086-4.964
	C63.737,4.724,65.369,4.04,67.299,4.04z"/>
<path id="path6324_1_" d="M63.509,9.849c0.339-2.153,1.845-3.304,3.733-3.304c2.715,0,4.369,1.983,4.369,4.626
	c0,2.58-1.76,4.584-4.412,4.584c-1.824,0-3.457-1.13-3.754-3.347h2.142c0.064,1.151,0.806,1.556,1.867,1.556
	c1.208,0,1.994-1.13,1.994-2.857c0-1.812-0.679-2.771-1.952-2.771c-0.933,0-1.739,0.341-1.909,1.513l0.623-0.003l-1.687,1.697
	l-1.686-1.697L63.509,9.849z"/>
<ellipse id="circle315" fill="#FFFFFF" cx="46.464" cy="11.232" rx="7.875" ry="7.926"/>
<path id="path319" d="M48.743,8.938c0-0.305-0.246-0.553-0.549-0.553h-3.478c-0.303,0-0.549,0.247-0.549,0.553v3.501h0.97v4.146
	h2.636v-4.146h0.971L48.743,8.938L48.743,8.938z"/>
<ellipse id="circle321" cx="46.455" cy="6.727" rx="1.19" ry="1.197"/>
<path id="path323" fill-rule="evenodd" d="M46.444,2.499c-2.355,0-4.35,0.827-5.981,2.482c-1.675,1.711-2.512,3.737-2.512,6.076
	c0,2.339,0.837,4.351,2.512,6.034c1.675,1.683,3.669,2.524,5.981,2.524c2.341,0,4.371-0.848,6.088-2.546
	c1.618-1.611,2.427-3.616,2.427-6.012s-0.823-4.422-2.469-6.076C50.843,3.326,48.828,2.499,46.444,2.499z M46.465,4.039
	c1.93,0,3.569,0.685,4.917,2.054c1.363,1.355,2.044,3.01,2.044,4.963c0,1.968-0.667,3.602-2.001,4.9
	c-1.405,1.398-3.058,2.096-4.96,2.096c-1.902,0-3.541-0.692-4.917-2.075c-1.377-1.383-2.065-3.024-2.065-4.921
	c0-1.897,0.695-3.551,2.086-4.963C42.903,4.724,44.536,4.039,46.465,4.039z"/>
</svg>
