<?xml version="1.0" encoding="utf-8"?>
<!-- Generator: Adobe Illustrator 23.0.1, SVG Export Plug-In . SVG Version: 6.00 Build 0)  -->
<svg version="1.1" id="Layer_1" xmlns="http://www.w3.org/2000/svg" xmlns:xlink="http://www.w3.org/1999/xlink" x="0px" y="0px"
	 viewBox="0 0 125 125" style="enable-background:new 0 0 125 125;" xml:space="preserve">
<style type="text/css">
	.st0{fill:#FF3366;}
	.st1{fill:#FFEDED;}
</style>
<polyline class="st0" points="125,125 125,0 0,0 "/>
<g>
	<path class="st1" d="M61.8,10.8l-2.5,1.7l3.8,3.8L61.8,17L58,13.2l-3.8,2.4l-1.1-1.1l8.7-5.7l5.1,5.1l-1.2,0.8L61.8,10.8z"/>
	<path class="st1" d="M64.9,19.1c2.8-1.8,5.7-1.8,7.7,0.2c1.8,1.8,1.6,4.3-1.3,6.2c-2.7,1.7-5.6,1.8-7.7-0.3
		C61.8,23.4,62,21,64.9,19.1z M70.3,24.2c1.9-1.2,2.4-2.8,1.1-4c-1.3-1.3-3.3-1.2-5.5,0.2c-1.8,1.2-2.3,2.7-1,4
		C66.2,25.7,68.1,25.7,70.3,24.2z"/>
	<path class="st1" d="M77,32.8l-1.7,4L74,35.4l1.6-3.6l-1.8-1.8L70.6,32l-1.1-1.1l8.7-5.7l2.5,2.5c1.8,1.8,2.1,3.5,0.2,4.8
		C79.9,33.2,78.6,33.3,77,32.8z M79.4,28.4l-1.3-1.3l-3.1,2l2.3,2.3c1.1,0.3,2,0.2,2.6-0.2C80.8,30.6,80.7,29.7,79.4,28.4z"/>
	<path class="st1" d="M90.2,39.8l-3.8-0.7l-3,5.6L82,43.4l2.6-4.7l-2.6-0.4l-3.1,2l-1.1-1.1l8.7-5.7l1.1,1.1l-2.9,1.9l-1.3,0.7
		l8.3,1.5L90.2,39.8z"/>
	<path class="st1" d="M99.6,61l-1-1l4.5-2.9l3.1-1.8l-0.1-0.1l-1.4,0.6l-3.9,1.2l-1.3-1.3l2.2-2.9l1-1l-0.1-0.1l-2.9,2.1l-4.5,2.9
		l-1-1l7.5-4.9l1.2-0.8l1.6,1.6l-2.5,3.1l-0.7,0.8l0.1,0.1l1-0.4l4.2-1.4l1.7,1.7L99.6,61z"/>
	<path class="st1" d="M111.4,60.3l-2.5,1.7l3.8,3.8l-1.2,0.8l-3.8-3.8l-2.5,1.6l3.9,3.9l-1.2,0.8l-5.1-5.1l8.7-5.7l5.1,5.1l-1.2,0.8
		L111.4,60.3z"/>
	<path class="st1" d="M35.6,15.3c2.8-1.8,5.7-1.8,7.7,0.2c1.8,1.8,1.6,4.3-1.3,6.2c-2.7,1.7-5.6,1.8-7.7-0.3
		C32.5,19.6,32.7,17.2,35.6,15.3z M41,20.4c1.9-1.2,2.4-2.8,1.1-4c-1.3-1.3-3.3-1.2-5.5,0.2c-1.8,1.2-2.3,2.7-1,4
		C36.9,21.9,38.8,21.9,41,20.4z"/>
	<path class="st1" d="M54.2,26.6l-8.7,5.7l-1.7-1.7l4.9-7.3l-0.1-0.1L41.1,28l-1.1-1.1l8.7-5.7l1.7,1.7l-4.9,7.3l0.1,0.1l7.3-4.9
		L54.2,26.6z"/>
	<path class="st1" d="M61.7,41.6c-2.1,1.4-2.5,2.6-1.8,3.3c0.4,0.4,1.2,0.8,4,1.1l1.6-1l1.1,1.1L62.1,49l-1-1l1.3-0.9
		c-1.9-0.2-3-0.6-3.7-1.3c-1.5-1.5-1-3.7,1.8-5.5c2.7-1.7,5.8-1.7,8,0.4c0.9,0.9,1.5,1.8,2,2.9l-1.6,0.5c-0.4-1.1-0.8-1.8-1.6-2.6
		C65.9,40.1,63.6,40.3,61.7,41.6z"/>
	<path class="st1" d="M75.6,50.1L68.1,55l-3.3-3.3l1.2-0.8l2.2,2.2l7.5-4.9l3.3,3.3l-1.2,0.8L75.6,50.1z M70.3,57.2L68.1,55l1.2-0.8
		l2.2,2.2L70.3,57.2z M73.5,46l2.2,2.2L74.5,49l-2.2-2.2L73.5,46z"/>
	<path class="st1" d="M86.3,60.8l-2.4-2.4l-7.5,4.9l-1.1-1.1l7.5-4.9l-2.4-2.4l1.2-0.8l6,6L86.3,60.8z"/>
	<path class="st1" d="M95.7,68.2L87,73.8l-1.1-1.1l3.8-2.4l-3.5-3.5l-3.8,2.4l-1.1-1.1l8.7-5.7l1.1,1.1L87.3,66l3.5,3.5l3.8-2.4
		L95.7,68.2z"/>
	<path class="st1" d="M93.2,74l5.1-3.3l1.1,1.1l-5.2,3.4c-1.8,1.2-2,2-0.8,3.2c1.2,1.2,2.4,1.2,4.1,0.1l5.2-3.4l1.1,1.1l-5.3,3.4
		c-2.5,1.7-4.5,1.5-6.3-0.4C90.6,77.7,90.4,75.9,93.2,74z"/>
	<path class="st1" d="M107.2,86.7c0.3,1,0,1.8-1,2.4c-1.5,1-3.1,0.8-4.9-1L98,84.8l8.7-5.7l2.6,2.6c1.8,1.8,1.9,3.3,0.3,4.4
		C109,86.5,108.2,86.8,107.2,86.7z M104.9,85.7l-2.1-2.1l-2.4,1.6l1.9,1.9c1.4,1.4,2.2,1.3,2.9,0.8C105.8,87.4,106,86.8,104.9,85.7z
		 M106.6,81l-2.7,1.7l2.6,2.6c0.7,0.1,1.3-0.1,1.9-0.4c0.7-0.5,0.8-1.2-0.4-2.4L106.6,81z"/>
</g>
</svg>
