<svg id="Livello_1" data-name="Livello 1" xmlns="http://www.w3.org/2000/svg" viewBox="0 0 290.028 104.862"><defs><style>.cls-1{fill:#f36;}.cls-2{fill:#1858a8;}.cls-3{fill:#ffeded;}</style></defs><title>6_4_2</title><path class="cls-1" d="M82.816,98.519l-.266-.266v-.088c0-.089-.089-.089-.089-.178s-.177,0-.177-.088c-.089-.089-.177-.266-.355-.355a.086.086,0,0,1-.088-.089l-.266-.266-.089-.088-.177-.178c-.177-.177-.443-.354-.621-.531l-.177-.178c0-.088-.089-.088-.089-.177l-.088-.089-.266-.266-.089-.088a.19.19,0,0,0-.177-.178l-.089-.088-.088-.089h0l-.089-.088c-.089-.089-.089-.178-.177-.178a.087.087,0,0,0-.089-.088h-.089l-.266-.266a.191.191,0,0,1-.177-.178,1.2,1.2,0,0,0-.266-.354A.087.087,0,0,1,78.384,94c-.089-.089-.089-.177-.178-.177-.088-.089-.177-.089-.177-.178l-.089-.088a.087.087,0,0,1-.088-.089l-.089-.088c-.089,0-.089-.089-.089-.178h0c-.088,0-.088-.177-.266-.177l-.266-.266h0c0-.089-.088-.089-.177-.177s-.088-.178-.266-.266h0c0-.089-.088-.089-.177-.178-.089,0-.089-.088-.177-.088l-.089-.089-.266-.266c-.089-.088-.089-.088-.089-.177s-.088-.089-.177-.089c-.089-.088-.089-.177-.177-.177v-.089l-.089-.088-.177-.178-.266-.266-.089-.088-.266-.266-.088-.089-.266-.266-.266-.266-.089-.088v-.089c-.089,0-.089,0-.177-.089l-.266-.266h-.089a.19.19,0,0,1-.177-.177l-.177-.177h0c-.089-.089-.178-.177-.178-.266l-.088-.089a.086.086,0,0,1-.089-.088l-.089-.089a.087.087,0,0,1-.088-.089.191.191,0,0,0-.178-.177L72.09,87.7,72,87.615c-.089-.088-.266-.177-.355-.266l-.266-.266-.177-.177-.177-.177a1.236,1.236,0,0,0-.355-.266l-.266-.266a.087.087,0,0,0-.088-.089l-.444-.443-.354-.354v-.089l-.266-.266-.443-.443-.089-.089c-.089-.089-.089-.177-.177-.177l-.089-.089c0-.089-.089-.089-.177-.177a.087.087,0,0,1-.089-.089L68.1,83.8l-.088-.088a.087.087,0,0,1-.089-.089c-.089,0-.177-.088-.266-.088s-.177,0-.177-.089l-.089-.089h-.266a.326.326,0,0,1-.088.266l-.178.178h-.177l-.266.265-.089.089a.087.087,0,0,0-.088.089c-.089.088-.178.177-.266.177l-.089.089a.191.191,0,0,1-.177.177.087.087,0,0,0-.089.089c-.088.088-.177.266-.266.354a.087.087,0,0,1-.088.089l-.089.089L65,85.488l-.266.266a.086.086,0,0,0-.089.088,1.222,1.222,0,0,1-.266.355l-.089.089a.086.086,0,0,1-.088.088.087.087,0,0,0-.089.089.7.7,0,0,0,.355.355c.088.088.266.177.354.265,0,.089.089.089.089.178a.191.191,0,0,0,.177.177.087.087,0,0,1,.089.089l.177.177.089.089a.191.191,0,0,0,.177.177c.089,0,.089.089.177.177,0,.089.089.089.089.178a.086.086,0,0,1,.089.088l.088.089c0,.088.089.177.266.177a.191.191,0,0,1,.178.177v.089a.324.324,0,0,0,.266.089c.088,0,.177,0,.177.088l.089.089c.088,0,.088.089.177.089l.266.266.177.177a.087.087,0,0,0,.089.089c.088.088.088.177.177.266,0,.088.089.088.089.177a.19.19,0,0,1,.177.177h0c.177.089.266.266.355.355l-.089.088c0,.089.089.089.089.178l.266.266h0V91.25c.088,0,.088,0,.088.089s0,.088.089.177.088.177.177.177a.087.087,0,0,1,.089.089c0,.088.088.177.177.266s.177.177.266.177h.089c.088,0,.177.089.266.089,0,0,.088,0,0,.088-.089,0-.089-.088-.178-.088a.086.086,0,0,1-.088-.089H69.7c.089.089.089.266.266.266a.087.087,0,0,1,.089.089.19.19,0,0,0,.177.177.087.087,0,0,1,.089.089l.266.266a.19.19,0,0,1,.177.177v.088l.266.266.088.089c.089,0,.178.089.266.089a.087.087,0,0,1,.089.088c0,.089.089.089.177.178a.277.277,0,0,1,.178.088c.088,0,.088.089.088.178l.178.177.088.089c.089,0,.089.088.177.177h.089a.086.086,0,0,1,.089.088v.089a.087.087,0,0,1,.088.089l.266.266H70.494a2.472,2.472,0,0,0-.8.088H66.859a.4.4,0,0,0-.443,0H65c-.089.089-.178,0-.266,0H62.781c-.088,0-.088-.088-.177-.088H60.122a.087.087,0,0,1-.089-.089c-.088.089-.088.089-.177.089H57.2c-.178,0-.266.088-.444,0H48.686a.4.4,0,0,0-.443,0H46.825c-.089.088-.178,0-.266,0H44.608c-.088,0-.088-.089-.177-.089H41.949a.087.087,0,0,1-.089-.089c-.088.089-.088.089-.177.089H39.024c-.178,0-.266.089-.444,0H33.173a.274.274,0,0,1-.177.089c-.089.088-.089.088-.178.088h-.177l-.177.178c.088,0,.088.088.088.177v1.6a.166.166,0,0,1,0,.266v.088a.794.794,0,0,0,.089.443v1.153c0,.177.089.266,0,.443v.266h.532c.177,0,.266-.089.443,0,.089,0,.089,0,.177.089h1.951a.166.166,0,0,1,.266,0h0c.088,0,.177-.089.266-.089a.272.272,0,0,1,.177-.089h.886a.324.324,0,0,1,.266.089c.089,0,.089.089.178,0h.8l.089.089H39.2v-.089h.089a.307.307,0,0,0,.177.089h.354c.089.088.178.088.355.088h.443c.089,0,.178-.088.266-.088h.089c-.089,0-.089,0-.177.088a.087.087,0,0,0-.089.089l-.089.089c.178,0,.266.088.444,0h.177a.167.167,0,0,0,.266,0h1.241c.089,0,.089,0,.089-.089a.272.272,0,0,1,.177-.089h.266c.088,0,.088,0,.088-.088h1.862a.269.269,0,0,1,.355,0h.443l-.089.088h.178a.325.325,0,0,0,.265-.088c.089,0,.089-.089.178-.089h.709v.089h.089c.088-.089.088-.089.266-.089v.089l.088.088a.355.355,0,0,0,.355-.177h0c.088,0,.177.089.266,0h1.329a.324.324,0,0,1,.266.089,1.123,1.123,0,0,1,.532-.089h.355v.089h.532c.177,0,.266-.089.443,0,.089,0,.089,0,.177.088h1.951a.167.167,0,0,1,.266,0h0c.088,0,.177-.088.265-.088a.276.276,0,0,1,.178-.089h1.329c.089,0,.089.089.178,0h.8l.088.089h.532v-.089h.089a.307.307,0,0,0,.177.089h.355c.088.088.177.088.354.088h.444c.088,0,.177-.088.265-.088h.089c-.089,0-.089,0-.177.088a.087.087,0,0,0-.089.089l-.088.089c.177,0,.265.088.443,0h.177a.167.167,0,0,0,.266,0H61.1c.089,0,.089,0,.089-.089a.272.272,0,0,1,.177-.089h.266c.089,0,.089,0,.177-.088h1.862a.268.268,0,0,1,.354,0h.444l-.089.088h.177a.326.326,0,0,0,.266-.088c.089,0,.089-.089.178-.089h.709v.089H65.8c.089-.089.089-.089.266-.089v.089l.089.088a.355.355,0,0,0,.355-.177h0c.088,0,.177.089.266,0H68.1a.324.324,0,0,1,.266.089,1.123,1.123,0,0,1,.532-.089h5.94l-.089.089a.087.087,0,0,1-.089.088c-.088.089-.177.089-.177.178-.089.088-.089.177-.177.177l-.089.089a.087.087,0,0,1-.089.088l-.088.089c0,.089-.089.089-.177.089h0c0,.088-.178.088-.178.266l-.266.265h0c-.088,0-.088.089-.177.178s-.177.088-.266.266h0c-.089,0-.089.088-.177.177,0,.089-.089.089-.089.177l-.089.089-.266.266c-.088.089-.088.089-.177.089s-.088.088-.088.177c-.089.088-.178.088-.178.177h-.088l-.089.089-.177.177-.266.266-.089.089-.266.266-.089.088-.088.089-.266.266-.089.089h-.088c0,.088,0,.088-.089.177l-.266.266v.088a.191.191,0,0,1-.177.178l-.178.177h0c-.088.089-.177.177-.266.177l-.088.089a.087.087,0,0,1-.089.089l-.088.088a.087.087,0,0,1-.089.089.19.19,0,0,0-.177.177l-.266.266-.089.089c-.089.088-.177.266-.266.354l-.266.266-.177.178-.178.177a1.228,1.228,0,0,0-.265.354l-.266.266a.087.087,0,0,0-.089.089l-.443.443-.355.355h-.089l-.265.266-.444.443-.088.089-.178.177-.088.089c-.089,0-.089.088-.178.177a.087.087,0,0,1-.088.089l-.089.088-.089.089a.086.086,0,0,1-.088.089c0,.088-.089.177-.089.266s0,.177-.089.177l-.088.088v.266a.326.326,0,0,1,.266.089l.177.177v.178l.266.266.089.088a.086.086,0,0,0,.088.089c.089.089.178.177.178.266l.088.088a.191.191,0,0,1,.178.178.086.086,0,0,0,.088.088c.089.089.266.178.355.266a.086.086,0,0,1,.088.089l.089.089.177.177.266.266a.087.087,0,0,0,.089.089,1.218,1.218,0,0,1,.355.266l.088.088a.087.087,0,0,1,.089.089.087.087,0,0,0,.089.088.691.691,0,0,0,.354-.354c.089-.089.177-.266.266-.355.089,0,.089-.088.177-.088a.191.191,0,0,0,.178-.178.086.086,0,0,1,.088-.088l.178-.178.088-.088a.191.191,0,0,0,.178-.178c0-.088.088-.088.177-.177.089,0,.089-.089.177-.089a.087.087,0,0,1,.089-.088l.088-.089c.089,0,.178-.088.178-.266a.19.19,0,0,1,.177-.177h.089a.327.327,0,0,0,.088-.266c0-.089,0-.177.089-.177l.089-.089c0-.089.088-.089.088-.177l.266-.266c.089-.089.089-.089.178-.089l.088-.088c.089-.089.177-.089.266-.178.089,0,.089-.088.177-.088a.191.191,0,0,1,.178-.178h0c.088-.177.266-.266.354-.354l.089.088c.089,0,.089-.088.177-.088l.266-.266H72.09c0-.089,0-.089.088-.089s.089,0,.177-.089.178-.088.178-.177a.086.086,0,0,1,.088-.088c.089,0,.178-.089.266-.178s.178-.177.178-.266v-.088c0-.089.088-.178.088-.266,0,0,0-.089.089,0,0,.088-.089.088-.089.177a.087.087,0,0,1-.088.089v.088c.088-.088.266-.088.266-.266a.086.086,0,0,1,.088-.088.191.191,0,0,0,.178-.178.086.086,0,0,1,.088-.088l.266-.266a.191.191,0,0,1,.177-.178h.089a1.215,1.215,0,0,0,.266-.354l.089-.089c0-.088.088-.177.088-.266a.086.086,0,0,1,.089-.088c.089,0,.089-.089.177-.178a.086.086,0,0,1,.089-.088c0-.089.089-.089.177-.089l.178-.177.088-.089c0-.089.089-.089.177-.177v-.089a.087.087,0,0,1,.089-.088h.089a.086.086,0,0,1,.088-.089c.178-.089.266-.266.355-.355s.177-.266.266-.266l.266-.266h.089v.089c.088,0,.088-.089.177-.089l.177-.177c0-.089,0-.089.089-.177l.088-.089c0-.088.089-.088.178-.177l.177-.177.089-.089h0v.089l.088-.089c-.088-.089,0-.177.178-.266l.088.089.178-.089c.088-.089.177-.177.088-.355h0c.089-.088.177-.088.177-.177h0l.355-.355.089-.088a.086.086,0,0,0,.088-.089c.089-.088.178-.266.355-.354.089-.089.177-.089.266-.178v-.088a1.222,1.222,0,0,1,.266-.355c.089,0,.089-.089.177-.089l.266-.266.089-.088.266-.266.088-.089.266-.266c.089-.088.089-.177.178-.266l.266-.266h0c.088-.088.177-.088.177-.177l.177-.177.266-.266h0c.089-.089.177-.177.266-.177.089-.089.266-.178.355-.355l.088-.089C82.993,98.608,82.905,98.608,82.816,98.519Zm-43.261,1.507a.323.323,0,0,1-.265.089.323.323,0,0,1,.265-.089Z" transform="translate(-3.05 -9.436)"/><path class="cls-1" d="M81.4,56.957l-.266-.266V56.6c0-.088-.089-.088-.089-.177a.087.087,0,0,0-.089-.089c-.088-.088-.177-.265-.354-.354a.087.087,0,0,1-.089-.089l-.266-.266-.088-.088-.178-.178c-.177-.177-.443-.354-.62-.532l-.178-.177c0-.088-.088-.088-.088-.177L79,54.386l-.266-.266-.088-.088a.191.191,0,0,0-.178-.178l-.088-.088-.089-.089h0l-.089-.089c-.088-.088-.088-.177-.177-.177a.087.087,0,0,0-.089-.089h-.088l-.266-.266a.19.19,0,0,1-.178-.177,1.2,1.2,0,0,0-.266-.354.087.087,0,0,1-.088-.089c-.089-.089-.089-.177-.177-.177-.089-.089-.178-.089-.178-.178l-.088-.088a.087.087,0,0,1-.089-.089l-.089-.089c-.088,0-.088-.088-.088-.177h0c-.089,0-.089-.177-.266-.177l-.266-.266h0c0-.089-.089-.089-.178-.177s-.088-.178-.265-.266h0c0-.089-.089-.089-.178-.178-.088,0-.088-.088-.177-.088l-.089-.089-.266-.266c-.088-.089-.088-.089-.088-.177s-.089-.089-.178-.089c-.088-.088-.088-.177-.177-.177V49.6a.087.087,0,0,0-.089-.088l-.177-.178-.266-.266-.088-.088-.266-.266-.089-.089-.089-.089-.266-.266-.088-.088v-.089c-.089,0-.089,0-.178-.088l-.266-.266h-.088a.19.19,0,0,1-.177-.178l-.178-.177h0c-.088-.089-.177-.177-.177-.266l-.089-.089a.086.086,0,0,1-.088-.088l-.089-.089a.087.087,0,0,1-.089-.089.19.19,0,0,0-.177-.177l-.266-.266-.089-.088c-.088-.089-.265-.178-.354-.266l-.266-.266a1.776,1.776,0,0,1-.443-.444l-.178-.177a1.215,1.215,0,0,0-.354-.266l-.266-.266a.086.086,0,0,0-.089-.088l-.443-.444L68.1,43.66v-.089l-.266-.266-.443-.443-.089-.089a.308.308,0,0,1-.088-.177l-.089-.089c0-.088-.088-.088-.177-.177a.087.087,0,0,1-.089-.089l-.088-.088-.089-.089a.087.087,0,0,1-.089-.089c-.088,0-.177-.088-.266-.088s-.177,0-.177-.089l-.089-.089H65.8a.326.326,0,0,1-.088.266l-.177.178h-.178l-.266.266L65,42.507a.087.087,0,0,0-.089.089c-.089.089-.089.177-.266.177l-.089.089a.19.19,0,0,1-.177.177.087.087,0,0,0-.089.089c-.088.088-.177.266-.265.354a.087.087,0,0,1-.089.089l-.089.089-.177.177L63.4,44.1a.087.087,0,0,0-.089.089,1.2,1.2,0,0,1-.266.354l-.088.089a.087.087,0,0,1-.089.089c-.089,0-.089.265-.089.265a.7.7,0,0,0,.355.355c.089.089.266.177.355.266,0,.089.088.089.088.177a.191.191,0,0,0,.178.178.086.086,0,0,1,.088.088l.177.178.089.088a.19.19,0,0,0,.177.177c.089,0,.089.089.178.178,0,.088.088.088.088.177a.087.087,0,0,1,.089.089l.089.088c0,.089.088.178.266.178a.19.19,0,0,1,.177.177v.089c.089,0,.177.088.266.088s.177,0,.177.089l.089.089c.088,0,.088.088.177.088l.266.266.177.177a.087.087,0,0,0,.089.089c.089.089.089.177.177.266,0,.089.089.089.089.177a.19.19,0,0,1,.177.178h0c.178.088.266.266.355.354l-.089.089c0,.089.089.089.089.177l.266.266h0v-.089c.088,0,.088,0,.088.089s0,.089.089.177.089.178.177.178a.087.087,0,0,1,.089.088c0,.089.089.178.177.266s.178.178.266.178h.089c.089,0,.177.088.266.088v.089a.31.31,0,0,0-.177-.089.087.087,0,0,1-.089-.088h-.089c.089.088.089.266.266.266a.086.086,0,0,1,.089.088.19.19,0,0,0,.177.178.086.086,0,0,1,.089.088l.266.266a.191.191,0,0,1,.177.177V51.9l.266.266.089.089c.088,0,.177.088.266.088a.086.086,0,0,1,.088.089c0,.089.089.089.178.177a.274.274,0,0,1,.177.089c.088,0,.088.089.088.177l.178.177.088.089c.089,0,.089.089.178.177h.088a.087.087,0,0,1,.089.089V53.5a.086.086,0,0,1,.089.088l.266.266H69.164a2.446,2.446,0,0,0-.8.089H65.529a.4.4,0,0,0-.443,0H63.668c-.089.089-.177,0-.266,0h-1.95c-.089,0-.089-.089-.178-.089H58.792a.086.086,0,0,1-.088-.088c-.089.088-.089.088-.178.088H55.867c-.177,0-.266.089-.443,0H47.268a.4.4,0,0,0-.443,0H45.406c-.088.089-.177,0-.266,0H43.19c-.089,0-.089-.088-.177-.088H40.531a.087.087,0,0,1-.089-.089c-.089.089-.089.089-.177.089H37.6c-.177,0-.266.088-.443,0H31.754a.274.274,0,0,1-.177.088c-.089.089-.089.089-.177.089h-.178l-.177.177c.089,0,.089.089.089.178v1.595a.167.167,0,0,1,0,.266v.089a.8.8,0,0,0,.088.443v1.152c0,.178.089.266,0,.444v.266h.532c.178,0,.266-.089.444,0,.088,0,.088,0,.177.088h1.95a.167.167,0,0,1,.266,0h0c.089,0,.177-.088.266-.088a.274.274,0,0,1,.177-.089h.887a.325.325,0,0,1,.266.089c.088,0,.088.088.177,0h.8l.089.088h.531v-.088h.089a.311.311,0,0,0,.177.088H38.4c.089.089.177.089.355.089H39.2c.089,0,.177-.089.266-.089h.088c-.088,0-.088,0-.177.089a.086.086,0,0,0-.088.089l-.089.088c.177,0,.266.089.443,0h.177a.166.166,0,0,0,.266,0h1.241c.089,0,.089,0,.089-.088a.274.274,0,0,1,.177-.089h.266c.089,0,.089,0,.089-.089h1.862a.27.27,0,0,1,.354,0h.443l.355-.088h.177a.324.324,0,0,0,.266-.089c.089,0,.089-.089.178-.089h.709v.089h.088c.089-.089.089-.089.266-.089v.089l.178.089a.353.353,0,0,0,.354-.178h0c.089,0,.178.089.266,0h1.33a.325.325,0,0,1,.266.089,1.119,1.119,0,0,1,.532-.089h.354v.089h.532c.178,0,.266-.089.443,0,.089,0,.089,0,.178.089h1.95a.166.166,0,0,1,.266,0h0c.089,0,.177-.089.266-.089a.274.274,0,0,1,.177-.089h1.33c.089,0,.089.089.177,0h.8l.089.089h.532v-.089h.088a.311.311,0,0,0,.178.089h.354c.089.089.177.089.355.089h.443c.089,0,.177-.089.266-.089h.089c-.089,0-.089,0-.178.089a.086.086,0,0,0-.088.088l-.089.089c.177,0,.266.089.443,0H58.7a.166.166,0,0,0,.266,0h1.241c.088,0,.088,0,.088-.089a.277.277,0,0,1,.178-.088h.265c.089,0,.089,0,.178-.089h1.861a.269.269,0,0,1,.355,0h.443l-.354.089H63.4a.325.325,0,0,0,.266-.089c.089,0,.089-.089.177-.089h.709v.089h.089c.089-.089.089-.089.266-.089v.089l.089.089a.353.353,0,0,0,.354-.178h0c.089,0,.178.089.266,0h1.33a.325.325,0,0,1,.266.089,1.119,1.119,0,0,1,.532-.089h5.939l-.088.089a.087.087,0,0,1-.089.089c-.089.088-.177.088-.177.177-.089.089-.089.177-.178.177L73.065,59a.087.087,0,0,1-.089.089l-.089.088c0,.089-.088.089-.177.089h0c0,.089-.177.089-.177.266l-.266.266h0c-.089,0-.089.088-.177.177s-.178.089-.266.266h0c-.089,0-.089.089-.178.177,0,.089-.088.089-.088.178l-.089.088-.266.266c-.089.089-.089.089-.177.089s-.266.266-.266.354c-.089.089-.178.089-.178.178h-.088a.086.086,0,0,0-.089.088l-.177.178-.266.266-.089.088-.266.266-.088.089-.089.089-.266.265-.089.089h-.088c0,.089,0,.089-.089.177l-.266.266v.089a.19.19,0,0,1-.177.177l-.177.178h0c-.089.088-.178.177-.266.177l-.089.089a.087.087,0,0,1-.089.088l-.088.089a.087.087,0,0,1-.089.088.19.19,0,0,0-.177.178l-.266.266-.089.088c-.088.089-.177.266-.266.355l-.266.266-.177.177-.177.177a1.218,1.218,0,0,0-.266.355l-.266.266a.087.087,0,0,0-.089.089l-.443.443-.355.355h-.088l-.266.265-.443.444-.089.088-.177.178-.089.088c-.089,0-.089.089-.177.178a.086.086,0,0,1-.089.088l-.089.089-.088.089a.087.087,0,0,1-.089.088c0,.089-.089.177-.089.266s0,.177-.088.177l-.089.089v.266a.325.325,0,0,1,.266.089l.177.177v.177l.266.266.089.089a.087.087,0,0,0,.089.089c.088.088.177.177.177.265l.089.089a.191.191,0,0,1,.177.177.087.087,0,0,0,.088.089c.089.089.266.177.355.266a.087.087,0,0,1,.089.089l.088.088.178.178.266.266a.086.086,0,0,0,.088.088,1.222,1.222,0,0,1,.355.266l.088.089a.087.087,0,0,1,.089.088.087.087,0,0,0,.089.089.689.689,0,0,0,.354-.355c.089-.088.178-.265.266-.354.089,0,.089-.089.178-.089a.19.19,0,0,0,.177-.177.087.087,0,0,1,.089-.089l.177-.177L67.3,71.5a.19.19,0,0,0,.177-.177c0-.089.088-.089.177-.177.089,0,.089-.089.177-.089a.087.087,0,0,1,.089-.089l.089-.088c.088,0,.177-.089.177-.266a.19.19,0,0,1,.177-.177h.089c0-.089.089-.178.089-.266s0-.178.088-.178l.089-.088c0-.089.089-.089.089-.178l.265-.266c.089-.088.089-.088.178-.088a.086.086,0,0,0,.088-.089c.089-.089.178-.089.266-.177.089,0,.089-.089.178-.089a.19.19,0,0,1,.177-.177h0c.089-.177.266-.266.355-.355l.088.089c.089,0,.089-.089.177-.089l.266-.266H70.76c0-.088,0-.088.088-.088s.089,0,.178-.089.177-.089.177-.177a.087.087,0,0,1,.089-.089c.088,0,.177-.089.266-.177s.177-.177.177-.266V67.24c0-.088.089-.177.089-.266,0,0,0-.088.088,0,0,.089-.088.089-.088.178a.086.086,0,0,1-.089.088v.089c.089-.089.266-.089.266-.266a.087.087,0,0,1,.089-.089.19.19,0,0,0,.177-.177.086.086,0,0,1,.088-.089l.266-.266a.191.191,0,0,1,.178-.177h.088a1.2,1.2,0,0,0,.266-.355l.089-.088c0-.089.089-.177.089-.266a.087.087,0,0,1,.088-.089c.089,0,.089-.088.178-.177a.087.087,0,0,1,.088-.089c0-.088.089-.088.177-.088l.178-.178.088-.088c0-.089.089-.089.178-.178v-.088a.086.086,0,0,1,.088-.089h.089a.087.087,0,0,1,.089-.089c.177-.088.266-.265.354-.354s.178-.266.266-.266l.266-.266h.089v.089c.088,0,.088-.089.177-.089l.177-.177c0-.089,0-.089.089-.178l.089-.088c0-.089.088-.089.177-.178l.177-.177.089-.088h0v.088l.089-.088c-.089-.089,0-.178.177-.266l.088.088.178-.088c.088-.089.177-.178.088-.355h0c.089-.089.178-.089.178-.177h0l.354-.355.089-.089a.087.087,0,0,0,.089-.088c.088-.089.177-.266.354-.355.089-.088.178-.088.266-.177V60.68a1.215,1.215,0,0,1,.266-.354c.089,0,.089-.089.177-.089l.266-.266.089-.089.266-.266.089-.088c.088-.089.177-.177.266-.177.088-.089.088-.178.177-.266l.266-.266h0c.088-.089.177-.089.177-.178.089-.088.089-.177.177-.177l.266-.266h0c.089-.089.178-.177.266-.177.089-.089.266-.177.355-.355l.089-.088C81.575,57.046,81.486,56.957,81.4,56.957ZM38.137,58.464a.325.325,0,0,1-.266.089.325.325,0,0,1,.266-.089Z" transform="translate(-3.05 -9.436)"/><path class="cls-2" d="M12.8,56.868c.8,1.951,1.773,3.9,2.748,5.763l-3.191,1.507c-.8-1.507-1.507-3.1-2.217-4.61C8.191,61.478,6.507,63.074,5,64.315L3.05,62.453c1.861-1.6,3.9-3.28,6.028-5.319-.975-2.216-1.862-4.432-2.66-6.56l3.457-1.063c.532,1.507,1.153,3.191,1.862,4.875,1.418-1.684,2.748-3.457,4.078-5.319l2.305,1.685A69.17,69.17,0,0,1,12.8,56.868Z" transform="translate(-3.05 -9.436)"/><path class="cls-2" d="M19.184,93.023a170.56,170.56,0,0,0-7.092,18.971l-3.1-.887c.8-2.837,2.482-7.269,4.166-11.524A49,49,0,0,1,6.33,106.32l-3.014-1.241c1.418-4.876,2.925-9.308,3.811-13.474l3.458.62c-.71,2.926-1.685,6.294-2.837,9.929A45.482,45.482,0,0,0,16.17,91.782Z" transform="translate(-3.05 -9.436)"/><path class="cls-1" d="M293.005,38.941c.063-.735-.026-1.474-.011-2.21-.127-1.284-.232-2.571-.384-3.854-.313-2.638-.9-5.247-1.434-7.854-.836-4.067-.7-6.37,1.226-10.968a7.291,7.291,0,0,0,.556-3.51c-.009-.134-.033-.288-.048-.43-2,.416-4.009.822-6.034,1.064-4.563.542-9.149.887-13.725,1.322-1.241.119-2.426.128-3.359-.915-1.052-1.176-2.418-1.044-3.769-.776a17.8,17.8,0,0,0-1.926.612,9.554,9.554,0,0,1-6.352.073c-2.725-.975-5.627-.149-8.4-.727A4.376,4.376,0,0,1,245.1,10.7a1.57,1.57,0,0,0-1.158.132c-1.572.7-3.143.309-4.762.257-3.655-.116-7.394-1.718-10.986.365-.192.112-.525-.024-.8-.039-4.035-.218-8.04.57-12.113.1-3.184-.368-6.449-.026-9.677-.042a7.131,7.131,0,0,1-1.993-.318,12.562,12.562,0,0,0-8.734.343L192.46,9.8a21.84,21.84,0,0,1-4.246.65c-3.757-.2-7.5-.628-11.252-.938a5.86,5.86,0,0,0-4.245.946,3.214,3.214,0,0,1-1.829.655c-2.147-.034-4.292-.246-6.441-.326a6.447,6.447,0,0,0-2.782.195,6.765,6.765,0,0,1-4.372.108A22.233,22.233,0,0,0,150.442,11c-2.016.217-4.036.413-6.059.542a5.939,5.939,0,0,1-2.778-.165c-1.349-.652-2.509-.376-3.868-.15-2.377.394-4.82.388-7.236.549-2.105-1.441-4.418-.828-6.693-.709A7.03,7.03,0,0,1,121,10.911c-3.279-1.27-6.55-1.036-9.866-.278a19.776,19.776,0,0,1-5.274.079,2.007,2.007,0,0,1,.162,1.178c-.733,4.624.464,9.147.713,13.717a19.39,19.39,0,0,1-.266,5.23,35.09,35.09,0,0,0-.834,8.86.954.954,0,0,1,.312.1,15.088,15.088,0,0,1,4.75.975,7.934,7.934,0,0,0,3.162.178c2.565-.138,5.175-.83,7.55.8,2.725-.183,5.481-.178,8.163-.621,1.534-.255,2.837-.566,4.363.169a6.666,6.666,0,0,0,3.134.187c2.282-.146,4.561-.367,6.835-.612a25.074,25.074,0,0,1,7.729.1,7.634,7.634,0,0,0,4.933-.123,7.285,7.285,0,0,1,3.138-.22c2.423.089,4.843.329,7.269.367a3.623,3.623,0,0,0,2.063-.738,6.613,6.613,0,0,1,4.787-1.064c4.232.349,8.456.83,12.694,1.058a24.49,24.49,0,0,0,4.787-.733l2.735,1.91a14.166,14.166,0,0,1,9.853-.387,8.044,8.044,0,0,0,2.247.355c3.643.019,7.325-.368,10.918.047,4.594.532,9.113-.355,13.665-.112.3.017.679.171.9.045,4.052-2.35,8.271-.544,12.394-.413,1.826.058,3.6.5,5.37-.289a1.769,1.769,0,0,1,1.307-.149,4.939,4.939,0,0,0,4.787.08c3.127.653,6.4-.279,9.476.82a10.774,10.774,0,0,0,7.165-.082,20.141,20.141,0,0,1,2.172-.69c1.523-.3,3.065-.451,4.255.875,1.054,1.177,2.387,1.167,3.79,1.032,3.312-.317,6.627-.61,9.939-.925a.887.887,0,0,1,.223-.172A24.425,24.425,0,0,0,293.005,38.941Z" transform="translate(-3.05 -9.436)"/><path class="cls-2" d="M292.891,62.136a40.2,40.2,0,0,1-.047-4.266c.014-.266.15-.6.038-.8-2.082-3.592-.481-7.332-.365-10.987.048-1.515.36-2.988-.168-4.46-3.336.32-6.675.613-10.01.933-1.4.135-2.735.145-3.789-1.032-1.187-1.33-2.729-1.178-4.256-.875a20.212,20.212,0,0,0-2.172.69,10.774,10.774,0,0,1-7.165.082c-3.075-1.1-6.348-.167-9.476-.82a4.939,4.939,0,0,1-4.787-.08,1.767,1.767,0,0,0-1.306.149c-1.773.788-3.546.347-5.371.289-4.123-.131-8.341-1.937-12.394.413-.217.126-.593-.028-.9-.045-4.552-.245-9.07.643-13.664.112-3.593-.415-7.276-.028-10.918-.047a8.038,8.038,0,0,1-2.247-.355,14.168,14.168,0,0,0-9.854.387l-2.734-1.91a24.568,24.568,0,0,1-4.787.733c-4.239-.228-8.463-.709-12.695-1.058a6.613,6.613,0,0,0-4.787,1.064,3.62,3.62,0,0,1-2.063.738c-2.423-.038-4.843-.277-7.269-.367a7.281,7.281,0,0,0-3.137.22,7.624,7.624,0,0,1-4.934.123,25.073,25.073,0,0,0-7.729-.1c-2.274.245-4.553.466-6.835.612a6.663,6.663,0,0,1-3.133-.187c-1.522-.735-2.829-.424-4.364-.169-2.681.443-5.437.438-8.162.621-2.375-1.627-4.985-.935-7.551-.8a7.935,7.935,0,0,1-3.162-.178,15.1,15.1,0,0,0-4.875-.984,38.706,38.706,0,0,1,1.338,7.889,11.924,11.924,0,0,0,.348,2.809c.91,2.475,1.586,4.894-.006,7.344a52.615,52.615,0,0,1-.531,6.959c-.089.8-.156,1.6-.2,2.394a5.055,5.055,0,0,1-.684,1.163c-1.409,1.821-.892,4-.289,5.85.008.024.013.049.02.073.485.021.975.068,1.457.131A28.968,28.968,0,0,1,107,82.816a7.053,7.053,0,0,0,.326,2.737,8.037,8.037,0,0,1,.029,4.4,8.6,8.6,0,0,0,.339,5.923c.228.631.43,1.271.7,2.067a7.819,7.819,0,0,0-1.654,6.351,5.488,5.488,0,0,1-.141,1.6,33.456,33.456,0,0,0-.192,7.464h.157c3.092.006,6.174-.758,9.275-.131,3.161-1.014,6.393-.372,9.574-.275a16.046,16.046,0,0,0,5.971-.6,18.629,18.629,0,0,1,7.181-.709c3.014.147,6.156,1.079,9.034-.769a2.2,2.2,0,0,1,1.174-.192c1.748.041,3.68-.326,5.193.3,1.754.728,3.508.038,5.061.6,3.528,1.283,7.11.718,10.386-.159,3.429-.919,6.631-.621,9.958-.28a5.512,5.512,0,0,0,1.6.141,7.816,7.816,0,0,1,6.351,1.655c.8-.266,1.436-.47,2.066-.7a8.6,8.6,0,0,1,5.915-.335,8.018,8.018,0,0,0,4.4-.029,7.079,7.079,0,0,1,2.738-.325c4.054.827,8.079.382,12.1-.125,4.348-.548,8.585.745,12.9.631,2.45,1.595,4.869.915,7.343.006a11.978,11.978,0,0,1,2.809-.349,38.228,38.228,0,0,0,7.96-1.357c1.853-.6,4.029-1.12,5.851.289a4.354,4.354,0,0,0,4.927.416,7.292,7.292,0,0,1,1.964-.452c5.365-.8,10.76-.248,16.142-.332,1.21-.018,2.436.172,3.628.035a33.208,33.208,0,0,1,10.849.709,14.306,14.306,0,0,0,2.324.289,7.034,7.034,0,0,1-.3-3.008c.31-3.751.736-7.5.938-11.252a21.7,21.7,0,0,0-.65-4.247l1.693-2.424a12.559,12.559,0,0,1-.342-8.733,7.137,7.137,0,0,0,.317-1.994c.017-3.229-.325-6.493.042-9.677A46.743,46.743,0,0,0,292.891,62.136Z" transform="translate(-3.05 -9.436)"/><path class="cls-3" d="M207.381,77.647c0,3.071-1.826,5.643-6.56,5.643-4.453,0-7.11-2.379-7.11-8.825,0-5.781,2.185-10.567,8.688-10.567a15.514,15.514,0,0,1,4.7.692l-.69,2.216a12.924,12.924,0,0,0-4.233-.663c-4.066,0-5.394,2.433-5.781,5.477l4.37.525C205.085,72.64,207.381,74.217,207.381,77.647Zm-2.546.222c0-2.159-1.241-3.1-4.675-3.514l-3.9-.47v.443c0,5.142,1.493,6.721,4.787,6.721,2.737,0,3.788-1.217,3.788-3.18Z" transform="translate(-3.05 -9.436)"/><path class="cls-3" d="M192.1,23.023a106.879,106.879,0,0,0-4.244,13l-3.157-.69a84.568,84.568,0,0,1,3.953-13.208Zm.77-2.3-3.183-.929a37.3,37.3,0,0,1,2.6-6.233l3.182.978a63.42,63.42,0,0,0-2.6,6.182Z" transform="translate(-3.05 -9.436)"/><path class="cls-3" d="M207.079,24.165a43.669,43.669,0,0,0-4.3,12.626l-3.29-.556A59.288,59.288,0,0,1,202.3,26.5a74.084,74.084,0,0,0-6.287,5.439c-.292,1.273-.716,2.52-1.114,3.872l-3.183-.8c.981-3.5,2.228-7.189,3.448-12.6l3.4.689a40.446,40.446,0,0,1-1.459,5.2,72.346,72.346,0,0,1,6.923-5.864Z" transform="translate(-3.05 -9.436)"/><path class="cls-3" d="M217.66,24.669c-1.034.08-2.069.132-3.1.132a106.064,106.064,0,0,0-3.475,11.194l-3.076-.663c.531-2.227,1.378-5.994,2.864-10.61-1.088-.079-2.015-.159-2.6-.239l.4-2.038c.849.054,1.856.106,2.918.133.636-1.831,1.378-3.766,2.2-5.783l3.581,1.088c-.717,1.6-1.352,3.156-1.963,4.721.848-.053,1.724-.105,2.785-.212Z" transform="translate(-3.05 -9.436)"/></svg>