<svg id="Livello_1" data-name="Livello 1" xmlns="http://www.w3.org/2000/svg" viewBox="0 0 289.461 258.809"><defs><style>.cls-1{fill:#f36;}.cls-2{fill:#1858a8;}.cls-3{fill:#ffeded;}</style></defs><title>6_4_1</title><path class="cls-1" d="M74.277,214.672a1.058,1.058,0,0,0-.278-.28c-.018-.009-.029-.031-.043-.047l-.13-.141c-.042-.045-.089-.074-.13-.119a3.236,3.236,0,0,0-.324-.328.309.309,0,0,1-.069-.066,1.163,1.163,0,0,0-.233-.242c-.036-.033-.07-.068-.1-.1-.051-.055-.1-.114-.153-.164-.2-.177-.4-.355-.6-.532a.833.833,0,0,1-.166-.194.846.846,0,0,0-.111-.136.914.914,0,0,1-.088-.088,1.277,1.277,0,0,0-.246-.252.6.6,0,0,1-.093-.089.4.4,0,0,0-.186-.17c-.022-.009-.038-.036-.057-.054l-.1-.1a.084.084,0,0,1,.023-.023h-.036a.024.024,0,0,1-.012,0l-.035-.036c-.03-.031-.066-.055-.095-.089-.063-.072-.128-.143-.185-.22a.353.353,0,0,0-.125-.121.141.141,0,0,1-.049-.038.94.94,0,0,0-.293-.247c-.072-.042-.157-.094-.177-.177a.606.606,0,0,0-.282-.335.588.588,0,0,1-.128-.116,1.234,1.234,0,0,0-.206-.221,1.206,1.206,0,0,1-.194-.21.343.343,0,0,0-.108-.089.328.328,0,0,1-.128-.117.5.5,0,0,0-.075-.084c-.054-.052-.116-.1-.128-.177a.059.059,0,0,0-.029-.038c-.1-.026-.132-.139-.225-.172a1,1,0,0,0-.266-.243.032.032,0,0,1-.01-.013.509.509,0,0,0-.165-.177c-.088-.067-.129-.185-.239-.232-.01,0-.016-.027-.02-.042a.272.272,0,0,0-.15-.16.3.3,0,0,1-.137-.128.318.318,0,0,0-.089-.11,1.192,1.192,0,0,1-.3-.282c-.048-.055-.061-.127-.109-.177s-.117-.076-.167-.121c-.069-.063-.112-.158-.221-.172-.016,0-.029-.029-.043-.045s-.05-.056-.077-.082a2.052,2.052,0,0,1-.187-.2c-.081-.1-.164-.195-.239-.3a.173.173,0,0,0-.058-.053,1.39,1.39,0,0,1-.3-.286.438.438,0,0,0-.117-.106.693.693,0,0,1-.1-.073,1.511,1.511,0,0,1-.266-.276c-.026-.034-.066-.058-.089-.094a.461.461,0,0,1-.03-.116c-.121-.016-.122-.015-.153-.05l-.231-.266a.149.149,0,0,0-.047-.043c-.093-.04-.142-.127-.211-.193-.053-.05-.088-.123-.161-.15-.013,0-.021-.023-.031-.035-.069-.081-.137-.164-.207-.245a.2.2,0,0,0-.062-.049.28.28,0,0,1-.118-.1.259.259,0,0,0-.094-.089.226.226,0,0,1-.109-.111.453.453,0,0,0-.173-.187,1.076,1.076,0,0,1-.259-.258.406.406,0,0,0-.118-.1,1.249,1.249,0,0,1-.34-.291,2.538,2.538,0,0,0-.224-.228c-.051-.047-.1-.095-.151-.144s-.1-.113-.152-.163c-.1-.095-.206-.187-.313-.278a1.226,1.226,0,0,1-.266-.295.425.425,0,0,0-.058-.076c-.147-.147-.3-.29-.443-.444a4.875,4.875,0,0,0-.373-.374.482.482,0,0,1-.038-.051,3.09,3.09,0,0,0-.232-.266c-.15-.136-.289-.284-.452-.406a.9.9,0,0,1-.118-.129,1.328,1.328,0,0,0-.168-.191.557.557,0,0,1-.109-.113.359.359,0,0,0-.149-.14.233.233,0,0,1-.082-.074,1.38,1.38,0,0,0-.1-.122.237.237,0,0,0-.121-.071c-.064-.006-.08-.075-.131-.083-.084-.012-.153-.07-.245-.067a.283.283,0,0,1-.186-.089,1.1,1.1,0,0,0-.088-.073.148.148,0,0,0-.071-.032h-.194a.2.2,0,0,1-.047.227c-.047.063-.116.11-.143.19-.006.02-.041.03-.064.043s-.058.013-.071.031c-.068.088-.177.142-.23.243a.18.18,0,0,1-.089.083.212.212,0,0,0-.117.1.448.448,0,0,1-.244.219.156.156,0,0,0-.089.1.3.3,0,0,1-.177.21.264.264,0,0,0-.074.059,1.881,1.881,0,0,0-.28.349.218.218,0,0,1-.066.069c-.038.029-.082.051-.119.082a1.089,1.089,0,0,0-.188.171,1.419,1.419,0,0,1-.283.3.5.5,0,0,0-.117.133,1.117,1.117,0,0,1-.3.345.4.4,0,0,0-.083.1c-.02.031-.031.068-.05.1a.8.8,0,0,1-.064.089,1.1,1.1,0,0,0,.365.366c.116.089.266.148.339.285.029.051.061.1.089.152a.35.35,0,0,0,.2.193.309.309,0,0,1,.108.066,2.108,2.108,0,0,1,.164.177.41.41,0,0,1,.07.1.393.393,0,0,0,.146.186.423.423,0,0,1,.136.152.261.261,0,0,0,.132.134.219.219,0,0,1,.113.109c.023.043.054.08.077.123a.293.293,0,0,0,.222.163.209.209,0,0,1,.19.206.2.2,0,0,0,.018.046.726.726,0,0,0,.257.088.236.236,0,0,1,.2.108c.019.033.066.052.1.075a1.568,1.568,0,0,1,.177.114c.089.077.169.164.254.245a.4.4,0,0,1,.133.177c.008.033.043.06.068.089a.546.546,0,0,1,.14.228.187.187,0,0,0,.115.145.2.2,0,0,1,.153.147.082.082,0,0,0,.029.037c.141.114.258.251.4.375l-.054.131a1.491,1.491,0,0,0,.132.165c.089.089.191.172.288.257h.023l.01-.054c.057.006.081.034.078.076a.232.232,0,0,0,.055.146.5.5,0,0,0,.2.183c.039.019.079.039.088.083a.826.826,0,0,0,.178.284,1.618,1.618,0,0,0,.233.22c.017.016.048.018.072.028.089.037.178.073.266.113.022.01.045.032.008.068-.044-.023-.088-.048-.139-.07a.622.622,0,0,0-.117-.047.571.571,0,0,0-.089.018c.078.126.128.25.278.288a.155.155,0,0,1,.1.114.284.284,0,0,0,.191.2.215.215,0,0,1,.124.095.7.7,0,0,0,.26.233.286.286,0,0,1,.161.169.082.082,0,0,0,.034.051,1.933,1.933,0,0,1,.311.253.191.191,0,0,0,.129.058c.089-.007.149.055.23.062a.087.087,0,0,1,.059.048.316.316,0,0,0,.171.138c.044.02.089.036.134.054.073.029.114.076.1.142.058.066.105.124.157.177a.542.542,0,0,0,.121.1.567.567,0,0,1,.172.14.114.114,0,0,0,.062.043.109.109,0,0,1,.1.1.07.07,0,0,0,.036.049c.049.019.07.064.1.1a1.585,1.585,0,0,0,.3.287,1.434,1.434,0,0,1-.227,0,1.1,1.1,0,0,0-.4,0,.167.167,0,0,1-.063,0c-.064,0-.127-.008-.191-.008s-.119.012-.178.007a3.53,3.53,0,0,0-.46,0,.315.315,0,0,1-.1,0,1.176,1.176,0,0,0-.335-.006H62.5c-.074,0-.149-.011-.223-.008-.266.014-.532.031-.8.049a.8.8,0,0,1-.254-.02.888.888,0,0,0-.178-.018.911.911,0,0,1-.128,0,1.319,1.319,0,0,0-.355,0,.54.54,0,0,1-.127,0,.4.4,0,0,0-.252.011.21.21,0,0,1-.079,0c-.075,0-.149-.007-.224-.007-.043,0-.088.008-.128.006a2.734,2.734,0,0,1-.286-.024.336.336,0,0,0-.178,0,.148.148,0,0,1-.063.008.94.94,0,0,0-.38.033.343.343,0,0,1-.252,0,.594.594,0,0,0-.436-.039.62.62,0,0,1-.172.009,1.229,1.229,0,0,0-.3-.011,1.182,1.182,0,0,1-.285-.012.374.374,0,0,0-.141.013.343.343,0,0,1-.177.008.514.514,0,0,0-.111-.007.321.321,0,0,1-.217-.034.053.053,0,0,0-.046-.006c-.089.051-.191-.006-.281.037a1.031,1.031,0,0,0-.363.018.022.022,0,0,1-.016,0,.508.508,0,0,0-.239-.006c-.111.016-.222-.04-.333,0a.1.1,0,0,1-.044-.015.262.262,0,0,0-.219-.007.314.314,0,0,1-.187.007.3.3,0,0,0-.143-.014,1.171,1.171,0,0,1-.413.014c-.072,0-.132-.046-.2-.046s-.134.029-.2.033c-.088,0-.189-.033-.277.034-.013.01-.041,0-.062,0a.837.837,0,0,0-.112,0,1.888,1.888,0,0,1-.271-.008c-.128-.011-.255-.02-.382-.042a.176.176,0,0,0-.079,0,1.388,1.388,0,0,1-.412.007.485.485,0,0,0-.157.008.594.594,0,0,1-.126.022,1.534,1.534,0,0,1-.383-.007.913.913,0,0,1-.128,0,.466.466,0,0,1-.1-.061c-.1.074-.1.076-.143.073l-.355-.025a.172.172,0,0,0-.064,0,.8.8,0,0,1-.284.014.459.459,0,0,0-.221.008.148.148,0,0,1-.047,0c-.106-.01-.213-.02-.318-.028a.176.176,0,0,0-.079.01.271.271,0,0,1-.157.01.26.26,0,0,0-.127.007.248.248,0,0,1-.157,0,.445.445,0,0,0-.253-.01,1.065,1.065,0,0,1-.365,0,.414.414,0,0,0-.157.01,1.273,1.273,0,0,1-.443.034,2.441,2.441,0,0,0-.32,0c-.07,0-.139.006-.209,0s-.149-.01-.222-.008c-.14.006-.279.014-.418.026a1.244,1.244,0,0,1-.4-.019.436.436,0,0,0-.095-.014h-.409l-.013-.009a1.434,1.434,0,0,1-.227,0,1.1,1.1,0,0,0-.4,0,.167.167,0,0,1-.063,0c-.064,0-.127-.008-.191-.008h-.014a1.719,1.719,0,0,0-.258-.016c-.156.008-.312.009-.468.022a1.243,1.243,0,0,0-.328-.006h-.059a.7.7,0,0,0-.177-.008.6.6,0,0,1-.158,0,.346.346,0,0,0-.2.007.277.277,0,0,1-.111.006,1.189,1.189,0,0,0-.158-.014.248.248,0,0,0-.136.034c-.012.01-.024.007-.036.01l-.129.008a.835.835,0,0,1-.254-.02.888.888,0,0,0-.178-.018.911.911,0,0,1-.128,0,1.319,1.319,0,0,0-.355,0,.54.54,0,0,1-.127,0,.4.4,0,0,0-.252.01.176.176,0,0,1-.079,0c-.075,0-.149-.006-.224-.006-.042,0-.088.008-.128.006-.1,0-.191-.012-.286-.024a.336.336,0,0,0-.178,0,.148.148,0,0,1-.063.008.957.957,0,0,0-.38.032.333.333,0,0,1-.252,0,.6.6,0,0,0-.436-.038.62.62,0,0,1-.172.009,1.229,1.229,0,0,0-.3-.011,1.182,1.182,0,0,1-.285-.012.374.374,0,0,0-.141.013.343.343,0,0,1-.177.008.523.523,0,0,0-.112-.007.327.327,0,0,1-.217-.034.053.053,0,0,0-.046-.006c-.088.051-.191-.006-.281.037a1,1,0,0,0-.362.018.022.022,0,0,1-.016,0,.513.513,0,0,0-.24-.006c-.111.016-.222-.04-.333,0a.1.1,0,0,1-.044-.015.26.26,0,0,0-.218-.007.318.318,0,0,1-.188.007.3.3,0,0,0-.142-.014,1.176,1.176,0,0,1-.414.014c-.072,0-.132-.046-.2-.046s-.135.029-.2.033c-.094,0-.19-.033-.278.034-.012.01-.041,0-.062,0a.837.837,0,0,0-.112,0,1.888,1.888,0,0,1-.271-.008c-.128-.011-.255-.02-.382-.042a.176.176,0,0,0-.079,0,1.388,1.388,0,0,1-.412.007.459.459,0,0,0-.157.008.665.665,0,0,1-.126.022,1.535,1.535,0,0,1-.383-.007.913.913,0,0,1-.128,0,.464.464,0,0,1-.1-.062c-.1.075-.1.077-.144.074l-.355-.025a.167.167,0,0,0-.063,0,.8.8,0,0,1-.285.014.46.46,0,0,0-.221.008.148.148,0,0,1-.047,0c-.106-.01-.213-.02-.318-.028a.176.176,0,0,0-.079.01.28.28,0,0,1-.157.01.26.26,0,0,0-.127.007.245.245,0,0,1-.156,0,.448.448,0,0,0-.254-.01,1.059,1.059,0,0,1-.364,0,.42.42,0,0,0-.158.01,1.273,1.273,0,0,1-.443.034,2.441,2.441,0,0,0-.32,0c-.07,0-.14.006-.21,0s-.149-.01-.222-.008c-.139.006-.278.014-.418.026a1.245,1.245,0,0,1-.4-.019.418.418,0,0,0-.094-.014c-.209,0-.417.007-.621,0a5.245,5.245,0,0,0-.532,0q-.032,0-.063-.009a2.73,2.73,0,0,0-.35-.022,5.875,5.875,0,0,0-.607.031.817.817,0,0,1-.178-.007,1.422,1.422,0,0,0-.253-.017.523.523,0,0,1-.158,0,.363.363,0,0,0-.2.007.277.277,0,0,1-.111.007,1.385,1.385,0,0,0-.158-.015.241.241,0,0,0-.136.035c-.05.042-.109,0-.151.034-.069.051-.157.059-.221.125a.289.289,0,0,1-.192.073,1.038,1.038,0,0,0-.111.009.142.142,0,0,0-.074.027c-.042.037-.08.079-.136.137.1.035.115.113.127.194a.725.725,0,0,0,.033.236c.01.018-.007.05-.015.075s-.031.05-.028.072a2.326,2.326,0,0,0,.009.334.177.177,0,0,1-.006.124.206.206,0,0,0-.013.152.441.441,0,0,1-.019.327.159.159,0,0,0,.007.138.3.3,0,0,1,.021.275.255.255,0,0,0-.01.095,1.834,1.834,0,0,0,.048.443.253.253,0,0,1,0,.095c-.006.048-.021.094-.026.142a1.136,1.136,0,0,0-.011.254,1.437,1.437,0,0,1,.012.414.464.464,0,0,0,.011.178,1.152,1.152,0,0,1,.03.46.39.39,0,0,0,.009.127c.007.036.026.07.036.106a.991.991,0,0,1,.018.109,1.1,1.1,0,0,0,.517,0,1.07,1.07,0,0,1,.443-.039c.056.016.113.028.169.047a.354.354,0,0,0,.28-.007.306.306,0,0,1,.123-.031,2.129,2.129,0,0,1,.239.008.368.368,0,0,1,.123.024.4.4,0,0,0,.235.028.415.415,0,0,1,.2.012.267.267,0,0,0,.189,0,.221.221,0,0,1,.156,0c.046.014.095.018.141.032a.3.3,0,0,0,.273-.042.208.208,0,0,1,.28.012.154.154,0,0,0,.044.019.708.708,0,0,0,.242-.122.235.235,0,0,1,.22-.068.33.33,0,0,0,.125-.018,1.784,1.784,0,0,1,.2-.042c.117-.007.235,0,.355-.006a.377.377,0,0,1,.219.031.252.252,0,0,0,.109.013.548.548,0,0,1,.266.062.18.18,0,0,0,.183.02.2.2,0,0,1,.211,0,.076.076,0,0,0,.047.006c.177-.02.361-.006.548-.017l.053.13a1.486,1.486,0,0,0,.21.025c.129,0,.257-.014.386-.023,0,0,.01-.012.015-.018l-.031-.045c.043-.035.081-.032.109,0a.223.223,0,0,0,.142.065.5.5,0,0,0,.266-.011.151.151,0,0,1,.125-.006.83.83,0,0,0,.325.075,1.556,1.556,0,0,0,.32-.009c.024,0,.047-.022.071-.031.089-.037.177-.074.266-.107.023-.009.054-.009.054.043-.048.015-.1.03-.148.049a.561.561,0,0,0-.116.049c-.019.012-.027.039-.048.074.144.033.266.088.4.007a.151.151,0,0,1,.151.009.283.283,0,0,0,.275.005.218.218,0,0,1,.156-.02.679.679,0,0,0,.349-.021.287.287,0,0,1,.233.007.09.09,0,0,0,.06.013,1.776,1.776,0,0,1,.4-.042.189.189,0,0,0,.132-.05c.056-.066.145-.066.207-.119a.084.084,0,0,1,.077-.008.311.311,0,0,0,.218-.023c.045-.016.089-.038.132-.056.072-.031.136-.028.169.032.089,0,.162.012.236.013a.526.526,0,0,0,.158-.013.534.534,0,0,1,.221-.022.116.116,0,0,0,.075-.014.106.106,0,0,1,.145,0,.073.073,0,0,0,.061.009.281.281,0,0,1,.141,0,1.49,1.49,0,0,0,.507-.023.721.721,0,0,1,.393-.028.717.717,0,0,0,.362.013.163.163,0,0,1,.051.022l-.079.089c.065.01.117.022.171.027a.3.3,0,0,0,.244-.049.243.243,0,0,1,.17-.065.541.541,0,0,0,.125-.024.465.465,0,0,1,.237-.017.434.434,0,0,0,.252-.016.151.151,0,0,1,.125,0,.158.158,0,0,1,.023.022l-.011.067.124.019c.05-.113.089-.122.284-.072l-.017.1.131.061c.123-.039.266-.028.337-.164h.026c.075.013.149.079.223,0,.007-.007.031,0,.046,0a1.88,1.88,0,0,0,.508-.015.423.423,0,0,1,.142,0c.032,0,.064.012.1.011a3.5,3.5,0,0,1,.48,0,.721.721,0,0,1,.278.062.985.985,0,0,1,.532-.049.451.451,0,0,0,.19.015.4.4,0,0,1,.143-.008.126.126,0,0,0,.012.034,1.032,1.032,0,0,1,.018.109,1.1,1.1,0,0,0,.516,0,1.076,1.076,0,0,1,.444-.039c.056.016.113.029.169.047a.354.354,0,0,0,.28-.007.306.306,0,0,1,.122-.031,2.139,2.139,0,0,1,.24.008.373.373,0,0,1,.123.024.4.4,0,0,0,.235.028.44.44,0,0,1,.2.012.267.267,0,0,0,.189,0,.221.221,0,0,1,.156,0c.046.014.094.018.141.033a.3.3,0,0,0,.273-.043.207.207,0,0,1,.28.013.157.157,0,0,0,.044.018.691.691,0,0,0,.242-.122.237.237,0,0,1,.22-.068.18.18,0,0,0,.089-.008.482.482,0,0,1,.076,0,4.083,4.083,0,0,0,.414,0,2.2,2.2,0,0,1,.354,0,1.231,1.231,0,0,0,.25.008.369.369,0,0,1,.093.034.182.182,0,0,0,.184.021.192.192,0,0,1,.211,0,.076.076,0,0,0,.047,0c.177-.019.361,0,.548-.017l.053.131a1.484,1.484,0,0,0,.21.024c.129,0,.257-.014.385-.023.006,0,.011-.012.016-.017l-.031-.046a.072.072,0,0,1,.109,0,.223.223,0,0,0,.142.065.5.5,0,0,0,.266-.01.148.148,0,0,1,.125-.007.827.827,0,0,0,.325.076,1.71,1.71,0,0,0,.32-.009c.024,0,.047-.022.071-.032.088-.036.177-.074.266-.106.023-.009.054-.009.054.042-.048.015-.1.03-.148.049a.569.569,0,0,0-.116.049c-.019.012-.027.039-.048.074.144.034.266.089.4.007a.154.154,0,0,1,.151.009.283.283,0,0,0,.275,0,.212.212,0,0,1,.156-.019.686.686,0,0,0,.348-.021.285.285,0,0,1,.234.007.09.09,0,0,0,.06.012,1.9,1.9,0,0,1,.4-.042.185.185,0,0,0,.132-.05c.056-.066.145-.066.206-.119a.09.09,0,0,1,.077-.008.311.311,0,0,0,.218-.023c.046-.016.088-.037.133-.056.072-.031.135-.027.169.032.089,0,.162.012.236.013a.5.5,0,0,0,.158-.013.551.551,0,0,1,.221-.022.122.122,0,0,0,.075-.013.1.1,0,0,1,.145,0,.075.075,0,0,0,.06.008.285.285,0,0,1,.142,0,1.459,1.459,0,0,0,.506-.023.735.735,0,0,1,.394-.028.705.705,0,0,0,.362.013c.014,0,.032.014.051.022l-.08.089c.066.011.118.022.171.028a.3.3,0,0,0,.245-.05.245.245,0,0,1,.169-.065.531.531,0,0,0,.125-.024.459.459,0,0,1,.238-.016.442.442,0,0,0,.252-.016.144.144,0,0,1,.125,0,.151.151,0,0,1,.023.021l-.011.067.124.019c.05-.113.089-.122.283-.072l-.016.1.13.06c.124-.039.266-.028.338-.163a.113.113,0,0,1,.026,0c.073.012.149.079.222,0,.008-.008.031,0,.047,0a1.874,1.874,0,0,0,.507-.016.429.429,0,0,1,.143,0c.032,0,.064.012.1.011a3.844,3.844,0,0,1,.48,0,.721.721,0,0,1,.278.062.975.975,0,0,1,.532-.048.447.447,0,0,0,.189.014,1.209,1.209,0,0,1,.318,0c.048,0,.1.014.143.01a1.814,1.814,0,0,0,.382-.02.273.273,0,0,1,.127,0,1.1,1.1,0,0,0,.319,0,1.734,1.734,0,0,1,.3-.012,2.428,2.428,0,0,0,.4,0,.428.428,0,0,1,.113,0,.771.771,0,0,0,.271.006.893.893,0,0,1,.287.017.724.724,0,0,0,.381-.009.171.171,0,0,1,.046-.01,1.807,1.807,0,0,1,.3.011,2.406,2.406,0,0,0,.48,0,2.355,2.355,0,0,1,.336,0,4.083,4.083,0,0,0,.414,0,2.215,2.215,0,0,1,.355,0,3.893,3.893,0,0,0,.5,0c.089.006.185.007.277.015-.018.024-.037.044-.054.067a.643.643,0,0,1-.116.128,1.24,1.24,0,0,0-.222.206,1.131,1.131,0,0,1-.21.193.391.391,0,0,0-.089.109.335.335,0,0,1-.117.128.536.536,0,0,0-.083.075.323.323,0,0,1-.177.128.053.053,0,0,0-.037.028c-.026.1-.139.133-.172.226a1,1,0,0,0-.244.266.021.021,0,0,1-.013.009.528.528,0,0,0-.177.165c-.067.089-.186.13-.233.24,0,.01-.027.016-.042.02a.265.265,0,0,0-.159.15.314.314,0,0,1-.128.137.307.307,0,0,0-.11.089,1.209,1.209,0,0,1-.282.3c-.055.048-.127.06-.177.108s-.075.117-.121.168c-.063.069-.157.112-.172.221,0,.016-.029.029-.044.043a.971.971,0,0,0-.081.076,1.929,1.929,0,0,1-.2.186c-.1.083-.2.166-.3.241a.187.187,0,0,0-.054.058,1.408,1.408,0,0,1-.286.3.509.509,0,0,0-.106.116.591.591,0,0,1-.072.105,1.516,1.516,0,0,1-.277.266.978.978,0,0,1-.093.089.461.461,0,0,1-.116.03c-.017.121-.015.122-.051.153l-.266.231a.147.147,0,0,0-.042.047.918.918,0,0,1-.193.211c-.051.053-.124.088-.15.161-.006.012-.023.021-.036.031-.081.069-.164.136-.244.206a.168.168,0,0,0-.049.063.267.267,0,0,1-.1.117.256.256,0,0,0-.084.095.235.235,0,0,1-.113.109.456.456,0,0,0-.186.173A1.071,1.071,0,0,1,60,222.7a.409.409,0,0,0-.1.118,1.243,1.243,0,0,1-.29.339,2.559,2.559,0,0,0-.229.225c-.047.051-.094.1-.145.15s-.112.1-.163.153c-.094.1-.186.206-.276.313a1.226,1.226,0,0,1-.3.266.433.433,0,0,0-.078.057c-.147.148-.289.3-.443.444a4.714,4.714,0,0,0-.375.373c-.016.013-.033.026-.051.038a2.8,2.8,0,0,0-.266.232c-.136.15-.285.289-.407.451a.855.855,0,0,1-.129.119,1.166,1.166,0,0,0-.19.168.589.589,0,0,1-.114.109.366.366,0,0,0-.14.149.26.26,0,0,1-.073.082,1.524,1.524,0,0,0-.123.1.237.237,0,0,0-.071.121c-.006.063-.075.079-.082.131-.013.084-.071.153-.068.244a.29.29,0,0,1-.089.187,1.032,1.032,0,0,0-.073.088.148.148,0,0,0-.032.071v.194a.2.2,0,0,1,.227.046c.063.047.11.117.19.144.02.006.031.041.043.064s.013.058.031.071c.088.068.142.177.243.23a.182.182,0,0,1,.084.089.21.21,0,0,0,.1.117.428.428,0,0,1,.219.244.157.157,0,0,0,.1.088.308.308,0,0,1,.21.178.268.268,0,0,0,.06.074,1.849,1.849,0,0,0,.349.28.238.238,0,0,1,.068.066c.029.038.052.081.082.119a1.13,1.13,0,0,0,.171.188,1.475,1.475,0,0,1,.3.283.458.458,0,0,0,.132.116,1.145,1.145,0,0,1,.345.305.448.448,0,0,0,.1.083c.031.02.069.03.1.049a1.093,1.093,0,0,1,.089.065,1.11,1.11,0,0,0,.366-.365c.089-.116.147-.266.284-.34.051-.028.1-.06.153-.088a.352.352,0,0,0,.193-.2.306.306,0,0,1,.065-.108,2.108,2.108,0,0,1,.177-.164.393.393,0,0,1,.105-.07.4.4,0,0,0,.185-.146.435.435,0,0,1,.153-.136.273.273,0,0,0,.134-.132.221.221,0,0,1,.108-.113c.043-.023.081-.054.123-.077a.289.289,0,0,0,.163-.223.207.207,0,0,1,.206-.189.2.2,0,0,0,.046-.018.707.707,0,0,0,.088-.257.239.239,0,0,1,.108-.2c.034-.019.052-.066.076-.1a1.568,1.568,0,0,1,.114-.177c.077-.089.163-.168.245-.253a.372.372,0,0,1,.177-.133c.033-.008.059-.043.089-.068a.558.558,0,0,1,.228-.141.183.183,0,0,0,.145-.115.2.2,0,0,1,.147-.152.071.071,0,0,0,.037-.029c.114-.141.251-.259.376-.4l.13.055a1.4,1.4,0,0,0,.165-.132c.089-.089.172-.192.257-.288v-.023l-.054-.01c.006-.057.035-.081.077-.078a.229.229,0,0,0,.145-.055.5.5,0,0,0,.183-.2c.019-.04.04-.08.088-.088a.842.842,0,0,0,.284-.178,1.618,1.618,0,0,0,.22-.233.235.235,0,0,0,.027-.073c.038-.088.074-.177.114-.266.01-.022.032-.044.067-.008-.022.045-.047.089-.069.14a.54.54,0,0,0-.047.117c-.005.021.009.047.019.088.125-.078.25-.127.287-.277a.153.153,0,0,1,.113-.1.28.28,0,0,0,.2-.191.207.207,0,0,1,.1-.124.692.692,0,0,0,.231-.261.283.283,0,0,1,.17-.16.089.089,0,0,0,.052-.035,1.827,1.827,0,0,1,.252-.31.19.19,0,0,0,.057-.129c-.007-.089.056-.149.062-.23a.086.086,0,0,1,.049-.059.313.313,0,0,0,.137-.171,1.389,1.389,0,0,0,.054-.134c.03-.073.077-.115.143-.1.066-.058.123-.105.177-.158a.532.532,0,0,0,.1-.12.562.562,0,0,1,.141-.173.1.1,0,0,0,.043-.061.107.107,0,0,1,.1-.1.066.066,0,0,0,.048-.036c.021-.049.064-.07.1-.1a1.507,1.507,0,0,0,.342-.375.729.729,0,0,1,.258-.3.717.717,0,0,0,.266-.247c.007-.011.032-.012.051-.02l.007.12c.055-.039.1-.068.141-.1a.3.3,0,0,0,.138-.208.246.246,0,0,1,.073-.165.5.5,0,0,0,.072-.105.47.47,0,0,1,.156-.178.431.431,0,0,0,.167-.189.148.148,0,0,1,.089-.089.171.171,0,0,1,.032,0l.04.054.1-.074c-.044-.115-.023-.149.15-.251l.057.081.134-.05c.06-.115.171-.211.123-.355l.017-.019c.062-.044.162-.049.155-.161,0-.01.021-.021.032-.032a1.878,1.878,0,0,0,.347-.371.421.421,0,0,1,.1-.1.9.9,0,0,0,.075-.06,3.637,3.637,0,0,1,.341-.339.739.739,0,0,1,.24-.153c.01-.021.026-.037.036-.058a.981.981,0,0,1,.31-.355.426.426,0,0,0,.143-.124c.056-.1.154-.145.226-.221.034-.035.078-.059.109-.094a1.975,1.975,0,0,0,.256-.285.287.287,0,0,1,.088-.089,1.081,1.081,0,0,0,.231-.222,1.684,1.684,0,0,1,.206-.224,2.512,2.512,0,0,0,.284-.281c.013-.015.028-.026.041-.04a.16.16,0,0,1,.04-.038.853.853,0,0,0,.2-.188.891.891,0,0,1,.214-.192.717.717,0,0,0,.266-.275.167.167,0,0,1,.025-.04,1.972,1.972,0,0,1,.222-.207,2.421,2.421,0,0,0,.338-.341c.024-.026.051-.049.076-.075A1.23,1.23,0,0,1,74.277,214.672ZM30.985,216.2a.5.5,0,0,1-.278.053c.1-.048.169-.089.246-.121.013-.006.036.009.055.016C31,216.162,31,216.188,30.985,216.2Z" transform="translate(-3.617 -3.467)"/><path class="cls-1" d="M71.972,57.132a1.043,1.043,0,0,0-.278-.28c-.018-.009-.029-.031-.043-.047l-.13-.141c-.042-.045-.089-.075-.13-.12a3.226,3.226,0,0,0-.324-.327A.313.313,0,0,1,71,56.15a1.21,1.21,0,0,0-.233-.241c-.036-.033-.069-.068-.1-.1-.051-.054-.1-.114-.153-.163-.2-.177-.4-.355-.6-.532a.838.838,0,0,1-.166-.2.842.842,0,0,0-.11-.135.822.822,0,0,1-.089-.088,1.34,1.34,0,0,0-.246-.253.558.558,0,0,1-.093-.089.4.4,0,0,0-.186-.17c-.022-.009-.038-.035-.057-.055l-.1-.1A.1.1,0,0,1,68.889,54h-.045l-.035-.036c-.03-.03-.066-.055-.095-.089-.064-.071-.128-.143-.185-.219a.353.353,0,0,0-.125-.121.138.138,0,0,1-.05-.039.947.947,0,0,0-.292-.246c-.072-.042-.157-.094-.178-.177a.6.6,0,0,0-.281-.335.643.643,0,0,1-.128-.116,1.245,1.245,0,0,0-.207-.222,1.234,1.234,0,0,1-.193-.209.37.37,0,0,0-.108-.089.343.343,0,0,1-.129-.116.455.455,0,0,0-.074-.084.323.323,0,0,1-.129-.178.054.054,0,0,0-.028-.036c-.1-.026-.132-.139-.225-.177a1.026,1.026,0,0,0-.266-.243.026.026,0,0,1-.01-.013.521.521,0,0,0-.165-.178c-.088-.067-.129-.186-.239-.232-.011,0-.016-.027-.02-.042a.262.262,0,0,0-.15-.159.318.318,0,0,1-.138-.129.313.313,0,0,0-.088-.11,1.179,1.179,0,0,1-.3-.282c-.047-.055-.06-.126-.108-.177s-.117-.074-.167-.12c-.069-.063-.112-.158-.221-.172-.016,0-.029-.029-.043-.045s-.05-.055-.077-.081a2.188,2.188,0,0,1-.187-.2c-.081-.1-.165-.2-.239-.3a.2.2,0,0,0-.059-.054,1.384,1.384,0,0,1-.3-.286.452.452,0,0,0-.117-.105.693.693,0,0,1-.1-.073,1.516,1.516,0,0,1-.266-.277.867.867,0,0,1-.089-.093.461.461,0,0,1-.03-.116c-.122-.016-.122-.015-.153-.051l-.231-.265a.141.141,0,0,0-.047-.044.879.879,0,0,1-.211-.193c-.053-.051-.089-.123-.161-.15-.014,0-.022-.023-.031-.035-.069-.082-.137-.164-.207-.244A.16.16,0,0,0,61.9,47a.265.265,0,0,1-.118-.1.265.265,0,0,0-.1-.084.228.228,0,0,1-.109-.112.456.456,0,0,0-.177-.187,1.071,1.071,0,0,1-.259-.257.406.406,0,0,0-.118-.1,1.282,1.282,0,0,1-.34-.291,2.547,2.547,0,0,0-.224-.229c-.051-.047-.1-.094-.15-.143s-.1-.114-.153-.164c-.1-.095-.206-.187-.313-.277a1.226,1.226,0,0,1-.266-.3.394.394,0,0,0-.057-.077c-.147-.147-.3-.289-.443-.443a4.9,4.9,0,0,0-.374-.375.385.385,0,0,1-.038-.052,2.926,2.926,0,0,0-.232-.266c-.15-.135-.289-.283-.451-.406A.855.855,0,0,1,57.861,43a1.217,1.217,0,0,0-.168-.191.557.557,0,0,1-.109-.113.345.345,0,0,0-.149-.139.28.28,0,0,1-.082-.075,1.477,1.477,0,0,0-.1-.122.234.234,0,0,0-.125-.056c-.065-.006-.08-.075-.131-.083-.084-.013-.153-.07-.245-.068a.286.286,0,0,1-.186-.084c-.028-.026-.058-.05-.088-.073a.16.16,0,0,0-.071-.033c-.056,0-.114,0-.2,0a.2.2,0,0,1-.046.227c-.047.063-.116.11-.143.19-.006.02-.041.031-.064.043s-.058.013-.071.032c-.068.088-.177.141-.23.242a.182.182,0,0,1-.089.084.207.207,0,0,0-.117.1.438.438,0,0,1-.244.219.161.161,0,0,0-.089.1.3.3,0,0,1-.177.21.254.254,0,0,0-.074.06,1.881,1.881,0,0,0-.28.349.222.222,0,0,1-.066.067c-.038.03-.082.053-.119.083a1.13,1.13,0,0,0-.188.171,1.424,1.424,0,0,1-.283.3.462.462,0,0,0-.117.132,1.111,1.111,0,0,1-.3.346.4.4,0,0,0-.082.1c-.02.03-.031.068-.05.1a.9.9,0,0,1-.064.089,1.11,1.11,0,0,0,.365.366c.116.088.266.147.339.284.029.051.061.1.089.153a.35.35,0,0,0,.2.193.306.306,0,0,1,.108.065,1.974,1.974,0,0,1,.164.177.393.393,0,0,1,.07.1.393.393,0,0,0,.146.186.423.423,0,0,1,.136.152.261.261,0,0,0,.132.134.219.219,0,0,1,.113.109c.023.042.054.08.077.122a.293.293,0,0,0,.222.164.207.207,0,0,1,.19.205.2.2,0,0,0,.018.046.7.7,0,0,0,.257.084.237.237,0,0,1,.2.108c.019.034.066.051.1.075a1.576,1.576,0,0,1,.177.115c.089.077.169.164.254.244a.393.393,0,0,1,.133.178c.008.032.043.058.068.088a.552.552,0,0,1,.14.228.187.187,0,0,0,.115.145.2.2,0,0,1,.153.147.07.07,0,0,0,.029.037c.141.113.258.252.4.376l-.054.13a1.491,1.491,0,0,0,.132.165c.089.089.191.172.288.256,0,.005.017,0,.023,0l.01-.053c.057,0,.081.035.078.076a.224.224,0,0,0,.055.146.489.489,0,0,0,.2.182c.039.02.079.04.088.089a.865.865,0,0,0,.177.284,1.673,1.673,0,0,0,.234.219c.017.016.048.018.072.029.089.036.178.073.266.112.022.011.045.032.008.069-.044-.023-.088-.048-.139-.07a.622.622,0,0,0-.117-.047c-.021-.006-.047.009-.089.018.078.125.128.25.278.287a.156.156,0,0,1,.1.115.281.281,0,0,0,.19.2.215.215,0,0,1,.125.1.692.692,0,0,0,.26.232.287.287,0,0,1,.161.17.086.086,0,0,0,.034.051,1.8,1.8,0,0,1,.311.253.2.2,0,0,0,.129.058c.089-.008.149.055.23.061a.087.087,0,0,1,.059.048.3.3,0,0,0,.171.138c.043.021.089.037.134.055.073.028.114.076.1.142.058.066.105.123.157.177a.542.542,0,0,0,.121.1.541.541,0,0,1,.172.14.114.114,0,0,0,.062.043.108.108,0,0,1,.1.1.072.072,0,0,0,.036.05c.049.019.07.064.1.1a1.585,1.585,0,0,0,.3.287,1.434,1.434,0,0,1-.227,0,1.055,1.055,0,0,0-.4,0,.167.167,0,0,1-.063,0c-.064,0-.127-.007-.191-.007s-.119.012-.178.007a3.224,3.224,0,0,0-.461,0,.309.309,0,0,1-.1,0,1.253,1.253,0,0,0-.335-.006h-.145c-.074,0-.149-.011-.223-.008-.266.013-.532.031-.8.048a.8.8,0,0,1-.263-.028.956.956,0,0,0-.177-.017.926.926,0,0,1-.129,0,1.311,1.311,0,0,0-.354-.005.548.548,0,0,1-.128,0,.4.4,0,0,0-.252.012.21.21,0,0,1-.079,0c-.074,0-.149-.006-.223-.007-.043,0-.089.009-.129.006-.095-.005-.191-.01-.286-.024a.332.332,0,0,0-.177,0,.135.135,0,0,1-.063.007.975.975,0,0,0-.38.033.333.333,0,0,1-.252,0,.6.6,0,0,0-.436-.037.662.662,0,0,1-.172.008,1.231,1.231,0,0,0-.3-.011,1.182,1.182,0,0,1-.285-.011.374.374,0,0,0-.141.012.343.343,0,0,1-.177.008.518.518,0,0,0-.111-.007.322.322,0,0,1-.217-.035.057.057,0,0,0-.046,0c-.089.051-.192-.005-.281.037a1.012,1.012,0,0,0-.364.018.022.022,0,0,1-.016,0,.517.517,0,0,0-.238-.005c-.112.016-.223-.041-.334,0-.011,0-.031-.008-.044-.016a.26.26,0,0,0-.218-.007.309.309,0,0,1-.188.007.33.33,0,0,0-.143-.014,1.219,1.219,0,0,1-.413.014c-.072-.005-.132-.047-.2-.047s-.135.031-.2.034c-.089,0-.19-.033-.278.035-.012.01-.04,0-.062,0a.686.686,0,0,0-.111,0,2.059,2.059,0,0,1-.272-.007c-.127-.012-.255-.022-.382-.043a.176.176,0,0,0-.079,0,1.388,1.388,0,0,1-.412.007.438.438,0,0,0-.157.008.593.593,0,0,1-.126.021,1.445,1.445,0,0,1-.383-.006,1.079,1.079,0,0,1-.127-.005.444.444,0,0,1-.1-.061c-.1.074-.1.076-.144.072l-.354-.023a.138.138,0,0,0-.064,0,.78.78,0,0,1-.285.012.468.468,0,0,0-.22.008c-.013.006-.031,0-.047,0-.107-.009-.213-.02-.319-.027a.173.173,0,0,0-.078.009.272.272,0,0,1-.157.011.249.249,0,0,0-.127.006.223.223,0,0,1-.157,0,.457.457,0,0,0-.254-.009,1.065,1.065,0,0,1-.365,0,.417.417,0,0,0-.157.009,1.247,1.247,0,0,1-.443.035,2.426,2.426,0,0,0-.319,0c-.07,0-.139,0-.209,0S45.4,54,45.325,54c-.139,0-.278.013-.417.025a1.216,1.216,0,0,1-.4-.019A.435.435,0,0,0,44.414,54h-.391l-.012-.009a1.446,1.446,0,0,1-.228,0,1.055,1.055,0,0,0-.4,0,.167.167,0,0,1-.063,0c-.063,0-.127-.007-.191-.007h-.014a1.7,1.7,0,0,0-.257-.017c-.156.008-.313.01-.469.021a1.279,1.279,0,0,0-.327,0h-.06a.748.748,0,0,0-.177-.008.523.523,0,0,1-.158,0,.354.354,0,0,0-.2.006.26.26,0,0,1-.111.006c-.053,0-.106-.016-.158-.013a.241.241,0,0,0-.136.035c-.011.009-.024.006-.035.009l-.13.008a.784.784,0,0,1-.26-.016.967.967,0,0,0-.178-.017.911.911,0,0,1-.128,0,1.319,1.319,0,0,0-.355-.005.548.548,0,0,1-.128,0A.4.4,0,0,0,39.6,54a.21.21,0,0,1-.079,0c-.075,0-.149-.006-.224-.007-.042,0-.088.009-.128.006-.1-.005-.192-.01-.286-.024a.336.336,0,0,0-.178,0,.134.134,0,0,1-.063.007.976.976,0,0,0-.38.033.333.333,0,0,1-.252,0,.6.6,0,0,0-.436-.037.66.66,0,0,1-.172.008,1.229,1.229,0,0,0-.3-.011,1.171,1.171,0,0,1-.271-.007.37.37,0,0,0-.141.012.327.327,0,0,1-.178.008.586.586,0,0,0-.111-.007.316.316,0,0,1-.217-.034.056.056,0,0,0-.047-.006c-.088.052-.191-.005-.281.038a1.025,1.025,0,0,0-.362.017.022.022,0,0,1-.016,0,.522.522,0,0,0-.239-.005c-.112.016-.223-.041-.334,0-.011,0-.031-.008-.044-.015a.256.256,0,0,0-.218-.007.318.318,0,0,1-.188.007.3.3,0,0,0-.142-.014,1.225,1.225,0,0,1-.414.014c-.072,0-.132-.047-.2-.047s-.135.03-.2.034c-.094,0-.191-.033-.279.034-.012.01-.041,0-.062,0a.7.7,0,0,0-.112,0,1.887,1.887,0,0,1-.271-.007c-.127-.011-.255-.021-.382-.042a.151.151,0,0,0-.079,0,1.422,1.422,0,0,1-.412.007.415.415,0,0,0-.157.008.663.663,0,0,1-.126.021,1.535,1.535,0,0,1-.383-.006.9.9,0,0,1-.127-.006.412.412,0,0,1-.1-.061c-.1.075-.1.076-.144.073l-.354-.024a.172.172,0,0,0-.064,0,.759.759,0,0,1-.285.012.487.487,0,0,0-.221.008c-.012.007-.031,0-.047,0-.106-.009-.212-.019-.318-.026a.179.179,0,0,0-.079.009.271.271,0,0,1-.157.01.269.269,0,0,0-.126.006.223.223,0,0,1-.157,0,.448.448,0,0,0-.254-.008,1.112,1.112,0,0,1-.364,0,.4.4,0,0,0-.158.008,1.2,1.2,0,0,1-.443.035,2.847,2.847,0,0,0-.32,0c-.07,0-.139.005-.209,0s-.149-.01-.223-.007c-.139.005-.278.014-.417.025a1.214,1.214,0,0,1-.4-.018A.436.436,0,0,0,26.164,54c-.209,0-.417.007-.621,0a4.721,4.721,0,0,0-.532,0l-.063-.009a2.924,2.924,0,0,0-.35-.023,5.877,5.877,0,0,0-.607.032.872.872,0,0,1-.177-.007,1.35,1.35,0,0,0-.254-.017.523.523,0,0,1-.158,0,.355.355,0,0,0-.2.007.255.255,0,0,1-.11.006c-.054,0-.107-.016-.159-.014a.241.241,0,0,0-.136.035c-.049.042-.109,0-.151.035-.068.05-.157.058-.221.125a.286.286,0,0,1-.191.071.463.463,0,0,0-.112.009.163.163,0,0,0-.074.028c-.042.036-.079.08-.136.137.1.035.115.112.127.193a.753.753,0,0,0,.033.236c.01.019-.007.051-.015.076s-.031.05-.028.072a2.19,2.19,0,0,0,.01.334.18.18,0,0,1-.007.125.2.2,0,0,0-.013.15.44.44,0,0,1-.019.327.158.158,0,0,0,.008.139.3.3,0,0,1,.02.275.277.277,0,0,0-.01.095,1.834,1.834,0,0,0,.048.443.217.217,0,0,1,0,.095c-.006.047-.021.094-.026.142a1.136,1.136,0,0,0-.011.254,1.442,1.442,0,0,1,.012.415.481.481,0,0,0,.012.177,1.17,1.17,0,0,1,.029.46.382.382,0,0,0,.009.126c.007.036.026.07.036.106a1.05,1.05,0,0,1,.018.11,1.1,1.1,0,0,0,.517,0,1.087,1.087,0,0,1,.443-.038c.057.015.113.028.169.046a.346.346,0,0,0,.28-.007.309.309,0,0,1,.123-.03c.08,0,.159,0,.239.007a.369.369,0,0,1,.123.025.4.4,0,0,0,.235.028.415.415,0,0,1,.2.012.279.279,0,0,0,.189,0,.21.21,0,0,1,.156,0c.046.013.1.018.141.032a.3.3,0,0,0,.273-.042.209.209,0,0,1,.28.011.158.158,0,0,0,.044.02.727.727,0,0,0,.242-.122.236.236,0,0,1,.22-.069.311.311,0,0,0,.125-.017,1.435,1.435,0,0,1,.2-.042c.117-.008.235,0,.355-.006a.376.376,0,0,1,.219.031.252.252,0,0,0,.109.012.572.572,0,0,1,.266.063.185.185,0,0,0,.183.021.192.192,0,0,1,.211,0,.084.084,0,0,0,.047.005c.178-.019.361,0,.548-.016l.053.13a1.5,1.5,0,0,0,.21.024c.129,0,.258-.013.386-.022,0,0,.011-.013.015-.018l-.031-.045c.044-.035.082-.033.109,0a.22.22,0,0,0,.142.064.491.491,0,0,0,.266-.011.148.148,0,0,1,.125-.005.848.848,0,0,0,.325.075,1.629,1.629,0,0,0,.32-.009.267.267,0,0,0,.071-.032c.089-.036.178-.073.266-.106.023-.009.054-.009.054.042-.048.016-.1.031-.148.049a.625.625,0,0,0-.116.05c-.019.011-.027.039-.048.074.145.032.266.088.4.007a.153.153,0,0,1,.152.009.281.281,0,0,0,.274.005.208.208,0,0,1,.156-.02.7.7,0,0,0,.349-.021.287.287,0,0,1,.233.007.08.08,0,0,0,.06.012,1.842,1.842,0,0,1,.4-.041.186.186,0,0,0,.132-.051c.056-.065.146-.066.207-.118a.084.084,0,0,1,.077-.008.311.311,0,0,0,.218-.024c.045-.016.089-.037.132-.056.072-.03.136-.027.169.032.089.005.163.012.236.013a.56.56,0,0,0,.158-.012.556.556,0,0,1,.222-.023.113.113,0,0,0,.074-.014.108.108,0,0,1,.146,0,.07.07,0,0,0,.06.009.285.285,0,0,1,.142,0,1.469,1.469,0,0,0,.507-.039.74.74,0,0,1,.393-.028.706.706,0,0,0,.362.014.163.163,0,0,1,.051.022l-.079.089c.065.011.118.022.171.028a.3.3,0,0,0,.244-.049.239.239,0,0,1,.17-.065.673.673,0,0,0,.125-.024.465.465,0,0,1,.237-.017.433.433,0,0,0,.252-.016.144.144,0,0,1,.125,0,.093.093,0,0,1,.023.021l-.011.067.125.019c.049-.112.088-.122.283-.071l-.017.1.131.06c.123-.039.266-.028.337-.164h.026c.075.012.149.079.223,0,.007-.007.031,0,.046,0a1.841,1.841,0,0,0,.508-.016.423.423,0,0,1,.142,0,.781.781,0,0,0,.1.01,3.844,3.844,0,0,1,.48,0,.718.718,0,0,1,.278.063.981.981,0,0,1,.536-.049.454.454,0,0,0,.19.015.41.41,0,0,1,.144-.008.16.16,0,0,0,.011.033,1.05,1.05,0,0,1,.018.11,1.1,1.1,0,0,0,.517,0,1.087,1.087,0,0,1,.443-.038c.057.015.114.029.169.046a.348.348,0,0,0,.281-.007.322.322,0,0,1,.122-.03c.08,0,.159,0,.239.007a.4.4,0,0,1,.123.025.4.4,0,0,0,.235.028.415.415,0,0,1,.2.012.279.279,0,0,0,.189,0,.21.21,0,0,1,.156,0c.046.013.095.018.141.032a.293.293,0,0,0,.273-.042.208.208,0,0,1,.28.012.179.179,0,0,0,.045.019.746.746,0,0,0,.242-.122.232.232,0,0,1,.219-.068.179.179,0,0,0,.089-.008h.076a4.083,4.083,0,0,0,.414,0,2.1,2.1,0,0,1,.355,0,1.228,1.228,0,0,0,.25.008.387.387,0,0,1,.093.035.183.183,0,0,0,.183.02.2.2,0,0,1,.211,0A.077.077,0,0,0,46,58.69c.178-.019.361,0,.548-.016l.053.13a1.5,1.5,0,0,0,.211.024c.128,0,.257-.013.384-.022.007,0,.012-.013.016-.018l-.031-.045c.044-.036.082-.033.109,0a.225.225,0,0,0,.142.064A.491.491,0,0,0,47.7,58.8a.144.144,0,0,1,.117,0,.867.867,0,0,0,.325.075,1.71,1.71,0,0,0,.32-.009.267.267,0,0,0,.071-.032c.089-.036.178-.073.266-.106.023-.009.054-.009.054.041-.047.016-.1.031-.148.049a.629.629,0,0,0-.116.051c-.018.01-.026.039-.048.073.145.033.266.089.4.007a.156.156,0,0,1,.152.009.286.286,0,0,0,.275.006.207.207,0,0,1,.156-.021.693.693,0,0,0,.347-.02.285.285,0,0,1,.234.007.085.085,0,0,0,.06.011,1.906,1.906,0,0,1,.4-.04.2.2,0,0,0,.133-.051c.055-.066.145-.066.206-.119a.089.089,0,0,1,.076-.008.305.305,0,0,0,.218-.024c.046-.016.089-.036.133-.056.072-.03.136-.026.17.032.088.006.162.013.235.014a.581.581,0,0,0,.161-.013.575.575,0,0,1,.222-.023.107.107,0,0,0,.074-.013.1.1,0,0,1,.145,0,.073.073,0,0,0,.061.009.263.263,0,0,1,.142,0,1.447,1.447,0,0,0,.508-.027.745.745,0,0,1,.394-.028.705.705,0,0,0,.362.014.163.163,0,0,1,.051.022l-.08.089c.066.011.118.022.171.028a.3.3,0,0,0,.245-.049.234.234,0,0,1,.168-.065.668.668,0,0,0,.126-.024.47.47,0,0,1,.238-.017.434.434,0,0,0,.252-.016.144.144,0,0,1,.125,0,.229.229,0,0,1,.023.021l-.011.067.124.019c.05-.112.089-.122.283-.071l-.016.1.13.06c.124-.039.266-.028.338-.164H56c.073.012.149.079.222,0,.007-.007.031,0,.046,0a1.832,1.832,0,0,0,.507-.016.435.435,0,0,1,.144,0,.781.781,0,0,0,.1.01,3.828,3.828,0,0,1,.479,0,.723.723,0,0,1,.279.063.984.984,0,0,1,.532-.049.448.448,0,0,0,.189.015,1.209,1.209,0,0,1,.318,0c.048,0,.095.013.142.01a1.964,1.964,0,0,0,.383-.02.273.273,0,0,1,.127,0,1.1,1.1,0,0,0,.319.005,1.555,1.555,0,0,1,.3-.012,2.67,2.67,0,0,0,.4,0,.357.357,0,0,1,.113,0,.822.822,0,0,0,.271.006.865.865,0,0,1,.287.017.721.721,0,0,0,.38-.009.189.189,0,0,1,.047-.011,2.047,2.047,0,0,1,.3.011,2.265,2.265,0,0,0,.48,0,2.355,2.355,0,0,1,.336,0,3.574,3.574,0,0,0,.414,0,2.1,2.1,0,0,1,.355,0,4.808,4.808,0,0,0,.5.005c.089.006.185.007.277.014-.018.024-.037.044-.054.068a.672.672,0,0,1-.116.128,1.2,1.2,0,0,0-.222.206,1.131,1.131,0,0,1-.21.193.4.4,0,0,0-.089.108.33.33,0,0,1-.117.129.529.529,0,0,0-.083.074.328.328,0,0,1-.177.129.051.051,0,0,0-.037.028c-.026.1-.139.132-.177.226a1,1,0,0,0-.244.266s-.007.007-.012.009a.515.515,0,0,0-.173.165c-.067.089-.186.129-.233.239,0,.011-.027.016-.042.021a.255.255,0,0,0-.159.149.316.316,0,0,1-.128.138.3.3,0,0,0-.11.089,1.209,1.209,0,0,1-.282.3c-.055.047-.127.06-.177.107a2.066,2.066,0,0,0-.121.169c-.063.069-.158.111-.172.22,0,.016-.029.029-.044.043a1,1,0,0,0-.082.077,1.822,1.822,0,0,1-.2.186c-.1.083-.2.166-.3.241a.176.176,0,0,0-.054.058,1.408,1.408,0,0,1-.286.3.487.487,0,0,0-.106.116.547.547,0,0,1-.073.1,1.48,1.48,0,0,1-.276.266.74.74,0,0,1-.089.088.424.424,0,0,1-.116.031c-.017.12-.015.122-.05.152l-.266.231a.16.16,0,0,0-.043.047.879.879,0,0,1-.193.211c-.051.053-.123.088-.15.161,0,.013-.023.021-.035.032-.082.068-.164.136-.244.2a.191.191,0,0,0-.05.063.265.265,0,0,1-.1.118.262.262,0,0,0-.084.094.235.235,0,0,1-.112.11.446.446,0,0,0-.187.173,1.067,1.067,0,0,1-.257.258.427.427,0,0,0-.105.119,1.226,1.226,0,0,1-.29.339,2.432,2.432,0,0,0-.229.225c-.047.051-.094.1-.144.15s-.113.1-.163.153c-.095.1-.187.206-.277.313a1.267,1.267,0,0,1-.295.266.394.394,0,0,0-.077.057c-.147.147-.29.3-.443.444a4.7,4.7,0,0,0-.375.372.385.385,0,0,1-.052.038,2.937,2.937,0,0,0-.266.233c-.135.15-.284.288-.407.451a.841.841,0,0,1-.128.118,1.328,1.328,0,0,0-.191.168.654.654,0,0,1-.113.11.347.347,0,0,0-.14.149.276.276,0,0,1-.074.082c-.042.032-.083.067-.122.1a.247.247,0,0,0-.072.12c-.005.064-.075.08-.082.132-.013.084-.071.152-.068.244a.287.287,0,0,1-.084.187,1.032,1.032,0,0,0-.073.088.16.16,0,0,0-.033.071c0,.057,0,.114,0,.194a.2.2,0,0,1,.227.047c.064.047.111.116.191.143.019.007.031.041.042.064s.014.058.031.072c.089.067.142.177.243.229a.18.18,0,0,1,.085.089.2.2,0,0,0,.1.116.434.434,0,0,1,.218.245.157.157,0,0,0,.1.088.3.3,0,0,1,.209.178.254.254,0,0,0,.061.074,1.785,1.785,0,0,0,.349.281.211.211,0,0,1,.067.066c.03.038.053.081.083.118a1.011,1.011,0,0,0,.171.187,1.54,1.54,0,0,1,.3.285.449.449,0,0,0,.131.115,1.137,1.137,0,0,1,.346.305.426.426,0,0,0,.1.084c.031.02.069.03.1.049a1.064,1.064,0,0,1,.088.065,1.116,1.116,0,0,0,.367-.366c.088-.115.147-.266.284-.339.051-.029.1-.06.153-.088a.36.36,0,0,0,.193-.2.31.31,0,0,1,.065-.109,2.291,2.291,0,0,1,.177-.164.393.393,0,0,1,.105-.07.394.394,0,0,0,.185-.145.435.435,0,0,1,.152-.137.262.262,0,0,0,.135-.133.218.218,0,0,1,.108-.112c.043-.022.081-.053.122-.076a.3.3,0,0,0,.164-.224.209.209,0,0,1,.206-.189.146.146,0,0,0,.045-.018.715.715,0,0,0,.085-.257.237.237,0,0,1,.108-.2c.033-.019.051-.066.075-.1a1.519,1.519,0,0,1,.114-.173c.078-.089.164-.169.245-.254a.388.388,0,0,1,.177-.132c.033-.009.059-.044.089-.068a.562.562,0,0,1,.229-.141.185.185,0,0,0,.144-.115.2.2,0,0,1,.147-.152.074.074,0,0,0,.038-.029c.113-.141.251-.259.376-.4l.129.054a1.493,1.493,0,0,0,.166-.131c.088-.089.172-.192.256-.288,0,0,0-.017,0-.023l-.054-.011c.006-.056.035-.081.077-.077a.227.227,0,0,0,.145-.055.5.5,0,0,0,.183-.2c.019-.039.04-.079.084-.089a.865.865,0,0,0,.284-.177,1.618,1.618,0,0,0,.22-.233.238.238,0,0,0,.027-.073c.037-.089.074-.178.114-.266.01-.022.032-.045.067-.008-.022.044-.047.088-.069.138a.57.57,0,0,0-.047.118c0,.02.009.046.019.089.125-.079.25-.129.287-.279.013-.053.058-.079.113-.1a.283.283,0,0,0,.2-.19.209.209,0,0,1,.1-.125.705.705,0,0,0,.231-.26.286.286,0,0,1,.17-.162.086.086,0,0,0,.052-.033,1.8,1.8,0,0,1,.252-.311.185.185,0,0,0,.057-.129c-.007-.089.056-.149.062-.23a.089.089,0,0,1,.049-.06.306.306,0,0,0,.137-.171c.021-.042.036-.089.054-.133.029-.073.077-.115.143-.1.066-.059.123-.106.177-.157a.537.537,0,0,0,.1-.121.574.574,0,0,1,.141-.173.106.106,0,0,0,.043-.062.106.106,0,0,1,.1-.1.07.07,0,0,0,.049-.036c.021-.049.064-.07.1-.1a1.507,1.507,0,0,0,.342-.375.732.732,0,0,1,.258-.3.712.712,0,0,0,.266-.245c.007-.012.031-.014.051-.021l.007.12c.055-.039.1-.068.141-.1a.3.3,0,0,0,.137-.209.243.243,0,0,1,.074-.164.55.55,0,0,0,.072-.106.475.475,0,0,1,.156-.177.428.428,0,0,0,.167-.19.148.148,0,0,1,.089-.089h.032l.04.055.1-.075c-.044-.114-.023-.149.15-.251l.056.08.135-.05c.06-.114.171-.211.123-.354a.23.23,0,0,1,.017-.019c.061-.044.162-.05.154-.16,0-.011.022-.023.032-.034a1.828,1.828,0,0,0,.348-.371.461.461,0,0,1,.1-.1.886.886,0,0,0,.075-.059,3.637,3.637,0,0,1,.341-.339.71.71,0,0,1,.24-.152c.01-.022.026-.038.036-.059a.978.978,0,0,1,.31-.354.449.449,0,0,0,.143-.124c.056-.1.154-.147.226-.223.034-.034.078-.058.109-.089a1.916,1.916,0,0,0,.256-.284.267.267,0,0,1,.088-.089,1.158,1.158,0,0,0,.231-.222,1.757,1.757,0,0,1,.206-.225,2.44,2.44,0,0,0,.284-.282l.041-.039a.165.165,0,0,1,.04-.039.791.791,0,0,0,.2-.187.866.866,0,0,1,.214-.191.72.72,0,0,0,.266-.276.167.167,0,0,1,.025-.04,2.286,2.286,0,0,1,.222-.207,2.318,2.318,0,0,0,.338-.341c.024-.025.051-.048.075-.074A1.371,1.371,0,0,1,71.972,57.132ZM28.681,58.656a.5.5,0,0,1-.279.054c.1-.048.169-.089.247-.121.012-.007.035.009.054.015C28.7,58.621,28.694,58.647,28.681,58.656Z" transform="translate(-3.617 -3.467)"/><path class="cls-1" d="M293.005,32.972c.063-.735-.026-1.474-.011-2.21-.127-1.285-.232-2.571-.384-3.855-.313-2.638-.9-5.247-1.434-7.853-.836-4.067-.7-6.37,1.226-10.968a7.292,7.292,0,0,0,.556-3.51c-.009-.134-.033-.288-.048-.43-2,.416-4.009.822-6.034,1.064-4.563.541-9.149.886-13.725,1.322-1.241.118-2.426.128-3.359-.915-1.052-1.176-2.418-1.045-3.769-.776a17.582,17.582,0,0,0-1.926.612,9.554,9.554,0,0,1-6.352.072c-2.725-.975-5.627-.149-8.4-.727a4.376,4.376,0,0,1-4.244-.071,1.57,1.57,0,0,0-1.158.132c-1.572.7-3.143.308-4.762.257C235.527,5,231.788,3.4,228.2,5.481c-.192.112-.525-.024-.8-.039-4.035-.218-8.04.57-12.113.1-3.184-.368-6.449-.025-9.677-.041a7.132,7.132,0,0,1-1.993-.319,12.568,12.568,0,0,0-8.734.343L192.46,3.83a21.689,21.689,0,0,1-4.246.65c-3.757-.2-7.5-.627-11.252-.938a5.865,5.865,0,0,0-4.245.947,3.213,3.213,0,0,1-1.829.654c-2.147-.033-4.292-.245-6.441-.325a6.447,6.447,0,0,0-2.782.2,6.765,6.765,0,0,1-4.372.108,22.2,22.2,0,0,0-6.851-.089c-2.016.218-4.036.414-6.059.543a5.927,5.927,0,0,1-2.778-.166c-1.349-.651-2.509-.376-3.868-.15-2.377.395-4.82.389-7.236.55-2.105-1.441-4.418-.828-6.693-.709A7.03,7.03,0,0,1,121,4.942c-3.279-1.27-6.55-1.036-9.866-.278a19.817,19.817,0,0,1-5.274.079,2.007,2.007,0,0,1,.162,1.178c-.733,4.624.464,9.146.713,13.716a19.4,19.4,0,0,1-.266,5.231,35.09,35.09,0,0,0-.834,8.86.954.954,0,0,1,.312.1,15.06,15.06,0,0,1,4.75.975,7.934,7.934,0,0,0,3.162.177c2.565-.137,5.175-.829,7.55.8,2.725-.182,5.481-.177,8.163-.62,1.534-.256,2.837-.566,4.363.169a6.692,6.692,0,0,0,3.134.187c2.282-.146,4.561-.367,6.835-.612a25.105,25.105,0,0,1,7.729.1,7.64,7.64,0,0,0,4.933-.122,7.285,7.285,0,0,1,3.138-.22c2.423.089,4.843.329,7.269.367a3.623,3.623,0,0,0,2.063-.738,6.613,6.613,0,0,1,4.787-1.064c4.232.349,8.456.83,12.694,1.057a24.414,24.414,0,0,0,4.787-.733l2.735,1.911a14.166,14.166,0,0,1,9.853-.387,8.044,8.044,0,0,0,2.247.355c3.643.018,7.325-.368,10.918.047,4.594.532,9.113-.355,13.665-.112.3.017.679.17.9.044,4.052-2.35,8.271-.543,12.394-.412,1.826.058,3.6.5,5.37-.29a1.779,1.779,0,0,1,1.307-.149,4.937,4.937,0,0,0,4.787.081c3.127.652,6.4-.279,9.476.82a10.774,10.774,0,0,0,7.165-.082,19.921,19.921,0,0,1,2.172-.69c1.523-.3,3.065-.451,4.255.875,1.054,1.177,2.387,1.166,3.79,1.032,3.312-.318,6.627-.61,9.939-.926a.907.907,0,0,1,.223-.171A24.425,24.425,0,0,0,293.005,32.972Z" transform="translate(-3.617 -3.467)"/><path class="cls-2" d="M292.891,56.167a40.2,40.2,0,0,1-.047-4.266c.014-.266.15-.6.038-.8-2.082-3.593-.481-7.332-.365-10.987.048-1.515.36-2.988-.168-4.46-3.336.319-6.675.613-10.01.933-1.4.134-2.735.145-3.789-1.032-1.187-1.33-2.729-1.178-4.256-.875a20.212,20.212,0,0,0-2.172.69,10.774,10.774,0,0,1-7.165.082c-3.075-1.1-6.348-.168-9.476-.82a4.937,4.937,0,0,1-4.787-.081,1.776,1.776,0,0,0-1.306.149c-1.773.788-3.546.348-5.371.29-4.123-.131-8.341-1.938-12.394.412-.217.126-.593-.027-.9-.044-4.552-.246-9.07.643-13.664.112-3.593-.415-7.276-.029-10.918-.047a8.038,8.038,0,0,1-2.247-.355,14.168,14.168,0,0,0-9.854.387l-2.734-1.911a24.492,24.492,0,0,1-4.787.733c-4.239-.227-8.463-.709-12.695-1.057a6.613,6.613,0,0,0-4.787,1.064,3.62,3.62,0,0,1-2.063.738c-2.423-.038-4.843-.277-7.269-.367a7.281,7.281,0,0,0-3.137.22,7.624,7.624,0,0,1-4.934.122,25.1,25.1,0,0,0-7.729-.1c-2.274.245-4.553.466-6.835.612a6.689,6.689,0,0,1-3.133-.187c-1.522-.735-2.829-.425-4.364-.169-2.681.443-5.437.438-8.162.62-2.375-1.626-4.985-.934-7.551-.8A7.935,7.935,0,0,1,110.7,34.8a15.1,15.1,0,0,0-4.875-.985,38.727,38.727,0,0,1,1.338,7.89,11.916,11.916,0,0,0,.348,2.808c.91,2.475,1.586,4.9-.006,7.345a52.628,52.628,0,0,1-.531,6.959c-.089.8-.156,1.595-.2,2.393a5.034,5.034,0,0,1-.684,1.163c-1.409,1.822-.892,4-.289,5.851.008.024.013.049.02.073.485.02.975.068,1.457.131A28.969,28.969,0,0,1,107,76.847a7.053,7.053,0,0,0,.326,2.737,8.037,8.037,0,0,1,.029,4.4,8.6,8.6,0,0,0,.339,5.923c.228.63.43,1.27.7,2.067a7.816,7.816,0,0,0-1.654,6.35,5.482,5.482,0,0,1-.141,1.6,33.465,33.465,0,0,0-.192,7.465h.157c3.092.006,6.174-.758,9.275-.132,3.161-1.014,6.393-.371,9.574-.274a16.046,16.046,0,0,0,5.971-.6,18.629,18.629,0,0,1,7.181-.709c3.014.146,6.156,1.079,9.034-.77a2.2,2.2,0,0,1,1.174-.191c1.748.041,3.68-.326,5.193.3,1.754.728,3.508.039,5.061.6,3.528,1.284,7.11.719,10.386-.158,3.429-.919,6.631-.621,9.958-.281a5.444,5.444,0,0,0,1.6.141,7.823,7.823,0,0,1,6.351,1.655c.8-.266,1.436-.469,2.066-.7a8.6,8.6,0,0,1,5.915-.335,8.027,8.027,0,0,0,4.4-.029,7.06,7.06,0,0,1,2.738-.325c4.054.827,8.079.382,12.1-.125,4.348-.549,8.585.745,12.9.63,2.45,1.6,4.869.916,7.343.007a11.978,11.978,0,0,1,2.809-.349,38.228,38.228,0,0,0,7.96-1.357c1.853-.6,4.029-1.121,5.851.289a4.356,4.356,0,0,0,4.927.416,7.292,7.292,0,0,1,1.964-.452c5.365-.8,10.76-.249,16.142-.332,1.21-.019,2.436.172,3.628.035a33.208,33.208,0,0,1,10.849.709,14.418,14.418,0,0,0,2.324.289,7.034,7.034,0,0,1-.3-3.008c.31-3.752.736-7.5.938-11.252a21.687,21.687,0,0,0-.65-4.247l1.693-2.424a12.562,12.562,0,0,1-.342-8.734,7.13,7.13,0,0,0,.317-1.993c.017-3.229-.325-6.493.042-9.677A46.743,46.743,0,0,0,292.891,56.167Z" transform="translate(-3.617 -3.467)"/><path class="cls-3" d="M207.381,71.678c0,3.07-1.826,5.643-6.56,5.643-4.453,0-7.11-2.379-7.11-8.825,0-5.782,2.185-10.567,8.688-10.567a15.514,15.514,0,0,1,4.7.692l-.69,2.216a12.924,12.924,0,0,0-4.233-.663c-4.066,0-5.394,2.433-5.781,5.476l4.37.526C205.085,66.671,207.381,68.248,207.381,71.678Zm-2.546.221c0-2.158-1.241-3.1-4.675-3.513l-3.9-.471v.444c0,5.141,1.493,6.721,4.787,6.721,2.737,0,3.788-1.217,3.788-3.181Z" transform="translate(-3.617 -3.467)"/><path class="cls-1" d="M293.005,187.859c.063-.735-.026-1.475-.011-2.21-.127-1.285-.232-2.571-.384-3.855-.313-2.638-.9-5.247-1.434-7.853-.836-4.067-.7-6.37,1.226-10.969a7.287,7.287,0,0,0,.556-3.509c-.009-.134-.033-.288-.048-.43-2,.416-4.009.822-6.034,1.064-4.563.541-9.149.886-13.725,1.321-1.241.119-2.426.129-3.359-.915-1.052-1.175-2.418-1.044-3.769-.775a17.8,17.8,0,0,0-1.926.611,9.554,9.554,0,0,1-6.352.073c-2.725-.975-5.627-.149-8.4-.727a4.373,4.373,0,0,1-4.244-.072,1.575,1.575,0,0,0-1.158.132c-1.572.7-3.143.309-4.762.258-3.655-.117-7.394-1.718-10.986.365-.192.112-.525-.024-.8-.039-4.035-.218-8.04.57-12.113.1-3.184-.368-6.449-.026-9.677-.042a7.131,7.131,0,0,1-1.993-.318,12.562,12.562,0,0,0-8.734.343l-2.424-1.693a21.774,21.774,0,0,1-4.247.65c-3.757-.2-7.5-.628-11.252-.938a5.853,5.853,0,0,0-4.244.947,3.226,3.226,0,0,1-1.829.654c-2.148-.034-4.292-.246-6.441-.325a6.43,6.43,0,0,0-2.782.2,6.779,6.779,0,0,1-4.372.108,22.208,22.208,0,0,0-6.852-.089c-2.016.217-4.036.413-6.059.543a5.922,5.922,0,0,1-2.777-.166c-1.35-.652-2.509-.376-3.869-.15-2.377.4-4.82.388-7.235.55-2.106-1.442-4.419-.828-6.693-.71a7.016,7.016,0,0,1-2.8-.158c-3.279-1.27-6.55-1.036-9.866-.279a19.734,19.734,0,0,1-5.274.079,2.011,2.011,0,0,1,.162,1.179c-.733,4.623.464,9.146.713,13.716a19.361,19.361,0,0,1-.266,5.226,35.13,35.13,0,0,0-.834,8.865.931.931,0,0,1,.312.1,15.033,15.033,0,0,1,4.75.975,7.934,7.934,0,0,0,3.162.177c2.565-.137,5.175-.83,7.55.8,2.725-.183,5.481-.177,8.163-.621,1.534-.255,2.837-.565,4.363.17a6.692,6.692,0,0,0,3.134.187c2.282-.146,4.561-.367,6.835-.613a25.074,25.074,0,0,1,7.729.1,7.64,7.64,0,0,0,4.933-.122,7.254,7.254,0,0,1,3.138-.22c2.423.088,4.843.329,7.269.367a3.631,3.631,0,0,0,2.063-.739,6.617,6.617,0,0,1,4.787-1.063c4.232.349,8.456.829,12.694,1.057a24.414,24.414,0,0,0,4.787-.733l2.743,1.906a14.166,14.166,0,0,1,9.853-.387,8.044,8.044,0,0,0,2.247.355c3.643.019,7.325-.368,10.918.047,4.594.532,9.113-.355,13.665-.112.3.017.679.171.9.045,4.052-2.35,8.271-.544,12.394-.413,1.826.058,3.6.5,5.37-.289a1.769,1.769,0,0,1,1.307-.149,4.939,4.939,0,0,0,4.787.08c3.127.653,6.4-.279,9.476.82a10.774,10.774,0,0,0,7.165-.082,20.141,20.141,0,0,1,2.172-.69c1.523-.3,3.065-.451,4.255.875,1.054,1.177,2.387,1.167,3.79,1.032,3.312-.317,6.627-.61,9.939-.925a.887.887,0,0,1,.223-.172A24.3,24.3,0,0,0,293.005,187.859Z" transform="translate(-3.617 -3.467)"/><path class="cls-2" d="M292.891,211.054a40.207,40.207,0,0,1-.047-4.266c.014-.266.15-.6.038-.8-2.082-3.593-.481-7.332-.365-10.987.048-1.515.36-2.989-.168-4.46-3.336.319-6.675.612-10.01.932-1.4.135-2.735.146-3.789-1.031-1.187-1.33-2.729-1.179-4.256-.875a20.207,20.207,0,0,0-2.172.689,10.767,10.767,0,0,1-7.165.083c-3.075-1.1-6.348-.168-9.476-.82a4.939,4.939,0,0,1-4.787-.081,1.772,1.772,0,0,0-1.306.149c-1.773.788-3.546.348-5.371.29-4.123-.131-8.341-1.938-12.394.412-.217.126-.593-.027-.9-.044-4.552-.246-9.07.643-13.664.112-3.593-.415-7.276-.029-10.918-.047a8.074,8.074,0,0,1-2.247-.355,14.163,14.163,0,0,0-9.85.39l-2.735-1.91a24.556,24.556,0,0,1-4.787.733c-4.238-.228-8.462-.709-12.694-1.058a6.613,6.613,0,0,0-4.787,1.064,3.623,3.623,0,0,1-2.063.738c-2.423-.038-4.843-.277-7.269-.367a7.285,7.285,0,0,0-3.138.22,7.621,7.621,0,0,1-4.933.123,25.074,25.074,0,0,0-7.729-.1c-2.274.245-4.553.466-6.835.612a6.666,6.666,0,0,1-3.134-.187c-1.522-.735-2.829-.424-4.363-.169-2.682.443-5.438.438-8.163.621-2.375-1.627-4.985-.935-7.55-.8a7.934,7.934,0,0,1-3.162-.178,15.1,15.1,0,0,0-4.876-.984,38.707,38.707,0,0,1,1.339,7.889,11.976,11.976,0,0,0,.347,2.809c.911,2.475,1.586,4.894-.005,7.344a52.616,52.616,0,0,1-.532,6.959c-.089.8-.156,1.6-.2,2.394a5.016,5.016,0,0,1-.683,1.163c-1.41,1.821-.892,4-.289,5.851.008.023.012.048.019.072.486.021.975.068,1.458.131a29,29,0,0,1-.283,8.422,7.052,7.052,0,0,0,.325,2.737,8.018,8.018,0,0,1,.029,4.4,8.609,8.609,0,0,0,.335,5.916c.228.63.43,1.27.7,2.066a7.819,7.819,0,0,0-1.654,6.351,5.471,5.471,0,0,1-.141,1.6,33.463,33.463,0,0,0-.192,7.465h.157c3.092.006,6.174-.758,9.275-.132,3.161-1.014,6.393-.371,9.574-.274a16.046,16.046,0,0,0,5.971-.6,18.631,18.631,0,0,1,7.181-.709c3.014.146,6.156,1.079,9.034-.77a2.2,2.2,0,0,1,1.174-.191c1.748.041,3.68-.326,5.194.3,1.753.728,3.507.038,5.06.6,3.528,1.284,7.11.719,10.387-.159,3.428-.918,6.63-.62,9.957-.28a5.447,5.447,0,0,0,1.6.141,7.823,7.823,0,0,1,6.351,1.655c.8-.266,1.436-.47,2.066-.7a8.6,8.6,0,0,1,5.915-.335,8.018,8.018,0,0,0,4.4-.03,7.059,7.059,0,0,1,2.738-.324c4.054.827,8.079.382,12.1-.125,4.348-.549,8.585.745,12.9.63,2.45,1.592,4.869.916,7.343.006a11.977,11.977,0,0,1,2.809-.348,38.294,38.294,0,0,0,7.96-1.357c1.853-.6,4.029-1.121,5.851.289a4.356,4.356,0,0,0,4.927.416,7.254,7.254,0,0,1,1.964-.452c5.365-.8,10.761-.249,16.142-.332,1.21-.019,2.436.172,3.628.035a33.181,33.181,0,0,1,10.849.709,14.418,14.418,0,0,0,2.324.289,7.051,7.051,0,0,1-.3-3.008c.31-3.752.736-7.5.939-11.252a21.689,21.689,0,0,0-.651-4.247l1.693-2.424a12.568,12.568,0,0,1-.342-8.734,7.093,7.093,0,0,0,.317-1.993c.017-3.229-.325-6.493.042-9.677A46.625,46.625,0,0,0,292.891,211.054Z" transform="translate(-3.617 -3.467)"/><path class="cls-3" d="M207.381,228.407c0,3.071-1.826,5.645-6.56,5.645-4.453,0-7.11-2.38-7.11-8.825,0-5.782,2.185-10.567,8.688-10.567a15.482,15.482,0,0,1,4.7.691l-.69,2.216a12.924,12.924,0,0,0-4.233-.663c-4.066,0-5.394,2.434-5.781,5.477l4.37.525C205.085,223.4,207.381,224.978,207.381,228.407Zm-2.546.222c0-2.158-1.241-3.1-4.675-3.512l-3.9-.472v.443c0,5.142,1.493,6.722,4.787,6.722,2.737,0,3.788-1.217,3.788-3.181Z" transform="translate(-3.617 -3.467)"/><path class="cls-3" d="M192.1,17.054a106.879,106.879,0,0,0-4.244,13l-3.157-.69a84.58,84.58,0,0,1,3.953-13.209Zm.77-2.3-3.183-.929a37.3,37.3,0,0,1,2.6-6.233l3.182.979a63.4,63.4,0,0,0-2.6,6.181Z" transform="translate(-3.617 -3.467)"/><path class="cls-3" d="M207.079,18.2a43.669,43.669,0,0,0-4.3,12.626l-3.29-.557a59.276,59.276,0,0,1,2.812-9.736,74.084,74.084,0,0,0-6.287,5.439c-.292,1.273-.716,2.52-1.114,3.872l-3.183-.8c.981-3.5,2.228-7.189,3.448-12.6l3.4.689a40.4,40.4,0,0,1-1.459,5.2,72.335,72.335,0,0,1,6.923-5.863Z" transform="translate(-3.617 -3.467)"/><path class="cls-3" d="M217.66,18.7c-1.034.08-2.069.133-3.1.133a105.992,105.992,0,0,0-3.475,11.194l-3.076-.663c.531-2.228,1.378-5.994,2.864-10.61-1.088-.079-2.015-.159-2.6-.239l.4-2.039c.849.054,1.856.107,2.918.134.636-1.831,1.378-3.767,2.2-5.783l3.581,1.087c-.717,1.6-1.352,3.156-1.963,4.722.848-.053,1.724-.106,2.785-.212Z" transform="translate(-3.617 -3.467)"/><path class="cls-3" d="M192.1,173.786a107.023,107.023,0,0,0-4.244,13L184.7,186.1a84.548,84.548,0,0,1,3.953-13.209Zm.77-2.305-3.183-.929a37.3,37.3,0,0,1,2.6-6.233l3.182.98a63.489,63.489,0,0,0-2.6,6.18Z" transform="translate(-3.617 -3.467)"/><path class="cls-3" d="M207.079,174.927a43.665,43.665,0,0,0-4.3,12.627l-3.29-.557a59.15,59.15,0,0,1,2.812-9.736,73.894,73.894,0,0,0-6.287,5.438c-.292,1.272-.716,2.521-1.114,3.872l-3.183-.8c.981-3.5,2.228-7.19,3.448-12.6l3.4.689a40.431,40.431,0,0,1-1.459,5.2,72.325,72.325,0,0,1,6.923-5.862Z" transform="translate(-3.617 -3.467)"/><path class="cls-3" d="M217.66,175.431c-1.034.08-2.069.132-3.1.132a106.009,106.009,0,0,0-3.475,11.2l-3.076-.663c.531-2.229,1.378-6,2.864-10.612-1.088-.079-2.015-.158-2.6-.237l.4-2.044c.849.054,1.856.107,2.918.133.636-1.83,1.378-3.766,2.2-5.782l3.581,1.088c-.717,1.591-1.352,3.155-1.963,4.721.848-.053,1.724-.106,2.785-.213Z" transform="translate(-3.617 -3.467)"/><path class="cls-2" d="M13.352,59.374c.822,1.936,1.751,3.9,2.732,5.756l-3.156,1.486c-.8-1.539-1.507-3.077-2.2-4.59-1.963,1.908-3.635,3.5-5.173,4.776L3.617,64.918C5.474,63.3,7.543,61.6,9.665,59.59c-.981-2.258-1.828-4.46-2.626-6.582l3.422-1.064c.532,1.538,1.14,3.21,1.83,4.908,1.459-1.672,2.759-3.5,4.059-5.279l2.334,1.7A78.251,78.251,0,0,1,13.352,59.374Z" transform="translate(-3.617 -3.467)"/><path class="cls-2" d="M22.025,207.722c-2.334,4.722-5.916,15.093-7.082,18.966l-3.1-.9c.8-2.864,2.519-7.269,4.166-11.485a48.171,48.171,0,0,1-6.872,6.718L6.162,219.8c1.459-4.881,2.892-9.308,3.793-13.475l3.422.664c-.69,2.944-1.671,6.286-2.865,9.92A44.029,44.029,0,0,0,18.9,206.563Z" transform="translate(-3.617 -3.467)"/></svg>