<?xml version="1.0" encoding="utf-8"?>
<!-- Generator: Adobe Illustrator 22.0.1, SVG Export Plug-In . SVG Version: 6.00 Build 0)  -->
<svg version="1.1" id="Livello_1" xmlns="http://www.w3.org/2000/svg" xmlns:xlink="http://www.w3.org/1999/xlink" x="0px" y="0px"
	 viewBox="0 0 296 116" style="enable-background:new 0 0 296 116;" xml:space="preserve">
<style type="text/css">
	.st0{fill:#FF3366;}
	.st1{fill:#FFEDED;}
	.st2{fill:#1858A8;}
</style>
<title>manuale_ill_nuove</title>
<g id="solo_testo">
	<path class="st0" d="M67.6,56.5c0.1-0.7,0.2-1.3,0.2-2c-0.2,0-0.5,0-0.7,0c-1.2-0.1-2.4-0.1-3.6-0.1c-1,0-2-0.1-3-0.2
		c-0.2-0.1-0.5-0.1-0.7-0.1c-1.6,0-3.1,0.1-4.7,0.4c-0.4,0.1-0.8,0.1-1.2,0c-1-0.2-2-0.2-3-0.2c-0.8,0.1-1.7,0.1-2.5-0.1
		c-1-0.1-1.9-0.1-2.9,0.1c0,0-0.1,0-0.1,0c-0.7,0.2-1.5,0.3-2.2,0.1c-0.4-0.1-0.8-0.1-1.1-0.2c0,0.8,0,1.5,0.1,2.3
		c0.1,0.9,0.1,1.8-0.1,2.7c0,0.3,0,0.5,0,0.8c0,0.1,0,0.2,0,0.2c0.3,0,0.6-0.1,0.9-0.1c0.2,0,0.5-0.1,0.7-0.1c0.8,0.1,1.7,0.1,2.6,0
		c0.3-0.1,0.8,0.1,1.2,0.1c1.8-0.1,3.7-0.1,5.5-0.1c0.3,0,0.5,0,0.8,0c0.4,0.1,0.9,0.1,1.3,0.1c0.8-0.1,1.7,0,2.5,0.2
		c0.3,0.1,0.6,0.1,0.9,0c1-0.2,2.1-0.2,3.2-0.2c0.8,0.1,1.6,0.1,2.5,0C64.9,60.1,66,60,67,60c0.2,0,0.4,0,0.6,0
		c-0.1-0.9-0.1-1.9-0.1-2.8C67.5,56.9,67.5,56.7,67.6,56.5z"/>
	<path class="st0" d="M71.6,57.7c0.5-0.4,0.9-0.9,1.3-1.5c-0.2-0.1-0.4-0.3-0.6-0.5c-0.9-0.8-1.9-1.5-2.9-2.2
		c-0.8-0.6-1.6-1.3-2.3-2c-0.1-0.2-0.3-0.4-0.5-0.5c-1.3-0.9-2.6-1.8-4-2.5c-0.4-0.2-0.7-0.4-0.9-0.7c-0.7-0.7-1.5-1.4-2.3-2
		c-0.7-0.4-1.4-0.9-1.9-1.6c-0.6-0.8-1.6-1.1-2.4-1.7c0,0-0.1,0-0.1,0c-0.7-0.2-1.3-0.7-1.9-1.2c-0.3-0.3-0.5-0.5-0.8-0.8
		c-0.5,0.6-0.9,1.2-1.3,1.9c-0.5,0.8-1,1.5-1.7,2.1c-0.2,0.2-0.4,0.4-0.5,0.6c0,0.1-0.1,0.1-0.1,0.2c0.2,0.2,0.5,0.3,0.8,0.4
		c0.2,0.1,0.4,0.2,0.6,0.3c0.6,0.6,1.3,1.1,2.1,1.5c0.3,0.1,0.5,0.6,0.9,0.8c1.6,1,3,2.1,4.5,3.2c0.2,0.2,0.4,0.3,0.6,0.5
		c0.3,0.3,0.6,0.6,1,0.8c0.7,0.4,1.3,1,1.9,1.6c0.2,0.2,0.5,0.4,0.7,0.5c0.9,0.5,1.8,1.1,2.7,1.7c0.6,0.5,1.3,1,2,1.5
		c0.9,0.6,1.8,1.2,2.7,1.7c0.2,0.1,0.3,0.2,0.4,0.3c0.5-0.8,1.1-1.5,1.6-2.3C71.3,58,71.4,57.8,71.6,57.7z"/>
	<path class="st0" d="M70.3,53.7c-0.4-0.5-0.9-1-1.4-1.5c-0.2,0.2-0.3,0.4-0.5,0.5c-1,0.8-1.6,1.8-2.4,2.7c-0.7,0.8-1.4,1.5-2.2,2.1
		c-0.2,0.1-0.4,0.3-0.6,0.4c-1,1.2-2,2.4-2.8,3.8c-0.2,0.3-0.5,0.6-0.8,0.9c-0.8,0.6-1.5,1.4-2.2,2.2c-0.5,0.7-1.1,1.3-1.7,1.7
		c-0.8,0.6-1.2,1.5-1.9,2.2c0,0,0,0.1,0,0.1c-0.3,0.7-0.8,1.3-1.4,1.7c-0.3,0.2-0.6,0.5-0.9,0.7c0.6,0.5,1.2,1,1.8,1.4
		c0.7,0.5,1.4,1.1,2,1.9c0.2,0.2,0.4,0.4,0.6,0.6c0.1,0.1,0.1,0.1,0.2,0.2c0.2-0.2,0.3-0.5,0.5-0.7c0.1-0.2,0.3-0.4,0.4-0.6
		c0.6-0.6,1.3-1.1,1.7-1.9c0.1-0.3,0.6-0.5,0.8-0.8c1.1-1.5,2.4-2.8,3.6-4.2c0.2-0.2,0.4-0.4,0.6-0.6c0.3-0.3,0.6-0.6,0.9-0.9
		c0.5-0.7,1.1-1.2,1.8-1.7c0.2-0.2,0.4-0.4,0.6-0.7c0.6-0.9,1.2-1.7,1.9-2.5c0.6-0.6,1.1-1.2,1.6-1.8c0.7-0.8,1.3-1.7,2-2.5
		c0.1-0.1,0.2-0.3,0.4-0.4c-0.7-0.6-1.4-1.2-2.2-1.8C70.6,54.1,70.5,53.9,70.3,53.7z"/>
	<path class="st0" d="M243.1,57.7c0.5-0.4,0.9-0.9,1.3-1.5c-0.2-0.1-0.4-0.3-0.6-0.5c-0.9-0.8-1.9-1.5-2.9-2.2
		c-0.8-0.6-1.6-1.3-2.3-2c-0.1-0.2-0.3-0.4-0.5-0.5c-1.3-0.9-2.6-1.8-4-2.5c-0.4-0.2-0.7-0.4-0.9-0.7c-0.7-0.7-1.5-1.4-2.3-2
		c-0.7-0.4-1.4-0.9-1.9-1.6c-0.6-0.8-1.6-1.1-2.4-1.7c0,0-0.1,0-0.1,0c-0.7-0.2-1.3-0.7-1.9-1.2c-0.3-0.3-0.5-0.5-0.8-0.8
		c-0.5,0.6-0.9,1.2-1.3,1.9c-0.5,0.8-1,1.5-1.7,2.1c-0.2,0.2-0.4,0.4-0.5,0.6c0,0.1-0.1,0.1-0.1,0.2c0.2,0.2,0.5,0.3,0.8,0.4
		c0.2,0.1,0.4,0.2,0.6,0.3c0.6,0.6,1.3,1.1,2.1,1.5c0.3,0.1,0.5,0.6,0.9,0.8c1.6,1,3,2.1,4.5,3.2c0.2,0.2,0.4,0.3,0.6,0.5
		c0.3,0.3,0.6,0.6,1,0.8c0.7,0.4,1.3,1,1.9,1.6c0.2,0.2,0.5,0.4,0.7,0.5c0.9,0.5,1.8,1.1,2.7,1.7c0.6,0.5,1.3,1,2,1.5
		c0.9,0.6,1.8,1.2,2.7,1.7c0.2,0.1,0.3,0.2,0.4,0.3c0.5-0.8,1.1-1.5,1.6-2.3C242.7,58,242.9,57.8,243.1,57.7z"/>
	<path class="st0" d="M241.8,53.7c-0.4-0.5-0.9-1-1.4-1.5c-0.2,0.2-0.3,0.4-0.5,0.5c-1,0.8-1.6,1.8-2.4,2.7
		c-0.7,0.8-1.4,1.5-2.2,2.1c-0.2,0.1-0.4,0.3-0.6,0.4c-1,1.2-2,2.4-2.8,3.8c-0.2,0.3-0.5,0.6-0.8,0.9c-0.8,0.6-1.5,1.4-2.2,2.2
		c-0.5,0.7-1.1,1.3-1.7,1.7c-0.8,0.6-1.2,1.5-1.9,2.2c0,0,0,0.1,0,0.1c-0.3,0.7-0.8,1.3-1.4,1.7c-0.3,0.2-0.6,0.5-0.9,0.7
		c0.6,0.5,1.2,1,1.8,1.4c0.7,0.5,1.4,1.1,2,1.9c0.2,0.2,0.4,0.4,0.6,0.6c0.1,0.1,0.1,0.1,0.2,0.2c0.2-0.2,0.3-0.5,0.5-0.7
		c0.1-0.2,0.3-0.4,0.4-0.6c0.6-0.6,1.3-1.1,1.7-1.9c0.1-0.3,0.6-0.5,0.8-0.8c1.1-1.5,2.4-2.8,3.6-4.2c0.2-0.2,0.4-0.4,0.6-0.6
		c0.3-0.3,0.6-0.6,0.9-0.9c0.5-0.7,1.1-1.2,1.8-1.7c0.2-0.2,0.4-0.4,0.6-0.7c0.6-0.9,1.2-1.7,1.9-2.5c0.6-0.6,1.1-1.2,1.6-1.8
		c0.7-0.8,1.3-1.7,2-2.5c0.1-0.1,0.2-0.3,0.4-0.4c-0.7-0.6-1.4-1.2-2.2-1.8C242,54.1,241.9,53.9,241.8,53.7z"/>
	<path class="st0" d="M112.4,58.1c1.2,0.3,2.4,0.4,3.7,0.4c0.9-0.1,1.8-0.1,2.7-0.1c0.8,0.1,1.6,0.1,2.5,0c0.9-0.1,1.8-0.1,2.7-0.1
		c0.8,0.1,1.6,0.1,2.5,0c0.5,0,0.9,0,1.4,0.1c1.1,0.1,2.2,0.2,3.3,0.1c1.1-0.1,2.3-0.1,3.4-0.2c0.4,0,0.7,0,1.1,0
		c0.5,0,0.9,0.1,1.4,0.1c1.5,0.1,2.9,0.1,4.4,0c0.2,0,0.3,0,0.5,0.1c0.2,0,0.5,0,0.7,0c0.3,0,0.5,0,0.8,0c0.9,0.2,1.8,0.2,2.7,0.1
		c1.1-0.1,2.1-0.1,3.2,0c0.2,0,0.5,0,0.7,0c0.7,0,1.3-0.1,2-0.1c0.9-0.1,1.9,0,2.8,0.1c0.7,0.1,1.4,0.1,2.1,0c0.2,0,0.5-0.1,0.7-0.1
		c0.8,0.1,1.7,0.1,2.6,0c0.3-0.1,0.8,0.1,1.2,0.1c1.8-0.1,3.7-0.1,5.5-0.1c0.3,0,0.5,0,0.8,0c0.4,0.1,0.9,0.1,1.3,0.1
		c0.8-0.1,1.7,0,2.5,0.2c0.3,0.1,0.6,0.1,0.9,0c1-0.2,2.1-0.2,3.2-0.2c0.8,0.1,1.6,0.1,2.5,0c1.1-0.1,2.1-0.1,3.2-0.2
		c0.2,0,0.4,0,0.6,0c-0.1-0.9-0.1-1.9-0.1-2.8c0-0.2,0.1-0.5,0.1-0.7c0.1-0.7,0.2-1.3,0.2-2c-0.2,0-0.5,0-0.7,0
		c-1.2-0.1-2.4-0.1-3.6-0.1c-1,0-2-0.1-3-0.2c-0.2-0.1-0.5-0.1-0.7-0.1c-1.6,0-3.1,0.1-4.7,0.4c-0.4,0.1-0.8,0.1-1.2,0
		c-1-0.2-2-0.2-3-0.2c-0.8,0.1-1.7,0.1-2.5-0.1c-1-0.1-1.9-0.1-2.9,0.1c0,0-0.1,0-0.1,0c-0.7,0.2-1.5,0.3-2.2,0.1
		c-0.7-0.1-1.5-0.2-2.2-0.2c-1-0.1-2,0-2.9,0.1c-0.1,0-0.2,0-0.4,0c-0.5,0-1.1-0.1-1.6-0.1c-1.2-0.2-2.4-0.2-3.6,0
		c-0.4,0-0.8,0-1.2,0c-0.5,0-0.9-0.1-1.4-0.1c-0.4,0-0.8,0-1.2,0c-0.8-0.1-1.6-0.1-2.4-0.1c-0.4,0-0.8,0-1.2-0.1
		c-0.6-0.1-1.2-0.2-1.9-0.2c-0.7,0.1-1.4,0.1-2.1,0c-0.9-0.2-1.9-0.1-2.8,0.1c-0.8,0.1-1.6,0.1-2.3,0c-0.7-0.1-1.5-0.1-2.2,0.1
		c-0.8,0.2-1.6,0.3-2.3,0.1c-0.3-0.1-0.7,0-1.1-0.1l-1.2-0.1c-0.9-0.1-1.9-0.1-2.8-0.2c-0.6,0-1.2,0-1.8,0.1c-0.6,0-1.2,0-1.9,0
		c-0.6,0.1-1.2,0-1.7-0.1c-0.4,0-0.7-0.1-1-0.1c-0.7-0.1-1.4,0.4-1.5,1.1c0,0,0,0.1,0,0.1c-0.2,1.1,0,2.3-0.3,3.4
		c0,0.2,0.1,0.3,0.1,0.5C112.3,57.6,112.3,57.8,112.4,58.1z"/>
	<path class="st0" d="M85.9,57.7c0-0.5,0.1-0.9,0.1-1.4c0-0.4,0-0.8,0-1.2c-0.1-0.7-0.1-1.3-0.1-2c-1.2-0.2-2.4-0.2-3.6,0
		c-0.4,0-0.8,0-1.2,0c-0.5,0-0.9-0.1-1.4-0.1c-0.4,0-0.8,0-1.2,0c-0.8-0.1-1.6-0.1-2.4-0.1c-0.4,0-0.8,0-1.2-0.1
		c-0.6-0.1-1.2-0.2-1.9-0.2c-0.7,0.1-1.4,0.1-2.1,0c-0.9-0.2-1.9-0.1-2.8,0.1c-0.8,0.1-1.6,0.1-2.3,0c-0.7-0.1-1.5-0.1-2.2,0.1
		c-0.8,0.2-1.6,0.3-2.3,0.1c-0.3-0.1-0.7,0-1.1-0.1L59,52.9c-0.9-0.1-1.9-0.1-2.8-0.2c-0.6,0-1.2,0-1.8,0.1c-0.6,0-1.2,0-1.9,0
		c-0.6,0.1-1.2,0-1.7-0.1c-0.4,0-0.7-0.1-1-0.1c-0.7-0.1-1.4,0.4-1.5,1.1c0,0,0,0.1,0,0.1c-0.2,1.1,0,2.3-0.3,3.4
		c0,0.2,0.1,0.3,0.1,0.5c0,0.3,0.1,0.5,0.2,0.8c1.2,0.3,2.4,0.4,3.7,0.4c0.9-0.1,1.8-0.1,2.7-0.1c0.8,0.1,1.6,0.1,2.5,0
		c0.9-0.1,1.8-0.1,2.7-0.1c0.8,0.1,1.6,0.1,2.5,0c0.5,0,0.9,0,1.4,0.1c1.1,0.1,2.2,0.2,3.3,0.1c1.1-0.1,2.3-0.1,3.4-0.2
		c0.4,0,0.7,0,1.1,0c0.5,0,0.9,0.1,1.4,0.1c1.5,0.1,2.9,0.1,4.4,0c0.2,0,0.3,0,0.5,0.1c0.2,0,0.5,0,0.7,0c0.3,0,0.5,0,0.8,0
		c0.9,0.2,1.8,0.2,2.7,0.1c1.1-0.1,2.1-0.1,3.2,0c0.2,0,0.5,0,0.7,0l0.1,0c0-0.1,0-0.1,0-0.2C85.9,58.5,85.9,58.1,85.9,57.7z"/>
	<path class="st0" d="M46.5,59c0-0.5,0.1-0.9,0.1-1.4c0-0.4,0-0.8,0-1.2c-0.1-0.7-0.2-1.3-0.1-2c-1.2-0.2-2.4-0.2-3.6,0
		c-0.4,0-0.8,0-1.2,0c-0.5,0-0.9-0.1-1.4-0.1c-0.4,0-0.8,0-1.2,0c-0.8-0.1-1.6-0.1-2.4-0.1c-0.4,0-0.8,0-1.2-0.1
		c-0.6-0.1-1.2-0.2-1.9-0.2c-0.7,0.1-1.4,0.1-2.1,0c-0.9-0.2-1.9-0.1-2.8,0.1c-0.8,0.1-1.6,0.1-2.3,0C25.7,54,25,54,24.3,54.2
		c-0.8,0.2-1.6,0.3-2.3,0.1c-0.3-0.1-0.7,0-1.1-0.1l-1.2-0.1c-0.9-0.1-1.9-0.1-2.8-0.2c-0.6,0-1.2,0-1.8,0.1c-0.6,0-1.2,0-1.9,0
		c-0.6,0.1-1.2,0-1.7-0.1c-0.4,0-0.7-0.1-1-0.1c-0.7-0.1-1.4,0.4-1.5,1.1c0,0,0,0.1,0,0.1c-0.2,1.1,0,2.3-0.3,3.4
		c0,0.2,0.1,0.3,0.1,0.5c0,0.3,0.1,0.5,0.2,0.8c1.2,0.3,2.4,0.4,3.7,0.4c0.9-0.1,1.8-0.1,2.7-0.1c0.8,0.1,1.6,0.1,2.5,0
		c0.9-0.1,1.8-0.1,2.7-0.1c0.8,0.1,1.6,0.1,2.5,0c0.5,0,0.9,0,1.4,0.1c1.1,0.1,2.2,0.2,3.3,0.1c1.1-0.1,2.3-0.1,3.4-0.2
		c0.4,0,0.7,0,1.1,0c0.5,0,0.9,0.1,1.4,0.1c1.5,0.1,2.9,0.1,4.4,0c0.2,0,0.3,0,0.5,0.1c0.2,0,0.5,0,0.7,0c0.3,0,0.5,0,0.8,0
		c0.9,0.2,1.8,0.2,2.7,0.1c1.1-0.1,2.1-0.1,3.2,0c0.2,0,0.5,0,0.7,0l0.1,0c0-0.1,0-0.1,0-0.2C46.6,59.8,46.6,59.4,46.5,59z"/>
	<path class="st0" d="M91.8,58.1c0.2-0.9,0.2-1.8,0.1-2.7c-0.1-0.8-0.1-1.5-0.1-2.3c-0.4,0-0.7-0.1-1.1,0c-1-0.1-2,0-2.9,0.1
		c-0.1,0-0.2,0-0.4,0c-0.5,0-1.1-0.1-1.6-0.1h0c0,0.7,0,1.3,0.1,2c0,0.4,0,0.8,0,1.2c0,0.5-0.1,0.9-0.1,1.4c0,0.4,0,0.8,0,1.2
		c0,0.1,0,0.1,0,0.2c0.6,0,1.3-0.1,1.9-0.1c0.9-0.1,1.9,0,2.8,0.1c0.4,0.1,0.8,0.1,1.2,0.1c0-0.1,0-0.2,0-0.2
		C91.7,58.7,91.7,58.4,91.8,58.1z"/>
	<path class="st0" d="M238.9,56.6c0.1-0.7,0.2-1.3,0.2-2c-0.2,0-0.5,0-0.7,0c-1.2-0.1-2.4-0.1-3.6-0.1c-1,0-2-0.1-3-0.2
		c-0.2-0.1-0.5-0.1-0.7-0.1c-1.6,0-3.1,0.1-4.7,0.4c-0.4,0.1-0.8,0.1-1.2,0c-1-0.2-2-0.2-3-0.2c-0.8,0.1-1.7,0.1-2.5-0.1
		c-1-0.1-1.9-0.1-2.9,0.1c0,0-0.1,0-0.1,0c-0.7,0.2-1.5,0.3-2.2,0.1c-0.7-0.1-1.5-0.2-2.2-0.2c-1-0.1-2,0-2.9,0.1
		c-0.1,0-0.2,0-0.4,0c-0.5,0-1.1-0.1-1.6-0.1c-1.2-0.2-2.4-0.2-3.6,0c-0.4,0-0.8,0-1.2,0c-0.5,0-0.9-0.1-1.4-0.1c-0.4,0-0.8,0-1.2,0
		c-0.8-0.1-1.6-0.1-2.4-0.1c-0.4,0-0.8,0-1.2-0.1c-0.1,0-0.2,0-0.3,0c0,0.1,0,0.2,0,0.2c0.1,0.8,0,1.5-0.1,2.3c0,0.4,0,0.8,0,1.1
		c0,0.5-0.1,0.9-0.1,1.4c0,0.3,0,0.7,0,1c0.9,0.1,1.8,0.1,2.7,0c0.2,0,0.3,0,0.5,0.1c0.2,0,0.5,0,0.7,0c0.3,0,0.5,0,0.8,0
		c0.9,0.2,1.8,0.2,2.7,0.1c1.1-0.1,2.1-0.1,3.2,0c0.2,0,0.5,0,0.7,0c0.7,0,1.3-0.1,2-0.1c0.9-0.1,1.9,0,2.8,0.1
		c0.7,0.1,1.4,0.1,2.1,0c0.2,0,0.5-0.1,0.7-0.1c0.8,0.1,1.7,0.1,2.6,0c0.3-0.1,0.8,0.1,1.2,0.1c1.8-0.1,3.7-0.1,5.5-0.1
		c0.3,0,0.5,0,0.8,0c0.4,0.1,0.9,0.1,1.3,0.1c0.8-0.1,1.7,0,2.5,0.2c0.3,0.1,0.6,0.1,0.9,0c1-0.2,2.1-0.2,3.2-0.2
		c0.8,0.1,1.6,0.1,2.5,0c1.1-0.1,2.1-0.1,3.2-0.2c0.2,0,0.4,0,0.6,0c-0.1-0.9-0.1-1.9-0.1-2.8C238.8,57.1,238.8,56.9,238.9,56.6z"/>
	<path class="st0" d="M283.1,56.6c0.1-0.7,0.2-1.3,0.2-2c-0.2,0-0.5,0-0.7,0c-1.2-0.1-2.4-0.1-3.6-0.1c-1,0-2-0.1-3-0.2
		c-0.2-0.1-0.5-0.1-0.7-0.1c-1.6,0-3.1,0.1-4.7,0.4c-0.4,0.1-0.8,0.1-1.2,0c-1-0.2-2-0.2-3-0.2c-0.8,0.1-1.7,0.1-2.5-0.1
		c-1-0.1-1.9-0.1-2.9,0.1c0,0-0.1,0-0.1,0c-0.7,0.2-1.5,0.3-2.2,0.1c-0.7-0.1-1.5-0.2-2.2-0.2c-1-0.1-2,0-2.9,0.1
		c-0.1,0-0.2,0-0.4,0c-0.5,0-1.1-0.1-1.6-0.1c-1.2-0.2-2.4-0.2-3.6,0c-0.4,0-0.8,0-1.2,0c-0.5,0-0.9-0.1-1.4-0.1c-0.4,0-0.8,0-1.2,0
		c-0.8-0.1-1.6-0.1-2.4-0.1c-0.4,0-0.8,0-1.2-0.1c-0.1,0-0.2,0-0.3,0c0,0.1,0,0.2,0,0.2c0.1,0.8,0,1.5-0.1,2.3c0,0.4,0,0.8,0,1.1
		c0,0.5-0.1,0.9-0.1,1.4c0,0.3,0,0.7,0,1c0.9,0.1,1.8,0.1,2.7,0c0.2,0,0.3,0,0.5,0.1c0.2,0,0.5,0,0.7,0c0.3,0,0.5,0,0.8,0
		c0.9,0.2,1.8,0.2,2.7,0.1c1.1-0.1,2.1-0.1,3.2,0c0.2,0,0.5,0,0.7,0c0.7,0,1.3-0.1,2-0.1c0.9-0.1,1.9,0,2.8,0.1
		c0.7,0.1,1.4,0.1,2.1,0c0.2,0,0.5-0.1,0.7-0.1c0.8,0.1,1.7,0.1,2.6,0c0.3-0.1,0.8,0.1,1.2,0.1c1.8-0.1,3.7-0.1,5.5-0.1
		c0.3,0,0.5,0,0.8,0c0.4,0.1,0.9,0.1,1.3,0.1c0.8-0.1,1.7,0,2.5,0.2c0.3,0.1,0.6,0.1,0.9,0c1-0.2,2.1-0.2,3.2-0.2
		c0.8,0.1,1.6,0.1,2.5,0c1.1-0.1,2.1-0.1,3.2-0.2c0.2,0,0.4,0,0.6,0c-0.1-0.9-0.1-1.9-0.1-2.8C283,57.1,283,56.9,283.1,56.6z"/>
	<path class="st0" d="M195.9,59.1c0-0.5,0.1-0.9,0.1-1.4c0-0.4,0-0.8,0-1.1c0.1-0.8,0.1-1.5,0.1-2.3c0-0.1,0-0.2,0-0.2
		c-0.5-0.1-1-0.2-1.5-0.1c-0.7,0.1-1.4,0.1-2.1,0c-0.8-0.1-1.5-0.1-2.3,0c0,0.5,0,1,0.1,1.4c0,0.2,0,0.3-0.1,0.4c0,0.2,0,0.4,0,0.7
		c0,0.3,0,0.5,0,0.8c-0.2,0.9-0.2,1.7-0.1,2.6c0,0.1,0,0.1,0,0.2c0.6,0,1.2-0.1,1.8-0.1c0.4,0,0.7,0,1.1,0c0.5,0,0.9,0.1,1.4,0.1
		c0.5,0,1.1,0,1.6,0C195.9,59.8,195.9,59.4,195.9,59.1z"/>
	<path class="st1" d="M159,53.4c0.2-0.2,0.4-0.5,0.5-0.7c0.1-0.3,0.2-0.6,0.2-0.9c0-0.1,0-0.1,0.1-0.2c0.1-0.1,0.2-0.2,0.2-0.4
		c0-0.3,0.1-0.6,0.1-0.9c0-0.1,0.1-0.3,0.2-0.4c0.1-0.2,0.2-0.4,0.2-0.6c0-0.1,0.1-0.3,0.2-0.3c0,0,0.1,0,0.1-0.1
		c0-0.1,0-0.1-0.1-0.1c-0.3,0-0.4-0.2-0.5-0.4c0,0,0-0.1,0-0.1c0.1-0.1,0.1-0.3,0.2-0.5c0.1-0.1,0.2-0.3,0.4-0.4
		c0.2-0.1,0.4-0.3,0.6-0.5c0,0,0.1-0.1,0.1-0.2c0-0.2,0.1-0.4,0.1-0.6c0,0,0-0.1,0-0.1c0-0.3,0.1-0.6,0.3-0.9c0-0.1,0-0.2,0-0.3
		c-0.1-0.2,0-0.4,0.1-0.6c0,0,0,0,0-0.1c0.2-0.3,0.2-0.3,0.5-0.1c0.1,0.1,0.2,0.2,0.4,0.3c0.1,0,0.1-0.1,0.1-0.1
		c0.1-0.1,0.2-0.2,0.3-0.2c0.1-0.1,0.1-0.2,0.2-0.3c0.1-0.1,0.3-0.1,0.4-0.3c0,0,0-0.1,0.1-0.1c0.4-0.2,0.7-0.5,0.9-0.9
		c0.1-0.1,0.2-0.2,0.3-0.3c0.3-0.2,0.6-0.5,0.9-0.8c0,0,0.1-0.1,0.1-0.1c0.1-0.1,0.1-0.1,0.2-0.2c0.1,0,0.1-0.1,0.2-0.1
		c0.2-0.2,0.4-0.3,0.6-0.4c0.1,0,0.1-0.1,0.1-0.2c0.1-0.2,0.1-0.3,0.1-0.5c0-0.1,0.1-0.2,0.2-0.2c0.1,0,0.2-0.1,0.2-0.2
		c0,0,0-0.1,0-0.1c0-0.2,0.3-0.4,0.5-0.4c0.1,0,0.2,0,0.3,0.1c0.2,0.1,0.4,0.1,0.6-0.1c0.1-0.1,0.3-0.2,0.4-0.1c0.1,0,0.2,0,0.3,0
		c0.1-0.1,0.3-0.2,0.4-0.2c0.2-0.1,0.3-0.1,0.5-0.2c0.1,0,0.2,0,0.2-0.1c0,0,0.1,0,0.1,0c0.1-0.2,0.4-0.2,0.5-0.3c0,0,0.1,0,0.1,0
		c0.2,0,0.4-0.1,0.6,0c0.1,0,0.1,0,0.2-0.1c0.2-0.1,0.3-0.2,0.5-0.3c0.2-0.1,0.4-0.3,0.6-0.4c0.2-0.1,0.5-0.2,0.8-0.2
		c0.1,0,0.3,0.1,0.4-0.1c0.3,0,0.5-0.2,0.8-0.2c0.1,0,0.1,0,0.2-0.1c0.1-0.1,0.1-0.1,0.2-0.2c0,0,0.1-0.1,0.2-0.1
		c0.3,0,0.5-0.1,0.7-0.3c0,0,0,0,0.1,0c0.1,0.1,0.3,0.1,0.5,0.1c0.1,0,0.3,0,0.4,0.1c0,0,0.2,0,0.2,0c0.1,0,0.3,0,0.4,0
		c0.2,0.1,0.5,0,0.7-0.1c0.1-0.1,0.3-0.1,0.4-0.1c0.1,0,0.2,0,0.2-0.1c0.1-0.1,0.2-0.1,0.4,0c0.2,0,0.3,0,0.5,0c0,0,0.1,0,0.1,0
		c0.2,0.1,0.5,0,0.7-0.1c0.2-0.1,0.3-0.1,0.5,0c0,0,0.1,0,0.1,0.1l0.6-0.4c0.1,0,0.2,0.1,0.3,0.1c0.1,0,0.2,0,0.3,0c0,0,0,0,0.1,0
		c0.2-0.2,0.5-0.1,0.7-0.3c0.1,0,0.1,0,0.2,0c0.1,0,0.1,0,0.2,0c0.2-0.1,0.4-0.1,0.5,0c0,0,0,0,0.1,0c0.2-0.1,0.4,0,0.6,0.1
		c0.1,0.1,0.2,0.1,0.2,0.1c0.2,0.2,0.5,0.3,0.7,0.2c0.1,0,0.2,0,0.2,0c0.2,0.1,0.4,0.2,0.6,0.3c0.2,0.1,0.3,0.1,0.4,0.3
		c0,0,0.1,0.1,0.1,0.1c0.4,0.1,0.9,0.3,1.3,0.5c0,0,0,0,0,0c0.1,0.1,0.3,0.2,0.4,0.3c0.2,0.1,0.3,0.2,0.5,0.3
		c0.2,0.1,0.4,0.2,0.6,0.3c0.1,0,0.2,0.1,0.3,0.2c0.1,0.2,0.3,0.3,0.5,0.3c0.1,0,0.1,0.1,0.2,0.2c0.2,0.2,0.4,0.4,0.7,0.5
		c0.1,0,0.1,0.1,0.2,0.1c0.1,0.1,0.2,0.2,0.3,0.3c0.3-0.2,0.6,0,0.9,0c0.2,0.1,0.4,0.2,0.5,0.3c0,0,0.1,0.1,0.1,0.1
		c0.2,0,0.2,0,0.3,0.2c0,0,0.1,0.1,0.1,0.1c0.2,0.1,0.4,0.2,0.5,0.4c0.1,0.2,0.3,0.4,0.5,0.5c0.2,0.1,0.5,0.3,0.8,0.3
		c0.2,0.1,0.5,0.1,0.7,0.2c0.2,0,0.3,0.1,0.5,0.3c0.1,0,0.1,0.1,0.2,0.1c0.1,0,0.2,0.1,0.3,0.1c0.1,0.3,0.4,0.4,0.7,0.4v0.2
		c0.2,0.2,0.4,0.4,0.7,0.5c0.3,0.2,0.5,0.6,0.3,0.9c0,0,0,0,0,0.1l-0.1,0.1c0.1,0.1,0.1,0.1,0.1,0.2c0,0.1,0,0.2,0,0.2
		c0,0.1,0,0.1,0.1,0.2c0,0,0,0.1,0,0.1c-0.1,0.2,0,0.5,0.1,0.7c0.1,0.2,0.2,0.4,0.3,0.6c0,0.2,0.2,0.3,0.3,0.4
		c0.1,0,0.2,0.1,0.2,0.2c0.2,0.1,0.3,0.3,0.5,0.4c0.1,0,0.1,0.1,0.1,0.1c0.1,0.1,0.2,0.3,0.3,0.3c0.2,0.1,0.3,0.2,0.4,0.4
		c0,0,0,0.1,0.1,0.1c0.3,0,0.3,0.3,0.4,0.4c0.1,0.2,0.1,0.4,0.1,0.6c0,0.1,0,0.3,0,0.4c0,0.2,0,0.4-0.1,0.6c0,0.1,0,0.1,0,0.2
		c0.1,0.2,0,0.4,0,0.6c0,0,0,0.1,0,0.1c0.1,0.1,0.2,0.1,0.2,0.3c0,0,0,0,0,0c0.1,0.1,0.1,0.2,0.2,0.2c0,0.1,0,0.2,0,0.3
		c0,0.1,0.1,0.2,0.1,0.2c0.1,0.1,0.2,0.2,0.2,0.3c0,0,0.1,0.1,0.1,0.1c0,0.2,0.1,0.3,0.1,0.4c-0.2,0.2-0.1,0.5-0.1,0.8
		c0,0,0,0.1,0,0.1c0.1,0.1,0.1,0.1,0.1,0.2c0,0,0,0,0,0c0.2,0.1,0.2,0.4,0.2,0.5c0,0.1,0.1,0.1,0.1,0.2l-0.1,0.2
		c0.1,0.1,0.2,0.3,0.4,0.4c0.1,0.1,0.1,0.2,0.1,0.4l0.4,0.2c0,0,0,0.1-0.1,0.1c0,0.1,0,0.1,0,0.2c0,0.2,0.1,0.3,0.1,0.4
		s0,0.3,0.1,0.4c0.2,0.2,0.2,0.4,0.2,0.6c0,0.3,0,0.6,0,0.9c0,0,0,0.1,0,0.1c-0.1,0.1-0.1,0.2,0,0.4c0.1,0.2,0.1,0.3,0,0.5
		c0,0,0,0.1,0,0.1c0,0.1,0,0.2,0,0.3c-0.1,0.1-0.1,0.2,0,0.3c0,0.1,0,0.2,0,0.3c0,0.1,0,0.2,0,0.2c-0.1,0.2-0.1,0.4-0.2,0.6
		c-0.1,0.1,0,0.2,0,0.3c0,0.1,0,0.3,0,0.4c0,0.1,0,0.1,0,0.2c-0.1,0.1-0.1,0.3-0.1,0.5c0,0.2,0,0.3,0,0.5c0,0.3,0,0.7-0.2,1
		c0,0.1-0.1,0.2-0.2,0.3c-0.1,0.2-0.2,0.4-0.1,0.6c0,0.3,0,0.7-0.1,1c-0.1,0.2-0.1,0.4-0.2,0.6c-0.1,0.2-0.1,0.4,0,0.6
		c-0.2,0.2-0.3,0.4-0.2,0.7c0,0.2-0.1,0.4-0.2,0.5c-0.1,0.1-0.2,0.3-0.1,0.4c0,0.1,0,0.2,0,0.3c-0.1,0.2-0.1,0.3-0.1,0.5
		c0,0,0,0.1,0,0.1c-0.2,0.4-0.4,0.8-0.7,1.1c-0.1,0-0.1,0.1-0.2,0.1c-0.1,0-0.2,0.1-0.3,0.2c-0.2,0.2-0.4,0.4-0.6,0.6
		c-0.1,0.1-0.3,0.2-0.4,0.2c-0.2,0-0.3,0.2-0.4,0.4c0,0.1-0.1,0.3-0.1,0.4c-0.1,0.2-0.2,0.4-0.3,0.6c-0.1,0.1-0.2,0.3-0.3,0.5
		c0,0,0,0.1-0.1,0.1c-0.1,0.1-0.3,0.3-0.3,0.5c0,0.1-0.1,0.1-0.1,0.1c-0.2,0.2-0.4,0.3-0.6,0.5c0,0.1-0.1,0.2-0.1,0.3
		c0,0.1-0.1,0.3-0.3,0.3c-0.2,0-0.3,0.1-0.4,0.2c0,0-0.1,0-0.1,0.1c-0.1,0.1-0.2,0.1-0.3,0.2c-0.2,0.1-0.3,0.2-0.5,0.2
		c-0.3,0-0.4,0.1-0.4,0.4c0,0.2-0.1,0.4-0.3,0.5c-0.2,0.1-0.1,0.2-0.2,0.3s-0.2,0.1-0.3,0.2c-0.1,0.2-0.3,0.4-0.5,0.5
		c-0.2,0.1-0.3,0.3-0.4,0.4c-0.1,0.2-0.3,0.3-0.5,0.4c-0.3,0.1-0.6,0.3-0.8,0.5c-0.2,0.1-0.4,0.2-0.6,0.3c-0.1,0.1-0.2,0.1-0.3,0
		c-0.1,0-0.3,0-0.4,0.1c-0.2,0.2-0.5,0.4-0.8,0.5c-0.1,0.1-0.2,0.1-0.3,0.1c-0.3,0-0.5,0-0.8,0c-0.3,0-0.6,0.1-0.9,0.3
		c-0.2,0.2-0.5,0.3-0.7,0.5c-0.1,0.1-0.2,0.1-0.4,0.1s-0.1,0.2-0.2,0.2c-0.2,0.1-0.3,0.1-0.5,0.2c-0.1,0-0.1,0-0.2,0
		c-0.3,0.1-0.6,0.1-0.9,0.1c-0.2,0-0.4,0-0.6,0.1c-0.1,0-0.1,0.1-0.2,0.1c-0.1,0-0.3,0-0.4,0c0,0-0.1,0-0.1,0
		c-0.3,0-0.6-0.1-0.9-0.1c-0.2,0-0.4,0-0.5,0.1c-0.1,0.1-0.3,0.2-0.5,0.4c-0.1,0-0.1,0-0.2,0c-0.1,0-0.2,0-0.3,0
		c-0.2-0.1-0.4-0.1-0.6-0.2c-0.2,0-0.4-0.1-0.5-0.2c-0.1-0.1-0.2-0.1-0.3-0.1c-0.2,0-0.5-0.1-0.7-0.2c-0.1-0.1-0.3-0.1-0.4-0.2
		c-0.1-0.1-0.2-0.1-0.4-0.1c-0.1,0-0.2,0-0.3,0c-0.1,0-0.2,0-0.2,0c-0.3,0-0.6-0.1-0.8-0.1c-0.3-0.1-0.6-0.1-0.9,0
		c-0.1,0-0.2,0-0.3,0c0,0-0.1,0-0.1,0c-0.1,0-0.2,0-0.3-0.1c-0.1,0-0.1-0.1-0.2-0.1c-0.1,0-0.2-0.1-0.3-0.2
		c-0.2-0.1-0.4-0.2-0.6-0.1c-0.1,0-0.2,0-0.3,0.1c-0.1,0-0.3,0-0.4,0c-0.2-0.1-0.4-0.1-0.5-0.1c-0.1,0-0.3,0-0.4-0.1
		c-0.1-0.1-0.2-0.2-0.4-0.2c-0.2,0-0.3-0.1-0.5-0.1c-0.2,0-0.3-0.1-0.5-0.1c0,0-0.1,0-0.1,0c-0.3,0.1-0.6,0.1-0.9-0.1
		c-0.1,0-0.2-0.1-0.3-0.1c-0.2-0.1-0.5-0.1-0.7-0.2c-0.1,0-0.1,0-0.1-0.1c0,0,0-0.1-0.1-0.1c-0.1-0.2-0.4-0.4-0.7-0.3
		c0,0-0.1,0-0.1,0c-0.2-0.2-0.5-0.3-0.7-0.6c-0.1-0.2-0.2-0.3-0.3-0.4c-0.1-0.1-0.2-0.2-0.2-0.4c0-0.1-0.1-0.2-0.2-0.2
		c-0.2-0.1-0.4-0.2-0.4-0.4c-0.1-0.1-0.2-0.3-0.3-0.4c-0.1-0.1-0.2-0.2-0.3-0.2c-0.2-0.1-0.4-0.2-0.6-0.2c-0.2,0-0.3-0.1-0.4-0.3
		c-0.1-0.1-0.2-0.3-0.2-0.4c-0.1-0.2-0.3-0.5-0.5-0.7c-0.2-0.2-0.4-0.3-0.6-0.4c-0.2-0.1-0.3-0.1-0.5-0.2c-0.2,0-0.3-0.2-0.4-0.3
		c0-0.1-0.1-0.1-0.2-0.2c-0.2-0.1-0.4-0.3-0.6-0.5c-0.2-0.2-0.4-0.4-0.5-0.5c-0.1-0.1-0.1-0.2-0.2-0.2c-0.2-0.2-0.3-0.4-0.4-0.6
		c0-0.1-0.1-0.1-0.1-0.2c0-0.1-0.1-0.1-0.1-0.2c-0.2-0.2-0.3-0.4-0.3-0.6c0,0,0-0.1-0.1-0.1c-0.2-0.4-0.4-0.7-0.5-1.1
		c-0.1-0.2-0.2-0.4-0.3-0.6c-0.1-0.2-0.2-0.5-0.2-0.8c0-0.1,0-0.1,0-0.2c0-0.1,0-0.1-0.1-0.2c-0.2-0.3-0.3-0.6-0.5-0.8
		c-0.2-0.2-0.3-0.5-0.3-0.7c-0.1-0.4-0.3-0.8-0.5-1.2c-0.1-0.1-0.2-0.3-0.2-0.4c-0.1-0.1-0.1-0.3-0.2-0.4c-0.1-0.2-0.2-0.4-0.3-0.5
		c-0.2-0.3-0.3-0.6-0.2-0.9c0-0.2,0.2-0.3,0.3-0.3c0.1,0,0.2-0.1,0.2-0.2c0-0.1,0-0.2,0.1-0.2c0.1-0.2,0.2-0.5,0.1-0.7
		c0-0.2-0.1-0.4-0.2-0.6c-0.1-0.2-0.2-0.4-0.2-0.6c0-0.3-0.1-0.7-0.3-1c-0.2-0.4-0.4-0.7-0.6-1.1c-0.1-0.2-0.2-0.5-0.2-0.7
		c0-0.1,0.1-0.3,0.2-0.3c0.2-0.1,0.3-0.2,0.3-0.4c0-0.2,0.1-0.3,0.2-0.5c0.2-0.5,0.3-1.1,0.4-1.6c-0.1-0.2,0.1-0.3,0.1-0.5
		c0-0.1,0-0.1,0-0.2c0-0.1,0-0.1,0-0.2c0.1-0.1,0.1-0.3,0.1-0.4C159,53.7,159,53.5,159,53.4z"/>
	<path class="st1" d="M90.3,49.8c0.2-0.2,0.4-0.5,0.5-0.7c0.1-0.3,0.2-0.6,0.2-0.9c0-0.1,0-0.1,0.1-0.2c0.1-0.1,0.2-0.2,0.2-0.4
		c0-0.3,0.1-0.6,0.1-0.9c0-0.1,0.1-0.3,0.2-0.4c0.1-0.2,0.2-0.4,0.2-0.6c0-0.1,0.1-0.3,0.2-0.3c0,0,0.1,0,0.1-0.1
		c0-0.1,0-0.1-0.1-0.1c-0.3,0-0.4-0.2-0.5-0.4c0,0,0-0.1,0-0.1c0.1-0.1,0.1-0.3,0.2-0.5c0.1-0.1,0.2-0.3,0.4-0.4
		c0.2-0.1,0.4-0.3,0.6-0.5c0,0,0.1-0.1,0.1-0.2c0-0.2,0.1-0.4,0.1-0.6c0,0,0-0.1,0-0.1c0-0.3,0.1-0.6,0.3-0.9c0-0.1,0-0.2,0-0.3
		c-0.1-0.2,0-0.4,0.1-0.6c0,0,0,0,0-0.1c0.2-0.3,0.2-0.3,0.5-0.1c0.1,0.1,0.2,0.2,0.4,0.3c0.1,0,0.1-0.1,0.1-0.1
		c0.1-0.1,0.2-0.2,0.3-0.2c0.1-0.1,0.1-0.2,0.2-0.3c0.1-0.1,0.3-0.1,0.4-0.3c0,0,0-0.1,0.1-0.1c0.4-0.2,0.7-0.6,0.9-0.9
		c0.1-0.1,0.2-0.2,0.3-0.3c0.3-0.2,0.6-0.5,0.9-0.8c0,0,0.1-0.1,0.1-0.1c0.1-0.1,0.1-0.1,0.2-0.2c0.1,0,0.1-0.1,0.2-0.1
		c0.2-0.2,0.4-0.3,0.6-0.4c0.1,0,0.1-0.1,0.1-0.2c0.1-0.2,0.1-0.3,0.1-0.5c0-0.1,0.1-0.2,0.2-0.2c0.1,0,0.2-0.1,0.2-0.2
		c0,0,0-0.1,0-0.1c0-0.2,0.3-0.4,0.5-0.4c0.1,0,0.2,0,0.3,0.1c0.2,0.1,0.4,0.1,0.6-0.1c0.1-0.1,0.3-0.2,0.4-0.1c0.1,0,0.2,0,0.3,0
		c0.1-0.1,0.3-0.2,0.4-0.2c0.2-0.1,0.3-0.1,0.5-0.2c0.1,0,0.2,0,0.2-0.1c0,0,0.1,0,0.1,0c0.1-0.2,0.4-0.2,0.5-0.3c0,0,0.1,0,0.1,0
		c0.2,0,0.4-0.1,0.6,0c0.1,0,0.1,0,0.2-0.1c0.2-0.1,0.3-0.2,0.5-0.3c0.2-0.1,0.4-0.3,0.6-0.4c0.2-0.1,0.5-0.2,0.8-0.2
		c0.2,0,0.3,0.1,0.4-0.1c0.3,0,0.5-0.2,0.8-0.2c0.1,0,0.1,0,0.2-0.1c0.1-0.1,0.1-0.1,0.2-0.2c0,0,0.1-0.1,0.2-0.1
		c0.3,0,0.5-0.1,0.7-0.3c0,0,0,0,0.1,0c0.1,0.1,0.3,0.1,0.5,0.1c0.1,0,0.3,0,0.4,0.1c0,0,0.2,0,0.2,0c0.1,0,0.3,0,0.4,0
		c0.2,0.1,0.5,0,0.7-0.1c0.1-0.1,0.3-0.1,0.4-0.1c0.1,0,0.2,0,0.2-0.1c0.1-0.1,0.2-0.1,0.4,0c0.2,0,0.3,0,0.5,0c0,0,0.1,0,0.1,0
		c0.2,0.1,0.5,0,0.7-0.1c0.2-0.1,0.3-0.1,0.5,0c0,0,0.1,0,0.1,0.1l0.6-0.4c0.1,0,0.2,0.1,0.3,0.1c0.1,0,0.2,0,0.3,0c0,0,0,0,0.1,0
		c0.2-0.2,0.5-0.1,0.7-0.3c0.1,0,0.1,0,0.2,0c0.1,0,0.1,0,0.2,0c0.2-0.1,0.4-0.1,0.5,0c0,0,0,0,0.1,0c0.2-0.1,0.4,0,0.6,0.1
		c0.1,0.1,0.2,0.1,0.2,0.1c0.2,0.2,0.5,0.3,0.7,0.2c0.1,0,0.2,0,0.2,0c0.2,0.1,0.4,0.2,0.6,0.3c0.2,0.1,0.3,0.1,0.4,0.3
		c0,0,0.1,0.1,0.1,0.1c0.4,0.1,0.9,0.3,1.3,0.5c0,0,0,0,0,0c0.1,0.1,0.3,0.2,0.4,0.3c0.2,0.1,0.3,0.2,0.5,0.3
		c0.2,0.1,0.4,0.2,0.6,0.3c0.1,0,0.2,0.1,0.3,0.2c0.1,0.2,0.3,0.3,0.5,0.3c0.1,0,0.1,0.1,0.2,0.2c0.2,0.2,0.4,0.4,0.7,0.5
		c0.1,0,0.1,0.1,0.2,0.1c0.1,0.1,0.2,0.2,0.3,0.3c0.3-0.2,0.6,0,0.9,0c0.2,0.1,0.4,0.2,0.5,0.3c0,0,0.1,0.1,0.1,0.1
		c0.2,0,0.2,0,0.3,0.2c0,0,0.1,0.1,0.1,0.1c0.2,0.1,0.4,0.2,0.5,0.4c0.1,0.2,0.3,0.4,0.5,0.5c0.2,0.1,0.5,0.3,0.8,0.3
		c0.2,0.1,0.5,0.1,0.7,0.2c0.2,0,0.3,0.1,0.5,0.3c0.1,0,0.1,0.1,0.2,0.1c0.1,0,0.2,0.1,0.3,0.1c0.1,0.3,0.4,0.4,0.7,0.4V39
		c0.2,0.2,0.4,0.4,0.7,0.5c0.3,0.2,0.5,0.6,0.3,0.9c0,0,0,0,0,0.1c0,0,0,0.1-0.1,0.1c0.1,0.1,0.1,0.1,0.1,0.2c0,0.1,0,0.2,0,0.2
		c0,0.1,0,0.1,0.1,0.2c0,0,0,0.1,0,0.1c-0.1,0.2,0,0.5,0.1,0.7c0.1,0.2,0.2,0.4,0.3,0.6c0,0.2,0.2,0.3,0.3,0.4
		c0.1,0,0.2,0.1,0.2,0.2c0.2,0.1,0.3,0.3,0.5,0.4c0.1,0,0.1,0.1,0.1,0.1c0.1,0.1,0.2,0.3,0.3,0.3c0.2,0.1,0.3,0.2,0.4,0.4
		c0,0,0,0.1,0.1,0.1c0.3,0,0.3,0.3,0.4,0.4c0.1,0.2,0.1,0.4,0.1,0.6c0,0.1,0,0.3,0,0.4c0,0.2,0,0.4-0.1,0.6c0,0.1,0,0.1,0,0.2
		c0.1,0.2,0,0.4,0,0.6c0,0,0,0.1,0,0.1c0.1,0.1,0.2,0.1,0.2,0.3c0,0,0,0,0,0c0.1,0.1,0.1,0.2,0.2,0.2c0,0.1,0,0.2,0,0.3
		c0,0.1,0.1,0.2,0.1,0.2c0.1,0.1,0.2,0.2,0.2,0.3c0,0,0.1,0.1,0.1,0.1c0,0.2,0.1,0.3,0.1,0.4c-0.2,0.2-0.1,0.5-0.1,0.8
		c0,0,0,0.1,0,0.1c0.1,0.1,0.1,0.1,0.1,0.2c0,0,0,0,0,0c0.2,0.1,0.1,0.3,0.2,0.5c0,0.1,0.1,0.1,0.1,0.2l-0.1,0.2
		c0.1,0.1,0.2,0.3,0.4,0.4c0.1,0.1,0.1,0.2,0.1,0.4l0.4,0.2c0,0,0,0.1-0.1,0.1c0,0.1,0,0.1,0,0.2c0,0.2,0.1,0.3,0.1,0.4
		s0,0.3,0.1,0.4c0.1,0.2,0.2,0.4,0.2,0.6c0,0.3,0,0.6,0,0.9c0,0,0,0.1,0,0.1c-0.1,0.1-0.1,0.2,0,0.4c0.1,0.1,0.1,0.3,0,0.5
		c0,0,0,0.1,0,0.1c0,0.1,0,0.2,0,0.3c-0.1,0.1-0.1,0.2,0,0.3c0,0.1,0,0.2,0,0.3c0,0.1,0,0.2,0,0.2c-0.1,0.2-0.1,0.4-0.2,0.6
		c-0.1,0.1,0,0.2,0,0.3c0,0.1,0,0.3,0,0.4c0,0.1,0,0.1,0,0.2c-0.1,0.1-0.1,0.3-0.1,0.5c0,0.2,0,0.3,0,0.5c0,0.3,0,0.7-0.2,1
		c0,0.1-0.1,0.2-0.2,0.3c-0.1,0.2-0.2,0.4-0.1,0.6c0,0.3,0,0.7-0.1,1c-0.1,0.2-0.1,0.4-0.2,0.6c-0.1,0.2-0.1,0.4,0,0.6
		c-0.2,0.2-0.3,0.4-0.2,0.7c0,0.2-0.1,0.4-0.2,0.5c-0.1,0.1-0.2,0.3-0.1,0.4c0,0.1,0,0.2,0,0.3c-0.1,0.2-0.1,0.3-0.1,0.5
		c0,0,0,0.1,0,0.1c-0.2,0.4-0.4,0.8-0.7,1.1c-0.1,0-0.1,0.1-0.2,0.1c-0.1,0-0.2,0.1-0.3,0.2c-0.2,0.2-0.4,0.4-0.6,0.6
		c-0.1,0.1-0.3,0.2-0.4,0.2c-0.2,0-0.3,0.2-0.4,0.4c0,0.1-0.1,0.3-0.1,0.4c-0.1,0.2-0.2,0.4-0.3,0.6c-0.1,0.1-0.2,0.3-0.3,0.5
		c0,0,0,0.1-0.1,0.1c-0.1,0.1-0.3,0.3-0.3,0.5c0,0.1-0.1,0.1-0.1,0.1c-0.2,0.2-0.4,0.3-0.6,0.5c0,0.1-0.1,0.2-0.1,0.3
		c0,0.1-0.1,0.3-0.3,0.3c-0.2,0-0.3,0.1-0.4,0.2c0,0-0.1,0-0.1,0.1c-0.1,0.1-0.2,0.1-0.3,0.2c-0.2,0.1-0.3,0.2-0.5,0.2
		c-0.3,0-0.4,0.1-0.4,0.4c0,0.2-0.1,0.4-0.3,0.5c-0.2,0.1-0.1,0.2-0.2,0.3S127,74,127,74.1c-0.1,0.2-0.3,0.4-0.5,0.5
		c-0.2,0.1-0.3,0.3-0.4,0.4c-0.1,0.2-0.3,0.3-0.5,0.4c-0.3,0.1-0.6,0.3-0.8,0.5c-0.2,0.1-0.4,0.2-0.6,0.3c-0.1,0.1-0.2,0.1-0.3,0
		c-0.1,0-0.3,0-0.4,0.1c-0.2,0.2-0.5,0.4-0.8,0.5c-0.1,0.1-0.2,0.1-0.3,0.1c-0.3,0-0.5,0-0.8,0c-0.3,0-0.6,0.1-0.9,0.3
		c-0.2,0.2-0.5,0.3-0.7,0.5c-0.1,0.1-0.2,0.1-0.4,0.1s-0.1,0.2-0.2,0.2c-0.2,0.1-0.3,0.1-0.5,0.2c-0.1,0-0.1,0-0.2,0
		c-0.3,0.1-0.6,0.1-0.9,0.1c-0.2,0-0.4,0-0.6,0.1c-0.1,0-0.1,0.1-0.2,0.1c-0.1,0-0.3,0-0.4,0c0,0-0.1,0-0.1,0
		c-0.3,0-0.6-0.1-0.9-0.1c-0.2,0-0.4,0-0.5,0.1c-0.2,0.1-0.3,0.2-0.5,0.4c-0.1,0-0.1,0-0.2,0c-0.1,0-0.2,0-0.3,0
		c-0.2-0.1-0.4-0.1-0.6-0.2c-0.2,0-0.4-0.1-0.5-0.2c-0.1-0.1-0.2-0.1-0.3-0.1c-0.2,0-0.5-0.1-0.7-0.2c-0.1-0.1-0.3-0.1-0.4-0.2
		c-0.1-0.1-0.2-0.1-0.4-0.1c-0.1,0-0.2,0-0.3,0c-0.1,0-0.2,0-0.2,0c-0.3,0-0.6-0.1-0.8-0.1c-0.3-0.1-0.6-0.1-0.9,0
		c-0.1,0-0.2,0-0.3,0c0,0-0.1,0-0.1,0c-0.1,0-0.2,0-0.3-0.1c-0.1,0-0.1-0.1-0.2-0.1c-0.1,0-0.2-0.1-0.3-0.2
		c-0.2-0.1-0.4-0.2-0.6-0.1c-0.1,0-0.2,0-0.3,0.1c-0.1,0-0.3,0-0.4,0c-0.2-0.1-0.4-0.1-0.5-0.1c-0.1,0-0.3,0-0.4-0.1
		c-0.1-0.1-0.2-0.2-0.4-0.2c-0.2,0-0.3-0.1-0.5-0.1c-0.2,0-0.3-0.1-0.5-0.1c0,0-0.1,0-0.1,0c-0.3,0.1-0.6,0.1-0.9-0.1
		c-0.1,0-0.2-0.1-0.3-0.1c-0.2-0.1-0.5-0.1-0.7-0.2c-0.1,0-0.1,0-0.1-0.1c0,0,0-0.1-0.1-0.1c-0.1-0.2-0.4-0.4-0.7-0.3
		c0,0-0.1,0-0.1,0c-0.2-0.2-0.5-0.3-0.7-0.6c-0.1-0.2-0.2-0.3-0.3-0.4c-0.1-0.1-0.2-0.2-0.2-0.4c0-0.1-0.1-0.2-0.2-0.2
		c-0.2-0.1-0.4-0.2-0.4-0.4c-0.1-0.1-0.2-0.3-0.3-0.4c-0.1-0.1-0.2-0.2-0.3-0.2c-0.2-0.1-0.4-0.2-0.6-0.2c-0.2,0-0.3-0.1-0.4-0.3
		c-0.1-0.1-0.2-0.3-0.2-0.4c-0.1-0.2-0.3-0.5-0.5-0.7c-0.2-0.2-0.4-0.3-0.6-0.4c-0.2-0.1-0.3-0.1-0.5-0.2c-0.2,0-0.3-0.2-0.4-0.3
		c0-0.1-0.1-0.1-0.2-0.2c-0.2-0.1-0.4-0.3-0.6-0.5c-0.2-0.2-0.4-0.4-0.5-0.5c-0.1-0.1-0.1-0.2-0.2-0.2c-0.2-0.2-0.3-0.4-0.4-0.6
		c0-0.1-0.1-0.1-0.1-0.2c0-0.1-0.1-0.1-0.1-0.2c-0.2-0.2-0.3-0.4-0.3-0.6c0,0,0-0.1-0.1-0.1c-0.2-0.4-0.4-0.7-0.5-1.1
		c-0.1-0.2-0.2-0.4-0.3-0.6c-0.1-0.2-0.2-0.5-0.2-0.8c0-0.1,0-0.1,0-0.2c0-0.1,0-0.1-0.1-0.2c-0.2-0.3-0.3-0.6-0.5-0.8
		c-0.2-0.2-0.3-0.5-0.3-0.7c-0.1-0.4-0.3-0.8-0.5-1.2c-0.1-0.1-0.2-0.3-0.2-0.4c-0.1-0.1-0.1-0.3-0.2-0.4c-0.1-0.2-0.2-0.4-0.3-0.5
		c-0.2-0.3-0.3-0.6-0.2-0.9c0-0.2,0.2-0.3,0.3-0.3c0.1,0,0.2-0.1,0.2-0.2c0-0.1,0-0.2,0.1-0.2c0.1-0.2,0.2-0.5,0.1-0.7
		c0-0.2-0.1-0.4-0.2-0.6c-0.1-0.2-0.2-0.4-0.2-0.6c0-0.3-0.1-0.7-0.3-1c-0.2-0.4-0.4-0.7-0.6-1.1c-0.1-0.2-0.2-0.5-0.2-0.7
		c0-0.1,0.1-0.3,0.2-0.3c0.2-0.1,0.3-0.2,0.3-0.4c0-0.2,0.1-0.3,0.2-0.5c0.2-0.5,0.3-1.1,0.4-1.6C89.9,51.3,90,51.2,90,51
		c0-0.1,0-0.1,0-0.2c0-0.1,0-0.1,0-0.2c0.1-0.1,0.1-0.3,0.1-0.4C90.2,50.1,90.3,49.9,90.3,49.8z"/>
	<path class="st2" d="M121.5,41.2L119,64.4l-3.8,0.1l0.6-6.5c-2,0-4,0.1-6,0.2l-3.6,6.6l-3.2-1.3l2.8-5.2c-1.2,0.1-2.5,0.1-3.6,0.1
		l0.9-3.7l4.7-0.2l6.2-11.5l2.9,1.3l0.3-3L121.5,41.2z M116.1,54.4l0.8-9l-5,9.2C113.3,54.4,114.7,54.4,116.1,54.4L116.1,54.4z"/>
	<path class="st2" d="M184.7,58.1c1.3,1,2.1,2.5,2.1,4.2c0,0.3,0,0.6-0.1,1c-0.4,2.5-2.3,5.6-7.5,8l-1.9-2.6
		c3.7-2.4,4.9-4.3,4.9-6.4c-0.1-1.7-0.8-3.2-2-4.4c3-1.9,4.6-3.9,4.6-5.9c0-1.6-1.1-3.2-3.4-4.7c-1.9,6.1-3.7,11.8-5.3,17.6
		l-3.8-0.9c1.6-5.8,3.3-11.5,4.9-17h3.7c-1.4-0.8-2.9-1.5-4.4-2l2.9-2.7c5.8,1.9,10,5.5,10,9.3C189.4,53.8,188,56.1,184.7,58.1z"/>
</g>
</svg>
