<svg xmlns="http://www.w3.org/2000/svg" viewBox="0 0 296 296"><defs><style>.cls-1{fill:#f36;}.cls-2{fill:#1858a8;}.cls-3{fill:#ffeded;}</style></defs><title>manuale_ill_nuove</title><g id="solo_testo" data-name="solo testo"><path class="cls-1" d="M292.1,55.073c.072-.829-.029-1.663-.012-2.493-.144-1.449-.262-2.9-.434-4.348-.353-2.976-1.013-5.919-1.617-8.859-.943-4.588-.792-7.186,1.383-12.373a8.233,8.233,0,0,0,.627-3.959c-.01-.151-.037-.325-.054-.485-2.26.469-4.522.927-6.806,1.2-5.148.611-10.322,1-15.483,1.491-1.4.134-2.736.145-3.79-1.032-1.187-1.326-2.728-1.178-4.252-.875a19.943,19.943,0,0,0-2.171.69,10.778,10.778,0,0,1-7.165.082c-3.075-1.1-6.348-.168-9.475-.82a4.939,4.939,0,0,1-4.789-.081,1.772,1.772,0,0,0-1.306.149c-1.772.788-3.544.348-5.37.29-4.123-.131-8.341-1.938-12.393.412-.218.126-.594-.027-.9-.044-4.552-.246-9.07.643-13.664.112-3.592-.415-7.275-.029-10.917-.047a8.036,8.036,0,0,1-2.248-.359,14.169,14.169,0,0,0-9.852.387l-2.735-1.91a24.561,24.561,0,0,1-4.79.733c-4.238-.228-8.461-.708-12.693-1.058a6.611,6.611,0,0,0-4.788,1.068,3.632,3.632,0,0,1-2.063.738c-2.423-.038-4.842-.277-7.266-.367a7.268,7.268,0,0,0-3.138.22,7.64,7.64,0,0,1-4.933.122,25.046,25.046,0,0,0-7.728-.1c-2.274.245-4.553.466-6.835.612a6.687,6.687,0,0,1-3.133-.187c-1.523-.735-2.83-.424-4.364-.169-2.681.445-5.438.438-8.162.62-2.375-1.626-4.984-.934-7.55-.8a7.928,7.928,0,0,1-3.162-.177c-3.7-1.433-7.389-1.169-11.13-.314a22.3,22.3,0,0,1-5.95.089,2.258,2.258,0,0,1,.183,1.329c-.827,5.216.524,10.318.8,15.473a21.918,21.918,0,0,1-.3,5.9,39.641,39.641,0,0,0-.942,9.995,1.063,1.063,0,0,1,.353.115,16.98,16.98,0,0,1,5.357,1.1,8.963,8.963,0,0,0,3.568.2c2.894-.155,5.838-.936,8.517.9,3.073-.206,6.183-.2,9.207-.7,1.731-.288,3.206-.638,4.923.191a7.539,7.539,0,0,0,3.535.211c2.574-.165,5.145-.414,7.71-.691a28.308,28.308,0,0,1,8.719.117c1.793.359,3.655.738,5.564-.138a8.206,8.206,0,0,1,3.54-.248c2.734.1,5.463.371,8.2.414a4.094,4.094,0,0,0,2.327-.833,7.461,7.461,0,0,1,5.4-1.2c4.774.394,9.539.936,14.32,1.193,1.648.089,3.333-.488,5.4-.827l3.085,2.155a15.977,15.977,0,0,1,11.115-.436,9.072,9.072,0,0,0,2.535.4c4.108.021,8.263-.415,12.316.053,5.182.6,10.279-.4,15.414-.126.342.019.766.192,1.011.05,4.571-2.651,9.329-.613,13.981-.465,2.059.065,4.059.562,6.058-.327a1.994,1.994,0,0,1,1.473-.168,5.573,5.573,0,0,0,5.4.091c3.527.736,7.22-.315,10.689.925a12.155,12.155,0,0,0,8.083-.093A22.651,22.651,0,0,1,271,57.006c1.719-.342,3.458-.509,4.8.987,1.189,1.328,2.693,1.316,4.275,1.164,3.736-.358,7.476-.688,11.212-1.044a1,1,0,0,1,.251-.193A27.522,27.522,0,0,0,292.1,55.073Z"/><path class="cls-2" d="M291.974,81.238a45.431,45.431,0,0,1-.054-4.812c.017-.3.17-.679.044-.9-2.349-4.053-.543-8.271-.412-12.394.054-1.709.406-3.371-.191-5.031-3.762.36-7.528.691-11.29,1.052-1.582.152-3.086.164-4.275-1.164-1.339-1.5-3.078-1.329-4.8-.987a22.651,22.651,0,0,0-2.449.778,12.155,12.155,0,0,1-8.083.093c-3.469-1.24-7.162-.189-10.689-.925a5.573,5.573,0,0,1-5.4-.091,1.994,1.994,0,0,0-1.473.168c-2,.889-4,.392-6.058.327-4.652-.148-9.41-2.186-13.981.465-.245.142-.669-.031-1.011-.05-5.135-.277-10.232.725-15.414.126-4.053-.468-8.208-.032-12.316-.053a9.072,9.072,0,0,1-2.535-.4,15.977,15.977,0,0,0-11.115.436l-3.085-2.155c-2.07.339-3.755.916-5.4.827-4.781-.257-9.546-.8-14.32-1.193a7.461,7.461,0,0,0-5.4,1.2,4.094,4.094,0,0,1-2.327.833c-2.734-.043-5.463-.313-8.2-.414a8.206,8.206,0,0,0-3.54.248c-1.909.876-3.771.5-5.564.138a28.308,28.308,0,0,0-8.719-.117c-2.565.277-5.136.526-7.71.691a7.539,7.539,0,0,1-3.535-.211c-1.717-.829-3.192-.479-4.923-.191-3.024.5-6.134.494-9.207.7-2.679-1.835-5.623-1.054-8.517-.9a8.963,8.963,0,0,1-3.568-.2,17.012,17.012,0,0,0-5.494-1.111,43.7,43.7,0,0,1,1.509,8.9,13.466,13.466,0,0,0,.393,3.168c1.027,2.792,1.789,5.521-.007,8.285a59.217,59.217,0,0,1-.6,7.85c-.1.9-.176,1.8-.221,2.7a5.654,5.654,0,0,1-.771,1.312c-1.59,2.055-1.007,4.51-.326,6.6.009.027.014.055.022.082.548.023,1.1.077,1.643.148a32.645,32.645,0,0,1-.318,9.5,7.983,7.983,0,0,0,.366,3.088,9.036,9.036,0,0,1,.033,4.964,9.7,9.7,0,0,0,.379,6.673c.257.711.485,1.433.787,2.331a8.825,8.825,0,0,0-1.867,7.164,6.174,6.174,0,0,1-.158,1.809,37.772,37.772,0,0,0-.217,8.42c.06,0,.121,0,.178,0,3.488.007,6.964-.855,10.462-.148,3.566-1.144,7.212-.419,10.8-.31a18.1,18.1,0,0,0,6.737-.674,21,21,0,0,1,8.1-.795c3.4.165,6.944,1.217,10.191-.868a2.477,2.477,0,0,1,1.324-.216c1.972.046,4.151-.368,5.858.34,1.978.821,3.958.043,5.709.68,3.98,1.448,8.021.811,11.717-.179,3.866-1.036,7.48-.705,11.233-.316a6.17,6.17,0,0,0,1.809.159,8.819,8.819,0,0,1,7.164,1.867c.9-.3,1.62-.53,2.331-.788a9.7,9.7,0,0,1,6.672-.378,9.045,9.045,0,0,0,4.964-.033,7.966,7.966,0,0,1,3.088-.366c4.574.933,9.115.431,13.646-.141,4.905-.619,9.683.84,14.549.711,2.764,1.795,5.492,1.033,8.284.007a13.475,13.475,0,0,1,3.169-.393,43.209,43.209,0,0,0,8.979-1.531c2.09-.681,4.545-1.264,6.6.326a4.914,4.914,0,0,0,5.559.469,8.219,8.219,0,0,1,2.215-.51c6.053-.9,12.139-.28,18.209-.374,1.364-.021,2.748.194,4.093.039a37.465,37.465,0,0,1,12.238.8,16.2,16.2,0,0,0,2.622.326,7.953,7.953,0,0,1-.34-3.393c.35-4.232.83-8.456,1.059-12.693a24.567,24.567,0,0,0-.734-4.791l1.91-2.734a14.163,14.163,0,0,1-.386-9.852,8.078,8.078,0,0,0,.358-2.249c.019-3.642-.367-7.324.047-10.916A52.627,52.627,0,0,0,291.974,81.238Z"/><path class="cls-3" d="M195.03,94.923c0,3.464-2.059,6.366-7.4,6.366-5.024,0-8.02-2.684-8.02-9.955,0-6.522,2.465-11.92,9.8-11.92a17.5,17.5,0,0,1,5.3.78l-.779,2.5a14.574,14.574,0,0,0-4.775-.748c-4.587,0-6.085,2.745-6.521,6.178l4.929.593C192.441,89.275,195.03,91.054,195.03,94.923Zm-2.871.25c0-2.435-1.4-3.5-5.273-3.963l-4.4-.531v.5c0,5.8,1.685,7.582,5.4,7.582C190.974,98.761,192.159,97.388,192.159,95.173Z"/><path class="cls-1" d="M294.184,186.113c.072-.829-.029-1.663-.012-2.493-.144-1.449-.262-2.9-.434-4.348-.353-2.976-1.013-5.919-1.617-8.859-.943-4.588-.792-7.186,1.383-12.373a8.233,8.233,0,0,0,.627-3.959c-.01-.151-.037-.325-.054-.485-2.26.469-4.522.927-6.806,1.2-5.148.611-10.322,1-15.483,1.491-1.4.134-2.736.145-3.79-1.032-1.187-1.326-2.728-1.178-4.252-.875a19.943,19.943,0,0,0-2.171.69,10.778,10.778,0,0,1-7.165.082c-3.075-1.1-6.348-.168-9.475-.82a4.939,4.939,0,0,1-4.789-.081,1.772,1.772,0,0,0-1.306.149c-1.772.788-3.544.348-5.37.29-4.123-.131-8.341-1.938-12.393.412-.218.126-.594-.027-.9-.044-4.552-.246-9.07.643-13.664.112-3.592-.415-7.275-.029-10.917-.047a8.036,8.036,0,0,1-2.248-.359,14.169,14.169,0,0,0-9.852.387l-2.735-1.91a24.561,24.561,0,0,1-4.79.733c-4.238-.228-8.461-.708-12.693-1.058a6.611,6.611,0,0,0-4.788,1.068,3.632,3.632,0,0,1-2.063.738c-2.423-.038-4.842-.277-7.266-.367a7.268,7.268,0,0,0-3.138.22,7.64,7.64,0,0,1-4.933.122,25.046,25.046,0,0,0-7.728-.1c-2.274.245-4.553.466-6.835.612a6.687,6.687,0,0,1-3.133-.187c-1.523-.735-2.83-.424-4.364-.169-2.681.445-5.438.438-8.162.62-2.375-1.626-4.984-.934-7.55-.8a7.928,7.928,0,0,1-3.162-.177c-3.7-1.433-7.389-1.169-11.13-.314a22.3,22.3,0,0,1-5.95.089,2.258,2.258,0,0,1,.183,1.329c-.827,5.216.524,10.318.8,15.473a21.918,21.918,0,0,1-.3,5.9,39.641,39.641,0,0,0-.942,10,1.063,1.063,0,0,1,.353.115,16.98,16.98,0,0,1,5.357,1.1,8.963,8.963,0,0,0,3.568.2c2.894-.155,5.838-.936,8.517.9,3.073-.206,6.183-.2,9.207-.7,1.731-.288,3.206-.638,4.923.191a7.539,7.539,0,0,0,3.535.211c2.574-.165,5.145-.414,7.71-.691a28.308,28.308,0,0,1,8.719.117c1.793.359,3.655.738,5.564-.138a8.206,8.206,0,0,1,3.54-.248c2.734.1,5.463.371,8.2.414a4.094,4.094,0,0,0,2.327-.833,7.461,7.461,0,0,1,5.4-1.2c4.774.394,9.539.936,14.32,1.193,1.648.089,3.333-.488,5.4-.827l3.085,2.155a15.977,15.977,0,0,1,11.115-.436,9.072,9.072,0,0,0,2.535.4c4.108.021,8.263-.415,12.316.053,5.182.6,10.279-.4,15.414-.126.342.019.766.192,1.011.05,4.571-2.651,9.329-.613,13.981-.465,2.059.065,4.059.562,6.058-.327a1.994,1.994,0,0,1,1.473-.168,5.573,5.573,0,0,0,5.4.091c3.527.736,7.22-.315,10.689.925a12.155,12.155,0,0,0,8.083-.093,22.651,22.651,0,0,1,2.449-.778c1.719-.342,3.458-.509,4.8.987,1.189,1.328,2.693,1.316,4.275,1.164,3.736-.358,7.476-.688,11.212-1.044a1,1,0,0,1,.251-.193A27.522,27.522,0,0,0,294.184,186.113Z"/><path class="cls-2" d="M294.054,212.278a45.431,45.431,0,0,1-.054-4.812c.017-.3.17-.679.044-.9-2.349-4.053-.543-8.271-.412-12.394.054-1.709.406-3.371-.191-5.031-3.762.36-7.528.691-11.29,1.052-1.582.152-3.086.164-4.275-1.164-1.339-1.5-3.078-1.329-4.8-.987a22.651,22.651,0,0,0-2.449.778,12.155,12.155,0,0,1-8.083.093c-3.469-1.24-7.162-.189-10.689-.925a5.573,5.573,0,0,1-5.4-.091,1.994,1.994,0,0,0-1.473.168c-2,.889-4,.392-6.058.327-4.652-.148-9.41-2.186-13.981.465-.245.142-.669-.031-1.011-.05-5.135-.277-10.232.725-15.414.126-4.053-.468-8.208-.032-12.316-.053a9.072,9.072,0,0,1-2.535-.4,15.977,15.977,0,0,0-11.115.436l-3.085-2.155c-2.07.339-3.755.916-5.4.827-4.781-.257-9.546-.8-14.32-1.193a7.461,7.461,0,0,0-5.4,1.2,4.094,4.094,0,0,1-2.327.833c-2.734-.043-5.463-.313-8.2-.414a8.206,8.206,0,0,0-3.54.248c-1.909.876-3.771.5-5.564.138a28.308,28.308,0,0,0-8.719-.117c-2.565.277-5.136.526-7.71.691a7.539,7.539,0,0,1-3.535-.211c-1.717-.829-3.192-.479-4.923-.191-3.024.5-6.134.494-9.207.7-2.679-1.835-5.623-1.054-8.517-.9a8.963,8.963,0,0,1-3.568-.2,17.012,17.012,0,0,0-5.494-1.111,43.7,43.7,0,0,1,1.509,8.9,13.466,13.466,0,0,0,.393,3.168c1.027,2.792,1.789,5.521-.007,8.285a59.217,59.217,0,0,1-.6,7.85c-.1.9-.176,1.8-.221,2.7a5.654,5.654,0,0,1-.771,1.312c-1.59,2.055-1.007,4.51-.326,6.6.009.027.014.055.022.082.548.023,1.095.077,1.643.148a32.645,32.645,0,0,1-.318,9.5,7.983,7.983,0,0,0,.366,3.088,9.036,9.036,0,0,1,.033,4.964,9.7,9.7,0,0,0,.379,6.673c.257.711.485,1.433.787,2.331a8.825,8.825,0,0,0-1.867,7.164,6.174,6.174,0,0,1-.158,1.809,37.772,37.772,0,0,0-.217,8.42c.06,0,.121,0,.178,0,3.488.007,6.964-.855,10.462-.148,3.566-1.144,7.212-.419,10.8-.31a18.1,18.1,0,0,0,6.737-.674,21,21,0,0,1,8.1-.8c3.4.165,6.944,1.217,10.191-.868a2.477,2.477,0,0,1,1.324-.216c1.972.046,4.151-.368,5.858.34,1.978.821,3.958.043,5.709.68,3.98,1.448,8.021.811,11.717-.179,3.866-1.036,7.48-.7,11.233-.316a6.17,6.17,0,0,0,1.809.159,8.819,8.819,0,0,1,7.164,1.867c.9-.3,1.62-.53,2.331-.788a9.7,9.7,0,0,1,6.672-.378,9.045,9.045,0,0,0,4.964-.033,7.966,7.966,0,0,1,3.088-.366c4.574.933,9.115.431,13.646-.141,4.905-.619,9.683.84,14.549.711,2.764,1.8,5.492,1.033,8.284.007a13.475,13.475,0,0,1,3.169-.393,43.209,43.209,0,0,0,8.979-1.531c2.09-.681,4.545-1.264,6.6.326a4.914,4.914,0,0,0,5.559.469,8.219,8.219,0,0,1,2.215-.51c6.053-.9,12.139-.28,18.209-.374,1.364-.021,2.748.194,4.093.039a37.465,37.465,0,0,1,12.238.8,16.2,16.2,0,0,0,2.622.326,7.953,7.953,0,0,1-.34-3.393c.35-4.232.83-8.456,1.059-12.693a24.567,24.567,0,0,0-.734-4.791l1.91-2.734a14.163,14.163,0,0,1-.386-9.852,8.078,8.078,0,0,0,.358-2.249c.019-3.642-.367-7.324.047-10.916A52.627,52.627,0,0,0,294.054,212.278Z"/><path class="cls-3" d="M196.734,223.319c0,6.21-1.84,11.609-8.861,11.609a18.826,18.826,0,0,1-5.929-.781l.781-2.621a14.268,14.268,0,0,0,5.4.873c4.244,0,5.367-2.652,5.649-5.866l-4.994-.593c-5.054-.592-7.457-2.34-7.457-6.21,0-3.806,2.5-6.677,7.4-6.677C193.958,213.053,196.734,216.548,196.734,223.319Zm-2.87.655v-.5c0-5.3-1.466-7.894-5.4-7.894-3.12,0-4.275,1.81-4.275,3.9,0,2.434,1.216,3.464,5.273,3.963Z"/><path class="cls-3" d="M177.787,35.2A120.545,120.545,0,0,0,173,49.865l-3.561-.777a95.328,95.328,0,0,1,4.459-14.9Zm.868-2.6-3.59-1.047A42.124,42.124,0,0,1,178,24.521l3.59,1.107A71.012,71.012,0,0,0,178.655,32.6Z"/><path class="cls-3" d="M194.692,36.49a49.275,49.275,0,0,0-4.847,14.243l-3.711-.628a66.744,66.744,0,0,1,3.172-10.982,83.476,83.476,0,0,0-7.092,6.135c-.329,1.435-.808,2.842-1.256,4.368l-3.591-.9c1.107-3.95,2.513-8.109,3.89-14.212l3.83.777a45.569,45.569,0,0,1-1.646,5.865,81.589,81.589,0,0,1,7.81-6.613Z"/><path class="cls-3" d="M206.627,37.058c-1.167.09-2.334.15-3.5.15a119.739,119.739,0,0,0-3.92,12.628l-3.471-.748c.6-2.514,1.556-6.763,3.232-11.97-1.227-.089-2.274-.179-2.933-.269l.449-2.3c.958.06,2.095.12,3.292.15.718-2.065,1.556-4.249,2.484-6.523L206.3,29.4c-.808,1.8-1.525,3.561-2.214,5.326.957-.059,1.944-.119,3.142-.239Z"/><path class="cls-3" d="M179.866,166.244a120.72,120.72,0,0,0-4.787,14.662l-3.561-.777a95.328,95.328,0,0,1,4.459-14.9Zm.868-2.6-3.59-1.047a42.225,42.225,0,0,1,2.931-7.032l3.591,1.107A71.49,71.49,0,0,0,180.734,163.641Z"/><path class="cls-3" d="M196.772,167.531a49.246,49.246,0,0,0-4.848,14.243l-3.711-.628a66.842,66.842,0,0,1,3.172-10.982,83.476,83.476,0,0,0-7.092,6.135c-.329,1.435-.808,2.842-1.256,4.368l-3.591-.9c1.107-3.95,2.513-8.109,3.89-14.212l3.83.777a45.723,45.723,0,0,1-1.645,5.865,81.445,81.445,0,0,1,7.809-6.613Z"/><path class="cls-3" d="M208.706,168.1c-1.167.09-2.334.15-3.5.15a119.974,119.974,0,0,0-3.92,12.628l-3.47-.748c.6-2.514,1.555-6.763,3.231-11.97-1.227-.089-2.273-.179-2.933-.268l.45-2.3c.958.06,2.094.12,3.292.15.717-2.065,1.555-4.249,2.483-6.523l4.039,1.226c-.808,1.8-1.526,3.561-2.214,5.327.957-.06,1.945-.12,3.142-.24Z"/><path class="cls-1" d="M75.648,94.727a1.166,1.166,0,0,0-.314-.316c-.02-.01-.032-.035-.048-.053-.049-.053-.1-.108-.147-.159s-.1-.085-.146-.135a3.643,3.643,0,0,0-.366-.369.376.376,0,0,1-.078-.076,1.33,1.33,0,0,0-.263-.272c-.04-.037-.078-.076-.115-.116-.057-.061-.11-.128-.172-.184-.224-.2-.451-.4-.678-.6a.918.918,0,0,1-.187-.22.953.953,0,0,0-.125-.152.986.986,0,0,1-.1-.1,1.527,1.527,0,0,0-.277-.285.583.583,0,0,1-.105-.1.45.45,0,0,0-.21-.192c-.025-.01-.043-.04-.064-.062l-.109-.116a.124.124,0,0,1,.026-.025c-.012,0-.024,0-.037,0l-.014,0-.039-.041c-.034-.034-.075-.062-.107-.1-.072-.08-.145-.161-.209-.247a.394.394,0,0,0-.141-.137.15.15,0,0,1-.056-.044,1.078,1.078,0,0,0-.33-.277c-.081-.048-.177-.106-.2-.2a.678.678,0,0,0-.318-.378.717.717,0,0,1-.144-.131,1.421,1.421,0,0,0-.233-.25,1.349,1.349,0,0,1-.218-.236.416.416,0,0,0-.122-.1.382.382,0,0,1-.145-.131.54.54,0,0,0-.084-.095.36.36,0,0,1-.145-.2.061.061,0,0,0-.032-.041c-.112-.03-.149-.157-.254-.195a1.152,1.152,0,0,0-.3-.274.028.028,0,0,1-.011-.015.588.588,0,0,0-.186-.195c-.1-.076-.146-.21-.27-.262-.012-.006-.018-.031-.023-.048a.294.294,0,0,0-.169-.179.362.362,0,0,1-.155-.145.349.349,0,0,0-.1-.124,1.358,1.358,0,0,1-.341-.318c-.054-.062-.068-.143-.122-.2s-.132-.084-.189-.136c-.078-.071-.126-.178-.249-.194-.018,0-.033-.032-.049-.05a1.248,1.248,0,0,0-.086-.092,2.345,2.345,0,0,1-.211-.223c-.092-.111-.186-.22-.27-.338a.213.213,0,0,0-.066-.061,1.574,1.574,0,0,1-.334-.323.515.515,0,0,0-.132-.118.84.84,0,0,1-.118-.083,1.706,1.706,0,0,1-.3-.312,1.058,1.058,0,0,1-.1-.105.5.5,0,0,1-.034-.131c-.137-.018-.138-.017-.173-.057l-.26-.3a.164.164,0,0,0-.053-.049c-.1-.046-.16-.144-.238-.218-.06-.057-.1-.139-.182-.169-.015,0-.024-.026-.035-.04-.078-.092-.154-.185-.233-.275a.189.189,0,0,0-.07-.056.3.3,0,0,1-.133-.117.3.3,0,0,0-.107-.095.261.261,0,0,1-.123-.127.514.514,0,0,0-.2-.21,1.219,1.219,0,0,1-.292-.29.469.469,0,0,0-.133-.118,1.441,1.441,0,0,1-.384-.328,2.793,2.793,0,0,0-.252-.258c-.058-.053-.116-.106-.17-.162s-.111-.128-.172-.185q-.172-.16-.353-.312a1.372,1.372,0,0,1-.3-.333.506.506,0,0,0-.065-.087c-.166-.166-.338-.326-.5-.5a5.6,5.6,0,0,0-.421-.423.436.436,0,0,1-.043-.058,3.233,3.233,0,0,0-.262-.3c-.169-.153-.326-.32-.509-.458a.984.984,0,0,1-.134-.146,1.392,1.392,0,0,0-.189-.215.62.62,0,0,1-.123-.128.4.4,0,0,0-.168-.157.3.3,0,0,1-.093-.084,1.726,1.726,0,0,0-.116-.138A.271.271,0,0,0,58.9,78c-.073-.007-.09-.084-.148-.093-.095-.015-.173-.079-.276-.077a.323.323,0,0,1-.21-.095,1.078,1.078,0,0,0-.1-.082.168.168,0,0,0-.08-.037c-.063,0-.128,0-.219,0a.224.224,0,0,1-.052.256c-.053.071-.131.124-.162.214-.007.022-.046.035-.072.048s-.065.015-.08.036c-.077.1-.2.159-.26.274a.2.2,0,0,1-.1.094.237.237,0,0,0-.132.109.491.491,0,0,1-.275.246.18.18,0,0,0-.1.116.348.348,0,0,1-.2.237.286.286,0,0,0-.084.067,2.11,2.11,0,0,0-.316.394.243.243,0,0,1-.074.076c-.043.033-.092.059-.134.093a1.3,1.3,0,0,0-.212.193,1.645,1.645,0,0,1-.32.341.516.516,0,0,0-.131.148,1.276,1.276,0,0,1-.344.391.422.422,0,0,0-.093.108c-.023.034-.035.077-.056.113s-.053.074-.073.1a1.242,1.242,0,0,0,.412.413c.131.1.3.166.383.321.032.057.068.113.1.172a.392.392,0,0,0,.23.218.345.345,0,0,1,.122.073c.065.062.126.129.185.2a.46.46,0,0,1,.079.118.444.444,0,0,0,.164.21.477.477,0,0,1,.154.172.3.3,0,0,0,.149.151.246.246,0,0,1,.127.123c.026.047.061.09.087.137a.329.329,0,0,0,.251.185.234.234,0,0,1,.214.232.192.192,0,0,0,.02.051.781.781,0,0,0,.29.095.267.267,0,0,1,.23.122c.022.038.075.058.114.085a1.732,1.732,0,0,1,.2.129c.1.087.19.185.286.276a.433.433,0,0,1,.15.2c.009.037.049.066.077.1a.621.621,0,0,1,.158.257.208.208,0,0,0,.13.163.223.223,0,0,1,.172.166.083.083,0,0,0,.033.042c.159.128.291.284.449.424l-.061.147a1.662,1.662,0,0,0,.149.186c.1.1.215.194.325.289,0,0,.019,0,.026,0l.011-.06c.064.006.091.039.088.086a.256.256,0,0,0,.062.164.56.56,0,0,0,.223.206c.044.022.09.045.1.095a.948.948,0,0,0,.2.32,1.877,1.877,0,0,0,.263.248c.02.018.055.02.082.032.1.041.2.082.3.127.025.012.05.036.009.077-.05-.026-.1-.054-.157-.079a.743.743,0,0,0-.132-.053c-.024-.006-.053.01-.1.021.088.141.144.282.313.324.061.015.091.066.114.129a.316.316,0,0,0,.215.222.242.242,0,0,1,.14.109.779.779,0,0,0,.294.261.324.324,0,0,1,.181.192.1.1,0,0,0,.039.058,2.038,2.038,0,0,1,.35.285.22.22,0,0,0,.146.065c.1-.009.168.062.259.069a.1.1,0,0,1,.067.055.348.348,0,0,0,.193.155c.049.024.1.042.151.062.082.032.129.086.109.16.066.075.119.139.178.2a.6.6,0,0,0,.136.116.619.619,0,0,1,.194.158.128.128,0,0,0,.07.049.12.12,0,0,1,.117.115.082.082,0,0,0,.041.056c.055.022.079.072.113.113a1.811,1.811,0,0,0,.342.324,1.7,1.7,0,0,1-.257,0,1.174,1.174,0,0,0-.446,0,.193.193,0,0,1-.071,0c-.072,0-.144-.008-.216-.008s-.134.013-.2.008a3.472,3.472,0,0,0-.52,0,.363.363,0,0,1-.109,0,1.368,1.368,0,0,0-.378-.007c-.054,0-.109,0-.163,0-.084,0-.168-.013-.252-.009-.3.015-.6.035-.905.054A.9.9,0,0,1,60.9,91.2a.987.987,0,0,0-.2-.02.882.882,0,0,1-.145,0,1.467,1.467,0,0,0-.4-.005.633.633,0,0,1-.144,0,.453.453,0,0,0-.284.013.22.22,0,0,1-.089,0c-.084,0-.168-.007-.252-.008-.049,0-.1.01-.145.007-.108-.006-.216-.011-.323-.027a.383.383,0,0,0-.2,0,.156.156,0,0,1-.071.008,1.094,1.094,0,0,0-.429.037.372.372,0,0,1-.284,0,.679.679,0,0,0-.492-.042.7.7,0,0,1-.194.009,1.4,1.4,0,0,0-.342-.012,1.321,1.321,0,0,1-.321-.013.426.426,0,0,0-.159.014.384.384,0,0,1-.2.009.576.576,0,0,0-.125-.008.36.36,0,0,1-.245-.039.061.061,0,0,0-.052-.006c-.1.058-.216-.006-.317.042a1.153,1.153,0,0,0-.41.02.029.029,0,0,1-.018,0,.583.583,0,0,0-.269-.006c-.126.018-.251-.046-.376,0-.013.005-.035-.009-.05-.017a.291.291,0,0,0-.246-.008.357.357,0,0,1-.212.008.346.346,0,0,0-.161-.016,1.376,1.376,0,0,1-.466.016c-.081-.006-.149-.053-.225-.053s-.152.034-.23.038c-.1,0-.214-.037-.313.039-.014.011-.046,0-.07,0-.042,0-.084-.007-.126,0a2.234,2.234,0,0,1-.306-.008c-.144-.013-.288-.024-.431-.048a.191.191,0,0,0-.089,0,1.576,1.576,0,0,1-.465.008.482.482,0,0,0-.177.009.726.726,0,0,1-.142.024,1.689,1.689,0,0,1-.432-.007,1.132,1.132,0,0,1-.144-.006.487.487,0,0,1-.116-.069c-.11.084-.11.086-.162.082l-.4-.027a.173.173,0,0,0-.072,0,.868.868,0,0,1-.321.014c-.083,0-.167-.03-.249.009-.014.007-.035,0-.053,0-.12-.01-.24-.022-.359-.03a.2.2,0,0,0-.089.01.306.306,0,0,1-.177.012.288.288,0,0,0-.143.007.256.256,0,0,1-.177,0,.508.508,0,0,0-.286-.01,1.239,1.239,0,0,1-.412,0,.458.458,0,0,0-.177.01,1.384,1.384,0,0,1-.5.039,3.09,3.09,0,0,0-.36,0c-.079,0-.157.006-.236.005s-.168-.012-.251-.008c-.157.005-.314.015-.471.028a1.361,1.361,0,0,1-.45-.021.484.484,0,0,0-.107-.015H44.12l-.014-.01a1.7,1.7,0,0,1-.257,0,1.174,1.174,0,0,0-.446,0,.193.193,0,0,1-.071,0c-.072,0-.144-.008-.216-.008H43.1a1.884,1.884,0,0,0-.29-.019c-.176.009-.353.011-.529.024a1.425,1.425,0,0,0-.369-.006c-.022,0-.045,0-.067,0a.86.86,0,0,0-.2-.009.623.623,0,0,1-.178,0,.4.4,0,0,0-.23.007.289.289,0,0,1-.125.007c-.06,0-.12-.018-.179-.015a.267.267,0,0,0-.153.039c-.013.01-.027.007-.04.011l-.146.008A.9.9,0,0,1,40.3,91.2a.987.987,0,0,0-.2-.02.882.882,0,0,1-.145,0,1.466,1.466,0,0,0-.4-.005.633.633,0,0,1-.144,0,.453.453,0,0,0-.284.013.22.22,0,0,1-.089,0c-.084,0-.168-.007-.252-.008-.048,0-.1.01-.145.007-.108-.006-.216-.011-.323-.027a.383.383,0,0,0-.2,0,.156.156,0,0,1-.071.008,1.094,1.094,0,0,0-.429.037.372.372,0,0,1-.284,0,.679.679,0,0,0-.492-.042.7.7,0,0,1-.194.009,1.4,1.4,0,0,0-.342-.012A1.321,1.321,0,0,1,36,91.152a.426.426,0,0,0-.159.014.38.38,0,0,1-.2.009.589.589,0,0,0-.126-.008.36.36,0,0,1-.245-.039.061.061,0,0,0-.052-.006c-.1.058-.216-.006-.317.042a1.148,1.148,0,0,0-.409.02.028.028,0,0,1-.018,0,.587.587,0,0,0-.27-.006c-.126.018-.251-.046-.376,0-.013.005-.035-.009-.05-.017a.291.291,0,0,0-.246-.008.357.357,0,0,1-.212.008.343.343,0,0,0-.16-.016,1.383,1.383,0,0,1-.467.016c-.081-.006-.149-.053-.224-.053s-.153.034-.23.038c-.106,0-.215-.037-.314.039-.014.011-.046,0-.07,0-.042,0-.084-.007-.126,0a2.234,2.234,0,0,1-.306-.008c-.144-.013-.288-.024-.431-.048a.191.191,0,0,0-.089,0,1.576,1.576,0,0,1-.465.008.482.482,0,0,0-.177.009.726.726,0,0,1-.142.024,1.689,1.689,0,0,1-.432-.007,1.132,1.132,0,0,1-.144-.006.508.508,0,0,1-.116-.069c-.11.084-.11.086-.162.082l-.4-.027a.174.174,0,0,0-.072,0,.868.868,0,0,1-.321.014c-.083,0-.166-.03-.249.009-.014.007-.035,0-.053,0-.12-.01-.24-.022-.359-.03a.2.2,0,0,0-.089.01.305.305,0,0,1-.177.012.288.288,0,0,0-.143.007.256.256,0,0,1-.177,0,.508.508,0,0,0-.286-.01,1.233,1.233,0,0,1-.411,0,.463.463,0,0,0-.178.01,1.381,1.381,0,0,1-.5.039,3.109,3.109,0,0,0-.361,0c-.079,0-.157.006-.236.005s-.168-.012-.251-.008c-.157.005-.314.015-.471.028a1.361,1.361,0,0,1-.45-.021.484.484,0,0,0-.107-.015c-.235,0-.47.008-.7,0a5.4,5.4,0,0,0-.6,0,.612.612,0,0,1-.071-.011,3.3,3.3,0,0,0-.395-.025c-.228.012-.457,0-.685.036a1.006,1.006,0,0,1-.2-.008,1.463,1.463,0,0,0-.286-.019.623.623,0,0,1-.178,0,.4.4,0,0,0-.23.007.289.289,0,0,1-.125.007c-.06,0-.12-.018-.179-.015a.267.267,0,0,0-.153.039c-.056.047-.123,0-.171.039-.077.057-.177.066-.249.141a.322.322,0,0,1-.216.081c-.042,0-.085,0-.126.01a.177.177,0,0,0-.083.031c-.048.041-.09.09-.154.155.113.039.13.126.144.218a.827.827,0,0,0,.037.266c.011.021-.008.057-.017.085s-.035.057-.032.082a2.643,2.643,0,0,0,.011.377.2.2,0,0,1-.007.14.228.228,0,0,0-.015.17.5.5,0,0,1-.021.369.179.179,0,0,0,.008.156.343.343,0,0,1,.023.311.3.3,0,0,0-.011.107,2.076,2.076,0,0,0,.054.5.256.256,0,0,1,0,.107c-.007.053-.024.106-.029.16a1.252,1.252,0,0,0-.013.286,1.632,1.632,0,0,1,.014.468.524.524,0,0,0,.013.2,1.3,1.3,0,0,1,.033.519.426.426,0,0,0,.01.142c.008.041.03.079.041.12a1.21,1.21,0,0,1,.02.124,1.248,1.248,0,0,0,.583,0,1.234,1.234,0,0,1,.5-.043c.064.017.128.032.191.052a.391.391,0,0,0,.316-.008.351.351,0,0,1,.138-.034c.09,0,.18,0,.27.008a.43.43,0,0,1,.139.028.446.446,0,0,0,.265.032.469.469,0,0,1,.23.013.306.306,0,0,0,.213,0,.243.243,0,0,1,.176,0c.052.015.107.021.159.036a.331.331,0,0,0,.308-.047.235.235,0,0,1,.316.013.193.193,0,0,0,.05.022.818.818,0,0,0,.273-.138.266.266,0,0,1,.248-.077.34.34,0,0,0,.141-.02,1.662,1.662,0,0,1,.229-.047c.132-.009.265,0,.4-.007a.431.431,0,0,1,.247.035.29.29,0,0,0,.123.014.635.635,0,0,1,.3.071.209.209,0,0,0,.207.023.22.22,0,0,1,.238,0,.086.086,0,0,0,.053.006c.2-.021.407,0,.618-.018l.06.147a1.688,1.688,0,0,0,.237.027c.145,0,.29-.015.435-.025.006,0,.012-.015.017-.02l-.035-.051c.049-.04.092-.037.123,0a.249.249,0,0,0,.16.072.557.557,0,0,0,.3-.012.166.166,0,0,1,.141-.006.96.96,0,0,0,.367.085,1.9,1.9,0,0,0,.361-.01.314.314,0,0,0,.08-.036c.1-.041.2-.083.3-.12.026-.01.061-.01.061.047-.054.018-.111.035-.167.055a.731.731,0,0,0-.131.057c-.021.012-.03.044-.054.083.163.037.3.1.451.008a.173.173,0,0,1,.171.01.319.319,0,0,0,.31.006.235.235,0,0,1,.176-.023.783.783,0,0,0,.393-.023.322.322,0,0,1,.263.008.094.094,0,0,0,.068.013,2.126,2.126,0,0,1,.449-.046.214.214,0,0,0,.149-.057c.063-.074.164-.075.233-.134a.1.1,0,0,1,.087-.009.349.349,0,0,0,.246-.027c.051-.018.1-.041.149-.063.081-.034.153-.03.191.036.1.006.183.014.266.015a.619.619,0,0,0,.178-.014.642.642,0,0,1,.25-.026.124.124,0,0,0,.084-.015.119.119,0,0,1,.164,0,.082.082,0,0,0,.068.01.31.31,0,0,1,.16,0A1.663,1.663,0,0,0,33.7,96.4a.835.835,0,0,1,.444-.032.8.8,0,0,0,.408.016c.016,0,.036.015.058.025l-.09.1c.074.013.133.025.193.032a.337.337,0,0,0,.276-.056.269.269,0,0,1,.191-.073.688.688,0,0,0,.141-.027.521.521,0,0,1,.268-.019.491.491,0,0,0,.284-.018.162.162,0,0,1,.141,0,.116.116,0,0,1,.026.024l-.012.075.14.022c.056-.127.1-.138.32-.081l-.019.109.147.068c.139-.044.3-.032.381-.185a.159.159,0,0,1,.029,0c.084.013.168.089.251,0,.008-.009.035,0,.052,0a2.078,2.078,0,0,0,.573-.019.485.485,0,0,1,.161,0,.991.991,0,0,0,.108.012,4.246,4.246,0,0,1,.541,0,.8.8,0,0,1,.314.071,1.1,1.1,0,0,1,.605-.055.509.509,0,0,0,.214.016.469.469,0,0,1,.162-.009c0,.012.009.025.013.038a1.21,1.21,0,0,1,.02.124,1.248,1.248,0,0,0,.583,0,1.233,1.233,0,0,1,.5-.043c.064.017.128.032.191.052a.391.391,0,0,0,.316-.008.351.351,0,0,1,.138-.034c.09,0,.18,0,.27.008a.43.43,0,0,1,.139.028.446.446,0,0,0,.265.032.469.469,0,0,1,.23.013.306.306,0,0,0,.213,0,.243.243,0,0,1,.176,0c.052.015.107.021.159.036a.331.331,0,0,0,.308-.047.235.235,0,0,1,.316.013.193.193,0,0,0,.05.022.818.818,0,0,0,.273-.138.266.266,0,0,1,.248-.077.19.19,0,0,0,.1-.009c.029,0,.057,0,.086,0a4.278,4.278,0,0,0,.467,0,2.489,2.489,0,0,1,.4,0,1.407,1.407,0,0,0,.282.01.417.417,0,0,1,.105.039.209.209,0,0,0,.207.023.22.22,0,0,1,.238,0,.085.085,0,0,0,.053.006c.2-.021.407,0,.618-.018l.06.147a1.688,1.688,0,0,0,.237.027c.145,0,.29-.015.434-.025.007,0,.013-.015.018-.02l-.035-.051c.049-.04.092-.037.123,0a.249.249,0,0,0,.16.072.557.557,0,0,0,.3-.012A.166.166,0,0,1,48.4,96.6a.96.96,0,0,0,.367.085,1.9,1.9,0,0,0,.361-.01.314.314,0,0,0,.08-.036c.1-.041.2-.083.3-.12.026-.01.061-.01.061.047-.054.018-.111.035-.167.055a.731.731,0,0,0-.131.057c-.021.012-.03.044-.054.083.163.037.3.1.451.008a.173.173,0,0,1,.171.01.319.319,0,0,0,.31.006.235.235,0,0,1,.176-.023.778.778,0,0,0,.392-.023.324.324,0,0,1,.264.008.094.094,0,0,0,.068.013,2.126,2.126,0,0,1,.449-.046.214.214,0,0,0,.149-.057c.063-.074.164-.075.233-.134a.1.1,0,0,1,.086-.009.347.347,0,0,0,.246-.027c.052-.018.1-.041.15-.063.081-.034.153-.03.191.036.1.006.183.014.266.015A.619.619,0,0,0,53,96.461a.642.642,0,0,1,.25-.026.125.125,0,0,0,.084-.015.119.119,0,0,1,.164,0,.082.082,0,0,0,.068.01.31.31,0,0,1,.16,0A1.663,1.663,0,0,0,54.3,96.4a.835.835,0,0,1,.444-.032.8.8,0,0,0,.408.016c.016,0,.036.015.058.025l-.09.1c.074.013.133.025.193.032a.337.337,0,0,0,.276-.056.268.268,0,0,1,.19-.073.685.685,0,0,0,.142-.027.521.521,0,0,1,.268-.019.491.491,0,0,0,.284-.018.162.162,0,0,1,.141,0,.184.184,0,0,1,.026.024l-.012.075.14.022c.056-.127.1-.138.319-.081l-.018.109.147.068c.139-.044.3-.032.381-.185a.159.159,0,0,1,.029,0c.083.013.168.089.251,0,.008-.009.035,0,.052,0a2.07,2.07,0,0,0,.572-.019.491.491,0,0,1,.162,0,.991.991,0,0,0,.108.012,4.246,4.246,0,0,1,.541,0,.8.8,0,0,1,.314.071,1.1,1.1,0,0,1,.6-.055.509.509,0,0,0,.214.016,1.382,1.382,0,0,1,.358,0c.054,0,.108.015.161.012a2.222,2.222,0,0,0,.431-.023.3.3,0,0,1,.144,0,1.277,1.277,0,0,0,.36.006,1.811,1.811,0,0,1,.344-.014,2.831,2.831,0,0,0,.451,0,.45.45,0,0,1,.127,0,.9.9,0,0,0,.306.007.981.981,0,0,1,.324.019.811.811,0,0,0,.429-.01.2.2,0,0,1,.052-.012,2.287,2.287,0,0,1,.342.012,2.583,2.583,0,0,0,.542,0,2.665,2.665,0,0,1,.379,0,4.278,4.278,0,0,0,.467,0,2.489,2.489,0,0,1,.4,0,5.49,5.49,0,0,0,.559.006c.1.006.208.008.312.016-.02.026-.042.049-.061.076a.717.717,0,0,1-.131.144,1.385,1.385,0,0,0-.25.233,1.32,1.32,0,0,1-.237.218.428.428,0,0,0-.1.122.384.384,0,0,1-.132.145.614.614,0,0,0-.094.083.37.37,0,0,1-.2.146.055.055,0,0,0-.041.032c-.03.112-.157.149-.2.254a1.141,1.141,0,0,0-.275.3c0,.005-.008.008-.014.011a.579.579,0,0,0-.195.186c-.076.1-.21.145-.263.269,0,.013-.03.019-.047.024a.291.291,0,0,0-.18.168.356.356,0,0,1-.144.156.329.329,0,0,0-.124.1,1.377,1.377,0,0,1-.318.341c-.062.053-.143.068-.2.121s-.084.132-.136.19c-.071.078-.178.125-.194.249,0,.018-.033.032-.05.048a1.261,1.261,0,0,0-.092.087,2.215,2.215,0,0,1-.223.21c-.111.093-.22.187-.338.271a.2.2,0,0,0-.061.066,1.574,1.574,0,0,1-.323.334.533.533,0,0,0-.119.131.674.674,0,0,1-.082.118,1.673,1.673,0,0,1-.312.3.961.961,0,0,1-.1.1.5.5,0,0,1-.131.034c-.019.136-.017.138-.057.172-.1.088-.2.174-.3.261a.161.161,0,0,0-.048.053c-.046.1-.144.16-.218.237-.057.06-.139.1-.169.182-.006.015-.026.024-.04.036-.092.077-.185.154-.275.232a.2.2,0,0,0-.056.071.307.307,0,0,1-.117.133.284.284,0,0,0-.095.106.268.268,0,0,1-.127.124.5.5,0,0,0-.21.195,1.214,1.214,0,0,1-.29.291.492.492,0,0,0-.119.134,1.4,1.4,0,0,1-.327.383,2.681,2.681,0,0,0-.258.253c-.053.058-.106.115-.163.17s-.127.11-.184.172q-.16.172-.312.353a1.414,1.414,0,0,1-.333.3.459.459,0,0,0-.087.065c-.166.166-.327.338-.5.5a5.587,5.587,0,0,0-.423.42.415.415,0,0,1-.058.043,3.243,3.243,0,0,0-.3.263c-.153.169-.321.325-.459.509a.97.97,0,0,1-.145.133,1.454,1.454,0,0,0-.215.189.682.682,0,0,1-.128.124.4.4,0,0,0-.158.168.291.291,0,0,1-.083.093,1.726,1.726,0,0,0-.138.116.282.282,0,0,0-.081.135c-.006.073-.084.091-.092.149-.015.095-.08.172-.077.276a.325.325,0,0,1-.095.21,1.225,1.225,0,0,0-.082.1.177.177,0,0,0-.037.08c-.005.064,0,.128,0,.219a.225.225,0,0,1,.256.053c.072.053.125.131.215.161.022.008.035.046.048.072s.015.066.035.081c.1.076.16.2.274.259a.2.2,0,0,1,.095.1.232.232,0,0,0,.109.131.489.489,0,0,1,.246.276.178.178,0,0,0,.116.1.343.343,0,0,1,.236.2.279.279,0,0,0,.068.084,2.044,2.044,0,0,0,.394.317.254.254,0,0,1,.076.074c.033.043.059.092.093.133a1.188,1.188,0,0,0,.193.212,1.675,1.675,0,0,1,.341.321.512.512,0,0,0,.148.13,1.286,1.286,0,0,1,.39.344.487.487,0,0,0,.108.094c.035.023.078.034.114.056s.074.053.1.073a1.254,1.254,0,0,0,.413-.413c.1-.13.166-.3.321-.382.057-.033.113-.068.172-.1a.4.4,0,0,0,.218-.229.345.345,0,0,1,.073-.122,2.462,2.462,0,0,1,.2-.185.436.436,0,0,1,.118-.079.446.446,0,0,0,.209-.164.485.485,0,0,1,.172-.154.3.3,0,0,0,.152-.15.244.244,0,0,1,.122-.127c.048-.025.091-.06.138-.086a.329.329,0,0,0,.184-.252.235.235,0,0,1,.233-.213.167.167,0,0,0,.051-.021.793.793,0,0,0,.095-.29.269.269,0,0,1,.122-.23c.038-.021.058-.074.085-.114a1.732,1.732,0,0,1,.129-.195c.087-.1.184-.19.276-.286a.425.425,0,0,1,.2-.149c.037-.01.066-.05.1-.077a.633.633,0,0,1,.258-.159.208.208,0,0,0,.163-.13.222.222,0,0,1,.166-.171.089.089,0,0,0,.042-.033c.128-.159.283-.292.424-.45l.146.061a1.693,1.693,0,0,0,.187-.148c.1-.1.194-.216.289-.325.005,0,0-.019,0-.026l-.061-.012c.007-.063.04-.091.087-.087a.258.258,0,0,0,.164-.062.562.562,0,0,0,.206-.224c.022-.044.045-.089.095-.1a.966.966,0,0,0,.32-.2,1.815,1.815,0,0,0,.248-.262.292.292,0,0,0,.031-.083c.042-.1.083-.2.128-.3.012-.025.036-.051.076-.009-.025.05-.053.1-.078.156a.659.659,0,0,0-.053.133c-.006.023.01.052.021.1.141-.089.282-.145.324-.314.015-.06.066-.09.128-.113a.319.319,0,0,0,.223-.215.235.235,0,0,1,.109-.14.8.8,0,0,0,.261-.294.323.323,0,0,1,.192-.182.1.1,0,0,0,.058-.038,2.084,2.084,0,0,1,.285-.351.21.21,0,0,0,.064-.145c-.008-.1.063-.168.07-.259a.1.1,0,0,1,.055-.068.344.344,0,0,0,.155-.193c.024-.048.041-.1.061-.15.033-.082.087-.13.161-.109.074-.067.139-.12.2-.178a.62.62,0,0,0,.115-.136.626.626,0,0,1,.159-.195.118.118,0,0,0,.048-.07.12.12,0,0,1,.116-.116.078.078,0,0,0,.055-.041c.023-.055.072-.079.114-.113a1.689,1.689,0,0,0,.385-.423.83.83,0,0,1,.291-.337.8.8,0,0,0,.3-.277c.008-.013.036-.015.058-.023l.008.135c.062-.044.112-.077.159-.114a.336.336,0,0,0,.155-.235.275.275,0,0,1,.083-.186.582.582,0,0,0,.081-.119.533.533,0,0,1,.176-.2.489.489,0,0,0,.189-.214.162.162,0,0,1,.1-.1.107.107,0,0,1,.036,0l.045.061.114-.084c-.05-.129-.026-.168.169-.283l.064.09.152-.056c.067-.129.193-.238.139-.4.011-.012.014-.018.019-.021.069-.05.182-.056.174-.181,0-.012.024-.025.036-.038a2.074,2.074,0,0,0,.392-.418.494.494,0,0,1,.115-.113c.027-.024.061-.041.085-.067a4.073,4.073,0,0,1,.384-.382.8.8,0,0,1,.271-.172c.011-.024.029-.043.041-.066a1.113,1.113,0,0,1,.349-.4.5.5,0,0,0,.162-.14c.063-.111.173-.165.255-.251.038-.038.088-.065.123-.1a2.194,2.194,0,0,0,.288-.321.308.308,0,0,1,.1-.1,1.264,1.264,0,0,0,.26-.251,1.869,1.869,0,0,1,.233-.253,2.746,2.746,0,0,0,.32-.318l.046-.044a.188.188,0,0,1,.045-.044.891.891,0,0,0,.221-.212.992.992,0,0,1,.242-.215.814.814,0,0,0,.3-.311.189.189,0,0,1,.028-.045,2.512,2.512,0,0,1,.251-.234,2.616,2.616,0,0,0,.381-.385c.027-.028.057-.054.085-.083A1.538,1.538,0,0,1,75.648,94.727ZM26.813,96.446a.56.56,0,0,1-.314.061c.108-.054.191-.1.278-.137.014-.007.04.011.061.017C26.83,96.407,26.828,96.436,26.813,96.446Z"/><path class="cls-2" d="M9.522,97.256c.927,2.184,1.975,4.4,3.082,6.493l-3.561,1.676c-.9-1.736-1.7-3.471-2.483-5.177-2.214,2.155-4.1,3.95-5.835,5.387L-1.46,103.51c2.095-1.826,4.429-3.741,6.822-6.014C4.256,94.952,3.3,92.469,2.4,90.075l3.861-1.2c.6,1.735,1.286,3.621,2.064,5.536,1.646-1.886,3.112-3.95,4.578-5.955l2.633,1.915A88.109,88.109,0,0,1,9.522,97.256Z"/><path class="cls-1" d="M78.248,229.44a1.166,1.166,0,0,0-.314-.316c-.02-.01-.032-.035-.048-.053-.049-.053-.1-.108-.147-.159s-.1-.084-.146-.134a3.653,3.653,0,0,0-.366-.37.371.371,0,0,1-.078-.075,1.31,1.31,0,0,0-.263-.273c-.04-.037-.078-.076-.115-.115-.057-.062-.11-.129-.172-.185-.224-.2-.451-.4-.678-.6a.913.913,0,0,1-.187-.219,1.007,1.007,0,0,0-.125-.153.986.986,0,0,1-.1-.1,1.491,1.491,0,0,0-.277-.284.625.625,0,0,1-.105-.1.45.45,0,0,0-.21-.192c-.025-.01-.043-.04-.064-.061l-.109-.116a.107.107,0,0,1,.026-.026H74.73a.034.034,0,0,1-.014,0l-.039-.041c-.034-.034-.075-.062-.107-.1-.072-.081-.145-.161-.209-.248a.4.4,0,0,0-.141-.137.159.159,0,0,1-.056-.043,1.067,1.067,0,0,0-.33-.278c-.081-.047-.177-.106-.2-.2a.681.681,0,0,0-.318-.378.684.684,0,0,1-.144-.13,1.387,1.387,0,0,0-.233-.25,1.354,1.354,0,0,1-.218-.237.4.4,0,0,0-.122-.1.376.376,0,0,1-.145-.132.54.54,0,0,0-.084-.095c-.061-.058-.131-.108-.145-.2a.061.061,0,0,0-.032-.042c-.112-.03-.149-.157-.254-.194a1.139,1.139,0,0,0-.3-.275.03.03,0,0,1-.011-.014.592.592,0,0,0-.186-.2c-.1-.076-.146-.209-.27-.262-.012-.005-.018-.03-.023-.047a.3.3,0,0,0-.169-.18.356.356,0,0,1-.155-.145.358.358,0,0,0-.1-.124,1.358,1.358,0,0,1-.341-.318c-.054-.062-.068-.143-.122-.2s-.132-.085-.189-.136c-.078-.071-.126-.179-.249-.194-.018,0-.033-.033-.049-.051a1.248,1.248,0,0,0-.086-.092,2.231,2.231,0,0,1-.211-.223c-.092-.111-.186-.22-.27-.338a.2.2,0,0,0-.066-.06,1.574,1.574,0,0,1-.334-.323.5.5,0,0,0-.132-.119.765.765,0,0,1-.118-.083,1.7,1.7,0,0,1-.3-.311c-.029-.038-.074-.065-.1-.106a.5.5,0,0,1-.034-.131c-.137-.018-.138-.017-.173-.056-.087-.1-.173-.2-.26-.3a.175.175,0,0,0-.053-.049c-.105-.045-.16-.143-.238-.217-.06-.057-.1-.139-.182-.17-.015,0-.024-.026-.035-.039-.078-.092-.154-.185-.233-.276a.212.212,0,0,0-.07-.056.3.3,0,0,1-.133-.116.29.29,0,0,0-.107-.1.259.259,0,0,1-.123-.126.517.517,0,0,0-.195-.211,1.219,1.219,0,0,1-.292-.29.469.469,0,0,0-.133-.118,1.424,1.424,0,0,1-.384-.328,2.781,2.781,0,0,0-.252-.257c-.058-.053-.116-.107-.17-.163s-.111-.127-.172-.184q-.172-.16-.353-.313a1.372,1.372,0,0,1-.3-.333.5.5,0,0,0-.065-.086c-.166-.166-.338-.327-.5-.5a5.587,5.587,0,0,0-.421-.422.622.622,0,0,1-.043-.058,3.384,3.384,0,0,0-.262-.3c-.169-.153-.326-.32-.509-.458a1.028,1.028,0,0,1-.134-.145,1.4,1.4,0,0,0-.189-.216.641.641,0,0,1-.123-.127.4.4,0,0,0-.168-.158.273.273,0,0,1-.093-.084c-.04-.044-.072-.1-.116-.137a.266.266,0,0,0-.136-.081c-.073-.006-.09-.084-.148-.093-.095-.014-.173-.079-.276-.076a.319.319,0,0,1-.21-.1c-.032-.027-.062-.057-.1-.082a.168.168,0,0,0-.08-.037c-.063,0-.128,0-.219,0a.223.223,0,0,1-.052.256c-.053.072-.131.124-.162.215-.007.022-.046.034-.072.048s-.065.015-.08.035c-.077.1-.2.16-.26.274a.2.2,0,0,1-.1.094.241.241,0,0,0-.132.109.5.5,0,0,1-.275.247.176.176,0,0,0-.1.116.344.344,0,0,1-.2.236.286.286,0,0,0-.084.067,2.143,2.143,0,0,0-.316.394.246.246,0,0,1-.074.077c-.043.033-.092.058-.134.093a1.22,1.22,0,0,0-.212.193,1.64,1.64,0,0,1-.32.34.533.533,0,0,0-.131.149,1.273,1.273,0,0,1-.344.39.439.439,0,0,0-.093.108c-.023.035-.035.077-.056.113s-.053.075-.073.1a1.242,1.242,0,0,0,.412.413c.131.1.3.167.383.321.032.058.068.114.1.172a.392.392,0,0,0,.23.218.348.348,0,0,1,.122.074,2.643,2.643,0,0,1,.185.2.46.46,0,0,1,.079.118.444.444,0,0,0,.164.21.477.477,0,0,1,.154.172.3.3,0,0,0,.149.151.246.246,0,0,1,.127.123c.026.048.061.09.087.138a.33.33,0,0,0,.251.184.236.236,0,0,1,.214.233.192.192,0,0,0,.02.051.819.819,0,0,0,.29.1.263.263,0,0,1,.23.122c.022.037.075.058.114.084a1.88,1.88,0,0,1,.2.129c.1.087.19.185.286.276a.438.438,0,0,1,.15.2c.009.037.049.067.077.1a.625.625,0,0,1,.158.258.211.211,0,0,0,.13.163.22.22,0,0,1,.172.166.092.092,0,0,0,.033.042c.159.128.291.283.449.423l-.061.147a1.772,1.772,0,0,0,.149.187c.1.1.215.193.325.289.005,0,.019,0,.026,0l.011-.061c.064.007.091.039.088.086a.259.259,0,0,0,.062.165.567.567,0,0,0,.223.206c.044.022.09.044.1.094a.938.938,0,0,0,.2.32,1.883,1.883,0,0,0,.263.249c.02.018.055.02.082.031.1.042.2.083.3.128.025.011.05.036.009.076-.05-.026-.1-.054-.157-.079a.743.743,0,0,0-.132-.053c-.024,0-.053.011-.1.021.088.142.144.282.313.325.061.015.091.065.114.128a.317.317,0,0,0,.215.223.24.24,0,0,1,.14.108.79.79,0,0,0,.294.262.322.322,0,0,1,.181.191.094.094,0,0,0,.039.058,2.137,2.137,0,0,1,.35.285.211.211,0,0,0,.146.065c.1-.008.168.063.259.07a.1.1,0,0,1,.067.055.352.352,0,0,0,.193.155c.049.023.1.041.151.061.082.033.129.086.109.16.066.075.119.14.178.2a.578.578,0,0,0,.136.116.633.633,0,0,1,.194.158.128.128,0,0,0,.07.049.121.121,0,0,1,.117.116.082.082,0,0,0,.041.055c.055.022.079.072.113.113a1.811,1.811,0,0,0,.342.324,1.7,1.7,0,0,1-.257,0,1.2,1.2,0,0,0-.446,0,.215.215,0,0,1-.071,0c-.072,0-.144-.009-.216-.009s-.134.013-.2.008a3.761,3.761,0,0,0-.52,0,.4.4,0,0,1-.109,0,1.3,1.3,0,0,0-.378-.007c-.054,0-.109,0-.163,0-.084,0-.168-.013-.252-.009-.3.016-.6.035-.9.055a.925.925,0,0,1-.287-.023,1.068,1.068,0,0,0-.2-.02.882.882,0,0,1-.145,0,1.508,1.508,0,0,0-.4,0,.634.634,0,0,1-.144,0,.452.452,0,0,0-.284.012.22.22,0,0,1-.089,0c-.084,0-.168-.007-.252-.007-.049,0-.1.009-.145.006a3.173,3.173,0,0,1-.323-.027.394.394,0,0,0-.2,0,.157.157,0,0,1-.071.009,1.076,1.076,0,0,0-.429.037.377.377,0,0,1-.284,0,.674.674,0,0,0-.492-.043.742.742,0,0,1-.194.01,1.356,1.356,0,0,0-.342-.013,1.321,1.321,0,0,1-.321-.013.426.426,0,0,0-.159.014.384.384,0,0,1-.2.01.519.519,0,0,0-.125-.008.365.365,0,0,1-.245-.039.061.061,0,0,0-.052-.007c-.1.058-.216-.006-.317.042a1.154,1.154,0,0,0-.41.021.039.039,0,0,1-.018,0,.57.57,0,0,0-.269-.007c-.126.018-.251-.045-.376,0-.013,0-.035-.008-.05-.017a.291.291,0,0,0-.246-.008.357.357,0,0,1-.212.008.346.346,0,0,0-.161-.016,1.327,1.327,0,0,1-.466.016c-.081,0-.149-.052-.225-.052s-.152.033-.23.037c-.1,0-.214-.037-.313.039-.014.011-.046,0-.07,0-.042,0-.084-.006-.126,0a2.235,2.235,0,0,1-.306-.009c-.144-.013-.288-.023-.431-.048a.2.2,0,0,0-.089,0,1.576,1.576,0,0,1-.465.008.529.529,0,0,0-.177.009.727.727,0,0,1-.142.025,1.736,1.736,0,0,1-.432-.008.974.974,0,0,1-.144-.006.487.487,0,0,1-.116-.069c-.11.084-.11.086-.162.083l-.4-.028a.191.191,0,0,0-.072,0,.89.89,0,0,1-.321.015c-.083,0-.167-.031-.249.009-.014.006-.035,0-.053,0-.12-.011-.24-.022-.359-.031a.2.2,0,0,0-.089.011.306.306,0,0,1-.177.011.3.3,0,0,0-.143.008.268.268,0,0,1-.177,0,.508.508,0,0,0-.286-.011,1.213,1.213,0,0,1-.412,0,.479.479,0,0,0-.177.011,1.43,1.43,0,0,1-.5.039,2.7,2.7,0,0,0-.36,0c-.079,0-.157.006-.236,0s-.168-.012-.251-.009c-.157.006-.314.016-.471.029a1.417,1.417,0,0,1-.45-.021.433.433,0,0,0-.107-.016H46.72l-.014-.01a1.7,1.7,0,0,1-.257,0,1.2,1.2,0,0,0-.446,0,.215.215,0,0,1-.071,0c-.072,0-.144-.009-.216-.009H45.7a1.882,1.882,0,0,0-.29-.018c-.176.008-.353.01-.529.024a1.382,1.382,0,0,0-.369-.006c-.022,0-.045,0-.067,0a.811.811,0,0,0-.2-.01.623.623,0,0,1-.178,0,.4.4,0,0,0-.23.008.3.3,0,0,1-.125.007,1.565,1.565,0,0,0-.179-.016.275.275,0,0,0-.153.039c-.013.011-.027.008-.04.011l-.146.009a.925.925,0,0,1-.287-.023,1.068,1.068,0,0,0-.2-.02.882.882,0,0,1-.145,0,1.508,1.508,0,0,0-.4,0,.634.634,0,0,1-.144,0,.452.452,0,0,0-.284.012.22.22,0,0,1-.089,0c-.084,0-.168-.007-.252-.007-.048,0-.1.009-.145.006a3.173,3.173,0,0,1-.323-.027.394.394,0,0,0-.2,0,.157.157,0,0,1-.071.009,1.076,1.076,0,0,0-.429.037.377.377,0,0,1-.284,0,.674.674,0,0,0-.492-.043.742.742,0,0,1-.194.01,1.354,1.354,0,0,0-.342-.013,1.321,1.321,0,0,1-.321-.013.426.426,0,0,0-.159.014.381.381,0,0,1-.2.01.531.531,0,0,0-.126-.008.365.365,0,0,1-.245-.039.061.061,0,0,0-.052-.007c-.1.058-.216-.006-.317.042a1.148,1.148,0,0,0-.409.021.036.036,0,0,1-.018,0,.574.574,0,0,0-.27-.007c-.126.018-.251-.045-.376,0-.013,0-.035-.008-.05-.017a.291.291,0,0,0-.246-.008.357.357,0,0,1-.212.008.343.343,0,0,0-.16-.016,1.334,1.334,0,0,1-.467.016c-.081,0-.149-.052-.224-.052s-.153.033-.23.037c-.106,0-.215-.037-.314.039-.014.011-.046,0-.07,0-.042,0-.084-.006-.126,0a2.235,2.235,0,0,1-.306-.009c-.144-.013-.288-.023-.431-.048a.2.2,0,0,0-.089,0,1.576,1.576,0,0,1-.465.008.529.529,0,0,0-.177.009.727.727,0,0,1-.142.025,1.736,1.736,0,0,1-.432-.008.974.974,0,0,1-.144-.006.508.508,0,0,1-.116-.069c-.11.084-.11.086-.162.083l-.4-.028a.192.192,0,0,0-.072,0,.89.89,0,0,1-.321.015c-.083,0-.166-.031-.249.009-.014.006-.035,0-.053,0-.12-.011-.24-.022-.359-.031a.2.2,0,0,0-.089.011.305.305,0,0,1-.177.011.3.3,0,0,0-.143.008.268.268,0,0,1-.177,0,.508.508,0,0,0-.286-.011,1.207,1.207,0,0,1-.411,0,.484.484,0,0,0-.178.011,1.426,1.426,0,0,1-.5.039,2.721,2.721,0,0,0-.361,0c-.079,0-.157.006-.236,0s-.168-.012-.251-.009c-.157.006-.314.016-.471.029a1.417,1.417,0,0,1-.45-.021.433.433,0,0,0-.107-.016c-.235,0-.47.008-.7,0a5.661,5.661,0,0,0-.6,0,.606.606,0,0,1-.071-.01,3.1,3.1,0,0,0-.395-.025c-.228.011-.457,0-.685.035a.934.934,0,0,1-.2-.008,1.545,1.545,0,0,0-.286-.019.623.623,0,0,1-.178,0,.4.4,0,0,0-.23.008.3.3,0,0,1-.125.007,1.565,1.565,0,0,0-.179-.016.275.275,0,0,0-.153.039c-.056.047-.123,0-.171.039-.077.057-.177.066-.249.141a.327.327,0,0,1-.216.082,1.053,1.053,0,0,0-.126.01.166.166,0,0,0-.083.03c-.048.042-.09.09-.154.155.113.039.13.127.144.219a.834.834,0,0,0,.037.266c.011.02-.008.057-.017.085s-.035.056-.032.081a2.634,2.634,0,0,0,.011.377.2.2,0,0,1-.007.14.231.231,0,0,0-.015.171.5.5,0,0,1-.021.369.177.177,0,0,0,.008.155.343.343,0,0,1,.023.311.3.3,0,0,0-.011.107,2.065,2.065,0,0,0,.054.5.256.256,0,0,1,0,.107c-.007.054-.024.106-.029.16a1.255,1.255,0,0,0-.013.286,1.632,1.632,0,0,1,.014.468.524.524,0,0,0,.013.2,1.3,1.3,0,0,1,.033.519.434.434,0,0,0,.01.143c.008.041.03.079.041.12a1.2,1.2,0,0,1,.02.123,1.236,1.236,0,0,0,.583,0,1.217,1.217,0,0,1,.5-.044c.064.018.128.032.191.053a.4.4,0,0,0,.316-.008.352.352,0,0,1,.138-.035,2.436,2.436,0,0,1,.27.009.429.429,0,0,1,.139.027.446.446,0,0,0,.265.032.481.481,0,0,1,.23.013.3.3,0,0,0,.213,0,.248.248,0,0,1,.176,0c.052.016.107.021.159.037a.334.334,0,0,0,.308-.048.234.234,0,0,1,.316.014.164.164,0,0,0,.05.021.783.783,0,0,0,.273-.138.265.265,0,0,1,.248-.076.359.359,0,0,0,.141-.021,2.022,2.022,0,0,1,.229-.047c.132-.008.265,0,.4-.007a.431.431,0,0,1,.247.035.29.29,0,0,0,.123.015.622.622,0,0,1,.3.07.206.206,0,0,0,.207.023.22.22,0,0,1,.238,0,.086.086,0,0,0,.053.006c.2-.022.407-.006.618-.019l.06.147a1.694,1.694,0,0,0,.237.028c.145,0,.29-.016.435-.026.006,0,.012-.014.017-.02l-.035-.051c.049-.04.092-.036.123,0a.255.255,0,0,0,.16.073.566.566,0,0,0,.3-.012.17.17,0,0,1,.141-.007.942.942,0,0,0,.367.085,1.821,1.821,0,0,0,.361-.01c.027,0,.053-.025.08-.036.1-.041.2-.083.3-.12.026-.01.061-.01.061.048-.054.017-.111.034-.167.055a.663.663,0,0,0-.131.056c-.021.013-.03.044-.054.083.163.038.3.1.451.008a.175.175,0,0,1,.171.01.317.317,0,0,0,.31.006.24.24,0,0,1,.176-.022.772.772,0,0,0,.393-.024.322.322,0,0,1,.263.008.1.1,0,0,0,.068.014,2.063,2.063,0,0,1,.449-.047.209.209,0,0,0,.149-.057c.063-.074.164-.074.233-.134a.1.1,0,0,1,.087-.009.348.348,0,0,0,.246-.026c.051-.018.1-.042.149-.063.081-.035.153-.031.191.036.1.006.183.014.266.015a.585.585,0,0,0,.178-.015.623.623,0,0,1,.25-.025.13.13,0,0,0,.084-.015.119.119,0,0,1,.164,0,.082.082,0,0,0,.068.01.31.31,0,0,1,.16,0,1.688,1.688,0,0,0,.571-.026.816.816,0,0,1,.444-.032.8.8,0,0,0,.408.015c.016,0,.036.015.058.025l-.09.1c.074.012.133.025.193.031a.334.334,0,0,0,.276-.056.273.273,0,0,1,.191-.073.627.627,0,0,0,.141-.027.521.521,0,0,1,.268-.019.491.491,0,0,0,.284-.018.166.166,0,0,1,.141,0,.145.145,0,0,1,.026.024l-.012.076.14.021c.056-.127.1-.137.32-.081l-.019.109.147.068c.139-.044.3-.031.381-.184a.209.209,0,0,1,.029,0c.084.014.168.089.251,0,.008-.009.035,0,.052,0a2.118,2.118,0,0,0,.573-.018.484.484,0,0,1,.161,0c.036,0,.072.014.108.013a4.07,4.07,0,0,1,.541,0,.8.8,0,0,1,.314.07,1.107,1.107,0,0,1,.6-.055.509.509,0,0,0,.214.016.469.469,0,0,1,.162-.009c0,.013.009.025.013.039a1.2,1.2,0,0,1,.02.123,1.236,1.236,0,0,0,.583,0,1.216,1.216,0,0,1,.5-.044c.064.018.128.032.191.053a.4.4,0,0,0,.316-.008.352.352,0,0,1,.138-.035,2.436,2.436,0,0,1,.27.009.429.429,0,0,1,.139.027.446.446,0,0,0,.265.032.481.481,0,0,1,.23.013.3.3,0,0,0,.213,0,.248.248,0,0,1,.176,0c.052.016.107.021.159.037a.334.334,0,0,0,.308-.048.234.234,0,0,1,.316.014.164.164,0,0,0,.05.021.783.783,0,0,0,.273-.138.265.265,0,0,1,.248-.076.191.191,0,0,0,.1-.01.823.823,0,0,1,.086,0,4.546,4.546,0,0,0,.467,0,2.489,2.489,0,0,1,.4.006,1.405,1.405,0,0,0,.282.009.417.417,0,0,1,.105.039.206.206,0,0,0,.207.023.22.22,0,0,1,.238,0,.085.085,0,0,0,.053.006c.2-.022.407-.006.618-.019l.06.147a1.694,1.694,0,0,0,.237.028c.145,0,.29-.016.434-.026.007,0,.013-.014.018-.02l-.035-.051c.049-.04.092-.036.123,0a.255.255,0,0,0,.16.073.566.566,0,0,0,.3-.012.17.17,0,0,1,.141-.007.942.942,0,0,0,.367.085,1.821,1.821,0,0,0,.361-.01c.027,0,.053-.025.08-.036.1-.041.2-.083.3-.12.026-.01.061-.01.061.048-.054.017-.111.034-.167.055a.663.663,0,0,0-.131.056c-.021.013-.03.044-.054.083.163.038.3.1.451.008a.175.175,0,0,1,.171.01.317.317,0,0,0,.31.006.24.24,0,0,1,.176-.022.768.768,0,0,0,.392-.024.324.324,0,0,1,.264.008.1.1,0,0,0,.068.014,2.063,2.063,0,0,1,.449-.047.209.209,0,0,0,.149-.057c.063-.074.164-.074.233-.134a.1.1,0,0,1,.086-.009.347.347,0,0,0,.246-.026c.052-.018.1-.042.15-.063.081-.035.153-.031.191.036.1.006.183.014.266.015a.585.585,0,0,0,.178-.015.623.623,0,0,1,.25-.025.131.131,0,0,0,.084-.015.119.119,0,0,1,.164,0,.082.082,0,0,0,.068.01.31.31,0,0,1,.16,0,1.688,1.688,0,0,0,.571-.026.816.816,0,0,1,.444-.032.8.8,0,0,0,.408.015c.016,0,.036.015.058.025l-.09.1c.074.012.133.025.193.031a.334.334,0,0,0,.276-.056.273.273,0,0,1,.19-.073.625.625,0,0,0,.142-.027.521.521,0,0,1,.268-.019.491.491,0,0,0,.284-.018.166.166,0,0,1,.141,0,.273.273,0,0,1,.026.024l-.012.076.14.021c.056-.127.1-.137.319-.081l-.018.109.147.068c.139-.044.3-.031.381-.184a.209.209,0,0,1,.029,0c.083.014.168.089.251,0,.008-.009.035,0,.052,0a2.109,2.109,0,0,0,.572-.018.49.49,0,0,1,.162,0c.036,0,.072.014.108.013a4.07,4.07,0,0,1,.541,0,.8.8,0,0,1,.314.07,1.107,1.107,0,0,1,.6-.055.509.509,0,0,0,.214.016,1.382,1.382,0,0,1,.358,0c.054,0,.108.016.161.012a2.146,2.146,0,0,0,.431-.023.3.3,0,0,1,.144,0,1.277,1.277,0,0,0,.36.006,1.993,1.993,0,0,1,.344-.014,2.831,2.831,0,0,0,.451,0,.45.45,0,0,1,.127,0,.9.9,0,0,0,.306.007,1.008,1.008,0,0,1,.324.019.811.811,0,0,0,.429-.01.2.2,0,0,1,.052-.012,2.16,2.16,0,0,1,.342.013,2.726,2.726,0,0,0,.542,0,2.665,2.665,0,0,1,.379,0,4.546,4.546,0,0,0,.467,0,2.489,2.489,0,0,1,.4.006c.187.029.373-.006.559,0,.1.006.208.008.312.017-.02.026-.042.049-.061.075a.717.717,0,0,1-.131.144,1.421,1.421,0,0,0-.25.233,1.32,1.32,0,0,1-.237.218.428.428,0,0,0-.1.122.376.376,0,0,1-.132.145.571.571,0,0,0-.094.084.364.364,0,0,1-.2.145.057.057,0,0,0-.041.032c-.03.112-.157.149-.195.254a1.156,1.156,0,0,0-.275.3.023.023,0,0,1-.014.011.588.588,0,0,0-.2.186c-.076.1-.21.146-.263.27-.005.012-.03.018-.047.023a.3.3,0,0,0-.18.169.354.354,0,0,1-.144.155.349.349,0,0,0-.124.1,1.377,1.377,0,0,1-.318.341c-.062.054-.143.068-.2.122s-.084.132-.136.189c-.071.078-.178.126-.194.249,0,.018-.033.033-.05.049a1.248,1.248,0,0,0-.092.086,2.215,2.215,0,0,1-.223.21c-.111.093-.22.187-.338.271a.213.213,0,0,0-.061.066,1.574,1.574,0,0,1-.323.334.552.552,0,0,0-.119.131.674.674,0,0,1-.082.118,1.678,1.678,0,0,1-.312.3,1.058,1.058,0,0,1-.105.1.5.5,0,0,1-.131.034c-.019.137-.017.138-.057.173l-.3.26a.172.172,0,0,0-.048.053c-.046.1-.144.16-.218.238-.057.06-.139.1-.169.182-.006.014-.026.024-.04.035-.092.078-.185.154-.275.233a.189.189,0,0,0-.056.07.3.3,0,0,1-.117.133.287.287,0,0,0-.095.107.266.266,0,0,1-.127.123.508.508,0,0,0-.21.195,1.237,1.237,0,0,1-.29.292.488.488,0,0,0-.119.133,1.4,1.4,0,0,1-.327.383,2.938,2.938,0,0,0-.258.253c-.053.058-.106.115-.163.17s-.127.111-.184.172q-.16.173-.312.353a1.372,1.372,0,0,1-.333.3.506.506,0,0,0-.087.065c-.166.166-.327.338-.5.5a5.42,5.42,0,0,0-.423.421.671.671,0,0,1-.058.043,3.233,3.233,0,0,0-.3.262c-.153.169-.321.326-.459.509a.976.976,0,0,1-.145.134,1.347,1.347,0,0,0-.215.189.646.646,0,0,1-.128.123.407.407,0,0,0-.158.168.291.291,0,0,1-.083.093,1.726,1.726,0,0,0-.138.116.28.28,0,0,0-.081.136c-.006.072-.084.09-.092.148-.015.095-.08.173-.077.276a.323.323,0,0,1-.1.21,1.078,1.078,0,0,0-.082.1.168.168,0,0,0-.037.08c0,.063,0,.128,0,.219a.223.223,0,0,1,.256.052c.072.053.125.131.215.162.022.007.035.046.048.072s.015.065.035.08c.1.077.16.2.274.26a.2.2,0,0,1,.095.1.237.237,0,0,0,.109.132.484.484,0,0,1,.246.275.178.178,0,0,0,.116.1.344.344,0,0,1,.236.2.306.306,0,0,0,.068.084,2.078,2.078,0,0,0,.394.316.254.254,0,0,1,.076.074c.033.043.059.092.093.134a1.261,1.261,0,0,0,.193.212,1.67,1.67,0,0,1,.341.32.5.5,0,0,0,.148.13,1.3,1.3,0,0,1,.39.344.463.463,0,0,0,.108.094c.035.023.078.034.114.056s.074.053.1.073a1.251,1.251,0,0,0,.413-.412c.1-.131.166-.3.321-.383.057-.032.113-.068.172-.1a.4.4,0,0,0,.218-.23.345.345,0,0,1,.073-.122,2.658,2.658,0,0,1,.2-.185.46.46,0,0,1,.118-.079.446.446,0,0,0,.209-.164.494.494,0,0,1,.172-.154.306.306,0,0,0,.152-.149.244.244,0,0,1,.122-.127c.048-.026.091-.061.138-.087a.326.326,0,0,0,.184-.251.235.235,0,0,1,.233-.214.192.192,0,0,0,.051-.02.8.8,0,0,0,.1-.29.267.267,0,0,1,.122-.23c.038-.022.058-.075.085-.114a1.841,1.841,0,0,1,.129-.2c.087-.1.184-.189.276-.285a.42.42,0,0,1,.2-.15c.037-.009.066-.049.1-.077a.633.633,0,0,1,.258-.159.206.206,0,0,0,.163-.13.223.223,0,0,1,.166-.171.083.083,0,0,0,.042-.033c.128-.159.283-.292.424-.45l.146.062a1.588,1.588,0,0,0,.187-.149c.1-.1.194-.216.289-.325,0,0,0-.019,0-.026l-.061-.011c.007-.064.04-.091.087-.088a.258.258,0,0,0,.164-.062.56.56,0,0,0,.206-.223c.022-.045.045-.09.1-.1a.948.948,0,0,0,.32-.2,1.877,1.877,0,0,0,.248-.263c.018-.02.02-.055.031-.082.042-.1.083-.2.128-.3.012-.025.036-.05.076-.009-.025.05-.053.1-.078.157a.651.651,0,0,0-.053.132c-.006.024.01.053.021.1.141-.088.282-.144.324-.313.015-.061.066-.091.128-.114a.316.316,0,0,0,.223-.215.235.235,0,0,1,.109-.14.787.787,0,0,0,.261-.294.318.318,0,0,1,.192-.181.1.1,0,0,0,.058-.039,2.038,2.038,0,0,1,.285-.35.214.214,0,0,0,.064-.146c-.008-.1.063-.168.07-.259a.1.1,0,0,1,.055-.067.351.351,0,0,0,.155-.193c.024-.049.041-.1.061-.151.033-.082.087-.129.161-.109.074-.066.139-.119.2-.178a.62.62,0,0,0,.115-.136.638.638,0,0,1,.159-.195.116.116,0,0,0,.048-.069.121.121,0,0,1,.116-.117.078.078,0,0,0,.055-.041c.023-.055.072-.079.114-.113a1.672,1.672,0,0,0,.385-.423.827.827,0,0,1,.291-.336.793.793,0,0,0,.3-.278c.008-.013.036-.014.058-.023l.008.135c.062-.043.112-.076.159-.114a.334.334,0,0,0,.155-.235.278.278,0,0,1,.083-.186.556.556,0,0,0,.081-.119.533.533,0,0,1,.176-.2.489.489,0,0,0,.189-.214.164.164,0,0,1,.1-.1.142.142,0,0,1,.036,0l.045.061.114-.084c-.05-.129-.026-.168.169-.283l.064.091.152-.056c.067-.13.193-.238.139-.4a.194.194,0,0,1,.019-.022c.069-.049.182-.055.174-.181,0-.012.024-.024.036-.037a2.1,2.1,0,0,0,.392-.418.476.476,0,0,1,.115-.113c.027-.024.061-.041.085-.067a4.083,4.083,0,0,1,.384-.383.812.812,0,0,1,.271-.172c.011-.024.029-.042.041-.066a1.113,1.113,0,0,1,.349-.4.493.493,0,0,0,.162-.14c.063-.111.173-.164.255-.25.038-.039.088-.066.123-.106a2.194,2.194,0,0,0,.288-.321.318.318,0,0,1,.1-.1,1.238,1.238,0,0,0,.26-.251,1.861,1.861,0,0,1,.233-.252,2.827,2.827,0,0,0,.32-.318c.015-.016.031-.029.046-.045a.2.2,0,0,1,.045-.043.928.928,0,0,0,.221-.212,1,1,0,0,1,.242-.216.811.811,0,0,0,.3-.31.177.177,0,0,1,.028-.046,2.389,2.389,0,0,1,.251-.233,2.718,2.718,0,0,0,.381-.385c.027-.029.057-.055.085-.084A1.425,1.425,0,0,1,78.248,229.44Zm-48.835,1.72a.56.56,0,0,1-.314.06c.108-.054.191-.1.278-.137.014-.006.04.011.061.018C29.43,231.121,29.428,231.15,29.413,231.16Z"/><path class="cls-2" d="M19.305,221.6c-2.633,5.327-6.673,17.026-7.989,21.395l-3.5-1.018c.9-3.231,2.842-8.2,4.7-12.956A54.4,54.4,0,0,1,4.763,236.6l-3.352-1.377c1.646-5.506,3.262-10.5,4.279-15.2l3.86.749c-.778,3.321-1.885,7.091-3.232,11.19a49.666,49.666,0,0,0,9.456-11.669Z"/></g></svg>