<?xml version="1.0" encoding="utf-8"?>
<!-- Generator: Adobe Illustrator 22.0.1, SVG Export Plug-In . SVG Version: 6.00 Build 0)  -->
<svg version="1.1" id="Livello_1" xmlns="http://www.w3.org/2000/svg" xmlns:xlink="http://www.w3.org/1999/xlink" x="0px" y="0px"
	 viewBox="0 0 296 113" style="enable-background:new 0 0 296 113;" xml:space="preserve">
<style type="text/css">
	.st0{fill:#1858A8;}
	.st1{fill:#FF3366;}
</style>
<title>manuale_ill_nuove</title>
<g id="solo_testo">
	<path class="st0" d="M294.6,30.2c0-1-0.1-2,0-3c0-0.2,0-0.4,0-0.6c-1-2.5-0.2-5.1-0.2-7.6c0.1-1,0.1-2.1-0.1-3.1
		c-1.7,0.2-3.3,0.4-5,0.6c-0.7,0.2-1.5-0.1-1.9-0.7c-0.4-0.7-1.3-1-2.1-0.6c-0.4,0.1-0.7,0.3-1.1,0.5c-1.1,0.6-2.4,0.6-3.5,0.1
		c-1.5-0.8-3.1-0.1-4.7-0.6c-0.7,0.6-1.7,0.5-2.4-0.1c-0.2-0.1-0.5,0-0.6,0.1c-0.9,0.5-1.8,0.2-2.7,0.2c-2-0.1-4.1-1.3-6.1,0.3
		c-0.1,0.1-0.3,0-0.4,0c-2.3-0.2-4.5,0.4-6.8,0.1c-1.8-0.1-3.6-0.2-5.4,0c-0.4,0-0.8-0.1-1.1-0.2c-1.6-0.7-3.4-0.6-4.9,0.3l-1.4-1.3
		c-0.8,0.3-1.6,0.4-2.4,0.5c-2.1-0.2-4.2-0.5-6.3-0.7c-0.9-0.2-1.8,0.1-2.4,0.7c-0.3,0.3-0.6,0.5-1,0.5c-1.2,0-2.4-0.2-3.6-0.3
		c-0.5-0.1-1.1-0.1-1.6,0.2c-0.8,0.4-1.7,0.4-2.4,0.1c-1.3-0.3-2.6-0.3-3.8-0.1c-1.1,0.2-2.3,0.3-3.4,0.4c-0.5,0.1-1.1,0.1-1.6-0.1
		c-0.7-0.4-1.5-0.4-2.2-0.1c-1.3,0.2-2.7,0.4-4,0.4c-1.2-1.1-2.5-0.6-3.7-0.6c-0.5,0.1-1.1,0.1-1.6-0.1c-0.7-0.4-1.6-0.6-2.4-0.7
		c0.4,1.8,0.6,3.6,0.7,5.5c0,0.7,0.1,1.3,0.2,1.9c0.5,1.7,0.8,3.4,0,5.1c0,1.6-0.1,3.2-0.3,4.8c0,0.6-0.1,1.1-0.1,1.7
		c-0.1,0.3-0.2,0.6-0.3,0.8c-0.5,1.3-0.6,2.7-0.1,4.1c0,0,0,0,0,0.1c0.2,0,0.5,0,0.7,0.1c0.2,1.9,0.1,3.9-0.1,5.8
		c0,0.6,0,1.3,0.2,1.9c0.2,1,0.2,2,0,3.1c-0.3,1.4-0.2,2.8,0.2,4.1c0.1,0.4,0.2,0.9,0.3,1.4c-0.7,1.3-1,2.9-0.8,4.4
		c0,0.4,0,0.7-0.1,1.1c-0.2,1.7-0.2,3.5-0.1,5.2h0.1c1.5,0,3.1-0.5,4.6-0.1c1.6-0.7,3.2-0.3,4.7-0.2c1,0.1,2,0,3-0.4
		c1.1-0.5,2.3-0.7,3.6-0.5c1.5,0.1,3,0.7,4.5-0.5c0.2-0.1,0.4-0.2,0.6-0.1c0.9,0,1.8-0.2,2.6,0.2c0.9,0.5,1.7,0,2.5,0.4
		c1.6,0.7,3.5,0.7,5.1-0.1c1.6-0.5,3.3-0.6,4.9-0.2c0.3,0.1,0.5,0.1,0.8,0.1c1.2-0.3,2.4,0.2,3.1,1.1c0.4-0.2,0.7-0.3,1-0.5
		c0.9-0.6,2-0.6,2.9-0.2c0.7,0.3,1.5,0.3,2.2,0c0.4-0.2,0.9-0.3,1.4-0.2c2,0.4,4,0.4,6-0.1c2.2-0.4,4.3,0.5,6.4,0.4
		c1.2,1.1,2.4,0.6,3.6,0c0.4-0.2,0.9-0.2,1.4-0.2c1.4-0.1,2.7-0.4,3.9-0.9c0.9-0.4,2-0.8,2.9,0.2c0.6,0.7,1.6,0.9,2.4,0.4
		c0,0,0.1,0,0.1-0.1c0.3-0.2,0.6-0.3,1-0.3c2.7-0.6,5.3-0.2,8-0.2c0.6,0,1.2,0.1,1.8,0c1.8-0.3,3.6-0.1,5.4,0.5
		c0.4,0.1,0.8,0.2,1.1,0.2c-0.2-0.7-0.2-1.4-0.1-2.1c0.2-2.6,0.4-5.2,0.5-7.8c0-1-0.1-2-0.3-2.9c0.2-0.4,0.5-1,0.8-1.7
		c-0.6-2-0.6-4.1-0.2-6.1c0.1-0.5,0.2-0.9,0.2-1.4c0-2.2-0.2-4.5,0-6.7C294.7,33.8,294.7,32,294.6,30.2z"/>
	<path class="st0" d="M3.4,48.7c0,0.1,0.1,0.1,0.1,0.2c0.1,0.2,0.1,0.3,0.1,0.5c0,0.3,0,0.7,0,1c0,0.1,0,0.2,0,0.3
		c0,0.2,0.1,0.4,0.1,0.5c0,0.2,0.1,0.4,0.2,0.6c0.2,0.3,0.3,0.7,0.3,1c0,0.3,0.1,0.6,0.3,0.8c0.1,0,0.3,0,0.4,0
		c0.8,0,1.4,0.6,1.5,1.4c0,0.2,0,0.3,0.1,0.5c0.1,0.2,0.2,0.5,0.1,0.7c0,0.1,0,0.3,0.1,0.4c0.1,0.1,0.1,0.1,0.1,0.2
		c0.1,0.4,0.3,0.7,0.6,1c0.3,0,0.6,0.1,0.8,0.4c0,0,0.1,0.1,0.1,0.1c0.3,0.1,0.5,0.2,0.6,0.5C8.9,58.9,9,58.9,9.1,59
		c0.4,0.2,0.7,0.4,1.1,0.6c0,0,0,0.2,0.1,0.2c0.3,0.2,0.6,0.5,1,0.5c0.2,0,0.3,0,0.4,0.2c0.3,0.4,0.8,0.6,1.3,0.6
		c0.3,0,0.6,0.2,0.9,0.4c0.3,0.2,0.7,0.4,1.1,0.4c0.3,0,0.5,0.1,0.8,0.2c0.2,0.1,0.4,0.1,0.7,0.1c0.2,0.1,0.5,0.2,0.7,0.3
		c0.1,0,0.2,0,0.3,0c0.1,0,0.2,0,0.4,0c0.2,0,0.4,0,0.6,0.1c0.2,0.1,0.4,0.1,0.6,0.1c0.3,0,0.6,0.1,0.8,0.3c0.3,0.2,0.5,0.4,0.8,0.6
		c0.3,0.1,0.6,0.4,0.6,0.7c0,0.1,0.1,0.2,0.3,0.2c0.1,0,0.1,0,0.2-0.1c0.3-0.2,0.7-0.3,1.1-0.2c0.2,0,0.3,0,0.5,0
		c0.3-0.1,0.6-0.1,0.9-0.2c0.3-0.1,0.7-0.1,1,0c0.2,0.1,0.4,0,0.5,0.1c0.3,0.2,0.7,0.2,1.1,0.1c0.1,0,0.2,0,0.3,0
		c0.2,0,0.4,0,0.6-0.1c0.5-0.2,1-0.4,1.6-0.5c0.1,0,0.2-0.1,0.4-0.1c0.2-0.1,0.3-0.1,0.5-0.2c0,0,0,0,0,0c-0.1,0.1-0.2,0.1-0.3,0.2
		c0,0-0.1,0.1-0.1,0.1c0.2,0,0.3,0,0.5-0.1c0.1,0,0.1,0,0.2,0c0,0.2,0.1,0.5,0.2,0.7c0.2-0.1,0.4-0.3,0.5-0.4c0.1,0,0.1-0.1,0.2-0.1
		c0.3-0.1,0.6-0.2,0.8-0.2c0.1,0,0.2-0.1,0.2-0.1c0.4-0.1,0.7-0.2,1.1-0.1c0.2,0,0.3,0.1,0.5,0.1c0.6,0.1,1.3,0.1,1.9,0.1
		c0,0,0,0,0.1,0c0.6,0.4,1.3,0.6,2.1,0.5c0.4,0,0.8-0.2,1.2-0.2c0.4,0,0.8,0.2,1.3,0.2c1,0.1,2,0.1,2.9,0.1c0.4,0,0.8,0,1.2,0.1
		c0.4,0.1,0.8,0.1,1.2,0c0.7-0.1,1.3-0.1,2-0.1c0.3,0,0.6,0,0.9-0.1c0.8-0.2,1.7,0,2.4,0.5c0.2,0.2,0.4,0.4,0.7,0.6
		c0.5,0.1,1,0,1.5-0.3c0.6-0.3,1.3-0.4,1.9-0.2c0.7,0.2,1.3,0.2,2,0.1c0.4-0.1,0.9-0.1,1.3,0.1c0.1,0,0.1,0,0.2,0
		c0.6-0.2,1.2,0,1.6,0.4c0.2,0.1,0.3,0.2,0.5,0.3c0.7-0.3,1.5-0.5,2.2-0.6c0.3,0,0.5,0,0.7,0.2c0.7,0.4,1.5,0.5,2.3,0.4
		c0.6-0.1,1.1-0.2,1.7-0.2c1-0.1,2-0.1,3-0.1c0.3-0.1,0.5,0,0.7,0.2c0.2,0.2,0.5,0.3,0.8,0.2c0.1,0,0.3-0.1,0.4-0.1
		c0.4-0.1,0.9-0.1,1.4,0.1c0.6,0.1,1.2,0.2,1.8,0.2c0.3-0.1,0.6-0.1,0.9,0.1c0.1,0,0.2,0,0.3,0c0.3-0.1,0.7-0.1,1,0
		c0.8,0.1,1.6,0.4,2.4,0c0,0,0.1,0,0.2,0c0.9,0.1,1.7,0,2.6,0.1c0.7,0.1,1.4,0.1,2.1,0.1c0.1,0,0.3,0,0.4,0.1c0.6,0.2,1.3,0.2,1.9,0
		l0.5,0.4c0.3-0.1,0.6-0.1,0.9-0.1c0.8,0.1,1.6,0.2,2.4,0.3c0.3,0.1,0.6,0,0.9-0.2c0.1-0.1,0.3-0.1,0.4-0.1c0.5,0,0.9,0.1,1.4,0.1
		c0.2,0,0.4,0,0.6,0c0,0,0.1,0,0.1,0c0.3-0.1,0.6,0,0.8,0c0.5,0.1,1,0.1,1.5,0.1c0.4,0,0.9,0,1.3-0.1c0.2,0,0.4,0,0.6,0.1
		C99.5,67,99.8,67,100,67c0.5-0.1,1,0,1.6,0c0.4,0.2,0.9,0.3,1.4,0.2c0.2,0,0.4,0,0.6,0.1c0.7,0.3,1.4,0.3,2.1,0.2
		c0.7-0.1,1.4,0.2,2.1,0c0.1,0,0.2,0,0.2,0.1c0.4,0.2,0.8,0.3,1.3,0.1c0.8-0.1,1.5,0,2.3-0.1c0.1,0,0.2,0,0.2,0.1
		c0.4,0.2,0.8,0.3,1.3,0.2c0.5-0.1,1.1,0,1.6,0.1c0.4,0.3,1,0.3,1.4,0.1c0.1,0,0.2,0,0.3,0c0.5,0,1,0.1,1.5,0.1s1-0.1,1.4,0.1
		c0,0,0.1,0,0.2,0c0.4-0.1,0.8-0.1,1.1,0c0.2,0.1,0.4,0,0.6-0.1c0.3-0.2,0.7-0.3,1.1-0.1c0.6,0.2,1.2,0.3,1.8,0.2c0,0,0.1,0,0.1,0
		c0.2,0,0.4,0,0.5,0c0.1,0,0.2,0,0.3,0.1c0.4,0.1,0.8,0.2,1.2,0.3c0.1,0,0.2-0.1,0.2-0.1c0.1,0,0.2-0.1,0.3-0.2
		c0.2-0.2,0.4-0.2,0.7-0.2c0.3,0,0.7,0,1,0c0.2,0,0.4,0,0.6,0c0,0,0-0.1,0-0.1l0,0c1-0.2,2-0.3,2.9-0.4c0.3-0.1,0.5,0,0.7,0.2
		c0.2,0.2,0.5,0.2,0.8,0.1c0.1,0,0.3-0.1,0.4-0.2c0.2-0.1,0.3-0.1,0.5-0.1c0.1-0.1,0.1-0.1,0.2-0.2c0.1-0.1,0.1-0.1,0.2-0.2
		c0.2-0.1,0.5-0.3,0.6-0.5c0.1-0.1,0.1-0.1,0.2-0.2c0.7,0.2,1.4,0.2,2,0c0.7-0.2,1.4,0.1,2.1-0.2c0.1,0,0.2,0,0.2,0.1
		c0.4,0.2,0.9,0.2,1.3,0.1c0.7-0.2,1.5-0.1,2.2-0.2c0.1,0,0.2,0,0.3,0c0.4,0.2,0.8,0.2,1.3,0.1c0.5-0.1,1-0.1,1.6,0
		c0.4,0.2,1,0.2,1.4,0c0.1,0,0.2,0,0.3,0c0.5,0,1,0,1.5,0s1-0.2,1.4,0.1c0,0,0.1,0,0.2,0c0.4-0.1,0.7-0.2,1.1-0.1
		c0.2,0,0.4,0,0.6-0.1c0.3-0.2,0.7-0.3,1.1-0.1c0.6,0.2,1.2,0.2,1.8,0.1c0.3,0,0.6-0.1,0.9-0.1c0.1,0.2,0.3,0.3,0.5,0.3
		c0.3,0,0.7,0,1-0.1c0.4-0.1,0.9-0.1,1.3-0.2c0.2,0,0.4,0,0.6,0c0.3,0.1,0.6,0.1,0.8,0c0.5-0.1,1-0.1,1.6-0.2c0.5,0.2,1,0.2,1.4,0.1
		c0.2,0,0.4,0,0.6,0c0.5,0.2,1.1,0.2,1.7,0.1c0,0,0,0,0.1,0c0.1,0,0.3-0.1,0.4-0.1c0.7-0.2,1.4,0.1,2.1-0.3c0.1,0,0.1,0,0.2,0
		c0,0,0.1-0.1,0.1-0.1c0.3-0.2,0.6-0.3,0.9-0.2c0.2,0,0.4,0,0.6,0c0.1,0,0.3-0.1,0.3,0c0.2,0.1,0.4,0.1,0.6,0.1
		c0.2-0.1,0.4,0,0.6,0.1c0.1,0,0.2,0,0.3,0c0.3-0.2,0.6-0.3,0.9-0.4c0.1,0,0.2-0.1,0.2-0.2c0.1-0.1,0.2-0.2,0.2-0.3
		c0.1-0.1,0.2-0.1,0.2-0.1c0.4,0,0.7-0.2,1.1-0.3c0.2-0.2,0.4-0.1,0.6-0.1c0.4,0,0.8-0.1,1.1-0.3c0.3-0.2,0.6-0.4,0.8-0.6
		c0.2-0.2,0.5-0.4,0.7-0.5c0.1-0.1,0.2-0.1,0.3-0.1c0.3,0.1,0.5-0.1,0.8-0.1c0.1,0,0.1,0,0.1-0.1c0.2-0.3,0.6-0.2,0.8-0.5
		c0,0,0.1,0,0.2-0.1c0.1,0,0.2-0.1,0.3-0.1c0.2-0.1,0.4-0.2,0.6-0.3c0.2-0.1,0.4-0.2,0.6-0.3c0.1-0.1,0.2-0.1,0.4-0.1
		c0.2,0.1,0.4,0,0.6-0.2c0.2-0.2,0.6-0.3,0.9-0.1c0.1,0.1,0.3,0.1,0.4,0.1c0.3,0,0.6-0.2,0.7-0.6c0-0.1,0-0.1,0-0.2
		c0-0.2,0.1-0.3,0.3-0.4c0.2,0,0.2-0.2,0.2-0.3c0-0.2,0.1-0.5,0.2-0.7c0-0.1,0.1-0.2,0.1-0.2c0.3-0.2,0.6-0.4,0.9-0.6
		c0.1-0.1,0.2-0.1,0.2-0.2c0.1-0.1,0.2-0.2,0.2-0.2c0.1,0,0.1-0.1,0.2-0.2c0.3-0.5,0.8-0.9,1.2-1.2c0.2-0.1,0.3-0.3,0.5-0.4
		c0.3-0.4,0.6-0.8,1-1.2c0.1-0.1,0.1-0.1,0.2-0.2c0,0,0.1-0.1,0.1-0.1c0.1-0.3,0.3-0.4,0.5-0.5c0.2-0.1,0.2-0.3,0.3-0.4
		c0.2-0.1,0.3-0.2,0.4-0.3c0.1-0.1,0.1-0.2,0.2-0.2l0.6,0.4c0.4,0.3,0.4,0.3,0.6-0.1c0,0,0-0.1,0-0.1c0.2-0.3,0.2-0.6,0.1-0.9
		c0-0.1,0-0.3,0-0.4c0.2-0.4,0.3-0.9,0.3-1.3c0,0,0-0.1,0-0.1c0,0,0,0,0-0.1c0.1-0.3,0.1-0.6,0.1-0.8c0-0.1,0-0.2,0.1-0.3
		c0.2-0.3,0.5-0.5,0.8-0.7c0.2-0.2,0.4-0.3,0.5-0.5c0.1-0.2,0.1-0.5,0.2-0.7c0-0.1,0-0.1,0-0.2c-0.2-0.2-0.4-0.5-0.8-0.5
		c-0.1,0-0.1,0-0.1-0.1c0,0,0.1-0.1,0.1-0.1c0.2-0.1,0.3-0.3,0.2-0.5c0-0.3,0-0.5,0.2-0.8c0,0.1,0.1,0.2,0.1,0.2
		c0.1,0.1,0.1,0.2,0.1,0.3c0,0.1,0.1,0.2,0.1,0.3c0,0,0,0.1,0.1,0.1c0-0.8,0-1.5,0-2.3c0-0.3,0-0.6,0.1-0.9c0.3-1.2,0.3-2.4,0-3.5
		c-0.1,0-0.3-0.1-0.4-0.2v0c0.1-0.1,0.1-0.3,0.1-0.4l0,0c0,0,0,0,0-0.1c0-0.2,0.1-0.3,0.3-0.4c0.1,0,0.2-0.2,0.2-0.3
		c0-0.3-0.1-0.5-0.2-0.7c-0.1-0.1-0.1-0.3-0.2-0.4l0,0c-0.1-0.2-0.2-0.5-0.4-0.7c0-0.1-0.1-0.2-0.1-0.3c-0.1-0.2-0.2-0.5-0.2-0.7
		c0-0.2-0.1-0.4-0.2-0.6c-0.1-0.2-0.2-0.4-0.2-0.6c0-0.2,0-0.5,0.1-0.7c0-0.1,0.1-0.1,0.1-0.2c0-0.1,0.1-0.2,0.2-0.2
		c0.2,0,0.3-0.1,0.3-0.3c0.1-0.3,0-0.7-0.2-0.9c-0.1-0.2-0.2-0.3-0.3-0.5c-0.1-0.1-0.2-0.3-0.2-0.4c0-0.1-0.1-0.3-0.2-0.4
		c-0.3-0.3-0.4-0.8-0.5-1.2c0-0.3-0.1-0.5-0.3-0.7c-0.2-0.3-0.4-0.5-0.5-0.8c0-0.1,0-0.1-0.1-0.2c0-0.1,0-0.1,0-0.2
		c-0.1-0.3-0.1-0.5-0.2-0.8c-0.1-0.2-0.2-0.4-0.3-0.6c-0.2-0.4-0.3-0.7-0.5-1.1c0,0,0-0.1-0.1-0.1c-0.1-0.2-0.2-0.4-0.3-0.6
		c0-0.1-0.1-0.1-0.1-0.2c0-0.1-0.1-0.1-0.1-0.2c-0.1-0.2-0.2-0.4-0.4-0.6c-0.1-0.1-0.1-0.2-0.2-0.2c-0.2-0.2-0.4-0.4-0.5-0.5
		c-0.2-0.2-0.4-0.3-0.6-0.5c-0.1,0-0.1-0.1-0.2-0.2c-0.1-0.2-0.2-0.3-0.4-0.3c-0.2-0.1-0.3-0.1-0.5-0.2c-0.1-0.1-0.2-0.1-0.3-0.2
		c-0.1-0.1-0.2-0.1-0.3-0.2c-0.2-0.2-0.4-0.4-0.5-0.7c-0.1-0.1-0.2-0.3-0.2-0.4c0-0.1-0.1-0.1-0.1-0.1c-0.1-0.1-0.1-0.1-0.2-0.2
		c-0.2-0.1-0.4-0.1-0.6-0.2c-0.1,0-0.2-0.1-0.3-0.2c-0.1-0.1-0.2-0.3-0.3-0.4c-0.1-0.2-0.2-0.3-0.4-0.4c-0.1,0-0.2-0.1-0.2-0.2
		c0-0.1-0.1-0.3-0.2-0.4c-0.1-0.1-0.2-0.3-0.3-0.4c-0.1-0.3-0.5-0.4-0.7-0.6c0,0-0.1,0-0.1,0c-0.3,0-0.5-0.1-0.7-0.3
		c0,0,0-0.1-0.1-0.1c0,0-0.1-0.1-0.1-0.1c-0.2-0.1-0.5-0.1-0.7-0.1c-0.1,0-0.2-0.1-0.3-0.1c-0.3-0.2-0.6-0.2-0.9-0.1
		c0,0-0.1,0-0.1,0h0c-0.2,0-0.3,0-0.4-0.1c-0.2-0.1-0.3-0.1-0.5-0.1c-0.1,0-0.3-0.1-0.4-0.2c-0.1-0.1-0.3-0.2-0.4-0.1
		c-0.2,0-0.4,0-0.5-0.1c-0.1-0.1-0.2-0.1-0.4,0c-0.1,0-0.2,0.1-0.3,0.1c-0.2,0.1-0.4,0-0.6-0.1c-0.1-0.1-0.2-0.1-0.3-0.2
		c-0.1,0-0.1-0.1-0.2-0.1c-0.1-0.1-0.2-0.1-0.3-0.1c0,0-0.1,0-0.1,0c-0.1-0.1-0.2-0.1-0.3,0c-0.3,0.1-0.6,0.1-0.9,0
		c-0.3-0.1-0.5-0.1-0.8-0.1c-0.1,0-0.2,0-0.2,0c-0.1,0-0.2,0-0.3,0c-0.1,0-0.3,0-0.4-0.1c-0.1-0.1-0.3-0.1-0.4-0.2
		c-0.2-0.1-0.4-0.2-0.7-0.2c-0.1,0-0.2,0-0.3-0.1c-0.2-0.1-0.3-0.2-0.5-0.2c0,0-0.1,0-0.1,0c-0.2,0-0.3-0.1-0.5-0.2
		c-0.1,0-0.2-0.1-0.3,0c-0.1,0-0.1,0-0.2,0c-0.2,0.1-0.3,0.2-0.4,0.3c-0.3,0.1-0.6,0.1-0.8,0.2l-0.6-0.1c0,0-0.1,0-0.1,0
		c-0.1,0-0.3,0-0.4,0c-0.1,0-0.1,0-0.2,0.1c0,0,0,0,0,0c-0.2,0.1-0.4,0.2-0.6,0.1c-0.3,0-0.5,0-0.8,0.1c-0.2,0-0.4,0-0.6,0.1
		c-0.3,0.1-0.5,0-0.7-0.2c-0.2-0.2-0.5-0.3-0.8-0.2c-0.1,0-0.3,0.1-0.4,0.1c-0.4,0.2-0.9,0.2-1.4,0c-0.6-0.1-1.2-0.1-1.8-0.2
		c-0.3,0.2-0.6,0.1-0.9,0c-0.1,0-0.2,0-0.2,0c-0.3,0.1-0.7,0.1-1,0.1c-0.8,0-1.6-0.4-2.4,0.1c0,0-0.1,0-0.2,0c-0.9,0-1.7,0.1-2.6,0
		c-0.7,0-1.4,0-2.1,0c-0.1,0-0.3,0-0.4-0.1c-0.6-0.2-1.3-0.2-1.9,0.1l-0.5-0.4c-0.3,0.1-0.6,0.1-0.9,0.1c-0.8,0-1.6-0.1-2.4-0.2
		c-0.3-0.1-0.6,0-0.9,0.2c-0.1,0.1-0.3,0.1-0.4,0.1c-0.5,0-0.9-0.1-1.4-0.1c-0.2,0-0.4,0-0.6,0c-0.3,0.1-0.6,0.1-0.9,0
		c-0.5-0.1-1-0.1-1.5,0c-0.3,0-0.5,0.1-0.8,0.1c-1.5-0.1-2.9-0.2-4.4-0.2c-0.5,0-1.1,0-1.6,0c-0.5-0.1-1.1-0.1-1.6,0.1h0
		c-0.6,0.1-1.1,0-1.7-0.1c-0.3-0.1-0.6-0.1-0.8-0.1c-0.1,0-0.1,0-0.2-0.1c-0.3-0.1-0.5-0.2-0.7-0.5c-0.1,0-0.3,0-0.4,0
		c-0.1,0-0.1,0-0.2-0.1c0,0,0,0-0.1,0.1c-0.1,0.1-0.3,0.1-0.4,0.1c-0.2,0.2-0.4,0.3-0.7,0.4c-0.8,0.2-1.6,0.2-2.4,0.1
		c-0.2,0-0.5,0-0.7,0.1c-0.9,0.3-1.8,0.4-2.8,0.1c-0.1,0-0.3,0-0.4,0c-1.5,0.1-3.1,0.1-4.6,0.1c-1.2,0-2.3-0.2-3.5-0.5
		c-0.4-0.2-0.8-0.1-1.2,0.1c-0.4,0.3-0.9,0.4-1.5,0.5c-1.3,0.1-2.6-0.1-3.9-0.5c-0.1,0-0.2,0-0.3,0l-0.7,0.9
		c-0.7-0.7-1.5-0.4-2.3-0.4c-0.3,0-0.6,0.1-0.8,0c-2.1-0.1-4.1,0-6.2,0.2c-0.9,0.1-1.8,0.1-2.6-0.2c-1.1-0.5-2.4-0.5-3.6-0.1
		C88,14,87.7,14,87.3,13.9c-1.4,0-2.8,0.2-4.2,0.6c-0.6,0.2-1.3,0.2-1.9,0.1c-0.7-0.1-1.5-0.3-2.2-0.4c-0.7-0.1-1.4-0.2-2.1-0.2
		c-0.2,0-0.4-0.1-0.5-0.2c-0.5-0.3-1-0.4-1.6-0.2c-0.7,0.2-1.5,0.2-2.2,0c-0.8,0-1.5-0.1-2.2-0.3c-0.1-0.1-0.3,0-0.4,0
		c-0.4,0.2-0.9,0.2-1.3,0c-0.5-0.1-1.1-0.2-1.6-0.3c-0.1,0-0.2,0.1-0.3,0.1c-0.5,0.5-1.3,0.8-2.1,0.6c-1.4-0.2-2.9-0.3-4.2-0.4
		c-0.2,0.2-0.2,0.4-0.4,0.4c-0.2,0.1-0.5-0.1-0.7,0c-0.5,0.3-1.1,0.2-1.6,0c-0.1-0.1-0.3-0.1-0.4,0c-0.7,0.5-1.6,0.4-2.4,0.8
		c-0.4,0.2-0.8,0.2-1.2,0.2c-0.8-0.2-1.7-0.1-2.5,0.1c-0.4,0.2-0.9,0.1-1.4-0.1c-0.3-0.2-0.7-0.2-1.1,0c-0.8,0.3-1.6,0.3-2.4,0.2
		c-1.9-0.2-3.7-0.2-5.6,0.1c-0.5,0.5-1,1-1.5,1.4c-0.4,0.1-0.7,0.3-1,0.6c-0.2-0.1-0.3-0.2-0.4-0.1c-0.8,0.2-1.7,0.2-2.5,0.3
		c-0.4,0-0.9,0-1.3,0.1c-0.5,0.2-0.8-0.2-1.2-0.3c-0.3,0-0.5-0.1-0.8-0.1l-0.3,0.4c-1-0.7-2.1-0.1-3.1-0.5c0,0-0.1,0-0.2,0
		C27.9,17,27.5,17,27,17c-0.2,0.3-0.7,0.4-1.1,0.3c-0.1,0-0.2,0-0.3,0.1c-0.5,0.3-1,0.5-1.5,0.7c-0.1,0-0.1,0.1-0.2,0.2
		c-0.1,0.2-0.4,0.3-0.6,0.2c-0.3,0-0.5,0-0.7,0.2c-0.2,0.1-0.3,0.2-0.5,0.3c-0.6,0.3-1.1,0.8-1.3,1.4c0,0.1-0.2,0.2-0.3,0.3l0,0
		c0,0.2,0,0.4-0.1,0.5c-0.3,0.3-0.6,0.6-0.9,1c-0.1,0.2-0.1,0.4-0.1,0.6c-0.1,0-0.1,0.1-0.2,0.1c-0.2,0.2-0.5,0.3-0.8,0.4
		c-0.2,0.1-0.5,0.3-0.6,0.5c-0.3,0.4-0.6,0.7-1.1,0.9c-0.2,0.1-0.3,0.1-0.5,0.3c-0.3,0.3-0.7,0.5-1,0.8c-0.2,0.2-0.5,0.4-0.7,0.5
		c-0.3,0.1-0.6,0.4-0.9,0.5c-0.4,0.3-0.9,0.5-1.4,0.5c-0.1,0-0.1,0-0.1,0.1c-0.6,0.3-1.2,0.6-1.8,0.7c-0.7,0.3-1.4,0.8-1.9,1.4
		c0,0.1-0.1,0.1-0.2,0.1c-0.4,0.4-0.7,0.9-1.2,1.3c-0.1,0.2-0.3,0.3-0.4,0.5c-0.1,0.1-0.1,0.2-0.2,0.3c-0.2,0.4-0.4,0.7-0.7,1
		c-0.1,0.1-0.1,0.1-0.1,0.2c-0.1,0.2-0.2,0.5-0.3,0.7c-0.1,0.3-0.3,0.6-0.5,0.9c-0.1,0.2-0.2,0.4-0.3,0.6c-0.1,0.8-0.5,1.5-0.9,2.1
		c-0.2,0.2-0.2,0.5-0.2,0.7c0,0.3,0,0.7-0.2,1c-0.1,0.3-0.1,0.5-0.1,0.8c0,0.5-0.1,1-0.2,1.5C3.1,43.7,3.2,46.2,3.4,48.7z"/>
	<path class="st1" d="M40,52.8c-0.3,0.1-0.6,0.1-0.9,0.3c-0.2,0.1-0.3,0.1-0.5,0.1c-0.2,0-0.4,0.1-0.6,0.2c-0.1,0.1-0.3,0.1-0.5,0.1
		c-0.5-0.1-1-0.1-1.5,0c-0.1,0-0.3,0-0.4,0c-0.2,0-0.4,0-0.6,0c-0.2,0-0.3,0-0.5,0c0,0-0.1,0-0.1,0c-0.2-0.1-0.5-0.1-0.8-0.1
		c-0.1,0-0.1,0-0.2,0c-0.1,0-0.3,0-0.4-0.1c-0.3-0.1-0.7-0.2-1.1-0.3c0,0-0.1,0-0.1-0.1c-0.5-0.1-0.9-0.4-1.3-0.7
		c-0.3-0.3-0.6-0.6-0.9-0.8c0,0-0.1,0-0.1-0.1c-0.1-0.3-0.4-0.5-0.6-0.7c-0.2-0.1-0.4-0.2-0.5-0.4c-0.1-0.1-0.3-0.2-0.5-0.3
		c-0.2-0.1-0.5-0.2-0.7-0.4c-0.1-0.1-0.2-0.1-0.3-0.2c-0.2-0.2-0.5-0.3-0.8-0.4c-0.2,0-0.3-0.1-0.4-0.2c-0.1-0.1-0.3-0.2-0.5-0.3
		c-0.2-0.1-0.3-0.3-0.4-0.5c0,0,0-0.1,0-0.1c-0.2-0.2-0.4-0.5-0.6-0.7c-0.1,0-0.1-0.1-0.1-0.2c-0.1-0.1-0.2-0.2-0.2-0.3
		c0,0-0.1-0.1-0.1-0.1c0-0.2-0.2-0.4-0.2-0.6c0-0.1-0.1-0.2-0.1-0.4c0,0,0-0.1,0-0.1c0.2-0.3,0.1-0.7-0.1-1c0-0.1-0.1-0.1-0.1-0.2
		C23.2,44,23,43.7,23,43.5c-0.1-0.2-0.1-0.5-0.1-0.7c0.1-0.4-0.1-0.7-0.3-1c-0.1-0.1-0.2-0.1-0.2-0.2c-0.1-0.1-0.2-0.3-0.2-0.4
		c0-0.3,0-0.6-0.1-0.9c0-0.1,0-0.2,0-0.2c0.2-0.2,0.1-0.5,0.1-0.8c0-0.1-0.1-0.2-0.1-0.3c0.1-0.1,0.1-0.2,0.1-0.3
		c0-0.1,0-0.2,0.1-0.2c0.1-0.1,0.1-0.2,0.2-0.3c0.1-0.3,0.2-0.5,0.3-0.8c0.2-0.3,0.1-0.6,0.3-0.9c0-0.1,0-0.1,0-0.2
		c-0.1-0.1,0-0.3,0.1-0.4c0.2-0.1,0.3-0.3,0.4-0.5c0-0.1,0.1-0.2,0.1-0.3c0.1-0.2,0.1-0.3,0.1-0.5c0,0,0,0,0,0
		c0-0.2,0.1-0.3,0.1-0.4c0-0.1,0-0.3,0-0.4c0.1-0.2,0.2-0.4,0.4-0.5c0.2-0.1,0.3-0.3,0.5-0.4c0.1-0.1,0.2-0.2,0.3-0.3
		c0,0,0.1-0.1,0.1-0.1c0.2,0,0.3-0.1,0.4-0.3c0,0,0.1-0.1,0.1-0.1c0.2,0,0.4-0.2,0.4-0.4c0.2-0.3,0.3-0.7,0.5-1
		c0-0.1,0.1-0.1,0.2-0.2c0.2-0.1,0.4-0.3,0.6-0.5c0.1-0.1,0.2-0.2,0.4-0.2c0.1-0.1,0.2-0.1,0.3-0.3c0,0,0.1-0.1,0.1-0.1
		c0.3-0.2,0.6-0.4,0.9-0.6c0.1,0,0.1-0.1,0.2-0.1c0.1,0,0.1-0.1,0.2-0.1c0.1-0.2,0.3-0.2,0.5-0.3c0.1,0,0.2-0.1,0.2-0.2
		c0.1-0.1,0.2-0.2,0.4-0.2c0.3-0.1,0.5-0.1,0.8-0.2c0.1,0,0.2-0.1,0.3-0.2c0.2-0.2,0.5-0.4,0.9-0.5c0.1,0,0.1,0,0.2,0
		c0.2,0,0.4,0,0.7,0c0.2,0,0.4,0,0.6,0.1c0.1,0.1,0.1,0.1,0.2,0c0.2,0,0.4-0.1,0.5-0.1c0.2-0.1,0.5-0.1,0.8-0.1
		C35.7,27,36,27,36.3,27c0.2,0,0.4,0,0.5,0.1c0.2,0.1,0.3,0.1,0.5,0.2c0.2,0,0.5,0,0.7,0.1c0.1,0,0.3,0,0.4-0.1
		c0.2,0.1,0.5,0.1,0.7,0l0-0.1c0.3,0.1,0.5,0.2,0.8,0.1c0.2,0,0.3,0,0.5,0c0.2,0.1,0.5,0.1,0.7,0.1c0,0,0.1,0,0.1,0
		c0.1,0.1,0.2,0.1,0.3,0.2c0.1,0,0.2,0.1,0.3,0.1c0.1,0.1,0.2,0.1,0.4,0.1l0.1,0.3c0.1,0.1,0.2,0.3,0.3,0.3c0.2,0.1,0.3,0.3,0.3,0.5
		c0,0.2,0.1,0.3,0.2,0.4c0,0.1,0.1,0.1,0.1,0.2c0,0,0.1,0.1,0.1,0.1c0.2,0.1,0.3,0.2,0.4,0.4c0,0,0.1,0.1,0.1,0.1
		c0.1,0,0.3,0.1,0.3,0.3c0.1,0.1,0.1,0.2,0.2,0.3c0.2,0.1,0.3,0.3,0.4,0.5c0.1,0.2,0.2,0.3,0.4,0.5c0.1,0.1,0.1,0.1,0.2,0.2
		c0.2,0.2,0.5,0.5,0.7,0.7c0.1,0.1,0.2,0.2,0.2,0.3c0,0.1,0.1,0.1,0.1,0.2c0.2,0.2,0.2,0.4,0.2,0.6c0,0.1,0.1,0.2,0.1,0.3
		c0,0.2,0.1,0.4,0.2,0.6c0.1,0.2,0.2,0.3,0.3,0.5c0.1,0.1,0.1,0.2,0.1,0.3c0,0.2,0.2,0.5,0.4,0.6c0.1,0,0.1,0.1,0.1,0.2
		c0,0,0,0.1-0.1,0.1C48,36.3,48,36.5,48,36.7c0,0.2,0,0.4-0.1,0.6c0,0.2,0,0.4,0.1,0.6c0.1,0.1,0.1,0.2,0.1,0.4c0,0.1,0,0.3,0.1,0.4
		l0.1,0.2c0,0,0.1,0.1,0.1,0.2c0,0.2,0,0.3,0,0.5c0.1,0.1,0.1,0.3,0.1,0.4c0,0.2,0,0.3,0.1,0.5c0.1,0.2,0.1,0.5,0,0.7
		c-0.1,0.2-0.1,0.4,0,0.6c0.1,0.3,0.1,0.6,0,0.9c0,0.1,0,0.2,0,0.3c0.1,0.2,0,0.5,0,0.7c0,0-0.1,0.1-0.1,0.1c0,0.3,0,0.5,0,0.8
		c0,0.1,0,0.1,0,0.2c-0.1,0.1-0.1,0.3-0.1,0.5c0,0,0,0,0,0.1c-0.1,0.2-0.1,0.4,0,0.6c-0.1,0.2-0.2,0.4-0.4,0.6c0,0-0.1,0.1-0.1,0.1
		c0,0.1-0.1,0.1-0.2,0.1c-0.2,0-0.3,0.1-0.4,0.3c-0.1,0.1-0.1,0.1-0.2,0.2c-0.4,0.2-0.6,0.8-0.4,1.2c0,0.1,0.1,0.1,0.1,0.2
		c-0.1,0.2-0.2,0.3-0.4,0.4c-0.2,0.1-0.4,0.3-0.5,0.4c-0.1,0.1-0.2,0.2-0.3,0.3c-0.1,0.1-0.2,0.1-0.3,0.2c0,0-0.1,0.1-0.1,0.1
		c-0.2,0.1-0.4,0.1-0.6,0.3c-0.1,0.1-0.3,0.2-0.3,0.3L40,52.8z"/>
	<path class="st1" d="M83.6,52.8c-0.3,0.1-0.6,0.1-0.9,0.3c-0.2,0.1-0.3,0.1-0.5,0.1c-0.2,0-0.4,0.1-0.6,0.2
		c-0.1,0.1-0.3,0.1-0.5,0.1c-0.5-0.1-1-0.1-1.5,0c-0.1,0-0.3,0-0.4,0c-0.2,0-0.4,0-0.6,0c-0.2,0-0.3,0-0.5,0c0,0-0.1,0-0.1,0
		c-0.2-0.1-0.5-0.1-0.8-0.1c-0.1,0-0.1,0-0.2,0c-0.1,0-0.3,0-0.4-0.1c-0.3-0.1-0.7-0.2-1.1-0.3c0,0-0.1,0-0.1-0.1
		c-0.5-0.1-0.9-0.4-1.3-0.7c-0.3-0.3-0.6-0.6-0.9-0.8c0,0-0.1,0-0.1-0.1c-0.1-0.3-0.4-0.5-0.6-0.7c-0.2-0.1-0.4-0.2-0.5-0.4
		c-0.1-0.1-0.3-0.2-0.5-0.3c-0.2-0.1-0.5-0.2-0.7-0.4c-0.1-0.1-0.2-0.1-0.3-0.2c-0.2-0.2-0.5-0.3-0.8-0.4c-0.2,0-0.3-0.1-0.4-0.2
		c-0.1-0.1-0.3-0.2-0.5-0.3c-0.2-0.1-0.3-0.3-0.4-0.5c0,0,0-0.1,0-0.1c-0.2-0.2-0.4-0.5-0.6-0.7c-0.1,0-0.1-0.1-0.1-0.2
		c-0.1-0.1-0.2-0.2-0.2-0.3c0,0-0.1-0.1-0.1-0.1c0-0.2-0.2-0.4-0.2-0.6c0-0.1-0.1-0.2-0.1-0.4c0,0,0-0.1,0-0.1
		c0.2-0.3,0.1-0.7-0.1-1c0-0.1-0.1-0.1-0.1-0.2c-0.1-0.2-0.2-0.5-0.3-0.7c-0.1-0.2-0.1-0.5-0.1-0.7c0.1-0.4-0.1-0.7-0.3-1
		c-0.1-0.1-0.2-0.1-0.2-0.2c-0.1-0.1-0.2-0.3-0.2-0.4c0-0.3,0-0.6-0.1-0.9c0-0.1,0-0.2,0-0.2c0.2-0.2,0.1-0.5,0.1-0.8
		c0-0.1-0.1-0.2-0.1-0.3c0.1-0.1,0.1-0.2,0.1-0.3c0-0.1,0-0.2,0.1-0.2c0.1-0.1,0.1-0.2,0.2-0.3c0.1-0.3,0.2-0.5,0.3-0.8
		c0.2-0.3,0.1-0.6,0.3-0.9c0-0.1,0-0.1,0-0.2c-0.1-0.1,0-0.3,0.1-0.4c0.2-0.1,0.3-0.3,0.4-0.5c0-0.1,0.1-0.2,0.1-0.3
		c0.1-0.2,0.1-0.3,0.1-0.5c0,0,0,0,0,0c0-0.2,0.1-0.3,0.1-0.4c0-0.1,0-0.3,0-0.4c0.1-0.2,0.2-0.4,0.4-0.5c0.2-0.1,0.3-0.3,0.5-0.4
		c0.1-0.1,0.2-0.2,0.3-0.3c0,0,0.1-0.1,0.1-0.1c0.2,0,0.3-0.1,0.4-0.3c0,0,0.1-0.1,0.1-0.1c0.2,0,0.4-0.2,0.4-0.4
		c0.2-0.3,0.3-0.7,0.5-1c0-0.1,0.1-0.1,0.2-0.2c0.2-0.1,0.4-0.3,0.6-0.5c0.1-0.1,0.2-0.2,0.4-0.2c0.1-0.1,0.2-0.1,0.3-0.3
		c0,0,0.1-0.1,0.1-0.1c0.3-0.2,0.6-0.4,0.9-0.6c0.1,0,0.1-0.1,0.2-0.1c0.1,0,0.1-0.1,0.2-0.1c0.1-0.2,0.3-0.2,0.5-0.3
		c0.1,0,0.2-0.1,0.2-0.2C73.8,28,73.9,28,74,28c0.3-0.1,0.5-0.1,0.8-0.2c0.1,0,0.2-0.1,0.3-0.2c0.2-0.2,0.5-0.4,0.8-0.5
		c0.1,0,0.1,0,0.2,0c0.2,0,0.4,0,0.7,0c0.2,0,0.4,0,0.6,0.1c0.1,0.1,0.1,0.1,0.2,0c0.2,0,0.4-0.1,0.5-0.1c0.2-0.1,0.5-0.1,0.8-0.1
		c0.3,0.1,0.6,0.1,0.9,0.1c0.2,0,0.4,0,0.6,0.1c0.2,0.1,0.3,0.1,0.5,0.2c0.2,0,0.5,0,0.7,0.1c0.1,0,0.3,0,0.4-0.1
		c0.2,0.1,0.5,0.1,0.7,0l0-0.1c0.3,0.1,0.5,0.2,0.8,0.1c0.2,0,0.3,0,0.5,0c0.2,0.1,0.5,0.1,0.7,0.1c0,0,0.1,0,0.1,0
		c0.1,0.1,0.2,0.1,0.3,0.2c0.1,0,0.2,0.1,0.3,0.1c0.1,0.1,0.2,0.1,0.4,0.1l0.1,0.3c0.1,0.1,0.2,0.3,0.3,0.3c0.2,0.1,0.3,0.3,0.3,0.5
		c0,0.2,0.1,0.3,0.2,0.4c0,0.1,0.1,0.1,0.1,0.2c0,0,0.1,0.1,0.1,0.1c0.2,0.1,0.3,0.2,0.4,0.4c0,0,0.1,0.1,0.1,0.1
		c0.1,0,0.3,0.1,0.3,0.3c0.1,0.1,0.1,0.2,0.2,0.3c0.2,0.1,0.3,0.3,0.4,0.5c0.1,0.2,0.2,0.3,0.4,0.5c0.1,0.1,0.1,0.1,0.2,0.2
		c0.2,0.2,0.5,0.5,0.7,0.7c0.1,0.1,0.2,0.2,0.2,0.3c0,0.1,0.1,0.1,0.1,0.2c0.2,0.2,0.2,0.4,0.2,0.6c0,0.1,0.1,0.2,0.1,0.3
		c0,0.2,0.1,0.4,0.2,0.6c0.1,0.2,0.2,0.3,0.3,0.5c0.1,0.1,0.1,0.2,0.1,0.3c0,0.2,0.2,0.5,0.4,0.6c0.1,0,0.1,0.1,0.1,0.2
		c0,0,0,0.1-0.1,0.1c-0.2,0.1-0.3,0.3-0.2,0.6c0,0.2,0,0.4-0.1,0.6c0,0.2,0,0.4,0.1,0.6c0.1,0.1,0.1,0.2,0.1,0.4
		c0,0.1,0,0.3,0.1,0.4c0,0.1,0.1,0.1,0.1,0.2c0,0,0.1,0.1,0.1,0.2c0,0.2,0,0.3,0,0.5c0.1,0.1,0.1,0.3,0.1,0.4c0,0.2,0,0.3,0.1,0.5
		c0.1,0.2,0.1,0.5,0,0.7c-0.1,0.2-0.1,0.4,0,0.6c0.1,0.3,0.1,0.6,0,0.9c0,0.1,0,0.2,0,0.3c0.1,0.2,0,0.5,0,0.7c0,0-0.1,0.1-0.1,0.1
		c0,0.3,0,0.5,0,0.8c0,0.1,0,0.1,0,0.2c-0.1,0.1-0.1,0.3-0.1,0.5c0,0,0,0,0,0.1c-0.1,0.2-0.1,0.4,0,0.6c-0.1,0.2-0.2,0.4-0.4,0.6
		c0,0-0.1,0.1-0.1,0.1c0,0.1-0.1,0.1-0.2,0.1c-0.2,0-0.3,0.1-0.4,0.3c-0.1,0.1-0.1,0.1-0.2,0.2c-0.4,0.2-0.6,0.8-0.4,1.2
		c0,0.1,0.1,0.1,0.1,0.2c-0.1,0.2-0.2,0.3-0.4,0.4c-0.2,0.1-0.4,0.3-0.5,0.4c-0.1,0.1-0.2,0.2-0.3,0.3c-0.1,0.1-0.2,0.1-0.3,0.2
		c0,0-0.1,0.1-0.1,0.1c-0.2,0.1-0.4,0.1-0.6,0.3c-0.1,0.1-0.3,0.2-0.3,0.3L83.6,52.8z"/>
	<path class="st1" d="M129.1,52.8c-0.3,0.1-0.6,0.1-0.9,0.3c-0.2,0.1-0.3,0.1-0.5,0.1c-0.2,0-0.4,0.1-0.6,0.2
		c-0.1,0.1-0.3,0.1-0.5,0.1c-0.5-0.1-1-0.1-1.5,0c-0.1,0-0.3,0-0.4,0c-0.2,0-0.4,0-0.6,0c-0.2,0-0.3,0-0.5,0c0,0-0.1,0-0.1,0
		c-0.2-0.1-0.5-0.1-0.8-0.1c-0.1,0-0.1,0-0.2,0c-0.1,0-0.3,0-0.4-0.1c-0.3-0.1-0.7-0.2-1.1-0.3c0,0-0.1,0-0.1-0.1
		c-0.5-0.1-0.9-0.4-1.3-0.7c-0.3-0.3-0.6-0.6-0.9-0.8c0,0-0.1,0-0.1-0.1c-0.1-0.3-0.4-0.5-0.6-0.7c-0.2-0.1-0.4-0.2-0.5-0.4
		c-0.1-0.1-0.3-0.2-0.5-0.3c-0.2-0.1-0.5-0.2-0.7-0.4c-0.1-0.1-0.2-0.1-0.3-0.2c-0.2-0.2-0.5-0.3-0.8-0.4c-0.2,0-0.3-0.1-0.4-0.2
		c-0.1-0.1-0.3-0.2-0.5-0.3c-0.2-0.1-0.3-0.3-0.4-0.5c0,0,0-0.1,0-0.1c-0.2-0.2-0.4-0.5-0.6-0.7c-0.1,0-0.1-0.1-0.1-0.2
		c-0.1-0.1-0.2-0.2-0.2-0.3c0,0-0.1-0.1-0.1-0.1c0-0.2-0.2-0.4-0.2-0.6c0-0.1-0.1-0.2-0.1-0.4c0,0,0-0.1,0-0.1
		c0.2-0.3,0.1-0.7-0.1-1c0-0.1-0.1-0.1-0.1-0.2c-0.1-0.2-0.2-0.5-0.3-0.7c-0.1-0.2-0.1-0.5-0.1-0.7c0.1-0.4-0.1-0.7-0.3-1
		c-0.1-0.1-0.2-0.1-0.2-0.2c-0.1-0.1-0.2-0.3-0.2-0.4c0-0.3,0-0.6-0.1-0.9c0-0.1,0-0.2,0-0.2c0.2-0.2,0.1-0.5,0.1-0.8
		c0-0.1-0.1-0.2-0.1-0.3c0.1-0.1,0.1-0.2,0.1-0.3c0-0.1,0-0.2,0.1-0.2c0.1-0.1,0.1-0.2,0.2-0.3c0.1-0.3,0.2-0.5,0.3-0.8
		c0.2-0.3,0.1-0.6,0.3-0.9c0-0.1,0-0.1,0-0.2c-0.1-0.1,0-0.3,0.1-0.4c0.2-0.1,0.3-0.3,0.4-0.5c0-0.1,0.1-0.2,0.1-0.3
		c0.1-0.2,0.1-0.3,0.1-0.5c0,0,0,0,0,0c0-0.2,0.1-0.3,0.1-0.4c0-0.1,0-0.3,0-0.4c0.1-0.2,0.2-0.4,0.4-0.5c0.2-0.1,0.3-0.3,0.5-0.4
		c0.1-0.1,0.2-0.2,0.3-0.3c0,0,0.1-0.1,0.1-0.1c0.2,0,0.3-0.1,0.4-0.3c0,0,0.1-0.1,0.1-0.1c0.2,0,0.4-0.2,0.4-0.4
		c0.2-0.3,0.3-0.7,0.5-1c0-0.1,0.1-0.1,0.2-0.2c0.2-0.1,0.4-0.3,0.6-0.5c0.1-0.1,0.2-0.2,0.4-0.2c0.1-0.1,0.2-0.1,0.3-0.3
		c0,0,0.1-0.1,0.1-0.1c0.3-0.2,0.6-0.4,0.9-0.6c0.1,0,0.1-0.1,0.2-0.1c0.1,0,0.1-0.1,0.2-0.1c0.1-0.2,0.3-0.2,0.5-0.3
		c0.1,0,0.2-0.1,0.2-0.2c0.1-0.1,0.2-0.2,0.4-0.2c0.3-0.1,0.5-0.1,0.8-0.2c0.1,0,0.2-0.1,0.3-0.2c0.2-0.2,0.5-0.4,0.9-0.5
		c0.1,0,0.1,0,0.2,0c0.2,0,0.4,0,0.7,0c0.2,0,0.4,0,0.6,0.1c0.1,0.1,0.1,0.1,0.2,0c0.2,0,0.4-0.1,0.6-0.1c0.2-0.1,0.5-0.1,0.8-0.1
		c0.3,0.1,0.6,0.1,0.9,0.1c0.2,0,0.4,0,0.5,0.1c0.2,0.1,0.3,0.1,0.5,0.2c0.2,0,0.5,0,0.7,0.1c0.1,0,0.3,0,0.4-0.1
		c0.2,0.1,0.5,0.1,0.7,0l0-0.1c0.3,0.1,0.5,0.2,0.8,0.1c0.2,0,0.3,0,0.5,0c0.2,0.1,0.5,0.1,0.7,0.1c0,0,0.1,0,0.1,0
		c0.1,0.1,0.2,0.1,0.3,0.2c0.1,0,0.2,0.1,0.3,0.1c0.1,0.1,0.2,0.1,0.4,0.1l0.1,0.3c0.1,0.1,0.2,0.3,0.3,0.3c0.2,0.1,0.3,0.3,0.3,0.5
		c0,0.2,0.1,0.3,0.2,0.4c0,0.1,0.1,0.1,0.1,0.2c0,0,0.1,0.1,0.1,0.1c0.2,0.1,0.3,0.2,0.4,0.4c0,0,0.1,0.1,0.1,0.1
		c0.1,0,0.3,0.1,0.3,0.3c0.1,0.1,0.1,0.2,0.2,0.3c0.2,0.1,0.3,0.3,0.4,0.5c0.1,0.2,0.2,0.3,0.4,0.5c0.1,0.1,0.1,0.1,0.2,0.2
		c0.2,0.2,0.5,0.5,0.7,0.7c0.1,0.1,0.2,0.2,0.2,0.3c0,0.1,0.1,0.1,0.1,0.2c0.2,0.2,0.2,0.4,0.2,0.6c0,0.1,0.1,0.2,0.1,0.3
		c0,0.2,0.1,0.4,0.2,0.6c0.1,0.2,0.2,0.3,0.3,0.5c0.1,0.1,0.1,0.2,0.1,0.3c0,0.2,0.2,0.5,0.4,0.6c0.1,0,0.1,0.1,0.1,0.2
		c0,0,0,0.1-0.1,0.1c-0.2,0.1-0.3,0.3-0.2,0.6c0,0.2,0,0.4-0.1,0.6c0,0.2,0,0.4,0.1,0.6c0.1,0.1,0.1,0.2,0.1,0.4
		c0,0.1,0,0.3,0.1,0.4l0.1,0.2c0,0,0.1,0.1,0.1,0.2c0,0.2,0,0.3,0,0.5c0.1,0.1,0.1,0.3,0.1,0.4c0,0.2,0,0.3,0.1,0.5
		c0.1,0.2,0.1,0.5,0,0.7c-0.1,0.2-0.1,0.4,0,0.6c0.1,0.3,0.1,0.6,0,0.9c0,0.1,0,0.2,0,0.3c0.1,0.2,0,0.5,0,0.7c0,0-0.1,0.1-0.1,0.1
		c0,0.3,0,0.5,0,0.8c0,0.1,0,0.1,0,0.2c-0.1,0.1-0.1,0.3-0.1,0.5c0,0,0,0,0,0.1c-0.1,0.2-0.1,0.4,0,0.6c-0.1,0.2-0.2,0.4-0.4,0.6
		c0,0-0.1,0.1-0.1,0.1c0,0.1-0.1,0.1-0.2,0.1c-0.2,0-0.3,0.1-0.4,0.3c-0.1,0.1-0.1,0.1-0.2,0.2c-0.4,0.2-0.6,0.8-0.4,1.2
		c0,0.1,0.1,0.1,0.1,0.2c-0.1,0.2-0.2,0.3-0.4,0.4c-0.2,0.1-0.4,0.3-0.5,0.4c-0.1,0.1-0.2,0.2-0.3,0.3c-0.1,0.1-0.2,0.1-0.3,0.2
		c0,0-0.1,0.1-0.1,0.1c-0.2,0.1-0.4,0.1-0.6,0.3c-0.1,0.1-0.3,0.2-0.3,0.3L129.1,52.8z"/>
	<path class="st1" d="M175.7,52.8c-0.3,0.1-0.6,0.1-0.9,0.3c-0.2,0.1-0.3,0.1-0.5,0.1c-0.2,0-0.4,0.1-0.6,0.2
		c-0.1,0.1-0.3,0.1-0.5,0.1c-0.5-0.1-1-0.1-1.5,0c-0.1,0-0.3,0-0.4,0c-0.2,0-0.4,0-0.6,0c-0.2,0-0.3,0-0.5,0c0,0-0.1,0-0.1,0
		c-0.2-0.1-0.5-0.1-0.8-0.1c-0.1,0-0.1,0-0.2,0c-0.1,0-0.3,0-0.4-0.1c-0.3-0.1-0.7-0.2-1.1-0.3c0,0-0.1,0-0.1-0.1
		c-0.5-0.1-0.9-0.4-1.3-0.7c-0.3-0.3-0.6-0.6-0.9-0.8c0,0-0.1,0-0.1-0.1c-0.1-0.3-0.4-0.5-0.6-0.7c-0.2-0.1-0.4-0.2-0.5-0.4
		c-0.1-0.1-0.3-0.2-0.5-0.3c-0.2-0.1-0.5-0.2-0.7-0.4c-0.1-0.1-0.2-0.1-0.3-0.2c-0.2-0.2-0.5-0.3-0.8-0.4c-0.2,0-0.3-0.1-0.4-0.2
		c-0.1-0.1-0.3-0.2-0.5-0.3c-0.2-0.1-0.3-0.3-0.4-0.5c0,0,0-0.1,0-0.1c-0.2-0.2-0.4-0.5-0.6-0.7c-0.1,0-0.1-0.1-0.1-0.2
		c-0.1-0.1-0.2-0.2-0.2-0.3c0,0-0.1-0.1-0.1-0.1c0-0.2-0.2-0.4-0.2-0.6c0-0.1-0.1-0.2-0.1-0.4c0,0,0-0.1,0-0.1
		c0.2-0.3,0.1-0.7-0.1-1c0-0.1-0.1-0.1-0.1-0.2c-0.1-0.2-0.2-0.5-0.3-0.7c-0.1-0.2-0.1-0.5-0.1-0.7c0.1-0.4-0.1-0.7-0.3-1
		c-0.1-0.1-0.2-0.1-0.2-0.2c-0.1-0.1-0.2-0.3-0.2-0.4c0-0.3,0-0.6-0.1-0.9c0-0.1,0-0.2,0-0.2c0.2-0.2,0.1-0.5,0.1-0.8
		c0-0.1-0.1-0.2-0.1-0.3c0.1-0.1,0.1-0.2,0.1-0.3c0-0.1,0-0.2,0.1-0.2c0.1-0.1,0.1-0.2,0.2-0.3c0.1-0.3,0.2-0.5,0.3-0.8
		c0.2-0.3,0.1-0.6,0.3-0.9c0-0.1,0-0.1,0-0.2c-0.1-0.1,0-0.3,0.1-0.4c0.2-0.1,0.3-0.3,0.4-0.5c0-0.1,0.1-0.2,0.1-0.3
		c0.1-0.2,0.1-0.3,0.1-0.5c0,0,0,0,0,0c0-0.2,0.1-0.3,0.1-0.4c0-0.1,0-0.3,0-0.4c0.1-0.2,0.2-0.4,0.4-0.5c0.2-0.1,0.3-0.3,0.5-0.4
		c0.1-0.1,0.2-0.2,0.3-0.3c0,0,0.1-0.1,0.1-0.1c0.2,0,0.3-0.1,0.4-0.3c0,0,0.1-0.1,0.1-0.1c0.2,0,0.4-0.2,0.4-0.4
		c0.2-0.3,0.3-0.7,0.5-1c0-0.1,0.1-0.1,0.2-0.2c0.2-0.1,0.4-0.3,0.6-0.5c0.1-0.1,0.2-0.2,0.4-0.2c0.1-0.1,0.2-0.1,0.3-0.3
		c0,0,0.1-0.1,0.1-0.1c0.3-0.2,0.6-0.4,0.9-0.6c0.1,0,0.1-0.1,0.2-0.1c0.1,0,0.1-0.1,0.2-0.1c0.1-0.2,0.3-0.2,0.5-0.3
		c0.1,0,0.2-0.1,0.2-0.2c0.1-0.1,0.2-0.2,0.4-0.2c0.3-0.1,0.5-0.1,0.8-0.2c0.1,0,0.2-0.1,0.3-0.2c0.2-0.2,0.5-0.4,0.9-0.5
		c0.1,0,0.1,0,0.2,0c0.2,0,0.4,0,0.7,0c0.2,0,0.4,0,0.6,0.1c0.1,0.1,0.1,0.1,0.2,0c0.2,0,0.4-0.1,0.5-0.1c0.2-0.1,0.5-0.1,0.8-0.1
		c0.3,0.1,0.6,0.1,0.9,0.1c0.2,0,0.4,0,0.6,0.1c0.2,0.1,0.3,0.1,0.5,0.2c0.2,0,0.5,0,0.7,0.1c0.1,0,0.3,0,0.4-0.1
		c0.2,0.1,0.5,0.1,0.7,0l0-0.1c0.3,0.1,0.5,0.2,0.8,0.1c0.2,0,0.3,0,0.5,0c0.2,0.1,0.5,0.1,0.7,0.1c0,0,0.1,0,0.1,0
		c0.1,0.1,0.2,0.1,0.3,0.2c0.1,0,0.2,0.1,0.3,0.1c0.1,0.1,0.2,0.1,0.4,0.1l0.1,0.3c0.1,0.1,0.2,0.3,0.3,0.3c0.2,0.1,0.3,0.3,0.3,0.5
		c0,0.2,0.1,0.3,0.2,0.4c0,0.1,0.1,0.1,0.1,0.2c0,0,0.1,0.1,0.1,0.1c0.2,0.1,0.3,0.2,0.4,0.4c0,0,0.1,0.1,0.1,0.1
		c0.1,0,0.3,0.1,0.3,0.3c0.1,0.1,0.1,0.2,0.2,0.3c0.2,0.1,0.3,0.3,0.4,0.5c0.1,0.2,0.2,0.3,0.4,0.5c0.1,0.1,0.1,0.1,0.2,0.2
		c0.2,0.2,0.5,0.5,0.7,0.7c0.1,0.1,0.2,0.2,0.2,0.3c0,0.1,0.1,0.1,0.1,0.2c0.2,0.2,0.2,0.4,0.2,0.6c0,0.1,0.1,0.2,0.1,0.3
		c0,0.2,0.1,0.4,0.2,0.6c0.1,0.2,0.2,0.3,0.3,0.5c0.1,0.1,0.1,0.2,0.1,0.3c0,0.2,0.2,0.5,0.4,0.6c0.1,0,0.1,0.1,0.1,0.2
		c0,0,0,0.1-0.1,0.1c-0.2,0.1-0.3,0.3-0.2,0.6c0,0.2,0,0.4-0.1,0.6c0,0.2,0,0.4,0.1,0.6c0.1,0.1,0.1,0.2,0.1,0.4
		c0,0.1,0,0.3,0.1,0.4l0.1,0.2c0,0,0.1,0.1,0.1,0.2c0,0.2,0,0.3,0,0.5c0.1,0.1,0.1,0.3,0.1,0.4c0,0.2,0,0.3,0.1,0.5
		c0.1,0.2,0.1,0.5,0,0.7c-0.1,0.2-0.1,0.4,0,0.6c0.1,0.3,0.1,0.6,0,0.9c0,0.1,0,0.2,0,0.3c0.1,0.2,0,0.5,0,0.7c0,0-0.1,0.1-0.1,0.1
		c0,0.3,0,0.5,0,0.8c0,0.1,0,0.1,0,0.2c-0.1,0.1-0.1,0.3-0.1,0.5c0,0,0,0,0,0.1c-0.1,0.2-0.1,0.4,0,0.6c-0.1,0.2-0.2,0.4-0.4,0.6
		c0,0-0.1,0.1-0.1,0.1c0,0.1-0.1,0.1-0.2,0.1c-0.2,0-0.3,0.1-0.4,0.3c-0.1,0.1-0.1,0.1-0.2,0.2c-0.4,0.2-0.6,0.8-0.4,1.2
		c0,0.1,0.1,0.1,0.1,0.2c-0.1,0.2-0.2,0.3-0.4,0.4c-0.2,0.1-0.4,0.3-0.5,0.4c-0.1,0.1-0.2,0.2-0.3,0.3c-0.1,0.1-0.2,0.1-0.3,0.2
		c0,0-0.1,0.1-0.1,0.1c-0.2,0.1-0.4,0.1-0.6,0.3c-0.1,0.1-0.3,0.2-0.3,0.3L175.7,52.8z"/>
	<path class="st1" d="M228.2,52.8c-0.3,0.1-0.6,0.1-0.9,0.3c-0.2,0.1-0.3,0.1-0.5,0.1c-0.2,0-0.4,0.1-0.6,0.2
		c-0.1,0.1-0.3,0.1-0.5,0.1c-0.5-0.1-1-0.1-1.5,0c-0.1,0-0.3,0-0.4,0c-0.2,0-0.4,0-0.6,0c-0.2,0-0.3,0-0.5,0c0,0-0.1,0-0.1,0
		c-0.2-0.1-0.5-0.1-0.8-0.1c-0.1,0-0.1,0-0.2,0c-0.1,0-0.3,0-0.4-0.1c-0.3-0.1-0.7-0.2-1.1-0.3c0,0-0.1,0-0.1-0.1
		c-0.5-0.1-0.9-0.4-1.3-0.7c-0.3-0.3-0.6-0.6-0.9-0.8c0,0-0.1,0-0.1-0.1c-0.1-0.3-0.4-0.5-0.6-0.7c-0.2-0.1-0.4-0.2-0.5-0.4
		c-0.1-0.1-0.3-0.2-0.5-0.3c-0.2-0.1-0.5-0.2-0.7-0.4c-0.1-0.1-0.2-0.1-0.3-0.2c-0.2-0.2-0.5-0.3-0.8-0.4c-0.2,0-0.3-0.1-0.4-0.2
		c-0.1-0.1-0.3-0.2-0.5-0.3c-0.2-0.1-0.3-0.3-0.4-0.5c0,0,0-0.1,0-0.1c-0.2-0.2-0.4-0.5-0.6-0.7c-0.1,0-0.1-0.1-0.1-0.2
		c-0.1-0.1-0.2-0.2-0.2-0.3c0,0-0.1-0.1-0.1-0.1c0-0.2-0.2-0.4-0.2-0.6c0-0.1-0.1-0.2-0.1-0.4c0,0,0-0.1,0-0.1
		c0.2-0.3,0.1-0.7-0.1-1c0-0.1-0.1-0.1-0.1-0.2c-0.1-0.2-0.2-0.5-0.3-0.7c-0.1-0.2-0.1-0.5-0.1-0.7c0.1-0.4-0.1-0.7-0.3-1
		c-0.1-0.1-0.2-0.1-0.2-0.2c-0.1-0.1-0.2-0.3-0.2-0.4c0-0.3,0-0.6-0.1-0.9c0-0.1,0-0.2,0-0.2c0.2-0.2,0.1-0.5,0.1-0.8
		c0-0.1-0.1-0.2-0.1-0.3c0.1-0.1,0.1-0.2,0.1-0.3c0-0.1,0-0.2,0.1-0.2c0.1-0.1,0.1-0.2,0.2-0.3c0.1-0.3,0.2-0.5,0.3-0.8
		c0.2-0.3,0.1-0.6,0.3-0.9c0-0.1,0-0.1,0-0.2c-0.1-0.1,0-0.3,0.1-0.4c0.2-0.1,0.3-0.3,0.4-0.5c0-0.1,0.1-0.2,0.1-0.3
		c0.1-0.2,0.1-0.3,0.1-0.5c0,0,0,0,0,0c0-0.2,0.1-0.3,0.1-0.4c0-0.1,0-0.3,0-0.4c0.1-0.2,0.2-0.4,0.4-0.5c0.2-0.1,0.3-0.3,0.5-0.4
		c0.1-0.1,0.2-0.2,0.3-0.3c0,0,0.1-0.1,0.1-0.1c0.2,0,0.3-0.1,0.4-0.3c0,0,0.1-0.1,0.1-0.1c0.2,0,0.4-0.2,0.4-0.4
		c0.2-0.3,0.3-0.7,0.5-1c0-0.1,0.1-0.1,0.2-0.2c0.2-0.1,0.4-0.3,0.6-0.5c0.1-0.1,0.2-0.2,0.4-0.2c0.1-0.1,0.2-0.1,0.3-0.3
		c0,0,0.1-0.1,0.1-0.1c0.3-0.2,0.6-0.4,0.9-0.6c0.1,0,0.1-0.1,0.2-0.1c0.1,0,0.1-0.1,0.2-0.1c0.1-0.2,0.3-0.2,0.5-0.3
		c0.1,0,0.2-0.1,0.2-0.2c0.1-0.1,0.2-0.2,0.4-0.2c0.3-0.1,0.5-0.1,0.8-0.2c0.1,0,0.2-0.1,0.3-0.2c0.2-0.2,0.5-0.4,0.9-0.5
		c0.1,0,0.1,0,0.2,0c0.2,0,0.4,0,0.7,0c0.2,0,0.4,0,0.6,0.1c0.1,0.1,0.1,0.1,0.2,0c0.2,0,0.4-0.1,0.5-0.1c0.2-0.1,0.5-0.1,0.8-0.1
		c0.3,0.1,0.6,0.1,0.9,0.1c0.2,0,0.4,0,0.6,0.1c0.2,0.1,0.3,0.1,0.5,0.2c0.2,0,0.5,0,0.7,0.1c0.1,0,0.3,0,0.4-0.1
		c0.2,0.1,0.5,0.1,0.7,0l0-0.1c0.3,0.1,0.5,0.2,0.8,0.1c0.2,0,0.3,0,0.5,0c0.2,0.1,0.5,0.1,0.7,0.1c0,0,0.1,0,0.1,0
		c0.1,0.1,0.2,0.1,0.3,0.2c0.1,0,0.2,0.1,0.3,0.1c0.1,0.1,0.2,0.1,0.4,0.1l0.1,0.3c0.1,0.1,0.2,0.3,0.3,0.3c0.2,0.1,0.3,0.3,0.3,0.5
		c0,0.2,0.1,0.3,0.2,0.4c0,0.1,0.1,0.1,0.1,0.2c0,0,0.1,0.1,0.1,0.1c0.2,0.1,0.3,0.2,0.4,0.4c0,0,0.1,0.1,0.1,0.1
		c0.1,0,0.3,0.1,0.3,0.3c0.1,0.1,0.1,0.2,0.2,0.3c0.2,0.1,0.3,0.3,0.4,0.5c0.1,0.2,0.2,0.3,0.4,0.5c0.1,0.1,0.1,0.1,0.2,0.2
		c0.2,0.2,0.5,0.5,0.7,0.7c0.1,0.1,0.2,0.2,0.2,0.3c0,0.1,0.1,0.1,0.1,0.2c0.2,0.2,0.2,0.4,0.2,0.6c0,0.1,0.1,0.2,0.1,0.3
		c0,0.2,0.1,0.4,0.2,0.6c0.1,0.2,0.2,0.3,0.3,0.5c0.1,0.1,0.1,0.2,0.1,0.3c0,0.2,0.2,0.5,0.4,0.6c0.1,0,0.1,0.1,0.1,0.2
		c0,0,0,0.1-0.1,0.1c-0.2,0.1-0.3,0.3-0.2,0.6c0,0.2,0,0.4-0.1,0.6c0,0.2,0,0.4,0.1,0.6c0.1,0.1,0.1,0.2,0.1,0.4
		c0,0.1,0,0.3,0.1,0.4c0,0.1,0.1,0.1,0.1,0.2c0,0,0.1,0.1,0.1,0.2c0,0.2,0,0.3,0,0.5c0.1,0.1,0.1,0.3,0.1,0.4c0,0.2,0,0.3,0.1,0.5
		c0.1,0.2,0.1,0.5,0,0.7c-0.1,0.2-0.1,0.4,0,0.6c0.1,0.3,0.1,0.6,0,0.9c0,0.1,0,0.2,0,0.3c0.1,0.2,0,0.5,0,0.7c0,0-0.1,0.1-0.1,0.1
		c0,0.3,0,0.5,0,0.8c0,0.1,0,0.1,0,0.2c-0.1,0.1-0.1,0.3-0.1,0.5c0,0,0,0,0,0.1c-0.1,0.2-0.1,0.4,0,0.6c-0.1,0.2-0.2,0.4-0.4,0.6
		c0,0-0.1,0.1-0.1,0.1c0,0.1-0.1,0.1-0.2,0.1c-0.2,0-0.3,0.1-0.4,0.3c-0.1,0.1-0.1,0.1-0.2,0.2c-0.4,0.2-0.6,0.8-0.4,1.2
		c0,0.1,0.1,0.1,0.1,0.2c-0.1,0.2-0.2,0.3-0.4,0.4c-0.2,0.1-0.4,0.3-0.5,0.4c-0.1,0.1-0.2,0.2-0.3,0.3c-0.1,0.1-0.2,0.1-0.3,0.2
		c0,0-0.1,0.1-0.1,0.1c-0.2,0.1-0.4,0.1-0.6,0.3c-0.1,0.1-0.3,0.2-0.3,0.3L228.2,52.8z"/>
	<path class="st1" d="M273.7,52.8c-0.3,0.1-0.6,0.1-0.9,0.3c-0.2,0.1-0.3,0.1-0.5,0.1c-0.2,0-0.4,0.1-0.6,0.2
		c-0.1,0.1-0.3,0.1-0.5,0.1c-0.5-0.1-1-0.1-1.5,0c-0.1,0-0.3,0-0.4,0c-0.2,0-0.4,0-0.6,0c-0.2,0-0.3,0-0.5,0c0,0-0.1,0-0.1,0
		c-0.2-0.1-0.5-0.1-0.8-0.1c-0.1,0-0.1,0-0.2,0c-0.1,0-0.3,0-0.4-0.1c-0.3-0.1-0.7-0.2-1.1-0.3c0,0-0.1,0-0.1-0.1
		c-0.5-0.1-0.9-0.4-1.3-0.7c-0.3-0.3-0.6-0.6-0.9-0.8c0,0-0.1,0-0.1-0.1c-0.1-0.3-0.4-0.5-0.6-0.7c-0.2-0.1-0.4-0.2-0.5-0.4
		c-0.1-0.1-0.3-0.2-0.5-0.3c-0.2-0.1-0.5-0.2-0.7-0.4c-0.1-0.1-0.2-0.1-0.3-0.2c-0.2-0.2-0.5-0.3-0.8-0.4c-0.2,0-0.3-0.1-0.4-0.2
		c-0.1-0.1-0.3-0.2-0.5-0.3c-0.2-0.1-0.3-0.3-0.4-0.5c0,0,0-0.1,0-0.1c-0.2-0.2-0.4-0.5-0.6-0.7c-0.1,0-0.1-0.1-0.1-0.2
		c-0.1-0.1-0.2-0.2-0.2-0.3c0,0-0.1-0.1-0.1-0.1c0-0.2-0.2-0.4-0.2-0.6c0-0.1-0.1-0.2-0.1-0.4c0,0,0-0.1,0-0.1
		c0.2-0.3,0.1-0.7-0.1-1c0-0.1-0.1-0.1-0.1-0.2c-0.1-0.2-0.2-0.5-0.3-0.7c-0.1-0.2-0.1-0.5-0.1-0.7c0.1-0.4-0.1-0.7-0.3-1
		c-0.1-0.1-0.2-0.1-0.2-0.2c-0.1-0.1-0.2-0.3-0.2-0.4c0-0.3,0-0.6-0.1-0.9c0-0.1,0-0.2,0-0.2c0.2-0.2,0.1-0.5,0.1-0.8
		c0-0.1-0.1-0.2-0.1-0.3c0.1-0.1,0.1-0.2,0.1-0.3c0-0.1,0-0.2,0.1-0.2c0.1-0.1,0.1-0.2,0.2-0.3c0.1-0.3,0.2-0.5,0.3-0.8
		c0.2-0.3,0.1-0.6,0.3-0.9c0-0.1,0-0.1,0-0.2c-0.1-0.1,0-0.3,0.1-0.4c0.2-0.1,0.3-0.3,0.4-0.5c0-0.1,0.1-0.2,0.1-0.3
		c0.1-0.2,0.1-0.3,0.1-0.5c0,0,0,0,0,0c0-0.2,0.1-0.3,0.1-0.4c0-0.1,0-0.3,0-0.4c0.1-0.2,0.2-0.4,0.4-0.5c0.2-0.1,0.3-0.3,0.5-0.4
		c0.1-0.1,0.2-0.2,0.3-0.3c0,0,0.1-0.1,0.1-0.1c0.2,0,0.3-0.1,0.4-0.3c0,0,0.1-0.1,0.1-0.1c0.2,0,0.4-0.2,0.4-0.4
		c0.2-0.3,0.3-0.7,0.5-1c0-0.1,0.1-0.1,0.2-0.2c0.2-0.1,0.4-0.3,0.6-0.5c0.1-0.1,0.2-0.2,0.4-0.2c0.1-0.1,0.2-0.1,0.3-0.3
		c0,0,0.1-0.1,0.1-0.1c0.3-0.2,0.6-0.4,0.9-0.6c0.1,0,0.1-0.1,0.2-0.1c0.1,0,0.1-0.1,0.2-0.1c0.1-0.2,0.3-0.2,0.5-0.3
		c0.1,0,0.2-0.1,0.2-0.2c0.1-0.1,0.2-0.2,0.4-0.2c0.3-0.1,0.5-0.1,0.8-0.2c0.1,0,0.2-0.1,0.3-0.2c0.2-0.2,0.5-0.4,0.9-0.5
		c0.1,0,0.1,0,0.2,0c0.2,0,0.4,0,0.7,0c0.2,0,0.4,0,0.6,0.1c0.1,0.1,0.1,0.1,0.2,0c0.2,0,0.4-0.1,0.5-0.1c0.2-0.1,0.5-0.1,0.8-0.1
		c0.3,0.1,0.6,0.1,0.9,0.1c0.2,0,0.4,0,0.5,0.1c0.2,0.1,0.3,0.1,0.5,0.2c0.2,0,0.5,0,0.7,0.1c0.1,0,0.3,0,0.4-0.1
		c0.2,0.1,0.5,0.1,0.7,0l0-0.1c0.3,0.1,0.5,0.2,0.8,0.1c0.2,0,0.3,0,0.5,0c0.2,0.1,0.5,0.1,0.7,0.1c0,0,0.1,0,0.1,0
		c0.1,0.1,0.2,0.1,0.3,0.2c0.1,0,0.2,0.1,0.3,0.1c0.1,0.1,0.2,0.1,0.4,0.1l0.1,0.3c0.1,0.1,0.2,0.3,0.3,0.3c0.2,0.1,0.3,0.3,0.3,0.5
		c0,0.2,0.1,0.3,0.2,0.4c0,0.1,0.1,0.1,0.1,0.2c0,0,0.1,0.1,0.1,0.1c0.2,0.1,0.3,0.2,0.4,0.4c0,0,0.1,0.1,0.1,0.1
		c0.1,0,0.3,0.1,0.3,0.3c0.1,0.1,0.1,0.2,0.2,0.3c0.2,0.1,0.3,0.3,0.4,0.5c0.1,0.2,0.2,0.3,0.4,0.5c0.1,0.1,0.1,0.1,0.2,0.2
		c0.2,0.2,0.5,0.5,0.7,0.7c0.1,0.1,0.2,0.2,0.2,0.3c0,0.1,0.1,0.1,0.1,0.2c0.2,0.2,0.2,0.4,0.2,0.6c0,0.1,0.1,0.2,0.1,0.3
		c0,0.2,0.1,0.4,0.2,0.6c0.1,0.2,0.2,0.3,0.3,0.5c0.1,0.1,0.1,0.2,0.1,0.3c0,0.2,0.2,0.5,0.4,0.6c0.1,0,0.1,0.1,0.1,0.2
		c0,0,0,0.1-0.1,0.1c-0.2,0.1-0.3,0.3-0.2,0.6c0,0.2,0,0.4-0.1,0.6c0,0.2,0,0.4,0.1,0.6c0.1,0.1,0.1,0.2,0.1,0.4
		c0,0.1,0,0.3,0.1,0.4l0.1,0.2c0,0,0.1,0.1,0.1,0.2c0,0.2,0,0.3,0,0.5c0.1,0.1,0.1,0.3,0.1,0.4c0,0.2,0,0.3,0.1,0.5
		c0.1,0.2,0.1,0.5,0,0.7c-0.1,0.2-0.1,0.4,0,0.6c0.1,0.3,0.1,0.6,0,0.9c0,0.1,0,0.2,0,0.3c0.1,0.2,0,0.5,0,0.7c0,0-0.1,0.1-0.1,0.1
		c0,0.3,0,0.5,0,0.8c0,0.1,0,0.1,0,0.2c-0.1,0.1-0.1,0.3-0.1,0.5c0,0,0,0,0,0.1c-0.1,0.2-0.1,0.4,0,0.6c-0.1,0.2-0.2,0.4-0.4,0.6
		c0,0-0.1,0.1-0.1,0.1c0,0.1-0.1,0.1-0.2,0.1c-0.2,0-0.3,0.1-0.4,0.3c-0.1,0.1-0.1,0.1-0.2,0.2c-0.4,0.2-0.6,0.8-0.4,1.2
		c0,0.1,0.1,0.1,0.1,0.2c-0.1,0.2-0.2,0.3-0.4,0.4c-0.2,0.1-0.4,0.3-0.5,0.4c-0.1,0.1-0.2,0.2-0.3,0.3c-0.1,0.1-0.2,0.1-0.3,0.2
		c0,0-0.1,0.1-0.1,0.1c-0.2,0.1-0.4,0.1-0.6,0.3c-0.1,0.1-0.3,0.2-0.3,0.3L273.7,52.8z"/>
	<path class="st0" d="M212.7,95.7c-0.9,1.9-1.6,3.9-2,6l-2.2-0.4c0.2-1,0.5-2.1,0.9-3.1c-1.2,1.5-2.5,3.3-3.6,4.8
		c-0.2,0.6-0.4,1.2-0.6,1.9l-2.3-0.6c0.7-2.5,1.6-5.4,2.5-9.3l2.5,0.5c-0.3,1.4-0.6,2.7-1.1,4c1.3-1.8,2.6-3.6,4.2-5.2L212.7,95.7z"
		/>
	<path class="st0" d="M215,101.6c-0.1,0.6-0.1,1.3,0,1.9c1.5-0.1,3-0.5,4.3-1.3l-0.2,1.7c-1.1,0.8-2.4,1.3-3.7,1.3
		c-1.9,0-2.9-1.1-2.8-3.3c0.1-3.3,2.3-6.2,5.5-7.2l3.2,0.9c0.2,0.6,0.3,1.1,0.3,1.7c0,2.1-1.6,3.7-4.4,3.7c-0.6,0-1.3-0.1-1.9-0.2
		C215.1,101.1,215.1,101.4,215,101.6z M215.6,99.6c0.3,0.1,0.6,0.1,1,0.1c1.3,0.1,2.5-1,2.5-2.3c0,0,0-0.1,0-0.1
		c0-0.3-0.1-0.6-0.2-1C217.5,97,216.4,98.1,215.6,99.6z"/>
	<path class="st0" d="M238.1,96.4c-1.4,3-2.5,6.1-3.1,9.4l-2.3-0.4c0.4-2.4,1.1-4.7,1.9-7c-1.7,1.4-3.3,2.8-4.8,4.4
		c-0.1,0.8-0.3,1.5-0.5,2.3l-2.4-0.4c0.6-2.3,1.2-4.3,2-6.7c-1.7,1.4-3.2,2.7-4.6,4.1c-0.3,1.1-0.6,2-0.9,3.1l-2.3-0.6
		c0.8-2.8,1.6-5.5,2.6-9.4l2.5,0.5c-0.2,1.2-0.6,2.4-1,3.6c1.4-1.4,3.1-2.8,4.8-4.3l2.1,1.2c-0.5,1.4-1,2.5-1.4,3.6
		c1.4-1.5,3.1-3,5-4.7L238.1,96.4z"/>
	<path class="st0" d="M247.2,99c-1,2.1-1.8,4.3-2.3,6.6l-2.2-0.5c0.2-1.1,0.5-2.2,0.9-3.3c-1.1,1.3-2.4,2.4-3.7,3.5
		c-0.4-0.3-0.9-0.5-1.7-0.9c-0.1-0.6-0.2-1.3-0.2-1.9c0-3.2,2.3-7.1,7.7-8l0.5,2.2c-4.2,0.8-5.8,3.5-5.9,6.3c1.5-1.4,3.7-3.6,5-5
		L247.2,99z"/>
	<path class="st0" d="M253,95.6c-1.2,3.1-2.2,6.2-3.1,9.4l-2.3-0.5c0.7-3.3,1.6-6.5,2.9-9.6L253,95.6z M253.5,93.8l-2.3-0.7
		c0.5-1.5,1.1-3,1.8-4.5l2.4,0.7C255,90.3,254.4,91.6,253.5,93.8z"/>
	<path class="st0" d="M263.8,96.4c-1.5,2.9-2.5,5.9-3.1,9.1l-2.4-0.4c0.5-2.4,1.2-4.8,2-7c-1.6,1.2-3.2,2.6-4.6,4
		c-0.2,1-0.5,1.9-0.7,2.7l-2.3-0.6c0.7-2.5,1.6-5.2,2.5-9.1l2.5,0.5c-0.3,1.3-0.6,2.5-1.1,3.8c1.6-1.5,3.2-2.9,5-4.2L263.8,96.4z"/>
	<path class="st0" d="M276.5,90.6c-1.3,3.4-4.1,10.1-4.8,14.9l-2.3-0.5c0.2-1.4,0.5-2.8,0.9-4.1c-1.3,1.6-2.7,3-4.2,4.3
		c-0.4-0.3-1.3-0.6-2.1-1c-0.1-0.6-0.1-1.2-0.1-1.7c-0.1-3.8,2.5-7.2,6.3-7.9l0.6,2.3c-2.9,0.9-4.4,2.6-4.5,6.1
		c1.4-1.4,3.5-3.5,4.8-4.9c0.7-2.3,1.7-4.8,2.9-8.2L276.5,90.6z"/>
	<path class="st0" d="M277.1,101.6c-0.1,0.6-0.1,1.3,0,1.9c1.5-0.1,3-0.5,4.3-1.3l-0.2,1.7c-1.1,0.8-2.4,1.3-3.7,1.3
		c-1.9,0-2.9-1.1-2.8-3.3c0.1-3.3,2.3-6.2,5.5-7.2l3.2,0.9c0.2,0.6,0.3,1.1,0.3,1.7c0,2.1-1.6,3.7-4.4,3.7c-0.6,0-1.3-0.1-1.9-0.2
		C277.2,101.1,277.1,101.4,277.1,101.6z M277.7,99.6c0.3,0.1,0.6,0.1,1,0.1c1.3,0.1,2.5-1,2.5-2.3c0,0,0-0.1,0-0.1
		c0-0.3-0.1-0.6-0.2-1C279.6,97,278.4,98.1,277.7,99.6z"/>
	<path class="st0" d="M293.2,95.7c-0.9,1.9-1.6,3.9-2,6l-2.2-0.4c0.2-1,0.5-2.1,0.9-3.1c-1.2,1.5-2.5,3.3-3.6,4.8
		c-0.2,0.6-0.4,1.2-0.6,1.9l-2.3-0.6c0.7-2.5,1.6-5.4,2.5-9.3l2.5,0.5c-0.3,1.4-0.6,2.7-1.1,4c1.3-1.8,2.6-3.6,4.2-5.2L293.2,95.7z"
		/>
</g>
</svg>
