<?xml version="1.0" encoding="utf-8"?>
<!-- Generator: Adobe Illustrator 22.0.1, SVG Export Plug-In . SVG Version: 6.00 Build 0)  -->
<svg version="1.1" id="Livello_1" xmlns="http://www.w3.org/2000/svg" xmlns:xlink="http://www.w3.org/1999/xlink" x="0px" y="0px"
	 viewBox="0 0 296 83" style="enable-background:new 0 0 296 83;" xml:space="preserve">
<style type="text/css">
	.st0{fill:#FF3366;}
	.st1{fill:#FFEDED;}
	.st2{fill:#1858A8;}
</style>
<title>manuale_ill_nuove</title>
<g id="Livello_1_1_">
	<path class="st0" d="M132.8,41c1.2,0.3,2.4,0.4,3.7,0.4c0.9-0.1,1.8-0.1,2.7-0.1c0.8,0.1,1.6,0.1,2.5,0c0.9-0.1,1.8-0.1,2.7-0.1
		c0.8,0.1,1.6,0.1,2.5,0c0.5,0,0.9,0,1.4,0.1c1.1,0.1,2.2,0.2,3.3,0.1c1.1-0.1,2.3-0.1,3.4-0.2c0.4,0,0.7,0,1.1,0
		c0.5,0,0.9,0.1,1.4,0.1c1.5,0.1,2.9,0.1,4.4,0c0.2,0,0.3,0,0.5,0.1c0.2,0,0.5,0,0.7,0c0.3,0,0.5,0,0.8,0c0.9,0.2,1.8,0.2,2.7,0.1
		c1.1-0.1,2.1-0.1,3.2,0c0.2,0,0.5,0,0.7,0c0.7,0,1.3-0.1,2-0.1c0.9-0.1,1.9,0,2.8,0.1c0.7,0.1,1.4,0.1,2.1,0c0.2,0,0.5-0.1,0.7-0.1
		c0.8,0.1,1.7,0.1,2.6,0c0.3-0.1,0.8,0.1,1.2,0.1c1.8-0.1,3.7-0.1,5.5-0.1c0.3,0,0.5,0,0.8,0c0.4,0.1,0.9,0.1,1.3,0.1
		c0.8-0.1,1.7,0,2.5,0.2c0.3,0.1,0.6,0.1,0.9,0c1-0.2,2.1-0.2,3.2-0.2c0.8,0.1,1.6,0.1,2.5,0c1.1-0.1,2.1-0.1,3.2-0.2
		c0.2,0,0.4,0,0.6,0c-0.1-0.9-0.1-1.9-0.1-2.8c0-0.2,0.1-0.5,0.1-0.7c0.1-0.7,0.2-1.3,0.2-2c-0.2,0-0.5,0-0.7,0
		c-1.2-0.1-2.4-0.1-3.6-0.1c-1,0-2-0.1-3-0.2c-0.2-0.1-0.5-0.1-0.7-0.1c-1.6,0-3.1,0.1-4.7,0.4c-0.4,0.1-0.8,0.1-1.2,0
		c-1-0.2-2-0.2-3-0.2c-0.8,0.1-1.7,0.1-2.5-0.1c-1-0.1-1.9-0.1-2.9,0.1c0,0-0.1,0-0.1,0c-0.7,0.2-1.5,0.3-2.2,0.1
		c-0.7-0.1-1.5-0.2-2.2-0.2c-1-0.1-2,0-2.9,0.1c-0.1,0-0.2,0-0.4,0c-0.5,0-1.1-0.1-1.6-0.1c-1.2-0.2-2.4-0.2-3.6,0
		c-0.4,0-0.8,0-1.2,0c-0.5,0-0.9-0.1-1.4-0.1c-0.4,0-0.8,0-1.2,0c-0.8-0.1-1.6-0.1-2.4-0.1c-0.4,0-0.8,0-1.2-0.1
		c-0.6-0.1-1.2-0.2-1.9-0.2c-0.7,0.1-1.4,0.1-2.1,0c-0.9-0.2-1.9-0.1-2.8,0.1c-0.8,0.1-1.6,0.1-2.3,0c-0.7-0.1-1.5-0.1-2.2,0.1
		c-0.8,0.2-1.6,0.3-2.3,0.1c-0.3-0.1-0.7,0-1.1-0.1l-1.2-0.1c-0.9-0.1-1.9-0.1-2.8-0.2c-0.6,0-1.2,0-1.8,0.1c-0.6,0-1.2,0-1.9,0
		c-0.6,0.1-1.2,0-1.7-0.1c-0.4,0-0.7-0.1-1-0.1c-0.7-0.1-1.4,0.4-1.5,1.1c0,0,0,0.1,0,0.1c-0.2,1.1,0,2.3-0.3,3.4
		c0,0.2,0.1,0.3,0.1,0.5C132.7,40.4,132.8,40.7,132.8,41z"/>
	<path class="st1" d="M65.8,34.5c0.2-0.2,0.4-0.5,0.5-0.7c0.1-0.3,0.2-0.6,0.2-0.9c0-0.1,0-0.1,0.1-0.2c0.1-0.1,0.2-0.2,0.2-0.4
		c0-0.3,0.1-0.6,0.1-0.9c0-0.1,0.1-0.3,0.2-0.4c0.1-0.2,0.2-0.4,0.2-0.6c0-0.1,0.1-0.3,0.2-0.3c0,0,0.1,0,0.1-0.1
		c0-0.1,0-0.1-0.1-0.1c-0.3,0-0.4-0.2-0.5-0.4c0,0,0-0.1,0-0.1c0.1-0.1,0.1-0.3,0.2-0.5c0.1-0.1,0.2-0.3,0.4-0.4
		c0.2-0.1,0.4-0.3,0.6-0.5c0,0,0.1-0.1,0.1-0.2c0-0.2,0.1-0.4,0.1-0.6c0,0,0-0.1,0-0.1c0-0.3,0.1-0.6,0.3-0.9c0-0.1,0-0.2,0-0.3
		c-0.1-0.2,0-0.4,0.1-0.6c0,0,0,0,0-0.1c0.2-0.3,0.2-0.3,0.5-0.1l0.4,0.3c0.1,0,0.1-0.1,0.1-0.1c0.1-0.1,0.2-0.2,0.3-0.2
		c0.1-0.1,0.1-0.2,0.2-0.3c0.1-0.1,0.3-0.1,0.4-0.3c0,0,0-0.1,0.1-0.1c0.4-0.2,0.7-0.5,0.9-0.9c0.1-0.1,0.2-0.2,0.3-0.3
		c0.3-0.2,0.6-0.5,0.9-0.8c0,0,0.1-0.1,0.1-0.1c0.1-0.1,0.1-0.1,0.2-0.2c0.1,0,0.1-0.1,0.2-0.1c0.2-0.2,0.4-0.3,0.6-0.4
		c0.1,0,0.1-0.1,0.1-0.2c0.1-0.2,0.1-0.3,0.1-0.5c0-0.1,0.1-0.2,0.2-0.2c0.1,0,0.2-0.1,0.2-0.2c0,0,0-0.1,0-0.1
		c0-0.2,0.3-0.4,0.5-0.4c0.1,0,0.2,0,0.3,0.1c0.2,0.1,0.4,0.1,0.6-0.1C76,20,76.2,20,76.3,20c0.1,0,0.2,0,0.3,0
		c0.1-0.1,0.3-0.2,0.4-0.2c0.2-0.1,0.3-0.1,0.5-0.2c0.1,0,0.2,0,0.2-0.1c0,0,0.1,0,0.1,0c0.1-0.2,0.4-0.2,0.5-0.3c0,0,0.1,0,0.1,0
		c0.2,0,0.4-0.1,0.6,0c0.1,0,0.1,0,0.2-0.1c0.2-0.1,0.3-0.2,0.5-0.4c0.2-0.1,0.4-0.3,0.6-0.4c0.2-0.1,0.5-0.2,0.8-0.2
		c0.2,0,0.3,0.1,0.4-0.1c0.3,0,0.5-0.2,0.8-0.2c0.1,0,0.1,0,0.2-0.1c0.1-0.1,0.1-0.1,0.2-0.2c0,0,0.1-0.1,0.2-0.1
		c0.3,0,0.5-0.1,0.7-0.3c0,0,0,0,0.1,0c0.1,0.1,0.3,0.1,0.5,0.1c0.1,0,0.3,0,0.4,0.1c0,0,0.2,0,0.2,0c0.1,0,0.3,0,0.4,0
		c0.2,0.1,0.5,0,0.7-0.1c0.1-0.1,0.3-0.1,0.4-0.1c0.1,0,0.2,0,0.2-0.1c0.1-0.1,0.2-0.1,0.4,0c0.2,0,0.3,0,0.5,0c0,0,0.1,0,0.1,0
		c0.2,0.1,0.5,0,0.7-0.1c0.2-0.1,0.3-0.1,0.5,0c0,0,0.1,0,0.1,0.1l0.6-0.4c0.1,0,0.2,0.1,0.3,0.1c0.1,0,0.2,0,0.3,0c0,0,0,0,0.1,0
		c0.2-0.2,0.5-0.1,0.7-0.3c0.1,0,0.1,0,0.2,0c0.1,0,0.1,0,0.2,0c0.2-0.1,0.4-0.1,0.5,0c0,0,0,0,0.1,0c0.2-0.1,0.4,0,0.6,0.1
		c0.1,0.1,0.2,0.1,0.2,0.1c0.2,0.2,0.5,0.3,0.7,0.2c0.1,0,0.2,0,0.2,0c0.2,0.1,0.4,0.2,0.6,0.3c0.2,0.1,0.3,0.1,0.4,0.3
		c0,0,0.1,0.1,0.1,0.1c0.4,0.1,0.9,0.3,1.3,0.5c0,0,0,0,0,0c0.1,0.1,0.3,0.2,0.4,0.3c0.2,0.1,0.3,0.2,0.5,0.3
		c0.2,0.1,0.4,0.2,0.6,0.3c0.1,0,0.2,0.1,0.3,0.2c0.1,0.2,0.3,0.3,0.5,0.3c0.1,0,0.1,0.1,0.2,0.2c0.2,0.2,0.4,0.4,0.7,0.5
		c0.1,0,0.1,0.1,0.2,0.1c0.1,0.1,0.2,0.2,0.3,0.3c0.3-0.2,0.6,0,0.9,0c0.2,0.1,0.4,0.2,0.5,0.3c0,0,0.1,0.1,0.1,0.1
		c0.2,0,0.2,0,0.3,0.2c0,0,0.1,0.1,0.1,0.1c0.2,0.1,0.4,0.2,0.5,0.4c0.1,0.2,0.3,0.4,0.4,0.5c0.2,0.1,0.5,0.3,0.8,0.3
		c0.2,0.1,0.5,0.1,0.7,0.2c0.2,0,0.3,0.1,0.5,0.3c0.1,0,0.1,0.1,0.2,0.1c0.1,0,0.2,0.1,0.3,0.1c0.1,0.3,0.4,0.4,0.7,0.4v0.2
		c0.2,0.2,0.4,0.4,0.7,0.5c0.3,0.2,0.5,0.6,0.3,0.9c0,0,0,0,0,0.1c0,0,0,0.1-0.1,0.1c0.1,0.1,0.1,0.1,0.1,0.2c0,0.1,0,0.2,0,0.2
		c0,0.1,0,0.1,0.1,0.2c0,0,0,0.1,0,0.1c-0.1,0.2,0,0.5,0.1,0.7c0.1,0.2,0.2,0.4,0.3,0.6c0,0.2,0.2,0.3,0.3,0.4
		c0.1,0,0.2,0.1,0.2,0.2c0.2,0.1,0.3,0.3,0.5,0.4c0.1,0,0.1,0.1,0.1,0.1c0.1,0.1,0.2,0.3,0.3,0.3c0.2,0.1,0.3,0.2,0.4,0.4
		c0,0,0,0.1,0.1,0.1c0.3,0,0.3,0.3,0.4,0.4c0.1,0.2,0.1,0.4,0.1,0.6c0,0.1,0,0.3,0,0.4c0,0.2,0,0.4-0.1,0.6c0,0.1,0,0.1,0,0.2
		c0.1,0.2,0,0.4,0,0.6c0,0,0,0.1,0,0.1c0.1,0.1,0.2,0.1,0.2,0.3c0,0,0,0,0,0c0.1,0.1,0.1,0.2,0.2,0.2c0,0.1,0,0.2,0,0.3
		c0,0.1,0.1,0.2,0.1,0.2c0.1,0.1,0.2,0.2,0.2,0.3c0,0,0.1,0.1,0.1,0.1c0,0.2,0.1,0.3,0.1,0.4c-0.2,0.2-0.1,0.5-0.1,0.8
		c0,0,0,0.1,0,0.1c0.1,0.1,0.1,0.1,0.1,0.2c0,0,0,0,0,0c0.2,0.1,0.2,0.3,0.2,0.5c0,0.1,0.1,0.1,0.1,0.2l-0.1,0.2
		c0.1,0.2,0.2,0.3,0.3,0.4c0.2,0.1,0.1,0.2,0.1,0.4l0.4,0.2c0,0,0,0.1-0.1,0.1c0,0.1,0,0.1,0,0.2c0,0.2,0.1,0.3,0.1,0.4
		s0,0.3,0.1,0.4c0.2,0.2,0.2,0.4,0.2,0.6c0,0.3,0,0.6,0,0.9c0,0,0,0.1,0,0.1c-0.1,0.1-0.1,0.2,0,0.4c0.1,0.2,0.1,0.3,0,0.5
		c0,0,0,0.1,0,0.1c0,0.1,0,0.2,0,0.3c-0.1,0.1-0.1,0.2,0,0.3c0,0.1,0,0.2,0,0.3c0,0.1,0,0.2,0,0.2c-0.1,0.2-0.1,0.4-0.2,0.6
		c-0.1,0.1,0,0.2,0,0.3c0,0.1,0,0.3,0,0.4c0,0.1,0,0.1,0,0.2c-0.1,0.1-0.1,0.3-0.1,0.5c0,0.2,0,0.3,0,0.5c0,0.3,0,0.7-0.2,1
		c0,0.1-0.1,0.2-0.2,0.3c-0.1,0.2-0.2,0.4-0.1,0.6c0,0.3,0,0.7-0.1,1c-0.1,0.2-0.1,0.4-0.2,0.6c-0.1,0.2-0.1,0.4,0,0.6
		c-0.2,0.2-0.3,0.4-0.2,0.7c0,0.2-0.1,0.4-0.2,0.5c-0.1,0.1-0.2,0.3-0.2,0.4c0,0.1,0,0.2,0,0.3c-0.1,0.2-0.1,0.3-0.1,0.5
		c0,0,0,0.1,0,0.1c-0.2,0.4-0.4,0.8-0.7,1.1c-0.1,0-0.1,0.1-0.2,0.1c-0.1,0-0.2,0.1-0.3,0.2c-0.2,0.2-0.4,0.4-0.6,0.6
		c-0.1,0.1-0.3,0.2-0.4,0.2c-0.2,0-0.3,0.2-0.4,0.4c0,0.1-0.1,0.3-0.1,0.4c-0.1,0.2-0.2,0.4-0.3,0.6c-0.1,0.1-0.2,0.3-0.3,0.5
		c0,0,0,0.1-0.1,0.1c-0.1,0.1-0.3,0.3-0.3,0.5c0,0.1-0.1,0.1-0.1,0.1c-0.2,0.2-0.4,0.3-0.6,0.5c0,0.1-0.1,0.2-0.1,0.3
		c0,0.1-0.1,0.3-0.3,0.3c-0.2,0-0.3,0.1-0.4,0.2c0,0-0.1,0-0.1,0.1c-0.1,0.1-0.2,0.1-0.3,0.2c-0.2,0.1-0.3,0.2-0.5,0.2
		c-0.3,0-0.4,0.1-0.4,0.4c0,0.2-0.1,0.4-0.3,0.5c-0.2,0.1-0.1,0.2-0.2,0.3s-0.2,0.1-0.3,0.2c-0.1,0.2-0.3,0.4-0.5,0.5
		c-0.2,0.1-0.3,0.3-0.4,0.4c-0.1,0.2-0.3,0.3-0.5,0.4c-0.3,0.1-0.6,0.3-0.8,0.5c-0.2,0.1-0.4,0.2-0.6,0.3c-0.1,0.1-0.2,0.1-0.3,0
		c-0.1,0-0.3,0-0.4,0.1c-0.2,0.2-0.5,0.4-0.8,0.5c-0.1,0.1-0.2,0.1-0.3,0.1c-0.3,0-0.5,0-0.8,0c-0.3,0-0.6,0.1-0.9,0.3
		c-0.2,0.2-0.5,0.3-0.7,0.5c-0.1,0.1-0.2,0.1-0.4,0.1s-0.1,0.2-0.2,0.2c-0.2,0.1-0.3,0.1-0.5,0.2c-0.1,0-0.1,0-0.2,0
		c-0.3,0.1-0.6,0.1-0.9,0.1c-0.2,0-0.4,0-0.6,0.1c-0.1,0-0.2,0.1-0.2,0.1c-0.1,0-0.3,0-0.4,0c0,0-0.1,0-0.1,0
		c-0.3,0-0.6-0.1-0.9-0.1c-0.2,0-0.4,0-0.5,0.1c-0.2,0.1-0.3,0.2-0.5,0.4c-0.1,0-0.1,0-0.2,0c-0.1,0-0.2,0-0.3,0
		c-0.2-0.1-0.4-0.1-0.6-0.2c-0.2,0-0.4-0.1-0.5-0.2c-0.1-0.1-0.2-0.1-0.3-0.1c-0.2,0-0.5-0.1-0.7-0.2c-0.1-0.1-0.3-0.1-0.4-0.2
		c-0.1-0.1-0.2-0.1-0.4-0.1c-0.1,0-0.2,0-0.3,0c-0.1,0-0.2,0-0.2,0c-0.3,0-0.6-0.1-0.8-0.1c-0.3-0.1-0.6-0.1-0.9,0
		c-0.1,0-0.2,0-0.3,0c0,0-0.1,0-0.1,0c-0.1,0-0.2,0-0.3-0.1c-0.1,0-0.1-0.1-0.2-0.1c-0.1,0-0.2-0.1-0.3-0.2C83.1,62,82.8,62,82.6,62
		c-0.1,0-0.2,0-0.3,0.1c-0.1,0-0.3,0-0.4,0c-0.2-0.1-0.4-0.1-0.5-0.1c-0.1,0-0.3,0-0.4-0.1c-0.1-0.1-0.2-0.2-0.4-0.2
		c-0.2,0-0.3-0.1-0.5-0.1c-0.2,0-0.3-0.1-0.5-0.1c0,0-0.1,0-0.1,0c-0.3,0.1-0.6,0.1-0.9-0.1c-0.1,0-0.2-0.1-0.3-0.1
		c-0.2-0.1-0.5-0.1-0.7-0.2c-0.1,0-0.1,0-0.1-0.1c0,0,0-0.1-0.1-0.1c-0.1-0.2-0.4-0.4-0.7-0.3c0,0-0.1,0-0.1,0
		c-0.2-0.2-0.5-0.3-0.7-0.6c-0.1-0.2-0.2-0.3-0.3-0.4c-0.1-0.1-0.2-0.2-0.2-0.4c0-0.1-0.1-0.2-0.2-0.2c-0.2-0.1-0.4-0.2-0.4-0.4
		c-0.1-0.1-0.2-0.3-0.3-0.4c-0.1-0.1-0.2-0.2-0.3-0.2c-0.2-0.1-0.4-0.2-0.6-0.2c-0.2,0-0.3-0.1-0.4-0.3c-0.1-0.1-0.2-0.3-0.2-0.4
		c-0.1-0.2-0.3-0.5-0.5-0.7c-0.2-0.2-0.4-0.3-0.6-0.4c-0.2-0.1-0.3-0.1-0.5-0.2c-0.2,0-0.3-0.2-0.4-0.3c0-0.1-0.1-0.1-0.2-0.2
		c-0.2-0.1-0.4-0.3-0.6-0.5c-0.2-0.2-0.4-0.4-0.5-0.5c-0.1-0.1-0.1-0.2-0.2-0.2c-0.2-0.2-0.3-0.4-0.4-0.6c0-0.1-0.1-0.1-0.1-0.2
		c0-0.1-0.1-0.1-0.1-0.2c-0.2-0.2-0.3-0.4-0.3-0.6c0,0,0-0.1-0.1-0.1c-0.2-0.4-0.4-0.7-0.5-1.1c-0.1-0.2-0.2-0.4-0.3-0.6
		c-0.1-0.2-0.2-0.5-0.2-0.8c0-0.1,0-0.1,0-0.2c0-0.1,0-0.1-0.1-0.2c-0.2-0.3-0.3-0.6-0.5-0.8c-0.2-0.2-0.3-0.5-0.3-0.7
		c-0.1-0.4-0.3-0.8-0.5-1.2c-0.1-0.1-0.2-0.3-0.2-0.4c-0.1-0.1-0.1-0.3-0.2-0.4c-0.1-0.2-0.2-0.4-0.3-0.5c-0.2-0.3-0.3-0.6-0.2-0.9
		c0-0.2,0.2-0.3,0.3-0.3c0.1,0,0.2-0.1,0.2-0.2c0-0.1,0-0.2,0.1-0.2c0.1-0.2,0.2-0.5,0.1-0.7c0-0.2-0.1-0.4-0.2-0.6
		c-0.1-0.2-0.2-0.4-0.2-0.6c0-0.3-0.1-0.7-0.3-1c-0.2-0.4-0.4-0.7-0.6-1.1c-0.1-0.2-0.2-0.5-0.2-0.7c0-0.1,0.1-0.3,0.2-0.3
		c0.2-0.1,0.3-0.2,0.3-0.4c0-0.2,0.1-0.3,0.2-0.5c0.2-0.5,0.3-1.1,0.4-1.6c-0.1-0.2,0.1-0.3,0.1-0.5c0-0.1,0-0.1,0-0.2
		c0-0.1,0-0.1,0-0.2c0.1-0.1,0.1-0.3,0.1-0.4C65.8,34.8,65.8,34.7,65.8,34.5z"/>
	<path class="st2" d="M232.2,31.9c0.2-0.2,0.4-0.5,0.5-0.7c0.1-0.3,0.2-0.6,0.2-0.9c0-0.1,0-0.1,0.1-0.2c0.1-0.1,0.2-0.2,0.2-0.4
		c0-0.3,0.1-0.6,0.1-0.9c0-0.1,0.1-0.3,0.2-0.4c0.1-0.2,0.2-0.4,0.2-0.6c0-0.1,0.1-0.3,0.2-0.3c0,0,0.1,0,0.1-0.1
		c0-0.1,0-0.1-0.1-0.1c-0.3,0-0.4-0.2-0.5-0.4c0,0,0-0.1,0-0.1c0.1-0.1,0.1-0.3,0.2-0.5c0.1-0.1,0.2-0.3,0.4-0.4
		c0.2-0.1,0.4-0.3,0.6-0.5c0,0,0.1-0.1,0.1-0.2c0-0.2,0.1-0.4,0.1-0.6c0,0,0-0.1,0-0.1c0-0.3,0.1-0.6,0.3-0.9c0-0.1,0-0.2,0-0.3
		c-0.1-0.2,0-0.4,0.1-0.6c0,0,0,0,0-0.1c0.2-0.3,0.2-0.3,0.5-0.1l0.4,0.3c0.1,0,0.1-0.1,0.1-0.1c0.1-0.1,0.2-0.2,0.3-0.2
		c0.1-0.1,0.1-0.2,0.2-0.3c0.1-0.1,0.3-0.1,0.4-0.3c0,0,0-0.1,0.1-0.1c0.4-0.2,0.7-0.5,0.9-0.9c0.1-0.1,0.2-0.2,0.3-0.3
		c0.3-0.2,0.6-0.5,0.9-0.8c0,0,0.1-0.1,0.1-0.1c0.1-0.1,0.1-0.1,0.2-0.2c0.1,0,0.1-0.1,0.2-0.1c0.2-0.2,0.4-0.3,0.6-0.4
		c0.1,0,0.1-0.1,0.1-0.2c0.1-0.2,0.1-0.3,0.1-0.5c0-0.1,0.1-0.2,0.2-0.2c0.1,0,0.2-0.1,0.2-0.2c0,0,0-0.1,0-0.1
		c0-0.2,0.3-0.4,0.5-0.4c0.1,0,0.2,0,0.3,0.1c0.2,0.1,0.4,0.1,0.6-0.1c0.1-0.1,0.3-0.2,0.4-0.1c0.1,0,0.2,0,0.3,0
		c0.1-0.1,0.3-0.2,0.4-0.2c0.2-0.1,0.3-0.1,0.5-0.2c0.1,0,0.2,0,0.2-0.1c0,0,0.1,0,0.1,0c0.1-0.2,0.4-0.2,0.5-0.3c0,0,0.1,0,0.1,0
		c0.2,0,0.4-0.1,0.6,0c0.1,0,0.1,0,0.2-0.1c0.2-0.1,0.3-0.2,0.5-0.4c0.2-0.1,0.4-0.3,0.6-0.4c0.2-0.1,0.5-0.2,0.8-0.2
		c0.1,0,0.3,0.1,0.4-0.1c0.3,0,0.5-0.2,0.8-0.2c0.1,0,0.1,0,0.2-0.1c0.1-0.1,0.1-0.1,0.2-0.2c0,0,0.1-0.1,0.2-0.1
		c0.3,0,0.5-0.1,0.7-0.3c0,0,0,0,0.1,0c0.1,0.1,0.3,0.1,0.5,0.1c0.1,0,0.3,0,0.4,0.1c0,0,0.2,0,0.2,0c0.1,0,0.3,0,0.4,0
		c0.2,0.1,0.5,0,0.7-0.1c0.1-0.1,0.3-0.1,0.4-0.1c0.1,0,0.2,0,0.2-0.1c0.1-0.1,0.2-0.1,0.4,0c0.2,0,0.3,0,0.5,0c0,0,0.1,0,0.1,0
		c0.2,0.1,0.5,0,0.7-0.1c0.2-0.1,0.3-0.1,0.5,0c0,0,0.1,0,0.1,0.1l0.6-0.4c0.1,0,0.2,0.1,0.3,0.1c0.1,0,0.2,0,0.3,0c0,0,0,0,0.1,0
		c0.2-0.2,0.5-0.1,0.7-0.3c0.1,0,0.1,0,0.2,0c0.1,0,0.1,0,0.2,0c0.2-0.1,0.4-0.1,0.5,0c0,0,0,0,0.1,0c0.2-0.1,0.4,0,0.6,0.1
		c0.1,0.1,0.2,0.1,0.2,0.1c0.2,0.2,0.5,0.3,0.7,0.2c0.1,0,0.2,0,0.2,0c0.2,0.1,0.4,0.2,0.6,0.3c0.2,0.1,0.3,0.1,0.4,0.3
		c0,0,0.1,0.1,0.1,0.1c0.4,0.1,0.9,0.3,1.3,0.5c0,0,0,0,0,0c0.1,0.1,0.3,0.2,0.4,0.3c0.2,0.1,0.3,0.2,0.5,0.3
		c0.2,0.1,0.4,0.2,0.5,0.3c0.1,0,0.2,0.1,0.3,0.2c0.1,0.2,0.3,0.3,0.5,0.3c0.1,0,0.1,0.1,0.2,0.2c0.2,0.2,0.4,0.4,0.7,0.5
		c0.1,0,0.1,0.1,0.2,0.1c0.1,0.1,0.2,0.2,0.3,0.3c0.3-0.2,0.6,0,0.9,0c0.2,0.1,0.4,0.2,0.5,0.3c0,0,0.1,0.1,0.1,0.1
		c0.2,0,0.2,0,0.3,0.2c0,0,0.1,0.1,0.1,0.1c0.2,0.1,0.4,0.2,0.5,0.4c0.1,0.2,0.3,0.4,0.5,0.5c0.2,0.1,0.5,0.3,0.8,0.3
		c0.2,0.1,0.5,0.1,0.7,0.2c0.2,0,0.3,0.1,0.5,0.3c0.1,0,0.1,0.1,0.2,0.1c0.1,0,0.2,0.1,0.3,0.1c0.1,0.3,0.4,0.4,0.7,0.4v0.2
		c0.2,0.2,0.4,0.4,0.7,0.5c0.3,0.2,0.5,0.6,0.3,0.9c0,0,0,0,0,0.1c0,0,0,0.1-0.1,0.1c0.1,0.1,0.1,0.1,0.1,0.2c0,0.1,0,0.2,0,0.2
		c0,0.1,0,0.1,0.1,0.2c0,0,0,0.1,0,0.1c-0.1,0.2,0,0.5,0.1,0.7c0.1,0.2,0.2,0.4,0.3,0.6c0,0.2,0.2,0.3,0.3,0.4
		c0.1,0,0.2,0.1,0.2,0.2c0.2,0.1,0.3,0.3,0.5,0.4c0.1,0,0.1,0.1,0.1,0.1c0.1,0.1,0.2,0.3,0.3,0.3c0.2,0.1,0.3,0.2,0.4,0.4
		c0,0,0,0.1,0.1,0.1c0.3,0,0.3,0.3,0.4,0.4c0.1,0.2,0.1,0.4,0.1,0.6c0,0.1,0,0.3,0,0.4c0,0.2,0,0.4-0.1,0.6c0,0.1,0,0.1,0,0.2
		c0.1,0.2,0,0.4,0,0.6c0,0,0,0.1,0,0.1c0.1,0.1,0.2,0.1,0.2,0.3c0,0,0,0,0,0c0.1,0.1,0.1,0.2,0.2,0.2c0,0.1,0,0.2,0,0.3
		c0,0.1,0.1,0.2,0.1,0.2c0.1,0.1,0.2,0.2,0.2,0.3c0,0,0.1,0.1,0.1,0.1c0,0.2,0.1,0.3,0.1,0.4c-0.2,0.2-0.1,0.5-0.1,0.8
		c0,0,0,0.1,0,0.1c0.1,0.1,0.1,0.1,0.1,0.2c0,0,0,0,0,0c0.2,0.1,0.1,0.3,0.2,0.5c0,0.1,0.1,0.1,0.1,0.2l-0.1,0.2
		c0.1,0.2,0.2,0.3,0.4,0.4c0.1,0.1,0.1,0.2,0.1,0.4l0.4,0.2c0,0,0,0.1-0.1,0.1c0,0.1,0,0.1,0,0.2c0,0.2,0.1,0.3,0.1,0.4
		s0,0.3,0.1,0.4c0.2,0.2,0.2,0.4,0.2,0.6c0,0.3,0,0.6,0,0.9c0,0,0,0.1,0,0.1c-0.1,0.1-0.1,0.2,0,0.4c0.1,0.2,0.1,0.3,0,0.5
		c0,0,0,0.1,0,0.1c0,0.1,0,0.2,0,0.3c-0.1,0.1-0.1,0.2,0,0.3c0,0.1,0,0.2,0,0.3c0,0.1,0,0.2,0,0.2c-0.1,0.2-0.1,0.4-0.2,0.6
		c-0.1,0.1,0,0.2,0,0.3c0,0.1,0,0.3,0,0.4c0,0.1,0,0.1,0,0.2c-0.1,0.1-0.1,0.3-0.1,0.5c0,0.2,0,0.3,0,0.5c0,0.3,0,0.7-0.2,1
		c0,0.1-0.1,0.2-0.2,0.3c-0.1,0.2-0.2,0.4-0.1,0.6c0,0.3,0,0.7-0.1,1c-0.1,0.2-0.1,0.4-0.2,0.6c-0.1,0.2-0.1,0.4,0,0.6
		c-0.2,0.2-0.3,0.4-0.2,0.7c0,0.2-0.1,0.4-0.2,0.5c-0.1,0.1-0.2,0.3-0.1,0.4c0,0.1,0,0.2,0,0.3c-0.1,0.2-0.1,0.3-0.1,0.5
		c0,0,0,0.1,0,0.1c-0.2,0.4-0.4,0.8-0.7,1.1c-0.1,0-0.1,0.1-0.2,0.1c-0.1,0-0.2,0.1-0.3,0.2c-0.2,0.2-0.4,0.4-0.6,0.6
		c-0.1,0.1-0.3,0.2-0.4,0.2c-0.2,0-0.3,0.2-0.4,0.4c0,0.1-0.1,0.3-0.1,0.4c-0.1,0.2-0.2,0.4-0.3,0.6c-0.1,0.1-0.2,0.3-0.3,0.5
		c0,0,0,0.1-0.1,0.1c-0.1,0.1-0.3,0.3-0.3,0.5c0,0.1-0.1,0.1-0.1,0.1c-0.2,0.2-0.4,0.3-0.6,0.5c0,0.1-0.1,0.2-0.1,0.3
		c0,0.1-0.1,0.3-0.3,0.3c-0.2,0-0.3,0.1-0.4,0.2c0,0-0.1,0-0.1,0.1c-0.1,0.1-0.2,0.1-0.3,0.2c-0.2,0.1-0.3,0.2-0.5,0.2
		c-0.3,0-0.4,0.1-0.4,0.4c0,0.2-0.1,0.4-0.3,0.5c-0.2,0.1-0.1,0.2-0.2,0.3s-0.2,0.1-0.3,0.2c-0.1,0.2-0.3,0.4-0.5,0.5
		c-0.2,0.1-0.3,0.3-0.4,0.4c-0.1,0.2-0.3,0.3-0.5,0.4c-0.3,0.1-0.6,0.3-0.8,0.5c-0.2,0.1-0.4,0.2-0.6,0.3c-0.1,0.1-0.2,0.1-0.3,0
		c-0.1,0-0.3,0-0.4,0.1c-0.2,0.2-0.5,0.4-0.8,0.5c-0.1,0.1-0.2,0.1-0.3,0.1c-0.3,0-0.5,0-0.8,0c-0.3,0-0.6,0.1-0.9,0.3
		c-0.2,0.2-0.5,0.3-0.7,0.5c-0.1,0.1-0.2,0.1-0.4,0.1s-0.1,0.2-0.2,0.2c-0.2,0.1-0.3,0.1-0.5,0.2c-0.1,0-0.1,0-0.2,0
		c-0.3,0.1-0.6,0.1-0.9,0.1c-0.2,0-0.4,0-0.6,0.1c-0.1,0-0.2,0.1-0.2,0.1c-0.1,0-0.3,0-0.4,0c0,0-0.1,0-0.1,0
		c-0.3,0-0.6-0.1-0.9-0.1c-0.2,0-0.4,0-0.5,0.1c-0.2,0.1-0.3,0.2-0.5,0.4c-0.1,0-0.1,0-0.2,0c-0.1,0-0.2,0-0.3,0
		c-0.2-0.1-0.4-0.1-0.6-0.2c-0.2,0-0.4-0.1-0.5-0.2c-0.1-0.1-0.2-0.1-0.3-0.1c-0.2,0-0.5-0.1-0.7-0.2c-0.1-0.1-0.3-0.1-0.4-0.2
		c-0.1-0.1-0.2-0.1-0.4-0.1c-0.1,0-0.2,0-0.3,0c-0.1,0-0.2,0-0.2,0c-0.3,0-0.6-0.1-0.8-0.1c-0.3-0.1-0.6-0.1-0.9,0
		c-0.1,0-0.2,0-0.3,0c0,0-0.1,0-0.1,0c-0.1,0-0.2,0-0.3-0.1c-0.1,0-0.1-0.1-0.2-0.1c-0.1,0-0.2-0.1-0.3-0.2
		c-0.2-0.1-0.4-0.2-0.6-0.1c-0.1,0-0.2,0-0.3,0.1c-0.1,0-0.3,0-0.4,0c-0.2-0.1-0.4-0.1-0.5-0.1c-0.1,0-0.3,0-0.4-0.1
		c-0.1-0.1-0.2-0.2-0.4-0.2c-0.2,0-0.3-0.1-0.5-0.1c-0.2,0-0.3-0.1-0.5-0.1c0,0-0.1,0-0.1,0c-0.3,0.1-0.6,0.1-0.9-0.1
		c-0.1,0-0.2-0.1-0.3-0.1c-0.2-0.1-0.5-0.1-0.7-0.2c-0.1,0-0.1,0-0.1-0.1c0,0,0-0.1-0.1-0.1c-0.1-0.2-0.4-0.4-0.7-0.3
		c0,0-0.1,0-0.1,0c-0.2-0.2-0.5-0.3-0.7-0.6c-0.1-0.2-0.2-0.3-0.3-0.4c-0.1-0.1-0.2-0.2-0.2-0.4c0-0.1-0.1-0.2-0.2-0.2
		c-0.2-0.1-0.4-0.2-0.4-0.4c-0.1-0.1-0.2-0.3-0.3-0.4c-0.1-0.1-0.2-0.2-0.3-0.2c-0.2-0.1-0.4-0.2-0.6-0.2c-0.2,0-0.3-0.1-0.4-0.3
		c-0.1-0.1-0.2-0.3-0.2-0.4c-0.1-0.2-0.3-0.5-0.5-0.7c-0.2-0.2-0.4-0.3-0.6-0.4c-0.2-0.1-0.3-0.1-0.5-0.2c-0.2,0-0.3-0.2-0.4-0.3
		c0-0.1-0.1-0.1-0.2-0.2c-0.2-0.1-0.4-0.3-0.6-0.5c-0.2-0.2-0.4-0.4-0.5-0.5c-0.1-0.1-0.1-0.2-0.2-0.2c-0.2-0.2-0.3-0.4-0.4-0.6
		c0-0.1-0.1-0.1-0.1-0.2c0-0.1-0.1-0.1-0.1-0.2c-0.2-0.2-0.3-0.4-0.3-0.6c0,0,0-0.1-0.1-0.1c-0.2-0.4-0.4-0.7-0.5-1.1
		c-0.1-0.2-0.2-0.4-0.3-0.6c-0.1-0.2-0.2-0.5-0.2-0.8c0-0.1,0-0.1,0-0.2c0-0.1,0-0.1-0.1-0.2c-0.2-0.3-0.3-0.6-0.5-0.8
		c-0.2-0.2-0.3-0.5-0.3-0.7c-0.1-0.4-0.3-0.8-0.5-1.2c-0.1-0.1-0.2-0.3-0.2-0.4c-0.1-0.1-0.1-0.3-0.2-0.4c-0.1-0.2-0.2-0.4-0.3-0.5
		c-0.2-0.3-0.3-0.6-0.2-0.9c0-0.2,0.2-0.3,0.3-0.3c0.1,0,0.2-0.1,0.2-0.2c0-0.1,0-0.2,0.1-0.2c0.1-0.2,0.2-0.5,0.1-0.7
		c0-0.2-0.1-0.4-0.2-0.6c-0.1-0.2-0.2-0.4-0.2-0.6c0-0.3-0.1-0.7-0.3-1c-0.2-0.4-0.4-0.7-0.6-1.1c-0.1-0.2-0.2-0.5-0.2-0.7
		c0-0.1,0.1-0.3,0.2-0.3c0.2-0.1,0.3-0.2,0.3-0.4c0-0.2,0.1-0.3,0.2-0.5c0.2-0.5,0.3-1.1,0.4-1.6c-0.1-0.2,0.1-0.3,0.1-0.5
		c0-0.1,0-0.1,0-0.2c0-0.1,0-0.1,0-0.2c0.1-0.1,0.1-0.3,0.1-0.4C232.2,32.2,232.2,32.1,232.2,31.9z"/>
	<path class="st0" d="M205.9,37.9c0.5-0.4,0.9-0.9,1.3-1.5c-0.2-0.1-0.4-0.3-0.6-0.5c-0.9-0.8-1.9-1.5-2.9-2.2
		c-0.8-0.6-1.6-1.3-2.3-2c-0.1-0.2-0.3-0.4-0.5-0.5c-1.3-0.9-2.6-1.8-4-2.5c-0.4-0.2-0.7-0.4-0.9-0.7c-0.7-0.7-1.5-1.4-2.3-2
		c-0.7-0.4-1.4-0.9-1.9-1.6c-0.6-0.8-1.6-1.1-2.4-1.7c0,0-0.1,0-0.1,0c-0.7-0.2-1.3-0.7-1.9-1.2c-0.3-0.3-0.5-0.5-0.8-0.8
		c-0.5,0.6-0.9,1.2-1.3,1.9c-0.5,0.8-1,1.5-1.7,2.1c-0.2,0.2-0.4,0.4-0.5,0.6c0,0.1-0.1,0.1-0.1,0.2c0.2,0.2,0.5,0.3,0.8,0.4
		c0.2,0.1,0.4,0.2,0.6,0.3c0.6,0.6,1.3,1.1,2.1,1.5c0.3,0.1,0.5,0.6,0.9,0.8c1.6,1,3,2.1,4.5,3.2c0.2,0.2,0.4,0.3,0.6,0.5
		c0.3,0.3,0.6,0.6,1,0.8c0.7,0.4,1.3,1,1.9,1.6c0.2,0.2,0.5,0.4,0.7,0.5c0.9,0.5,1.8,1.1,2.7,1.7c0.6,0.5,1.3,1,2,1.5
		c0.9,0.6,1.8,1.2,2.7,1.7c0.2,0.1,0.3,0.2,0.4,0.3c0.5-0.8,1.1-1.5,1.6-2.3C205.6,38.2,205.7,38.1,205.9,37.9z"/>
	<path class="st0" d="M204.6,33.9c-0.4-0.5-0.9-1-1.4-1.5c-0.2,0.2-0.3,0.4-0.5,0.5c-1,0.8-1.6,1.8-2.4,2.7
		c-0.7,0.8-1.4,1.5-2.2,2.1c-0.2,0.1-0.4,0.3-0.6,0.4c-1,1.2-2,2.4-2.8,3.8c-0.2,0.3-0.5,0.6-0.8,0.9c-0.8,0.6-1.5,1.4-2.2,2.2
		c-0.5,0.7-1.1,1.3-1.7,1.7c-0.8,0.6-1.2,1.5-1.9,2.2c0,0,0,0.1,0,0.1c-0.3,0.7-0.8,1.3-1.4,1.7c-0.3,0.2-0.6,0.5-0.9,0.7
		c0.6,0.5,1.2,1,1.8,1.4c0.7,0.5,1.4,1.1,2,1.9c0.2,0.2,0.4,0.4,0.6,0.6c0.1,0.1,0.1,0.1,0.2,0.2c0.2-0.2,0.3-0.5,0.5-0.7
		c0.1-0.2,0.3-0.4,0.4-0.6c0.6-0.6,1.3-1.1,1.7-1.9c0.1-0.3,0.6-0.5,0.8-0.8c1.1-1.5,2.4-2.8,3.6-4.2c0.2-0.2,0.4-0.4,0.6-0.6
		c0.3-0.3,0.6-0.6,0.9-0.9c0.5-0.7,1.1-1.2,1.8-1.7c0.2-0.2,0.4-0.4,0.6-0.7c0.6-0.9,1.2-1.7,1.9-2.5c0.6-0.6,1.1-1.2,1.6-1.8
		c0.7-0.8,1.3-1.7,2-2.5c0.1-0.1,0.2-0.3,0.4-0.4c-0.7-0.6-1.4-1.2-2.2-1.8C204.9,34.3,204.7,34.2,204.6,33.9z"/>
</g>
<g id="solo_testo">
	<path class="st2" d="M97.5,25.2l-2.4,23.3l-3.8,0.1l0.6-6.5c-2,0-4,0.1-6,0.2l-3.6,6.6l-3.2-1.3l2.8-5.2c-1.2,0.1-2.5,0.1-3.6,0.2
		l0.9-3.7l4.7-0.2l6.2-11.5l2.9,1.3l0.3-3L97.5,25.2z M92.1,38.4l0.8-9l-5,9.2C89.3,38.5,90.7,38.5,92.1,38.4z"/>
	<path class="st1" d="M263.9,25.2l-2.4,23.3l-3.8,0.1l0.6-6.5c-2,0-4,0.1-6,0.2l-3.6,6.6l-3.2-1.3l2.8-5.2c-1.2,0.1-2.5,0.1-3.6,0.2
		l0.9-3.7l4.7-0.2l6.2-11.5l2.9,1.3l0.3-3L263.9,25.2z M258.5,38.4l0.8-9l-5,9.2C255.7,38.5,257.1,38.5,258.5,38.4z"/>
	<path class="st2" d="M22.5,46.8v1.1h-7.6v-1.1h2.4v-8.2c0-1.5-1.2-2.6-2.6-2.6c-0.1,0-0.2,0-0.3,0c-1.4,0-2.8,0.6-3.8,1.6v9.2h2.4
		v1.1H5.3v-1.1H8V35.9l-3,1.4l-0.4-1.2l5.9-2.1v2.9c1.2-1.7,3.1-2.7,5.1-2.8c2.6,0,4.1,1.5,4.1,4v8.7H22.5z"/>
	<path class="st2" d="M38.4,40.8c0.1,3.9-2.9,7.2-6.8,7.4c-0.2,0-0.3,0-0.5,0c-3.7,0.1-6.7-2.8-6.8-6.5c0-0.1,0-0.2,0-0.3
		c-0.2-3.9,2.9-7.1,6.7-7.3c0.2,0,0.3,0,0.5,0c3.6-0.1,6.7,2.7,6.8,6.3C38.4,40.5,38.4,40.7,38.4,40.8z M35.5,42.1
		c0-4.2-1.8-7.1-4.5-7.1c-2.2,0-3.8,1.9-3.8,5.2c0,4.2,1.9,6.9,4.6,6.9C34,47.2,35.5,45.4,35.5,42.1z"/>
	<path class="st2" d="M42.8,44.7v-8.8l-2.2-0.1V35l3.2-0.7L43.3,29h2.1l-0.5,5.4h5.7v1.5h-5.3v8.2c0,2,1,2.4,2.2,2.4
		c1.5,0,2.2-0.7,2.2-1.8l-0.3-4.3H51l-0.2,4.3c-0.1,2.4-2,3.5-4,3.5C44.6,48.2,42.8,47.4,42.8,44.7z"/>
</g>
</svg>
