<?xml version="1.0" encoding="utf-8"?>
<!-- Generator: Adobe Illustrator 22.0.1, SVG Export Plug-In . SVG Version: 6.00 Build 0)  -->
<svg version="1.1" id="Livello_1" xmlns="http://www.w3.org/2000/svg" xmlns:xlink="http://www.w3.org/1999/xlink" x="0px" y="0px"
	 viewBox="0 0 296 142" style="enable-background:new 0 0 296 142;" xml:space="preserve">
<style type="text/css">
	.st0{fill:#FF3366;}
	.st1{fill:#FFEDED;}
	.st2{fill:#1858A8;}
</style>
<title>manuale_ill_nuove</title>
<g id="solo_testo">
	<path class="st0" d="M90.4,109.6c1.2,0.3,2.4,0.4,3.7,0.4c0.9-0.1,1.8-0.1,2.7-0.1c0.8,0.1,1.6,0.1,2.5,0c0.9-0.1,1.8-0.1,2.7-0.1
		c0.8,0.1,1.6,0.1,2.5,0c0.5,0,0.9,0,1.4,0.1c1.1,0.1,2.2,0.2,3.3,0.1c1.1-0.1,2.3-0.1,3.4-0.2c0.4,0,0.7,0,1.1,0
		c0.5,0,0.9,0.1,1.4,0.1c1.5,0.1,2.9,0.1,4.4,0c0.2,0,0.3,0,0.5,0.1c0.2,0,0.5,0,0.7,0c0.3,0,0.5,0,0.8,0c0.9,0.2,1.8,0.2,2.7,0.1
		c1.1-0.1,2.1-0.1,3.2,0c0.2,0,0.5,0,0.7,0c0.7,0,1.3-0.1,2-0.1c0.9-0.1,1.9,0,2.8,0.1c0.7,0.1,1.4,0.1,2.1,0c0.2,0,0.5-0.1,0.7-0.1
		c0.8,0.1,1.7,0.1,2.6,0c0.3-0.1,0.8,0.1,1.2,0.1c1.8-0.1,3.7-0.1,5.5-0.1c0.3,0,0.5,0,0.8,0c0.4,0.1,0.9,0.1,1.3,0.1
		c0.8-0.1,1.7,0,2.5,0.2c0.3,0.1,0.6,0.1,0.9,0c1-0.2,2.1-0.2,3.2-0.2c0.8,0.1,1.6,0.1,2.5,0c1.1-0.1,2.1-0.1,3.2-0.2
		c0.2,0,0.4,0,0.6,0c-0.1-0.9-0.1-1.9-0.1-2.8c0-0.2,0-0.5,0.1-0.7c0.1-0.7,0.2-1.3,0.2-2c-0.2,0-0.5,0-0.7,0
		c-1.2-0.1-2.4-0.1-3.6-0.1c-1,0-2-0.1-3-0.2c-0.2-0.1-0.5-0.1-0.7-0.1c-1.6,0-3.1,0.1-4.7,0.4c-0.4,0.1-0.8,0.1-1.2,0
		c-1-0.2-2-0.2-3-0.2c-0.8,0.1-1.7,0.1-2.5-0.1c-1-0.1-1.9-0.1-2.9,0.1c0,0-0.1,0-0.1,0c-0.7,0.2-1.5,0.3-2.2,0.1
		c-0.7-0.1-1.5-0.2-2.2-0.2c-1-0.1-2,0-2.9,0.1c-0.1,0-0.2,0-0.4,0c-0.5,0-1.1-0.1-1.6-0.1c-1.2-0.2-2.4-0.2-3.6,0
		c-0.4,0-0.8,0-1.2,0c-0.5,0-0.9-0.1-1.4-0.1c-0.4,0-0.8,0-1.2,0c-0.8-0.1-1.6-0.1-2.4-0.1c-0.4,0-0.8,0-1.2-0.1
		c-0.6-0.1-1.2-0.2-1.9-0.2c-0.7,0.1-1.4,0.1-2.1,0c-0.9-0.2-1.9-0.1-2.8,0.1c-0.8,0.1-1.6,0.1-2.3,0c-0.7-0.1-1.5-0.1-2.2,0.1
		c-0.8,0.2-1.6,0.3-2.3,0.1c-0.3-0.1-0.7,0-1.1-0.1l-1.2-0.1c-0.9-0.1-1.9-0.1-2.8-0.2c-0.6,0-1.2,0-1.8,0.1c-0.6,0-1.2,0-1.9,0
		c-0.6,0.1-1.2,0-1.7-0.1c-0.4,0-0.7-0.1-1-0.1c-0.7-0.1-1.4,0.4-1.5,1.1c0,0,0,0.1,0,0.1c-0.2,1.1,0,2.3-0.3,3.4
		c0,0.2,0.1,0.3,0.1,0.5C90.3,109.1,90.3,109.3,90.4,109.6z"/>
	<path class="st0" d="M90.4,37.9c1.2,0.3,2.4,0.4,3.7,0.4c0.9-0.1,1.8-0.1,2.7-0.1c0.8,0.1,1.6,0.1,2.5,0c0.9-0.1,1.8-0.1,2.7-0.1
		c0.8,0.1,1.6,0.1,2.5,0c0.5,0,0.9,0,1.4,0.1c1.1,0.1,2.2,0.2,3.3,0.1c1.1-0.1,2.3-0.1,3.4-0.2c0.4,0,0.7,0,1.1,0
		c0.5,0,0.9,0.1,1.4,0.1c1.5,0.1,2.9,0.1,4.4,0c0.2,0,0.3,0,0.5,0.1c0.2,0,0.5,0,0.7,0c0.3,0,0.5,0,0.8,0c0.9,0.2,1.8,0.2,2.7,0.1
		c1.1-0.1,2.1-0.1,3.2,0c0.2,0,0.5,0,0.7,0c0.7,0,1.3-0.1,2-0.1c0.9-0.1,1.9,0,2.8,0.1c0.7,0.1,1.4,0.1,2.1,0c0.2,0,0.5-0.1,0.7-0.1
		c0.8,0.1,1.7,0.1,2.6,0c0.3-0.1,0.8,0.1,1.2,0.1c1.8-0.1,3.7-0.1,5.5-0.1c0.3,0,0.5,0,0.8,0c0.4,0.1,0.9,0.1,1.3,0.1
		c0.8-0.1,1.7,0,2.5,0.2c0.3,0.1,0.6,0.1,0.9,0c1-0.2,2.1-0.2,3.2-0.2c0.8,0.1,1.6,0.1,2.5,0c1.1-0.1,2.1-0.1,3.2-0.2
		c0.2,0,0.4,0,0.6,0c-0.1-0.9-0.1-1.9-0.1-2.8c0-0.2,0.1-0.5,0.1-0.7c0.1-0.7,0.2-1.3,0.2-2c-0.2,0-0.5,0-0.7,0
		c-1.2-0.1-2.4-0.1-3.6,0c-1,0-2-0.1-3-0.2c-0.2-0.1-0.5-0.1-0.7-0.1c-1.6,0-3.1,0.1-4.7,0.4c-0.4,0.1-0.8,0.1-1.2,0
		c-1-0.2-2-0.2-3-0.2c-0.8,0.1-1.7,0.1-2.5-0.1c-1-0.1-1.9-0.1-2.9,0.1c0,0-0.1,0-0.1,0c-0.7,0.2-1.5,0.3-2.2,0.1
		c-0.7-0.1-1.5-0.2-2.2-0.2c-1-0.1-2,0-2.9,0.1c-0.1,0-0.2,0-0.4,0c-0.5,0-1.1-0.1-1.6-0.1c-1.2-0.2-2.4-0.2-3.6,0
		c-0.4,0-0.8,0-1.2,0c-0.5,0-0.9-0.1-1.4-0.1c-0.4,0-0.8,0-1.2,0c-0.8-0.1-1.6-0.1-2.4-0.1c-0.4,0-0.8,0-1.2-0.1
		c-0.6-0.1-1.2-0.2-1.9-0.2c-0.7,0.1-1.4,0.1-2.1,0c-0.9-0.2-1.9-0.1-2.8,0.1c-0.8,0.1-1.6,0.1-2.3,0c-0.7-0.1-1.5-0.1-2.2,0.1
		c-0.8,0.2-1.6,0.3-2.3,0.1c-0.3-0.1-0.7,0-1.1-0.1l-1.2-0.1c-0.9-0.1-1.9-0.1-2.8-0.2c-0.6,0-1.2,0-1.8,0.1c-0.6,0-1.2,0-1.9,0
		c-0.6,0.1-1.2,0-1.7-0.1c-0.4,0-0.7-0.1-1-0.1c-0.7-0.1-1.4,0.4-1.5,1.1c0,0,0,0.1,0,0.1c-0.2,1.1,0,2.3-0.3,3.4
		c0,0.2,0.1,0.3,0.1,0.5C90.3,37.4,90.3,37.6,90.4,37.9z"/>
	<path class="st0" d="M95,73.9c-0.9-0.2-1.9-0.2-2.8-0.1c-0.6,0-1.3,0.1-1.9,0.1c-0.1,0.7-0.1,1.4,0,2.1c0,0.4,0,0.8-0.1,1.2
		C90,77.8,90,78.4,90,79.1c0.1,0.7,0.1,1.4,0,2.1c-0.2,0.9-0.1,1.9,0.1,2.8c0.1,0.8,0.1,1.6,0,2.3c-0.1,0.7-0.1,1.5,0.1,2.2
		c0.2,0.8,0.3,1.6,0.1,2.3c-0.1,0.3,0,0.7-0.1,1.1l-0.1,1.2C90.1,94,90,95,90,95.9c0,0.6,0,1.2,0.1,1.8c0,0.6,0,1.2,0,1.9
		c0.1,0.6,0,1.2-0.1,1.7c0,0.4-0.1,0.7-0.1,1c-0.1,0.7,0.4,1.4,1.1,1.5c0,0,0.1,0,0.1,0c1.1,0.2,2.3,0,3.4,0.3
		c0.2,0,0.3-0.1,0.5-0.1c0.3,0,0.5-0.1,0.8-0.2c0.3-1.2,0.4-2.4,0.4-3.7c-0.1-0.9-0.1-1.8-0.1-2.7c0.1-0.8,0.1-1.6,0-2.5
		C96,94.2,96,93.2,96,92.3c0.1-0.8,0.1-1.6,0-2.5c0-0.5,0-0.9,0.1-1.4c0.1-1.1,0.2-2.2,0.1-3.3c-0.1-1.1-0.1-2.3-0.2-3.4
		c0-0.4,0-0.7,0-1.1c0-0.5,0.1-0.9,0.1-1.4c0.1-1.5,0.1-2.9,0-4.4c0-0.2,0-0.3,0.1-0.5c0-0.2,0-0.3,0-0.5C95.8,74,95.4,74,95,73.9z"
		/>
	<path class="st0" d="M91.9,68.1c0.1,0,0.2,0,0.4,0c1-0.2,1.9-0.2,2.9-0.1c0.4,0,0.7,0,1.1,0c0-0.3,0-0.6,0.1-0.9c0-0.2,0-0.5,0-0.7
		c0-0.7-0.1-1.3-0.1-2c-0.1-0.9,0-1.9,0.1-2.8c0.1-0.7,0.1-1.4,0-2.1c0-0.2-0.1-0.5-0.1-0.7c0.1-0.8,0.1-1.7,0-2.6
		c-0.1-0.3,0.1-0.8,0.1-1.2c-0.1-1.8-0.1-3.7-0.1-5.5c0-0.3,0-0.5,0-0.8c0.1-0.4,0.1-0.9,0.1-1.3c-0.1-0.8,0-1.7,0.2-2.5
		c0.1-0.3,0.1-0.6,0-0.9c-0.2-1-0.2-2.1-0.2-3.2c0.1-0.8,0.1-1.6,0-2.5c-0.1-1.1-0.1-2.1-0.2-3.2c0-0.2,0-0.4,0-0.6
		c-0.9,0.1-1.9,0.1-2.8,0.1c-0.2,0-0.5,0-0.7-0.1c-0.7-0.1-1.3-0.2-2-0.2c0,0.2,0,0.5,0,0.7c-0.1,1.2-0.1,2.4-0.1,3.6
		c0,1-0.1,2-0.2,3c-0.1,0.2-0.1,0.5-0.1,0.7c0,1.6,0.1,3.1,0.4,4.7c0.1,0.4,0.1,0.8,0,1.2c-0.2,1-0.2,2-0.2,3
		c0.1,0.8,0.1,1.7-0.1,2.5c-0.1,1-0.1,1.9,0.1,2.9c0,0,0,0.1,0,0.1c0.2,0.7,0.3,1.5,0.1,2.2c-0.1,0.7-0.2,1.5-0.2,2.2
		c-0.1,1,0,2,0.1,2.9c0,0.1,0,0.2,0,0.4c0,0.5-0.1,1.1-0.1,1.6c-0.1,0.5-0.1,1.1-0.1,1.6h0C90.8,68,91.3,68,91.9,68.1z"/>
	<path class="st0" d="M90.3,72.5c0-0.5,0.1-0.9,0.1-1.4c0-0.4,0-0.8,0-1.2c-0.1-0.7-0.2-1.3-0.1-2c-1.2-0.2-2.4-0.2-3.6,0
		c-0.4,0-0.8,0-1.2,0c-0.5,0-0.9-0.1-1.4-0.1c-0.4,0-0.8,0-1.2,0c-0.8-0.1-1.6-0.1-2.4-0.1c-0.4,0-0.8,0-1.2-0.1
		c-0.6-0.1-1.2-0.2-1.9-0.2c-0.7,0.1-1.4,0.1-2.1,0c-0.9-0.2-1.9-0.1-2.8,0.1c-0.8,0.1-1.6,0.1-2.3,0c-0.7-0.1-1.5-0.1-2.2,0.1
		c-0.8,0.2-1.6,0.3-2.3,0.1c-0.3-0.1-0.7,0-1.1-0.1l-1.2-0.1c-0.9-0.1-1.9-0.1-2.8-0.2c-0.6,0-1.2,0-1.8,0.1c-0.6,0-1.2,0-1.9,0
		c-0.6,0.1-1.2,0-1.7-0.1c-0.4,0-0.7-0.1-1-0.1c-0.7-0.1-1.4,0.4-1.5,1.1c0,0,0,0.1,0,0.1c-0.2,1.1,0,2.3-0.3,3.3
		c0,0.2,0,0.3,0.1,0.5c0,0.3,0.1,0.5,0.2,0.8c1.2,0.3,2.4,0.4,3.7,0.4c0.9-0.1,1.8-0.1,2.7-0.1c0.8,0.1,1.6,0.1,2.5,0
		c0.9-0.1,1.8-0.1,2.7-0.1c0.8,0.1,1.6,0.1,2.5,0c0.5,0,0.9,0,1.4,0.1c1.1,0.1,2.2,0.2,3.3,0.1c1.1-0.1,2.3-0.1,3.4-0.2
		c0.4,0,0.7,0,1.1,0c0.5,0,0.9,0.1,1.4,0.1c1.5,0.1,2.9,0.1,4.4,0c0.2,0,0.3,0,0.5,0.1c0.2,0,0.5,0,0.7,0c0.3,0,0.5,0,0.8,0
		c0.9,0.2,1.8,0.2,2.7,0.1c1.1-0.1,2.1-0.1,3.2,0c0.2,0,0.5,0,0.7,0l0.1,0c0-0.1,0-0.1,0-0.2C90.3,73.3,90.3,72.9,90.3,72.5z"/>
	<path class="st0" d="M96.2,73c0.2-0.9,0.2-1.8,0.1-2.7c-0.1-0.8-0.1-1.5-0.1-2.3c-0.4,0-0.7-0.1-1.1,0c-1-0.1-2,0-2.9,0.1
		c-0.1,0-0.2,0-0.4,0c-0.5,0-1.1-0.1-1.6-0.1h0c0,0.7,0,1.3,0.1,2c0,0.4,0,0.8,0,1.2c0,0.5-0.1,0.9-0.1,1.4c0,0.4,0,0.8,0,1.2
		c0,0.1,0,0.1,0,0.2c0.6,0,1.3-0.1,1.9-0.1c0.9-0.1,1.9,0,2.8,0.1c0.4,0.1,0.8,0.1,1.2,0.1c0-0.1,0-0.2,0-0.2
		C96.2,73.5,96.2,73.2,96.2,73z"/>
	<path class="st0" d="M227.8,35.5c-1.2-0.3-2.4-0.4-3.7-0.4c-0.9,0.1-1.8,0.1-2.7,0.1c-0.8-0.1-1.6-0.1-2.5,0
		c-0.9,0.1-1.8,0.1-2.7,0.1c-0.8-0.1-1.6-0.1-2.5,0c-0.5,0-0.9,0-1.4-0.1c-1.1-0.1-2.2-0.2-3.3-0.1c-1.1,0.1-2.3,0.1-3.4,0.2
		c-0.4,0-0.7,0-1.1,0c-0.5,0-0.9-0.1-1.4-0.1c-1.4,0-2.9-0.2-4.3,0c-0.2,0-0.3,0-0.5-0.1c-0.2,0-0.5,0-0.7,0c-0.3,0-0.5,0-0.8,0
		c-0.9-0.2-1.8-0.2-2.7-0.1c-1.1,0.1-2.1,0.1-3.2,0c-0.2,0-0.5,0-0.7,0c-0.7,0-1.3,0.1-2,0.1c-0.9,0.1-1.9,0-2.8-0.1
		c-0.7-0.1-1.4-0.1-2.1,0c-0.2,0-0.5,0.1-0.7,0.1c-0.8-0.1-1.7-0.1-2.5,0c-0.3,0.1-0.8-0.1-1.2-0.1c-1.8,0.1-3.7,0.1-5.5,0.1
		c-0.3,0-0.5,0-0.8,0c-0.4,0-0.9-0.1-1.3-0.1c-0.8,0.1-1.6,0-2.4-0.2c-0.3-0.1-0.6,0-0.9,0c-1,0.2-2.1,0.2-3.2,0.2
		c-0.8,0-1.6-0.1-2.5,0c-1.1,0-2.1,0.1-3.2,0.2c-0.2,0-0.4,0-0.6,0c0.1,0.9,0.1,1.8,0.1,2.7c0,0.2-0.1,0.5-0.1,0.7
		c-0.1,0.6-0.2,1.3-0.2,1.9c0.2,0,0.5,0,0.7,0c1.2,0.2,2.4,0,3.6,0c1,0,2,0.1,3,0.2c0.2,0.1,0.5,0.1,0.7,0.1c1.6,0,3.1-0.1,4.7-0.4
		c0.4-0.1,0.8-0.1,1.2,0c1,0.2,2,0.2,3,0.2c0.8-0.1,1.6-0.1,2.5,0.1c1,0.1,1.9,0.1,2.9,0c0,0,0.1,0,0.1,0c0.7-0.2,1.5-0.3,2.2-0.1
		c0.7,0.1,1.5,0.2,2.2,0.2c1,0.1,2,0,2.9-0.1c0.1,0,0.2,0,0.4,0c0.5,0,1.1,0.1,1.6,0.1c1.2,0.2,2.4,0.2,3.6,0c0.4,0,0.8,0,1.2,0
		c0.5,0,0.9,0.1,1.4,0.1c0.4,0,0.8,0,1.2,0c0.8,0.1,1.6,0.1,2.3,0.1c0.4,0,0.8,0,1.2,0.1c0.6,0.1,1.2,0.2,1.9,0.2
		c0.7-0.1,1.4-0.1,2.1,0c0.9,0.1,1.9,0.1,2.8-0.1c0.8-0.1,1.6-0.1,2.3,0c0.7,0.1,1.5,0.1,2.2-0.1c0.8-0.2,1.6-0.3,2.3-0.1
		c0.3,0.1,0.7,0,1.1,0.1L217,41c0.9,0.1,1.9,0.1,2.8,0.2c0.6,0,1.2,0,1.8-0.1c0.6,0,1.2,0,1.9,0c0.6-0.1,1.2,0,1.7,0.1
		c0.4,0,0.7,0.1,1,0.1c0.7,0.1,1.4-0.3,1.5-1.1c0,0,0-0.1,0-0.1c0.2-1.1,0-2.2,0.3-3.2c0-0.2-0.1-0.3-0.1-0.5
		C227.9,36.1,227.8,35.8,227.8,35.5z"/>
	<path class="st0" d="M270.8,70.3c0.1-0.7,0.2-1.3,0.2-2c-0.2,0-0.5,0-0.7,0c-1.2-0.1-2.4-0.1-3.6-0.1c-1,0-2-0.1-3-0.2
		c-0.2-0.1-0.5-0.1-0.7-0.1c-1.6,0-3.1,0.1-4.7,0.4c-0.4,0.1-0.8,0.1-1.2,0c-1-0.2-2-0.2-3-0.2c-0.8,0.1-1.7,0.1-2.5-0.1
		c-1-0.1-1.9-0.1-2.9,0.1c0,0-0.1,0-0.1,0c-0.7,0.2-1.5,0.3-2.2,0.1c-0.7-0.1-1.5-0.2-2.2-0.2c-1-0.1-2,0-2.9,0.1
		c-0.1,0-0.2,0-0.4,0c-0.5,0-1.1-0.1-1.6-0.1c-1.2-0.2-2.4-0.2-3.6,0c-0.4,0-0.8,0-1.2,0c-0.5,0-0.9-0.1-1.4-0.1c-0.4,0-0.8,0-1.2,0
		c-0.8-0.1-1.6-0.1-2.4-0.1c-0.4,0-0.8,0-1.2-0.1c-0.1,0-0.2,0-0.3,0c0,0.1,0,0.2,0,0.2c0.1,0.8,0,1.5-0.1,2.3c0,0.4,0,0.8,0,1.1
		c0,0.5-0.1,0.9-0.1,1.4c0,0.3,0,0.7,0,1c0.9,0.1,1.8,0.1,2.7,0c0.2,0,0.3,0,0.5,0.1c0.2,0,0.5,0,0.7,0c0.3,0,0.5,0,0.8,0
		c0.9,0.2,1.8,0.2,2.7,0.1c1.1-0.1,2.1-0.1,3.2,0c0.2,0,0.5,0,0.7,0c0.7,0,1.3-0.1,2-0.1c0.9-0.1,1.9,0,2.8,0.1
		c0.7,0.1,1.4,0.1,2.1,0c0.2,0,0.5-0.1,0.7-0.1c0.8,0.1,1.7,0.1,2.6,0c0.3-0.1,0.8,0.1,1.2,0.1c1.8-0.1,3.7-0.1,5.5-0.1
		c0.3,0,0.5,0,0.8,0c0.4,0.1,0.9,0.1,1.3,0.1c0.8-0.1,1.7,0,2.5,0.2c0.3,0.1,0.6,0.1,0.9,0c1-0.2,2.1-0.2,3.2-0.2
		c0.8,0.1,1.6,0.1,2.5,0c1.1-0.1,2.1-0.1,3.2-0.2c0.2,0,0.4,0,0.6,0c-0.1-0.9-0.1-1.9-0.1-2.8C270.6,70.7,270.7,70.5,270.8,70.3z"/>
	<path class="st0" d="M224.3,67.6c0.7,0.1,1.4,0.1,2.1,0c0.5,0,1,0,1.5,0.1c0-0.3,0-0.6,0.1-0.9c0.1-0.6,0.2-1.2,0.2-1.8
		c-0.1-0.7-0.1-1.4,0-2c0.2-0.9,0.1-1.8-0.1-2.7c-0.1-0.7-0.1-1.5,0-2.2c0.1-0.7,0.1-1.4-0.1-2.1c-0.2-0.7-0.3-1.5-0.1-2.3
		c0-0.3,0.1-0.7,0.1-1c0-0.4,0-0.8,0.1-1.1c0.1-0.9,0.1-1.8,0.2-2.7c0-0.6,0-1.1-0.1-1.7c0-0.6,0-1.2,0-1.8c-0.1-0.6,0-1.1,0.1-1.7
		c0-0.3,0.1-0.7,0.1-1c0.1-0.7-0.4-1.4-1.1-1.5c-0.1,0-0.1,0-0.2,0c-1.1,0-2.2-0.1-3.3-0.3c-0.2,0-0.3,0-0.5,0.1
		c-0.3,0-0.5,0.1-0.8,0.2c-0.3,1.2-0.4,2.3-0.4,3.5c0.1,0.9,0.1,1.7,0.1,2.6c-0.1,0.8-0.1,1.6,0,2.4c0.1,0.9,0.1,1.7,0.1,2.6
		c-0.1,0.8-0.1,1.6,0,2.4c0,0.5,0,0.9-0.1,1.4c-0.1,1.1-0.2,2.1-0.1,3.2c0.1,1.1,0.1,2.2,0.2,3.3c0,0.3,0,0.7,0,1
		c0,0.5-0.1,0.9-0.1,1.4c0,0.9-0.1,1.8-0.1,2.8C222.8,67.4,223.5,67.4,224.3,67.6z"/>
	<path class="st0" d="M224.8,73.6c-0.4,0-0.7,0-1.1,0c-0.6,0-1.2,0.1-1.8,0.1c0.1,0.9,0.1,1.9,0,2.9c0,0.2,0,0.5,0,0.7
		c0,0.6,0.1,1.3,0.1,1.9c0.1,0.9,0,1.8-0.1,2.7c-0.1,0.7-0.1,1.4,0,2c0,0.2,0.1,0.4,0.1,0.7c-0.1,0.8-0.1,1.7,0,2.5
		c0.1,0.3-0.1,0.7-0.1,1.1c0.1,1.8,0.1,3.5,0.1,5.3c0,0.3,0,0.5,0,0.8c-0.1,0.4-0.1,0.8-0.1,1.2c0.1,0.8,0,1.6-0.2,2.4
		c-0.1,0.3-0.1,0.6,0,0.9c0.2,1,0.2,2,0.2,3.1c-0.1,0.8-0.1,1.6,0,2.4c0.1,1,0.1,2,0.2,3.1c0,0.2,0,0.4,0,0.5
		c0.9-0.1,1.9-0.1,2.8-0.1c0.2,0,0.5,0,0.7,0.1c0.7,0.1,1.3,0.2,2,0.2c0-0.2,0-0.5,0-0.7c0.1-1.2,0.1-2.3,0.1-3.5c0-1,0.1-2,0.2-2.9
		c0.1-0.2,0.1-0.4,0.1-0.7c0-1.5-0.1-3-0.4-4.5c-0.1-0.4-0.1-0.7,0-1.1c0.2-1,0.2-2,0.2-2.9c-0.1-0.8-0.1-1.6,0.1-2.4
		c0.1-0.9,0.1-1.9-0.1-2.8c0,0,0-0.1,0-0.1c-0.2-0.7-0.3-1.4-0.1-2.1c0.1-0.7,0.2-1.4,0.2-2.1c0.1-0.9,0-1.9-0.1-2.8
		c0-0.1,0-0.2,0-0.3c0-0.5,0.1-1.1,0.1-1.6c0.2-1.2,0.2-2.3,0-3.5c0,0,0-0.1,0-0.1c-0.5,0-1.1,0-1.6,0
		C225.7,73.7,225.2,73.6,224.8,73.6z"/>
	<path class="st0" d="M227.8,72.7c0-0.5,0.1-0.9,0.1-1.4c0-0.4,0-0.8,0-1.1c0.1-0.8,0.1-1.5,0.1-2.3c0-0.1,0-0.2,0-0.2
		c-0.5-0.1-1-0.2-1.5-0.1c-0.7,0.1-1.4,0.1-2.1,0c-0.8-0.1-1.5-0.1-2.3,0c0,0.5,0,1,0.1,1.4c0,0.2,0,0.3-0.1,0.4c0,0.2,0,0.4,0,0.7
		c0,0.3,0,0.5,0,0.8c-0.2,0.9-0.2,1.7-0.1,2.6c0,0.1,0,0.1,0,0.2c0.6,0,1.2-0.1,1.8-0.1c0.4,0,0.7,0,1.1,0c0.5,0,0.9,0.1,1.4,0.1
		c0.5,0,1.1,0,1.6,0C227.8,73.4,227.8,73,227.8,72.7z"/>
	<path class="st0" d="M227.8,104.7c-1.2-0.3-2.4-0.4-3.7-0.4c-0.9,0.1-1.8,0.1-2.7,0.1c-0.8-0.1-1.6-0.1-2.5,0
		c-0.9,0.1-1.8,0.1-2.7,0.1c-0.8-0.1-1.6-0.1-2.5,0c-0.5,0-0.9,0-1.4-0.1c-1.1-0.1-2.2-0.2-3.3-0.1c-1.1,0.1-2.3,0.1-3.4,0.2
		c-0.4,0-0.7,0-1.1,0c-0.5,0-0.9-0.1-1.4-0.1c-1.4,0-2.9-0.2-4.3,0c-0.2,0-0.3,0-0.5-0.1c-0.2,0-0.5,0-0.7,0c-0.3,0-0.5,0-0.8,0
		c-0.9-0.2-1.8-0.2-2.7-0.1c-1.1,0.1-2.1,0.1-3.2,0c-0.2,0-0.5,0-0.7,0c-0.7,0-1.3,0.1-2,0.1c-0.9,0.1-1.9,0-2.8-0.1
		c-0.7-0.1-1.4-0.1-2.1,0c-0.2,0-0.5,0.1-0.7,0.1c-0.8-0.1-1.7-0.1-2.5,0c-0.3,0.1-0.8-0.1-1.2-0.1c-1.8,0.1-3.7,0.1-5.5,0.1
		c-0.3,0-0.5,0-0.8,0c-0.4,0-0.9-0.1-1.3-0.1c-0.8,0.1-1.6,0-2.4-0.2c-0.3-0.1-0.6,0-0.9,0c-1,0.2-2.1,0.2-3.2,0.2
		c-0.8,0-1.6-0.1-2.5,0c-1.1,0.1-2.1,0.1-3.2,0.2c-0.2,0-0.4,0-0.6,0c0.1,0.9,0.1,1.8,0.1,2.7c0,0.2-0.1,0.5-0.1,0.7
		c-0.1,0.6-0.2,1.3-0.2,1.9c0.2,0,0.5,0,0.7,0c1.2,0.2,2.4,0,3.6,0c1,0,2,0.1,3,0.2c0.2,0.1,0.5,0.1,0.7,0.1c1.6,0,3.1-0.1,4.7-0.4
		c0.4-0.1,0.8-0.1,1.2,0c1,0.2,2,0.2,3,0.2c0.8-0.1,1.6,0,2.5,0.1c1,0.1,1.9,0.1,2.9,0c0,0,0.1,0,0.1,0c0.7-0.2,1.5-0.3,2.2-0.1
		c0.7,0.1,1.5,0.2,2.2,0.2c1,0.1,2,0,2.9-0.1c0.1,0,0.2,0,0.4,0c0.5,0,1.1,0.1,1.6,0.1c1.2,0.2,2.4,0.2,3.6,0c0.4,0,0.8,0,1.2,0
		c0.5,0,0.9,0.1,1.4,0.1c0.4,0,0.8,0,1.2,0c0.8,0.1,1.6,0.1,2.3,0.1c0.4,0,0.8,0,1.2,0.1c0.6,0.1,1.2,0.2,1.9,0.2
		c0.7-0.1,1.4-0.1,2.1,0c0.9,0.1,1.9,0.1,2.8-0.1c0.8-0.1,1.6-0.1,2.3,0c0.7,0.1,1.5,0.1,2.2-0.1c0.8-0.2,1.6-0.3,2.3-0.1
		c0.3,0.1,0.7,0,1.1,0.1l1.2,0.1c0.9,0.1,1.9,0.1,2.8,0.2c0.6,0,1.2,0,1.8-0.1c0.6,0,1.2,0,1.9,0c0.6-0.1,1.2,0,1.7,0.1
		c0.4,0,0.7,0.1,1,0.1c0.7,0.1,1.4-0.3,1.5-1.1c0,0,0-0.1,0-0.1c0.2-1.1,0-2.2,0.3-3.2c0-0.2-0.1-0.3-0.1-0.5
		C227.9,105.2,227.8,105,227.8,104.7z"/>
	<path class="st1" d="M133.5,30.3c0.2-0.2,0.4-0.5,0.5-0.7c0.1-0.3,0.2-0.6,0.2-0.9c0-0.1,0-0.1,0.1-0.2c0.1-0.1,0.2-0.2,0.2-0.4
		c0-0.3,0.1-0.6,0.1-0.9c0-0.1,0.1-0.3,0.2-0.4c0.1-0.2,0.2-0.4,0.2-0.6c0-0.1,0.1-0.3,0.2-0.3c0,0,0.1,0,0.1-0.1
		c0-0.1,0-0.1-0.1-0.1c-0.3,0-0.4-0.2-0.5-0.4c0,0,0-0.1,0-0.1c0.1-0.1,0.1-0.3,0.2-0.5c0.1-0.1,0.2-0.3,0.4-0.4
		c0.2-0.1,0.4-0.3,0.6-0.5c0,0,0.1-0.1,0.1-0.2c0-0.2,0.1-0.4,0.1-0.6c0,0,0-0.1,0-0.1c0-0.3,0.1-0.6,0.3-0.9c0-0.1,0-0.2,0-0.3
		c-0.1-0.2,0-0.4,0.1-0.6c0,0,0,0,0-0.1c0.2-0.3,0.2-0.3,0.5-0.1c0.1,0.1,0.2,0.2,0.4,0.3c0.1,0,0.1-0.1,0.1-0.1
		c0.1-0.1,0.2-0.2,0.3-0.2c0.1-0.1,0.1-0.2,0.2-0.3c0.1-0.1,0.3-0.1,0.4-0.3c0,0,0-0.1,0.1-0.1c0.4-0.2,0.7-0.5,0.9-0.9
		c0.1-0.1,0.2-0.2,0.3-0.3c0.3-0.2,0.6-0.5,0.9-0.8c0,0,0.1-0.1,0.1-0.1c0.1-0.1,0.1-0.1,0.2-0.2c0.1,0,0.1-0.1,0.2-0.1
		c0.2-0.2,0.4-0.3,0.6-0.4c0.1,0,0.1-0.1,0.1-0.2c0.1-0.2,0.1-0.3,0.1-0.5c0-0.1,0.1-0.2,0.2-0.2c0.1,0,0.2-0.1,0.2-0.2
		c0,0,0-0.1,0-0.1c0-0.2,0.3-0.4,0.5-0.4c0.1,0,0.2,0,0.3,0.1c0.2,0.1,0.4,0.1,0.6-0.1c0.1-0.1,0.3-0.2,0.4-0.1c0.1,0,0.2,0,0.3,0
		c0.1-0.1,0.3-0.2,0.4-0.2c0.2-0.1,0.3-0.1,0.5-0.2c0.1,0,0.2,0,0.2-0.1c0,0,0.1,0,0.1,0c0.1-0.2,0.4-0.2,0.5-0.3c0,0,0.1,0,0.1,0
		c0.2,0,0.4-0.1,0.6,0c0.1,0,0.1,0,0.2-0.1c0.2-0.1,0.3-0.2,0.5-0.3c0.2-0.1,0.4-0.3,0.6-0.4c0.2-0.1,0.5-0.2,0.8-0.2
		c0.1,0,0.3,0.1,0.4-0.1c0.3,0,0.5-0.2,0.8-0.2c0.1,0,0.1,0,0.2-0.1c0.1-0.1,0.1-0.1,0.2-0.2c0,0,0.1-0.1,0.2-0.1
		c0.3,0,0.5-0.1,0.7-0.3c0,0,0,0,0.1,0c0.1,0.1,0.3,0.1,0.5,0.1c0.1,0,0.3,0,0.4,0.1c0,0,0.2,0,0.2,0c0.1,0,0.3,0,0.4,0
		c0.2,0.1,0.5,0,0.7-0.1c0.1-0.1,0.3-0.1,0.4-0.1c0.1,0,0.2,0,0.2-0.1c0.1-0.1,0.2-0.1,0.4,0c0.2,0,0.3,0,0.5,0c0,0,0.1,0,0.1,0
		c0.2,0.1,0.5,0,0.7-0.1c0.2-0.1,0.3-0.1,0.5,0c0,0,0.1,0,0.1,0.1l0.6-0.4c0.1,0,0.2,0.1,0.3,0.1c0.1,0,0.2,0,0.3,0c0,0,0,0,0.1,0
		c0.2-0.2,0.5-0.1,0.7-0.3c0.1,0,0.1,0,0.2,0c0.1,0,0.1,0,0.2,0c0.2-0.1,0.4-0.1,0.5,0c0,0,0,0,0.1,0c0.2-0.1,0.4,0,0.6,0.1
		c0.1,0.1,0.2,0.1,0.2,0.1c0.2,0.2,0.5,0.3,0.7,0.2c0.1,0,0.2,0,0.2,0c0.2,0.1,0.4,0.2,0.6,0.3c0.2,0.1,0.3,0.1,0.4,0.3
		c0,0,0.1,0.1,0.1,0.1c0.4,0.1,0.9,0.3,1.3,0.5c0,0,0,0,0,0c0.1,0.1,0.3,0.2,0.4,0.3c0.2,0.1,0.3,0.2,0.5,0.3
		c0.2,0.1,0.4,0.2,0.6,0.3c0.1,0,0.2,0.1,0.3,0.2c0.1,0.2,0.3,0.3,0.5,0.3c0.1,0,0.1,0.1,0.2,0.2c0.2,0.2,0.4,0.4,0.7,0.5
		c0.1,0,0.1,0.1,0.2,0.1c0.1,0.1,0.2,0.2,0.3,0.3c0.3-0.2,0.6,0,0.9,0c0.2,0.1,0.4,0.2,0.5,0.3c0,0,0.1,0.1,0.1,0.1
		c0.2,0,0.2,0,0.3,0.2c0,0,0.1,0.1,0.1,0.1c0.2,0.1,0.4,0.2,0.5,0.4c0.1,0.2,0.3,0.4,0.5,0.5c0.2,0.1,0.5,0.3,0.8,0.3
		c0.2,0.1,0.5,0.1,0.7,0.2c0.2,0,0.3,0.1,0.5,0.3c0.1,0,0.1,0.1,0.2,0.1c0.1,0,0.2,0.1,0.3,0.1c0.1,0.3,0.4,0.4,0.7,0.4v0.2
		c0.2,0.2,0.4,0.4,0.7,0.5c0.3,0.2,0.5,0.6,0.3,0.9c0,0,0,0,0,0.1l-0.1,0.1c0.1,0.1,0.1,0.1,0.1,0.2c0,0.1,0,0.2,0,0.2
		c0,0.1,0,0.1,0.1,0.2c0,0,0,0.1,0,0.1c-0.1,0.3,0,0.5,0.1,0.7c0.1,0.2,0.2,0.4,0.3,0.6c0,0.2,0.2,0.3,0.3,0.4
		c0.1,0,0.2,0.1,0.2,0.2c0.2,0.1,0.3,0.3,0.5,0.4c0.1,0,0.1,0.1,0.1,0.1c0.1,0.1,0.2,0.3,0.3,0.3c0.2,0.1,0.3,0.2,0.4,0.4
		c0,0,0,0.1,0.1,0.1c0.3,0,0.3,0.3,0.4,0.4c0.1,0.2,0.1,0.4,0.1,0.6c0,0.1,0,0.3,0,0.4c0,0.2,0,0.4-0.1,0.6c0,0.1,0,0.1,0,0.2
		c0.1,0.2,0,0.4,0,0.6c0,0,0,0.1,0,0.1c0.1,0.1,0.2,0.1,0.2,0.3c0,0,0,0,0,0c0.1,0.1,0.1,0.2,0.2,0.2c0,0.1,0,0.2,0,0.3
		c0,0.1,0.1,0.2,0.1,0.2c0.1,0.1,0.2,0.2,0.2,0.3c0,0,0.1,0.1,0.1,0.1c0,0.2,0.1,0.3,0.1,0.4c-0.2,0.2-0.1,0.5-0.1,0.8
		c0,0,0,0.1,0,0.1c0.1,0.1,0.1,0.1,0.1,0.2c0,0,0,0,0,0c0.2,0.1,0.1,0.3,0.2,0.5c0,0.1,0.1,0.1,0.1,0.2l-0.1,0.2
		c0.1,0.2,0.2,0.3,0.4,0.4c0.1,0.1,0.1,0.2,0.1,0.4l0.4,0.2c0,0,0,0.1-0.1,0.1c0,0.1,0,0.1,0,0.2c0,0.2,0.1,0.3,0.1,0.4
		s0,0.3,0.1,0.4c0.2,0.2,0.2,0.4,0.2,0.6c0,0.3,0,0.6,0,0.9c0,0,0,0.1,0,0.1c-0.1,0.1-0.1,0.2,0,0.4c0.1,0.1,0.1,0.3,0,0.5
		c0,0,0,0.1,0,0.1c0,0.1,0,0.2,0,0.3c-0.1,0.1-0.1,0.2,0,0.3c0,0.1,0,0.2,0,0.3c0,0.1,0,0.2,0,0.2c-0.1,0.2-0.1,0.4-0.2,0.6
		c-0.1,0.1,0,0.2,0,0.3c0,0.1,0,0.3,0,0.4c0,0.1,0,0.1,0,0.2c-0.1,0.1-0.1,0.3-0.1,0.5c0,0.2,0,0.3,0,0.5c0,0.3,0,0.7-0.2,1
		c0,0.1-0.1,0.2-0.2,0.3c-0.1,0.2-0.2,0.4-0.1,0.6c0,0.3,0,0.7-0.1,1c-0.1,0.2-0.1,0.4-0.2,0.6c-0.1,0.2-0.1,0.4,0,0.6
		c-0.2,0.2-0.3,0.4-0.2,0.7c0,0.2-0.1,0.4-0.2,0.5c-0.1,0.1-0.2,0.3-0.1,0.4c0,0.1,0,0.2,0,0.3c-0.1,0.2-0.1,0.3-0.1,0.5
		c0,0,0,0.1,0,0.1c-0.2,0.4-0.4,0.8-0.7,1.1c-0.1,0-0.1,0.1-0.2,0.1c-0.1,0-0.2,0.1-0.3,0.2c-0.2,0.2-0.4,0.4-0.6,0.6
		c-0.1,0.1-0.3,0.2-0.4,0.2c-0.2,0-0.3,0.2-0.4,0.4c0,0.1-0.1,0.3-0.1,0.4c-0.1,0.2-0.2,0.4-0.3,0.6c-0.1,0.1-0.2,0.3-0.3,0.5
		c0,0,0,0.1-0.1,0.1c-0.1,0.1-0.3,0.3-0.3,0.5c0,0.1-0.1,0.1-0.1,0.1c-0.2,0.2-0.4,0.3-0.6,0.5c0,0.1-0.1,0.2-0.1,0.3
		c0,0.1-0.1,0.3-0.3,0.3c-0.2,0-0.3,0.1-0.4,0.2c0,0-0.1,0-0.1,0.1c-0.1,0.1-0.2,0.1-0.3,0.2c-0.2,0.1-0.3,0.2-0.5,0.2
		c-0.3,0-0.4,0.1-0.4,0.4c0,0.2-0.1,0.4-0.3,0.5c-0.2,0.1-0.1,0.2-0.2,0.3s-0.2,0.1-0.3,0.2c-0.1,0.2-0.3,0.4-0.5,0.5
		c-0.2,0.1-0.3,0.3-0.4,0.4c-0.1,0.2-0.3,0.3-0.5,0.4c-0.3,0.1-0.6,0.3-0.8,0.5c-0.2,0.1-0.4,0.2-0.6,0.3c-0.1,0.1-0.2,0.1-0.3,0
		c-0.1,0-0.3,0-0.4,0.1c-0.2,0.2-0.5,0.4-0.8,0.5c-0.1,0.1-0.2,0.1-0.3,0.1c-0.3,0-0.5,0-0.8,0c-0.3,0-0.6,0.1-0.9,0.3
		c-0.2,0.2-0.5,0.3-0.7,0.5c-0.1,0.1-0.2,0.1-0.4,0.1s-0.1,0.2-0.2,0.2c-0.2,0.1-0.3,0.1-0.5,0.2c-0.1,0-0.1,0-0.2,0
		c-0.3,0.1-0.6,0.1-0.9,0.1c-0.2,0-0.4,0-0.6,0.1c-0.1,0-0.1,0.1-0.2,0.1c-0.1,0-0.3,0-0.4,0c0,0-0.1,0-0.1,0
		c-0.3,0-0.6-0.1-0.9-0.1c-0.2,0-0.4,0-0.5,0.1c-0.1,0.1-0.3,0.2-0.5,0.4c-0.1,0-0.1,0-0.2,0c-0.1,0-0.2,0-0.3,0
		c-0.2-0.1-0.4-0.1-0.6-0.2c-0.2,0-0.4-0.1-0.5-0.2c-0.1-0.1-0.2-0.1-0.3-0.1c-0.2,0-0.5-0.1-0.7-0.2c-0.1-0.1-0.3-0.1-0.4-0.2
		c-0.1-0.1-0.2-0.1-0.4-0.1c-0.1,0-0.2,0-0.3,0c-0.1,0-0.2,0-0.2,0c-0.3,0-0.6-0.1-0.8-0.1c-0.3-0.1-0.6-0.1-0.9,0
		c-0.1,0-0.2,0-0.3,0c0,0-0.1,0-0.1,0c-0.1,0-0.2,0-0.3-0.1c-0.1,0-0.1-0.1-0.2-0.1c-0.1,0-0.2-0.1-0.3-0.2
		c-0.2-0.1-0.4-0.2-0.6-0.1c-0.1,0-0.2,0-0.3,0.1c-0.1,0-0.3,0-0.4,0c-0.2-0.1-0.4-0.1-0.5-0.1c-0.1,0-0.3,0-0.4-0.1
		c-0.1-0.1-0.2-0.2-0.4-0.2c-0.2,0-0.3-0.1-0.5-0.1c-0.2,0-0.3-0.1-0.5-0.1c0,0-0.1,0-0.1,0c-0.3,0.1-0.6,0.1-0.9-0.1
		c-0.1,0-0.2-0.1-0.3-0.1c-0.2-0.1-0.5-0.1-0.7-0.2c-0.1,0-0.1,0-0.1-0.1c0,0,0-0.1-0.1-0.1c-0.1-0.2-0.4-0.4-0.7-0.3
		c0,0-0.1,0-0.1,0c-0.2-0.2-0.5-0.3-0.7-0.6c-0.1-0.2-0.2-0.3-0.3-0.4c-0.1-0.1-0.2-0.2-0.2-0.4c0-0.1-0.1-0.2-0.2-0.2
		c-0.2-0.1-0.4-0.2-0.4-0.4c-0.1-0.1-0.2-0.3-0.3-0.4c-0.1-0.1-0.2-0.2-0.3-0.2c-0.2-0.1-0.4-0.2-0.6-0.2c-0.2,0-0.3-0.1-0.4-0.3
		c-0.1-0.1-0.2-0.3-0.2-0.4c-0.1-0.2-0.3-0.5-0.5-0.7c-0.2-0.2-0.4-0.3-0.6-0.4c-0.2-0.1-0.3-0.1-0.5-0.2c-0.2,0-0.3-0.2-0.4-0.3
		c0-0.1-0.1-0.1-0.2-0.2c-0.2-0.1-0.4-0.3-0.6-0.5c-0.2-0.2-0.4-0.4-0.5-0.5c-0.1-0.1-0.1-0.2-0.2-0.2c-0.2-0.2-0.3-0.4-0.4-0.6
		c0-0.1-0.1-0.1-0.1-0.2c0-0.1-0.1-0.1-0.1-0.2c-0.2-0.2-0.3-0.4-0.3-0.6c0,0,0-0.1-0.1-0.1c-0.2-0.4-0.4-0.7-0.5-1.1
		c-0.1-0.2-0.2-0.4-0.3-0.6c-0.1-0.2-0.2-0.5-0.2-0.8c0-0.1,0-0.1,0-0.2c0-0.1,0-0.1-0.1-0.2c-0.2-0.3-0.3-0.6-0.5-0.8
		c-0.2-0.2-0.3-0.5-0.3-0.7c-0.1-0.4-0.3-0.8-0.5-1.2c-0.1-0.1-0.2-0.3-0.2-0.4c-0.1-0.1-0.1-0.3-0.2-0.4c-0.1-0.2-0.2-0.4-0.3-0.5
		c-0.2-0.3-0.3-0.6-0.2-0.9c0-0.2,0.2-0.3,0.3-0.3c0.1,0,0.2-0.1,0.2-0.2c0-0.1,0-0.2,0.1-0.2c0.1-0.2,0.2-0.5,0.1-0.7
		c0-0.2-0.1-0.4-0.2-0.6c-0.1-0.2-0.2-0.4-0.2-0.6c0-0.3-0.1-0.7-0.3-1c-0.2-0.4-0.4-0.7-0.6-1.1c-0.1-0.2-0.2-0.5-0.2-0.7
		c0-0.1,0.1-0.3,0.2-0.3c0.2-0.1,0.3-0.2,0.3-0.4c0-0.2,0.1-0.3,0.2-0.5c0.2-0.5,0.3-1.1,0.4-1.6c-0.1-0.2,0.1-0.3,0.1-0.5
		c0-0.1,0-0.1,0-0.2c0-0.1,0-0.1,0-0.2c0.1-0.1,0.1-0.3,0.1-0.4C133.5,30.6,133.5,30.5,133.5,30.3z"/>
	<path class="st1" d="M134.3,101.3c0.2-0.2,0.4-0.5,0.5-0.7c0.1-0.3,0.2-0.6,0.2-0.9c0-0.1,0-0.1,0.1-0.2c0.1-0.1,0.2-0.2,0.2-0.4
		c0-0.3,0.1-0.6,0.1-0.9c0-0.1,0.1-0.3,0.2-0.4c0.1-0.2,0.2-0.4,0.2-0.6c0-0.1,0.1-0.3,0.2-0.3c0,0,0.1,0,0.1-0.1
		c0-0.1,0-0.1-0.1-0.1c-0.3,0-0.4-0.2-0.5-0.4c0,0,0-0.1,0-0.1c0.1-0.1,0.1-0.3,0.2-0.5c0.1-0.1,0.2-0.3,0.4-0.4
		c0.2-0.1,0.4-0.3,0.6-0.5c0,0,0.1-0.1,0.1-0.2c0-0.2,0.1-0.4,0.1-0.6c0,0,0-0.1,0-0.1c0-0.3,0.1-0.6,0.3-0.9c0-0.1,0-0.2,0-0.3
		c-0.1-0.2,0-0.4,0.1-0.6c0,0,0,0,0-0.1c0.2-0.3,0.2-0.3,0.5-0.1l0.4,0.3c0.1,0,0.1-0.1,0.1-0.1c0.1-0.1,0.2-0.2,0.3-0.2
		c0.1-0.1,0.1-0.2,0.2-0.3c0.1-0.1,0.3-0.1,0.4-0.3c0,0,0-0.1,0.1-0.1c0.4-0.2,0.7-0.5,0.9-0.9c0.1-0.1,0.2-0.2,0.3-0.3
		c0.3-0.2,0.6-0.5,0.9-0.8c0,0,0.1-0.1,0.1-0.1c0.1-0.1,0.1-0.1,0.2-0.2c0.1,0,0.1-0.1,0.2-0.1c0.2-0.2,0.4-0.3,0.6-0.4
		c0.1,0,0.1-0.1,0.1-0.2c0.1-0.2,0.1-0.3,0.1-0.5c0-0.1,0.1-0.2,0.2-0.2c0.1,0,0.2-0.1,0.2-0.2c0,0,0-0.1,0-0.1
		c0-0.2,0.3-0.4,0.5-0.4c0.1,0,0.2,0,0.3,0.1c0.2,0.1,0.4,0.1,0.6-0.1c0.1-0.1,0.3-0.2,0.4-0.1c0.1,0,0.2,0,0.3,0
		c0.1-0.1,0.3-0.2,0.4-0.2c0.2-0.1,0.3-0.1,0.5-0.2c0.1,0,0.2,0,0.2-0.1c0,0,0.1,0,0.1,0c0.1-0.2,0.4-0.2,0.5-0.3c0,0,0.1,0,0.1,0
		c0.2,0,0.4-0.1,0.6,0c0.1,0,0.1,0,0.2-0.1c0.2-0.1,0.3-0.2,0.5-0.4c0.2-0.1,0.4-0.3,0.6-0.4c0.2-0.1,0.5-0.2,0.8-0.2
		c0.1,0,0.3,0.1,0.4-0.1c0.3,0,0.5-0.2,0.8-0.2c0.1,0,0.1,0,0.2-0.1c0.1-0.1,0.1-0.1,0.2-0.2c0,0,0.1-0.1,0.2-0.1
		c0.3,0,0.5-0.1,0.7-0.3c0,0,0,0,0.1,0c0.1,0.1,0.3,0.1,0.5,0.1c0.1,0,0.3,0,0.4,0.1c0,0,0.2,0,0.2,0c0.1,0,0.3,0,0.4,0
		c0.2,0.1,0.5,0,0.7-0.1c0.1-0.1,0.3-0.1,0.4-0.1c0.1,0,0.2,0,0.2-0.1c0.1-0.1,0.2-0.1,0.4,0c0.2,0,0.3,0,0.5,0c0,0,0.1,0,0.1,0
		c0.2,0.1,0.5,0,0.7-0.1c0.2-0.1,0.3-0.1,0.5,0c0,0,0.1,0,0.1,0.1l0.6-0.4c0.1,0,0.2,0.1,0.3,0.1c0.1,0,0.2,0,0.3,0c0,0,0,0,0.1,0
		c0.2-0.2,0.5-0.1,0.7-0.3c0.1,0,0.1,0,0.2,0c0.1,0,0.1,0,0.2,0c0.2-0.1,0.4-0.1,0.5,0c0,0,0,0,0.1,0c0.2-0.1,0.4,0,0.6,0.1
		c0.1,0.1,0.2,0.1,0.2,0.1c0.2,0.2,0.5,0.3,0.7,0.2c0.1,0,0.2,0,0.2,0c0.2,0.1,0.4,0.2,0.6,0.3c0.2,0.1,0.3,0.1,0.4,0.3
		c0,0,0.1,0.1,0.1,0.1c0.4,0.1,0.9,0.3,1.3,0.5c0,0,0,0,0,0c0.1,0.1,0.3,0.2,0.4,0.3c0.2,0.1,0.3,0.2,0.5,0.3
		c0.2,0.1,0.4,0.2,0.6,0.3c0.1,0,0.2,0.1,0.3,0.2c0.1,0.2,0.3,0.3,0.5,0.3c0.1,0,0.1,0.1,0.2,0.2c0.2,0.2,0.4,0.4,0.7,0.5
		c0.1,0,0.1,0.1,0.2,0.1c0.1,0.1,0.2,0.2,0.3,0.3c0.3-0.2,0.6,0,0.9,0c0.2,0.1,0.4,0.2,0.5,0.3c0,0,0.1,0.1,0.1,0.1
		c0.2,0,0.2,0,0.3,0.2c0,0,0.1,0.1,0.1,0.1c0.2,0.1,0.4,0.2,0.5,0.4c0.1,0.2,0.3,0.4,0.5,0.5c0.2,0.1,0.5,0.3,0.8,0.3
		c0.2,0.1,0.5,0.1,0.7,0.2c0.2,0,0.3,0.1,0.5,0.3c0.1,0,0.1,0.1,0.2,0.1c0.1,0,0.2,0.1,0.3,0.1c0.1,0.3,0.4,0.4,0.7,0.4v0.2
		c0.2,0.2,0.4,0.4,0.7,0.5c0.3,0.2,0.5,0.6,0.3,0.9c0,0,0,0,0,0.1c0,0,0,0.1-0.1,0.1c0.1,0.1,0.1,0.1,0.1,0.2c0,0.1,0,0.2,0,0.2
		c0,0.1,0,0.1,0.1,0.2c0,0,0,0.1,0,0.1c-0.1,0.2,0,0.5,0.1,0.7c0.1,0.2,0.2,0.4,0.3,0.6c0,0.2,0.2,0.3,0.3,0.4
		c0.1,0,0.2,0.1,0.2,0.2c0.2,0.1,0.3,0.3,0.5,0.4c0.1,0,0.1,0.1,0.1,0.1c0.1,0.1,0.2,0.3,0.3,0.3c0.2,0.1,0.3,0.2,0.4,0.4
		c0,0,0,0.1,0.1,0.1c0.3,0,0.3,0.3,0.4,0.4c0.1,0.2,0.1,0.4,0.1,0.6c0,0.1,0,0.3,0,0.4c0,0.2,0,0.4-0.1,0.6c0,0.1,0,0.1,0,0.2
		c0.1,0.2,0,0.4,0,0.6c0,0,0,0.1,0,0.1c0.1,0.1,0.2,0.1,0.2,0.3c0,0,0,0,0,0c0.1,0.1,0.1,0.1,0.2,0.2c0,0.1,0,0.2,0,0.3
		c0,0.1,0.1,0.2,0.1,0.2c0.1,0.1,0.2,0.2,0.2,0.3c0,0,0.1,0.1,0.1,0.1c0,0.2,0.1,0.3,0.1,0.4c-0.2,0.2-0.1,0.5-0.1,0.8
		c0,0,0,0.1,0,0.1c0.1,0.1,0.1,0.1,0.1,0.2c0,0,0,0,0,0c0.2,0.1,0.1,0.3,0.2,0.5c0,0.1,0.1,0.1,0.1,0.2l-0.1,0.2
		c0.1,0.2,0.2,0.3,0.4,0.4c0.1,0.1,0.1,0.2,0.1,0.4l0.4,0.2c0,0,0,0.1-0.1,0.1c0,0.1,0,0.1,0,0.2c0,0.2,0.1,0.3,0.1,0.4
		s0,0.3,0.1,0.4c0.1,0.2,0.2,0.4,0.2,0.6c0,0.3,0,0.6,0,0.9c0,0,0,0.1,0,0.1c-0.1,0.1-0.1,0.2,0,0.4c0.1,0.1,0.1,0.3,0,0.5
		c0,0,0,0.1,0,0.1c0,0.1,0,0.2,0,0.3c-0.1,0.1-0.1,0.2,0,0.3c0,0.1,0,0.2,0,0.3c0,0.1,0,0.2,0,0.2c-0.1,0.2-0.1,0.4-0.2,0.6
		c-0.1,0.1,0,0.2,0,0.3c0,0.1,0,0.3,0,0.4c0,0.1,0,0.1,0,0.2c-0.1,0.1-0.1,0.3-0.1,0.5c0,0.2,0,0.3,0,0.5c0,0.3,0,0.7-0.2,1
		c0,0.1-0.1,0.2-0.2,0.3c-0.1,0.2-0.2,0.4-0.1,0.6c0,0.3,0,0.7-0.1,1c-0.1,0.2-0.1,0.4-0.2,0.6c-0.1,0.2-0.1,0.4,0,0.6
		c-0.2,0.2-0.3,0.4-0.2,0.7c0,0.2-0.1,0.4-0.2,0.5c-0.1,0.1-0.2,0.3-0.2,0.4c0,0.1,0,0.2,0,0.3c-0.1,0.1-0.1,0.3-0.1,0.5
		c0,0,0,0.1,0,0.1c-0.2,0.4-0.4,0.8-0.7,1.1c-0.1,0-0.1,0.1-0.2,0.1c-0.1,0-0.2,0.1-0.3,0.2c-0.2,0.2-0.4,0.4-0.6,0.6
		c-0.1,0.1-0.3,0.2-0.4,0.2c-0.2,0-0.3,0.2-0.4,0.4c0,0.1-0.1,0.3-0.1,0.4c-0.1,0.2-0.2,0.4-0.3,0.6c-0.1,0.1-0.2,0.3-0.3,0.5
		c0,0,0,0.1-0.1,0.1c-0.1,0.1-0.3,0.3-0.3,0.5c0,0.1-0.1,0.1-0.1,0.1c-0.2,0.2-0.4,0.3-0.6,0.5c0,0.1-0.1,0.2-0.1,0.3
		c0,0.1-0.1,0.3-0.3,0.3c-0.2,0-0.3,0.1-0.4,0.2c0,0-0.1,0-0.1,0.1c-0.1,0.1-0.2,0.1-0.3,0.2c-0.2,0.1-0.3,0.2-0.5,0.2
		c-0.3,0-0.4,0.1-0.4,0.4c0,0.2-0.1,0.4-0.3,0.5c-0.2,0.1-0.1,0.2-0.2,0.3s-0.2,0.1-0.3,0.2c-0.1,0.2-0.3,0.4-0.5,0.5
		c-0.2,0.1-0.3,0.3-0.4,0.4c-0.1,0.2-0.3,0.3-0.5,0.4c-0.3,0.1-0.6,0.3-0.8,0.5c-0.2,0.1-0.4,0.2-0.6,0.3c-0.1,0.1-0.2,0.1-0.3,0
		c-0.1,0-0.3,0-0.4,0.1c-0.2,0.2-0.5,0.4-0.8,0.5c-0.1,0.1-0.2,0.1-0.3,0.1c-0.3,0-0.5,0-0.8,0c-0.3,0-0.6,0.1-0.9,0.3
		c-0.2,0.2-0.5,0.3-0.7,0.5c-0.1,0.1-0.2,0.1-0.4,0.1s-0.1,0.2-0.2,0.2c-0.2,0.1-0.3,0.1-0.5,0.2c-0.1,0-0.1,0-0.2,0
		c-0.3,0.1-0.6,0.1-0.9,0.1c-0.2,0-0.4,0-0.6,0.1c-0.1,0-0.2,0.1-0.2,0.1c-0.1,0-0.3,0-0.4,0c0,0-0.1,0-0.1,0
		c-0.3,0-0.6-0.1-0.9-0.1c-0.2,0-0.4,0-0.5,0.1c-0.1,0.1-0.3,0.2-0.5,0.4c-0.1,0-0.1,0-0.2,0c-0.1,0-0.2,0-0.3,0
		c-0.2-0.1-0.4-0.1-0.6-0.2c-0.2,0-0.4-0.1-0.5-0.2c-0.1-0.1-0.2-0.1-0.3-0.1c-0.2,0-0.5-0.1-0.7-0.2c-0.1-0.1-0.3-0.1-0.4-0.2
		c-0.1-0.1-0.2-0.1-0.4-0.1c-0.1,0-0.2,0-0.3,0c-0.1,0-0.2,0-0.2,0c-0.3,0-0.6-0.1-0.8-0.1c-0.3-0.1-0.6-0.1-0.9,0
		c-0.1,0-0.2,0-0.3,0c0,0-0.1,0-0.1,0c-0.1,0-0.2,0-0.3-0.1c-0.1,0-0.1-0.1-0.2-0.1c-0.1,0-0.2-0.1-0.3-0.2
		c-0.2-0.1-0.4-0.2-0.6-0.1c-0.1,0-0.2,0-0.3,0.1c-0.1,0-0.3,0-0.4,0c-0.2-0.1-0.4-0.1-0.5-0.1c-0.1,0-0.3,0-0.4-0.1
		c-0.1-0.1-0.2-0.2-0.4-0.2c-0.2,0-0.3-0.1-0.5-0.1c-0.2,0-0.3-0.1-0.5-0.1c0,0-0.1,0-0.1,0c-0.3,0.1-0.6,0.1-0.9-0.1
		c-0.1,0-0.2-0.1-0.3-0.1c-0.2-0.1-0.5-0.1-0.7-0.2c-0.1,0-0.1,0-0.1-0.1c0,0,0-0.1-0.1-0.1c-0.1-0.2-0.4-0.4-0.7-0.3
		c0,0-0.1,0-0.1,0c-0.2-0.2-0.5-0.3-0.7-0.6c-0.1-0.2-0.2-0.3-0.3-0.4c-0.1-0.1-0.2-0.2-0.2-0.4c0-0.1-0.1-0.2-0.2-0.2
		c-0.2-0.1-0.4-0.2-0.4-0.4c-0.1-0.1-0.2-0.3-0.3-0.4c-0.1-0.1-0.2-0.2-0.3-0.2c-0.2-0.1-0.4-0.2-0.6-0.2c-0.2,0-0.3-0.1-0.4-0.3
		c-0.1-0.1-0.2-0.3-0.2-0.4c-0.1-0.2-0.3-0.5-0.5-0.7c-0.2-0.2-0.4-0.3-0.6-0.4c-0.2-0.1-0.3-0.1-0.5-0.2c-0.2,0-0.3-0.2-0.4-0.3
		c0-0.1-0.1-0.1-0.2-0.2c-0.2-0.1-0.4-0.3-0.6-0.5c-0.2-0.2-0.4-0.4-0.5-0.5c-0.1-0.1-0.1-0.2-0.2-0.2c-0.2-0.2-0.3-0.4-0.4-0.6
		c0-0.1-0.1-0.1-0.1-0.2c0-0.1-0.1-0.1-0.1-0.2c-0.2-0.2-0.3-0.4-0.3-0.6c0,0,0-0.1-0.1-0.1c-0.2-0.4-0.4-0.7-0.5-1.1
		c-0.1-0.2-0.2-0.4-0.3-0.6c-0.1-0.2-0.2-0.5-0.2-0.8c0-0.1,0-0.1,0-0.2c0-0.1,0-0.1-0.1-0.2c-0.2-0.3-0.3-0.6-0.5-0.8
		c-0.2-0.2-0.3-0.5-0.3-0.7c-0.1-0.4-0.3-0.8-0.5-1.2c-0.1-0.1-0.2-0.3-0.2-0.4c-0.1-0.1-0.1-0.3-0.2-0.4c-0.1-0.2-0.2-0.4-0.3-0.5
		c-0.2-0.3-0.3-0.6-0.2-0.9c0-0.2,0.2-0.3,0.3-0.3c0.1,0,0.2-0.1,0.2-0.2c0-0.1,0-0.2,0.1-0.2c0.1-0.2,0.2-0.5,0.1-0.7
		c0-0.2-0.1-0.4-0.2-0.6c-0.1-0.2-0.2-0.4-0.2-0.6c0-0.3-0.1-0.7-0.3-1c-0.2-0.4-0.4-0.7-0.6-1.1c-0.1-0.2-0.2-0.5-0.2-0.7
		c0-0.1,0.1-0.3,0.2-0.3c0.2-0.1,0.3-0.2,0.3-0.4c0-0.2,0.1-0.3,0.2-0.5c0.2-0.5,0.3-1.1,0.4-1.6c-0.1-0.2,0.1-0.3,0.1-0.5
		c0-0.1,0-0.1,0-0.2c0-0.1,0-0.1,0-0.2c0.1-0.1,0.1-0.3,0.1-0.4C134.2,101.6,134.2,101.4,134.3,101.3z"/>
	<path class="st0" d="M60.5,70.3c0.1-0.7,0.2-1.3,0.2-2c-0.2,0-0.5,0-0.7,0c-1.2-0.1-2.4-0.1-3.6-0.1c-1,0-2-0.1-3-0.2
		c-0.2-0.1-0.5-0.1-0.7-0.1c-1.6,0-3.1,0.1-4.7,0.4c-0.4,0.1-0.8,0.1-1.2,0c-1-0.2-2-0.2-3-0.2c-0.8,0.1-1.7,0.1-2.5-0.1
		c-1-0.1-1.9-0.1-2.9,0.1c0,0-0.1,0-0.1,0c-0.7,0.2-1.5,0.3-2.2,0.1c-0.4-0.1-0.8-0.1-1.1-0.2c0,0.8,0,1.5,0.1,2.3
		c0.1,0.9,0.1,1.8-0.1,2.7c0,0.3-0.1,0.5,0,0.8c0,0.1,0,0.2,0,0.2c0.3,0,0.6,0,0.9-0.1c0.2,0,0.5-0.1,0.7-0.1c0.8,0.1,1.7,0.1,2.6,0
		c0.3-0.1,0.8,0.1,1.2,0.1c1.8-0.1,3.7-0.1,5.5-0.1c0.3,0,0.5,0,0.8,0c0.4,0.1,0.9,0.1,1.3,0.1c0.8-0.1,1.7,0,2.5,0.2
		c0.3,0.1,0.6,0.1,0.9,0c1-0.2,2.1-0.2,3.2-0.2c0.8,0.1,1.6,0.1,2.5,0c1.1-0.1,2.1-0.1,3.2-0.2c0.2,0,0.4,0,0.6,0
		c-0.1-0.9-0.1-1.9-0.1-2.8C60.3,70.7,60.4,70.5,60.5,70.3z"/>
	<path class="st0" d="M64.5,71.5c0.5-0.4,0.9-0.9,1.3-1.5c-0.2-0.1-0.4-0.3-0.6-0.5c-0.9-0.8-1.9-1.5-2.9-2.2
		c-0.8-0.6-1.6-1.3-2.3-2c-0.1-0.2-0.3-0.4-0.5-0.5c-1.3-0.9-2.6-1.8-4-2.5c-0.4-0.2-0.7-0.4-0.9-0.7c-0.7-0.7-1.5-1.4-2.3-2
		c-0.7-0.4-1.4-0.9-1.9-1.6c-0.6-0.8-1.6-1.1-2.4-1.7c0,0-0.1,0-0.1,0c-0.7-0.2-1.3-0.7-1.9-1.2c-0.3-0.3-0.5-0.5-0.8-0.8
		c-0.5,0.6-0.9,1.2-1.3,1.9c-0.5,0.8-1,1.5-1.7,2.1c-0.2,0.2-0.4,0.4-0.5,0.6c0,0.1-0.1,0.1-0.1,0.2c0.2,0.2,0.5,0.3,0.8,0.4
		c0.2,0.1,0.4,0.2,0.6,0.3c0.6,0.6,1.3,1.1,2.1,1.5c0.3,0.1,0.5,0.6,0.9,0.8c1.6,1,3,2.1,4.5,3.2c0.2,0.2,0.4,0.3,0.6,0.5
		c0.3,0.3,0.6,0.6,1,0.8c0.7,0.4,1.3,1,1.9,1.6c0.2,0.2,0.5,0.4,0.7,0.5c0.9,0.5,1.8,1.1,2.7,1.7c0.6,0.5,1.3,1,2,1.5
		c0.9,0.6,1.8,1.2,2.7,1.7c0.2,0.1,0.3,0.2,0.5,0.3c0.5-0.8,1.1-1.5,1.6-2.3C64.1,71.8,64.3,71.6,64.5,71.5z"/>
	<path class="st0" d="M63.2,67.5c-0.4-0.5-0.9-1-1.4-1.5c-0.2,0.2-0.3,0.4-0.5,0.5c-1,0.8-1.6,1.8-2.4,2.7c-0.7,0.8-1.4,1.5-2.2,2.1
		c-0.2,0.1-0.4,0.3-0.6,0.4c-1,1.2-2,2.4-2.8,3.8c-0.2,0.3-0.5,0.6-0.8,0.9c-0.8,0.6-1.5,1.4-2.2,2.2c-0.5,0.7-1.1,1.3-1.7,1.7
		c-0.8,0.6-1.2,1.5-1.9,2.2c0,0,0,0.1,0,0.1c-0.3,0.7-0.8,1.3-1.4,1.7c-0.3,0.2-0.6,0.5-0.9,0.7c0.6,0.5,1.2,1,1.8,1.4
		c0.7,0.5,1.4,1.1,2,1.9c0.2,0.2,0.4,0.4,0.6,0.6c0.1,0.1,0.1,0.1,0.2,0.2c0.2-0.2,0.3-0.5,0.5-0.7c0.1-0.2,0.2-0.4,0.4-0.6
		c0.6-0.6,1.3-1.1,1.7-1.9c0.1-0.3,0.6-0.5,0.8-0.8c1.1-1.5,2.4-2.8,3.6-4.2c0.2-0.2,0.4-0.4,0.6-0.6c0.3-0.3,0.6-0.6,0.9-0.9
		c0.5-0.7,1.1-1.2,1.8-1.7c0.2-0.2,0.4-0.4,0.6-0.7c0.6-0.9,1.2-1.7,1.9-2.5c0.6-0.6,1.1-1.2,1.6-1.8c0.7-0.8,1.3-1.7,2-2.5
		c0.1-0.1,0.2-0.3,0.4-0.4c-0.7-0.6-1.4-1.2-2.2-1.8C63.5,67.9,63.3,67.7,63.2,67.5z"/>
	<path class="st0" d="M39.4,72.8c0-0.5,0.1-0.9,0.1-1.4c0-0.4,0-0.8,0-1.2c-0.1-0.7-0.2-1.3-0.1-2c-1.2-0.2-2.4-0.2-3.6,0
		c-0.4,0-0.8,0-1.2,0c-0.5,0-0.9-0.1-1.4-0.1c-0.4,0-0.8,0-1.2,0c-0.8-0.1-1.6-0.1-2.4-0.1c-0.4,0-0.8,0-1.2-0.1
		c-0.6-0.1-1.2-0.2-1.9-0.2c-0.7,0.1-1.4,0.1-2.1,0c-0.9-0.2-1.9-0.1-2.8,0.1c-0.8,0.1-1.6,0.1-2.3,0c-0.7-0.1-1.5-0.1-2.2,0.1
		c-0.8,0.2-1.6,0.3-2.3,0.1c-0.3-0.1-0.7,0-1.1-0.1L12.6,68c-0.9-0.1-1.9-0.1-2.8-0.2c-0.6,0-1.2,0-1.8,0.1c-0.6,0-1.2,0-1.9,0
		c-0.6,0.1-1.2,0-1.7-0.1c-0.4,0-0.7-0.1-1-0.1c-0.7-0.1-1.4,0.4-1.5,1.1c0,0,0,0.1,0,0.1c-0.2,1.1,0,2.3-0.3,3.4
		c0,0.2,0,0.3,0.1,0.5c0,0.3,0.1,0.5,0.2,0.8C2.9,74,4.2,74.1,5.4,74c0.9-0.1,1.8-0.1,2.7-0.1c0.8,0.1,1.6,0.1,2.5,0
		c0.9-0.1,1.8-0.1,2.7-0.1c0.8,0.1,1.6,0.1,2.5,0c0.5,0,0.9,0,1.4,0.1c1.1,0.1,2.2,0.2,3.3,0.1c1.1-0.1,2.3-0.1,3.4-0.2
		c0.4,0,0.7,0,1.1,0c0.5,0,0.9,0.1,1.4,0.1c1.5,0.1,2.9,0.1,4.4,0c0.2,0,0.3,0,0.5,0.1c0.2,0,0.5,0,0.7,0c0.3,0,0.5,0,0.8,0
		c0.9,0.2,1.8,0.2,2.7,0.1c1.1-0.1,2.1-0.1,3.2,0c0.2,0,0.5,0,0.7,0l0.1,0c0-0.1,0-0.1,0-0.2C39.4,73.6,39.4,73.2,39.4,72.8z"/>
	<path class="st0" d="M288.9,70.3c0.1-0.7,0.2-1.3,0.2-2c-0.2,0-0.5,0-0.7,0c-1.2-0.1-2.4-0.1-3.6-0.1c-1,0-2-0.1-3-0.2
		c-0.2-0.1-0.5-0.1-0.7-0.1c-1.6,0-3.1,0.1-4.7,0.4c-0.4,0.1-0.8,0.1-1.2,0c-1-0.2-2-0.2-3-0.2c-0.8,0.1-1.7,0.1-2.5-0.1
		c-1-0.1-1.9-0.1-2.9,0.1c0,0-0.1,0-0.1,0c-0.7,0.2-1.5,0.3-2.2,0.1c-0.4-0.1-0.8-0.1-1.1-0.2c0,0.8,0,1.5,0.1,2.3
		c0.1,0.9,0.1,1.8-0.1,2.7c0,0.3,0,0.5,0,0.8c0,0.1,0,0.2,0,0.2c0.3,0,0.6,0,0.9-0.1c0.2,0,0.5-0.1,0.7-0.1c0.8,0.1,1.7,0.1,2.6,0
		c0.3-0.1,0.8,0.1,1.2,0.1c1.8-0.1,3.7-0.1,5.5-0.1c0.3,0,0.5,0,0.8,0c0.4,0.1,0.9,0.1,1.3,0.1c0.8-0.1,1.7,0,2.5,0.2
		c0.3,0.1,0.6,0.1,0.9,0c1-0.2,2.1-0.2,3.2-0.2c0.8,0.1,1.6,0.1,2.5,0c1.1-0.1,2.1-0.1,3.2-0.2c0.2,0,0.4,0,0.6,0
		c-0.1-0.9-0.1-1.9-0.1-2.8C288.8,70.7,288.8,70.5,288.9,70.3z"/>
	<path class="st0" d="M292.9,71.5c0.5-0.4,0.9-0.9,1.3-1.5c-0.2-0.1-0.4-0.3-0.6-0.5c-0.9-0.8-1.9-1.5-2.9-2.2
		c-0.8-0.6-1.6-1.3-2.3-2c-0.1-0.2-0.3-0.4-0.5-0.5c-1.3-0.9-2.6-1.8-4-2.5c-0.4-0.2-0.7-0.4-0.9-0.7c-0.7-0.7-1.5-1.4-2.3-2
		c-0.7-0.4-1.4-0.9-1.9-1.6c-0.6-0.8-1.6-1.1-2.4-1.7c0,0-0.1,0-0.1,0c-0.7-0.2-1.3-0.7-1.9-1.2c-0.3-0.3-0.5-0.5-0.8-0.8
		c-0.5,0.6-0.9,1.2-1.3,1.9c-0.5,0.8-1,1.5-1.7,2.1c-0.2,0.2-0.4,0.4-0.5,0.6c0,0.1-0.1,0.1-0.1,0.2c0.2,0.2,0.5,0.3,0.8,0.4
		c0.2,0.1,0.4,0.2,0.6,0.3c0.6,0.6,1.3,1.1,2.1,1.5c0.3,0.1,0.5,0.6,0.9,0.8c1.6,1,3,2.1,4.5,3.2c0.2,0.2,0.4,0.3,0.6,0.5
		c0.3,0.3,0.6,0.6,1,0.8c0.7,0.4,1.3,1,1.9,1.6c0.2,0.2,0.5,0.4,0.7,0.5c0.9,0.5,1.8,1.1,2.7,1.7c0.6,0.5,1.3,1,2,1.5
		c0.9,0.6,1.8,1.2,2.7,1.7c0.2,0.1,0.3,0.2,0.5,0.3c0.5-0.8,1.1-1.5,1.6-2.3C292.6,71.8,292.7,71.6,292.9,71.5z"/>
	<path class="st0" d="M291.7,67.5c-0.4-0.5-0.9-1-1.4-1.5c-0.2,0.2-0.3,0.4-0.5,0.5c-1,0.8-1.6,1.8-2.4,2.7
		c-0.7,0.8-1.4,1.5-2.2,2.1c-0.2,0.1-0.4,0.3-0.6,0.4c-1,1.2-2,2.4-2.8,3.8c-0.2,0.3-0.5,0.6-0.8,0.9c-0.8,0.6-1.5,1.4-2.2,2.2
		c-0.5,0.7-1.1,1.3-1.7,1.7c-0.8,0.6-1.2,1.5-1.9,2.2c0,0,0,0.1,0,0.1c-0.3,0.7-0.8,1.3-1.4,1.7c-0.3,0.2-0.6,0.5-0.9,0.7
		c0.6,0.5,1.2,1,1.8,1.4c0.7,0.5,1.4,1.1,2,1.9c0.2,0.2,0.4,0.4,0.6,0.6c0.1,0.1,0.1,0.1,0.2,0.2c0.2-0.2,0.3-0.5,0.5-0.7
		c0.1-0.2,0.3-0.4,0.4-0.6c0.6-0.6,1.3-1.1,1.7-1.9c0.1-0.3,0.6-0.5,0.8-0.8c1.1-1.5,2.4-2.8,3.6-4.2c0.2-0.2,0.4-0.4,0.6-0.6
		c0.3-0.3,0.6-0.6,0.9-0.9c0.5-0.7,1.1-1.2,1.8-1.7c0.2-0.2,0.4-0.4,0.6-0.7c0.6-0.9,1.2-1.7,1.9-2.5c0.6-0.6,1.1-1.2,1.6-1.8
		c0.7-0.8,1.3-1.7,2-2.5c0.1-0.1,0.2-0.3,0.4-0.4c-0.7-0.6-1.4-1.2-2.2-1.8C291.9,67.9,291.8,67.7,291.7,67.5z"/>
	<path class="st0" d="M278.2,72.8c0-0.5,0-0.9,0.1-1.4c0-0.4,0-0.8,0-1.2c-0.1-0.7-0.2-1.3-0.1-2c-1.2-0.2-2.4-0.2-3.6,0
		c-0.4,0-0.8,0-1.2,0c-0.5,0-0.9-0.1-1.4-0.1c-0.4,0-0.8,0-1.2,0c-0.8-0.1-1.6-0.1-2.4-0.1c-0.4,0-0.8,0-1.2-0.1
		c-0.6-0.1-1.2-0.2-1.9-0.2c-0.7,0.1-1.4,0.1-2.1,0c-0.9-0.2-1.9-0.1-2.8,0.1c-0.8,0.1-1.6,0.1-2.3,0c-0.7-0.1-1.5-0.1-2.2,0.1
		c-0.8,0.2-1.6,0.3-2.3,0.1c-0.3-0.1-0.7,0-1.1-0.1l-1.2-0.1c-0.9-0.1-1.9-0.1-2.8-0.2c-0.6,0-1.2,0-1.8,0.1c-0.6,0-1.2,0-1.9,0
		c-0.6,0.1-1.2,0-1.7-0.1c-0.4,0-0.7-0.1-1-0.1c-0.7-0.1-1.4,0.4-1.5,1.1c0,0,0,0.1,0,0.1c-0.2,1.1,0,2.3-0.3,3.4
		c0,0.2,0.1,0.3,0.1,0.5c0,0.3,0.1,0.5,0.2,0.8c1.2,0.3,2.4,0.4,3.7,0.4c0.9-0.1,1.8-0.1,2.7-0.1c0.8,0.1,1.6,0.1,2.5,0
		c0.9-0.1,1.8-0.1,2.7-0.1c0.8,0.1,1.6,0.1,2.5,0c0.5,0,0.9,0,1.4,0.1c1.1,0.1,2.2,0.2,3.3,0.1c1.1-0.1,2.3-0.1,3.4-0.2
		c0.4,0,0.7,0,1.1,0c0.5,0,0.9,0.1,1.4,0.1c1.5,0.1,2.9,0.1,4.4,0c0.2,0,0.3,0,0.5,0.1c0.2,0,0.5,0,0.7,0c0.3,0,0.5,0,0.8,0
		c0.9,0.2,1.8,0.2,2.7,0.1c1.1-0.1,2.1-0.1,3.2,0c0.2,0,0.5,0,0.7,0l0.1,0c0-0.1,0-0.1,0-0.2C278.3,73.6,278.3,73.2,278.2,72.8z"/>
	<path class="st2" d="M165.2,21l-2.4,23.3l-3.8,0.1l0.6-6.5c-2,0-4,0.1-6,0.2l-3.6,6.6l-3.2-1.3l2.8-5.2c-1.2,0.1-2.5,0.1-3.6,0.2
		l0.9-3.7l4.7-0.2l6.2-11.5l2.9,1.3l0.3-3L165.2,21z M159.8,34.2l0.8-9l-5,9.2C157,34.3,158.4,34.3,159.8,34.2z"/>
	<path class="st2" d="M160.7,107.2c1.3,1,2.1,2.5,2.1,4.2c0,0.3,0,0.6-0.1,1c-0.4,2.5-2.3,5.6-7.5,8l-1.9-2.6
		c3.7-2.4,4.9-4.3,4.9-6.4c-0.1-1.7-0.8-3.2-2-4.4c3-1.9,4.6-3.9,4.6-5.9c0-1.6-1.1-3.2-3.4-4.7c-1.9,6.1-3.7,11.8-5.3,17.6
		l-3.8-0.9c1.6-5.8,3.3-11.5,4.9-17h3.7c-1.4-0.8-2.9-1.5-4.4-2l2.9-2.7c5.8,1.9,10,5.5,10,9.3C165.5,102.9,164.1,105.1,160.7,107.2
		z"/>
</g>
</svg>
