<svg id="Livello_1" data-name="Livello 1" xmlns="http://www.w3.org/2000/svg" viewBox="0 0 296 296"><defs><style>.cls-1{fill:#f36;}.cls-2{fill:#ffeded;}.cls-3{fill:#1858a8;}</style></defs><title>ill_1.1 copy 2</title><path class="cls-1" d="M88.073,20.341a9.934,9.934,0,0,0,5.436-.52,15.314,15.314,0,0,0,5.131-2.265,1.371,1.371,0,0,1,1-.287,3.048,3.048,0,0,0,2.418-.647,51.723,51.723,0,0,1,4.8-2.472,5.934,5.934,0,0,1,2.718-.615,4.97,4.97,0,0,0,3.558-1.288,1.909,1.909,0,0,1,2.349-.29,5.071,5.071,0,0,0,.705.254c.41-.317.281-.52.088-.776-.957-1.268-.575-2.652-.292-4.006a.863.863,0,0,1,.606-.548c1.117,0,1.879-.934,3.013-.959a10.172,10.172,0,0,1,3.2.435,43.06,43.06,0,0,0,4.586,1.009,1.9,1.9,0,0,0,1.215-.229,12.223,12.223,0,0,1,3.712-1.688,1.515,1.515,0,0,0,.6-.238c1.623-1.294,3.642-1.647,5.566-2.215a2.687,2.687,0,0,0,1.369-.986A4.5,4.5,0,0,1,143.387.2a3.157,3.157,0,0,0,.433-.051c2.027-.347,2.2-.193,2.138,1.884-.032.984-.07,1.967-.11,3.079a7.82,7.82,0,0,0,1.278.145,4.812,4.812,0,0,1,2.246.588c.664.291,1.514-.179,2.323.17.963.414,1.94,1.021,3.1.555a.963.963,0,0,1,.638.085c2.595,1.108,5.334,1.074,8.078.958a7.606,7.606,0,0,1,2.766.483,25.549,25.549,0,0,0,7.437,1.335,6.061,6.061,0,0,1,1.03.239c.483.1.972.179,1.453.287a10,10,0,0,1,1.225.329,37.8,37.8,0,0,1,4.48,1.408,1.892,1.892,0,0,0,1.264-.077,27.706,27.706,0,0,0,3.032-1.169c.655-.307,1.23-.456,1.794.073a1.7,1.7,0,0,0,2.018.184c.265-.112.493-.306.756-.422a3.041,3.041,0,0,1,3.853.97,5.052,5.052,0,0,1,.836,1.694,3.023,3.023,0,0,0,2.7,2.639,2.4,2.4,0,0,1,2.124,1.6,1.5,1.5,0,0,0,1.2,1.105,6.839,6.839,0,0,1,2.629,1.423c.851.528,1.715,1.037,2.554,1.583.415.271.784.609,1.176.912.225.173.471.5.681.482,1.506-.138,2.357,1.372,3.793,1.385a.762.762,0,0,1,.554.3c.627,1.035,2,1.425,2.383,2.7.094.313.6.59.98.724,1.223.436,2.48.783,3.714,1.191,1.433.473,2.89.9,4.273,1.485a8.319,8.319,0,0,1,3.706,3.18c.507.773.887,1.624,1.93,1.845,1.081,1.233,2.921,1.585,3.771,3.117.164.3.71.464,1.11.542.564.109,1.164.03,1.733.123.408.066.963.168,1.155.448,1,1.456,2.617,1.944,4.1,2.651a2.544,2.544,0,0,1,.29.216,3.736,3.736,0,0,0,1.447,2.836c.669.577,1.267,1.069,1.223,2.086-.017.373.5.847.88,1.141a4.512,4.512,0,0,1,1.588,1.969,4.827,4.827,0,0,0,3.071,2.816,4.786,4.786,0,0,1,2.33,1.474,3.446,3.446,0,0,0,1.231.846,3.758,3.758,0,0,1,1.629,1.65c.493.859,1.057,1.679,1.6,2.51.156.237.417.426.517.68a5.441,5.441,0,0,0,3.3,2.894c1.088.455,1.524,1.429,2.082,2.3.132.208.056.542.083.937l4.271,1.577c.184.51.229,1.263.636,1.605a8.25,8.25,0,0,1,1.132,1.522.681.681,0,0,0,.332.263c1.7.355,2.659,1.925,4.262,2.447a2.7,2.7,0,0,1,.823.627,7.532,7.532,0,0,0,.924.868,4.276,4.276,0,0,1,2.271,2.445.585.585,0,0,0,.266.326c1.345.727,1.547,1.935,1.539,3.275,0,.558.258,1.12.241,1.676a5.744,5.744,0,0,0,1.627,4.457,2.961,2.961,0,0,1,.682,1.3c.34,1.3.613,2.612.886,3.925.213,1.022.707,2.016.211,3.11a1.4,1.4,0,0,0,.148,1.015c1.241,2.583,1.57,5.4,2.242,8.129a1,1,0,0,1,.013.212,18.055,18.055,0,0,0,.077,3.375,16.553,16.553,0,0,1,.359,3.339,11.924,11.924,0,0,0,.691,3.718,5.042,5.042,0,0,1,.352,2.253,7.3,7.3,0,0,0,.329,3.751,2.535,2.535,0,0,1-.094,1.43,16.325,16.325,0,0,0-.07,5.215,3.407,3.407,0,0,1-.071,1.223,4.136,4.136,0,0,0-.164,2.582c1.839.773,2.372,2.768,3.669,4.14a11.823,11.823,0,0,1,.565,3.705c-.035.261-.126.685,0,.771.843.583.664,1.308.468,2.1a2.4,2.4,0,0,0,.088,1.02,6.073,6.073,0,0,1-.3,3.926,7.964,7.964,0,0,0-.6,3.925,24.2,24.2,0,0,0,1.276,5.077c.42,1.491,1.154,2.9,1.69,4.359a7.146,7.146,0,0,1,.579,3.289,2.943,2.943,0,0,0,.239,1.206c.228.667.51,1.317.8,2.059-1.117,1.659-.38,3.192.613,4.747l-.921.691c-.02,1.731-.152,3.484-.034,5.22.175,2.589-1.068,4.372-4.009,4.862-.213.035-.427.065-.767.116a6.3,6.3,0,0,1-.486,1.5c-.249.408-.756.657-1.089,1.028a11.378,11.378,0,0,0-.705,1.05c-.161.226-.317.556-.542.62-1.694.488-2.221,1.989-2.915,3.264a25.768,25.768,0,0,1-2.08,3.684,3.4,3.4,0,0,0-.622,2.835,5.279,5.279,0,0,1-.038,1.662c-.1,1.263-.081,2.535-.137,3.8a2.466,2.466,0,0,1-.212,1.213,3.4,3.4,0,0,0-.41,2.65,6.982,6.982,0,0,1-.146,3.342c-.063.2-.174.482-.085.6.989,1.36-.265,2.426-.563,3.567a4.959,4.959,0,0,1-2.348,2.648,24.96,24.96,0,0,0-2,1.57,21.226,21.226,0,0,1-3.379,1.882c-.313.169-.814.307-.884.553-.393,1.376-1.775,1.547-2.719,2.241a5.238,5.238,0,0,1-.712.347c-.1.645.074,1.507-.715,1.987a.306.306,0,0,0-.128.168,6.5,6.5,0,0,1-.485,1.765c-.321.524-1,.83-1.366,1.341a4.592,4.592,0,0,0-.572,1.563c-.17.683-.24,1.389-.4,2.074-.061.259-.2.613-.405.707-.929.425-.949,1.373-1.429,2.207-1.887-.128-2.9,1.564-4.471,2.243a1.031,1.031,0,0,0-.479.676c-.117.584-.25,1.109-.922,1.306-.058.017-.138.108-.133.158.141,1.4-1.16,2.029-1.727,3.048-.206.371-.4.747-.65,1.205l-1.323.453a5.694,5.694,0,0,0-.509,3.08c.23.981-.629,1.5-1.541,1.963l.808,2.541c-.322.086-.645.154-.953.261a8.7,8.7,0,0,0-.989.407c-.927.455-1.1,1.447-1.638,2.181-.486.666-1.228,1.068-1.315,2.086-.127,1.487-1.323,2.482-2.371,3.443-1.318,1.208-2.744,2.305-4.131,3.439a1.019,1.019,0,0,1-.566.276,2.342,2.342,0,0,0-1.94,1.164,3.634,3.634,0,0,1-2.343,1.749c-.238.031-.465.318-.651.526A3.069,3.069,0,0,1,233,268.728a2.677,2.677,0,0,0-1.813,1.05,7.44,7.44,0,0,1-1.443,1.269,3.226,3.226,0,0,1-1.267.786c-1.3.193-2.322,1.14-3.7,1.153-.751.007-1.235.663-1.734,1.188a21.777,21.777,0,0,1-1.7,1.623,1.777,1.777,0,0,1-.953.468,6.761,6.761,0,0,0-2.768,1.151,10.663,10.663,0,0,0-2.382,1.764,11.538,11.538,0,0,1-5.6,2.652,18.334,18.334,0,0,1-1.94.291,5.887,5.887,0,0,0-3.616,1.714,13.718,13.718,0,0,1-5.581,3.18,19.606,19.606,0,0,1-3.726,1.009,4.342,4.342,0,0,0-3.2,2.073c-1.7-.375-3,.555-4.273,1.292a4.486,4.486,0,0,1-3.3.66,2.658,2.658,0,0,0-2.724.888,3.537,3.537,0,0,1-1.836,1.043c-.966.285-1.9.688-2.836,1.049-.2.077-.383.257-.584.273-2.724.225-5.416,1.188-8.184.377a3.7,3.7,0,0,1-1.334-.634,2.79,2.79,0,0,0-2.014-.657,22.8,22.8,0,0,1-5.354-.759,5.734,5.734,0,0,1-2.752-1.214,2.9,2.9,0,0,0-3.236-.447c-.8.311-1.61.684-2.406.915-1.332.385-2.626,1.02-4.134.857a21.869,21.869,0,0,0-3.469.143,2.358,2.358,0,0,1-.647.058,7.474,7.474,0,0,0-3.632.166A2.761,2.761,0,0,1,137.6,294c-1.528-.407-3.043-.856-4.661-1.317-.53.194-1.158.372-1.738.647a2.233,2.233,0,0,1-2.454-.285,4.493,4.493,0,0,0-2.924-1.226c-.256.007-.513-.236-.779-.341-.734-.289-1.462-.594-2.212-.839a7.123,7.123,0,0,1-3.151-1.791c-1.331-1.411-2.159-1.474-3.751-.3a2.914,2.914,0,0,1-3.237.429c-.922-.477-1.715.189-2.543.005-.76-.169-1.514-.7-2.231-.641a11.637,11.637,0,0,1-4.26-.6,9.91,9.91,0,0,0-3.813-.522,6.324,6.324,0,0,1-3.841-1.249,20.636,20.636,0,0,0-5.6-2.232,27.5,27.5,0,0,1-3.99-1.553,2.446,2.446,0,0,1-1.478-1.472,2.163,2.163,0,0,0-2.025-1.393c-1.99-.159-3.7-1.206-5.614-1.609a3.61,3.61,0,0,1-1.632-1.326c-1.065-1.254-2.041-2.58-3.066-3.867a9.492,9.492,0,0,0-4.682-3.263c-1.7-.545-3.293-1.407-5.063-1.851-.714-.179-1.244-.99-1.959-1.245-.631-.226-1.514.135-2.088-.145A18.115,18.115,0,0,1,56,264.062c-.341-.257-.561-.7-.927-.886a12.4,12.4,0,0,1-4.1-4.038,7.353,7.353,0,0,0-3.151-2.526,4.329,4.329,0,0,1-1.2-.864c-.579-.532-1.111-1.112-1.662-1.673a3.3,3.3,0,0,1-.436-.467c-.969-1.488-1.882-3.011-2.9-4.463a5.173,5.173,0,0,0-2.7-2.039c-1.1-.337-2.225-.571-3.618-.92a6.246,6.246,0,0,0-.9-.791,2.8,2.8,0,0,1-1.03-1.573c-.433-1.2-.809-2.419-1.332-3.579a7.857,7.857,0,0,1-.8-3.487,2.947,2.947,0,0,0-.653-1.967,7.314,7.314,0,0,1-1.442-3.94c-.077-.913-.362-1.812-.408-2.725a2.577,2.577,0,0,0-1.025-1.986,6.674,6.674,0,0,1-1.1-1.558,12.582,12.582,0,0,0-.776-1.27,15.638,15.638,0,0,1-2.418-4.483,10.537,10.537,0,0,0-3.247-4.429,1.876,1.876,0,0,1-.809-1.416,1.117,1.117,0,0,0-.307-.751,1.694,1.694,0,0,1-.6-1.507,5.551,5.551,0,0,0-.234-1.233,14.021,14.021,0,0,1-.524-2.247,4.512,4.512,0,0,0-1.791-3.269c-.494-.416-1.009-.812-1.543-1.178a2.8,2.8,0,0,1-1.2-1.912,4.848,4.848,0,0,0-1.663-2.892,2.328,2.328,0,0,1-.988-2.426,3.673,3.673,0,0,0-.467-2.46,20,20,0,0,1-1.123-2.742,14.241,14.241,0,0,0-1.393-2.613,1.181,1.181,0,0,0-.483-.415C5.2,186.411,4.5,184.77,4.079,182.93a9.757,9.757,0,0,0-.719-2c-.673-1.406-1.423-2.777-2.1-4.182a2.4,2.4,0,0,1-.14-1.016,2.053,2.053,0,0,1,.194-.6,4.1,4.1,0,0,0-.9-4.513c-.188-.194-.43-.5-.394-.712.309-1.844-.46-3.747.435-5.577a13.654,13.654,0,0,0,.9-3.046,4.591,4.591,0,0,1,1.06-2.5,1.8,1.8,0,0,0,.2-2.021,4.13,4.13,0,0,1,.14-3.483,31.316,31.316,0,0,1,1-3.013,3.154,3.154,0,0,0,.061-2.051A21.333,21.333,0,0,0,2.6,144.6a3.486,3.486,0,0,1-.015-2.873c.342-.857.676-1.718,1.051-2.562a18.906,18.906,0,0,0,1.4-4.843,10.816,10.816,0,0,0-.3-4.187c-.237-1.026-.558-2.034-.871-3.041a3.184,3.184,0,0,1,.229-3.037,2.2,2.2,0,0,0,.183-1.424,23.33,23.33,0,0,1,.053-4.864c.129-1.543.354-3.071.538-4.6.074-.617.568-1.224.521-1.809-.126-1.594.676-2.868,1.278-4.219.2-.446.474-.859.7-1.3A4.067,4.067,0,0,0,7.9,104.7a8.914,8.914,0,0,1,1.752-3.819,4.147,4.147,0,0,0,.431-.732,66.251,66.251,0,0,1,3.472-6.584c.682-1.162,1.3-2.364,1.873-3.58a31.476,31.476,0,0,1,2.826-4.016c.232-.342.662-.551.953-.863a4.008,4.008,0,0,0,.752-1.01,34.405,34.405,0,0,0,2.157-5.728A8.95,8.95,0,0,1,24.6,74.22a16.661,16.661,0,0,0,3.961-6.953,8.858,8.858,0,0,1,1.161-2.488,12.93,12.93,0,0,0,1.234-2.68,22.224,22.224,0,0,0,1.393-3.545c.506-2.115,2.14-3.33,3.932-4.315a2.433,2.433,0,0,1,2.838.414,1.434,1.434,0,0,0,1.957.1,3.8,3.8,0,0,1,1.375-.555,6.382,6.382,0,0,0,3.88-2.068,10.654,10.654,0,0,0,2.07-3.16,9.911,9.911,0,0,1,2.089-2.924,17.163,17.163,0,0,0,3.72-5.166c.954-2.366,2.171-4.631,3.169-6.982.64-1.505,1.914-2.473,2.953-3.632a1.8,1.8,0,0,1,2.4-.283,2.617,2.617,0,0,0,3.02-.011,17.627,17.627,0,0,1,3.064-1.069c3.282-.965,6.3-2.556,9.465-3.785.683-.993,1.865-.925,2.851-1.279a10.485,10.485,0,0,0,1.181-.514c.321-.162.6-.483.929-.534a5.342,5.342,0,0,0,2.585-1C86.5,21.267,87.262,20.856,88.073,20.341Z"/><path class="cls-2" d="M176.454,79.325a4.6,4.6,0,0,1-.881,1.474,1.183,1.183,0,0,0-.223.428c-.27.586-.534,1.174-.808,1.759a1.208,1.208,0,0,1-.276.474,2.082,2.082,0,0,0-.525.806c-.187.4-.366.8-.555,1.19a1.089,1.089,0,0,1-.248.412,1.945,1.945,0,0,0-.495.744c-.2.415-.387.836-.59,1.249a1.41,1.41,0,0,1-.3.463,1.843,1.843,0,0,0-.42.629c-.207.437-.409.877-.622,1.311a1.4,1.4,0,0,1-.291.465,1.85,1.85,0,0,0-.425.627c-.2.416-.388.836-.584,1.253a1.186,1.186,0,0,1-.226.424,4.538,4.538,0,0,0-.886,1.473,2.734,2.734,0,0,1-.629.984.939.939,0,0,0-.208.355c-.162.331-.314.667-.482.994a1.217,1.217,0,0,1-.275.395,1.565,1.565,0,0,0-.388.569c-.271.585-.537,1.173-.815,1.755a1.4,1.4,0,0,1-.292.464,1.848,1.848,0,0,0-.4.641c-.316.692-.628,1.386-.946,2.076a.915.915,0,0,1-.246.412,1.668,1.668,0,0,0-.5.739c-.25.519-.491,1.042-.737,1.562a1.262,1.262,0,0,1-.223.427,4.685,4.685,0,0,0-.871,1.481,2.807,2.807,0,0,1-.695,1.105.756.756,0,0,0-.175.3c-.126.263-.249.527-.373.791-.425-.222-.59-.23-.858.085a4.961,4.961,0,0,0-.609.916,4.6,4.6,0,0,1-.881,1.475,1.161,1.161,0,0,0-.222.427c-.271.586-.535,1.175-.808,1.759a1.218,1.218,0,0,1-.277.475,2.093,2.093,0,0,0-.525.806c-.187.395-.366.8-.555,1.189a1.089,1.089,0,0,1-.248.412,1.953,1.953,0,0,0-.5.744c-.2.416-.386.837-.59,1.25a1.42,1.42,0,0,1-.3.463,1.843,1.843,0,0,0-.42.629c-.207.437-.408.877-.621,1.311a1.418,1.418,0,0,1-.292.465,1.85,1.85,0,0,0-.425.627c-.2.416-.388.836-.584,1.252a1.16,1.16,0,0,1-.226.425,4.534,4.534,0,0,0-.886,1.472,2.7,2.7,0,0,1-.629.984.935.935,0,0,0-.208.356c-.162.33-.313.667-.481.994a1.231,1.231,0,0,1-.276.395,1.553,1.553,0,0,0-.388.568c-.271.585-.537,1.174-.814,1.755a1.424,1.424,0,0,1-.292.465,1.851,1.851,0,0,0-.4.641c-.315.691-.628,1.385-.946,2.076a.906.906,0,0,1-.246.412,1.677,1.677,0,0,0-.5.739c-.25.518-.491,1.042-.737,1.562a1.227,1.227,0,0,1-.223.427,2.143,2.143,0,0,0-.384.5c-.365-.18-.524-.166-.775.128a5.006,5.006,0,0,0-.608.916,4.593,4.593,0,0,1-.882,1.475,1.192,1.192,0,0,0-.222.427c-.27.586-.535,1.175-.808,1.759a1.194,1.194,0,0,1-.276.474,2.082,2.082,0,0,0-.525.806c-.187.4-.366.8-.555,1.19a1.089,1.089,0,0,1-.248.412,1.953,1.953,0,0,0-.5.744c-.2.415-.387.837-.59,1.25a1.431,1.431,0,0,1-.3.463,1.834,1.834,0,0,0-.42.629c-.207.437-.409.877-.622,1.31a1.426,1.426,0,0,1-.291.466,1.855,1.855,0,0,0-.425.626c-.2.417-.388.836-.584,1.253a1.191,1.191,0,0,1-.226.425,4.523,4.523,0,0,0-.886,1.472,2.725,2.725,0,0,1-.629.984.935.935,0,0,0-.208.356c-.162.33-.314.667-.482.994a1.224,1.224,0,0,1-.275.394,1.565,1.565,0,0,0-.388.569c-.271.585-.537,1.173-.815,1.755a1.392,1.392,0,0,1-.292.465,1.844,1.844,0,0,0-.4.64c-.316.692-.628,1.386-.946,2.076a.923.923,0,0,1-.246.413,1.663,1.663,0,0,0-.5.739c-.25.518-.491,1.041-.737,1.562a1.534,1.534,0,0,1-.2.4c-.42-.219-.584-.224-.851.089a4.944,4.944,0,0,0-.609.916,4.6,4.6,0,0,1-.881,1.474,1.181,1.181,0,0,0-.222.428c-.27.586-.535,1.174-.808,1.759a1.222,1.222,0,0,1-.277.474,2.093,2.093,0,0,0-.525.806c-.186.4-.366.8-.555,1.19a1.076,1.076,0,0,1-.248.412,1.945,1.945,0,0,0-.495.744c-.2.415-.386.837-.59,1.249a1.423,1.423,0,0,1-.3.463,1.841,1.841,0,0,0-.421.629c-.207.437-.408.877-.621,1.311a1.412,1.412,0,0,1-.292.466,1.836,1.836,0,0,0-.425.626c-.2.416-.387.836-.583,1.253a1.173,1.173,0,0,1-.227.424,4.518,4.518,0,0,0-.885,1.473,2.723,2.723,0,0,1-.63.984.924.924,0,0,0-.207.355c-.163.331-.314.667-.482,1a1.227,1.227,0,0,1-.276.394,1.575,1.575,0,0,0-.387.569c-.272.585-.537,1.173-.815,1.755a1.445,1.445,0,0,1-.292.465,1.83,1.83,0,0,0-.4.64c-.316.692-.629,1.386-.947,2.076a.9.9,0,0,1-.246.412,1.674,1.674,0,0,0-.5.74c-.25.518-.49,1.041-.737,1.561a1.242,1.242,0,0,1-.222.427,4.669,4.669,0,0,0-.872,1.481,2.8,2.8,0,0,1-.694,1.105.752.752,0,0,0-.175.3c-.209.436-.421.87-.619,1.312a1.614,1.614,0,0,0-.215.746c.218.066.413.117.609.186.242.084.485.174.727.28a2.979,2.979,0,0,1,.586.305,15.65,15.65,0,0,0,2.075,1.228c1.162.633,2.326,1.258,3.488,1.89.18.125.364.249.535.38.532.407,1.133.711,1.673,1.1,1,.725,2.1,1.346,3.122,2.054.144.1.308.182.465.27.67.376.837.462,1.161.08a4.97,4.97,0,0,0,.609-.915,4.579,4.579,0,0,1,.881-1.475,1.158,1.158,0,0,0,.222-.428c.271-.585.535-1.174.808-1.758a1.218,1.218,0,0,1,.277-.475,2.093,2.093,0,0,0,.525-.806c.187-.4.366-.8.555-1.19a1.077,1.077,0,0,1,.248-.411,1.956,1.956,0,0,0,.5-.745c.2-.415.386-.836.59-1.249a1.41,1.41,0,0,1,.3-.463,1.843,1.843,0,0,0,.42-.629c.207-.437.408-.877.621-1.311a1.408,1.408,0,0,1,.292-.465,1.85,1.85,0,0,0,.425-.627c.2-.416.388-.836.584-1.252a1.152,1.152,0,0,1,.226-.425,4.508,4.508,0,0,0,.885-1.473,2.724,2.724,0,0,1,.63-.983.951.951,0,0,0,.208-.356c.162-.331.313-.667.481-.994a1.231,1.231,0,0,1,.276-.4,1.554,1.554,0,0,0,.387-.569c.272-.585.538-1.173.815-1.755a1.43,1.43,0,0,1,.292-.464,1.834,1.834,0,0,0,.4-.641c.316-.692.629-1.385.947-2.076a.906.906,0,0,1,.246-.412,1.677,1.677,0,0,0,.5-.739c.25-.519.491-1.042.737-1.562a1.557,1.557,0,0,1,.2-.4c.42.22.584.225.851-.088a5.006,5.006,0,0,0,.608-.916,4.6,4.6,0,0,1,.882-1.475,1.176,1.176,0,0,0,.222-.427c.27-.586.535-1.175.808-1.759a1.216,1.216,0,0,1,.276-.475,2.092,2.092,0,0,0,.526-.805c.186-.4.365-.8.554-1.19a1.089,1.089,0,0,1,.248-.412,1.944,1.944,0,0,0,.5-.744c.2-.416.386-.837.589-1.25a1.437,1.437,0,0,1,.3-.463,1.861,1.861,0,0,0,.421-.629c.207-.437.408-.877.621-1.311a1.432,1.432,0,0,1,.291-.465,1.841,1.841,0,0,0,.425-.626c.2-.417.388-.836.584-1.253a1.177,1.177,0,0,1,.227-.425,4.549,4.549,0,0,0,.885-1.472,2.725,2.725,0,0,1,.629-.984.943.943,0,0,0,.208-.356c.163-.33.314-.667.482-.994a1.228,1.228,0,0,1,.275-.4,1.561,1.561,0,0,0,.388-.568c.272-.585.537-1.174.815-1.755a1.392,1.392,0,0,1,.292-.465,1.825,1.825,0,0,0,.4-.641c.316-.691.628-1.385.946-2.076a.92.92,0,0,1,.246-.412,1.663,1.663,0,0,0,.5-.739c.25-.518.491-1.042.737-1.562a1.271,1.271,0,0,1,.223-.427,2.154,2.154,0,0,0,.385-.5c.365.181.524.166.774-.128a4.944,4.944,0,0,0,.609-.916,4.59,4.59,0,0,1,.881-1.475,1.176,1.176,0,0,0,.222-.427c.27-.586.535-1.175.808-1.759a1.222,1.222,0,0,1,.277-.474,2.093,2.093,0,0,0,.525-.806c.186-.4.366-.8.555-1.19a1.076,1.076,0,0,1,.248-.412,1.953,1.953,0,0,0,.5-.744c.2-.415.386-.837.59-1.249a1.423,1.423,0,0,1,.295-.463,1.85,1.85,0,0,0,.421-.63c.207-.437.408-.877.621-1.31a1.412,1.412,0,0,1,.292-.466,1.836,1.836,0,0,0,.425-.626c.2-.417.387-.836.583-1.253a1.186,1.186,0,0,1,.227-.425,4.5,4.5,0,0,0,.885-1.472,2.714,2.714,0,0,1,.63-.984.921.921,0,0,0,.207-.356c.163-.33.314-.667.482-.994A1.227,1.227,0,0,1,166.3,131a1.575,1.575,0,0,0,.387-.569c.272-.585.537-1.173.815-1.755a1.435,1.435,0,0,1,.292-.465,1.83,1.83,0,0,0,.4-.64c.316-.692.629-1.386.947-2.076a.906.906,0,0,1,.246-.413,1.674,1.674,0,0,0,.5-.739c.249-.518.49-1.041.736-1.562a1.281,1.281,0,0,1,.223-.427,4.653,4.653,0,0,0,.872-1.48,2.815,2.815,0,0,1,.694-1.106.741.741,0,0,0,.175-.3c.126-.263.249-.528.373-.792.426.223.591.23.859-.085a4.939,4.939,0,0,0,.608-.916,4.606,4.606,0,0,1,.882-1.474,1.181,1.181,0,0,0,.222-.428c.27-.585.535-1.174.808-1.759a1.22,1.22,0,0,1,.276-.474,2.1,2.1,0,0,0,.526-.806c.186-.4.365-.8.554-1.19a1.089,1.089,0,0,1,.248-.412,1.936,1.936,0,0,0,.5-.744c.2-.415.386-.836.589-1.249a1.426,1.426,0,0,1,.3-.463,1.861,1.861,0,0,0,.421-.629c.207-.437.408-.877.621-1.311a1.411,1.411,0,0,1,.291-.465,1.835,1.835,0,0,0,.425-.627c.2-.416.388-.836.584-1.253a1.173,1.173,0,0,1,.227-.424,4.543,4.543,0,0,0,.885-1.473,2.734,2.734,0,0,1,.629-.984.939.939,0,0,0,.208-.355c.163-.331.314-.667.482-.994a1.22,1.22,0,0,1,.276-.395,1.575,1.575,0,0,0,.387-.569c.272-.585.537-1.173.815-1.755a1.414,1.414,0,0,1,.292-.464,1.834,1.834,0,0,0,.4-.641c.316-.692.628-1.386.946-2.076a.915.915,0,0,1,.246-.412,1.668,1.668,0,0,0,.5-.739c.25-.519.491-1.042.737-1.562a1.262,1.262,0,0,1,.223-.427,4.688,4.688,0,0,0,.872-1.481,2.8,2.8,0,0,1,.694-1.1.745.745,0,0,0,.175-.3c.209-.436.421-.87.619-1.312a1.626,1.626,0,0,0,.215-.745c-.219-.067-.413-.118-.609-.187-.242-.084-.486-.174-.727-.28a2.979,2.979,0,0,1-.586-.3,15.77,15.77,0,0,0-2.076-1.228c-1.161-.632-2.326-1.258-3.487-1.89-.18-.125-.364-.249-.535-.38-.533-.406-1.133-.711-1.673-1.1-1-.726-2.1-1.347-3.122-2.055-.144-.1-.309-.182-.465-.27-.67-.376-.837-.462-1.162-.08A4.939,4.939,0,0,0,176.454,79.325Z"/><path class="cls-2" d="M110.886,90.966c.056-.1.112-.194.167-.288q-.084.141-.168.288Z"/><path class="cls-1" d="M63.016,66.925c.611.322,1.229.647,1.827.965.552.292,1.1.58,1.657.87l.706.369c.148.078.313.164.44.232.3.161.6.319.924.489.781.41,1.554.821,2.344,1.229l.254.134c.33.177.673.356,1.014.534.372.194.734.385,1.055.559.341.185.7.377,1.058.56.578.3,1.141.595,1.71.895l1.334.7.183.1c.338.185.728.388,1.111.589l.512.269,2.22,1.169c.2.105.388.2.53.284.081-.107.168-.21.247-.319l-.06-.031c-.313-.16-.616-.316-.936-.489-.092-.049-.212-.11-.319-.166-.6-.315-1.192-.623-1.789-.933-.431-.224-.855-.445-1.246-.642-.274-.139-.529-.272-.8-.416s-.528-.282-.805-.423c-.08-.04-.19-.1-.237-.12-.176-.085-.42-.215-.642-.33-.024-.012-.054-.029-.109-.06l.307.145c-.558-.3-.991-.52-1.37-.706-.1-.056-.206-.112-.3-.158-.573-.3-1.149-.6-1.722-.9-.3-.156-.608-.321-.877-.458-.363-.186-.542-.291-.828-.442l-.524-.278-.242-.116c-.626-.345-1.4-.738-2.038-1.083l-.125-.064-.97-.506c-.154-.076-.4-.2-.731-.376-.049-.027-.125-.066-.186-.1-.367-.189-.684-.345-1.078-.551-.051-.026-.1-.051-.143-.07-.106-.051-.231-.114-.4-.2-.179-.1-.336-.176-.489-.253l-.333-.167c-.258-.131-.485-.244-.67-.334l-.174.232.38.2Z"/><path class="cls-1" d="M109.45,91c-.378-.2-.742-.4-1.187-.636-.18-.095-.358-.192-.522-.281-.263-.143-.541-.292-.845-.451-.612-.321-1.18-.623-1.7-.906-.133-.073-.26-.141-.42-.222-.2-.1-.373-.2-.554-.293l-.781-.419-.534-.286-.925-.5L101.976,87a4.285,4.285,0,0,0-.485-.268c-.2-.1-.393-.2-.59-.3l-.178-.092-.47-.252-.359-.181c-.54-.275-1.109-.57-1.678-.864-.4-.206-.8-.412-1.176-.618-.047-.026-.124-.066-.188-.1-.489-.258-.967-.511-1.429-.759-.405-.217-.815-.434-1.252-.662l-.962-.5c-.712-.373-1.281-.68-1.694-.916l-.242-.137c-.313-.161-.61-.319-.912-.477-.039.048-.079.1-.117.145s-.091.112-.136.169c.514.269,1.018.54,1.537.806.055.028.126.067.186.1.61.326,1.247.661,1.882,1,.125.065.252.133.365.195.323.174.644.342,1,.525s.729.378,1.08.564.718.379,1.082.569l.444.234c.3.156.592.313.888.467.581.3,1.154.6,1.71.9l.313.166c.644.337,1.273.671,1.892,1,.6.319,1.187.626,1.772.925.389.2.752.391,1.131.593l1.251.667c.1.038.37.174.7.343.3.153.532.271.732.366.154.074.324.156.53.261.291.152.305.172.617.332.055.024.108.044.183.078.05.022.112.05.208.1.143.071.183.088.244.115l.173.079a.489.489,0,0,1,.119-.178l-.259-.147C109.767,91.177,109.616,91.093,109.45,91Z"/><path class="cls-3" d="M67.859,107.156c-.172-.136-.371-.233-.55-.363-.195-.142-.412-.258-.612-.393a1.275,1.275,0,0,1-.179-.858,4.491,4.491,0,0,0-.054-1.034,5.849,5.849,0,0,0-.2-.875,6.448,6.448,0,0,1-.242-.638,1.785,1.785,0,0,0-.766-1.2,1.4,1.4,0,0,1-.341-.371c-.264.331-.512.68-.75,1.041a6.985,6.985,0,0,1-1.6,1.8,10.762,10.762,0,0,0-2.585,2.789,14.585,14.585,0,0,1-3.321,3.681c-.183.135-.422.314-.464.512-.213.982-1.1,1.412-1.546,2.209a2.172,2.172,0,0,1-.891.657,6.05,6.05,0,0,1-.861.338,7.119,7.119,0,0,1-1.683,2.684c.021.021.04.045.06.066.16-.005.319,0,.478-.011a9.622,9.622,0,0,1,3.633.441,6.177,6.177,0,0,0,2.3.228,8.406,8.406,0,0,1,2.59.174,4.525,4.525,0,0,0,2.444-.077,2.283,2.283,0,0,1,1.338-.107,1.537,1.537,0,0,0,.682.009,1.875,1.875,0,0,1,1.682.375,1.177,1.177,0,0,0,.177.109l.017-.011a2.727,2.727,0,0,0,1.256-1.818c.079-.28.14-.565.2-.85a2.491,2.491,0,0,1,1.346-1.9,5.082,5.082,0,0,0,2.281-2.271c.13-.258.323-.482.448-.741.079-.164.179-.306.27-.457a5.99,5.99,0,0,0-.578-.386A33.568,33.568,0,0,1,67.859,107.156Z"/><path class="cls-3" d="M125.993,27.977a2.435,2.435,0,0,1-.389-.353L111.157,21.39c-.31.149-.611.328-.931.449l-3.079-3.877a8.342,8.342,0,0,1-1.165-.061,1.42,1.42,0,0,0-1.426.566l-.113.132a2.11,2.11,0,0,0-.339.32c-.1.113-.192.228-.291.339q-.674.612-1.309,1.263c-.467.457-.925.924-1.364,1.409-.422.466-.849.932-1.225,1.433-.1.132-.2.259-.305.382-.034.028-.065.058-.1.084-.335.256-.661.524-.985.794-.137.115-.32.227-.376.379l-.008.019-.068.054c-.138.115-.32.227-.376.379a3.261,3.261,0,0,1-.67,1.068c-.019.016-.035.034-.054.05a.812.812,0,0,0-.112.133c-.109.109-.222.216-.34.319a1.041,1.041,0,0,0-.251.373,3.208,3.208,0,0,1-.447.757c-.069.058-.135.118-.211.171a.931.931,0,0,0-.188.193c-.035.045-.073.087-.108.132-.052.042-.1.088-.156.127a.906.906,0,0,0-.188.193,28.223,28.223,0,0,1-1.931,2.246,6.355,6.355,0,0,1-1.284.976.84.84,0,0,0-.411.427l-.041.025a.774.774,0,0,0-.457.618,1.864,1.864,0,0,1-.4.886,3.826,3.826,0,0,1-.268.323,8.25,8.25,0,0,1-1.192.842c-.046.028-.071.09-.105.137l.015.088c-.12.076-.239.154-.362.228-.046.027-.071.09-.105.136l.075.424a1.861,1.861,0,0,0-.4.415,3.63,3.63,0,0,0-.716.789c-.118.136-.213.291-.337.422a28.519,28.519,0,0,0-2.537,3.033c-.086.121-.176.236-.27.348a3.6,3.6,0,0,1-.5.367,4.338,4.338,0,0,0-1.188.956,2.622,2.622,0,0,0-.854,1.155.977.977,0,0,1-.136.24,3.715,3.715,0,0,1-.291.335,10.28,10.28,0,0,0-1.49,2.248,3.242,3.242,0,0,1-.357.538,18.477,18.477,0,0,0-1.986,1.666c-.057.05-.111.1-.166.155a1.192,1.192,0,0,1-.249.142,1.3,1.3,0,0,0-.726.587,1.028,1.028,0,0,0-.493.536,1.765,1.765,0,0,1-.308.46,6.936,6.936,0,0,1-.581.569c-.052.053-.106.1-.16.154a4.9,4.9,0,0,1-.722.666.858.858,0,0,1-.463.487.984.984,0,0,1-.527.494,2.746,2.746,0,0,0-.413.291.236.236,0,0,0-.02.1A1.358,1.358,0,0,1,72,54.7c-.026.022-.05.047-.077.069a2.367,2.367,0,0,1-.375.383c-.538.457-1.043.943-1.539,1.418.012.1.037.187.038.256a.168.168,0,0,1-.014.077c-.069.128-.244.2-.293.335a1.2,1.2,0,0,1-.562.693,1.089,1.089,0,0,1-.329.386c-.093.506-.483.88-.621,1.361a1.2,1.2,0,0,1-.449.656c-.055.041-.1.087-.155.131a1.187,1.187,0,0,1-.3.321c-.047.035-.088.075-.132.112a3.3,3.3,0,0,0-.422.692,1.037,1.037,0,0,1-.5.533.983.983,0,0,1-.583.51l-.006,0a.76.76,0,0,0-.473.51,2.383,2.383,0,0,1-.4.686c-.025.02-.048.044-.073.064a7.8,7.8,0,0,0-.849.815,12.437,12.437,0,0,0-1.4,1.621c.185.09.412.2.67.334l.333.167c.153.077.31.157.489.253.164.088.289.151.4.2.039.019.092.044.143.07.394.206.711.362,1.078.551.061.031.137.07.186.1.331.178.577.3.731.376l.97.506.125.064c.638.345,1.412.738,2.038,1.083l.242.116.524.278c.286.151.465.256.828.442.269.137.577.3.877.458.573.3,1.149.6,1.722.9.089.046.191.1.3.158.379.186.812.407,1.37.706l-.307-.145c.055.031.085.048.109.06.222.115.466.245.642.33.047.022.157.08.237.12.277.141.547.283.805.423s.521.277.8.416c.391.2.815.418,1.246.642.6.31,1.19.618,1.789.933.107.056.227.117.319.166.32.173.623.329.936.489l.06.031.313.164c.338.178.672.355,1.016.533.223.115.413.217.594.317.392.215.862.465,1.346.72l1.45.767c.119.062.268.141.363.188.207.1.4.2.615.32.25.133.5.264.76.4l1.074.556.127.067c.184.1.376.2.561.293.3.158.6.316.912.477l.242.137c.413.236.982.543,1.694.916l.962.5c.437.228.847.445,1.252.662.462.248.94.5,1.429.759.064.033.141.073.188.1.378.206.778.412,1.176.618.569.294,1.138.589,1.678.864l.359.181.47.252.178.092c.2.1.387.195.59.3a4.285,4.285,0,0,1,.485.268l.007.007.925.5.534.286.781.419c.181.1.357.192.554.293.16.081.287.149.42.222.519.283,1.087.585,1.7.906.3.159.582.308.845.451.164.089.342.186.522.281.445.234.809.432,1.187.636.166.09.317.174.435.241l.259.147,0-.007a.865.865,0,0,0,.268-.509,1.038,1.038,0,0,1,.371-.685,2.188,2.188,0,0,0,.588-.964,2.526,2.526,0,0,1,.271-.472c.1-.136.2-.275.29-.416a.549.549,0,0,0,.046-.106c-.024.094-.047.187-.067.282a6.487,6.487,0,0,1-.336,1.194l.012-.025a6.406,6.406,0,0,0,.336-1.211c.017-.081.037-.162.056-.243a.846.846,0,0,0,.07-.332,2.622,2.622,0,0,1,.166-.905,11.579,11.579,0,0,0,.394-1.152,2.754,2.754,0,0,1,.206-.686.653.653,0,0,0,.025-.208.759.759,0,0,1,.048-.247,4.054,4.054,0,0,0,.247-.764c.082-.254.183-.5.27-.754a.623.623,0,0,0,.061-.286,1.6,1.6,0,0,1,.106-.785,3.792,3.792,0,0,0,.1-.5,2.1,2.1,0,0,1,.344-1.03.18.18,0,0,0,.038-.118.817.817,0,0,1,.017-.222,3.893,3.893,0,0,1-.727-.386c.014-.081.028-.163.044-.243.006-.029.027-.056.03-.085.1-.927.7-1.731.641-2.7a1.544,1.544,0,0,1,.18-.6c.1-.253.206-.5.326-.745a1.682,1.682,0,0,0,.2-1.214.85.85,0,0,1,.215-.837,1.465,1.465,0,0,0,.34-.913.885.885,0,0,1,.442-.747c.406-.216.522-.653.739-1a2.1,2.1,0,0,0,.13-.784c-.347-.351-.151-.87-.414-1.206a4.3,4.3,0,0,1,.985-1.237,2.543,2.543,0,0,0,.732-1.416c.056-.284.121-.567.184-.85.047-.215.092-.431.139-.646a1.145,1.145,0,0,0-.144-1.032,1.394,1.394,0,0,1-.227-1.024,13.592,13.592,0,0,1,1.168-4.332.745.745,0,0,1,.122-.24,2.609,2.609,0,0,0,.586-1.57,2.388,2.388,0,0,1,.58-1.4,3.11,3.11,0,0,0,.808-1.766,5.975,5.975,0,0,1,.931-2.312,2.036,2.036,0,0,0,.368-1.358,1.762,1.762,0,0,1,.358-1.263c.236-.364.486-.682.355-1.153a.441.441,0,0,1,.089-.334,1.745,1.745,0,0,0,.213-1.464c-.031-.207-.145-.437-.088-.614.18-.559.1-1.214.6-1.665a.659.659,0,0,0,.132-.676c-.072-.319-.095-.649-.149-.973a.943.943,0,0,0-.114-.419,1.185,1.185,0,0,1,.011-1.43,2.74,2.74,0,0,0,.324-.916,5.767,5.767,0,0,1,.508-1.875,3,3,0,0,0,.556-1.933c-.027-.178.156-.383.22-.583.053-.169.157-.391.094-.516a2.85,2.85,0,0,1-.108-1.594,3.377,3.377,0,0,1,.645-1.818,1.1,1.1,0,0,0,.26-.74c-.012-.3.013-.6.021-.9A.768.768,0,0,0,125.993,27.977Z"/><path class="cls-1" d="M81.936,76.9c.114.065.289.157.462.247.189.1.373.191.54.285.049.027.168.09.24.127.237.122.462.241.7.364.165.087.36.189.5.261.533.27,1.095.568,1.635.851s1.051.554,1.576.832l.884.467c.527.277,1.057.557,1.585.833l.052.027c.045-.057.091-.113.136-.169s.078-.1.117-.145c-.185-.1-.377-.195-.561-.293l-.127-.067L88.6,79.959c-.259-.133-.51-.264-.76-.4-.215-.115-.408-.216-.615-.32-.095-.047-.244-.126-.363-.188l-1.45-.767c-.484-.255-.954-.505-1.346-.72-.181-.1-.371-.2-.594-.317-.344-.178-.678-.355-1.016-.533l-.313-.164c-.079.109-.166.212-.247.319Z"/><path class="cls-2" d="M109.852,91.49c-.061-.027-.1-.044-.244-.115-.1-.048-.158-.076-.208-.1-.075-.034-.128-.054-.183-.078-.312-.16-.326-.18-.617-.332-.206-.105-.376-.187-.53-.261-.2-.095-.435-.213-.732-.366-.329-.169-.6-.3-.7-.343l-1.251-.667c-.379-.2-.742-.394-1.131-.593-.585-.3-1.171-.606-1.772-.925-.619-.329-1.248-.663-1.892-1l-.313-.166c-.556-.3-1.129-.6-1.71-.9-.3-.154-.592-.311-.888-.467l-.444-.234c-.364-.19-.721-.378-1.082-.569s-.727-.382-1.08-.564-.675-.351-1-.525c-.113-.062-.24-.13-.365-.195-.635-.335-1.272-.67-1.882-1-.06-.032-.131-.071-.186-.1-.519-.266-1.023-.537-1.537-.806l-.052-.027c-.528-.276-1.058-.556-1.585-.833l-.884-.467c-.525-.278-1.05-.557-1.576-.832s-1.1-.581-1.635-.851c-.143-.072-.338-.174-.5-.261-.233-.123-.458-.242-.7-.364-.072-.037-.191-.1-.24-.127-.167-.094-.351-.187-.54-.285-.173-.09-.348-.182-.462-.247l-.041-.023c-.142-.08-.33-.179-.53-.284l-2.22-1.169-.512-.269c-.383-.2-.773-.4-1.111-.589l-.183-.1-1.334-.7c-.569-.3-1.132-.6-1.71-.895-.353-.183-.717-.375-1.058-.56-.321-.174-.683-.365-1.055-.559-.341-.178-.684-.357-1.014-.534l-.254-.134c-.79-.408-1.563-.819-2.344-1.229-.326-.17-.626-.328-.924-.489-.127-.068-.292-.154-.44-.232L66.5,68.76c-.554-.29-1.105-.578-1.657-.87-.6-.318-1.216-.643-1.827-.965l-.315-.163-.38-.2c-.117.16-.234.319-.35.479.117.57-.094,1.1.033,1.626a2.936,2.936,0,0,0-.127,1.674,3.414,3.414,0,0,1-.226,1.48l-.016.043a3.327,3.327,0,0,0-.123.386.433.433,0,0,0,.239.537,3.238,3.238,0,0,1-.062.695l-.012.054a15.228,15.228,0,0,0-.541,2.685.871.871,0,0,1-.125.333,1.242,1.242,0,0,0-.187,1,3.473,3.473,0,0,1-.071,1.424,3.817,3.817,0,0,1-.288,1.4.307.307,0,0,0,0,.26.861.861,0,0,1-.056.848,6.1,6.1,0,0,0-.254,1.019.64.64,0,0,0,.081.19,1.277,1.277,0,0,1,.3,1.194c-.008.048-.016.1-.026.145-.182.9-.287,1.823-.418,2.689.1.107.224.174.239.26.026.143-.064.312-.022.445a1.143,1.143,0,0,1-.077,1.032.293.293,0,0,0-.011.261c.316.475.209,1.059.414,1.559a1.2,1.2,0,0,1,.054.793,3.186,3.186,0,0,0-.012,1.608,1.009,1.009,0,0,1-.129.859.763.763,0,0,0-.055.694,2.783,2.783,0,0,1,.022,1.514,13.384,13.384,0,0,0-.155,3.556,7.655,7.655,0,0,1,.818,1.044,4.771,4.771,0,0,1-.285.393,3.9,3.9,0,0,0-.274.358.43.43,0,0,0,.1.639,2.864,2.864,0,0,1,.773.732,4.524,4.524,0,0,1,.661.831.84.84,0,0,0,.13.176,1.149,1.149,0,0,0,.311.262,1.407,1.407,0,0,1,.727.871,5.074,5.074,0,0,0,.251.477,4.383,4.383,0,0,1,.239.664,3.352,3.352,0,0,1,.126.8.957.957,0,0,0,.216.653c.176.09.364.164.537.259.157.087.33.148.483.241a28.451,28.451,0,0,0,3.5,1.842,4.947,4.947,0,0,1,.509.257,3.7,3.7,0,0,1,.889.69,4.079,4.079,0,0,0,1.332,1.031c.219-.109.433-.231.643-.354a23.958,23.958,0,0,0,2.448-1.323,1.363,1.363,0,0,1,.31-.182,2.351,2.351,0,0,0,1.26-1.208,1.971,1.971,0,0,1,.561-.565,6.15,6.15,0,0,1,1.528-.756,13.154,13.154,0,0,0,1.471-.864c.026-.015.059-.018.083-.035.75-.553,1.754-.644,2.429-1.346a1.545,1.545,0,0,1,.565-.27c.253-.1.51-.186.77-.261a1.674,1.674,0,0,0,1.031-.67.852.852,0,0,1,.764-.4,1.463,1.463,0,0,0,.9-.363.886.886,0,0,1,.85-.176,2.294,2.294,0,0,0,1.237-.127c.241-.044.446-.281.668-.432.025-.493.541-.7.613-1.117a3.545,3.545,0,0,1,1.042-.128c.179,0,.358.009.535.023a2.553,2.553,0,0,0,1.54-.412c.437-.263.881-.514,1.324-.768a1.142,1.142,0,0,0,.665-.8,1.394,1.394,0,0,1,.606-.857,13.564,13.564,0,0,1,3.988-2.052A.764.764,0,0,1,99.5,96a2.606,2.606,0,0,0,1.556-.623,2.385,2.385,0,0,1,1.424-.512,2.877,2.877,0,0,0,1.58-.429,4.2,4.2,0,0,0-1.052-.2,3.863,3.863,0,0,1,1.091.19c.09-.052.18-.106.269-.163a5.972,5.972,0,0,1,2.333-.879,2.033,2.033,0,0,0,1.248-.648,1.766,1.766,0,0,1,1.173-.591,1.9,1.9,0,0,0,.863-.267c0-.012,0-.024,0-.036a.557.557,0,0,1,.039-.276Z"/><path class="cls-2" d="M91.792,64.631c-.016-.064-.012-.147-.052-.189a1.1,1.1,0,0,1-.268-.784c0-.082-.025-.163-.029-.245a.377.377,0,0,1,.073-.311.2.2,0,0,0,.031-.263c-.019-.035-.046-.084-.035-.115a3.665,3.665,0,0,0,.056-.731.218.218,0,0,1,.034-.116.411.411,0,0,0,.091-.472c.093-.227.164-.4.234-.578.01-.025,0-.064.02-.078.347-.3.352-.836.8-1.079l-.1-.214c.058-.084.13-.181.192-.283.1-.159.327-.185.357-.426a2.774,2.774,0,0,1,.227-.515c.126-.347.279-.683.385-1.039.016-.056.092-.094.145-.144a.77.77,0,0,1,.186-.878l.179.292c.04-.021.072-.028.076-.043.039-.139.135-.268.054-.426-.021-.042.006-.108.009-.162a.586.586,0,0,1,.238-.461.514.514,0,0,0,.2-.468,2.195,2.195,0,0,1,.172-.8,9.114,9.114,0,0,1,.41-1.075.631.631,0,0,1,.09-.184.866.866,0,0,0,.225-.558.589.589,0,0,1,.092-.222,2.076,2.076,0,0,0,.294-.583.468.468,0,0,1,.252-.307,1.771,1.771,0,0,0,.637-.666c.167-.267.344-.527.51-.794a.389.389,0,0,0,.07-.224.469.469,0,0,1,.129-.375,1.037,1.037,0,0,0,.191-.449c.045-.228.12-.449.183-.673a.181.181,0,0,1,.035-.074,1.751,1.751,0,0,0,.38-.866c.081-.024.156-.052.234-.068a1.285,1.285,0,0,0,.952-.773c.085-.188.182-.371.256-.563a2.071,2.071,0,0,1,.453-.681,3.888,3.888,0,0,0,.561-.757c.021-.036.034-.084.065-.1.25-.156.282-.423.351-.672a4.693,4.693,0,0,0,.213-1.082c0-.081-.008-.162-.014-.257l.222-.233a.732.732,0,0,0,.019-.117c0-.137-.012-.276,0-.412.019-.191.147-.251.357-.185.026.008.051.019.075.028.164-.145.328-.289.488-.436.091-.083.176-.172.261-.261.123-.129.238-.265.366-.388a.483.483,0,0,0,.194-.3.3.3,0,0,1,.156-.227,2.144,2.144,0,0,0,.731-.872,1.133,1.133,0,0,1,.375-.43.853.853,0,0,0,.267-.249,2.131,2.131,0,0,1,.571-.584.872.872,0,0,1,.329-.161,2.467,2.467,0,0,1,1.173-.094,1.225,1.225,0,0,0,.368.006,2.786,2.786,0,0,1,.855.022,4.7,4.7,0,0,1,1.207.392.351.351,0,0,1,.166.168,2.688,2.688,0,0,1,.338,1.045,3.843,3.843,0,0,0,.289.389.412.412,0,0,1,.145.234.443.443,0,0,0,.127.2c.081.088.174.165.253.238-.026.207-.255.117-.321.293a.845.845,0,0,0,.139.431.843.843,0,0,1,.091.552.533.533,0,0,0,.185.57c-.185.227-.349.444-.532.645a1.165,1.165,0,0,0-.312.657,2.114,2.114,0,0,1-.441,1.049,5.778,5.778,0,0,0-.668,1.036.771.771,0,0,1-.119.167,3.46,3.46,0,0,0-.565.952,5.446,5.446,0,0,1-.278.5c-.048.084-.1.163-.144.249a5.209,5.209,0,0,1-.339.611,2.187,2.187,0,0,0-.267.64,1.026,1.026,0,0,1-.318.561.741.741,0,0,0-.156.188,5.882,5.882,0,0,1-.686,1.021c-.027.03-.065.063-.07.1-.048.355-.312.6-.446.92a8.572,8.572,0,0,1-.489.9c-.1.166-.207.323-.31.484a6.7,6.7,0,0,0-.539.87,2.226,2.226,0,0,0-.347.995.6.6,0,0,1-.1.308,1.053,1.053,0,0,0-.187.406.185.185,0,0,1-.092.128c-.144.055-.15.181-.186.3a.3.3,0,0,1-.212.231c-.155.033-.208.158-.276.28-.235.417-.481.828-.721,1.243-.055.095-.1.193-.15.292a1.2,1.2,0,0,1-.417.6.258.258,0,0,0-.078.094c-.145.249-.284.5-.431.748a3.691,3.691,0,0,0-.458,1,1.062,1.062,0,0,1-.377.578,1.348,1.348,0,0,0-.405.562,1.739,1.739,0,0,1-.323.571.333.333,0,0,0-.08.143,7.23,7.23,0,0,1-.659,1.356,1.41,1.41,0,0,1-.333.5.751.751,0,0,0-.147.245c-.065.136-.116.279-.182.415a6.093,6.093,0,0,1-.5.941c-.231.319-.417.671-.617,1.012a.694.694,0,0,0-.063.193,1.533,1.533,0,0,1-.364.683c-.11.12-.2.255-.315.394a2.034,2.034,0,0,1-.859-.367,2.092,2.092,0,0,0-.928-.505c-.262-.22-.62-.2-.906-.368a.446.446,0,0,0-.192-.069c-.317-.016-.506-.255-.743-.41a.33.33,0,0,1-.083-.091c-.115-.171-.359-.173-.465-.326a3.578,3.578,0,0,1-.207-.528c-.031-.066-.121-.1-.185-.154Z"/><path class="cls-2" d="M82.928,75.048a1.57,1.57,0,0,0-.039.262,1.288,1.288,0,0,0,.047.225.51.51,0,0,1,.011.077.508.508,0,0,0,.138.318.245.245,0,0,1,.073.209.385.385,0,0,0,.014.151.538.538,0,0,1,.029.2.379.379,0,0,0,.071.2.3.3,0,0,1,.056.174.383.383,0,0,1-.135.284.372.372,0,0,0-.094.1.537.537,0,0,1-.345.237,1.092,1.092,0,0,0-.143.057,1.346,1.346,0,0,1-.158.065.546.546,0,0,0-.269.169c-.017.02-.033.04-.051.059a.13.13,0,0,1-.126.042c-.07-.015-.141-.028-.211-.047a.541.541,0,0,1-.113-.05,1.506,1.506,0,0,1-.143-.091.416.416,0,0,0-.2-.071.54.54,0,0,1-.24-.054c-.056-.037-.111-.075-.168-.109a.677.677,0,0,0-.272-.139.135.135,0,0,1-.064-.04.756.756,0,0,0-.244-.13c-.2-.078-.388-.171-.586-.243a2.263,2.263,0,0,1-.308-.14,7.869,7.869,0,0,1-.715-.364,1.8,1.8,0,0,0-.184-.081,1.126,1.126,0,0,0-.27-.107,1.136,1.136,0,0,1-.253-.112,1.289,1.289,0,0,0-.392-.173.377.377,0,0,1-.1-.041,1.579,1.579,0,0,1-.162-.088c-.146-.1-.32-.144-.458-.256-.016-.013-.033-.033-.051-.034a2.046,2.046,0,0,1-.316-.111,3.557,3.557,0,0,1-.39-.139.059.059,0,0,1-.027-.015,1.209,1.209,0,0,0-.433-.231,1.162,1.162,0,0,0-.478-.114.259.259,0,0,1-.062,0c-.133-.037-.267-.074-.4-.116-.074-.023-.145-.054-.217-.082-.087-.034-.179-.058-.213-.162A.058.058,0,0,0,74.3,74.5a1.479,1.479,0,0,1-.42-.22.175.175,0,0,0-.068-.032.122.122,0,0,1-.113-.068.113.113,0,0,0-.063-.041.894.894,0,0,1-.266-.154.231.231,0,0,0-.128-.05.57.57,0,0,1-.37-.166.119.119,0,0,0-.066-.037.367.367,0,0,1-.182-.078A.664.664,0,0,0,72.5,73.6c-.038-.016-.091-.022-.11-.051a.317.317,0,0,0-.208-.113,1.031,1.031,0,0,0-.259-.089.069.069,0,0,1-.055-.026c-.043-.09-.155-.1-.207-.177a.039.039,0,0,0-.024-.02c-.117-.01-.216-.094-.344-.071-.081.015-.129-.063-.095-.144a.706.706,0,0,0,.03-.451.314.314,0,0,1,.058-.29.266.266,0,0,0,.062-.156.177.177,0,0,1,.095-.15.848.848,0,0,0,.211-.2.608.608,0,0,0,.032-.059l-.068-.112a1.479,1.479,0,0,1,.084-.155c.028-.042.062-.1.1-.108.076-.018.1-.068.119-.126.007-.02.016-.039.021-.059a.287.287,0,0,1,.131-.183,1.225,1.225,0,0,0,.117-.1c.04-.033.081-.063.126-.1a.456.456,0,0,0-.026-.177.169.169,0,0,1,.015-.119.112.112,0,0,1,.154-.059.348.348,0,0,1,.1.049.249.249,0,0,0,.14.057.317.317,0,0,1,.1.038c.046.021.091.047.138.067a1.823,1.823,0,0,1,.285.107,1.385,1.385,0,0,0,.286.117.449.449,0,0,1,.193.125.342.342,0,0,0,.214.113A.246.246,0,0,1,74,71c.063.043.116.105.2.081.008,0,.02,0,.029.01.167.09.334.182.5.271a1.61,1.61,0,0,0,.169.076,2.058,2.058,0,0,1,.48.212.383.383,0,0,0,.085.037.276.276,0,0,1,.1.045.59.59,0,0,0,.328.152c.09.022.158.1.255.105a.315.315,0,0,0,.189.058.186.186,0,0,1,.133.064.2.2,0,0,0,.1.062.89.89,0,0,1,.254.1c.035.021.077.031.114.049l.206.1a1.487,1.487,0,0,0,.141.064.41.41,0,0,1,.143.089.275.275,0,0,0,.1.061c.119.034.24.059.358.094a.463.463,0,0,1,.118.071.439.439,0,0,0,.165.081.362.362,0,0,1,.128.079c.061.047.115.107.2.1.1.063.22.078.323.141a1.944,1.944,0,0,0,.342.143,1.288,1.288,0,0,1,.237.113.736.736,0,0,0,.289.106.394.394,0,0,1,.132.038c.149.082.293.171.442.254a.378.378,0,0,0,.142.053.772.772,0,0,1,.262.092c.083.04.161.091.241.137.014.008.026.021.04.023a4.61,4.61,0,0,1,.455.185.174.174,0,0,1,.071.03,1.482,1.482,0,0,0,.349.164,1.113,1.113,0,0,1,.25.122.354.354,0,0,0,.084.038c.039.016.079.027.116.045.073.037.142.084.218.115s.151.033.222.062A1.761,1.761,0,0,1,82.928,75.048Z"/><path class="cls-2" d="M81.378,77.462a1.553,1.553,0,0,0,.035-.263,1.3,1.3,0,0,0-.05-.225.39.39,0,0,1-.013-.076.506.506,0,0,0-.143-.316.245.245,0,0,1-.076-.208.362.362,0,0,0-.017-.15.59.59,0,0,1-.032-.2.368.368,0,0,0-.074-.2.3.3,0,0,1-.058-.173.382.382,0,0,1,.131-.286.373.373,0,0,0,.092-.1.535.535,0,0,1,.341-.242,1.034,1.034,0,0,0,.143-.06c.052-.022.1-.05.156-.067a.543.543,0,0,0,.267-.173c.016-.02.032-.04.049-.059a.132.132,0,0,1,.126-.045c.071.014.142.026.212.044a.533.533,0,0,1,.113.048,1.34,1.34,0,0,1,.145.089.413.413,0,0,0,.2.068.543.543,0,0,1,.241.05c.056.036.112.074.17.107a.672.672,0,0,0,.273.134.133.133,0,0,1,.065.04.786.786,0,0,0,.246.126c.2.075.39.164.59.233a2.272,2.272,0,0,1,.31.136,7.752,7.752,0,0,1,.721.353c.054.036.126.047.185.078a1.128,1.128,0,0,0,.272.1,1.152,1.152,0,0,1,.254.109,1.311,1.311,0,0,0,.395.166.394.394,0,0,1,.1.04,1.4,1.4,0,0,1,.163.085c.147.095.322.139.461.249.016.013.034.032.052.033a2.157,2.157,0,0,1,.318.106,3.478,3.478,0,0,1,.392.133.052.052,0,0,1,.027.015,1.222,1.222,0,0,0,.436.224,1.187,1.187,0,0,0,.48.107.254.254,0,0,1,.062,0c.135.036.269.071.4.11.075.022.146.052.219.079s.18.055.215.158a.053.053,0,0,0,.035.028,1.492,1.492,0,0,1,.423.214.157.157,0,0,0,.069.031.121.121,0,0,1,.113.066.114.114,0,0,0,.064.041.9.9,0,0,1,.269.15.239.239,0,0,0,.128.048.568.568,0,0,1,.373.16.128.128,0,0,0,.066.036.365.365,0,0,1,.184.075.726.726,0,0,0,.127.055c.038.015.092.021.111.049a.313.313,0,0,0,.21.11,1.078,1.078,0,0,0,.261.085.069.069,0,0,1,.054.024c.045.09.158.1.211.175a.042.042,0,0,0,.023.019c.118.008.218.091.346.066.08-.016.129.06.1.142a.708.708,0,0,0-.023.452.312.312,0,0,1-.054.291.265.265,0,0,0-.059.157.176.176,0,0,1-.093.151.827.827,0,0,0-.207.206.412.412,0,0,0-.031.06l.069.111a1.5,1.5,0,0,1-.081.156c-.028.042-.061.1-.1.109-.076.02-.1.07-.117.129a.566.566,0,0,0-.02.058.289.289,0,0,1-.128.186,1.362,1.362,0,0,0-.115.1c-.039.033-.08.064-.125.1a.454.454,0,0,0,.029.177.168.168,0,0,1-.013.119.111.111,0,0,1-.153.062.363.363,0,0,1-.1-.047.25.25,0,0,0-.141-.056.289.289,0,0,1-.1-.036c-.047-.02-.092-.046-.139-.065a1.644,1.644,0,0,1-.287-.1,1.471,1.471,0,0,0-.288-.112.462.462,0,0,1-.2-.122.343.343,0,0,0-.216-.11.237.237,0,0,1-.087-.026c-.063-.041-.118-.1-.206-.077-.009,0-.02-.005-.029-.009-.169-.088-.338-.177-.507-.263a1.446,1.446,0,0,0-.171-.074,2.052,2.052,0,0,1-.483-.2.459.459,0,0,0-.085-.035.289.289,0,0,1-.1-.043.6.6,0,0,0-.331-.148c-.09-.02-.159-.1-.256-.1a.315.315,0,0,0-.19-.055.18.18,0,0,1-.134-.062.207.207,0,0,0-.1-.06.91.91,0,0,1-.257-.1c-.035-.02-.077-.03-.114-.047l-.208-.1a1.488,1.488,0,0,0-.142-.062.42.42,0,0,1-.145-.086.262.262,0,0,0-.105-.06c-.119-.032-.24-.055-.359-.089a.434.434,0,0,1-.119-.069.434.434,0,0,0-.165-.078.342.342,0,0,1-.13-.077c-.062-.046-.117-.105-.2-.1-.1-.061-.222-.074-.326-.136a1.943,1.943,0,0,0-.344-.137,1.26,1.26,0,0,1-.239-.11.738.738,0,0,0-.29-.1.391.391,0,0,1-.133-.036c-.15-.08-.3-.167-.445-.247a.389.389,0,0,0-.144-.051.778.778,0,0,1-.263-.088c-.084-.039-.163-.088-.244-.133a.125.125,0,0,0-.04-.023,4.706,4.706,0,0,1-.458-.177.172.172,0,0,1-.071-.029,1.468,1.468,0,0,0-.352-.159,1.085,1.085,0,0,1-.251-.118.342.342,0,0,0-.085-.037c-.039-.015-.079-.025-.116-.043-.074-.036-.144-.082-.22-.111s-.152-.031-.223-.059A1.74,1.74,0,0,1,81.378,77.462Z"/><path class="cls-2" d="M99.645,86.628a1.653,1.653,0,0,0,.049-.261,1.3,1.3,0,0,0-.039-.227.394.394,0,0,1-.008-.077.506.506,0,0,0-.127-.322.249.249,0,0,1-.066-.212.366.366,0,0,0-.008-.151.567.567,0,0,1-.022-.2.377.377,0,0,0-.064-.2.3.3,0,0,1-.05-.176.385.385,0,0,1,.146-.279.376.376,0,0,0,.1-.1.535.535,0,0,1,.352-.224,1.019,1.019,0,0,0,.146-.052,1.518,1.518,0,0,1,.159-.059.536.536,0,0,0,.275-.159c.018-.019.035-.039.053-.057a.13.13,0,0,1,.128-.038c.07.017.14.033.209.055a.475.475,0,0,1,.111.054,1.333,1.333,0,0,1,.14.1.417.417,0,0,0,.2.078.546.546,0,0,1,.237.062c.055.039.108.08.164.116a.7.7,0,0,0,.267.148.135.135,0,0,1,.063.043.772.772,0,0,0,.239.139c.193.084.381.184.577.263a2.182,2.182,0,0,1,.3.151,7.872,7.872,0,0,1,.7.389,1.782,1.782,0,0,0,.181.088,1.147,1.147,0,0,0,.266.116,1.1,1.1,0,0,1,.249.122,1.3,1.3,0,0,0,.386.186.389.389,0,0,1,.1.044,1.8,1.8,0,0,1,.159.094c.142.1.314.156.448.273.015.014.032.034.05.035a2.068,2.068,0,0,1,.311.122,3.643,3.643,0,0,1,.386.153.076.076,0,0,1,.026.016,1.2,1.2,0,0,0,.424.247,1.171,1.171,0,0,0,.474.131.248.248,0,0,1,.061.006c.133.042.265.084.4.13.073.026.143.06.215.09s.176.064.206.169a.055.055,0,0,0,.033.03,1.482,1.482,0,0,1,.413.235.167.167,0,0,0,.067.035.12.12,0,0,1,.109.072.113.113,0,0,0,.062.043.92.92,0,0,1,.261.164.231.231,0,0,0,.125.054.571.571,0,0,1,.365.179.119.119,0,0,0,.064.04.354.354,0,0,1,.179.084.658.658,0,0,0,.125.061c.037.018.09.026.108.055a.318.318,0,0,0,.2.121,1.1,1.1,0,0,0,.256.1.07.07,0,0,1,.053.027c.041.092.152.1.2.186a.042.042,0,0,0,.023.019c.117.015.213.1.341.084.082-.012.127.067.091.147a.707.707,0,0,0-.047.45.315.315,0,0,1-.068.288.263.263,0,0,0-.068.154.177.177,0,0,1-.1.146.846.846,0,0,0-.218.2.424.424,0,0,0-.034.058l.064.115a1.747,1.747,0,0,1-.089.152c-.03.04-.066.095-.108.1-.076.016-.1.065-.123.123-.008.019-.017.038-.023.057a.29.29,0,0,1-.137.179,1.365,1.365,0,0,0-.121.1c-.04.031-.083.059-.129.093a.432.432,0,0,0,.02.177.169.169,0,0,1-.02.119.112.112,0,0,1-.156.054.39.39,0,0,1-.094-.052.254.254,0,0,0-.138-.063.3.3,0,0,1-.1-.041c-.046-.023-.09-.051-.136-.073a1.655,1.655,0,0,1-.281-.117,1.47,1.47,0,0,0-.282-.127.441.441,0,0,1-.188-.132.346.346,0,0,0-.21-.12.251.251,0,0,1-.086-.03c-.061-.045-.112-.109-.2-.088-.008,0-.02-.006-.028-.011-.165-.1-.328-.194-.493-.289a1.825,1.825,0,0,0-.166-.082,2.06,2.06,0,0,1-.472-.229.406.406,0,0,0-.084-.04c-.033-.015-.075-.023-.1-.048a.6.6,0,0,0-.323-.165c-.089-.024-.155-.1-.251-.114a.318.318,0,0,0-.187-.064.182.182,0,0,1-.131-.069.206.206,0,0,0-.1-.065.924.924,0,0,1-.251-.111c-.034-.022-.075-.034-.112-.053-.068-.036-.134-.075-.2-.112-.045-.024-.091-.049-.138-.069a.392.392,0,0,1-.141-.094.256.256,0,0,0-.1-.064c-.117-.039-.238-.068-.355-.108a.46.46,0,0,1-.115-.074.434.434,0,0,0-.161-.087.362.362,0,0,1-.126-.084c-.059-.049-.111-.11-.2-.109-.1-.066-.217-.085-.318-.153a2.021,2.021,0,0,0-.337-.154,1.284,1.284,0,0,1-.232-.122.76.76,0,0,0-.285-.116.389.389,0,0,1-.131-.043c-.146-.087-.287-.182-.432-.269a.361.361,0,0,0-.141-.058.761.761,0,0,1-.258-.1c-.082-.043-.158-.1-.236-.146-.014-.008-.025-.021-.039-.024a4.869,4.869,0,0,1-.449-.2.215.215,0,0,1-.07-.033,1.48,1.48,0,0,0-.342-.177,1.093,1.093,0,0,1-.246-.13.317.317,0,0,0-.082-.042c-.038-.017-.078-.029-.114-.049-.072-.039-.14-.089-.214-.122s-.15-.039-.22-.07A1.962,1.962,0,0,1,99.645,86.628Z"/><path class="cls-2" d="M89.525,81.224a1.6,1.6,0,0,0,.05-.263,1.319,1.319,0,0,0-.038-.229.4.4,0,0,1-.009-.077.5.5,0,0,0-.125-.325.247.247,0,0,1-.065-.213.394.394,0,0,0-.008-.153.572.572,0,0,1-.022-.2.368.368,0,0,0-.063-.2.3.3,0,0,1-.049-.177.392.392,0,0,1,.147-.282.4.4,0,0,0,.1-.1.543.543,0,0,1,.354-.227,1.1,1.1,0,0,0,.145-.053c.054-.02.106-.046.16-.06a.547.547,0,0,0,.277-.162c.017-.019.034-.039.053-.057a.129.129,0,0,1,.127-.038c.071.017.141.032.21.054a.475.475,0,0,1,.111.054,1.447,1.447,0,0,1,.14.1.409.409,0,0,0,.2.079.52.52,0,0,1,.238.062c.054.038.108.079.164.115a.68.68,0,0,0,.266.149.13.13,0,0,1,.063.043.8.8,0,0,0,.239.139c.194.085.381.184.577.263a2.194,2.194,0,0,1,.3.151,7.977,7.977,0,0,1,.7.39,1.782,1.782,0,0,0,.181.088,1.106,1.106,0,0,0,.266.116,1.148,1.148,0,0,1,.249.122,1.265,1.265,0,0,0,.386.186.432.432,0,0,1,.1.045,1.581,1.581,0,0,1,.159.094c.142.1.314.156.447.273.016.014.032.034.05.036a2.016,2.016,0,0,1,.312.122,3.315,3.315,0,0,1,.385.153.057.057,0,0,1,.027.016,1.2,1.2,0,0,0,.423.247,1.154,1.154,0,0,0,.474.13.311.311,0,0,1,.062.006c.133.042.265.084.4.13.073.026.143.06.215.09s.176.064.206.17a.055.055,0,0,0,.033.03,1.466,1.466,0,0,1,.412.235.155.155,0,0,0,.067.035.12.12,0,0,1,.109.072.124.124,0,0,0,.062.044.878.878,0,0,1,.261.164.231.231,0,0,0,.125.054.571.571,0,0,1,.365.179.119.119,0,0,0,.064.04.347.347,0,0,1,.179.085.751.751,0,0,0,.124.061c.038.017.091.025.109.055a.311.311,0,0,0,.2.12,1,1,0,0,0,.256.1.07.07,0,0,1,.053.028c.04.092.152.1.2.186,0,.008.014.019.022.02.117.014.213.1.342.083.082-.012.126.067.09.148a.712.712,0,0,0-.048.454.32.32,0,0,1-.07.29.272.272,0,0,0-.068.155.179.179,0,0,1-.1.148.862.862,0,0,0-.219.2.645.645,0,0,0-.034.058l.064.115c-.033.056-.057.109-.09.154s-.067.1-.108.1c-.077.016-.1.066-.124.124a.583.583,0,0,0-.023.058.3.3,0,0,1-.139.181,1.363,1.363,0,0,0-.12.1c-.041.031-.083.06-.13.094a.441.441,0,0,0,.019.179.172.172,0,0,1-.02.12.111.111,0,0,1-.156.054.365.365,0,0,1-.095-.052.248.248,0,0,0-.137-.063.343.343,0,0,1-.1-.04c-.045-.024-.089-.051-.135-.073A1.7,1.7,0,0,1,99.068,86a1.381,1.381,0,0,0-.282-.127.452.452,0,0,1-.188-.133.341.341,0,0,0-.21-.12.253.253,0,0,1-.086-.031c-.061-.045-.112-.109-.2-.088a.042.042,0,0,1-.028-.011l-.493-.289a1.6,1.6,0,0,0-.166-.082,2.023,2.023,0,0,1-.472-.23.461.461,0,0,0-.084-.039c-.033-.016-.075-.023-.1-.049a.593.593,0,0,0-.323-.164c-.089-.025-.154-.1-.251-.114A.307.307,0,0,0,96,84.459a.177.177,0,0,1-.131-.069.206.206,0,0,0-.1-.065.911.911,0,0,1-.251-.111c-.034-.022-.076-.034-.112-.053-.068-.036-.135-.076-.2-.112a1.5,1.5,0,0,0-.139-.069.411.411,0,0,1-.14-.094.245.245,0,0,0-.1-.065c-.117-.038-.237-.067-.354-.107a.437.437,0,0,1-.115-.075.418.418,0,0,0-.161-.086.343.343,0,0,1-.126-.085c-.059-.049-.111-.111-.2-.109-.1-.067-.217-.085-.318-.153a1.948,1.948,0,0,0-.337-.155,1.313,1.313,0,0,1-.232-.121.722.722,0,0,0-.285-.116.4.4,0,0,1-.131-.043c-.145-.088-.287-.182-.432-.27a.361.361,0,0,0-.141-.058.789.789,0,0,1-.258-.1c-.081-.044-.157-.1-.236-.147-.013-.008-.025-.022-.039-.024a4.859,4.859,0,0,1-.448-.2.187.187,0,0,1-.07-.032,1.4,1.4,0,0,0-.343-.177,1.112,1.112,0,0,1-.245-.131.324.324,0,0,0-.083-.042c-.037-.016-.077-.029-.113-.049-.073-.039-.14-.089-.215-.122s-.15-.039-.219-.07A1.8,1.8,0,0,1,89.525,81.224Z"/><path class="cls-2" d="M73.41,70.691a1.594,1.594,0,0,0-.056.258,1.2,1.2,0,0,0,.031.229.394.394,0,0,1,.006.077.508.508,0,0,0,.117.326.247.247,0,0,1,.059.214.366.366,0,0,0,0,.151.574.574,0,0,1,.015.2.379.379,0,0,0,.058.2.3.3,0,0,1,.044.177.385.385,0,0,1-.154.274.377.377,0,0,0-.1.094.537.537,0,0,1-.359.213.982.982,0,0,0-.148.048,1.318,1.318,0,0,1-.161.053.554.554,0,0,0-.28.151c-.018.018-.036.038-.054.055a.131.131,0,0,1-.129.034c-.07-.019-.14-.038-.208-.061a.545.545,0,0,1-.109-.058,1.5,1.5,0,0,1-.137-.1.422.422,0,0,0-.2-.085.525.525,0,0,1-.235-.069c-.053-.041-.106-.083-.161-.121A.682.682,0,0,0,71,72.8a.14.14,0,0,1-.062-.045.761.761,0,0,0-.235-.146c-.191-.091-.375-.2-.568-.282a2.178,2.178,0,0,1-.3-.16c-.225-.145-.477-.243-.689-.411a1.871,1.871,0,0,0-.178-.094,1.124,1.124,0,0,0-.262-.124,1.15,1.15,0,0,1-.245-.129,1.3,1.3,0,0,0-.38-.2.378.378,0,0,1-.1-.047,1.634,1.634,0,0,1-.155-.1c-.14-.107-.31-.166-.44-.287-.015-.014-.031-.034-.048-.037a2.035,2.035,0,0,1-.308-.131,3.635,3.635,0,0,1-.38-.165.059.059,0,0,1-.026-.017,1.221,1.221,0,0,0-.416-.26,1.168,1.168,0,0,0-.47-.146.308.308,0,0,1-.061-.007c-.131-.047-.262-.093-.392-.143-.072-.028-.141-.064-.211-.1s-.175-.07-.2-.175a.052.052,0,0,0-.032-.031,1.5,1.5,0,0,1-.4-.248.157.157,0,0,0-.066-.037.122.122,0,0,1-.107-.075.116.116,0,0,0-.06-.046.89.89,0,0,1-.256-.171.243.243,0,0,0-.124-.059.575.575,0,0,1-.359-.19A.12.12,0,0,0,63.4,68.7a.362.362,0,0,1-.176-.09.709.709,0,0,0-.122-.065c-.037-.019-.09-.028-.107-.058a.316.316,0,0,0-.2-.127c-.086-.03-.156-.1-.252-.106a.07.07,0,0,1-.052-.029c-.038-.093-.149-.109-.2-.192-.005-.008-.014-.019-.023-.02-.116-.018-.209-.11-.338-.095-.082.009-.124-.071-.086-.15a.7.7,0,0,0,.061-.448.313.313,0,0,1,.077-.286.262.262,0,0,0,.073-.151.175.175,0,0,1,.1-.143.828.828,0,0,0,.224-.188.353.353,0,0,0,.036-.057l-.06-.116a1.561,1.561,0,0,1,.094-.15c.031-.039.069-.093.11-.1.077-.013.1-.061.128-.118a.572.572,0,0,0,.024-.057.291.291,0,0,1,.143-.174c.045-.025.082-.062.124-.091s.084-.057.132-.089a.45.45,0,0,0-.014-.178.165.165,0,0,1,.023-.119.112.112,0,0,1,.158-.048.357.357,0,0,1,.092.055.251.251,0,0,0,.136.067.319.319,0,0,1,.1.044c.045.024.088.053.133.077a1.632,1.632,0,0,1,.277.126,1.46,1.46,0,0,0,.278.135.453.453,0,0,1,.184.138.349.349,0,0,0,.206.127.243.243,0,0,1,.085.033c.06.047.109.113.2.094a.053.053,0,0,1,.028.012c.161.1.322.2.484.3a1.587,1.587,0,0,0,.163.087,2.008,2.008,0,0,1,.465.245.43.43,0,0,0,.083.042.274.274,0,0,1,.094.051.6.6,0,0,0,.317.175c.089.027.152.108.248.121a.308.308,0,0,0,.184.071.179.179,0,0,1,.129.073.208.208,0,0,0,.1.068.909.909,0,0,1,.247.119c.034.023.075.036.11.056.067.039.133.08.2.118.045.026.09.052.136.074a.405.405,0,0,1,.138.1.262.262,0,0,0,.1.068c.116.042.236.074.351.118a.476.476,0,0,1,.113.078.417.417,0,0,0,.158.092.342.342,0,0,1,.123.088c.058.051.108.114.2.115.1.069.214.092.313.163a1.975,1.975,0,0,0,.332.165,1.279,1.279,0,0,1,.228.128.733.733,0,0,0,.282.125.394.394,0,0,1,.129.048c.143.092.281.19.423.283a.394.394,0,0,0,.139.062.772.772,0,0,1,.255.109c.08.046.155.1.232.154.012.008.024.022.038.025.163.038.285.162.442.214a.2.2,0,0,1,.068.035,1.437,1.437,0,0,0,.338.188,1.061,1.061,0,0,1,.24.138.34.34,0,0,0,.082.044c.037.018.077.032.112.053.071.041.137.093.21.129s.149.043.217.076A1.662,1.662,0,0,1,73.41,70.691Z"/><path class="cls-3" d="M251.813,76.722a10.709,10.709,0,0,1-1.078,1.738,2.663,2.663,0,0,0-.287.5c-.368.672-.732,1.346-1.1,2.017a2.825,2.825,0,0,1-.341.557,4.729,4.729,0,0,0-.622.961c-.252.454-.5.912-.751,1.366a2.549,2.549,0,0,1-.3.485,4.519,4.519,0,0,0-.583.89c-.266.478-.525.959-.794,1.436a3.241,3.241,0,0,1-.353.55,4.217,4.217,0,0,0-.493.752c-.278.5-.553,1.007-.835,1.507a3.266,3.266,0,0,1-.35.552,4.26,4.26,0,0,0-.5.75c-.264.479-.525.96-.79,1.439a2.687,2.687,0,0,1-.289.494,10.43,10.43,0,0,0-1.081,1.737,6.249,6.249,0,0,1-.75,1.169,2.187,2.187,0,0,0-.257.419c-.214.381-.422.766-.641,1.145a2.792,2.792,0,0,1-.318.475,3.564,3.564,0,0,0-.452.681c-.368.672-.733,1.345-1.105,2.014a3.243,3.243,0,0,1-.35.552,4.2,4.2,0,0,0-.483.759q-.646,1.19-1.293,2.378a2.079,2.079,0,0,1-.3.486,3.838,3.838,0,0,0-.586.886c-.333.6-.661,1.2-.992,1.8a2.96,2.96,0,0,1-.288.5,10.852,10.852,0,0,0-1.072,1.742,6.421,6.421,0,0,1-.833,1.311,1.75,1.75,0,0,0-.215.348q-.252.454-.5.91c-.262-.132-.386-.1-.677.289a11.5,11.5,0,0,0-.716,1.095,10.64,10.64,0,0,1-1.078,1.738,2.72,2.72,0,0,0-.287.5c-.367.672-.731,1.346-1.1,2.017a2.829,2.829,0,0,1-.342.557,4.838,4.838,0,0,0-.622.96c-.251.455-.5.913-.751,1.367a2.5,2.5,0,0,1-.3.485,4.47,4.47,0,0,0-.582.89c-.266.477-.525.959-.794,1.436a3.3,3.3,0,0,1-.353.55,4.223,4.223,0,0,0-.494.752c-.278.5-.553,1.007-.834,1.507a3.248,3.248,0,0,1-.351.552,4.218,4.218,0,0,0-.5.75c-.265.479-.526.96-.79,1.438a2.723,2.723,0,0,1-.29.5,10.45,10.45,0,0,0-1.08,1.737,6.253,6.253,0,0,1-.751,1.169,2.134,2.134,0,0,0-.256.419c-.215.381-.423.766-.641,1.145a2.8,2.8,0,0,1-.319.475,3.612,3.612,0,0,0-.452.681c-.368.672-.732,1.345-1.1,2.014a3.311,3.311,0,0,1-.351.552,4.2,4.2,0,0,0-.482.759q-.646,1.19-1.294,2.378a2.046,2.046,0,0,1-.3.486,3.849,3.849,0,0,0-.586.886c-.333.6-.661,1.2-.992,1.795a2.889,2.889,0,0,1-.287.5,4.789,4.789,0,0,0-.43.606c-.228-.1-.353-.049-.624.315a11.292,11.292,0,0,0-.716,1.094,10.666,10.666,0,0,1-1.078,1.738,2.729,2.729,0,0,0-.287.5c-.368.672-.732,1.346-1.1,2.017a2.833,2.833,0,0,1-.341.558,4.723,4.723,0,0,0-.622.96c-.252.455-.5.912-.751,1.366a2.482,2.482,0,0,1-.3.486,4.478,4.478,0,0,0-.582.889c-.266.478-.525.96-.794,1.436a3.241,3.241,0,0,1-.353.55,4.253,4.253,0,0,0-.493.752c-.278.5-.553,1.007-.835,1.507a3.266,3.266,0,0,1-.35.552,4.267,4.267,0,0,0-.5.751c-.264.478-.525.959-.79,1.438a2.687,2.687,0,0,1-.289.494,10.43,10.43,0,0,0-1.081,1.737,6.256,6.256,0,0,1-.75,1.17,2.149,2.149,0,0,0-.257.418c-.215.381-.422.766-.641,1.146a2.886,2.886,0,0,1-.318.474,3.564,3.564,0,0,0-.452.681c-.368.672-.733,1.345-1.1,2.014a3.248,3.248,0,0,1-.351.552,4.286,4.286,0,0,0-.482.759q-.647,1.19-1.293,2.379a2.093,2.093,0,0,1-.3.485,3.838,3.838,0,0,0-.586.886c-.334.6-.661,1.2-.992,1.8a3.678,3.678,0,0,1-.263.458c-.259-.129-.383-.1-.672.292a11.482,11.482,0,0,0-.716,1.094,10.649,10.649,0,0,1-1.078,1.739,2.72,2.72,0,0,0-.287.5c-.367.671-.731,1.345-1.1,2.016a2.837,2.837,0,0,1-.342.558,4.838,4.838,0,0,0-.622.96c-.251.455-.5.912-.751,1.366a2.478,2.478,0,0,1-.3.486,4.434,4.434,0,0,0-.582.889c-.266.478-.525.96-.794,1.436a3.263,3.263,0,0,1-.353.55,4.259,4.259,0,0,0-.494.752c-.278.5-.553,1.007-.834,1.508a3.311,3.311,0,0,1-.351.552,4.218,4.218,0,0,0-.5.75c-.265.479-.526.959-.79,1.438a2.749,2.749,0,0,1-.29.494,10.532,10.532,0,0,0-1.08,1.737,6.261,6.261,0,0,1-.751,1.17,2.126,2.126,0,0,0-.256.418c-.215.381-.423.766-.641,1.146a2.789,2.789,0,0,1-.319.474,3.587,3.587,0,0,0-.452.682c-.368.671-.733,1.344-1.1,2.014a3.344,3.344,0,0,1-.351.551,4.23,4.23,0,0,0-.482.759c-.432.793-.861,1.587-1.294,2.379a2.087,2.087,0,0,1-.3.486,3.843,3.843,0,0,0-.586.885c-.333.6-.661,1.2-.992,1.795a2.851,2.851,0,0,1-.287.5,10.824,10.824,0,0,0-1.072,1.742,6.469,6.469,0,0,1-.834,1.311,1.729,1.729,0,0,0-.214.348c-.28.5-.561,1-.834,1.508a3.491,3.491,0,0,0-.369.825c.148.018.282.025.412.051a3.374,3.374,0,0,1,.475.121.925.925,0,0,1,.362.179,4.913,4.913,0,0,0,1.239.788c.709.385,1.422.761,2.131,1.145.1.088.208.173.3.269.293.3.666.473.968.754.559.519,1.226.906,1.807,1.4a1.876,1.876,0,0,0,.279.171c.406.233.509.283.862-.19a11.357,11.357,0,0,0,.716-1.094,10.53,10.53,0,0,1,1.078-1.738,2.72,2.72,0,0,0,.287-.5c.367-.672.731-1.346,1.1-2.017a2.782,2.782,0,0,1,.342-.557,4.816,4.816,0,0,0,.622-.961c.251-.454.5-.912.751-1.366a2.5,2.5,0,0,1,.3-.485,4.47,4.47,0,0,0,.582-.89c.266-.478.525-.959.794-1.436a3.3,3.3,0,0,1,.353-.55,4.278,4.278,0,0,0,.494-.752c.278-.5.552-1.007.834-1.507a3.248,3.248,0,0,1,.351-.552,4.254,4.254,0,0,0,.5-.75c.264-.479.526-.96.79-1.438a2.723,2.723,0,0,1,.29-.5,10.491,10.491,0,0,0,1.08-1.737,6.253,6.253,0,0,1,.751-1.169,2.183,2.183,0,0,0,.256-.419c.215-.381.423-.766.641-1.145a2.8,2.8,0,0,1,.319-.475,3.607,3.607,0,0,0,.451-.681c.369-.672.733-1.345,1.105-2.014a3.311,3.311,0,0,1,.351-.552,4.25,4.25,0,0,0,.482-.759q.646-1.19,1.293-2.378a2.079,2.079,0,0,1,.3-.486,3.806,3.806,0,0,0,.586-.886c.334-.6.661-1.2.992-1.8a3.808,3.808,0,0,1,.263-.458c.259.129.383.1.672-.292a11.482,11.482,0,0,0,.716-1.094,10.666,10.666,0,0,1,1.078-1.738,2.789,2.789,0,0,0,.287-.5c.368-.672.731-1.346,1.1-2.017a2.751,2.751,0,0,1,.341-.557,4.772,4.772,0,0,0,.622-.961c.252-.454.5-.912.751-1.366a2.526,2.526,0,0,1,.3-.486,4.483,4.483,0,0,0,.583-.889c.266-.478.525-.959.793-1.436a3.369,3.369,0,0,1,.353-.55,4.2,4.2,0,0,0,.494-.752c.278-.5.553-1.007.835-1.507a3.266,3.266,0,0,1,.35-.552,4.226,4.226,0,0,0,.5-.751c.265-.478.526-.959.791-1.438a2.687,2.687,0,0,1,.289-.494,10.359,10.359,0,0,0,1.08-1.737,6.261,6.261,0,0,1,.751-1.17,2.1,2.1,0,0,0,.256-.418c.215-.381.423-.766.642-1.145a2.792,2.792,0,0,1,.318-.475,3.612,3.612,0,0,0,.452-.681c.368-.672.733-1.345,1.105-2.015a3.274,3.274,0,0,1,.35-.551,4.2,4.2,0,0,0,.482-.759c.432-.793.861-1.587,1.294-2.379a2.093,2.093,0,0,1,.3-.485,3.838,3.838,0,0,0,.586-.886c.333-.6.661-1.2.992-1.795a2.851,2.851,0,0,1,.287-.5,4.789,4.789,0,0,0,.43-.606c.228.1.353.049.625-.315a11.482,11.482,0,0,0,.716-1.094,10.58,10.58,0,0,1,1.078-1.739,2.72,2.72,0,0,0,.287-.5c.367-.672.731-1.345,1.1-2.016a2.79,2.79,0,0,1,.342-.558,4.838,4.838,0,0,0,.622-.96c.251-.455.5-.912.751-1.366a2.478,2.478,0,0,1,.3-.486,4.434,4.434,0,0,0,.582-.889c.266-.478.525-.96.794-1.436a3.313,3.313,0,0,1,.353-.551,4.278,4.278,0,0,0,.494-.752c.278-.5.553-1.006.834-1.507a3.248,3.248,0,0,1,.351-.552,4.218,4.218,0,0,0,.5-.75c.265-.479.526-.959.79-1.438a2.749,2.749,0,0,1,.29-.494,10.532,10.532,0,0,0,1.08-1.737,6.261,6.261,0,0,1,.751-1.17,2.175,2.175,0,0,0,.256-.418c.215-.381.423-.767.641-1.146a2.789,2.789,0,0,1,.319-.474,3.582,3.582,0,0,0,.451-.682c.369-.671.733-1.344,1.105-2.014a3.344,3.344,0,0,1,.351-.551,4.286,4.286,0,0,0,.482-.759q.646-1.19,1.293-2.379a2.121,2.121,0,0,1,.3-.486,3.779,3.779,0,0,0,.586-.885c.334-.6.661-1.2.992-1.8a2.921,2.921,0,0,1,.288-.5,10.824,10.824,0,0,0,1.072-1.742,6.5,6.5,0,0,1,.833-1.312,1.637,1.637,0,0,0,.215-.348c.169-.3.335-.606.5-.909.262.131.385.1.676-.29a11.292,11.292,0,0,0,.716-1.094,10.718,10.718,0,0,1,1.078-1.739,2.72,2.72,0,0,0,.287-.5c.368-.671.732-1.345,1.1-2.016a2.833,2.833,0,0,1,.341-.558,4.75,4.75,0,0,0,.622-.96c.252-.455.5-.912.751-1.366a2.526,2.526,0,0,1,.3-.486,4.483,4.483,0,0,0,.583-.889c.266-.478.525-.96.794-1.436a3.241,3.241,0,0,1,.353-.55,4.253,4.253,0,0,0,.493-.752c.278-.5.553-1.007.835-1.508a3.257,3.257,0,0,1,.35-.551,4.267,4.267,0,0,0,.5-.751c.264-.479.525-.959.79-1.438a2.687,2.687,0,0,1,.289-.494,10.359,10.359,0,0,0,1.08-1.737,6.312,6.312,0,0,1,.751-1.17,2.179,2.179,0,0,0,.257-.418c.214-.381.422-.766.641-1.146a2.824,2.824,0,0,1,.318-.474,3.54,3.54,0,0,0,.452-.682c.368-.671.733-1.344,1.1-2.014a3.274,3.274,0,0,1,.35-.551,4.175,4.175,0,0,0,.482-.759c.432-.793.861-1.587,1.294-2.379a2.121,2.121,0,0,1,.3-.486,3.811,3.811,0,0,0,.586-.885c.333-.6.661-1.2.992-1.8a2.855,2.855,0,0,1,.288-.5,10.9,10.9,0,0,0,1.072-1.742A6.421,6.421,0,0,1,259.948,83a1.779,1.779,0,0,0,.215-.348c.279-.5.56-1,.833-1.508a3.535,3.535,0,0,0,.37-.825c-.148-.018-.282-.025-.412-.051a3.387,3.387,0,0,1-.476-.121.921.921,0,0,1-.361-.179,4.919,4.919,0,0,0-1.24-.788c-.709-.385-1.422-.761-2.13-1.145-.1-.088-.209-.173-.3-.269-.293-.3-.665-.473-.967-.754-.559-.519-1.227-.906-1.808-1.4a1.826,1.826,0,0,0-.279-.171c-.406-.233-.509-.283-.861.19A11.171,11.171,0,0,0,251.813,76.722Z"/><path class="cls-3" d="M165.472,240.635a1.546,1.546,0,0,1,.037-.469.286.286,0,0,0,0-.123,2.249,2.249,0,0,0-.038-.244,1.311,1.311,0,0,0-.089-.309.944.944,0,0,1-.11-.478.578.578,0,0,0-.115-.376l-.174-.014a.711.711,0,0,1-.66-.685.448.448,0,0,0-.035-.217.432.432,0,0,1-.04-.336.208.208,0,0,0-.022-.189.225.225,0,0,1-.045-.113.949.949,0,0,0-.232-.488c-.146-.027-.3-.054-.361-.217a.058.058,0,0,0-.038-.03.459.459,0,0,1-.271-.24.3.3,0,0,0-.088-.088c-.159-.1-.321-.2-.5-.3-.008-.02-.011-.074-.039-.094-.145-.1-.268-.252-.472-.242a.227.227,0,0,1-.195-.089.819.819,0,0,0-.581-.3.681.681,0,0,1-.391-.2.845.845,0,0,0-.483-.219.67.67,0,0,1-.35-.118c-.09-.071-.2-.057-.307-.082a2.818,2.818,0,0,1-.317-.135.362.362,0,0,0-.124-.006h-.174a.42.42,0,0,1-.282-.076.459.459,0,0,0-.258-.078.64.64,0,0,1-.385-.147,1.918,1.918,0,0,0-.379-.279.4.4,0,0,1-.275-.346.121.121,0,0,0-.2-.086.585.585,0,0,1-.52.082.438.438,0,0,0-.221-.01,3.965,3.965,0,0,1-.444.049.669.669,0,0,1-.477-.05c-.068-.04-.166-.03-.235-.07a.706.706,0,0,0-.5-.069.372.372,0,0,1-.145,0,.509.509,0,0,0-.268.025c-.246.073-.494.139-.741.209-.056.015-.11.036-.166.05a2.457,2.457,0,0,1-.434.094,1.551,1.551,0,0,0-.459.1.834.834,0,0,1-.239.053.345.345,0,0,0-.282.131.2.2,0,0,1-.1.061.993.993,0,0,0-.37.137.255.255,0,0,1-.12.022,1.106,1.106,0,0,0-.174.012.679.679,0,0,1-.366,0,.529.529,0,0,0-.435.052.513.513,0,0,1-.328.082h-.228a.411.411,0,0,1-.215.206,1.662,1.662,0,0,0-.2.178c-.071.054-.153.094-.226.146-.025.019-.036.055-.057.081-.113.141-.2.3-.327.433a.955.955,0,0,0-.181.292,1.094,1.094,0,0,1-.372.481l.068.057c0,.04-.018.072-.024.109-.04-.029-.08-.058-.121-.086a.148.148,0,0,0-.06-.027.288.288,0,0,1-.085-.035.126.126,0,0,0-.2.059c-.021.049-.045.1-.066.146a.419.419,0,0,1-.105.144c-.01.009-.023.016-.027.026a1.481,1.481,0,0,0-.058.17.405.405,0,0,1-.077.17.175.175,0,0,0-.046.14.12.12,0,0,1-.011.055.644.644,0,0,1-.154.235.146.146,0,0,0-.051.118.484.484,0,0,1-.007.084.462.462,0,0,0-.018.139.064.064,0,0,1-.037.062c-.013.008-.029.017-.024.036a.065.065,0,0,1-.017.06.67.67,0,0,0-.064.1.826.826,0,0,0-.067.177,1.065,1.065,0,0,1-.084.177c-.008.017-.013.035-.02.053a.139.139,0,0,1-.012.036.83.83,0,0,0-.093.183c-.008.008-.014.018-.022.026a.792.792,0,0,0-.21.456l0,.012a.281.281,0,0,1-.076.149c-.025.028-.045.061-.067.091a.529.529,0,0,1-.08.105c-.061.05-.089.131-.16.171l0,.007a.17.17,0,0,1-.084.129s-.007.01-.01.016c-.03.048-.06.1-.088.145a.4.4,0,0,0-.072.152.313.313,0,0,1-.034.078.264.264,0,0,0-.026.071.5.5,0,0,1-.046.134.375.375,0,0,0-.025.071.181.181,0,0,1-.043.093.405.405,0,0,0-.045.071c.022.06.024.062-.02.1a.163.163,0,0,0-.077.123.225.225,0,0,1-.025.061.587.587,0,0,0-.051.142.251.251,0,0,1-.045.093.335.335,0,0,0-.058.221.3.3,0,0,1-.029.175.406.406,0,0,0-.03.1.285.285,0,0,1-.064.154.241.241,0,0,0-.034.068.112.112,0,0,0-.007.107.217.217,0,0,1-.04.16c-.016.022-.022.051-.037.074s-.039.04-.056.063a.1.1,0,0,0-.01.036.477.477,0,0,1-.015.054.123.123,0,0,0-.012.092.054.054,0,0,1,0,.028.862.862,0,0,1-.1.29.1.1,0,0,0-.011.035c-.007.022-.011.043-.02.064-.021.052-.038.107-.059.158s-.039.113-.06.168a.323.323,0,0,1-.02.042c-.031.051-.065.1-.095.152a.391.391,0,0,0-.027.07c-.013.036-.024.072-.036.107s-.023.059-.033.089-.023.072-.035.107a.4.4,0,0,0-.024.062.927.927,0,0,1-.139.309.322.322,0,0,1-.063.239.556.556,0,0,0-.077.161.346.346,0,0,1-.055.129.057.057,0,0,0-.012.035c.006.09-.06.159-.072.243a.166.166,0,0,0-.042.122.185.185,0,0,1-.065.133.11.11,0,0,0-.031.045,1.068,1.068,0,0,1-.156.322.359.359,0,0,0-.017.034.657.657,0,0,0-.075.252.677.677,0,0,1-.016.068.182.182,0,0,0-.019.043.064.064,0,0,1-.053.049c-.016,0-.033.008-.033.028a.068.068,0,0,1-.035.052.65.65,0,0,0-.092.082.871.871,0,0,0-.115.149.96.96,0,0,1-.132.145c-.012.015-.023.03-.034.046a.111.111,0,0,1-.022.03,1.02,1.02,0,0,0-.151.157c-.033.034-.062.071-.1.1a.375.375,0,0,0-.062.07.4.4,0,0,1-.118.122.234.234,0,0,0-.085.1.279.279,0,0,1-.116.122c-.032.019-.06.045-.09.067a.544.544,0,0,1-.107.077c-.074.03-.123.1-.2.117l-.007.006a.167.167,0,0,1-.118.1.035.035,0,0,0-.014.013l-.127.113a.4.4,0,0,0-.113.125.3.3,0,0,1-.055.064.277.277,0,0,0-.045.06.5.5,0,0,1-.083.116.324.324,0,0,0-.045.06.173.173,0,0,1-.068.076.484.484,0,0,0-.064.056c0,.063,0,.066-.046.085a.164.164,0,0,0-.11.095.2.2,0,0,1-.042.052.6.6,0,0,0-.09.121.249.249,0,0,1-.069.076.328.328,0,0,0-.12.2.3.3,0,0,1-.08.158.493.493,0,0,0-.057.086.286.286,0,0,1-.106.13c-.021.011-.035.036-.052.054a.111.111,0,0,0-.038.1c.006.04-.05.117-.084.142s-.037.042-.058.059-.049.028-.072.044-.013.021-.02.032a.348.348,0,0,1-.03.048.124.124,0,0,0-.038.083.056.056,0,0,1-.01.027.839.839,0,0,1-.184.247.12.12,0,0,0-.021.031.661.661,0,0,1-.037.055c-.036.043-.067.091-.1.134s-.069.1-.106.143a.352.352,0,0,1-.031.035c-.045.039-.091.077-.135.117a.451.451,0,0,0-.047.059l-.065.093c-.019.025-.039.049-.058.075s-.043.062-.065.092a.409.409,0,0,0-.04.053.922.922,0,0,1-.223.255.317.317,0,0,1-.13.21.565.565,0,0,0-.121.132.332.332,0,0,1-.09.107.058.058,0,0,0-.021.031c-.021.087-.1.134-.14.211a.162.162,0,0,0-.075.1.181.181,0,0,1-.1.107.121.121,0,0,0-.043.035,1.082,1.082,0,0,1-.242.263.172.172,0,0,0-.027.027.656.656,0,0,0-.137.207.256.256,0,0,0-.077.019.284.284,0,0,1-.165.032.856.856,0,0,0-.113,0,.575.575,0,0,1-.131,0c-.078-.019-.158.008-.233-.023h-.009a.171.171,0,0,1-.154.012s-.012,0-.018,0c-.057.006-.113.011-.169.019a.4.4,0,0,0-.165.035.3.3,0,0,1-.082.021.287.287,0,0,0-.072.022.5.5,0,0,1-.134.046.356.356,0,0,0-.072.023.173.173,0,0,1-.1.022.6.6,0,0,0-.084.009c-.033.053-.034.056-.087.042a.165.165,0,0,0-.145.014.207.207,0,0,1-.064.017.615.615,0,0,0-.143.047.244.244,0,0,1-.1.021.336.336,0,0,0-.211.089.3.3,0,0,1-.157.083.433.433,0,0,0-.1.037.294.294,0,0,1-.161.044.224.224,0,0,0-.075.013.113.113,0,0,0-.089.061.218.218,0,0,1-.151.066c-.027,0-.054.013-.081.014s-.056,0-.084,0a.1.1,0,0,0-.035.014.338.338,0,0,1-.052.022.125.125,0,0,0-.08.045.045.045,0,0,1-.024.016.841.841,0,0,1-.293.095c-.012,0-.023.008-.035.012s-.041.018-.062.024c-.055.014-.108.035-.162.049s-.112.038-.169.055a.341.341,0,0,1-.046.01c-.059.006-.119.01-.178.017a.351.351,0,0,0-.072.021l-.107.037-.091.028-.106.038c-.021.007-.044.009-.064.018a.912.912,0,0,1-.329.079.322.322,0,0,1-.228.095.56.56,0,0,0-.175.038.338.338,0,0,1-.136.035.052.052,0,0,0-.034.012c-.068.06-.163.049-.237.09a.169.169,0,0,0-.122.042.183.183,0,0,1-.145.03.1.1,0,0,0-.055,0,1.1,1.1,0,0,1-.35.073.238.238,0,0,0-.037.006.66.66,0,0,0-.246.095.528.528,0,0,1-.332.091.36.36,0,0,0-.1.01c-.034.006-.068.014-.1.023a.127.127,0,0,1-.1-.008.1.1,0,0,0-.082-.007c-.031.008-.061.018-.091.027-.012,0-.026.009-.036,0-.058-.021-.117.008-.174-.008,0,.038,0,.07-.006.1a.734.734,0,0,0,0,.132.23.23,0,0,0,.061.165.1.1,0,0,1,.025.088.546.546,0,0,0,.059.272.21.21,0,0,1,.008.046,1.13,1.13,0,0,0,.077.3.248.248,0,0,1,.022.1.509.509,0,0,0,.049.21.3.3,0,0,1,.048.17.125.125,0,0,0,.009.046c.02.08.043.158.069.236a1.645,1.645,0,0,1,.078.356c.051.015.066.06.071.109a.233.233,0,0,0,.019.11.055.055,0,0,1,0,.045.322.322,0,0,0-.012.168.447.447,0,0,0,.037.106c.013.036,0,.074.015.111.038.079.035.08-.032.144l-.006.024.078.077a.307.307,0,0,0,.138-.017.7.7,0,0,1,.153-.028l0,.03a1.616,1.616,0,0,1-.046.361.11.11,0,0,1,.03.127.256.256,0,0,0-.019.11.053.053,0,0,1-.019.042.318.318,0,0,0-.067.154.42.42,0,0,0,0,.112c0,.038-.029.069-.024.11.009.087.006.087-.078.125,0,0-.007.009-.014.02l.048.1a.3.3,0,0,0,.135.03.776.776,0,0,1,.158.025.5.5,0,0,0,.259.025c.006,0,.012,0,.02,0,.024.017.034.05.071.057s.078.023.118.029a.556.556,0,0,0,.122.008,1.135,1.135,0,0,1,.218,0,.1.1,0,0,0,.046,0,.16.16,0,0,1,.137,0,.132.132,0,0,0,.056,0,1.486,1.486,0,0,1,.283,0c.141.018.281.042.423.05.072,0,.144.018.216.024.047,0,.095,0,.142,0a.406.406,0,0,1,.2.036.231.231,0,0,0,.154.03.363.363,0,0,1,.057,0c.072,0,.145,0,.217,0a.272.272,0,0,1,.11.015.482.482,0,0,0,.166.028.8.8,0,0,1,.253.031c.1.029.2.034.293.064a.148.148,0,0,0,.047,0,1.1,1.1,0,0,1,.113-.01c.044,0,.087.009.131.014a.208.208,0,0,0,.171.029c.057,0,.113-.01.17-.011a.408.408,0,0,1,.083.013.4.4,0,0,0,.083.015.882.882,0,0,1,.371.044.155.155,0,0,0,.112,0,.179.179,0,0,1,.138,0,.281.281,0,0,0,.149.018.457.457,0,0,1,.187.019.34.34,0,0,0,.064.008l.055.008a.514.514,0,0,0,.055.006c.029,0,.057,0,.085,0,.274.031.547.062.82.095.053.007.1.029.156.035s.108,0,.161,0a.764.764,0,0,1,.232.04.041.041,0,0,0,.019,0,.984.984,0,0,0,.188,0c.1-.018.186.03.28.023a.249.249,0,0,0,.176.012.328.328,0,0,1,.139.012c.062.016.124.05.191.021a.031.031,0,0,1,.019,0c.061.031.141,0,.194.064.007.007.024.006.036.01a.123.123,0,0,0,.116-.033c.054,0,.095,0,.135.007a.75.75,0,0,1,.186.033.186.186,0,0,0,.155.016.052.052,0,0,1,.036,0,.247.247,0,0,0,.14.007.291.291,0,0,1,.186.015.336.336,0,0,0,.074.013c.04.008.08.016.119.027a.282.282,0,0,0,.122.01.227.227,0,0,1,.112.011,1.16,1.16,0,0,0,.337.044,1.375,1.375,0,0,1,.345.027.309.309,0,0,1,.046.012.161.161,0,0,0,.12.01.442.442,0,0,1,.234.008l.036,0,.045.043a.291.291,0,0,0,.137-.019l.013,0h0c.091.009.182.023.272.035l.049.006a.683.683,0,0,0,.011-.11.194.194,0,0,0,.064-.025s.012,0,.02,0c.028.008.049.036.086.03s.081-.006.121-.014a.612.612,0,0,0,.118-.034,1.1,1.1,0,0,1,.2-.079.092.092,0,0,0,.043-.018.164.164,0,0,1,.13-.044.148.148,0,0,0,.053-.019,1.384,1.384,0,0,1,.266-.1c.138-.031.277-.057.413-.1.07-.021.142-.033.212-.052.045-.013.089-.032.134-.046a.416.416,0,0,1,.2-.037.228.228,0,0,0,.156-.025.338.338,0,0,1,.052-.022c.068-.026.137-.047.2-.077a.3.3,0,0,1,.109-.024.476.476,0,0,0,.165-.03.817.817,0,0,1,.248-.059c.1-.006.2-.035.3-.04a.146.146,0,0,0,.044-.016c.034-.016.067-.036.1-.049s.085-.021.128-.032c.063.026.116-.007.171-.031s.1-.049.155-.069a.451.451,0,0,1,.083-.016.371.371,0,0,0,.082-.015.9.9,0,0,1,.364-.087.154.154,0,0,0,.1-.038.18.18,0,0,1,.131-.044.274.274,0,0,0,.146-.034.447.447,0,0,1,.182-.047.338.338,0,0,0,.063-.014c.019,0,.037-.007.055-.012a.536.536,0,0,0,.054-.014.758.758,0,0,1,.08-.028c.267-.065.534-.131.8-.193.052-.013.107-.009.159-.022s.1-.04.151-.053a.7.7,0,0,1,.232-.042.063.063,0,0,0,.019,0,1.029,1.029,0,0,0,.176-.066c.085-.05.185-.036.271-.075a.248.248,0,0,0,.169-.049.317.317,0,0,1,.135-.037.284.284,0,0,0,.187-.046.023.023,0,0,1,.018,0c.068.008.134-.044.2-.008.009,0,.024,0,.037,0a.127.127,0,0,0,.1-.071c.051-.016.09-.03.128-.04a.726.726,0,0,1,.186-.033.191.191,0,0,0,.152-.038.045.045,0,0,1,.035-.009.247.247,0,0,0,.134-.042.3.3,0,0,1,.179-.05.281.281,0,0,0,.074-.013c.041-.006.081-.013.122-.016a.254.254,0,0,0,.117-.033.229.229,0,0,1,.109-.027,1.213,1.213,0,0,0,.332-.075,1.384,1.384,0,0,1,.334-.094.357.357,0,0,1,.047,0,.158.158,0,0,0,.115-.033.457.457,0,0,1,.223-.073,1.909,1.909,0,0,0,.226-.055c.089-.022.178-.04.268-.06l.047-.012a.683.683,0,0,0-.058-.23.54.54,0,0,1-.037-.116l.095-.059a.513.513,0,0,0,.211-.152s.01-.007.017-.011c.029,0,.059.016.091,0s.074-.035.108-.056a.6.6,0,0,0,.1-.075,1.117,1.117,0,0,1,.161-.146.1.1,0,0,0,.033-.033.165.165,0,0,1,.105-.088c.017,0,.029-.023.043-.037a1.4,1.4,0,0,1,.214-.185c.117-.079.238-.154.35-.241.057-.045.12-.082.178-.125.038-.028.072-.062.108-.092a.417.417,0,0,1,.176-.107.226.226,0,0,0,.136-.079.387.387,0,0,1,.041-.04c.054-.048.111-.093.161-.145a.3.3,0,0,1,.093-.061.485.485,0,0,0,.143-.088.8.8,0,0,1,.211-.144c.091-.042.171-.1.263-.145a.169.169,0,0,0,.035-.031.867.867,0,0,1,.078-.082,1.3,1.3,0,0,1,.107-.076c.069,0,.106-.049.148-.091s.078-.082.12-.121a.582.582,0,0,1,.072-.045.336.336,0,0,0,.071-.043.9.9,0,0,1,.309-.212.154.154,0,0,0,.084-.073.177.177,0,0,1,.106-.089.286.286,0,0,0,.124-.084.45.45,0,0,1,.153-.11.461.461,0,0,0,.054-.036l.046-.03a.522.522,0,0,0,.045-.033c.022-.018.041-.039.065-.055.225-.157.451-.315.678-.47.044-.03.1-.046.141-.077s.078-.073.122-.1a.715.715,0,0,1,.2-.123.054.054,0,0,0,.016-.01.992.992,0,0,0,.141-.125c.061-.077.159-.1.226-.167a.254.254,0,0,0,.14-.107.307.307,0,0,1,.112-.083c.057-.028.126-.044.158-.11a.028.028,0,0,1,.014-.012c.067-.017.11-.089.188-.08.011,0,.022-.011.034-.016a.128.128,0,0,0,.066-.1c.042-.033.072-.06.1-.083a.753.753,0,0,1,.161-.1c.049-.019.1-.033.128-.09a.045.045,0,0,1,.03-.021.253.253,0,0,0,.11-.087.289.289,0,0,1,.149-.112.289.289,0,0,0,.064-.039c.036-.02.071-.04.108-.058a.279.279,0,0,0,.1-.073.231.231,0,0,1,.092-.065,1.174,1.174,0,0,0,.282-.19,1.41,1.41,0,0,1,.278-.208.23.23,0,0,1,.042-.02.163.163,0,0,0,.1-.072.454.454,0,0,1,.182-.149,1.956,1.956,0,0,0,.19-.133c.075-.053.152-.1.229-.153l.04-.027a.7.7,0,0,0-.122-.173,1.589,1.589,0,0,0,.32-.29.76.76,0,0,1,.076-.062c.205-.18.362-.406.577-.576a1.619,1.619,0,0,0,.2-.223.8.8,0,0,0,.1-.114,1.5,1.5,0,0,1,.352-.442.231.231,0,0,0,.059-.079c.055-.111.1-.226.161-.335a2.432,2.432,0,0,1,.242-.4.6.6,0,0,0,.142-.256,2.289,2.289,0,0,1,.494-.957.491.491,0,0,0,.122-.339,1.186,1.186,0,0,1,.1-.455,1.121,1.121,0,0,0,.09-.384,2.966,2.966,0,0,1,.146-.675v-3.49A.469.469,0,0,1,165.472,240.635Z"/><path class="cls-2" d="M162.15,233.3a.121.121,0,0,1,.113.059c.091.162.257.194.408.259a4.361,4.361,0,0,1,.667.431.738.738,0,0,0,.107.067c.031.014.08,0,.1.026.2.213.5.256.728.424s.465.288.7.431a.272.272,0,0,1,.064.042c.023.026.054.041.079.066.108-.1.216-.2.323-.312.455-.451.911-.874,1.365-1.326.338-.336.677-.662,1.015-.995.187-.184.375-.4.559-.554.237-.2.466-.455.7-.692.267-.273.534-.555.8-.821.385-.382.769-.76,1.152-1.168.069-.074.14-.14.21-.21l.768-.77c.163-.164.33-.315.488-.5.288-.335.581-.6.87-.9s.559-.558.837-.845.557-.59.835-.886.556-.593.837-.868c.209-.205.417-.44.625-.663.031-.033.063-.116.051-.13a1.421,1.421,0,0,0-.284-.321c-.349-.212-.692-.433-1.035-.653a.443.443,0,0,1-.18-.147.6.6,0,0,0-.24-.223c-.372-.233-.745-.464-1.116-.7a.5.5,0,0,1-.2-.158.66.66,0,0,0-.259-.235l-2.858-1.747.011-.019-2.989-1.8a.256.256,0,0,0-.149-.065.592.592,0,0,1-.351-.129c-.147-.084-.291-.174-.439-.257a.739.739,0,0,0-.414-.158c-.06,0-.1-.041-.147-.068-.213-.123-.425-.249-.639-.371a.922.922,0,0,0-.129-.054c-.018-.006-.08.053-.092.089-.022.063-.045.127-.063.187l-.317,1.108c-.43,1.493-.844,2.978-1.294,4.481-.186.62-.357,1.233-.55,1.856-.218.7-.423,1.4-.595,2.074-.129.511-.265,1.027-.389,1.535s-.253,1.045-.38,1.568c-.037.15-.076.3-.112.45-.127.522-.24,1.038-.382,1.569-.109.41-.208.814-.308,1.219.34.2.68.4,1.02.6A.876.876,0,0,0,162.15,233.3Z"/><path class="cls-3" d="M199.177,44.261a.51.51,0,0,1-.4-.326.191.191,0,0,0-.187-.146c-.139,0-.2-.092-.213-.2a4.193,4.193,0,0,1-.522-.137c-.135-.054-.285-.1-.323-.29-.02-.1-.1-.134-.178-.162A2.811,2.811,0,0,0,197,42.9a.32.32,0,0,1-.227-.168c-.046-.083-.095-.16-.2-.164-.053,0-.092-.045-.137-.07a2.226,2.226,0,0,1-.637-.508c-.035-.041-.068-.079-.131-.072a1.091,1.091,0,0,1-.449-.082.332.332,0,0,1-.26-.314.994.994,0,0,0-.25.018.292.292,0,0,1-.284-.062.845.845,0,0,1-.145-.136c-.113-.13-.22-.268-.335-.4a.241.241,0,0,0-.132-.077.439.439,0,0,1-.187-.1c-.16-.115-.369-.095-.567.232-.1.17-.213.335-.316.505a2.384,2.384,0,0,1-.413.5.509.509,0,0,0-.094.091c-.108.192-.222.383-.314.58a2.415,2.415,0,0,1-.368.585,1,1,0,0,0-.254.477.67.67,0,0,1-.082.186,3.712,3.712,0,0,1-.628.818.818.818,0,0,0-.247.4,2.665,2.665,0,0,1-.1.283,2.563,2.563,0,0,0-.181.472.344.344,0,0,1-.156.213c-.043.031-.092.064-.1.127a.374.374,0,0,1-.1.2,3.959,3.959,0,0,0-.269.363,5.053,5.053,0,0,0-.345.6,5.67,5.67,0,0,1-.39.611c-.036.059-.069.121-.1.182a.774.774,0,0,1-.067.121,6,6,0,0,0-.445.667c-.1.146-.186.3-.288.439a2.228,2.228,0,0,0-.183.291,2.359,2.359,0,0,1-.347.52,1.333,1.333,0,0,0-.252.412,1.644,1.644,0,0,1-.343.517c-.092.1-.175.21-.263.316a2.979,2.979,0,0,1-.309.366c-.209.179-.358.454-.581.6a.064.064,0,0,0-.023.026.923.923,0,0,1-.343.446.272.272,0,0,0-.041.055c-.124.168-.248.335-.37.5a2.3,2.3,0,0,0-.335.522,1.865,1.865,0,0,1-.163.268,1.636,1.636,0,0,0-.137.242,2.979,2.979,0,0,1-.248.458,1.892,1.892,0,0,0-.136.243,1.03,1.03,0,0,1-.2.318,3.082,3.082,0,0,0-.186.248c0,.2,0,.2-.143.325a.914.914,0,0,0-.322.426,1.107,1.107,0,0,1-.123.209,3.29,3.29,0,0,0-.27.486,1.533,1.533,0,0,1-.206.319,1.856,1.856,0,0,0-.366.754,1.646,1.646,0,0,1-.247.591,2.56,2.56,0,0,0-.173.338,1.662,1.662,0,0,1-.316.53,1.427,1.427,0,0,0-.154.231.565.565,0,0,0-.122.363,1.22,1.22,0,0,1-.258.544c-.064.075-.108.174-.17.252s-.141.144-.207.222a.611.611,0,0,0-.06.123c-.03.062-.056.127-.091.186a.672.672,0,0,0-.122.309.244.244,0,0,1-.032.094,4.784,4.784,0,0,1-.551.992.576.576,0,0,0-.064.121c-.037.072-.07.146-.111.216-.107.179-.2.367-.309.543s-.209.384-.319.573a1.474,1.474,0,0,1-.092.145c-.13.176-.266.348-.394.526a2.279,2.279,0,0,0-.14.24c-.067.122-.13.245-.2.366-.056.1-.116.2-.172.3-.066.121-.129.245-.195.366-.039.072-.09.139-.123.212a5.385,5.385,0,0,1-.659,1.061,1.807,1.807,0,0,1-.4.813,3.264,3.264,0,0,0-.357.555,1.922,1.922,0,0,1-.269.442.313.313,0,0,0-.062.12,6.591,6.591,0,0,1-.425.827.955.955,0,0,0-.227.418,1.039,1.039,0,0,1-.3.455.615.615,0,0,0-.126.159,6.309,6.309,0,0,1-.718,1.108c-.029.034-.051.078-.078.116-.037.054-.053.115-.087.17a.494.494,0,0,0-.34.274c-.1.17-.213.335-.316.5a2.384,2.384,0,0,1-.413.5.451.451,0,0,0-.093.092c-.109.191-.223.382-.315.579a2.412,2.412,0,0,1-.367.585,1,1,0,0,0-.255.477.616.616,0,0,1-.082.186,3.652,3.652,0,0,1-.628.818.821.821,0,0,0-.246.4c-.024.093-.067.189-.1.284a2.554,2.554,0,0,0-.181.471.357.357,0,0,1-.157.214.178.178,0,0,0-.1.126.379.379,0,0,1-.1.205,4.142,4.142,0,0,0-.268.363,5.133,5.133,0,0,0-.346.6,5.506,5.506,0,0,1-.39.61c-.036.059-.068.121-.1.182a.663.663,0,0,1-.066.121,5.817,5.817,0,0,0-.445.667c-.1.146-.186.3-.288.439a2.377,2.377,0,0,0-.184.291,2.349,2.349,0,0,1-.346.521,1.308,1.308,0,0,0-.253.411,1.609,1.609,0,0,1-.342.516c-.093.1-.176.211-.263.317a3.069,3.069,0,0,1-.309.366c-.209.179-.359.454-.582.6a.068.068,0,0,0-.022.026.925.925,0,0,1-.344.446.29.29,0,0,0-.041.056c-.123.167-.248.334-.369.5a2.273,2.273,0,0,0-.336.522,1.779,1.779,0,0,1-.163.268,1.636,1.636,0,0,0-.137.242,2.776,2.776,0,0,1-.248.458,2.02,2.02,0,0,0-.136.243,1.063,1.063,0,0,1-.2.319,2.429,2.429,0,0,0-.186.248c0,.2,0,.2-.144.323a.922.922,0,0,0-.321.426,1.09,1.09,0,0,1-.124.21,3.284,3.284,0,0,0-.269.486,1.512,1.512,0,0,1-.207.319,1.872,1.872,0,0,0-.366.755,1.643,1.643,0,0,1-.247.591,2.482,2.482,0,0,0-.172.337,1.681,1.681,0,0,1-.316.53,1.431,1.431,0,0,0-.155.231.556.556,0,0,0-.121.363,1.222,1.222,0,0,1-.259.544c-.063.075-.107.174-.169.252s-.141.144-.208.222a.609.609,0,0,0-.059.123c-.03.062-.056.127-.092.186a.674.674,0,0,0-.121.309.262.262,0,0,1-.032.094,4.83,4.83,0,0,1-.551.992.556.556,0,0,0-.064.121c-.037.072-.07.146-.112.216-.107.179-.2.367-.308.543s-.209.384-.319.572a1.561,1.561,0,0,1-.092.146c-.131.176-.266.348-.4.526a2.272,2.272,0,0,0-.139.24c-.067.122-.131.245-.2.366-.056.1-.116.2-.171.3-.067.121-.129.245-.2.366-.039.072-.09.139-.122.212a5.39,5.39,0,0,1-.66,1.061,1.792,1.792,0,0,1-.4.813,3.259,3.259,0,0,0-.356.555,1.986,1.986,0,0,1-.269.443.3.3,0,0,0-.063.119,6.46,6.46,0,0,1-.425.827.953.953,0,0,0-.226.418,1.041,1.041,0,0,1-.3.455.646.646,0,0,0-.125.158,6.337,6.337,0,0,1-.718,1.109c-.029.034-.051.078-.078.116a3.887,3.887,0,0,0-.441.86,3.009,3.009,0,0,1-.646,1.092,2.34,2.34,0,0,0-.228.3c-.072.106-.139.216-.206.326a.7.7,0,0,1-.25.266.524.524,0,0,0-.205.214c-.059.1-.115.2-.175.3a.374.374,0,0,1-.076.11c-.169.121-.263.337-.422.468.051.079.091.144.134.207a1.213,1.213,0,0,0,.185.263c.1.089.2.2.386.144.09-.028.145.036.19.1a.824.824,0,0,0,.539.356c.035.007.058.042.086.065a1.661,1.661,0,0,0,.628.36.378.378,0,0,1,.2.132.734.734,0,0,0,.426.264c.138.031.288.049.363.195.017.033.058.043.09.061a4.137,4.137,0,0,0,.51.259,2.417,2.417,0,0,1,.708.463.218.218,0,0,1,.327.013c.064.061.107.147.208.158.031,0,.055.054.058.1.013.183.133.253.22.352.056.065.162.066.243.1s.1.151.2.173c.2.045.2.055.138.361,0,.017.009.031.02.063l.3-.068a1.735,1.735,0,0,0,.3-.415,4.714,4.714,0,0,1,.328-.491,2.947,2.947,0,0,0,.5-.819.319.319,0,0,1,.043-.062c.077-.06.169-.066.245-.177s.186-.236.27-.361a3.7,3.7,0,0,0,.228-.389,6.159,6.159,0,0,1,.365-.708.535.535,0,0,0,.075-.154.921.921,0,0,1,.244-.442.748.748,0,0,0,.1-.182,8.36,8.36,0,0,1,.492-.917c.282-.44.575-.873.837-1.327.135-.231.288-.453.426-.683.09-.149.165-.3.25-.456a2.358,2.358,0,0,1,.428-.628,1.308,1.308,0,0,0,.332-.476c.027-.063.059-.125.091-.186.124-.236.258-.468.37-.707a1.635,1.635,0,0,1,.224-.345,2.856,2.856,0,0,0,.347-.512,4.752,4.752,0,0,1,.5-.8c.23-.289.417-.61.647-.9a.733.733,0,0,0,.081-.152c.059-.125.107-.254.173-.375.077-.141.17-.275.256-.413a1.2,1.2,0,0,0,.359-.529c.091-.187.172-.376.268-.561a2.484,2.484,0,0,1,.173-.259,2.1,2.1,0,0,0,.174-.256,5.273,5.273,0,0,1,.737-1.167.887.887,0,0,0,.194-.362,1,1,0,0,1,.247-.446,1.624,1.624,0,0,0,.3-.467,2.658,2.658,0,0,1,.364-.59c.048-.061.086-.134.129-.2s.075-.114.112-.172.074-.115.107-.175c.051-.091.093-.187.148-.275q.808-1.29,1.623-2.579c.1-.165.241-.311.345-.477s.177-.351.281-.518a4.2,4.2,0,0,1,.489-.719.25.25,0,0,0,.039-.057,5.819,5.819,0,0,0,.323-.613c.13-.33.387-.578.534-.89a1.406,1.406,0,0,0,.33-.559,1.846,1.846,0,0,1,.265-.442,1.6,1.6,0,0,0,.378-.6.138.138,0,0,1,.033-.059c.174-.172.255-.454.474-.575.029-.016.055-.073.084-.108a.6.6,0,0,0,.129-.406c.1-.173.17-.3.248-.43a4.281,4.281,0,0,1,.391-.575,1.076,1.076,0,0,0,.3-.49.293.293,0,0,1,.071-.114,1.426,1.426,0,0,0,.257-.448,1.691,1.691,0,0,1,.352-.59,1.748,1.748,0,0,0,.157-.23c.087-.122.174-.245.265-.364a1.55,1.55,0,0,0,.231-.386,1.326,1.326,0,0,1,.218-.352,6.97,6.97,0,0,0,.678-1.056,8.128,8.128,0,0,1,.655-1.1,1.648,1.648,0,0,1,.1-.137.928.928,0,0,0,.228-.381,1.643,1.643,0,0,1,.155-.277.328.328,0,0,0,.126-.111c.085-.124.186-.235.269-.359a3.814,3.814,0,0,0,.228-.39,6.5,6.5,0,0,1,.365-.708.525.525,0,0,0,.076-.154c.01-.04.044-.068.058-.105.05-.077.1-.153.147-.23.03-.046.059-.092.1-.152-.007-.007-.018-.008-.025-.015.022-.04.045-.08.065-.122a8.461,8.461,0,0,1,.493-.917c.281-.44.574-.874.837-1.326.134-.232.288-.454.426-.684.089-.149.164-.306.25-.457a2.346,2.346,0,0,1,.428-.627,1.308,1.308,0,0,0,.332-.476c.026-.063.058-.125.09-.186.124-.236.258-.468.371-.707a1.622,1.622,0,0,1,.224-.345,2.91,2.91,0,0,0,.347-.512,4.747,4.747,0,0,1,.5-.8c.231-.288.417-.61.647-.9a.692.692,0,0,0,.082-.152c.058-.125.106-.254.173-.375.077-.141.169-.276.255-.413a1.19,1.19,0,0,0,.36-.529c.09-.187.172-.376.267-.561a2.484,2.484,0,0,1,.173-.259,2.056,2.056,0,0,0,.174-.255,5.238,5.238,0,0,1,.738-1.168.873.873,0,0,0,.193-.362,1.008,1.008,0,0,1,.247-.445,1.625,1.625,0,0,0,.3-.468,2.617,2.617,0,0,1,.363-.59c.049-.062.086-.134.129-.2s.076-.114.113-.172.074-.116.107-.175c.051-.091.093-.187.148-.275q.809-1.29,1.622-2.579c.1-.165.241-.311.346-.477s.177-.351.281-.518a4.211,4.211,0,0,1,.488-.719.254.254,0,0,0,.04-.057,5.919,5.919,0,0,0,.323-.613c.129-.331.386-.578.534-.89a1.412,1.412,0,0,0,.329-.56,1.9,1.9,0,0,1,.266-.441,1.6,1.6,0,0,0,.377-.6.131.131,0,0,1,.034-.059c.174-.172.254-.454.473-.575.029-.017.055-.073.084-.108a.6.6,0,0,0,.13-.406c.1-.173.169-.3.247-.43a4.136,4.136,0,0,1,.392-.575,1.076,1.076,0,0,0,.3-.49.291.291,0,0,1,.071-.115,1.429,1.429,0,0,0,.257-.447,1.691,1.691,0,0,1,.352-.59,1.813,1.813,0,0,0,.156-.23c.088-.123.174-.245.266-.364a1.581,1.581,0,0,0,.231-.386,1.3,1.3,0,0,1,.218-.352,7.048,7.048,0,0,0,.678-1.056,8.122,8.122,0,0,1,.654-1.1,1.464,1.464,0,0,1,.106-.137.926.926,0,0,0,.227-.381,2.63,2.63,0,0,1,.422-.754c.172-.234.3-.485.455-.728.179-.286.365-.568.548-.852.03-.046.058-.093.095-.152A1.044,1.044,0,0,0,199.177,44.261Z"/><path class="cls-3" d="M190.709,69.494a3.9,3.9,0,0,1,.272-.36,1.438,1.438,0,0,0,.293-.462,2.54,2.54,0,0,1,.2-.35,3.885,3.885,0,0,0,.355-.663,2.314,2.314,0,0,1,.2-.349,2.471,2.471,0,0,0,.236-.388,3.143,3.143,0,0,1,.487-.756c.177-.246.36-.488.54-.731a.373.373,0,0,1,.061-.08,1.32,1.32,0,0,0,.5-.649.1.1,0,0,1,.033-.037c.335-.218.55-.616.861-.878a4.28,4.28,0,0,0,.456-.532c.129-.154.25-.32.387-.461a2.274,2.274,0,0,0,.5-.748,1.822,1.822,0,0,1,.366-.6,3.3,3.3,0,0,0,.5-.754,3.252,3.252,0,0,1,.266-.422c.15-.2.278-.424.419-.635a8.281,8.281,0,0,1,.647-.968.965.965,0,0,0,.1-.174c.048-.088.095-.177.147-.263a7.959,7.959,0,0,0,.566-.884,6.88,6.88,0,0,1,.5-.873,5.534,5.534,0,0,1,.392-.527.508.508,0,0,0,.15-.3c0-.089.077-.138.142-.184a.488.488,0,0,0,.228-.309,3.418,3.418,0,0,1,.252-.679c.048-.136.108-.274.14-.407a1.127,1.127,0,0,1,.356-.582,5.151,5.151,0,0,0,.921-1.189.857.857,0,0,0,.116-.267,1.356,1.356,0,0,1,.365-.689,3.382,3.382,0,0,0,.533-.848c.13-.283.3-.56.451-.837a.706.706,0,0,1,.139-.133,3.364,3.364,0,0,0,.608-.73c.149-.245.309-.485.458-.731.287-.473.606-.51.86-.35a.709.709,0,0,0,.294.143.377.377,0,0,1,.208.1c.184.178.357.37.539.552a1.344,1.344,0,0,0,.231.189.478.478,0,0,0,.441.077,1.625,1.625,0,0,1,.384-.034.5.5,0,0,0,.418.439,1.828,1.828,0,0,0,.7.1.237.237,0,0,1,.207.1,3.472,3.472,0,0,0,1.009.7c.071.033.133.094.215.095a.379.379,0,0,1,.319.226.5.5,0,0,0,.358.231,4.3,4.3,0,0,1,.541.123c.119.036.246.079.283.223.07.276.3.331.514.4a6.916,6.916,0,0,0,.812.175.312.312,0,0,0,.34.285.3.3,0,0,1,.295.2.8.8,0,0,0,.642.45,1.683,1.683,0,0,1,.742.4c-.053.085-.095.153-.138.219-.266.412-.537.82-.8,1.234-.22.351-.409.715-.66,1.053a3.608,3.608,0,0,0-.607,1.09,1.286,1.286,0,0,1-.328.552,2.193,2.193,0,0,0-.156.2,11.247,11.247,0,0,0-.945,1.59,9.69,9.69,0,0,1-.985,1.53,1.829,1.829,0,0,0-.315.509,2.158,2.158,0,0,1-.334.559c-.134.172-.261.351-.388.529a2.6,2.6,0,0,1-.229.333,2.325,2.325,0,0,0-.508.853,1.962,1.962,0,0,1-.37.647.414.414,0,0,0-.1.166,1.48,1.48,0,0,1-.44.709,5.859,5.859,0,0,0-.57.834c-.113.183-.214.372-.357.621a.808.808,0,0,1-.176.584c-.043.051-.08.132-.124.156-.33.181-.438.586-.7.837a.2.2,0,0,0-.049.086,2.216,2.216,0,0,1-.547.871,2.6,2.6,0,0,0-.384.639,1.935,1.935,0,0,1-.475.809c-.21.451-.591.812-.772,1.288a8.148,8.148,0,0,1-.463.885.4.4,0,0,1-.057.083,5.809,5.809,0,0,0-.712,1.043c-.151.241-.253.508-.4.748s-.353.453-.5.692q-1.183,1.863-2.352,3.734c-.08.128-.14.266-.213.4-.047.086-.1.17-.155.253s-.109.166-.163.249a3.355,3.355,0,0,1-.187.291,3.7,3.7,0,0,0-.527.855,2.265,2.265,0,0,1-.429.677,1.373,1.373,0,0,0-.356.643,1.2,1.2,0,0,1-.277.523,7.282,7.282,0,0,0-1.07,1.691,2.981,2.981,0,0,1-.254.371,3.614,3.614,0,0,0-.252.375c-.136.266-.25.539-.38.808a1.665,1.665,0,0,1-.523.768c-.125.2-.259.393-.37.6-.1.175-.163.361-.245.541a1.073,1.073,0,0,1-.117.22c-.339.415-.607.88-.946,1.3a6.622,6.622,0,0,0-.729,1.152,3.991,3.991,0,0,1-.506.742,2.316,2.316,0,0,0-.324.5c-.16.344-.353.681-.531,1.021-.046.088-.092.178-.129.268a1.833,1.833,0,0,1-.484.691,3.269,3.269,0,0,0-.624.909c-.123.219-.23.445-.359.66-.2.333-.423.654-.617.99-.379.655-.805,1.283-1.214,1.92a11.424,11.424,0,0,0-.707,1.325.987.987,0,0,1-.139.262,1.259,1.259,0,0,0-.351.639.712.712,0,0,1-.108.222,8.8,8.8,0,0,0-.522,1.023,4.978,4.978,0,0,1-.329.563c-.122.181-.271.343-.394.523-.111.162-.252.174-.368.262a.441.441,0,0,0-.063.09,4.067,4.067,0,0,1-.724,1.185,6.462,6.462,0,0,0-.479.711,2.4,2.4,0,0,1-.436.6l-.455.108c-.019-.046-.039-.065-.035-.09.079-.438.085-.452-.232-.51-.152-.028-.187-.194-.315-.239s-.291-.044-.381-.133c-.14-.139-.328-.234-.358-.5-.007-.061-.047-.133-.095-.136-.156-.012-.228-.134-.329-.218a.356.356,0,0,0-.5-.006,3.818,3.818,0,0,0-1.117-.635,6.894,6.894,0,0,1-.8-.351c-.05-.025-.115-.038-.143-.085-.122-.2-.355-.225-.57-.264a1.181,1.181,0,0,1-.67-.36.6.6,0,0,0-.315-.182,2.677,2.677,0,0,1-.987-.491c-.045-.031-.082-.081-.137-.089a1.308,1.308,0,0,1-.85-.489c-.072-.089-.161-.179-.3-.136-.285.09-.438-.067-.6-.191a1.806,1.806,0,0,1-.3-.367c-.069-.089-.135-.181-.218-.291.237-.193.37-.5.624-.683a.559.559,0,0,0,.111-.159c.086-.144.166-.291.252-.436a.76.76,0,0,1,.3-.312,1,1,0,0,0,.37-.388c.1-.159.194-.318.3-.471a3.3,3.3,0,0,1,.334-.442,4.161,4.161,0,0,0,.934-1.579,5.209,5.209,0,0,1,.63-1.242,1.824,1.824,0,0,1,.113-.168,8.743,8.743,0,0,0,1.042-1.606.863.863,0,0,1,.185-.23,1.441,1.441,0,0,0,.43-.659,1.3,1.3,0,0,1,.326-.6,8.889,8.889,0,0,0,.607-1.2.426.426,0,0,1,.09-.172,2.719,2.719,0,0,0,.389-.64,4.484,4.484,0,0,1,.518-.8,2.438,2.438,0,0,0,.565-1.173,7.458,7.458,0,0,0,.956-1.536c.046-.105.12-.2.176-.306.1-.176.185-.354.281-.53.08-.147.166-.291.247-.438.1-.176.187-.353.283-.529a3.133,3.133,0,0,1,.2-.347c.188-.259.387-.509.578-.765a1.907,1.907,0,0,0,.133-.21c.159-.273.294-.554.459-.827.153-.255.29-.526.445-.786.06-.1.106-.207.159-.311a.826.826,0,0,1,.091-.175,6.578,6.578,0,0,0,.793-1.434.334.334,0,0,0,.044-.135.916.916,0,0,1,.169-.445,2.887,2.887,0,0,0,.131-.268.784.784,0,0,1,.085-.177c.1-.114.213-.208.306-.324s.154-.256.247-.365a1.658,1.658,0,0,0,.368-.785.753.753,0,0,1,.166-.522,2.018,2.018,0,0,1,.225-.335,2.3,2.3,0,0,0,.457-.766,3.316,3.316,0,0,1,.246-.487,2.22,2.22,0,0,0,.347-.851,2.527,2.527,0,0,1,.521-1.089,2.158,2.158,0,0,0,.3-.462,4.527,4.527,0,0,1,.387-.7,1.55,1.55,0,0,0,.179-.3,1.291,1.291,0,0,1,.471-.619C190.724,69.782,190.72,69.773,190.709,69.494Z"/><path class="cls-3" d="M183.838,65.722a4.191,4.191,0,0,1,.272-.36,1.423,1.423,0,0,0,.293-.461,2.55,2.55,0,0,1,.2-.351,3.876,3.876,0,0,0,.355-.662,2.373,2.373,0,0,1,.2-.35,2.51,2.51,0,0,0,.236-.387,3.143,3.143,0,0,1,.487-.756c.177-.246.36-.488.54-.732a.373.373,0,0,1,.061-.08,1.311,1.311,0,0,0,.5-.649.1.1,0,0,1,.033-.036c.335-.219.55-.616.861-.878a4.291,4.291,0,0,0,.456-.533c.129-.154.25-.319.387-.461a2.253,2.253,0,0,0,.5-.748,1.817,1.817,0,0,1,.366-.595,3.284,3.284,0,0,0,.5-.755,3.175,3.175,0,0,1,.266-.421c.15-.2.278-.424.419-.635a8.2,8.2,0,0,1,.647-.968.916.916,0,0,0,.1-.175c.048-.088.095-.177.147-.263a7.778,7.778,0,0,0,.566-.884,7,7,0,0,1,.5-.873,5.4,5.4,0,0,1,.392-.526.514.514,0,0,0,.15-.3c0-.089.077-.139.142-.184a.49.49,0,0,0,.228-.31,3.41,3.41,0,0,1,.252-.678,4.284,4.284,0,0,0,.14-.408,1.138,1.138,0,0,1,.356-.582,5.151,5.151,0,0,0,.921-1.189.847.847,0,0,0,.116-.267,1.36,1.36,0,0,1,.365-.689,3.377,3.377,0,0,0,.533-.847c.13-.284.295-.561.451-.837a.711.711,0,0,1,.139-.134,3.382,3.382,0,0,0,.608-.729c.149-.246.309-.486.458-.731.287-.473.607-.51.86-.351a.709.709,0,0,0,.294.143.384.384,0,0,1,.208.1c.184.178.357.371.539.553a1.392,1.392,0,0,0,.231.189.478.478,0,0,0,.441.077,1.63,1.63,0,0,1,.384-.034.5.5,0,0,0,.419.439,1.82,1.82,0,0,0,.695.1.236.236,0,0,1,.207.1,3.463,3.463,0,0,0,1.009.7c.071.034.133.095.215.1a.376.376,0,0,1,.319.225.5.5,0,0,0,.358.232,4.3,4.3,0,0,1,.541.122c.119.036.246.079.283.224.07.275.3.33.514.4a6.909,6.909,0,0,0,.812.176.313.313,0,0,0,.34.285.3.3,0,0,1,.295.2.8.8,0,0,0,.642.45,1.666,1.666,0,0,1,.742.394c-.053.086-.095.153-.138.22-.266.411-.536.819-.795,1.234-.219.351-.409.714-.66,1.053a3.6,3.6,0,0,0-.607,1.09,1.282,1.282,0,0,1-.328.551,2.076,2.076,0,0,0-.156.2,11.135,11.135,0,0,0-.945,1.59,9.636,9.636,0,0,1-.985,1.529,1.848,1.848,0,0,0-.315.51,2.175,2.175,0,0,1-.334.559c-.134.172-.261.35-.388.528a2.439,2.439,0,0,1-.229.333,2.341,2.341,0,0,0-.508.853,1.956,1.956,0,0,1-.37.648.4.4,0,0,0-.1.166,1.482,1.482,0,0,1-.441.708,5.916,5.916,0,0,0-.57.834c-.113.183-.214.372-.357.622a.809.809,0,0,1-.176.584c-.043.051-.08.132-.124.156-.33.181-.438.586-.7.837a.2.2,0,0,0-.049.085,2.22,2.22,0,0,1-.547.872,2.617,2.617,0,0,0-.384.638,1.928,1.928,0,0,1-.475.81c-.21.45-.591.812-.772,1.288a8.136,8.136,0,0,1-.463.884.37.37,0,0,1-.057.083,5.845,5.845,0,0,0-.712,1.043c-.151.241-.253.508-.4.748s-.352.453-.5.693q-1.184,1.863-2.352,3.734c-.08.127-.139.265-.212.4-.048.086-.1.169-.156.253s-.109.166-.163.249a3.355,3.355,0,0,1-.187.291,3.658,3.658,0,0,0-.527.855,2.261,2.261,0,0,1-.429.676,1.361,1.361,0,0,0-.355.644,1.212,1.212,0,0,1-.278.522A7.3,7.3,0,0,0,189,80.39a2.877,2.877,0,0,1-.254.371,3.724,3.724,0,0,0-.252.375c-.136.267-.25.54-.379.809a1.666,1.666,0,0,1-.524.767c-.125.2-.259.394-.37.6-.1.175-.163.361-.245.541a1.073,1.073,0,0,1-.117.22c-.338.415-.607.881-.946,1.3a6.63,6.63,0,0,0-.729,1.153,3.987,3.987,0,0,1-.5.742,2.236,2.236,0,0,0-.325.5c-.16.344-.353.68-.531,1.02-.046.089-.092.179-.129.269a1.83,1.83,0,0,1-.484.69,3.274,3.274,0,0,0-.624.91c-.123.218-.23.444-.359.66-.2.332-.423.654-.617.989-.379.655-.805,1.283-1.214,1.921a11.424,11.424,0,0,0-.707,1.325.965.965,0,0,1-.139.261,1.27,1.27,0,0,0-.351.64.734.734,0,0,1-.108.222,8.563,8.563,0,0,0-.521,1.023,5.237,5.237,0,0,1-.33.563c-.122.18-.271.343-.394.522-.111.162-.252.174-.368.263a.393.393,0,0,0-.063.09,4.08,4.08,0,0,1-.724,1.185,6.357,6.357,0,0,0-.479.71,2.4,2.4,0,0,1-.436.6l-.455.108c-.019-.046-.039-.065-.035-.089.079-.439.085-.453-.232-.511-.152-.027-.187-.193-.315-.239s-.291-.043-.381-.133c-.139-.138-.328-.234-.358-.494-.007-.061-.047-.133-.095-.137-.156-.011-.227-.133-.329-.218a.355.355,0,0,0-.5-.005,3.8,3.8,0,0,0-1.117-.635,7.253,7.253,0,0,1-.8-.351c-.05-.026-.115-.038-.143-.085-.122-.2-.355-.225-.57-.264a1.177,1.177,0,0,1-.67-.361.61.61,0,0,0-.315-.182,2.655,2.655,0,0,1-.987-.491c-.045-.031-.082-.08-.137-.089a1.307,1.307,0,0,1-.85-.488c-.072-.09-.161-.18-.3-.136-.285.09-.438-.068-.6-.191a1.846,1.846,0,0,1-.3-.368c-.069-.089-.135-.18-.218-.291.237-.192.37-.5.624-.683a.54.54,0,0,0,.111-.158c.086-.145.166-.292.252-.437a.772.772,0,0,1,.3-.312,1,1,0,0,0,.37-.388c.1-.158.194-.318.3-.471a3.23,3.23,0,0,1,.334-.441,4.158,4.158,0,0,0,.934-1.58,5.246,5.246,0,0,1,.63-1.242,1.97,1.97,0,0,1,.113-.168,8.743,8.743,0,0,0,1.042-1.606.917.917,0,0,1,.185-.23,1.441,1.441,0,0,0,.43-.659,1.31,1.31,0,0,1,.326-.6,8.942,8.942,0,0,0,.608-1.194.409.409,0,0,1,.089-.173A2.693,2.693,0,0,0,173.1,85a4.568,4.568,0,0,1,.518-.8,2.435,2.435,0,0,0,.565-1.172,7.449,7.449,0,0,0,.956-1.537c.046-.1.12-.2.176-.306.1-.175.185-.354.281-.529.08-.147.166-.292.247-.439.1-.175.187-.353.283-.529a3.227,3.227,0,0,1,.2-.347c.188-.258.387-.508.578-.764a2.006,2.006,0,0,0,.133-.21c.159-.273.3-.554.459-.828.153-.255.29-.525.445-.785.06-.1.106-.208.159-.311a.874.874,0,0,1,.091-.175,6.559,6.559,0,0,0,.793-1.434.344.344,0,0,0,.044-.135.912.912,0,0,1,.169-.445c.052-.086.088-.179.131-.268a.792.792,0,0,1,.085-.178c.1-.113.213-.207.306-.324s.154-.255.247-.365a1.654,1.654,0,0,0,.368-.785.749.749,0,0,1,.166-.521,2.082,2.082,0,0,1,.225-.335,2.3,2.3,0,0,0,.457-.767,3.425,3.425,0,0,1,.247-.487,2.221,2.221,0,0,0,.346-.851,2.533,2.533,0,0,1,.521-1.089,2.134,2.134,0,0,0,.3-.462,4.574,4.574,0,0,1,.387-.7,1.521,1.521,0,0,0,.179-.3,1.291,1.291,0,0,1,.471-.619C183.853,66.011,183.849,66,183.838,65.722Z"/><path class="cls-3" d="M213.96,54.788l1.228-1.97a1.675,1.675,0,0,1,.277-.365.641.641,0,0,0,.153-.216c.084-.2.158-.4.228-.595.237-.674.4-1.365.581-2.052a.914.914,0,0,0-.121-.823c-.037-.063-.086-.121-.121-.17a1.646,1.646,0,0,1,.032-.166.717.717,0,0,0-.012-.475,2.194,2.194,0,0,1-.068-.253c-.017-.064.007-.1.089-.146.035-.018.072-.033.1-.053a.072.072,0,0,0,0-.125c-.081-.036-.181-.049-.193-.16a.107.107,0,0,0-.038-.064,2.28,2.28,0,0,0-.424-.334.914.914,0,0,1-.441-.415.4.4,0,0,0-.275-.194,1.862,1.862,0,0,1-.786-.42.482.482,0,0,0-.235-.133.85.85,0,0,1-.605-.386.329.329,0,0,0-.226-.137c-.1-.023-.2-.083-.3-.1a.312.312,0,0,1-.264-.195c-.045-.1-.153-.133-.248-.178a.154.154,0,0,0-.228.075,1,1,0,0,1-.038.1.079.079,0,0,1-.059.039.243.243,0,0,1-.252-.269c.009-.049.032-.1.04-.144a.129.129,0,0,0-.068-.126.307.307,0,0,0-.227-.05.394.394,0,0,1-.358-.127,1.215,1.215,0,0,0-.346-.247c-.139-.073-.277-.148-.415-.223a.7.7,0,0,0-.259-.094.409.409,0,0,1-.312-.208c-.034-.053-.077-.1-.109-.156a.488.488,0,0,0-.551-.2.6.6,0,0,0-.111.041.1.1,0,0,1-.108-.026.285.285,0,0,0-.168-.093.157.157,0,0,1-.136-.118c-.012-.036-.025-.071-.038-.107a.3.3,0,0,0-.229-.188.5.5,0,0,0-.079-.013.172.172,0,0,1-.165-.137.125.125,0,0,0-.1-.1.345.345,0,0,1-.255-.159,1.02,1.02,0,0,0-.608-.394c-.176-.052-.358-.095-.529-.16a.569.569,0,0,1-.385-.3.181.181,0,0,0-.145-.116.219.219,0,0,0-.144.054.316.316,0,0,1-.075.019.5.5,0,0,0-.383-.157.554.554,0,0,1-.416-.191.249.249,0,0,0-.284-.074.141.141,0,0,1-.109-.027.487.487,0,0,0-.307-.155,1.093,1.093,0,0,0-.771-.086.355.355,0,0,1-.234-.016.494.494,0,0,0-.311-.02,2.69,2.69,0,0,1-.317.01c-.084.056-.169.116-.257.17a.2.2,0,0,1-.256-.015c-.057-.052-.1-.114-.191-.124-.072-.009-.11-.063-.159-.1a.17.17,0,0,0-.217-.021,5.275,5.275,0,0,0-.8.554,6.66,6.66,0,0,0-.969.937c-.211.255-.451.489-.645.757a.419.419,0,0,1-.079.084,1.682,1.682,0,0,0-.3.393c-.1.148-.261.251-.343.411-.017.034-.04.065-.06.1-.068.108-.132.217-.2.322a2.39,2.39,0,0,0-.387.854.541.541,0,0,1-.178.284.942.942,0,0,0-.291.52c-.046.226-.031.293.157.406.033.02.068.039.1.058q.969.521,1.94,1.039a1,1,0,0,0,.22.086,1.023,1.023,0,0,1,.445.238.618.618,0,0,0,.273.145,1.161,1.161,0,0,1,.22.088c.152.077.3.16.451.241a1.369,1.369,0,0,1,.324.214.851.851,0,0,0,.372.21,1.155,1.155,0,0,1,.306.165,2.355,2.355,0,0,0,.325.134.685.685,0,0,1,.091.072,8.26,8.26,0,0,0,1.234.681c.012.005.026.005.039.009a1.512,1.512,0,0,1,.585.309.785.785,0,0,0,.273.147,2.327,2.327,0,0,1,.688.368.58.58,0,0,0,.2.114.321.321,0,0,1,.138.069,1.586,1.586,0,0,0,.36.233c.6.325,1.2.646,1.794.977a2.959,2.959,0,0,1,.632.387.559.559,0,0,0,.138.07.793.793,0,0,1,.171.09,2.03,2.03,0,0,0,.362.229c.159.091.325.172.481.267a6.745,6.745,0,0,1,1.036.626.942.942,0,0,0,.17.1l.582.325a2.427,2.427,0,0,1,.52.343,1.042,1.042,0,0,0,.23.148q.637.346,1.279.69C213.776,55.06,213.8,55.053,213.96,54.788Z"/><path class="cls-3" d="M111.488,215.431c0-.03.027-.045.045-.066a.072.072,0,0,0,.011-.091,2.249,2.249,0,0,0-.226-.342,2.875,2.875,0,0,0-.386-.416c-.105-.091-.2-.194-.313-.278a.188.188,0,0,1-.035-.034.722.722,0,0,0-.162-.131c-.062-.043-.1-.112-.171-.148-.013-.007-.026-.017-.04-.026-.044-.029-.09-.057-.134-.088a1,1,0,0,0-.355-.17.228.228,0,0,1-.118-.078.4.4,0,0,0-.216-.127c-.095-.021-.124-.015-.173.063l-.012.021a.485.485,0,0,1-.1-.069.258.258,0,0,0-.092-.062c-.083-.034-.168-.063-.252-.091-.286-.094-.578-.156-.869-.226a.386.386,0,0,0-.345.058c-.027.016-.05.037-.071.052a.5.5,0,0,1-.07-.012.3.3,0,0,0-.2.01c-.034.013-.07.021-.105.031s-.044,0-.063-.037a.355.355,0,0,0-.023-.043.03.03,0,0,0-.052,0c-.015.034-.019.077-.066.083a.045.045,0,0,0-.027.016,1,1,0,0,0-.137.182.383.383,0,0,1-.17.189.163.163,0,0,0-.079.117.8.8,0,0,1-.17.335.2.2,0,0,0-.054.1.359.359,0,0,1-.157.258.141.141,0,0,0-.056.1c-.008.043-.033.084-.038.127a.13.13,0,0,1-.08.112c-.04.02-.055.066-.073.106a.064.064,0,0,0,.034.095c.014.007.031.008.044.015a.038.038,0,0,1,.017.025.1.1,0,0,1-.111.109c-.021,0-.04-.013-.061-.016a.054.054,0,0,0-.052.03.129.129,0,0,0-.019.1.165.165,0,0,1-.051.151.529.529,0,0,0-.1.148c-.03.059-.06.118-.091.177a.292.292,0,0,0-.037.11.175.175,0,0,1-.085.133c-.022.015-.042.033-.064.047a.205.205,0,0,0-.081.234.258.258,0,0,0,.018.046.041.041,0,0,1-.01.046.117.117,0,0,0-.037.071.064.064,0,0,1-.049.058l-.044.017a.128.128,0,0,0-.077.1.186.186,0,0,0,0,.034.073.073,0,0,1-.056.071.052.052,0,0,0-.043.043.146.146,0,0,1-.064.109.432.432,0,0,0-.161.259c-.02.075-.036.152-.062.224a.239.239,0,0,1-.124.165.075.075,0,0,0-.047.062.088.088,0,0,0,.024.06.094.094,0,0,1,.008.031.215.215,0,0,0-.062.163.235.235,0,0,1-.077.177.106.106,0,0,0-.029.12.056.056,0,0,1-.01.046.2.2,0,0,0-.062.131.456.456,0,0,0-.03.325.15.15,0,0,1,0,.1.2.2,0,0,0-.006.131,1,1,0,0,1,.007.134c.024.034.05.07.074.106a.084.084,0,0,1,0,.108c-.021.025-.047.044-.051.081s-.025.047-.042.068a.073.073,0,0,0-.007.092,2.272,2.272,0,0,0,.24.333,2.867,2.867,0,0,0,.4.4c.109.087.21.186.325.265a.217.217,0,0,1,.036.032.69.69,0,0,0,.167.124,1.989,1.989,0,0,0,.177.141c.014.007.027.016.041.024.046.027.092.053.137.083a1.024,1.024,0,0,0,.363.155.223.223,0,0,1,.121.072.394.394,0,0,0,.221.118c.072.013.1,0,.136-.034.055.023.109.046.164.067.282.106.571.18.859.263a.388.388,0,0,0,.347-.044.641.641,0,0,0,.072-.05c.029.006.05.009.07.015a.3.3,0,0,0,.2,0,.981.981,0,0,1,.107-.026c.027-.007.043,0,.061.039.007.014.013.03.021.044a.03.03,0,0,0,.053,0c.016-.034.022-.076.069-.08a.043.043,0,0,0,.027-.015.914.914,0,0,0,.144-.176.39.39,0,0,1,.179-.182.169.169,0,0,0,.084-.114.8.8,0,0,1,.183-.327.191.191,0,0,0,.058-.1.358.358,0,0,1,.168-.252.137.137,0,0,0,.06-.094c.01-.042.036-.082.043-.125a.135.135,0,0,1,.085-.109c.04-.018.057-.063.077-.1a.064.064,0,0,0-.03-.1c-.014-.007-.03-.009-.043-.017a.034.034,0,0,1-.016-.025.1.1,0,0,1,.115-.1c.021,0,.04.014.061.018a.053.053,0,0,0,.053-.028.121.121,0,0,0,.023-.094.167.167,0,0,1,.057-.15.541.541,0,0,0,.107-.143c.032-.058.064-.116.1-.173a.3.3,0,0,0,.042-.108.173.173,0,0,1,.09-.13c.023-.014.044-.031.067-.044a.2.2,0,0,0,.09-.23.26.26,0,0,0-.016-.047.043.043,0,0,1,.012-.046.116.116,0,0,0,.04-.069.067.067,0,0,1,.051-.057l.045-.015a.128.128,0,0,0,.082-.094c0-.011,0-.022.006-.033a.073.073,0,0,1,.059-.069.052.052,0,0,0,.044-.042.143.143,0,0,1,.069-.106.425.425,0,0,0,.171-.252c.024-.074.043-.15.072-.221a.241.241,0,0,1,.13-.16.074.074,0,0,0,.05-.059.093.093,0,0,0-.021-.062.124.124,0,0,1-.008-.032.212.212,0,0,0,.07-.159.234.234,0,0,1,.083-.173.1.1,0,0,0,.034-.119.061.061,0,0,1,.013-.046.206.206,0,0,0,.067-.128.458.458,0,0,0,.044-.323.152.152,0,0,1,.008-.1.2.2,0,0,0,.011-.131,1.137,1.137,0,0,1,0-.133c-.023-.036-.047-.072-.07-.11a.084.084,0,0,1,.009-.107C111.456,215.487,111.483,215.468,111.488,215.431Z"/><path class="cls-2" d="M108.565,214.349a.2.2,0,0,1,.142.076,1.173,1.173,0,0,0,.521.318,7.375,7.375,0,0,1,.853.529,1.135,1.135,0,0,0,.137.083c.039.019.095.011.126.04a7.339,7.339,0,0,0,.924.53c.286.2.593.356.891.533a.437.437,0,0,1,.082.052c.032.03.071.049.1.077.112-.093.223-.185.335-.282.468-.41.943-.791,1.411-1.2.348-.306.7-.6,1.048-.9.193-.167.382-.364.576-.505a8.875,8.875,0,0,0,.72-.629c.275-.25.548-.508.824-.75.4-.347.794-.691,1.184-1.066.07-.068.144-.127.216-.191l.791-.7a6.627,6.627,0,0,0,.5-.455c.289-.311.6-.545.891-.826s.576-.508.861-.771.569-.541.852-.813.567-.545.857-.794c.216-.186.426-.4.638-.609.031-.03.057-.112.041-.128a2.338,2.338,0,0,0-.384-.368c-.445-.263-.884-.535-1.323-.805a.723.723,0,0,1-.235-.175.988.988,0,0,0-.317-.261c-.475-.287-.951-.573-1.425-.862a.824.824,0,0,1-.26-.189,1.1,1.1,0,0,0-.342-.276l-3.642-2.165.01-.018q-1.9-1.118-3.8-2.234a.4.4,0,0,0-.185-.086.981.981,0,0,1-.435-.177c-.186-.106-.369-.217-.557-.321a1.211,1.211,0,0,0-.513-.215.45.45,0,0,1-.184-.089c-.271-.154-.541-.311-.812-.465a1.65,1.65,0,0,0-.16-.071c-.023-.009-.087.045-.1.081-.016.062-.034.125-.045.186-.07.369-.137.737-.207,1.107-.282,1.492-.545,2.978-.849,4.479-.125.618-.234,1.232-.368,1.853-.151.7-.288,1.392-.388,2.073-.075.514-.157,1.03-.227,1.541-.071.526-.14,1.051-.211,1.576-.02.15-.043.3-.063.452-.07.525-.126,1.045-.213,1.577-.067.411-.123.817-.18,1.224l1.3.751A1.44,1.44,0,0,0,108.565,214.349Z"/></svg>