<svg xmlns="http://www.w3.org/2000/svg" viewBox="0 0 296 296"><defs><style>.cls-1{fill:#f36;}.cls-2{fill:#1858a8;}</style></defs><title>WYGIWYG</title><g id="Livello_1" data-name="Livello 1"><path class="cls-1" d="M199.8,138.784a29.6,29.6,0,0,0,4.961-4.017,6.848,6.848,0,0,0-3.655-2.778c-.15-.04-.247-.271-.372-.41-1.88-2.093-4.241-3.675-6.016-5.911a62.053,62.053,0,0,0-4.747-4.782,4.971,4.971,0,0,1-.825-1.137,8.744,8.744,0,0,0-4.471-4.128c-.141-.79-.269-1.508-.361-2.027a15.173,15.173,0,0,1-2.412-1.77c-1.752-1.948-3.387-4-5.082-6a4.082,4.082,0,0,0-2.557-1.621,2.244,2.244,0,0,1-1.222-.578c-1.042-1.073-1.995-2.233-3.013-3.329a4.487,4.487,0,0,0-1.467-1.273,4.714,4.714,0,0,1-2.207-2.1,15.5,15.5,0,0,0-3.331-3.417c-1.1-.884-2.191-1.781-3.251-2.713a4.113,4.113,0,0,1-1.287-1.449,4.084,4.084,0,0,0-1.832-1.977c-1.365-.975-2.566-2.18-3.835-3.289-.328-1.746-1.769-2.582-2.949-3.641a4.9,4.9,0,0,1-1.3-1.456,11.412,11.412,0,0,0-4.723-4.992c-1.9-1.2-2.84-3.51-5.044-4.378-.207-.082-.369-.441-.429-.7-.356-1.536-1.585-2.337-2.758-3.069-2.094-1.3-3.539-3.326-5.51-4.755a1.249,1.249,0,0,1-.465-.69c-.311-1.533-1.519-2.317-2.6-3.221a12.168,12.168,0,0,1-3.485-3.642c-.714-1.429-1.372-2.9-3.118-3.4-.236-.067-.406-.377-.6-.583-1.087-1.161-2.237-2.272-3.239-3.5-.986-1.21-2.653-1.8-3.136-3.461-.04-.137-.284-.25-.455-.309a5.836,5.836,0,0,1-2.682-2.4,2.525,2.525,0,0,0-1.565-1.078c-1.529-.05-2.106-1.113-2.693-2.168a14.747,14.747,0,0,0-3.872-4.41c-2.658-2.1-5.249-4.287-7.831-6.48A4.075,4.075,0,0,1,93,24.041c-.391-1.368-1.431-2.111-2.359-3.256-.417.463-.847.744-.988,1.131a4.309,4.309,0,0,1-3.423,2.942c-1.068.25-1.954,1.367-2.866,2.158A4.736,4.736,0,0,0,82.13,28.5a8.511,8.511,0,0,1-1.869,2.414,21.357,21.357,0,0,1-1.876,1.967,27.6,27.6,0,0,1,4.7,5.766,8.66,8.66,0,0,0,1.529,1.712c1.8,1.6,3.976,2.84,4.7,5.371.027.1.134.173.212.25,1.793,1.777,4.021,3.1,5.464,5.24,2.418,1.223,3.928,3.449,5.723,5.33a13.112,13.112,0,0,0,3.813,3.075,15.18,15.18,0,0,1,4.578,3.708c1.668,1.813,2.959,4.155,5.691,4.731a1.8,1.8,0,0,1,.792.561c.992,1.026,2.325,1.919,2.845,3.152.6,1.428,2.016,2.032,2.595,3.251,1.315,2.768,3.72,4.492,6.127,5.86a21.634,21.634,0,0,1,5.947,5.545,4.467,4.467,0,0,0,.851,1,6.381,6.381,0,0,1,2.742,4.6c.616.3,1.1.55,1.6.778a7.016,7.016,0,0,1,3.629,3.2,6.54,6.54,0,0,0,2.574,2.5,5.782,5.782,0,0,1,1.777,1.381,30.035,30.035,0,0,0,7.1,6.861c2.841,2.173,4.561,5.352,7.134,7.758.511,2.329,2.3,3.323,4.264,4.213a9.729,9.729,0,0,1,1.831,1.407,31.283,31.283,0,0,0,5.4,3.774c1.422.711,2.983,1.658,3.234,3.521a3.556,3.556,0,0,0,2.625,3.066,5.944,5.944,0,0,1,1.4.863c3.573,2.614,6.4,6.023,9.569,9.059.714.682,1.318,1.5,2.089,2.1a23.354,23.354,0,0,1,2.879,2.711c.93-1.2,1.841-2.419,2.844-3.554A15.793,15.793,0,0,1,199.8,138.784Z"/><path class="cls-1" d="M222.553,54.7a31.451,31.451,0,0,0-1.634-4.67,24.02,24.02,0,0,1-5.888,3.131,1.643,1.643,0,0,0-.8.557c-1.007,1.45-2.588,1.515-4.1,1.792a8.016,8.016,0,0,0-2.506.633,49.749,49.749,0,0,1-7,3.69c-1.417.535-2.61,1.521-4.284,1.52a5.177,5.177,0,0,0-2.373,1.056c-2.721,1.684-5.414,3.413-8.106,5.144a9.993,9.993,0,0,1-4.235,1.745,6.479,6.479,0,0,0-2.434.939c-3.114,1.86-6.064,3.969-9.492,5.322-1.477.583-2.571,2.078-4,2.853-1.534.829-3.291,1.235-4.9,1.941a75.774,75.774,0,0,1-9.1,3.847,9.422,9.422,0,0,0-4.226,2.488,7.05,7.05,0,0,1-2.746,1.7c-1.529.581-3.287,1.073-4.388,2.167-2.683,2.664-6.554,3.092-9.367,5.414a1.551,1.551,0,0,1-.96.164,5.352,5.352,0,0,0-4.048,1.916,5.631,5.631,0,0,1-1.89,1.211c-3.584,1.357-7.225,2.582-10.111,5.278a2.211,2.211,0,0,1-.871.461c-3.312.965-5.99,3.2-9.142,4.533-2.7,1.146-5.547,2.173-7.893,4.088a5.873,5.873,0,0,1-1.2.532,29.953,29.953,0,0,0-3.527,1.759,38.058,38.058,0,0,1-10.292,5.165A3.612,3.612,0,0,0,78.45,123.3c.48.848.962,1.821,1.558,2.719a3.383,3.383,0,0,1,.522,3.43c-.553,1.211-.027,2.11.566,3.076a5.764,5.764,0,0,0,2.975,2.344,7.48,7.48,0,0,1,1.713-.809c.534-.176,1.062-.373,1.58-.592,1.983-.835,3.988-1.625,5.931-2.545,1.606-.761,3.554-.926,4.8-2.274,1.28-1.382,3.19-1.584,4.529-2.775.35-.311.7-.626,1.029-.958a10.83,10.83,0,0,1,3.776-2.391,26.59,26.59,0,0,0,5.254-2.567,2.933,2.933,0,0,1,1.813-.558c2.5.311,4.609-.773,6.68-1.834,1.142-.585,1.984-1.752,3.122-2.35,1.217-.64,2.659-.833,3.939-1.372a55.018,55.018,0,0,0,8.372-4.558,12.443,12.443,0,0,1,3.541-1.7,9.474,9.474,0,0,0,3.393-1.869,35.611,35.611,0,0,1,5.5-3.425,15.606,15.606,0,0,0,2.57-1.646c2.179-1.74,4.587-2.979,7.515-2.578.923.126,1.833.348,2.835.543a8,8,0,0,0,3.768-3.144,7.93,7.93,0,0,1,5.079-3.752,18.95,18.95,0,0,0,5.813-2.8c1.168-.746,2.222-1.8,3.773-1.752a.666.666,0,0,0,.471-.241c1.334-1.77,3.163-1.688,5.067-1.409.631.093,1.278.088,1.841.122a22.143,22.143,0,0,1,5.367-5.088A5.076,5.076,0,0,1,195.5,79.8c3.464-.238,4.938-.875,7.206-2.667,1.455-1.149,2.9-2.328,4.438-3.348,2.67-1.763,5.416-3.41,8.125-5.113a2.5,2.5,0,0,1,2.376-.481,2.525,2.525,0,0,0,2.588-.7,12.09,12.09,0,0,0,1.006-.982,6.653,6.653,0,0,1,3.929-2.031,7.485,7.485,0,0,0,2.413-.828c-1.08-1.694-2.277-3.319-3.285-5.054A15.78,15.78,0,0,1,222.553,54.7Z"/><path class="cls-1" d="M258.75,246.459a22.4,22.4,0,0,0,.862-6.353,12.037,12.037,0,0,0-6.1.652,2.174,2.174,0,0,1-.743-.022c-3.772-.13-7.512.44-11.322.135-2.978-.239-6.028.017-9.046.023a8.732,8.732,0,0,1-1.865-.21,15.516,15.516,0,0,0-8.161.287l-2.274-1.166a26.977,26.977,0,0,1-3.967.476c-3.512-.121-7.014-.4-10.522-.592a7.017,7.017,0,0,0-3.964.682,3.7,3.7,0,0,1-1.706.466c-2.008-.012-4.014-.148-6.022-.192a8.028,8.028,0,0,0-2.6.151,8.392,8.392,0,0,1-4.087.1,27.89,27.89,0,0,0-6.405-.026c-1.883.162-3.77.31-5.661.411a7.352,7.352,0,0,1-2.6-.1,7.267,7.267,0,0,0-3.617-.083c-2.22.288-4.5.3-6.761.423-1.974-.993-4.134-.553-6.259-.456a8.756,8.756,0,0,1-2.621-.094,20.352,20.352,0,0,0-9.224-.14c-2.939.518-6.03-.441-8.942.519a1.828,1.828,0,0,1-1.072-.186c-1.8-.825-3.727-.512-5.533-.19-3.224.575-6.517.186-9.742.587a2.174,2.174,0,0,1-1.1-.154c-1.756-.854-3.645-.544-5.525-.411a21.874,21.874,0,0,1-6.767-.075c-2.037-.5-4.06-1.058-6.188-.166a3.258,3.258,0,0,1-1.122.017c-2.134-.041-4.28,0-6.4-.152-2.085-.147-4.219.629-6.264-.2a1.294,1.294,0,0,0-.724.107,10.384,10.384,0,0,1-4.82.227,4.384,4.384,0,0,0-2.508.359c-1.493,1.054-3.052.718-4.612.4a26.406,26.406,0,0,0-7.864-.339c-4.516.419-9.049.73-13.582,1.029a7.217,7.217,0,0,1-2.925-.224c-1.673-.681-3.365-.462-5.333-.6.046.623-.092,1.126.143,1.5,1,1.582.86,2.936-.432,4.5-.771.936-.545,2.351-.653,3.557a3.59,3.59,0,0,0,.245,1.916,6.522,6.522,0,0,1,.534,3.026,15.91,15.91,0,0,1,.1,2.717,49.268,49.268,0,0,1,9.942.7,15.471,15.471,0,0,0,3.077.112c3.217-.158,6.466-.837,9.564.422a1.286,1.286,0,0,0,.44.025c3.388-.03,6.755-.69,10.161-.214,3.451-.864,7-.376,10.49-.334a23.35,23.35,0,0,0,6.537-.557,27.035,27.035,0,0,1,7.863-.657c3.3.084,6.758.809,9.89-.733a3.147,3.147,0,0,1,1.284-.17c1.915.014,4.027-.308,5.694.187,1.93.574,3.844-.01,5.552.433,3.881,1.007,7.8.5,11.379-.249a38.753,38.753,0,0,1,10.908-.343,8,8,0,0,0,1.759.1,10.823,10.823,0,0,1,6.978,1.278c.869-.228,1.568-.4,2.256-.594a12.436,12.436,0,0,1,6.477-.342,11.677,11.677,0,0,0,4.821-.075,10.258,10.258,0,0,1,3-.3,53.992,53.992,0,0,0,13.253-.241c4.758-.5,9.414.509,14.14.366,2.7,1.27,5.345.691,8.047-.08a17.384,17.384,0,0,1,3.073-.317,55.187,55.187,0,0,0,8.706-1.2c2.022-.514,4.4-.961,6.415.168a6.132,6.132,0,0,0,5.4.283,10.339,10.339,0,0,1,2.147-.392c5.87-.71,11.788-.326,17.683-.456,1.325-.029,2.671.112,3.975-.014a42.1,42.1,0,0,1,5.307-.147c-.265-1.506-.566-3.009-.7-4.521A11.837,11.837,0,0,1,258.75,246.459Z"/></g><g id="solo_testo" data-name="solo testo"><path class="cls-2" d="M89.437,200.572c-6.435,10.619-12.285,22.184-18.36,32.8l-4.59-.9.045-.044-1.71-.361-.09-19.394c-3.6,5.535-6.839,10.62-11.2,17.954l-2.744-1.485L50.2,233.51l-5.174-1.079,3.059-33.3,6.885-.405-3.6,26.234c4.86-8.325,8.459-13.9,13.275-21.779v-2.565l6.3-.766-.54,24.975c4.275-8.55,8.5-17.37,13.14-25.649Z"/><path class="cls-2" d="M114.682,200.077c-5.67,8.954-14.49,24.119-20.61,34.423l-4.95-2.295,4.365-7.919-3.195-.63-1.26-24.524,6.885-.405v21.149c4.32-7.83,8.774-15.884,12.06-21.779Z"/><path class="cls-2" d="M129.127,218.3l5.715,1.755c-2.565,7.875-4.32,13.859-6.165,19.709l-5.265-.855c.72-2.475,1.8-5.715,3.51-10.845a42.21,42.21,0,0,1-6.39,6.39l-7.92-2.52a31.924,31.924,0,0,1-1.484-9.269c0-9.72,4.274-18.674,13.634-23.309l4.86,2.07c.045-.945.09-1.98.09-3.015,0-.36-.045-.72-.045-1.08h6.075c.045.675.045,1.53.045,2.385a37.756,37.756,0,0,1-2.34,13.454l-5.67-1.44a36.468,36.468,0,0,0,1.8-9.224c-7.47,3.869-12.059,11.114-12.059,20.474a33.84,33.84,0,0,0,1.035,7.874C121.837,228.335,126.337,222.936,129.127,218.3Z"/><path class="cls-2" d="M152.572,199.627c-3.509,11.2-6.75,22.409-9.63,33.613l-5.625-1.349c2.746-11.16,5.806-22.275,9.18-33.434Z"/><path class="cls-2" d="M198.066,200.572c-6.435,10.619-12.285,22.184-18.36,32.8l-4.59-.9.045-.044-1.71-.361-.09-19.394c-3.6,5.535-6.839,10.62-11.2,17.954l-2.744-1.485-.585,4.365-5.175-1.079,3.06-33.3,6.885-.405L160,224.961c4.86-8.325,8.459-13.9,13.275-21.779v-2.565l6.3-.766-.54,24.975c4.275-8.55,8.5-17.37,13.14-25.649Z"/><path class="cls-2" d="M223.311,200.077c-5.67,8.954-14.49,24.119-20.61,34.423l-4.95-2.295,4.365-7.919-3.2-.63-1.26-24.524,6.885-.405v21.149c4.32-7.83,8.774-15.884,12.06-21.779Z"/><path class="cls-2" d="M265.834,200.572c-6.435,10.619-12.285,22.184-18.359,32.8l-4.59-.9.045-.044-1.71-.361-.09-19.394c-3.6,5.535-6.84,10.62-11.2,17.954l-2.744-1.485-.585,4.365-5.175-1.079,3.06-33.3,6.884-.405-3.6,26.234c4.859-8.325,8.459-13.9,13.274-21.779v-2.565l6.3-.766-.54,24.975c4.274-8.55,8.5-17.37,13.14-25.649Z"/><path class="cls-2" d="M89.437,76.572C83,87.191,77.152,98.756,71.077,109.375l-4.59-.9.045-.044-1.71-.361-.09-19.394c-3.6,5.535-6.839,10.62-11.2,17.954l-2.744-1.485L50.2,109.51l-5.174-1.079,3.059-33.3,6.885-.405-3.6,26.234c4.86-8.325,8.459-13.9,13.275-21.779V76.617l6.3-.766-.54,24.975c4.275-8.55,8.5-17.37,13.14-25.649Z"/><path class="cls-2" d="M114.682,76.077c-5.67,8.954-14.49,24.119-20.61,34.423l-4.95-2.3,4.365-7.919-3.195-.63-1.26-24.524,6.885-.405V95.876c4.32-7.83,8.774-15.884,12.06-21.779Z"/><path class="cls-2" d="M125.978,87.776a40.437,40.437,0,0,0,2.114-8.864c-5.985,3.06-8.5,6.389-8.5,8.414,0,1.89,1.574,3.42,6.794,9.18,1.575,1.71,3.15,3.375,3.15,5.8,0,4.456-5.219,7.515-12.014,7.515a35.4,35.4,0,0,1-9.99-1.71l1.575-5.849a35.925,35.925,0,0,0,10.8,2.2,18.121,18.121,0,0,0,3.96-.451,15.314,15.314,0,0,0-2.3-2.969c-2.835-3.06-4.679-5.175-6.389-7.245a8.842,8.842,0,0,1-2.25-5.58c0-4,2.88-8.819,9.989-12.6l5.265,2.34a35.8,35.8,0,0,0,.225-4.86l6.075.5a47.72,47.72,0,0,1-2.835,15.614Z"/><path class="cls-2" d="M147.937,75.627c-3.51,11.2-6.75,22.409-9.63,33.613l-5.625-1.349c2.745-11.16,5.805-22.275,9.179-33.434Z"/><path class="cls-2" d="M193.43,76.572c-6.435,10.619-12.285,22.184-18.36,32.8l-4.589-.9.044-.044-1.709-.361-.09-19.394c-3.6,5.535-6.84,10.62-11.205,17.954l-2.745-1.485-.585,4.365-5.174-1.079,3.059-33.3,6.885-.405-3.6,26.234c4.86-8.325,8.459-13.9,13.275-21.779V76.617l6.3-.766-.54,24.975c4.274-8.55,8.5-17.37,13.139-25.649Z"/><path class="cls-2" d="M218.675,76.077c-5.67,8.954-14.489,24.119-20.609,34.423l-4.951-2.3,4.366-7.919-3.2-.63-1.26-24.524,6.885-.405V95.876c4.321-7.83,8.775-15.884,12.06-21.779Z"/><path class="cls-2" d="M233.12,94.3l5.715,1.755c-2.564,7.875-4.319,13.859-6.165,19.709l-5.265-.855c.72-2.475,1.8-5.715,3.51-10.845a42.164,42.164,0,0,1-6.39,6.39l-7.919-2.52a31.893,31.893,0,0,1-1.485-9.269c0-9.72,4.275-18.674,13.635-23.309l4.859,2.07c.045-.945.09-1.98.09-3.015,0-.36-.045-.72-.045-1.08h6.075c.045.675.045,1.53.045,2.385a37.778,37.778,0,0,1-2.339,13.454l-5.67-1.44a36.512,36.512,0,0,0,1.8-9.224c-7.469,3.869-12.059,11.114-12.059,20.474a33.84,33.84,0,0,0,1.035,7.874C225.83,104.335,230.33,98.936,233.12,94.3Z"/></g></svg>