<svg xmlns="http://www.w3.org/2000/svg" viewBox="0 0 952 485.099"><defs><style>.cls-1{fill:#1858a8;}.cls-2{fill:#f36;}.cls-3{fill:#ffeded;}</style></defs><title>manuale_ill_nuove</title><g id="solo_testo" data-name="solo testo"><path class="cls-1" d="M431.509,299.8a9.98,9.98,0,0,0-3.172-2.4,1.531,1.531,0,0,1-.349-.238,41.659,41.659,0,0,1-2.611,4.458,25.774,25.774,0,0,0-1.771,3.318,5.073,5.073,0,0,1-.715,1.369,9.836,9.836,0,0,0-1.791,3.049,80.45,80.45,0,0,1-6.062,10.084,10.978,10.978,0,0,0-2,3.677,2.046,2.046,0,0,1-.511.979,6,6,0,0,0-1.074,1.478c.054-1.1.007-2.2.1-3.3a15.624,15.624,0,0,0-.125-2.217c-.058-.956-.134-1.913-.16-2.87a29.491,29.491,0,0,0-.044-4.652.555.555,0,0,1-.006-.222c.546-2.017.136-4.119.542-6.149a3.519,3.519,0,0,0,.106-1.1c-.187-1.459-.479-2.907-.612-4.371a14.438,14.438,0,0,1,.123-2.647c.049-.514.406-1.076.279-1.517-.605-2.1.156-4.269-.373-6.369a5.481,5.481,0,0,1,0-3.073,5.108,5.108,0,0,0,.007-1.737c-.045-.783-.108-1.567-.164-2.35-.041-.573-.069-1.148-.086-1.721a30.7,30.7,0,0,1,.469-4.631,6.263,6.263,0,0,0,.206-1.534,94.069,94.069,0,0,1-.06-9.991c.159-2.809-.3-5.6-.143-8.4.042-.765.109-1.53.173-2.293q.075-.956.143-1.91c.047-.665.066-1.332.107-2a7.941,7.941,0,0,1,.144-1.762,3.549,3.549,0,0,0-.151-2.8,1.3,1.3,0,0,1-.127-.648c.141-2.365-.143-4.734.132-7.106a25.6,25.6,0,0,0-.082-3.761,5.11,5.11,0,0,1-.047-1.544,9.845,9.845,0,0,0,.068-3.535,80.463,80.463,0,0,1,.344-11.761,10.964,10.964,0,0,0-.052-4.187,2.058,2.058,0,0,1-.035-1.105c.555-1.844-.05-3.669-.053-5.5,0-1.69-.125-3.379-.2-5.069a20.753,20.753,0,0,1-4.514-.36.532.532,0,0,0-.221.006c-.116.022-.231.021-.346.037a5.525,5.525,0,0,1,0,1.629c-.209,1.463-.51,2.913-.719,4.375a5.289,5.289,0,0,0,.058,1.51c.121.8.368,1.578.453,2.379.182,1.7.306,3.4.426,5.1.035.512-.03,1.032-.05,1.619-.343.261-.708.5-1.026.8a8.793,8.793,0,0,0-.72.856,10.606,10.606,0,0,0,.446,1.068c1.047,1.887,1.014,3.96,1.063,6.02a9.672,9.672,0,0,0,.039,1.764,15.277,15.277,0,0,1-.6,7.67c-.147.5-.251,1.013-.435,1.5a4.163,4.163,0,0,0-.007,2.824c.239.771.44,1.546.611,2.326a11.96,11.96,0,0,1,.2,4.894,2.752,2.752,0,0,0,.182,1.083,6.2,6.2,0,0,1-.177,3.913,1.982,1.982,0,0,0-.17.858,9.954,9.954,0,0,1-.536,3.939,1.249,1.249,0,0,0,.083,1.047,1.71,1.71,0,0,1,.364.523l-.091.061a20.1,20.1,0,0,0-.254,5.666,4.1,4.1,0,0,1-.125,1.741,9.2,9.2,0,0,0,.212,5.462,4.281,4.281,0,0,1,.125.614,3.194,3.194,0,0,1-.29.566,5.64,5.64,0,0,0-.5,3.678,3.144,3.144,0,0,0,1.143,2.046,2.694,2.694,0,0,1-.254,1.451,1.187,1.187,0,0,0-.1.846,7.527,7.527,0,0,1-.07,3.308,18.98,18.98,0,0,0-.077,3.752,6.09,6.09,0,0,1,.008.676c-.009.438-.036.879-.052,1.317,0,.148-.092.3-.066.438.584,3.141-.292,6.35.449,9.483a2.3,2.3,0,0,1,.046.877c-.28,1.672-.6,3.339-.879,5.013-.181,1.095-.321,2.2-.461,3.3a1.077,1.077,0,0,0,.069.65c.649,1.021.454,2.139.459,3.245,0,.513.182,1.025.182,1.537a14.2,14.2,0,0,1-.093,3.682c-.028.111-.033.231-.05.346-1.061-2.569-1.958-5.2-2.8-7.85a10.963,10.963,0,0,0-1.656-3.846,2.039,2.039,0,0,1-.454-1.007c-.2-1.916-1.454-3.368-2.16-5.06-.652-1.56-1.413-3.073-2.131-4.605a20.72,20.72,0,0,1-4.306,1.4.53.53,0,0,0-.2.09c-.1.064-.206.108-.305.167a5.467,5.467,0,0,1,.621,1.5c.368,1.432.646,2.886,1.014,4.316a5.284,5.284,0,0,0,.632,1.373c.419.691.946,1.317,1.332,2.023.818,1.5,1.587,3.021,2.349,4.547a16.17,16.17,0,0,1,.575,1.514c-.216.372-.462.734-.643,1.128a8.968,8.968,0,0,0-.335,1.066,10.471,10.471,0,0,0,.822.816c1.691,1.341,2.455,3.267,3.29,5.152a9.444,9.444,0,0,0,.713,1.614,15.286,15.286,0,0,1,2.389,7.312c.056.518.156,1.033.171,1.55a4.179,4.179,0,0,0,1.078,2.611c.515.62,1,1.259,1.457,1.913l.047.073c.017-.034.044-.053.058-.09.1-.251.6-.454.934-.477a10.6,10.6,0,0,0,2.708-.591c.178.145.36.282.525.445a.538.538,0,0,0,.2.1c.111.038.211.095.319.137a5.492,5.492,0,0,1,.8-1.418c.9-1.173,1.871-2.289,2.77-3.462a5.245,5.245,0,0,0,.689-1.345c.286-.755.454-1.556.771-2.3.673-1.567,1.4-3.113,2.128-4.654a15.632,15.632,0,0,1,.836-1.388c.426-.06.864-.089,1.284-.19a9.022,9.022,0,0,0,1.046-.394,10.492,10.492,0,0,0,.135-1.15c.011-2.158,1.054-3.948,2.022-5.769a9.449,9.449,0,0,0,.83-1.556,15.282,15.282,0,0,1,4.28-6.394c.372-.363.716-.76,1.113-1.091a4.163,4.163,0,0,0,1.388-2.46c.17-.788.375-1.562.607-2.327.008-.028.02-.054.029-.082a.967.967,0,0,0-.107.01C432.2,300.315,431.732,300.044,431.509,299.8Z"/><path class="cls-1" d="M679.462,440.638c-.258.077-.73-.194-.953-.441a9.98,9.98,0,0,0-3.172-2.395,1.531,1.531,0,0,1-.349-.238,41.659,41.659,0,0,1-2.611,4.458,25.774,25.774,0,0,0-1.771,3.318,5.073,5.073,0,0,1-.715,1.369,9.836,9.836,0,0,0-1.791,3.049,80.45,80.45,0,0,1-6.062,10.084,10.978,10.978,0,0,0-2,3.677,2.046,2.046,0,0,1-.511.979,6.61,6.61,0,0,0-1.333,1.976,3.47,3.47,0,0,1-.018-1.079c.476-1.75.23-3.545.374-5.314a15.624,15.624,0,0,0-.125-2.217c-.058-.956-.134-1.913-.16-2.87a29.491,29.491,0,0,0-.044-4.652.555.555,0,0,1-.006-.222c.546-2.017.136-4.119.542-6.149a3.519,3.519,0,0,0,.106-1.1c-.187-1.459-.479-2.907-.612-4.371a14.438,14.438,0,0,1,.123-2.647c.049-.514.406-1.076.279-1.517-.605-2.1.156-4.269-.373-6.369a5.481,5.481,0,0,1,0-3.073,5.108,5.108,0,0,0,.007-1.737c-.045-.783-.108-1.567-.164-2.35-.041-.573-.069-1.148-.086-1.721a30.7,30.7,0,0,1,.469-4.631,6.263,6.263,0,0,0,.206-1.534,94.069,94.069,0,0,1-.06-9.991c.159-2.809-.3-5.6-.143-8.4.042-.765.109-1.53.173-2.293q.075-.955.143-1.91c.047-.665.066-1.332.107-2a7.941,7.941,0,0,1,.144-1.762,3.549,3.549,0,0,0-.151-2.8,1.3,1.3,0,0,1-.127-.648c.141-2.365-.143-4.734.132-7.106a25.6,25.6,0,0,0-.082-3.761,5.11,5.11,0,0,1-.047-1.544,9.845,9.845,0,0,0,.068-3.535,80.463,80.463,0,0,1,.344-11.761,10.964,10.964,0,0,0-.052-4.187,2.058,2.058,0,0,1-.035-1.105c.555-1.844-.05-3.669-.053-5.5,0-1.69-.125-3.379-.2-5.069-.206-.01-.413-.012-.618-.016a15.871,15.871,0,0,1,.123-2.48c.049-.514.406-1.076.279-1.517-.605-2.1.156-4.269-.373-6.369a5.481,5.481,0,0,1,0-3.073,5.108,5.108,0,0,0,.007-1.737c-.045-.783-.108-1.567-.164-2.35-.041-.573-.069-1.148-.086-1.721a30.7,30.7,0,0,1,.469-4.631,6.263,6.263,0,0,0,.206-1.534,94.069,94.069,0,0,1-.06-9.991c.159-2.809-.3-5.6-.143-8.4.042-.765.109-1.53.173-2.293q.075-.956.143-1.91c.047-.665.066-1.332.107-2a7.941,7.941,0,0,1,.144-1.762,3.549,3.549,0,0,0-.151-2.8,1.3,1.3,0,0,1-.127-.648c.141-2.365-.143-4.734.132-7.106a25.6,25.6,0,0,0-.082-3.761,5.11,5.11,0,0,1-.047-1.544,9.845,9.845,0,0,0,.068-3.535,80.463,80.463,0,0,1,.344-11.761,10.964,10.964,0,0,0-.052-4.187,2.058,2.058,0,0,1-.035-1.105c.555-1.844-.05-3.669-.053-5.5,0-.269-.018-.538-.023-.806.144.019.287.029.433.049a5.674,5.674,0,0,0-.092-1.933,14.159,14.159,0,0,1-.092-3.682c0-.512.179-1.024.181-1.537,0-1.106-.189-2.224.46-3.245a1.07,1.07,0,0,0,.068-.65c-.139-1.1-.279-2.2-.461-3.3-.174-1.041-.36-2.081-.547-3.12a.531.531,0,0,0-.034-.97c-.056-.033-.075-.085-.127-.12-.015-.01-.022-.026-.036-.036a2.589,2.589,0,0,1-1.117-1.805,1.983,1.983,0,0,0-.365-.916,16.969,16.969,0,0,1-1.007-1.713,2.969,2.969,0,0,1-.669-2.028c.04-.35-.179-.728-.144-1.081a3.168,3.168,0,0,0-.639-2.176,1.627,1.627,0,0,1-.263-.591,2.257,2.257,0,0,0-.592-1.043c-.085-.1-.165-.2-.25-.3-.654-.77-1.3-1.551-1.945-2.327-.165-.2-.35-.378-.508-.583a11.191,11.191,0,0,1-1.173-1.59,7.131,7.131,0,0,0-1.24-1.68,3.666,3.666,0,0,1-.656-.874,1.537,1.537,0,0,0-1.045-.908.9.9,0,0,1-.438-.305,4.459,4.459,0,0,0-1.227-1.252c-.141-.079-.219-.288-.312-.448a4.269,4.269,0,0,0-.363-.682,3.071,3.071,0,0,1-.677-1.484,2.354,2.354,0,0,0-1-1.669,2.274,2.274,0,0,1-.933-1.18c-.134-.3-.27-.6-.418-.928a1.57,1.57,0,0,1-.86-.259,2.387,2.387,0,0,0-1.23-.9,9.745,9.745,0,0,1-3.532-2.342c-.665-.576-1.308-1.177-1.962-1.766,0-.049.031-.1.006-.148a.4.4,0,0,1-.046-.212,1.692,1.692,0,0,0-.269-.925c-.251-.09-.506-.178-.575-.484a.1.1,0,0,0-.058-.063l0,0a.819.819,0,0,1-.4-.5.52.52,0,0,0-.13-.18c-.251-.222-.51-.436-.787-.672-.009-.037,0-.132-.044-.177-.222-.224-.4-.517-.761-.559a.4.4,0,0,1-.317-.213,1.471,1.471,0,0,0-.937-.692,1.066,1.066,0,0,1-.529-.351,1.26,1.26,0,0,0-.405.784,1.138,1.138,0,0,1,.4-.787c-.033-.036-.071-.065-.1-.1a1.511,1.511,0,0,0-.789-.523,1.193,1.193,0,0,1-.581-.306c-.139-.15-.343-.158-.518-.233a4.927,4.927,0,0,1-.518-.327.687.687,0,0,0-.216-.045c-.1-.018-.206-.035-.307-.05a.755.755,0,0,1-.474-.214.821.821,0,0,0-.433-.212,1.216,1.216,0,0,1-.491-.283,2.055,2.055,0,0,0-1.089-1.243c0-.038-.022-.069-.026-.108,0-.282-.01-.564-.022-.845-1.51-.069-3.019-.162-4.529-.185a.678.678,0,0,1-.25-.042.891.891,0,0,0-.48-.032c-.085.011-.17.019-.255.03-1.683-.083-3.362-.536-5.058-.026a2.031,2.031,0,0,1-1.1-.035,10.97,10.97,0,0,0-4.188-.052,80.445,80.445,0,0,1-11.76.344,9.879,9.879,0,0,0-3.537.068,5.1,5.1,0,0,1-1.542-.047,25.9,25.9,0,0,0-3.762-.082c-2.371.275-4.74-.009-7.105.132a1.3,1.3,0,0,1-.649-.127,3.551,3.551,0,0,0-2.8-.151,8.02,8.02,0,0,1-1.763.145c-.665.04-1.331.059-2,.107-.637.046-1.274.091-1.911.143-.764.063-1.528.13-2.294.172-2.8.156-5.589-.3-8.4-.143a93.785,93.785,0,0,1-9.99-.06,6.319,6.319,0,0,0-1.535.206,30.945,30.945,0,0,1-4.631.47q-.861-.027-1.72-.087c-.785-.056-1.567-.119-2.351-.163a5.1,5.1,0,0,0-1.736.006,5.481,5.481,0,0,1-3.073,0c-2.1-.528-4.265.233-6.371-.373-.44-.127-1,.23-1.516.279a14.526,14.526,0,0,1-2.648.124c-1.462-.133-2.911-.426-4.369-.612a3.527,3.527,0,0,0-1.1.1c-2.03.406-4.132,0-6.148.542a.538.538,0,0,1-.222-.006,29.374,29.374,0,0,0-4.652-.043c-.957-.027-1.914-.1-2.87-.16a15.792,15.792,0,0,0-2.217-.126c-1.77.145-3.565-.1-5.314.374a3.7,3.7,0,0,1-1.1-.019c-1.523-.079-3.047-.189-4.571-.236-.254-.007-.509-.027-.765-.03-1.832-.021-3.649-.643-5.5-.106-.016,0-.033,0-.049,0a25.519,25.519,0,0,0,.4,4.907.517.517,0,0,1-.006.221c-.025.133-.025.265-.042.4.1.011.2.015.3.027.8.094,1.579.348,2.375.476a5.249,5.249,0,0,0,1.509.072c.507-.067,1.012-.152,1.517-.233.954-.156,1.907-.316,2.864-.445a5.421,5.421,0,0,1,1.771.026c.389.08.715.446,1.075.673a2.6,2.6,0,0,0,.384.159c.332-.377.669-.757,1.055-1.2,1.433.392,2.91.273,4.357.64a7.483,7.483,0,0,0,3.5.187,14.2,14.2,0,0,1,3.682-.093c.513,0,1.025.179,1.538.182,1.105,0,2.224-.189,3.244.459a1.063,1.063,0,0,0,.65.069c1.1-.14,2.2-.28,3.3-.461,1.675-.279,3.342-.6,5.015-.878a2.272,2.272,0,0,1,.876.045c3.133.742,6.343-.134,9.482.45.137.026.292-.061.439-.066.438-.017.879-.044,1.318-.052a6.094,6.094,0,0,1,.676.007,18.907,18.907,0,0,0,3.752-.077,7.519,7.519,0,0,1,3.306-.069,1.194,1.194,0,0,0,.847-.1,2.7,2.7,0,0,1,1.451-.253,3.144,3.144,0,0,0,2.047,1.142,5.636,5.636,0,0,0,3.677-.5,3.11,3.11,0,0,1,.567-.291,4.366,4.366,0,0,1,.614.125,9.2,9.2,0,0,0,5.46.212,4.124,4.124,0,0,1,1.742-.125,20.059,20.059,0,0,0,5.666-.253l.062-.091a1.722,1.722,0,0,1,.523.364,1.25,1.25,0,0,0,1.046.082,9.953,9.953,0,0,1,3.938-.535,2.007,2.007,0,0,0,.86-.171,6.192,6.192,0,0,1,3.913-.176,2.743,2.743,0,0,0,1.083.182,11.961,11.961,0,0,1,4.894.2c.779.172,1.555.372,2.325.61a4.163,4.163,0,0,0,2.824,0c.483-.184,1-.289,1.5-.436a15.291,15.291,0,0,1,7.671-.6,9.669,9.669,0,0,0,1.764.04c2.059.047,4.132.015,6.02,1.062a10.363,10.363,0,0,0,1.067.445,8.535,8.535,0,0,0,.856-.719c.295-.317.535-.683.795-1.025.588-.021,1.107-.085,1.62-.05,1.7.118,3.4.244,5.1.425.8.086,1.581.333,2.379.453a5.286,5.286,0,0,0,1.51.058c1.112-.159,2.221-.363,3.33-.548a1.009,1.009,0,0,0,.344.2.812.812,0,0,1,.433.211.755.755,0,0,0,.474.214c.1.016.2.032.307.05a.71.71,0,0,1,.216.046,5.1,5.1,0,0,0,.518.327c.175.074.379.082.518.232a1.189,1.189,0,0,0,.581.306,1.507,1.507,0,0,1,.789.524,1.205,1.205,0,0,0,.633.454,1.466,1.466,0,0,1,.937.693.4.4,0,0,0,.317.212c.362.042.539.336.762.56.045.044.036.14.043.177.277.236.536.45.787.671a.539.539,0,0,1,.13.18.82.82,0,0,0,.406.5l0,0a.107.107,0,0,1,.057.063c.069.307.324.4.575.484a1.689,1.689,0,0,1,.269.925.408.408,0,0,0,.046.212c.027.053,0,.1-.006.148.653.59,1.3,1.191,1.962,1.767a9.76,9.76,0,0,0,3.533,2.341,2.4,2.4,0,0,1,1.231.905,1.55,1.55,0,0,0,.858.258c.148.329.284.627.418.929a2.279,2.279,0,0,0,.933,1.18,2.346,2.346,0,0,1,1,1.669,3.084,3.084,0,0,0,.677,1.484,4.268,4.268,0,0,1,.364.682c.092.16.17.368.311.448a4.455,4.455,0,0,1,1.227,1.251.883.883,0,0,0,.439.305,1.537,1.537,0,0,1,1.044.909,3.663,3.663,0,0,0,.657.874,7.1,7.1,0,0,1,1.239,1.68,11.305,11.305,0,0,0,1.173,1.59c.158.2.343.386.508.583.731.875,1.452,1.76,2.195,2.625a2.252,2.252,0,0,1,.592,1.043,1.657,1.657,0,0,0,.262.591,3.163,3.163,0,0,1,.642,2.175c-.037.353.182.731.142,1.082a2.975,2.975,0,0,0,.669,2.029c.339.52.562,1.11.947,1.617-.142,1.014-.309,2.026-.438,3.042a3.518,3.518,0,0,0,.105,1.1c.407,2.03,0,4.132.542,6.149a.521.521,0,0,1-.006.222,29.491,29.491,0,0,0-.043,4.652c0,.158-.019.316-.027.475-.207,1.392-.486,2.774-.685,4.168a5.289,5.289,0,0,0,.058,1.51c.121.8.368,1.578.453,2.379.182,1.7.306,3.4.426,5.1.035.512-.03,1.032-.05,1.619-.343.261-.708.5-1.026.795a8.793,8.793,0,0,0-.72.856,10.606,10.606,0,0,0,.446,1.068c1.047,1.887,1.014,3.96,1.063,6.02a9.672,9.672,0,0,0,.039,1.764,15.277,15.277,0,0,1-.6,7.67c-.147.5-.251,1.013-.435,1.5a4.163,4.163,0,0,0-.007,2.824c.239.771.44,1.546.611,2.326a11.96,11.96,0,0,1,.2,4.894,2.752,2.752,0,0,0,.182,1.083,6.2,6.2,0,0,1-.177,3.913,1.982,1.982,0,0,0-.17.858,9.954,9.954,0,0,1-.536,3.939,1.249,1.249,0,0,0,.083,1.047,1.71,1.71,0,0,1,.364.523l-.091.061a20.1,20.1,0,0,0-.254,5.666,4.1,4.1,0,0,1-.125,1.741,9.2,9.2,0,0,0,.212,5.462,4.281,4.281,0,0,1,.125.614,3.194,3.194,0,0,1-.29.566,5.64,5.64,0,0,0-.5,3.678,3.144,3.144,0,0,0,1.143,2.046,2.694,2.694,0,0,1-.254,1.451,1.187,1.187,0,0,0-.1.846,7.527,7.527,0,0,1-.07,3.308,18.98,18.98,0,0,0-.077,3.752,6.09,6.09,0,0,1,.008.676c-.009.438-.036.879-.052,1.317,0,.148-.092.3-.066.438.584,3.141-.292,6.35.449,9.483a2.3,2.3,0,0,1,.046.877c-.28,1.672-.6,3.339-.879,5.013-.181,1.095-.321,2.2-.461,3.3a1.077,1.077,0,0,0,.069.65c.649,1.021.454,2.139.459,3.245,0,.513.182,1.025.182,1.537a25.17,25.17,0,0,1,.019,2.985c-.188.209-.362.427-.559.664.122.3.223.546.333.8a8.762,8.762,0,0,0,.3,2.738c.367,1.447.249,2.923.64,4.356l-1.2,1.055a2.4,2.4,0,0,0,.159.383,3.9,3.9,0,0,1,.672,1.076,5.367,5.367,0,0,1,.026,1.771c-.128.957-.288,1.911-.445,2.865.28,0,.559.011.837.018-.115.488-.232.976-.377,1.462s-.251,1.013-.435,1.5a4.163,4.163,0,0,0-.007,2.824c.239.771.44,1.546.611,2.326a11.96,11.96,0,0,1,.2,4.894,2.752,2.752,0,0,0,.182,1.083,6.2,6.2,0,0,1-.177,3.913,1.982,1.982,0,0,0-.17.858,9.954,9.954,0,0,1-.536,3.939,1.249,1.249,0,0,0,.083,1.047,1.71,1.71,0,0,1,.364.523l-.091.061a20.1,20.1,0,0,0-.254,5.666,4.1,4.1,0,0,1-.125,1.741,9.2,9.2,0,0,0,.212,5.462,4.281,4.281,0,0,1,.125.614,3.194,3.194,0,0,1-.29.566,5.64,5.64,0,0,0-.5,3.678,3.144,3.144,0,0,0,1.143,2.046,2.694,2.694,0,0,1-.254,1.451,1.187,1.187,0,0,0-.1.846,7.527,7.527,0,0,1-.07,3.308,18.98,18.98,0,0,0-.077,3.752,6.09,6.09,0,0,1,.008.676c-.009.438-.036.879-.052,1.317,0,.148-.092.3-.066.438.584,3.141-.292,6.35.449,9.483a2.3,2.3,0,0,1,.046.877c-.28,1.672-.6,3.339-.879,5.013-.181,1.1-.321,2.2-.461,3.3a1.077,1.077,0,0,0,.069.65c.649,1.021.454,2.139.459,3.245,0,.513.182,1.025.182,1.537a14.2,14.2,0,0,1-.093,3.682,7.488,7.488,0,0,0,.187,3.5c0,.014,0,.029.008.043-1.171-2.757-2.137-5.592-3.042-8.45a10.963,10.963,0,0,0-1.656-3.846,2.039,2.039,0,0,1-.454-1.007c-.2-1.916-1.454-3.368-2.16-5.06-.652-1.56-1.413-3.073-2.131-4.605a20.72,20.72,0,0,1-4.306,1.4.53.53,0,0,0-.2.09c-.1.064-.206.108-.305.167a5.467,5.467,0,0,1,.621,1.5c.368,1.432.646,2.886,1.014,4.316a5.284,5.284,0,0,0,.632,1.373c.419.691.946,1.317,1.332,2.023.818,1.5,1.587,3.021,2.349,4.547a16.17,16.17,0,0,1,.575,1.514c-.216.372-.462.734-.643,1.128a8.968,8.968,0,0,0-.335,1.066,10.471,10.471,0,0,0,.822.816c1.691,1.341,2.455,3.267,3.29,5.152a9.444,9.444,0,0,0,.713,1.614,15.286,15.286,0,0,1,2.389,7.312c.056.518.156,1.033.171,1.55a4.179,4.179,0,0,0,1.078,2.611c.515.62,1,1.259,1.457,1.913l.047.073c.017-.034.044-.053.058-.09.1-.251.6-.454.934-.477a10.6,10.6,0,0,0,2.708-.591c.178.145.36.282.525.445a.538.538,0,0,0,.2.1c.111.038.211.1.319.137a5.492,5.492,0,0,1,.8-1.418c.9-1.173,1.871-2.289,2.77-3.462a5.245,5.245,0,0,0,.689-1.345c.286-.755.454-1.556.771-2.3.673-1.567,1.4-3.113,2.128-4.654a15.632,15.632,0,0,1,.836-1.388c.426-.06.864-.089,1.284-.19a9.022,9.022,0,0,0,1.046-.394,10.492,10.492,0,0,0,.135-1.15c.011-2.158,1.054-3.948,2.022-5.769a9.449,9.449,0,0,0,.83-1.556,15.282,15.282,0,0,1,4.28-6.394c.372-.363.716-.76,1.113-1.091a4.163,4.163,0,0,0,1.388-2.46c.17-.788.375-1.562.607-2.327.008-.028.02-.054.029-.082A.967.967,0,0,0,679.462,440.638Z"/><path class="cls-1" d="M396.847,197.806c1.094.164,2.195.291,3.3.417a1.16,1.16,0,0,0,.65-.062,6.166,6.166,0,0,1,3.245-.416c.512,0,1.024-.164,1.537-.165a15.706,15.706,0,0,1,3.682.084,8.225,8.225,0,0,0,3.5-.169c1.448-.332,2.924-.224,4.357-.579.386.4.723.742,1.055,1.083a2.617,2.617,0,0,0,.384-.144,3.936,3.936,0,0,1,1.075-.609,5.935,5.935,0,0,1,1.771-.023c.957.116,1.911.262,2.864.4.5.073,1.011.149,1.517.21a5.72,5.72,0,0,0,1.51-.065c.8-.116,1.575-.346,2.374-.431.1-.01.2-.014.3-.024-.017-.12-.017-.239-.042-.359a.428.428,0,0,1-.006-.2,20.959,20.959,0,0,0,.4-4.441c-.015,0-.033,0-.048,0-1.851-.485-3.669.078-5.5.1-.256,0-.511.02-.765.027-1.524.042-3.048.142-4.571.213a4.067,4.067,0,0,1-1.105.018,31.484,31.484,0,0,0-5.314-.339,17.253,17.253,0,0,0-2.217.114c-.955.052-1.913.12-2.87.145a32.379,32.379,0,0,0-4.651.039.6.6,0,0,1-.223,0c-2.016-.494-4.118-.123-6.148-.49a3.841,3.841,0,0,0-1.1-.1c-1.459.169-2.908.434-4.37.554a15.993,15.993,0,0,1-2.648-.112c-.515-.044-1.076-.367-1.516-.252-2.106.548-4.271-.141-6.371.337a6.037,6.037,0,0,1-3.073,0,5.576,5.576,0,0,0-1.736-.006c-.784.039-1.566.1-2.351.148q-.858.054-1.72.078a33.91,33.91,0,0,1-4.631-.426,6.935,6.935,0,0,0-1.535-.186c-3.33.152-6.663.223-9.99.054-2.81-.143-5.6.271-8.4.13-.766-.038-1.53-.1-2.294-.156-.636-.047-1.274-.088-1.911-.13-.665-.043-1.331-.06-2-.1a8.829,8.829,0,0,1-1.763-.132,3.9,3.9,0,0,0-2.8.137,1.41,1.41,0,0,1-.648.115c-2.366-.128-4.735.13-7.106-.119a28.537,28.537,0,0,0-3.762.074,5.666,5.666,0,0,1-1.542.043,9.2,9.2,0,0,0-3.145-.09,9.876,9.876,0,0,0-.7-1.236c.1-.208.187-.418.305-.619a.548.548,0,0,0,.052-.215c.01-.117.04-.227.056-.342a5.529,5.529,0,0,1-1.571-.434c-1.356-.587-2.675-1.26-4.031-1.846a5.26,5.26,0,0,0-1.471-.344c-.8-.093-1.62-.061-2.415-.19-1.683-.272-3.359-.6-5.032-.935a16.163,16.163,0,0,1-1.549-.474c-.161-.4-.3-.816-.5-1.2a9.028,9.028,0,0,0-.636-.92,10.679,10.679,0,0,0-1.149.149c-2.1.512-4.087-.066-6.087-.563a9.485,9.485,0,0,0-1.712-.427,15.275,15.275,0,0,1-7.24-2.6c-.443-.273-.911-.51-1.329-.815a4.173,4.173,0,0,0-2.723-.75c-.806.026-1.607.015-2.4-.024l-.086-.008a.679.679,0,0,0,.036.1,1.245,1.245,0,0,1-.2,1.031,9.979,9.979,0,0,0-1.554,3.658,1.529,1.529,0,0,1-.146.4,41.576,41.576,0,0,1,4.957,1.452,25.905,25.905,0,0,0,3.65.913,5.05,5.05,0,0,1,1.5.362,9.867,9.867,0,0,0,3.393,1,80.621,80.621,0,0,1,11.254,3.434,10.98,10.98,0,0,0,4.053,1.053,2.325,2.325,0,0,1,.579.064,10.231,10.231,0,0,0-3.65.095,2.244,2.244,0,0,1-1.1.031c-1.7-.462-3.375-.051-5.058.023l-.255-.026a.976.976,0,0,0-.48.029.719.719,0,0,1-.25.037c-1.51.021-3.019.106-4.528.168-.013.254-.018.509-.023.765,0,.035-.021.064-.026.1a1.936,1.936,0,0,0-1.089,1.125,1.244,1.244,0,0,1-.491.256.858.858,0,0,0-.433.192.8.8,0,0,1-.474.194l-.307.045a.781.781,0,0,0-.216.041,5.147,5.147,0,0,1-.518.3,1.391,1.391,0,0,0-.518.21,1.218,1.218,0,0,1-.581.277,1.536,1.536,0,0,0-.789.474c-.029.033-.067.059-.1.091a1,1,0,0,1,.4.713,1.1,1.1,0,0,0-.4-.709,1.083,1.083,0,0,1-.529.317,1.465,1.465,0,0,0-.937.627.4.4,0,0,1-.317.192c-.362.038-.539.3-.761.507-.044.04-.035.127-.044.16-.277.214-.536.407-.787.608a.493.493,0,0,0-.13.162.765.765,0,0,1-.4.45l0,0a.094.094,0,0,0-.058.057c-.069.277-.324.357-.575.438a1.426,1.426,0,0,0-.269.837.326.326,0,0,1-.046.192c-.025.048,0,.09.006.134-.653.534-1.3,1.078-1.962,1.6a9.872,9.872,0,0,1-3.532,2.12,2.385,2.385,0,0,0-1.23.819,1.692,1.692,0,0,1-.86.234c-.148.3-.284.567-.417.84a2.113,2.113,0,0,1-.934,1.069,2.1,2.1,0,0,0-1,1.511,2.66,2.66,0,0,1-.677,1.343,3.727,3.727,0,0,0-.363.617c-.093.145-.171.334-.312.406a4.259,4.259,0,0,0-1.227,1.133.9.9,0,0,1-.438.276,1.5,1.5,0,0,0-1.044.822,3.363,3.363,0,0,1-.657.791,6.537,6.537,0,0,0-1.24,1.522,10.344,10.344,0,0,1-1.173,1.439c-.158.185-.343.35-.508.527-.647.7-1.291,1.41-1.945,2.107-.085.089-.165.181-.25.27a2,2,0,0,0-.592.944,1.421,1.421,0,0,1-.262.535,2.677,2.677,0,0,0-.64,1.97c.035.319-.184.662-.144.979a2.528,2.528,0,0,1-.669,1.836,15.281,15.281,0,0,1-1.006,1.55,1.693,1.693,0,0,0-.366.83,2.33,2.33,0,0,1-1.117,1.634c-.014.009-.021.023-.036.032-.052.032-.071.079-.127.108-.428.231-.445.658-.034.878-.187.942-.373,1.882-.547,2.826-.182.99-.321,1.988-.461,2.985a.887.887,0,0,0,.068.589c.649.923.455,1.936.46,2.937,0,.464.182.928.182,1.391,0,.671.072,1.332.067,2-.238-.008-.474-.013-.71-.032,0,.015,0,.033,0,.048-.485,1.851.078,3.669.1,5.5,0,.255.02.511.028.764.041,1.525.14,3.049.213,4.572a4.148,4.148,0,0,1,.018,1.105,31.277,31.277,0,0,0-.339,5.314,17.226,17.226,0,0,0,.113,2.216c.052.956.12,1.914.146,2.871a32.378,32.378,0,0,0,.038,4.651.622.622,0,0,1,.006.223c-.5,2.016-.123,4.118-.491,6.148a3.837,3.837,0,0,0-.095,1.1c.168,1.459.434,2.908.553,4.37a16,16,0,0,1-.112,2.648c-.044.514-.367,1.076-.252,1.516.548,2.106-.141,4.271.337,6.371a6.026,6.026,0,0,1,0,3.073,5.606,5.606,0,0,0-.006,1.736c.039.784.1,1.566.147,2.351q.057.858.079,1.72a33.909,33.909,0,0,1-.425,4.631,7,7,0,0,0-.187,1.535c.152,3.33.223,6.663.054,9.99-.143,2.809.271,5.6.13,8.4-.037.766-.1,1.53-.155,2.294-.047.636-.089,1.274-.131,1.911-.043.665-.059,1.33-.1,2a8.9,8.9,0,0,1-.131,1.763,3.9,3.9,0,0,0,.136,2.8,1.41,1.41,0,0,1,.115.648c-.128,2.365.13,4.734-.119,7.106a28.367,28.367,0,0,0,.075,3.762,5.664,5.664,0,0,1,.042,1.542,10.858,10.858,0,0,0-.062,3.537,88.762,88.762,0,0,1-.311,11.76,12.1,12.1,0,0,0,.047,4.188,2.244,2.244,0,0,1,.031,1.1c-.462,1.7-.05,3.374.024,5.058-.01.085-.017.17-.027.255a.988.988,0,0,0,.029.48.719.719,0,0,1,.038.25c.021,1.509.105,3.019.167,4.528.254.013.51.018.765.023.035,0,.064.021.1.026a1.935,1.935,0,0,0,1.123,1.089,1.228,1.228,0,0,1,.258.491.85.85,0,0,0,.192.433.8.8,0,0,1,.193.474c.015.1.029.2.045.307a.781.781,0,0,0,.041.216,4.97,4.97,0,0,1,.3.518,1.359,1.359,0,0,0,.21.518,1.248,1.248,0,0,1,.278.581,1.513,1.513,0,0,0,.472.788c.033.03.059.068.091.1a1,1,0,0,1,.714-.4,1.106,1.106,0,0,0-.71.4,1.067,1.067,0,0,1,.317.529,1.463,1.463,0,0,0,.628.937.4.4,0,0,1,.191.317c.038.362.3.539.507.761.04.044.127.035.161.044.213.277.406.536.607.787a.493.493,0,0,0,.162.13.765.765,0,0,1,.45.405l0,0a.1.1,0,0,0,.057.058c.278.068.358.324.438.575a1.431,1.431,0,0,0,.838.269.323.323,0,0,1,.191.046c.049.025.09,0,.135-.007.533.654,1.078,1.3,1.6,1.963a9.872,9.872,0,0,1,2.12,3.532,2.391,2.391,0,0,0,.819,1.23,1.683,1.683,0,0,1,.234.86c.3.148.568.284.84.417a2.116,2.116,0,0,1,1.069.933,2.1,2.1,0,0,0,1.511,1,2.652,2.652,0,0,1,1.343.677,3.727,3.727,0,0,0,.617.363c.145.093.334.171.406.312A4.273,4.273,0,0,0,276.517,405a.889.889,0,0,1,.276.438,1.5,1.5,0,0,0,.823,1.044,3.4,3.4,0,0,1,.791.657,6.532,6.532,0,0,0,1.521,1.24,10.41,10.41,0,0,1,1.44,1.173c.184.157.349.343.526.508.7.647,1.41,1.291,2.108,1.945.089.085.18.165.269.25a2.005,2.005,0,0,0,.945.592,1.424,1.424,0,0,1,.534.262,2.677,2.677,0,0,0,1.97.64c.319-.035.662.184.979.144a2.528,2.528,0,0,1,1.836.669,15.406,15.406,0,0,1,1.551,1.006,1.694,1.694,0,0,0,.829.366,2.328,2.328,0,0,1,1.634,1.117c.009.014.023.021.033.036.031.052.079.071.108.127.231.428.658.445.877.034.942.187,1.883.373,2.826.547.99.182,1.988.321,2.985.461a.881.881,0,0,0,.589-.069c.923-.648,1.936-.454,2.936-.459.465,0,.93-.182,1.393-.182a11.66,11.66,0,0,1,3.334.093,4.676,4.676,0,0,0,1.749.091c-.25-1.961-.443-3.911-.608-5.847-.783.055-1.566.121-2.351.145a24.077,24.077,0,0,0-4.211.043.428.428,0,0,1-.2.006c-1.825-.546-3.728-.136-5.567-.542a2.894,2.894,0,0,0-.995-.1c-.919.129-1.836.3-2.753.438-.459-.385-.993-.608-1.464-.947a2.532,2.532,0,0,0-1.837-.669c-.318.04-.659-.179-.979-.143a2.673,2.673,0,0,1-1.969-.641,1.45,1.45,0,0,0-.536-.263,1.985,1.985,0,0,1-.943-.591c-.783-.743-1.584-1.464-2.378-2.195-.178-.165-.341-.351-.527-.508a10.344,10.344,0,0,0-1.439-1.173A6.548,6.548,0,0,1,281.1,403.5a3.4,3.4,0,0,0-.791-.658,1.492,1.492,0,0,1-.823-1.043.893.893,0,0,0-.275-.439,4.249,4.249,0,0,1-1.134-1.227c-.072-.141-.26-.219-.406-.311a3.752,3.752,0,0,1-.616-.364,2.675,2.675,0,0,0-1.344-.677,2.1,2.1,0,0,1-1.511-1,2.123,2.123,0,0,0-1.068-.933c-.274-.133-.543-.269-.842-.417a1.666,1.666,0,0,0-.233-.859,2.389,2.389,0,0,1-.819-1.23,9.876,9.876,0,0,0-2.12-3.533c-.521-.664-1.065-1.309-1.6-1.963-.045,0-.087.033-.135.007a.334.334,0,0,0-.192-.046,1.426,1.426,0,0,1-.838-.269c-.08-.251-.16-.507-.438-.575a.1.1,0,0,1-.057-.057l0,0a.769.769,0,0,0-.45-.406.476.476,0,0,1-.162-.13c-.2-.251-.395-.51-.608-.787-.035-.008-.121,0-.162-.043-.2-.224-.468-.4-.5-.762a.4.4,0,0,0-.193-.317,1.459,1.459,0,0,1-.627-.937,1.227,1.227,0,0,0-.411-.634,1.524,1.524,0,0,1-.475-.788,1.228,1.228,0,0,0-.277-.581,1.39,1.39,0,0,1-.209-.518,5.565,5.565,0,0,0-.3-.518.708.708,0,0,1-.042-.216c-.016-.1-.032-.206-.046-.307a.794.794,0,0,0-.193-.474.84.84,0,0,1-.191-.433,1.032,1.032,0,0,0-.181-.344c.168-1.109.353-2.218.5-3.33a5.9,5.9,0,0,0-.052-1.511c-.109-.8-.333-1.579-.412-2.379-.162-1.7-.276-3.4-.383-5.1-.033-.513.025-1.033.044-1.62.31-.261.642-.5.928-.8a8.665,8.665,0,0,0,.652-.856,11.334,11.334,0,0,0-.4-1.067c-.948-1.888-.919-3.961-.962-6.021a10.649,10.649,0,0,0-.036-1.763,16.822,16.822,0,0,1,.541-7.672c.134-.5.229-1.013.395-1.5a4.572,4.572,0,0,0,0-2.824c-.216-.77-.4-1.546-.552-2.326a13.164,13.164,0,0,1-.179-4.894,3.021,3.021,0,0,0-.165-1.083,6.8,6.8,0,0,1,.16-3.912,2.186,2.186,0,0,0,.155-.86,10.916,10.916,0,0,1,.483-3.938,1.352,1.352,0,0,0-.075-1.046,1.767,1.767,0,0,1-.328-.523l.082-.062a22.1,22.1,0,0,0,.229-5.666,4.508,4.508,0,0,1,.114-1.742,10.111,10.111,0,0,0-.193-5.46,4.628,4.628,0,0,1-.112-.615,3.155,3.155,0,0,1,.263-.566,6.177,6.177,0,0,0,.452-3.678,3.238,3.238,0,0,0-1.035-2.046,2.967,2.967,0,0,1,.23-1.451,1.3,1.3,0,0,0,.088-.847,8.3,8.3,0,0,1,.063-3.306,20.921,20.921,0,0,0,.07-3.753c-.02-.223-.01-.449-.008-.675.009-.439.033-.88.049-1.318a2.479,2.479,0,0,0,.059-.439c-.528-3.14.264-6.349-.407-9.482a2.509,2.509,0,0,1-.041-.876c.253-1.673.542-3.34.8-5.015.164-1.094.291-2.2.418-3.3a1.169,1.169,0,0,0-.063-.65,6.166,6.166,0,0,1-.416-3.245c0-.513-.164-1.024-.165-1.537a15.654,15.654,0,0,1,.085-3.682,8.225,8.225,0,0,0-.169-3.5c-.332-1.448-.225-2.924-.58-4.357.4-.386.743-.723,1.084-1.055a2.734,2.734,0,0,0-.145-.384,3.95,3.95,0,0,1-.609-1.075,5.935,5.935,0,0,1-.023-1.771c.116-.957.262-1.911.4-2.864.073-.5.149-1.011.21-1.517a5.762,5.762,0,0,0-.064-1.51c-.021-.139-.055-.278-.08-.417.308-.028.622-.07.929-.1-.055-.783-.121-1.567-.145-2.351a24.077,24.077,0,0,0-.043-4.211.428.428,0,0,1-.006-.2c.546-1.826.136-3.729.542-5.567a2.894,2.894,0,0,0,.1-1c-.129-.919-.3-1.836-.438-2.753.385-.459.608-.993.947-1.465a2.53,2.53,0,0,0,.669-1.836c-.04-.318.179-.66.142-.98a2.677,2.677,0,0,1,.642-1.969,1.428,1.428,0,0,0,.262-.535,2,2,0,0,1,.592-.944c.743-.782,1.464-1.584,2.195-2.377.165-.178.35-.342.508-.527a10.4,10.4,0,0,0,1.173-1.439,6.507,6.507,0,0,1,1.239-1.522,3.379,3.379,0,0,0,.658-.79,1.5,1.5,0,0,1,1.043-.824.893.893,0,0,0,.439-.275,4.245,4.245,0,0,1,1.227-1.133c.141-.072.219-.262.311-.406a3.8,3.8,0,0,1,.364-.617,2.672,2.672,0,0,0,.677-1.343,2.1,2.1,0,0,1,1-1.511,2.122,2.122,0,0,0,.934-1.069c.133-.272.269-.543.417-.841a1.669,1.669,0,0,0,.858-.233,2.386,2.386,0,0,1,1.231-.819,9.89,9.89,0,0,0,3.533-2.12c.664-.521,1.309-1.065,1.962-1.6,0-.044-.033-.086-.006-.134a.334.334,0,0,0,.046-.192,1.424,1.424,0,0,1,.269-.838c.251-.08.506-.16.575-.438a.1.1,0,0,1,.057-.057l0,0a.765.765,0,0,0,.406-.449.49.49,0,0,1,.13-.164c.251-.2.51-.393.787-.607.007-.034,0-.12.043-.161.223-.2.4-.468.762-.506a.4.4,0,0,0,.317-.192,1.463,1.463,0,0,1,.937-.627,1.22,1.22,0,0,0,.633-.411,1.523,1.523,0,0,1,.789-.474,1.239,1.239,0,0,0,.581-.278,1.357,1.357,0,0,1,.518-.209,5.157,5.157,0,0,0,.518-.3.708.708,0,0,1,.216-.041c.1-.017.206-.031.307-.046a.794.794,0,0,0,.474-.193.84.84,0,0,1,.433-.191,1.051,1.051,0,0,0,.344-.181c1.109.168,2.218.353,3.33.5a5.843,5.843,0,0,0,1.51-.053c.8-.109,1.58-.333,2.38-.41,1.7-.164,3.4-.277,5.1-.385.513-.032,1.032.026,1.62.045.043.051.088.1.13.151-.438.353-.85.74-1.283,1.1a80.5,80.5,0,0,1-9.647,6.735,11,11,0,0,0-3.33,2.539,2.038,2.038,0,0,1-.865.686c-1.812.654-2.917,2.228-4.385,3.323-1.355,1.011-2.639,2.115-3.95,3.184a20.778,20.778,0,0,1,2.4,3.839.515.515,0,0,0,.137.173c.086.08.154.174.235.256a5.524,5.524,0,0,1,1.31-.968c1.3-.7,2.642-1.327,3.941-2.032a5.222,5.222,0,0,0,1.178-.946c.569-.573,1.049-1.237,1.64-1.782,1.253-1.156,2.546-2.273,3.842-3.382a15.854,15.854,0,0,1,1.329-.926c.413.119.824.271,1.249.349a8.769,8.769,0,0,0,1.116.068,10.712,10.712,0,0,0,.593-1c.89-1.966,2.573-3.175,4.2-4.443a9.45,9.45,0,0,0,1.393-1.082,15.277,15.277,0,0,1,6.515-4.093c.488-.179.964-.4,1.461-.542a3.85,3.85,0,0,0,1.7-1.083,17.2,17.2,0,0,1,7.262.588c.5.133,1.013.228,1.5.4a4.572,4.572,0,0,0,2.824,0c.77-.215,1.546-.4,2.326-.552a13.164,13.164,0,0,1,4.894-.178,3.021,3.021,0,0,0,1.083-.165,6.791,6.791,0,0,1,3.912.16,2.2,2.2,0,0,0,.86.154,10.961,10.961,0,0,1,3.938.484,1.352,1.352,0,0,0,1.046-.075,1.727,1.727,0,0,1,.523-.328c.023.029.039.051.062.082a22.1,22.1,0,0,0,5.666.229,4.526,4.526,0,0,1,1.742.113,10.1,10.1,0,0,0,5.46-.192,4.628,4.628,0,0,1,.615-.112,3.22,3.22,0,0,1,.566.262,6.162,6.162,0,0,0,3.678.452,3.237,3.237,0,0,0,2.046-1.034,2.944,2.944,0,0,1,1.451.23,1.308,1.308,0,0,0,.847.088,8.3,8.3,0,0,1,3.306.063,20.912,20.912,0,0,0,3.752.069c.224-.019.45-.01.676-.007.439.009.88.033,1.318.048a2.484,2.484,0,0,0,.439.06c3.139-.528,6.349.264,9.482-.407a2.485,2.485,0,0,1,.876-.041C393.505,197.263,395.172,197.553,396.847,197.806Z"/><path class="cls-1" d="M431.509,104.8a9.98,9.98,0,0,0-3.172-2.395,1.531,1.531,0,0,1-.349-.238,41.659,41.659,0,0,1-2.611,4.458,25.774,25.774,0,0,0-1.771,3.318,5.073,5.073,0,0,1-.715,1.369,9.836,9.836,0,0,0-1.791,3.049,80.45,80.45,0,0,1-6.062,10.084,10.978,10.978,0,0,0-2,3.677,2.046,2.046,0,0,1-.511.979,6,6,0,0,0-1.074,1.478c.054-1.1.007-2.2.1-3.295a15.624,15.624,0,0,0-.125-2.217c-.058-.956-.134-1.913-.16-2.87a29.491,29.491,0,0,0-.044-4.652.555.555,0,0,1-.006-.222c.546-2.017.136-4.119.542-6.149a3.519,3.519,0,0,0,.106-1.1c-.187-1.459-.479-2.907-.612-4.371a14.438,14.438,0,0,1,.123-2.647c.049-.514.406-1.076.279-1.517-.605-2.105.156-4.269-.373-6.369a5.481,5.481,0,0,1,0-3.073,5.108,5.108,0,0,0,.007-1.737c-.045-.783-.108-1.567-.164-2.35-.041-.573-.069-1.148-.086-1.721a30.7,30.7,0,0,1,.469-4.631,6.263,6.263,0,0,0,.206-1.534,94.069,94.069,0,0,1-.06-9.991c.159-2.809-.3-5.6-.143-8.4.042-.765.109-1.53.173-2.293q.075-.956.143-1.91c.047-.665.066-1.332.107-2a7.941,7.941,0,0,1,.144-1.762,3.549,3.549,0,0,0-.151-2.8,1.3,1.3,0,0,1-.127-.648c.141-2.365-.143-4.734.132-7.106a25.6,25.6,0,0,0-.082-3.761,5.11,5.11,0,0,1-.047-1.544,9.845,9.845,0,0,0,.068-3.535,80.463,80.463,0,0,1,.344-11.761,10.964,10.964,0,0,0-.052-4.187,2.058,2.058,0,0,1-.035-1.105c.555-1.844-.05-3.669-.053-5.5,0-1.69-.125-3.379-.2-5.069a20.753,20.753,0,0,1-4.514-.36.532.532,0,0,0-.221.006c-.116.022-.231.021-.346.037a5.525,5.525,0,0,1,0,1.629c-.209,1.463-.51,2.913-.719,4.375a5.289,5.289,0,0,0,.058,1.51c.121.8.368,1.578.453,2.379.182,1.7.306,3.4.426,5.1.035.512-.03,1.032-.05,1.619-.343.261-.708.5-1.026.795a8.793,8.793,0,0,0-.72.856,10.606,10.606,0,0,0,.446,1.068c1.047,1.887,1.014,3.96,1.063,6.02a9.672,9.672,0,0,0,.039,1.764,15.277,15.277,0,0,1-.6,7.67c-.147.5-.251,1.013-.435,1.5a4.163,4.163,0,0,0-.007,2.824c.239.771.44,1.546.611,2.326a11.96,11.96,0,0,1,.2,4.894,2.752,2.752,0,0,0,.182,1.083,6.2,6.2,0,0,1-.177,3.913,1.982,1.982,0,0,0-.17.858,9.954,9.954,0,0,1-.536,3.939A1.249,1.249,0,0,0,405.9,63.6a1.71,1.71,0,0,1,.364.523l-.091.061a20.1,20.1,0,0,0-.254,5.666,4.1,4.1,0,0,1-.125,1.741,9.2,9.2,0,0,0,.212,5.462,4.281,4.281,0,0,1,.125.614,3.194,3.194,0,0,1-.29.566,5.64,5.64,0,0,0-.5,3.678,3.144,3.144,0,0,0,1.143,2.046,2.694,2.694,0,0,1-.254,1.451,1.187,1.187,0,0,0-.1.846,7.527,7.527,0,0,1-.07,3.308,18.98,18.98,0,0,0-.077,3.752,6.09,6.09,0,0,1,.008.676c-.009.438-.036.879-.052,1.317,0,.148-.092.3-.066.438.584,3.141-.292,6.35.449,9.483a2.3,2.3,0,0,1,.046.877c-.28,1.672-.6,3.339-.879,5.013-.181,1.095-.321,2.2-.461,3.3a1.077,1.077,0,0,0,.069.65c.649,1.021.454,2.139.459,3.245,0,.513.182,1.025.182,1.537a14.2,14.2,0,0,1-.093,3.682c-.028.111-.033.231-.05.346-1.061-2.569-1.958-5.2-2.8-7.85a10.963,10.963,0,0,0-1.656-3.846,2.039,2.039,0,0,1-.454-1.007c-.2-1.916-1.454-3.368-2.16-5.06-.652-1.56-1.413-3.073-2.131-4.6a20.72,20.72,0,0,1-4.306,1.4.53.53,0,0,0-.2.09c-.1.064-.206.108-.305.167a5.467,5.467,0,0,1,.621,1.5c.368,1.432.646,2.886,1.014,4.316a5.284,5.284,0,0,0,.632,1.373c.419.691.946,1.317,1.332,2.023.818,1.5,1.587,3.021,2.349,4.547a16.17,16.17,0,0,1,.575,1.514c-.216.372-.462.734-.643,1.128a8.968,8.968,0,0,0-.335,1.066,10.471,10.471,0,0,0,.822.816c1.691,1.341,2.455,3.267,3.29,5.152a9.444,9.444,0,0,0,.713,1.614,15.286,15.286,0,0,1,2.389,7.312c.056.518.156,1.033.171,1.55a4.179,4.179,0,0,0,1.078,2.611c.515.62,1,1.259,1.457,1.913l.047.073c.017-.034.044-.053.058-.09.1-.251.6-.454.934-.477a10.6,10.6,0,0,0,2.708-.591c.178.145.36.282.525.445a.538.538,0,0,0,.2.1c.111.038.211.095.319.137a5.492,5.492,0,0,1,.8-1.418c.9-1.173,1.871-2.289,2.77-3.462a5.245,5.245,0,0,0,.689-1.345c.286-.755.454-1.556.771-2.3.673-1.567,1.4-3.113,2.128-4.654a15.632,15.632,0,0,1,.836-1.388c.426-.06.864-.089,1.284-.19a9.022,9.022,0,0,0,1.046-.394,10.492,10.492,0,0,0,.135-1.15c.011-2.158,1.054-3.948,2.022-5.769a9.449,9.449,0,0,0,.83-1.556,15.282,15.282,0,0,1,4.28-6.394c.372-.363.716-.76,1.113-1.091a4.163,4.163,0,0,0,1.388-2.46c.17-.788.375-1.562.607-2.327.008-.028.02-.054.029-.082a.967.967,0,0,0-.107.01C432.2,105.315,431.732,105.044,431.509,104.8Z"/><path class="cls-2" d="M544.268,376.047a5,5,0,0,0-4.8-2.49,24.227,24.227,0,0,1-3.167-.086,112.832,112.832,0,0,0-11.512-.839c-.056-.017-.115-.025-.171-.041a2.5,2.5,0,0,1-.268-.126.309.309,0,0,0-.106-.009c-.05,0-.1,0-.151-.006a.366.366,0,0,1-.239-.075.4.4,0,0,0-.221-.075.553.553,0,0,1-.327-.14,1.585,1.585,0,0,0-.317-.251.354.354,0,0,1-.226-.308.1.1,0,0,0-.172-.08.5.5,0,0,1-.45.054.365.365,0,0,0-.19-.015,3.109,3.109,0,0,1-.383.027.572.572,0,0,1-.411-.058c-.057-.037-.141-.031-.2-.068a.613.613,0,0,0-.432-.076.309.309,0,0,1-.125,0,.46.46,0,0,0-.233.013c-.214.055-.429.1-.644.156-.048.012-.1.028-.145.038a2.119,2.119,0,0,1-.376.067,1.37,1.37,0,0,0-.4.071.689.689,0,0,1-.209.039.3.3,0,0,0-.246.1.183.183,0,0,1-.091.051.831.831,0,0,0-.322.105.22.22,0,0,1-.105.015.92.92,0,0,0-.149,0,.605.605,0,0,1-.316-.01.456.456,0,0,0-.376.03.434.434,0,0,1-.285.061l-.2-.007a.36.36,0,0,1-.192.171,1.263,1.263,0,0,0-.179.145c-.062.045-.134.077-.2.12-.021.014-.033.046-.051.067-.034.039-.066.079-.1.12a11.95,11.95,0,0,1-2.069-.226c-1.455-.3-2.923-.553-4.39-.79a4.011,4.011,0,0,0-1.879-.125,13.7,13.7,0,0,1-6.9.5,3.647,3.647,0,0,0-1.572.192,11.077,11.077,0,0,1-6.24.235,3.29,3.29,0,0,0-.951-.055,99.661,99.661,0,0,1-10.472.048,26.067,26.067,0,0,1-7.789-1.321,2.727,2.727,0,0,0-2.7.211,6.575,6.575,0,0,1-3.3.974,20.881,20.881,0,0,1-8.726-1.353,1.735,1.735,0,0,0-.607.034c-.445.551-.89,1.1-1.563,1.931-1.555-1.537-3.394-.921-5.169-.926-.634,0-1.269.1-1.9.076a100.646,100.646,0,0,0-13.945.254,14.169,14.169,0,0,1-5.929-.553c-2.586-.848-5.311-1.481-8.092-.4a6.475,6.475,0,0,1-2.52.193,36.11,36.11,0,0,0-9.431,1.229,11.312,11.312,0,0,1-4.352.162c-3.246-.484-6.4-1.576-9.738-1.5a3.039,3.039,0,0,1-1.2-.386,4.384,4.384,0,0,0-3.559-.494c-1.518.5-3.358.182-5.029-.018s-3.4.041-4.98-.786a1.085,1.085,0,0,0-.915.055c-1.038.66-1.943.333-3-.059a21.547,21.547,0,0,0-3.631-.729,2.379,2.379,0,0,0-.657.316c-1.317,1.386-2.86,1.458-4.672,1.18-3.213-.493-6.468-.715-9.541-1.033-.358.38-.577.817-.878.885-.5.113-1.11-.175-1.568-.006a4.033,4.033,0,0,1-3.651-.1,1.035,1.035,0,0,0-.918,0c-1.624,1.193-3.7.912-5.426,1.713a4.228,4.228,0,0,1-2.783.321,11.279,11.279,0,0,0-5.67.223,3.564,3.564,0,0,1-3.047-.313,2.684,2.684,0,0,0-2.452-.082c-.1.036-.193.049-.288.082a1.868,1.868,0,0,1-.228-.029.668.668,0,0,0-.481.026,1.3,1.3,0,0,1-.34.08.155.155,0,0,1-.136-.033.456.456,0,0,0-.365-.1c-.137,0-.275,0-.412.007a.258.258,0,0,0-.1.021,1.762,1.762,0,0,0-.534.309.353.353,0,0,1-.2.1c-.077.014-.155.031-.232.048a13.079,13.079,0,0,1-2.021-.192c-4.235-.762-8.431-.319-12.549.037-1.249,1.628-3.149,2.292-4.256,3.847-2.083.493-3.4,2.14-4.751,3.53a12.027,12.027,0,0,1-4.465,2.819,13.43,13.43,0,0,0-1.464.623,1.516,1.516,0,0,0-.8,2.138,10.139,10.139,0,0,1,1.1,3.592,16.019,16.019,0,0,1,.58,3.7,3.727,3.727,0,0,0,.591,2.11,4.968,4.968,0,0,1,.717,3.937,17.524,17.524,0,0,0-.062,1.9,15.292,15.292,0,0,1-.423,2.452,11.6,11.6,0,0,1-1,2.666,3.267,3.267,0,0,0,.139,3.849,2.624,2.624,0,0,1,.241,2.811,3.651,3.651,0,0,1-.438.709,3.524,3.524,0,0,0-.382.707,13.609,13.609,0,0,0,3.8,8.321c2.635.247,2.58.265,3.425,2.964a8.069,8.069,0,0,1,.326,2.786,38.168,38.168,0,0,0,.343,4.445,49.033,49.033,0,0,0,4.959,1.45,22.568,22.568,0,0,0,4.423.233c3.275-.05,6.532.635,9.813.2a4.9,4.9,0,0,1,1.268-.02,8.271,8.271,0,0,0,5.967-1.513,6.978,6.978,0,0,1,2.7-.756c2.023-.346,4,.128,6,.341a47.1,47.1,0,0,0,6.017-.092c.1,0,.213.048.315.036,3.264-.39,6.5,1.078,9.792.1a5.466,5.466,0,0,1,2.2.154c.946.14,1.888.318,2.816.541a5.913,5.913,0,0,0,4.328-.263,3.008,3.008,0,0,1,3.05.086,5.168,5.168,0,0,0,3.4.459,3.122,3.122,0,0,1,2.911.939c1.061,1.228,2.652,1.286,4.017,1.763.814.285,1.858-.086,2.8-.161.935-1.47,2.872-1.2,3.824-2.364a15.13,15.13,0,0,1,5.022,2.423,8.962,8.962,0,0,0,5.439,1.415c1.8-.047,3.6-.042,5.4-.052a4.037,4.037,0,0,0,3.437-1.3,4.914,4.914,0,0,1,3.347-1.576c5.323-.892,10.566-.217,15.808.644a2.65,2.65,0,0,1,.923.23c1.845,1.1,3.841.982,5.857.8a8.41,8.41,0,0,1,5.259.906,10.951,10.951,0,0,0,6.7,1.4,21.087,21.087,0,0,1,8.679,1.4,7.185,7.185,0,0,0,4.958.208,6.2,6.2,0,0,1,4.622.247c1.434.528,2.725,1.143,4.242.326a1.554,1.554,0,0,1,1.218.045c1.831.88,3.513.253,5.2-.406.687-.268,1.39-.84,2.041-.783,2.066.184,4.252-.613,6.2.776a2.321,2.321,0,0,0,2.424-.071c1.044-.5,2.161-.835,3.234-1.273a3.337,3.337,0,0,0,1.353-.718c1.373-1.7,3.235-1.616,4.926-1.076a9.578,9.578,0,0,0,3.4.4c2.283-.085,4.487-.4,6.845.289,2.2.647,4.627,1.378,7.082.407.591-.233,1.44.239,2.178.3.622.053,1.467.237,1.847-.079,1.6-1.324,3.548-1.328,5.4-1.608a11.89,11.89,0,0,1,6.757.8,3.855,3.855,0,0,0,2.748.32c1.02-.274,2.074-.424,3.112-.63a2.707,2.707,0,0,0,2.3-1.933,8.742,8.742,0,0,1,.91-1.613l3.4-18.171q3.4-18.187,6.8-36.374A29.66,29.66,0,0,1,544.268,376.047Z"/><path class="cls-2" d="M488.847,191.953c-.1-.965-.025-1.945-.047-2.918a56.792,56.792,0,0,0-.182-5.813,47.081,47.081,0,0,1-.436-7.228,1.661,1.661,0,0,1-.055-.778c.039-.2.077-.406.107-.611,0-.03.01-.059.011-.089a3.355,3.355,0,0,0,.031-.639,1.374,1.374,0,0,1,.167-.86,1.09,1.09,0,0,1,.3-.319.344.344,0,0,0-.078-.627c-.038-.018-.053-.05-.089-.069a1.674,1.674,0,0,1-.857-1.1,1.278,1.278,0,0,0-.293-.564,11.244,11.244,0,0,1-.756-1.031,1.921,1.921,0,0,1-.559-1.256c0-.227-.161-.456-.161-.684a2.037,2.037,0,0,0-.55-1.352,1.07,1.07,0,0,1-.207-.361,1.441,1.441,0,0,0-.446-.63c-.532-.506-1.051-1.027-1.575-1.54-.118-.116-.249-.22-.363-.341a7.146,7.146,0,0,1-.854-.942,4.563,4.563,0,0,0-.9-1,2.363,2.363,0,0,1-.478-.517.984.984,0,0,0-.727-.514.578.578,0,0,1-.3-.167,2.877,2.877,0,0,0-.866-.723c-.1-.042-.16-.17-.229-.267a2.756,2.756,0,0,0-.277-.413,1.97,1.97,0,0,1-.529-.907,1.51,1.51,0,0,0-.75-1,1.477,1.477,0,0,1-.673-.7c-.1-.184-.212-.367-.328-.568a1,1,0,0,1-.566-.11,1.547,1.547,0,0,0-.846-.5,6.275,6.275,0,0,1-2.414-1.272c-.463-.326-.914-.669-1.371-1,0-.03.014-.063,0-.095a.248.248,0,0,1-.044-.133,1.078,1.078,0,0,0-.232-.574c-.166-.041-.336-.082-.4-.273a.066.066,0,0,0-.041-.037l0,0a.533.533,0,0,1-.292-.292.344.344,0,0,0-.094-.107c-.176-.125-.355-.246-.548-.379-.007-.023-.008-.085-.039-.111-.157-.129-.289-.306-.523-.309a.258.258,0,0,1-.218-.116.943.943,0,0,0-.645-.383.773.773,0,0,1-.434-.25.972.972,0,0,0-.539-.284.774.774,0,0,1-.392-.159c-.1-.087-.23-.079-.347-.115a3.516,3.516,0,0,1-.353-.176.434.434,0,0,0-.141-.016l-.2-.012a.476.476,0,0,1-.317-.107.537.537,0,0,0-.291-.107.779.779,0,0,1-.333-.15,1.32,1.32,0,0,0-.778-.725c-.007-.029-.026-.046-.027-.08a.138.138,0,0,0-.227-.112.67.67,0,0,1-.6.058.5.5,0,0,0-.253-.026,4.627,4.627,0,0,1-.511.026.771.771,0,0,1-.544-.09c-.076-.051-.189-.046-.264-.1a.819.819,0,0,0-.574-.113.427.427,0,0,1-.167-.011.566.566,0,0,0-.308.011c-.287.067-.575.125-.863.188-.065.014-.128.035-.194.046a2.825,2.825,0,0,1-.5.078,1.8,1.8,0,0,0-.532.083.953.953,0,0,1-.279.046.39.39,0,0,0-.331.13.231.231,0,0,1-.123.063,1.146,1.146,0,0,0-.432.131.3.3,0,0,1-.14.018,1.016,1.016,0,0,0-.2,0,.811.811,0,0,1-.42-.023.6.6,0,0,0-.5.029.6.6,0,0,1-.381.073l-.263-.016a.467.467,0,0,1-.259.221,1.777,1.777,0,0,0-.243.19c-.086.057-.182.1-.27.152-.029.02-.045.061-.07.089l-.032.037a12.259,12.259,0,0,0-2.235.416,7.388,7.388,0,0,1-3.679.053,6.187,6.187,0,0,0-4.937.369,3.723,3.723,0,0,1-2.513.177,2.829,2.829,0,0,0-1.143-.088,2.649,2.649,0,0,1-2.871-.764c-.126-.124-.359-.14-.541-.2-1.283.182-2.473,1.086-3.831.323a2.375,2.375,0,0,1-2.881.766,1.45,1.45,0,0,0-.579-.1,2.276,2.276,0,0,1-.193-.406,1.355,1.355,0,0,0-1.51-1.117,13.9,13.9,0,0,1-1.319.844c-.409.2-.862.306-1.29.464l-.286.106c-.062.016-.123.027-.187.044a4.876,4.876,0,0,1-2.11.288,6.223,6.223,0,0,0-2.1-.132c-1.3-.553-1.823-.437-3.874.072l-.024.005c-.594-.075-1.191-.13-1.777-.238-.221-.041-.445-.1-.67-.152v0a6.6,6.6,0,0,0-.252.629,6.657,6.657,0,0,1-.956-.162,6.178,6.178,0,0,0-4.932.413,3.718,3.718,0,0,1-2.511.2,2.806,2.806,0,0,0-1.144-.077,2.65,2.65,0,0,1-2.879-.738c-.126-.124-.359-.137-.541-.2-1.282.2-2.464,1.109-3.827.357a2.375,2.375,0,0,1-2.875.792,1.7,1.7,0,0,0-1.164.014,2.92,2.92,0,0,1-2.3-.144,2.727,2.727,0,0,0-1.9.012l-.113.031c.009.195,0,.391,0,.586a3.286,3.286,0,0,0-.616.1l-.092.022,0,.046a5.981,5.981,0,0,0-3.039.232,3.7,3.7,0,0,1-1.449.115c-.651-.041-1.3-.119-1.947-.177-.159-.039-.32-.059-.477-.1a3.658,3.658,0,0,1-1.5-.691,2.26,2.26,0,0,0-2.154-.509c-1.312.239-2.655.305-3.737-.887a1.431,1.431,0,0,0-.578-.346c-.6-.222-1.068.026-1.364.72-.119.28-.22.551-.328.829a4.076,4.076,0,0,1-1-.527,2.029,2.029,0,0,0-.766-.289,1.327,1.327,0,0,0-1.648.848c-.135.32-.246.632-.364.95a3.873,3.873,0,0,0-.544-.145c-.649-.119-1.321-.087-1.968-.215a8.45,8.45,0,0,1-3.021-.8,12.325,12.325,0,0,0-3.656-1.366,4.642,4.642,0,0,0-1.089,1.925c-.247.061-.463.154-.626.083a5.267,5.267,0,0,0-1.148-.166,1.9,1.9,0,0,1-.835-.355,1.137,1.137,0,0,0-.909-.255,2.986,2.986,0,0,1-1.479-.2,1.471,1.471,0,0,0-1.31.119,2.992,2.992,0,0,1-.927.3.341.341,0,0,1-.369-.1,1.031,1.031,0,0,0-.991-.305c-.374.017-.747.028-1.123.051a.568.568,0,0,0-.269.075,4.907,4.907,0,0,0-1.46,1.1.973.973,0,0,1-.541.367c-.425.107-.844.249-1.268.357a1.136,1.136,0,0,0-.6.375,1.294,1.294,0,0,1-.373.323l-.1.045a2.294,2.294,0,0,0-1.126.263,4.5,4.5,0,0,1-1.14.383.516.516,0,0,1-.477-.069,1.569,1.569,0,0,0-1.285-.209c-.47.053-.941.1-1.411.158a.86.86,0,0,0-.334.1,6.075,6.075,0,0,0-1.73,1.235,1.243,1.243,0,0,1-.646.417c-.525.147-1.04.329-1.564.478a1.47,1.47,0,0,0-.722.431,1.556,1.556,0,0,1-.438.357c-.381.181-.792.3-.994.733-.051.109-.229.16-.351.233a3.786,3.786,0,0,0-.368.208c-.614.476-1.214.97-1.875,1.385a.626.626,0,0,0-.239.254,1.485,1.485,0,0,1-.615.574,3.291,3.291,0,0,0-.727.561,6.645,6.645,0,0,1-1.238,1.056,1.166,1.166,0,0,0-.372.4,18.053,18.053,0,0,0-1,2.115,1.165,1.165,0,0,1-.853.868.585.585,0,0,0-.3.176,1.7,1.7,0,0,1-.886.675c-.08.017-.137.125-.21.186a4.157,4.157,0,0,0-.529.658,10.718,10.718,0,0,1-1,1.011,2.271,2.271,0,0,0-.716,1.037,4.732,4.732,0,0,0,.011.848c-.012.3-.276.561-.181.891a.173.173,0,0,1,.009.07,5.285,5.285,0,0,1-.251,1.024,6.044,6.044,0,0,0-.261.653,1.959,1.959,0,0,1-.7,1.2.608.608,0,0,0-.221.764.573.573,0,0,1,.01.409c-.32.627-.176,1.372-.522,1.987a1.076,1.076,0,0,1-.03.15,8.3,8.3,0,0,1-.45,1.629,1.336,1.336,0,0,1-.313.63.575.575,0,0,0-.193.516.687.687,0,0,1-.23.668c.13.214.317.384.334.571.049.531.273,1.072-.019,1.6a.521.521,0,0,0,.012.478,5.122,5.122,0,0,1,.343,1.808,1.1,1.1,0,0,0,.473.915c.172.128.342.257.508.391a2.33,2.33,0,0,1,.593.732,2.258,2.258,0,0,1,.256,1.28,3.574,3.574,0,0,0,.266,1.521,13.81,13.81,0,0,0,.753,1.53c.077.148.17.287.246.435a2.148,2.148,0,0,1,.306,2.138.406.406,0,0,0,.015.273c.08.248.187.486.264.734.134.426.481.762.5,1.235a.535.535,0,0,0,.138.244c.171.227.343.452.524.672a1.628,1.628,0,0,0,.3.3,3.311,3.311,0,0,1,.4.379c.12,1.073.333,2.138.552,3.2.04.2.055.392.089.587a2.263,2.263,0,0,1,.257,1.28,3.562,3.562,0,0,0,.266,1.521,13.466,13.466,0,0,0,.753,1.53c.077.148.169.286.246.434a2.148,2.148,0,0,1,.3,2.139.4.4,0,0,0,.016.272c.079.248.187.487.264.735.132.426.481.762.5,1.235a.526.526,0,0,0,.137.243c.172.227.344.453.524.672a1.661,1.661,0,0,0,.3.3c.524.381.876.931,1.354,1.356a.364.364,0,0,1,.107.182,1.321,1.321,0,0,0,.822.924,5.624,5.624,0,0,1,1.014.653,1.922,1.922,0,0,0,.971.384,3.106,3.106,0,0,1,1.755.69,2.313,2.313,0,0,0,.588.387c.516.238,1.041.462,1.573.667a4.393,4.393,0,0,1,1.063.559c.361.267.782.45,1.148.709.53.377,1.156.661,1.414,1.333a.345.345,0,0,0,.162.136,14.839,14.839,0,0,1,2.026,1.667c.26.2.523.385.791.555a1.247,1.247,0,0,0,.878.458,4.594,4.594,0,0,0,1.174.344,1.715,1.715,0,0,1,.267.091c.744.23,1.532.276,2.271.545a4.6,4.6,0,0,0,.839.147,2.433,2.433,0,0,0,.421.063,4.238,4.238,0,0,1,1.608.2.673.673,0,0,0,.28.024l.02,0a3.241,3.241,0,0,0,.373-.71,2.62,2.62,0,0,1,.565-.884c.971.551,1.6.528,3.505.383a7.386,7.386,0,0,1,3.641.525,6.188,6.188,0,0,0,4.934.413,3.721,3.721,0,0,1,2.509.22,2.8,2.8,0,0,0,1.115.267c.033,0,.06,0,.093,0,.027.055.062.095.089.153.07.15.245.219.37.324a7.8,7.8,0,0,0,1.346-.055,3.36,3.36,0,0,1,.817.786c.1.142.334.194.5.287,1.3.021,2.614-.684,3.836.284a4.178,4.178,0,0,1,.664-.415,2.815,2.815,0,0,1,.784.565,1.78,1.78,0,0,0,1.449.446,3.055,3.055,0,0,1,1.668.208,3.531,3.531,0,0,0,2.377.631,2.084,2.084,0,0,1,1.056.254c.822.367,1.641.749,2.436,1.2.074.042.149.1.225.142.053-.3.105-.595.159-.893a2.328,2.328,0,0,1,.946.647c.1.114.289.109.434.158,1-.29,1.9-1.291,3.006-.646a3.547,3.547,0,0,1,.59-.692c.738.208,1.479.405,2.2.66.1.035.2.082.3.121.036-.3.071-.6.108-.9a3.19,3.19,0,0,1,1.263.553,1.48,1.48,0,0,0,.564.116c1.24-.385,2.271-1.468,3.732-.931a4.187,4.187,0,0,1,.528-.634,3.2,3.2,0,0,0,1.271-.4,2.1,2.1,0,0,1,1.075-.18,25.946,25.946,0,0,1,2.631.162,3.159,3.159,0,0,1,1.477.453,2,2,0,0,0,2.071.175c1.208-.436,2.46-.706,3.593.308a1.251,1.251,0,0,0,.574.254c.586.128,1-.189,1.21-.92.159-.557.293-1.124.429-1.645.36-.289.681-.515.974-.791a1.623,1.623,0,0,1,.225-.164,2.2,2.2,0,0,0,1.537.3,3.385,3.385,0,0,1,3.448,1.224,1.392,1.392,0,0,0,.52.4c.549.277,1,.071,1.325-.6.142-.3.266-.587.4-.882.04.017.084.021.124.041a10.671,10.671,0,0,0,3.563.793,3.477,3.477,0,0,0,.5-.969c.067.009.135.024.2.031a1.493,1.493,0,0,0,.615-.07,7.5,7.5,0,0,1,.9.2,7.8,7.8,0,0,1,2.782,1.069,11.541,11.541,0,0,0,3.342,1.695,4.092,4.092,0,0,0,1.028-1.544c.143,0,.286-.008.427,0a4.183,4.183,0,0,1,1.056.127,1.1,1.1,0,0,0,.658.05,4.083,4.083,0,0,1,2.432.091.915.915,0,0,0,.812-.105,2.28,2.28,0,0,1,1.039-.293,2.135,2.135,0,0,0,.874-.244,5.739,5.739,0,0,1,1.53-.458q2.861-1.711,5.722-3.426a1.147,1.147,0,0,1,.1.053,1.4,1.4,0,0,0,.56.262,5.236,5.236,0,0,0,.675.1c.066.009.134.01.2.019.3.039.607.074.771.391a.161.161,0,0,0,.093.057c.1.031.2.051.3.083.17.054.361.017.522.118a.224.224,0,0,0,.111.01c.113,0,.227-.009.341-.018a.671.671,0,0,0,.167-.028c.245-.084.506-.073.756-.133a.138.138,0,0,1,.083.007.534.534,0,0,0,.493-.058,2.247,2.247,0,0,1,.447-.183.772.772,0,0,0,.349-.23,1.235,1.235,0,0,1,.63-.418.894.894,0,0,0,.261-.1c.2-.115.392-.236.581-.363a1.753,1.753,0,0,1,.428-.221c.169-.057.326-.153.5-.213a1.284,1.284,0,0,1,.762-.159.131.131,0,0,0,.081-.022,5.922,5.922,0,0,1,1.013-.282c.069-.021.128-.054.195-.078a7.957,7.957,0,0,1,1.188.106,1.413,1.413,0,0,0,1.014-.182,3.408,3.408,0,0,1,1.281-.392,3.217,3.217,0,0,0,1.08-.327,8.629,8.629,0,0,1,1.886-.6l8.662-4.99a1.335,1.335,0,0,1,.659-.714,4.446,4.446,0,0,1,1.218-.58.829.829,0,0,0,.3-.184,6.9,6.9,0,0,0,.551-.444,3.671,3.671,0,0,0,.639-.663,2.722,2.722,0,0,1,1.031-.957,1.662,1.662,0,0,0,.768-.821c-.073-.155-.145-.3-.213-.453a2.035,2.035,0,0,1,.756-2.617,1.27,1.27,0,0,0,.487-.4,1.246,1.246,0,0,1,.778-.578.588.588,0,0,0,.436-.325.671.671,0,0,1,.189-.237c.012-.01.016-.03.029-.038a1.458,1.458,0,0,0,.469-.5l.007,0,0-.009c.035-.057.077-.112.109-.172a1.345,1.345,0,0,1,.545-.533,4.475,4.475,0,0,1,1.218-.58.812.812,0,0,0,.3-.183c.187-.143.38-.283.552-.444a3.767,3.767,0,0,0,.638-.663,2.71,2.71,0,0,1,1.032-.957,1.667,1.667,0,0,0,.767-.822c-.073-.155-.144-.3-.213-.453a2.034,2.034,0,0,1,.756-2.616,1.272,1.272,0,0,0,.487-.4,1.246,1.246,0,0,1,.778-.578.591.591,0,0,0,.436-.326.644.644,0,0,1,.218-.274,1.311,1.311,0,0,0,.3-.325C488.934,193.249,488.913,192.6,488.847,191.953Z"/><path class="cls-2" d="M469.417,147.356a.736.736,0,0,0-.231.568.806.806,0,0,1,.232-.564Z"/><path class="cls-1" d="M448.435,254.475h-5.512v15.5H440.53v-15.5h-5.511v-2.184h13.416Z"/><path class="cls-1" d="M465.074,267.891v2.081H452.7v-2.081h3.718v-12.22h2.08l-.052,2.756,6.344-3.094.027,2.314-6.059,2.938v7.306Z"/><path class="cls-1" d="M481.194,255.671v14.3h-1.975v-1.586a7.077,7.077,0,0,1-4.811,1.872c-3.3,0-4.654-1.691-4.654-4.733v-9.854H472.1v9.516c0,2.106.857,2.964,2.6,2.964a7.175,7.175,0,0,0,4.161-1.351V255.671Z"/><path class="cls-1" d="M488.6,262.848c0,3.639,1.534,5.277,4.55,5.277a9.359,9.359,0,0,0,4.732-1.222l.624,1.95a10.6,10.6,0,0,1-5.408,1.378c-4.239,0-6.865-2.391-6.865-7.254s2.991-7.566,6.735-7.566c4.264,0,6.162,2.652,5.591,7.28H488.6Zm.182-2.029h7.54c-.052-2.392-1.17-3.38-3.51-3.38A3.812,3.812,0,0,0,488.786,260.819Z"/><path class="cls-1" d="M521.183,150.4v5.694h8.632V158.2h-8.632v7.775H518.79V148.291h11.284V150.4Z"/><path class="cls-1" d="M546.636,156.585l-.13,9.387h-1.95v-1.716a6.744,6.744,0,0,1-5.018,2c-2.86-.027-4.472-1.534-4.472-3.927,0-2.756,2.833-3.978,9.178-4.472l.026-1.014c.026-1.82-.182-3.354-3.016-3.354a11.235,11.235,0,0,0-4.992,1.222l-.624-1.95a12.559,12.559,0,0,1,5.8-1.378C546.143,151.385,546.662,153.777,546.636,156.585Zm-2.47,6.084.052-2.912c-4.784.39-6.812,1.066-6.812,2.522,0,1.2.832,1.9,2.444,1.924A6.393,6.393,0,0,0,544.166,162.669Z"/><path class="cls-1" d="M564.265,163.891v2.081H551.888v-2.081h5.018v-19.24h2.34v19.24Z"/><path class="cls-1" d="M568.865,165.14l.7-2.185a11,11,0,0,0,5.227,1.2c2.651,0,3.926-.624,3.926-1.949,0-2.887-9.6-1.925-9.6-6.657,0-2.678,2.366-4.134,6.11-4.134a13.3,13.3,0,0,1,5.175,1.014l-.676,2.132a10.141,10.141,0,0,0-4.5-1.066c-2.469,0-3.744.65-3.744,1.794,0,2.782,9.6,1.82,9.6,6.656,0,2.965-2.626,4.29-6.4,4.29A13.568,13.568,0,0,1,568.865,165.14Z"/><path class="cls-1" d="M588.054,158.848c0,3.639,1.534,5.277,4.551,5.277a9.358,9.358,0,0,0,4.731-1.222l.624,1.95a10.594,10.594,0,0,1-5.408,1.378c-4.237,0-6.864-2.391-6.864-7.254s2.99-7.566,6.734-7.566c4.265,0,6.162,2.652,5.591,7.28h-9.959Zm.182-2.029h7.54c-.051-2.392-1.169-3.38-3.51-3.38A3.812,3.812,0,0,0,588.236,156.819Z"/><path class="cls-3" d="M330.889,184.977c0-5.174,3.146-7.566,7.125-7.566a11.038,11.038,0,0,1,5.2,1.17l-.677,2.106a9.365,9.365,0,0,0-4.731-1.17c-2.757,0-4.525,1.638-4.525,5.331,0,3.639,1.4,5.277,4.525,5.277a8.9,8.9,0,0,0,4.731-1.325l.624,2.053a10.594,10.594,0,0,1-5.408,1.378C333.385,192.231,330.889,189.84,330.889,184.977Z"/><path class="cls-3" d="M347.477,184.977c0-4.758,2.73-7.592,6.578-7.592,4.056,0,6.422,2.782,6.422,7.41s-2.73,7.463-6.578,7.463C349.843,192.258,347.477,189.475,347.477,184.977Zm10.634-.052c0-3.406-1.274-5.434-4.108-5.434-2.86,0-4.16,2.08-4.16,5.357s1.273,5.3,4.108,5.3C356.811,190.151,358.111,188.071,358.111,184.925Z"/><path class="cls-3" d="M376.649,182.117v9.855H374.31v-9.517c0-2.106-.859-2.964-2.6-2.964a7.166,7.166,0,0,0-4.16,1.352v11.129h-2.34v-14.3h1.976v1.586a7.078,7.078,0,0,1,4.81-1.872C375.3,177.385,376.649,179.075,376.649,182.117Z"/><path class="cls-3" d="M393.5,170.651v21.321h-2.028v-1.535a6.889,6.889,0,0,1-4.758,1.821c-3.537-.027-5.435-2.5-5.435-6.891,0-5.72,2.834-7.956,7.1-7.956a17.336,17.336,0,0,1,2.781.208v-6.968ZM391.156,188.8v-8.919a10.893,10.893,0,0,0-2.964-.364c-3.145,0-4.549,1.872-4.549,5.59,0,3.25,1.143,5.018,3.353,5.044A6.978,6.978,0,0,0,391.156,188.8Z"/><path class="cls-3" d="M411.125,189.891v2.081H398.749v-2.081h5.278v-10.14h-5.278v-2.08h7.618v12.22Zm-8.528-16.9a2.34,2.34,0,1,1,2.34,2.34A2.33,2.33,0,0,1,402.6,172.991Z"/><path class="cls-3" d="M427.816,191.114a10.531,10.531,0,0,1-4.914,1.117c-3.9,0-4.6-2.132-4.549-5.2l.155-7.28H415v-2.08h3.536l.078-3.38h2.418l-.442,3.38H427.3v2.08h-6.4l-.156,7.02c-.052,1.821.182,3.354,2.237,3.354a9.314,9.314,0,0,0,4.211-.962Z"/><path class="cls-3" d="M444.925,189.891v2.081H432.549v-2.081h5.277v-10.14h-5.277v-2.08h7.618v12.22Zm-8.528-16.9a2.34,2.34,0,1,1,2.339,2.34A2.33,2.33,0,0,1,436.4,172.991Z"/><path class="cls-3" d="M448.876,184.977c0-4.758,2.73-7.592,6.578-7.592,4.056,0,6.422,2.782,6.422,7.41s-2.729,7.463-6.578,7.463C451.242,192.258,448.876,189.475,448.876,184.977Zm10.634-.052c0-3.406-1.274-5.434-4.108-5.434-2.86,0-4.16,2.08-4.16,5.357s1.274,5.3,4.108,5.3C458.21,190.151,459.51,188.071,459.51,184.925Z"/><path class="cls-3" d="M478.049,182.117v9.855h-2.34v-9.517c0-2.106-.858-2.964-2.6-2.964a7.17,7.17,0,0,0-4.16,1.352v11.129h-2.34v-14.3h1.976v1.586a7.079,7.079,0,0,1,4.811-1.872C476.7,177.385,478.049,179.075,478.049,182.117Z"/><path class="cls-3" d="M316.875,410.891v2.081H304.5v-2.081h3.718v-12.22h2.08l-.052,2.756,6.344-3.094.026,2.314-6.058,2.938v7.306Z"/><path class="cls-3" d="M323.5,405.848c0,3.639,1.534,5.277,4.551,5.277a9.358,9.358,0,0,0,4.731-1.222l.624,1.95A10.594,10.594,0,0,1,328,413.231c-4.238,0-6.864-2.391-6.864-7.254s2.99-7.566,6.734-7.566c4.265,0,6.162,2.652,5.591,7.28H323.5Zm.183-2.029h7.54c-.052-2.392-1.17-3.38-3.51-3.38A3.811,3.811,0,0,0,323.687,403.819Z"/><path class="cls-3" d="M351.143,402.337v10.635h-2.08V403.2c0-2.106-.208-2.964-1.586-2.964a3.514,3.514,0,0,0-2.262,1.066c.025.312.052.65.052,1.04v10.635h-2.08V403.2c0-2.106-.208-2.964-1.586-2.964a3.434,3.434,0,0,0-2.21,1.014v11.727h-2.08v-14.3h1.715l.027,1.248a4.1,4.1,0,0,1,3.068-1.534,2.683,2.683,0,0,1,2.678,1.43,4.663,4.663,0,0,1,3.2-1.43C350.1,398.385,351.143,399.555,351.143,402.337Z"/><path class="cls-3" d="M366.586,403.585l-.13,9.387h-1.95v-1.716a6.741,6.741,0,0,1-5.018,2c-2.86-.027-4.472-1.534-4.472-3.927,0-2.756,2.834-3.978,9.178-4.472l.027-1.014c.025-1.82-.183-3.354-3.017-3.354a11.235,11.235,0,0,0-4.992,1.222l-.624-1.95a12.559,12.559,0,0,1,5.8-1.378C366.092,398.385,366.612,400.777,366.586,403.585Zm-2.47,6.084.052-2.912c-4.784.39-6.812,1.066-6.812,2.522,0,1.2.832,1.9,2.444,1.924A6.393,6.393,0,0,0,364.116,409.669Z"/><path class="cls-3" d="M384.475,410.891v2.081H372.1v-2.081h5.278v-10.14H372.1v-2.08h7.618v12.22Zm-8.529-16.9a2.341,2.341,0,1,1,2.34,2.34A2.33,2.33,0,0,1,375.946,393.991Z"/><path class="cls-3" d="M400.7,403.117v9.855h-2.34v-9.517c0-2.106-.858-2.964-2.6-2.964a7.166,7.166,0,0,0-4.16,1.352v11.129h-2.34v-14.3h1.975v1.586a7.081,7.081,0,0,1,4.811-1.872C399.346,398.385,400.7,400.075,400.7,403.117Z"/><path class="cls-3" d="M418.274,410.891v2.081H405.9v-2.081h5.277v-10.14H405.9v-2.08h7.618v12.22Zm-8.528-16.9a2.341,2.341,0,1,1,2.34,2.34A2.33,2.33,0,0,1,409.746,393.991Z"/><path class="cls-3" d="M434.5,403.117v9.855h-2.34v-9.517c0-2.106-.858-2.964-2.6-2.964a7.166,7.166,0,0,0-4.16,1.352v11.129h-2.34v-14.3h1.975v1.586a7.081,7.081,0,0,1,4.811-1.872C433.146,398.385,434.5,400.075,434.5,403.117Z"/><path class="cls-3" d="M452.906,413.023c0,2.653-2.652,4.889-7.306,4.889-3.8,0-6.058-1.274-6.058-3.614a3.819,3.819,0,0,1,2.028-2.965c-1.768-.363-2.548-1.04-2.548-2.418,0-1.195.884-1.976,2.34-2.651a3.739,3.739,0,0,1-1.3-3.017c0-3.042,2.73-4.836,5.928-4.836a7.275,7.275,0,0,1,2.783.52l1.04-3.64h2.5l-1.821,4.966a3.727,3.727,0,0,1,1.275,2.808c0,2.912-2.731,4.447-5.929,4.447a9.072,9.072,0,0,1-2.756-.365c-1.222.52-1.768.962-1.768,1.482,0,.573.494.832,1.716.936l6.084.52C451.555,410.293,452.906,411.048,452.906,413.023Zm-2.391.39c0-.883-.494-1.273-2.288-1.43l-4.681-.389a3.161,3.161,0,0,0-1.612,2.339c0,1.093.91,2,3.8,2C449.267,415.935,450.515,414.636,450.515,413.413Zm-8.087-10.322c0,1.717,1.144,2.626,3.458,2.626,2.471,0,3.511-1.092,3.511-2.548,0-1.716-1.145-2.782-3.458-2.782C443.468,400.387,442.428,401.505,442.428,403.091Z"/><path class="cls-3" d="M485.925,405.275c0,5.72-2.834,7.956-7.1,7.956a16.032,16.032,0,0,1-5.122-.754V391.651h2.34v6.24l-.208,2.21a7.011,7.011,0,0,1,4.654-1.716C484.027,398.411,485.925,400.881,485.925,405.275Zm-2.366.26c0-3.25-1.144-5.018-3.354-5.044a6.984,6.984,0,0,0-4.16,1.352v8.919a10.937,10.937,0,0,0,2.964.363C482.155,411.125,483.559,409.253,483.559,405.535Z"/><path class="cls-3" d="M489.825,405.977c0-4.758,2.73-7.592,6.578-7.592,4.056,0,6.422,2.782,6.422,7.41s-2.729,7.463-6.578,7.463C492.191,413.258,489.825,410.475,489.825,405.977Zm10.634-.052c0-3.406-1.273-5.434-4.107-5.434-2.861,0-4.161,2.08-4.161,5.357s1.274,5.3,4.108,5.3C499.159,411.151,500.459,409.071,500.459,405.925Z"/><path class="cls-3" d="M518.945,391.651v21.321h-2.028v-1.535a6.888,6.888,0,0,1-4.759,1.821c-3.535-.027-5.433-2.5-5.433-6.891,0-5.72,2.834-7.956,7.1-7.956a17.362,17.362,0,0,1,2.783.208v-6.968Zm-2.34,18.149v-8.919a10.9,10.9,0,0,0-2.964-.364c-3.147,0-4.55,1.872-4.55,5.59,0,3.25,1.143,5.018,3.353,5.044A6.985,6.985,0,0,0,516.605,409.8Z"/><path class="cls-3" d="M531.295,415.572H535.4v2.08H524.847v-2.08h4.108v-2.887l-5.538-14.014h2.523l2.989,7.774,1.014,3.224h.52l1.04-3.224,2.938-7.774h2.392l-5.538,14.014Z"/><path class="cls-1" d="M700.987,451.528a127.155,127.155,0,0,0-6.812,19.241l-3.042-.65A122.488,122.488,0,0,1,697.5,450.2Z"/><path class="cls-1" d="M710.737,460.993c0,4.731-3.042,9.646-8.4,10.478-1.144-.494-2.235-.962-3.25-1.456a15.256,15.256,0,0,1-.468-3.666c0-5.382,3.458-9.725,8.84-9.725a11.523,11.523,0,0,1,1.612.13l.651,2.574.91.13A10.283,10.283,0,0,1,710.737,460.993Zm-2.885-.52a8.281,8.281,0,0,0-.027-.832c-3.822.233-5.85,3.12-5.85,7.436a12.217,12.217,0,0,0,.182,2.132C706.213,468.377,707.852,463.774,707.852,460.473Z"/><path class="cls-1" d="M724.074,460.993c0,4.731-3.042,9.646-8.4,10.478-1.144-.494-2.236-.962-3.25-1.456a15.256,15.256,0,0,1-.468-3.666c0-5.382,3.458-9.725,8.84-9.725a11.535,11.535,0,0,1,1.612.13l.651,2.574.91.13A10.152,10.152,0,0,1,724.074,460.993Zm-2.885-.52a8.281,8.281,0,0,0-.027-.832c-3.822.233-5.849,3.12-5.849,7.436a12.213,12.213,0,0,0,.181,2.132C719.55,468.377,721.189,463.774,721.189,460.473Z"/><path class="cls-1" d="M738.557,460.993c0,4.368-1.821,11.154-8.867,10.53l-.182-2.912c4.914.234,5.668-4.447,5.746-8.321-2.34,2.522-4.628,4.967-6.656,7.255-.754,2.86-1.586,6.11-2.6,9.464l-3.2-.7c1.612-5.3,4.134-14.482,5.148-19.084l3.432.624a33.038,33.038,0,0,1-1.586,5.485,55.964,55.964,0,0,1,5.954-6.344l2.626,1.43A15.6,15.6,0,0,1,738.557,460.993Z"/><path class="cls-1" d="M747.475,466.141a11.1,11.1,0,0,0-.053,2.6c.858-.052,2.366-.052,5.772-1.742l-.286,2.262a8.816,8.816,0,0,1-5.017,1.82c-2.549,0-3.979-1.482-3.8-4.472a10.458,10.458,0,0,1,7.436-9.725l4.29,1.274a8.067,8.067,0,0,1,.365,2.315c0,2.782-2.107,4.992-5.929,4.992a18.518,18.518,0,0,1-2.626-.235A6.532,6.532,0,0,0,747.475,466.141Zm.8-2.705a7.03,7.03,0,0,0,1.327.13,3.273,3.273,0,0,0,3.431-3.3,4.676,4.676,0,0,0-.208-1.3A9.719,9.719,0,0,0,748.28,463.436Z"/><path class="cls-1" d="M763.672,464.425c.806,1.9,1.716,3.822,2.678,5.642l-3.094,1.456c-.78-1.508-1.482-3.016-2.158-4.5-1.924,1.872-3.563,3.432-5.071,4.68l-1.9-1.846c1.82-1.586,3.849-3.25,5.929-5.226-.962-2.21-1.794-4.368-2.575-6.449l3.355-1.04c.52,1.508,1.117,3.146,1.794,4.81,1.43-1.638,2.7-3.432,3.977-5.174l2.289,1.664A76.807,76.807,0,0,1,763.672,464.425Z"/><path class="cls-1" d="M775.216,458.055a104.49,104.49,0,0,0-4.16,12.74l-3.1-.676a82.945,82.945,0,0,1,3.874-12.949Zm.779-2.419-3.12-.91a54.051,54.051,0,0,1,2.471-6.11l3.2.962C777.945,450.8,777.14,452.646,776,455.636Z"/><path class="cls-1" d="M785.382,459.666c-1.015.079-2.028.13-3.042.13a103.5,103.5,0,0,0-3.406,10.973l-3.017-.65c.521-2.185,1.353-5.876,2.809-10.4-1.067-.078-1.977-.157-2.548-.235l.389-2c.832.052,1.821.1,2.861.13.624-1.794,1.351-3.692,2.158-5.668l3.51,1.066c-.7,1.56-1.326,3.094-1.924,4.629.832-.053,1.689-.105,2.729-.208Z"/><path class="cls-1" d="M444.848,38.129a127.118,127.118,0,0,0-6.813,19.241l-3.042-.65a122.662,122.662,0,0,1,6.37-19.917Z"/><path class="cls-1" d="M454.6,47.593c0,4.732-3.042,9.646-8.4,10.478-1.143-.493-2.236-.962-3.25-1.456a15.291,15.291,0,0,1-.467-3.666c0-5.382,3.458-9.724,8.839-9.724a11.537,11.537,0,0,1,1.613.13l.65,2.574.91.13A10.14,10.14,0,0,1,454.6,47.593Zm-2.886-.52c0-.286,0-.572-.026-.832-3.823.234-5.85,3.12-5.85,7.436a12.217,12.217,0,0,0,.182,2.132C450.073,54.977,451.712,50.375,451.712,47.073Z"/><path class="cls-1" d="M467.935,47.593c0,4.732-3.042,9.646-8.4,10.478-1.143-.493-2.235-.962-3.25-1.456a15.294,15.294,0,0,1-.468-3.666c0-5.382,3.458-9.724,8.84-9.724a11.537,11.537,0,0,1,1.613.13l.65,2.574.91.13A10.271,10.271,0,0,1,467.935,47.593Zm-2.886-.52c0-.286,0-.572-.026-.832-3.823.234-5.851,3.12-5.851,7.436a12.22,12.22,0,0,0,.183,2.132C463.41,54.977,465.049,50.375,465.049,47.073Z"/><path class="cls-1" d="M482.417,47.593c0,4.368-1.82,11.154-8.866,10.53l-.183-2.912c4.914.234,5.668-4.446,5.746-8.32-2.34,2.522-4.628,4.966-6.656,7.254-.754,2.86-1.586,6.111-2.6,9.465l-3.2-.7c1.613-5.3,4.134-14.483,5.149-19.085l3.431.624a32.816,32.816,0,0,1-1.586,5.486,56.145,56.145,0,0,1,5.954-6.344l2.626,1.43A15.475,15.475,0,0,1,482.417,47.593Z"/><path class="cls-1" d="M491.334,52.741a11.255,11.255,0,0,0-.052,2.6c.859-.052,2.367-.052,5.773-1.742l-.286,2.262a8.815,8.815,0,0,1-5.019,1.821c-2.548,0-3.977-1.483-3.8-4.473a10.46,10.46,0,0,1,7.437-9.724l4.29,1.274a8.093,8.093,0,0,1,.364,2.314c0,2.782-2.106,4.992-5.929,4.992a18.645,18.645,0,0,1-2.626-.234A6.683,6.683,0,0,0,491.334,52.741Zm.807-2.7a7.021,7.021,0,0,0,1.326.13,3.275,3.275,0,0,0,3.432-3.3,4.707,4.707,0,0,0-.208-1.3A9.71,9.71,0,0,0,492.141,50.037Z"/><path class="cls-1" d="M514.969,45.773a42.813,42.813,0,0,0-4.213,12.376l-3.224-.546a57.946,57.946,0,0,1,2.756-9.542,70.637,70.637,0,0,0-6.266,5.434c-.338,1.353-.676,2.548-.988,3.692l-3.12-.78c.962-3.432,2.184-7.046,3.38-12.35l3.328.676a40.6,40.6,0,0,1-1.431,5.1,70.348,70.348,0,0,1,6.788-5.746Z"/><path class="cls-1" d="M525.134,46.267c-1.015.078-2.028.13-3.042.13a103.431,103.431,0,0,0-3.406,10.973l-3.017-.65c.521-2.185,1.353-5.877,2.809-10.4-1.067-.078-1.977-.156-2.548-.234l.389-2c.832.052,1.821.1,2.861.13.624-1.794,1.351-3.692,2.158-5.668l3.51,1.066c-.7,1.56-1.326,3.094-1.924,4.628.832-.052,1.689-.1,2.729-.208Z"/><path class="cls-1" d="M536.938,44.811a39.5,39.5,0,0,0-2.705,8.164l-2.99-.546a39.378,39.378,0,0,1,1.17-4.16c-1.638,2-3.353,4.42-4.888,6.552-.234.832-.52,1.691-.78,2.549l-3.12-.781c.962-3.432,2.236-7.306,3.38-12.584l3.328.728a33.3,33.3,0,0,1-1.534,5.46,60.836,60.836,0,0,1,5.642-7.02Z"/><path class="cls-1" d="M548.976,49.231a47.076,47.076,0,0,0-3.12,8.918l-2.964-.65A29.328,29.328,0,0,1,544.14,53a40.771,40.771,0,0,1-5.071,4.759c-.6-.365-1.222-.651-2.288-1.2a12.5,12.5,0,0,1-.208-2.626c0-4.29,3.146-9.594,10.452-10.868l.729,3.042c-5.721,1.04-7.931,4.784-8.009,8.606,2.029-1.846,4.992-4.836,6.838-6.76Z"/><path class="cls-1" d="M564.524,45.773a42.783,42.783,0,0,0-4.213,12.376l-3.224-.546a57.946,57.946,0,0,1,2.756-9.542,70.652,70.652,0,0,0-6.267,5.434c-.338,1.353-.676,2.548-.987,3.692l-3.12-.78c.962-3.432,2.183-7.046,3.38-12.35l3.328.676a40.6,40.6,0,0,1-1.431,5.1,70.449,70.449,0,0,1,6.787-5.746Z"/><path class="cls-1" d="M568.007,54.353a9.435,9.435,0,0,0,.052,1.3,18.292,18.292,0,0,0,5.694-1.976l-.286,2.236a9.261,9.261,0,0,1-5.252,2.028c-1.924,0-3.666-1.144-3.666-4.108,0-4.992,3.822-9.984,8.84-9.984a4.348,4.348,0,0,1,2.835.91l-.7,2.6a4.93,4.93,0,0,0-2.055-.494C569.879,46.865,568.007,51.155,568.007,54.353Z"/><path class="cls-1" d="M579.057,52.741a11.1,11.1,0,0,0-.053,2.6c.858-.052,2.366-.052,5.772-1.742l-.286,2.262a8.812,8.812,0,0,1-5.017,1.821c-2.549,0-3.979-1.483-3.8-4.473a10.458,10.458,0,0,1,7.436-9.724l4.29,1.274a8.06,8.06,0,0,1,.365,2.314c0,2.782-2.107,4.992-5.929,4.992a18.645,18.645,0,0,1-2.626-.234A6.52,6.52,0,0,0,579.057,52.741Zm.8-2.7a7.03,7.03,0,0,0,1.327.13,3.274,3.274,0,0,0,3.431-3.3,4.67,4.67,0,0,0-.208-1.3A9.715,9.715,0,0,0,579.862,50.037Z"/></g></svg>