<svg id="Livello_1" data-name="Livello 1" xmlns="http://www.w3.org/2000/svg" viewBox="0 0 952 233.636"><defs><style>.cls-1{fill:#1858a8;}.cls-2{fill:#f36;}</style></defs><title>10</title><path class="cls-1" d="M158.349,51.01V67.157H162.9v1.849h-6.63V49.16h6.63v1.85Z"/><path class="cls-1" d="M179.031,64.9v1.85H168.3V64.9h4.781V55.2L168.3,57.031V55.023l4.781-1.826V51.415h2.075V64.9Z"/><path class="cls-1" d="M190.173,66.052c0,1.984-1.217,4.307-4.6,4.307V68.668c1.511,0,2.435-.586,2.728-2.007a1.364,1.364,0,0,1-.811.293,2.031,2.031,0,0,1,.09-4.06C188.775,62.894,190.173,63.887,190.173,66.052Z"/><path class="cls-1" d="M201,51.415h2.842l-.2,7.668H201.2Z"/><path class="cls-1" d="M222.72,60.075c0,4.962-2.458,6.9-6.156,6.9a13.9,13.9,0,0,1-4.443-.654V48.258h2.029v5.413l-.18,1.917a6.076,6.076,0,0,1,4.037-1.489C221.074,54.121,222.72,56.264,222.72,60.075Zm-2.052.226c0-2.82-.992-4.353-2.909-4.375A6.05,6.05,0,0,0,214.15,57.1v7.735a9.477,9.477,0,0,0,2.571.315C219.45,65.149,220.668,63.526,220.668,60.3Z"/><path class="cls-1" d="M230.322,51.415h2.842l-.2,7.668h-2.436Z"/><path class="cls-1" d="M248.816,66.052c0,1.984-1.217,4.307-4.6,4.307V68.668c1.511,0,2.435-.586,2.728-2.007a1.364,1.364,0,0,1-.811.293,2.031,2.031,0,0,1,.09-4.06C247.418,62.894,248.816,63.887,248.816,66.052Z"/><path class="cls-1" d="M266.9,64.9v1.85h-11.1V64.676c3.947-2.413,8.548-4.871,8.548-8.8,0-1.737-.767-2.842-3.338-2.842-2.8,0-3.541,1.24-3.541,3.36a3.838,3.838,0,0,0,.181,1.376l-2.143-.158a10.518,10.518,0,0,1-.09-1.443c0-3,1.962-4.985,5.706-4.985,4.4,0,5.345,2.436,5.345,4.466,0,4.33-4.06,6.766-6.54,8.435l-1.219.541v.27Z"/><path class="cls-1" d="M277.89,69.006h-6.631V67.157h4.556V51.01h-4.556V49.16h6.631Z"/><path class="cls-2" d="M164.438,18.527v9.224h-1.8v-8.48c0-1.827-.181-2.571-1.376-2.571a3.048,3.048,0,0,0-1.962.925c.022.27.045.563.045.9v9.224h-1.8v-8.48c0-1.827-.18-2.571-1.376-2.571a2.98,2.98,0,0,0-1.917.88V27.751h-1.8v-12.4h1.488l.023,1.083a3.553,3.553,0,0,1,2.661-1.331,2.325,2.325,0,0,1,2.323,1.241,4.042,4.042,0,0,1,2.774-1.241C163.536,15.1,164.438,16.114,164.438,18.527Z"/><path class="cls-2" d="M174.114,30.006h3.564v1.8h-9.156v-1.8h3.563V27.5l-4.8-12.156h2.188l2.593,6.743.88,2.8h.451l.9-2.8,2.548-6.743h2.075l-4.8,12.156Z"/><path class="cls-2" d="M193.015,25.879v1.872h-9.788V12.415H185.3V25.879Z"/><path class="cls-2" d="M208.014,25.947v1.8H197.279v-1.8h4.578v-8.8h-4.578v-1.8h6.608v10.6Zm-7.4-14.659a2.03,2.03,0,1,1,2.03,2.029A2.021,2.021,0,0,1,200.617,11.288Z"/><path class="cls-2" d="M211.782,27.029l.609-1.894a9.548,9.548,0,0,0,4.533,1.037c2.3,0,3.406-.541,3.406-1.692,0-2.5-8.322-1.669-8.322-5.773,0-2.322,2.052-3.586,5.3-3.586A11.531,11.531,0,0,1,221.8,16l-.586,1.849a8.8,8.8,0,0,0-3.9-.924c-2.143,0-3.248.563-3.248,1.555,0,2.413,8.322,1.579,8.322,5.774,0,2.571-2.278,3.721-5.548,3.721A11.75,11.75,0,0,1,211.782,27.029Z"/><path class="cls-2" d="M237.155,27.007a9.132,9.132,0,0,1-4.262.969c-3.383,0-3.992-1.849-3.947-4.51l.136-6.315h-3.045v-1.8H229.1l.068-2.932h2.1l-.383,2.932H236.7v1.8h-5.548l-.135,6.089c-.045,1.579.158,2.909,1.94,2.909a8.075,8.075,0,0,0,3.653-.834Z"/><path class="cls-1" d="M535.349,201.809v16.148H539.9v1.849h-6.63V199.96h6.63v1.849Z"/><path class="cls-1" d="M556.031,215.7v1.85H545.3V215.7h4.781V206l-4.781,1.827v-2.008L550.077,204v-1.782h2.075V215.7Z"/><path class="cls-1" d="M567.173,216.851c0,1.985-1.217,4.308-4.6,4.308v-1.691c1.511,0,2.435-.586,2.728-2.007a1.364,1.364,0,0,1-.811.293,2.031,2.031,0,0,1,.09-4.06C565.775,213.694,567.173,214.686,567.173,216.851Z"/><path class="cls-1" d="M578,202.215h2.842l-.2,7.668H578.2Z"/><path class="cls-1" d="M599.72,210.875c0,4.962-2.458,6.9-6.156,6.9a13.9,13.9,0,0,1-4.443-.654V199.058h2.029v5.413l-.18,1.917a6.083,6.083,0,0,1,4.037-1.49C598.074,204.922,599.72,207.063,599.72,210.875Zm-2.052.225c0-2.819-.992-4.352-2.909-4.375a6.063,6.063,0,0,0-3.609,1.173v7.736a9.477,9.477,0,0,0,2.571.315C596.45,215.949,597.668,214.326,597.668,211.1Z"/><path class="cls-1" d="M607.322,202.215h2.842l-.2,7.668h-2.436Z"/><path class="cls-1" d="M625.816,216.851c0,1.985-1.217,4.308-4.6,4.308v-1.691c1.511,0,2.435-.586,2.728-2.007a1.364,1.364,0,0,1-.811.293,2.031,2.031,0,0,1,.09-4.06C624.418,213.694,625.816,214.686,625.816,216.851Z"/><path class="cls-1" d="M643.905,215.7v1.85h-11.1v-2.076c3.947-2.413,8.548-4.871,8.548-8.794,0-1.737-.767-2.842-3.338-2.842-2.8,0-3.541,1.24-3.541,3.36a3.842,3.842,0,0,0,.181,1.376l-2.143-.158a10.518,10.518,0,0,1-.09-1.443c0-3,1.962-4.985,5.706-4.985,4.4,0,5.345,2.436,5.345,4.466,0,4.33-4.06,6.766-6.54,8.435l-1.219.541v.27Z"/><path class="cls-1" d="M655.138,216.851c0,1.985-1.218,4.308-4.6,4.308v-1.691c1.511,0,2.436-.586,2.729-2.007a1.367,1.367,0,0,1-.812.293,2.031,2.031,0,0,1,.09-4.06C653.739,213.694,655.138,214.686,655.138,216.851Z"/><path class="cls-1" d="M665.964,202.215h2.842l-.2,7.668h-2.435Z"/><path class="cls-1" d="M687.008,199.058v18.493h-1.759V216.22a5.98,5.98,0,0,1-4.127,1.579c-3.067-.023-4.714-2.165-4.714-5.977,0-4.961,2.458-6.9,6.157-6.9a15.153,15.153,0,0,1,2.413.179v-6.043Zm-2.03,15.742v-7.737a9.472,9.472,0,0,0-2.571-.315c-2.729,0-3.946,1.624-3.946,4.849,0,2.819.992,4.352,2.909,4.375A6.059,6.059,0,0,0,684.978,214.8Z"/><path class="cls-1" d="M695.286,202.215h2.842l-.2,7.668h-2.436Z"/><path class="cls-1" d="M713.533,219.806H706.9v-1.849h4.556V201.809H706.9V199.96h6.631Z"/><path class="cls-2" d="M546.638,169.327v9.224h-1.8v-8.48c0-1.827-.181-2.571-1.376-2.571a3.048,3.048,0,0,0-1.962.925c.023.27.045.563.045.9v9.224h-1.8v-8.48c0-1.827-.18-2.571-1.376-2.571a2.977,2.977,0,0,0-1.917.88v10.171h-1.8v-12.4h1.488l.023,1.083a3.554,3.554,0,0,1,2.662-1.331,2.325,2.325,0,0,1,2.322,1.242,4.045,4.045,0,0,1,2.774-1.242C545.736,165.9,546.638,166.914,546.638,169.327Z"/><path class="cls-2" d="M556.315,180.806h3.563v1.8h-9.156v-1.8h3.563v-2.5l-4.8-12.157h2.187l2.593,6.744.88,2.8h.451l.9-2.8,2.549-6.744h2.074l-4.8,12.157Z"/><path class="cls-2" d="M575.215,176.679v1.872h-9.788V163.215H567.5v13.464Z"/><path class="cls-2" d="M590.214,176.746v1.8H579.479v-1.8h4.578v-8.8h-4.578v-1.805h6.608v10.6Zm-7.4-14.658a2.03,2.03,0,1,1,2.03,2.029A2.021,2.021,0,0,1,582.817,162.088Z"/><path class="cls-2" d="M593.983,177.829l.608-1.9a9.54,9.54,0,0,0,4.534,1.038c2.3,0,3.4-.541,3.4-1.692,0-2.5-8.322-1.669-8.322-5.773,0-2.323,2.052-3.585,5.3-3.585A11.54,11.54,0,0,1,604,166.8l-.587,1.849a8.784,8.784,0,0,0-3.9-.925c-2.143,0-3.248.564-3.248,1.556,0,2.414,8.322,1.579,8.322,5.774,0,2.571-2.278,3.721-5.548,3.721A11.746,11.746,0,0,1,593.983,177.829Z"/><path class="cls-2" d="M619.356,177.807a9.148,9.148,0,0,1-4.263.969c-3.383,0-3.992-1.849-3.946-4.51l.135-6.315h-3.045v-1.805H611.3l.068-2.931h2.1l-.383,2.931H618.9v1.805h-5.547l-.136,6.089c-.045,1.579.158,2.909,1.94,2.909a8.088,8.088,0,0,0,3.653-.834Z"/><path class="cls-2" d="M468.638,60.127V69.35h-1.8V60.871c0-1.827-.181-2.571-1.376-2.571a3.051,3.051,0,0,0-1.962.924c.023.271.045.564.045.9V69.35h-1.8V60.871c0-1.827-.18-2.571-1.376-2.571a2.977,2.977,0,0,0-1.917.88V69.35h-1.8v-12.4h1.488l.023,1.083a3.554,3.554,0,0,1,2.662-1.331,2.326,2.326,0,0,1,2.322,1.241,4.048,4.048,0,0,1,2.774-1.241C467.736,56.7,468.638,57.714,468.638,60.127Z"/><path class="cls-2" d="M478.315,71.605h3.563v1.8h-9.156v-1.8h3.563V69.1l-4.8-12.156h2.187l2.593,6.743.88,2.8h.451l.9-2.8,2.549-6.743h2.074l-4.8,12.156Z"/><path class="cls-2" d="M497.215,67.478V69.35h-9.788V54.015H489.5V67.478Z"/><path class="cls-2" d="M512.214,67.547v1.8H501.479v-1.8h4.578v-8.8h-4.578v-1.8h6.608v10.6Zm-7.4-14.659a2.03,2.03,0,1,1,2.03,2.029A2.022,2.022,0,0,1,504.817,52.888Z"/><path class="cls-2" d="M515.983,68.629l.608-1.9a9.541,9.541,0,0,0,4.534,1.037c2.3,0,3.4-.541,3.4-1.691,0-2.5-8.322-1.669-8.322-5.773,0-2.323,2.052-3.586,5.3-3.586A11.54,11.54,0,0,1,526,57.6l-.587,1.85a8.784,8.784,0,0,0-3.9-.925c-2.143,0-3.248.564-3.248,1.556,0,2.413,8.322,1.579,8.322,5.773,0,2.572-2.278,3.722-5.548,3.722A11.746,11.746,0,0,1,515.983,68.629Z"/><path class="cls-2" d="M541.356,68.606a9.136,9.136,0,0,1-4.263.97c-3.383,0-3.992-1.85-3.946-4.511l.135-6.314h-3.045v-1.8H533.3l.068-2.931h2.1l-.383,2.931H540.9v1.8h-5.547l-.136,6.089c-.045,1.579.158,2.909,1.94,2.909a8.075,8.075,0,0,0,3.653-.834Z"/><path class="cls-2" d="M548.574,67.523a2.03,2.03,0,1,1,2.03,2.031A2.021,2.021,0,0,1,548.574,67.523Z"/><path class="cls-1" d="M570,61.209l-.113,8.141H568.2V67.862a5.852,5.852,0,0,1-4.353,1.737c-2.481-.023-3.879-1.332-3.879-3.406,0-2.39,2.458-3.45,7.961-3.879l.023-.88c.022-1.578-.158-2.909-2.616-2.909a9.75,9.75,0,0,0-4.33,1.06l-.541-1.692a10.9,10.9,0,0,1,5.029-1.2C569.572,56.7,570.023,58.773,570,61.209Zm-2.142,5.277.045-2.525c-4.15.338-5.909.924-5.909,2.187,0,1.037.722,1.647,2.12,1.669A5.545,5.545,0,0,0,567.858,66.486Z"/><path class="cls-1" d="M585.563,62.675c0,4.962-2.458,6.9-6.157,6.9a14.913,14.913,0,0,1-2.413-.181V73.41h-2.03V56.946h1.714v1.376A6.039,6.039,0,0,1,580.85,56.7C583.917,56.721,585.563,58.863,585.563,62.675Zm-2.052.225c0-2.819-.992-4.352-2.909-4.375a6.063,6.063,0,0,0-3.609,1.173v7.735a9.433,9.433,0,0,0,2.571.316C582.293,67.749,583.511,66.126,583.511,62.9Z"/><path class="cls-1" d="M600.224,62.675c0,4.962-2.459,6.9-6.157,6.9a14.9,14.9,0,0,1-2.413-.181V73.41h-2.03V56.946h1.714v1.376A6.035,6.035,0,0,1,595.51,56.7C598.577,56.721,600.224,58.863,600.224,62.675Zm-2.053.225c0-2.819-.992-4.352-2.909-4.375a6.061,6.061,0,0,0-3.608,1.173v7.735a9.428,9.428,0,0,0,2.571.316C596.954,67.749,598.171,66.126,598.171,62.9Z"/><path class="cls-1" d="M605.931,63.171c0,3.157,1.331,4.578,3.947,4.578a8.126,8.126,0,0,0,4.1-1.06l.541,1.692a9.2,9.2,0,0,1-4.691,1.195c-3.676,0-5.954-2.075-5.954-6.292s2.594-6.563,5.841-6.563c3.7,0,5.345,2.3,4.849,6.315h-8.638Zm.158-1.759h6.54c-.044-2.075-1.014-2.932-3.044-2.932A3.307,3.307,0,0,0,606.089,61.412Z"/><path class="cls-1" d="M628.914,60.8V69.35h-2.03V61.1c0-1.828-.744-2.572-2.255-2.572a6.215,6.215,0,0,0-3.608,1.173V69.35h-2.03v-12.4h1.714v1.376a6.139,6.139,0,0,1,4.172-1.624C627.741,56.7,628.914,58.164,628.914,60.8Z"/><path class="cls-1" d="M643.529,50.857V69.35h-1.758V68.019a5.978,5.978,0,0,1-4.128,1.58c-3.067-.023-4.713-2.166-4.713-5.977,0-4.961,2.458-6.9,6.157-6.9a15.153,15.153,0,0,1,2.413.18V50.857ZM641.5,66.6V58.863a9.472,9.472,0,0,0-2.571-.315c-2.729,0-3.947,1.624-3.947,4.848,0,2.82.992,4.353,2.909,4.375A6.048,6.048,0,0,0,641.5,66.6Z"/><path class="cls-1" d="M650.207,61.683c0-8.254,2.616-9.923,6.7-9.923v1.849c-3.089,0-4.555,1.06-4.555,7.848,0,7.239,1.466,8.3,4.555,8.3v1.848C652.823,71.605,650.207,70.162,650.207,61.683Z"/><path class="cls-1" d="M666.468,54.015h2.842l-.2,7.668h-2.436Z"/><path class="cls-1" d="M687.511,50.857V69.35h-1.758V68.019a5.978,5.978,0,0,1-4.128,1.58c-3.067-.023-4.713-2.166-4.713-5.977,0-4.961,2.458-6.9,6.156-6.9a15.166,15.166,0,0,1,2.414.18V50.857ZM685.482,66.6V58.863a9.477,9.477,0,0,0-2.571-.315c-2.729,0-3.947,1.624-3.947,4.848,0,2.82.992,4.353,2.909,4.375A6.048,6.048,0,0,0,685.482,66.6Z"/><path class="cls-1" d="M695.79,54.015h2.841l-.2,7.668h-2.435Z"/><path class="cls-1" d="M714.894,61.683c0,8.253-2.617,9.922-6.7,9.922V69.757c3.09,0,4.556-1.061,4.556-7.849,0-7.239-1.466-8.3-4.556-8.3V51.76C712.277,51.76,714.894,53.2,714.894,61.683Z"/><path class="cls-1" d="M678.337,186.471a.706.706,0,0,0,.169-.2.122.122,0,0,1,.029-.031c.029-.031.058-.062.085-.095s.046-.067.073-.095a2.083,2.083,0,0,0,.2-.238.228.228,0,0,1,.041-.05.8.8,0,0,0,.146-.171c.02-.026.041-.05.062-.074s.069-.072.1-.112c.109-.145.216-.293.323-.44a.527.527,0,0,1,.118-.122.522.522,0,0,0,.082-.081.607.607,0,0,1,.054-.067.893.893,0,0,0,.153-.18.363.363,0,0,1,.053-.068.276.276,0,0,0,.1-.136.161.161,0,0,1,.033-.041l.062-.071a.058.058,0,0,1,.014.017.192.192,0,0,0,0-.024v-.01l.022-.025c.018-.022.033-.048.052-.069.043-.047.087-.094.133-.136a.246.246,0,0,0,.074-.091.093.093,0,0,1,.023-.037.662.662,0,0,0,.149-.214c.026-.052.057-.115.108-.13.1-.029.15-.119.2-.206a.442.442,0,0,1,.07-.094.805.805,0,0,0,.134-.151.826.826,0,0,1,.127-.141.287.287,0,0,0,.056-.08.23.23,0,0,1,.07-.094.329.329,0,0,0,.051-.054c.031-.04.058-.085.108-.095a.031.031,0,0,0,.022-.02c.016-.073.084-.1.1-.165a.713.713,0,0,0,.148-.2l.008-.008a.35.35,0,0,0,.1-.12c.04-.066.112-.095.14-.175,0-.008.017-.012.026-.016a.169.169,0,0,0,.1-.109.216.216,0,0,1,.078-.1.2.2,0,0,0,.067-.066.821.821,0,0,1,.171-.221c.033-.035.076-.045.1-.079s.045-.086.073-.123.1-.082.1-.162c0-.012.018-.021.027-.031s.035-.036.05-.056a1.314,1.314,0,0,1,.119-.137c.06-.06.119-.121.182-.176a.13.13,0,0,0,.033-.043.944.944,0,0,1,.173-.216.333.333,0,0,0,.064-.086.577.577,0,0,1,.044-.076.992.992,0,0,1,.168-.195c.02-.019.034-.049.056-.063a.2.2,0,0,1,.071-.022c.009-.089.009-.09.03-.112.053-.057.107-.113.16-.169a.114.114,0,0,0,.027-.035.547.547,0,0,1,.116-.154c.031-.039.075-.062.091-.118,0-.01.014-.016.022-.023.049-.05.1-.1.148-.151a.147.147,0,0,0,.03-.046.183.183,0,0,1,.062-.086.18.18,0,0,0,.052-.069.15.15,0,0,1,.067-.08.3.3,0,0,0,.113-.127.726.726,0,0,1,.156-.189.332.332,0,0,0,.064-.087.9.9,0,0,1,.176-.249,1.685,1.685,0,0,0,.138-.164c.029-.037.057-.075.087-.11s.069-.072.1-.112c.058-.074.114-.151.168-.229a.847.847,0,0,1,.179-.2.227.227,0,0,0,.046-.042c.09-.107.176-.219.268-.324a3.387,3.387,0,0,0,.227-.273c.008-.011.021-.017.031-.028a1.973,1.973,0,0,0,.159-.17c.083-.11.172-.211.247-.33a.5.5,0,0,1,.078-.087.838.838,0,0,0,.115-.123.387.387,0,0,1,.069-.08.233.233,0,0,0,.084-.109.2.2,0,0,1,.045-.06.885.885,0,0,0,.074-.076.193.193,0,0,0,.044-.088c0-.047.045-.058.05-.1a1.232,1.232,0,0,0,.041-.179.228.228,0,0,1,.051-.136c.015-.021.031-.041.044-.063a.123.123,0,0,0,.02-.052c0-.041,0-.083,0-.142-.058.034-.1,0-.137-.034s-.067-.085-.115-.1c-.012-.005-.019-.03-.026-.047s-.008-.042-.019-.052c-.054-.05-.086-.127-.147-.168a.134.134,0,0,1-.051-.068.15.15,0,0,0-.059-.085.31.31,0,0,1-.132-.179.1.1,0,0,0-.062-.067.2.2,0,0,1-.127-.132.194.194,0,0,0-.036-.055,1.172,1.172,0,0,0-.212-.205.163.163,0,0,1-.041-.048c-.018-.028-.031-.06-.05-.087a.775.775,0,0,0-.1-.138.965.965,0,0,1-.183-.208.306.306,0,0,0-.08-.084.765.765,0,0,1-.21-.224.255.255,0,0,0-.058-.06c-.018-.015-.041-.023-.061-.037s-.039-.034-.054-.047a.74.74,0,0,0-.222.268.786.786,0,0,1-.172.248c-.031.021-.061.044-.093.063a.242.242,0,0,0-.117.149.234.234,0,0,1-.039.079,1.356,1.356,0,0,1-.106.12.236.236,0,0,1-.063.052.257.257,0,0,0-.113.106.279.279,0,0,1-.092.1.184.184,0,0,0-.082.1.152.152,0,0,1-.065.083c-.026.016-.049.039-.074.056a.212.212,0,0,0-.1.163c-.012.082-.053.133-.125.139-.009,0-.018.008-.028.013a.588.588,0,0,0-.051.188.183.183,0,0,1-.065.149.259.259,0,0,0-.046.075,1.268,1.268,0,0,1-.069.126c-.047.065-.1.123-.148.186a.244.244,0,0,1-.107.1c-.02.006-.036.032-.053.05a.337.337,0,0,1-.138.1.117.117,0,0,0-.087.084c-.015.054-.038.1-.09.111-.008,0-.016.013-.022.022-.069.1-.152.189-.227.292l-.079-.04a.926.926,0,0,0-.1.1c-.054.068-.1.14-.155.211v.017l.033.008c0,.041-.021.059-.047.056a.127.127,0,0,0-.088.041.354.354,0,0,0-.111.145c-.011.028-.023.058-.05.067a.5.5,0,0,0-.172.129,1.083,1.083,0,0,0-.133.171.206.206,0,0,0-.017.053c-.023.065-.045.13-.069.194-.006.016-.019.032-.041.005.014-.032.029-.066.042-.1a.544.544,0,0,0,.029-.086.209.209,0,0,0-.012-.063c-.075.057-.151.094-.174.2a.1.1,0,0,1-.069.074.189.189,0,0,0-.119.14.156.156,0,0,1-.058.09.5.5,0,0,0-.141.191.19.19,0,0,1-.1.118.055.055,0,0,0-.031.025,1.346,1.346,0,0,1-.153.227.159.159,0,0,0-.035.095c0,.062-.033.109-.037.168a.066.066,0,0,1-.03.044.23.23,0,0,0-.083.125c-.012.032-.022.065-.033.1-.017.053-.046.084-.086.071-.04.043-.075.077-.107.115a.388.388,0,0,0-.062.088.4.4,0,0,1-.085.127.077.077,0,0,0-.026.045.073.073,0,0,1-.062.076.046.046,0,0,0-.03.026.187.187,0,0,1-.061.074,1.1,1.1,0,0,0-.174.222,1.327,1.327,0,0,1,0-.167.9.9,0,0,0,0-.289.254.254,0,0,1,0-.047c0-.047,0-.093,0-.14s-.007-.086,0-.129a2.932,2.932,0,0,0,0-.338.329.329,0,0,1,0-.07,1.066,1.066,0,0,0,0-.246c0-.035,0-.07,0-.106,0-.054.007-.109,0-.163-.008-.2-.019-.392-.029-.587a.691.691,0,0,1,.012-.187.768.768,0,0,0,.01-.127.737.737,0,0,1,0-.094,1.171,1.171,0,0,0,0-.258.484.484,0,0,1,0-.093.363.363,0,0,0-.006-.185.179.179,0,0,1,0-.057c0-.055,0-.11,0-.164,0-.031,0-.063,0-.094,0-.07.006-.141.014-.21a.3.3,0,0,0,0-.127.119.119,0,0,1,0-.046.838.838,0,0,0-.02-.278.3.3,0,0,1,0-.185.521.521,0,0,0,.023-.319.591.591,0,0,1,0-.126,1.1,1.1,0,0,0,.007-.222,1.039,1.039,0,0,1,.007-.209.326.326,0,0,0-.008-.1.3.3,0,0,1,0-.127.364.364,0,0,0,0-.081.287.287,0,0,1,.021-.159.046.046,0,0,0,0-.034c-.031-.065,0-.14-.023-.206a.841.841,0,0,0-.011-.265v-.012a.449.449,0,0,0,0-.175c-.01-.082.024-.163,0-.244a.075.075,0,0,1,.009-.033.224.224,0,0,0,0-.159.27.27,0,0,1,0-.138.285.285,0,0,0,.008-.1,1.061,1.061,0,0,1-.009-.3c0-.053.029-.1.029-.146s-.018-.1-.021-.149c0-.068.02-.139-.02-.2-.006-.009,0-.03,0-.046a.73.73,0,0,0,0-.081,1.882,1.882,0,0,1,0-.2c.007-.094.013-.187.026-.28a.187.187,0,0,0,0-.058,1.263,1.263,0,0,1,0-.3.4.4,0,0,0,0-.115.551.551,0,0,1-.014-.092,1.319,1.319,0,0,1,0-.281.711.711,0,0,1,0-.093.3.3,0,0,1,.037-.076c-.045-.071-.046-.071-.045-.105l.015-.257a.117.117,0,0,0,0-.046.7.7,0,0,1-.007-.209.442.442,0,0,0,0-.162c0-.009,0-.023,0-.034,0-.078.011-.156.016-.233a.159.159,0,0,0-.006-.058.248.248,0,0,1-.006-.115.224.224,0,0,0,0-.093.2.2,0,0,1,0-.114.4.4,0,0,0,.006-.186.955.955,0,0,1,0-.267.376.376,0,0,0,0-.116,1.084,1.084,0,0,1-.021-.326,2.284,2.284,0,0,0,0-.234q0-.076,0-.153c0-.055.007-.109,0-.164,0-.1-.008-.2-.015-.305a1.1,1.1,0,0,1,.011-.292.325.325,0,0,0,.008-.069v-.3l0-.008a1.346,1.346,0,0,1,0-.168.9.9,0,0,0,0-.289.24.24,0,0,1,0-.046c0-.047,0-.094,0-.14v-.012a1.7,1.7,0,0,0,.01-.188c0-.115-.006-.229-.013-.344a1.123,1.123,0,0,0,0-.239c0-.015,0-.029,0-.044a.721.721,0,0,0,0-.131.551.551,0,0,1,0-.115.29.29,0,0,0,0-.149.247.247,0,0,1,0-.082c0-.038.01-.077.008-.116a.2.2,0,0,0-.021-.1c-.006-.008,0-.018-.006-.026l0-.095a.683.683,0,0,1,.012-.186.771.771,0,0,0,.01-.128.721.721,0,0,1,0-.093,1.172,1.172,0,0,0,0-.258.494.494,0,0,1,0-.094.359.359,0,0,0-.006-.184.184.184,0,0,1,0-.058c0-.054,0-.109,0-.163,0-.032,0-.063,0-.094,0-.071.006-.141.014-.21a.3.3,0,0,0,0-.127.123.123,0,0,1,0-.046.845.845,0,0,0-.02-.279.3.3,0,0,1,0-.184.524.524,0,0,0,.023-.32.588.588,0,0,1,0-.126,1.092,1.092,0,0,0,.007-.221,1.039,1.039,0,0,1,.007-.209.322.322,0,0,0-.008-.1.3.3,0,0,1,0-.127.37.37,0,0,0,0-.082.288.288,0,0,1,.021-.159.043.043,0,0,0,0-.033c-.031-.065,0-.141-.023-.206a.849.849,0,0,0-.011-.266v-.011a.449.449,0,0,0,0-.175c-.01-.082.024-.164,0-.245a.071.071,0,0,1,.009-.032.227.227,0,0,0,0-.16.266.266,0,0,1,0-.137.287.287,0,0,0,.008-.1,1.062,1.062,0,0,1-.009-.3c0-.053.029-.1.029-.146s-.018-.1-.021-.149c0-.069.02-.14-.02-.2-.006-.01,0-.03,0-.046a.748.748,0,0,0,0-.082,1.9,1.9,0,0,1,0-.2c.007-.093.013-.187.026-.279a.187.187,0,0,0,0-.058,1.272,1.272,0,0,1,0-.3.4.4,0,0,0,0-.115.551.551,0,0,1-.014-.092,1.31,1.31,0,0,1,0-.28.726.726,0,0,1,0-.094.308.308,0,0,1,.037-.075c-.045-.071-.046-.072-.045-.106l.015-.256a.122.122,0,0,0,0-.047.7.7,0,0,1-.007-.209.436.436,0,0,0,0-.161c0-.009,0-.023,0-.035,0-.077.011-.155.016-.233a.162.162,0,0,0-.006-.058.244.244,0,0,1-.006-.114.223.223,0,0,0,0-.093.2.2,0,0,1,0-.115.4.4,0,0,0,.006-.186.955.955,0,0,1,0-.267.371.371,0,0,0,0-.115,1.089,1.089,0,0,1-.021-.327,2.283,2.283,0,0,0,0-.234q0-.076,0-.153c0-.054.007-.109,0-.163,0-.1-.008-.2-.015-.305a1.1,1.1,0,0,1,.011-.292.334.334,0,0,0,.008-.07c0-.152,0-.305,0-.457,0-.129.009-.258,0-.387a.4.4,0,0,1,0-.047c0-.085.017-.171.014-.256-.007-.148,0-.3-.02-.444a.7.7,0,0,1,0-.129,1.16,1.16,0,0,0,.01-.185.551.551,0,0,1,0-.115.294.294,0,0,0,0-.15.241.241,0,0,1,0-.081c0-.039.01-.078.008-.116a.2.2,0,0,0-.021-.1c-.025-.036,0-.08-.021-.11-.03-.051-.035-.116-.076-.162a.235.235,0,0,1-.043-.14c0-.028,0-.055-.006-.082a.118.118,0,0,0-.016-.054c-.022-.031-.049-.059-.083-.1a.121.121,0,0,1-.118.093.379.379,0,0,0-.143.025c-.011.006-.03-.006-.045-.011s-.031-.023-.044-.021c-.067.011-.135-.017-.2.007a.089.089,0,0,1-.075,0,.108.108,0,0,0-.091-.01.224.224,0,0,1-.2-.013.082.082,0,0,0-.084,0,.156.156,0,0,1-.167.015.123.123,0,0,0-.057-.007.954.954,0,0,0-.27.035.11.11,0,0,1-.057,0c-.029,0-.057-.015-.086-.018a.535.535,0,0,0-.154-.009.731.731,0,0,1-.251.009.238.238,0,0,0-.106.008.575.575,0,0,1-.279.022.218.218,0,0,0-.076.006c-.022.006-.043.02-.065.027a.508.508,0,0,1-.066.013.967.967,0,0,0,0,.379.947.947,0,0,1,.023.323c-.009.041-.017.083-.028.124a.307.307,0,0,0,0,.2.267.267,0,0,1,.019.089c0,.059,0,.117,0,.176a.339.339,0,0,1-.015.09.35.35,0,0,0-.017.172.371.371,0,0,1-.007.149.249.249,0,0,0,0,.138.181.181,0,0,1,0,.115c-.008.033-.011.069-.019.1a.254.254,0,0,0,.025.2.176.176,0,0,1-.007.205.133.133,0,0,0-.012.032.582.582,0,0,0,.074.177.2.2,0,0,1,.042.162.247.247,0,0,0,.011.091,1.494,1.494,0,0,1,.025.149c0,.085,0,.171,0,.257a.334.334,0,0,1-.019.16.213.213,0,0,0-.008.081.466.466,0,0,1-.038.191.156.156,0,0,0-.012.134.169.169,0,0,1,0,.155.064.064,0,0,0,0,.034c.012.132,0,.264.01.4l-.079.039a1.42,1.42,0,0,0-.014.154c0,.094.008.188.013.282,0,0,.008.008.011.011l.027-.022a.058.058,0,0,1,0,.079.192.192,0,0,0-.039.1.422.422,0,0,0,.007.2.13.13,0,0,1,0,.091.745.745,0,0,0-.046.239,1.411,1.411,0,0,0,.006.234.2.2,0,0,0,.019.052c.022.065.045.13.065.2,0,.017,0,.039-.026.039-.009-.035-.019-.072-.03-.108a.475.475,0,0,0-.03-.085c-.007-.014-.024-.019-.045-.035a.431.431,0,0,0,0,.292.134.134,0,0,1,0,.112.243.243,0,0,0,0,.2.184.184,0,0,1,.012.114.61.61,0,0,0,.012.255.246.246,0,0,1,0,.171.068.068,0,0,0-.007.044,1.668,1.668,0,0,1,.025.292.157.157,0,0,0,.03.1c.04.041.04.106.072.151a.076.076,0,0,1,0,.056.279.279,0,0,0,.014.16c.01.033.023.065.034.1.019.053.017.1-.019.124,0,.065-.008.119-.008.173a.44.44,0,0,0,.008.115.5.5,0,0,1,.013.163.106.106,0,0,0,.008.054.089.089,0,0,1,0,.106.064.064,0,0,0-.006.045.228.228,0,0,1,0,.1,1.277,1.277,0,0,0,.015.37.664.664,0,0,1,.017.288.623.623,0,0,0-.009.265c0,.01-.008.024-.013.038l-.054-.058c-.007.048-.014.086-.018.125a.256.256,0,0,0,.031.179.2.2,0,0,1,.039.123.464.464,0,0,0,.014.092.411.411,0,0,1,.011.174.373.373,0,0,0,.009.185.124.124,0,0,1,0,.091.192.192,0,0,1-.013.017l-.041-.008-.011.091c.068.037.073.066.043.207l-.058-.011-.037.095c.024.09.017.2.1.247v.019c-.007.054-.048.109,0,.163,0,0,0,.022,0,.034a1.644,1.644,0,0,0,.01.371.37.37,0,0,1,0,.1c0,.024-.007.047-.007.07a3.179,3.179,0,0,1,0,.352.6.6,0,0,1-.038.2.857.857,0,0,1,.03.393.39.39,0,0,0-.009.139.372.372,0,0,1,0,.1l-.021.008c-.023.007-.048.01-.066.014a.962.962,0,0,0,0,.378.947.947,0,0,1,.023.323c-.009.041-.017.083-.028.124a.307.307,0,0,0,0,.2.273.273,0,0,1,.019.09c0,.058,0,.117,0,.175a.332.332,0,0,1-.015.09.352.352,0,0,0-.017.172.376.376,0,0,1-.007.15.249.249,0,0,0,0,.138.178.178,0,0,1,0,.114c-.008.034-.011.069-.019.1a.254.254,0,0,0,.025.2.176.176,0,0,1-.007.2.127.127,0,0,0-.012.033.6.6,0,0,0,.074.177.2.2,0,0,1,.042.161.133.133,0,0,0,0,.062c0,.019,0,.037,0,.056-.009.1,0,.2,0,.3a2,2,0,0,1,0,.257,1.135,1.135,0,0,0,0,.184.288.288,0,0,1-.021.067.158.158,0,0,0-.012.135.167.167,0,0,1,0,.154.067.067,0,0,0,0,.035c.012.131,0,.264.01.4l-.079.039a1.4,1.4,0,0,0-.014.154c0,.094.008.188.013.282,0,0,.008.008.011.011l.027-.023a.059.059,0,0,1,0,.08.186.186,0,0,0-.039.1.423.423,0,0,0,.007.2.13.13,0,0,1,0,.091.74.74,0,0,0-.046.238,1.423,1.423,0,0,0,.006.235.235.235,0,0,0,.019.052c.022.065.045.13.065.195,0,.017,0,.04-.026.039q-.014-.053-.03-.108a.475.475,0,0,0-.03-.085c-.007-.013-.024-.019-.045-.035a.434.434,0,0,0,0,.293.132.132,0,0,1,0,.111.243.243,0,0,0,0,.2.186.186,0,0,1,.012.114.609.609,0,0,0,.012.255.246.246,0,0,1,0,.171.07.07,0,0,0-.007.044,1.685,1.685,0,0,1,.025.292.162.162,0,0,0,.03.1c.04.04.04.106.072.151a.076.076,0,0,1,0,.056.276.276,0,0,0,.014.159c.01.034.023.065.034.1.019.052.017.1-.019.123,0,.065-.008.119-.008.173a.447.447,0,0,0,.008.116.49.49,0,0,1,.013.162.1.1,0,0,0,.008.054.09.09,0,0,1,0,.107.062.062,0,0,0-.006.044.228.228,0,0,1,0,.1,1.284,1.284,0,0,0,.015.371.663.663,0,0,1,.017.288.623.623,0,0,0-.009.265c0,.01-.008.023-.013.037l-.054-.058c-.007.048-.014.086-.018.125a.254.254,0,0,0,.031.179.2.2,0,0,1,.039.124.476.476,0,0,0,.014.092.409.409,0,0,1,.011.174.369.369,0,0,0,.009.184.124.124,0,0,1,0,.091.109.109,0,0,1-.013.017l-.041-.007-.011.091c.068.036.073.065.043.207l-.058-.012-.037.1c.024.09.017.2.1.247v.018c-.007.055-.048.11,0,.163,0,.006,0,.023,0,.034a1.654,1.654,0,0,0,.01.372.37.37,0,0,1,0,.1c0,.023-.007.046-.007.069a3.179,3.179,0,0,1,0,.352.6.6,0,0,1-.038.2.861.861,0,0,1,.03.394.389.389,0,0,0-.009.139,1,1,0,0,1,0,.232c0,.035-.008.07-.006.1a1.874,1.874,0,0,0,.012.28.224.224,0,0,1,0,.093.965.965,0,0,0,0,.234,1.52,1.52,0,0,1,.007.223,2.388,2.388,0,0,0,0,.293.374.374,0,0,1,0,.082.7.7,0,0,0,0,.2.776.776,0,0,1-.01.21.641.641,0,0,0,0,.279.137.137,0,0,1,.007.034,2.042,2.042,0,0,1-.007.222,2.177,2.177,0,0,0,0,.352,1.837,1.837,0,0,1,0,.246c-.009.1,0,.2,0,.3a2,2,0,0,1,0,.257c-.016.121,0,.241,0,.363,0,.067,0,.135-.009.2-.014-.013-.026-.027-.04-.04a.4.4,0,0,1-.078-.085.85.85,0,0,0-.125-.162.885.885,0,0,1-.117-.153.219.219,0,0,0-.065-.067.221.221,0,0,1-.078-.085.351.351,0,0,0-.045-.062.236.236,0,0,1-.078-.13.044.044,0,0,0-.017-.027c-.06-.019-.08-.1-.137-.126a.684.684,0,0,0-.163-.179l-.006-.009a.351.351,0,0,0-.1-.127c-.054-.049-.078-.136-.145-.17-.006,0-.009-.019-.012-.031a.182.182,0,0,0-.091-.116.212.212,0,0,1-.083-.094.219.219,0,0,0-.055-.081.808.808,0,0,1-.183-.206c-.029-.04-.037-.093-.065-.128s-.071-.054-.1-.088-.067-.116-.134-.126c-.009,0-.017-.021-.026-.033a.665.665,0,0,0-.046-.059,1.339,1.339,0,0,1-.113-.145c-.05-.072-.1-.143-.146-.219a.114.114,0,0,0-.035-.04.907.907,0,0,1-.179-.209.291.291,0,0,0-.071-.077.4.4,0,0,1-.063-.054,1.033,1.033,0,0,1-.162-.2.831.831,0,0,1-.052-.069.338.338,0,0,1-.018-.085c-.073-.012-.074-.011-.093-.037l-.14-.193a.1.1,0,0,0-.028-.032c-.056-.03-.086-.093-.128-.141s-.051-.09-.1-.11c-.008,0-.013-.017-.02-.026-.041-.06-.082-.12-.124-.179a.129.129,0,0,0-.038-.036.177.177,0,0,1-.072-.076.163.163,0,0,0-.057-.062.159.159,0,0,1-.066-.082.325.325,0,0,0-.105-.137.759.759,0,0,1-.157-.188.291.291,0,0,0-.071-.077.816.816,0,0,1-.206-.212,1.6,1.6,0,0,0-.136-.167c-.031-.035-.062-.07-.091-.106s-.059-.083-.092-.12c-.062-.069-.125-.137-.19-.2a.888.888,0,0,1-.163-.217.327.327,0,0,0-.035-.056c-.089-.108-.181-.212-.268-.323a3.347,3.347,0,0,0-.225-.274.352.352,0,0,1-.024-.038,2.115,2.115,0,0,0-.14-.193c-.091-.1-.175-.208-.274-.3a.588.588,0,0,1-.071-.095.923.923,0,0,0-.1-.139.409.409,0,0,1-.066-.083.236.236,0,0,0-.09-.1.194.194,0,0,1-.051-.055.94.94,0,0,0-.062-.089.145.145,0,0,0-.073-.053c-.039,0-.048-.054-.079-.06-.051-.009-.093-.051-.148-.049a.164.164,0,0,1-.113-.062c-.017-.018-.034-.038-.052-.054a.083.083,0,0,0-.043-.023.921.921,0,0,0-.118,0,.164.164,0,0,1-.028.166.594.594,0,0,0-.087.139c0,.015-.024.023-.038.032s-.035.009-.044.022c-.041.066-.105.1-.139.178a.126.126,0,0,1-.055.062.131.131,0,0,0-.071.07c-.038.066-.073.138-.148.16a.113.113,0,0,0-.056.076.216.216,0,0,1-.109.153.157.157,0,0,0-.045.044,1.332,1.332,0,0,0-.17.255.15.15,0,0,1-.04.05c-.023.022-.049.038-.072.06a.759.759,0,0,0-.114.126,1.015,1.015,0,0,1-.172.221.345.345,0,0,0-.07.1.79.79,0,0,1-.184.253.314.314,0,0,0-.051.071c-.012.022-.018.05-.03.073a.723.723,0,0,1-.039.066.749.749,0,0,0,.221.268c.071.067.159.108.206.209.017.037.036.073.052.111a.235.235,0,0,0,.124.142.2.2,0,0,1,.065.047,1.557,1.557,0,0,1,.1.128.277.277,0,0,1,.043.077.281.281,0,0,0,.088.136.3.3,0,0,1,.083.111.182.182,0,0,0,.08.1.148.148,0,0,1,.068.079c.014.031.033.059.046.09a.186.186,0,0,0,.136.119.145.145,0,0,1,.114.151.142.142,0,0,0,.011.033.369.369,0,0,0,.156.062.139.139,0,0,1,.124.079c.011.025.04.038.061.055a1.044,1.044,0,0,1,.105.084c.053.056.1.12.153.179a.276.276,0,0,1,.08.129.215.215,0,0,0,.042.064.433.433,0,0,1,.085.167.132.132,0,0,0,.07.106.135.135,0,0,1,.092.108.052.052,0,0,0,.018.027c.085.083.156.184.241.275l-.033.1a1.269,1.269,0,0,0,.08.121c.056.066.116.126.174.188h.014l.007-.04a.049.049,0,0,1,.047.056.186.186,0,0,0,.033.107.34.34,0,0,0,.12.134.093.093,0,0,1,.055.061.663.663,0,0,0,.108.208,1.137,1.137,0,0,0,.141.161c.011.012.029.013.044.02.053.027.107.054.16.083.013.007.027.024,0,.05l-.085-.052a.33.33,0,0,0-.071-.034c-.012,0-.028.007-.052.014.048.092.078.183.169.21.032.01.048.043.061.083a.193.193,0,0,0,.115.145.137.137,0,0,1,.075.071.46.46,0,0,0,.158.169.2.2,0,0,1,.1.125.067.067,0,0,0,.021.037,1.174,1.174,0,0,1,.188.185.108.108,0,0,0,.079.042c.051,0,.09.041.139.046.013,0,.03.019.036.035a.2.2,0,0,0,.1.1c.026.015.053.027.08.04a.089.089,0,0,1,.059.1c.036.048.064.09.1.129a.351.351,0,0,0,.074.075.364.364,0,0,1,.1.1c.009.014.024.03.038.031.039.006.056.031.062.075a.053.053,0,0,0,.022.036c.03.015.043.047.061.074a.992.992,0,0,0,.227.25.479.479,0,0,1,.181.189.491.491,0,0,0,.149.194c.007.006.008.024.012.038l-.072.006c.023.039.041.072.061.1.033.05.074.1.126.1a.136.136,0,0,1,.1.054.291.291,0,0,0,.064.053.307.307,0,0,1,.109.114.286.286,0,0,0,.115.123.1.1,0,0,1,.052.065.169.169,0,0,1,0,.023l-.033.03.045.074c.069-.033.09-.017.152.109l-.049.042.03.1c.07.043.128.125.215.09l.012.012c.026.045.029.118.1.113.006,0,.013.016.02.024a1.244,1.244,0,0,0,.224.254.286.286,0,0,1,.061.075c.013.017.022.039.036.055a2.644,2.644,0,0,1,.206.249.568.568,0,0,1,.092.176c.013.007.023.019.035.027a.652.652,0,0,1,.216.226.311.311,0,0,0,.075.105c.06.041.088.113.134.166.021.024.036.057.057.08a1.275,1.275,0,0,0,.173.186.2.2,0,0,1,.055.065.772.772,0,0,0,.135.168,1.154,1.154,0,0,1,.136.152,1.646,1.646,0,0,0,.171.208c.008.009.015.02.024.029a.209.209,0,0,1,.023.029.562.562,0,0,0,.114.144.606.606,0,0,1,.115.157.493.493,0,0,0,.167.193.088.088,0,0,1,.025.018,1.53,1.53,0,0,1,.125.163,1.557,1.557,0,0,0,.207.247c.015.018.029.038.044.055A.976.976,0,0,1,678.337,186.471Zm-.923-31.7a.42.42,0,0,1-.033-.2c.029.07.053.124.074.18,0,.009-.006.026-.01.039C677.434,154.783,677.419,154.782,677.414,154.772Z"/><path class="cls-1" d="M679.248,153.814a.483.483,0,0,0,.177-.023c.12-.019.239-.038.359-.06.08-.015.16-.035.246-.054a3.936,3.936,0,0,0,.1-1.133,4.532,4.532,0,0,1-.037-.838,5.237,5.237,0,0,0,0-.762,5.888,5.888,0,0,1-.037-.837,5.891,5.891,0,0,0,0-.763c-.006-.145.011-.29.018-.434a6.392,6.392,0,0,0,.027-1.017c-.038-.35-.051-.7-.071-1.056-.006-.109,0-.218,0-.327,0-.145.018-.29.013-.435a13.139,13.139,0,0,0-.013-1.346,1.049,1.049,0,0,1,.018-.144c0-.071,0-.143,0-.214a1.094,1.094,0,0,1,.006-.25,2.715,2.715,0,0,0,.024-.834,3.7,3.7,0,0,1,0-.981.844.844,0,0,0-.008-.218c-.013-.207-.033-.413-.039-.619a3.482,3.482,0,0,1,.033-.866,1.6,1.6,0,0,0-.013-.651,1.379,1.379,0,0,1-.026-.212,2.409,2.409,0,0,0-.006-.79c-.035-.1.038-.24.028-.358-.046-.567-.033-1.135-.037-1.7,0-.085,0-.17.007-.254a2.821,2.821,0,0,0,.016-.4,2.4,2.4,0,0,1,.046-.76.8.8,0,0,0,0-.284,5.459,5.459,0,0,1-.081-.977,6.917,6.917,0,0,0,0-.762c-.02-.328-.045-.656-.065-.983a1.28,1.28,0,0,1,0-.255,5.675,5.675,0,0,0,.038-1.378.9.9,0,0,1,.055-.5.323.323,0,0,0,0-.248,2.255,2.255,0,0,1-.067-.83,2.374,2.374,0,0,0,0-.9.417.417,0,0,1,.006-.144c0-.145.016-.29.015-.435s-.029-.268-.019-.4a7.466,7.466,0,0,0,0-1.047.763.763,0,0,1,0-.218,2.673,2.673,0,0,0,.009-.763c0-.109,0-.218,0-.327,0-.17.024-.34.014-.508-.035-.607-.077-1.214-.122-1.821a1.816,1.816,0,0,1,.042-.578,1.927,1.927,0,0,0,.037-.4,1.774,1.774,0,0,1,0-.291,3.053,3.053,0,0,0,0-.8,1.232,1.232,0,0,1-.01-.29.918.918,0,0,0-.028-.572.444.444,0,0,1-.006-.179c0-.169.011-.338.012-.508,0-.1-.02-.194-.016-.291.011-.217.02-.436.05-.651a.789.789,0,0,0-.008-.4.3.3,0,0,1-.018-.141,2.157,2.157,0,0,0-.081-.863.755.755,0,0,1,0-.572,1.369,1.369,0,0,0,.079-.992,1.387,1.387,0,0,1-.022-.391,2.78,2.78,0,0,0,.02-.687,2.684,2.684,0,0,1,.022-.647.842.842,0,0,0-.03-.32.765.765,0,0,1-.022-.394,1.07,1.07,0,0,0,.014-.253.744.744,0,0,1,.075-.494.119.119,0,0,0,.013-.1c-.118-.2.009-.435-.089-.638a2.287,2.287,0,0,0-.047-.824.065.065,0,0,1,0-.036,1.173,1.173,0,0,0,.01-.543c-.038-.253.088-.506-.015-.757-.011-.025.016-.069.033-.1a.588.588,0,0,0,.013-.5.717.717,0,0,1-.019-.427.681.681,0,0,0,.029-.323,2.739,2.739,0,0,1-.038-.938c.01-.164.1-.3.1-.453s-.07-.307-.078-.463c-.013-.212.071-.433-.083-.63-.023-.029,0-.093,0-.141,0-.085.012-.17.007-.254a4.387,4.387,0,0,1,.013-.617c.024-.29.044-.579.09-.867a.4.4,0,0,0-.009-.181,3.152,3.152,0,0,1-.022-.935,1.021,1.021,0,0,0-.02-.356,1.479,1.479,0,0,1-.052-.285,3.342,3.342,0,0,1,.01-.871,1.975,1.975,0,0,1,.01-.289,1,1,0,0,1,.137-.236c-.171-.219-.174-.219-.168-.325.015-.265.034-.53.049-.8a.335.335,0,0,0-.007-.145,1.806,1.806,0,0,1-.033-.647c-.005-.167.059-.335-.021-.5-.014-.028,0-.071,0-.107.019-.241.041-.482.056-.723a.4.4,0,0,0-.022-.179.609.609,0,0,1-.025-.356.593.593,0,0,0-.018-.287.53.53,0,0,1,0-.356,1.033,1.033,0,0,0,.018-.577,2.45,2.45,0,0,1-.008-.828.96.96,0,0,0-.024-.358,2.839,2.839,0,0,1-.085-1.012,5.879,5.879,0,0,0,0-.727c-.008-.158-.014-.315-.013-.473s.021-.339.014-.507c-.014-.316-.036-.632-.064-.947a2.784,2.784,0,0,1,.036-.906.927.927,0,0,0,.029-.215c0-.473-.022-.947-.011-1.419a11.189,11.189,0,0,0-.006-1.2.944.944,0,0,1,.021-.144,6.648,6.648,0,0,0,.044-.8c-.026-.459-.013-.92-.081-1.377a1.962,1.962,0,0,1,.014-.4,2.955,2.955,0,0,0,.034-.576,1.3,1.3,0,0,1,0-.358.8.8,0,0,0-.018-.463.582.582,0,0,1-.015-.251,3.413,3.413,0,0,0,.028-.362.542.542,0,0,0-.08-.307c-.1-.112-.01-.248-.081-.343-.115-.155-.135-.357-.287-.5a.647.647,0,0,1-.167-.434,2.4,2.4,0,0,0-.022-.254c0-.023-.018-.042-.024-.065a5.3,5.3,0,0,0-.63.015,1.717,1.717,0,0,1-.581,0,.483.483,0,0,0-.177.023c-.119.019-.239.038-.358.06-.081.015-.161.035-.247.054a3.937,3.937,0,0,0-.1,1.134,4.426,4.426,0,0,1,.037.836,5.25,5.25,0,0,0,0,.763,6.046,6.046,0,0,1,.036.838,6.057,6.057,0,0,0,0,.762c.006.145-.011.29-.018.434a6.392,6.392,0,0,0-.028,1.017c.038.35.051.7.071,1.055.007.11,0,.219,0,.328,0,.145-.017.291-.013.435a13.117,13.117,0,0,0,.013,1.345,1.012,1.012,0,0,1-.018.144c0,.072,0,.144,0,.215a1.094,1.094,0,0,1-.006.25,2.745,2.745,0,0,0-.024.834,3.621,3.621,0,0,1,0,.981.89.89,0,0,0,.008.218c.013.207.033.413.039.62a3.478,3.478,0,0,1-.033.865,1.616,1.616,0,0,0,.013.65,1.192,1.192,0,0,1,.026.213,2.409,2.409,0,0,0,.006.79c.035.1-.038.24-.028.358.046.567.033,1.135.037,1.7,0,.085,0,.169-.007.254a2.673,2.673,0,0,0-.015.4,2.4,2.4,0,0,1-.047.76.77.77,0,0,0,0,.283,5.477,5.477,0,0,1,.08.978,7.173,7.173,0,0,0,0,.762c.019.328.044.656.064.983a1.209,1.209,0,0,1,0,.255A5.625,5.625,0,0,0,677.1,103a.914.914,0,0,1-.055.5.318.318,0,0,0,0,.248,2.254,2.254,0,0,1,.068.83,2.334,2.334,0,0,0,0,.9.445.445,0,0,1-.007.144c0,.145-.015.29-.014.434s.028.268.019.4a7.317,7.317,0,0,0,0,1.047.728.728,0,0,1,0,.218,2.673,2.673,0,0,0-.009.763c0,.109,0,.218,0,.327,0,.17-.024.339-.014.508.035.607.078,1.214.122,1.82a1.82,1.82,0,0,1-.042.579,2,2,0,0,0-.037.4,1.774,1.774,0,0,1,0,.291,3.011,3.011,0,0,0,0,.8,1.287,1.287,0,0,1,.009.29.911.911,0,0,0,.029.572.458.458,0,0,1,0,.178c0,.17-.011.339-.011.508,0,.1.02.2.015.292-.01.217-.019.436-.05.65a.793.793,0,0,0,.008.4.31.31,0,0,1,.019.141,2.138,2.138,0,0,0,.08.863.751.751,0,0,1,0,.572,1.366,1.366,0,0,0-.079.991,1.394,1.394,0,0,1,.022.392,2.829,2.829,0,0,0-.02.687,2.634,2.634,0,0,1-.022.647.862.862,0,0,0,.03.32.765.765,0,0,1,.023.394,1.02,1.02,0,0,0-.015.253.733.733,0,0,1-.075.494.118.118,0,0,0-.013.1c.118.2-.009.435.089.638a2.287,2.287,0,0,0,.047.824.065.065,0,0,1,0,.036,1.169,1.169,0,0,0-.009.542c.038.254-.089.507.015.758.01.025-.017.069-.034.1a.587.587,0,0,0-.012.5.709.709,0,0,1,.018.427.694.694,0,0,0-.029.323,2.765,2.765,0,0,1,.039.938c-.011.164-.105.3-.1.453s.07.307.079.462c.012.213-.072.434.083.63.022.03,0,.094,0,.142,0,.085-.012.17-.007.254a4.387,4.387,0,0,1-.013.617c-.024.29-.043.579-.09.867a.41.41,0,0,0,.009.181,3.152,3.152,0,0,1,.022.935,1.046,1.046,0,0,0,.02.356,1.406,1.406,0,0,1,.052.285,3.334,3.334,0,0,1-.01.87,1.968,1.968,0,0,1-.009.289,1.059,1.059,0,0,1-.137.237c.17.219.174.219.168.325-.015.264-.034.53-.05.8a.351.351,0,0,0,.007.145,1.783,1.783,0,0,1,.033.647c0,.166-.059.335.022.5.013.029,0,.071-.006.107-.019.242-.041.482-.056.724a.4.4,0,0,0,.022.179.609.609,0,0,1,.026.356.592.592,0,0,0,.017.287.524.524,0,0,1,0,.356,1.033,1.033,0,0,0-.018.577,2.45,2.45,0,0,1,.009.828.938.938,0,0,0,.023.358,2.84,2.84,0,0,1,.086,1.012,5.512,5.512,0,0,0,0,.727c.007.158.013.315.013.473s-.022.339-.015.507c.014.316.036.632.064.947a2.786,2.786,0,0,1-.036.906.984.984,0,0,0-.029.215c0,.473.023.947.011,1.419a11.434,11.434,0,0,0,.006,1.2,1.038,1.038,0,0,1-.02.144,6.475,6.475,0,0,0-.045.8c.026.459.013.92.081,1.377a1.892,1.892,0,0,1-.014.4,3.038,3.038,0,0,0-.033.576,1.3,1.3,0,0,1,0,.358.8.8,0,0,0,.018.463.581.581,0,0,1,.015.251c0,.121-.035.242-.028.362a.55.55,0,0,0,.08.307c.1.112.011.248.081.343.116.155.136.357.287.5a.652.652,0,0,1,.167.435,2.354,2.354,0,0,0,.022.253.592.592,0,0,0,.025.066,5.289,5.289,0,0,0,.629-.015A1.692,1.692,0,0,1,679.248,153.814Z"/></svg>