<?xml version="1.0" encoding="utf-8"?>
<!-- Generator: Adobe Illustrator 22.1.0, SVG Export Plug-In . SVG Version: 6.00 Build 0)  -->
<svg version="1.1" id="Livello_1" xmlns="http://www.w3.org/2000/svg" xmlns:xlink="http://www.w3.org/1999/xlink" x="0px" y="0px"
	 viewBox="0 0 952 233.6" style="enable-background:new 0 0 952 233.6;" xml:space="preserve">
<style type="text/css">
	.st0{fill:#1858A8;}
	.st1{fill:#FF3366;}
</style>
<title>10</title>
<path class="st0" d="M158.3,51v16.1h4.6V69h-6.6V49.2h6.6V51H158.3z"/>
<path class="st0" d="M179,64.9v1.8h-10.7v-1.8h4.8v-9.7l-4.8,1.8v-2l4.8-1.8v-1.8h2.1v13.5H179z"/>
<path class="st0" d="M190.2,66.1c0,2-1.2,4.3-4.6,4.3v-1.7c1.5,0,2.4-0.6,2.7-2c-0.2,0.2-0.5,0.3-0.8,0.3c-1.1,0-2-1-1.9-2.1
	c0-1.1,0.9-1.9,2-1.9C188.8,62.9,190.2,63.9,190.2,66.1z"/>
<path class="st0" d="M201,51.4h2.8l-0.2,7.7h-2.4L201,51.4z"/>
<path class="st0" d="M222.7,60.1c0,5-2.5,6.9-6.2,6.9c-1.5,0-3-0.2-4.4-0.7V48.3h2v5.4l-0.2,1.9c1.1-1,2.6-1.5,4-1.5
	C221.1,54.1,222.7,56.3,222.7,60.1z M220.7,60.3c0-2.8-1-4.4-2.9-4.4c-1.3,0-2.6,0.4-3.6,1.2v7.7c0.8,0.2,1.7,0.3,2.6,0.3
	C219.4,65.1,220.7,63.5,220.7,60.3L220.7,60.3z"/>
<path class="st0" d="M230.3,51.4h2.8l-0.2,7.7h-2.4L230.3,51.4z"/>
<path class="st0" d="M248.8,66.1c0,2-1.2,4.3-4.6,4.3v-1.7c1.5,0,2.4-0.6,2.7-2c-0.2,0.2-0.5,0.3-0.8,0.3c-1.1,0-2-1-1.9-2.1
	c0-1.1,0.9-1.9,2-1.9C247.4,62.9,248.8,63.9,248.8,66.1z"/>
<path class="st0" d="M266.9,64.9v1.8h-11.1v-2.1c3.9-2.4,8.5-4.9,8.5-8.8c0-1.7-0.8-2.8-3.3-2.8c-2.8,0-3.5,1.2-3.5,3.4
	c0,0.5,0,0.9,0.2,1.4l-2.1-0.2c-0.1-0.5-0.1-1-0.1-1.4c0-3,2-5,5.7-5c4.4,0,5.3,2.4,5.3,4.5c0,4.3-4.1,6.8-6.5,8.4l-1.2,0.5v0.3
	L266.9,64.9z"/>
<path class="st0" d="M277.9,69h-6.6v-1.8h4.6V51h-4.6v-1.8h6.6V69z"/>
<path class="st1" d="M164.4,18.5v9.2h-1.8v-8.5c0-1.8-0.2-2.6-1.4-2.6c-0.7,0.1-1.4,0.4-2,0.9c0,0.3,0,0.6,0,0.9v9.2h-1.8v-8.5
	c0-1.8-0.2-2.6-1.4-2.6c-0.7,0-1.4,0.4-1.9,0.9v10.2h-1.8V15.4h1.5l0,1.1c0.6-0.8,1.6-1.3,2.7-1.3c1-0.1,1.9,0.4,2.3,1.2
	c0.7-0.8,1.7-1.2,2.8-1.2C163.5,15.1,164.4,16.1,164.4,18.5z"/>
<path class="st1" d="M174.1,30h3.6v1.8h-9.2V30h3.6v-2.5l-4.8-12.2h2.2l2.6,6.7l0.9,2.8h0.5l0.9-2.8l2.5-6.7h2.1l-4.8,12.2L174.1,30
	z"/>
<path class="st1" d="M193,25.9v1.9h-9.8V12.4h2.1v13.5H193z"/>
<path class="st1" d="M208,25.9v1.8h-10.7v-1.8h4.6v-8.8h-4.6v-1.8h6.6v10.6L208,25.9z M200.6,11.3c0-1.1,0.9-2,2-2c1.1,0,2,0.9,2,2
	s-0.9,2-2,2c0,0,0,0,0,0C201.5,13.3,200.6,12.4,200.6,11.3C200.6,11.3,200.6,11.3,200.6,11.3L200.6,11.3z"/>
<path class="st1" d="M211.8,27l0.6-1.9c1.4,0.7,3,1.1,4.5,1c2.3,0,3.4-0.5,3.4-1.7c0-2.5-8.3-1.7-8.3-5.8c0-2.3,2.1-3.6,5.3-3.6
	c1.5,0,3.1,0.3,4.5,0.9l-0.6,1.8c-1.2-0.6-2.5-0.9-3.9-0.9c-2.1,0-3.2,0.6-3.2,1.6c0,2.4,8.3,1.6,8.3,5.8c0,2.6-2.3,3.7-5.5,3.7
	C215.1,28,213.4,27.7,211.8,27z"/>
<path class="st1" d="M237.2,27c-1.3,0.7-2.8,1-4.3,1c-3.4,0-4-1.8-3.9-4.5l0.1-6.3h-3v-1.8h3.1l0.1-2.9h2.1l-0.4,2.9h5.8v1.8h-5.5
	l-0.1,6.1c0,1.6,0.2,2.9,1.9,2.9c1.3,0,2.5-0.3,3.7-0.8L237.2,27z"/>
<path class="st0" d="M535.3,201.8V218h4.6v1.8h-6.6V200h6.6v1.8H535.3z"/>
<path class="st0" d="M556,215.7v1.9h-10.7v-1.9h4.8V206l-4.8,1.8v-2l4.8-1.8v-1.8h2.1v13.5H556z"/>
<path class="st0" d="M567.2,216.9c0,2-1.2,4.3-4.6,4.3v-1.7c1.5,0,2.4-0.6,2.7-2c-0.2,0.2-0.5,0.3-0.8,0.3c-1.1,0-2-1-1.9-2.1
	c0-1.1,0.9-1.9,2-1.9C565.8,213.7,567.2,214.7,567.2,216.9z"/>
<path class="st0" d="M578,202.2h2.8l-0.2,7.7h-2.4L578,202.2z"/>
<path class="st0" d="M599.7,210.9c0,5-2.5,6.9-6.2,6.9c-1.5,0-3-0.2-4.4-0.7v-18.1h2v5.4l-0.2,1.9c1.1-1,2.6-1.5,4-1.5
	C598.1,204.9,599.7,207.1,599.7,210.9z M597.7,211.1c0-2.8-1-4.4-2.9-4.4c-1.3,0-2.6,0.4-3.6,1.2v7.7c0.8,0.2,1.7,0.3,2.6,0.3
	C596.5,215.9,597.7,214.3,597.7,211.1L597.7,211.1z"/>
<path class="st0" d="M607.3,202.2h2.8l-0.2,7.7h-2.4L607.3,202.2z"/>
<path class="st0" d="M625.8,216.9c0,2-1.2,4.3-4.6,4.3v-1.7c1.5,0,2.4-0.6,2.7-2c-0.2,0.2-0.5,0.3-0.8,0.3c-1.1,0-2-1-1.9-2.1
	c0-1.1,0.9-1.9,2-1.9C624.4,213.7,625.8,214.7,625.8,216.9z"/>
<path class="st0" d="M643.9,215.7v1.9h-11.1v-2.1c3.9-2.4,8.5-4.9,8.5-8.8c0-1.7-0.8-2.8-3.3-2.8c-2.8,0-3.5,1.2-3.5,3.4
	c0,0.5,0,0.9,0.2,1.4l-2.1-0.2c-0.1-0.5-0.1-1-0.1-1.4c0-3,2-5,5.7-5c4.4,0,5.3,2.4,5.3,4.5c0,4.3-4.1,6.8-6.5,8.4l-1.2,0.5v0.3
	L643.9,215.7z"/>
<path class="st0" d="M655.1,216.9c0,2-1.2,4.3-4.6,4.3v-1.7c1.5,0,2.4-0.6,2.7-2c-0.2,0.2-0.5,0.3-0.8,0.3c-1.1,0-2-1-1.9-2.1
	c0-1.1,0.9-1.9,2-1.9C653.7,213.7,655.1,214.7,655.1,216.9z"/>
<path class="st0" d="M666,202.2h2.8l-0.2,7.7h-2.4L666,202.2z"/>
<path class="st0" d="M687,199.1v18.5h-1.8v-1.3c-1.1,1-2.6,1.6-4.1,1.6c-3.1,0-4.7-2.2-4.7-6c0-5,2.5-6.9,6.2-6.9
	c0.8,0,1.6,0.1,2.4,0.2v-6H687z M685,214.8v-7.7c-0.8-0.2-1.7-0.3-2.6-0.3c-2.7,0-3.9,1.6-3.9,4.8c0,2.8,1,4.4,2.9,4.4
	C682.7,216,683.9,215.6,685,214.8L685,214.8z"/>
<path class="st0" d="M695.3,202.2h2.8l-0.2,7.7h-2.4L695.3,202.2z"/>
<path class="st0" d="M713.5,219.8h-6.6V218h4.6v-16.1h-4.6V200h6.6L713.5,219.8z"/>
<path class="st1" d="M546.6,169.3v9.2h-1.8v-8.5c0-1.8-0.2-2.6-1.4-2.6c-0.7,0.1-1.4,0.4-2,0.9c0,0.3,0,0.6,0,0.9v9.2h-1.8v-8.5
	c0-1.8-0.2-2.6-1.4-2.6c-0.7,0-1.4,0.4-1.9,0.9v10.2h-1.8v-12.4h1.5l0,1.1c0.6-0.8,1.6-1.3,2.7-1.3c1-0.1,1.9,0.4,2.3,1.2
	c0.7-0.8,1.7-1.2,2.8-1.2C545.7,165.9,546.6,166.9,546.6,169.3z"/>
<path class="st1" d="M556.3,180.8h3.6v1.8h-9.2v-1.8h3.6v-2.5l-4.8-12.2h2.2l2.6,6.7l0.9,2.8h0.5l0.9-2.8l2.5-6.7h2.1l-4.8,12.2
	L556.3,180.8z"/>
<path class="st1" d="M575.2,176.7v1.9h-9.8v-15.3h2.1v13.5H575.2z"/>
<path class="st1" d="M590.2,176.7v1.8h-10.7v-1.8h4.6v-8.8h-4.6v-1.8h6.6v10.6L590.2,176.7z M582.8,162.1c0-1.1,0.9-2,2-2
	c1.1,0,2,0.9,2,2s-0.9,2-2,2c0,0,0,0,0,0C583.7,164.1,582.8,163.2,582.8,162.1C582.8,162.1,582.8,162.1,582.8,162.1L582.8,162.1z"/>
<path class="st1" d="M594,177.8l0.6-1.9c1.4,0.7,3,1.1,4.5,1c2.3,0,3.4-0.5,3.4-1.7c0-2.5-8.3-1.7-8.3-5.8c0-2.3,2.1-3.6,5.3-3.6
	c1.5,0,3.1,0.3,4.5,0.9l-0.6,1.8c-1.2-0.6-2.5-0.9-3.9-0.9c-2.1,0-3.2,0.6-3.2,1.6c0,2.4,8.3,1.6,8.3,5.8c0,2.6-2.3,3.7-5.5,3.7
	C597.3,178.8,595.6,178.5,594,177.8z"/>
<path class="st1" d="M619.4,177.8c-1.3,0.7-2.8,1-4.3,1c-3.4,0-4-1.8-3.9-4.5l0.1-6.3h-3v-1.8h3.1l0.1-2.9h2.1l-0.4,2.9h5.8v1.8
	h-5.5l-0.1,6.1c0,1.6,0.2,2.9,1.9,2.9c1.3,0,2.5-0.3,3.7-0.8L619.4,177.8z"/>
<path class="st1" d="M468.6,60.1v9.2h-1.8v-8.5c0-1.8-0.2-2.6-1.4-2.6c-0.7,0.1-1.4,0.4-2,0.9c0,0.3,0,0.6,0,0.9v9.2h-1.8v-8.5
	c0-1.8-0.2-2.6-1.4-2.6c-0.7,0-1.4,0.4-1.9,0.9v10.2h-1.8V56.9h1.5l0,1.1c0.6-0.8,1.6-1.3,2.7-1.3c1-0.1,1.9,0.4,2.3,1.2
	c0.7-0.8,1.7-1.2,2.8-1.2C467.7,56.7,468.6,57.7,468.6,60.1z"/>
<path class="st1" d="M478.3,71.6h3.6v1.8h-9.2v-1.8h3.6v-2.5l-4.8-12.2h2.2l2.6,6.7l0.9,2.8h0.5l0.9-2.8l2.5-6.7h2.1l-4.8,12.2
	L478.3,71.6z"/>
<path class="st1" d="M497.2,67.5v1.9h-9.8V54h2.1v13.5H497.2z"/>
<path class="st1" d="M512.2,67.5v1.8h-10.7v-1.8h4.6v-8.8h-4.6v-1.8h6.6v10.6H512.2z M504.8,52.9c0-1.1,0.9-2,2-2c1.1,0,2,0.9,2,2
	c0,1.1-0.9,2-2,2c0,0,0,0,0,0C505.7,54.9,504.8,54,504.8,52.9C504.8,52.9,504.8,52.9,504.8,52.9L504.8,52.9z"/>
<path class="st1" d="M516,68.6l0.6-1.9c1.4,0.7,3,1.1,4.5,1c2.3,0,3.4-0.5,3.4-1.7c0-2.5-8.3-1.7-8.3-5.8c0-2.3,2.1-3.6,5.3-3.6
	c1.5,0,3.1,0.3,4.5,0.9l-0.6,1.8c-1.2-0.6-2.5-0.9-3.9-0.9c-2.1,0-3.2,0.6-3.2,1.6c0,2.4,8.3,1.6,8.3,5.8c0,2.6-2.3,3.7-5.5,3.7
	C519.3,69.6,517.6,69.3,516,68.6z"/>
<path class="st1" d="M541.4,68.6c-1.3,0.7-2.8,1-4.3,1c-3.4,0-4-1.8-3.9-4.5l0.1-6.3h-3V57h3.1l0.1-2.9h2.1l-0.4,2.9h5.8v1.8h-5.5
	l-0.1,6.1c0,1.6,0.2,2.9,1.9,2.9c1.3,0,2.5-0.3,3.7-0.8L541.4,68.6z"/>
<path class="st0" d="M548.6,67.5c0-1.1,0.9-2,2-2c1.1,0,2,0.9,2,2c0,1.1-0.9,2-2,2C549.5,69.6,548.6,68.7,548.6,67.5
	C548.6,67.5,548.6,67.5,548.6,67.5z"/>
<path class="st0" d="M570,61.2l-0.1,8.1h-1.7v-1.5c-1.1,1.2-2.7,1.8-4.4,1.7c-2.5,0-3.9-1.3-3.9-3.4c0-2.4,2.5-3.5,8-3.9l0-0.9
	c0-1.6-0.2-2.9-2.6-2.9c-1.5,0-3,0.4-4.3,1.1l-0.5-1.7c1.6-0.8,3.3-1.2,5-1.2C569.6,56.7,570,58.8,570,61.2z M567.9,66.5l0-2.5
	c-4.2,0.3-5.9,0.9-5.9,2.2c0,1,0.7,1.6,2.1,1.7C565.5,67.9,566.8,67.4,567.9,66.5z"/>
<path class="st0" d="M585.6,62.7c0,5-2.5,6.9-6.2,6.9c-0.8,0-1.6-0.1-2.4-0.2v4h-2V56.9h1.7v1.4c1.1-1.1,2.6-1.6,4.2-1.6
	C583.9,56.7,585.6,58.9,585.6,62.7z M583.5,62.9c0-2.8-1-4.4-2.9-4.4c-1.3,0-2.6,0.4-3.6,1.2v7.7c0.8,0.2,1.7,0.3,2.6,0.3
	C582.3,67.7,583.5,66.1,583.5,62.9z"/>
<path class="st0" d="M600.2,62.7c0,5-2.5,6.9-6.2,6.9c-0.8,0-1.6-0.1-2.4-0.2v4h-2V56.9h1.7v1.4c1.1-1.1,2.6-1.6,4.2-1.6
	C598.6,56.7,600.2,58.9,600.2,62.7z M598.2,62.9c0-2.8-1-4.4-2.9-4.4c-1.3,0-2.6,0.4-3.6,1.2v7.7c0.8,0.2,1.7,0.3,2.6,0.3
	C597,67.7,598.2,66.1,598.2,62.9z"/>
<path class="st0" d="M605.9,63.2c0,3.2,1.3,4.6,3.9,4.6c1.4,0,2.9-0.4,4.1-1.1l0.5,1.7c-1.4,0.8-3,1.2-4.7,1.2c-3.7,0-6-2.1-6-6.3
	s2.6-6.6,5.8-6.6c3.7,0,5.3,2.3,4.8,6.3h-8.6L605.9,63.2z M606.1,61.4h6.5c0-2.1-1-2.9-3-2.9C607.8,58.4,606.3,59.7,606.1,61.4
	L606.1,61.4z"/>
<path class="st0" d="M628.9,60.8v8.5h-2v-8.2c0-1.8-0.7-2.6-2.3-2.6c-1.3,0-2.6,0.4-3.6,1.2v9.6h-2V56.9h1.7v1.4
	c1.1-1,2.6-1.6,4.2-1.6C627.7,56.7,628.9,58.2,628.9,60.8z"/>
<path class="st0" d="M643.5,50.9v18.5h-1.8V68c-1.1,1-2.6,1.6-4.1,1.6c-3.1,0-4.7-2.2-4.7-6c0-5,2.5-6.9,6.2-6.9
	c0.8,0,1.6,0.1,2.4,0.2v-6H643.5z M641.5,66.6v-7.7c-0.8-0.2-1.7-0.3-2.6-0.3c-2.7,0-3.9,1.6-3.9,4.8c0,2.8,1,4.4,2.9,4.4
	C639.2,67.8,640.5,67.4,641.5,66.6z"/>
<path class="st0" d="M650.2,61.7c0-8.3,2.6-9.9,6.7-9.9v1.8c-3.1,0-4.6,1.1-4.6,7.8c0,7.2,1.5,8.3,4.6,8.3v1.8
	C652.8,71.6,650.2,70.2,650.2,61.7z"/>
<path class="st0" d="M666.5,54h2.8l-0.2,7.7h-2.4L666.5,54z"/>
<path class="st0" d="M687.5,50.9v18.5h-1.8V68c-1.1,1-2.6,1.6-4.1,1.6c-3.1,0-4.7-2.2-4.7-6c0-5,2.5-6.9,6.2-6.9
	c0.8,0,1.6,0.1,2.4,0.2v-6H687.5z M685.5,66.6v-7.7c-0.8-0.2-1.7-0.3-2.6-0.3c-2.7,0-3.9,1.6-3.9,4.8c0,2.8,1,4.4,2.9,4.4
	C683.2,67.8,684.4,67.4,685.5,66.6z"/>
<path class="st0" d="M695.8,54h2.8l-0.2,7.7H696L695.8,54z"/>
<path class="st0" d="M714.9,61.7c0,8.3-2.6,9.9-6.7,9.9v-1.8c3.1,0,4.6-1.1,4.6-7.8c0-7.2-1.5-8.3-4.6-8.3v-1.8
	C712.3,51.8,714.9,53.2,714.9,61.7z"/>
<path class="st0" d="M678.3,186.5c0.1-0.1,0.1-0.1,0.2-0.2c0,0,0,0,0,0c0,0,0.1-0.1,0.1-0.1s0-0.1,0.1-0.1c0.1-0.1,0.1-0.2,0.2-0.2
	c0,0,0,0,0-0.1c0.1,0,0.1-0.1,0.1-0.2c0,0,0-0.1,0.1-0.1s0.1-0.1,0.1-0.1c0.1-0.1,0.2-0.3,0.3-0.4c0,0,0.1-0.1,0.1-0.1
	c0,0,0.1-0.1,0.1-0.1c0,0,0,0,0.1-0.1c0.1-0.1,0.1-0.1,0.2-0.2c0,0,0,0,0.1-0.1c0,0,0.1-0.1,0.1-0.1c0,0,0,0,0,0l0.1-0.1
	c0,0,0,0,0,0c0,0,0,0,0,0v0l0,0c0,0,0,0,0.1-0.1c0,0,0.1-0.1,0.1-0.1c0,0,0.1-0.1,0.1-0.1c0,0,0,0,0,0c0.1-0.1,0.1-0.1,0.1-0.2
	c0-0.1,0.1-0.1,0.1-0.1c0.1,0,0.2-0.1,0.2-0.2c0,0,0-0.1,0.1-0.1c0.1,0,0.1-0.1,0.1-0.2c0-0.1,0.1-0.1,0.1-0.1c0,0,0-0.1,0.1-0.1
	c0,0,0-0.1,0.1-0.1c0,0,0,0,0.1-0.1c0,0,0.1-0.1,0.1-0.1c0,0,0,0,0,0c0-0.1,0.1-0.1,0.1-0.2c0.1-0.1,0.1-0.1,0.1-0.2l0,0
	c0,0,0.1-0.1,0.1-0.1c0-0.1,0.1-0.1,0.1-0.2c0,0,0,0,0,0c0,0,0.1-0.1,0.1-0.1c0,0,0-0.1,0.1-0.1c0,0,0.1,0,0.1-0.1
	c0-0.1,0.1-0.2,0.2-0.2c0,0,0.1,0,0.1-0.1s0-0.1,0.1-0.1s0.1-0.1,0.1-0.2c0,0,0,0,0,0s0,0,0-0.1c0,0,0.1-0.1,0.1-0.1
	c0.1-0.1,0.1-0.1,0.2-0.2c0,0,0,0,0,0c0-0.1,0.1-0.2,0.2-0.2c0,0,0-0.1,0.1-0.1c0,0,0-0.1,0-0.1c0-0.1,0.1-0.1,0.2-0.2
	c0,0,0,0,0.1-0.1c0,0,0,0,0.1,0c0-0.1,0-0.1,0-0.1c0.1-0.1,0.1-0.1,0.2-0.2c0,0,0,0,0,0c0-0.1,0.1-0.1,0.1-0.2c0,0,0.1-0.1,0.1-0.1
	c0,0,0,0,0,0c0-0.1,0.1-0.1,0.1-0.2c0,0,0,0,0,0c0,0,0-0.1,0.1-0.1c0,0,0,0,0.1-0.1c0,0,0-0.1,0.1-0.1c0,0,0.1-0.1,0.1-0.1
	c0-0.1,0.1-0.1,0.2-0.2c0,0,0-0.1,0.1-0.1c0-0.1,0.1-0.2,0.2-0.2c0-0.1,0.1-0.1,0.1-0.2c0,0,0.1-0.1,0.1-0.1s0.1-0.1,0.1-0.1
	c0.1-0.1,0.1-0.2,0.2-0.2c0-0.1,0.1-0.1,0.2-0.2c0,0,0,0,0,0c0.1-0.1,0.2-0.2,0.3-0.3c0.1-0.1,0.2-0.2,0.2-0.3c0,0,0,0,0,0
	c0.1-0.1,0.1-0.1,0.2-0.2c0.1-0.1,0.2-0.2,0.2-0.3c0,0,0-0.1,0.1-0.1c0,0,0.1-0.1,0.1-0.1c0,0,0-0.1,0.1-0.1c0,0,0.1-0.1,0.1-0.1
	c0,0,0,0,0-0.1c0,0,0.1,0,0.1-0.1c0,0,0-0.1,0-0.1c0,0,0-0.1,0-0.1c0-0.1,0-0.1,0-0.2c0,0,0-0.1,0.1-0.1c0,0,0,0,0-0.1
	c0,0,0,0,0-0.1c0,0,0-0.1,0-0.1c-0.1,0-0.1,0-0.1,0s-0.1-0.1-0.1-0.1c0,0,0,0,0,0s0,0,0-0.1c-0.1-0.1-0.1-0.1-0.1-0.2
	c0,0,0,0-0.1-0.1c0,0,0-0.1-0.1-0.1c-0.1,0-0.1-0.1-0.1-0.2c0,0,0-0.1-0.1-0.1c-0.1,0-0.1-0.1-0.1-0.1c0,0,0,0,0-0.1
	c-0.1-0.1-0.1-0.1-0.2-0.2c0,0,0,0,0,0c0,0,0-0.1,0-0.1c0,0-0.1-0.1-0.1-0.1c-0.1-0.1-0.1-0.1-0.2-0.2c0,0,0-0.1-0.1-0.1
	c-0.1-0.1-0.2-0.1-0.2-0.2c0,0,0,0-0.1-0.1c0,0,0,0-0.1,0s0,0-0.1,0c-0.1,0.1-0.2,0.2-0.2,0.3c0,0.1-0.1,0.2-0.2,0.2
	c0,0-0.1,0-0.1,0.1c-0.1,0-0.1,0.1-0.1,0.1c0,0,0,0.1,0,0.1c0,0-0.1,0.1-0.1,0.1c0,0,0,0-0.1,0.1c0,0-0.1,0.1-0.1,0.1
	c0,0-0.1,0.1-0.1,0.1c0,0-0.1,0.1-0.1,0.1c0,0,0,0.1-0.1,0.1c0,0,0,0-0.1,0.1c-0.1,0-0.1,0.1-0.1,0.2c0,0.1-0.1,0.1-0.1,0.1
	c0,0,0,0,0,0c0,0.1,0,0.1-0.1,0.2c0,0.1,0,0.1-0.1,0.1c0,0,0,0,0,0.1c0,0,0,0.1-0.1,0.1c0,0.1-0.1,0.1-0.1,0.2c0,0-0.1,0.1-0.1,0.1
	c0,0,0,0-0.1,0.1c0,0-0.1,0.1-0.1,0.1c0,0-0.1,0-0.1,0.1c0,0.1,0,0.1-0.1,0.1c0,0,0,0,0,0c-0.1,0.1-0.2,0.2-0.2,0.3l-0.1,0
	c0,0-0.1,0.1-0.1,0.1c-0.1,0.1-0.1,0.1-0.2,0.2v0l0,0c0,0,0,0.1,0,0.1c0,0-0.1,0-0.1,0c0,0-0.1,0.1-0.1,0.1c0,0,0,0.1,0,0.1
	c-0.1,0-0.1,0.1-0.2,0.1c0,0.1-0.1,0.1-0.1,0.2c0,0,0,0,0,0.1c0,0.1,0,0.1-0.1,0.2c0,0,0,0,0,0c0,0,0-0.1,0-0.1c0,0,0-0.1,0-0.1
	c0,0,0,0,0-0.1c-0.1,0.1-0.2,0.1-0.2,0.2c0,0,0,0.1-0.1,0.1c-0.1,0-0.1,0.1-0.1,0.1c0,0,0,0.1-0.1,0.1c-0.1,0.1-0.1,0.1-0.1,0.2
	c0,0.1-0.1,0.1-0.1,0.1c0,0,0,0,0,0c0,0.1-0.1,0.2-0.2,0.2c0,0,0,0.1,0,0.1c0,0.1,0,0.1,0,0.2c0,0,0,0,0,0c0,0-0.1,0.1-0.1,0.1
	c0,0,0,0.1,0,0.1c0,0.1,0,0.1-0.1,0.1c0,0-0.1,0.1-0.1,0.1c0,0,0,0.1-0.1,0.1c0,0,0,0.1-0.1,0.1c0,0,0,0,0,0c0,0,0,0.1-0.1,0.1
	c0,0,0,0,0,0c0,0,0,0.1-0.1,0.1c-0.1,0.1-0.1,0.1-0.2,0.2c0-0.1,0-0.1,0-0.2c0-0.1,0-0.2,0-0.3c0,0,0,0,0,0c0,0,0-0.1,0-0.1
	s0-0.1,0-0.1c0-0.1,0-0.2,0-0.3c0,0,0,0,0-0.1c0-0.1,0-0.2,0-0.2c0,0,0-0.1,0-0.1c0-0.1,0-0.1,0-0.2c0-0.2,0-0.4,0-0.6
	c0-0.1,0-0.1,0-0.2c0,0,0-0.1,0-0.1c0,0,0-0.1,0-0.1c0-0.1,0-0.2,0-0.3c0,0,0-0.1,0-0.1c0-0.1,0-0.1,0-0.2c0,0,0,0,0-0.1
	c0-0.1,0-0.1,0-0.2c0,0,0-0.1,0-0.1c0-0.1,0-0.1,0-0.2c0,0,0-0.1,0-0.1c0,0,0,0,0,0c0-0.1,0-0.2,0-0.3c0-0.1,0-0.1,0-0.2
	c0-0.1,0-0.2,0-0.3c0,0,0-0.1,0-0.1c0-0.1,0-0.1,0-0.2c0-0.1,0-0.1,0-0.2c0,0,0-0.1,0-0.1c0,0,0-0.1,0-0.1c0,0,0-0.1,0-0.1
	c0-0.1,0-0.1,0-0.2c0,0,0,0,0,0c0-0.1,0-0.1,0-0.2c0-0.1,0-0.2,0-0.3v0c0-0.1,0-0.1,0-0.2c0-0.1,0-0.2,0-0.2c0,0,0,0,0,0
	c0-0.1,0-0.1,0-0.2c0,0,0-0.1,0-0.1c0,0,0-0.1,0-0.1c0-0.1,0-0.2,0-0.3c0-0.1,0-0.1,0-0.1s0-0.1,0-0.1c0-0.1,0-0.1,0-0.2
	c0,0,0,0,0,0c0,0,0-0.1,0-0.1c0-0.1,0-0.1,0-0.2c0-0.1,0-0.2,0-0.3c0,0,0,0,0-0.1c0-0.1,0-0.2,0-0.3c0,0,0-0.1,0-0.1
	c0,0,0-0.1,0-0.1c0-0.1,0-0.2,0-0.3c0,0,0-0.1,0-0.1c0,0,0-0.1,0-0.1c0-0.1,0-0.1,0-0.1l0-0.3c0,0,0,0,0,0c0-0.1,0-0.1,0-0.2
	c0-0.1,0-0.1,0-0.2c0,0,0,0,0,0c0-0.1,0-0.2,0-0.2c0,0,0,0,0-0.1c0,0,0-0.1,0-0.1c0,0,0-0.1,0-0.1c0,0,0-0.1,0-0.1
	c0-0.1,0-0.1,0-0.2c0-0.1,0-0.2,0-0.3c0,0,0-0.1,0-0.1c0-0.1,0-0.2,0-0.3c0-0.1,0-0.2,0-0.2c0-0.1,0-0.1,0-0.2c0-0.1,0-0.1,0-0.2
	c0-0.1,0-0.2,0-0.3c0-0.1,0-0.2,0-0.3c0,0,0,0,0-0.1V166v0c0-0.1,0-0.1,0-0.2c0-0.1,0-0.2,0-0.3c0,0,0,0,0,0c0,0,0-0.1,0-0.1v0
	c0-0.1,0-0.1,0-0.2c0-0.1,0-0.2,0-0.3c0-0.1,0-0.2,0-0.2c0,0,0,0,0,0c0,0,0-0.1,0-0.1c0,0,0-0.1,0-0.1c0,0,0-0.1,0-0.1
	c0,0,0-0.1,0-0.1c0,0,0-0.1,0-0.1c0,0,0-0.1,0-0.1c0,0,0,0,0,0v-0.1c0-0.1,0-0.1,0-0.2c0,0,0-0.1,0-0.1c0,0,0-0.1,0-0.1
	c0-0.1,0-0.2,0-0.3c0,0,0-0.1,0-0.1c0-0.1,0-0.1,0-0.2c0,0,0,0,0-0.1c0-0.1,0-0.1,0-0.2c0,0,0-0.1,0-0.1c0-0.1,0-0.1,0-0.2
	c0,0,0-0.1,0-0.1c0,0,0,0,0,0c0-0.1,0-0.2,0-0.3c0-0.1,0-0.1,0-0.2c0-0.1,0-0.2,0-0.3c0,0,0-0.1,0-0.1c0-0.1,0-0.1,0-0.2
	c0-0.1,0-0.1,0-0.2c0,0,0-0.1,0-0.1c0,0,0-0.1,0-0.1c0,0,0-0.1,0-0.1c0-0.1,0-0.1,0-0.2c0,0,0,0,0,0c0-0.1,0-0.1,0-0.2
	c0-0.1,0-0.2,0-0.3v0c0-0.1,0-0.1,0-0.2c0-0.1,0-0.2,0-0.2c0,0,0,0,0,0c0-0.1,0-0.1,0-0.2c0,0,0-0.1,0-0.1c0,0,0-0.1,0-0.1
	c0-0.1,0-0.2,0-0.3c0-0.1,0-0.1,0-0.1s0-0.1,0-0.1c0-0.1,0-0.1,0-0.2c0,0,0,0,0,0c0,0,0-0.1,0-0.1c0-0.1,0-0.1,0-0.2
	c0-0.1,0-0.2,0-0.3c0,0,0,0,0-0.1c0-0.1,0-0.2,0-0.3c0,0,0-0.1,0-0.1c0,0,0-0.1,0-0.1c0-0.1,0-0.2,0-0.3c0,0,0-0.1,0-0.1
	c0,0,0-0.1,0-0.1c0-0.1,0-0.1,0-0.1l0-0.3c0,0,0,0,0,0c0-0.1,0-0.1,0-0.2c0-0.1,0-0.1,0-0.2c0,0,0,0,0,0c0-0.1,0-0.2,0-0.2
	c0,0,0,0,0-0.1c0,0,0-0.1,0-0.1c0,0,0-0.1,0-0.1c0,0,0-0.1,0-0.1c0-0.1,0-0.1,0-0.2c0-0.1,0-0.2,0-0.3c0,0,0-0.1,0-0.1
	c0-0.1,0-0.2,0-0.3c0-0.1,0-0.2,0-0.2c0-0.1,0-0.1,0-0.2c0-0.1,0-0.1,0-0.2c0-0.1,0-0.2,0-0.3c0-0.1,0-0.2,0-0.3c0,0,0,0,0-0.1
	c0-0.2,0-0.3,0-0.5c0-0.1,0-0.3,0-0.4c0,0,0,0,0,0c0-0.1,0-0.2,0-0.3c0-0.1,0-0.3,0-0.4c0,0,0-0.1,0-0.1c0-0.1,0-0.1,0-0.2
	c0,0,0-0.1,0-0.1c0,0,0-0.1,0-0.1c0,0,0-0.1,0-0.1c0,0,0-0.1,0-0.1c0,0,0-0.1,0-0.1c0,0,0-0.1,0-0.1c0-0.1,0-0.1-0.1-0.2
	c0,0,0-0.1,0-0.1c0,0,0-0.1,0-0.1c0,0,0,0,0-0.1c0,0,0-0.1-0.1-0.1c0,0.1-0.1,0.1-0.1,0.1c0,0-0.1,0-0.1,0c0,0,0,0,0,0s0,0,0,0
	c-0.1,0-0.1,0-0.2,0c0,0-0.1,0-0.1,0c0,0-0.1,0-0.1,0c-0.1,0-0.1,0-0.2,0c0,0-0.1,0-0.1,0c0,0-0.1,0-0.2,0c0,0,0,0-0.1,0
	c-0.1,0-0.2,0-0.3,0c0,0,0,0-0.1,0c0,0-0.1,0-0.1,0c-0.1,0-0.1,0-0.2,0c-0.1,0-0.2,0-0.3,0c0,0-0.1,0-0.1,0c-0.1,0-0.2,0-0.3,0
	c0,0-0.1,0-0.1,0c0,0,0,0-0.1,0c0,0,0,0-0.1,0c0,0.1,0,0.3,0,0.4c0,0.1,0,0.2,0,0.3c0,0,0,0.1,0,0.1c0,0.1,0,0.1,0,0.2
	c0,0,0,0.1,0,0.1c0,0.1,0,0.1,0,0.2c0,0,0,0.1,0,0.1c0,0.1,0,0.1,0,0.2c0,0,0,0.1,0,0.1c0,0,0,0.1,0,0.1c0,0,0,0.1,0,0.1
	c0,0,0,0.1,0,0.1c0,0.1,0,0.1,0,0.2c0,0.1,0,0.1,0,0.2c0,0,0,0,0,0c0,0.1,0,0.1,0.1,0.2c0,0,0.1,0.1,0,0.2c0,0,0,0.1,0,0.1
	c0,0,0,0.1,0,0.1c0,0.1,0,0.2,0,0.3c0,0.1,0,0.1,0,0.2c0,0,0,0.1,0,0.1c0,0.1,0,0.1,0,0.2c0,0,0,0.1,0,0.1c0,0,0,0.1,0,0.2
	c0,0,0,0,0,0c0,0.1,0,0.3,0,0.4l-0.1,0c0,0.1,0,0.1,0,0.2c0,0.1,0,0.2,0,0.3c0,0,0,0,0,0l0,0c0,0,0,0.1,0,0.1c0,0,0,0.1,0,0.1
	c0,0.1,0,0.1,0,0.2c0,0,0,0.1,0,0.1c0,0.1,0,0.2,0,0.2c0,0.1,0,0.2,0,0.2c0,0,0,0,0,0.1c0,0.1,0,0.1,0.1,0.2c0,0,0,0,0,0
	c0,0,0-0.1,0-0.1c0,0,0-0.1,0-0.1c0,0,0,0,0,0c0,0.1,0,0.2,0,0.3c0,0,0,0.1,0,0.1c0,0.1,0,0.1,0,0.2c0,0,0,0.1,0,0.1
	c0,0.1,0,0.2,0,0.3c0,0.1,0,0.1,0,0.2c0,0,0,0,0,0c0,0.1,0,0.2,0,0.3c0,0,0,0.1,0,0.1c0,0,0,0.1,0.1,0.2c0,0,0,0,0,0.1
	c0,0.1,0,0.1,0,0.2c0,0,0,0.1,0,0.1c0,0.1,0,0.1,0,0.1c0,0.1,0,0.1,0,0.2c0,0,0,0.1,0,0.1c0,0.1,0,0.1,0,0.2c0,0,0,0,0,0.1
	c0,0,0,0.1,0,0.1c0,0,0,0,0,0c0,0,0,0.1,0,0.1c0,0.1,0,0.2,0,0.4c0,0.1,0,0.2,0,0.3c0,0.1,0,0.2,0,0.3c0,0,0,0,0,0l-0.1-0.1
	c0,0,0,0.1,0,0.1c0,0.1,0,0.1,0,0.2c0,0,0,0.1,0,0.1c0,0,0,0.1,0,0.1c0,0.1,0,0.1,0,0.2c0,0.1,0,0.1,0,0.2c0,0,0,0.1,0,0.1
	c0,0,0,0,0,0l0,0l0,0.1c0.1,0,0.1,0.1,0,0.2l-0.1,0l0,0.1c0,0.1,0,0.2,0.1,0.2v0c0,0.1,0,0.1,0,0.2c0,0,0,0,0,0c0,0.1,0,0.2,0,0.4
	c0,0,0,0.1,0,0.1c0,0,0,0,0,0.1c0,0.1,0,0.2,0,0.4c0,0.1,0,0.1,0,0.2c0,0.1,0.1,0.3,0,0.4c0,0,0,0.1,0,0.1c0,0,0,0.1,0,0.1l0,0
	c0,0,0,0-0.1,0c0,0.1,0,0.3,0,0.4c0,0.1,0,0.2,0,0.3c0,0,0,0.1,0,0.1c0,0.1,0,0.1,0,0.2c0,0,0,0.1,0,0.1c0,0.1,0,0.1,0,0.2
	c0,0,0,0.1,0,0.1c0,0.1,0,0.1,0,0.2c0,0,0,0.1,0,0.1c0,0,0,0.1,0,0.1c0,0,0,0.1,0,0.1c0,0,0,0.1,0,0.1c0,0.1,0,0.1,0,0.2
	c0,0.1,0,0.1,0,0.2c0,0,0,0,0,0c0,0.1,0,0.1,0.1,0.2c0,0,0.1,0.1,0,0.2c0,0,0,0,0,0.1c0,0,0,0,0,0.1c0,0.1,0,0.2,0,0.3
	c0,0.1,0,0.2,0,0.3c0,0.1,0,0.1,0,0.2c0,0,0,0,0,0.1c0,0,0,0.1,0,0.1c0,0,0,0.1,0,0.2c0,0,0,0,0,0c0,0.1,0,0.3,0,0.4l-0.1,0
	c0,0.1,0,0.1,0,0.2c0,0.1,0,0.2,0,0.3c0,0,0,0,0,0l0,0c0,0,0,0.1,0,0.1c0,0,0,0.1,0,0.1c0,0.1,0,0.1,0,0.2c0,0,0,0.1,0,0.1
	c0,0.1,0,0.2,0,0.2c0,0.1,0,0.2,0,0.2c0,0,0,0,0,0.1c0,0.1,0,0.1,0.1,0.2c0,0,0,0,0,0c0,0,0-0.1,0-0.1c0,0,0-0.1,0-0.1c0,0,0,0,0,0
	c0,0.1,0,0.2,0,0.3c0,0,0,0.1,0,0.1c0,0.1,0,0.1,0,0.2c0,0,0,0.1,0,0.1c0,0.1,0,0.2,0,0.3c0,0.1,0,0.1,0,0.2c0,0,0,0,0,0
	c0,0.1,0,0.2,0,0.3c0,0,0,0.1,0,0.1c0,0,0,0.1,0.1,0.2c0,0,0,0,0,0.1c0,0.1,0,0.1,0,0.2c0,0,0,0.1,0,0.1c0,0.1,0,0.1,0,0.1
	c0,0.1,0,0.1,0,0.2c0,0,0,0.1,0,0.1c0,0.1,0,0.1,0,0.2c0,0,0,0,0,0.1c0,0,0,0.1,0,0.1c0,0,0,0,0,0c0,0,0,0.1,0,0.1
	c0,0.1,0,0.2,0,0.4c0,0.1,0,0.2,0,0.3c0,0.1,0,0.2,0,0.3c0,0,0,0,0,0l-0.1-0.1c0,0,0,0.1,0,0.1c0,0.1,0,0.1,0,0.2c0,0,0,0.1,0,0.1
	c0,0,0,0.1,0,0.1c0,0.1,0,0.1,0,0.2c0,0.1,0,0.1,0,0.2c0,0,0,0.1,0,0.1c0,0,0,0,0,0l0,0l0,0.1c0.1,0,0.1,0.1,0,0.2l-0.1,0l0,0.1
	c0,0.1,0,0.2,0.1,0.2v0c0,0.1,0,0.1,0,0.2c0,0,0,0,0,0c0,0.1,0,0.2,0,0.4c0,0,0,0.1,0,0.1c0,0,0,0,0,0.1c0,0.1,0,0.2,0,0.4
	c0,0.1,0,0.1,0,0.2c0,0.1,0.1,0.3,0,0.4c0,0,0,0.1,0,0.1c0,0.1,0,0.2,0,0.2c0,0,0,0.1,0,0.1c0,0.1,0,0.2,0,0.3c0,0,0,0.1,0,0.1
	c0,0.1,0,0.2,0,0.2c0,0.1,0,0.1,0,0.2c0,0.1,0,0.2,0,0.3c0,0,0,0.1,0,0.1c0,0.1,0,0.1,0,0.2c0,0.1,0,0.1,0,0.2c0,0.1,0,0.2,0,0.3
	c0,0,0,0,0,0c0,0.1,0,0.1,0,0.2c0,0.1,0,0.2,0,0.4c0,0.1,0,0.2,0,0.2c0,0.1,0,0.2,0,0.3c0,0.1,0,0.2,0,0.3c0,0.1,0,0.2,0,0.4
	c0,0.1,0,0.1,0,0.2c0,0,0,0,0,0c0,0-0.1-0.1-0.1-0.1c0-0.1-0.1-0.1-0.1-0.2c0,0-0.1-0.1-0.1-0.2c0,0,0,0-0.1-0.1
	c0,0-0.1-0.1-0.1-0.1c0,0,0,0,0-0.1c0,0-0.1-0.1-0.1-0.1c0,0,0,0,0,0c-0.1,0-0.1-0.1-0.1-0.1c0-0.1-0.1-0.1-0.2-0.2l0,0
	c0,0-0.1-0.1-0.1-0.1c-0.1,0-0.1-0.1-0.1-0.2c0,0,0,0,0,0c0,0,0-0.1-0.1-0.1c0,0-0.1-0.1-0.1-0.1c0,0,0-0.1-0.1-0.1
	c-0.1-0.1-0.1-0.1-0.2-0.2c0,0,0-0.1-0.1-0.1s-0.1-0.1-0.1-0.1s-0.1-0.1-0.1-0.1c0,0,0,0,0,0c0,0,0,0,0-0.1c0,0-0.1-0.1-0.1-0.1
	c0-0.1-0.1-0.1-0.1-0.2c0,0,0,0,0,0c-0.1-0.1-0.1-0.1-0.2-0.2c0,0,0-0.1-0.1-0.1c0,0,0,0-0.1-0.1c-0.1-0.1-0.1-0.1-0.2-0.2
	c0,0,0,0-0.1-0.1c0,0,0-0.1,0-0.1c-0.1,0-0.1,0-0.1,0l-0.1-0.2c0,0,0,0,0,0c-0.1,0-0.1-0.1-0.1-0.1s-0.1-0.1-0.1-0.1c0,0,0,0,0,0
	c0-0.1-0.1-0.1-0.1-0.2c0,0,0,0,0,0c0,0-0.1,0-0.1-0.1c0,0,0,0-0.1-0.1c0,0-0.1,0-0.1-0.1c0-0.1-0.1-0.1-0.1-0.1
	c-0.1-0.1-0.1-0.1-0.2-0.2c0,0,0-0.1-0.1-0.1c-0.1-0.1-0.2-0.1-0.2-0.2c0-0.1-0.1-0.1-0.1-0.2c0,0-0.1-0.1-0.1-0.1s-0.1-0.1-0.1-0.1
	c-0.1-0.1-0.1-0.1-0.2-0.2c-0.1-0.1-0.1-0.1-0.2-0.2c0,0,0,0,0-0.1c-0.1-0.1-0.2-0.2-0.3-0.3c-0.1-0.1-0.1-0.2-0.2-0.3c0,0,0,0,0,0
	c0-0.1-0.1-0.1-0.1-0.2c-0.1-0.1-0.2-0.2-0.3-0.3c0,0-0.1-0.1-0.1-0.1c0,0-0.1-0.1-0.1-0.1c0,0,0-0.1-0.1-0.1c0,0-0.1-0.1-0.1-0.1
	c0,0,0,0-0.1-0.1c0,0,0-0.1-0.1-0.1c0,0,0,0-0.1-0.1c0,0,0-0.1-0.1-0.1c-0.1,0-0.1-0.1-0.1,0c0,0-0.1,0-0.1-0.1c0,0,0,0-0.1-0.1
	c0,0,0,0,0,0c0,0-0.1,0-0.1,0c0,0.1,0,0.1,0,0.2c0,0-0.1,0.1-0.1,0.1c0,0,0,0,0,0s0,0,0,0c0,0.1-0.1,0.1-0.1,0.2c0,0,0,0-0.1,0.1
	c0,0-0.1,0-0.1,0.1c0,0.1-0.1,0.1-0.1,0.2c0,0,0,0-0.1,0.1c0,0.1-0.1,0.1-0.1,0.2c0,0,0,0,0,0c-0.1,0.1-0.1,0.2-0.2,0.3
	c0,0,0,0,0,0.1c0,0,0,0-0.1,0.1c0,0-0.1,0.1-0.1,0.1c0,0.1-0.1,0.2-0.2,0.2c0,0-0.1,0.1-0.1,0.1c0,0.1-0.1,0.2-0.2,0.3
	c0,0,0,0-0.1,0.1c0,0,0,0.1,0,0.1c0,0,0,0,0,0.1c0.1,0.1,0.1,0.2,0.2,0.3c0.1,0.1,0.2,0.1,0.2,0.2c0,0,0,0.1,0.1,0.1
	c0,0.1,0.1,0.1,0.1,0.1c0,0,0,0,0.1,0c0,0,0.1,0.1,0.1,0.1c0,0,0,0,0,0.1c0,0.1,0,0.1,0.1,0.1c0,0,0.1,0.1,0.1,0.1
	c0,0,0,0.1,0.1,0.1c0,0,0.1,0,0.1,0.1c0,0,0,0.1,0,0.1c0,0.1,0.1,0.1,0.1,0.1c0.1,0,0.1,0.1,0.1,0.2c0,0,0,0,0,0
	c0,0,0.1,0.1,0.2,0.1c0.1,0,0.1,0,0.1,0.1c0,0,0,0,0.1,0.1c0,0,0.1,0.1,0.1,0.1c0.1,0.1,0.1,0.1,0.2,0.2c0,0,0.1,0.1,0.1,0.1
	c0,0,0,0,0,0.1c0,0,0.1,0.1,0.1,0.2c0,0,0,0.1,0.1,0.1c0,0,0.1,0.1,0.1,0.1c0,0,0,0,0,0c0.1,0.1,0.2,0.2,0.2,0.3l0,0.1
	c0,0,0.1,0.1,0.1,0.1c0.1,0.1,0.1,0.1,0.2,0.2h0l0,0c0,0,0,0,0,0.1c0,0,0,0,0,0c0,0,0,0.1,0,0.1c0,0.1,0.1,0.1,0.1,0.1
	c0,0,0,0,0.1,0.1c0,0.1,0.1,0.1,0.1,0.2c0,0.1,0.1,0.1,0.1,0.2c0,0,0,0,0,0c0.1,0,0.1,0.1,0.2,0.1c0,0,0,0,0,0.1l-0.1-0.1
	c0,0,0,0-0.1,0c0,0,0,0-0.1,0c0,0.1,0.1,0.2,0.2,0.2c0,0,0,0,0.1,0.1c0,0.1,0.1,0.1,0.1,0.1c0,0,0.1,0,0.1,0.1
	c0,0.1,0.1,0.1,0.2,0.2c0,0,0.1,0.1,0.1,0.1c0,0,0,0,0,0c0.1,0.1,0.1,0.1,0.2,0.2c0,0,0,0,0.1,0c0.1,0,0.1,0,0.1,0c0,0,0,0,0,0
	c0,0,0.1,0.1,0.1,0.1c0,0,0.1,0,0.1,0c0,0,0.1,0.1,0.1,0.1c0,0,0.1,0.1,0.1,0.1c0,0,0,0.1,0.1,0.1c0,0,0.1,0.1,0.1,0.1c0,0,0,0,0,0
	c0,0,0.1,0,0.1,0.1c0,0,0,0,0,0c0,0,0,0,0.1,0.1c0.1,0.1,0.1,0.2,0.2,0.2c0.1,0,0.1,0.1,0.2,0.2c0,0.1,0.1,0.1,0.1,0.2c0,0,0,0,0,0
	l-0.1,0c0,0,0,0.1,0.1,0.1c0,0.1,0.1,0.1,0.1,0.1c0,0,0.1,0,0.1,0.1c0,0,0,0,0.1,0.1c0,0,0.1,0.1,0.1,0.1c0,0.1,0.1,0.1,0.1,0.1
	c0,0,0,0,0.1,0.1c0,0,0,0,0,0l0,0l0,0.1c0.1,0,0.1,0,0.2,0.1l0,0l0,0.1c0.1,0,0.1,0.1,0.2,0.1l0,0c0,0,0,0.1,0.1,0.1c0,0,0,0,0,0
	c0.1,0.1,0.1,0.2,0.2,0.3c0,0,0,0,0.1,0.1c0,0,0,0,0,0.1c0.1,0.1,0.1,0.2,0.2,0.2c0,0.1,0.1,0.1,0.1,0.2c0,0,0,0,0,0
	c0.1,0.1,0.2,0.1,0.2,0.2c0,0,0,0.1,0.1,0.1c0.1,0,0.1,0.1,0.1,0.2c0,0,0,0.1,0.1,0.1c0.1,0.1,0.1,0.1,0.2,0.2c0,0,0,0,0.1,0.1
	c0,0.1,0.1,0.1,0.1,0.2c0,0,0.1,0.1,0.1,0.2c0.1,0.1,0.1,0.1,0.2,0.2c0,0,0,0,0,0c0,0,0,0,0,0c0,0.1,0.1,0.1,0.1,0.1
	c0,0,0.1,0.1,0.1,0.2c0,0.1,0.1,0.1,0.2,0.2c0,0,0,0,0,0c0,0.1,0.1,0.1,0.1,0.2c0.1,0.1,0.1,0.2,0.2,0.2c0,0,0,0,0,0.1
	C678.3,186.6,678.3,186.5,678.3,186.5z M677.4,154.8c0-0.1,0-0.1,0-0.2C677.4,154.6,677.4,154.7,677.4,154.8
	C677.5,154.8,677.4,154.8,677.4,154.8C677.4,154.8,677.4,154.8,677.4,154.8L677.4,154.8z"/>
<path class="st0" d="M679.2,153.8c0.1,0,0.1,0,0.2,0c0.1,0,0.2,0,0.4-0.1c0.1,0,0.2,0,0.2-0.1c0.1-0.4,0.1-0.8,0.1-1.1
	c0-0.3-0.1-0.6,0-0.8c0-0.3,0-0.5,0-0.8c0-0.3,0-0.6,0-0.8c0-0.3,0-0.5,0-0.8c0-0.1,0-0.3,0-0.4c0-0.3,0-0.7,0-1
	c0-0.4-0.1-0.7-0.1-1.1c0-0.1,0-0.2,0-0.3c0-0.1,0-0.3,0-0.4c0-0.4,0-0.9,0-1.3c0,0,0-0.1,0-0.1c0-0.1,0-0.1,0-0.2
	c0-0.1,0-0.2,0-0.2c0.1-0.3,0.1-0.6,0-0.8c0-0.3,0-0.7,0-1c0-0.1,0-0.1,0-0.2c0-0.2,0-0.4,0-0.6c0-0.3,0-0.6,0-0.9
	c0-0.2,0-0.4,0-0.7c0-0.1,0-0.1,0-0.2c0-0.3,0-0.5,0-0.8c0-0.1,0-0.2,0-0.4c0-0.6,0-1.1,0-1.7c0-0.1,0-0.2,0-0.3c0-0.1,0-0.3,0-0.4
	c0-0.3,0-0.5,0-0.8c0-0.1,0-0.2,0-0.3c-0.1-0.3-0.1-0.6-0.1-1c0-0.3,0-0.5,0-0.8c0-0.3,0-0.7-0.1-1c0-0.1,0-0.2,0-0.3
	c0.1-0.5,0.1-0.9,0-1.4c0-0.2,0-0.3,0.1-0.5c0-0.1,0-0.2,0-0.2c-0.1-0.3-0.1-0.6-0.1-0.8c0.1-0.3,0.1-0.6,0-0.9c0,0,0-0.1,0-0.1
	c0-0.1,0-0.3,0-0.4s0-0.3,0-0.4c0-0.3,0-0.7,0-1c0-0.1,0-0.1,0-0.2c0-0.3,0-0.5,0-0.8c0-0.1,0-0.2,0-0.3c0-0.2,0-0.3,0-0.5
	c0-0.6-0.1-1.2-0.1-1.8c0-0.2,0-0.4,0-0.6c0-0.1,0-0.3,0-0.4c0-0.1,0-0.2,0-0.3c0-0.3,0-0.5,0-0.8c0-0.1,0-0.2,0-0.3
	c0.1-0.2,0-0.4,0-0.6c0-0.1,0-0.1,0-0.2c0-0.2,0-0.3,0-0.5c0-0.1,0-0.2,0-0.3c0-0.2,0-0.4,0-0.7c0-0.1,0-0.3,0-0.4c0,0,0-0.1,0-0.1
	c0-0.3,0-0.6-0.1-0.9c-0.1-0.2-0.1-0.4,0-0.6c0.1-0.3,0.2-0.7,0.1-1c0-0.1,0-0.3,0-0.4c0-0.2,0-0.5,0-0.7c0-0.2,0-0.4,0-0.6
	c0-0.1,0-0.2,0-0.3c0-0.1,0-0.3,0-0.4c0-0.1,0-0.2,0-0.3c0-0.2,0-0.3,0.1-0.5c0,0,0-0.1,0-0.1c-0.1-0.2,0-0.4-0.1-0.6
	c0-0.3,0-0.6,0-0.8c0,0,0,0,0,0c0-0.2,0-0.4,0-0.5c0-0.3,0.1-0.5,0-0.8c0,0,0-0.1,0-0.1c0.1-0.2,0.1-0.3,0-0.5c0-0.1-0.1-0.3,0-0.4
	c0-0.1,0-0.2,0-0.3c-0.1-0.3-0.1-0.6,0-0.9c0-0.2,0.1-0.3,0.1-0.5s-0.1-0.3-0.1-0.5c0-0.2,0.1-0.4-0.1-0.6c0,0,0-0.1,0-0.1
	c0-0.1,0-0.2,0-0.3c0-0.2,0-0.4,0-0.6c0-0.3,0-0.6,0.1-0.9c0-0.1,0-0.1,0-0.2c-0.1-0.3-0.1-0.6,0-0.9c0-0.1,0-0.2,0-0.4
	c0-0.1,0-0.2-0.1-0.3c0-0.3,0-0.6,0-0.9c0-0.1,0-0.2,0-0.3c0-0.1,0.1-0.2,0.1-0.2c-0.2-0.2-0.2-0.2-0.2-0.3c0-0.3,0-0.5,0-0.8
	c0,0,0-0.1,0-0.1c0-0.2-0.1-0.4,0-0.6c0-0.2,0.1-0.3,0-0.5c0,0,0-0.1,0-0.1c0-0.2,0-0.5,0.1-0.7c0-0.1,0-0.1,0-0.2
	c0-0.1-0.1-0.2,0-0.4c0-0.1,0-0.2,0-0.3c0-0.1,0-0.2,0-0.4c0.1-0.2,0.1-0.4,0-0.6c0-0.3-0.1-0.6,0-0.8c0-0.1,0-0.2,0-0.4
	c-0.1-0.3-0.1-0.7-0.1-1c0-0.2,0-0.5,0-0.7c0-0.2,0-0.3,0-0.5s0-0.3,0-0.5c0-0.3,0-0.6-0.1-0.9c0-0.3,0-0.6,0-0.9c0-0.1,0-0.1,0-0.2
	c0-0.5,0-0.9,0-1.4c0-0.4,0-0.8,0-1.2c0,0,0-0.1,0-0.1c0-0.3,0-0.5,0-0.8c0-0.5,0-0.9-0.1-1.4c0-0.1,0-0.3,0-0.4c0-0.2,0-0.4,0-0.6
	c0-0.1,0-0.2,0-0.4c0-0.2,0-0.3,0-0.5c0-0.1,0-0.2,0-0.3c0-0.1,0-0.2,0-0.4c0-0.1,0-0.2-0.1-0.3c-0.1-0.1,0-0.2-0.1-0.3
	c-0.1-0.2-0.1-0.4-0.3-0.5c-0.1-0.1-0.2-0.3-0.2-0.4c0-0.1,0-0.2,0-0.3c0,0,0,0,0-0.1c-0.2,0-0.4,0-0.6,0c-0.2,0-0.4,0-0.6,0
	c-0.1,0-0.1,0-0.2,0c-0.1,0-0.2,0-0.4,0.1c-0.1,0-0.2,0-0.2,0.1c-0.1,0.4-0.1,0.8-0.1,1.1c0,0.3,0.1,0.6,0,0.8c0,0.3,0,0.5,0,0.8
	c0,0.3,0,0.6,0,0.8c0,0.3,0,0.5,0,0.8c0,0.1,0,0.3,0,0.4c0,0.3,0,0.7,0,1c0,0.3,0.1,0.7,0.1,1.1c0,0.1,0,0.2,0,0.3
	c0,0.1,0,0.3,0,0.4c0,0.4,0,0.9,0,1.3c0,0,0,0.1,0,0.1c0,0.1,0,0.1,0,0.2c0,0.1,0,0.2,0,0.2c-0.1,0.3-0.1,0.6,0,0.8c0,0.3,0,0.7,0,1
	c0,0.1,0,0.1,0,0.2c0,0.2,0,0.4,0,0.6c0,0.3,0,0.6,0,0.9c0,0.2,0,0.4,0,0.7c0,0.1,0,0.1,0,0.2c0,0.3,0,0.5,0,0.8c0,0.1,0,0.2,0,0.4
	c0,0.6,0,1.1,0,1.7c0,0.1,0,0.2,0,0.3c0,0.1,0,0.3,0,0.4c0,0.3,0,0.5,0,0.8c0,0.1,0,0.2,0,0.3c0.1,0.3,0.1,0.7,0.1,1
	c0,0.3,0,0.5,0,0.8c0,0.3,0,0.7,0.1,1c0,0.1,0,0.2,0,0.3c-0.1,0.5-0.1,0.9,0,1.4c0,0.2,0,0.3-0.1,0.5c0,0.1,0,0.2,0,0.2
	c0.1,0.3,0.1,0.6,0.1,0.8c-0.1,0.3-0.1,0.6,0,0.9c0,0,0,0.1,0,0.1c0,0.1,0,0.3,0,0.4s0,0.3,0,0.4c0,0.3,0,0.7,0,1c0,0.1,0,0.1,0,0.2
	c0,0.3,0,0.5,0,0.8c0,0.1,0,0.2,0,0.3c0,0.2,0,0.3,0,0.5c0,0.6,0.1,1.2,0.1,1.8c0,0.2,0,0.4,0,0.6c0,0.1,0,0.3,0,0.4
	c0,0.1,0,0.2,0,0.3c0,0.3,0,0.5,0,0.8c0,0.1,0,0.2,0,0.3c-0.1,0.2,0,0.4,0,0.6c0,0.1,0,0.1,0,0.2c0,0.2,0,0.3,0,0.5
	c0,0.1,0,0.2,0,0.3c0,0.2,0,0.4,0,0.7c0,0.1,0,0.3,0,0.4c0,0,0,0.1,0,0.1c0,0.3,0,0.6,0.1,0.9c0.1,0.2,0.1,0.4,0,0.6
	c-0.1,0.3-0.2,0.7-0.1,1c0,0.1,0,0.3,0,0.4c0,0.2,0,0.5,0,0.7c0,0.2,0,0.4,0,0.6c0,0.1,0,0.2,0,0.3c0,0.1,0,0.3,0,0.4
	c0,0.1,0,0.2,0,0.3c0,0.2,0,0.3-0.1,0.5c0,0,0,0.1,0,0.1c0.1,0.2,0,0.4,0.1,0.6c0,0.3,0,0.6,0,0.8c0,0,0,0,0,0c0,0.2,0,0.4,0,0.5
	c0,0.3-0.1,0.5,0,0.8c0,0,0,0.1,0,0.1c-0.1,0.2-0.1,0.3,0,0.5c0,0.1,0.1,0.3,0,0.4c0,0.1,0,0.2,0,0.3c0.1,0.3,0.1,0.6,0,0.9
	c0,0.2-0.1,0.3-0.1,0.5s0.1,0.3,0.1,0.5c0,0.2-0.1,0.4,0.1,0.6c0,0,0,0.1,0,0.1c0,0.1,0,0.2,0,0.3c0,0.2,0,0.4,0,0.6
	c0,0.3,0,0.6-0.1,0.9c0,0.1,0,0.1,0,0.2c0.1,0.3,0.1,0.6,0,0.9c0,0.1,0,0.2,0,0.4c0,0.1,0,0.2,0.1,0.3c0,0.3,0,0.6,0,0.9
	c0,0.1,0,0.2,0,0.3c0,0.1-0.1,0.2-0.1,0.2c0.2,0.2,0.2,0.2,0.2,0.3c0,0.3,0,0.5,0,0.8c0,0,0,0.1,0,0.1c0.1,0.2,0.1,0.4,0,0.6
	c0,0.2-0.1,0.3,0,0.5c0,0,0,0.1,0,0.1c0,0.2,0,0.5-0.1,0.7c0,0.1,0,0.1,0,0.2c0,0.1,0.1,0.2,0,0.4c0,0.1,0,0.2,0,0.3
	c0,0.1,0,0.2,0,0.4c-0.1,0.2-0.1,0.4,0,0.6c0,0.3,0.1,0.6,0,0.8c0,0.1,0,0.2,0,0.4c0.1,0.3,0.1,0.7,0.1,1c0,0.2,0,0.5,0,0.7
	c0,0.2,0,0.3,0,0.5s0,0.3,0,0.5c0,0.3,0,0.6,0.1,0.9c0,0.3,0,0.6,0,0.9c0,0.1,0,0.1,0,0.2c0,0.5,0,0.9,0,1.4c0,0.4,0,0.8,0,1.2
	c0,0,0,0.1,0,0.1c0,0.3,0,0.5,0,0.8c0,0.5,0,0.9,0.1,1.4c0,0.1,0,0.3,0,0.4c0,0.2,0,0.4,0,0.6c0,0.1,0,0.2,0,0.4c0,0.2,0,0.3,0,0.5
	c0,0.1,0,0.2,0,0.3c0,0.1,0,0.2,0,0.4c0,0.1,0,0.2,0.1,0.3c0.1,0.1,0,0.2,0.1,0.3c0.1,0.2,0.1,0.4,0.3,0.5c0.1,0.1,0.2,0.3,0.2,0.4
	c0,0.1,0,0.2,0,0.3c0,0,0,0,0,0.1c0.2,0,0.4,0,0.6,0C678.9,153.8,679.1,153.8,679.2,153.8z"/>
</svg>
