<svg xmlns="http://www.w3.org/2000/svg" viewBox="0 0 952 202.554"><defs><style>.cls-1{fill:#f36;}.cls-2{fill:#1858a8;}</style></defs><title>10</title><g id="Livello_1" data-name="Livello 1"><path class="cls-1" d="M565.67,72.122a5.163,5.163,0,0,0-.251,1.159,1.96,1.96,0,0,1-.154.66,2.066,2.066,0,0,0-.18.781.847.847,0,0,1-.209.583,3.9,3.9,0,0,0-.849,1.644,1.024,1.024,0,0,1-.244.438,4.105,4.105,0,0,0-.415.692c-.1.187-.183.384-.277.576a.413.413,0,0,1-.1.136,2.565,2.565,0,0,0-.606.759,1.444,1.444,0,0,1-.164.2,2.691,2.691,0,0,1-.338.382c-.369.292-.64.68-.991.989a1.049,1.049,0,0,0-.13.108,3.543,3.543,0,0,1-1.585,1.026,8.865,8.865,0,0,0-1.488.512.2.2,0,0,1-.12.04,1.923,1.923,0,0,0-1.125.305c-.247.1-.473.263-.722.363a2.657,2.657,0,0,0-.62.368c-.27.207-.55.405-.833.594a1.383,1.383,0,0,1-.383.18,1.863,1.863,0,0,0-.9.68,1.139,1.139,0,0,1-.5.375,3.34,3.34,0,0,0-.652.313.794.794,0,0,1-.731.13.208.208,0,0,0-.126,0c-.367.111-.759.118-1.117.266a1.029,1.029,0,0,1-.248.057c-.168.023-.337.041-.507.057a.332.332,0,0,1-.167-.006c-.25-.137-.53-.064-.79-.13-.151-.038-.307-.059-.458-.1a.245.245,0,0,1-.144-.078c-.274-.458-.732-.484-1.188-.515-.1-.007-.2,0-.3-.011a8.008,8.008,0,0,1-1.018-.095,2.147,2.147,0,0,1-.861-.341,1.336,1.336,0,0,0-1.294-.2c-.121.043-.241.09-.36.138a.667.667,0,0,1-.615-.046,3.075,3.075,0,0,0-1.032-.392.315.315,0,0,1-.248-.144c-.178-.316-.525-.371-.811-.512a1.053,1.053,0,0,0-.4-.008.412.412,0,0,0-.269-.328.345.345,0,0,1-.2-.261.8.8,0,0,0-.224-.357,3.981,3.981,0,0,0-.758-.8c-.206-.37-.631-.53-.851-.89a.34.34,0,0,0-.212-.124.365.365,0,0,1-.321-.352,1.177,1.177,0,0,0-.392-.734,3.767,3.767,0,0,1-.252-.339,3.19,3.19,0,0,0-.444-.449.105.105,0,0,0-.039-.017c-.2-.055-.247-.271-.4-.373a2.672,2.672,0,0,1-.436-.26,1.36,1.36,0,0,1-.306-.691,6.578,6.578,0,0,0-.2-.828,2.487,2.487,0,0,1-.171-.477c-.008-.056-.045-.119-.03-.165a1.008,1.008,0,0,0-.066-.665.348.348,0,0,1,0-.207.7.7,0,0,0-.177-.709,10.82,10.82,0,0,1-.766-1.172.706.706,0,0,1-.088-.316,4.033,4.033,0,0,0-.151-.965,1.971,1.971,0,0,1-.058-.547.888.888,0,0,0-.1-.494.38.38,0,0,1-.054-.2c0-.467-.07-.929-.119-1.393a1.956,1.956,0,0,1,.008-.253c0-.085.031-.192-.008-.252a1.012,1.012,0,0,1-.063-.738.944.944,0,0,0-.045-.336.871.871,0,0,1,.007-.5c.088-.315.156-.635.246-.95a.731.731,0,0,0-.011-.46,3.681,3.681,0,0,1-.088-1.272.515.515,0,0,1,.054-.2c.117-.259.242-.514.362-.77s.222-.493.51-.592a.309.309,0,0,0,.185-.221,2.653,2.653,0,0,0,.161-.7,1.38,1.38,0,0,1,.391-.916,2.846,2.846,0,0,0,.623-.948,1.045,1.045,0,0,1,.454-.547,1.709,1.709,0,0,0,.482-.473,5.148,5.148,0,0,1,.488-.732c.109-.105.121-.309.194-.52a.955.955,0,0,0,.413-.836l-.115-.1a1.875,1.875,0,0,0,.638-.827,1.656,1.656,0,0,1,.31-.5c.211-.233.368-.5.562-.744.036-.044.055-.107.1-.137.126-.09.267-.159.389-.253a2.635,2.635,0,0,1,.346-.3.7.7,0,0,0,.369-.354h.392a.884.884,0,0,0,.563-.142.9.9,0,0,1,.747-.088,1.192,1.192,0,0,0,.63,0,1.7,1.7,0,0,1,.3-.02.434.434,0,0,0,.206-.039,1.722,1.722,0,0,1,.636-.234.342.342,0,0,0,.176-.107.592.592,0,0,1,.484-.223,1.407,1.407,0,0,0,.412-.093,2.8,2.8,0,0,1,.788-.171,4.177,4.177,0,0,0,.746-.161c.1-.023.189-.059.285-.086.424-.12.85-.233,1.272-.358a.868.868,0,0,1,.46-.043.652.652,0,0,0,.249,0,1.219,1.219,0,0,1,.867.118c.119.068.287.051.4.121a1.147,1.147,0,0,0,.819.086,6.616,6.616,0,0,0,.763-.084.757.757,0,0,1,.38.017,1,1,0,0,0,.892-.141.207.207,0,0,1,.35.147.7.7,0,0,0,.472.595,3.269,3.269,0,0,1,.651.479,1.1,1.1,0,0,0,.662.253.782.782,0,0,1,.443.134.725.725,0,0,0,.484.131c.1,0,.2,0,.3,0a.6.6,0,0,1,.212.01,4.854,4.854,0,0,0,.544.232,1.244,1.244,0,0,1,.528.141,1.14,1.14,0,0,0,.6.2,1.458,1.458,0,0,1,.83.377,1.171,1.171,0,0,0,.672.336,1.412,1.412,0,0,1,1,.514.387.387,0,0,0,.335.154c.35-.016.563.236.81.416.049.035.055.127.068.161.3.182.579.347.852.518a.494.494,0,0,1,.15.152.793.793,0,0,0,.467.412.1.1,0,0,1,.064.051c.111.281.369.326.621.373a1.615,1.615,0,0,1,.4.838.381.381,0,0,0,.078.194.358.358,0,0,1,.039.325.742.742,0,0,0,.067.577.756.756,0,0,1,.061.372,1.221,1.221,0,0,0,1.133,1.177l.3.024a1,1,0,0,1,.2.645,1.621,1.621,0,0,0,.188.822,2.267,2.267,0,0,1,.154.53c.031.138.047.279.065.42a.484.484,0,0,1,.006.21,2.668,2.668,0,0,0-.063.806.806.806,0,0,0,.173.556Z"/><path class="cls-2" d="M275.917,34.864c0,1.2.451,2.21.631,3.924h4.872v1.805h-4.8v7.442h4.8v1.8H270.684v-1.8h3.9V40.593h-3.9V38.788h3.834a30.536,30.536,0,0,1-.631-3.812c0-2.8,2.052-3.856,4.623-3.856a9.28,9.28,0,0,1,3.586.632l-.587,1.826a7.085,7.085,0,0,0-3.112-.631C276.818,32.947,275.917,33.352,275.917,34.864Z"/><path class="cls-2" d="M296.305,48.035v1.8H285.57v-1.8H288.8v-10.6H290.6l-.045,2.391,5.5-2.684.023,2.008L290.825,41.7v6.338Z"/><path class="cls-2" d="M299.735,43.772c0-4.127,2.368-6.586,5.706-6.586,3.518,0,5.57,2.413,5.57,6.428s-2.368,6.473-5.706,6.473C301.787,50.087,299.735,47.674,299.735,43.772Zm9.224-.045c0-2.955-1.105-4.713-3.563-4.713-2.481,0-3.609,1.8-3.609,4.645s1.105,4.6,3.564,4.6C307.831,48.26,308.959,46.456,308.959,43.727Z"/><path class="cls-2" d="M326.033,40.615v9.224h-1.8v-8.48c0-1.827-.181-2.571-1.376-2.571a3.046,3.046,0,0,0-1.962.925c.022.27.045.563.045.9v9.224h-1.805v-8.48c0-1.827-.18-2.571-1.375-2.571a2.975,2.975,0,0,0-1.917.88V49.839h-1.8v-12.4h1.488l.023,1.083a3.555,3.555,0,0,1,2.661-1.331,2.327,2.327,0,0,1,2.323,1.242,4.043,4.043,0,0,1,2.774-1.242C325.13,37.186,326.033,38.2,326.033,40.615Z"/><path class="cls-2" d="M354.948,48.035v1.8H344.213v-1.8h3.226v-10.6h1.8l-.045,2.391,5.5-2.684.023,2.008L349.468,41.7v6.338Z"/><path class="cls-2" d="M368.752,41.7l-.113,8.142h-1.691V48.35a5.852,5.852,0,0,1-4.353,1.737c-2.48-.023-3.879-1.331-3.879-3.405,0-2.391,2.458-3.451,7.961-3.879l.023-.88c.022-1.578-.158-2.909-2.616-2.909a9.757,9.757,0,0,0-4.331,1.059l-.541-1.691a10.894,10.894,0,0,1,5.03-1.2C368.324,37.186,368.775,39.262,368.752,41.7Zm-2.142,5.277.045-2.525c-4.15.338-5.909.924-5.909,2.188,0,1.037.722,1.646,2.12,1.669A5.546,5.546,0,0,0,366.61,46.974Z"/><path class="cls-2" d="M383.684,41.291v8.548h-2.03V41.585c0-1.827-.744-2.571-2.255-2.571a6.216,6.216,0,0,0-3.609,1.172v9.653h-2.03v-12.4h1.714V38.81a6.143,6.143,0,0,1,4.173-1.624C382.511,37.186,383.684,38.652,383.684,41.291Z"/><path class="cls-2" d="M398.3,31.346V49.839H396.54V48.508a5.976,5.976,0,0,1-4.127,1.579c-3.067-.023-4.714-2.165-4.714-5.977,0-4.961,2.459-6.9,6.157-6.9a15.018,15.018,0,0,1,2.413.181V31.346Zm-2.03,15.742V39.351a9.472,9.472,0,0,0-2.571-.315c-2.729,0-3.946,1.624-3.946,4.849,0,2.819.992,4.352,2.909,4.375A6.059,6.059,0,0,0,396.269,47.088Z"/><path class="cls-2" d="M402.36,43.772c0-4.127,2.368-6.586,5.706-6.586,3.518,0,5.57,2.413,5.57,6.428s-2.368,6.473-5.706,6.473C404.412,50.087,402.36,47.674,402.36,43.772Zm9.224-.045c0-2.955-1.105-4.713-3.563-4.713-2.481,0-3.609,1.8-3.609,4.645s1.105,4.6,3.564,4.6C410.456,48.26,411.584,46.456,411.584,43.727Z"/><path class="cls-2" d="M428.658,40.615v9.224h-1.8v-8.48c0-1.827-.181-2.571-1.376-2.571a3.048,3.048,0,0,0-1.962.925c.023.27.045.563.045.9v9.224h-1.8v-8.48c0-1.827-.18-2.571-1.376-2.571a2.977,2.977,0,0,0-1.917.88V49.839h-1.8v-12.4h1.489l.022,1.083a3.557,3.557,0,0,1,2.662-1.331,2.325,2.325,0,0,1,2.322,1.242,4.045,4.045,0,0,1,2.774-1.242C427.756,37.186,428.658,38.2,428.658,40.615Z"/><path class="cls-2" d="M457.573,48.035v1.8H446.838v-1.8h4.579v-8.8h-4.579v-1.8h6.608v10.6Zm-7.4-14.659a2.03,2.03,0,1,1,2.03,2.029A2.021,2.021,0,0,1,450.176,33.376Z"/><path class="cls-2" d="M472.64,40.615v9.224h-1.8v-8.48c0-1.827-.181-2.571-1.376-2.571a3.048,3.048,0,0,0-1.962.925c.023.27.045.563.045.9v9.224h-1.8v-8.48c0-1.827-.18-2.571-1.376-2.571a2.975,2.975,0,0,0-1.917.88V49.839h-1.8v-12.4h1.488l.023,1.083a3.557,3.557,0,0,1,2.662-1.331,2.325,2.325,0,0,1,2.322,1.242,4.045,4.045,0,0,1,2.774-1.242C471.738,37.186,472.64,38.2,472.64,40.615Z"/><path class="cls-2" d="M486.94,43.163c0,4.962-2.458,6.9-6.157,6.9a15.027,15.027,0,0,1-2.413-.18V53.9h-2.03V37.434h1.714V38.81a6.039,6.039,0,0,1,4.173-1.624C485.294,37.209,486.94,39.351,486.94,43.163Zm-2.052.226c0-2.82-.993-4.353-2.909-4.375a6.055,6.055,0,0,0-3.609,1.172v7.736a9.472,9.472,0,0,0,2.571.315C483.67,48.237,484.888,46.614,484.888,43.389Z"/><path class="cls-2" d="M490.324,43.772c0-4.127,2.368-6.586,5.706-6.586,3.518,0,5.571,2.413,5.571,6.428s-2.368,6.473-5.706,6.473C492.377,50.087,490.324,47.674,490.324,43.772Zm9.224-.045c0-2.955-1.105-4.713-3.563-4.713-2.481,0-3.608,1.8-3.608,4.645s1.105,4.6,3.563,4.6C498.42,48.26,499.548,46.456,499.548,43.727Z"/><path class="cls-2" d="M516.216,48.035v1.8H505.481v-1.8h3.225v-10.6h1.8l-.045,2.391,5.5-2.684.023,2.008L510.736,41.7v6.338Z"/><path class="cls-2" d="M530.7,49.1a9.148,9.148,0,0,1-4.263.969c-3.383,0-3.992-1.849-3.946-4.51l.135-6.315h-3.044v-1.8h3.067l.067-2.931h2.1l-.384,2.931h5.819v1.8H524.7l-.135,6.089c-.045,1.579.157,2.909,1.939,2.909a8.069,8.069,0,0,0,3.653-.834Z"/><path class="cls-2" d="M560.2,48.035v1.8H549.463v-1.8h3.226v-10.6h1.8l-.045,2.391,5.5-2.684.023,2.008L554.718,41.7v6.338Z"/><path class="cls-2" d="M574,41.7l-.113,8.142H572.2V48.35a5.852,5.852,0,0,1-4.353,1.737c-2.48-.023-3.879-1.331-3.879-3.405,0-2.391,2.458-3.451,7.961-3.879l.023-.88c.022-1.578-.158-2.909-2.616-2.909A9.757,9.757,0,0,0,565,40.073l-.541-1.691a10.894,10.894,0,0,1,5.03-1.2C573.574,37.186,574.025,39.262,574,41.7Zm-2.142,5.277.045-2.525c-4.15.338-5.909.924-5.909,2.188,0,1.037.722,1.646,2.12,1.669A5.546,5.546,0,0,0,571.86,46.974Z"/><path class="cls-2" d="M588.934,41.291v8.548H586.9V41.585c0-1.827-.744-2.571-2.255-2.571a6.216,6.216,0,0,0-3.609,1.172v9.653h-2.03v-12.4h1.714V38.81a6.143,6.143,0,0,1,4.173-1.624C587.761,37.186,588.934,38.652,588.934,41.291Z"/><path class="cls-2" d="M603.549,31.346V49.839H601.79V48.508a5.976,5.976,0,0,1-4.127,1.579c-3.067-.023-4.714-2.165-4.714-5.977,0-4.961,2.459-6.9,6.157-6.9a15.018,15.018,0,0,1,2.413.181V31.346Zm-2.03,15.742V39.351a9.472,9.472,0,0,0-2.571-.315c-2.729,0-3.946,1.624-3.946,4.849,0,2.819.992,4.352,2.909,4.375A6.059,6.059,0,0,0,601.519,47.088Z"/><path class="cls-2" d="M607.61,43.772c0-4.127,2.368-6.586,5.706-6.586,3.518,0,5.57,2.413,5.57,6.428s-2.368,6.473-5.706,6.473C609.662,50.087,607.61,47.674,607.61,43.772Zm9.224-.045c0-2.955-1.1-4.713-3.563-4.713-2.481,0-3.609,1.8-3.609,4.645s1.105,4.6,3.564,4.6C615.706,48.26,616.834,46.456,616.834,43.727Z"/><path class="cls-2" d="M633.908,40.615v9.224h-1.8v-8.48c0-1.827-.181-2.571-1.376-2.571a3.048,3.048,0,0,0-1.962.925c.023.27.045.563.045.9v9.224h-1.8v-8.48c0-1.827-.18-2.571-1.376-2.571a2.977,2.977,0,0,0-1.917.88V49.839h-1.8v-12.4H623.4l.022,1.083a3.557,3.557,0,0,1,2.662-1.331,2.325,2.325,0,0,1,2.322,1.242,4.045,4.045,0,0,1,2.774-1.242C633.006,37.186,633.908,38.2,633.908,40.615Z"/><path class="cls-2" d="M282.051,67.682v9.223h-1.8V68.426c0-1.827-.181-2.572-1.376-2.572a3.046,3.046,0,0,0-1.962.925c.022.271.045.564.045.9v9.223h-1.805V68.426c0-1.827-.18-2.572-1.375-2.572a2.98,2.98,0,0,0-1.917.88V76.905h-1.8V64.5h1.488l.023,1.083a3.553,3.553,0,0,1,2.661-1.331,2.327,2.327,0,0,1,2.323,1.241,4.046,4.046,0,0,1,2.774-1.241C281.149,64.253,282.051,65.268,282.051,67.682Z"/><path class="cls-2" d="M291.727,79.16h3.564v1.805h-9.157V79.16H289.7v-2.5l-4.8-12.156h2.188l2.593,6.743.88,2.8h.45l.9-2.8,2.548-6.743h2.075l-4.8,12.156Z"/><path class="cls-2" d="M305.666,71.2h-3.315v5.706h-2.075V61.569h4.872c3.856,0,5.728,1.669,5.728,4.489,0,1.961-1.06,3.427-3,4.667l3.721,6.18h-2.572Zm-3.315-1.826h4.4a3.486,3.486,0,0,0,2.007-3.157c0-1.941-1.06-2.82-3.834-2.82h-2.571Z"/><path class="cls-2" d="M324.77,68.764l-.113,8.141h-1.692V75.417a5.85,5.85,0,0,1-4.352,1.736c-2.481-.022-3.879-1.331-3.879-3.405,0-2.391,2.458-3.45,7.961-3.879l.022-.88c.023-1.578-.157-2.909-2.616-2.909a9.753,9.753,0,0,0-4.33,1.06l-.541-1.692a10.893,10.893,0,0,1,5.029-1.195C324.341,64.253,324.793,66.328,324.77,68.764Zm-2.142,5.277.044-2.525c-4.149.337-5.908.923-5.908,2.187,0,1.037.721,1.646,2.119,1.669A5.554,5.554,0,0,0,322.628,74.041Z"/><path class="cls-2" d="M339.7,68.357v8.548h-2.03V68.651c0-1.827-.745-2.571-2.255-2.571a6.21,6.21,0,0,0-3.609,1.173v9.652h-2.03V64.5h1.714v1.376a6.143,6.143,0,0,1,4.173-1.624C338.529,64.253,339.7,65.719,339.7,68.357Z"/><path class="cls-2" d="M354.317,58.412V76.905h-1.759V75.574a5.971,5.971,0,0,1-4.127,1.579c-3.067-.022-4.714-2.165-4.714-5.976,0-4.961,2.458-6.9,6.157-6.9a15.134,15.134,0,0,1,2.413.181V58.412Zm-2.03,15.742V66.418a9.433,9.433,0,0,0-2.571-.316c-2.729,0-3.946,1.624-3.946,4.849,0,2.819.992,4.353,2.909,4.375A6.05,6.05,0,0,0,352.287,74.154Z"/><path class="cls-2" d="M358.378,70.839c0-4.127,2.368-6.586,5.706-6.586,3.518,0,5.57,2.413,5.57,6.428s-2.368,6.472-5.706,6.472C360.43,77.153,358.378,74.74,358.378,70.839Zm9.224-.045c0-2.955-1.1-4.714-3.563-4.714-2.481,0-3.609,1.805-3.609,4.645s1.105,4.6,3.564,4.6C366.474,75.326,367.6,73.522,367.6,70.794Z"/><path class="cls-2" d="M384.676,67.682v9.223h-1.8V68.426c0-1.827-.181-2.572-1.376-2.572a3.046,3.046,0,0,0-1.962.925c.022.271.045.564.045.9v9.223h-1.805V68.426c0-1.827-.18-2.572-1.375-2.572a2.98,2.98,0,0,0-1.917.88V76.905h-1.8V64.5h1.488l.023,1.083a3.553,3.553,0,0,1,2.661-1.331,2.327,2.327,0,0,1,2.323,1.241,4.046,4.046,0,0,1,2.774-1.241C383.774,64.253,384.676,65.268,384.676,67.682Z"/><path class="cls-2" d="M398.524,61.569V76.905h-3.2L390.18,63.892h-.225l.112,13.013H388.15V61.569h3.2l5.164,13.013h.2l-.112-13.013Z"/><path class="cls-2" d="M412.915,64.5v12.4H411.2V75.529a6.143,6.143,0,0,1-4.173,1.624c-2.864,0-4.037-1.466-4.037-4.1V64.5h2.03v8.255c0,1.826.744,2.57,2.255,2.57a6.216,6.216,0,0,0,3.609-1.172V64.5Z"/><path class="cls-2" d="M428.658,67.682v9.223h-1.8V68.426c0-1.827-.181-2.572-1.376-2.572a3.048,3.048,0,0,0-1.962.925c.023.271.045.564.045.9v9.223h-1.8V68.426c0-1.827-.18-2.572-1.376-2.572a2.982,2.982,0,0,0-1.917.88V76.905h-1.8V64.5h1.489l.022,1.083a3.554,3.554,0,0,1,2.662-1.331,2.326,2.326,0,0,1,2.322,1.241,4.048,4.048,0,0,1,2.774-1.241C427.756,64.253,428.658,65.268,428.658,67.682Z"/><path class="cls-2" d="M442.958,70.229c0,4.962-2.458,6.9-6.157,6.9a13.873,13.873,0,0,1-4.443-.655V58.412h2.03v5.413l-.18,1.917a6.076,6.076,0,0,1,4.037-1.489C441.312,64.275,442.958,66.418,442.958,70.229Zm-2.052.226c0-2.819-.992-4.353-2.909-4.375a6.057,6.057,0,0,0-3.609,1.173v7.735a9.433,9.433,0,0,0,2.571.316C439.688,75.3,440.906,73.681,440.906,70.455Z"/><path class="cls-2" d="M448.665,70.725c0,3.158,1.331,4.579,3.947,4.579a8.12,8.12,0,0,0,4.1-1.06l.542,1.691a9.192,9.192,0,0,1-4.691,1.2c-3.676,0-5.954-2.075-5.954-6.292s2.594-6.564,5.841-6.564c3.7,0,5.345,2.3,4.849,6.316h-8.638Zm.158-1.758h6.54c-.045-2.076-1.014-2.932-3.044-2.932A3.307,3.307,0,0,0,448.823,68.967Z"/><path class="cls-2" d="M472.234,75.1v1.8H461.5V75.1h3.225V64.5h1.8l-.045,2.39,5.5-2.683.023,2.008-5.255,2.548V75.1Z"/><path class="cls-2" d="M476,76.183l.609-1.894a9.545,9.545,0,0,0,4.533,1.037c2.3,0,3.4-.541,3.4-1.691,0-2.5-8.321-1.669-8.321-5.774,0-2.322,2.052-3.586,5.3-3.586a11.533,11.533,0,0,1,4.488.88l-.586,1.85a8.789,8.789,0,0,0-3.9-.925c-2.142,0-3.247.563-3.247,1.556,0,2.413,8.322,1.579,8.322,5.773,0,2.571-2.278,3.722-5.548,3.722A11.735,11.735,0,0,1,476,76.183Z"/><path class="cls-2" d="M504.985,65.629h11.276v1.827H504.985Zm0,5.413h11.276v1.826H504.985Z"/><path class="cls-2" d="M539.855,61.164V77.311h4.555V79.16h-6.63V59.314h6.63v1.85Z"/><path class="cls-2" d="M556.771,79.16H550.14V77.311H554.7V61.164H550.14v-1.85h6.631Z"/><path class="cls-1" d="M275.917,89c0,1.195.451,2.21.631,3.924h4.872v1.8h-4.8v7.443h4.8v1.8H270.684v-1.8h3.9V94.725h-3.9v-1.8h3.834a30.567,30.567,0,0,1-.631-3.812c0-2.8,2.052-3.856,4.623-3.856a9.261,9.261,0,0,1,3.586.632l-.587,1.826a7.085,7.085,0,0,0-3.112-.631C276.818,87.08,275.917,87.485,275.917,89Z"/><path class="cls-1" d="M285.074,97.905c0-4.127,2.368-6.586,5.706-6.586,3.518,0,5.571,2.413,5.571,6.428s-2.368,6.473-5.706,6.473C287.127,104.22,285.074,101.807,285.074,97.905Zm9.224-.045c0-2.955-1.105-4.714-3.563-4.714-2.481,0-3.608,1.8-3.608,4.646s1.105,4.6,3.563,4.6C293.17,102.392,294.3,100.589,294.3,97.86Z"/><path class="cls-1" d="M310.966,102.168v1.8H300.231v-1.8h3.225v-10.6h1.8l-.045,2.391,5.5-2.684.023,2.008-5.255,2.548v6.338Z"/><path class="cls-2" d="M340.288,102.168v1.8H329.553v-1.8h4.578v-8.8h-4.578V91.567h6.608v10.6Zm-7.4-14.659a2.03,2.03,0,1,1,2.029,2.029A2.022,2.022,0,0,1,332.891,87.509Z"/><path class="cls-2" d="M354.948,102.168v1.8H344.213v-1.8h4.579v-8.8h-4.579V91.567h6.608v10.6Zm-7.4-14.659a2.03,2.03,0,1,1,2.03,2.029A2.022,2.022,0,0,1,347.551,87.509Z"/><path class="cls-1" d="M384.27,102.168v1.8H373.535v-1.8h4.578v-8.8h-4.578V91.567h6.608v10.6Zm-7.4-14.659a2.03,2.03,0,1,1,2.029,2.029A2.021,2.021,0,0,1,376.873,87.509Z"/><path class="cls-1" d="M398.344,95.424v8.548h-2.029V95.718c0-1.827-.745-2.572-2.256-2.572a6.215,6.215,0,0,0-3.608,1.173v9.653h-2.03v-12.4h1.714v1.376a6.139,6.139,0,0,1,4.172-1.624C397.171,91.319,398.344,92.785,398.344,95.424Z"/><path class="cls-2" d="M428.252,102.168v1.8H417.517v-1.8h3.225v-10.6h1.8l-.044,2.391,5.5-2.684.023,2.008-5.255,2.548v6.338Z"/><path class="cls-2" d="M442.056,95.83l-.113,8.142h-1.691v-1.489a5.852,5.852,0,0,1-4.353,1.737c-2.48-.023-3.879-1.331-3.879-3.406,0-2.39,2.458-3.45,7.961-3.879l.022-.879c.023-1.579-.157-2.91-2.616-2.91a9.753,9.753,0,0,0-4.33,1.06l-.541-1.691a10.893,10.893,0,0,1,5.029-1.2C441.628,91.319,442.079,93.394,442.056,95.83Zm-2.142,5.277.045-2.525c-4.15.338-5.909.924-5.909,2.187,0,1.038.722,1.647,2.12,1.669A5.547,5.547,0,0,0,439.914,101.107Z"/><path class="cls-2" d="M456.987,95.424v8.548h-2.029V95.718c0-1.827-.745-2.572-2.256-2.572a6.215,6.215,0,0,0-3.608,1.173v9.653h-2.03v-12.4h1.714v1.376a6.139,6.139,0,0,1,4.172-1.624C455.815,91.319,456.987,92.785,456.987,95.424Z"/><path class="cls-2" d="M472.956,104.016c0,2.3-2.3,4.241-6.337,4.241-3.293,0-5.255-1.106-5.255-3.135a3.31,3.31,0,0,1,1.759-2.571c-1.534-.316-2.21-.9-2.21-2.1,0-1.037.767-1.714,2.029-2.3a3.242,3.242,0,0,1-1.127-2.616c0-2.639,2.368-4.2,5.142-4.2a6.3,6.3,0,0,1,2.413.451l.9-3.157h2.165l-1.579,4.307a3.235,3.235,0,0,1,1.105,2.436c0,2.526-2.368,3.856-5.142,3.856a7.885,7.885,0,0,1-2.39-.315c-1.06.451-1.533.834-1.533,1.285,0,.5.428.722,1.488.812l5.277.452C471.783,101.648,472.956,102.3,472.956,104.016Zm-2.075.339c0-.767-.428-1.105-1.984-1.241l-4.06-.338a2.741,2.741,0,0,0-1.4,2.03c0,.947.789,1.737,3.293,1.737C469.8,106.543,470.881,105.415,470.881,104.355ZM463.867,95.4c0,1.49.992,2.279,3,2.279,2.142,0,3.044-.948,3.044-2.21,0-1.49-.992-2.413-3-2.413C464.769,93.057,463.867,94.026,463.867,95.4Z"/><path class="cls-2" d="M477.986,97.792c0,3.157,1.331,4.578,3.947,4.578a8.126,8.126,0,0,0,4.105-1.06l.541,1.692a9.186,9.186,0,0,1-4.691,1.2c-3.676,0-5.954-2.075-5.954-6.292s2.594-6.563,5.841-6.563c3.7,0,5.345,2.3,4.849,6.315h-8.638Zm.159-1.759h6.54c-.045-2.075-1.015-2.932-3.045-2.932A3.306,3.306,0,0,0,478.145,96.033Z"/><path class="cls-2" d="M492.941,96.3c0-8.254,2.616-9.923,6.7-9.923V88.23c-3.089,0-4.555,1.06-4.555,7.848,0,7.239,1.466,8.3,4.555,8.3v1.848C495.557,106.226,492.941,104.783,492.941,96.3Z"/><path class="cls-2" d="M516.464,102.122v1.85h-11.1V101.9c3.947-2.413,8.548-4.871,8.548-8.8,0-1.736-.767-2.841-3.338-2.841-2.8,0-3.541,1.24-3.541,3.36A3.842,3.842,0,0,0,507.218,95l-2.143-.158a10.523,10.523,0,0,1-.09-1.444c0-3,1.962-4.984,5.706-4.984,4.4,0,5.345,2.436,5.345,4.466,0,4.33-4.06,6.765-6.54,8.434l-1.219.541v.271Z"/><path class="cls-2" d="M530.967,96.169c0,5.682-2.142,8.028-5.751,8.028-3.788,0-5.615-2.639-5.615-7.758,0-5.345,2.143-8.029,5.751-8.029C529.141,88.41,530.967,91.049,530.967,96.169Zm-9.246.157c0,.677.023,1.309.068,1.872L528.4,92.47a2.934,2.934,0,0,0-3.09-2.21C522.555,90.26,521.721,92.38,521.721,96.326Zm7.127-.045c0-.677-.023-1.307-.068-1.872l-6.608,5.729a2.933,2.933,0,0,0,3.09,2.21C528.013,102.348,528.848,100.679,528.848,96.281Z"/><path class="cls-2" d="M542.967,96.3c0,8.254-2.616,9.922-6.7,9.922v-1.848c3.089,0,4.555-1.061,4.555-7.849,0-7.239-1.466-8.3-4.555-8.3V86.381C540.351,86.381,542.967,87.824,542.967,96.3Z"/><path class="cls-2" d="M552.576,94.454a2.03,2.03,0,1,1,2.03,2.03A2.021,2.021,0,0,1,552.576,94.454Zm0,7.69a2.03,2.03,0,1,1,2.03,2.031A2.021,2.021,0,0,1,552.576,102.144Z"/><path class="cls-2" d="M340.694,121.813v9.224h-1.8v-8.479c0-1.828-.181-2.572-1.376-2.572a3.046,3.046,0,0,0-1.962.925c.022.271.045.563.045.9v9.224h-1.8v-8.479c0-1.828-.181-2.572-1.376-2.572a2.98,2.98,0,0,0-1.917.88v10.171h-1.8v-12.4h1.488l.023,1.083a3.553,3.553,0,0,1,2.661-1.331,2.326,2.326,0,0,1,2.323,1.241,4.042,4.042,0,0,1,2.774-1.241C339.792,118.385,340.694,119.4,340.694,121.813Z"/><path class="cls-2" d="M350.37,133.292h3.564V135.1h-9.157v-1.805h3.563v-2.5l-4.8-12.156h2.188l2.593,6.743.88,2.8h.451l.9-2.8,2.548-6.743h2.075l-4.8,12.156Z"/><path class="cls-2" d="M364.309,125.331h-3.315v5.706H358.92V115.7h4.871c3.856,0,5.728,1.669,5.728,4.488,0,1.962-1.06,3.428-3,4.668l3.721,6.18H367.67Zm-3.315-1.826h4.4a3.487,3.487,0,0,0,2.007-3.157c0-1.94-1.06-2.82-3.834-2.82h-2.571Z"/><path class="cls-2" d="M383.413,122.9l-.113,8.142h-1.692v-1.488a5.848,5.848,0,0,1-4.352,1.736c-2.481-.022-3.879-1.33-3.879-3.405,0-2.391,2.458-3.45,7.961-3.879l.022-.88c.023-1.578-.157-2.909-2.615-2.909a9.76,9.76,0,0,0-4.33,1.059l-.542-1.691a10.893,10.893,0,0,1,5.029-1.195C382.984,118.385,383.435,120.46,383.413,122.9Zm-2.143,5.278.046-2.526c-4.15.338-5.909.924-5.909,2.188,0,1.037.721,1.646,2.119,1.669A5.55,5.55,0,0,0,381.27,128.173Z"/><path class="cls-2" d="M398.344,122.489v8.548h-2.029v-8.254c0-1.827-.745-2.571-2.256-2.571a6.208,6.208,0,0,0-3.608,1.173v9.652h-2.03v-12.4h1.714v1.376a6.134,6.134,0,0,1,4.172-1.624C397.171,118.385,398.344,119.851,398.344,122.489Z"/><path class="cls-2" d="M412.96,112.544v18.493H411.2v-1.331a5.972,5.972,0,0,1-4.128,1.579c-3.067-.022-4.713-2.165-4.713-5.977,0-4.96,2.458-6.9,6.157-6.9a15.036,15.036,0,0,1,2.413.18v-6.044Zm-2.03,15.742V120.55a9.433,9.433,0,0,0-2.571-.316c-2.729,0-3.947,1.624-3.947,4.849,0,2.819.992,4.352,2.909,4.375A6.062,6.062,0,0,0,410.93,128.286Z"/><path class="cls-2" d="M417.021,124.971c0-4.127,2.368-6.586,5.706-6.586,3.518,0,5.57,2.413,5.57,6.427s-2.368,6.473-5.706,6.473C419.073,131.285,417.021,128.872,417.021,124.971Zm9.224-.045c0-2.955-1.105-4.714-3.563-4.714-2.481,0-3.609,1.8-3.609,4.645s1.105,4.6,3.564,4.6C425.117,129.458,426.245,127.654,426.245,124.926Z"/><path class="cls-2" d="M443.319,121.813v9.224h-1.8v-8.479c0-1.828-.181-2.572-1.376-2.572a3.046,3.046,0,0,0-1.962.925c.022.271.045.563.045.9v9.224h-1.8v-8.479c0-1.828-.181-2.572-1.376-2.572a2.98,2.98,0,0,0-1.917.88v10.171h-1.8v-12.4h1.488l.023,1.083a3.553,3.553,0,0,1,2.661-1.331,2.326,2.326,0,0,1,2.323,1.241,4.042,4.042,0,0,1,2.774-1.241C442.417,118.385,443.319,119.4,443.319,121.813Z"/><path class="cls-2" d="M457.168,115.7v15.336h-3.2l-5.142-13.013H448.6l.113,13.013h-1.917V115.7H450l5.164,13.013h.2l-.112-13.013Z"/><path class="cls-2" d="M471.558,118.633v12.4h-1.714v-1.376a6.143,6.143,0,0,1-4.173,1.624c-2.864,0-4.037-1.466-4.037-4.1v-8.548h2.03v8.255c0,1.826.744,2.57,2.256,2.57a6.222,6.222,0,0,0,3.608-1.172v-9.653Z"/><path class="cls-2" d="M487.3,121.813v9.224h-1.8v-8.479c0-1.828-.181-2.572-1.376-2.572a3.046,3.046,0,0,0-1.962.925c.022.271.045.563.045.9v9.224H480.4v-8.479c0-1.828-.18-2.572-1.375-2.572a2.98,2.98,0,0,0-1.917.88v10.171h-1.8v-12.4h1.488l.023,1.083a3.553,3.553,0,0,1,2.661-1.331,2.325,2.325,0,0,1,2.323,1.241,4.042,4.042,0,0,1,2.774-1.241C486.4,118.385,487.3,119.4,487.3,121.813Z"/><path class="cls-2" d="M501.6,124.361c0,4.962-2.459,6.9-6.157,6.9a13.868,13.868,0,0,1-4.443-.655V112.544h2.03v5.413l-.181,1.917a6.076,6.076,0,0,1,4.037-1.489C499.954,118.408,501.6,120.55,501.6,124.361Zm-2.053.226c0-2.82-.992-4.353-2.909-4.375a6.047,6.047,0,0,0-3.608,1.173v7.735a9.428,9.428,0,0,0,2.571.315C498.331,129.435,499.548,127.812,499.548,124.587Z"/><path class="cls-2" d="M507.308,124.857c0,3.158,1.33,4.578,3.946,4.578a8.124,8.124,0,0,0,4.105-1.059l.541,1.691a9.185,9.185,0,0,1-4.69,1.2c-3.677,0-5.955-2.076-5.955-6.292s2.594-6.563,5.842-6.563c3.7,0,5.344,2.3,4.848,6.315h-8.637Zm.158-1.758h6.54c-.045-2.076-1.015-2.932-3.044-2.932A3.306,3.306,0,0,0,507.466,123.1Z"/><path class="cls-2" d="M530.877,129.232v1.805H520.142v-1.805h3.225v-10.6h1.8l-.044,2.39,5.5-2.683.023,2.008L525.4,122.9v6.337Z"/><path class="cls-2" d="M534.645,130.315l.609-1.894a9.545,9.545,0,0,0,4.533,1.037c2.3,0,3.4-.541,3.4-1.692,0-2.5-8.321-1.668-8.321-5.773,0-2.322,2.052-3.585,5.3-3.585a11.533,11.533,0,0,1,4.488.879l-.586,1.85a8.789,8.789,0,0,0-3.9-.925c-2.142,0-3.247.563-3.247,1.555,0,2.415,8.322,1.58,8.322,5.774,0,2.571-2.278,3.722-5.548,3.722A11.735,11.735,0,0,1,534.645,130.315Z"/><path class="cls-2" d="M552.576,129.21a2.03,2.03,0,1,1,2.03,2.03A2.021,2.021,0,0,1,552.576,129.21Z"/><path class="cls-2" d="M574,122.9l-.113,8.142H572.2v-1.488a5.851,5.851,0,0,1-4.353,1.736c-2.48-.022-3.879-1.33-3.879-3.405,0-2.391,2.458-3.45,7.961-3.879l.023-.88c.022-1.578-.158-2.909-2.616-2.909A9.771,9.771,0,0,0,565,121.271l-.541-1.691a10.894,10.894,0,0,1,5.03-1.195C573.574,118.385,574.025,120.46,574,122.9Zm-2.142,5.278.045-2.526c-4.15.338-5.909.924-5.909,2.188,0,1.037.722,1.646,2.12,1.669A5.55,5.55,0,0,0,571.86,128.173Z"/><path class="cls-2" d="M589.565,124.361c0,4.962-2.458,6.9-6.157,6.9a15.018,15.018,0,0,1-2.413-.181V135.1h-2.03V118.633h1.714v1.376a6.03,6.03,0,0,1,4.173-1.624C587.919,118.408,589.565,120.55,589.565,124.361Zm-2.052.226c0-2.82-.993-4.353-2.909-4.375A6.05,6.05,0,0,0,581,121.385v7.735a9.433,9.433,0,0,0,2.571.315C586.295,129.435,587.513,127.812,587.513,124.587Z"/><path class="cls-2" d="M604.226,124.361c0,4.962-2.459,6.9-6.157,6.9a15.018,15.018,0,0,1-2.413-.181V135.1h-2.03V118.633h1.714v1.376a6.026,6.026,0,0,1,4.172-1.624C602.579,118.408,604.226,120.55,604.226,124.361Zm-2.053.226c0-2.82-.992-4.353-2.909-4.375a6.047,6.047,0,0,0-3.608,1.173v7.735a9.428,9.428,0,0,0,2.571.315C600.956,129.435,602.173,127.812,602.173,124.587Z"/><path class="cls-2" d="M609.933,124.857c0,3.158,1.33,4.578,3.946,4.578a8.124,8.124,0,0,0,4.105-1.059l.541,1.691a9.185,9.185,0,0,1-4.69,1.2c-3.677,0-5.955-2.076-5.955-6.292s2.594-6.563,5.842-6.563c3.7,0,5.344,2.3,4.848,6.315h-8.637Zm.158-1.758h6.54c-.045-2.076-1.015-2.932-3.044-2.932A3.306,3.306,0,0,0,610.091,123.1Z"/><path class="cls-2" d="M632.916,122.489v8.548h-2.03v-8.254c0-1.827-.744-2.571-2.255-2.571a6.208,6.208,0,0,0-3.608,1.173v9.652h-2.03v-12.4h1.714v1.376a6.134,6.134,0,0,1,4.172-1.624C631.743,118.385,632.916,119.851,632.916,122.489Z"/><path class="cls-2" d="M647.531,112.544v18.493h-1.758v-1.331a5.972,5.972,0,0,1-4.128,1.579c-3.067-.022-4.713-2.165-4.713-5.977,0-4.96,2.458-6.9,6.156-6.9a15.05,15.05,0,0,1,2.414.18v-6.044ZM645.5,128.286V120.55a9.438,9.438,0,0,0-2.571-.316c-2.729,0-3.947,1.624-3.947,4.849,0,2.819.992,4.352,2.909,4.375A6.062,6.062,0,0,0,645.5,128.286Z"/><path class="cls-2" d="M654.209,123.369c0-8.254,2.616-9.923,6.7-9.923v1.85c-3.09,0-4.556,1.059-4.556,7.847,0,7.24,1.466,8.3,4.556,8.3v1.849C656.825,133.292,654.209,131.849,654.209,123.369Z"/><path class="cls-2" d="M677.484,129.232v1.805H666.749v-1.805h3.225v-10.6h1.8l-.045,2.39,5.5-2.683.023,2.008L672,122.9v6.337Z"/><path class="cls-2" d="M691.288,122.9l-.113,8.142h-1.692v-1.488a5.848,5.848,0,0,1-4.352,1.736c-2.481-.022-3.879-1.33-3.879-3.405,0-2.391,2.458-3.45,7.961-3.879l.022-.88c.023-1.578-.157-2.909-2.615-2.909a9.76,9.76,0,0,0-4.33,1.059l-.542-1.691a10.893,10.893,0,0,1,5.029-1.195C690.859,118.385,691.31,120.46,691.288,122.9Zm-2.143,5.278.046-2.526c-4.15.338-5.909.924-5.909,2.188,0,1.037.721,1.646,2.119,1.669A5.55,5.55,0,0,0,689.145,128.173Z"/><path class="cls-2" d="M706.219,122.489v8.548H704.19v-8.254c0-1.827-.745-2.571-2.256-2.571a6.208,6.208,0,0,0-3.608,1.173v9.652H696.3v-12.4h1.714v1.376a6.134,6.134,0,0,1,4.172-1.624C705.046,118.385,706.219,119.851,706.219,122.489Z"/><path class="cls-2" d="M720.835,112.544v18.493h-1.759v-1.331a5.972,5.972,0,0,1-4.128,1.579c-3.067-.022-4.713-2.165-4.713-5.977,0-4.96,2.458-6.9,6.157-6.9a15.036,15.036,0,0,1,2.413.18v-6.044Zm-2.03,15.742V120.55a9.433,9.433,0,0,0-2.571-.316c-2.729,0-3.947,1.624-3.947,4.849,0,2.819.992,4.352,2.909,4.375A6.062,6.062,0,0,0,718.805,128.286Z"/><path class="cls-2" d="M724.9,124.971c0-4.127,2.368-6.586,5.706-6.586,3.518,0,5.57,2.413,5.57,6.427s-2.368,6.473-5.706,6.473C726.948,131.285,724.9,128.872,724.9,124.971Zm9.224-.045c0-2.955-1.105-4.714-3.563-4.714-2.481,0-3.609,1.8-3.609,4.645s1.105,4.6,3.564,4.6C732.992,129.458,734.12,127.654,734.12,124.926Z"/><path class="cls-2" d="M751.194,121.813v9.224h-1.8v-8.479c0-1.828-.181-2.572-1.376-2.572a3.046,3.046,0,0,0-1.962.925c.022.271.045.563.045.9v9.224h-1.8v-8.479c0-1.828-.181-2.572-1.376-2.572a2.98,2.98,0,0,0-1.917.88v10.171h-1.8v-12.4h1.488l.023,1.083a3.553,3.553,0,0,1,2.661-1.331,2.326,2.326,0,0,1,2.323,1.241,4.042,4.042,0,0,1,2.774-1.241C750.292,118.385,751.194,119.4,751.194,121.813Z"/><path class="cls-2" d="M756.834,123.369c0-8.254,2.616-9.923,6.7-9.923v1.85c-3.09,0-4.556,1.059-4.556,7.847,0,7.24,1.466,8.3,4.556,8.3v1.849C759.45,133.292,756.834,131.849,756.834,123.369Z"/><path class="cls-2" d="M777.538,123.369c0,8.254-2.616,9.923-6.7,9.923v-1.849c3.09,0,4.556-1.06,4.556-7.848,0-7.24-1.466-8.3-4.556-8.3v-1.85C774.922,113.446,777.538,114.89,777.538,123.369Z"/><path class="cls-2" d="M792.2,123.369c0,8.254-2.616,9.923-6.7,9.923v-1.849c3.089,0,4.555-1.06,4.555-7.848,0-7.24-1.466-8.3-4.555-8.3v-1.85C789.583,113.446,792.2,114.89,792.2,123.369Z"/><path class="cls-2" d="M281.69,151.428c0,4.962-2.458,6.9-6.157,6.9a14.9,14.9,0,0,1-2.413-.181v4.015h-2.03V145.7H272.8v1.376a6.039,6.039,0,0,1,4.173-1.624C280.044,145.474,281.69,147.616,281.69,151.428Zm-2.052.225c0-2.819-.993-4.352-2.909-4.375a6.063,6.063,0,0,0-3.609,1.173v7.735a9.433,9.433,0,0,0,2.571.316C278.42,156.5,279.638,154.879,279.638,151.653Z"/><path class="cls-2" d="M296.305,156.3v1.8H285.57v-1.8H288.8V145.7H290.6l-.045,2.391,5.5-2.684.023,2.008-5.255,2.548V156.3Z"/><path class="cls-2" d="M310.966,156.3v1.8H300.231v-1.8h4.578v-8.8h-4.578v-1.8h6.608v10.6Zm-7.4-14.658a2.03,2.03,0,1,1,2.03,2.029A2.022,2.022,0,0,1,303.569,141.641Z"/><path class="cls-2" d="M325.041,149.556V158.1h-2.03v-8.254c0-1.827-.745-2.571-2.256-2.571a6.217,6.217,0,0,0-3.608,1.173V158.1h-2.03V145.7h1.714v1.376A6.142,6.142,0,0,1,321,145.451C323.868,145.451,325.041,146.918,325.041,149.556Z"/><path class="cls-2" d="M340.108,157.359a9.136,9.136,0,0,1-4.263.97c-3.383,0-3.992-1.85-3.946-4.511l.135-6.314h-3.045v-1.8h3.067l.068-2.932h2.1l-.383,2.932h5.818v1.8h-5.548l-.135,6.089c-.045,1.579.158,2.909,1.94,2.909a8.088,8.088,0,0,0,3.653-.834Z"/><path class="cls-2" d="M346.334,150.435c0-8.253,2.616-9.922,6.7-9.922v1.849c-3.09,0-4.556,1.06-4.556,7.848,0,7.239,1.466,8.3,4.556,8.3v1.848C348.95,160.358,346.334,158.915,346.334,150.435Z"/><path class="cls-2" d="M370.015,148.88V158.1h-1.8v-8.479c0-1.827-.181-2.571-1.376-2.571a3.051,3.051,0,0,0-1.962.924c.023.271.045.564.045.9V158.1h-1.8v-8.479c0-1.827-.18-2.571-1.376-2.571a2.975,2.975,0,0,0-1.917.88V158.1h-1.8V145.7h1.488l.023,1.083a3.554,3.554,0,0,1,2.662-1.331,2.326,2.326,0,0,1,2.322,1.241,4.048,4.048,0,0,1,2.774-1.241C369.113,145.451,370.015,146.467,370.015,148.88Z"/><path class="cls-2" d="M379.691,160.358h3.564v1.805H374.1v-1.805h3.563v-2.5l-4.8-12.156h2.188l2.593,6.743.88,2.8h.451l.9-2.8,2.548-6.743H384.5l-4.8,12.156Z"/><path class="cls-2" d="M399.381,142.767,395.029,158.1h-3.383l-4.352-15.336h2.165L392.525,154l.52,2.3h.7l.519-2.3,3.022-11.232Z"/><path class="cls-2" d="M412.734,149.962l-.113,8.141H410.93v-1.488a5.847,5.847,0,0,1-4.353,1.736c-2.481-.022-3.879-1.33-3.879-3.405,0-2.39,2.458-3.45,7.961-3.879l.023-.88c.022-1.578-.158-2.909-2.616-2.909a9.75,9.75,0,0,0-4.33,1.06l-.542-1.692a10.906,10.906,0,0,1,5.03-1.195C412.306,145.451,412.756,147.526,412.734,149.962Zm-2.143,5.277.046-2.525c-4.15.338-5.909.924-5.909,2.187,0,1.037.722,1.647,2.12,1.669A5.541,5.541,0,0,0,410.591,155.239Z"/><path class="cls-2" d="M428.027,156.3v1.8H417.292v-1.8h4.352V139.61h2.03V156.3Z"/><path class="cls-2" d="M442.236,145.7v12.4h-1.713v-1.376a6.138,6.138,0,0,1-4.173,1.624c-2.864,0-4.037-1.465-4.037-4.1V145.7h2.03v8.255c0,1.826.744,2.57,2.255,2.57a6.218,6.218,0,0,0,3.609-1.172V145.7Z"/><path class="cls-2" d="M448.665,151.924c0,3.157,1.331,4.578,3.947,4.578a8.12,8.12,0,0,0,4.1-1.06l.542,1.692a9.2,9.2,0,0,1-4.691,1.2c-3.676,0-5.954-2.075-5.954-6.292s2.594-6.563,5.841-6.563c3.7,0,5.345,2.3,4.849,6.315h-8.638Zm.158-1.759h6.54c-.045-2.075-1.014-2.932-3.044-2.932A3.307,3.307,0,0,0,448.823,150.165Z"/><path class="cls-2" d="M469.663,150.435c0,8.254-2.616,9.923-6.7,9.923V158.51c3.09,0,4.556-1.061,4.556-7.849,0-7.239-1.466-8.3-4.556-8.3v-1.849C467.047,140.513,469.663,141.956,469.663,150.435Z"/></g><g id="solo_testo" data-name="solo testo"><path class="cls-1" d="M584.187,73.53a9.991,9.991,0,0,0-.047,2.341,11.58,11.58,0,0,0,5.2-1.568l-.257,2.036a7.942,7.942,0,0,1-4.518,1.638c-2.294,0-3.581-1.334-3.417-4.026a9.414,9.414,0,0,1,6.694-8.754l3.862,1.147a7.283,7.283,0,0,1,.328,2.084c0,2.5-1.9,4.494-5.337,4.494a16.851,16.851,0,0,1-2.364-.211A5.984,5.984,0,0,0,584.187,73.53Zm.725-2.434a6.374,6.374,0,0,0,1.194.117A2.947,2.947,0,0,0,589.2,68.24a4.176,4.176,0,0,0-.187-1.171A8.75,8.75,0,0,0,584.912,71.1Z"/><path class="cls-1" d="M612.318,67.257a45.816,45.816,0,0,0-3.792,11.423l-2.809-.492a51.147,51.147,0,0,1,2.341-8.52,63.17,63.17,0,0,0-5.8,5.313c-.164.96-.351,1.826-.562,2.762l-2.879-.515c.7-2.761,1.452-5.29,2.458-8.122-2.037,1.708-3.956,3.347-5.594,4.986-.328,1.334-.679,2.481-1.077,3.839l-2.785-.726c1.029-3.371,2.013-6.718,3.16-11.493l3,.562a35.077,35.077,0,0,1-1.194,4.424c1.732-1.756,3.769-3.441,5.852-5.243l2.6,1.521c-.656,1.685-1.194,3.067-1.756,4.448,1.756-1.826,3.839-3.629,6.157-5.689Z"/><path class="cls-1" d="M624.53,68.9c0,3.933-1.638,10.042-7.982,9.48l-.164-2.621c4.424.211,5.1-4,5.173-7.49-2.106,2.27-4.166,4.47-5.992,6.53-.679,2.575-1.428,5.5-2.34,8.52l-2.88-.631c1.451-4.776,3.722-13.039,4.635-17.181l3.09.561A29.779,29.779,0,0,1,616.642,71,50.342,50.342,0,0,1,622,65.291l2.364,1.287A13.973,13.973,0,0,1,624.53,68.9Z"/><path class="cls-1" d="M634.615,67.7c-.913.07-1.826.116-2.739.116A93.377,93.377,0,0,0,628.81,77.7l-2.716-.585c.469-1.966,1.218-5.29,2.529-9.362-.96-.07-1.78-.141-2.294-.211l.351-1.8c.749.047,1.638.094,2.574.117.562-1.615,1.218-3.323,1.943-5.1l3.16.96c-.632,1.4-1.193,2.785-1.732,4.166.749-.047,1.522-.094,2.458-.188Z"/><path class="cls-1" d="M647.135,66.625a151.114,151.114,0,0,0-6.25,16.736l-2.738-.8c.7-2.528,2.223-6.414,3.674-10.135a42.425,42.425,0,0,1-6.062,5.921l-2.622-1.076c1.288-4.306,2.552-8.216,3.347-11.89l3.02.585c-.608,2.6-1.475,5.547-2.528,8.754a38.834,38.834,0,0,0,7.4-9.129Z"/><path class="cls-1" d="M659.441,60.375A114.559,114.559,0,0,0,653.309,77.7l-2.739-.585a110.22,110.22,0,0,1,5.735-17.929Z"/><path class="cls-1" d="M663.254,66.251a94.447,94.447,0,0,0-3.745,11.469l-2.785-.609a74.62,74.62,0,0,1,3.488-11.656Zm.7-2.178-2.809-.818a48.71,48.71,0,0,1,2.224-5.5l2.879.866C665.712,59.72,664.987,61.382,663.957,64.073Z"/><path class="cls-1" d="M668.683,68.006a3.533,3.533,0,0,0-1.17.164,3.887,3.887,0,0,0,1.263,2.388c1.288,1.591,2.5,2.738,2.5,4.142,0,1.85-2.785,3.559-5.2,3.559a6.039,6.039,0,0,1-3.886-1.312l.82-2.527a9.223,9.223,0,0,0,5.453,1.5c-.163-.96-1.263-1.967-2.036-2.926-1.311-1.639-1.779-2.481-1.779-3.488,0-1.779,2.481-4,4.939-4a8.232,8.232,0,0,1,3.628.818l-.8,2.857A7.613,7.613,0,0,0,668.683,68.006Z"/><path class="cls-1" d="M682.233,67.7c-.914.07-1.826.116-2.739.116a93.628,93.628,0,0,0-3.067,9.878l-2.715-.585c.468-1.966,1.217-5.29,2.528-9.362-.96-.07-1.779-.141-2.294-.211l.351-1.8c.749.047,1.639.094,2.575.117.562-1.615,1.217-3.323,1.943-5.1l3.16.96c-.632,1.4-1.194,2.785-1.732,4.166.749-.047,1.521-.094,2.457-.188Z"/></g></svg>