<svg id="Livello_1" data-name="Livello 1" xmlns="http://www.w3.org/2000/svg" viewBox="0 0 952 320.24"><defs><style>.cls-1{fill:#1858a8;}.cls-2{fill:#f36;}.cls-3{fill:#0046b7;}</style></defs><title>10</title><path class="cls-1" d="M199.949,54.584V70.731h4.556V72.58h-6.63V52.734h6.63v1.85Z"/><path class="cls-1" d="M216.865,72.58h-6.63V70.731h4.556V54.584h-4.556v-1.85h6.63Z"/><path class="cls-2" d="M78.007,29.521v1.8H67.272v-1.8h4.352V12.832h2.03V29.521Z"/><path class="cls-2" d="M92.036,23.183l-.113,8.142H90.232V29.837a5.851,5.851,0,0,1-4.353,1.736C83.4,31.551,82,30.242,82,28.168c0-2.391,2.458-3.45,7.961-3.879l.022-.88c.023-1.578-.157-2.909-2.616-2.909a9.766,9.766,0,0,0-4.33,1.059L82.5,19.868a10.893,10.893,0,0,1,5.029-1.2C91.608,18.673,92.059,20.748,92.036,23.183Zm-2.142,5.278.045-2.526c-4.15.338-5.909.924-5.909,2.188,0,1.037.722,1.646,2.119,1.669A5.553,5.553,0,0,0,89.894,28.461Z"/><path class="cls-2" d="M107.373,30.581a9.133,9.133,0,0,1-4.263.97c-3.382,0-3.991-1.85-3.946-4.511l.135-6.315H96.255v-1.8h3.067l.068-2.932h2.1l-.383,2.932h5.818v1.8h-5.548l-.135,6.089c-.045,1.579.158,2.91,1.939,2.91a8.089,8.089,0,0,0,3.654-.834Z"/><path class="cls-2" d="M122.214,29.521v1.8H111.479v-1.8h4.578v-8.8h-4.578v-1.8h6.608v10.6Zm-7.4-14.659a2.03,2.03,0,1,1,2.03,2.029A2.021,2.021,0,0,1,114.817,14.862Z"/><path class="cls-2" d="M136.289,22.777v8.548h-2.03V23.071c0-1.827-.744-2.571-2.255-2.571a6.208,6.208,0,0,0-3.608,1.173v9.652h-2.03v-12.4h1.714V20.3a6.134,6.134,0,0,1,4.172-1.624C135.116,18.673,136.289,20.139,136.289,22.777Z"/><path class="cls-2" d="M148.536,26.07h-5.277l-1.533,5.255h-2.1L144.3,15.989h3.293l4.668,15.336h-2.165ZM148,24.244l-1.24-4.15-.542-2.3h-.653l-.542,2.3-1.218,4.15Z"/><path class="cls-2" d="M165.971,29.521v1.8H155.236v-1.8h4.353V12.832h2.029V29.521Z"/><path class="cls-2" d="M180.9,24.649c0,4.962-2.458,6.9-6.156,6.9a15.009,15.009,0,0,1-2.413-.181v4.015H170.3V18.921h1.714V20.3a6.026,6.026,0,0,1,4.172-1.624C179.256,18.7,180.9,20.838,180.9,24.649Zm-2.052.226c0-2.819-.992-4.353-2.909-4.375a6.045,6.045,0,0,0-3.608,1.173v7.735a9.425,9.425,0,0,0,2.57.316C177.632,29.724,178.85,28.1,178.85,24.875Z"/><path class="cls-2" d="M194.932,22.777v8.548H192.9V23.071c0-1.827-.745-2.571-2.255-2.571a6.21,6.21,0,0,0-3.609,1.173v9.652h-2.03V12.832h2.03v5.413l-.18,1.939a6.111,6.111,0,0,1,4.037-1.511C193.759,18.673,194.932,20.139,194.932,22.777Z"/><path class="cls-2" d="M209.321,23.183l-.112,8.142h-1.692V29.837a5.85,5.85,0,0,1-4.352,1.736c-2.481-.022-3.879-1.331-3.879-3.405,0-2.391,2.458-3.45,7.961-3.879l.022-.88c.023-1.578-.158-2.909-2.616-2.909a9.766,9.766,0,0,0-4.33,1.059l-.541-1.691a10.886,10.886,0,0,1,5.029-1.2C208.893,18.673,209.344,20.748,209.321,23.183Zm-2.142,5.278.045-2.526c-4.15.338-5.908.924-5.908,2.188,0,1.037.721,1.646,2.119,1.669A5.55,5.55,0,0,0,207.179,28.461Z"/><path class="cls-2" d="M224.885,24.649c0,4.962-2.459,6.9-6.157,6.9a13.868,13.868,0,0,1-4.443-.655V12.832h2.03v5.413l-.181,1.917a6.076,6.076,0,0,1,4.037-1.489C223.238,18.7,224.885,20.838,224.885,24.649Zm-2.052.226c0-2.819-.993-4.353-2.91-4.375a6.049,6.049,0,0,0-3.608,1.173v7.735a9.428,9.428,0,0,0,2.571.316C221.615,29.724,222.833,28.1,222.833,24.875Z"/><path class="cls-2" d="M230.592,25.145c0,3.158,1.33,4.579,3.947,4.579a8.123,8.123,0,0,0,4.1-1.06l.542,1.691a9.192,9.192,0,0,1-4.691,1.2c-3.677,0-5.954-2.076-5.954-6.292s2.593-6.564,5.841-6.564c3.7,0,5.345,2.3,4.849,6.316h-8.638Zm.158-1.758h6.54c-.045-2.076-1.015-2.932-3.044-2.932A3.307,3.307,0,0,0,230.75,23.387Z"/><path class="cls-2" d="M253.981,30.581a9.136,9.136,0,0,1-4.263.97c-3.383,0-3.992-1.85-3.946-4.511l.135-6.315h-3.045v-1.8h3.067L246,15.989h2.1l-.383,2.932h5.818v1.8h-5.547l-.136,6.089c-.045,1.579.158,2.91,1.94,2.91a8.088,8.088,0,0,0,3.653-.834Z"/><path class="cls-1" d="M317.983,54.584V70.731h4.556V72.58h-6.63V52.734h6.63v1.85Z"/><path class="cls-1" d="M331.314,54.989h2.841l-.2,7.668h-2.435Z"/><path class="cls-1" d="M349.988,65.07h-5.276l-1.534,5.255h-2.1l4.669-15.336h3.293l4.668,15.336h-2.165Zm-.541-1.826-1.24-4.15-.541-2.3h-.654l-.542,2.3-1.217,4.15Z"/><path class="cls-1" d="M360.635,54.989h2.842l-.2,7.668h-2.436Z"/><path class="cls-1" d="M379.13,69.626c0,1.984-1.218,4.307-4.6,4.307V72.242c1.511,0,2.436-.586,2.729-2.007a1.367,1.367,0,0,1-.812.293,2.031,2.031,0,0,1,.09-4.059C377.732,66.469,379.13,67.461,379.13,69.626Z"/><path class="cls-1" d="M404.617,54.989h2.842l-.2,7.668H404.82Z"/><path class="cls-1" d="M426.675,65.905c0,2.706-1.669,4.42-5.119,4.42H415.6V54.989h5.1c3.4,0,5.052,1.286,5.052,4.105a5.284,5.284,0,0,1-1.444,3.382A3.3,3.3,0,0,1,426.675,65.905Zm-9-9.089v5.075h4.848a3.972,3.972,0,0,0,1.105-2.639c0-1.557-.744-2.436-3.157-2.436Zm6.878,9.224c0-1.24-.451-2.322-2.5-2.322h-4.375V68.5h3.7C424.127,68.5,424.555,67.461,424.555,66.04Z"/><path class="cls-1" d="M433.939,54.989h2.841l-.2,7.668h-2.435Z"/><path class="cls-1" d="M452.433,69.626c0,1.984-1.218,4.307-4.6,4.307V72.242c1.51,0,2.435-.586,2.728-2.007a1.364,1.364,0,0,1-.811.293,2.031,2.031,0,0,1,.089-4.059C451.035,66.469,452.433,67.461,452.433,69.626Z"/><path class="cls-1" d="M477.921,54.989h2.842l-.2,7.668h-2.436Z"/><path class="cls-1" d="M488.387,62.793c0-5.954,3.654-8.029,6.991-8.029a8.805,8.805,0,0,1,4.4,1.015l-.586,1.781a7.424,7.424,0,0,0-3.992-.947c-2.278,0-4.691,1.421-4.691,6.067,0,4.6,1.962,6.021,4.691,6.021a8.02,8.02,0,0,0,3.992-1.06l.541,1.714a9.067,9.067,0,0,1-4.579,1.2C491.364,70.551,488.387,68.475,488.387,62.793Z"/><path class="cls-1" d="M507.242,54.989h2.842l-.2,7.668h-2.436Z"/><path class="cls-1" d="M525.737,69.626c0,1.984-1.218,4.307-4.6,4.307V72.242c1.511,0,2.436-.586,2.729-2.007a1.365,1.365,0,0,1-.812.293,2.031,2.031,0,0,1,.09-4.059C524.338,66.469,525.737,67.461,525.737,69.626Z"/><path class="cls-1" d="M550.615,68.5a2.03,2.03,0,1,1,2.03,2.03A2.022,2.022,0,0,1,550.615,68.5Z"/><path class="cls-1" d="M565.276,68.5a2.03,2.03,0,1,1,2.03,2.03A2.022,2.022,0,0,1,565.276,68.5Z"/><path class="cls-1" d="M579.937,68.5a2.03,2.03,0,1,1,2.03,2.03A2.021,2.021,0,0,1,579.937,68.5Z"/><path class="cls-1" d="M599.041,69.626c0,1.984-1.218,4.307-4.6,4.307V72.242c1.511,0,2.436-.586,2.729-2.007a1.37,1.37,0,0,1-.812.293,2.031,2.031,0,0,1,.09-4.059C597.642,66.469,599.041,67.461,599.041,69.626Z"/><path class="cls-1" d="M609.867,54.989h2.842l-.2,7.668H610.07Z"/><path class="cls-1" d="M626.107,63.311h-.384l-3.586,7.014h-2.232l4.307-8.028-4.194-7.308h2.187l3.609,6.383h.36l3.631-6.383h2.075l-4.217,7.262,4.33,8.074H629.76Z"/><path class="cls-1" d="M639.189,54.989h2.841l-.2,7.668h-2.435Z"/><path class="cls-1" d="M657.683,69.626c0,1.984-1.218,4.307-4.6,4.307V72.242c1.51,0,2.435-.586,2.728-2.007a1.364,1.364,0,0,1-.811.293,2.031,2.031,0,0,1,.089-4.059C656.285,66.469,657.683,67.461,657.683,69.626Z"/><path class="cls-1" d="M683.171,54.989h2.842l-.2,7.668h-2.436Z"/><path class="cls-1" d="M700.29,68.475h4.33v1.85H693.885v-1.85h4.33V63.74l-5.458-8.751h2.323l2.977,4.962,1.128,2.255h.271l1.15-2.255,2.977-4.962h2.165L700.29,63.74Z"/><path class="cls-1" d="M712.492,54.989h2.842l-.2,7.668H712.7Z"/><path class="cls-1" d="M730.987,69.626c0,1.984-1.218,4.307-4.6,4.307V72.242c1.511,0,2.436-.586,2.729-2.007a1.365,1.365,0,0,1-.812.293,2.031,2.031,0,0,1,.09-4.059C729.588,66.469,730.987,67.461,730.987,69.626Z"/><path class="cls-1" d="M756.474,54.989h2.842l-.2,7.668h-2.436Z"/><path class="cls-1" d="M778.1,68.475v1.85h-11.1V68.25l7.578-10.126.992-.97v-.315h-8.344v-1.85h10.644v2.075L770.3,67.19l-1.015.97v.315Z"/><path class="cls-1" d="M785.8,54.989h2.842l-.2,7.668H786Z"/><path class="cls-1" d="M804.043,72.58h-6.631V70.731h4.556V54.584h-4.556v-1.85h6.631Z"/><path class="cls-2" d="M505.973,29.521v1.8H495.237v-1.8h4.353V12.832h2.03V29.521Z"/><path class="cls-2" d="M520,23.183l-.113,8.142H518.2V29.837a5.85,5.85,0,0,1-4.352,1.736c-2.481-.022-3.879-1.331-3.879-3.405,0-2.391,2.458-3.45,7.961-3.879l.022-.88c.023-1.578-.157-2.909-2.616-2.909A9.766,9.766,0,0,0,511,21.559l-.541-1.691a10.893,10.893,0,0,1,5.029-1.2C519.573,18.673,520.024,20.748,520,23.183Zm-2.143,5.278.045-2.526c-4.15.338-5.908.924-5.908,2.188,0,1.037.721,1.646,2.119,1.669A5.55,5.55,0,0,0,517.859,28.461Z"/><path class="cls-2" d="M535.339,30.581a9.136,9.136,0,0,1-4.263.97c-3.383,0-3.991-1.85-3.946-4.511l.135-6.315h-3.044v-1.8h3.067l.068-2.932h2.1l-.384,2.932h5.819v1.8H529.34l-.135,6.089c-.045,1.579.157,2.91,1.939,2.91a8.082,8.082,0,0,0,3.653-.834Z"/><path class="cls-2" d="M550.18,29.521v1.8H539.445v-1.8h4.578v-8.8h-4.578v-1.8h6.608v10.6Zm-7.4-14.659a2.03,2.03,0,1,1,2.03,2.029A2.021,2.021,0,0,1,542.783,14.862Z"/><path class="cls-2" d="M564.255,22.777v8.548h-2.03V23.071c0-1.827-.744-2.571-2.255-2.571a6.213,6.213,0,0,0-3.609,1.173v9.652h-2.029v-12.4h1.713V20.3a6.138,6.138,0,0,1,4.173-1.624C563.082,18.673,564.255,20.139,564.255,22.777Z"/><path class="cls-2" d="M579.321,15.989v9c0,4.736-2.255,6.563-5.48,6.563-3.4,0-5.345-1.782-5.345-6.406V15.989h2.075v9.044c0,3.495.97,4.668,3.315,4.668,2.368,0,3.361-1.218,3.361-4.6V15.989Z"/><path class="cls-2" d="M594.208,24.649c0,4.962-2.459,6.9-6.157,6.9a15.018,15.018,0,0,1-2.413-.181v4.015h-2.03V18.921h1.714V20.3a6.026,6.026,0,0,1,4.172-1.624C592.561,18.7,594.208,20.838,594.208,24.649Zm-2.053.226c0-2.819-.992-4.353-2.909-4.375a6.045,6.045,0,0,0-3.608,1.173v7.735a9.428,9.428,0,0,0,2.571.316C590.938,29.724,592.155,28.1,592.155,24.875Z"/><path class="cls-2" d="M608.868,24.649c0,4.962-2.458,6.9-6.156,6.9a15.031,15.031,0,0,1-2.414-.181v4.015h-2.029V18.921h1.714V20.3a6.026,6.026,0,0,1,4.172-1.624C607.222,18.7,608.868,20.838,608.868,24.649Zm-2.052.226c0-2.819-.993-4.353-2.909-4.375a6.05,6.05,0,0,0-3.609,1.173v7.735a9.433,9.433,0,0,0,2.571.316C605.6,29.724,606.816,28.1,606.816,24.875Z"/><path class="cls-2" d="M614.575,25.145c0,3.158,1.331,4.579,3.947,4.579a8.126,8.126,0,0,0,4.1-1.06l.541,1.691a9.189,9.189,0,0,1-4.691,1.2c-3.676,0-5.954-2.076-5.954-6.292s2.594-6.564,5.841-6.564c3.7,0,5.345,2.3,4.849,6.316h-8.638Zm.158-1.758h6.541c-.045-2.076-1.015-2.932-3.045-2.932A3.307,3.307,0,0,0,614.733,23.387Z"/><path class="cls-2" d="M638.144,29.521v1.8H627.409v-1.8h3.225v-10.6h1.8l-.045,2.39,5.5-2.683.023,2.008-5.255,2.547v6.338Z"/><path class="cls-2" d="M641.845,25.259c0-4.489,2.729-6.564,6.179-6.564a9.57,9.57,0,0,1,4.511,1.016l-.587,1.826a8.127,8.127,0,0,0-4.1-1.015c-2.391,0-3.924,1.421-3.924,4.623,0,3.158,1.218,4.579,3.924,4.579a7.719,7.719,0,0,0,4.1-1.15l.542,1.781a9.192,9.192,0,0,1-4.691,1.2C644.01,31.551,641.845,29.475,641.845,25.259Z"/><path class="cls-2" d="M666.609,23.183l-.113,8.142h-1.691V29.837a5.851,5.851,0,0,1-4.353,1.736c-2.48-.022-3.879-1.331-3.879-3.405,0-2.391,2.458-3.45,7.961-3.879l.023-.88c.022-1.578-.158-2.909-2.616-2.909a9.771,9.771,0,0,0-4.331,1.059l-.541-1.691a10.894,10.894,0,0,1,5.03-1.2C666.181,18.673,666.632,20.748,666.609,23.183Zm-2.142,5.278.045-2.526c-4.15.338-5.909.924-5.909,2.188,0,1.037.722,1.646,2.12,1.669A5.55,5.55,0,0,0,664.467,28.461Z"/><path class="cls-2" d="M671.234,30.6l.609-1.894a9.545,9.545,0,0,0,4.533,1.037c2.3,0,3.4-.541,3.4-1.691,0-2.5-8.321-1.669-8.321-5.774,0-2.322,2.052-3.586,5.3-3.586a11.533,11.533,0,0,1,4.488.88l-.586,1.85a8.789,8.789,0,0,0-3.9-.925c-2.142,0-3.247.563-3.247,1.556,0,2.413,8.322,1.579,8.322,5.773,0,2.571-2.278,3.722-5.548,3.722A11.735,11.735,0,0,1,671.234,30.6Z"/><path class="cls-2" d="M687.879,25.145c0,3.158,1.331,4.579,3.947,4.579a8.123,8.123,0,0,0,4.1-1.06l.542,1.691a9.192,9.192,0,0,1-4.691,1.2c-3.676,0-5.954-2.076-5.954-6.292s2.593-6.564,5.841-6.564c3.7,0,5.345,2.3,4.849,6.316h-8.638Zm.158-1.758h6.54c-.045-2.076-1.014-2.932-3.044-2.932A3.307,3.307,0,0,0,688.037,23.387Z"/><path class="cls-3" d="M251.949,281.183v16.148h4.556v1.849h-6.63V279.334h6.63v1.849Z"/><path class="cls-3" d="M268.865,299.18h-6.63v-1.849h4.556V281.183h-4.556v-1.849h6.63Z"/><path class="cls-2" d="M130.007,256.121v1.8H119.272v-1.8h4.352V239.432h2.03v16.689Z"/><path class="cls-2" d="M144.036,249.783l-.113,8.142h-1.691v-1.489a5.852,5.852,0,0,1-4.353,1.737c-2.48-.023-3.879-1.331-3.879-3.406,0-2.39,2.458-3.45,7.961-3.878l.022-.88c.023-1.578-.157-2.91-2.616-2.91a9.753,9.753,0,0,0-4.33,1.06l-.541-1.691a10.893,10.893,0,0,1,5.029-1.2C143.608,245.272,144.059,247.348,144.036,249.783Zm-2.142,5.277.045-2.525c-4.15.338-5.909.924-5.909,2.188,0,1.037.722,1.646,2.119,1.668A5.543,5.543,0,0,0,141.894,255.06Z"/><path class="cls-2" d="M159.373,257.181a9.145,9.145,0,0,1-4.263.969c-3.382,0-3.991-1.849-3.946-4.51l.135-6.315h-3.044v-1.8h3.067l.068-2.931h2.1l-.383,2.931h5.818v1.8h-5.548l-.135,6.089c-.045,1.579.158,2.909,1.939,2.909a8.076,8.076,0,0,0,3.654-.834Z"/><path class="cls-2" d="M174.214,256.121v1.8H163.479v-1.8h4.578v-8.8h-4.578v-1.8h6.608v10.6Zm-7.4-14.659a2.03,2.03,0,1,1,2.03,2.029A2.021,2.021,0,0,1,166.817,241.462Z"/><path class="cls-2" d="M188.289,249.377v8.548h-2.03v-8.254c0-1.827-.744-2.572-2.255-2.572a6.215,6.215,0,0,0-3.608,1.173v9.653h-2.03v-12.4h1.714V246.9a6.139,6.139,0,0,1,4.172-1.624C187.116,245.272,188.289,246.738,188.289,249.377Z"/><path class="cls-2" d="M200.536,252.67h-5.277l-1.533,5.255h-2.1l4.668-15.336h3.293l4.668,15.336h-2.165ZM200,250.844l-1.24-4.151-.542-2.3h-.653l-.542,2.3-1.218,4.151Z"/><path class="cls-2" d="M217.971,256.121v1.8H207.236v-1.8h4.353V239.432h2.029v16.689Z"/><path class="cls-2" d="M232.9,251.249c0,4.962-2.458,6.9-6.156,6.9a15.018,15.018,0,0,1-2.413-.18v4.014H222.3V245.52h1.714V246.9a6.035,6.035,0,0,1,4.172-1.624C231.256,245.3,232.9,247.437,232.9,251.249Zm-2.052.225c0-2.819-.992-4.352-2.909-4.375a6.058,6.058,0,0,0-3.608,1.173v7.736a9.465,9.465,0,0,0,2.57.315C229.632,256.323,230.85,254.7,230.85,251.474Z"/><path class="cls-2" d="M246.932,249.377v8.548H244.9v-8.254c0-1.827-.745-2.572-2.255-2.572a6.218,6.218,0,0,0-3.609,1.173v9.653h-2.03V239.432h2.03v5.413l-.18,1.939a6.113,6.113,0,0,1,4.037-1.512C245.759,245.272,246.932,246.738,246.932,249.377Z"/><path class="cls-2" d="M261.321,249.783l-.112,8.142h-1.692v-1.489a5.852,5.852,0,0,1-4.352,1.737c-2.481-.023-3.879-1.331-3.879-3.406,0-2.39,2.458-3.45,7.961-3.878l.022-.88c.023-1.578-.158-2.91-2.616-2.91a9.753,9.753,0,0,0-4.33,1.06l-.541-1.691a10.886,10.886,0,0,1,5.029-1.2C260.893,245.272,261.344,247.348,261.321,249.783Zm-2.142,5.277.045-2.525c-4.15.338-5.908.924-5.908,2.188,0,1.037.721,1.646,2.119,1.668A5.54,5.54,0,0,0,259.179,255.06Z"/><path class="cls-2" d="M276.885,251.249c0,4.962-2.459,6.9-6.157,6.9a13.9,13.9,0,0,1-4.443-.654V239.432h2.03v5.413l-.181,1.917a6.083,6.083,0,0,1,4.037-1.49C275.238,245.3,276.885,247.437,276.885,251.249Zm-2.052.225c0-2.819-.993-4.352-2.91-4.375a6.063,6.063,0,0,0-3.608,1.173v7.736a9.467,9.467,0,0,0,2.571.315C273.615,256.323,274.833,254.7,274.833,251.474Z"/><path class="cls-2" d="M282.592,251.745c0,3.157,1.33,4.578,3.947,4.578a8.133,8.133,0,0,0,4.1-1.059l.542,1.691a9.192,9.192,0,0,1-4.691,1.195c-3.677,0-5.954-2.075-5.954-6.292s2.593-6.563,5.841-6.563c3.7,0,5.345,2.3,4.849,6.315h-8.638Zm.158-1.759h6.54c-.045-2.075-1.015-2.931-3.044-2.931A3.306,3.306,0,0,0,282.75,249.986Z"/><path class="cls-2" d="M305.981,257.181a9.148,9.148,0,0,1-4.263.969c-3.383,0-3.992-1.849-3.946-4.51l.135-6.315h-3.045v-1.8h3.067l.068-2.931h2.1l-.383,2.931h5.818v1.8h-5.547l-.136,6.089c-.045,1.579.158,2.909,1.94,2.909a8.075,8.075,0,0,0,3.653-.834Z"/><path class="cls-1" d="M317.983,281.183v16.148h4.556v1.849h-6.63V279.334h6.63v1.849Z"/><path class="cls-1" d="M331.314,281.589h2.841l-.2,7.668h-2.435Z"/><path class="cls-1" d="M349.988,291.67h-5.276l-1.534,5.255h-2.1l4.669-15.336h3.293l4.668,15.336h-2.165Zm-.541-1.826-1.24-4.151-.541-2.3h-.654l-.542,2.3-1.217,4.151Z"/><path class="cls-1" d="M360.635,281.589h2.842l-.2,7.668h-2.436Z"/><path class="cls-1" d="M379.13,296.225c0,1.985-1.218,4.308-4.6,4.308v-1.691c1.511,0,2.436-.586,2.729-2.007a1.367,1.367,0,0,1-.812.293,2.031,2.031,0,0,1,.09-4.06C377.732,293.068,379.13,294.06,379.13,296.225Z"/><path class="cls-1" d="M404.617,281.589h2.842l-.2,7.668H404.82Z"/><path class="cls-1" d="M426.675,292.505c0,2.706-1.669,4.42-5.119,4.42H415.6V281.589h5.1c3.4,0,5.052,1.286,5.052,4.1a5.284,5.284,0,0,1-1.444,3.383A3.3,3.3,0,0,1,426.675,292.505Zm-9-9.089v5.074h4.848a3.97,3.97,0,0,0,1.105-2.639c0-1.556-.744-2.435-3.157-2.435Zm6.878,9.224c0-1.241-.451-2.323-2.5-2.323h-4.375V295.1h3.7C424.127,295.1,424.555,294.06,424.555,292.64Z"/><path class="cls-1" d="M433.939,281.589h2.841l-.2,7.668h-2.435Z"/><path class="cls-1" d="M452.433,296.225c0,1.985-1.218,4.308-4.6,4.308v-1.691c1.51,0,2.435-.586,2.728-2.007a1.364,1.364,0,0,1-.811.293,2.031,2.031,0,0,1,.089-4.06C451.035,293.068,452.433,294.06,452.433,296.225Z"/><path class="cls-1" d="M477.921,281.589h2.842l-.2,7.668h-2.436Z"/><path class="cls-1" d="M488.387,289.392c0-5.954,3.654-8.029,6.991-8.029a8.805,8.805,0,0,1,4.4,1.016l-.586,1.781a7.415,7.415,0,0,0-3.992-.947c-2.278,0-4.691,1.421-4.691,6.066,0,4.6,1.962,6.022,4.691,6.022a8.02,8.02,0,0,0,3.992-1.06l.541,1.714a9.067,9.067,0,0,1-4.579,1.195C491.364,297.15,488.387,295.075,488.387,289.392Z"/><path class="cls-1" d="M507.242,281.589h2.842l-.2,7.668h-2.436Z"/><path class="cls-1" d="M525.737,296.225c0,1.985-1.218,4.308-4.6,4.308v-1.691c1.511,0,2.436-.586,2.729-2.007a1.365,1.365,0,0,1-.812.293,2.031,2.031,0,0,1,.09-4.06C524.338,293.068,525.737,294.06,525.737,296.225Z"/><path class="cls-1" d="M550.615,295.1a2.03,2.03,0,1,1,2.03,2.03A2.023,2.023,0,0,1,550.615,295.1Z"/><path class="cls-1" d="M565.276,295.1a2.03,2.03,0,1,1,2.03,2.03A2.023,2.023,0,0,1,565.276,295.1Z"/><path class="cls-1" d="M579.937,295.1a2.03,2.03,0,1,1,2.03,2.03A2.022,2.022,0,0,1,579.937,295.1Z"/><path class="cls-1" d="M599.041,296.225c0,1.985-1.218,4.308-4.6,4.308v-1.691c1.511,0,2.436-.586,2.729-2.007a1.37,1.37,0,0,1-.812.293,2.031,2.031,0,0,1,.09-4.06C597.642,293.068,599.041,294.06,599.041,296.225Z"/><path class="cls-1" d="M609.867,281.589h2.842l-.2,7.668H610.07Z"/><path class="cls-1" d="M626.107,289.911h-.384l-3.586,7.014h-2.232l4.307-8.029-4.194-7.307h2.187l3.609,6.383h.36l3.631-6.383h2.075l-4.217,7.261,4.33,8.075H629.76Z"/><path class="cls-1" d="M639.189,281.589h2.841l-.2,7.668h-2.435Z"/><path class="cls-1" d="M657.683,296.225c0,1.985-1.218,4.308-4.6,4.308v-1.691c1.51,0,2.435-.586,2.728-2.007a1.364,1.364,0,0,1-.811.293,2.031,2.031,0,0,1,.089-4.06C656.285,293.068,657.683,294.06,657.683,296.225Z"/><path class="cls-1" d="M683.171,281.589h2.842l-.2,7.668h-2.436Z"/><path class="cls-1" d="M700.29,295.075h4.33v1.85H693.885v-1.85h4.33V290.34l-5.458-8.751h2.323l2.977,4.962,1.128,2.255h.271l1.15-2.255,2.977-4.962h2.165l-5.458,8.751Z"/><path class="cls-1" d="M712.492,281.589h2.842l-.2,7.668H712.7Z"/><path class="cls-1" d="M730.987,296.225c0,1.985-1.218,4.308-4.6,4.308v-1.691c1.511,0,2.436-.586,2.729-2.007a1.365,1.365,0,0,1-.812.293,2.031,2.031,0,0,1,.09-4.06C729.588,293.068,730.987,294.06,730.987,296.225Z"/><path class="cls-1" d="M756.474,281.589h2.842l-.2,7.668h-2.436Z"/><path class="cls-1" d="M778.1,295.075v1.85h-11.1v-2.076l7.578-10.125.992-.97v-.316h-8.344v-1.849h10.644v2.075L770.3,293.79l-1.015.97v.315Z"/><path class="cls-1" d="M785.8,281.589h2.842l-.2,7.668H786Z"/><path class="cls-1" d="M804.043,299.18h-6.631v-1.849h4.556V281.183h-4.556v-1.849h6.631Z"/><path class="cls-2" d="M505.973,256.121v1.8H495.237v-1.8h4.353V239.432h2.03v16.689Z"/><path class="cls-2" d="M520,249.783l-.113,8.142H518.2v-1.489a5.852,5.852,0,0,1-4.352,1.737c-2.481-.023-3.879-1.331-3.879-3.406,0-2.39,2.458-3.45,7.961-3.878l.022-.88c.023-1.578-.157-2.91-2.616-2.91a9.753,9.753,0,0,0-4.33,1.06l-.541-1.691a10.893,10.893,0,0,1,5.029-1.2C519.573,245.272,520.024,247.348,520,249.783Zm-2.143,5.277.045-2.525c-4.15.338-5.908.924-5.908,2.188,0,1.037.721,1.646,2.119,1.668A5.54,5.54,0,0,0,517.859,255.06Z"/><path class="cls-2" d="M535.339,257.181a9.148,9.148,0,0,1-4.263.969c-3.383,0-3.991-1.849-3.946-4.51l.135-6.315h-3.044v-1.8h3.067l.068-2.931h2.1l-.384,2.931h5.819v1.8H529.34l-.135,6.089c-.045,1.579.157,2.909,1.939,2.909a8.069,8.069,0,0,0,3.653-.834Z"/><path class="cls-2" d="M550.18,256.121v1.8H539.445v-1.8h4.578v-8.8h-4.578v-1.8h6.608v10.6Zm-7.4-14.659a2.03,2.03,0,1,1,2.03,2.029A2.021,2.021,0,0,1,542.783,241.462Z"/><path class="cls-2" d="M564.255,249.377v8.548h-2.03v-8.254c0-1.827-.744-2.572-2.255-2.572a6.22,6.22,0,0,0-3.609,1.173v9.653h-2.029v-12.4h1.713V246.9a6.143,6.143,0,0,1,4.173-1.624C563.082,245.272,564.255,246.738,564.255,249.377Z"/><path class="cls-2" d="M579.321,242.589v9c0,4.735-2.255,6.562-5.48,6.562-3.4,0-5.345-1.781-5.345-6.4v-9.156h2.075v9.044c0,3.495.97,4.668,3.315,4.668,2.368,0,3.361-1.218,3.361-4.6v-9.111Z"/><path class="cls-2" d="M594.208,251.249c0,4.962-2.459,6.9-6.157,6.9a15.027,15.027,0,0,1-2.413-.18v4.014h-2.03V245.52h1.714V246.9a6.035,6.035,0,0,1,4.172-1.624C592.561,245.3,594.208,247.437,594.208,251.249Zm-2.053.225c0-2.819-.992-4.352-2.909-4.375a6.058,6.058,0,0,0-3.608,1.173v7.736a9.467,9.467,0,0,0,2.571.315C590.938,256.323,592.155,254.7,592.155,251.474Z"/><path class="cls-2" d="M608.868,251.249c0,4.962-2.458,6.9-6.156,6.9a15.04,15.04,0,0,1-2.414-.18v4.014h-2.029V245.52h1.714V246.9a6.035,6.035,0,0,1,4.172-1.624C607.222,245.3,608.868,247.437,608.868,251.249Zm-2.052.225c0-2.819-.993-4.352-2.909-4.375a6.063,6.063,0,0,0-3.609,1.173v7.736a9.472,9.472,0,0,0,2.571.315C605.6,256.323,606.816,254.7,606.816,251.474Z"/><path class="cls-2" d="M614.575,251.745c0,3.157,1.331,4.578,3.947,4.578a8.136,8.136,0,0,0,4.1-1.059l.541,1.691a9.189,9.189,0,0,1-4.691,1.195c-3.676,0-5.954-2.075-5.954-6.292s2.594-6.563,5.841-6.563c3.7,0,5.345,2.3,4.849,6.315h-8.638Zm.158-1.759h6.541c-.045-2.075-1.015-2.931-3.045-2.931A3.306,3.306,0,0,0,614.733,249.986Z"/><path class="cls-2" d="M638.144,256.121v1.8H627.409v-1.8h3.225v-10.6h1.8l-.045,2.391,5.5-2.684.023,2.008-5.255,2.548v6.338Z"/><path class="cls-2" d="M641.845,251.858c0-4.488,2.729-6.563,6.179-6.563a9.582,9.582,0,0,1,4.511,1.015l-.587,1.827a8.127,8.127,0,0,0-4.1-1.015c-2.391,0-3.924,1.421-3.924,4.623,0,3.157,1.218,4.578,3.924,4.578a7.728,7.728,0,0,0,4.1-1.149l.542,1.781a9.192,9.192,0,0,1-4.691,1.195C644.01,258.15,641.845,256.075,641.845,251.858Z"/><path class="cls-2" d="M666.609,249.783l-.113,8.142h-1.691v-1.489a5.852,5.852,0,0,1-4.353,1.737c-2.48-.023-3.879-1.331-3.879-3.406,0-2.39,2.458-3.45,7.961-3.878l.023-.88c.022-1.578-.158-2.91-2.616-2.91a9.758,9.758,0,0,0-4.331,1.06l-.541-1.691a10.894,10.894,0,0,1,5.03-1.2C666.181,245.272,666.632,247.348,666.609,249.783Zm-2.142,5.277.045-2.525c-4.15.338-5.909.924-5.909,2.188,0,1.037.722,1.646,2.12,1.668A5.54,5.54,0,0,0,664.467,255.06Z"/><path class="cls-2" d="M671.234,257.2l.609-1.895a9.533,9.533,0,0,0,4.533,1.038c2.3,0,3.4-.541,3.4-1.692,0-2.5-8.321-1.669-8.321-5.773,0-2.323,2.052-3.586,5.3-3.586a11.533,11.533,0,0,1,4.488.88l-.586,1.849a8.789,8.789,0,0,0-3.9-.925c-2.142,0-3.247.564-3.247,1.556,0,2.413,8.322,1.579,8.322,5.774,0,2.571-2.278,3.721-5.548,3.721A11.75,11.75,0,0,1,671.234,257.2Z"/><path class="cls-2" d="M687.879,251.745c0,3.157,1.331,4.578,3.947,4.578a8.133,8.133,0,0,0,4.1-1.059l.542,1.691a9.192,9.192,0,0,1-4.691,1.195c-3.676,0-5.954-2.075-5.954-6.292s2.593-6.563,5.841-6.563c3.7,0,5.345,2.3,4.849,6.315h-8.638Zm.158-1.759h6.54c-.045-2.075-1.014-2.931-3.044-2.931A3.306,3.306,0,0,0,688.037,249.986Z"/><path class="cls-2" d="M202.807,165.121v1.8H192.071v-1.8h4.353V148.432h2.03v16.689Z"/><path class="cls-2" d="M216.836,158.783l-.113,8.142h-1.692v-1.489a5.852,5.852,0,0,1-4.352,1.737c-2.481-.023-3.879-1.331-3.879-3.406,0-2.39,2.458-3.45,7.961-3.878l.022-.88c.023-1.578-.157-2.91-2.616-2.91a9.753,9.753,0,0,0-4.33,1.06l-.541-1.691a10.893,10.893,0,0,1,5.029-1.2C216.407,154.272,216.858,156.348,216.836,158.783Zm-2.143,5.277.045-2.525c-4.15.338-5.908.924-5.908,2.188,0,1.037.721,1.646,2.119,1.668A5.54,5.54,0,0,0,214.693,164.06Z"/><path class="cls-2" d="M232.173,166.181a9.148,9.148,0,0,1-4.263.969c-3.383,0-3.991-1.849-3.946-4.51l.135-6.315h-3.044v-1.8h3.067l.068-2.931h2.1l-.384,2.931h5.819v1.8h-5.548l-.135,6.089c-.045,1.579.157,2.909,1.939,2.909a8.069,8.069,0,0,0,3.653-.834Z"/><path class="cls-2" d="M247.014,165.121v1.8H236.279v-1.8h4.578v-8.8h-4.578v-1.8h6.608v10.6Zm-7.4-14.659a2.03,2.03,0,1,1,2.03,2.029A2.021,2.021,0,0,1,239.617,150.462Z"/><path class="cls-2" d="M261.089,158.377v8.548h-2.03v-8.254c0-1.827-.744-2.572-2.255-2.572a6.22,6.22,0,0,0-3.609,1.173v9.653h-2.029v-12.4h1.713V155.9a6.143,6.143,0,0,1,4.173-1.624C259.916,154.272,261.089,155.738,261.089,158.377Z"/><path class="cls-2" d="M273.336,161.67h-5.277l-1.534,5.255h-2.1l4.668-15.336h3.293l4.668,15.336h-2.165Zm-.541-1.826-1.24-4.151-.542-2.3h-.654l-.541,2.3-1.218,4.151Z"/><path class="cls-2" d="M290.771,165.121v1.8H280.036v-1.8h4.353V148.432h2.029v16.689Z"/><path class="cls-2" d="M305.7,160.249c0,4.962-2.458,6.9-6.157,6.9a15.036,15.036,0,0,1-2.413-.18v4.014H295.1V154.52h1.713V155.9a6.039,6.039,0,0,1,4.173-1.624C304.056,154.295,305.7,156.437,305.7,160.249Zm-2.052.225c0-2.819-.993-4.352-2.909-4.375a6.063,6.063,0,0,0-3.609,1.173v7.736a9.472,9.472,0,0,0,2.571.315C302.432,165.323,303.65,163.7,303.65,160.474Z"/><path class="cls-2" d="M319.732,158.377v8.548H317.7v-8.254c0-1.827-.745-2.572-2.256-2.572a6.217,6.217,0,0,0-3.608,1.173v9.653h-2.03V148.432h2.03v5.413l-.181,1.939a6.116,6.116,0,0,1,4.037-1.512C318.559,154.272,319.732,155.738,319.732,158.377Z"/><path class="cls-2" d="M334.121,158.783l-.113,8.142h-1.691v-1.489a5.852,5.852,0,0,1-4.353,1.737c-2.481-.023-3.878-1.331-3.878-3.406,0-2.39,2.458-3.45,7.96-3.878l.023-.88c.022-1.578-.158-2.91-2.616-2.91a9.753,9.753,0,0,0-4.33,1.06l-.541-1.691a10.886,10.886,0,0,1,5.029-1.2C333.693,154.272,334.144,156.348,334.121,158.783Zm-2.142,5.277.045-2.525c-4.15.338-5.909.924-5.909,2.188,0,1.037.722,1.646,2.12,1.668A5.54,5.54,0,0,0,331.979,164.06Z"/><path class="cls-2" d="M349.685,160.249c0,4.962-2.459,6.9-6.157,6.9a13.9,13.9,0,0,1-4.443-.654V148.432h2.03v5.413l-.181,1.917a6.083,6.083,0,0,1,4.037-1.49C348.038,154.295,349.685,156.437,349.685,160.249Zm-2.053.225c0-2.819-.992-4.352-2.909-4.375a6.061,6.061,0,0,0-3.608,1.173v7.736a9.467,9.467,0,0,0,2.571.315C346.415,165.323,347.632,163.7,347.632,160.474Z"/><path class="cls-2" d="M355.392,160.745c0,3.157,1.33,4.578,3.946,4.578a8.134,8.134,0,0,0,4.1-1.059l.541,1.691a9.185,9.185,0,0,1-4.69,1.195c-3.677,0-5.955-2.075-5.955-6.292s2.594-6.563,5.842-6.563c3.7,0,5.344,2.3,4.848,6.315h-8.637Zm.158-1.759h6.54c-.045-2.075-1.015-2.931-3.045-2.931A3.305,3.305,0,0,0,355.55,158.986Z"/><path class="cls-2" d="M378.78,166.181a9.144,9.144,0,0,1-4.262.969c-3.383,0-3.992-1.849-3.947-4.51l.136-6.315h-3.045v-1.8h3.067l.068-2.931h2.1l-.383,2.931h5.818v1.8h-5.548l-.135,6.089c-.045,1.579.158,2.909,1.94,2.909a8.075,8.075,0,0,0,3.653-.834Z"/><path class="cls-2" d="M386,165.1a2.03,2.03,0,1,1,2.029,2.03A2.022,2.022,0,0,1,386,165.1Z"/><path class="cls-1" d="M399.374,160.745c0,3.157,1.33,4.578,3.946,4.578a8.134,8.134,0,0,0,4.105-1.059l.541,1.691a9.186,9.186,0,0,1-4.691,1.195c-3.676,0-5.954-2.075-5.954-6.292s2.594-6.563,5.842-6.563c3.7,0,5.344,2.3,4.848,6.315h-8.637Zm.158-1.759h6.54c-.045-2.075-1.015-2.931-3.045-2.931A3.305,3.305,0,0,0,399.532,158.986Z"/><path class="cls-1" d="M417.44,161.558h-.248l-3.315,5.367h-2.233l4.24-6.5-4.172-5.91h2.232l3.315,4.85h.294l3.315-4.85h2.12l-4.172,5.865,4.239,6.54h-2.232Z"/><path class="cls-1" d="M437.423,166.181a9.148,9.148,0,0,1-4.263.969c-3.383,0-3.991-1.849-3.946-4.51l.135-6.315h-3.044v-1.8h3.067l.068-2.931h2.1l-.384,2.931h5.819v1.8h-5.548l-.135,6.089c-.045,1.579.157,2.909,1.939,2.909a8.069,8.069,0,0,0,3.653-.834Z"/><path class="cls-1" d="M443.356,160.745c0,3.157,1.331,4.578,3.947,4.578a8.13,8.13,0,0,0,4.1-1.059l.542,1.691a9.192,9.192,0,0,1-4.691,1.195c-3.676,0-5.954-2.075-5.954-6.292s2.594-6.563,5.841-6.563c3.7,0,5.345,2.3,4.849,6.315h-8.638Zm.158-1.759h6.54c-.045-2.075-1.014-2.931-3.044-2.931A3.306,3.306,0,0,0,443.514,158.986Z"/><path class="cls-1" d="M466.339,158.377v8.548h-2.03v-8.254c0-1.827-.744-2.572-2.255-2.572a6.22,6.22,0,0,0-3.609,1.173v9.653h-2.029v-12.4h1.713V155.9a6.143,6.143,0,0,1,4.173-1.624C465.166,154.272,466.339,155.738,466.339,158.377Z"/><path class="cls-1" d="M480.954,148.432v18.493H479.2v-1.331a5.98,5.98,0,0,1-4.127,1.579c-3.067-.023-4.713-2.165-4.713-5.977,0-4.961,2.458-6.9,6.156-6.9a15.134,15.134,0,0,1,2.413.18v-6.043Zm-2.03,15.742v-7.737a9.47,9.47,0,0,0-2.57-.315c-2.729,0-3.947,1.624-3.947,4.849,0,2.819.992,4.352,2.909,4.375A6.057,6.057,0,0,0,478.924,164.174Z"/><path class="cls-1" d="M487.631,159.257c0-8.254,2.617-9.923,6.7-9.923v1.849c-3.089,0-4.555,1.06-4.555,7.848,0,7.239,1.466,8.3,4.555,8.3v1.849C490.248,169.18,487.631,167.736,487.631,159.257Z"/><path class="cls-2" d="M510.682,165.121v1.8H499.946v-1.8H504.3V148.432h2.03v16.689Z"/><path class="cls-2" d="M524.711,158.783l-.113,8.142h-1.692v-1.489a5.852,5.852,0,0,1-4.352,1.737c-2.481-.023-3.879-1.331-3.879-3.406,0-2.39,2.458-3.45,7.961-3.878l.022-.88c.023-1.578-.157-2.91-2.616-2.91a9.753,9.753,0,0,0-4.33,1.06l-.541-1.691a10.893,10.893,0,0,1,5.029-1.2C524.282,154.272,524.733,156.348,524.711,158.783Zm-2.143,5.277.045-2.525c-4.15.338-5.908.924-5.908,2.188,0,1.037.721,1.646,2.119,1.668A5.54,5.54,0,0,0,522.568,164.06Z"/><path class="cls-2" d="M540.048,166.181a9.148,9.148,0,0,1-4.263.969c-3.383,0-3.991-1.849-3.946-4.51l.135-6.315H528.93v-1.8H532l.068-2.931h2.1l-.384,2.931H539.6v1.8h-5.548l-.135,6.089c-.045,1.579.157,2.909,1.939,2.909a8.069,8.069,0,0,0,3.653-.834Z"/><path class="cls-2" d="M554.889,165.121v1.8H544.154v-1.8h4.579v-8.8h-4.579v-1.8h6.608v10.6Zm-7.4-14.659a2.03,2.03,0,1,1,2.03,2.029A2.021,2.021,0,0,1,547.492,150.462Z"/><path class="cls-2" d="M568.964,158.377v8.548h-2.03v-8.254c0-1.827-.744-2.572-2.255-2.572a6.22,6.22,0,0,0-3.609,1.173v9.653h-2.029v-12.4h1.713V155.9a6.143,6.143,0,0,1,4.173-1.624C567.791,154.272,568.964,155.738,568.964,158.377Z"/><path class="cls-2" d="M584.03,151.589v9c0,4.735-2.255,6.562-5.48,6.562-3.4,0-5.345-1.781-5.345-6.405v-9.156h2.075v9.044c0,3.495.97,4.668,3.315,4.668,2.368,0,3.361-1.218,3.361-4.6v-9.111Z"/><path class="cls-2" d="M598.917,160.249c0,4.962-2.459,6.9-6.157,6.9a15.018,15.018,0,0,1-2.413-.18v4.014h-2.03V154.52h1.714V155.9a6.035,6.035,0,0,1,4.172-1.624C597.27,154.295,598.917,156.437,598.917,160.249Zm-2.053.225c0-2.819-.992-4.352-2.909-4.375a6.058,6.058,0,0,0-3.608,1.173v7.736a9.467,9.467,0,0,0,2.571.315C595.647,165.323,596.864,163.7,596.864,160.474Z"/><path class="cls-2" d="M613.577,160.249c0,4.962-2.458,6.9-6.157,6.9a15.036,15.036,0,0,1-2.413-.18v4.014h-2.029V154.52h1.713V155.9a6.039,6.039,0,0,1,4.173-1.624C611.931,154.295,613.577,156.437,613.577,160.249Zm-2.052.225c0-2.819-.993-4.352-2.909-4.375a6.063,6.063,0,0,0-3.609,1.173v7.736a9.472,9.472,0,0,0,2.571.315C610.307,165.323,611.525,163.7,611.525,160.474Z"/><path class="cls-2" d="M619.284,160.745c0,3.157,1.331,4.578,3.947,4.578a8.136,8.136,0,0,0,4.105-1.059l.541,1.691a9.189,9.189,0,0,1-4.691,1.195c-3.676,0-5.954-2.075-5.954-6.292s2.594-6.563,5.841-6.563c3.7,0,5.345,2.3,4.849,6.315h-8.638Zm.158-1.759h6.541c-.045-2.075-1.015-2.931-3.045-2.931A3.306,3.306,0,0,0,619.442,158.986Z"/><path class="cls-2" d="M642.853,165.121v1.8H632.118v-1.8h3.225v-10.6h1.805l-.045,2.391,5.5-2.684.023,2.008-5.255,2.548v6.338Z"/><path class="cls-2" d="M646.554,160.858c0-4.488,2.729-6.563,6.179-6.563a9.582,9.582,0,0,1,4.511,1.015l-.587,1.827a8.127,8.127,0,0,0-4.1-1.015c-2.391,0-3.924,1.421-3.924,4.623,0,3.157,1.218,4.578,3.924,4.578a7.728,7.728,0,0,0,4.1-1.149l.542,1.781a9.192,9.192,0,0,1-4.691,1.195C648.719,167.15,646.554,165.075,646.554,160.858Z"/><path class="cls-2" d="M671.318,158.783l-.113,8.142h-1.691v-1.489a5.852,5.852,0,0,1-4.353,1.737c-2.48-.023-3.879-1.331-3.879-3.406,0-2.39,2.458-3.45,7.961-3.878l.023-.88c.022-1.578-.158-2.91-2.617-2.91a9.757,9.757,0,0,0-4.33,1.06l-.541-1.691a10.894,10.894,0,0,1,5.03-1.2C670.89,154.272,671.341,156.348,671.318,158.783Zm-2.142,5.277.045-2.525c-4.15.338-5.909.924-5.909,2.188,0,1.037.722,1.646,2.12,1.668A5.54,5.54,0,0,0,669.176,164.06Z"/><path class="cls-2" d="M675.943,166.2l.609-1.9a9.533,9.533,0,0,0,4.533,1.038c2.3,0,3.4-.541,3.4-1.692,0-2.5-8.321-1.669-8.321-5.773,0-2.323,2.052-3.586,5.3-3.586a11.536,11.536,0,0,1,4.488.88l-.586,1.849a8.789,8.789,0,0,0-3.9-.925c-2.142,0-3.247.564-3.247,1.556,0,2.413,8.322,1.579,8.322,5.774,0,2.571-2.278,3.721-5.548,3.721A11.75,11.75,0,0,1,675.943,166.2Z"/><path class="cls-2" d="M692.588,160.745c0,3.157,1.331,4.578,3.947,4.578a8.133,8.133,0,0,0,4.1-1.059l.542,1.691a9.192,9.192,0,0,1-4.691,1.195c-3.676,0-5.954-2.075-5.954-6.292s2.593-6.563,5.841-6.563c3.7,0,5.345,2.3,4.849,6.315h-8.638Zm.158-1.759h6.54c-.045-2.075-1.014-2.931-3.044-2.931A3.306,3.306,0,0,0,692.746,158.986Z"/><path class="cls-1" d="M713.586,159.257c0,8.254-2.616,9.923-6.7,9.923v-1.849c3.09,0,4.555-1.061,4.555-7.849,0-7.239-1.465-8.3-4.555-8.3v-1.849C710.97,149.334,713.586,150.777,713.586,159.257Z"/><path class="cls-2" d="M273.862,302.783a1.017,1.017,0,0,0,.131-.073l.261-.152.178-.108a.616.616,0,0,0-.1-.39.644.644,0,0,1-.156-.246.747.747,0,0,0-.118-.236.869.869,0,0,1-.155-.247.857.857,0,0,0-.114-.238.754.754,0,0,1-.053-.142.907.907,0,0,0-.134-.326,3.011,3.011,0,0,1-.215-.3.532.532,0,0,1-.049-.1,1.318,1.318,0,0,0-.056-.14,1.912,1.912,0,0,0-.216-.413c-.012-.012,0-.036-.008-.052s-.025-.043-.036-.065-.036-.048-.034-.08a.4.4,0,0,0-.109-.268.533.533,0,0,1-.152-.3c0-.027-.025-.044-.039-.064-.042-.06-.088-.116-.125-.178a.522.522,0,0,1-.107-.282.243.243,0,0,0-.109-.2.2.2,0,0,1-.052-.056c-.041-.081-.018-.193-.126-.243-.042-.02-.007-.089-.033-.122a3.335,3.335,0,0,1-.288-.515c-.013-.026-.023-.054-.034-.082a.4.4,0,0,0-.049-.129.362.362,0,0,1-.081-.254.117.117,0,0,0-.047-.086.818.818,0,0,1-.21-.274,1,1,0,0,0-.118-.236c-.065-.094-.134-.187-.2-.281a.19.19,0,0,1-.041-.078.826.826,0,0,0-.182-.442.152.152,0,0,1-.035-.176c.017-.04,0-.062-.036-.078a.349.349,0,0,1-.178-.233c-.035-.1-.019-.221-.14-.277-.017-.008-.011-.032-.017-.047a1.426,1.426,0,0,0-.056-.141c-.021-.041-.062-.073-.075-.117a1.076,1.076,0,0,0-.162-.325c-.015-.02-.039-.038-.037-.065.007-.1-.063-.166-.11-.241a.637.637,0,0,1-.051-.1.931.931,0,0,0-.067-.163c-.119-.176-.244-.348-.37-.52a.275.275,0,0,1-.057-.2.31.31,0,0,0-.033-.136c-.012-.032-.049-.053-.048-.089,0-.105-.069-.172-.119-.25-.018-.028-.051-.051-.051-.087,0-.074-.016-.139-.109-.167-.025-.007-.024-.034-.032-.053-.023-.054-.043-.109-.069-.162-.014-.03-.044-.053-.056-.085a1.078,1.078,0,0,1-.062-.221c-.006-.049-.01-.1-.066-.119a.053.053,0,0,1-.036-.038.345.345,0,0,0-.192-.238c-.065-.038-.141-.086-.09-.176.1-.174,0-.254-.093-.338a.212.212,0,0,1-.076-.113.411.411,0,0,0-.09-.221.4.4,0,0,1-.082-.209.132.132,0,0,0-.071-.088.124.124,0,0,1-.078-.114.159.159,0,0,0-.027-.085c-.031-.05-.078-.093-.019-.181.01-.015.008-.035-.006-.037-.12-.019-.06-.138-.165-.165a.348.348,0,0,0-.161-.239s0-.007,0-.012a.18.18,0,0,0-.076-.173c-.067-.064-.011-.19-.127-.229-.012,0,0-.028.01-.044.042-.084,0-.13-.066-.159a.114.114,0,0,1-.08-.125c0-.042.008-.091-.027-.111a.412.412,0,0,1-.173-.277c-.017-.055.033-.133.009-.18s-.1-.069-.13-.114c-.041-.062-.012-.161-.159-.165-.021,0-.014-.029-.02-.044a.394.394,0,0,0-.034-.082.622.622,0,0,1-.084-.2,1.794,1.794,0,0,1-.065-.3.062.062,0,0,0-.034-.053c-.122-.06-.107-.188-.16-.283-.02-.036-.018-.081-.069-.1a.236.236,0,0,1-.083-.069.493.493,0,0,1-.126-.274c-.006-.034-.042-.056-.037-.094a.517.517,0,0,1,.068-.124c-.163,0-.165,0-.177-.038-.029-.088-.055-.178-.084-.266-.006-.016-.008-.036-.028-.042-.1-.035-.086-.125-.124-.189s-.007-.126-.092-.148c-.015,0-.01-.023-.013-.035-.022-.082-.043-.165-.068-.246a.067.067,0,0,0-.044-.047.1.1,0,0,1-.074-.1.093.093,0,0,0-.057-.083.086.086,0,0,1-.053-.111.161.161,0,0,0-.074-.186.361.361,0,0,1-.133-.254.146.146,0,0,0-.073-.1.44.44,0,0,1-.219-.282.852.852,0,0,0-.11-.227,1.254,1.254,0,0,1-.083-.142,1.543,1.543,0,0,0-.066-.163,3.161,3.161,0,0,0-.193-.27.416.416,0,0,1-.112-.3.155.155,0,0,0-.01-.078c-.075-.146-.162-.285-.226-.436a1.579,1.579,0,0,0-.188-.371c-.01-.013,0-.036-.007-.052a.933.933,0,0,0-.088-.264,2.186,2.186,0,0,0-.271-.4.271.271,0,0,1-.05-.129c-.02-.064-.016-.142-.063-.191a.182.182,0,0,1-.052-.112c-.007-.057-.008-.115-.085-.138-.035-.01-.04-.045-.05-.072a.543.543,0,0,0-.033-.123.124.124,0,0,0-.108-.066c-.089,0-.046-.073-.113-.076-.111,0-.157-.061-.294-.049a.2.2,0,0,1-.192-.072.385.385,0,0,0-.055-.071.125.125,0,0,0-.029-.011c-.159.076-.317.154-.473.238a3.432,3.432,0,0,1-.439.215,1.008,1.008,0,0,0-.13.073l-.261.152-.178.108a.6.6,0,0,0,.1.39.637.637,0,0,1,.155.246.75.75,0,0,0,.119.236.869.869,0,0,1,.155.247.854.854,0,0,0,.113.238.713.713,0,0,1,.053.142.945.945,0,0,0,.134.326,2.975,2.975,0,0,1,.216.3.529.529,0,0,1,.048.1,1.079,1.079,0,0,0,.057.14,1.844,1.844,0,0,0,.215.413c.012.013,0,.036.009.052a.593.593,0,0,0,.036.065c.012.026.036.048.033.08a.4.4,0,0,0,.11.268.531.531,0,0,1,.151.3c0,.027.025.044.04.065.041.059.088.116.124.178a.508.508,0,0,1,.107.281.244.244,0,0,0,.109.2.186.186,0,0,1,.052.057c.042.08.018.192.126.243.042.019.008.088.033.121a3.263,3.263,0,0,1,.288.515.645.645,0,0,1,.034.082.4.4,0,0,0,.049.129.36.36,0,0,1,.081.254.119.119,0,0,0,.047.086.845.845,0,0,1,.211.274.984.984,0,0,0,.118.236c.065.1.133.187.2.281a.187.187,0,0,1,.041.079.823.823,0,0,0,.183.442.152.152,0,0,1,.035.176c-.017.039,0,.061.036.077a.355.355,0,0,1,.178.233c.034.1.018.222.14.278.017.008.011.031.017.047a1.4,1.4,0,0,0,.055.14c.022.041.063.073.076.117a1.043,1.043,0,0,0,.162.325c.015.021.039.038.037.066-.008.1.062.165.11.24a.8.8,0,0,1,.051.1.9.9,0,0,0,.066.163c.12.176.245.349.371.521a.283.283,0,0,1,.057.195.3.3,0,0,0,.032.137c.012.031.05.052.049.088,0,.1.068.172.119.25.018.028.05.051.051.087,0,.074.016.14.109.167.025.007.023.034.031.053.024.054.044.11.069.162.015.031.045.053.056.085a.965.965,0,0,1,.062.221c.006.049.01.1.066.12a.05.05,0,0,1,.036.037.344.344,0,0,0,.193.238c.065.039.141.086.09.176-.1.175,0,.255.092.338a.2.2,0,0,1,.076.113.411.411,0,0,0,.09.221.4.4,0,0,1,.083.209.13.13,0,0,0,.071.089.119.119,0,0,1,.077.114.162.162,0,0,0,.028.084c.03.05.078.093.019.181-.01.015-.009.035.006.037.12.019.06.139.165.165a.348.348,0,0,0,.161.239s0,.008,0,.012a.179.179,0,0,0,.075.173c.068.064.011.19.128.229.011,0,0,.028-.01.044-.042.084,0,.13.066.159a.115.115,0,0,1,.079.126c0,.042-.008.09.028.111a.41.41,0,0,1,.172.277c.017.055-.033.132-.009.179s.1.069.13.114c.042.062.013.162.159.165.022,0,.015.029.021.045a.444.444,0,0,0,.033.081.629.629,0,0,1,.085.2,1.663,1.663,0,0,1,.064.3.062.062,0,0,0,.035.052c.122.06.107.188.159.283.02.036.019.081.07.1a.258.258,0,0,1,.083.069.5.5,0,0,1,.125.274c.007.034.042.056.037.094a.462.462,0,0,1-.067.124c.162,0,.165,0,.177.038.029.088.055.178.084.266,0,.016.008.036.027.043.1.034.086.124.124.189.03.049.007.125.093.147.015,0,.009.023.012.035.023.082.043.165.068.246a.069.069,0,0,0,.044.047.1.1,0,0,1,.074.1.093.093,0,0,0,.057.083.085.085,0,0,1,.053.111.162.162,0,0,0,.075.186.361.361,0,0,1,.133.254.143.143,0,0,0,.072.1.441.441,0,0,1,.22.283.79.79,0,0,0,.11.226,1.187,1.187,0,0,1,.082.142c.026.053.036.113.067.163a2.954,2.954,0,0,0,.193.27.415.415,0,0,1,.111.295.165.165,0,0,0,.011.078c.074.146.162.286.226.436a1.6,1.6,0,0,0,.187.371c.01.014,0,.036.007.052a.972.972,0,0,0,.088.265,2.2,2.2,0,0,0,.272.4.286.286,0,0,1,.05.129c.02.064.015.142.063.191a.2.2,0,0,1,.052.113c.007.056.007.114.084.137.035.011.04.045.05.072a.53.53,0,0,0,.034.123.123.123,0,0,0,.107.066c.089,0,.046.073.114.076.111.006.157.061.293.049a.2.2,0,0,1,.193.073.333.333,0,0,0,.055.07c.006.006.02.007.029.012.158-.077.317-.154.472-.239A3.5,3.5,0,0,1,273.862,302.783Z"/><path class="cls-2" d="M323.262,300.183a1.017,1.017,0,0,0,.131-.073l.261-.152.178-.108a.616.616,0,0,0-.1-.39.644.644,0,0,1-.156-.246.747.747,0,0,0-.118-.236.869.869,0,0,1-.155-.247.857.857,0,0,0-.114-.238.754.754,0,0,1-.053-.142.907.907,0,0,0-.134-.326,3.011,3.011,0,0,1-.215-.3.532.532,0,0,1-.049-.1,1.318,1.318,0,0,0-.056-.14,1.912,1.912,0,0,0-.216-.413c-.012-.012,0-.036-.008-.052s-.025-.043-.036-.065-.036-.048-.034-.08a.4.4,0,0,0-.109-.268.533.533,0,0,1-.152-.3c0-.027-.025-.044-.039-.064-.042-.06-.088-.116-.125-.178a.522.522,0,0,1-.107-.282.243.243,0,0,0-.109-.2.2.2,0,0,1-.052-.056c-.041-.081-.018-.193-.126-.243-.042-.02-.007-.089-.033-.122a3.335,3.335,0,0,1-.288-.515c-.013-.026-.023-.054-.034-.082a.4.4,0,0,0-.049-.129.362.362,0,0,1-.081-.254.117.117,0,0,0-.047-.086.818.818,0,0,1-.21-.274,1,1,0,0,0-.118-.236c-.065-.094-.134-.187-.2-.281a.19.19,0,0,1-.041-.078.826.826,0,0,0-.182-.442.152.152,0,0,1-.035-.176c.017-.04,0-.062-.036-.078a.349.349,0,0,1-.178-.233c-.035-.1-.019-.221-.14-.277-.017-.008-.011-.032-.017-.047a1.426,1.426,0,0,0-.056-.141c-.021-.041-.062-.073-.075-.117a1.076,1.076,0,0,0-.162-.325c-.015-.02-.039-.038-.037-.065.007-.1-.063-.166-.11-.241a.637.637,0,0,1-.051-.1.931.931,0,0,0-.067-.163c-.119-.176-.244-.348-.37-.52a.275.275,0,0,1-.057-.2.31.31,0,0,0-.033-.136c-.012-.032-.049-.053-.048-.089,0-.105-.069-.172-.119-.25-.018-.028-.051-.051-.051-.087,0-.074-.016-.139-.109-.167-.025-.007-.024-.034-.032-.053-.023-.054-.043-.109-.069-.162-.014-.03-.044-.053-.056-.085a1.078,1.078,0,0,1-.062-.221c-.006-.049-.01-.1-.066-.119a.053.053,0,0,1-.036-.038.345.345,0,0,0-.192-.238c-.065-.038-.141-.086-.09-.176.1-.174,0-.254-.093-.338a.212.212,0,0,1-.076-.113.411.411,0,0,0-.09-.221.4.4,0,0,1-.082-.209.132.132,0,0,0-.071-.088.124.124,0,0,1-.078-.114.159.159,0,0,0-.027-.085c-.031-.05-.078-.093-.019-.181.01-.015.008-.035-.006-.037-.12-.019-.06-.138-.165-.165a.348.348,0,0,0-.161-.239s0-.007,0-.012a.18.18,0,0,0-.076-.173c-.067-.064-.011-.19-.127-.229-.012,0,0-.028.01-.044.042-.084,0-.13-.066-.159a.114.114,0,0,1-.08-.125c0-.042.008-.091-.027-.111a.412.412,0,0,1-.173-.277c-.017-.055.033-.133.009-.18s-.1-.069-.13-.114c-.041-.062-.012-.161-.159-.165-.021,0-.014-.029-.02-.044a.394.394,0,0,0-.034-.082.622.622,0,0,1-.084-.2,1.794,1.794,0,0,1-.065-.3.062.062,0,0,0-.034-.053c-.122-.06-.107-.188-.16-.283-.02-.036-.018-.081-.069-.1a.236.236,0,0,1-.083-.069.493.493,0,0,1-.126-.274c-.006-.034-.042-.056-.037-.094a.517.517,0,0,1,.068-.124c-.163,0-.165,0-.177-.038-.029-.088-.055-.178-.084-.266-.006-.016-.008-.036-.028-.042-.1-.035-.086-.125-.124-.189s-.007-.126-.092-.148c-.015,0-.01-.023-.013-.035-.022-.082-.043-.165-.068-.246a.067.067,0,0,0-.044-.047.1.1,0,0,1-.074-.1.093.093,0,0,0-.057-.083.086.086,0,0,1-.053-.111.161.161,0,0,0-.074-.186.361.361,0,0,1-.133-.254.146.146,0,0,0-.073-.1.44.44,0,0,1-.219-.282.852.852,0,0,0-.11-.227,1.254,1.254,0,0,1-.083-.142,1.543,1.543,0,0,0-.066-.163,3.161,3.161,0,0,0-.193-.27.416.416,0,0,1-.112-.295.155.155,0,0,0-.01-.078c-.075-.146-.162-.285-.226-.436a1.579,1.579,0,0,0-.188-.371c-.01-.013,0-.036-.007-.052a.933.933,0,0,0-.088-.264,2.186,2.186,0,0,0-.271-.4.271.271,0,0,1-.05-.129c-.02-.064-.016-.142-.063-.191a.182.182,0,0,1-.052-.112c-.007-.057-.008-.115-.085-.138-.035-.01-.04-.045-.05-.072a.543.543,0,0,0-.033-.123.124.124,0,0,0-.108-.066c-.089,0-.046-.073-.113-.076-.111,0-.157-.061-.294-.049a.2.2,0,0,1-.192-.072.385.385,0,0,0-.055-.071.125.125,0,0,0-.029-.011c-.159.076-.317.154-.473.238a3.432,3.432,0,0,1-.439.215,1.008,1.008,0,0,0-.13.073l-.261.152-.178.108a.6.6,0,0,0,.1.39.637.637,0,0,1,.155.246.75.75,0,0,0,.119.236.869.869,0,0,1,.155.247.854.854,0,0,0,.113.238.713.713,0,0,1,.053.142.945.945,0,0,0,.134.326,2.975,2.975,0,0,1,.216.3.529.529,0,0,1,.048.1,1.079,1.079,0,0,0,.057.14,1.844,1.844,0,0,0,.215.413c.012.013,0,.036.009.052a.593.593,0,0,0,.036.065c.012.026.036.048.033.08a.4.4,0,0,0,.11.268.531.531,0,0,1,.151.3c0,.027.025.044.04.065.041.059.088.116.124.178a.508.508,0,0,1,.107.281.244.244,0,0,0,.109.2.186.186,0,0,1,.052.057c.042.08.018.192.126.243.042.019.008.088.033.121a3.263,3.263,0,0,1,.288.515.645.645,0,0,1,.034.082.4.4,0,0,0,.049.129.36.36,0,0,1,.081.254.119.119,0,0,0,.047.086.845.845,0,0,1,.211.274.984.984,0,0,0,.118.236c.065.1.133.187.2.281a.187.187,0,0,1,.041.079.823.823,0,0,0,.183.442.152.152,0,0,1,.035.176c-.017.039,0,.061.036.077a.355.355,0,0,1,.178.233c.034.1.018.222.14.278.017.008.011.031.017.047a1.4,1.4,0,0,0,.055.14c.022.041.063.073.076.117a1.043,1.043,0,0,0,.162.325c.015.021.039.038.037.066-.008.1.062.165.11.24a.8.8,0,0,1,.051.1.9.9,0,0,0,.066.163c.12.176.245.349.371.521a.283.283,0,0,1,.057.2.3.3,0,0,0,.032.137c.012.031.05.052.049.088,0,.105.068.172.119.25.018.028.05.051.051.087,0,.074.016.14.109.167.025.007.023.034.031.053.024.054.044.11.069.162.015.031.045.053.056.085a.965.965,0,0,1,.062.221c.006.049.01.1.066.12a.05.05,0,0,1,.036.037.344.344,0,0,0,.193.238c.065.039.141.086.09.176-.1.175,0,.255.092.338a.2.2,0,0,1,.076.113.411.411,0,0,0,.09.221.4.4,0,0,1,.083.209.13.13,0,0,0,.071.089.119.119,0,0,1,.077.114.162.162,0,0,0,.028.084c.03.05.078.093.019.181-.01.015-.009.035.006.037.12.019.06.139.165.165a.348.348,0,0,0,.161.239s0,.008,0,.012a.179.179,0,0,0,.075.173c.068.064.011.19.128.229.011,0,0,.028-.01.044-.042.084,0,.13.066.159a.115.115,0,0,1,.079.126c0,.042-.008.09.028.111a.41.41,0,0,1,.172.277c.017.055-.033.132-.009.179s.1.069.13.114c.042.062.013.162.159.165.022,0,.015.029.021.045a.444.444,0,0,0,.033.081.629.629,0,0,1,.085.2,1.663,1.663,0,0,1,.064.3.062.062,0,0,0,.035.052c.122.06.107.188.159.283.02.036.019.081.07.1a.258.258,0,0,1,.083.069.5.5,0,0,1,.125.274c.007.034.042.056.037.094a.462.462,0,0,1-.067.124c.162,0,.165,0,.177.038.029.088.055.178.084.266,0,.016.008.036.027.043.1.034.086.124.124.189.03.049.007.125.093.147.015,0,.009.023.012.035.023.082.043.165.068.246a.069.069,0,0,0,.044.047.1.1,0,0,1,.074.1.093.093,0,0,0,.057.083.085.085,0,0,1,.053.111.162.162,0,0,0,.075.186.361.361,0,0,1,.133.254.143.143,0,0,0,.072.1.441.441,0,0,1,.22.283.79.79,0,0,0,.11.226,1.187,1.187,0,0,1,.082.142c.026.053.036.113.067.163a2.954,2.954,0,0,0,.193.27.415.415,0,0,1,.111.3.165.165,0,0,0,.011.078c.074.146.162.286.226.436a1.6,1.6,0,0,0,.187.371c.01.014,0,.036.007.052a.972.972,0,0,0,.088.265,2.2,2.2,0,0,0,.272.4.286.286,0,0,1,.05.129c.02.064.015.142.063.191a.2.2,0,0,1,.052.113c.007.056.007.114.084.137.035.011.04.045.05.072a.53.53,0,0,0,.034.123.123.123,0,0,0,.107.066c.089,0,.046.073.114.076.111.006.157.061.293.049a.2.2,0,0,1,.193.073.333.333,0,0,0,.055.07c.006.006.02.007.029.012.158-.077.317-.154.472-.239A3.5,3.5,0,0,1,323.262,300.183Z"/></svg>