<?xml version="1.0" encoding="utf-8"?>
<!-- Generator: Adobe Illustrator 22.1.0, SVG Export Plug-In . SVG Version: 6.00 Build 0)  -->
<svg version="1.1" id="Livello_1" xmlns="http://www.w3.org/2000/svg" xmlns:xlink="http://www.w3.org/1999/xlink" x="0px" y="0px"
	 viewBox="0 0 952 320.2" style="enable-background:new 0 0 952 320.2;" xml:space="preserve">
<style type="text/css">
	.st0{fill:#1858A8;}
	.st1{fill:#FF3366;}
	.st2{fill:#0046B7;}
</style>
<title>10</title>
<path class="st0" d="M199.9,54.6v16.1h4.6v1.8h-6.6V52.7h6.6v1.8H199.9z"/>
<path class="st0" d="M216.9,72.6h-6.6v-1.8h4.6V54.6h-4.6v-1.8h6.6V72.6z"/>
<path class="st1" d="M78,29.5v1.8H67.3v-1.8h4.4V12.8h2v16.7H78z"/>
<path class="st1" d="M92,23.2l-0.1,8.1h-1.7v-1.5c-1.1,1.2-2.7,1.8-4.4,1.7c-2.5,0-3.9-1.3-3.9-3.4c0-2.4,2.5-3.5,8-3.9l0-0.9
	c0-1.6-0.2-2.9-2.6-2.9c-1.5,0-3,0.4-4.3,1.1l-0.5-1.7c1.6-0.8,3.3-1.2,5-1.2C91.6,18.7,92.1,20.7,92,23.2z M89.9,28.5l0-2.5
	c-4.2,0.3-5.9,0.9-5.9,2.2c0,1,0.7,1.6,2.1,1.7C87.5,29.8,88.9,29.4,89.9,28.5z"/>
<path class="st1" d="M107.4,30.6c-1.3,0.7-2.8,1-4.3,1c-3.4,0-4-1.9-3.9-4.5l0.1-6.3h-3v-1.8h3.1l0.1-2.9h2.1l-0.4,2.9h5.8v1.8h-5.5
	l-0.1,6.1c0,1.6,0.2,2.9,1.9,2.9c1.3,0,2.5-0.3,3.7-0.8L107.4,30.6z"/>
<path class="st1" d="M122.2,29.5v1.8h-10.7v-1.8h4.6v-8.8h-4.6v-1.8h6.6v10.6L122.2,29.5z M114.8,14.9c0-1.1,0.9-2,2-2
	c1.1,0,2,0.9,2,2c0,1.1-0.9,2-2,2c0,0,0,0,0,0C115.7,16.9,114.8,16,114.8,14.9C114.8,14.9,114.8,14.9,114.8,14.9L114.8,14.9z"/>
<path class="st1" d="M136.3,22.8v8.5h-2v-8.3c0-1.8-0.7-2.6-2.3-2.6c-1.3,0-2.6,0.4-3.6,1.2v9.7h-2V18.9h1.7v1.4
	c1.1-1,2.6-1.6,4.2-1.6C135.1,18.7,136.3,20.1,136.3,22.8z"/>
<path class="st1" d="M148.5,26.1h-5.3l-1.5,5.3h-2.1l4.7-15.3h3.3l4.7,15.3h-2.2L148.5,26.1z M148,24.2l-1.2-4.1l-0.5-2.3h-0.7
	l-0.5,2.3l-1.2,4.1H148z"/>
<path class="st1" d="M166,29.5v1.8h-10.7v-1.8h4.4V12.8h2v16.7H166z"/>
<path class="st1" d="M180.9,24.6c0,5-2.5,6.9-6.2,6.9c-0.8,0-1.6-0.1-2.4-0.2v4h-2V18.9h1.7v1.4c1.1-1.1,2.6-1.6,4.2-1.6
	C179.3,18.7,180.9,20.8,180.9,24.6z M178.8,24.9c0-2.8-1-4.4-2.9-4.4c-1.3,0-2.6,0.4-3.6,1.2v7.7c0.8,0.2,1.7,0.3,2.6,0.3
	C177.6,29.7,178.9,28.1,178.8,24.9L178.8,24.9z"/>
<path class="st1" d="M194.9,22.8v8.5h-2v-8.3c0-1.8-0.7-2.6-2.3-2.6c-1.3,0-2.6,0.4-3.6,1.2v9.7h-2V12.8h2v5.4l-0.2,1.9
	c1.1-1,2.6-1.5,4-1.5C193.8,18.7,194.9,20.1,194.9,22.8z"/>
<path class="st1" d="M209.3,23.2l-0.1,8.1h-1.7v-1.5c-1.1,1.2-2.7,1.8-4.4,1.7c-2.5,0-3.9-1.3-3.9-3.4c0-2.4,2.5-3.5,8-3.9l0-0.9
	c0-1.6-0.2-2.9-2.6-2.9c-1.5,0-3,0.4-4.3,1.1l-0.5-1.7c1.6-0.8,3.3-1.2,5-1.2C208.9,18.7,209.3,20.7,209.3,23.2z M207.2,28.5l0-2.5
	c-4.1,0.3-5.9,0.9-5.9,2.2c0,1,0.7,1.6,2.1,1.7C204.8,29.8,206.1,29.4,207.2,28.5z"/>
<path class="st1" d="M224.9,24.6c0,5-2.5,6.9-6.2,6.9c-1.5,0-3-0.2-4.4-0.7V12.8h2v5.4l-0.2,1.9c1.1-1,2.6-1.5,4-1.5
	C223.2,18.7,224.9,20.8,224.9,24.6z M222.8,24.9c0-2.8-1-4.4-2.9-4.4c-1.3,0-2.6,0.4-3.6,1.2v7.7c0.8,0.2,1.7,0.3,2.6,0.3
	C221.6,29.7,222.8,28.1,222.8,24.9z"/>
<path class="st1" d="M230.6,25.1c0,3.2,1.3,4.6,3.9,4.6c1.4,0,2.9-0.4,4.1-1.1l0.5,1.7c-1.4,0.8-3,1.2-4.7,1.2c-3.7,0-6-2.1-6-6.3
	s2.6-6.6,5.8-6.6c3.7,0,5.3,2.3,4.8,6.3h-8.6L230.6,25.1z M230.8,23.4h6.5c0-2.1-1-2.9-3-2.9C232.5,20.3,230.9,21.6,230.8,23.4z"/>
<path class="st1" d="M254,30.6c-1.3,0.7-2.8,1-4.3,1c-3.4,0-4-1.9-3.9-4.5l0.1-6.3h-3v-1.8h3.1L246,16h2.1l-0.4,2.9h5.8v1.8H248
	l-0.1,6.1c0,1.6,0.2,2.9,1.9,2.9c1.3,0,2.5-0.3,3.7-0.8L254,30.6z"/>
<path class="st0" d="M318,54.6v16.1h4.6v1.8h-6.6V52.7h6.6v1.8H318z"/>
<path class="st0" d="M331.3,55h2.8l-0.2,7.7h-2.4L331.3,55z"/>
<path class="st0" d="M350,65.1h-5.3l-1.5,5.3h-2.1l4.7-15.3h3.3l4.7,15.3h-2.2L350,65.1z M349.4,63.2l-1.2-4.2l-0.5-2.3H347
	l-0.5,2.3l-1.2,4.2H349.4z"/>
<path class="st0" d="M360.6,55h2.8l-0.2,7.7h-2.4L360.6,55z"/>
<path class="st0" d="M379.1,69.6c0,2-1.2,4.3-4.6,4.3v-1.7c1.5,0,2.4-0.6,2.7-2c-0.2,0.2-0.5,0.3-0.8,0.3c-1.1-0.1-2-1-1.9-2.1
	c0.1-1.1,0.9-1.9,2-1.9C377.7,66.5,379.1,67.5,379.1,69.6z"/>
<path class="st0" d="M404.6,55h2.8l-0.2,7.7h-2.4L404.6,55z"/>
<path class="st0" d="M426.7,65.9c0,2.7-1.7,4.4-5.1,4.4h-6V55h5.1c3.4,0,5.1,1.3,5.1,4.1c-0.1,1.3-0.6,2.5-1.4,3.4
	C425.8,62.9,426.8,64.3,426.7,65.9z M417.7,56.8v5.1h4.8c0.7-0.7,1.1-1.7,1.1-2.6c0-1.6-0.7-2.4-3.2-2.4H417.7z M424.6,66
	c0-1.2-0.5-2.3-2.5-2.3h-4.4v4.8h3.7C424.1,68.5,424.6,67.5,424.6,66L424.6,66z"/>
<path class="st0" d="M433.9,55h2.8l-0.2,7.7h-2.4L433.9,55z"/>
<path class="st0" d="M452.4,69.6c0,2-1.2,4.3-4.6,4.3v-1.7c1.5,0,2.4-0.6,2.7-2c-0.2,0.2-0.5,0.3-0.8,0.3c-1.1-0.1-2-1-1.9-2.1
	c0.1-1.1,0.9-1.9,2-1.9C451,66.5,452.4,67.5,452.4,69.6z"/>
<path class="st0" d="M477.9,55h2.8l-0.2,7.7h-2.4L477.9,55z"/>
<path class="st0" d="M488.4,62.8c0-6,3.7-8,7-8c1.5,0,3,0.3,4.4,1l-0.6,1.8c-1.2-0.7-2.6-1-4-0.9c-2.3,0-4.7,1.4-4.7,6.1
	c0,4.6,2,6,4.7,6c1.4,0,2.8-0.4,4-1.1l0.5,1.7c-1.4,0.8-3,1.2-4.6,1.2C491.4,70.6,488.4,68.5,488.4,62.8z"/>
<path class="st0" d="M507.2,55h2.8l-0.2,7.7h-2.4L507.2,55z"/>
<path class="st0" d="M525.7,69.6c0,2-1.2,4.3-4.6,4.3v-1.7c1.5,0,2.4-0.6,2.7-2c-0.2,0.2-0.5,0.3-0.8,0.3c-1.1-0.1-2-1-1.9-2.1
	c0.1-1.1,0.9-1.9,2-1.9C524.3,66.5,525.7,67.5,525.7,69.6z"/>
<path class="st0" d="M550.6,68.5c0-1.1,0.9-2,2-2c1.1,0,2,0.9,2,2c0,1.1-0.9,2-2,2C551.5,70.5,550.6,69.6,550.6,68.5
	C550.6,68.5,550.6,68.5,550.6,68.5z"/>
<path class="st0" d="M565.3,68.5c0-1.1,0.9-2,2-2c1.1,0,2,0.9,2,2c0,1.1-0.9,2-2,2C566.2,70.5,565.3,69.6,565.3,68.5
	C565.3,68.5,565.3,68.5,565.3,68.5z"/>
<path class="st0" d="M579.9,68.5c0-1.1,0.9-2,2-2c1.1,0,2,0.9,2,2c0,1.1-0.9,2-2,2C580.9,70.5,579.9,69.6,579.9,68.5
	C579.9,68.5,579.9,68.5,579.9,68.5z"/>
<path class="st0" d="M599,69.6c0,2-1.2,4.3-4.6,4.3v-1.7c1.5,0,2.4-0.6,2.7-2c-0.2,0.2-0.5,0.3-0.8,0.3c-1.1-0.1-2-1-1.9-2.1
	c0.1-1.1,0.9-1.9,2-1.9C597.6,66.5,599,67.5,599,69.6z"/>
<path class="st0" d="M609.9,55h2.8l-0.2,7.7h-2.4L609.9,55z"/>
<path class="st0" d="M626.1,63.3h-0.4l-3.6,7h-2.2l4.3-8L620,55h2.2l3.6,6.4h0.4l3.6-6.4h2.1l-4.2,7.3l4.3,8.1h-2.2L626.1,63.3z"/>
<path class="st0" d="M639.2,55h2.8l-0.2,7.7h-2.4L639.2,55z"/>
<path class="st0" d="M657.7,69.6c0,2-1.2,4.3-4.6,4.3v-1.7c1.5,0,2.4-0.6,2.7-2c-0.2,0.2-0.5,0.3-0.8,0.3c-1.1-0.1-2-1-1.9-2.1
	c0.1-1.1,0.9-1.9,2-1.9C656.3,66.5,657.7,67.5,657.7,69.6z"/>
<path class="st0" d="M683.2,55h2.8l-0.2,7.7h-2.4L683.2,55z"/>
<path class="st0" d="M700.3,68.5h4.3v1.8h-10.7v-1.8h4.3v-4.7l-5.5-8.8h2.3l3,5l1.1,2.3h0.3l1.2-2.3l3-5h2.2l-5.5,8.8V68.5z"/>
<path class="st0" d="M712.5,55h2.8l-0.2,7.7h-2.4L712.5,55z"/>
<path class="st0" d="M731,69.6c0,2-1.2,4.3-4.6,4.3v-1.7c1.5,0,2.4-0.6,2.7-2c-0.2,0.2-0.5,0.3-0.8,0.3c-1.1-0.1-2-1-1.9-2.1
	c0.1-1.1,0.9-1.9,2-1.9C729.6,66.5,731,67.5,731,69.6z"/>
<path class="st0" d="M756.5,55h2.8l-0.2,7.7h-2.4L756.5,55z"/>
<path class="st0" d="M778.1,68.5v1.8H767v-2.1l7.6-10.1l1-1v-0.3h-8.3V55h10.6v2.1l-7.6,10.1l-1,1v0.3L778.1,68.5z"/>
<path class="st0" d="M785.8,55h2.8l-0.2,7.7H786L785.8,55z"/>
<path class="st0" d="M804,72.6h-6.6v-1.8h4.6V54.6h-4.6v-1.8h6.6V72.6z"/>
<path class="st1" d="M506,29.5v1.8h-10.7v-1.8h4.4V12.8h2v16.7H506z"/>
<path class="st1" d="M520,23.2l-0.1,8.1h-1.7v-1.5c-1.1,1.2-2.7,1.8-4.4,1.7c-2.5,0-3.9-1.3-3.9-3.4c0-2.4,2.5-3.5,8-3.9l0-0.9
	c0-1.6-0.2-2.9-2.6-2.9c-1.5,0-3,0.4-4.3,1.1l-0.5-1.7c1.6-0.8,3.3-1.2,5-1.2C519.6,18.7,520,20.7,520,23.2z M517.9,28.5l0-2.5
	c-4.2,0.3-5.9,0.9-5.9,2.2c0,1,0.7,1.6,2.1,1.7C515.5,29.8,516.8,29.4,517.9,28.5L517.9,28.5z"/>
<path class="st1" d="M535.3,30.6c-1.3,0.7-2.8,1-4.3,1c-3.4,0-4-1.9-3.9-4.5l0.1-6.3h-3v-1.8h3.1l0.1-2.9h2.1l-0.4,2.9h5.8v1.8h-5.6
	l-0.1,6.1c0,1.6,0.2,2.9,1.9,2.9c1.3,0,2.5-0.3,3.7-0.8L535.3,30.6z"/>
<path class="st1" d="M550.2,29.5v1.8h-10.7v-1.8h4.6v-8.8h-4.6v-1.8h6.6v10.6L550.2,29.5z M542.8,14.9c0-1.1,0.9-2,2-2
	c1.1,0,2,0.9,2,2s-0.9,2-2,2c0,0,0,0,0,0C543.7,16.9,542.8,16,542.8,14.9C542.8,14.9,542.8,14.9,542.8,14.9L542.8,14.9z"/>
<path class="st1" d="M564.3,22.8v8.5h-2v-8.3c0-1.8-0.7-2.6-2.3-2.6c-1.3,0-2.6,0.4-3.6,1.2v9.7h-2V18.9h1.7v1.4
	c1.1-1,2.6-1.6,4.2-1.6C563.1,18.7,564.3,20.1,564.3,22.8z"/>
<path class="st1" d="M579.3,16v9c0,4.7-2.3,6.6-5.5,6.6c-3.4,0-5.3-1.8-5.3-6.4V16h2.1v9c0,3.5,1,4.7,3.3,4.7c2.4,0,3.4-1.2,3.4-4.6
	V16H579.3z"/>
<path class="st1" d="M594.2,24.6c0,5-2.5,6.9-6.2,6.9c-0.8,0-1.6-0.1-2.4-0.2v4h-2V18.9h1.7v1.4c1.1-1.1,2.6-1.6,4.2-1.6
	C592.6,18.7,594.2,20.8,594.2,24.6z M592.2,24.9c0-2.8-1-4.4-2.9-4.4c-1.3,0-2.6,0.4-3.6,1.2v7.7c0.8,0.2,1.7,0.3,2.6,0.3
	C590.9,29.7,592.2,28.1,592.2,24.9z"/>
<path class="st1" d="M608.9,24.6c0,5-2.5,6.9-6.2,6.9c-0.8,0-1.6-0.1-2.4-0.2v4h-2V18.9h1.7v1.4c1.1-1.1,2.6-1.6,4.2-1.6
	C607.2,18.7,608.9,20.8,608.9,24.6z M606.8,24.9c0-2.8-1-4.4-2.9-4.4c-1.3,0-2.6,0.4-3.6,1.2v7.7c0.8,0.2,1.7,0.3,2.6,0.3
	C605.6,29.7,606.8,28.1,606.8,24.9z"/>
<path class="st1" d="M614.6,25.1c0,3.2,1.3,4.6,3.9,4.6c1.4,0,2.9-0.4,4.1-1.1l0.5,1.7c-1.4,0.8-3,1.2-4.7,1.2c-3.7,0-6-2.1-6-6.3
	s2.6-6.6,5.8-6.6c3.7,0,5.3,2.3,4.8,6.3h-8.6L614.6,25.1z M614.7,23.4h6.5c0-2.1-1-2.9-3-2.9C616.5,20.3,614.9,21.6,614.7,23.4
	L614.7,23.4z"/>
<path class="st1" d="M638.1,29.5v1.8h-10.7v-1.8h3.2V18.9h1.8l0,2.4l5.5-2.7l0,2l-5.3,2.5v6.3L638.1,29.5z"/>
<path class="st1" d="M641.8,25.3c0-4.5,2.7-6.6,6.2-6.6c1.6,0,3.1,0.3,4.5,1l-0.6,1.8c-1.3-0.7-2.7-1-4.1-1c-2.4,0-3.9,1.4-3.9,4.6
	c0,3.2,1.2,4.6,3.9,4.6c1.4,0,2.9-0.4,4.1-1.1l0.5,1.8c-1.4,0.8-3,1.2-4.7,1.2C644,31.6,641.8,29.5,641.8,25.3z"/>
<path class="st1" d="M666.6,23.2l-0.1,8.1h-1.7v-1.5c-1.1,1.2-2.7,1.8-4.4,1.7c-2.5,0-3.9-1.3-3.9-3.4c0-2.4,2.5-3.5,8-3.9l0-0.9
	c0-1.6-0.2-2.9-2.6-2.9c-1.5,0-3,0.4-4.3,1.1l-0.5-1.7c1.6-0.8,3.3-1.2,5-1.2C666.2,18.7,666.6,20.7,666.6,23.2z M664.5,28.5l0-2.5
	c-4.2,0.3-5.9,0.9-5.9,2.2c0,1,0.7,1.6,2.1,1.7C662.1,29.8,663.4,29.4,664.5,28.5z"/>
<path class="st1" d="M671.2,30.6l0.6-1.9c1.4,0.7,3,1.1,4.5,1c2.3,0,3.4-0.5,3.4-1.7c0-2.5-8.3-1.7-8.3-5.8c0-2.3,2.1-3.6,5.3-3.6
	c1.5,0,3.1,0.3,4.5,0.9l-0.6,1.9c-1.2-0.6-2.5-0.9-3.9-0.9c-2.1,0-3.2,0.6-3.2,1.6c0,2.4,8.3,1.6,8.3,5.8c0,2.6-2.3,3.7-5.5,3.7
	C674.6,31.6,672.8,31.3,671.2,30.6z"/>
<path class="st1" d="M687.9,25.1c0,3.2,1.3,4.6,3.9,4.6c1.4,0,2.9-0.4,4.1-1.1l0.5,1.7c-1.4,0.8-3,1.2-4.7,1.2c-3.7,0-6-2.1-6-6.3
	s2.6-6.6,5.8-6.6c3.7,0,5.3,2.3,4.8,6.3h-8.6L687.9,25.1z M688,23.4h6.5c0-2.1-1-2.9-3-2.9C689.8,20.3,688.2,21.6,688,23.4L688,23.4
	z"/>
<path class="st2" d="M251.9,281.2v16.1h4.6v1.8h-6.6v-19.8h6.6v1.8H251.9z"/>
<path class="st2" d="M268.9,299.2h-6.6v-1.8h4.6v-16.1h-4.6v-1.8h6.6V299.2z"/>
<path class="st1" d="M130,256.1v1.8h-10.7v-1.8h4.4v-16.7h2v16.7H130z"/>
<path class="st1" d="M144,249.8l-0.1,8.1h-1.7v-1.5c-1.1,1.2-2.7,1.8-4.4,1.7c-2.5,0-3.9-1.3-3.9-3.4c0-2.4,2.5-3.4,8-3.9l0-0.9
	c0-1.6-0.2-2.9-2.6-2.9c-1.5,0-3,0.4-4.3,1.1l-0.5-1.7c1.6-0.8,3.3-1.2,5-1.2C143.6,245.3,144.1,247.3,144,249.8z M141.9,255.1
	l0-2.5c-4.1,0.3-5.9,0.9-5.9,2.2c0,1,0.7,1.6,2.1,1.7C139.5,256.4,140.9,256,141.9,255.1z"/>
<path class="st1" d="M159.4,257.2c-1.3,0.7-2.8,1-4.3,1c-3.4,0-4-1.8-3.9-4.5l0.1-6.3h-3v-1.8h3.1l0.1-2.9h2.1l-0.4,2.9h5.8v1.8
	h-5.5l-0.1,6.1c0,1.6,0.2,2.9,1.9,2.9c1.3,0,2.5-0.3,3.7-0.8L159.4,257.2z"/>
<path class="st1" d="M174.2,256.1v1.8h-10.7v-1.8h4.6v-8.8h-4.6v-1.8h6.6v10.6H174.2z M166.8,241.5c0-1.1,0.9-2,2-2s2,0.9,2,2
	s-0.9,2-2,2c0,0,0,0,0,0C167.7,243.5,166.8,242.6,166.8,241.5C166.8,241.5,166.8,241.5,166.8,241.5L166.8,241.5z"/>
<path class="st1" d="M188.3,249.4v8.5h-2v-8.3c0-1.8-0.7-2.6-2.3-2.6c-1.3,0-2.6,0.4-3.6,1.2v9.7h-2v-12.4h1.7v1.4
	c1.1-1,2.6-1.6,4.2-1.6C187.1,245.3,188.3,246.7,188.3,249.4z"/>
<path class="st1" d="M200.5,252.7h-5.3l-1.5,5.3h-2.1l4.7-15.3h3.3l4.7,15.3h-2.2L200.5,252.7z M200,250.8l-1.2-4.2l-0.5-2.3h-0.7
	l-0.5,2.3l-1.2,4.2H200z"/>
<path class="st1" d="M218,256.1v1.8h-10.7v-1.8h4.4v-16.7h2v16.7H218z"/>
<path class="st1" d="M232.9,251.2c0,5-2.5,6.9-6.2,6.9c-0.8,0-1.6-0.1-2.4-0.2v4h-2v-16.5h1.7v1.4c1.1-1.1,2.6-1.6,4.2-1.6
	C231.3,245.3,232.9,247.4,232.9,251.2z M230.8,251.5c0-2.8-1-4.4-2.9-4.4c-1.3,0-2.6,0.4-3.6,1.2v7.7c0.8,0.2,1.7,0.3,2.6,0.3
	C229.6,256.3,230.9,254.7,230.8,251.5L230.8,251.5z"/>
<path class="st1" d="M246.9,249.4v8.5h-2v-8.3c0-1.8-0.7-2.6-2.3-2.6c-1.3,0-2.6,0.4-3.6,1.2v9.7h-2v-18.5h2v5.4l-0.2,1.9
	c1.1-1,2.6-1.5,4-1.5C245.8,245.3,246.9,246.7,246.9,249.4z"/>
<path class="st1" d="M261.3,249.8l-0.1,8.1h-1.7v-1.5c-1.1,1.2-2.7,1.8-4.4,1.7c-2.5,0-3.9-1.3-3.9-3.4c0-2.4,2.5-3.4,8-3.9l0-0.9
	c0-1.6-0.2-2.9-2.6-2.9c-1.5,0-3,0.4-4.3,1.1l-0.5-1.7c1.6-0.8,3.3-1.2,5-1.2C260.9,245.3,261.3,247.3,261.3,249.8z M259.2,255.1
	l0-2.5c-4.1,0.3-5.9,0.9-5.9,2.2c0,1,0.7,1.6,2.1,1.7C256.8,256.4,258.1,256,259.2,255.1L259.2,255.1z"/>
<path class="st1" d="M276.9,251.2c0,5-2.5,6.9-6.2,6.9c-1.5,0-3-0.2-4.4-0.7v-18.1h2v5.4l-0.2,1.9c1.1-1,2.6-1.5,4-1.5
	C275.2,245.3,276.9,247.4,276.9,251.2z M274.8,251.5c0-2.8-1-4.4-2.9-4.4c-1.3,0-2.6,0.4-3.6,1.2v7.7c0.8,0.2,1.7,0.3,2.6,0.3
	C273.6,256.3,274.8,254.7,274.8,251.5z"/>
<path class="st1" d="M282.6,251.7c0,3.2,1.3,4.6,3.9,4.6c1.4,0,2.9-0.4,4.1-1.1l0.5,1.7c-1.4,0.8-3,1.2-4.7,1.2c-3.7,0-6-2.1-6-6.3
	s2.6-6.6,5.8-6.6c3.7,0,5.3,2.3,4.8,6.3h-8.6L282.6,251.7z M282.8,250h6.5c0-2.1-1-2.9-3-2.9C284.5,246.9,282.9,248.2,282.8,250z"/>
<path class="st1" d="M306,257.2c-1.3,0.7-2.8,1-4.3,1c-3.4,0-4-1.8-3.9-4.5l0.1-6.3h-3v-1.8h3.1l0.1-2.9h2.1l-0.4,2.9h5.8v1.8H300
	l-0.1,6.1c0,1.6,0.2,2.9,1.9,2.9c1.3,0,2.5-0.3,3.7-0.8L306,257.2z"/>
<path class="st0" d="M318,281.2v16.1h4.6v1.8h-6.6v-19.8h6.6v1.8H318z"/>
<path class="st0" d="M331.3,281.6h2.8l-0.2,7.7h-2.4L331.3,281.6z"/>
<path class="st0" d="M350,291.7h-5.3l-1.5,5.3h-2.1l4.7-15.3h3.3l4.7,15.3h-2.2L350,291.7z M349.4,289.8l-1.2-4.2l-0.5-2.3H347
	l-0.5,2.3l-1.2,4.2H349.4z"/>
<path class="st0" d="M360.6,281.6h2.8l-0.2,7.7h-2.4L360.6,281.6z"/>
<path class="st0" d="M379.1,296.2c0,2-1.2,4.3-4.6,4.3v-1.7c1.5,0,2.4-0.6,2.7-2c-0.2,0.2-0.5,0.3-0.8,0.3c-1.1,0-2-1-1.9-2.1
	c0-1.1,0.9-1.9,2-1.9C377.7,293.1,379.1,294.1,379.1,296.2z"/>
<path class="st0" d="M404.6,281.6h2.8l-0.2,7.7h-2.4L404.6,281.6z"/>
<path class="st0" d="M426.7,292.5c0,2.7-1.7,4.4-5.1,4.4h-6v-15.3h5.1c3.4,0,5.1,1.3,5.1,4.1c-0.1,1.3-0.6,2.5-1.4,3.4
	C425.8,289.5,426.8,290.9,426.7,292.5z M417.7,283.4v5.1h4.8c0.7-0.7,1.1-1.7,1.1-2.6c0-1.6-0.7-2.4-3.2-2.4H417.7z M424.6,292.6
	c0-1.2-0.5-2.3-2.5-2.3h-4.4v4.8h3.7C424.1,295.1,424.6,294.1,424.6,292.6L424.6,292.6z"/>
<path class="st0" d="M433.9,281.6h2.8l-0.2,7.7h-2.4L433.9,281.6z"/>
<path class="st0" d="M452.4,296.2c0,2-1.2,4.3-4.6,4.3v-1.7c1.5,0,2.4-0.6,2.7-2c-0.2,0.2-0.5,0.3-0.8,0.3c-1.1,0-2-1-1.9-2.1
	c0-1.1,0.9-1.9,2-1.9C451,293.1,452.4,294.1,452.4,296.2z"/>
<path class="st0" d="M477.9,281.6h2.8l-0.2,7.7h-2.4L477.9,281.6z"/>
<path class="st0" d="M488.4,289.4c0-6,3.7-8,7-8c1.5,0,3,0.3,4.4,1l-0.6,1.8c-1.2-0.7-2.6-1-4-0.9c-2.3,0-4.7,1.4-4.7,6.1
	c0,4.6,2,6,4.7,6c1.4,0,2.8-0.4,4-1.1l0.5,1.7c-1.4,0.8-3,1.2-4.6,1.2C491.4,297.1,488.4,295.1,488.4,289.4z"/>
<path class="st0" d="M507.2,281.6h2.8l-0.2,7.7h-2.4L507.2,281.6z"/>
<path class="st0" d="M525.7,296.2c0,2-1.2,4.3-4.6,4.3v-1.7c1.5,0,2.4-0.6,2.7-2c-0.2,0.2-0.5,0.3-0.8,0.3c-1.1,0-2-1-1.9-2.1
	c0-1.1,0.9-1.9,2-1.9C524.3,293.1,525.7,294.1,525.7,296.2z"/>
<path class="st0" d="M550.6,295.1c0-1.1,0.9-2,2-2c1.1,0,2,0.9,2,2c0,1.1-0.9,2-2,2C551.5,297.1,550.6,296.2,550.6,295.1
	C550.6,295.1,550.6,295.1,550.6,295.1z"/>
<path class="st0" d="M565.3,295.1c0-1.1,0.9-2,2-2c1.1,0,2,0.9,2,2c0,1.1-0.9,2-2,2C566.2,297.1,565.3,296.2,565.3,295.1
	C565.3,295.1,565.3,295.1,565.3,295.1z"/>
<path class="st0" d="M579.9,295.1c0-1.1,0.9-2,2-2c1.1,0,2,0.9,2,2c0,1.1-0.9,2-2,2C580.9,297.1,579.9,296.2,579.9,295.1
	C579.9,295.1,579.9,295.1,579.9,295.1z"/>
<path class="st0" d="M599,296.2c0,2-1.2,4.3-4.6,4.3v-1.7c1.5,0,2.4-0.6,2.7-2c-0.2,0.2-0.5,0.3-0.8,0.3c-1.1,0-2-1-1.9-2.1
	c0-1.1,0.9-1.9,2-1.9C597.6,293.1,599,294.1,599,296.2z"/>
<path class="st0" d="M609.9,281.6h2.8l-0.2,7.7h-2.4L609.9,281.6z"/>
<path class="st0" d="M626.1,289.9h-0.4l-3.6,7h-2.2l4.3-8l-4.2-7.3h2.2l3.6,6.4h0.4l3.6-6.4h2.1l-4.2,7.3l4.3,8.1h-2.2L626.1,289.9z
	"/>
<path class="st0" d="M639.2,281.6h2.8l-0.2,7.7h-2.4L639.2,281.6z"/>
<path class="st0" d="M657.7,296.2c0,2-1.2,4.3-4.6,4.3v-1.7c1.5,0,2.4-0.6,2.7-2c-0.2,0.2-0.5,0.3-0.8,0.3c-1.1,0-2-1-1.9-2.1
	c0-1.1,0.9-1.9,2-1.9C656.3,293.1,657.7,294.1,657.7,296.2z"/>
<path class="st0" d="M683.2,281.6h2.8l-0.2,7.7h-2.4L683.2,281.6z"/>
<path class="st0" d="M700.3,295.1h4.3v1.9h-10.7v-1.9h4.3v-4.7l-5.5-8.8h2.3l3,5l1.1,2.3h0.3l1.2-2.3l3-5h2.2l-5.5,8.8V295.1z"/>
<path class="st0" d="M712.5,281.6h2.8l-0.2,7.7h-2.4L712.5,281.6z"/>
<path class="st0" d="M731,296.2c0,2-1.2,4.3-4.6,4.3v-1.7c1.5,0,2.4-0.6,2.7-2c-0.2,0.2-0.5,0.3-0.8,0.3c-1.1,0-2-1-1.9-2.1
	c0-1.1,0.9-1.9,2-1.9C729.6,293.1,731,294.1,731,296.2z"/>
<path class="st0" d="M756.5,281.6h2.8l-0.2,7.7h-2.4L756.5,281.6z"/>
<path class="st0" d="M778.1,295.1v1.9H767v-2.1l7.6-10.1l1-1v-0.3h-8.3v-1.8h10.6v2.1l-7.6,10.1l-1,1v0.3H778.1z"/>
<path class="st0" d="M785.8,281.6h2.8l-0.2,7.7H786L785.8,281.6z"/>
<path class="st0" d="M804,299.2h-6.6v-1.8h4.6v-16.1h-4.6v-1.8h6.6V299.2z"/>
<path class="st1" d="M506,256.1v1.8h-10.7v-1.8h4.4v-16.7h2v16.7H506z"/>
<path class="st1" d="M520,249.8l-0.1,8.1h-1.7v-1.5c-1.1,1.2-2.7,1.8-4.4,1.7c-2.5,0-3.9-1.3-3.9-3.4c0-2.4,2.5-3.4,8-3.9l0-0.9
	c0-1.6-0.2-2.9-2.6-2.9c-1.5,0-3,0.4-4.3,1.1l-0.5-1.7c1.6-0.8,3.3-1.2,5-1.2C519.6,245.3,520,247.3,520,249.8z M517.9,255.1l0-2.5
	c-4.2,0.3-5.9,0.9-5.9,2.2c0,1,0.7,1.6,2.1,1.7C515.5,256.4,516.8,256,517.9,255.1L517.9,255.1z"/>
<path class="st1" d="M535.3,257.2c-1.3,0.7-2.8,1-4.3,1c-3.4,0-4-1.8-3.9-4.5l0.1-6.3h-3v-1.8h3.1l0.1-2.9h2.1l-0.4,2.9h5.8v1.8
	h-5.6l-0.1,6.1c0,1.6,0.2,2.9,1.9,2.9c1.3,0,2.5-0.3,3.7-0.8L535.3,257.2z"/>
<path class="st1" d="M550.2,256.1v1.8h-10.7v-1.8h4.6v-8.8h-4.6v-1.8h6.6v10.6H550.2z M542.8,241.5c0-1.1,0.9-2,2-2c1.1,0,2,0.9,2,2
	s-0.9,2-2,2c0,0,0,0,0,0C543.7,243.5,542.8,242.6,542.8,241.5C542.8,241.5,542.8,241.5,542.8,241.5L542.8,241.5z"/>
<path class="st1" d="M564.3,249.4v8.5h-2v-8.3c0-1.8-0.7-2.6-2.3-2.6c-1.3,0-2.6,0.4-3.6,1.2v9.7h-2v-12.4h1.7v1.4
	c1.1-1,2.6-1.6,4.2-1.6C563.1,245.3,564.3,246.7,564.3,249.4z"/>
<path class="st1" d="M579.3,242.6v9c0,4.7-2.3,6.6-5.5,6.6c-3.4,0-5.3-1.8-5.3-6.4v-9.2h2.1v9c0,3.5,1,4.7,3.3,4.7
	c2.4,0,3.4-1.2,3.4-4.6v-9.1L579.3,242.6z"/>
<path class="st1" d="M594.2,251.2c0,5-2.5,6.9-6.2,6.9c-0.8,0-1.6-0.1-2.4-0.2v4h-2v-16.5h1.7v1.4c1.1-1.1,2.6-1.6,4.2-1.6
	C592.6,245.3,594.2,247.4,594.2,251.2z M592.2,251.5c0-2.8-1-4.4-2.9-4.4c-1.3,0-2.6,0.4-3.6,1.2v7.7c0.8,0.2,1.7,0.3,2.6,0.3
	C590.9,256.3,592.2,254.7,592.2,251.5z"/>
<path class="st1" d="M608.9,251.2c0,5-2.5,6.9-6.2,6.9c-0.8,0-1.6-0.1-2.4-0.2v4h-2v-16.5h1.7v1.4c1.1-1.1,2.6-1.6,4.2-1.6
	C607.2,245.3,608.9,247.4,608.9,251.2z M606.8,251.5c0-2.8-1-4.4-2.9-4.4c-1.3,0-2.6,0.4-3.6,1.2v7.7c0.8,0.2,1.7,0.3,2.6,0.3
	C605.6,256.3,606.8,254.7,606.8,251.5z"/>
<path class="st1" d="M614.6,251.7c0,3.2,1.3,4.6,3.9,4.6c1.4,0,2.9-0.4,4.1-1.1l0.5,1.7c-1.4,0.8-3,1.2-4.7,1.2c-3.7,0-6-2.1-6-6.3
	s2.6-6.6,5.8-6.6c3.7,0,5.3,2.3,4.8,6.3h-8.6L614.6,251.7z M614.7,250h6.5c0-2.1-1-2.9-3-2.9C616.5,246.9,614.9,248.2,614.7,250
	L614.7,250z"/>
<path class="st1" d="M638.1,256.1v1.8h-10.7v-1.8h3.2v-10.6h1.8l0,2.4l5.5-2.7l0,2l-5.3,2.5v6.3L638.1,256.1z"/>
<path class="st1" d="M641.8,251.9c0-4.5,2.7-6.6,6.2-6.6c1.6,0,3.1,0.3,4.5,1l-0.6,1.8c-1.3-0.7-2.7-1-4.1-1c-2.4,0-3.9,1.4-3.9,4.6
	c0,3.2,1.2,4.6,3.9,4.6c1.4,0,2.9-0.4,4.1-1.1l0.5,1.8c-1.4,0.8-3,1.2-4.7,1.2C644,258.1,641.8,256.1,641.8,251.9z"/>
<path class="st1" d="M666.6,249.8l-0.1,8.1h-1.7v-1.5c-1.1,1.2-2.7,1.8-4.4,1.7c-2.5,0-3.9-1.3-3.9-3.4c0-2.4,2.5-3.4,8-3.9l0-0.9
	c0-1.6-0.2-2.9-2.6-2.9c-1.5,0-3,0.4-4.3,1.1l-0.5-1.7c1.6-0.8,3.3-1.2,5-1.2C666.2,245.3,666.6,247.3,666.6,249.8z M664.5,255.1
	l0-2.5c-4.2,0.3-5.9,0.9-5.9,2.2c0,1,0.7,1.6,2.1,1.7C662.1,256.4,663.4,256,664.5,255.1z"/>
<path class="st1" d="M671.2,257.2l0.6-1.9c1.4,0.7,3,1.1,4.5,1c2.3,0,3.4-0.5,3.4-1.7c0-2.5-8.3-1.7-8.3-5.8c0-2.3,2.1-3.6,5.3-3.6
	c1.5,0,3.1,0.3,4.5,0.9l-0.6,1.8c-1.2-0.6-2.5-0.9-3.9-0.9c-2.1,0-3.2,0.6-3.2,1.6c0,2.4,8.3,1.6,8.3,5.8c0,2.6-2.3,3.7-5.5,3.7
	C674.6,258.2,672.8,257.9,671.2,257.2z"/>
<path class="st1" d="M687.9,251.7c0,3.2,1.3,4.6,3.9,4.6c1.4,0,2.9-0.4,4.1-1.1l0.5,1.7c-1.4,0.8-3,1.2-4.7,1.2c-3.7,0-6-2.1-6-6.3
	s2.6-6.6,5.8-6.6c3.7,0,5.3,2.3,4.8,6.3h-8.6L687.9,251.7z M688,250h6.5c0-2.1-1-2.9-3-2.9C689.8,246.9,688.2,248.2,688,250L688,250
	z"/>
<path class="st1" d="M202.8,165.1v1.8h-10.7v-1.8h4.4v-16.7h2v16.7H202.8z"/>
<path class="st1" d="M216.8,158.8l-0.1,8.1H215v-1.5c-1.1,1.2-2.7,1.8-4.4,1.7c-2.5,0-3.9-1.3-3.9-3.4c0-2.4,2.5-3.4,8-3.9l0-0.9
	c0-1.6-0.2-2.9-2.6-2.9c-1.5,0-3,0.4-4.3,1.1l-0.5-1.7c1.6-0.8,3.3-1.2,5-1.2C216.4,154.3,216.9,156.3,216.8,158.8z M214.7,164.1
	l0-2.5c-4.1,0.3-5.9,0.9-5.9,2.2c0,1,0.7,1.6,2.1,1.7C212.3,165.4,213.7,165,214.7,164.1z"/>
<path class="st1" d="M232.2,166.2c-1.3,0.7-2.8,1-4.3,1c-3.4,0-4-1.8-3.9-4.5l0.1-6.3h-3v-1.8h3.1l0.1-2.9h2.1l-0.4,2.9h5.8v1.8
	h-5.5l-0.1,6.1c0,1.6,0.2,2.9,1.9,2.9c1.3,0,2.5-0.3,3.7-0.8L232.2,166.2z"/>
<path class="st1" d="M247,165.1v1.8h-10.7v-1.8h4.6v-8.8h-4.6v-1.8h6.6v10.6H247z M239.6,150.5c0-1.1,0.9-2,2-2s2,0.9,2,2
	s-0.9,2-2,2c0,0,0,0,0,0C240.5,152.5,239.6,151.6,239.6,150.5C239.6,150.5,239.6,150.5,239.6,150.5L239.6,150.5z"/>
<path class="st1" d="M261.1,158.4v8.5h-2v-8.3c0-1.8-0.7-2.6-2.3-2.6c-1.3,0-2.6,0.4-3.6,1.2v9.7h-2v-12.4h1.7v1.4
	c1.1-1,2.6-1.6,4.2-1.6C259.9,154.3,261.1,155.7,261.1,158.4z"/>
<path class="st1" d="M273.3,161.7h-5.3l-1.5,5.3h-2.1l4.7-15.3h3.3l4.7,15.3h-2.2L273.3,161.7z M272.8,159.8l-1.2-4.2l-0.5-2.3h-0.7
	l-0.5,2.3l-1.2,4.2H272.8z"/>
<path class="st1" d="M290.8,165.1v1.8H280v-1.8h4.4v-16.7h2v16.7H290.8z"/>
<path class="st1" d="M305.7,160.2c0,5-2.5,6.9-6.2,6.9c-0.8,0-1.6-0.1-2.4-0.2v4h-2v-16.5h1.7v1.4c1.1-1.1,2.6-1.6,4.2-1.6
	C304.1,154.3,305.7,156.4,305.7,160.2z M303.6,160.5c0-2.8-1-4.4-2.9-4.4c-1.3,0-2.6,0.4-3.6,1.2v7.7c0.8,0.2,1.7,0.3,2.6,0.3
	C302.4,165.3,303.6,163.7,303.6,160.5L303.6,160.5z"/>
<path class="st1" d="M319.7,158.4v8.5h-2v-8.3c0-1.8-0.7-2.6-2.3-2.6c-1.3,0-2.6,0.4-3.6,1.2v9.7h-2v-18.5h2v5.4l-0.2,1.9
	c1.1-1,2.6-1.5,4-1.5C318.6,154.3,319.7,155.7,319.7,158.4z"/>
<path class="st1" d="M334.1,158.8l-0.1,8.1h-1.7v-1.5c-1.1,1.2-2.7,1.8-4.4,1.7c-2.5,0-3.9-1.3-3.9-3.4c0-2.4,2.5-3.4,8-3.9l0-0.9
	c0-1.6-0.2-2.9-2.6-2.9c-1.5,0-3,0.4-4.3,1.1l-0.5-1.7c1.6-0.8,3.3-1.2,5-1.2C333.7,154.3,334.1,156.3,334.1,158.8z M332,164.1
	l0-2.5c-4.1,0.3-5.9,0.9-5.9,2.2c0,1,0.7,1.6,2.1,1.7C329.6,165.4,330.9,165,332,164.1z"/>
<path class="st1" d="M349.7,160.2c0,5-2.5,6.9-6.2,6.9c-1.5,0-3-0.2-4.4-0.7v-18.1h2v5.4l-0.2,1.9c1.1-1,2.6-1.5,4-1.5
	C348,154.3,349.7,156.4,349.7,160.2z M347.6,160.5c0-2.8-1-4.4-2.9-4.4c-1.3,0-2.6,0.4-3.6,1.2v7.7c0.8,0.2,1.7,0.3,2.6,0.3
	C346.4,165.3,347.6,163.7,347.6,160.5z"/>
<path class="st1" d="M355.4,160.7c0,3.2,1.3,4.6,3.9,4.6c1.4,0,2.9-0.4,4.1-1.1l0.5,1.7c-1.4,0.8-3,1.2-4.7,1.2c-3.7,0-6-2.1-6-6.3
	s2.6-6.6,5.8-6.6c3.7,0,5.3,2.3,4.8,6.3h-8.6L355.4,160.7z M355.5,159h6.5c0-2.1-1-2.9-3-2.9C357.3,155.9,355.7,157.2,355.5,159z"/>
<path class="st1" d="M378.8,166.2c-1.3,0.7-2.8,1-4.3,1c-3.4,0-4-1.8-3.9-4.5l0.1-6.3h-3v-1.8h3.1l0.1-2.9h2.1l-0.4,2.9h5.8v1.8
	h-5.5l-0.1,6.1c0,1.6,0.2,2.9,1.9,2.9c1.3,0,2.5-0.3,3.7-0.8L378.8,166.2z"/>
<path class="st0" d="M386,165.1c0-1.1,0.9-2,2-2s2,0.9,2,2s-0.9,2-2,2c0,0,0,0,0,0C386.9,167.1,386,166.2,386,165.1
	C386,165.1,386,165.1,386,165.1z"/>
<path class="st0" d="M399.4,160.7c0,3.2,1.3,4.6,3.9,4.6c1.4,0,2.9-0.3,4.1-1.1l0.5,1.7c-1.4,0.8-3,1.2-4.7,1.2c-3.7,0-6-2.1-6-6.3
	s2.6-6.6,5.8-6.6c3.7,0,5.3,2.3,4.8,6.3h-8.6V160.7z M399.5,159h6.5c0-2.1-1-2.9-3-2.9C401.3,155.9,399.7,157.2,399.5,159L399.5,159
	z"/>
<path class="st0" d="M417.4,161.6h-0.2l-3.3,5.4h-2.2l4.2-6.5l-4.2-5.9h2.2l3.3,4.9h0.3l3.3-4.9h2.1l-4.2,5.9l4.2,6.5h-2.2
	L417.4,161.6z"/>
<path class="st0" d="M437.4,166.2c-1.3,0.7-2.8,1-4.3,1c-3.4,0-4-1.8-3.9-4.5l0.1-6.3h-3v-1.8h3.1l0.1-2.9h2.1l-0.4,2.9h5.8v1.8
	h-5.5l-0.1,6.1c0,1.6,0.2,2.9,1.9,2.9c1.3,0,2.5-0.3,3.7-0.8L437.4,166.2z"/>
<path class="st0" d="M443.4,160.7c0,3.2,1.3,4.6,3.9,4.6c1.4,0,2.9-0.4,4.1-1.1l0.5,1.7c-1.4,0.8-3,1.2-4.7,1.2c-3.7,0-6-2.1-6-6.3
	s2.6-6.6,5.8-6.6c3.7,0,5.3,2.3,4.8,6.3h-8.6L443.4,160.7z M443.5,159h6.5c0-2.1-1-2.9-3-2.9C445.2,155.9,443.7,157.2,443.5,159
	L443.5,159z"/>
<path class="st0" d="M466.3,158.4v8.5h-2v-8.3c0-1.8-0.7-2.6-2.3-2.6c-1.3,0-2.6,0.4-3.6,1.2v9.7h-2v-12.4h1.7v1.4
	c1.1-1,2.6-1.6,4.2-1.6C465.2,154.3,466.3,155.7,466.3,158.4z"/>
<path class="st0" d="M481,148.4v18.5h-1.8v-1.3c-1.1,1-2.6,1.6-4.1,1.6c-3.1,0-4.7-2.2-4.7-6c0-5,2.5-6.9,6.2-6.9
	c0.8,0,1.6,0.1,2.4,0.2v-6L481,148.4z M478.9,164.2v-7.7c-0.8-0.2-1.7-0.3-2.6-0.3c-2.7,0-3.9,1.6-3.9,4.8c0,2.8,1,4.4,2.9,4.4
	C476.6,165.4,477.9,164.9,478.9,164.2L478.9,164.2z"/>
<path class="st0" d="M487.6,159.3c0-8.3,2.6-9.9,6.7-9.9v1.8c-3.1,0-4.6,1.1-4.6,7.8c0,7.2,1.5,8.3,4.6,8.3v1.8
	C490.2,169.2,487.6,167.7,487.6,159.3z"/>
<path class="st1" d="M510.7,165.1v1.8h-10.7v-1.8h4.4v-16.7h2v16.7H510.7z"/>
<path class="st1" d="M524.7,158.8l-0.1,8.1h-1.7v-1.5c-1.1,1.2-2.7,1.8-4.4,1.7c-2.5,0-3.9-1.3-3.9-3.4c0-2.4,2.5-3.4,8-3.9l0-0.9
	c0-1.6-0.2-2.9-2.6-2.9c-1.5,0-3,0.4-4.3,1.1l-0.5-1.7c1.6-0.8,3.3-1.2,5-1.2C524.3,154.3,524.7,156.3,524.7,158.8z M522.6,164.1
	l0-2.5c-4.2,0.3-5.9,0.9-5.9,2.2c0,1,0.7,1.6,2.1,1.7C520.2,165.4,521.5,165,522.6,164.1z"/>
<path class="st1" d="M540,166.2c-1.3,0.7-2.8,1-4.3,1c-3.4,0-4-1.8-3.9-4.5l0.1-6.3h-3v-1.8h3.1l0.1-2.9h2.1l-0.4,2.9h5.8v1.8h-5.5
	l-0.1,6.1c0,1.6,0.2,2.9,1.9,2.9c1.3,0,2.5-0.3,3.7-0.8L540,166.2z"/>
<path class="st1" d="M554.9,165.1v1.8h-10.7v-1.8h4.6v-8.8h-4.6v-1.8h6.6v10.6H554.9z M547.5,150.5c0-1.1,0.9-2,2-2c1.1,0,2,0.9,2,2
	s-0.9,2-2,2c0,0,0,0,0,0C548.4,152.5,547.5,151.6,547.5,150.5C547.5,150.5,547.5,150.5,547.5,150.5L547.5,150.5z"/>
<path class="st1" d="M569,158.4v8.5h-2v-8.3c0-1.8-0.7-2.6-2.3-2.6c-1.3,0-2.6,0.4-3.6,1.2v9.7h-2v-12.4h1.7v1.4
	c1.1-1,2.6-1.6,4.2-1.6C567.8,154.3,569,155.7,569,158.4z"/>
<path class="st1" d="M584,151.6v9c0,4.7-2.3,6.6-5.5,6.6c-3.4,0-5.3-1.8-5.3-6.4v-9.2h2.1v9c0,3.5,1,4.7,3.3,4.7
	c2.4,0,3.4-1.2,3.4-4.6v-9.1L584,151.6z"/>
<path class="st1" d="M598.9,160.2c0,5-2.5,6.9-6.2,6.9c-0.8,0-1.6-0.1-2.4-0.2v4h-2v-16.5h1.7v1.4c1.1-1.1,2.6-1.6,4.2-1.6
	C597.3,154.3,598.9,156.4,598.9,160.2z M596.9,160.5c0-2.8-1-4.4-2.9-4.4c-1.3,0-2.6,0.4-3.6,1.2v7.7c0.8,0.2,1.7,0.3,2.6,0.3
	C595.6,165.3,596.9,163.7,596.9,160.5z"/>
<path class="st1" d="M613.6,160.2c0,5-2.5,6.9-6.2,6.9c-0.8,0-1.6-0.1-2.4-0.2v4h-2v-16.5h1.7v1.4c1.1-1.1,2.6-1.6,4.2-1.6
	C611.9,154.3,613.6,156.4,613.6,160.2z M611.5,160.5c0-2.8-1-4.4-2.9-4.4c-1.3,0-2.6,0.4-3.6,1.2v7.7c0.8,0.2,1.7,0.3,2.6,0.3
	C610.3,165.3,611.5,163.7,611.5,160.5z"/>
<path class="st1" d="M619.3,160.7c0,3.2,1.3,4.6,3.9,4.6c1.4,0,2.9-0.3,4.1-1.1l0.5,1.7c-1.4,0.8-3,1.2-4.7,1.2c-3.7,0-6-2.1-6-6.3
	s2.6-6.6,5.8-6.6c3.7,0,5.3,2.3,4.8,6.3h-8.6L619.3,160.7z M619.4,159h6.5c0-2.1-1-2.9-3-2.9C621.2,155.9,619.6,157.2,619.4,159z"/>
<path class="st1" d="M642.9,165.1v1.8h-10.7v-1.8h3.2v-10.6h1.8l0,2.4l5.5-2.7l0,2l-5.3,2.5v6.3L642.9,165.1z"/>
<path class="st1" d="M646.6,160.9c0-4.5,2.7-6.6,6.2-6.6c1.6,0,3.1,0.3,4.5,1l-0.6,1.8c-1.3-0.7-2.7-1-4.1-1c-2.4,0-3.9,1.4-3.9,4.6
	c0,3.2,1.2,4.6,3.9,4.6c1.4,0,2.9-0.4,4.1-1.1l0.5,1.8c-1.4,0.8-3,1.2-4.7,1.2C648.7,167.1,646.6,165.1,646.6,160.9z"/>
<path class="st1" d="M671.3,158.8l-0.1,8.1h-1.7v-1.5c-1.1,1.2-2.7,1.8-4.4,1.7c-2.5,0-3.9-1.3-3.9-3.4c0-2.4,2.5-3.4,8-3.9l0-0.9
	c0-1.6-0.2-2.9-2.6-2.9c-1.5,0-3,0.4-4.3,1.1l-0.5-1.7c1.6-0.8,3.3-1.2,5-1.2C670.9,154.3,671.3,156.3,671.3,158.8z M669.2,164.1
	l0-2.5c-4.2,0.3-5.9,0.9-5.9,2.2c0,1,0.7,1.6,2.1,1.7C666.8,165.4,668.1,165,669.2,164.1L669.2,164.1z"/>
<path class="st1" d="M675.9,166.2l0.6-1.9c1.4,0.7,3,1.1,4.5,1c2.3,0,3.4-0.5,3.4-1.7c0-2.5-8.3-1.7-8.3-5.8c0-2.3,2.1-3.6,5.3-3.6
	c1.5,0,3.1,0.3,4.5,0.9l-0.6,1.8c-1.2-0.6-2.5-0.9-3.9-0.9c-2.1,0-3.2,0.6-3.2,1.6c0,2.4,8.3,1.6,8.3,5.8c0,2.6-2.3,3.7-5.5,3.7
	C679.3,167.2,677.5,166.9,675.9,166.2z"/>
<path class="st1" d="M692.6,160.7c0,3.2,1.3,4.6,3.9,4.6c1.4,0,2.9-0.4,4.1-1.1l0.5,1.7c-1.4,0.8-3,1.2-4.7,1.2c-3.7,0-6-2.1-6-6.3
	s2.6-6.6,5.8-6.6c3.7,0,5.3,2.3,4.8,6.3h-8.6L692.6,160.7z M692.7,159h6.5c0-2.1-1-2.9-3-2.9C694.5,155.9,692.9,157.2,692.7,159
	L692.7,159z"/>
<path class="st0" d="M713.6,159.3c0,8.3-2.6,9.9-6.7,9.9v-1.8c3.1,0,4.6-1.1,4.6-7.8c0-7.2-1.5-8.3-4.6-8.3v-1.8
	C711,149.3,713.6,150.8,713.6,159.3z"/>
<path class="st1" d="M273.9,302.8c0,0,0.1,0,0.1-0.1l0.3-0.2l0.2-0.1c0-0.1,0-0.3-0.1-0.4c-0.1-0.1-0.1-0.2-0.2-0.2
	c0-0.1-0.1-0.2-0.1-0.2c-0.1-0.1-0.1-0.2-0.2-0.2c0-0.1-0.1-0.2-0.1-0.2c0,0,0-0.1-0.1-0.1c0-0.1-0.1-0.2-0.1-0.3
	c-0.1-0.1-0.1-0.2-0.2-0.3c0,0,0-0.1,0-0.1c0,0,0-0.1-0.1-0.1c-0.1-0.1-0.1-0.3-0.2-0.4c0,0,0,0,0-0.1s0,0,0-0.1s0,0,0-0.1
	c0-0.1,0-0.2-0.1-0.3c-0.1-0.1-0.1-0.2-0.2-0.3c0,0,0,0,0-0.1c0-0.1-0.1-0.1-0.1-0.2c-0.1-0.1-0.1-0.2-0.1-0.3c0-0.1,0-0.2-0.1-0.2
	c0,0,0,0-0.1-0.1c0-0.1,0-0.2-0.1-0.2c0,0,0-0.1,0-0.1c-0.1-0.2-0.2-0.3-0.3-0.5c0,0,0-0.1,0-0.1c0,0,0-0.1,0-0.1
	c-0.1-0.1-0.1-0.2-0.1-0.3c0,0,0-0.1,0-0.1c-0.1-0.1-0.2-0.2-0.2-0.3c0-0.1-0.1-0.2-0.1-0.2c-0.1-0.1-0.1-0.2-0.2-0.3c0,0,0,0,0-0.1
	c0-0.2-0.1-0.3-0.2-0.4c0,0-0.1-0.1,0-0.2c0,0,0-0.1,0-0.1c-0.1,0-0.2-0.1-0.2-0.2c0-0.1,0-0.2-0.1-0.3c0,0,0,0,0,0
	c0,0,0-0.1-0.1-0.1c0,0-0.1-0.1-0.1-0.1c0-0.1-0.1-0.2-0.2-0.3c0,0,0,0,0-0.1c0-0.1-0.1-0.2-0.1-0.2c0,0,0-0.1-0.1-0.1
	c0-0.1,0-0.1-0.1-0.2c-0.1-0.2-0.2-0.3-0.4-0.5c0-0.1-0.1-0.1-0.1-0.2c0,0,0-0.1,0-0.1c0,0,0-0.1,0-0.1c0-0.1-0.1-0.2-0.1-0.2
	c0,0-0.1-0.1-0.1-0.1c0-0.1,0-0.1-0.1-0.2c0,0,0,0,0-0.1c0-0.1,0-0.1-0.1-0.2c0,0,0-0.1-0.1-0.1c0-0.1,0-0.1-0.1-0.2
	c0,0,0-0.1-0.1-0.1c0,0,0,0,0,0c0-0.1-0.1-0.2-0.2-0.2c-0.1,0-0.1-0.1-0.1-0.2c0.1-0.2,0-0.3-0.1-0.3c0,0-0.1-0.1-0.1-0.1
	c0-0.1,0-0.2-0.1-0.2c0-0.1-0.1-0.1-0.1-0.2c0,0,0-0.1-0.1-0.1c0,0-0.1-0.1-0.1-0.1c0,0,0-0.1,0-0.1c0,0-0.1-0.1,0-0.2c0,0,0,0,0,0
	c-0.1,0-0.1-0.1-0.2-0.2c0-0.1-0.1-0.2-0.2-0.2c0,0,0,0,0,0c0-0.1,0-0.1-0.1-0.2c-0.1-0.1,0-0.2-0.1-0.2c0,0,0,0,0,0
	c0-0.1,0-0.1-0.1-0.2c-0.1,0-0.1-0.1-0.1-0.1c0,0,0-0.1,0-0.1c-0.1-0.1-0.2-0.2-0.2-0.3c0-0.1,0-0.1,0-0.2s-0.1-0.1-0.1-0.1
	c0-0.1,0-0.2-0.2-0.2c0,0,0,0,0,0c0,0,0-0.1,0-0.1c0-0.1-0.1-0.1-0.1-0.2c0-0.1-0.1-0.2-0.1-0.3c0,0,0,0,0-0.1
	c-0.1-0.1-0.1-0.2-0.2-0.3c0,0,0-0.1-0.1-0.1c0,0-0.1,0-0.1-0.1c-0.1-0.1-0.1-0.2-0.1-0.3c0,0,0-0.1,0-0.1c0,0,0-0.1,0.1-0.1
	c-0.2,0-0.2,0-0.2,0c0-0.1-0.1-0.2-0.1-0.3c0,0,0,0,0,0c-0.1,0-0.1-0.1-0.1-0.2s0-0.1-0.1-0.1c0,0,0,0,0,0c0-0.1,0-0.2-0.1-0.2
	c0,0,0,0,0,0c0,0-0.1-0.1-0.1-0.1c0,0,0-0.1-0.1-0.1c0,0-0.1-0.1-0.1-0.1c0,0,0,0,0,0c0-0.1,0-0.1-0.1-0.2c-0.1-0.1-0.1-0.2-0.1-0.3
	c0,0,0-0.1-0.1-0.1c-0.1-0.1-0.2-0.2-0.2-0.3c0-0.1-0.1-0.2-0.1-0.2c0,0-0.1-0.1-0.1-0.1c0-0.1,0-0.1-0.1-0.2
	c-0.1-0.1-0.1-0.2-0.2-0.3c-0.1-0.1-0.1-0.2-0.1-0.3c0,0,0-0.1,0-0.1c-0.1-0.1-0.2-0.3-0.2-0.4c0-0.1-0.1-0.3-0.2-0.4c0,0,0,0,0-0.1
	c0-0.1,0-0.2-0.1-0.3c-0.1-0.1-0.2-0.3-0.3-0.4c0,0,0-0.1,0-0.1c0-0.1,0-0.1-0.1-0.2c0,0,0-0.1-0.1-0.1c0-0.1,0-0.1-0.1-0.1
	c0,0,0,0,0-0.1c0,0,0-0.1,0-0.1c0,0-0.1-0.1-0.1-0.1c-0.1,0,0-0.1-0.1-0.1c-0.1,0-0.2-0.1-0.3,0c-0.1,0-0.1,0-0.2-0.1
	c0,0,0,0-0.1-0.1c0,0,0,0,0,0c-0.2,0.1-0.3,0.2-0.5,0.2c-0.1,0.1-0.3,0.2-0.4,0.2c0,0-0.1,0-0.1,0.1l-0.3,0.2l-0.2,0.1
	c0,0.1,0,0.3,0.1,0.4c0.1,0.1,0.1,0.2,0.2,0.2c0,0.1,0.1,0.2,0.1,0.2c0.1,0.1,0.1,0.2,0.2,0.2c0,0.1,0.1,0.2,0.1,0.2
	c0,0,0,0.1,0.1,0.1c0,0.1,0.1,0.2,0.1,0.3c0.1,0.1,0.2,0.2,0.2,0.3c0,0,0,0.1,0,0.1c0,0,0,0.1,0.1,0.1c0.1,0.1,0.1,0.3,0.2,0.4
	c0,0,0,0,0,0.1c0,0,0,0,0,0.1c0,0,0,0,0,0.1c0,0.1,0,0.2,0.1,0.3c0.1,0.1,0.1,0.2,0.2,0.3c0,0,0,0,0,0.1c0,0.1,0.1,0.1,0.1,0.2
	c0.1,0.1,0.1,0.2,0.1,0.3c0,0.1,0,0.2,0.1,0.2c0,0,0,0,0.1,0.1c0,0.1,0,0.2,0.1,0.2c0,0,0,0.1,0,0.1c0.1,0.2,0.2,0.3,0.3,0.5
	c0,0,0,0.1,0,0.1c0,0,0,0.1,0,0.1c0.1,0.1,0.1,0.2,0.1,0.3c0,0,0,0.1,0,0.1c0.1,0.1,0.2,0.2,0.2,0.3c0,0.1,0.1,0.2,0.1,0.2
	c0.1,0.1,0.1,0.2,0.2,0.3c0,0,0,0,0,0.1c0,0.2,0.1,0.3,0.2,0.4c0,0,0.1,0.1,0,0.2c0,0,0,0.1,0,0.1c0.1,0,0.2,0.1,0.2,0.2
	c0,0.1,0,0.2,0.1,0.3c0,0,0,0,0,0c0,0,0,0.1,0.1,0.1c0,0,0.1,0.1,0.1,0.1c0,0.1,0.1,0.2,0.2,0.3c0,0,0,0,0,0.1
	c0,0.1,0.1,0.2,0.1,0.2c0,0,0,0.1,0.1,0.1c0,0.1,0,0.1,0.1,0.2c0.1,0.2,0.2,0.3,0.4,0.5c0,0.1,0.1,0.1,0.1,0.2c0,0,0,0.1,0,0.1
	c0,0,0,0.1,0,0.1c0,0.1,0.1,0.2,0.1,0.2c0,0,0,0.1,0.1,0.1c0,0.1,0,0.1,0.1,0.2c0,0,0,0,0,0.1c0,0.1,0,0.1,0.1,0.2
	c0,0,0,0.1,0.1,0.1c0,0.1,0.1,0.1,0.1,0.2c0,0,0,0.1,0.1,0.1c0,0,0,0,0,0c0,0.1,0.1,0.2,0.2,0.2c0.1,0,0.1,0.1,0.1,0.2
	c-0.1,0.2,0,0.3,0.1,0.3c0,0,0.1,0.1,0.1,0.1c0,0.1,0,0.2,0.1,0.2c0,0.1,0.1,0.1,0.1,0.2c0,0,0,0.1,0.1,0.1c0,0,0.1,0.1,0.1,0.1
	c0,0,0,0.1,0,0.1c0,0,0.1,0.1,0,0.2c0,0,0,0,0,0c0.1,0,0.1,0.1,0.2,0.2c0,0.1,0.1,0.2,0.2,0.2c0,0,0,0,0,0c0,0.1,0,0.1,0.1,0.2
	c0.1,0.1,0,0.2,0.1,0.2c0,0,0,0,0,0c0,0.1,0,0.1,0.1,0.2c0.1,0,0.1,0.1,0.1,0.1c0,0,0,0.1,0,0.1c0.1,0.1,0.2,0.2,0.2,0.3
	c0,0.1,0,0.1,0,0.2s0.1,0.1,0.1,0.1c0,0.1,0,0.2,0.2,0.2c0,0,0,0,0,0c0,0,0,0.1,0,0.1c0,0.1,0.1,0.1,0.1,0.2c0,0.1,0.1,0.2,0.1,0.3
	c0,0,0,0,0,0.1c0.1,0.1,0.1,0.2,0.2,0.3c0,0,0,0.1,0.1,0.1c0,0,0.1,0,0.1,0.1c0.1,0.1,0.1,0.2,0.1,0.3c0,0,0,0.1,0,0.1
	c0,0,0,0.1-0.1,0.1c0.2,0,0.2,0,0.2,0c0,0.1,0.1,0.2,0.1,0.3c0,0,0,0,0,0c0.1,0,0.1,0.1,0.1,0.2c0,0,0,0.1,0.1,0.1c0,0,0,0,0,0
	c0,0.1,0,0.2,0.1,0.2c0,0,0,0,0,0c0,0,0.1,0.1,0.1,0.1c0,0,0,0.1,0.1,0.1c0,0,0.1,0.1,0.1,0.1c0,0,0,0,0,0c0,0.1,0,0.1,0.1,0.2
	c0.1,0.1,0.1,0.2,0.1,0.3c0,0,0,0.1,0.1,0.1c0.1,0.1,0.2,0.2,0.2,0.3c0,0.1,0.1,0.2,0.1,0.2c0,0,0.1,0.1,0.1,0.1
	c0,0.1,0,0.1,0.1,0.2c0.1,0.1,0.1,0.2,0.2,0.3c0.1,0.1,0.1,0.2,0.1,0.3c0,0,0,0.1,0,0.1c0.1,0.1,0.2,0.3,0.2,0.4
	c0,0.1,0.1,0.3,0.2,0.4c0,0,0,0,0,0.1c0,0.1,0,0.2,0.1,0.3c0.1,0.1,0.2,0.3,0.3,0.4c0,0,0,0.1,0,0.1c0,0.1,0,0.1,0.1,0.2
	c0,0,0,0.1,0.1,0.1c0,0.1,0,0.1,0.1,0.1c0,0,0,0,0,0.1c0,0,0,0.1,0,0.1c0,0,0.1,0.1,0.1,0.1c0.1,0,0,0.1,0.1,0.1
	c0.1,0,0.2,0.1,0.3,0c0.1,0,0.1,0,0.2,0.1c0,0,0,0,0.1,0.1c0,0,0,0,0,0c0.2-0.1,0.3-0.2,0.5-0.2
	C273.6,302.9,273.7,302.8,273.9,302.8z"/>
<path class="st1" d="M323.3,300.2c0,0,0.1,0,0.1-0.1l0.3-0.2l0.2-0.1c0-0.1,0-0.3-0.1-0.4c-0.1-0.1-0.1-0.2-0.2-0.2
	c0-0.1-0.1-0.2-0.1-0.2c-0.1-0.1-0.1-0.2-0.2-0.2c0-0.1-0.1-0.2-0.1-0.2c0,0,0-0.1-0.1-0.1c0-0.1-0.1-0.2-0.1-0.3
	c-0.1-0.1-0.1-0.2-0.2-0.3c0,0,0-0.1,0-0.1c0,0,0-0.1-0.1-0.1c-0.1-0.1-0.1-0.3-0.2-0.4c0,0,0,0,0-0.1s0,0,0-0.1s0,0,0-0.1
	c0-0.1,0-0.2-0.1-0.3c-0.1-0.1-0.1-0.2-0.2-0.3c0,0,0,0,0-0.1c0-0.1-0.1-0.1-0.1-0.2c-0.1-0.1-0.1-0.2-0.1-0.3c0-0.1,0-0.2-0.1-0.2
	c0,0,0,0-0.1-0.1c0-0.1,0-0.2-0.1-0.2c0,0,0-0.1,0-0.1c-0.1-0.2-0.2-0.3-0.3-0.5c0,0,0-0.1,0-0.1c0,0,0-0.1,0-0.1
	c-0.1-0.1-0.1-0.2-0.1-0.3c0,0,0-0.1,0-0.1c-0.1-0.1-0.2-0.2-0.2-0.3c0-0.1-0.1-0.2-0.1-0.2c-0.1-0.1-0.1-0.2-0.2-0.3c0,0,0,0,0-0.1
	c0-0.2-0.1-0.3-0.2-0.4c0,0-0.1-0.1,0-0.2c0,0,0-0.1,0-0.1c-0.1,0-0.2-0.1-0.2-0.2c0-0.1,0-0.2-0.1-0.3c0,0,0,0,0,0
	c0,0,0-0.1-0.1-0.1c0,0-0.1-0.1-0.1-0.1c0-0.1-0.1-0.2-0.2-0.3c0,0,0,0,0-0.1c0-0.1-0.1-0.2-0.1-0.2c0,0,0-0.1-0.1-0.1
	c0-0.1,0-0.1-0.1-0.2c-0.1-0.2-0.2-0.3-0.4-0.5c0-0.1-0.1-0.1-0.1-0.2c0,0,0-0.1,0-0.1c0,0,0-0.1,0-0.1c0-0.1-0.1-0.2-0.1-0.2
	c0,0-0.1-0.1-0.1-0.1c0-0.1,0-0.1-0.1-0.2c0,0,0,0,0-0.1c0-0.1,0-0.1-0.1-0.2c0,0,0-0.1-0.1-0.1c0-0.1,0-0.1-0.1-0.2
	c0,0,0-0.1-0.1-0.1c0,0,0,0,0,0c0-0.1-0.1-0.2-0.2-0.2c-0.1,0-0.1-0.1-0.1-0.2c0.1-0.2,0-0.3-0.1-0.3c0,0-0.1-0.1-0.1-0.1
	c0-0.1,0-0.2-0.1-0.2c0-0.1-0.1-0.1-0.1-0.2c0,0,0-0.1-0.1-0.1c0,0-0.1-0.1-0.1-0.1c0,0,0-0.1,0-0.1c0,0-0.1-0.1,0-0.2c0,0,0,0,0,0
	c-0.1,0-0.1-0.1-0.2-0.2c0-0.1-0.1-0.2-0.2-0.2c0,0,0,0,0,0c0-0.1,0-0.1-0.1-0.2c-0.1-0.1,0-0.2-0.1-0.2c0,0,0,0,0,0
	c0-0.1,0-0.1-0.1-0.2c-0.1,0-0.1-0.1-0.1-0.1c0,0,0-0.1,0-0.1c-0.1-0.1-0.2-0.2-0.2-0.3c0-0.1,0-0.1,0-0.2s-0.1-0.1-0.1-0.1
	c0-0.1,0-0.2-0.2-0.2c0,0,0,0,0,0c0,0,0-0.1,0-0.1c0-0.1-0.1-0.1-0.1-0.2c0-0.1-0.1-0.2-0.1-0.3c0,0,0,0,0-0.1
	c-0.1-0.1-0.1-0.2-0.2-0.3c0,0,0-0.1-0.1-0.1c0,0-0.1,0-0.1-0.1c-0.1-0.1-0.1-0.2-0.1-0.3c0,0,0-0.1,0-0.1c0,0,0-0.1,0.1-0.1
	c-0.2,0-0.2,0-0.2,0c0-0.1-0.1-0.2-0.1-0.3c0,0,0,0,0,0c-0.1,0-0.1-0.1-0.1-0.2s0-0.1-0.1-0.1c0,0,0,0,0,0c0-0.1,0-0.2-0.1-0.2
	c0,0,0,0,0,0c0,0-0.1-0.1-0.1-0.1c0,0,0-0.1-0.1-0.1c0,0-0.1-0.1-0.1-0.1c0,0,0,0,0,0c0-0.1,0-0.1-0.1-0.2c-0.1-0.1-0.1-0.2-0.1-0.3
	c0,0,0-0.1-0.1-0.1c-0.1-0.1-0.2-0.2-0.2-0.3c0-0.1-0.1-0.2-0.1-0.2c0,0-0.1-0.1-0.1-0.1c0-0.1,0-0.1-0.1-0.2
	c-0.1-0.1-0.1-0.2-0.2-0.3c-0.1-0.1-0.1-0.2-0.1-0.3c0,0,0-0.1,0-0.1c-0.1-0.1-0.2-0.3-0.2-0.4c0-0.1-0.1-0.3-0.2-0.4c0,0,0,0,0-0.1
	c0-0.1,0-0.2-0.1-0.3c-0.1-0.1-0.2-0.3-0.3-0.4c0,0,0-0.1,0-0.1c0-0.1,0-0.1-0.1-0.2c0,0,0-0.1-0.1-0.1c0-0.1,0-0.1-0.1-0.1
	c0,0,0,0,0-0.1c0,0,0-0.1,0-0.1c0,0-0.1-0.1-0.1-0.1c-0.1,0,0-0.1-0.1-0.1c-0.1,0-0.2-0.1-0.3,0c-0.1,0-0.1,0-0.2-0.1
	c0,0,0,0-0.1-0.1c0,0,0,0,0,0c-0.2,0.1-0.3,0.2-0.5,0.2c-0.1,0.1-0.3,0.2-0.4,0.2c0,0-0.1,0-0.1,0.1l-0.3,0.2l-0.2,0.1
	c0,0.1,0,0.3,0.1,0.4c0.1,0.1,0.1,0.2,0.2,0.2c0,0.1,0.1,0.2,0.1,0.2c0.1,0.1,0.1,0.2,0.2,0.2c0,0.1,0.1,0.2,0.1,0.2
	c0,0,0,0.1,0.1,0.1c0,0.1,0.1,0.2,0.1,0.3c0.1,0.1,0.2,0.2,0.2,0.3c0,0,0,0.1,0,0.1c0,0,0,0.1,0.1,0.1c0.1,0.1,0.1,0.3,0.2,0.4
	c0,0,0,0,0,0.1c0,0,0,0,0,0.1c0,0,0,0,0,0.1c0,0.1,0,0.2,0.1,0.3c0.1,0.1,0.1,0.2,0.2,0.3c0,0,0,0,0,0.1c0,0.1,0.1,0.1,0.1,0.2
	c0.1,0.1,0.1,0.2,0.1,0.3c0,0.1,0,0.2,0.1,0.2c0,0,0,0,0.1,0.1c0,0.1,0,0.2,0.1,0.2c0,0,0,0.1,0,0.1c0.1,0.2,0.2,0.3,0.3,0.5
	c0,0,0,0.1,0,0.1c0,0,0,0.1,0,0.1c0.1,0.1,0.1,0.2,0.1,0.3c0,0,0,0.1,0,0.1c0.1,0.1,0.2,0.2,0.2,0.3c0,0.1,0.1,0.2,0.1,0.2
	c0.1,0.1,0.1,0.2,0.2,0.3c0,0,0,0,0,0.1c0,0.2,0.1,0.3,0.2,0.4c0,0,0.1,0.1,0,0.2c0,0,0,0.1,0,0.1c0.1,0,0.2,0.1,0.2,0.2
	c0,0.1,0,0.2,0.1,0.3c0,0,0,0,0,0c0,0,0,0.1,0.1,0.1c0,0,0.1,0.1,0.1,0.1c0,0.1,0.1,0.2,0.2,0.3c0,0,0,0,0,0.1
	c0,0.1,0.1,0.2,0.1,0.2c0,0,0,0.1,0.1,0.1c0,0.1,0,0.1,0.1,0.2c0.1,0.2,0.2,0.3,0.4,0.5c0,0.1,0.1,0.1,0.1,0.2c0,0,0,0.1,0,0.1
	c0,0,0,0.1,0,0.1c0,0.1,0.1,0.2,0.1,0.2c0,0,0,0.1,0.1,0.1c0,0.1,0,0.1,0.1,0.2c0,0,0,0,0,0.1c0,0.1,0,0.1,0.1,0.2
	c0,0,0,0.1,0.1,0.1c0,0.1,0.1,0.1,0.1,0.2c0,0,0,0.1,0.1,0.1c0,0,0,0,0,0c0,0.1,0.1,0.2,0.2,0.2c0.1,0,0.1,0.1,0.1,0.2
	c-0.1,0.2,0,0.3,0.1,0.3c0,0,0.1,0.1,0.1,0.1c0,0.1,0,0.2,0.1,0.2c0,0.1,0.1,0.1,0.1,0.2c0,0,0,0.1,0.1,0.1c0,0,0.1,0.1,0.1,0.1
	c0,0,0,0.1,0,0.1c0,0,0.1,0.1,0,0.2c0,0,0,0,0,0c0.1,0,0.1,0.1,0.2,0.2c0,0.1,0.1,0.2,0.2,0.2c0,0,0,0,0,0c0,0.1,0,0.1,0.1,0.2
	c0.1,0.1,0,0.2,0.1,0.2c0,0,0,0,0,0c0,0.1,0,0.1,0.1,0.2c0.1,0,0.1,0.1,0.1,0.1c0,0,0,0.1,0,0.1c0.1,0.1,0.2,0.2,0.2,0.3
	c0,0.1,0,0.1,0,0.2s0.1,0.1,0.1,0.1c0,0.1,0,0.2,0.2,0.2c0,0,0,0,0,0c0,0,0,0.1,0,0.1c0,0.1,0.1,0.1,0.1,0.2c0,0.1,0.1,0.2,0.1,0.3
	c0,0,0,0,0,0.1c0.1,0.1,0.1,0.2,0.2,0.3c0,0,0,0.1,0.1,0.1c0,0,0.1,0,0.1,0.1c0.1,0.1,0.1,0.2,0.1,0.3c0,0,0,0.1,0,0.1
	c0,0,0,0.1-0.1,0.1c0.2,0,0.2,0,0.2,0c0,0.1,0.1,0.2,0.1,0.3c0,0,0,0,0,0c0.1,0,0.1,0.1,0.1,0.2c0,0,0,0.1,0.1,0.1c0,0,0,0,0,0
	c0,0.1,0,0.2,0.1,0.2c0,0,0,0,0,0c0,0,0.1,0.1,0.1,0.1c0,0,0,0.1,0.1,0.1c0,0,0.1,0.1,0.1,0.1c0,0,0,0,0,0c0,0.1,0,0.1,0.1,0.2
	c0.1,0.1,0.1,0.2,0.1,0.3c0,0,0,0.1,0.1,0.1c0.1,0.1,0.2,0.2,0.2,0.3c0,0.1,0.1,0.2,0.1,0.2c0,0,0.1,0.1,0.1,0.1
	c0,0.1,0,0.1,0.1,0.2c0.1,0.1,0.1,0.2,0.2,0.3c0.1,0.1,0.1,0.2,0.1,0.3c0,0,0,0.1,0,0.1c0.1,0.1,0.2,0.3,0.2,0.4
	c0,0.1,0.1,0.3,0.2,0.4c0,0,0,0,0,0.1c0,0.1,0,0.2,0.1,0.3c0.1,0.1,0.2,0.3,0.3,0.4c0,0,0,0.1,0,0.1c0,0.1,0,0.1,0.1,0.2
	c0,0,0,0.1,0.1,0.1c0,0.1,0,0.1,0.1,0.1c0,0,0,0,0,0.1c0,0,0,0.1,0,0.1c0,0,0.1,0.1,0.1,0.1c0.1,0,0,0.1,0.1,0.1
	c0.1,0,0.2,0.1,0.3,0c0.1,0,0.1,0,0.2,0.1c0,0,0,0,0.1,0.1c0,0,0,0,0,0c0.2-0.1,0.3-0.2,0.5-0.2C323,300.3,323.1,300.2,323.3,300.2z
	"/>
</svg>
