<svg xmlns="http://www.w3.org/2000/svg" viewBox="0 0 952 368.143"><defs><style>.cls-1{fill:#1858a8;}.cls-2{fill:#ffe7e8;}.cls-3{fill:#0046b7;}</style></defs><title>for</title><g id="Livello_1" data-name="Livello 1"><path class="cls-1" d="M520.837,296.915c.133-.241.229-.523.355-.778a2.214,2.214,0,0,1,.22-.307l1.074.325a1.452,1.452,0,0,0,.19-.441c.049-.224.421-.45.711-.537,0-.13-.012-.259-.017-.388a8.92,8.92,0,0,0-.07-1.608,13.941,13.941,0,0,1,.4-7.008c.125-.458.21-.929.368-1.375a3.8,3.8,0,0,0-.047-2.574c-.232-.7-.429-1.4-.6-2.11a10.909,10.909,0,0,1-.273-4.462,2.543,2.543,0,0,0-.186-.984,5.645,5.645,0,0,1,.088-3.573,1.836,1.836,0,0,0,.139-.785,9.1,9.1,0,0,1,.414-3.6,1.137,1.137,0,0,0-.1-.953,1.552,1.552,0,0,1-.342-.47l.082-.058a18.29,18.29,0,0,0,.125-5.173,3.739,3.739,0,0,1,.081-1.59,8.4,8.4,0,0,0-.3-4.979,3.947,3.947,0,0,1-.125-.557,2.973,2.973,0,0,1,.253-.522,5.139,5.139,0,0,0,.388-3.364,2.877,2.877,0,0,0-1.081-1.846,2.456,2.456,0,0,1,.2-1.327,1.085,1.085,0,0,0,.072-.775,6.89,6.89,0,0,1,0-3.018,17.334,17.334,0,0,0,0-3.424,5.491,5.491,0,0,1-.02-.617c0-.4.016-.8.023-1.2,0-.134.078-.276.052-.4-.592-2.853.147-5.8-.588-8.641a2.1,2.1,0,0,1-.058-.8c.223-1.53.485-3.058.707-4.589.145-1,.252-2.01.358-3.017a.98.98,0,0,0-.074-.592,5.13,5.13,0,0,1-.48-2.951c-.013-.468-.185-.931-.2-1.4a12.907,12.907,0,0,1,.015-3.36,6.814,6.814,0,0,0-.236-3.192c-.362-1.314-.282-2.662-.666-3.962.394-.361.734-.675,1.072-.985a2.177,2.177,0,0,0-.152-.345c-.214-.326-.554-.617-.634-.969-.018-.079-.016-.165-.03-.247.02-.141.044-.283.062-.424a4.379,4.379,0,0,0-.057-1.185c.1-.795.208-1.588.32-2.381-.269.006-.538,0-.806,0-.195-1.535-.341-3.076-.48-4.617-.042-.467.007-.942.014-1.477.308-.246.637-.471.921-.745a7.864,7.864,0,0,0,.64-.795,9.463,9.463,0,0,0-.426-.966c-.99-1.7-1-3.592-1.082-5.471a8.91,8.91,0,0,0-.069-1.607,12.373,12.373,0,0,1-.016-5.218,8.427,8.427,0,0,1-1.229.037,26.538,26.538,0,0,0-3.489.055,3.507,3.507,0,0,1,.051,1.243,8.985,8.985,0,0,0,0,3.225,73.129,73.129,0,0,1-.092,10.735,10.015,10.015,0,0,0,.126,3.818,1.881,1.881,0,0,1,.054,1.007c-.472,1.694.113,3.346.151,5.018.035,1.541.177,3.079.279,4.619.113,0,.227,0,.34,0,.008.5.012,1.01-.018,1.514a14.38,14.38,0,0,0,.155,2.02c.071.871.158,1.742.2,2.615a26.728,26.728,0,0,0,.127,4.243.477.477,0,0,1,.009.2c-.46,1.85-.046,3.76-.379,5.619a3.2,3.2,0,0,0-.074,1c.2,1.327.49,2.641.639,3.975a13.221,13.221,0,0,1-.062,2.417c-.036.47-.35.99-.226,1.388.592,1.909-.063,3.9.46,5.8a5,5,0,0,1,.06,2.8,4.667,4.667,0,0,0,.026,1.583c.056.715.129,1.428.194,2.141.048.523.084,1.046.111,1.569a28.1,28.1,0,0,1-.341,4.233,5.751,5.751,0,0,0-.159,1.4,85.532,85.532,0,0,1,.242,9.111c-.092,2.566.378,5.1.289,7.66-.023.7-.07,1.4-.114,2.095q-.052.873-.1,1.745c-.031.607-.036,1.216-.06,1.823a7.214,7.214,0,0,1-.1,1.611,3.237,3.237,0,0,0,.19,2.552,1.176,1.176,0,0,1,.128.589c-.083,2.161.22,4.316.014,6.486a23.5,23.5,0,0,0,.145,3.427,4.7,4.7,0,0,1,.073,1.408,8.968,8.968,0,0,0,0,3.226c.149,1.852.177,3.7.142,5.552A14.738,14.738,0,0,1,520.837,296.915Z"/><path class="cls-1" d="M490.577,185.789a3.362,3.362,0,0,1-.757-1.8,4.643,4.643,0,0,1,.347-2.559.973.973,0,0,0,.005-.932,2.3,2.3,0,0,0-1.494-1.361c-.5-.207-1.053-.333-1.564-.491a4.854,4.854,0,0,1-1.14-3.058,6.567,6.567,0,0,1-2.942-1.111,2.193,2.193,0,0,1-1.251-2.513,1.16,1.16,0,0,0-.26-1.321c-.9.016-1.875-.382-2.878-.032a3.9,3.9,0,0,1-1.858.059,21.014,21.014,0,0,0-5.282-.132,8.49,8.49,0,0,1-3.558-.218,5.656,5.656,0,0,0-2.24-.176c-2.464.255-4.933.467-7.4.728a9.064,9.064,0,0,1-3.719.121,5.244,5.244,0,0,0-1.509.069c-.695.026-1.391.039-2.086.049-.63.008-1.262-.028-1.89.015a14.457,14.457,0,0,1-3.221.072,2.153,2.153,0,0,0-1.124.074,5.774,5.774,0,0,1-2.977.211,25.258,25.258,0,0,1-5.228-.6,2.287,2.287,0,0,0-1.3.065,3.472,3.472,0,0,1-1.857.084,2.165,2.165,0,0,0-.927-.081,4.273,4.273,0,0,1-2.236-.055,5.379,5.379,0,0,0-2.438.162c-.364.1-.774.338-1.083.27a10.853,10.853,0,0,0-2.988.184c-.736.038-1.486.293-2.186-.136-.173-.106-.491-.038-.741-.057-.941-.07-1.882-.136-2.822-.215-1.378-.116-2.751-.274-4.134-.348a9.486,9.486,0,0,0-1.62.175c-.255.476-.459.854-.686,1.276a20.44,20.44,0,0,0-2.3-.347,22.448,22.448,0,0,0-2.278.143,1.8,1.8,0,0,1-.565-.038c-.077-.022-.154-.041-.232-.062a1.4,1.4,0,0,0,.026-.4,9.081,9.081,0,0,1,.414-3.6,1.136,1.136,0,0,0-.1-.953,1.552,1.552,0,0,1-.342-.47l.082-.058a18.289,18.289,0,0,0,.125-5.173,3.739,3.739,0,0,1,.081-1.59,8.4,8.4,0,0,0-.3-4.979,3.947,3.947,0,0,1-.125-.557,3.016,3.016,0,0,1,.253-.523,5.136,5.136,0,0,0,.388-3.363,2.877,2.877,0,0,0-1.081-1.846,2.461,2.461,0,0,1,.2-1.328,1.076,1.076,0,0,0,.072-.774,6.89,6.89,0,0,1,0-3.018,17.334,17.334,0,0,0,0-3.424,5.5,5.5,0,0,1-.02-.617c0-.4.016-.8.023-1.2,0-.134.078-.276.052-.4-.592-2.853.147-5.8-.588-8.641a2.1,2.1,0,0,1-.058-.8c.223-1.53.485-3.058.707-4.59.145-1,.252-2.009.358-3.016a.98.98,0,0,0-.074-.592,5.13,5.13,0,0,1-.48-2.951c-.013-.468-.185-.931-.195-1.4a12.907,12.907,0,0,1,.015-3.36,6.814,6.814,0,0,0-.236-3.192c-.362-1.314-.282-2.662-.666-3.962l1.071-.985a2.09,2.09,0,0,0-.151-.345c-.214-.326-.554-.617-.634-.97-.018-.079-.016-.164-.03-.246.02-.142.044-.283.062-.424a4.377,4.377,0,0,0-.057-1.185c.1-.8.208-1.588.32-2.381-.269.006-.538,0-.806,0-.195-1.534-.341-3.076-.48-4.617-.042-.466.007-.942.014-1.477.308-.246.637-.471.921-.745a7.978,7.978,0,0,0,.64-.8,9.344,9.344,0,0,0-.426-.965c-.99-1.7-1-3.593-1.082-5.472A8.91,8.91,0,0,0,404,82.914a12.368,12.368,0,0,1-.016-5.217,8.568,8.568,0,0,1-1.229.036,26.538,26.538,0,0,0-3.489.055,3.507,3.507,0,0,1,.051,1.243,8.985,8.985,0,0,0,0,3.225,73.129,73.129,0,0,1-.092,10.735,10.009,10.009,0,0,0,.126,3.817,1.885,1.885,0,0,1,.054,1.008c-.472,1.694.113,3.346.151,5.018.035,1.54.177,3.079.279,4.619.113,0,.227,0,.34,0,.008.5.012,1.011-.018,1.515a14.377,14.377,0,0,0,.155,2.019c.071.871.158,1.742.2,2.615a26.851,26.851,0,0,0,.128,4.243.477.477,0,0,1,.009.2c-.46,1.85-.046,3.76-.379,5.619a3.2,3.2,0,0,0-.074,1.005c.2,1.327.49,2.641.639,3.975a13.221,13.221,0,0,1-.062,2.417c-.036.47-.35.99-.226,1.388.592,1.909-.063,3.9.46,5.8a5,5,0,0,1,.06,2.8,4.667,4.667,0,0,0,.026,1.583c.056.715.129,1.428.194,2.141.048.523.084,1.046.111,1.569a28.106,28.106,0,0,1-.341,4.233,5.751,5.751,0,0,0-.159,1.4,85.532,85.532,0,0,1,.242,9.111c-.092,2.566.378,5.1.289,7.66-.023.7-.07,1.4-.114,2.095-.018.306-.034.613-.05.919-2.595-.219-5.22.092-7.823-.009-1.634-.063-3.3.191-4.922.072a27.788,27.788,0,0,0-5.115.242,13.286,13.286,0,0,1-3.024-.028c-1.289-.15-2.556-.662-3.892-.061-.093.042-.249-.042-.372-.03-.559.057-1.121.111-1.675.2a15.852,15.852,0,0,1-1.861.335c-1.766.065-3.538.12-5.3.052a3.66,3.66,0,0,0-2.33.45,2.3,2.3,0,0,1-1.414.344,4.49,4.49,0,0,0-2.233.3,13.626,13.626,0,0,1-4.485.394c-.437.014-.879-.146-1.313-.119a18.461,18.461,0,0,1-5.474-.017,5.773,5.773,0,0,1-3.632-.542,6.057,6.057,0,0,0-3.869-.009c-.884.24-1.856.5-2.108,1.5-.054.215-.415.391-.654.564s-.633.279-.742.491a5.043,5.043,0,0,1-1.84,1.663,1.682,1.682,0,0,0-.843,1.224,3.023,3.023,0,0,1-.529,1.033c-.2.325-.431.634-.757,1.109a7.307,7.307,0,0,0,1.232.069c.432-.056.85-.278,1.276-.292a1.033,1.033,0,0,1,.721.4c.185.252.018.566-.3.685a9.327,9.327,0,0,1-1.611.461,4.611,4.611,0,0,0-2.338.986c.97.371.073,1.048.373,1.422.5.619-.217,1.256.171,1.819-.7.712-.212,1.291.161,1.929a11.329,11.329,0,0,1,.671,1.713c-1.031.705-.917,1.778-1.5,2.651l1.027.882c-.1.2-.126.332-.212.395a1.624,1.624,0,0,0-.376,2.26c.339.733,1.242.815,2.1.775.254-.013.509-.034.761-.025a1.767,1.767,0,0,1,.738.09c1.018.583,2.185,1.052,2.323,2.322a2.279,2.279,0,0,0,.472,1.2,9.741,9.741,0,0,0,2.929,2.627,8.873,8.873,0,0,1,1.563,1.124,2.178,2.178,0,0,0,1.706.521c1.2-.126,2.406-.213,3.6-.374a65.794,65.794,0,0,1,8.156-.32c1.578-.015,3.155.033,4.733.014a5.37,5.37,0,0,0,1.5-.222,4.645,4.645,0,0,1,1.861-.176,14.072,14.072,0,0,0,1.9-.075c.569-.028,1.138-.062,1.707-.077.756-.019,1.515.01,2.269-.04,1.393-.092,2.79-.334,4.176-.319a56.59,56.59,0,0,0,7.387-.129,10.768,10.768,0,0,1,1.136,0c.756-.011,1.512-.012,2.267-.049,2.593-.128,5.189-.372,7.776-.369,1.694,0,3.385.193,5.1.219a18.632,18.632,0,0,0,4.318-.42,15.676,15.676,0,0,1,3.01-.3c1.511-.029,3.022.046,4.533.07a2.251,2.251,0,0,0,.567-.062,17.93,17.93,0,0,1,5.075-.234,28.149,28.149,0,0,0,5.494-.142,47.347,47.347,0,0,1,7.2-.366,2.043,2.043,0,0,1,.9.169,1.962,1.962,0,0,0,1.443.052,6.58,6.58,0,0,1,2.237-.238c1.936.278,3.908-.262,5.824.119a.77.77,0,0,0,.374-.032,22.87,22.87,0,0,1,4.32-.608,6.7,6.7,0,0,1,2.634.092,4.2,4.2,0,0,0,2.944-.3,2.575,2.575,0,0,1,1.248-.359c1.341.161,2.678-.231,3.979-.11a24.81,24.81,0,0,0,4.356-.171c1.075-.088,2.15-.181,3.226-.228.882-.04,1.766-.016,2.649-.021.693,0,1.388-.017,2.081-.011a35.788,35.788,0,0,0,5.307-.093,13.319,13.319,0,0,1,3.03-.153,17.446,17.446,0,0,0,3.787-.216,3.245,3.245,0,0,0,2.318-1.031,4.155,4.155,0,0,1,1.528-1.2c.094-.052.131-.182.207-.295l-.485-.923c.355-.168.719-.485.981-.438a5.017,5.017,0,0,0,2.215-.371c1.9-.473,1.974-.519,2.227-2.219.288-1.944.5-3.894.806-5.837A1.744,1.744,0,0,0,490.577,185.789Z"/><path class="cls-1" d="M640.653,193.044c-.037-1.928-.119-3.861-.149-5.787a2.774,2.774,0,0,0-.318-1.367,5.027,5.027,0,0,1-.663-1.776,7.165,7.165,0,0,1-.069-2.537,1.53,1.53,0,0,0-.1-.924,2.253,2.253,0,0,0-1.067-1.341,9.823,9.823,0,0,0-1.013-.476,7.38,7.38,0,0,1-1.037-3.024,3.774,3.774,0,0,1-1.927-1.085,2.97,2.97,0,0,1-1.044-2.482,1.784,1.784,0,0,0-.306-1.308c-.552.021-1.192-.368-1.768-.015a1.5,1.5,0,0,1-1.133.069,8.12,8.12,0,0,0-3.255-.1,3.4,3.4,0,0,1-2.207-.2,2.3,2.3,0,0,0-1.394-.162c-1.483.267-2.974.491-4.456.763-.746.137-1.448.512-2.268.141-.281-.127-.609.054-.918.076-.424.03-.849.047-1.274.06-.386.012-.777-.02-1.157.026a5.412,5.412,0,0,1-1.968.088.828.828,0,0,0-.682.081,2.206,2.206,0,0,1-1.8.226,10.48,10.48,0,0,1-3.274-.568.887.887,0,0,0-.788.071,1.335,1.335,0,0,1-1.13.094c-.194-.051-.426-.161-.578-.074a1.693,1.693,0,0,1-1.377-.042,2.033,2.033,0,0,0-1.478.173c-.212.1-.437.339-.634.274a1.582,1.582,0,0,0-.854-.013,1.413,1.413,0,0,0,.026-.4,9.1,9.1,0,0,1,.414-3.6,1.136,1.136,0,0,0-.1-.953,1.552,1.552,0,0,1-.342-.47l.082-.058a18.289,18.289,0,0,0,.125-5.173,3.739,3.739,0,0,1,.081-1.59,8.388,8.388,0,0,0-.3-4.979,3.812,3.812,0,0,1-.125-.557,3.016,3.016,0,0,1,.253-.523,5.136,5.136,0,0,0,.388-3.363A2.877,2.877,0,0,0,598,148.394a2.461,2.461,0,0,1,.2-1.328,1.082,1.082,0,0,0,.072-.774,6.89,6.89,0,0,1,0-3.018,17.334,17.334,0,0,0,0-3.424,5.5,5.5,0,0,1-.02-.617c0-.4.016-.8.023-1.2,0-.134.078-.276.052-.4-.592-2.853.147-5.8-.588-8.641a2.1,2.1,0,0,1-.058-.8c.223-1.53.485-3.058.707-4.59.145-1,.252-2.009.358-3.016a.973.973,0,0,0-.074-.592,5.13,5.13,0,0,1-.48-2.951c-.013-.468-.185-.931-.195-1.4a12.907,12.907,0,0,1,.015-3.36,6.814,6.814,0,0,0-.236-3.192c-.362-1.314-.282-2.662-.666-3.962l1.072-.985a2.177,2.177,0,0,0-.152-.345c-.214-.326-.554-.617-.634-.97-.018-.079-.016-.164-.03-.246.02-.142.044-.283.062-.424a4.377,4.377,0,0,0-.057-1.185c.1-.8.208-1.588.32-2.381-.269.006-.538,0-.806,0-.195-1.534-.341-3.076-.48-4.617-.042-.466.007-.942.014-1.477.308-.246.637-.471.921-.745a7.978,7.978,0,0,0,.64-.8,9.344,9.344,0,0,0-.426-.965c-.99-1.7-1-3.593-1.082-5.472a8.91,8.91,0,0,0-.069-1.607,12.368,12.368,0,0,1-.016-5.217,8.568,8.568,0,0,1-1.229.036,26.538,26.538,0,0,0-3.489.055,3.507,3.507,0,0,1,.051,1.243,8.985,8.985,0,0,0,0,3.225,73.129,73.129,0,0,1-.092,10.735,9.989,9.989,0,0,0,.126,3.817,1.885,1.885,0,0,1,.054,1.008c-.472,1.694.113,3.346.151,5.018.035,1.54.177,3.079.279,4.619.113,0,.227,0,.34,0,.008.5.012,1.011-.018,1.515a14.377,14.377,0,0,0,.155,2.019c.071.871.158,1.742.2,2.615a26.731,26.731,0,0,0,.127,4.243.477.477,0,0,1,.009.2c-.46,1.85-.046,3.76-.379,5.619a3.234,3.234,0,0,0-.075,1.005c.2,1.327.491,2.641.64,3.975a13.221,13.221,0,0,1-.062,2.417c-.036.47-.35.99-.226,1.388.592,1.909-.063,3.9.46,5.8a5,5,0,0,1,.06,2.8,4.667,4.667,0,0,0,.026,1.583c.056.715.129,1.428.194,2.141.048.523.084,1.046.111,1.569a28.106,28.106,0,0,1-.341,4.233,5.751,5.751,0,0,0-.159,1.4,85.532,85.532,0,0,1,.242,9.111c-.092,2.566.378,5.1.289,7.66-.023.7-.07,1.4-.114,2.095-.017.281-.031.56-.046.841-.739-.1-1.478-.216-2.215-.273a3.522,3.522,0,0,0-.975.182c-.1.473-.187.849-.28,1.269a8.832,8.832,0,0,0-1.45-.332,8.39,8.39,0,0,0-1.382.155.711.711,0,0,1-.35-.035,1.7,1.7,0,0,0-1.81,0c-.141.106-.38.027-.572-.02-1.893-.461-3.717,0-5.583-.1-1.009-.054-2,.207-3.011.1a10.39,10.39,0,0,0-3.111.269,5.091,5.091,0,0,1-1.858-.011c-.807-.142-1.641-.642-2.395-.039-.052.042-.157-.041-.231-.028-.337.06-.675.116-1.006.206a6.03,6.03,0,0,1-1.1.342,26.558,26.558,0,0,1-3.243.081,1.446,1.446,0,0,0-1.38.459.928.928,0,0,1-.829.349,1.706,1.706,0,0,0-1.336.311,5.117,5.117,0,0,1-2.708.415c-.267.015-.555-.14-.819-.111a7.067,7.067,0,0,1-3.36.013c-.778.366-1.567-.114-2.287-.516a2.394,2.394,0,0,0-2.374.013,1.553,1.553,0,0,0-1.128,1.5c-.009.213-.211.389-.339.561s-.358.28-.4.492a3.776,3.776,0,0,1-.945,1.658,1.718,1.718,0,0,0-.382,1.217,3.627,3.627,0,0,1-.211,1.026c-.085.323-.194.631-.341,1.1a2.871,2.871,0,0,0,.762.062c.26-.058.492-.28.751-.3.15-.01.377.2.487.393a.528.528,0,0,1-.108.68,3.746,3.746,0,0,1-.938.465,2.127,2.127,0,0,0-1.325.992c.636.361.161,1.037.386,1.406.372.61,0,1.245.305,1.8-.349.709.012,1.28.311,1.91a17.087,17.087,0,0,1,.6,1.694c-.555.7-.366,1.766-.63,2.634.253.3.465.557.727.869a1.543,1.543,0,0,1-.086.392,2.283,2.283,0,0,0,.018,2.241,1.186,1.186,0,0,0,1.377.756,3.42,3.42,0,0,1,.464-.028.749.749,0,0,1,.462.084,3.573,3.573,0,0,1,1.681,2.288,3.435,3.435,0,0,0,.423,1.189,9.594,9.594,0,0,0,2.086,2.587,7.615,7.615,0,0,1,1.083,1.1,1.161,1.161,0,0,0,1.1.508c.722-.132,1.452-.225,2.167-.391a24.6,24.6,0,0,1,4.968-.363c.966-.023,1.939.015,2.9-.012a2.021,2.021,0,0,0,.895-.228,1.76,1.76,0,0,1,1.122-.186,5.223,5.223,0,0,0,1.155-.084c.346-.03.691-.067,1.039-.086.462-.023.93,0,1.387-.052a20.67,20.67,0,0,1,2.526-.34,21.206,21.206,0,0,0,4.517-.169,4.169,4.169,0,0,1,.7,0c.462-.014.926-.02,1.385-.061,1.577-.141,3.142-.4,4.729-.409,1.04-.009,2.1.173,3.15.189a6.952,6.952,0,0,0,2.6-.44,5.789,5.789,0,0,1,1.812-.315c.924-.036,1.859.029,2.789.044a.831.831,0,0,0,.341-.064,6.746,6.746,0,0,1,3.087-.261,10.6,10.6,0,0,0,3.355-.171,17.645,17.645,0,0,1,4.376-.4.929.929,0,0,1,.57.162.8.8,0,0,0,.89.044,2.465,2.465,0,0,1,1.346-.249c1.219.264,2.368-.281,3.586.086a.3.3,0,0,0,.226-.034,8.537,8.537,0,0,1,2.583-.627,2.63,2.63,0,0,1,1.625.077,1.643,1.643,0,0,0,1.774-.313c.215-.184.484-.406.725-.362.841.152,1.618-.244,2.429-.131a9.275,9.275,0,0,0,2.653-.195c.65-.093,1.3-.19,1.954-.243.537-.044,1.081-.026,1.622-.035.426-.008.85-.025,1.276-.023a13.638,13.638,0,0,0,3.245-.121,4.965,4.965,0,0,1,1.842-.17,6.476,6.476,0,0,0,2.3-.235,1.573,1.573,0,0,0,1.308-1.033,2.792,2.792,0,0,1,.806-1.195c.051-.052.06-.181.094-.293l-.4-.912c.2-.168.387-.485.553-.439.519.142.894-.2,1.318-.38C640.648,194.775,640.686,194.729,640.653,193.044Z"/><path class="cls-1" d="M331.292,180.477a.412.412,0,0,1,.024-.255c.237-.393.183-.886.386-1.288-.163-.117-.3-.216-.43-.306a.96.96,0,0,1,0-.23.773.773,0,0,0-.139-.729.515.515,0,0,1-.088-.359,2.031,2.031,0,0,0-.092-1.027l.4-.612a.689.689,0,0,1-.158-.5,3.565,3.565,0,0,0-.114-.61c-.035-.255-.05-.514-.072-.771.079-.3.18-.613.238-.933a1.057,1.057,0,0,0-.084-.749.986.986,0,0,1-.032-.825,1.358,1.358,0,0,0,.1-.534,1.515,1.515,0,0,0-.1-.485,1.113,1.113,0,0,1,.018-.822c.1-.264-.2-.53-.043-.822a.334.334,0,0,0,.036-.125,1.814,1.814,0,0,0,.054-.45c-.037-.31.247-.618,0-.926-.013-.017.017-.082.033-.122.106-.274.212-.55.347-.9a1.27,1.27,0,0,0-.206-.718.382.382,0,0,1-.068-.194c0-.007,0-.015,0-.023a.428.428,0,0,1-.011-.073.566.566,0,0,0-.007-.117.851.851,0,0,1-.026-.207.176.176,0,0,0-.014-.068c-.044-.087-.087-.174-.138-.254a.163.163,0,0,1-.03-.152.112.112,0,0,0,0-.045.253.253,0,0,1-.01-.142c0-.009,0-.024,0-.036a.6.6,0,0,0-.03-.1c-.016-.057-.024-.118-.035-.178a.288.288,0,0,0-.054-.148.383.383,0,0,0-.079-.058c-.028-.023-.035-.068-.073-.081l-.007,0a.767.767,0,0,1-.081-.1.558.558,0,0,0-.046-.073.283.283,0,0,1-.069-.159.072.072,0,0,0-.057-.076.076.076,0,0,1-.041-.027c-.038-.078-.115-.114-.153-.195a.816.816,0,0,1-.137-.174.182.182,0,0,1-.041-.076.073.073,0,0,0-.036-.057.087.087,0,0,1-.049-.071c-.029,0-.056.007-.073,0-.053-.031-.116-.044-.149-.112a.057.057,0,0,0-.045-.031.521.521,0,0,1-.189-.089.107.107,0,0,0-.115-.011.722.722,0,0,1-.067.027.21.21,0,0,1-.169-.008.277.277,0,0,1-.072-.038.352.352,0,0,0-.158-.076,1.42,1.42,0,0,0-.188-.024c-.018,0-.036,0-.056,0a.23.23,0,0,1-.219-.114c0-.009-.016-.015-.026-.018l-.085-.022c-.047-.015-.1,0-.145-.03-.008-.006-.022,0-.031,0-.032,0-.063.006-.094.01a.266.266,0,0,0-.047.011,1.672,1.672,0,0,1-.208.054.03.03,0,0,1-.023,0,.137.137,0,0,0-.137.026.6.6,0,0,1-.123.065.215.215,0,0,0-.093.078.351.351,0,0,1-.171.142.314.314,0,0,0-.073.037c-.041.033-.083.065-.123.1a5,5,0,0,1-1.962.021.283.283,0,0,0-.219.023c-.2.144-.409.06-.611.024a.652.652,0,0,0-.552.044c.04-.632.084-1.264.1-1.9a21.05,21.05,0,0,0-.084-2.232,21.719,21.719,0,0,0-.025-2.362,2.989,2.989,0,0,1-.008-.4c.022-.015.043-.023.064-.039a1.292,1.292,0,0,0,.3-.691c.009-.159-.11-.156-.116-.322.027-.092.061-.211.094-.333a.344.344,0,0,0-.067-.346.258.258,0,0,0-.113-.064c-.024,0-.035-.03-.055-.041.035-.431.11-.857.142-1.287a1.6,1.6,0,0,0-1.116-1.882c-.013-.091-.01-.186-.03-.274a4.648,4.648,0,0,0-.223-1.181.5.5,0,0,0-.142-.268.539.539,0,0,1-.136-.317,3.025,3.025,0,0,0-.134-.557,4.527,4.527,0,0,0-.294-.587.813.813,0,0,0-.25-.315.54.54,0,0,1-.2-.333.84.84,0,0,0-.233-.4,1.227,1.227,0,0,1-.38-.8.78.78,0,0,1-.365-.6,1.414,1.414,0,0,0-.041-.145.768.768,0,0,0-.4-.538.619.619,0,0,1-.317-.35.607.607,0,0,0-.179-.26.313.313,0,0,1-.131-.223.247.247,0,0,0-.133-.212c-.085-.038-.129-.148-.174-.266s-.1-.241-.153-.362a.588.588,0,0,1-.066-.163c-.023-.218-.157-.314-.2-.495-.049-.213-.173-.277-.251-.426a.225.225,0,0,0-.22-.139.952.952,0,0,1-.719-.318.539.539,0,0,0-.16-.092.913.913,0,0,1-.361-.322,2.843,2.843,0,0,0-.28-.314,1.69,1.69,0,0,0-.542-.438c-.022-.009-.04-.045-.059-.069-.078-.1-.151-.206-.233-.292-.068-.07-.143-.154-.218-.163-.207-.026-.345-.287-.527-.394a.561.561,0,0,0-.212-.259.71.71,0,0,1-.258-.357c-.049-.148-.137-.271-.231-.266a1.033,1.033,0,0,1-.578-.255.691.691,0,0,0-.433-.087.926.926,0,0,1-.556-.069.74.74,0,0,0-.615-.1c-.106.032-.223-.06-.334-.066a.361.361,0,0,1-.247-.145.547.547,0,0,0-.218-.168,1.422,1.422,0,0,0-.629-.091.276.276,0,0,1-.17-.017.7.7,0,0,0-.362-.053.238.238,0,0,1-.249-.128c-.069-.112-.159-.161-.247-.1-.11.067-.209.014-.31-.027-.251-.1-.492-.265-.747-.346a.551.551,0,0,0-.386,0,.8.8,0,0,1-.432.053,1.559,1.559,0,0,0-.46.037.63.63,0,0,1-.413-.022.267.267,0,0,0-.24,0,.716.716,0,0,1-.455.053.326.326,0,0,0-.354.079c-.177.185-.369.272-.575.108a.233.233,0,0,0-.1-.029l-.5-.119a.35.35,0,0,1-.3.116.715.715,0,0,0-.244.012,3.779,3.779,0,0,1-1.064.163,6.467,6.467,0,0,0-.678.061.373.373,0,0,1-.443-.231.167.167,0,0,0-.062-.062c-.139-.09-.263-.14-.411.028a1.035,1.035,0,0,1-.546.325.381.381,0,0,1-.479-.163c-.01-.016-.03-.013-.057-.022a1.13,1.13,0,0,0-.106.056,1.252,1.252,0,0,1-.247.087.821.821,0,0,0-.643.482c-.074.161-.155.312-.236.462a.452.452,0,0,1-.11.154,1.832,1.832,0,0,0-.465.571c-.154.273-.346.485-.483.788-.017.039-.05.056-.079.087-.035-.074-.058-.165-.1-.189-.146-.094-.275-.293-.452-.235-.021.007-.046-.022-.07-.022-.21,0-.425-.069-.623.115a.146.146,0,0,1-.094.033.426.426,0,0,0-.3.236c-.042.064-.088.119-.133.175a2.016,2.016,0,0,1-.666.483.412.412,0,0,0-.153.112c-.152.218-.3.447-.465.7-.113-.117-.219-.071-.321.084a.169.169,0,0,1-.159.064.528.528,0,0,0-.418.176c-.077.072-.162.123-.238.2a.8.8,0,0,0-.247.375.468.468,0,0,1-.119.191c-.1.108-.212.2-.316.3a1.6,1.6,0,0,0-.2.231c-.1.144-.184.3-.277.45a1.205,1.205,0,0,1-.134.172c-.069.07-.143.126-.211.2a.338.338,0,0,1-.2.135c-.092.006-.166.083-.236.185a5.981,5.981,0,0,1-.378.5c-.144.168-.29.331-.428.515a1.2,1.2,0,0,0-.255.656.326.326,0,0,1-.086.23.687.687,0,0,0-.178.45c-.137.111-.259.277-.408.274-.192-.006-.317.171-.4.4-.086.247-.187.469-.284.7-.176.421-.255.919-.407,1.359-.105.3-.184.623-.277.934-.063.216-.131.43-.2.642a1.626,1.626,0,0,1-.21.535.193.193,0,0,0-.034.1,1.757,1.757,0,0,1-.132.428c-.021.071-.051.137-.067.212a2.492,2.492,0,0,1-.227.7.5.5,0,0,0-.037.412l.014.039-.009.009a.3.3,0,0,0-.113.249c.006.18,0,.361.017.541a8.4,8.4,0,0,1-.053,1.219c-.018.236-.048.47-.065.706a.686.686,0,0,0,.018.226.6.6,0,0,1,.006.279,1.785,1.785,0,0,0-.012.284c0,.085,0,.17-.009.255-.007.113-.022.226-.024.339,0,.209.021.419,0,.626a7.267,7.267,0,0,0-.075,1.1,1.609,1.609,0,0,1-.016.169c-.008.113-.018.226-.022.339-.012.388,0,.777-.039,1.163-.023.253-.079.5-.106.758a2.343,2.343,0,0,0,.016.648,2.069,2.069,0,0,1,.012.452c-.015.225-.048.45-.073.675a.3.3,0,0,0,0,.085,2.3,2.3,0,0,1-.026.759c-.008.059-.013.117-.021.176a.6.6,0,0,1-.5-.054.1.1,0,0,0-.045-.069.115.115,0,0,1-.066-.1c-.04,0-.077.012-.1,0-.01-.006-.022-.01-.03-.016l-.007,0c-.575,0-1.15.033-1.727.051-.187.007-.375,0-.561,0a2.22,2.22,0,0,0-.282-.009,8.312,8.312,0,0,1-1.357.011.558.558,0,0,1-.1.066c-.063.029-.122.073-.185.1a.459.459,0,0,1-.29.084c-.008,0-.02,0-.03.011a2.078,2.078,0,0,1-.383.144.89.89,0,0,0-.41.294.319.319,0,0,1-.033.031c-.091.088-.164.2-.26.286a.705.705,0,0,0-.086.112.285.285,0,0,0-.044.056.752.752,0,0,1-.159.22.134.134,0,0,0-.027.04c-.025.055-.046.114-.073.169a1.439,1.439,0,0,1-.111.2.353.353,0,0,0-.065.128,1.107,1.107,0,0,1-.138.337,1.09,1.09,0,0,1-.087.143.266.266,0,0,0-.057.169.644.644,0,0,1-.049.23.62.62,0,0,0-.043.194,1.671,1.671,0,0,1-.072.34q-.015.882-.032,1.764a.256.256,0,0,1,.041.165.949.949,0,0,1-.019.237.143.143,0,0,0,0,.062c0,.041.007.083.015.124a.676.676,0,0,0,.035.157.54.54,0,0,1,.044.242.336.336,0,0,0,.047.191l.075.009a.333.333,0,0,1,.076.024.286.286,0,0,0,.006.065,2.96,2.96,0,0,1,.009,1.1,6.023,6.023,0,0,0-.052,1.429q.035.29.044.571a3.622,3.622,0,0,1-.014.466,4.255,4.255,0,0,0,.021,1.111,14.9,14.9,0,0,1,.054,2.427,16.263,16.263,0,0,0-.029,2.408.466.466,0,0,1-.029.19,3.428,3.428,0,0,0-.117,1.422c.025.3,0,.61,0,.916,0,.131-.012.263,0,.394a2.073,2.073,0,0,1-.067.971.518.518,0,0,0-.017.257,3.37,3.37,0,0,1-.067,1.485.667.667,0,0,0,0,.383,1.93,1.93,0,0,1-.107,1.516c-.148.326.07.688-.126,1-.043.069,0,.212.012.321a.387.387,0,0,0,.03.127.676.676,0,0,1-.017.733.285.285,0,0,0-.015.189,4.737,4.737,0,0,0,.176.609.518.518,0,0,1,.056.371,3.474,3.474,0,0,0-.05,1.347,6.118,6.118,0,0,1,.024.854,1.48,1.48,0,0,1-.093.443.569.569,0,0,0-.023.258,1.708,1.708,0,0,1-.1.634,2.709,2.709,0,0,0,.136,2.137.642.642,0,0,1,.022.621,2.375,2.375,0,0,0-.113,1.158c0,.042.006.085.011.127.067.78.127,1.563.155,2.347a1.561,1.561,0,0,1-.258,1.049.735.735,0,0,0-.122.55c.009.108.025.212.042.316a1.038,1.038,0,0,1-.159.315.229.229,0,0,0-.046.141.558.558,0,0,1-.042.19.536.536,0,0,0-.036.162,1.472,1.472,0,0,1-.059.282c-.008.489-.018.978-.026,1.467a.223.223,0,0,1,.034.137.762.762,0,0,1-.018.2.136.136,0,0,0,0,.053c0,.033,0,.069.011.1a.588.588,0,0,0,.03.13.439.439,0,0,1,.036.2.265.265,0,0,0,.04.158l.062.007a.284.284,0,0,1,.236.293.228.228,0,0,0,.011.091.205.205,0,0,1,.012.142.1.1,0,0,0,.007.079.105.105,0,0,1,.016.049.421.421,0,0,0,.078.2c.056.013.108.025.131.094a.025.025,0,0,0,.014.013c.012,0,.014.019.023.024a.244.244,0,0,1,.074.079.142.142,0,0,0,.031.037l.179.132c0,.007,0,.029.013.038.052.045.095.108.17.105a.078.078,0,0,1,.071.04.289.289,0,0,0,.209.13.226.226,0,0,1,.141.085.3.3,0,0,0,.174.095.217.217,0,0,1,.126.052c.033.03.075.025.112.036a1.141,1.141,0,0,1,.115.059.127.127,0,0,0,.044,0h.065a.134.134,0,0,1,.1.034.114.114,0,0,0,.055.019.151.151,0,0,0,.039.015.239.239,0,0,1,.14.064.636.636,0,0,0,.134.121.166.166,0,0,1,.1.147c0,.046.039.064.073.038a.19.19,0,0,1,.191-.031.132.132,0,0,0,.081,0,1.451,1.451,0,0,1,.163-.017.213.213,0,0,1,.172.024c.024.018.061.014.085.031a.222.222,0,0,0,.183.032.14.14,0,0,1,.054,0,.166.166,0,0,0,.1-.008c.092-.03.182-.056.273-.083l.061-.021a.721.721,0,0,1,.158-.035.536.536,0,0,0,.168-.04.257.257,0,0,1,.089-.021.114.114,0,0,0,.1-.052.046.046,0,0,1,.022-.014,2.67,2.67,0,0,0,.768.023,2.586,2.586,0,0,1,.511-.048,1.416,1.416,0,0,0,.89-.1.6.6,0,0,1,.336-.017c.137.01.274.023.41.034a6.494,6.494,0,0,0,.825.02,3.232,3.232,0,0,0,.526-.052,1.266,1.266,0,0,1,.282,0c.513.011,1.025.052,1.535.023a8.7,8.7,0,0,1,1.251.037,1.371,1.371,0,0,0,.4.018.918.918,0,0,1,.9.288.554.554,0,0,0,.191.09c.052-.032.106-.043.116-.073.086-.263.3-.3.486-.407a.571.571,0,0,1,.6.022,1.155,1.155,0,0,0,.5.129c.168,0,.335,0,.5,0,.268,0,.537.008.805-.006.851-.043,1.7-.111,2.553-.155a.99.99,0,0,1,.377.1,1.124,1.124,0,0,0,.78.053,1.9,1.9,0,0,1,.954-.016c.207.029.418.059.628.073,0,.586.109,1.179.156,1.767.071.872.158,1.743.2,2.616a26.847,26.847,0,0,0,.128,4.243.473.473,0,0,1,.009.2c-.46,1.851-.046,3.761-.379,5.62a3.2,3.2,0,0,0-.074,1c.2,1.328.49,2.641.639,3.975a13.221,13.221,0,0,1-.062,2.417c-.036.47-.35.989-.226,1.388.592,1.909-.063,3.9.46,5.8a5,5,0,0,1,.06,2.8,4.667,4.667,0,0,0,.026,1.583c.056.715.129,1.428.194,2.141.048.523.084,1.046.111,1.569a28.1,28.1,0,0,1-.341,4.233,5.743,5.743,0,0,0-.159,1.4,85.557,85.557,0,0,1,.242,9.112c-.092,2.566.378,5.1.289,7.66-.023.7-.07,1.4-.114,2.095q-.052.873-.095,1.745c-.031.607-.036,1.216-.06,1.822a7.219,7.219,0,0,1-.1,1.612,3.241,3.241,0,0,0,.19,2.552,1.172,1.172,0,0,1,.128.588c-.083,2.162.22,4.317.014,6.487a23.5,23.5,0,0,0,.145,3.427,4.7,4.7,0,0,1,.073,1.408,8.968,8.968,0,0,0,0,3.226c.149,1.852.177,3.7.142,5.553a14.645,14.645,0,0,1,2.074-1.162c.133-.241.229-.524.355-.778a2.145,2.145,0,0,1,.221-.307l1.073.325a1.428,1.428,0,0,0,.19-.441c.049-.224.421-.45.711-.537,0-.13-.012-.259-.017-.388a8.9,8.9,0,0,0-.07-1.607,13.945,13.945,0,0,1,.4-7.009c.125-.457.21-.929.368-1.375a3.8,3.8,0,0,0-.047-2.574c-.232-.7-.429-1.4-.6-2.11a10.909,10.909,0,0,1-.273-4.462,2.543,2.543,0,0,0-.186-.984,5.642,5.642,0,0,1,.088-3.572,1.843,1.843,0,0,0,.139-.786,9.1,9.1,0,0,1,.414-3.6,1.137,1.137,0,0,0-.1-.953,1.573,1.573,0,0,1-.342-.469c.029-.022.051-.038.082-.059a18.29,18.29,0,0,0,.125-5.173,3.739,3.739,0,0,1,.081-1.59,8.4,8.4,0,0,0-.3-4.979,3.947,3.947,0,0,1-.125-.557,2.911,2.911,0,0,1,.254-.522,5.146,5.146,0,0,0,.387-3.364,2.875,2.875,0,0,0-1.081-1.846,2.455,2.455,0,0,1,.2-1.327,1.08,1.08,0,0,0,.072-.775,6.89,6.89,0,0,1,0-3.018,17.334,17.334,0,0,0,0-3.424,5.481,5.481,0,0,1-.02-.616c0-.4.016-.8.023-1.2,0-.134.078-.275.052-.4-.592-2.854.147-5.8-.588-8.643a2.089,2.089,0,0,1-.058-.8c.223-1.531.485-3.058.707-4.589.145-1,.252-2.01.358-3.017a.98.98,0,0,0-.074-.592,5.13,5.13,0,0,1-.48-2.951c-.013-.468-.185-.931-.195-1.4a12.907,12.907,0,0,1,.015-3.36,6.814,6.814,0,0,0-.236-3.192v0a5.6,5.6,0,0,0,1.452-.013.31.31,0,0,1,.164.034,2.3,2.3,0,0,0,1.235.127,6.782,6.782,0,0,1,.794,0,2.28,2.28,0,0,0,.341,0,1.383,1.383,0,0,1,.842.074.355.355,0,0,0,.223.019,2.2,2.2,0,0,1,1.287.071.466.466,0,0,0,.333,0,1.3,1.3,0,0,1,1.314.116c.282.169.6-.084.868.14.06.049.185,0,.279-.016a.3.3,0,0,0,.111-.034.464.464,0,0,1,.635.013.166.166,0,0,0,.13.022c.018,0,.037-.01.055-.013a3.312,3.312,0,0,0,.508-.2c.107-.056.2-.12.322-.068a2.3,2.3,0,0,0,1.168.052,1.915,1.915,0,0,1,1.123.071.387.387,0,0,0,.224.026,1.157,1.157,0,0,1,.55.11l.179.053c.25-.108.5-.26.777-.07a.5.5,0,0,0,.194.07c.07.011.14.029.21.045a1.477,1.477,0,0,0,.5-.267.438.438,0,0,1,.538-.028,1.158,1.158,0,0,0,.318.114,2.035,2.035,0,0,0,.684.01c.689-.086,1.378-.16,2.069-.2a.256.256,0,0,0,.1.056.182.182,0,0,1,.108.043c.026.026.063.022.094.032a.676.676,0,0,1,.1.05.123.123,0,0,0,.038,0h.054a.125.125,0,0,1,.088.029.126.126,0,0,0,.079.03.19.19,0,0,1,.117.053.543.543,0,0,0,.114.1.146.146,0,0,1,.084.125c0,.005,0,.005,0,.009l.092.007a.164.164,0,0,1,.127-.01.122.122,0,0,0,.068.005.884.884,0,0,1,.137-.015.18.18,0,0,1,.146.02c.021.014.052.011.072.027a.2.2,0,0,0,.157.027.1.1,0,0,1,.043,0,.125.125,0,0,0,.083-.008l.23-.07c.017-.005.033-.012.051-.016a.664.664,0,0,1,.134-.031.472.472,0,0,0,.144-.033.185.185,0,0,1,.072-.017.1.1,0,0,0,.088-.045.064.064,0,0,1,.032-.021.283.283,0,0,0,.115-.047.074.074,0,0,1,.038-.008.235.235,0,0,0,.054,0,.182.182,0,0,1,.113,0,.145.145,0,0,0,.135-.018.15.15,0,0,1,.1-.027l.07,0a.147.147,0,0,1,.069-.072c.025-.013.04-.043.063-.061s.032-.024.048-.036a.188.188,0,0,1,.023-.016c.008-.007.011-.019.018-.028.035-.05.065-.1.1-.152a.4.4,0,0,0,.057-.1.374.374,0,0,1,.117-.168l-.02-.022a.21.21,0,0,1,.077-.172.365.365,0,0,1,.037-.106,1.362,1.362,0,0,0,.091-.15.316.316,0,0,1,.088-.1.2.2,0,0,0,.083-.111.609.609,0,0,1,.117-.194.324.324,0,0,0,.073-.189.481.481,0,0,1,.02-.093c0-.016.007-.034.011-.052a.063.063,0,0,1,.035-.045.186.186,0,0,0,.093-.121l.069-.158a.15.15,0,0,0,.009-.042.835.835,0,0,0-.009-.264.147.147,0,0,1,0-.095c.016-.064.03-.131.048-.195a.22.22,0,0,0,0-.1.206.206,0,0,1-.007-.07.233.233,0,0,0-.008-.152c-.008-.013,0-.035,0-.053s0-.034,0-.052c-.007-.1-.018-.191-.016-.289a.075.075,0,0,0-.01-.042v-.01c.013-.048.019-.1.034-.142a.773.773,0,0,0-.026-.572.547.547,0,0,1-.031-.374,1.986,1.986,0,0,0,.066-1.156,11.057,11.057,0,0,1-.03-2.684c.018-.108.024-.216.047-.325a.454.454,0,0,0-.007-.254,1.068,1.068,0,0,1,.011-.7.968.968,0,0,0-.012-.64.942.942,0,0,1-.009-.695,1.824,1.824,0,0,0,.032-1.088.827.827,0,0,1,.077-.7,1.309,1.309,0,0,0,.107-.887,6.013,6.013,0,0,0-.124-.593c.238-.224.2-.582.3-.882a.513.513,0,0,0,.009-.249.356.356,0,0,0-.067-.179c-.266-.287-.158-.54,0-.815a.823.823,0,0,0,.048-.18,1.351,1.351,0,0,1-.206-.98,1.122,1.122,0,0,0-.011-.259,2.854,2.854,0,0,1,.217-1.775,1.142,1.142,0,0,0,.057-.223c-.11-.09-.2-.159-.3-.238.082-.134.15-.238.207-.329-.016-.557-.048-1.1-.034-1.641a1.14,1.14,0,0,1,.166-.738.519.519,0,0,0,.014-.432,1.688,1.688,0,0,1-.15-1.127c.012-.078-.048-.168-.05-.253a.568.568,0,0,1,.038-.309.812.812,0,0,0,.083-.848.949.949,0,0,1-.007-.3,3.584,3.584,0,0,0,.282-.372.454.454,0,0,0,.066-.3A9.134,9.134,0,0,1,331.292,180.477ZM315.8,162.626a.781.781,0,0,0-.2-.055l-.195.355c-.118-.091-.212-.16-.293-.222-.482.045-.95.112-1.42.124a.777.777,0,0,1-.645-.154.355.355,0,0,0-.375.007,1.16,1.16,0,0,1-.971.233c-.066-.009-.143.063-.216.069-.091.009-.213.029-.27-.027a.561.561,0,0,0-.737-.052.639.639,0,0,1-.257.026,2.91,2.91,0,0,0-.332-.307c-.077-.048-.2-.1-.265-.061a1.113,1.113,0,0,1-.513.1.9.9,0,0,0-.328.291.738.738,0,0,1-.574.283,3.709,3.709,0,0,1-.937.038,2.826,2.826,0,0,0-.751.026,7.8,7.8,0,0,1-1.315-.007c-.037,0-.074,0-.112,0s-.1,0-.146,0l-.257,0c-.219,0-.438-.017-.657-.011-.266.007-.532.027-.8.045h0c-.208.015-.418.007-.626.013a2.62,2.62,0,0,1-.452.009c-.293-.039-.594.034-.895.008-.031,0-.06,0-.091,0a.463.463,0,0,0-.254.08c-.018.008-.039.007-.054.015a.9.9,0,0,1-.729.069,1.349,1.349,0,0,0-.514-.034c-.047,0-.092-.016-.139-.01-.087.013-.176.016-.265.022a2.749,2.749,0,0,0-.8.126.165.165,0,0,1-.093.007c-.476-.122-.964.021-1.444-.071a1.39,1.39,0,0,0-.554.055.428.428,0,0,1-.357-.024.451.451,0,0,0-.222-.055,10.139,10.139,0,0,0-1.785.06,4.362,4.362,0,0,1-.92.03c.012-.061.025-.121.035-.181a1.312,1.312,0,0,0-.009-.244l-.213-.115a2.753,2.753,0,0,0,.091-.34,2.978,2.978,0,0,0,.005-.341.236.236,0,0,1,.015-.084.559.559,0,0,0,.042-.439.254.254,0,0,1,.016-.139,9.559,9.559,0,0,0,.148-1.351c.033-.243.011-.494.053-.735a3.565,3.565,0,0,0,.026-.765,1.738,1.738,0,0,1,.045-.45c.044-.191.149-.375.063-.58-.006-.015.01-.037.01-.056,0-.084,0-.168-.012-.251a2.111,2.111,0,0,1-.034-.281c.013-.264.026-.529.062-.79a.475.475,0,0,0-.048-.352.3.3,0,0,1-.04-.215.585.585,0,0,0-.023-.336,1.753,1.753,0,0,1-.009-.673c0-.065.037-.129.038-.194a2.386,2.386,0,0,1,.076-.816.769.769,0,0,1,.142-.536.785.785,0,0,0,.053-.578c-.029-.134-.062-.281-.233-.329-.037-.01-.062-.066-.089-.1s-.04-.1-.076-.115c-.011-.006-.016-.017-.026-.023a2.178,2.178,0,0,1,.139-.342,2.76,2.76,0,0,0,.235-.651,1.224,1.224,0,0,1,.185-.408,1.179,1.179,0,0,0,.274-.718.68.68,0,0,1,.066-.211c.043-.113.092-.222.141-.343a1.3,1.3,0,0,1,.306-.2.382.382,0,0,0,.258-.257,1.281,1.281,0,0,1,.366-.507.632.632,0,0,0,.219-.307.23.23,0,0,1,.134-.16c.239-.083.386-.382.544-.645a1.036,1.036,0,0,1,.248-.307,1.406,1.406,0,0,0,.415-.405.621.621,0,0,1,.234-.209.681.681,0,0,0,.241-.263,1.216,1.216,0,0,1,.184-.259,1.561,1.561,0,0,0,.258-.3.207.207,0,0,1,.129-.095,1.093,1.093,0,0,0,.627-.405c.1-.111.2-.238.326-.265.043-.01.087-.065.123-.116.132-.184.275-.306.455-.294.041,0,.085-.062.129-.1s.1-.1.149-.114a2.215,2.215,0,0,1,.776-.094.356.356,0,0,0,.108-.015.519.519,0,0,1,.331-.349.239.239,0,0,0,.106-.092.268.268,0,0,1,.2-.11,1.044,1.044,0,0,0,.647-.318.285.285,0,0,1,.134-.085c.216-.057.432-.109.648-.152a.271.271,0,0,1,.279.106,1.643,1.643,0,0,0,.265.216c.1-.082.191-.155.281-.245a.232.232,0,0,1,.184-.086c.251.024.5-.065.75-.016a.377.377,0,0,1,.489.077.993.993,0,0,0,.26-.086c.144-.092.266-.088.381.1.081.129.18.18.294.1.02-.013.047,0,.08,0,.086.1.169.236.3.225a.1.1,0,0,1,.087.06.3.3,0,0,0,.361.172.315.315,0,0,1,.3.124.2.2,0,0,0,.2.073.958.958,0,0,1,.546.1.416.416,0,0,0,.43.037.113.113,0,0,1,.1,0,.592.592,0,0,0,.5-.066c.119.071.225.171.357.124a1.1,1.1,0,0,1,.362-.06,1.129,1.129,0,0,0,.529-.116.475.475,0,0,1,.361-.014,1.356,1.356,0,0,0,.554.081,1.517,1.517,0,0,1,.629.035.351.351,0,0,0,.457-.167.077.077,0,0,1,.09-.034.622.622,0,0,1,.248.148.709.709,0,0,0,.242.171.784.784,0,0,0,.412.047.377.377,0,0,1,.354.219.745.745,0,0,0,.2.213c.161.124.315.272.472.413a1.061,1.061,0,0,1,.238.34,1.257,1.257,0,0,0,.174.28,3.1,3.1,0,0,1,.24.45c.09.152.224.218.3.4.023.055.053.127.086.138.143.047.185.235.214.382a1.213,1.213,0,0,1,.263.213.8.8,0,0,0,.35.268c.069.032.134.09.205.122a.368.368,0,0,1,.182.294,1,1,0,0,0,.069.209c.087.209.179.409.256.632.059.177.123.382.265.449a.3.3,0,0,1,.11.153,3.4,3.4,0,0,0,.66.983c.066.076.135.15.206.218a.636.636,0,0,1,.151.51c0,.117-.014.235-.019.295l.174.337a15.888,15.888,0,0,0-.229,3.435,22.358,22.358,0,0,1,.071,3.42,26.393,26.393,0,0,0-.043,3.117c.011.347.031.7.05,1.043-.066,0-.141,0-.244.006a.834.834,0,0,0-.223.025A1.9,1.9,0,0,1,315.8,162.626Z"/><path class="cls-1" d="M541.757,178.4a.367.367,0,0,1,.022-.229c.212-.351.164-.792.345-1.151-.146-.1-.269-.192-.385-.273a.9.9,0,0,1,0-.205.691.691,0,0,0-.124-.652.458.458,0,0,1-.079-.321,1.82,1.82,0,0,0-.082-.918l.358-.547a.613.613,0,0,1-.141-.449,3.159,3.159,0,0,0-.1-.545c-.031-.228-.045-.46-.064-.69.071-.271.16-.548.213-.833a.949.949,0,0,0-.075-.669.879.879,0,0,1-.029-.737,1.238,1.238,0,0,0,.088-.478,1.372,1.372,0,0,0-.086-.434.989.989,0,0,1,.016-.733c.087-.237-.18-.475-.038-.736a.317.317,0,0,0,.032-.111,1.659,1.659,0,0,0,.048-.4c-.033-.277.221-.552,0-.827-.011-.015.016-.074.03-.109.094-.246.189-.492.31-.8a1.133,1.133,0,0,0-.184-.641.345.345,0,0,1-.061-.173l0-.02a.374.374,0,0,1-.009-.066.456.456,0,0,0-.007-.1.76.76,0,0,1-.023-.184.155.155,0,0,0-.013-.061,2.145,2.145,0,0,0-.123-.227.147.147,0,0,1-.027-.136.09.09,0,0,0,0-.04.229.229,0,0,1-.009-.127c0-.009,0-.021,0-.033a.627.627,0,0,0-.027-.091c-.014-.051-.022-.1-.031-.158a.277.277,0,0,0-.048-.134.366.366,0,0,0-.071-.051c-.025-.02-.031-.061-.065-.072l-.007,0a.605.605,0,0,1-.072-.087.443.443,0,0,0-.041-.065.253.253,0,0,1-.062-.142.065.065,0,0,0-.051-.069.063.063,0,0,1-.036-.024c-.034-.07-.1-.1-.138-.174a.749.749,0,0,1-.121-.155.15.15,0,0,1-.037-.069.061.061,0,0,0-.032-.05.078.078,0,0,1-.044-.064c-.026,0-.05.007-.066,0-.047-.028-.1-.039-.132-.1a.051.051,0,0,0-.041-.028.475.475,0,0,1-.169-.079.1.1,0,0,0-.1-.011l-.06.025a.192.192,0,0,1-.151-.008.208.208,0,0,1-.064-.034.327.327,0,0,0-.141-.067,1.165,1.165,0,0,0-.169-.022.4.4,0,0,0-.05,0c-.075-.008-.151-.015-.2-.1a.043.043,0,0,0-.024-.016c-.025-.007-.05-.011-.076-.019-.041-.014-.089,0-.13-.027a.041.041,0,0,0-.027,0,.771.771,0,0,0-.084.01.21.21,0,0,0-.042.009,1.449,1.449,0,0,1-.186.048.023.023,0,0,1-.02,0,.125.125,0,0,0-.123.023.5.5,0,0,1-.109.058.2.2,0,0,0-.084.071.324.324,0,0,1-.153.127.235.235,0,0,0-.065.033c-.036.028-.074.058-.11.088a4.477,4.477,0,0,1-1.753.019.253.253,0,0,0-.2.02c-.183.129-.365.055-.546.022a.58.58,0,0,0-.493.039c.036-.565.075-1.129.09-1.695a18.985,18.985,0,0,0-.075-2,19.36,19.36,0,0,0-.022-2.11,2.542,2.542,0,0,1-.007-.361c.019-.013.038-.02.057-.034a1.148,1.148,0,0,0,.27-.618c.009-.142-.1-.139-.1-.287.024-.083.055-.19.084-.3a.309.309,0,0,0-.06-.308.231.231,0,0,0-.1-.058c-.022,0-.032-.026-.05-.036.032-.385.1-.766.128-1.151a1.43,1.43,0,0,0-1-1.681,2.447,2.447,0,0,0-.027-.245,4.118,4.118,0,0,0-.2-1.056.447.447,0,0,0-.127-.239.479.479,0,0,1-.121-.283,2.749,2.749,0,0,0-.12-.5,3.957,3.957,0,0,0-.263-.525.726.726,0,0,0-.223-.281.485.485,0,0,1-.182-.3.753.753,0,0,0-.207-.356,1.094,1.094,0,0,1-.34-.713.7.7,0,0,1-.326-.537,1.305,1.305,0,0,0-.037-.13.685.685,0,0,0-.355-.481.549.549,0,0,1-.284-.312.545.545,0,0,0-.16-.233.281.281,0,0,1-.117-.2.218.218,0,0,0-.119-.189c-.076-.035-.115-.132-.155-.239s-.09-.215-.137-.322a.533.533,0,0,1-.059-.147c-.021-.194-.14-.28-.177-.441-.044-.191-.154-.249-.224-.382a.2.2,0,0,0-.2-.124.848.848,0,0,1-.642-.284.435.435,0,0,0-.144-.082.818.818,0,0,1-.322-.288,2.345,2.345,0,0,0-.251-.28,1.491,1.491,0,0,0-.484-.392c-.019-.008-.036-.04-.052-.062-.07-.087-.136-.184-.208-.261s-.128-.137-.2-.146c-.186-.022-.309-.256-.471-.351a.506.506,0,0,0-.19-.232.646.646,0,0,1-.23-.318c-.044-.133-.123-.243-.207-.238a.929.929,0,0,1-.516-.228.617.617,0,0,0-.387-.078.825.825,0,0,1-.5-.062.659.659,0,0,0-.55-.092c-.094.028-.2-.054-.3-.059a.335.335,0,0,1-.221-.13.485.485,0,0,0-.195-.15,1.277,1.277,0,0,0-.561-.082.248.248,0,0,1-.152-.015.63.63,0,0,0-.324-.047.213.213,0,0,1-.222-.115c-.063-.1-.143-.143-.222-.094-.1.061-.186.013-.276-.023-.225-.09-.44-.238-.668-.309a.494.494,0,0,0-.345,0,.71.71,0,0,1-.386.048,1.4,1.4,0,0,0-.411.033.571.571,0,0,1-.369-.02.237.237,0,0,0-.214,0,.644.644,0,0,1-.407.047.29.29,0,0,0-.316.07c-.159.166-.33.244-.514.1a.2.2,0,0,0-.086-.026c-.143-.035-.285-.068-.452-.107a.313.313,0,0,1-.266.1.638.638,0,0,0-.218.01,3.389,3.389,0,0,1-.952.146,5.619,5.619,0,0,0-.605.055.334.334,0,0,1-.4-.207.147.147,0,0,0-.056-.055c-.124-.081-.235-.125-.367.024a.919.919,0,0,1-.488.291.339.339,0,0,1-.428-.146c-.009-.013-.027-.011-.051-.019-.026.014-.061.029-.095.051a1.158,1.158,0,0,1-.221.077.733.733,0,0,0-.574.431c-.066.144-.139.278-.211.413a.416.416,0,0,1-.1.137,1.614,1.614,0,0,0-.415.51,8.216,8.216,0,0,0-.432.7c-.015.034-.045.049-.071.077-.031-.066-.052-.148-.086-.169-.13-.083-.245-.261-.4-.21-.02.006-.042-.019-.064-.02-.187,0-.379-.062-.556.1a.135.135,0,0,1-.084.03.376.376,0,0,0-.269.211,1.936,1.936,0,0,1-.119.156,1.766,1.766,0,0,1-.595.431.375.375,0,0,0-.136.1c-.136.195-.267.4-.416.624-.1-.1-.2-.063-.287.076a.152.152,0,0,1-.142.057.469.469,0,0,0-.373.157c-.069.065-.146.11-.213.179a.7.7,0,0,0-.221.335.4.4,0,0,1-.107.17c-.09.1-.189.177-.282.271a1.441,1.441,0,0,0-.176.207c-.086.128-.164.27-.248.4a1.051,1.051,0,0,1-.119.153c-.061.063-.128.113-.189.178a.3.3,0,0,1-.178.121c-.083.006-.149.074-.211.165a5.425,5.425,0,0,1-.338.449c-.129.15-.26.3-.383.46a1.07,1.07,0,0,0-.227.587.3.3,0,0,1-.077.2.617.617,0,0,0-.16.4c-.122.1-.231.248-.364.244-.172,0-.284.154-.353.358-.076.221-.167.42-.254.625-.157.376-.227.821-.364,1.214-.094.268-.164.557-.247.835q-.086.289-.179.574a1.429,1.429,0,0,1-.187.477.183.183,0,0,0-.031.092,1.553,1.553,0,0,1-.118.382c-.019.064-.046.124-.06.19a2.151,2.151,0,0,1-.2.623.448.448,0,0,0-.032.368l.012.034-.008.009a.272.272,0,0,0-.1.222c0,.161,0,.323.015.484a7.634,7.634,0,0,1-.047,1.09c-.017.21-.043.42-.059.63a.622.622,0,0,0,.017.2.542.542,0,0,1,0,.25,1.637,1.637,0,0,0-.011.253c0,.076,0,.152-.008.228-.006.1-.019.2-.021.3,0,.186.019.375,0,.559a6.518,6.518,0,0,0-.067.986,1.325,1.325,0,0,1-.015.152c-.007.1-.016.2-.019.3-.011.347,0,.695-.035,1.039-.02.226-.07.45-.1.678a2.158,2.158,0,0,0,.014.579,1.76,1.76,0,0,1,.011.4c-.013.2-.043.4-.064.6a.242.242,0,0,0,0,.076,2.059,2.059,0,0,1-.024.678c-.007.053-.011.1-.018.158a.537.537,0,0,1-.448-.049.092.092,0,0,0-.04-.062.1.1,0,0,1-.059-.088c-.036,0-.069.011-.092,0a.234.234,0,0,0-.027-.014L502,163.37c-.514,0-1.028.03-1.543.047-.167.006-.335,0-.5,0a2.129,2.129,0,0,0-.252-.008,7.445,7.445,0,0,1-1.213.01.491.491,0,0,1-.089.059c-.056.026-.108.065-.166.093a.407.407,0,0,1-.258.075c-.008,0-.018,0-.027.01a1.9,1.9,0,0,1-.342.128.791.791,0,0,0-.366.264c-.009.01-.021.017-.03.027-.082.079-.147.18-.233.255a.671.671,0,0,0-.077.1.254.254,0,0,0-.039.049.634.634,0,0,1-.142.2.126.126,0,0,0-.024.036c-.022.05-.041.1-.065.151a1.41,1.41,0,0,1-.1.18.281.281,0,0,0-.058.114,1.011,1.011,0,0,1-.124.3,1.029,1.029,0,0,1-.078.127.241.241,0,0,0-.05.151.581.581,0,0,1-.045.206.571.571,0,0,0-.038.173,1.444,1.444,0,0,1-.064.3q-.013.789-.029,1.577a.23.23,0,0,1,.037.147.836.836,0,0,1-.017.212.132.132,0,0,0,0,.056,1.086,1.086,0,0,0,.014.111.574.574,0,0,0,.031.139.489.489,0,0,1,.039.217.3.3,0,0,0,.042.171l.067.008a.311.311,0,0,1,.068.021.368.368,0,0,0,0,.058,2.653,2.653,0,0,1,.009.985,5.436,5.436,0,0,0-.047,1.278c.02.172.034.342.039.51a3.192,3.192,0,0,1-.012.415,3.754,3.754,0,0,0,.019.994,13.525,13.525,0,0,1,.048,2.168,14.46,14.46,0,0,0-.026,2.153.413.413,0,0,1-.026.169,3.062,3.062,0,0,0-.105,1.271c.023.27,0,.545,0,.818a3.179,3.179,0,0,0,0,.352,1.861,1.861,0,0,1-.06.868.472.472,0,0,0-.016.231,3,3,0,0,1-.06,1.326.6.6,0,0,0,0,.342,1.729,1.729,0,0,1-.095,1.355c-.133.291.062.615-.113.9-.038.062,0,.19.01.288a.389.389,0,0,0,.027.113.6.6,0,0,1-.015.655.252.252,0,0,0-.013.169,4.1,4.1,0,0,0,.157.544.463.463,0,0,1,.05.331,3.111,3.111,0,0,0-.045,1.2,5.581,5.581,0,0,1,.022.763,1.322,1.322,0,0,1-.083.4.509.509,0,0,0-.021.231,1.532,1.532,0,0,1-.087.566,2.42,2.42,0,0,0,.121,1.91.572.572,0,0,1,.019.555,2.132,2.132,0,0,0-.1,1.035c0,.037,0,.076.01.113.059.7.113,1.4.138,2.1a1.4,1.4,0,0,1-.23.937.656.656,0,0,0-.11.492c.008.1.023.189.038.283a.924.924,0,0,1-.142.28.205.205,0,0,0-.041.127.518.518,0,0,1-.037.17.45.45,0,0,0-.033.144,1.24,1.24,0,0,1-.053.252c-.007.438-.016.874-.023,1.311a.2.2,0,0,1,.03.122.653.653,0,0,1-.016.176.143.143,0,0,0,0,.046c0,.031,0,.062.01.092a.6.6,0,0,0,.027.116.388.388,0,0,1,.032.182.235.235,0,0,0,.036.141l.055.007a.253.253,0,0,1,.212.261.181.181,0,0,0,.009.081.181.181,0,0,1,.011.127.084.084,0,0,0,.006.071.085.085,0,0,1,.014.044.365.365,0,0,0,.071.183c.049.012.1.022.116.084a.02.02,0,0,0,.013.011c.01,0,.012.017.02.022a.211.211,0,0,1,.066.07.116.116,0,0,0,.028.033c.052.039.1.076.16.119,0,.006,0,.025.012.034.046.04.085.1.152.093a.07.07,0,0,1,.063.036.258.258,0,0,0,.187.116.208.208,0,0,1,.126.076.262.262,0,0,0,.156.085.184.184,0,0,1,.111.047c.031.027.068.022.1.032a1.122,1.122,0,0,1,.1.053.124.124,0,0,0,.039,0h.058a.126.126,0,0,1,.091.03.094.094,0,0,0,.048.018.181.181,0,0,0,.035.013.208.208,0,0,1,.125.057.532.532,0,0,0,.121.107.15.15,0,0,1,.086.132c0,.042.036.058.066.034a.17.17,0,0,1,.17-.028.122.122,0,0,0,.073,0,1.4,1.4,0,0,1,.145-.015.19.19,0,0,1,.154.022c.022.015.055.011.076.027a.2.2,0,0,0,.164.029.111.111,0,0,1,.048,0,.14.14,0,0,0,.086-.007c.082-.026.163-.05.244-.074.018,0,.036-.013.055-.018a.614.614,0,0,1,.141-.032.483.483,0,0,0,.15-.035.223.223,0,0,1,.079-.019A.1.1,0,0,0,499.7,203a.041.041,0,0,1,.019-.012,2.464,2.464,0,0,0,.686.021,2.344,2.344,0,0,1,.457-.044,1.259,1.259,0,0,0,.795-.091.543.543,0,0,1,.3-.015c.123.009.245.02.366.031a5.863,5.863,0,0,0,.738.017,2.888,2.888,0,0,0,.47-.046,1.118,1.118,0,0,1,.252,0c.458.01.916.047,1.371.021a7.719,7.719,0,0,1,1.118.032,1.219,1.219,0,0,0,.355.017.823.823,0,0,1,.8.256.491.491,0,0,0,.17.081c.047-.029.095-.039.1-.065.077-.235.267-.272.434-.364a.507.507,0,0,1,.533.02,1.036,1.036,0,0,0,.445.115c.15,0,.3,0,.449,0,.24,0,.48.007.72-.006.76-.039,1.52-.1,2.281-.138a.872.872,0,0,1,.337.087,1.009,1.009,0,0,0,.7.048,1.686,1.686,0,0,1,.852-.015,3.638,3.638,0,0,0,1.109.046,2.627,2.627,0,0,1,.8-.036,2.488,2.488,0,0,0,.861-.028,8.836,8.836,0,0,1,1.881-.067,9.526,9.526,0,0,0,1.865.018.262.262,0,0,1,.146.03,2.053,2.053,0,0,0,1.1.113,5.988,5.988,0,0,1,.709,0,2.067,2.067,0,0,0,.3,0,1.233,1.233,0,0,1,.753.067.316.316,0,0,0,.2.016,1.972,1.972,0,0,1,1.15.063.406.406,0,0,0,.3,0,1.166,1.166,0,0,1,1.174.1c.253.151.535-.075.776.125.054.044.166,0,.25-.014a.258.258,0,0,0,.1-.03.415.415,0,0,1,.567.011.144.144,0,0,0,.117.019c.016,0,.033-.008.049-.01a3.057,3.057,0,0,0,.453-.177c.1-.049.183-.107.288-.06a2.07,2.07,0,0,0,1.045.046,1.71,1.71,0,0,1,1,.064.34.34,0,0,0,.2.022,1.042,1.042,0,0,1,.492.1l.159.047c.224-.1.452-.232.7-.062a.429.429,0,0,0,.173.062c.062.01.126.026.188.041a1.335,1.335,0,0,0,.442-.239.392.392,0,0,1,.481-.025,1.055,1.055,0,0,0,.284.1,1.787,1.787,0,0,0,.611.008c.616-.076,1.232-.142,1.849-.177a.214.214,0,0,0,.092.051.161.161,0,0,1,.1.038c.023.024.056.02.084.029a.635.635,0,0,1,.086.044.1.1,0,0,0,.034,0h.048a.107.107,0,0,1,.079.025.109.109,0,0,0,.07.027.161.161,0,0,1,.105.048.513.513,0,0,0,.1.091.129.129,0,0,1,.075.111s0,0,0,.008l.083.006a.147.147,0,0,1,.113-.009.1.1,0,0,0,.06,0,.842.842,0,0,1,.123-.014.165.165,0,0,1,.13.018c.02.013.047.011.065.024a.175.175,0,0,0,.14.025.1.1,0,0,1,.039,0,.118.118,0,0,0,.074-.006c.068-.022.137-.042.206-.063.014,0,.029-.011.045-.015a.666.666,0,0,1,.12-.027.38.38,0,0,0,.128-.03.219.219,0,0,1,.065-.015.089.089,0,0,0,.079-.04.056.056,0,0,1,.028-.019.245.245,0,0,0,.1-.042.071.071,0,0,1,.034-.006.248.248,0,0,0,.048,0,.159.159,0,0,1,.1,0,.131.131,0,0,0,.12-.015.126.126,0,0,1,.09-.024h.063a.127.127,0,0,1,.062-.065c.021-.012.035-.038.056-.055s.028-.021.042-.031l.021-.014a.128.128,0,0,0,.016-.026c.031-.044.058-.094.093-.136a.351.351,0,0,0,.052-.092.334.334,0,0,1,.105-.15l-.018-.019a.189.189,0,0,1,.068-.154.333.333,0,0,1,.033-.095,1.015,1.015,0,0,0,.081-.134.275.275,0,0,1,.08-.086.184.184,0,0,0,.073-.1.573.573,0,0,1,.105-.174.278.278,0,0,0,.065-.168.454.454,0,0,1,.018-.083c0-.015.006-.031.01-.047a.055.055,0,0,1,.031-.039.168.168,0,0,0,.083-.109c.021-.047.042-.094.062-.141a.161.161,0,0,0,.008-.038.778.778,0,0,0-.008-.236.127.127,0,0,1,0-.084c.014-.058.026-.118.042-.175a.2.2,0,0,0,0-.093.164.164,0,0,1-.006-.062.208.208,0,0,0-.008-.137.106.106,0,0,1,0-.047c0-.016,0-.031,0-.047-.006-.085-.016-.171-.015-.258a.061.061,0,0,0-.008-.038v-.008c.012-.043.017-.086.031-.128a.694.694,0,0,0-.024-.51.488.488,0,0,1-.027-.335,1.779,1.779,0,0,0,.058-1.033,9.867,9.867,0,0,1-.026-2.4c.015-.1.021-.194.042-.29a.4.4,0,0,0-.007-.227.958.958,0,0,1,.01-.63.866.866,0,0,0-.01-.571.841.841,0,0,1-.009-.622,1.618,1.618,0,0,0,.029-.972.74.74,0,0,1,.069-.622,1.167,1.167,0,0,0,.1-.792,5.145,5.145,0,0,0-.11-.531c.212-.2.18-.52.271-.788a.452.452,0,0,0,.009-.222.329.329,0,0,0-.061-.16c-.237-.257-.14-.483,0-.728a.728.728,0,0,0,.042-.162,1.208,1.208,0,0,1-.183-.875,1.059,1.059,0,0,0-.01-.232,2.541,2.541,0,0,1,.194-1.586,1.04,1.04,0,0,0,.051-.2c-.1-.08-.176-.143-.265-.213.074-.119.134-.213.185-.294-.015-.5-.043-.983-.03-1.466a1.015,1.015,0,0,1,.148-.659.469.469,0,0,0,.013-.387,1.5,1.5,0,0,1-.134-1.007c.011-.07-.043-.15-.045-.226a.515.515,0,0,1,.034-.277.724.724,0,0,0,.074-.757.873.873,0,0,1-.007-.264,2.962,2.962,0,0,0,.253-.332.405.405,0,0,0,.059-.27A8.1,8.1,0,0,1,541.757,178.4ZM529.64,155.781a19.9,19.9,0,0,1,.064,3.056,23.362,23.362,0,0,0-.038,2.786c.009.31.027.621.044.932-.059,0-.126,0-.218,0a.779.779,0,0,0-.2.022,1.693,1.693,0,0,1-1.382-.137.708.708,0,0,0-.176-.05c-.065.12-.116.212-.174.318-.105-.081-.19-.143-.262-.2-.43.041-.848.1-1.268.111a.7.7,0,0,1-.577-.138.319.319,0,0,0-.335.006,1.046,1.046,0,0,1-.868.209c-.059-.009-.128.056-.193.061-.081.008-.191.025-.241-.024a.5.5,0,0,0-.659-.047.574.574,0,0,1-.229.024,2.492,2.492,0,0,0-.3-.274c-.068-.044-.174-.086-.236-.054a1,1,0,0,1-.458.084.812.812,0,0,0-.294.261.658.658,0,0,1-.512.253,3.348,3.348,0,0,1-.838.034,2.519,2.519,0,0,0-.671.022,6.78,6.78,0,0,1-1.175-.006h-.1l-.13,0-.231,0c-.195,0-.391-.014-.586-.009-.239.006-.476.024-.714.04h0c-.187.013-.374.006-.56.012a2.365,2.365,0,0,1-.4.008c-.262-.035-.53.029-.8.006-.027,0-.053,0-.08,0a.413.413,0,0,0-.228.071c-.016.007-.034.006-.048.014a.8.8,0,0,1-.652.061,1.2,1.2,0,0,0-.459-.03c-.042,0-.082-.015-.124-.009-.078.012-.158.014-.237.019a2.47,2.47,0,0,0-.718.113.149.149,0,0,1-.083.007c-.426-.109-.862.018-1.291-.064a1.258,1.258,0,0,0-.5.049.379.379,0,0,1-.319-.021.4.4,0,0,0-.2-.049,9.126,9.126,0,0,0-1.594.053,3.9,3.9,0,0,1-.822.027c.01-.054.022-.108.03-.162a1.125,1.125,0,0,0-.008-.218l-.19-.1a2.473,2.473,0,0,0,.082-.3,2.581,2.581,0,0,0,0-.3.211.211,0,0,1,.013-.075.5.5,0,0,0,.038-.393.216.216,0,0,1,.015-.123,8.75,8.75,0,0,0,.132-1.208c.029-.217.009-.441.047-.656a3.2,3.2,0,0,0,.023-.684,1.555,1.555,0,0,1,.041-.4c.038-.17.133-.335.055-.518,0-.013.01-.033.009-.049,0-.075,0-.151-.01-.225a1.822,1.822,0,0,1-.03-.252c.011-.235.023-.472.055-.706a.425.425,0,0,0-.043-.314.267.267,0,0,1-.036-.192.523.523,0,0,0-.02-.3,1.54,1.54,0,0,1-.008-.6c0-.059.033-.116.034-.174a2.141,2.141,0,0,1,.067-.73.69.69,0,0,1,.128-.479.7.7,0,0,0,.047-.515c-.027-.121-.055-.252-.208-.3-.033-.009-.056-.059-.08-.092s-.036-.087-.068-.1c-.01,0-.014-.014-.023-.02a1.974,1.974,0,0,1,.124-.306,2.455,2.455,0,0,0,.21-.581,1.094,1.094,0,0,1,.166-.365,1.053,1.053,0,0,0,.244-.641.619.619,0,0,1,.059-.189c.039-.1.082-.2.127-.307a1.144,1.144,0,0,1,.273-.174.346.346,0,0,0,.231-.229,1.151,1.151,0,0,1,.326-.454.558.558,0,0,0,.2-.274.2.2,0,0,1,.12-.143c.213-.074.344-.342.486-.576a.912.912,0,0,1,.222-.274,1.281,1.281,0,0,0,.371-.362.542.542,0,0,1,.208-.188.6.6,0,0,0,.215-.234,1.085,1.085,0,0,1,.165-.232,1.422,1.422,0,0,0,.231-.268.185.185,0,0,1,.115-.085.974.974,0,0,0,.56-.362c.091-.1.177-.212.291-.237.039-.008.078-.058.111-.1.117-.165.246-.274.407-.262.036,0,.075-.056.114-.086s.088-.094.134-.1a1.955,1.955,0,0,1,.693-.084.352.352,0,0,0,.1-.014.464.464,0,0,1,.295-.312.2.2,0,0,0,.1-.083.244.244,0,0,1,.183-.1.931.931,0,0,0,.579-.284.266.266,0,0,1,.12-.076c.192-.05.385-.1.579-.136a.242.242,0,0,1,.248.095,1.591,1.591,0,0,0,.237.194c.085-.073.171-.139.251-.219a.211.211,0,0,1,.165-.078c.224.022.446-.058.67-.014a.341.341,0,0,1,.438.069.867.867,0,0,0,.232-.077c.128-.082.237-.078.34.088.073.115.161.16.263.092.018-.012.042,0,.071,0,.077.091.152.21.264.2a.093.093,0,0,1,.078.054.268.268,0,0,0,.323.153.283.283,0,0,1,.268.111.179.179,0,0,0,.182.065.856.856,0,0,1,.488.086.372.372,0,0,0,.384.034.1.1,0,0,1,.088,0,.528.528,0,0,0,.444-.058c.107.063.2.152.32.111a.973.973,0,0,1,.323-.054,1.018,1.018,0,0,0,.473-.1.423.423,0,0,1,.322-.013,1.208,1.208,0,0,0,.5.073,1.355,1.355,0,0,1,.563.031.314.314,0,0,0,.408-.149.069.069,0,0,1,.08-.031.554.554,0,0,1,.222.133.638.638,0,0,0,.216.153.713.713,0,0,0,.369.042.336.336,0,0,1,.316.195.655.655,0,0,0,.182.191c.144.111.282.243.422.369a.956.956,0,0,1,.213.3,1.116,1.116,0,0,0,.155.25,2.84,2.84,0,0,1,.215.4c.08.136.2.195.268.361.02.049.047.113.077.123.127.042.165.21.191.342a1.131,1.131,0,0,1,.235.19.706.706,0,0,0,.312.239c.062.029.121.081.184.109a.332.332,0,0,1,.162.263.933.933,0,0,0,.062.187c.078.187.16.366.229.565.052.158.109.341.237.4a.272.272,0,0,1,.1.136,3,3,0,0,0,.59.879c.059.068.121.134.183.195a.565.565,0,0,1,.136.456c0,.1-.013.209-.017.264l.155.3A14.223,14.223,0,0,0,529.64,155.781Z"/><path class="cls-2" d="M287.264,179.185c0,1.1.416,2.039.583,3.62h4.492v1.663h-4.43v6.863h4.43V193h-9.9v-1.664h3.6v-6.863h-3.6v-1.663h3.535a28.2,28.2,0,0,1-.582-3.516c0-2.578,1.892-3.556,4.263-3.556a8.566,8.566,0,0,1,3.307.582L292.422,178a6.531,6.531,0,0,0-2.87-.582C288.1,177.418,287.264,177.792,287.264,179.185Z"/><path class="cls-2" d="M297.083,187.4c0-3.805,2.183-6.073,5.261-6.073,3.244,0,5.137,2.226,5.137,5.928s-2.184,5.969-5.262,5.969C298.975,193.224,297.083,191,297.083,187.4Zm8.5-.041c0-2.724-1.019-4.347-3.285-4.347-2.288,0-3.328,1.664-3.328,4.285s1.019,4.242,3.286,4.242C304.549,191.539,305.588,189.875,305.588,187.359Z"/><path class="cls-2" d="M322.332,191.331V193h-9.9v-1.664h2.973v-9.774h1.664l-.041,2.2,5.075-2.475.02,1.851-4.846,2.35v5.844Z"/><path class="cls-2" d="M343.9,187.3c0,2.911,1.227,4.221,3.64,4.221a7.5,7.5,0,0,0,3.785-.977l.5,1.559a8.475,8.475,0,0,1-4.326,1.1c-3.39,0-5.491-1.913-5.491-5.8s2.392-6.051,5.387-6.051c3.411,0,4.929,2.121,4.471,5.823H343.9Zm.145-1.623h6.032c-.042-1.913-.936-2.7-2.808-2.7A3.049,3.049,0,0,0,344.048,185.674Z"/><path class="cls-2" d="M366.22,185.487l-.1,7.508h-1.56v-1.373a5.39,5.39,0,0,1-4.013,1.6c-2.289-.021-3.578-1.227-3.578-3.141,0-2.2,2.267-3.182,7.342-3.577l.021-.811c.02-1.456-.146-2.683-2.413-2.683a8.991,8.991,0,0,0-3.993.977l-.5-1.559a10.05,10.05,0,0,1,4.638-1.1C365.825,181.327,366.241,183.241,366.22,185.487Zm-1.976,4.866.042-2.329c-3.827.312-5.449.853-5.449,2.018,0,.956.666,1.518,1.955,1.539A5.117,5.117,0,0,0,364.244,190.353Z"/><path class="cls-2" d="M371.8,187.4c0-4.138,2.517-6.051,5.7-6.051a8.824,8.824,0,0,1,4.159.935l-.54,1.685a7.5,7.5,0,0,0-3.785-.936c-2.2,0-3.619,1.311-3.619,4.264,0,2.911,1.123,4.221,3.619,4.221a7.116,7.116,0,0,0,3.785-1.06l.5,1.642a8.475,8.475,0,0,1-4.326,1.1C373.792,193.2,371.8,191.29,371.8,187.4Z"/><path class="cls-2" d="M396.255,185.112V193h-1.872v-7.612c0-1.685-.686-2.371-2.08-2.371a5.733,5.733,0,0,0-3.327,1.082V193H387.1V175.941h1.872v4.992l-.167,1.788a5.638,5.638,0,0,1,3.723-1.394C395.173,181.327,396.255,182.68,396.255,185.112Z"/><path class="cls-2" d="M411.314,178.852V193H408.36l-4.741-12h-.208l.1,12h-1.768V178.852H404.7l4.763,12h.187l-.1-12Z"/><path class="cls-2" d="M425.957,181.557V193h-1.58v-1.269a5.66,5.66,0,0,1-3.848,1.5c-2.641,0-3.723-1.352-3.723-3.786v-7.881h1.872v7.611c0,1.684.686,2.371,2.08,2.371a5.737,5.737,0,0,0,3.328-1.081v-8.9Z"/><path class="cls-2" d="M441.848,184.489V193h-1.664v-7.82c0-1.685-.166-2.37-1.268-2.37a2.807,2.807,0,0,0-1.809.852c.02.249.041.52.041.832V193h-1.664v-7.82c0-1.685-.167-2.37-1.269-2.37a2.746,2.746,0,0,0-1.767.81V193h-1.664V181.557h1.372l.021,1a3.276,3.276,0,0,1,2.454-1.228,2.149,2.149,0,0,1,2.143,1.145,3.729,3.729,0,0,1,2.558-1.145C441.016,181.327,441.848,182.264,441.848,184.489Z"/><path class="cls-2" d="M456.408,186.839c0,4.575-2.267,6.364-5.678,6.364a12.783,12.783,0,0,1-4.1-.6V175.941h1.872v4.992l-.167,1.767a5.618,5.618,0,0,1,3.723-1.373C454.89,181.349,456.408,183.324,456.408,186.839Zm-1.893.208c0-2.6-.915-4.014-2.682-4.035a5.589,5.589,0,0,0-3.328,1.082v7.133a8.717,8.717,0,0,0,2.371.291C453.392,191.518,454.515,190.021,454.515,187.047Z"/><path class="cls-2" d="M463.044,187.3c0,2.911,1.227,4.221,3.64,4.221a7.5,7.5,0,0,0,3.785-.977l.5,1.559a8.475,8.475,0,0,1-4.326,1.1c-3.39,0-5.491-1.913-5.491-5.8s2.392-6.051,5.387-6.051c3.411,0,4.929,2.121,4.471,5.823h-7.965Zm.146-1.623h6.031c-.042-1.913-.936-2.7-2.808-2.7A3.048,3.048,0,0,0,463.19,185.674Z"/><path class="cls-2" d="M486.151,191.331V193h-9.9v-1.664h2.974v-9.774h1.664l-.042,2.2,5.075-2.475.02,1.851-4.845,2.35v5.844Z"/><path class="cls-2" d="M515.937,191.331V193h-9.9v-1.664h4.221V183.22h-4.221v-1.663h6.093v9.774Zm-6.822-13.519a1.872,1.872,0,1,1,1.872,1.872A1.863,1.863,0,0,1,509.115,177.812Z"/><path class="cls-2" d="M530.289,185.112V193h-1.872v-7.612c0-1.685-.686-2.371-2.08-2.371a5.733,5.733,0,0,0-3.327,1.082V193h-1.872V181.557h1.581v1.268a5.661,5.661,0,0,1,3.847-1.5C529.208,181.327,530.289,182.68,530.289,185.112Z"/><path class="cls-2" d="M560.989,184.489V193h-1.664v-7.82c0-1.685-.166-2.37-1.268-2.37a2.807,2.807,0,0,0-1.809.852c.02.249.041.52.041.832V193h-1.664v-7.82c0-1.685-.166-2.37-1.268-2.37a2.746,2.746,0,0,0-1.768.81V193h-1.664V181.557H551.3l.021,1a3.278,3.278,0,0,1,2.455-1.228,2.147,2.147,0,0,1,2.142,1.145,3.729,3.729,0,0,1,2.558-1.145C560.157,181.327,560.989,182.264,560.989,184.489Z"/><path class="cls-2" d="M571.286,195.075h3.285v1.663h-8.443v-1.663h3.286v-2.309l-4.43-11.209H567l2.392,6.217.811,2.579h.416l.832-2.579,2.35-6.217h1.913l-4.429,11.209Z"/><path class="cls-2" d="M590.088,191.268V193h-9.025V178.852h1.913v12.416Z"/><path class="cls-2" d="M605.293,191.331V193h-9.9v-1.664h4.221V183.22h-4.221v-1.663h6.093v9.774Zm-6.822-13.519a1.872,1.872,0,1,1,1.872,1.872A1.863,1.863,0,0,1,598.471,177.812Z"/><path class="cls-2" d="M610.14,192.33l.562-1.747a8.812,8.812,0,0,0,4.18.956c2.121,0,3.141-.5,3.141-1.56,0-2.308-7.675-1.539-7.675-5.324,0-2.142,1.893-3.306,4.888-3.306a10.644,10.644,0,0,1,4.139.81l-.541,1.706a8.108,8.108,0,0,0-3.6-.853c-1.976,0-3,.52-3,1.435,0,2.226,7.674,1.456,7.674,5.324,0,2.371-2.1,3.432-5.116,3.432A10.84,10.84,0,0,1,610.14,192.33Z"/><path class="cls-2" d="M634.912,192.308a8.42,8.42,0,0,1-3.931.9c-3.12,0-3.681-1.705-3.64-4.159l.125-5.824h-2.807v-1.663h2.828l.062-2.7h1.934l-.353,2.7H634.5v1.663H629.38l-.125,5.616c-.042,1.455.145,2.682,1.789,2.682a7.457,7.457,0,0,0,3.369-.769Z"/><path class="cls-3" d="M642.941,184.219a1.872,1.872,0,1,1,1.872,1.871A1.864,1.864,0,0,1,642.941,184.219Zm0,7.091a1.872,1.872,0,1,1,1.872,1.873A1.864,1.864,0,0,1,642.941,191.31Z"/></g><g id="solo_testo" data-name="solo testo"><path class="cls-1" d="M263.237,316.417c0,4.368-1.82,11.155-8.866,10.53l-.182-2.912c4.914.234,5.668-4.445,5.746-8.32-2.34,2.522-4.628,4.967-6.657,7.255-.754,2.86-1.586,6.11-2.6,9.463l-3.2-.7c1.611-5.3,4.133-14.483,5.147-19.085l3.433.624a33.046,33.046,0,0,1-1.586,5.487,56.068,56.068,0,0,1,5.954-6.345l2.626,1.431A15.608,15.608,0,0,1,263.237,316.417Z"/><path class="cls-1" d="M277.2,313.635a39.424,39.424,0,0,0-2.7,8.165l-2.991-.546a39.5,39.5,0,0,1,1.171-4.16c-1.638,2-3.355,4.42-4.889,6.551-.234.832-.519,1.691-.78,2.548l-3.12-.779c.962-3.433,2.236-7.307,3.381-12.585l3.328.729a33.392,33.392,0,0,1-1.534,5.459A60.519,60.519,0,0,1,274.7,312Z"/><path class="cls-1" d="M280.891,326.9c-1.145-.6-2.237-.883-3.2-1.456a14.783,14.783,0,0,1-.52-4.03c0-3.666,2.6-10.452,10.453-9.229l.649,2.573.911.13C289.939,320.006,286.845,325.96,280.891,326.9Zm5.486-11.856c-5.044.286-5.9,5.019-5.9,7.1a10.988,10.988,0,0,0,.208,2.5C285.1,323.75,286.689,318.393,286.377,315.039Z"/><path class="cls-1" d="M300.572,315.092c-1.014.077-2.028.13-3.042.13a103.943,103.943,0,0,0-3.406,10.971l-3.016-.649c.52-2.185,1.352-5.876,2.808-10.4-1.066-.078-1.976-.156-2.548-.234l.39-2c.832.052,1.82.105,2.86.13.624-1.794,1.352-3.692,2.158-5.668l3.51,1.066c-.7,1.56-1.326,3.094-1.924,4.628.832-.051,1.69-.1,2.73-.208Z"/><path class="cls-1" d="M302.912,321.565a11.223,11.223,0,0,0-.053,2.6c.859-.053,2.367-.053,5.773-1.742l-.286,2.261a8.82,8.82,0,0,1-5.018,1.821c-2.549,0-3.978-1.483-3.8-4.473a10.46,10.46,0,0,1,7.437-9.724l4.29,1.274a8.093,8.093,0,0,1,.364,2.314c0,2.783-2.106,4.993-5.928,4.993a18.68,18.68,0,0,1-2.627-.235A6.829,6.829,0,0,0,302.912,321.565Zm.806-2.7a6.938,6.938,0,0,0,1.326.13,3.275,3.275,0,0,0,3.432-3.3,4.657,4.657,0,0,0-.208-1.3A9.708,9.708,0,0,0,303.718,318.861Z"/><path class="cls-1" d="M315.339,323.178a9.236,9.236,0,0,0,.053,1.3,18.3,18.3,0,0,0,5.694-1.975l-.286,2.235a9.26,9.26,0,0,1-5.253,2.029c-1.923,0-3.666-1.144-3.666-4.109,0-4.992,3.823-9.984,8.841-9.984a4.346,4.346,0,0,1,2.834.91l-.7,2.6a4.942,4.942,0,0,0-2.054-.494C317.212,315.689,315.339,319.979,315.339,323.178Z"/><path class="cls-1" d="M333.306,315.092c-1.014.077-2.029.13-3.043.13a103.692,103.692,0,0,0-3.4,10.971l-3.017-.649c.52-2.185,1.352-5.876,2.808-10.4-1.066-.078-1.976-.156-2.548-.234l.39-2c.832.052,1.82.105,2.86.13.624-1.794,1.352-3.692,2.158-5.668l3.511,1.066c-.7,1.56-1.327,3.094-1.925,4.628.832-.051,1.69-.1,2.73-.208Z"/><path class="cls-1" d="M335.645,321.565a11.146,11.146,0,0,0-.052,2.6c.858-.053,2.366-.053,5.772-1.742l-.286,2.261a8.82,8.82,0,0,1-5.018,1.821c-2.548,0-3.978-1.483-3.8-4.473a10.458,10.458,0,0,1,7.436-9.724l4.29,1.274a8.06,8.06,0,0,1,.365,2.314c0,2.783-2.107,4.993-5.929,4.993a18.655,18.655,0,0,1-2.626-.235A6.683,6.683,0,0,0,335.645,321.565Zm.806-2.7a6.938,6.938,0,0,0,1.326.13,3.275,3.275,0,0,0,3.432-3.3,4.657,4.657,0,0,0-.208-1.3A9.708,9.708,0,0,0,336.451,318.861Z"/><path class="cls-1" d="M361.775,306.667c-1.768,4.628-5.616,13.7-6.474,20.15l-3.173-.649a52.374,52.374,0,0,1,1.2-5.616,50.383,50.383,0,0,1-5.669,5.876c-.571-.365-1.715-.806-2.782-1.352a16.656,16.656,0,0,1-.182-2.366,10.865,10.865,0,0,1,8.763-11.025l.806,3.068c-4.134.885-6.215,3.744-6.293,8.555,1.925-1.873,4.759-4.733,6.5-6.579,1.014-3.068,2.314-6.526,3.952-11.076Z"/><path class="cls-1" d="M263.289,353.754c.077,1.716.208,3.015.442,4.836l-3.562.39a62.764,62.764,0,0,1-.339-6.526,6.16,6.16,0,0,0,4.707-6.24,73.011,73.011,0,0,0-7.645,7.7l-1.144,3.666-3.12-.676c1.482-4.94,4.576-14.483,6.318-20.073l3.3,1.144c-1.535,5.331-2.653,7.982-3.823,11.1,2.028-2.08,4.082-4.03,5.538-5.433l3.562,1.04A7.506,7.506,0,0,1,263.289,353.754Z"/><path class="cls-1" d="M271.712,352.766a11.138,11.138,0,0,0-.052,2.6c.858-.053,2.366-.053,5.772-1.742l-.286,2.262a8.824,8.824,0,0,1-5.018,1.82c-2.548,0-3.978-1.482-3.8-4.473a10.456,10.456,0,0,1,7.436-9.723l4.29,1.273a8.1,8.1,0,0,1,.364,2.315c0,2.782-2.106,4.992-5.928,4.992a18.505,18.505,0,0,1-2.626-.235A6.67,6.67,0,0,0,271.712,352.766Zm.806-2.705a6.938,6.938,0,0,0,1.326.13,3.274,3.274,0,0,0,3.432-3.3,4.664,4.664,0,0,0-.208-1.3A9.713,9.713,0,0,0,272.518,350.061Z"/><path class="cls-1" d="M295.684,345.1a167.953,167.953,0,0,0-6.942,18.59L285.7,362.8c.78-2.808,2.47-7.124,4.082-11.258a47.205,47.205,0,0,1-6.734,6.578l-2.912-1.2c1.43-4.785,2.834-9.126,3.718-13.208l3.354.649c-.676,2.887-1.638,6.162-2.808,9.725a43.14,43.14,0,0,0,8.216-10.141Z"/><path class="cls-1" d="M316.3,345.147l-7.437,12.792-1.638-.6-2.574-.936c.208-2.73.572-5.278.962-7.879l-5.772,9.569-.936-.338-3.016-1.067c.442-3.8.936-8.6,1.17-12.662l3.666.364c-.338,3.146-.91,6.838-1.4,10.218l6.4-10.738.494.026,3.017.182c-.313,3.719-.781,7.177-1.145,10.791l5.8-11.1Z"/><path class="cls-1" d="M319.161,358.1c-1.143-.6-2.236-.884-3.2-1.456a14.832,14.832,0,0,1-.52-4.031c0-3.666,2.6-10.452,10.453-9.23l.65,2.574.91.131C328.21,351.206,325.116,357.16,319.161,358.1Zm5.487-11.857c-5.044.286-5.9,5.019-5.9,7.1a11.112,11.112,0,0,0,.208,2.5C323.374,354.95,324.96,349.594,324.648,346.239Z"/><path class="cls-1" d="M341.392,344.836a39.476,39.476,0,0,0-2.7,8.164l-2.991-.546a39.619,39.619,0,0,1,1.17-4.16c-1.637,2-3.354,4.42-4.887,6.552-.235.832-.521,1.69-.781,2.547l-3.12-.779c.962-3.432,2.237-7.306,3.38-12.585l3.328.729a33.331,33.331,0,0,1-1.534,5.46A60.664,60.664,0,0,1,338.9,343.2Z"/><path class="cls-1" d="M358.239,337.867c-1.768,4.628-5.616,13.7-6.474,20.15l-3.172-.649a52.184,52.184,0,0,1,1.2-5.616,50.306,50.306,0,0,1-5.668,5.876c-.572-.364-1.716-.806-2.782-1.353a16.342,16.342,0,0,1-.182-2.365,10.863,10.863,0,0,1,8.762-11.024l.806,3.067c-4.134.885-6.214,3.744-6.292,8.555,1.924-1.872,4.758-4.733,6.5-6.578,1.014-3.069,2.314-6.527,3.952-11.077Z"/><path class="cls-1" d="M479.038,316.417c0,4.368-1.82,11.155-8.867,10.53l-.182-2.912c4.914.234,5.669-4.445,5.746-8.32-2.339,2.522-4.628,4.967-6.656,7.255-.754,2.86-1.586,6.11-2.6,9.463l-3.2-.7c1.612-5.3,4.134-14.483,5.148-19.085l3.432.624a32.846,32.846,0,0,1-1.586,5.487,56.067,56.067,0,0,1,5.955-6.345l2.626,1.431A15.608,15.608,0,0,1,479.038,316.417Z"/><path class="cls-1" d="M493,313.635a39.489,39.489,0,0,0-2.7,8.165l-2.99-.546a39.261,39.261,0,0,1,1.171-4.16c-1.639,2-3.355,4.42-4.889,6.551-.234.832-.52,1.691-.78,2.548l-3.12-.779c.962-3.433,2.236-7.307,3.38-12.585l3.329.729a33.3,33.3,0,0,1-1.535,5.459A60.73,60.73,0,0,1,490.5,312Z"/><path class="cls-1" d="M496.691,326.9c-1.144-.6-2.236-.883-3.2-1.456a14.783,14.783,0,0,1-.52-4.03c0-3.666,2.6-10.452,10.452-9.229l.65,2.573.91.13C505.739,320.006,502.646,325.96,496.691,326.9Zm5.486-11.856c-5.044.286-5.9,5.019-5.9,7.1a11.05,11.05,0,0,0,.208,2.5C500.9,323.75,502.489,318.393,502.177,315.039Z"/><path class="cls-1" d="M516.373,315.092c-1.014.077-2.028.13-3.042.13a103.709,103.709,0,0,0-3.406,10.971l-3.017-.649c.521-2.185,1.353-5.876,2.809-10.4-1.067-.078-1.977-.156-2.548-.234l.39-2c.832.052,1.819.105,2.86.13.624-1.794,1.352-3.692,2.158-5.668l3.51,1.066c-.7,1.56-1.326,3.094-1.924,4.628.832-.051,1.69-.1,2.73-.208Z"/><path class="cls-1" d="M518.712,321.565a11.2,11.2,0,0,0-.052,2.6c.859-.053,2.366-.053,5.773-1.742l-.286,2.261a8.822,8.822,0,0,1-5.019,1.821c-2.548,0-3.978-1.483-3.8-4.473a10.459,10.459,0,0,1,7.437-9.724l4.29,1.274a8.093,8.093,0,0,1,.364,2.314c0,2.783-2.107,4.993-5.928,4.993a18.68,18.68,0,0,1-2.627-.235A6.842,6.842,0,0,0,518.712,321.565Zm.807-2.7a6.931,6.931,0,0,0,1.326.13,3.274,3.274,0,0,0,3.431-3.3,4.621,4.621,0,0,0-.208-1.3A9.706,9.706,0,0,0,519.519,318.861Z"/><path class="cls-1" d="M531.14,323.178a9.412,9.412,0,0,0,.052,1.3,18.3,18.3,0,0,0,5.695-1.975l-.286,2.235a9.26,9.26,0,0,1-5.253,2.029c-1.924,0-3.666-1.144-3.666-4.109,0-4.992,3.822-9.984,8.841-9.984a4.347,4.347,0,0,1,2.834.91l-.7,2.6a4.937,4.937,0,0,0-2.053-.494C533.012,315.689,531.14,319.979,531.14,323.178Z"/><path class="cls-1" d="M549.107,315.092c-1.015.077-2.029.13-3.043.13a103.943,103.943,0,0,0-3.406,10.971l-3.016-.649c.52-2.185,1.352-5.876,2.808-10.4-1.066-.078-1.976-.156-2.548-.234l.39-2c.832.052,1.82.105,2.86.13.624-1.794,1.352-3.692,2.158-5.668l3.51,1.066c-.7,1.56-1.326,3.094-1.924,4.628.832-.051,1.69-.1,2.73-.208Z"/><path class="cls-1" d="M551.446,321.565a11.146,11.146,0,0,0-.052,2.6c.858-.053,2.366-.053,5.772-1.742l-.286,2.261a8.82,8.82,0,0,1-5.018,1.821c-2.548,0-3.978-1.483-3.8-4.473a10.458,10.458,0,0,1,7.436-9.724l4.29,1.274a8.093,8.093,0,0,1,.364,2.314c0,2.783-2.106,4.993-5.928,4.993a18.655,18.655,0,0,1-2.626-.235A6.683,6.683,0,0,0,551.446,321.565Zm.806-2.7a6.938,6.938,0,0,0,1.326.13,3.275,3.275,0,0,0,3.432-3.3,4.657,4.657,0,0,0-.208-1.3A9.708,9.708,0,0,0,552.252,318.861Z"/><path class="cls-1" d="M577.576,306.667c-1.768,4.628-5.616,13.7-6.474,20.15l-3.173-.649a51.891,51.891,0,0,1,1.2-5.616,50.383,50.383,0,0,1-5.669,5.876c-.572-.365-1.716-.806-2.782-1.352a16.511,16.511,0,0,1-.182-2.366,10.865,10.865,0,0,1,8.762-11.025l.807,3.068c-4.135.885-6.215,3.744-6.293,8.555,1.924-1.873,4.758-4.733,6.5-6.579,1.013-3.068,2.314-6.526,3.952-11.076Z"/><path class="cls-1" d="M479.089,353.754c.078,1.716.208,3.015.442,4.836l-3.562.39a62.756,62.756,0,0,1-.338-6.526,6.159,6.159,0,0,0,4.706-6.24,73.116,73.116,0,0,0-7.644,7.7l-1.144,3.666-3.12-.676c1.482-4.94,4.576-14.483,6.318-20.073l3.3,1.144c-1.534,5.331-2.652,7.982-3.822,11.1,2.028-2.08,4.082-4.03,5.538-5.433l3.562,1.04A7.506,7.506,0,0,1,479.089,353.754Z"/><path class="cls-1" d="M487.513,352.766a11.138,11.138,0,0,0-.052,2.6c.858-.053,2.366-.053,5.772-1.742l-.286,2.262a8.824,8.824,0,0,1-5.018,1.82c-2.548,0-3.978-1.482-3.8-4.473a10.455,10.455,0,0,1,7.436-9.723l4.29,1.273a8.1,8.1,0,0,1,.364,2.315c0,2.782-2.106,4.992-5.928,4.992a18.505,18.505,0,0,1-2.626-.235A6.67,6.67,0,0,0,487.513,352.766Zm.806-2.705a6.938,6.938,0,0,0,1.326.13,3.274,3.274,0,0,0,3.432-3.3,4.664,4.664,0,0,0-.208-1.3A9.713,9.713,0,0,0,488.319,350.061Z"/><path class="cls-1" d="M511.485,345.1a167.953,167.953,0,0,0-6.942,18.59L501.5,362.8c.78-2.808,2.47-7.124,4.082-11.258a47.205,47.205,0,0,1-6.734,6.578l-2.912-1.2c1.429-4.785,2.834-9.126,3.717-13.208l3.355.649c-.676,2.887-1.638,6.162-2.808,9.725a43.14,43.14,0,0,0,8.216-10.141Z"/><path class="cls-1" d="M532.1,345.147l-7.437,12.792-1.638-.6-2.574-.936c.208-2.73.572-5.278.962-7.879l-5.772,9.569-.936-.338-3.017-1.067c.443-3.8.936-8.6,1.17-12.662l3.667.364c-.338,3.146-.91,6.838-1.4,10.218l6.4-10.738.494.026,3.016.182c-.312,3.719-.78,7.177-1.144,10.791l5.8-11.1Z"/><path class="cls-1" d="M534.962,358.1c-1.144-.6-2.236-.884-3.2-1.456a14.792,14.792,0,0,1-.52-4.031c0-3.666,2.6-10.452,10.452-9.23l.651,2.574.909.131C544.011,351.206,540.917,357.16,534.962,358.1Zm5.486-11.857c-5.044.286-5.9,5.019-5.9,7.1a11.05,11.05,0,0,0,.208,2.5C539.174,354.95,540.76,349.594,540.448,346.239Z"/><path class="cls-1" d="M557.192,344.836a39.6,39.6,0,0,0-2.7,8.164l-2.99-.546a39.378,39.378,0,0,1,1.17-4.16c-1.638,2-3.354,4.42-4.888,6.552-.234.832-.52,1.69-.78,2.547l-3.12-.779c.962-3.432,2.236-7.306,3.38-12.585l3.328.729a33.331,33.331,0,0,1-1.534,5.46A60.55,60.55,0,0,1,554.7,343.2Z"/><path class="cls-1" d="M574.04,337.867c-1.768,4.628-5.616,13.7-6.474,20.15l-3.172-.649a52.184,52.184,0,0,1,1.2-5.616,50.3,50.3,0,0,1-5.669,5.876c-.571-.364-1.715-.806-2.781-1.353a16.342,16.342,0,0,1-.182-2.365,10.863,10.863,0,0,1,8.762-11.024l.806,3.067c-4.134.885-6.214,3.744-6.293,8.555,1.925-1.872,4.759-4.733,6.5-6.578,1.014-3.069,2.314-6.527,3.952-11.077Z"/><path class="cls-1" d="M360.933,21.655a47.006,47.006,0,0,0-3.12,8.918l-2.965-.649a29.389,29.389,0,0,1,1.248-4.5,40.609,40.609,0,0,1-5.07,4.758c-.6-.364-1.222-.65-2.288-1.2a12.5,12.5,0,0,1-.208-2.626c0-4.29,3.146-9.724,10.453-11l.728,3.042c-5.721,1.04-7.931,4.914-8.009,8.736,2.028-1.846,4.992-4.836,6.838-6.76Z"/><path class="cls-1" d="M374.712,17.234a39.563,39.563,0,0,0-2.7,8.165l-2.99-.546a39.156,39.156,0,0,1,1.171-4.16c-1.639,2-3.355,4.42-4.889,6.552-.234.832-.52,1.69-.78,2.548l-3.12-.779c.962-3.433,2.236-7.307,3.38-12.585l3.328.728a33.331,33.331,0,0,1-1.534,5.46,60.455,60.455,0,0,1,5.642-7.02Z"/><path class="cls-1" d="M387.374,20.016c0,4.551-1.976,9.777-8.32,11.389l-.859-2.938c4.759-1.274,5.8-4.862,5.877-8.97-2.314,2.418-5.9,6.552-7.514,8.372l-2.392-1.248c1.17-2.73,4.316-13.131,5.59-17.576l3.3,1.143c-1.092,3.355-2.7,8.58-4.239,12.169a37.661,37.661,0,0,1,5.825-6.318c.6.363,1.482.832,2.574,1.4A17.673,17.673,0,0,1,387.374,20.016Z"/><path class="cls-1" d="M395.46,17.079a104.733,104.733,0,0,0-4.161,12.74l-3.094-.676A83.057,83.057,0,0,1,392.08,16.2Zm.754-2.263-3.12-.91A36.534,36.534,0,0,1,395.642,7.8l3.12.962A61.544,61.544,0,0,0,396.214,14.816Z"/><path class="cls-1" d="M405.834,18.691c-1.014.077-2.028.13-3.042.13a103.722,103.722,0,0,0-3.406,10.972l-3.017-.65c.521-2.184,1.353-5.876,2.809-10.4-1.067-.078-1.977-.156-2.549-.234l.391-2c.832.051,1.819.1,2.859.13.624-1.794,1.353-3.693,2.159-5.668l3.51,1.066c-.7,1.56-1.326,3.094-1.924,4.628.832-.052,1.69-.105,2.73-.208Z"/><path class="cls-1" d="M417.638,17.234a39.5,39.5,0,0,0-2.7,8.165l-2.991-.546a39.863,39.863,0,0,1,1.17-4.16c-1.637,2-3.354,4.42-4.887,6.552-.235.832-.521,1.69-.781,2.548l-3.12-.779c.962-3.433,2.237-7.307,3.38-12.585l3.328.728a33.424,33.424,0,0,1-1.533,5.46,60.455,60.455,0,0,1,5.642-7.02Z"/><path class="cls-1" d="M429.649,21.655a47.146,47.146,0,0,0-3.12,8.918l-2.964-.649a29.389,29.389,0,0,1,1.248-4.5,40.609,40.609,0,0,1-5.07,4.758c-.6-.364-1.222-.65-2.288-1.2a12.5,12.5,0,0,1-.208-2.626c0-4.29,3.146-9.724,10.452-11l.728,3.042c-5.72,1.04-7.93,4.914-8.008,8.736,2.028-1.846,4.992-4.836,6.838-6.76Z"/><path class="cls-1" d="M443.429,17.234a39.5,39.5,0,0,0-2.7,8.165l-2.99-.546a39.378,39.378,0,0,1,1.17-4.16c-1.638,2-3.354,4.42-4.888,6.552-.234.832-.52,1.69-.78,2.548l-3.12-.779c.962-3.433,2.236-7.307,3.38-12.585l3.328.728a33.331,33.331,0,0,1-1.534,5.46,60.455,60.455,0,0,1,5.642-7.02Z"/><path class="cls-1" d="M458.119,17.5a167.89,167.89,0,0,0-6.942,18.591l-3.042-.885c.78-2.808,2.47-7.124,4.082-11.258a47.205,47.205,0,0,1-6.734,6.578l-2.912-1.2c1.43-4.784,2.834-9.126,3.718-13.208l3.354.649c-.676,2.887-1.638,6.163-2.808,9.725a43.14,43.14,0,0,0,8.216-10.141Z"/><path class="cls-1" d="M357.02,48.279a104.908,104.908,0,0,0-4.161,12.74l-3.093-.675a82.923,82.923,0,0,1,3.874-12.95Zm.754-2.263-3.121-.909A36.672,36.672,0,0,1,357.2,39l3.12.962A61.544,61.544,0,0,0,357.774,46.016Z"/><path class="cls-1" d="M374.206,41.467c-1.768,4.628-5.617,13.7-6.474,20.15l-3.173-.649a52.255,52.255,0,0,1,1.2-5.617,50.144,50.144,0,0,1-5.668,5.876c-.572-.364-1.716-.8-2.782-1.352a16.485,16.485,0,0,1-.182-2.365,10.864,10.864,0,0,1,8.762-11.025l.806,3.068c-4.134.884-6.214,3.744-6.292,8.554,1.924-1.872,4.758-4.732,6.5-6.578,1.014-3.068,2.314-6.526,3.953-11.076Z"/><path class="cls-1" d="M375.063,56.365a11.147,11.147,0,0,0-.052,2.6c.858-.053,2.366-.053,5.772-1.742l-.286,2.261a8.82,8.82,0,0,1-5.018,1.821c-2.548,0-3.978-1.483-3.8-4.473a10.458,10.458,0,0,1,7.436-9.724l4.29,1.274a8.06,8.06,0,0,1,.365,2.314c0,2.782-2.107,4.992-5.929,4.992a18.632,18.632,0,0,1-2.626-.234A6.683,6.683,0,0,0,375.063,56.365Zm.806-2.7a6.938,6.938,0,0,0,1.326.13,3.275,3.275,0,0,0,3.432-3.3,4.67,4.67,0,0,0-.208-1.3A9.715,9.715,0,0,0,375.869,53.661Z"/><path class="cls-1" d="M398.7,49.4a42.812,42.812,0,0,0-4.212,12.376l-3.224-.546a57.946,57.946,0,0,1,2.756-9.542,72.583,72.583,0,0,0-6.162,5.331c-.286,1.248-.7,2.469-1.092,3.8l-3.12-.78c.962-3.432,2.184-7.046,3.38-12.35l3.328.676a39.554,39.554,0,0,1-1.43,5.1,70.859,70.859,0,0,1,6.786-5.746Z"/><path class="cls-1" d="M409.07,49.891c-1.013.078-2.027.13-3.042.13a104.428,104.428,0,0,0-3.406,10.972l-3.015-.649c.519-2.185,1.351-5.877,2.807-10.4-1.066-.078-1.975-.156-2.548-.234l.39-2c.832.052,1.82.1,2.86.13.624-1.794,1.352-3.693,2.158-5.668l3.511,1.065c-.7,1.561-1.326,3.095-1.925,4.629.832-.053,1.691-.1,2.731-.208Z"/><path class="cls-1" d="M414.868,48.279a104.72,104.72,0,0,0-4.16,12.74l-3.094-.675a82.923,82.923,0,0,1,3.874-12.95Zm.754-2.263-3.12-.909A36.687,36.687,0,0,1,415.05,39l3.12.962A61.8,61.8,0,0,0,415.622,46.016Z"/><path class="cls-1" d="M429.22,40.478l-.728,2.731a4.6,4.6,0,0,0-2.08-.468c-1.664,0-2.756,1.248-3.64,4.237-.078.313-.182.6-.26.911,1.118-.026,2.21-.1,3.614-.234l-.52,2.236c-1.2.1-2.418.13-3.588.13h-.156c-1.768,5.825-3.64,11.83-4.81,17.031l-3.016-.624c1.117-5.2,2.652-10.947,4.186-16.537-.754-.052-1.378-.13-1.821-.182l.391-2c.6.026,1.3.078,2.028.1.13-.545.286-1.065.442-1.611.91-3.25,2.86-6.526,6.812-6.526A5.853,5.853,0,0,1,429.22,40.478Z"/><path class="cls-1" d="M431.352,48.279a104.908,104.908,0,0,0-4.161,12.74l-3.093-.675a82.923,82.923,0,0,1,3.874-12.95Zm.754-2.263-3.121-.909A36.672,36.672,0,0,1,431.534,39l3.12.962A61.544,61.544,0,0,0,432.106,46.016Z"/><path class="cls-1" d="M434.81,56.365a11.089,11.089,0,0,0-.052,2.6c.858-.053,2.366-.053,5.772-1.742l-.286,2.261a8.82,8.82,0,0,1-5.018,1.821c-2.548,0-3.978-1.483-3.8-4.473a10.457,10.457,0,0,1,7.436-9.724l4.29,1.274a8.093,8.093,0,0,1,.364,2.314c0,2.782-2.106,4.992-5.928,4.992a18.632,18.632,0,0,1-2.626-.234A6.683,6.683,0,0,0,434.81,56.365Zm.806-2.7a6.936,6.936,0,0,0,1.325.13,3.275,3.275,0,0,0,3.433-3.3,4.67,4.67,0,0,0-.208-1.3A9.715,9.715,0,0,0,435.616,53.661Z"/><path class="cls-1" d="M456.676,48.435a39.5,39.5,0,0,0-2.7,8.164l-2.99-.545a39.55,39.55,0,0,1,1.169-4.161c-1.637,2-3.354,4.42-4.887,6.552-.235.832-.521,1.691-.781,2.548l-3.12-.779c.962-3.433,2.237-7.307,3.38-12.585l3.328.728a33.4,33.4,0,0,1-1.533,5.46,60.624,60.624,0,0,1,5.642-7.02Z"/><path class="cls-1" d="M548.132,21.655a47.146,47.146,0,0,0-3.12,8.918l-2.965-.649a29.389,29.389,0,0,1,1.248-4.5,40.609,40.609,0,0,1-5.07,4.758c-.6-.364-1.222-.65-2.288-1.2a12.5,12.5,0,0,1-.208-2.626c0-4.29,3.146-9.724,10.453-11l.728,3.042c-5.72,1.04-7.93,4.914-8.009,8.736,2.028-1.846,4.993-4.836,6.838-6.76Z"/><path class="cls-1" d="M561.912,17.234a39.444,39.444,0,0,0-2.7,8.165l-2.991-.546a39.636,39.636,0,0,1,1.171-4.16c-1.638,2-3.355,4.42-4.889,6.552-.234.832-.519,1.69-.78,2.548l-3.12-.779c.962-3.433,2.236-7.307,3.381-12.585l3.328.728a33.43,33.43,0,0,1-1.534,5.46,60.35,60.35,0,0,1,5.642-7.02Z"/><path class="cls-1" d="M574.573,20.016c0,4.551-1.976,9.777-8.32,11.389l-.858-2.938c4.758-1.274,5.8-4.862,5.876-8.97-2.314,2.418-5.9,6.552-7.514,8.372l-2.392-1.248c1.17-2.73,4.316-13.131,5.59-17.576l3.3,1.143c-1.092,3.355-2.7,8.58-4.238,12.169a37.619,37.619,0,0,1,5.824-6.318c.6.363,1.482.832,2.574,1.4A17.673,17.673,0,0,1,574.573,20.016Z"/><path class="cls-1" d="M582.659,17.079a104.72,104.72,0,0,0-4.16,12.74l-3.1-.676A83.057,83.057,0,0,1,579.279,16.2Zm.754-2.263-3.12-.91A36.62,36.62,0,0,1,582.841,7.8l3.12.962A61.544,61.544,0,0,0,583.413,14.816Z"/><path class="cls-1" d="M593.033,18.691c-1.014.077-2.028.13-3.042.13a103.956,103.956,0,0,0-3.406,10.972l-3.017-.65c.521-2.184,1.353-5.876,2.809-10.4-1.066-.078-1.977-.156-2.548-.234l.39-2c.832.051,1.82.1,2.86.13.624-1.794,1.352-3.693,2.158-5.668l3.51,1.066c-.7,1.56-1.326,3.094-1.924,4.628.832-.052,1.69-.105,2.73-.208Z"/><path class="cls-1" d="M604.837,17.234a39.5,39.5,0,0,0-2.7,8.165l-2.99-.546a39.378,39.378,0,0,1,1.17-4.16c-1.638,2-3.354,4.42-4.888,6.552-.234.832-.521,1.69-.78,2.548l-3.121-.779c.962-3.433,2.237-7.307,3.38-12.585l3.328.728a33.324,33.324,0,0,1-1.533,5.46,60.455,60.455,0,0,1,5.642-7.02Z"/><path class="cls-1" d="M616.849,21.655a47.076,47.076,0,0,0-3.12,8.918l-2.965-.649a29.389,29.389,0,0,1,1.248-4.5,40.609,40.609,0,0,1-5.07,4.758c-.6-.364-1.222-.65-2.288-1.2a12.5,12.5,0,0,1-.208-2.626c0-4.29,3.146-9.724,10.453-11l.728,3.042c-5.721,1.04-7.931,4.914-8.009,8.736,2.028-1.846,4.992-4.836,6.838-6.76Z"/><path class="cls-1" d="M630.628,17.234a39.563,39.563,0,0,0-2.7,8.165l-2.99-.546a39.156,39.156,0,0,1,1.171-4.16c-1.639,2-3.355,4.42-4.889,6.552-.234.832-.52,1.69-.78,2.548l-3.12-.779c.962-3.433,2.236-7.307,3.38-12.585l3.328.728a33.331,33.331,0,0,1-1.534,5.46,60.455,60.455,0,0,1,5.642-7.02Z"/><path class="cls-1" d="M645.318,17.5a168.092,168.092,0,0,0-6.942,18.591l-3.042-.885c.78-2.808,2.47-7.124,4.082-11.258a47.205,47.205,0,0,1-6.734,6.578l-2.912-1.2c1.43-4.784,2.834-9.126,3.718-13.208l3.354.649c-.676,2.887-1.638,6.163-2.808,9.725a43.168,43.168,0,0,0,8.217-10.141Z"/><path class="cls-1" d="M553.448,48.279a104.72,104.72,0,0,0-4.16,12.74l-3.094-.675a82.923,82.923,0,0,1,3.874-12.95Zm.754-2.263-3.12-.909A36.687,36.687,0,0,1,553.63,39l3.121.962A61.477,61.477,0,0,0,554.2,46.016Z"/><path class="cls-1" d="M563.822,49.891c-1.014.078-2.028.13-3.042.13a103.956,103.956,0,0,0-3.406,10.972l-3.017-.649c.521-2.185,1.353-5.877,2.809-10.4-1.066-.078-1.976-.156-2.548-.234l.39-2c.832.052,1.82.1,2.86.13.624-1.794,1.352-3.693,2.158-5.668l3.51,1.065c-.7,1.561-1.326,3.095-1.924,4.629.832-.053,1.69-.1,2.73-.208Z"/><path class="cls-1" d="M566.162,56.365a11.224,11.224,0,0,0-.053,2.6c.859-.053,2.367-.053,5.773-1.742l-.286,2.261a8.82,8.82,0,0,1-5.018,1.821c-2.549,0-3.978-1.483-3.8-4.473a10.46,10.46,0,0,1,7.437-9.724l4.29,1.274a8.093,8.093,0,0,1,.364,2.314c0,2.782-2.106,4.992-5.928,4.992a18.657,18.657,0,0,1-2.627-.234A6.829,6.829,0,0,0,566.162,56.365Zm.806-2.7a6.938,6.938,0,0,0,1.326.13,3.275,3.275,0,0,0,3.432-3.3,4.67,4.67,0,0,0-.208-1.3A9.715,9.715,0,0,0,566.968,53.661Z"/><path class="cls-1" d="M588.028,48.435a39.5,39.5,0,0,0-2.7,8.164l-2.99-.545a39.326,39.326,0,0,1,1.17-4.161c-1.638,2-3.355,4.42-4.889,6.552-.234.832-.519,1.691-.779,2.548l-3.121-.779c.962-3.433,2.236-7.307,3.381-12.585l3.328.728a33.3,33.3,0,0,1-1.534,5.46,60.519,60.519,0,0,1,5.642-7.02Z"/><path class="cls-1" d="M600.04,52.855a47.146,47.146,0,0,0-3.12,8.918l-2.964-.65a29.444,29.444,0,0,1,1.248-4.5,40.556,40.556,0,0,1-5.071,4.759c-.6-.365-1.222-.651-2.288-1.2a12.5,12.5,0,0,1-.208-2.626c0-4.29,3.146-9.724,10.453-11l.728,3.043c-5.72,1.04-7.93,4.914-8.008,8.737,2.027-1.847,4.992-4.837,6.838-6.761Z"/><path class="cls-1" d="M613.9,51.217c0,4.55-1.977,9.776-8.321,11.388l-.858-2.937c4.758-1.275,5.8-4.862,5.876-8.971-2.314,2.418-5.9,6.552-7.514,8.372l-2.392-1.248c1.17-2.729,4.316-13.13,5.59-17.576l3.3,1.144c-1.092,3.354-2.7,8.58-4.238,12.169a37.592,37.592,0,0,1,5.824-6.319c.6.364,1.482.832,2.574,1.4A17.7,17.7,0,0,1,613.9,51.217Z"/><path class="cls-1" d="M624.583,41.753a127.143,127.143,0,0,0-6.812,19.24l-3.042-.649a122.488,122.488,0,0,1,6.37-19.917Z"/><path class="cls-1" d="M625.363,56.365a11.147,11.147,0,0,0-.052,2.6c.858-.053,2.366-.053,5.772-1.742l-.286,2.261a8.82,8.82,0,0,1-5.018,1.821c-2.548,0-3.978-1.483-3.8-4.473a10.46,10.46,0,0,1,7.437-9.724l4.29,1.274a8.093,8.093,0,0,1,.364,2.314c0,2.782-2.106,4.992-5.928,4.992a18.632,18.632,0,0,1-2.626-.234A6.683,6.683,0,0,0,625.363,56.365Zm.806-2.7a6.938,6.938,0,0,0,1.326.13,3.275,3.275,0,0,0,3.432-3.3,4.67,4.67,0,0,0-.208-1.3A9.715,9.715,0,0,0,626.169,53.661Z"/></g></svg>