<svg xmlns="http://www.w3.org/2000/svg" viewBox="0 0 354.33 86.254"><defs><style>.cls-1{fill:#f36;}.cls-2{fill:#1858a8;}.cls-3{fill:#ffe7e8;}.cls-4{fill:#0046b7;}</style></defs><title>for</title><g id="Livello_1" data-name="Livello 1"><path class="cls-1" d="M197.923,50.091l.017.012.034-.011h.038a2.624,2.624,0,0,0,.452,0,.932.932,0,0,1,.258-.009,1.281,1.281,0,0,0,.322-.013.257.257,0,0,0,.2-.1.319.319,0,0,1,.113-.1.385.385,0,0,0,.176-.032.109.109,0,0,1,.091.021c.008.005.015.014.023.02a10.2,10.2,0,0,0-.135-2.38.8.8,0,0,1-.022-.307c.086-.589.186-1.176.272-1.765.056-.385.1-.773.138-1.161a.374.374,0,0,0-.029-.227,1.98,1.98,0,0,1-.185-1.135c0-.18-.071-.358-.075-.538a4.992,4.992,0,0,1,.006-1.292,2.615,2.615,0,0,0-.09-1.228c-.14-.505-.109-1.024-.257-1.524l.413-.379a.869.869,0,0,0-.059-.133c-.082-.125-.213-.237-.244-.372-.006-.031-.006-.064-.011-.095.007-.055.017-.109.024-.163a1.708,1.708,0,0,0-.022-.456c.036-.306.08-.611.123-.916-.1,0-.207,0-.31,0-.075-.59-.131-1.183-.185-1.775-.016-.18,0-.363.006-.568.118-.095.245-.181.354-.287a3.187,3.187,0,0,0,.246-.306,3.538,3.538,0,0,0-.164-.371,4.381,4.381,0,0,1-.416-2.105,3.332,3.332,0,0,0-.027-.618,4.782,4.782,0,0,1-.006-2.007,3.107,3.107,0,0,1-.472.014,10.179,10.179,0,0,0-1.342.022,1.341,1.341,0,0,1,.019.478,3.468,3.468,0,0,0,0,1.24,28.171,28.171,0,0,1-.036,4.129,3.838,3.838,0,0,0,.049,1.468.724.724,0,0,1,.02.388,6.373,6.373,0,0,0,.059,1.93c.013.592.068,1.184.106,1.777h.132c0,.194,0,.388-.008.582a5.529,5.529,0,0,0,.06.777c.028.335.061.669.077,1.005a10.343,10.343,0,0,0,.049,1.632.189.189,0,0,1,0,.078c-.177.711-.018,1.446-.146,2.161a1.271,1.271,0,0,0-.029.387c.076.51.189,1.016.247,1.528a5.172,5.172,0,0,1-.025.93c-.013.181-.134.381-.087.534a3.849,3.849,0,0,1,.1,1.251h.068Z"/><path class="cls-1" d="M147.209,37.32a.72.72,0,0,1,.02.387,6.373,6.373,0,0,0,.059,1.93c.013.592.068,1.184.106,1.777h.132c0,.194,0,.388-.008.582a5.529,5.529,0,0,0,.06.777c.028.335.061.67.077,1.006a10.35,10.35,0,0,0,.049,1.632.182.182,0,0,1,0,.077c-.177.712-.018,1.447-.146,2.161a1.271,1.271,0,0,0-.029.387c.076.511.189,1.016.247,1.529a5.177,5.177,0,0,1-.025.93c-.013.18-.134.38-.087.533.228.735-.024,1.5.178,2.233a1.917,1.917,0,0,1,.022,1.078,1.787,1.787,0,0,0,.011.609v.006h1.847a5.917,5.917,0,0,0-.012-1.081,2.078,2.078,0,0,1-.007-.237c0-.154.006-.309.009-.463,0-.051.03-.106.02-.154-.228-1.1.056-2.23-.227-3.324a.791.791,0,0,1-.022-.306c.086-.589.186-1.177.272-1.766.056-.385.1-.772.138-1.16a.376.376,0,0,0-.029-.228,1.977,1.977,0,0,1-.185-1.134c0-.181-.071-.359-.075-.539a4.992,4.992,0,0,1,.006-1.292,2.616,2.616,0,0,0-.09-1.228c-.14-.505-.109-1.024-.257-1.524l.413-.378a.828.828,0,0,0-.059-.133c-.082-.126-.213-.238-.244-.373-.006-.031-.006-.063-.011-.095.007-.054.017-.109.024-.163a1.708,1.708,0,0,0-.022-.456c.036-.306.08-.61.123-.915-.1,0-.207,0-.31,0-.075-.591-.131-1.184-.185-1.776-.016-.18,0-.363.006-.568.118-.095.245-.182.354-.287a3.068,3.068,0,0,0,.246-.306,3.538,3.538,0,0,0-.164-.371,4.379,4.379,0,0,1-.416-2.1,3.325,3.325,0,0,0-.027-.618,4.782,4.782,0,0,1-.006-2.007,3.389,3.389,0,0,1-.472.014,10.179,10.179,0,0,0-1.342.021,1.341,1.341,0,0,1,.019.478,3.473,3.473,0,0,0,0,1.241,28.172,28.172,0,0,1-.036,4.129A3.84,3.84,0,0,0,147.209,37.32Z"/><path class="cls-1" d="M244.494,42.019a.722.722,0,0,1-.259.288c-.589.333-.879.941-1.324,1.406-.409.429-.789.886-1.18,1.332.029.032.061.062.091.094-.135.139-.271.277-.416.406a5.45,5.45,0,0,0-.507.592c-.218.256-.431.516-.657.766a10.221,10.221,0,0,0-1.119,1.188.211.211,0,0,1-.053.058c-.628.378-1.035,1.01-1.631,1.425a1.237,1.237,0,0,0-.294.253c-.307.415-.585.851-.907,1.255a5.109,5.109,0,0,1-.674.64c-.138.118-.364.174-.439.316-.358.68-1.077,1.044-1.453,1.7a1.92,1.92,0,0,1-.747.778,1.8,1.8,0,0,0-.423.438c-.167.2-.329.394-.493.592l1.207,1.207c.137-.114.282-.217.413-.33a6.607,6.607,0,0,0,.931-.931c.049-.061.106-.116.162-.173.109-.108.223-.214.334-.321.036-.035.1-.053.123-.094.615-.937,1.617-1.538,2.19-2.511a.786.786,0,0,1,.2-.232c.477-.356.964-.7,1.441-1.057.312-.233.615-.477.918-.722a.376.376,0,0,0,.14-.182,1.981,1.981,0,0,1,.672-.933c.124-.13.2-.3.328-.434a5,5,0,0,1,.918-.909,2.62,2.62,0,0,0,.8-.932c.259-.456.647-.8.9-1.259l.559.024a.808.808,0,0,0,.053-.136,1.391,1.391,0,0,1,.091-.436c.017-.026.041-.048.059-.075l.133-.1a1.675,1.675,0,0,0,.306-.338c.242-.19.489-.375.734-.56-.074-.072-.146-.147-.219-.219.365-.471.745-.93,1.126-1.387.115-.138.258-.254.405-.4.151.017.3.046.453.048a2.946,2.946,0,0,0,.391-.042,3.7,3.7,0,0,0,.146-.378,4.377,4.377,0,0,1,1.194-1.783,3.378,3.378,0,0,0,.418-.456,4.753,4.753,0,0,1,1.415-1.423,3.2,3.2,0,0,1-.344-.324,10.235,10.235,0,0,0-.964-.934,1.359,1.359,0,0,1-.324.352,3.468,3.468,0,0,0-.877.878,28.029,28.029,0,0,1-2.944,2.894A3.86,3.86,0,0,0,244.494,42.019Z"/><path class="cls-2" d="M187.293,58.843a1.287,1.287,0,0,1-.291-.691,1.782,1.782,0,0,1,.133-.984.373.373,0,0,0,0-.358.88.88,0,0,0-.575-.524c-.193-.079-.405-.128-.6-.189a1.869,1.869,0,0,1-.439-1.176,2.523,2.523,0,0,1-1.131-.427.843.843,0,0,1-.481-.967.448.448,0,0,0-.1-.508,3.179,3.179,0,0,0-1.107-.012,1.494,1.494,0,0,1-.715.022,8.067,8.067,0,0,0-2.031-.05,3.263,3.263,0,0,1-1.369-.085,2.184,2.184,0,0,0-.861-.067c-.948.1-1.9.18-2.845.28a3.48,3.48,0,0,1-1.43.047,2,2,0,0,0-.581.026c-.267.01-.535.015-.8.019-.243,0-.486-.011-.727.006a5.521,5.521,0,0,1-1.239.027.835.835,0,0,0-.432.029,2.217,2.217,0,0,1-1.145.081,9.8,9.8,0,0,1-2.011-.231.886.886,0,0,0-.5.024,1.328,1.328,0,0,1-.714.033.806.806,0,0,0-.356-.031,1.646,1.646,0,0,1-.86-.021,2.068,2.068,0,0,0-.938.062c-.14.038-.3.13-.416.1a4.171,4.171,0,0,0-1.15.071,1.353,1.353,0,0,1-.841-.053c-.066-.041-.188-.014-.284-.022-.362-.027-.724-.052-1.086-.082-.53-.045-1.058-.106-1.59-.135a3.713,3.713,0,0,0-.623.068l-.264.491a8.012,8.012,0,0,0-.885-.134c-.289-.011-.584.037-.876.055a.654.654,0,0,1-.217-.015,1.638,1.638,0,0,0-1.134-.006.726.726,0,0,1-.357-.01,28.991,28.991,0,0,0-3.489-.06c-.628-.024-1.27.073-1.893.028a10.576,10.576,0,0,0-1.967.093,5.145,5.145,0,0,1-1.164-.011,2.628,2.628,0,0,0-1.5-.023c-.035.016-.095-.017-.143-.012-.215.022-.431.042-.644.076a6.226,6.226,0,0,1-.716.129c-.679.025-1.36.046-2.037.02a1.406,1.406,0,0,0-.9.173.881.881,0,0,1-.543.132,1.733,1.733,0,0,0-.859.116,5.223,5.223,0,0,1-1.725.151c-.169.006-.338-.055-.5-.045a7.078,7.078,0,0,1-2.106-.007,2.223,2.223,0,0,1-1.4-.208,2.332,2.332,0,0,0-1.488,0c-.34.092-.714.192-.811.579-.02.083-.159.15-.251.216s-.244.108-.285.189a1.953,1.953,0,0,1-.708.64.646.646,0,0,0-.324.471,1.165,1.165,0,0,1-.2.4c-.045.075-.1.153-.159.238a1.1,1.1,0,0,0-.535.769.571.571,0,0,0,.029.295l-.018.013a.345.345,0,0,1,.043.023.524.524,0,0,0,.134.191c-.009.119-.1.247-.033.333.191.238-.084.482.065.7-.268.274-.081.5.062.742a4.387,4.387,0,0,1,.258.659c-.4.271-.352.684-.578,1.02l.394.339c-.04.078-.048.128-.081.152a.624.624,0,0,0-.145.869c.131.282.478.314.81.3.1,0,.2-.013.293-.009a.671.671,0,0,1,.283.034c.392.224.841.4.894.893a.871.871,0,0,0,.181.463,3.756,3.756,0,0,0,1.127,1.011,3.345,3.345,0,0,1,.6.432.839.839,0,0,0,.656.2c.462-.049.925-.082,1.385-.144a25.308,25.308,0,0,1,3.137-.123c.607-.006,1.213.013,1.82.006a2.109,2.109,0,0,0,.577-.086,1.787,1.787,0,0,1,.716-.068,5.259,5.259,0,0,0,.729-.029c.219-.01.438-.023.657-.029.291-.008.582,0,.872-.015.536-.036,1.073-.129,1.606-.123a21.73,21.73,0,0,0,2.841-.05,4.269,4.269,0,0,1,.438,0c.29,0,.581-.005.872-.019,1-.049,2-.143,2.99-.142.652,0,1.3.074,1.96.084a7.158,7.158,0,0,0,1.661-.161,5.966,5.966,0,0,1,1.157-.116c.582-.011,1.163.018,1.744.027a.888.888,0,0,0,.218-.023,6.875,6.875,0,0,1,1.952-.091,10.833,10.833,0,0,0,2.113-.054,18.177,18.177,0,0,1,2.769-.141.789.789,0,0,1,.346.065.753.753,0,0,0,.555.02,2.521,2.521,0,0,1,.86-.091c.745.106,1.5-.1,2.24.045a.3.3,0,0,0,.144-.012,8.769,8.769,0,0,1,1.661-.234,2.573,2.573,0,0,1,1.013.036,1.617,1.617,0,0,0,1.133-.116.99.99,0,0,1,.48-.137c.515.062,1.03-.089,1.53-.043a9.461,9.461,0,0,0,1.676-.066c.413-.033.827-.069,1.24-.087.34-.015.679-.007,1.019-.008.267,0,.534-.007.8,0a13.8,13.8,0,0,0,2.042-.035,5.132,5.132,0,0,1,1.165-.06,6.674,6.674,0,0,0,1.457-.083,1.247,1.247,0,0,0,.891-.4,1.6,1.6,0,0,1,.588-.46c.036-.02.05-.07.079-.113L185,62.784c.136-.065.276-.187.377-.169a1.932,1.932,0,0,0,.852-.142c.733-.183.759-.2.857-.854.111-.747.194-1.5.31-2.245A.674.674,0,0,0,187.293,58.843Z"/><path class="cls-1" d="M110.565,58.7c-.093-.051-.2-.088-.3-.136a1.015,1.015,0,0,1-.118-.085c.039-.13.082-.27.125-.413a.546.546,0,0,0-.17-.073c-.086-.019-.173-.162-.206-.274l-.15.007a3.332,3.332,0,0,0-.618.027,5.367,5.367,0,0,1-2.7-.154c-.176-.049-.358-.081-.529-.142a1.452,1.452,0,0,0-.99.018c-.269.089-.54.165-.812.231a4.209,4.209,0,0,1-1.716.105.976.976,0,0,0-.378.071,2.175,2.175,0,0,1-1.374-.033.7.7,0,0,0-.3-.054,3.5,3.5,0,0,1-1.386-.159.435.435,0,0,0-.366.036.624.624,0,0,1-.181.132l-.022-.032a7.04,7.04,0,0,0-1.99-.048,1.436,1.436,0,0,1-.611-.031,3.146,3.146,0,0,0-1.4-.028,2.982,2.982,0,0,0,.1.934c.048.153-.073.353-.087.534-.015.2-.028.409-.03.614.658-.025,1.316-.036,1.975-.013.986.036,1.962-.145,2.946-.11.268.009.537.027.805.043q.336.021.672.037c.233.012.467.014.7.023a2.757,2.757,0,0,1,.619.038,1.247,1.247,0,0,0,.982-.073.451.451,0,0,1,.226-.049c.831.032,1.66-.085,2.495-.005a9.12,9.12,0,0,0,1.318-.056,1.793,1.793,0,0,1,.542-.028,3.468,3.468,0,0,0,1.24,0c.713-.057,1.424-.068,2.136-.054A5.64,5.64,0,0,1,110.565,58.7Z"/><path class="cls-2" d="M208.451,62.216l-.279-.334c.1-.334.029-.743.242-1.014a6.732,6.732,0,0,0-.231-.651c-.115-.243-.254-.462-.12-.735-.115-.214.026-.458-.117-.693-.087-.142.1-.4-.149-.541a.825.825,0,0,1,.51-.381,1.414,1.414,0,0,0,.361-.179.2.2,0,0,0,.041-.261c-.042-.075-.129-.155-.187-.151-.1.006-.189.092-.289.114a1.106,1.106,0,0,1-.293-.024c.057-.181.1-.3.131-.424a1.419,1.419,0,0,0,.082-.4.661.661,0,0,1,.146-.468,1.449,1.449,0,0,0,.364-.638c.017-.081.1-.122.154-.189s.127-.134.131-.216a.6.6,0,0,1,.433-.578.922.922,0,0,1,.913,0c.277.154.581.339.88.2a2.713,2.713,0,0,0,1.292-.005c.1-.011.213.049.315.043a1.96,1.96,0,0,0,1.042-.16.654.654,0,0,1,.514-.119.36.36,0,0,0,.319-.134.554.554,0,0,1,.53-.177,10.382,10.382,0,0,0,1.248-.031,2.329,2.329,0,0,0,.424-.132c.127-.034.258-.056.387-.079.029,0,.069.027.089.011.29-.232.611-.04.921.015a1.976,1.976,0,0,0,.715,0,3.981,3.981,0,0,1,1.2-.1c.388.041.77-.059,1.158-.038a11.1,11.1,0,0,1,2.147.04c.074.018.167.048.221.008a.653.653,0,0,1,.7,0,.271.271,0,0,0,.135.013,3.281,3.281,0,0,1,.531-.059,3.384,3.384,0,0,1,.558.127l.107-.488a1.407,1.407,0,0,1,.375-.07c.33.026.66.083.99.124.225.028.45.051.675.076.06.007.132-.02.177.02.184.162.35.063.522.047.232-.022.445-.159.7-.076.076.025.162-.067.244-.106a.781.781,0,0,1,.568-.066.654.654,0,0,0,.53.016c.059-.034.148.009.222.029a.515.515,0,0,0,.435-.037.341.341,0,0,1,.3-.027,4.037,4.037,0,0,0,1.259.218.845.845,0,0,0,.693-.087.316.316,0,0,1,.262-.03,2.088,2.088,0,0,0,.757-.035c.147-.017.3-.005.445-.01.164-.005.328-.011.491-.023.118-.008.244-.078.353-.029.315.143.585,0,.872-.054.57-.105,1.143-.191,1.714-.294a.888.888,0,0,1,.536.063,1.31,1.31,0,0,0,.849.075,3.134,3.134,0,0,1,1.252.039.57.57,0,0,0,.435-.026c.222-.136.468.014.681.006a.686.686,0,0,1,.117.5,1.144,1.144,0,0,0,.4.955,1.462,1.462,0,0,0,.741.417,2.838,2.838,0,0,0,.4,1.163,3.586,3.586,0,0,1,.389.183.865.865,0,0,1,.411.516.59.59,0,0,1,.038.355,2.747,2.747,0,0,0,.027.976,1.923,1.923,0,0,0,.255.683,1.063,1.063,0,0,1,.122.525c.011.741.043,1.485.057,2.226.013.648,0,.666-.431.851-.163.07-.307.2-.507.146-.064-.018-.136.1-.213.169l.154.35c-.013.044-.016.093-.036.113a1.074,1.074,0,0,0-.31.459.605.605,0,0,1-.5.4,2.491,2.491,0,0,1-.884.09,1.929,1.929,0,0,0-.709.066,5.2,5.2,0,0,1-1.248.046c-.164,0-.327.006-.491.009-.208,0-.417,0-.623.014-.252.02-.5.057-.752.093a3.577,3.577,0,0,1-1.02.075c-.313-.043-.611.109-.935.05-.093-.017-.2.069-.279.14a.631.631,0,0,1-.682.12,1.009,1.009,0,0,0-.625-.029,3.278,3.278,0,0,0-.994.24.109.109,0,0,1-.086.014c-.469-.141-.911.068-1.379-.033a.946.946,0,0,0-.518.095.308.308,0,0,1-.343-.017.359.359,0,0,0-.219-.062,6.82,6.82,0,0,0-1.683.155,4.1,4.1,0,0,1-1.29.066,2.6,2.6,0,0,0-1.188.1.325.325,0,0,1-.131.025c-.357-.006-.717-.031-1.072-.017a2.224,2.224,0,0,0-.7.121,2.684,2.684,0,0,1-1,.169c-.4-.006-.811-.076-1.211-.073-.61.005-1.212.1-1.819.158-.176.016-.355.018-.533.023a1.6,1.6,0,0,0-.268,0,8.185,8.185,0,0,1-1.737.065,7.822,7.822,0,0,0-.972.131c-.176.02-.356.011-.533.02-.134.007-.267.021-.4.033a2.013,2.013,0,0,1-.444.032.674.674,0,0,0-.432.072.779.779,0,0,1-.344.087c-.372.011-.746,0-1.117.005a9.451,9.451,0,0,0-1.911.14c-.275.063-.556.1-.833.15a.447.447,0,0,1-.425-.195,2.95,2.95,0,0,0-.417-.425,3.687,3.687,0,0,1-.8-1,1.33,1.33,0,0,1-.163-.457,1.372,1.372,0,0,0-.646-.88c-.048-.041-.118-.03-.178-.033a1.319,1.319,0,0,0-.178.011.457.457,0,0,1-.53-.291.88.88,0,0,1-.007-.862A.555.555,0,0,0,208.451,62.216Z"/><path class="cls-2" d="M114.346,50.24a.246.246,0,0,0,.133-.03c-.012,0-.023,0-.035,0A.184.184,0,0,0,114.346,50.24Z"/><path class="cls-2" d="M113.692,50.264a.267.267,0,0,0,.156-.005.475.475,0,0,0-.054,0C113.761,50.261,113.727,50.262,113.692,50.264Z"/><path class="cls-2" d="M115.083,50.227l.155-.029c-.08.006-.161,0-.241.005Z"/><path class="cls-2" d="M115.916,50.2l.038-.014H115.9Z"/><path class="cls-2" d="M121.022,50.069a.133.133,0,0,0,.053.006,1.76,1.76,0,0,1,.217-.01,1.677,1.677,0,0,1,.22.044l.065-.14a.773.773,0,0,1,.154-.016c.132.012.262.033.394.049l.269.031c.024,0,.054,0,.07.007.067.05.139.023.209.021a.905.905,0,0,1,.285-.013c.029.008.068-.017.1-.027a.588.588,0,0,1,.1-.006c.017-.277.037-.555.044-.832a8.211,8.211,0,0,0-.032-.859,8.368,8.368,0,0,0-.01-.908,1.328,1.328,0,0,1,0-.155c.009-.006.017-.009.025-.015a.364.364,0,0,0,.08-.128.347.347,0,0,0,.036-.138c0-.061-.042-.06-.044-.124l.036-.128a.134.134,0,0,0-.026-.133.1.1,0,0,0-.043-.025c-.01,0-.014-.011-.022-.016.014-.165.043-.329.055-.5a.614.614,0,0,0-.429-.723c0-.035,0-.072-.012-.106a1.748,1.748,0,0,0-.086-.454.186.186,0,0,0-.054-.1.206.206,0,0,1-.052-.122,1.155,1.155,0,0,0-.052-.214,1.764,1.764,0,0,0-.113-.226.313.313,0,0,0-.1-.121.209.209,0,0,1-.078-.128.322.322,0,0,0-.09-.154.467.467,0,0,1-.146-.306.3.3,0,0,1-.14-.232c0-.019-.011-.037-.016-.056a.293.293,0,0,0-.153-.206.242.242,0,0,1-.122-.135.231.231,0,0,0-.069-.1.124.124,0,0,1-.05-.086.1.1,0,0,0-.052-.081c-.032-.015-.049-.057-.066-.1s-.039-.093-.059-.139a.215.215,0,0,1-.026-.063c-.008-.083-.06-.12-.076-.19s-.066-.107-.1-.164a.086.086,0,0,0-.085-.053.366.366,0,0,1-.276-.122.2.2,0,0,0-.062-.036.358.358,0,0,1-.139-.124.894.894,0,0,0-.108-.12.639.639,0,0,0-.208-.169.09.09,0,0,1-.023-.027c-.03-.038-.058-.079-.089-.112s-.055-.059-.084-.063c-.08-.01-.133-.11-.2-.151a.214.214,0,0,0-.082-.1.284.284,0,0,1-.1-.137c-.018-.057-.052-.1-.089-.1a.4.4,0,0,1-.222-.1.257.257,0,0,0-.166-.034.36.36,0,0,1-.214-.026.284.284,0,0,0-.237-.04c-.04.012-.085-.023-.128-.026a.141.141,0,0,1-.095-.056.212.212,0,0,0-.084-.064.533.533,0,0,0-.242-.035.1.1,0,0,1-.065-.007.283.283,0,0,0-.14-.02.092.092,0,0,1-.095-.049c-.027-.044-.061-.062-.095-.041s-.081.006-.119-.01c-.1-.039-.19-.1-.288-.133a.21.21,0,0,0-.148,0,.308.308,0,0,1-.167.02.627.627,0,0,0-.177.015.245.245,0,0,1-.158-.009.1.1,0,0,0-.092,0,.282.282,0,0,1-.176.021.124.124,0,0,0-.136.03c-.068.071-.142.1-.221.042a.08.08,0,0,0-.037-.011l-.194-.046a.135.135,0,0,1-.115.044.3.3,0,0,0-.094.005,1.434,1.434,0,0,1-.409.062,2.557,2.557,0,0,0-.261.024.142.142,0,0,1-.17-.089.065.065,0,0,0-.024-.023c-.054-.035-.1-.054-.158.01a.4.4,0,0,1-.21.125.146.146,0,0,1-.184-.063c0-.006-.012,0-.022-.008a.279.279,0,0,0-.041.022.563.563,0,0,1-.095.033.319.319,0,0,0-.248.186c-.028.061-.059.119-.09.177a.182.182,0,0,1-.042.059.687.687,0,0,0-.179.22,3.443,3.443,0,0,0-.186.3c-.006.015-.019.022-.031.033-.013-.028-.022-.063-.036-.072-.057-.036-.106-.113-.174-.091-.008,0-.018-.008-.027-.008-.081,0-.164-.027-.24.044a.055.055,0,0,1-.036.013.163.163,0,0,0-.116.091c-.016.024-.034.045-.051.067a.789.789,0,0,1-.256.186.16.16,0,0,0-.059.043c-.058.084-.115.172-.179.269-.043-.045-.084-.028-.123.032a.066.066,0,0,1-.061.025.2.2,0,0,0-.161.067c-.03.028-.063.048-.092.077a.313.313,0,0,0-.095.144.189.189,0,0,1-.045.074c-.04.041-.082.076-.122.116a.67.67,0,0,0-.076.089c-.037.056-.07.117-.106.173a.446.446,0,0,1-.052.066c-.026.027-.055.049-.081.077s-.046.05-.077.052-.064.032-.09.071a2.266,2.266,0,0,1-.146.193c-.055.065-.112.128-.165.2a.471.471,0,0,0-.1.253.127.127,0,0,1-.033.088.266.266,0,0,0-.068.173c-.053.043-.1.107-.157.1-.074,0-.122.066-.152.154s-.072.181-.109.269c-.068.162-.1.354-.157.523-.04.115-.071.239-.106.359-.025.083-.051.166-.077.247a.625.625,0,0,1-.081.206.067.067,0,0,0-.013.039.657.657,0,0,1-.051.164c-.008.028-.02.053-.026.082a.948.948,0,0,1-.087.268.193.193,0,0,0-.014.159.725.725,0,0,0,.1.219c.052.056.095.127.16.156.039.018.072.078.105.125s.057.1.086.143a.626.626,0,0,0,.213.242c.034.025.071.041.106.063a.227.227,0,0,1,.049.04.523.523,0,0,0,.234.18c.024.007.048.021.073.03a.154.154,0,0,1,.09.1c.022.056.046.108.069.163.054-.007.072-.082.1-.137.048-.106.076-.233.12-.346a1.485,1.485,0,0,0,.085-.4.267.267,0,0,1,.056-.156c.055-.053.073-.152.117-.214.034-.134.1-.235.138-.366a.977.977,0,0,1,.084-.2,1.089,1.089,0,0,0,.09-.25.463.463,0,0,1,.072-.157.457.457,0,0,0,.105-.276.268.268,0,0,1,.025-.082c.017-.043.035-.085.055-.131a.464.464,0,0,1,.117-.075.147.147,0,0,0,.1-.1.5.5,0,0,1,.141-.2.243.243,0,0,0,.084-.118.09.09,0,0,1,.052-.062c.092-.032.148-.147.209-.248a.4.4,0,0,1,.1-.118.545.545,0,0,0,.159-.156.242.242,0,0,1,.09-.08.262.262,0,0,0,.093-.1.433.433,0,0,1,.071-.1.627.627,0,0,0,.1-.115.077.077,0,0,1,.049-.037.422.422,0,0,0,.242-.156c.039-.042.075-.091.125-.1.016,0,.033-.025.047-.044.051-.071.106-.118.175-.113.016,0,.033-.024.05-.037s.037-.04.057-.044a.85.85,0,0,1,.3-.036.139.139,0,0,0,.041-.006.2.2,0,0,1,.127-.134.087.087,0,0,0,.041-.036.1.1,0,0,1,.079-.042.4.4,0,0,0,.249-.122.118.118,0,0,1,.052-.033c.082-.022.166-.042.249-.058a.1.1,0,0,1,.107.04.691.691,0,0,0,.1.084c.036-.032.073-.06.108-.094a.089.089,0,0,1,.071-.034,2.768,2.768,0,0,1,.288-.006.145.145,0,0,1,.188.03.358.358,0,0,0,.1-.034c.056-.035.1-.033.147.038.031.05.069.07.113.04.008-.005.018,0,.031,0,.033.04.065.091.113.087a.042.042,0,0,1,.034.023.115.115,0,0,0,.139.066.119.119,0,0,1,.115.048.079.079,0,0,0,.079.028.375.375,0,0,1,.21.037.158.158,0,0,0,.165.014.05.05,0,0,1,.038,0,.224.224,0,0,0,.191-.025c.046.028.086.066.137.048a.418.418,0,0,1,.139-.023.433.433,0,0,0,.2-.045.181.181,0,0,1,.139-.005.526.526,0,0,0,.213.031.582.582,0,0,1,.242.013.134.134,0,0,0,.175-.064.03.03,0,0,1,.035-.013.25.25,0,0,1,.1.057.258.258,0,0,0,.093.066.308.308,0,0,0,.158.018.144.144,0,0,1,.136.084.282.282,0,0,0,.079.082c.061.048.121.1.181.159a.413.413,0,0,1,.092.131.453.453,0,0,0,.067.107,1.185,1.185,0,0,1,.092.173c.035.059.086.084.116.156.008.021.02.048.033.053.055.018.071.09.082.147a.5.5,0,0,1,.1.081.307.307,0,0,0,.134.1c.027.012.052.034.079.047a.14.14,0,0,1,.07.113.418.418,0,0,0,.027.08c.034.08.069.157.1.243.023.068.048.147.1.173a.117.117,0,0,1,.043.058,1.306,1.306,0,0,0,.253.379c.026.029.053.057.08.083a.248.248,0,0,1,.058.2c0,.045-.006.09-.007.113l.066.13a6.156,6.156,0,0,0-.088,1.321,8.635,8.635,0,0,1,.028,1.315,10.01,10.01,0,0,0-.017,1.2c0,.154.014.308.022.462A.485.485,0,0,1,121.022,50.069Z"/><path class="cls-2" d="M126.039,56.7c.091-.151.07-.341.148-.5l-.165-.117a.392.392,0,0,1,0-.089.3.3,0,0,0-.054-.28.2.2,0,0,1-.034-.138.777.777,0,0,0-.035-.4l.154-.236a.259.259,0,0,1-.06-.193,1.449,1.449,0,0,0-.045-.235c-.013-.1-.019-.2-.027-.3.03-.117.069-.236.091-.359a.405.405,0,0,0-.032-.288.382.382,0,0,1-.012-.318.516.516,0,0,0,.038-.2.627.627,0,0,0-.037-.187.424.424,0,0,1,.006-.315c.038-.1-.077-.2-.016-.317a.127.127,0,0,0,.014-.048.75.75,0,0,0,.021-.173c-.015-.119.095-.238,0-.356,0-.006.007-.032.013-.047l.134-.345a.49.49,0,0,0-.08-.276.157.157,0,0,1-.026-.074V50.91a.09.09,0,0,1,0-.028.329.329,0,0,0,0-.045.358.358,0,0,1-.01-.08.062.062,0,0,0-.006-.026.927.927,0,0,0-.053-.1.06.06,0,0,1-.011-.058.1.1,0,0,0,0-.017.094.094,0,0,1,0-.055l0-.014a.252.252,0,0,0-.012-.039c-.006-.022-.009-.045-.013-.068a.116.116,0,0,0-.021-.058.166.166,0,0,0-.03-.022c-.011-.009-.014-.026-.028-.031l0,0a.276.276,0,0,1-.031-.037.268.268,0,0,0-.018-.028.106.106,0,0,1-.026-.061.029.029,0,0,0-.023-.03.025.025,0,0,1-.015-.01c-.015-.03-.044-.044-.059-.075a.356.356,0,0,1-.053-.067.067.067,0,0,1-.015-.029.027.027,0,0,0-.014-.022.035.035,0,0,1-.019-.028c-.011,0-.022,0-.028,0-.021-.012-.045-.017-.057-.043a.024.024,0,0,0-.018-.012.211.211,0,0,1-.073-.034.042.042,0,0,0-.044-.005l-.026.011a.083.083,0,0,1-.064,0,.108.108,0,0,1-.028-.015.138.138,0,0,0-.061-.029.567.567,0,0,0-.072-.009h-.022c-.032,0-.065-.006-.084-.044l-.01-.007-.033-.009c-.018,0-.038,0-.056-.011h-.011l-.037,0-.018,0a.669.669,0,0,1-.08.021h-.008a.054.054,0,0,0-.053.01.237.237,0,0,1-.047.025.08.08,0,0,0-.036.03.141.141,0,0,1-.066.055.1.1,0,0,0-.028.014l-.047.038a1.918,1.918,0,0,1-.755.008.109.109,0,0,0-.084.009c-.079.055-.157.023-.235.009a.248.248,0,0,0-.214.018.168.168,0,0,1-.1.037.44.44,0,0,1-.127-.019.467.467,0,0,0-.363.007.213.213,0,0,1-.233-.02.338.338,0,0,0-.3-.029,1.953,1.953,0,0,0-.2.066c-.079-.1-.2-.077-.3-.117a.147.147,0,0,0-.142.035c-.092.123-.178.08-.271.018a.221.221,0,0,0-.062-.018.367.367,0,0,1-.323.111.346.346,0,0,0-.085.009.727.727,0,0,1-.6-.059.28.28,0,0,0-.076-.021l-.075.136-.112-.085c-.186.018-.366.043-.546.048a.3.3,0,0,1-.249-.059.136.136,0,0,0-.144,0,.445.445,0,0,1-.373.09c-.026,0-.055.024-.083.026s-.082.011-.1-.01a.217.217,0,0,0-.284-.02.24.24,0,0,1-.1.01,1.106,1.106,0,0,0-.128-.118c-.03-.019-.076-.037-.1-.023a.439.439,0,0,1-.2.036.357.357,0,0,0-.127.112.283.283,0,0,1-.22.109,1.449,1.449,0,0,1-.361.015,1.079,1.079,0,0,0-.289.01,3.041,3.041,0,0,1-.5,0h-.043l-.038.014-.018-.015-.1,0c-.084,0-.168-.006-.252,0-.1,0-.205.01-.307.017h0l-.155.029L115,50.2a1.007,1.007,0,0,1-.174,0c-.112-.015-.228.013-.344,0a.246.246,0,0,1-.133.03c-.006,0-.014,0-.02.006a.346.346,0,0,1-.281.026.544.544,0,0,0-.2-.013.267.267,0,0,1-.156.005,1.05,1.05,0,0,0-.309.049.063.063,0,0,1-.036,0c-.183-.047-.37.008-.555-.027a.538.538,0,0,0-.213.021.164.164,0,0,1-.137-.009.169.169,0,0,0-.086-.021,3.834,3.834,0,0,0-.686.023,2.3,2.3,0,0,1-.524,0,1.477,1.477,0,0,0-.483.014.2.2,0,0,1-.054.006c-.144-.007-.288-.019-.432-.019a1.252,1.252,0,0,0-.287.026,1.49,1.49,0,0,1-.365.032.217.217,0,0,1-.065.014.219.219,0,0,1-.058-.016h-.014a.085.085,0,0,0-.075.009.245.245,0,0,1-.3.038A.038.038,0,0,0,109,50.38a.044.044,0,0,1-.026-.038c-.015,0-.029.005-.039,0l-.012-.006,0,0c-.221,0-.443.013-.665.02-.071,0-.144,0-.215,0a1,1,0,0,0-.109,0,3.138,3.138,0,0,1-.522,0,.255.255,0,0,1-.038.026c-.024.011-.047.028-.072.039a.171.171,0,0,1-.111.033l-.012,0a.7.7,0,0,1-.147.055.343.343,0,0,0-.157.114l-.013.012c-.035.034-.063.077-.1.11a.244.244,0,0,0-.033.043.112.112,0,0,0-.017.021.293.293,0,0,1-.061.085.053.053,0,0,0-.011.015c-.009.021-.017.044-.028.065a.53.53,0,0,1-.042.078.114.114,0,0,0-.025.049.441.441,0,0,1-.054.13.371.371,0,0,1-.033.054.109.109,0,0,0-.022.066.244.244,0,0,1-.019.088.246.246,0,0,0-.016.074.692.692,0,0,1-.028.131l-.012.679a.106.106,0,0,1,.016.063.351.351,0,0,1-.008.091.065.065,0,0,0,0,.024.393.393,0,0,0,.006.048.238.238,0,0,0,.013.06.211.211,0,0,1,.017.093.127.127,0,0,0,.018.074l.029,0a.19.19,0,0,1,.029.009.2.2,0,0,0,0,.025,1.141,1.141,0,0,1,0,.424,2.312,2.312,0,0,0-.02.55c.009.074.015.147.017.22a1.506,1.506,0,0,1,0,.178,1.571,1.571,0,0,0,.008.428,5.814,5.814,0,0,1,.02.933,6.235,6.235,0,0,0-.011.927.186.186,0,0,1-.011.073,1.327,1.327,0,0,0-.045.547c.01.116,0,.234,0,.352a1.268,1.268,0,0,0,0,.151.816.816,0,0,1-.026.374.206.206,0,0,0-.007.1,1.3,1.3,0,0,1-.026.571.254.254,0,0,0,0,.147.741.741,0,0,1-.041.583c-.057.126.027.265-.049.386-.016.027,0,.082,0,.124a.153.153,0,0,0,.011.048.26.26,0,0,1-.006.282.112.112,0,0,0-.006.073,1.657,1.657,0,0,0,.068.234.2.2,0,0,1,.022.143,1.33,1.33,0,0,0-.02.518,2.268,2.268,0,0,1,.009.329.573.573,0,0,1-.035.17.205.205,0,0,0-.009.1.674.674,0,0,1-.038.244,1.044,1.044,0,0,0,.052.822.248.248,0,0,1,.009.239.918.918,0,0,0-.044.445l0,.049c.025.3.049.6.059.9a.6.6,0,0,1-.1.4.282.282,0,0,0-.047.212c0,.041.01.081.016.121a.394.394,0,0,1-.061.121.1.1,0,0,0-.018.055.2.2,0,0,1-.016.073.215.215,0,0,0-.014.062.544.544,0,0,1-.022.108c0,.189-.007.377-.01.565a.084.084,0,0,1,.013.052.326.326,0,0,1-.007.076.067.067,0,0,0,0,.02c0,.013,0,.027,0,.039a.271.271,0,0,0,.012.051.168.168,0,0,1,.014.077.1.1,0,0,0,.015.061l.024,0a.109.109,0,0,1,.091.112.079.079,0,0,0,0,.035.081.081,0,0,1,0,.055.039.039,0,0,0,0,.03.029.029,0,0,1,.006.019.157.157,0,0,0,.031.079c.021,0,.041.01.05.037l.005.005s.006.007.009.009a.1.1,0,0,1,.029.03.041.041,0,0,0,.012.014l.068.051,0,.015c.02.017.037.041.066.04a.03.03,0,0,1,.027.015.11.11,0,0,0,.081.05.093.093,0,0,1,.054.033.11.11,0,0,0,.067.037.076.076,0,0,1,.048.02c.013.011.029.009.043.013a.464.464,0,0,1,.044.023.033.033,0,0,0,.017,0h.025a.052.052,0,0,1,.039.013.046.046,0,0,0,.021.008s.009.005.015.005a.09.09,0,0,1,.054.025.226.226,0,0,0,.052.046.063.063,0,0,1,.037.057c0,.018.016.025.028.015a.074.074,0,0,1,.074-.012.055.055,0,0,0,.031,0,.45.45,0,0,1,.063-.007.081.081,0,0,1,.066.009c.009.007.023.006.032.012a.087.087,0,0,0,.071.013.05.05,0,0,1,.021,0,.059.059,0,0,0,.037,0l.105-.032.023-.008a.255.255,0,0,1,.061-.013.212.212,0,0,0,.065-.015.1.1,0,0,1,.034-.009.043.043,0,0,0,.039-.02l.008-.005a1.087,1.087,0,0,0,.3.009.994.994,0,0,1,.2-.019.544.544,0,0,0,.343-.039.224.224,0,0,1,.129-.006c.053,0,.105.008.158.013a2.581,2.581,0,0,0,.317.007,1.152,1.152,0,0,0,.2-.02.567.567,0,0,1,.109,0c.2,0,.394.02.59.009a3.353,3.353,0,0,1,.481.014.5.5,0,0,0,.153.007.356.356,0,0,1,.345.111.233.233,0,0,0,.073.035c.021-.013.041-.017.045-.029.033-.1.115-.117.187-.156a.215.215,0,0,1,.229.009.452.452,0,0,0,.192.049c.064,0,.129,0,.193,0,.1,0,.207,0,.31,0,.327-.017.654-.043.982-.06a.377.377,0,0,1,.145.038.434.434,0,0,0,.3.02.721.721,0,0,1,.366-.006,1.573,1.573,0,0,0,.478.02,1.118,1.118,0,0,1,.345-.016,1.05,1.05,0,0,0,.371-.012,3.85,3.85,0,0,1,.81-.029,4.133,4.133,0,0,0,.8.008.109.109,0,0,1,.063.013.887.887,0,0,0,.475.049,2.388,2.388,0,0,1,.3,0,1.159,1.159,0,0,0,.132,0,.53.53,0,0,1,.324.028.131.131,0,0,0,.085.007.853.853,0,0,1,.5.028.182.182,0,0,0,.128,0,.5.5,0,0,1,.506.044c.108.065.229-.032.333.054.024.019.072,0,.108-.006a.118.118,0,0,0,.043-.013.178.178,0,0,1,.244.005.064.064,0,0,0,.05.008l.021,0a1.245,1.245,0,0,0,.195-.075c.041-.022.079-.046.124-.026a.881.881,0,0,0,.45.019.738.738,0,0,1,.431.028.151.151,0,0,0,.087.01.444.444,0,0,1,.211.042l.069.02c.1-.041.194-.1.3-.026a.193.193,0,0,0,.074.026l.081.018a.564.564,0,0,0,.19-.1.169.169,0,0,1,.207-.011.454.454,0,0,0,.123.044.772.772,0,0,0,.263,0c.265-.033.53-.061.8-.076a.083.083,0,0,0,.039.021.071.071,0,0,1,.041.017c.01.01.025.008.037.012s.024.013.037.019a.033.033,0,0,0,.014,0h.021a.045.045,0,0,1,.034.011.044.044,0,0,0,.03.011.07.07,0,0,1,.045.021.267.267,0,0,0,.044.039.057.057,0,0,1,.032.048l0,0,.035,0a.069.069,0,0,1,.049,0,.046.046,0,0,0,.026,0,.452.452,0,0,1,.053-.006.07.07,0,0,1,.056.008c.008.006.02,0,.028.011a.079.079,0,0,0,.06.01.049.049,0,0,1,.017,0,.042.042,0,0,0,.031,0l.089-.027.02-.006a.314.314,0,0,1,.051-.012.148.148,0,0,0,.055-.013.094.094,0,0,1,.028-.006.04.04,0,0,0,.034-.017.021.021,0,0,1,.012-.008.106.106,0,0,0,.045-.019l.014,0a.136.136,0,0,0,.021,0,.078.078,0,0,1,.043,0,.056.056,0,0,0,.052-.006.057.057,0,0,1,.039-.011h.027a.055.055,0,0,1,.026-.028c.01-.005.016-.016.025-.023l.018-.014.009-.006.007-.011a.6.6,0,0,1,.04-.058.171.171,0,0,0,.022-.04.142.142,0,0,1,.045-.065l-.008-.008a.082.082,0,0,1,.03-.066.16.16,0,0,1,.014-.041.5.5,0,0,0,.035-.058.134.134,0,0,1,.034-.037.078.078,0,0,0,.032-.043.246.246,0,0,1,.045-.075.12.12,0,0,0,.028-.072.209.209,0,0,1,.008-.036l0-.02a.021.021,0,0,1,.013-.017.073.073,0,0,0,.036-.047l.027-.061,0-.016a.311.311,0,0,0,0-.1.058.058,0,0,1,0-.037c.007-.024.012-.05.019-.075a.077.077,0,0,0,0-.04.083.083,0,0,1,0-.027.083.083,0,0,0,0-.058c0-.006,0-.014,0-.021s0-.013,0-.02a1.018,1.018,0,0,1-.006-.111.029.029,0,0,0,0-.016v0c.006-.018.008-.037.014-.055a.3.3,0,0,0-.01-.22.2.2,0,0,1-.012-.144.765.765,0,0,0,.025-.444,4.243,4.243,0,0,1-.011-1.032c.006-.042.009-.084.018-.125a.18.18,0,0,0,0-.1.412.412,0,0,1,0-.271.371.371,0,0,0,0-.246.357.357,0,0,1,0-.267.7.7,0,0,0,.012-.419.322.322,0,0,1,.03-.268.5.5,0,0,0,.041-.34,2.28,2.28,0,0,0-.047-.229c.091-.086.077-.224.116-.339a.19.19,0,0,0,0-.1.147.147,0,0,0-.026-.069c-.1-.11-.061-.207,0-.313a.27.27,0,0,0,.018-.069.52.52,0,0,1-.079-.377.419.419,0,0,0,0-.1,1.093,1.093,0,0,1,.083-.682.4.4,0,0,0,.022-.086c-.042-.035-.075-.062-.114-.092l.08-.126c-.006-.215-.018-.423-.013-.631a.438.438,0,0,1,.064-.284.2.2,0,0,0,.005-.167.647.647,0,0,1-.057-.433c0-.03-.019-.064-.02-.1s-.005-.095.015-.119a.312.312,0,0,0,.032-.326.367.367,0,0,1,0-.114,1.328,1.328,0,0,0,.109-.143.173.173,0,0,0,.025-.116,3.549,3.549,0,0,1-.028-.449A.154.154,0,0,1,126.039,56.7Z"/><path class="cls-2" d="M120.827,52.1c0,.227-.021.455-.033.682s-.031.442-.046.663a.894.894,0,0,0-.123.033c-.011,0-.022,0-.032.007a.563.563,0,0,1-.069.014,1.5,1.5,0,0,0,.366-.032,1.3,1.3,0,0,1,.286-.026c.144,0,.288.013.432.019a.194.194,0,0,0,.054,0,1.451,1.451,0,0,1,.483-.014,2.3,2.3,0,0,0,.524,0,3.929,3.929,0,0,1,.686-.023.179.179,0,0,1,.086.021.164.164,0,0,0,.137.01.523.523,0,0,1,.213-.022c.185.036.373-.019.556.028a.06.06,0,0,0,.035,0,1.085,1.085,0,0,1,.31-.049.266.266,0,0,1-.06-.012c-.09-.039-.173.1-.273.035a.11.11,0,0,0-.042-.014.461.461,0,0,0-.151-.014c-.1.023-.21-.1-.309.016,0,.006-.027-.006-.041-.012l-.305-.135a.448.448,0,0,0-.151.049.294.294,0,0,0-.084.056.12.12,0,0,1-.093.036,3.037,3.037,0,0,0-.064-.636,3.245,3.245,0,0,1-.048-1.134c.023-.168.022-.341.031-.512.011-.189.022-.379.032-.569s.018-.356.028-.534a.588.588,0,0,0-.1.006c-.034.01-.073.035-.1.027a.905.905,0,0,0-.285.013c-.07,0-.142.029-.209-.021-.016-.011-.046-.005-.07-.007L122.125,50c-.132-.016-.262-.037-.394-.049a.773.773,0,0,0-.154.016l-.065.14a1.677,1.677,0,0,0-.22-.044,1.76,1.76,0,0,0-.217.01.133.133,0,0,1-.053-.006.485.485,0,0,0-.175-.027,6.089,6.089,0,0,1,0,.854A11.435,11.435,0,0,0,120.827,52.1Z"/><path class="cls-2" d="M110.2,45.628l.064-.055c.056.037.128.035.17.1a.964.964,0,0,0,.118-.032c.044-.019.085-.045.129,0,.04-.02.079.024.123,0,.026-.015.067.039.1-.015a.245.245,0,0,1,.054.138.533.533,0,0,0,.022.094.032.032,0,0,0,.044.02.064.064,0,0,0,.031-.04c0-.025-.012-.049-.013-.075a.405.405,0,0,1,.011-.07c.03.021.049.035.07.048a.208.208,0,0,0,.066.034.109.109,0,0,1,.078.053.289.289,0,0,0,.1.112c.013.008.018.03.029.045s.02.036.034.04c.066.018.078.075.09.126a.3.3,0,0,1-.021.222.3.3,0,0,0-.055.207.944.944,0,0,0-.029.313c0,.025-.013.05-.014.075a.664.664,0,0,0,0,.259.224.224,0,0,1,.009.129.117.117,0,0,0,.015.083.182.182,0,0,1,.019.135c-.014.1-.019.2-.024.3a.8.8,0,0,0,.013.108c0,.032,0,.065,0,.1,0,.007-.007.016,0,.021.033.079-.008.15-.024.223a.673.673,0,0,0-.018.174,1.318,1.318,0,0,1-.01.294c-.016.092-.007.189-.02.282a3.628,3.628,0,0,1-.057.52.091.091,0,0,0-.006.053.216.216,0,0,1-.017.169.091.091,0,0,0,0,.033,1.145,1.145,0,0,1,0,.131,1.106,1.106,0,0,1-.035.13l.082.045a.477.477,0,0,1,0,.093c-.012.079-.029.158-.044.236-.01.054-.02.107-.029.161,0,.014,0,.033-.008.042-.032.039-.019.083-.02.125a.552.552,0,0,1,0,.172c-.006.018.008.042.013.064a.266.266,0,0,1,0,.14.215.215,0,0,0-.015.128.116.116,0,0,1-.01.053.17.17,0,0,0,0,.107.117.117,0,0,1,0,.074,1.235,1.235,0,0,0-.067.3.285.285,0,0,0,0,.171.111.111,0,0,1,0,.065.718.718,0,0,0-.012.185c0,.036-.006.073-.009.109s0,.08-.007.12a.244.244,0,0,1,0,.086.445.445,0,0,0-.011.214c.005.142.006.285.011.427a.294.294,0,0,1-.023.128.415.415,0,0,0-.033.2,1.07,1.07,0,0,1-.036.3.2.2,0,0,0-.006.106c.019.059-.013.114-.017.165a.086.086,0,0,1-.089.01.157.157,0,0,0-.174.062.371.371,0,0,0-.09.164.367.367,0,0,0-.21.054.777.777,0,0,1-.041.088.149.149,0,0,1-.1.08.077.077,0,0,1-.063,0,.349.349,0,0,0-.169-.03.254.254,0,0,0-.124.037.136.136,0,0,1-.093.01c-.129-.025-.258-.045-.386-.069-.113-.022-.115-.026-.137-.137a.252.252,0,0,1-.014-.128c0-.015-.014-.037-.024-.058l-.064.024c-.007-.005-.016-.008-.019-.013a.237.237,0,0,0-.072-.093.171.171,0,0,1-.057-.136.847.847,0,0,1,0-.219.632.632,0,0,0,0-.174,1.833,1.833,0,0,1,.021-.305c0-.039.007-.079.01-.119s.011-.1.012-.152,0-.124,0-.186a1.244,1.244,0,0,1,.01-.251c.015-.074,0-.152.014-.228a.134.134,0,0,0-.018-.073.21.21,0,0,1,0-.17.338.338,0,0,0,.02-.151,1.166,1.166,0,0,0-.019-.25.041.041,0,0,1,0-.022c.035-.108.009-.223.038-.333a.332.332,0,0,0,0-.129.1.1,0,0,1,.011-.083.109.109,0,0,0,.016-.051,2.388,2.388,0,0,0,.012-.414,1.392,1.392,0,0,1,.019-.316.868.868,0,0,0,.01-.292.122.122,0,0,1,0-.033c.009-.086.022-.173.028-.259a.778.778,0,0,0-.005-.174.91.91,0,0,1-.006-.25c.011-.1.032-.194.041-.291.013-.148.01-.3.015-.447,0-.044,0-.087.008-.131a.462.462,0,0,0,.006-.065,2.868,2.868,0,0,1,.029-.424c.009-.079,0-.16,0-.241,0-.043.006-.087.008-.13s0-.066,0-.1a.653.653,0,0,1,0-.109.232.232,0,0,0,0-.108.28.28,0,0,1-.007-.087c.007-.09.018-.18.025-.271a3.2,3.2,0,0,0,.021-.469c0-.069,0-.139-.007-.208a.12.12,0,0,1,.044-.1.556.556,0,0,0,.083-.085.627.627,0,0,1,.19-.158.183.183,0,0,1,.083-.022c.086,0,.123-.068.167-.124a.1.1,0,0,0,.01-.042.324.324,0,0,0,0-.044c0-.05.012-.1.063-.118a.12.12,0,0,1,.149.031S110.189,45.622,110.2,45.628Z"/><path class="cls-2" d="M196.537,50.138a.222.222,0,0,0,.119-.027c-.011,0-.021,0-.031,0A.155.155,0,0,0,196.537,50.138Z"/><path class="cls-2" d="M195.953,50.159a.244.244,0,0,0,.139,0c-.017,0-.032-.005-.048,0S195.983,50.157,195.953,50.159Z"/><path class="cls-2" d="M197.2,50.126l.138-.025c-.071.005-.143,0-.215,0Z"/><path class="cls-2" d="M197.94,50.1l.034-.012h-.051Z"/><path class="cls-2" d="M202.5,49.985a.129.129,0,0,0,.048.005,1.584,1.584,0,0,1,.194-.009,1.628,1.628,0,0,1,.2.039L203,49.9a.634.634,0,0,1,.138-.014c.118.01.235.028.352.043.08.01.161.018.241.027.021,0,.048,0,.063.008.059.044.123.02.186.018a.8.8,0,0,1,.254-.012c.027.007.062-.015.092-.024a.472.472,0,0,1,.091-.005c.015-.248.033-.5.04-.744a7.541,7.541,0,0,0-.029-.767,7.36,7.36,0,0,0-.009-.812,1.07,1.07,0,0,1,0-.139l.022-.013a.327.327,0,0,0,.071-.114.31.31,0,0,0,.033-.123c0-.055-.038-.054-.04-.111.009-.032.021-.073.032-.115a.116.116,0,0,0-.023-.118.083.083,0,0,0-.039-.023c-.008,0-.012-.01-.019-.014.012-.148.038-.294.049-.442a.551.551,0,0,0-.384-.647c0-.031,0-.064-.01-.094a1.555,1.555,0,0,0-.077-.406.166.166,0,0,0-.048-.092.181.181,0,0,1-.047-.109,1.007,1.007,0,0,0-.046-.191,1.41,1.41,0,0,0-.1-.2.279.279,0,0,0-.086-.108.188.188,0,0,1-.07-.115.287.287,0,0,0-.08-.137.418.418,0,0,1-.13-.274.271.271,0,0,1-.126-.207.467.467,0,0,0-.014-.05.268.268,0,0,0-.137-.185.214.214,0,0,1-.109-.12.2.2,0,0,0-.061-.089.107.107,0,0,1-.045-.077.085.085,0,0,0-.046-.073c-.029-.013-.044-.051-.06-.091s-.034-.083-.052-.125a.184.184,0,0,1-.023-.056c-.008-.075-.054-.108-.068-.17s-.059-.095-.086-.146a.077.077,0,0,0-.076-.048.329.329,0,0,1-.247-.109.183.183,0,0,0-.055-.032.315.315,0,0,1-.124-.111.908.908,0,0,0-.1-.107.566.566,0,0,0-.186-.151c-.007,0-.014-.016-.02-.024-.027-.034-.052-.071-.08-.1s-.049-.053-.075-.056c-.071-.009-.119-.1-.181-.136a.2.2,0,0,0-.073-.089.245.245,0,0,1-.089-.122c-.016-.051-.047-.094-.079-.092a.355.355,0,0,1-.2-.087.23.23,0,0,0-.149-.03.318.318,0,0,1-.191-.024.254.254,0,0,0-.211-.036c-.036.011-.077-.02-.115-.022a.129.129,0,0,1-.085-.05.189.189,0,0,0-.075-.058.486.486,0,0,0-.216-.031.1.1,0,0,1-.058-.006.236.236,0,0,0-.125-.018.082.082,0,0,1-.085-.044c-.024-.039-.055-.056-.085-.037s-.072.005-.107-.009c-.086-.034-.169-.091-.257-.119a.193.193,0,0,0-.132,0,.271.271,0,0,1-.149.019.531.531,0,0,0-.158.013.223.223,0,0,1-.142-.008.091.091,0,0,0-.082,0,.243.243,0,0,1-.157.018.112.112,0,0,0-.121.027c-.061.064-.127.094-.2.038a.067.067,0,0,0-.033-.01c-.055-.014-.11-.026-.174-.041a.119.119,0,0,1-.1.039.238.238,0,0,0-.084.005,1.348,1.348,0,0,1-.366.056,2.037,2.037,0,0,0-.233.021.128.128,0,0,1-.152-.08.055.055,0,0,0-.022-.021c-.047-.031-.09-.048-.141.009a.348.348,0,0,1-.187.112.131.131,0,0,1-.165-.056s-.01,0-.02-.007-.023.011-.036.019a.429.429,0,0,1-.085.03.284.284,0,0,0-.221.166c-.025.055-.053.107-.081.158a.157.157,0,0,1-.038.053.634.634,0,0,0-.16.2c-.053.094-.118.167-.166.271,0,.014-.017.02-.027.03-.012-.025-.02-.057-.033-.065-.05-.032-.094-.1-.155-.081-.007,0-.016-.007-.024-.007-.072,0-.146-.024-.214.039a.054.054,0,0,1-.033.012.145.145,0,0,0-.1.081.559.559,0,0,1-.046.06.683.683,0,0,1-.229.166.137.137,0,0,0-.052.039c-.053.075-.1.153-.16.24-.039-.04-.075-.025-.11.029a.06.06,0,0,1-.055.022.18.18,0,0,0-.144.06c-.026.025-.056.043-.082.069a.28.28,0,0,0-.085.129.156.156,0,0,1-.04.065c-.035.037-.073.068-.109.1a.68.68,0,0,0-.068.08c-.033.049-.063.1-.095.155a.463.463,0,0,1-.046.059c-.024.024-.049.043-.072.068a.123.123,0,0,1-.069.047c-.032,0-.057.028-.081.063-.042.061-.085.119-.13.173s-.1.114-.148.177a.413.413,0,0,0-.087.225.113.113,0,0,1-.03.079.239.239,0,0,0-.061.155c-.047.038-.089.095-.14.094s-.109.059-.136.137-.064.162-.1.241c-.061.144-.088.316-.14.467-.036.1-.064.214-.095.321-.022.074-.045.148-.069.221a.547.547,0,0,1-.072.183.058.058,0,0,0-.012.036.58.58,0,0,1-.045.146c-.008.025-.018.048-.024.073a.806.806,0,0,1-.078.24.172.172,0,0,0-.012.142.662.662,0,0,0,.09.2c.047.05.086.114.143.14.035.016.065.07.094.112s.051.085.077.127a.563.563,0,0,0,.19.217c.031.022.064.037.095.056a.211.211,0,0,1,.044.036.469.469,0,0,0,.209.161c.021.006.043.018.065.026a.139.139,0,0,1,.081.09c.019.05.041.1.061.145.048-.005.065-.073.086-.122.044-.095.068-.209.108-.309a1.3,1.3,0,0,0,.076-.361.238.238,0,0,1,.05-.139c.049-.048.065-.136.105-.192.03-.12.089-.21.123-.327a.921.921,0,0,1,.075-.183.975.975,0,0,0,.081-.224.439.439,0,0,1,.063-.14.4.4,0,0,0,.095-.246.212.212,0,0,1,.022-.073c.015-.039.032-.076.049-.118a.424.424,0,0,1,.105-.067.133.133,0,0,0,.089-.088.438.438,0,0,1,.125-.175.215.215,0,0,0,.076-.1.075.075,0,0,1,.046-.055c.082-.029.132-.132.187-.222a.337.337,0,0,1,.085-.1.485.485,0,0,0,.143-.14.209.209,0,0,1,.08-.072.228.228,0,0,0,.083-.09.4.4,0,0,1,.063-.089.606.606,0,0,0,.089-.1.072.072,0,0,1,.044-.033.37.37,0,0,0,.216-.139c.034-.038.067-.082.111-.091.015,0,.03-.022.043-.04.045-.063.094-.1.156-.1.014,0,.029-.021.044-.033s.034-.036.052-.039a.756.756,0,0,1,.266-.032.147.147,0,0,0,.038-.005.179.179,0,0,1,.113-.12.085.085,0,0,0,.037-.032.093.093,0,0,1,.07-.038.36.36,0,0,0,.223-.109.1.1,0,0,1,.046-.03c.074-.019.148-.037.223-.052a.093.093,0,0,1,.095.037.589.589,0,0,0,.091.074c.033-.028.066-.053.1-.084a.08.08,0,0,1,.063-.03,2.468,2.468,0,0,1,.258-.005.131.131,0,0,1,.168.026.337.337,0,0,0,.09-.029c.049-.032.091-.031.13.033.028.045.062.062.1.036.007-.005.016,0,.028,0,.029.035.058.081.1.078a.035.035,0,0,1,.03.021.1.1,0,0,0,.124.058.111.111,0,0,1,.1.043.069.069,0,0,0,.07.025.328.328,0,0,1,.187.033.144.144,0,0,0,.148.013.04.04,0,0,1,.034,0,.2.2,0,0,0,.171-.022c.041.024.077.058.123.042a.375.375,0,0,1,.124-.02.392.392,0,0,0,.182-.04.162.162,0,0,1,.124-.005.468.468,0,0,0,.19.028.508.508,0,0,1,.216.012.121.121,0,0,0,.157-.058.027.027,0,0,1,.032-.011.215.215,0,0,1,.085.051.233.233,0,0,0,.083.058.278.278,0,0,0,.142.017.127.127,0,0,1,.121.075.272.272,0,0,0,.07.073c.055.043.109.094.162.142a.359.359,0,0,1,.082.117.449.449,0,0,0,.06.1,1.038,1.038,0,0,1,.083.155c.031.052.077.075.1.139.007.018.018.043.029.047.049.016.064.081.074.131a.426.426,0,0,1,.09.073.279.279,0,0,0,.12.093c.024.011.047.031.071.041a.129.129,0,0,1,.063.1.328.328,0,0,0,.023.071c.03.072.062.141.088.218.02.06.042.131.091.154a.1.1,0,0,1,.038.052,1.169,1.169,0,0,0,.227.338.847.847,0,0,0,.071.075.222.222,0,0,1,.052.176c0,.04,0,.08-.007.1l.06.116a5.492,5.492,0,0,0-.079,1.18,7.71,7.71,0,0,1,.025,1.176,8.914,8.914,0,0,0-.015,1.071c0,.137.012.275.02.413A.419.419,0,0,1,202.5,49.985Z"/><path class="cls-2" d="M206.986,55.912c.081-.135.063-.3.133-.442l-.148-.106a.3.3,0,0,1,0-.078.266.266,0,0,0-.048-.251.177.177,0,0,1-.03-.123.7.7,0,0,0-.032-.354l.138-.21a.234.234,0,0,1-.054-.173,1.32,1.32,0,0,0-.039-.209c-.013-.088-.018-.177-.025-.266.027-.1.062-.21.082-.32a.363.363,0,0,0-.029-.257.338.338,0,0,1-.011-.284.464.464,0,0,0,.034-.184.556.556,0,0,0-.033-.167.382.382,0,0,1,.006-.282c.033-.091-.069-.182-.015-.283a.1.1,0,0,0,.012-.042.6.6,0,0,0,.019-.155c-.013-.107.085-.212,0-.318,0-.006,0-.029.011-.042.036-.095.073-.189.119-.308a.436.436,0,0,0-.071-.247.138.138,0,0,1-.023-.066l0-.008a.23.23,0,0,1,0-.026.135.135,0,0,0,0-.04.281.281,0,0,1-.008-.071.078.078,0,0,0,0-.023.933.933,0,0,0-.048-.088.057.057,0,0,1-.01-.052.071.071,0,0,0,0-.015.091.091,0,0,1,0-.049V50.36c0-.012-.008-.023-.011-.035s-.008-.04-.012-.061a.111.111,0,0,0-.018-.051.142.142,0,0,0-.028-.02c-.009-.007-.012-.023-.025-.028h0a.23.23,0,0,1-.028-.034.256.256,0,0,0-.016-.025.092.092,0,0,1-.023-.054.027.027,0,0,0-.02-.027.022.022,0,0,1-.014-.009c-.013-.027-.04-.039-.053-.066a.346.346,0,0,1-.047-.06.063.063,0,0,1-.014-.027.022.022,0,0,0-.012-.019.03.03,0,0,1-.017-.025c-.01,0-.019,0-.025,0s-.04-.015-.051-.039a.019.019,0,0,0-.016-.01.169.169,0,0,1-.065-.031.037.037,0,0,0-.039,0l-.023.01a.073.073,0,0,1-.058,0,.085.085,0,0,1-.025-.013.123.123,0,0,0-.054-.026.462.462,0,0,0-.065-.009h-.02c-.028,0-.057-.006-.075-.04l-.009-.006-.029-.007c-.016-.006-.034,0-.05-.011h-.01a.184.184,0,0,0-.033,0l-.016,0c-.023.01-.047.01-.071.018h-.008a.045.045,0,0,0-.047.009.241.241,0,0,1-.042.022.069.069,0,0,0-.032.027.133.133,0,0,1-.059.049.115.115,0,0,0-.025.012c-.014.011-.029.023-.042.035a1.723,1.723,0,0,1-.675.006.1.1,0,0,0-.075.008c-.071.05-.141.021-.21.009a.221.221,0,0,0-.191.016.167.167,0,0,1-.093.033.375.375,0,0,1-.113-.018.422.422,0,0,0-.325.007.192.192,0,0,1-.208-.018.3.3,0,0,0-.265-.026,1.443,1.443,0,0,0-.175.059c-.071-.09-.177-.069-.268-.1a.127.127,0,0,0-.126.032c-.082.109-.159.07-.242.015a.156.156,0,0,0-.055-.015.332.332,0,0,1-.289.1.316.316,0,0,0-.076.008.649.649,0,0,1-.532-.053.285.285,0,0,0-.068-.018c-.024.046-.044.081-.066.121l-.1-.075c-.166.015-.327.038-.488.042a.268.268,0,0,1-.222-.053.122.122,0,0,0-.129,0,.4.4,0,0,1-.334.081c-.022,0-.049.021-.074.023s-.073.01-.093-.009a.192.192,0,0,0-.253-.018.209.209,0,0,1-.088.009c-.035-.033-.062-.06-.092-.085a5.171,5.171,0,0,0,.092.944c.01.048-.02.1-.02.154,0,.154-.009.309-.009.462a2.1,2.1,0,0,0,.007.238,6.577,6.577,0,0,1,0,1.316,2.649,2.649,0,0,0,0,1.162.421.421,0,0,1-.028.3.942.942,0,0,0-.079.511,1.1,1.1,0,0,1,.416.71,1.973,1.973,0,0,1-.149,1.294,1.057,1.057,0,0,0-.1.2,1.383,1.383,0,0,0,.048.214,3.237,3.237,0,0,1,.114,1.915,1.438,1.438,0,0,0-.032.611,7,7,0,0,1-.048,1.99l-.031.022a.59.59,0,0,0,.131.181.441.441,0,0,1,.037.367,3.5,3.5,0,0,0-.16,1.385.694.694,0,0,1-.053.3,2.141,2.141,0,0,0-.047,1.31.911.911,0,0,0,.117,0,.477.477,0,0,1,.289.025.12.12,0,0,0,.077.006.766.766,0,0,1,.442.025.157.157,0,0,0,.115,0,.446.446,0,0,1,.451.04c.1.058.206-.029.3.048.02.017.063,0,.1-.006a.092.092,0,0,0,.038-.011.159.159,0,0,1,.218,0,.056.056,0,0,0,.045.008l.019-.005a1.155,1.155,0,0,0,.174-.067c.037-.019.07-.041.111-.023a.8.8,0,0,0,.4.017.653.653,0,0,1,.386.025.136.136,0,0,0,.078.008.412.412,0,0,1,.188.038l.062.019c.086-.038.174-.09.267-.024a.194.194,0,0,0,.066.024.631.631,0,0,1,.073.015.508.508,0,0,0,.17-.092.151.151,0,0,1,.185-.009.375.375,0,0,0,.109.039.712.712,0,0,0,.235,0c.237-.029.474-.055.711-.068a.086.086,0,0,0,.035.019.061.061,0,0,1,.037.015c.009.009.022.008.033.011s.022.012.033.017h.031a.04.04,0,0,1,.031.01.049.049,0,0,0,.027.01.061.061,0,0,1,.04.018.182.182,0,0,0,.039.035.049.049,0,0,1,.029.043v0l.032,0a.06.06,0,0,1,.044,0,.045.045,0,0,0,.023,0,.355.355,0,0,1,.047-.006.067.067,0,0,1,.05.007c.008,0,.018,0,.025.01a.069.069,0,0,0,.054.009.038.038,0,0,1,.015,0,.044.044,0,0,0,.028,0l.08-.024.017-.006a.278.278,0,0,1,.046-.011.14.14,0,0,0,.049-.011.076.076,0,0,1,.025-.006.035.035,0,0,0,.031-.015l.011-.008a.1.1,0,0,0,.039-.016l.013,0h.019a.055.055,0,0,1,.038,0,.047.047,0,0,0,.047-.006.053.053,0,0,1,.034-.009h.024a.053.053,0,0,1,.024-.025c.009,0,.014-.014.022-.021l.016-.012.008-.006.006-.01c.012-.017.023-.036.036-.051a.177.177,0,0,0,.02-.036.132.132,0,0,1,.04-.058l-.007-.007a.072.072,0,0,1,.027-.059.145.145,0,0,1,.012-.037.543.543,0,0,0,.032-.051.11.11,0,0,1,.03-.034.071.071,0,0,0,.029-.038.213.213,0,0,1,.04-.067.116.116,0,0,0,.025-.065.108.108,0,0,1,.007-.031l0-.018a.026.026,0,0,1,.012-.016.061.061,0,0,0,.032-.041l.024-.055,0-.014a.277.277,0,0,0,0-.091.05.05,0,0,1,0-.032c0-.023.01-.045.016-.068a.063.063,0,0,0,0-.036.086.086,0,0,1,0-.023.08.08,0,0,0,0-.053s0-.012,0-.018,0-.012,0-.018c0-.033-.006-.066-.006-.1a.025.025,0,0,0,0-.015v0c0-.017.006-.033.011-.049a.257.257,0,0,0-.009-.2.189.189,0,0,1-.01-.129.674.674,0,0,0,.022-.4,3.852,3.852,0,0,1-.01-.923c.006-.037.008-.074.016-.112a.16.16,0,0,0,0-.087.371.371,0,0,1,0-.242.332.332,0,0,0,0-.22.323.323,0,0,1,0-.239.619.619,0,0,0,.011-.374.289.289,0,0,1,.027-.239.456.456,0,0,0,.037-.3c-.007-.065-.027-.129-.043-.2.082-.077.069-.2.1-.3a.183.183,0,0,0,0-.085.128.128,0,0,0-.023-.062c-.092-.1-.055-.186,0-.28a.272.272,0,0,0,.017-.062.464.464,0,0,1-.071-.337.442.442,0,0,0,0-.089.976.976,0,0,1,.074-.61.427.427,0,0,0,.02-.076c-.038-.032-.068-.055-.1-.082.028-.046.051-.083.071-.113-.006-.192-.016-.379-.012-.564a.4.4,0,0,1,.057-.254.176.176,0,0,0,0-.149.581.581,0,0,1-.051-.387c0-.027-.017-.057-.018-.087a.207.207,0,0,1,.013-.106.278.278,0,0,0,.029-.292.312.312,0,0,1,0-.1,1.2,1.2,0,0,0,.1-.128.154.154,0,0,0,.022-.1,3.373,3.373,0,0,1-.025-.4A.145.145,0,0,1,206.986,55.912Z"/><path class="cls-2" d="M197.927,64.279c.012-.224.024-.447.037-.672.017-.268.035-.537.044-.8.034-.984-.147-1.96-.111-2.946a33.076,33.076,0,0,0-.094-3.505,2.267,2.267,0,0,1,.062-.54A10.841,10.841,0,0,0,198,54.183c-.011-.2-.024-.4-.043-.6-.025-.274-.053-.549-.074-.824a1.787,1.787,0,0,1-.011-.609,1.917,1.917,0,0,0-.022-1.078,3.338,3.338,0,0,1-.079-.981c-.053,0-.1,0-.158,0-.091,0-.183.009-.274.016h0l-.138.025-.077-.021a1,1,0,0,1-.155,0c-.1-.013-.2.012-.308,0a.222.222,0,0,1-.119.027c-.006,0-.013,0-.018.006a.318.318,0,0,1-.251.023.454.454,0,0,0-.176-.012.244.244,0,0,1-.139,0,.938.938,0,0,0-.277.044.058.058,0,0,1-.032,0c-.163-.042-.331.007-.5-.024a.461.461,0,0,0-.19.019.147.147,0,0,1-.123-.009.165.165,0,0,0-.076-.019,3.5,3.5,0,0,0-.614.021,2.035,2.035,0,0,1-.468,0,1.327,1.327,0,0,0-.431.012.137.137,0,0,1-.049.005c-.128-.005-.257-.016-.386-.016a1.1,1.1,0,0,0-.256.023,1.378,1.378,0,0,1-.327.029.12.12,0,0,1-.109,0h-.013a.078.078,0,0,0-.067.008.218.218,0,0,1-.268.034.032.032,0,0,0-.015-.024.04.04,0,0,1-.023-.034c-.014,0-.026,0-.035,0l-.011-.005,0,0c-.2,0-.4.012-.593.018-.065,0-.129,0-.193,0-.033,0-.065-.006-.1,0a2.8,2.8,0,0,1-.467,0,.2.2,0,0,1-.034.023c-.022.009-.042.025-.064.035a.154.154,0,0,1-.1.029l-.011,0a.665.665,0,0,1-.131.049.313.313,0,0,0-.141.1l-.012.01c-.031.031-.056.07-.089.1a.3.3,0,0,0-.03.038c0,.007-.011.012-.015.019a.249.249,0,0,1-.054.076l-.01.014c-.008.019-.015.039-.025.058a.508.508,0,0,1-.038.069.114.114,0,0,0-.022.044.374.374,0,0,1-.048.116.4.4,0,0,1-.029.049.089.089,0,0,0-.02.058.211.211,0,0,1-.017.079.218.218,0,0,0-.015.067.579.579,0,0,1-.024.117q-.006.3-.011.606a.093.093,0,0,1,.014.057.321.321,0,0,1-.007.081.05.05,0,0,0,0,.021.315.315,0,0,0,0,.043.248.248,0,0,0,.012.054.2.2,0,0,1,.015.083.116.116,0,0,0,.016.066l.026,0a.153.153,0,0,1,.026.008.164.164,0,0,0,0,.022,1.028,1.028,0,0,1,0,.379,2.087,2.087,0,0,0-.019.492,1.867,1.867,0,0,1,.015.2,1.217,1.217,0,0,1,0,.16,1.436,1.436,0,0,0,.007.382,5.157,5.157,0,0,1,.019.834,5.436,5.436,0,0,0-.01.827.18.18,0,0,1-.01.065,1.192,1.192,0,0,0-.041.49c.009.1,0,.209,0,.314,0,.046,0,.091,0,.136a.709.709,0,0,1-.023.333.178.178,0,0,0-.006.089,1.156,1.156,0,0,1-.023.51.228.228,0,0,0,0,.132.663.663,0,0,1-.037.521c-.051.112.024.237-.043.345-.015.023,0,.073,0,.11a.129.129,0,0,0,.01.044.233.233,0,0,1-.006.252.1.1,0,0,0,0,.065,1.476,1.476,0,0,0,.061.209.183.183,0,0,1,.019.127,1.185,1.185,0,0,0-.017.463,2.23,2.23,0,0,1,.008.294.51.51,0,0,1-.032.152.2.2,0,0,0-.008.089.579.579,0,0,1-.034.218.932.932,0,0,0,.047.734.221.221,0,0,1,.008.214.811.811,0,0,0-.039.4l0,.044c.023.268.043.537.053.806a.54.54,0,0,1-.089.361.252.252,0,0,0-.042.189c0,.037.009.072.015.108a.355.355,0,0,1-.055.108.08.08,0,0,0-.016.049.176.176,0,0,1-.014.065.156.156,0,0,0-.012.056.5.5,0,0,1-.021.1l-.009.505a.077.077,0,0,1,.012.047.307.307,0,0,1-.006.068.054.054,0,0,0,0,.018c0,.011,0,.024,0,.035a.226.226,0,0,0,.01.045.149.149,0,0,1,.013.069.1.1,0,0,0,.013.055l.022,0a.1.1,0,0,1,.081.1.083.083,0,0,0,0,.032.069.069,0,0,1,0,.049.032.032,0,0,0,0,.027.034.034,0,0,1,0,.017.143.143,0,0,0,.027.07c.02,0,.038.009.045.032l0,0,.008.008a.081.081,0,0,1,.025.027l.011.013.062.046,0,.013c.018.015.033.037.059.036a.024.024,0,0,1,.024.014.1.1,0,0,0,.072.044.078.078,0,0,1,.048.029.1.1,0,0,0,.06.033.072.072,0,0,1,.043.018c.012.01.026.008.039.012a.3.3,0,0,1,.039.021.042.042,0,0,0,.016,0h.022a.048.048,0,0,1,.035.012.03.03,0,0,0,.018.006.084.084,0,0,0,.014.006.076.076,0,0,1,.048.022.222.222,0,0,0,.046.041.058.058,0,0,1,.034.05c0,.017.013.023.025.014a.062.062,0,0,1,.065-.011.054.054,0,0,0,.028,0,.355.355,0,0,1,.056-.006.076.076,0,0,1,.059.008c.009.006.021.005.03.011a.074.074,0,0,0,.063.011.037.037,0,0,1,.018,0,.061.061,0,0,0,.033,0l.094-.029.021-.007a.262.262,0,0,1,.054-.012.165.165,0,0,0,.058-.014.082.082,0,0,1,.031-.007.038.038,0,0,0,.035-.018l.007-.005a.9.9,0,0,0,.264.008.867.867,0,0,1,.176-.016.485.485,0,0,0,.306-.035.2.2,0,0,1,.115-.006l.141.011a2.072,2.072,0,0,0,.284.007,1.119,1.119,0,0,0,.181-.017.393.393,0,0,1,.1,0c.176,0,.352.018.527.007a3.08,3.08,0,0,1,.43.013.487.487,0,0,0,.137.007.314.314,0,0,1,.308.1.177.177,0,0,0,.065.031c.018-.011.037-.015.04-.025.03-.09.1-.1.167-.14a.194.194,0,0,1,.205.008.4.4,0,0,0,.171.044c.058,0,.116,0,.173,0,.092,0,.185,0,.277,0,.293-.015.585-.038.877-.054a.385.385,0,0,1,.13.034.39.39,0,0,0,.268.019.652.652,0,0,1,.328-.006,1.391,1.391,0,0,0,.426.018,1.009,1.009,0,0,1,.309-.014.943.943,0,0,0,.331-.011,1.78,1.78,0,0,1,.348-.031c.011-.14.01-.283.015-.425C197.914,64.746,197.915,64.512,197.927,64.279Z"/><path class="cls-2" d="M199.783,64.161a.694.694,0,0,0,.053-.3,3.5,3.5,0,0,1,.16-1.385.441.441,0,0,0-.037-.367.59.59,0,0,1-.131-.181l.031-.022a7,7,0,0,0,.048-1.99,1.438,1.438,0,0,1,.032-.611,3.237,3.237,0,0,0-.114-1.915,1.383,1.383,0,0,1-.048-.214,1.057,1.057,0,0,1,.1-.2,1.973,1.973,0,0,0,.149-1.294,1.1,1.1,0,0,0-.416-.71.942.942,0,0,1,.079-.511.421.421,0,0,0,.028-.3,2.649,2.649,0,0,1,0-1.162,6.577,6.577,0,0,0,0-1.316,2.1,2.1,0,0,1-.007-.238c0-.153.006-.308.009-.462,0-.051.03-.106.02-.154a5.171,5.171,0,0,1-.092-.944c-.008-.006-.015-.015-.023-.02a.109.109,0,0,0-.091-.021.385.385,0,0,1-.176.032.319.319,0,0,0-.113.1.257.257,0,0,1-.2.1,1.281,1.281,0,0,1-.322.013.932.932,0,0,0-.258.009,2.624,2.624,0,0,1-.452,0h-.038l-.034.011-.017-.012-.088,0h-.068a3.338,3.338,0,0,0,.079.981,1.917,1.917,0,0,1,.022,1.078,1.787,1.787,0,0,0,.011.609c.021.275.049.55.074.824.019.2.032.4.043.6a10.841,10.841,0,0,1-.131,1.628,2.267,2.267,0,0,0-.062.54,33.076,33.076,0,0,1,.094,3.505c-.036.986.145,1.962.111,2.946-.009.268-.027.537-.044.8-.013.225-.025.448-.037.672s-.013.467-.023.7c0,.142,0,.285-.015.425.125,0,.25,0,.376.006a3.734,3.734,0,0,0,.717.006.1.1,0,0,1,.056.012.782.782,0,0,0,.425.043,2.261,2.261,0,0,1,.273,0h0A2.141,2.141,0,0,1,199.783,64.161Z"/><path class="cls-2" d="M202.328,51.8c0,.2-.018.407-.029.61s-.027.395-.041.593a.615.615,0,0,0-.11.029l-.029.006c-.021.007-.041.008-.061.013a1.332,1.332,0,0,0,.327-.029,1.208,1.208,0,0,1,.256-.023c.128,0,.257.011.386.017a.157.157,0,0,0,.048-.005,1.305,1.305,0,0,1,.432-.012,2.036,2.036,0,0,0,.468,0,3.485,3.485,0,0,1,.613-.02.147.147,0,0,1,.077.019.145.145,0,0,0,.122.008.481.481,0,0,1,.191-.019c.165.032.332-.017.5.025a.06.06,0,0,0,.032,0,.925.925,0,0,1,.276-.043.364.364,0,0,1-.053-.012c-.08-.034-.155.089-.244.031a.087.087,0,0,0-.038-.011.42.42,0,0,0-.135-.014c-.091.021-.187-.086-.275.015,0,.006-.025,0-.037-.01l-.273-.121a.392.392,0,0,0-.135.044.261.261,0,0,0-.075.049.107.107,0,0,1-.083.033,2.733,2.733,0,0,0-.057-.569,2.894,2.894,0,0,1-.043-1.013c.02-.15.02-.3.028-.457.01-.17.019-.339.028-.509s.016-.318.025-.477a.472.472,0,0,0-.091.005c-.03.009-.065.031-.092.024a.8.8,0,0,0-.254.012c-.063,0-.127.026-.186-.018-.015-.011-.042-.005-.063-.008-.08-.009-.161-.017-.241-.027-.117-.015-.234-.033-.352-.043A.634.634,0,0,0,203,49.9l-.057.124a1.628,1.628,0,0,0-.2-.039,1.584,1.584,0,0,0-.194.009.129.129,0,0,1-.048-.005.419.419,0,0,0-.155-.024,5.732,5.732,0,0,1,0,.764A10.626,10.626,0,0,0,202.328,51.8Z"/><path class="cls-2" d="M192.834,46.017l.057-.05c.05.033.114.031.152.087a.763.763,0,0,0,.1-.029c.04-.017.077-.04.116,0,.035-.018.07.021.109,0s.06.035.087-.014a.217.217,0,0,1,.048.123.5.5,0,0,0,.02.085.028.028,0,0,0,.04.017.055.055,0,0,0,.027-.035.557.557,0,0,0-.012-.067.317.317,0,0,1,.01-.063c.027.019.044.032.063.043a.186.186,0,0,0,.059.031.1.1,0,0,1,.069.047.265.265,0,0,0,.091.1c.012.007.017.027.026.04s.018.032.031.036c.059.016.07.067.08.113a.269.269,0,0,1-.018.2.262.262,0,0,0-.049.185.8.8,0,0,0-.026.28c0,.022-.012.045-.013.067a.6.6,0,0,0,0,.231.216.216,0,0,1,.008.116.1.1,0,0,0,.014.073.165.165,0,0,1,.016.121c-.012.09-.017.181-.021.272a.655.655,0,0,0,.011.1.812.812,0,0,1,0,.086c0,.006,0,.014,0,.019.03.071-.007.134-.022.2a.618.618,0,0,0-.015.155,1.219,1.219,0,0,1-.009.263c-.014.083-.007.169-.018.253a3.293,3.293,0,0,1-.051.464.092.092,0,0,0-.006.048.193.193,0,0,1-.014.151.071.071,0,0,0,0,.029,1.142,1.142,0,0,1,0,.117.89.89,0,0,1-.031.117l.073.039a.469.469,0,0,1,0,.084c-.011.071-.027.14-.04.211-.009.047-.017.1-.025.143,0,.013,0,.03-.007.038-.029.035-.017.074-.018.112a.5.5,0,0,1,0,.154c-.006.015.007.037.011.056a.234.234,0,0,1,0,.126.185.185,0,0,0-.014.114.09.09,0,0,1-.009.047.157.157,0,0,0,0,.1.106.106,0,0,1,0,.066,1.114,1.114,0,0,0-.06.266.253.253,0,0,0,0,.154.093.093,0,0,1,0,.057.616.616,0,0,0-.01.166c0,.032-.006.064-.008.1s0,.071-.007.107a.218.218,0,0,1,0,.077.412.412,0,0,0-.009.191c0,.128,0,.255.009.382a.246.246,0,0,1-.02.114.379.379,0,0,0-.03.182.912.912,0,0,1-.032.27.184.184,0,0,0,0,.1c.017.052-.012.1-.015.147a.079.079,0,0,1-.08.009.141.141,0,0,0-.156.055.224.224,0,0,1-.267.2c-.012.025-.022.053-.037.078a.133.133,0,0,1-.088.072.063.063,0,0,1-.055,0,.316.316,0,0,0-.152-.026.218.218,0,0,0-.11.032.117.117,0,0,1-.084.009c-.115-.022-.23-.04-.345-.062-.1-.018-.1-.022-.122-.121a.214.214,0,0,1-.012-.115c0-.014-.013-.033-.022-.052l-.057.022c-.007,0-.014-.007-.017-.012a.221.221,0,0,0-.064-.083.15.15,0,0,1-.051-.122.75.75,0,0,1,0-.2.58.58,0,0,0,0-.156,1.542,1.542,0,0,1,.019-.272c0-.036,0-.071.008-.107s.01-.09.011-.136,0-.11,0-.166a1.124,1.124,0,0,1,.01-.224c.013-.066,0-.136.012-.2a.121.121,0,0,0-.016-.065.183.183,0,0,1,0-.152.309.309,0,0,0,.017-.135,1.042,1.042,0,0,0-.016-.223.034.034,0,0,1,0-.02c.032-.1.009-.2.034-.3a.3.3,0,0,0,0-.115.092.092,0,0,1,.01-.074.088.088,0,0,0,.014-.045,2.092,2.092,0,0,0,.011-.371,1.209,1.209,0,0,1,.017-.282.817.817,0,0,0,.009-.261.093.093,0,0,1,0-.029c.008-.077.019-.155.025-.232a.677.677,0,0,0,0-.156.824.824,0,0,1-.005-.222c.009-.088.029-.174.036-.261.012-.132.01-.266.014-.4,0-.038,0-.077.007-.116a.38.38,0,0,0,.006-.058,2.4,2.4,0,0,1,.026-.379c.007-.071,0-.144,0-.215,0-.039.006-.078.008-.117s0-.058,0-.088a.63.63,0,0,1,0-.1.2.2,0,0,0,0-.1.255.255,0,0,1-.006-.078c.006-.081.016-.161.022-.242a2.8,2.8,0,0,0,.018-.419c0-.062,0-.124-.005-.186a.1.1,0,0,1,.039-.086.532.532,0,0,0,.074-.076.548.548,0,0,1,.17-.141.157.157,0,0,1,.074-.02c.077,0,.11-.061.149-.111.008-.009.007-.025.009-.037a.255.255,0,0,0,0-.039c0-.045.011-.091.056-.106a.106.106,0,0,1,.133.028A.111.111,0,0,0,192.834,46.017Z"/><path class="cls-3" d="M109.1,56.306c0,.423.16.783.223,1.391h1.728v.639h-1.7v2.639h1.7v.64h-3.807v-.64h1.384V58.336h-1.384V57.7h1.36a10.786,10.786,0,0,1-.224-1.352c0-.991.728-1.367,1.639-1.367a3.264,3.264,0,0,1,1.271.225l-.208.647a2.5,2.5,0,0,0-1.1-.224C109.414,55.626,109.1,55.77,109.1,56.306Z"/><path class="cls-3" d="M112.871,59.464a2.057,2.057,0,0,1,2.023-2.335c1.248,0,1.975.856,1.975,2.279a2.043,2.043,0,0,1-2.023,2.3C113.6,61.7,112.871,60.847,112.871,59.464Zm3.271-.016c0-1.047-.392-1.671-1.264-1.671s-1.279.64-1.279,1.647.391,1.631,1.263,1.631S116.142,60.416,116.142,59.448Z"/><path class="cls-3" d="M122.581,60.975v.64h-3.806v-.64h1.144V57.217h.64l-.016.848,1.95-.952.009.712-1.863.9v2.247Z"/><path class="cls-3" d="M130.879,59.424c0,1.119.472,1.623,1.4,1.623a2.877,2.877,0,0,0,1.455-.376l.193.6a3.259,3.259,0,0,1-1.663.424,1.961,1.961,0,0,1-2.112-2.231,2.084,2.084,0,0,1,2.072-2.327c1.311,0,1.894.816,1.718,2.239h-3.062Zm.057-.624h2.318c-.016-.735-.36-1.039-1.079-1.039A1.17,1.17,0,0,0,130.936,58.8Z"/><path class="cls-3" d="M139.461,58.728l-.04,2.887h-.6v-.528a2.079,2.079,0,0,1-1.543.616c-.88-.008-1.375-.472-1.375-1.207,0-.848.871-1.224,2.823-1.375l.007-.313c.008-.559-.055-1.031-.926-1.031a3.457,3.457,0,0,0-1.536.376l-.192-.6a3.863,3.863,0,0,1,1.783-.424C139.31,57.129,139.469,57.865,139.461,58.728ZM138.7,60.6l.017-.895c-1.472.12-2.095.328-2.095.775,0,.368.256.584.751.592A1.963,1.963,0,0,0,138.7,60.6Z"/><path class="cls-3" d="M141.607,59.464a2.084,2.084,0,0,1,2.192-2.327,3.39,3.39,0,0,1,1.6.36l-.208.648a2.866,2.866,0,0,0-1.455-.36c-.847,0-1.39.5-1.39,1.639,0,1.119.431,1.623,1.39,1.623a2.732,2.732,0,0,0,1.455-.408l.193.632a3.259,3.259,0,0,1-1.663.424A1.944,1.944,0,0,1,141.607,59.464Z"/><path class="cls-3" d="M151.014,58.584v3.031h-.72V58.688c0-.647-.265-.911-.8-.911a2.2,2.2,0,0,0-1.279.416v3.422h-.72V55.058h.72v1.919l-.065.688a2.172,2.172,0,0,1,1.432-.536A1.265,1.265,0,0,1,151.014,58.584Z"/><path class="cls-3" d="M156.805,56.177v5.438h-1.136L153.847,57h-.08l.04,4.614h-.68V56.177h1.135l1.831,4.615h.072l-.04-4.615Z"/><path class="cls-3" d="M162.437,57.217v4.4h-.607v-.488a2.182,2.182,0,0,1-1.479.576,1.265,1.265,0,0,1-1.432-1.455V57.217h.72v2.927c0,.648.263.911.8.911a2.2,2.2,0,0,0,1.28-.416V57.217Z"/><path class="cls-3" d="M168.549,58.344v3.271h-.64V58.609c0-.649-.064-.912-.488-.912a1.078,1.078,0,0,0-.695.328c.007.1.015.2.015.319v3.271H166.1V58.609c0-.649-.064-.912-.488-.912a1.051,1.051,0,0,0-.679.311v3.607h-.64v-4.4h.527l.009.384a1.262,1.262,0,0,1,.943-.472.826.826,0,0,1,.824.44,1.433,1.433,0,0,1,.983-.44C168.228,57.129,168.549,57.489,168.549,58.344Z"/><path class="cls-3" d="M174.149,59.248c0,1.759-.872,2.447-2.182,2.447a4.917,4.917,0,0,1-1.575-.233v-6.4h.719v1.919l-.064.68a2.158,2.158,0,0,1,1.431-.528C173.565,57.137,174.149,57.9,174.149,59.248Zm-.727.08c0-1-.352-1.543-1.031-1.551a2.147,2.147,0,0,0-1.28.416v2.742a3.346,3.346,0,0,0,.911.112C172.99,61.047,173.422,60.471,173.422,59.328Z"/><path class="cls-3" d="M176.7,59.424c0,1.119.472,1.623,1.4,1.623a2.88,2.88,0,0,0,1.455-.376l.192.6a3.259,3.259,0,0,1-1.663.424,1.961,1.961,0,0,1-2.111-2.231,2.083,2.083,0,0,1,2.071-2.327c1.311,0,1.894.816,1.719,2.239H176.7Zm.057-.624h2.318c-.016-.735-.359-1.039-1.079-1.039A1.171,1.171,0,0,0,176.759,58.8Z"/><path class="cls-3" d="M185.588,60.975v.64h-3.806v-.64h1.144V57.217h.639l-.015.848,1.95-.952.009.712-1.864.9v2.247Z"/><path class="cls-3" d="M197.044,60.975v.64h-3.806v-.64h1.623V57.857h-1.623v-.64h2.343v3.758Zm-2.622-5.2a.72.72,0,1,1,.72.72A.716.716,0,0,1,194.422,55.778Z"/><path class="cls-3" d="M202.565,58.584v3.031h-.719V58.688c0-.647-.264-.911-.8-.911a2.2,2.2,0,0,0-1.279.416v3.422h-.72v-4.4h.607v.488a2.177,2.177,0,0,1,1.48-.576A1.265,1.265,0,0,1,202.565,58.584Z"/><path class="cls-3" d="M214.373,58.344v3.271h-.64V58.609c0-.649-.064-.912-.488-.912a1.078,1.078,0,0,0-.695.328c.008.1.015.2.015.319v3.271h-.639V58.609c0-.649-.064-.912-.488-.912a1.055,1.055,0,0,0-.679.311v3.607h-.64v-4.4h.527l.009.384a1.263,1.263,0,0,1,.944-.472.826.826,0,0,1,.823.44,1.433,1.433,0,0,1,.983-.44C214.053,57.129,214.373,57.489,214.373,58.344Z"/><path class="cls-3" d="M218.333,62.415H219.6v.639h-3.246v-.639h1.262v-.888l-1.7-4.31h.775l.919,2.391.313.991h.159l.32-.991.9-2.391h.735l-1.7,4.31Z"/><path class="cls-3" d="M225.564,60.951v.664h-3.47V56.177h.736v4.774Z"/><path class="cls-3" d="M231.412,60.975v.64h-3.806v-.64h1.623V57.857h-1.623v-.64h2.343v3.758Zm-2.622-5.2a.72.72,0,1,1,.72.72A.716.716,0,0,1,228.79,55.778Z"/><path class="cls-3" d="M233.278,61.359l.216-.672a3.384,3.384,0,0,0,1.608.368c.815,0,1.207-.192,1.207-.6,0-.888-2.951-.592-2.951-2.047,0-.824.728-1.272,1.879-1.272a4.085,4.085,0,0,1,1.591.312l-.208.656a3.116,3.116,0,0,0-1.383-.328c-.759,0-1.151.2-1.151.552,0,.855,2.95.559,2.95,2.046,0,.912-.808,1.32-1.967,1.32A4.181,4.181,0,0,1,233.278,61.359Z"/><path class="cls-3" d="M242.805,61.351a3.242,3.242,0,0,1-1.512.344c-1.2,0-1.415-.656-1.4-1.6l.048-2.238h-1.079v-.64h1.087l.025-1.04h.743l-.136,1.04h2.062v.64h-1.966l-.048,2.158c-.016.561.056,1.032.687,1.032a2.86,2.86,0,0,0,1.295-.3Z"/><path class="cls-4" d="M245.894,58.241a.72.72,0,1,1,.719.719A.717.717,0,0,1,245.894,58.241Zm0,2.726a.72.72,0,1,1,.719.72A.716.716,0,0,1,245.894,60.967Z"/><path class="cls-4" d="M111.142,78.449c0,1.759-.873,2.446-2.183,2.446a4.921,4.921,0,0,1-1.575-.232V74.258h.719v1.919l-.064.68a2.154,2.154,0,0,1,1.432-.527C110.558,76.337,111.142,77.1,111.142,78.449Zm-.728.079c0-1-.352-1.543-1.031-1.551a2.147,2.147,0,0,0-1.28.416v2.742a3.348,3.348,0,0,0,.912.113C109.982,80.248,110.414,79.671,110.414,78.528Z"/><path class="cls-4" d="M112.871,78.665a2.057,2.057,0,0,1,2.023-2.335c1.248,0,1.975.855,1.975,2.278a2.043,2.043,0,0,1-2.023,2.3C113.6,80.9,112.871,80.047,112.871,78.665Zm3.271-.017c0-1.047-.392-1.671-1.264-1.671s-1.279.64-1.279,1.648.391,1.63,1.263,1.63S116.142,79.616,116.142,78.648Z"/><path class="cls-4" d="M122.357,74.258v6.557h-.623v-.472a2.117,2.117,0,0,1-1.464.56c-1.086-.008-1.67-.768-1.67-2.119,0-1.759.871-2.447,2.182-2.447a5.322,5.322,0,0,1,.856.065V74.258Zm-.719,5.581V77.1a3.351,3.351,0,0,0-.911-.112c-.968,0-1.4.576-1.4,1.72,0,1,.352,1.543,1.031,1.55A2.147,2.147,0,0,0,121.638,79.839Z"/><path class="cls-4" d="M126.686,81.615h1.263v.639H124.7v-.639h1.264v-.888l-1.7-4.31h.775l.919,2.391.312.991h.16l.32-.991.9-2.391h.736l-1.7,4.31Z"/></g><g id="solo_testo" data-name="solo testo"><path class="cls-1" d="M57.99,52.792c0,1.343-.559,3.43-2.726,3.239l-.057-.9c1.512.072,1.743-1.367,1.768-2.558-.72.775-1.424,1.527-2.047,2.23-.233.88-.489,1.879-.8,2.91l-.984-.216c.5-1.63,1.272-4.453,1.584-5.868l1.055.192a10.055,10.055,0,0,1-.488,1.687,17.206,17.206,0,0,1,1.831-1.951l.808.439A4.807,4.807,0,0,1,57.99,52.792Z"/><path class="cls-1" d="M62.286,51.937a12.12,12.12,0,0,0-.831,2.511l-.92-.168A12.344,12.344,0,0,1,60.894,53c-.5.616-1.031,1.36-1.5,2.015-.073.256-.161.52-.24.783l-.96-.239c.3-1.056.688-2.247,1.039-3.87l1.024.224a10.237,10.237,0,0,1-.472,1.679,18.559,18.559,0,0,1,1.736-2.159Z"/><path class="cls-1" d="M63.424,56.014c-.352-.183-.688-.271-.984-.447a4.548,4.548,0,0,1-.16-1.239,2.732,2.732,0,0,1,3.214-2.839l.2.792.281.04A3.22,3.22,0,0,1,63.424,56.014Zm1.686-3.645A2,2,0,0,0,63.3,54.551a3.482,3.482,0,0,0,.063.768C64.719,55.047,65.207,53.4,65.11,52.369Z"/><path class="cls-1" d="M69.478,52.384c-.312.025-.624.04-.935.04A32.1,32.1,0,0,0,67.5,55.8l-.928-.2c.161-.672.416-1.807.865-3.2-.329-.025-.609-.048-.785-.072l.121-.617c.255.017.559.033.879.04.192-.551.415-1.134.664-1.742l1.08.327c-.217.481-.409.953-.592,1.424.256-.016.519-.032.839-.064Z"/><path class="cls-1" d="M70.2,54.375a3.427,3.427,0,0,0-.016.8,3.953,3.953,0,0,0,1.775-.536l-.088.7a2.714,2.714,0,0,1-1.543.561c-.784,0-1.224-.456-1.168-1.376a3.217,3.217,0,0,1,2.287-2.99l1.32.391a2.5,2.5,0,0,1,.112.712c0,.856-.649,1.535-1.823,1.535a5.586,5.586,0,0,1-.808-.072A2.11,2.11,0,0,0,70.2,54.375Zm.248-.832a2.084,2.084,0,0,0,.407.041,1.007,1.007,0,0,0,1.056-1.015,1.444,1.444,0,0,0-.064-.4A2.994,2.994,0,0,0,70.447,53.543Z"/><path class="cls-1" d="M74.023,54.872a2.9,2.9,0,0,0,.016.4,5.657,5.657,0,0,0,1.751-.607l-.088.687a2.843,2.843,0,0,1-1.615.623c-.591,0-1.127-.351-1.127-1.263a2.986,2.986,0,0,1,2.719-3.07,1.341,1.341,0,0,1,.871.279l-.216.8a1.525,1.525,0,0,0-.632-.151C74.6,52.569,74.023,53.888,74.023,54.872Z"/><path class="cls-1" d="M79.551,52.384c-.313.025-.624.04-.936.04A32.1,32.1,0,0,0,77.567,55.8l-.927-.2c.16-.672.416-1.807.864-3.2-.328-.025-.609-.048-.784-.072l.12-.617c.256.017.559.033.88.04.191-.551.415-1.134.663-1.742l1.08.327c-.217.481-.408.953-.592,1.424.256-.016.52-.032.839-.064Z"/><path class="cls-1" d="M80.271,54.375a3.485,3.485,0,0,0-.016.8,3.953,3.953,0,0,0,1.775-.536l-.088.7A2.711,2.711,0,0,1,80.4,55.9c-.784,0-1.223-.456-1.168-1.376a3.218,3.218,0,0,1,2.288-2.99l1.319.391a2.5,2.5,0,0,1,.112.712c0,.856-.648,1.535-1.823,1.535a5.586,5.586,0,0,1-.808-.072A2.11,2.11,0,0,0,80.271,54.375Zm.248-.832a2.087,2.087,0,0,0,.408.041,1.006,1.006,0,0,0,1.055-1.015,1.444,1.444,0,0,0-.064-.4A2.994,2.994,0,0,0,80.519,53.543Z"/><path class="cls-1" d="M88.309,49.794a32.224,32.224,0,0,0-1.992,6.2l-.975-.2a15.815,15.815,0,0,1,.368-1.727,15.6,15.6,0,0,1-1.743,1.807c-.176-.113-.528-.248-.856-.416a5.087,5.087,0,0,1-.055-.728,3.34,3.34,0,0,1,2.694-3.39l.248.944a2.386,2.386,0,0,0-1.936,2.631c.592-.577,1.463-1.456,2-2.024.312-.943.712-2.007,1.216-3.406Z"/><path class="cls-1" d="M58.007,64.279c.023.527.063.928.136,1.487l-1.1.12a19.3,19.3,0,0,1-.1-2.007,1.9,1.9,0,0,0,1.448-1.919,22.6,22.6,0,0,0-2.352,2.367l-.352,1.128-.959-.208c.456-1.52,1.408-4.455,1.943-6.173l1.015.351c-.471,1.64-.815,2.455-1.174,3.414.623-.639,1.255-1.239,1.7-1.671l1.1.321A2.309,2.309,0,0,1,58.007,64.279Z"/><path class="cls-1" d="M60.6,63.975a3.446,3.446,0,0,0-.017.8,3.976,3.976,0,0,0,1.775-.536l-.088.695a2.711,2.711,0,0,1-1.542.561c-.785,0-1.224-.456-1.168-1.376a3.216,3.216,0,0,1,2.287-2.991l1.319.392a2.49,2.49,0,0,1,.112.712c0,.855-.648,1.535-1.823,1.535a5.586,5.586,0,0,1-.808-.072A1.9,1.9,0,0,0,60.6,63.975Zm.248-.832a2.144,2.144,0,0,0,.407.04,1.007,1.007,0,0,0,1.056-1.015,1.445,1.445,0,0,0-.065-.4A2.982,2.982,0,0,0,60.848,63.143Z"/><path class="cls-1" d="M67.974,61.617a51.352,51.352,0,0,0-2.135,5.717l-.936-.273c.241-.863.76-2.19,1.256-3.462a14.519,14.519,0,0,1-2.071,2.024l-.9-.369c.44-1.471.872-2.806,1.144-4.061l1.031.2c-.208.888-.5,1.9-.863,2.99a13.219,13.219,0,0,0,2.526-3.118Z"/><path class="cls-1" d="M74.316,61.632,72.03,65.566l-.5-.184-.792-.288c.065-.839.176-1.623.3-2.423l-1.774,2.943-.288-.1-.928-.328c.136-1.167.288-2.646.36-3.893l1.127.112c-.1.967-.279,2.1-.431,3.141l1.966-3.3.153.008.927.055c-.1,1.144-.24,2.207-.352,3.319l1.783-3.414Z"/><path class="cls-1" d="M75.2,65.614c-.351-.184-.687-.272-.983-.447a4.551,4.551,0,0,1-.16-1.24,2.731,2.731,0,0,1,3.213-2.839l.2.792.28.04A3.22,3.22,0,0,1,75.2,65.614Zm1.687-3.646a2,2,0,0,0-1.815,2.183,3.38,3.38,0,0,0,.064.767C76.494,64.647,76.982,63,76.886,61.968Z"/><path class="cls-1" d="M82.037,61.537a12.2,12.2,0,0,0-.832,2.51l-.919-.168a12.4,12.4,0,0,1,.359-1.279c-.5.615-1.031,1.359-1.5,2.015-.073.256-.161.519-.241.783l-.959-.239c.3-1.056.688-2.247,1.039-3.87l1.024.223a10.247,10.247,0,0,1-.472,1.68,18.655,18.655,0,0,1,1.735-2.159Z"/><path class="cls-1" d="M87.221,59.394a32.236,32.236,0,0,0-1.992,6.2l-.975-.2a16.035,16.035,0,0,1,.368-1.726,15.5,15.5,0,0,1-1.743,1.806c-.176-.112-.527-.248-.856-.416a5.072,5.072,0,0,1-.055-.727,3.34,3.34,0,0,1,2.694-3.39l.248.943a2.386,2.386,0,0,0-1.935,2.631c.591-.576,1.462-1.456,2-2.023.311-.944.712-2.007,1.215-3.406Z"/><path class="cls-1" d="M188.99,8.792c0,1.343-.559,3.43-2.726,3.239l-.057-.9c1.512.072,1.743-1.367,1.768-2.558-.72.775-1.424,1.527-2.047,2.23-.233.88-.489,1.879-.8,2.91l-.984-.216c.5-1.63,1.272-4.453,1.584-5.868l1.055.192a10.055,10.055,0,0,1-.488,1.687,17.206,17.206,0,0,1,1.831-1.951l.808.439A4.807,4.807,0,0,1,188.99,8.792Z"/><path class="cls-1" d="M193.286,7.937a12.12,12.12,0,0,0-.831,2.511l-.92-.168A12.344,12.344,0,0,1,191.894,9c-.5.616-1.031,1.36-1.5,2.015-.073.256-.161.52-.24.783l-.96-.239c.3-1.056.688-2.247,1.039-3.87l1.024.224a10.237,10.237,0,0,1-.472,1.679,18.559,18.559,0,0,1,1.736-2.159Z"/><path class="cls-1" d="M194.424,12.014c-.352-.183-.688-.271-.984-.447a4.548,4.548,0,0,1-.16-1.239,2.732,2.732,0,0,1,3.214-2.839l.2.792.281.04A3.22,3.22,0,0,1,194.424,12.014Zm1.686-3.645a2,2,0,0,0-1.814,2.182,3.482,3.482,0,0,0,.063.768C195.719,11.047,196.207,9.4,196.11,8.369Z"/><path class="cls-1" d="M200.478,8.384c-.312.025-.624.04-.935.04A32.1,32.1,0,0,0,198.5,11.8l-.928-.2c.161-.672.416-1.807.865-3.2-.329-.025-.609-.048-.785-.072l.121-.617c.255.017.559.033.879.04.192-.551.415-1.134.664-1.742l1.08.327c-.217.481-.409.953-.592,1.424.256-.016.519-.032.839-.064Z"/><path class="cls-1" d="M201.2,10.375a3.427,3.427,0,0,0-.016.8,3.953,3.953,0,0,0,1.775-.536l-.088.7a2.714,2.714,0,0,1-1.543.561c-.784,0-1.224-.456-1.168-1.376a3.217,3.217,0,0,1,2.287-2.99l1.32.391a2.5,2.5,0,0,1,.112.712c0,.856-.649,1.535-1.823,1.535a5.586,5.586,0,0,1-.808-.072A2.11,2.11,0,0,0,201.2,10.375Zm.248-.832a2.084,2.084,0,0,0,.407.041,1.007,1.007,0,0,0,1.056-1.015,1.444,1.444,0,0,0-.064-.4A2.994,2.994,0,0,0,201.447,9.543Z"/><path class="cls-1" d="M205.023,10.872a2.9,2.9,0,0,0,.016.4,5.657,5.657,0,0,0,1.751-.607l-.088.687a2.843,2.843,0,0,1-1.615.623c-.591,0-1.127-.351-1.127-1.263a2.986,2.986,0,0,1,2.719-3.07,1.341,1.341,0,0,1,.871.279l-.216.8a1.525,1.525,0,0,0-.632-.151C205.6,8.569,205.023,9.888,205.023,10.872Z"/><path class="cls-1" d="M210.551,8.384c-.313.025-.624.04-.936.04a32.1,32.1,0,0,0-1.048,3.374l-.927-.2c.16-.672.416-1.807.864-3.2-.328-.025-.609-.048-.784-.072l.12-.617c.256.017.559.033.88.04.191-.551.415-1.134.663-1.742l1.08.327c-.217.481-.408.953-.592,1.424.256-.016.52-.032.839-.064Z"/><path class="cls-1" d="M211.271,10.375a3.485,3.485,0,0,0-.016.8,3.953,3.953,0,0,0,1.775-.536l-.088.7a2.711,2.711,0,0,1-1.543.561c-.784,0-1.223-.456-1.168-1.376a3.218,3.218,0,0,1,2.288-2.99l1.319.391a2.5,2.5,0,0,1,.112.712c0,.856-.648,1.535-1.823,1.535a5.586,5.586,0,0,1-.808-.072A2.11,2.11,0,0,0,211.271,10.375Zm.248-.832a2.087,2.087,0,0,0,.408.041,1.006,1.006,0,0,0,1.055-1.015,1.444,1.444,0,0,0-.064-.4A2.994,2.994,0,0,0,211.519,9.543Z"/><path class="cls-1" d="M219.309,5.794a32.224,32.224,0,0,0-1.992,6.2l-.975-.2a15.815,15.815,0,0,1,.368-1.727,15.6,15.6,0,0,1-1.743,1.807c-.176-.113-.528-.248-.856-.416a5.087,5.087,0,0,1-.055-.728,3.34,3.34,0,0,1,2.694-3.39l.248.944a2.386,2.386,0,0,0-1.936,2.631c.592-.577,1.463-1.456,2-2.024.312-.943.712-2.007,1.216-3.406Z"/><path class="cls-1" d="M189.007,20.279c.023.527.063.928.136,1.487l-1.1.12a19.3,19.3,0,0,1-.1-2.007,1.9,1.9,0,0,0,1.448-1.919,22.6,22.6,0,0,0-2.352,2.367l-.352,1.128-.959-.208c.456-1.52,1.408-4.455,1.943-6.173l1.015.351c-.471,1.64-.815,2.455-1.174,3.414.623-.639,1.255-1.239,1.7-1.671l1.1.321A2.309,2.309,0,0,1,189.007,20.279Z"/><path class="cls-1" d="M191.6,19.975a3.446,3.446,0,0,0-.017.8,3.976,3.976,0,0,0,1.775-.536l-.088.7a2.711,2.711,0,0,1-1.542.561c-.785,0-1.224-.456-1.168-1.376a3.216,3.216,0,0,1,2.287-2.991l1.319.392a2.49,2.49,0,0,1,.112.712c0,.855-.648,1.535-1.823,1.535a5.586,5.586,0,0,1-.808-.072A1.9,1.9,0,0,0,191.6,19.975Zm.248-.832a2.144,2.144,0,0,0,.407.04,1.007,1.007,0,0,0,1.056-1.015,1.445,1.445,0,0,0-.065-.4A2.982,2.982,0,0,0,191.848,19.143Z"/><path class="cls-1" d="M198.974,17.617a51.352,51.352,0,0,0-2.135,5.717l-.936-.273c.241-.863.76-2.19,1.256-3.462a14.519,14.519,0,0,1-2.071,2.024l-.9-.369c.44-1.471.872-2.806,1.144-4.061l1.031.2c-.208.888-.5,1.9-.863,2.99a13.219,13.219,0,0,0,2.526-3.118Z"/><path class="cls-1" d="M205.316,17.632l-2.286,3.934-.5-.184-.792-.288c.065-.839.176-1.623.3-2.423l-1.774,2.943-.288-.1-.928-.328c.136-1.167.288-2.646.36-3.893l1.127.112c-.1.967-.279,2.1-.431,3.141l1.966-3.3.153.008.927.055c-.1,1.144-.24,2.207-.352,3.319l1.783-3.414Z"/><path class="cls-1" d="M206.2,21.614c-.351-.184-.687-.272-.983-.447a4.551,4.551,0,0,1-.16-1.24,2.731,2.731,0,0,1,3.213-2.839l.2.792.28.04A3.22,3.22,0,0,1,206.2,21.614Zm1.687-3.646a2,2,0,0,0-1.815,2.183,3.38,3.38,0,0,0,.064.767C207.494,20.647,207.982,19,207.886,17.968Z"/><path class="cls-1" d="M213.037,17.537a12.2,12.2,0,0,0-.832,2.51l-.919-.168a12.4,12.4,0,0,1,.359-1.279c-.5.615-1.031,1.359-1.5,2.015-.073.256-.161.519-.241.783l-.959-.239c.3-1.056.688-2.247,1.039-3.87l1.024.223a10.247,10.247,0,0,1-.472,1.68,18.655,18.655,0,0,1,1.735-2.159Z"/><path class="cls-1" d="M218.221,15.394a32.236,32.236,0,0,0-1.992,6.2l-.975-.2a16.035,16.035,0,0,1,.368-1.726,15.5,15.5,0,0,1-1.743,1.806c-.176-.112-.527-.248-.856-.416a5.072,5.072,0,0,1-.055-.727,3.34,3.34,0,0,1,2.694-3.39l.248.943a2.386,2.386,0,0,0-1.935,2.631c.591-.576,1.462-1.456,2-2.023.311-.944.712-2.007,1.215-3.406Z"/><path class="cls-1" d="M134.65,9.3a14.566,14.566,0,0,0-.96,2.743l-.911-.2a9.156,9.156,0,0,1,.384-1.382,12.467,12.467,0,0,1-1.56,1.462c-.183-.112-.375-.2-.7-.368a3.9,3.9,0,0,1-.064-.806,3.577,3.577,0,0,1,3.215-3.383l.223.935a2.714,2.714,0,0,0-2.463,2.687c.625-.567,1.536-1.487,2.1-2.079Z"/><path class="cls-1" d="M138.891,7.937a12.125,12.125,0,0,0-.832,2.511l-.919-.168A12.1,12.1,0,0,1,137.5,9c-.5.616-1.031,1.36-1.5,2.015-.072.256-.16.52-.24.783l-.959-.239c.3-1.056.687-2.247,1.039-3.87l1.023.224a10.23,10.23,0,0,1-.471,1.679,18.655,18.655,0,0,1,1.735-2.159Z"/><path class="cls-1" d="M142.786,8.792a3.357,3.357,0,0,1-2.558,3.5l-.265-.9c1.464-.391,1.783-1.495,1.807-2.759-.711.744-1.815,2.015-2.31,2.575l-.736-.384c.36-.839,1.327-4.037,1.719-5.4l1.015.352c-.335,1.031-.831,2.639-1.3,3.742a11.6,11.6,0,0,1,1.791-1.943c.184.112.456.256.791.431A5.428,5.428,0,0,1,142.786,8.792Z"/><path class="cls-1" d="M145.275,7.889A32.172,32.172,0,0,0,144,11.806l-.952-.207a25.587,25.587,0,0,1,1.191-3.982Zm.232-.7-.959-.279a11.147,11.147,0,0,1,.783-1.879l.96.3A18.26,18.26,0,0,0,145.507,7.193Z"/><path class="cls-1" d="M148.467,8.384c-.313.025-.624.04-.936.04a32.1,32.1,0,0,0-1.048,3.374l-.927-.2c.16-.672.416-1.807.864-3.2-.328-.025-.609-.048-.784-.072l.12-.617c.256.017.559.033.88.04.191-.551.415-1.134.663-1.742l1.08.327c-.217.481-.408.953-.592,1.424.256-.016.52-.032.839-.064Z"/><path class="cls-1" d="M152.1,7.937a12.125,12.125,0,0,0-.832,2.511l-.919-.168A12.1,12.1,0,0,1,150.706,9c-.5.616-1.031,1.36-1.5,2.015-.072.256-.16.52-.24.783L148,11.559c.3-1.056.687-2.247,1.039-3.87l1.023.224a10.132,10.132,0,0,1-.471,1.679,18.655,18.655,0,0,1,1.735-2.159Z"/><path class="cls-1" d="M155.794,9.3a14.566,14.566,0,0,0-.96,2.743l-.911-.2a9.038,9.038,0,0,1,.384-1.382,12.537,12.537,0,0,1-1.56,1.462c-.184-.112-.375-.2-.7-.368a3.827,3.827,0,0,1-.065-.806,3.577,3.577,0,0,1,3.215-3.383l.224.935a2.712,2.712,0,0,0-2.463,2.687c.624-.567,1.535-1.487,2.1-2.079Z"/><path class="cls-1" d="M160.034,7.937a12.18,12.18,0,0,0-.831,2.511l-.92-.168a12.116,12.116,0,0,1,.36-1.28c-.5.616-1.032,1.36-1.5,2.015-.073.256-.161.52-.24.783l-.96-.239c.3-1.056.688-2.247,1.039-3.87L158,7.913a10.237,10.237,0,0,1-.472,1.679,18.559,18.559,0,0,1,1.736-2.159Z"/><path class="cls-1" d="M164.554,8.017a51.551,51.551,0,0,0-2.135,5.717l-.936-.273c.241-.863.76-2.19,1.256-3.461a14.564,14.564,0,0,1-2.071,2.023l-.9-.368c.44-1.472.872-2.807,1.144-4.062l1.031.2c-.208.888-.5,1.9-.863,2.991a13.24,13.24,0,0,0,2.526-3.118Z"/><path class="cls-1" d="M133.447,17.489a32.116,32.116,0,0,0-1.279,3.917l-.952-.207a25.6,25.6,0,0,1,1.191-3.983Zm.232-.7-.959-.279a11.221,11.221,0,0,1,.783-1.879l.96.3A18.468,18.468,0,0,0,133.679,16.792Z"/><path class="cls-1" d="M138.733,15.394a32.238,32.238,0,0,0-1.991,6.2l-.975-.2a15.566,15.566,0,0,1,.368-1.726,15.579,15.579,0,0,1-1.743,1.806c-.176-.112-.528-.248-.856-.416a5.066,5.066,0,0,1-.056-.727,3.34,3.34,0,0,1,2.7-3.39l.248.943a2.386,2.386,0,0,0-1.936,2.631c.592-.576,1.464-1.456,2-2.023.312-.944.712-2.007,1.216-3.406Z"/><path class="cls-1" d="M139,19.975a3.505,3.505,0,0,0-.017.8,3.982,3.982,0,0,0,1.776-.536l-.088.7a2.714,2.714,0,0,1-1.543.561c-.784,0-1.224-.456-1.168-1.376a3.217,3.217,0,0,1,2.287-2.991l1.319.392a2.458,2.458,0,0,1,.113.712c0,.855-.649,1.535-1.824,1.535a5.586,5.586,0,0,1-.807-.072A1.912,1.912,0,0,0,139,19.975Zm.248-.832a2.151,2.151,0,0,0,.407.04,1.007,1.007,0,0,0,1.056-1.015,1.445,1.445,0,0,0-.065-.4A2.987,2.987,0,0,0,139.248,19.143Z"/><path class="cls-1" d="M146.269,17.833a13.182,13.182,0,0,0-1.3,3.805l-.992-.168a17.834,17.834,0,0,1,.848-2.934,22.471,22.471,0,0,0-1.894,1.639c-.088.384-.217.759-.336,1.167l-.96-.24c.3-1.055.671-2.166,1.04-3.8l1.023.208a12.17,12.17,0,0,1-.44,1.568,21.906,21.906,0,0,1,2.087-1.768Z"/><path class="cls-1" d="M149.463,17.984c-.313.024-.624.04-.936.04a32.032,32.032,0,0,0-1.048,3.374l-.927-.2c.16-.672.416-1.808.864-3.2-.328-.024-.608-.047-.784-.072l.12-.616c.256.017.559.032.88.04.191-.552.415-1.135.663-1.742l1.08.327c-.217.48-.408.952-.592,1.424.256-.017.52-.032.839-.065Z"/><path class="cls-1" d="M151.247,17.489a32.116,32.116,0,0,0-1.279,3.917l-.952-.207a25.6,25.6,0,0,1,1.191-3.983Zm.231-.7-.959-.279a11.292,11.292,0,0,1,.784-1.879l.959.3A18.963,18.963,0,0,0,151.478,16.792Z"/><path class="cls-1" d="M155.661,15.089l-.224.84a1.427,1.427,0,0,0-.639-.143c-.512,0-.848.383-1.119,1.3-.025.1-.056.185-.08.281.343-.008.679-.033,1.111-.073l-.16.688c-.367.032-.743.04-1.1.04H153.4c-.543,1.791-1.119,3.638-1.478,5.237l-.928-.191c.344-1.6.816-3.366,1.287-5.086-.231-.016-.424-.04-.559-.056l.12-.616c.183.009.4.024.623.032.04-.168.088-.327.137-.5.279-1,.878-2.007,2.094-2.007A1.8,1.8,0,0,1,155.661,15.089Z"/><path class="cls-1" d="M156.318,17.489a32.116,32.116,0,0,0-1.279,3.917l-.952-.207a25.6,25.6,0,0,1,1.191-3.983Zm.232-.7-.959-.279a11.221,11.221,0,0,1,.783-1.879l.96.3A18.468,18.468,0,0,0,156.55,16.792Z"/><path class="cls-1" d="M157.383,19.975a3.505,3.505,0,0,0-.017.8,3.982,3.982,0,0,0,1.776-.536l-.088.7a2.716,2.716,0,0,1-1.543.561c-.784,0-1.224-.456-1.168-1.376a3.217,3.217,0,0,1,2.287-2.991l1.319.392a2.49,2.49,0,0,1,.112.712c0,.855-.648,1.535-1.823,1.535a5.586,5.586,0,0,1-.807-.072A1.912,1.912,0,0,0,157.383,19.975Zm.248-.832a2.151,2.151,0,0,0,.407.04,1.007,1.007,0,0,0,1.056-1.015,1.445,1.445,0,0,0-.065-.4A2.987,2.987,0,0,0,157.631,19.143Z"/><path class="cls-1" d="M164.109,17.537a12.257,12.257,0,0,0-.832,2.51l-.919-.168a12.169,12.169,0,0,1,.36-1.279c-.5.615-1.032,1.359-1.5,2.015-.072.256-.16.519-.24.783l-.959-.239c.3-1.056.687-2.247,1.039-3.87l1.023.223a10.149,10.149,0,0,1-.472,1.68,18.664,18.664,0,0,1,1.736-2.159Z"/><path class="cls-1" d="M244.65,20.3a14.566,14.566,0,0,0-.96,2.743l-.911-.2a9.156,9.156,0,0,1,.384-1.382,12.467,12.467,0,0,1-1.56,1.462c-.183-.112-.375-.2-.7-.368a3.9,3.9,0,0,1-.064-.806,3.577,3.577,0,0,1,3.215-3.383l.223.935a2.714,2.714,0,0,0-2.463,2.687c.625-.567,1.536-1.487,2.1-2.079Z"/><path class="cls-1" d="M248.891,18.937a12.125,12.125,0,0,0-.832,2.511l-.919-.168A12.1,12.1,0,0,1,247.5,20c-.5.616-1.031,1.36-1.5,2.015-.072.256-.16.52-.24.783l-.959-.239c.3-1.056.687-2.247,1.039-3.87l1.023.224a10.23,10.23,0,0,1-.471,1.679,18.655,18.655,0,0,1,1.735-2.159Z"/><path class="cls-1" d="M252.786,19.792a3.357,3.357,0,0,1-2.558,3.5l-.265-.9c1.464-.391,1.783-1.495,1.807-2.759-.711.744-1.815,2.015-2.31,2.575l-.736-.384c.36-.839,1.327-4.037,1.719-5.405l1.015.352c-.335,1.031-.831,2.639-1.3,3.742a11.6,11.6,0,0,1,1.791-1.943c.184.112.456.256.791.431A5.428,5.428,0,0,1,252.786,19.792Z"/><path class="cls-1" d="M255.275,18.889A32.172,32.172,0,0,0,254,22.806l-.952-.207a25.587,25.587,0,0,1,1.191-3.982Zm.232-.7-.959-.279a11.147,11.147,0,0,1,.783-1.879l.96.3A18.26,18.26,0,0,0,255.507,18.193Z"/><path class="cls-1" d="M258.467,19.384c-.313.025-.624.04-.936.04a32.1,32.1,0,0,0-1.048,3.374l-.927-.2c.16-.672.416-1.807.864-3.2-.328-.025-.609-.048-.784-.072l.12-.617c.256.017.559.033.88.04.191-.551.415-1.134.663-1.742l1.08.327c-.217.481-.408.953-.592,1.424.256-.016.52-.032.839-.064Z"/><path class="cls-1" d="M262.1,18.937a12.125,12.125,0,0,0-.832,2.511l-.919-.168a12.1,12.1,0,0,1,.359-1.28c-.5.616-1.031,1.36-1.5,2.015-.072.256-.16.52-.24.783L258,22.559c.3-1.056.687-2.247,1.039-3.87l1.023.224a10.132,10.132,0,0,1-.471,1.679,18.655,18.655,0,0,1,1.735-2.159Z"/><path class="cls-1" d="M265.794,20.3a14.566,14.566,0,0,0-.96,2.743l-.911-.2a9.038,9.038,0,0,1,.384-1.382,12.537,12.537,0,0,1-1.56,1.462c-.184-.112-.375-.2-.7-.368a3.827,3.827,0,0,1-.065-.806,3.577,3.577,0,0,1,3.215-3.383l.224.935a2.712,2.712,0,0,0-2.463,2.687c.624-.567,1.535-1.487,2.1-2.079Z"/><path class="cls-1" d="M270.034,18.937a12.18,12.18,0,0,0-.831,2.511l-.92-.168a12.116,12.116,0,0,1,.36-1.28c-.5.616-1.032,1.36-1.5,2.015-.073.256-.161.52-.24.783l-.96-.239c.3-1.056.688-2.247,1.039-3.87l1.024.224a10.237,10.237,0,0,1-.472,1.679,18.559,18.559,0,0,1,1.736-2.159Z"/><path class="cls-1" d="M274.554,19.017a51.551,51.551,0,0,0-2.135,5.717l-.936-.273c.241-.863.76-2.19,1.256-3.461a14.564,14.564,0,0,1-2.071,2.023l-.9-.368c.44-1.472.872-2.807,1.144-4.062l1.031.2c-.208.888-.5,1.9-.863,2.991a13.24,13.24,0,0,0,2.526-3.118Z"/><path class="cls-1" d="M246.287,28.489a32.116,32.116,0,0,0-1.279,3.917l-.952-.207a25.6,25.6,0,0,1,1.191-3.983Zm.232-.7-.959-.279a11.221,11.221,0,0,1,.783-1.879l.96.3A18.468,18.468,0,0,0,246.519,27.792Z"/><path class="cls-1" d="M249.478,28.984c-.312.024-.624.04-.935.04A32.032,32.032,0,0,0,247.5,32.4l-.928-.2c.161-.672.416-1.808.865-3.2-.329-.024-.609-.047-.785-.072l.121-.616c.255.017.559.032.879.04.192-.552.415-1.135.664-1.742l1.08.327c-.217.48-.409.952-.592,1.424.256-.017.519-.032.839-.065Z"/><path class="cls-1" d="M250.2,30.975a3.427,3.427,0,0,0-.016.8,3.982,3.982,0,0,0,1.775-.536l-.088.7a2.714,2.714,0,0,1-1.543.561c-.784,0-1.224-.456-1.168-1.376a3.217,3.217,0,0,1,2.287-2.991l1.32.392a2.49,2.49,0,0,1,.112.712c0,.855-.649,1.535-1.823,1.535a5.586,5.586,0,0,1-.808-.072A2.056,2.056,0,0,0,250.2,30.975Zm.248-.832a2.151,2.151,0,0,0,.407.04,1.006,1.006,0,0,0,1.056-1.015,1.443,1.443,0,0,0-.064-.4A2.99,2.99,0,0,0,250.447,30.143Z"/><path class="cls-1" d="M256.926,28.537a12.137,12.137,0,0,0-.832,2.51l-.919-.168a12.4,12.4,0,0,1,.359-1.279c-.5.615-1.031,1.359-1.5,2.015-.072.256-.16.519-.24.783l-.959-.239c.3-1.056.687-2.247,1.039-3.87l1.023.223a10.142,10.142,0,0,1-.471,1.68,18.655,18.655,0,0,1,1.735-2.159Z"/><path class="cls-1" d="M260.622,29.9a14.626,14.626,0,0,0-.96,2.742l-.911-.2a9.075,9.075,0,0,1,.384-1.383,12.478,12.478,0,0,1-1.56,1.463c-.183-.112-.375-.2-.7-.368a3.837,3.837,0,0,1-.064-.807,3.578,3.578,0,0,1,3.214-3.383l.224.936a2.712,2.712,0,0,0-2.463,2.687c.624-.568,1.535-1.488,2.1-2.08Z"/><path class="cls-1" d="M264.886,29.392a3.358,3.358,0,0,1-2.559,3.5l-.265-.9c1.464-.392,1.784-1.5,1.808-2.759-.712.744-1.815,2.015-2.31,2.574l-.737-.384c.361-.838,1.327-4.037,1.72-5.4l1.015.352c-.335,1.031-.831,2.638-1.3,3.742a11.615,11.615,0,0,1,1.791-1.944c.183.113.456.256.791.432A5.428,5.428,0,0,1,264.886,29.392Z"/><path class="cls-1" d="M268.174,26.482a39.217,39.217,0,0,0-2.095,5.916l-.935-.2a37.72,37.72,0,0,1,1.959-6.125Z"/><path class="cls-1" d="M268.415,30.975a3.505,3.505,0,0,0-.017.8,3.982,3.982,0,0,0,1.776-.536l-.088.7a2.714,2.714,0,0,1-1.543.561c-.784,0-1.224-.456-1.168-1.376a3.217,3.217,0,0,1,2.287-2.991l1.319.392a2.458,2.458,0,0,1,.113.712c0,.855-.649,1.535-1.824,1.535a5.586,5.586,0,0,1-.807-.072A1.912,1.912,0,0,0,268.415,30.975Zm.248-.832a2.158,2.158,0,0,0,.407.04,1.007,1.007,0,0,0,1.056-1.015,1.409,1.409,0,0,0-.065-.4A2.987,2.987,0,0,0,268.663,30.143Z"/></g></svg>