<svg id="Livello_1" data-name="Livello 1" xmlns="http://www.w3.org/2000/svg" viewBox="0 0 952 361.488"><defs><style>.cls-1{fill:#ffeded;}.cls-2{fill:#f36;}.cls-3{fill:#1858a8;}</style></defs><title>10</title><path class="cls-1" d="M359.125,342.639a4.219,4.219,0,0,0-.206.948,1.565,1.565,0,0,1-.126.539,1.707,1.707,0,0,0-.147.64.692.692,0,0,1-.171.476,3.189,3.189,0,0,0-.694,1.345.855.855,0,0,1-.2.359,3.323,3.323,0,0,0-.341.566c-.082.153-.149.314-.226.47a.328.328,0,0,1-.082.112,2.074,2.074,0,0,0-.5.621,1.263,1.263,0,0,1-.134.16,2.312,2.312,0,0,1-.277.313c-.3.239-.523.556-.81.808a.935.935,0,0,0-.107.089,2.9,2.9,0,0,1-1.3.839,7.411,7.411,0,0,0-1.217.419.177.177,0,0,1-.1.033,1.579,1.579,0,0,0-.92.249c-.2.086-.386.215-.59.3a2.142,2.142,0,0,0-.507.3c-.222.17-.45.331-.682.486a1.106,1.106,0,0,1-.313.147,1.518,1.518,0,0,0-.739.556.932.932,0,0,1-.409.307,2.846,2.846,0,0,0-.534.256.649.649,0,0,1-.6.107.165.165,0,0,0-.1,0c-.3.091-.621.1-.914.217a.772.772,0,0,1-.2.047c-.138.019-.277.033-.415.046a.262.262,0,0,1-.137,0c-.2-.112-.434-.053-.646-.106-.124-.032-.251-.049-.375-.079a.2.2,0,0,1-.118-.063c-.224-.375-.6-.4-.971-.422-.082-.006-.164,0-.245-.009a6.768,6.768,0,0,1-.833-.077,1.763,1.763,0,0,1-.7-.28,1.092,1.092,0,0,0-1.058-.161c-.1.035-.2.073-.3.112a.546.546,0,0,1-.5-.037,2.517,2.517,0,0,0-.844-.321.259.259,0,0,1-.2-.118c-.146-.258-.429-.3-.664-.418a.837.837,0,0,0-.324-.007.336.336,0,0,0-.22-.268.282.282,0,0,1-.166-.214.665.665,0,0,0-.183-.292,3.3,3.3,0,0,0-.62-.657c-.169-.3-.517-.433-.7-.728a.273.273,0,0,0-.173-.1.3.3,0,0,1-.262-.289.964.964,0,0,0-.321-.6,2.923,2.923,0,0,1-.206-.277,2.575,2.575,0,0,0-.364-.367.084.084,0,0,0-.032-.014c-.162-.045-.2-.222-.325-.305a2.159,2.159,0,0,1-.357-.213,1.111,1.111,0,0,1-.25-.565,5.3,5.3,0,0,0-.165-.677,1.979,1.979,0,0,1-.14-.391c-.007-.045-.037-.1-.024-.135a.825.825,0,0,0-.055-.543.29.29,0,0,1,0-.17.569.569,0,0,0-.144-.579,8.989,8.989,0,0,1-.627-.96.59.59,0,0,1-.072-.258,3.275,3.275,0,0,0-.123-.789,1.61,1.61,0,0,1-.048-.447.72.72,0,0,0-.082-.4.316.316,0,0,1-.045-.166c0-.382-.056-.76-.1-1.139a1.8,1.8,0,0,1,.007-.207c0-.07.025-.157-.007-.207a.825.825,0,0,1-.051-.6.765.765,0,0,0-.037-.275.722.722,0,0,1,0-.412c.072-.257.129-.519.2-.776a.6.6,0,0,0-.009-.377,2.984,2.984,0,0,1-.072-1.04.422.422,0,0,1,.044-.165c.1-.212.2-.421.3-.631s.182-.4.417-.483a.254.254,0,0,0,.151-.181,2.2,2.2,0,0,0,.133-.576,1.128,1.128,0,0,1,.319-.749,2.333,2.333,0,0,0,.51-.775.857.857,0,0,1,.371-.448,1.392,1.392,0,0,0,.394-.386,4.193,4.193,0,0,1,.4-.6c.089-.086.1-.253.159-.426a.782.782,0,0,0,.337-.684l-.094-.08a1.54,1.54,0,0,0,.522-.677,1.341,1.341,0,0,1,.254-.409c.172-.191.3-.411.46-.609.029-.036.044-.087.08-.113.1-.073.218-.129.318-.206a2.112,2.112,0,0,1,.283-.249.577.577,0,0,0,.3-.289c.114,0,.218,0,.321,0a.726.726,0,0,0,.461-.116.74.74,0,0,1,.61-.073.968.968,0,0,0,.515,0,1.311,1.311,0,0,1,.244-.016.365.365,0,0,0,.169-.032,1.4,1.4,0,0,1,.519-.191.291.291,0,0,0,.145-.087.481.481,0,0,1,.4-.183,1.187,1.187,0,0,0,.336-.076,2.24,2.24,0,0,1,.645-.14,3.463,3.463,0,0,0,.61-.132c.079-.019.155-.049.233-.071.347-.1.695-.19,1.04-.292a.713.713,0,0,1,.377-.036.519.519,0,0,0,.2,0,1,1,0,0,1,.71.1c.1.056.234.042.329.1a.941.941,0,0,0,.671.07,5.3,5.3,0,0,0,.623-.069.621.621,0,0,1,.311.014.82.82,0,0,0,.73-.115.169.169,0,0,1,.286.121.573.573,0,0,0,.387.487,2.575,2.575,0,0,1,.532.391.9.9,0,0,0,.542.207.638.638,0,0,1,.362.109.6.6,0,0,0,.4.108h.245a.557.557,0,0,1,.174.008,3.672,3.672,0,0,0,.445.19c.145.036.305.016.431.116a.94.94,0,0,0,.491.165,1.186,1.186,0,0,1,.679.308.955.955,0,0,0,.55.275,1.156,1.156,0,0,1,.816.421.313.313,0,0,0,.273.125c.287-.013.461.194.663.341.039.028.045.1.056.131.246.149.473.284.7.424a.424.424,0,0,1,.122.124.649.649,0,0,0,.382.337.085.085,0,0,1,.053.043c.091.229.3.266.508.305a1.333,1.333,0,0,1,.325.685.313.313,0,0,0,.063.159.294.294,0,0,1,.032.265.608.608,0,0,0,.055.472.634.634,0,0,1,.05.305,1,1,0,0,0,.926.962l.245.02a.818.818,0,0,1,.162.528,1.33,1.33,0,0,0,.153.672,1.8,1.8,0,0,1,.126.434,3.262,3.262,0,0,1,.053.343.373.373,0,0,1,0,.172,2.183,2.183,0,0,0-.051.659.657.657,0,0,0,.142.455Z"/><path class="cls-2" d="M212.238,16.043v9.223h-1.8V16.787c0-1.827-.181-2.571-1.376-2.571a3.049,3.049,0,0,0-1.962.924c.022.271.045.564.045.9v9.223h-1.8V16.787c0-1.827-.181-2.571-1.376-2.571a2.978,2.978,0,0,0-1.917.879V25.266h-1.8v-12.4h1.488l.023,1.083a3.553,3.553,0,0,1,2.661-1.331,2.327,2.327,0,0,1,2.323,1.241,4.046,4.046,0,0,1,2.774-1.241C211.336,12.614,212.238,13.63,212.238,16.043Z"/><path class="cls-2" d="M221.914,27.521h3.564v1.8h-9.157v-1.8h3.564v-2.5l-4.8-12.156h2.188l2.593,6.743.88,2.8h.45l.9-2.8,2.548-6.743h2.075l-4.8,12.156Z"/><path class="cls-2" d="M240.815,23.394v1.872h-9.788V9.93H233.1V23.394Z"/><path class="cls-2" d="M244.583,19.2c0-4.127,2.368-6.586,5.705-6.586,3.519,0,5.571,2.413,5.571,6.428s-2.368,6.472-5.706,6.472C246.635,25.514,244.583,23.1,244.583,19.2Zm9.224-.045c0-2.955-1.1-4.714-3.564-4.714-2.48,0-3.608,1.8-3.608,4.646s1.105,4.6,3.563,4.6C252.679,23.687,253.807,21.884,253.807,19.155Z"/><path class="cls-2" d="M271.6,12.862l-2.165,12.4h-2.729l-1.466-8.322L265,14.667h-.2l-.248,2.277-1.466,8.322h-2.752l-2.165-12.4h1.917l1.331,8.1.27,2.5h.271l.248-2.482,1.331-8.119h2.841l1.331,8.119.248,2.482h.248L268.468,21l1.33-8.142Z"/><path class="cls-2" d="M276.227,19.087c0,3.157,1.331,4.578,3.947,4.578a8.12,8.12,0,0,0,4.1-1.06l.542,1.692a9.2,9.2,0,0,1-4.691,1.2c-3.676,0-5.954-2.075-5.954-6.292s2.594-6.564,5.841-6.564c3.7,0,5.345,2.3,4.849,6.316h-8.638Zm.158-1.759h6.54c-.045-2.075-1.014-2.932-3.044-2.932A3.307,3.307,0,0,0,276.385,17.328Z"/><path class="cls-2" d="M299.8,23.463v1.8H289.061v-1.8h3.225v-10.6h1.8l-.045,2.391,5.5-2.684.023,2.008-5.255,2.548v6.338Z"/><path class="cls-2" d="M303.5,19.2c0-4.488,2.729-6.564,6.18-6.564a9.566,9.566,0,0,1,4.51,1.016l-.586,1.826a8.134,8.134,0,0,0-4.105-1.014c-2.39,0-3.924,1.421-3.924,4.623,0,3.157,1.218,4.578,3.924,4.578a7.725,7.725,0,0,0,4.105-1.15l.541,1.782a9.2,9.2,0,0,1-4.691,1.2C305.661,25.492,303.5,23.417,303.5,19.2Z"/><path class="cls-2" d="M328.26,17.125l-.112,8.141h-1.692V23.778a5.847,5.847,0,0,1-4.352,1.736c-2.481-.022-3.879-1.331-3.879-3.4,0-2.391,2.458-3.45,7.961-3.879l.022-.88c.023-1.578-.158-2.909-2.616-2.909a9.753,9.753,0,0,0-4.33,1.06l-.541-1.692a10.9,10.9,0,0,1,5.029-1.195C327.832,12.614,328.283,14.689,328.26,17.125ZM326.118,22.4l.045-2.525c-4.15.338-5.909.924-5.909,2.187,0,1.037.722,1.647,2.12,1.669A5.545,5.545,0,0,0,326.118,22.4Z"/><path class="cls-2" d="M332.885,24.545l.609-1.9a9.537,9.537,0,0,0,4.533,1.037c2.3,0,3.406-.541,3.406-1.691,0-2.5-8.322-1.669-8.322-5.774,0-2.322,2.052-3.586,5.3-3.586a11.54,11.54,0,0,1,4.488.88l-.587,1.85a8.784,8.784,0,0,0-3.9-.925c-2.143,0-3.248.564-3.248,1.556,0,2.413,8.322,1.579,8.322,5.773,0,2.572-2.278,3.722-5.548,3.722A11.75,11.75,0,0,1,332.885,24.545Z"/><path class="cls-2" d="M349.531,19.087c0,3.157,1.33,4.578,3.947,4.578a8.123,8.123,0,0,0,4.1-1.06l.542,1.692a9.2,9.2,0,0,1-4.691,1.2c-3.677,0-5.954-2.075-5.954-6.292s2.593-6.564,5.841-6.564c3.7,0,5.345,2.3,4.849,6.316h-8.638Zm.158-1.759h6.54c-.045-2.075-1.015-2.932-3.044-2.932A3.307,3.307,0,0,0,349.689,17.328Z"/><path class="cls-3" d="M200.949,95.325v16.147h4.556v1.849h-6.63V93.475h6.63v1.85Z"/><path class="cls-3" d="M214.279,95.73h2.842l-.2,7.668h-2.435Z"/><path class="cls-3" d="M235.1,102.925l-.113,8.141h-1.691v-1.488a5.851,5.851,0,0,1-4.353,1.736c-2.481-.022-3.879-1.33-3.879-3.4,0-2.391,2.458-3.45,7.961-3.879l.023-.88c.022-1.578-.158-2.909-2.616-2.909a9.747,9.747,0,0,0-4.33,1.06l-.542-1.692a10.894,10.894,0,0,1,5.03-1.195C234.669,98.414,235.119,100.489,235.1,102.925Zm-2.143,5.277.046-2.525c-4.15.337-5.909.923-5.909,2.187,0,1.037.722,1.646,2.12,1.669A5.546,5.546,0,0,0,232.954,108.2Z"/><path class="cls-3" d="M243.6,95.73h2.841l-.2,7.668H243.8Z"/><path class="cls-3" d="M262.1,110.367c0,1.984-1.218,4.308-4.6,4.308v-1.692c1.511,0,2.436-.586,2.729-2.007a1.361,1.361,0,0,1-.812.293,2.031,2.031,0,0,1,.09-4.059C260.7,107.21,262.1,108.2,262.1,110.367Z"/><path class="cls-3" d="M272.922,95.73h2.842l-.2,7.668h-2.435Z"/><path class="cls-3" d="M294.642,104.39c0,4.962-2.458,6.9-6.157,6.9a13.866,13.866,0,0,1-4.442-.655V92.573h2.029v5.413l-.18,1.917a6.076,6.076,0,0,1,4.037-1.489C293,98.437,294.642,100.579,294.642,104.39Zm-2.052.226c0-2.819-.992-4.353-2.909-4.375a6.05,6.05,0,0,0-3.609,1.173v7.735a9.433,9.433,0,0,0,2.571.316C291.372,109.465,292.59,107.842,292.59,104.616Z"/><path class="cls-3" d="M302.244,95.73h2.842l-.2,7.668h-2.435Z"/><path class="cls-3" d="M320.738,110.367c0,1.984-1.217,4.308-4.6,4.308v-1.692c1.511,0,2.435-.586,2.728-2.007a1.358,1.358,0,0,1-.811.293,2.031,2.031,0,0,1,.09-4.059C319.34,107.21,320.738,108.2,320.738,110.367Z"/><path class="cls-3" d="M331.565,95.73h2.842l-.2,7.668h-2.436Z"/><path class="cls-3" d="M342.279,105c0-4.489,2.729-6.563,6.18-6.563a9.563,9.563,0,0,1,4.51,1.015l-.586,1.826a8.131,8.131,0,0,0-4.1-1.015c-2.39,0-3.923,1.421-3.923,4.623,0,3.158,1.217,4.579,3.923,4.579a7.723,7.723,0,0,0,4.1-1.15l.541,1.781a9.186,9.186,0,0,1-4.691,1.2C344.444,111.292,342.279,109.217,342.279,105Z"/><path class="cls-3" d="M360.887,95.73h2.842l-.2,7.668H361.09Z"/><path class="cls-3" d="M379.381,110.367c0,1.984-1.217,4.308-4.6,4.308v-1.692c1.511,0,2.435-.586,2.728-2.007a1.358,1.358,0,0,1-.811.293,2.031,2.031,0,0,1,.09-4.059C377.983,107.21,379.381,108.2,379.381,110.367Z"/><path class="cls-3" d="M389.6,109.239a2.03,2.03,0,1,1,2.03,2.03A2.022,2.022,0,0,1,389.6,109.239Z"/><path class="cls-3" d="M404.26,109.239a2.03,2.03,0,1,1,2.03,2.03A2.021,2.021,0,0,1,404.26,109.239Z"/><path class="cls-3" d="M418.92,109.239a2.03,2.03,0,1,1,2.03,2.03A2.022,2.022,0,0,1,418.92,109.239Z"/><path class="cls-3" d="M438.024,110.367c0,1.984-1.218,4.308-4.6,4.308v-1.692c1.511,0,2.436-.586,2.729-2.007a1.358,1.358,0,0,1-.812.293,2.031,2.031,0,0,1,.09-4.059C436.626,107.21,438.024,108.2,438.024,110.367Z"/><path class="cls-3" d="M463.512,95.73h2.842l-.2,7.668h-2.435Z"/><path class="cls-3" d="M479.684,105.7h-.248l-3.316,5.367h-2.232l4.24-6.5-4.173-5.909h2.233l3.315,4.849h.293l3.315-4.849h2.121l-4.173,5.864,4.24,6.54h-2.233Z"/><path class="cls-3" d="M492.833,95.73h2.842l-.2,7.668h-2.436Z"/><path class="cls-3" d="M511.328,110.367c0,1.984-1.218,4.308-4.6,4.308v-1.692c1.511,0,2.436-.586,2.729-2.007a1.358,1.358,0,0,1-.812.293,2.031,2.031,0,0,1,.09-4.059C509.929,107.21,511.328,108.2,511.328,110.367Z"/><path class="cls-3" d="M522.154,95.73H525l-.2,7.668h-2.435Z"/><path class="cls-3" d="M539.251,113.321h3.563v1.805h-9.156v-1.805h3.563v-2.5l-4.8-12.156h2.187l2.593,6.743.88,2.8h.451l.9-2.8,2.549-6.743h2.074l-4.8,12.156Z"/><path class="cls-3" d="M551.476,95.73h2.842l-.2,7.668h-2.436Z"/><path class="cls-3" d="M569.971,110.367c0,1.984-1.218,4.308-4.6,4.308v-1.692c1.511,0,2.436-.586,2.729-2.007a1.361,1.361,0,0,1-.812.293,2.031,2.031,0,0,1,.09-4.059C568.572,107.21,569.971,108.2,569.971,110.367Z"/><path class="cls-3" d="M580.8,95.73h2.842l-.2,7.668H581Z"/><path class="cls-3" d="M602.269,109.261v1.805H591.624v-2.255l8.142-8.344H591.85v-1.8h10.194v2.256l-8.142,8.343Z"/><path class="cls-3" d="M610.119,95.73h2.842l-.2,7.668h-2.435Z"/><path class="cls-3" d="M628.365,113.321h-6.63v-1.849h4.556V95.325h-4.556v-1.85h6.63Z"/><path class="cls-2" d="M235.322,137.063c0,5.683-2.142,8.029-5.751,8.029-3.788,0-5.615-2.639-5.615-7.758,0-5.346,2.143-8.03,5.751-8.03C233.5,129.3,235.322,131.943,235.322,137.063Zm-9.246.157c0,.677.023,1.309.068,1.873l6.608-5.729a2.934,2.934,0,0,0-3.09-2.21C226.91,131.154,226.076,133.274,226.076,137.22Zm7.127-.044c0-.677-.023-1.308-.068-1.873l-6.608,5.729a2.932,2.932,0,0,0,3.09,2.21C232.368,143.242,233.2,141.573,233.2,137.176Z"/><path class="cls-2" d="M294.213,143.016v1.85H283.479v-1.85h4.781v-9.7l-4.781,1.827v-2.008l4.781-1.826V129.53h2.075v13.486Z"/><path class="cls-2" d="M352.766,143.016v1.85h-11.1v-2.075c3.947-2.413,8.547-4.871,8.547-8.795,0-1.736-.766-2.842-3.337-2.842-2.8,0-3.541,1.24-3.541,3.36a3.838,3.838,0,0,0,.181,1.376l-2.143-.158a10.518,10.518,0,0,1-.09-1.443c0-3,1.962-4.985,5.705-4.985,4.4,0,5.345,2.436,5.345,4.466,0,4.33-4.059,6.766-6.54,8.435l-1.218.541v.27Z"/><path class="cls-2" d="M474.681,143.016v1.85h-11.1v-2.075c3.946-2.413,8.547-4.871,8.547-8.795,0-1.736-.767-2.842-3.337-2.842-2.8,0-3.542,1.24-3.542,3.36a3.838,3.838,0,0,0,.181,1.376l-2.142-.158a10.326,10.326,0,0,1-.091-1.443c0-3,1.962-4.985,5.706-4.985,4.4,0,5.345,2.436,5.345,4.466,0,4.33-4.06,6.766-6.54,8.435l-1.218.541v.27Z"/><path class="cls-2" d="M488.981,140.446c0,2.57-1.828,4.646-6.406,4.646a12.107,12.107,0,0,1-5.187-1.015l.587-1.76a11.194,11.194,0,0,0,4.781.947c3.067,0,4.149-.969,4.149-2.706,0-1.465-.992-2.5-3.923-2.5h-4.173v-1.827h5.413c1.623-.654,2.187-1.51,2.187-2.706,0-1.736-1.173-2.39-3.54-2.39a10.434,10.434,0,0,0-4.669,1.059l-.541-1.691a11.878,11.878,0,0,1,5.367-1.2c3.338,0,5.458,1.287,5.458,4.1a3.841,3.841,0,0,1-2.232,3.451C488.146,137.559,488.981,138.6,488.981,140.446Z"/><path class="cls-2" d="M533.323,143.016v1.85h-11.1v-2.075c3.946-2.413,8.547-4.871,8.547-8.795,0-1.736-.767-2.842-3.337-2.842-2.8,0-3.541,1.24-3.541,3.36a3.844,3.844,0,0,0,.18,1.376l-2.142-.158a10.326,10.326,0,0,1-.091-1.443c0-3,1.962-4.985,5.706-4.985,4.4,0,5.345,2.436,5.345,4.466,0,4.33-4.059,6.766-6.54,8.435l-1.218.541v.27Z"/><path class="cls-2" d="M548.322,141.709h-2.21v3.157h-2.074v-3.157h-7.713v-2.075l5.57-10.1h2.143l-4.737,8.593-1.06,1.443v.293h5.8V129.53h2.074v10.329h2.21Z"/><path class="cls-2" d="M591.966,143.016v1.85h-11.1v-2.075c3.947-2.413,8.548-4.871,8.548-8.795,0-1.736-.767-2.842-3.338-2.842-2.8,0-3.541,1.24-3.541,3.36a3.838,3.838,0,0,0,.181,1.376l-2.143-.158a10.518,10.518,0,0,1-.09-1.443c0-3,1.962-4.985,5.705-4.985,4.4,0,5.346,2.436,5.346,4.466,0,4.33-4.06,6.766-6.54,8.435l-1.219.541v.27Z"/><path class="cls-2" d="M606.334,140.085c0,2.706-1.827,5.007-6.18,5.007a10.858,10.858,0,0,1-4.962-1.015l.587-1.76a9.37,9.37,0,0,0,4.556.947c2.841,0,3.924-1.2,3.924-3.044,0-1.759-1.308-2.526-4.037-3.022l-3.992-.722.09-6.946h9.517v1.85H598.35l-.068,3.586,2.661.473C604.574,136.048,606.334,137.243,606.334,140.085Z"/><path class="cls-2" d="M212.238,211.043v9.223h-1.8v-8.479c0-1.827-.181-2.571-1.376-2.571a3.049,3.049,0,0,0-1.962.924c.022.271.045.564.045.9v9.223h-1.8v-8.479c0-1.827-.181-2.571-1.376-2.571a2.978,2.978,0,0,0-1.917.879v10.171h-1.8v-12.4h1.488l.023,1.083a3.553,3.553,0,0,1,2.661-1.331,2.327,2.327,0,0,1,2.323,1.241,4.046,4.046,0,0,1,2.774-1.241C211.336,207.614,212.238,208.63,212.238,211.043Z"/><path class="cls-2" d="M221.914,222.521h3.564v1.805h-9.157v-1.805h3.564v-2.5l-4.8-12.156h2.188l2.593,6.743.88,2.8h.45l.9-2.8,2.548-6.743h2.075l-4.8,12.156Z"/><path class="cls-2" d="M240.815,218.394v1.872h-9.788V204.93H233.1v13.464Z"/><path class="cls-2" d="M244.583,214.2c0-4.127,2.368-6.586,5.705-6.586,3.519,0,5.571,2.413,5.571,6.428s-2.368,6.472-5.706,6.472C246.635,220.514,244.583,218.1,244.583,214.2Zm9.224-.045c0-2.955-1.1-4.714-3.564-4.714-2.48,0-3.608,1.805-3.608,4.646s1.105,4.6,3.563,4.6C252.679,218.687,253.807,216.884,253.807,214.155Z"/><path class="cls-2" d="M271.6,207.862l-2.165,12.4h-2.729l-1.466-8.322L265,209.667h-.2l-.248,2.277-1.466,8.322h-2.752l-2.165-12.4h1.917l1.331,8.1.27,2.5h.271l.248-2.482,1.331-8.119h2.841l1.331,8.119.248,2.482h.248l.271-2.459,1.33-8.142Z"/><path class="cls-2" d="M276.227,214.087c0,3.157,1.331,4.578,3.947,4.578a8.12,8.12,0,0,0,4.1-1.06l.542,1.692a9.2,9.2,0,0,1-4.691,1.195c-3.676,0-5.954-2.075-5.954-6.292s2.594-6.564,5.841-6.564c3.7,0,5.345,2.3,4.849,6.316h-8.638Zm.158-1.759h6.54c-.045-2.075-1.014-2.932-3.044-2.932A3.307,3.307,0,0,0,276.385,212.328Z"/><path class="cls-2" d="M299.8,218.463v1.8H289.061v-1.8h3.225v-10.6h1.8l-.045,2.391,5.5-2.684.023,2.008-5.255,2.548v6.338Z"/><path class="cls-2" d="M303.5,214.2c0-4.488,2.729-6.564,6.18-6.564a9.566,9.566,0,0,1,4.51,1.016l-.586,1.826a8.134,8.134,0,0,0-4.105-1.014c-2.39,0-3.924,1.421-3.924,4.623,0,3.157,1.218,4.578,3.924,4.578a7.725,7.725,0,0,0,4.105-1.15l.541,1.782a9.2,9.2,0,0,1-4.691,1.195C305.661,220.492,303.5,218.417,303.5,214.2Z"/><path class="cls-2" d="M328.26,212.125l-.112,8.141h-1.692v-1.488a5.847,5.847,0,0,1-4.352,1.736c-2.481-.022-3.879-1.331-3.879-3.405,0-2.391,2.458-3.45,7.961-3.879l.022-.88c.023-1.578-.158-2.909-2.616-2.909a9.753,9.753,0,0,0-4.33,1.06l-.541-1.692a10.9,10.9,0,0,1,5.029-1.195C327.832,207.614,328.283,209.689,328.26,212.125Zm-2.142,5.277.045-2.525c-4.15.338-5.909.924-5.909,2.187,0,1.037.722,1.647,2.12,1.669A5.545,5.545,0,0,0,326.118,217.4Z"/><path class="cls-2" d="M332.885,219.545l.609-1.895a9.537,9.537,0,0,0,4.533,1.037c2.3,0,3.406-.541,3.406-1.691,0-2.5-8.322-1.669-8.322-5.774,0-2.322,2.052-3.586,5.3-3.586a11.54,11.54,0,0,1,4.488.88l-.587,1.85a8.784,8.784,0,0,0-3.9-.925c-2.143,0-3.248.564-3.248,1.556,0,2.413,8.322,1.579,8.322,5.773,0,2.572-2.278,3.722-5.548,3.722A11.75,11.75,0,0,1,332.885,219.545Z"/><path class="cls-2" d="M349.531,214.087c0,3.157,1.33,4.578,3.947,4.578a8.123,8.123,0,0,0,4.1-1.06l.542,1.692a9.2,9.2,0,0,1-4.691,1.195c-3.677,0-5.954-2.075-5.954-6.292s2.593-6.564,5.841-6.564c3.7,0,5.345,2.3,4.849,6.316h-8.638Zm.158-1.759h6.54c-.045-2.075-1.015-2.932-3.044-2.932A3.307,3.307,0,0,0,349.689,212.328Z"/><path class="cls-3" d="M365.477,218.439a2.03,2.03,0,1,1,2.03,2.03A2.021,2.021,0,0,1,365.477,218.439Z"/><path class="cls-3" d="M387.76,218.463v1.8H377.025v-1.8H381.6v-8.8h-4.579v-1.805h6.608v10.6Zm-7.4-14.66a2.03,2.03,0,1,1,2.03,2.03A2.022,2.022,0,0,1,380.363,203.8Z"/><path class="cls-3" d="M401.835,211.718v8.548h-2.03v-8.254c0-1.827-.744-2.571-2.255-2.571a6.22,6.22,0,0,0-3.609,1.173v9.652h-2.029v-12.4h1.714v1.376a6.139,6.139,0,0,1,4.172-1.624C400.662,207.614,401.835,209.08,401.835,211.718Z"/><path class="cls-3" d="M416.45,201.773v18.493h-1.759v-1.331a5.969,5.969,0,0,1-4.127,1.579c-3.067-.022-4.713-2.165-4.713-5.976,0-4.961,2.458-6.9,6.156-6.9a15.124,15.124,0,0,1,2.413.181v-6.044Zm-2.03,15.742v-7.736a9.426,9.426,0,0,0-2.57-.315c-2.729,0-3.947,1.624-3.947,4.848,0,2.82.992,4.353,2.909,4.375A6.043,6.043,0,0,0,414.42,217.515Z"/><path class="cls-3" d="M422.834,214.087c0,3.157,1.331,4.578,3.947,4.578a8.12,8.12,0,0,0,4.1-1.06l.542,1.692a9.2,9.2,0,0,1-4.691,1.195c-3.676,0-5.954-2.075-5.954-6.292s2.594-6.564,5.841-6.564c3.7,0,5.345,2.3,4.849,6.316h-8.638Zm.158-1.759h6.54c-.045-2.075-1.014-2.932-3.044-2.932A3.307,3.307,0,0,0,422.992,212.328Z"/><path class="cls-3" d="M440.9,214.9h-.248l-3.315,5.367h-2.232l4.239-6.5-4.172-5.909h2.233l3.315,4.85h.293l3.315-4.85h2.12l-4.172,5.864,4.24,6.54h-2.233Z"/><path class="cls-3" d="M452.449,212.6c0-8.254,2.617-9.922,6.7-9.922v1.849c-3.09,0-4.556,1.06-4.556,7.848,0,7.239,1.466,8.3,4.556,8.3v1.848C455.066,222.521,452.449,221.078,452.449,212.6Z"/><path class="cls-3" d="M468.711,204.93h2.842l-.2,7.668h-2.436Z"/><path class="cls-3" d="M479.425,214.2c0-4.488,2.729-6.564,6.18-6.564a9.569,9.569,0,0,1,4.51,1.016l-.587,1.826a8.127,8.127,0,0,0-4.1-1.014c-2.391,0-3.924,1.421-3.924,4.623,0,3.157,1.218,4.578,3.924,4.578a7.719,7.719,0,0,0,4.1-1.15l.542,1.782a9.2,9.2,0,0,1-4.691,1.195C481.59,220.492,479.425,218.417,479.425,214.2Z"/><path class="cls-3" d="M498.032,204.93h2.842l-.2,7.668h-2.436Z"/><path class="cls-3" d="M517.136,212.6c0,8.254-2.616,9.923-6.7,9.923v-1.848c3.089,0,4.555-1.061,4.555-7.849,0-7.239-1.466-8.3-4.555-8.3v-1.849C514.52,202.676,517.136,204.119,517.136,212.6Z"/><path class="cls-3" d="M200.949,290.325v16.147h4.556v1.849h-6.63V288.475h6.63v1.85Z"/><path class="cls-3" d="M214.279,290.73h2.842l-.2,7.668h-2.435Z"/><path class="cls-3" d="M235.1,297.925l-.113,8.141h-1.691v-1.488a5.851,5.851,0,0,1-4.353,1.736c-2.481-.022-3.879-1.33-3.879-3.405,0-2.391,2.458-3.45,7.961-3.879l.023-.88c.022-1.578-.158-2.909-2.616-2.909a9.747,9.747,0,0,0-4.33,1.06l-.542-1.692a10.894,10.894,0,0,1,5.03-1.195C234.669,293.414,235.119,295.489,235.1,297.925Zm-2.143,5.277.046-2.525c-4.15.337-5.909.923-5.909,2.187,0,1.037.722,1.646,2.12,1.669A5.546,5.546,0,0,0,232.954,303.2Z"/><path class="cls-3" d="M243.6,290.73h2.841l-.2,7.668H243.8Z"/><path class="cls-3" d="M262.1,305.367c0,1.984-1.218,4.308-4.6,4.308v-1.692c1.511,0,2.436-.586,2.729-2.007a1.361,1.361,0,0,1-.812.293,2.031,2.031,0,0,1,.09-4.059C260.7,302.21,262.1,303.2,262.1,305.367Z"/><path class="cls-3" d="M272.922,290.73h2.842l-.2,7.668h-2.435Z"/><path class="cls-3" d="M294.642,299.39c0,4.962-2.458,6.9-6.157,6.9a13.866,13.866,0,0,1-4.442-.655V287.573h2.029v5.413l-.18,1.917a6.076,6.076,0,0,1,4.037-1.489C293,293.437,294.642,295.579,294.642,299.39Zm-2.052.226c0-2.819-.992-4.353-2.909-4.375a6.05,6.05,0,0,0-3.609,1.173v7.735a9.433,9.433,0,0,0,2.571.316C291.372,304.465,292.59,302.842,292.59,299.616Z"/><path class="cls-3" d="M302.244,290.73h2.842l-.2,7.668h-2.435Z"/><path class="cls-3" d="M320.738,305.367c0,1.984-1.217,4.308-4.6,4.308v-1.692c1.511,0,2.435-.586,2.728-2.007a1.358,1.358,0,0,1-.811.293,2.031,2.031,0,0,1,.09-4.059C319.34,302.21,320.738,303.2,320.738,305.367Z"/><path class="cls-3" d="M331.565,290.73h2.842l-.2,7.668h-2.436Z"/><path class="cls-3" d="M342.279,300c0-4.489,2.729-6.563,6.18-6.563a9.563,9.563,0,0,1,4.51,1.015l-.586,1.826a8.131,8.131,0,0,0-4.1-1.015c-2.39,0-3.923,1.421-3.923,4.623,0,3.158,1.217,4.579,3.923,4.579a7.723,7.723,0,0,0,4.1-1.15l.541,1.781a9.186,9.186,0,0,1-4.691,1.2C344.444,306.292,342.279,304.217,342.279,300Z"/><path class="cls-3" d="M360.887,290.73h2.842l-.2,7.668H361.09Z"/><path class="cls-3" d="M379.381,305.367c0,1.984-1.217,4.308-4.6,4.308v-1.692c1.511,0,2.435-.586,2.728-2.007a1.358,1.358,0,0,1-.811.293,2.031,2.031,0,0,1,.09-4.059C377.983,302.21,379.381,303.2,379.381,305.367Z"/><path class="cls-3" d="M389.6,304.239a2.03,2.03,0,1,1,2.03,2.03A2.022,2.022,0,0,1,389.6,304.239Z"/><path class="cls-3" d="M404.26,304.239a2.03,2.03,0,1,1,2.03,2.03A2.021,2.021,0,0,1,404.26,304.239Z"/><path class="cls-3" d="M418.92,304.239a2.03,2.03,0,1,1,2.03,2.03A2.022,2.022,0,0,1,418.92,304.239Z"/><path class="cls-3" d="M438.024,305.367c0,1.984-1.218,4.308-4.6,4.308v-1.692c1.511,0,2.436-.586,2.729-2.007a1.358,1.358,0,0,1-.812.293,2.031,2.031,0,0,1,.09-4.059C436.626,302.21,438.024,303.2,438.024,305.367Z"/><path class="cls-3" d="M463.512,290.73h2.842l-.2,7.668h-2.435Z"/><path class="cls-3" d="M479.684,300.7h-.248l-3.316,5.367h-2.232l4.24-6.495-4.173-5.909h2.233l3.315,4.849h.293l3.315-4.849h2.121l-4.173,5.864,4.24,6.54h-2.233Z"/><path class="cls-3" d="M492.833,290.73h2.842l-.2,7.668h-2.436Z"/><path class="cls-3" d="M511.328,305.367c0,1.984-1.218,4.308-4.6,4.308v-1.692c1.511,0,2.436-.586,2.729-2.007a1.358,1.358,0,0,1-.812.293,2.031,2.031,0,0,1,.09-4.059C509.929,302.21,511.328,303.2,511.328,305.367Z"/><path class="cls-3" d="M522.154,290.73H525l-.2,7.668h-2.435Z"/><path class="cls-3" d="M539.251,308.321h3.563v1.8h-9.156v-1.8h3.563v-2.5l-4.8-12.156h2.187L537.2,300.4l.88,2.8h.451l.9-2.8,2.549-6.743h2.074l-4.8,12.156Z"/><path class="cls-3" d="M551.476,290.73h2.842l-.2,7.668h-2.436Z"/><path class="cls-3" d="M569.971,305.367c0,1.984-1.218,4.308-4.6,4.308v-1.692c1.511,0,2.436-.586,2.729-2.007a1.361,1.361,0,0,1-.812.293,2.031,2.031,0,0,1,.09-4.059C568.572,302.21,569.971,303.2,569.971,305.367Z"/><path class="cls-3" d="M580.8,290.73h2.842l-.2,7.668H581Z"/><path class="cls-3" d="M602.269,304.261v1.8H591.624v-2.255l8.142-8.344H591.85v-1.805h10.194v2.256l-8.142,8.343Z"/><path class="cls-3" d="M610.119,290.73h2.842l-.2,7.668h-2.435Z"/><path class="cls-3" d="M628.365,308.321h-6.63v-1.849h4.556V290.325h-4.556v-1.85h6.63Z"/><path class="cls-2" d="M235.322,339.863c0,5.683-2.142,8.028-5.751,8.028-3.788,0-5.615-2.638-5.615-7.757,0-5.346,2.143-8.03,5.751-8.03C233.5,332.1,235.322,334.743,235.322,339.863Zm-9.246.157c0,.677.023,1.309.068,1.872l6.608-5.728a2.934,2.934,0,0,0-3.09-2.21C226.91,333.954,226.076,336.074,226.076,340.02Zm7.127-.045c0-.676-.023-1.307-.068-1.872l-6.608,5.729a2.932,2.932,0,0,0,3.09,2.21C232.368,346.042,233.2,344.373,233.2,339.975Z"/><path class="cls-2" d="M294.213,345.816v1.85H283.479v-1.85h4.781v-9.7l-4.781,1.827v-2.008l4.781-1.826V332.33h2.075v13.486Z"/><path class="cls-2" d="M352.766,345.816v1.85h-11.1v-2.075c3.947-2.414,8.547-4.872,8.547-8.8,0-1.737-.766-2.842-3.337-2.842-2.8,0-3.541,1.24-3.541,3.36a3.842,3.842,0,0,0,.181,1.376l-2.143-.158a10.518,10.518,0,0,1-.09-1.443c0-3,1.962-4.985,5.705-4.985,4.4,0,5.345,2.436,5.345,4.466,0,4.33-4.059,6.766-6.54,8.435l-1.218.541v.27Z"/><path class="cls-2" d="M474.681,345.816v1.85h-11.1v-2.075c3.946-2.414,8.547-4.872,8.547-8.8,0-1.737-.767-2.842-3.337-2.842-2.8,0-3.542,1.24-3.542,3.36a3.842,3.842,0,0,0,.181,1.376l-2.142-.158a10.326,10.326,0,0,1-.091-1.443c0-3,1.962-4.985,5.706-4.985,4.4,0,5.345,2.436,5.345,4.466,0,4.33-4.06,6.766-6.54,8.435l-1.218.541v.27Z"/><path class="cls-2" d="M488.981,343.246c0,2.57-1.828,4.645-6.406,4.645a12.107,12.107,0,0,1-5.187-1.014l.587-1.76a11.209,11.209,0,0,0,4.781.947c3.067,0,4.149-.97,4.149-2.706,0-1.466-.992-2.5-3.923-2.5h-4.173v-1.827h5.413c1.623-.654,2.187-1.511,2.187-2.706,0-1.736-1.173-2.391-3.54-2.391a10.434,10.434,0,0,0-4.669,1.06l-.541-1.691a11.878,11.878,0,0,1,5.367-1.2c3.338,0,5.458,1.286,5.458,4.105a3.841,3.841,0,0,1-2.232,3.451C488.146,340.359,488.981,341.4,488.981,343.246Z"/><path class="cls-2" d="M533.323,345.816v1.85h-11.1v-2.075c3.946-2.414,8.547-4.872,8.547-8.8,0-1.737-.767-2.842-3.337-2.842-2.8,0-3.541,1.24-3.541,3.36a3.847,3.847,0,0,0,.18,1.376l-2.142-.158a10.326,10.326,0,0,1-.091-1.443c0-3,1.962-4.985,5.706-4.985,4.4,0,5.345,2.436,5.345,4.466,0,4.33-4.059,6.766-6.54,8.435l-1.218.541v.27Z"/><path class="cls-2" d="M548.322,344.509h-2.21v3.157h-2.074v-3.157h-7.713v-2.076l5.57-10.1h2.143l-4.737,8.593-1.06,1.443v.293h5.8V332.33h2.074v10.329h2.21Z"/><path class="cls-2" d="M591.966,345.816v1.85h-11.1v-2.075c3.947-2.414,8.548-4.872,8.548-8.8,0-1.737-.767-2.842-3.338-2.842-2.8,0-3.541,1.24-3.541,3.36a3.842,3.842,0,0,0,.181,1.376l-2.143-.158a10.518,10.518,0,0,1-.09-1.443c0-3,1.962-4.985,5.705-4.985,4.4,0,5.346,2.436,5.346,4.466,0,4.33-4.06,6.766-6.54,8.435l-1.219.541v.27Z"/><path class="cls-2" d="M606.334,342.885c0,2.706-1.827,5.006-6.18,5.006a10.871,10.871,0,0,1-4.962-1.014l.587-1.76a9.37,9.37,0,0,0,4.556.947c2.841,0,3.924-1.195,3.924-3.044,0-1.76-1.308-2.526-4.037-3.022l-3.992-.722.09-6.946h9.517v1.849H598.35l-.068,3.586,2.661.474C604.574,338.847,606.334,340.043,606.334,342.885Z"/><path class="cls-3" d="M479.05,226.924a7.915,7.915,0,0,0-.524,1.367,1.449,1.449,0,0,1-.22.476c-.6.8-1.221,1.584-1.821,2.385-.393.524-.767,1.065-1.14,1.6a.682.682,0,0,0-.148.364,2.854,2.854,0,0,1-.518,1.567,5.594,5.594,0,0,1-1.268.246,1.6,1.6,0,0,0-.612.282,3.517,3.517,0,0,1-2.328.5,1.138,1.138,0,0,0-.529.026,5.649,5.649,0,0,1-2.395.273.714.714,0,0,0-.6.214,1.074,1.074,0,0,1-.256.311c-.018-.016-.031-.03-.049-.048a11.414,11.414,0,0,0-3.371.719,2.327,2.327,0,0,1-1.042.191,5.281,5.281,0,0,0-3.183.982,2.458,2.458,0,0,1-.343.175,1.743,1.743,0,0,1-.375-.1,3.208,3.208,0,0,0-2.236.254,1.982,1.982,0,0,0-1.04,1.043,1.517,1.517,0,0,1-.89.064.672.672,0,0,0-.511.07,4.292,4.292,0,0,1-1.957.47,10.735,10.735,0,0,0-2.218.533,3.865,3.865,0,0,1-.4.109c-.26.064-.524.115-.783.172-.088.019-.19-.012-.267.025-1.764.858-3.779.8-5.515,1.757a1.343,1.343,0,0,1-.51.166c-1.024.083-2.051.138-3.076.221-.67.055-1.339.137-2.006.22a.626.626,0,0,0-.374.145,3.265,3.265,0,0,1-1.842.793c-.3.083-.577.274-.878.354a8.078,8.078,0,0,1-2.181.515,4.276,4.276,0,0,0-2.033.661c-.8.457-1.685.611-2.471,1.083-.291-.22-.543-.409-.793-.6a1.774,1.774,0,0,0-.2.16c-.18.2-.319.483-.536.593-.048.026-.1.037-.155.059-.1.01-.19.015-.284.023a2.792,2.792,0,0,0-.76.224c-.528.059-1.058.1-1.588.149.042.186.078.374.116.561-.967.376-1.944.718-2.922,1.056a9.558,9.558,0,0,1-.96.22,8.083,8.083,0,0,0-.616-.527,5.082,5.082,0,0,0-.607-.324,6.111,6.111,0,0,0-.564.45,7.323,7.323,0,0,1-3.389,1.607,5.375,5.375,0,0,0-1.032.3,8.669,8.669,0,0,1-4.6.811c-.314-.016-.632,0-.943-.043a2.39,2.39,0,0,0-1.662.434c-.419.271-.847.518-1.28.749a6.872,6.872,0,0,1-2.852.885,1.627,1.627,0,0,0-.611.282,3.528,3.528,0,0,1-2.327.5,1.119,1.119,0,0,0-.531.024,5.628,5.628,0,0,1-2.394.272.721.721,0,0,0-.6.215,1.072,1.072,0,0,1-.255.311c-.018-.016-.031-.03-.049-.048a11.388,11.388,0,0,0-3.37.719,2.334,2.334,0,0,1-1.043.191,5.277,5.277,0,0,0-3.183.983,2.566,2.566,0,0,1-.343.174,1.8,1.8,0,0,1-.375-.1,3.2,3.2,0,0,0-2.236.253,1.974,1.974,0,0,0-1.039,1.043,1.513,1.513,0,0,1-.891.064.675.675,0,0,0-.512.07,4.285,4.285,0,0,1-1.956.47,10.735,10.735,0,0,0-2.218.533,3.625,3.625,0,0,1-.4.109c-.26.064-.523.115-.784.172-.087.02-.19-.012-.267.026-1.764.857-3.778.8-5.515,1.756a1.285,1.285,0,0,1-.508.167c-1.025.081-2.053.137-3.077.219-.671.056-1.338.139-2.007.221a.626.626,0,0,0-.373.145,3.288,3.288,0,0,1-1.842.8c-.3.081-.577.274-.878.352a8.051,8.051,0,0,1-2.18.515,4.294,4.294,0,0,0-2.035.661,7.2,7.2,0,0,1-1.08.475,5.479,5.479,0,0,1-.758,0,.72.72,0,0,0-.6.214,1.021,1.021,0,0,1-.211.258l-.611-.458a1.593,1.593,0,0,0-.2.159c-.132.146-.249.317-.384.451a8.631,8.631,0,0,0-1.722.389,1.3,1.3,0,0,1-.14.3,3.5,3.5,0,0,0-.617,1.741,4.807,4.807,0,0,1-.232.953c-.1.016-.194.017-.29.036l-.127.221c-.044.076-.129.132-.154.212a29.713,29.713,0,0,1-1.885,3.774,7.756,7.756,0,0,0-.524,1.367,1.47,1.47,0,0,1-.22.476c-.6.8-1.221,1.584-1.821,2.385-.393.524-.767,1.065-1.141,1.6a.673.673,0,0,0-.147.364,3.55,3.55,0,0,1-.675,1.85c-.141.272-.195.6-.337.866a8.734,8.734,0,0,1-1.066,1.917,4.676,4.676,0,0,0-.881,1.9,8.346,8.346,0,0,1-.436,1.2l-.393-.155c-.043.094-.087.188-.129.282.529.059,1.059.1,1.591.114.289-.015.578-.034.867-.062.394-.038.788-.08,1.183-.111.115-.01.233-.025.351-.038.083-.2.161-.4.249-.6.239-.522.466-1.049.717-1.564a18.307,18.307,0,0,0,1.272-2.468.294.294,0,0,1,.056-.118c.828-.9,1.21-2.134,1.973-3.086a2.134,2.134,0,0,0,.355-.549c.314-.825.571-1.678.912-2.491a8.861,8.861,0,0,1,.8-1.359c.166-.258.5-.447.557-.719a5.2,5.2,0,0,1,.6-1.423,8.519,8.519,0,0,0,.981-2.052,3.574,3.574,0,0,1,.723-1.444,29.017,29.017,0,0,1,3.066-.87c.444-.089.892-.162,1.337-.24-.006-.025-.014-.053-.021-.08a11.3,11.3,0,0,0,1.183-.393c.555-.186,1.106-.383,1.666-.548a16.944,16.944,0,0,0,2.731-.749.3.3,0,0,1,.129-.038c1.266.033,2.444-.553,3.7-.61a2,2,0,0,0,.661-.106c.831-.344,1.641-.754,2.484-1.065a8.185,8.185,0,0,1,1.575-.333c.31-.049.692.091.933-.058,1.151-.711,2.534-.565,3.693-1.225a3.124,3.124,0,0,1,1.808-.48,2.877,2.877,0,0,0,1.022-.265c.456-.15.907-.311,1.36-.469q.5-.171,1-.321a17.328,17.328,0,0,1,2.793-.421,3.658,3.658,0,0,0,.932-.108,54.04,54.04,0,0,1,5.87-1.59c1.676-.334,3.25-1.057,4.921-1.394.456-.092.916-.167,1.374-.246.383-.066.764-.136,1.145-.206.4-.073.793-.165,1.19-.242a4.531,4.531,0,0,1,1.058-.182,2.046,2.046,0,0,0,1.626-.53.747.747,0,0,1,.364-.181c1.412-.278,2.765-.826,4.2-1.02a14.823,14.823,0,0,0,2.2-.636,3,3,0,0,1,.9-.271,5.581,5.581,0,0,0,2.09-.5,45.668,45.668,0,0,1,6.97-1.607,6.311,6.311,0,0,0,2.456-.683,1.178,1.178,0,0,1,.644-.194c1.166.065,2.152-.6,3.229-.888.994-.265,1.971-.6,2.954-.914-.014-.08-.033-.158-.048-.237.326-.085.654-.166.984-.224a8.637,8.637,0,0,0,1.286-.424c.555-.185,1.107-.382,1.666-.547a16.845,16.845,0,0,0,2.731-.75.318.318,0,0,1,.129-.037c1.266.033,2.444-.555,3.7-.61a2.014,2.014,0,0,0,.662-.106c.831-.344,1.641-.754,2.483-1.065a8.211,8.211,0,0,1,1.576-.333c.309-.049.691.089.932-.058,1.151-.711,2.534-.565,3.693-1.225a3.139,3.139,0,0,1,1.808-.48,2.887,2.887,0,0,0,1.023-.265c.455-.149.906-.313,1.359-.469q.5-.173,1-.321a17.217,17.217,0,0,1,2.793-.421,3.577,3.577,0,0,0,.932-.11,54.091,54.091,0,0,1,5.87-1.588c1.676-.334,3.251-1.057,4.922-1.394.456-.092.915-.169,1.374-.247.382-.065.764-.135,1.144-.206s.772-.159,1.159-.235a.284.284,0,0,1,.031-.006,4.531,4.531,0,0,1,1.058-.182,2.057,2.057,0,0,0,1.627-.53.741.741,0,0,1,.363-.182c.435-.086.86-.214,1.288-.334a6.674,6.674,0,0,0,.616-1.306.283.283,0,0,1,.057-.118c.827-.9,1.21-2.134,1.972-3.086.04-.051.066-.112.106-.165a1.569,1.569,0,0,0,.249-.384c.314-.825.571-1.678.912-2.491a8.943,8.943,0,0,1,.8-1.359c.167-.258.5-.447.557-.719a5.17,5.17,0,0,1,.6-1.423Q480.9,226.656,479.05,226.924Z"/><path class="cls-1" d="M344.577,327.629c.347-.246.692-.5,1.045-.738.1-.072.2-.149.306-.224-.023-.217-.054-.436-.07-.653-.042-.58-.1-1.158-.123-1.74a17.96,17.96,0,0,0-.064-2.821.287.287,0,0,1-.007-.133c.314-1.229.047-2.5.276-3.737a2.091,2.091,0,0,0,.053-.666c-.125-.883-.316-1.759-.409-2.646a8.742,8.742,0,0,1,.053-1.607c.025-.313.237-.656.155-.923a5,5,0,0,1-.158-1.556q-1.654,1.139-3.241,2.377a7.553,7.553,0,0,0,.2,1.465,1.438,1.438,0,0,1,.036.53c-.155,1.017-.336,2.031-.49,3.048-.1.667-.175,1.337-.251,2a.66.66,0,0,0,.047.395,3.4,3.4,0,0,1,.307,1.963c.006.311.119.621.123.931a8.583,8.583,0,0,1-.023,2.234,4.538,4.538,0,0,0,.142,2.123,7.916,7.916,0,0,1,.2,1.272c-.147.027-.3.052-.444.08.008.1.014.209.022.313.522-.236,1.034-.493,1.537-.766C344.063,327.984,344.322,327.811,344.577,327.629Z"/></svg>