<svg id="Livello_1" data-name="Livello 1" xmlns="http://www.w3.org/2000/svg" viewBox="0 0 952 407.737"><defs><style>.cls-1{fill:#1858a8;}.cls-2{fill:#f36;}</style></defs><title>insert</title><path class="cls-1" d="M181.749,52.384V68.531h4.556V70.38h-6.631V50.534h6.631v1.85Z"/><path class="cls-1" d="M193.478,60.457c0-8.254,2.616-9.923,6.7-9.923v1.85c-3.089,0-4.555,1.059-4.555,7.847,0,7.24,1.466,8.3,4.555,8.3V70.38C196.094,70.38,193.478,68.936,193.478,60.457Z"/><path class="cls-1" d="M217.092,66.275v1.85H206.357v-1.85h4.781v-9.7l-4.781,1.827V56.4l4.781-1.826V52.789h2.075V66.275Z"/><path class="cls-1" d="M231.753,66.275v1.85H221.018v-1.85H225.8v-9.7l-4.781,1.827V56.4l4.781-1.826V52.789h2.075V66.275Z"/><path class="cls-1" d="M238.453,66.3a2.03,2.03,0,1,1,2.03,2.03A2.022,2.022,0,0,1,238.453,66.3Z"/><path class="cls-1" d="M260.984,66.275v1.85h-11.1V66.05c3.947-2.413,8.548-4.871,8.548-8.795,0-1.737-.767-2.842-3.338-2.842-2.8,0-3.541,1.24-3.541,3.36a3.838,3.838,0,0,0,.181,1.376l-2.143-.158a10.518,10.518,0,0,1-.09-1.443c0-3,1.962-4.985,5.706-4.985,4.4,0,5.345,2.436,5.345,4.466,0,4.33-4.06,6.766-6.54,8.435l-1.219.541v.27Z"/><path class="cls-1" d="M272.217,67.426c0,1.984-1.218,4.307-4.6,4.307V70.042c1.511,0,2.436-.586,2.729-2.007a1.367,1.367,0,0,1-.812.293,2.031,2.031,0,0,1,.09-4.06C270.818,64.268,272.217,65.261,272.217,67.426Z"/><path class="cls-1" d="M304.606,63.705c0,2.57-1.828,4.645-6.406,4.645a12.107,12.107,0,0,1-5.187-1.014l.587-1.76a11.209,11.209,0,0,0,4.781.947c3.067,0,4.149-.969,4.149-2.706,0-1.466-.992-2.5-3.923-2.5h-4.173V59.487h5.413c1.623-.654,2.187-1.511,2.187-2.706,0-1.736-1.173-2.39-3.54-2.39a10.434,10.434,0,0,0-4.669,1.059l-.541-1.691a11.878,11.878,0,0,1,5.367-1.2c3.338,0,5.458,1.286,5.458,4.1a3.841,3.841,0,0,1-2.232,3.451C303.771,60.818,304.606,61.855,304.606,63.705Z"/><path class="cls-1" d="M319.627,66.275v1.85h-11.1V66.05c3.947-2.413,8.547-4.871,8.547-8.795,0-1.737-.766-2.842-3.337-2.842-2.8,0-3.541,1.24-3.541,3.36a3.867,3.867,0,0,0,.18,1.376l-2.142-.158a10.358,10.358,0,0,1-.09-1.443c0-3,1.961-4.985,5.706-4.985,4.4,0,5.344,2.436,5.344,4.466,0,4.33-4.059,6.766-6.54,8.435l-1.218.541v.27Z"/><path class="cls-1" d="M326.417,66.3a2.03,2.03,0,1,1,2.03,2.03A2.022,2.022,0,0,1,326.417,66.3Z"/><path class="cls-1" d="M349.039,66.275v1.85H338.3v-1.85h4.781v-9.7L338.3,58.405V56.4l4.781-1.826V52.789h2.075V66.275Z"/><path class="cls-1" d="M360.79,60.457c0,8.254-2.616,9.923-6.7,9.923V68.531c3.09,0,4.556-1.06,4.556-7.848,0-7.24-1.466-8.3-4.556-8.3v-1.85C358.174,50.534,360.79,51.977,360.79,60.457Z"/><path class="cls-1" d="M374.842,67.426c0,1.984-1.218,4.307-4.6,4.307V70.042c1.511,0,2.436-.586,2.729-2.007a1.367,1.367,0,0,1-.812.293,2.031,2.031,0,0,1,.09-4.06C373.443,64.268,374.842,65.261,374.842,67.426Z"/><path class="cls-1" d="M193.478,87.523c0-8.254,2.616-9.923,6.7-9.923v1.85c-3.089,0-4.555,1.06-4.555,7.848,0,7.239,1.466,8.3,4.555,8.3v1.848C196.094,97.446,193.478,96,193.478,87.523Z"/><path class="cls-1" d="M217.34,92.034h-2.21v3.157h-2.075V92.034h-7.713V89.959l5.571-10.1h2.142l-4.736,8.593-1.06,1.443v.293h5.8V79.855h2.075V90.184h2.21Z"/><path class="cls-1" d="M231.3,90.771c0,2.571-1.827,4.646-6.405,4.646A12.1,12.1,0,0,1,219.71,94.4l.586-1.76a11.194,11.194,0,0,0,4.781.948c3.067,0,4.15-.97,4.15-2.706,0-1.466-.993-2.5-3.924-2.5H221.13V86.554h5.413c1.624-.655,2.188-1.511,2.188-2.706,0-1.737-1.173-2.391-3.541-2.391a10.426,10.426,0,0,0-4.668,1.059l-.542-1.691a11.886,11.886,0,0,1,5.368-1.2c3.338,0,5.457,1.286,5.457,4.1a3.839,3.839,0,0,1-2.232,3.451C230.467,87.885,231.3,88.922,231.3,90.771Z"/><path class="cls-1" d="M238.453,93.364a2.03,2.03,0,1,1,2.03,2.03A2.021,2.021,0,0,1,238.453,93.364Z"/><path class="cls-1" d="M260.578,87.027c0,4.489-1.33,8.39-6.4,8.39a13.618,13.618,0,0,1-4.285-.564l.564-1.894a10.328,10.328,0,0,0,3.9.631c3.067,0,3.879-1.917,4.082-4.24l-3.609-.428c-3.653-.429-5.389-1.692-5.389-4.489,0-2.75,1.8-4.826,5.344-4.826C258.571,79.607,260.578,82.134,260.578,87.027ZM258.5,87.5v-.36c0-3.834-1.06-5.707-3.9-5.707-2.255,0-3.09,1.308-3.09,2.82,0,1.759.88,2.5,3.811,2.863Z"/><path class="cls-1" d="M272.217,94.492c0,1.984-1.218,4.308-4.6,4.308V97.108c1.511,0,2.436-.586,2.729-2.007a1.361,1.361,0,0,1-.812.293,2.031,2.031,0,0,1,.09-4.059C270.818,91.335,272.217,92.327,272.217,94.492Z"/><path class="cls-1" d="M305.056,93.342v1.849H294.321V93.342H299.1v-9.7l-4.782,1.828V83.464l4.782-1.826V79.855h2.074V93.342Z"/><path class="cls-1" d="M319.965,92.034h-2.21v3.157H315.68V92.034h-7.713V89.959l5.571-10.1h2.142l-4.736,8.593-1.06,1.443v.293h5.8V79.855h2.075V90.184h2.21Z"/><path class="cls-1" d="M326.417,93.364a2.03,2.03,0,1,1,2.03,2.03A2.021,2.021,0,0,1,326.417,93.364Z"/><path class="cls-1" d="M348.317,91.538c0,2.639-2.052,4.037-5.254,4.037-3.113,0-5.165-1.173-5.165-3.744,0-1.94,1.511-3.045,3.315-3.969-2.03-.88-3.9-2.008-3.9-4.218,0-2.593,2.21-4.171,5.886-4.171,3.879,0,5.705,1.4,5.705,3.81,0,2.233-1.894,3.429-3.946,4.421C346.761,88.538,348.317,89.6,348.317,91.538Zm-5.142-4.6c1.94-.9,3.654-1.827,3.654-3.563,0-1.263-.97-2.075-3.789-2.075-2.413,0-3.654.812-3.654,2.256C339.386,85.246,341.191,86.1,343.175,86.937Zm3.067,4.691c0-1.444-1.488-2.233-3.247-3-1.669.811-3.022,1.669-3.022,3.112,0,1.127.631,2.052,3.2,2.052C345.611,93.793,346.242,92.868,346.242,91.628Z"/><path class="cls-1" d="M360.79,87.523c0,8.254-2.616,9.923-6.7,9.923V95.6c3.09,0,4.556-1.061,4.556-7.849,0-7.239-1.466-8.3-4.556-8.3V77.6C358.174,77.6,360.79,79.044,360.79,87.523Z"/><path class="cls-1" d="M374.594,97.446h-6.631V95.6h4.556V79.45h-4.556V77.6h6.631Z"/><path class="cls-1" d="M426.149,270.784v16.148H430.7v1.848h-6.63V268.934h6.63v1.85Z"/><path class="cls-1" d="M437.878,278.857c0-8.254,2.616-9.923,6.7-9.923v1.85c-3.089,0-4.555,1.06-4.555,7.848,0,7.239,1.466,8.3,4.555,8.3v1.848C440.494,288.78,437.878,287.337,437.878,278.857Z"/><path class="cls-1" d="M461.491,284.676v1.849H450.756v-1.849h4.782v-9.7l-4.782,1.828V274.8l4.782-1.826v-1.783h2.074v13.487Z"/><path class="cls-1" d="M476.152,284.676v1.849H465.417v-1.849H470.2v-9.7l-4.781,1.828V274.8l4.781-1.826v-1.783h2.075v13.487Z"/><path class="cls-1" d="M482.852,284.7a2.03,2.03,0,1,1,2.03,2.03A2.021,2.021,0,0,1,482.852,284.7Z"/><path class="cls-1" d="M505.384,284.676v1.849h-11.1V284.45c3.946-2.413,8.547-4.871,8.547-8.8,0-1.736-.767-2.842-3.337-2.842-2.8,0-3.541,1.241-3.541,3.361a3.851,3.851,0,0,0,.18,1.376L494,277.391a10.314,10.314,0,0,1-.091-1.443c0-3,1.962-4.984,5.706-4.984,4.4,0,5.345,2.435,5.345,4.466,0,4.33-4.059,6.765-6.54,8.434l-1.218.541v.271Z"/><path class="cls-1" d="M516.616,285.826c0,1.984-1.217,4.308-4.6,4.308v-1.692c1.51,0,2.435-.586,2.728-2.007a1.358,1.358,0,0,1-.811.293,2.031,2.031,0,0,1,.09-4.059C515.218,282.669,516.616,283.661,516.616,285.826Z"/><path class="cls-1" d="M549.005,282.105c0,2.571-1.827,4.646-6.4,4.646a12.1,12.1,0,0,1-5.187-1.015l.586-1.76a11.2,11.2,0,0,0,4.781.948c3.067,0,4.15-.97,4.15-2.706,0-1.466-.992-2.5-3.924-2.5h-4.172v-1.827h5.412c1.624-.655,2.188-1.511,2.188-2.706,0-1.737-1.173-2.391-3.541-2.391a10.426,10.426,0,0,0-4.668,1.059l-.542-1.691a11.886,11.886,0,0,1,5.368-1.195c3.338,0,5.457,1.286,5.457,4.1a3.839,3.839,0,0,1-2.232,3.451C548.17,279.219,549.005,280.256,549.005,282.105Z"/><path class="cls-1" d="M564.026,284.676v1.849h-11.1V284.45c3.947-2.413,8.548-4.871,8.548-8.8,0-1.736-.767-2.842-3.338-2.842-2.8,0-3.541,1.241-3.541,3.361a3.846,3.846,0,0,0,.181,1.376l-2.143-.159a10.506,10.506,0,0,1-.09-1.443c0-3,1.962-4.984,5.706-4.984,4.4,0,5.345,2.435,5.345,4.466,0,4.33-4.06,6.765-6.54,8.434l-1.219.541v.271Z"/><path class="cls-1" d="M570.816,284.7a2.03,2.03,0,1,1,2.03,2.03A2.022,2.022,0,0,1,570.816,284.7Z"/><path class="cls-1" d="M593.438,284.676v1.849H582.7v-1.849h4.781v-9.7l-4.781,1.828V274.8l4.781-1.826v-1.783h2.075v13.487Z"/><path class="cls-1" d="M605.19,278.857c0,8.254-2.617,9.923-6.7,9.923v-1.848c3.09,0,4.556-1.061,4.556-7.849,0-7.239-1.466-8.3-4.556-8.3v-1.85C602.573,268.934,605.19,270.378,605.19,278.857Z"/><path class="cls-1" d="M619.241,285.826c0,1.984-1.217,4.308-4.6,4.308v-1.692c1.51,0,2.435-.586,2.728-2.007a1.358,1.358,0,0,1-.811.293,2.031,2.031,0,0,1,.09-4.059C617.843,282.669,619.241,283.661,619.241,285.826Z"/><path class="cls-1" d="M437.878,305.924c0-8.254,2.616-9.923,6.7-9.923v1.849c-3.089,0-4.555,1.06-4.555,7.848,0,7.239,1.466,8.3,4.555,8.3v1.849C440.494,315.847,437.878,314.4,437.878,305.924Z"/><path class="cls-1" d="M461.739,310.434h-2.21v3.158h-2.074v-3.158h-7.713v-2.075l5.57-10.1h2.143l-4.737,8.593-1.06,1.443v.293h5.8V298.256h2.074v10.329h2.21Z"/><path class="cls-1" d="M475.7,309.172c0,2.57-1.827,4.645-6.405,4.645a12.107,12.107,0,0,1-5.187-1.014l.586-1.76a11.217,11.217,0,0,0,4.782.947c3.067,0,4.149-.97,4.149-2.706,0-1.466-.992-2.5-3.924-2.5H465.53v-1.827h5.412c1.624-.654,2.188-1.511,2.188-2.706,0-1.736-1.173-2.391-3.541-2.391a10.416,10.416,0,0,0-4.668,1.06l-.542-1.692a11.9,11.9,0,0,1,5.368-1.2c3.338,0,5.458,1.286,5.458,4.105a3.842,3.842,0,0,1-2.233,3.451C474.867,306.285,475.7,307.322,475.7,309.172Z"/><path class="cls-1" d="M482.852,311.765a2.03,2.03,0,1,1,2.03,2.03A2.022,2.022,0,0,1,482.852,311.765Z"/><path class="cls-1" d="M504.978,305.428c0,4.488-1.331,8.389-6.405,8.389a13.64,13.64,0,0,1-4.285-.563l.564-1.9a10.323,10.323,0,0,0,3.9.631c3.067,0,3.879-1.917,4.082-4.239l-3.608-.429c-3.654-.429-5.39-1.691-5.39-4.488,0-2.751,1.8-4.826,5.345-4.826C502.97,298.008,504.978,300.534,504.978,305.428Zm-2.075.473v-.36c0-3.834-1.06-5.706-3.9-5.706-2.255,0-3.089,1.307-3.089,2.819,0,1.759.879,2.5,3.811,2.863Z"/><path class="cls-1" d="M516.616,312.892c0,1.985-1.217,4.308-4.6,4.308v-1.691c1.51,0,2.435-.586,2.728-2.007a1.364,1.364,0,0,1-.811.293,2.031,2.031,0,0,1,.09-4.06C515.218,309.735,516.616,310.727,516.616,312.892Z"/><path class="cls-1" d="M549.456,311.742v1.85H538.721v-1.85H543.5v-9.7l-4.781,1.827v-2.008l4.781-1.826v-1.782h2.075v13.486Z"/><path class="cls-1" d="M564.364,310.434h-2.21v3.158H560.08v-3.158h-7.713v-2.075l5.57-10.1h2.143l-4.737,8.593-1.06,1.443v.293h5.8V298.256h2.074v10.329h2.21Z"/><path class="cls-1" d="M570.816,311.765a2.03,2.03,0,1,1,2.03,2.03A2.023,2.023,0,0,1,570.816,311.765Z"/><path class="cls-1" d="M592.716,309.938c0,2.639-2.052,4.037-5.254,4.037-3.112,0-5.165-1.172-5.165-3.744,0-1.939,1.511-3.045,3.315-3.968-2.029-.88-3.9-2.008-3.9-4.218,0-2.594,2.21-4.172,5.886-4.172,3.879,0,5.706,1.4,5.706,3.81,0,2.234-1.895,3.429-3.947,4.421C591.16,306.938,592.716,308,592.716,309.938Zm-5.142-4.6c1.94-.9,3.654-1.827,3.654-3.564,0-1.262-.97-2.075-3.789-2.075-2.413,0-3.653.813-3.653,2.256C583.786,303.646,585.59,304.5,587.574,305.338Zm3.068,4.69c0-1.443-1.489-2.232-3.248-3-1.669.812-3.022,1.669-3.022,3.112,0,1.127.631,2.052,3.2,2.052C590.01,312.193,590.642,311.268,590.642,310.028Z"/><path class="cls-1" d="M605.19,305.924c0,8.254-2.617,9.923-6.7,9.923V314c3.09,0,4.556-1.061,4.556-7.849,0-7.239-1.466-8.3-4.556-8.3V296C602.573,296,605.19,297.444,605.19,305.924Z"/><path class="cls-1" d="M619.241,312.892c0,1.985-1.217,4.308-4.6,4.308v-1.691c1.51,0,2.435-.586,2.728-2.007a1.364,1.364,0,0,1-.811.293,2.031,2.031,0,0,1,.09-4.06C617.843,309.735,619.241,310.727,619.241,312.892Z"/><path class="cls-1" d="M437.878,332.99c0-8.254,2.616-9.923,6.7-9.923v1.85c-3.089,0-4.555,1.059-4.555,7.848,0,7.239,1.466,8.3,4.555,8.3v1.849C440.494,342.913,437.878,341.47,437.878,332.99Z"/><path class="cls-1" d="M461.266,336.283c0,2.5-1.489,4.6-5.345,4.6-3.631,0-5.8-1.94-5.8-7.195,0-4.714,1.782-8.615,7.082-8.615a12.6,12.6,0,0,1,3.833.565l-.563,1.8a10.509,10.509,0,0,0-3.451-.541c-3.315,0-4.4,1.985-4.713,4.465l3.563.429C459.394,332.2,461.266,333.486,461.266,336.283Zm-2.075.181c0-1.76-1.015-2.527-3.812-2.865l-3.179-.383v.361c0,4.194,1.218,5.48,3.9,5.48C458.334,339.057,459.191,338.064,459.191,336.464Z"/><path class="cls-1" d="M475.7,336.238c0,2.57-1.827,4.646-6.405,4.646a12.107,12.107,0,0,1-5.187-1.015l.586-1.76a11.2,11.2,0,0,0,4.782.948c3.067,0,4.149-.97,4.149-2.707,0-1.465-.992-2.5-3.924-2.5H465.53V332.02h5.412c1.624-.654,2.188-1.51,2.188-2.706,0-1.736-1.173-2.39-3.541-2.39a10.429,10.429,0,0,0-4.668,1.059l-.542-1.691a11.886,11.886,0,0,1,5.368-1.195c3.338,0,5.458,1.286,5.458,4.1a3.84,3.84,0,0,1-2.233,3.451C474.867,333.351,475.7,334.389,475.7,336.238Z"/><path class="cls-1" d="M482.852,338.831a2.03,2.03,0,1,1,2.03,2.03A2.021,2.021,0,0,1,482.852,338.831Z"/><path class="cls-1" d="M505.474,338.808v1.85H494.739v-1.85h4.781v-9.7l-4.781,1.827v-2.007l4.781-1.827v-1.782H501.6v13.486Z"/><path class="cls-1" d="M516.616,339.959c0,1.984-1.217,4.307-4.6,4.307v-1.691c1.51,0,2.435-.586,2.728-2.007a1.364,1.364,0,0,1-.811.293,2.031,2.031,0,0,1,.09-4.059C515.218,336.8,516.616,337.794,516.616,339.959Z"/><path class="cls-1" d="M534.073,337.005c0,2.638-2.052,4.037-5.254,4.037-3.112,0-5.165-1.173-5.165-3.744,0-1.94,1.511-3.045,3.315-3.969-2.029-.88-3.9-2.008-3.9-4.218,0-2.594,2.21-4.172,5.886-4.172,3.879,0,5.706,1.4,5.706,3.811,0,2.233-1.895,3.429-3.947,4.421C532.517,334.005,534.073,335.065,534.073,337.005Zm-5.141-4.6c1.939-.9,3.653-1.827,3.653-3.563,0-1.263-.97-2.075-3.789-2.075-2.413,0-3.653.812-3.653,2.255C525.143,330.713,526.947,331.569,528.932,332.4ZM532,337.1c0-1.444-1.489-2.233-3.248-3-1.669.811-3.022,1.669-3.022,3.112,0,1.127.631,2.052,3.2,2.052C531.367,339.26,532,338.335,532,337.1Z"/><path class="cls-1" d="M549.027,327.4l-5.074,11.411h3.5v1.85h-9.067v-1.85h3.293l4.511-9.9.969-1.421v-.315h-9v-1.85h10.87Z"/><path class="cls-1" d="M556.155,338.831a2.03,2.03,0,1,1,2.03,2.03A2.022,2.022,0,0,1,556.155,338.831Z"/><path class="cls-1" d="M578.326,336.238c0,2.57-1.826,4.646-6.4,4.646a12.107,12.107,0,0,1-5.187-1.015l.587-1.76a11.194,11.194,0,0,0,4.781.948c3.067,0,4.15-.97,4.15-2.707,0-1.465-.993-2.5-3.924-2.5h-4.173V332.02h5.413c1.623-.654,2.187-1.51,2.187-2.706,0-1.736-1.172-2.39-3.54-2.39a10.434,10.434,0,0,0-4.669,1.059l-.541-1.691a11.886,11.886,0,0,1,5.368-1.195c3.338,0,5.457,1.286,5.457,4.1a3.839,3.839,0,0,1-2.232,3.451C577.492,333.351,578.326,334.389,578.326,336.238Z"/><path class="cls-1" d="M590.529,332.99c0,8.254-2.616,9.923-6.7,9.923v-1.849c3.089,0,4.555-1.06,4.555-7.848,0-7.24-1.466-8.3-4.555-8.3v-1.85C587.913,323.067,590.529,324.511,590.529,332.99Z"/><path class="cls-1" d="M604.333,342.913H597.7v-1.849h4.556V324.917H597.7v-1.85h6.631Z"/><path class="cls-2" d="M405.922,278.723c0,5.682-2.143,8.028-5.751,8.028-3.789,0-5.615-2.639-5.615-7.758,0-5.346,2.142-8.029,5.751-8.029C404.1,270.964,405.922,273.6,405.922,278.723Zm-9.247.157c0,.677.023,1.308.068,1.872l6.608-5.729a2.933,2.933,0,0,0-3.09-2.21C397.51,272.813,396.675,274.933,396.675,278.88Zm7.127-.045c0-.677-.023-1.308-.068-1.872l-6.607,5.728a2.932,2.932,0,0,0,3.089,2.21C402.968,284.9,403.8,283.232,403.8,278.835Z"/><path class="cls-2" d="M406.17,311.742v1.85H395.435v-1.85h4.781v-9.7l-4.781,1.827v-2.008l4.781-1.826v-1.782h2.075v13.486Z"/><path class="cls-2" d="M406.08,338.808v1.85h-11.1v-2.075c3.947-2.413,8.547-4.871,8.547-8.8,0-1.736-.766-2.842-3.337-2.842-2.8,0-3.541,1.24-3.541,3.361a3.846,3.846,0,0,0,.181,1.376l-2.143-.159a10.518,10.518,0,0,1-.09-1.443c0-3,1.962-4.984,5.706-4.984,4.4,0,5.344,2.435,5.344,4.465,0,4.33-4.059,6.766-6.54,8.435l-1.218.541v.27Z"/><path class="cls-2" d="M158.286,68.33a4.912,4.912,0,0,1-4.121-1.814,8.488,8.488,0,0,1-1.415-5.3v-2.5a8.659,8.659,0,0,1,1.415-5.362,4.91,4.91,0,0,1,4.142-1.835,4.86,4.86,0,0,1,4.111,1.835,8.713,8.713,0,0,1,1.4,5.362v2.5a8.488,8.488,0,0,1-1.415,5.3A4.912,4.912,0,0,1,158.286,68.33Zm0-1.846a2.964,2.964,0,0,0,2.676-1.23,7.608,7.608,0,0,0,.81-4.039v-2.5a7.826,7.826,0,0,0-.81-4.111,3.506,3.506,0,0,0-5.352,0,7.826,7.826,0,0,0-.81,4.111v2.5a7.608,7.608,0,0,0,.81,4.039A2.964,2.964,0,0,0,158.286,66.484Zm0-4.962a2.2,2.2,0,0,1-1.066-.225.894.894,0,0,1-.41-.862v-1a.894.894,0,0,1,.41-.851,2.123,2.123,0,0,1,1.066-.235,2.068,2.068,0,0,1,1.056.235.9.9,0,0,1,.4.851v1a.9.9,0,0,1-.41.862A2.161,2.161,0,0,1,158.286,61.522Z"/><path class="cls-2" d="M153.775,95.191V93.346h4.511v-12.1h-.595a4.039,4.039,0,0,1-1.793,1.743,4.194,4.194,0,0,1-2.533.267l-.205-2.01a5.2,5.2,0,0,0,2.891-.44,5.982,5.982,0,0,0,2.3-2.02h1.989V93.346h4.1v1.845Z"/><path class="cls-2" d="M49.139,28.4l.609-1.894a9.545,9.545,0,0,0,4.533,1.037c2.3,0,3.406-.541,3.406-1.692,0-2.5-8.322-1.669-8.322-5.773,0-2.322,2.052-3.585,5.3-3.585a11.531,11.531,0,0,1,4.487.879l-.586,1.849a8.8,8.8,0,0,0-3.9-.924c-2.143,0-3.248.563-3.248,1.555,0,2.414,8.322,1.579,8.322,5.774,0,2.571-2.278,3.721-5.548,3.721A11.735,11.735,0,0,1,49.139,28.4Z"/><path class="cls-2" d="M63.462,23.058c0-4.126,2.368-6.585,5.7-6.585,3.519,0,5.571,2.413,5.571,6.427s-2.368,6.473-5.706,6.473C65.514,29.373,63.462,26.96,63.462,23.058Zm9.224-.044c0-2.956-1.105-4.714-3.564-4.714-2.48,0-3.608,1.8-3.608,4.645s1.105,4.6,3.563,4.6C71.558,27.546,72.686,25.742,72.686,23.014Z"/><path class="cls-2" d="M89.759,19.9v9.224h-1.8v-8.48c0-1.827-.181-2.571-1.376-2.571A3.048,3.048,0,0,0,84.617,19c.023.27.045.563.045.9v9.224h-1.8v-8.48c0-1.827-.18-2.571-1.375-2.571a2.978,2.978,0,0,0-1.917.88V29.125H77.761v-12.4H79.25l.023,1.083a3.552,3.552,0,0,1,2.661-1.331,2.325,2.325,0,0,1,2.322,1.241,4.043,4.043,0,0,1,2.774-1.241C88.857,16.473,89.759,17.488,89.759,19.9Z"/><path class="cls-2" d="M95.106,22.945c0,3.157,1.33,4.578,3.946,4.578a8.124,8.124,0,0,0,4.1-1.059l.541,1.691a9.186,9.186,0,0,1-4.691,1.2c-3.676,0-5.954-2.075-5.954-6.292S95.647,16.5,98.9,16.5c3.7,0,5.344,2.3,4.848,6.314H95.106Zm.158-1.759h6.54c-.045-2.075-1.015-2.931-3.045-2.931A3.305,3.305,0,0,0,95.264,21.186Z"/><path class="cls-2" d="M107.466,21.593c0-5.954,3.654-8.03,6.992-8.03a8.805,8.805,0,0,1,4.4,1.016l-.587,1.781a7.413,7.413,0,0,0-3.992-.947c-2.277,0-4.69,1.421-4.69,6.066,0,4.6,1.961,6.022,4.69,6.022a8.017,8.017,0,0,0,3.992-1.06l.542,1.714a9.068,9.068,0,0,1-4.578,1.2C110.443,29.35,107.466,27.275,107.466,21.593Z"/><path class="cls-2" d="M122.105,23.058c0-4.126,2.368-6.585,5.706-6.585,3.518,0,5.57,2.413,5.57,6.427s-2.368,6.473-5.706,6.473C124.157,29.373,122.105,26.96,122.105,23.058Zm9.224-.044c0-2.956-1.105-4.714-3.564-4.714-2.481,0-3.608,1.8-3.608,4.645s1.105,4.6,3.563,4.6C130.2,27.546,131.329,25.742,131.329,23.014Z"/><path class="cls-2" d="M136.765,23.058c0-4.126,2.368-6.585,5.706-6.585,3.518,0,5.571,2.413,5.571,6.427s-2.369,6.473-5.706,6.473C138.817,29.373,136.765,26.96,136.765,23.058Zm9.224-.044c0-2.956-1.105-4.714-3.563-4.714-2.481,0-3.609,1.8-3.609,4.645s1.1,4.6,3.564,4.6C144.861,27.546,145.989,25.742,145.989,23.014Z"/><path class="cls-2" d="M162.657,27.32v1.8H151.922v-1.8h3.225v-10.6h1.8l-.045,2.39,5.5-2.683.023,2.007-5.255,2.548V27.32Z"/><path class="cls-2" d="M176.686,10.632V29.125h-1.759V27.794a5.976,5.976,0,0,1-4.127,1.579c-3.067-.023-4.713-2.165-4.713-5.977,0-4.961,2.458-6.9,6.156-6.9a15.027,15.027,0,0,1,2.413.18V10.632Zm-2.03,15.742V18.638a9.43,9.43,0,0,0-2.57-.316c-2.729,0-3.947,1.624-3.947,4.849,0,2.819.992,4.352,2.909,4.375A6.057,6.057,0,0,0,174.656,26.374Z"/><path class="cls-2" d="M191.978,27.32v1.8H181.243v-1.8h4.578v-8.8h-4.578v-1.8h6.608v10.6Zm-7.4-14.658a2.03,2.03,0,1,1,2.03,2.029A2.021,2.021,0,0,1,184.581,12.662Z"/><path class="cls-2" d="M206.053,20.577v8.548h-2.029V20.871c0-1.827-.745-2.571-2.256-2.571a6.208,6.208,0,0,0-3.608,1.173v9.652h-2.03v-12.4h1.714V18.1a6.134,6.134,0,0,1,4.172-1.624C204.88,16.473,206.053,17.939,206.053,20.577Z"/><path class="cls-2" d="M220.443,20.983l-.113,8.142h-1.691V27.637a5.855,5.855,0,0,1-4.353,1.736c-2.48-.023-3.879-1.33-3.879-3.405,0-2.391,2.458-3.451,7.961-3.879l.023-.88c.022-1.578-.158-2.909-2.617-2.909a9.756,9.756,0,0,0-4.33,1.059l-.541-1.691a10.894,10.894,0,0,1,5.03-1.2C220.015,16.473,220.466,18.548,220.443,20.983ZM218.3,26.261l.045-2.526c-4.15.338-5.909.924-5.909,2.188,0,1.037.722,1.646,2.12,1.669A5.55,5.55,0,0,0,218.3,26.261Z"/><path class="cls-2" d="M235.78,28.381a9.132,9.132,0,0,1-4.262.969c-3.383,0-3.992-1.849-3.947-4.51l.136-6.315h-3.045v-1.8h3.067l.068-2.932h2.1l-.383,2.932h5.818v1.8h-5.548l-.135,6.089c-.045,1.579.158,2.909,1.94,2.909a8.088,8.088,0,0,0,3.653-.834Z"/><path class="cls-2" d="M241.713,22.945c0,3.157,1.331,4.578,3.947,4.578a8.122,8.122,0,0,0,4.1-1.059l.542,1.691a9.192,9.192,0,0,1-4.691,1.2c-3.676,0-5.954-2.075-5.954-6.292S242.254,16.5,245.5,16.5c3.7,0,5.345,2.3,4.849,6.314h-8.638Zm.158-1.759h6.54c-.045-2.075-1.014-2.931-3.044-2.931A3.306,3.306,0,0,0,241.871,21.186Z"/><path class="cls-2" d="M254.389,28.4,255,26.509a9.545,9.545,0,0,0,4.533,1.037c2.3,0,3.406-.541,3.406-1.692,0-2.5-8.322-1.669-8.322-5.773,0-2.322,2.052-3.585,5.3-3.585a11.531,11.531,0,0,1,4.487.879l-.586,1.849a8.8,8.8,0,0,0-3.9-.924c-2.143,0-3.248.563-3.248,1.555,0,2.414,8.322,1.579,8.322,5.774,0,2.571-2.278,3.721-5.548,3.721A11.735,11.735,0,0,1,254.389,28.4Z"/><path class="cls-1" d="M510.052,60.457c0-8.254,2.616-9.923,6.7-9.923v1.85c-3.09,0-4.556,1.059-4.556,7.847,0,7.24,1.466,8.3,4.556,8.3V70.38C512.668,70.38,510.052,68.936,510.052,60.457Z"/><path class="cls-1" d="M533.44,63.75c0,2.5-1.488,4.6-5.345,4.6-3.631,0-5.8-1.939-5.8-7.194,0-4.714,1.782-8.615,7.082-8.615a12.639,12.639,0,0,1,3.834.564l-.564,1.8a10.509,10.509,0,0,0-3.451-.541c-3.315,0-4.4,1.984-4.713,4.465l3.563.429C531.568,59.668,533.44,60.953,533.44,63.75Zm-2.075.181c0-1.76-1.014-2.527-3.811-2.865l-3.18-.383v.361c0,4.194,1.218,5.479,3.9,5.479C530.508,66.523,531.365,65.531,531.365,63.931Z"/><path class="cls-1" d="M547.875,63.705c0,2.57-1.827,4.645-6.4,4.645a12.107,12.107,0,0,1-5.187-1.014l.587-1.76a11.209,11.209,0,0,0,4.781.947c3.067,0,4.149-.969,4.149-2.706,0-1.466-.992-2.5-3.923-2.5H537.7V59.487h5.413c1.623-.654,2.187-1.511,2.187-2.706,0-1.736-1.173-2.39-3.54-2.39A10.434,10.434,0,0,0,537.1,55.45l-.541-1.691a11.878,11.878,0,0,1,5.367-1.2c3.338,0,5.458,1.286,5.458,4.1a3.841,3.841,0,0,1-2.232,3.451C547.041,60.818,547.875,61.855,547.875,63.705Z"/><path class="cls-1" d="M555.026,66.3a2.03,2.03,0,1,1,2.03,2.03A2.022,2.022,0,0,1,555.026,66.3Z"/><path class="cls-1" d="M577.648,66.275v1.85H566.913v-1.85h4.781v-9.7l-4.781,1.827V56.4l4.781-1.826V52.789h2.075V66.275Z"/><path class="cls-1" d="M588.791,67.426c0,1.984-1.218,4.307-4.6,4.307V70.042c1.511,0,2.436-.586,2.729-2.007a1.37,1.37,0,0,1-.812.293,2.031,2.031,0,0,1,.09-4.06C587.392,64.268,588.791,65.261,588.791,67.426Z"/><path class="cls-1" d="M606.248,64.472c0,2.638-2.053,4.037-5.255,4.037-3.112,0-5.164-1.173-5.164-3.744,0-1.94,1.51-3.045,3.315-3.969-2.03-.88-3.9-2.008-3.9-4.218,0-2.594,2.21-4.172,5.886-4.172,3.879,0,5.706,1.4,5.706,3.811,0,2.233-1.894,3.428-3.947,4.421C604.691,61.472,606.248,62.532,606.248,64.472Zm-5.142-4.6c1.939-.9,3.653-1.827,3.653-3.563,0-1.263-.969-2.076-3.789-2.076-2.413,0-3.653.813-3.653,2.256C597.317,58.18,599.121,59.036,601.106,59.871Zm3.067,4.69c0-1.443-1.488-2.232-3.248-3-1.669.812-3.022,1.669-3.022,3.113,0,1.127.632,2.051,3.2,2.051C603.542,66.726,604.173,65.8,604.173,64.561Z"/><path class="cls-1" d="M621.2,54.864l-5.075,11.411h3.5v1.85h-9.066v-1.85h3.293l4.51-9.9.97-1.421v-.315h-9v-1.85H621.2Z"/><path class="cls-1" d="M628.33,66.3a2.03,2.03,0,1,1,2.029,2.03A2.022,2.022,0,0,1,628.33,66.3Z"/><path class="cls-1" d="M650.5,63.705c0,2.57-1.827,4.645-6.4,4.645a12.107,12.107,0,0,1-5.187-1.014l.587-1.76a11.209,11.209,0,0,0,4.781.947c3.067,0,4.149-.969,4.149-2.706,0-1.466-.992-2.5-3.923-2.5h-4.173V59.487h5.413c1.623-.654,2.187-1.511,2.187-2.706,0-1.736-1.173-2.39-3.54-2.39a10.434,10.434,0,0,0-4.669,1.059l-.541-1.691a11.878,11.878,0,0,1,5.367-1.2c3.338,0,5.458,1.286,5.458,4.1a3.841,3.841,0,0,1-2.232,3.451C649.666,60.818,650.5,61.855,650.5,63.705Z"/><path class="cls-1" d="M662.7,60.457c0,8.254-2.616,9.923-6.7,9.923V68.531c3.09,0,4.556-1.06,4.556-7.848,0-7.24-1.466-8.3-4.556-8.3v-1.85C660.087,50.534,662.7,51.977,662.7,60.457Z"/><path class="cls-2" d="M487.773,27.32v1.8H477.037v-1.8h4.353V10.632h2.03V27.32Z"/><path class="cls-2" d="M501.8,20.983l-.112,8.142H500V27.637a5.854,5.854,0,0,1-4.352,1.736c-2.481-.023-3.879-1.33-3.879-3.405,0-2.391,2.458-3.451,7.961-3.879l.022-.88c.023-1.578-.158-2.909-2.616-2.909a9.753,9.753,0,0,0-4.33,1.059l-.541-1.691a10.886,10.886,0,0,1,5.029-1.2C501.373,16.473,501.824,18.548,501.8,20.983Zm-2.142,5.278.045-2.526c-4.15.338-5.909.924-5.909,2.188,0,1.037.722,1.646,2.12,1.669A5.55,5.55,0,0,0,499.659,26.261Z"/><path class="cls-2" d="M506.426,28.4l.609-1.894a9.548,9.548,0,0,0,4.533,1.037c2.3,0,3.406-.541,3.406-1.692,0-2.5-8.322-1.669-8.322-5.773,0-2.322,2.052-3.585,5.3-3.585a11.54,11.54,0,0,1,4.488.879l-.587,1.849a8.8,8.8,0,0,0-3.9-.924c-2.143,0-3.248.563-3.248,1.555,0,2.414,8.322,1.579,8.322,5.774,0,2.571-2.278,3.721-5.548,3.721A11.735,11.735,0,0,1,506.426,28.4Z"/><path class="cls-2" d="M531.8,28.381a9.132,9.132,0,0,1-4.262.969c-3.383,0-3.992-1.849-3.947-4.51l.136-6.315h-3.045v-1.8h3.067l.068-2.932h2.1l-.383,2.932h5.818v1.8H525.8l-.135,6.089c-.045,1.579.158,2.909,1.94,2.909a8.088,8.088,0,0,0,3.653-.834Z"/><path class="cls-2" d="M546.776,18.818c0,3.631-2.571,5.345-6.021,5.345h-2.526v4.962h-2.075V13.789h4.871C544.476,13.789,546.776,15.458,546.776,18.818Zm-2.12.136c0-2.256-1.353-3.338-3.856-3.338h-2.571v6.721h2.345C543.326,22.337,544.656,21.3,544.656,18.954Z"/><path class="cls-2" d="M550.07,23.058c0-4.126,2.369-6.585,5.706-6.585,3.519,0,5.571,2.413,5.571,6.427s-2.368,6.473-5.706,6.473C552.123,29.373,550.07,26.96,550.07,23.058Zm9.225-.044c0-2.956-1.1-4.714-3.564-4.714-2.481,0-3.608,1.8-3.608,4.645s1.1,4.6,3.563,4.6C558.167,27.546,559.295,25.742,559.295,23.014Z"/><path class="cls-2" d="M575.962,27.32v1.8H565.227v-1.8H569.8v-8.8h-4.578v-1.8h6.608v10.6Zm-7.4-14.658a2.03,2.03,0,1,1,2.03,2.029A2.021,2.021,0,0,1,568.565,12.662Z"/><path class="cls-2" d="M590.037,20.577v8.548h-2.03V20.871c0-1.827-.744-2.571-2.255-2.571a6.21,6.21,0,0,0-3.609,1.173v9.652h-2.03v-12.4h1.714V18.1A6.138,6.138,0,0,1,586,16.473C588.864,16.473,590.037,17.939,590.037,20.577Z"/><path class="cls-2" d="M605.1,28.381a9.132,9.132,0,0,1-4.262.969c-3.383,0-3.992-1.849-3.947-4.51l.135-6.315h-3.045v-1.8h3.068l.068-2.932h2.1l-.383,2.932h5.818v1.8H599.1l-.135,6.089c-.045,1.579.158,2.909,1.939,2.909a8.089,8.089,0,0,0,3.654-.834Z"/><path class="cls-2" d="M114.139,181.8l.609-1.9a9.545,9.545,0,0,0,4.533,1.037c2.3,0,3.406-.541,3.406-1.691,0-2.5-8.322-1.669-8.322-5.774,0-2.322,2.052-3.585,5.3-3.585a11.531,11.531,0,0,1,4.487.879l-.586,1.85a8.784,8.784,0,0,0-3.9-.925c-2.143,0-3.248.564-3.248,1.556,0,2.414,8.322,1.579,8.322,5.773,0,2.571-2.278,3.722-5.548,3.722A11.75,11.75,0,0,1,114.139,181.8Z"/><path class="cls-2" d="M128.462,176.459c0-4.127,2.368-6.586,5.705-6.586,3.519,0,5.571,2.413,5.571,6.428s-2.368,6.472-5.706,6.472C130.514,182.773,128.462,180.36,128.462,176.459Zm9.224-.045c0-2.955-1.105-4.714-3.564-4.714-2.48,0-3.608,1.8-3.608,4.646s1.1,4.6,3.563,4.6C136.558,180.946,137.686,179.142,137.686,176.414Z"/><path class="cls-2" d="M154.759,173.3v9.223h-1.8v-8.479c0-1.827-.181-2.572-1.376-2.572a3.048,3.048,0,0,0-1.962.925c.023.271.045.564.045.9v9.223h-1.8v-8.479c0-1.827-.18-2.572-1.375-2.572a2.978,2.978,0,0,0-1.917.88v10.171h-1.805v-12.4h1.489l.023,1.083a3.552,3.552,0,0,1,2.661-1.331,2.326,2.326,0,0,1,2.322,1.241,4.048,4.048,0,0,1,2.774-1.241C153.857,169.873,154.759,170.889,154.759,173.3Z"/><path class="cls-2" d="M160.106,176.346c0,3.157,1.33,4.578,3.946,4.578a8.124,8.124,0,0,0,4.105-1.06l.541,1.692a9.2,9.2,0,0,1-4.691,1.195c-3.676,0-5.954-2.075-5.954-6.292s2.594-6.563,5.842-6.563c3.7,0,5.344,2.3,4.848,6.315h-8.637Zm.158-1.759h6.54c-.045-2.075-1.015-2.932-3.045-2.932A3.306,3.306,0,0,0,160.264,174.587Z"/><path class="cls-2" d="M172.466,174.993c0-5.954,3.654-8.029,6.992-8.029a8.816,8.816,0,0,1,4.4,1.015l-.587,1.782a7.413,7.413,0,0,0-3.992-.948c-2.277,0-4.69,1.421-4.69,6.067,0,4.6,1.961,6.021,4.69,6.021a8.017,8.017,0,0,0,3.992-1.059l.542,1.714a9.078,9.078,0,0,1-4.578,1.195C175.443,182.751,172.466,180.676,172.466,174.993Z"/><path class="cls-2" d="M187.105,176.459c0-4.127,2.368-6.586,5.706-6.586,3.518,0,5.57,2.413,5.57,6.428s-2.368,6.472-5.706,6.472C189.157,182.773,187.105,180.36,187.105,176.459Zm9.224-.045c0-2.955-1.105-4.714-3.564-4.714-2.481,0-3.608,1.8-3.608,4.646s1.1,4.6,3.563,4.6C195.2,180.946,196.329,179.142,196.329,176.414Z"/><path class="cls-2" d="M201.765,176.459c0-4.127,2.368-6.586,5.706-6.586,3.518,0,5.571,2.413,5.571,6.428s-2.369,6.472-5.706,6.472C203.817,182.773,201.765,180.36,201.765,176.459Zm9.224-.045c0-2.955-1.105-4.714-3.563-4.714-2.481,0-3.609,1.8-3.609,4.646s1.1,4.6,3.564,4.6C209.861,180.946,210.989,179.142,210.989,176.414Z"/><path class="cls-2" d="M227.657,180.721v1.8H216.922v-1.8h3.225v-10.6h1.8l-.045,2.391,5.5-2.684.023,2.008-5.255,2.548v6.337Z"/><path class="cls-2" d="M241.686,164.032v18.493h-1.759v-1.331a5.971,5.971,0,0,1-4.127,1.579c-3.067-.022-4.713-2.165-4.713-5.976,0-4.961,2.458-6.9,6.156-6.9a15.143,15.143,0,0,1,2.413.18v-6.044Zm-2.03,15.742v-7.736a9.431,9.431,0,0,0-2.57-.315c-2.729,0-3.947,1.624-3.947,4.848,0,2.82.992,4.353,2.909,4.375A6.043,6.043,0,0,0,239.656,179.774Z"/><path class="cls-2" d="M256.978,180.721v1.8H246.243v-1.8h4.578v-8.8h-4.578v-1.8h6.608v10.6Zm-7.4-14.659a2.03,2.03,0,1,1,2.03,2.03A2.021,2.021,0,0,1,249.581,166.062Z"/><path class="cls-2" d="M271.053,173.977v8.548h-2.029v-8.254c0-1.827-.745-2.571-2.256-2.571a6.215,6.215,0,0,0-3.608,1.173v9.652h-2.03v-12.4h1.714V171.5a6.139,6.139,0,0,1,4.172-1.624C269.88,169.873,271.053,171.34,271.053,173.977Z"/><path class="cls-2" d="M285.443,174.384l-.113,8.141h-1.691v-1.488a5.847,5.847,0,0,1-4.353,1.736c-2.48-.022-3.879-1.33-3.879-3.405,0-2.391,2.458-3.45,7.961-3.879l.023-.88c.022-1.578-.158-2.909-2.617-2.909a9.757,9.757,0,0,0-4.33,1.06l-.541-1.692a10.906,10.906,0,0,1,5.03-1.2C285.015,169.873,285.466,171.948,285.443,174.384Zm-2.142,5.277.045-2.525c-4.15.338-5.909.923-5.909,2.187,0,1.037.722,1.647,2.12,1.669A5.545,5.545,0,0,0,283.3,179.661Z"/><path class="cls-2" d="M300.78,181.781a9.132,9.132,0,0,1-4.262.97c-3.383,0-3.992-1.85-3.947-4.511l.136-6.314h-3.045v-1.8h3.067l.068-2.932h2.1l-.383,2.932h5.818v1.8h-5.548l-.135,6.089c-.045,1.579.158,2.909,1.94,2.909a8.088,8.088,0,0,0,3.653-.834Z"/><path class="cls-2" d="M306.713,176.346c0,3.157,1.331,4.578,3.947,4.578a8.123,8.123,0,0,0,4.1-1.06l.542,1.692a9.2,9.2,0,0,1-4.691,1.195c-3.676,0-5.954-2.075-5.954-6.292s2.593-6.563,5.841-6.563c3.7,0,5.345,2.3,4.849,6.315h-8.638Zm.158-1.759h6.54c-.045-2.075-1.014-2.932-3.044-2.932A3.307,3.307,0,0,0,306.871,174.587Z"/><path class="cls-2" d="M319.389,181.8l.609-1.9a9.545,9.545,0,0,0,4.533,1.037c2.3,0,3.406-.541,3.406-1.691,0-2.5-8.322-1.669-8.322-5.774,0-2.322,2.052-3.585,5.3-3.585a11.531,11.531,0,0,1,4.487.879l-.586,1.85a8.784,8.784,0,0,0-3.9-.925c-2.143,0-3.248.564-3.248,1.556,0,2.414,8.322,1.579,8.322,5.773,0,2.571-2.278,3.722-5.548,3.722A11.75,11.75,0,0,1,319.389,181.8Z"/><path class="cls-1" d="M337.32,180.7a2.03,2.03,0,1,1,2.03,2.03A2.021,2.021,0,0,1,337.32,180.7Z"/><path class="cls-1" d="M359.6,180.721v1.8H348.868v-1.8h4.578v-8.8h-4.578v-1.8h6.608v10.6Zm-7.4-14.659a2.03,2.03,0,1,1,2.03,2.03A2.021,2.021,0,0,1,352.206,166.062Z"/><path class="cls-1" d="M373.678,173.977v8.548h-2.029v-8.254c0-1.827-.745-2.571-2.256-2.571a6.215,6.215,0,0,0-3.608,1.173v9.652h-2.03v-12.4h1.714V171.5a6.139,6.139,0,0,1,4.172-1.624C372.505,169.873,373.678,171.34,373.678,173.977Z"/><path class="cls-1" d="M378.032,181.8l.609-1.9a9.548,9.548,0,0,0,4.533,1.037c2.3,0,3.406-.541,3.406-1.691,0-2.5-8.322-1.669-8.322-5.774,0-2.322,2.052-3.585,5.3-3.585a11.531,11.531,0,0,1,4.487.879l-.586,1.85a8.784,8.784,0,0,0-3.9-.925c-2.143,0-3.248.564-3.248,1.556,0,2.414,8.322,1.579,8.322,5.773,0,2.571-2.278,3.722-5.548,3.722A11.75,11.75,0,0,1,378.032,181.8Z"/><path class="cls-1" d="M394.677,176.346c0,3.157,1.331,4.578,3.947,4.578a8.126,8.126,0,0,0,4.1-1.06l.541,1.692a9.2,9.2,0,0,1-4.691,1.195c-3.676,0-5.954-2.075-5.954-6.292s2.594-6.563,5.841-6.563c3.7,0,5.345,2.3,4.849,6.315h-8.638Zm.159-1.759h6.54c-.045-2.075-1.015-2.932-3.045-2.932A3.306,3.306,0,0,0,394.836,174.587Z"/><path class="cls-1" d="M418.246,180.721v1.8H407.511v-1.8h3.225v-10.6h1.805l-.045,2.391,5.5-2.684.023,2.008-5.255,2.548v6.337Z"/><path class="cls-1" d="M432.727,181.781a9.136,9.136,0,0,1-4.263.97c-3.383,0-3.992-1.85-3.946-4.511l.135-6.314h-3.045v-1.8h3.067l.068-2.932h2.1l-.383,2.932h5.818v1.8h-5.547l-.136,6.089c-.045,1.579.158,2.909,1.94,2.909a8.088,8.088,0,0,0,3.653-.834Z"/><path class="cls-1" d="M438.953,174.857c0-8.254,2.616-9.923,6.7-9.923v1.85c-3.089,0-4.555,1.06-4.555,7.848,0,7.239,1.466,8.3,4.555,8.3v1.848C441.569,184.78,438.953,183.337,438.953,174.857Z"/><path class="cls-2" d="M462.477,180.676v1.849h-11.1V180.45c3.947-2.413,8.548-4.871,8.548-8.795,0-1.736-.767-2.842-3.338-2.842-2.8,0-3.541,1.241-3.541,3.361a3.846,3.846,0,0,0,.181,1.376l-2.143-.159a10.506,10.506,0,0,1-.09-1.443c0-3,1.962-4.984,5.706-4.984,4.4,0,5.345,2.435,5.345,4.466,0,4.33-4.06,6.765-6.54,8.434l-1.218.541v.271Z"/><path class="cls-1" d="M473.71,181.826c0,1.984-1.218,4.308-4.6,4.308v-1.692c1.511,0,2.436-.586,2.728-2.007a1.358,1.358,0,0,1-.811.293,2.031,2.031,0,0,1,.09-4.059C472.311,178.669,473.71,179.661,473.71,181.826Z"/><path class="cls-2" d="M491.325,180.721v1.8H480.589v-1.8h4.353V164.032h2.03v16.689Z"/><path class="cls-2" d="M505.354,174.384l-.113,8.141h-1.692v-1.488a5.847,5.847,0,0,1-4.352,1.736c-2.481-.022-3.879-1.33-3.879-3.405,0-2.391,2.458-3.45,7.961-3.879l.022-.88c.023-1.578-.157-2.909-2.615-2.909a9.747,9.747,0,0,0-4.33,1.06l-.542-1.692a10.9,10.9,0,0,1,5.029-1.2C504.925,169.873,505.376,171.948,505.354,174.384Zm-2.143,5.277.045-2.525c-4.149.338-5.908.923-5.908,2.187,0,1.037.721,1.647,2.119,1.669A5.545,5.545,0,0,0,503.211,179.661Z"/><path class="cls-2" d="M509.979,181.8l.608-1.9a9.553,9.553,0,0,0,4.534,1.037c2.3,0,3.4-.541,3.4-1.691,0-2.5-8.322-1.669-8.322-5.774,0-2.322,2.052-3.585,5.3-3.585a11.54,11.54,0,0,1,4.488.879l-.587,1.85a8.781,8.781,0,0,0-3.9-.925c-2.143,0-3.248.564-3.248,1.556,0,2.414,8.322,1.579,8.322,5.773,0,2.571-2.278,3.722-5.548,3.722A11.746,11.746,0,0,1,509.979,181.8Z"/><path class="cls-2" d="M535.352,181.781a9.136,9.136,0,0,1-4.263.97c-3.383,0-3.992-1.85-3.946-4.511l.135-6.314h-3.045v-1.8H527.3l.068-2.932h2.1l-.383,2.932H534.9v1.8h-5.547l-.136,6.089c-.045,1.579.158,2.909,1.94,2.909a8.088,8.088,0,0,0,3.653-.834Z"/><path class="cls-2" d="M550.328,172.219c0,3.63-2.571,5.344-6.021,5.344H541.78v4.962h-2.074V167.189h4.871C548.027,167.189,550.328,168.858,550.328,172.219Zm-2.12.135c0-2.255-1.353-3.338-3.856-3.338H541.78v6.721h2.346C546.878,175.737,548.208,174.7,548.208,172.354Z"/><path class="cls-2" d="M553.622,176.459c0-4.127,2.368-6.586,5.706-6.586,3.518,0,5.571,2.413,5.571,6.428s-2.369,6.472-5.707,6.472C555.674,182.773,553.622,180.36,553.622,176.459Zm9.224-.045c0-2.955-1.105-4.714-3.563-4.714-2.481,0-3.609,1.8-3.609,4.646s1.105,4.6,3.564,4.6C561.718,180.946,562.846,179.142,562.846,176.414Z"/><path class="cls-2" d="M579.514,180.721v1.8H568.779v-1.8h4.579v-8.8h-4.579v-1.8h6.608v10.6Zm-7.4-14.659a2.03,2.03,0,1,1,2.03,2.03A2.021,2.021,0,0,1,572.117,166.062Z"/><path class="cls-2" d="M593.589,173.977v8.548h-2.03v-8.254c0-1.827-.744-2.571-2.255-2.571a6.22,6.22,0,0,0-3.609,1.173v9.652h-2.029v-12.4h1.713V171.5a6.143,6.143,0,0,1,4.173-1.624C592.416,169.873,593.589,171.34,593.589,173.977Z"/><path class="cls-2" d="M608.655,181.781a9.132,9.132,0,0,1-4.262.97c-3.383,0-3.992-1.85-3.947-4.511l.136-6.314h-3.045v-1.8H600.6l.068-2.932h2.1l-.383,2.932H608.2v1.8h-5.548l-.135,6.089c-.045,1.579.158,2.909,1.94,2.909a8.088,8.088,0,0,0,3.653-.834Z"/><path class="cls-1" d="M620.925,174.857c0,8.254-2.616,9.923-6.7,9.923v-1.848c3.09,0,4.556-1.061,4.556-7.849,0-7.239-1.466-8.3-4.556-8.3v-1.85C618.309,164.934,620.925,166.378,620.925,174.857Z"/><path class="cls-1" d="M566.81,364.891a16.1,16.1,0,0,1-1.583-1.968c-.333-.4-.687-.782-1.033-1.17-.158-.177-.31-.356-.47-.531l3.723,4.716a5.138,5.138,0,0,1-.559-.954A.3.3,0,0,0,566.81,364.891Z"/><path class="cls-1" d="M570.779,369.95c-.214-.227-.449-.434-.677-.649l1.612,2.043a1.22,1.22,0,0,0-.1-.223A7.8,7.8,0,0,0,570.779,369.95Z"/><path class="cls-1" d="M562.335,359.462l.5.642c-.174-.226-.344-.456-.51-.688Z"/><path class="cls-1" d="M576.785,377.45c-.287-.316-.577-.628-.86-.948a2.75,2.75,0,0,1-.581-.741,2.969,2.969,0,0,0-1.035-1.309,19.3,19.3,0,0,1-1.859-2.176l6.259,7.927a17.211,17.211,0,0,0-1.308-2.048C577.2,377.916,577,377.682,576.785,377.45Z"/><path class="cls-1" d="M563.4,360.85a3.117,3.117,0,0,0,.329.372l-.884-1.118C563.03,360.349,563.224,360.592,563.4,360.85Z"/><path class="cls-1" d="M568.724,367.788a1.9,1.9,0,0,0,.324.5c.348.34.7.675,1.054,1.009l-2.655-3.363A15.477,15.477,0,0,1,568.724,367.788Z"/><path class="cls-1" d="M572.008,371.861a3.284,3.284,0,0,1,.442.415l-.736-.932A1.145,1.145,0,0,0,572.008,371.861Z"/><path class="cls-1" d="M311.479,337.725c.173.555.373,1.1.562,1.651.044.126.079.253.129.378a1.787,1.787,0,0,0,.3-.026,8.3,8.3,0,0,1,4.178.072c.276.063.558.1.826.186a2.261,2.261,0,0,0,1.531-.09c.41-.154.823-.289,1.24-.408a6.494,6.494,0,0,1,2.646-.268,1.5,1.5,0,0,0,.581-.135,3.372,3.372,0,0,1,2.127-.034,1.076,1.076,0,0,0,.471.065,5.428,5.428,0,0,1,2.152.16.683.683,0,0,0,.565-.079.95.95,0,0,1,.271-.215l.037.047a10.867,10.867,0,0,0,3.08-.05,2.258,2.258,0,0,1,.947.011,5,5,0,0,0,2.954-.3,2.229,2.229,0,0,1,.328-.088,1.8,1.8,0,0,1,.317.138,3.059,3.059,0,0,0,2.01.15,1.712,1.712,0,0,0,1.071-.687,1.459,1.459,0,0,1,.8.09.649.649,0,0,0,.462.025,4.071,4.071,0,0,1,1.8-.072,10.414,10.414,0,0,0,2.036-.081,2.991,2.991,0,0,1,.367-.027c.237-.011.477-.011.715-.016.08,0,.166.04.239.021,1.684-.419,3.451-.051,5.125-.556a1.255,1.255,0,0,1,.474-.055c.916.1,1.83.216,2.747.311.6.063,1.2.1,1.8.142a.589.589,0,0,0,.35-.059,3.06,3.06,0,0,1,1.744-.357c.276-.018.549-.131.827-.149a7.678,7.678,0,0,1,2-.071,4.07,4.07,0,0,0,1.892-.216c.773-.247,1.577-.232,2.341-.491.211.212.4.4.578.579a47.389,47.389,0,0,1-5.1,2.279,5.978,5.978,0,0,0-2.031,1.024,1.106,1.106,0,0,1-.53.28,9.914,9.914,0,0,0-2.672,1.337c-.824.4-1.618.868-2.426,1.307a11.2,11.2,0,0,1,.9,2.289.286.286,0,0,0,.056.106c.038.052.065.108.1.16a3.011,3.011,0,0,1,.8-.387c.764-.246,1.543-.445,2.305-.692a2.829,2.829,0,0,0,.724-.388c.36-.25.682-.555,1.053-.789.784-.492,1.585-.959,2.387-1.422a8.408,8.408,0,0,1,.8-.362c.209.1.413.226.633.311a4.528,4.528,0,0,0,.589.146,5.439,5.439,0,0,0,.415-.472A6.785,6.785,0,0,1,366.776,340a5.137,5.137,0,0,0,.851-.439,8.3,8.3,0,0,1,3.884-1.537c.279-.047.556-.118.835-.144a2.262,2.262,0,0,0,1.379-.67c.319-.3.65-.583.989-.853.013-.009.026-.018.038-.028a.353.353,0,0,0-.05-.028c-.139-.045-.266-.312-.29-.491-.011-.088-.038-.17-.055-.257a.123.123,0,0,0,.012-.026c.018-.061.045-.118.064-.177-.047-.014-.087-.048-.133-.066a6.187,6.187,0,0,0-.288-.9,4.863,4.863,0,0,0-.277-.624.8.8,0,0,1-.084-.214c-.38.19-.758.386-1.138.575-.014.007-.028.011-.041.018.013-.007.027-.011.041-.018-.009-.222-.016-.444-.014-.665a.226.226,0,0,1-.026,0,3.385,3.385,0,0,0-1.143-.03,3.952,3.952,0,0,0-.412-.18c-.419-.13-.858-.194-1.27-.342-.871-.313-1.732-.654-2.593-1a8.415,8.415,0,0,1-.779-.407c-.047-.229-.077-.466-.146-.689a4.706,4.706,0,0,0-.247-.554,5.267,5.267,0,0,0-.628-.035,6.8,6.8,0,0,1-3.195-.907,5.183,5.183,0,0,0-.87-.4,8.3,8.3,0,0,1-3.607-2.108c-.208-.19-.435-.364-.628-.568a2.267,2.267,0,0,0-1.379-.671c-.433-.066-.859-.151-1.281-.252l-.047-.013c.007.02,0,.037.01.058a.673.673,0,0,1-.208.53,5.435,5.435,0,0,0-1.193,1.8.8.8,0,0,1-.117.2,22.565,22.565,0,0,1,2.5,1.268,14.085,14.085,0,0,0,1.858.85,2.738,2.738,0,0,1,.765.343,5.366,5.366,0,0,0,1.713.87,41.932,41.932,0,0,1,5.288,2.738l6.46-.4-6.46.4.042.024q-.429,0-.857.026l-1.422.088c-.236.032-.469.055-.7.083-.517.063-1.033.136-1.551.181a16.213,16.213,0,0,0-2.519.178.294.294,0,0,1-.121.011,5.179,5.179,0,0,0-1.1-.085l-4.277.263c-.306.064-.61.139-.919.186a7.85,7.85,0,0,1-1.439.02,1.327,1.327,0,0,1-.239-.047l-1.185.073a19.232,19.232,0,0,0-2.847.285,2.971,2.971,0,0,1-1.666.1,2.748,2.748,0,0,0-.941.054c-.424.05-.846.11-1.269.165-.31.042-.619.076-.93.1a17.285,17.285,0,0,1-2.428-.093l-27.129,1.665C311.4,337.4,311.431,337.566,311.479,337.725Z"/><path class="cls-1" d="M299.1,291.84a9.49,9.49,0,0,0-1.5.846c.015.056.031.111.045.165a4.385,4.385,0,0,1,.229.935,1.927,1.927,0,0,0,.558,1.417.69.69,0,0,1,.177.312c.334,1.242.887,2.415,1.153,3.683a13.974,13.974,0,0,0,.687,1.924,2.749,2.749,0,0,1,.289.788,5.392,5.392,0,0,0,.572,1.833,43.652,43.652,0,0,1,1.842,6.116,5.976,5.976,0,0,0,.746,2.15,1.1,1.1,0,0,1,.207.562,8.469,8.469,0,0,0,.912,2.675c-.01,0-.021,0-.031,0a.354.354,0,0,0-.126.045c-.062.035-.129.056-.192.088a3.356,3.356,0,0,1,.309.938c.159.883.263,1.775.422,2.656a3.157,3.157,0,0,0,.321.858c.223.437.514.839.715,1.285.383.838.735,1.69,1.086,2.543.043.1.091.207.133.312.118.288.181.6.281.941-.147.216-.313.424-.439.654a5.12,5.12,0,0,0-.25.631,6.4,6.4,0,0,0,.46.529c.067.061.111.135.173.2a8.206,8.206,0,0,1,1.589,3.064,5.655,5.655,0,0,0,.36,1.008,8.886,8.886,0,0,1,1.092,4.13,6.444,6.444,0,0,1,.652,0c.316.015.633.039.95.06.679.043,1.357.071,2.037.1-.174-.629-.446-1.238-.673-1.856a3.08,3.08,0,0,1-.322-.88,5.983,5.983,0,0,0-.636-2.049,39.96,39.96,0,0,1-1.447-4.467q-.317-1.18-.6-2.37c-.074-.309-.142-.62-.22-.926a4.355,4.355,0,0,0-.61-1.475,1.219,1.219,0,0,1-.23-.628c-.033-1.168-.731-2.1-1.082-3.158-.021-.062-.047-.124-.068-.186l.053-.024a3.035,3.035,0,0,1-.278-.841c-.143-.79-.237-1.588-.38-2.378a2.836,2.836,0,0,0-.29-.767c-.2-.391-.46-.75-.641-1.148-.385-.842-.742-1.7-1.095-2.555a8.613,8.613,0,0,1-.252-.843,6.837,6.837,0,0,0,.392-.584,4.927,4.927,0,0,0,.223-.565,5.706,5.706,0,0,0-.413-.474,6.77,6.77,0,0,1-1.58-2.919,5.2,5.2,0,0,0-.323-.9,8.305,8.305,0,0,1-1.01-4.055c-.009-.282-.044-.565-.032-.846a2.262,2.262,0,0,0-.482-1.455c-.254-.356-.491-.722-.713-1.094a6.476,6.476,0,0,1-.942-2.487,1.5,1.5,0,0,0-.28-.527,3.473,3.473,0,0,1-.537-1.671c-.151.137-.3.271-.457.4A1.894,1.894,0,0,1,299.1,291.84Z"/><path class="cls-1" d="M311.571,335.128a6.444,6.444,0,0,0-.652,0c.007.134.023.266.027.4.011.316.049.631.036.946a2.519,2.519,0,0,0,.536,1.626c.065.091.119.188.182.28.06-.006.12-.014.18-.019.311-.029.625,0,.982,0,.164.2.314.423.5.611a5.172,5.172,0,0,0,.53.423,6.3,6.3,0,0,0,.641-.286c.077-.045.16-.067.24-.108a4.722,4.722,0,0,1,.833-.318,27.443,27.443,0,0,1-.954-3.114c-.021-.1-.065-.195-.092-.294-.68-.025-1.358-.053-2.037-.1C312.2,335.167,311.887,335.143,311.571,335.128Z"/><path class="cls-1" d="M410.327,217.7a.636.636,0,0,1-.252-.307c-.168-.341-.327-.688-.49-1.033-.757.532-1.493,1.095-2.239,1.644a2.26,2.26,0,0,1-.553.377,17.546,17.546,0,0,0-2.818,1.582,9.431,9.431,0,0,0-1.08.8c-.467.349-.926.706-1.4,1.04a17.892,17.892,0,0,0-2.345,1.571.318.318,0,0,1-.109.078c-1.205.4-2.133,1.3-3.3,1.775a2.117,2.117,0,0,0-.591.313c-.678.58-1.314,1.213-2.011,1.767a8.831,8.831,0,0,1-1.384.82c-.277.146-.681.153-.861.365-.865,1.008-2.215,1.344-3.1,2.312a3.323,3.323,0,0,1-1.555,1.027,3.012,3.012,0,0,0-.883.575c-.382.284-.759.577-1.137.867-.277.211-.558.418-.843.617-.647.382-1.305.744-1.987,1.06-.174.081-.339.174-.516.246a3.92,3.92,0,0,0-.848.406c-.431.317-.874.617-1.31.926-1.215.857-2.446,1.69-3.732,2.436-1.476.857-2.737,2.019-4.208,2.873-.4.234-.813.455-1.22.678-.34.185-.678.375-1.017.564s-.7.41-1.047.612a4.826,4.826,0,0,1-.941.513,2.16,2.16,0,0,0-1.37,1.011.792.792,0,0,1-.286.28c-1.246.717-2.352,1.651-3.645,2.3a15.645,15.645,0,0,0-1.878,1.295,3.084,3.084,0,0,1-.768.538,6,6,0,0,0-1.813,1.144,40.5,40.5,0,0,1-3.942,2.554q-1.059.611-2.134,1.193c-.28.151-.562.3-.838.452a4.348,4.348,0,0,0-1.267.97,1.219,1.219,0,0,1-.547.386c-1.12.334-1.843,1.249-2.77,1.861-.055.037-.108.078-.163.115a.532.532,0,0,0-.037-.046,3,3,0,0,1-.74.486c-.726.343-1.473.64-2.2.983a2.838,2.838,0,0,0-.667.477c-.325.293-.6.639-.943.917-.714.59-1.448,1.155-2.184,1.719-.222.168-.476.294-.749.46-.22-.077-.439-.171-.667-.227a4.943,4.943,0,0,0-.6-.07c-.13.193-.259.348-.351.522a6.75,6.75,0,0,1-2.411,2.281,5.288,5.288,0,0,0-.787.546,8.291,8.291,0,0,1-3.655,2.024c-.271.081-.535.189-.809.25a2.254,2.254,0,0,0-1.282.842c-.278.337-.57.66-.871.971a6.48,6.48,0,0,1-2.16,1.554,1.494,1.494,0,0,0-.436.407,3.364,3.364,0,0,1-1.827,1.09,1.071,1.071,0,0,0-.439.179,5.379,5.379,0,0,1-1.947.935c-.173.047-.422.207-.449.351a.927.927,0,0,1-.128.321l-.055-.022a10.811,10.811,0,0,0-2.644,1.58,2.241,2.241,0,0,1-.827.464,4.988,4.988,0,0,0-2.411,1.729,2.286,2.286,0,0,1-.242.24,1.7,1.7,0,0,1-.343.037,3.067,3.067,0,0,0-1.817.874,1.709,1.709,0,0,0-.585,1.131,1.48,1.48,0,0,1-.733.318.64.64,0,0,0-.413.209,4.1,4.1,0,0,1-1.519.958,10.158,10.158,0,0,0-1.724,1.087,2.863,2.863,0,0,1-.306.2c-.2.127-.408.247-.611.371-.069.042-.164.048-.219.1-1.248,1.2-2.965,1.766-4.164,3.039a1.234,1.234,0,0,1-.383.283l-.244.107a.947.947,0,0,1,.039.195,5.432,5.432,0,0,0,.4,2.122,1.077,1.077,0,0,1,.059.471,2.724,2.724,0,0,0,.044.375c.442-.4.876-.81,1.34-1.18a7.874,7.874,0,0,1,1.237-.737c.249-.132.61-.137.772-.327.773-.9,1.981-1.206,2.775-2.075a2.988,2.988,0,0,1,1.393-.92,2.739,2.739,0,0,0,.787-.515c.343-.256.68-.518,1.017-.777.248-.192.5-.375.754-.554a16.978,16.978,0,0,1,2.24-1.173,3.354,3.354,0,0,0,.757-.366,51.077,51.077,0,0,1,4.51-3.015c1.321-.769,2.449-1.81,3.765-2.577.36-.211.725-.407,1.091-.608.3-.166.606-.336.909-.5s.622-.368.936-.55a4.366,4.366,0,0,1,.843-.461,1.928,1.928,0,0,0,1.223-.906.722.722,0,0,1,.257-.252c1.113-.643,2.1-1.481,3.26-2.065a14.107,14.107,0,0,0,1.681-1.162,2.742,2.742,0,0,1,.685-.483,5.4,5.4,0,0,0,1.623-1.026,43.737,43.737,0,0,1,5.432-3.362,5.94,5.94,0,0,0,1.884-1.277,1.1,1.1,0,0,1,.489-.345,8.46,8.46,0,0,0,2.349-1.572.162.162,0,0,0,.011.028.321.321,0,0,0,.078.11c.049.052.086.111.133.163a3.348,3.348,0,0,1,.826-.541c.812-.382,1.647-.712,2.457-1.094a3.213,3.213,0,0,0,.746-.532c.364-.328.678-.714,1.056-1.024.711-.586,1.443-1.147,2.177-1.707.089-.069.175-.141.266-.208.248-.189.531-.33.836-.516a7.535,7.535,0,0,0,.746.255,4.872,4.872,0,0,0,.673.079,6.56,6.56,0,0,0,.393-.581c.041-.081.1-.142.147-.219a8.2,8.2,0,0,1,2.549-2.327,5.745,5.745,0,0,0,.88-.608,9.252,9.252,0,0,1,4.088-2.253c.3-.093.6-.211.9-.279a2.531,2.531,0,0,0,1.433-.939c.311-.377.638-.737.975-1.084a7.205,7.205,0,0,1,2.414-1.731,1.65,1.65,0,0,0,.488-.455,3.762,3.762,0,0,1,2.042-1.215,1.217,1.217,0,0,0,.493-.2,6.071,6.071,0,0,1,2.174-1.043c.195-.052.473-.229.5-.391a1.039,1.039,0,0,1,.144-.358l.061.026a12.161,12.161,0,0,0,2.956-1.761,2.534,2.534,0,0,1,.924-.517,5.571,5.571,0,0,0,2.7-1.928,1.794,1.794,0,0,1,.214-.213c.021-.018.037-.037.056-.055a1.928,1.928,0,0,1,.383-.042,3.427,3.427,0,0,0,2.031-.972,1.582,1.582,0,0,0,.358-.451,2.182,2.182,0,0,0,.3-.811,1.665,1.665,0,0,1,.821-.356.706.706,0,0,0,.461-.232,4.59,4.59,0,0,1,1.7-1.068,11.483,11.483,0,0,0,1.928-1.211,3.68,3.68,0,0,1,.34-.23c.226-.141.457-.274.685-.412.077-.046.184-.054.244-.112,1.4-1.343,3.315-1.969,4.655-3.39a1.437,1.437,0,0,1,.429-.316c.941-.415,1.893-.808,2.835-1.226.615-.273,1.22-.569,1.824-.866a.643.643,0,0,0,.307-.251c.3-.669.931-.944,1.491-1.314.259-.173.459-.434.719-.606a8.568,8.568,0,0,1,1.9-1.179,4.552,4.552,0,0,0,1.713-1.262c.611-.669,1.4-1.1,1.994-1.777l.934.253a1.317,1.317,0,0,0,.141-.208,2.376,2.376,0,0,1,.321-.7,3.291,3.291,0,0,1,.889-.6c.528-.255,1.064-.49,1.6-.73C411.267,218.621,410.99,218,410.327,217.7Z"/><path class="cls-1" d="M299.986,290.309a5.432,5.432,0,0,1-.4-2.122.947.947,0,0,0-.039-.195c-.763.334-1.53.655-2.292.994-.192.086-.38.183-.571.273.033.11.085.215.115.327.11.4.206.806.305,1.211.082.337.169.673.254,1.008.075.3.161.588.242.881a9.49,9.49,0,0,1,1.5-.846,1.894,1.894,0,0,0,.53-.281c.154-.133.306-.267.457-.4a2.724,2.724,0,0,1-.044-.375A1.077,1.077,0,0,0,299.986,290.309Z"/><path class="cls-1" d="M440.632,198.485c-.014-.07-.016-.14-.032-.209a.341.341,0,0,1-.01-.134c0-.01,0-.02.005-.031a14.517,14.517,0,0,1-2.353.2,5.445,5.445,0,0,1-1.879.893c-.173.047-.422.207-.449.351a.927.927,0,0,1-.128.321l-.055-.022a10.811,10.811,0,0,0-2.644,1.58,2.241,2.241,0,0,1-.827.464,4.988,4.988,0,0,0-2.411,1.729,2.286,2.286,0,0,1-.242.24,1.7,1.7,0,0,1-.343.037,3.067,3.067,0,0,0-1.817.874,1.709,1.709,0,0,0-.585,1.131,1.48,1.48,0,0,1-.733.318.64.64,0,0,0-.413.209,4.1,4.1,0,0,1-1.519.958,10.158,10.158,0,0,0-1.724,1.087,2.863,2.863,0,0,1-.306.2c-.2.127-.408.247-.611.371-.069.042-.164.048-.219.1-1.248,1.2-2.965,1.766-4.164,3.039a1.234,1.234,0,0,1-.383.283c-.842.373-1.694.726-2.536,1.1-.549.246-1.091.511-1.632.778a.572.572,0,0,0-.274.225c-.268.6-.833.846-1.334,1.179-.232.154-.409.389-.642.542a7.707,7.707,0,0,1-1.7,1.059,3.666,3.666,0,0,0-1.292.906c.035.026.075.042.108.07a3.407,3.407,0,0,0,1.7,1.032.641.641,0,0,1,.331.217c.183.193.358.391.539.586.3-.225.593-.454.9-.667a16.273,16.273,0,0,0,2.1-1.41.28.28,0,0,1,.1-.07c1.076-.357,1.906-1.171,2.948-1.593a1.894,1.894,0,0,0,.53-.281c.606-.522,1.174-1.087,1.8-1.584a7.874,7.874,0,0,1,1.237-.737c.249-.132.61-.137.772-.327.773-.9,1.981-1.206,2.775-2.075a2.988,2.988,0,0,1,1.393-.92,2.739,2.739,0,0,0,.787-.515c.343-.256.68-.518,1.017-.777.248-.192.5-.375.754-.554a16.978,16.978,0,0,1,2.24-1.173,3.354,3.354,0,0,0,.757-.366,51.077,51.077,0,0,1,4.51-3.015c1.321-.769,2.449-1.81,3.765-2.577.36-.211.725-.407,1.091-.608.3-.166.606-.336.909-.505s.622-.368.936-.55a4.366,4.366,0,0,1,.843-.461,1.993,1.993,0,0,0,1.1-.767c-.564-.072-1.128-.148-1.695-.2A3.289,3.289,0,0,0,440.632,198.485Z"/><path class="cls-1" d="M669.454,317.375c-.062-.086-.135-.171-.2-.256l-.017-.026a.932.932,0,0,1-.155-.273,17.429,17.429,0,0,0-1.566-2.827,9.409,9.409,0,0,0-.8-1.085c-.345-.469-.7-.93-1.031-1.407a17.8,17.8,0,0,0-1.559-2.354.307.307,0,0,1-.076-.109c-.389-1.207-1.292-2.14-1.757-3.308a2.121,2.121,0,0,0-.31-.593c-.577-.681-1.2-1.321-1.755-2.021a8.752,8.752,0,0,1-.812-1.388c-.146-.278-.149-.682-.36-.863-1-.871-1.332-2.223-2.3-3.117a3.317,3.317,0,0,1-1.017-1.561,3.062,3.062,0,0,0-.571-.887c-.282-.383-.573-.761-.86-1.141-.21-.278-.415-.561-.612-.847a22.254,22.254,0,0,1-1.05-1.993c-.08-.174-.172-.34-.242-.518a3.873,3.873,0,0,0-.4-.849c-.313-.433-.612-.877-.918-1.315-.85-1.22-1.675-2.456-2.414-3.747-.848-1.48-2-2.748-2.85-4.224-.231-.4-.449-.815-.671-1.223-.183-.342-.37-.681-.558-1.02s-.406-.7-.605-1.051a4.9,4.9,0,0,1-.509-.943,2.153,2.153,0,0,0-1-1.376.779.779,0,0,1-.278-.289c-.711-1.249-1.638-2.36-2.282-3.657a15.708,15.708,0,0,0-1.284-1.885,3.1,3.1,0,0,1-.535-.771,5.97,5.97,0,0,0-1.134-1.82,40.036,40.036,0,0,1-2.53-3.956q-.606-1.064-1.182-2.141c-.149-.28-.3-.563-.447-.84a4.348,4.348,0,0,0-.964-1.272,1.238,1.238,0,0,1-.382-.55c-.327-1.122-1.239-1.85-1.846-2.78-.036-.056-.077-.109-.113-.164.015-.011.031-.024.046-.037a3.013,3.013,0,0,1-.482-.742c-.338-.728-.631-1.477-.97-2.2a2.816,2.816,0,0,0-.474-.669c-.291-.328-.635-.61-.911-.949-.586-.717-1.147-1.455-1.706-2.194-.168-.223-.293-.477-.458-.751.079-.22.174-.438.231-.665a4.946,4.946,0,0,0,.074-.6,5.982,5.982,0,0,0-.52-.355,6.765,6.765,0,0,1-2.268-2.423,5.278,5.278,0,0,0-.541-.791,8.289,8.289,0,0,1-2-3.666c-.081-.271-.186-.536-.246-.81a2.255,2.255,0,0,0-.835-1.286c-.336-.281-.657-.574-.967-.878a6.487,6.487,0,0,1-1.541-2.168,1.489,1.489,0,0,0-.4-.438,3.363,3.363,0,0,1-1.08-1.833,1.089,1.089,0,0,0-.176-.441,5.391,5.391,0,0,1-.925-1.951c-.046-.174-.2-.424-.348-.452a.928.928,0,0,1-.321-.129c.009-.021.014-.035.023-.055a10.851,10.851,0,0,0-1.564-2.653,2.243,2.243,0,0,1-.46-.829,4.986,4.986,0,0,0-1.716-2.421,2.391,2.391,0,0,1-.238-.244,1.633,1.633,0,0,1-.036-.343,3.066,3.066,0,0,0-.863-1.822,1.707,1.707,0,0,0-1.127-.591,1.478,1.478,0,0,1-.315-.735.644.644,0,0,0-.206-.414,4.114,4.114,0,0,1-.95-1.525,10.1,10.1,0,0,0-1.077-1.73,3.461,3.461,0,0,1-.2-.306c-.126-.2-.244-.41-.367-.615-.041-.068-.047-.163-.1-.219-1.2-1.255-1.749-2.975-3.016-4.181a1.252,1.252,0,0,1-.281-.385c-.369-.844-.717-1.7-1.087-2.541-.242-.551-.5-1.094-.768-1.637a.573.573,0,0,0-.224-.275c-.6-.272-.841-.838-1.171-1.341-.153-.232-.386-.411-.539-.645a7.714,7.714,0,0,1-1.049-1.7,3.649,3.649,0,0,0-.9-1.3c-.024.035-.042.074-.069.107a3.42,3.42,0,0,0-1.042,1.694.649.649,0,0,1-.22.33c-.193.182-.393.356-.587.536.223.3.449.595.661.9a16.178,16.178,0,0,0,1.4,2.1.277.277,0,0,1,.069.1c.35,1.079,1.16,1.913,1.576,2.958a1.9,1.9,0,0,0,.278.53c.518.61,1.081,1.181,1.575,1.807a7.8,7.8,0,0,1,.728,1.242c.131.248.135.61.323.773.9.778,1.2,1.988,2.059,2.786a2.99,2.99,0,0,1,.913,1.4,2.742,2.742,0,0,0,.511.791c.253.344.514.682.772,1.021.189.249.371.5.549.758a16.778,16.778,0,0,1,1.16,2.245,3.383,3.383,0,0,0,.361.76,50.775,50.775,0,0,1,2.989,4.527c.762,1.325,1.8,2.459,2.557,3.779.208.361.4.728.6,1.095.165.3.334.608.5.911s.364.625.543.939a4.378,4.378,0,0,1,.458.846,1.924,1.924,0,0,0,.9,1.229.7.7,0,0,1,.249.258c.638,1.117,1.47,2.111,2.048,3.271a13.928,13.928,0,0,0,1.152,1.687,2.74,2.74,0,0,1,.48.689,5.368,5.368,0,0,0,1.016,1.628,43.7,43.7,0,0,1,3.331,5.452,5.956,5.956,0,0,0,1.266,1.89,1.116,1.116,0,0,1,.343.491,8.455,8.455,0,0,0,1.559,2.358.172.172,0,0,0-.029.011.34.34,0,0,0-.11.076c-.052.05-.111.087-.164.134a3.322,3.322,0,0,1,.537.829c.377.814.7,1.65,1.08,2.463a3.175,3.175,0,0,0,.528.749c.326.365.709.681,1.017,1.061.582.715,1.139,1.45,1.7,2.186.068.09.14.177.207.268a9.479,9.479,0,0,1,.51.839c-.088.246-.195.489-.259.744a5.206,5.206,0,0,0-.082.673,6.468,6.468,0,0,0,.579.4c.08.042.142.1.218.149a8.207,8.207,0,0,1,2.312,2.561,5.779,5.779,0,0,0,.6.884,9.267,9.267,0,0,1,2.231,4.1c.09.3.207.6.274.905a2.523,2.523,0,0,0,.93,1.438c.375.313.733.641,1.079.98a7.235,7.235,0,0,1,1.718,2.425,1.666,1.666,0,0,0,.451.49,3.756,3.756,0,0,1,1.2,2.049,1.2,1.2,0,0,0,.2.494,6.045,6.045,0,0,1,1.03,2.18c.05.195.227.473.388.5a1.019,1.019,0,0,1,.357.146c-.009.022-.015.038-.026.061a12.163,12.163,0,0,0,1.745,2.966,2.508,2.508,0,0,1,.511.926,5.581,5.581,0,0,0,1.914,2.708,1.967,1.967,0,0,1,.212.216c.017.02.036.037.054.056a1.869,1.869,0,0,1,.039.383,3.421,3.421,0,0,0,.962,2.037,1.58,1.58,0,0,0,.448.36,2.18,2.18,0,0,0,.809.3,1.643,1.643,0,0,1,.351.823.711.711,0,0,0,.23.462,4.591,4.591,0,0,1,1.058,1.7,11.526,11.526,0,0,0,1.2,1.935,3.748,3.748,0,0,1,.228.341c.14.226.272.459.409.687.046.078.053.184.111.245,1.335,1.4,1.95,3.326,3.363,4.675a1.422,1.422,0,0,1,.314.43c.41.943.8,1.9,1.209,2.841.27.617.563,1.224.856,1.83a.654.654,0,0,0,.25.308c.667.3.938.937,1.306,1.5.171.26.431.462.6.723a8.534,8.534,0,0,1,1.17,1.9,4.56,4.56,0,0,0,1.252,1.72,11.333,11.333,0,0,1,1.1,1.255,11.7,11.7,0,0,0-1.871,2.513,1.39,1.39,0,0,1-.318.426c-.778.673-1.573,1.328-2.352,2-.508.442-1,.9-1.492,1.361a.635.635,0,0,0-.219.33,3.42,3.42,0,0,1-1.043,1.694c-.2.241-.311.548-.51.788a8.626,8.626,0,0,1-1.469,1.683,4.525,4.525,0,0,0-1.269,1.708c-.389.818-1.017,1.461-1.389,2.283l-.967.029a1.483,1.483,0,0,0-.074.24,2.361,2.361,0,0,1-.1.763,3.261,3.261,0,0,1-.675.836c-.165.153-.336.3-.5.447l-.007-.007-.032.043c-.258.227-.513.457-.772.683-.234.2-.469.407-.7.618a3.166,3.166,0,0,0-.551.733c-.228.385-.406.8-.637,1.184-.583.568-1.054,1.242-1.624,1.823a9.529,9.529,0,0,0-.8,1.084c-.343.469-.679.945-1.037,1.4a17.9,17.9,0,0,0-1.781,2.187.305.305,0,0,1-.083.107c-1.036.73-1.658,1.87-2.635,2.661a2.166,2.166,0,0,0-.474.472c-.478.753-.9,1.544-1.407,2.279a8.721,8.721,0,0,1-1.082,1.187c-.223.221-.607.345-.718.6-.532,1.217-1.726,1.933-2.293,3.118a3.328,3.328,0,0,1-1.188,1.437,3.06,3.06,0,0,0-.675.807c-.283.384-.557.775-.834,1.162q-.3.425-.626.836a18.737,18.737,0,0,1-2.013,1.981,3.85,3.85,0,0,0-.691.637,56.806,56.806,0,0,1-3.84,4.687c-1.162,1.251-2.029,2.73-3.186,3.979-.315.34-.643.672-.968,1-.271.278-.539.558-.807.838s-.547.6-.823.89a4.911,4.911,0,0,1-.75.767,2.155,2.155,0,0,0-1.015,1.366.772.772,0,0,1-.191.351c-.982,1.05-1.766,2.266-2.814,3.268a15.7,15.7,0,0,0-1.418,1.787,3.01,3.01,0,0,1-.575.739,5.988,5.988,0,0,0-1.4,1.625,48.792,48.792,0,0,1-4.715,5.359,6.652,6.652,0,0,0-1.6,1.975,1.24,1.24,0,0,1-.412.529c-.973.646-1.4,1.732-2.1,2.589-.652.79-1.25,1.627-1.869,2.446.1.087.2.173.3.26l-.158.211a2.237,2.237,0,0,1-.418.523,17.417,17.417,0,0,0-2.233,2.335,5.219,5.219,0,0,0-.563.763,1.7,1.7,0,0,0-.194-.234,8.309,8.309,0,0,1-2.325-3.473c-.1-.262-.233-.516-.317-.784a2.262,2.262,0,0,0-.948-1.206c-.36-.249-.706-.512-1.042-.786a6.494,6.494,0,0,1-1.73-2.021,1.491,1.491,0,0,0-.442-.4,3.365,3.365,0,0,1-1.24-1.728,1.087,1.087,0,0,0-.216-.424,5.4,5.4,0,0,1-1.1-1.858c-.062-.171-.242-.4-.388-.419a.913.913,0,0,1-.33-.1c.006-.02.01-.037.017-.057a10.862,10.862,0,0,0-1.8-2.5,2.23,2.23,0,0,1-.532-.784,5,5,0,0,0-1.927-2.258,2.337,2.337,0,0,1-.26-.219,1.77,1.77,0,0,1-.067-.339,3.059,3.059,0,0,0-1.023-1.737,1.707,1.707,0,0,0-1.175-.487,1.466,1.466,0,0,1-.38-.7.653.653,0,0,0-.243-.394,4.064,4.064,0,0,1-1.083-1.433,10.368,10.368,0,0,0-1.228-1.626,3.038,3.038,0,0,1-.231-.286c-.144-.189-.281-.386-.421-.579-.048-.064-.062-.158-.12-.208-1.3-1.144-2.01-2.806-3.38-3.892a1.266,1.266,0,0,1-.315-.358c-.443-.808-.867-1.627-1.311-2.434-.291-.528-.6-1.045-.912-1.561a.575.575,0,0,0-.248-.254c-.62-.217-.913-.758-1.288-1.229-.172-.217-.421-.376-.594-.594a7.719,7.719,0,0,1-1.2-1.6,4.063,4.063,0,0,0-1.257-1.431c-.644-.494-1.089-1.163-1.738-1.643.053-.294.1-.551.146-.8a47.567,47.567,0,0,1,4.782,2.891,5.99,5.99,0,0,0,2,1.084,1.1,1.1,0,0,1,.532.276,9.93,9.93,0,0,0,2.623,1.432c.8.445,1.636.834,2.457,1.246a11.28,11.28,0,0,1,1.365-2.045.258.258,0,0,0,.056-.106c.021-.061.052-.115.075-.173a3.058,3.058,0,0,1-.772-.434c-.638-.487-1.246-1.013-1.884-1.5a2.836,2.836,0,0,0-.731-.374c-.411-.153-.845-.243-1.248-.415-.852-.363-1.693-.754-2.531-1.149a8.722,8.722,0,0,1-.754-.452c-.033-.231-.049-.468-.105-.7a4.62,4.62,0,0,0-.216-.567,5.443,5.443,0,0,0-.625-.071,6.785,6.785,0,0,1-3.135-1.091,5.129,5.129,0,0,0-.846-.448,8.307,8.307,0,0,1-3.478-2.314c-.2-.2-.414-.389-.594-.6a2.27,2.27,0,0,0-1.338-.751c-.428-.091-.849-.2-1.264-.326l-.045-.015a.366.366,0,0,0,0,.057c.043.14-.1.4-.238.518-.065.06-.118.128-.179.192a.147.147,0,0,0-.029,0c-.06.02-.122.03-.181.048.015.047.01.1.022.147a6.227,6.227,0,0,0-.575.749,4.984,4.984,0,0,0-.354.584.851.851,0,0,1-.128.191c.372.2.749.4,1.122.607-.178.134-.356.266-.539.391,0,.007.011.014.014.021a3.377,3.377,0,0,0,.627.956,4.264,4.264,0,0,0,.087.442c.132.418.33.815.443,1.238.24.894.452,1.8.659,2.7.062.272.071.556.109.872-.161.169-.338.329-.483.513a4.783,4.783,0,0,0-.313.519,5.443,5.443,0,0,0,.329.536,6.779,6.779,0,0,1,1.077,3.141,5.2,5.2,0,0,0,.17.942,8.3,8.3,0,0,1,.326,4.165c-.037.28-.051.565-.108.839a2.262,2.262,0,0,0,.235,1.516q.288.591.524,1.2l.016.046c.012-.017.029-.023.042-.041a.674.674,0,0,1,.554-.132,5.385,5.385,0,0,0,2.157-.046.829.829,0,0,1,.229-.016,22.912,22.912,0,0,1-.385-2.778,14.03,14.03,0,0,0-.361-2.011,2.771,2.771,0,0,1-.156-.824,5.337,5.337,0,0,0-.261-1.9,41.787,41.787,0,0,1-.767-5.906l0-.046c.166.232.336.462.51.688l.884,1.118c.16.175.312.354.47.531.346.388.7.77,1.033,1.17a16.1,16.1,0,0,0,1.583,1.968.3.3,0,0,1,.078.093,5.138,5.138,0,0,0,.559.954L570.1,369.3c.228.215.463.422.677.649a7.8,7.8,0,0,1,.838,1.171,1.22,1.22,0,0,1,.1.223l.736.932a19.3,19.3,0,0,0,1.859,2.176,2.969,2.969,0,0,1,1.035,1.309,2.75,2.75,0,0,0,.581.741c.283.32.573.632.86.948.211.232.415.466.616.7a17.211,17.211,0,0,1,1.308,2.048c.015.029.034.056.049.084a3.387,3.387,0,0,0,.428.723,50.99,50.99,0,0,1,3.385,4.24c.878,1.251,2.01,2.287,2.886,3.534.24.34.467.689.7,1.036q.288.432.581.862c.2.3.42.59.626.887a4.381,4.381,0,0,1,.531.8,1.929,1.929,0,0,0,1.006,1.143.722.722,0,0,1,.273.233c.735,1.056,1.653,1.97,2.333,3.075a13.824,13.824,0,0,0,1.3,1.575c.181.216.442.4.539.643a5.343,5.343,0,0,0,1.16,1.531c.321.362.6.753.9,1.129q1.092,1.357,2.076,2.8c.024-.033.041-.071.066-.1a8.612,8.612,0,0,1,1.469-1.682,3.3,3.3,0,0,0,.7-.741,6.436,6.436,0,0,0,.565-.966c.39-.818,1.017-1.461,1.389-2.283l.967-.029a1.484,1.484,0,0,0,.074-.241,2.379,2.379,0,0,1,.1-.762,3.287,3.287,0,0,1,.675-.837c.43-.4.874-.78,1.316-1.165-.09-.075-.178-.154-.266-.231.2-.173.4-.343.6-.518a3.228,3.228,0,0,0,.558-.729c.252-.419.439-.878.709-1.286.371-.558.764-1.1,1.153-1.65.21-.3.412-.6.624-.895.182-.254.413-.471.65-.738.019,0,.04,0,.059,0L613.508,384a7.657,7.657,0,0,1,.638-.78,11.75,11.75,0,0,1,2.1-1.762c.261-.176.51-.376.783-.53a2.531,2.531,0,0,0,1.1-1.317c.187-.452.394-.891.616-1.322a7.235,7.235,0,0,1,1.8-2.361,1.692,1.692,0,0,0,.334-.576,3.751,3.751,0,0,1,1.6-1.76,1.2,1.2,0,0,0,.412-.334,6.028,6.028,0,0,1,1.775-1.632c.171-.107.384-.358.366-.521a1.087,1.087,0,0,1,.033-.385l.066.007a12.173,12.173,0,0,0,2.314-2.548,2.468,2.468,0,0,1,.732-.764,5.574,5.574,0,0,0,2.015-2.632,2.639,2.639,0,0,1,.18-.335,1.827,1.827,0,0,1,.356-.153,3.415,3.415,0,0,0,1.656-1.523,1.9,1.9,0,0,0,.259-1.4,1.644,1.644,0,0,1,.681-.579.719.719,0,0,0,.373-.357,4.585,4.585,0,0,1,1.313-1.518A11.454,11.454,0,0,0,636.5,357.2a3.732,3.732,0,0,1,.258-.318c.174-.2.357-.4.535-.594.059-.068.159-.106.2-.181.944-1.692,2.6-2.851,3.463-4.6a1.372,1.372,0,0,1,.317-.428c.778-.673,1.573-1.327,2.352-2,.508-.441,1-.9,1.492-1.361a.649.649,0,0,0,.22-.33,3.42,3.42,0,0,1,1.042-1.694c.2-.24.312-.548.511-.788a8.606,8.606,0,0,1,1.468-1.682,4.535,4.535,0,0,0,1.27-1.708c.307-.646.758-1.185,1.119-1.786.072.065.146.127.216.194.008,0,.013-.015.021-.02a3.5,3.5,0,0,0,.732-.692l.267-.007a1.464,1.464,0,0,0,.074-.242c.009-.068.009-.142.012-.214.333-.484.626-1,1-1.455.1-.121.186-.246.281-.368l.032-.045c.258-.227.513-.457.772-.683-.054-.044-.106-.091-.159-.137.337-.454.677-.908,1.015-1.361a2.251,2.251,0,0,1,.419-.523,17.311,17.311,0,0,0,2.233-2.337,9.524,9.524,0,0,0,.8-1.083c.343-.468.678-.946,1.036-1.4a17.815,17.815,0,0,0,1.781-2.188.316.316,0,0,1,.083-.106c1.036-.731,1.659-1.871,2.634-2.661a2.18,2.18,0,0,0,.476-.473c.477-.753.9-1.543,1.406-2.277a8.686,8.686,0,0,1,1.083-1.189c.167-.166.395-.292.561-.446.006.013.017.023.023.036.251.529.484,1.066.721,1.6.558-.362,1.182-.634,1.483-1.3a.648.648,0,0,1,.309-.25c.343-.166.691-.324,1.036-.485C670.558,318.863,670,318.124,669.454,317.375Z"/></svg>