<svg id="Layer_1" data-name="Layer 1" xmlns="http://www.w3.org/2000/svg" viewBox="0 0 952 294.078"><defs><style>.cls-1{fill:none;}.cls-2{fill:#f36;}.cls-3{fill:#1858a8;}.cls-4{fill:#ffeded;}.cls-5{isolation:isolate;}</style></defs><title>matrix-number</title><g id="Livello_1" data-name="Livello 1"><path class="cls-1" d="M567.1,14.9v.014s.006-.009.006-.015Z"/></g><path class="cls-2" d="M531.888,58.866a23.224,23.224,0,0,0,2.388-2.609,2.287,2.287,0,0,1,.649-.542,3.43,3.43,0,0,0,1.119-.976c.659-.8,1.317-1.61,1.988-2.4a1.781,1.781,0,0,1,.621-.571,4.042,4.042,0,0,0,1.153-.915A17.319,17.319,0,0,0,541.587,49a2.715,2.715,0,0,1,.7-.459c.429-.246.9-.437,1.075-.975a.557.557,0,0,1,.191-.253,18.258,18.258,0,0,0,2.428-2.716A5.57,5.57,0,0,1,547,43.652a9.359,9.359,0,0,0,2.14-1.924c.2-.249.459-.448.681-.679a35.152,35.152,0,0,0,2.946-3.107,2.1,2.1,0,0,0,.286-.451,1.221,1.221,0,0,1,.989-.857,1.7,1.7,0,0,0,1.139-1.054,10.917,10.917,0,0,1,1.245-1.743,3.432,3.432,0,0,0,.462-.591,2.16,2.16,0,0,1,1.367-1.386c.782-.834,1.8-1.408,2.509-2.325a10.417,10.417,0,0,1,2.228-2.306,2.013,2.013,0,0,0,.454-.575,2.264,2.264,0,0,1,.813-.836,2.431,2.431,0,0,0,1.042-1.176c.077-.159.161-.315.263-.513a2.162,2.162,0,0,0,1.469-.909,1.562,1.562,0,0,1,.323-.278,7.529,7.529,0,0,0,1.8-1.929,4.826,4.826,0,0,1,1.9-1.99c.388-.2.594-.647,1.046-.85a4.287,4.287,0,0,0,1.019-.928.631.631,0,0,0,.185-.256c.214-.868.961-1.3,1.547-1.841a5.317,5.317,0,0,0,1.214-1.48,4.54,4.54,0,0,1,1.007-1.234,7.905,7.905,0,0,0,1.734-1.856,13.215,13.215,0,0,0,1.7-1.776.235.235,0,0,1,.081-.069,2.951,2.951,0,0,0,1.349-1.078c-.185.053-.37.107-.55.168-2,.67-4.043.182-6.043.645a.794.794,0,0,1-.68-.192c-1.087-1.036-2.259-.675-3.426-.528-1.4.177-2.806.536-4.2-.131-1.262-.605-2.516-1.294-3.837-.236-.18.143-.461.025-.7.014-1.324-.064-2.654-.031-3.968-.222-1.294-.19-2.62.729-3.885-.273-.105-.083-.313.028-.45.123a3.473,3.473,0,0,1-2.988.244,1.6,1.6,0,0,0-1.557.415c-.93,1.256-1.894.842-2.861.448a8.654,8.654,0,0,0-4.876-.455c-1.055.178-2.114.325-3.171.474a.658.658,0,0,1-.119-.091,2.933,2.933,0,0,0-.792-.718.237.237,0,0,1-.069-.061,2.362,2.362,0,0,0-.391-.383c-.029-.01-.06-.02-.1-.036h-.026c-.058,0-.058-.052-.115,0-.224.164-.4-.043-.633-.037a.462.462,0,0,1-.288-.1A.373.373,0,0,0,536,6.67c-.029,0-.046-.017-.071-.022-.159.064-.345.046-.442.14h-.056c-.234-.1-.458.064-.628.121-.057,0-.055.054-.114.055,0-.053-.06-.1-.063-.21a1.21,1.21,0,0,1-.46-.041h-.172c-.088.018-.169.055-.253.078l-.022.007a3.757,3.757,0,0,0-.463.144c-.115,0-.172.057-.288.007a5.205,5.205,0,0,0-.759-.033h-.16a1.227,1.227,0,0,1-.629.068c-.128,0-.255-.006-.373-.008.007.008.009.017.02.025.668.457.605.9.321,1.335a3.715,3.715,0,0,0-1.835-.468c-.021.288-.04.575-.058.863-.047.84-.077,1.682-.061,2.526a8.382,8.382,0,0,0-.118,5.65c.039.161.078.324.119.487a14.3,14.3,0,0,1,.205,2.346c.015.221.032.442.049.664a40.176,40.176,0,0,0,.741,5.986c.351,1.548.652,3.365-.164,4.889a4.978,4.978,0,0,0-.238,4.118,8.51,8.51,0,0,1,.264,1.64,89.535,89.535,0,0,1,.212,10.347c-.011.917-.016,1.833-.01,2.748v.476a1.3,1.3,0,0,1-.537.653.818.818,0,0,0-.275.951c.264,1.217.553,2.435.895,3.649.011,1.053-.038,2.1-.115,3.142-.04.062-.063.124-.111.187-.319.428-.64.855-.013,1.271-.008.077-.02.154-.028.231a5.684,5.684,0,0,0,.627-.554C531.3,59.761,531.5,59.2,531.888,58.866ZM571.2,14.9h0a.016.016,0,0,1-.006.015Z"/><path class="cls-3" d="M582.135,51.408a11.352,11.352,0,0,1-.046-5.308c.565-2.278.083-4.7.418-7.019a5.1,5.1,0,0,1,.038-3.546,1.8,1.8,0,0,0-.078-.968,12.211,12.211,0,0,1-.15-3.977c.064-3.054.991-6.179-.218-9.179a2,2,0,0,1,.021-.664c.074-1.987-.046-3.968-.11-5.955a37.336,37.336,0,0,1,.046-4.165c.079-1,.092-2.017.089-3.033-.067.018-.132.042-.2.061A2.947,2.947,0,0,1,580.6,8.733a.235.235,0,0,0-.081.069,13.215,13.215,0,0,1-1.7,1.776,7.905,7.905,0,0,1-1.734,1.856,4.54,4.54,0,0,0-1.007,1.234,5.317,5.317,0,0,1-1.214,1.48c-.586.544-1.333.973-1.547,1.841a.631.631,0,0,1-.185.256,4.287,4.287,0,0,1-1.019.928c-.452.2-.658.655-1.046.85a4.826,4.826,0,0,0-1.9,1.99,7.529,7.529,0,0,1-1.8,1.929,1.562,1.562,0,0,0-.323.278,2.162,2.162,0,0,1-1.469.909c-.1.2-.186.354-.263.513a2.431,2.431,0,0,1-1.042,1.176,2.264,2.264,0,0,0-.813.836,2.013,2.013,0,0,1-.454.575,10.417,10.417,0,0,0-2.228,2.306c-.714.917-1.727,1.491-2.509,2.325a2.16,2.16,0,0,0-1.367,1.386,3.432,3.432,0,0,1-.462.591,10.917,10.917,0,0,0-1.245,1.743,1.7,1.7,0,0,1-1.139,1.054,1.221,1.221,0,0,0-.989.857,2.1,2.1,0,0,1-.286.451,35.152,35.152,0,0,1-2.946,3.107c-.222.231-.483.43-.681.679A9.345,9.345,0,0,1,547,43.652a5.548,5.548,0,0,0-1.019.941,18.258,18.258,0,0,1-2.428,2.716.557.557,0,0,0-.191.253c-.178.538-.646.729-1.075.975a2.715,2.715,0,0,0-.7.459,17.319,17.319,0,0,1-1.781,1.853c-.379.312-.651.734-1.153.915a1.789,1.789,0,0,0-.621.571c-.671.794-1.329,1.6-1.988,2.4a3.43,3.43,0,0,1-1.119.976,2.287,2.287,0,0,0-.649.542,23.224,23.224,0,0,1-2.388,2.609c-.393.333-.592.9-.955,1.28a5.684,5.684,0,0,1-.627.554c-.057.527-.117,1.052-.19,1.577a3.741,3.741,0,0,1,.865-.057.861.861,0,0,0,.151.574,1.064,1.064,0,0,1,.62-.152v-.076h.083l.352-.006.681-.013a.818.818,0,0,0,.154-.043,5.635,5.635,0,0,0,1.054.059,2.667,2.667,0,0,0,.986-.23c.038-.017.075-.022.113-.039,2.519-1.091,5.069.251,7.56-.548a.476.476,0,0,1,.371.094,2.858,2.858,0,0,1,.289.2,2.768,2.768,0,0,0,3.178.132,2.851,2.851,0,0,1,1.588-.226c2.7.427,5.4,1,8.1-.119a1.1,1.1,0,0,1,.7-.016c2.407.658,4.822-.135,7.248.111,2.078.211,4.211.594,6.312-.062.293-.093.62.063.931.072a14.8,14.8,0,0,0,2.8.035,20.006,20.006,0,0,1,7.454-.1q-.093-1.449-.187-2.894a3.969,3.969,0,0,1,.527-2.808,4.063,4.063,0,0,0,.449-3.151C582.415,52.467,582.255,51.943,582.135,51.408Z"/><path class="cls-1" d="M361.786,226.217h0a.016.016,0,0,0,.015-.006Z"/><path class="cls-2" d="M357.557,235.474c.839-.686,1.448-1.581,2.237-2.3.052-.048.138-.087.154-.143.307-1.046,1.28-1.47,1.981-2.139a2.917,2.917,0,0,0,.841-.944.449.449,0,0,1,.192-.243,1.232,1.232,0,0,0,.8-.789c.616-.421,1.012-1.114,1.689-1.458a2.7,2.7,0,0,0,1.169-1.212,4.624,4.624,0,0,1,.252-.471,1.006,1.006,0,0,1,.836-.576.99.99,0,0,0,.784-.473c.775-.941,1.569-1.867,2.324-2.824.436-.553.82-1.149,1.212-1.735a4.385,4.385,0,0,1,2.254-1.856,2.059,2.059,0,0,0,.749-.564,9.03,9.03,0,0,0,1.36-2.461c.2-.06.427-.145.658-.194a1.886,1.886,0,0,0,1.632-1.143.267.267,0,0,1,.141-.145c.548-.185.81-.686,1.143-1.095a7.733,7.733,0,0,1,1.752-1.721,3.228,3.228,0,0,0,1.4-1.959,3.257,3.257,0,0,1,1-1.577c.372-.062.714-.1,1.051-.177a3.917,3.917,0,0,0,2.371-1.865,6.326,6.326,0,0,1,.732-.9,14.629,14.629,0,0,0,1.577-1.9,3.869,3.869,0,0,1,1-1.087,5.1,5.1,0,0,0,1.067-1.048,22.454,22.454,0,0,1,2.468-2.663c.394-.352.88-.606,1.241-.985.337-.355.513-.868.853-1.219a4.574,4.574,0,0,1,2.154-1.5,1.187,1.187,0,0,0,.579-.427,10.849,10.849,0,0,1,1.579-1.57,4.414,4.414,0,0,0,1.079-1.317c.081-.158.171-.313.262-.466.348-.586,1-.9,1.3-1.548s.966-.938,1.451-1.409c.587-.57,1.209-1.1,1.819-1.649.159-.143.324-.28.493-.409.025-.019.042-.043.065-.062-.384-.44-.776-.181-1.169.113-.062.048-.125.071-.187.111-1.043.076-2.089.125-3.142.115-1.214-.342-2.431-.631-3.649-.9a.821.821,0,0,0-.952.274,1.3,1.3,0,0,1-.652.538h-.476q-1.373-.009-2.747.009a89.547,89.547,0,0,1-10.348-.211,8.522,8.522,0,0,1-1.641-.265,4.979,4.979,0,0,0-4.117.239c-1.524.816-3.342.515-4.889.164a40.178,40.178,0,0,0-5.986-.742l-.664-.049a14.3,14.3,0,0,1-2.346-.2c-.163-.042-.325-.08-.487-.12a8.388,8.388,0,0,0-5.65.119c-.844-.017-1.685.013-2.525.061-.289.018-.576.037-.864.058a3.725,3.725,0,0,0,.468,1.834c-.438.284-.878.347-1.335-.32-.008-.011-.017-.012-.025-.02,0,.118.012.245.009.372a1.243,1.243,0,0,1-.069.63v.159a5.077,5.077,0,0,0,.033.76c.05.115,0,.172-.007.288a3.757,3.757,0,0,0-.144.463l-.006.021c-.024.084-.061.166-.079.254v.172a1.207,1.207,0,0,1,.041.459c.106,0,.158.062.21.063,0,.06-.054.058-.055.115-.057.17-.221.394-.121.627v.057c-.1.1-.077.282-.141.442,0,.024.023.041.022.07a.371.371,0,0,0,.048.233.462.462,0,0,1,.1.288c-.006.228.2.408.038.633-.055.056,0,.056,0,.115v.026c.015.039.025.07.035.1a2.407,2.407,0,0,0,.383.392.24.24,0,0,1,.062.069,2.913,2.913,0,0,0,.717.792.651.651,0,0,1,.091.118c-.148,1.057-.3,2.117-.474,3.171a8.654,8.654,0,0,0,.455,4.876c.4.968.808,1.931-.448,2.861a1.6,1.6,0,0,0-.415,1.557,3.473,3.473,0,0,1-.244,2.988c-.1.137-.206.346-.123.45,1,1.265.084,2.591.273,3.885.192,1.314.159,2.644.221,3.968.011.235.129.516-.013.7-1.058,1.322-.369,2.576.236,3.837.667,1.39.309,2.8.131,4.2-.147,1.166-.507,2.339.528,3.425a.787.787,0,0,1,.192.68c-.462,2,.026,4.042-.645,6.043-.082.246-.162.5-.229.749.481,0,.957-.031,1.436-.042A19.734,19.734,0,0,1,357.557,235.474Zm4.229-9.257h.015a.037.037,0,0,1-.015.006Z"/><path class="cls-3" d="M409.446,187.2l.007-.351v-.083h.075a1.064,1.064,0,0,1,.152-.62.852.852,0,0,0-.573-.15,3.761,3.761,0,0,1,.056-.867c-.6.085-1.2.156-1.808.219-.034-.051-.068-.061-.1-.1-.023.019-.04.043-.065.062-.169.129-.334.266-.493.409-.61.546-1.232,1.079-1.819,1.649-.485.471-1.151.779-1.451,1.409s-.955.962-1.3,1.548c-.091.153-.181.308-.262.466a4.414,4.414,0,0,1-1.079,1.317,10.849,10.849,0,0,0-1.579,1.57,1.183,1.183,0,0,1-.579.427,4.574,4.574,0,0,0-2.154,1.5c-.34.351-.516.864-.853,1.219-.361.379-.847.633-1.241.985a22.454,22.454,0,0,0-2.468,2.663,5.1,5.1,0,0,1-1.067,1.048,3.869,3.869,0,0,0-1,1.087,14.629,14.629,0,0,1-1.577,1.9,6.326,6.326,0,0,0-.732.9,3.917,3.917,0,0,1-2.371,1.865c-.337.075-.679.115-1.051.177a3.257,3.257,0,0,0-1,1.577,3.228,3.228,0,0,1-1.395,1.959,7.754,7.754,0,0,0-1.752,1.721c-.333.409-.6.91-1.143,1.095a.27.27,0,0,0-.141.145,1.886,1.886,0,0,1-1.632,1.143c-.231.049-.457.134-.658.194a9.03,9.03,0,0,1-1.36,2.461,2.059,2.059,0,0,1-.749.564,4.385,4.385,0,0,0-2.254,1.856c-.392.586-.776,1.182-1.212,1.735-.755.957-1.549,1.883-2.324,2.824a.99.99,0,0,1-.784.473,1.006,1.006,0,0,0-.836.576,4.624,4.624,0,0,0-.252.471,2.7,2.7,0,0,1-1.169,1.212c-.677.344-1.073,1.037-1.689,1.458a1.232,1.232,0,0,1-.8.789.449.449,0,0,0-.192.243,2.917,2.917,0,0,1-.841.944c-.7.669-1.674,1.093-1.981,2.139-.016.056-.1.1-.154.143-.789.723-1.4,1.618-2.237,2.3a19.674,19.674,0,0,0-1.639,1.641c.533-.012,1.069,0,1.6-.047,3.4-.27,6.749.189,10.12.065a2.028,2.028,0,0,1,.664-.022c3,1.21,6.125.282,9.18.218a12.182,12.182,0,0,1,3.977.151,1.82,1.82,0,0,0,.967.078,5.093,5.093,0,0,1,3.547-.038c2.317-.335,4.74.147,7.018-.418a11.352,11.352,0,0,1,5.308.046c.536.12,1.06.28,1.608.357a5.635,5.635,0,0,0,2.306-.04,2.506,2.506,0,0,0,.844-.409,3.975,3.975,0,0,1,2.808-.528q1.446.1,2.894.188a17.48,17.48,0,0,1-.135-5.768q.1-.843.235-1.686a14.8,14.8,0,0,0-.035-2.8c-.009-.311-.164-.639-.072-.931.657-2.1.273-4.234.062-6.313-.245-2.426.548-4.84-.111-7.247a1.11,1.11,0,0,1,.016-.7c1.119-2.7.546-5.4.118-8.1a2.847,2.847,0,0,1,.227-1.587,2.769,2.769,0,0,0-.132-3.179,2.277,2.277,0,0,1-.2-.288.481.481,0,0,1-.095-.372c.8-2.491-.543-5.041.549-7.559.016-.039.022-.075.039-.114a3.643,3.643,0,0,0,.171-2.04.806.806,0,0,0,.042-.153Z"/><path class="cls-1" d="M424.53,191.26h0a.016.016,0,0,0,.006.015Z"/><path class="cls-2" d="M415.111,237.493a1.654,1.654,0,0,1,.613-.976c.744-.664,1.507-1.3,2.233-1.987a6.181,6.181,0,0,0,.666-.925l.743-.169a3.557,3.557,0,0,1,1.545-1.728,2.082,2.082,0,0,0,.422-.325,25.259,25.259,0,0,1,1.786-1.843c.831-.7,1.428-1.6,2.208-2.331.052-.049.137-.089.153-.145.294-1.049,1.262-1.485,1.954-2.163a2.894,2.894,0,0,0,.83-.954.442.442,0,0,1,.19-.245,1.23,1.23,0,0,0,.792-.8c.611-.429,1-1.127,1.672-1.479a2.712,2.712,0,0,0,1.154-1.226,5.318,5.318,0,0,1,.246-.474,1.009,1.009,0,0,1,.829-.586.989.989,0,0,0,.778-.482c.764-.951,1.547-1.887,2.29-2.853.43-.558.806-1.159,1.191-1.749a4.38,4.38,0,0,1,2.231-1.883,2.048,2.048,0,0,0,.743-.574,8.969,8.969,0,0,0,1.329-2.476c.2-.063.425-.151.656-.2a1.887,1.887,0,0,0,1.618-1.163.283.283,0,0,1,.139-.146c.547-.191.8-.7,1.13-1.108a7.717,7.717,0,0,1,1.731-1.743,3.22,3.22,0,0,0,1.371-1.975,3.253,3.253,0,0,1,.979-1.59c.371-.066.713-.11,1.049-.19a3.911,3.911,0,0,0,2.348-1.893,6.339,6.339,0,0,1,.721-.912,14.606,14.606,0,0,0,1.554-1.918,3.879,3.879,0,0,1,.985-1.1,5.072,5.072,0,0,0,1.054-1.061,22.676,22.676,0,0,1,2.435-2.692c.39-.358.873-.616,1.229-1,.333-.358.5-.875.839-1.229a4.567,4.567,0,0,1,2.136-1.524,1.187,1.187,0,0,0,.574-.435,10.843,10.843,0,0,1,1.559-1.589,5.517,5.517,0,0,0,.427-.438V185.1c-.018-.288-.037-.575-.058-.863a3.715,3.715,0,0,0-1.835.468c-.284-.438-.346-.878.321-1.335.011-.008.012-.017.02-.025-.118,0-.246.011-.373.008a1.227,1.227,0,0,1-.629-.068h-.16a5.213,5.213,0,0,0-.76.033c-.115.05-.172,0-.287-.007a3.757,3.757,0,0,0-.463-.144L462,183.16c-.084-.023-.166-.06-.253-.078h-.172a1.21,1.21,0,0,1-.46.041c0,.106-.062.157-.063.21-.059,0-.057-.054-.114-.055-.17-.057-.394-.221-.628-.121h-.056c-.1-.094-.283-.076-.442-.14-.025,0-.042.024-.071.022a.37.37,0,0,0-.232.048.465.465,0,0,1-.289.1c-.228-.006-.408.2-.632.037-.056-.054-.056,0-.115,0h-.026c-.04.016-.071.026-.1.036a2.362,2.362,0,0,0-.391.383.24.24,0,0,1-.069.062,2.9,2.9,0,0,0-.792.717.58.58,0,0,1-.118.091c-1.058-.149-2.117-.3-3.172-.474a8.654,8.654,0,0,0-4.876.455c-.967.394-1.931.808-2.861-.448a1.6,1.6,0,0,0-1.556-.415,3.472,3.472,0,0,1-2.989-.244c-.137-.095-.345-.206-.449-.123-1.265,1-2.591.083-3.886.273-1.313.192-2.644.159-3.967.222-.235.011-.516.129-.7-.014-1.321-1.058-2.575-.369-3.837.236-1.389.667-2.8.308-4.195.131-1.166-.147-2.339-.508-3.426.528a.794.794,0,0,1-.68.192c-2-.463-4.041.025-6.043-.645-.245-.083-.5-.162-.749-.229,0,1.016.009,2.03.089,3.033.27,3.4-.188,6.748-.064,10.12a2,2,0,0,1,.021.664c-1.209,3-.282,6.125-.218,9.179a12.189,12.189,0,0,1-.15,3.978,1.82,1.82,0,0,0-.078.967,5.1,5.1,0,0,1,.038,3.546c.335,2.318-.147,4.741.418,7.019a11.352,11.352,0,0,1-.047,5.308c-.119.535-.279,1.059-.356,1.607a4.063,4.063,0,0,0,.449,3.151,3.97,3.97,0,0,1,.528,2.808q-.1,1.446-.188,2.894c.224-.047.447-.059.67-.1.062-.06.128-.117.189-.178A.9.9,0,0,0,415.111,237.493Zm9.419-46.233v.014a.037.037,0,0,1-.006-.015Z"/><path class="cls-3" d="M466.3,187.626c.015-.806-.014-1.61-.058-2.412a5.517,5.517,0,0,1-.427.438,10.843,10.843,0,0,0-1.559,1.589,1.187,1.187,0,0,1-.574.435,4.567,4.567,0,0,0-2.136,1.524c-.336.354-.506.871-.839,1.229-.356.384-.839.642-1.229,1a22.676,22.676,0,0,0-2.435,2.692,5.072,5.072,0,0,1-1.054,1.061,3.879,3.879,0,0,0-.985,1.1,14.606,14.606,0,0,1-1.554,1.918,6.339,6.339,0,0,0-.721.912A3.914,3.914,0,0,1,450.382,201c-.336.08-.678.124-1.049.19a3.253,3.253,0,0,0-.979,1.59,3.22,3.22,0,0,1-1.371,1.975,7.717,7.717,0,0,0-1.731,1.743c-.328.413-.583.917-1.13,1.108a.283.283,0,0,0-.139.146,1.887,1.887,0,0,1-1.618,1.163c-.231.052-.456.14-.656.2a8.969,8.969,0,0,1-1.329,2.476,2.048,2.048,0,0,1-.743.574,4.38,4.38,0,0,0-2.231,1.883c-.385.59-.761,1.191-1.191,1.749-.743.966-1.526,1.9-2.29,2.853a.991.991,0,0,1-.778.482,1.009,1.009,0,0,0-.829.586,5.318,5.318,0,0,0-.246.474,2.712,2.712,0,0,1-1.154,1.226c-.673.352-1.061,1.05-1.672,1.479a1.233,1.233,0,0,1-.792.8.442.442,0,0,0-.19.245,2.905,2.905,0,0,1-.83.954c-.692.678-1.66,1.114-1.954,2.163-.016.056-.1.1-.153.145-.78.733-1.377,1.635-2.208,2.331a25.053,25.053,0,0,0-1.786,1.843,2.082,2.082,0,0,1-.422.325,3.552,3.552,0,0,0-1.545,1.728l-.743.169a6.253,6.253,0,0,1-.666.925c-.726.683-1.489,1.323-2.233,1.987a1.654,1.654,0,0,0-.613.976.9.9,0,0,1-.221.462c-.061.061-.127.118-.189.178a21.161,21.161,0,0,1,6.784.2,14.8,14.8,0,0,0,2.8-.035c.311-.009.638-.165.931-.072,2.1.656,4.234.273,6.312.062,2.427-.246,4.841.547,7.248-.11a1.083,1.083,0,0,1,.7.016c2.695,1.117,5.395.545,8.1.118a2.847,2.847,0,0,1,1.587.226,2.769,2.769,0,0,0,3.179-.132,2.607,2.607,0,0,1,.289-.2.475.475,0,0,1,.371-.095c2.427.779,4.91-.458,7.366.486.064.025.129.034.194.062.038.017.075.022.113.039a3.625,3.625,0,0,0,2.04.171.818.818,0,0,0,.154.043l.681.014.352.006h.083V239a1.065,1.065,0,0,1,.62.152.861.861,0,0,0,.151-.574,3.69,3.69,0,0,1,.865.057c-.084-.6-.155-1.2-.218-1.808.626-.416.306-.843-.013-1.271-.048-.063-.071-.125-.111-.187-.043-.588-.045-1.18-.065-1.771-.015-.456-.055-.911-.05-1.371.342-1.214.631-2.432.9-3.649a.818.818,0,0,0-.275-.951,1.305,1.305,0,0,1-.537-.653V226.5c.006-.915,0-1.831-.01-2.748a89.535,89.535,0,0,1,.212-10.347,8.588,8.588,0,0,1,.264-1.64,4.978,4.978,0,0,0-.238-4.118c-.816-1.524-.515-3.341-.164-4.889a40.178,40.178,0,0,0,.742-5.986c.017-.221.033-.443.049-.664a14.3,14.3,0,0,1,.2-2.346c.041-.163.079-.326.12-.487A8.386,8.386,0,0,0,466.3,187.626Z"/><path class="cls-2" d="M473.328,234.211a6.171,6.171,0,0,0,.678-.915l.746-.159a3.551,3.551,0,0,1,1.568-1.706,2.079,2.079,0,0,0,.426-.321,25.022,25.022,0,0,1,1.811-1.816c.841-.686,1.45-1.579,2.241-2.3.052-.047.137-.087.154-.142.309-1.045,1.283-1.467,1.984-2.136a2.9,2.9,0,0,0,.843-.944.443.443,0,0,1,.193-.241,1.231,1.231,0,0,0,.8-.788c.617-.42,1.015-1.112,1.692-1.455a2.713,2.713,0,0,0,1.171-1.21,5.186,5.186,0,0,1,.252-.471,1.006,1.006,0,0,1,.837-.574.992.992,0,0,0,.785-.472c.777-.941,1.573-1.865,2.329-2.821.437-.552.822-1.148,1.215-1.732a4.377,4.377,0,0,1,2.257-1.853,2.041,2.041,0,0,0,.75-.564,8.962,8.962,0,0,0,1.363-2.457c.2-.061.428-.145.659-.194a1.885,1.885,0,0,0,1.634-1.141.272.272,0,0,1,.141-.144c.549-.184.811-.684,1.145-1.092a7.717,7.717,0,0,1,1.754-1.72,3.218,3.218,0,0,0,1.4-1.955,3.257,3.257,0,0,1,1-1.577c.372-.06.714-.1,1.051-.175a3.913,3.913,0,0,0,2.374-1.861,6.34,6.34,0,0,1,.734-.9,14.5,14.5,0,0,0,1.58-1.9,3.876,3.876,0,0,1,1-1.085,5.116,5.116,0,0,0,1.069-1.045,22.383,22.383,0,0,1,2.472-2.66c.394-.351.88-.6,1.242-.982.338-.355.514-.868.855-1.218a4.575,4.575,0,0,1,2.157-1.5,1.194,1.194,0,0,0,.58-.426A10.752,10.752,0,0,1,521.853,186a4.678,4.678,0,0,0,.876-1.012c-.33.013-.664,0-.993.029-3.4.271-6.748-.188-10.12-.064a2,2,0,0,1-.664.021c-3-1.209-6.125-.282-9.18-.217a12.239,12.239,0,0,1-3.977-.151,1.819,1.819,0,0,0-.967-.078,5.11,5.11,0,0,1-3.547.039c-2.317.334-4.74-.149-7.018.416a11.325,11.325,0,0,1-5.308-.046c-.536-.119-1.06-.279-1.607-.355a4.059,4.059,0,0,0-3.151.447,3.965,3.965,0,0,1-2.808.529q-1.446-.1-2.894-.187a20,20,0,0,1-.1,7.453,14.8,14.8,0,0,0,.035,2.8c.009.313.164.639.072.933-.657,2.1-.273,4.232-.062,6.311.245,2.427-.547,4.841.11,7.247a1.1,1.1,0,0,1-.015.7c-1.119,2.7-.546,5.4-.118,8.1a2.847,2.847,0,0,1-.227,1.587,2.769,2.769,0,0,0,.132,3.179,2.288,2.288,0,0,1,.2.289.481.481,0,0,1,.1.371c-.8,2.492.543,5.041-.549,7.56-.016.038-.022.075-.039.113a3.643,3.643,0,0,0-.171,2.04.816.816,0,0,0-.042.154l-.014.681-.006.352v.083h-.075a1.079,1.079,0,0,1-.152.62.852.852,0,0,0,.573.15,3.7,3.7,0,0,1-.057.866c.152-.022.3-.036.455-.055a1.864,1.864,0,0,1,.528-.731C471.821,235.515,472.592,234.884,473.328,234.211Z"/><path class="cls-3" d="M517.464,195.866h0a.016.016,0,0,0-.015.006Z"/><path class="cls-3" d="M525.4,232.381c0-.058.054-.057.055-.113.057-.171.221-.4.121-.628v-.057c.094-.1.076-.283.14-.443,0-.024-.023-.041-.022-.07a.368.368,0,0,0-.048-.232.459.459,0,0,1-.1-.289c.006-.228-.2-.408-.037-.631.054-.057,0-.057,0-.116v-.026c-.016-.04-.026-.071-.036-.1-.071-.085-.152-.156-.229-.234a1.63,1.63,0,0,0-.154-.157.228.228,0,0,1-.062-.069,2.9,2.9,0,0,0-.717-.792.616.616,0,0,1-.091-.119c.149-1.057.3-2.116.475-3.171a8.663,8.663,0,0,0-.456-4.876c-.395-.966-.808-1.931.448-2.861a1.6,1.6,0,0,0,.415-1.556,3.475,3.475,0,0,1,.244-2.989c.1-.136.206-.345.123-.45-1-1.264-.084-2.59-.273-3.885-.192-1.313-.159-2.644-.221-3.967-.011-.235-.13-.516.013-.7,1.058-1.322.369-2.575-.236-3.837-.667-1.389-.308-2.8-.131-4.194.147-1.167.507-2.34-.528-3.427a.787.787,0,0,1-.192-.68c.462-2-.026-4.041.645-6.043.082-.245.162-.5.229-.749-.684,0-1.361.032-2.04.06a4.678,4.678,0,0,1-.876,1.012,10.7,10.7,0,0,0-1.581,1.567,1.194,1.194,0,0,1-.58.426,4.575,4.575,0,0,0-2.157,1.5c-.341.35-.517.863-.855,1.218-.362.378-.848.631-1.242.982a22.383,22.383,0,0,0-2.472,2.66,5.092,5.092,0,0,1-1.069,1.045,3.891,3.891,0,0,0-1,1.085,14.5,14.5,0,0,1-1.58,1.9,6.34,6.34,0,0,0-.734.9,3.913,3.913,0,0,1-2.374,1.861c-.337.075-.679.115-1.051.175a3.257,3.257,0,0,0-1,1.577,3.214,3.214,0,0,1-1.4,1.955,7.737,7.737,0,0,0-1.754,1.72c-.334.408-.6.908-1.145,1.092a.272.272,0,0,0-.141.144,1.885,1.885,0,0,1-1.634,1.141c-.231.049-.458.133-.659.194a8.95,8.95,0,0,1-1.363,2.457,2.052,2.052,0,0,1-.75.564,4.377,4.377,0,0,0-2.257,1.853c-.393.584-.778,1.18-1.215,1.732-.756.956-1.552,1.88-2.329,2.821a.992.992,0,0,1-.785.472,1.006,1.006,0,0,0-.837.574,5.186,5.186,0,0,0-.252.471,2.713,2.713,0,0,1-1.171,1.21c-.677.343-1.075,1.035-1.692,1.455a1.231,1.231,0,0,1-.8.788.448.448,0,0,0-.193.241,2.9,2.9,0,0,1-.843.944c-.7.669-1.675,1.091-1.984,2.136-.017.055-.1.095-.154.142-.791.723-1.4,1.616-2.241,2.3a25.022,25.022,0,0,0-1.811,1.816,2.053,2.053,0,0,1-.426.321,3.561,3.561,0,0,0-1.568,1.706l-.746.159a6.171,6.171,0,0,1-.678.915c-.736.673-1.507,1.3-2.26,1.957a1.874,1.874,0,0,0-.528.731c.451-.059.9-.116,1.354-.163.416.625.843.305,1.271-.014.063-.048.125-.07.188-.111,1.042-.077,2.088-.126,3.141-.115,1.214.342,2.432.631,3.649.894a.815.815,0,0,0,.951-.274,1.31,1.31,0,0,1,.653-.537h.476q1.373.009,2.747-.009a89.325,89.325,0,0,1,10.348.213,8.518,8.518,0,0,1,1.641.263,4.979,4.979,0,0,0,4.117-.237c1.523-.817,3.342-.516,4.889-.165a40.058,40.058,0,0,0,5.987.741c.221.017.442.035.663.05a14.3,14.3,0,0,1,2.347.2c.162.042.324.08.486.12.384.093.765.168,1.147.238a7.343,7.343,0,0,0,4.5-.356c.844.015,1.686-.014,2.526-.062.288-.018.575-.036.863-.058a3.736,3.736,0,0,0-.468-1.835c.437-.283.878-.346,1.335.322.008.01.017.012.025.02,0-.119-.012-.247-.009-.374a1.238,1.238,0,0,1,.069-.629v-.16a5.077,5.077,0,0,0-.033-.76c-.05-.115,0-.171.007-.286a3.719,3.719,0,0,0,.144-.464l.007-.022c.023-.084.06-.165.078-.253v-.171a1.217,1.217,0,0,1-.041-.461C525.5,232.441,525.45,232.383,525.4,232.381Zm-7.932-36.518Z"/><path class="cls-2" d="M535.112,232.534c.393-.231.789-.459.827-1.025a1.026,1.026,0,0,1,.414-.594,2.384,2.384,0,0,0,.91-1.023c.024-.065.068-.157.119-.173.614-.2.85-.826,1.305-1.206s.882-.827,1.321-1.245c.077-.073.193-.14.221-.229.2-.653.751-.915,1.282-1.2a4.962,4.962,0,0,0,1.375-1.338,2.407,2.407,0,0,1,1.21-1,.51.51,0,0,0,.259-.181c.547-.748,1.3-1.31,1.808-2.1a2.1,2.1,0,0,1,1.157-1.061.425.425,0,0,0,.261-.168c.346-.828,1.2-1.2,1.664-1.924a4.647,4.647,0,0,1,1.885-1.813,2.015,2.015,0,0,0,.549-.5c.4-.451.726-1,1.368-1.14.422-.483.878-.944,1.252-1.463a1.657,1.657,0,0,1,.746-.7,1.683,1.683,0,0,0,.545-.5c.354-.405.7-.82,1.034-1.239a6.276,6.276,0,0,1,1.291-1.277,1.924,1.924,0,0,0,.8-.846,1.812,1.812,0,0,1,.484-.558c.413-.393.849-.76,1.255-1.16a.907.907,0,0,0,.227-.459,1.659,1.659,0,0,1,.625-.969c.752-.653,1.523-1.285,2.257-1.958a6.206,6.206,0,0,0,.678-.917l.745-.16a3.563,3.563,0,0,1,1.566-1.709,1.925,1.925,0,0,0,.426-.32,24.845,24.845,0,0,1,1.808-1.82c.84-.686,1.449-1.58,2.238-2.3.052-.048.138-.087.154-.143.307-1.044,1.281-1.469,1.982-2.138a2.907,2.907,0,0,0,.841-.944c.038-.092.113-.215.192-.241a1.238,1.238,0,0,0,.8-.79c.616-.421,1.013-1.114,1.689-1.457a2.705,2.705,0,0,0,1.17-1.212,4.965,4.965,0,0,1,.252-.472,1.007,1.007,0,0,1,.836-.574.988.988,0,0,0,.784-.474c.776-.94,1.57-1.867,2.325-2.823.173-.219.32-.457.48-.687a22.263,22.263,0,0,1-6.227-.274,14.716,14.716,0,0,0-2.8.034c-.311.01-.638.164-.931.072-2.1-.656-4.234-.272-6.312-.061-2.427.244-4.841-.548-7.248.11a1.1,1.1,0,0,1-.7-.016c-2.7-1.118-5.395-.546-8.1-.118a2.846,2.846,0,0,1-1.587-.226,2.769,2.769,0,0,0-3.179.132,2.6,2.6,0,0,1-.288.2.476.476,0,0,1-.371.094c-2.492-.8-5.041.544-7.56-.548-.038-.016-.075-.022-.114-.04a3.643,3.643,0,0,0-2.04-.171.827.827,0,0,0-.153-.042l-.681-.013-.352-.007H533.8v-.075a1.081,1.081,0,0,1-.62-.152.853.853,0,0,0-.151.573,3.749,3.749,0,0,1-.866-.056c.085.6.156,1.2.218,1.807-.626.416-.3.844.014,1.272.048.062.071.125.111.187.076,1.042.126,2.089.115,3.141-.342,1.215-.631,2.432-.895,3.65a.817.817,0,0,0,.275.951,1.3,1.3,0,0,1,.537.653v.476q-.009,1.372.009,2.747a89.324,89.324,0,0,1-.212,10.348,8.433,8.433,0,0,1-.264,1.64,4.985,4.985,0,0,0,.238,4.118c.817,1.524.516,3.341.165,4.889a40.178,40.178,0,0,0-.742,5.986c-.017.221-.034.442-.049.664a14.3,14.3,0,0,1-.2,2.346c-.042.163-.08.324-.12.487a8.385,8.385,0,0,0,.118,5.649c-.01.546.02,1.087.04,1.63.65-.771,1.3-1.54,1.928-2.33A5.989,5.989,0,0,1,535.112,232.534Z"/><path class="cls-3" d="M573.255,231.092h0a.017.017,0,0,0-.006-.015Z"/><path class="cls-3" d="M584.087,230.2c.065-1.653.145-3.3.084-4.96a1.994,1.994,0,0,1-.021-.663c1.209-3,.282-6.126.217-9.181a12.176,12.176,0,0,1,.151-3.976,1.84,1.84,0,0,0,.078-.967,5.108,5.108,0,0,1-.038-3.548c-.335-2.316.147-4.739-.418-7.017a11.338,11.338,0,0,1,.046-5.308c.12-.536.28-1.06.356-1.608a4.056,4.056,0,0,0-.448-3.15,3.975,3.975,0,0,1-.528-2.808q.1-1.446.188-2.9c-.409.088-.818.126-1.227.175-.16.23-.307.468-.48.687-.755.956-1.549,1.883-2.325,2.823a.988.988,0,0,1-.784.474,1.007,1.007,0,0,0-.836.574,5.2,5.2,0,0,0-.252.472,2.705,2.705,0,0,1-1.17,1.212c-.676.343-1.073,1.036-1.689,1.457a1.238,1.238,0,0,1-.8.79c-.079.026-.154.149-.192.241a2.907,2.907,0,0,1-.841.944c-.7.669-1.675,1.094-1.982,2.138-.016.056-.1.095-.154.143-.789.724-1.4,1.618-2.238,2.3-.656.537-1.2,1.214-1.808,1.82a1.925,1.925,0,0,1-.426.32,3.563,3.563,0,0,0-1.566,1.709l-.745.16a6.136,6.136,0,0,1-.678.917c-.734.673-1.5,1.305-2.257,1.958a1.664,1.664,0,0,0-.625.969.907.907,0,0,1-.227.459c-.406.4-.842.767-1.255,1.16a1.812,1.812,0,0,0-.484.558,1.924,1.924,0,0,1-.8.846,6.276,6.276,0,0,0-1.291,1.277c-.338.419-.68.834-1.034,1.239a1.683,1.683,0,0,1-.545.5,1.657,1.657,0,0,0-.746.7c-.374.519-.83.98-1.252,1.463-.642.145-.966.689-1.368,1.14a2.015,2.015,0,0,1-.549.5,4.647,4.647,0,0,0-1.885,1.813c-.46.721-1.318,1.1-1.664,1.924a.425.425,0,0,1-.261.168,2.1,2.1,0,0,0-1.157,1.061c-.5.792-1.261,1.354-1.808,2.1a.51.51,0,0,1-.259.181,2.407,2.407,0,0,0-1.21,1,4.962,4.962,0,0,1-1.375,1.338c-.531.283-1.077.545-1.282,1.2-.028.089-.144.156-.221.229-.439.418-.859.858-1.321,1.245s-.691,1-1.3,1.206c-.051.016-.1.108-.119.173a2.384,2.384,0,0,1-.91,1.023,1.026,1.026,0,0,0-.414.594c-.038.566-.434.794-.827,1.025a5.99,5.99,0,0,0-1.661,1.491c-.626.79-1.278,1.559-1.928,2.33.011.3,0,.6.022.9s.037.576.058.863a3.724,3.724,0,0,0,1.834-.467c.284.437.347.878-.32,1.335-.011.008-.013.017-.02.025.118,0,.245-.012.373-.008a1.227,1.227,0,0,1,.629.068h.16a5.205,5.205,0,0,0,.759-.033c.115-.05.172,0,.287.007a3.719,3.719,0,0,0,.464.144l.021.006c.085.024.166.061.254.079h.172a1.21,1.21,0,0,1,.46-.041c0-.106.061-.158.063-.21.058,0,.057.054.114.055.17.057.394.221.627.121h.057c.1.094.282.077.442.141.025,0,.042-.024.071-.023a.373.373,0,0,0,.231-.047.459.459,0,0,1,.289-.1c.229.006.408-.2.632-.037.057.054.057,0,.116,0h.026l.1-.035a2.329,2.329,0,0,0,.391-.384.213.213,0,0,1,.069-.061,2.9,2.9,0,0,0,.792-.718.576.576,0,0,1,.118-.09c1.058.148,2.117.295,3.171.474a8.657,8.657,0,0,0,4.877-.455c.967-.394,1.931-.808,2.861.448a1.6,1.6,0,0,0,1.556.414,3.479,3.479,0,0,1,2.989.245c.136.095.345.2.449.123,1.265-1,2.591-.084,3.885-.274,1.314-.192,2.645-.158,3.968-.221.235-.011.516-.129.7.014,1.322,1.057,2.576.369,3.838-.236,1.389-.668,2.8-.309,4.2-.131,1.166.147,2.339.507,3.426-.528a.9.9,0,0,1,.68-.192c2,.462,4.041-.026,6.042.645.246.082.5.162.75.228,0-1.016-.01-2.029-.089-3.032A43.282,43.282,0,0,1,584.087,230.2Zm-10.832.889v-.015a.045.045,0,0,1,.006.015Z"/><path class="cls-1" d="M420.839,167.015h0a.016.016,0,0,0,.015-.006Z"/><path class="cls-2" d="M415.38,176.822c.433-.473.9-.922,1.288-1.429a1.66,1.66,0,0,1,.764-.685,1.677,1.677,0,0,0,.558-.481c.365-.4.717-.8,1.065-1.212a6.329,6.329,0,0,1,1.324-1.244,1.926,1.926,0,0,0,.817-.823,1.815,1.815,0,0,1,.5-.547c.423-.382.869-.737,1.285-1.127a.9.9,0,0,0,.238-.453,1.654,1.654,0,0,1,.651-.951c.768-.634,1.555-1.247,2.307-1.9a6.151,6.151,0,0,0,.7-.9l.749-.14a3.557,3.557,0,0,1,1.61-1.668,2.018,2.018,0,0,0,.434-.31,25.231,25.231,0,0,1,1.855-1.772c.857-.664,1.489-1.543,2.3-2.246.054-.046.14-.083.158-.138.334-1.037,1.319-1.436,2.036-2.087a2.912,2.912,0,0,0,.866-.922c.04-.091.118-.212.2-.237a1.23,1.23,0,0,0,.823-.768c.627-.405,1.041-1.087,1.727-1.414a2.7,2.7,0,0,0,1.2-1.181,5.178,5.178,0,0,1,.264-.464,1.008,1.008,0,0,1,.851-.553.991.991,0,0,0,.8-.453c.8-.921,1.618-1.825,2.4-2.763.451-.541.85-1.126,1.258-1.7a4.376,4.376,0,0,1,2.3-1.8,2.068,2.068,0,0,0,.764-.546,8.993,8.993,0,0,0,1.423-2.423c.2-.055.431-.134.663-.177a1.89,1.89,0,0,0,1.662-1.1.27.27,0,0,1,.144-.14c.553-.171.828-.664,1.171-1.066a7.763,7.763,0,0,1,1.8-1.674,3.219,3.219,0,0,0,1.446-1.921,3.254,3.254,0,0,1,1.039-1.551c.374-.052.717-.083,1.055-.151a3.9,3.9,0,0,0,2.419-1.8,6.3,6.3,0,0,1,.756-.884,14.5,14.5,0,0,0,1.626-1.858,3.863,3.863,0,0,1,1.026-1.06,5.066,5.066,0,0,0,1.094-1.019c.321-.378.656-.743.994-1.1-.454.059-.907.117-1.362.164-.417-.625-.844-.3-1.271.014-.063.048-.126.071-.188.111-1.043.077-2.089.126-3.142.115-1.214-.343-2.431-.631-3.649-.894a.817.817,0,0,0-.951.274,1.3,1.3,0,0,1-.653.537H456.1c-.916-.006-1.832,0-2.748.01A89.548,89.548,0,0,1,443,126.1a8.433,8.433,0,0,1-1.64-.264,4.978,4.978,0,0,0-4.118.238c-1.523.816-3.341.516-4.889.165a40.045,40.045,0,0,0-5.986-.741c-.222-.017-.443-.034-.664-.049a14.3,14.3,0,0,1-2.346-.2c-.163-.042-.325-.08-.487-.12a8.388,8.388,0,0,0-5.65.118c-.844-.015-1.685.014-2.525.062-.288.018-.576.036-.864.058a3.736,3.736,0,0,0,.468,1.835c-.437.283-.878.346-1.335-.322-.007-.011-.017-.012-.025-.02,0,.119.012.246.009.374a1.248,1.248,0,0,1-.068.629v.16a5.069,5.069,0,0,0,.033.759c.049.115,0,.172-.008.287a3.555,3.555,0,0,0-.143.464l-.007.022c-.024.084-.061.165-.079.252v.173a1.171,1.171,0,0,1,.041.46c.106,0,.158.061.211.063,0,.058-.055.057-.056.113-.057.171-.221.4-.121.628v.057c-.1.1-.077.283-.141.442,0,.025.023.042.022.071a.367.367,0,0,0,.048.231.462.462,0,0,1,.1.29c-.006.228.2.407.038.631-.055.058,0,.058,0,.116v.026c.016.04.025.071.035.1a2.485,2.485,0,0,0,.383.391.2.2,0,0,1,.062.069,2.9,2.9,0,0,0,.717.792.616.616,0,0,1,.091.119c-.148,1.057-.3,2.115-.474,3.171a8.654,8.654,0,0,0,.455,4.876c.4.967.808,1.931-.448,2.861a1.6,1.6,0,0,0-.415,1.556,3.468,3.468,0,0,1-.244,2.989c-.1.136-.2.345-.123.45,1,1.264.084,2.59.273,3.885.192,1.314.159,2.644.221,3.967.011.235.13.516-.013.7-1.058,1.321-.369,2.575.236,3.837.668,1.389.309,2.8.131,4.2-.147,1.166-.507,2.339.528,3.425a.789.789,0,0,1,.192.681c-.462,2,.026,4.041-.645,6.043-.082.245-.162.5-.228.749.144,0,.286-.013.43-.013l.017-.018C414.4,177.485,414.734,176.95,415.38,176.822Zm5.459-9.807h.014a.037.037,0,0,1-.015.006Z"/><path class="cls-3" d="M468.5,128l.006-.352v-.083h.075a1.076,1.076,0,0,1,.152-.619.847.847,0,0,0-.573-.151,3.7,3.7,0,0,1,.057-.866c-.149.021-.3.035-.446.054-.338.361-.673.726-.994,1.1a5.066,5.066,0,0,1-1.094,1.019,3.863,3.863,0,0,0-1.026,1.06,14.5,14.5,0,0,1-1.626,1.858,6.3,6.3,0,0,0-.756.884,3.9,3.9,0,0,1-2.419,1.8c-.338.068-.681.1-1.055.151a3.254,3.254,0,0,0-1.039,1.551,3.219,3.219,0,0,1-1.446,1.921,7.763,7.763,0,0,0-1.8,1.674c-.343.4-.618.9-1.171,1.066a.27.27,0,0,0-.144.14,1.89,1.89,0,0,1-1.662,1.1c-.232.043-.461.122-.663.177a8.993,8.993,0,0,1-1.423,2.423,2.068,2.068,0,0,1-.764.546,4.376,4.376,0,0,0-2.3,1.8c-.408.577-.807,1.162-1.258,1.7-.779.938-1.6,1.842-2.4,2.763a.991.991,0,0,1-.8.453,1.009,1.009,0,0,0-.851.553,5.178,5.178,0,0,0-.264.464,2.7,2.7,0,0,1-1.2,1.181c-.686.327-1.1,1.009-1.727,1.414a1.23,1.23,0,0,1-.823.768c-.08.025-.158.146-.2.237a2.912,2.912,0,0,1-.866.922c-.717.651-1.7,1.05-2.036,2.087-.018.055-.1.092-.158.138-.807.7-1.439,1.582-2.3,2.246a25.231,25.231,0,0,0-1.855,1.772,2.018,2.018,0,0,1-.434.31,3.562,3.562,0,0,0-1.61,1.668l-.749.14a6.151,6.151,0,0,1-.7.9c-.752.654-1.539,1.267-2.307,1.9a1.654,1.654,0,0,0-.651.951.9.9,0,0,1-.238.453c-.416.39-.862.745-1.285,1.127a1.815,1.815,0,0,0-.5.547,1.926,1.926,0,0,1-.817.823,6.329,6.329,0,0,0-1.324,1.244c-.348.41-.7.816-1.065,1.212a1.677,1.677,0,0,1-.558.481,1.66,1.66,0,0,0-.764.685c-.387.507-.855.956-1.288,1.429-.646.128-.984.663-1.4,1.1l-.017.018c.871,0,1.741-.008,2.6-.076,3.4-.271,6.749.188,10.121.064a1.994,1.994,0,0,1,.663-.021c3,1.208,6.125.282,9.18.217a12.238,12.238,0,0,1,3.977.15,1.81,1.81,0,0,0,.967.079,5.11,5.11,0,0,1,3.547-.039c2.317-.334,4.74.149,7.019-.417a11.334,11.334,0,0,1,5.307.046c.536.12,1.06.279,1.608.356a4.329,4.329,0,0,0,2.945-.337,1.74,1.74,0,0,0,.2-.11,3.965,3.965,0,0,1,2.808-.529q1.446.1,2.894.187a16.846,16.846,0,0,1-.183-5.278q.11-1.087.283-2.174a14.716,14.716,0,0,0-.035-2.8c-.009-.313-.164-.639-.072-.932.657-2.1.273-4.234.062-6.312-.245-2.427.548-4.841-.11-7.247a1.1,1.1,0,0,1,.015-.7c1.119-2.695.546-5.4.118-8.1a2.847,2.847,0,0,1,.227-1.587,2.768,2.768,0,0,0-.132-3.178,2.4,2.4,0,0,1-.2-.289.48.48,0,0,1-.095-.371c.8-2.491-.543-5.041.549-7.56.016-.038.022-.075.039-.113a3.646,3.646,0,0,0,.171-2.041.916.916,0,0,0,.043-.153Z"/><path class="cls-2" d="M475.2,174.309c.4-.225.8-.446.843-1.012a1.023,1.023,0,0,1,.423-.587,2.383,2.383,0,0,0,.926-1.01c.025-.064.07-.155.121-.171.618-.191.863-.812,1.324-1.185s.9-.813,1.34-1.224c.079-.073.195-.138.224-.226.216-.649.766-.9,1.3-1.179a4.958,4.958,0,0,0,1.4-1.315,2.412,2.412,0,0,1,1.226-.985.5.5,0,0,0,.261-.177c.559-.739,1.324-1.289,1.841-2.074a2.1,2.1,0,0,1,1.173-1.042.43.43,0,0,0,.263-.163c.359-.822,1.222-1.186,1.695-1.9a4.638,4.638,0,0,1,1.912-1.784,1.99,1.99,0,0,0,.557-.493c.409-.444.741-.984,1.386-1.118.429-.478.892-.93,1.273-1.443a1.659,1.659,0,0,1,.757-.692,1.661,1.661,0,0,0,.554-.487c.36-.4.708-.81,1.052-1.223a6.327,6.327,0,0,1,1.311-1.257,1.921,1.921,0,0,0,.808-.832,1.843,1.843,0,0,1,.492-.552c.42-.385.862-.746,1.274-1.139a.906.906,0,0,0,.233-.457,1.657,1.657,0,0,1,.641-.957c.762-.643,1.543-1.263,2.287-1.925a6.194,6.194,0,0,0,.692-.905l.747-.148a3.558,3.558,0,0,1,1.593-1.685,2.017,2.017,0,0,0,.431-.314,25.228,25.228,0,0,1,1.836-1.791c.85-.673,1.473-1.558,2.273-2.269.053-.047.139-.085.157-.141.323-1.04,1.3-1.448,2.014-2.107a2.907,2.907,0,0,0,.856-.93.451.451,0,0,1,.2-.24,1.234,1.234,0,0,0,.815-.776c.622-.412,1.03-1.1,1.711-1.432a2.705,2.705,0,0,0,1.189-1.193,5.182,5.182,0,0,1,.259-.467,1,1,0,0,1,.845-.561.992.992,0,0,0,.791-.462c.791-.928,1.6-1.842,2.369-2.787.445-.546.838-1.135,1.24-1.716.034-.05.066-.084.1-.131.022-.332.044-.662.065-1a19.964,19.964,0,0,1-7.454-.1,14.716,14.716,0,0,0-2.8.034c-.312.01-.639.165-.932.073-2.1-.656-4.233-.273-6.312-.062-2.426.245-4.841-.547-7.247.111a1.1,1.1,0,0,1-.7-.016c-2.7-1.119-5.4-.546-8.1-.119a2.837,2.837,0,0,1-1.587-.226,2.769,2.769,0,0,0-3.179.132,2.607,2.607,0,0,1-.289.2.476.476,0,0,1-.371.094c-2.491-.8-5.041.543-7.56-.549-.038-.016-.075-.022-.113-.039a3.643,3.643,0,0,0-2.04-.171.816.816,0,0,0-.154-.042l-.681-.013-.351-.007h-.084v-.076a1.081,1.081,0,0,1-.62-.152.858.858,0,0,0-.151.573,3.741,3.741,0,0,1-.865-.056c.084.6.155,1.2.218,1.807-.626.417-.306.844.014,1.272.047.062.07.125.11.187.077,1.043.126,2.089.115,3.141-.342,1.215-.63,2.433-.895,3.65a.82.82,0,0,0,.275.952,1.308,1.308,0,0,1,.537.652v.476c-.006.915,0,1.831.01,2.748a89.76,89.76,0,0,1-.212,10.347,8.588,8.588,0,0,1-.264,1.64,4.978,4.978,0,0,0,.238,4.118c.816,1.524.516,3.341.164,4.889a40.045,40.045,0,0,0-.741,5.986c-.017.222-.034.443-.049.664a14.194,14.194,0,0,1-.2,2.346c-.041.163-.079.325-.119.487a8.379,8.379,0,0,0,.118,5.649c-.014.746.016,1.488.054,2.229.489-.566.985-1.129,1.46-1.709A5.989,5.989,0,0,1,475.2,174.309Z"/><path class="cls-3" d="M513.773,171.622h0l-.006-.015Z"/><path class="cls-3" d="M524.565,172.306c.052-2.181.2-4.352.125-6.533a2,2,0,0,1-.022-.664c1.209-3,.282-6.125.218-9.18a12.2,12.2,0,0,1,.15-3.976,1.824,1.824,0,0,0,.079-.968,5.1,5.1,0,0,1-.039-3.547c-.334-2.316.147-4.74-.417-7.018a11.338,11.338,0,0,1,.046-5.308c.119-.535.279-1.06.356-1.608a4.065,4.065,0,0,0-.448-3.15,3.965,3.965,0,0,1-.528-2.808c.042-.634.082-1.266.122-1.9-.033.047-.065.081-.1.131-.4.581-.795,1.17-1.24,1.716-.77.945-1.578,1.859-2.369,2.787a.992.992,0,0,1-.791.462,1,1,0,0,0-.845.561,5.182,5.182,0,0,0-.259.467,2.7,2.7,0,0,1-1.189,1.193c-.681.334-1.089,1.02-1.711,1.432a1.234,1.234,0,0,1-.815.776.451.451,0,0,0-.2.24,2.907,2.907,0,0,1-.856.93c-.711.659-1.691,1.067-2.014,2.107-.018.056-.1.094-.157.141-.8.711-1.423,1.6-2.273,2.269a25.432,25.432,0,0,0-1.836,1.791,2.017,2.017,0,0,1-.431.314,3.558,3.558,0,0,0-1.593,1.685l-.747.148a6.194,6.194,0,0,1-.692.905c-.744.662-1.525,1.282-2.287,1.925a1.657,1.657,0,0,0-.641.957.906.906,0,0,1-.233.457c-.412.393-.854.754-1.274,1.139a1.843,1.843,0,0,0-.492.552,1.921,1.921,0,0,1-.808.832,6.327,6.327,0,0,0-1.311,1.257c-.344.413-.692.824-1.052,1.223a1.661,1.661,0,0,1-.554.487,1.659,1.659,0,0,0-.757.692c-.381.513-.844.965-1.273,1.443-.645.134-.977.674-1.386,1.118a1.99,1.99,0,0,1-.557.493,4.638,4.638,0,0,0-1.912,1.784c-.473.713-1.336,1.077-1.695,1.9a.43.43,0,0,1-.263.163,2.1,2.1,0,0,0-1.173,1.042c-.517.785-1.282,1.335-1.841,2.074a.5.5,0,0,1-.261.177,2.412,2.412,0,0,0-1.226.985,4.958,4.958,0,0,1-1.4,1.315c-.535.276-1.085.53-1.3,1.179-.029.088-.145.153-.224.226-.444.411-.872.843-1.34,1.224s-.706.994-1.324,1.185c-.051.016-.1.107-.121.171a2.383,2.383,0,0,1-.926,1.01,1.023,1.023,0,0,0-.423.587c-.047.566-.446.787-.843,1.012a6.014,6.014,0,0,0-1.684,1.465c-.475.58-.971,1.143-1.46,1.709,0,.1,0,.2.007.3.018.288.037.575.059.863a3.711,3.711,0,0,0,1.834-.468c.284.438.347.878-.321,1.335-.011.008-.012.017-.02.025.118,0,.246-.012.373-.008a1.227,1.227,0,0,1,.629.068h.16a5.357,5.357,0,0,0,.76-.033c.115-.05.172,0,.287.007a3.757,3.757,0,0,0,.463.144l.022.006c.084.024.166.061.253.079h.172a1.217,1.217,0,0,1,.461-.041c0-.106.061-.158.062-.21.059,0,.057.054.114.055.17.057.4.221.628.121h.056c.1.094.283.077.442.141.025,0,.042-.024.071-.023a.374.374,0,0,0,.232-.047.459.459,0,0,1,.289-.1c.228.006.408-.2.632-.037.057.054.057,0,.115,0h.026c.04-.015.071-.025.1-.035a2.323,2.323,0,0,0,.391-.383.227.227,0,0,1,.07-.061,2.933,2.933,0,0,0,.792-.718.609.609,0,0,1,.118-.091c1.057.149,2.116.3,3.171.474a8.671,8.671,0,0,0,4.876-.454c.967-.4,1.931-.809,2.861.447a1.6,1.6,0,0,0,1.557.415,3.473,3.473,0,0,1,2.988.244c.137.095.346.2.45.123,1.265-1,2.591-.084,3.885-.273,1.314-.192,2.644-.158,3.968-.222.234-.011.515-.129.695.015,1.321,1.057,2.575.368,3.837-.237,1.389-.668,2.8-.308,4.2-.131,1.167.147,2.339.508,3.426-.528a.787.787,0,0,1,.68-.192,8.186,8.186,0,0,0,1.046.14c1.663.162,3.343-.049,5,.5.245.082.5.162.749.228,0-1.015-.009-2.028-.089-3.032A34.558,34.558,0,0,1,524.565,172.306Zm-10.792-.684v-.015l.006.015Z"/><path class="cls-2" d="M530.925,176.4a.5.5,0,0,0,.267-.169c.58-.722,1.363-1.248,1.9-2.016a2.092,2.092,0,0,1,1.2-1.006.42.42,0,0,0,.269-.157c.383-.81,1.258-1.146,1.751-1.845a4.65,4.65,0,0,1,1.966-1.724,1.975,1.975,0,0,0,.572-.477c.423-.431.771-.96,1.42-1.074.443-.465.919-.9,1.317-1.4a1.651,1.651,0,0,1,.777-.669,1.677,1.677,0,0,0,.568-.47c.373-.388.734-.788,1.09-1.19a6.345,6.345,0,0,1,1.348-1.217,1.912,1.912,0,0,0,.834-.807,1.845,1.845,0,0,1,.509-.536c.431-.372.884-.72,1.307-1.1a.9.9,0,0,0,.248-.45,1.657,1.657,0,0,1,.669-.937c.782-.619,1.581-1.214,2.346-1.853a6.22,6.22,0,0,0,.718-.884l.752-.125a3.566,3.566,0,0,1,1.643-1.635,2.008,2.008,0,0,0,.441-.3,25.223,25.223,0,0,1,1.89-1.735c.871-.646,1.52-1.513,2.341-2.2.055-.046.142-.082.161-.136.355-1.029,1.347-1.408,2.078-2.045a2.909,2.909,0,0,0,.884-.9c.042-.091.123-.21.2-.233a1.228,1.228,0,0,0,.838-.751c.636-.392,1.064-1.066,1.755-1.378a2.706,2.706,0,0,0,1.225-1.157,5.043,5.043,0,0,1,.273-.459,1.006,1.006,0,0,1,.862-.535.991.991,0,0,0,.8-.437c.818-.9,1.654-1.792,2.453-2.714.461-.531.872-1.109,1.291-1.677a4.381,4.381,0,0,1,2.338-1.748,2.06,2.06,0,0,0,.775-.53,8.992,8.992,0,0,0,1.471-2.394c.2-.051.434-.125.667-.164a1.888,1.888,0,0,0,1.684-1.066.265.265,0,0,1,.147-.138c.556-.159.841-.647,1.192-1.04a7.742,7.742,0,0,1,1.83-1.638,3.157,3.157,0,0,0,1.328-1.585,6.739,6.739,0,0,1,.257-1.217c.082-.246.162-.5.229-.749-1.016,0-2.03.009-3.032.089-3.4.269-6.749-.189-10.121-.065a2.055,2.055,0,0,1-.664.022c-3-1.21-6.125-.282-9.179-.218a12.239,12.239,0,0,1-3.977-.151,1.834,1.834,0,0,0-.968-.079,5.088,5.088,0,0,1-3.547.039c-2.316.335-4.74-.147-7.018.418a11.352,11.352,0,0,1-5.308-.046c-.535-.12-1.059-.279-1.607-.357a4.064,4.064,0,0,0-3.151.449,3.975,3.975,0,0,1-2.808.528q-1.446-.1-2.894-.188a19.964,19.964,0,0,1-.1,7.454,14.8,14.8,0,0,0,.034,2.8c.009.311.164.639.072.931-.657,2.1-.273,4.234-.062,6.313.245,2.426-.547,4.84.111,7.247a1.1,1.1,0,0,1-.016.7c-1.118,2.695-.546,5.4-.118,8.1a2.847,2.847,0,0,1-.227,1.587,2.773,2.773,0,0,0,.132,3.179,2.038,2.038,0,0,1,.2.289.477.477,0,0,1,.1.371c-.8,2.49.543,5.041-.549,7.559-.016.038-.021.075-.039.114a3.652,3.652,0,0,0-.171,2.04.806.806,0,0,0-.042.153l-.013.682-.007.351v.083h-.076a1.06,1.06,0,0,1-.152.619.845.845,0,0,0,.574.151,3.7,3.7,0,0,1-.057.866c.056-.008.114-.013.17-.021.12-.131.242-.26.362-.39A2.407,2.407,0,0,1,530.925,176.4Z"/><path class="cls-3" d="M576.517,136.664h0a.017.017,0,0,0-.015.006Z"/><path class="cls-3" d="M584.449,173.18c0-.058.054-.056.056-.114.057-.17.22-.394.12-.627v-.057c.094-.1.076-.283.14-.442,0-.025-.023-.042-.022-.071a.367.367,0,0,0-.048-.231v-.014a.464.464,0,0,1-.094-.275c0-.229-.2-.408-.038-.633.054-.056,0-.056,0-.115v-.026c-.016-.04-.026-.07-.036-.1a2.323,2.323,0,0,0-.383-.391.227.227,0,0,1-.061-.07,2.933,2.933,0,0,0-.718-.792.651.651,0,0,1-.091-.118c.149-1.058.3-2.117.475-3.171a8.672,8.672,0,0,0-.455-4.876c-.395-.968-.809-1.932.447-2.862a1.6,1.6,0,0,0,.415-1.556,3.47,3.47,0,0,1,.244-2.988c.1-.137.206-.346.124-.451-1-1.264-.085-2.59-.274-3.884-.192-1.315-.159-2.644-.221-3.968-.011-.234-.129-.516.013-.7,1.058-1.322.369-2.575-.236-3.837-.667-1.39-.308-2.8-.131-4.2.147-1.166.507-2.339-.528-3.425a.787.787,0,0,1-.191-.68c.368-1.6.156-3.218.387-4.826a3.161,3.161,0,0,1-1.328,1.585,7.742,7.742,0,0,0-1.83,1.638c-.351.393-.636.881-1.192,1.04a.265.265,0,0,0-.147.138,1.888,1.888,0,0,1-1.684,1.066c-.233.039-.463.113-.667.164a8.992,8.992,0,0,1-1.471,2.394,2.06,2.06,0,0,1-.775.53,4.381,4.381,0,0,0-2.338,1.748c-.419.568-.83,1.146-1.291,1.677-.8.922-1.635,1.81-2.453,2.714a.993.993,0,0,1-.8.437,1.006,1.006,0,0,0-.862.535,5.043,5.043,0,0,0-.273.459,2.711,2.711,0,0,1-1.225,1.157c-.691.312-1.119.986-1.755,1.378a1.228,1.228,0,0,1-.838.751.43.43,0,0,0-.2.233,2.909,2.909,0,0,1-.884.9c-.731.637-1.723,1.016-2.078,2.045-.019.054-.106.09-.161.136-.821.685-1.47,1.552-2.341,2.2a25.223,25.223,0,0,0-1.89,1.735,2.008,2.008,0,0,1-.441.3,3.566,3.566,0,0,0-1.643,1.635l-.752.125a6.22,6.22,0,0,1-.718.884c-.765.639-1.564,1.234-2.346,1.853a1.657,1.657,0,0,0-.669.937.9.9,0,0,1-.248.45c-.423.38-.876.728-1.307,1.1a1.845,1.845,0,0,0-.509.536,1.912,1.912,0,0,1-.834.807,6.321,6.321,0,0,0-1.348,1.217c-.356.4-.717.8-1.09,1.19a1.677,1.677,0,0,1-.568.47,1.651,1.651,0,0,0-.777.669c-.4.5-.874.938-1.317,1.4-.649.114-1,.643-1.42,1.074a1.975,1.975,0,0,1-.572.477,4.65,4.65,0,0,0-1.966,1.724c-.493.7-1.368,1.035-1.751,1.845a.42.42,0,0,1-.269.157,2.092,2.092,0,0,0-1.2,1.006c-.54.768-1.323,1.294-1.9,2.016a.5.5,0,0,1-.267.169,2.409,2.409,0,0,0-1.255.946c-.12.13-.242.259-.362.39q.817-.111,1.638-.2c.416.627.843.306,1.271-.013.063-.048.125-.071.188-.111,1.042-.077,2.088-.126,3.141-.115,1.214.343,2.432.631,3.649.9a.821.821,0,0,0,.952-.275,1.294,1.294,0,0,1,.652-.537h.476c.916.006,1.831,0,2.748-.009a89.535,89.535,0,0,1,10.347.211,8.445,8.445,0,0,1,1.641.265,4.979,4.979,0,0,0,4.117-.239c1.524-.816,3.342-.515,4.889-.164a40.175,40.175,0,0,0,5.987.742l.663.049a14.2,14.2,0,0,1,2.347.205c.162.041.324.079.486.119a13.288,13.288,0,0,0,2.789.427,6.44,6.44,0,0,0,2.861-.545c.844.015,1.686-.014,2.526-.062.288-.019.575-.037.863-.058a3.735,3.735,0,0,0-.468-1.834c.438-.284.878-.347,1.335.32.008.011.017.012.025.02,0-.118-.012-.245-.008-.372a1.23,1.23,0,0,1,.068-.63v-.159a5.077,5.077,0,0,0-.033-.76c-.05-.115,0-.172.008-.287a4.007,4.007,0,0,0,.143-.464l.007-.021c.024-.084.06-.166.078-.253V173.7a1.212,1.212,0,0,1-.041-.46C584.553,173.24,584.5,173.182,584.449,173.18Zm-7.932-36.516H576.5a.045.045,0,0,1,.015-.006Z"/><path class="cls-2" d="M532.289,116.65a2.264,2.264,0,0,1,.662-.525,3.457,3.457,0,0,0,1.145-.946c.68-.788,1.359-1.575,2.051-2.352a1.805,1.805,0,0,1,.636-.554,4.046,4.046,0,0,0,1.177-.884,17.562,17.562,0,0,0,1.829-1.8,2.747,2.747,0,0,1,.708-.441c.436-.234.909-.413,1.1-.947a.568.568,0,0,1,.2-.247,18.233,18.233,0,0,0,2.5-2.651,5.469,5.469,0,0,1,1.043-.913,9.422,9.422,0,0,0,2.191-1.868,9.369,9.369,0,0,1,.7-.661,34.866,34.866,0,0,0,3.026-3.028,2.139,2.139,0,0,0,.3-.442,1.22,1.22,0,0,1,1.011-.832,1.7,1.7,0,0,0,1.166-1.024,10.934,10.934,0,0,1,1.29-1.708,3.323,3.323,0,0,0,.478-.58,2.155,2.155,0,0,1,1.4-1.348c.8-.815,1.832-1.36,2.569-2.259a10.425,10.425,0,0,1,2.289-2.247,2.04,2.04,0,0,0,.468-.562,2.256,2.256,0,0,1,.835-.814,2.446,2.446,0,0,0,1.073-1.149c.082-.157.17-.311.276-.5A2.165,2.165,0,0,0,565.9,84.5a1.618,1.618,0,0,1,.331-.269,7.531,7.531,0,0,0,1.854-1.881,4.836,4.836,0,0,1,1.956-1.939c.392-.184.611-.631,1.068-.822a4.3,4.3,0,0,0,1.043-.9.616.616,0,0,0,.192-.251c.237-.862,1-1.271,1.6-1.8a5.283,5.283,0,0,0,1.252-1.449,4.561,4.561,0,0,1,1.04-1.2,7.894,7.894,0,0,0,1.782-1.811,13.168,13.168,0,0,0,1.749-1.729.242.242,0,0,1,.082-.067c.8-.232,1.239-.921,1.774-1.489a3.007,3.007,0,0,1,.566-.484,12.73,12.73,0,0,0,1.048-.737l-.558-.038c-.84-.048-1.682-.077-2.526-.061a8.382,8.382,0,0,0-5.65-.118c-.162.04-.324.078-.486.119a14.319,14.319,0,0,1-2.347.2l-.663.049a40.456,40.456,0,0,0-5.987.742c-1.547.352-3.365.652-4.889-.164a4.975,4.975,0,0,0-4.117-.238,8.6,8.6,0,0,1-1.641.264,89.089,89.089,0,0,1-10.347.211q-1.375-.017-2.748-.009H540.8a1.294,1.294,0,0,1-.652-.537.82.82,0,0,0-.952-.275c-1.217.265-2.435.553-3.649.9-1.053.01-2.1-.04-3.141-.116-.063-.04-.125-.063-.188-.111-.428-.318-.855-.64-1.271-.013-.6-.063-1.207-.134-1.808-.218a3.7,3.7,0,0,1,.057.866.855.855,0,0,0-.574.15,1.079,1.079,0,0,1,.152.62h.076v.083l.007.352.013.682a.827.827,0,0,0,.042.153,3.639,3.639,0,0,0,.171,2.039c.018.04.023.076.039.115,1.092,2.518-.251,5.067.549,7.559a.477.477,0,0,1-.1.371,2.277,2.277,0,0,1-.2.288,2.774,2.774,0,0,0-.132,3.18,2.847,2.847,0,0,1,.227,1.587c-.428,2.7-1,5.4.118,8.1a1.1,1.1,0,0,1,.016.7c-.658,2.408.134,4.822-.111,7.248-.211,2.079-.6,4.211.062,6.312.092.293-.063.62-.072.932a14.716,14.716,0,0,0-.034,2.8,20.591,20.591,0,0,1,.149,7.107,1.773,1.773,0,0,1,.235-.284A23.116,23.116,0,0,0,532.289,116.65Z"/><path class="cls-3" d="M576.5,109.323a.045.045,0,0,0,.015.006h0Z"/><path class="cls-3" d="M584.627,73.608v-.056c.1-.233-.063-.458-.12-.628,0-.057-.055-.055-.056-.114.053,0,.1-.059.21-.063a1.21,1.21,0,0,1,.041-.46v-.172c-.018-.087-.054-.169-.078-.253l-.007-.021a3.948,3.948,0,0,0-.143-.464c0-.115-.058-.172-.008-.287a5.077,5.077,0,0,0,.033-.76v-.16a1.227,1.227,0,0,1-.068-.629c0-.128.006-.255.008-.373-.008.008-.017.009-.025.02-.457.667-.9.605-1.335.321a3.726,3.726,0,0,0,.468-1.835l-.3-.02a12.73,12.73,0,0,1-1.048.737,3.007,3.007,0,0,0-.566.484c-.535.568-.97,1.257-1.774,1.489a.242.242,0,0,0-.082.067,13.168,13.168,0,0,1-1.749,1.729,7.894,7.894,0,0,1-1.782,1.811,4.561,4.561,0,0,0-1.04,1.2,5.283,5.283,0,0,1-1.252,1.449c-.6.528-1.358.937-1.6,1.8a.616.616,0,0,1-.192.251,4.3,4.3,0,0,1-1.043.9c-.457.191-.676.638-1.068.822a4.836,4.836,0,0,0-1.956,1.939,7.531,7.531,0,0,1-1.854,1.881,1.618,1.618,0,0,0-.331.269,2.165,2.165,0,0,1-1.492.871c-.106.194-.194.348-.276.5A2.446,2.446,0,0,1,563.069,87a2.264,2.264,0,0,0-.835.814,2.04,2.04,0,0,1-.468.562,10.425,10.425,0,0,0-2.289,2.247c-.737.9-1.765,1.444-2.569,2.259a2.155,2.155,0,0,0-1.4,1.348,3.323,3.323,0,0,1-.478.58,10.934,10.934,0,0,0-1.29,1.708,1.7,1.7,0,0,1-1.166,1.024,1.22,1.22,0,0,0-1.011.832,2.139,2.139,0,0,1-.3.442,34.866,34.866,0,0,1-3.026,3.028,9.568,9.568,0,0,0-.7.661,9.422,9.422,0,0,1-2.191,1.868,5.5,5.5,0,0,0-1.043.913,18.233,18.233,0,0,1-2.5,2.651.568.568,0,0,0-.2.247c-.192.534-.665.713-1.1.947a2.747,2.747,0,0,0-.708.441,17.562,17.562,0,0,1-1.829,1.8,4.046,4.046,0,0,1-1.177.884,1.805,1.805,0,0,0-.636.554c-.692.777-1.371,1.564-2.051,2.352a3.447,3.447,0,0,1-1.145.946,2.264,2.264,0,0,0-.662.525,23.154,23.154,0,0,1-2.457,2.544,1.828,1.828,0,0,0-.235.284c-.022.116-.025.231-.05.347l2.894-.187a3.975,3.975,0,0,1,2.808.528,4.068,4.068,0,0,0,3.151.448c.548-.077,1.072-.236,1.607-.356a11.325,11.325,0,0,1,5.308-.046c2.278.564,4.7.083,7.018.417a5.1,5.1,0,0,1,3.547.038,1.824,1.824,0,0,0,.968-.078,12.211,12.211,0,0,1,3.977-.15c3.054.064,6.179.991,9.179-.218a2.028,2.028,0,0,1,.664.022c2.077.076,4.146-.057,6.223-.117a35.734,35.734,0,0,1,3.9.052c1,.08,2.016.092,3.032.089-.067-.252-.147-.5-.229-.749-.6-1.794-.3-3.617-.561-5.416-.03-.209-.035-.419-.083-.627a.784.784,0,0,1,.191-.68c1.035-1.087.675-2.259.528-3.426-.177-1.4-.536-2.8.131-4.195.6-1.262,1.294-2.516.236-3.837-.142-.18-.024-.461-.013-.7.062-1.324.029-2.655.221-3.968.189-1.294-.73-2.621.274-3.886.082-.1-.029-.312-.124-.449a3.473,3.473,0,0,1-.244-2.988,1.6,1.6,0,0,0-.415-1.557c-1.256-.93-.842-1.894-.447-2.861a8.672,8.672,0,0,0,.455-4.876c-.179-1.055-.326-2.114-.475-3.172a.651.651,0,0,1,.091-.118,2.917,2.917,0,0,0,.718-.792.223.223,0,0,1,.061-.069,2.323,2.323,0,0,0,.383-.391c.01-.029.02-.061.036-.1v-.026c0-.059.051-.059,0-.115-.164-.224.043-.4.038-.633a.456.456,0,0,1,.1-.288.368.368,0,0,0,.048-.232c0-.029.017-.046.022-.07C584.7,73.89,584.721,73.705,584.627,73.608ZM576.5,109.323h.015C576.512,109.329,576.507,109.324,576.5,109.323Z"/><path class="cls-1" d="M513.773,74.369v.014a.037.037,0,0,0,.006-.015Z"/><path class="cls-2" d="M475.952,119.678a15.43,15.43,0,0,1,.942-1.291,23.114,23.114,0,0,0,2.362-2.631,2.244,2.244,0,0,1,.643-.549,3.456,3.456,0,0,0,1.11-.987c.65-.812,1.3-1.623,1.964-2.424a1.8,1.8,0,0,1,.614-.577c.5-.185.769-.611,1.145-.926a17.323,17.323,0,0,0,1.762-1.872,2.741,2.741,0,0,1,.692-.466c.427-.25.893-.445,1.065-.986a.568.568,0,0,1,.189-.254,18.142,18.142,0,0,0,2.4-2.741,5.541,5.541,0,0,1,1.009-.95,9.4,9.4,0,0,0,2.122-1.946c.195-.251.455-.452.674-.687a34.7,34.7,0,0,0,2.914-3.136,2.075,2.075,0,0,0,.282-.452,1.217,1.217,0,0,1,.98-.867,1.711,1.711,0,0,0,1.128-1.067,10.935,10.935,0,0,1,1.228-1.754,3.5,3.5,0,0,0,.456-.6,2.158,2.158,0,0,1,1.353-1.4c.774-.843,1.781-1.426,2.486-2.35a10.464,10.464,0,0,1,2.205-2.329,2.02,2.02,0,0,0,.447-.579,2.274,2.274,0,0,1,.8-.844,2.445,2.445,0,0,0,1.031-1.186c.076-.161.158-.318.257-.516a2.166,2.166,0,0,0,1.46-.923,1.564,1.564,0,0,1,.32-.282,7.543,7.543,0,0,0,1.785-1.947,4.822,4.822,0,0,1,1.884-2.009c.385-.2.587-.653,1.037-.86a4.29,4.29,0,0,0,1.01-.938.627.627,0,0,0,.182-.258c.206-.87.948-1.307,1.529-1.857a5.3,5.3,0,0,0,1.2-1.492,4.552,4.552,0,0,1,.994-1.244,7.849,7.849,0,0,0,1.716-1.874,7.6,7.6,0,0,0,1.347-1.4c.006-.391.035-.777.034-1.17-.252.067-.5.147-.749.23-2,.67-4.043.182-6.043.645a.789.789,0,0,1-.68-.193c-1.087-1.035-2.259-.675-3.426-.527-1.4.177-2.806.535-4.2-.132-1.262-.6-2.516-1.293-3.837-.236-.18.143-.461.025-.695.014-1.324-.063-2.654-.03-3.968-.221-1.294-.19-2.62.729-3.885-.274-.1-.083-.313.029-.45.124a3.473,3.473,0,0,1-2.988.244,1.6,1.6,0,0,0-1.557.415c-.93,1.255-1.894.842-2.861.447a8.654,8.654,0,0,0-4.876-.455c-1.055.179-2.114.326-3.171.474a.576.576,0,0,1-.118-.09,2.933,2.933,0,0,0-.792-.718.227.227,0,0,1-.07-.061,2.329,2.329,0,0,0-.391-.384c-.029-.01-.06-.02-.1-.036h-.026c-.058,0-.058-.052-.115,0-.224.165-.4-.043-.632-.037a.465.465,0,0,1-.289-.1.37.37,0,0,0-.232-.048c-.029,0-.046-.017-.071-.022-.159.064-.345.046-.442.14h-.056c-.233-.1-.458.064-.628.121-.057,0-.055.055-.114.056,0-.054-.059-.105-.062-.211a1.215,1.215,0,0,1-.461-.041h-.172c-.087.018-.169.055-.253.078l-.022.007a3.549,3.549,0,0,0-.463.145c-.115,0-.172.057-.287.007a5.077,5.077,0,0,0-.76-.033h-.16a1.227,1.227,0,0,1-.629.068c-.127,0-.255-.006-.373-.008.008.008.009.017.02.025.668.456.605.9.321,1.334a3.724,3.724,0,0,0-1.834-.467c-.022.287-.041.575-.059.863-.047.84-.077,1.681-.061,2.525a8.385,8.385,0,0,0-.118,5.651c.04.161.078.323.119.486a14.3,14.3,0,0,1,.2,2.346c.015.222.032.443.049.664a40.048,40.048,0,0,0,.752,6c.352,1.548.652,3.366-.164,4.89a4.975,4.975,0,0,0-.238,4.117,8.588,8.588,0,0,1,.264,1.64,89.772,89.772,0,0,1,.212,10.348c-.011.916-.016,1.832-.01,2.748v.475a1.292,1.292,0,0,1-.537.653.818.818,0,0,0-.275.951c.265,1.218.553,2.436.895,3.649.011,1.054-.038,2.1-.115,3.142-.04.062-.063.125-.11.188-.32.427-.64.855-.014,1.27-.063.605-.134,1.208-.218,1.809a3.687,3.687,0,0,1,.865-.057,1.121,1.121,0,0,0,.012.164c.367-.352.726-.712,1.1-1.058C475.078,120.41,475.567,120.093,475.952,119.678Zm37.821-45.309h0a.016.016,0,0,1-.006.015Z"/><path class="cls-3" d="M524.705,110.878a11.338,11.338,0,0,1-.046-5.308c.564-2.278.083-4.7.417-7.018a5.1,5.1,0,0,1,.039-3.547,1.819,1.819,0,0,0-.079-.967,12.211,12.211,0,0,1-.15-3.977c.064-3.054.991-6.179-.218-9.179a2,2,0,0,1,.022-.664c.124-3.373-.335-6.718-.065-10.121.049-.616.044-1.24.055-1.863a7.6,7.6,0,0,1-1.347,1.4,7.849,7.849,0,0,1-1.716,1.874,4.552,4.552,0,0,0-.994,1.244,5.3,5.3,0,0,1-1.2,1.492c-.581.55-1.323.987-1.529,1.857a.627.627,0,0,1-.182.258,4.29,4.29,0,0,1-1.01.938c-.45.207-.652.662-1.037.86a4.822,4.822,0,0,0-1.884,2.009A7.566,7.566,0,0,1,512,82.11a1.564,1.564,0,0,0-.32.282,2.163,2.163,0,0,1-1.46.923c-.1.2-.181.355-.257.516a2.44,2.44,0,0,1-1.031,1.186,2.274,2.274,0,0,0-.8.844,2.02,2.02,0,0,1-.447.579,10.464,10.464,0,0,0-2.2,2.329c-.7.924-1.712,1.507-2.486,2.35a2.158,2.158,0,0,0-1.353,1.4,3.452,3.452,0,0,1-.456.6,10.935,10.935,0,0,0-1.228,1.754,1.709,1.709,0,0,1-1.128,1.067,1.219,1.219,0,0,0-.98.867,2.075,2.075,0,0,1-.282.452,34.7,34.7,0,0,1-2.914,3.136c-.219.235-.479.436-.674.687a9.4,9.4,0,0,1-2.122,1.946,5.573,5.573,0,0,0-1.009.95,18.142,18.142,0,0,1-2.4,2.741.576.576,0,0,0-.189.254c-.172.541-.638.736-1.065.986a2.741,2.741,0,0,0-.692.466,17.323,17.323,0,0,1-1.762,1.872c-.376.315-.645.741-1.145.926a1.8,1.8,0,0,0-.614.577c-.663.8-1.314,1.612-1.964,2.424a3.456,3.456,0,0,1-1.11.987,2.244,2.244,0,0,0-.643.549,23.02,23.02,0,0,1-2.362,2.631,15.43,15.43,0,0,0-.942,1.291c-.385.415-.874.732-1.291,1.119-.373.346-.732.706-1.1,1.058a.821.821,0,0,0,.139.409,1.065,1.065,0,0,1,.62-.152v-.075h.084l.351-.006.681-.013a.818.818,0,0,0,.154-.043,3.634,3.634,0,0,0,2.04-.171c.038-.017.075-.022.113-.039,2.519-1.092,5.069.251,7.56-.548a.476.476,0,0,1,.371.094,2.607,2.607,0,0,1,.289.2,2.771,2.771,0,0,0,3.179.133,2.847,2.847,0,0,1,1.587-.227c2.7.428,5.4,1,8.1-.118a1.1,1.1,0,0,1,.7-.016c2.406.658,4.821-.135,7.247.11,2.079.211,4.211.595,6.312-.062.293-.092.62.063.932.072a14.8,14.8,0,0,0,2.8.035,30.316,30.316,0,0,1,3.518-.384,15.47,15.47,0,0,1,3.936.284q-.093-1.448-.187-2.894c-.023-.342-.028-.674-.018-1a2.994,2.994,0,0,1,.546-1.808,4.07,4.07,0,0,0,.448-3.152C524.984,111.938,524.824,111.414,524.705,110.878Z"/><path class="cls-2" d="M413.4,118.338c.435-.368.89-.712,1.317-1.088a.911.911,0,0,0,.251-.448,1.66,1.66,0,0,1,.677-.932c.787-.612,1.591-1.2,2.361-1.834a6.04,6.04,0,0,0,.726-.877l.753-.119a3.557,3.557,0,0,1,1.657-1.621,2.045,2.045,0,0,0,.443-.3,25.366,25.366,0,0,1,1.9-1.72c.875-.638,1.532-1.5,2.359-2.178.055-.045.143-.08.162-.135.364-1.026,1.359-1.4,2.1-2.026a2.913,2.913,0,0,0,.892-.9c.043-.09.124-.208.2-.23a1.229,1.229,0,0,0,.844-.744c.639-.387,1.073-1.058,1.767-1.364a2.708,2.708,0,0,0,1.234-1.146,5.049,5.049,0,0,1,.277-.457,1,1,0,0,1,.866-.528.991.991,0,0,0,.809-.43c.826-.9,1.669-1.778,2.475-2.693.466-.528.882-1.1,1.306-1.666a4.39,4.39,0,0,1,2.352-1.729,2.045,2.045,0,0,0,.779-.524,8.97,8.97,0,0,0,1.492-2.381c.2-.049.434-.122.668-.158a1.889,1.889,0,0,0,1.693-1.053.267.267,0,0,1,.148-.136c.558-.155.847-.64,1.2-1.03a7.717,7.717,0,0,1,1.843-1.623,3.224,3.224,0,0,0,1.5-1.88,3.253,3.253,0,0,1,1.083-1.521c.375-.041.719-.062,1.059-.119a3.9,3.9,0,0,0,2.469-1.732,6.439,6.439,0,0,1,.781-.861,14.611,14.611,0,0,0,1.679-1.811,3.863,3.863,0,0,1,1.056-1.03,5.108,5.108,0,0,0,1.123-.987,22.4,22.4,0,0,1,2.61-2.525c.412-.33.911-.555,1.292-.915.357-.335.56-.839.919-1.169a4.578,4.578,0,0,1,2.233-1.379,1.19,1.19,0,0,0,.6-.4c.084-.1.184-.178.274-.27.048-.4.085-.8.171-1.2q-1.448.092-2.894.188a3.965,3.965,0,0,1-2.808-.529,4.065,4.065,0,0,0-3.15-.448c-.548.076-1.072.237-1.608.356a11.347,11.347,0,0,1-5.307.046c-2.279-.565-4.7-.082-7.019-.417a5.1,5.1,0,0,1-3.547-.039,1.819,1.819,0,0,0-.967.078,12.183,12.183,0,0,1-3.977.151c-3.055-.065-6.18-.992-9.18.218a1.994,1.994,0,0,1-.663-.021c-3.372-.124-6.718.334-10.121.064-1-.08-2.017-.092-3.032-.089.066.252.146.5.228.749.671,2,.183,4.043.645,6.043a.787.787,0,0,1-.192.68c-1.035,1.087-.675,2.26-.528,3.426.178,1.4.537,2.806-.131,4.2-.6,1.261-1.294,2.515-.236,3.837.143.18.024.46.013.7-.062,1.322-.029,2.653-.221,3.967s.73,2.62-.273,3.885c-.082.1.028.313.123.45a3.468,3.468,0,0,1,.244,2.989,1.6,1.6,0,0,0,.415,1.556c1.256.93.843,1.894.448,2.86a8.657,8.657,0,0,0-.455,4.877c.178,1.054.326,2.114.474,3.171a.58.58,0,0,1-.091.118,2.913,2.913,0,0,0-.717.792.216.216,0,0,1-.062.069,2.407,2.407,0,0,0-.383.392c-.01.029-.019.06-.035.1v.026c0,.058-.052.058,0,.115.163.223-.044.4-.038.632a.456.456,0,0,1-.1.288.371.371,0,0,0-.048.233c0,.029-.017.046-.022.07.064.16.046.345.141.442v.057c-.1.234.064.458.121.628,0,.056.054.055.056.113-.053,0-.1.06-.211.063a1.217,1.217,0,0,1-.041.461v.171c.018.088.055.17.079.254l.007.022a3.589,3.589,0,0,0,.143.463c0,.115.057.172.008.287a4.824,4.824,0,0,0-.033.76v.16a1.248,1.248,0,0,1,.068.629v.052A2.174,2.174,0,0,1,413.4,118.338Zm7.454-39.36h-.014c0-.006.008,0,.013,0Z"/><path class="cls-3" d="M468.734,119.047a1.064,1.064,0,0,1-.152-.62h-.075v-.083l-.006-.351-.013-.681a.927.927,0,0,0-.043-.154,3.643,3.643,0,0,0-.171-2.04c-.017-.038-.023-.075-.039-.113a5.18,5.18,0,0,1-.328-1.118c-.4-2.153.461-4.318-.221-6.442a.481.481,0,0,1,.1-.372,2.277,2.277,0,0,1,.2-.288,2.769,2.769,0,0,0,.132-3.179,2.847,2.847,0,0,1-.227-1.587c.428-2.7,1-5.405-.118-8.1a1.1,1.1,0,0,1-.015-.7c.658-2.406-.135-4.82.11-7.248.211-2.078.6-4.21-.062-6.311-.092-.293.063-.62.072-.932a14.8,14.8,0,0,0,.035-2.8,22.237,22.237,0,0,1-.271-6.25c-.09.092-.19.172-.274.27a1.19,1.19,0,0,1-.6.4,4.578,4.578,0,0,0-2.233,1.379c-.359.33-.562.834-.919,1.169-.381.36-.88.585-1.292.915a22.4,22.4,0,0,0-2.61,2.525,5.108,5.108,0,0,1-1.123.987,3.863,3.863,0,0,0-1.056,1.03,14.611,14.611,0,0,1-1.679,1.811,6.439,6.439,0,0,0-.781.861,3.9,3.9,0,0,1-2.469,1.732c-.34.057-.684.078-1.059.119a3.258,3.258,0,0,0-1.083,1.521,3.224,3.224,0,0,1-1.5,1.88,7.717,7.717,0,0,0-1.843,1.623c-.354.39-.643.875-1.2,1.03a.267.267,0,0,0-.148.136,1.889,1.889,0,0,1-1.693,1.053c-.234.036-.464.109-.668.158a8.97,8.97,0,0,1-1.492,2.381,2.045,2.045,0,0,1-.779.524,4.39,4.39,0,0,0-2.352,1.729c-.424.564-.84,1.138-1.306,1.666-.806.915-1.649,1.8-2.475,2.693a.991.991,0,0,1-.809.43,1,1,0,0,0-.866.528,5.049,5.049,0,0,0-.277.457,2.708,2.708,0,0,1-1.234,1.146c-.694.306-1.128.977-1.767,1.364a1.229,1.229,0,0,1-.844.744c-.081.022-.162.14-.2.23a2.913,2.913,0,0,1-.892.9c-.736.629-1.731,1-2.1,2.026-.019.055-.107.09-.162.135-.827.679-1.484,1.54-2.359,2.178a25.366,25.366,0,0,0-1.9,1.72,2.045,2.045,0,0,1-.443.3,3.557,3.557,0,0,0-1.657,1.621l-.753.119a6.04,6.04,0,0,1-.726.877c-.77.633-1.574,1.222-2.361,1.834a1.66,1.66,0,0,0-.677.932.911.911,0,0,1-.251.448c-.427.376-.882.72-1.317,1.088a2.187,2.187,0,0,0-.467.474c0,.109-.006.219-.008.321.008-.008.018-.01.025-.02.457-.668.9-.605,1.335-.321a3.735,3.735,0,0,0-.468,1.834c.288.022.576.04.864.058.84.048,1.681.077,2.525.062a8.382,8.382,0,0,0,5.65.118c.162-.04.324-.078.487-.12a14.3,14.3,0,0,1,2.346-.2c.221-.015.442-.032.664-.049a40.045,40.045,0,0,0,5.986-.741c1.548-.351,3.366-.653,4.889.164a4.985,4.985,0,0,0,4.118.238,8.433,8.433,0,0,1,1.64-.264,89.772,89.772,0,0,1,10.348-.212q1.374.017,2.748.009h.475a1.292,1.292,0,0,1,.653.537.818.818,0,0,0,.951.274c1.076-.232,2.15-.5,3.223-.79.142-.038.284-.064.426-.1,1.053-.011,2.1.038,3.142.115.062.04.125.062.188.11.427.32.854.64,1.271.014.6.063,1.207.133,1.808.218a3.7,3.7,0,0,1-.057-.866A.857.857,0,0,0,468.734,119.047Z"/><path class="cls-2" d="M415.1,58.953a1.662,1.662,0,0,1,.619-.973c.746-.659,1.513-1.3,2.242-1.976a6.243,6.243,0,0,0,.67-.921l.744-.166a3.565,3.565,0,0,1,1.553-1.72,1.99,1.99,0,0,0,.424-.323,25.054,25.054,0,0,1,1.8-1.834c.834-.693,1.436-1.592,2.22-2.321.052-.048.137-.088.153-.144.3-1.046,1.27-1.478,1.966-2.153a2.915,2.915,0,0,0,.834-.95.444.444,0,0,1,.191-.243,1.238,1.238,0,0,0,.8-.8c.613-.425,1-1.121,1.679-1.469a2.714,2.714,0,0,0,1.16-1.221,4.737,4.737,0,0,1,.249-.473,1,1,0,0,1,.832-.581.99.99,0,0,0,.78-.48c.768-.946,1.556-1.879,2.3-2.841.432-.556.812-1.154,1.2-1.743a4.382,4.382,0,0,1,2.24-1.872,2.075,2.075,0,0,0,.745-.57,9,9,0,0,0,1.342-2.47c.2-.062.426-.149.656-.2a1.887,1.887,0,0,0,1.625-1.154.272.272,0,0,1,.139-.146c.547-.189.806-.691,1.135-1.1a7.712,7.712,0,0,1,1.74-1.733,3.228,3.228,0,0,0,1.381-1.969,3.246,3.246,0,0,1,.987-1.585c.371-.064.713-.107,1.049-.184a3.908,3.908,0,0,0,2.357-1.883,6.409,6.409,0,0,1,.726-.908,14.471,14.471,0,0,0,1.564-1.911,3.874,3.874,0,0,1,.99-1.094,5.068,5.068,0,0,0,1.059-1.055,22.536,22.536,0,0,1,2.449-2.681c.391-.354.875-.612,1.233-.993.335-.357.507-.872.845-1.225a4.57,4.57,0,0,1,2.143-1.514,1.186,1.186,0,0,0,.576-.432,8.534,8.534,0,0,1,1.075-1.133c.02-.152.034-.3.055-.458a3.687,3.687,0,0,1-.865.057.853.853,0,0,0-.151-.573,1.079,1.079,0,0,1-.62.152v.075H463.9l-.352.007-.681.013a.816.816,0,0,0-.154.042,3.643,3.643,0,0,0-2.04.171c-.038.017-.075.023-.113.039-2.519,1.093-5.068-.251-7.56.549a.476.476,0,0,1-.371-.094,2.607,2.607,0,0,1-.289-.2,2.769,2.769,0,0,0-3.179-.132,2.846,2.846,0,0,1-1.587.226c-2.7-.428-5.4-1-8.1.118a1.1,1.1,0,0,1-.7.016c-2.407-.658-4.821.134-7.248-.11-2.078-.211-4.21-.595-6.312.061-.293.092-.62-.062-.931-.072a14.716,14.716,0,0,0-2.8-.034,20.006,20.006,0,0,1-7.454.1q.093,1.448.188,2.9a3.975,3.975,0,0,1-.528,2.808,4.061,4.061,0,0,0-.449,3.15c.077.547.237,1.072.356,1.608a11.352,11.352,0,0,1,.047,5.308c-.565,2.278-.083,4.7-.418,7.017a5.108,5.108,0,0,1-.038,3.548,1.82,1.82,0,0,0,.078.967,12.176,12.176,0,0,1,.15,3.976c-.064,3.055-.991,6.181.218,9.18a2,2,0,0,1-.021.664c-.124,3.372.334,6.717.064,10.121-.041.52-.033,1.049-.046,1.574.409-.393.84-.762,1.241-1.163A.9.9,0,0,0,415.1,58.953Z"/><path class="cls-3" d="M466.653,53.836c-.069-.373-.142-.746-.233-1.122-.041-.162-.079-.323-.12-.486a14.3,14.3,0,0,1-.2-2.346q-.024-.333-.049-.664a40.178,40.178,0,0,0-.742-5.986c-.351-1.548-.652-3.366.164-4.89a4.975,4.975,0,0,0,.238-4.117,8.588,8.588,0,0,1-.264-1.64,89.772,89.772,0,0,1-.212-10.348c.011-.916.016-1.832.01-2.747v-.476a1.3,1.3,0,0,1,.537-.653.818.818,0,0,0,.275-.951c-.264-1.218-.553-2.435-.9-3.65-.011-1.052.038-2.1.115-3.141.04-.062.063-.125.111-.187.319-.428.639-.856.013-1.272.047-.451.1-.9.163-1.35a8.534,8.534,0,0,0-1.075,1.133,1.191,1.191,0,0,1-.576.432,4.57,4.57,0,0,0-2.143,1.514c-.338.353-.51.868-.845,1.225-.358.381-.842.639-1.233.993a22.536,22.536,0,0,0-2.449,2.681,5.068,5.068,0,0,1-1.059,1.055,3.874,3.874,0,0,0-.99,1.094,14.471,14.471,0,0,1-1.564,1.911,6.409,6.409,0,0,0-.726.908,3.908,3.908,0,0,1-2.357,1.883c-.336.077-.678.12-1.049.184a3.246,3.246,0,0,0-.987,1.585,3.228,3.228,0,0,1-1.381,1.969,7.712,7.712,0,0,0-1.74,1.733c-.329.412-.588.914-1.135,1.1a.269.269,0,0,0-.139.146,1.887,1.887,0,0,1-1.625,1.154c-.23.051-.456.138-.656.2a9.028,9.028,0,0,1-1.342,2.47,2.072,2.072,0,0,1-.745.57,4.382,4.382,0,0,0-2.24,1.872c-.388.589-.768,1.187-1.2,1.743-.748.962-1.536,1.895-2.3,2.841a.99.99,0,0,1-.78.48,1,1,0,0,0-.832.581,4.737,4.737,0,0,0-.249.473,2.714,2.714,0,0,1-1.16,1.221c-.674.348-1.066,1.044-1.679,1.469a1.238,1.238,0,0,1-.8.8.44.44,0,0,0-.191.243,2.915,2.915,0,0,1-.834.95c-.7.675-1.667,1.107-1.966,2.153-.016.056-.1.1-.153.144-.784.729-1.386,1.628-2.22,2.321a25.054,25.054,0,0,0-1.8,1.834,2.015,2.015,0,0,1-.424.323,3.565,3.565,0,0,0-1.553,1.72l-.744.166a6.243,6.243,0,0,1-.67.921c-.729.679-1.5,1.317-2.242,1.976a1.658,1.658,0,0,0-.619.973.9.9,0,0,1-.223.461c-.4.4-.832.77-1.241,1.163-.011.486-.044.97-.043,1.458.252-.066.5-.146.749-.229,2-.67,4.043-.182,6.043-.644a.787.787,0,0,1,.68.192c1.087,1.035,2.26.675,3.426.528,1.4-.178,2.806-.537,4.195.131,1.262.6,2.516,1.293,3.837.236.18-.143.461-.025.7-.014,1.323.063,2.654.029,3.967.221,1.3.19,2.621-.73,3.886.274.1.082.312-.028.449-.123a3.479,3.479,0,0,1,2.989-.245,1.6,1.6,0,0,0,1.556-.414c.93-1.256,1.894-.842,2.861-.448a8.654,8.654,0,0,0,4.876.455c1.055-.179,2.114-.326,3.172-.474a.576.576,0,0,1,.118.09,2.9,2.9,0,0,0,.792.718.237.237,0,0,1,.069.061c.017.023.043.039.062.061a2.787,2.787,0,0,0,.329.323l.1.035.014,0h.012c.059,0,.059.052.115,0,.224-.164.4.043.632.037a.453.453,0,0,1,.289.1.376.376,0,0,0,.232.047c.029,0,.046.018.071.023.159-.064.345-.047.442-.141h.056c.234.1.458-.064.628-.121.057,0,.055-.054.114-.055,0,.052.059.1.063.21a1.212,1.212,0,0,1,.46.041h.172c.087-.018.169-.055.253-.079l.022-.006a3.757,3.757,0,0,0,.463-.144c.115,0,.172-.057.287-.007a5.213,5.213,0,0,0,.76.033h.16a1.216,1.216,0,0,1,.629-.068c.127,0,.255.006.373.008-.008-.008-.009-.017-.02-.025-.667-.457-.605-.9-.321-1.335a3.725,3.725,0,0,0,1.835.467c.021-.287.04-.574.058-.863.048-.84.077-1.681.061-2.526A7.372,7.372,0,0,0,466.653,53.836Zm-42.123.9h0a.017.017,0,0,1,.006-.015Z"/><path class="cls-2" d="M355.923,114.774a2.093,2.093,0,0,0,.327-.274,10.856,10.856,0,0,1,2.1-1.979,30.265,30.265,0,0,1,2.449-2.232.768.768,0,0,0,.232-.222,10.1,10.1,0,0,1,2.69-2.547,1.943,1.943,0,0,0,.486-.544,1.859,1.859,0,0,1,1.091-.961.523.523,0,0,0,.28-.14c.686-.966,1.833-1.462,2.454-2.518a4.318,4.318,0,0,1,1.177-1.069,2.438,2.438,0,0,0,.71-.772,3.3,3.3,0,0,1,1.1-1.151,26.033,26.033,0,0,0,2.486-2.02c.438-.366.942-.655,1.349-1.05.379-.369.6-.922,1.009-1.238a23.052,23.052,0,0,0,2.5-2.5,2.242,2.242,0,0,1,.671-.513,3.457,3.457,0,0,0,1.161-.928c.692-.776,1.385-1.551,2.09-2.316a1.808,1.808,0,0,1,.644-.543,4.038,4.038,0,0,0,1.192-.864,17.321,17.321,0,0,0,1.859-1.775,2.782,2.782,0,0,1,.716-.428c.44-.228.916-.4,1.117-.929a.558.558,0,0,1,.2-.243,18.279,18.279,0,0,0,2.542-2.609,5.584,5.584,0,0,1,1.058-.9,9.383,9.383,0,0,0,2.223-1.83c.208-.24.477-.428.709-.649a34.593,34.593,0,0,0,3.077-2.977,2.106,2.106,0,0,0,.306-.437,1.218,1.218,0,0,1,1.025-.814,1.708,1.708,0,0,0,1.183-1,10.857,10.857,0,0,1,1.319-1.686,3.411,3.411,0,0,0,.487-.572,2.158,2.158,0,0,1,1.426-1.325c.818-.8,1.854-1.329,2.607-2.214a16.665,16.665,0,0,1,1.253-1.337c.021-.173.053-.344.063-.522-.288-.021-.575-.04-.864-.058-.84-.048-1.68-.077-2.525-.061a8.382,8.382,0,0,0-5.65-.118c-.162.04-.324.078-.486.119a14.3,14.3,0,0,1-2.347.2l-.663.049a40.456,40.456,0,0,0-5.987.742c-1.547.352-3.366.652-4.889-.164a4.975,4.975,0,0,0-4.117-.238,8.6,8.6,0,0,1-1.641.264,89.324,89.324,0,0,1-10.348.211q-1.374-.016-2.747-.009h-.476a1.3,1.3,0,0,1-.652-.537.818.818,0,0,0-.952-.275c-1.218.265-2.435.553-3.649.9-1.053.01-2.1-.04-3.141-.116-.063-.04-.125-.063-.188-.111-.428-.318-.855-.64-1.271-.014-.6-.062-1.207-.133-1.809-.217a3.687,3.687,0,0,1,.058.865.856.856,0,0,0-.574.151,1.079,1.079,0,0,1,.152.62h.075v.083l.007.352.013.682a.827.827,0,0,0,.042.153,3.639,3.639,0,0,0,.171,2.039c.017.04.023.076.039.115,1.092,2.518-.251,5.067.549,7.559a.484.484,0,0,1-.094.371,2.385,2.385,0,0,1-.2.288,2.771,2.771,0,0,0-.132,3.18,2.857,2.857,0,0,1,.227,1.587c-.428,2.7-1,5.4.118,8.1a1.11,1.11,0,0,1,.016.7c-.659,2.408.134,4.822-.111,7.248-.211,2.079-.6,4.211.062,6.312.092.293-.063.62-.072.932a14.8,14.8,0,0,0-.035,2.8,22.018,22.018,0,0,1,.258,6.344,18.539,18.539,0,0,0,1.514-1.544A10.645,10.645,0,0,1,355.923,114.774Z"/><path class="cls-3" d="M408.386,72.076V72.02c.1-.233-.064-.458-.121-.628,0-.057-.054-.055-.055-.114.053,0,.1-.059.21-.063a1.21,1.21,0,0,1,.041-.46v-.172c-.018-.087-.055-.169-.078-.253l-.007-.021a3.719,3.719,0,0,0-.144-.464c0-.115-.057-.172-.007-.287a5.357,5.357,0,0,0,.033-.76v-.16a1.216,1.216,0,0,1-.068-.629c0-.128.006-.255.008-.373-.008.008-.017.009-.025.02-.457.667-.9.6-1.335.321a3.186,3.186,0,0,0,.4-1.313A16.752,16.752,0,0,0,405.982,68c-.753.885-1.789,1.413-2.607,2.214a2.158,2.158,0,0,0-1.426,1.325,3.411,3.411,0,0,1-.487.572,10.857,10.857,0,0,0-1.319,1.686,1.708,1.708,0,0,1-1.183,1,1.218,1.218,0,0,0-1.025.814,2.106,2.106,0,0,1-.306.437,34.593,34.593,0,0,1-3.077,2.977c-.232.221-.5.409-.709.649a9.383,9.383,0,0,1-2.223,1.83,5.584,5.584,0,0,0-1.058.9,18.279,18.279,0,0,1-2.542,2.609.558.558,0,0,0-.2.243c-.2.532-.677.7-1.117.929a2.782,2.782,0,0,0-.716.428,17.321,17.321,0,0,1-1.859,1.775,4.038,4.038,0,0,1-1.192.864,1.808,1.808,0,0,0-.644.543c-.7.765-1.4,1.54-2.09,2.316a3.457,3.457,0,0,1-1.161.928,2.242,2.242,0,0,0-.671.513,23.052,23.052,0,0,1-2.5,2.5c-.407.316-.63.869-1.009,1.238-.407.395-.911.684-1.349,1.05a26.158,26.158,0,0,1-2.486,2.02,3.286,3.286,0,0,0-1.1,1.151,2.438,2.438,0,0,1-.71.772,4.318,4.318,0,0,0-1.177,1.069c-.621,1.056-1.768,1.552-2.454,2.518a.526.526,0,0,1-.28.14,1.859,1.859,0,0,0-1.091.961,1.959,1.959,0,0,1-.486.544,10.1,10.1,0,0,0-2.69,2.547.78.78,0,0,1-.232.222,30.265,30.265,0,0,0-2.449,2.232,10.856,10.856,0,0,0-2.1,1.979,2.093,2.093,0,0,1-.327.274,10.6,10.6,0,0,0-.945.865,18.539,18.539,0,0,1-1.514,1.544c-.047.37-.079.74-.158,1.11l2.894-.187a3.975,3.975,0,0,1,2.808.528,4.065,4.065,0,0,0,3.15.448c.548-.077,1.072-.236,1.608-.356a11.325,11.325,0,0,1,5.308-.046c2.278.564,4.7.083,7.018.417a5.1,5.1,0,0,1,3.547.038,1.82,1.82,0,0,0,.967-.078,12.211,12.211,0,0,1,3.977-.15c3.055.064,6.18.991,9.18-.218a2.028,2.028,0,0,1,.664.022c2.267.083,4.522-.086,6.791-.132,1.106-.022,2.214-.022,3.329.067,1,.08,2.017.092,3.033.089-.067-.252-.146-.5-.23-.749-.6-1.792-.3-3.614-.559-5.411-.03-.211-.036-.422-.085-.632a.794.794,0,0,1,.192-.68c1.035-1.087.675-2.259.528-3.426-.177-1.4-.536-2.8.131-4.2.6-1.262,1.294-2.516.237-3.837-.144-.18-.025-.461-.014-.7.062-1.324.029-2.655.221-3.969.19-1.293-.73-2.62.273-3.885.083-.1-.028-.312-.123-.449a3.473,3.473,0,0,1-.244-2.988,1.6,1.6,0,0,0-.415-1.557c-1.256-.93-.842-1.894-.447-2.861a8.662,8.662,0,0,0,.454-4.876c-.178-1.055-.326-2.114-.474-3.172a.651.651,0,0,1,.091-.118,2.9,2.9,0,0,0,.717-.792.24.24,0,0,1,.062-.069,2.362,2.362,0,0,0,.383-.391c.01-.03.02-.061.035-.1v-.026c0-.059.052-.059,0-.115-.164-.224.043-.4.037-.633a.462.462,0,0,1,.1-.288.37.37,0,0,0,.048-.232c0-.029.017-.046.023-.07C408.462,72.358,408.48,72.173,408.386,72.076Zm-8.125,35.715h.015A.071.071,0,0,1,400.261,107.791Z"/><path class="cls-2" d="M355.554,60.082a1.885,1.885,0,0,1,.5-.545c.426-.378.872-.733,1.29-1.119a.894.894,0,0,0,.241-.454,1.662,1.662,0,0,1,.654-.948c.772-.631,1.561-1.239,2.316-1.889a6.254,6.254,0,0,0,.7-.9l.75-.137a3.56,3.56,0,0,1,1.616-1.661,1.95,1.95,0,0,0,.436-.307,25.237,25.237,0,0,1,1.863-1.764c.86-.661,1.5-1.536,2.306-2.235.054-.047.14-.083.159-.139.338-1.034,1.325-1.429,2.045-2.077a2.9,2.9,0,0,0,.87-.918c.04-.091.119-.211.2-.235a1.237,1.237,0,0,0,.826-.764c.629-.4,1.046-1.084,1.732-1.406a2.707,2.707,0,0,0,1.206-1.177,5.028,5.028,0,0,1,.266-.462,1.008,1.008,0,0,1,.854-.55.99.99,0,0,0,.8-.449c.8-.918,1.625-1.819,2.409-2.752.454-.539.855-1.123,1.265-1.7a4.382,4.382,0,0,1,2.309-1.786,2.055,2.055,0,0,0,.767-.541,8.986,8.986,0,0,0,1.434-2.418c.2-.054.431-.132.664-.174A1.886,1.886,0,0,0,387.7,29.49a.272.272,0,0,1,.145-.14c.554-.169.832-.66,1.177-1.06a7.712,7.712,0,0,1,1.8-1.667,3.225,3.225,0,0,0,1.455-1.915,3.265,3.265,0,0,1,1.046-1.547c.373-.05.717-.079,1.056-.144a3.9,3.9,0,0,0,2.426-1.791,6.367,6.367,0,0,1,.76-.88A14.669,14.669,0,0,0,399.2,18.5a3.863,3.863,0,0,1,1.031-1.055,5.058,5.058,0,0,0,1.1-1.016,22.538,22.538,0,0,1,2.548-2.585c.4-.34.9-.579,1.271-.946.348-.345.539-.852.89-1.193a4.584,4.584,0,0,1,2.2-1.432.959.959,0,0,0,.406-.234c.039-.252.054-.506.108-.759q-1.448.091-2.894.187a3.975,3.975,0,0,1-2.808-.527,4.061,4.061,0,0,0-3.15-.449c-.548.077-1.072.236-1.608.356a11.352,11.352,0,0,1-5.308.047c-2.278-.565-4.7-.084-7.018-.418a5.1,5.1,0,0,1-3.547-.039,1.829,1.829,0,0,0-.967.079,12.211,12.211,0,0,1-3.977.15c-3.055-.064-6.18-.991-9.18.218a2.028,2.028,0,0,1-.664-.022c-3.371-.124-6.717.335-10.12.066-1-.081-2.017-.093-3.033-.09.067.252.147.5.229.749.671,2,.183,4.043.645,6.043a.787.787,0,0,1-.192.68c-1.035,1.087-.675,2.259-.528,3.426.178,1.4.536,2.806-.131,4.195-.6,1.262-1.294,2.516-.236,3.837.142.18.024.461.013.695-.062,1.324-.029,2.654-.221,3.969-.189,1.293.73,2.619-.273,3.884-.083.1.028.313.123.45a3.473,3.473,0,0,1,.244,2.988,1.592,1.592,0,0,0,.415,1.556c1.256.931.843,1.9.448,2.862a8.657,8.657,0,0,0-.455,4.877c.178,1.054.326,2.112.474,3.171a.651.651,0,0,1-.091.118,2.913,2.913,0,0,0-.717.792.24.24,0,0,1-.062.069,2.329,2.329,0,0,0-.383.392c-.01.029-.02.059-.035.1v.026c0,.059-.052.059,0,.115.163.224-.044.4-.038.633a.462.462,0,0,1-.1.288.367.367,0,0,0-.048.231c0,.029-.017.046-.022.072.064.159.046.345.141.441v.057c-.1.233.064.458.121.628,0,.057.054.055.055.113-.052,0-.1.06-.21.063a1.217,1.217,0,0,1-.041.461v.172c.018.087.055.169.079.253l.006.021a3.719,3.719,0,0,0,.144.464c0,.115.057.172.007.287a5.077,5.077,0,0,0-.033.76v.16a1.238,1.238,0,0,1,.069.629c0,.128-.007.255-.009.373.008-.008.017-.009.025-.02.457-.668.9-.6,1.335-.32a3.107,3.107,0,0,0-.4,1.236A1.734,1.734,0,0,0,355.554,60.082Zm6.232-40.311a.016.016,0,0,1,.015.006h-.015Z"/><path class="cls-3" d="M409.682,59.846a1.064,1.064,0,0,1-.152-.62h-.075v-.082l-.007-.352-.013-.681a.816.816,0,0,0-.042-.154,3.639,3.639,0,0,0-.171-2.039c-.017-.039-.023-.076-.039-.114a4.822,4.822,0,0,1-.22-.684c-.627-2.3.4-4.609-.329-6.875a.481.481,0,0,1,.095-.372,2.277,2.277,0,0,1,.2-.288,2.771,2.771,0,0,0,.132-3.18,2.847,2.847,0,0,1-.227-1.587c.428-2.7,1-5.405-.118-8.1a1.11,1.11,0,0,1-.016-.7c.659-2.407-.134-4.822.111-7.248.211-2.079.6-4.21-.062-6.312-.092-.293.063-.62.072-.931a14.8,14.8,0,0,0,.035-2.8,21.335,21.335,0,0,1-.208-6.695.959.959,0,0,1-.406.234,4.584,4.584,0,0,0-2.2,1.432c-.351.341-.542.848-.89,1.193-.373.367-.867.606-1.271.946a22.538,22.538,0,0,0-2.548,2.585,5.058,5.058,0,0,1-1.1,1.016,3.863,3.863,0,0,0-1.031,1.055,14.669,14.669,0,0,1-1.635,1.851,6.367,6.367,0,0,0-.76.88,3.9,3.9,0,0,1-2.426,1.791c-.339.065-.683.094-1.056.144a3.265,3.265,0,0,0-1.046,1.547,3.225,3.225,0,0,1-1.455,1.915,7.712,7.712,0,0,0-1.8,1.667c-.345.4-.623.891-1.177,1.06a.269.269,0,0,0-.145.14,1.886,1.886,0,0,1-1.666,1.092c-.233.042-.461.12-.664.174a8.986,8.986,0,0,1-1.434,2.418,2.055,2.055,0,0,1-.767.541,4.382,4.382,0,0,0-2.309,1.786c-.41.574-.811,1.158-1.265,1.7-.784.933-1.606,1.834-2.409,2.752a.99.99,0,0,1-.8.449,1.008,1.008,0,0,0-.854.55,5.028,5.028,0,0,0-.266.462,2.707,2.707,0,0,1-1.206,1.177c-.686.322-1.1,1-1.732,1.406a1.237,1.237,0,0,1-.826.764c-.081.024-.16.144-.2.235a2.9,2.9,0,0,1-.87.918c-.72.648-1.707,1.043-2.045,2.077-.019.056-.105.092-.159.139-.81.7-1.446,1.574-2.306,2.235a25.237,25.237,0,0,0-1.863,1.764,1.95,1.95,0,0,1-.436.307,3.56,3.56,0,0,0-1.616,1.661l-.75.137a6.254,6.254,0,0,1-.705.9c-.755.65-1.544,1.258-2.316,1.889a1.662,1.662,0,0,0-.654.948.894.894,0,0,1-.241.454c-.418.386-.864.741-1.29,1.119a1.885,1.885,0,0,0-.5.545,1.735,1.735,0,0,1-.718.746c-.027.2-.061.394-.072.6.288.021.575.039.864.058.84.047,1.681.076,2.525.061a8.382,8.382,0,0,0,5.65.118c.162-.04.324-.078.487-.119a14.3,14.3,0,0,1,2.346-.2l.664-.049a40.178,40.178,0,0,0,5.986-.742c1.547-.352,3.365-.652,4.889.164a4.975,4.975,0,0,0,4.117.238,8.443,8.443,0,0,1,1.641-.264,89.329,89.329,0,0,1,10.348-.211c.916.01,1.832.015,2.747.009h.476a1.3,1.3,0,0,1,.652.536.82.82,0,0,0,.952.276c1.218-.265,2.435-.553,3.649-.9.218,0,.433.021.65.024.833.01,1.665.03,2.492.091.062.04.125.063.187.111.428.318.855.64,1.271.013.6.063,1.208.134,1.808.218a3.753,3.753,0,0,1-.056-.866A.852.852,0,0,0,409.682,59.846Z"/><path class="cls-2" d="M472.187,58.437a.9.9,0,0,0,.24-.453,1.655,1.655,0,0,1,.654-.949c.771-.631,1.56-1.239,2.314-1.891a6.22,6.22,0,0,0,.7-.9l.75-.138a3.555,3.555,0,0,1,1.615-1.662,2.007,2.007,0,0,0,.436-.307,25.235,25.235,0,0,1,1.861-1.766c.86-.661,1.5-1.537,2.3-2.237.054-.046.14-.083.158-.138.338-1.035,1.324-1.43,2.044-2.079a2.9,2.9,0,0,0,.869-.918c.041-.092.119-.212.2-.236a1.235,1.235,0,0,0,.825-.765c.629-.4,1.046-1.085,1.732-1.407a2.7,2.7,0,0,0,1.2-1.177,4.823,4.823,0,0,1,.266-.463,1.006,1.006,0,0,1,.853-.551.988.988,0,0,0,.8-.449c.8-.918,1.624-1.82,2.407-2.753.453-.541.854-1.125,1.264-1.7A4.372,4.372,0,0,1,498,33.715a2.051,2.051,0,0,0,.766-.541,8.97,8.97,0,0,0,1.432-2.419c.2-.054.431-.133.664-.175a1.884,1.884,0,0,0,1.665-1.093.272.272,0,0,1,.145-.14c.554-.17.831-.661,1.176-1.061a7.738,7.738,0,0,1,1.8-1.668A3.229,3.229,0,0,0,507.1,24.7a3.259,3.259,0,0,1,1.045-1.548c.374-.05.717-.08,1.056-.145a3.907,3.907,0,0,0,2.425-1.793,6.236,6.236,0,0,1,.759-.88,14.583,14.583,0,0,0,1.633-1.852,3.863,3.863,0,0,1,1.03-1.056,5.087,5.087,0,0,0,1.1-1.017,22.619,22.619,0,0,1,2.546-2.587c.4-.34.9-.579,1.27-.947.348-.345.538-.853.889-1.193a4.583,4.583,0,0,1,2.2-1.434,1.177,1.177,0,0,0,.591-.41,7.278,7.278,0,0,1,.781-.809c.024-.185.057-.367.067-.557-.288-.022-.575-.04-.863-.058-.84-.048-1.682-.077-2.526-.062a8.382,8.382,0,0,0-5.65-.118c-.162.04-.324.078-.486.12a14.3,14.3,0,0,1-2.347.2c-.221.015-.442.032-.663.049a40.322,40.322,0,0,0-5.987.741c-1.547.352-3.366.652-4.889-.164a4.975,4.975,0,0,0-4.117-.238,8.443,8.443,0,0,1-1.641.264,89.772,89.772,0,0,1-10.348.212c-.916-.011-1.832-.016-2.747-.01h-.476a1.3,1.3,0,0,1-.653-.537.818.818,0,0,0-.951-.274c-1.217.263-2.435.552-3.649.894-1.053.011-2.1-.038-3.141-.115-.063-.04-.125-.063-.188-.11-.428-.319-.855-.64-1.271-.014-.6-.063-1.207-.133-1.809-.218a3.7,3.7,0,0,1,.057.866.852.852,0,0,0-.573.15,1.064,1.064,0,0,1,.152.62h.075v.083l.006.351.014.681a.816.816,0,0,0,.042.154,3.652,3.652,0,0,0,.171,2.04c.017.038.023.075.039.113,1.092,2.52-.251,5.069.549,7.56a.479.479,0,0,1-.1.372,2.277,2.277,0,0,1-.2.288,2.769,2.769,0,0,0-.132,3.178,2.851,2.851,0,0,1,.227,1.588c-.428,2.7-1,5.4.118,8.1a1.1,1.1,0,0,1,.015.7c-.657,2.406.135,4.821-.11,7.248-.211,2.078-.595,4.209.062,6.311.092.293-.063.62-.072.932a14.8,14.8,0,0,0-.035,2.8,21.417,21.417,0,0,1,.215,6.646c.091-.091.194-.175.287-.259C471.322,59.179,471.769,58.825,472.187,58.437Z"/><path class="cls-3" d="M525.575,14.408v-.057c.1-.234-.064-.458-.121-.628,0-.056-.054-.055-.055-.113.053,0,.1-.06.21-.063a1.217,1.217,0,0,1,.041-.461v-.172c-.018-.087-.055-.168-.078-.253l-.007-.022a3.757,3.757,0,0,0-.144-.463c0-.115-.057-.172-.007-.288a5.069,5.069,0,0,0,.033-.759v-.16a1.238,1.238,0,0,1-.069-.629c0-.128.007-.255.009-.373-.008.008-.017.009-.025.02-.457.668-.9.605-1.335.321a3.13,3.13,0,0,0,.4-1.277,7.278,7.278,0,0,0-.781.809,1.177,1.177,0,0,1-.591.41,4.576,4.576,0,0,0-2.2,1.434c-.351.34-.541.848-.889,1.193-.372.368-.866.607-1.27.947a22.619,22.619,0,0,0-2.546,2.587,5.087,5.087,0,0,1-1.1,1.017,3.863,3.863,0,0,0-1.03,1.056,14.583,14.583,0,0,1-1.633,1.852,6.236,6.236,0,0,0-.759.88,3.907,3.907,0,0,1-2.425,1.793c-.339.065-.682.095-1.056.145A3.264,3.264,0,0,0,507.1,24.7a3.231,3.231,0,0,1-1.453,1.916,7.738,7.738,0,0,0-1.8,1.668c-.345.4-.622.891-1.176,1.061a.272.272,0,0,0-.145.14,1.883,1.883,0,0,1-1.665,1.093c-.233.042-.462.121-.664.175a8.97,8.97,0,0,1-1.432,2.419,2.051,2.051,0,0,1-.766.541,4.373,4.373,0,0,0-2.308,1.789c-.41.573-.811,1.157-1.264,1.7-.783.933-1.605,1.835-2.407,2.753a.988.988,0,0,1-.8.449,1.006,1.006,0,0,0-.853.551,4.823,4.823,0,0,0-.266.463,2.7,2.7,0,0,1-1.2,1.177c-.686.322-1.1,1-1.732,1.407a1.235,1.235,0,0,1-.825.765c-.081.024-.159.144-.2.236a2.9,2.9,0,0,1-.869.918c-.72.649-1.706,1.044-2.044,2.079-.018.055-.1.092-.158.138-.81.7-1.445,1.576-2.3,2.237a25.235,25.235,0,0,0-1.861,1.766,1.983,1.983,0,0,1-.436.307,3.555,3.555,0,0,0-1.615,1.662l-.75.138a6.22,6.22,0,0,1-.7.9c-.754.652-1.543,1.26-2.314,1.891a1.655,1.655,0,0,0-.654.949.9.9,0,0,1-.24.453c-.418.388-.865.742-1.29,1.121-.093.084-.2.168-.287.259-.041.269-.057.538-.115.807q1.447-.091,2.894-.187a3.975,3.975,0,0,1,2.808.528,4.067,4.067,0,0,0,3.151.448c.547-.077,1.071-.236,1.607-.357a11.365,11.365,0,0,1,5.308-.046c2.278.566,4.7.084,7.018.418a5.1,5.1,0,0,1,3.547.039,1.819,1.819,0,0,0,.967-.079,12.211,12.211,0,0,1,3.977-.15c3.055.065,6.18.991,9.18-.218a2,2,0,0,1,.664.021c2.016.075,4.025-.05,6.041-.112a37,37,0,0,1,4.079.048c1,.079,2.017.092,3.033.089-.067-.252-.147-.5-.229-.749-.6-1.786-.307-3.6-.558-5.393-.03-.217-.037-.434-.087-.65a.787.787,0,0,1,.192-.68c1.035-1.087.675-2.259.528-3.426-.177-1.4-.536-2.806.131-4.194.605-1.262,1.294-2.517.236-3.838-.143-.18-.024-.46-.013-.7.062-1.323.029-2.654.221-3.968.189-1.294-.73-2.62.273-3.885.083-.1-.028-.313-.123-.449a3.475,3.475,0,0,1-.244-2.989,1.59,1.59,0,0,0-.415-1.556c-1.256-.931-.843-1.895-.448-2.861a8.666,8.666,0,0,0,.456-4.877c-.179-1.055-.326-2.113-.475-3.171a.618.618,0,0,1,.091-.118,2.913,2.913,0,0,0,.717-.792.228.228,0,0,1,.062-.069,2.329,2.329,0,0,0,.383-.392c.01-.029.02-.06.036-.1v-.026c0-.058.052-.058,0-.115-.164-.224.043-.4.037-.632a.465.465,0,0,1,.1-.289.37.37,0,0,0,.048-.232c0-.029.017-.046.022-.071C525.651,14.69,525.669,14.5,525.575,14.408ZM517.45,50.122h.014C517.459,50.128,517.455,50.124,517.45,50.122Z"/><path class="cls-2" d="M356.221,177.832a.336.336,0,0,1,.2-.16,1.043,1.043,0,0,0,.256-.217,2.186,2.186,0,0,1,.33-.343c.076-.079.152-.209.228-.29a.683.683,0,0,0,.229-.289,1.568,1.568,0,0,1,.659-.739,2.1,2.1,0,0,0,.508-.426,18.48,18.48,0,0,0,1.344-1.454,9.257,9.257,0,0,1,.711-.69,4.125,4.125,0,0,0,.532-.759,2.339,2.339,0,0,1,.888-.825,2.909,2.909,0,0,0,.99-.93c.177-.287.406-.576.583-.864.052-.054.128-.082.179-.135a1.481,1.481,0,0,0,.635-.458c.051-.053.076-.181.152-.21a2.863,2.863,0,0,0,.761-.794,3.866,3.866,0,0,1,.761-.793,7.161,7.161,0,0,0,.609-.635,1.3,1.3,0,0,0,.152-.414.681.681,0,0,0,.584-.3,6.6,6.6,0,0,1,.635-.508,1.271,1.271,0,0,0,.533-.607.327.327,0,0,1,.2-.16,3.911,3.911,0,0,0,.813-.491.8.8,0,0,1,.2-.365,1.153,1.153,0,0,1,.331-.038.893.893,0,0,1,.152-.26l.1-.106a.122.122,0,0,1,.077-.028c.2.144.381-.244.611-.024a1.509,1.509,0,0,1-.052-.305.712.712,0,0,1,.126-.233l.077-.08a2.093,2.093,0,0,0,.556-1.245c.025-.281.3-.419.278-.7a2.544,2.544,0,0,1,.507-.529,1.781,1.781,0,0,0,.787-.82,2.482,2.482,0,0,1,.837-.925,1.107,1.107,0,0,0,.355-.319,1.08,1.08,0,0,1,.711-.537c.127-.132,0-.355.177-.49a1.311,1.311,0,0,0,.329-.4l.56-.022a1.6,1.6,0,0,0,.025-.332c.023-.126,0-.255.126-.336a.868.868,0,0,1,.381-.091.886.886,0,0,1,.4-.832,4.034,4.034,0,0,0,.482-.451c.482-.5.938-1.03,1.446-1.509a5.678,5.678,0,0,0,.533-.606,1.384,1.384,0,0,1,.711-.588.653.653,0,0,0,.38-.347,2.482,2.482,0,0,1,.558-.682,8.748,8.748,0,0,0,.634-.713c.254-.265.457-.528.685-.817a5.455,5.455,0,0,1,.736-.768,2.042,2.042,0,0,0,.431-.5,5.487,5.487,0,0,1,.913-.952,1.8,1.8,0,0,0,.305-.318c.178-.185.381-.346.558-.531a2.337,2.337,0,0,0,.483-.5,2.014,2.014,0,0,1,.964-.852.7.7,0,0,1,.3-.522.83.83,0,0,0,.38-.448.33.33,0,0,1,.152-.21,3.59,3.59,0,0,0,.609-.635c.457-.476.888-.927,1.319-1.427a4.853,4.853,0,0,1,.914-.851c.077-.029.126-.131.178-.185s.1-.158.154-.16c.305-.063.482-.35.685-.511.153-.108.2-.362.38-.652a2.418,2.418,0,0,1,.255.041.679.679,0,0,1,.227-.543,8.991,8.991,0,0,1,1.344-1.4l.178-.185a4.847,4.847,0,0,1,.939-1.081,4.634,4.634,0,0,0,.685-.715A5.617,5.617,0,0,1,397,134.64l.007-.007a1.494,1.494,0,0,0,.576-.653,1.353,1.353,0,0,1,.4-.526,5.844,5.844,0,0,0,.711-.843,7.3,7.3,0,0,1,.608-.635c.279-.29.558-.531.812-.846a2.225,2.225,0,0,1,.609-.38.168.168,0,0,1,.154-.007.812.812,0,0,0,.687-.053c.178-.083.407.036.635-.1a.475.475,0,0,1,.306-.063,1.332,1.332,0,0,0,.916-.29,3.329,3.329,0,0,1,.53-1.269c.3-.572.633-1.17.962-1.718a2,2,0,0,0,.253-.571,1.626,1.626,0,0,1,.531-.861c.1-.054.126-.183.2-.263.025-.025.076-.13.1-.105.382-.041.4-.475.685-.613.008-.006.008-.018.015-.026v-.043a3.724,3.724,0,0,0-1.834.467c-.284-.437-.347-.878.321-1.334.01-.009.012-.018.02-.026-.119,0-.246.011-.373.008a1.22,1.22,0,0,1-.63-.068h-.159a5.213,5.213,0,0,0-.76.033c-.115.05-.172,0-.287-.007a3.719,3.719,0,0,0-.464-.144l-.021-.007c-.085-.023-.166-.06-.253-.078h-.173a1.21,1.21,0,0,1-.46.041c0,.106-.061.157-.063.21-.058,0-.057-.054-.113-.055-.171-.057-.4-.221-.628-.121h-.057c-.1-.094-.282-.076-.442-.14-.024.005-.041.024-.07.022a.37.37,0,0,0-.232.048.465.465,0,0,1-.289.1c-.229-.006-.408.2-.632.037-.057-.054-.057,0-.116,0h-.026c-.039.016-.07.026-.1.036a2.335,2.335,0,0,0-.392.384.213.213,0,0,1-.069.061,2.933,2.933,0,0,0-.792.718.6.6,0,0,1-.118.09c-1.057-.148-2.117-.3-3.171-.474a8.654,8.654,0,0,0-4.876.455c-.967.4-1.931.808-2.861-.448a1.6,1.6,0,0,0-1.557-.414,3.482,3.482,0,0,1-2.989-.244c-.136-.1-.345-.207-.449-.124-1.265,1-2.591.083-3.885.274-1.314.191-2.645.158-3.968.221-.235.011-.516.129-.695-.014-1.322-1.057-2.576-.368-3.837.236-1.39.667-2.8.309-4.2.131-1.166-.147-2.339-.507-3.425.528a.794.794,0,0,1-.68.192c-2-.462-4.042.025-6.043-.644-.246-.084-.5-.163-.749-.23,0,1.017.009,2.03.089,3.033.27,3.4-.189,6.748-.065,10.121a2,2,0,0,1,.022.664c-1.21,3-.283,6.125-.218,9.179a12.182,12.182,0,0,1-.151,3.977,1.83,1.83,0,0,0-.078.967,5.1,5.1,0,0,1,.039,3.547c.334,2.317-.148,4.74.417,7.018a11.338,11.338,0,0,1-.046,5.308c-.12.536-.279,1.06-.356,1.607a4.059,4.059,0,0,0,.448,3.151,3.975,3.975,0,0,1,.528,2.808q-.1,1.446-.187,2.894c.414-.088.829-.128,1.243-.177-.013-.214.13-.338.26-.483A.761.761,0,0,0,356.221,177.832Zm8.828-46.043v.014a.037.037,0,0,1-.006-.015Z"/><path class="cls-3" d="M365.049,131.789h0a.016.016,0,0,0,.006.015Z"/><path class="cls-3" d="M406.82,128.155c.015-.844-.014-1.685-.062-2.525-.017-.274-.036-.547-.055-.82-.007.008-.007.02-.015.026-.28.138-.3.572-.685.613-.026-.025-.077.08-.1.105-.077.08-.1.209-.2.263a1.626,1.626,0,0,0-.531.861,2,2,0,0,1-.253.571c-.329.548-.658,1.146-.962,1.718a3.322,3.322,0,0,0-.53,1.269,1.332,1.332,0,0,1-.916.29.475.475,0,0,0-.306.063c-.228.137-.457.018-.635.1a.812.812,0,0,1-.687.053.168.168,0,0,0-.154.007,2.225,2.225,0,0,0-.609.38c-.254.315-.533.556-.812.846a7.3,7.3,0,0,0-.608.635,5.844,5.844,0,0,1-.711.843,1.353,1.353,0,0,0-.4.526,1.494,1.494,0,0,1-.576.653l-.007.007a5.591,5.591,0,0,0-1.116,1.062,4.634,4.634,0,0,1-.685.715,4.847,4.847,0,0,0-.939,1.081l-.178.185a8.991,8.991,0,0,0-1.344,1.4.679.679,0,0,0-.227.543,2.418,2.418,0,0,0-.255-.041c-.179.29-.227.544-.38.652-.2.161-.38.448-.685.511-.051,0-.1.106-.154.16s-.1.156-.178.185a4.853,4.853,0,0,0-.914.851c-.431.5-.862.951-1.319,1.427a3.59,3.59,0,0,1-.609.635.33.33,0,0,0-.152.21.83.83,0,0,1-.38.448.7.7,0,0,0-.3.522,2.014,2.014,0,0,0-.964.852,2.337,2.337,0,0,1-.483.5c-.177.185-.38.346-.558.531a1.837,1.837,0,0,1-.305.318,5.451,5.451,0,0,0-.913.952,2.042,2.042,0,0,1-.431.5,5.455,5.455,0,0,0-.736.768c-.228.289-.431.552-.685.817a8.748,8.748,0,0,1-.634.713,2.482,2.482,0,0,0-.558.682.653.653,0,0,1-.38.347,1.384,1.384,0,0,0-.711.588,5.678,5.678,0,0,1-.533.606c-.508.479-.964,1.006-1.446,1.509a4.034,4.034,0,0,1-.482.451.886.886,0,0,0-.405.832.868.868,0,0,0-.381.091c-.127.081-.1.21-.126.336a1.61,1.61,0,0,1-.025.332l-.56.022a1.311,1.311,0,0,1-.329.4c-.179.135-.05.358-.177.49a1.08,1.08,0,0,0-.711.537,1.107,1.107,0,0,1-.355.319,2.482,2.482,0,0,0-.837.925,1.781,1.781,0,0,1-.787.82,2.544,2.544,0,0,0-.507.529c.026.28-.253.418-.278.7a2.093,2.093,0,0,1-.556,1.245l-.077.08a.712.712,0,0,0-.126.233,1.509,1.509,0,0,0,.052.3c-.23-.22-.407.168-.611.024a.122.122,0,0,0-.077.028l-.1.106a.893.893,0,0,0-.152.26,1.153,1.153,0,0,0-.331.038.8.8,0,0,0-.2.365,3.911,3.911,0,0,1-.813.491.327.327,0,0,0-.2.16,1.271,1.271,0,0,1-.533.607,6.451,6.451,0,0,0-.635.508.681.681,0,0,1-.584.3,1.3,1.3,0,0,1-.152.414,7.161,7.161,0,0,1-.609.635,3.841,3.841,0,0,0-.761.793,2.863,2.863,0,0,1-.761.794c-.076.029-.1.157-.152.21a1.481,1.481,0,0,1-.635.458c-.051.053-.127.081-.179.135-.177.288-.406.577-.583.864a2.909,2.909,0,0,1-.99.93,2.339,2.339,0,0,0-.888.825,4.174,4.174,0,0,1-.532.759,9.078,9.078,0,0,0-.711.69,18.48,18.48,0,0,1-1.344,1.454,2.1,2.1,0,0,1-.508.426,1.568,1.568,0,0,0-.659.739.689.689,0,0,1-.229.289c-.076.081-.152.211-.228.29a2.186,2.186,0,0,0-.33.343,1.043,1.043,0,0,1-.256.217.336.336,0,0,0-.2.16.766.766,0,0,1-.168.266c-.13.145-.273.269-.26.483a22.294,22.294,0,0,1,6.21.277,14.8,14.8,0,0,0,2.8-.035c.312-.009.639-.164.932-.072,2.1.657,4.233.273,6.311.062,2.427-.245,4.841.548,7.248-.11a1.1,1.1,0,0,1,.7.016c.1.04.195.062.292.1,2.6.963,5.2.432,7.808.02a2.847,2.847,0,0,1,1.587.226,2.769,2.769,0,0,0,3.179-.132,2.5,2.5,0,0,1,.288-.2.477.477,0,0,1,.372-.094c2.491.8,5.04-.544,7.559.548.039.017.075.022.114.039a3.643,3.643,0,0,0,2.04.171.809.809,0,0,0,.153.043l.682.013.351.006h.083v.075a1.064,1.064,0,0,1,.62.152.855.855,0,0,0,.15-.574,3.7,3.7,0,0,1,.866.058c-.085-.6-.155-1.2-.218-1.809.626-.415.305-.843-.014-1.271-.048-.063-.071-.125-.111-.187-.076-1.043-.125-2.089-.115-3.142.343-1.214.631-2.431.9-3.649a.818.818,0,0,0-.274-.951,1.3,1.3,0,0,1-.538-.653v-.475q.009-1.374-.009-2.748a89.324,89.324,0,0,1,.212-10.348,8.433,8.433,0,0,1,.264-1.64,6.751,6.751,0,0,0,.28-1.372,4.585,4.585,0,0,0-.518-2.745c-.817-1.524-.516-3.342-.164-4.89a40.308,40.308,0,0,0,.741-5.986c.017-.221.034-.442.049-.664a14.3,14.3,0,0,1,.2-2.346c.042-.163.08-.325.12-.486A8.39,8.39,0,0,0,406.82,128.155Z"/><path class="cls-2" d="M324.894,34.525c0,2.338-1.661,4.225-5.824,4.225a10.992,10.992,0,0,1-4.717-.923l.533-1.6a10.193,10.193,0,0,0,4.348.862c2.789,0,3.773-.882,3.773-2.461,0-1.333-.9-2.277-3.568-2.277h-3.794V30.69h4.922c1.476-.594,1.989-1.374,1.989-2.461,0-1.579-1.066-2.173-3.22-2.173a9.472,9.472,0,0,0-4.245.963l-.492-1.538a10.809,10.809,0,0,1,4.881-1.087c3.035,0,4.963,1.169,4.963,3.733a3.491,3.491,0,0,1-2.031,3.138C324.135,31.9,324.894,32.844,324.894,34.525Z"/><path class="cls-4" d="M376.162,28.374c0,2.338-1.661,4.225-5.824,4.225a11.022,11.022,0,0,1-4.717-.923l.534-1.6a10.2,10.2,0,0,0,4.347.861c2.789,0,3.774-.881,3.774-2.461,0-1.333-.9-2.276-3.569-2.276h-3.794V24.539h4.922c1.477-.6,1.989-1.374,1.989-2.461,0-1.579-1.066-2.174-3.219-2.174a9.459,9.459,0,0,0-4.245.964l-.493-1.538a10.809,10.809,0,0,1,4.881-1.087c3.035,0,4.963,1.169,4.963,3.732a3.491,3.491,0,0,1-2.03,3.138C375.4,25.749,376.162,26.692,376.162,28.374Z"/><path class="cls-4" d="M397.879,44.778c0,5.168-1.948,7.3-5.229,7.3-3.446,0-5.107-2.4-5.107-7.055,0-4.86,1.948-7.3,5.23-7.3C396.218,37.724,397.879,40.123,397.879,44.778Zm-8.408.144c0,.615.02,1.189.061,1.7l6.009-5.209a2.666,2.666,0,0,0-2.809-2.01C390.23,39.405,389.471,41.333,389.471,44.922Zm6.48-.041c0-.615-.02-1.19-.061-1.7l-6.009,5.209a2.667,2.667,0,0,0,2.81,2.009c2.5,0,3.26-1.519,3.26-5.518Z"/><path class="cls-4" d="M433.58,28.374c0,2.338-1.661,4.225-5.824,4.225a11.022,11.022,0,0,1-4.717-.923l.534-1.6a10.185,10.185,0,0,0,4.347.861c2.789,0,3.774-.881,3.774-2.461,0-1.333-.9-2.276-3.569-2.276h-3.794V24.539h4.922c1.477-.6,1.989-1.374,1.989-2.461,0-1.579-1.066-2.174-3.219-2.174a9.459,9.459,0,0,0-4.245.964l-.493-1.538a10.809,10.809,0,0,1,4.881-1.087c3.035,0,4.963,1.169,4.963,3.732a3.491,3.491,0,0,1-2.03,3.138C432.822,25.749,433.58,26.692,433.58,28.374Z"/><path class="cls-4" d="M455.524,50.192v1.682h-9.762V50.192h4.348V41.374l-4.348,1.661V41.21l4.348-1.661v-1.62H452V50.192Z"/><path class="cls-4" d="M491,28.374c0,2.338-1.661,4.225-5.824,4.225a11.022,11.022,0,0,1-4.717-.923l.533-1.6a10.207,10.207,0,0,0,4.348.861c2.789,0,3.773-.881,3.773-2.461,0-1.333-.9-2.276-3.568-2.276h-3.794V24.539h4.922c1.477-.6,1.989-1.374,1.989-2.461,0-1.579-1.066-2.174-3.219-2.174a9.463,9.463,0,0,0-4.246.964l-.492-1.538a10.809,10.809,0,0,1,4.881-1.087c3.035,0,4.963,1.169,4.963,3.732a3.491,3.491,0,0,1-2.03,3.138C490.243,25.749,491,26.692,491,28.374Z"/><path class="cls-4" d="M512.862,50.192v1.682h-10.09V49.987c3.589-2.194,7.772-4.429,7.772-8,0-1.579-.7-2.584-3.035-2.584-2.543,0-3.22,1.128-3.22,3.056a3.515,3.515,0,0,0,.164,1.251l-1.948-.144a9.59,9.59,0,0,1-.082-1.312c0-2.728,1.784-4.532,5.189-4.532,4,0,4.86,2.214,4.86,4.06,0,3.938-3.691,6.152-5.947,7.67l-1.108.492v.246Z"/><path class="cls-4" d="M550.473,28.374c0,2.338-1.661,4.225-5.824,4.225a11.022,11.022,0,0,1-4.717-.923l.533-1.6a10.207,10.207,0,0,0,4.348.861c2.789,0,3.773-.881,3.773-2.461,0-1.333-.9-2.276-3.568-2.276h-3.794V24.539h4.922c1.476-.6,1.989-1.374,1.989-2.461,0-1.579-1.066-2.174-3.22-2.174a9.462,9.462,0,0,0-4.245.964l-.492-1.538a10.812,10.812,0,0,1,4.881-1.087c3.035,0,4.963,1.169,4.963,3.732a3.491,3.491,0,0,1-2.031,3.138C549.714,25.749,550.473,26.692,550.473,28.374Z"/><path class="cls-4" d="M572.005,47.854c0,2.338-1.661,4.225-5.824,4.225a10.992,10.992,0,0,1-4.717-.923l.533-1.6a10.207,10.207,0,0,0,4.348.861c2.789,0,3.773-.882,3.773-2.461,0-1.333-.9-2.276-3.568-2.276h-3.794V44.019h4.922c1.477-.594,1.989-1.374,1.989-2.461,0-1.579-1.066-2.173-3.219-2.173a9.463,9.463,0,0,0-4.246.964l-.492-1.539a10.825,10.825,0,0,1,4.881-1.086c3.035,0,4.963,1.168,4.963,3.732a3.494,3.494,0,0,1-2.03,3.138C571.246,45.229,572.005,46.173,572.005,47.854Z"/><path class="cls-4" d="M376.49,88.131v1.681H366.4V87.926c3.589-2.2,7.772-4.43,7.772-8,0-1.579-.7-2.584-3.035-2.584-2.543,0-3.22,1.128-3.22,3.055a3.515,3.515,0,0,0,.164,1.251l-1.948-.143a9.605,9.605,0,0,1-.082-1.313c0-2.727,1.784-4.532,5.188-4.532,4,0,4.861,2.215,4.861,4.061,0,3.937-3.692,6.152-5.947,7.669l-1.108.493v.246Z"/><path class="cls-4" d="M397.879,102.2c0,5.168-1.948,7.3-5.229,7.3-3.446,0-5.107-2.4-5.107-7.055,0-4.86,1.948-7.3,5.23-7.3C396.218,95.144,397.879,97.544,397.879,102.2Zm-8.408.144c0,.615.02,1.189.061,1.7l6.009-5.209a2.666,2.666,0,0,0-2.809-2.01c-2.5,0-3.261,1.929-3.261,5.518Zm6.48-.041c0-.616-.02-1.19-.061-1.7l-6.009,5.209a2.667,2.667,0,0,0,2.81,2.01c2.5,0,3.26-1.522,3.26-5.522Z"/><path class="cls-4" d="M433.908,88.131v1.681H423.819V87.926c3.588-2.2,7.772-4.43,7.772-8,0-1.579-.7-2.584-3.035-2.584-2.543,0-3.22,1.128-3.22,3.055a3.515,3.515,0,0,0,.164,1.251l-1.948-.143a9.605,9.605,0,0,1-.082-1.313c0-2.727,1.784-4.532,5.188-4.532,4,0,4.861,2.215,4.861,4.061,0,3.937-3.692,6.152-5.947,7.669l-1.108.493v.246Z"/><path class="cls-4" d="M455.524,107.613V109.3h-9.762v-1.682h4.348V98.8l-4.348,1.661v-1.83l4.348-1.661V95.349H452v12.264Z"/><path class="cls-4" d="M491.33,88.131v1.681H481.24V87.926c3.589-2.2,7.773-4.43,7.773-8,0-1.579-.7-2.584-3.035-2.584-2.543,0-3.22,1.128-3.22,3.055a3.515,3.515,0,0,0,.164,1.251l-1.948-.143a9.605,9.605,0,0,1-.082-1.313c0-2.727,1.784-4.532,5.188-4.532,4,0,4.861,2.215,4.861,4.061,0,3.937-3.692,6.152-5.948,7.669l-1.107.493v.246Z"/><path class="cls-4" d="M512.862,107.613V109.3h-10.09v-1.887c3.589-2.194,7.772-4.43,7.772-8,0-1.579-.7-2.584-3.035-2.584-2.543,0-3.22,1.128-3.22,3.056a3.515,3.515,0,0,0,.164,1.251l-1.948-.144a9.59,9.59,0,0,1-.082-1.312c0-2.728,1.784-4.533,5.189-4.533,4,0,4.86,2.215,4.86,4.061,0,3.937-3.691,6.152-5.947,7.67l-1.108.492v.246Z"/><path class="cls-4" d="M550.8,88.131v1.681H540.71V87.926c3.589-2.2,7.773-4.43,7.773-8,0-1.579-.7-2.584-3.036-2.584-2.542,0-3.219,1.128-3.219,3.055a3.49,3.49,0,0,0,.164,1.251l-1.948-.143a9.605,9.605,0,0,1-.082-1.313c0-2.727,1.784-4.532,5.188-4.532,4,0,4.86,2.215,4.86,4.061,0,3.937-3.691,6.152-5.947,7.669l-1.107.493v.246Z"/><path class="cls-4" d="M572.005,105.275c0,2.338-1.661,4.225-5.824,4.225a10.992,10.992,0,0,1-4.717-.923l.533-1.6a10.193,10.193,0,0,0,4.348.862c2.789,0,3.773-.882,3.773-2.461,0-1.333-.9-2.277-3.568-2.277h-3.794V101.44h4.922c1.477-.594,1.989-1.374,1.989-2.461,0-1.579-1.066-2.173-3.219-2.173a9.492,9.492,0,0,0-4.246.963l-.492-1.538a10.812,10.812,0,0,1,4.881-1.087c3.035,0,4.963,1.169,4.963,3.733a3.494,3.494,0,0,1-2.03,3.138C571.246,102.65,572.005,103.594,572.005,105.275Z"/><path class="cls-4" d="M376.573,147.6v1.681h-9.762V147.6h4.348v-8.819l-4.348,1.661v-1.825l4.348-1.661v-1.62h1.886V147.6Z"/><path class="cls-4" d="M397.879,161.669c0,5.168-1.948,7.3-5.229,7.3-3.446,0-5.107-2.4-5.107-7.055,0-4.86,1.948-7.3,5.23-7.3C396.218,154.614,397.879,157.014,397.879,161.669Zm-8.408.143c0,.616.02,1.19.061,1.7l6.009-5.209a2.666,2.666,0,0,0-2.809-2.01c-2.5.007-3.261,1.931-3.261,5.519Zm6.48-.041c0-.615-.02-1.189-.061-1.7l-6.009,5.209a2.667,2.667,0,0,0,2.81,2.01c2.5,0,3.26-1.52,3.26-5.519Z"/><path class="cls-4" d="M433.991,147.6v1.681h-9.762V147.6h4.348v-8.819l-4.348,1.661v-1.825l4.348-1.661v-1.62h1.886V147.6Z"/><path class="cls-4" d="M455.524,167.083v1.682h-9.762v-1.682h4.348v-8.818l-4.348,1.661V158.1l4.348-1.661v-1.62H452v12.264Z"/><path class="cls-4" d="M491.412,147.6v1.681H481.65V147.6H486v-8.819l-4.348,1.661v-1.825L486,136.957v-1.62h1.887V147.6Z"/><path class="cls-4" d="M512.862,167.083v1.682h-10.09v-1.887c3.589-2.195,7.772-4.43,7.772-8,0-1.579-.7-2.584-3.035-2.584-2.543,0-3.22,1.128-3.22,3.055a3.515,3.515,0,0,0,.164,1.251l-1.948-.143a9.605,9.605,0,0,1-.082-1.313c0-2.727,1.784-4.532,5.189-4.532,4,0,4.86,2.215,4.86,4.061,0,3.937-3.691,6.152-5.947,7.67l-1.108.492v.246Z"/><g class="cls-5"><path class="cls-4" d="M550.883,147.6v1.681h-9.762V147.6h4.348v-8.819l-4.348,1.661v-1.825l4.348-1.661v-1.62h1.886V147.6Z"/></g><path class="cls-4" d="M572.005,164.745c0,2.338-1.661,4.225-5.824,4.225a10.992,10.992,0,0,1-4.717-.923l.533-1.6a10.207,10.207,0,0,0,4.348.861c2.789,0,3.773-.881,3.773-2.46,0-1.333-.9-2.277-3.568-2.277h-3.794V160.91h4.922c1.477-.595,1.989-1.374,1.989-2.461,0-1.579-1.066-2.174-3.219-2.174a9.463,9.463,0,0,0-4.246.964l-.492-1.538a10.812,10.812,0,0,1,4.881-1.087c3.035,0,4.963,1.169,4.963,3.733a3.492,3.492,0,0,1-2.03,3.137C571.246,162.12,572.005,163.063,572.005,164.745Z"/><path class="cls-4" d="M376.347,199.607c0,5.168-1.948,7.3-5.23,7.3-3.445,0-5.106-2.4-5.106-7.055,0-4.86,1.948-7.3,5.229-7.3C374.686,192.553,376.347,194.952,376.347,199.607Zm-8.408.144c0,.615.02,1.189.061,1.7l6.009-5.209a2.667,2.667,0,0,0-2.81-2.01c-2.5,0-3.26,1.93-3.26,5.519Zm6.48-.041c0-.615-.02-1.19-.061-1.7l-6.009,5.209a2.665,2.665,0,0,0,2.809,2.009c2.5,0,3.261-1.519,3.261-5.518Z"/><path class="cls-4" d="M397.879,219.088c0,5.168-1.948,7.3-5.229,7.3-3.446,0-5.107-2.4-5.107-7.055,0-4.86,1.948-7.3,5.23-7.3C396.218,212.033,397.879,214.433,397.879,219.088Zm-8.408.143c0,.616.02,1.19.061,1.7l6.009-5.209a2.665,2.665,0,0,0-2.809-2.009C390.23,213.715,389.471,215.642,389.471,219.231Zm6.48-.041c0-.615-.02-1.189-.061-1.7l-6.009,5.209a2.667,2.667,0,0,0,2.81,2.01c2.5,0,3.26-1.52,3.26-5.519Z"/><path class="cls-4" d="M433.765,199.607c0,5.168-1.948,7.3-5.23,7.3-3.445,0-5.106-2.4-5.106-7.055,0-4.86,1.948-7.3,5.229-7.3C432.1,192.553,433.765,194.952,433.765,199.607Zm-8.408.144c0,.615.02,1.189.061,1.7l6.009-5.209a2.667,2.667,0,0,0-2.81-2.01c-2.5,0-3.26,1.93-3.26,5.519Zm6.48-.041c0-.615-.02-1.19-.061-1.7l-6.009,5.209a2.665,2.665,0,0,0,2.809,2.009c2.5,0,3.261-1.519,3.261-5.518Z"/><path class="cls-4" d="M455.524,224.5v1.681h-9.762V224.5h4.348v-8.819l-4.348,1.662v-1.826l4.348-1.661v-1.62H452V224.5Z"/><path class="cls-4" d="M491.187,199.607c0,5.168-1.948,7.3-5.23,7.3-3.445,0-5.106-2.4-5.106-7.055,0-4.86,1.948-7.3,5.229-7.3C489.526,192.553,491.187,194.952,491.187,199.607Zm-8.408.144c0,.615.02,1.189.061,1.7l6.009-5.209a2.667,2.667,0,0,0-2.81-2.01c-2.5,0-3.26,1.93-3.26,5.519Zm6.48-.041c0-.615-.02-1.19-.061-1.7l-6.009,5.209A2.665,2.665,0,0,0,486,205.226c2.5,0,3.259-1.517,3.259-5.516Z"/><path class="cls-4" d="M512.862,224.5v1.681h-10.09V224.3c3.589-2.2,7.772-4.43,7.772-8,0-1.579-.7-2.584-3.035-2.584-2.543,0-3.22,1.128-3.22,3.055a3.515,3.515,0,0,0,.164,1.251l-1.948-.143a9.605,9.605,0,0,1-.082-1.313c0-2.727,1.784-4.532,5.189-4.532,4,0,4.86,2.215,4.86,4.061,0,3.937-3.691,6.152-5.947,7.67l-1.108.492v.246Z"/><path class="cls-4" d="M550.657,199.607c0,5.168-1.948,7.3-5.229,7.3-3.445,0-5.106-2.4-5.106-7.055,0-4.86,1.948-7.3,5.229-7.3C549,192.553,550.657,194.952,550.657,199.607Zm-8.408.144c0,.615.021,1.189.062,1.7l6.009-5.209a2.668,2.668,0,0,0-2.81-2.01c-2.5,0-3.261,1.93-3.261,5.519Zm6.481-.041c0-.615-.021-1.19-.062-1.7l-6.009,5.209a2.667,2.667,0,0,0,2.81,2.009c2.5,0,3.261-1.519,3.261-5.518Z"/><path class="cls-4" d="M572.005,222.164c0,2.338-1.661,4.225-5.824,4.225a11.022,11.022,0,0,1-4.717-.923l.533-1.6a10.207,10.207,0,0,0,4.348.861c2.789,0,3.773-.881,3.773-2.461,0-1.333-.9-2.276-3.568-2.276h-3.794v-1.661h4.922c1.477-.595,1.989-1.374,1.989-2.461,0-1.579-1.066-2.174-3.219-2.174a9.463,9.463,0,0,0-4.246.964l-.492-1.538a10.812,10.812,0,0,1,4.881-1.087c3.035,0,4.963,1.169,4.963,3.733a3.492,3.492,0,0,1-2.03,3.137C571.246,219.539,572.005,220.482,572.005,222.164Z"/><path class="cls-2" d="M325.222,94.283v1.682h-10.09V94.078c3.589-2.194,7.773-4.43,7.773-8,0-1.579-.7-2.584-3.036-2.584-2.543,0-3.219,1.128-3.219,3.056a3.49,3.49,0,0,0,.164,1.251l-1.949-.144a9.59,9.59,0,0,1-.082-1.312c0-2.728,1.785-4.533,5.189-4.533,4,0,4.86,2.215,4.86,4.061,0,3.937-3.691,6.152-5.947,7.67l-1.107.492v.246Z"/><path class="cls-2" d="M325.3,151.7v1.682h-9.762V151.7h4.348v-8.818l-4.348,1.661V142.72l4.348-1.662v-1.62h1.887V151.7Z"/><path class="cls-2" d="M325.078,203.707c0,5.168-1.948,7.3-5.229,7.3-3.445,0-5.107-2.4-5.107-7.055,0-4.86,1.949-7.3,5.23-7.3C323.417,196.652,325.078,199.052,325.078,203.707Zm-8.408.143c0,.616.021,1.19.062,1.7l6.008-5.209a2.666,2.666,0,0,0-2.809-2.01C317.429,198.334,316.67,200.262,316.67,203.85Zm6.481-.041c0-.615-.021-1.189-.062-1.7l-6.009,5.209a2.667,2.667,0,0,0,2.81,2.01C322.392,209.326,323.151,207.808,323.151,203.809Z"/><path class="cls-2" d="M384.55,275.482c0,5.168-1.948,7.3-5.229,7.3-3.446,0-5.107-2.4-5.107-7.055,0-4.86,1.948-7.3,5.23-7.3C382.889,268.428,384.55,270.827,384.55,275.482Zm-8.408.144c0,.615.02,1.189.061,1.7l6.009-5.209a2.666,2.666,0,0,0-2.809-2.01C376.9,270.109,376.142,272.037,376.142,275.626Zm6.48-.041c0-.615-.02-1.19-.061-1.7l-6.009,5.209a2.667,2.667,0,0,0,2.81,2.009c2.5,0,3.26-1.519,3.26-5.518Z"/><path class="cls-2" d="M444.245,280.9v1.682h-9.761V280.9h4.347v-8.818l-4.347,1.661v-1.825l4.347-1.661v-1.62h1.887V280.9Z"/><path class="cls-2" d="M503.634,280.9v1.682h-10.09V280.7c3.589-2.194,7.773-4.429,7.773-8,0-1.579-.7-2.584-3.036-2.584-2.542,0-3.219,1.128-3.219,3.056a3.493,3.493,0,0,0,.164,1.251l-1.948-.144a9.59,9.59,0,0,1-.082-1.312c0-2.728,1.784-4.532,5.188-4.532,4,0,4.86,2.214,4.86,4.06,0,3.938-3.691,6.153-5.947,7.67l-1.107.492v.246Z"/><path class="cls-2" d="M556.624,278.558c0,2.338-1.661,4.225-5.824,4.225a10.992,10.992,0,0,1-4.717-.923l.533-1.6a10.207,10.207,0,0,0,4.348.861c2.789,0,3.774-.882,3.774-2.461,0-1.333-.9-2.276-3.569-2.276h-3.794v-1.661H552.3c1.477-.6,1.989-1.375,1.989-2.461,0-1.58-1.066-2.174-3.219-2.174a9.459,9.459,0,0,0-4.245.964l-.493-1.538a10.8,10.8,0,0,1,4.881-1.087c3.035,0,4.963,1.169,4.963,3.732a3.494,3.494,0,0,1-2.03,3.138C555.865,275.933,556.624,276.877,556.624,278.558Z"/></svg>