<svg id="Livello_1" data-name="Livello 1" xmlns="http://www.w3.org/2000/svg" viewBox="0 0 952 486.253"><defs><style>.cls-1{fill:#ffeded;}.cls-2{fill:#1858a8;}.cls-3{fill:#f36;}</style></defs><title>10</title><path class="cls-1" d="M269.577,256.956c.347-.247.692-.5,1.045-.739.1-.072.2-.149.306-.224-.023-.217-.054-.436-.07-.653-.042-.58-.1-1.158-.123-1.74a17.96,17.96,0,0,0-.064-2.821.287.287,0,0,1-.007-.133c.314-1.229.047-2.5.276-3.737a2.091,2.091,0,0,0,.053-.666c-.125-.883-.316-1.759-.409-2.646a8.729,8.729,0,0,1,.053-1.606c.025-.314.237-.657.155-.924a5,5,0,0,1-.158-1.556q-1.654,1.139-3.241,2.377a7.553,7.553,0,0,0,.2,1.465,1.438,1.438,0,0,1,.036.53c-.155,1.017-.336,2.031-.49,3.049-.1.666-.175,1.336-.251,2a.66.66,0,0,0,.047.395,3.4,3.4,0,0,1,.307,1.963c.006.311.119.621.123.931a8.583,8.583,0,0,1-.023,2.234,4.538,4.538,0,0,0,.142,2.123,7.916,7.916,0,0,1,.2,1.272c-.147.027-.3.052-.444.08.008.1.014.209.022.313.522-.236,1.034-.493,1.537-.766C269.063,257.31,269.322,257.137,269.577,256.956Z"/><path class="cls-1" d="M396.977,459.756c.347-.247.692-.5,1.045-.739.1-.072.2-.149.306-.224-.023-.217-.054-.436-.07-.653-.042-.58-.1-1.158-.123-1.74a17.96,17.96,0,0,0-.064-2.821.287.287,0,0,1-.007-.133c.314-1.229.047-2.5.276-3.737a2.091,2.091,0,0,0,.053-.666c-.125-.883-.316-1.759-.409-2.646a8.729,8.729,0,0,1,.053-1.606c.025-.314.237-.657.155-.924a5,5,0,0,1-.158-1.556q-1.654,1.139-3.241,2.377a7.553,7.553,0,0,0,.2,1.465,1.438,1.438,0,0,1,.036.53c-.155,1.017-.336,2.031-.49,3.049-.1.666-.175,1.336-.251,2a.66.66,0,0,0,.047.395,3.4,3.4,0,0,1,.307,1.963c.006.311.119.621.123.931a8.583,8.583,0,0,1-.023,2.234,4.538,4.538,0,0,0,.142,2.123,7.916,7.916,0,0,1,.2,1.272c-.147.027-.3.052-.444.08.008.1.014.209.022.313.522-.236,1.034-.493,1.537-.766C396.463,460.11,396.722,459.937,396.977,459.756Z"/><path class="cls-1" d="M281.525,266.765a4.219,4.219,0,0,0-.206.948,1.565,1.565,0,0,1-.126.539,1.707,1.707,0,0,0-.147.64.69.69,0,0,1-.171.476,3.189,3.189,0,0,0-.694,1.345.855.855,0,0,1-.2.359,3.323,3.323,0,0,0-.341.566c-.082.153-.149.314-.226.47a.328.328,0,0,1-.082.112,2.074,2.074,0,0,0-.5.621,1.263,1.263,0,0,1-.134.16,2.312,2.312,0,0,1-.277.313c-.3.239-.523.556-.81.808a.935.935,0,0,0-.107.089,2.9,2.9,0,0,1-1.3.839,7.411,7.411,0,0,0-1.217.419.163.163,0,0,1-.1.033,1.579,1.579,0,0,0-.92.249c-.2.086-.386.215-.59.3a2.176,2.176,0,0,0-.507.3c-.222.17-.45.332-.682.487a1.132,1.132,0,0,1-.313.146,1.518,1.518,0,0,0-.739.556.932.932,0,0,1-.409.307,2.846,2.846,0,0,0-.534.256.646.646,0,0,1-.6.107.165.165,0,0,0-.1,0c-.3.091-.621.1-.914.218a.812.812,0,0,1-.2.046c-.138.019-.277.033-.415.047a.272.272,0,0,1-.137,0c-.2-.112-.434-.053-.646-.106-.124-.032-.251-.049-.375-.079a.2.2,0,0,1-.118-.063c-.224-.375-.6-.4-.971-.422-.082-.006-.164,0-.245-.008a6.969,6.969,0,0,1-.833-.078,1.763,1.763,0,0,1-.7-.28,1.092,1.092,0,0,0-1.058-.161c-.1.035-.2.073-.3.112a.546.546,0,0,1-.5-.037,2.517,2.517,0,0,0-.844-.321.261.261,0,0,1-.2-.117c-.146-.259-.429-.3-.664-.419a.837.837,0,0,0-.324-.007.336.336,0,0,0-.22-.268.282.282,0,0,1-.166-.214.657.657,0,0,0-.183-.291,3.281,3.281,0,0,0-.62-.658c-.169-.3-.517-.433-.7-.728a.273.273,0,0,0-.173-.1.3.3,0,0,1-.262-.288.964.964,0,0,0-.321-.6,2.8,2.8,0,0,1-.206-.277,2.628,2.628,0,0,0-.364-.367.084.084,0,0,0-.032-.014c-.162-.045-.2-.222-.325-.305a2.159,2.159,0,0,1-.357-.213,1.111,1.111,0,0,1-.25-.565,5.3,5.3,0,0,0-.165-.677,1.993,1.993,0,0,1-.14-.39c-.007-.046-.037-.1-.024-.136a.825.825,0,0,0-.055-.543.29.29,0,0,1,0-.17.569.569,0,0,0-.144-.579,8.989,8.989,0,0,1-.627-.96.586.586,0,0,1-.072-.258,3.275,3.275,0,0,0-.123-.789,1.61,1.61,0,0,1-.048-.447.72.72,0,0,0-.082-.4.316.316,0,0,1-.045-.166c0-.382-.056-.76-.1-1.139a1.8,1.8,0,0,1,.007-.207c0-.07.025-.157-.007-.206a.828.828,0,0,1-.051-.6.76.76,0,0,0-.037-.274.726.726,0,0,1,0-.413c.072-.257.129-.519.2-.776a.6.6,0,0,0-.009-.376,2.99,2.99,0,0,1-.072-1.041.422.422,0,0,1,.044-.165c.1-.212.2-.42.3-.631s.182-.4.417-.483a.254.254,0,0,0,.151-.181,2.2,2.2,0,0,0,.133-.576,1.128,1.128,0,0,1,.319-.749,2.333,2.333,0,0,0,.51-.775.857.857,0,0,1,.371-.448,1.392,1.392,0,0,0,.394-.386,4.193,4.193,0,0,1,.4-.6c.089-.086.1-.253.159-.426a.781.781,0,0,0,.337-.683l-.094-.081a1.537,1.537,0,0,0,.522-.676,1.346,1.346,0,0,1,.254-.41c.172-.191.3-.411.46-.608.029-.037.044-.088.08-.113.1-.074.218-.13.318-.207a2.112,2.112,0,0,1,.283-.249.577.577,0,0,0,.3-.289c.114,0,.218,0,.321,0a.726.726,0,0,0,.461-.116.74.74,0,0,1,.61-.073.968.968,0,0,0,.515,0,1.4,1.4,0,0,1,.244-.016.365.365,0,0,0,.169-.032,1.4,1.4,0,0,1,.519-.191.284.284,0,0,0,.145-.087.484.484,0,0,1,.4-.183,1.154,1.154,0,0,0,.336-.076,2.274,2.274,0,0,1,.645-.14,3.463,3.463,0,0,0,.61-.132c.079-.019.155-.048.233-.07.347-.1.695-.191,1.04-.293a.713.713,0,0,1,.377-.035.519.519,0,0,0,.2,0,1,1,0,0,1,.71.1c.1.056.234.042.329.1a.936.936,0,0,0,.671.07,5.3,5.3,0,0,0,.623-.069.621.621,0,0,1,.311.014.82.82,0,0,0,.73-.115.169.169,0,0,1,.286.121.573.573,0,0,0,.387.487,2.612,2.612,0,0,1,.532.391.9.9,0,0,0,.542.207.638.638,0,0,1,.362.109.6.6,0,0,0,.4.108c.081,0,.163,0,.245,0a.557.557,0,0,1,.174.008,3.672,3.672,0,0,0,.445.19c.145.036.305.016.431.116a.94.94,0,0,0,.491.165,1.186,1.186,0,0,1,.679.308.949.949,0,0,0,.55.275,1.156,1.156,0,0,1,.816.421.311.311,0,0,0,.273.125c.287-.013.461.194.663.341.039.028.045.1.056.131.246.149.473.284.7.425a.409.409,0,0,1,.122.123.649.649,0,0,0,.382.337.085.085,0,0,1,.053.043c.091.23.3.266.508.305a1.337,1.337,0,0,1,.325.685.313.313,0,0,0,.063.159.294.294,0,0,1,.032.265.61.61,0,0,0,.055.473.628.628,0,0,1,.05.3,1,1,0,0,0,.926.962c.081.008.162.013.245.02a.818.818,0,0,1,.162.528,1.327,1.327,0,0,0,.153.672,1.8,1.8,0,0,1,.126.434,3.262,3.262,0,0,1,.053.343.373.373,0,0,1,.005.172,2.189,2.189,0,0,0-.051.66.656.656,0,0,0,.142.454Z"/><path class="cls-1" d="M409,468.946a4.222,4.222,0,0,0-.163.957,1.6,1.6,0,0,1-.1.544,1.658,1.658,0,0,0-.118.646.7.7,0,0,1-.15.483,3.191,3.191,0,0,0-.633,1.375.862.862,0,0,1-.183.368,3.337,3.337,0,0,0-.314.58c-.076.157-.135.321-.2.48a.342.342,0,0,1-.077.115,2.106,2.106,0,0,0-.468.643,1.178,1.178,0,0,1-.127.166,2.191,2.191,0,0,1-.262.325c-.29.253-.5.58-.773.844a.83.83,0,0,0-.1.094,2.9,2.9,0,0,1-1.258.9,7.249,7.249,0,0,0-1.2.473.17.17,0,0,1-.1.037,1.572,1.572,0,0,0-.908.29c-.2.1-.377.233-.577.324a2.151,2.151,0,0,0-.493.323c-.214.18-.434.351-.659.517a1.146,1.146,0,0,1-.306.16,1.53,1.53,0,0,0-.714.589.931.931,0,0,1-.394.325,2.793,2.793,0,0,0-.522.28.644.644,0,0,1-.591.133.176.176,0,0,0-.1,0c-.3.105-.615.124-.9.259a.846.846,0,0,1-.2.055c-.137.025-.275.046-.412.065a.256.256,0,0,1-.137,0c-.209-.1-.436-.033-.65-.077-.125-.026-.253-.037-.378-.062a.2.2,0,0,1-.121-.058,1.054,1.054,0,0,0-.989-.377c-.082,0-.164,0-.246,0a6.633,6.633,0,0,1-.835-.04,1.728,1.728,0,0,1-.715-.248,1.1,1.1,0,0,0-1.065-.113c-.1.039-.194.082-.289.125a.546.546,0,0,1-.5-.014,2.509,2.509,0,0,0-.857-.283.259.259,0,0,1-.208-.108c-.157-.252-.443-.284-.682-.389a.862.862,0,0,0-.325.009.336.336,0,0,0-.232-.259.28.28,0,0,1-.175-.2.668.668,0,0,0-.2-.284,3.252,3.252,0,0,0-.649-.629c-.182-.294-.535-.409-.729-.695a.27.27,0,0,0-.178-.093.3.3,0,0,1-.274-.277.965.965,0,0,0-.348-.585,2.8,2.8,0,0,1-.218-.268,2.648,2.648,0,0,0-.38-.35.083.083,0,0,0-.032-.013c-.165-.038-.212-.212-.339-.29a2.285,2.285,0,0,1-.367-.2,1.113,1.113,0,0,1-.274-.554,5.463,5.463,0,0,0-.2-.669,1.939,1.939,0,0,1-.157-.383c-.009-.046-.042-.1-.03-.134a.837.837,0,0,0-.079-.541.279.279,0,0,1,0-.169.57.57,0,0,0-.17-.572,9.034,9.034,0,0,1-.67-.931.582.582,0,0,1-.083-.255,3.263,3.263,0,0,0-.159-.782,1.629,1.629,0,0,1-.068-.445.725.725,0,0,0-.1-.4.306.306,0,0,1-.052-.163c-.022-.382-.091-.757-.149-1.134a1.783,1.783,0,0,1,0-.207c0-.07.018-.158-.017-.206a.835.835,0,0,1-.078-.6.738.738,0,0,0-.049-.272.722.722,0,0,1-.013-.412c.061-.261.105-.525.166-.785a.6.6,0,0,0-.025-.376,3,3,0,0,1-.119-1.036.425.425,0,0,1,.036-.167c.087-.215.179-.428.268-.643a.771.771,0,0,1,.395-.5.253.253,0,0,0,.143-.187,2.224,2.224,0,0,0,.106-.581,1.13,1.13,0,0,1,.285-.763,2.35,2.35,0,0,0,.475-.8.853.853,0,0,1,.35-.464,1.4,1.4,0,0,0,.377-.4,4.1,4.1,0,0,1,.372-.616c.085-.09.087-.257.139-.433a.781.781,0,0,0,.307-.7l-.1-.076a1.543,1.543,0,0,0,.491-.7,1.346,1.346,0,0,1,.235-.421c.164-.2.282-.424.432-.629.027-.037.041-.089.075-.116.1-.078.212-.14.308-.221s.166-.2.272-.261a.577.577,0,0,0,.288-.3l.321-.014a.73.73,0,0,0,.455-.137.742.742,0,0,1,.606-.1.968.968,0,0,0,.515-.026,1.358,1.358,0,0,1,.242-.027.349.349,0,0,0,.167-.04,1.412,1.412,0,0,1,.511-.214.274.274,0,0,0,.14-.094.485.485,0,0,1,.388-.2,1.179,1.179,0,0,0,.332-.091,2.244,2.244,0,0,1,.638-.169,3.44,3.44,0,0,0,.6-.159c.078-.022.153-.056.23-.081.342-.113.686-.222,1.026-.34a.73.73,0,0,1,.375-.052.521.521,0,0,0,.2-.008,1,1,0,0,1,.713.065c.1.052.236.031.334.084a.943.943,0,0,0,.673.04,5.488,5.488,0,0,0,.619-.1.622.622,0,0,1,.312,0,.818.818,0,0,0,.724-.147.169.169,0,0,1,.291.108.569.569,0,0,0,.408.468,2.616,2.616,0,0,1,.55.368.9.9,0,0,0,.55.181.651.651,0,0,1,.367.093.591.591,0,0,0,.4.09c.081,0,.163-.008.245-.01a.508.508,0,0,1,.174,0,4.145,4.145,0,0,0,.453.17c.146.029.305,0,.436.1a.942.942,0,0,0,.5.143,1.184,1.184,0,0,1,.692.277.961.961,0,0,0,.562.25,1.156,1.156,0,0,1,.834.384.315.315,0,0,0,.279.112c.285-.026.468.173.677.311.041.026.049.1.061.128.253.138.486.263.716.393a.436.436,0,0,1,.128.118.649.649,0,0,0,.4.32.08.08,0,0,1,.055.039c.1.226.313.253.521.282a1.332,1.332,0,0,1,.356.67.316.316,0,0,0,.07.156.293.293,0,0,1,.044.264.606.606,0,0,0,.076.469.622.622,0,0,1,.064.3,1,1,0,0,0,.969.92l.245.008a.818.818,0,0,1,.185.52,1.337,1.337,0,0,0,.184.665,1.807,1.807,0,0,1,.145.427c.031.112.049.227.069.341a.394.394,0,0,1,.013.172,2.157,2.157,0,0,0-.022.661.66.66,0,0,0,.162.448Z"/><path class="cls-2" d="M253.349,53.251V69.4H257.9v1.849h-6.63V51.4h6.63v1.85Z"/><path class="cls-2" d="M273.309,65.339c0,2.638-2.052,4.037-5.254,4.037-3.113,0-5.165-1.173-5.165-3.744,0-1.94,1.511-3.045,3.315-3.969-2.03-.88-3.9-2.008-3.9-4.218,0-2.594,2.21-4.172,5.886-4.172,3.879,0,5.706,1.4,5.706,3.811,0,2.233-1.9,3.429-3.947,4.421C271.753,62.339,273.309,63.4,273.309,65.339Zm-5.142-4.6c1.94-.9,3.654-1.827,3.654-3.563,0-1.263-.97-2.076-3.789-2.076-2.413,0-3.654.813-3.654,2.256C264.378,59.047,266.183,59.9,268.167,60.738Zm3.067,4.691c0-1.444-1.488-2.233-3.247-3-1.669.811-3.022,1.669-3.022,3.112,0,1.127.631,2.052,3.2,2.052C270.6,67.594,271.234,66.669,271.234,65.429Z"/><path class="cls-2" d="M285.173,68.293c0,1.984-1.217,4.307-4.6,4.307V70.909c1.511,0,2.435-.586,2.728-2.007a1.364,1.364,0,0,1-.811.293,2.031,2.031,0,0,1,.09-4.059C283.775,65.136,285.173,66.128,285.173,68.293Z"/><path class="cls-2" d="M317.788,64.617c0,2.5-1.489,4.6-5.345,4.6-3.631,0-5.8-1.94-5.8-7.195,0-4.714,1.782-8.615,7.082-8.615a12.614,12.614,0,0,1,3.834.565l-.564,1.8a10.509,10.509,0,0,0-3.451-.541c-3.315,0-4.4,1.985-4.713,4.465l3.563.429C315.916,60.535,317.788,61.82,317.788,64.617Zm-2.075.181c0-1.76-1.015-2.527-3.812-2.865l-3.179-.383v.361c0,4.194,1.218,5.48,3.9,5.48C314.856,67.391,315.713,66.4,315.713,64.8Z"/><path class="cls-2" d="M329.156,68.293c0,1.984-1.218,4.307-4.6,4.307V70.909c1.511,0,2.436-.586,2.729-2.007a1.365,1.365,0,0,1-.812.293,2.031,2.031,0,0,1,.09-4.059C327.757,65.136,329.156,66.128,329.156,68.293Z"/><path class="cls-2" d="M361.612,64.211c0,2.706-1.827,5.007-6.179,5.007a10.852,10.852,0,0,1-4.962-1.015l.586-1.76a9.369,9.369,0,0,0,4.556.948c2.842,0,3.924-1.2,3.924-3.044,0-1.76-1.308-2.527-4.037-3.023l-3.992-.722.091-6.946h9.517v1.85h-7.488l-.067,3.586,2.661.473C359.853,60.174,361.612,61.369,361.612,64.211Z"/><path class="cls-2" d="M373.138,68.293c0,1.984-1.218,4.307-4.6,4.307V70.909c1.511,0,2.436-.586,2.729-2.007a1.367,1.367,0,0,1-.812.293,2.031,2.031,0,0,1,.09-4.059C371.739,65.136,373.138,66.128,373.138,68.293Z"/><path class="cls-2" d="M405.594,64.211c0,2.706-1.826,5.007-6.179,5.007a10.858,10.858,0,0,1-4.962-1.015l.587-1.76a9.365,9.365,0,0,0,4.555.948c2.842,0,3.925-1.2,3.925-3.044,0-1.76-1.308-2.527-4.037-3.023l-3.992-.722.09-6.946H405.1v1.85h-7.487l-.068,3.586,2.661.473C403.835,60.174,405.594,61.369,405.594,64.211Z"/><path class="cls-2" d="M417.12,68.293c0,1.984-1.218,4.307-4.6,4.307V70.909c1.51,0,2.435-.586,2.728-2.007a1.367,1.367,0,0,1-.811.293,2.031,2.031,0,0,1,.089-4.059C415.722,65.136,417.12,66.128,417.12,68.293Z"/><path class="cls-2" d="M449.712,61.189c0,5.683-2.143,8.029-5.751,8.029-3.789,0-5.616-2.639-5.616-7.758,0-5.346,2.142-8.029,5.751-8.029C447.885,53.431,449.712,56.069,449.712,61.189Zm-9.247.158c0,.676.022,1.308.068,1.872l6.608-5.729a2.933,2.933,0,0,0-3.09-2.21C441.3,55.28,440.465,57.4,440.465,61.347Zm7.127-.045c0-.677-.023-1.308-.068-1.872l-6.608,5.728a2.932,2.932,0,0,0,3.09,2.21C446.757,67.368,447.592,65.7,447.592,61.3Z"/><path class="cls-2" d="M461.1,68.293c0,1.984-1.218,4.307-4.6,4.307V70.909c1.51,0,2.435-.586,2.728-2.007a1.364,1.364,0,0,1-.811.293,2.031,2.031,0,0,1,.089-4.059C459.7,65.136,461.1,66.128,461.1,68.293Z"/><path class="cls-2" d="M485.981,67.165a2.03,2.03,0,1,1,2.029,2.03A2.021,2.021,0,0,1,485.981,67.165Z"/><path class="cls-2" d="M500.642,67.165a2.03,2.03,0,1,1,2.029,2.03A2.021,2.021,0,0,1,500.642,67.165Z"/><path class="cls-2" d="M515.3,67.165a2.03,2.03,0,1,1,2.029,2.03A2.021,2.021,0,0,1,515.3,67.165Z"/><path class="cls-2" d="M534.406,68.293c0,1.984-1.218,4.307-4.6,4.307V70.909c1.511,0,2.435-.586,2.729-2.007a1.365,1.365,0,0,1-.812.293,2.031,2.031,0,0,1,.091-4.059C533.008,65.136,534.406,66.128,534.406,68.293Z"/><path class="cls-2" d="M567.02,64.617c0,2.5-1.489,4.6-5.345,4.6-3.631,0-5.8-1.94-5.8-7.195,0-4.714,1.781-8.615,7.081-8.615a12.6,12.6,0,0,1,3.834.565l-.563,1.8a10.509,10.509,0,0,0-3.451-.541c-3.315,0-4.4,1.985-4.714,4.465l3.564.429C565.148,60.535,567.02,61.82,567.02,64.617Zm-2.075.181c0-1.76-1.015-2.527-3.811-2.865l-3.181-.383v.361c0,4.194,1.219,5.48,3.9,5.48C564.088,67.391,564.945,66.4,564.945,64.8Z"/><path class="cls-2" d="M578.389,68.293c0,1.984-1.219,4.307-4.6,4.307V70.909c1.512,0,2.436-.586,2.73-2.007a1.37,1.37,0,0,1-.813.293,2.031,2.031,0,0,1,.091-4.059C576.99,65.136,578.389,66.128,578.389,68.293Z"/><path class="cls-2" d="M611.476,65.835h-2.21v3.157h-2.075V65.835h-7.713V63.76l5.57-10.1h2.143l-4.736,8.593-1.06,1.443v.293h5.8V53.656h2.075V63.985h2.21Z"/><path class="cls-2" d="M622.369,68.293c0,1.984-1.218,4.307-4.6,4.307V70.909c1.511,0,2.436-.586,2.729-2.007a1.367,1.367,0,0,1-.812.293,2.031,2.031,0,0,1,.09-4.059C620.972,65.136,622.369,66.128,622.369,68.293Z"/><path class="cls-2" d="M654.781,55.731l-5.074,11.411h3.5v1.85h-9.066v-1.85h3.293l4.511-9.9.969-1.421v-.315h-9v-1.85h10.87Z"/><path class="cls-2" d="M666.1,71.247h-6.63V69.4h4.555V53.251h-4.555V51.4h6.63Z"/><path class="cls-3" d="M264.638,15.569v9.224h-1.8v-8.48c0-1.827-.181-2.571-1.376-2.571a3.048,3.048,0,0,0-1.962.925c.023.27.045.563.045.9v9.224h-1.8v-8.48c0-1.827-.18-2.571-1.376-2.571a2.982,2.982,0,0,0-1.917.88V24.793h-1.8v-12.4h1.488l.023,1.083a3.554,3.554,0,0,1,2.662-1.331,2.325,2.325,0,0,1,2.322,1.241,4.043,4.043,0,0,1,2.774-1.241C263.736,12.141,264.638,13.156,264.638,15.569Z"/><path class="cls-3" d="M274.315,27.048h3.563v1.8h-9.156v-1.8h3.563v-2.5l-4.8-12.156h2.187l2.593,6.743.88,2.8h.451l.9-2.8,2.549-6.743h2.074l-4.8,12.156Z"/><path class="cls-3" d="M288.253,19.087h-3.314v5.706h-2.075V9.457h4.871c3.856,0,5.728,1.669,5.728,4.488,0,1.962-1.06,3.428-3,4.668l3.721,6.18h-2.571Zm-3.314-1.826h4.4a3.488,3.488,0,0,0,2.007-3.158c0-1.939-1.06-2.819-3.834-2.819h-2.57Z"/><path class="cls-3" d="M307.357,16.651l-.113,8.142h-1.691V23.305a5.855,5.855,0,0,1-4.353,1.736c-2.48-.023-3.879-1.33-3.879-3.405,0-2.391,2.458-3.451,7.961-3.879l.023-.88c.022-1.578-.158-2.909-2.616-2.909a9.757,9.757,0,0,0-4.331,1.059l-.541-1.691a10.894,10.894,0,0,1,5.03-1.2C306.929,12.141,307.38,14.216,307.357,16.651Zm-2.142,5.278.045-2.526c-4.15.338-5.909.924-5.909,2.188,0,1.037.722,1.646,2.12,1.669A5.55,5.55,0,0,0,305.215,21.929Z"/><path class="cls-3" d="M322.289,16.245v8.548h-2.03V16.539c0-1.827-.744-2.571-2.255-2.571a6.208,6.208,0,0,0-3.608,1.173v9.652h-2.03v-12.4h1.714v1.376a6.134,6.134,0,0,1,4.172-1.624C321.116,12.141,322.289,13.607,322.289,16.245Z"/><path class="cls-3" d="M336.9,6.3V24.793h-1.758V23.462a5.976,5.976,0,0,1-4.128,1.579c-3.067-.023-4.713-2.165-4.713-5.977,0-4.961,2.458-6.9,6.157-6.9a15.036,15.036,0,0,1,2.413.18V6.3Zm-2.029,15.742V14.306a9.433,9.433,0,0,0-2.571-.316c-2.729,0-3.947,1.624-3.947,4.849,0,2.819.992,4.352,2.909,4.375A6.062,6.062,0,0,0,334.875,22.042Z"/><path class="cls-3" d="M340.965,18.726c0-4.127,2.369-6.585,5.706-6.585,3.519,0,5.571,2.413,5.571,6.427s-2.368,6.473-5.706,6.473C343.018,25.041,340.965,22.628,340.965,18.726Zm9.225-.044c0-2.956-1.105-4.714-3.564-4.714-2.48,0-3.608,1.8-3.608,4.645s1.105,4.6,3.563,4.6C349.062,23.214,350.19,21.41,350.19,18.682Z"/><path class="cls-3" d="M367.263,15.569v9.224h-1.8v-8.48c0-1.827-.181-2.571-1.376-2.571a3.048,3.048,0,0,0-1.962.925c.023.27.045.563.045.9v9.224h-1.8v-8.48c0-1.827-.18-2.571-1.376-2.571a2.982,2.982,0,0,0-1.917.88V24.793h-1.8v-12.4h1.488l.023,1.083a3.554,3.554,0,0,1,2.662-1.331,2.325,2.325,0,0,1,2.322,1.241,4.043,4.043,0,0,1,2.774-1.241C366.361,12.141,367.263,13.156,367.263,15.569Z"/><path class="cls-3" d="M381.112,9.457V24.793h-3.2L372.768,11.78h-.226l.113,13.013h-1.917V9.457h3.2l5.165,13.013h.2L379.2,9.457Z"/><path class="cls-3" d="M395.5,12.389v12.4h-1.714V23.417a6.139,6.139,0,0,1-4.172,1.624c-2.864,0-4.037-1.466-4.037-4.105V12.389h2.029v8.254c0,1.827.745,2.571,2.256,2.571a6.22,6.22,0,0,0,3.608-1.172V12.389Z"/><path class="cls-3" d="M411.246,15.569v9.224h-1.805v-8.48c0-1.827-.18-2.571-1.375-2.571a3.046,3.046,0,0,0-1.962.925c.022.27.045.563.045.9v9.224h-1.805v-8.48c0-1.827-.18-2.571-1.375-2.571a2.98,2.98,0,0,0-1.917.88V24.793h-1.8v-12.4h1.488l.023,1.083a3.552,3.552,0,0,1,2.661-1.331,2.326,2.326,0,0,1,2.323,1.241,4.042,4.042,0,0,1,2.774-1.241C410.343,12.141,411.246,13.156,411.246,15.569Z"/><path class="cls-3" d="M425.545,18.117c0,4.962-2.458,6.9-6.156,6.9a13.9,13.9,0,0,1-4.443-.654V6.3h2.03v5.413L416.8,13.63a6.076,6.076,0,0,1,4.037-1.489C423.9,12.164,425.545,14.306,425.545,18.117Zm-2.052.226c0-2.82-.992-4.353-2.909-4.375a6.045,6.045,0,0,0-3.608,1.173v7.735a9.465,9.465,0,0,0,2.57.315C422.275,23.191,423.493,21.568,423.493,18.343Z"/><path class="cls-3" d="M431.253,18.613c0,3.157,1.33,4.578,3.946,4.578a8.124,8.124,0,0,0,4.1-1.059l.541,1.691a9.186,9.186,0,0,1-4.691,1.2c-3.676,0-5.954-2.075-5.954-6.292s2.594-6.562,5.842-6.562c3.7,0,5.344,2.3,4.848,6.314h-8.637Zm.158-1.759h6.54c-.045-2.075-1.015-2.931-3.045-2.931A3.3,3.3,0,0,0,431.411,16.854Z"/><path class="cls-3" d="M454.821,22.988v1.8H444.087v-1.8h3.225v-10.6h1.8l-.045,2.39,5.5-2.683L454.6,14.1l-5.255,2.548v6.337Z"/><path class="cls-3" d="M458.589,24.071l.609-1.894a9.553,9.553,0,0,0,4.534,1.037c2.3,0,3.4-.541,3.4-1.692,0-2.5-8.322-1.669-8.322-5.773,0-2.322,2.052-3.585,5.3-3.585a11.54,11.54,0,0,1,4.488.879l-.587,1.849a8.8,8.8,0,0,0-3.9-.924c-2.143,0-3.248.563-3.248,1.555,0,2.414,8.322,1.579,8.322,5.774,0,2.571-2.278,3.721-5.548,3.721A11.75,11.75,0,0,1,458.589,24.071Z"/><path class="cls-2" d="M253.349,256.052V272.2H257.9v1.849h-6.63V254.2h6.63v1.85Z"/><path class="cls-2" d="M273.309,268.14c0,2.638-2.052,4.037-5.254,4.037-3.113,0-5.165-1.173-5.165-3.744,0-1.94,1.511-3.045,3.315-3.969-2.03-.88-3.9-2.008-3.9-4.218,0-2.594,2.21-4.172,5.886-4.172,3.879,0,5.706,1.4,5.706,3.811,0,2.233-1.9,3.428-3.947,4.421C271.753,265.14,273.309,266.2,273.309,268.14Zm-5.142-4.6c1.94-.9,3.654-1.827,3.654-3.564,0-1.262-.97-2.075-3.789-2.075-2.413,0-3.654.813-3.654,2.256C264.378,261.848,266.183,262.7,268.167,263.539Zm3.067,4.69c0-1.443-1.488-2.232-3.247-3-1.669.812-3.022,1.669-3.022,3.113,0,1.127.631,2.051,3.2,2.051C270.6,270.394,271.234,269.47,271.234,268.229Z"/><path class="cls-2" d="M285.173,271.094c0,1.984-1.217,4.307-4.6,4.307V273.71c1.511,0,2.435-.586,2.728-2.007a1.364,1.364,0,0,1-.811.293,2.031,2.031,0,0,1,.09-4.06C283.775,267.936,285.173,268.929,285.173,271.094Z"/><path class="cls-2" d="M317.788,267.418c0,2.5-1.489,4.6-5.345,4.6-3.631,0-5.8-1.939-5.8-7.194,0-4.714,1.782-8.615,7.082-8.615a12.643,12.643,0,0,1,3.834.564l-.564,1.8a10.509,10.509,0,0,0-3.451-.541c-3.315,0-4.4,1.984-4.713,4.465l3.563.429C315.916,263.336,317.788,264.621,317.788,267.418Zm-2.075.181c0-1.76-1.015-2.527-3.812-2.865l-3.179-.384v.362c0,4.194,1.218,5.479,3.9,5.479C314.856,270.191,315.713,269.2,315.713,267.6Z"/><path class="cls-2" d="M329.156,271.094c0,1.984-1.218,4.307-4.6,4.307V273.71c1.511,0,2.436-.586,2.729-2.007a1.365,1.365,0,0,1-.812.293,2.031,2.031,0,0,1,.09-4.06C327.757,267.936,329.156,268.929,329.156,271.094Z"/><path class="cls-2" d="M361.612,267.012c0,2.706-1.827,5.006-6.179,5.006A10.852,10.852,0,0,1,350.471,271l.586-1.76a9.37,9.37,0,0,0,4.556.947c2.842,0,3.924-1.195,3.924-3.044,0-1.759-1.308-2.526-4.037-3.022l-3.992-.722.091-6.946h9.517v1.85h-7.488l-.067,3.585,2.661.474C359.853,262.974,361.612,264.17,361.612,267.012Z"/><path class="cls-2" d="M373.138,271.094c0,1.984-1.218,4.307-4.6,4.307V273.71c1.511,0,2.436-.586,2.729-2.007a1.367,1.367,0,0,1-.812.293,2.031,2.031,0,0,1,.09-4.06C371.739,267.936,373.138,268.929,373.138,271.094Z"/><path class="cls-2" d="M405.594,267.012c0,2.706-1.826,5.006-6.179,5.006A10.858,10.858,0,0,1,394.453,271l.587-1.76a9.365,9.365,0,0,0,4.555.947c2.842,0,3.925-1.195,3.925-3.044,0-1.759-1.308-2.526-4.037-3.022l-3.992-.722.09-6.946H405.1v1.85h-7.487l-.068,3.585,2.661.474C403.835,262.974,405.594,264.17,405.594,267.012Z"/><path class="cls-2" d="M417.12,271.094c0,1.984-1.218,4.307-4.6,4.307V273.71c1.51,0,2.435-.586,2.728-2.007a1.367,1.367,0,0,1-.811.293,2.031,2.031,0,0,1,.089-4.06C415.722,267.936,417.12,268.929,417.12,271.094Z"/><path class="cls-2" d="M449.712,263.99c0,5.683-2.143,8.028-5.751,8.028-3.789,0-5.616-2.638-5.616-7.757,0-5.346,2.142-8.03,5.751-8.03C447.885,256.231,449.712,258.87,449.712,263.99Zm-9.247.157c0,.677.022,1.309.068,1.872l6.608-5.728a2.933,2.933,0,0,0-3.09-2.21C441.3,258.081,440.465,260.2,440.465,264.147Zm7.127-.045c0-.676-.023-1.307-.068-1.872l-6.608,5.729a2.932,2.932,0,0,0,3.09,2.21C446.757,270.169,447.592,268.5,447.592,264.1Z"/><path class="cls-2" d="M461.1,271.094c0,1.984-1.218,4.307-4.6,4.307V273.71c1.51,0,2.435-.586,2.728-2.007a1.364,1.364,0,0,1-.811.293,2.031,2.031,0,0,1,.089-4.06C459.7,267.936,461.1,268.929,461.1,271.094Z"/><path class="cls-2" d="M485.981,269.966A2.03,2.03,0,1,1,488.01,272,2.022,2.022,0,0,1,485.981,269.966Z"/><path class="cls-2" d="M500.642,269.966a2.03,2.03,0,1,1,2.029,2.03A2.022,2.022,0,0,1,500.642,269.966Z"/><path class="cls-2" d="M515.3,269.966a2.03,2.03,0,1,1,2.029,2.03A2.022,2.022,0,0,1,515.3,269.966Z"/><path class="cls-2" d="M534.406,271.094c0,1.984-1.218,4.307-4.6,4.307V273.71c1.511,0,2.435-.586,2.729-2.007a1.365,1.365,0,0,1-.812.293,2.031,2.031,0,0,1,.091-4.06C533.008,267.936,534.406,268.929,534.406,271.094Z"/><path class="cls-2" d="M567.02,267.418c0,2.5-1.489,4.6-5.345,4.6-3.631,0-5.8-1.939-5.8-7.194,0-4.714,1.781-8.615,7.081-8.615a12.63,12.63,0,0,1,3.834.564l-.563,1.8a10.509,10.509,0,0,0-3.451-.541c-3.315,0-4.4,1.984-4.714,4.465l3.564.429C565.148,263.336,567.02,264.621,567.02,267.418Zm-2.075.181c0-1.76-1.015-2.527-3.811-2.865l-3.181-.384v.362c0,4.194,1.219,5.479,3.9,5.479C564.088,270.191,564.945,269.2,564.945,267.6Z"/><path class="cls-2" d="M578.389,271.094c0,1.984-1.219,4.307-4.6,4.307V273.71c1.512,0,2.436-.586,2.73-2.007a1.37,1.37,0,0,1-.813.293,2.031,2.031,0,0,1,.091-4.06C576.99,267.936,578.389,268.929,578.389,271.094Z"/><path class="cls-2" d="M611.476,268.636h-2.21v3.157h-2.075v-3.157h-7.713V266.56l5.57-10.1h2.143l-4.736,8.593-1.06,1.443v.293h5.8V256.457h2.075v10.329h2.21Z"/><path class="cls-2" d="M622.369,271.094c0,1.984-1.218,4.307-4.6,4.307V273.71c1.511,0,2.436-.586,2.729-2.007a1.367,1.367,0,0,1-.812.293,2.031,2.031,0,0,1,.09-4.06C620.972,267.936,622.369,268.929,622.369,271.094Z"/><path class="cls-2" d="M654.781,258.532l-5.074,11.411h3.5v1.85h-9.066v-1.85h3.293l4.511-9.9.969-1.421v-.315h-9v-1.85h10.87Z"/><path class="cls-2" d="M666.1,274.048h-6.63V272.2h4.555V256.052h-4.555V254.2h6.63Z"/><path class="cls-3" d="M268.887,238.2a4.911,4.911,0,0,1-4.122-1.814,8.495,8.495,0,0,1-1.415-5.3v-2.5a8.66,8.66,0,0,1,1.415-5.361,4.91,4.91,0,0,1,4.142-1.835,4.856,4.856,0,0,1,4.111,1.835,8.7,8.7,0,0,1,1.405,5.361v2.5a8.495,8.495,0,0,1-1.415,5.3A4.909,4.909,0,0,1,268.887,238.2Zm0-1.846a2.965,2.965,0,0,0,2.676-1.23,7.605,7.605,0,0,0,.81-4.039v-2.5a7.82,7.82,0,0,0-.81-4.11,3.5,3.5,0,0,0-5.352,0,7.81,7.81,0,0,0-.81,4.11v2.5a7.6,7.6,0,0,0,.81,4.039A2.964,2.964,0,0,0,268.887,236.351Zm0-4.961a2.211,2.211,0,0,1-1.067-.226.894.894,0,0,1-.41-.861v-1a.9.9,0,0,1,.41-.851,2.13,2.13,0,0,1,1.067-.235,2.064,2.064,0,0,1,1.055.235.9.9,0,0,1,.4.851v1a.892.892,0,0,1-.41.861A2.157,2.157,0,0,1,268.887,231.39Z"/><path class="cls-3" d="M307.435,237.992v-1.846h4.511v-12.1h-.6a4.041,4.041,0,0,1-1.794,1.743,4.185,4.185,0,0,1-2.533.266l-.2-2.009a5.19,5.19,0,0,0,2.892-.441,5.978,5.978,0,0,0,2.3-2.019H314v14.557h4.1v1.846Z"/><path class="cls-3" d="M349.468,237.992v-3.485a4.479,4.479,0,0,1,.9-2.953,5.977,5.977,0,0,1,2.973-1.7l2.788-.82a3.67,3.67,0,0,0,1.662-.84,2.143,2.143,0,0,0,.492-1.538v-.841a2.506,2.506,0,0,0-.687-2,4.167,4.167,0,0,0-2.594-.585,3.268,3.268,0,0,0-2.43.729,4.705,4.705,0,0,0-.851,2.778l-2.051-.205a5.925,5.925,0,0,1,1.364-3.978,5.527,5.527,0,0,1,3.947-1.168A6.449,6.449,0,0,1,359,222.429a3.788,3.788,0,0,1,1.333,3.178v1.354a3.411,3.411,0,0,1-.882,2.46,6.55,6.55,0,0,1-2.911,1.517l-2.81.821a4.023,4.023,0,0,0-1.609.83,2.435,2.435,0,0,0-.605,1.877v1.68h9.022v1.846Z"/><path class="cls-3" d="M397.859,238.2q-3.159,0-4.275-1.169a5.359,5.359,0,0,1-1.261-3.485l2.05-.205a3.89,3.89,0,0,0,.882,2.45,4.05,4.05,0,0,0,2.6.6,4.834,4.834,0,0,0,2.871-.635,2.642,2.642,0,0,0,.82-2.214v-.554a2.629,2.629,0,0,0-.779-2.163,4.425,4.425,0,0,0-2.707-.626h-2.051v-1.846h2.051a4.357,4.357,0,0,0,2.389-.481,1.923,1.923,0,0,0,.687-1.691v-.657a2.084,2.084,0,0,0-.728-1.814,4.572,4.572,0,0,0-2.553-.524,3.438,3.438,0,0,0-2.255.575,3.294,3.294,0,0,0-.821,2.173l-2.05-.205a4.4,4.4,0,0,1,1.4-3.332,5.84,5.84,0,0,1,3.722-1.014,6.9,6.9,0,0,1,3.906.963,3.556,3.556,0,0,1,1.425,3.178v.657a2.417,2.417,0,0,1-.851,1.948,3.993,3.993,0,0,1-2.368.819v.595a3.97,3.97,0,0,1,2.727,1.128,3.318,3.318,0,0,1,.9,2.317v.554a4.514,4.514,0,0,1-1.282,3.434Q401.037,238.2,397.859,238.2Z"/><path class="cls-3" d="M553.17,236.142v1.85H542.436v-1.85h4.78v-9.7l-4.78,1.827v-2.007l4.78-1.827v-1.782h2.075v13.486Z"/><path class="cls-3" d="M567.38,233.572c0,2.57-1.826,4.646-6.4,4.646a12.108,12.108,0,0,1-5.188-1.015l.587-1.76a11.192,11.192,0,0,0,4.78.948c3.068,0,4.151-.97,4.151-2.707,0-1.465-.993-2.5-3.925-2.5h-4.172v-1.828h5.412c1.624-.654,2.189-1.51,2.189-2.706,0-1.736-1.173-2.39-3.541-2.39a10.434,10.434,0,0,0-4.669,1.059l-.541-1.691a11.885,11.885,0,0,1,5.367-1.195c3.338,0,5.458,1.286,5.458,4.1a3.838,3.838,0,0,1-2.233,3.451C566.546,230.685,567.38,231.723,567.38,233.572Z"/><path class="cls-3" d="M597.152,236.142v1.85H586.418v-1.85h4.78v-9.7l-4.78,1.827v-2.007l4.78-1.827v-1.782h2.076v13.486Z"/><path class="cls-3" d="M612.061,234.835h-2.21v3.157h-2.076v-3.157h-7.712V232.76l5.57-10.1h2.142l-4.735,8.593-1.06,1.443v.293h5.795V222.656h2.076v10.329h2.21Z"/><path class="cls-3" d="M641.134,236.142v1.85H630.4v-1.85h4.781v-9.7l-4.781,1.827v-2.007l4.781-1.827v-1.782h2.075v13.486Z"/><path class="cls-3" d="M655.412,233.211c0,2.706-1.827,5.007-6.179,5.007a10.855,10.855,0,0,1-4.962-1.015l.587-1.76a9.362,9.362,0,0,0,4.555.948c2.841,0,3.924-1.2,3.924-3.044,0-1.76-1.309-2.527-4.037-3.023l-3.991-.722.09-6.946h9.516v1.85h-7.487l-.068,3.586,2.662.473C653.652,229.174,655.412,230.369,655.412,233.211Z"/><path class="cls-3" d="M264.638,145.569v9.224h-1.8v-8.48c0-1.827-.181-2.571-1.376-2.571a3.048,3.048,0,0,0-1.962.925c.023.27.045.563.045.9v9.224h-1.8v-8.48c0-1.827-.18-2.571-1.376-2.571a2.982,2.982,0,0,0-1.917.88v10.171h-1.8v-12.4h1.488l.023,1.083a3.554,3.554,0,0,1,2.662-1.331,2.325,2.325,0,0,1,2.322,1.241,4.043,4.043,0,0,1,2.774-1.241C263.736,142.141,264.638,143.156,264.638,145.569Z"/><path class="cls-3" d="M274.315,157.048h3.563v1.8h-9.156v-1.8h3.563v-2.5l-4.8-12.156h2.187l2.593,6.743.88,2.8h.451l.9-2.8,2.549-6.743h2.074l-4.8,12.156Z"/><path class="cls-3" d="M288.253,149.087h-3.314v5.706h-2.075V139.457h4.871c3.856,0,5.728,1.669,5.728,4.488,0,1.962-1.06,3.428-3,4.668l3.721,6.18h-2.571Zm-3.314-1.826h4.4a3.488,3.488,0,0,0,2.007-3.158c0-1.939-1.06-2.819-3.834-2.819h-2.57Z"/><path class="cls-3" d="M307.357,146.651l-.113,8.142h-1.691v-1.488a5.855,5.855,0,0,1-4.353,1.736c-2.48-.023-3.879-1.33-3.879-3.405,0-2.391,2.458-3.451,7.961-3.879l.023-.88c.022-1.578-.158-2.909-2.616-2.909a9.757,9.757,0,0,0-4.331,1.059l-.541-1.691a10.894,10.894,0,0,1,5.03-1.2C306.929,142.141,307.38,144.216,307.357,146.651Zm-2.142,5.278.045-2.526c-4.15.338-5.909.924-5.909,2.188,0,1.037.722,1.646,2.12,1.669A5.55,5.55,0,0,0,305.215,151.929Z"/><path class="cls-3" d="M322.289,146.245v8.548h-2.03v-8.254c0-1.827-.744-2.571-2.255-2.571a6.208,6.208,0,0,0-3.608,1.173v9.652h-2.03v-12.4h1.714v1.376a6.134,6.134,0,0,1,4.172-1.624C321.116,142.141,322.289,143.607,322.289,146.245Z"/><path class="cls-3" d="M336.9,136.3v18.493h-1.758v-1.331a5.976,5.976,0,0,1-4.128,1.579c-3.067-.023-4.713-2.165-4.713-5.977,0-4.961,2.458-6.9,6.157-6.9a15.036,15.036,0,0,1,2.413.18V136.3Zm-2.029,15.742v-7.736a9.433,9.433,0,0,0-2.571-.316c-2.729,0-3.947,1.624-3.947,4.849,0,2.819.992,4.352,2.909,4.375A6.062,6.062,0,0,0,334.875,152.042Z"/><path class="cls-3" d="M340.965,148.726c0-4.127,2.369-6.585,5.706-6.585,3.519,0,5.571,2.413,5.571,6.427s-2.368,6.473-5.706,6.473C343.018,155.041,340.965,152.628,340.965,148.726Zm9.225-.044c0-2.956-1.105-4.714-3.564-4.714-2.48,0-3.608,1.8-3.608,4.645s1.105,4.6,3.563,4.6C349.062,153.214,350.19,151.41,350.19,148.682Z"/><path class="cls-3" d="M367.263,145.569v9.224h-1.8v-8.48c0-1.827-.181-2.571-1.376-2.571a3.048,3.048,0,0,0-1.962.925c.023.27.045.563.045.9v9.224h-1.8v-8.48c0-1.827-.18-2.571-1.376-2.571a2.982,2.982,0,0,0-1.917.88v10.171h-1.8v-12.4h1.488l.023,1.083a3.554,3.554,0,0,1,2.662-1.331,2.325,2.325,0,0,1,2.322,1.241,4.043,4.043,0,0,1,2.774-1.241C366.361,142.141,367.263,143.156,367.263,145.569Z"/><path class="cls-3" d="M381.112,139.457v15.336h-3.2l-5.141-13.013h-.226l.113,13.013h-1.917V139.457h3.2l5.165,13.013h.2l-.113-13.013Z"/><path class="cls-3" d="M395.5,142.389v12.4h-1.714v-1.376a6.139,6.139,0,0,1-4.172,1.624c-2.864,0-4.037-1.466-4.037-4.1v-8.547h2.029v8.254c0,1.827.745,2.571,2.256,2.571a6.22,6.22,0,0,0,3.608-1.172v-9.653Z"/><path class="cls-3" d="M411.246,145.569v9.224h-1.805v-8.48c0-1.827-.18-2.571-1.375-2.571a3.046,3.046,0,0,0-1.962.925c.022.27.045.563.045.9v9.224h-1.805v-8.48c0-1.827-.18-2.571-1.375-2.571a2.98,2.98,0,0,0-1.917.88v10.171h-1.8v-12.4h1.488l.023,1.083a3.552,3.552,0,0,1,2.661-1.331,2.326,2.326,0,0,1,2.323,1.241,4.042,4.042,0,0,1,2.774-1.241C410.343,142.141,411.246,143.156,411.246,145.569Z"/><path class="cls-3" d="M425.545,148.117c0,4.962-2.458,6.9-6.156,6.9a13.9,13.9,0,0,1-4.443-.654V136.3h2.03v5.413l-.181,1.917a6.076,6.076,0,0,1,4.037-1.489C423.9,142.164,425.545,144.306,425.545,148.117Zm-2.052.226c0-2.82-.992-4.353-2.909-4.375a6.045,6.045,0,0,0-3.608,1.173v7.735a9.465,9.465,0,0,0,2.57.315C422.275,153.191,423.493,151.568,423.493,148.343Z"/><path class="cls-3" d="M431.253,148.613c0,3.157,1.33,4.578,3.946,4.578a8.124,8.124,0,0,0,4.1-1.059l.541,1.691a9.186,9.186,0,0,1-4.691,1.195c-3.676,0-5.954-2.075-5.954-6.292s2.594-6.562,5.842-6.562c3.7,0,5.344,2.3,4.848,6.314h-8.637Zm.158-1.759h6.54c-.045-2.075-1.015-2.931-3.045-2.931A3.3,3.3,0,0,0,431.411,146.854Z"/><path class="cls-3" d="M454.821,152.988v1.805H444.087v-1.805h3.225v-10.6h1.8l-.045,2.39,5.5-2.683.023,2.007-5.255,2.548v6.337Z"/><path class="cls-3" d="M458.589,154.071l.609-1.894a9.553,9.553,0,0,0,4.534,1.037c2.3,0,3.4-.541,3.4-1.692,0-2.5-8.322-1.669-8.322-5.773,0-2.322,2.052-3.585,5.3-3.585a11.54,11.54,0,0,1,4.488.879l-.587,1.849a8.8,8.8,0,0,0-3.9-.924c-2.143,0-3.248.563-3.248,1.555,0,2.414,8.322,1.579,8.322,5.774,0,2.571-2.278,3.721-5.548,3.721A11.75,11.75,0,0,1,458.589,154.071Z"/><path class="cls-2" d="M476.52,152.966a2.03,2.03,0,1,1,2.03,2.03A2.022,2.022,0,0,1,476.52,152.966Z"/><path class="cls-2" d="M498.849,148.117c0,4.962-2.459,6.9-6.157,6.9a15.027,15.027,0,0,1-2.413-.18v4.014h-2.03V142.389h1.714v1.376a6.026,6.026,0,0,1,4.172-1.624C497.2,142.164,498.849,144.306,498.849,148.117Zm-2.053.226c0-2.82-.992-4.353-2.909-4.375a6.047,6.047,0,0,0-3.608,1.173v7.735a9.467,9.467,0,0,0,2.571.315C495.579,153.191,496.8,151.568,496.8,148.343Z"/><path class="cls-2" d="M502.233,148.726c0-4.127,2.369-6.585,5.707-6.585,3.517,0,5.57,2.413,5.57,6.427s-2.368,6.473-5.706,6.473C504.286,155.041,502.233,152.628,502.233,148.726Zm9.224-.044c0-2.956-1.1-4.714-3.562-4.714-2.482,0-3.609,1.8-3.609,4.645s1.105,4.6,3.563,4.6C510.33,153.214,511.457,151.41,511.457,148.682Z"/><path class="cls-2" d="M528.17,148.117c0,4.962-2.458,6.9-6.157,6.9a15.027,15.027,0,0,1-2.413-.18v4.014h-2.03V142.389h1.714v1.376a6.028,6.028,0,0,1,4.172-1.624C526.524,142.164,528.17,144.306,528.17,148.117Zm-2.053.226c0-2.82-.992-4.353-2.909-4.375a6.049,6.049,0,0,0-3.608,1.173v7.735a9.477,9.477,0,0,0,2.571.315C524.9,153.191,526.117,151.568,526.117,148.343Z"/><path class="cls-2" d="M534.171,147.125c0-8.254,2.616-9.923,6.7-9.923v1.85c-3.09,0-4.555,1.059-4.555,7.847,0,7.24,1.465,8.3,4.555,8.3v1.849C536.787,157.048,534.171,155.6,534.171,147.125Z"/><path class="cls-3" d="M557.537,146.99c0,5.683-2.142,8.028-5.751,8.028-3.789,0-5.615-2.638-5.615-7.757,0-5.346,2.143-8.03,5.751-8.03C555.711,139.231,557.537,141.87,557.537,146.99Zm-9.246.157c0,.677.023,1.309.067,1.872l6.608-5.728a2.932,2.932,0,0,0-3.089-2.21C549.125,141.081,548.291,143.2,548.291,147.147Zm7.126-.045c0-.676-.022-1.307-.067-1.872l-6.608,5.729a2.933,2.933,0,0,0,3.089,2.21C554.583,153.169,555.417,151.5,555.417,147.1Z"/><path class="cls-2" d="M569.536,147.125c0,8.254-2.616,9.923-6.7,9.923V155.2c3.09,0,4.556-1.06,4.556-7.849,0-7.239-1.466-8.3-4.556-8.3V137.2C566.92,137.2,569.536,138.645,569.536,147.125Z"/><path class="cls-2" d="M253.349,458.851V475H257.9v1.849h-6.63V457h6.63v1.849Z"/><path class="cls-2" d="M273.309,470.939c0,2.639-2.052,4.037-5.254,4.037-3.113,0-5.165-1.172-5.165-3.744,0-1.939,1.511-3.045,3.315-3.968-2.03-.88-3.9-2.008-3.9-4.218,0-2.594,2.21-4.172,5.886-4.172,3.879,0,5.706,1.4,5.706,3.811,0,2.233-1.9,3.428-3.947,4.42C271.753,467.939,273.309,469,273.309,470.939Zm-5.142-4.6c1.94-.9,3.654-1.827,3.654-3.564,0-1.262-.97-2.075-3.789-2.075-2.413,0-3.654.813-3.654,2.256C264.378,464.647,266.183,465.5,268.167,466.339Zm3.067,4.69c0-1.443-1.488-2.232-3.247-3-1.669.812-3.022,1.669-3.022,3.112,0,1.127.631,2.052,3.2,2.052C270.6,473.194,271.234,472.269,271.234,471.029Z"/><path class="cls-2" d="M285.173,473.893c0,1.985-1.217,4.308-4.6,4.308V476.51c1.511,0,2.435-.586,2.728-2.007a1.364,1.364,0,0,1-.811.293,2.031,2.031,0,0,1,.09-4.06C283.775,470.736,285.173,471.728,285.173,473.893Z"/><path class="cls-2" d="M317.788,470.218c0,2.5-1.489,4.6-5.345,4.6-3.631,0-5.8-1.939-5.8-7.194,0-4.714,1.782-8.615,7.082-8.615a12.643,12.643,0,0,1,3.834.564l-.564,1.8a10.509,10.509,0,0,0-3.451-.541c-3.315,0-4.4,1.984-4.713,4.465l3.563.428C315.916,466.136,317.788,467.421,317.788,470.218Zm-2.075.18c0-1.759-1.015-2.526-3.812-2.864l-3.179-.384v.362c0,4.194,1.218,5.479,3.9,5.479C314.856,472.991,315.713,472,315.713,470.4Z"/><path class="cls-2" d="M329.156,473.893c0,1.985-1.218,4.308-4.6,4.308V476.51c1.511,0,2.436-.586,2.729-2.007a1.365,1.365,0,0,1-.812.293,2.031,2.031,0,0,1,.09-4.06C327.757,470.736,329.156,471.728,329.156,473.893Z"/><path class="cls-2" d="M361.612,469.811c0,2.706-1.827,5.007-6.179,5.007a10.865,10.865,0,0,1-4.962-1.014l.586-1.76a9.37,9.37,0,0,0,4.556.947c2.842,0,3.924-1.195,3.924-3.044,0-1.76-1.308-2.526-4.037-3.022l-3.992-.722.091-6.946h9.517v1.849h-7.488l-.067,3.586,2.661.474C359.853,465.774,361.612,466.97,361.612,469.811Z"/><path class="cls-2" d="M373.138,473.893c0,1.985-1.218,4.308-4.6,4.308V476.51c1.511,0,2.436-.586,2.729-2.007a1.367,1.367,0,0,1-.812.293,2.031,2.031,0,0,1,.09-4.06C371.739,470.736,373.138,471.728,373.138,473.893Z"/><path class="cls-2" d="M405.594,469.811c0,2.706-1.826,5.007-6.179,5.007a10.871,10.871,0,0,1-4.962-1.014l.587-1.76a9.365,9.365,0,0,0,4.555.947c2.842,0,3.925-1.195,3.925-3.044,0-1.76-1.308-2.526-4.037-3.022l-3.992-.722.09-6.946H405.1v1.849h-7.487l-.068,3.586,2.661.474C403.835,465.774,405.594,466.97,405.594,469.811Z"/><path class="cls-2" d="M417.12,473.893c0,1.985-1.218,4.308-4.6,4.308V476.51c1.51,0,2.435-.586,2.728-2.007a1.367,1.367,0,0,1-.811.293,2.031,2.031,0,0,1,.089-4.06C415.722,470.736,417.12,471.728,417.12,473.893Z"/><path class="cls-2" d="M449.712,466.79c0,5.683-2.143,8.028-5.751,8.028-3.789,0-5.616-2.638-5.616-7.758,0-5.345,2.142-8.029,5.751-8.029C447.885,459.031,449.712,461.67,449.712,466.79Zm-9.247.157c0,.677.022,1.309.068,1.872l6.608-5.728a2.933,2.933,0,0,0-3.09-2.21C441.3,460.881,440.465,463,440.465,466.947Zm7.127-.045c0-.677-.023-1.307-.068-1.872l-6.608,5.729a2.933,2.933,0,0,0,3.09,2.21C446.757,472.969,447.592,471.3,447.592,466.9Z"/><path class="cls-2" d="M461.1,473.893c0,1.985-1.218,4.308-4.6,4.308V476.51c1.51,0,2.435-.586,2.728-2.007a1.364,1.364,0,0,1-.811.293,2.031,2.031,0,0,1,.089-4.06C459.7,470.736,461.1,471.728,461.1,473.893Z"/><path class="cls-2" d="M485.981,472.766a2.03,2.03,0,1,1,2.029,2.03A2.022,2.022,0,0,1,485.981,472.766Z"/><path class="cls-2" d="M500.642,472.766a2.03,2.03,0,1,1,2.029,2.03A2.022,2.022,0,0,1,500.642,472.766Z"/><path class="cls-2" d="M515.3,472.766a2.03,2.03,0,1,1,2.029,2.03A2.022,2.022,0,0,1,515.3,472.766Z"/><path class="cls-2" d="M534.406,473.893c0,1.985-1.218,4.308-4.6,4.308V476.51c1.511,0,2.435-.586,2.729-2.007a1.365,1.365,0,0,1-.812.293,2.031,2.031,0,0,1,.091-4.06C533.008,470.736,534.406,471.728,534.406,473.893Z"/><path class="cls-2" d="M567.02,470.218c0,2.5-1.489,4.6-5.345,4.6-3.631,0-5.8-1.939-5.8-7.194,0-4.714,1.781-8.615,7.081-8.615a12.63,12.63,0,0,1,3.834.564l-.563,1.8a10.509,10.509,0,0,0-3.451-.541c-3.315,0-4.4,1.984-4.714,4.465l3.564.428C565.148,466.136,567.02,467.421,567.02,470.218Zm-2.075.18c0-1.759-1.015-2.526-3.811-2.864l-3.181-.384v.362c0,4.194,1.219,5.479,3.9,5.479C564.088,472.991,564.945,472,564.945,470.4Z"/><path class="cls-2" d="M578.389,473.893c0,1.985-1.219,4.308-4.6,4.308V476.51c1.512,0,2.436-.586,2.73-2.007a1.37,1.37,0,0,1-.813.293,2.031,2.031,0,0,1,.091-4.06C576.99,470.736,578.389,471.728,578.389,473.893Z"/><path class="cls-2" d="M611.476,471.435h-2.21v3.158h-2.075v-3.158h-7.713V469.36l5.57-10.1h2.143l-4.736,8.592-1.06,1.444v.293h5.8V459.257h2.075v10.329h2.21Z"/><path class="cls-2" d="M622.369,473.893c0,1.985-1.218,4.308-4.6,4.308V476.51c1.511,0,2.436-.586,2.729-2.007a1.367,1.367,0,0,1-.812.293,2.031,2.031,0,0,1,.09-4.06C620.972,470.736,622.369,471.728,622.369,473.893Z"/><path class="cls-2" d="M654.781,461.332l-5.074,11.411h3.5v1.85h-9.066v-1.85h3.293l4.511-9.9.969-1.421v-.316h-9v-1.849h10.87Z"/><path class="cls-2" d="M666.1,476.848h-6.63V475h4.555V458.851h-4.555V457h6.63Z"/><path class="cls-3" d="M274.723,432.99c0,5.683-2.143,8.028-5.751,8.028-3.789,0-5.615-2.638-5.615-7.757,0-5.346,2.142-8.03,5.751-8.03C272.9,425.231,274.723,427.87,274.723,432.99Zm-9.247.157c0,.677.023,1.309.068,1.872l6.608-5.728a2.932,2.932,0,0,0-3.09-2.21C266.311,427.081,265.476,429.2,265.476,433.147Zm7.127-.045c0-.676-.023-1.307-.068-1.872l-6.608,5.729a2.933,2.933,0,0,0,3.09,2.21C271.769,439.169,272.6,437.5,272.6,433.1Z"/><path class="cls-3" d="M318.953,438.943v1.85H308.218v-1.85H313v-9.7l-4.781,1.827v-2.008L313,427.239v-1.782h2.075v13.486Z"/><path class="cls-3" d="M362.845,438.943v1.85h-11.1v-2.075c3.947-2.413,8.547-4.871,8.547-8.8,0-1.737-.766-2.842-3.337-2.842-2.8,0-3.541,1.24-3.541,3.36a3.838,3.838,0,0,0,.181,1.376l-2.143-.158a10.518,10.518,0,0,1-.09-1.443c0-3,1.962-4.985,5.705-4.985,4.4,0,5.346,2.436,5.346,4.466,0,4.33-4.06,6.766-6.54,8.435l-1.219.541v.27Z"/><path class="cls-3" d="M406.466,436.373c0,2.57-1.827,4.645-6.405,4.645A12.107,12.107,0,0,1,394.874,440l.587-1.76a11.209,11.209,0,0,0,4.781.947c3.067,0,4.149-.969,4.149-2.706,0-1.466-.992-2.5-3.924-2.5H396.3v-1.827h5.413c1.623-.654,2.187-1.511,2.187-2.706,0-1.736-1.173-2.391-3.54-2.391a10.434,10.434,0,0,0-4.669,1.06l-.541-1.691a11.878,11.878,0,0,1,5.367-1.2c3.338,0,5.458,1.286,5.458,4.105a3.842,3.842,0,0,1-2.233,3.451C405.632,433.486,406.466,434.523,406.466,436.373Z"/><path class="cls-3" d="M553.17,438.943v1.85H542.436v-1.85h4.78v-9.7l-4.78,1.827v-2.008l4.78-1.826v-1.782h2.075v13.486Z"/><path class="cls-3" d="M567.38,436.373c0,2.57-1.826,4.645-6.4,4.645A12.109,12.109,0,0,1,555.788,440l.587-1.76a11.208,11.208,0,0,0,4.78.947c3.068,0,4.151-.969,4.151-2.706,0-1.466-.993-2.5-3.925-2.5h-4.172v-1.827h5.412c1.624-.654,2.189-1.511,2.189-2.706,0-1.736-1.173-2.391-3.541-2.391a10.434,10.434,0,0,0-4.669,1.06l-.541-1.691a11.884,11.884,0,0,1,5.367-1.2c3.338,0,5.458,1.286,5.458,4.105a3.84,3.84,0,0,1-2.233,3.451C566.546,433.486,567.38,434.523,567.38,436.373Z"/><path class="cls-3" d="M597.152,438.943v1.85H586.418v-1.85h4.78v-9.7l-4.78,1.827v-2.008l4.78-1.826v-1.782h2.076v13.486Z"/><path class="cls-3" d="M612.061,437.636h-2.21v3.157h-2.076v-3.157h-7.712V435.56l5.57-10.1h2.142l-4.735,8.593-1.06,1.443v.293h5.795V425.457h2.076v10.329h2.21Z"/><path class="cls-3" d="M641.134,438.943v1.85H630.4v-1.85h4.781v-9.7l-4.781,1.827v-2.008l4.781-1.826v-1.782h2.075v13.486Z"/><path class="cls-3" d="M655.412,436.012c0,2.706-1.827,5.006-6.179,5.006A10.855,10.855,0,0,1,644.271,440l.587-1.76a9.363,9.363,0,0,0,4.555.947c2.841,0,3.924-1.195,3.924-3.044,0-1.759-1.309-2.526-4.037-3.022l-3.991-.722.09-6.946h9.516v1.85h-7.487l-.068,3.585,2.662.474C653.652,431.974,655.412,433.17,655.412,436.012Z"/><path class="cls-3" d="M264.638,348.369v9.224h-1.8v-8.48c0-1.827-.181-2.571-1.376-2.571a3.048,3.048,0,0,0-1.962.925c.023.27.045.563.045.9v9.224h-1.8v-8.48c0-1.827-.18-2.571-1.376-2.571a2.977,2.977,0,0,0-1.917.88v10.171h-1.8V345.188h1.488l.023,1.083a3.554,3.554,0,0,1,2.662-1.331,2.325,2.325,0,0,1,2.322,1.242,4.045,4.045,0,0,1,2.774-1.242C263.736,344.94,264.638,345.956,264.638,348.369Z"/><path class="cls-3" d="M274.315,359.848h3.563v1.8h-9.156v-1.8h3.563v-2.5l-4.8-12.157h2.187l2.593,6.744.88,2.8h.451l.9-2.8,2.549-6.744h2.074l-4.8,12.157Z"/><path class="cls-3" d="M288.253,351.887h-3.314v5.706h-2.075V342.257h4.871c3.856,0,5.728,1.669,5.728,4.488,0,1.962-1.06,3.428-3,4.668l3.721,6.18h-2.571Zm-3.314-1.827h4.4a3.485,3.485,0,0,0,2.007-3.157c0-1.94-1.06-2.819-3.834-2.819h-2.57Z"/><path class="cls-3" d="M307.357,349.451l-.113,8.142h-1.691V356.1a5.852,5.852,0,0,1-4.353,1.737c-2.48-.023-3.879-1.331-3.879-3.406,0-2.39,2.458-3.45,7.961-3.878l.023-.88c.022-1.578-.158-2.91-2.616-2.91a9.758,9.758,0,0,0-4.331,1.06l-.541-1.691a10.894,10.894,0,0,1,5.03-1.2C306.929,344.94,307.38,347.016,307.357,349.451Zm-2.142,5.277.045-2.525c-4.15.338-5.909.924-5.909,2.188,0,1.037.722,1.646,2.12,1.668A5.54,5.54,0,0,0,305.215,354.728Z"/><path class="cls-3" d="M322.289,349.045v8.548h-2.03v-8.254c0-1.827-.744-2.572-2.255-2.572a6.215,6.215,0,0,0-3.608,1.173v9.653h-2.03V345.188h1.714v1.376a6.139,6.139,0,0,1,4.172-1.624C321.116,344.94,322.289,346.406,322.289,349.045Z"/><path class="cls-3" d="M336.9,339.1v18.494h-1.758v-1.331a5.981,5.981,0,0,1-4.128,1.579c-3.067-.023-4.713-2.165-4.713-5.977,0-4.961,2.458-6.9,6.157-6.9a15.153,15.153,0,0,1,2.413.18V339.1Zm-2.029,15.743v-7.737a9.472,9.472,0,0,0-2.571-.315c-2.729,0-3.947,1.624-3.947,4.849,0,2.819.992,4.352,2.909,4.375A6.062,6.062,0,0,0,334.875,354.842Z"/><path class="cls-3" d="M340.965,351.526c0-4.127,2.369-6.586,5.706-6.586,3.519,0,5.571,2.413,5.571,6.428s-2.368,6.473-5.706,6.473C343.018,357.841,340.965,355.428,340.965,351.526Zm9.225-.045c0-2.955-1.105-4.714-3.564-4.714-2.48,0-3.608,1.805-3.608,4.646s1.105,4.6,3.563,4.6C349.062,356.014,350.19,354.21,350.19,351.481Z"/><path class="cls-3" d="M367.263,348.369v9.224h-1.8v-8.48c0-1.827-.181-2.571-1.376-2.571a3.048,3.048,0,0,0-1.962.925c.023.27.045.563.045.9v9.224h-1.8v-8.48c0-1.827-.18-2.571-1.376-2.571a2.977,2.977,0,0,0-1.917.88v10.171h-1.8V345.188h1.488l.023,1.083a3.554,3.554,0,0,1,2.662-1.331,2.325,2.325,0,0,1,2.322,1.242,4.045,4.045,0,0,1,2.774-1.242C366.361,344.94,367.263,345.956,367.263,348.369Z"/><path class="cls-3" d="M381.112,342.257v15.336h-3.2l-5.141-13.013h-.226l.113,13.013h-1.917V342.257h3.2l5.165,13.012h.2l-.113-13.012Z"/><path class="cls-3" d="M395.5,345.188v12.405h-1.714v-1.376a6.139,6.139,0,0,1-4.172,1.624c-2.864,0-4.037-1.466-4.037-4.105v-8.548h2.029v8.255c0,1.826.745,2.571,2.256,2.571a6.22,6.22,0,0,0,3.608-1.172v-9.654Z"/><path class="cls-3" d="M411.246,348.369v9.224h-1.805v-8.48c0-1.827-.18-2.571-1.375-2.571a3.046,3.046,0,0,0-1.962.925c.022.27.045.563.045.9v9.224h-1.805v-8.48c0-1.827-.18-2.571-1.375-2.571a2.975,2.975,0,0,0-1.917.88v10.171h-1.8V345.188h1.488l.023,1.083a3.552,3.552,0,0,1,2.661-1.331,2.327,2.327,0,0,1,2.323,1.242,4.043,4.043,0,0,1,2.774-1.242C410.343,344.94,411.246,345.956,411.246,348.369Z"/><path class="cls-3" d="M425.545,350.917c0,4.962-2.458,6.9-6.156,6.9a13.9,13.9,0,0,1-4.443-.654V339.1h2.03v5.414l-.181,1.917a6.083,6.083,0,0,1,4.037-1.49C423.9,344.963,425.545,347.105,425.545,350.917Zm-2.052.225c0-2.819-.992-4.352-2.909-4.375a6.058,6.058,0,0,0-3.608,1.173v7.736a9.465,9.465,0,0,0,2.57.315C422.275,355.991,423.493,354.368,423.493,351.142Z"/><path class="cls-3" d="M431.253,351.413c0,3.157,1.33,4.578,3.946,4.578a8.134,8.134,0,0,0,4.1-1.059l.541,1.691a9.186,9.186,0,0,1-4.691,1.195c-3.676,0-5.954-2.075-5.954-6.292s2.594-6.563,5.842-6.563c3.7,0,5.344,2.3,4.848,6.315h-8.637Zm.158-1.759h6.54c-.045-2.075-1.015-2.931-3.045-2.931A3.3,3.3,0,0,0,431.411,349.654Z"/><path class="cls-3" d="M454.821,355.789v1.8H444.087v-1.8h3.225v-10.6h1.8l-.045,2.391,5.5-2.684.023,2.008-5.255,2.548v6.338Z"/><path class="cls-3" d="M458.589,356.871l.609-1.895a9.54,9.54,0,0,0,4.534,1.038c2.3,0,3.4-.541,3.4-1.692,0-2.5-8.322-1.669-8.322-5.773,0-2.323,2.052-3.586,5.3-3.586a11.54,11.54,0,0,1,4.488.88l-.587,1.849a8.784,8.784,0,0,0-3.9-.925c-2.143,0-3.248.564-3.248,1.556,0,2.413,8.322,1.579,8.322,5.774,0,2.571-2.278,3.721-5.548,3.721A11.75,11.75,0,0,1,458.589,356.871Z"/><path class="cls-2" d="M476.52,355.766a2.03,2.03,0,1,1,2.03,2.03A2.022,2.022,0,0,1,476.52,355.766Z"/><path class="cls-2" d="M498.849,350.917c0,4.962-2.459,6.9-6.157,6.9a15.027,15.027,0,0,1-2.413-.18v4.014h-2.03V345.188h1.714v1.376a6.035,6.035,0,0,1,4.172-1.624C497.2,344.963,498.849,347.105,498.849,350.917Zm-2.053.225c0-2.819-.992-4.352-2.909-4.375a6.061,6.061,0,0,0-3.608,1.173v7.736a9.467,9.467,0,0,0,2.571.315C495.579,355.991,496.8,354.368,496.8,351.142Z"/><path class="cls-2" d="M502.233,351.526c0-4.127,2.369-6.586,5.707-6.586,3.517,0,5.57,2.413,5.57,6.428s-2.368,6.473-5.706,6.473C504.286,357.841,502.233,355.428,502.233,351.526Zm9.224-.045c0-2.955-1.1-4.714-3.562-4.714-2.482,0-3.609,1.805-3.609,4.646s1.105,4.6,3.563,4.6C510.33,356.014,511.457,354.21,511.457,351.481Z"/><path class="cls-2" d="M528.17,350.917c0,4.962-2.458,6.9-6.157,6.9a15.027,15.027,0,0,1-2.413-.18v4.014h-2.03V345.188h1.714v1.376a6.037,6.037,0,0,1,4.172-1.624C526.524,344.963,528.17,347.105,528.17,350.917Zm-2.053.225c0-2.819-.992-4.352-2.909-4.375a6.063,6.063,0,0,0-3.608,1.173v7.736a9.477,9.477,0,0,0,2.571.315C524.9,355.991,526.117,354.368,526.117,351.142Z"/><path class="cls-2" d="M534.171,349.925c0-8.254,2.616-9.923,6.7-9.923v1.849c-3.09,0-4.555,1.06-4.555,7.848,0,7.239,1.465,8.3,4.555,8.3v1.849C536.787,359.848,534.171,358.4,534.171,349.925Z"/><path class="cls-3" d="M557.334,353.173c0,2.57-1.826,4.645-6.4,4.645a12.109,12.109,0,0,1-5.188-1.014l.586-1.76a11.216,11.216,0,0,0,4.781.947c3.068,0,4.151-.97,4.151-2.706,0-1.466-.992-2.5-3.925-2.5h-4.172v-1.827h5.412c1.624-.654,2.189-1.511,2.189-2.706,0-1.736-1.173-2.391-3.541-2.391a10.42,10.42,0,0,0-4.669,1.06l-.541-1.692a11.9,11.9,0,0,1,5.368-1.195c3.337,0,5.457,1.286,5.457,4.105a3.841,3.841,0,0,1-2.232,3.451C556.5,350.286,557.334,351.323,557.334,353.173Z"/><path class="cls-2" d="M569.536,349.925c0,8.254-2.616,9.923-6.7,9.923V358c3.09,0,4.556-1.061,4.556-7.849,0-7.239-1.466-8.3-4.556-8.3V340C566.92,340,569.536,341.445,569.536,349.925Z"/><path class="cls-1" d="M539.683,169.981c-.024-.011-.047-.019-.073-.029a1.964,1.964,0,0,0-.28-.111,5.585,5.585,0,0,1-2.853-1.69,3.159,3.159,0,0,0-.244-.23,8.559,8.559,0,0,0-1.821.933,1.428,1.428,0,0,1-.482.226c-1,.226-2.014.425-3.018.653-.657.147-1.308.321-1.958.5a.646.646,0,0,0-.351.185,1.818,1.818,0,0,1-.646.545c.026.02.059.037.083.058.21.188.388.411.578.618.383-.021.724-.01,1.055-.063,1.1-.179,2.2-.362,3.288-.58.515-.1,1.007-.31,1.518-.437a3.52,3.52,0,0,1,.979-.127c.917.046,1.832.145,2.748.2.047,0,.094,0,.141,0a12.971,12.971,0,0,1,1.383-.558C539.713,170.036,539.7,170.006,539.683,169.981Z"/><path class="cls-2" d="M270.643,211.96c.424-.038.849-.08,1.275-.111.123-.01.25-.025.377-.038.09-.2.173-.4.269-.6.257-.522.5-1.049.772-1.564a17.779,17.779,0,0,0,1.369-2.468.289.289,0,0,1,.061-.118c.892-.9,1.3-2.134,2.125-3.086a2.109,2.109,0,0,0,.382-.549c.338-.825.615-1.678.983-2.491a8.685,8.685,0,0,1,.857-1.359c.179-.258.535-.447.6-.719a4.994,4.994,0,0,1,.65-1.423q-2,.147-4,.415a7.447,7.447,0,0,0-.564,1.367,1.422,1.422,0,0,1-.237.477c-.647.8-1.315,1.583-1.961,2.384-.424.524-.827,1.065-1.229,1.6a.663.663,0,0,0-.159.364,3.4,3.4,0,0,1-.726,1.85c-.152.272-.211.6-.363.866a8.626,8.626,0,0,1-1.149,1.917,4.543,4.543,0,0,0-.949,1.9,7.869,7.869,0,0,1-.469,1.2l-.424-.155c-.045.094-.093.188-.139.282q.855.089,1.714.114C270.02,212.007,270.331,211.988,270.643,211.96Z"/><path class="cls-2" d="M517.359,175.279a6.377,6.377,0,0,1,1.334-.6l.007-.014a1.511,1.511,0,0,1,.18-.176l.138.068c.225-.08.453-.153.671-.251.341-.151.675-.316,1.01-.479.08.127.158.257.236.385a8.028,8.028,0,0,0,1.113-.649,4.561,4.561,0,0,1,1.925-.9,8.563,8.563,0,0,0,2.09-.789c.288-.117.535-.335.823-.454a10.4,10.4,0,0,0,1.071-.455c-.157-.126-.332-.233-.516-.358a6.313,6.313,0,0,0-.667.353A8.136,8.136,0,0,1,522.926,172a6.411,6.411,0,0,0-1.144.131,9.983,9.983,0,0,1-5.019.069c-.333-.066-.673-.1-1-.195a2.717,2.717,0,0,0-1.835.164c-.487.2-.979.377-1.475.536a7.8,7.8,0,0,1-3.169.42,1.767,1.767,0,0,0-.692.183,4.05,4.05,0,0,1-2.553.118,1.3,1.3,0,0,0-.568-.06,6.485,6.485,0,0,1-2.591-.113.814.814,0,0,0-.675.116,1.125,1.125,0,0,1-.318.268l-.045-.056a13.162,13.162,0,0,0-3.7.172,2.66,2.66,0,0,1-1.138.023,5.994,5.994,0,0,0-3.536.464,2.686,2.686,0,0,1-.392.116,2.112,2.112,0,0,1-.385-.153,3.678,3.678,0,0,0-2.419-.107,2.054,2.054,0,0,0-1.262.865,1.756,1.756,0,0,1-.958-.079.782.782,0,0,0-.555-.013,4.923,4.923,0,0,1-2.153.153,12.227,12.227,0,0,0-2.442.172,3.769,3.769,0,0,1-.44.046c-.285.02-.573.029-.858.045-.1,0-.2-.042-.289-.017-2.006.566-4.143.188-6.135.857a1.478,1.478,0,0,1-.567.081c-1.1-.081-2.2-.191-3.309-.271-.722-.054-1.446-.079-2.17-.1a.708.708,0,0,0-.419.082,3.676,3.676,0,0,1-2.08.493c-.333.032-.655.179-.988.209a16.555,16.555,0,0,1-1.939.191c-.146-.111-.3-.211-.464-.324-.185.1-.342.176-.5.263a5.748,5.748,0,0,0-1.761.359c-.918.324-1.884.335-2.792.675-.277-.262-.519-.488-.757-.714a1.611,1.611,0,0,0-.239.125c-.221.169-.411.427-.659.5a3.544,3.544,0,0,1-1.149.122c-.629-.026-1.258-.074-1.887-.118.016.181.026.364.038.544-.325-.045-.648-.094-.973-.157s-.673-.1-1-.194a2.72,2.72,0,0,0-1.834.163c-.487.2-.979.379-1.476.536a7.776,7.776,0,0,1-3.168.42,1,1,0,0,0-.429.085c-.706-.053-1.411-.115-2.117-.152a3.554,3.554,0,0,0-.979.128c-.51.126-1,.334-1.518.437-1.09.218-2.19.4-3.288.58-.331.053-.673.042-1.055.064-.19-.207-.368-.431-.578-.619a5.873,5.873,0,0,0-.6-.417,6.707,6.707,0,0,0-.667.353,8.15,8.15,0,0,1-3.848,1.05,6.212,6.212,0,0,0-1.143.13,10,10,0,0,1-5.02.069c-.333-.066-.673-.1-1-.194a2.722,2.722,0,0,0-1.835.163c-.487.2-.979.377-1.475.536a7.813,7.813,0,0,1-3.168.42,1.782,1.782,0,0,0-.693.182,4.043,4.043,0,0,1-2.553.119,1.3,1.3,0,0,0-.568-.059,6.522,6.522,0,0,1-2.591-.113.807.807,0,0,0-.675.115,1.109,1.109,0,0,1-.318.268c-.017-.02-.029-.036-.045-.056a13.089,13.089,0,0,0-3.7.173,2.692,2.692,0,0,1-1.138.023,5.992,5.992,0,0,0-3.536.462,2.691,2.691,0,0,1-.392.118,1.963,1.963,0,0,1-.385-.155,3.672,3.672,0,0,0-2.419-.1,2.049,2.049,0,0,0-1.262.864,1.765,1.765,0,0,1-.958-.079.776.776,0,0,0-.555-.012,4.923,4.923,0,0,1-2.153.152,12.3,12.3,0,0,0-2.442.173,4.266,4.266,0,0,1-.439.045c-.286.021-.574.03-.859.045-.1,0-.2-.042-.289-.018-2.006.568-4.143.189-6.134.857a1.487,1.487,0,0,1-.568.082c-1.1-.081-2.205-.191-3.309-.271-.722-.054-1.446-.079-2.17-.1a.708.708,0,0,0-.419.083,3.667,3.667,0,0,1-2.08.492c-.333.033-.656.179-.988.209a9.25,9.25,0,0,1-2.4.16,4.879,4.879,0,0,0-2.265.33c-.918.324-1.884.335-2.792.676-.277-.263-.518-.49-.757-.715a1.568,1.568,0,0,0-.239.126c-.221.168-.411.426-.659.5-.055.017-.117.019-.174.033-.1-.006-.2-.016-.306-.023a3.2,3.2,0,0,0-.843.1c-.571-.027-1.142-.066-1.713-.107.017.192.027.383.04.574-1.085.217-2.176.4-3.269.577-.331.054-.672.042-1.054.064-.191-.207-.368-.431-.578-.618a5.591,5.591,0,0,0-.6-.418,6.7,6.7,0,0,0-.667.354,8.157,8.157,0,0,1-3.848,1.049,6.127,6.127,0,0,0-1.143.131,9.987,9.987,0,0,1-5.02.067c-.332-.066-.673-.1-1-.193a2.717,2.717,0,0,0-1.835.164c-.487.2-.979.377-1.475.535a7.833,7.833,0,0,1-3.169.421,1.807,1.807,0,0,0-.692.181,4.036,4.036,0,0,1-2.553.119,1.3,1.3,0,0,0-.568-.059,6.516,6.516,0,0,1-2.59-.114.813.813,0,0,0-.676.116,1.109,1.109,0,0,1-.318.268c-.017-.02-.028-.035-.045-.056a13.053,13.053,0,0,0-3.7.173,2.692,2.692,0,0,1-1.138.023,5.986,5.986,0,0,0-3.536.463,2.818,2.818,0,0,1-.392.117,2.014,2.014,0,0,1-.385-.155,3.678,3.678,0,0,0-2.419-.1,2.048,2.048,0,0,0-1.261.864,1.759,1.759,0,0,1-.959-.078.771.771,0,0,0-.555-.013,4.922,4.922,0,0,1-2.153.152,12.313,12.313,0,0,0-2.442.173,4.006,4.006,0,0,1-.439.046c-.286.02-.573.029-.859.044-.1.005-.2-.042-.289-.016-2,.566-4.143.187-6.135.855a1.478,1.478,0,0,1-.566.083c-1.1-.083-2.206-.192-3.309-.273-.723-.052-1.446-.078-2.171-.1a.7.7,0,0,0-.418.084,3.679,3.679,0,0,1-2.081.491c-.333.033-.655.179-.987.209a9.217,9.217,0,0,1-2.4.16,4.865,4.865,0,0,0-2.264.331,8.365,8.365,0,0,1-1.222.3,6.251,6.251,0,0,1-.807-.124.815.815,0,0,0-.674.116,1.054,1.054,0,0,1-.263.222l-.583-.551a1.676,1.676,0,0,0-.24.126c-.162.123-.313.273-.476.385a9.785,9.785,0,0,0-1.891.109,1.253,1.253,0,0,1-.195.279,3.342,3.342,0,0,0-.915,1.622,8.293,8.293,0,0,1-1.056,2.052c.572-.043,1.142-.1,1.716-.122,1.835-.065,3.62-.528,5.449-.594.486-.018.974-.019,1.46-.024,0-.027-.007-.055-.011-.083a12.775,12.775,0,0,0,1.319-.2c.618-.094,1.235-.2,1.855-.274a19.49,19.49,0,0,0,3.02-.305.341.341,0,0,1,.144-.018c1.342.235,2.684-.157,4.027-.014a2.3,2.3,0,0,0,.721,0c.936-.209,1.86-.484,2.8-.658a9.372,9.372,0,0,1,1.727-.077c.337,0,.724.2,1,.091,1.331-.519,2.784-.154,4.116-.622a3.563,3.563,0,0,1,2-.185,3.323,3.323,0,0,0,1.128-.1c.507-.077,1.012-.164,1.518-.247q.555-.091,1.113-.158a20,20,0,0,1,3.037.029,4.178,4.178,0,0,0,1.009.043,61.671,61.671,0,0,1,6.488-.635c1.834-.063,3.619-.527,5.448-.593.5-.019,1-.02,1.5-.024q.626-.008,1.25-.021c.435-.009.869-.036,1.3-.05a5.127,5.127,0,0,1,1.154-.01,2.319,2.319,0,0,0,1.811-.265.825.825,0,0,1,.414-.121c1.546-.049,3.068-.376,4.626-.338a16.92,16.92,0,0,0,2.438-.278,3.35,3.35,0,0,1,1-.123,6.42,6.42,0,0,0,2.3-.165,52.358,52.358,0,0,1,7.662-.477,7.2,7.2,0,0,0,2.717-.283,1.33,1.33,0,0,1,.716-.089c1.231.25,2.38-.25,3.571-.362,1.1-.1,2.188-.283,3.282-.433,0-.081-.012-.161-.017-.242.361-.032.721-.06,1.082-.064a10.085,10.085,0,0,0,1.432-.214c.619-.094,1.236-.2,1.856-.275a19.237,19.237,0,0,0,3.019-.306.381.381,0,0,1,.145-.016c1.342.235,2.684-.158,4.027-.014a2.3,2.3,0,0,0,.721,0c.937-.208,1.859-.483,2.8-.657a9.456,9.456,0,0,1,1.727-.078c.337,0,.724.2,1,.092,1.331-.519,2.783-.154,4.116-.622a3.581,3.581,0,0,1,2-.186,3.274,3.274,0,0,0,1.128-.1c.507-.075,1.012-.163,1.518-.246.37-.061.741-.113,1.112-.159a20.011,20.011,0,0,1,3.038.03,4.069,4.069,0,0,0,1.008.041,61.453,61.453,0,0,1,6.488-.633c1.835-.063,3.62-.527,5.449-.593.5-.019,1-.02,1.5-.025.416,0,.833-.012,1.249-.021.435-.008.869-.035,1.3-.049a5.127,5.127,0,0,1,1.154-.01,2.324,2.324,0,0,0,1.811-.266.845.845,0,0,1,.414-.121c1.545-.049,3.067-.375,4.625-.337a16.777,16.777,0,0,0,2.439-.278,3.285,3.285,0,0,1,1-.122,6.47,6.47,0,0,0,2.3-.166,52.358,52.358,0,0,1,7.662-.477,7.178,7.178,0,0,0,2.717-.284,1.328,1.328,0,0,1,.716-.088c1.231.25,2.381-.252,3.571-.362.4-.038.8-.092,1.193-.145a1.844,1.844,0,0,1,.269.013,2.315,2.315,0,0,0,1.811-.266.837.837,0,0,1,.413-.12c1.546-.05,3.068-.376,4.626-.338a16.627,16.627,0,0,0,2.438-.278,3.384,3.384,0,0,1,1-.122,6.448,6.448,0,0,0,2.3-.166,52.344,52.344,0,0,1,7.661-.477,7.145,7.145,0,0,0,2.718-.284,1.345,1.345,0,0,1,.715-.088c1.231.251,2.381-.251,3.571-.362,1.1-.1,2.188-.282,3.282-.433-.006-.133-.017-.268-.026-.4a10.5,10.5,0,0,1,1.618-.067c.336,0,.724.2,1,.092,1.331-.52,2.783-.154,4.116-.623a3.6,3.6,0,0,1,2-.185,3.277,3.277,0,0,0,1.129-.1c.507-.075,1.012-.162,1.518-.246.37-.061.741-.113,1.112-.159a20.127,20.127,0,0,1,3.037.029,4.083,4.083,0,0,0,1.009.043,61.455,61.455,0,0,1,6.488-.634c1.835-.064,3.62-.527,5.449-.593.5-.019,1-.02,1.5-.024.417,0,.834-.013,1.25-.021.435-.01.869-.036,1.3-.05a5.188,5.188,0,0,1,1.154-.011,2.311,2.311,0,0,0,1.811-.265.833.833,0,0,1,.413-.12c1.181-.039,2.352-.2,3.531-.275a13.9,13.9,0,0,1,2.533-.805A.244.244,0,0,0,517.359,175.279Z"/><path class="cls-2" d="M528.732,174.363c1.259-.155,2.346-.865,3.581-1.1a2.13,2.13,0,0,0,.64-.192c.778-.438,1.524-.934,2.317-1.343a8.6,8.6,0,0,1,1.516-.534c.3-.091.7-.018.916-.192a3.8,3.8,0,0,1,.645-.382c-.047,0-.094,0-.141,0-.916-.052-1.831-.151-2.748-.2a3.52,3.52,0,0,0-.979.127c-.511.127-1,.334-1.518.437-1.091.218-2.19.4-3.288.58-.331.053-.672.042-1.055.063-.19-.207-.368-.43-.578-.618-.024-.021-.057-.038-.083-.058a10.4,10.4,0,0,1-1.071.455c-.288.119-.535.337-.823.454a8.563,8.563,0,0,1-2.09.789,4.561,4.561,0,0,0-1.925.9,8.028,8.028,0,0,1-1.113.649c-.078-.128-.156-.258-.236-.385-.335.163-.669.328-1.01.479-.218.1-.446.171-.671.251l-.138-.068a1.511,1.511,0,0,0-.18.176l-.007.014a6.377,6.377,0,0,0-1.334.6.244.244,0,0,1-.11.048,13.9,13.9,0,0,0-2.533.805c.365-.023.727-.072,1.1-.063a16.611,16.611,0,0,0,2.438-.278,3.292,3.292,0,0,1,1-.122,6.447,6.447,0,0,0,2.3-.166,44.679,44.679,0,0,1,5.6-.424,6.923,6.923,0,0,0,1.46-.662A.307.307,0,0,1,528.732,174.363Z"/><path class="cls-2" d="M282.333,193.761a1.253,1.253,0,0,0,.195-.279c-.153.025-.3.029-.457.066-.29-.021-.581-.035-.871-.055,0,.048.006.095.01.144a3.7,3.7,0,0,1-.428-.038,5.782,5.782,0,0,0-2.085.044l-.137.221c-.047.076-.138.132-.165.212a28.875,28.875,0,0,1-2.031,3.774q1.993-.27,4-.415a8.293,8.293,0,0,0,1.056-2.052A3.342,3.342,0,0,1,282.333,193.761Z"/><path class="cls-2" d="M544.164,361.65a7.447,7.447,0,0,0-.564,1.367,1.422,1.422,0,0,1-.237.477c-.647.8-1.315,1.583-1.961,2.384-.424.524-.827,1.065-1.229,1.6a.663.663,0,0,0-.159.364,2.72,2.72,0,0,1-.557,1.567,6.468,6.468,0,0,1-1.367.246,1.8,1.8,0,0,0-.658.282,4.038,4.038,0,0,1-2.508.5,1.3,1.3,0,0,0-.57.025,6.524,6.524,0,0,1-2.579.273.805.805,0,0,0-.65.214,1.124,1.124,0,0,1-.275.312c-.02-.017-.034-.031-.053-.049a13.145,13.145,0,0,0-3.631.719,2.694,2.694,0,0,1-1.122.192,5.987,5.987,0,0,0-3.428.981,2.666,2.666,0,0,1-.37.175,2.072,2.072,0,0,1-.4-.1,3.688,3.688,0,0,0-2.408.253,2.063,2.063,0,0,0-1.12,1.043,1.764,1.764,0,0,1-.959.065.77.77,0,0,0-.551.069,4.913,4.913,0,0,1-2.107.47,12.305,12.305,0,0,0-2.389.533,4.376,4.376,0,0,1-.427.109c-.279.064-.564.115-.843.172-.094.019-.2-.012-.288.025-1.9.858-4.07.8-5.94,1.757a1.541,1.541,0,0,1-.549.167c-1.1.082-2.209.137-3.313.22-.722.055-1.442.138-2.161.22a.7.7,0,0,0-.4.145,3.661,3.661,0,0,1-1.985.793c-.324.083-.621.275-.945.354a9.262,9.262,0,0,1-2.348.515,4.871,4.871,0,0,0-2.191.661c-.86.457-1.814.611-2.661,1.083-.313-.22-.585-.409-.854-.595a1.655,1.655,0,0,0-.219.16c-.194.2-.343.482-.577.592-.052.026-.112.037-.167.059-.1.01-.2.015-.306.023a3.178,3.178,0,0,0-.818.224c-.569.059-1.14.1-1.711.149.045.187.084.374.125.561-1.041.376-2.093.719-3.147,1.056-.319.1-.659.141-1.034.22-.219-.177-.427-.372-.663-.527a6.037,6.037,0,0,0-.654-.324,6.367,6.367,0,0,0-.608.45,8.162,8.162,0,0,1-3.65,1.607,6.135,6.135,0,0,0-1.111.3,9.974,9.974,0,0,1-4.955.812c-.338-.017-.68,0-1.016-.044a2.721,2.721,0,0,0-1.79.435c-.451.27-.911.518-1.379.749a7.8,7.8,0,0,1-3.071.884,1.833,1.833,0,0,0-.658.282,4.041,4.041,0,0,1-2.506.5,1.3,1.3,0,0,0-.572.024,6.483,6.483,0,0,1-2.578.272.808.808,0,0,0-.651.216,1.118,1.118,0,0,1-.275.311l-.053-.049a13.131,13.131,0,0,0-3.63.719,2.694,2.694,0,0,1-1.122.192,5.985,5.985,0,0,0-3.429.982,2.768,2.768,0,0,1-.369.174,2.1,2.1,0,0,1-.405-.1,3.673,3.673,0,0,0-2.407.254,2.052,2.052,0,0,0-1.12,1.042,1.755,1.755,0,0,1-.959.065.772.772,0,0,0-.552.069,4.906,4.906,0,0,1-2.106.47,12.289,12.289,0,0,0-2.389.533,3.993,3.993,0,0,1-.427.11c-.28.063-.563.114-.844.171-.094.02-.205-.012-.288.027-1.9.857-4.069.8-5.94,1.755a1.461,1.461,0,0,1-.547.167c-1.1.081-2.211.137-3.314.219-.722.056-1.441.139-2.162.221a.7.7,0,0,0-.4.145,3.682,3.682,0,0,1-1.984.8c-.325.081-.622.274-.946.353a9.271,9.271,0,0,1-2.348.514,4.867,4.867,0,0,0-2.191.661,8.1,8.1,0,0,1-1.164.475,6.349,6.349,0,0,1-.816,0,.811.811,0,0,0-.65.214,1.027,1.027,0,0,1-.227.258l-.659-.458a1.642,1.642,0,0,0-.218.16c-.142.146-.269.316-.413.45a9.992,9.992,0,0,0-1.855.389,1.288,1.288,0,0,1-.151.3,3.345,3.345,0,0,0-.665,1.741,4.441,4.441,0,0,1-.25.953c-.1.016-.209.017-.312.036l-.137.221c-.047.076-.138.132-.165.212a28.875,28.875,0,0,1-2.031,3.774,7.447,7.447,0,0,0-.564,1.367,1.422,1.422,0,0,1-.237.477c-.647.8-1.315,1.583-1.961,2.384-.424.524-.827,1.065-1.229,1.6a.663.663,0,0,0-.159.364,3.4,3.4,0,0,1-.726,1.85c-.152.272-.211.6-.363.866a8.626,8.626,0,0,1-1.149,1.917,4.543,4.543,0,0,0-.949,1.9,7.869,7.869,0,0,1-.469,1.2l-.424-.155c-.045.094-.093.188-.139.282q.855.089,1.714.114c.311-.015.622-.034.934-.062.424-.038.849-.08,1.275-.111.123-.01.25-.025.377-.038.09-.2.173-.4.269-.6.257-.522.5-1.049.772-1.564a17.779,17.779,0,0,0,1.369-2.468.289.289,0,0,1,.061-.118c.892-.9,1.3-2.134,2.125-3.086a2.109,2.109,0,0,0,.382-.549c.338-.825.615-1.678.983-2.491a8.685,8.685,0,0,1,.857-1.359c.179-.258.535-.447.6-.719a4.994,4.994,0,0,1,.65-1.423,8.293,8.293,0,0,0,1.056-2.052,3.482,3.482,0,0,1,.779-1.444,33.338,33.338,0,0,1,3.3-.87c.478-.089.96-.162,1.44-.24l-.023-.08a12.8,12.8,0,0,0,1.274-.393c.6-.186,1.192-.382,1.8-.548a19.386,19.386,0,0,0,2.941-.749.353.353,0,0,1,.139-.038c1.363.033,2.632-.553,3.982-.61a2.308,2.308,0,0,0,.712-.106c.895-.344,1.768-.754,2.675-1.065a9.354,9.354,0,0,1,1.7-.332c.334-.05.746.09,1.005-.059,1.24-.711,2.73-.565,3.978-1.225a3.565,3.565,0,0,1,1.948-.48,3.273,3.273,0,0,0,1.1-.265c.49-.15.976-.311,1.465-.469.356-.114.716-.22,1.076-.321a20,20,0,0,1,3.008-.421,4.182,4.182,0,0,0,1-.108,61.848,61.848,0,0,1,6.322-1.59c1.805-.334,3.5-1.057,5.3-1.394.491-.092.986-.167,1.48-.246.412-.066.823-.136,1.232-.206.429-.073.855-.165,1.282-.242a5.224,5.224,0,0,1,1.14-.182,2.314,2.314,0,0,0,1.751-.53.821.821,0,0,1,.392-.18c1.522-.279,2.978-.827,4.524-1.021a16.877,16.877,0,0,0,2.37-.636,3.429,3.429,0,0,1,.971-.271,6.4,6.4,0,0,0,2.251-.5,52.432,52.432,0,0,1,7.507-1.607,7.2,7.2,0,0,0,2.645-.683,1.341,1.341,0,0,1,.694-.194c1.255.065,2.317-.6,3.478-.888,1.071-.265,2.122-.6,3.182-.914-.016-.08-.036-.158-.052-.237.351-.085.7-.166,1.06-.223a10.119,10.119,0,0,0,1.385-.424c.6-.186,1.192-.383,1.794-.548a19.242,19.242,0,0,0,2.941-.75.374.374,0,0,1,.14-.037c1.363.033,2.632-.554,3.981-.61a2.323,2.323,0,0,0,.713-.106c.9-.344,1.768-.754,2.674-1.065a9.359,9.359,0,0,1,1.7-.332c.333-.05.744.088,1-.059,1.239-.711,2.729-.565,3.978-1.225a3.581,3.581,0,0,1,1.947-.48,3.279,3.279,0,0,0,1.1-.265c.49-.149.976-.312,1.463-.469q.537-.172,1.078-.321a20,20,0,0,1,3.008-.421,4.174,4.174,0,0,0,1-.109,61.6,61.6,0,0,1,6.323-1.589c1.805-.334,3.5-1.057,5.3-1.394.491-.092.986-.168,1.48-.247.411-.065.822-.135,1.233-.206s.831-.159,1.247-.235c.011,0,.022,0,.033-.006a5.233,5.233,0,0,1,1.141-.182,2.324,2.324,0,0,0,1.751-.53.844.844,0,0,1,.391-.182c.469-.086.927-.214,1.388-.334a6.466,6.466,0,0,0,.663-1.306.289.289,0,0,1,.061-.118c.892-.9,1.3-2.134,2.125-3.086.043-.051.071-.112.114-.165a1.565,1.565,0,0,0,.268-.384c.338-.825.615-1.678.983-2.491a8.685,8.685,0,0,1,.857-1.359c.179-.258.535-.447.6-.719a4.994,4.994,0,0,1,.65-1.423Q546.158,361.382,544.164,361.65Z"/></svg>