<svg id="Livello_1" data-name="Livello 1" xmlns="http://www.w3.org/2000/svg" viewBox="0 0 952 294.078"><defs><style>.cls-1{fill:#f36;}.cls-2{fill:#1858a8;}</style></defs><title>10</title><path class="cls-1" d="M173.238,16.5v9.223h-1.8V17.245c0-1.827-.181-2.571-1.376-2.571a3.046,3.046,0,0,0-1.962.925c.022.27.045.563.045.9v9.223h-1.8V17.245c0-1.827-.181-2.571-1.376-2.571a2.975,2.975,0,0,0-1.917.88v10.17h-1.8V13.32h1.488l.023,1.083a3.553,3.553,0,0,1,2.661-1.331,2.327,2.327,0,0,1,2.323,1.241,4.046,4.046,0,0,1,2.774-1.241C172.336,13.072,173.238,14.088,173.238,16.5Z"/><path class="cls-1" d="M182.914,27.979h3.564v1.8h-9.157v-1.8h3.564v-2.5l-4.8-12.156h2.188l2.593,6.743.88,2.8h.45l.9-2.8,2.548-6.743h2.075l-4.8,12.156Z"/><path class="cls-1" d="M201.815,23.852v1.872h-9.788V10.389H194.1V23.852Z"/><path class="cls-1" d="M205.583,19.658c0-4.127,2.368-6.586,5.705-6.586,3.519,0,5.571,2.413,5.571,6.428s-2.368,6.473-5.706,6.473C207.635,25.973,205.583,23.559,205.583,19.658Zm9.224-.045c0-2.955-1.1-4.714-3.564-4.714-2.48,0-3.608,1.8-3.608,4.646s1.105,4.6,3.563,4.6C213.679,24.145,214.807,22.342,214.807,19.613Z"/><path class="cls-1" d="M232.6,13.32l-2.165,12.4h-2.729L226.243,17.4,226,15.125h-.2l-.248,2.277-1.466,8.322h-2.752l-2.165-12.4h1.917l1.331,8.1.27,2.5h.271l.248-2.481,1.331-8.119h2.841l1.331,8.119.248,2.481h.248l.271-2.458,1.33-8.142Z"/><path class="cls-1" d="M237.227,19.545c0,3.157,1.331,4.578,3.947,4.578a8.12,8.12,0,0,0,4.1-1.06l.542,1.692a9.2,9.2,0,0,1-4.691,1.2c-3.676,0-5.954-2.075-5.954-6.292s2.594-6.562,5.841-6.562c3.7,0,5.345,2.3,4.849,6.314h-8.638Zm.158-1.759h6.54c-.045-2.075-1.014-2.932-3.044-2.932A3.307,3.307,0,0,0,237.385,17.786Z"/><path class="cls-1" d="M260.8,23.92v1.8H250.061v-1.8h3.225V13.32h1.8l-.045,2.391,5.5-2.684.023,2.008-5.255,2.548V23.92Z"/><path class="cls-1" d="M264.5,19.658c0-4.488,2.729-6.562,6.18-6.562a9.566,9.566,0,0,1,4.51,1.014l-.586,1.826a8.144,8.144,0,0,0-4.105-1.014c-2.39,0-3.924,1.421-3.924,4.623,0,3.157,1.218,4.578,3.924,4.578a7.734,7.734,0,0,0,4.105-1.149l.541,1.781a9.2,9.2,0,0,1-4.691,1.2C266.661,25.95,264.5,23.875,264.5,19.658Z"/><path class="cls-1" d="M289.26,17.583l-.112,8.141h-1.692V24.236a5.852,5.852,0,0,1-4.352,1.737c-2.481-.023-3.879-1.331-3.879-3.406,0-2.39,2.458-3.45,7.961-3.879l.022-.88c.023-1.578-.158-2.909-2.616-2.909a9.753,9.753,0,0,0-4.33,1.06l-.541-1.692a10.9,10.9,0,0,1,5.029-1.2C288.832,13.072,289.283,15.147,289.26,17.583Zm-2.142,5.277.045-2.525c-4.15.338-5.909.924-5.909,2.187,0,1.037.722,1.647,2.12,1.669A5.545,5.545,0,0,0,287.118,22.86Z"/><path class="cls-1" d="M293.885,25l.609-1.895a9.537,9.537,0,0,0,4.533,1.037c2.3,0,3.406-.541,3.406-1.691,0-2.5-8.322-1.669-8.322-5.773,0-2.323,2.052-3.585,5.3-3.585a11.541,11.541,0,0,1,4.488.878l-.587,1.85a8.784,8.784,0,0,0-3.9-.925c-2.143,0-3.248.564-3.248,1.556,0,2.414,8.322,1.579,8.322,5.773,0,2.572-2.278,3.722-5.548,3.722A11.75,11.75,0,0,1,293.885,25Z"/><path class="cls-1" d="M310.531,19.545c0,3.157,1.33,4.578,3.947,4.578a8.123,8.123,0,0,0,4.1-1.06l.542,1.692a9.2,9.2,0,0,1-4.691,1.2c-3.677,0-5.954-2.075-5.954-6.292s2.593-6.562,5.841-6.562c3.7,0,5.345,2.3,4.849,6.314h-8.638Zm.158-1.759h6.54c-.045-2.075-1.015-2.932-3.044-2.932A3.307,3.307,0,0,0,310.689,17.786Z"/><path class="cls-2" d="M161.949,54.183V70.331h4.556V72.18h-6.63V52.334h6.63v1.849Z"/><path class="cls-2" d="M175.279,54.589h2.842l-.2,7.668h-2.435Z"/><path class="cls-2" d="M196.1,61.783l-.113,8.142h-1.691V68.436a5.852,5.852,0,0,1-4.353,1.737c-2.481-.023-3.879-1.331-3.879-3.406,0-2.39,2.458-3.45,7.961-3.878l.023-.88c.022-1.578-.158-2.91-2.616-2.91a9.747,9.747,0,0,0-4.33,1.06l-.542-1.691a10.894,10.894,0,0,1,5.03-1.2C195.669,57.272,196.119,59.348,196.1,61.783Zm-2.143,5.277L194,64.535c-4.15.338-5.909.924-5.909,2.188,0,1.037.722,1.646,2.12,1.668A5.536,5.536,0,0,0,193.954,67.06Z"/><path class="cls-2" d="M204.6,54.589h2.841l-.2,7.668H204.8Z"/><path class="cls-2" d="M223.1,69.225c0,1.985-1.218,4.308-4.6,4.308V71.842c1.511,0,2.436-.586,2.729-2.007a1.367,1.367,0,0,1-.812.293,2.031,2.031,0,0,1,.09-4.06C221.7,66.068,223.1,67.06,223.1,69.225Z"/><path class="cls-2" d="M233.922,54.589h2.842l-.2,7.668h-2.435Z"/><path class="cls-2" d="M255.642,63.249c0,4.962-2.458,6.9-6.157,6.9a13.9,13.9,0,0,1-4.442-.654V51.432h2.029v5.413l-.18,1.917a6.083,6.083,0,0,1,4.037-1.49C254,57.3,255.642,59.437,255.642,63.249Zm-2.052.225c0-2.819-.992-4.352-2.909-4.375a6.063,6.063,0,0,0-3.609,1.173v7.736a9.472,9.472,0,0,0,2.571.315C252.372,68.323,253.59,66.7,253.59,63.474Z"/><path class="cls-2" d="M263.244,54.589h2.842l-.2,7.668h-2.435Z"/><path class="cls-2" d="M281.738,69.225c0,1.985-1.217,4.308-4.6,4.308V71.842c1.511,0,2.435-.586,2.728-2.007a1.364,1.364,0,0,1-.811.293,2.031,2.031,0,0,1,.09-4.06C280.34,66.068,281.738,67.06,281.738,69.225Z"/><path class="cls-2" d="M292.565,54.589h2.842l-.2,7.668h-2.436Z"/><path class="cls-2" d="M303.279,63.858c0-4.488,2.729-6.563,6.18-6.563a9.575,9.575,0,0,1,4.51,1.015l-.586,1.827a8.131,8.131,0,0,0-4.1-1.015c-2.39,0-3.923,1.421-3.923,4.623,0,3.157,1.217,4.578,3.923,4.578a7.731,7.731,0,0,0,4.1-1.149l.541,1.781a9.186,9.186,0,0,1-4.691,1.2C305.444,70.15,303.279,68.075,303.279,63.858Z"/><path class="cls-2" d="M321.887,54.589h2.842l-.2,7.668H322.09Z"/><path class="cls-2" d="M340.381,69.225c0,1.985-1.217,4.308-4.6,4.308V71.842c1.511,0,2.435-.586,2.728-2.007a1.364,1.364,0,0,1-.811.293,2.031,2.031,0,0,1,.09-4.06C338.983,66.068,340.381,67.06,340.381,69.225Z"/><path class="cls-2" d="M350.6,68.1a2.03,2.03,0,1,1,2.03,2.03A2.023,2.023,0,0,1,350.6,68.1Z"/><path class="cls-2" d="M365.26,68.1a2.03,2.03,0,1,1,2.03,2.03A2.022,2.022,0,0,1,365.26,68.1Z"/><path class="cls-2" d="M379.92,68.1a2.03,2.03,0,1,1,2.03,2.03A2.023,2.023,0,0,1,379.92,68.1Z"/><path class="cls-2" d="M399.024,69.225c0,1.985-1.218,4.308-4.6,4.308V71.842c1.511,0,2.436-.586,2.729-2.007a1.365,1.365,0,0,1-.812.293,2.031,2.031,0,0,1,.09-4.06C397.626,66.068,399.024,67.06,399.024,69.225Z"/><path class="cls-2" d="M424.512,54.589h2.842l-.2,7.668h-2.435Z"/><path class="cls-2" d="M440.684,64.558h-.248l-3.316,5.367h-2.232l4.24-6.495-4.173-5.91h2.233l3.315,4.85h.293l3.315-4.85h2.121l-4.173,5.865,4.24,6.54h-2.233Z"/><path class="cls-2" d="M453.833,54.589h2.842l-.2,7.668h-2.436Z"/><path class="cls-2" d="M472.328,69.225c0,1.985-1.218,4.308-4.6,4.308V71.842c1.511,0,2.436-.586,2.729-2.007a1.365,1.365,0,0,1-.812.293,2.031,2.031,0,0,1,.09-4.06C470.929,66.068,472.328,67.06,472.328,69.225Z"/><path class="cls-2" d="M483.154,54.589H486l-.2,7.668h-2.435Z"/><path class="cls-2" d="M500.251,72.18h3.563v1.8h-9.156v-1.8h3.563v-2.5l-4.8-12.157h2.187l2.593,6.744.88,2.8h.451l.9-2.8,2.549-6.744h2.074l-4.8,12.157Z"/><path class="cls-2" d="M512.476,54.589h2.842l-.2,7.668h-2.436Z"/><path class="cls-2" d="M530.971,69.225c0,1.985-1.218,4.308-4.6,4.308V71.842c1.511,0,2.436-.586,2.729-2.007a1.367,1.367,0,0,1-.812.293,2.031,2.031,0,0,1,.09-4.06C529.572,66.068,530.971,67.06,530.971,69.225Z"/><path class="cls-2" d="M541.8,54.589h2.842l-.2,7.668H542Z"/><path class="cls-2" d="M563.269,68.121v1.8H552.624V67.67l8.142-8.345H552.85v-1.8h10.194v2.256L554.9,68.121Z"/><path class="cls-2" d="M571.119,54.589h2.842l-.2,7.668h-2.435Z"/><path class="cls-2" d="M589.365,72.18h-6.63V70.331h4.556V54.183h-4.556V52.334h6.63Z"/><path class="cls-1" d="M196.322,95.922c0,5.682-2.142,8.028-5.751,8.028-3.788,0-5.615-2.639-5.615-7.758,0-5.345,2.143-8.029,5.751-8.029C194.5,88.163,196.322,90.8,196.322,95.922Zm-9.246.157c0,.677.023,1.309.068,1.872l6.608-5.728a2.934,2.934,0,0,0-3.09-2.21C187.91,90.013,187.076,92.133,187.076,96.079Zm7.127-.045c0-.677-.023-1.308-.068-1.872l-6.608,5.729a2.932,2.932,0,0,0,3.09,2.209C193.368,102.1,194.2,100.432,194.2,96.034Z"/><path class="cls-1" d="M255.213,101.875v1.849H244.479v-1.849h4.781v-9.7l-4.781,1.827V92l4.781-1.826V88.389h2.075v13.486Z"/><path class="cls-1" d="M313.766,101.875v1.849h-11.1v-2.075c3.947-2.413,8.547-4.871,8.547-8.8,0-1.736-.766-2.841-3.337-2.841-2.8,0-3.541,1.24-3.541,3.36a3.842,3.842,0,0,0,.181,1.376l-2.143-.158a10.523,10.523,0,0,1-.09-1.444c0-3,1.962-4.984,5.705-4.984,4.4,0,5.345,2.436,5.345,4.466,0,4.33-4.059,6.765-6.54,8.434l-1.218.541v.271Z"/><path class="cls-1" d="M440.881,101.875v1.849h-11.1v-2.075c3.947-2.413,8.547-4.871,8.547-8.8,0-1.736-.766-2.841-3.337-2.841-2.8,0-3.541,1.24-3.541,3.36a3.871,3.871,0,0,0,.18,1.376l-2.142-.158a10.331,10.331,0,0,1-.091-1.444c0-3,1.962-4.984,5.707-4.984,4.4,0,5.344,2.436,5.344,4.466,0,4.33-4.059,6.765-6.54,8.434l-1.218.541v.271Z"/><path class="cls-1" d="M455.181,99.305c0,2.57-1.827,4.645-6.406,4.645a12.092,12.092,0,0,1-5.187-1.015l.587-1.759a11.209,11.209,0,0,0,4.781.947c3.067,0,4.15-.97,4.15-2.706,0-1.466-.993-2.5-3.924-2.5h-4.173V95.087h5.413c1.623-.654,2.187-1.511,2.187-2.706,0-1.737-1.172-2.391-3.54-2.391a10.42,10.42,0,0,0-4.669,1.06l-.541-1.692a11.9,11.9,0,0,1,5.368-1.2c3.338,0,5.457,1.286,5.457,4.1a3.841,3.841,0,0,1-2.232,3.452C454.346,96.418,455.181,97.455,455.181,99.305Z"/><path class="cls-1" d="M499.524,101.875v1.849h-11.1v-2.075c3.947-2.413,8.547-4.871,8.547-8.8,0-1.736-.766-2.841-3.337-2.841-2.8,0-3.541,1.24-3.541,3.36a3.871,3.871,0,0,0,.18,1.376l-2.142-.158a10.364,10.364,0,0,1-.09-1.444c0-3,1.961-4.984,5.7-4.984,4.4,0,5.345,2.436,5.345,4.466,0,4.33-4.059,6.765-6.54,8.434l-1.218.541v.271Z"/><path class="cls-1" d="M514.523,100.567h-2.21v3.157h-2.075v-3.157h-7.713V98.492l5.57-10.1h2.143L505.5,96.981l-1.061,1.444v.293h5.8V88.389h2.075V98.718h2.21Z"/><path class="cls-1" d="M558.166,101.875v1.849h-11.1v-2.075c3.947-2.413,8.548-4.871,8.548-8.8,0-1.736-.767-2.841-3.338-2.841-2.8,0-3.541,1.24-3.541,3.36a3.842,3.842,0,0,0,.181,1.376l-2.143-.158a10.523,10.523,0,0,1-.09-1.444c0-3,1.962-4.984,5.706-4.984,4.4,0,5.345,2.436,5.345,4.466,0,4.33-4.06,6.765-6.54,8.434l-1.218.541v.271Z"/><path class="cls-1" d="M572.534,98.943c0,2.706-1.827,5.007-6.179,5.007a10.852,10.852,0,0,1-4.962-1.015l.586-1.759a9.37,9.37,0,0,0,4.556.947c2.842,0,3.924-1.2,3.924-3.044,0-1.76-1.308-2.526-4.037-3.022l-3.992-.722.091-6.946h9.517v1.849H564.55l-.067,3.586,2.661.474C570.774,94.906,572.534,96.1,572.534,98.943Z"/><path class="cls-1" d="M173.238,195.9v9.224h-1.8v-8.48c0-1.827-.181-2.571-1.376-2.571A3.046,3.046,0,0,0,168.1,195c.022.27.045.563.045.9v9.224h-1.8v-8.48c0-1.827-.181-2.571-1.376-2.571a2.98,2.98,0,0,0-1.917.88v10.171h-1.8v-12.4h1.488l.023,1.083a3.553,3.553,0,0,1,2.661-1.331,2.325,2.325,0,0,1,2.323,1.241,4.042,4.042,0,0,1,2.774-1.241C172.336,192.473,173.238,193.488,173.238,195.9Z"/><path class="cls-1" d="M182.914,207.38h3.564v1.8h-9.157v-1.8h3.564v-2.5l-4.8-12.156h2.188l2.593,6.743.88,2.8h.45l.9-2.8,2.548-6.743h2.075l-4.8,12.156Z"/><path class="cls-1" d="M201.815,203.253v1.872h-9.788V189.789H194.1v13.464Z"/><path class="cls-1" d="M205.583,199.058c0-4.126,2.368-6.585,5.705-6.585,3.519,0,5.571,2.413,5.571,6.427s-2.368,6.473-5.706,6.473C207.635,205.373,205.583,202.96,205.583,199.058Zm9.224-.044c0-2.956-1.1-4.714-3.564-4.714-2.48,0-3.608,1.8-3.608,4.645s1.105,4.6,3.563,4.6C213.679,203.546,214.807,201.742,214.807,199.014Z"/><path class="cls-1" d="M232.6,192.721l-2.165,12.4h-2.729l-1.466-8.322L226,194.525h-.2l-.248,2.278-1.466,8.322h-2.752l-2.165-12.4h1.917l1.331,8.1.27,2.5h.271l.248-2.48,1.331-8.119h2.841l1.331,8.119.248,2.48h.248l.271-2.458,1.33-8.141Z"/><path class="cls-1" d="M237.227,198.945c0,3.157,1.331,4.578,3.947,4.578a8.12,8.12,0,0,0,4.1-1.059l.542,1.691a9.192,9.192,0,0,1-4.691,1.195c-3.676,0-5.954-2.075-5.954-6.292s2.594-6.562,5.841-6.562c3.7,0,5.345,2.3,4.849,6.314h-8.638Zm.158-1.759h6.54c-.045-2.075-1.014-2.931-3.044-2.931A3.306,3.306,0,0,0,237.385,197.186Z"/><path class="cls-1" d="M260.8,203.32v1.805H250.061V203.32h3.225v-10.6h1.8l-.045,2.39,5.5-2.683.023,2.007-5.255,2.548v6.337Z"/><path class="cls-1" d="M264.5,199.058c0-4.488,2.729-6.562,6.18-6.562a9.566,9.566,0,0,1,4.51,1.015l-.586,1.826a8.134,8.134,0,0,0-4.105-1.015c-2.39,0-3.924,1.421-3.924,4.623,0,3.157,1.218,4.578,3.924,4.578a7.725,7.725,0,0,0,4.105-1.149l.541,1.781a9.186,9.186,0,0,1-4.691,1.195C266.661,205.35,264.5,203.275,264.5,199.058Z"/><path class="cls-1" d="M289.26,196.983l-.112,8.142h-1.692v-1.488a5.854,5.854,0,0,1-4.352,1.736c-2.481-.023-3.879-1.33-3.879-3.405,0-2.391,2.458-3.451,7.961-3.879l.022-.88c.023-1.578-.158-2.909-2.616-2.909a9.753,9.753,0,0,0-4.33,1.059l-.541-1.691a10.886,10.886,0,0,1,5.029-1.195C288.832,192.473,289.283,194.548,289.26,196.983Zm-2.142,5.278.045-2.526c-4.15.338-5.909.924-5.909,2.188,0,1.037.722,1.646,2.12,1.669A5.55,5.55,0,0,0,287.118,202.261Z"/><path class="cls-1" d="M293.885,204.4l.609-1.894a9.548,9.548,0,0,0,4.533,1.037c2.3,0,3.406-.541,3.406-1.692,0-2.5-8.322-1.669-8.322-5.773,0-2.322,2.052-3.585,5.3-3.585a11.54,11.54,0,0,1,4.488.879l-.587,1.849a8.8,8.8,0,0,0-3.9-.924c-2.143,0-3.248.563-3.248,1.555,0,2.414,8.322,1.579,8.322,5.774,0,2.571-2.278,3.721-5.548,3.721A11.735,11.735,0,0,1,293.885,204.4Z"/><path class="cls-1" d="M310.531,198.945c0,3.157,1.33,4.578,3.947,4.578a8.122,8.122,0,0,0,4.1-1.059l.542,1.691a9.192,9.192,0,0,1-4.691,1.195c-3.677,0-5.954-2.075-5.954-6.292s2.593-6.562,5.841-6.562c3.7,0,5.345,2.3,4.849,6.314h-8.638Zm.158-1.759h6.54c-.045-2.075-1.015-2.931-3.044-2.931A3.306,3.306,0,0,0,310.689,197.186Z"/><path class="cls-2" d="M326.477,203.3a2.03,2.03,0,1,1,2.03,2.03A2.022,2.022,0,0,1,326.477,203.3Z"/><path class="cls-2" d="M348.76,203.32v1.805H338.025V203.32h3.226v-10.6h1.8l-.045,2.39,5.5-2.683.023,2.007-5.255,2.548v6.337Z"/><path class="cls-2" d="M354.513,198.945c0,3.157,1.33,4.578,3.947,4.578a8.122,8.122,0,0,0,4.1-1.059l.542,1.691a9.192,9.192,0,0,1-4.691,1.195c-3.677,0-5.954-2.075-5.954-6.292s2.593-6.562,5.841-6.562c3.7,0,5.345,2.3,4.848,6.314h-8.637Zm.158-1.759h6.54c-.045-2.075-1.015-2.931-3.044-2.931A3.306,3.306,0,0,0,354.671,197.186Z"/><path class="cls-2" d="M378.307,192.721l-4.352,12.4h-2.932l-4.353-12.4h2.188l2.5,7.42.925,3.179h.519l.924-3.179,2.5-7.42Z"/><path class="cls-2" d="M383.834,198.945c0,3.157,1.331,4.578,3.947,4.578a8.12,8.12,0,0,0,4.1-1.059l.542,1.691a9.192,9.192,0,0,1-4.691,1.195c-3.676,0-5.954-2.075-5.954-6.292s2.594-6.562,5.841-6.562c3.7,0,5.345,2.3,4.849,6.314h-8.638Zm.158-1.759h6.54c-.045-2.075-1.014-2.931-3.044-2.931A3.306,3.306,0,0,0,383.992,197.186Z"/><path class="cls-2" d="M407.4,203.32v1.805H396.668V203.32h3.225v-10.6h1.8l-.045,2.39,5.5-2.683.023,2.007-5.255,2.548v6.337Z"/><path class="cls-2" d="M411.171,204.4l.609-1.894a9.553,9.553,0,0,0,4.534,1.037c2.3,0,3.4-.541,3.4-1.692,0-2.5-8.322-1.669-8.322-5.773,0-2.322,2.052-3.585,5.3-3.585a11.54,11.54,0,0,1,4.488.879l-.587,1.849a8.8,8.8,0,0,0-3.9-.924c-2.143,0-3.248.563-3.248,1.555,0,2.414,8.322,1.579,8.322,5.774,0,2.571-2.278,3.721-5.548,3.721A11.738,11.738,0,0,1,411.171,204.4Z"/><path class="cls-2" d="M427.816,198.945c0,3.157,1.331,4.578,3.947,4.578a8.124,8.124,0,0,0,4.105-1.059l.541,1.691a9.186,9.186,0,0,1-4.691,1.195c-3.676,0-5.954-2.075-5.954-6.292s2.594-6.562,5.842-6.562c3.7,0,5.344,2.3,4.848,6.314h-8.638Zm.159-1.759h6.54c-.045-2.075-1.015-2.931-3.045-2.931A3.3,3.3,0,0,0,427.975,197.186Z"/><path class="cls-2" d="M442.771,197.457c0-8.254,2.616-9.923,6.7-9.923v1.85c-3.09,0-4.556,1.059-4.556,7.847,0,7.24,1.466,8.3,4.556,8.3v1.849C445.387,207.38,442.771,205.936,442.771,197.457Z"/><path class="cls-2" d="M463.475,197.457c0,8.254-2.616,9.923-6.7,9.923v-1.849c3.09,0,4.556-1.06,4.556-7.848,0-7.24-1.466-8.3-4.556-8.3v-1.85C460.859,187.534,463.475,188.977,463.475,197.457Z"/><path class="cls-2" d="M161.949,233.584v16.147h4.556v1.849h-6.63V231.734h6.63v1.85Z"/><path class="cls-2" d="M175.279,233.989h2.842l-.2,7.668h-2.435Z"/><path class="cls-2" d="M196.751,247.521v1.8H186.106V247.07l8.142-8.345h-7.916v-1.8h10.193v2.256l-8.141,8.344Z"/><path class="cls-2" d="M204.6,233.989h2.841l-.2,7.668H204.8Z"/><path class="cls-2" d="M223.1,248.626c0,1.984-1.218,4.307-4.6,4.307v-1.691c1.511,0,2.436-.586,2.729-2.007a1.367,1.367,0,0,1-.812.293,2.031,2.031,0,0,1,.09-4.059C221.7,245.469,223.1,246.461,223.1,248.626Z"/><path class="cls-2" d="M233.922,233.989h2.842l-.2,7.668h-2.435Z"/><path class="cls-2" d="M251.019,251.58h3.563v1.8h-9.156v-1.8h3.563v-2.5l-4.8-12.156h2.187l2.593,6.743.88,2.8h.451l.9-2.8,2.549-6.743h2.074l-4.8,12.156Z"/><path class="cls-2" d="M263.244,233.989h2.842l-.2,7.668h-2.435Z"/><path class="cls-2" d="M281.738,248.626c0,1.984-1.217,4.307-4.6,4.307v-1.691c1.511,0,2.435-.586,2.728-2.007a1.364,1.364,0,0,1-.811.293,2.031,2.031,0,0,1,.09-4.059C280.34,245.469,281.738,246.461,281.738,248.626Z"/><path class="cls-2" d="M292.565,233.989h2.842l-.2,7.668h-2.436Z"/><path class="cls-2" d="M308.737,243.958h-.248l-3.315,5.367h-2.233l4.24-6.495-4.172-5.909h2.233l3.315,4.849h.293l3.315-4.849h2.12l-4.172,5.864,4.24,6.54H312.12Z"/><path class="cls-2" d="M321.887,233.989h2.842l-.2,7.668H322.09Z"/><path class="cls-2" d="M340.381,248.626c0,1.984-1.217,4.307-4.6,4.307v-1.691c1.511,0,2.435-.586,2.728-2.007a1.364,1.364,0,0,1-.811.293,2.031,2.031,0,0,1,.09-4.059C338.983,245.469,340.381,246.461,340.381,248.626Z"/><path class="cls-2" d="M350.6,247.5a2.03,2.03,0,1,1,2.03,2.03A2.022,2.022,0,0,1,350.6,247.5Z"/><path class="cls-2" d="M365.26,247.5a2.03,2.03,0,1,1,2.03,2.03A2.021,2.021,0,0,1,365.26,247.5Z"/><path class="cls-2" d="M379.92,247.5a2.03,2.03,0,1,1,2.03,2.03A2.022,2.022,0,0,1,379.92,247.5Z"/><path class="cls-2" d="M399.024,248.626c0,1.984-1.218,4.307-4.6,4.307v-1.691c1.511,0,2.436-.586,2.729-2.007a1.365,1.365,0,0,1-.812.293,2.031,2.031,0,0,1,.09-4.059C397.626,245.469,399.024,246.461,399.024,248.626Z"/><path class="cls-2" d="M424.512,233.989h2.842l-.2,7.668h-2.435Z"/><path class="cls-2" d="M435.226,243.259c0-4.489,2.729-6.564,6.179-6.564a9.57,9.57,0,0,1,4.511,1.016l-.587,1.826a8.13,8.13,0,0,0-4.1-1.015c-2.391,0-3.924,1.421-3.924,4.623,0,3.158,1.218,4.579,3.924,4.579a7.722,7.722,0,0,0,4.1-1.15l.542,1.781a9.192,9.192,0,0,1-4.691,1.2C437.391,249.551,435.226,247.475,435.226,243.259Z"/><path class="cls-2" d="M453.833,233.989h2.842l-.2,7.668h-2.436Z"/><path class="cls-2" d="M472.328,248.626c0,1.984-1.218,4.307-4.6,4.307v-1.691c1.511,0,2.436-.586,2.729-2.007a1.365,1.365,0,0,1-.812.293,2.031,2.031,0,0,1,.09-4.059C470.929,245.469,472.328,246.461,472.328,248.626Z"/><path class="cls-2" d="M483.154,233.989H486l-.2,7.668h-2.435Z"/><path class="cls-2" d="M504.874,242.649c0,4.962-2.458,6.9-6.157,6.9a13.868,13.868,0,0,1-4.443-.655V230.832h2.03v5.413l-.18,1.917a6.076,6.076,0,0,1,4.037-1.489C503.228,236.7,504.874,238.838,504.874,242.649Zm-2.052.226c0-2.819-.993-4.353-2.909-4.375a6.05,6.05,0,0,0-3.609,1.173v7.735a9.433,9.433,0,0,0,2.571.316C501.6,247.724,502.822,246.1,502.822,242.875Z"/><path class="cls-2" d="M512.476,233.989h2.842l-.2,7.668h-2.436Z"/><path class="cls-2" d="M530.971,248.626c0,1.984-1.218,4.307-4.6,4.307v-1.691c1.511,0,2.436-.586,2.729-2.007a1.367,1.367,0,0,1-.812.293,2.031,2.031,0,0,1,.09-4.059C529.572,245.469,530.971,246.461,530.971,248.626Z"/><path class="cls-2" d="M541.8,233.989h2.842l-.2,7.668H542Z"/><path class="cls-2" d="M562.615,241.183l-.113,8.142h-1.691v-1.488a5.851,5.851,0,0,1-4.353,1.736c-2.48-.022-3.879-1.331-3.879-3.405,0-2.391,2.458-3.45,7.961-3.879l.023-.88c.022-1.578-.158-2.909-2.617-2.909a9.77,9.77,0,0,0-4.33,1.059l-.541-1.691a10.894,10.894,0,0,1,5.03-1.195C562.187,236.673,562.638,238.748,562.615,241.183Zm-2.142,5.278.045-2.526c-4.15.338-5.909.924-5.909,2.188,0,1.037.722,1.646,2.12,1.669A5.55,5.55,0,0,0,560.473,246.461Z"/><path class="cls-2" d="M571.119,233.989h2.842l-.2,7.668h-2.435Z"/><path class="cls-2" d="M589.365,251.58h-6.63v-1.849h4.556V233.584h-4.556v-1.85h6.63Z"/><path class="cls-1" d="M196.322,275.322c0,5.683-2.142,8.028-5.751,8.028-3.788,0-5.615-2.638-5.615-7.757,0-5.346,2.143-8.03,5.751-8.03C194.5,267.563,196.322,270.2,196.322,275.322Zm-9.246.157c0,.677.023,1.309.068,1.872l6.608-5.728a2.934,2.934,0,0,0-3.09-2.21C187.91,269.413,187.076,271.533,187.076,275.479Zm7.127-.045c0-.676-.023-1.307-.068-1.872l-6.608,5.729a2.932,2.932,0,0,0,3.09,2.21C193.368,281.5,194.2,279.832,194.2,275.434Z"/><path class="cls-1" d="M255.213,281.275v1.85H244.479v-1.85h4.781v-9.7l-4.781,1.827V271.4l4.781-1.826v-1.782h2.075v13.486Z"/><path class="cls-1" d="M313.766,281.275v1.85h-11.1V281.05c3.947-2.413,8.547-4.871,8.547-8.8,0-1.737-.766-2.842-3.337-2.842-2.8,0-3.541,1.24-3.541,3.36a3.838,3.838,0,0,0,.181,1.376l-2.143-.158a10.518,10.518,0,0,1-.09-1.443c0-3,1.962-4.985,5.705-4.985,4.4,0,5.345,2.436,5.345,4.466,0,4.33-4.059,6.766-6.54,8.435l-1.218.541v.27Z"/><path class="cls-1" d="M443.481,281.275v1.85h-11.1V281.05c3.947-2.413,8.548-4.871,8.548-8.8,0-1.737-.767-2.842-3.338-2.842-2.8,0-3.541,1.24-3.541,3.36a3.838,3.838,0,0,0,.181,1.376l-2.143-.158a10.518,10.518,0,0,1-.09-1.443c0-3,1.962-4.985,5.706-4.985,4.4,0,5.345,2.436,5.345,4.466,0,4.33-4.06,6.766-6.54,8.435l-1.218.541v.27Z"/><path class="cls-1" d="M457.78,278.705c0,2.57-1.827,4.645-6.4,4.645a12.107,12.107,0,0,1-5.187-1.014l.586-1.76a11.217,11.217,0,0,0,4.782.947c3.067,0,4.149-.969,4.149-2.706,0-1.466-.992-2.5-3.924-2.5h-4.172v-1.827h5.413c1.623-.654,2.187-1.511,2.187-2.706,0-1.736-1.173-2.39-3.54-2.39A10.431,10.431,0,0,0,447,270.45l-.541-1.691a11.878,11.878,0,0,1,5.367-1.2c3.338,0,5.458,1.286,5.458,4.105a3.842,3.842,0,0,1-2.233,3.451C456.946,275.818,457.78,276.855,457.78,278.705Z"/><path class="cls-1" d="M502.123,281.275v1.85h-11.1V281.05c3.947-2.413,8.548-4.871,8.548-8.8,0-1.737-.767-2.842-3.338-2.842-2.8,0-3.541,1.24-3.541,3.36a3.838,3.838,0,0,0,.181,1.376l-2.143-.158a10.518,10.518,0,0,1-.09-1.443c0-3,1.962-4.985,5.706-4.985,4.4,0,5.345,2.436,5.345,4.466,0,4.33-4.06,6.766-6.54,8.435l-1.218.541v.27Z"/><path class="cls-1" d="M517.122,279.968h-2.21v3.157h-2.075v-3.157h-7.712v-2.076l5.57-10.1h2.142l-4.736,8.593-1.06,1.443v.293h5.8V267.789h2.075v10.329h2.21Z"/><path class="cls-1" d="M560.766,281.275v1.85h-11.1V281.05c3.947-2.413,8.547-4.871,8.547-8.8,0-1.737-.766-2.842-3.337-2.842-2.8,0-3.541,1.24-3.541,3.36a3.838,3.838,0,0,0,.181,1.376l-2.143-.158a10.518,10.518,0,0,1-.09-1.443c0-3,1.962-4.985,5.7-4.985,4.4,0,5.345,2.436,5.345,4.466,0,4.33-4.059,6.766-6.54,8.435l-1.218.541v.27Z"/><path class="cls-1" d="M575.133,278.344c0,2.706-1.826,5.006-6.179,5.006a10.858,10.858,0,0,1-4.962-1.014l.587-1.76a9.365,9.365,0,0,0,4.555.947c2.842,0,3.925-1.2,3.925-3.044,0-1.759-1.308-2.526-4.037-3.022l-3.992-.722.09-6.946h9.517v1.85H567.15l-.068,3.585,2.661.474C573.374,274.307,575.133,275.5,575.133,278.344Z"/></svg>