<?xml version="1.0" encoding="utf-8"?>
<!-- Generator: Adobe Illustrator 22.0.1, SVG Export Plug-In . SVG Version: 6.00 Build 0)  -->
<svg version="1.1" id="Livello_1" xmlns="http://www.w3.org/2000/svg" xmlns:xlink="http://www.w3.org/1999/xlink" x="0px" y="0px"
	 viewBox="0 0 296 77" style="enable-background:new 0 0 296 77;" xml:space="preserve">
<style type="text/css">
	.st0{fill:#1858A8;}
	.st1{fill:#FF3366;}
</style>
<title>manuale_ill_nuove</title>
<g id="solo_testo">
	<path class="st0" d="M1.1,46.7c0,0.1,0.1,0.1,0.1,0.2c0.1,0.2,0.1,0.3,0.1,0.5c0,0.3,0,0.7,0,1c0,0.1,0,0.2,0,0.3
		c0,0.2,0.1,0.4,0.1,0.5c0,0.2,0.1,0.4,0.2,0.6c0.2,0.3,0.3,0.7,0.3,1c0,0.3,0.1,0.6,0.3,0.8c0.1,0,0.3,0,0.4,0
		c0.8,0,1.4,0.6,1.5,1.4c0,0.2,0,0.3,0.1,0.5c0.1,0.2,0.2,0.5,0.1,0.7c0,0.1,0,0.3,0.1,0.4c0.1,0.1,0.1,0.1,0.1,0.2
		c0.1,0.4,0.3,0.7,0.6,1c0.3,0,0.6,0.1,0.8,0.4c0,0,0,0.1,0.1,0.1c0.3,0.1,0.5,0.2,0.6,0.5C6.7,56.9,6.7,57,6.8,57
		c0.4,0.2,0.7,0.4,1.1,0.6c0,0,0,0.2,0.1,0.2c0.3,0.2,0.6,0.5,1,0.5c0.2,0,0.3,0,0.4,0.2c0.3,0.4,0.8,0.6,1.3,0.6
		c0.3,0,0.6,0.2,0.9,0.4c0.3,0.2,0.7,0.4,1.1,0.4c0.3,0,0.5,0.1,0.8,0.2c0.2,0.1,0.4,0.1,0.7,0.1c0.2,0.1,0.5,0.2,0.7,0.2
		c0.1,0,0.2,0,0.3,0c0.1,0,0.2,0,0.4,0c0.2,0,0.4,0,0.6,0.1c0.2,0.1,0.4,0.1,0.6,0.1c0.3,0,0.6,0.1,0.8,0.3c0.3,0.2,0.5,0.4,0.8,0.6
		c0.3,0.1,0.6,0.4,0.6,0.7c0,0.1,0.1,0.2,0.3,0.2c0.1,0,0.1,0,0.2-0.1c0.3-0.2,0.7-0.3,1.1-0.2c0.2,0,0.3,0,0.5,0
		c0.3-0.1,0.6-0.1,0.9-0.2c0.3-0.1,0.7-0.1,1,0c0.2,0.1,0.4,0,0.5,0.1c0.3,0.2,0.7,0.2,1.1,0.1c0.1,0,0.2,0,0.3,0
		c0.2,0,0.4,0,0.6-0.1c0.5-0.2,1-0.4,1.6-0.5c0.1,0,0.2-0.1,0.4-0.1c0.2-0.1,0.3-0.1,0.5-0.2c0,0,0,0,0,0c-0.1,0.1-0.2,0.1-0.3,0.2
		c0,0-0.1,0.1-0.1,0.1c0.2,0,0.3,0,0.5-0.1c0.1,0,0.1,0,0.2,0c0,0.2,0.1,0.5,0.2,0.7c0.2-0.1,0.4-0.3,0.5-0.4c0.1,0,0.1-0.1,0.2-0.1
		c0.3-0.1,0.6-0.2,0.8-0.2c0.1,0,0.2-0.1,0.2-0.1c0.4-0.1,0.7-0.2,1.1-0.1c0.2,0,0.3,0,0.5,0.1c0.6,0.1,1.3,0.1,1.9,0.1
		c0,0,0,0,0.1,0c0.6,0.4,1.3,0.6,2.1,0.5c0.4,0,0.8-0.2,1.2-0.2c0.4,0,0.8,0.2,1.3,0.2c1,0.1,2,0.1,2.9,0.1c0.4,0,0.8,0,1.2,0.1
		c0.4,0.1,0.8,0.1,1.2,0c0.7-0.1,1.3-0.1,2-0.1c0.3,0,0.6,0,0.9-0.1c0.8-0.2,1.7,0,2.4,0.5c0.2,0.2,0.4,0.4,0.7,0.6
		c0.5,0.1,1,0,1.5-0.3c0.6-0.3,1.3-0.4,1.9-0.2c0.7,0.2,1.3,0.2,2,0.1c0.4-0.1,0.9-0.1,1.3,0.1c0.1,0,0.1,0,0.2,0
		c0.6-0.2,1.2,0,1.6,0.4c0.2,0.1,0.3,0.2,0.5,0.3c0.7-0.3,1.5-0.5,2.2-0.6c0.3,0,0.5,0,0.7,0.2c0.7,0.4,1.5,0.5,2.3,0.4
		c0.6-0.1,1.1-0.2,1.7-0.2c1-0.1,2-0.1,3-0.1c0.3-0.1,0.5,0,0.7,0.2c0.2,0.2,0.5,0.3,0.8,0.2c0.1,0,0.3-0.1,0.4-0.1
		c0.4-0.1,0.9-0.1,1.4,0.1c0.6,0.1,1.2,0.2,1.8,0.2c0.3-0.1,0.6-0.1,0.9,0.1c0.1,0,0.2,0,0.3,0c0.3-0.1,0.7-0.1,1,0
		c0.8,0.1,1.6,0.4,2.4,0c0,0,0.1,0,0.2,0c0.9,0.1,1.7,0,2.6,0.1c0.7,0.1,1.4,0.1,2.1,0.1c0.1,0,0.3,0,0.4,0.1c0.6,0.2,1.3,0.2,1.9,0
		l0.5,0.4c0.3-0.1,0.6-0.1,0.9-0.1c0.8,0.1,1.6,0.2,2.4,0.3c0.3,0.1,0.6,0,0.9-0.2c0.1-0.1,0.3-0.1,0.4-0.1c0.5,0,0.9,0.1,1.4,0.1
		c0.2,0,0.4,0,0.6,0c0,0,0.1,0,0.1,0c0.3-0.1,0.6,0,0.8,0c0.5,0.1,1,0.1,1.5,0.1c0.4,0,0.9,0,1.3-0.1c0.2,0,0.4,0,0.6,0.1
		c0.3,0.1,0.6,0.1,0.8,0.1c0.5-0.1,1,0,1.6,0c0.4,0.2,0.9,0.3,1.4,0.2c0.2,0,0.4,0,0.6,0.1c0.7,0.3,1.4,0.3,2.1,0.2
		c0.7-0.1,1.4,0.2,2.1,0c0.1,0,0.2,0,0.2,0.1c0.4,0.2,0.8,0.3,1.3,0.1c0.8-0.1,1.5,0,2.3-0.1c0.1,0,0.2,0,0.2,0.1
		c0.4,0.2,0.8,0.3,1.3,0.2c0.5-0.1,1.1,0,1.6,0.1c0.4,0.3,1,0.3,1.4,0.1c0.1,0,0.2,0,0.3,0c0.5,0,1,0.1,1.5,0.1s1-0.1,1.4,0.1
		c0,0,0.1,0,0.2,0c0.4-0.1,0.8-0.1,1.1,0c0.2,0.1,0.4,0,0.6-0.1c0.3-0.2,0.7-0.3,1.1-0.1c0.6,0.2,1.2,0.3,1.8,0.2c0,0,0.1,0,0.1,0
		c0.2,0,0.4,0,0.5,0c0.1,0,0.2,0,0.3,0.1c0.4,0.1,0.8,0.2,1.2,0.3c0.1,0,0.2-0.1,0.2-0.1c0.1,0,0.2-0.1,0.3-0.2
		c0.2-0.2,0.4-0.2,0.6-0.2c0.3,0,0.7,0,1,0c0.2,0,0.4,0,0.6,0c0,0,0-0.1,0-0.1l0,0c1-0.2,2-0.3,2.9-0.4c0.3-0.1,0.5,0,0.7,0.2
		c0.2,0.2,0.5,0.2,0.8,0.1c0.1,0,0.3-0.1,0.4-0.2c0.2-0.1,0.3-0.1,0.5-0.1c0.1-0.1,0.1-0.1,0.2-0.2c0.1-0.1,0.1-0.1,0.2-0.2
		c0.2-0.1,0.5-0.3,0.6-0.5c0.1-0.1,0.1-0.1,0.2-0.2c0.7,0.2,1.4,0.2,2,0c0.7-0.2,1.4,0.1,2.1-0.2c0.1,0,0.2,0,0.2,0.1
		c0.4,0.2,0.9,0.2,1.3,0.1c0.7-0.2,1.5-0.1,2.2-0.2c0.1,0,0.2,0,0.3,0c0.4,0.2,0.8,0.2,1.3,0.1c0.5-0.1,1-0.1,1.6,0
		c0.4,0.2,1,0.2,1.4,0c0.1,0,0.2,0,0.3,0c0.5,0,1,0,1.5,0s1-0.2,1.4,0.1c0,0,0.1,0,0.2,0c0.4-0.1,0.7-0.2,1.1-0.1
		c0.2,0,0.4,0,0.6-0.1c0.3-0.2,0.7-0.3,1.1-0.1c0.6,0.2,1.2,0.2,1.8,0.1c0.3,0,0.6-0.1,0.9-0.1c0.1,0.2,0.3,0.3,0.5,0.3
		c0.3,0,0.7,0,1-0.1c0.4-0.1,0.9-0.1,1.3-0.2c0.2,0,0.4,0,0.6,0c0.3,0.1,0.6,0.1,0.8,0c0.5-0.1,1-0.1,1.6-0.2c0.5,0.2,1,0.2,1.4,0.1
		c0.2,0,0.4,0,0.6,0c0.5,0.2,1.1,0.2,1.7,0.1l0.1,0c0.1,0,0.3-0.1,0.4-0.1c0.7-0.2,1.4,0.1,2.1-0.3c0.1,0,0.1,0,0.2,0
		c0,0,0.1-0.1,0.1-0.1c0.3-0.2,0.6-0.3,0.9-0.2c0.2,0,0.4,0,0.6,0c0.1,0,0.3-0.1,0.3,0c0.2,0.1,0.4,0.1,0.6,0.1
		c0.2-0.1,0.4,0,0.6,0.1c0.1,0,0.2,0,0.3,0c0.3-0.2,0.6-0.3,0.9-0.4c0.1,0,0.2-0.1,0.2-0.2c0.1-0.1,0.2-0.2,0.2-0.3
		c0.1-0.1,0.2-0.1,0.2-0.1c0.4,0,0.7-0.2,1.1-0.3c0.2-0.2,0.4-0.1,0.6-0.1c0.4,0,0.8-0.1,1.1-0.3c0.3-0.2,0.6-0.4,0.8-0.6
		c0.2-0.2,0.5-0.4,0.7-0.5c0.1-0.1,0.2-0.1,0.3-0.1c0.3,0.1,0.5-0.1,0.8-0.1c0,0,0.1,0,0.1-0.1c0.2-0.3,0.6-0.2,0.8-0.5
		c0,0,0.1,0,0.2-0.1c0.1,0,0.2-0.1,0.3-0.1c0.2-0.1,0.4-0.2,0.6-0.3c0.2-0.1,0.4-0.2,0.6-0.3c0.1-0.1,0.2-0.1,0.4-0.1
		c0.2,0.1,0.4,0,0.6-0.2c0.2-0.2,0.6-0.3,0.9-0.1c0.1,0,0.3,0.1,0.4,0.1c0.3,0,0.6-0.2,0.7-0.6c0-0.1,0-0.1,0-0.2
		c0-0.2,0.1-0.3,0.3-0.4c0.2,0,0.2-0.2,0.2-0.3c0-0.2,0.1-0.5,0.2-0.7c0-0.1,0.1-0.2,0.1-0.2c0.3-0.2,0.6-0.4,0.9-0.6
		c0.1-0.1,0.2-0.1,0.2-0.2c0.1-0.1,0.2-0.2,0.2-0.2c0.1,0,0.1-0.1,0.2-0.2c0.3-0.5,0.8-0.9,1.2-1.2c0.2-0.1,0.3-0.3,0.5-0.4
		c0.3-0.4,0.6-0.8,1-1.2c0.1-0.1,0.1-0.1,0.2-0.2c0,0,0.1-0.1,0.1-0.1c0.1-0.3,0.3-0.4,0.5-0.5c0.2-0.1,0.2-0.3,0.3-0.4
		c0.2-0.1,0.3-0.2,0.4-0.3c0.1-0.1,0.1-0.2,0.2-0.2c0.2,0.2,0.4,0.3,0.6,0.4c0.4,0.3,0.4,0.3,0.6-0.1c0,0,0-0.1,0-0.1
		c0.2-0.3,0.2-0.6,0.1-0.9c0-0.1,0-0.3,0-0.4c0.2-0.4,0.3-0.9,0.3-1.3c0,0,0-0.1,0-0.1c0,0,0,0,0-0.1c0.1-0.3,0.1-0.6,0.1-0.8
		c0-0.1,0-0.2,0.1-0.3c0.2-0.3,0.5-0.5,0.8-0.7c0.2-0.2,0.4-0.3,0.5-0.5c0.1-0.2,0.1-0.5,0.2-0.7c0-0.1,0-0.1,0-0.2
		c-0.2-0.2-0.4-0.5-0.8-0.5c-0.1,0-0.1,0-0.1-0.1c0,0,0.1-0.1,0.1-0.1c0.2-0.1,0.3-0.3,0.2-0.5c0-0.3,0-0.5,0.2-0.8
		c0,0.1,0.1,0.2,0.1,0.2c0.1,0.1,0.1,0.2,0.1,0.3c0,0.1,0.1,0.2,0.1,0.3c0,0,0,0.1,0.1,0.1c0-0.8,0-1.5,0-2.3c0-0.3,0-0.6,0.1-0.9
		c0.3-1.2,0.3-2.4,0-3.5c-0.1,0-0.3-0.1-0.4-0.2l0,0c0.1-0.1,0.1-0.3,0.1-0.4l0,0c0,0,0,0,0-0.1c0-0.2,0.1-0.3,0.3-0.4
		c0.1,0,0.2-0.2,0.2-0.3c0-0.3-0.1-0.5-0.2-0.7c-0.1-0.1-0.1-0.3-0.2-0.4l0,0c-0.1-0.2-0.2-0.5-0.4-0.7c0-0.1-0.1-0.2-0.1-0.3
		c-0.1-0.2-0.2-0.5-0.2-0.7c0-0.2-0.1-0.4-0.2-0.6c-0.1-0.2-0.2-0.4-0.2-0.6c0-0.2,0-0.5,0.1-0.7c0-0.1,0.1-0.1,0.1-0.2
		c0-0.1,0.1-0.2,0.2-0.2c0.2,0,0.3-0.2,0.3-0.3c0.1-0.3,0-0.7-0.2-0.9c-0.1-0.2-0.2-0.3-0.3-0.5c-0.1-0.1-0.2-0.3-0.2-0.4
		c0-0.1-0.1-0.3-0.2-0.4c-0.3-0.3-0.4-0.8-0.5-1.2c0-0.3-0.1-0.5-0.3-0.7c-0.2-0.3-0.4-0.5-0.5-0.8c0-0.1,0-0.1-0.1-0.2
		c0-0.1,0-0.1,0-0.2c-0.1-0.3-0.1-0.5-0.2-0.8c-0.1-0.2-0.2-0.4-0.3-0.6c-0.2-0.4-0.3-0.7-0.5-1.1c0,0,0-0.1-0.1-0.1
		c-0.1-0.2-0.2-0.4-0.3-0.6c0-0.1-0.1-0.1-0.1-0.2c0-0.1-0.1-0.1-0.1-0.2c-0.1-0.2-0.2-0.4-0.4-0.6c-0.1-0.1-0.1-0.2-0.2-0.2
		c-0.2-0.2-0.4-0.4-0.5-0.5c-0.2-0.2-0.4-0.3-0.6-0.5c-0.1,0-0.1-0.1-0.2-0.2c-0.1-0.2-0.2-0.3-0.4-0.3c-0.2-0.1-0.3-0.1-0.5-0.2
		c-0.1-0.1-0.2-0.1-0.3-0.2c-0.1-0.1-0.2-0.1-0.3-0.2c-0.2-0.2-0.4-0.4-0.5-0.7c-0.1-0.1-0.2-0.3-0.2-0.4c0-0.1-0.1-0.1-0.1-0.1
		c-0.1-0.1-0.1-0.1-0.2-0.2c-0.2-0.1-0.4-0.1-0.6-0.2c-0.1,0-0.2-0.1-0.3-0.2c-0.1-0.2-0.2-0.3-0.3-0.4c-0.1-0.2-0.2-0.3-0.4-0.4
		c-0.1,0-0.2-0.1-0.2-0.2c0-0.1-0.1-0.3-0.2-0.4c-0.1-0.1-0.2-0.3-0.3-0.4c-0.1-0.3-0.5-0.4-0.7-0.6c0,0-0.1,0-0.1,0
		c-0.3,0-0.5-0.1-0.7-0.3c0,0,0-0.1-0.1-0.1c0,0-0.1-0.1-0.1-0.1c-0.2-0.1-0.5-0.1-0.7-0.2c-0.1,0-0.2-0.1-0.3-0.1
		c-0.3-0.2-0.6-0.2-0.9-0.1c0,0-0.1,0-0.1,0h0c-0.2,0-0.3,0-0.4-0.1c-0.2-0.1-0.3-0.1-0.5-0.1c-0.1,0-0.3-0.1-0.4-0.2
		c-0.1-0.1-0.3-0.2-0.4-0.1c-0.2,0-0.4,0-0.5-0.1c-0.1-0.1-0.2-0.1-0.4,0c-0.1,0-0.2,0.1-0.3,0.1c-0.2,0.1-0.4,0-0.6-0.1
		c-0.1-0.1-0.2-0.1-0.3-0.2c-0.1,0-0.1-0.1-0.2-0.1c-0.1-0.1-0.2-0.1-0.3-0.1c0,0-0.1,0-0.1,0c-0.1-0.1-0.2-0.1-0.3,0
		c-0.3,0.1-0.6,0.1-0.9,0c-0.3-0.1-0.5-0.1-0.8-0.1c-0.1,0-0.2,0-0.2,0c-0.1,0-0.2,0-0.3,0c-0.1,0-0.3,0-0.4-0.1
		c-0.1-0.1-0.3-0.1-0.4-0.2c-0.2-0.1-0.4-0.2-0.6-0.2c-0.1,0-0.2,0-0.3-0.1c-0.2-0.1-0.3-0.2-0.5-0.2c0,0-0.1,0-0.1,0
		c-0.2,0-0.3-0.1-0.5-0.2c-0.1,0-0.2-0.1-0.3,0c-0.1,0-0.1,0-0.2,0c-0.2,0.1-0.3,0.2-0.4,0.3c-0.3,0.1-0.6,0.1-0.8,0.2
		c-0.2,0-0.4,0-0.6-0.1c0,0-0.1,0-0.1,0c-0.1,0-0.3,0-0.4,0c-0.1,0-0.1,0-0.2,0.1c0,0,0,0,0,0c-0.2,0.1-0.4,0.2-0.6,0.1
		c-0.3,0-0.5,0-0.8,0.1l-0.6,0.1c-0.3,0.1-0.5,0-0.7-0.2c-0.2-0.2-0.5-0.3-0.8-0.2c-0.1,0-0.3,0.1-0.4,0.1c-0.4,0.2-0.9,0.2-1.4,0
		c-0.6-0.1-1.2-0.1-1.8-0.2c-0.3,0.2-0.6,0.1-0.9,0c-0.1,0-0.2,0-0.2,0c-0.3,0.1-0.7,0.1-1,0.1c-0.8,0-1.6-0.4-2.4,0.1
		c0,0-0.1,0-0.2,0c-0.9,0-1.7,0.1-2.6,0c-0.7,0-1.4,0-2.1,0c-0.1,0-0.3,0-0.4-0.1c-0.6-0.2-1.3-0.2-1.9,0.1l-0.5-0.4
		c-0.3,0.1-0.6,0.1-0.9,0.1c-0.8,0-1.6-0.1-2.4-0.2c-0.3-0.1-0.6,0-0.9,0.2c-0.1,0.1-0.3,0.1-0.4,0.1c-0.5,0-0.9-0.1-1.4-0.1
		c-0.2,0-0.4,0-0.6,0c-0.3,0.1-0.6,0.1-0.9,0c-0.5-0.1-1-0.1-1.5,0c-0.3,0-0.5,0.1-0.8,0.1c-1.5-0.1-2.9-0.2-4.4-0.2
		c-0.5,0-1.1,0-1.6,0c-0.5-0.1-1.1-0.1-1.6,0.1h0c-0.6,0.1-1.1,0-1.7-0.1c-0.3-0.1-0.6-0.1-0.8-0.1c-0.1,0-0.1,0-0.2-0.1
		c-0.3-0.1-0.5-0.2-0.7-0.5c-0.2,0-0.3,0-0.4,0c-0.1,0-0.1,0-0.2-0.1c0,0,0,0-0.1,0.1c-0.1,0.1-0.3,0.1-0.4,0.1
		c-0.2,0.2-0.4,0.3-0.7,0.4c-0.8,0.2-1.6,0.2-2.4,0.1c-0.2,0-0.5,0-0.7,0.1c-0.9,0.3-1.8,0.4-2.8,0.1c-0.1,0-0.3,0-0.4,0
		c-1.5,0.1-3.1,0.1-4.6,0.1c-1.2,0-2.3-0.2-3.5-0.5c-0.4-0.2-0.8-0.1-1.2,0.1c-0.4,0.3-0.9,0.4-1.5,0.5c-1.3,0.1-2.6-0.1-3.9-0.5
		c-0.1,0-0.2,0-0.3,0l-0.7,0.9c-0.7-0.7-1.5-0.4-2.3-0.4c-0.3,0-0.6,0.1-0.8,0c-2.1-0.1-4.1,0-6.2,0.2c-0.9,0.1-1.8,0.1-2.6-0.2
		c-1.1-0.5-2.4-0.5-3.6-0.1C85.8,12,85.4,12,85,12c-1.4,0-2.8,0.2-4.2,0.6c-0.6,0.2-1.3,0.2-1.9,0.1c-0.7-0.1-1.5-0.3-2.2-0.4
		c-0.7-0.1-1.4-0.2-2.1-0.2c-0.2,0-0.4-0.1-0.5-0.2c-0.5-0.3-1.1-0.4-1.6-0.2c-0.7,0.2-1.5,0.2-2.2,0c-0.8,0-1.5-0.1-2.2-0.3
		c-0.1-0.1-0.3,0-0.4,0c-0.4,0.2-0.9,0.2-1.3,0c-0.5-0.1-1.1-0.2-1.6-0.3c-0.1,0-0.2,0.1-0.3,0.1c-0.5,0.5-1.3,0.8-2.1,0.6
		c-1.4-0.2-2.9-0.3-4.2-0.4c-0.2,0.2-0.2,0.4-0.4,0.4c-0.2,0.1-0.5-0.1-0.7,0c-0.5,0.3-1.1,0.2-1.6,0c-0.1-0.1-0.3-0.1-0.4,0
		c-0.7,0.5-1.6,0.4-2.4,0.8c-0.4,0.2-0.8,0.2-1.2,0.2c-0.8-0.2-1.7-0.1-2.5,0.1c-0.4,0.2-0.9,0.1-1.4-0.1c-0.3-0.2-0.7-0.2-1.1,0
		c-0.8,0.3-1.6,0.3-2.4,0.2c-1.9-0.2-3.7-0.2-5.6,0.1c-0.5,0.5-1,1-1.5,1.4c-0.4,0.1-0.7,0.3-1,0.6c-0.2-0.1-0.3-0.2-0.4-0.1
		c-0.8,0.2-1.7,0.2-2.5,0.3c-0.4,0-0.9,0-1.3,0.1c-0.5,0.2-0.8-0.3-1.2-0.3c-0.3,0-0.5-0.1-0.8-0.1l-0.3,0.4c-1-0.7-2.1-0.1-3.1-0.5
		c0,0-0.1,0-0.2,0c-0.4,0-0.9,0.1-1.4,0.1c-0.2,0.3-0.7,0.4-1.1,0.3c-0.1,0-0.2,0-0.3,0.1c-0.5,0.3-1,0.5-1.5,0.7
		c-0.1,0-0.1,0.1-0.2,0.2c-0.1,0.2-0.4,0.3-0.6,0.2c-0.3,0-0.5,0-0.7,0.2c-0.2,0.1-0.3,0.2-0.5,0.3c-0.6,0.3-1.1,0.8-1.3,1.4
		c0,0.1-0.2,0.2-0.3,0.3l0,0c0,0.2,0,0.4-0.1,0.5c-0.3,0.3-0.6,0.6-0.9,1c-0.1,0.2-0.1,0.4-0.1,0.6c-0.1,0-0.1,0.1-0.2,0.1
		c-0.2,0.2-0.5,0.3-0.8,0.4c-0.2,0.1-0.5,0.3-0.6,0.5c-0.3,0.4-0.6,0.7-1.1,0.9c-0.2,0.1-0.3,0.1-0.5,0.3c-0.3,0.3-0.7,0.5-1,0.8
		c-0.2,0.2-0.5,0.4-0.7,0.5c-0.3,0.1-0.6,0.4-0.9,0.5c-0.4,0.3-0.9,0.5-1.4,0.5c-0.1,0-0.1,0-0.1,0.1c-0.6,0.3-1.2,0.6-1.8,0.7
		c-0.7,0.3-1.4,0.8-1.9,1.4c0,0.1-0.1,0.1-0.2,0.1c-0.4,0.4-0.7,0.9-1.2,1.3c-0.1,0.2-0.3,0.3-0.4,0.5c-0.1,0.1-0.1,0.2-0.2,0.3
		c-0.2,0.4-0.4,0.7-0.7,1c-0.1,0-0.1,0.1-0.1,0.2c-0.1,0.2-0.2,0.5-0.3,0.7C3,32,2.8,32.2,2.6,32.5c-0.1,0.2-0.2,0.4-0.3,0.6
		c-0.1,0.8-0.5,1.5-0.9,2.1c-0.2,0.2-0.2,0.5-0.2,0.7c0,0.3,0,0.7-0.2,1c-0.1,0.3-0.1,0.5-0.1,0.8c0,0.5-0.1,1-0.2,1.5
		C0.8,41.7,1,44.2,1.1,46.7z"/>
	<path class="st1" d="M35.7,47.8c-0.3,0.1-0.6,0.1-0.9,0.3c-0.2,0.1-0.3,0.1-0.5,0.1c-0.2,0-0.4,0.1-0.6,0.2
		c-0.1,0.1-0.3,0.1-0.5,0.1c-0.5-0.1-1-0.1-1.5,0c-0.1,0-0.3,0-0.4,0c-0.2,0-0.4,0-0.6,0c-0.2,0-0.3,0-0.5,0c0,0-0.1,0-0.1,0
		c-0.2-0.1-0.5-0.1-0.8-0.1c-0.1,0-0.1,0-0.2,0c-0.1,0-0.3,0-0.4-0.1c-0.3-0.1-0.7-0.2-1.1-0.3c0,0-0.1,0-0.1-0.1
		c-0.5-0.1-0.9-0.4-1.3-0.7c-0.3-0.3-0.6-0.6-0.9-0.8c0,0-0.1,0-0.1-0.1c-0.1-0.3-0.4-0.5-0.6-0.7c-0.2-0.1-0.4-0.2-0.5-0.4
		c-0.1-0.1-0.3-0.2-0.5-0.3c-0.2-0.1-0.5-0.2-0.7-0.4c-0.1-0.1-0.2-0.1-0.3-0.2c-0.2-0.2-0.5-0.3-0.8-0.4c-0.2,0-0.3-0.1-0.4-0.2
		c-0.1-0.1-0.3-0.2-0.5-0.3c-0.2-0.1-0.3-0.3-0.4-0.5c0,0,0-0.1,0-0.1c-0.2-0.2-0.4-0.5-0.6-0.7c-0.1,0-0.1-0.1-0.1-0.2
		c-0.1-0.1-0.2-0.2-0.2-0.3c0,0,0-0.1-0.1-0.1c0-0.2-0.2-0.4-0.2-0.6c0-0.1-0.1-0.2-0.1-0.4c0,0,0-0.1,0-0.1c0.2-0.3,0.1-0.7-0.1-1
		c0-0.1-0.1-0.1-0.1-0.2c-0.1-0.2-0.2-0.5-0.3-0.7c-0.1-0.2-0.1-0.5-0.1-0.7c0.1-0.4-0.1-0.7-0.3-1c-0.1-0.1-0.2-0.1-0.2-0.2
		c-0.1-0.1-0.2-0.3-0.2-0.4c0-0.3,0-0.6-0.1-0.9c0-0.1,0-0.2,0-0.2c0.2-0.2,0.1-0.5,0.1-0.8c0-0.1-0.1-0.2-0.1-0.3
		c0.1-0.1,0.1-0.2,0.1-0.3c0-0.1,0-0.2,0.1-0.2c0.1-0.1,0.1-0.2,0.2-0.3c0.1-0.3,0.2-0.5,0.3-0.8c0.2-0.3,0.1-0.6,0.3-0.9
		c0-0.1,0-0.1,0-0.2c-0.1-0.1,0-0.3,0.1-0.4c0.2-0.1,0.3-0.3,0.4-0.5c0-0.1,0.1-0.2,0.1-0.3c0.1-0.2,0.1-0.3,0.1-0.5c0,0,0,0,0,0
		c0-0.2,0.1-0.3,0.1-0.4c0-0.1,0-0.3,0-0.4c0.1-0.2,0.2-0.4,0.4-0.5c0.2-0.1,0.3-0.3,0.5-0.5c0.1-0.1,0.2-0.2,0.3-0.3
		c0,0,0.1-0.1,0.1-0.1c0.2,0,0.3-0.2,0.4-0.3c0,0,0.1-0.1,0.1-0.1c0.2,0,0.4-0.2,0.4-0.4c0.2-0.3,0.3-0.7,0.5-1
		c0-0.1,0.1-0.1,0.2-0.2c0.2-0.1,0.4-0.3,0.6-0.5c0.1-0.1,0.2-0.2,0.4-0.2c0.1-0.1,0.2-0.1,0.3-0.3c0,0,0.1-0.1,0.1-0.1
		c0.3-0.2,0.6-0.4,0.9-0.6c0.1,0,0.1-0.1,0.2-0.1c0.1,0,0.1-0.1,0.2-0.1c0.1-0.2,0.3-0.2,0.5-0.3c0.1,0,0.2-0.1,0.2-0.2
		c0.1-0.1,0.2-0.2,0.4-0.2c0.3-0.1,0.5-0.1,0.8-0.2c0.1,0,0.2-0.1,0.3-0.2c0.3-0.2,0.5-0.4,0.9-0.5c0.1,0,0.1,0,0.2,0
		c0.2,0,0.4,0,0.7,0c0.2,0,0.4,0,0.6,0.1c0.1,0.1,0.1,0.1,0.2,0c0.2,0,0.4-0.1,0.5-0.2c0.2-0.1,0.5-0.1,0.8-0.1
		c0.3,0.1,0.6,0.1,0.9,0.1c0.2,0,0.4,0,0.5,0.1c0.2,0.1,0.3,0.1,0.5,0.2c0.2,0,0.5,0,0.7,0.1c0.1,0,0.3,0,0.4-0.1
		c0.2,0.1,0.5,0.1,0.7,0l0-0.1c0.3,0.1,0.5,0.2,0.8,0.1c0.2,0,0.3,0,0.5,0c0.2,0.1,0.5,0.1,0.7,0.1c0,0,0.1,0,0.1,0
		c0.1,0.1,0.2,0.1,0.3,0.2c0.1,0,0.2,0.1,0.3,0.1c0.1,0.1,0.2,0.1,0.4,0.1c0.1,0.1,0.1,0.2,0.1,0.3c0.1,0.1,0.2,0.3,0.3,0.3
		c0.2,0.1,0.3,0.3,0.3,0.5c0,0.2,0.1,0.3,0.2,0.4c0,0.1,0.1,0.1,0.1,0.2c0,0,0.1,0.1,0.1,0.1c0.2,0.1,0.3,0.2,0.4,0.4
		c0,0,0.1,0.1,0.1,0.1c0.1,0,0.3,0.1,0.3,0.3c0.1,0.1,0.1,0.2,0.2,0.3c0.2,0.1,0.3,0.3,0.4,0.5c0.1,0.2,0.2,0.3,0.4,0.5
		c0.1,0.1,0.1,0.1,0.2,0.2c0.2,0.2,0.5,0.5,0.7,0.8c0.1,0.1,0.2,0.2,0.2,0.3c0,0.1,0.1,0.1,0.1,0.2c0.2,0.2,0.2,0.4,0.2,0.6
		c0,0.1,0.1,0.2,0.1,0.3c0,0.2,0.1,0.4,0.2,0.6c0.1,0.2,0.2,0.3,0.3,0.5c0.1,0.1,0.1,0.2,0.1,0.3c0,0.2,0.2,0.5,0.4,0.6
		c0.1,0,0.1,0.1,0.1,0.2c0,0,0,0.1-0.1,0.1c-0.2,0.1-0.3,0.3-0.2,0.6c0,0.2,0,0.4-0.1,0.6c0,0.2,0,0.4,0.1,0.6
		c0.1,0.1,0.1,0.2,0.1,0.4c0,0.1,0,0.3,0.1,0.4c0,0.1,0.1,0.1,0.1,0.2c0,0,0.1,0.1,0.1,0.2c0,0.2,0,0.3,0,0.5c0,0.1,0.1,0.3,0.1,0.4
		c0,0.2,0,0.3,0.1,0.5c0.1,0.2,0.1,0.5,0,0.7c-0.1,0.2-0.1,0.4,0,0.6c0.1,0.3,0.1,0.6,0,0.9c0,0.1,0,0.2,0,0.3c0.1,0.2,0,0.5,0,0.7
		c0,0-0.1,0.1-0.1,0.1c0,0.3,0,0.5,0,0.8c0,0.1,0,0.1,0,0.2c-0.1,0.1-0.1,0.3-0.1,0.5c0,0,0,0,0,0.1c-0.2,0.2-0.1,0.4,0,0.6
		c-0.1,0.2-0.2,0.4-0.4,0.6c0,0-0.1,0.1-0.1,0.1c0,0.1-0.1,0.1-0.2,0.1c-0.2,0-0.3,0.1-0.4,0.3c-0.1,0.1-0.1,0.1-0.2,0.2
		c-0.4,0.2-0.6,0.8-0.4,1.2c0,0.1,0.1,0.1,0.1,0.2c-0.1,0.2-0.2,0.3-0.4,0.4c-0.2,0.1-0.4,0.3-0.5,0.4c-0.1,0.1-0.2,0.2-0.3,0.3
		c-0.1,0.1-0.2,0.1-0.3,0.2c0,0-0.1,0.1-0.1,0.1c-0.2,0.1-0.4,0.1-0.6,0.3c-0.1,0.1-0.3,0.2-0.3,0.3L35.7,47.8z"/>
	<path class="st1" d="M79.3,47.8c-0.3,0.1-0.6,0.1-0.9,0.3c-0.2,0.1-0.3,0.1-0.5,0.1c-0.2,0-0.4,0.1-0.6,0.2
		c-0.1,0.1-0.3,0.1-0.5,0.1c-0.5-0.1-1-0.1-1.5,0c-0.1,0-0.3,0-0.4,0c-0.2,0-0.4,0-0.6,0c-0.2,0-0.3,0-0.5,0c0,0-0.1,0-0.1,0
		c-0.2-0.1-0.5-0.1-0.8-0.1c-0.1,0-0.1,0-0.2,0c-0.1,0-0.3,0-0.4-0.1c-0.3-0.1-0.7-0.2-1.1-0.3c0,0-0.1,0-0.1-0.1
		c-0.5-0.1-0.9-0.4-1.3-0.7c-0.3-0.3-0.6-0.6-0.9-0.8c0,0-0.1,0-0.1-0.1c-0.1-0.3-0.4-0.5-0.6-0.7c-0.2-0.1-0.4-0.2-0.5-0.4
		c-0.1-0.1-0.3-0.2-0.5-0.3c-0.2-0.1-0.5-0.2-0.7-0.4c-0.1-0.1-0.2-0.1-0.3-0.2c-0.2-0.2-0.5-0.3-0.8-0.4c-0.2,0-0.3-0.1-0.4-0.2
		c-0.1-0.1-0.3-0.2-0.5-0.3c-0.2-0.1-0.3-0.3-0.4-0.5c0,0,0-0.1,0-0.1c-0.2-0.2-0.4-0.5-0.6-0.7c-0.1,0-0.1-0.1-0.1-0.2
		c-0.1-0.1-0.2-0.2-0.2-0.3c0,0-0.1-0.1-0.1-0.1c0-0.2-0.2-0.4-0.2-0.6c0-0.1-0.1-0.2-0.1-0.4c0,0,0-0.1,0-0.1
		c0.2-0.3,0.1-0.7-0.1-1c0-0.1-0.1-0.1-0.1-0.2c-0.1-0.2-0.2-0.5-0.3-0.7c-0.1-0.2-0.1-0.5-0.1-0.7c0.1-0.4-0.1-0.7-0.3-1
		c-0.1-0.1-0.2-0.1-0.2-0.2c-0.1-0.1-0.2-0.3-0.2-0.4c0-0.3,0-0.6-0.1-0.9c0-0.1,0-0.2,0-0.2c0.2-0.2,0.1-0.5,0.1-0.8
		c0-0.1-0.1-0.2-0.1-0.3c0.1-0.1,0.1-0.2,0.1-0.3c0-0.1,0-0.2,0.1-0.2c0.1-0.1,0.1-0.2,0.2-0.3c0.1-0.3,0.2-0.5,0.3-0.8
		c0.2-0.3,0.1-0.6,0.3-0.9c0-0.1,0-0.1,0-0.2c-0.1-0.1,0-0.3,0.1-0.4c0.2-0.1,0.3-0.3,0.4-0.5c0-0.1,0.1-0.2,0.1-0.3
		c0.1-0.2,0.1-0.3,0.1-0.5c0,0,0,0,0,0c0-0.2,0.1-0.3,0.1-0.4c0-0.1,0-0.3,0-0.4c0.1-0.2,0.2-0.4,0.4-0.5c0.2-0.1,0.3-0.3,0.5-0.5
		c0.1-0.1,0.2-0.2,0.3-0.3c0,0,0.1-0.1,0.1-0.1c0.2,0,0.3-0.2,0.4-0.3c0,0,0.1-0.1,0.1-0.1c0.2,0,0.4-0.2,0.4-0.4
		c0.2-0.3,0.3-0.7,0.5-1c0-0.1,0.1-0.1,0.2-0.2c0.2-0.1,0.4-0.3,0.6-0.5c0.1-0.1,0.2-0.2,0.4-0.2c0.1-0.1,0.2-0.1,0.3-0.3
		c0,0,0.1-0.1,0.1-0.1c0.3-0.2,0.6-0.4,0.9-0.6c0.1,0,0.1-0.1,0.2-0.1c0.1,0,0.1-0.1,0.2-0.1c0.1-0.2,0.3-0.2,0.5-0.3
		c0.1,0,0.2-0.1,0.2-0.2c0.1-0.1,0.2-0.2,0.4-0.2c0.3-0.1,0.5-0.1,0.8-0.2c0.1,0,0.2-0.1,0.3-0.2c0.2-0.2,0.5-0.4,0.8-0.5
		c0.1,0,0.1,0,0.2,0c0.2,0,0.4,0,0.7,0c0.2,0,0.4,0,0.6,0.1c0.1,0.1,0.1,0.1,0.2,0c0.2,0,0.4-0.1,0.5-0.2c0.2-0.1,0.5-0.1,0.8-0.1
		c0.3,0.1,0.6,0.1,0.9,0.1c0.2,0,0.4,0,0.6,0.1c0.2,0.1,0.3,0.1,0.5,0.2c0.2,0,0.5,0,0.7,0.1c0.1,0,0.3,0,0.4-0.1
		c0.2,0.1,0.5,0.1,0.7,0l0-0.1c0.3,0.1,0.5,0.2,0.8,0.1c0.2,0,0.3,0,0.5,0c0.2,0.1,0.5,0.1,0.7,0.1c0,0,0.1,0,0.1,0
		c0.1,0.1,0.2,0.1,0.3,0.2c0.1,0,0.2,0.1,0.3,0.1c0.1,0.1,0.2,0.1,0.4,0.1c0.1,0.1,0.1,0.2,0.1,0.3c0.1,0.1,0.2,0.3,0.3,0.3
		c0.2,0.1,0.3,0.3,0.3,0.5c0,0.2,0.1,0.3,0.2,0.4c0,0.1,0.1,0.1,0.1,0.2c0,0,0.1,0.1,0.1,0.1c0.2,0.1,0.3,0.2,0.4,0.4
		c0,0,0.1,0.1,0.1,0.1c0.1,0,0.3,0.1,0.3,0.3c0.1,0.1,0.1,0.2,0.2,0.3c0.2,0.1,0.3,0.3,0.4,0.5c0.1,0.2,0.2,0.3,0.4,0.5
		c0.1,0.1,0.1,0.1,0.2,0.2c0.2,0.2,0.5,0.5,0.7,0.8c0.1,0.1,0.2,0.2,0.2,0.3c0,0.1,0.1,0.1,0.1,0.2c0.2,0.2,0.2,0.4,0.2,0.6
		c0,0.1,0.1,0.2,0.1,0.3c0,0.2,0.1,0.4,0.2,0.6c0.1,0.2,0.2,0.3,0.3,0.5c0.1,0.1,0.1,0.2,0.1,0.3c0,0.2,0.2,0.5,0.4,0.6
		c0.1,0,0.1,0.1,0.1,0.2c0,0,0,0.1-0.1,0.1c-0.2,0.1-0.3,0.3-0.2,0.6c0,0.2,0,0.4-0.1,0.6c0,0.2,0,0.4,0.1,0.6
		c0.1,0.1,0.1,0.2,0.1,0.4c0,0.1,0,0.3,0.1,0.4c0,0.1,0.1,0.1,0.1,0.2c0,0,0.1,0.1,0.1,0.2c0,0.2,0,0.3,0,0.5
		c0.1,0.1,0.1,0.3,0.1,0.4c0,0.2,0,0.3,0.1,0.5c0.1,0.2,0.1,0.5,0,0.7c-0.1,0.2-0.1,0.4,0,0.6c0.1,0.3,0.1,0.6,0,0.9
		c0,0.1,0,0.2,0,0.3c0.1,0.2,0,0.5,0,0.7c0,0-0.1,0.1-0.1,0.1c0,0.3,0,0.5,0,0.8c0,0.1,0,0.1,0,0.2c-0.1,0.1-0.1,0.3-0.1,0.5
		c0,0,0,0,0,0.1c-0.2,0.2-0.1,0.4,0,0.6c-0.1,0.2-0.2,0.4-0.4,0.6c0,0-0.1,0.1-0.1,0.1c0,0.1-0.1,0.1-0.2,0.1
		c-0.2,0-0.3,0.1-0.4,0.3c-0.1,0.1-0.1,0.1-0.2,0.2c-0.4,0.2-0.6,0.8-0.4,1.2l0.1,0.2c-0.1,0.2-0.2,0.3-0.4,0.4
		c-0.2,0.1-0.4,0.3-0.5,0.4c-0.1,0.1-0.2,0.2-0.3,0.3c-0.1,0.1-0.2,0.1-0.3,0.2c0,0-0.1,0.1-0.1,0.1c-0.2,0.1-0.4,0.1-0.6,0.3
		c-0.1,0.1-0.3,0.2-0.3,0.3L79.3,47.8z"/>
	<path class="st1" d="M124.9,47.8c-0.3,0.1-0.6,0.1-0.9,0.3c-0.2,0.1-0.3,0.1-0.5,0.1c-0.2,0-0.4,0.1-0.6,0.2
		c-0.1,0.1-0.3,0.1-0.5,0.1c-0.5-0.1-1-0.1-1.5,0c-0.1,0-0.3,0-0.4,0c-0.2,0-0.4,0-0.6,0c-0.2,0-0.3,0-0.5,0c0,0-0.1,0-0.1,0
		c-0.2-0.1-0.5-0.1-0.8-0.1c-0.1,0-0.1,0-0.2,0c-0.1,0-0.3,0-0.4-0.1c-0.3-0.1-0.7-0.2-1.1-0.3c0,0-0.1,0-0.1-0.1
		c-0.5-0.1-0.9-0.4-1.3-0.7c-0.3-0.3-0.6-0.6-0.9-0.8c0,0-0.1,0-0.1-0.1c-0.1-0.3-0.4-0.5-0.6-0.7c-0.2-0.1-0.4-0.2-0.5-0.4
		c-0.1-0.1-0.3-0.2-0.5-0.3c-0.2-0.1-0.5-0.2-0.7-0.4c-0.1-0.1-0.2-0.1-0.3-0.2c-0.2-0.2-0.5-0.3-0.8-0.4c-0.2,0-0.3-0.1-0.4-0.2
		c-0.1-0.1-0.3-0.2-0.5-0.3c-0.2-0.1-0.3-0.3-0.4-0.5c0,0,0-0.1,0-0.1c-0.2-0.2-0.4-0.5-0.6-0.7c-0.1,0-0.1-0.1-0.1-0.2
		c-0.1-0.1-0.2-0.2-0.2-0.3c0,0,0-0.1-0.1-0.1c0-0.2-0.2-0.4-0.2-0.6c0-0.1-0.1-0.2-0.1-0.4c0,0,0-0.1,0-0.1c0.2-0.3,0.1-0.7-0.1-1
		c0-0.1-0.1-0.1-0.1-0.2c-0.1-0.2-0.2-0.5-0.3-0.7c-0.1-0.2-0.1-0.5-0.1-0.7c0.1-0.4-0.1-0.7-0.3-1c-0.1-0.1-0.2-0.1-0.2-0.2
		c-0.1-0.1-0.2-0.3-0.2-0.4c0-0.3,0-0.6-0.1-0.9c0-0.1,0-0.2,0-0.2c0.2-0.2,0.1-0.5,0.1-0.8c0-0.1-0.1-0.2-0.1-0.3
		c0.1-0.1,0.1-0.2,0.1-0.3c0-0.1,0-0.2,0.1-0.2c0.1-0.1,0.1-0.2,0.2-0.3c0.1-0.3,0.2-0.5,0.3-0.8c0.2-0.3,0.1-0.6,0.3-0.9
		c0-0.1,0-0.1,0-0.2c-0.1-0.1,0-0.3,0.1-0.4c0.2-0.1,0.3-0.3,0.4-0.5c0-0.1,0.1-0.2,0.1-0.3c0.1-0.2,0.1-0.3,0.1-0.5c0,0,0,0,0,0
		c0-0.2,0.1-0.3,0.1-0.4c0-0.1,0-0.3,0-0.4c0.1-0.2,0.2-0.4,0.4-0.5c0.2-0.1,0.3-0.3,0.5-0.5c0.1-0.1,0.2-0.2,0.3-0.3
		c0,0,0.1-0.1,0.1-0.1c0.2,0,0.3-0.2,0.4-0.3c0,0,0.1-0.1,0.1-0.1c0.2,0,0.4-0.2,0.4-0.4c0.2-0.3,0.3-0.7,0.5-1
		c0-0.1,0.1-0.1,0.2-0.2c0.2-0.1,0.4-0.3,0.6-0.5c0.1-0.1,0.2-0.2,0.4-0.2c0.1-0.1,0.2-0.1,0.3-0.3c0,0,0.1-0.1,0.1-0.1
		c0.3-0.2,0.6-0.4,0.9-0.6c0.1,0,0.1-0.1,0.2-0.1c0.1,0,0.1-0.1,0.2-0.1c0.1-0.2,0.3-0.2,0.5-0.3c0.1,0,0.2-0.1,0.2-0.2
		c0.1-0.1,0.2-0.2,0.4-0.2c0.3-0.1,0.5-0.1,0.8-0.2c0.1,0,0.2-0.1,0.3-0.2c0.3-0.2,0.5-0.4,0.9-0.5c0.1,0,0.1,0,0.2,0
		c0.2,0,0.4,0,0.7,0c0.2,0,0.4,0,0.6,0.1c0.1,0.1,0.1,0.1,0.2,0c0.2,0,0.4-0.1,0.6-0.2c0.2-0.1,0.5-0.1,0.8-0.1
		c0.3,0.1,0.6,0.1,0.9,0.1c0.2,0,0.4,0,0.6,0.1c0.2,0.1,0.3,0.1,0.5,0.2c0.2,0,0.5,0,0.7,0.1c0.1,0,0.3,0,0.4-0.1
		c0.2,0.1,0.5,0.1,0.7,0l0-0.1c0.3,0.1,0.5,0.2,0.8,0.1c0.2,0,0.3,0,0.5,0c0.2,0.1,0.5,0.1,0.7,0.1c0,0,0.1,0,0.1,0
		c0.1,0.1,0.2,0.1,0.3,0.2c0.1,0,0.2,0.1,0.3,0.1c0.1,0.1,0.2,0.1,0.4,0.1c0.1,0.1,0.1,0.2,0.1,0.3c0.1,0.1,0.2,0.3,0.3,0.3
		c0.2,0.1,0.3,0.3,0.3,0.5c0,0.2,0.1,0.3,0.2,0.4c0,0.1,0.1,0.1,0.1,0.2c0,0,0.1,0.1,0.1,0.1c0.2,0.1,0.3,0.2,0.4,0.4
		c0,0,0.1,0.1,0.1,0.1c0.1,0,0.3,0.1,0.3,0.3c0.1,0.1,0.1,0.2,0.2,0.3c0.2,0.1,0.3,0.3,0.4,0.5c0.1,0.2,0.2,0.3,0.4,0.5
		c0.1,0.1,0.1,0.1,0.2,0.2c0.2,0.2,0.5,0.5,0.7,0.8c0.1,0.1,0.2,0.2,0.2,0.3c0,0.1,0.1,0.1,0.1,0.2c0.2,0.2,0.2,0.4,0.2,0.6
		c0,0.1,0.1,0.2,0.1,0.3c0,0.2,0.1,0.4,0.2,0.6c0.1,0.2,0.2,0.3,0.3,0.5c0.1,0.1,0.1,0.2,0.1,0.3c0,0.2,0.2,0.5,0.4,0.6
		c0.1,0,0.1,0.1,0.1,0.2c0,0,0,0.1-0.1,0.1c-0.2,0.1-0.3,0.3-0.2,0.6c0,0.2,0,0.4-0.1,0.6c0,0.2,0,0.4,0.1,0.6
		c0.1,0.1,0.1,0.2,0.1,0.4c0,0.1,0,0.3,0.1,0.4c0,0.1,0.1,0.1,0.1,0.2c0,0,0.1,0.1,0.1,0.2c0,0.2,0,0.3,0,0.5c0,0.1,0.1,0.3,0.1,0.4
		c0,0.2,0,0.3,0.1,0.5c0.1,0.2,0.1,0.5,0,0.7c-0.1,0.2-0.1,0.4,0,0.6c0.1,0.3,0.1,0.6,0,0.9c0,0.1,0,0.2,0,0.3c0.1,0.2,0,0.5,0,0.7
		c0,0-0.1,0.1-0.1,0.1c0,0.3,0,0.5,0,0.8c0,0.1,0,0.1,0,0.2c-0.1,0.1-0.1,0.3-0.1,0.5c0,0,0,0,0,0.1c-0.2,0.2-0.1,0.4,0,0.6
		c-0.1,0.2-0.2,0.4-0.4,0.6c0,0-0.1,0.1-0.1,0.1c0,0.1-0.1,0.1-0.2,0.1c-0.2,0-0.3,0.1-0.4,0.3c-0.1,0.1-0.1,0.1-0.2,0.2
		c-0.4,0.2-0.6,0.8-0.4,1.2c0,0.1,0.1,0.1,0.1,0.2c-0.1,0.2-0.2,0.3-0.4,0.4c-0.2,0.1-0.4,0.3-0.5,0.4c-0.1,0.1-0.2,0.2-0.3,0.3
		c-0.1,0.1-0.2,0.1-0.3,0.2c0,0-0.1,0.1-0.1,0.1c-0.2,0.1-0.4,0.1-0.6,0.3c-0.1,0.1-0.3,0.2-0.3,0.3L124.9,47.8z"/>
	<path class="st1" d="M171.4,47.8c-0.3,0.1-0.6,0.1-0.9,0.3c-0.2,0.1-0.3,0.1-0.5,0.1c-0.2,0-0.4,0.1-0.6,0.2
		c-0.1,0.1-0.3,0.1-0.5,0.1c-0.5-0.1-1-0.1-1.5,0c-0.1,0-0.3,0-0.4,0c-0.2,0-0.4,0-0.6,0c-0.2,0-0.3,0-0.5,0c0,0-0.1,0-0.1,0
		c-0.2-0.1-0.5-0.1-0.8-0.1c-0.1,0-0.1,0-0.2,0c-0.1,0-0.3,0-0.4-0.1c-0.3-0.1-0.7-0.2-1.1-0.3c0,0-0.1,0-0.1-0.1
		c-0.5-0.1-0.9-0.4-1.3-0.7c-0.3-0.3-0.6-0.6-0.9-0.8c0,0-0.1,0-0.1-0.1c-0.1-0.3-0.4-0.5-0.6-0.7c-0.2-0.1-0.4-0.2-0.5-0.4
		c-0.1-0.1-0.3-0.2-0.5-0.3c-0.2-0.1-0.5-0.2-0.7-0.4c-0.1-0.1-0.2-0.1-0.3-0.2c-0.2-0.2-0.5-0.3-0.8-0.4c-0.2,0-0.3-0.1-0.4-0.2
		c-0.1-0.1-0.3-0.2-0.5-0.3c-0.2-0.1-0.3-0.3-0.4-0.5c0,0,0-0.1,0-0.1c-0.2-0.2-0.4-0.5-0.6-0.7c-0.1,0-0.1-0.1-0.1-0.2
		c-0.1-0.1-0.2-0.2-0.2-0.3c0,0,0-0.1-0.1-0.1c0-0.2-0.2-0.4-0.2-0.6c0-0.1-0.1-0.2-0.1-0.4c0,0,0-0.1,0-0.1c0.2-0.3,0.1-0.7-0.1-1
		c0-0.1-0.1-0.1-0.1-0.2c-0.1-0.2-0.2-0.5-0.3-0.7c-0.1-0.2-0.1-0.5-0.1-0.7c0.1-0.4-0.1-0.7-0.3-1c-0.1-0.1-0.2-0.1-0.2-0.2
		c-0.1-0.1-0.2-0.3-0.2-0.4c0-0.3,0-0.6-0.1-0.9c0-0.1,0-0.2,0-0.2c0.2-0.2,0.1-0.5,0.1-0.8c0-0.1-0.1-0.2-0.1-0.3
		c0.1-0.1,0.1-0.2,0.1-0.3c0-0.1,0-0.2,0.1-0.2c0.1-0.1,0.1-0.2,0.2-0.3c0.1-0.3,0.2-0.5,0.3-0.8c0.2-0.3,0.1-0.6,0.3-0.9
		c0-0.1,0-0.1,0-0.2c-0.1-0.1,0-0.3,0.1-0.4c0.2-0.1,0.3-0.3,0.4-0.5c0-0.1,0.1-0.2,0.1-0.3c0.1-0.2,0.1-0.3,0.1-0.5c0,0,0,0,0,0
		c0-0.2,0.1-0.3,0.1-0.4c0-0.1,0-0.3,0-0.4c0.1-0.2,0.2-0.4,0.4-0.5c0.2-0.1,0.3-0.3,0.5-0.5c0.1-0.1,0.2-0.2,0.3-0.3
		c0,0,0.1-0.1,0.1-0.1c0.2,0,0.3-0.2,0.4-0.3c0,0,0.1-0.1,0.1-0.1c0.2,0,0.4-0.2,0.4-0.4c0.2-0.3,0.3-0.7,0.5-1
		c0-0.1,0.1-0.1,0.2-0.2c0.2-0.1,0.4-0.3,0.6-0.5c0.1-0.1,0.2-0.2,0.4-0.2c0.1-0.1,0.2-0.1,0.3-0.3c0,0,0.1-0.1,0.1-0.1
		c0.3-0.2,0.6-0.4,0.9-0.6c0.1,0,0.1-0.1,0.2-0.1c0.1,0,0.1-0.1,0.2-0.1c0.1-0.2,0.3-0.2,0.5-0.3c0.1,0,0.2-0.1,0.2-0.2
		c0.1-0.1,0.2-0.2,0.4-0.2c0.3-0.1,0.5-0.1,0.8-0.2c0.1,0,0.2-0.1,0.3-0.2c0.3-0.2,0.5-0.4,0.9-0.5c0.1,0,0.1,0,0.2,0
		c0.2,0,0.4,0,0.7,0c0.2,0,0.4,0,0.6,0.1c0.1,0.1,0.1,0.1,0.2,0c0.2,0,0.4-0.1,0.5-0.2c0.2-0.1,0.5-0.1,0.8-0.1
		c0.3,0.1,0.6,0.1,0.9,0.1c0.2,0,0.4,0,0.6,0.1c0.2,0.1,0.3,0.1,0.5,0.2c0.2,0,0.5,0,0.7,0.1c0.1,0,0.3,0,0.4-0.1
		c0.2,0.1,0.5,0.1,0.7,0l0-0.1c0.3,0.1,0.5,0.2,0.8,0.1c0.2,0,0.3,0,0.5,0c0.2,0.1,0.5,0.1,0.7,0.1c0,0,0.1,0,0.1,0
		c0.1,0.1,0.2,0.1,0.3,0.2c0.1,0,0.2,0.1,0.3,0.1c0.1,0.1,0.2,0.1,0.4,0.1c0.1,0.1,0.1,0.2,0.1,0.3c0.1,0.1,0.2,0.3,0.3,0.3
		c0.2,0.1,0.3,0.3,0.3,0.5c0,0.2,0.1,0.3,0.2,0.4c0,0.1,0.1,0.1,0.1,0.2c0,0,0.1,0.1,0.1,0.1c0.2,0.1,0.3,0.2,0.4,0.4
		c0,0,0.1,0.1,0.1,0.1c0.1,0,0.3,0.1,0.3,0.3c0.1,0.1,0.1,0.2,0.2,0.3c0.2,0.1,0.3,0.3,0.4,0.5c0.1,0.2,0.2,0.3,0.4,0.5
		c0.1,0.1,0.1,0.1,0.2,0.2c0.2,0.2,0.5,0.5,0.7,0.8c0.1,0.1,0.2,0.2,0.2,0.3c0,0.1,0.1,0.1,0.1,0.2c0.2,0.2,0.2,0.4,0.2,0.6
		c0,0.1,0.1,0.2,0.1,0.3c0,0.2,0.1,0.4,0.2,0.6c0.1,0.2,0.2,0.3,0.3,0.5c0.1,0.1,0.1,0.2,0.1,0.3c0,0.2,0.2,0.5,0.4,0.6
		c0.1,0,0.1,0.1,0.1,0.2c0,0,0,0.1-0.1,0.1c-0.2,0.1-0.3,0.3-0.2,0.6c0,0.2,0,0.4-0.1,0.6c0,0.2,0,0.4,0.1,0.6
		c0.1,0.1,0.1,0.2,0.1,0.4c0,0.1,0,0.3,0.1,0.4c0,0.1,0.1,0.1,0.1,0.2c0,0,0.1,0.1,0.1,0.2c0,0.2,0,0.3,0,0.5c0,0.1,0.1,0.3,0.1,0.4
		c0,0.2,0,0.3,0.1,0.5c0.1,0.2,0.1,0.5,0,0.7c-0.1,0.2-0.1,0.4,0,0.6c0.1,0.3,0.1,0.6,0,0.9c0,0.1,0,0.2,0,0.3c0.1,0.2,0,0.5,0,0.7
		c0,0-0.1,0.1-0.1,0.1c0,0.3,0,0.5,0,0.8c0,0.1,0,0.1,0,0.2c-0.1,0.1-0.1,0.3-0.1,0.5c0,0,0,0,0,0.1c-0.2,0.2-0.1,0.4,0,0.6
		c-0.1,0.2-0.2,0.4-0.4,0.6c0,0-0.1,0.1-0.1,0.1c0,0.1-0.1,0.1-0.2,0.1c-0.2,0-0.3,0.1-0.4,0.3c-0.1,0.1-0.1,0.1-0.2,0.2
		c-0.4,0.2-0.6,0.8-0.4,1.2c0,0.1,0.1,0.1,0.1,0.2c-0.1,0.2-0.2,0.3-0.4,0.4c-0.2,0.1-0.4,0.3-0.5,0.4c-0.1,0.1-0.2,0.2-0.3,0.3
		c-0.1,0.1-0.2,0.1-0.3,0.2c0,0-0.1,0.1-0.1,0.1c-0.2,0.1-0.4,0.1-0.6,0.3c-0.1,0.1-0.3,0.2-0.3,0.3L171.4,47.8z"/>
	<path class="st1" d="M222.9,47.8c-0.3,0.1-0.6,0.1-0.9,0.3c-0.2,0.1-0.3,0.1-0.5,0.1c-0.2,0-0.4,0.1-0.6,0.2
		c-0.1,0.1-0.3,0.1-0.5,0.1c-0.5-0.1-1-0.1-1.5,0c-0.1,0-0.3,0-0.4,0c-0.2,0-0.4,0-0.6,0c-0.2,0-0.3,0-0.5,0c0,0-0.1,0-0.1,0
		c-0.2-0.1-0.5-0.1-0.8-0.1c-0.1,0-0.1,0-0.2,0c-0.1,0-0.3,0-0.4-0.1c-0.3-0.1-0.7-0.2-1.1-0.3c0,0-0.1,0-0.1-0.1
		c-0.5-0.1-0.9-0.4-1.3-0.7c-0.3-0.3-0.6-0.6-0.9-0.8c0,0-0.1,0-0.1-0.1c-0.1-0.3-0.4-0.5-0.6-0.7c-0.2-0.1-0.4-0.2-0.5-0.4
		c-0.1-0.1-0.3-0.2-0.5-0.3c-0.2-0.1-0.5-0.2-0.7-0.4c-0.1-0.1-0.2-0.1-0.3-0.2c-0.2-0.2-0.5-0.3-0.8-0.4c-0.2,0-0.3-0.1-0.4-0.2
		c-0.1-0.1-0.3-0.2-0.5-0.3c-0.2-0.1-0.3-0.3-0.4-0.5c0,0,0-0.1,0-0.1c-0.2-0.2-0.4-0.5-0.6-0.7c-0.1,0-0.1-0.1-0.1-0.2
		c-0.1-0.1-0.2-0.2-0.2-0.3c0,0-0.1-0.1-0.1-0.1c0-0.2-0.2-0.4-0.2-0.6c0-0.1-0.1-0.2-0.1-0.4c0,0,0-0.1,0-0.1
		c0.2-0.3,0.1-0.7-0.1-1c0-0.1-0.1-0.1-0.1-0.2c-0.1-0.2-0.2-0.5-0.3-0.7c-0.1-0.2-0.1-0.5-0.1-0.7c0.1-0.4-0.1-0.7-0.3-1
		c-0.1-0.1-0.2-0.1-0.2-0.2c-0.1-0.1-0.2-0.3-0.2-0.4c0-0.3,0-0.6-0.1-0.9c0-0.1,0-0.2,0-0.2c0.2-0.2,0.1-0.5,0.1-0.8
		c0-0.1-0.1-0.2-0.1-0.3c0.1-0.1,0.1-0.2,0.1-0.3c0-0.1,0-0.2,0.1-0.2c0.1-0.1,0.1-0.2,0.2-0.3c0.1-0.3,0.2-0.5,0.3-0.8
		c0.2-0.3,0.1-0.6,0.3-0.9c0-0.1,0-0.1,0-0.2c-0.1-0.1,0-0.3,0.1-0.4c0.2-0.1,0.3-0.3,0.4-0.5c0-0.1,0.1-0.2,0.1-0.3
		c0.1-0.2,0.1-0.3,0.1-0.5c0,0,0,0,0,0c0-0.2,0.1-0.3,0.1-0.4c0-0.1,0-0.3,0-0.4c0.1-0.2,0.2-0.4,0.4-0.5c0.2-0.1,0.3-0.3,0.5-0.5
		c0.1-0.1,0.2-0.2,0.3-0.3c0,0,0.1-0.1,0.1-0.1c0.2,0,0.3-0.2,0.4-0.3c0,0,0.1-0.1,0.1-0.1c0.2,0,0.4-0.2,0.4-0.4
		c0.2-0.3,0.3-0.7,0.5-1c0-0.1,0.1-0.1,0.2-0.2c0.2-0.1,0.4-0.3,0.6-0.5c0.1-0.1,0.2-0.2,0.4-0.2c0.1-0.1,0.2-0.1,0.3-0.3
		c0,0,0.1-0.1,0.1-0.1c0.3-0.2,0.6-0.4,0.9-0.6c0.1,0,0.1-0.1,0.2-0.1c0.1,0,0.1-0.1,0.2-0.1c0.1-0.2,0.3-0.2,0.5-0.3
		c0.1,0,0.2-0.1,0.2-0.2c0.1-0.1,0.2-0.2,0.4-0.2c0.3-0.1,0.5-0.1,0.8-0.2c0.1,0,0.2-0.1,0.3-0.2c0.3-0.2,0.5-0.4,0.9-0.5
		c0.1,0,0.1,0,0.2,0c0.2,0,0.4,0,0.7,0c0.2,0,0.4,0,0.6,0.1c0.1,0.1,0.1,0.1,0.2,0c0.2,0,0.4-0.1,0.6-0.2c0.2-0.1,0.5-0.1,0.8-0.1
		c0.3,0.1,0.6,0.1,0.9,0.1c0.2,0,0.4,0,0.6,0.1c0.2,0.1,0.3,0.1,0.5,0.2c0.2,0,0.5,0,0.7,0.1c0.1,0,0.3,0,0.4-0.1
		c0.2,0.1,0.5,0.1,0.7,0l0-0.1c0.3,0.1,0.5,0.2,0.8,0.1c0.2,0,0.3,0,0.5,0c0.2,0.1,0.5,0.1,0.7,0.1c0,0,0.1,0,0.1,0
		c0.1,0.1,0.2,0.1,0.3,0.2c0.1,0,0.2,0.1,0.3,0.1c0.1,0.1,0.2,0.1,0.4,0.1c0.1,0.1,0.1,0.2,0.1,0.3c0.1,0.1,0.2,0.3,0.3,0.3
		c0.2,0.1,0.3,0.3,0.3,0.5c0,0.2,0.1,0.3,0.2,0.4c0,0.1,0.1,0.1,0.1,0.2c0,0,0.1,0.1,0.1,0.1c0.2,0.1,0.3,0.2,0.4,0.4
		c0,0,0.1,0.1,0.1,0.1c0.1,0,0.3,0.1,0.3,0.3c0.1,0.1,0.1,0.2,0.2,0.3c0.2,0.1,0.3,0.3,0.4,0.5c0.1,0.2,0.2,0.3,0.4,0.5
		c0.1,0.1,0.1,0.1,0.2,0.2c0.2,0.2,0.5,0.5,0.7,0.8c0.1,0.1,0.2,0.2,0.2,0.3c0,0.1,0.1,0.1,0.1,0.2c0.2,0.2,0.2,0.4,0.2,0.6
		c0,0.1,0.1,0.2,0.1,0.3c0,0.2,0.1,0.4,0.2,0.6c0.1,0.2,0.2,0.3,0.3,0.5c0.1,0.1,0.1,0.2,0.1,0.3c0,0.2,0.2,0.5,0.4,0.6
		c0.1,0,0.1,0.1,0.1,0.2c0,0,0,0.1-0.1,0.1c-0.2,0.1-0.3,0.3-0.2,0.6c0,0.2,0,0.4-0.1,0.6c0,0.2,0,0.4,0.1,0.6
		c0.1,0.1,0.1,0.2,0.1,0.4c0,0.1,0,0.3,0.1,0.4c0,0.1,0.1,0.1,0.1,0.2c0,0,0.1,0.1,0.1,0.2c0,0.2,0,0.3,0,0.5c0,0.1,0.1,0.3,0.1,0.4
		c0,0.2,0,0.3,0.1,0.5c0.1,0.2,0.1,0.5,0,0.7c-0.1,0.2-0.1,0.4,0,0.6c0.1,0.3,0.1,0.6,0,0.9c0,0.1,0,0.2,0,0.3c0.1,0.2,0,0.5,0,0.7
		c0,0-0.1,0.1-0.1,0.1c0,0.3,0,0.5,0,0.8c0,0.1,0,0.1,0,0.2c-0.1,0.1-0.1,0.3-0.1,0.5c0,0,0,0,0,0.1c-0.2,0.2-0.1,0.4,0,0.6
		c-0.1,0.2-0.2,0.4-0.4,0.6c0,0-0.1,0.1-0.1,0.1c0,0.1-0.1,0.1-0.2,0.1c-0.2,0-0.3,0.1-0.4,0.3c-0.1,0.1-0.1,0.1-0.2,0.2
		c-0.4,0.2-0.6,0.8-0.4,1.2l0.1,0.2c-0.1,0.2-0.2,0.3-0.4,0.4c-0.2,0.1-0.4,0.3-0.5,0.4c-0.1,0.1-0.2,0.2-0.3,0.3
		c-0.1,0.1-0.2,0.1-0.3,0.2c0,0-0.1,0.1-0.1,0.1c-0.2,0.1-0.4,0.1-0.6,0.3c-0.1,0.1-0.3,0.2-0.3,0.3L222.9,47.8z"/>
	<path class="st1" d="M269.5,47.8c-0.3,0.1-0.6,0.1-0.9,0.3c-0.2,0.1-0.3,0.1-0.5,0.1c-0.2,0-0.4,0.1-0.6,0.2
		c-0.1,0.1-0.3,0.1-0.5,0.1c-0.5-0.1-1-0.1-1.5,0c-0.1,0-0.3,0-0.4,0c-0.2,0-0.4,0-0.6,0c-0.2,0-0.3,0-0.5,0c0,0-0.1,0-0.1,0
		c-0.2-0.1-0.5-0.1-0.8-0.1c-0.1,0-0.1,0-0.2,0c-0.1,0-0.3,0-0.4-0.1c-0.3-0.1-0.7-0.2-1.1-0.3c0,0-0.1,0-0.1-0.1
		c-0.5-0.1-0.9-0.4-1.3-0.7c-0.3-0.3-0.6-0.6-0.9-0.8c0,0-0.1,0-0.1-0.1c-0.1-0.3-0.4-0.5-0.6-0.7c-0.2-0.1-0.4-0.2-0.5-0.4
		c-0.1-0.1-0.3-0.2-0.5-0.3c-0.2-0.1-0.5-0.2-0.7-0.4c-0.1-0.1-0.2-0.1-0.3-0.2c-0.2-0.2-0.5-0.3-0.8-0.4c-0.2,0-0.3-0.1-0.4-0.2
		c-0.1-0.1-0.3-0.2-0.5-0.3c-0.2-0.1-0.3-0.3-0.4-0.5c0,0,0-0.1,0-0.1c-0.2-0.2-0.4-0.5-0.6-0.7c-0.1,0-0.1-0.1-0.1-0.2
		c-0.1-0.1-0.2-0.2-0.2-0.3c0,0,0-0.1-0.1-0.1c0-0.2-0.2-0.4-0.2-0.6c0-0.1-0.1-0.2-0.1-0.4c0,0,0-0.1,0-0.1c0.2-0.3,0.1-0.7-0.1-1
		c0-0.1-0.1-0.1-0.1-0.2c-0.1-0.2-0.2-0.5-0.3-0.7c-0.1-0.2-0.1-0.5-0.1-0.7c0.1-0.4-0.1-0.7-0.3-1c-0.1-0.1-0.2-0.1-0.2-0.2
		c-0.1-0.1-0.2-0.3-0.2-0.4c0-0.3,0-0.6-0.1-0.9c0-0.1,0-0.2,0-0.2c0.2-0.2,0.1-0.5,0.1-0.8c0-0.1-0.1-0.2-0.1-0.3
		c0.1-0.1,0.1-0.2,0.1-0.3c0-0.1,0-0.2,0.1-0.2c0.1-0.1,0.1-0.2,0.2-0.3c0.1-0.3,0.2-0.5,0.3-0.8c0.2-0.3,0.1-0.6,0.3-0.9
		c0-0.1,0-0.1,0-0.2c-0.1-0.1,0-0.3,0.1-0.4c0.2-0.1,0.3-0.3,0.4-0.5c0-0.1,0.1-0.2,0.1-0.3c0.1-0.2,0.1-0.3,0.1-0.5c0,0,0,0,0,0
		c0-0.2,0.1-0.3,0.1-0.4c0-0.1,0-0.3,0-0.4c0.1-0.2,0.2-0.4,0.4-0.5c0.2-0.1,0.3-0.3,0.5-0.5c0.1-0.1,0.2-0.2,0.3-0.3
		c0,0,0.1-0.1,0.1-0.1c0.2,0,0.3-0.2,0.4-0.3c0,0,0.1-0.1,0.1-0.1c0.2,0,0.4-0.2,0.4-0.4c0.2-0.3,0.3-0.7,0.5-1
		c0-0.1,0.1-0.1,0.2-0.2c0.2-0.1,0.4-0.3,0.6-0.5c0.1-0.1,0.2-0.2,0.4-0.2c0.1-0.1,0.2-0.1,0.3-0.3c0,0,0.1-0.1,0.1-0.1
		c0.3-0.2,0.6-0.4,0.9-0.6c0.1,0,0.1-0.1,0.2-0.1c0.1,0,0.1-0.1,0.2-0.1c0.1-0.2,0.3-0.2,0.5-0.3c0.1,0,0.2-0.1,0.2-0.2
		c0.1-0.1,0.2-0.2,0.4-0.2c0.3-0.1,0.5-0.1,0.8-0.2c0.1,0,0.2-0.1,0.3-0.2c0.3-0.2,0.5-0.4,0.9-0.5c0.1,0,0.1,0,0.2,0
		c0.2,0,0.4,0,0.7,0c0.2,0,0.4,0,0.6,0.1c0.1,0.1,0.1,0.1,0.2,0c0.2,0,0.4-0.1,0.5-0.2c0.2-0.1,0.5-0.1,0.8-0.1
		c0.3,0.1,0.6,0.1,0.9,0.1c0.2,0,0.4,0,0.5,0.1c0.2,0.1,0.3,0.1,0.5,0.2c0.2,0,0.5,0,0.7,0.1c0.1,0,0.3,0,0.4-0.1
		c0.2,0.1,0.5,0.1,0.7,0l0-0.1c0.3,0.1,0.5,0.2,0.8,0.1c0.2,0,0.3,0,0.5,0c0.2,0.1,0.5,0.1,0.7,0.1c0,0,0.1,0,0.1,0
		c0.1,0.1,0.2,0.1,0.3,0.2c0.1,0,0.2,0.1,0.3,0.1c0.1,0.1,0.2,0.1,0.4,0.1c0.1,0.1,0.1,0.2,0.1,0.3c0.1,0.1,0.2,0.3,0.3,0.3
		c0.2,0.1,0.3,0.3,0.3,0.5c0,0.2,0.1,0.3,0.2,0.4c0,0.1,0.1,0.1,0.1,0.2c0,0,0.1,0.1,0.1,0.1c0.2,0.1,0.3,0.2,0.4,0.4
		c0,0,0.1,0.1,0.1,0.1c0.1,0,0.3,0.1,0.3,0.3c0.1,0.1,0.1,0.2,0.2,0.3c0.2,0.1,0.3,0.3,0.4,0.5c0.1,0.2,0.2,0.3,0.4,0.5
		c0.1,0.1,0.1,0.1,0.2,0.2c0.2,0.2,0.5,0.5,0.7,0.8c0.1,0.1,0.2,0.2,0.2,0.3c0,0.1,0.1,0.1,0.1,0.2c0.2,0.2,0.2,0.4,0.2,0.6
		c0,0.1,0.1,0.2,0.1,0.3c0,0.2,0.1,0.4,0.2,0.6c0.1,0.2,0.2,0.3,0.3,0.5c0.1,0.1,0.1,0.2,0.1,0.3c0,0.2,0.2,0.5,0.4,0.6
		c0.1,0,0.1,0.1,0.1,0.2c0,0,0,0.1-0.1,0.1c-0.2,0.1-0.3,0.3-0.2,0.6c0,0.2,0,0.4-0.1,0.6c0,0.2,0,0.4,0.1,0.6
		c0.1,0.1,0.1,0.2,0.1,0.4c0,0.1,0,0.3,0.1,0.4c0,0.1,0.1,0.1,0.1,0.2c0,0,0.1,0.1,0.1,0.2c0,0.2,0,0.3,0,0.5
		c0.1,0.1,0.1,0.3,0.1,0.4c0,0.2,0,0.3,0.1,0.5c0.1,0.2,0.1,0.5,0,0.7c-0.1,0.2-0.1,0.4,0,0.6c0.1,0.3,0.1,0.6,0,0.9
		c0,0.1,0,0.2,0,0.3c0.1,0.2,0,0.5,0,0.7c0,0-0.1,0.1-0.1,0.1c0,0.3,0,0.5,0,0.8c0,0.1,0,0.1,0,0.2c-0.1,0.1-0.1,0.3-0.1,0.5
		c0,0,0,0,0,0.1c-0.2,0.2-0.1,0.4,0,0.6c-0.1,0.2-0.2,0.4-0.4,0.6c0,0-0.1,0.1-0.1,0.1c0,0.1-0.1,0.1-0.2,0.1
		c-0.2,0-0.3,0.1-0.4,0.3c-0.1,0.1-0.1,0.1-0.2,0.2c-0.4,0.2-0.6,0.8-0.4,1.2c0,0.1,0.1,0.1,0.1,0.2c-0.1,0.2-0.2,0.3-0.4,0.4
		c-0.2,0.1-0.4,0.3-0.5,0.4c-0.1,0.1-0.2,0.2-0.3,0.3c-0.1,0.1-0.2,0.1-0.3,0.2c0,0-0.1,0.1-0.1,0.1c-0.2,0.1-0.4,0.1-0.6,0.3
		c-0.1,0.1-0.3,0.2-0.3,0.3L269.5,47.8z"/>
</g>
</svg>
