<?xml version="1.0" encoding="utf-8"?>
<!-- Generator: Adobe Illustrator 22.0.1, SVG Export Plug-In . SVG Version: 6.00 Build 0)  -->
<svg version="1.1" id="Livello_1" xmlns="http://www.w3.org/2000/svg" xmlns:xlink="http://www.w3.org/1999/xlink" x="0px" y="0px"
	 viewBox="0 0 952 210" style="enable-background:new 0 0 952 210;" xml:space="preserve">
<style type="text/css">
	.st0{fill:#FF3366;}
	.st1{fill:#1858A8;}
</style>
<title>manuale_ill_nuove</title>
<g id="solo_testo">
	<path class="st0" d="M371.6,62c-0.3,0.1-0.6,0.1-0.9,0.3c-0.2,0.1-0.3,0.1-0.5,0.1s-0.4,0.1-0.6,0.2c-0.1,0.1-0.3,0.1-0.5,0.1
		c-0.5-0.1-1-0.1-1.5,0c-0.1,0-0.3,0-0.4,0c-0.2,0-0.4,0-0.6,0c-0.2,0-0.3,0-0.5,0H366c-0.2-0.1-0.5-0.1-0.8-0.1c-0.1,0-0.1,0-0.2,0
		c-0.1,0-0.3,0-0.4-0.1c-0.3-0.1-0.7-0.2-1.1-0.3c0,0-0.1,0-0.1-0.1c-0.5-0.1-0.9-0.4-1.3-0.7c-0.3-0.3-0.6-0.6-0.9-0.8
		c0,0-0.1,0-0.1-0.1c-0.1-0.3-0.4-0.5-0.6-0.7c-0.2-0.1-0.4-0.2-0.5-0.4c-0.1-0.1-0.3-0.2-0.5-0.3c-0.2-0.1-0.5-0.2-0.7-0.4
		c-0.1-0.1-0.2-0.1-0.3-0.2c-0.2-0.2-0.5-0.3-0.8-0.4c-0.2,0-0.3-0.1-0.4-0.2c-0.1-0.1-0.3-0.2-0.5-0.3c-0.2-0.1-0.3-0.3-0.4-0.5V57
		c-0.2-0.2-0.4-0.5-0.6-0.7c-0.1,0-0.1-0.1-0.1-0.2c-0.1-0.1-0.2-0.2-0.2-0.3l-0.1-0.1c0-0.2-0.2-0.4-0.2-0.6c0-0.1-0.1-0.2-0.1-0.4
		v-0.1c0.2-0.3,0.1-0.7-0.1-1c0-0.1-0.1-0.1-0.1-0.2c-0.1-0.2-0.2-0.5-0.3-0.7c-0.1-0.2-0.1-0.5-0.1-0.7c0.1-0.4-0.1-0.7-0.3-1
		c-0.1-0.1-0.2-0.1-0.2-0.2c-0.1-0.1-0.2-0.3-0.2-0.4c0-0.3,0-0.6-0.1-0.9c0-0.1,0-0.2,0-0.2c0.2-0.2,0.1-0.5,0.1-0.8
		c0-0.1-0.1-0.2-0.1-0.3c0.1-0.1,0.1-0.2,0.1-0.3s0-0.2,0.1-0.2c0.1-0.1,0.1-0.2,0.2-0.3c0.1-0.3,0.2-0.5,0.3-0.8
		c0.2-0.3,0.1-0.6,0.3-0.9c0-0.1,0-0.1,0-0.2c-0.1-0.1,0-0.3,0.1-0.4c0.2-0.1,0.3-0.3,0.4-0.5c0-0.1,0.1-0.2,0.1-0.3
		c0.1-0.2,0.1-0.3,0.1-0.5l0,0c0-0.2,0.1-0.3,0.1-0.4c0-0.1,0-0.3,0-0.4c0.1-0.2,0.2-0.4,0.4-0.5c0.2-0.1,0.3-0.3,0.5-0.5
		c0.1-0.1,0.2-0.2,0.3-0.3l0.1-0.1c0.2,0,0.3-0.1,0.4-0.3l0.1-0.1c0.2,0,0.4-0.2,0.4-0.4c0.2-0.3,0.3-0.7,0.5-1
		c0-0.1,0.1-0.1,0.2-0.2c0.2-0.1,0.4-0.3,0.6-0.5c0.1-0.1,0.2-0.2,0.4-0.2c0.1-0.1,0.2-0.1,0.3-0.3l0.1-0.1c0.3-0.2,0.6-0.4,0.9-0.6
		c0.1,0,0.1-0.1,0.2-0.1s0.1-0.1,0.2-0.1c0.1-0.2,0.3-0.2,0.5-0.3c0.1,0,0.2-0.1,0.2-0.2c0.1-0.1,0.2-0.2,0.4-0.2
		c0.3-0.1,0.5-0.1,0.8-0.2c0.1,0,0.2-0.1,0.3-0.2c0.2-0.2,0.5-0.4,0.8-0.5c0.1,0,0.1,0,0.2,0c0.2,0,0.4,0,0.7,0c0.2,0,0.4,0,0.6,0.1
		c0.1,0.1,0.1,0.1,0.2,0c0.2,0,0.4-0.1,0.5-0.2c0.2-0.1,0.5-0.1,0.8-0.1c0.3,0.1,0.6,0.1,0.9,0.1c0.2,0,0.4,0,0.5,0.1
		c0.2,0.1,0.3,0.1,0.5,0.2c0.2,0,0.5,0,0.7,0.1c0.1,0,0.3,0,0.4-0.1c0.2,0.1,0.5,0.1,0.7,0v-0.1c0.3,0.1,0.5,0.2,0.8,0.1
		c0.2,0,0.3,0,0.5,0c0.2,0.1,0.5,0.1,0.7,0.1h0.1c0.1,0.1,0.2,0.1,0.3,0.2c0.1,0,0.2,0.1,0.3,0.1c0.1,0.1,0.2,0.1,0.4,0.1
		c0.1,0.1,0.1,0.2,0.1,0.3c0.1,0.1,0.2,0.3,0.3,0.3c0.2,0.1,0.3,0.3,0.3,0.5s0.1,0.3,0.2,0.4c0,0.1,0.1,0.1,0.1,0.2l0.1,0.1
		c0.2,0.1,0.3,0.2,0.4,0.4l0.1,0.1c0.1,0,0.3,0.1,0.3,0.3c0.1,0.1,0.1,0.2,0.2,0.3c0.2,0.1,0.3,0.3,0.4,0.5s0.2,0.3,0.4,0.5
		c0.1,0.1,0.1,0.1,0.2,0.2c0.2,0.2,0.5,0.5,0.7,0.7c0.1,0.1,0.2,0.2,0.2,0.3s0.1,0.1,0.1,0.2c0.2,0.2,0.2,0.4,0.2,0.6
		c0,0.1,0.1,0.2,0.1,0.3c0,0.2,0.1,0.4,0.2,0.6c0.1,0.2,0.2,0.3,0.3,0.5c0.1,0.1,0.1,0.2,0.1,0.3c0,0.2,0.2,0.5,0.4,0.6
		c0.1,0,0.1,0.1,0.1,0.2c0,0,0,0.1-0.1,0.1c-0.2,0.1-0.3,0.3-0.2,0.5c0,0.2,0,0.4-0.1,0.6c0,0.2,0,0.4,0.1,0.6
		c0.1,0.1,0.1,0.2,0.1,0.4c0,0.1,0,0.3,0.1,0.4c0,0.1,0.1,0.1,0.1,0.2c0,0,0.1,0.1,0.1,0.2c0,0.2,0,0.3,0,0.5
		c0.1,0.1,0.1,0.3,0.1,0.4c0,0.2,0,0.3,0.1,0.5s0.1,0.5,0,0.7s-0.1,0.4,0,0.6c0.1,0.3,0.1,0.6,0,0.9c0,0.1,0,0.2,0,0.3
		c0.1,0.2,0,0.5,0,0.7l-0.1,0.1c0,0.3,0,0.5,0,0.8c0,0.1,0,0.1,0,0.2c0.4,0.2,0.4,0.3,0.4,0.5c0,0,0,0,0,0.1c-0.2,0.2-0.1,0.4,0,0.6
		c-0.1,0.2-0.2,0.4-0.4,0.6l-0.1,0.1c0,0.1-0.1,0.1-0.2,0.1c-0.2,0-0.3,0.1-0.4,0.3c-0.1,0.1-0.1,0.1-0.2,0.2
		c-0.4,0.2-0.6,0.8-0.4,1.2c0,0.1,0.1,0.1,0.1,0.2c-0.1,0.2-0.2,0.3-0.4,0.4c-0.2,0.1-0.4,0.3-0.5,0.4c-0.1,0.1-0.2,0.2-0.3,0.3
		s-0.2,0.1-0.3,0.2l-0.1,0.1c-0.2,0.1-0.4,0.1-0.6,0.3c-0.1,0.1-0.3,0.2-0.3,0.3L371.6,62z"/>
	<path class="st0" d="M415.2,62c-0.3,0.1-0.6,0.1-0.9,0.3c-0.2,0.1-0.3,0.1-0.5,0.1c-0.2,0-0.4,0.1-0.6,0.2
		c-0.1,0.1-0.3,0.1-0.5,0.1c-0.5-0.1-1-0.1-1.5,0c-0.1,0-0.3,0-0.4,0c-0.2,0-0.4,0-0.6,0c-0.2,0-0.3,0-0.5,0h-0.1
		c-0.2-0.1-0.5-0.1-0.8-0.1c-0.1,0-0.1,0-0.2,0c-0.1,0-0.3,0-0.4-0.1c-0.3-0.1-0.7-0.2-1.1-0.3c0,0-0.1,0-0.1-0.1
		c-0.5-0.1-0.9-0.4-1.3-0.7c-0.3-0.3-0.6-0.6-0.9-0.8c0,0-0.1,0-0.1-0.1c-0.1-0.3-0.4-0.5-0.6-0.7c-0.2-0.1-0.4-0.2-0.5-0.4
		c-0.1-0.1-0.3-0.2-0.5-0.3c-0.2-0.1-0.5-0.2-0.7-0.4c-0.1-0.1-0.2-0.1-0.3-0.2c-0.2-0.2-0.5-0.3-0.8-0.4c-0.2,0-0.3-0.1-0.4-0.2
		c-0.1-0.1-0.3-0.2-0.5-0.3c-0.2-0.1-0.3-0.3-0.4-0.5V57c-0.2-0.2-0.4-0.5-0.6-0.7c0,0-0.1-0.1-0.1-0.2c-0.1-0.1-0.2-0.2-0.2-0.3
		c0,0,0-0.1-0.1-0.1c0-0.2-0.2-0.4-0.2-0.6c0-0.1-0.1-0.2-0.1-0.4v-0.1c0.2-0.3,0.1-0.7-0.1-1c0-0.1-0.1-0.1-0.1-0.2
		c-0.1-0.2-0.2-0.5-0.3-0.7c-0.1-0.2-0.1-0.5-0.1-0.7c0.1-0.4-0.1-0.7-0.3-1c-0.1-0.1-0.2-0.1-0.2-0.2c-0.1-0.1-0.2-0.3-0.2-0.4
		c0-0.3,0-0.6-0.1-0.9c0-0.1,0-0.2,0-0.2c0.2-0.2,0.1-0.5,0.1-0.8c0-0.1-0.1-0.2-0.1-0.3c0.1-0.1,0.1-0.2,0.1-0.3s0-0.2,0.1-0.2
		c0.1-0.1,0.1-0.2,0.2-0.3c0.1-0.3,0.2-0.5,0.3-0.8c0.2-0.3,0.1-0.6,0.3-0.9c0-0.1,0-0.1,0-0.2c-0.1-0.1,0-0.3,0.1-0.4
		c0.2-0.1,0.3-0.3,0.4-0.5c0-0.1,0.1-0.2,0.1-0.3c0.1-0.2,0.1-0.3,0.1-0.5l0,0c0-0.2,0.1-0.3,0.1-0.4c0-0.1,0-0.3,0-0.4
		c0.1-0.2,0.2-0.4,0.4-0.5c0.2-0.1,0.3-0.3,0.5-0.5c0.1-0.1,0.2-0.2,0.3-0.3l0.1-0.1c0.2,0,0.3-0.1,0.4-0.3l0.1-0.1
		c0.2,0,0.4-0.2,0.4-0.4c0.2-0.3,0.3-0.7,0.5-1c0-0.1,0.1-0.1,0.2-0.2c0.2-0.1,0.4-0.3,0.6-0.5c0.1-0.1,0.2-0.2,0.4-0.2
		c0.1-0.1,0.2-0.1,0.3-0.3l0.1-0.1c0.3-0.2,0.6-0.4,0.9-0.6c0.1,0,0.1-0.1,0.2-0.1s0.1-0.1,0.2-0.1c0.1-0.2,0.3-0.2,0.5-0.3
		c0.1,0,0.2-0.1,0.2-0.2c0.1-0.1,0.2-0.2,0.4-0.2c0.3-0.1,0.5-0.1,0.8-0.2c0.1,0,0.2-0.1,0.3-0.2c0.2-0.2,0.5-0.4,0.9-0.5
		c0.1,0,0.1,0,0.2,0c0.2,0,0.4,0,0.7,0c0.2,0,0.4,0,0.6,0.1c0.1,0.1,0.1,0.1,0.2,0c0.2,0,0.4-0.1,0.5-0.2c0.2-0.1,0.5-0.1,0.8-0.1
		c0.3,0.1,0.6,0.1,0.9,0.1c0.2,0,0.4,0,0.6,0.1c0.2,0.1,0.3,0.1,0.5,0.2c0.2,0,0.5,0,0.7,0.1c0.1,0,0.3,0,0.4-0.1
		c0.2,0.1,0.5,0.1,0.7,0v-0.1c0.3,0.1,0.5,0.2,0.8,0.1c0.2,0,0.3,0,0.5,0c0.2,0.1,0.5,0.1,0.7,0.1h0.1c0.1,0.1,0.2,0.1,0.3,0.2
		c0.1,0,0.2,0.1,0.3,0.1c0.1,0.1,0.2,0.1,0.4,0.1l0.1,0.3c0.1,0.1,0.2,0.3,0.3,0.3c0.2,0.1,0.3,0.3,0.3,0.5s0.1,0.3,0.2,0.4
		c0,0.1,0.1,0.1,0.1,0.2l0.1,0.1c0.2,0.1,0.3,0.2,0.4,0.4l0.1,0.1c0.1,0,0.3,0.1,0.3,0.3c0.1,0.1,0.1,0.2,0.2,0.3
		c0.2,0.1,0.3,0.3,0.4,0.5c0.1,0.2,0.2,0.3,0.4,0.5c0.1,0.1,0.1,0.1,0.2,0.2c0.2,0.2,0.5,0.5,0.7,0.7c0.1,0.1,0.2,0.2,0.2,0.3
		s0.1,0.1,0.1,0.2c0.2,0.2,0.2,0.4,0.2,0.6c0,0.1,0.1,0.2,0.1,0.3c0,0.2,0.1,0.4,0.2,0.6c0.1,0.2,0.2,0.3,0.3,0.5
		c0.1,0.1,0.1,0.2,0.1,0.3c0,0.2,0.2,0.5,0.4,0.6c0.1,0,0.1,0.1,0.1,0.2c0,0,0,0.1-0.1,0.1c-0.2,0.1-0.3,0.3-0.2,0.5
		c0,0.2,0,0.4-0.1,0.6c0,0.2,0,0.4,0.1,0.6c0.1,0.1,0.1,0.2,0.1,0.4c0,0.1,0,0.3,0.1,0.4c0,0.1,0.1,0.1,0.1,0.2c0,0,0.1,0.1,0.1,0.2
		c0,0.2,0,0.3,0,0.5c0.1,0.1,0.1,0.3,0.1,0.4c0,0.2,0,0.3,0.1,0.5s0.1,0.5,0,0.7s-0.1,0.4,0,0.6c0.1,0.3,0.1,0.6,0,0.9
		c0,0.1,0,0.2,0,0.3c0.1,0.2,0,0.5,0,0.7l-0.1,0.1c0,0.3,0,0.5,0,0.8c0,0.1,0,0.1,0,0.2c-0.1,0.1-0.1,0.3-0.1,0.5c0,0,0,0,0,0.1
		c-0.1,0.2-0.1,0.4,0,0.6c-0.1,0.2-0.2,0.4-0.4,0.6l-0.1,0.1c0,0.1-0.1,0.1-0.2,0.1c-0.2,0-0.3,0.1-0.4,0.3
		c-0.1,0.1-0.1,0.1-0.2,0.2c-0.4,0.2-0.6,0.8-0.4,1.2c0,0.1,0.1,0.1,0.1,0.2c-0.1,0.2-0.2,0.3-0.4,0.4c-0.2,0.1-0.4,0.3-0.5,0.4
		c-0.1,0.1-0.2,0.2-0.3,0.3s-0.2,0.1-0.3,0.2l-0.1,0.1c-0.2,0.1-0.4,0.1-0.6,0.3c-0.1,0.1-0.3,0.2-0.3,0.3L415.2,62z"/>
	<path class="st0" d="M460.8,62c-0.3,0.1-0.6,0.1-0.9,0.3c-0.2,0.1-0.3,0.1-0.5,0.1c-0.2,0-0.4,0.1-0.6,0.2
		c-0.1,0.1-0.3,0.1-0.5,0.1c-0.5-0.1-1-0.1-1.5,0c-0.1,0-0.3,0-0.4,0c-0.2,0-0.4,0-0.6,0c-0.2,0-0.3,0-0.5,0h-0.1
		c-0.2-0.1-0.5-0.1-0.8-0.1c-0.1,0-0.1,0-0.2,0c-0.1,0-0.3,0-0.4-0.1c-0.3-0.1-0.7-0.2-1.1-0.3c0,0-0.1,0-0.1-0.1
		c-0.5-0.1-0.9-0.4-1.3-0.7c-0.3-0.3-0.6-0.6-0.9-0.8c0,0-0.1,0-0.1-0.1c-0.1-0.3-0.4-0.5-0.6-0.7c-0.2-0.1-0.4-0.2-0.5-0.4
		c-0.1-0.1-0.3-0.2-0.5-0.3c-0.2-0.1-0.5-0.2-0.7-0.4c-0.1-0.1-0.2-0.1-0.3-0.2c-0.2-0.2-0.5-0.3-0.8-0.4c-0.2,0-0.3-0.1-0.4-0.2
		c-0.1-0.1-0.3-0.2-0.5-0.3c-0.2-0.1-0.3-0.3-0.4-0.5V57c-0.2-0.2-0.4-0.5-0.6-0.7c-0.1,0-0.1-0.1-0.1-0.2c-0.1-0.1-0.2-0.2-0.2-0.3
		l-0.1-0.1c0-0.2-0.2-0.4-0.2-0.6c0-0.1-0.1-0.2-0.1-0.4v-0.1c0.2-0.3,0.1-0.7-0.1-1c0-0.1-0.1-0.1-0.1-0.2
		c-0.1-0.2-0.2-0.5-0.3-0.7s-0.1-0.5-0.1-0.7c0.1-0.4-0.1-0.7-0.3-1c-0.1-0.1-0.2-0.1-0.2-0.2c-0.1-0.1-0.2-0.3-0.2-0.4
		c0-0.3,0-0.6-0.1-0.9c0-0.1,0-0.2,0-0.2c0.2-0.2,0.1-0.5,0.1-0.8c0-0.1-0.1-0.2-0.1-0.3c0.1-0.1,0.1-0.2,0.1-0.3s0-0.2,0.1-0.2
		c0.1-0.1,0.1-0.2,0.2-0.3c0.1-0.3,0.2-0.5,0.3-0.8c0.2-0.3,0.1-0.6,0.3-0.9c0-0.1,0-0.1,0-0.2c-0.1-0.1,0-0.3,0.1-0.4
		c0.2-0.1,0.3-0.3,0.4-0.5c0-0.1,0.1-0.2,0.1-0.3c0.1-0.2,0.1-0.3,0.1-0.5l0,0c0-0.2,0.1-0.3,0.1-0.4c0-0.1,0-0.3,0-0.4
		c0.1-0.2,0.2-0.4,0.4-0.5s0.3-0.3,0.5-0.5c0.1-0.1,0.2-0.2,0.3-0.3l0.1-0.1c0.2,0,0.3-0.1,0.4-0.3l0.1-0.1c0.2,0,0.4-0.2,0.4-0.4
		c0.2-0.3,0.3-0.7,0.5-1c0-0.1,0.1-0.1,0.2-0.2c0.2-0.1,0.4-0.3,0.6-0.5c0.1-0.1,0.2-0.2,0.4-0.2c0.1-0.1,0.2-0.1,0.3-0.3l0.1-0.1
		c0.3-0.2,0.6-0.4,0.9-0.6c0.1,0,0.1-0.1,0.2-0.1s0.1-0.1,0.2-0.1c0.1-0.2,0.3-0.2,0.5-0.3c0.1,0,0.2-0.1,0.2-0.2
		c0.1-0.1,0.2-0.2,0.4-0.2c0.3-0.1,0.5-0.1,0.8-0.2c0.1,0,0.2-0.1,0.3-0.2c0.2-0.2,0.5-0.4,0.9-0.5c0.1,0,0.1,0,0.2,0
		c0.2,0,0.4,0,0.7,0c0.2,0,0.4,0,0.6,0.1c0.1,0.1,0.1,0.1,0.2,0c0.2,0,0.4-0.1,0.6-0.2c0.2-0.1,0.5-0.1,0.8-0.1
		c0.3,0.1,0.6,0.1,0.9,0.1c0.2,0,0.4,0,0.6,0.1s0.3,0.1,0.5,0.2c0.2,0,0.5,0,0.7,0.1c0.1,0,0.3,0,0.4-0.1c0.2,0.1,0.5,0.1,0.7,0
		v-0.1c0.3,0.1,0.5,0.2,0.8,0.1c0.2,0,0.3,0,0.5,0c0.2,0.1,0.5,0.1,0.7,0.1h0.1c0.1,0.1,0.2,0.1,0.3,0.2c0.1,0,0.2,0.1,0.3,0.1
		c0.1,0.1,0.2,0.1,0.4,0.1c0.1,0.1,0.1,0.2,0.1,0.3c0.1,0.1,0.2,0.3,0.3,0.3c0.2,0.1,0.3,0.3,0.3,0.5s0.1,0.3,0.2,0.4
		c0,0.1,0.1,0.1,0.1,0.2l0.1,0.1c0.2,0.1,0.3,0.2,0.4,0.4l0.1,0.1c0.1,0,0.3,0.1,0.3,0.3c0.1,0.1,0.1,0.2,0.2,0.3
		c0.2,0.1,0.3,0.3,0.4,0.5s0.2,0.3,0.4,0.5c0.1,0.1,0.1,0.1,0.2,0.2c0.2,0.2,0.5,0.5,0.7,0.7c0.1,0.1,0.2,0.2,0.2,0.3
		s0.1,0.1,0.1,0.2c0.2,0.2,0.2,0.4,0.2,0.6c0,0.1,0.1,0.2,0.1,0.3c0,0.2,0.1,0.4,0.2,0.6c0.1,0.2,0.2,0.3,0.3,0.5
		c0.1,0.1,0.1,0.2,0.1,0.3c0,0.2,0.2,0.5,0.4,0.6c0.1,0,0.1,0.1,0.1,0.2c0,0,0,0.1-0.1,0.1c-0.2,0.1-0.3,0.3-0.2,0.5
		c0,0.2,0,0.4-0.1,0.6c0,0.2,0,0.4,0.1,0.6c0.1,0.1,0.1,0.2,0.1,0.4c0,0.1,0,0.3,0.1,0.4c0,0.1,0.1,0.1,0.1,0.2c0,0,0.1,0.1,0.1,0.2
		c0,0.2,0,0.3,0,0.5c0.1,0.1,0.1,0.3,0.1,0.4c0,0.2,0,0.3,0.1,0.5s0.1,0.5,0,0.7s-0.1,0.4,0,0.6c0.1,0.3,0.1,0.6,0,0.9
		c0,0.1,0,0.2,0,0.3c0.1,0.2,0,0.5,0,0.7l-0.1,0.1c0,0.3,0,0.5,0,0.8c0,0.1,0,0.1,0,0.2c-0.1,0.1-0.1,0.3-0.1,0.5c0,0,0,0,0,0.1
		c-0.2,0.2-0.1,0.4,0,0.6c-0.1,0.2-0.2,0.4-0.4,0.6l-0.1,0.1c0,0.1-0.1,0.1-0.2,0.1c-0.2,0-0.3,0.1-0.4,0.3
		c-0.1,0.1-0.1,0.1-0.2,0.2c-0.4,0.2-0.6,0.8-0.4,1.2c0,0.1,0.1,0.1,0.1,0.2c-0.1,0.2-0.2,0.3-0.4,0.4c-0.2,0.1-0.4,0.3-0.5,0.4
		c-0.1,0.1-0.2,0.2-0.3,0.3s-0.2,0.1-0.3,0.2l-0.1,0.1c-0.2,0.1-0.4,0.1-0.6,0.3c-0.1,0.1-0.3,0.2-0.3,0.3L460.8,62z"/>
	<path class="st0" d="M507.3,62c-0.3,0.1-0.6,0.1-0.9,0.3c-0.2,0.1-0.3,0.1-0.5,0.1c-0.2,0-0.4,0.1-0.6,0.2
		c-0.1,0.1-0.3,0.1-0.5,0.1c-0.5-0.1-1-0.1-1.5,0c-0.1,0-0.3,0-0.4,0c-0.2,0-0.4,0-0.6,0c-0.2,0-0.3,0-0.5,0h-0.1
		c-0.2-0.1-0.5-0.1-0.8-0.1c-0.1,0-0.1,0-0.2,0s-0.3,0-0.4-0.1c-0.3-0.1-0.7-0.2-1.1-0.3c0,0-0.1,0-0.1-0.1
		c-0.5-0.1-0.9-0.4-1.3-0.7c-0.3-0.3-0.6-0.6-0.9-0.8c0,0-0.1,0-0.1-0.1c-0.1-0.3-0.4-0.5-0.6-0.7c-0.2-0.1-0.4-0.2-0.5-0.4
		c-0.1-0.1-0.3-0.2-0.5-0.3c-0.2-0.1-0.5-0.2-0.7-0.4c-0.1-0.1-0.2-0.1-0.3-0.2c-0.2-0.2-0.5-0.3-0.8-0.4c-0.2,0-0.3-0.1-0.4-0.2
		c-0.1-0.1-0.3-0.2-0.5-0.3c-0.2-0.1-0.3-0.3-0.4-0.5V57c-0.2-0.2-0.4-0.5-0.6-0.7c-0.1,0-0.1-0.1-0.1-0.2c-0.1-0.1-0.2-0.2-0.2-0.3
		c0,0,0-0.1-0.1-0.1c0-0.2-0.2-0.4-0.2-0.6c0-0.1-0.1-0.2-0.1-0.4v-0.1c0.2-0.3,0.1-0.7-0.1-1c0-0.1-0.1-0.1-0.1-0.2
		c-0.1-0.2-0.2-0.5-0.3-0.7s-0.1-0.5-0.1-0.7c0.1-0.4-0.1-0.7-0.3-1c-0.1-0.1-0.2-0.1-0.2-0.2c-0.1-0.1-0.2-0.3-0.2-0.4
		c0-0.3,0-0.6-0.1-0.9c0-0.1,0-0.2,0-0.2c0.2-0.2,0.1-0.5,0.1-0.8c0-0.1-0.1-0.2-0.1-0.3c0.1-0.1,0.1-0.2,0.1-0.3s0-0.2,0.1-0.2
		c0.1-0.1,0.1-0.2,0.2-0.3c0.1-0.3,0.2-0.5,0.3-0.8c0.2-0.3,0.1-0.6,0.3-0.9c0-0.1,0-0.1,0-0.2c-0.1-0.1,0-0.3,0.1-0.4
		c0.2-0.1,0.3-0.3,0.4-0.5c0-0.1,0.1-0.2,0.1-0.3c0.1-0.2,0.1-0.3,0.1-0.5l0,0c0-0.2,0.1-0.3,0.1-0.4c0-0.1,0-0.3,0-0.4
		c0.1-0.2,0.2-0.4,0.4-0.5c0.2-0.1,0.3-0.3,0.5-0.5c0.1-0.1,0.2-0.2,0.3-0.3l0.1-0.1c0.2,0,0.3-0.1,0.4-0.3l0.1-0.1
		c0.2,0,0.4-0.2,0.4-0.4c0.2-0.3,0.3-0.7,0.5-1c0-0.1,0.1-0.1,0.2-0.2c0.2-0.1,0.4-0.3,0.6-0.5c0.1-0.1,0.2-0.2,0.4-0.2
		c0.1-0.1,0.2-0.1,0.3-0.3l0.1-0.1c0.3-0.2,0.6-0.4,0.9-0.6c0.1,0,0.1-0.1,0.2-0.1s0.1-0.1,0.2-0.1c0.1-0.2,0.3-0.2,0.5-0.3
		c0.1,0,0.2-0.1,0.2-0.2c0.1-0.1,0.2-0.2,0.4-0.2c0.3-0.1,0.5-0.1,0.8-0.2c0.1,0,0.2-0.1,0.3-0.2c0.2-0.2,0.5-0.4,0.9-0.5
		c0.1,0,0.1,0,0.2,0c0.2,0,0.4,0,0.7,0c0.2,0,0.4,0,0.6,0.1c0.1,0.1,0.1,0.1,0.2,0c0.2,0,0.4-0.1,0.6-0.2c0.2-0.1,0.5-0.1,0.8-0.1
		c0.3,0.1,0.6,0.1,0.9,0.1c0.2,0,0.4,0,0.6,0.1c0.2,0.1,0.3,0.1,0.5,0.2c0.2,0,0.5,0,0.7,0.1c0.1,0,0.3,0,0.4-0.1
		c0.2,0.1,0.5,0.1,0.7,0v-0.1c0.3,0.1,0.5,0.2,0.8,0.1c0.2,0,0.3,0,0.5,0c0.2,0.1,0.5,0.1,0.7,0.1h0.1c0.1,0.1,0.2,0.1,0.3,0.2
		c0.1,0,0.2,0.1,0.3,0.1c0.1,0.1,0.2,0.1,0.4,0.1l0.1,0.3c0.1,0.1,0.2,0.3,0.3,0.3c0.2,0.1,0.3,0.3,0.3,0.5s0.1,0.3,0.2,0.4
		c0,0.1,0.1,0.1,0.1,0.2l0.1,0.1c0.2,0.1,0.3,0.2,0.4,0.4l0.1,0.1c0.1,0,0.3,0.1,0.3,0.3c0.1,0.1,0.1,0.2,0.2,0.3
		c0.2,0.1,0.3,0.3,0.4,0.5c0.1,0.2,0.2,0.3,0.4,0.5c0.1,0.1,0.1,0.1,0.2,0.2c0.2,0.2,0.5,0.5,0.7,0.7c0.1,0.1,0.2,0.2,0.2,0.3
		s0.1,0.1,0.1,0.2c0.2,0.2,0.2,0.4,0.2,0.6c0,0.1,0.1,0.2,0.1,0.3c0,0.2,0.1,0.4,0.2,0.6c0.1,0.2,0.2,0.3,0.3,0.5
		c0.1,0.1,0.1,0.2,0.1,0.3c0,0.2,0.2,0.5,0.4,0.6c0.1,0,0.1,0.1,0.1,0.2c0,0,0,0.1-0.1,0.1c-0.2,0.1-0.3,0.3-0.2,0.5
		c0,0.2,0,0.4-0.1,0.6c0,0.2,0,0.4,0.1,0.6c0.1,0.1,0.1,0.2,0.1,0.4c0,0.1,0,0.3,0.1,0.4c0,0.1,0.1,0.1,0.1,0.2c0,0,0.1,0.1,0.1,0.2
		c0,0.2,0,0.3,0,0.5c0.1,0.1,0.1,0.3,0.1,0.4c0,0.2,0,0.3,0.1,0.5c0.1,0.2,0.1,0.5,0,0.7c-0.1,0.2-0.1,0.4,0,0.6
		c0.1,0.3,0.1,0.6,0,0.9c0,0.1,0,0.2,0,0.3c0.1,0.2,0,0.5,0,0.7l-0.1,0.1c0,0.3,0,0.5,0,0.8c0,0.1,0,0.1,0,0.2
		c-0.1,0.1-0.1,0.3-0.1,0.5c0,0,0,0,0,0.1c-0.1,0.2-0.1,0.4,0,0.6c-0.1,0.2-0.2,0.4-0.4,0.6l-0.1,0.1c0,0.1-0.1,0.1-0.2,0.1
		c-0.2,0-0.3,0.1-0.4,0.3c-0.1,0.1-0.1,0.1-0.2,0.2c-0.4,0.2-0.6,0.8-0.4,1.2c0,0.1,0.1,0.1,0.1,0.2c-0.1,0.2-0.2,0.3-0.4,0.4
		c-0.2,0.1-0.4,0.3-0.5,0.4c-0.1,0.1-0.2,0.2-0.3,0.3c-0.1,0.1-0.2,0.1-0.3,0.2l-0.1,0.1c-0.2,0.1-0.4,0.1-0.6,0.3
		c-0.1,0.1-0.3,0.2-0.3,0.3L507.3,62z"/>
	<path class="st0" d="M550.9,62c-0.3,0.1-0.6,0.1-0.9,0.3c-0.2,0.1-0.3,0.1-0.5,0.1s-0.4,0.1-0.6,0.2c-0.1,0.1-0.3,0.1-0.5,0.1
		c-0.5-0.1-1-0.1-1.5,0c-0.1,0-0.3,0-0.4,0c-0.2,0-0.4,0-0.6,0c-0.2,0-0.3,0-0.5,0h-0.1c-0.2-0.1-0.5-0.1-0.8-0.1
		c-0.1,0-0.1,0-0.2,0c-0.1,0-0.3,0-0.4-0.1c-0.3-0.1-0.7-0.2-1.1-0.3c0,0-0.1,0-0.1-0.1c-0.5-0.1-0.9-0.4-1.3-0.7
		c-0.3-0.3-0.6-0.6-0.9-0.8c0,0-0.1,0-0.1-0.1c-0.1-0.3-0.4-0.5-0.6-0.7c-0.2-0.1-0.4-0.2-0.5-0.4c-0.1-0.1-0.3-0.2-0.5-0.3
		c-0.2-0.1-0.5-0.2-0.7-0.4c-0.1-0.1-0.2-0.1-0.3-0.2c-0.2-0.2-0.5-0.3-0.8-0.4c-0.2,0-0.3-0.1-0.4-0.2c-0.1-0.1-0.3-0.2-0.5-0.3
		s-0.3-0.3-0.4-0.5V57c-0.2-0.2-0.4-0.5-0.6-0.7c-0.1,0-0.1-0.1-0.1-0.2c-0.1-0.1-0.2-0.2-0.2-0.3l-0.1-0.1c0-0.2-0.2-0.4-0.2-0.6
		c0-0.1-0.1-0.2-0.1-0.4v-0.1c0.2-0.3,0.1-0.7-0.1-1c0-0.1-0.1-0.1-0.1-0.2c-0.1-0.2-0.2-0.5-0.3-0.7c-0.1-0.2-0.1-0.5-0.1-0.7
		c0.1-0.4-0.1-0.7-0.3-1c-0.1-0.1-0.2-0.1-0.2-0.2c-0.1-0.1-0.2-0.3-0.2-0.4c0-0.3,0-0.6-0.1-0.9c0-0.1,0-0.2,0-0.2
		c0.2-0.2,0.1-0.5,0.1-0.8c0-0.1-0.1-0.2-0.1-0.3c0.1-0.1,0.1-0.2,0.1-0.3s0-0.2,0.1-0.2c0.1-0.1,0.1-0.2,0.2-0.3
		c0.1-0.3,0.2-0.5,0.3-0.8c0.2-0.3,0.1-0.6,0.3-0.9c0-0.1,0-0.1,0-0.2c-0.1-0.1,0-0.3,0.1-0.4c0.2-0.1,0.3-0.3,0.4-0.5
		c0-0.1,0.1-0.2,0.1-0.3c0.1-0.2,0.1-0.3,0.1-0.5l0,0c0-0.2,0.1-0.3,0.1-0.4c0-0.1,0-0.3,0-0.4c0.1-0.2,0.2-0.4,0.4-0.5
		s0.3-0.3,0.5-0.5c0.1-0.1,0.2-0.2,0.3-0.3l0.1-0.1c0.2,0,0.3-0.1,0.4-0.3l0.1-0.1c0.2,0,0.4-0.2,0.4-0.4c0.2-0.3,0.3-0.7,0.5-1
		c0-0.1,0.1-0.1,0.2-0.2c0.2-0.1,0.4-0.3,0.6-0.5c0.1-0.1,0.2-0.2,0.4-0.2c0.1-0.1,0.2-0.1,0.3-0.3l0.1-0.1c0.3-0.2,0.6-0.4,0.9-0.6
		c0.1,0,0.1-0.1,0.2-0.1c0.1,0,0.1-0.1,0.2-0.1c0.1-0.2,0.3-0.2,0.5-0.3c0.1,0,0.2-0.1,0.2-0.2c0.1-0.1,0.2-0.2,0.4-0.2
		c0.3-0.1,0.5-0.1,0.8-0.2c0.1,0,0.2-0.1,0.3-0.2c0.2-0.2,0.5-0.4,0.9-0.5c0.1,0,0.1,0,0.2,0c0.2,0,0.4,0,0.7,0c0.2,0,0.4,0,0.6,0.1
		c0.1,0.1,0.1,0.1,0.2,0c0.2,0,0.4-0.1,0.5-0.2c0.2-0.1,0.5-0.1,0.8-0.1c0.3,0.1,0.6,0.1,0.9,0.1c0.2,0,0.4,0,0.6,0.1
		s0.3,0.1,0.5,0.2c0.2,0,0.5,0,0.7,0.1c0.1,0,0.3,0,0.4-0.1c0.2,0.1,0.5,0.1,0.7,0v-0.1c0.3,0.1,0.5,0.2,0.8,0.1c0.2,0,0.3,0,0.5,0
		c0.2,0.1,0.5,0.1,0.7,0.1h0.1c0.1,0.1,0.2,0.1,0.3,0.2c0.1,0,0.2,0.1,0.3,0.1c0.1,0.1,0.2,0.1,0.4,0.1l0.1,0.3
		c0.1,0.1,0.2,0.3,0.3,0.3c0.2,0.1,0.3,0.3,0.3,0.5s0.1,0.3,0.2,0.4c0,0.1,0.1,0.1,0.1,0.2l0.1,0.1c0.2,0.1,0.3,0.2,0.4,0.4l0.1,0.1
		c0.1,0,0.3,0.1,0.3,0.3c0.1,0.1,0.1,0.2,0.2,0.3c0.2,0.1,0.3,0.3,0.4,0.5s0.2,0.3,0.4,0.5c0.1,0.1,0.1,0.1,0.2,0.2
		c0.2,0.2,0.5,0.5,0.7,0.7c0.1,0.1,0.2,0.2,0.2,0.3s0.1,0.1,0.1,0.2c0.2,0.2,0.2,0.4,0.2,0.6c0,0.1,0.1,0.2,0.1,0.3
		c0,0.2,0.1,0.4,0.2,0.6c0.1,0.2,0.2,0.3,0.3,0.5c0.1,0.1,0.1,0.2,0.1,0.3c0,0.2,0.2,0.5,0.4,0.6c0.1,0,0.1,0.1,0.1,0.2
		c0,0,0,0.1-0.1,0.1c-0.2,0.1-0.3,0.3-0.2,0.5c0,0.2,0,0.4-0.1,0.6c0,0.2,0,0.4,0.1,0.6c0.1,0.1,0.1,0.2,0.1,0.4
		c0,0.1,0,0.3,0.1,0.4c0,0.1,0.1,0.1,0.1,0.2c0,0,0.1,0.1,0.1,0.2c0,0.2,0,0.3,0,0.5c0.1,0.1,0.1,0.3,0.1,0.4c0,0.2,0,0.3,0.1,0.5
		c0.1,0.2,0.1,0.5,0,0.7c-0.1,0.2-0.1,0.4,0,0.6c0.1,0.3,0.1,0.6,0,0.9c0,0.1,0,0.2,0,0.3c0.1,0.2,0,0.5,0,0.7l-0.1,0.1
		c0,0.3,0,0.5,0,0.8c0,0.1,0,0.1,0,0.2c-0.1,0.1-0.1,0.3-0.1,0.5c0,0,0,0,0,0.1c-0.2,0.2-0.1,0.4,0,0.6c-0.1,0.2-0.2,0.4-0.4,0.6
		l-0.1,0.1c0,0.1-0.1,0.1-0.2,0.1c-0.2,0-0.3,0.1-0.4,0.3c-0.1,0.1-0.1,0.1-0.2,0.2c-0.4,0.2-0.6,0.8-0.4,1.2c0,0.1,0.1,0.1,0.1,0.2
		c-0.1,0.2-0.2,0.3-0.4,0.4c-0.2,0.1-0.4,0.3-0.5,0.4c-0.1,0.1-0.2,0.2-0.3,0.3c-0.1,0.1-0.2,0.1-0.3,0.2l-0.1,0.1
		c-0.2,0.1-0.4,0.1-0.6,0.3c-0.1,0.1-0.3,0.2-0.3,0.3L550.9,62z"/>
	<path class="st0" d="M596.4,62c-0.3,0.1-0.6,0.1-0.9,0.3c-0.2,0.1-0.3,0.1-0.5,0.1s-0.4,0.1-0.6,0.2c-0.1,0.1-0.3,0.1-0.5,0.1
		c-0.5-0.1-1-0.1-1.5,0c-0.1,0-0.3,0-0.4,0c-0.2,0-0.4,0-0.6,0s-0.3,0-0.5,0h-0.1c-0.2-0.1-0.5-0.1-0.8-0.1c-0.1,0-0.1,0-0.2,0
		c-0.1,0-0.3,0-0.4-0.1c-0.3-0.1-0.7-0.2-1.1-0.3c0,0-0.1,0-0.1-0.1c-0.5-0.1-0.9-0.4-1.3-0.7c-0.3-0.3-0.6-0.6-0.9-0.8
		c0,0-0.1,0-0.1-0.1c-0.1-0.3-0.4-0.5-0.6-0.7c-0.2-0.1-0.4-0.2-0.5-0.4c-0.1-0.1-0.3-0.2-0.5-0.3s-0.5-0.2-0.7-0.4
		c-0.1-0.1-0.2-0.1-0.3-0.2c-0.2-0.2-0.5-0.3-0.8-0.4c-0.2,0-0.3-0.1-0.4-0.2c-0.1-0.1-0.3-0.2-0.5-0.3s-0.3-0.3-0.4-0.5V57
		c-0.2-0.2-0.4-0.5-0.6-0.7c-0.1,0-0.1-0.1-0.1-0.2c-0.1-0.1-0.2-0.2-0.2-0.3c0,0,0-0.1-0.1-0.1c0-0.2-0.2-0.4-0.2-0.6
		c0-0.1-0.1-0.2-0.1-0.4v-0.1c0.2-0.3,0.1-0.7-0.1-1c0-0.1-0.1-0.1-0.1-0.2c-0.1-0.2-0.2-0.5-0.3-0.7c-0.1-0.2-0.1-0.5-0.1-0.7
		c0.1-0.4-0.1-0.7-0.3-1c-0.1-0.1-0.2-0.1-0.2-0.2c-0.1-0.1-0.2-0.3-0.2-0.4c0-0.3,0-0.6-0.1-0.9c0-0.1,0-0.2,0-0.2
		c0.2-0.2,0.1-0.5,0.1-0.8c0-0.1-0.1-0.2-0.1-0.3c0.1-0.1,0.1-0.2,0.1-0.3s0-0.2,0.1-0.2c0.1-0.1,0.1-0.2,0.2-0.3
		c0.1-0.3,0.2-0.5,0.3-0.8c0.2-0.3,0.1-0.6,0.3-0.9c0-0.1,0-0.1,0-0.2c-0.1-0.1,0-0.3,0.1-0.4c0.2-0.1,0.3-0.3,0.4-0.5
		c0-0.1,0.1-0.2,0.1-0.3c0.1-0.2,0.1-0.3,0.1-0.5l0,0c0-0.2,0.1-0.3,0.1-0.4c0-0.1,0-0.3,0-0.4c0.1-0.2,0.2-0.4,0.4-0.5
		c0.2-0.1,0.3-0.3,0.5-0.5c0.1-0.1,0.2-0.2,0.3-0.3l0.1-0.1c0.2,0,0.3-0.1,0.4-0.3l0.1-0.1c0.2,0,0.4-0.2,0.4-0.4
		c0.2-0.3,0.3-0.7,0.5-1c0-0.1,0.1-0.1,0.2-0.2c0.2-0.1,0.4-0.3,0.6-0.5c0.1-0.1,0.2-0.2,0.4-0.2c0.1-0.1,0.2-0.1,0.3-0.3l0.1-0.1
		c0.3-0.2,0.6-0.4,0.9-0.6c0.1,0,0.1-0.1,0.2-0.1c0.1,0,0.1-0.1,0.2-0.1c0.1-0.2,0.3-0.2,0.5-0.3c0.1,0,0.2-0.1,0.2-0.2
		c0.1-0.1,0.2-0.2,0.4-0.2c0.3-0.1,0.5-0.1,0.8-0.2c0.1,0,0.2-0.1,0.3-0.2c0.2-0.2,0.5-0.4,0.9-0.5c0.1,0,0.1,0,0.2,0
		c0.2,0,0.4,0,0.7,0c0.2,0,0.4,0,0.6,0.1c0.1,0.1,0.1,0.1,0.2,0c0.2,0,0.4-0.1,0.5-0.2c0.2-0.1,0.5-0.1,0.8-0.1
		c0.3,0.1,0.6,0.1,0.9,0.1c0.2,0,0.4,0,0.5,0.1c0.2,0.1,0.3,0.1,0.5,0.2c0.2,0,0.5,0,0.7,0.1c0.1,0,0.3,0,0.4-0.1
		c0.2,0.1,0.5,0.1,0.7,0v-0.1c0.3,0.1,0.5,0.2,0.8,0.1c0.2,0,0.3,0,0.5,0c0.2,0.1,0.5,0.1,0.7,0.1h0.1c0.1,0.1,0.2,0.1,0.3,0.2
		c0.1,0,0.2,0.1,0.3,0.1c0.1,0.1,0.2,0.1,0.4,0.1l0.1,0.3c0.1,0.1,0.2,0.3,0.3,0.3c0.2,0.1,0.3,0.3,0.3,0.5s0.1,0.3,0.2,0.4
		c0,0.1,0.1,0.1,0.1,0.2l0.1,0.1c0.2,0.1,0.3,0.2,0.4,0.4l0.1,0.1c0.1,0,0.3,0.1,0.3,0.3c0.1,0.1,0.1,0.2,0.2,0.3
		c0.2,0.1,0.3,0.3,0.4,0.5c0.1,0.2,0.2,0.3,0.4,0.5c0.1,0.1,0.1,0.1,0.2,0.2c0.2,0.2,0.5,0.5,0.7,0.7c0.1,0.1,0.2,0.2,0.2,0.3
		s0.1,0.1,0.1,0.2c0.2,0.2,0.2,0.4,0.2,0.6c0,0.1,0.1,0.2,0.1,0.3c0,0.2,0.1,0.4,0.2,0.6c0.1,0.2,0.2,0.3,0.3,0.5
		c0.1,0.1,0.1,0.2,0.1,0.3c0,0.2,0.2,0.5,0.4,0.6c0.1,0,0.1,0.1,0.1,0.2c0,0,0,0.1-0.1,0.1c-0.2,0.1-0.3,0.3-0.2,0.5
		c0,0.2,0,0.4-0.1,0.6c0,0.2,0,0.4,0.1,0.6c0.1,0.1,0.1,0.2,0.1,0.4c0,0.1,0,0.3,0.1,0.4c0,0.1,0.1,0.1,0.1,0.2c0,0,0.1,0.1,0.1,0.2
		c0,0.2,0,0.3,0,0.5c0.1,0.1,0.1,0.3,0.1,0.4c0,0.2,0,0.3,0.1,0.5c0.1,0.2,0.1,0.5,0,0.7c-0.1,0.2-0.1,0.4,0,0.6
		c0.1,0.3,0.1,0.6,0,0.9c0,0.1,0,0.2,0,0.3c0.1,0.2,0,0.5,0,0.7l-0.1,0.1c0,0.3,0,0.5,0,0.8c0,0.1,0,0.1,0,0.2
		c-0.1,0.1-0.1,0.3-0.1,0.5c0,0,0,0,0,0.1c-0.1,0.2-0.1,0.4,0,0.6c-0.1,0.2-0.2,0.4-0.4,0.6l-0.1,0.1c0,0.1-0.1,0.1-0.2,0.1
		c-0.2,0-0.3,0.1-0.4,0.3c-0.1,0.1-0.1,0.1-0.2,0.2c-0.4,0.2-0.6,0.8-0.4,1.2c0,0.1,0.1,0.1,0.1,0.2c-0.1,0.2-0.2,0.3-0.4,0.4
		c-0.2,0.1-0.4,0.3-0.5,0.4c-0.1,0.1-0.2,0.2-0.3,0.3s-0.2,0.1-0.3,0.2l-0.1,0.1c-0.2,0.1-0.4,0.1-0.6,0.3c-0.1,0.1-0.3,0.2-0.3,0.3
		L596.4,62z"/>
	<path class="st1" d="M346,68.1c0.4-0.1,0.8,0,1.2,0c0.2,0,0.3,0,0.5,0c0-0.2,0-0.3,0-0.5c0.2-1,0.2-2.1,0-3.1c0-0.5,0-0.9,0.1-1.4
		c0.1-1.1,0.2-2.2,0.1-3.3c-0.2-2.1,0.1-4.2,0-6.3c0-0.2,0-0.4,0.1-0.6c0.4-0.8,0.5-1.7,0.2-2.5c-0.1-0.5-0.1-1-0.1-1.6
		s0-1.2-0.1-1.8c0-0.3,0-0.6-0.1-0.9c-0.9,0-1.9,0-2.8,0.1c-0.7,0-1.3,0-2-0.1c-0.5,0-0.9-0.1-1.4-0.1c-0.1,0.2-0.1,0.3-0.2,0.5
		c-0.1,0.2-0.2,0.5-0.2,0.7c0.1,2.6-0.2,5.3,0,7.9c0.1,1.4,0,2.8-0.1,4.2c-0.1,0.6-0.1,1.1-0.1,1.7c0.2,1.3,0.3,2.6,0,3.9
		c-0.1,1.1-0.1,2.2-0.1,3.4C342.8,68.5,344.4,68.4,346,68.1z"/>
	<path class="st1" d="M415.2,67.6c0.4-0.1,0.8,0,1.2,0c0.2,0,0.3,0,0.5,0c0-0.2,0-0.3,0-0.5c0.2-1,0.2-2.1,0-3.1
		c0-0.5,0-0.9,0.1-1.4c0.1-1.1,0.2-2.2,0.1-3.3c-0.2-2.1,0.1-4.2,0-6.3c0-0.2,0-0.4,0.1-0.6c0.4-0.8,0.5-1.7,0.2-2.5
		c-0.1-0.5-0.1-1-0.1-1.6s0-1.2-0.1-1.8c0-0.3,0-0.6-0.1-0.9c-0.9,0-1.9,0-2.8,0.1c-0.7,0-1.3,0-2-0.1c-0.5,0-0.9-0.1-1.4-0.1
		c-0.1,0.2-0.1,0.3-0.2,0.5s-0.2,0.5-0.2,0.7c0.1,2.6-0.2,5.3,0,7.9c0.1,1.4,0,2.8-0.1,4.2c-0.1,0.6-0.1,1.1-0.1,1.7
		c0.2,1.3,0.3,2.6,0,3.9c-0.1,1.1-0.1,2.2-0.1,3.4C411.9,68.1,413.6,68,415.2,67.6z"/>
	<path class="st1" d="M484.3,67.2c0.4-0.1,0.8,0,1.2,0c0.2,0,0.3,0,0.5,0c0-0.2,0-0.3,0-0.5c0.2-1,0.2-2.1,0-3.1
		c0-0.5,0-0.9,0.1-1.4c0.1-1.1,0.2-2.2,0.1-3.3c-0.2-2.1,0.1-4.2,0-6.3c0-0.2,0-0.4,0.1-0.6c0.4-0.8,0.5-1.7,0.2-2.5
		c-0.1-0.5-0.1-1-0.1-1.6s0-1.2-0.1-1.8c0-0.3,0-0.6-0.1-0.9c-0.9,0-1.9,0-2.8,0.1c-0.7,0-1.3,0-2-0.1l-1.4-0.1
		c-0.1,0.2-0.1,0.3-0.2,0.5s-0.2,0.5-0.2,0.7c0.1,2.6-0.2,5.3,0,7.9c0.1,1.4,0,2.8-0.1,4.2c-0.1,0.6-0.1,1.1-0.1,1.7
		c0.2,1.3,0.3,2.6,0,3.9c-0.1,1.1-0.1,2.2-0.1,3.4C481.1,67.6,482.7,67.5,484.3,67.2z"/>
	<path class="st1" d="M549.5,66.8c0.4-0.1,0.8,0,1.2,0c0.2,0,0.3,0,0.5,0c0-0.2,0-0.3,0-0.5c0.2-1,0.2-2.1,0-3.1
		c0-0.5,0-0.9,0.1-1.4c0.1-1.1,0.2-2.2,0.1-3.3c-0.2-2.1,0.1-4.2,0-6.3c0-0.2,0-0.4,0.1-0.6c0.4-0.8,0.5-1.7,0.2-2.5
		c-0.1-0.5-0.1-1-0.1-1.6s0-1.2-0.1-1.8c0-0.3,0-0.6-0.1-0.9c-0.9,0-1.9,0-2.8,0.1c-0.7,0-1.3,0-2-0.1c-0.5,0-0.9-0.1-1.4-0.1
		c-0.1,0.2-0.1,0.3-0.2,0.5c-0.1,0.2-0.2,0.5-0.2,0.7c0.1,2.6-0.2,5.3,0,7.9c0.1,1.4,0,2.8-0.1,4.2c-0.1,0.6-0.1,1.1-0.1,1.7
		c0.2,1.3,0.3,2.6,0,3.9c-0.1,1.1-0.1,2.2-0.1,3.4C546.3,67.2,547.9,67.1,549.5,66.8z"/>
	<path class="st1" d="M618.7,66.3c0.4-0.1,0.8,0,1.2,0c0.2,0,0.3,0,0.5,0c0-0.2,0-0.3,0-0.5c0.2-1,0.2-2.1,0-3.1
		c0-0.5,0-0.9,0.1-1.4c0.1-1.1,0.2-2.2,0.1-3.3c-0.2-2.1,0.1-4.2,0-6.3c0-0.2,0-0.4,0.1-0.6c0.4-0.8,0.5-1.7,0.2-2.5
		c-0.1-0.5-0.1-1-0.1-1.6s0-1.2-0.1-1.8c0-0.3,0-0.6-0.1-0.9c-0.9,0-1.9,0-2.8,0.1c-0.7,0-1.3,0-2-0.1c-0.5,0-0.9-0.1-1.4-0.1
		c-0.1,0.2-0.1,0.3-0.2,0.5c-0.1,0.2-0.2,0.5-0.2,0.7c0.1,2.6-0.2,5.3,0,7.9c0.1,1.4,0,2.8-0.1,4.2c-0.1,0.6-0.1,1.1-0.1,1.7
		c0.2,1.3,0.3,2.6,0,3.9c-0.1,1.1-0.1,2.2-0.1,3.4C615.5,66.7,617.1,66.6,618.7,66.3z"/>
	<path class="st1" d="M345.8,38.5c0.4-0.1,0.8,0,1.2,0c0.3,0,0.6,0,0.9,0.1c0.1-1.2,0.1-2.4,0.1-3.6c-0.1-3,0-5.9,0.2-8.9
		c0-0.5-0.1-0.9-0.2-1.4c-0.3-2-0.4-4-0.4-6.1c-0.1-1.4,0.1-2.9-0.6-4.2c-0.6-0.2-1.3-0.4-1.9-0.4c-1.1,0.1-2.1-0.3-2.8-1.1
		c-0.1-0.1-0.2-0.2-0.4-0.3c0,0.1,0,0.3,0,0.4c-0.3,3.7-0.3,7.4-0.2,11.1c0.1,3.1-0.4,6.2-0.3,9.4c0.1,1.6,0.2,3.1,0.3,4.7
		c0,0.2,0,0.3,0,0.5C343,38.9,344.5,38.8,345.8,38.5z"/>
	<path class="st1" d="M415,38c0.4-0.1,0.8,0,1.2,0c0.3,0,0.6,0,0.9,0.1c0.1-1.2,0.1-2.4,0.1-3.6c-0.1-3,0-5.9,0.2-8.9
		c0-0.5-0.1-0.9-0.2-1.4c-0.3-2-0.4-4-0.4-6.1c-0.1-1.4,0.1-2.9-0.6-4.2c-0.6-0.2-1.3-0.4-1.9-0.4c-1.1,0.1-2.1-0.3-2.8-1.1
		c-0.1-0.1-0.2-0.2-0.4-0.3c0,0.1,0,0.3,0,0.4c-0.3,3.7-0.3,7.4-0.2,11.1c0.1,3.1-0.4,6.2-0.3,9.4c0.1,1.6,0.2,3.1,0.3,4.7
		c0,0.2,0,0.3,0,0.5C412.2,38.4,413.6,38.3,415,38z"/>
	<path class="st1" d="M484.1,37.5c0.4-0.1,0.8,0,1.2,0c0.3,0,0.6,0,0.9,0.1c0.1-1.2,0.1-2.4,0.1-3.6c-0.1-3,0-5.9,0.2-8.9
		c0-0.5-0.1-0.9-0.2-1.4c-0.3-2-0.4-4-0.4-6.1c-0.1-1.4,0.1-2.9-0.6-4.2c-0.6-0.2-1.3-0.4-1.9-0.4c-1.1,0.1-2.1-0.3-2.8-1.1
		c-0.1-0.1-0.2-0.2-0.4-0.3c0,0.1,0,0.3,0,0.4c-0.3,3.7-0.3,7.4-0.2,11.1c0.1,3.1-0.4,6.2-0.3,9.4c0.1,1.6,0.2,3.1,0.3,4.7
		c0,0.2,0,0.3,0,0.5C481.4,38,482.8,37.8,484.1,37.5z"/>
	<path class="st1" d="M549.4,37.1c0.4-0.1,0.8,0,1.2,0c0.3,0,0.6,0,0.9,0.1c0.1-1.2,0.1-2.4,0.1-3.6c-0.1-3,0-5.9,0.2-8.9
		c0-0.5-0.1-0.9-0.2-1.4c-0.3-2-0.4-4-0.4-6.1c-0.1-1.4,0.1-2.9-0.6-4.2c-0.6-0.2-1.3-0.4-1.9-0.4c-1.1,0.1-2.1-0.3-2.8-1.1
		c-0.1-0.1-0.2-0.2-0.4-0.3c0,0.1,0,0.3,0,0.4c-0.3,3.7-0.3,7.4-0.2,11.1c0.1,3.1-0.4,6.2-0.3,9.4c0.1,1.6,0.2,3.1,0.3,4.7
		c0,0.2,0,0.3,0,0.5C546.6,37.5,548,37.4,549.4,37.1z"/>
	<path class="st1" d="M618.5,36.7c0.4-0.1,0.8,0,1.2,0c0.3,0,0.6,0,0.9,0.1c0.1-1.2,0.1-2.4,0.1-3.6c-0.1-3,0-5.9,0.2-8.9
		c0-0.5-0.1-0.9-0.2-1.4c-0.3-2-0.4-4-0.4-6.1c-0.1-1.4,0.1-2.9-0.6-4.2c-0.6-0.2-1.3-0.4-1.9-0.4c-1.1,0.1-2.1-0.3-2.8-1.1
		c-0.1-0.1-0.2-0.2-0.4-0.3c0,0.1,0,0.3,0,0.4c-0.3,3.7-0.3,7.4-0.2,11.1c0.1,3.1-0.4,6.2-0.3,9.4c0.1,1.6,0.2,3.1,0.3,4.7
		c0,0.2,0,0.3,0,0.5C615.7,37.1,617.1,37,618.5,36.7z"/>
	<path class="st1" d="M620.2,82c0.3-1.2,0.3-2.5,0.1-3.7c-0.1-1.1-0.1-2.1-0.2-3.2c-0.8,0-1.6,0-2.4,0c-0.7,0-1.3,0-2-0.1
		s-1.4-0.1-2.1-0.1c0.1,1.2,0.1,2.3,0.2,3.5c0.2,1.6,0.2,3.1-0.2,4.7c-0.1,0.4-0.2,0.8-0.1,1.2c0.6,2.1-0.1,4.1-0.2,6.1
		c0,0.4,0,0.8-0.1,1.2c-1,0.1-2.1,0.2-3.1,0.3c-0.7,0.1-1.5,0.1-2.2,0.1s-1.3,0-2,0.2c-1,0.4-2.2,0.3-3.1-0.2
		c-0.2-0.1-0.5-0.2-0.7-0.1c-2.6,0.2-5.3-0.1-7.9,0.2c-1.4,0.1-2.8,0-4.2-0.1c-0.6-0.1-1.2-0.1-1.7,0c-1.3,0.3-2.6,0.3-4,0.1
		c-4.4-0.2-8.8,0-13.1,0.4c-1.5,0.3-3.1,0.3-4.7,0c-0.4-0.1-0.8-0.1-1.2,0c-0.5,0.1-1,0.2-1.5,0.3c-0.9-0.1-1.8-0.1-2.7-0.2
		c-0.6-0.1-1.3-0.1-1.9-0.1c-1.7,0-3.4-0.1-5.1-0.2c0,0.1,0,0.1,0,0.2c-0.3,0-0.7,0-1,0c-0.9,0-1.8,0-2.7,0c0.1-1.5,0.2-2.9,0.3-4.4
		c0-1.6,0.6-3.2,0.1-4.9c-0.1-0.3-0.1-0.7,0.1-1c0.3-1.2,0.3-2.5,0.1-3.7c-0.1-1.1-0.1-2.1-0.2-3.2c-0.8,0-1.6,0-2.4,0
		c-0.7,0-1.3,0-2-0.1s-1.4-0.1-2.1-0.1c0.1,1.2,0.1,2.3,0.2,3.5c0.2,1.6,0.2,3.1-0.2,4.7c-0.1,0.4-0.2,0.8-0.1,1.2
		c0.6,2.1-0.1,4.1-0.2,6.1c0,0.5-0.1,1-0.1,1.5c-0.1,0-0.2,0-0.3,0c-1.6,0.1-3.1,0.2-4.7,0.3c-0.7,0-1.5,0-2.2,0.1
		c-0.7,0-1.3,0-2,0.1c-1,0.4-2.2,0.3-3.1-0.2c-0.2-0.1-0.5-0.2-0.7-0.2c-2.6,0.1-5.3-0.3-7.9,0c-1.4,0-2.8,0-4.2-0.2
		c-0.6-0.1-1.1-0.1-1.7-0.1c-1.3,0.2-2.6,0.2-4,0c-4.4-0.3-8.8-0.2-13.1,0.1c-1.6,0.2-3.1,0.2-4.7-0.2c-0.4-0.1-0.8-0.2-1.2-0.1
		c-2.1,0.6-4.1-0.1-6.1-0.2c-1,0-1.9-0.1-2.9-0.1c0.1-1.1,0.2-2.3,0.2-3.4c0-1.6,0.6-3.2,0.1-4.9c-0.1-0.3-0.1-0.7,0.1-1
		c0.3-1.2,0.3-2.5,0.1-3.7c-0.1-1.1-0.1-2.1-0.2-3.2c-0.8,0-1.6,0-2.4,0c-0.7,0-1.3,0-2-0.1c-0.7-0.1-1.4-0.1-2.1-0.1
		c0.1,1.2,0.1,2.3,0.2,3.5c0.2,1.6,0.2,3.1-0.2,4.7c-0.1,0.4-0.2,0.8-0.1,1.2c0.6,2.1-0.1,4.1-0.2,6.1c0,0.6-0.1,1.3-0.1,1.9
		c-2.7,0-5.5-0.5-8.2-0.4c-1.6,0.1-3.1,0.2-4.7,0.3c-0.7,0-1.5,0-2.2,0.1c-0.7,0-1.3,0-2,0.1c-1,0.4-2.2,0.3-3.1-0.2
		c-0.2-0.1-0.5-0.2-0.7-0.2c-2.6,0.1-5.3-0.3-7.9,0c-1.4,0-2.8,0-4.2-0.2c-0.6-0.1-1.1-0.1-1.7-0.1c-1.3,0.2-2.6,0.2-4,0
		c-4.4-0.3-8.8-0.2-13.1,0.1c-1.6,0.2-3.1,0.2-4.7-0.2c-0.4-0.1-0.8-0.2-1.2-0.1c-1.7,0.5-3.4,0.1-5.1-0.1c0.1-1.2,0.2-2.4,0.2-3.6
		c0-1.6,0.6-3.2,0.1-4.9c-0.1-0.3-0.1-0.7,0.1-1c0.3-1.2,0.3-2.5,0.1-3.7c-0.1-1.1-0.1-2.1-0.2-3.2c-0.8,0-1.6,0-2.4,0
		c-0.7,0-1.3,0-2-0.1c-0.7-0.1-1.4-0.1-2.1-0.1c0.1,1.2,0.1,2.3,0.2,3.5c0.2,1.6,0.2,3.1-0.2,4.7c-0.1,0.4-0.2,0.8-0.1,1.2
		c0.6,2.1-0.1,4.1-0.2,6.1c0,0.6-0.1,1.3-0.1,1.9c-2.7,0-5.5-0.5-8.2-0.4c-1.6,0.1-3.1,0.2-4.7,0.3c-0.7,0-1.5,0-2.2,0.1
		c-0.7,0-1.3,0-2,0.1c-1,0.4-2.2,0.3-3.1-0.2c-0.2-0.1-0.5-0.2-0.7-0.2c-2.6,0.1-5.3-0.3-7.9,0c-1.4,0-2.8,0-4.2-0.2
		c-0.6-0.1-1.1-0.1-1.7-0.1c-1.3,0.2-2.6,0.2-4,0c-4.4-0.3-8.8-0.2-13.1,0.1c-1.6,0.2-3.1,0.2-4.7-0.2c-0.4-0.1-0.8-0.2-1.2-0.1
		c-1.7,0.5-3.4,0.1-5.1-0.1c0.1-1.2,0.2-2.4,0.2-3.6c0-1.6,0.6-3.2,0.1-4.9c-0.1-0.3-0.1-0.7,0-1c0.3-1.2,0.3-2.5,0.1-3.7
		c-0.1-1.1-0.1-2.1-0.2-3.2c-0.8,0-1.6,0-2.4,0c-0.7,0-1.3,0-2-0.1c-0.7-0.1-1.4-0.1-2.1-0.1c0.1,1.2,0.1,2.3,0.2,3.5
		c0.2,1.6,0.2,3.1-0.2,4.7c-0.1,0.4-0.2,0.8-0.1,1.2c0.6,2.1-0.1,4.1-0.2,6.1c0,2-0.2,4-0.4,6c-0.1,0.4-0.1,0.8,0,1.2
		c0.1,0.2,0.1,0.5,0.1,0.7c1.8,0.1,3.5,0,5.2-0.3c0.4,0,0.8,0,1.2,0h0.2v-0.1c0.4,0,0.9,0.1,1.3,0.1c1.6,0,3.2,0.6,4.9,0.1
		c0.3-0.1,0.7-0.1,1,0.1c1.2,0.3,2.5,0.3,3.7,0.1c4.1-0.2,7.6-0.2,11.1,0c1,0.2,2.1,0.2,3.1,0c0.5,0,0.9,0,1.4,0.1
		c0.6,0,1.1,0.1,1.7,0.1c0,0.1,0,0.3-0.1,0.4c-0.3,1.1-0.4,2.3,0,3.4c0.1,0.6,0.1,1.3,0,1.9c-0.1,1.6-0.3,3.3-0.4,4.9
		c-0.1,2.1,0.1,4.1,0,6.2c0,0.3,0,0.6,0,0.9c0.1,0,0.1,0,0.2,0c2-0.1,4,0.2,5.9-0.4c0.1,0,0.2,0,0.3,0c0-1.1,0-2.3,0.2-3.4
		c0-0.3,0-0.5,0-0.8c0-0.9,0-1.8,0.1-2.8c0.2-1.4,0.3-2.7,0.2-4.1c-0.2-1.8-0.3-3.5-0.2-5.3c0-0.3,0-0.6,0-1c0.6,0,1.1,0,1.7,0
		c0.2,0,0.4,0,0.6,0.1c0.8,0.4,1.7,0.5,2.5,0.2c0.5-0.1,1-0.1,1.6-0.1s1.2,0,1.8-0.1c1.2-0.1,2.5-0.2,3.7-0.2c2.5-0.1,5,0.4,7.5,0.3
		c3-0.1,5.9,0,8.9,0.2c0.5,0,0.9,0,1.4-0.2c2-0.3,4-0.4,6.1-0.4c1,0,2,0,3-0.2c1,0.2,2,0.2,3,0c0.3-0.1,0.7-0.1,1,0.1
		c1.2,0.3,2.5,0.3,3.7,0.1c3.5-0.3,7-0.3,10.5-0.1c1,0.2,2.1,0.2,3.1,0c0.5,0,0.9,0,1.4,0.1c0.6,0,1.1,0.1,1.7,0.1
		c0,0.1,0,0.3-0.1,0.4c-0.3,1.1-0.4,2.3,0,3.4c0.1,0.6,0.1,1.3,0,1.9c-0.1,1.6-0.3,3.3-0.4,4.9c-0.1,2.1,0.1,4.1,0,6.2
		c0,0.3,0,0.6,0,0.9c0.1,0,0.1,0,0.2,0c2-0.1,4,0.2,5.9-0.4c0.1,0,0.2,0,0.3,0c0-1.1,0-2.3,0.2-3.4c0-0.3,0-0.5,0-0.8
		c0-0.9,0-1.8,0.1-2.8c0.2-1.4,0.3-2.7,0.2-4.1c-0.2-1.8-0.3-3.5-0.2-5.3c0-0.3,0-0.6,0-1c0.6,0,1.1,0,1.7,0c0.2,0,0.4,0,0.6,0.1
		c0.8,0.4,1.7,0.5,2.5,0.2c0.5-0.1,1-0.1,1.6-0.1s1.2,0,1.8-0.1c1.2-0.1,2.5-0.2,3.7-0.2c2.5-0.1,5,0.4,7.5,0.3c3-0.1,5.9,0,8.9,0.2
		c0.5,0,0.9,0,1.4-0.2c2-0.3,4-0.4,6.1-0.4c1.3,0.1,2.6-0.1,3.9-0.4c0.4,0,0.9,0.1,1.3,0.1c1.6,0,3.2,0.6,4.9,0.1
		c0.3-0.1,0.7-0.1,1,0.1c1.2,0.3,2.5,0.3,3.7,0.1c3.5-0.3,7-0.3,10.5-0.1c0.7,0.1,1.5,0.1,2.2,0.1c0,0.2-0.1,0.3-0.1,0.5
		c-0.3,1.1-0.4,2.3,0,3.4c0.1,0.6,0.1,1.3,0,1.9c-0.1,1.6-0.3,3.3-0.4,4.9c-0.1,2.1,0.1,4.1,0,6.2c0,0.3,0,0.6,0,0.9
		c0.1,0,0.1,0,0.2,0c2-0.1,4,0.2,5.9-0.4c0.1,0,0.2,0,0.3,0c0-1.1,0-2.3,0.2-3.4c0-0.3,0-0.5,0-0.8c0-0.9,0-1.8,0.1-2.8
		c0.2-1.4,0.3-2.7,0.2-4.1c-0.2-1.8-0.3-3.5-0.2-5.3c0-0.3,0-0.7,0-1c1.9-0.1,3.8,0.1,5.6,0c0.2,0,0.4,0,0.6,0.1
		c0.8,0.4,1.7,0.5,2.5,0.2c0.5-0.1,1-0.1,1.6-0.1c0.6,0,1.2,0,1.8-0.1c1.2-0.1,2.5-0.2,3.7-0.2c2.5-0.1,5,0.4,7.5,0.3
		c3-0.1,5.9,0,8.9,0.2c0.5,0,0.9,0,1.4-0.2c0.6-0.1,1.1-0.2,1.7-0.2c0,0.1,0,0.2,0,0.3c0.6,0,1.3-0.1,1.9-0.3c0.3,0,0.7,0,1,0
		c1.6,0.1,3.2,0.2,4.7,0.2c1.6,0,3.3,0.5,4.9,0c0.3-0.1,0.7-0.1,1,0c1.2,0.3,2.5,0.3,3.7,0c3.2-0.3,6.4-0.4,9.6-0.4
		c0,0.1,0,0.2-0.1,0.3c-0.3,1.1-0.4,2.3,0,3.4c0.1,0.6,0.1,1.3,0,1.9c-0.1,1.6-0.3,3.3-0.4,4.9c-0.1,2.1,0.1,4.1,0,6.2
		c0,0.3,0,0.6,0,0.9c0.1,0,0.1,0,0.2,0c2-0.1,4,0.2,5.9-0.4c0.1,0,0.2,0,0.3,0c0-1.1,0-2.3,0.2-3.4c0-0.3,0-0.5,0-0.8
		c0-0.9,0-1.8,0.1-2.8c0.2-1.4,0.3-2.7,0.2-4.1c-0.2-1.8-0.3-3.5-0.2-5.3c0-0.3,0-0.6,0-0.9c0.8,0.1,1.6,0.1,2.4,0
		c2.1-0.2,4.2,0,6.3-0.1c0.2,0,0.4,0,0.6,0.1c0.8,0.4,1.7,0.4,2.5,0.1c0.5-0.1,1-0.1,1.6-0.1c0.6,0,1.2-0.1,1.8-0.1
		c1.2-0.1,2.5-0.2,3.7-0.3c2.3-0.1,4.6,0.2,7,0.1c0,0,0,0,0,0.1c1.5,0.1,3.1,0,4.6-0.2c0.2,0,0.4-0.1,0.7-0.1c0.4,0,0.8,0,1.2,0h0.2
		c0.1-1.5,0-3-0.3-4.4c0-0.3,0-0.7,0-1c0-0.4,0-0.7,0.1-1.1c0.1-1.2,0.2-2.4,0.2-3.7C620.2,85.3,620.8,83.7,620.2,82
		C620.1,82.7,620.1,82.3,620.2,82z"/>
	<path class="st1" d="M458.6,197.6l-2.9-0.1c-0.2,1-0.5,2-0.8,3.1l-2.4-0.6c0.2-0.9,0.4-1.8,0.6-2.6c-0.8,0-1.7,0-2.5,0
		c-1.1,0-2.2,0-3.1,0v-1.6c1.6-2.3,4-5.9,5.8-8.3h2.4c0.2-0.6,0.4-1.2,0.6-1.9l2.6,0.5c-1.3,4.1-2.1,6.8-2.7,9.4c1,0,2-0.1,2.9-0.1
		L458.6,197.6z M453.7,195.6c0.6-2.2,1.2-4.5,2.1-7.7c-1.9,2.6-4,5.4-5.7,7.8C451.2,195.7,452.4,195.6,453.7,195.6z"/>
	<path class="st1" d="M470.5,192.3c-0.7,0.1-1.5,0.1-2.2,0.1c-1,2.6-1.8,5.4-2.5,8.1l-2.2-0.5c0.4-1.6,1-4.3,2.1-7.7
		c-0.8-0.1-1.5-0.1-1.9-0.2l0.3-1.5c0.6,0,1.3,0.1,2.1,0.1c0.5-1.3,1-2.7,1.6-4.2l2.6,0.8c-0.5,1.2-1,2.3-1.4,3.4
		c0.6,0,1.2-0.1,2-0.2L470.5,192.3z"/>
	<path class="st1" d="M474.8,191.2c-1.2,3.1-2.2,6.2-3.1,9.4l-2.3-0.5c0.7-3.3,1.6-6.5,2.9-9.6L474.8,191.2z M475.4,189.4l-2.3-0.7
		c0.5-1.5,1.1-3,1.8-4.5l2.4,0.7C476.8,185.8,476.2,187.2,475.4,189.4z"/>
	<path class="st1" d="M491.2,192c-1.4,3-2.5,6.1-3.1,9.4l-2.3-0.4c0.4-2.4,1.1-4.7,1.9-7c-1.7,1.3-3.3,2.8-4.8,4.3
		c-0.1,0.8-0.3,1.5-0.5,2.3l-2.4-0.4c0.6-2.3,1.2-4.3,2-6.7c-1.7,1.4-3.2,2.7-4.6,4.1c-0.3,1.1-0.6,2-0.9,3.1l-2.3-0.6
		c0.8-2.8,1.6-5.5,2.6-9.4l2.5,0.5c-0.2,1.2-0.6,2.4-1,3.6c1.4-1.4,3.1-2.8,4.8-4.3l2.1,1.2c-0.5,1.4-1,2.5-1.4,3.6
		c1.4-1.5,3.1-3,5-4.7L491.2,192z"/>
	<path class="st1" d="M493.8,197.1c-0.1,0.6-0.1,1.3,0,1.9c1.5-0.1,3-0.5,4.3-1.3l-0.2,1.7c-1.1,0.8-2.4,1.3-3.7,1.3
		c-1.9,0-2.9-1.1-2.8-3.3c0.1-3.3,2.3-6.2,5.5-7.2l3.2,0.9c0.2,0.6,0.3,1.1,0.3,1.7c0,2.1-1.6,3.7-4.4,3.7c-0.6,0-1.3-0.1-1.9-0.2
		C493.9,196.7,493.8,196.9,493.8,197.1z M494.4,195.1c0.3,0.1,0.6,0.1,1,0.1c1.3,0.1,2.5-1,2.5-2.3v-0.1c0-0.3-0.1-0.6-0.2-1
		C496.3,192.5,495.1,193.7,494.4,195.1L494.4,195.1z"/>
	<path class="st1" d="M504.8,192.6c-0.3,0-0.6,0-1,0.1c0.1,0.8,0.5,1.4,1,2c1.1,1.3,2.1,2.2,2.1,3.4c0,1.5-2.3,2.9-4.3,2.9
		c-1.2,0-2.3-0.4-3.2-1.1l0.7-2.1c1.3,0.9,2.9,1.3,4.5,1.2c-0.1-0.8-1-1.6-1.7-2.4c-1.1-1.3-1.5-2-1.5-2.9c0-1.5,2-3.3,4-3.3
		c1,0,2,0.2,3,0.7l-0.7,2.3C507,193,505.9,192.6,504.8,192.6z"/>
	<path class="st1" d="M371.9,129l-1.2,4.1c-1.1,3.5-1.9,6.6-2.8,10l-2.4-0.6c0.6-2.5,1.5-5.9,2.3-8.8l-1.7-0.3v-0.1l3.5-4.9v0.1
		v-0.1L371.9,129z"/>
	<path class="st1" d="M373.7,143.5l-2.4-0.5c0.2-0.9,0.5-2,0.8-2.9l2.4,0.6C374.2,141.4,374,142.3,373.7,143.5z"/>
	<path class="st1" d="M383.2,130.9l-1.2,2.9c0.7-0.2,1.4-0.3,2.1-0.3c1.7,0,3.4,0.8,3.4,3.1c0,2.7-2.4,5.6-5,7l-4-1.3
		c-0.3-1.2-0.5-2.5-0.5-3.8c0-0.3,0-0.8,0-1h2.4c0,1.5,0.2,3.1,0.6,4.5c2.1-1.2,3.7-3.2,3.7-4.9c0-1.6-1.5-1.8-2.5-1.8
		s-1.9,0.1-2.9,0.3l-0.1-0.2l1.7-4.2c-0.5,0-1,0.1-1.5,0.2l0.7-2.3c1.8-0.2,3.7-0.3,5.5-0.3c1.2,0,2.1,0,2.9,0.1l-0.6,2.3
		c-0.7,0-1.5-0.1-2.7-0.1C384.7,130.9,383.9,130.9,383.2,130.9z"/>
	<path class="st1" d="M444.8,129l-1.2,4.1c-1.1,3.5-1.9,6.6-2.8,10l-2.4-0.6c0.6-2.5,1.5-5.9,2.3-8.8l-1.7-0.3v-0.1l3.5-4.9v0.1
		v-0.1L444.8,129z"/>
	<path class="st1" d="M446.6,143.5l-2.4-0.5c0.2-0.9,0.5-2,0.8-2.9l2.4,0.6C447.1,141.4,446.9,142.3,446.6,143.5z"/>
	<path class="st1" d="M456.1,130.9l-1.2,2.9c0.7-0.2,1.4-0.3,2.1-0.3c1.6,0,3.4,0.8,3.4,3.1c0,2.7-2.4,5.6-5,7l-4-1.3
		c-0.3-1.2-0.5-2.5-0.5-3.8c0-0.3,0-0.8,0-1h2.4c0,1.5,0.2,3.1,0.6,4.5c2.1-1.2,3.7-3.2,3.7-4.9c0-1.6-1.5-1.8-2.5-1.8
		s-1.9,0.1-2.9,0.3l-0.1-0.2l1.7-4.2c-0.5,0-1,0.1-1.5,0.2l0.7-2.3c1.8-0.2,3.7-0.3,5.5-0.3c1.2,0,2.1,0,2.9,0.1l-0.6,2.3
		c-0.7,0-1.5-0.1-2.7-0.1C457.5,130.9,456.8,130.9,456.1,130.9z"/>
	<path class="st1" d="M510,129l-1.2,4.1c-1.1,3.5-1.9,6.6-2.8,10l-2.4-0.6c0.6-2.5,1.5-5.9,2.3-8.8l-1.6-0.3v-0.1l3.5-4.9v0.1v-0.1
		L510,129z"/>
	<path class="st1" d="M511.8,143.5l-2.4-0.5c0.2-0.9,0.5-2,0.8-2.9l2.4,0.6C512.3,141.4,512.1,142.3,511.8,143.5z"/>
	<path class="st1" d="M521.3,130.9l-1.2,2.9c0.7-0.2,1.4-0.3,2.1-0.3c1.6,0,3.4,0.8,3.4,3.1c0,2.7-2.4,5.6-5,7l-4-1.3
		c-0.3-1.2-0.5-2.5-0.5-3.8c0-0.3,0-0.8,0-1h2.4c0,1.5,0.2,3.1,0.6,4.5c2.1-1.2,3.7-3.2,3.7-4.9c0-1.6-1.5-1.8-2.5-1.8
		s-1.9,0.1-2.9,0.3l-0.1-0.2l1.7-4.2c-0.5,0-1,0.1-1.5,0.2l0.7-2.3c1.8-0.2,3.7-0.3,5.5-0.3c1.2,0,2.1,0,2.9,0.1l-0.6,2.3
		c-0.7,0-1.5-0.1-2.7-0.1C522.7,130.9,522,130.9,521.3,130.9z"/>
	<path class="st1" d="M579,129l-1.2,4.1c-1.1,3.5-1.9,6.6-2.8,10l-2.4-0.6c0.6-2.5,1.5-5.9,2.3-8.8l-1.6-0.3v-0.1l3.5-4.9v0.1v-0.1
		L579,129z"/>
	<path class="st1" d="M580.8,143.5l-2.4-0.5c0.2-0.9,0.5-2,0.8-2.9l2.4,0.6C581.4,141.4,581.1,142.3,580.8,143.5z"/>
	<path class="st1" d="M590.3,130.9l-1.2,2.9c0.7-0.2,1.4-0.3,2.1-0.3c1.6,0,3.4,0.8,3.4,3.1c0,2.7-2.4,5.6-5,7l-4-1.3
		c-0.3-1.2-0.5-2.5-0.5-3.8c0-0.3,0-0.8,0-1h2.4c0,1.5,0.2,3.1,0.6,4.5c2.1-1.2,3.7-3.2,3.7-4.9c0-1.6-1.5-1.8-2.5-1.8
		s-1.9,0.1-2.9,0.3l-0.1-0.2l1.7-4.2c-0.5,0-1,0.1-1.5,0.2l0.7-2.3c1.8-0.2,3.7-0.3,5.5-0.3c1.2,0,2.1,0,2.9,0.1l-0.6,2.3
		c-0.7,0-1.5-0.1-2.7-0.1C591.8,130.9,591.1,130.9,590.3,130.9z"/>
</g>
</svg>
