<?xml version="1.0" encoding="utf-8"?>
<!-- Generator: Adobe Illustrator 22.0.1, SVG Export Plug-In . SVG Version: 6.00 Build 0)  -->
<svg version="1.1" id="Livello_1" xmlns="http://www.w3.org/2000/svg" xmlns:xlink="http://www.w3.org/1999/xlink" x="0px" y="0px"
	 viewBox="0 0 952 498.5" style="enable-background:new 0 0 952 498.5;" xml:space="preserve">
<style type="text/css">
	.st0{fill:#FF3366;}
	.st1{fill:#1858A8;}
	.st2{fill:#FFEDED;}
</style>
<path class="st0" d="M416.5,89.7c0.5-0.2,1.1-0.5,1.6-0.8c1.8-1,3.6-2,5.8-2c0.4,0,0.8-0.1,1.2-0.1c0.2-0.3,0.3-0.7,0.4-1
	c0.1-0.4,0.1-0.9,0.2-1.3c0.5-0.3,0.9-0.6,1.4-0.8c1.5-0.7,3.1-1.5,4.7-2.1c0.7-0.3,1.5-0.5,2.3-0.8c0.5-0.2,0.9-0.4,1.3-0.7
	c1.2-0.9,2.3-1.9,3.5-2.8c0.4-0.3,0.9-0.6,1.4-0.8c0-0.1-0.1-0.2-0.1-0.3c0-0.1-0.1-0.1-0.1-0.2c-0.2-0.2-0.3-0.3-0.4-0.5
	c0.3-0.9,0.5-1.8,0.6-2.7c0-0.3,0.2-0.8,0.5-0.9c0,0,0.1,0,0.1-0.1c0,0,0,0-0.1,0c-0.7-0.5-1.3-0.9-1.9-1.5c-0.7-0.7-1.6-1-2.6-1.1
	c-0.5,0-1-0.1-1.5-0.2c-2.6-0.2-5.1-1-7.3-2.4c-0.5-0.3-1.1-0.5-1.6-0.7c-1.9-0.8-3.8-1.6-5.2-3.3c-0.3-0.3-0.5-0.6-0.8-0.8
	c-0.4,0.1-0.7,0.2-1.1,0.3c-0.4,0.2-0.8,0.4-1.1,0.6c-0.5-0.2-1.1-0.3-1.5-0.6c-1.5-0.8-3.1-1.5-4.5-2.3c-0.7-0.4-1.3-0.9-2-1.3
	c-0.4-0.3-0.9-0.5-1.4-0.6c-1.4-0.4-2.9-0.6-4.3-1c-0.5-0.1-1-0.3-1.5-0.6c-0.1,0.1-0.1,0.2-0.2,0.3c0,0.1-0.1,0.1-0.1,0.2
	c-0.3,1.5-0.8,2.9-1.4,4.3c1.5,0.7,3,1.5,4.6,2.1c1.7,0.7,3.1,2,5.1,2.2c0.4,0.1,0.7,0.2,1,0.5c1.2,0.8,2.5,1.4,3.8,1.7
	c3.3,1,6.5,2.2,9.7,3.6c-0.3,0.4-0.6,0.7-1,1.2c-1.4-0.4-2.9-0.3-4.4-0.6c-1.1-0.3-2.3-0.4-3.5-0.2c-1.2,0.2-2.5,0.2-3.7,0.1
	c-0.5,0-1-0.2-1.5-0.2c-1.1,0-2.2,0.2-3.2-0.5c-0.2-0.1-0.4-0.1-0.7-0.1c-1.1,0.1-2.2,0.3-3.3,0.5c-1.7,0.3-3.3,0.6-5,0.9
	c-0.3,0-0.6,0-0.9,0c-3.1-0.7-6.3,0.1-9.5-0.4c-0.1,0-0.3,0.1-0.4,0.1c-0.4,0-0.9,0-1.3,0.1c-0.2,0-0.5,0-0.7,0
	c-1.3-0.1-2.5-0.1-3.8,0.1c-1.1,0.3-2.2,0.3-3.3,0.1c-0.3-0.1-0.6,0-0.8,0.1c-0.5,0.2-1,0.3-1.5,0.3c-0.5-0.6-1.2-1-2-1.1
	c-1.2-0.3-2.5-0.1-3.7,0.5c-0.2,0.1-0.4,0.2-0.6,0.3c-0.2,0-0.4-0.1-0.6-0.1c-1.8-0.6-3.7-0.7-5.5-0.2c-0.6,0.2-1.2,0.2-1.7,0.1
	c-1.9-0.2-3.8-0.1-5.7,0.3l-0.1,0.1c-0.2-0.1-0.4-0.2-0.5-0.4c-0.3-0.2-0.7-0.2-1-0.1c-1.3,0.4-2.6,0.6-3.9,0.5
	c-0.3,0-0.6,0.1-0.9,0.2c-1.3,0.5-2.6,0.5-3.9,0.2c-0.3-0.1-0.7-0.2-1.1-0.2c-1.6,0.3-3.3,0.2-4.9-0.2c-0.8-0.2-1.6-0.4-2.3-0.6
	c-0.9-0.3-1.9-0.3-2.8,0c-0.5,0.2-1,0.3-1.5,0.4c-2.5,0.9-5.1,1.1-7.7,0.6c-0.6-0.1-1.2-0.1-1.8,0c-2.1,0-4.1,0-6-1.1
	c-0.3-0.2-0.7-0.3-1.1-0.4c-0.3,0.2-0.6,0.5-0.9,0.7c-0.3,0.3-0.5,0.7-0.8,1c-0.6,0-1.1,0.1-1.6,0c-1.7-0.1-3.4-0.2-5.1-0.4
	c-0.8-0.1-1.6-0.3-2.4-0.5c-0.5-0.1-1-0.1-1.5-0.1c-1.5,0.2-2.9,0.5-4.4,0.7c-0.5,0.1-1.1,0.1-1.6,0c0,0.1,0,0.2,0,0.3
	c0,0.1,0,0.1,0,0.2c0.3,1.5,0.4,3,0.4,4.5c1.7,0.1,3.4,0.2,5.1,0.2c1.8,0,3.7,0.6,5.5,0.1c0.4-0.1,0.7-0.1,1.1,0
	c1.4,0.3,2.8,0.3,4.2,0.1c3.9-0.4,7.8-0.5,11.8-0.3c1.2,0.2,2.4,0.2,3.5-0.1c0.5-0.1,1,0,1.5,0c1.2,0.1,2.5,0.1,3.8,0.1
	c2.4-0.3,4.7,0,7.1-0.1c0.2,0,0.4,0,0.6,0.1C344,78,345,78,346,77.7c0.6-0.1,1.2-0.2,1.8-0.1c0.7,0,1.3-0.1,2-0.1
	c0.6,0,1.3-0.1,1.9-0.1c0.8-0.1,1.5-0.1,2.3-0.2c2.8-0.2,5.6,0.3,8.4,0.1c3.3-0.2,6.7-0.1,10,0.1c0.5,0,1-0.1,1.5-0.2
	c1.5-0.3,3.1-0.4,4.6-0.5c0.6,0,1.1,0,1.7,0.1c0.8,0.1,1.6,0.1,2.4,0.2c0.6,0.1,1.2,0.1,1.7,0c1-0.3,2.1-0.3,3.1,0
	c2.1,0.5,4.3-0.2,6.4,0.4c0.4,0.1,1-0.2,1.5-0.3c0.9-0.1,1.8-0.2,2.6-0.1c1.5,0.1,2.9,0.4,4.4,0.6c0.4,0,0.7,0,1.1-0.1
	c2-0.4,4.1,0,6.1-0.5c0.1,0,0.2,0,0.2,0c1.5,0.1,3.1,0.2,4.7,0c1,0,1.9,0.1,2.9,0.2c0.7,0.1,1.5,0.1,2.2,0.1
	c1.8-0.1,3.6,0.1,5.3-0.4c0.4,0,0.7,0,1.1,0c0.8,0,1.5,0.1,2.3,0.1c-0.1,0.1-0.1,0.1-0.2,0.1c-0.3,0.3-0.6,0.4-1,0.5
	c-1.3,0.4-2.6,1.1-3.7,2c-3.2,2.3-6.6,4.3-10.1,6.1c-1.1,0.4-2.1,1-3.1,1.8c-0.4,0.3-0.9,0.5-1.4,0.7c-1.1,0.5-2.3,1.1-3.3,1.8
	c-1.4,1-2.9,1.8-4.5,2.6c0.1,0.1,0.2,0.2,0.2,0.3c0.6,1.2,1.4,2.3,2.4,3.2c0.2,0.2,0.5,0.7,0.4,1c0,0,0,0.1,0,0.1c0,0,0.1,0,0.1,0
	c0.8-0.2,1.5-0.4,2.3-0.6c1-0.2,1.8-0.7,2.5-1.4c0.3-0.4,0.7-0.7,1.1-1.1C411.8,92,414,90.6,416.5,89.7z M425.3,71.2
	c0.2,0.1,0.5,0.2,0.7,0.3c0.1,0.1,0.3,0.1,0.4,0.2c-0.1,0-0.2,0-0.3,0C425.8,71.6,425.5,71.5,425.3,71.2L425.3,71.2z"/>
<title>manuale_ill_nuove</title>
<g id="solo_testo">
	<path class="st1" d="M713.4,333.3c-0.6-1-0.5-2.1-0.5-3.2c0-0.5-0.2-1-0.2-1.5c-0.1-1.2-0.1-2.5,0.1-3.7c0.1-0.6,0.2-1.3,0.1-1.9h0
		c0-0.1,0-0.2,0.1-0.3c0.1-0.5,0.1-1,0.1-1.5c-0.1-0.5-0.2-1-0.2-1.5c-0.2-1-0.3-1.9-0.4-2.9c-0.1-0.6-0.1-1.2,0-1.8
		c0.1-0.4,0.4-0.7,0.7-1.1c0.1-0.1,0.1-0.3,0.2-0.4c-0.4-0.3-0.8-0.7-1.2-1.1c0.4-1.4,0.3-2.9,0.6-4.4c0.3-1.1,0.4-2.3,0.2-3.5
		c-0.2-1.2-0.2-2.5-0.1-3.7c0-0.5,0.2-1,0.2-1.5c0-1.1-0.2-2.2,0.5-3.2c0.1-0.2,0.1-0.4,0.1-0.7c-0.1-1.1-0.3-2.2-0.5-3.3
		c-0.3-1.7-0.6-3.3-0.9-5c0-0.3,0-0.6,0-0.9c0.7-3.1-0.1-6.3,0.4-9.5c0-0.1-0.1-0.3-0.1-0.4c0-0.4,0-0.9-0.1-1.3c0-0.2,0-0.5,0-0.7
		c0.1-1.3,0.1-2.5-0.1-3.8c-0.3-1.1-0.3-2.2-0.1-3.3c0.1-0.3,0-0.6-0.1-0.8c-0.2-0.3-0.2-0.7-0.2-1c0,0,0,0,0,0c0.1,0,0.3,0,0.4,0
		c0-0.1,0-0.2,0-0.3c0-0.3,0.1-0.6,0.2-1c0.3-0.4,0.4-0.8,0.5-1.3c0.2-1.2,0.1-2.4-0.4-3.4c-0.1-0.5-0.2-1-0.2-1.5
		c0.4-1.2,0.6-2.5,0.4-3.8c0,0,0.1-0.1,0.1-0.1c0.1-0.1,0.1-0.3,0.2-0.4l-0.4-0.3c0-0.2-0.1-0.5-0.1-0.7c-0.2-0.6-0.2-1.2-0.1-1.7
		c0.1-0.9,0.2-1.7,0.1-2.6l0,0c0.3-1.1,0.4-2.3,0.2-3.5c0-0.2-0.1-0.4-0.1-0.7c0-0.1,0-0.3,0-0.4c-0.1-0.9,0.1-1.8,0.1-2.6
		c0-0.5,0.2-1,0.2-1.5c0-1.1-0.2-2.2,0.5-3.2c0.1-0.2,0.1-0.4,0.1-0.7c-0.1-1.1-0.3-2.2-0.5-3.3c-0.2-1.3-0.5-2.6-0.7-4
		c0.1-0.6,0.3-1.2,0.5-1.8c0.3-0.9,0.3-1.9,0-2.8c-0.1-0.3-0.2-0.7-0.3-1c-0.1-1.9-0.1-3.8,0.1-5.7c0-0.1-0.1-0.3-0.1-0.4
		c0-0.4,0-0.9-0.1-1.3c0-0.2,0-0.5,0-0.7c0.1-1.3,0.1-2.5-0.1-3.8c-0.1-0.8-0.2-1.5-0.2-2.3c0.1-0.6,0.4-1.1,0.6-1.7
		c0.2-0.3,0.3-0.7,0.4-1.1c-0.2-0.3-0.5-0.6-0.7-0.9c-0.1-0.1-0.1-0.1-0.2-0.1c0.4-0.4,0.7-1,0.8-1.6c0.3-1.2,0.1-2.5-0.5-3.7
		c-0.1-0.2-0.2-0.4-0.3-0.6c0-0.2,0.1-0.4,0.1-0.6c0.6-1.8,0.7-3.7,0.2-5.5c-0.2-0.6-0.2-1.2-0.1-1.7c0.2-1.9,0.1-3.8-0.3-5.7
		l-0.1-0.1c0.1-0.2,0.2-0.4,0.4-0.5c0.2-0.3,0.2-0.7,0.1-1c-0.4-1.3-0.6-2.6-0.5-3.9c0-0.3-0.1-0.6-0.2-0.9
		c-0.5-1.3-0.5-2.6-0.2-3.9c0.1-0.3,0.2-0.7,0.2-1.1c-0.3-1.6-0.2-3.3,0.2-4.9c0.2-0.8,0.4-1.6,0.6-2.3c0.3-0.9,0.3-1.9,0-2.8
		c-0.2-0.5-0.3-1-0.4-1.5c-0.9-2.5-1.1-5.1-0.6-7.7c0.1-0.6,0.1-1.2,0-1.8c0-2.1,0-4.1,1.1-6c0.2-0.3,0.3-0.7,0.4-1.1
		c-0.2-0.3-0.5-0.6-0.7-0.9c-0.3-0.3-0.7-0.5-1-0.8c0-0.6-0.1-1.1,0-1.6c0.1-1.7,0.2-3.4,0.4-5.1c0.1-0.8,0.3-1.6,0.5-2.4
		c0.1-0.5,0.1-1,0.1-1.5c-0.2-1.5-0.5-2.9-0.7-4.4c-0.1-0.5-0.1-1.1,0-1.6c-0.1,0-0.2,0-0.3,0c-0.2-1.2-0.2-2.4-0.1-3.6
		c0-0.5,0.2-1,0.2-1.5c0-1.1-0.2-2.2,0.5-3.2c0.1-0.2,0.1-0.4,0.1-0.7c-0.1-1.1-0.3-2.2-0.5-3.3c-0.2-1-0.4-2.1-0.5-3.1
		c0.3-0.1,0.4-0.4,0.2-0.7c-0.1-0.1-0.2-0.2-0.3-0.3c-0.1,0-0.1-0.1-0.1-0.1c0,0,0,0,0,0c-0.6-0.4-1-1.1-1.1-1.8
		c0-0.3-0.2-0.6-0.4-0.9c-0.4-0.6-0.7-1.1-1-1.7c-0.5-0.6-0.7-1.3-0.7-2c0-0.4-0.2-0.7-0.1-1.1c0.1-0.8-0.2-1.6-0.6-2.2
		c-0.1-0.2-0.2-0.4-0.3-0.6c-0.1-0.4-0.3-0.8-0.6-1c-0.1-0.1-0.2-0.2-0.2-0.3c-0.7-0.8-1.3-1.6-1.9-2.3c-0.2-0.2-0.3-0.4-0.5-0.6
		c-0.4-0.5-0.8-1-1.2-1.6c-0.3-0.6-0.7-1.2-1.2-1.7c-0.3-0.3-0.5-0.6-0.7-0.9c-0.2-0.5-0.6-0.8-1-0.9c-0.2-0.1-0.3-0.2-0.4-0.3
		c-0.3-0.5-0.7-0.9-1.2-1.3c-0.1-0.1-0.2-0.3-0.3-0.4c-0.1-0.2-0.2-0.5-0.4-0.7c-0.4-0.4-0.6-0.9-0.7-1.5c-0.1-0.7-0.4-1.3-1-1.7
		c-0.4-0.3-0.8-0.7-0.9-1.2c-0.1-0.3-0.3-0.6-0.4-0.9c-0.3,0-0.6-0.1-0.9-0.3c-0.3-0.4-0.7-0.7-1.2-0.9c-1.3-0.5-2.5-1.3-3.5-2.3
		c-0.7-0.6-1.3-1.2-2-1.8c0,0,0-0.1,0-0.1c0-0.1-0.1-0.1,0-0.2c0-0.3-0.1-0.6-0.3-0.9c-0.3-0.1-0.5-0.2-0.6-0.5c0,0,0-0.1-0.1-0.1
		l0,0c-0.2-0.1-0.3-0.3-0.4-0.5c0-0.1-0.1-0.1-0.1-0.2c-0.3-0.2-0.5-0.4-0.8-0.7c0,0,0-0.1,0-0.2c-0.2-0.2-0.4-0.5-0.8-0.6
		c-0.1,0-0.3-0.1-0.3-0.2c-0.2-0.4-0.6-0.6-1-0.7c-0.2-0.1-0.4-0.2-0.5-0.3c-0.2,0.2-0.4,0.5-0.4,0.8c0-0.3,0.2-0.6,0.4-0.8
		c0,0-0.1-0.1-0.1-0.1c-0.2-0.3-0.5-0.4-0.8-0.5c-0.2,0-0.4-0.2-0.6-0.3c-0.1-0.2-0.3-0.2-0.5-0.2c-0.2-0.1-0.4-0.2-0.5-0.3
		c-0.1,0-0.1,0-0.2,0c-0.1,0-0.2,0-0.3-0.1c-0.2,0-0.3-0.1-0.5-0.2c-0.1-0.1-0.3-0.2-0.4-0.2c-0.2-0.1-0.4-0.2-0.5-0.3
		c-0.2-0.5-0.6-1-1.1-1.2c0,0,0-0.1,0-0.1c0-0.3,0-0.6,0-0.8c-1.5-0.1-3-0.2-4.5-0.2c-0.1,0-0.2,0-0.2,0c-0.2-0.1-0.3-0.1-0.5,0
		l-0.3,0c-1.7-0.1-3.4-0.5-5.1,0c-0.4,0.1-0.7,0.1-1.1,0c-1.4-0.3-2.8-0.3-4.2-0.1c-3.9,0.4-7.8,0.5-11.8,0.3
		c-1.2-0.2-2.4-0.2-3.5,0.1c-0.5,0.1-1,0-1.5,0c-1.3-0.1-2.5-0.1-3.8-0.1c-2.4,0.3-4.7,0-7.1,0.1c-0.2,0-0.4,0-0.6-0.1
		c-0.9-0.4-1.9-0.5-2.8-0.2c-0.6,0.1-1.2,0.2-1.8,0.1c-0.7,0-1.3,0.1-2,0.1c-0.6,0-1.3,0.1-1.9,0.1c-0.8,0.1-1.5,0.1-2.3,0.2
		c-2.8,0.2-5.6-0.3-8.4-0.1c-3.3,0.2-6.7,0.1-10-0.1c-0.5,0-1,0.1-1.5,0.2c-1.5,0.3-3.1,0.4-4.6,0.5c-0.6,0-1.1,0-1.7-0.1
		c-0.8-0.1-1.6-0.1-2.4-0.2c-0.6-0.1-1.2-0.1-1.7,0c-1,0.3-2.1,0.3-3.1,0c-2.1-0.5-4.3,0.2-6.4-0.4c-0.4-0.1-1,0.2-1.5,0.3
		c-0.9,0.1-1.8,0.2-2.6,0.1c-1.5-0.1-2.9-0.4-4.4-0.6c-0.4,0-0.7,0-1.1,0.1c-2,0.4-4.1,0-6.1,0.5c-0.1,0-0.1,0-0.2,0
		c-1.5-0.1-3.1-0.2-4.7,0c-1,0-1.9-0.1-2.9-0.2c-0.7-0.1-1.5-0.1-2.2-0.1c-1.8,0.1-3.6-0.1-5.3,0.4c-0.4,0-0.7,0-1.1,0
		c-1.5-0.1-3-0.2-4.6-0.2c-0.3,0-0.5,0-0.8,0c-1.8,0-3.6-0.6-5.5-0.1c0,0,0,0,0,0c0,1.6,0.1,3.3,0.4,4.9c0,0.1,0,0.1,0,0.2
		c0,0.1,0,0.3,0,0.4c0.1,0,0.2,0,0.3,0c0.8,0.1,1.6,0.3,2.4,0.5c0.5,0.1,1,0.1,1.5,0.1c0.5-0.1,1-0.2,1.5-0.2c1-0.2,1.9-0.3,2.9-0.4
		c0.6-0.1,1.2-0.1,1.8,0c0.4,0.1,0.7,0.4,1.1,0.7c0.1,0.1,0.3,0.1,0.4,0.2c0.3-0.4,0.7-0.8,1.1-1.2c1.4,0.4,2.9,0.3,4.4,0.6
		c1.1,0.3,2.3,0.4,3.5,0.2c1.2-0.2,2.5-0.2,3.7-0.1c0.5,0,1,0.2,1.5,0.2c1.1,0,2.2-0.2,3.2,0.5c0.2,0.1,0.4,0.1,0.7,0.1
		c1.1-0.1,2.2-0.3,3.3-0.5c1.7-0.3,3.3-0.6,5-0.9c0.3,0,0.6,0,0.9,0c3.1,0.7,6.3-0.1,9.5,0.4c0.1,0,0.3-0.1,0.4-0.1
		c0.4,0,0.9,0,1.3-0.1c0.2,0,0.5,0,0.7,0c1.3,0.1,2.5,0.1,3.8-0.1c1.1-0.3,2.2-0.3,3.3-0.1c0.3,0.1,0.6,0,0.8-0.1
		c0.5-0.2,1-0.3,1.5-0.3c0.5,0.6,1.2,1,2,1.1c1.2,0.3,2.5,0.1,3.7-0.5c0.2-0.1,0.4-0.2,0.6-0.3c0.2,0,0.4,0.1,0.6,0.1
		c1.8,0.6,3.7,0.7,5.5,0.2c0.6-0.2,1.2-0.2,1.7-0.1c1.9,0.2,3.8,0.1,5.7-0.3l0.1-0.1c0.2,0.1,0.4,0.2,0.5,0.4c0.3,0.2,0.7,0.2,1,0.1
		c1.3-0.4,2.6-0.6,3.9-0.5c0.3,0,0.6,0,0.9-0.2c1.3-0.5,2.6-0.5,3.9-0.2c0.3,0.1,0.7,0.2,1.1,0.2c1.6-0.3,3.3-0.2,4.9,0.2
		c0.8,0.2,1.6,0.4,2.3,0.6c0.9,0.3,1.9,0.3,2.8,0c0.5-0.2,1-0.3,1.5-0.4c2.5-0.9,5.1-1.1,7.7-0.6c0.6,0.1,1.2,0.1,1.8,0
		c2.1,0,4.1,0,6,1.1c0.3,0.2,0.7,0.3,1.1,0.4c0.3-0.2,0.6-0.5,0.9-0.7c0.3-0.3,0.5-0.7,0.8-1c0.5,0,1.1-0.1,1.6,0
		c1.7,0.1,3.4,0.2,5.1,0.4c0.8,0.1,1.6,0.3,2.4,0.5c0.5,0.1,1,0.1,1.5,0.1c1.1-0.2,2.2-0.4,3.3-0.5c0.1,0.1,0.2,0.2,0.3,0.2
		c0.2,0,0.3,0.1,0.4,0.2c0.1,0.1,0.3,0.2,0.5,0.2l0.3,0.1c0.1,0,0.1,0,0.2,0c0.2,0.1,0.3,0.2,0.5,0.3c0.2,0.1,0.4,0.1,0.5,0.2
		c0.2,0.2,0.4,0.3,0.6,0.3c0.3,0.1,0.6,0.3,0.8,0.5c0.2,0.2,0.4,0.4,0.6,0.5c0.4,0.1,0.7,0.3,0.9,0.7c0.1,0.1,0.2,0.2,0.3,0.2
		c0.4,0,0.5,0.3,0.8,0.6c0,0,0,0.1,0,0.2c0.3,0.2,0.5,0.5,0.8,0.7c0.1,0,0.1,0.1,0.1,0.2c0.1,0.2,0.2,0.4,0.4,0.5l0,0
		c0,0,0,0,0.1,0.1c0.1,0.3,0.3,0.4,0.6,0.5c0.2,0.3,0.3,0.6,0.3,0.9c0,0.1,0,0.1,0,0.2c0,0.1,0,0.1,0,0.1c0.7,0.6,1.3,1.2,2,1.8
		c1,1,2.2,1.8,3.5,2.3c0.5,0.2,0.9,0.5,1.2,0.9c0.3,0.2,0.6,0.3,0.9,0.3c0.1,0.3,0.3,0.6,0.4,0.9c0.2,0.5,0.5,0.9,0.9,1.2
		c0.6,0.4,0.9,1,1,1.7c0.1,0.5,0.3,1.1,0.7,1.5c0.1,0.2,0.3,0.4,0.4,0.7c0.1,0.2,0.2,0.4,0.3,0.4c0.5,0.3,0.9,0.8,1.2,1.3
		c0.1,0.1,0.3,0.2,0.4,0.3c0.5,0.1,0.9,0.5,1,0.9c0.2,0.3,0.4,0.6,0.7,0.9c0.5,0.5,0.9,1.1,1.2,1.7c0.3,0.6,0.7,1.1,1.2,1.6
		c0.2,0.2,0.3,0.4,0.5,0.6c0.7,0.9,1.5,1.8,2.2,2.6c0.3,0.3,0.5,0.6,0.6,1c0,0.2,0.1,0.4,0.3,0.6c0.5,0.6,0.7,1.4,0.6,2.2
		c0,0.4,0.2,0.7,0.1,1.1c0,0.7,0.2,1.5,0.7,2c0.3,0.5,0.6,1.1,0.9,1.6c-0.1,1-0.3,2-0.4,3c0,0.4,0,0.7,0.1,1.1c0.4,2,0,4.1,0.5,6.1
		c0,0.1,0,0.1,0,0.2c-0.1,1.5-0.2,3.1,0,4.7c0,0.9-0.1,1.7-0.1,2.6c0.3,0,0.6,0.1,0.9,0.1c-0.1,1.3-0.1,2.6-0.1,3.9
		c0,1.8-0.6,3.7-0.1,5.5c0.1,0.4,0.1,0.7,0,1.1c-0.3,1.4-0.3,2.8-0.1,4.2c0.4,3.9,0.5,7.8,0.3,11.8c-0.2,1.2-0.2,2.4,0.1,3.5
		c0.1,0.5,0,1,0,1.5c-0.1,1.2-0.1,2.5-0.1,3.8c0.3,2.4,0,4.7,0.1,7.1c0,0.2,0,0.4-0.1,0.6c-0.4,0.9-0.5,1.9-0.2,2.8
		c0.1,0.6,0.2,1.2,0.1,1.8c0,0.7,0.1,1.3,0.1,2c0,0.6,0.1,1.3,0.1,1.9c0.1,0.8,0.1,1.5,0.2,2.3c0.1,1.6,0,3.2-0.1,4.8
		c-0.1,0-0.2,0-0.3,0c-0.1,1.7-0.2,3.4-0.2,5.1c0,1.8-0.6,3.7-0.1,5.5c0.1,0.4,0.1,0.7,0,1.1c-0.3,1.4-0.3,2.8-0.1,4.2
		c0.4,3.9,0.5,7.8,0.3,11.8c-0.2,1.2-0.2,2.4,0.1,3.5c0.1,0.5,0,1,0,1.5c-0.1,1.2-0.1,2.5-0.1,3.8c0.3,2.2,0,4.5,0.1,6.7
		c0,0.1,0,0.3-0.1,0.4c0,0.1,0,0.2,0,0.4c0,0.1,0,0.2-0.1,0.3c-0.4,0.9-0.5,1.9-0.2,2.8c0.1,0.6,0.2,1.2,0.1,1.8
		c0,0.7,0.1,1.3,0.1,2c0,0.6,0.1,1.3,0.1,1.9c0.1,0.8,0.1,1.5,0.2,2.3c0.2,2.8-0.3,5.6-0.1,8.4c0.2,3.3,0.1,6.7-0.1,10
		c0,0.3,0,0.6,0.1,1c-0.2,1.2-0.2,2.5,0.1,3.7c0,0,0,0,0,0c0.1,0,0.3,0,0.4,0c0,0.5,0.1,1,0.1,1.5c0,0.6,0,1.1-0.1,1.7
		c-0.1,0.8-0.1,1.6-0.2,2.4c-0.1,0.6-0.1,1.2,0,1.7c0.3,1,0.3,2.1,0,3.1c-0.5,2.1,0.2,4.3-0.4,6.4c-0.1,0.4,0.2,1,0.3,1.5
		c0.1,0.9,0.2,1.8,0.1,2.6c-0.1,1.5-0.4,2.9-0.6,4.4c0,0.4,0,0.7,0.1,1.1c0.4,2,0,4.1,0.5,6.1c0,0.1,0,0.2,0,0.2
		c-0.1,1.5-0.2,3.1,0,4.7c0,1-0.1,1.9-0.2,2.9c-0.1,0.7-0.1,1.5-0.1,2.2c0.1,1.8-0.1,3.6,0.4,5.3c0,0.4,0,0.7,0,1.1
		c-0.1,1.5-0.2,3-0.2,4.6c0,0.3,0,0.5,0,0.8c0,1.8-0.6,3.7-0.1,5.5c0,0,0,0,0,0c0.1,0,0.2,0,0.3,0c0,0.2,0,0.4,0,0.5
		c-0.1,1.5-0.1,3.1,0,4.7c0,0.1,0,0.1,0,0.2c-0.5,2-0.1,4.1-0.5,6.1c-0.1,0.4-0.1,0.7-0.1,1.1c0.1,1,0.3,2,0.4,3
		c-0.4,0.5-0.6,1.1-0.9,1.6c-0.5,0.6-0.7,1.3-0.7,2c0,0.4-0.2,0.7-0.1,1.1c0.1,0.8-0.2,1.6-0.6,2.2c-0.1,0.2-0.2,0.4-0.3,0.6
		c-0.1,0.4-0.3,0.8-0.6,1c-0.7,0.9-1.5,1.8-2.2,2.6c-0.2,0.2-0.4,0.4-0.5,0.6c-0.4,0.5-0.8,1-1.2,1.6c-0.3,0.6-0.7,1.2-1.2,1.7
		c-0.3,0.3-0.5,0.6-0.7,0.9c-0.2,0.5-0.6,0.8-1,0.9c-0.2,0.1-0.3,0.2-0.4,0.3c-0.3,0.5-0.7,0.9-1.2,1.3c-0.1,0.1-0.2,0.3-0.3,0.4
		c-0.1,0.2-0.2,0.5-0.4,0.7c-0.4,0.4-0.6,0.9-0.7,1.5c-0.1,0.7-0.4,1.3-1,1.7c-0.4,0.3-0.8,0.7-0.9,1.2c-0.1,0.3-0.3,0.6-0.4,0.9
		c-0.3,0-0.6,0.1-0.9,0.3c-0.3,0.4-0.7,0.7-1.2,0.9c-1.3,0.5-2.5,1.3-3.5,2.3c-0.7,0.6-1.3,1.2-2,1.8c0,0,0,0.1,0,0.1
		c0,0.1,0,0.1,0,0.2c0,0.3-0.1,0.6-0.3,0.9c-0.3,0.1-0.5,0.2-0.6,0.5c0,0,0,0.1-0.1,0.1l0,0c-0.2,0.1-0.3,0.3-0.4,0.5
		c0,0.1-0.1,0.1-0.1,0.2c-0.3,0.2-0.5,0.4-0.8,0.7c0,0,0,0.1,0,0.2c-0.2,0.2-0.4,0.5-0.8,0.6c-0.1,0-0.3,0.1-0.3,0.2
		c-0.2,0.4-0.5,0.6-0.9,0.7c-0.3,0.1-0.5,0.2-0.6,0.5c-0.2,0.3-0.5,0.4-0.8,0.5c-0.2,0-0.4,0.2-0.6,0.3c-0.1,0.1-0.3,0.2-0.5,0.2
		c-0.2,0.1-0.4,0.2-0.5,0.3c-0.1,0-0.1,0-0.2,0c-0.1,0-0.2,0-0.3,0c-0.2,0-0.3,0.1-0.5,0.2c-0.1,0.1-0.3,0.2-0.4,0.2
		c-0.1,0-0.2,0.1-0.3,0.2c-1.1-0.2-2.2-0.4-3.3-0.5c-0.5-0.1-1,0-1.5,0.1c-0.8,0.1-1.6,0.4-2.4,0.5c-1.7,0.2-3.4,0.3-5.1,0.4
		c-0.5,0-1.1,0-1.6,0c-0.3-0.3-0.5-0.7-0.8-1c-0.3-0.3-0.6-0.5-0.9-0.7c-0.4,0.1-0.7,0.3-1.1,0.4c-1.9,1-4,1-6,1.1
		c-0.6,0-1.2,0-1.8,0c-2.6,0.5-5.2,0.3-7.7-0.6c-0.5-0.1-1-0.3-1.5-0.4c-0.9-0.3-1.9-0.3-2.8,0c-0.8,0.2-1.5,0.4-2.3,0.6
		c-1.6,0.4-3.3,0.5-4.9,0.2c-0.4,0-0.7,0-1.1,0.2c-1.3,0.4-2.7,0.3-3.9-0.2c-0.3-0.1-0.6-0.2-0.9-0.2c-1.3,0.1-2.7-0.1-3.9-0.5
		c-0.3-0.1-0.7-0.1-1,0.1c-0.2,0.2-0.3,0.3-0.5,0.4l-0.1-0.1c-1.9-0.4-3.8-0.4-5.7-0.3c-0.6,0.1-1.2,0-1.7-0.1
		c-1.8-0.5-3.7-0.4-5.5,0.2c-0.2,0.1-0.4,0.1-0.6,0.1c-0.2-0.1-0.4-0.2-0.6-0.3c-1.1-0.6-2.4-0.8-3.7-0.5c-0.8,0.1-1.5,0.5-2,1.1
		c-0.5,0.1-1,0-1.5-0.3c-0.3-0.1-0.6-0.2-0.8-0.1c-1.1,0.2-2.2,0.2-3.3-0.1c-1.2-0.2-2.5-0.2-3.8-0.1c-0.2,0-0.5,0-0.7,0
		c-0.4,0-0.9,0-1.3-0.1c-0.1,0-0.3-0.1-0.4-0.1c-3.1,0.6-6.3-0.3-9.5,0.4c-0.3,0.1-0.6,0.1-0.9,0c-1.7-0.3-3.3-0.6-5-0.9
		c-1.1-0.2-2.2-0.3-3.3-0.5c-0.2,0-0.4,0-0.7,0.1c-1,0.6-2.1,0.5-3.2,0.5c-0.5,0-1,0.2-1.5,0.2c-1.2,0.1-2.5,0.1-3.7-0.1
		c-1.2-0.2-2.4-0.2-3.5,0.2c-1.4,0.4-2.9,0.2-4.4,0.6c-0.1-0.1-0.1-0.1-0.2-0.2c0-0.1,0-0.3,0-0.4l-0.4,0c-0.2-0.2-0.4-0.4-0.5-0.6
		c-0.1,0-0.3,0.1-0.4,0.2c-0.2,0.1-0.3,0.2-0.5,0.4c-1.1-0.1-2.2-0.1-3.3-0.1c-1.5-0.2-3-0.2-4.5-0.2c-0.1,0-0.3,0-0.4,0
		s-0.2,0.1-0.4,0.1c-0.1,0-0.1,0-0.2,0c-0.4,0.1-0.7,0.1-1.1,0c-1.4-0.3-2.8-0.3-4.2-0.1c-3.9,0.4-7.8,0.5-11.8,0.3
		c-1.2-0.2-2.4-0.2-3.5,0.1c-0.5,0.1-1,0-1.5,0c-1.2-0.1-2.5-0.1-3.8-0.1c-2.4,0.3-4.7,0-7.1,0.1c-0.2,0-0.4,0-0.6-0.1
		c-0.9-0.4-1.9-0.5-2.8-0.2c-0.6,0.1-1.2,0.2-1.8,0.1c-0.7,0-1.3,0.1-2,0.1c-0.6,0-1.3,0.1-1.9,0.1c-0.8,0.1-1.5,0.1-2.3,0.2
		c-2.8,0.2-5.6-0.3-8.4-0.1c-3.3,0.2-6.7,0.1-10-0.1c-0.5,0-1,0.1-1.5,0.2c-1.5,0.3-3.1,0.4-4.6,0.5c-0.6,0-1.1,0-1.7-0.1
		c-0.8-0.1-1.6-0.1-2.4-0.2c-0.6-0.1-1.2-0.1-1.7,0c-1,0.3-2.1,0.3-3.1,0c-2.1-0.5-4.3,0.2-6.4-0.4c-0.4-0.1-1,0.2-1.5,0.3
		c-0.9,0.1-1.8,0.2-2.6,0.1c-1-0.1-2.1-0.3-3.1-0.4c0.1-0.4,0.1-0.7,0.2-1.1c0.1-0.5,0.2-1,0.2-1.5c-0.2-3.3-0.2-6.7-0.1-10
		c0.2-2.8-0.3-5.6-0.1-8.4c0-0.8,0.1-1.5,0.2-2.3c0.1-0.6,0.1-1.3,0.1-1.9c0-0.7,0.1-1.3,0.1-2c0-0.6,0-1.2,0.1-1.8
		c0.3-0.9,0.3-1.9-0.2-2.8c-0.1-0.2-0.1-0.4-0.1-0.6c0.1-2.4-0.1-4.7,0.1-7.1c0.1-1.3,0-2.5-0.1-3.8c-0.1-0.5-0.1-1,0-1.5
		c0.2-1.2,0.3-2.4,0.1-3.5c-0.2-3.9-0.1-7.9,0.3-11.8c0.3-1.4,0.2-2.8-0.1-4.2c-0.1-0.4-0.1-0.7,0-1.1c0.6-1.8,0-3.7-0.1-5.5
		c0-1.7-0.1-3.4-0.2-5.1c-1.5,0-3-0.1-4.5-0.4c-0.1,0-0.1,0-0.2,0c-0.1,0-0.2,0-0.3,0c0.1,0.5,0.1,1.1,0,1.6
		c-0.2,1.5-0.5,2.9-0.7,4.4c-0.1,0.5,0,1,0.1,1.5c0.1,0.8,0.4,1.6,0.5,2.4c0.2,1.7,0.3,3.4,0.4,5.1c0,0.5,0,1,0,1.6
		c-0.3,0.3-0.7,0.5-1,0.8c-0.3,0.3-0.5,0.6-0.7,0.9c0.1,0.4,0.3,0.7,0.4,1.1c1,1.9,1,4,1.1,6c0,0.6,0,1.2,0,1.8
		c0.5,2.6,0.3,5.2-0.6,7.7c-0.1,0.5-0.3,1-0.4,1.5c-0.3,0.9-0.3,1.9,0,2.8c0.2,0.8,0.4,1.5,0.6,2.3c0.4,1.6,0.5,3.3,0.2,4.9
		c0,0.4,0,0.7,0.2,1.1c0.4,1.3,0.3,2.7-0.2,3.9c-0.1,0.3-0.2,0.6-0.2,0.9c0.1,1.3-0.1,2.7-0.5,3.9c-0.1,0.3-0.1,0.7,0.1,1
		c0.2,0.1,0.3,0.3,0.4,0.5l-0.1,0.1c-0.4,1.9-0.4,3.8-0.3,5.7c0.1,0.6,0,1.2-0.1,1.7c-0.5,1.8-0.4,3.7,0.2,5.5
		c0.1,0.2,0.1,0.4,0.1,0.6c-0.1,0.2-0.2,0.4-0.3,0.6c-0.6,1.1-0.8,2.4-0.5,3.7c0,0.4,0.2,0.7,0.3,1c0.2,0.4,0.5,0.7,0.8,1
		c0.1,0.5,0,1-0.3,1.5c-0.1,0.3-0.2,0.6-0.1,0.8c0.2,1,0.2,2.1,0,3.1c0,0.1,0,0.1,0,0.2c-0.1,1.2-0.2,2.5-0.1,3.8c0,0.2,0,0.5,0,0.7
		c0,0.4,0,0.9-0.1,1.3c0,0.1-0.1,0.3-0.1,0.4c0.6,3.1-0.3,6.3,0.4,9.5c0.1,0.3,0.1,0.6,0,0.9c-0.3,1.7-0.6,3.3-0.9,5
		c-0.2,1.1-0.3,2.2-0.5,3.3c0,0.2,0,0.4,0.1,0.7c0.6,1,0.5,2.1,0.5,3.2c0,0.5,0.2,1,0.2,1.5c0.1,1.2,0.1,2.5-0.1,3.7
		c-0.2,1.2-0.2,2.4,0.2,3.5c0.4,1.4,0.2,2.9,0.6,4.4c-0.4,0.4-0.8,0.7-1.2,1c-1.4-3.1-2.6-6.4-3.6-9.7c-0.3-1.4-0.9-2.7-1.7-3.8
		c-0.2-0.3-0.4-0.6-0.5-1c-0.2-1.9-1.5-3.4-2.2-5.1c-0.7-1.6-1.4-3.1-2.1-4.6c-1.4,0.6-2.8,1.1-4.3,1.4c-0.1,0-0.1,0-0.2,0.1
		c-0.1,0.1-0.2,0.1-0.3,0.2c0.3,0.5,0.5,1,0.6,1.5c0.4,1.4,0.6,2.9,1,4.3c0.1,0.5,0.4,0.9,0.6,1.4c0.4,0.7,0.9,1.3,1.3,2
		c0.8,1.5,1.6,3,2.3,4.5c0.2,0.5,0.4,1,0.6,1.5c-0.2,0.4-0.5,0.7-0.6,1.1c-0.1,0.3-0.2,0.7-0.3,1.1c0.3,0.3,0.5,0.6,0.8,0.8
		c1.7,1.3,2.5,3.3,3.3,5.2c0.2,0.6,0.4,1.1,0.7,1.6c1.4,2.2,2.2,4.7,2.4,7.3c0.1,0.5,0.2,1,0.2,1.5c0,1,0.4,1.9,1.1,2.6
		c0.5,0.6,1,1.3,1.5,1.9c0,0,0,0,0,0.1c0,0,0-0.1,0.1-0.1c0.1-0.3,0.6-0.5,0.9-0.5c0.9-0.1,1.8-0.3,2.7-0.6c0.2,0.1,0.4,0.3,0.5,0.4
		c0.1,0,0.1,0.1,0.2,0.1c0.1,0,0.2,0.1,0.3,0.1c0.2-0.5,0.5-1,0.8-1.4c0.9-1.2,1.9-2.3,2.8-3.5c0.3-0.4,0.5-0.9,0.7-1.3
		c0.3-0.8,0.5-1.6,0.8-2.3c0.7-1.6,1.4-3.1,2.1-4.7c0.2-0.5,0.5-0.9,0.8-1.4c0.4-0.1,0.9-0.1,1.3-0.2c0.4-0.1,0.7-0.2,1-0.4
		c0.1-0.4,0.1-0.8,0.1-1.2c0-2.2,1.1-3.9,2-5.8c0.3-0.5,0.6-1,0.8-1.6c0.9-2.5,2.3-4.7,4.3-6.4c0.4-0.4,0.7-0.8,1.1-1.1
		c0.7-0.6,1.2-1.5,1.4-2.5c0.2-0.8,0.4-1.6,0.6-2.3c0,0,0-0.1,0-0.1c0,0-0.1,0-0.1,0c-0.3,0.1-0.7-0.2-1-0.4c-0.9-1-2-1.8-3.2-2.4
		c-0.1-0.1-0.2-0.1-0.3-0.2c-0.8,1.5-1.7,3-2.6,4.5c-0.7,1.1-1.3,2.2-1.8,3.3c-0.2,0.5-0.4,1-0.7,1.4c-0.8,0.9-1.4,1.9-1.8,3
		c-1.8,3.5-3.8,6.9-6.1,10.1c-0.9,1.1-1.6,2.3-2,3.7c-0.1,0.4-0.3,0.7-0.5,1c-0.1,0.1-0.1,0.1-0.1,0.2c0-0.8-0.1-1.5-0.1-2.3
		c-0.1-0.4-0.1-0.7,0-1.1c0.5-1.8,0.2-3.5,0.4-5.3c0-0.7,0-1.5-0.1-2.2c-0.1-1-0.1-1.9-0.2-2.9c0.1-1.5,0.1-3.1,0-4.7
		c0-0.1,0-0.1,0-0.2c0.5-2,0.1-4.1,0.5-6.1c0.1-0.4,0.1-0.7,0.1-1.1c-0.2-1.5-0.5-2.9-0.6-4.4c0-0.9,0-1.8,0.1-2.6
		c0-0.5,0.4-1.1,0.3-1.5c-0.6-2.1,0.2-4.3-0.4-6.4c-0.3-1-0.3-2.1,0-3.1c0.1-0.6,0.1-1.2,0-1.7c0-0.6-0.1-1.2-0.1-1.8
		c1-0.2,1.9-0.3,2.9-0.5c0.3,0,0.6,0,0.9,0c3.1,0.7,6.3-0.1,9.5,0.4c0.1,0,0.3-0.1,0.4-0.1c0.4,0,0.9,0,1.3-0.1c0.2,0,0.5,0,0.7,0
		c1.3,0.1,2.5,0.1,3.8-0.1c1.1-0.3,2.2-0.3,3.3-0.1c0.3,0.1,0.6,0,0.8-0.1c0.5-0.2,1-0.3,1.5-0.3c0.5,0.6,1.2,1,2,1.1
		c1.2,0.3,2.5,0.1,3.7-0.5c0.2-0.1,0.4-0.2,0.6-0.3c0.2,0,0.4,0.1,0.6,0.1c1.8,0.6,3.7,0.7,5.5,0.2c0.6-0.2,1.2-0.2,1.7-0.1
		c1.9,0.2,3.8,0.1,5.7-0.3l0.1-0.1c0.2,0.1,0.4,0.2,0.5,0.4c0.3,0.2,0.7,0.2,1,0.1c1.3-0.4,2.6-0.6,3.9-0.5c0.3,0,0.6-0.1,0.9-0.2
		c1.3-0.5,2.6-0.5,3.9-0.2c0.3,0.1,0.7,0.2,1.1,0.2c1.6-0.3,3.3-0.2,4.9,0.2c0.8,0.2,1.6,0.4,2.3,0.6c0.9,0.3,1.9,0.3,2.8,0
		c0.5-0.2,1-0.3,1.5-0.4c2.5-0.9,5.1-1.1,7.7-0.6c0.6,0.1,1.2,0.1,1.8,0c2.1,0,4.1,0,6,1.1c0.3,0.2,0.7,0.3,1.1,0.4
		c0.3-0.2,0.6-0.5,0.9-0.7c0.3-0.3,0.5-0.7,0.8-1c0.5,0,1.1-0.1,1.6,0c0.6,0,1.1,0.1,1.7,0.1c0,0.2,0,0.4,0,0.7c0,0,0,0,0,0
		c1.7,0.5,3.4,0,5-0.1c0.2,0.1,0.5,0.1,0.7,0.1c0.5,0.1,1,0.1,1.5,0.1c1-0.1,1.9-0.3,2.9-0.5l0.7,0c0.4-0.1,0.7-0.1,1.1,0
		c1.8,0.5,3.5,0.2,5.3,0.4c0.7,0,1.5,0,2.2-0.1c1-0.1,1.9-0.1,2.9-0.2c1.5,0.1,3.1,0.1,4.7,0c0.1,0,0.1,0,0.2,0
		c2,0.5,4.1,0.1,6.1,0.5c0.4,0.1,0.7,0.1,1.1,0.1c1.5-0.2,2.9-0.5,4.4-0.6c0.9,0,1.8,0,2.6,0.1c0.5,0,1.1,0.4,1.5,0.3
		c2.1-0.6,4.3,0.2,6.4-0.4c1-0.3,2.1-0.3,3.1,0c0.6,0.1,1.2,0.1,1.7,0c0.8,0,1.6-0.1,2.4-0.2c0.6,0,1.1-0.1,1.7-0.1
		c1.6,0,3.1,0.2,4.6,0.5c0.5,0.1,1,0.2,1.5,0.2c3.3-0.2,6.7-0.2,10-0.1c2.8,0.2,5.6-0.3,8.4-0.1c0.8,0,1.5,0.1,2.3,0.2
		c0.6,0.1,1.3,0.1,1.9,0.1c0.7,0,1.3,0.1,2,0.1c0.6,0,1.2,0,1.8,0.1c0.9,0.3,1.9,0.3,2.8-0.2c0.2-0.1,0.4-0.1,0.6-0.1
		c2.4,0.1,4.7-0.1,7.1,0.1c1.3,0.1,2.5,0,3.8-0.1c0.5-0.1,1-0.1,1.5,0c1.2,0.2,2.4,0.3,3.5,0.1c3.9-0.2,7.9-0.1,11.8,0.3
		c1.4,0.3,2.8,0.2,4.2-0.1c0.4-0.1,0.7-0.1,1.1,0c1.7,0.5,3.4,0.1,5.1,0l0.3,0c0.2,0,0.3,0,0.5,0c0.1,0,0.2,0,0.3,0
		c1.5,0,3-0.1,4.5-0.2c0-0.3,0-0.6,0-0.8c0,0,0-0.1,0-0.1c0.5-0.2,0.9-0.7,1.1-1.2c0.1-0.1,0.3-0.2,0.5-0.3c0.2,0,0.3-0.1,0.4-0.2
		c0.1-0.1,0.3-0.2,0.5-0.2l0.3,0c0.1,0,0.1,0,0.2,0c0.2-0.1,0.3-0.2,0.5-0.3c0.2-0.1,0.4-0.1,0.5-0.2c0.2-0.2,0.4-0.3,0.6-0.3
		c0.3-0.1,0.6-0.3,0.8-0.5c0,0,0.1-0.1,0.1-0.1c-0.2-0.2-0.4-0.5-0.4-0.8c0,0.3,0.2,0.6,0.4,0.8c0.1-0.2,0.3-0.3,0.5-0.4
		c0.4-0.1,0.7-0.3,0.9-0.7c0.1-0.1,0.2-0.2,0.3-0.2c0.4,0,0.5-0.3,0.8-0.6c0,0,0-0.1,0-0.2c0.3-0.2,0.5-0.5,0.8-0.7
		c0.1-0.1,0.1-0.1,0.1-0.2c0.1-0.2,0.2-0.4,0.4-0.5l0,0c0,0,0,0,0.1-0.1c0.1-0.3,0.3-0.4,0.6-0.5c0.2-0.3,0.3-0.6,0.3-0.9
		c0-0.1,0-0.1,0-0.2c0-0.1,0-0.1,0-0.1c0.7-0.6,1.3-1.2,2-1.8c1-1,2.2-1.8,3.5-2.3c0.5-0.2,0.9-0.5,1.2-0.9c0.3-0.2,0.6-0.3,0.9-0.3
		c0.1-0.3,0.3-0.6,0.4-0.9c0.2-0.5,0.5-0.9,0.9-1.2c0.6-0.4,0.9-1,1-1.7c0.1-0.5,0.3-1.1,0.7-1.5c0.1-0.2,0.3-0.4,0.4-0.7
		c0.1-0.2,0.2-0.4,0.3-0.4c0.5-0.3,0.9-0.8,1.2-1.3c0.1-0.1,0.3-0.2,0.4-0.3c0.5-0.1,0.9-0.5,1-0.9c0.2-0.3,0.4-0.6,0.7-0.9
		c0.5-0.5,0.9-1.1,1.2-1.7c0.3-0.6,0.7-1.1,1.2-1.6c0.2-0.2,0.3-0.4,0.5-0.6c0.6-0.8,1.3-1.6,1.9-2.3c0.1-0.1,0.2-0.2,0.3-0.3
		c0.3-0.3,0.5-0.6,0.6-1c0-0.2,0.1-0.4,0.3-0.6c0.5-0.6,0.7-1.4,0.6-2.2c0-0.4,0.2-0.7,0.1-1.1c0-0.7,0.2-1.5,0.7-2
		c0.3-0.6,0.6-1.2,1-1.7c0.2-0.3,0.3-0.6,0.4-0.9c0.1-0.7,0.5-1.4,1.1-1.8c0,0,0,0,0,0c0.1,0,0.1-0.1,0.1-0.1
		c0.3-0.1,0.4-0.4,0.3-0.7c0-0.1-0.1-0.2-0.3-0.3c0.2-1,0.4-2.1,0.5-3.1c0.2-1.1,0.3-2.2,0.5-3.3
		C713.5,333.8,713.5,333.5,713.4,333.3z M445.2,429.4c0,0.1,0,0.2,0,0.3c-0.1-0.1-0.1-0.3-0.2-0.4c-0.1-0.2-0.2-0.5-0.3-0.7
		C444.9,428.8,445.1,429.1,445.2,429.4L445.2,429.4z"/>
	<path class="st1" d="M434.4,214.4c0.2,0.5,0.5,1.1,0.8,1.6c1,1.8,2,3.6,2,5.8c0,0.4,0.1,0.8,0.1,1.2c0.3,0.2,0.7,0.3,1,0.4
		c0.4,0.1,0.9,0.1,1.3,0.2c0.3,0.5,0.6,0.9,0.8,1.4c0.7,1.5,1.5,3.1,2.1,4.7c0.3,0.7,0.5,1.5,0.8,2.3c0.2,0.5,0.4,0.9,0.7,1.3
		c0.9,1.2,1.9,2.3,2.8,3.5c0.3,0.4,0.6,0.9,0.8,1.4c0.1,0,0.2-0.1,0.3-0.1c0.1,0,0.1-0.1,0.2-0.1c0.2-0.2,0.3-0.3,0.5-0.4
		c0.9,0.3,1.8,0.5,2.7,0.6c0.3,0,0.8,0.2,0.9,0.5c0,0,0,0.1,0.1,0.1c0,0,0-0.1,0-0.1c0.5-0.7,0.9-1.3,1.5-1.9c0.7-0.7,1-1.6,1.1-2.6
		c0-0.5,0.1-1,0.2-1.5c0.2-2.6,1-5.1,2.4-7.3c0.3-0.5,0.5-1.1,0.7-1.6c0.8-1.9,1.6-3.8,3.3-5.2c0.3-0.3,0.6-0.5,0.8-0.8
		c-0.1-0.4-0.2-0.7-0.3-1.1c-0.2-0.4-0.4-0.8-0.6-1.1c0.2-0.6,0.3-1.1,0.6-1.5c0.8-1.5,1.5-3.1,2.3-4.5c0.4-0.7,0.9-1.3,1.3-2
		c0.3-0.4,0.5-0.9,0.6-1.4c0.4-1.4,0.6-2.9,1-4.3c0.1-0.5,0.3-1,0.6-1.5c-0.1-0.1-0.2-0.1-0.3-0.2c-0.1,0-0.1-0.1-0.2-0.1
		c-1.5-0.3-2.9-0.8-4.3-1.4c-0.7,1.5-1.5,3-2.1,4.6c-0.7,1.7-2,3.1-2.2,5.1c-0.1,0.4-0.2,0.7-0.5,1c-0.8,1.2-1.4,2.5-1.7,3.8
		c-1,3.3-2.2,6.5-3.6,9.7c-0.4-0.3-0.7-0.6-1.2-1c0.4-1.4,0.3-2.9,0.6-4.4c0.3-1.1,0.4-2.3,0.2-3.5c-0.2-1.2-0.2-2.5-0.1-3.7
		c0-0.5,0.2-1,0.2-1.5c0-1.1-0.2-2.2,0.5-3.2c0.1-0.2,0.1-0.4,0.1-0.7c-0.1-1.1-0.3-2.2-0.5-3.3c-0.3-1.7-0.6-3.3-0.9-5
		c0-0.3,0-0.6,0-0.9c0.7-3.1-0.1-6.3,0.4-9.5c0-0.1-0.1-0.3-0.1-0.4c0-0.4,0-0.9-0.1-1.3c0-0.2,0-0.5,0-0.7c0.1-1.3,0.1-2.5-0.1-3.8
		c-0.3-1.1-0.3-2.2-0.1-3.3c0.1-0.3,0-0.6-0.1-0.8c-0.2-0.5-0.3-1-0.3-1.5c0.6-0.5,1-1.2,1.1-2c0.3-1.2,0.1-2.5-0.5-3.7
		c-0.1-0.2-0.2-0.4-0.3-0.6c0-0.2,0.1-0.4,0.1-0.6c0.6-1.8,0.7-3.7,0.2-5.5c-0.2-0.6-0.2-1.2-0.1-1.7c0.2-1.9,0.1-3.8-0.3-5.7
		l-0.1-0.1c0.1-0.2,0.2-0.4,0.4-0.5c0.2-0.3,0.2-0.7,0.1-1c-0.4-1.3-0.6-2.6-0.5-3.9c0-0.3-0.1-0.6-0.2-0.9
		c-0.5-1.3-0.5-2.6-0.2-3.9c0.1-0.3,0.2-0.7,0.2-1.1c-0.3-1.6-0.2-3.3,0.2-4.9c0.2-0.8,0.4-1.6,0.6-2.3c0.3-0.9,0.3-1.9,0-2.8
		c-0.2-0.5-0.3-1-0.4-1.5c-0.9-2.5-1.1-5.1-0.6-7.7c0.1-0.6,0.1-1.2,0-1.8c0-2.1,0-4.1,1.1-6c0.2-0.3,0.3-0.7,0.4-1.1
		c-0.2-0.3-0.5-0.6-0.7-0.9c-0.3-0.3-0.7-0.5-1-0.8c0-0.6-0.1-1.1,0-1.6c0.1-1.7,0.2-3.4,0.4-5.1c0.1-0.8,0.3-1.6,0.5-2.4
		c0.1-0.5,0.1-1,0.1-1.5c-0.2-1.5-0.5-2.9-0.7-4.4c-0.1-0.5-0.1-1.1,0-1.6c-0.1,0-0.2,0-0.3,0c-0.1,0-0.1,0-0.2,0
		c-1.5,0.3-3,0.4-4.5,0.4c-0.1,1.7-0.2,3.4-0.2,5.1c0,1.8-0.6,3.7-0.1,5.5c0.1,0.4,0.1,0.7,0,1.1c-0.3,1.4-0.3,2.8-0.1,4.2
		c0.4,3.9,0.5,7.8,0.3,11.8c-0.2,1.2-0.2,2.4,0.1,3.5c0.1,0.5,0,1,0,1.5c-0.1,1.2-0.1,2.5-0.1,3.8c0.3,2.4,0,4.7,0.1,7.1
		c0,0.2,0,0.4-0.1,0.6c-0.4,0.9-0.5,1.9-0.2,2.8c0.1,0.6,0.2,1.2,0.1,1.8c0,0.7,0.1,1.3,0.1,2c0,0.6,0.1,1.3,0.1,1.9
		c0.1,0.8,0.1,1.5,0.2,2.3c0.2,2.8-0.3,5.6-0.1,8.4c0.2,3.3,0.1,6.7-0.1,10c0,0.5,0.1,1,0.2,1.5c0.3,1.5,0.4,3.1,0.5,4.6
		c0,0.6,0,1.1-0.1,1.7c-0.1,0.8-0.1,1.6-0.2,2.4c-0.1,0.6-0.1,1.2,0,1.7c0.3,1,0.3,2.1,0,3.1c-0.5,2.1,0.2,4.3-0.4,6.4
		c-0.1,0.4,0.2,1,0.3,1.5c0.1,0.9,0.2,1.8,0.1,2.6c-0.1,1.5-0.4,2.9-0.6,4.4c0,0.4,0,0.7,0.1,1.1c0.4,2,0,4.1,0.5,6.1
		c0,0.1,0,0.2,0,0.2c-0.1,1.5-0.2,3.1,0,4.7c0,1-0.1,1.9-0.2,2.9c-0.1,0.7-0.1,1.5-0.1,2.2c0.1,1.8-0.1,3.6,0.4,5.3
		c0,0.4,0,0.7,0,1.1c0,0.8-0.1,1.5-0.1,2.3c-0.1-0.1-0.1-0.1-0.1-0.2c-0.3-0.3-0.4-0.6-0.5-1c-0.4-1.3-1.1-2.6-2-3.7
		c-2.3-3.2-4.3-6.6-6.1-10.1c-0.4-1.1-1-2.1-1.8-3.1c-0.3-0.4-0.5-0.9-0.7-1.4c-0.5-1.1-1.1-2.3-1.8-3.3c-1-1.4-1.8-2.9-2.6-4.5
		c-0.1,0.1-0.2,0.2-0.3,0.2c-1.2,0.6-2.3,1.4-3.2,2.4c-0.2,0.2-0.7,0.5-1,0.4c0,0-0.1,0-0.1,0c0,0,0,0.1,0,0.1
		c0.2,0.8,0.4,1.5,0.6,2.3c0.2,1,0.7,1.8,1.4,2.5c0.4,0.3,0.7,0.7,1.1,1.1C432.1,209.7,433.6,211.9,434.4,214.4z M452.9,223.1
		c-0.1,0.2-0.2,0.5-0.3,0.7c-0.1,0.1-0.1,0.3-0.2,0.4c0-0.1,0-0.2,0-0.3C452.5,223.7,452.7,223.4,452.9,223.1L452.9,223.1z"/>
	<path class="st0" d="M541,305.4C541,305.4,541,305.4,541,305.4c-0.5-0.3-0.8-0.7-0.9-1.2c0-0.2-0.1-0.4-0.3-0.6
		c-0.3-0.3-0.5-0.7-0.7-1.1c-0.3-0.3-0.5-0.8-0.5-1.3c0-0.2-0.1-0.5-0.1-0.7c0-0.5-0.2-1-0.5-1.4c-0.1-0.1-0.2-0.2-0.2-0.4
		c-0.1-0.2-0.2-0.5-0.4-0.6c-0.5-0.5-1-1.1-1.5-1.6c-0.1-0.1-0.2-0.2-0.4-0.4c-0.3-0.3-0.6-0.6-0.8-1c-0.2-0.4-0.5-0.7-0.9-1
		c-0.2-0.2-0.3-0.3-0.5-0.5c-0.1-0.3-0.4-0.5-0.7-0.5c-0.1,0-0.2-0.1-0.3-0.2c-0.2-0.3-0.5-0.6-0.8-0.7c-0.1,0-0.2-0.2-0.2-0.3
		c-0.1-0.1-0.2-0.3-0.3-0.4c-0.2-0.3-0.4-0.6-0.5-0.9c-0.1-0.4-0.3-0.8-0.7-1c-0.3-0.2-0.5-0.4-0.7-0.7c-0.1-0.2-0.2-0.4-0.3-0.6
		c-0.2,0-0.4,0-0.6-0.1c-0.2-0.3-0.5-0.4-0.8-0.5c-0.9-0.3-1.7-0.7-2.4-1.3c-1.3-1-2.6-2-3.9-3c-0.4-0.4-0.9-0.6-1.4-0.6
		c-1,0.2-2-0.5-2.2-1.5c0,0,0,0,0,0c-0.1-0.7-0.7-1.2-1.5-1.2c-0.4,0.3-0.9,0.6-1.3,0.8c-0.4,0.2-0.9,0.3-1.3,0.4
		c-1.1,0.3-2.1,0.7-3,1c-2.7-1.5-2.8-1.5-5.5-0.9c-1.2,0.3-2.5,0.3-3.7-0.1c-1.6-0.6-3.4-0.5-4.9,0.2c-0.8,0.3-1.7,0.4-2.5,0.1
		c-0.4-0.1-0.8-0.2-1.1-0.1c-1,0.3-2.2,0-2.8-0.8c-0.1-0.1-0.4-0.1-0.5-0.2c-1.3,0.1-2.5,1-3.8,0.2c-0.7,0.9-1.9,1.2-2.9,0.7
		c-0.2-0.1-0.4-0.1-0.6-0.1c-0.1-0.1-0.1-0.3-0.2-0.4c-0.1-0.7-0.8-1.2-1.5-1.2c-0.4,0.3-0.9,0.6-1.3,0.8c-0.4,0.2-0.9,0.3-1.3,0.4
		l-0.3,0.1c-0.1,0-0.1,0-0.2,0c-0.7,0.2-1.4,0.3-2.1,0.2c-0.7-0.2-1.4-0.2-2.1-0.2c-1.3-0.6-1.8-0.5-3.9,0h0
		c-0.6-0.1-1.2-0.2-1.8-0.3c-0.2,0-0.4-0.1-0.7-0.2l0,0c-0.1,0.2-0.2,0.4-0.3,0.6c-0.3,0-0.6-0.1-1-0.2c-1.6-0.6-3.4-0.5-4.9,0.3
		c-0.8,0.3-1.7,0.4-2.5,0.1c-0.4-0.1-0.8-0.2-1.1-0.1c-1,0.3-2.2,0-2.9-0.8c-0.1-0.1-0.4-0.1-0.5-0.2c-1.3,0.2-2.5,1-3.8,0.2
		c-0.7,0.9-1.9,1.2-2.9,0.7c-0.4-0.1-0.8-0.2-1.2,0c-0.8,0.2-1.6,0.2-2.3-0.2c-0.6-0.2-1.3-0.3-1.9,0l-0.1,0c0,0.3,0,0.5,0,0.8
		c-0.2,0-0.3,0-0.5,0c-1.1-0.3-2.2-0.2-3.3,0.1c-0.5,0.1-1,0.1-1.5,0.1c-1.2-0.1-2.4-0.2-3.5-0.4c-0.7-0.1-1.3-0.3-2-0.6
		c-0.8-0.5-1.8-0.6-2.8-0.4c-1.6,0.3-3.3,0.5-4.8-0.7c-0.2-0.2-0.5-0.3-0.8-0.3c-0.7-0.2-1.4,0.1-1.7,0.8c-0.2,0.5-0.5,1.1-0.7,1.6
		c-0.5,0.3-0.9,0.4-1.4,0.7c-0.7,0.4-1.5,0.4-2.2,0c-0.5-0.2-1-0.4-1.6-0.4c-0.8-0.1-1.7,0-2.5-0.1c-1.3,0-2.6-0.2-3.9-0.6
		c-1.5-0.6-3.1-1-4.7-1.1c-0.6,0.5-1,1.2-1.2,2c-0.2,0.1-0.5,0.1-0.8,0.1c-0.5-0.1-1-0.1-1.5-0.1c-0.4,0-0.7-0.1-1.1-0.3
		c-0.4-0.2-0.8-0.3-1.2-0.2c-0.6,0.1-1.3,0.1-1.9-0.1c-0.6-0.1-1.1-0.1-1.6,0.2c-0.4,0.2-0.8,0.3-1.2,0.4c-0.2,0.1-0.3,0-0.5-0.1
		c-0.4-0.3-0.8-0.4-1.3-0.2c-0.5,0-0.9,0.1-1.4,0.1c-0.1,0-0.2,0-0.3,0.1c-0.7,0.3-1.3,0.7-1.8,1.2c-0.2,0.2-0.4,0.3-0.7,0.4
		c-0.5,0.1-1,0.3-1.6,0.4c-0.3,0.1-0.5,0.2-0.7,0.4c-0.1,0.1-0.3,0.3-0.4,0.3c-0.4,0.2-0.8,0.3-1,0.7c-0.1,0.1-0.2,0.2-0.4,0.2
		c-0.1,0.1-0.3,0.1-0.4,0.2c-0.6,0.5-1.2,0.9-1.9,1.3c-0.1,0.1-0.2,0.1-0.2,0.2c-0.2,0.2-0.4,0.4-0.6,0.6c-0.3,0.1-0.5,0.3-0.7,0.5
		c-0.4,0.4-0.8,0.7-1.3,1c-0.2,0.1-0.3,0.2-0.4,0.4c-0.4,0.7-0.8,1.4-1.1,2.1c-0.1,0.4-0.5,0.7-0.9,0.8c-0.1,0-0.2,0.1-0.3,0.2
		c-0.2,0.3-0.5,0.5-0.9,0.6c-0.1,0-0.1,0.1-0.2,0.2c-0.2,0.2-0.4,0.4-0.5,0.6c-0.3,0.3-0.7,0.7-1,1c-0.3,0.3-0.6,0.6-0.7,1
		c0,0.3,0,0.6,0,0.8c0,0.3-0.3,0.6-0.2,0.9c0,0,0,0,0,0.1c-0.1,0.3-0.2,0.7-0.3,1c-0.1,0.2-0.2,0.4-0.3,0.6
		c-0.1,0.5-0.4,0.9-0.7,1.2c-0.3,0.2-0.4,0.5-0.2,0.8c0.1,0.1,0.1,0.3,0,0.4c-0.3,0.6-0.2,1.4-0.6,2c0,0.1,0,0.1,0,0.1
		c-0.1,0.6-0.3,1.1-0.5,1.6c-0.1,0.2-0.2,0.4-0.3,0.6c-0.2,0.1-0.2,0.3-0.2,0.5c0,0.2-0.1,0.5-0.2,0.7c0.1,0.2,0.3,0.4,0.3,0.6
		c0,0.5,0.2,1.1-0.1,1.6c-0.1,0.2-0.1,0.3,0,0.5c0.2,0.6,0.3,1.2,0.3,1.8c0,0.4,0.2,0.7,0.4,0.9c0.2,0.1,0.3,0.3,0.5,0.4
		c0.2,0.2,0.4,0.5,0.6,0.7c0.2,0.4,0.3,0.8,0.2,1.3c0,0.5,0,1,0.2,1.5c0.2,0.5,0.4,1,0.7,1.6c0.1,0.1,0.2,0.3,0.2,0.4
		c0.5,0.6,0.6,1.4,0.2,2.1c0,0.1,0,0.2,0,0.3c0.1,0.2,0.2,0.5,0.2,0.7c0.1,0.4,0.5,0.8,0.5,1.2c0,0.1,0.1,0.2,0.1,0.2
		c0.2,0.2,0.3,0.5,0.5,0.7c0.1,0.1,0.2,0.2,0.3,0.3c0.1,0.1,0.3,0.3,0.4,0.4c0.1,1.1,0.3,2.1,0.5,3.2c0,0.2,0,0.4,0.1,0.6
		c0.2,0.4,0.3,0.8,0.2,1.3c0,0.5,0,1,0.2,1.5c0.2,0.5,0.4,1,0.7,1.5c0.1,0.2,0.2,0.3,0.2,0.4c0.5,0.6,0.6,1.4,0.2,2.1
		c0,0.1,0,0.2,0,0.3c0.1,0.2,0.2,0.5,0.2,0.7c0.1,0.4,0.5,0.8,0.5,1.2c0,0.1,0.1,0.2,0.1,0.2c0.2,0.2,0.3,0.5,0.5,0.7
		c0.1,0.1,0.2,0.2,0.3,0.3c0.5,0.4,0.8,1,1.3,1.4c0.1,0.1,0.1,0.1,0.1,0.2c0.1,0.4,0.4,0.8,0.8,0.9c0.4,0.2,0.7,0.4,1,0.7
		c0.3,0.2,0.6,0.4,1,0.4c0.6,0.1,1.2,0.3,1.7,0.7c0.2,0.2,0.4,0.3,0.6,0.4c0.5,0.3,1,0.5,1.6,0.7c0.4,0.1,0.7,0.3,1,0.6
		c0.4,0.3,0.8,0.5,1.1,0.7c0.5,0.4,1.1,0.7,1.4,1.4c0,0.1,0.1,0.1,0.2,0.1c0.7,0.5,1.4,1.1,2,1.7c0.2,0.2,0.5,0.4,0.8,0.6
		c0.2,0.3,0.5,0.4,0.9,0.5c0.4,0.2,0.8,0.3,1.2,0.4c0.1,0,0.2,0.1,0.3,0.1c0.7,0.3,1.5,0.3,2.3,0.6c0.3,0.1,0.6,0.1,0.8,0.2
		c0.1,0,0.3,0.1,0.4,0.1c0.5,0,1.1,0.1,1.6,0.2c0.1,0,0.2,0,0.3,0h0c0.2-0.2,0.3-0.5,0.4-0.7c0.1-0.3,0.3-0.6,0.6-0.9
		c1,0.6,1.6,0.6,3.5,0.5c1.2-0.1,2.5,0.1,3.6,0.6c1.5,0.9,3.3,1.1,4.9,0.6c0.8-0.2,1.7-0.1,2.5,0.3c0.3,0.2,0.7,0.3,1.1,0.3
		c1.1-0.2,2.1,0.3,2.7,1.3c0.1,0.1,0.3,0.2,0.5,0.3c1.3,0.1,2.6-0.6,3.8,0.4c0.8-0.8,2.1-0.9,3-0.2c0.3,0.2,0.7,0.3,1.1,0.2
		c0.8-0.1,1.6,0.1,2.2,0.6c0.6,0.3,1.2,0.5,1.9,0.4c0.7-0.1,1.4-0.1,2.1,0.1c1,0.5,2,0.6,3.1,0.5c0.5,0,0.9,0,1.4,0.2
		c1.1,0.3,2.1,0.7,3.2,1.1c0.1,0,0.2,0.1,0.3,0.1c0-0.3,0.1-0.6,0.1-0.9c0.5,0.1,0.9,0.3,1.2,0.6c0.2,0.1,0.4,0.1,0.6,0.1
		c1.2-0.3,2.3-1.4,3.8-0.8c0.5-1,1.7-1.5,2.8-1.1c0.4,0.1,0.8,0,1.2-0.2c0.7-0.4,1.5-0.4,2.3-0.1c0.6,0.1,1.3,0.1,1.9-0.2
		c0.6-0.3,1.3-0.5,2.1-0.6c1,0.1,2.1,0,3.1-0.5c0.4-0.2,0.9-0.3,1.3-0.2c1.1,0,2.2,0,3.3,0c0.7,0,1.3,0.1,1.9,0.4
		c0.8,0.4,1.8,0.4,2.6,0.1c1.5-0.5,3.1-0.9,4.6,0.1c0.2,0.1,0.5,0.2,0.7,0.2c0.7,0.1,1.3-0.3,1.5-1c0,0,0,0,0,0
		c0.2-0.6,0.3-1.1,0.4-1.7c0.4-0.3,0.8-0.6,1.2-0.8c0.1-0.1,0.2-0.1,0.3-0.2c0.6,0.3,1.3,0.3,2,0.2c1.6-0.2,3.2-0.2,4.5,1
		c0.2,0.2,0.4,0.3,0.7,0.4c0.6,0.3,1.3,0,1.6-0.6c0,0,0,0,0,0c0.2-0.3,0.3-0.6,0.4-0.9c0.1,0,0.1,0,0.2,0c1.5,0.4,3,0.6,4.6,0.6
		c0.3-0.3,0.5-0.8,0.6-1.2c0.7,0.1,1.4,0.1,2.1,0.3c1.2,0.1,2.5,0.4,3.6,0.9c1.4,0.7,2.8,1.2,4.4,1.5c0.5-0.4,0.9-1,1.2-1.6
		c0.2,0,0.4,0,0.5,0c0.4,0,0.9,0,1.3,0.1c0.3,0.1,0.6,0.1,0.8,0c1-0.3,2.1-0.3,3.1-0.1c0.3,0.1,0.7,0,1-0.2c0.4-0.2,0.8-0.3,1.3-0.4
		c0.4,0,0.7-0.1,1.1-0.3c0.6-0.3,1.2-0.4,1.9-0.5l8.8-4.7c0.1-0.3,0.4-0.6,0.7-0.7c0.4-0.2,0.8-0.4,1.2-0.5c0.1,0,0.2-0.1,0.3-0.2
		c0.2-0.1,0.4-0.3,0.6-0.4c0.2-0.2,0.5-0.4,0.7-0.6c0.3-0.4,0.6-0.7,1.1-0.9c0.3-0.2,0.6-0.4,0.8-0.8c-0.1-0.2-0.1-0.3-0.2-0.5
		c-0.4-1-0.1-2.1,0.8-2.6c0.2-0.1,0.4-0.2,0.5-0.4c0.2-0.3,0.5-0.5,0.8-0.6c0.2,0,0.4-0.1,0.4-0.3c0-0.1,0.1-0.2,0.2-0.2
		c0,0,0,0,0,0c0.2-0.1,0.4-0.3,0.5-0.5h0l0,0c0-0.1,0.1-0.1,0.1-0.2c0.1-0.2,0.3-0.4,0.6-0.5c0.4-0.2,0.8-0.4,1.2-0.5
		c0.1,0,0.2-0.1,0.3-0.2c0.2-0.1,0.4-0.3,0.6-0.4c0.2-0.2,0.5-0.4,0.7-0.6c0.3-0.4,0.6-0.7,1.1-0.9c0.3-0.2,0.6-0.4,0.8-0.8
		c-0.1-0.2-0.1-0.3-0.2-0.5c-0.4-0.9-0.1-2.1,0.8-2.6c0.2-0.1,0.4-0.2,0.5-0.4c0.2-0.3,0.5-0.5,0.8-0.6c0.2,0,0.4-0.1,0.4-0.3
		c0-0.1,0.1-0.2,0.2-0.3c0.1-0.1,0.2-0.2,0.3-0.3c0-0.6,0-1.3-0.1-1.9c-0.1-1,0-1.9,0-2.9c0.1-1.9,0.1-3.9,0-5.8
		c-0.3-2.4-0.3-4.8-0.2-7.2c-0.1-0.3-0.1-0.5,0-0.8c0-0.2,0.1-0.4,0.1-0.6c0,0,0-0.1,0-0.1c0-0.2,0.1-0.4,0-0.6c0-0.3,0-0.6,0.2-0.9
		c0.1-0.1,0.2-0.2,0.3-0.3c0.2-0.1,0.2-0.3,0.1-0.5C541.2,305.5,541.1,305.5,541,305.4z M402.4,282.5c0.2,0.1,0.5,0.2,0.7,0.2
		C402.9,282.7,402.6,282.6,402.4,282.5L402.4,282.5z M490.4,350.3c-0.3,0-0.6,0-0.9,0c-0.2,0-0.4,0-0.6-0.1c0.1,0,0.2-0.1,0.3-0.1
		c0.6-0.4,1.4-0.3,2,0.1c0,0,0.1,0,0.1,0c-0.2,0-0.4,0-0.6,0.1C490.6,350.3,490.5,350.3,490.4,350.3L490.4,350.3z"/>
	<path class="st0" d="M365.5,66.2c0.1,1,0,1.9,0.1,2.9c0,1.9,0.1,3.9,0.2,5.8c0.3,2.4,0.5,4.8,0.5,7.2c0.1,0.3,0.1,0.5,0.1,0.8
		c0,0.2-0.1,0.4-0.1,0.6c0,0,0,0.1,0,0.1c0,0.2,0,0.4,0,0.6c0,0.3,0,0.6-0.2,0.9c-0.1,0.1-0.2,0.2-0.3,0.3c-0.2,0.1-0.2,0.3-0.1,0.5
		c0,0.1,0.1,0.1,0.2,0.2c0,0,0.1,0,0.1,0.1c0.4,0.2,0.8,0.6,0.9,1.1c0.1,0.2,0.2,0.4,0.3,0.6c0.3,0.3,0.5,0.7,0.8,1
		c0.3,0.3,0.5,0.8,0.6,1.3c0,0.2,0.2,0.5,0.2,0.7c0,0.5,0.2,1,0.6,1.3c0.1,0.1,0.2,0.2,0.2,0.4c0.1,0.2,0.2,0.5,0.5,0.6
		c0.5,0.5,1.1,1,1.6,1.5c0.1,0.1,0.3,0.2,0.4,0.3c0.3,0.3,0.6,0.6,0.9,0.9c0.3,0.4,0.6,0.7,0.9,1c0.2,0.1,0.3,0.3,0.5,0.5
		c0.1,0.3,0.4,0.5,0.7,0.5c0.1,0,0.2,0.1,0.3,0.2c0.2,0.3,0.5,0.5,0.9,0.7c0.1,0,0.2,0.2,0.2,0.3c0.1,0.1,0.2,0.3,0.3,0.4
		c0.3,0.2,0.4,0.6,0.5,0.9c0.1,0.4,0.4,0.8,0.8,1c0.3,0.1,0.5,0.4,0.7,0.7c0.1,0.2,0.2,0.4,0.3,0.6c0.2,0,0.4,0,0.6,0.1
		c0.2,0.3,0.5,0.4,0.8,0.5c0.9,0.2,1.7,0.7,2.4,1.3c0.5,0.3,0.9,0.7,1.4,1c0,0,0,0.1,0,0.1c0,0,0,0.1,0,0.1c0,0.2,0.1,0.4,0.2,0.6
		c0.2,0,0.3,0.1,0.4,0.3c0,0,0,0,0,0l0,0c0.1,0.1,0.2,0.2,0.3,0.3c0,0,0.1,0.1,0.1,0.1c0.2,0.1,0.4,0.2,0.6,0.4c0,0,0,0.1,0,0.1
		c0.2,0.1,0.3,0.3,0.5,0.3c0.1,0,0.2,0,0.2,0.1c0.2,0.2,0.4,0.3,0.6,0.4c0.2,0,0.3,0.1,0.4,0.2c0.1,0.1,0.3,0.2,0.5,0.3
		c0.1,0,0.3,0.1,0.4,0.2c0.1,0.1,0.2,0.1,0.3,0.1c0.1,0,0.2,0.1,0.4,0.2c0,0,0.1,0,0.1,0l0.2,0c0.1,0,0.2,0,0.3,0.1
		c0.1,0.1,0.2,0.1,0.3,0.1c0.1,0,0.2,0.1,0.3,0.1c0.1,0.3,0.4,0.6,0.8,0.7c0,0,0,0,0,0.1c0,0.1,0.1,0.1,0.1,0.1c0,0,0.1,0,0.1,0
		c0.2-0.1,0.4-0.1,0.6-0.1c0.1,0,0.2,0,0.3,0c0.2,0,0.3,0,0.5,0c0.2,0,0.4,0,0.5,0.1c0.1,0.1,0.2,0,0.3,0.1c0.2,0.1,0.4,0.1,0.6,0.1
		c0.1,0,0.1,0,0.2,0c0.1,0,0.2,0,0.3,0c0.3-0.1,0.6-0.1,0.9-0.2c0.1,0,0.1,0,0.2,0c0.2,0,0.3-0.1,0.5-0.1c0.2,0,0.4,0,0.5-0.1
		c0.1,0,0.2,0,0.3,0c0.1,0,0.2,0,0.3-0.1c0,0,0.1-0.1,0.1-0.1c0.2,0,0.3-0.1,0.4-0.1c0,0,0.1,0,0.1,0c0.1,0,0.1,0,0.2,0
		c0.1,0,0.3,0,0.4,0c0.2,0.1,0.3,0.1,0.5,0c0.1-0.1,0.2-0.1,0.4-0.1l0.3,0c0.1-0.1,0.1-0.2,0.3-0.2c0.1-0.1,0.2-0.1,0.2-0.2
		c0.1-0.1,0.2-0.1,0.3-0.2c0,0,0-0.1,0.1-0.1c0,0,0,0,0,0c0.8-0.1,1.5-0.2,2.2-0.4c1.2-0.3,2.5-0.4,3.7-0.1c1.6,0.6,3.4,0.4,4.9-0.4
		c0.8-0.4,1.7-0.4,2.5-0.2c0.4,0.1,0.8,0.1,1.1,0.1c1-0.4,2.2-0.1,2.9,0.7c0.1,0.1,0.4,0.1,0.5,0.2c1.3-0.2,2.5-1.1,3.8-0.4
		c0.7-0.9,1.9-1.2,2.9-0.8c0.2,0.1,0.4,0.1,0.6,0.1c0.1,0.1,0.1,0.3,0.2,0.4c0.1,0.7,0.8,1.2,1.5,1.1c0.4-0.3,0.9-0.6,1.3-0.9
		c0.4-0.2,0.9-0.3,1.3-0.5l0.3-0.1c0.1,0,0.1,0,0.2,0c0.7-0.3,1.4-0.4,2.1-0.3c0.7,0.2,1.4,0.2,2.1,0.1c1.3,0.5,1.8,0.4,3.9-0.1h0
		c0.6,0.1,1.2,0.1,1.8,0.2c0.2,0,0.4,0.1,0.7,0.1l0,0c0.1-0.2,0.2-0.4,0.2-0.6c0.3,0,0.6,0.1,1,0.2c1.6,0.5,3.4,0.4,4.9-0.4
		c0.8-0.4,1.7-0.4,2.5-0.2c0.4,0.1,0.8,0.1,1.1,0.1c1-0.4,2.2-0.1,2.9,0.7c0.1,0.1,0.4,0.1,0.5,0.2c1.3-0.2,2.5-1.1,3.8-0.4
		c0.6-0.9,1.8-1.3,2.9-0.8c0.4,0.1,0.8,0.1,1.2,0c0.8-0.3,1.6-0.2,2.3,0.1c0.6,0.2,1.3,0.2,1.9,0l0.1,0c0-0.2,0-0.4,0-0.6
		c0.2,0,0.4,0,0.6-0.1l0.1,0v0c1,0.2,2.1,0.1,3-0.3c0.5-0.1,1-0.2,1.4-0.1c0.7,0,1.3,0.1,1.9,0.2c0.2,0,0.3,0.1,0.5,0.1
		c0.5,0.1,1.1,0.3,1.5,0.7c0.6,0.5,1.4,0.7,2.2,0.5c1.3-0.2,2.7-0.3,3.7,0.9c0.2,0.2,0.4,0.3,0.6,0.3c0.6,0.2,1.1,0,1.4-0.7
		c0.1-0.3,0.2-0.6,0.3-0.8c0.4,0.1,0.7,0.3,1,0.5c0.2,0.1,0.5,0.2,0.8,0.3c0.7,0.2,1.4-0.2,1.6-0.9c0.1-0.3,0.2-0.6,0.4-1
		c0.2,0.1,0.4,0.1,0.5,0.1c0.6,0.1,1.3,0.1,2,0.2c1,0.1,2.1,0.3,3,0.8c1.1,0.6,2.4,1.1,3.7,1.3c0.5-0.5,0.9-1.2,1.1-1.9
		c0.2-0.1,0.5-0.2,0.6-0.1c0.4,0.1,0.8,0.1,1.1,0.2c0.3,0,0.6,0.2,0.8,0.3c0.3,0.2,0.6,0.3,0.9,0.2c0.5-0.1,1,0,1.5,0.2
		c0.4,0.2,0.9,0.1,1.3-0.1c0.3-0.1,0.6-0.3,0.9-0.3c0.1,0,0.3,0,0.4,0.1c0.3,0.3,0.6,0.4,1,0.3c0.4,0,0.7,0,1.1-0.1
		c0.1,0,0.2,0,0.3-0.1c0.5-0.3,1-0.7,1.5-1.1c0.1-0.2,0.3-0.3,0.5-0.4c0.4-0.1,0.8-0.3,1.3-0.4c0.2-0.1,0.4-0.2,0.6-0.4
		c0.1-0.1,0.2-0.2,0.4-0.3c0,0,0.1,0,0.1,0c0.4,0,0.8-0.1,1.1-0.3c0.4-0.2,0.7-0.3,1.1-0.4c0.2-0.1,0.3,0,0.5,0.1
		c0.4,0.3,0.8,0.3,1.3,0.2c0.5-0.1,0.9-0.1,1.4-0.2c0.1,0,0.2,0,0.3-0.1c0.6-0.3,1.2-0.7,1.7-1.2c0.2-0.2,0.4-0.4,0.6-0.4
		c0.5-0.2,1-0.3,1.6-0.5c0.3-0.1,0.5-0.2,0.7-0.4c0.1-0.1,0.3-0.3,0.4-0.4c0.4-0.2,0.8-0.3,1-0.7c0-0.1,0.2-0.2,0.3-0.2
		c0.1-0.1,0.2-0.1,0.4-0.2c0.6-0.5,1.2-1,1.9-1.4c0.1-0.1,0.2-0.1,0.2-0.3c0.1-0.2,0.4-0.4,0.6-0.6c0.3-0.2,0.5-0.3,0.7-0.6
		c0.4-0.4,0.8-0.8,1.2-1.1c0.2-0.1,0.3-0.2,0.4-0.4c0.4-0.7,0.7-1.4,1-2.1c0.1-0.4,0.4-0.8,0.8-0.9c0.1,0,0.2-0.1,0.3-0.2
		c0.2-0.3,0.5-0.6,0.9-0.7c0.1,0,0.1-0.1,0.2-0.2c0.2-0.2,0.4-0.4,0.5-0.7c0.3-0.4,0.6-0.7,1-1c0.3-0.3,0.6-0.6,0.7-1
		c0-0.3,0-0.6,0-0.8c0-0.3,0.3-0.6,0.2-0.9c0,0,0,0,0-0.1c0-0.3,0.1-0.7,0.2-1c0.1-0.2,0.2-0.4,0.3-0.7c0.1-0.5,0.3-0.9,0.7-1.2
		c0.3-0.2,0.3-0.5,0.2-0.8c-0.1-0.1-0.1-0.3,0-0.4c0.3-0.6,0.2-1.4,0.5-2c0-0.1,0-0.1,0-0.2c0.1-0.6,0.2-1.1,0.4-1.6
		c0-0.2,0.2-0.5,0.3-0.6c0.1-0.1,0.2-0.3,0.2-0.5c-0.1-0.2,0-0.5,0.2-0.7c-0.1-0.2-0.3-0.4-0.3-0.6c-0.1-0.5-0.3-1.1,0-1.6
		c0.1-0.2,0.1-0.3,0-0.5c-0.2-0.6-0.3-1.2-0.4-1.8c0-0.4-0.2-0.7-0.5-0.9c-0.2-0.1-0.3-0.3-0.5-0.4c-0.2-0.2-0.5-0.4-0.6-0.7
		c-0.2-0.4-0.3-0.8-0.3-1.3c0-0.5-0.1-1-0.3-1.5c-0.2-0.5-0.5-1-0.8-1.5c-0.1-0.1-0.2-0.3-0.2-0.4c-0.5-0.6-0.6-1.4-0.3-2.1
		c0-0.1,0-0.2,0-0.3c-0.1-0.2-0.2-0.5-0.3-0.7c-0.1-0.4-0.5-0.8-0.5-1.2c0-0.1-0.1-0.2-0.1-0.2c-0.2-0.2-0.3-0.4-0.5-0.7
		c-0.1-0.1-0.2-0.2-0.3-0.3c-0.1-0.1-0.3-0.2-0.4-0.4c-0.1-1.1-0.3-2.1-0.6-3.2c0-0.2-0.1-0.4-0.1-0.6c-0.2-0.4-0.3-0.8-0.3-1.3
		c0-0.5-0.1-1-0.3-1.5c-0.2-0.5-0.5-1-0.8-1.5c-0.1-0.1-0.2-0.3-0.2-0.4c-0.5-0.6-0.6-1.4-0.3-2.1c0-0.1,0-0.2,0-0.3
		c-0.1-0.2-0.2-0.5-0.3-0.7c-0.1-0.4-0.5-0.8-0.5-1.2c0-0.1-0.1-0.2-0.1-0.2c-0.2-0.2-0.3-0.5-0.5-0.7c-0.1-0.1-0.2-0.2-0.3-0.3
		c-0.5-0.4-0.9-0.9-1.4-1.3c-0.1,0-0.1-0.1-0.1-0.2c-0.1-0.4-0.4-0.8-0.8-0.9c-0.4-0.2-0.7-0.4-1-0.6c-0.3-0.2-0.6-0.3-1-0.4
		c-0.6,0-1.3-0.3-1.8-0.7c-0.2-0.2-0.4-0.3-0.6-0.4c-0.5-0.2-1-0.5-1.6-0.7c-0.4-0.1-0.7-0.3-1.1-0.6c-0.4-0.3-0.8-0.4-1.2-0.7
		c-0.5-0.4-1.2-0.7-1.4-1.3c0-0.1-0.1-0.1-0.2-0.1c-0.7-0.5-1.4-1-2-1.7c-0.3-0.2-0.5-0.4-0.8-0.5c-0.2-0.3-0.5-0.4-0.9-0.5
		c-0.4-0.2-0.8-0.3-1.2-0.3c-0.1,0-0.2-0.1-0.3-0.1c-0.7-0.2-1.5-0.3-2.3-0.5c-0.3-0.1-0.6-0.1-0.8-0.1c-0.1,0-0.3-0.1-0.4-0.1
		c-0.5,0-1.1,0-1.6-0.2c-0.1,0-0.2,0-0.3,0h0c-0.2,0.2-0.3,0.5-0.4,0.7c-0.1,0.3-0.3,0.6-0.6,0.9c-1-0.5-1.6-0.5-3.5-0.4
		c-1.2,0.1-2.5,0-3.6-0.5c-1.5-0.8-3.3-0.9-4.9-0.4c-0.8,0.2-1.7,0.2-2.5-0.2c-0.4-0.2-0.7-0.2-1.1-0.3c0,0-0.1,0-0.1,0
		c0-0.1-0.1-0.1-0.1-0.2c-0.1-0.1-0.2-0.2-0.4-0.3c-0.4,0-0.9,0-1.3,0.1c-0.3-0.2-0.6-0.5-0.8-0.8c-0.1-0.1-0.3-0.2-0.5-0.3
		c-1.3,0-2.6,0.7-3.8-0.3c-0.2,0.2-0.4,0.3-0.7,0.4c-0.3-0.1-0.6-0.3-0.8-0.6c-0.4-0.4-0.9-0.5-1.5-0.4c-0.6,0.1-1.1,0-1.7-0.2
		c-0.7-0.5-1.5-0.7-2.4-0.6c-0.4,0-0.7-0.1-1.1-0.2c-0.8-0.4-1.6-0.7-2.4-1.2c-0.1,0-0.2-0.1-0.2-0.1c-0.1,0.3-0.1,0.6-0.2,0.9
		c-0.4-0.1-0.7-0.4-1-0.6c-0.1-0.1-0.3-0.1-0.4-0.2c-1,0.3-1.9,1.3-3,0.7c-0.2,0.3-0.4,0.5-0.6,0.7c-0.7-0.2-1.5-0.4-2.2-0.6
		c-0.1,0-0.2-0.1-0.3-0.1c0,0.3-0.1,0.6-0.1,0.9c-0.5-0.1-0.9-0.3-1.3-0.5c-0.2-0.1-0.4-0.1-0.6-0.1c-1.2,0.4-2.3,1.5-3.7,1
		c-0.2,0.2-0.3,0.4-0.5,0.6c-0.4,0-0.9,0.2-1.3,0.4c-0.3,0.2-0.7,0.2-1.1,0.2c-0.9,0-1.8-0.1-2.6-0.1c-0.5,0-1-0.2-1.5-0.4
		c-0.6-0.4-1.4-0.5-2.1-0.2c-1.2,0.4-2.5,0.7-3.6-0.3c-0.2-0.1-0.4-0.2-0.6-0.2c-0.6-0.1-1,0.2-1.2,0.9c-0.2,0.6-0.3,1.1-0.4,1.6
		c-0.4,0.3-0.7,0.5-1,0.8c-0.1,0.1-0.1,0.1-0.2,0.2c-0.5-0.3-1-0.4-1.5-0.3c-1.3,0.3-2.6-0.2-3.5-1.2c-0.1-0.2-0.3-0.3-0.5-0.4
		c-0.6-0.3-1-0.1-1.3,0.6c-0.1,0.3-0.3,0.6-0.4,0.9c0,0-0.1,0-0.1,0c-1.1-0.5-2.3-0.7-3.6-0.8c-0.2,0.3-0.4,0.6-0.5,1
		c-0.1,0-0.1,0-0.2,0c-0.2,0-0.4,0-0.6,0.1c-0.3,0-0.6-0.1-0.9-0.2c-1-0.2-1.9-0.5-2.8-1c-1-0.7-2.2-1.3-3.4-1.7
		c-0.5,0.4-0.8,1-1,1.6c-0.1,0-0.3,0-0.4,0c-0.4,0-0.7,0-1.1-0.1c-0.2-0.1-0.4-0.1-0.7,0c-0.8,0.2-1.6,0.2-2.4-0.1
		c-0.3-0.1-0.6-0.1-0.8,0.1c-0.3,0.2-0.7,0.3-1,0.3c-0.3,0-0.6,0.1-0.9,0.2c-0.5,0.2-1,0.4-1.5,0.5l-5.7,3.5c0,0-0.1,0-0.1-0.1
		c-0.2-0.1-0.4-0.2-0.6-0.3c-0.2,0-0.4-0.1-0.7-0.1c-0.1,0-0.1,0-0.2,0c-0.3,0-0.6-0.1-0.8-0.4c0,0-0.1,0-0.1-0.1
		c-0.1,0-0.2,0-0.3-0.1c-0.2-0.1-0.4,0-0.5-0.1c0,0-0.1,0-0.1,0c-0.1,0-0.2,0-0.3,0c-0.1,0-0.1,0-0.2,0c-0.2,0.1-0.5,0.1-0.8,0.1
		c0,0-0.1,0-0.1,0c-0.2-0.1-0.3,0-0.5,0.1c-0.1,0.1-0.3,0.1-0.4,0.2c-0.1,0-0.3,0.1-0.3,0.2c-0.2,0.2-0.4,0.4-0.6,0.4
		c-0.1,0-0.2,0.1-0.3,0.1c-0.2,0.1-0.4,0.2-0.6,0.4c-0.1,0.1-0.3,0.2-0.4,0.2c-0.2,0.1-0.3,0.2-0.5,0.2c-0.2,0.1-0.5,0.2-0.8,0.2
		c0,0-0.1,0-0.1,0c-0.3,0.1-0.7,0.2-1,0.3c-0.1,0-0.1,0.1-0.2,0.1c-0.4,0-0.8,0-1.2-0.1c-0.3-0.1-0.7,0-1,0.2
		c-0.4,0.2-0.8,0.4-1.3,0.4c-0.4,0-0.7,0.2-1.1,0.3c-0.6,0.3-1.2,0.5-1.9,0.6l-8.6,5.1c-0.1,0.3-0.4,0.6-0.7,0.7
		c-0.4,0.3-0.8,0.5-1.2,0.6c-0.1,0-0.2,0.1-0.3,0.2c-0.2,0.1-0.4,0.3-0.5,0.4c-0.2,0.2-0.5,0.4-0.6,0.7c-0.3,0.4-0.6,0.7-1,1
		c-0.3,0.2-0.6,0.5-0.8,0.8c0.1,0.2,0.1,0.3,0.2,0.5c0.5,0.9,0.1,2.1-0.7,2.6c-0.2,0.1-0.4,0.2-0.5,0.4c-0.2,0.3-0.4,0.5-0.8,0.6
		c-0.2,0-0.4,0.2-0.4,0.3c0,0.1-0.1,0.2-0.2,0.2c0,0,0,0,0,0c-0.2,0.1-0.4,0.3-0.5,0.5h0l0,0c0,0.1-0.1,0.1-0.1,0.2
		c-0.1,0.2-0.3,0.4-0.5,0.5c-0.4,0.3-0.8,0.5-1.2,0.6c-0.1,0-0.2,0.1-0.3,0.2c-0.2,0.1-0.4,0.3-0.5,0.4c-0.2,0.2-0.4,0.4-0.6,0.7
		c-0.3,0.4-0.6,0.7-1,1c-0.3,0.2-0.6,0.5-0.8,0.8c0.1,0.2,0.1,0.3,0.2,0.5c0.5,0.9,0.1,2.1-0.7,2.6c-0.2,0.1-0.4,0.2-0.5,0.4
		c-0.2,0.3-0.4,0.5-0.8,0.6c-0.2,0-0.4,0.2-0.4,0.3c0,0.1-0.1,0.2-0.2,0.3c-0.1,0.1-0.2,0.2-0.3,0.3
		C365.4,64.9,365.5,65.5,365.5,66.2z"/>
	<path class="st0" d="M385.3,110.6c0.2-0.1,0.2-0.4,0.2-0.6C385.5,110.3,385.4,110.5,385.3,110.6L385.3,110.6z"/>
	<path class="st0" d="M347,99.8c0.3-1.6,0.2-3.2-0.3-4.8c-0.3-0.8-0.4-1.7-0.3-2.6c0.1-0.4,0.1-0.9,0-1.3c-0.3-1.1-0.1-2.4,0.6-3.3
		c0.3-0.4,0.4-0.8,0.4-1.2c-0.2-2.1-0.5-4.3-0.8-6.4c-0.1-0.5-0.3-1-0.8-1.4c-1.4-0.6-1.1-1.8-0.9-2.7c0.4-1.8,0.9-3.6,1.5-5.4
		c0.2-0.5,0.5-1,0.8-1.4c1-1.6,2-3.2,1.1-5.2c0.2-1.5-0.4-2.8-0.5-4.2c-0.1-1.7,0-3.4,0.2-5.1c0.1-1.4,0.2-2.9,0.4-4.3
		c0.2-0.9,0.1-1.8-0.3-2.6c-0.6-1.2-0.1-2.5-0.2-3.7c-0.1-0.9-0.3-1.7-0.6-2.6h0c-0.5-0.3-1.1-0.6-1.5-0.9c-1.9,0.7-3.9,0.9-5.9,0.7
		c-0.4-0.1-0.9-0.1-1.3,0c-1.5,0.4-3,0.5-4.5,0.5c-1.3-0.1-2.7-0.1-4,0.1c-1.3,0.3-2.7,0.2-3.9-0.2c-0.3,0-0.5,0-0.8,0
		c-1.6,0-3.2,0-4.8,0c-0.4,0-0.7,0-1-0.2c-1.2-0.9-2.4-0.5-3.6-0.1c-0.5,0.2-1,0.2-1.6,0.1c-1.1-0.2-2.2-0.6-3.4-0.8
		c-3-0.6-6.1-0.6-9,0c-0.4,0.2-0.9,0.2-1.3,0.1c-1.3-0.7-2.6-0.4-4-0.2c-0.9,0.3-1.8,0.2-2.6-0.1c-1-0.4-2-0.6-3.1-0.7
		c-1.5-0.3-3-0.4-4.5-0.6c-0.9-0.2-1.8-0.2-2.6,0c-1.1,0.4-2.3,0.3-3.4-0.1c-1.2-0.5-2.6-0.7-3.9-0.5c-1.5,0.1-3,0-4.1-1.4
		c-0.3-0.4-0.6-0.6-1-0.8c0.1,0.2,0.1,0.4,0.2,0.6c0.5,1.1,0.4,2.3-0.1,3.4c-0.2,0.5-0.2,1-0.1,1.5c0.3,1.7,0,3.4-0.8,4.8
		c-0.9,1.6-1.1,3.5-0.4,5.2c0.8,2,1,4.2,0.7,6.3c-0.1,0.6-0.2,1.2-0.1,1.9c0.2,3.2,0.1,6.4-0.2,9.6c-0.1,2.1,0.2,4.3-0.7,6.3
		c-0.2,0.7-0.2,1.4,0,2.1c0.6,3.4,0.2,6.8,0.2,10.2c0,3.9-0.6,7.7-0.8,11.5c-0.1,1.7-0.3,3.4-0.4,5.1c0,0.6,0,1.1,0,1.7
		c3.2,0.3,6.5,0.7,9.7,0.7c3.4,0,6.8,0.4,10.2-0.2c0.7-0.2,1.4-0.2,2.1,0c2.1,0.8,4.2,0.6,6.3,0.7c3.2,0.3,6.4,0.4,9.6,0.2
		c0.6,0,1.3,0,1.9,0.1c2.1,0.3,4.3,0.1,6.3-0.7c1.7-0.7,3.6-0.6,5.2,0.4c1.4,0.9,3.2,1.2,4.8,0.8c0.5-0.2,1.1-0.1,1.5,0.1
		c1.1,0.5,2.3,0.5,3.4,0.1c0.7-0.2,1.4-0.4,2.1-0.4c1.5,0,3-0.1,4.5-0.3c1.4-0.2,2.9,0,4.2,0.4c0.8,0.2,1.6,0.4,2.3,0.6
		c1.1,0.3,2.3,0.4,3.5,0.1c0.3-1.4,0.4-2.8,0.2-4.2C346.6,103.1,346.7,101.4,347,99.8z"/>
	<path class="st1" d="M568.1,40.3V46h8.6v2.1h-8.6v7.8h-2.4V38.2H577v2.1L568.1,40.3z"/>
	<path class="st1" d="M593.5,46.5l-0.1,9.4h-2v-1.7c-1.3,1.3-3.1,2.1-5,2c-2.9,0-4.5-1.5-4.5-3.9c0-2.8,2.8-4,9.2-4.5l0-1
		c0-1.8-0.2-3.4-3-3.4c-1.7,0-3.4,0.4-5,1.2l-0.6-2c1.8-0.9,3.8-1.4,5.8-1.4C593,41.3,593.6,43.7,593.5,46.5z M591.1,52.6l0.1-2.9
		c-4.8,0.4-6.8,1.1-6.8,2.5c0,1.2,0.8,1.9,2.4,1.9C588.3,54.1,589.9,53.6,591.1,52.6z"/>
	<path class="st1" d="M611.2,53.8v2.1h-12.4v-2.1h5V34.5h2.3v19.2H611.2z"/>
	<path class="st1" d="M615.8,55l0.7-2.2c1.6,0.8,3.4,1.2,5.2,1.2c2.7,0,3.9-0.6,3.9-2c0-2.9-9.6-1.9-9.6-6.7c0-2.7,2.4-4.1,6.1-4.1
		c1.8,0,3.5,0.3,5.2,1l-0.7,2.1c-1.4-0.7-2.9-1.1-4.5-1.1c-2.5,0-3.7,0.7-3.7,1.8c0,2.8,9.6,1.8,9.6,6.7c0,3-2.6,4.3-6.4,4.3
		C619.6,56.2,617.6,55.8,615.8,55z"/>
	<path class="st1" d="M634.9,48.7c0,3.6,1.5,5.3,4.6,5.3c1.7,0,3.3-0.4,4.7-1.2l0.6,2c-1.6,0.9-3.5,1.4-5.4,1.4
		c-4.2,0-6.9-2.4-6.9-7.3s3-7.6,6.7-7.6c4.3,0,6.2,2.7,5.6,7.3h-10L634.9,48.7z M635.1,46.7h7.5c-0.1-2.4-1.2-3.4-3.5-3.4
		C637.1,43.2,635.4,44.7,635.1,46.7L635.1,46.7z"/>
	<path class="st1" d="M365.3,160h-5.5v15.5h-2.4V160h-5.5v-2.2h13.4V160z"/>
	<path class="st1" d="M382,173.4v2.1h-12.4v-2.1h3.7v-12.2h2.1l-0.1,2.8l6.3-3.1l0,2.3l-6.1,2.9v7.3L382,173.4z"/>
	<path class="st1" d="M398.1,161.2v14.3h-2v-1.6c-1.3,1.2-3,1.9-4.8,1.9c-3.3,0-4.7-1.7-4.7-4.7v-9.9h2.3v9.5c0,2.1,0.9,3,2.6,3
		c1.5,0,2.9-0.5,4.2-1.4v-11.1H398.1z"/>
	<path class="st1" d="M405.5,168.3c0,3.6,1.5,5.3,4.6,5.3c1.7,0,3.3-0.4,4.7-1.2l0.6,1.9c-1.6,0.9-3.5,1.4-5.4,1.4
		c-4.2,0-6.9-2.4-6.9-7.3s3-7.6,6.7-7.6c4.3,0,6.2,2.7,5.6,7.3h-10V168.3z M405.7,166.3h7.5c-0.1-2.4-1.2-3.4-3.5-3.4
		C407.7,162.8,405.9,164.3,405.7,166.3L405.7,166.3z"/>
	<path class="st2" d="M304,82.4v2.1h-12.4v-2.1h5.3V72.2h-5.3v-2.1h7.6v12.2H304z M295.4,65.5c0-1.3,1-2.3,2.3-2.3s2.3,1,2.3,2.3
		s-1,2.3-2.3,2.3c0,0,0,0,0,0C296.5,67.8,295.4,66.8,295.4,65.5C295.4,65.5,295.4,65.5,295.4,65.5L295.4,65.5z"/>
	<path class="st2" d="M314.3,67.2c0,1.4,0.5,2.5,0.7,4.5h5.6v2.1h-5.5v8.6h5.5v2.1h-12.4v-2.1h4.5v-8.6h-4.5v-2.1h4.4
		c-0.3-1.4-0.6-2.9-0.7-4.4c0-3.2,2.4-4.4,5.3-4.4c1.4,0,2.8,0.2,4.1,0.7l-0.7,2.1c-1.1-0.5-2.4-0.8-3.6-0.7
		C315.3,65,314.3,65.4,314.3,67.2z"/>
	<path class="st2" d="M377.8,72.3c0-5.2,3.1-7.6,7.1-7.6c1.8,0,3.6,0.4,5.2,1.2l-0.7,2.1c-1.4-0.8-3.1-1.2-4.7-1.2
		c-2.8,0-4.5,1.6-4.5,5.3c0,3.6,1.4,5.3,4.5,5.3c1.7,0,3.3-0.4,4.7-1.3l0.6,2.1c-1.6,0.9-3.5,1.4-5.4,1.4
		C380.3,79.5,377.8,77.1,377.8,72.3z"/>
	<path class="st2" d="M394.4,72.3c0-4.8,2.7-7.6,6.6-7.6c4.1,0,6.4,2.8,6.4,7.4s-2.7,7.5-6.6,7.5C396.7,79.5,394.4,76.8,394.4,72.3z
		 M405,72.2c0-3.4-1.3-5.4-4.1-5.4c-2.9,0-4.2,2.1-4.2,5.4s1.3,5.3,4.1,5.3C403.7,77.4,405,75.4,405,72.2z"/>
	<path class="st2" d="M423.5,69.4v9.9h-2.3v-9.5c0-2.1-0.9-3-2.6-3c-1.5,0-2.9,0.5-4.2,1.4v11.1h-2.3V65h2v1.6
		c1.3-1.2,3-1.9,4.8-1.9C422.2,64.7,423.5,66.4,423.5,69.4z"/>
	<path class="st2" d="M440.4,57.9v21.3h-2v-1.5c-1.3,1.2-3,1.8-4.8,1.8c-3.5,0-5.4-2.5-5.4-6.9c0-5.7,2.8-8,7.1-8
		c0.9,0,1.9,0.1,2.8,0.2v-7H440.4z M438.1,76.1v-8.9c-1-0.3-2-0.4-3-0.4c-3.1,0-4.5,1.9-4.5,5.6c0,3.2,1.1,5,3.4,5
		C435.4,77.4,436.8,77,438.1,76.1z"/>
	<path class="st2" d="M458,77.2v2.1h-12.4v-2.1h5.3V67h-5.3V65h7.6v12.2H458z M449.5,60.3c0-1.3,1-2.3,2.3-2.3s2.3,1,2.3,2.3
		c0,1.3-1,2.3-2.3,2.3c0,0,0,0,0,0C450.5,62.6,449.5,61.6,449.5,60.3C449.5,60.3,449.5,60.3,449.5,60.3L449.5,60.3z"/>
	<path class="st2" d="M474.7,78.4c-1.5,0.8-3.2,1.1-4.9,1.1c-3.9,0-4.6-2.1-4.5-5.2l0.2-7.3h-3.5V65h3.5l0.1-3.4h2.4l-0.4,3.4h6.7
		V67h-6.4l-0.2,7c-0.1,1.8,0.2,3.4,2.2,3.4c1.5,0,2.9-0.3,4.2-1L474.7,78.4z"/>
	<path class="st2" d="M491.8,77.2v2.1h-12.4v-2.1h5.3V67h-5.3V65h7.6v12.2H491.8z M483.3,60.3c0-1.3,1-2.3,2.3-2.3s2.3,1,2.3,2.3
		c0,1.3-1,2.3-2.3,2.3c0,0,0,0,0,0C484.3,62.6,483.3,61.6,483.3,60.3C483.3,60.3,483.3,60.3,483.3,60.3L483.3,60.3z"/>
	<path class="st2" d="M495.8,72.3c0-4.8,2.7-7.6,6.6-7.6c4.1,0,6.4,2.8,6.4,7.4s-2.7,7.5-6.6,7.5C498.1,79.5,495.8,76.8,495.8,72.3z
		 M506.4,72.2c0-3.4-1.3-5.4-4.1-5.4c-2.9,0-4.2,2.1-4.2,5.4s1.3,5.3,4.1,5.3C505.1,77.4,506.4,75.4,506.4,72.2z"/>
	<path class="st2" d="M524.9,69.4v9.9h-2.3v-9.5c0-2.1-0.9-3-2.6-3c-1.5,0-2.9,0.5-4.2,1.4v11.1h-2.3V65h2v1.6
		c1.3-1.2,3-1.9,4.8-1.9C523.6,64.7,524.9,66.4,524.9,69.4z"/>
	<path class="st2" d="M437.9,318.6c0,5.7-2.8,8-7.1,8c-1.7,0-3.5-0.2-5.1-0.8v-20.8h2.3v6.2l-0.2,2.2c1.3-1.1,2.9-1.7,4.7-1.7
		C436,311.7,437.9,314.2,437.9,318.6z M435.6,318.8c0-3.2-1.1-5-3.4-5c-1.5,0-3,0.5-4.2,1.4v8.9c1,0.3,2,0.4,3,0.4
		C434.2,324.4,435.6,322.5,435.6,318.8z"/>
	<path class="st2" d="M441.8,319.3c0-4.8,2.7-7.6,6.6-7.6c4.1,0,6.4,2.8,6.4,7.4s-2.7,7.5-6.6,7.5
		C444.2,326.5,441.8,323.8,441.8,319.3z M452.5,319.2c0-3.4-1.3-5.4-4.1-5.4c-2.9,0-4.2,2.1-4.2,5.4s1.3,5.3,4.1,5.3
		C451.2,324.4,452.5,322.4,452.5,319.2z"/>
	<path class="st2" d="M470.9,304.9v21.3h-2v-1.5c-1.3,1.2-3,1.8-4.8,1.8c-3.5,0-5.4-2.5-5.4-6.9c0-5.7,2.8-8,7.1-8
		c0.9,0,1.9,0.1,2.8,0.2v-7L470.9,304.9z M468.6,323.1v-8.9c-1-0.3-2-0.4-3-0.4c-3.1,0-4.5,1.9-4.5,5.6c0,3.2,1.1,5,3.4,5
		C465.9,324.4,467.4,324,468.6,323.1L468.6,323.1z"/>
	<path class="st2" d="M483.3,328.9h4.1v2.1h-10.6v-2.1h4.1V326l-5.5-14h2.5l3,7.8l1,3.2h0.5l1-3.2l2.9-7.8h2.4l-5.5,14L483.3,328.9z
		"/>
</g>
</svg>
