<svg xmlns="http://www.w3.org/2000/svg" viewBox="0 0 952 498.456"><defs><style>.cls-1{fill:#1858a8;}.cls-2{fill:#f36;}.cls-3{fill:#ffeded;}</style></defs><title>manuale_ill_nuove</title><g id="solo_testo" data-name="solo testo"><path class="cls-1" d="M713.405,333.329c-.649-1.02-.454-2.139-.46-3.244,0-.513-.181-1.025-.181-1.538a14.205,14.205,0,0,1,.093-3.682,5.7,5.7,0,0,0,.091-1.933l-.034,0c.019-.1.045-.191.061-.288a5.244,5.244,0,0,0,.072-1.508c-.067-.508-.152-1.012-.234-1.517-.156-.954-.316-1.907-.444-2.865a5.422,5.422,0,0,1,.026-1.771c.079-.388.445-.714.672-1.076a2.386,2.386,0,0,0,.159-.382c-.377-.333-.757-.669-1.2-1.055.392-1.434.273-2.909.64-4.357a7.484,7.484,0,0,0,.187-3.5,14.212,14.212,0,0,1-.093-3.683c0-.512.179-1.024.181-1.537.006-1.106-.189-2.224.46-3.244a1.081,1.081,0,0,0,.069-.651c-.14-1.1-.28-2.2-.461-3.3-.278-1.673-.6-3.34-.879-5.013a2.3,2.3,0,0,1,.046-.877c.741-3.133-.133-6.342.449-9.482.026-.137-.061-.291-.066-.438-.016-.439-.043-.879-.052-1.318a6.09,6.09,0,0,1,.008-.676,18.906,18.906,0,0,0-.078-3.752,7.523,7.523,0,0,1-.068-3.307,1.191,1.191,0,0,0-.1-.846,2.285,2.285,0,0,1-.24-1.014c.014,0,.027,0,.04,0,.132.025.264.025.4.041.012-.1.016-.2.028-.3a9.736,9.736,0,0,1,.182-.967,2.7,2.7,0,0,0,.483-1.261,6.039,6.039,0,0,0-.394-3.447c-.083-.512-.16-1.026-.238-1.538a9.375,9.375,0,0,0,.446-3.779c.03-.04.064-.079.089-.12a2.386,2.386,0,0,0,.159-.382l-.378-.335c-.045-.239-.073-.477-.137-.718a4.107,4.107,0,0,1-.125-1.742,10.131,10.131,0,0,0,.084-2.615v0a7.484,7.484,0,0,0,.187-3.5,5.029,5.029,0,0,1-.1-.651,1.629,1.629,0,0,0-.049-.388c-.054-.893.059-1.759.06-2.644,0-.512.179-1.024.181-1.537.006-1.106-.189-2.224.46-3.244a1.081,1.081,0,0,0,.069-.651c-.14-1.1-.28-2.2-.461-3.3-.22-1.322-.464-2.64-.7-3.96.145-.609.291-1.215.478-1.818a4.166,4.166,0,0,0-.007-2.823,10.534,10.534,0,0,1-.3-1.032,28.36,28.36,0,0,1,.139-5.739c.026-.137-.061-.291-.066-.438-.016-.439-.043-.879-.052-1.318a6.09,6.09,0,0,1,.008-.676,18.906,18.906,0,0,0-.078-3.752,17.89,17.89,0,0,1-.232-2.32,7.22,7.22,0,0,1,.649-1.677,10.27,10.27,0,0,0,.445-1.067,8.8,8.8,0,0,0-.719-.857c-.056-.051-.122-.09-.179-.139a2.856,2.856,0,0,0,.759-1.591,5.639,5.639,0,0,0-.5-3.678,3.1,3.1,0,0,1-.291-.566,4.309,4.309,0,0,1,.125-.614,9.2,9.2,0,0,0,.212-5.461,4.107,4.107,0,0,1-.125-1.742,20.09,20.09,0,0,0-.254-5.665l-.091-.062a1.727,1.727,0,0,1,.364-.523,1.248,1.248,0,0,0,.083-1.047,9.951,9.951,0,0,1-.536-3.939,1.985,1.985,0,0,0-.17-.858,6.2,6.2,0,0,1-.177-3.913,2.764,2.764,0,0,0,.183-1.082,11.947,11.947,0,0,1,.2-4.895c.171-.78.372-1.555.611-2.326a4.166,4.166,0,0,0-.007-2.823c-.184-.485-.288-1-.435-1.5a15.276,15.276,0,0,1-.6-7.67,9.668,9.668,0,0,0,.039-1.764c.049-2.06.016-4.133,1.063-6.02a10.27,10.27,0,0,0,.445-1.067,8.8,8.8,0,0,0-.719-.857c-.318-.294-.683-.533-1.026-.795-.02-.587-.085-1.106-.05-1.619.12-1.7.244-3.4.426-5.1.085-.8.332-1.581.453-2.378a5.3,5.3,0,0,0,.058-1.511c-.209-1.462-.51-2.912-.72-4.374a5.565,5.565,0,0,1,0-1.63c-.088-.012-.176-.018-.263-.028a15.4,15.4,0,0,1-.072-3.558c0-.512.179-1.024.181-1.537,0-1.106-.189-2.224.46-3.244a1.074,1.074,0,0,0,.068-.651c-.139-1.1-.279-2.2-.461-3.3-.174-1.041-.36-2.08-.547-3.12a.532.532,0,0,0-.034-.97c-.056-.032-.075-.085-.127-.119-.015-.01-.022-.026-.036-.036a2.593,2.593,0,0,1-1.117-1.806,1.983,1.983,0,0,0-.365-.916,17.066,17.066,0,0,1-1.007-1.712,2.971,2.971,0,0,1-.669-2.028c.04-.351-.179-.729-.144-1.082a3.165,3.165,0,0,0-.64-2.176,1.645,1.645,0,0,1-.262-.59A2.247,2.247,0,0,0,706.1,99.8c-.085-.1-.165-.2-.25-.3-.654-.77-1.3-1.551-1.945-2.327-.165-.2-.35-.378-.508-.582a11.305,11.305,0,0,1-1.173-1.59,7.116,7.116,0,0,0-1.24-1.681,3.646,3.646,0,0,1-.656-.874,1.537,1.537,0,0,0-1.045-.908.891.891,0,0,1-.438-.305,4.459,4.459,0,0,0-1.227-1.252c-.141-.079-.219-.288-.312-.448a4.217,4.217,0,0,0-.363-.681,3.075,3.075,0,0,1-.677-1.484,2.35,2.35,0,0,0-1-1.669,2.278,2.278,0,0,1-.933-1.18c-.134-.3-.27-.6-.418-.929a1.57,1.57,0,0,1-.86-.258,2.383,2.383,0,0,0-1.23-.905,9.745,9.745,0,0,1-3.532-2.342c-.665-.575-1.309-1.176-1.962-1.766,0-.048.031-.095.006-.148a.4.4,0,0,1-.046-.212,1.692,1.692,0,0,0-.269-.925c-.251-.089-.506-.178-.575-.484a.105.105,0,0,0-.058-.063l0,0a.824.824,0,0,1-.4-.5.539.539,0,0,0-.13-.18c-.251-.221-.51-.435-.787-.671-.009-.037,0-.133-.044-.178-.222-.224-.4-.517-.761-.559a.4.4,0,0,1-.317-.212A1.469,1.469,0,0,0,682,73.5a1.071,1.071,0,0,1-.529-.35,1.256,1.256,0,0,0-.405.783,1.14,1.14,0,0,1,.4-.787c-.033-.036-.071-.065-.1-.1a1.511,1.511,0,0,0-.789-.523,1.189,1.189,0,0,1-.581-.306c-.139-.15-.343-.158-.518-.232a5.1,5.1,0,0,1-.518-.327.687.687,0,0,0-.216-.046c-.1-.018-.206-.034-.307-.05a.755.755,0,0,1-.474-.214.812.812,0,0,0-.433-.211,1.218,1.218,0,0,1-.491-.284,2.05,2.05,0,0,0-1.089-1.242c0-.039-.022-.07-.026-.109,0-.282-.01-.564-.022-.845-1.51-.068-3.019-.162-4.529-.185a.677.677,0,0,1-.25-.041.9.9,0,0,0-.48-.033l-.255.03c-1.683-.083-3.362-.536-5.058-.026a2.031,2.031,0,0,1-1.1-.034,10.99,10.99,0,0,0-4.188-.053,80.167,80.167,0,0,1-11.76.344,9.856,9.856,0,0,0-3.537.069,5.13,5.13,0,0,1-1.542-.047,25.616,25.616,0,0,0-3.762-.082c-2.371.275-4.74-.01-7.105.131a1.29,1.29,0,0,1-.649-.127,3.555,3.555,0,0,0-2.8-.151,8.02,8.02,0,0,1-1.763.145c-.665.04-1.331.06-2,.107-.637.046-1.274.092-1.911.144-.764.062-1.528.13-2.294.172-2.8.155-5.589-.3-8.4-.144a93.785,93.785,0,0,1-9.99-.06,6.369,6.369,0,0,0-1.535.206,30.684,30.684,0,0,1-4.631.47q-.861-.025-1.72-.086c-.785-.056-1.567-.12-2.351-.164a5.078,5.078,0,0,0-1.736.007,5.481,5.481,0,0,1-3.073,0c-2.1-.528-4.265.233-6.371-.373-.44-.127-1,.23-1.516.279a14.437,14.437,0,0,1-2.648.124c-1.462-.133-2.911-.425-4.37-.612a3.524,3.524,0,0,0-1.1.105c-2.03.407-4.132,0-6.148.542a.538.538,0,0,1-.222-.006,29.493,29.493,0,0,0-4.652-.043c-.957-.027-1.914-.1-2.87-.16a15.792,15.792,0,0,0-2.217-.126c-1.77.145-3.565-.1-5.314.375a3.738,3.738,0,0,1-1.105-.02c-1.523-.079-3.047-.189-4.571-.235-.254-.008-.509-.028-.765-.031-1.832-.02-3.649-.642-5.5-.106-.016,0-.033,0-.049,0a25.512,25.512,0,0,0,.4,4.907.517.517,0,0,1-.006.221c-.025.133-.025.265-.042.4.1.011.2.016.3.027.8.094,1.579.348,2.375.476a5.249,5.249,0,0,0,1.509.073c.507-.068,1.012-.153,1.517-.234.953-.156,1.907-.316,2.864-.444a5.421,5.421,0,0,1,1.771.025c.389.08.715.446,1.075.673a2.492,2.492,0,0,0,.384.159c.332-.377.669-.757,1.055-1.2,1.433.391,2.91.273,4.357.64a7.47,7.47,0,0,0,3.5.186,14.2,14.2,0,0,1,3.682-.093c.513,0,1.025.179,1.538.182,1.105,0,2.224-.189,3.244.46a1.071,1.071,0,0,0,.65.068c1.1-.139,2.2-.28,3.3-.461,1.675-.278,3.342-.6,5.015-.878a2.272,2.272,0,0,1,.876.045c3.133.743,6.343-.133,9.482.45.137.026.292-.06.439-.066.438-.017.879-.043,1.318-.052a6.094,6.094,0,0,1,.676.007,18.907,18.907,0,0,0,3.752-.077,7.519,7.519,0,0,1,3.306-.069,1.2,1.2,0,0,0,.847-.1,2.7,2.7,0,0,1,1.451-.254,3.144,3.144,0,0,0,2.047,1.142,5.629,5.629,0,0,0,3.677-.5,3.042,3.042,0,0,1,.567-.29,4.364,4.364,0,0,1,.614.124,9.2,9.2,0,0,0,5.46.212A4.124,4.124,0,0,1,612.8,74.6a20.059,20.059,0,0,0,5.666-.253l.062-.091a1.722,1.722,0,0,1,.523.364,1.243,1.243,0,0,0,1.046.082,9.971,9.971,0,0,1,3.938-.535A2.007,2.007,0,0,0,624.9,74a6.192,6.192,0,0,1,3.913-.176,2.742,2.742,0,0,0,1.082.182,11.948,11.948,0,0,1,4.895.2c.779.172,1.555.372,2.325.61a4.169,4.169,0,0,0,2.824,0c.483-.185,1-.289,1.5-.437a15.291,15.291,0,0,1,7.671-.6,9.581,9.581,0,0,0,1.764.04c2.059.047,4.132.015,6.02,1.062a10.363,10.363,0,0,0,1.067.445,8.535,8.535,0,0,0,.856-.719c.3-.317.535-.683.8-1.025a16,16,0,0,1,1.62-.049c1.7.118,3.4.243,5.1.424.8.086,1.582.333,2.38.453a5.25,5.25,0,0,0,1.51.058c1.112-.158,2.221-.362,3.33-.548a.993.993,0,0,0,.344.2.827.827,0,0,1,.433.211.755.755,0,0,0,.474.214l.307.051a.681.681,0,0,1,.216.045,5.289,5.289,0,0,0,.518.328c.175.073.379.082.518.231a1.189,1.189,0,0,0,.581.306,1.513,1.513,0,0,1,.789.524,1.212,1.212,0,0,0,.633.455,1.465,1.465,0,0,1,.937.692.4.4,0,0,0,.317.213c.362.042.539.335.762.559.045.044.036.14.043.177.277.236.536.451.787.672a.526.526,0,0,1,.13.179.822.822,0,0,0,.406.5l0,0a.107.107,0,0,1,.057.063c.069.307.324.4.575.485a1.684,1.684,0,0,1,.269.925.412.412,0,0,0,.046.212c.027.052,0,.1-.006.147.653.59,1.3,1.191,1.962,1.767a9.762,9.762,0,0,0,3.533,2.342,2.394,2.394,0,0,1,1.231.9,1.559,1.559,0,0,0,.858.259c.148.328.284.627.418.928a2.279,2.279,0,0,0,.933,1.18,2.348,2.348,0,0,1,1,1.669,3.092,3.092,0,0,0,.677,1.485,4.215,4.215,0,0,1,.364.681c.092.16.17.369.311.448a4.459,4.459,0,0,1,1.227,1.252.887.887,0,0,0,.439.3,1.537,1.537,0,0,1,1.044.909,3.663,3.663,0,0,0,.657.874,7.1,7.1,0,0,1,1.239,1.68,11.305,11.305,0,0,0,1.173,1.59c.158.205.343.386.508.583.731.875,1.452,1.761,2.195,2.625a2.257,2.257,0,0,1,.592,1.043,1.649,1.649,0,0,0,.262.591,3.163,3.163,0,0,1,.642,2.175c-.037.353.182.732.142,1.082a2.973,2.973,0,0,0,.669,2.029c.339.52.562,1.111.947,1.617-.142,1.014-.309,2.026-.438,3.042a3.518,3.518,0,0,0,.105,1.1c.407,2.03,0,4.133.542,6.149a.526.526,0,0,1-.006.223,29.479,29.479,0,0,0-.043,4.651c-.024.866-.09,1.732-.145,2.6.286.026.575.07.861.1-.069,1.309-.141,2.619-.144,3.928,0,1.833-.608,3.657-.053,5.5a2.054,2.054,0,0,1-.035,1.1,10.985,10.985,0,0,0-.053,4.187,80.328,80.328,0,0,1,.345,11.761,9.851,9.851,0,0,0,.068,3.536,5.1,5.1,0,0,1-.047,1.543,25.6,25.6,0,0,0-.082,3.761c.275,2.372-.009,4.741.132,7.107a1.3,1.3,0,0,1-.127.648,3.547,3.547,0,0,0-.151,2.8,8.066,8.066,0,0,1,.146,1.763c.039.664.058,1.331.105,2,.047.636.093,1.273.143,1.91.064.764.131,1.529.173,2.293a45.182,45.182,0,0,1-.1,4.812c-.088,0-.175,0-.263.007-.076,1.69-.2,3.379-.2,5.069,0,1.833-.608,3.657-.053,5.5a2.054,2.054,0,0,1-.035,1.1,10.985,10.985,0,0,0-.053,4.187,80.328,80.328,0,0,1,.345,11.761,9.851,9.851,0,0,0,.068,3.536,5.1,5.1,0,0,1-.047,1.543,25.6,25.6,0,0,0-.082,3.761c.259,2.229.034,4.455.121,6.679-.017.127-.04.253-.057.38a1.89,1.89,0,0,0,.007.36,1.276,1.276,0,0,1-.066.336,3.547,3.547,0,0,0-.151,2.8,8.066,8.066,0,0,1,.146,1.763c.039.664.058,1.331.105,2,.047.636.093,1.273.143,1.91.064.764.131,1.529.173,2.293.155,2.8-.3,5.591-.143,8.4a94.069,94.069,0,0,1-.06,9.991,4.089,4.089,0,0,0,.091.955,8.921,8.921,0,0,0,.051,3.659c0,.015,0,.034,0,.049.143-.01.288-.012.433-.018.034.507.072,1.013.1,1.52q-.026.861-.086,1.721c-.056.784-.119,1.567-.164,2.351a5.1,5.1,0,0,0,.007,1.736,5.481,5.481,0,0,1,0,3.073c-.528,2.1.232,4.265-.373,6.37-.127.44.23,1,.279,1.516a14.445,14.445,0,0,1,.123,2.648c-.133,1.463-.425,2.911-.612,4.37a3.519,3.519,0,0,0,.106,1.1c.406,2.03,0,4.133.542,6.149a.527.527,0,0,1-.007.223,29.6,29.6,0,0,0-.043,4.651c-.026.957-.1,1.914-.16,2.871a15.6,15.6,0,0,0-.125,2.216c.144,1.769-.1,3.564.374,5.314a3.665,3.665,0,0,1-.02,1.1c-.079,1.524-.188,3.047-.235,4.571-.008.255-.027.51-.03.765-.021,1.832-.643,3.651-.106,5.5,0,.015,0,.034,0,.049.089-.006.179-.006.268-.012.009.181.025.362.03.543a29.6,29.6,0,0,0,.043,4.651.522.522,0,0,1,.007.222c-.546,2.017-.136,4.119-.542,6.15a3.516,3.516,0,0,0-.106,1.1c.13,1.015.3,2.028.438,3.041-.384.507-.608,1.1-.947,1.618a2.978,2.978,0,0,0-.669,2.029c.041.35-.179.728-.142,1.081a3.17,3.17,0,0,1-.641,2.176,1.647,1.647,0,0,0-.263.59,2.254,2.254,0,0,1-.591,1.043c-.743.865-1.464,1.75-2.2,2.626-.166.2-.351.378-.508.583a11.039,11.039,0,0,0-1.173,1.59,7.147,7.147,0,0,1-1.239,1.68,3.663,3.663,0,0,0-.658.873,1.533,1.533,0,0,1-1.044.909.9.9,0,0,0-.439.305,4.455,4.455,0,0,1-1.226,1.252c-.141.079-.22.288-.311.448a4.305,4.305,0,0,1-.365.681,3.077,3.077,0,0,0-.676,1.485A2.348,2.348,0,0,1,693,364a2.287,2.287,0,0,0-.933,1.18c-.133.3-.269.6-.418.929a1.561,1.561,0,0,0-.858.258,2.392,2.392,0,0,1-1.23.905,9.732,9.732,0,0,0-3.533,2.342c-.664.575-1.309,1.177-1.963,1.766,0,.048.033.1.006.148a.409.409,0,0,0-.045.212,1.7,1.7,0,0,1-.269.925c-.252.09-.507.178-.575.484a.106.106,0,0,1-.058.063l0,0a.825.825,0,0,0-.407.5.551.551,0,0,1-.129.18c-.252.221-.511.435-.787.672-.008.036,0,.132-.043.177-.224.224-.4.517-.762.559a.4.4,0,0,0-.318.213,1.464,1.464,0,0,1-.936.692,1.214,1.214,0,0,0-.634.455,1.509,1.509,0,0,1-.788.523,1.192,1.192,0,0,0-.582.306c-.138.15-.343.158-.518.232a5.4,5.4,0,0,0-.518.327.669.669,0,0,1-.216.046c-.1.018-.205.034-.307.05a.75.75,0,0,0-.473.214.824.824,0,0,1-.433.212.99.99,0,0,0-.344.2c-1.11-.185-2.218-.389-3.33-.548a5.291,5.291,0,0,0-1.511.058c-.8.121-1.579.368-2.379.453-1.7.181-3.4.307-5.1.425a16,16,0,0,1-1.62-.049c-.26-.343-.5-.709-.794-1.026a8.932,8.932,0,0,0-.856-.719,10.515,10.515,0,0,0-1.068.445c-1.888,1.048-3.961,1.015-6.02,1.063a9.657,9.657,0,0,0-1.763.039,15.284,15.284,0,0,1-7.672-.6c-.5-.147-1.013-.252-1.5-.436a4.166,4.166,0,0,0-2.823,0c-.771.238-1.547.438-2.326.61a11.96,11.96,0,0,1-4.894.2,2.729,2.729,0,0,0-1.083.182,6.192,6.192,0,0,1-3.913-.177,2.017,2.017,0,0,0-.859-.171,9.951,9.951,0,0,1-3.938-.535,1.246,1.246,0,0,0-1.046.083,1.722,1.722,0,0,1-.523.364l-.063-.091a20.022,20.022,0,0,0-5.666-.253,4.135,4.135,0,0,1-1.741-.125,9.189,9.189,0,0,0-5.461.212,4.307,4.307,0,0,1-.614.124,3.129,3.129,0,0,1-.566-.29,5.639,5.639,0,0,0-3.678-.5,3.146,3.146,0,0,0-2.047,1.143,2.7,2.7,0,0,1-1.451-.254,1.186,1.186,0,0,0-.846-.1,7.533,7.533,0,0,1-3.306-.069,18.916,18.916,0,0,0-3.753-.078,5.839,5.839,0,0,1-.675.008c-.44-.009-.88-.036-1.318-.052-.147-.006-.3-.092-.439-.066-3.14.583-6.349-.293-9.483.449a2.29,2.29,0,0,1-.876.046c-1.673-.279-3.34-.6-5.014-.879-1.094-.181-2.195-.321-3.3-.46a1.062,1.062,0,0,0-.65.068c-1.021.649-2.139.455-3.245.46-.513,0-1.025.181-1.537.182a14.292,14.292,0,0,1-3.682-.093A7.474,7.474,0,0,0,557,378c-1.447.367-2.923.248-4.357.64-.054-.063-.1-.11-.15-.171,0-.136,0-.273-.011-.41l-.367-.018c-.174-.2-.36-.41-.527-.6a2.581,2.581,0,0,0-.383.16c-.169.106-.33.243-.494.367-1.1-.057-2.2-.11-3.3-.112a39.9,39.9,0,0,0-4.545-.211c-.133.017-.269.027-.4.048s-.243.052-.364.077c-.065.017-.129.012-.193.032a2.035,2.035,0,0,1-1.1-.034,10.989,10.989,0,0,0-4.188-.053,80.153,80.153,0,0,1-11.759.344,9.856,9.856,0,0,0-3.537.069,5.138,5.138,0,0,1-1.543-.047,25.6,25.6,0,0,0-3.761-.082c-2.372.275-4.741-.01-7.106.131a1.29,1.29,0,0,1-.649-.127,3.553,3.553,0,0,0-2.8-.151A8.024,8.024,0,0,1,503.7,378c-.665.04-1.33.06-2,.107-.638.046-1.275.092-1.911.144-.764.062-1.529.13-2.294.172-2.8.155-5.59-.3-8.4-.144a93.521,93.521,0,0,1-9.99-.06,6.362,6.362,0,0,0-1.535.206,30.684,30.684,0,0,1-4.631.47q-.861-.025-1.721-.086c-.784-.056-1.566-.119-2.351-.164a5.072,5.072,0,0,0-1.735.007,5.484,5.484,0,0,1-3.074,0c-2.1-.528-4.264.233-6.37-.373-.441-.127-1,.23-1.516.279a14.446,14.446,0,0,1-2.648.124c-1.032-.094-2.06-.261-3.087-.42.051-.371.082-.743.155-1.112a6.263,6.263,0,0,0,.206-1.534,94.069,94.069,0,0,1-.06-9.991c.159-2.809-.3-5.6-.143-8.4.042-.764.109-1.529.173-2.293q.075-.956.143-1.91c.047-.665.066-1.332.107-2a7.945,7.945,0,0,1,.144-1.763,3.547,3.547,0,0,0-.151-2.8,1.3,1.3,0,0,1-.127-.648c.141-2.366-.143-4.735.132-7.107a25.6,25.6,0,0,0-.082-3.761,5.1,5.1,0,0,1-.047-1.543,9.851,9.851,0,0,0,.068-3.536A80.467,80.467,0,0,1,451.3,318.1a10.964,10.964,0,0,0-.052-4.187,2.054,2.054,0,0,1-.035-1.1c.555-1.845-.05-3.669-.053-5.5,0-1.69-.125-3.379-.2-5.069a20.705,20.705,0,0,1-4.515-.36.528.528,0,0,0-.22.006c-.116.022-.231.021-.346.037a5.531,5.531,0,0,1,0,1.63c-.209,1.462-.51,2.912-.719,4.374a5.3,5.3,0,0,0,.058,1.511c.121.8.368,1.578.453,2.378.182,1.7.306,3.4.426,5.1.035.513-.03,1.032-.05,1.619-.343.262-.708.5-1.026.8a8.809,8.809,0,0,0-.72.857,10.487,10.487,0,0,0,.446,1.067c1.047,1.887,1.014,3.96,1.063,6.02a9.668,9.668,0,0,0,.039,1.764,15.276,15.276,0,0,1-.6,7.67c-.147.5-.251,1.013-.435,1.5a4.16,4.16,0,0,0-.007,2.823c.239.771.44,1.546.611,2.326a11.964,11.964,0,0,1,.2,4.895,2.761,2.761,0,0,0,.181,1.082,6.192,6.192,0,0,1-.176,3.913,1.985,1.985,0,0,0-.17.858,9.951,9.951,0,0,1-.536,3.939,1.248,1.248,0,0,0,.083,1.047,1.71,1.71,0,0,1,.364.523l-.091.062a20.09,20.09,0,0,0-.254,5.665,4.107,4.107,0,0,1-.125,1.742,9.2,9.2,0,0,0,.212,5.461,4.309,4.309,0,0,1,.125.614,3.161,3.161,0,0,1-.29.566,5.64,5.64,0,0,0-.5,3.678,2.624,2.624,0,0,0,.329,1,3.731,3.731,0,0,0,.814,1.047,2.7,2.7,0,0,1-.254,1.452,1.186,1.186,0,0,0-.1.846,6.71,6.71,0,0,1-.04,3.1c-.009.071-.022.142-.03.212a18.981,18.981,0,0,0-.077,3.752,6.09,6.09,0,0,1,.008.676c-.009.439-.036.879-.052,1.318-.006.147-.092.3-.066.438.584,3.14-.292,6.349.449,9.482a2.3,2.3,0,0,1,.046.877c-.28,1.673-.6,3.34-.879,5.013-.181,1.1-.321,2.2-.461,3.3a1.081,1.081,0,0,0,.069.651c.649,1.02.454,2.138.459,3.244,0,.513.182,1.025.182,1.537a14.212,14.212,0,0,1-.093,3.683,7.484,7.484,0,0,0,.187,3.5c.367,1.448.249,2.923.64,4.357-.426.374-.794.7-1.159,1.021a87.336,87.336,0,0,1-3.588-9.657,11,11,0,0,0-1.655-3.848,2.042,2.042,0,0,1-.455-1.006c-.195-1.916-1.455-3.368-2.161-5.06-.651-1.559-1.411-3.073-2.13-4.605a20.658,20.658,0,0,1-4.306,1.4.539.539,0,0,0-.2.092c-.1.063-.2.106-.3.165a5.573,5.573,0,0,1,.621,1.507c.368,1.431.645,2.885,1.014,4.316a5.248,5.248,0,0,0,.633,1.372c.417.691.944,1.317,1.331,2.023.818,1.5,1.586,3.021,2.348,4.547.23.46.369.965.576,1.515-.216.372-.463.734-.642,1.127a8.964,8.964,0,0,0-.337,1.066,10.3,10.3,0,0,0,.822.816c1.691,1.342,2.456,3.267,3.29,5.152a9.727,9.727,0,0,0,.712,1.614,15.266,15.266,0,0,1,2.39,7.313c.056.517.157,1.032.172,1.549a4.168,4.168,0,0,0,1.078,2.61c.516.621,1,1.26,1.456,1.914.017.024.031.049.047.074a.775.775,0,0,0,.059-.09c.1-.251.6-.455.934-.478a10.621,10.621,0,0,0,2.708-.591c.177.145.359.283.526.445a.522.522,0,0,0,.195.1c.112.038.211.1.319.137a5.5,5.5,0,0,1,.8-1.418c.9-1.173,1.871-2.289,2.769-3.462a5.26,5.26,0,0,0,.691-1.344c.284-.756.452-1.557.769-2.3.673-1.566,1.4-3.113,2.129-4.654.22-.464.531-.886.835-1.387.427-.06.864-.089,1.284-.191a8.875,8.875,0,0,0,1.046-.393,10.777,10.777,0,0,0,.136-1.151c.011-2.158,1.055-3.948,2.022-5.768a9.576,9.576,0,0,0,.83-1.557,15.283,15.283,0,0,1,4.279-6.393c.373-.363.716-.761,1.113-1.092a4.167,4.167,0,0,0,1.389-2.459c.17-.788.374-1.563.607-2.327.009-.028.019-.055.028-.083a1,1,0,0,0-.107.011c-.258.077-.729-.2-.952-.441a9.975,9.975,0,0,0-3.171-2.4,1.464,1.464,0,0,1-.349-.237,41.992,41.992,0,0,1-2.612,4.457,25.786,25.786,0,0,0-1.771,3.319,5.1,5.1,0,0,1-.715,1.368,9.852,9.852,0,0,0-1.792,3.05,80.4,80.4,0,0,1-6.061,10.084,11.012,11.012,0,0,0-2.006,3.676,2.04,2.04,0,0,1-.51.979c-.056.053-.088.119-.14.175-.043-.767-.079-1.534-.118-2.3a3.665,3.665,0,0,1-.02-1.1c.476-1.75.23-3.545.374-5.314a15.6,15.6,0,0,0-.125-2.216c-.058-.957-.134-1.914-.16-2.871a29.479,29.479,0,0,0-.044-4.651.561.561,0,0,1-.006-.223c.546-2.016.136-4.119.542-6.149a3.519,3.519,0,0,0,.106-1.1c-.187-1.459-.479-2.907-.612-4.37a14.445,14.445,0,0,1,.123-2.648c.049-.513.406-1.076.279-1.516-.605-2.105.156-4.27-.373-6.37a5.481,5.481,0,0,1,0-3.073,5.1,5.1,0,0,0,.007-1.736c-.035-.6-.082-1.2-.126-1.793.959-.171,1.916-.343,2.875-.5a2.251,2.251,0,0,1,.876.046c3.134.742,6.343-.134,9.483.449.137.026.292-.06.439-.066.438-.017.878-.043,1.318-.052a6.073,6.073,0,0,1,.675.007,18.916,18.916,0,0,0,3.753-.077,7.518,7.518,0,0,1,3.306-.069,1.2,1.2,0,0,0,.846-.1,2.7,2.7,0,0,1,1.451-.254,3.149,3.149,0,0,0,2.047,1.142,5.632,5.632,0,0,0,3.678-.5,3.066,3.066,0,0,1,.566-.29,4.307,4.307,0,0,1,.614.124,9.2,9.2,0,0,0,5.461.212,4.119,4.119,0,0,1,1.741-.125,20.059,20.059,0,0,0,5.666-.253l.063-.091a1.722,1.722,0,0,1,.523.364,1.242,1.242,0,0,0,1.046.082,9.969,9.969,0,0,1,3.938-.535,2,2,0,0,0,.859-.171,6.192,6.192,0,0,1,3.913-.176,2.746,2.746,0,0,0,1.083.182,11.943,11.943,0,0,1,4.894.2c.779.172,1.555.372,2.326.61a4.166,4.166,0,0,0,2.823,0c.484-.185,1-.289,1.5-.437a15.3,15.3,0,0,1,7.672-.6,9.568,9.568,0,0,0,1.763.04c2.059.047,4.132.015,6.02,1.062a10.292,10.292,0,0,0,1.068.445,8.514,8.514,0,0,0,.856-.719c.294-.317.534-.683.794-1.025a16,16,0,0,1,1.62-.049c.558.038,1.112.1,1.668.139-.007.219-.011.438-.026.657.015,0,.033,0,.048,0,1.7.492,3.368.026,5.048-.073.246.053.492.112.741.149a5.255,5.255,0,0,0,1.511.058c.96-.137,1.917-.308,2.873-.473l.664-.033a3.665,3.665,0,0,1,1.1-.02c1.75.476,3.545.23,5.314.374a15.632,15.632,0,0,0,2.217-.125c.956-.057,1.913-.133,2.87-.161a29.493,29.493,0,0,0,4.652-.042.539.539,0,0,1,.222-.007c2.016.546,4.119.136,6.149.542a3.49,3.49,0,0,0,1.1.106c1.459-.187,2.907-.479,4.37-.612a14.358,14.358,0,0,1,2.648.124c.514.049,1.075.4,1.516.278,2.106-.605,4.27.156,6.37-.372a5.484,5.484,0,0,1,3.074,0,5.048,5.048,0,0,0,1.735.006c.785-.044,1.567-.107,2.351-.163q.86-.061,1.721-.086a30.684,30.684,0,0,1,4.631.47,6.362,6.362,0,0,0,1.535.206,93.784,93.784,0,0,1,9.99-.06c2.809.158,5.6-.3,8.4-.144.765.042,1.53.11,2.294.172.636.052,1.273.1,1.911.144.665.047,1.33.066,2,.106a8.024,8.024,0,0,1,1.764.146,3.553,3.553,0,0,0,2.8-.152,1.3,1.3,0,0,1,.649-.126c2.365.14,4.734-.144,7.106.131a25.738,25.738,0,0,0,3.761-.082,5.138,5.138,0,0,1,1.543-.047,9.878,9.878,0,0,0,3.537.069,80.153,80.153,0,0,1,11.759.344,10.989,10.989,0,0,0,4.188-.053,2.035,2.035,0,0,1,1.1-.034c1.7.509,3.374.056,5.057-.026l.256.029a.887.887,0,0,0,.479-.032.665.665,0,0,1,.251-.041c1.509-.024,3.019-.117,4.528-.185.013-.282.018-.564.023-.845,0-.04.02-.071.025-.109a2.057,2.057,0,0,0,1.09-1.242,1.2,1.2,0,0,1,.491-.284.823.823,0,0,0,.433-.211.75.75,0,0,1,.473-.214l.307-.05a.675.675,0,0,0,.216-.046,5.209,5.209,0,0,1,.518-.327c.175-.074.38-.082.518-.232a1.192,1.192,0,0,1,.582-.306,1.514,1.514,0,0,0,.788-.523c.029-.036.067-.066.1-.1a1.15,1.15,0,0,1-.4-.787,1.26,1.26,0,0,0,.4.783,1.063,1.063,0,0,1,.53-.35,1.464,1.464,0,0,0,.936-.693.4.4,0,0,1,.318-.213c.362-.041.538-.335.76-.559.045-.044.036-.14.045-.177.277-.236.535-.45.787-.671a.551.551,0,0,0,.129-.18.825.825,0,0,1,.4-.5l0,0a.107.107,0,0,0,.059-.063c.068-.307.323-.395.575-.484a1.712,1.712,0,0,0,.269-.925.4.4,0,0,1,.045-.212c.026-.053,0-.1-.006-.148.654-.59,1.3-1.191,1.963-1.767a9.747,9.747,0,0,1,3.532-2.341,2.393,2.393,0,0,0,1.23-.9,1.558,1.558,0,0,1,.859-.258c.149-.329.285-.627.418-.929a2.274,2.274,0,0,1,.933-1.18,2.356,2.356,0,0,0,1-1.669,3.065,3.065,0,0,1,.676-1.484,4.109,4.109,0,0,0,.363-.682c.093-.16.172-.368.313-.448a4.455,4.455,0,0,0,1.226-1.252.893.893,0,0,1,.438-.3,1.537,1.537,0,0,0,1.045-.909,3.713,3.713,0,0,1,.656-.874,7.087,7.087,0,0,0,1.241-1.68,11.15,11.15,0,0,1,1.173-1.59c.157-.2.342-.386.508-.583.647-.775,1.291-1.556,1.944-2.327.086-.1.165-.2.251-.3a2.264,2.264,0,0,0,.591-1.043,1.639,1.639,0,0,1,.263-.59,3.17,3.17,0,0,0,.64-2.176c-.036-.353.184-.732.143-1.082a2.976,2.976,0,0,1,.669-2.028,17.388,17.388,0,0,1,1.007-1.713,1.974,1.974,0,0,0,.366-.916,2.591,2.591,0,0,1,1.117-1.8c.014-.01.02-.026.035-.036.052-.034.071-.087.127-.119a.532.532,0,0,0,.035-.97c.186-1.04.373-2.079.547-3.121.181-1.095.321-2.2.461-3.3A1.079,1.079,0,0,0,713.405,333.329Zm-268.2,96.058c.018.086.014.178.026.266-.073-.141-.146-.28-.216-.422-.109-.227-.2-.459-.31-.687A2.3,2.3,0,0,1,445.206,429.387Z"/><path class="cls-1" d="M434.426,214.394a9.576,9.576,0,0,0,.83,1.557c.967,1.82,2.011,3.61,2.022,5.768a10.777,10.777,0,0,0,.136,1.151,8.809,8.809,0,0,0,1.046.393c.42.1.857.131,1.284.191.3.5.615.923.835,1.387.731,1.541,1.456,3.088,2.129,4.654.317.74.485,1.541.769,2.3a5.26,5.26,0,0,0,.691,1.344c.9,1.173,1.87,2.289,2.769,3.462a5.5,5.5,0,0,1,.8,1.418c.108-.042.207-.1.319-.137a.522.522,0,0,0,.195-.1c.167-.162.349-.3.526-.445a10.621,10.621,0,0,0,2.708.591c.331.023.836.227.934.478a.775.775,0,0,0,.059.09c.016-.025.03-.05.047-.074.458-.654.94-1.293,1.456-1.914a4.168,4.168,0,0,0,1.078-2.61c.015-.517.116-1.032.172-1.549a15.275,15.275,0,0,1,2.389-7.313,9.648,9.648,0,0,0,.713-1.614c.835-1.885,1.6-3.81,3.29-5.152a10.3,10.3,0,0,0,.822-.816,8.785,8.785,0,0,0-.337-1.066c-.179-.393-.426-.755-.642-1.127.207-.55.346-1.055.576-1.515.762-1.526,1.531-3.05,2.348-4.547.387-.706.914-1.332,1.331-2.023a5.248,5.248,0,0,0,.633-1.372c.369-1.431.646-2.885,1.014-4.316a5.542,5.542,0,0,1,.621-1.507c-.1-.059-.206-.1-.3-.165a.539.539,0,0,0-.2-.092,20.658,20.658,0,0,1-4.306-1.4c-.719,1.532-1.479,3.046-2.13,4.605-.706,1.692-1.966,3.144-2.161,5.06a2.024,2.024,0,0,1-.455,1.006,11,11,0,0,0-1.655,3.848,87.629,87.629,0,0,1-3.588,9.658c-.365-.323-.734-.648-1.159-1.022.392-1.434.273-2.909.64-4.357a7.484,7.484,0,0,0,.187-3.5,14.212,14.212,0,0,1-.093-3.683c0-.512.179-1.024.181-1.537.006-1.106-.189-2.224.46-3.244a1.081,1.081,0,0,0,.069-.651c-.14-1.1-.28-2.2-.461-3.3-.278-1.673-.6-3.34-.879-5.013a2.3,2.3,0,0,1,.046-.877c.741-3.133-.133-6.342.449-9.482.026-.137-.061-.291-.066-.438-.016-.439-.043-.879-.052-1.318a6.09,6.09,0,0,1,.008-.676,18.906,18.906,0,0,0-.078-3.752,7.523,7.523,0,0,1-.068-3.307,1.191,1.191,0,0,0-.1-.846,2.7,2.7,0,0,1-.254-1.452A3.142,3.142,0,0,0,453.164,172a5.639,5.639,0,0,0-.5-3.678,3.1,3.1,0,0,1-.291-.566,4.309,4.309,0,0,1,.125-.614,9.2,9.2,0,0,0,.212-5.461,4.107,4.107,0,0,1-.125-1.742,20.09,20.09,0,0,0-.254-5.665l-.091-.062a1.727,1.727,0,0,1,.364-.523,1.248,1.248,0,0,0,.083-1.047,9.951,9.951,0,0,1-.536-3.939,1.985,1.985,0,0,0-.17-.858,6.2,6.2,0,0,1-.177-3.913,2.764,2.764,0,0,0,.183-1.082,11.947,11.947,0,0,1,.2-4.9c.171-.78.372-1.555.611-2.326a4.166,4.166,0,0,0-.007-2.823c-.184-.485-.288-1-.435-1.5a15.276,15.276,0,0,1-.6-7.67,9.668,9.668,0,0,0,.039-1.764c.049-2.06.016-4.133,1.063-6.02a10.27,10.27,0,0,0,.445-1.067,8.8,8.8,0,0,0-.719-.857c-.318-.294-.683-.533-1.026-.8-.02-.587-.085-1.106-.05-1.619.12-1.7.244-3.4.426-5.1.085-.8.332-1.581.453-2.378a5.3,5.3,0,0,0,.058-1.511c-.209-1.462-.51-2.912-.72-4.374a5.565,5.565,0,0,1,0-1.63c-.115-.016-.23-.015-.346-.037a.532.532,0,0,0-.221-.006,20.7,20.7,0,0,1-4.514.36c-.076,1.69-.2,3.379-.2,5.069,0,1.833-.608,3.657-.053,5.5a2.054,2.054,0,0,1-.035,1.1,10.985,10.985,0,0,0-.053,4.187,80.328,80.328,0,0,1,.345,11.761,9.851,9.851,0,0,0,.068,3.536,5.1,5.1,0,0,1-.047,1.543,25.6,25.6,0,0,0-.082,3.761c.275,2.372-.009,4.741.132,7.107a1.3,1.3,0,0,1-.127.648,3.547,3.547,0,0,0-.151,2.8,8.066,8.066,0,0,1,.146,1.763c.039.664.058,1.331.1,2,.047.636.093,1.273.143,1.91.064.764.131,1.529.173,2.293.155,2.8-.3,5.591-.143,8.4a94.069,94.069,0,0,1-.06,9.991,6.263,6.263,0,0,0,.206,1.534,30.7,30.7,0,0,1,.469,4.631q-.025.861-.086,1.721c-.056.784-.119,1.567-.164,2.351a5.1,5.1,0,0,0,.007,1.736,5.481,5.481,0,0,1,0,3.073c-.528,2.1.232,4.265-.373,6.37-.127.44.23,1,.279,1.516a14.445,14.445,0,0,1,.123,2.648c-.133,1.463-.425,2.911-.612,4.37a3.519,3.519,0,0,0,.106,1.1c.406,2.03,0,4.133.542,6.149a.527.527,0,0,1-.007.223,29.6,29.6,0,0,0-.043,4.651c-.026.957-.1,1.914-.16,2.871a15.6,15.6,0,0,0-.125,2.216c.144,1.769-.1,3.564.374,5.314a3.665,3.665,0,0,1-.02,1.1c-.04.767-.075,1.534-.118,2.3-.052-.056-.084-.122-.14-.175a2.023,2.023,0,0,1-.51-.979,11.012,11.012,0,0,0-2.006-3.676,80.4,80.4,0,0,1-6.061-10.084,9.871,9.871,0,0,0-1.792-3.05,5.1,5.1,0,0,1-.715-1.368,25.786,25.786,0,0,0-1.771-3.319,41.992,41.992,0,0,1-2.612-4.457,1.464,1.464,0,0,1-.349.237,9.975,9.975,0,0,0-3.171,2.4c-.223.246-.694.518-.952.441a1,1,0,0,0-.107-.011c.009.028.019.055.028.083.232.764.437,1.539.607,2.327a4.167,4.167,0,0,0,1.389,2.459c.4.331.74.729,1.113,1.092A15.283,15.283,0,0,1,434.426,214.394Zm18.469,8.75c-.107.228-.2.46-.31.687-.07.142-.144.281-.216.422.012-.088.008-.18.026-.266A2.3,2.3,0,0,1,452.9,223.144Z"/><path class="cls-2" d="M541.034,305.439c-.037-.019-.052-.051-.087-.071a1.673,1.673,0,0,1-.825-1.129,1.285,1.285,0,0,0-.276-.572,11.156,11.156,0,0,1-.727-1.053,1.918,1.918,0,0,1-.522-1.271c.01-.227-.148-.46-.141-.688a2.045,2.045,0,0,0-.511-1.368,1.054,1.054,0,0,1-.2-.367,1.444,1.444,0,0,0-.427-.642c-.517-.521-1.021-1.056-1.531-1.585-.115-.119-.242-.227-.353-.35a7.111,7.111,0,0,1-.826-.968,4.584,4.584,0,0,0-.874-1.022,2.382,2.382,0,0,1-.462-.531.984.984,0,0,0-.711-.534.571.571,0,0,1-.3-.176,2.855,2.855,0,0,0-.845-.747c-.1-.045-.155-.175-.221-.273a2.724,2.724,0,0,0-.265-.421,1.983,1.983,0,0,1-.5-.922,1.515,1.515,0,0,0-.721-1.026,1.472,1.472,0,0,1-.653-.715c-.1-.187-.2-.372-.311-.577a1,1,0,0,1-.563-.126,1.538,1.538,0,0,0-.831-.524,6.277,6.277,0,0,1-2.377-1.341c-1.312-.983-2.583-2.021-3.882-3.023a1.862,1.862,0,0,0-1.411-.553,1.873,1.873,0,0,1-2.21-1.5,1.356,1.356,0,0,0-1.467-1.174,14.135,14.135,0,0,1-1.349.795c-.416.182-.872.272-1.307.414-1.052.344-2.1.694-3.036,1-2.747-1.5-2.751-1.526-5.527-.947a7.392,7.392,0,0,1-3.68-.053,6.19,6.19,0,0,0-4.946.227,3.718,3.718,0,0,1-2.515.1,2.841,2.841,0,0,0-1.141-.121,2.649,2.649,0,0,1-2.848-.846c-.123-.128-.356-.15-.535-.22-1.288.146-2.5,1.015-3.838.212a2.375,2.375,0,0,1-2.9.683,1.472,1.472,0,0,0-.576-.118,2.2,2.2,0,0,1-.181-.411,1.357,1.357,0,0,0-1.477-1.161,14.054,14.054,0,0,1-1.343.807c-.415.186-.871.28-1.3.426l-.289.1c-.063.014-.124.023-.188.038a4.874,4.874,0,0,1-2.117.227,6.232,6.232,0,0,0-2.1-.192c-1.279-.59-1.809-.489-3.874-.039l-.024,0c-.591-.092-1.186-.165-1.769-.29-.22-.047-.442-.11-.665-.171l0,0a6.443,6.443,0,0,0-.269.621,6.662,6.662,0,0,1-.951-.189,6.188,6.188,0,0,0-4.943.27,3.711,3.711,0,0,1-2.515.128,2.83,2.83,0,0,0-1.142-.111,2.648,2.648,0,0,1-2.856-.82c-.122-.127-.355-.147-.535-.216-1.287.158-2.5,1.038-3.837.247a2.373,2.373,0,0,1-2.9.709,1.693,1.693,0,0,0-1.164-.02,2.919,2.919,0,0,1-2.3-.209,2.719,2.719,0,0,0-1.9-.044l-.114.028c0,.267-.013.534-.023.8a2.3,2.3,0,0,1-.472-.035,6.16,6.16,0,0,0-3.281.107,3.69,3.69,0,0,1-1.452.074c-1.176-.107-2.354-.229-3.517-.423a5.413,5.413,0,0,1-1.955-.6,3.485,3.485,0,0,0-2.764-.38c-1.642.317-3.338.462-4.8-.663a2.014,2.014,0,0,0-.757-.311,1.328,1.328,0,0,0-1.673.8c-.244.54-.457,1.094-.666,1.6-.5.254-.943.448-1.35.695a2.049,2.049,0,0,1-2.163.043,4.566,4.566,0,0,0-1.579-.4c-.831-.08-1.679-.007-2.508-.1a13.255,13.255,0,0,1-3.884-.616,18.768,18.768,0,0,0-4.73-1.147,4.337,4.337,0,0,0-1.234,1.986,1.759,1.759,0,0,1-.785.121,8.338,8.338,0,0,0-1.466-.1,2.864,2.864,0,0,1-1.084-.3,1.752,1.752,0,0,0-1.169-.2,4.769,4.769,0,0,1-1.887-.112,2.289,2.289,0,0,0-1.65.2,4.459,4.459,0,0,1-1.151.35.517.517,0,0,1-.474-.082,1.563,1.563,0,0,0-1.279-.246c-.471.039-.943.072-1.415.117a.884.884,0,0,0-.337.091,6.109,6.109,0,0,0-1.765,1.185,1.24,1.24,0,0,1-.656.4c-.53.132-1.05.3-1.579.433a1.479,1.479,0,0,0-.734.409,1.529,1.529,0,0,1-.447.345c-.386.17-.8.273-1.015.7-.054.107-.233.154-.357.223a3.9,3.9,0,0,0-.374.2c-.628.458-1.242.935-1.915,1.331a.635.635,0,0,0-.246.247,1.493,1.493,0,0,1-.631.556,3.3,3.3,0,0,0-.743.539,6.633,6.633,0,0,1-1.269,1.021,1.177,1.177,0,0,0-.383.389,18.128,18.128,0,0,0-1.058,2.085,1.166,1.166,0,0,1-.878.843.585.585,0,0,0-.3.167,1.691,1.691,0,0,1-.906.649c-.08.015-.14.122-.215.18a4.127,4.127,0,0,0-.547.643,10.75,10.75,0,0,1-1.029.982,2.258,2.258,0,0,0-.745,1.016,4.669,4.669,0,0,0-.014.847c-.021.3-.292.553-.207.886a.171.171,0,0,1,.007.07,5.286,5.286,0,0,1-.28,1.016,6.265,6.265,0,0,0-.28.646,1.953,1.953,0,0,1-.735,1.177.608.608,0,0,0-.243.757.568.568,0,0,1,0,.41c-.338.617-.215,1.365-.579,1.971a1.283,1.283,0,0,1-.034.149,8.306,8.306,0,0,1-.5,1.615,1.349,1.349,0,0,1-.332.62.576.576,0,0,0-.208.511.683.683,0,0,1-.25.661c.125.218.307.394.318.581.034.531.243,1.079-.065,1.6a.528.528,0,0,0,0,.479,5.117,5.117,0,0,1,.29,1.816,1.11,1.11,0,0,0,.447.929c.168.133.334.266.5.4a2.33,2.33,0,0,1,.571.749,2.269,2.269,0,0,1,.22,1.287,3.557,3.557,0,0,0,.222,1.528,13.677,13.677,0,0,0,.708,1.551c.073.15.162.292.234.442a2.148,2.148,0,0,1,.243,2.146.409.409,0,0,0,.008.273c.072.25.172.492.243.742.121.43.459.775.468,1.249a.528.528,0,0,0,.131.247c.164.232.33.462.5.687a1.66,1.66,0,0,0,.288.309,3.314,3.314,0,0,1,.386.391c.089,1.076.271,2.146.46,3.213.034.2.043.393.072.589a2.269,2.269,0,0,1,.22,1.287,3.547,3.547,0,0,0,.222,1.529,13.568,13.568,0,0,0,.708,1.55c.073.151.162.292.234.442a2.149,2.149,0,0,1,.243,2.146.409.409,0,0,0,.008.273c.072.25.172.492.243.742.12.43.459.775.468,1.249a.528.528,0,0,0,.131.247c.164.232.33.462.5.687a1.7,1.7,0,0,0,.288.31c.512.395.848.955,1.314,1.393a.361.361,0,0,1,.1.186,1.321,1.321,0,0,0,.795.947,5.653,5.653,0,0,1,1,.682,1.911,1.911,0,0,0,.958.411,3.11,3.11,0,0,1,1.735.741,2.342,2.342,0,0,0,.577.4c.51.253,1.028.492,1.553.712a4.358,4.358,0,0,1,1.047.589c.353.277.768.473,1.127.743.519.391,1.136.693,1.374,1.372a.344.344,0,0,0,.159.14,14.955,14.955,0,0,1,1.978,1.726,9.645,9.645,0,0,0,.774.577,1.243,1.243,0,0,0,.863.483,4.6,4.6,0,0,0,1.165.378,1.713,1.713,0,0,1,.264.1c.737.252,1.524.32,2.254.61a4.562,4.562,0,0,0,.835.171,2.248,2.248,0,0,0,.419.075,4.283,4.283,0,0,1,1.6.245.673.673,0,0,0,.28.032h.02a3.219,3.219,0,0,0,.392-.7,2.636,2.636,0,0,1,.59-.868c.956.579,1.59.574,3.493.484a7.394,7.394,0,0,1,3.626.63,6.186,6.186,0,0,0,4.919.555,3.719,3.719,0,0,1,2.5.292,2.794,2.794,0,0,0,1.106.3,2.648,2.648,0,0,1,2.68,1.284c.1.145.327.2.493.3,1.295.059,2.632-.608,3.825.394a2.374,2.374,0,0,1,2.973-.217,1.7,1.7,0,0,0,1.142.213,2.92,2.92,0,0,1,2.23.587,2.721,2.721,0,0,0,1.867.359,4.864,4.864,0,0,1,2.127.109,5.475,5.475,0,0,0,3.056.488A3.3,3.3,0,0,1,438.2,357c1.068.318,2.134.651,3.172,1.052.1.038.2.088.3.129.045-.3.088-.6.134-.9a3.19,3.19,0,0,1,1.246.59,1.474,1.474,0,0,0,.561.132c1.249-.349,2.311-1.4,3.756-.823a2.376,2.376,0,0,1,2.755-1.138,1.7,1.7,0,0,0,1.153-.155,2.913,2.913,0,0,1,2.3-.14,2.719,2.719,0,0,0,1.886-.244,4.849,4.849,0,0,1,2.054-.562,5.48,5.48,0,0,0,3.056-.494,3.3,3.3,0,0,1,1.347-.243c1.114-.033,2.231-.05,3.342.006a4.871,4.871,0,0,1,1.9.365,3.134,3.134,0,0,0,2.636.051c1.5-.507,3.06-.851,4.569.094a1.873,1.873,0,0,0,.747.219,1.23,1.23,0,0,0,1.462-.99c.159-.565.287-1.14.418-1.667.434-.311.824-.555,1.173-.848a2.133,2.133,0,0,1,.272-.177,3.466,3.466,0,0,0,1.97.209c1.567-.194,3.17-.213,4.456,1.017a1.854,1.854,0,0,0,.688.366,1.231,1.231,0,0,0,1.631-.674c.159-.3.294-.6.437-.9.051.015.107.016.158.033a16.9,16.9,0,0,0,4.57.581,3.452,3.452,0,0,0,.641-1.188c.7.1,1.41.119,2.1.253a11.883,11.883,0,0,1,3.6.9,16.851,16.851,0,0,0,4.358,1.493,4,4,0,0,0,1.185-1.6c.181-.011.361-.025.542-.024a6.747,6.747,0,0,1,1.344.064,1.737,1.737,0,0,0,.838.01,6.521,6.521,0,0,1,3.086-.053,1.412,1.412,0,0,0,1.019-.153,3.434,3.434,0,0,1,1.292-.354,3.225,3.225,0,0,0,1.089-.3,8.534,8.534,0,0,1,1.9-.548l8.8-4.739a1.345,1.345,0,0,1,.68-.695,4.511,4.511,0,0,1,1.233-.545.8.8,0,0,0,.3-.174,6.756,6.756,0,0,0,.565-.428,3.76,3.76,0,0,0,.658-.645,2.722,2.722,0,0,1,1.058-.926,1.672,1.672,0,0,0,.792-.8c-.07-.157-.137-.307-.2-.459a2.035,2.035,0,0,1,.833-2.593,1.268,1.268,0,0,0,.5-.385,1.246,1.246,0,0,1,.795-.555.592.592,0,0,0,.445-.313A.694.694,0,0,1,532,336.9c.013-.009.018-.029.031-.036a1.47,1.47,0,0,0,.484-.49l.006,0,.006-.009c.037-.056.08-.11.113-.169a1.342,1.342,0,0,1,.561-.517,4.5,4.5,0,0,1,1.233-.545.8.8,0,0,0,.3-.174,6.924,6.924,0,0,0,.565-.428,3.719,3.719,0,0,0,.657-.645,2.72,2.72,0,0,1,1.058-.926,1.67,1.67,0,0,0,.793-.8c-.07-.157-.137-.307-.2-.459a2.036,2.036,0,0,1,.832-2.593,1.272,1.272,0,0,0,.5-.385,1.244,1.244,0,0,1,.794-.555.592.592,0,0,0,.446-.313.639.639,0,0,1,.226-.268,1.3,1.3,0,0,0,.312-.316c-.022-.649-.024-1.3-.071-1.947-.068-.967.03-1.945.037-2.918a56.97,56.97,0,0,0-.014-5.816,47.145,47.145,0,0,1-.228-7.237,1.645,1.645,0,0,1-.033-.779c.044-.2.089-.4.125-.609,0-.029.011-.059.014-.088a3.365,3.365,0,0,0,.049-.638,1.376,1.376,0,0,1,.191-.854,1.1,1.1,0,0,1,.309-.311A.344.344,0,0,0,541.034,305.439ZM402.4,282.463a1.23,1.23,0,0,0,.749.152,1.121,1.121,0,0,1-.754-.151Zm87.952,67.792a4.556,4.556,0,0,1-.852-.021,5.265,5.265,0,0,0-.574-.059c.1-.048.227-.093.326-.146a1.837,1.837,0,0,1,2.034.117c.026.016.058.024.084.039-.2.018-.4.037-.593.071A2.236,2.236,0,0,1,490.348,350.255Z"/><path class="cls-2" d="M365.538,66.182c.1.964.04,1.945.069,2.918a56.736,56.736,0,0,0,.224,5.811,47.218,47.218,0,0,1,.49,7.225,1.657,1.657,0,0,1,.061.777c-.038.2-.075.406-.1.612,0,.03-.009.06-.011.089a3.359,3.359,0,0,0-.026.64,1.38,1.38,0,0,1-.16.86,1.1,1.1,0,0,1-.3.322.344.344,0,0,0,.082.627c.038.017.054.049.09.067a1.675,1.675,0,0,1,.865,1.1,1.284,1.284,0,0,0,.3.561,11.272,11.272,0,0,1,.764,1.026,1.921,1.921,0,0,1,.568,1.252c0,.227.165.454.166.682a2.043,2.043,0,0,0,.56,1.348,1.058,1.058,0,0,1,.21.36,1.454,1.454,0,0,0,.45.627c.536.5,1.059,1.018,1.587,1.528.119.114.251.217.365.337a7.237,7.237,0,0,1,.862.937,4.56,4.56,0,0,0,.909.99,2.337,2.337,0,0,1,.481.513.986.986,0,0,0,.731.509.573.573,0,0,1,.3.165,2.874,2.874,0,0,0,.871.716c.1.041.161.169.231.265a2.654,2.654,0,0,0,.28.411,1.974,1.974,0,0,1,.536.9,1.509,1.509,0,0,0,.757,1,1.469,1.469,0,0,1,.678.691c.106.184.214.365.332.565a1.015,1.015,0,0,1,.568.106,1.536,1.536,0,0,0,.849.494,6.272,6.272,0,0,1,2.423,1.254c.465.323.919.662,1.378.995,0,.03-.013.063.006.1a.249.249,0,0,1,.045.132,1.085,1.085,0,0,0,.236.573c.167.04.337.079.4.27a.07.07,0,0,0,.042.037l0,0a.533.533,0,0,1,.294.29.339.339,0,0,0,.094.105c.177.125.357.244.551.376.008.023.009.085.04.11.158.128.291.3.526.3a.257.257,0,0,1,.218.115.944.944,0,0,0,.648.378.775.775,0,0,1,.436.247.972.972,0,0,0,.541.28.773.773,0,0,1,.393.156c.1.086.231.077.348.113a3.042,3.042,0,0,1,.354.173.44.44,0,0,0,.142.015l.2.01a.486.486,0,0,1,.318.1.526.526,0,0,0,.291.1.8.8,0,0,1,.334.148,1.319,1.319,0,0,0,.784.72c.006.028.026.046.027.08a.138.138,0,0,0,.228.11.67.67,0,0,1,.6-.063.5.5,0,0,0,.252.025,4.655,4.655,0,0,1,.512-.03.771.771,0,0,1,.544.086c.076.05.189.044.265.094a.82.82,0,0,0,.575.11.42.42,0,0,1,.166.009.57.57,0,0,0,.309-.013c.286-.069.574-.129.861-.194.065-.015.128-.036.194-.048a2.918,2.918,0,0,1,.5-.082,1.769,1.769,0,0,0,.532-.087.982.982,0,0,1,.278-.047.391.391,0,0,0,.33-.132.235.235,0,0,1,.122-.065,1.163,1.163,0,0,0,.432-.134.284.284,0,0,1,.139-.019,1.109,1.109,0,0,0,.2,0,.8.8,0,0,1,.42.019.6.6,0,0,0,.5-.033.6.6,0,0,1,.381-.075l.262.014a.467.467,0,0,1,.257-.223,1.868,1.868,0,0,0,.243-.191c.084-.059.181-.1.268-.155.029-.02.045-.061.07-.089.011-.012.021-.026.031-.038a12.119,12.119,0,0,0,2.232-.432,7.4,7.4,0,0,1,3.679-.08,6.186,6.186,0,0,0,4.934-.406,3.723,3.723,0,0,1,2.511-.2,2.825,2.825,0,0,0,1.144.079,2.649,2.649,0,0,1,2.877.743c.126.124.36.137.542.2,1.281-.193,2.465-1.105,3.828-.352a2.375,2.375,0,0,1,2.875-.787,1.467,1.467,0,0,0,.581.1,2.271,2.271,0,0,1,.2.405,1.354,1.354,0,0,0,1.517,1.106,13.98,13.98,0,0,1,1.313-.855c.408-.2.86-.311,1.287-.473l.285-.108c.062-.016.123-.028.186-.045a4.868,4.868,0,0,1,2.108-.3,6.248,6.248,0,0,0,2.1.116c1.3.543,1.825.423,3.873-.1l.024,0c.594.071,1.191.122,1.779.225.221.039.445.094.671.147v0a6.761,6.761,0,0,0,.247-.63,6.629,6.629,0,0,1,.957.154,6.18,6.18,0,0,0,4.929-.449,3.718,3.718,0,0,1,2.509-.218,2.821,2.821,0,0,0,1.145.069,2.647,2.647,0,0,1,2.884.717c.127.122.361.134.543.195,1.281-.2,2.456-1.127,3.824-.385a2.377,2.377,0,0,1,2.869-.814,1.689,1.689,0,0,0,1.164-.021,2.918,2.918,0,0,1,2.3.126,2.721,2.721,0,0,0,1.9-.026l.113-.031c-.011-.2-.006-.391-.006-.587a3.289,3.289,0,0,0,.616-.1l.091-.023,0-.046a5.966,5.966,0,0,0,3.037-.254,3.66,3.66,0,0,1,1.448-.125c.651.035,1.3.108,1.949.162.158.038.32.057.478.1a3.643,3.643,0,0,1,1.508.679,2.26,2.26,0,0,0,2.158.493c1.309-.249,2.652-.324,3.743.859a1.414,1.414,0,0,0,.58.342c.6.218,1.068-.033,1.358-.73.117-.28.217-.552.322-.831a4.07,4.07,0,0,1,1,.519,2.017,2.017,0,0,0,.767.284,1.329,1.329,0,0,0,1.643-.86c.132-.322.241-.634.356-.953a3.9,3.9,0,0,0,.545.141c.65.114,1.322.077,1.97.2a8.44,8.44,0,0,1,3.026.775,12.308,12.308,0,0,0,3.667,1.339,4.652,4.652,0,0,0,1.075-1.933c.246-.062.461-.157.625-.088a5.262,5.262,0,0,0,1.149.158,1.909,1.909,0,0,1,.838.349,1.137,1.137,0,0,0,.91.248,2.991,2.991,0,0,1,1.481.189,1.474,1.474,0,0,0,1.309-.129,3.015,3.015,0,0,1,.925-.3.342.342,0,0,1,.369.1,1.03,1.03,0,0,0,.994.3c.374-.02.747-.033,1.122-.058a.58.58,0,0,0,.269-.078,4.9,4.9,0,0,0,1.452-1.111.968.968,0,0,1,.538-.37c.424-.11.842-.256,1.265-.367a1.124,1.124,0,0,0,.6-.38,1.3,1.3,0,0,1,.371-.325c.033-.017.066-.031.1-.046a2.3,2.3,0,0,0,1.124-.271,4.494,4.494,0,0,1,1.137-.392.516.516,0,0,1,.477.066,1.568,1.568,0,0,0,1.287.2c.47-.056.94-.106,1.41-.168a.875.875,0,0,0,.333-.1,6.116,6.116,0,0,0,1.721-1.248,1.243,1.243,0,0,1,.642-.422c.524-.151,1.038-.337,1.561-.489a1.479,1.479,0,0,0,.719-.437,1.572,1.572,0,0,1,.435-.36c.38-.184.79-.3.989-.74.05-.109.227-.162.349-.236a3.778,3.778,0,0,0,.366-.211c.611-.48,1.208-.978,1.865-1.4a.626.626,0,0,0,.238-.255,1.485,1.485,0,0,1,.61-.579,3.293,3.293,0,0,0,.723-.566,6.646,6.646,0,0,1,1.23-1.065,1.175,1.175,0,0,0,.369-.4,18.121,18.121,0,0,0,.983-2.122,1.162,1.162,0,0,1,.847-.874.587.587,0,0,0,.3-.179,1.692,1.692,0,0,1,.881-.681c.08-.018.135-.127.208-.188a4.056,4.056,0,0,0,.524-.662,10.834,10.834,0,0,1,.993-1.018,2.277,2.277,0,0,0,.708-1.042,4.745,4.745,0,0,0-.017-.848c.01-.3.272-.563.174-.892a.176.176,0,0,1-.009-.071,5.3,5.3,0,0,1,.243-1.025,5.929,5.929,0,0,0,.257-.655,1.949,1.949,0,0,1,.692-1.2.61.61,0,0,0,.215-.766.573.573,0,0,1-.013-.409c.316-.63.166-1.373.507-1.991a1.281,1.281,0,0,1,.029-.15,8.318,8.318,0,0,1,.438-1.632,1.335,1.335,0,0,1,.308-.632.575.575,0,0,0,.19-.518.685.685,0,0,1,.225-.67c-.132-.212-.32-.382-.339-.568-.052-.53-.281-1.07.008-1.6a.525.525,0,0,0-.016-.478,5.112,5.112,0,0,1-.356-1.806,1.1,1.1,0,0,0-.48-.911c-.173-.127-.344-.254-.511-.387a2.338,2.338,0,0,1-.6-.728,2.259,2.259,0,0,1-.266-1.278,3.554,3.554,0,0,0-.277-1.519,13.725,13.725,0,0,0-.764-1.524c-.078-.148-.172-.286-.25-.433a2.149,2.149,0,0,1-.321-2.136.413.413,0,0,0-.017-.273c-.082-.247-.191-.485-.27-.732-.136-.425-.486-.758-.513-1.232,0-.083-.083-.167-.14-.242-.172-.226-.346-.449-.528-.668a1.665,1.665,0,0,0-.3-.3,3.39,3.39,0,0,1-.4-.376c-.127-1.073-.348-2.135-.575-3.195-.041-.2-.058-.391-.094-.586a2.271,2.271,0,0,1-.266-1.279,3.559,3.559,0,0,0-.277-1.519,13.639,13.639,0,0,0-.764-1.524c-.078-.147-.171-.285-.25-.432a2.147,2.147,0,0,1-.32-2.136.413.413,0,0,0-.018-.273c-.081-.247-.191-.485-.27-.733-.135-.425-.486-.758-.513-1.231a.523.523,0,0,0-.139-.242c-.173-.226-.347-.45-.529-.668a1.659,1.659,0,0,0-.3-.3c-.527-.377-.883-.925-1.364-1.346a.359.359,0,0,1-.108-.181,1.323,1.323,0,0,0-.829-.918,5.681,5.681,0,0,1-1.019-.645,1.915,1.915,0,0,0-.973-.377,3.108,3.108,0,0,1-1.76-.677,2.306,2.306,0,0,0-.591-.383c-.518-.234-1.045-.454-1.578-.655A4.4,4.4,0,0,1,518.628,40c-.363-.265-.784-.444-1.153-.7-.532-.373-1.16-.652-1.423-1.323a.343.343,0,0,0-.163-.134,14.892,14.892,0,0,1-2.039-1.652c-.261-.2-.526-.381-.794-.549a1.25,1.25,0,0,0-.882-.452A4.6,4.6,0,0,0,511,34.852a1.742,1.742,0,0,1-.267-.089c-.746-.225-1.534-.265-2.275-.528a4.62,4.62,0,0,0-.84-.141,2.424,2.424,0,0,0-.422-.06,4.24,4.24,0,0,1-1.609-.186.678.678,0,0,0-.281-.022l-.019,0a3.2,3.2,0,0,0-.368.713,2.617,2.617,0,0,1-.558.888c-.976-.544-1.609-.516-3.508-.357a7.4,7.4,0,0,1-3.645-.5,6.189,6.189,0,0,0-4.937-.377,3.717,3.717,0,0,1-2.511-.2,2.83,2.83,0,0,0-1.116-.258c-.033,0-.06,0-.093,0-.028-.054-.063-.094-.091-.152-.071-.149-.246-.217-.372-.321a7.792,7.792,0,0,0-1.345.065,3.353,3.353,0,0,1-.824-.78c-.105-.142-.335-.192-.5-.283-1.3-.012-2.609.7-3.837-.256a4.235,4.235,0,0,1-.662.42,2.818,2.818,0,0,1-.787-.559,1.777,1.777,0,0,0-1.453-.435,3.059,3.059,0,0,1-1.669-.2,3.524,3.524,0,0,0-2.382-.613,2.087,2.087,0,0,1-1.058-.247c-.824-.361-1.646-.737-2.444-1.18-.075-.042-.151-.1-.226-.141-.051.3-.1.6-.153.894a2.324,2.324,0,0,1-.95-.64c-.106-.113-.291-.107-.436-.155-1,.3-1.893,1.3-3,.668a3.54,3.54,0,0,1-.585.7c-.739-.2-1.482-.394-2.206-.644-.1-.035-.2-.081-.3-.118-.034.3-.066.6-.1.9a3.156,3.156,0,0,1-1.266-.544,1.494,1.494,0,0,0-.566-.111c-1.236.394-2.259,1.484-3.724.959a4.251,4.251,0,0,1-.524.637,3.184,3.184,0,0,0-1.268.407,2.127,2.127,0,0,1-1.074.188,26.26,26.26,0,0,1-2.632-.143,3.144,3.144,0,0,1-1.48-.443,2,2,0,0,0-2.073-.159c-1.2.445-2.454.724-3.594-.281a1.249,1.249,0,0,0-.577-.25c-.586-.124-1,.2-1.2.929-.155.558-.285,1.126-.416,1.647-.359.293-.677.52-.968.8a1.793,1.793,0,0,1-.224.166,2.2,2.2,0,0,0-1.54-.29,3.385,3.385,0,0,1-3.456-1.2,1.41,1.41,0,0,0-.523-.394c-.551-.272-1-.063-1.321.606-.14.3-.262.589-.39.885-.04-.017-.083-.021-.123-.04a10.681,10.681,0,0,0-3.57-.767,3.545,3.545,0,0,0-.494.973c-.067-.009-.134-.023-.2-.029a1.5,1.5,0,0,0-.614.074,7.45,7.45,0,0,1-.9-.2,7.806,7.806,0,0,1-2.79-1.049,11.571,11.571,0,0,0-3.354-1.67,4.086,4.086,0,0,0-1.017,1.552c-.143,0-.286.01-.428,0a4.23,4.23,0,0,1-1.056-.119,1.087,1.087,0,0,0-.659-.045,4.083,4.083,0,0,1-2.432-.074.92.92,0,0,0-.812.111,2.271,2.271,0,0,1-1.036.3,2.151,2.151,0,0,0-.873.25,5.683,5.683,0,0,1-1.526.469l-5.7,3.469c-.033-.022-.072-.026-.105-.052a1.4,1.4,0,0,0-.562-.258,5.588,5.588,0,0,0-.676-.1c-.066-.008-.133-.009-.2-.017-.3-.036-.608-.07-.775-.385a.161.161,0,0,0-.093-.057c-.1-.03-.2-.049-.3-.08-.17-.053-.36-.014-.522-.114a.214.214,0,0,0-.111-.009c-.114,0-.228.01-.341.02a.672.672,0,0,0-.167.029c-.244.086-.506.077-.755.139a.146.146,0,0,1-.083-.006.532.532,0,0,0-.493.061,2.229,2.229,0,0,1-.446.187.762.762,0,0,0-.346.232,1.242,1.242,0,0,1-.627.423.9.9,0,0,0-.261.106c-.2.117-.39.239-.578.367A1.737,1.737,0,0,1,398.9,38c-.169.058-.325.155-.5.217a1.289,1.289,0,0,1-.76.164.131.131,0,0,0-.081.023,5.922,5.922,0,0,1-1.011.289c-.069.022-.128.056-.195.08a8.065,8.065,0,0,1-1.188-.1,1.416,1.416,0,0,0-1.013.189,3.414,3.414,0,0,1-1.278.4,3.2,3.2,0,0,0-1.078.334,8.576,8.576,0,0,1-1.881.616L381.29,45.27a1.336,1.336,0,0,1-.654.719,4.427,4.427,0,0,1-1.213.589.8.8,0,0,0-.3.186c-.186.144-.377.286-.548.448a3.7,3.7,0,0,0-.634.668,2.727,2.727,0,0,1-1.023.964,1.663,1.663,0,0,0-.763.828c.075.154.148.3.217.451a2.034,2.034,0,0,1-.738,2.622,1.282,1.282,0,0,0-.483.4,1.24,1.24,0,0,1-.774.584.594.594,0,0,0-.434.329.67.67,0,0,1-.187.239c-.012.01-.016.029-.029.037a1.466,1.466,0,0,0-.465.507l-.006,0-.006.009c-.035.057-.076.113-.107.173a1.342,1.342,0,0,1-.541.536,4.476,4.476,0,0,1-1.214.589.82.82,0,0,0-.3.186,6.976,6.976,0,0,0-.55.448,3.723,3.723,0,0,0-.632.668,2.725,2.725,0,0,1-1.025.964,1.67,1.67,0,0,0-.762.828c.075.154.147.3.217.451a2.035,2.035,0,0,1-.737,2.622,1.276,1.276,0,0,0-.484.4,1.244,1.244,0,0,1-.773.584.6.6,0,0,0-.434.329.633.633,0,0,1-.216.276,1.292,1.292,0,0,0-.3.327C365.441,64.887,365.467,65.534,365.538,66.182Z"/><path class="cls-2" d="M385.3,110.634a.735.735,0,0,0,.228-.57.8.8,0,0,1-.229.566Z"/><path class="cls-2" d="M346.973,99.754a9.383,9.383,0,0,0-.305-4.769,4.719,4.719,0,0,1-.287-2.605,3.187,3.187,0,0,0-.028-1.332,3.861,3.861,0,0,1,.576-3.32,1.961,1.961,0,0,0,.41-1.242c-.215-2.132-.479-4.261-.811-6.377a1.977,1.977,0,0,0-.765-1.36c-1.372-.626-1.092-1.784-.9-2.748a56.145,56.145,0,0,1,1.47-5.435,6.05,6.05,0,0,1,.821-1.369c1.027-1.606,2.035-3.214,1.076-5.229.231-1.455-.415-2.8-.529-4.192a34.371,34.371,0,0,1,.207-5.071c.095-1.426.2-2.856.4-4.27a4.283,4.283,0,0,0-.287-2.6c-.576-1.189-.107-2.468-.175-3.7a16.907,16.907,0,0,0-.572-2.6l-.013,0a12.209,12.209,0,0,1-1.547-.894,12.74,12.74,0,0,1-5.909.66,2.863,2.863,0,0,0-1.332.029,15.135,15.135,0,0,1-4.5.484,18.736,18.736,0,0,0-3.994.107,7.314,7.314,0,0,1-3.917-.2,2.987,2.987,0,0,0-.8-.011c-1.605,0-3.209.013-4.814,0a1.934,1.934,0,0,1-1.035-.171c-1.194-.856-2.362-.493-3.582-.1a3.31,3.31,0,0,1-1.552.117c-1.133-.206-2.232-.6-3.367-.787a21.782,21.782,0,0,0-9.028.032,2.114,2.114,0,0,1-1.283.1c-1.311-.666-2.628-.363-3.955-.21a3.931,3.931,0,0,1-2.63-.107,8.32,8.32,0,0,0-3.124-.669c-1.493-.266-3.006-.433-4.515-.587a6.55,6.55,0,0,0-2.633-.046,4.673,4.673,0,0,1-3.406-.117,8.559,8.559,0,0,0-3.922-.513c-1.524.077-3.041.008-4.111-1.431a2.229,2.229,0,0,0-1.05-.775c.055.2.113.4.176.609a4.127,4.127,0,0,1-.068,3.392,2.349,2.349,0,0,0-.075,1.545,6.879,6.879,0,0,1-.829,4.812A5.909,5.909,0,0,0,270.1,52a12.162,12.162,0,0,1,.683,6.312,7.629,7.629,0,0,0-.14,1.868,60.718,60.718,0,0,1-.172,9.631c-.1,2.114.181,4.272-.66,6.341a4.073,4.073,0,0,0,.035,2.113c.624,3.376.238,6.765.247,10.152.011,3.858-.557,7.661-.8,11.492-.11,1.691-.268,3.373-.408,5.06a14.585,14.585,0,0,0-.01,1.7c3.241.275,6.473.673,9.744.663,3.387-.009,6.777.377,10.152-.247a4.072,4.072,0,0,1,2.113-.034c2.07.84,4.228.563,6.342.659a60.705,60.705,0,0,0,9.63.172,7.675,7.675,0,0,1,1.868.14,12.167,12.167,0,0,0,6.313-.683,5.907,5.907,0,0,1,5.2.352,6.881,6.881,0,0,0,4.813.829,2.349,2.349,0,0,1,1.545.075,4.127,4.127,0,0,0,3.392.068,7.138,7.138,0,0,1,2.064-.4,39.232,39.232,0,0,0,4.5-.341,10.624,10.624,0,0,1,4.244.365c.775.215,1.563.387,2.337.608a6.958,6.958,0,0,0,3.494.133,13.406,13.406,0,0,0,.2-4.2A17.465,17.465,0,0,1,346.973,99.754Z"/><path class="cls-1" d="M568.078,40.282v5.694h8.632v2.106h-8.632v7.774h-2.392V38.176H576.97v2.106Z"/><path class="cls-1" d="M593.531,46.47l-.13,9.386h-1.95V54.141a6.744,6.744,0,0,1-5.017,2c-2.861-.026-4.473-1.534-4.473-3.925,0-2.757,2.834-3.979,9.179-4.473l.025-1.014c.026-1.82-.182-3.354-3.016-3.354a11.241,11.241,0,0,0-4.992,1.222l-.624-1.95a12.565,12.565,0,0,1,5.8-1.379C593.038,41.269,593.558,43.662,593.531,46.47Zm-2.469,6.085.051-2.913c-4.784.39-6.811,1.066-6.811,2.522,0,1.2.832,1.9,2.443,1.924A6.4,6.4,0,0,0,591.062,52.555Z"/><path class="cls-1" d="M611.16,53.776v2.08H598.783v-2.08H603.8V34.535h2.34V53.776Z"/><path class="cls-1" d="M615.761,55.024l.7-2.184a11.013,11.013,0,0,0,5.227,1.2c2.651,0,3.925-.624,3.925-1.95,0-2.886-9.594-1.924-9.594-6.656,0-2.678,2.366-4.134,6.11-4.134a13.3,13.3,0,0,1,5.175,1.013l-.676,2.133a10.141,10.141,0,0,0-4.5-1.066c-2.47,0-3.744.65-3.744,1.794,0,2.782,9.6,1.82,9.6,6.656,0,2.964-2.626,4.29-6.4,4.29A13.545,13.545,0,0,1,615.761,55.024Z"/><path class="cls-1" d="M634.949,48.732c0,3.64,1.534,5.279,4.551,5.279a9.375,9.375,0,0,0,4.732-1.223l.624,1.95a10.6,10.6,0,0,1-5.409,1.378c-4.237,0-6.864-2.392-6.864-7.254s2.99-7.566,6.734-7.566c4.265,0,6.163,2.652,5.591,7.28h-9.959Zm.183-2.028h7.54c-.052-2.392-1.17-3.38-3.511-3.38A3.811,3.811,0,0,0,635.132,46.7Z"/><path class="cls-1" d="M365.33,159.961h-5.512v15.5h-2.392v-15.5h-5.512v-2.185H365.33Z"/><path class="cls-1" d="M381.97,173.377v2.08H369.594v-2.08h3.718V161.156h2.08l-.052,2.756,6.344-3.094.026,2.315-6.059,2.937v7.307Z"/><path class="cls-1" d="M398.09,161.156v14.3h-1.976v-1.586a7.077,7.077,0,0,1-4.81,1.872c-3.3,0-4.655-1.69-4.655-4.732v-9.855h2.341v9.517c0,2.106.858,2.964,2.6,2.964a7.164,7.164,0,0,0,4.16-1.352V161.156Z"/><path class="cls-1" d="M405.5,168.333c0,3.64,1.534,5.278,4.551,5.278a9.368,9.368,0,0,0,4.731-1.222l.624,1.95A10.594,10.594,0,0,1,410,175.717c-4.238,0-6.864-2.392-6.864-7.254s2.99-7.567,6.734-7.567c4.265,0,6.162,2.653,5.591,7.281H405.5Zm.183-2.028h7.54c-.052-2.393-1.17-3.38-3.51-3.38A3.81,3.81,0,0,0,405.682,166.305Z"/><path class="cls-3" d="M303.971,82.377v2.08H291.6v-2.08h5.277V72.236H291.6v-2.08h7.618V82.377Zm-8.529-16.9a2.341,2.341,0,1,1,2.34,2.34A2.33,2.33,0,0,1,295.442,65.476Z"/><path class="cls-3" d="M314.266,67.192c0,1.378.52,2.548.728,4.525h5.616V73.8h-5.538v8.58h5.538v2.08H308.233v-2.08h4.5V73.8h-4.5v-2.08h4.421a35.136,35.136,0,0,1-.728-4.395c0-3.223,2.366-4.446,5.33-4.446a10.727,10.727,0,0,1,4.135.728l-.677,2.106a8.157,8.157,0,0,0-3.588-.728C315.306,64.982,314.266,65.45,314.266,67.192Z"/><path class="cls-3" d="M377.785,72.262c0-5.174,3.147-7.567,7.125-7.567a11.035,11.035,0,0,1,5.2,1.17l-.676,2.107A9.358,9.358,0,0,0,384.7,66.8c-2.757,0-4.524,1.637-4.524,5.33,0,3.639,1.4,5.278,4.524,5.278a8.907,8.907,0,0,0,4.732-1.326l.624,2.054a10.6,10.6,0,0,1-5.409,1.378C380.281,79.516,377.785,77.124,377.785,72.262Z"/><path class="cls-3" d="M394.373,72.262c0-4.758,2.73-7.593,6.578-7.593,4.056,0,6.422,2.782,6.422,7.411s-2.729,7.462-6.578,7.462C396.739,79.542,394.373,76.76,394.373,72.262Zm10.634-.052c0-3.406-1.274-5.435-4.108-5.435-2.86,0-4.16,2.08-4.16,5.357s1.274,5.3,4.108,5.3C403.707,77.435,405.007,75.355,405.007,72.21Z"/><path class="cls-3" d="M423.546,69.4v9.855h-2.34V69.739c0-2.105-.858-2.964-2.6-2.964a7.178,7.178,0,0,0-4.161,1.352V79.256h-2.339v-14.3h1.975v1.586a7.079,7.079,0,0,1,4.811-1.872C422.193,64.669,423.546,66.359,423.546,69.4Z"/><path class="cls-3" d="M440.394,57.935V79.256h-2.029V77.722a6.886,6.886,0,0,1-4.758,1.82c-3.536-.026-5.434-2.5-5.434-6.891,0-5.719,2.834-7.956,7.1-7.956a17.358,17.358,0,0,1,2.782.208V57.935Zm-2.341,18.149V67.165a10.893,10.893,0,0,0-2.964-.363c-3.147,0-4.55,1.872-4.55,5.589,0,3.25,1.144,5.019,3.354,5.044A6.976,6.976,0,0,0,438.053,76.084Z"/><path class="cls-3" d="M458.022,77.176v2.08H445.646v-2.08h5.277V67.035h-5.277v-2.08h7.618V77.176Zm-8.529-16.9a2.341,2.341,0,1,1,2.34,2.34A2.33,2.33,0,0,1,449.493,60.275Z"/><path class="cls-3" d="M474.713,78.4a10.525,10.525,0,0,1-4.914,1.119c-3.9,0-4.6-2.132-4.55-5.2l.155-7.28H461.9v-2.08h3.536l.078-3.38h2.418l-.443,3.38h6.709v2.08h-6.4l-.156,7.021c-.052,1.82.182,3.354,2.236,3.354a9.307,9.307,0,0,0,4.212-.963Z"/><path class="cls-3" d="M491.821,77.176v2.08H479.445v-2.08h5.279V67.035h-5.279v-2.08h7.619V77.176Zm-8.528-16.9a2.341,2.341,0,1,1,2.34,2.34A2.33,2.33,0,0,1,483.293,60.275Z"/><path class="cls-3" d="M495.773,72.262c0-4.758,2.73-7.593,6.578-7.593,4.056,0,6.422,2.782,6.422,7.411s-2.73,7.462-6.579,7.462C498.139,79.542,495.773,76.76,495.773,72.262Zm10.634-.052c0-3.406-1.274-5.435-4.108-5.435-2.86,0-4.16,2.08-4.16,5.357s1.273,5.3,4.108,5.3C505.107,77.435,506.407,75.355,506.407,72.21Z"/><path class="cls-3" d="M524.944,69.4v9.855h-2.339V69.739c0-2.105-.859-2.964-2.6-2.964a7.173,7.173,0,0,0-4.16,1.352V79.256H513.5v-14.3h1.976v1.586a7.077,7.077,0,0,1,4.81-1.872C523.592,64.669,524.944,66.359,524.944,69.4Z"/><path class="cls-3" d="M437.923,318.559c0,5.72-2.834,7.957-7.1,7.957a16.032,16.032,0,0,1-5.122-.754V304.935h2.34v6.241l-.208,2.21a7.012,7.012,0,0,1,4.654-1.717C436.025,311.7,437.923,314.165,437.923,318.559Zm-2.365.26c0-3.25-1.145-5.017-3.355-5.044a6.991,6.991,0,0,0-4.16,1.352v8.919a10.9,10.9,0,0,0,2.964.364C434.153,324.41,435.558,322.538,435.558,318.819Z"/><path class="cls-3" d="M441.822,319.262c0-4.758,2.73-7.593,6.578-7.593,4.056,0,6.422,2.782,6.422,7.411s-2.729,7.462-6.578,7.462C444.189,326.542,441.822,323.76,441.822,319.262Zm10.634-.052c0-3.406-1.273-5.435-4.107-5.435-2.861,0-4.16,2.08-4.16,5.357s1.273,5.3,4.107,5.3C451.156,324.435,452.456,322.355,452.456,319.21Z"/><path class="cls-3" d="M470.943,304.935v21.321h-2.028v-1.534a6.886,6.886,0,0,1-4.758,1.82c-3.537-.026-5.434-2.5-5.434-6.891,0-5.719,2.834-7.956,7.1-7.956a17.358,17.358,0,0,1,2.782.208v-6.968Zm-2.34,18.149v-8.919a10.9,10.9,0,0,0-2.964-.363c-3.146,0-4.55,1.872-4.55,5.589,0,3.25,1.144,5.019,3.353,5.044A6.976,6.976,0,0,0,468.6,323.084Z"/><path class="cls-3" d="M483.292,328.855H487.4v2.08H476.844v-2.08h4.108V325.97l-5.538-14.015h2.523l2.989,7.774,1.015,3.225h.519l1.04-3.225,2.939-7.774h2.391l-5.538,14.015Z"/></g></svg>