<svg xmlns="http://www.w3.org/2000/svg" viewBox="0 0 952 426"><defs><style>.cls-1{fill:#f36;}.cls-2{fill:#1858a8;}.cls-3{fill:#ffeded;}</style></defs><title>manuale_ill_nuove</title><g id="solo_testo" data-name="solo testo"><path class="cls-1" d="M258.079,57.416a2.035,2.035,0,0,0,1.1-.035,10.964,10.964,0,0,1,4.187-.052,80.459,80.459,0,0,0,11.761.344,9.828,9.828,0,0,1,3.536.069,5.138,5.138,0,0,0,1.543-.048,25.882,25.882,0,0,1,3.761-.082c2.372.275,4.741-.009,7.106.131a1.284,1.284,0,0,0,.648-.126,3.553,3.553,0,0,1,2.8-.151,8.006,8.006,0,0,0,1.762.145c.665.04,1.332.059,2,.107.636.046,1.273.091,1.91.143.764.063,1.528.131,2.294.173,2.8.155,5.59-.3,8.4-.144a94.048,94.048,0,0,0,9.99-.06,6.313,6.313,0,0,1,1.535.206,30.812,30.812,0,0,0,4.631.469q.861-.026,1.721-.086c.784-.055,1.567-.119,2.351-.163a5.053,5.053,0,0,1,1.736.006,5.472,5.472,0,0,0,3.073,0c2.1-.528,4.264.233,6.37-.373.44-.127,1,.23,1.516.279a14.53,14.53,0,0,0,2.648.124c1.463-.133,2.911-.426,4.37-.612a3.489,3.489,0,0,1,1.1.1c2.03.406,4.132,0,6.149.542a.538.538,0,0,0,.222-.006,29.372,29.372,0,0,1,4.652-.043c.957-.027,1.914-.1,2.871-.161a15.61,15.61,0,0,1,2.216-.125c1.769.145,3.564-.1,5.314.374a3.7,3.7,0,0,0,1.1-.019c1.524-.079,3.047-.189,4.571-.236-.087.623-.182,1.245-.261,1.869a1.062,1.062,0,0,0,.069.65,5.56,5.56,0,0,1,.46,3.215c-.954-.155-1.907-.315-2.865-.443a5.367,5.367,0,0,0-1.771.025c-.388.08-.714.446-1.075.672a2.438,2.438,0,0,1-.383.16l-1.056-1.2c-1.433.391-2.909.272-4.356.64a7.484,7.484,0,0,1-3.5.186,14.212,14.212,0,0,0-3.683-.093c-.512,0-1.024.179-1.537.182-1.106,0-2.225-.189-3.245.459a1.062,1.062,0,0,1-.65.069c-1.1-.14-2.2-.28-3.3-.461-1.675-.279-3.341-.6-5.014-.879a2.278,2.278,0,0,0-.877.047c-3.133.741-6.342-.135-9.482.449-.137.026-.291-.061-.439-.066-.438-.017-.878-.044-1.317-.053a6.343,6.343,0,0,0-.676.008,18.829,18.829,0,0,1-3.752-.078,7.538,7.538,0,0,0-3.307-.068,1.2,1.2,0,0,1-.847-.1,2.7,2.7,0,0,0-1.451-.254,3.142,3.142,0,0,1-2.046,1.143,5.646,5.646,0,0,1-3.678-.5,3.135,3.135,0,0,0-.566-.291,4.309,4.309,0,0,0-.614.125,9.2,9.2,0,0,1-5.461.212,4.123,4.123,0,0,0-1.742-.125,20.062,20.062,0,0,1-5.666-.253c-.022-.034-.039-.058-.061-.091a1.723,1.723,0,0,0-.523.363,1.248,1.248,0,0,1-1.047.083,9.969,9.969,0,0,0-3.938-.535,2,2,0,0,1-.859-.171,6.2,6.2,0,0,0-3.913-.177,2.748,2.748,0,0,1-1.083.183,11.943,11.943,0,0,0-4.894.2c-.78.172-1.555.373-2.326.611a4.166,4.166,0,0,1-2.823-.006c-.484-.184-1-.289-1.5-.436a15.276,15.276,0,0,0-7.67-.6,9.5,9.5,0,0,1-1.764.039c-2.06.048-4.133.016-6.02,1.063a10.384,10.384,0,0,1-1.068.445,8.649,8.649,0,0,1-.856-.719c-.294-.317-.534-.683-.8-1.025-.587-.021-1.106-.085-1.619-.05-1.7.119-3.4.244-5.1.425-.8.086-1.582.332-2.379.453a5.289,5.289,0,0,1-1.51.058c-1.462-.209-2.912-.51-4.375-.719a5.559,5.559,0,0,0-1.629,0c-.016-.115-.015-.23-.036-.345a.517.517,0,0,1-.007-.221,20.758,20.758,0,0,0,.36-4.514c1.69-.077,3.379-.2,5.069-.2C254.41,57.466,256.234,56.861,258.079,57.416Z"/><path class="cls-1" d="M300.943,89.154a9.383,9.383,0,0,0-.305-4.769,4.71,4.71,0,0,1-.286-2.605,3.2,3.2,0,0,0-.029-1.332,3.864,3.864,0,0,1,.576-3.32,1.961,1.961,0,0,0,.41-1.242c-.215-2.132-.478-4.261-.811-6.377a1.977,1.977,0,0,0-.765-1.36c-1.372-.626-1.092-1.784-.9-2.748.363-1.837.924-3.639,1.47-5.435a6.05,6.05,0,0,1,.821-1.369c1.027-1.606,2.035-3.214,1.077-5.229.23-1.455-.416-2.8-.53-4.192a34.371,34.371,0,0,1,.207-5.071c.1-1.426.2-2.856.4-4.27a4.283,4.283,0,0,0-.287-2.6c-.576-1.189-.107-2.468-.175-3.7a16.79,16.79,0,0,0-.572-2.6l-.013,0a12.28,12.28,0,0,1-1.547-.894,12.74,12.74,0,0,1-5.909.66,2.859,2.859,0,0,0-1.331.029,15.142,15.142,0,0,1-4.5.484,18.736,18.736,0,0,0-3.994.107,7.314,7.314,0,0,1-3.917-.2,2.987,2.987,0,0,0-.8-.011c-1.6,0-3.209.013-4.814,0a1.934,1.934,0,0,1-1.035-.171c-1.194-.856-2.362-.493-3.582-.1a3.309,3.309,0,0,1-1.552.117c-1.132-.206-2.232-.6-3.367-.787a21.782,21.782,0,0,0-9.028.032,2.113,2.113,0,0,1-1.283.1c-1.311-.666-2.628-.363-3.955-.21a3.928,3.928,0,0,1-2.629-.107,8.329,8.329,0,0,0-3.125-.669c-1.493-.266-3-.433-4.515-.587a6.55,6.55,0,0,0-2.633-.046,4.673,4.673,0,0,1-3.406-.117,8.559,8.559,0,0,0-3.922-.513c-1.524.077-3.041.008-4.111-1.431a2.232,2.232,0,0,0-1.049-.775c.054.2.112.4.175.609a4.127,4.127,0,0,1-.068,3.392,2.355,2.355,0,0,0-.075,1.545,6.879,6.879,0,0,1-.829,4.812,5.909,5.909,0,0,0-.352,5.2,12.152,12.152,0,0,1,.683,6.312,7.628,7.628,0,0,0-.139,1.868,60.837,60.837,0,0,1-.173,9.631c-.1,2.114.181,4.272-.659,6.341a4.072,4.072,0,0,0,.034,2.113c.625,3.376.238,6.765.248,10.152.011,3.858-.558,7.661-.805,11.492-.109,1.691-.268,3.373-.408,5.06a14.585,14.585,0,0,0-.01,1.7c3.242.275,6.474.673,9.745.663,3.387-.009,6.776.377,10.152-.247a4.068,4.068,0,0,1,2.112-.034c2.07.84,4.228.563,6.342.659a60.718,60.718,0,0,0,9.631.172,7.666,7.666,0,0,1,1.867.14,12.167,12.167,0,0,0,6.313-.683,5.907,5.907,0,0,1,5.2.352,6.881,6.881,0,0,0,4.813.829,2.349,2.349,0,0,1,1.545.075,4.127,4.127,0,0,0,3.392.068,7.144,7.144,0,0,1,2.064-.4,39.232,39.232,0,0,0,4.5-.341,10.624,10.624,0,0,1,4.244.365c.776.215,1.564.387,2.337.608a6.959,6.959,0,0,0,3.494.133,13.436,13.436,0,0,0,.2-4.2A17.43,17.43,0,0,1,300.943,89.154Z"/><path class="cls-2" d="M384.385,63.006a2.035,2.035,0,0,0,.034,1.1,10.985,10.985,0,0,1,.053,4.187,80.328,80.328,0,0,0-.344,11.761,9.851,9.851,0,0,1-.069,3.536,5.1,5.1,0,0,0,.047,1.543,25.6,25.6,0,0,1,.082,3.761c-.275,2.372.01,4.741-.131,7.106a1.29,1.29,0,0,0,.127.649,3.555,3.555,0,0,1,.151,2.8,8.01,8.01,0,0,0-.146,1.763c-.04.665-.059,1.331-.106,2-.046.636-.092,1.274-.144,1.91-.062.764-.13,1.528-.172,2.294-.155,2.8.3,5.59.144,8.4a93.541,93.541,0,0,0,.06,9.991,6.264,6.264,0,0,1-.207,1.534,30.825,30.825,0,0,0-.469,4.632q.026.859.086,1.72c.056.784.119,1.567.163,2.351a5.053,5.053,0,0,1-.006,1.736,5.481,5.481,0,0,0,0,3.073c.528,2.1-.233,4.265.372,6.37.128.441-.229,1-.278,1.516a14.358,14.358,0,0,0-.124,2.648c.133,1.463.426,2.911.612,4.37a3.518,3.518,0,0,1-.105,1.1c-.407,2.031,0,4.133-.543,6.15a.517.517,0,0,0,.007.221,29.492,29.492,0,0,1,.042,4.652c.028.957.1,1.914.161,2.871a15.761,15.761,0,0,1,.126,2.216c-.146,1.769.1,3.564-.375,5.314a3.665,3.665,0,0,0,.02,1.1c.079,1.524.188,3.047.235,4.572-.623-.087-1.244-.183-1.869-.262a1.07,1.07,0,0,0-.65.069,5.551,5.551,0,0,1-3.215.46c.155-.954.316-1.907.444-2.864a5.4,5.4,0,0,0-.026-1.772c-.079-.388-.445-.714-.672-1.075a2.439,2.439,0,0,1-.159-.383c.376-.333.757-.668,1.2-1.055-.392-1.434-.273-2.91-.64-4.357a7.47,7.47,0,0,1-.186-3.5,14.212,14.212,0,0,0,.093-3.683c0-.512-.18-1.024-.182-1.537,0-1.106.189-2.224-.46-3.245a1.07,1.07,0,0,1-.068-.65c.139-1.1.279-2.2.461-3.3.278-1.675.6-3.341.878-5.014a2.292,2.292,0,0,0-.046-.876c-.742-3.134.134-6.343-.449-9.483-.026-.137.06-.291.066-.438.016-.439.043-.879.052-1.318a5.859,5.859,0,0,0-.008-.676,18.982,18.982,0,0,1,.078-3.752,7.538,7.538,0,0,0,.069-3.307,1.186,1.186,0,0,1,.1-.846,2.7,2.7,0,0,0,.254-1.452,3.146,3.146,0,0,1-1.143-2.046,5.64,5.64,0,0,1,.5-3.678,3.129,3.129,0,0,0,.29-.566,4.45,4.45,0,0,0-.124-.614,9.2,9.2,0,0,1-.213-5.461,4.087,4.087,0,0,0,.125-1.741,20.059,20.059,0,0,1,.254-5.666l.091-.062a1.727,1.727,0,0,0-.364-.523,1.248,1.248,0,0,1-.083-1.047,9.967,9.967,0,0,0,.536-3.938,1.984,1.984,0,0,1,.17-.859,6.185,6.185,0,0,0,.177-3.913,2.746,2.746,0,0,1-.182-1.083,11.943,11.943,0,0,0-.2-4.894c-.172-.78-.372-1.555-.61-2.326a4.166,4.166,0,0,1,0-2.823c.184-.484.289-1,.436-1.5a15.28,15.28,0,0,0,.6-7.671,9.67,9.67,0,0,1-.039-1.764c-.048-2.06-.015-4.133-1.062-6.02a10.379,10.379,0,0,1-.446-1.068,8.771,8.771,0,0,1,.719-.855c.317-.3.684-.535,1.026-.8a15.968,15.968,0,0,0,.049-1.619c-.118-1.7-.243-3.4-.425-5.1-.085-.8-.332-1.581-.453-2.379a5.286,5.286,0,0,1-.058-1.51c.209-1.462.51-2.912.72-4.374a5.531,5.531,0,0,0,0-1.63c.115-.016.23-.015.345-.036a.522.522,0,0,1,.222-.007,20.691,20.691,0,0,0,4.514.36c.076,1.69.2,3.379.2,5.069C384.334,59.337,384.939,61.161,384.385,63.006Z"/><path class="cls-2" d="M377.8,187.249a5.251,5.251,0,0,1-.072-1.509c.067-.507.152-1.012.234-1.517a5.551,5.551,0,0,0,3.215-.46,1.07,1.07,0,0,1,.65-.069c.625.079,1.246.175,1.869.262.008.254.027.509.031.764.02,1.832.642,3.651.106,5.5,0,.015,0,.033,0,.049a25.43,25.43,0,0,1-4.906-.4.522.522,0,0,0-.222.007c-.132.025-.264.025-.4.041-.012-.1-.016-.2-.028-.3C378.179,188.824,377.925,188.045,377.8,187.249Z"/><path class="cls-2" d="M402.7,157.21c.223.246.695.518.953.44.038-.011.069,0,.106-.01-.008.028-.019.055-.028.083-.232.764-.437,1.538-.607,2.327a4.174,4.174,0,0,1-1.388,2.459c-.4.331-.741.729-1.114,1.092a15.283,15.283,0,0,0-4.279,6.393,9.5,9.5,0,0,1-.83,1.557c-.967,1.82-2.011,3.61-2.022,5.768a10.492,10.492,0,0,1-.135,1.15,8.777,8.777,0,0,1-1.046.394c-.421.1-.858.131-1.284.19-.305.5-.616.923-.836,1.388-.731,1.541-1.455,3.088-2.128,4.654-.318.74-.485,1.541-.77,2.3a5.273,5.273,0,0,1-.69,1.344c-.9,1.173-1.871,2.289-2.77,3.462a5.492,5.492,0,0,0-.8,1.418c-.108-.042-.208-.1-.319-.137a.526.526,0,0,1-.2-.1,20.719,20.719,0,0,0-3.759-2.525c.761-1.511,1.483-3.043,2.308-4.518.895-1.6,1.261-3.486,2.648-4.823a2.033,2.033,0,0,0,.511-.979,10.991,10.991,0,0,1,2-3.676,80.6,80.6,0,0,0,6.062-10.084,9.849,9.849,0,0,1,1.791-3.05,5.067,5.067,0,0,0,.715-1.368,25.786,25.786,0,0,1,1.771-3.319,41.822,41.822,0,0,0,2.612-4.457,1.485,1.485,0,0,0,.349.237A9.975,9.975,0,0,1,402.7,157.21Z"/><path class="cls-2" d="M379.285,193.522c-.332.023-.837.227-.935.477-.015.037-.041.056-.058.091-.016-.025-.031-.05-.047-.074-.459-.654-.941-1.293-1.457-1.914a4.168,4.168,0,0,1-1.078-2.61c-.015-.517-.116-1.032-.171-1.549a15.276,15.276,0,0,0-2.39-7.313,9.564,9.564,0,0,1-.712-1.614c-.835-1.885-1.6-3.811-3.291-5.152a10.294,10.294,0,0,1-.821-.816,8.786,8.786,0,0,1,.336-1.066c.179-.393.426-.755.642-1.127a16.082,16.082,0,0,0-.576-1.515c-.761-1.526-1.531-3.05-2.348-4.547-.386-.706-.913-1.332-1.332-2.023a5.269,5.269,0,0,1-.632-1.373c-.368-1.43-.646-2.884-1.014-4.315a5.522,5.522,0,0,0-.621-1.506c.1-.059.206-.1.3-.167a.537.537,0,0,1,.2-.09,20.69,20.69,0,0,0,4.307-1.4c.719,1.532,1.479,3.046,2.131,4.6.706,1.692,1.964,3.144,2.16,5.06a2.031,2.031,0,0,0,.455,1.007,10.976,10.976,0,0,1,1.655,3.847,80.29,80.29,0,0,0,4.193,10.992,9.849,9.849,0,0,1,1.293,3.292,5.061,5.061,0,0,0,.636,1.407,26.007,26.007,0,0,1,1.518,3.442,41.96,41.96,0,0,0,1.895,4.806,1.512,1.512,0,0,0-.4.128A9.97,9.97,0,0,1,379.285,193.522Z"/><path class="cls-2" d="M394.785,247.606a2.035,2.035,0,0,0,.034,1.1,10.985,10.985,0,0,1,.053,4.187,80.328,80.328,0,0,0-.344,11.761,9.851,9.851,0,0,1-.069,3.536,5.1,5.1,0,0,0,.047,1.543,25.6,25.6,0,0,1,.082,3.761c-.275,2.372.01,4.741-.131,7.106a1.29,1.29,0,0,0,.127.649,3.555,3.555,0,0,1,.151,2.8,8.01,8.01,0,0,0-.146,1.763c-.04.665-.059,1.331-.106,2-.046.636-.092,1.274-.144,1.91-.062.764-.13,1.528-.172,2.294-.155,2.8.3,5.59.144,8.4a93.541,93.541,0,0,0,.06,9.991,6.264,6.264,0,0,1-.207,1.534,30.825,30.825,0,0,0-.469,4.632q.026.86.086,1.72c.056.784.119,1.567.163,2.351a5.053,5.053,0,0,1-.006,1.736,5.481,5.481,0,0,0,0,3.073c.528,2.1-.233,4.265.372,6.37.128.441-.229,1-.278,1.516a14.358,14.358,0,0,0-.124,2.648c.133,1.463.426,2.911.612,4.37a3.518,3.518,0,0,1-.105,1.1c-.407,2.031,0,4.133-.543,6.15a.517.517,0,0,0,.007.221,29.492,29.492,0,0,1,.042,4.652c.028.957.1,1.914.161,2.871a15.761,15.761,0,0,1,.126,2.216c-.146,1.769.1,3.564-.375,5.314a3.665,3.665,0,0,0,.02,1.1c.079,1.524.188,3.047.235,4.572-.623-.087-1.244-.183-1.869-.262a1.07,1.07,0,0,0-.65.069,5.551,5.551,0,0,1-3.215.46c.155-.954.316-1.907.444-2.864a5.4,5.4,0,0,0-.026-1.772c-.079-.388-.445-.714-.672-1.075a2.439,2.439,0,0,1-.159-.383c.376-.333.757-.668,1.2-1.055-.392-1.434-.273-2.91-.64-4.357a7.47,7.47,0,0,1-.186-3.5,14.212,14.212,0,0,0,.093-3.683c0-.512-.18-1.024-.182-1.537,0-1.106.189-2.224-.46-3.245a1.07,1.07,0,0,1-.068-.65c.139-1.1.279-2.2.461-3.3.278-1.675.6-3.341.878-5.014a2.292,2.292,0,0,0-.046-.876c-.742-3.134.134-6.343-.449-9.483-.026-.137.06-.291.066-.438.016-.439.043-.879.052-1.318a5.859,5.859,0,0,0-.008-.676,18.982,18.982,0,0,1,.078-3.752,7.538,7.538,0,0,0,.069-3.307,1.186,1.186,0,0,1,.1-.846,2.7,2.7,0,0,0,.254-1.452,3.146,3.146,0,0,1-1.143-2.046,5.64,5.64,0,0,1,.5-3.678,3.129,3.129,0,0,0,.29-.566,4.45,4.45,0,0,0-.124-.614,9.2,9.2,0,0,1-.213-5.461,4.087,4.087,0,0,0,.125-1.741,20.059,20.059,0,0,1,.254-5.666l.091-.062a1.727,1.727,0,0,0-.364-.523,1.248,1.248,0,0,1-.083-1.047,9.967,9.967,0,0,0,.536-3.938,1.984,1.984,0,0,1,.17-.859,6.185,6.185,0,0,0,.177-3.913,2.746,2.746,0,0,1-.182-1.083,11.943,11.943,0,0,0-.2-4.894c-.172-.78-.372-1.555-.61-2.326a4.166,4.166,0,0,1,0-2.823c.184-.484.289-1,.436-1.5a15.28,15.28,0,0,0,.6-7.671,9.67,9.67,0,0,1-.039-1.764c-.048-2.06-.015-4.133-1.062-6.02a10.379,10.379,0,0,1-.446-1.068,8.771,8.771,0,0,1,.719-.855c.317-.3.684-.535,1.026-.8a15.968,15.968,0,0,0,.049-1.619c-.118-1.7-.243-3.4-.425-5.1-.085-.8-.332-1.581-.453-2.379a5.286,5.286,0,0,1-.058-1.51c.209-1.462.51-2.912.72-4.374a5.531,5.531,0,0,0,0-1.63c.115-.016.23-.015.345-.036a.522.522,0,0,1,.222-.007,20.691,20.691,0,0,0,4.514.36c.076,1.69.2,3.379.2,5.069C394.734,243.937,395.339,245.761,394.785,247.606Z"/><path class="cls-2" d="M388.2,371.849a5.251,5.251,0,0,1-.072-1.509c.067-.507.152-1.012.234-1.517a5.551,5.551,0,0,0,3.215-.46,1.07,1.07,0,0,1,.65-.069c.625.079,1.246.175,1.869.262.008.254.027.509.031.764.02,1.832.642,3.651.106,5.5,0,.015,0,.033,0,.049a25.43,25.43,0,0,1-4.906-.4.522.522,0,0,0-.222.007c-.132.025-.264.025-.4.041-.012-.1-.016-.2-.028-.3C388.579,373.424,388.325,372.645,388.2,371.849Z"/><path class="cls-2" d="M413.1,341.81c.223.246.7.518.953.44.038-.011.069,0,.106-.01-.008.028-.019.055-.028.083-.232.764-.437,1.538-.607,2.327a4.174,4.174,0,0,1-1.388,2.459c-.4.331-.741.729-1.114,1.092a15.283,15.283,0,0,0-4.279,6.393,9.5,9.5,0,0,1-.83,1.557c-.967,1.82-2.011,3.61-2.022,5.768a10.492,10.492,0,0,1-.135,1.15,8.777,8.777,0,0,1-1.046.394c-.421.1-.858.131-1.284.19-.305.5-.616.923-.836,1.388-.731,1.541-1.455,3.088-2.128,4.654-.318.74-.485,1.541-.77,2.3a5.273,5.273,0,0,1-.69,1.344c-.9,1.173-1.871,2.289-2.77,3.462a5.492,5.492,0,0,0-.8,1.418c-.108-.042-.208-.1-.319-.137a.526.526,0,0,1-.2-.1,20.719,20.719,0,0,0-3.759-2.525c.761-1.511,1.483-3.043,2.308-4.518.9-1.6,1.261-3.486,2.648-4.823a2.033,2.033,0,0,0,.511-.979,10.991,10.991,0,0,1,2-3.676,80.6,80.6,0,0,0,6.062-10.084,9.849,9.849,0,0,1,1.791-3.05,5.067,5.067,0,0,0,.715-1.368,25.786,25.786,0,0,1,1.771-3.319,41.822,41.822,0,0,0,2.612-4.457,1.485,1.485,0,0,0,.349.237A9.975,9.975,0,0,1,413.1,341.81Z"/><path class="cls-2" d="M389.685,378.122c-.332.023-.837.227-.935.477-.015.037-.041.056-.058.091-.016-.025-.031-.05-.047-.074-.459-.654-.941-1.293-1.457-1.914a4.168,4.168,0,0,1-1.078-2.61c-.015-.517-.116-1.032-.171-1.549a15.276,15.276,0,0,0-2.39-7.313,9.564,9.564,0,0,1-.712-1.614c-.835-1.885-1.6-3.811-3.291-5.152a10.294,10.294,0,0,1-.821-.816,8.786,8.786,0,0,1,.336-1.066c.179-.393.426-.755.642-1.127a16.082,16.082,0,0,0-.576-1.515c-.761-1.526-1.531-3.05-2.348-4.547-.386-.706-.913-1.332-1.332-2.023a5.269,5.269,0,0,1-.632-1.373c-.368-1.43-.646-2.884-1.014-4.315a5.522,5.522,0,0,0-.621-1.506c.1-.059.206-.1.3-.167a.537.537,0,0,1,.2-.09,20.69,20.69,0,0,0,4.307-1.4c.719,1.532,1.479,3.046,2.131,4.605.706,1.692,1.964,3.144,2.16,5.06a2.031,2.031,0,0,0,.455,1.007,10.976,10.976,0,0,1,1.655,3.847,80.29,80.29,0,0,0,4.193,10.992,9.849,9.849,0,0,1,1.293,3.292,5.061,5.061,0,0,0,.636,1.407,26.007,26.007,0,0,1,1.518,3.442,41.96,41.96,0,0,0,1.895,4.806,1.512,1.512,0,0,0-.4.128A9.97,9.97,0,0,1,389.685,378.122Z"/><path class="cls-1" d="M487.113,71.238c-.1-.965-.025-1.945-.047-2.918a56.792,56.792,0,0,0-.182-5.813,47.319,47.319,0,0,1-.436-7.228,1.658,1.658,0,0,1-.055-.777c.039-.2.077-.406.107-.612,0-.029.01-.059.012-.089a3.35,3.35,0,0,0,.03-.639,1.383,1.383,0,0,1,.167-.859,1.091,1.091,0,0,1,.3-.319.345.345,0,0,0-.077-.628c-.038-.017-.054-.05-.09-.068a1.674,1.674,0,0,1-.856-1.1,1.28,1.28,0,0,0-.294-.563,11.384,11.384,0,0,1-.755-1.032,1.917,1.917,0,0,1-.56-1.256c0-.227-.161-.456-.161-.684a2.035,2.035,0,0,0-.55-1.352,1.07,1.07,0,0,1-.207-.361,1.441,1.441,0,0,0-.446-.63c-.532-.506-1.051-1.026-1.575-1.54-.118-.115-.249-.219-.363-.34a7.218,7.218,0,0,1-.854-.943,4.535,4.535,0,0,0-.9-1,2.339,2.339,0,0,1-.477-.518.989.989,0,0,0-.727-.514.577.577,0,0,1-.3-.167,2.879,2.879,0,0,0-.866-.723c-.1-.041-.16-.17-.229-.266a2.71,2.71,0,0,0-.276-.414,1.972,1.972,0,0,1-.53-.907,1.514,1.514,0,0,0-.749-1,1.47,1.47,0,0,1-.674-.7c-.1-.184-.211-.367-.327-.568a1,1,0,0,1-.567-.11,1.54,1.54,0,0,0-.846-.5,6.277,6.277,0,0,1-2.414-1.273c-.463-.326-.914-.668-1.37-1,0-.031.014-.063-.006-.095a.253.253,0,0,1-.043-.133,1.1,1.1,0,0,0-.232-.575c-.167-.041-.337-.081-.4-.273a.068.068,0,0,0-.041-.037l0,0a.533.533,0,0,1-.292-.292.341.341,0,0,0-.094-.106c-.175-.126-.355-.247-.547-.38-.008-.023-.009-.085-.04-.11-.157-.13-.289-.306-.523-.31a.257.257,0,0,1-.218-.115.938.938,0,0,0-.644-.383.78.78,0,0,1-.435-.251.969.969,0,0,0-.539-.284.782.782,0,0,1-.392-.158c-.1-.088-.23-.08-.347-.116a3.136,3.136,0,0,1-.353-.176.43.43,0,0,0-.141-.016l-.2-.011a.489.489,0,0,1-.317-.107.522.522,0,0,0-.291-.107.781.781,0,0,1-.333-.151,1.318,1.318,0,0,0-.778-.725c-.006-.028-.026-.046-.027-.08a.138.138,0,0,0-.227-.112.669.669,0,0,1-.6.058.513.513,0,0,0-.253-.026,4.627,4.627,0,0,1-.511.026.772.772,0,0,1-.544-.09c-.075-.051-.188-.046-.264-.1a.815.815,0,0,0-.574-.114.44.44,0,0,1-.166-.01.569.569,0,0,0-.309.01c-.287.067-.575.125-.862.188-.066.014-.128.035-.195.047a3,3,0,0,1-.5.078,1.8,1.8,0,0,0-.532.083.979.979,0,0,1-.278.045.392.392,0,0,0-.332.13.237.237,0,0,1-.122.064,1.144,1.144,0,0,0-.433.13.273.273,0,0,1-.139.018,1.111,1.111,0,0,0-.2,0,.791.791,0,0,1-.42-.023.611.611,0,0,0-.5.029.6.6,0,0,1-.381.073l-.263-.016a.47.47,0,0,1-.258.222,1.648,1.648,0,0,0-.244.189c-.086.058-.182.1-.269.153-.03.019-.046.06-.071.088-.011.012-.021.026-.032.038a12.15,12.15,0,0,0-2.235.415,7.4,7.4,0,0,1-3.679.054,6.187,6.187,0,0,0-4.937.368,3.714,3.714,0,0,1-2.512.177,2.835,2.835,0,0,0-1.144-.088,2.645,2.645,0,0,1-2.871-.764c-.126-.124-.359-.14-.541-.2-1.282.183-2.473,1.086-3.83.323a2.376,2.376,0,0,1-2.881.766,1.459,1.459,0,0,0-.58-.1,2.3,2.3,0,0,1-.193-.405,1.355,1.355,0,0,0-1.51-1.118,14.022,14.022,0,0,1-1.319.845c-.409.2-.861.3-1.29.464l-.286.106c-.062.015-.123.026-.187.043a4.876,4.876,0,0,1-2.11.288,6.249,6.249,0,0,0-2.1-.132c-1.3-.552-1.823-.436-3.874.072l-.024.006c-.594-.076-1.19-.131-1.777-.239-.221-.041-.445-.1-.67-.152v.005a6.706,6.706,0,0,0-.252.629,6.657,6.657,0,0,1-.956-.162,6.182,6.182,0,0,0-4.932.413,3.717,3.717,0,0,1-2.511.2,2.806,2.806,0,0,0-1.144-.077,2.649,2.649,0,0,1-2.879-.738c-.125-.123-.359-.137-.541-.2-1.282.2-2.464,1.109-3.827.357a2.377,2.377,0,0,1-2.875.793,1.7,1.7,0,0,0-1.164.013,2.916,2.916,0,0,1-2.3-.144,2.727,2.727,0,0,0-1.9.012l-.113.031c.009.2,0,.391,0,.586a3.458,3.458,0,0,0-.616.1l-.091.023,0,.045a5.981,5.981,0,0,0-3.039.232,3.684,3.684,0,0,1-1.449.115c-.65-.04-1.3-.118-1.947-.177-.158-.039-.32-.059-.477-.1a3.658,3.658,0,0,1-1.5-.691,2.257,2.257,0,0,0-2.154-.508c-1.312.239-2.655.3-3.737-.887a1.409,1.409,0,0,0-.578-.346c-.6-.223-1.068.025-1.364.72-.119.279-.22.55-.327.828a4.094,4.094,0,0,1-1-.526,2.009,2.009,0,0,0-.765-.29,1.328,1.328,0,0,0-1.649.848c-.135.321-.246.632-.364.95a4.041,4.041,0,0,0-.543-.145c-.65-.119-1.322-.086-1.969-.214a8.451,8.451,0,0,1-3.021-.8,12.325,12.325,0,0,0-3.656-1.366,4.642,4.642,0,0,0-1.089,1.925c-.247.061-.463.154-.626.083a5.267,5.267,0,0,0-1.148-.166,1.9,1.9,0,0,1-.835-.355,1.131,1.131,0,0,0-.908-.254,3,3,0,0,1-1.479-.2,1.477,1.477,0,0,0-1.311.119,3.021,3.021,0,0,1-.927.3.344.344,0,0,1-.369-.105,1.03,1.03,0,0,0-.991-.306c-.374.018-.747.028-1.122.051a.569.569,0,0,0-.27.075,4.92,4.92,0,0,0-1.46,1.1.963.963,0,0,1-.541.367c-.424.107-.844.249-1.268.358a1.124,1.124,0,0,0-.6.375,1.29,1.29,0,0,1-.373.322l-.1.046a2.293,2.293,0,0,0-1.126.262,4.547,4.547,0,0,1-1.14.384.52.52,0,0,1-.477-.07,1.572,1.572,0,0,0-1.285-.209c-.47.053-.941.1-1.411.158a.877.877,0,0,0-.334.1,6.123,6.123,0,0,0-1.73,1.235,1.241,1.241,0,0,1-.646.418c-.524.147-1.04.328-1.564.477a1.482,1.482,0,0,0-.722.431,1.539,1.539,0,0,1-.438.357c-.381.182-.792.3-.994.733-.05.109-.229.16-.351.233a3.655,3.655,0,0,0-.367.208c-.614.476-1.215.97-1.876,1.385a.633.633,0,0,0-.239.254,1.494,1.494,0,0,1-.615.575,3.318,3.318,0,0,0-.727.56,6.645,6.645,0,0,1-1.238,1.056,1.175,1.175,0,0,0-.372.4,18.123,18.123,0,0,0-1,2.115,1.166,1.166,0,0,1-.854.868.589.589,0,0,0-.3.176,1.691,1.691,0,0,1-.886.675c-.08.017-.137.126-.21.186a4.059,4.059,0,0,0-.528.659,10.974,10.974,0,0,1-1,1.011,2.274,2.274,0,0,0-.716,1.036,4.731,4.731,0,0,0,.011.848c-.012.3-.276.561-.181.891a.173.173,0,0,1,.009.07,5.214,5.214,0,0,1-.251,1.024,6.127,6.127,0,0,0-.261.653,1.954,1.954,0,0,1-.7,1.2.609.609,0,0,0-.221.764.575.575,0,0,1,.01.41c-.32.627-.176,1.371-.522,1.987a1.322,1.322,0,0,1-.029.15,8.314,8.314,0,0,1-.451,1.628,1.332,1.332,0,0,1-.313.63.575.575,0,0,0-.193.516.684.684,0,0,1-.23.668c.13.214.317.385.334.572.049.53.274,1.071-.019,1.6a.524.524,0,0,0,.012.478,5.122,5.122,0,0,1,.343,1.808,1.107,1.107,0,0,0,.473.916c.172.127.342.256.508.39a2.334,2.334,0,0,1,.593.733,2.253,2.253,0,0,1,.256,1.279,3.582,3.582,0,0,0,.266,1.522,13.8,13.8,0,0,0,.753,1.529c.077.149.17.287.247.435a2.149,2.149,0,0,1,.305,2.138.406.406,0,0,0,.015.273c.08.248.187.487.264.734.134.427.481.762.5,1.236a.54.54,0,0,0,.139.243c.17.227.342.452.523.672a1.66,1.66,0,0,0,.3.3,3.4,3.4,0,0,1,.4.379c.119,1.074.332,2.138.552,3.2.039.2.054.392.089.587a2.273,2.273,0,0,1,.256,1.28,3.562,3.562,0,0,0,.266,1.521,13.636,13.636,0,0,0,.753,1.53c.077.148.169.287.246.435a2.146,2.146,0,0,1,.305,2.138.4.4,0,0,0,.016.272c.079.248.187.488.264.735.132.427.481.762.5,1.236a.518.518,0,0,0,.137.242c.172.228.344.453.525.672a1.661,1.661,0,0,0,.3.3c.524.38.876.931,1.354,1.355a.363.363,0,0,1,.107.183,1.321,1.321,0,0,0,.822.923,5.735,5.735,0,0,1,1.014.653,1.922,1.922,0,0,0,.971.384,3.111,3.111,0,0,1,1.755.69,2.308,2.308,0,0,0,.588.388c.516.237,1.042.462,1.573.666a4.435,4.435,0,0,1,1.064.559c.361.267.781.45,1.147.71.53.376,1.156.66,1.414,1.332a.339.339,0,0,0,.162.136,14.839,14.839,0,0,1,2.026,1.667c.26.2.523.385.791.555a1.247,1.247,0,0,0,.878.458,4.594,4.594,0,0,0,1.174.344,1.715,1.715,0,0,1,.267.091c.744.231,1.532.276,2.271.545a4.6,4.6,0,0,0,.839.147,2.34,2.34,0,0,0,.421.063,4.258,4.258,0,0,1,1.608.2.662.662,0,0,0,.281.024l.019,0a3.233,3.233,0,0,0,.373-.709,2.614,2.614,0,0,1,.565-.885c.971.552,1.605.528,3.5.383a7.4,7.4,0,0,1,3.642.525,6.181,6.181,0,0,0,4.933.413,3.721,3.721,0,0,1,2.509.221,2.843,2.843,0,0,0,1.115.267c.033,0,.06,0,.093,0,.028.055.062.094.089.152.07.15.245.219.37.324a7.8,7.8,0,0,0,1.346-.055,3.36,3.36,0,0,1,.817.786c.105.143.334.2.5.287,1.3.022,2.615-.683,3.836.284a4.213,4.213,0,0,1,.665-.415,2.846,2.846,0,0,1,.783.565,1.773,1.773,0,0,0,1.449.446,3.055,3.055,0,0,1,1.668.208,3.52,3.52,0,0,0,2.377.631,2.084,2.084,0,0,1,1.056.254c.822.368,1.641.75,2.436,1.2.074.042.15.1.225.142.053-.3.1-.595.159-.892a2.318,2.318,0,0,1,.946.647c.105.113.289.109.434.158,1-.291,1.9-1.292,3.006-.646a3.555,3.555,0,0,1,.59-.693c.738.208,1.479.405,2.2.661.1.035.2.082.3.12.037-.3.071-.6.108-.9a3.19,3.19,0,0,1,1.263.553,1.48,1.48,0,0,0,.564.116c1.24-.385,2.271-1.468,3.732-.931a4.128,4.128,0,0,1,.528-.633,3.183,3.183,0,0,0,1.271-.4,2.123,2.123,0,0,1,1.076-.18c.878.02,1.759.055,2.63.162a3.149,3.149,0,0,1,1.477.454,2,2,0,0,0,2.072.174c1.207-.435,2.459-.7,3.592.308a1.25,1.25,0,0,0,.575.254c.585.129,1-.189,1.209-.92.16-.556.294-1.124.429-1.644.36-.29.681-.515.974-.792a1.623,1.623,0,0,1,.225-.164,2.2,2.2,0,0,0,1.537.3,3.386,3.386,0,0,1,3.448,1.224,1.4,1.4,0,0,0,.52.4c.549.277,1,.071,1.325-.6.142-.3.266-.586.4-.882.04.018.084.022.124.041a10.673,10.673,0,0,0,3.563.794,3.483,3.483,0,0,0,.5-.97c.067.01.135.024.2.031a1.493,1.493,0,0,0,.615-.07,7.656,7.656,0,0,1,.9.2,7.8,7.8,0,0,1,2.782,1.069,11.529,11.529,0,0,0,3.342,1.695,4.092,4.092,0,0,0,1.028-1.544c.143,0,.286-.008.428,0a4.274,4.274,0,0,1,1.055.127,1.088,1.088,0,0,0,.659.05,4.088,4.088,0,0,1,2.431.091.912.912,0,0,0,.812-.1,2.3,2.3,0,0,1,1.039-.293,2.15,2.15,0,0,0,.874-.243,5.666,5.666,0,0,1,1.53-.458l5.722-3.427c.034.022.072.027.106.053a1.407,1.407,0,0,0,.559.263,5.608,5.608,0,0,0,.675.1c.066.009.134.01.2.018.3.039.607.075.771.391a.161.161,0,0,0,.093.057c.1.031.2.051.3.083.17.054.361.017.522.118a.2.2,0,0,0,.111.01c.114,0,.228-.009.341-.017a.672.672,0,0,0,.167-.029c.245-.084.506-.073.756-.133a.138.138,0,0,1,.083.007.531.531,0,0,0,.493-.058,2.247,2.247,0,0,1,.447-.183.772.772,0,0,0,.349-.23,1.241,1.241,0,0,1,.63-.418.883.883,0,0,0,.261-.105c.2-.114.392-.235.581-.362a1.722,1.722,0,0,1,.428-.222c.169-.057.326-.152.5-.213a1.286,1.286,0,0,1,.762-.159.131.131,0,0,0,.081-.022A6.014,6.014,0,0,1,455.9,98.5c.069-.021.128-.054.195-.078a8.08,8.08,0,0,1,1.188.106,1.413,1.413,0,0,0,1.014-.182,3.408,3.408,0,0,1,1.281-.392,3.209,3.209,0,0,0,1.08-.326,8.523,8.523,0,0,1,1.886-.6q4.33-2.5,8.662-4.991a1.35,1.35,0,0,1,.659-.714,4.475,4.475,0,0,1,1.218-.58.8.8,0,0,0,.3-.184c.187-.142.379-.283.551-.443a3.71,3.71,0,0,0,.639-.664,2.72,2.72,0,0,1,1.031-.956,1.664,1.664,0,0,0,.768-.822c-.073-.155-.145-.3-.213-.453a2.033,2.033,0,0,1,.757-2.616,1.276,1.276,0,0,0,.486-.4,1.243,1.243,0,0,1,.778-.578.591.591,0,0,0,.436-.326.671.671,0,0,1,.189-.237c.012-.01.017-.03.029-.037a1.443,1.443,0,0,0,.469-.5l.007,0,.006-.009c.035-.056.076-.112.108-.172a1.345,1.345,0,0,1,.545-.533,4.473,4.473,0,0,1,1.218-.579.821.821,0,0,0,.3-.184c.187-.143.38-.283.552-.444a3.767,3.767,0,0,0,.638-.663,2.726,2.726,0,0,1,1.032-.957,1.669,1.669,0,0,0,.768-.822c-.074-.155-.145-.3-.214-.453a2.034,2.034,0,0,1,.757-2.616,1.267,1.267,0,0,0,.486-.4,1.241,1.241,0,0,1,.778-.577.6.6,0,0,0,.436-.326.641.641,0,0,1,.218-.275,1.276,1.276,0,0,0,.3-.325C487.2,72.534,487.179,71.887,487.113,71.238Z"/><path class="cls-1" d="M467.684,26.641a.737.737,0,0,0-.232.569.806.806,0,0,1,.232-.565Z"/><path class="cls-1" d="M303.908,255.782c.1.964.04,1.945.069,2.918a57.022,57.022,0,0,0,.224,5.811,47.092,47.092,0,0,1,.49,7.225,1.657,1.657,0,0,1,.061.777c-.037.2-.075.406-.1.612,0,.03-.009.06-.011.089a3.443,3.443,0,0,0-.026.64,1.366,1.366,0,0,1-.16.86,1.1,1.1,0,0,1-.3.322.344.344,0,0,0,.081.627c.039.017.054.049.09.067a1.675,1.675,0,0,1,.865,1.1,1.284,1.284,0,0,0,.3.561,11.272,11.272,0,0,1,.764,1.026,1.916,1.916,0,0,1,.568,1.252c0,.227.165.454.166.682a2.039,2.039,0,0,0,.561,1.348,1.071,1.071,0,0,1,.209.36,1.456,1.456,0,0,0,.451.627c.535.5,1.058,1.018,1.586,1.528.119.114.251.217.366.337a7.3,7.3,0,0,1,.861.937,4.56,4.56,0,0,0,.909.99,2.337,2.337,0,0,1,.481.513.988.988,0,0,0,.731.509.573.573,0,0,1,.3.165,2.874,2.874,0,0,0,.871.716c.1.041.161.169.231.265a2.726,2.726,0,0,0,.28.411,1.974,1.974,0,0,1,.536.9,1.512,1.512,0,0,0,.757,1,1.469,1.469,0,0,1,.678.691c.106.184.214.365.332.565a1.015,1.015,0,0,1,.568.106,1.536,1.536,0,0,0,.849.494,6.272,6.272,0,0,1,2.423,1.254c.465.323.92.662,1.378,1,0,.03-.013.063.007.1a.257.257,0,0,1,.044.132,1.085,1.085,0,0,0,.236.573c.167.04.337.079.4.27a.068.068,0,0,0,.041.037l0,0a.533.533,0,0,1,.294.29.33.33,0,0,0,.1.105c.176.125.356.244.55.376.008.023.009.085.04.11.159.128.292.3.526.305a.257.257,0,0,1,.218.115.944.944,0,0,0,.648.378.775.775,0,0,1,.436.247.971.971,0,0,0,.542.28.777.777,0,0,1,.393.156c.1.086.23.077.347.113a3.042,3.042,0,0,1,.354.173.44.44,0,0,0,.142.015l.2.01a.486.486,0,0,1,.318.1.529.529,0,0,0,.291.1.792.792,0,0,1,.334.148,1.321,1.321,0,0,0,.784.72c.007.028.026.046.027.08a.138.138,0,0,0,.228.11.67.67,0,0,1,.6-.063.5.5,0,0,0,.253.025,4.637,4.637,0,0,1,.511-.03.771.771,0,0,1,.544.086c.076.05.189.044.265.094a.821.821,0,0,0,.575.11.42.42,0,0,1,.166.009.569.569,0,0,0,.309-.013c.286-.069.574-.129.861-.194.065-.015.128-.036.194-.048a2.914,2.914,0,0,1,.5-.082,1.763,1.763,0,0,0,.531-.087.982.982,0,0,1,.278-.047.391.391,0,0,0,.33-.132.234.234,0,0,1,.123-.065,1.159,1.159,0,0,0,.431-.134.284.284,0,0,1,.139-.019,1.109,1.109,0,0,0,.2,0,.8.8,0,0,1,.42.019.6.6,0,0,0,.5-.033.6.6,0,0,1,.381-.075l.262.014a.467.467,0,0,1,.257-.223,1.8,1.8,0,0,0,.243-.191c.085-.059.181-.1.268-.155.029-.02.045-.061.07-.089.011-.012.021-.026.032-.038a12.128,12.128,0,0,0,2.231-.432,7.4,7.4,0,0,1,3.679-.08,6.186,6.186,0,0,0,4.934-.406,3.724,3.724,0,0,1,2.511-.195,2.825,2.825,0,0,0,1.144.079,2.648,2.648,0,0,1,2.877.743c.126.124.36.137.542.2,1.281-.193,2.465-1.105,3.828-.352a2.375,2.375,0,0,1,2.875-.787,1.467,1.467,0,0,0,.581.1,2.271,2.271,0,0,1,.2.405,1.355,1.355,0,0,0,1.518,1.106,14.12,14.12,0,0,1,1.312-.855c.408-.2.86-.311,1.287-.473l.285-.108c.062-.016.123-.028.187-.045a4.863,4.863,0,0,1,2.108-.3,6.243,6.243,0,0,0,2.1.116c1.3.543,1.826.423,3.874-.1l.023,0c.594.071,1.192.122,1.779.225.221.039.445.094.671.147v0a6.761,6.761,0,0,0,.247-.63,6.629,6.629,0,0,1,.957.154,6.183,6.183,0,0,0,4.93-.449,3.715,3.715,0,0,1,2.508-.218,2.821,2.821,0,0,0,1.145.069,2.647,2.647,0,0,1,2.884.717c.127.122.361.134.543.195,1.281-.2,2.456-1.127,3.825-.385a2.376,2.376,0,0,1,2.868-.814,1.689,1.689,0,0,0,1.164-.021,2.921,2.921,0,0,1,2.3.126,2.718,2.718,0,0,0,1.9-.026l.113-.031c-.01-.2-.006-.391-.005-.587a3.293,3.293,0,0,0,.615-.1l.091-.023,0-.046a5.968,5.968,0,0,0,3.037-.254,3.655,3.655,0,0,1,1.447-.125c.651.035,1.3.108,1.949.162.159.038.32.057.478.1a3.643,3.643,0,0,1,1.508.679,2.26,2.26,0,0,0,2.158.493c1.31-.249,2.652-.324,3.743.859a1.414,1.414,0,0,0,.58.342c.6.218,1.069-.033,1.359-.73.117-.28.216-.552.321-.831a4.07,4.07,0,0,1,1,.519,2.017,2.017,0,0,0,.767.284,1.329,1.329,0,0,0,1.643-.86c.132-.322.241-.634.357-.953a3.853,3.853,0,0,0,.544.141c.65.114,1.323.077,1.97.2a8.451,8.451,0,0,1,3.027.775,12.3,12.3,0,0,0,3.666,1.339,4.652,4.652,0,0,0,1.075-1.933c.246-.062.462-.157.625-.088a5.262,5.262,0,0,0,1.149.158,1.909,1.909,0,0,1,.838.349,1.137,1.137,0,0,0,.91.248,2.991,2.991,0,0,1,1.481.189,1.474,1.474,0,0,0,1.309-.129,3.015,3.015,0,0,1,.925-.3.344.344,0,0,1,.37.1,1.027,1.027,0,0,0,.993.3c.374-.02.747-.033,1.122-.058a.58.58,0,0,0,.269-.078,4.9,4.9,0,0,0,1.452-1.111.972.972,0,0,1,.538-.37c.424-.11.842-.256,1.265-.367a1.124,1.124,0,0,0,.6-.38,1.3,1.3,0,0,1,.372-.325c.032-.017.066-.031.1-.046a2.3,2.3,0,0,0,1.124-.271,4.494,4.494,0,0,1,1.137-.392.518.518,0,0,1,.478.066,1.565,1.565,0,0,0,1.286.2c.47-.056.94-.106,1.41-.168a.869.869,0,0,0,.333-.1,6.1,6.1,0,0,0,1.721-1.248,1.246,1.246,0,0,1,.643-.422c.523-.151,1.038-.337,1.56-.489a1.479,1.479,0,0,0,.719-.437,1.562,1.562,0,0,1,.436-.36c.379-.184.789-.3.988-.74.05-.109.228-.162.349-.236a3.662,3.662,0,0,0,.366-.211c.611-.48,1.208-.978,1.865-1.4a.626.626,0,0,0,.238-.255,1.485,1.485,0,0,1,.61-.579,3.293,3.293,0,0,0,.723-.566,6.62,6.62,0,0,1,1.231-1.065,1.185,1.185,0,0,0,.369-.4,18.114,18.114,0,0,0,.982-2.122,1.165,1.165,0,0,1,.847-.874.587.587,0,0,0,.3-.179,1.7,1.7,0,0,1,.881-.681c.08-.018.136-.127.208-.188a4.056,4.056,0,0,0,.524-.662,10.834,10.834,0,0,1,.993-1.018,2.269,2.269,0,0,0,.708-1.042,4.745,4.745,0,0,0-.017-.848c.01-.3.272-.563.174-.892a.22.22,0,0,1-.009-.071,5.231,5.231,0,0,1,.244-1.025,6.128,6.128,0,0,0,.256-.655,1.954,1.954,0,0,1,.692-1.2.609.609,0,0,0,.215-.766.568.568,0,0,1-.012-.409c.315-.63.165-1.373.507-1.991a1.1,1.1,0,0,1,.028-.15,8.318,8.318,0,0,1,.438-1.632,1.335,1.335,0,0,1,.308-.632.575.575,0,0,0,.19-.518.685.685,0,0,1,.225-.67c-.132-.212-.32-.382-.339-.568-.052-.53-.281-1.07.008-1.6a.525.525,0,0,0-.016-.478,5.134,5.134,0,0,1-.356-1.806,1.1,1.1,0,0,0-.48-.911c-.172-.127-.344-.254-.511-.387a2.338,2.338,0,0,1-.6-.728,2.259,2.259,0,0,1-.266-1.278,3.554,3.554,0,0,0-.277-1.519,13.725,13.725,0,0,0-.764-1.524c-.078-.148-.172-.286-.25-.433a2.149,2.149,0,0,1-.321-2.136.407.407,0,0,0-.017-.273c-.082-.247-.19-.485-.27-.732-.136-.425-.486-.758-.513-1.232,0-.083-.083-.167-.14-.242-.172-.226-.346-.449-.528-.668a1.633,1.633,0,0,0-.3-.3,3.39,3.39,0,0,1-.4-.376c-.127-1.073-.348-2.135-.575-3.2-.041-.195-.058-.391-.094-.586a2.279,2.279,0,0,1-.266-1.279,3.559,3.559,0,0,0-.277-1.519,13.47,13.47,0,0,0-.764-1.524c-.078-.147-.171-.285-.249-.432a2.147,2.147,0,0,1-.321-2.136.407.407,0,0,0-.018-.273c-.081-.247-.19-.485-.27-.733-.135-.425-.486-.758-.513-1.231a.523.523,0,0,0-.139-.242c-.173-.226-.347-.45-.529-.668a1.654,1.654,0,0,0-.3-.3,19.04,19.04,0,0,1-1.364-1.346.354.354,0,0,1-.109-.181,1.323,1.323,0,0,0-.829-.918,5.716,5.716,0,0,1-1.019-.645,1.915,1.915,0,0,0-.973-.377,3.111,3.111,0,0,1-1.76-.677,2.306,2.306,0,0,0-.591-.383c-.518-.234-1.045-.454-1.578-.655A4.416,4.416,0,0,1,457,229.6c-.363-.265-.784-.444-1.153-.7-.532-.373-1.16-.652-1.423-1.323a.343.343,0,0,0-.163-.134,14.892,14.892,0,0,1-2.039-1.652c-.261-.2-.526-.381-.794-.549a1.248,1.248,0,0,0-.882-.452,4.6,4.6,0,0,0-1.177-.335,1.742,1.742,0,0,1-.267-.089c-.746-.225-1.534-.265-2.275-.528a4.62,4.62,0,0,0-.84-.141,2.424,2.424,0,0,0-.422-.06,4.24,4.24,0,0,1-1.609-.186.678.678,0,0,0-.281-.022l-.019,0a3.2,3.2,0,0,0-.368.713,2.617,2.617,0,0,1-.558.888c-.976-.544-1.609-.516-3.508-.357a7.4,7.4,0,0,1-3.645-.5,6.189,6.189,0,0,0-4.937-.377,3.714,3.714,0,0,1-2.51-.2,2.839,2.839,0,0,0-1.117-.258c-.033.005-.06,0-.093,0-.028-.054-.063-.094-.091-.152-.071-.149-.246-.217-.372-.321a7.8,7.8,0,0,0-1.345.065,3.333,3.333,0,0,1-.823-.78c-.106-.142-.335-.192-.5-.283-1.3-.012-2.608.7-3.837-.256a4.235,4.235,0,0,1-.662.42,2.818,2.818,0,0,1-.787-.559,1.776,1.776,0,0,0-1.453-.435,3.059,3.059,0,0,1-1.669-.2,3.524,3.524,0,0,0-2.382-.613,2.089,2.089,0,0,1-1.058-.247c-.824-.361-1.646-.737-2.444-1.18-.074-.042-.15-.1-.226-.141-.051.3-.1.6-.153.894a2.324,2.324,0,0,1-.95-.64c-.106-.113-.29-.107-.435-.155-1,.3-1.893,1.305-3,.668a3.537,3.537,0,0,1-.584.7c-.74-.2-1.483-.394-2.207-.644-.1-.035-.2-.081-.3-.118-.035.3-.067.6-.1.9a3.156,3.156,0,0,1-1.266-.544,1.49,1.49,0,0,0-.566-.111c-1.236.394-2.259,1.484-3.724.959a4.19,4.19,0,0,1-.524.637,3.184,3.184,0,0,0-1.268.407,2.127,2.127,0,0,1-1.074.188,26.24,26.24,0,0,1-2.631-.143,3.144,3.144,0,0,1-1.481-.443,2,2,0,0,0-2.073-.159c-1.2.445-2.454.724-3.594-.281a1.249,1.249,0,0,0-.577-.25c-.586-.124-1,.2-1.2.929-.155.558-.285,1.126-.416,1.647-.358.293-.677.52-.968.8a1.657,1.657,0,0,1-.224.166,2.2,2.2,0,0,0-1.539-.29,3.386,3.386,0,0,1-3.457-1.2,1.41,1.41,0,0,0-.523-.394c-.551-.272-1-.063-1.32.606-.141.3-.262.589-.39.885-.04-.017-.084-.021-.124-.04a10.675,10.675,0,0,0-3.569-.767,3.491,3.491,0,0,0-.494.973c-.067-.009-.135-.023-.2-.029a1.5,1.5,0,0,0-.614.074,7.424,7.424,0,0,1-.9-.2,7.806,7.806,0,0,1-2.79-1.049,11.559,11.559,0,0,0-3.354-1.67,4.086,4.086,0,0,0-1.017,1.552c-.143,0-.286.01-.428,0a4.23,4.23,0,0,1-1.056-.119,1.086,1.086,0,0,0-.659-.045,4.083,4.083,0,0,1-2.432-.074.917.917,0,0,0-.811.111,2.279,2.279,0,0,1-1.037.3,2.146,2.146,0,0,0-.872.25,5.7,5.7,0,0,1-1.527.469q-2.847,1.734-5.7,3.469a1.153,1.153,0,0,1-.106-.052,1.4,1.4,0,0,0-.562-.258,5.6,5.6,0,0,0-.675-.1c-.067-.008-.134-.009-.2-.017-.3-.036-.608-.07-.774-.385a.161.161,0,0,0-.094-.057c-.1-.03-.2-.049-.3-.08-.17-.053-.36-.014-.522-.114a.214.214,0,0,0-.111-.009c-.114,0-.228.01-.341.02a.672.672,0,0,0-.167.029c-.244.086-.506.077-.755.139a.147.147,0,0,1-.083-.006.532.532,0,0,0-.493.061,2.221,2.221,0,0,1-.445.187.765.765,0,0,0-.347.232,1.242,1.242,0,0,1-.627.423.925.925,0,0,0-.261.106c-.2.117-.39.239-.578.367a1.719,1.719,0,0,1-.426.225c-.169.058-.325.155-.494.217a1.294,1.294,0,0,1-.761.164.132.132,0,0,0-.081.023,5.922,5.922,0,0,1-1.011.289c-.069.022-.128.056-.195.08a8.076,8.076,0,0,1-1.188-.1,1.416,1.416,0,0,0-1.013.189,3.414,3.414,0,0,1-1.278.4,3.217,3.217,0,0,0-1.078.334,8.576,8.576,0,0,1-1.881.616l-8.625,5.054a1.338,1.338,0,0,1-.653.719,4.447,4.447,0,0,1-1.214.589.8.8,0,0,0-.3.186c-.186.144-.377.286-.548.448a3.7,3.7,0,0,0-.634.668,2.727,2.727,0,0,1-1.023.964,1.663,1.663,0,0,0-.763.828c.075.154.148.3.217.451a2.035,2.035,0,0,1-.737,2.622,1.278,1.278,0,0,0-.484.4,1.24,1.24,0,0,1-.774.584.592.592,0,0,0-.433.329.684.684,0,0,1-.188.239c-.012.01-.016.029-.028.037a1.469,1.469,0,0,0-.466.507l-.006,0-.006.009c-.035.057-.075.113-.107.173a1.342,1.342,0,0,1-.541.536,4.476,4.476,0,0,1-1.214.589.82.82,0,0,0-.3.186c-.187.144-.378.286-.55.448a3.8,3.8,0,0,0-.632.668,2.725,2.725,0,0,1-1.025.964,1.67,1.67,0,0,0-.762.828c.075.154.147.3.217.451a2.035,2.035,0,0,1-.737,2.622,1.276,1.276,0,0,0-.484.4,1.244,1.244,0,0,1-.773.584.6.6,0,0,0-.434.329.633.633,0,0,1-.216.276,1.288,1.288,0,0,0-.3.327C303.812,254.487,303.837,255.134,303.908,255.782Z"/><path class="cls-1" d="M323.666,300.234a.735.735,0,0,0,.228-.57.806.806,0,0,1-.228.566Z"/><path class="cls-2" d="M657.649,117.215a14.167,14.167,0,0,1-.092-3.683c0-.512.179-1.024.181-1.537,0-1.106-.189-2.224.46-3.244a1.074,1.074,0,0,0,.068-.651c-.139-1.1-.279-2.2-.46-3.3-.174-1.041-.361-2.08-.548-3.12a.531.531,0,0,0-.034-.97c-.056-.032-.075-.085-.127-.119-.015-.01-.021-.026-.035-.036a2.6,2.6,0,0,1-1.118-1.806,1.983,1.983,0,0,0-.365-.916,17.066,17.066,0,0,1-1.007-1.712A2.971,2.971,0,0,1,653.9,94.1c.041-.351-.179-.729-.143-1.082a3.17,3.17,0,0,0-.64-2.176,1.647,1.647,0,0,1-.263-.59,2.247,2.247,0,0,0-.592-1.043c-.085-.1-.165-.2-.25-.3-.654-.77-1.3-1.551-1.945-2.327-.165-.2-.35-.378-.508-.582a11.305,11.305,0,0,1-1.173-1.59,7.061,7.061,0,0,0-1.24-1.681,3.646,3.646,0,0,1-.656-.874,1.537,1.537,0,0,0-1.045-.908.9.9,0,0,1-.438-.3,4.469,4.469,0,0,0-1.226-1.252c-.141-.079-.22-.288-.313-.448a4.14,4.14,0,0,0-.363-.681,3.075,3.075,0,0,1-.677-1.484,2.35,2.35,0,0,0-1-1.669,2.278,2.278,0,0,1-.933-1.18c-.134-.3-.269-.6-.418-.929a1.564,1.564,0,0,1-.859-.258,2.386,2.386,0,0,0-1.231-.905,9.733,9.733,0,0,1-3.531-2.342c-.666-.575-1.309-1.176-1.963-1.766,0-.048.032-.095.006-.148a.388.388,0,0,1-.045-.212,1.7,1.7,0,0,0-.27-.925c-.251-.089-.506-.178-.575-.484a.105.105,0,0,0-.058-.063l0,0a.827.827,0,0,1-.4-.5.551.551,0,0,0-.129-.18c-.252-.221-.511-.435-.788-.671-.008-.037,0-.133-.044-.178-.222-.224-.4-.517-.76-.559a.4.4,0,0,1-.318-.212,1.469,1.469,0,0,0-.937-.693,1.071,1.071,0,0,1-.529-.35,1.26,1.26,0,0,0-.4.783,1.144,1.144,0,0,1,.4-.787c-.033-.036-.071-.065-.1-.1a1.511,1.511,0,0,0-.789-.523,1.193,1.193,0,0,1-.581-.306c-.138-.15-.343-.158-.518-.232a5.209,5.209,0,0,1-.518-.327.687.687,0,0,0-.216-.046c-.1-.018-.205-.034-.307-.05a.755.755,0,0,1-.474-.214.813.813,0,0,0-.432-.211,1.215,1.215,0,0,1-.492-.284,2.047,2.047,0,0,0-1.089-1.242c0-.039-.022-.07-.025-.109,0-.282-.011-.564-.023-.845-1.51-.068-3.019-.162-4.529-.185a.68.68,0,0,1-.25-.041.9.9,0,0,0-.48-.033l-.255.03c-1.683-.083-3.362-.536-5.058-.026a2.031,2.031,0,0,1-1.1-.034,10.99,10.99,0,0,0-4.188-.053,80.163,80.163,0,0,1-11.76.344,9.856,9.856,0,0,0-3.537.069,5.131,5.131,0,0,1-1.542-.047A25.613,25.613,0,0,0,585.607,58c-2.371.275-4.74-.01-7.105.131a1.29,1.29,0,0,1-.649-.127,3.555,3.555,0,0,0-2.8-.151,8.015,8.015,0,0,1-1.763.145c-.665.04-1.33.06-2,.107-.637.046-1.274.092-1.91.144-.765.062-1.529.13-2.294.172-2.8.155-5.59-.3-8.4-.144a93.785,93.785,0,0,1-9.99-.06,6.361,6.361,0,0,0-1.534.206,30.7,30.7,0,0,1-4.632.47q-.859-.026-1.72-.086c-.784-.056-1.566-.12-2.351-.164a5.072,5.072,0,0,0-1.735.007,5.484,5.484,0,0,1-3.074,0c-2.1-.528-4.264.233-6.371-.373-.44-.127-1,.23-1.515.279a14.452,14.452,0,0,1-2.649.124c-1.462-.133-2.911-.425-4.369-.612a3.527,3.527,0,0,0-1.1.1c-2.03.407-4.132,0-6.148.542a.538.538,0,0,1-.222-.006,29.493,29.493,0,0,0-4.652-.043c-.957-.027-1.914-.1-2.87-.16a15.784,15.784,0,0,0-2.217-.126c-1.77.145-3.565-.1-5.314.375a3.738,3.738,0,0,1-1.105-.02c-1.523-.079-3.046-.189-4.571-.235-.254-.008-.509-.028-.764-.031-1.832-.02-3.65-.642-5.5-.106-.016,0-.033,0-.049,0a25.513,25.513,0,0,0,.4,4.907.533.533,0,0,1-.007.221c-.025.133-.025.265-.042.4.1.011.2.016.3.027.8.094,1.578.348,2.374.476a5.251,5.251,0,0,0,1.509.073c.507-.068,1.012-.153,1.517-.234.954-.156,1.907-.316,2.864-.444a5.421,5.421,0,0,1,1.771.025c.389.08.715.446,1.076.673a2.439,2.439,0,0,0,.383.159c.333-.377.669-.757,1.055-1.2,1.433.391,2.91.273,4.357.64a7.473,7.473,0,0,0,3.5.186,14.2,14.2,0,0,1,3.681-.093c.513,0,1.025.179,1.538.182,1.1,0,2.224-.189,3.245.46a1.069,1.069,0,0,0,.65.068c1.1-.139,2.2-.28,3.3-.461,1.674-.278,3.341-.6,5.014-.878a2.271,2.271,0,0,1,.876.045c3.133.743,6.343-.133,9.482.45.137.026.292-.06.44-.066.438-.017.878-.043,1.317-.052a6.094,6.094,0,0,1,.676.007,18.917,18.917,0,0,0,3.753-.077,7.514,7.514,0,0,1,3.305-.069,1.2,1.2,0,0,0,.847-.1,2.7,2.7,0,0,1,1.451-.254,3.149,3.149,0,0,0,2.047,1.142,5.633,5.633,0,0,0,3.678-.5,3.035,3.035,0,0,1,.566-.29,4.364,4.364,0,0,1,.614.124,9.2,9.2,0,0,0,5.46.212A4.125,4.125,0,0,1,558.971,64a20.059,20.059,0,0,0,5.666-.253l.062-.091a1.71,1.71,0,0,1,.523.364,1.245,1.245,0,0,0,1.047.082,9.969,9.969,0,0,1,3.938-.535,2.005,2.005,0,0,0,.859-.171,6.192,6.192,0,0,1,3.913-.176,2.746,2.746,0,0,0,1.083.182,11.943,11.943,0,0,1,4.894.2c.779.172,1.555.372,2.325.61a4.169,4.169,0,0,0,2.824-.005c.484-.185,1-.289,1.5-.437a15.291,15.291,0,0,1,7.671-.6,9.581,9.581,0,0,0,1.764.04c2.059.047,4.132.015,6.02,1.062a10.292,10.292,0,0,0,1.068.445A8.519,8.519,0,0,0,604.98,64c.295-.317.535-.683.795-1.025a16,16,0,0,1,1.62-.049c1.7.118,3.4.243,5.1.424.8.086,1.582.333,2.379.453a5.255,5.255,0,0,0,1.511.058c1.112-.158,2.22-.362,3.33-.548a.984.984,0,0,0,.344.2.827.827,0,0,1,.432.211.755.755,0,0,0,.474.214l.307.051a.675.675,0,0,1,.216.045,5.41,5.41,0,0,0,.518.328c.175.073.38.082.518.231a1.193,1.193,0,0,0,.581.306,1.513,1.513,0,0,1,.789.524,1.212,1.212,0,0,0,.633.455,1.462,1.462,0,0,1,.937.692.4.4,0,0,0,.318.213c.361.042.538.335.761.559.045.044.036.14.043.177.277.236.536.451.788.672a.536.536,0,0,1,.129.179.825.825,0,0,0,.406.5l0,0a.107.107,0,0,1,.057.063c.069.307.324.395.575.485a1.693,1.693,0,0,1,.27.925.411.411,0,0,0,.045.212c.027.052,0,.1-.006.147.654.59,1.3,1.191,1.963,1.767a9.745,9.745,0,0,0,3.533,2.342,2.4,2.4,0,0,1,1.23.9,1.559,1.559,0,0,0,.858.259c.149.328.284.627.418.928a2.279,2.279,0,0,0,.933,1.18,2.348,2.348,0,0,1,1,1.669,3.092,3.092,0,0,0,.677,1.485,4.138,4.138,0,0,1,.364.681c.092.16.171.369.312.448a4.469,4.469,0,0,1,1.226,1.252.891.891,0,0,0,.439.3,1.535,1.535,0,0,1,1.044.909,3.663,3.663,0,0,0,.657.874,7.072,7.072,0,0,1,1.239,1.68,11.305,11.305,0,0,0,1.173,1.59c.158.2.343.386.508.583.732.875,1.453,1.761,2.2,2.625a2.257,2.257,0,0,1,.592,1.043,1.634,1.634,0,0,0,.263.591,3.167,3.167,0,0,1,.641,2.175c-.037.353.183.732.142,1.082a2.973,2.973,0,0,0,.669,2.029c.339.52.562,1.111.947,1.617-.142,1.014-.308,2.026-.438,3.042a3.548,3.548,0,0,0,.1,1.1c.407,2.03,0,4.133.543,6.149a.543.543,0,0,1-.007.223,29.479,29.479,0,0,0-.043,4.651c-.024.866-.09,1.732-.145,2.6,1.936.181,3.886.394,5.848.671A5.671,5.671,0,0,0,657.649,117.215Z"/><path class="cls-2" d="M657.385,146.206a2.035,2.035,0,0,0,.034,1.1,10.985,10.985,0,0,1,.053,4.187,80.328,80.328,0,0,0-.344,11.761,9.851,9.851,0,0,1-.069,3.536,5.1,5.1,0,0,0,.047,1.543,25.6,25.6,0,0,1,.082,3.761c-.275,2.372.01,4.741-.131,7.106a1.29,1.29,0,0,0,.127.649,3.555,3.555,0,0,1,.151,2.8,8.01,8.01,0,0,0-.146,1.763c-.04.665-.059,1.331-.106,2-.046.636-.092,1.274-.144,1.91-.062.764-.13,1.528-.172,2.294-.155,2.8.3,5.59.144,8.4a93.541,93.541,0,0,0,.06,9.991,6.264,6.264,0,0,1-.207,1.534,30.825,30.825,0,0,0-.469,4.632q.026.86.086,1.72c.056.784.119,1.567.163,2.351a5.053,5.053,0,0,1-.006,1.736,5.481,5.481,0,0,0,0,3.073c.528,2.1-.233,4.265.372,6.37.128.441-.229,1-.278,1.516a14.358,14.358,0,0,0-.124,2.648c.133,1.463.426,2.911.612,4.37a3.518,3.518,0,0,1-.105,1.1c-.407,2.031,0,4.133-.543,6.15a.517.517,0,0,0,.007.221,29.492,29.492,0,0,1,.042,4.652c.028.957.1,1.914.161,2.871a15.761,15.761,0,0,1,.126,2.216c-.146,1.769.1,3.564-.375,5.314a3.665,3.665,0,0,0,.02,1.1c.079,1.524.188,3.047.235,4.572-.623-.087-1.244-.183-1.869-.262a1.07,1.07,0,0,0-.65.069,5.551,5.551,0,0,1-3.215.46c.155-.954.316-1.907.444-2.864a5.4,5.4,0,0,0-.026-1.772c-.079-.388-.445-.714-.672-1.075a2.439,2.439,0,0,1-.159-.383c.376-.333.757-.668,1.2-1.055-.392-1.434-.273-2.91-.64-4.357a7.47,7.47,0,0,1-.186-3.5,14.212,14.212,0,0,0,.093-3.683c0-.512-.18-1.024-.182-1.537,0-1.106.189-2.224-.46-3.245a1.07,1.07,0,0,1-.068-.65c.139-1.1.279-2.2.461-3.3.278-1.675.6-3.341.878-5.014a2.292,2.292,0,0,0-.046-.876c-.742-3.134.134-6.343-.449-9.483-.026-.137.06-.291.066-.438.016-.439.043-.879.052-1.318a5.859,5.859,0,0,0-.008-.676,18.982,18.982,0,0,1,.078-3.752,7.538,7.538,0,0,0,.069-3.307,1.186,1.186,0,0,1,.1-.846,2.7,2.7,0,0,0,.254-1.452,3.146,3.146,0,0,1-1.143-2.046,5.64,5.64,0,0,1,.5-3.678,3.129,3.129,0,0,0,.29-.566,4.45,4.45,0,0,0-.124-.614,9.2,9.2,0,0,1-.213-5.461,4.087,4.087,0,0,0,.125-1.741,20.059,20.059,0,0,1,.254-5.666l.091-.062a1.727,1.727,0,0,0-.364-.523,1.248,1.248,0,0,1-.083-1.047,9.967,9.967,0,0,0,.536-3.938,1.984,1.984,0,0,1,.17-.859,6.185,6.185,0,0,0,.177-3.913,2.746,2.746,0,0,1-.182-1.083,11.943,11.943,0,0,0-.2-4.894c-.172-.78-.372-1.555-.61-2.326a4.166,4.166,0,0,1,0-2.823c.184-.484.289-1,.436-1.5a15.28,15.28,0,0,0,.6-7.671,9.67,9.67,0,0,1-.039-1.764c-.048-2.06-.015-4.133-1.062-6.02a10.379,10.379,0,0,1-.446-1.068,8.771,8.771,0,0,1,.719-.855c.317-.295.684-.535,1.026-.8a15.968,15.968,0,0,0,.049-1.619c-.118-1.7-.243-3.4-.425-5.1-.085-.8-.332-1.581-.453-2.379a5.286,5.286,0,0,1-.058-1.51c.209-1.462.51-2.912.72-4.374a5.531,5.531,0,0,0,0-1.63c.115-.016.23-.015.345-.036a.522.522,0,0,1,.222-.007,20.691,20.691,0,0,0,4.514.36c.076,1.69.2,3.379.2,5.069C657.334,142.537,657.939,144.361,657.385,146.206Z"/><path class="cls-1" d="M702.647,170.1a7.59,7.59,0,0,0-.245-4.775,3.818,3.818,0,0,1-.283-2.606,2.583,2.583,0,0,0,0-1.335,3.368,3.368,0,0,1,.813-3.347,1.826,1.826,0,0,0,.548-1.259c-.208-2.132-.476-4.261-.83-6.374a1.812,1.812,0,0,0-.915-1.343c-1.694-.589-1.311-1.759-1.047-2.731a50.4,50.4,0,0,1,1.989-5.5,6.44,6.44,0,0,1,1.063-1.4c1.328-1.641,2.63-3.283,1.492-5.277.33-1.467-.438-2.8-.54-4.191a28.114,28.114,0,0,1,.4-5.094c.16-1.433.33-2.871.617-4.3a3.474,3.474,0,0,0-.283-2.605c-.684-1.176-.063-2.473-.113-3.706a13.562,13.562,0,0,0-.639-2.589l-.015,0a15.627,15.627,0,0,1-1.9-.852,19.824,19.824,0,0,1-7.388.83,4.475,4.475,0,0,0-1.662.067,23.589,23.589,0,0,1-5.621.615,29.122,29.122,0,0,0-4.983.221,11.167,11.167,0,0,1-4.88-.091,4.611,4.611,0,0,0-1,.013c-2,.048-4,.105-6,.136a2.87,2.87,0,0,1-1.286-.142c-1.465-.824-2.932-.427-4.464,0a5.155,5.155,0,0,1-1.939.161c-1.407-.173-2.767-.542-4.177-.693a33.712,33.712,0,0,0-11.261.29,3.27,3.27,0,0,1-1.6.136c-1.615-.631-3.266-.289-4.926-.1-1.105.128-2.261.447-3.276-.032-1.2-.567-2.582-.424-3.878-.581-1.854-.225-3.736-.349-5.615-.46a10.121,10.121,0,0,0-3.282.029,7.126,7.126,0,0,1-4.245-.02,12.911,12.911,0,0,0-4.877-.4c-1.9.121-3.793.095-5.085-1.318a2.652,2.652,0,0,0-1.287-.747c.061.2.128.4.2.6a3.43,3.43,0,0,1-.182,3.406c-.374.517-.2,1.011-.138,1.552a5.947,5.947,0,0,1-1.171,4.852,4.986,4.986,0,0,0-.587,5.228,9.828,9.828,0,0,1,.671,6.314,6.276,6.276,0,0,0-.228,1.878c.362,3.22-.218,6.447-.491,9.667-.18,2.124.1,4.281-1,6.382a3.31,3.31,0,0,0-.018,2.118c.683,3.369.1,6.781.019,10.179-.1,3.87-.915,7.7-1.333,11.552-.184,1.7-.43,3.393-.653,5.089a11.98,11.98,0,0,0-.061,1.7c4.035.183,8.055.49,12.134.387,4.225-.106,8.441.184,12.669-.539a6.3,6.3,0,0,1,2.636-.095c2.557.784,5.256.445,7.89.481a94.019,94.019,0,0,0,12.007-.1,11.7,11.7,0,0,1,2.325.087,18.9,18.9,0,0,0,7.893-.866,8.913,8.913,0,0,1,6.476.2,10.182,10.182,0,0,0,5.978.694,3.6,3.6,0,0,1,1.925.032,6.292,6.292,0,0,0,4.229-.029,11.11,11.11,0,0,1,2.585-.462c1.874-.06,3.758-.238,5.624-.471a16.185,16.185,0,0,1,5.282.245c.962.194,1.939.343,2.9.542a10.671,10.671,0,0,0,4.354.035,11.009,11.009,0,0,0,.37-4.216A14.222,14.222,0,0,1,702.647,170.1Z"/><path class="cls-2" d="M669.427,264.865a14.205,14.205,0,0,0-.093,3.682c0,.512.179,1.025.182,1.538,0,1.105-.189,2.224.459,3.244a1.062,1.062,0,0,1,.069.65c-.14,1.1-.279,2.2-.461,3.3-.174,1.042-.36,2.081-.547,3.121a.532.532,0,0,1-.034.97c-.056.032-.075.085-.127.119-.016.01-.022.026-.036.036a2.591,2.591,0,0,0-1.117,1.8,1.974,1.974,0,0,1-.366.916,17.378,17.378,0,0,0-1.006,1.713,2.971,2.971,0,0,0-.669,2.028c.04.35-.179.729-.144,1.082a3.165,3.165,0,0,1-.64,2.176,1.657,1.657,0,0,0-.263.59,2.246,2.246,0,0,1-.591,1.043c-.085.1-.165.2-.25.3-.654.771-1.3,1.552-1.945,2.327-.165.2-.351.379-.508.583a11.305,11.305,0,0,0-1.173,1.59,7.131,7.131,0,0,1-1.24,1.68,3.69,3.69,0,0,0-.657.874,1.535,1.535,0,0,1-1.045.909.9.9,0,0,0-.438.3,4.442,4.442,0,0,1-1.226,1.252c-.141.079-.22.288-.312.448a4.264,4.264,0,0,1-.363.682,3.057,3.057,0,0,0-.677,1.484,2.35,2.35,0,0,1-1,1.669,2.274,2.274,0,0,0-.933,1.18c-.133.3-.269.6-.417.929a1.562,1.562,0,0,0-.86.258,2.386,2.386,0,0,1-1.23.9,9.758,9.758,0,0,0-3.532,2.342c-.665.576-1.309,1.177-1.963,1.767,0,.048.032.1.007.148a.389.389,0,0,0-.046.212,1.691,1.691,0,0,1-.269.924c-.251.09-.507.178-.575.485a.1.1,0,0,1-.059.063l0,0a.818.818,0,0,0-.4.5.553.553,0,0,1-.13.179c-.251.222-.51.436-.787.672-.009.037,0,.133-.044.177-.223.224-.4.517-.761.559a.4.4,0,0,0-.317.213,1.469,1.469,0,0,1-.937.693,1.063,1.063,0,0,0-.53.35,1.265,1.265,0,0,1-.405-.783,1.147,1.147,0,0,0,.4.787c-.033.035-.071.064-.1.1a1.511,1.511,0,0,1-.788.523,1.189,1.189,0,0,0-.581.306c-.139.149-.343.158-.518.232a5.1,5.1,0,0,0-.518.327.687.687,0,0,1-.216.046l-.307.05a.755.755,0,0,0-.474.214.827.827,0,0,1-.433.211,1.2,1.2,0,0,0-.491.284,2.058,2.058,0,0,1-1.089,1.242c-.006.038-.022.069-.026.109,0,.281-.01.563-.023.844-1.509.069-3.019.162-4.528.186a.657.657,0,0,0-.25.041.891.891,0,0,1-.48.032l-.255-.029c-1.684.082-3.362.535-5.058.026a2.031,2.031,0,0,0-1.1.034,10.99,10.99,0,0,1-4.188.053,80.171,80.171,0,0,0-11.76-.344,9.878,9.878,0,0,1-3.537-.069,5.105,5.105,0,0,0-1.543.047,25.738,25.738,0,0,1-3.761.082c-2.372-.275-4.741.009-7.106-.132a1.31,1.31,0,0,0-.648.127,3.551,3.551,0,0,1-2.8.151,8.082,8.082,0,0,0-1.763-.145c-.666-.04-1.331-.059-2-.107-.637-.045-1.275-.091-1.911-.143-.764-.062-1.528-.13-2.294-.172-2.8-.156-5.59.3-8.4.143a94.05,94.05,0,0,0-9.99.061,6.321,6.321,0,0,1-1.535-.207,30.812,30.812,0,0,0-4.631-.469q-.861.026-1.72.086c-.785.056-1.567.119-2.351.163a5.053,5.053,0,0,1-1.736-.006,5.481,5.481,0,0,0-3.073,0c-2.1.528-4.265-.233-6.371.372-.44.127-1-.23-1.516-.278a14.358,14.358,0,0,0-2.648-.124c-1.463.132-2.911.425-4.37.612a3.493,3.493,0,0,1-1.1-.106c-2.03-.406-4.132,0-6.149-.542a.522.522,0,0,0-.222.007,29.481,29.481,0,0,1-4.651.042c-.957.027-1.915.1-2.871.161a15.618,15.618,0,0,1-2.216.125c-1.77-.144-3.565.1-5.315-.374a3.665,3.665,0,0,0-1.1.02c-1.523.078-3.047.188-4.572.235-.253.008-.509.027-.764.031-1.832.02-3.65.642-5.5.106-.015,0-.033,0-.048,0a25.519,25.519,0,0,1,.4-4.907.517.517,0,0,0-.006-.221c-.026-.132-.026-.264-.042-.4.1-.012.2-.016.3-.028.8-.094,1.578-.347,2.374-.476a5.257,5.257,0,0,1,1.51-.072c.506.067,1.012.152,1.517.234.953.155,1.907.316,2.864.444a5.421,5.421,0,0,0,1.771-.025c.388-.08.715-.447,1.075-.673a2.492,2.492,0,0,1,.384-.16c.332.377.669.758,1.055,1.2,1.433-.392,2.909-.273,4.357-.64a7.483,7.483,0,0,1,3.5-.187,14.248,14.248,0,0,0,3.682.094c.513,0,1.024-.18,1.537-.182,1.106,0,2.224.189,3.245-.46a1.07,1.07,0,0,1,.65-.069c1.1.14,2.2.28,3.3.461,1.675.279,3.342.6,5.015.879a2.292,2.292,0,0,0,.876-.046c3.133-.742,6.342.134,9.482-.449.137-.026.292.06.439.066.438.016.879.043,1.318.052a5.839,5.839,0,0,0,.675-.008,18.916,18.916,0,0,1,3.753.078,7.533,7.533,0,0,0,3.306.069,1.189,1.189,0,0,1,.847.1,2.7,2.7,0,0,0,1.451.254,3.142,3.142,0,0,1,2.046-1.143,5.638,5.638,0,0,1,3.678.5,3.129,3.129,0,0,0,.566.29,4.351,4.351,0,0,0,.615-.125,9.2,9.2,0,0,1,5.46-.212,4.108,4.108,0,0,0,1.742.125,20.059,20.059,0,0,1,5.666.254l.062.091a1.739,1.739,0,0,0,.523-.364,1.246,1.246,0,0,1,1.046-.083,9.953,9.953,0,0,0,3.938.535,2.007,2.007,0,0,1,.86.171,6.189,6.189,0,0,0,3.912.177,2.751,2.751,0,0,1,1.083-.183,11.942,11.942,0,0,0,4.894-.2c.78-.172,1.555-.372,2.326-.61a4.166,4.166,0,0,1,2.823,0c.484.184,1,.289,1.5.436a15.284,15.284,0,0,0,7.672.6,9.659,9.659,0,0,1,1.763-.039c2.06-.048,4.133-.015,6.021-1.063a10.493,10.493,0,0,1,1.067-.445,8.788,8.788,0,0,1,.856.719c.294.317.534.683.795,1.026.587.02,1.107.085,1.62.049,1.7-.118,3.4-.244,5.1-.425.8-.085,1.582-.332,2.379-.453a5.294,5.294,0,0,1,1.511-.058c1.112.159,2.22.363,3.33.548a.99.99,0,0,1,.344-.2.821.821,0,0,0,.433-.212.755.755,0,0,1,.474-.214c.1-.016.2-.032.307-.05a.681.681,0,0,0,.216-.046,5.162,5.162,0,0,1,.518-.327c.175-.074.379-.082.518-.232a1.189,1.189,0,0,1,.581-.306,1.5,1.5,0,0,0,.788-.524,1.217,1.217,0,0,1,.634-.454,1.466,1.466,0,0,0,.937-.693.4.4,0,0,1,.317-.212c.362-.042.538-.335.762-.559.044-.045.035-.141.043-.178.277-.236.536-.45.787-.671a.569.569,0,0,0,.13-.18.82.82,0,0,1,.406-.5l0,0a.1.1,0,0,0,.057-.063c.068-.306.324-.395.575-.484a1.7,1.7,0,0,0,.269-.925.4.4,0,0,1,.046-.212c.026-.053,0-.1-.007-.148.654-.59,1.3-1.191,1.963-1.766a9.749,9.749,0,0,1,3.533-2.342,2.392,2.392,0,0,0,1.23-.905,1.561,1.561,0,0,1,.859-.258c.148-.329.284-.627.417-.929a2.288,2.288,0,0,1,.933-1.18,2.344,2.344,0,0,0,1-1.668,3.074,3.074,0,0,1,.677-1.485,4.384,4.384,0,0,0,.364-.681c.091-.16.17-.369.311-.448a4.442,4.442,0,0,0,1.226-1.252.9.9,0,0,1,.44-.305,1.533,1.533,0,0,0,1.043-.909,3.663,3.663,0,0,1,.658-.873,7.147,7.147,0,0,0,1.239-1.68,11.256,11.256,0,0,1,1.173-1.591c.157-.2.343-.386.508-.582.731-.876,1.452-1.761,2.2-2.626a2.237,2.237,0,0,0,.591-1.043,1.677,1.677,0,0,1,.263-.591,3.16,3.16,0,0,0,.641-2.175c-.036-.353.183-.731.143-1.082a2.973,2.973,0,0,1,.669-2.028c.339-.521.562-1.111.947-1.618-.143-1.013-.309-2.026-.438-3.041a3.515,3.515,0,0,1,.105-1.1c.406-2.031,0-4.133.542-6.15a.522.522,0,0,0-.006-.222,29.371,29.371,0,0,1-.043-4.652c-.025-.865-.091-1.731-.145-2.6,1.936-.181,3.886-.395,5.847-.671A5.7,5.7,0,0,1,669.427,264.865Z"/><path class="cls-2" d="M516.677,317.8a2.044,2.044,0,0,1-1.1-.034,10.984,10.984,0,0,0-4.187-.053,80.319,80.319,0,0,1-11.761.344,9.851,9.851,0,0,0-3.536.069,5.074,5.074,0,0,1-1.543-.048,25.74,25.74,0,0,0-3.761-.081c-2.372.274-4.74-.01-7.106.131a1.284,1.284,0,0,1-.648-.127,3.557,3.557,0,0,0-2.8-.151,8.006,8.006,0,0,1-1.762.146c-.665.04-1.332.058-2,.106-.636.046-1.273.092-1.91.144-.764.062-1.528.13-2.293.172-2.8.155-5.591-.3-8.4-.144a93.521,93.521,0,0,1-9.99-.06,6.313,6.313,0,0,0-1.535.206,30.814,30.814,0,0,1-4.631.47q-.861-.025-1.721-.086c-.783-.056-1.566-.119-2.351-.164a5.078,5.078,0,0,0-1.736.007,5.481,5.481,0,0,1-3.073,0c-2.1-.528-4.264.233-6.37-.373-.44-.127-1,.23-1.516.279a14.354,14.354,0,0,1-2.648.124c-1.463-.133-2.911-.426-4.37-.612a3.518,3.518,0,0,0-1.1.105c-2.03.407-4.132,0-6.149.542a.521.521,0,0,1-.222-.006,29.612,29.612,0,0,0-4.652-.043c-.957-.027-1.913-.1-2.87-.16a15.775,15.775,0,0,0-2.217-.126c-1.769.145-3.564-.1-5.314.375a3.7,3.7,0,0,1-1.1-.02c-1.524-.079-3.047-.188-4.571-.235.087.623.182,1.244.261,1.868a1.065,1.065,0,0,1-.069.651,5.558,5.558,0,0,0-.46,3.215c.954-.156,1.908-.316,2.865-.444a5.422,5.422,0,0,1,1.771.025c.388.08.714.446,1.075.673a2.479,2.479,0,0,0,.383.159l1.056-1.2c1.433.391,2.909.273,4.356.64a7.487,7.487,0,0,0,3.5.186,14.2,14.2,0,0,1,3.682-.093c.512,0,1.024.18,1.537.182,1.106,0,2.225-.189,3.245.46a1.07,1.07,0,0,0,.65.068c1.1-.139,2.2-.28,3.3-.461,1.675-.278,3.341-.6,5.015-.878a2.254,2.254,0,0,1,.876.046c3.133.741,6.342-.134,9.482.449.138.026.291-.061.439-.066.438-.017.879-.044,1.317-.052a5.857,5.857,0,0,1,.676.008,18.992,18.992,0,0,0,3.753-.078,7.534,7.534,0,0,1,3.306-.069,1.189,1.189,0,0,0,.847-.1,2.7,2.7,0,0,1,1.451-.253,3.146,3.146,0,0,0,2.046,1.143,5.64,5.64,0,0,0,3.678-.5,3.066,3.066,0,0,1,.566-.29,4.307,4.307,0,0,1,.614.124,9.191,9.191,0,0,0,5.462.212,4.117,4.117,0,0,1,1.741-.125,20.062,20.062,0,0,0,5.666-.253c.022-.034.039-.058.061-.091a1.723,1.723,0,0,1,.523.363,1.245,1.245,0,0,0,1.047.083,9.971,9.971,0,0,1,3.939-.535,2,2,0,0,0,.858-.171,6.192,6.192,0,0,1,3.913-.176,2.752,2.752,0,0,0,1.083.182,11.943,11.943,0,0,1,4.894.2c.78.171,1.556.372,2.326.61a4.169,4.169,0,0,0,2.824-.006c.484-.184,1-.288,1.5-.436a15.288,15.288,0,0,1,7.67-.6,9.583,9.583,0,0,0,1.764.04c2.06.048,4.133.015,6.02,1.062a10.384,10.384,0,0,0,1.068.445,8.514,8.514,0,0,0,.856-.719c.294-.317.534-.683.795-1.025a15.976,15.976,0,0,1,1.619-.049c1.7.118,3.4.243,5.1.424.8.086,1.582.333,2.379.454a5.252,5.252,0,0,0,1.51.057c1.463-.208,2.912-.509,4.375-.719a5.559,5.559,0,0,1,1.629,0c.016-.115.016-.229.037-.344a.538.538,0,0,0,.006-.222,20.758,20.758,0,0,1-.36-4.514c-1.69-.076-3.379-.2-5.069-.2C520.346,317.851,518.522,317.245,516.677,317.8Z"/><path class="cls-2" d="M392.435,324.389a5.285,5.285,0,0,0,1.509.072c.507-.067,1.012-.152,1.516-.234a5.558,5.558,0,0,1,.46-3.215,1.065,1.065,0,0,0,.069-.651c-.079-.624-.174-1.245-.261-1.868-.255-.008-.509-.028-.765-.031-1.832-.02-3.65-.643-5.5-.106-.016,0-.034,0-.049,0a25.429,25.429,0,0,0,.4,4.906.522.522,0,0,1-.007.222c-.024.132-.024.264-.041.4.1.011.2.016.3.028C390.859,324.006,391.638,324.26,392.435,324.389Z"/><path class="cls-1" d="M742,250.639c-.037-.019-.052-.051-.087-.071a1.676,1.676,0,0,1-.825-1.129,1.285,1.285,0,0,0-.276-.572,11.346,11.346,0,0,1-.727-1.053,1.923,1.923,0,0,1-.522-1.271c.01-.227-.148-.46-.141-.688a2.045,2.045,0,0,0-.511-1.368,1.036,1.036,0,0,1-.2-.367,1.454,1.454,0,0,0-.428-.642c-.517-.521-1.021-1.056-1.531-1.585-.114-.119-.242-.227-.353-.35a7.111,7.111,0,0,1-.826-.968,4.584,4.584,0,0,0-.874-1.022,2.382,2.382,0,0,1-.462-.531.984.984,0,0,0-.711-.534.568.568,0,0,1-.295-.176,2.872,2.872,0,0,0-.846-.747c-.1-.045-.155-.175-.221-.273a2.8,2.8,0,0,0-.264-.421,1.976,1.976,0,0,1-.5-.922,1.515,1.515,0,0,0-.721-1.026,1.472,1.472,0,0,1-.653-.715c-.1-.187-.2-.372-.311-.577a1,1,0,0,1-.563-.126,1.538,1.538,0,0,0-.831-.524,6.277,6.277,0,0,1-2.377-1.341c-1.312-.983-2.583-2.021-3.882-3.023a1.862,1.862,0,0,0-1.411-.553,1.873,1.873,0,0,1-2.21-1.5,1.356,1.356,0,0,0-1.467-1.174,14.135,14.135,0,0,1-1.349.795c-.416.182-.872.272-1.307.414-1.052.344-2.1.694-3.036,1-2.747-1.5-2.751-1.526-5.527-.947a7.392,7.392,0,0,1-3.68-.053,6.19,6.19,0,0,0-4.946.227,3.718,3.718,0,0,1-2.515.1,2.839,2.839,0,0,0-1.141-.121,2.649,2.649,0,0,1-2.848-.846c-.122-.128-.355-.15-.534-.22-1.288.146-2.5,1.015-3.839.212a2.374,2.374,0,0,1-2.9.683,1.469,1.469,0,0,0-.576-.118,2.2,2.2,0,0,1-.181-.411,1.357,1.357,0,0,0-1.477-1.161,14.186,14.186,0,0,1-1.342.807c-.415.186-.871.28-1.3.426l-.289.1c-.062.014-.124.023-.188.038a4.874,4.874,0,0,1-2.117.227,6.232,6.232,0,0,0-2.1-.192c-1.278-.59-1.809-.489-3.874-.039l-.024,0c-.591-.092-1.186-.165-1.769-.29-.219-.047-.442-.11-.665-.171l0,0c-.1.21-.192.416-.269.621a6.662,6.662,0,0,1-.951-.189,6.188,6.188,0,0,0-4.943.27,3.711,3.711,0,0,1-2.515.128,2.827,2.827,0,0,0-1.141-.111,2.648,2.648,0,0,1-2.856-.82c-.123-.127-.356-.147-.536-.216-1.287.158-2.5,1.038-3.836.247a2.375,2.375,0,0,1-2.9.709,1.693,1.693,0,0,0-1.164-.02,2.917,2.917,0,0,1-2.294-.209,2.722,2.722,0,0,0-1.9-.044l-.114.028c0,.267-.012.534-.023.8a2.3,2.3,0,0,1-.472-.035,6.16,6.16,0,0,0-3.281.107,3.69,3.69,0,0,1-1.452.074c-1.176-.107-2.354-.229-3.517-.423a5.4,5.4,0,0,1-1.954-.6,3.488,3.488,0,0,0-2.765-.38c-1.642.317-3.338.462-4.8-.663a2.007,2.007,0,0,0-.757-.311,1.327,1.327,0,0,0-1.672.8c-.245.54-.457,1.094-.667,1.6-.5.254-.942.448-1.35.695a2.049,2.049,0,0,1-2.163.043,4.56,4.56,0,0,0-1.579-.4c-.831-.08-1.679-.007-2.508-.1a13.248,13.248,0,0,1-3.883-.616,18.786,18.786,0,0,0-4.731-1.147,4.345,4.345,0,0,0-1.234,1.986,1.758,1.758,0,0,1-.785.121,8.338,8.338,0,0,0-1.466-.1,2.864,2.864,0,0,1-1.084-.3,1.751,1.751,0,0,0-1.169-.2,4.77,4.77,0,0,1-1.887-.112,2.286,2.286,0,0,0-1.649.2,4.483,4.483,0,0,1-1.151.35.518.518,0,0,1-.475-.082,1.563,1.563,0,0,0-1.279-.246c-.471.039-.943.072-1.415.117a.889.889,0,0,0-.337.091,6.122,6.122,0,0,0-1.765,1.185,1.236,1.236,0,0,1-.656.4c-.53.132-1.05.3-1.578.433a1.47,1.47,0,0,0-.734.409,1.533,1.533,0,0,1-.448.345c-.386.17-.8.273-1.015.7-.053.107-.233.154-.357.223a3.9,3.9,0,0,0-.374.2c-.628.458-1.242.935-1.915,1.331a.635.635,0,0,0-.246.247,1.488,1.488,0,0,1-.631.556,3.3,3.3,0,0,0-.743.539,6.658,6.658,0,0,1-1.268,1.021,1.17,1.17,0,0,0-.384.389,18.128,18.128,0,0,0-1.058,2.085,1.165,1.165,0,0,1-.878.843.585.585,0,0,0-.3.167,1.691,1.691,0,0,1-.906.649c-.08.015-.14.122-.215.18a4.127,4.127,0,0,0-.547.643,10.75,10.75,0,0,1-1.029.982,2.258,2.258,0,0,0-.745,1.016,4.582,4.582,0,0,0-.013.847c-.022.3-.293.553-.208.886a.171.171,0,0,1,.007.07,5.215,5.215,0,0,1-.28,1.016,6.265,6.265,0,0,0-.28.646,1.953,1.953,0,0,1-.735,1.177.608.608,0,0,0-.243.757.568.568,0,0,1,0,.41c-.337.617-.215,1.365-.579,1.971a1.524,1.524,0,0,1-.033.149,8.309,8.309,0,0,1-.5,1.615,1.347,1.347,0,0,1-.331.62.574.574,0,0,0-.209.511.683.683,0,0,1-.249.661c.124.218.306.394.318.581.033.531.242,1.079-.066,1.6a.528.528,0,0,0,0,.479,5.117,5.117,0,0,1,.29,1.816,1.112,1.112,0,0,0,.447.929c.168.133.334.266.5.4a2.33,2.33,0,0,1,.571.749,2.269,2.269,0,0,1,.22,1.287,3.557,3.557,0,0,0,.222,1.528,13.677,13.677,0,0,0,.708,1.551c.073.15.162.292.234.442a2.148,2.148,0,0,1,.244,2.146.4.4,0,0,0,.007.273c.072.25.173.492.243.742.121.43.459.775.468,1.249a.528.528,0,0,0,.131.247c.165.232.33.462.5.687a1.66,1.66,0,0,0,.288.309,3.4,3.4,0,0,1,.387.391c.089,1.076.271,2.146.46,3.213.033.2.043.393.071.589a2.269,2.269,0,0,1,.22,1.287,3.562,3.562,0,0,0,.222,1.529,13.743,13.743,0,0,0,.708,1.55c.073.151.162.292.234.442a2.149,2.149,0,0,1,.244,2.146.4.4,0,0,0,.007.273c.072.25.172.492.243.742.121.43.459.775.468,1.249a.528.528,0,0,0,.131.247c.165.232.33.462.5.687a1.7,1.7,0,0,0,.288.31c.512.4.849.955,1.314,1.393a.361.361,0,0,1,.1.186,1.323,1.323,0,0,0,.795.947,5.653,5.653,0,0,1,1,.682,1.915,1.915,0,0,0,.959.411,3.11,3.11,0,0,1,1.734.741,2.342,2.342,0,0,0,.577.4c.51.253,1.028.492,1.554.712a4.371,4.371,0,0,1,1.046.589c.353.277.768.473,1.127.743.519.391,1.136.693,1.375,1.372a.336.336,0,0,0,.158.14,14.955,14.955,0,0,1,1.978,1.726c.253.209.511.4.774.577a1.245,1.245,0,0,0,.864.483,4.589,4.589,0,0,0,1.164.378,1.764,1.764,0,0,1,.265.1c.737.252,1.523.32,2.254.61a4.551,4.551,0,0,0,.834.171,2.248,2.248,0,0,0,.419.075,4.288,4.288,0,0,1,1.6.245.671.671,0,0,0,.28.032h.019a3.264,3.264,0,0,0,.393-.7,2.633,2.633,0,0,1,.589-.868c.956.579,1.59.574,3.493.484a7.394,7.394,0,0,1,3.626.63,6.186,6.186,0,0,0,4.919.555,3.719,3.719,0,0,1,2.5.292,2.8,2.8,0,0,0,1.106.3,2.648,2.648,0,0,1,2.68,1.284c.1.145.328.2.493.3,1.295.059,2.632-.608,3.825.394a2.374,2.374,0,0,1,2.973-.217,1.7,1.7,0,0,0,1.143.213,2.919,2.919,0,0,1,2.229.587,2.722,2.722,0,0,0,1.868.359,4.86,4.86,0,0,1,2.126.109,5.476,5.476,0,0,0,3.056.488,3.3,3.3,0,0,1,1.357.191c1.067.318,2.133.651,3.171,1.052.1.038.2.088.3.129.045-.3.088-.6.134-.9a3.19,3.19,0,0,1,1.246.59,1.474,1.474,0,0,0,.561.132c1.249-.349,2.311-1.4,3.757-.823a2.374,2.374,0,0,1,2.754-1.138,1.7,1.7,0,0,0,1.153-.155,2.913,2.913,0,0,1,2.3-.14,2.718,2.718,0,0,0,1.886-.244,4.853,4.853,0,0,1,2.054-.562,5.48,5.48,0,0,0,3.056-.494,3.3,3.3,0,0,1,1.348-.243c1.113-.033,2.23-.05,3.341.006a4.879,4.879,0,0,1,1.9.365,3.131,3.131,0,0,0,2.635.051c1.5-.507,3.06-.851,4.569.094a1.878,1.878,0,0,0,.747.219,1.23,1.23,0,0,0,1.462-.99c.159-.565.287-1.14.418-1.667.434-.311.824-.555,1.174-.848a2.124,2.124,0,0,1,.271-.177,3.466,3.466,0,0,0,1.97.209c1.567-.194,3.17-.213,4.456,1.017a1.862,1.862,0,0,0,.688.366,1.23,1.23,0,0,0,1.631-.674c.159-.3.294-.6.437-.9.051.015.107.016.158.033a16.9,16.9,0,0,0,4.571.581,3.466,3.466,0,0,0,.64-1.188c.7.1,1.41.119,2.1.253a11.875,11.875,0,0,1,3.6.9,16.851,16.851,0,0,0,4.358,1.493,4.005,4.005,0,0,0,1.186-1.6c.181-.011.36-.025.541-.024a6.761,6.761,0,0,1,1.345.064,1.733,1.733,0,0,0,.837.01,6.521,6.521,0,0,1,3.086-.053,1.412,1.412,0,0,0,1.019-.153,3.439,3.439,0,0,1,1.292-.354,3.23,3.23,0,0,0,1.09-.3,8.51,8.51,0,0,1,1.9-.548l8.8-4.739a1.345,1.345,0,0,1,.68-.695,4.518,4.518,0,0,1,1.234-.545.8.8,0,0,0,.3-.174A6.94,6.94,0,0,0,727.9,289a3.753,3.753,0,0,0,.657-.645,2.722,2.722,0,0,1,1.058-.926,1.672,1.672,0,0,0,.792-.8c-.07-.157-.137-.307-.2-.459a2.035,2.035,0,0,1,.832-2.593,1.279,1.279,0,0,0,.5-.385,1.244,1.244,0,0,1,.794-.555.592.592,0,0,0,.445-.313.685.685,0,0,1,.2-.232c.012-.009.017-.029.03-.036a1.47,1.47,0,0,0,.484-.49l.006,0,.006-.009c.037-.056.08-.11.114-.169a1.339,1.339,0,0,1,.56-.517,4.5,4.5,0,0,1,1.234-.545.8.8,0,0,0,.3-.174,6.756,6.756,0,0,0,.565-.428,3.76,3.76,0,0,0,.658-.645,2.706,2.706,0,0,1,1.058-.926,1.672,1.672,0,0,0,.792-.8c-.07-.157-.137-.307-.2-.459a2.035,2.035,0,0,1,.833-2.593,1.268,1.268,0,0,0,.5-.385,1.246,1.246,0,0,1,.8-.555.592.592,0,0,0,.445-.313.639.639,0,0,1,.226-.268,1.3,1.3,0,0,0,.312-.316c-.021-.649-.024-1.3-.071-1.947-.068-.967.03-1.945.037-2.918a56.684,56.684,0,0,0-.014-5.816,47.145,47.145,0,0,1-.228-7.237,1.658,1.658,0,0,1-.033-.779c.044-.2.089-.4.125-.609,0-.029.011-.059.014-.088a3.285,3.285,0,0,0,.049-.638,1.37,1.37,0,0,1,.192-.854,1.08,1.08,0,0,1,.308-.311A.344.344,0,0,0,742,250.639ZM603.366,227.663a1.231,1.231,0,0,0,.749.152,1.122,1.122,0,0,1-.754-.151Zm87.952,67.792a4.545,4.545,0,0,1-.851-.021,5.283,5.283,0,0,0-.575-.059c.1-.048.227-.093.326-.146a1.837,1.837,0,0,1,2.034.117c.026.016.058.024.084.039-.2.018-.395.037-.593.071A2.236,2.236,0,0,1,691.318,295.455Z"/><path class="cls-2" d="M532.448,27.082v5.693h8.632v2.107h-8.632v7.774h-2.392V24.975H541.34v2.107Z"/><path class="cls-2" d="M557.9,33.269l-.129,9.387h-1.951V40.94a6.738,6.738,0,0,1-5.017,2c-2.861-.026-4.473-1.534-4.473-3.926,0-2.756,2.834-3.978,9.179-4.472l.025-1.014c.027-1.82-.181-3.354-3.015-3.354a11.255,11.255,0,0,0-4.993,1.221l-.624-1.95a12.565,12.565,0,0,1,5.8-1.378C557.408,28.069,557.928,30.462,557.9,33.269Zm-2.469,6.085.051-2.912c-4.784.39-6.811,1.066-6.811,2.522,0,1.2.832,1.9,2.443,1.925A6.4,6.4,0,0,0,555.432,39.354Z"/><path class="cls-2" d="M575.53,40.576v2.08H563.153v-2.08h5.019V21.336h2.34v19.24Z"/><path class="cls-2" d="M580.131,41.824l.7-2.183a11.028,11.028,0,0,0,5.227,1.2c2.651,0,3.925-.624,3.925-1.95,0-2.886-9.594-1.924-9.594-6.657,0-2.677,2.366-4.133,6.11-4.133a13.3,13.3,0,0,1,5.175,1.013L591,31.242a10.127,10.127,0,0,0-4.5-1.066c-2.47,0-3.744.65-3.744,1.794,0,2.782,9.6,1.82,9.6,6.656,0,2.964-2.626,4.29-6.4,4.29A13.548,13.548,0,0,1,580.131,41.824Z"/><path class="cls-2" d="M599.319,35.532c0,3.64,1.535,5.278,4.551,5.278a9.372,9.372,0,0,0,4.732-1.222l.624,1.95a10.6,10.6,0,0,1-5.409,1.378c-4.237,0-6.864-2.392-6.864-7.254s2.99-7.566,6.735-7.566c4.264,0,6.162,2.652,5.59,7.28h-9.959ZM599.5,33.5h7.54c-.052-2.393-1.17-3.38-3.511-3.38A3.812,3.812,0,0,0,599.5,33.5Z"/><path class="cls-2" d="M298.5,138.961h-5.512v15.5H290.6v-15.5h-5.512v-2.185H298.5Z"/><path class="cls-2" d="M315.141,152.377v2.08H302.765v-2.08h3.718V140.156h2.08l-.052,2.756,6.344-3.094.026,2.315-6.059,2.937v7.307Z"/><path class="cls-2" d="M331.261,140.156v14.3h-1.976v-1.586a7.077,7.077,0,0,1-4.81,1.872c-3.3,0-4.655-1.69-4.655-4.732v-9.855h2.341v9.517c0,2.106.858,2.964,2.6,2.964a7.166,7.166,0,0,0,4.16-1.352V140.156Z"/><path class="cls-2" d="M338.67,147.333c0,3.64,1.534,5.278,4.551,5.278a9.368,9.368,0,0,0,4.731-1.222l.624,1.95a10.594,10.594,0,0,1-5.408,1.378c-4.238,0-6.864-2.392-6.864-7.254s2.99-7.567,6.734-7.567c4.265,0,6.162,2.653,5.591,7.281H338.67Zm.183-2.028h7.54c-.052-2.393-1.17-3.38-3.51-3.38A3.81,3.81,0,0,0,338.853,145.305Z"/><path class="cls-3" d="M625.971,147.333c0,3.64,1.534,5.278,4.551,5.278a9.368,9.368,0,0,0,4.731-1.222l.624,1.95a10.594,10.594,0,0,1-5.408,1.378c-4.238,0-6.864-2.392-6.864-7.254s2.99-7.567,6.734-7.567c4.265,0,6.162,2.653,5.591,7.281h-9.959Zm.182-2.028h7.54c-.051-2.393-1.169-3.38-3.509-3.38A3.812,3.812,0,0,0,626.153,145.305Z"/><path class="cls-3" d="M652.881,152.377v2.08H640.5v-2.08h5.019v-19.24h2.339v19.24Z"/><path class="cls-3" d="M657.483,153.625l.7-2.184a11.02,11.02,0,0,0,5.226,1.2c2.652,0,3.926-.624,3.926-1.951,0-2.885-9.6-1.923-9.6-6.656,0-2.678,2.366-4.134,6.111-4.134a13.3,13.3,0,0,1,5.174,1.014l-.675,2.133a10.134,10.134,0,0,0-4.5-1.067c-2.47,0-3.745.651-3.745,1.794,0,2.783,9.6,1.821,9.6,6.657,0,2.964-2.626,4.29-6.4,4.29A13.545,13.545,0,0,1,657.483,153.625Z"/><path class="cls-3" d="M676.67,147.333c0,3.64,1.534,5.278,4.551,5.278a9.368,9.368,0,0,0,4.731-1.222l.624,1.95a10.594,10.594,0,0,1-5.408,1.378c-4.238,0-6.864-2.392-6.864-7.254s2.99-7.567,6.734-7.567c4.265,0,6.162,2.653,5.591,7.281H676.67Zm.183-2.028h7.54c-.052-2.393-1.17-3.38-3.51-3.38A3.81,3.81,0,0,0,676.853,145.305Z"/><path class="cls-3" d="M260.541,71.776v2.08H248.165v-2.08h5.278V61.636h-5.278v-2.08h7.618v12.22Zm-8.528-16.9a2.34,2.34,0,1,1,2.34,2.34A2.331,2.331,0,0,1,252.013,54.876Z"/><path class="cls-3" d="M270.836,56.592c0,1.378.521,2.548.729,4.524h5.616V63.2h-5.538v8.58h5.538v2.08H264.8v-2.08h4.5V63.2h-4.5v-2.08h4.421a35.159,35.159,0,0,1-.729-4.394c0-3.224,2.366-4.447,5.33-4.447a10.681,10.681,0,0,1,4.135.729l-.677,2.105a8.152,8.152,0,0,0-3.588-.727C271.876,54.382,270.836,54.849,270.836,56.592Z"/><path class="cls-3" d="M323.955,66.862c0-5.175,3.147-7.566,7.125-7.566a11.023,11.023,0,0,1,5.2,1.17l-.676,2.106a9.371,9.371,0,0,0-4.732-1.17c-2.757,0-4.524,1.638-4.524,5.33,0,3.64,1.4,5.279,4.524,5.279a8.892,8.892,0,0,0,4.732-1.327l.624,2.054a10.6,10.6,0,0,1-5.409,1.378C326.451,74.116,323.955,71.724,323.955,66.862Z"/><path class="cls-3" d="M340.543,66.862c0-4.759,2.731-7.593,6.578-7.593,4.057,0,6.422,2.783,6.422,7.411s-2.729,7.462-6.578,7.462C342.909,74.142,340.543,71.36,340.543,66.862Zm10.635-.052c0-3.406-1.275-5.434-4.109-5.434-2.86,0-4.16,2.08-4.16,5.356s1.274,5.3,4.109,5.3C349.877,72.036,351.178,69.956,351.178,66.81Z"/><path class="cls-3" d="M369.716,64v9.854h-2.34V64.34c0-2.106-.858-2.964-2.6-2.964a7.168,7.168,0,0,0-4.16,1.352V73.856h-2.34v-14.3h1.976v1.585a7.084,7.084,0,0,1,4.811-1.872C368.363,59.269,369.716,60.96,369.716,64Z"/><path class="cls-3" d="M386.564,52.535V73.856h-2.029V72.322a6.882,6.882,0,0,1-4.758,1.82c-3.537-.026-5.434-2.5-5.434-6.89,0-5.72,2.834-7.956,7.1-7.956a17.358,17.358,0,0,1,2.782.208V52.535Zm-2.341,18.149V61.766a10.9,10.9,0,0,0-2.964-.364c-3.146,0-4.55,1.872-4.55,5.59,0,3.25,1.144,5.019,3.354,5.044A6.982,6.982,0,0,0,384.223,70.684Z"/><path class="cls-3" d="M404.191,71.776v2.08H391.816v-2.08h5.278V61.636h-5.278v-2.08h7.618v12.22Zm-8.528-16.9a2.341,2.341,0,1,1,2.34,2.34A2.331,2.331,0,0,1,395.663,54.876Z"/><path class="cls-3" d="M420.883,73a10.537,10.537,0,0,1-4.914,1.118c-3.9,0-4.6-2.132-4.55-5.2l.155-7.28h-3.509v-2.08H411.6l.078-3.38H414.1l-.443,3.38h6.709v2.08h-6.4l-.156,7.02c-.052,1.82.181,3.355,2.236,3.355a9.331,9.331,0,0,0,4.212-.962Z"/><path class="cls-3" d="M437.991,71.776v2.08H425.615v-2.08h5.278V61.636h-5.278v-2.08h7.618v12.22Zm-8.528-16.9a2.341,2.341,0,1,1,2.34,2.34A2.331,2.331,0,0,1,429.463,54.876Z"/><path class="cls-3" d="M441.942,66.862c0-4.759,2.73-7.593,6.579-7.593,4.055,0,6.421,2.783,6.421,7.411s-2.729,7.462-6.578,7.462C444.309,74.142,441.942,71.36,441.942,66.862Zm10.634-.052c0-3.406-1.273-5.434-4.107-5.434-2.861,0-4.16,2.08-4.16,5.356s1.273,5.3,4.107,5.3C451.276,72.036,452.576,69.956,452.576,66.81Z"/><path class="cls-3" d="M471.115,64v9.854h-2.34V64.34c0-2.106-.858-2.964-2.6-2.964a7.166,7.166,0,0,0-4.16,1.352V73.856h-2.34v-14.3h1.975v1.585a7.086,7.086,0,0,1,4.811-1.872C469.763,59.269,471.115,60.96,471.115,64Z"/><path class="cls-3" d="M360.042,258.559c0,5.72-2.834,7.957-7.1,7.957a16.032,16.032,0,0,1-5.122-.754V244.935h2.34v6.241l-.208,2.21a7.014,7.014,0,0,1,4.654-1.717C358.145,251.7,360.042,254.165,360.042,258.559Zm-2.366.26c0-3.25-1.144-5.017-3.354-5.044a6.993,6.993,0,0,0-4.16,1.352v8.919a10.9,10.9,0,0,0,2.964.364C356.273,264.41,357.676,262.538,357.676,258.819Z"/><path class="cls-3" d="M363.941,259.262c0-4.758,2.731-7.593,6.579-7.593,4.056,0,6.421,2.782,6.421,7.411s-2.729,7.462-6.578,7.462C366.308,266.542,363.941,263.76,363.941,259.262Zm10.635-.052c0-3.406-1.274-5.435-4.108-5.435-2.86,0-4.16,2.08-4.16,5.357s1.273,5.3,4.108,5.3C373.275,264.435,374.576,262.355,374.576,259.21Z"/><path class="cls-3" d="M393.063,244.935v21.321h-2.029v-1.534a6.887,6.887,0,0,1-4.759,1.82c-3.535-.026-5.433-2.5-5.433-6.891,0-5.719,2.834-7.956,7.1-7.956a17.358,17.358,0,0,1,2.782.208v-6.968Zm-2.341,18.149v-8.919a10.893,10.893,0,0,0-2.964-.363c-3.147,0-4.55,1.872-4.55,5.589,0,3.25,1.144,5.019,3.354,5.044A6.976,6.976,0,0,0,390.722,263.084Z"/><path class="cls-3" d="M405.411,268.855h4.109v2.08H398.963v-2.08h4.108V265.97l-5.538-14.015h2.522l2.99,7.774,1.015,3.225h.519l1.04-3.225,2.939-7.774h2.391l-5.538,14.015Z"/><path class="cls-3" d="M427.981,264.124v2.132H415.6v-2.132h5.511V252.943L415.6,255.05v-2.315l5.511-2.106v-2.054h2.393v15.549Z"/><path class="cls-3" d="M630.442,261.16c0,5.721-2.834,7.956-7.1,7.956a16.023,16.023,0,0,1-5.122-.754V247.535h2.34v6.24l-.208,2.211a7.015,7.015,0,0,1,4.654-1.717C628.545,254.3,630.442,256.766,630.442,261.16Zm-2.366.26c0-3.25-1.143-5.018-3.353-5.044a6.977,6.977,0,0,0-4.16,1.352v8.918a10.89,10.89,0,0,0,2.963.365C626.673,267.011,628.076,265.139,628.076,261.42Z"/><path class="cls-3" d="M634.342,261.862c0-4.759,2.73-7.593,6.578-7.593,4.057,0,6.422,2.783,6.422,7.411s-2.73,7.462-6.578,7.462C636.708,269.142,634.342,266.36,634.342,261.862Zm10.635-.052c0-3.406-1.275-5.434-4.109-5.434-2.86,0-4.16,2.08-4.16,5.356s1.274,5.3,4.108,5.3C643.676,267.036,644.977,264.956,644.977,261.81Z"/><path class="cls-3" d="M663.463,247.535v21.321h-2.028v-1.534a6.884,6.884,0,0,1-4.759,1.82c-3.535-.026-5.434-2.5-5.434-6.89,0-5.72,2.834-7.956,7.1-7.956a17.358,17.358,0,0,1,2.782.208v-6.969Zm-2.341,18.149v-8.918a10.893,10.893,0,0,0-2.964-.364c-3.146,0-4.55,1.872-4.55,5.59,0,3.25,1.144,5.019,3.354,5.044A6.982,6.982,0,0,0,661.122,265.684Z"/><path class="cls-3" d="M675.812,271.457h4.108v2.08H669.363v-2.08h4.109V268.57l-5.538-14.014h2.521l2.99,7.774,1.015,3.225h.52l1.04-3.225,2.938-7.774h2.392l-5.538,14.014Z"/><path class="cls-3" d="M698.276,266.724v2.132H685.484v-2.391c4.55-2.782,9.854-5.617,9.854-10.141,0-2-.884-3.276-3.848-3.276-3.224,0-4.082,1.429-4.082,3.874a4.435,4.435,0,0,0,.208,1.586l-2.47-.182a12.121,12.121,0,0,1-.1-1.664c0-3.458,2.262-5.746,6.578-5.746,5.071,0,6.162,2.808,6.162,5.148,0,4.993-4.679,7.8-7.54,9.724l-1.4.624v.312Z"/></g></svg>