<svg id="Livello_1" data-name="Livello 1" xmlns="http://www.w3.org/2000/svg" viewBox="0 0 952 593.24"><defs><style>.cls-1{fill:#f36;}.cls-2{fill:#1858a8;}.cls-3{fill:#0046b7;}</style></defs><title>extend</title><path class="cls-1" d="M149.125,49.347v1.664h-9.919V49.347h4.022V33.925H145.1V49.347Z"/><path class="cls-1" d="M162.074,43.488l-.1,7.523h-1.564V49.638a5.388,5.388,0,0,1-4.021,1.6c-2.293-.019-3.584-1.228-3.584-3.145,0-2.208,2.271-3.188,7.357-3.586l.019-.811c.021-1.458-.146-2.691-2.417-2.691a9.04,9.04,0,0,0-4,.98l-.5-1.561a10.075,10.075,0,0,1,4.646-1.106C161.68,39.321,162.1,41.238,162.074,43.488ZM160.1,48.367l.042-2.334c-3.835.309-5.461.853-5.461,2.02,0,.957.668,1.524,1.959,1.543A5.152,5.152,0,0,0,160.1,48.367Z"/><path class="cls-1" d="M176.232,50.327a8.461,8.461,0,0,1-3.937.9c-3.127,0-3.689-1.711-3.647-4.167l.124-5.836H165.96V39.55h2.833l.064-2.709H170.8l-.354,2.709h5.374v1.669h-5.126l-.124,5.625c-.042,1.458.146,2.691,1.793,2.691a7.44,7.44,0,0,0,3.375-.774Z"/><path class="cls-1" d="M189.932,49.347v1.664h-9.919V49.347h4.23V41.219h-4.23V39.55h6.1v9.8ZM183.1,35.8a1.877,1.877,0,1,1,1.875,1.875A1.869,1.869,0,0,1,183.1,35.8Z"/><path class="cls-1" d="M202.923,43.113v7.9h-1.875V43.385c0-1.688-.687-2.377-2.084-2.377a5.748,5.748,0,0,0-3.335,1.088v8.915h-1.875V39.55h1.585v1.271a5.682,5.682,0,0,1,3.855-1.5C201.84,39.321,202.923,40.675,202.923,43.113Z"/><path class="cls-1" d="M214.227,46.155H209.35l-1.416,4.856H206l4.312-14.17h3.042l4.315,14.17h-2Zm-.5-1.688-1.146-3.834-.5-2.123h-.605l-.5,2.123-1.125,3.834Z"/><path class="cls-1" d="M230.321,49.347v1.664H220.4V49.347h4.022V33.925H226.3V49.347Z"/><path class="cls-1" d="M244.105,44.842c0,4.585-2.271,6.38-5.688,6.38a13.87,13.87,0,0,1-2.229-.169v3.708h-1.875V39.55H235.9v1.271a5.593,5.593,0,0,1,3.855-1.5C242.584,39.344,244.105,41.322,244.105,44.842Zm-1.9.211c0-2.606-.916-4.021-2.688-4.045a5.6,5.6,0,0,0-3.333,1.088v7.143a8.626,8.626,0,0,0,2.374.3C241.084,49.535,242.209,48.035,242.209,45.053Z"/><path class="cls-1" d="M257.057,43.113v7.9h-1.875V43.385c0-1.688-.687-2.377-2.084-2.377a5.746,5.746,0,0,0-3.335,1.088v8.915h-1.875V33.925h1.875v5l-.167,1.79a5.652,5.652,0,0,1,3.732-1.4C255.974,39.321,257.057,40.675,257.057,43.113Z"/><path class="cls-1" d="M270.339,43.488l-.1,7.523h-1.564V49.638a5.389,5.389,0,0,1-4.022,1.6c-2.292-.019-3.583-1.228-3.583-3.145,0-2.208,2.271-3.188,7.357-3.586l.019-.811c.021-1.458-.146-2.691-2.417-2.691a9.044,9.044,0,0,0-4,.98l-.5-1.561a10.071,10.071,0,0,1,4.645-1.106C269.945,39.321,270.36,41.238,270.339,43.488Zm-1.978,4.879.042-2.334c-3.835.309-5.461.853-5.461,2.02,0,.957.668,1.524,1.959,1.543A5.153,5.153,0,0,0,268.361,48.367Z"/><path class="cls-1" d="M284.706,44.842c0,4.585-2.271,6.38-5.688,6.38a12.836,12.836,0,0,1-4.1-.605V33.925h1.875v5l-.167,1.772a5.615,5.615,0,0,1,3.729-1.378C283.185,39.344,284.706,41.322,284.706,44.842Zm-1.9.211c0-2.606-.917-4.021-2.689-4.045a5.6,5.6,0,0,0-3.332,1.088v7.143a8.626,8.626,0,0,0,2.374.3C281.685,49.535,282.81,48.035,282.81,45.053Z"/><path class="cls-1" d="M289.968,45.3c0,2.92,1.228,4.233,3.644,4.233a7.529,7.529,0,0,0,3.792-.98l.5,1.561a8.5,8.5,0,0,1-4.334,1.106c-3.4,0-5.5-1.917-5.5-5.817s2.4-6.061,5.4-6.061c3.417,0,4.938,2.123,4.481,5.836h-7.98Zm.145-1.627h6.042c-.042-1.912-.937-2.7-2.812-2.7A3.054,3.054,0,0,0,290.113,43.675Z"/><path class="cls-1" d="M311.563,50.327a8.468,8.468,0,0,1-3.938.9c-3.126,0-3.689-1.711-3.647-4.167l.125-5.836H301.29V39.55h2.834l.063-2.709h1.938l-.354,2.709h5.375v1.669H306.02l-.124,5.625c-.043,1.458.145,2.691,1.793,2.691a7.443,7.443,0,0,0,3.375-.774Z"/><path class="cls-1" d="M324.055,43.8v1.687h-7.919V43.8Z"/><path class="cls-1" d="M338.628,42.888v2.039l-10,4.5V47.388l8.292-3.375V43.8l-8.292-3.356V38.383Z"/><path class="cls-2" d="M347.078,36.466v14.92h4.209V53.1h-6.126V34.76h6.126v1.706Z"/><path class="cls-2" d="M362.694,53.1h-6.126V51.386h4.209V36.466h-4.209V34.76h6.126Z"/><path class="cls-1" d="M149.125,97.928v1.664h-9.919V97.928h4.022V82.507H145.1V97.928Z"/><path class="cls-1" d="M162.074,92.069l-.1,7.523h-1.564V98.219a5.385,5.385,0,0,1-4.021,1.6c-2.293-.019-3.584-1.228-3.584-3.145,0-2.208,2.271-3.188,7.357-3.586l.019-.811c.021-1.458-.146-2.691-2.417-2.691a9.04,9.04,0,0,0-4,.98l-.5-1.561a10.075,10.075,0,0,1,4.646-1.106C161.68,87.9,162.1,89.819,162.074,92.069Zm-1.978,4.88.042-2.335c-3.835.31-5.461.853-5.461,2.021,0,.956.668,1.523,1.959,1.542A5.15,5.15,0,0,0,160.1,96.949Z"/><path class="cls-1" d="M176.232,98.908a8.461,8.461,0,0,1-3.937.895c-3.127,0-3.689-1.711-3.647-4.167l.124-5.836H165.96V88.132h2.833l.064-2.71H170.8l-.354,2.71h5.374V89.8h-5.126l-.124,5.625c-.042,1.458.146,2.691,1.793,2.691a7.44,7.44,0,0,0,3.375-.774Z"/><path class="cls-1" d="M189.932,97.928v1.664h-9.919V97.928h4.23V89.8h-4.23V88.132h6.1v9.8ZM183.1,84.382a1.877,1.877,0,1,1,1.875,1.875A1.869,1.869,0,0,1,183.1,84.382Z"/><path class="cls-1" d="M202.923,91.694v7.9h-1.875V91.966c0-1.688-.687-2.377-2.084-2.377a5.756,5.756,0,0,0-3.335,1.088v8.915h-1.875V88.132h1.585V89.4a5.682,5.682,0,0,1,3.855-1.5C201.84,87.9,202.923,89.257,202.923,91.694Z"/><path class="cls-1" d="M216.831,85.422v8.316c0,4.378-2.084,6.065-5.063,6.065-3.147,0-4.938-1.645-4.938-5.92V85.422h1.917V93.78c0,3.23.9,4.312,3.064,4.312,2.186,0,3.1-1.125,3.1-4.251V85.422Z"/><path class="cls-1" d="M230.572,93.424c0,4.584-2.271,6.379-5.688,6.379a14,14,0,0,1-2.229-.168v3.707H220.78V88.132h1.582V89.4a5.593,5.593,0,0,1,3.856-1.5C229.051,87.925,230.572,89.9,230.572,93.424Zm-1.9.211c0-2.607-.916-4.022-2.688-4.046a5.617,5.617,0,0,0-3.333,1.088v7.144a8.626,8.626,0,0,0,2.374.3C227.551,98.116,228.676,96.616,228.676,93.635Z"/><path class="cls-1" d="M244.105,93.424c0,4.584-2.271,6.379-5.688,6.379a14,14,0,0,1-2.229-.168v3.707h-1.875V88.132H235.9V89.4a5.593,5.593,0,0,1,3.855-1.5C242.584,87.925,244.105,89.9,244.105,93.424Zm-1.9.211c0-2.607-.916-4.022-2.688-4.046a5.617,5.617,0,0,0-3.333,1.088v7.144a8.626,8.626,0,0,0,2.374.3C241.084,98.116,242.209,96.616,242.209,93.635Z"/><path class="cls-1" d="M249.369,93.883c0,2.92,1.228,4.233,3.645,4.233a7.532,7.532,0,0,0,3.792-.98l.5,1.561a8.5,8.5,0,0,1-4.333,1.106c-3.4,0-5.5-1.917-5.5-5.817s2.4-6.061,5.4-6.061c3.418,0,4.939,2.124,4.482,5.836h-7.981Zm.145-1.626h6.043c-.043-1.913-.938-2.7-2.813-2.7A3.055,3.055,0,0,0,249.514,92.257Z"/><path class="cls-1" d="M271.131,97.928v1.664h-9.919V97.928h2.981v-9.8h1.667l-.042,2.212,5.085-2.48.019,1.852-4.854,2.353v5.859Z"/><path class="cls-1" d="M274.536,93.986c0-4.144,2.522-6.061,5.712-6.061a8.861,8.861,0,0,1,4.167.938l-.544,1.687a7.527,7.527,0,0,0-3.792-.937c-2.208,0-3.626,1.312-3.626,4.27,0,2.92,1.128,4.233,3.626,4.233a7.144,7.144,0,0,0,3.792-1.064l.5,1.645a8.5,8.5,0,0,1-4.334,1.106C276.538,99.8,274.536,97.886,274.536,93.986Z"/><path class="cls-1" d="M297.4,92.069l-.1,7.523h-1.563V98.219a5.388,5.388,0,0,1-4.022,1.6c-2.292-.019-3.584-1.228-3.584-3.145,0-2.208,2.271-3.188,7.357-3.586l.019-.811c.021-1.458-.145-2.691-2.416-2.691a9.04,9.04,0,0,0-4,.98l-.5-1.561a10.071,10.071,0,0,1,4.645-1.106C297.011,87.9,297.425,89.819,297.4,92.069Zm-1.978,4.88.042-2.335c-3.834.31-5.461.853-5.461,2.021,0,.956.668,1.523,1.96,1.542A5.148,5.148,0,0,0,295.426,96.949Z"/><path class="cls-1" d="M301.665,98.927l.563-1.749a8.819,8.819,0,0,0,4.188.957c2.126,0,3.148-.5,3.148-1.561,0-2.316-7.69-1.542-7.69-5.335,0-2.147,1.9-3.314,4.9-3.314a10.719,10.719,0,0,1,4.148.811l-.543,1.711a8.1,8.1,0,0,0-3.605-.858c-1.978,0-3,.525-3,1.439,0,2.232,7.69,1.458,7.69,5.335,0,2.376-2.1,3.44-5.126,3.44A10.853,10.853,0,0,1,301.665,98.927Z"/><path class="cls-1" d="M317.033,93.883c0,2.92,1.228,4.233,3.645,4.233a7.532,7.532,0,0,0,3.792-.98l.5,1.561a8.5,8.5,0,0,1-4.333,1.106c-3.4,0-5.5-1.917-5.5-5.817s2.4-6.061,5.4-6.061c3.418,0,4.939,2.124,4.482,5.836h-7.981Zm.145-1.626h6.043c-.043-1.913-.938-2.7-2.813-2.7A3.055,3.055,0,0,0,317.178,92.257Z"/><path class="cls-1" d="M337.588,92.383v1.688h-7.92V92.383Z"/><path class="cls-1" d="M352.161,91.469v2.039l-10,4.5V95.969l8.292-3.375v-.211l-8.292-3.356V86.964Z"/><path class="cls-2" d="M360.611,85.047v14.92h4.209v1.711h-6.127V83.341h6.127v1.706Z"/><path class="cls-2" d="M372.913,85.422h2.627l-.187,7.088H373.1Z"/><path class="cls-2" d="M390.156,94.736h-4.878l-1.415,4.856h-1.938l4.312-14.17h3.042l4.315,14.17h-2Zm-.5-1.687-1.143-3.835-.5-2.123H387.4l-.5,2.123-1.125,3.835Z"/><path class="cls-2" d="M399.978,85.422h2.628l-.188,7.088h-2.252Z"/><path class="cls-2" d="M417.055,98.946c0,1.837-1.125,3.979-4.252,3.979v-1.561a2.215,2.215,0,0,0,2.522-1.856,1.233,1.233,0,0,1-.75.272,1.876,1.876,0,0,1,.082-3.75C415.764,96.03,417.055,96.949,417.055,98.946Z"/><path class="cls-2" d="M440.577,85.422H443.2l-.187,7.088h-2.253Z"/><path class="cls-2" d="M460.944,95.51c0,2.5-1.54,4.082-4.73,4.082h-5.5V85.422h4.708c3.148,0,4.669,1.191,4.669,3.792a4.884,4.884,0,0,1-1.334,3.127A3.047,3.047,0,0,1,460.944,95.51Zm-8.313-8.4V91.8h4.481a3.684,3.684,0,0,0,1.02-2.438c0-1.439-.687-2.25-2.916-2.25Zm6.356,8.522c0-1.148-.417-2.147-2.313-2.147h-4.043v4.416h3.417C458.591,97.905,458.987,96.949,458.987,95.636Z"/><path class="cls-2" d="M467.643,85.422h2.627l-.188,7.088H467.83Z"/><path class="cls-2" d="M484.721,98.946a3.864,3.864,0,0,1-4.251,3.979v-1.561a2.215,2.215,0,0,0,2.522-1.856,1.238,1.238,0,0,1-.75.272,1.876,1.876,0,0,1,.082-3.75C483.43,96.03,484.721,96.949,484.721,98.946Z"/><path class="cls-2" d="M508.243,85.422h2.628l-.188,7.088h-2.252Z"/><path class="cls-2" d="M517.9,92.636c0-5.5,3.375-7.42,6.459-7.42a8.151,8.151,0,0,1,4.062.937l-.541,1.646a6.859,6.859,0,0,0-3.687-.877c-2.105,0-4.336,1.317-4.336,5.606,0,4.252,1.814,5.564,4.336,5.564a7.372,7.372,0,0,0,3.687-.979l.5,1.584a8.391,8.391,0,0,1-4.23,1.106C520.651,99.8,517.9,97.886,517.9,92.636Z"/><path class="cls-2" d="M535.309,85.422h2.627l-.187,7.088H535.5Z"/><path class="cls-2" d="M552.386,98.946c0,1.837-1.125,3.979-4.252,3.979v-1.561a2.215,2.215,0,0,0,2.522-1.856,1.235,1.235,0,0,1-.75.272,1.876,1.876,0,0,1,.082-3.75C551.094,96.03,552.386,96.949,552.386,98.946Z"/><path class="cls-2" d="M575.345,97.905a1.876,1.876,0,1,1,1.875,1.875A1.868,1.868,0,0,1,575.345,97.905Z"/><path class="cls-2" d="M588.878,97.905a1.876,1.876,0,1,1,1.875,1.875A1.868,1.868,0,0,1,588.878,97.905Z"/><path class="cls-2" d="M602.411,97.905a1.876,1.876,0,1,1,1.875,1.875A1.868,1.868,0,0,1,602.411,97.905Z"/><path class="cls-2" d="M620.05,98.946c0,1.837-1.125,3.979-4.252,3.979v-1.561a2.215,2.215,0,0,0,2.522-1.856,1.235,1.235,0,0,1-.75.272,1.876,1.876,0,0,1,.082-3.75C618.758,96.03,620.05,96.949,620.05,98.946Z"/><path class="cls-2" d="M630.039,85.422h2.627l-.188,7.088h-2.252Z"/><path class="cls-2" d="M645.032,93.114h-.354l-3.314,6.478H639.3l3.98-7.415L639.4,85.422h2.023l3.333,5.9h.333l3.356-5.9h1.917l-3.9,6.713,4,7.457h-2.062Z"/><path class="cls-2" d="M657.1,85.422h2.628l-.188,7.088h-2.252Z"/><path class="cls-2" d="M674.181,98.946c0,1.837-1.125,3.979-4.252,3.979v-1.561a2.215,2.215,0,0,0,2.522-1.856,1.233,1.233,0,0,1-.75.272,1.876,1.876,0,0,1,.082-3.75C672.889,96.03,674.181,96.949,674.181,98.946Z"/><path class="cls-2" d="M697.705,85.422h2.627l-.187,7.088h-2.252Z"/><path class="cls-2" d="M713.509,97.886h4v1.706h-9.919V97.886h4V93.508l-5.042-8.086H708.7l2.749,4.585,1.043,2.085h.249l1.064-2.085,2.749-4.585h2l-5.044,8.086Z"/><path class="cls-2" d="M724.771,85.422H727.4l-.187,7.088h-2.253Z"/><path class="cls-2" d="M741.847,98.946a3.864,3.864,0,0,1-4.251,3.979v-1.561a2.215,2.215,0,0,0,2.522-1.856,1.238,1.238,0,0,1-.75.272,1.876,1.876,0,0,1,.082-3.75C740.556,96.03,741.847,96.949,741.847,98.946Z"/><path class="cls-2" d="M765.369,85.422H768l-.187,7.088h-2.252Z"/><path class="cls-2" d="M785.343,97.886v1.706H775.089V97.675l7-9.356.916-.895v-.291H775.3V85.422h9.837v1.917l-7,9.357-.938.895v.3Z"/><path class="cls-2" d="M792.435,85.422h2.627l-.187,7.088h-2.253Z"/><path class="cls-2" d="M809.282,101.678h-6.127V99.967h4.209V85.047h-4.209V83.341h6.127Z"/><path class="cls-1" d="M149.125,146.505v1.669h-9.919v-1.669h4.022V131.088H145.1v15.417Z"/><path class="cls-1" d="M162.074,140.65l-.1,7.524h-1.564V146.8a5.408,5.408,0,0,1-4.021,1.607c-2.293-.023-3.584-1.232-3.584-3.15,0-2.207,2.271-3.187,7.357-3.581l.019-.815c.021-1.458-.146-2.686-2.417-2.686a8.972,8.972,0,0,0-4,.979l-.5-1.561a10.026,10.026,0,0,1,4.646-1.106C161.68,136.483,162.1,138.4,162.074,140.65Zm-1.978,4.875.042-2.334c-3.835.314-5.461.858-5.461,2.025,0,.956.668,1.519,1.959,1.537A5.1,5.1,0,0,0,160.1,145.525Z"/><path class="cls-1" d="M176.232,147.485a8.4,8.4,0,0,1-3.937.895c-3.127,0-3.689-1.706-3.647-4.167l.124-5.836H165.96v-1.664h2.833l.064-2.71H170.8l-.354,2.71h5.374v1.664h-5.126l-.124,5.63c-.042,1.457.146,2.685,1.793,2.685a7.5,7.5,0,0,0,3.375-.768Z"/><path class="cls-1" d="M189.932,146.505v1.669h-9.919v-1.669h4.23v-8.128h-4.23v-1.664h6.1v9.792ZM183.1,132.963a1.877,1.877,0,1,1,1.875,1.875A1.866,1.866,0,0,1,183.1,132.963Z"/><path class="cls-1" d="M202.923,140.275v7.9h-1.875v-7.627c0-1.687-.687-2.376-2.084-2.376a5.746,5.746,0,0,0-3.335,1.082v8.921h-1.875V136.713h1.585v1.27a5.663,5.663,0,0,1,3.855-1.5C201.84,136.483,202.923,137.838,202.923,140.275Z"/><path class="cls-1" d="M214.227,143.317H209.35l-1.416,4.857H206L210.308,134h3.042l4.315,14.171h-2Zm-.5-1.687-1.146-3.834-.5-2.124h-.605l-.5,2.124-1.125,3.834Z"/><path class="cls-1" d="M230.321,146.505v1.669H220.4v-1.669h4.022V131.088H226.3v15.417Z"/><path class="cls-1" d="M244.105,142.005c0,4.584-2.271,6.375-5.688,6.375a14.034,14.034,0,0,1-2.229-.164v3.708h-1.875V136.713H235.9v1.27a5.556,5.556,0,0,1,3.855-1.5C242.584,136.5,244.105,138.485,244.105,142.005Zm-1.9.206c0-2.6-.916-4.022-2.688-4.04a5.6,5.6,0,0,0-3.333,1.082V146.4a8.823,8.823,0,0,0,2.374.29C241.084,146.692,242.209,145.192,242.209,142.211Z"/><path class="cls-1" d="M257.057,140.275v7.9h-1.875v-7.627c0-1.687-.687-2.376-2.084-2.376a5.744,5.744,0,0,0-3.335,1.082v8.921h-1.875V131.088h1.875v5l-.167,1.795a5.648,5.648,0,0,1,3.732-1.4C255.974,136.483,257.057,137.838,257.057,140.275Z"/><path class="cls-1" d="M270.339,140.65l-.1,7.524h-1.564V146.8a5.409,5.409,0,0,1-4.022,1.607c-2.292-.023-3.583-1.232-3.583-3.15,0-2.207,2.271-3.187,7.357-3.581l.019-.815c.021-1.458-.146-2.686-2.417-2.686a8.976,8.976,0,0,0-4,.979l-.5-1.561a10.022,10.022,0,0,1,4.645-1.106C269.945,136.483,270.36,138.4,270.339,140.65Zm-1.978,4.875.042-2.334c-3.835.314-5.461.858-5.461,2.025,0,.956.668,1.519,1.959,1.537A5.1,5.1,0,0,0,268.361,145.525Z"/><path class="cls-1" d="M284.706,142.005c0,4.584-2.271,6.375-5.688,6.375a12.836,12.836,0,0,1-4.1-.6V131.088h1.875v5l-.167,1.772a5.609,5.609,0,0,1,3.729-1.374C283.185,136.5,284.706,138.485,284.706,142.005Zm-1.9.206c0-2.6-.917-4.022-2.689-4.04a5.6,5.6,0,0,0-3.332,1.082V146.4a8.823,8.823,0,0,0,2.374.29C281.685,146.692,282.81,145.192,282.81,142.211Z"/><path class="cls-1" d="M289.968,142.464c0,2.916,1.228,4.228,3.644,4.228a7.478,7.478,0,0,0,3.792-.979l.5,1.565a8.5,8.5,0,0,1-4.334,1.1c-3.4,0-5.5-1.917-5.5-5.813s2.4-6.065,5.4-6.065c3.417,0,4.938,2.128,4.481,5.836h-7.98Zm.145-1.626h6.042c-.042-1.917-.937-2.71-2.812-2.71A3.055,3.055,0,0,0,290.113,140.838Z"/><path class="cls-1" d="M311.563,147.485a8.407,8.407,0,0,1-3.938.895c-3.126,0-3.689-1.706-3.647-4.167l.125-5.836H301.29v-1.664h2.834l.063-2.71h1.938l-.354,2.71h5.375v1.664H306.02l-.124,5.63c-.043,1.457.145,2.685,1.793,2.685a7.5,7.5,0,0,0,3.375-.768Z"/><path class="cls-1" d="M324.055,140.964v1.688h-7.919v-1.688Z"/><path class="cls-1" d="M338.628,140.046v2.043l-10,4.5v-2.043l8.292-3.375v-.207l-8.292-3.356v-2.062Z"/><path class="cls-2" d="M347.078,133.628v14.921h4.209v1.706h-6.126V131.917h6.126v1.711Z"/><path class="cls-2" d="M359.38,134h2.627l-.187,7.083h-2.252Z"/><path class="cls-2" d="M378.6,140.65l-.1,7.524h-1.563V146.8a5.412,5.412,0,0,1-4.022,1.607c-2.292-.023-3.584-1.232-3.584-3.15,0-2.207,2.271-3.187,7.357-3.581l.019-.815c.021-1.458-.145-2.686-2.416-2.686a8.973,8.973,0,0,0-4,.979l-.5-1.561a10.019,10.019,0,0,1,4.645-1.106C378.207,136.483,378.622,138.4,378.6,140.65Zm-1.978,4.875.042-2.334c-3.834.314-5.461.858-5.461,2.025,0,.956.668,1.519,1.96,1.537A5.1,5.1,0,0,0,376.623,145.525Z"/><path class="cls-2" d="M386.446,134h2.627l-.187,7.083h-2.253Z"/><path class="cls-2" d="M403.522,147.527a3.867,3.867,0,0,1-4.251,3.98v-1.561a2.218,2.218,0,0,0,2.522-1.857,1.263,1.263,0,0,1-.75.272,1.876,1.876,0,0,1,.082-3.75C402.231,144.611,403.522,145.525,403.522,147.527Z"/><path class="cls-2" d="M427.044,134h2.627l-.187,7.083h-2.252Z"/><path class="cls-2" d="M447.1,142.005c0,4.584-2.272,6.375-5.689,6.375a12.841,12.841,0,0,1-4.1-.6V131.088h1.875v5l-.166,1.772a5.609,5.609,0,0,1,3.729-1.374C445.578,136.5,447.1,138.485,447.1,142.005Zm-1.9.206c0-2.6-.916-4.022-2.688-4.04a5.6,5.6,0,0,0-3.333,1.082V146.4a8.831,8.831,0,0,0,2.375.29C444.078,146.692,445.2,145.192,445.2,142.211Z"/><path class="cls-2" d="M454.11,134h2.627l-.187,7.083H454.3Z"/><path class="cls-2" d="M471.186,147.527a3.867,3.867,0,0,1-4.251,3.98v-1.561a2.218,2.218,0,0,0,2.522-1.857,1.263,1.263,0,0,1-.75.272,1.876,1.876,0,0,1,.082-3.75C469.9,144.611,471.186,145.525,471.186,147.527Z"/><path class="cls-2" d="M494.711,134h2.627l-.188,7.083H494.9Z"/><path class="cls-2" d="M504.6,142.567c0-4.148,2.522-6.065,5.712-6.065a8.873,8.873,0,0,1,4.167.937l-.543,1.688a7.531,7.531,0,0,0-3.793-.938c-2.207,0-3.625,1.313-3.625,4.275,0,2.916,1.127,4.228,3.625,4.228a7.094,7.094,0,0,0,3.793-1.064l.5,1.65a8.5,8.5,0,0,1-4.333,1.1C506.6,148.38,504.6,146.463,504.6,142.567Z"/><path class="cls-2" d="M521.776,134H524.4l-.187,7.083h-2.252Z"/><path class="cls-2" d="M538.853,147.527a3.867,3.867,0,0,1-4.252,3.98v-1.561a2.218,2.218,0,0,0,2.522-1.857,1.261,1.261,0,0,1-.75.272,1.876,1.876,0,0,1,.082-3.75C537.561,144.611,538.853,145.525,538.853,147.527Z"/><path class="cls-2" d="M561.812,146.486a1.876,1.876,0,1,1,1.875,1.875A1.866,1.866,0,0,1,561.812,146.486Z"/><path class="cls-2" d="M575.345,146.486a1.876,1.876,0,1,1,1.875,1.875A1.866,1.866,0,0,1,575.345,146.486Z"/><path class="cls-2" d="M588.878,146.486a1.876,1.876,0,1,1,1.875,1.875A1.866,1.866,0,0,1,588.878,146.486Z"/><path class="cls-2" d="M606.517,147.527a3.867,3.867,0,0,1-4.252,3.98v-1.561a2.218,2.218,0,0,0,2.522-1.857,1.261,1.261,0,0,1-.75.272,1.876,1.876,0,0,1,.082-3.75C605.225,144.611,606.517,145.525,606.517,147.527Z"/><path class="cls-2" d="M616.506,134h2.627l-.187,7.083h-2.253Z"/><path class="cls-2" d="M631.436,143.214h-.23l-3.063,4.96H626.08l3.919-6-3.856-5.456h2.063l3.063,4.481h.27l3.063-4.481h1.959l-3.855,5.419,3.919,6.042h-2.063Z"/><path class="cls-2" d="M643.571,134H646.2l-.188,7.083h-2.252Z"/><path class="cls-2" d="M660.648,147.527a3.867,3.867,0,0,1-4.252,3.98v-1.561a2.218,2.218,0,0,0,2.522-1.857,1.258,1.258,0,0,1-.75.272,1.876,1.876,0,0,1,.082-3.75C659.357,144.611,660.648,145.525,660.648,147.527Z"/><path class="cls-2" d="M684.172,134H686.8l-.188,7.083H684.36Z"/><path class="cls-2" d="M699.957,150.255h3.291v1.669h-8.459v-1.669h3.291v-2.311l-4.437-11.231h2.021l2.395,6.229.813,2.583h.417l.835-2.583,2.353-6.229h1.917l-4.437,11.231Z"/><path class="cls-2" d="M711.238,134h2.627l-.187,7.083h-2.253Z"/><path class="cls-2" d="M728.314,147.527a3.867,3.867,0,0,1-4.251,3.98v-1.561a2.218,2.218,0,0,0,2.522-1.857,1.263,1.263,0,0,1-.75.272,1.876,1.876,0,0,1,.082-3.75C727.023,144.611,728.314,145.525,728.314,147.527Z"/><path class="cls-2" d="M751.836,134h2.628l-.188,7.083h-2.252Z"/><path class="cls-2" d="M771.662,146.505v1.669h-9.834v-2.086l7.521-7.711h-7.313v-1.664h9.417v2.081l-7.521,7.711Z"/><path class="cls-2" d="M778.9,134h2.627l-.187,7.083h-2.253Z"/><path class="cls-2" d="M795.749,150.255h-6.127v-1.706h4.21V133.628h-4.21v-1.711h6.127Z"/><path class="cls-1" d="M149.125,243.667v1.669h-9.919v-1.669h4.022V228.25H145.1v15.417Z"/><path class="cls-1" d="M162.074,237.813l-.1,7.523h-1.564v-1.378a5.409,5.409,0,0,1-4.021,1.608c-2.293-.024-3.584-1.233-3.584-3.15,0-2.208,2.271-3.188,7.357-3.581l.019-.816c.021-1.458-.146-2.686-2.417-2.686a8.973,8.973,0,0,0-4,.98l-.5-1.561a10.026,10.026,0,0,1,4.646-1.106C161.68,233.646,162.1,235.563,162.074,237.813Zm-1.978,4.875.042-2.335c-3.835.314-5.461.858-5.461,2.025,0,.957.668,1.519,1.959,1.538A5.105,5.105,0,0,0,160.1,242.688Z"/><path class="cls-1" d="M176.232,244.647a8.4,8.4,0,0,1-3.937.9c-3.127,0-3.689-1.706-3.647-4.167l.124-5.836H165.96v-1.664h2.833l.064-2.709H170.8l-.354,2.709h5.374v1.664h-5.126l-.124,5.63c-.042,1.458.146,2.686,1.793,2.686a7.5,7.5,0,0,0,3.375-.769Z"/><path class="cls-1" d="M189.932,243.667v1.669h-9.919v-1.669h4.23v-8.128h-4.23v-1.664h6.1v9.792ZM183.1,230.125A1.877,1.877,0,1,1,184.972,232,1.866,1.866,0,0,1,183.1,230.125Z"/><path class="cls-1" d="M202.923,237.438v7.9h-1.875V237.71c0-1.688-.687-2.377-2.084-2.377a5.747,5.747,0,0,0-3.335,1.083v8.92h-1.875V233.875h1.585v1.271a5.659,5.659,0,0,1,3.855-1.5C201.84,233.646,202.923,235,202.923,237.438Z"/><path class="cls-1" d="M214.227,240.48H209.35l-1.416,4.856H206l4.312-14.17h3.042l4.315,14.17h-2Zm-.5-1.688-1.146-3.834-.5-2.123h-.605l-.5,2.123-1.125,3.834Z"/><path class="cls-1" d="M230.321,243.667v1.669H220.4v-1.669h4.022V228.25H226.3v15.417Z"/><path class="cls-1" d="M244.105,239.167c0,4.585-2.271,6.375-5.688,6.375a13.917,13.917,0,0,1-2.229-.164v3.708h-1.875V233.875H235.9v1.271a5.547,5.547,0,0,1,3.855-1.5C242.584,233.664,244.105,235.647,244.105,239.167Zm-1.9.207c0-2.6-.916-4.022-2.688-4.041a5.6,5.6,0,0,0-3.333,1.083v7.148a8.783,8.783,0,0,0,2.374.291C241.084,243.855,242.209,242.355,242.209,239.374Z"/><path class="cls-1" d="M257.057,237.438v7.9h-1.875V237.71c0-1.688-.687-2.377-2.084-2.377a5.745,5.745,0,0,0-3.335,1.083v8.92h-1.875V228.25h1.875v5l-.167,1.795a5.652,5.652,0,0,1,3.732-1.4C255.974,233.646,257.057,235,257.057,237.438Z"/><path class="cls-1" d="M270.339,237.813l-.1,7.523h-1.564v-1.378a5.41,5.41,0,0,1-4.022,1.608c-2.292-.024-3.583-1.233-3.583-3.15,0-2.208,2.271-3.188,7.357-3.581l.019-.816c.021-1.458-.146-2.686-2.417-2.686a8.977,8.977,0,0,0-4,.98l-.5-1.561a10.022,10.022,0,0,1,4.645-1.106C269.945,233.646,270.36,235.563,270.339,237.813Zm-1.978,4.875.042-2.335c-3.835.314-5.461.858-5.461,2.025,0,.957.668,1.519,1.959,1.538A5.107,5.107,0,0,0,268.361,242.688Z"/><path class="cls-1" d="M284.706,239.167c0,4.585-2.271,6.375-5.688,6.375a12.84,12.84,0,0,1-4.1-.6V228.25h1.875v5l-.167,1.772a5.608,5.608,0,0,1,3.729-1.373C283.185,233.664,284.706,235.647,284.706,239.167Zm-1.9.207c0-2.6-.917-4.022-2.689-4.041a5.6,5.6,0,0,0-3.332,1.083v7.148a8.783,8.783,0,0,0,2.374.291C281.685,243.855,282.81,242.355,282.81,239.374Z"/><path class="cls-1" d="M289.968,239.627c0,2.915,1.228,4.228,3.644,4.228a7.479,7.479,0,0,0,3.792-.98l.5,1.566a8.5,8.5,0,0,1-4.334,1.1c-3.4,0-5.5-1.917-5.5-5.812s2.4-6.066,5.4-6.066c3.417,0,4.938,2.128,4.481,5.836h-7.98Zm.145-1.627h6.042c-.042-1.917-.937-2.709-2.812-2.709A3.055,3.055,0,0,0,290.113,238Z"/><path class="cls-1" d="M311.563,244.647a8.407,8.407,0,0,1-3.938.9c-3.126,0-3.689-1.706-3.647-4.167l.125-5.836H301.29v-1.664h2.834l.063-2.709h1.938l-.354,2.709h5.375v1.664H306.02l-.124,5.63c-.043,1.458.145,2.686,1.793,2.686a7.5,7.5,0,0,0,3.375-.769Z"/><path class="cls-1" d="M318.219,243.649a1.876,1.876,0,1,1,1.875,1.875A1.865,1.865,0,0,1,318.219,243.649Z"/><path class="cls-2" d="M330.566,239.627c0,2.915,1.228,4.228,3.645,4.228a7.481,7.481,0,0,0,3.792-.98l.5,1.566a8.5,8.5,0,0,1-4.333,1.1c-3.4,0-5.5-1.917-5.5-5.812s2.4-6.066,5.4-6.066c3.417,0,4.938,2.128,4.481,5.836h-7.98Zm.145-1.627h6.042c-.042-1.917-.937-2.709-2.812-2.709A3.055,3.055,0,0,0,330.711,238Z"/><path class="cls-2" d="M347.244,240.377h-.23l-3.063,4.959h-2.062l3.918-6-3.855-5.457h2.062l3.064,4.482h.269l3.064-4.482h1.959l-3.856,5.419,3.919,6.042h-2.062Z"/><path class="cls-2" d="M365.694,244.647a8.4,8.4,0,0,1-3.937.9c-3.127,0-3.689-1.706-3.647-4.167l.124-5.836h-2.813v-1.664h2.834l.063-2.709h1.939l-.354,2.709h5.374v1.664h-5.126l-.124,5.63c-.042,1.458.145,2.686,1.793,2.686a7.5,7.5,0,0,0,3.375-.769Z"/><path class="cls-2" d="M371.164,239.627c0,2.915,1.229,4.228,3.645,4.228a7.479,7.479,0,0,0,3.792-.98l.5,1.566a8.506,8.506,0,0,1-4.334,1.1c-3.4,0-5.5-1.917-5.5-5.812s2.4-6.066,5.4-6.066c3.417,0,4.938,2.128,4.481,5.836h-7.981ZM371.31,238h6.042c-.042-1.917-.938-2.709-2.813-2.709A3.054,3.054,0,0,0,371.31,238Z"/><path class="cls-2" d="M392.385,237.438v7.9H390.51V237.71c0-1.688-.687-2.377-2.084-2.377a5.745,5.745,0,0,0-3.335,1.083v8.92h-1.875V233.875H384.8v1.271a5.661,5.661,0,0,1,3.856-1.5C391.3,233.646,392.385,235,392.385,237.438Z"/><path class="cls-2" d="M405.875,228.25v17.086h-1.624V244.1a5.512,5.512,0,0,1-3.813,1.463c-2.834-.024-4.355-2-4.355-5.522,0-4.584,2.271-6.38,5.688-6.38a14,14,0,0,1,2.229.169V228.25ZM404,242.791v-7.144a8.626,8.626,0,0,0-2.374-.295c-2.522,0-3.647,1.5-3.647,4.481,0,2.606.917,4.022,2.689,4.045A5.606,5.606,0,0,0,404,242.791Z"/><path class="cls-2" d="M412.032,238.249c0-7.627,2.417-9.169,6.19-9.169v1.711c-2.854,0-4.209.98-4.209,7.251,0,6.69,1.355,7.669,4.209,7.669v1.706C414.449,247.417,412.032,246.086,412.032,238.249Z"/><path class="cls-1" d="M433.316,243.667v1.669H423.4v-1.669h4.022V228.25H429.3v15.417Z"/><path class="cls-1" d="M446.265,237.813l-.1,7.523H444.6v-1.378a5.413,5.413,0,0,1-4.022,1.608c-2.292-.024-3.584-1.233-3.584-3.15,0-2.208,2.271-3.188,7.357-3.581l.019-.816c.021-1.458-.145-2.686-2.416-2.686a8.974,8.974,0,0,0-4,.98l-.5-1.561a10.022,10.022,0,0,1,4.645-1.106C445.871,233.646,446.286,235.563,446.265,237.813Zm-1.978,4.875.042-2.335c-3.834.314-5.461.858-5.461,2.025,0,.957.668,1.519,1.96,1.538A5.1,5.1,0,0,0,444.287,242.688Z"/><path class="cls-1" d="M460.424,244.647a8.407,8.407,0,0,1-3.938.9c-3.126,0-3.689-1.706-3.647-4.167l.125-5.836h-2.813v-1.664h2.834l.063-2.709h1.938l-.354,2.709h5.375v1.664h-5.126l-.124,5.63c-.043,1.458.145,2.686,1.793,2.686a7.5,7.5,0,0,0,3.375-.769Z"/><path class="cls-1" d="M474.123,243.667v1.669H464.2v-1.669h4.231v-8.128H464.2v-1.664h6.106v9.792Zm-6.834-13.542A1.876,1.876,0,1,1,469.164,232,1.866,1.866,0,0,1,467.289,230.125Z"/><path class="cls-1" d="M487.117,237.438v7.9h-1.875V237.71c0-1.688-.687-2.377-2.084-2.377a5.745,5.745,0,0,0-3.335,1.083v8.92h-1.875V233.875h1.584v1.271a5.661,5.661,0,0,1,3.856-1.5C486.034,233.646,487.117,235,487.117,237.438Z"/><path class="cls-1" d="M501.025,231.166v8.316c0,4.373-2.084,6.06-5.063,6.06-3.148,0-4.938-1.645-4.938-5.915v-8.461h1.917v8.358c0,3.229.9,4.312,3.063,4.312,2.187,0,3.1-1.125,3.1-4.251v-8.419Z"/><path class="cls-1" d="M514.766,239.167c0,4.585-2.271,6.375-5.688,6.375a13.917,13.917,0,0,1-2.229-.164v3.708h-1.875V233.875h1.582v1.271a5.547,5.547,0,0,1,3.855-1.5C513.245,233.664,514.766,235.647,514.766,239.167Zm-1.9.207c0-2.6-.917-4.022-2.688-4.041a5.6,5.6,0,0,0-3.333,1.083v7.148a8.783,8.783,0,0,0,2.374.291C511.745,243.855,512.87,242.355,512.87,239.374Z"/><path class="cls-1" d="M528.3,239.167c0,4.585-2.271,6.375-5.688,6.375a13.917,13.917,0,0,1-2.229-.164v3.708h-1.875V233.875h1.582v1.271a5.547,5.547,0,0,1,3.855-1.5C526.778,233.664,528.3,235.647,528.3,239.167Zm-1.9.207c0-2.6-.917-4.022-2.689-4.041a5.6,5.6,0,0,0-3.332,1.083v7.148a8.783,8.783,0,0,0,2.374.291C525.278,243.855,526.4,242.355,526.4,239.374Z"/><path class="cls-1" d="M533.561,239.627c0,2.915,1.228,4.228,3.644,4.228a7.479,7.479,0,0,0,3.792-.98l.5,1.566a8.5,8.5,0,0,1-4.334,1.1c-3.4,0-5.5-1.917-5.5-5.812s2.4-6.066,5.4-6.066c3.417,0,4.938,2.128,4.481,5.836h-7.98Zm.145-1.627h6.042c-.042-1.917-.937-2.709-2.812-2.709A3.055,3.055,0,0,0,533.706,238Z"/><path class="cls-1" d="M555.322,243.667v1.669H545.4v-1.669h2.982v-9.792h1.666l-.042,2.208,5.086-2.48.019,1.857-4.854,2.353v5.854Z"/><path class="cls-1" d="M558.728,239.73c0-4.148,2.522-6.066,5.711-6.066a8.868,8.868,0,0,1,4.168.938l-.544,1.687a7.529,7.529,0,0,0-3.792-.937c-2.208,0-3.626,1.312-3.626,4.275,0,2.915,1.127,4.228,3.626,4.228a7.1,7.1,0,0,0,3.792-1.064l.5,1.65a8.5,8.5,0,0,1-4.333,1.1C560.729,245.542,558.728,243.625,558.728,239.73Z"/><path class="cls-1" d="M581.6,237.813l-.1,7.523h-1.564v-1.378a5.41,5.41,0,0,1-4.022,1.608c-2.292-.024-3.583-1.233-3.583-3.15,0-2.208,2.271-3.188,7.357-3.581l.019-.816c.021-1.458-.146-2.686-2.417-2.686a8.977,8.977,0,0,0-4,.98l-.5-1.561a10.022,10.022,0,0,1,4.645-1.106C581.2,233.646,581.617,235.563,581.6,237.813Zm-1.978,4.875.042-2.335c-3.835.314-5.461.858-5.461,2.025,0,.957.668,1.519,1.959,1.538A5.107,5.107,0,0,0,579.618,242.688Z"/><path class="cls-1" d="M585.857,244.666l.562-1.749a8.82,8.82,0,0,0,4.188.961c2.126,0,3.148-.5,3.148-1.565,0-2.311-7.69-1.542-7.69-5.335,0-2.146,1.9-3.314,4.9-3.314a10.632,10.632,0,0,1,4.149.816l-.544,1.706a8.162,8.162,0,0,0-3.605-.853c-1.978,0-3,.52-3,1.439,0,2.227,7.69,1.458,7.69,5.335,0,2.371-2.1,3.435-5.126,3.435A10.845,10.845,0,0,1,585.857,244.666Z"/><path class="cls-1" d="M601.225,239.627c0,2.915,1.228,4.228,3.644,4.228a7.479,7.479,0,0,0,3.792-.98l.5,1.566a8.5,8.5,0,0,1-4.334,1.1c-3.4,0-5.5-1.917-5.5-5.812s2.4-6.066,5.4-6.066c3.417,0,4.938,2.128,4.481,5.836h-7.98ZM601.37,238h6.042c-.042-1.917-.937-2.709-2.812-2.709A3.055,3.055,0,0,0,601.37,238Z"/><path class="cls-2" d="M620.612,238.249c0,7.626-2.419,9.168-6.19,9.168v-1.706c2.855,0,4.21-.979,4.21-7.251,0-6.689-1.355-7.669-4.21-7.669V229.08C618.193,229.08,620.612,230.416,620.612,238.249Z"/><path class="cls-1" d="M149.125,292.249v1.664h-9.919v-1.664h4.022V276.827H145.1v15.422Z"/><path class="cls-1" d="M162.074,286.389l-.1,7.524h-1.564v-1.374a5.381,5.381,0,0,1-4.021,1.6c-2.293-.018-3.584-1.228-3.584-3.145,0-2.208,2.271-3.187,7.357-3.586l.019-.811c.021-1.458-.146-2.69-2.417-2.69a9.039,9.039,0,0,0-4,.979l-.5-1.561a10.088,10.088,0,0,1,4.646-1.106C161.68,282.222,162.1,284.139,162.074,286.389Zm-1.978,4.88.042-2.334c-3.835.309-5.461.853-5.461,2.02,0,.956.668,1.523,1.959,1.542A5.15,5.15,0,0,0,160.1,291.269Z"/><path class="cls-1" d="M176.232,293.228a8.449,8.449,0,0,1-3.937.9c-3.127,0-3.689-1.711-3.647-4.167l.124-5.836H165.96v-1.669h2.833l.064-2.71H170.8l-.354,2.71h5.374v1.669h-5.126l-.124,5.625c-.042,1.457.146,2.69,1.793,2.69a7.438,7.438,0,0,0,3.375-.773Z"/><path class="cls-1" d="M189.932,292.249v1.664h-9.919v-1.664h4.23v-8.128h-4.23v-1.669h6.1v9.8ZM183.1,278.7a1.877,1.877,0,1,1,1.875,1.875A1.869,1.869,0,0,1,183.1,278.7Z"/><path class="cls-1" d="M202.923,286.014v7.9h-1.875v-7.627c0-1.687-.687-2.376-2.084-2.376A5.754,5.754,0,0,0,195.629,285v8.916h-1.875V282.452h1.585v1.27a5.687,5.687,0,0,1,3.855-1.5C201.84,282.222,202.923,283.577,202.923,286.014Z"/><path class="cls-1" d="M214.227,289.057H209.35l-1.416,4.856H206l4.312-14.171h3.042l4.315,14.171h-2Zm-.5-1.688-1.146-3.834-.5-2.124h-.605l-.5,2.124-1.125,3.834Z"/><path class="cls-1" d="M230.321,292.249v1.664H220.4v-1.664h4.022V276.827H226.3v15.422Z"/><path class="cls-1" d="M244.105,287.744c0,4.584-2.271,6.38-5.688,6.38a13.986,13.986,0,0,1-2.229-.169v3.708h-1.875V282.452H235.9v1.27a5.6,5.6,0,0,1,3.855-1.5C242.584,282.246,244.105,284.224,244.105,287.744Zm-1.9.211c0-2.606-.916-4.022-2.688-4.045A5.608,5.608,0,0,0,236.188,285v7.144a8.626,8.626,0,0,0,2.374.295C241.084,292.436,242.209,290.936,242.209,287.955Z"/><path class="cls-1" d="M257.057,286.014v7.9h-1.875v-7.627c0-1.687-.687-2.376-2.084-2.376A5.752,5.752,0,0,0,249.763,285v8.916h-1.875V276.827h1.875v5l-.167,1.791a5.648,5.648,0,0,1,3.732-1.4C255.974,282.222,257.057,283.577,257.057,286.014Z"/><path class="cls-1" d="M270.339,286.389l-.1,7.524h-1.564v-1.374a5.381,5.381,0,0,1-4.022,1.6c-2.292-.018-3.583-1.228-3.583-3.145,0-2.208,2.271-3.187,7.357-3.586l.019-.811c.021-1.458-.146-2.69-2.417-2.69a9.043,9.043,0,0,0-4,.979l-.5-1.561a10.084,10.084,0,0,1,4.645-1.106C269.945,282.222,270.36,284.139,270.339,286.389Zm-1.978,4.88.042-2.334c-3.835.309-5.461.853-5.461,2.02,0,.956.668,1.523,1.959,1.542A5.152,5.152,0,0,0,268.361,291.269Z"/><path class="cls-1" d="M284.706,287.744c0,4.584-2.271,6.38-5.688,6.38a12.836,12.836,0,0,1-4.1-.605V276.827h1.875v5l-.167,1.772a5.615,5.615,0,0,1,3.729-1.378C283.185,282.246,284.706,284.224,284.706,287.744Zm-1.9.211c0-2.606-.917-4.022-2.689-4.045A5.606,5.606,0,0,0,276.789,285v7.144a8.626,8.626,0,0,0,2.374.295C281.685,292.436,282.81,290.936,282.81,287.955Z"/><path class="cls-1" d="M289.968,288.2c0,2.921,1.228,4.233,3.644,4.233a7.529,7.529,0,0,0,3.792-.979l.5,1.56a8.5,8.5,0,0,1-4.334,1.107c-3.4,0-5.5-1.917-5.5-5.817s2.4-6.061,5.4-6.061c3.417,0,4.938,2.123,4.481,5.836h-7.98Zm.145-1.626h6.042c-.042-1.913-.937-2.7-2.812-2.7A3.054,3.054,0,0,0,290.113,286.577Z"/><path class="cls-1" d="M311.563,293.228a8.456,8.456,0,0,1-3.938.9c-3.126,0-3.689-1.711-3.647-4.167l.125-5.836H301.29v-1.669h2.834l.063-2.71h1.938l-.354,2.71h5.375v1.669H306.02l-.124,5.625c-.043,1.457.145,2.69,1.793,2.69a7.441,7.441,0,0,0,3.375-.773Z"/><path class="cls-1" d="M318.219,292.225a1.876,1.876,0,1,1,1.875,1.875A1.869,1.869,0,0,1,318.219,292.225Z"/><path class="cls-2" d="M330.566,288.2c0,2.921,1.228,4.233,3.645,4.233a7.532,7.532,0,0,0,3.792-.979l.5,1.56a8.5,8.5,0,0,1-4.333,1.107c-3.4,0-5.5-1.917-5.5-5.817s2.4-6.061,5.4-6.061c3.417,0,4.938,2.123,4.481,5.836h-7.98Zm.145-1.626h6.042c-.042-1.913-.937-2.7-2.812-2.7A3.055,3.055,0,0,0,330.711,286.577Z"/><path class="cls-2" d="M347.244,288.953h-.23l-3.063,4.96h-2.062l3.918-6-3.855-5.461h2.062l3.064,4.481h.269l3.064-4.481h1.959l-3.856,5.419,3.919,6.042h-2.062Z"/><path class="cls-2" d="M365.694,293.228a8.452,8.452,0,0,1-3.937.9c-3.127,0-3.689-1.711-3.647-4.167l.124-5.836h-2.813v-1.669h2.834l.063-2.71h1.939l-.354,2.71h5.374v1.669h-5.126l-.124,5.625c-.042,1.457.145,2.69,1.793,2.69a7.441,7.441,0,0,0,3.375-.773Z"/><path class="cls-2" d="M371.164,288.2c0,2.921,1.229,4.233,3.645,4.233a7.529,7.529,0,0,0,3.792-.979l.5,1.56a8.506,8.506,0,0,1-4.334,1.107c-3.4,0-5.5-1.917-5.5-5.817s2.4-6.061,5.4-6.061c3.417,0,4.938,2.123,4.481,5.836h-7.981Zm.146-1.626h6.042c-.042-1.913-.938-2.7-2.813-2.7A3.054,3.054,0,0,0,371.31,286.577Z"/><path class="cls-2" d="M392.385,286.014v7.9H390.51v-7.627c0-1.687-.687-2.376-2.084-2.376A5.752,5.752,0,0,0,385.091,285v8.916h-1.875V282.452H384.8v1.27a5.69,5.69,0,0,1,3.856-1.5C391.3,282.222,392.385,283.577,392.385,286.014Z"/><path class="cls-2" d="M405.875,276.827v17.086h-1.624v-1.228a5.509,5.509,0,0,1-3.813,1.457c-2.834-.018-4.355-2-4.355-5.521,0-4.585,2.271-6.375,5.688-6.375a14.053,14.053,0,0,1,2.229.164v-5.583ZM404,291.372v-7.148a8.783,8.783,0,0,0-2.374-.291c-2.522,0-3.647,1.5-3.647,4.481,0,2.6.917,4.022,2.689,4.041A5.572,5.572,0,0,0,404,291.372Z"/><path class="cls-2" d="M412.032,286.83c0-7.627,2.417-9.169,6.19-9.169v1.706c-2.854,0-4.209.98-4.209,7.252,0,6.689,1.355,7.669,4.209,7.669V296C414.449,296,412.032,294.663,412.032,286.83Z"/><path class="cls-1" d="M433.316,292.249v1.664H423.4v-1.664h4.022V276.827H429.3v15.422Z"/><path class="cls-1" d="M446.265,286.389l-.1,7.524H444.6v-1.374a5.384,5.384,0,0,1-4.022,1.6c-2.292-.018-3.584-1.228-3.584-3.145,0-2.208,2.271-3.187,7.357-3.586l.019-.811c.021-1.458-.145-2.69-2.416-2.69a9.04,9.04,0,0,0-4,.979l-.5-1.561a10.084,10.084,0,0,1,4.645-1.106C445.871,282.222,446.286,284.139,446.265,286.389Zm-1.978,4.88.042-2.334c-3.834.309-5.461.853-5.461,2.02,0,.956.668,1.523,1.96,1.542A5.148,5.148,0,0,0,444.287,291.269Z"/><path class="cls-1" d="M460.424,293.228a8.456,8.456,0,0,1-3.938.9c-3.126,0-3.689-1.711-3.647-4.167l.125-5.836h-2.813v-1.669h2.834l.063-2.71h1.938l-.354,2.71h5.375v1.669h-5.126l-.124,5.625c-.043,1.457.145,2.69,1.793,2.69a7.441,7.441,0,0,0,3.375-.773Z"/><path class="cls-1" d="M474.123,292.249v1.664H464.2v-1.664h4.231v-8.128H464.2v-1.669h6.106v9.8ZM467.289,278.7a1.876,1.876,0,1,1,1.875,1.875A1.868,1.868,0,0,1,467.289,278.7Z"/><path class="cls-1" d="M487.117,286.014v7.9h-1.875v-7.627c0-1.687-.687-2.376-2.084-2.376A5.752,5.752,0,0,0,479.823,285v8.916h-1.875V282.452h1.584v1.27a5.69,5.69,0,0,1,3.856-1.5C486.034,282.222,487.117,283.577,487.117,286.014Z"/><path class="cls-1" d="M500.879,292.183v1.73h-9.044V279.742h1.917v12.441Z"/><path class="cls-1" d="M504.348,288.307c0-3.811,2.187-6.085,5.271-6.085,3.251,0,5.147,2.231,5.147,5.939s-2.187,5.981-5.271,5.981C506.244,294.142,504.348,291.911,504.348,288.307Zm8.522-.038c0-2.733-1.022-4.359-3.293-4.359-2.292,0-3.333,1.668-3.333,4.293s1.02,4.252,3.293,4.252C511.829,292.455,512.87,290.786,512.87,288.269Z"/><path class="cls-1" d="M529.3,282.452l-2,11.461h-2.52l-1.354-7.688-.23-2.1h-.187l-.23,2.1-1.355,7.688h-2.54l-2-11.461h1.772l1.228,7.481.251,2.316h.251l.227-2.292,1.23-7.5h2.625l1.231,7.5.23,2.292h.227l.251-2.274,1.23-7.523Z"/><path class="cls-1" d="M533.561,288.2c0,2.921,1.228,4.233,3.644,4.233a7.529,7.529,0,0,0,3.792-.979l.5,1.56a8.5,8.5,0,0,1-4.334,1.107c-3.4,0-5.5-1.917-5.5-5.817s2.4-6.061,5.4-6.061c3.417,0,4.938,2.123,4.481,5.836h-7.98Zm.145-1.626h6.042c-.042-1.913-.937-2.7-2.812-2.7A3.054,3.054,0,0,0,533.706,286.577Z"/><path class="cls-1" d="M555.322,292.249v1.664H545.4v-1.664h2.982v-9.8h1.666l-.042,2.212,5.086-2.479.019,1.851-4.854,2.353v5.86Z"/><path class="cls-1" d="M558.728,288.307c0-4.144,2.522-6.061,5.711-6.061a8.88,8.88,0,0,1,4.168.937l-.544,1.688a7.519,7.519,0,0,0-3.792-.938c-2.208,0-3.626,1.313-3.626,4.27,0,2.921,1.127,4.233,3.626,4.233a7.138,7.138,0,0,0,3.792-1.064l.5,1.645a8.5,8.5,0,0,1-4.333,1.107C560.729,294.124,558.728,292.207,558.728,288.307Z"/><path class="cls-1" d="M581.6,286.389l-.1,7.524h-1.564v-1.374a5.381,5.381,0,0,1-4.022,1.6c-2.292-.018-3.583-1.228-3.583-3.145,0-2.208,2.271-3.187,7.357-3.586l.019-.811c.021-1.458-.146-2.69-2.417-2.69a9.043,9.043,0,0,0-4,.979l-.5-1.561a10.084,10.084,0,0,1,4.645-1.106C581.2,282.222,581.617,284.139,581.6,286.389Zm-1.978,4.88.042-2.334c-3.835.309-5.461.853-5.461,2.02,0,.956.668,1.523,1.959,1.542A5.152,5.152,0,0,0,579.618,291.269Z"/><path class="cls-1" d="M585.857,293.247l.562-1.748a8.835,8.835,0,0,0,4.188.956c2.126,0,3.148-.5,3.148-1.561,0-2.316-7.69-1.542-7.69-5.334,0-2.147,1.9-3.314,4.9-3.314a10.724,10.724,0,0,1,4.149.811l-.544,1.71a8.111,8.111,0,0,0-3.605-.857c-1.978,0-3,.525-3,1.439,0,2.231,7.69,1.458,7.69,5.334,0,2.377-2.1,3.441-5.126,3.441A10.845,10.845,0,0,1,585.857,293.247Z"/><path class="cls-1" d="M601.225,288.2c0,2.921,1.228,4.233,3.644,4.233a7.529,7.529,0,0,0,3.792-.979l.5,1.56a8.5,8.5,0,0,1-4.334,1.107c-3.4,0-5.5-1.917-5.5-5.817s2.4-6.061,5.4-6.061c3.417,0,4.938,2.123,4.481,5.836h-7.98Zm.145-1.626h6.042c-.042-1.913-.937-2.7-2.812-2.7A3.055,3.055,0,0,0,601.37,286.577Z"/><path class="cls-2" d="M620.612,286.83c0,7.627-2.419,9.169-6.19,9.169v-1.711c2.855,0,4.21-.98,4.21-7.252,0-6.689-1.355-7.669-4.21-7.669v-1.706C618.193,277.661,620.612,278.992,620.612,286.83Z"/><path class="cls-3" d="M261.683,406.066v14.92h4.21V422.7h-6.127V404.36h6.127v1.706Z"/><path class="cls-3" d="M277.3,422.7h-6.127v-1.711h4.209v-14.92h-4.209V404.36H277.3Z"/><path class="cls-1" d="M149.125,382.947v1.664h-9.919v-1.664h4.022V367.525H145.1v15.422Z"/><path class="cls-1" d="M162.074,377.088l-.1,7.523h-1.564v-1.373a5.388,5.388,0,0,1-4.021,1.6c-2.293-.019-3.584-1.228-3.584-3.145,0-2.208,2.271-3.188,7.357-3.586l.019-.811c.021-1.458-.146-2.691-2.417-2.691a9.04,9.04,0,0,0-4,.98l-.5-1.561a10.075,10.075,0,0,1,4.646-1.106C161.68,372.921,162.1,374.838,162.074,377.088Zm-1.978,4.879.042-2.334c-3.835.309-5.461.853-5.461,2.02,0,.957.668,1.524,1.959,1.543A5.152,5.152,0,0,0,160.1,381.967Z"/><path class="cls-1" d="M176.232,383.927a8.461,8.461,0,0,1-3.937.895c-3.127,0-3.689-1.711-3.647-4.167l.124-5.836H165.96V373.15h2.833l.064-2.709H170.8l-.354,2.709h5.374v1.669h-5.126l-.124,5.625c-.042,1.458.146,2.691,1.793,2.691a7.44,7.44,0,0,0,3.375-.774Z"/><path class="cls-1" d="M189.932,382.947v1.664h-9.919v-1.664h4.23v-8.128h-4.23V373.15h6.1v9.8ZM183.1,369.4a1.877,1.877,0,1,1,1.875,1.875A1.869,1.869,0,0,1,183.1,369.4Z"/><path class="cls-1" d="M202.923,376.713v7.9h-1.875v-7.626c0-1.688-.687-2.377-2.084-2.377a5.748,5.748,0,0,0-3.335,1.088v8.915h-1.875V373.15h1.585v1.271a5.682,5.682,0,0,1,3.855-1.5C201.84,372.921,202.923,374.275,202.923,376.713Z"/><path class="cls-1" d="M214.227,379.755H209.35l-1.416,4.856H206l4.312-14.17h3.042l4.315,14.17h-2Zm-.5-1.688-1.146-3.834-.5-2.123h-.605l-.5,2.123-1.125,3.834Z"/><path class="cls-1" d="M230.321,382.947v1.664H220.4v-1.664h4.022V367.525H226.3v15.422Z"/><path class="cls-1" d="M244.105,378.442c0,4.585-2.271,6.38-5.688,6.38a13.87,13.87,0,0,1-2.229-.169v3.708h-1.875V373.15H235.9v1.271a5.593,5.593,0,0,1,3.855-1.5C242.584,372.944,244.105,374.922,244.105,378.442Zm-1.9.211c0-2.606-.916-4.021-2.688-4.045a5.6,5.6,0,0,0-3.333,1.088v7.143a8.626,8.626,0,0,0,2.374.3C241.084,383.135,242.209,381.635,242.209,378.653Z"/><path class="cls-1" d="M257.057,376.713v7.9h-1.875v-7.626c0-1.688-.687-2.377-2.084-2.377a5.746,5.746,0,0,0-3.335,1.088v8.915h-1.875V367.525h1.875v5l-.167,1.79a5.652,5.652,0,0,1,3.732-1.4C255.974,372.921,257.057,374.275,257.057,376.713Z"/><path class="cls-1" d="M270.339,377.088l-.1,7.523h-1.564v-1.373a5.389,5.389,0,0,1-4.022,1.6c-2.292-.019-3.583-1.228-3.583-3.145,0-2.208,2.271-3.188,7.357-3.586l.019-.811c.021-1.458-.146-2.691-2.417-2.691a9.044,9.044,0,0,0-4,.98l-.5-1.561a10.071,10.071,0,0,1,4.645-1.106C269.945,372.921,270.36,374.838,270.339,377.088Zm-1.978,4.879.042-2.334c-3.835.309-5.461.853-5.461,2.02,0,.957.668,1.524,1.959,1.543A5.153,5.153,0,0,0,268.361,381.967Z"/><path class="cls-1" d="M284.706,378.442c0,4.585-2.271,6.38-5.688,6.38a12.836,12.836,0,0,1-4.1-.605V367.525h1.875v5l-.167,1.772a5.615,5.615,0,0,1,3.729-1.378C283.185,372.944,284.706,374.922,284.706,378.442Zm-1.9.211c0-2.606-.917-4.021-2.689-4.045a5.6,5.6,0,0,0-3.332,1.088v7.143a8.626,8.626,0,0,0,2.374.3C281.685,383.135,282.81,381.635,282.81,378.653Z"/><path class="cls-1" d="M289.968,378.9c0,2.92,1.228,4.233,3.644,4.233a7.529,7.529,0,0,0,3.792-.98l.5,1.561a8.5,8.5,0,0,1-4.334,1.106c-3.4,0-5.5-1.917-5.5-5.817s2.4-6.061,5.4-6.061c3.417,0,4.938,2.123,4.481,5.836h-7.98Zm.145-1.627h6.042c-.042-1.912-.937-2.7-2.812-2.7A3.054,3.054,0,0,0,290.113,377.275Z"/><path class="cls-1" d="M311.563,383.927a8.468,8.468,0,0,1-3.938.895c-3.126,0-3.689-1.711-3.647-4.167l.125-5.836H301.29V373.15h2.834l.063-2.709h1.938l-.354,2.709h5.375v1.669H306.02l-.124,5.625c-.043,1.458.145,2.691,1.793,2.691a7.443,7.443,0,0,0,3.375-.774Z"/><path class="cls-2" d="M322.638,406.066v14.92h4.21V422.7h-6.127V404.36h6.127v1.706Z"/><path class="cls-2" d="M334.941,406.441h2.627l-.188,7.087h-2.252Z"/><path class="cls-2" d="M352.184,415.755h-4.878l-1.415,4.856h-1.939l4.313-14.17h3.042l4.315,14.17h-2Zm-.5-1.688-1.146-3.834-.5-2.123h-.6l-.5,2.123-1.125,3.834Z"/><path class="cls-2" d="M362.006,406.441h2.628l-.188,7.087h-2.252Z"/><path class="cls-2" d="M379.083,419.964a3.865,3.865,0,0,1-4.252,3.98v-1.561a2.215,2.215,0,0,0,2.522-1.856,1.233,1.233,0,0,1-.75.272,1.876,1.876,0,0,1,.082-3.75C377.791,417.049,379.083,417.967,379.083,419.964Z"/><path class="cls-2" d="M402.605,406.441h2.627l-.187,7.087h-2.253Z"/><path class="cls-2" d="M422.972,416.528c0,2.5-1.54,4.083-4.73,4.083h-5.5v-14.17h4.709c3.148,0,4.669,1.191,4.669,3.792a4.891,4.891,0,0,1-1.334,3.127A3.045,3.045,0,0,1,422.972,416.528Zm-8.313-8.4v4.688h4.481a3.688,3.688,0,0,0,1.019-2.438c0-1.439-.686-2.25-2.915-2.25Zm6.356,8.522c0-1.148-.417-2.147-2.313-2.147h-4.043v4.416h3.417C420.619,418.924,421.015,417.967,421.015,416.655Z"/><path class="cls-2" d="M429.673,406.441H432.3l-.188,7.087H429.86Z"/><path class="cls-2" d="M446.749,419.964a3.865,3.865,0,0,1-4.251,3.98v-1.561a2.215,2.215,0,0,0,2.522-1.856,1.238,1.238,0,0,1-.75.272,1.876,1.876,0,0,1,.082-3.75C445.458,417.049,446.749,417.967,446.749,419.964Z"/><path class="cls-2" d="M470.271,406.441H472.9l-.187,7.087h-2.252Z"/><path class="cls-2" d="M479.93,413.655c0-5.5,3.375-7.42,6.459-7.42a8.151,8.151,0,0,1,4.062.937l-.542,1.645a6.867,6.867,0,0,0-3.686-.876c-2.105,0-4.336,1.317-4.336,5.606,0,4.252,1.814,5.564,4.336,5.564a7.379,7.379,0,0,0,3.686-.979l.5,1.584a8.392,8.392,0,0,1-4.231,1.106C482.679,420.822,479.93,418.905,479.93,413.655Z"/><path class="cls-2" d="M497.337,406.441h2.627l-.187,7.087h-2.253Z"/><path class="cls-2" d="M514.413,419.964a3.865,3.865,0,0,1-4.251,3.98v-1.561a2.215,2.215,0,0,0,2.522-1.856,1.238,1.238,0,0,1-.75.272,1.876,1.876,0,0,1,.082-3.75C513.122,417.049,514.413,417.967,514.413,419.964Z"/><path class="cls-2" d="M537.373,418.924a1.876,1.876,0,1,1,1.875,1.875A1.868,1.868,0,0,1,537.373,418.924Z"/><path class="cls-2" d="M550.905,418.924a1.877,1.877,0,1,1,1.875,1.875A1.869,1.869,0,0,1,550.905,418.924Z"/><path class="cls-2" d="M564.438,418.924a1.877,1.877,0,1,1,1.875,1.875A1.869,1.869,0,0,1,564.438,418.924Z"/><path class="cls-2" d="M582.077,419.964a3.865,3.865,0,0,1-4.251,3.98v-1.561a2.215,2.215,0,0,0,2.522-1.856,1.238,1.238,0,0,1-.75.272,1.876,1.876,0,0,1,.082-3.75C580.786,417.049,582.077,417.967,582.077,419.964Z"/><path class="cls-2" d="M592.066,406.441h2.628l-.188,7.087h-2.252Z"/><path class="cls-2" d="M607.059,414.133h-.354l-3.314,6.478h-2.062l3.98-7.415-3.877-6.755h2.023l3.332,5.9h.333l3.357-5.9h1.917l-3.9,6.712,4,7.458h-2.063Z"/><path class="cls-2" d="M619.132,406.441h2.627l-.187,7.087H619.32Z"/><path class="cls-2" d="M636.209,419.964a3.865,3.865,0,0,1-4.252,3.98v-1.561a2.215,2.215,0,0,0,2.522-1.856,1.235,1.235,0,0,1-.75.272,1.876,1.876,0,0,1,.082-3.75C634.917,417.049,636.209,417.967,636.209,419.964Z"/><path class="cls-2" d="M659.733,406.441h2.627l-.187,7.087H659.92Z"/><path class="cls-2" d="M675.537,418.905h4v1.706h-9.918v-1.706h4v-4.378l-5.042-8.086h2.147l2.749,4.584,1.043,2.086h.249l1.064-2.086,2.749-4.584h2l-5.043,8.086Z"/><path class="cls-2" d="M686.8,406.441h2.628l-.188,7.087h-2.252Z"/><path class="cls-2" d="M703.875,419.964a3.865,3.865,0,0,1-4.252,3.98v-1.561a2.215,2.215,0,0,0,2.522-1.856,1.233,1.233,0,0,1-.75.272,1.876,1.876,0,0,1,.082-3.75C702.584,417.049,703.875,417.967,703.875,419.964Z"/><path class="cls-2" d="M727.4,406.441h2.627l-.187,7.087h-2.253Z"/><path class="cls-2" d="M747.37,418.905v1.706H737.116v-1.917l7-9.356.916-.9v-.29h-7.711v-1.711h9.837v1.917l-7,9.356-.938.9v.295Z"/><path class="cls-2" d="M754.462,406.441h2.628l-.188,7.087H754.65Z"/><path class="cls-2" d="M771.309,422.7h-6.126v-1.711h4.209v-14.92h-4.209V404.36h6.126Z"/><path class="cls-1" d="M496.17,382.947v1.664h-9.919v-1.664h4.022V367.525h1.877v15.422Z"/><path class="cls-1" d="M509.119,377.088l-.1,7.523h-1.564v-1.373a5.389,5.389,0,0,1-4.022,1.6c-2.292-.019-3.583-1.228-3.583-3.145,0-2.208,2.271-3.188,7.357-3.586l.019-.811c.021-1.458-.146-2.691-2.417-2.691a9.044,9.044,0,0,0-4,.98l-.5-1.561a10.075,10.075,0,0,1,4.646-1.106C508.725,372.921,509.14,374.838,509.119,377.088Zm-1.978,4.879.042-2.334c-3.835.309-5.461.853-5.461,2.02,0,.957.668,1.524,1.959,1.543A5.152,5.152,0,0,0,507.141,381.967Z"/><path class="cls-1" d="M523.277,383.927a8.461,8.461,0,0,1-3.937.895c-3.127,0-3.689-1.711-3.647-4.167l.124-5.836h-2.812V373.15h2.833l.064-2.709h1.938l-.354,2.709h5.374v1.669h-5.126l-.124,5.625c-.042,1.458.145,2.691,1.793,2.691a7.44,7.44,0,0,0,3.375-.774Z"/><path class="cls-1" d="M536.977,382.947v1.664h-9.919v-1.664h4.23v-8.128h-4.23V373.15h6.105v9.8ZM530.142,369.4a1.877,1.877,0,1,1,1.875,1.875A1.869,1.869,0,0,1,530.142,369.4Z"/><path class="cls-1" d="M549.968,376.713v7.9h-1.875v-7.626c0-1.688-.687-2.377-2.084-2.377a5.748,5.748,0,0,0-3.335,1.088v8.915H540.8V373.15h1.585v1.271a5.682,5.682,0,0,1,3.855-1.5C548.885,372.921,549.968,374.275,549.968,376.713Z"/><path class="cls-1" d="M563.876,370.441v8.316c0,4.378-2.084,6.065-5.063,6.065-3.147,0-4.938-1.645-4.938-5.92v-8.461h1.917V378.8c0,3.229.895,4.312,3.063,4.312,2.187,0,3.1-1.125,3.1-4.251v-8.419Z"/><path class="cls-1" d="M577.617,378.442c0,4.585-2.271,6.38-5.688,6.38a13.879,13.879,0,0,1-2.229-.169v3.708h-1.875V373.15h1.582v1.271a5.593,5.593,0,0,1,3.855-1.5C576.1,372.944,577.617,374.922,577.617,378.442Zm-1.9.211c0-2.606-.916-4.021-2.688-4.045A5.6,5.6,0,0,0,569.7,375.7v7.143a8.626,8.626,0,0,0,2.374.3C574.6,383.135,575.721,381.635,575.721,378.653Z"/><path class="cls-1" d="M591.15,378.442c0,4.585-2.271,6.38-5.688,6.38a13.87,13.87,0,0,1-2.229-.169v3.708h-1.875V373.15h1.582v1.271a5.593,5.593,0,0,1,3.855-1.5C589.629,372.944,591.15,374.922,591.15,378.442Zm-1.9.211c0-2.606-.917-4.021-2.688-4.045a5.6,5.6,0,0,0-3.333,1.088v7.143a8.626,8.626,0,0,0,2.374.3C588.129,383.135,589.254,381.635,589.254,378.653Z"/><path class="cls-1" d="M596.414,378.9c0,2.92,1.228,4.233,3.645,4.233a7.532,7.532,0,0,0,3.792-.98l.5,1.561a8.5,8.5,0,0,1-4.333,1.106c-3.4,0-5.5-1.917-5.5-5.817s2.4-6.061,5.4-6.061c3.417,0,4.939,2.123,4.482,5.836h-7.981Zm.145-1.627H602.6c-.043-1.912-.938-2.7-2.813-2.7A3.054,3.054,0,0,0,596.559,377.275Z"/><path class="cls-1" d="M618.176,382.947v1.664h-9.919v-1.664h2.981v-9.8h1.667l-.043,2.213,5.086-2.48.019,1.852-4.854,2.353v5.859Z"/><path class="cls-1" d="M621.581,379.005c0-4.144,2.522-6.061,5.712-6.061a8.861,8.861,0,0,1,4.167.938l-.544,1.687a7.527,7.527,0,0,0-3.792-.937c-2.208,0-3.626,1.312-3.626,4.27,0,2.92,1.128,4.233,3.626,4.233a7.144,7.144,0,0,0,3.792-1.064l.5,1.645a8.5,8.5,0,0,1-4.334,1.106C623.583,384.822,621.581,382.905,621.581,379.005Z"/><path class="cls-1" d="M644.449,377.088l-.1,7.523h-1.563v-1.373a5.392,5.392,0,0,1-4.022,1.6c-2.292-.019-3.584-1.228-3.584-3.145,0-2.208,2.271-3.188,7.357-3.586l.019-.811c.021-1.458-.145-2.691-2.416-2.691a9.04,9.04,0,0,0-4,.98l-.5-1.561a10.071,10.071,0,0,1,4.645-1.106C644.055,372.921,644.47,374.838,644.449,377.088Zm-1.978,4.879.042-2.334c-3.834.309-5.461.853-5.461,2.02,0,.957.668,1.524,1.96,1.543A5.149,5.149,0,0,0,642.471,381.967Z"/><path class="cls-1" d="M648.71,383.946l.563-1.749a8.82,8.82,0,0,0,4.188.956c2.126,0,3.148-.5,3.148-1.561,0-2.315-7.69-1.542-7.69-5.334,0-2.147,1.9-3.314,4.9-3.314a10.719,10.719,0,0,1,4.148.811l-.543,1.711a8.1,8.1,0,0,0-3.6-.858c-1.978,0-3,.525-3,1.439,0,2.231,7.69,1.458,7.69,5.335,0,2.376-2.105,3.44-5.126,3.44A10.868,10.868,0,0,1,648.71,383.946Z"/><path class="cls-1" d="M664.078,378.9c0,2.92,1.228,4.233,3.645,4.233a7.532,7.532,0,0,0,3.792-.98l.5,1.561a8.5,8.5,0,0,1-4.333,1.106c-3.4,0-5.5-1.917-5.5-5.817s2.4-6.061,5.4-6.061c3.418,0,4.939,2.123,4.482,5.836h-7.981Zm.145-1.627h6.043c-.043-1.912-.938-2.7-2.813-2.7A3.054,3.054,0,0,0,664.223,377.275Z"/><path class="cls-1" d="M281.9,426.019a.855.855,0,0,0,.12-.067c.081-.046.161-.093.241-.14l.165-.1a.573.573,0,0,0-.09-.36.58.58,0,0,1-.145-.227.7.7,0,0,0-.108-.218.776.776,0,0,1-.144-.228.838.838,0,0,0-.1-.22.6.6,0,0,1-.049-.13.881.881,0,0,0-.124-.3,2.819,2.819,0,0,1-.2-.278.541.541,0,0,1-.045-.094,1.136,1.136,0,0,0-.052-.13,1.728,1.728,0,0,0-.2-.381c-.011-.011,0-.033-.008-.048s-.023-.039-.033-.06-.033-.044-.031-.073a.377.377,0,0,0-.1-.248.493.493,0,0,1-.14-.281c0-.024-.023-.04-.036-.059-.039-.055-.081-.107-.115-.164a.472.472,0,0,1-.1-.26.22.22,0,0,0-.1-.182.214.214,0,0,1-.048-.052c-.038-.075-.016-.178-.116-.225-.039-.018-.007-.081-.031-.112a3.159,3.159,0,0,1-.265-.475.719.719,0,0,1-.032-.076.349.349,0,0,0-.045-.119.335.335,0,0,1-.075-.234.108.108,0,0,0-.043-.08.756.756,0,0,1-.194-.253.946.946,0,0,0-.109-.218c-.06-.087-.124-.172-.184-.259a.168.168,0,0,1-.038-.072.762.762,0,0,0-.168-.408.14.14,0,0,1-.033-.163c.016-.036,0-.057-.033-.072a.324.324,0,0,1-.164-.215c-.032-.091-.018-.2-.13-.256-.016-.007-.01-.028-.016-.043a1.208,1.208,0,0,0-.051-.13c-.019-.038-.058-.067-.069-.108a.971.971,0,0,0-.15-.3c-.014-.019-.036-.035-.034-.06.007-.095-.058-.153-.1-.222a.749.749,0,0,1-.047-.094.89.89,0,0,0-.061-.15c-.11-.162-.226-.322-.342-.48a.257.257,0,0,1-.053-.181.282.282,0,0,0-.03-.126c-.011-.029-.045-.048-.044-.082,0-.1-.063-.158-.11-.23-.017-.026-.047-.048-.047-.08,0-.069-.015-.129-.1-.154-.023-.007-.022-.032-.029-.05-.022-.049-.04-.1-.064-.15-.013-.027-.041-.048-.052-.078a.959.959,0,0,1-.057-.2c0-.045-.009-.089-.061-.11a.049.049,0,0,1-.033-.034.317.317,0,0,0-.178-.22c-.06-.036-.13-.08-.083-.163.091-.161,0-.235-.085-.312a.189.189,0,0,1-.07-.1.383.383,0,0,0-.083-.2.359.359,0,0,1-.076-.193.124.124,0,0,0-.066-.082.11.11,0,0,1-.071-.105.154.154,0,0,0-.026-.078c-.028-.046-.072-.085-.017-.167.009-.014.007-.032-.006-.034-.111-.017-.055-.128-.152-.153a.321.321,0,0,0-.149-.22s0-.007,0-.011a.166.166,0,0,0-.069-.16c-.062-.059-.011-.175-.118-.211-.011,0,0-.026.009-.041.039-.077,0-.12-.061-.146a.105.105,0,0,1-.073-.116c0-.039.007-.084-.025-.1a.377.377,0,0,1-.159-.256c-.016-.05.03-.122.008-.165s-.092-.064-.12-.106c-.039-.057-.012-.149-.147-.152-.02,0-.013-.027-.019-.041a.382.382,0,0,0-.031-.075.557.557,0,0,1-.078-.182,1.685,1.685,0,0,1-.06-.279.056.056,0,0,0-.031-.049c-.113-.055-.1-.173-.148-.261-.018-.033-.016-.075-.064-.095a.228.228,0,0,1-.076-.064.449.449,0,0,1-.116-.253c-.006-.031-.039-.052-.035-.086a.493.493,0,0,1,.063-.115c-.15,0-.153,0-.163-.035-.027-.082-.051-.164-.078-.246,0-.014-.007-.033-.025-.039-.09-.031-.08-.115-.115-.174s-.006-.116-.085-.136c-.014,0-.009-.021-.012-.033-.021-.075-.039-.152-.063-.226a.061.061,0,0,0-.04-.044.091.091,0,0,1-.068-.094.085.085,0,0,0-.053-.076.08.08,0,0,1-.049-.1.149.149,0,0,0-.069-.171.339.339,0,0,1-.123-.235.135.135,0,0,0-.066-.1.4.4,0,0,1-.2-.26.725.725,0,0,0-.1-.209,1.328,1.328,0,0,1-.076-.132,1.386,1.386,0,0,0-.061-.15,2.689,2.689,0,0,0-.178-.249.386.386,0,0,1-.1-.272.152.152,0,0,0-.01-.072c-.069-.135-.149-.264-.208-.4a1.5,1.5,0,0,0-.174-.343c-.009-.012,0-.033-.006-.048a.876.876,0,0,0-.081-.244,2.075,2.075,0,0,0-.251-.367.255.255,0,0,1-.046-.118c-.019-.06-.014-.132-.058-.177a.168.168,0,0,1-.048-.1c-.007-.052-.007-.106-.078-.127-.033-.009-.037-.041-.046-.066a.517.517,0,0,0-.031-.114.113.113,0,0,0-.1-.06c-.082,0-.042-.068-.1-.071-.1-.005-.145-.056-.271-.045a.181.181,0,0,1-.178-.067.347.347,0,0,0-.051-.065c-.006-.006-.018-.006-.026-.011-.147.071-.293.143-.437.22a3.042,3.042,0,0,1-.4.2.97.97,0,0,0-.12.067c-.08.047-.161.093-.241.141l-.164.1a.559.559,0,0,0,.09.359.6.6,0,0,1,.144.227.692.692,0,0,0,.109.219.789.789,0,0,1,.143.227.8.8,0,0,0,.1.22.735.735,0,0,1,.049.131.847.847,0,0,0,.123.3,2.523,2.523,0,0,1,.2.278.514.514,0,0,1,.045.095,1.121,1.121,0,0,0,.052.129,1.779,1.779,0,0,0,.2.382c.011.011,0,.033.008.047s.023.04.033.06.033.045.031.074a.374.374,0,0,0,.1.247.5.5,0,0,1,.14.281c0,.025.023.041.037.06.038.055.081.107.114.164a.47.47,0,0,1,.1.26.227.227,0,0,0,.1.182.181.181,0,0,1,.048.052c.038.075.017.177.116.224.039.018.007.082.031.113a3.08,3.08,0,0,1,.266.475c.012.024.021.05.031.075a.377.377,0,0,0,.045.12.33.33,0,0,1,.075.234.113.113,0,0,0,.043.08.749.749,0,0,1,.194.252.93.93,0,0,0,.11.218c.059.087.123.173.183.26a.157.157,0,0,1,.038.072.77.77,0,0,0,.169.408.141.141,0,0,1,.032.163c-.016.036,0,.056.033.071a.323.323,0,0,1,.165.215c.032.091.017.205.129.256.016.008.01.029.016.044a1.192,1.192,0,0,0,.051.129c.02.038.058.067.07.109a.974.974,0,0,0,.149.3c.014.019.036.036.034.061-.007.094.058.153.1.222a.623.623,0,0,1,.047.093.867.867,0,0,0,.061.151c.111.162.226.321.342.48a.254.254,0,0,1,.053.18.282.282,0,0,0,.03.126c.011.03.045.049.044.082,0,.1.064.159.11.231.017.026.047.047.048.08,0,.068.014.129.1.154.023.007.022.032.029.049.022.05.04.1.064.15.014.028.041.049.052.078a.993.993,0,0,1,.057.2c.006.045.009.089.061.111a.047.047,0,0,1,.033.034.317.317,0,0,0,.178.22c.06.035.13.079.083.162-.091.161,0,.235.085.312a.2.2,0,0,1,.07.105.386.386,0,0,0,.083.2.356.356,0,0,1,.076.193.125.125,0,0,0,.066.081.113.113,0,0,1,.072.106.139.139,0,0,0,.025.077c.028.047.072.086.017.168-.009.013-.007.031.006.034.111.017.055.128.152.152a.322.322,0,0,0,.149.22s0,.007,0,.012a.163.163,0,0,0,.07.159c.062.059.01.176.117.212.011,0,0,.025-.009.04-.039.078,0,.12.061.147a.105.105,0,0,1,.073.116c0,.039-.007.084.026.1a.381.381,0,0,1,.159.256c.015.051-.03.122-.008.166s.092.064.12.105c.038.057.011.149.146.152.02,0,.014.027.019.041a.391.391,0,0,0,.031.076.561.561,0,0,1,.078.181,1.6,1.6,0,0,1,.06.28.058.058,0,0,0,.031.049c.113.054.1.173.148.26.018.034.017.076.064.1a.256.256,0,0,1,.077.064.465.465,0,0,1,.116.253c0,.032.038.052.034.086a.467.467,0,0,1-.062.115c.149,0,.152,0,.163.036.026.081.051.164.077.245.005.015.007.033.025.039.09.032.08.115.115.175s.006.116.086.136c.013,0,.008.021.011.032.021.076.04.152.063.227a.065.065,0,0,0,.04.044.092.092,0,0,1,.069.093.085.085,0,0,0,.052.077.078.078,0,0,1,.049.1.15.15,0,0,0,.069.172.332.332,0,0,1,.123.234.132.132,0,0,0,.067.095.406.406,0,0,1,.2.261.765.765,0,0,0,.1.209,1.209,1.209,0,0,1,.076.131,1.518,1.518,0,0,0,.061.15,2.856,2.856,0,0,0,.179.25.379.379,0,0,1,.1.272.154.154,0,0,0,.01.072c.069.135.15.264.209.4a1.466,1.466,0,0,0,.173.342c.009.012,0,.033.006.048a.887.887,0,0,0,.081.244,2.04,2.04,0,0,0,.251.367.248.248,0,0,1,.046.119c.019.059.015.131.058.177a.165.165,0,0,1,.048.1c.007.053.007.106.078.127.033.01.037.041.047.067s.009.081.031.113a.112.112,0,0,0,.1.061c.082,0,.042.067.1.07.1,0,.145.057.27.045a.185.185,0,0,1,.178.067.324.324,0,0,0,.051.066.139.139,0,0,0,.027.01c.146-.07.292-.142.436-.22A3.169,3.169,0,0,1,281.9,426.019Z"/><path class="cls-1" d="M327.5,423.619a.855.855,0,0,0,.12-.067c.081-.046.161-.093.241-.14l.165-.1a.573.573,0,0,0-.09-.36.58.58,0,0,1-.145-.227.7.7,0,0,0-.108-.218.776.776,0,0,1-.144-.228.838.838,0,0,0-.1-.22.6.6,0,0,1-.049-.13.881.881,0,0,0-.124-.3,2.819,2.819,0,0,1-.2-.278.541.541,0,0,1-.045-.094,1.136,1.136,0,0,0-.052-.13,1.728,1.728,0,0,0-.2-.381c-.011-.011,0-.033-.008-.048s-.023-.039-.033-.06-.033-.044-.031-.073a.377.377,0,0,0-.1-.248.493.493,0,0,1-.14-.281c0-.024-.023-.04-.036-.059-.039-.055-.081-.107-.115-.164a.472.472,0,0,1-.1-.26.22.22,0,0,0-.1-.182.214.214,0,0,1-.048-.052c-.038-.075-.016-.178-.116-.225-.039-.018-.007-.081-.031-.112a3.159,3.159,0,0,1-.265-.475.719.719,0,0,1-.032-.076.349.349,0,0,0-.045-.119.335.335,0,0,1-.075-.234.108.108,0,0,0-.043-.08.756.756,0,0,1-.194-.253.946.946,0,0,0-.109-.218c-.06-.087-.124-.172-.184-.259a.168.168,0,0,1-.038-.072.762.762,0,0,0-.168-.408.14.14,0,0,1-.033-.163c.016-.036,0-.057-.033-.072a.324.324,0,0,1-.164-.215c-.032-.091-.018-.2-.13-.256-.016-.007-.01-.028-.016-.043a1.208,1.208,0,0,0-.051-.13c-.019-.038-.058-.067-.069-.108a.971.971,0,0,0-.15-.3c-.014-.019-.036-.035-.034-.06.007-.1-.058-.153-.1-.222a.749.749,0,0,1-.047-.094.89.89,0,0,0-.061-.15c-.11-.162-.226-.322-.342-.48a.257.257,0,0,1-.053-.181.282.282,0,0,0-.03-.126c-.011-.029-.045-.048-.044-.082,0-.1-.063-.158-.11-.23-.017-.026-.047-.048-.047-.08,0-.069-.015-.129-.1-.154-.023-.007-.022-.032-.029-.05-.022-.049-.04-.1-.064-.15-.013-.027-.041-.048-.052-.078a.959.959,0,0,1-.057-.2c0-.045-.009-.089-.061-.11a.049.049,0,0,1-.033-.034.317.317,0,0,0-.178-.22c-.06-.036-.13-.08-.083-.163.091-.161,0-.235-.085-.312a.189.189,0,0,1-.07-.1.383.383,0,0,0-.083-.2.359.359,0,0,1-.076-.193.124.124,0,0,0-.066-.082.11.11,0,0,1-.071-.105.154.154,0,0,0-.026-.078c-.028-.046-.072-.085-.017-.167.009-.014.007-.032-.006-.034-.111-.017-.055-.128-.152-.153a.321.321,0,0,0-.149-.22s0-.007,0-.011a.166.166,0,0,0-.069-.16c-.062-.059-.011-.175-.118-.211-.011,0,0-.026.009-.041.039-.077,0-.12-.061-.146a.105.105,0,0,1-.073-.116c0-.039.007-.084-.025-.1a.377.377,0,0,1-.159-.256c-.016-.05.03-.122.008-.165s-.092-.064-.12-.106-.012-.149-.147-.152c-.02,0-.013-.027-.019-.041a.382.382,0,0,0-.031-.075.557.557,0,0,1-.078-.182,1.685,1.685,0,0,1-.06-.279.056.056,0,0,0-.031-.049c-.113-.055-.1-.173-.148-.261-.018-.033-.016-.075-.064-.1a.228.228,0,0,1-.076-.064.449.449,0,0,1-.116-.253c-.006-.031-.039-.052-.035-.086a.493.493,0,0,1,.063-.115c-.15,0-.153,0-.163-.035-.027-.082-.051-.164-.078-.246,0-.014-.007-.033-.025-.039-.09-.031-.08-.115-.115-.174s-.006-.116-.085-.136c-.014,0-.009-.021-.012-.033-.021-.075-.039-.152-.063-.226a.061.061,0,0,0-.04-.044.091.091,0,0,1-.068-.094.085.085,0,0,0-.053-.076.08.08,0,0,1-.049-.1.149.149,0,0,0-.069-.171.339.339,0,0,1-.123-.235.135.135,0,0,0-.066-.095.4.4,0,0,1-.2-.26.725.725,0,0,0-.1-.209,1.328,1.328,0,0,1-.076-.132,1.386,1.386,0,0,0-.061-.15,2.689,2.689,0,0,0-.178-.249.386.386,0,0,1-.1-.272.152.152,0,0,0-.01-.072c-.069-.135-.149-.264-.208-.4a1.5,1.5,0,0,0-.174-.343c-.009-.012,0-.033-.006-.048a.876.876,0,0,0-.081-.244,2.075,2.075,0,0,0-.251-.367.255.255,0,0,1-.046-.118c-.019-.06-.014-.132-.058-.177a.168.168,0,0,1-.048-.1c-.007-.052-.007-.106-.078-.127-.033-.009-.037-.041-.046-.066a.517.517,0,0,0-.031-.114.113.113,0,0,0-.1-.06c-.082,0-.042-.068-.1-.071-.1,0-.145-.056-.271-.045a.181.181,0,0,1-.178-.067.347.347,0,0,0-.051-.065c-.006-.006-.018-.006-.026-.011-.147.071-.293.143-.437.22a3.042,3.042,0,0,1-.405.2.97.97,0,0,0-.12.067c-.08.047-.161.093-.241.141l-.164.1a.559.559,0,0,0,.09.359.6.6,0,0,1,.144.227.692.692,0,0,0,.109.219.789.789,0,0,1,.143.227.8.8,0,0,0,.105.22.735.735,0,0,1,.049.131.847.847,0,0,0,.123.3,2.523,2.523,0,0,1,.2.278.514.514,0,0,1,.045.095,1.121,1.121,0,0,0,.052.129,1.779,1.779,0,0,0,.2.382c.011.011,0,.033.008.047s.023.04.033.06.033.045.031.074a.374.374,0,0,0,.1.247.5.5,0,0,1,.14.281c0,.025.023.041.037.06.038.055.081.107.114.164a.47.47,0,0,1,.1.26.227.227,0,0,0,.1.182.181.181,0,0,1,.048.052c.038.075.017.177.116.224.039.018.007.082.031.113a3.08,3.08,0,0,1,.266.475c.012.024.021.05.031.075a.377.377,0,0,0,.045.12.33.33,0,0,1,.075.234.113.113,0,0,0,.043.08.749.749,0,0,1,.194.252.93.93,0,0,0,.11.218c.059.087.123.173.183.26a.157.157,0,0,1,.038.072.77.77,0,0,0,.169.408.141.141,0,0,1,.032.163c-.016.036,0,.056.033.071a.323.323,0,0,1,.165.215c.032.091.017.2.129.256.016.008.01.029.016.044a1.192,1.192,0,0,0,.051.129c.02.038.058.067.07.109a.974.974,0,0,0,.149.3c.014.019.036.036.034.061-.007.094.058.153.1.222a.623.623,0,0,1,.047.093.867.867,0,0,0,.061.151c.111.162.226.321.342.48a.254.254,0,0,1,.053.18.282.282,0,0,0,.03.126c.011.03.045.049.044.082,0,.1.064.159.11.231.017.026.047.047.048.08,0,.068.014.129.1.154.023.007.022.032.029.049.022.05.04.1.064.15.014.028.041.049.052.078a.993.993,0,0,1,.057.2c.006.045.009.089.061.111a.047.047,0,0,1,.033.034.317.317,0,0,0,.178.22c.06.035.13.079.083.162-.091.161,0,.235.085.312a.2.2,0,0,1,.07.105.386.386,0,0,0,.083.2.356.356,0,0,1,.076.193.125.125,0,0,0,.066.081.113.113,0,0,1,.072.106.139.139,0,0,0,.025.077c.028.047.072.086.017.168-.009.013-.007.031.006.034.111.017.055.128.152.152a.322.322,0,0,0,.149.22s0,.007,0,.012a.163.163,0,0,0,.07.159c.062.059.01.176.117.212.011,0,0,.025-.009.04-.039.078,0,.12.061.147a.105.105,0,0,1,.073.116c0,.039-.007.084.026.1a.381.381,0,0,1,.159.256c.015.051-.03.122-.008.166s.092.064.12.1c.038.057.011.149.146.152.02,0,.014.027.019.041a.391.391,0,0,0,.031.076.561.561,0,0,1,.078.181,1.6,1.6,0,0,1,.06.28.058.058,0,0,0,.031.049c.113.054.1.173.148.26.018.034.017.076.064.095a.256.256,0,0,1,.077.064.465.465,0,0,1,.116.253c0,.032.038.052.034.086a.467.467,0,0,1-.062.115c.149,0,.152,0,.163.036.026.081.051.164.077.245,0,.015.007.033.025.039.09.032.08.115.115.175s.006.116.086.136c.013,0,.008.021.011.032.021.076.04.152.063.227a.065.065,0,0,0,.04.044.092.092,0,0,1,.069.093.085.085,0,0,0,.052.077.078.078,0,0,1,.049.1.15.15,0,0,0,.069.172.332.332,0,0,1,.123.234.132.132,0,0,0,.067.1.406.406,0,0,1,.2.261.765.765,0,0,0,.1.209,1.209,1.209,0,0,1,.076.131,1.518,1.518,0,0,0,.061.15,2.856,2.856,0,0,0,.179.25.379.379,0,0,1,.1.272.154.154,0,0,0,.01.072c.069.135.15.264.209.4a1.466,1.466,0,0,0,.173.342c.009.012,0,.033.006.048a.887.887,0,0,0,.081.244,2.04,2.04,0,0,0,.251.367.248.248,0,0,1,.046.119c.019.059.015.131.058.177a.165.165,0,0,1,.048.1c.007.053.007.106.078.127.033.01.037.041.047.067s.009.081.031.113a.112.112,0,0,0,.1.061c.082,0,.042.067.105.07.1,0,.145.057.27.045a.185.185,0,0,1,.178.067.324.324,0,0,0,.051.066.139.139,0,0,0,.027.01c.146-.07.292-.142.436-.22A3.169,3.169,0,0,1,327.5,423.619Z"/><path class="cls-3" d="M261.683,526.066v14.92h4.21V542.7h-6.127V524.36h6.127v1.706Z"/><path class="cls-3" d="M277.3,542.7h-6.127v-1.711h4.209v-14.92h-4.209V524.36H277.3Z"/><path class="cls-1" d="M149.125,502.947v1.664h-9.919v-1.664h4.022V487.525H145.1v15.422Z"/><path class="cls-1" d="M162.074,497.088l-.1,7.523h-1.564v-1.373a5.388,5.388,0,0,1-4.021,1.6c-2.293-.019-3.584-1.228-3.584-3.145,0-2.208,2.271-3.188,7.357-3.586l.019-.811c.021-1.458-.146-2.691-2.417-2.691a9.04,9.04,0,0,0-4,.98l-.5-1.561a10.075,10.075,0,0,1,4.646-1.106C161.68,492.921,162.1,494.838,162.074,497.088Zm-1.978,4.879.042-2.334c-3.835.309-5.461.853-5.461,2.02,0,.957.668,1.524,1.959,1.543A5.152,5.152,0,0,0,160.1,501.967Z"/><path class="cls-1" d="M176.232,503.927a8.461,8.461,0,0,1-3.937.895c-3.127,0-3.689-1.711-3.647-4.167l.124-5.836H165.96V493.15h2.833l.064-2.709H170.8l-.354,2.709h5.374v1.669h-5.126l-.124,5.625c-.042,1.458.146,2.691,1.793,2.691a7.44,7.44,0,0,0,3.375-.774Z"/><path class="cls-1" d="M189.932,502.947v1.664h-9.919v-1.664h4.23v-8.128h-4.23V493.15h6.1v9.8ZM183.1,489.4a1.877,1.877,0,1,1,1.875,1.875A1.869,1.869,0,0,1,183.1,489.4Z"/><path class="cls-1" d="M202.923,496.713v7.9h-1.875v-7.626c0-1.688-.687-2.377-2.084-2.377a5.748,5.748,0,0,0-3.335,1.088v8.915h-1.875V493.15h1.585v1.271a5.682,5.682,0,0,1,3.855-1.5C201.84,492.921,202.923,494.275,202.923,496.713Z"/><path class="cls-1" d="M214.227,499.755H209.35l-1.416,4.856H206l4.312-14.17h3.042l4.315,14.17h-2Zm-.5-1.688-1.146-3.834-.5-2.123h-.605l-.5,2.123-1.125,3.834Z"/><path class="cls-1" d="M230.321,502.947v1.664H220.4v-1.664h4.022V487.525H226.3v15.422Z"/><path class="cls-1" d="M244.105,498.442c0,4.585-2.271,6.38-5.688,6.38a13.87,13.87,0,0,1-2.229-.169v3.708h-1.875V493.15H235.9v1.271a5.593,5.593,0,0,1,3.855-1.5C242.584,492.944,244.105,494.922,244.105,498.442Zm-1.9.211c0-2.606-.916-4.021-2.688-4.045a5.6,5.6,0,0,0-3.333,1.088v7.143a8.626,8.626,0,0,0,2.374.3C241.084,503.135,242.209,501.635,242.209,498.653Z"/><path class="cls-1" d="M257.057,496.713v7.9h-1.875v-7.626c0-1.688-.687-2.377-2.084-2.377a5.746,5.746,0,0,0-3.335,1.088v8.915h-1.875V487.525h1.875v5l-.167,1.79a5.652,5.652,0,0,1,3.732-1.4C255.974,492.921,257.057,494.275,257.057,496.713Z"/><path class="cls-1" d="M270.339,497.088l-.1,7.523h-1.564v-1.373a5.389,5.389,0,0,1-4.022,1.6c-2.292-.019-3.583-1.228-3.583-3.145,0-2.208,2.271-3.188,7.357-3.586l.019-.811c.021-1.458-.146-2.691-2.417-2.691a9.044,9.044,0,0,0-4,.98l-.5-1.561a10.071,10.071,0,0,1,4.645-1.106C269.945,492.921,270.36,494.838,270.339,497.088Zm-1.978,4.879.042-2.334c-3.835.309-5.461.853-5.461,2.02,0,.957.668,1.524,1.959,1.543A5.153,5.153,0,0,0,268.361,501.967Z"/><path class="cls-1" d="M284.706,498.442c0,4.585-2.271,6.38-5.688,6.38a12.836,12.836,0,0,1-4.1-.605V487.525h1.875v5l-.167,1.772a5.615,5.615,0,0,1,3.729-1.378C283.185,492.944,284.706,494.922,284.706,498.442Zm-1.9.211c0-2.606-.917-4.021-2.689-4.045a5.6,5.6,0,0,0-3.332,1.088v7.143a8.626,8.626,0,0,0,2.374.3C281.685,503.135,282.81,501.635,282.81,498.653Z"/><path class="cls-1" d="M289.968,498.9c0,2.92,1.228,4.233,3.644,4.233a7.529,7.529,0,0,0,3.792-.98l.5,1.561a8.5,8.5,0,0,1-4.334,1.106c-3.4,0-5.5-1.917-5.5-5.817s2.4-6.061,5.4-6.061c3.417,0,4.938,2.123,4.481,5.836h-7.98Zm.145-1.627h6.042c-.042-1.912-.937-2.7-2.812-2.7A3.054,3.054,0,0,0,290.113,497.275Z"/><path class="cls-1" d="M311.563,503.927a8.468,8.468,0,0,1-3.938.895c-3.126,0-3.689-1.711-3.647-4.167l.125-5.836H301.29V493.15h2.834l.063-2.709h1.938l-.354,2.709h5.375v1.669H306.02l-.124,5.625c-.043,1.458.145,2.691,1.793,2.691a7.443,7.443,0,0,0,3.375-.774Z"/><path class="cls-2" d="M322.638,526.066v14.92h4.21V542.7h-6.127V524.36h6.127v1.706Z"/><path class="cls-2" d="M334.941,526.441h2.627l-.188,7.087h-2.252Z"/><path class="cls-2" d="M354.162,533.088l-.1,7.523H352.5v-1.373a5.389,5.389,0,0,1-4.022,1.6c-2.292-.019-3.583-1.228-3.583-3.145,0-2.208,2.271-3.188,7.357-3.586l.019-.811c.021-1.458-.146-2.691-2.417-2.691a9.044,9.044,0,0,0-4,.98l-.5-1.561A10.072,10.072,0,0,1,350,528.921C353.768,528.921,354.183,530.838,354.162,533.088Zm-1.978,4.879.042-2.334c-3.835.309-5.461.853-5.461,2.02,0,.957.668,1.524,1.959,1.543A5.152,5.152,0,0,0,352.184,537.967Z"/><path class="cls-2" d="M362.006,526.441h2.628l-.188,7.087h-2.252Z"/><path class="cls-2" d="M379.083,539.964a3.865,3.865,0,0,1-4.252,3.98v-1.561a2.215,2.215,0,0,0,2.522-1.856,1.233,1.233,0,0,1-.75.272,1.876,1.876,0,0,1,.082-3.75C377.791,537.049,379.083,537.967,379.083,539.964Z"/><path class="cls-2" d="M402.605,526.441h2.627l-.187,7.087h-2.253Z"/><path class="cls-2" d="M422.66,534.442c0,4.585-2.271,6.38-5.688,6.38a12.836,12.836,0,0,1-4.1-.605V523.525h1.875v5l-.166,1.772a5.612,5.612,0,0,1,3.728-1.378C421.139,528.944,422.66,530.922,422.66,534.442Zm-1.9.211c0-2.606-.916-4.021-2.688-4.045a5.6,5.6,0,0,0-3.333,1.088v7.143a8.626,8.626,0,0,0,2.374.3C419.639,539.135,420.764,537.635,420.764,534.653Z"/><path class="cls-2" d="M429.673,526.441H432.3l-.188,7.087H429.86Z"/><path class="cls-2" d="M446.749,539.964a3.865,3.865,0,0,1-4.251,3.98v-1.561a2.215,2.215,0,0,0,2.522-1.856,1.238,1.238,0,0,1-.75.272,1.876,1.876,0,0,1,.082-3.75C445.458,537.049,446.749,537.967,446.749,539.964Z"/><path class="cls-2" d="M470.271,526.441H472.9l-.187,7.087h-2.252Z"/><path class="cls-2" d="M480.157,535.005c0-4.144,2.522-6.061,5.712-6.061a8.861,8.861,0,0,1,4.167.938l-.544,1.687a7.527,7.527,0,0,0-3.792-.937c-2.208,0-3.626,1.312-3.626,4.27,0,2.92,1.128,4.233,3.626,4.233a7.144,7.144,0,0,0,3.792-1.064l.5,1.645a8.506,8.506,0,0,1-4.334,1.106C482.159,540.822,480.157,538.905,480.157,535.005Z"/><path class="cls-2" d="M497.337,526.441h2.627l-.187,7.087h-2.253Z"/><path class="cls-2" d="M514.413,539.964a3.865,3.865,0,0,1-4.251,3.98v-1.561a2.215,2.215,0,0,0,2.522-1.856,1.238,1.238,0,0,1-.75.272,1.876,1.876,0,0,1,.082-3.75C513.122,537.049,514.413,537.967,514.413,539.964Z"/><path class="cls-2" d="M537.373,538.924a1.876,1.876,0,1,1,1.875,1.875A1.868,1.868,0,0,1,537.373,538.924Z"/><path class="cls-2" d="M550.905,538.924a1.877,1.877,0,1,1,1.875,1.875A1.869,1.869,0,0,1,550.905,538.924Z"/><path class="cls-2" d="M564.438,538.924a1.877,1.877,0,1,1,1.875,1.875A1.869,1.869,0,0,1,564.438,538.924Z"/><path class="cls-2" d="M582.077,539.964a3.865,3.865,0,0,1-4.251,3.98v-1.561a2.215,2.215,0,0,0,2.522-1.856,1.238,1.238,0,0,1-.75.272,1.876,1.876,0,0,1,.082-3.75C580.786,537.049,582.077,537.967,582.077,539.964Z"/><path class="cls-2" d="M592.066,526.441h2.628l-.188,7.087h-2.252Z"/><path class="cls-2" d="M607,535.652h-.23l-3.063,4.959h-2.062l3.918-6L601.7,529.15h2.062l3.064,4.482h.269l3.063-4.482h1.96l-3.856,5.419,3.919,6.042h-2.062Z"/><path class="cls-2" d="M619.132,526.441h2.627l-.187,7.087H619.32Z"/><path class="cls-2" d="M636.209,539.964a3.865,3.865,0,0,1-4.252,3.98v-1.561a2.215,2.215,0,0,0,2.522-1.856,1.235,1.235,0,0,1-.75.272,1.876,1.876,0,0,1,.082-3.75C634.917,537.049,636.209,537.967,636.209,539.964Z"/><path class="cls-2" d="M659.733,526.441h2.627l-.187,7.087H659.92Z"/><path class="cls-2" d="M675.518,542.7h3.291v1.664H670.35V542.7h3.291v-2.315L669.2,529.15h2.02l2.4,6.23.813,2.587h.417l.834-2.587,2.353-6.23h1.918l-4.437,11.232Z"/><path class="cls-2" d="M686.8,526.441h2.628l-.188,7.087h-2.252Z"/><path class="cls-2" d="M703.875,539.964a3.865,3.865,0,0,1-4.252,3.98v-1.561a2.215,2.215,0,0,0,2.522-1.856,1.233,1.233,0,0,1-.75.272,1.876,1.876,0,0,1,.082-3.75C702.584,537.049,703.875,537.967,703.875,539.964Z"/><path class="cls-2" d="M727.4,526.441h2.627l-.187,7.087h-2.253Z"/><path class="cls-2" d="M747.223,538.947v1.664h-9.835V538.53l7.521-7.711H737.6V529.15h9.417v2.086l-7.521,7.711Z"/><path class="cls-2" d="M754.462,526.441h2.628l-.188,7.087H754.65Z"/><path class="cls-2" d="M771.309,542.7h-6.126v-1.711h4.209v-14.92h-4.209V524.36h6.126Z"/><path class="cls-1" d="M496.17,502.947v1.664h-9.919v-1.664h4.022V487.525h1.877v15.422Z"/><path class="cls-1" d="M509.119,497.088l-.1,7.523h-1.564v-1.373a5.389,5.389,0,0,1-4.022,1.6c-2.292-.019-3.583-1.228-3.583-3.145,0-2.208,2.271-3.188,7.357-3.586l.019-.811c.021-1.458-.146-2.691-2.417-2.691a9.044,9.044,0,0,0-4,.98l-.5-1.561a10.075,10.075,0,0,1,4.646-1.106C508.725,492.921,509.14,494.838,509.119,497.088Zm-1.978,4.879.042-2.334c-3.835.309-5.461.853-5.461,2.02,0,.957.668,1.524,1.959,1.543A5.152,5.152,0,0,0,507.141,501.967Z"/><path class="cls-1" d="M523.277,503.927a8.461,8.461,0,0,1-3.937.895c-3.127,0-3.689-1.711-3.647-4.167l.124-5.836h-2.812V493.15h2.833l.064-2.709h1.938l-.354,2.709h5.374v1.669h-5.126l-.124,5.625c-.042,1.458.145,2.691,1.793,2.691a7.44,7.44,0,0,0,3.375-.774Z"/><path class="cls-1" d="M536.977,502.947v1.664h-9.919v-1.664h4.23v-8.128h-4.23V493.15h6.105v9.8ZM530.142,489.4a1.877,1.877,0,1,1,1.875,1.875A1.869,1.869,0,0,1,530.142,489.4Z"/><path class="cls-1" d="M549.968,496.713v7.9h-1.875v-7.626c0-1.688-.687-2.377-2.084-2.377a5.748,5.748,0,0,0-3.335,1.088v8.915H540.8V493.15h1.585v1.271a5.682,5.682,0,0,1,3.855-1.5C548.885,492.921,549.968,494.275,549.968,496.713Z"/><path class="cls-1" d="M563.73,502.882v1.729h-9.044v-14.17H556.6v12.441Z"/><path class="cls-1" d="M567.2,499.005c0-3.811,2.187-6.084,5.271-6.084,3.251,0,5.147,2.231,5.147,5.939s-2.187,5.981-5.271,5.981C569.1,504.841,567.2,502.61,567.2,499.005Zm8.522-.038c0-2.732-1.022-4.359-3.293-4.359-2.292,0-3.333,1.669-3.333,4.294s1.02,4.251,3.293,4.251C574.68,503.153,575.721,501.485,575.721,498.967Z"/><path class="cls-1" d="M592.151,493.15l-2,11.461H587.63l-1.355-7.687-.23-2.1h-.187l-.23,2.1-1.355,7.687h-2.54l-2-11.461H581.5l1.228,7.482.251,2.315h.251l.227-2.292,1.231-7.5h2.625l1.23,7.5.23,2.292H589l.251-2.273,1.23-7.524Z"/><path class="cls-1" d="M596.414,498.9c0,2.92,1.228,4.233,3.645,4.233a7.532,7.532,0,0,0,3.792-.98l.5,1.561a8.5,8.5,0,0,1-4.333,1.106c-3.4,0-5.5-1.917-5.5-5.817s2.4-6.061,5.4-6.061c3.417,0,4.939,2.123,4.482,5.836h-7.981Zm.145-1.627H602.6c-.043-1.912-.938-2.7-2.813-2.7A3.054,3.054,0,0,0,596.559,497.275Z"/><path class="cls-1" d="M618.176,502.947v1.664h-9.919v-1.664h2.981v-9.8h1.667l-.043,2.213,5.086-2.48.019,1.852-4.854,2.353v5.859Z"/><path class="cls-1" d="M621.581,499.005c0-4.144,2.522-6.061,5.712-6.061a8.861,8.861,0,0,1,4.167.938l-.544,1.687a7.527,7.527,0,0,0-3.792-.937c-2.208,0-3.626,1.312-3.626,4.27,0,2.92,1.128,4.233,3.626,4.233a7.144,7.144,0,0,0,3.792-1.064l.5,1.645a8.5,8.5,0,0,1-4.334,1.106C623.583,504.822,621.581,502.905,621.581,499.005Z"/><path class="cls-1" d="M644.449,497.088l-.1,7.523h-1.563v-1.373a5.392,5.392,0,0,1-4.022,1.6c-2.292-.019-3.584-1.228-3.584-3.145,0-2.208,2.271-3.188,7.357-3.586l.019-.811c.021-1.458-.145-2.691-2.416-2.691a9.04,9.04,0,0,0-4,.98l-.5-1.561a10.071,10.071,0,0,1,4.645-1.106C644.055,492.921,644.47,494.838,644.449,497.088Zm-1.978,4.879.042-2.334c-3.834.309-5.461.853-5.461,2.02,0,.957.668,1.524,1.96,1.543A5.149,5.149,0,0,0,642.471,501.967Z"/><path class="cls-1" d="M648.71,503.946l.563-1.749a8.82,8.82,0,0,0,4.188.956c2.126,0,3.148-.5,3.148-1.561,0-2.315-7.69-1.542-7.69-5.334,0-2.147,1.9-3.314,4.9-3.314a10.719,10.719,0,0,1,4.148.811l-.543,1.711a8.1,8.1,0,0,0-3.6-.858c-1.978,0-3,.525-3,1.439,0,2.231,7.69,1.458,7.69,5.335,0,2.376-2.105,3.44-5.126,3.44A10.868,10.868,0,0,1,648.71,503.946Z"/><path class="cls-1" d="M664.078,498.9c0,2.92,1.228,4.233,3.645,4.233a7.532,7.532,0,0,0,3.792-.98l.5,1.561a8.5,8.5,0,0,1-4.333,1.106c-3.4,0-5.5-1.917-5.5-5.817s2.4-6.061,5.4-6.061c3.418,0,4.939,2.123,4.482,5.836h-7.981Zm.145-1.627h6.043c-.043-1.912-.938-2.7-2.813-2.7A3.054,3.054,0,0,0,664.223,497.275Z"/><path class="cls-1" d="M281.9,546.019a.855.855,0,0,0,.12-.067c.081-.046.161-.093.241-.14l.165-.1a.573.573,0,0,0-.09-.36.58.58,0,0,1-.145-.227.7.7,0,0,0-.108-.218.776.776,0,0,1-.144-.228.838.838,0,0,0-.1-.22.6.6,0,0,1-.049-.13.881.881,0,0,0-.124-.3,2.819,2.819,0,0,1-.2-.278.541.541,0,0,1-.045-.094,1.136,1.136,0,0,0-.052-.13,1.728,1.728,0,0,0-.2-.381c-.011-.011,0-.033-.008-.048s-.023-.039-.033-.06-.033-.044-.031-.073a.377.377,0,0,0-.1-.248.493.493,0,0,1-.14-.281c0-.024-.023-.04-.036-.059-.039-.055-.081-.107-.115-.164a.472.472,0,0,1-.1-.26.22.22,0,0,0-.1-.182.214.214,0,0,1-.048-.052c-.038-.075-.016-.178-.116-.225-.039-.018-.007-.081-.031-.112a3.159,3.159,0,0,1-.265-.475.719.719,0,0,1-.032-.076.349.349,0,0,0-.045-.119.335.335,0,0,1-.075-.234.108.108,0,0,0-.043-.08.756.756,0,0,1-.194-.253.946.946,0,0,0-.109-.218c-.06-.087-.124-.172-.184-.259a.168.168,0,0,1-.038-.072.762.762,0,0,0-.168-.408.14.14,0,0,1-.033-.163c.016-.036,0-.057-.033-.072a.324.324,0,0,1-.164-.215c-.032-.091-.018-.2-.13-.256-.016-.007-.01-.028-.016-.043a1.208,1.208,0,0,0-.051-.13c-.019-.038-.058-.067-.069-.108a.971.971,0,0,0-.15-.3c-.014-.019-.036-.035-.034-.06.007-.1-.058-.153-.1-.222a.749.749,0,0,1-.047-.094.89.89,0,0,0-.061-.15c-.11-.162-.226-.322-.342-.48a.257.257,0,0,1-.053-.181.282.282,0,0,0-.03-.126c-.011-.029-.045-.048-.044-.082,0-.1-.063-.158-.11-.23-.017-.026-.047-.048-.047-.08,0-.069-.015-.129-.1-.154-.023-.007-.022-.032-.029-.05-.022-.049-.04-.1-.064-.15-.013-.027-.041-.048-.052-.078a.959.959,0,0,1-.057-.2c0-.045-.009-.089-.061-.11a.049.049,0,0,1-.033-.034.317.317,0,0,0-.178-.22c-.06-.036-.13-.08-.083-.163.091-.161,0-.235-.085-.312a.189.189,0,0,1-.07-.1.383.383,0,0,0-.083-.2.359.359,0,0,1-.076-.193.124.124,0,0,0-.066-.082.11.11,0,0,1-.071-.105.154.154,0,0,0-.026-.078c-.028-.046-.072-.085-.017-.167.009-.014.007-.032-.006-.034-.111-.017-.055-.128-.152-.153a.321.321,0,0,0-.149-.22s0-.007,0-.011a.166.166,0,0,0-.069-.16c-.062-.059-.011-.175-.118-.211-.011,0,0-.026.009-.041.039-.077,0-.12-.061-.146a.105.105,0,0,1-.073-.116c0-.039.007-.084-.025-.1a.377.377,0,0,1-.159-.256c-.016-.05.03-.122.008-.165s-.092-.064-.12-.106-.012-.149-.147-.152c-.02,0-.013-.027-.019-.041a.382.382,0,0,0-.031-.075.557.557,0,0,1-.078-.182,1.685,1.685,0,0,1-.06-.279.056.056,0,0,0-.031-.049c-.113-.055-.1-.173-.148-.261-.018-.033-.016-.075-.064-.1a.228.228,0,0,1-.076-.064.449.449,0,0,1-.116-.253c-.006-.031-.039-.052-.035-.086a.493.493,0,0,1,.063-.115c-.15,0-.153,0-.163-.035-.027-.082-.051-.164-.078-.246,0-.014-.007-.033-.025-.039-.09-.031-.08-.115-.115-.174s-.006-.116-.085-.136c-.014,0-.009-.021-.012-.033-.021-.075-.039-.152-.063-.226a.061.061,0,0,0-.04-.044.091.091,0,0,1-.068-.094.085.085,0,0,0-.053-.076.08.08,0,0,1-.049-.1.149.149,0,0,0-.069-.171.339.339,0,0,1-.123-.235.135.135,0,0,0-.066-.095.4.4,0,0,1-.2-.26.725.725,0,0,0-.1-.209,1.328,1.328,0,0,1-.076-.132,1.386,1.386,0,0,0-.061-.15,2.689,2.689,0,0,0-.178-.249.386.386,0,0,1-.1-.272.152.152,0,0,0-.01-.072c-.069-.135-.149-.264-.208-.4a1.5,1.5,0,0,0-.174-.343c-.009-.012,0-.033-.006-.048a.876.876,0,0,0-.081-.244,2.075,2.075,0,0,0-.251-.367.255.255,0,0,1-.046-.118c-.019-.06-.014-.132-.058-.177a.168.168,0,0,1-.048-.1c-.007-.052-.007-.106-.078-.127-.033-.009-.037-.041-.046-.066a.517.517,0,0,0-.031-.114.113.113,0,0,0-.1-.06c-.082,0-.042-.068-.1-.071-.1,0-.145-.056-.271-.045a.181.181,0,0,1-.178-.067.347.347,0,0,0-.051-.065c-.006-.006-.018-.006-.026-.011-.147.071-.293.143-.437.22a3.042,3.042,0,0,1-.4.2.97.97,0,0,0-.12.067c-.08.047-.161.093-.241.141l-.164.1a.559.559,0,0,0,.09.359.6.6,0,0,1,.144.227.692.692,0,0,0,.109.219.789.789,0,0,1,.143.227.8.8,0,0,0,.1.22.735.735,0,0,1,.049.131.847.847,0,0,0,.123.3,2.523,2.523,0,0,1,.2.278.514.514,0,0,1,.045.1,1.121,1.121,0,0,0,.052.129,1.779,1.779,0,0,0,.2.382c.011.011,0,.033.008.047s.023.04.033.06.033.045.031.074a.374.374,0,0,0,.1.247.5.5,0,0,1,.14.281c0,.025.023.041.037.06.038.055.081.107.114.164a.47.47,0,0,1,.1.26.227.227,0,0,0,.1.182.181.181,0,0,1,.048.052c.038.075.017.177.116.224.039.018.007.082.031.113a3.08,3.08,0,0,1,.266.475c.012.024.021.05.031.075a.377.377,0,0,0,.045.12.33.33,0,0,1,.075.234.113.113,0,0,0,.043.08.749.749,0,0,1,.194.252.93.93,0,0,0,.11.218c.059.087.123.173.183.26a.157.157,0,0,1,.038.072.77.77,0,0,0,.169.408.141.141,0,0,1,.032.163c-.016.036,0,.056.033.071a.323.323,0,0,1,.165.215c.032.091.017.2.129.256.016.008.01.029.016.044a1.192,1.192,0,0,0,.051.129c.02.038.058.067.07.109a.974.974,0,0,0,.149.3c.014.019.036.036.034.061-.007.094.058.153.1.222a.623.623,0,0,1,.047.093.867.867,0,0,0,.061.151c.111.162.226.321.342.48a.254.254,0,0,1,.053.18.282.282,0,0,0,.03.126c.011.03.045.049.044.082,0,.1.064.159.11.231.017.026.047.047.048.08,0,.068.014.129.1.154.023.007.022.032.029.049.022.05.04.1.064.15.014.028.041.049.052.078a.993.993,0,0,1,.057.2c.006.045.009.089.061.111a.047.047,0,0,1,.033.034.317.317,0,0,0,.178.22c.06.035.13.079.083.162-.091.161,0,.235.085.312a.2.2,0,0,1,.07.105.386.386,0,0,0,.083.2.356.356,0,0,1,.076.193.125.125,0,0,0,.066.081.113.113,0,0,1,.072.106.139.139,0,0,0,.025.077c.028.047.072.086.017.168-.009.013-.007.031.006.034.111.017.055.128.152.152a.322.322,0,0,0,.149.22s0,.007,0,.012a.163.163,0,0,0,.07.159c.062.059.01.176.117.212.011,0,0,.025-.009.04-.039.078,0,.12.061.147a.105.105,0,0,1,.073.116c0,.039-.007.084.026.1a.381.381,0,0,1,.159.256c.015.051-.03.122-.008.166s.092.064.12.1c.038.057.011.149.146.152.02,0,.014.027.019.041a.391.391,0,0,0,.031.076.561.561,0,0,1,.078.181,1.6,1.6,0,0,1,.06.28.058.058,0,0,0,.031.049c.113.054.1.173.148.26.018.034.017.076.064.095a.256.256,0,0,1,.077.064.465.465,0,0,1,.116.253c0,.032.038.052.034.086a.467.467,0,0,1-.062.115c.149,0,.152,0,.163.036.026.081.051.164.077.245.005.015.007.033.025.039.09.032.08.115.115.175s.006.116.086.136c.013,0,.008.021.011.032.021.076.04.152.063.227a.065.065,0,0,0,.04.044.092.092,0,0,1,.069.093.085.085,0,0,0,.052.077.078.078,0,0,1,.049.1.15.15,0,0,0,.069.172.332.332,0,0,1,.123.234.132.132,0,0,0,.067.1.406.406,0,0,1,.2.261.765.765,0,0,0,.1.209,1.209,1.209,0,0,1,.076.131,1.518,1.518,0,0,0,.061.15,2.856,2.856,0,0,0,.179.25.379.379,0,0,1,.1.272.154.154,0,0,0,.01.072c.069.135.15.264.209.4a1.466,1.466,0,0,0,.173.342c.009.012,0,.033.006.048a.887.887,0,0,0,.081.244,2.04,2.04,0,0,0,.251.367.248.248,0,0,1,.046.119c.019.059.015.131.058.177a.165.165,0,0,1,.048.1c.007.053.007.106.078.127.033.01.037.041.047.067s.009.081.031.113a.112.112,0,0,0,.1.061c.082,0,.042.067.1.07.1,0,.145.057.27.045a.185.185,0,0,1,.178.067.324.324,0,0,0,.051.066.139.139,0,0,0,.027.01c.146-.07.292-.142.436-.22A3.169,3.169,0,0,1,281.9,546.019Z"/><path class="cls-1" d="M327.5,543.619a.855.855,0,0,0,.12-.067c.081-.046.161-.093.241-.14l.165-.1a.573.573,0,0,0-.09-.36.58.58,0,0,1-.145-.227.7.7,0,0,0-.108-.218.776.776,0,0,1-.144-.228.838.838,0,0,0-.1-.22.6.6,0,0,1-.049-.13.881.881,0,0,0-.124-.3,2.819,2.819,0,0,1-.2-.278.541.541,0,0,1-.045-.094,1.136,1.136,0,0,0-.052-.13,1.728,1.728,0,0,0-.2-.381c-.011-.011,0-.033-.008-.048s-.023-.039-.033-.06-.033-.044-.031-.073a.377.377,0,0,0-.1-.248.493.493,0,0,1-.14-.281c0-.024-.023-.04-.036-.059-.039-.055-.081-.107-.115-.164a.472.472,0,0,1-.1-.26.22.22,0,0,0-.1-.182.214.214,0,0,1-.048-.052c-.038-.075-.016-.178-.116-.225-.039-.018-.007-.081-.031-.112a3.159,3.159,0,0,1-.265-.475.719.719,0,0,1-.032-.076.349.349,0,0,0-.045-.119.335.335,0,0,1-.075-.234.108.108,0,0,0-.043-.08.756.756,0,0,1-.194-.253.946.946,0,0,0-.109-.218c-.06-.087-.124-.172-.184-.259a.168.168,0,0,1-.038-.072.762.762,0,0,0-.168-.408.14.14,0,0,1-.033-.163c.016-.036,0-.057-.033-.072a.324.324,0,0,1-.164-.215c-.032-.091-.018-.2-.13-.256-.016-.007-.01-.028-.016-.043a1.208,1.208,0,0,0-.051-.13c-.019-.038-.058-.067-.069-.108a.971.971,0,0,0-.15-.3c-.014-.019-.036-.035-.034-.06.007-.095-.058-.153-.1-.222a.749.749,0,0,1-.047-.094.89.89,0,0,0-.061-.15c-.11-.162-.226-.322-.342-.48a.257.257,0,0,1-.053-.181.282.282,0,0,0-.03-.126c-.011-.029-.045-.048-.044-.082,0-.1-.063-.158-.11-.23-.017-.026-.047-.048-.047-.08,0-.069-.015-.129-.1-.154-.023-.007-.022-.032-.029-.05-.022-.049-.04-.1-.064-.15-.013-.027-.041-.048-.052-.078a.959.959,0,0,1-.057-.2c0-.045-.009-.089-.061-.11a.049.049,0,0,1-.033-.034.317.317,0,0,0-.178-.22c-.06-.036-.13-.08-.083-.163.091-.161,0-.235-.085-.312a.189.189,0,0,1-.07-.1.383.383,0,0,0-.083-.2.359.359,0,0,1-.076-.193.124.124,0,0,0-.066-.082.11.11,0,0,1-.071-.105.154.154,0,0,0-.026-.078c-.028-.046-.072-.085-.017-.167.009-.014.007-.032-.006-.034-.111-.017-.055-.128-.152-.153a.321.321,0,0,0-.149-.22s0-.007,0-.011a.166.166,0,0,0-.069-.16c-.062-.059-.011-.175-.118-.211-.011,0,0-.026.009-.041.039-.077,0-.12-.061-.146a.105.105,0,0,1-.073-.116c0-.039.007-.084-.025-.1a.377.377,0,0,1-.159-.256c-.016-.05.03-.122.008-.165s-.092-.064-.12-.106-.012-.149-.147-.152c-.02,0-.013-.027-.019-.041a.382.382,0,0,0-.031-.075.557.557,0,0,1-.078-.182,1.685,1.685,0,0,1-.06-.279.056.056,0,0,0-.031-.049c-.113-.055-.1-.173-.148-.261-.018-.033-.016-.075-.064-.1a.228.228,0,0,1-.076-.064.449.449,0,0,1-.116-.253c-.006-.031-.039-.052-.035-.086a.493.493,0,0,1,.063-.115c-.15,0-.153,0-.163-.035-.027-.082-.051-.164-.078-.246,0-.014-.007-.033-.025-.039-.09-.031-.08-.115-.115-.174s-.006-.116-.085-.136c-.014,0-.009-.021-.012-.033-.021-.075-.039-.152-.063-.226a.061.061,0,0,0-.04-.044.091.091,0,0,1-.068-.094.085.085,0,0,0-.053-.076.08.08,0,0,1-.049-.1.149.149,0,0,0-.069-.171.339.339,0,0,1-.123-.235.135.135,0,0,0-.066-.1.4.4,0,0,1-.2-.26.725.725,0,0,0-.1-.209,1.328,1.328,0,0,1-.076-.132,1.386,1.386,0,0,0-.061-.15,2.689,2.689,0,0,0-.178-.249.386.386,0,0,1-.1-.272.152.152,0,0,0-.01-.072c-.069-.135-.149-.264-.208-.4a1.5,1.5,0,0,0-.174-.343c-.009-.012,0-.033-.006-.048a.876.876,0,0,0-.081-.244,2.075,2.075,0,0,0-.251-.367.255.255,0,0,1-.046-.118c-.019-.06-.014-.132-.058-.177a.168.168,0,0,1-.048-.1c-.007-.052-.007-.106-.078-.127-.033-.009-.037-.041-.046-.066a.517.517,0,0,0-.031-.114.113.113,0,0,0-.1-.06c-.082,0-.042-.068-.1-.071-.1,0-.145-.056-.271-.045a.181.181,0,0,1-.178-.067.347.347,0,0,0-.051-.065c-.006-.006-.018-.006-.026-.011-.147.071-.293.143-.437.22a3.042,3.042,0,0,1-.405.2.97.97,0,0,0-.12.067c-.08.047-.161.093-.241.141l-.164.1a.559.559,0,0,0,.09.359.6.6,0,0,1,.144.227.692.692,0,0,0,.109.219.789.789,0,0,1,.143.227.8.8,0,0,0,.105.22.735.735,0,0,1,.049.131.847.847,0,0,0,.123.3,2.523,2.523,0,0,1,.2.278.514.514,0,0,1,.045.1,1.121,1.121,0,0,0,.052.129,1.779,1.779,0,0,0,.2.382c.011.011,0,.033.008.047s.023.04.033.06.033.045.031.074a.374.374,0,0,0,.1.247.5.5,0,0,1,.14.281c0,.025.023.041.037.06.038.055.081.107.114.164a.47.47,0,0,1,.1.26.227.227,0,0,0,.1.182.181.181,0,0,1,.048.052c.038.075.017.177.116.224.039.018.007.082.031.113a3.08,3.08,0,0,1,.266.475c.012.024.021.05.031.075a.377.377,0,0,0,.045.12.33.33,0,0,1,.075.234.113.113,0,0,0,.043.08.749.749,0,0,1,.194.252.93.93,0,0,0,.11.218c.059.087.123.173.183.26a.157.157,0,0,1,.038.072.77.77,0,0,0,.169.408.141.141,0,0,1,.032.163c-.016.036,0,.056.033.071a.323.323,0,0,1,.165.215c.032.091.017.205.129.256.016.008.01.029.016.044a1.192,1.192,0,0,0,.051.129c.02.038.058.067.07.109a.974.974,0,0,0,.149.3c.014.019.036.036.034.061-.007.094.058.153.1.222a.623.623,0,0,1,.047.093.867.867,0,0,0,.061.151c.111.162.226.321.342.48a.254.254,0,0,1,.053.18.282.282,0,0,0,.03.126c.011.03.045.049.044.082,0,.1.064.159.11.231.017.026.047.047.048.08,0,.068.014.129.1.154.023.007.022.032.029.049.022.05.04.1.064.15.014.028.041.049.052.078a.993.993,0,0,1,.057.2c.006.045.009.089.061.111a.047.047,0,0,1,.033.034.317.317,0,0,0,.178.22c.06.035.13.079.083.162-.091.161,0,.235.085.312a.2.2,0,0,1,.07.105.386.386,0,0,0,.083.2.356.356,0,0,1,.076.193.125.125,0,0,0,.066.081.113.113,0,0,1,.072.106.139.139,0,0,0,.025.077c.028.047.072.086.017.168-.009.013-.007.031.006.034.111.017.055.128.152.152a.322.322,0,0,0,.149.22s0,.007,0,.012a.163.163,0,0,0,.07.159c.062.059.01.176.117.212.011,0,0,.025-.009.04-.039.078,0,.12.061.147a.105.105,0,0,1,.073.116c0,.039-.007.084.026.1a.381.381,0,0,1,.159.256c.015.051-.03.122-.008.166s.092.064.12.105c.038.057.011.149.146.152.02,0,.014.027.019.041a.391.391,0,0,0,.031.076.561.561,0,0,1,.078.181,1.6,1.6,0,0,1,.06.28.058.058,0,0,0,.031.049c.113.054.1.173.148.26.018.034.017.076.064.1a.256.256,0,0,1,.077.064.465.465,0,0,1,.116.253c0,.032.038.052.034.086a.467.467,0,0,1-.062.115c.149,0,.152,0,.163.036.026.081.051.164.077.245,0,.015.007.033.025.039.09.032.08.115.115.175s.006.116.086.136c.013,0,.008.021.011.032.021.076.04.152.063.227a.065.065,0,0,0,.04.044.092.092,0,0,1,.069.093.085.085,0,0,0,.052.077.078.078,0,0,1,.049.1.15.15,0,0,0,.069.172.332.332,0,0,1,.123.234.132.132,0,0,0,.067.1.406.406,0,0,1,.2.261.765.765,0,0,0,.1.209,1.209,1.209,0,0,1,.076.131,1.518,1.518,0,0,0,.061.15,2.856,2.856,0,0,0,.179.25.379.379,0,0,1,.1.272.154.154,0,0,0,.01.072c.069.135.15.264.209.4a1.466,1.466,0,0,0,.173.342c.009.012,0,.033.006.048a.887.887,0,0,0,.081.244,2.04,2.04,0,0,0,.251.367.248.248,0,0,1,.046.119c.019.059.015.131.058.177a.165.165,0,0,1,.048.1c.007.053.007.106.078.127.033.01.037.041.047.067s.009.081.031.113a.112.112,0,0,0,.1.061c.082,0,.042.067.105.07.1,0,.145.057.27.045a.185.185,0,0,1,.178.067.324.324,0,0,0,.051.066.139.139,0,0,0,.027.01c.146-.07.292-.142.436-.22A3.169,3.169,0,0,1,327.5,543.619Z"/></svg>