<svg id="Livello_1" data-name="Livello 1" xmlns="http://www.w3.org/2000/svg" viewBox="0 0 952 407.737"><defs><style>.cls-1{fill:#1858a8;}.cls-2{fill:#f36;}.cls-3{fill:#ffeded;}</style></defs><title>insert</title><path class="cls-1" d="M291.244,65.982V80.9h4.209v1.711h-6.126V64.276h6.126v1.706Z"/><path class="cls-1" d="M302.067,73.444c0-7.626,2.417-9.168,6.19-9.168v1.706c-2.855,0-4.209.98-4.209,7.252,0,6.689,1.354,7.668,4.209,7.668v1.711C304.484,82.613,302.067,81.277,302.067,73.444Z"/><path class="cls-1" d="M323.874,78.821v1.706h-9.919V78.821h4.418V69.859l-4.418,1.687V69.694l4.418-1.687v-1.65h1.917V78.821Z"/><path class="cls-1" d="M337.406,78.821v1.706h-9.918V78.821h4.418V69.859l-4.418,1.687V69.694l4.418-1.687v-1.65h1.917V78.821Z"/><path class="cls-1" d="M343.582,78.84a1.876,1.876,0,1,1,1.875,1.875A1.869,1.869,0,0,1,343.582,78.84Z"/><path class="cls-1" d="M364.388,78.821v1.706H354.136V78.61c3.647-2.226,7.9-4.5,7.9-8.123,0-1.608-.708-2.63-3.082-2.63-2.585,0-3.272,1.148-3.272,3.108a3.567,3.567,0,0,0,.167,1.27l-1.981-.145a10.083,10.083,0,0,1-.082-1.336c0-2.77,1.812-4.6,5.271-4.6,4.064,0,4.939,2.25,4.939,4.125,0,4-3.75,6.253-6.043,7.8l-1.125.5v.253Z"/><path class="cls-1" d="M374.754,79.88a3.865,3.865,0,0,1-4.252,3.98V82.3a2.215,2.215,0,0,0,2.522-1.856,1.233,1.233,0,0,1-.75.272,1.876,1.876,0,0,1,.082-3.75C373.463,76.965,374.754,77.884,374.754,79.88Z"/><path class="cls-1" d="M404.656,76.444c0,2.377-1.688,4.294-5.918,4.294a11.24,11.24,0,0,1-4.793-.937l.541-1.627a10.355,10.355,0,0,0,4.418.877c2.834,0,3.834-.9,3.834-2.5,0-1.355-.916-2.311-3.625-2.311h-3.856V72.549h5c1.5-.605,2.02-1.4,2.02-2.5,0-1.6-1.083-2.208-3.27-2.208a9.625,9.625,0,0,0-4.314.98l-.5-1.561a10.947,10.947,0,0,1,4.96-1.106c3.084,0,5.041,1.186,5.041,3.792a3.541,3.541,0,0,1-2.062,3.187C403.884,73.777,404.656,74.734,404.656,76.444Z"/><path class="cls-1" d="M418.521,78.821v1.706H408.27V78.61c3.647-2.226,7.9-4.5,7.9-8.123,0-1.608-.708-2.63-3.082-2.63-2.585,0-3.272,1.148-3.272,3.108a3.572,3.572,0,0,0,.166,1.27L408,72.09a10.083,10.083,0,0,1-.082-1.336c0-2.77,1.811-4.6,5.271-4.6,4.064,0,4.938,2.25,4.938,4.125,0,4-3.75,6.253-6.042,7.8l-1.125.5v.253Z"/><path class="cls-1" d="M424.781,78.84a1.877,1.877,0,1,1,1.875,1.875A1.869,1.869,0,0,1,424.781,78.84Z"/><path class="cls-1" d="M445.671,78.821v1.706h-9.919V78.821h4.418V69.859l-4.418,1.687V69.694l4.418-1.687v-1.65h1.915V78.821Z"/><path class="cls-1" d="M456.516,73.444c0,7.627-2.419,9.169-6.19,9.169V80.9c2.855,0,4.209-.979,4.209-7.251,0-6.689-1.354-7.669-4.209-7.669V64.276C454.1,64.276,456.516,65.607,456.516,73.444Z"/><path class="cls-1" d="M469.486,79.88a3.865,3.865,0,0,1-4.252,3.98V82.3a2.215,2.215,0,0,0,2.522-1.856,1.233,1.233,0,0,1-.75.272,1.876,1.876,0,0,1,.082-3.75C468.2,76.965,469.486,77.884,469.486,79.88Z"/><path class="cls-1" d="M302.067,98.429c0-7.627,2.417-9.169,6.19-9.169v1.706c-2.855,0-4.209.98-4.209,7.252,0,6.689,1.354,7.669,4.209,7.669V107.6C304.484,107.6,302.067,106.262,302.067,98.429Z"/><path class="cls-1" d="M324.1,102.6h-2.042v2.916h-1.917V102.6h-7.125v-1.917l5.147-9.338h1.978l-4.375,7.941-.98,1.336v.267h5.355V91.341h1.917v9.544H324.1Z"/><path class="cls-1" d="M336.989,101.429c0,2.376-1.687,4.294-5.918,4.294a11.243,11.243,0,0,1-4.793-.938l.542-1.626a10.371,10.371,0,0,0,4.418.876c2.833,0,3.834-.9,3.834-2.5,0-1.355-.916-2.311-3.626-2.311h-3.855V97.534h5c1.5-.605,2.021-1.4,2.021-2.5,0-1.6-1.083-2.207-3.27-2.207a9.64,9.64,0,0,0-4.315.979l-.5-1.561a10.942,10.942,0,0,1,4.959-1.106c3.085,0,5.042,1.186,5.042,3.792a3.542,3.542,0,0,1-2.063,3.188C336.218,98.762,336.989,99.718,336.989,101.429Z"/><path class="cls-1" d="M343.582,103.824a1.876,1.876,0,1,1,1.875,1.875A1.869,1.869,0,0,1,343.582,103.824Z"/><path class="cls-1" d="M364.013,97.969c0,4.149-1.229,7.754-5.918,7.754a12.575,12.575,0,0,1-3.959-.521l.52-1.753a9.473,9.473,0,0,0,3.605.586c2.834,0,3.584-1.772,3.771-3.919l-3.333-.4c-3.375-.394-4.98-1.561-4.98-4.144,0-2.54,1.666-4.458,4.938-4.458C362.159,91.116,364.013,93.446,364.013,97.969Zm-1.918.436v-.332c0-3.539-.979-5.269-3.6-5.269-2.084,0-2.855,1.2-2.855,2.6,0,1.627.813,2.316,3.523,2.649Z"/><path class="cls-1" d="M374.754,104.865c0,1.837-1.125,3.979-4.252,3.979v-1.56a2.215,2.215,0,0,0,2.522-1.857,1.233,1.233,0,0,1-.75.272,1.876,1.876,0,0,1,.082-3.75C373.463,101.949,374.754,102.868,374.754,104.865Z"/><path class="cls-1" d="M405.073,103.805v1.707h-9.919v-1.707h4.418V94.843l-4.418,1.687V94.679l4.418-1.688v-1.65h1.915v12.464Z"/><path class="cls-1" d="M418.833,102.6h-2.041v2.916h-1.918V102.6h-7.125v-1.917l5.147-9.338h1.978L410.5,99.282l-.98,1.336v.267h5.355V91.341h1.918v9.544h2.041Z"/><path class="cls-1" d="M424.781,103.824a1.877,1.877,0,1,1,1.875,1.875A1.869,1.869,0,0,1,424.781,103.824Z"/><path class="cls-1" d="M445,102.137c0,2.437-1.9,3.731-4.854,3.731-2.875,0-4.772-1.083-4.772-3.459,0-1.791,1.395-2.813,3.064-3.666-1.878-.816-3.6-1.856-3.6-3.9,0-2.4,2.041-3.853,5.438-3.853,3.583,0,5.271,1.289,5.271,3.52,0,2.063-1.749,3.169-3.647,4.083C443.567,99.366,445,100.346,445,102.137Zm-4.751-4.252c1.793-.834,3.375-1.687,3.375-3.291,0-1.167-.895-1.917-3.5-1.917-2.231,0-3.377.75-3.377,2.082C436.751,96.324,438.42,97.116,440.252,97.885Zm2.834,4.336c0-1.336-1.376-2.062-3-2.77-1.542.75-2.791,1.542-2.791,2.873,0,1.041.583,1.9,2.957,1.9C442.5,104.223,443.086,103.365,443.086,102.221Z"/><path class="cls-1" d="M456.516,98.429c0,7.626-2.419,9.169-6.19,9.169v-1.711c2.855,0,4.209-.98,4.209-7.252,0-6.689-1.354-7.669-4.209-7.669V89.26C454.1,89.26,456.516,90.591,456.516,98.429Z"/><path class="cls-1" d="M469.256,107.6H463.13v-1.711h4.209V90.966H463.13V89.26h6.126Z"/><path class="cls-1" d="M516.844,267.582V282.5h4.209v1.711h-6.126V265.876h6.126v1.706Z"/><path class="cls-1" d="M527.667,275.044c0-7.626,2.417-9.168,6.19-9.168v1.706c-2.855,0-4.209.98-4.209,7.252,0,6.689,1.354,7.668,4.209,7.668v1.711C530.084,284.213,527.667,282.877,527.667,275.044Z"/><path class="cls-1" d="M549.474,280.421v1.706h-9.919v-1.706h4.418v-8.962l-4.418,1.687v-1.852l4.418-1.687v-1.65h1.917v12.464Z"/><path class="cls-1" d="M563.006,280.421v1.706h-9.918v-1.706h4.418v-8.962l-4.418,1.687v-1.852l4.418-1.687v-1.65h1.917v12.464Z"/><path class="cls-1" d="M569.182,280.44a1.876,1.876,0,1,1,1.875,1.875A1.869,1.869,0,0,1,569.182,280.44Z"/><path class="cls-1" d="M589.988,280.421v1.706H579.736V280.21c3.647-2.226,7.9-4.5,7.9-8.123,0-1.608-.708-2.63-3.082-2.63-2.585,0-3.272,1.148-3.272,3.108a3.567,3.567,0,0,0,.167,1.27l-1.981-.145a10.083,10.083,0,0,1-.082-1.336c0-2.77,1.812-4.6,5.271-4.6,4.064,0,4.939,2.25,4.939,4.125,0,4-3.75,6.253-6.043,7.8l-1.125.5v.253Z"/><path class="cls-1" d="M600.354,281.48a3.865,3.865,0,0,1-4.252,3.98V283.9a2.215,2.215,0,0,0,2.522-1.856,1.233,1.233,0,0,1-.75.272,1.876,1.876,0,0,1,.082-3.75C599.063,278.565,600.354,279.484,600.354,281.48Z"/><path class="cls-1" d="M616.72,278.044c0,2.377-1.687,4.294-5.918,4.294a11.243,11.243,0,0,1-4.793-.937l.542-1.627a10.355,10.355,0,0,0,4.418.877c2.833,0,3.834-.9,3.834-2.5,0-1.355-.916-2.311-3.626-2.311h-3.855v-1.688h5c1.5-.605,2.02-1.4,2.02-2.5,0-1.6-1.083-2.208-3.27-2.208a9.629,9.629,0,0,0-4.315.98l-.5-1.561a10.947,10.947,0,0,1,4.96-1.106c3.084,0,5.041,1.186,5.041,3.792a3.541,3.541,0,0,1-2.062,3.187C615.949,275.377,616.72,276.334,616.72,278.044Z"/><path class="cls-1" d="M630.588,280.421v1.706H620.337V280.21c3.647-2.226,7.9-4.5,7.9-8.123,0-1.608-.708-2.63-3.082-2.63-2.585,0-3.272,1.148-3.272,3.108a3.572,3.572,0,0,0,.166,1.27l-1.98-.145a10.083,10.083,0,0,1-.082-1.336c0-2.77,1.812-4.6,5.271-4.6,4.064,0,4.938,2.25,4.938,4.125,0,4-3.75,6.253-6.042,7.8l-1.125.5v.253Z"/><path class="cls-1" d="M636.849,280.44a1.876,1.876,0,1,1,1.875,1.875A1.868,1.868,0,0,1,636.849,280.44Z"/><path class="cls-1" d="M657.738,280.421v1.706H647.82v-1.706h4.418v-8.962l-4.418,1.687v-1.852l4.418-1.687v-1.65h1.914v12.464Z"/><path class="cls-1" d="M668.583,275.044c0,7.627-2.419,9.169-6.19,9.169V282.5c2.855,0,4.209-.979,4.209-7.251,0-6.689-1.354-7.669-4.209-7.669v-1.706C666.164,265.876,668.583,267.207,668.583,275.044Z"/><path class="cls-1" d="M681.553,281.48a3.865,3.865,0,0,1-4.251,3.98V283.9a2.215,2.215,0,0,0,2.522-1.856,1.238,1.238,0,0,1-.75.272,1.876,1.876,0,0,1,.082-3.75C680.262,278.565,681.553,279.484,681.553,281.48Z"/><path class="cls-1" d="M527.667,300.029c0-7.627,2.417-9.169,6.19-9.169v1.706c-2.855,0-4.209.98-4.209,7.252,0,6.689,1.354,7.669,4.209,7.669V309.2C530.084,309.2,527.667,307.862,527.667,300.029Z"/><path class="cls-1" d="M549.7,304.2h-2.042v2.916h-1.917V304.2h-7.125v-1.917l5.147-9.338h1.978l-4.375,7.941-.98,1.336v.267h5.355v-9.544h1.917v9.544H549.7Z"/><path class="cls-1" d="M562.589,303.029c0,2.376-1.687,4.294-5.918,4.294a11.243,11.243,0,0,1-4.793-.938l.542-1.626a10.371,10.371,0,0,0,4.418.876c2.833,0,3.834-.9,3.834-2.5,0-1.355-.916-2.311-3.626-2.311h-3.855v-1.687h5c1.5-.605,2.021-1.4,2.021-2.5,0-1.6-1.083-2.207-3.27-2.207a9.64,9.64,0,0,0-4.315.979l-.5-1.561a10.942,10.942,0,0,1,4.959-1.106c3.085,0,5.042,1.186,5.042,3.792a3.542,3.542,0,0,1-2.063,3.188C561.818,300.362,562.589,301.318,562.589,303.029Z"/><path class="cls-1" d="M569.182,305.424a1.876,1.876,0,1,1,1.875,1.875A1.869,1.869,0,0,1,569.182,305.424Z"/><path class="cls-1" d="M589.613,299.569c0,4.149-1.229,7.754-5.918,7.754a12.575,12.575,0,0,1-3.959-.521l.52-1.753a9.473,9.473,0,0,0,3.605.586c2.834,0,3.584-1.772,3.771-3.919l-3.333-.4c-3.375-.394-4.98-1.561-4.98-4.144,0-2.54,1.666-4.458,4.938-4.458C587.759,292.716,589.613,295.046,589.613,299.569Zm-1.918.436v-.332c0-3.539-.979-5.269-3.6-5.269-2.084,0-2.855,1.2-2.855,2.6,0,1.627.813,2.316,3.523,2.649Z"/><path class="cls-1" d="M600.354,306.465c0,1.837-1.125,3.979-4.252,3.979v-1.56a2.215,2.215,0,0,0,2.522-1.857,1.233,1.233,0,0,1-.75.272,1.876,1.876,0,0,1,.082-3.75C599.063,303.549,600.354,304.468,600.354,306.465Z"/><path class="cls-1" d="M617.138,305.4v1.707h-9.919V305.4h4.418v-8.962l-4.418,1.687v-1.851l4.418-1.688v-1.65h1.917V305.4Z"/><path class="cls-1" d="M630.9,304.2h-2.041v2.916h-1.917V304.2h-7.125v-1.917l5.146-9.338h1.979l-4.376,7.941-.98,1.336v.267h5.356v-9.544h1.917v9.544H630.9Z"/><path class="cls-1" d="M636.849,305.424a1.876,1.876,0,1,1,1.875,1.875A1.869,1.869,0,0,1,636.849,305.424Z"/><path class="cls-1" d="M657.07,303.737c0,2.437-1.9,3.731-4.853,3.731-2.876,0-4.772-1.083-4.772-3.459,0-1.791,1.394-2.813,3.063-3.666-1.877-.816-3.605-1.856-3.605-3.9,0-2.395,2.042-3.853,5.438-3.853,3.583,0,5.271,1.289,5.271,3.52,0,2.063-1.749,3.169-3.647,4.083C655.634,300.966,657.07,301.946,657.07,303.737Zm-4.75-4.252c1.793-.834,3.375-1.687,3.375-3.291,0-1.167-.9-1.917-3.5-1.917-2.231,0-3.377.75-3.377,2.082C648.818,297.924,650.487,298.716,652.32,299.485Zm2.833,4.336c0-1.336-1.376-2.062-3-2.77-1.542.75-2.791,1.542-2.791,2.873,0,1.041.583,1.9,2.958,1.9C654.57,305.823,655.153,304.965,655.153,303.821Z"/><path class="cls-1" d="M668.583,300.029c0,7.626-2.419,9.169-6.19,9.169v-1.711c2.855,0,4.209-.98,4.209-7.252,0-6.689-1.354-7.669-4.209-7.669V290.86C666.164,290.86,668.583,292.191,668.583,300.029Z"/><path class="cls-1" d="M681.553,306.465a3.864,3.864,0,0,1-4.251,3.979v-1.56a2.215,2.215,0,0,0,2.522-1.857,1.238,1.238,0,0,1-.75.272,1.876,1.876,0,0,1,.082-3.75C680.262,303.549,681.553,304.468,681.553,306.465Z"/><path class="cls-1" d="M527.667,325.013c0-7.626,2.417-9.169,6.19-9.169v1.707c-2.855,0-4.209.979-4.209,7.251,0,6.689,1.354,7.669,4.209,7.669v1.711C530.084,334.182,527.667,332.846,527.667,325.013Z"/><path class="cls-1" d="M549.265,328.055c0,2.311-1.376,4.252-4.938,4.252-3.357,0-5.356-1.8-5.356-6.647,0-4.355,1.646-7.959,6.542-7.959a11.682,11.682,0,0,1,3.543.52l-.52,1.664a9.808,9.808,0,0,0-3.19-.5c-3.063,0-4.062,1.833-4.354,4.125l3.292.394C547.535,324.282,549.265,325.473,549.265,328.055Zm-1.917.164c0-1.621-.938-2.329-3.523-2.643l-2.937-.357v.333c0,3.877,1.125,5.067,3.605,5.067C546.556,330.619,547.348,329.7,547.348,328.219Z"/><path class="cls-1" d="M562.589,328.013c0,2.377-1.687,4.294-5.918,4.294a11.228,11.228,0,0,1-4.793-.938l.542-1.626a10.371,10.371,0,0,0,4.418.876c2.833,0,3.834-.9,3.834-2.5,0-1.354-.916-2.311-3.626-2.311h-3.855v-1.687h5c1.5-.605,2.021-1.4,2.021-2.5,0-1.6-1.083-2.208-3.27-2.208a9.626,9.626,0,0,0-4.315.98l-.5-1.561a10.941,10.941,0,0,1,4.959-1.107c3.085,0,5.042,1.186,5.042,3.793a3.542,3.542,0,0,1-2.063,3.187C561.818,325.346,562.589,326.3,562.589,328.013Z"/><path class="cls-1" d="M569.182,330.409a1.876,1.876,0,1,1,1.875,1.875A1.869,1.869,0,0,1,569.182,330.409Z"/><path class="cls-1" d="M590.072,330.39V332.1h-9.919V330.39h4.418v-8.963l-4.418,1.688v-1.852l4.418-1.687v-1.65h1.917V330.39Z"/><path class="cls-1" d="M600.354,331.449a3.865,3.865,0,0,1-4.252,3.98v-1.561a2.215,2.215,0,0,0,2.522-1.856,1.233,1.233,0,0,1-.75.272,1.876,1.876,0,0,1,.082-3.75C599.063,328.534,600.354,329.452,600.354,331.449Z"/><path class="cls-1" d="M616.47,328.721c0,2.438-1.9,3.731-4.854,3.731-2.876,0-4.772-1.083-4.772-3.459,0-1.791,1.394-2.813,3.063-3.666-1.877-.815-3.605-1.856-3.605-3.9,0-2.4,2.042-3.853,5.438-3.853,3.584,0,5.271,1.289,5.271,3.52,0,2.063-1.748,3.169-3.647,4.083C615.033,325.951,616.47,326.93,616.47,328.721Zm-4.751-4.252c1.793-.834,3.375-1.687,3.375-3.29,0-1.167-.9-1.917-3.5-1.917-2.232,0-3.375.75-3.375,2.081C608.22,322.909,609.886,323.7,611.719,324.469Zm2.833,4.336c0-1.336-1.375-2.062-3-2.77-1.542.75-2.791,1.542-2.791,2.874,0,1.04.584,1.9,2.958,1.9C613.969,330.807,614.552,329.949,614.552,328.805Z"/><path class="cls-1" d="M630.277,319.843l-4.69,10.547h3.23V332.1H620.44V330.39h3.042l4.17-9.15.895-1.313v-.29h-8.316v-1.711h10.046Z"/><path class="cls-1" d="M636.849,330.409a1.876,1.876,0,1,1,1.875,1.875A1.868,1.868,0,0,1,636.849,330.409Z"/><path class="cls-1" d="M657.321,328.013c0,2.377-1.687,4.294-5.918,4.294a11.228,11.228,0,0,1-4.793-.938l.542-1.626a10.371,10.371,0,0,0,4.418.876c2.833,0,3.834-.9,3.834-2.5,0-1.354-.916-2.311-3.626-2.311h-3.855v-1.687h5c1.5-.605,2.021-1.4,2.021-2.5,0-1.6-1.083-2.208-3.27-2.208a9.626,9.626,0,0,0-4.315.98l-.5-1.561a10.941,10.941,0,0,1,4.959-1.107c3.085,0,5.042,1.186,5.042,3.793A3.542,3.542,0,0,1,654.8,324.7C656.55,325.346,657.321,326.3,657.321,328.013Z"/><path class="cls-1" d="M668.583,325.013c0,7.627-2.419,9.169-6.19,9.169v-1.711c2.855,0,4.209-.98,4.209-7.252,0-6.689-1.354-7.668-4.209-7.668v-1.707C666.164,315.844,668.583,317.176,668.583,325.013Z"/><path class="cls-1" d="M681.324,334.182H675.2v-1.711h4.209v-14.92H675.2v-1.707h6.127Z"/><path class="cls-2" d="M498.178,274.918c0,5.25-1.98,7.42-5.313,7.42-3.5,0-5.189-2.437-5.189-7.167,0-4.941,1.98-7.42,5.313-7.42C496.491,267.751,498.178,270.188,498.178,274.918Zm-8.543.145c0,.628.021,1.21.061,1.73L495.8,271.5a2.71,2.71,0,0,0-2.855-2.044C490.406,269.457,489.635,271.416,489.635,275.063Zm6.584-.042c0-.623-.021-1.205-.063-1.73l-6.1,5.3a2.711,2.711,0,0,0,2.855,2.039C495.448,280.627,496.219,279.085,496.219,275.021Z"/><path class="cls-2" d="M498.408,305.4v1.707h-9.919V305.4h4.418v-8.962l-4.418,1.687v-1.851l4.418-1.688v-1.65h1.917V305.4Z"/><path class="cls-2" d="M498.324,330.39V332.1H488.072v-1.917c3.647-2.227,7.9-4.5,7.9-8.124,0-1.607-.708-2.629-3.082-2.629-2.585,0-3.272,1.148-3.272,3.108a3.548,3.548,0,0,0,.167,1.27l-1.981-.145a10.108,10.108,0,0,1-.082-1.336c0-2.771,1.812-4.6,5.271-4.6,4.064,0,4.938,2.25,4.938,4.125,0,4-3.75,6.254-6.042,7.8l-1.125.5v.253Z"/><path class="cls-2" d="M269.578,80.719a4.526,4.526,0,0,1-3.8-1.678,7.845,7.845,0,0,1-1.305-4.893V71.841a8.011,8.011,0,0,1,1.305-4.95A4.535,4.535,0,0,1,269.6,65.2a4.488,4.488,0,0,1,3.8,1.692,8.059,8.059,0,0,1,1.3,4.95v2.307a7.838,7.838,0,0,1-1.306,4.893A4.525,4.525,0,0,1,269.578,80.719Zm0-1.706a2.738,2.738,0,0,0,2.471-1.134,7.037,7.037,0,0,0,.747-3.731V71.841a7.228,7.228,0,0,0-.747-3.8,3.239,3.239,0,0,0-4.939,0,7.228,7.228,0,0,0-.747,3.8v2.307a7.037,7.037,0,0,0,.747,3.731A2.736,2.736,0,0,0,269.578,79.013Zm0-4.579a2.057,2.057,0,0,1-.982-.207.826.826,0,0,1-.379-.8V72.5a.823.823,0,0,1,.379-.783,1.951,1.951,0,0,1,.982-.22,1.9,1.9,0,0,1,.975.22.832.832,0,0,1,.371.783v.928a.826.826,0,0,1-.38.8A2.019,2.019,0,0,1,269.578,74.434Z"/><path class="cls-2" d="M265.416,105.512v-1.7h4.162V92.644h-.548a3.746,3.746,0,0,1-1.655,1.608,3.859,3.859,0,0,1-2.339.244l-.187-1.852a4.8,4.8,0,0,0,2.667-.407,5.534,5.534,0,0,0,2.121-1.866h1.835V103.81h3.785v1.7Z"/><path class="cls-2" d="M168.83,43.862l.562-1.749a8.824,8.824,0,0,0,4.189.956c2.125,0,3.147-.5,3.147-1.56,0-2.316-7.69-1.543-7.69-5.335,0-2.147,1.9-3.314,4.9-3.314a10.72,10.72,0,0,1,4.149.811l-.544,1.711a8.1,8.1,0,0,0-3.6-.858c-1.978,0-3,.525-3,1.439,0,2.231,7.69,1.458,7.69,5.335,0,2.376-2.1,3.44-5.125,3.44A10.862,10.862,0,0,1,168.83,43.862Z"/><path class="cls-2" d="M182.051,38.921c0-3.811,2.187-6.084,5.271-6.084,3.251,0,5.147,2.231,5.147,5.939s-2.187,5.981-5.271,5.981C183.947,44.757,182.051,42.526,182.051,38.921Zm8.522-.037c0-2.733-1.022-4.36-3.293-4.36-2.292,0-3.333,1.669-3.333,4.294s1.02,4.251,3.293,4.251C189.532,43.069,190.573,41.4,190.573,38.884Z"/><path class="cls-2" d="M206.334,36.005v8.522h-1.666V36.694c0-1.687-.166-2.376-1.27-2.376a2.832,2.832,0,0,0-1.814.853c.021.253.042.52.042.834v8.522h-1.667V36.694c0-1.687-.166-2.376-1.272-2.376a2.742,2.742,0,0,0-1.77.811v9.4h-1.666V33.066h1.373l.021,1a3.282,3.282,0,0,1,2.459-1.232,2.151,2.151,0,0,1,2.147,1.148,3.74,3.74,0,0,1,2.564-1.148C205.5,32.837,206.334,33.774,206.334,36.005Z"/><path class="cls-2" d="M211.263,38.818c0,2.92,1.229,4.233,3.645,4.233a7.532,7.532,0,0,0,3.792-.98l.5,1.561a8.506,8.506,0,0,1-4.334,1.106c-3.4,0-5.5-1.917-5.5-5.817s2.4-6.061,5.4-6.061c3.417,0,4.938,2.124,4.481,5.836h-7.981Zm.146-1.627h6.042c-.042-1.912-.938-2.7-2.813-2.7A3.053,3.053,0,0,0,211.409,37.191Z"/><path class="cls-2" d="M222.67,37.571c0-5.5,3.375-7.42,6.46-7.42a8.153,8.153,0,0,1,4.062.937l-.542,1.646a6.859,6.859,0,0,0-3.687-.877c-2.1,0-4.336,1.317-4.336,5.606,0,4.252,1.815,5.564,4.336,5.564a7.372,7.372,0,0,0,3.687-.979l.5,1.584a8.394,8.394,0,0,1-4.231,1.106C225.42,44.738,222.67,42.821,222.67,37.571Z"/><path class="cls-2" d="M236.182,38.921c0-3.811,2.187-6.084,5.271-6.084,3.251,0,5.147,2.231,5.147,5.939s-2.187,5.981-5.271,5.981C238.078,44.757,236.182,42.526,236.182,38.921Zm8.522-.037c0-2.733-1.022-4.36-3.293-4.36-2.292,0-3.333,1.669-3.333,4.294s1.02,4.251,3.293,4.251C243.663,43.069,244.7,41.4,244.7,38.884Z"/><path class="cls-2" d="M249.715,38.921c0-3.811,2.187-6.084,5.271-6.084,3.251,0,5.147,2.231,5.147,5.939s-2.187,5.981-5.271,5.981C251.611,44.757,249.715,42.526,249.715,38.921Zm8.522-.037c0-2.733-1.022-4.36-3.293-4.36-2.292,0-3.333,1.669-3.333,4.294s1.02,4.251,3.293,4.251C257.2,43.069,258.237,41.4,258.237,38.884Z"/><path class="cls-2" d="M273.624,42.863v1.664h-9.919V42.863h2.981v-9.8h1.666l-.042,2.213L273.4,32.8l.019,1.852L268.561,37v5.859Z"/><path class="cls-2" d="M286.575,27.441V44.527h-1.624V43.3a5.51,5.51,0,0,1-3.813,1.458c-2.834-.019-4.355-2-4.355-5.522,0-4.584,2.271-6.375,5.688-6.375a14.062,14.062,0,0,1,2.229.164V27.441ZM284.7,41.987V34.838a8.823,8.823,0,0,0-2.374-.29c-2.522,0-3.647,1.5-3.647,4.481,0,2.6.916,4.022,2.688,4.04A5.567,5.567,0,0,0,284.7,41.987Z"/><path class="cls-2" d="M300.692,42.863v1.664h-9.919V42.863H295V34.735h-4.23V33.066h6.1v9.8Zm-6.835-13.547a1.876,1.876,0,1,1,1.875,1.875A1.869,1.869,0,0,1,293.857,29.316Z"/><path class="cls-2" d="M313.683,36.629v7.9h-1.875V36.9c0-1.688-.687-2.377-2.084-2.377a5.748,5.748,0,0,0-3.335,1.088v8.915h-1.875V33.066H306.1v1.271a5.682,5.682,0,0,1,3.855-1.5C312.6,32.837,313.683,34.191,313.683,36.629Z"/><path class="cls-2" d="M326.965,37l-.1,7.523H325.3V43.154a5.392,5.392,0,0,1-4.022,1.6c-2.293-.019-3.584-1.228-3.584-3.145,0-2.208,2.271-3.188,7.357-3.586l.019-.811c.021-1.458-.145-2.691-2.417-2.691a9.04,9.04,0,0,0-4,.98l-.5-1.561a10.075,10.075,0,0,1,4.646-1.106C326.571,32.837,326.986,34.754,326.965,37Zm-1.978,4.88.042-2.335c-3.834.31-5.461.853-5.461,2.02,0,.957.668,1.524,1.959,1.543A5.155,5.155,0,0,0,324.987,41.884Z"/><path class="cls-2" d="M341.124,43.843a8.468,8.468,0,0,1-3.938.895c-3.127,0-3.689-1.711-3.647-4.167l.124-5.836h-2.812V33.066h2.833l.064-2.709h1.938l-.354,2.709h5.374v1.669h-5.125l-.125,5.625c-.042,1.458.146,2.691,1.793,2.691a7.44,7.44,0,0,0,3.375-.774Z"/><path class="cls-2" d="M346.594,38.818c0,2.92,1.228,4.233,3.644,4.233a7.533,7.533,0,0,0,3.793-.98l.5,1.561a8.5,8.5,0,0,1-4.333,1.106c-3.4,0-5.5-1.917-5.5-5.817s2.4-6.061,5.4-6.061c3.417,0,4.938,2.124,4.481,5.836h-7.98Zm.145-1.627h6.042c-.042-1.912-.937-2.7-2.812-2.7A3.054,3.054,0,0,0,346.739,37.191Z"/><path class="cls-2" d="M358.292,43.862l.562-1.749a8.82,8.82,0,0,0,4.188.956c2.126,0,3.148-.5,3.148-1.56,0-2.316-7.69-1.543-7.69-5.335,0-2.147,1.9-3.314,4.9-3.314a10.728,10.728,0,0,1,4.149.811L367,35.382a8.1,8.1,0,0,0-3.6-.858c-1.978,0-3,.525-3,1.439,0,2.231,7.69,1.458,7.69,5.335,0,2.376-2.105,3.44-5.126,3.44A10.86,10.86,0,0,1,358.292,43.862Z"/><path class="cls-1" d="M594.29,73.444c0-7.626,2.416-9.168,6.189-9.168v1.706c-2.854,0-4.209.98-4.209,7.252,0,6.689,1.355,7.668,4.209,7.668v1.711C596.706,82.613,594.29,81.277,594.29,73.444Z"/><path class="cls-1" d="M615.887,76.487c0,2.311-1.376,4.251-4.938,4.251-3.356,0-5.356-1.8-5.356-6.647,0-4.354,1.646-7.959,6.542-7.959a11.693,11.693,0,0,1,3.544.52l-.521,1.664a9.808,9.808,0,0,0-3.19-.5c-3.063,0-4.061,1.833-4.354,4.125l3.293.394C614.158,72.713,615.887,73.9,615.887,76.487Zm-1.917.164c0-1.622-.937-2.33-3.523-2.644l-2.936-.356v.333c0,3.876,1.125,5.067,3.6,5.067C613.178,79.051,613.97,78.132,613.97,76.651Z"/><path class="cls-1" d="M629.211,76.444c0,2.377-1.687,4.294-5.918,4.294A11.243,11.243,0,0,1,618.5,79.8l.542-1.627a10.355,10.355,0,0,0,4.418.877c2.833,0,3.834-.9,3.834-2.5,0-1.355-.916-2.311-3.626-2.311h-3.855V72.549h5c1.5-.605,2.02-1.4,2.02-2.5,0-1.6-1.083-2.208-3.27-2.208a9.629,9.629,0,0,0-4.315.98l-.5-1.561a10.947,10.947,0,0,1,4.96-1.106c3.084,0,5.041,1.186,5.041,3.792a3.541,3.541,0,0,1-2.062,3.187C628.44,73.777,629.211,74.734,629.211,76.444Z"/><path class="cls-1" d="M635.8,78.84a1.877,1.877,0,1,1,1.875,1.875A1.869,1.869,0,0,1,635.8,78.84Z"/><path class="cls-1" d="M656.694,78.821v1.706h-9.919V78.821h4.418V69.859l-4.418,1.687V69.694l4.418-1.687v-1.65h1.918V78.821Z"/><path class="cls-1" d="M666.976,79.88a3.865,3.865,0,0,1-4.251,3.98V82.3a2.215,2.215,0,0,0,2.522-1.856,1.238,1.238,0,0,1-.75.272,1.876,1.876,0,0,1,.082-3.75C665.685,76.965,666.976,77.884,666.976,79.88Z"/><path class="cls-1" d="M683.092,77.152c0,2.438-1.9,3.732-4.854,3.732-2.876,0-4.772-1.083-4.772-3.46,0-1.79,1.395-2.812,3.063-3.665-1.877-.816-3.6-1.857-3.6-3.9,0-2.4,2.041-3.854,5.437-3.854,3.584,0,5.271,1.289,5.271,3.521,0,2.062-1.748,3.168-3.647,4.083C681.655,74.382,683.092,75.362,683.092,77.152ZM678.341,72.9c1.793-.835,3.375-1.688,3.375-3.291,0-1.167-.895-1.917-3.5-1.917-2.231,0-3.375.75-3.375,2.081C674.842,71.34,676.508,72.132,678.341,72.9Zm2.834,4.336c0-1.336-1.376-2.063-3-2.771-1.542.75-2.792,1.543-2.792,2.874,0,1.04.584,1.9,2.958,1.9C680.591,79.238,681.175,78.38,681.175,77.237Z"/><path class="cls-1" d="M696.9,68.274l-4.69,10.547h3.229v1.706H687.06V78.821H690.1l4.17-9.15.895-1.312v-.291h-8.316V66.357H696.9Z"/><path class="cls-1" d="M703.471,78.84a1.876,1.876,0,1,1,1.875,1.875A1.868,1.868,0,0,1,703.471,78.84Z"/><path class="cls-1" d="M723.943,76.444c0,2.377-1.687,4.294-5.918,4.294a11.238,11.238,0,0,1-4.792-.937l.541-1.627a10.355,10.355,0,0,0,4.418.877c2.833,0,3.834-.9,3.834-2.5,0-1.355-.916-2.311-3.626-2.311h-3.855V72.549h5c1.5-.605,2.02-1.4,2.02-2.5,0-1.6-1.083-2.208-3.27-2.208a9.625,9.625,0,0,0-4.314.98l-.5-1.561a10.947,10.947,0,0,1,4.96-1.106c3.084,0,5.041,1.186,5.041,3.792a3.541,3.541,0,0,1-2.062,3.187C723.172,73.777,723.943,74.734,723.943,76.444Z"/><path class="cls-1" d="M735.205,73.444c0,7.627-2.419,9.169-6.19,9.169V80.9c2.855,0,4.21-.979,4.21-7.251,0-6.689-1.355-7.669-4.21-7.669V64.276C732.786,64.276,735.205,65.607,735.205,73.444Z"/><path class="cls-2" d="M573.73,42.863v1.664h-9.919V42.863h4.022V27.441h1.878V42.863Z"/><path class="cls-2" d="M586.679,37l-.1,7.523h-1.563V43.154a5.391,5.391,0,0,1-4.022,1.6c-2.292-.019-3.583-1.228-3.583-3.145,0-2.208,2.271-3.188,7.357-3.586l.018-.811c.021-1.458-.145-2.691-2.416-2.691a9.04,9.04,0,0,0-4,.98l-.5-1.561a10.071,10.071,0,0,1,4.645-1.106C586.286,32.837,586.7,34.754,586.679,37Zm-1.978,4.88.042-2.335c-3.834.31-5.46.853-5.46,2.02,0,.957.667,1.524,1.959,1.543A5.153,5.153,0,0,0,584.7,41.884Z"/><path class="cls-2" d="M590.94,43.862l.563-1.749a8.82,8.82,0,0,0,4.188.956c2.126,0,3.148-.5,3.148-1.56,0-2.316-7.69-1.543-7.69-5.335,0-2.147,1.9-3.314,4.9-3.314a10.719,10.719,0,0,1,4.148.811l-.543,1.711a8.1,8.1,0,0,0-3.605-.858c-1.978,0-3,.525-3,1.439,0,2.231,7.69,1.458,7.69,5.335,0,2.376-2.105,3.44-5.126,3.44A10.868,10.868,0,0,1,590.94,43.862Z"/><path class="cls-2" d="M614.371,43.843a8.468,8.468,0,0,1-3.938.895c-3.126,0-3.689-1.711-3.647-4.167l.125-5.836H604.1V33.066h2.834L607,30.357h1.938l-.354,2.709h5.375v1.669h-5.126L608.7,40.36c-.043,1.458.145,2.691,1.793,2.691a7.443,7.443,0,0,0,3.375-.774Z"/><path class="cls-2" d="M628.2,35.007c0,3.352-2.377,4.936-5.564,4.936H620.3v4.584h-1.917V30.357h4.5C626.071,30.357,628.2,31.9,628.2,35.007Zm-1.96.122c0-2.081-1.249-3.08-3.562-3.08H620.3v6.206h2.168C625.007,38.255,626.237,37.3,626.237,35.129Z"/><path class="cls-2" d="M631.227,38.921c0-3.811,2.187-6.084,5.271-6.084,3.251,0,5.147,2.231,5.147,5.939s-2.187,5.981-5.271,5.981C633.123,44.757,631.227,42.526,631.227,38.921Zm8.522-.037c0-2.733-1.022-4.36-3.293-4.36-2.292,0-3.333,1.669-3.333,4.294s1.02,4.251,3.293,4.251C638.708,43.069,639.749,41.4,639.749,38.884Z"/><path class="cls-2" d="M655.136,42.863v1.664h-9.919V42.863h4.23V34.735h-4.23V33.066h6.105v9.8ZM648.3,29.316a1.877,1.877,0,1,1,1.875,1.875A1.869,1.869,0,0,1,648.3,29.316Z"/><path class="cls-2" d="M668.127,36.629v7.9h-1.875V36.9c0-1.688-.687-2.377-2.084-2.377a5.748,5.748,0,0,0-3.335,1.088v8.915h-1.875V33.066h1.585v1.271a5.682,5.682,0,0,1,3.855-1.5C667.044,32.837,668.127,34.191,668.127,36.629Z"/><path class="cls-2" d="M682.037,43.843a8.461,8.461,0,0,1-3.937.895c-3.127,0-3.689-1.711-3.647-4.167l.124-5.836h-2.812V33.066H674.6l.063-2.709H676.6l-.354,2.709h5.374v1.669h-5.126l-.124,5.625c-.042,1.458.145,2.691,1.793,2.691a7.443,7.443,0,0,0,3.375-.774Z"/><path class="cls-2" d="M228.83,185.462l.562-1.749a8.824,8.824,0,0,0,4.189.956c2.125,0,3.147-.5,3.147-1.56,0-2.316-7.69-1.543-7.69-5.335,0-2.147,1.9-3.314,4.9-3.314a10.72,10.72,0,0,1,4.149.811l-.544,1.711a8.1,8.1,0,0,0-3.6-.858c-1.978,0-3,.525-3,1.439,0,2.231,7.69,1.458,7.69,5.335,0,2.376-2.1,3.44-5.125,3.44A10.862,10.862,0,0,1,228.83,185.462Z"/><path class="cls-2" d="M242.051,180.521c0-3.811,2.187-6.084,5.271-6.084,3.251,0,5.147,2.231,5.147,5.939s-2.187,5.981-5.271,5.981C243.947,186.357,242.051,184.126,242.051,180.521Zm8.522-.037c0-2.733-1.022-4.36-3.293-4.36-2.292,0-3.333,1.669-3.333,4.294s1.02,4.251,3.293,4.251C249.532,184.669,250.573,183,250.573,180.484Z"/><path class="cls-2" d="M266.334,177.605v8.522h-1.666v-7.833c0-1.687-.166-2.376-1.27-2.376a2.832,2.832,0,0,0-1.814.853c.021.253.042.52.042.834v8.522h-1.667v-7.833c0-1.687-.166-2.376-1.272-2.376a2.742,2.742,0,0,0-1.77.811v9.4h-1.666V174.666h1.373l.021,1a3.282,3.282,0,0,1,2.459-1.232,2.151,2.151,0,0,1,2.147,1.148,3.74,3.74,0,0,1,2.564-1.148C265.5,174.437,266.334,175.374,266.334,177.605Z"/><path class="cls-2" d="M271.263,180.418c0,2.92,1.229,4.233,3.645,4.233a7.532,7.532,0,0,0,3.792-.98l.5,1.561a8.506,8.506,0,0,1-4.334,1.106c-3.4,0-5.5-1.917-5.5-5.817s2.4-6.061,5.4-6.061c3.417,0,4.938,2.124,4.481,5.836h-7.981Zm.146-1.627h6.042c-.042-1.912-.938-2.7-2.813-2.7A3.053,3.053,0,0,0,271.409,178.791Z"/><path class="cls-2" d="M282.67,179.171c0-5.5,3.375-7.42,6.46-7.42a8.153,8.153,0,0,1,4.062.937l-.542,1.646a6.859,6.859,0,0,0-3.687-.877c-2.1,0-4.336,1.317-4.336,5.606,0,4.252,1.815,5.564,4.336,5.564a7.372,7.372,0,0,0,3.687-.979l.5,1.584a8.394,8.394,0,0,1-4.231,1.106C285.42,186.338,282.67,184.421,282.67,179.171Z"/><path class="cls-2" d="M296.182,180.521c0-3.811,2.187-6.084,5.271-6.084,3.251,0,5.147,2.231,5.147,5.939s-2.187,5.981-5.271,5.981C298.078,186.357,296.182,184.126,296.182,180.521Zm8.522-.037c0-2.733-1.022-4.36-3.293-4.36-2.292,0-3.333,1.669-3.333,4.294s1.02,4.251,3.293,4.251C303.663,184.669,304.7,183,304.7,180.484Z"/><path class="cls-2" d="M309.715,180.521c0-3.811,2.187-6.084,5.271-6.084,3.251,0,5.147,2.231,5.147,5.939s-2.187,5.981-5.271,5.981C311.611,186.357,309.715,184.126,309.715,180.521Zm8.522-.037c0-2.733-1.022-4.36-3.293-4.36-2.292,0-3.333,1.669-3.333,4.294s1.02,4.251,3.293,4.251C317.2,184.669,318.237,183,318.237,180.484Z"/><path class="cls-2" d="M333.624,184.463v1.664h-9.919v-1.664h2.981v-9.8h1.666l-.042,2.213,5.086-2.48.019,1.852-4.854,2.353v5.859Z"/><path class="cls-2" d="M346.575,169.041v17.086h-1.624V184.9a5.51,5.51,0,0,1-3.813,1.458c-2.834-.019-4.355-2-4.355-5.522,0-4.584,2.271-6.375,5.688-6.375a14.062,14.062,0,0,1,2.229.164v-5.583ZM344.7,183.587v-7.149a8.823,8.823,0,0,0-2.374-.29c-2.522,0-3.647,1.5-3.647,4.481,0,2.6.916,4.022,2.688,4.04A5.567,5.567,0,0,0,344.7,183.587Z"/><path class="cls-2" d="M360.692,184.463v1.664h-9.919v-1.664H355v-8.128h-4.23v-1.669h6.1v9.8Zm-6.835-13.547a1.876,1.876,0,1,1,1.875,1.875A1.869,1.869,0,0,1,353.857,170.916Z"/><path class="cls-2" d="M373.683,178.229v7.9h-1.875V178.5c0-1.688-.687-2.377-2.084-2.377a5.748,5.748,0,0,0-3.335,1.088v8.915h-1.875V174.666H366.1v1.271a5.682,5.682,0,0,1,3.855-1.5C372.6,174.437,373.683,175.791,373.683,178.229Z"/><path class="cls-2" d="M386.965,178.6l-.1,7.523H385.3v-1.373a5.392,5.392,0,0,1-4.022,1.6c-2.293-.019-3.584-1.228-3.584-3.145,0-2.208,2.271-3.188,7.357-3.586l.019-.811c.021-1.458-.145-2.691-2.417-2.691a9.04,9.04,0,0,0-4,.98l-.5-1.561a10.075,10.075,0,0,1,4.646-1.106C386.571,174.437,386.986,176.354,386.965,178.6Zm-1.978,4.88.042-2.335c-3.834.31-5.461.853-5.461,2.02,0,.957.668,1.524,1.959,1.543A5.155,5.155,0,0,0,384.987,183.484Z"/><path class="cls-2" d="M401.124,185.443a8.468,8.468,0,0,1-3.938.895c-3.127,0-3.689-1.711-3.647-4.167l.124-5.836h-2.812v-1.669h2.833l.064-2.709h1.938l-.354,2.709h5.374v1.669h-5.125l-.125,5.625c-.042,1.458.146,2.691,1.793,2.691a7.44,7.44,0,0,0,3.375-.774Z"/><path class="cls-2" d="M406.594,180.418c0,2.92,1.228,4.233,3.644,4.233a7.533,7.533,0,0,0,3.793-.98l.5,1.561a8.5,8.5,0,0,1-4.333,1.106c-3.4,0-5.5-1.917-5.5-5.817s2.4-6.061,5.4-6.061c3.417,0,4.938,2.124,4.481,5.836h-7.98Zm.145-1.627h6.042c-.042-1.912-.937-2.7-2.812-2.7A3.054,3.054,0,0,0,406.739,178.791Z"/><path class="cls-2" d="M418.292,185.462l.562-1.749a8.82,8.82,0,0,0,4.188.956c2.126,0,3.148-.5,3.148-1.56,0-2.316-7.69-1.543-7.69-5.335,0-2.147,1.9-3.314,4.9-3.314a10.728,10.728,0,0,1,4.149.811L427,176.982a8.1,8.1,0,0,0-3.6-.858c-1.978,0-3,.525-3,1.439,0,2.231,7.69,1.458,7.69,5.335,0,2.376-2.105,3.44-5.126,3.44A10.86,10.86,0,0,1,418.292,185.462Z"/><path class="cls-1" d="M434.845,184.44a1.877,1.877,0,1,1,1.875,1.875A1.869,1.869,0,0,1,434.845,184.44Z"/><path class="cls-1" d="M455.421,184.463v1.664H445.5v-1.664h4.231v-8.128H445.5v-1.669h6.106v9.8Zm-6.834-13.547a1.876,1.876,0,1,1,1.875,1.875A1.869,1.869,0,0,1,448.587,170.916Z"/><path class="cls-1" d="M468.413,178.229v7.9h-1.875V178.5c0-1.688-.687-2.377-2.084-2.377a5.746,5.746,0,0,0-3.335,1.088v8.915h-1.875V174.666h1.584v1.271a5.685,5.685,0,0,1,3.856-1.5C467.33,174.437,468.413,175.791,468.413,178.229Z"/><path class="cls-1" d="M472.423,185.462l.562-1.749a8.824,8.824,0,0,0,4.189.956c2.125,0,3.147-.5,3.147-1.56,0-2.316-7.69-1.543-7.69-5.335,0-2.147,1.9-3.314,4.9-3.314a10.72,10.72,0,0,1,4.149.811l-.544,1.711a8.1,8.1,0,0,0-3.605-.858c-1.978,0-3,.525-3,1.439,0,2.231,7.69,1.458,7.69,5.335,0,2.376-2.1,3.44-5.125,3.44A10.862,10.862,0,0,1,472.423,185.462Z"/><path class="cls-1" d="M487.791,180.418c0,2.92,1.228,4.233,3.644,4.233a7.529,7.529,0,0,0,3.792-.98l.5,1.561a8.5,8.5,0,0,1-4.334,1.106c-3.4,0-5.5-1.917-5.5-5.817s2.4-6.061,5.4-6.061c3.417,0,4.938,2.124,4.481,5.836h-7.98Zm.145-1.627h6.042c-.042-1.912-.937-2.7-2.812-2.7A3.054,3.054,0,0,0,487.936,178.791Z"/><path class="cls-1" d="M509.552,184.463v1.664h-9.918v-1.664h2.981v-9.8h1.666l-.042,2.213,5.086-2.48.019,1.852L504.49,178.6v5.859Z"/><path class="cls-1" d="M522.919,185.443a8.468,8.468,0,0,1-3.938.895c-3.126,0-3.689-1.711-3.647-4.167l.125-5.836h-2.813v-1.669h2.834l.063-2.709h1.938l-.354,2.709H522.5v1.669h-5.126l-.124,5.625c-.043,1.458.145,2.691,1.793,2.691a7.443,7.443,0,0,0,3.375-.774Z"/><path class="cls-1" d="M528.659,179.044c0-7.626,2.416-9.168,6.19-9.168v1.706c-2.855,0-4.21.98-4.21,7.252,0,6.689,1.355,7.668,4.21,7.668v1.711C531.075,188.213,528.659,186.877,528.659,179.044Z"/><path class="cls-2" d="M550.381,184.421v1.706H540.129V184.21c3.647-2.226,7.9-4.5,7.9-8.123,0-1.608-.708-2.63-3.082-2.63-2.585,0-3.272,1.148-3.272,3.108a3.544,3.544,0,0,0,.167,1.27l-1.981-.145a10.083,10.083,0,0,1-.082-1.336c0-2.77,1.812-4.6,5.271-4.6,4.064,0,4.938,2.25,4.938,4.125,0,4-3.75,6.253-6.042,7.795l-1.125.5v.253Z"/><path class="cls-3" d="M560.747,185.48a3.865,3.865,0,0,1-4.252,3.98V187.9a2.215,2.215,0,0,0,2.522-1.856,1.233,1.233,0,0,1-.75.272,1.876,1.876,0,0,1,.082-3.75C559.456,182.565,560.747,183.484,560.747,185.48Z"/><path class="cls-2" d="M577.01,184.463v1.664h-9.918v-1.664h4.021V169.041h1.878v15.422Z"/><path class="cls-2" d="M589.959,178.6l-.1,7.523h-1.563v-1.373a5.391,5.391,0,0,1-4.022,1.6c-2.292-.019-3.583-1.228-3.583-3.145,0-2.208,2.271-3.188,7.357-3.586l.018-.811c.021-1.458-.145-2.691-2.416-2.691a9.04,9.04,0,0,0-4,.98l-.5-1.561a10.071,10.071,0,0,1,4.645-1.106C589.566,174.437,589.981,176.354,589.959,178.6Zm-1.978,4.88.043-2.335c-3.835.31-5.461.853-5.461,2.02,0,.957.668,1.524,1.959,1.543A5.153,5.153,0,0,0,587.981,183.484Z"/><path class="cls-2" d="M594.22,185.462l.563-1.749a8.82,8.82,0,0,0,4.188.956c2.126,0,3.148-.5,3.148-1.56,0-2.316-7.69-1.543-7.69-5.335,0-2.147,1.9-3.314,4.9-3.314a10.728,10.728,0,0,1,4.149.811l-.544,1.711a8.1,8.1,0,0,0-3.6-.858c-1.978,0-3,.525-3,1.439,0,2.231,7.69,1.458,7.69,5.335,0,2.376-2.105,3.44-5.126,3.44A10.868,10.868,0,0,1,594.22,185.462Z"/><path class="cls-2" d="M617.651,185.443a8.468,8.468,0,0,1-3.938.895c-3.126,0-3.689-1.711-3.646-4.167l.124-5.836h-2.813v-1.669h2.834l.063-2.709h1.938l-.354,2.709h5.375v1.669h-5.126l-.124,5.625c-.042,1.458.145,2.691,1.793,2.691a7.443,7.443,0,0,0,3.375-.774Z"/><path class="cls-2" d="M631.477,176.607c0,3.352-2.377,4.936-5.564,4.936h-2.335v4.584h-1.917v-14.17h4.5C629.351,171.957,631.477,173.5,631.477,176.607Zm-1.96.122c0-2.081-1.249-3.08-3.562-3.08h-2.377v6.206h2.168C628.287,179.855,629.517,178.9,629.517,176.729Z"/><path class="cls-2" d="M634.507,180.521c0-3.811,2.187-6.084,5.271-6.084,3.251,0,5.147,2.231,5.147,5.939s-2.187,5.981-5.271,5.981C636.4,186.357,634.507,184.126,634.507,180.521Zm8.522-.037c0-2.733-1.022-4.36-3.293-4.36-2.292,0-3.333,1.669-3.333,4.294s1.02,4.251,3.293,4.251C641.988,184.669,643.029,183,643.029,180.484Z"/><path class="cls-2" d="M658.416,184.463v1.664H648.5v-1.664h4.23v-8.128H648.5v-1.669H654.6v9.8Zm-6.835-13.547a1.877,1.877,0,1,1,1.875,1.875A1.869,1.869,0,0,1,651.581,170.916Z"/><path class="cls-2" d="M671.407,178.229v7.9h-1.875V178.5c0-1.688-.687-2.377-2.083-2.377a5.749,5.749,0,0,0-3.336,1.088v8.915h-1.875V174.666h1.585v1.271a5.682,5.682,0,0,1,3.855-1.5C670.324,174.437,671.407,175.791,671.407,178.229Z"/><path class="cls-2" d="M685.315,185.443a8.468,8.468,0,0,1-3.938.895c-3.126,0-3.689-1.711-3.646-4.167l.124-5.836h-2.813v-1.669h2.834l.063-2.709h1.938l-.353,2.709H684.9v1.669h-5.126l-.124,5.625c-.042,1.458.145,2.691,1.793,2.691a7.443,7.443,0,0,0,3.375-.774Z"/><path class="cls-1" d="M696.64,179.044c0,7.627-2.419,9.169-6.19,9.169V186.5c2.855,0,4.209-.979,4.209-7.251,0-6.689-1.354-7.669-4.209-7.669v-1.706C694.221,169.876,696.64,171.207,696.64,179.044Z"/><path class="cls-1" d="M646.678,354.466a14.907,14.907,0,0,1-1.461-1.816c-.308-.37-.634-.722-.954-1.081-.145-.163-.286-.328-.434-.49l3.437,4.354a4.791,4.791,0,0,1-.516-.882A.289.289,0,0,0,646.678,354.466Z"/><path class="cls-1" d="M650.342,359.136c-.2-.21-.415-.4-.625-.6l1.488,1.886a1.144,1.144,0,0,0-.09-.207A7.251,7.251,0,0,0,650.342,359.136Z"/><path class="cls-1" d="M642.547,349.455l.467.592q-.242-.313-.471-.635Z"/><path class="cls-1" d="M655.886,366.059c-.265-.291-.533-.58-.794-.875a2.513,2.513,0,0,1-.536-.684,2.751,2.751,0,0,0-.956-1.209,17.877,17.877,0,0,1-1.716-2.008l5.778,7.317a15.98,15.98,0,0,0-1.208-1.89C656.269,366.489,656.08,366.273,655.886,366.059Z"/><path class="cls-1" d="M643.525,350.736a2.983,2.983,0,0,0,.3.343l-.815-1.032C643.189,350.273,643.368,350.5,643.525,350.736Z"/><path class="cls-1" d="M648.445,357.14a1.755,1.755,0,0,0,.3.465q.481.471.973.932l-2.451-3.1A14.312,14.312,0,0,1,648.445,357.14Z"/><path class="cls-1" d="M651.476,360.9a3.026,3.026,0,0,1,.408.383l-.679-.86A1.059,1.059,0,0,0,651.476,360.9Z"/><path class="cls-1" d="M410.988,329.39c.16.512.344,1.017.518,1.524.041.116.074.233.119.348a1.537,1.537,0,0,0,.281-.023,7.645,7.645,0,0,1,3.856.066c.255.059.515.095.762.172a2.084,2.084,0,0,0,1.413-.084c.379-.142.76-.266,1.145-.376a5.984,5.984,0,0,1,2.443-.247,1.394,1.394,0,0,0,.536-.125,3.109,3.109,0,0,1,1.963-.031,1.006,1.006,0,0,0,.436.06,5.007,5.007,0,0,1,1.986.147.626.626,0,0,0,.521-.073.876.876,0,0,1,.251-.2l.034.044a10.04,10.04,0,0,0,2.842-.046,2.066,2.066,0,0,1,.875.009,4.607,4.607,0,0,0,2.726-.272,2.373,2.373,0,0,1,.3-.082,1.651,1.651,0,0,1,.293.128,2.824,2.824,0,0,0,1.855.139,1.578,1.578,0,0,0,.989-.635,1.353,1.353,0,0,1,.734.084.6.6,0,0,0,.426.022,3.764,3.764,0,0,1,1.657-.066,9.606,9.606,0,0,0,1.88-.075,2.923,2.923,0,0,1,.338-.025c.219-.009.44-.009.66-.014.075,0,.154.036.221.019,1.554-.387,3.186-.047,4.731-.513a1.14,1.14,0,0,1,.437-.05c.846.089,1.69.2,2.536.287.553.057,1.109.094,1.664.13a.541.541,0,0,0,.323-.054,2.821,2.821,0,0,1,1.61-.329c.255-.017.507-.122.763-.138a7.079,7.079,0,0,1,1.845-.066,3.75,3.75,0,0,0,1.746-.2c.714-.228,1.456-.214,2.161-.453l.533.534a43.769,43.769,0,0,1-4.709,2.1,5.527,5.527,0,0,0-1.875.945,1.007,1.007,0,0,1-.489.258,9.167,9.167,0,0,0-2.466,1.235c-.761.374-1.494.8-2.239,1.206a10.393,10.393,0,0,1,.831,2.113.266.266,0,0,0,.052.1c.035.048.059.1.092.147a2.808,2.808,0,0,1,.735-.356c.7-.228,1.424-.411,2.128-.64a2.61,2.61,0,0,0,.668-.357c.332-.231.63-.513.972-.729.723-.454,1.463-.886,2.2-1.313a8.1,8.1,0,0,1,.74-.334,6.448,6.448,0,0,0,.584.287,4.241,4.241,0,0,0,.544.135,4.941,4.941,0,0,0,.382-.436,6.262,6.262,0,0,1,2.478-1.8,4.7,4.7,0,0,0,.786-.406,7.674,7.674,0,0,1,3.585-1.418c.257-.043.513-.109.77-.133a2.085,2.085,0,0,0,1.273-.619c.3-.277.6-.538.914-.787.011-.009.024-.016.035-.026-.018-.008-.028-.02-.046-.026-.129-.041-.246-.288-.268-.453-.011-.081-.035-.157-.051-.237,0-.009.009-.015.012-.024.016-.056.041-.109.059-.163-.044-.014-.081-.045-.124-.061a5.724,5.724,0,0,0-.265-.83,4.4,4.4,0,0,0-.256-.576.728.728,0,0,1-.077-.2c-.351.175-.7.356-1.051.531-.013.006-.026.01-.038.017.012-.007.025-.011.038-.017-.009-.2-.015-.41-.013-.614-.007,0-.016,0-.024,0a3.1,3.1,0,0,0-1.055-.028,3.666,3.666,0,0,0-.381-.167c-.386-.12-.791-.179-1.171-.316-.8-.288-1.6-.6-2.394-.922a8.1,8.1,0,0,1-.719-.376c-.043-.211-.071-.43-.135-.637a4.476,4.476,0,0,0-.228-.511,5.061,5.061,0,0,0-.58-.032,6.257,6.257,0,0,1-2.949-.837,4.825,4.825,0,0,0-.8-.368,7.647,7.647,0,0,1-3.33-1.946c-.192-.175-.4-.335-.579-.523a2.084,2.084,0,0,0-1.273-.62c-.4-.061-.793-.14-1.183-.233l-.043-.012c.006.019,0,.035.009.054a.622.622,0,0,1-.192.489,5.012,5.012,0,0,0-1.1,1.66.735.735,0,0,1-.108.182,21.014,21.014,0,0,1,2.309,1.171,13,13,0,0,0,1.715.785,2.526,2.526,0,0,1,.706.316,4.947,4.947,0,0,0,1.581.8,38.615,38.615,0,0,1,4.882,2.527l5.962-.366-5.962.366.038.022q-.4,0-.791.024l-1.313.081c-.217.029-.433.051-.65.077-.477.058-.953.125-1.431.167a14.969,14.969,0,0,0-2.326.164.264.264,0,0,1-.111.01,4.777,4.777,0,0,0-1.018-.078l-3.948.242c-.283.06-.563.129-.848.172a7.274,7.274,0,0,1-1.329.019,1.217,1.217,0,0,1-.221-.044l-1.093.067a17.8,17.8,0,0,0-2.629.264,2.744,2.744,0,0,1-1.537.1,2.527,2.527,0,0,0-.869.05c-.391.046-.78.1-1.171.152-.286.039-.572.07-.858.1a16,16,0,0,1-2.242-.086l-25.042,1.537C410.915,329.091,410.943,329.243,410.988,329.39Z"/><path class="cls-1" d="M399.563,287.034a8.685,8.685,0,0,0-1.387.782c.014.051.028.1.041.152a3.958,3.958,0,0,1,.211.862,1.78,1.78,0,0,0,.516,1.308.646.646,0,0,1,.163.288c.308,1.147.819,2.229,1.064,3.4a12.987,12.987,0,0,0,.634,1.777,2.532,2.532,0,0,1,.268.726,4.947,4.947,0,0,0,.527,1.692,40.185,40.185,0,0,1,1.7,5.647,5.5,5.5,0,0,0,.689,1.983,1.022,1.022,0,0,1,.191.52,7.825,7.825,0,0,0,.842,2.469.285.285,0,0,0-.029,0,.338.338,0,0,0-.116.042c-.057.032-.119.052-.177.081a3.1,3.1,0,0,1,.285.866c.147.815.242,1.639.39,2.452a2.907,2.907,0,0,0,.3.792c.206.4.474.775.66,1.186.353.773.678,1.56,1,2.347.04.1.084.191.123.289a9.021,9.021,0,0,1,.259.868c-.136.2-.288.391-.4.6a4.851,4.851,0,0,0-.23.583,5.719,5.719,0,0,0,.424.489c.062.056.1.124.16.184a7.552,7.552,0,0,1,1.466,2.827,5.271,5.271,0,0,0,.333.931A8.206,8.206,0,0,1,410.471,327a5.756,5.756,0,0,1,.6,0c.292.014.584.036.877.055.626.039,1.253.065,1.88.089-.161-.582-.412-1.143-.621-1.714a2.86,2.86,0,0,1-.3-.812,5.492,5.492,0,0,0-.586-1.891,36.843,36.843,0,0,1-1.336-4.124q-.292-1.09-.555-2.188c-.068-.285-.131-.572-.2-.854a4.008,4.008,0,0,0-.563-1.362,1.121,1.121,0,0,1-.212-.58,10.212,10.212,0,0,0-1-2.914c-.02-.058-.043-.115-.063-.173l.049-.022a2.8,2.8,0,0,1-.257-.776c-.131-.729-.218-1.466-.351-2.195a2.6,2.6,0,0,0-.267-.707c-.183-.361-.425-.693-.592-1.061-.355-.777-.684-1.567-1.01-2.358a7.7,7.7,0,0,1-.233-.778c.121-.177.257-.349.362-.539a4.753,4.753,0,0,0,.206-.521,5.35,5.35,0,0,0-.382-.439,6.255,6.255,0,0,1-1.459-2.694,4.717,4.717,0,0,0-.3-.832,7.649,7.649,0,0,1-.931-3.743c-.009-.26-.041-.521-.03-.78a2.087,2.087,0,0,0-.445-1.343q-.352-.5-.659-1.011a5.994,5.994,0,0,1-.869-2.3,1.38,1.38,0,0,0-.259-.487,3.21,3.21,0,0,1-.5-1.542c-.14.127-.28.25-.422.373A1.761,1.761,0,0,1,399.563,287.034Z"/><path class="cls-1" d="M411.073,326.993a5.756,5.756,0,0,0-.6,0c.006.124.021.246.025.37.01.292.045.583.033.873a2.329,2.329,0,0,0,.5,1.5c.06.085.11.174.168.259.055,0,.11-.013.166-.017.287-.027.577,0,.907,0,.151.189.29.391.459.564a4.806,4.806,0,0,0,.489.39,5.858,5.858,0,0,0,.592-.263c.071-.042.148-.062.222-.1a4.391,4.391,0,0,1,.769-.294,25.189,25.189,0,0,1-.881-2.875c-.019-.092-.06-.179-.085-.27-.627-.024-1.254-.05-1.88-.089C411.657,327.029,411.365,327.007,411.073,326.993Z"/><path class="cls-1" d="M502.232,218.6a.591.591,0,0,1-.232-.284c-.156-.315-.3-.635-.453-.954-.7.491-1.378,1.011-2.066,1.518a2.094,2.094,0,0,1-.511.348,16.146,16.146,0,0,0-2.6,1.46,8.835,8.835,0,0,0-1,.74c-.431.323-.855.652-1.294.96a16.508,16.508,0,0,0-2.164,1.451.294.294,0,0,1-.1.072c-1.113.365-1.97,1.2-3.045,1.638a1.968,1.968,0,0,0-.546.289c-.625.536-1.212,1.119-1.856,1.632a8.2,8.2,0,0,1-1.277.757c-.256.134-.629.14-.795.336-.8.93-2.045,1.241-2.865,2.134a3.073,3.073,0,0,1-1.436.948,2.786,2.786,0,0,0-.815.531c-.353.262-.7.533-1.049.8-.256.2-.516.386-.778.57-.6.352-1.2.686-1.835.978-.16.075-.313.161-.476.228a3.5,3.5,0,0,0-.782.375c-.4.291-.807.569-1.21.854-1.121.791-2.257,1.56-3.445,2.249-1.362.791-2.527,1.863-3.884,2.652-.372.215-.75.419-1.127.625-.314.171-.625.346-.938.521s-.643.378-.966.565a4.49,4.49,0,0,1-.869.473,2,2,0,0,0-1.265.934.726.726,0,0,1-.264.258c-1.15.662-2.17,1.524-3.365,2.126a14.441,14.441,0,0,0-1.733,1.195,2.861,2.861,0,0,1-.709.5,5.555,5.555,0,0,0-1.674,1.056,37.04,37.04,0,0,1-3.638,2.357q-.978.566-1.97,1.1c-.258.139-.519.274-.773.417a4.015,4.015,0,0,0-1.17.9,1.139,1.139,0,0,1-.5.357,10.178,10.178,0,0,0-2.557,1.718c-.051.034-.1.071-.15.105l-.034-.042a2.762,2.762,0,0,1-.684.449c-.669.316-1.359.59-2.029.907a2.633,2.633,0,0,0-.615.44c-.3.271-.559.59-.871.847-.659.544-1.336,1.066-2.016,1.586-.2.156-.439.272-.691.426a6.364,6.364,0,0,0-.615-.21,4.867,4.867,0,0,0-.557-.065c-.121.179-.24.322-.325.482a6.23,6.23,0,0,1-2.225,2.106,4.913,4.913,0,0,0-.727.5,7.644,7.644,0,0,1-3.374,1.868c-.249.075-.493.174-.746.231a2.083,2.083,0,0,0-1.183.777q-.385.466-.805.9a5.98,5.98,0,0,1-1.993,1.435,1.346,1.346,0,0,0-.4.376,3.111,3.111,0,0,1-1.687,1,1.011,1.011,0,0,0-.406.165,4.968,4.968,0,0,1-1.8.864c-.16.043-.391.191-.415.323a.863.863,0,0,1-.118.3l-.051-.02a9.968,9.968,0,0,0-2.441,1.458,2.075,2.075,0,0,1-.763.429,4.6,4.6,0,0,0-2.225,1.6,2.228,2.228,0,0,1-.224.221,1.594,1.594,0,0,1-.316.034,2.834,2.834,0,0,0-1.677.807,1.576,1.576,0,0,0-.541,1.044,1.367,1.367,0,0,1-.676.294.6.6,0,0,0-.382.192,3.763,3.763,0,0,1-1.4.885,9.331,9.331,0,0,0-1.591,1,2.959,2.959,0,0,1-.282.19c-.185.117-.377.227-.565.342-.063.039-.151.045-.2.094-1.152,1.109-2.737,1.63-3.843,2.805a1.149,1.149,0,0,1-.354.262l-.225.1a.868.868,0,0,1,.036.18,5,5,0,0,0,.37,1.959.989.989,0,0,1,.054.434,2.631,2.631,0,0,0,.041.347c.408-.369.808-.747,1.237-1.09a7.225,7.225,0,0,1,1.142-.679c.229-.122.563-.127.713-.3.713-.834,1.828-1.113,2.561-1.914a2.752,2.752,0,0,1,1.285-.85,2.517,2.517,0,0,0,.728-.476c.316-.235.627-.478.938-.717.229-.177.462-.346.7-.511a15.579,15.579,0,0,1,2.068-1.083,3.156,3.156,0,0,0,.7-.337,46.615,46.615,0,0,1,4.163-2.783c1.219-.711,2.26-1.672,3.475-2.379.332-.195.67-.377,1.007-.562.28-.153.56-.31.839-.466s.574-.34.864-.508a4.05,4.05,0,0,1,.778-.425,1.782,1.782,0,0,0,1.13-.837.656.656,0,0,1,.236-.232c1.028-.594,1.942-1.367,3.01-1.906a13,13,0,0,0,1.551-1.073,2.536,2.536,0,0,1,.633-.446,4.965,4.965,0,0,0,1.5-.947,40.161,40.161,0,0,1,5.014-3.1,5.481,5.481,0,0,0,1.739-1.179,1.028,1.028,0,0,1,.451-.319,7.757,7.757,0,0,0,2.168-1.451.2.2,0,0,0,.011.026.3.3,0,0,0,.071.1c.046.048.08.1.124.15a3.1,3.1,0,0,1,.762-.5c.75-.353,1.52-.657,2.268-1.01a2.985,2.985,0,0,0,.689-.491c.336-.3.626-.659.974-.945.657-.541,1.332-1.059,2.01-1.576.082-.063.161-.13.246-.192a8.753,8.753,0,0,1,.771-.476,7.265,7.265,0,0,0,.689.236,4.625,4.625,0,0,0,.621.072,6.06,6.06,0,0,0,.363-.536c.038-.075.093-.132.136-.2a7.566,7.566,0,0,1,2.352-2.148,5.228,5.228,0,0,0,.813-.561,8.539,8.539,0,0,1,3.773-2.08c.279-.086.551-.195.834-.258a2.341,2.341,0,0,0,1.323-.866c.287-.348.588-.681.9-1a6.678,6.678,0,0,1,2.229-1.6,1.513,1.513,0,0,0,.45-.42,3.475,3.475,0,0,1,1.885-1.121,1.132,1.132,0,0,0,.456-.184,5.572,5.572,0,0,1,2.006-.963c.18-.048.436-.212.465-.36a.931.931,0,0,1,.133-.331c.019.008.035.014.056.024a11.216,11.216,0,0,0,2.728-1.626,2.335,2.335,0,0,1,.853-.477,5.143,5.143,0,0,0,2.49-1.78,1.675,1.675,0,0,1,.2-.2c.018-.016.034-.034.051-.05a1.793,1.793,0,0,1,.354-.039,3.162,3.162,0,0,0,1.874-.9,1.421,1.421,0,0,0,.33-.416,2.006,2.006,0,0,0,.275-.748,1.531,1.531,0,0,1,.758-.328.653.653,0,0,0,.425-.215,4.225,4.225,0,0,1,1.569-.985,10.663,10.663,0,0,0,1.779-1.118,3.393,3.393,0,0,1,.314-.213c.208-.13.422-.253.632-.38.072-.043.17-.05.226-.1,1.289-1.239,3.06-1.817,4.3-3.128a1.3,1.3,0,0,1,.395-.292c.869-.383,1.748-.747,2.617-1.132.568-.252,1.126-.525,1.684-.8a.6.6,0,0,0,.284-.233c.278-.617.859-.87,1.376-1.212.239-.16.424-.4.663-.559a7.887,7.887,0,0,1,1.751-1.089,4.2,4.2,0,0,0,1.581-1.165c.564-.617,1.291-1.016,1.841-1.641l.862.235a1.276,1.276,0,0,0,.13-.192,2.179,2.179,0,0,1,.3-.646,3.024,3.024,0,0,1,.82-.557c.487-.235.982-.452,1.476-.674C503.1,219.447,502.844,218.873,502.232,218.6Z"/><path class="cls-1" d="M400.379,285.621a5,5,0,0,1-.37-1.959.868.868,0,0,0-.036-.18c-.705.308-1.413.6-2.115.918-.179.079-.352.168-.528.251.031.1.078.2.106.3.1.37.191.744.281,1.118.077.31.156.621.235.93.07.272.149.543.224.814a8.685,8.685,0,0,1,1.387-.782,1.761,1.761,0,0,0,.489-.259c.142-.123.282-.246.422-.373a2.631,2.631,0,0,1-.041-.347A.989.989,0,0,0,400.379,285.621Z"/><path class="cls-1" d="M530.206,200.86c-.013-.064-.014-.129-.03-.192a.33.33,0,0,1-.009-.124.233.233,0,0,1,0-.028A13.419,13.419,0,0,1,528,200.7a5.052,5.052,0,0,1-1.734.825c-.16.043-.391.191-.415.323a.863.863,0,0,1-.118.3l-.051-.02a9.968,9.968,0,0,0-2.441,1.458,2.075,2.075,0,0,1-.763.429,4.6,4.6,0,0,0-2.225,1.6,2.228,2.228,0,0,1-.224.221,1.594,1.594,0,0,1-.316.034,2.834,2.834,0,0,0-1.677.807,1.576,1.576,0,0,0-.541,1.044,1.367,1.367,0,0,1-.676.294.6.6,0,0,0-.382.192,3.763,3.763,0,0,1-1.4.885,9.331,9.331,0,0,0-1.591,1,2.959,2.959,0,0,1-.282.19c-.185.117-.377.227-.565.342-.063.039-.151.045-.2.094-1.152,1.109-2.737,1.63-3.843,2.8a1.149,1.149,0,0,1-.354.262c-.777.344-1.564.67-2.34,1.016-.508.227-1.008.472-1.507.718a.526.526,0,0,0-.253.207c-.248.553-.769.782-1.232,1.089-.214.142-.377.359-.592.5a7.115,7.115,0,0,1-1.566.978,3.373,3.373,0,0,0-1.193.836c.033.024.069.039.1.065a3.152,3.152,0,0,0,1.569.953.592.592,0,0,1,.3.2c.169.178.331.361.5.54.274-.207.547-.418.828-.615a15.05,15.05,0,0,0,1.935-1.3.247.247,0,0,1,.092-.064c.993-.33,1.759-1.081,2.721-1.471a1.761,1.761,0,0,0,.489-.259c.559-.482,1.084-1,1.659-1.463a7.225,7.225,0,0,1,1.142-.679c.229-.122.563-.127.713-.3.713-.834,1.828-1.113,2.561-1.914a2.752,2.752,0,0,1,1.285-.85,2.517,2.517,0,0,0,.728-.476c.316-.235.627-.478.938-.717.229-.177.462-.346.7-.511a15.579,15.579,0,0,1,2.068-1.083,3.156,3.156,0,0,0,.7-.337,46.615,46.615,0,0,1,4.163-2.783c1.219-.711,2.26-1.672,3.475-2.379.332-.195.67-.377,1.007-.562.28-.153.56-.31.839-.466s.574-.34.864-.508a4.05,4.05,0,0,1,.778-.425,1.84,1.84,0,0,0,1.014-.708c-.521-.067-1.042-.137-1.565-.188A3.017,3.017,0,0,0,530.206,200.86Z"/><path class="cls-1" d="M741.427,310.605c-.058-.08-.126-.158-.187-.237l-.016-.023a.883.883,0,0,1-.143-.252,16.082,16.082,0,0,0-1.446-2.61,8.811,8.811,0,0,0-.735-1c-.319-.432-.646-.858-.951-1.3a16.525,16.525,0,0,0-1.44-2.173.271.271,0,0,1-.07-.1c-.36-1.114-1.193-1.975-1.622-3.054a1.994,1.994,0,0,0-.286-.547c-.532-.628-1.112-1.219-1.62-1.865a8.166,8.166,0,0,1-.75-1.281c-.134-.257-.137-.63-.332-.8-.926-.8-1.229-2.052-2.118-2.877a3.067,3.067,0,0,1-.939-1.442,2.831,2.831,0,0,0-.527-.818c-.26-.353-.529-.7-.794-1.053q-.291-.386-.565-.782c-.35-.6-.68-1.208-.969-1.84-.074-.16-.159-.314-.224-.478a3.592,3.592,0,0,0-.371-.784c-.29-.4-.565-.809-.848-1.214-.784-1.126-1.547-2.266-2.229-3.458-.782-1.366-1.848-2.537-2.63-3.9-.214-.372-.415-.752-.619-1.129q-.255-.474-.515-.941c-.18-.327-.375-.646-.559-.971a4.483,4.483,0,0,1-.47-.87,1.99,1.99,0,0,0-.925-1.271.716.716,0,0,1-.258-.266c-.655-1.153-1.511-2.178-2.106-3.376a14.432,14.432,0,0,0-1.185-1.74,2.827,2.827,0,0,1-.494-.712,5.529,5.529,0,0,0-1.046-1.68,36.679,36.679,0,0,1-2.336-3.652q-.559-.98-1.091-1.975c-.138-.259-.272-.521-.413-.776a4.011,4.011,0,0,0-.889-1.174,1.131,1.131,0,0,1-.353-.508,10.168,10.168,0,0,0-1.7-2.566c-.033-.052-.071-.1-.1-.151l.042-.034a2.777,2.777,0,0,1-.445-.686c-.312-.671-.583-1.363-.895-2.034a2.641,2.641,0,0,0-.438-.618c-.269-.3-.586-.562-.841-.875-.54-.662-1.059-1.343-1.575-2.025-.155-.206-.27-.441-.422-.694.073-.2.16-.4.213-.614a4.442,4.442,0,0,0,.068-.557,5.414,5.414,0,0,0-.48-.327,6.245,6.245,0,0,1-2.093-2.237,4.892,4.892,0,0,0-.5-.73,7.635,7.635,0,0,1-1.849-3.384c-.075-.25-.172-.5-.227-.748a2.085,2.085,0,0,0-.77-1.187c-.311-.259-.607-.53-.893-.81a5.988,5.988,0,0,1-1.422-2,1.373,1.373,0,0,0-.374-.405,3.106,3.106,0,0,1-1-1.692,1,1,0,0,0-.163-.406,5,5,0,0,1-.854-1.8c-.042-.16-.189-.391-.321-.417a.867.867,0,0,1-.3-.119l.021-.051a10.01,10.01,0,0,0-1.444-2.449,2.052,2.052,0,0,1-.424-.765,4.612,4.612,0,0,0-1.584-2.235,2.129,2.129,0,0,1-.22-.225,1.524,1.524,0,0,1-.033-.316,2.825,2.825,0,0,0-.8-1.682,1.575,1.575,0,0,0-1.04-.546,1.361,1.361,0,0,1-.291-.679.6.6,0,0,0-.19-.382,3.778,3.778,0,0,1-.877-1.407,9.336,9.336,0,0,0-.994-1.6,3.155,3.155,0,0,1-.188-.283c-.117-.186-.226-.378-.339-.567-.038-.063-.044-.151-.093-.2-1.1-1.157-1.614-2.745-2.784-3.859a1.148,1.148,0,0,1-.259-.355c-.34-.779-.661-1.566-1-2.346-.224-.508-.466-1.01-.709-1.51a.531.531,0,0,0-.207-.255c-.551-.25-.776-.773-1.081-1.237-.141-.215-.357-.38-.5-.595a7.11,7.11,0,0,1-.969-1.572,3.381,3.381,0,0,0-.83-1.2,1.143,1.143,0,0,1-.065.1,3.156,3.156,0,0,0-.961,1.563.6.6,0,0,1-.2.305c-.179.168-.363.328-.542.5.206.275.414.549.61.832a14.907,14.907,0,0,0,1.292,1.941.27.27,0,0,1,.063.092c.323,1,1.071,1.766,1.455,2.73a1.735,1.735,0,0,0,.257.49c.478.563,1,1.09,1.453,1.668a7.188,7.188,0,0,1,.673,1.146c.12.229.124.563.3.713.831.719,1.1,1.836,1.9,2.573a2.751,2.751,0,0,1,.843,1.29,2.531,2.531,0,0,0,.472.73c.233.318.474.629.712.942q.261.345.507.7a15.5,15.5,0,0,1,1.071,2.073,3.1,3.1,0,0,0,.333.7,46.829,46.829,0,0,1,2.759,4.179c.7,1.223,1.659,2.269,2.36,3.488.192.333.373.672.555,1.01q.23.423.463.842c.162.292.336.576.5.867a4.025,4.025,0,0,1,.422.78,1.781,1.781,0,0,0,.83,1.135.651.651,0,0,1,.231.238c.588,1.031,1.356,1.949,1.89,3.02a13.059,13.059,0,0,0,1.063,1.557,2.55,2.55,0,0,1,.443.635,4.968,4.968,0,0,0,.938,1.5,40.169,40.169,0,0,1,3.075,5.032,5.494,5.494,0,0,0,1.169,1.745,1.027,1.027,0,0,1,.316.453,7.786,7.786,0,0,0,1.439,2.176l-.027.011a.315.315,0,0,0-.1.07c-.047.046-.1.08-.15.123a3.1,3.1,0,0,1,.5.765c.348.752.649,1.524,1,2.274a2.9,2.9,0,0,0,.488.691c.3.338.654.63.938.98.538.66,1.052,1.338,1.565,2.018.063.083.129.163.191.247a8.854,8.854,0,0,1,.471.775,7.151,7.151,0,0,0-.239.687,4.772,4.772,0,0,0-.076.621,5.953,5.953,0,0,0,.535.365c.073.039.13.094.2.137a7.578,7.578,0,0,1,2.134,2.365,5.236,5.236,0,0,0,.557.816,8.556,8.556,0,0,1,2.059,3.785c.083.279.191.552.252.836a2.336,2.336,0,0,0,.859,1.327c.347.289.677.592,1,.9a6.668,6.668,0,0,1,1.586,2.238,1.543,1.543,0,0,0,.416.453,3.463,3.463,0,0,1,1.111,1.891,1.112,1.112,0,0,0,.182.456,5.571,5.571,0,0,1,.95,2.012c.047.18.21.437.359.466a.941.941,0,0,1,.329.135c-.008.02-.014.035-.024.056a11.222,11.222,0,0,0,1.611,2.738,2.327,2.327,0,0,1,.472.855,5.151,5.151,0,0,0,1.766,2.5,1.676,1.676,0,0,1,.2.2c.016.019.034.034.05.052a1.726,1.726,0,0,1,.036.354,3.163,3.163,0,0,0,.887,1.879,1.45,1.45,0,0,0,.414.333,2.032,2.032,0,0,0,.747.279,1.511,1.511,0,0,1,.324.759.661.661,0,0,0,.212.427,4.219,4.219,0,0,1,.977,1.574,10.688,10.688,0,0,0,1.108,1.786,3.079,3.079,0,0,1,.21.315c.13.209.252.423.378.634.042.071.048.17.1.226,1.233,1.3,1.8,3.07,3.105,4.315a1.319,1.319,0,0,1,.289.4c.379.871.737,1.752,1.117,2.623.249.569.519,1.13.79,1.689a.6.6,0,0,0,.23.284c.616.282.867.865,1.206,1.383.157.24.4.427.554.667a7.958,7.958,0,0,1,1.08,1.757,4.207,4.207,0,0,0,1.155,1.588,10.206,10.206,0,0,1,1.016,1.159,10.8,10.8,0,0,0-1.727,2.319,1.278,1.278,0,0,1-.294.393c-.718.621-1.452,1.226-2.171,1.847-.469.408-.923.832-1.377,1.257a.6.6,0,0,0-.2.3,3.149,3.149,0,0,1-.962,1.563c-.182.223-.287.507-.471.728a7.91,7.91,0,0,1-1.356,1.554,4.186,4.186,0,0,0-1.172,1.576c-.359.755-.938,1.349-1.281,2.107l-.893.027a1.365,1.365,0,0,0-.069.222,2.178,2.178,0,0,1-.094.7,3.014,3.014,0,0,1-.622.772c-.152.141-.311.276-.467.413l-.006-.007-.03.04c-.238.209-.473.422-.712.63-.216.189-.433.376-.643.571a2.9,2.9,0,0,0-.508.676c-.21.356-.375.741-.588,1.093-.539.524-.974,1.146-1.5,1.683a8.671,8.671,0,0,0-.738,1c-.317.432-.626.872-.957,1.3a16.429,16.429,0,0,0-1.644,2.019.287.287,0,0,1-.077.1c-.957.674-1.53,1.727-2.432,2.457a1.991,1.991,0,0,0-.438.436c-.441.695-.832,1.425-1.3,2.1a8.08,8.08,0,0,1-1,1.1c-.205.2-.559.319-.662.554-.491,1.124-1.593,1.785-2.116,2.878a3.075,3.075,0,0,1-1.1,1.327,2.831,2.831,0,0,0-.622.745c-.262.354-.514.715-.77,1.072q-.282.393-.578.773a17.339,17.339,0,0,1-1.858,1.828,3.54,3.54,0,0,0-.638.588,52.529,52.529,0,0,1-3.545,4.327c-1.072,1.154-1.872,2.519-2.94,3.672-.292.314-.6.62-.894.926-.25.257-.5.516-.745.774s-.5.549-.76.821a4.552,4.552,0,0,1-.692.708,1.993,1.993,0,0,0-.937,1.261.711.711,0,0,1-.176.324c-.906.97-1.631,2.092-2.6,3.017a14.286,14.286,0,0,0-1.309,1.65,2.823,2.823,0,0,1-.532.682,5.514,5.514,0,0,0-1.293,1.5,44.95,44.95,0,0,1-4.352,4.946,6.16,6.16,0,0,0-1.475,1.824,1.135,1.135,0,0,1-.379.487,10.159,10.159,0,0,0-1.943,2.391c-.6.729-1.154,1.5-1.726,2.257.09.081.182.16.274.24l-.145.195a2.055,2.055,0,0,1-.386.482,16.039,16.039,0,0,0-2.061,2.157,4.743,4.743,0,0,0-.52.7,1.639,1.639,0,0,0-.179-.217,7.649,7.649,0,0,1-2.146-3.2c-.1-.242-.216-.477-.293-.724a2.089,2.089,0,0,0-.875-1.113c-.333-.23-.652-.473-.962-.726a6,6,0,0,1-1.6-1.865,1.368,1.368,0,0,0-.408-.37,3.1,3.1,0,0,1-1.145-1.594.992.992,0,0,0-.2-.392,5,5,0,0,1-1.012-1.715c-.057-.158-.223-.373-.357-.387a.852.852,0,0,1-.306-.093c.006-.019.01-.034.017-.053a10.056,10.056,0,0,0-1.66-2.308,2.075,2.075,0,0,1-.491-.724,4.6,4.6,0,0,0-1.779-2.084,2.175,2.175,0,0,1-.239-.2,1.578,1.578,0,0,1-.062-.313,2.829,2.829,0,0,0-.944-1.6,1.581,1.581,0,0,0-1.085-.45,1.345,1.345,0,0,1-.351-.65.6.6,0,0,0-.224-.363,3.765,3.765,0,0,1-1-1.323,9.606,9.606,0,0,0-1.134-1.5,2.876,2.876,0,0,1-.213-.263c-.133-.175-.259-.356-.388-.535-.044-.059-.058-.146-.111-.192-1.2-1.056-1.855-2.59-3.12-3.593a1.156,1.156,0,0,1-.29-.33c-.409-.746-.8-1.5-1.211-2.247-.268-.487-.555-.964-.842-1.441a.534.534,0,0,0-.229-.234c-.572-.2-.843-.7-1.188-1.135-.16-.2-.389-.347-.549-.548a7.121,7.121,0,0,1-1.106-1.478,3.762,3.762,0,0,0-1.16-1.321c-.594-.456-1.006-1.073-1.6-1.516.049-.272.092-.509.134-.743a43.56,43.56,0,0,1,4.414,2.668,5.533,5.533,0,0,0,1.846,1,1.026,1.026,0,0,1,.491.254,9.125,9.125,0,0,0,2.421,1.322c.741.412,1.51.77,2.268,1.151a10.408,10.408,0,0,1,1.261-1.888.262.262,0,0,0,.051-.1c.019-.057.048-.106.069-.16a2.756,2.756,0,0,1-.713-.4c-.589-.448-1.149-.935-1.738-1.382a2.593,2.593,0,0,0-.675-.345c-.379-.142-.781-.225-1.153-.383-.786-.335-1.562-.7-2.335-1.061a7.561,7.561,0,0,1-.7-.417c-.031-.213-.046-.432-.1-.643a4.277,4.277,0,0,0-.2-.524,4.985,4.985,0,0,0-.577-.066,6.252,6.252,0,0,1-2.894-1.006,4.615,4.615,0,0,0-.781-.414,7.659,7.659,0,0,1-3.21-2.136c-.183-.187-.383-.359-.549-.557a2.088,2.088,0,0,0-1.234-.692c-.4-.085-.784-.187-1.168-.3l-.041-.014a.317.317,0,0,0,0,.053c.039.129-.1.366-.22.478-.06.055-.109.119-.166.177a.132.132,0,0,0-.026.005c-.055.019-.112.028-.167.044.014.044.009.092.02.136a5.637,5.637,0,0,0-.53.692,4.179,4.179,0,0,0-.327.539.8.8,0,0,1-.119.176c.344.188.692.371,1.036.56-.164.124-.328.246-.5.361a.243.243,0,0,1,.014.02,3.1,3.1,0,0,0,.579.882,3.723,3.723,0,0,0,.08.408c.122.385.3.752.409,1.142.221.825.417,1.659.608,2.493a7.853,7.853,0,0,1,.1.805c-.149.156-.312.3-.446.473a4.354,4.354,0,0,0-.289.48,4.765,4.765,0,0,0,.3.494,6.267,6.267,0,0,1,.994,2.9,4.769,4.769,0,0,0,.156.87,7.651,7.651,0,0,1,.3,3.845c-.034.258-.046.521-.1.775a2.093,2.093,0,0,0,.218,1.4c.177.363.337.731.483,1.1l.015.042c.012-.015.027-.021.039-.038a.621.621,0,0,1,.511-.122,4.986,4.986,0,0,0,1.992-.042.776.776,0,0,1,.211-.015,20.829,20.829,0,0,1-.355-2.564,12.982,12.982,0,0,0-.334-1.856,2.537,2.537,0,0,1-.143-.761,4.929,4.929,0,0,0-.242-1.756,38.656,38.656,0,0,1-.708-5.452l0-.043q.23.321.471.635l.815,1.032c.148.162.289.327.434.49.32.359.646.711.954,1.081a14.907,14.907,0,0,0,1.461,1.816.289.289,0,0,1,.072.085,4.791,4.791,0,0,0,.516.882l2.451,3.1c.21.2.427.389.625.6a7.251,7.251,0,0,1,.773,1.08,1.144,1.144,0,0,1,.09.207l.679.86a17.877,17.877,0,0,0,1.716,2.008,2.751,2.751,0,0,1,.956,1.209,2.513,2.513,0,0,0,.536.684c.261.295.529.584.794.875.194.214.383.43.568.651a15.98,15.98,0,0,1,1.208,1.89c.014.027.031.051.045.077a3.111,3.111,0,0,0,.395.668,47.33,47.33,0,0,1,3.125,3.914c.81,1.155,1.855,2.111,2.664,3.262.221.314.431.636.644.956.177.266.357.531.536.8s.388.545.578.819a4.089,4.089,0,0,1,.491.739,1.775,1.775,0,0,0,.928,1.055.663.663,0,0,1,.252.215c.678.975,1.525,1.819,2.154,2.839a12.762,12.762,0,0,0,1.2,1.454,2.584,2.584,0,0,1,.5.593,4.917,4.917,0,0,0,1.071,1.413c.3.334.555.7.834,1.042q1.01,1.254,1.916,2.582c.022-.031.038-.066.061-.1a7.991,7.991,0,0,1,1.356-1.553,3.053,3.053,0,0,0,.65-.684,5.894,5.894,0,0,0,.522-.892c.359-.755.938-1.349,1.282-2.107l.893-.027a1.508,1.508,0,0,0,.068-.223,2.172,2.172,0,0,1,.094-.7,3.018,3.018,0,0,1,.623-.772c.4-.367.807-.721,1.215-1.076-.083-.069-.164-.142-.246-.213.185-.16.371-.317.551-.478a2.983,2.983,0,0,0,.515-.673c.233-.387.406-.811.655-1.187.343-.516.705-1.018,1.064-1.523.194-.275.38-.555.576-.827.169-.234.382-.434.6-.681.018,0,.037,0,.055,0l4.258-5.2a6.968,6.968,0,0,1,.589-.72,10.836,10.836,0,0,1,1.937-1.627c.241-.162.471-.346.723-.489a2.332,2.332,0,0,0,1.012-1.216c.173-.417.363-.822.568-1.22a6.668,6.668,0,0,1,1.665-2.179,1.564,1.564,0,0,0,.308-.532,3.468,3.468,0,0,1,1.475-1.625,1.113,1.113,0,0,0,.38-.308,5.6,5.6,0,0,1,1.638-1.507c.159-.1.355-.33.339-.48a.947.947,0,0,1,.031-.355l.06.006a11.219,11.219,0,0,0,2.136-2.352,2.275,2.275,0,0,1,.676-.706,5.153,5.153,0,0,0,1.86-2.429,2.57,2.57,0,0,1,.166-.31,1.678,1.678,0,0,1,.328-.14,3.149,3.149,0,0,0,1.529-1.406,1.759,1.759,0,0,0,.239-1.292,1.51,1.51,0,0,1,.629-.534.666.666,0,0,0,.344-.329,4.222,4.222,0,0,1,1.212-1.4A10.54,10.54,0,0,0,711,347.368a3.514,3.514,0,0,1,.238-.294c.161-.187.33-.367.494-.549.055-.062.147-.1.185-.166.872-1.562,2.4-2.632,3.2-4.247a1.268,1.268,0,0,1,.293-.4c.718-.621,1.452-1.224,2.171-1.847.469-.406.923-.831,1.377-1.256a.6.6,0,0,0,.2-.3,3.156,3.156,0,0,1,.961-1.563c.183-.221.289-.506.472-.728a7.924,7.924,0,0,1,1.356-1.552,4.2,4.2,0,0,0,1.172-1.577,19.258,19.258,0,0,1,1.033-1.648c.066.059.135.117.2.179.007,0,.012-.014.019-.019a3.239,3.239,0,0,0,.676-.639l.247-.007a1.387,1.387,0,0,0,.068-.222c.008-.064.008-.132.011-.2.307-.447.578-.923.919-1.343.09-.112.172-.228.26-.34l.03-.041c.237-.21.473-.422.712-.631-.05-.041-.1-.084-.146-.126q.467-.63.936-1.256a2.049,2.049,0,0,1,.387-.483,16.05,16.05,0,0,0,2.061-2.158,8.765,8.765,0,0,0,.738-1c.317-.433.627-.873.956-1.3a16.447,16.447,0,0,0,1.645-2.02.29.29,0,0,1,.077-.1c.956-.675,1.53-1.727,2.431-2.456a2,2,0,0,0,.439-.437c.44-.695.832-1.424,1.3-2.1a7.978,7.978,0,0,1,1-1.1c.154-.154.365-.27.517-.412.006.012.016.021.022.033.232.489.447.985.666,1.48.514-.334,1.09-.586,1.368-1.2a.6.6,0,0,1,.285-.231c.317-.154.638-.3.957-.448C742.445,311.978,741.929,311.3,741.427,310.605Z"/></svg>