<svg xmlns="http://www.w3.org/2000/svg" viewBox="0 0 952 274.174"><defs><style>.cls-1{fill:#f36;}.cls-2{fill:#ffeded;}.cls-3{fill:#1858a8;}</style></defs><title>10</title><g id="Livello_1" data-name="Livello 1"><path class="cls-1" d="M270.306,21.589c3.242-2.506,7.368-3.611,11.98-4.022A35.078,35.078,0,0,0,292.4,15.186a24.188,24.188,0,0,1,12.2-1.83c2.592.321,5.711-.839,7.913.68a3.676,3.676,0,0,0,1.757-.178c.873-.228,1.941-.92,2.507-.79,3.212.736,5.536-.86,8.252-1.622,3.2-.9,6.218-2.957,9.8-1.607.821-1.01,1.241-2,2.206-2.559.726-.422,2.154-.292,3.268-.416,5.433-.608,10.5.268,15.908.632l3.508-2.291c2.156-.1,4.385.128,6.294-.368,5.514-1.431,10.435-.223,15.568.007a6.042,6.042,0,0,1,2.129.894c.528.244,1.118.806,1.527.723,5.156-1.054,10.991,1.568,15.385-2.445a19.442,19.442,0,0,0,4.194,1.11c2.433.1,3.626-1.369,5.208-2.723,6.509,1.528,13.331.236,20.268-1a8.412,8.412,0,0,1,1.208.944c1,1.134,2.271,1.681,4.535,1.1a3.681,3.681,0,0,1,2.383.2c2.206,2.075,5.549,1.38,8.735,1.088.681-.063,1.481-.482,2.016-.38,7.089,1.341,14.711-.309,21.972.088,3.625.2,7.421-.846,11.1-.288,2.468.374,5.151.358,4.919,2.729-.023.233.442.659.688.643,3.985-.264,4.321,2.035,5.517,3.576,6.491.1,12.684.221,18.893.258a15.875,15.875,0,0,0,4.089-.5A42.767,42.767,0,0,1,524.6,9.632c4.158-.3,8.284-1.074,11.1-3.776,2.123,0,2.775,1.643,5.29,1.44a19.564,19.564,0,0,1,9.07,1.423,8.714,8.714,0,0,0,3.955.326c2.274-.29,3.232.769,4.64,1.359,6.042-.834,12.046-1.8,18.081-1.581,4.706-1.43,9.88-.657,14.3-1.891,5.049-1.409,9.228-.762,13.312.036a23.6,23.6,0,0,0,8.057.213c1.625-.223,3.271-.351,4.879-.638a13.7,13.7,0,0,1,7.841.586c5.33,2.093,11.724,1.829,18.033,1.458a38.637,38.637,0,0,0,4.867-.695,23.975,23.975,0,0,1,16.5,2.276,11.8,11.8,0,0,0,4.058,1.374c3.216.4,4.188,2.536,6.747,3.339,2.323.729,5.3.534,6.888,2.312,1.075,1.2,2.988,2.049,4.633,2.975a5.119,5.119,0,0,0,2.332.663,13.011,13.011,0,0,1,8.9,3.419c3.067,2.641,7.629,3.687,11.937,5.052a21.6,21.6,0,0,1,3.066.79c4.945,2.592,10.669,4.635,14.008,8.378.445.5,1.231.94,1.316,1.486.352,2.247,1.356,4.02,5.126,4.482.638.079,1.482.957,1.318,1.375-1.283,3.273,1.684,5.5,3.468,7.851A66.942,66.942,0,0,1,746.281,67.7a12.836,12.836,0,0,1,.706,2.659,46.224,46.224,0,0,0,2,7.491,20.56,20.56,0,0,1,1.174,11.305c-.118.611-.565,1.538-.138,1.781,3.2,1.826,1.409,4.84,2.952,7.078,1.639,2.379,1.346,5.007-1.264,7.5a13.092,13.092,0,0,0-4.5,9.309c-.033,1.365-.841,2.372-2.307,3.349-2.569,1.712-2.858,3.634-1.865,5.618a15.547,15.547,0,0,1,1.1,2.091,4.117,4.117,0,0,1-.724,4.5,9.213,9.213,0,0,0-2.18,5.4,20.526,20.526,0,0,1-3.108,8.631c-1.574,2.41-2.633,4.987-4.12,7.481-1.47,2.463-1.218,5.251-2.619,7.737a17.767,17.767,0,0,0-2.431,10.9,2.619,2.619,0,0,1-.428,1.828c-2.642,3.581-3.4,7.52-6.591,11a7.656,7.656,0,0,0-1.777,3.106c-1.046,3.974-3.935,7.426-8.026,10.527a3.875,3.875,0,0,0-1.793,3.917,27.417,27.417,0,0,1,.5,5.919,11.5,11.5,0,0,1-4.241,8.449,42.806,42.806,0,0,0-14.008,5.669c-2.895,1.715-5.553,3.7-9.252,4.714a3.538,3.538,0,0,0-1.569.957c-2.219,2.493-5.638,3.85-9.393,5.074a68.415,68.415,0,0,0-7.31,3.16c-5.8,2.664-11.572,5.356-17.873,8.277-2.427,2.8-5,6.081-9.591,8.491a10.621,10.621,0,0,0-2.167,1.946c-2.841,2.62-3.671,3.075-9.166,4.966a9.734,9.734,0,0,0-2.833-.7c-4.1.131-7.485-.937-11.069-1.737a14.362,14.362,0,0,0-4.7-.242,68.023,68.023,0,0,1-10.428.692,18.825,18.825,0,0,0-6.137,1,23.46,23.46,0,0,1-8.188,1.038c-3.429-.06-6.945.272-10.424.482a9.545,9.545,0,0,0-2.012.476c-.663.193-1.284.467-1.948.657-3.3.947-7.184,1.431-9.741,2.937-2.706,1.6-5.457,3.155-8,4.626-4.786-.2-9.391-.18-13.807-.631-5.736-.586-11.886-.333-17.029-2.254a8.564,8.564,0,0,0-3.242-.48c-2.788.145-5.609.6-8.114-.334a2.68,2.68,0,0,0-1.349-.012c-4.707,1.173-8.5.3-12.325-1.121a26.714,26.714,0,0,0-7.17-1.111c-3.416-.216-6.875-.163-9.789-1.454a5.535,5.535,0,0,0-3.209-.108,12.593,12.593,0,0,1-6.1.264A48.34,48.34,0,0,0,456.3,260.3a31.941,31.941,0,0,1-10.115-.666,51.215,51.215,0,0,0-7.942-1.092,65.734,65.734,0,0,1-11.433-1.072,13.965,13.965,0,0,0-4.776.128,33.348,33.348,0,0,1-11.467-.383,222.326,222.326,0,0,0-32.687-3.865c-6.875-.215-13.605-1.042-20.7-.421a13.343,13.343,0,0,1-5.936-.68c-4.239-1.912-8.8-1-13.35-.068-4.312.883-8.542,2.041-12.8,3.1a7.448,7.448,0,0,1-4.686-.026c-3.338-1.425-6.775-2.124-10.977-.487a4.63,4.63,0,0,1-2.71.129c-3.6-1.547-8.384-1.1-12.053-2.426a8.523,8.523,0,0,0-5.894.057,47.566,47.566,0,0,1-12.686,1.916c-2.58-3.381-7.266-4.345-12.724-3.807a65.013,65.013,0,0,1-6.029-5.866c-2.523-3.2-7.844-4.1-11.54-6.316a2.52,2.52,0,0,0-1.215-.336c-6.017.048-9.8-2.455-13.97-4.532a11.085,11.085,0,0,0-3.337-1.383,15.691,15.691,0,0,1-10.59-6.143c-2.037-2.452-4.01-4.814-7.632-6.44-1.521-.683-2.306-2.08-3.233-3.23a7.491,7.491,0,0,0-4.351-3.137c-5.194-1.261-7.262-4.4-7.995-7.567-.962-4.155-4.264-7-8.3-9.639A4.169,4.169,0,0,1,183,193.457a14.107,14.107,0,0,0-4.6-8.19c-.618-.56-.67-1.4-1.1-2.071s-.739-1.539-1.561-1.849c-4.8-1.813-4.018-5.274-3.279-8.093,1.022-3.9.781-7.608.6-11.367-.15-3.04-.841-6.007-.083-9.15a6.894,6.894,0,0,0-1.525-5.7c-3.394-4.665-3.67-9.74-1.951-15.107.782-2.44,1.043-4.913,1.7-7.364a15.761,15.761,0,0,1,1.647-4.087c1.2-2,1.765-3.981,1.094-5.919-1.143-3.3.4-6.733.361-10.084a2.971,2.971,0,0,1,1.361-2.112c4.109-2.78,4.979-6.078,5.34-9.493.08-.763-.228-1.734.382-2.256,2.756-2.365,2.175-5.091,3.513-7.556,2.249-4.142,3.407-8.492,7.26-12.37,1.994-2.007,3.2-4.31,5.057-6.381,2.1-2.351,4.672-4.546,6.783-6.9a84.25,84.25,0,0,0,6.114-7.576c.952-1.344.638-2.7-.884-3.8a5.513,5.513,0,0,1-1.878-2.2c-.486-1.168.432-2.365,2.174-2.62,3.644-.533,6.958-2.518,10.85-1.874,4.581-1.174,9.757-1.533,12.742-4.88a3.93,3.93,0,0,1,2.014-1.273c5.531-.757,9.131-4.253,14.562-5.218,1.365-.243,2.539-1.441,3.723-2.249a23.29,23.29,0,0,1,14.674-4.09C268.525,21.655,269,21.617,270.306,21.589Z"/><path class="cls-2" d="M661.453,216.725c.239-4.287-.689-8.529.019-12.834.489-2.965.094-6.054.056-9.088-.04-3.263-.378-6.55-.144-9.785-2.14-.029-4.275-.014-6.413.1-4.085.229-8.166.519-12.251.761a17.381,17.381,0,0,1-3.175.037,77.321,77.321,0,0,0-17.176-.4,12.266,12.266,0,0,1-6.246-.615,4.287,4.287,0,0,0-3.081-.019c-3.368,1.016-6.865.932-10.344.782-3.729-.161-7.449-1.085-11.182.064a5.98,5.98,0,0,1-1.8-.069c-1.8-.062-3.61-.171-5.414-.156-1.665.014-3.342.33-4.991.224a100.061,100.061,0,0,0-13.051.048,10.1,10.1,0,0,1-2.716.061c-3.176-.7-6.334-.22-9.5-.083-1.359.059-2.722.044-4.084.018-2.108-.039-4.225-.267-6.322-.153-7.567.412-15.128.912-22.688,1.427a24.777,24.777,0,0,1-7.21-.466,27.337,27.337,0,0,0-4.933-.41,24.631,24.631,0,0,1-3.624.062c-3.338-.658-6.641-.186-9.96-.034a17.4,17.4,0,0,1-3.622.112c-2.432-.42-4.763-.637-7.121.338a6.047,6.047,0,0,1-2.231.067c-2.108-.036-4.217-.122-6.325-.122-1.211,0-2.425.231-3.63.181-2.711-.112-5.436-.213-8.119-.556a10.721,10.721,0,0,0-4.915.1,4.216,4.216,0,0,1-1.772.218,29.35,29.35,0,0,0-10.751.932c-2.28.561-5.021,1.205-7.124.051-4.071-2.233-8.225-1.5-12.361-.879a19.085,19.085,0,0,1-4.875.256,38.086,38.086,0,0,0-8.566-.211,36.627,36.627,0,0,1-8.066-.238,11.5,11.5,0,0,0-3.98.346,10.4,10.4,0,0,1-4.909.264,14.637,14.637,0,0,0-3.157-.162c-2.116.069-4.244.4-6.159-.845a1.6,1.6,0,0,0-1.293-.144c-2.51,1.349-5.43-.09-7.952,1.03a31.148,31.148,0,0,0-10.263.55.929.929,0,0,1-.45-.041,15.844,15.844,0,0,0-6.766-.1c-3.152.437-6.313-.994-9.437.187-.312.118-.865-.183-1.255-.376a7.956,7.956,0,0,0-6.179-.137,9.669,9.669,0,0,1-5.32.219,9.285,9.285,0,0,0-4.021-.324c-3.9,1-7.748.687-11.691.461-2.046-.118-3.752-1.184-5.651-1.17a10.418,10.418,0,0,0-1.828.209,9.024,9.024,0,0,1-.412,3.652.7.7,0,0,0-.046.411,23.9,23.9,0,0,1,.6,9.386c1.226,2.307-.348,4.977,1.126,7.273a1.258,1.258,0,0,1-.156,1.183c-1.364,1.751-1,3.7-.925,5.632a11.245,11.245,0,0,1-.176,2.888,8,8,0,0,0,.288,4.489,8.9,8.9,0,0,1,.379,3.64,36.488,36.488,0,0,0-.363,6.211,20.506,20.506,0,0,1,3.008-.109,100.046,100.046,0,0,0,13.05-.047,10.064,10.064,0,0,1,2.717-.062c3.176.7,6.333.22,9.5.083,1.358-.058,2.723-.044,4.084-.018,2.108.039,4.226.267,6.323.153,7.567-.412,15.128-.912,22.687-1.426a24.738,24.738,0,0,1,7.21.465,27.436,27.436,0,0,0,4.933.411,24.352,24.352,0,0,1,3.623-.062c3.338.657,6.642.185,9.961.033a17.407,17.407,0,0,1,3.623-.112c2.431.42,4.763.637,7.119-.338a6.054,6.054,0,0,1,2.232-.067c2.109.036,4.217.123,6.326.123,1.21,0,2.425-.232,3.629-.182,2.712.112,5.437.213,8.12.556a10.7,10.7,0,0,0,4.914-.1,4.211,4.211,0,0,1,1.771-.218,29.378,29.378,0,0,0,10.753-.931c2.28-.562,5.02-1.205,7.123-.052,4.072,2.233,8.225,1.5,12.362.879a19.075,19.075,0,0,1,4.874-.256,38.081,38.081,0,0,0,8.565.211,36.645,36.645,0,0,1,8.068.238,11.5,11.5,0,0,0,3.98-.346,10.4,10.4,0,0,1,4.909-.264,14.627,14.627,0,0,0,3.156.162c2.116-.069,4.244-.4,6.159.845a1.6,1.6,0,0,0,1.293.144c2.511-1.349,5.431.09,7.953-1.03a31.148,31.148,0,0,0,10.263-.55.923.923,0,0,1,.448.041,15.854,15.854,0,0,0,6.768.1c3.152-.437,6.313.994,9.437-.187.311-.118.865.183,1.255.376a7.956,7.956,0,0,0,6.179.137,9.669,9.669,0,0,1,5.32-.219,9.285,9.285,0,0,0,4.021.324c3.9-1,7.748-.687,11.69-.46,2.046.117,3.753,1.183,5.651,1.17,1.922-.014,3.828-.8,5.762-.906,2.646-.143,5.4.809,7.849-.957.36-.259,1.162,0,1.759.012,1.056.029,2.117.13,3.167.073a60.023,60.023,0,0,1,7.689.139c3.615.268,7.224.481,10.81,1.009a5.461,5.461,0,0,0,2.247-.107c3.859-1.133,7.774-.191,11.653-.267,1.491-.029,2.934.261,4.435-.24a19.5,19.5,0,0,1,3.555-.6,46.13,46.13,0,0,1,10.852.094,27.3,27.3,0,0,1,3.6.1,12.846,12.846,0,0,1,2.939,1.558c2.019-1.439,2.548-1.834,3.216-1.917.1-.413.239-.827.34-1.233C661.555,223.844,661.256,220.275,661.453,216.725Z"/><path class="cls-2" d="M315.222,112.725c-.239-4.287.69-8.529-.019-12.834-.489-2.965-.093-6.054-.055-9.088.04-3.263.377-6.55.144-9.785,2.14-.029,4.274-.014,6.412.105,4.086.229,8.167.519,12.251.761a17.382,17.382,0,0,0,3.175.037,77.321,77.321,0,0,1,17.176-.4,12.27,12.27,0,0,0,6.247-.615,4.285,4.285,0,0,1,3.08-.019c3.368,1.016,6.865.932,10.345.782,3.729-.161,7.449-1.085,11.181.064a5.98,5.98,0,0,0,1.8-.069c1.805-.062,3.61-.171,5.415-.156,1.664.014,3.341.33,4.99.224a100.061,100.061,0,0,1,13.051.048,10.1,10.1,0,0,0,2.716.061c3.176-.7,6.335-.22,9.5-.083,1.359.059,2.723.044,4.084.018,2.108-.039,4.226-.267,6.322-.153,7.567.412,15.129.912,22.688,1.427a24.782,24.782,0,0,0,7.211-.466,27.319,27.319,0,0,1,4.932-.41,24.636,24.636,0,0,0,3.624.062c3.338-.658,6.642-.186,9.96-.034a17.405,17.405,0,0,0,3.623.112c2.432-.42,4.762-.637,7.12.338a6.047,6.047,0,0,0,2.231.067c2.109-.036,4.218-.122,6.326-.122,1.21,0,2.425.231,3.63.181,2.71-.112,5.436-.213,8.119-.556a10.721,10.721,0,0,1,4.915.1,4.209,4.209,0,0,0,1.771.218,29.356,29.356,0,0,1,10.752.932c2.28.561,5.02,1.205,7.124.051,4.071-2.233,8.224-1.5,12.361-.879a19.082,19.082,0,0,0,4.875.256,38.075,38.075,0,0,1,8.565-.211,36.636,36.636,0,0,0,8.067-.238,11.5,11.5,0,0,1,3.98.346,10.4,10.4,0,0,0,4.908.264,14.64,14.64,0,0,1,3.157-.162c2.116.069,4.245.4,6.159-.845a1.6,1.6,0,0,1,1.293-.144c2.511,1.349,5.43-.09,7.952,1.03a31.154,31.154,0,0,1,10.264.55.926.926,0,0,0,.449-.041,15.849,15.849,0,0,1,6.767-.1c3.151.437,6.313-.994,9.437.187.312.118.865-.183,1.255-.376a7.954,7.954,0,0,1,6.178-.137,9.673,9.673,0,0,0,5.321.219,9.285,9.285,0,0,1,4.021-.324c3.9,1,7.748.687,11.69.461,2.047-.118,3.753-1.184,5.652-1.17a10.407,10.407,0,0,1,1.827.209,9.059,9.059,0,0,0,.412,3.652.694.694,0,0,1,.046.411,23.942,23.942,0,0,0-.6,9.386c-1.226,2.307.349,4.977-1.126,7.273a1.255,1.255,0,0,0,.157,1.183c1.363,1.751,1,3.7.925,5.632a11.2,11.2,0,0,0,.175,2.888,8.012,8.012,0,0,1-.287,4.489,8.87,8.87,0,0,0-.379,3.64,36.487,36.487,0,0,1,.362,6.211,20.488,20.488,0,0,0-3.007-.109,100.061,100.061,0,0,1-13.051-.047,10.056,10.056,0,0,0-2.716-.062c-3.176.7-6.333.22-9.5.083-1.358-.058-2.723-.044-4.083-.018-2.109.039-4.227.267-6.323.153-7.567-.412-15.129-.912-22.688-1.426a24.729,24.729,0,0,0-7.209.465,27.444,27.444,0,0,1-4.933.411,24.363,24.363,0,0,0-3.624-.062c-3.338.657-6.642.185-9.961.033a17.4,17.4,0,0,0-3.622-.112c-2.431.42-4.763.637-7.12-.338a6.053,6.053,0,0,0-2.232-.067c-2.109.036-4.217.123-6.325.123-1.211,0-2.426-.232-3.63-.182-2.711.112-5.437.213-8.12.556a10.7,10.7,0,0,1-4.913-.1,4.216,4.216,0,0,0-1.772-.218,29.38,29.38,0,0,1-10.753-.931c-2.28-.562-5.019-1.2-7.123-.052-4.072,2.233-8.225,1.5-12.362.879a19.072,19.072,0,0,0-4.874-.256,38.078,38.078,0,0,1-8.565.211,36.649,36.649,0,0,0-8.068.238,11.5,11.5,0,0,1-3.98-.346,10.4,10.4,0,0,0-4.908-.264,14.634,14.634,0,0,1-3.156.162c-2.117-.069-4.245-.4-6.159.845a1.6,1.6,0,0,1-1.294.144c-2.511-1.349-5.43.09-7.952-1.03a31.147,31.147,0,0,1-10.263-.55.926.926,0,0,0-.449.041,15.849,15.849,0,0,1-6.767.1c-3.152-.437-6.314.994-9.438-.187-.31-.118-.865.183-1.254.376a7.956,7.956,0,0,1-6.179.137,9.672,9.672,0,0,0-5.321-.219,9.285,9.285,0,0,1-4.021.324c-3.9-1-7.748-.687-11.69-.46-2.046.117-3.752,1.183-5.65,1.17-1.923-.014-3.828-.8-5.763-.906-2.646-.143-5.4.809-7.849-.957-.36-.259-1.161,0-1.759.012-1.056.029-2.116.13-3.167.073a60.027,60.027,0,0,0-7.689.139c-3.615.268-7.224.481-10.81,1.009a5.456,5.456,0,0,1-2.246-.107c-3.859-1.133-7.775-.191-11.654-.267-1.49-.029-2.934.261-4.434-.24a19.491,19.491,0,0,0-3.556-.6,46.13,46.13,0,0,0-10.852.094,27.283,27.283,0,0,0-3.6.1,12.832,12.832,0,0,0-2.94,1.558c-2.019-1.439-2.547-1.834-3.216-1.917-.1-.413-.239-.827-.34-1.233C315.121,119.844,315.42,116.275,315.222,112.725Z"/><path class="cls-2" d="M315.222,147.215c-.239,4.288.69,8.529-.019,12.835-.489,2.964-.093,6.054-.055,9.088.04,3.262.377,6.549.144,9.785,2.14.029,4.274.013,6.412-.106,4.086-.229,8.167-.518,12.251-.76a17.472,17.472,0,0,1,3.175-.038,77.261,77.261,0,0,0,17.176.4,12.27,12.27,0,0,1,6.247.615,4.279,4.279,0,0,0,3.08.02c3.368-1.017,6.865-.933,10.345-.783,3.729.162,7.449,1.085,11.181-.063a5.978,5.978,0,0,1,1.8.068c1.805.062,3.61.172,5.415.157,1.664-.014,3.341-.33,4.99-.225a99.885,99.885,0,0,0,13.051-.047,10.057,10.057,0,0,1,2.716-.062c3.176.7,6.335.22,9.5.083,1.359-.058,2.723-.044,4.084-.018,2.108.04,4.226.268,6.322.153,7.567-.411,15.129-.911,22.688-1.426a24.816,24.816,0,0,1,7.211.465,27.319,27.319,0,0,0,4.932.411,24.363,24.363,0,0,1,3.624-.062c3.338.658,6.642.185,9.96.034a17.269,17.269,0,0,1,3.623-.112c2.432.419,4.762.636,7.12-.339a6.069,6.069,0,0,1,2.231-.066c2.109.035,4.218.122,6.326.122,1.21,0,2.425-.232,3.63-.182,2.71.113,5.436.213,8.119.557a10.707,10.707,0,0,0,4.915-.1,4.209,4.209,0,0,1,1.771-.217,29.377,29.377,0,0,0,10.752-.932c2.28-.562,5.02-1.205,7.124-.051,4.071,2.233,8.224,1.5,12.361.879a19.128,19.128,0,0,1,4.875-.257,38.017,38.017,0,0,0,8.565.212,36.636,36.636,0,0,1,8.067.238,11.523,11.523,0,0,0,3.98-.346,10.4,10.4,0,0,1,4.908-.264,14.576,14.576,0,0,0,3.157.161c2.116-.068,4.245-.4,6.159.845a1.6,1.6,0,0,0,1.293.144c2.511-1.349,5.43.091,7.952-1.03a31.154,31.154,0,0,0,10.264-.549.914.914,0,0,1,.449.041,15.865,15.865,0,0,0,6.767.1c3.151-.436,6.313,1,9.437-.186.312-.118.865.182,1.255.376a7.963,7.963,0,0,0,6.178.137,9.673,9.673,0,0,1,5.321-.22,9.3,9.3,0,0,0,4.021.325c3.9-1,7.748-.688,11.69-.461,2.047.118,3.753,1.183,5.652,1.17a10.315,10.315,0,0,0,1.827-.21,9.054,9.054,0,0,1,.412-3.651.7.7,0,0,0,.046-.411,23.948,23.948,0,0,1-.6-9.387c-1.226-2.306.349-4.976-1.126-7.273a1.253,1.253,0,0,1,.157-1.182c1.363-1.751,1-3.7.925-5.633a11.2,11.2,0,0,1,.175-2.887,8.011,8.011,0,0,0-.287-4.489,8.87,8.87,0,0,1-.379-3.64,36.5,36.5,0,0,0,.362-6.212,20.628,20.628,0,0,1-3.007.11,99.886,99.886,0,0,0-13.051.047,10.056,10.056,0,0,1-2.716.062c-3.176-.7-6.333-.22-9.5-.083-1.358.058-2.723.044-4.083.018-2.109-.04-4.227-.268-6.323-.153-7.567.411-15.129.911-22.688,1.426a24.8,24.8,0,0,1-7.209-.465,27.353,27.353,0,0,0-4.933-.411,24.363,24.363,0,0,1-3.624.062c-3.338-.658-6.642-.185-9.961-.034a17.26,17.26,0,0,1-3.622.112c-2.431-.419-4.763-.636-7.12.339a6.075,6.075,0,0,1-2.232.066c-2.109-.035-4.217-.122-6.325-.122-1.211,0-2.426.232-3.63.182-2.711-.113-5.437-.213-8.12-.557a10.7,10.7,0,0,0-4.913.1,4.215,4.215,0,0,1-1.772.217,29.381,29.381,0,0,0-10.753.932c-2.28.562-5.019,1.205-7.123.051-4.072-2.233-8.225-1.5-12.362-.879a19.118,19.118,0,0,1-4.874.257,38.02,38.02,0,0,0-8.565-.212,36.649,36.649,0,0,1-8.068-.238,11.523,11.523,0,0,0-3.98.346,10.4,10.4,0,0,1-4.908.264,14.571,14.571,0,0,0-3.156-.161c-2.117.068-4.245.4-6.159-.845a1.6,1.6,0,0,0-1.294-.144c-2.511,1.349-5.43-.091-7.952,1.03a31.146,31.146,0,0,0-10.263.549.914.914,0,0,1-.449-.041,15.865,15.865,0,0,0-6.767-.1c-3.152.436-6.314-1-9.438.186-.31.118-.865-.182-1.254-.376a7.961,7.961,0,0,0-6.179-.137,9.672,9.672,0,0,1-5.321.22,9.286,9.286,0,0,0-4.021-.325c-3.9,1-7.748.687-11.69.461-2.046-.118-3.752-1.183-5.65-1.17-1.923.013-3.828.8-5.763.905-2.646.143-5.4-.809-7.849.958-.36.259-1.161,0-1.759-.013-1.056-.029-2.116-.129-3.167-.073a60.027,60.027,0,0,1-7.689-.139c-3.615-.268-7.224-.481-10.81-1.008a5.456,5.456,0,0,0-2.246.106c-3.859,1.134-7.775.191-11.654.268-1.49.029-2.934-.261-4.434.239a19.321,19.321,0,0,1-3.556.6,46.023,46.023,0,0,1-10.852-.094,27.115,27.115,0,0,1-3.6-.1,12.871,12.871,0,0,1-2.94-1.558c-2.019,1.438-2.547,1.834-3.216,1.917-.1.412-.239.827-.34,1.232C315.121,140.1,315.42,143.666,315.222,147.215Z"/><path class="cls-2" d="M315.222,62.805c-.239-4.287.69-8.529-.019-12.834-.489-2.965-.093-6.055-.055-9.088.04-3.263.377-6.55.144-9.785,2.14-.029,4.274-.014,6.412.105,4.085.229,8.167.519,12.251.761A17.382,17.382,0,0,0,337.13,32a77.321,77.321,0,0,1,17.176-.4,12.27,12.27,0,0,0,6.247-.615,4.285,4.285,0,0,1,3.08-.019c3.368,1.016,6.865.932,10.345.782,3.729-.161,7.449-1.085,11.181.064a5.98,5.98,0,0,0,1.8-.069c1.805-.062,3.61-.171,5.415-.156,1.664.014,3.341.33,4.99.224a100.237,100.237,0,0,1,13.051.047,10.057,10.057,0,0,0,2.716.062c3.176-.7,6.335-.22,9.5-.083,1.359.059,2.723.044,4.084.018,2.108-.039,4.226-.267,6.322-.153,7.567.412,15.129.912,22.688,1.427a24.782,24.782,0,0,0,7.211-.466,27.319,27.319,0,0,1,4.932-.41,24.634,24.634,0,0,0,3.624.062c3.338-.658,6.642-.186,9.96-.034a17.4,17.4,0,0,0,3.623.112c2.432-.42,4.762-.637,7.12.338a6.047,6.047,0,0,0,2.231.067c2.109-.036,4.218-.122,6.325-.122,1.211,0,2.426.231,3.631.181,2.71-.112,5.436-.213,8.119-.556a10.707,10.707,0,0,1,4.915.1,4.209,4.209,0,0,0,1.771.218,29.377,29.377,0,0,1,10.752.931c2.28.562,5.02,1.206,7.124.052,4.071-2.233,8.224-1.5,12.361-.879a19.082,19.082,0,0,0,4.875.256,38.075,38.075,0,0,1,8.565-.211,36.636,36.636,0,0,0,8.067-.238,11.5,11.5,0,0,1,3.98.346,10.4,10.4,0,0,0,4.908.264,14.64,14.64,0,0,1,3.157-.162c2.116.069,4.245.4,6.159-.845a1.6,1.6,0,0,1,1.293-.144c2.511,1.349,5.43-.09,7.952,1.03a31.154,31.154,0,0,1,10.264.55.926.926,0,0,0,.449-.041,15.849,15.849,0,0,1,6.767-.1c3.151.437,6.313-.994,9.437.187.312.118.865-.183,1.255-.376a7.954,7.954,0,0,1,6.178-.137,9.673,9.673,0,0,0,5.321.219,9.285,9.285,0,0,1,4.021-.324c3.9,1,7.748.687,11.69.461,2.047-.118,3.753-1.184,5.652-1.17a10.407,10.407,0,0,1,1.827.209,9.059,9.059,0,0,0,.412,3.652.694.694,0,0,1,.046.411,23.942,23.942,0,0,0-.6,9.386c-1.226,2.307.349,4.977-1.126,7.273a1.255,1.255,0,0,0,.157,1.183c1.363,1.751,1,3.7.925,5.632a11.2,11.2,0,0,0,.175,2.888,8.012,8.012,0,0,1-.287,4.489,8.87,8.87,0,0,0-.379,3.64,36.487,36.487,0,0,1,.362,6.211,20.488,20.488,0,0,0-3.007-.109,100.061,100.061,0,0,1-13.051-.047,10.057,10.057,0,0,0-2.716-.062c-3.176.7-6.333.22-9.5.083-1.358-.059-2.723-.044-4.083-.018-2.109.039-4.227.267-6.323.153-7.567-.412-15.129-.912-22.688-1.426a24.729,24.729,0,0,0-7.209.465,27.444,27.444,0,0,1-4.933.411,24.363,24.363,0,0,0-3.624-.062c-3.338.657-6.642.185-9.961.033a17.4,17.4,0,0,0-3.622-.112c-2.431.42-4.763.637-7.12-.338a6.053,6.053,0,0,0-2.232-.067c-2.109.036-4.217.122-6.325.122-1.211,0-2.426-.231-3.63-.181-2.711.112-5.437.213-8.12.556a10.7,10.7,0,0,1-4.913-.1,4.216,4.216,0,0,0-1.772-.218,29.38,29.38,0,0,1-10.753-.931c-2.28-.562-5.019-1.2-7.123-.052-4.072,2.233-8.225,1.5-12.362.879a19.072,19.072,0,0,0-4.874-.256,38.078,38.078,0,0,1-8.565.211,36.649,36.649,0,0,0-8.068.238,11.5,11.5,0,0,1-3.98-.346,10.4,10.4,0,0,0-4.908-.264,14.634,14.634,0,0,1-3.156.162c-2.117-.069-4.245-.4-6.159.845a1.6,1.6,0,0,1-1.294.144c-2.511-1.349-5.43.09-7.952-1.03a31.147,31.147,0,0,1-10.263-.55.926.926,0,0,0-.449.041,15.849,15.849,0,0,1-6.767.1c-3.152-.437-6.314.994-9.438-.187-.31-.118-.865.183-1.254.376a7.956,7.956,0,0,1-6.179.137,9.672,9.672,0,0,0-5.321-.219,9.285,9.285,0,0,1-4.021.324c-3.9-1-7.748-.687-11.69-.461-2.046.118-3.752,1.184-5.65,1.17-1.923-.013-3.828-.8-5.763-.905-2.646-.143-5.4.809-7.849-.957-.36-.259-1.161,0-1.759.012-1.056.029-2.116.13-3.167.073a60.027,60.027,0,0,0-7.689.139c-3.615.268-7.224.481-10.81,1.009a5.456,5.456,0,0,1-2.246-.107c-3.859-1.133-7.775-.191-11.654-.267-1.49-.029-2.934.261-4.434-.24a19.491,19.491,0,0,0-3.556-.6,46.13,46.13,0,0,0-10.852.094,27.283,27.283,0,0,0-3.6.1,12.832,12.832,0,0,0-2.94,1.558c-2.019-1.439-2.547-1.834-3.216-1.917-.1-.413-.239-.827-.34-1.233C315.121,69.924,315.42,66.355,315.222,62.805Z"/><path class="cls-3" d="M334.131,58.9h-.274l-3.67,5.942h-2.472l4.693-7.19-4.618-6.54h2.472l3.669,5.367h.325l3.669-5.367h2.347L335.654,57.6l4.693,7.239h-2.471Z"/><path class="cls-3" d="M340.6,113.541v2.047H328.714v-2.047h5.292V102.807l-5.292,2.022v-2.222l5.292-2.022V98.613h2.3v14.928Z"/><path class="cls-3" d="M356.545,106.95c0,6.291-2.371,8.888-6.365,8.888-4.194,0-6.216-2.921-6.216-8.588,0-5.916,2.372-8.887,6.366-8.887C354.524,98.363,356.545,101.284,356.545,106.95Zm-10.234.175c0,.749.025,1.448.074,2.072l7.315-6.341a3.247,3.247,0,0,0-3.42-2.446C347.234,100.41,346.311,102.757,346.311,107.125Zm7.888-.05c0-.749-.025-1.447-.075-2.071l-7.314,6.34a3.246,3.246,0,0,0,3.42,2.447C353.275,113.791,354.2,111.943,354.2,107.075Z"/><path class="cls-3" d="M364.232,113.565a2.247,2.247,0,1,1,2.247,2.247A2.237,2.237,0,0,1,364.232,113.565Z"/><path class="cls-3" d="M389.168,113.541v2.047H376.886v-2.3c4.368-2.671,9.461-5.392,9.461-9.735,0-1.922-.848-3.146-3.695-3.146-3.095,0-3.919,1.373-3.919,3.72a4.249,4.249,0,0,0,.2,1.522l-2.371-.175a11.6,11.6,0,0,1-.1-1.6c0-3.321,2.171-5.517,6.315-5.517,4.868,0,5.917,2.7,5.917,4.943,0,4.793-4.494,7.489-7.24,9.336l-1.347.6v.3Z"/><path class="cls-3" d="M340.6,164.3v2.047H328.714V164.3h5.292V153.56l-5.292,2.023v-2.222l5.292-2.022v-1.972h2.3V164.3Z"/><path class="cls-3" d="M356.72,164.3v2.047H344.439v-2.3c4.368-2.671,9.46-5.392,9.46-9.736,0-1.921-.848-3.145-3.694-3.145-3.1,0-3.919,1.373-3.919,3.72a4.255,4.255,0,0,0,.2,1.522l-2.371-.175a11.6,11.6,0,0,1-.1-1.6c0-3.321,2.172-5.517,6.316-5.517,4.867,0,5.916,2.7,5.916,4.942,0,4.793-4.493,7.49-7.24,9.337l-1.347.6v.3Z"/><path class="cls-3" d="M364.232,164.319a2.247,2.247,0,1,1,2.247,2.247A2.237,2.237,0,0,1,364.232,164.319Z"/><path class="cls-3" d="M389.018,161.5c0,2.77-1.647,5.093-5.916,5.093-4.019,0-6.415-2.148-6.415-7.964,0-5.217,1.971-9.536,7.838-9.536a13.97,13.97,0,0,1,4.244.624l-.624,2a11.657,11.657,0,0,0-3.82-.6c-3.67,0-4.868,2.2-5.217,4.943l3.944.474C386.946,156.98,389.018,158.4,389.018,161.5Zm-2.3.2c0-1.946-1.124-2.8-4.219-3.17l-3.52-.425v.4c0,4.643,1.348,6.066,4.319,6.066C385.773,164.569,386.722,163.471,386.722,161.7Z"/><path class="cls-3" d="M340.6,215.047v2.047H328.714v-2.047h5.292V204.312l-5.292,2.023v-2.222l5.292-2.022v-1.972h2.3v14.928Z"/><path class="cls-3" d="M357.1,213.6h-2.446v3.5h-2.3v-3.5h-8.538v-2.3l6.166-11.184h2.372l-5.243,9.511-1.173,1.6v.325h6.416V200.119h2.3v11.433H357.1Z"/><path class="cls-3" d="M364.232,215.071a2.247,2.247,0,1,1,2.247,2.247A2.237,2.237,0,0,1,364.232,215.071Z"/><path class="cls-3" d="M388.843,211.8c0,3-2.022,5.542-6.84,5.542a12.016,12.016,0,0,1-5.491-1.124l.649-1.948a10.361,10.361,0,0,0,5.042,1.049c3.146,0,4.344-1.323,4.344-3.37,0-1.947-1.448-2.8-4.469-3.345l-4.418-.8.1-7.689H388.3v2.047h-8.289l-.074,3.969,2.945.524C386.9,207.333,388.843,208.656,388.843,211.8Z"/><path class="cls-3" d="M433.121,65.961h3.945v2H426.93v-2h3.945V63.19l-5.318-13.455h2.422L430.85,57.2l.973,3.1h.5l1-3.1,2.821-7.464h2.3L433.121,63.19Z"/><path class="cls-3" d="M438.463,112.168v2.047H426.182v-2.3c4.368-2.671,9.461-5.392,9.461-9.735,0-1.922-.849-3.146-3.695-3.146-3.095,0-3.919,1.373-3.919,3.72a4.249,4.249,0,0,0,.2,1.522l-2.372-.175a11.6,11.6,0,0,1-.1-1.6c0-3.321,2.172-5.517,6.316-5.517,4.868,0,5.916,2.7,5.916,4.943,0,4.792-4.493,7.489-7.239,9.336l-1.348.6v.3Z"/><path class="cls-3" d="M454.687,112.168v2.047H442.405v-2.3c4.369-2.671,9.461-5.392,9.461-9.735,0-1.922-.848-3.146-3.695-3.146-3.095,0-3.918,1.373-3.918,3.72a4.255,4.255,0,0,0,.2,1.522l-2.371-.175a11.6,11.6,0,0,1-.1-1.6c0-3.321,2.171-5.517,6.315-5.517,4.868,0,5.917,2.7,5.917,4.943,0,4.792-4.494,7.489-7.24,9.336l-1.347.6v.3Z"/><path class="cls-3" d="M462.2,112.192a2.247,2.247,0,1,1,2.247,2.247A2.237,2.237,0,0,1,462.2,112.192Z"/><path class="cls-3" d="M486.735,109.322c0,2.846-2.022,5.143-7.089,5.143a13.4,13.4,0,0,1-5.742-1.124l.649-1.948a12.4,12.4,0,0,0,5.293,1.049c3.394,0,4.593-1.073,4.593-2.995,0-1.623-1.1-2.771-4.344-2.771h-4.618v-2.022h5.991c1.8-.724,2.422-1.673,2.422-3,0-1.922-1.3-2.646-3.92-2.646a11.547,11.547,0,0,0-5.167,1.173l-.6-1.872a13.158,13.158,0,0,1,5.941-1.323c3.695,0,6.041,1.423,6.041,4.543a4.25,4.25,0,0,1-2.471,3.819C485.812,106.127,486.735,107.275,486.735,109.322Z"/><path class="cls-3" d="M438.564,162.922v2.047H426.681v-2.047h5.292V152.187l-5.292,2.023v-2.222l5.292-2.022v-1.972h2.3v14.928Z"/><path class="cls-3" d="M454.238,155.932c0,4.967-1.473,9.287-7.09,9.287a15.08,15.08,0,0,1-4.743-.624l.624-2.1a11.4,11.4,0,0,0,4.319.7c3.395,0,4.294-2.122,4.518-4.693l-3.994-.474c-4.044-.474-5.966-1.873-5.966-4.968,0-3.045,2-5.342,5.916-5.342C452.016,147.719,454.238,150.515,454.238,155.932Zm-2.3.524v-.4c0-4.244-1.173-6.316-4.318-6.316-2.5,0-3.421,1.448-3.421,3.12,0,1.947.974,2.772,4.219,3.171Z"/><path class="cls-3" d="M462.2,162.946a2.247,2.247,0,1,1,2.247,2.247A2.237,2.237,0,0,1,462.2,162.946Z"/><path class="cls-3" d="M486.436,160.925c0,2.921-2.272,4.468-5.817,4.468-3.445,0-5.716-1.3-5.716-4.144,0-2.147,1.672-3.37,3.669-4.394-2.246-.973-4.318-2.221-4.318-4.668,0-2.871,2.446-4.618,6.515-4.618,4.294,0,6.316,1.548,6.316,4.219,0,2.472-2.1,3.794-4.369,4.893C484.713,157.6,486.436,158.777,486.436,160.925Zm-5.692-5.093c2.147-1,4.044-2.022,4.044-3.944,0-1.4-1.073-2.3-4.194-2.3-2.671,0-4.044.9-4.044,2.5C476.55,153.96,478.547,154.908,480.744,155.832Zm3.395,5.192c0-1.6-1.647-2.471-3.594-3.32-1.848.9-3.346,1.848-3.346,3.445,0,1.248.7,2.272,3.545,2.272C483.441,163.421,484.139,162.4,484.139,161.024Z"/><path class="cls-3" d="M438.564,213.672v2.047H426.681v-2.047h5.292V202.937l-5.292,2.023v-2.222l5.292-2.022v-1.972h2.3v14.928Z"/><path class="cls-3" d="M453.988,211.675c0,2.921-2.272,4.468-5.817,4.468-3.444,0-5.716-1.3-5.716-4.144,0-2.147,1.673-3.37,3.67-4.394-2.247-.973-4.319-2.221-4.319-4.668,0-2.871,2.447-4.618,6.515-4.618,4.294,0,6.316,1.548,6.316,4.219,0,2.472-2.1,3.794-4.368,4.893C452.266,208.354,453.988,209.527,453.988,211.675Zm-5.692-5.093c2.147-1,4.044-2.022,4.044-3.944,0-1.4-1.073-2.3-4.193-2.3-2.671,0-4.044.9-4.044,2.5C444.1,204.71,446.1,205.658,448.3,206.582Zm3.395,5.192c0-1.6-1.647-2.471-3.594-3.32-1.847.9-3.345,1.848-3.345,3.445,0,1.248.7,2.272,3.544,2.272C450.992,214.171,451.691,213.147,451.691,211.774Z"/><path class="cls-3" d="M462.2,213.7a2.247,2.247,0,1,1,2.247,2.247A2.237,2.237,0,0,1,462.2,213.7Z"/><path class="cls-3" d="M487.135,213.672v2.047H474.853v-2.3c4.368-2.671,9.461-5.392,9.461-9.736,0-1.921-.849-3.145-3.695-3.145-3.1,0-3.919,1.373-3.919,3.72a4.253,4.253,0,0,0,.2,1.522l-2.372-.175a11.767,11.767,0,0,1-.1-1.6c0-3.321,2.172-5.517,6.316-5.517,4.868,0,5.917,2.7,5.917,4.942,0,4.793-4.494,7.49-7.24,9.337l-1.348.6v.3Z"/><path class="cls-3" d="M536.157,62.641a10.118,10.118,0,0,1-4.718,1.074c-3.745,0-4.418-2.047-4.369-4.993l.15-6.99h-3.37v-2h3.395l.075-3.245h2.322l-.425,3.245h6.441v2h-6.141l-.15,6.741c-.05,1.747.175,3.219,2.147,3.219a8.934,8.934,0,0,0,4.044-.924Z"/><path class="cls-3" d="M552.581,61.468v2H540.7v-2h5.068V51.732H540.7v-2h7.314V61.468Zm-8.188-16.227a2.247,2.247,0,1,1,2.246,2.247A2.236,2.236,0,0,1,544.393,45.241Z"/><path class="cls-3" d="M569.254,53.255v10.21h-2V54.078c0-2.021-.2-2.846-1.523-2.846a3.382,3.382,0,0,0-2.172,1.024c.025.3.05.625.05,1v10.21h-2V54.078c0-2.021-.2-2.846-1.523-2.846a3.3,3.3,0,0,0-2.122.974V63.465h-2V49.735h1.648l.025,1.2a3.935,3.935,0,0,1,2.946-1.473,2.576,2.576,0,0,1,2.571,1.373,4.477,4.477,0,0,1,3.07-1.373C568.255,49.46,569.254,50.584,569.254,53.255Z"/><path class="cls-3" d="M575.168,56.625c0,3.495,1.473,5.067,4.368,5.067a9,9,0,0,0,4.544-1.173l.6,1.872a10.175,10.175,0,0,1-5.193,1.324c-4.069,0-6.59-2.3-6.59-6.965s2.871-7.265,6.465-7.265c4.1,0,5.917,2.546,5.368,6.989h-9.561Zm.174-1.947h7.24c-.05-2.3-1.123-3.245-3.37-3.245A3.66,3.66,0,0,0,575.342,54.678Z"/><path class="cls-3" d="M536.457,105.577c0,6.291-2.372,8.888-6.366,8.888-4.194,0-6.216-2.921-6.216-8.588,0-5.916,2.372-8.887,6.366-8.887C534.435,96.99,536.457,99.911,536.457,105.577Zm-10.235.175c0,.749.025,1.448.074,2.072l7.315-6.341a3.247,3.247,0,0,0-3.42-2.446C527.146,99.037,526.222,101.384,526.222,105.752Zm7.888-.05c0-.749-.025-1.447-.075-2.071l-7.314,6.34a3.246,3.246,0,0,0,3.42,2.447C533.187,112.418,534.11,110.57,534.11,105.7Z"/><path class="cls-3" d="M552.481,99.536l-5.617,12.632h3.869v2.047H540.7v-2.047h3.644l4.993-10.959,1.074-1.572v-.35h-9.961V97.24h12.033Z"/><path class="cls-3" d="M560.367,103.681a2.247,2.247,0,1,1,2.247,2.246A2.238,2.238,0,0,1,560.367,103.681Zm0,8.511a2.247,2.247,0,1,1,2.247,2.247A2.237,2.237,0,0,1,560.367,112.192Z"/><path class="cls-3" d="M584.978,108.923c0,3-2.022,5.542-6.84,5.542a12.01,12.01,0,0,1-5.491-1.124l.648-1.948a10.368,10.368,0,0,0,5.043,1.049c3.145,0,4.344-1.323,4.344-3.37,0-1.947-1.448-2.8-4.469-3.345l-4.418-.8.1-7.689h10.534v2.047h-8.288l-.075,3.969,2.946.524C583.031,104.454,584.978,105.777,584.978,108.923Z"/><path class="cls-3" d="M601.627,112.168v2.047H589.744v-2.047h5.292V101.433l-5.292,2.023v-2.222l5.292-2.022V97.24h2.3v14.928Z"/><path class="cls-3" d="M609.038,103.681a2.247,2.247,0,1,1,2.247,2.246A2.238,2.238,0,0,1,609.038,103.681Zm0,8.511a2.247,2.247,0,1,1,2.247,2.247A2.237,2.237,0,0,1,609.038,112.192Z"/><path class="cls-3" d="M634.349,110.72H631.9v3.5h-2.3v-3.5h-8.538v-2.3l6.166-11.184h2.372l-5.242,9.511-1.173,1.6v.324h6.415V97.24h2.3v11.433h2.446Z"/><path class="cls-3" d="M649.8,109.322c0,2.846-2.022,5.143-7.09,5.143a13.393,13.393,0,0,1-5.741-1.124l.649-1.948a12.4,12.4,0,0,0,5.292,1.049c3.395,0,4.593-1.073,4.593-2.995,0-1.623-1.1-2.771-4.343-2.771h-4.618v-2.022h5.991c1.8-.724,2.421-1.673,2.421-3,0-1.922-1.3-2.646-3.919-2.646a11.548,11.548,0,0,0-5.168,1.173l-.6-1.872a13.159,13.159,0,0,1,5.942-1.323c3.694,0,6.041,1.423,6.041,4.543a4.249,4.249,0,0,1-2.472,3.819C648.875,106.127,649.8,107.275,649.8,109.322Z"/><path class="cls-3" d="M536.457,156.331c0,6.291-2.372,8.888-6.366,8.888-4.194,0-6.216-2.921-6.216-8.588,0-5.916,2.372-8.887,6.366-8.887C534.435,147.744,536.457,150.665,536.457,156.331Zm-10.235.175c0,.749.025,1.448.074,2.072l7.315-6.341a3.247,3.247,0,0,0-3.42-2.446C527.146,149.791,526.222,152.138,526.222,156.506Zm7.888-.05c0-.749-.025-1.447-.075-2.071l-7.314,6.339a3.245,3.245,0,0,0,3.42,2.448C533.187,163.172,534.11,161.324,534.11,156.456Z"/><path class="cls-3" d="M552.481,150.29l-5.617,12.632h3.869v2.047H540.7v-2.047h3.644l4.993-10.959,1.074-1.572v-.35h-9.961v-2.047h12.033Z"/><path class="cls-3" d="M560.367,154.434a2.247,2.247,0,1,1,2.247,2.247A2.237,2.237,0,0,1,560.367,154.434Zm0,8.512a2.247,2.247,0,1,1,2.247,2.247A2.237,2.237,0,0,1,560.367,162.946Z"/><path class="cls-3" d="M584.978,159.677c0,3-2.022,5.542-6.84,5.542a12.01,12.01,0,0,1-5.491-1.124l.648-1.948a10.368,10.368,0,0,0,5.043,1.049c3.145,0,4.344-1.323,4.344-3.37,0-1.947-1.448-2.8-4.469-3.345l-4.418-.8.1-7.689h10.534v2.047h-8.288l-.075,3.969,2.946.524C583.031,155.208,584.978,156.531,584.978,159.677Z"/><path class="cls-3" d="M601.527,162.922v2.047H589.245v-2.3c4.368-2.671,9.461-5.392,9.461-9.736,0-1.921-.848-3.145-3.7-3.145-3.095,0-3.919,1.373-3.919,3.72a4.253,4.253,0,0,0,.2,1.522l-2.372-.175a11.767,11.767,0,0,1-.1-1.6c0-3.321,2.172-5.517,6.316-5.517,4.868,0,5.917,2.7,5.917,4.942,0,4.793-4.494,7.49-7.24,9.337l-1.348.6v.3Z"/><path class="cls-3" d="M609.038,154.434a2.247,2.247,0,1,1,2.247,2.247A2.237,2.237,0,0,1,609.038,154.434Zm0,8.512a2.247,2.247,0,1,1,2.247,2.247A2.237,2.237,0,0,1,609.038,162.946Z"/><path class="cls-3" d="M633.8,156.331c0,6.291-2.372,8.888-6.366,8.888-4.194,0-6.216-2.921-6.216-8.588,0-5.916,2.372-8.887,6.366-8.887C631.778,147.744,633.8,150.665,633.8,156.331Zm-10.235.175c0,.749.025,1.448.075,2.072l7.314-6.341a3.246,3.246,0,0,0-3.42-2.446C624.488,149.791,623.565,152.138,623.565,156.506Zm7.888-.05c0-.749-.025-1.447-.075-2.071l-7.314,6.339a3.246,3.246,0,0,0,3.42,2.448C630.53,163.172,631.453,161.324,631.453,156.456Z"/><path class="cls-3" d="M650.2,162.922v2.047H637.916v-2.3c4.369-2.671,9.462-5.392,9.462-9.736,0-1.921-.849-3.145-3.7-3.145-3.1,0-3.919,1.373-3.919,3.72a4.258,4.258,0,0,0,.2,1.522l-2.371-.175a11.6,11.6,0,0,1-.1-1.6c0-3.321,2.172-5.517,6.316-5.517,4.867,0,5.916,2.7,5.916,4.942,0,4.793-4.493,7.49-7.24,9.337l-1.347.6v.3Z"/><path class="cls-3" d="M536.457,207.081c0,6.291-2.372,8.888-6.366,8.888-4.194,0-6.216-2.921-6.216-8.588,0-5.916,2.372-8.887,6.366-8.887C534.435,198.494,536.457,201.415,536.457,207.081Zm-10.235.175c0,.749.025,1.448.074,2.072l7.315-6.341a3.247,3.247,0,0,0-3.42-2.446C527.146,200.541,526.222,202.888,526.222,207.256Zm7.888-.05c0-.749-.025-1.447-.075-2.071l-7.314,6.339a3.245,3.245,0,0,0,3.42,2.448C533.187,213.922,534.11,212.074,534.11,207.206Z"/><path class="cls-3" d="M552.481,201.04l-5.617,12.632h3.869v2.047H540.7v-2.047h3.644l4.993-10.959,1.074-1.572v-.35h-9.961v-2.047h12.033Z"/><path class="cls-3" d="M560.367,205.184a2.247,2.247,0,1,1,2.247,2.247A2.237,2.237,0,0,1,560.367,205.184Zm0,8.512a2.247,2.247,0,1,1,2.247,2.247A2.237,2.237,0,0,1,560.367,213.7Z"/><path class="cls-3" d="M584.978,210.427c0,3-2.022,5.542-6.84,5.542a12.01,12.01,0,0,1-5.491-1.124l.648-1.948a10.368,10.368,0,0,0,5.043,1.049c3.145,0,4.344-1.323,4.344-3.37,0-1.947-1.448-2.8-4.469-3.345l-4.418-.8.1-7.689h10.534v2.047h-8.288l-.075,3.969,2.946.524C583.031,205.958,584.978,207.281,584.978,210.427Z"/><path class="cls-3" d="M601.527,213.672v2.047H589.245v-2.3c4.368-2.671,9.461-5.392,9.461-9.736,0-1.921-.848-3.145-3.7-3.145-3.095,0-3.919,1.373-3.919,3.72a4.253,4.253,0,0,0,.2,1.522l-2.372-.175a11.767,11.767,0,0,1-.1-1.6c0-3.321,2.172-5.517,6.316-5.517,4.868,0,5.917,2.7,5.917,4.942,0,4.793-4.494,7.49-7.24,9.337l-1.348.6v.3Z"/><path class="cls-3" d="M609.038,205.184a2.247,2.247,0,1,1,2.247,2.247A2.237,2.237,0,0,1,609.038,205.184Zm0,8.512a2.247,2.247,0,1,1,2.247,2.247A2.237,2.237,0,0,1,609.038,213.7Z"/><path class="cls-3" d="M633.65,210.427c0,3-2.022,5.542-6.84,5.542a12.018,12.018,0,0,1-5.492-1.124l.649-1.948a10.368,10.368,0,0,0,5.043,1.049c3.145,0,4.344-1.323,4.344-3.37,0-1.947-1.448-2.8-4.469-3.345l-4.419-.8.1-7.689H633.1v2.047h-8.288l-.075,3.969,2.946.524C631.7,205.958,633.65,207.281,633.65,210.427Z"/><path class="cls-3" d="M650.573,212.224h-2.446v3.5h-2.3v-3.5h-8.538v-2.3l6.166-11.184h2.372l-5.243,9.511-1.173,1.6v.325h6.416V198.744h2.3v11.433h2.446Z"/></g><g id="solo_testo" data-name="solo testo"><path class="cls-2" d="M242.125,50.689c-1.014.078-2.028.131-3.042.131a103.722,103.722,0,0,0-3.406,10.972l-3.017-.65c.521-2.184,1.353-5.876,2.809-10.4-1.067-.078-1.977-.156-2.549-.234l.391-2c.832.052,1.819.1,2.859.13.625-1.794,1.353-3.693,2.159-5.668l3.51,1.065c-.7,1.561-1.326,3.095-1.924,4.629.832-.053,1.69-.1,2.73-.208Z"/><path class="cls-2" d="M255.411,49.884a64.621,64.621,0,0,0-3.8,12.688l-3.3-.519a39.111,39.111,0,0,1,1.2-5.3,51.414,51.414,0,0,1-6.085,5.721l-2-1.119.026-.026-.858-.494c1.2-4.238,2.5-8.216,3.588-12.689l3.3.729c-.807,3.328-1.821,6.682-2.809,9.776,2.393-2.158,4.551-4.42,6.4-6.448q.624-1.6,1.248-3.12Z"/><path class="cls-2" d="M269.243,52.016c0,4.368-1.82,11.154-8.866,10.531l-.183-2.912c4.914.233,5.669-4.447,5.747-8.321-2.34,2.522-4.628,4.966-6.657,7.254-.754,2.861-1.586,6.111-2.6,9.464l-3.2-.7c1.612-5.3,4.134-14.482,5.148-19.084l3.432.624a32.885,32.885,0,0,1-1.585,5.486,55.7,55.7,0,0,1,5.954-6.344l2.626,1.429A15.649,15.649,0,0,1,269.243,52.016Z"/><path class="cls-2" d="M279.8,42.552a127.252,127.252,0,0,0-6.812,19.24l-3.042-.65a122.448,122.448,0,0,1,6.371-19.917Z"/><path class="cls-2" d="M280.578,57.164a11.224,11.224,0,0,0-.053,2.6c.859-.053,2.367-.053,5.773-1.743l-.286,2.262a8.817,8.817,0,0,1-5.018,1.82c-2.549,0-3.978-1.482-3.8-4.472a10.46,10.46,0,0,1,7.437-9.724l4.29,1.274a8.093,8.093,0,0,1,.364,2.314c0,2.782-2.106,4.992-5.928,4.992a18.657,18.657,0,0,1-2.627-.234A6.829,6.829,0,0,0,280.578,57.164Zm.806-2.7a7.021,7.021,0,0,0,1.326.13,3.275,3.275,0,0,0,3.432-3.3,4.67,4.67,0,0,0-.208-1.3A9.715,9.715,0,0,0,281.384,54.46Z"/><path class="cls-2" d="M242.125,103.728c-1.014.079-2.028.131-3.042.131a103.722,103.722,0,0,0-3.406,10.972l-3.017-.649c.521-2.185,1.353-5.877,2.809-10.4-1.067-.078-1.977-.156-2.549-.234l.391-2c.832.052,1.819.1,2.859.13.625-1.794,1.353-3.693,2.159-5.668l3.51,1.065c-.7,1.561-1.326,3.095-1.924,4.629.832-.053,1.69-.1,2.73-.208Z"/><path class="cls-2" d="M255.411,102.923a64.621,64.621,0,0,0-3.8,12.688l-3.3-.519a39.111,39.111,0,0,1,1.2-5.3,51.332,51.332,0,0,1-6.085,5.721l-2-1.118.026-.027-.858-.494c1.2-4.238,2.5-8.216,3.588-12.688l3.3.728c-.807,3.328-1.821,6.682-2.809,9.776,2.393-2.158,4.551-4.419,6.4-6.448q.624-1.6,1.248-3.12Z"/><path class="cls-2" d="M269.243,105.055c0,4.368-1.82,11.154-8.866,10.531l-.183-2.912c4.914.233,5.669-4.447,5.747-8.321-2.34,2.522-4.628,4.966-6.657,7.254-.754,2.861-1.586,6.111-2.6,9.464l-3.2-.7c1.612-5.3,4.134-14.482,5.148-19.084l3.432.624a32.885,32.885,0,0,1-1.585,5.486,55.7,55.7,0,0,1,5.954-6.344l2.626,1.429A15.649,15.649,0,0,1,269.243,105.055Z"/><path class="cls-2" d="M279.8,95.591a127.252,127.252,0,0,0-6.812,19.24l-3.042-.649a122.417,122.417,0,0,1,6.371-19.917Z"/><path class="cls-2" d="M280.578,110.2a11.224,11.224,0,0,0-.053,2.6c.859-.053,2.367-.053,5.773-1.743l-.286,2.262a8.817,8.817,0,0,1-5.018,1.82c-2.549,0-3.978-1.482-3.8-4.472a10.46,10.46,0,0,1,7.437-9.724l4.29,1.274a8.093,8.093,0,0,1,.364,2.314c0,2.782-2.106,4.992-5.928,4.992a18.657,18.657,0,0,1-2.627-.234A6.829,6.829,0,0,0,280.578,110.2Zm.806-2.7a7.021,7.021,0,0,0,1.326.13,3.275,3.275,0,0,0,3.432-3.3,4.67,4.67,0,0,0-.208-1.3A9.715,9.715,0,0,0,281.384,107.5Z"/><path class="cls-2" d="M242.125,154.17c-1.014.078-2.028.131-3.042.131a103.709,103.709,0,0,0-3.406,10.971l-3.017-.649c.521-2.185,1.353-5.877,2.809-10.4-1.067-.079-1.977-.157-2.549-.235l.391-2c.832.052,1.819.1,2.859.13.625-1.794,1.353-3.692,2.159-5.668l3.51,1.066c-.7,1.56-1.326,3.094-1.924,4.628.832-.052,1.69-.1,2.73-.208Z"/><path class="cls-2" d="M255.411,153.364a64.656,64.656,0,0,0-3.8,12.689l-3.3-.52a39.145,39.145,0,0,1,1.2-5.3,51.25,51.25,0,0,1-6.085,5.721l-2-1.118.026-.026-.858-.5c1.2-4.238,2.5-8.215,3.588-12.688l3.3.728c-.807,3.329-1.821,6.682-2.809,9.777,2.393-2.158,4.551-4.42,6.4-6.448q.624-1.6,1.248-3.121Z"/><path class="cls-2" d="M269.243,155.5c0,4.368-1.82,11.154-8.866,10.531l-.183-2.912c4.914.234,5.669-4.446,5.747-8.32-2.34,2.521-4.628,4.966-6.657,7.254-.754,2.86-1.586,6.11-2.6,9.464l-3.2-.7c1.612-5.3,4.134-14.482,5.148-19.084l3.432.624a32.916,32.916,0,0,1-1.585,5.487,55.807,55.807,0,0,1,5.954-6.345l2.626,1.43A15.634,15.634,0,0,1,269.243,155.5Z"/><path class="cls-2" d="M279.8,146.032a127.291,127.291,0,0,0-6.812,19.24l-3.042-.649a122.417,122.417,0,0,1,6.371-19.917Z"/><path class="cls-2" d="M280.578,160.644a11.223,11.223,0,0,0-.053,2.6c.859-.053,2.367-.053,5.773-1.742l-.286,2.262a8.824,8.824,0,0,1-5.018,1.82c-2.549,0-3.978-1.483-3.8-4.473a10.458,10.458,0,0,1,7.437-9.723l4.29,1.273a8.1,8.1,0,0,1,.364,2.314c0,2.783-2.106,4.993-5.928,4.993a18.53,18.53,0,0,1-2.627-.235A6.829,6.829,0,0,0,280.578,160.644Zm.806-2.7a6.938,6.938,0,0,0,1.326.13,3.274,3.274,0,0,0,3.432-3.3,4.657,4.657,0,0,0-.208-1.3A9.708,9.708,0,0,0,281.384,157.94Z"/><path class="cls-2" d="M242.125,204.607c-1.014.078-2.028.131-3.042.131a103.722,103.722,0,0,0-3.406,10.972l-3.017-.65c.521-2.184,1.353-5.877,2.809-10.4-1.067-.078-1.977-.156-2.549-.234l.391-2c.832.051,1.819.1,2.859.13.625-1.794,1.353-3.693,2.159-5.668l3.51,1.065c-.7,1.561-1.326,3.095-1.924,4.629.832-.053,1.69-.105,2.73-.208Z"/><path class="cls-2" d="M255.411,203.8a64.621,64.621,0,0,0-3.8,12.688l-3.3-.519a39.111,39.111,0,0,1,1.2-5.305,51.414,51.414,0,0,1-6.085,5.721l-2-1.119.026-.026-.858-.494c1.2-4.238,2.5-8.216,3.588-12.689l3.3.729c-.807,3.328-1.821,6.682-2.809,9.776,2.393-2.158,4.551-4.42,6.4-6.448q.624-1.6,1.248-3.12Z"/><path class="cls-2" d="M269.243,205.933c0,4.369-1.82,11.155-8.866,10.532l-.183-2.912c4.914.233,5.669-4.447,5.747-8.321-2.34,2.522-4.628,4.966-6.657,7.254-.754,2.861-1.586,6.111-2.6,9.464l-3.2-.7c1.612-5.3,4.134-14.482,5.148-19.084l3.432.624a32.885,32.885,0,0,1-1.585,5.486,55.7,55.7,0,0,1,5.954-6.344l2.626,1.429A15.644,15.644,0,0,1,269.243,205.933Z"/><path class="cls-2" d="M279.8,196.47a127.252,127.252,0,0,0-6.812,19.24l-3.042-.65a122.448,122.448,0,0,1,6.371-19.917Z"/><path class="cls-2" d="M280.578,211.082a11.224,11.224,0,0,0-.053,2.6c.859-.053,2.367-.053,5.773-1.743l-.286,2.262a8.817,8.817,0,0,1-5.018,1.82c-2.549,0-3.978-1.482-3.8-4.472a10.46,10.46,0,0,1,7.437-9.724l4.29,1.273a8.1,8.1,0,0,1,.364,2.315c0,2.782-2.106,4.992-5.928,4.992a18.657,18.657,0,0,1-2.627-.234A6.829,6.829,0,0,0,280.578,211.082Zm.806-2.7a7.021,7.021,0,0,0,1.326.13,3.275,3.275,0,0,0,3.432-3.3,4.67,4.67,0,0,0-.208-1.3A9.715,9.715,0,0,0,281.384,208.378Z"/><path class="cls-1" d="M804.475,21.978a127.046,127.046,0,0,0-6.812,19.241l-3.043-.65a122.652,122.652,0,0,1,6.371-19.917Z"/><path class="cls-1" d="M808.712,28.505a104.72,104.72,0,0,0-4.16,12.74l-3.094-.676a82.9,82.9,0,0,1,3.874-12.948Zm.78-2.418-3.12-.91a54.038,54.038,0,0,1,2.47-6.111l3.2.962C811.442,21.25,810.636,23.1,809.492,26.087Z"/><path class="cls-1" d="M814.744,30.455a3.926,3.926,0,0,0-1.3.182c0,.962.6,1.69,1.4,2.652,1.43,1.768,2.782,3.042,2.782,4.6,0,2.054-3.094,3.952-5.772,3.952a6.709,6.709,0,0,1-4.316-1.456l.91-2.808a10.239,10.239,0,0,0,6.058,1.664c-.182-1.066-1.4-2.185-2.262-3.25-1.456-1.82-1.976-2.757-1.976-3.874,0-1.977,2.756-4.446,5.486-4.446a9.124,9.124,0,0,1,4.03.91l-.884,3.172A8.456,8.456,0,0,0,814.744,30.455Z"/><path class="cls-1" d="M829.8,30.117c-1.014.077-2.028.13-3.042.13a103.956,103.956,0,0,0-3.406,10.972l-3.016-.65c.52-2.184,1.352-5.876,2.808-10.4-1.066-.078-1.976-.156-2.548-.235l.39-2c.832.051,1.82.1,2.86.129.624-1.794,1.352-3.692,2.158-5.668l3.51,1.067c-.7,1.559-1.326,3.094-1.924,4.628.832-.052,1.69-.1,2.73-.208Z"/></g></svg>