<?xml version="1.0" encoding="utf-8"?>
<!-- Generator: Adobe Illustrator 23.0.1, SVG Export Plug-In . SVG Version: 6.00 Build 0)  -->
<svg version="1.1" id="Layer_1" xmlns="http://www.w3.org/2000/svg" xmlns:xlink="http://www.w3.org/1999/xlink" x="0px" y="0px"
	 viewBox="0 0 952 294.1" style="enable-background:new 0 0 952 294.1;" xml:space="preserve">
<style type="text/css">
	.st0{fill:none;}
	.st1{fill:#FF3366;}
	.st2{fill:#1858A8;}
	.st3{fill:#FFEDED;}
</style>
<title>matrix-number</title>
<g id="Livello_1">
	<path class="st0" d="M567.1,14.9L567.1,14.9C567.1,14.9,567.1,14.9,567.1,14.9L567.1,14.9z"/>
</g>
<path class="st1" d="M531.9,58.9c0.9-0.8,1.7-1.7,2.4-2.6c0.2-0.2,0.4-0.4,0.6-0.5c0.4-0.2,0.8-0.6,1.1-1c0.7-0.8,1.3-1.6,2-2.4
	c0.2-0.2,0.4-0.4,0.6-0.6c0.4-0.2,0.8-0.5,1.2-0.9c0.6-0.6,1.2-1.2,1.8-1.9c0.2-0.2,0.4-0.3,0.7-0.5c0.4-0.2,0.9-0.4,1.1-1
	c0-0.1,0.1-0.2,0.2-0.3c0.9-0.8,1.7-1.7,2.4-2.7c0.3-0.4,0.6-0.7,1-0.9c0.8-0.5,1.5-1.2,2.1-1.9c0.2-0.2,0.5-0.4,0.7-0.7
	c1-1,2-2,2.9-3.1c0.1-0.1,0.2-0.3,0.3-0.5c0.1-0.5,0.5-0.8,1-0.9c0.5-0.1,1-0.5,1.1-1.1c0.4-0.6,0.8-1.2,1.2-1.7
	c0.2-0.2,0.3-0.4,0.5-0.6c0.2-0.7,0.7-1.2,1.4-1.4c0.8-0.8,1.8-1.4,2.5-2.3c0.6-0.9,1.4-1.7,2.2-2.3c0.2-0.2,0.3-0.4,0.5-0.6
	c0.2-0.3,0.5-0.6,0.8-0.8c0.5-0.3,0.8-0.7,1-1.2c0.1-0.2,0.2-0.3,0.3-0.5c0.6-0.1,1.1-0.4,1.5-0.9c0.1-0.1,0.2-0.2,0.3-0.3
	c0.7-0.5,1.3-1.2,1.8-1.9c0.4-0.8,1.1-1.5,1.9-2c0.4-0.2,0.6-0.6,1-0.9c0.4-0.3,0.7-0.6,1-0.9c0.1-0.1,0.1-0.2,0.2-0.3
	c0.2-0.9,1-1.3,1.5-1.8c0.5-0.4,0.9-0.9,1.2-1.5c0.3-0.5,0.6-0.9,1-1.2c0.7-0.5,1.3-1.1,1.7-1.9c0.6-0.5,1.2-1.1,1.7-1.8
	c0,0,0-0.1,0.1-0.1c0.5-0.2,1-0.6,1.3-1.1c-0.2,0.1-0.4,0.1-0.5,0.2c-2,0.7-4,0.2-6,0.6c-0.2,0-0.5,0-0.7-0.2
	c-1.1-1-2.3-0.7-3.4-0.5c-1.4,0.2-2.8,0.5-4.2-0.1c-1.3-0.6-2.5-1.3-3.8-0.2c-0.2,0.1-0.5,0-0.7,0c-1.3-0.1-2.7,0-4-0.2
	c-1.3-0.2-2.6,0.7-3.9-0.3c-0.1-0.1-0.3,0-0.5,0.1c-0.9,0.5-2,0.6-3,0.2c-0.6-0.2-1.2,0-1.6,0.4c-0.9,1.3-1.9,0.8-2.9,0.4
	c-1.5-0.6-3.2-0.8-4.9-0.5c-1.1,0.2-2.1,0.3-3.2,0.5c0,0-0.1-0.1-0.1-0.1c-0.2-0.3-0.5-0.5-0.8-0.7c0,0-0.1,0-0.1-0.1
	c-0.1-0.1-0.2-0.3-0.4-0.4c0,0-0.1,0-0.1,0h0c-0.1,0-0.1-0.1-0.1,0c-0.2,0.2-0.4,0-0.6,0c-0.1,0-0.2,0-0.3-0.1
	c-0.1,0-0.1-0.1-0.2-0.1c0,0,0,0-0.1,0c-0.2,0.1-0.3,0-0.4,0.1h-0.1c-0.2-0.1-0.5,0.1-0.6,0.1c-0.1,0-0.1,0.1-0.1,0.1
	c0-0.1-0.1-0.1-0.1-0.2c-0.2,0-0.3,0-0.5,0H534c-0.1,0-0.2,0.1-0.3,0.1l0,0c-0.2,0-0.3,0.1-0.5,0.1c-0.1,0-0.2,0.1-0.3,0
	c-0.3,0-0.5,0-0.8,0H532C531.8,7,531.6,7,531.4,7c-0.1,0-0.3,0-0.4,0c0,0,0,0,0,0c0.7,0.5,0.6,0.9,0.3,1.3c-0.6-0.3-1.2-0.5-1.8-0.5
	c0,0.3,0,0.6-0.1,0.9c0,0.8-0.1,1.7-0.1,2.5c-0.7,1.8-0.7,3.8-0.1,5.7c0,0.2,0.1,0.3,0.1,0.5c0.1,0.8,0.2,1.6,0.2,2.3
	c0,0.2,0,0.4,0,0.7c0.1,2,0.3,4,0.7,6c0.4,1.5,0.7,3.4-0.2,4.9c-0.7,1.3-0.8,2.8-0.2,4.1c0.1,0.5,0.2,1.1,0.3,1.6
	c0.3,3.4,0.3,6.9,0.2,10.3c0,0.9,0,1.8,0,2.7v0.5c-0.1,0.3-0.3,0.5-0.5,0.7c-0.3,0.2-0.4,0.6-0.3,1c0.3,1.2,0.6,2.4,0.9,3.6
	c0,1.1,0,2.1-0.1,3.1c0,0.1-0.1,0.1-0.1,0.2c-0.3,0.4-0.6,0.9,0,1.3c0,0.1,0,0.2,0,0.2c0.2-0.2,0.4-0.4,0.6-0.6
	C531.3,59.8,531.5,59.2,531.9,58.9z M571.2,14.9L571.2,14.9C571.2,14.9,571.2,14.9,571.2,14.9L571.2,14.9z"/>
<path class="st2" d="M582.1,51.4c-0.4-1.7-0.5-3.6,0-5.3c0.6-2.3,0.1-4.7,0.4-7c-0.4-1.1-0.4-2.4,0-3.5c0.1-0.3,0-0.7-0.1-1
	c-0.3-1.3-0.3-2.7-0.2-4c0.1-3.1,1-6.2-0.2-9.2c0-0.2,0-0.4,0-0.7c0.1-2,0-4-0.1-6c-0.1-1.4,0-2.8,0-4.2c0.1-1,0.1-2,0.1-3
	c-0.1,0-0.1,0-0.2,0.1c-0.3,0.5-0.8,0.9-1.3,1.1c0,0-0.1,0-0.1,0.1c-0.5,0.6-1.1,1.2-1.7,1.8c-0.5,0.7-1.1,1.3-1.7,1.9
	c-0.4,0.3-0.7,0.8-1,1.2c-0.3,0.6-0.7,1.1-1.2,1.5c-0.6,0.5-1.3,1-1.5,1.8c0,0.1-0.1,0.2-0.2,0.3c-0.3,0.4-0.6,0.7-1,0.9
	c-0.5,0.2-0.7,0.7-1,0.9c-0.8,0.5-1.5,1.2-1.9,2c-0.5,0.7-1.1,1.4-1.8,1.9c-0.1,0.1-0.2,0.2-0.3,0.3c-0.3,0.5-0.9,0.8-1.5,0.9
	c-0.1,0.2-0.2,0.4-0.3,0.5c-0.2,0.5-0.6,0.9-1,1.2c-0.3,0.2-0.6,0.5-0.8,0.8c-0.1,0.2-0.3,0.4-0.5,0.6c-0.9,0.6-1.6,1.4-2.2,2.3
	c-0.7,0.9-1.7,1.5-2.5,2.3c-0.6,0.2-1.2,0.7-1.4,1.4c-0.1,0.2-0.3,0.4-0.5,0.6c-0.5,0.5-0.9,1.1-1.2,1.7c-0.2,0.5-0.6,0.9-1.1,1.1
	c-0.5,0.1-0.9,0.4-1,0.9c-0.1,0.2-0.2,0.3-0.3,0.5c-0.9,1.1-1.9,2.1-2.9,3.1c-0.2,0.2-0.5,0.4-0.7,0.7c-0.6,0.7-1.3,1.4-2.2,1.9
	c-0.4,0.3-0.7,0.6-1,0.9c-0.7,1-1.5,1.9-2.4,2.7c-0.1,0.1-0.2,0.2-0.2,0.3c-0.2,0.5-0.6,0.7-1.1,1c-0.3,0.1-0.5,0.3-0.7,0.5
	c-0.5,0.7-1.1,1.3-1.8,1.9c-0.4,0.3-0.7,0.7-1.2,0.9c-0.2,0.1-0.5,0.3-0.6,0.6c-0.7,0.8-1.3,1.6-2,2.4c-0.3,0.4-0.7,0.7-1.1,1
	c-0.2,0.1-0.5,0.3-0.6,0.5c-0.7,0.9-1.5,1.8-2.4,2.6c-0.4,0.3-0.6,0.9-1,1.3c-0.2,0.2-0.4,0.4-0.6,0.6c-0.1,0.5-0.1,1.1-0.2,1.6
	c0.3-0.1,0.6-0.1,0.9-0.1c0,0.2,0,0.4,0.2,0.6c0.2-0.1,0.4-0.2,0.6-0.2v-0.1h0.1l0.4,0l0.7,0c0.1,0,0.1,0,0.2,0
	c0.3,0.1,0.7,0.1,1.1,0.1c0.3,0,0.7-0.1,1-0.2c0,0,0.1,0,0.1,0c2.5-1.1,5.1,0.3,7.6-0.5c0.1,0,0.3,0,0.4,0.1
	c0.1,0.1,0.2,0.1,0.3,0.2c0.9,0.7,2.2,0.8,3.2,0.1c0.5-0.2,1-0.3,1.6-0.2c2.7,0.4,5.4,1,8.1-0.1c0.2-0.1,0.5-0.1,0.7,0
	c2.4,0.7,4.8-0.1,7.2,0.1c2.1,0.2,4.2,0.6,6.3-0.1c0.3-0.1,0.6,0.1,0.9,0.1c0.9,0.1,1.9,0.1,2.8,0c2.5-0.5,5-0.5,7.5-0.1
	c-0.1-1-0.1-1.9-0.2-2.9c-0.2-1,0-2,0.5-2.8c0.6-0.9,0.7-2.1,0.4-3.2C582.4,52.5,582.3,51.9,582.1,51.4z"/>
<path class="st0" d="M361.8,226.2L361.8,226.2C361.8,226.2,361.8,226.2,361.8,226.2L361.8,226.2z"/>
<path class="st1" d="M357.6,235.5c0.8-0.7,1.4-1.6,2.2-2.3c0.1,0,0.1-0.1,0.2-0.1c0.3-1,1.3-1.5,2-2.1c0.3-0.2,0.6-0.6,0.8-0.9
	c0-0.1,0.1-0.2,0.2-0.2c0.4-0.1,0.7-0.4,0.8-0.8c0.6-0.4,1-1.1,1.7-1.5c0.5-0.3,0.9-0.7,1.2-1.2c0.1-0.2,0.2-0.3,0.3-0.5
	c0.2-0.3,0.5-0.5,0.8-0.6c0.3,0,0.6-0.2,0.8-0.5c0.8-0.9,1.6-1.9,2.3-2.8c0.4-0.6,0.8-1.1,1.2-1.7c0.5-0.9,1.3-1.5,2.3-1.9
	c0.3-0.1,0.5-0.3,0.7-0.6c0.6-0.7,1-1.6,1.4-2.5c0.2-0.1,0.4-0.1,0.7-0.2c0.7,0,1.4-0.5,1.6-1.1c0-0.1,0.1-0.1,0.1-0.1
	c0.5-0.2,0.8-0.7,1.1-1.1c0.5-0.7,1.1-1.2,1.8-1.7c0.7-0.4,1.2-1.1,1.4-2c0.2-0.6,0.5-1.2,1-1.6c0.4-0.1,0.7-0.1,1.1-0.2
	c1-0.3,1.9-1,2.4-1.9c0.2-0.3,0.5-0.6,0.7-0.9c0.6-0.6,1.1-1.2,1.6-1.9c0.3-0.4,0.6-0.8,1-1.1c0.4-0.3,0.8-0.6,1.1-1
	c0.7-1,1.6-1.8,2.5-2.7c0.4-0.4,0.9-0.6,1.2-1c0.3-0.4,0.5-0.9,0.9-1.2c0.6-0.7,1.3-1.2,2.2-1.5c0.2-0.1,0.4-0.2,0.6-0.4
	c0.5-0.6,1-1.1,1.6-1.6c0.4-0.4,0.8-0.8,1.1-1.3c0.1-0.2,0.2-0.3,0.3-0.5c0.3-0.6,1-0.9,1.3-1.5s1-0.9,1.5-1.4
	c0.6-0.6,1.2-1.1,1.8-1.6c0.2-0.1,0.3-0.3,0.5-0.4c0,0,0,0,0.1-0.1c-0.4-0.4-0.8-0.2-1.2,0.1c-0.1,0-0.1,0.1-0.2,0.1
	c-1,0.1-2.1,0.1-3.1,0.1c-1.2-0.3-2.4-0.6-3.6-0.9c-0.3-0.1-0.7,0-1,0.3c-0.2,0.2-0.4,0.4-0.7,0.5H397c-0.9,0-1.8,0-2.7,0
	c-3.5,0.1-6.9,0.1-10.3-0.2c-0.6,0-1.1-0.1-1.6-0.3c-1.3-0.5-2.8-0.4-4.1,0.2c-1.5,0.8-3.3,0.5-4.9,0.2c-2-0.4-4-0.6-6-0.7l-0.7,0
	c-0.8,0-1.6-0.1-2.3-0.2c-0.2,0-0.3-0.1-0.5-0.1c-1.8-0.6-3.8-0.6-5.6,0.1c-0.8,0-1.7,0-2.5,0.1c-0.3,0-0.6,0-0.9,0.1
	c0,0.6,0.2,1.3,0.5,1.8c-0.4,0.3-0.9,0.3-1.3-0.3c0,0,0,0,0,0c0,0.1,0,0.2,0,0.4c0,0.2,0,0.4-0.1,0.6v0.2c0,0.3,0,0.5,0,0.8
	c0,0.1,0,0.2,0,0.3c-0.1,0.2-0.1,0.3-0.1,0.5l0,0c0,0.1-0.1,0.2-0.1,0.3v0.2c0,0.1,0.1,0.3,0,0.5c0.1,0,0.2,0.1,0.2,0.1
	c0,0.1-0.1,0.1-0.1,0.1c-0.1,0.2-0.2,0.4-0.1,0.6v0.1c-0.1,0.1-0.1,0.3-0.1,0.4c0,0,0,0,0,0.1c0,0.1,0,0.2,0,0.2
	c0.1,0.1,0.1,0.2,0.1,0.3c0,0.2,0.2,0.4,0,0.6c-0.1,0.1,0,0.1,0,0.1v0c0,0,0,0.1,0,0.1c0.1,0.1,0.2,0.3,0.4,0.4c0,0,0,0,0.1,0.1
	c0.2,0.3,0.4,0.6,0.7,0.8c0,0,0.1,0.1,0.1,0.1c-0.1,1.1-0.3,2.1-0.5,3.2c-0.3,1.6-0.2,3.3,0.5,4.9c0.4,1,0.8,1.9-0.4,2.9
	c-0.4,0.4-0.6,1-0.4,1.6c0.4,1,0.3,2.1-0.2,3c-0.1,0.1-0.2,0.3-0.1,0.4c1,1.3,0.1,2.6,0.3,3.9c0.2,1.3,0.2,2.6,0.2,4
	c0,0.2,0.1,0.5,0,0.7c-1.1,1.3-0.4,2.6,0.2,3.8c0.7,1.4,0.3,2.8,0.1,4.2c-0.1,1.2-0.5,2.3,0.5,3.4c0.2,0.2,0.2,0.4,0.2,0.7
	c-0.5,2,0,4-0.6,6c-0.1,0.2-0.2,0.5-0.2,0.7c0.5,0,1,0,1.4,0C356.4,236.5,357,236,357.6,235.5z M361.8,226.2L361.8,226.2
	C361.8,226.2,361.8,226.2,361.8,226.2L361.8,226.2z"/>
<path class="st2" d="M409.4,187.2l0-0.4v-0.1h0.1c0-0.2,0-0.4,0.2-0.6c-0.2-0.1-0.4-0.2-0.6-0.1c0-0.3,0-0.6,0.1-0.9
	c-0.6,0.1-1.2,0.2-1.8,0.2c0-0.1-0.1-0.1-0.1-0.1c0,0,0,0-0.1,0.1c-0.2,0.1-0.3,0.3-0.5,0.4c-0.6,0.5-1.2,1.1-1.8,1.6
	c-0.5,0.5-1.2,0.8-1.5,1.4s-1,1-1.3,1.5c-0.1,0.2-0.2,0.3-0.3,0.5c-0.3,0.5-0.6,1-1.1,1.3c-0.6,0.5-1.1,1-1.6,1.6
	c-0.1,0.2-0.3,0.3-0.6,0.4c-0.8,0.3-1.6,0.8-2.2,1.5c-0.3,0.4-0.5,0.9-0.9,1.2c-0.4,0.4-0.8,0.6-1.2,1c-0.9,0.8-1.7,1.7-2.5,2.7
	c-0.3,0.4-0.7,0.8-1.1,1c-0.4,0.3-0.7,0.7-1,1.1c-0.5,0.7-1,1.3-1.6,1.9c-0.3,0.3-0.5,0.6-0.7,0.9c-0.5,0.9-1.4,1.6-2.4,1.9
	c-0.3,0.1-0.7,0.1-1.1,0.2c-0.5,0.4-0.8,1-1,1.6c-0.2,0.8-0.7,1.5-1.4,2c-0.7,0.5-1.3,1.1-1.8,1.7c-0.3,0.4-0.6,0.9-1.1,1.1
	c-0.1,0-0.1,0.1-0.1,0.1c-0.3,0.7-0.9,1.1-1.6,1.1c-0.2,0-0.5,0.1-0.7,0.2c-0.3,0.9-0.8,1.7-1.4,2.5c-0.2,0.2-0.5,0.4-0.7,0.6
	c-0.9,0.3-1.7,1-2.3,1.9c-0.4,0.6-0.8,1.2-1.2,1.7c-0.8,1-1.5,1.9-2.3,2.8c-0.2,0.3-0.5,0.5-0.8,0.5c-0.4,0-0.7,0.2-0.8,0.6
	c-0.1,0.2-0.2,0.3-0.3,0.5c-0.3,0.5-0.7,0.9-1.2,1.2c-0.7,0.3-1.1,1-1.7,1.5c-0.1,0.4-0.4,0.7-0.8,0.8c-0.1,0.1-0.2,0.1-0.2,0.2
	c-0.2,0.4-0.5,0.7-0.8,0.9c-0.7,0.7-1.7,1.1-2,2.1c0,0.1-0.1,0.1-0.2,0.1c-0.8,0.7-1.4,1.6-2.2,2.3c-0.6,0.5-1.1,1.1-1.6,1.6
	c0.5,0,1.1,0,1.6,0c3.4-0.3,6.7,0.2,10.1,0.1c0.2,0,0.4-0.1,0.7,0c3,1.2,6.1,0.3,9.2,0.2c1.3-0.2,2.7-0.1,4,0.2
	c0.3,0.1,0.6,0.1,1,0.1c1.1-0.4,2.4-0.5,3.5,0c2.3-0.3,4.7,0.1,7-0.4c1.7-0.4,3.6-0.4,5.3,0c0.5,0.1,1.1,0.3,1.6,0.4
	c0.8,0.1,1.5,0.1,2.3,0c0.3-0.1,0.6-0.2,0.8-0.4c0.8-0.5,1.8-0.7,2.8-0.5c1,0.1,1.9,0.1,2.9,0.2c-0.4-1.9-0.4-3.9-0.1-5.8
	c0.1-0.6,0.1-1.1,0.2-1.7c0.1-0.9,0.1-1.9,0-2.8c0-0.3-0.2-0.6-0.1-0.9c0.7-2.1,0.3-4.2,0.1-6.3c-0.2-2.4,0.5-4.8-0.1-7.2
	c-0.1-0.2-0.1-0.5,0-0.7c1.1-2.7,0.5-5.4,0.1-8.1c-0.1-0.5,0-1.1,0.2-1.6c0.6-1,0.6-2.3-0.1-3.2c-0.1-0.1-0.1-0.2-0.2-0.3
	c-0.1-0.1-0.1-0.2-0.1-0.4c0.8-2.5-0.5-5,0.5-7.6c0,0,0-0.1,0-0.1c0.3-0.6,0.3-1.4,0.2-2c0,0,0-0.1,0-0.2L409.4,187.2z"/>
<path class="st0" d="M424.5,191.3L424.5,191.3C424.5,191.3,424.5,191.3,424.5,191.3L424.5,191.3z"/>
<path class="st1" d="M415.1,237.5c0.1-0.4,0.3-0.7,0.6-1c0.7-0.7,1.5-1.3,2.2-2c0.2-0.3,0.5-0.6,0.7-0.9l0.7-0.2
	c0.3-0.7,0.9-1.3,1.5-1.7c0.2-0.1,0.3-0.2,0.4-0.3c0.6-0.6,1.2-1.3,1.8-1.8c0.8-0.7,1.4-1.6,2.2-2.3c0.1,0,0.1-0.1,0.2-0.1
	c0.3-1,1.3-1.5,2-2.2c0.3-0.3,0.6-0.6,0.8-1c0-0.1,0.1-0.2,0.2-0.2c0.4-0.1,0.7-0.4,0.8-0.8c0.6-0.4,1-1.1,1.7-1.5
	c0.5-0.3,0.9-0.7,1.2-1.2c0.1-0.2,0.2-0.3,0.2-0.5c0.2-0.3,0.5-0.6,0.8-0.6c0.3,0,0.6-0.2,0.8-0.5c0.8-1,1.5-1.9,2.3-2.9
	c0.4-0.6,0.8-1.2,1.2-1.7c0.5-0.9,1.3-1.5,2.2-1.9c0.3-0.1,0.5-0.3,0.7-0.6c0.6-0.8,1-1.6,1.3-2.5c0.2-0.1,0.4-0.2,0.7-0.2
	c0.7,0,1.3-0.5,1.6-1.2c0-0.1,0.1-0.1,0.1-0.1c0.5-0.2,0.8-0.7,1.1-1.1c0.5-0.7,1.1-1.3,1.7-1.7c0.7-0.5,1.2-1.2,1.4-2
	c0.2-0.6,0.5-1.2,1-1.6c0.4-0.1,0.7-0.1,1-0.2c1-0.3,1.8-1,2.3-1.9c0.2-0.3,0.5-0.6,0.7-0.9c0.6-0.6,1.1-1.2,1.6-1.9
	c0.3-0.4,0.6-0.8,1-1.1c0.4-0.3,0.8-0.7,1.1-1.1c0.7-1,1.6-1.9,2.4-2.7c0.4-0.4,0.9-0.6,1.2-1c0.3-0.4,0.5-0.9,0.8-1.2
	c0.5-0.7,1.3-1.2,2.1-1.5c0.2-0.1,0.4-0.2,0.6-0.4c0.5-0.6,1-1.1,1.6-1.6c0.2-0.1,0.3-0.3,0.4-0.4v-0.1c0-0.3,0-0.6-0.1-0.9
	c-0.6,0-1.3,0.2-1.8,0.5c-0.3-0.4-0.3-0.9,0.3-1.3c0,0,0,0,0,0c-0.1,0-0.2,0-0.4,0c-0.2,0-0.4,0-0.6-0.1h-0.2c-0.3,0-0.5,0-0.8,0
	c-0.1,0.1-0.2,0-0.3,0c-0.2-0.1-0.3-0.1-0.5-0.1l0,0c-0.1,0-0.2-0.1-0.3-0.1h-0.2c-0.1,0-0.3,0.1-0.5,0c0,0.1-0.1,0.2-0.1,0.2
	c-0.1,0-0.1-0.1-0.1-0.1c-0.2-0.1-0.4-0.2-0.6-0.1h-0.1c-0.1-0.1-0.3-0.1-0.4-0.1c0,0,0,0-0.1,0c-0.1,0-0.2,0-0.2,0
	c-0.1,0.1-0.2,0.1-0.3,0.1c-0.2,0-0.4,0.2-0.6,0c-0.1-0.1-0.1,0-0.1,0h0c0,0-0.1,0-0.1,0c-0.1,0.1-0.3,0.2-0.4,0.4c0,0,0,0-0.1,0.1
	c-0.3,0.2-0.6,0.4-0.8,0.7c0,0-0.1,0.1-0.1,0.1c-1.1-0.1-2.1-0.3-3.2-0.5c-1.6-0.3-3.3-0.2-4.9,0.5c-1,0.4-1.9,0.8-2.9-0.4
	c-0.4-0.4-1-0.6-1.6-0.4c-1,0.4-2.1,0.3-3-0.2c-0.1-0.1-0.3-0.2-0.4-0.1c-1.3,1-2.6,0.1-3.9,0.3c-1.3,0.2-2.6,0.2-4,0.2
	c-0.2,0-0.5,0.1-0.7,0c-1.3-1.1-2.6-0.4-3.8,0.2c-1.4,0.7-2.8,0.3-4.2,0.1c-1.2-0.1-2.3-0.5-3.4,0.5c-0.2,0.2-0.4,0.2-0.7,0.2
	c-2-0.5-4,0-6-0.6c-0.2-0.1-0.5-0.2-0.7-0.2c0,1,0,2,0.1,3c0.3,3.4-0.2,6.7-0.1,10.1c0,0.2,0.1,0.4,0,0.7c-1.2,3-0.3,6.1-0.2,9.2
	c0.2,1.3,0.1,2.7-0.1,4c-0.1,0.3-0.1,0.6-0.1,1c0.4,1.1,0.4,2.4,0,3.5c0.3,2.3-0.1,4.7,0.4,7c0.4,1.7,0.4,3.6,0,5.3
	c-0.1,0.5-0.3,1.1-0.4,1.6c-0.3,1.1-0.1,2.2,0.4,3.2c0.5,0.8,0.7,1.8,0.5,2.8c-0.1,1-0.1,1.9-0.2,2.9c0.2,0,0.4-0.1,0.7-0.1
	c0.1-0.1,0.1-0.1,0.2-0.2C415,237.8,415.1,237.7,415.1,237.5z M424.5,191.3L424.5,191.3C424.5,191.3,424.5,191.3,424.5,191.3
	L424.5,191.3z"/>
<path class="st2" d="M466.3,187.6c0-0.8,0-1.6-0.1-2.4c-0.1,0.2-0.3,0.3-0.4,0.4c-0.6,0.5-1.1,1-1.6,1.6c-0.1,0.2-0.3,0.4-0.6,0.4
	c-0.8,0.3-1.6,0.8-2.1,1.5c-0.3,0.4-0.5,0.9-0.8,1.2c-0.4,0.4-0.8,0.6-1.2,1c-0.9,0.8-1.7,1.7-2.4,2.7c-0.3,0.4-0.7,0.8-1.1,1.1
	c-0.4,0.3-0.7,0.7-1,1.1c-0.5,0.7-1,1.3-1.6,1.9c-0.3,0.3-0.5,0.6-0.7,0.9c-0.5,0.9-1.3,1.6-2.3,1.9c-0.3,0.1-0.7,0.1-1,0.2
	c-0.5,0.4-0.8,1-1,1.6c-0.2,0.8-0.7,1.5-1.4,2c-0.7,0.5-1.3,1.1-1.7,1.7c-0.3,0.4-0.6,0.9-1.1,1.1c-0.1,0-0.1,0.1-0.1,0.1
	c-0.3,0.7-0.9,1.1-1.6,1.2c-0.2,0.1-0.5,0.1-0.7,0.2c-0.3,0.9-0.8,1.7-1.3,2.5c-0.2,0.2-0.5,0.4-0.7,0.6c-0.9,0.4-1.7,1-2.2,1.9
	c-0.4,0.6-0.8,1.2-1.2,1.7c-0.7,1-1.5,1.9-2.3,2.9c-0.2,0.3-0.5,0.5-0.8,0.5c-0.4,0-0.7,0.3-0.8,0.6c-0.1,0.2-0.2,0.3-0.2,0.5
	c-0.2,0.5-0.6,1-1.2,1.2c-0.7,0.4-1.1,1.1-1.7,1.5c-0.1,0.4-0.4,0.7-0.8,0.8c-0.1,0.1-0.2,0.1-0.2,0.2c-0.2,0.4-0.5,0.7-0.8,1
	c-0.7,0.7-1.7,1.1-2,2.2c0,0.1-0.1,0.1-0.2,0.1c-0.8,0.7-1.4,1.6-2.2,2.3c-0.6,0.6-1.2,1.2-1.8,1.8c-0.1,0.1-0.3,0.2-0.4,0.3
	c-0.7,0.4-1.2,1-1.5,1.7l-0.7,0.2c-0.2,0.3-0.4,0.6-0.7,0.9c-0.7,0.7-1.5,1.3-2.2,2c-0.3,0.2-0.5,0.6-0.6,1c0,0.2-0.1,0.3-0.2,0.5
	c-0.1,0.1-0.1,0.1-0.2,0.2c2.3-0.3,4.5-0.2,6.8,0.2c0.9,0.1,1.9,0.1,2.8,0c0.3,0,0.6-0.2,0.9-0.1c2.1,0.7,4.2,0.3,6.3,0.1
	c2.4-0.2,4.8,0.5,7.2-0.1c0.2-0.1,0.5-0.1,0.7,0c2.7,1.1,5.4,0.5,8.1,0.1c0.5-0.1,1.1,0,1.6,0.2c1,0.6,2.3,0.6,3.2-0.1
	c0.1-0.1,0.2-0.1,0.3-0.2c0.1-0.1,0.2-0.1,0.4-0.1c2.4,0.8,4.9-0.5,7.4,0.5c0.1,0,0.1,0,0.2,0.1c0,0,0.1,0,0.1,0
	c0.6,0.3,1.4,0.3,2,0.2c0,0,0.1,0,0.2,0l0.7,0l0.4,0h0.1v0.1c0.2,0,0.4,0,0.6,0.2c0.1-0.2,0.2-0.4,0.2-0.6c0.3,0,0.6,0,0.9,0.1
	c-0.1-0.6-0.2-1.2-0.2-1.8c0.6-0.4,0.3-0.8,0-1.3c0-0.1-0.1-0.1-0.1-0.2c0-0.6,0-1.2-0.1-1.8c0-0.5-0.1-0.9,0-1.4
	c0.3-1.2,0.6-2.4,0.9-3.6c0.1-0.3,0-0.7-0.3-1c-0.2-0.2-0.4-0.4-0.5-0.7v-0.5c0-0.9,0-1.8,0-2.7c-0.1-3.5-0.1-6.9,0.2-10.3
	c0-0.6,0.1-1.1,0.3-1.6c0.5-1.3,0.4-2.8-0.2-4.1c-0.8-1.5-0.5-3.3-0.2-4.9c0.4-2,0.6-4,0.7-6c0-0.2,0-0.4,0-0.7
	c0-0.8,0.1-1.6,0.2-2.3c0-0.2,0.1-0.3,0.1-0.5C467,191.4,467,189.4,466.3,187.6z"/>
<path class="st1" d="M473.3,234.2c0.3-0.3,0.5-0.6,0.7-0.9l0.7-0.2c0.3-0.7,0.9-1.3,1.6-1.7c0.2-0.1,0.3-0.2,0.4-0.3
	c0.6-0.6,1.2-1.2,1.8-1.8c0.8-0.7,1.5-1.6,2.2-2.3c0.1,0,0.1-0.1,0.2-0.1c0.3-1,1.3-1.5,2-2.1c0.3-0.2,0.6-0.6,0.8-0.9
	c0-0.1,0.1-0.2,0.2-0.2c0.4-0.1,0.7-0.4,0.8-0.8c0.6-0.4,1-1.1,1.7-1.5c0.5-0.3,0.9-0.7,1.2-1.2c0.1-0.2,0.2-0.3,0.3-0.5
	c0.2-0.3,0.5-0.5,0.8-0.6c0.3,0,0.6-0.2,0.8-0.5c0.8-0.9,1.6-1.9,2.3-2.8c0.4-0.6,0.8-1.1,1.2-1.7c0.5-0.9,1.3-1.5,2.3-1.9
	c0.3-0.1,0.5-0.3,0.8-0.6c0.6-0.7,1-1.6,1.4-2.5c0.2-0.1,0.4-0.1,0.7-0.2c0.7,0,1.4-0.5,1.6-1.1c0-0.1,0.1-0.1,0.1-0.1
	c0.5-0.2,0.8-0.7,1.1-1.1c0.5-0.7,1.1-1.2,1.8-1.7c0.7-0.4,1.2-1.1,1.4-2c0.2-0.6,0.5-1.2,1-1.6c0.4-0.1,0.7-0.1,1.1-0.2
	c1-0.3,1.9-0.9,2.4-1.9c0.2-0.3,0.5-0.6,0.7-0.9c0.6-0.6,1.1-1.2,1.6-1.9c0.3-0.4,0.6-0.8,1-1.1c0.4-0.3,0.8-0.6,1.1-1
	c0.8-1,1.6-1.8,2.5-2.7c0.4-0.4,0.9-0.6,1.2-1c0.3-0.4,0.5-0.9,0.9-1.2c0.6-0.7,1.3-1.2,2.2-1.5c0.2-0.1,0.4-0.2,0.6-0.4
	c0.5-0.6,1-1.1,1.6-1.6c0.3-0.3,0.6-0.6,0.9-1c-0.3,0-0.7,0-1,0c-3.4,0.3-6.7-0.2-10.1-0.1c-0.2,0-0.4,0.1-0.7,0
	c-3-1.2-6.1-0.3-9.2-0.2c-1.3,0.2-2.7,0.1-4-0.2c-0.3-0.1-0.6-0.1-1-0.1c-1.1,0.4-2.4,0.4-3.5,0c-2.3,0.3-4.7-0.1-7,0.4
	c-1.7,0.4-3.6,0.4-5.3,0c-0.5-0.1-1.1-0.3-1.6-0.4c-1.1-0.3-2.2-0.1-3.2,0.4c-0.8,0.5-1.8,0.7-2.8,0.5c-1-0.1-1.9-0.1-2.9-0.2
	c0.4,2.5,0.4,5-0.1,7.5c-0.1,0.9-0.1,1.9,0,2.8c0,0.3,0.2,0.6,0.1,0.9c-0.7,2.1-0.3,4.2-0.1,6.3c0.2,2.4-0.5,4.8,0.1,7.2
	c0.1,0.2,0.1,0.5,0,0.7c-1.1,2.7-0.5,5.4-0.1,8.1c0.1,0.5,0,1.1-0.2,1.6c-0.6,1-0.6,2.3,0.1,3.2c0.1,0.1,0.1,0.2,0.2,0.3
	c0.1,0.1,0.1,0.2,0.1,0.4c-0.8,2.5,0.5,5-0.5,7.6c0,0,0,0.1,0,0.1c-0.3,0.6-0.3,1.4-0.2,2c0,0,0,0.1,0,0.2l0,0.7l0,0.4v0.1h-0.1
	c0,0.2,0,0.4-0.2,0.6c0.2,0.1,0.4,0.2,0.6,0.1c0,0.3,0,0.6-0.1,0.9c0.2,0,0.3,0,0.5-0.1c0.1-0.3,0.3-0.5,0.5-0.7
	C471.8,235.5,472.6,234.9,473.3,234.2z"/>
<path class="st2" d="M517.5,195.9L517.5,195.9C517.5,195.9,517.5,195.9,517.5,195.9L517.5,195.9z"/>
<path class="st2" d="M525.4,232.4c0-0.1,0.1-0.1,0.1-0.1c0.1-0.2,0.2-0.4,0.1-0.6v-0.1c0.1-0.1,0.1-0.3,0.1-0.4c0,0,0,0,0-0.1
	c0-0.1,0-0.2,0-0.2c-0.1-0.1-0.1-0.2-0.1-0.3c0-0.2-0.2-0.4,0-0.6c0.1-0.1,0-0.1,0-0.1v0c0,0,0-0.1,0-0.1c-0.1-0.1-0.2-0.2-0.2-0.2
	c0-0.1-0.1-0.1-0.2-0.2c0,0,0,0-0.1-0.1c-0.2-0.3-0.4-0.6-0.7-0.8c0,0-0.1-0.1-0.1-0.1c0.1-1.1,0.3-2.1,0.5-3.2
	c0.3-1.6,0.2-3.3-0.5-4.9c-0.4-1-0.8-1.9,0.4-2.9c0.4-0.4,0.6-1,0.4-1.6c-0.4-1-0.3-2.1,0.2-3c0.1-0.1,0.2-0.3,0.1-0.4
	c-1-1.3-0.1-2.6-0.3-3.9c-0.2-1.3-0.2-2.6-0.2-4c0-0.2-0.1-0.5,0-0.7c1.1-1.3,0.4-2.6-0.2-3.8c-0.7-1.4-0.3-2.8-0.1-4.2
	c0.1-1.2,0.5-2.3-0.5-3.4c-0.2-0.2-0.2-0.4-0.2-0.7c0.5-2,0-4,0.6-6c0.1-0.2,0.2-0.5,0.2-0.7c-0.7,0-1.4,0-2,0.1
	c-0.2,0.4-0.5,0.7-0.9,1c-0.6,0.5-1.1,1-1.6,1.6c-0.1,0.2-0.3,0.3-0.6,0.4c-0.9,0.3-1.6,0.8-2.2,1.5c-0.3,0.4-0.5,0.9-0.9,1.2
	c-0.4,0.4-0.8,0.6-1.2,1c-0.9,0.8-1.7,1.7-2.5,2.7c-0.3,0.4-0.7,0.8-1.1,1c-0.4,0.3-0.7,0.7-1,1.1c-0.5,0.7-1,1.3-1.6,1.9
	c-0.3,0.3-0.5,0.6-0.7,0.9c-0.5,0.9-1.4,1.6-2.4,1.9c-0.3,0.1-0.7,0.1-1.1,0.2c-0.5,0.4-0.8,1-1,1.6c-0.2,0.8-0.7,1.5-1.4,2
	c-0.7,0.5-1.3,1.1-1.8,1.7c-0.3,0.4-0.6,0.9-1.1,1.1c-0.1,0-0.1,0.1-0.1,0.1c-0.3,0.7-0.9,1.1-1.6,1.1c-0.2,0-0.5,0.1-0.7,0.2
	c-0.3,0.9-0.8,1.7-1.4,2.5c-0.2,0.2-0.5,0.4-0.8,0.6c-0.9,0.3-1.7,1-2.3,1.9c-0.4,0.6-0.8,1.2-1.2,1.7c-0.8,1-1.6,1.9-2.3,2.8
	c-0.2,0.3-0.5,0.5-0.8,0.5c-0.4,0-0.7,0.2-0.8,0.6c-0.1,0.2-0.2,0.3-0.3,0.5c-0.3,0.5-0.7,0.9-1.2,1.2c-0.7,0.3-1.1,1-1.7,1.5
	c-0.1,0.4-0.4,0.7-0.8,0.8c-0.1,0.1-0.2,0.1-0.2,0.2c-0.2,0.4-0.5,0.7-0.8,0.9c-0.7,0.7-1.7,1.1-2,2.1c0,0.1-0.1,0.1-0.2,0.1
	c-0.8,0.7-1.4,1.6-2.2,2.3c-0.6,0.6-1.2,1.2-1.8,1.8c-0.1,0.1-0.3,0.2-0.4,0.3c-0.7,0.4-1.3,1-1.6,1.7l-0.7,0.2
	c-0.2,0.3-0.4,0.6-0.7,0.9c-0.7,0.7-1.5,1.3-2.3,2c-0.2,0.2-0.4,0.4-0.5,0.7c0.5-0.1,0.9-0.1,1.4-0.2c0.4,0.6,0.8,0.3,1.3,0
	c0.1,0,0.1-0.1,0.2-0.1c1-0.1,2.1-0.1,3.1-0.1c1.2,0.3,2.4,0.6,3.6,0.9c0.3,0.1,0.7,0,1-0.3c0.2-0.2,0.4-0.4,0.7-0.5h0.5
	c0.9,0,1.8,0,2.7,0c3.5-0.1,6.9-0.1,10.3,0.2c0.6,0,1.1,0.1,1.6,0.3c1.3,0.5,2.8,0.4,4.1-0.2c1.5-0.8,3.3-0.5,4.9-0.2
	c2,0.4,4,0.6,6,0.7c0.2,0,0.4,0,0.7,0.1c0.8,0,1.6,0.1,2.3,0.2c0.2,0,0.3,0.1,0.5,0.1c0.4,0.1,0.8,0.2,1.1,0.2
	c1.5,0.4,3.1,0.2,4.5-0.4c0.8,0,1.7,0,2.5-0.1c0.3,0,0.6,0,0.9-0.1c0-0.6-0.2-1.3-0.5-1.8c0.4-0.3,0.9-0.3,1.3,0.3c0,0,0,0,0,0
	c0-0.1,0-0.2,0-0.4c0-0.2,0-0.4,0.1-0.6v-0.2c0-0.3,0-0.5,0-0.8c0-0.1,0-0.2,0-0.3c0.1-0.2,0.1-0.3,0.1-0.5l0,0
	c0-0.1,0.1-0.2,0.1-0.3v-0.2c0-0.1-0.1-0.3,0-0.5C525.5,232.4,525.5,232.4,525.4,232.4z"/>
<path class="st1" d="M535.1,232.5c0.4-0.2,0.8-0.5,0.8-1c0.1-0.2,0.2-0.5,0.4-0.6c0.4-0.2,0.7-0.6,0.9-1c0-0.1,0.1-0.2,0.1-0.2
	c0.6-0.2,0.8-0.8,1.3-1.2s0.9-0.8,1.3-1.2c0.1-0.1,0.2-0.1,0.2-0.2c0.2-0.7,0.8-0.9,1.3-1.2c0.5-0.4,1-0.8,1.4-1.3
	c0.3-0.5,0.7-0.8,1.2-1c0.1,0,0.2-0.1,0.3-0.2c0.5-0.7,1.3-1.3,1.8-2.1c0.2-0.5,0.6-0.9,1.2-1.1c0.1,0,0.2-0.1,0.3-0.2
	c0.3-0.8,1.2-1.2,1.7-1.9c0.4-0.8,1.1-1.4,1.9-1.8c0.2-0.1,0.4-0.3,0.5-0.5c0.4-0.5,0.7-1,1.4-1.1c0.4-0.5,0.9-0.9,1.3-1.5
	c0.2-0.3,0.4-0.6,0.7-0.7c0.2-0.1,0.4-0.3,0.5-0.5c0.4-0.4,0.7-0.8,1-1.2c0.4-0.5,0.8-0.9,1.3-1.3c0.3-0.2,0.6-0.5,0.8-0.8
	c0.1-0.2,0.3-0.4,0.5-0.6c0.4-0.4,0.8-0.8,1.3-1.2c0.1-0.1,0.2-0.3,0.2-0.5c0.1-0.4,0.3-0.7,0.6-1c0.8-0.7,1.5-1.3,2.3-2
	c0.3-0.3,0.5-0.6,0.7-0.9l0.7-0.2c0.3-0.7,0.9-1.3,1.6-1.7c0.2-0.1,0.3-0.2,0.4-0.3c0.6-0.6,1.2-1.2,1.8-1.8
	c0.8-0.7,1.4-1.6,2.2-2.3c0.1,0,0.1-0.1,0.2-0.1c0.3-1,1.3-1.5,2-2.1c0.3-0.2,0.6-0.6,0.8-0.9c0-0.1,0.1-0.2,0.2-0.2
	c0.4-0.1,0.7-0.4,0.8-0.8c0.6-0.4,1-1.1,1.7-1.5c0.5-0.3,0.9-0.7,1.2-1.2c0.1-0.2,0.2-0.3,0.3-0.5c0.2-0.3,0.5-0.5,0.8-0.6
	c0.3,0,0.6-0.2,0.8-0.5c0.8-0.9,1.6-1.9,2.3-2.8c0.2-0.2,0.3-0.5,0.5-0.7c-2.1,0.2-4.2,0.1-6.2-0.3c-0.9-0.1-1.9-0.1-2.8,0
	c-0.3,0-0.6,0.2-0.9,0.1c-2.1-0.7-4.2-0.3-6.3-0.1c-2.4,0.2-4.8-0.5-7.2,0.1c-0.2,0.1-0.5,0.1-0.7,0c-2.7-1.1-5.4-0.5-8.1-0.1
	c-0.5,0.1-1.1,0-1.6-0.2c-1-0.6-2.3-0.6-3.2,0.1c-0.1,0.1-0.2,0.1-0.3,0.2c-0.1,0.1-0.2,0.1-0.4,0.1c-2.5-0.8-5,0.5-7.6-0.5
	c0,0-0.1,0-0.1,0c-0.6-0.3-1.4-0.3-2-0.2c0,0-0.1,0-0.2,0l-0.7,0l-0.4,0h-0.1v-0.1c-0.2,0-0.4,0-0.6-0.2c-0.1,0.2-0.2,0.4-0.2,0.6
	c-0.3,0-0.6,0-0.9-0.1c0.1,0.6,0.2,1.2,0.2,1.8c-0.6,0.4-0.3,0.8,0,1.3c0,0.1,0.1,0.1,0.1,0.2c0.1,1,0.1,2.1,0.1,3.1
	c-0.3,1.2-0.6,2.4-0.9,3.6c-0.1,0.3,0,0.7,0.3,1c0.2,0.2,0.4,0.4,0.5,0.7v0.5c0,0.9,0,1.8,0,2.7c0.1,3.5,0.1,6.9-0.2,10.3
	c0,0.6-0.1,1.1-0.3,1.6c-0.5,1.3-0.4,2.8,0.2,4.1c0.8,1.5,0.5,3.3,0.2,4.9c-0.4,2-0.6,4-0.7,6c0,0.2,0,0.4,0,0.7
	c0,0.8-0.1,1.6-0.2,2.3c0,0.2-0.1,0.3-0.1,0.5c-0.6,1.8-0.6,3.8,0.1,5.6c0,0.5,0,1.1,0,1.6c0.7-0.8,1.3-1.5,1.9-2.3
	C533.9,233.4,534.5,232.9,535.1,232.5z"/>
<path class="st2" d="M573.3,231.1L573.3,231.1C573.3,231.1,573.3,231.1,573.3,231.1L573.3,231.1z"/>
<path class="st2" d="M584.1,230.2c0.1-1.7,0.1-3.3,0.1-5c0-0.2-0.1-0.4,0-0.7c1.2-3,0.3-6.1,0.2-9.2c-0.2-1.3-0.1-2.7,0.2-4
	c0.1-0.3,0.1-0.6,0.1-1c-0.4-1.1-0.4-2.4,0-3.5c-0.3-2.3,0.1-4.7-0.4-7c-0.4-1.7-0.4-3.6,0-5.3c0.1-0.5,0.3-1.1,0.4-1.6
	c0.3-1.1,0.1-2.2-0.4-3.1c-0.5-0.8-0.7-1.8-0.5-2.8c0.1-1,0.1-1.9,0.2-2.9c-0.4,0.1-0.8,0.1-1.2,0.2c-0.2,0.2-0.3,0.5-0.5,0.7
	c-0.8,1-1.5,1.9-2.3,2.8c-0.2,0.3-0.5,0.5-0.8,0.5c-0.4,0-0.7,0.2-0.8,0.6c-0.1,0.2-0.2,0.3-0.3,0.5c-0.3,0.5-0.7,0.9-1.2,1.2
	c-0.7,0.3-1.1,1-1.7,1.5c-0.1,0.4-0.4,0.7-0.8,0.8c-0.1,0-0.2,0.1-0.2,0.2c-0.2,0.4-0.5,0.7-0.8,0.9c-0.7,0.7-1.7,1.1-2,2.1
	c0,0.1-0.1,0.1-0.2,0.1c-0.8,0.7-1.4,1.6-2.2,2.3c-0.7,0.5-1.2,1.2-1.8,1.8c-0.1,0.1-0.3,0.2-0.4,0.3c-0.7,0.4-1.2,1-1.6,1.7
	l-0.7,0.2c-0.2,0.3-0.4,0.6-0.7,0.9c-0.7,0.7-1.5,1.3-2.3,2c-0.3,0.2-0.5,0.6-0.6,1c0,0.2-0.1,0.3-0.2,0.5c-0.4,0.4-0.8,0.8-1.3,1.2
	c-0.2,0.2-0.4,0.3-0.5,0.6c-0.2,0.4-0.5,0.7-0.8,0.8c-0.5,0.4-0.9,0.8-1.3,1.3c-0.3,0.4-0.7,0.8-1,1.2c-0.1,0.2-0.3,0.4-0.5,0.5
	c-0.3,0.1-0.6,0.4-0.7,0.7c-0.4,0.5-0.8,1-1.3,1.5c-0.6,0.1-1,0.7-1.4,1.1c-0.2,0.2-0.3,0.4-0.5,0.5c-0.8,0.4-1.4,1-1.9,1.8
	c-0.5,0.7-1.3,1.1-1.7,1.9c-0.1,0.1-0.2,0.1-0.3,0.2c-0.5,0.2-0.9,0.6-1.2,1.1c-0.5,0.8-1.3,1.4-1.8,2.1c-0.1,0.1-0.2,0.1-0.3,0.2
	c-0.5,0.2-0.9,0.5-1.2,1c-0.4,0.5-0.8,1-1.4,1.3c-0.5,0.3-1.1,0.5-1.3,1.2c0,0.1-0.1,0.2-0.2,0.2c-0.4,0.4-0.9,0.9-1.3,1.2
	s-0.7,1-1.3,1.2c-0.1,0-0.1,0.1-0.1,0.2c-0.2,0.4-0.5,0.8-0.9,1c-0.2,0.1-0.4,0.4-0.4,0.6c0,0.6-0.4,0.8-0.8,1
	c-0.6,0.4-1.2,0.9-1.7,1.5c-0.6,0.8-1.3,1.6-1.9,2.3c0,0.3,0,0.6,0,0.9s0,0.6,0.1,0.9c0.6,0,1.3-0.2,1.8-0.5
	c0.3,0.4,0.3,0.9-0.3,1.3c0,0,0,0,0,0c0.1,0,0.2,0,0.4,0c0.2,0,0.4,0,0.6,0.1h0.2c0.3,0,0.5,0,0.8,0c0.1-0.1,0.2,0,0.3,0
	c0.2,0.1,0.3,0.1,0.5,0.1l0,0c0.1,0,0.2,0.1,0.3,0.1h0.2c0.1,0,0.3-0.1,0.5,0c0-0.1,0.1-0.2,0.1-0.2c0.1,0,0.1,0.1,0.1,0.1
	c0.2,0.1,0.4,0.2,0.6,0.1h0.1c0.1,0.1,0.3,0.1,0.4,0.1c0,0,0,0,0.1,0c0.1,0,0.2,0,0.2,0c0.1-0.1,0.2-0.1,0.3-0.1
	c0.2,0,0.4-0.2,0.6,0c0.1,0.1,0.1,0,0.1,0h0l0.1,0c0.1-0.1,0.3-0.2,0.4-0.4c0,0,0,0,0.1-0.1c0.3-0.2,0.6-0.4,0.8-0.7
	c0,0,0.1-0.1,0.1-0.1c1.1,0.1,2.1,0.3,3.2,0.5c1.6,0.3,3.3,0.2,4.9-0.5c1-0.4,1.9-0.8,2.9,0.4c0.4,0.4,1,0.6,1.6,0.4
	c1-0.4,2.1-0.3,3,0.2c0.1,0.1,0.3,0.2,0.4,0.1c1.3-1,2.6-0.1,3.9-0.3c1.3-0.2,2.6-0.2,4-0.2c0.2,0,0.5-0.1,0.7,0
	c1.3,1.1,2.6,0.4,3.8-0.2c1.4-0.7,2.8-0.3,4.2-0.1c1.2,0.1,2.3,0.5,3.4-0.5c0.2-0.2,0.4-0.2,0.7-0.2c2,0.5,4,0,6,0.6
	c0.2,0.1,0.5,0.2,0.8,0.2c0-1,0-2-0.1-3C584,233.6,584,231.9,584.1,230.2z M573.3,231.1L573.3,231.1
	C573.3,231.1,573.3,231.1,573.3,231.1L573.3,231.1z"/>
<path class="st0" d="M420.8,167L420.8,167C420.8,167,420.9,167,420.8,167L420.8,167z"/>
<path class="st1" d="M415.4,176.8c0.4-0.5,0.9-0.9,1.3-1.4c0.2-0.3,0.4-0.5,0.8-0.7c0.2-0.1,0.4-0.3,0.6-0.5
	c0.4-0.4,0.7-0.8,1.1-1.2c0.4-0.5,0.8-0.9,1.3-1.2c0.4-0.2,0.6-0.5,0.8-0.8c0.1-0.2,0.3-0.4,0.5-0.5c0.4-0.4,0.9-0.7,1.3-1.1
	c0.1-0.1,0.2-0.3,0.2-0.5c0.1-0.4,0.3-0.7,0.7-1c0.8-0.6,1.6-1.2,2.3-1.9c0.3-0.3,0.5-0.6,0.7-0.9l0.7-0.1c0.3-0.7,0.9-1.3,1.6-1.7
	c0.2-0.1,0.3-0.2,0.4-0.3c0.6-0.6,1.2-1.2,1.9-1.8c0.9-0.7,1.5-1.5,2.3-2.2c0.1,0,0.1-0.1,0.2-0.1c0.3-1,1.3-1.4,2-2.1
	c0.4-0.2,0.6-0.6,0.9-0.9c0-0.1,0.1-0.2,0.2-0.2c0.4-0.1,0.7-0.4,0.8-0.8c0.6-0.4,1-1.1,1.7-1.4c0.5-0.3,0.9-0.7,1.2-1.2
	c0.1-0.2,0.2-0.3,0.3-0.5c0.2-0.3,0.5-0.5,0.9-0.6c0.3,0,0.6-0.2,0.8-0.5c0.8-0.9,1.6-1.8,2.4-2.8c0.5-0.5,0.9-1.1,1.3-1.7
	c0.5-0.8,1.3-1.5,2.3-1.8c0.3-0.1,0.6-0.3,0.8-0.5c0.6-0.7,1.1-1.5,1.4-2.4c0.2-0.1,0.4-0.1,0.7-0.2c0.7,0,1.4-0.4,1.7-1.1
	c0-0.1,0.1-0.1,0.1-0.1c0.6-0.2,0.8-0.7,1.2-1.1c0.5-0.7,1.1-1.2,1.8-1.7c0.7-0.4,1.2-1.1,1.4-1.9c0.2-0.6,0.5-1.1,1-1.6
	c0.4-0.1,0.7-0.1,1.1-0.2c1-0.3,1.9-0.9,2.4-1.8c0.2-0.3,0.5-0.6,0.8-0.9c0.6-0.6,1.1-1.2,1.6-1.9c0.3-0.4,0.6-0.8,1-1.1
	c0.4-0.3,0.8-0.6,1.1-1c0.3-0.4,0.7-0.7,1-1.1c-0.5,0.1-0.9,0.1-1.4,0.2c-0.4-0.6-0.8-0.3-1.3,0c-0.1,0-0.1,0.1-0.2,0.1
	c-1,0.1-2.1,0.1-3.1,0.1c-1.2-0.3-2.4-0.6-3.6-0.9c-0.3-0.1-0.7,0-1,0.3c-0.2,0.2-0.4,0.4-0.7,0.5h-0.5c-0.9,0-1.8,0-2.7,0
	c-3.5,0.1-6.9,0.1-10.4-0.2c-0.6,0-1.1-0.1-1.6-0.3c-1.3-0.5-2.8-0.4-4.1,0.2c-1.5,0.8-3.3,0.5-4.9,0.2c-2-0.4-4-0.6-6-0.7
	c-0.2,0-0.4,0-0.7,0c-0.8,0-1.6-0.1-2.3-0.2c-0.2,0-0.3-0.1-0.5-0.1c-1.8-0.6-3.8-0.6-5.6,0.1c-0.8,0-1.7,0-2.5,0.1
	c-0.3,0-0.6,0-0.9,0.1c0,0.6,0.2,1.3,0.5,1.8c-0.4,0.3-0.9,0.3-1.3-0.3c0,0,0,0,0,0c0,0.1,0,0.2,0,0.4c0,0.2,0,0.4-0.1,0.6v0.2
	c0,0.3,0,0.5,0,0.8c0,0.1,0,0.2,0,0.3c-0.1,0.2-0.1,0.3-0.1,0.5l0,0c0,0.1-0.1,0.2-0.1,0.3v0.2c0,0.1,0.1,0.3,0,0.5
	c0.1,0,0.2,0.1,0.2,0.1c0,0.1-0.1,0.1-0.1,0.1c-0.1,0.2-0.2,0.4-0.1,0.6v0.1c-0.1,0.1-0.1,0.3-0.1,0.4c0,0,0,0,0,0.1
	c0,0.1,0,0.2,0,0.2c0.1,0.1,0.1,0.2,0.1,0.3c0,0.2,0.2,0.4,0,0.6c-0.1,0.1,0,0.1,0,0.1v0c0,0,0,0.1,0,0.1c0.1,0.1,0.2,0.3,0.4,0.4
	c0,0,0,0,0.1,0.1c0.2,0.3,0.4,0.6,0.7,0.8c0,0,0.1,0.1,0.1,0.1c-0.1,1.1-0.3,2.1-0.5,3.2c-0.3,1.6-0.2,3.3,0.5,4.9
	c0.4,1,0.8,1.9-0.4,2.9c-0.4,0.4-0.6,1-0.4,1.6c0.4,1,0.3,2.1-0.2,3c-0.1,0.1-0.2,0.3-0.1,0.4c1,1.3,0.1,2.6,0.3,3.9
	c0.2,1.3,0.2,2.6,0.2,4c0,0.2,0.1,0.5,0,0.7c-1.1,1.3-0.4,2.6,0.2,3.8c0.7,1.4,0.3,2.8,0.1,4.2c-0.1,1.2-0.5,2.3,0.5,3.4
	c0.2,0.2,0.2,0.4,0.2,0.7c-0.5,2,0,4-0.6,6c-0.1,0.2-0.2,0.5-0.2,0.7c0.1,0,0.3,0,0.4,0l0,0C414.4,177.5,414.7,176.9,415.4,176.8z
	 M420.8,167L420.8,167C420.8,167,420.8,167,420.8,167L420.8,167z"/>
<path class="st2" d="M468.5,128l0-0.4v-0.1h0.1c0-0.2,0-0.4,0.2-0.6c-0.2-0.1-0.4-0.2-0.6-0.2c0-0.3,0-0.6,0.1-0.9
	c-0.1,0-0.3,0-0.4,0.1c-0.3,0.4-0.7,0.7-1,1.1c-0.3,0.4-0.7,0.7-1.1,1c-0.4,0.3-0.8,0.6-1,1.1c-0.5,0.7-1,1.3-1.6,1.9
	c-0.3,0.3-0.5,0.6-0.8,0.9c-0.5,0.9-1.4,1.5-2.4,1.8c-0.3,0.1-0.7,0.1-1.1,0.2c-0.5,0.4-0.9,0.9-1,1.6c-0.2,0.8-0.7,1.5-1.4,1.9
	c-0.7,0.5-1.3,1-1.8,1.7c-0.3,0.4-0.6,0.9-1.2,1.1c-0.1,0-0.1,0.1-0.1,0.1c-0.3,0.7-0.9,1.1-1.7,1.1c-0.2,0-0.5,0.1-0.7,0.2
	c-0.3,0.9-0.8,1.7-1.4,2.4c-0.2,0.2-0.5,0.4-0.8,0.5c-1,0.3-1.8,1-2.3,1.8c-0.4,0.6-0.8,1.2-1.3,1.7c-0.8,0.9-1.6,1.8-2.4,2.8
	c-0.2,0.3-0.5,0.4-0.8,0.5c-0.4,0-0.7,0.2-0.9,0.6c-0.1,0.2-0.2,0.3-0.3,0.5c-0.3,0.5-0.7,0.9-1.2,1.2c-0.7,0.3-1.1,1-1.7,1.4
	c-0.1,0.4-0.4,0.7-0.8,0.8c-0.1,0-0.2,0.1-0.2,0.2c-0.2,0.4-0.5,0.7-0.9,0.9c-0.7,0.7-1.7,1.1-2,2.1c0,0.1-0.1,0.1-0.2,0.1
	c-0.8,0.7-1.4,1.6-2.3,2.2c-0.6,0.6-1.3,1.2-1.9,1.8c-0.1,0.1-0.3,0.2-0.4,0.3c-0.7,0.4-1.3,0.9-1.6,1.7l-0.7,0.1
	c-0.2,0.3-0.4,0.6-0.7,0.9c-0.8,0.7-1.5,1.3-2.3,1.9c-0.3,0.2-0.6,0.6-0.7,1c0,0.2-0.1,0.3-0.2,0.5c-0.4,0.4-0.9,0.7-1.3,1.1
	c-0.2,0.1-0.4,0.3-0.5,0.5c-0.2,0.4-0.5,0.6-0.8,0.8c-0.5,0.3-0.9,0.8-1.3,1.2c-0.3,0.4-0.7,0.8-1.1,1.2c-0.1,0.2-0.3,0.4-0.6,0.5
	c-0.3,0.1-0.6,0.4-0.8,0.7c-0.4,0.5-0.9,1-1.3,1.4c-0.6,0.1-1,0.7-1.4,1.1l0,0c0.9,0,1.7,0,2.6-0.1c3.4-0.3,6.7,0.2,10.1,0.1
	c0.2,0,0.4-0.1,0.7,0c3,1.2,6.1,0.3,9.2,0.2c1.3-0.2,2.7-0.1,4,0.1c0.3,0.1,0.6,0.1,1,0.1c1.1-0.4,2.4-0.4,3.5,0
	c2.3-0.3,4.7,0.1,7-0.4c1.7-0.4,3.6-0.4,5.3,0c0.5,0.1,1.1,0.3,1.6,0.4c1,0.2,2,0.1,2.9-0.3c0.1,0,0.1-0.1,0.2-0.1
	c0.8-0.5,1.8-0.7,2.8-0.5c1,0.1,1.9,0.1,2.9,0.2c-0.3-1.7-0.4-3.5-0.2-5.3c0.1-0.7,0.2-1.4,0.3-2.2c0.1-0.9,0.1-1.9,0-2.8
	c0-0.3-0.2-0.6-0.1-0.9c0.7-2.1,0.3-4.2,0.1-6.3c-0.2-2.4,0.5-4.8-0.1-7.2c-0.1-0.2-0.1-0.5,0-0.7c1.1-2.7,0.5-5.4,0.1-8.1
	c-0.1-0.5,0-1.1,0.2-1.6c0.6-1,0.6-2.3-0.1-3.2c-0.1-0.1-0.1-0.2-0.2-0.3c-0.1-0.1-0.1-0.2-0.1-0.4c0.8-2.5-0.5-5,0.5-7.6
	c0,0,0-0.1,0-0.1c0.3-0.7,0.3-1.4,0.2-2c0,0,0-0.1,0-0.2L468.5,128z"/>
<path class="st1" d="M475.2,174.3c0.4-0.2,0.8-0.4,0.8-1c0.1-0.2,0.2-0.4,0.4-0.6c0.4-0.2,0.7-0.6,0.9-1c0-0.1,0.1-0.2,0.1-0.2
	c0.6-0.2,0.9-0.8,1.3-1.2s0.9-0.8,1.3-1.2c0.1-0.1,0.2-0.1,0.2-0.2c0.2-0.6,0.8-0.9,1.3-1.2c0.5-0.3,1-0.8,1.4-1.3
	c0.3-0.5,0.7-0.8,1.2-1c0.1,0,0.2-0.1,0.3-0.2c0.6-0.7,1.3-1.3,1.8-2.1c0.2-0.5,0.7-0.9,1.2-1c0.1,0,0.2-0.1,0.3-0.2
	c0.4-0.8,1.2-1.2,1.7-1.9c0.5-0.8,1.1-1.4,1.9-1.8c0.2-0.1,0.4-0.3,0.6-0.5c0.4-0.4,0.7-1,1.4-1.1c0.4-0.5,0.9-0.9,1.3-1.4
	c0.2-0.3,0.4-0.5,0.8-0.7c0.2-0.1,0.4-0.3,0.6-0.5c0.4-0.4,0.7-0.8,1.1-1.2c0.4-0.5,0.8-0.9,1.3-1.3c0.3-0.2,0.6-0.5,0.8-0.8
	c0.1-0.2,0.3-0.4,0.5-0.6c0.4-0.4,0.9-0.7,1.3-1.1c0.1-0.1,0.2-0.3,0.2-0.5c0.1-0.4,0.3-0.7,0.6-1c0.8-0.6,1.5-1.3,2.3-1.9
	c0.3-0.3,0.5-0.6,0.7-0.9l0.7-0.1c0.3-0.7,0.9-1.3,1.6-1.7c0.2-0.1,0.3-0.2,0.4-0.3c0.6-0.6,1.2-1.2,1.8-1.8
	c0.9-0.7,1.5-1.6,2.3-2.3c0.1,0,0.1-0.1,0.2-0.1c0.3-1,1.3-1.4,2-2.1c0.4-0.2,0.6-0.6,0.9-0.9c0-0.1,0.1-0.2,0.2-0.2
	c0.4-0.1,0.7-0.4,0.8-0.8c0.6-0.4,1-1.1,1.7-1.4c0.5-0.3,0.9-0.7,1.2-1.2c0.1-0.2,0.2-0.3,0.3-0.5c0.2-0.3,0.5-0.5,0.8-0.6
	c0.3,0,0.6-0.2,0.8-0.5c0.8-0.9,1.6-1.8,2.4-2.8c0.4-0.5,0.8-1.1,1.2-1.7c0-0.1,0.1-0.1,0.1-0.1c0-0.3,0-0.7,0.1-1
	c-2.5,0.4-5,0.4-7.5-0.1c-0.9-0.1-1.9-0.1-2.8,0c-0.3,0-0.6,0.2-0.9,0.1c-2.1-0.7-4.2-0.3-6.3-0.1c-2.4,0.2-4.8-0.5-7.2,0.1
	c-0.2,0.1-0.5,0.1-0.7,0c-2.7-1.1-5.4-0.5-8.1-0.1c-0.5,0.1-1.1,0-1.6-0.2c-1-0.6-2.3-0.6-3.2,0.1c-0.1,0.1-0.2,0.1-0.3,0.2
	c-0.1,0.1-0.2,0.1-0.4,0.1c-2.5-0.8-5,0.5-7.6-0.5c0,0-0.1,0-0.1,0c-0.6-0.3-1.4-0.3-2-0.2c0,0-0.1,0-0.2,0l-0.7,0l-0.4,0h-0.1v-0.1
	c-0.2,0-0.4,0-0.6-0.2c-0.1,0.2-0.2,0.4-0.2,0.6c-0.3,0-0.6,0-0.9-0.1c0.1,0.6,0.2,1.2,0.2,1.8c-0.6,0.4-0.3,0.8,0,1.3
	c0,0.1,0.1,0.1,0.1,0.2c0.1,1,0.1,2.1,0.1,3.1c-0.3,1.2-0.6,2.4-0.9,3.6c-0.1,0.3,0,0.7,0.3,1c0.2,0.2,0.4,0.4,0.5,0.7v0.5
	c0,0.9,0,1.8,0,2.7c0.1,3.5,0.1,6.9-0.2,10.3c0,0.6-0.1,1.1-0.3,1.6c-0.5,1.3-0.4,2.8,0.2,4.1c0.8,1.5,0.5,3.3,0.2,4.9
	c-0.4,2-0.6,4-0.7,6c0,0.2,0,0.4,0,0.7c0,0.8-0.1,1.6-0.2,2.3c0,0.2-0.1,0.3-0.1,0.5c-0.6,1.8-0.6,3.8,0.1,5.6c0,0.7,0,1.5,0.1,2.2
	c0.5-0.6,1-1.1,1.5-1.7C474,175.2,474.6,174.7,475.2,174.3z"/>
<path class="st2" d="M513.8,171.6L513.8,171.6L513.8,171.6L513.8,171.6z"/>
<path class="st2" d="M524.6,172.3c0.1-2.2,0.2-4.4,0.1-6.5c0-0.2-0.1-0.4,0-0.7c1.2-3,0.3-6.1,0.2-9.2c-0.2-1.3-0.1-2.7,0.2-4
	c0.1-0.3,0.1-0.6,0.1-1c-0.4-1.1-0.5-2.4,0-3.5c-0.3-2.3,0.1-4.7-0.4-7c-0.4-1.7-0.4-3.6,0-5.3c0.1-0.5,0.3-1.1,0.4-1.6
	c0.3-1.1,0.1-2.2-0.4-3.1c-0.5-0.8-0.7-1.8-0.5-2.8c0-0.6,0.1-1.3,0.1-1.9c0,0-0.1,0.1-0.1,0.1c-0.4,0.6-0.8,1.2-1.2,1.7
	c-0.8,0.9-1.6,1.9-2.4,2.8c-0.2,0.3-0.5,0.4-0.8,0.5c-0.4,0-0.7,0.2-0.8,0.6c-0.1,0.2-0.2,0.3-0.3,0.5c-0.3,0.5-0.7,0.9-1.2,1.2
	c-0.7,0.3-1.1,1-1.7,1.4c-0.1,0.4-0.4,0.7-0.8,0.8c-0.1,0.1-0.2,0.1-0.2,0.2c-0.2,0.4-0.5,0.7-0.9,0.9c-0.7,0.7-1.7,1.1-2,2.1
	c0,0.1-0.1,0.1-0.2,0.1c-0.8,0.7-1.4,1.6-2.3,2.3c-0.6,0.6-1.3,1.2-1.8,1.8c-0.1,0.1-0.3,0.2-0.4,0.3c-0.7,0.4-1.3,1-1.6,1.7
	l-0.7,0.1c-0.2,0.3-0.4,0.6-0.7,0.9c-0.7,0.7-1.5,1.3-2.3,1.9c-0.3,0.2-0.5,0.6-0.6,1c0,0.2-0.1,0.3-0.2,0.5
	c-0.4,0.4-0.9,0.8-1.3,1.1c-0.2,0.1-0.4,0.3-0.5,0.6c-0.2,0.4-0.5,0.6-0.8,0.8c-0.5,0.4-0.9,0.8-1.3,1.3c-0.3,0.4-0.7,0.8-1.1,1.2
	c-0.1,0.2-0.3,0.4-0.6,0.5c-0.3,0.1-0.6,0.4-0.8,0.7c-0.4,0.5-0.8,1-1.3,1.4c-0.6,0.1-1,0.7-1.4,1.1c-0.2,0.2-0.3,0.4-0.6,0.5
	c-0.8,0.4-1.5,1-1.9,1.8c-0.5,0.7-1.3,1.1-1.7,1.9c-0.1,0.1-0.2,0.1-0.3,0.2c-0.5,0.2-0.9,0.6-1.2,1c-0.5,0.8-1.3,1.3-1.8,2.1
	c-0.1,0.1-0.2,0.1-0.3,0.2c-0.5,0.2-0.9,0.5-1.2,1c-0.4,0.5-0.9,1-1.4,1.3c-0.5,0.3-1.1,0.5-1.3,1.2c0,0.1-0.1,0.2-0.2,0.2
	c-0.4,0.4-0.9,0.8-1.3,1.2s-0.7,1-1.3,1.2c-0.1,0-0.1,0.1-0.1,0.2c-0.2,0.4-0.5,0.8-0.9,1c-0.2,0.1-0.4,0.3-0.4,0.6
	c0,0.6-0.4,0.8-0.8,1c-0.6,0.4-1.2,0.9-1.7,1.5c-0.5,0.6-1,1.1-1.5,1.7c0,0.1,0,0.2,0,0.3c0,0.3,0,0.6,0.1,0.9
	c0.6,0,1.3-0.2,1.8-0.5c0.3,0.4,0.3,0.9-0.3,1.3c0,0,0,0,0,0c0.1,0,0.2,0,0.4,0c0.2,0,0.4,0,0.6,0.1h0.2c0.3,0,0.5,0,0.8,0
	c0.1-0.1,0.2,0,0.3,0c0.2,0.1,0.3,0.1,0.5,0.1l0,0c0.1,0,0.2,0.1,0.3,0.1h0.2c0.1,0,0.3-0.1,0.5,0c0-0.1,0.1-0.2,0.1-0.2
	c0.1,0,0.1,0.1,0.1,0.1c0.2,0.1,0.4,0.2,0.6,0.1h0.1c0.1,0.1,0.3,0.1,0.4,0.1c0,0,0,0,0.1,0c0.1,0,0.2,0,0.2,0
	c0.1-0.1,0.2-0.1,0.3-0.1c0.2,0,0.4-0.2,0.6,0c0.1,0.1,0.1,0,0.1,0h0c0,0,0.1,0,0.1,0c0.1-0.1,0.3-0.2,0.4-0.4c0,0,0,0,0.1-0.1
	c0.3-0.2,0.6-0.4,0.8-0.7c0,0,0.1-0.1,0.1-0.1c1.1,0.1,2.1,0.3,3.2,0.5c1.6,0.3,3.3,0.2,4.9-0.5c1-0.4,1.9-0.8,2.9,0.4
	c0.4,0.4,1,0.6,1.6,0.4c1-0.4,2.1-0.3,3,0.2c0.1,0.1,0.3,0.2,0.5,0.1c1.3-1,2.6-0.1,3.9-0.3c1.3-0.2,2.6-0.2,4-0.2
	c0.2,0,0.5-0.1,0.7,0c1.3,1.1,2.6,0.4,3.8-0.2c1.4-0.7,2.8-0.3,4.2-0.1c1.2,0.1,2.3,0.5,3.4-0.5c0.2-0.2,0.4-0.2,0.7-0.2
	c0.3,0.1,0.7,0.1,1,0.1c1.7,0.2,3.3,0,5,0.5c0.2,0.1,0.5,0.2,0.7,0.2c0-1,0-2-0.1-3C524.5,174.7,524.5,173.5,524.6,172.3z
	 M513.8,171.6L513.8,171.6L513.8,171.6L513.8,171.6z"/>
<path class="st1" d="M530.9,176.4c0.1,0,0.2-0.1,0.3-0.2c0.6-0.7,1.4-1.2,1.9-2c0.3-0.5,0.7-0.8,1.2-1c0.1,0,0.2-0.1,0.3-0.2
	c0.4-0.8,1.3-1.1,1.8-1.8c0.5-0.8,1.2-1.3,2-1.7c0.2-0.1,0.4-0.3,0.6-0.5c0.4-0.4,0.8-1,1.4-1.1c0.4-0.5,0.9-0.9,1.3-1.4
	c0.2-0.3,0.5-0.5,0.8-0.7c0.2-0.1,0.4-0.3,0.6-0.5c0.4-0.4,0.7-0.8,1.1-1.2c0.4-0.5,0.8-0.9,1.3-1.2c0.4-0.2,0.6-0.5,0.8-0.8
	c0.1-0.2,0.3-0.4,0.5-0.5c0.4-0.4,0.9-0.7,1.3-1.1c0.1-0.1,0.2-0.3,0.2-0.4c0.1-0.4,0.3-0.7,0.7-0.9c0.8-0.6,1.6-1.2,2.3-1.9
	c0.3-0.3,0.5-0.6,0.7-0.9l0.8-0.1c0.4-0.7,0.9-1.3,1.6-1.6c0.2-0.1,0.3-0.2,0.4-0.3c0.6-0.6,1.2-1.2,1.9-1.7
	c0.9-0.6,1.5-1.5,2.3-2.2c0.1,0,0.1-0.1,0.2-0.1c0.4-1,1.3-1.4,2.1-2c0.4-0.2,0.7-0.5,0.9-0.9c0-0.1,0.1-0.2,0.2-0.2
	c0.4-0.1,0.7-0.4,0.8-0.8c0.6-0.4,1.1-1.1,1.8-1.4c0.5-0.2,1-0.7,1.2-1.2c0.1-0.2,0.2-0.3,0.3-0.5c0.2-0.3,0.5-0.5,0.9-0.5
	c0.3,0,0.6-0.2,0.8-0.4c0.8-0.9,1.7-1.8,2.5-2.7c0.5-0.5,0.9-1.1,1.3-1.7c0.6-0.8,1.4-1.4,2.3-1.7c0.3-0.1,0.6-0.3,0.8-0.5
	c0.6-0.7,1.1-1.5,1.5-2.4c0.2-0.1,0.4-0.1,0.7-0.2c0.7,0,1.4-0.4,1.7-1.1c0-0.1,0.1-0.1,0.1-0.1c0.6-0.2,0.8-0.6,1.2-1
	c0.5-0.6,1.1-1.2,1.8-1.6c0.6-0.4,1.1-0.9,1.3-1.6c0-0.4,0.1-0.8,0.3-1.2c0.1-0.2,0.2-0.5,0.2-0.7c-1,0-2,0-3,0.1
	c-3.4,0.3-6.7-0.2-10.1-0.1c-0.2,0-0.4,0.1-0.7,0c-3-1.2-6.1-0.3-9.2-0.2c-1.3,0.2-2.7,0.1-4-0.2c-0.3-0.1-0.6-0.1-1-0.1
	c-1.1,0.4-2.4,0.5-3.5,0c-2.3,0.3-4.7-0.1-7,0.4c-1.7,0.4-3.6,0.4-5.3,0c-0.5-0.1-1.1-0.3-1.6-0.4c-1.1-0.3-2.2-0.1-3.2,0.4
	c-0.8,0.5-1.8,0.7-2.8,0.5c-1-0.1-1.9-0.1-2.9-0.2c0.4,2.5,0.4,5-0.1,7.5c-0.1,0.9-0.1,1.9,0,2.8c0,0.3,0.2,0.6,0.1,0.9
	c-0.7,2.1-0.3,4.2-0.1,6.3c0.2,2.4-0.5,4.8,0.1,7.2c0.1,0.2,0.1,0.5,0,0.7c-1.1,2.7-0.5,5.4-0.1,8.1c0.1,0.5,0,1.1-0.2,1.6
	c-0.6,1-0.6,2.3,0.1,3.2c0.1,0.1,0.1,0.2,0.2,0.3c0.1,0.1,0.1,0.2,0.1,0.4c-0.8,2.5,0.5,5-0.5,7.6c0,0,0,0.1,0,0.1
	c-0.3,0.6-0.3,1.4-0.2,2c0,0,0,0.1,0,0.2l0,0.7l0,0.4v0.1h-0.1c0,0.2,0,0.4-0.2,0.6c0.2,0.1,0.4,0.2,0.6,0.2c0,0.3,0,0.6-0.1,0.9
	c0.1,0,0.1,0,0.2,0c0.1-0.1,0.2-0.3,0.4-0.4C530,176.9,530.4,176.6,530.9,176.4z"/>
<path class="st2" d="M576.5,136.7L576.5,136.7C576.5,136.7,576.5,136.7,576.5,136.7L576.5,136.7z"/>
<path class="st2" d="M584.4,173.2c0-0.1,0.1-0.1,0.1-0.1c0.1-0.2,0.2-0.4,0.1-0.6v-0.1c0.1-0.1,0.1-0.3,0.1-0.4c0,0,0,0,0-0.1
	c0-0.1,0-0.2,0-0.2v0c-0.1-0.1-0.1-0.2-0.1-0.3c0-0.2-0.2-0.4,0-0.6c0.1-0.1,0-0.1,0-0.1v0c0,0,0-0.1,0-0.1
	c-0.1-0.1-0.2-0.3-0.4-0.4c0,0,0,0-0.1-0.1c-0.2-0.3-0.4-0.6-0.7-0.8c0,0-0.1-0.1-0.1-0.1c0.1-1.1,0.3-2.1,0.5-3.2
	c0.3-1.6,0.2-3.3-0.5-4.9c-0.4-1-0.8-1.9,0.4-2.9c0.4-0.4,0.6-1,0.4-1.6c-0.4-1-0.3-2.1,0.2-3c0.1-0.1,0.2-0.3,0.1-0.5
	c-1-1.3-0.1-2.6-0.3-3.9c-0.2-1.3-0.2-2.6-0.2-4c0-0.2-0.1-0.5,0-0.7c1.1-1.3,0.4-2.6-0.2-3.8c-0.7-1.4-0.3-2.8-0.1-4.2
	c0.1-1.2,0.5-2.3-0.5-3.4c-0.2-0.2-0.2-0.4-0.2-0.7c0.4-1.6,0.2-3.2,0.4-4.8c-0.3,0.7-0.7,1.2-1.3,1.6c-0.7,0.4-1.3,1-1.8,1.6
	c-0.4,0.4-0.6,0.9-1.2,1c-0.1,0-0.1,0.1-0.1,0.1c-0.3,0.6-1,1.1-1.7,1.1c-0.2,0-0.5,0.1-0.7,0.2c-0.4,0.9-0.9,1.7-1.5,2.4
	c-0.2,0.2-0.5,0.4-0.8,0.5c-1,0.3-1.8,0.9-2.3,1.7c-0.4,0.6-0.8,1.1-1.3,1.7c-0.8,0.9-1.6,1.8-2.5,2.7c-0.2,0.3-0.5,0.4-0.8,0.4
	c-0.4,0-0.7,0.2-0.9,0.5c-0.1,0.1-0.2,0.3-0.3,0.5c-0.3,0.5-0.7,0.9-1.2,1.2c-0.7,0.3-1.1,1-1.8,1.4c-0.1,0.4-0.5,0.7-0.8,0.8
	c-0.1,0.1-0.2,0.1-0.2,0.2c-0.2,0.4-0.5,0.7-0.9,0.9c-0.7,0.6-1.7,1-2.1,2c0,0.1-0.1,0.1-0.2,0.1c-0.8,0.7-1.5,1.6-2.3,2.2
	c-0.7,0.5-1.3,1.1-1.9,1.7c-0.1,0.1-0.3,0.2-0.4,0.3c-0.7,0.3-1.3,0.9-1.6,1.6l-0.8,0.1c-0.2,0.3-0.5,0.6-0.7,0.9
	c-0.8,0.6-1.6,1.2-2.3,1.9c-0.3,0.2-0.6,0.6-0.7,0.9c0,0.2-0.1,0.3-0.2,0.4c-0.4,0.4-0.9,0.7-1.3,1.1c-0.2,0.1-0.4,0.3-0.5,0.5
	c-0.2,0.3-0.5,0.6-0.8,0.8c-0.5,0.3-1,0.7-1.3,1.2c-0.4,0.4-0.7,0.8-1.1,1.2c-0.2,0.2-0.3,0.4-0.6,0.5c-0.3,0.1-0.6,0.4-0.8,0.7
	c-0.4,0.5-0.9,0.9-1.3,1.4c-0.6,0.1-1,0.6-1.4,1.1c-0.2,0.2-0.4,0.4-0.6,0.5c-0.8,0.4-1.5,1-2,1.7c-0.5,0.7-1.4,1-1.8,1.8
	c-0.1,0.1-0.2,0.1-0.3,0.2c-0.5,0.2-0.9,0.5-1.2,1c-0.5,0.8-1.3,1.3-1.9,2c-0.1,0.1-0.2,0.1-0.3,0.2c-0.5,0.2-1,0.5-1.3,0.9
	c-0.1,0.1-0.2,0.3-0.4,0.4c0.5-0.1,1.1-0.1,1.6-0.2c0.4,0.6,0.8,0.3,1.3,0c0.1,0,0.1-0.1,0.2-0.1c1-0.1,2.1-0.1,3.1-0.1
	c1.2,0.3,2.4,0.6,3.6,0.9c0.3,0.1,0.7,0,1-0.3c0.2-0.2,0.4-0.4,0.7-0.5h0.5c0.9,0,1.8,0,2.7,0c3.5-0.1,6.9-0.1,10.3,0.2
	c0.6,0,1.1,0.1,1.6,0.3c1.3,0.5,2.8,0.4,4.1-0.2c1.5-0.8,3.3-0.5,4.9-0.2c2,0.4,4,0.6,6,0.7l0.7,0c0.8,0,1.6,0.1,2.3,0.2
	c0.2,0,0.3,0.1,0.5,0.1c0.9,0.2,1.8,0.4,2.8,0.4c1,0,2-0.1,2.9-0.5c0.8,0,1.7,0,2.5-0.1c0.3,0,0.6,0,0.9-0.1c0-0.6-0.2-1.3-0.5-1.8
	c0.4-0.3,0.9-0.3,1.3,0.3c0,0,0,0,0,0c0-0.1,0-0.2,0-0.4c0-0.2,0-0.4,0.1-0.6v-0.2c0-0.3,0-0.5,0-0.8c0-0.1,0-0.2,0-0.3
	c0.1-0.2,0.1-0.3,0.1-0.5l0,0c0-0.1,0.1-0.2,0.1-0.3v-0.2c0-0.1-0.1-0.3,0-0.5C584.6,173.2,584.5,173.2,584.4,173.2z M576.5,136.7
	L576.5,136.7C576.5,136.7,576.5,136.7,576.5,136.7L576.5,136.7z"/>
<path class="st1" d="M532.3,116.7c0.2-0.2,0.4-0.4,0.7-0.5c0.4-0.2,0.8-0.6,1.1-0.9c0.7-0.8,1.4-1.6,2.1-2.4
	c0.2-0.2,0.4-0.4,0.6-0.6c0.4-0.2,0.8-0.5,1.2-0.9c0.7-0.6,1.3-1.2,1.8-1.8c0.2-0.2,0.5-0.3,0.7-0.4c0.4-0.2,0.9-0.4,1.1-0.9
	c0-0.1,0.1-0.2,0.2-0.2c0.9-0.8,1.8-1.7,2.5-2.7c0.3-0.3,0.7-0.7,1-0.9c0.8-0.5,1.6-1.1,2.2-1.9c0.2-0.2,0.5-0.5,0.7-0.7
	c1.1-0.9,2.1-2,3-3c0.1-0.1,0.2-0.3,0.3-0.4c0.1-0.4,0.5-0.8,1-0.8c0.5-0.1,1-0.5,1.2-1c0.4-0.6,0.8-1.2,1.3-1.7
	c0.2-0.2,0.3-0.4,0.5-0.6c0.2-0.6,0.7-1.1,1.4-1.3c0.8-0.8,1.8-1.4,2.6-2.3c0.6-0.9,1.4-1.6,2.3-2.2c0.2-0.2,0.3-0.3,0.5-0.6
	c0.2-0.3,0.5-0.6,0.8-0.8c0.5-0.3,0.9-0.7,1.1-1.1c0.1-0.2,0.2-0.3,0.3-0.5c0.6-0.1,1.1-0.4,1.5-0.9c0.1-0.1,0.2-0.2,0.3-0.3
	c0.7-0.5,1.4-1.1,1.9-1.9c0.5-0.8,1.1-1.5,2-1.9c0.4-0.2,0.6-0.6,1.1-0.8c0.4-0.2,0.7-0.5,1-0.9c0.1-0.1,0.2-0.2,0.2-0.3
	c0.2-0.9,1-1.3,1.6-1.8c0.5-0.4,0.9-0.9,1.3-1.4c0.3-0.5,0.6-0.9,1-1.2c0.7-0.5,1.3-1.1,1.8-1.8c0.6-0.5,1.2-1.1,1.7-1.7
	c0,0,0.1-0.1,0.1-0.1c0.8-0.2,1.2-0.9,1.8-1.5c0.2-0.2,0.4-0.3,0.6-0.5c0.4-0.2,0.7-0.5,1-0.7l-0.6,0c-0.8,0-1.7-0.1-2.5-0.1
	c-1.8-0.7-3.8-0.7-5.7-0.1c-0.2,0-0.3,0.1-0.5,0.1c-0.8,0.1-1.6,0.2-2.3,0.2l-0.7,0c-2,0.1-4,0.3-6,0.7c-1.5,0.4-3.4,0.7-4.9-0.2
	c-1.3-0.7-2.8-0.8-4.1-0.2c-0.5,0.1-1.1,0.2-1.6,0.3c-3.4,0.3-6.9,0.3-10.3,0.2c-0.9,0-1.8,0-2.7,0h-0.5c-0.3-0.1-0.5-0.3-0.7-0.5
	c-0.2-0.3-0.6-0.4-1-0.3c-1.2,0.3-2.4,0.6-3.6,0.9c-1.1,0-2.1,0-3.1-0.1c-0.1,0-0.1-0.1-0.2-0.1c-0.4-0.3-0.9-0.6-1.3,0
	c-0.6-0.1-1.2-0.1-1.8-0.2c0.1,0.3,0.1,0.6,0.1,0.9c-0.2,0-0.4,0-0.6,0.2c0.1,0.2,0.2,0.4,0.2,0.6h0.1V70l0,0.4l0,0.7
	c0,0.1,0,0.1,0,0.2c-0.1,0.7-0.1,1.4,0.2,2c0,0,0,0.1,0,0.1c1.1,2.5-0.3,5.1,0.5,7.6c0,0.1,0,0.3-0.1,0.4c-0.1,0.1-0.1,0.2-0.2,0.3
	c-0.7,0.9-0.8,2.2-0.1,3.2c0.2,0.5,0.3,1,0.2,1.6c-0.4,2.7-1,5.4,0.1,8.1c0.1,0.2,0.1,0.5,0,0.7c-0.7,2.4,0.1,4.8-0.1,7.2
	c-0.2,2.1-0.6,4.2,0.1,6.3c0.1,0.3-0.1,0.6-0.1,0.9c-0.1,0.9-0.1,1.9,0,2.8c0.5,2.3,0.5,4.7,0.1,7.1c0.1-0.1,0.1-0.2,0.2-0.3
	C530.7,118.4,531.5,117.6,532.3,116.7z"/>
<path class="st2" d="M576.5,109.3C576.5,109.3,576.5,109.3,576.5,109.3L576.5,109.3L576.5,109.3z"/>
<path class="st2" d="M584.6,73.6L584.6,73.6c0.1-0.3-0.1-0.5-0.1-0.7c0-0.1-0.1-0.1-0.1-0.1c0.1,0,0.1-0.1,0.2-0.1
	c0-0.2,0-0.3,0-0.5v-0.2c0-0.1-0.1-0.2-0.1-0.3l0,0c0-0.2-0.1-0.3-0.1-0.5c0-0.1-0.1-0.2,0-0.3c0-0.3,0-0.5,0-0.8v-0.2
	c-0.1-0.2-0.1-0.4-0.1-0.6c0-0.1,0-0.3,0-0.4c0,0,0,0,0,0c-0.5,0.7-0.9,0.6-1.3,0.3c0.3-0.6,0.5-1.2,0.5-1.8l-0.3,0
	c-0.3,0.3-0.7,0.5-1,0.7c-0.2,0.1-0.4,0.3-0.6,0.5c-0.5,0.6-1,1.3-1.8,1.5c0,0-0.1,0-0.1,0.1c-0.5,0.6-1.1,1.2-1.7,1.7
	c-0.5,0.7-1.1,1.3-1.8,1.8c-0.4,0.3-0.8,0.7-1,1.2c-0.3,0.6-0.7,1-1.3,1.4c-0.6,0.5-1.4,0.9-1.6,1.8c0,0.1-0.1,0.2-0.2,0.3
	c-0.3,0.4-0.6,0.7-1,0.9c-0.5,0.2-0.7,0.6-1.1,0.8c-0.8,0.4-1.5,1.1-2,1.9c-0.5,0.7-1.1,1.4-1.9,1.9c-0.1,0.1-0.2,0.2-0.3,0.3
	c-0.4,0.5-0.9,0.8-1.5,0.9c-0.1,0.2-0.2,0.3-0.3,0.5c-0.2,0.5-0.6,0.9-1.1,1.1c-0.3,0.2-0.6,0.5-0.8,0.8c-0.1,0.2-0.3,0.4-0.5,0.6
	c-0.9,0.6-1.6,1.4-2.3,2.2c-0.7,0.9-1.8,1.4-2.6,2.3c-0.7,0.2-1.2,0.7-1.4,1.3c-0.1,0.2-0.3,0.4-0.5,0.6c-0.5,0.5-0.9,1.1-1.3,1.7
	c-0.2,0.5-0.6,0.9-1.2,1c-0.5,0.1-0.9,0.4-1,0.8c-0.1,0.2-0.2,0.3-0.3,0.4c-0.9,1.1-2,2.1-3,3c-0.2,0.2-0.5,0.4-0.7,0.7
	c-0.6,0.7-1.4,1.4-2.2,1.9c-0.4,0.3-0.7,0.6-1,0.9c-0.7,1-1.6,1.9-2.5,2.7c-0.1,0.1-0.2,0.1-0.2,0.2c-0.2,0.5-0.7,0.7-1.1,0.9
	c-0.3,0.1-0.5,0.3-0.7,0.4c-0.6,0.6-1.2,1.2-1.8,1.8c-0.3,0.4-0.7,0.7-1.2,0.9c-0.3,0.1-0.5,0.3-0.6,0.6c-0.7,0.8-1.4,1.6-2.1,2.4
	c-0.3,0.4-0.7,0.7-1.1,0.9c-0.3,0.1-0.5,0.3-0.7,0.5c-0.8,0.9-1.6,1.8-2.5,2.5c-0.1,0.1-0.2,0.2-0.2,0.3c0,0.1,0,0.2,0,0.3l2.9-0.2
	c1-0.2,2,0,2.8,0.5c0.9,0.6,2.1,0.7,3.2,0.4c0.5-0.1,1.1-0.2,1.6-0.4c1.7-0.4,3.6-0.5,5.3,0c2.3,0.6,4.7,0.1,7,0.4
	c1.1-0.4,2.4-0.4,3.5,0c0.3,0.1,0.7,0,1-0.1c1.3-0.3,2.7-0.3,4-0.2c3.1,0.1,6.2,1,9.2-0.2c0.2,0,0.4,0,0.7,0
	c2.1,0.1,4.1-0.1,6.2-0.1c1.3-0.1,2.6,0,3.9,0.1c1,0.1,2,0.1,3,0.1c-0.1-0.3-0.1-0.5-0.2-0.7c-0.6-1.8-0.3-3.6-0.6-5.4
	c0-0.2,0-0.4-0.1-0.6c0-0.2,0-0.5,0.2-0.7c1-1.1,0.7-2.3,0.5-3.4c-0.2-1.4-0.5-2.8,0.1-4.2c0.6-1.3,1.3-2.5,0.2-3.8
	c-0.1-0.2,0-0.5,0-0.7c0.1-1.3,0-2.7,0.2-4c0.2-1.3-0.7-2.6,0.3-3.9c0.1-0.1,0-0.3-0.1-0.4c-0.5-0.9-0.6-2-0.2-3
	c0.2-0.6,0-1.2-0.4-1.6c-1.3-0.9-0.8-1.9-0.4-2.9c0.6-1.5,0.8-3.2,0.5-4.9c-0.2-1.1-0.3-2.1-0.5-3.2c0,0,0.1-0.1,0.1-0.1
	c0.3-0.2,0.5-0.5,0.7-0.8c0,0,0-0.1,0.1-0.1c0.1-0.1,0.3-0.2,0.4-0.4c0,0,0-0.1,0-0.1v0c0-0.1,0.1-0.1,0-0.1c-0.2-0.2,0-0.4,0-0.6
	c0-0.1,0-0.2,0.1-0.3c0-0.1,0.1-0.2,0-0.2c0,0,0,0,0-0.1C584.7,73.9,584.7,73.7,584.6,73.6z M576.5,109.3L576.5,109.3
	C576.5,109.3,576.5,109.3,576.5,109.3z"/>
<path class="st0" d="M513.8,74.4L513.8,74.4C513.8,74.4,513.8,74.4,513.8,74.4L513.8,74.4z"/>
<path class="st1" d="M476,119.7c0.3-0.4,0.6-0.9,0.9-1.3c0.9-0.8,1.6-1.7,2.4-2.6c0.2-0.2,0.4-0.4,0.6-0.5c0.4-0.2,0.8-0.6,1.1-1
	c0.6-0.8,1.3-1.6,2-2.4c0.2-0.2,0.4-0.4,0.6-0.6c0.5-0.2,0.8-0.6,1.1-0.9c0.6-0.6,1.2-1.2,1.8-1.9c0.2-0.2,0.4-0.3,0.7-0.5
	c0.4-0.2,0.9-0.4,1.1-1c0-0.1,0.1-0.2,0.2-0.3c0.9-0.8,1.7-1.7,2.4-2.7c0.3-0.4,0.6-0.7,1-0.9c0.8-0.5,1.5-1.2,2.1-1.9
	c0.2-0.3,0.5-0.5,0.7-0.7c1-1,2-2,2.9-3.1c0.1-0.1,0.2-0.3,0.3-0.5c0.1-0.5,0.5-0.8,1-0.9c0.5-0.2,0.9-0.6,1.1-1.1
	c0.4-0.6,0.8-1.2,1.2-1.8c0.2-0.2,0.3-0.4,0.5-0.6c0.2-0.7,0.7-1.2,1.4-1.4c0.8-0.8,1.8-1.4,2.5-2.3c0.6-0.9,1.4-1.7,2.2-2.3
	c0.2-0.2,0.3-0.4,0.4-0.6c0.2-0.3,0.5-0.6,0.8-0.8c0.5-0.3,0.8-0.7,1-1.2c0.1-0.2,0.2-0.3,0.3-0.5c0.6-0.1,1.1-0.4,1.5-0.9
	c0.1-0.1,0.2-0.2,0.3-0.3c0.7-0.5,1.3-1.2,1.8-1.9c0.4-0.8,1.1-1.5,1.9-2c0.4-0.2,0.6-0.7,1-0.9c0.4-0.3,0.7-0.6,1-0.9
	c0.1-0.1,0.1-0.2,0.2-0.3c0.2-0.9,0.9-1.3,1.5-1.9c0.5-0.4,0.9-0.9,1.2-1.5c0.3-0.5,0.6-0.9,1-1.2c0.7-0.5,1.2-1.2,1.7-1.9
	c0.5-0.4,1-0.9,1.3-1.4c0-0.4,0-0.8,0-1.2c-0.3,0.1-0.5,0.1-0.7,0.2c-2,0.7-4,0.2-6,0.6c-0.2,0-0.5,0-0.7-0.2
	c-1.1-1-2.3-0.7-3.4-0.5c-1.4,0.2-2.8,0.5-4.2-0.1c-1.3-0.6-2.5-1.3-3.8-0.2c-0.2,0.1-0.5,0-0.7,0c-1.3-0.1-2.7,0-4-0.2
	c-1.3-0.2-2.6,0.7-3.9-0.3c-0.1-0.1-0.3,0-0.5,0.1c-0.9,0.5-2,0.6-3,0.2c-0.6-0.2-1.2,0-1.6,0.4c-0.9,1.3-1.9,0.8-2.9,0.4
	c-1.5-0.6-3.2-0.8-4.9-0.5c-1.1,0.2-2.1,0.3-3.2,0.5c0,0-0.1-0.1-0.1-0.1c-0.2-0.3-0.5-0.5-0.8-0.7c0,0-0.1,0-0.1-0.1
	c-0.1-0.1-0.2-0.3-0.4-0.4c0,0-0.1,0-0.1,0h0c-0.1,0-0.1-0.1-0.1,0c-0.2,0.2-0.4,0-0.6,0c-0.1,0-0.2,0-0.3-0.1c-0.1,0-0.2-0.1-0.2,0
	c0,0,0,0-0.1,0c-0.2,0.1-0.3,0-0.4,0.1H478c-0.2-0.1-0.5,0.1-0.6,0.1c-0.1,0-0.1,0.1-0.1,0.1c0-0.1-0.1-0.1-0.1-0.2
	c-0.2,0-0.3,0-0.5,0h-0.2c-0.1,0-0.2,0.1-0.3,0.1l0,0c-0.2,0-0.3,0.1-0.5,0.1c-0.1,0-0.2,0.1-0.3,0c-0.3,0-0.5,0-0.8,0h-0.2
	c-0.2,0.1-0.4,0.1-0.6,0.1c-0.1,0-0.3,0-0.4,0c0,0,0,0,0,0c0.7,0.5,0.6,0.9,0.3,1.3c-0.6-0.3-1.2-0.5-1.8-0.5c0,0.3,0,0.6-0.1,0.9
	c0,0.8-0.1,1.7-0.1,2.5c-0.7,1.8-0.7,3.8-0.1,5.7c0,0.2,0.1,0.3,0.1,0.5c0.1,0.8,0.2,1.6,0.2,2.3c0,0.2,0,0.4,0,0.7
	c0.1,2,0.4,4,0.8,6c0.4,1.5,0.7,3.4-0.2,4.9c-0.7,1.3-0.8,2.8-0.2,4.1c0.1,0.5,0.2,1.1,0.3,1.6c0.3,3.4,0.3,6.9,0.2,10.3
	c0,0.9,0,1.8,0,2.7v0.5c-0.1,0.3-0.3,0.5-0.5,0.7c-0.3,0.2-0.4,0.6-0.3,1c0.3,1.2,0.6,2.4,0.9,3.6c0,1.1,0,2.1-0.1,3.1
	c0,0.1-0.1,0.1-0.1,0.2c-0.3,0.4-0.6,0.9,0,1.3c-0.1,0.6-0.1,1.2-0.2,1.8c0.3-0.1,0.6-0.1,0.9-0.1c0,0.1,0,0.1,0,0.2
	c0.4-0.4,0.7-0.7,1.1-1.1C475.1,120.4,475.6,120.1,476,119.7z M513.8,74.4L513.8,74.4C513.8,74.4,513.8,74.4,513.8,74.4L513.8,74.4z
	"/>
<path class="st2" d="M524.7,110.9c-0.4-1.7-0.5-3.6,0-5.3c0.6-2.3,0.1-4.7,0.4-7c-0.4-1.1-0.4-2.4,0-3.5c0.1-0.3,0-0.7-0.1-1
	c-0.3-1.3-0.3-2.7-0.2-4c0.1-3.1,1-6.2-0.2-9.2c0-0.2,0-0.4,0-0.7c0.1-3.4-0.3-6.7-0.1-10.1c0-0.6,0-1.2,0.1-1.9
	c-0.4,0.5-0.8,1-1.3,1.4c-0.5,0.7-1,1.3-1.7,1.9c-0.4,0.4-0.7,0.8-1,1.2c-0.3,0.6-0.7,1.1-1.2,1.5c-0.6,0.6-1.3,1-1.5,1.9
	c0,0.1-0.1,0.2-0.2,0.3c-0.3,0.4-0.6,0.7-1,0.9c-0.5,0.2-0.7,0.7-1,0.9c-0.8,0.5-1.5,1.2-1.9,2c-0.5,0.7-1.1,1.4-1.8,1.9
	c-0.1,0.1-0.2,0.2-0.3,0.3c-0.3,0.5-0.9,0.8-1.5,0.9c-0.1,0.2-0.2,0.4-0.3,0.5c-0.2,0.5-0.6,0.9-1,1.2c-0.3,0.2-0.6,0.5-0.8,0.8
	c-0.1,0.2-0.3,0.4-0.4,0.6c-0.8,0.7-1.6,1.4-2.2,2.3c-0.7,0.9-1.7,1.5-2.5,2.3c-0.6,0.2-1.2,0.7-1.4,1.4c-0.1,0.2-0.3,0.4-0.5,0.6
	c-0.5,0.5-0.9,1.1-1.2,1.8c-0.2,0.5-0.6,0.9-1.1,1.1c-0.5,0.1-0.8,0.4-1,0.9c-0.1,0.2-0.2,0.3-0.3,0.5c-0.9,1.1-1.9,2.2-2.9,3.1
	c-0.2,0.2-0.5,0.4-0.7,0.7c-0.6,0.8-1.3,1.4-2.1,1.9c-0.4,0.3-0.7,0.6-1,0.9c-0.7,1-1.5,1.9-2.4,2.7c-0.1,0.1-0.2,0.2-0.2,0.3
	c-0.2,0.5-0.6,0.7-1.1,1c-0.3,0.1-0.5,0.3-0.7,0.5c-0.5,0.7-1.1,1.3-1.8,1.9c-0.4,0.3-0.6,0.7-1.1,0.9c-0.2,0.1-0.5,0.3-0.6,0.6
	c-0.7,0.8-1.3,1.6-2,2.4c-0.3,0.4-0.7,0.7-1.1,1c-0.2,0.1-0.5,0.3-0.6,0.5c-0.7,0.9-1.5,1.8-2.4,2.6c-0.3,0.4-0.7,0.8-0.9,1.3
	c-0.4,0.4-0.9,0.7-1.3,1.1c-0.4,0.3-0.7,0.7-1.1,1.1c0,0.1,0.1,0.3,0.1,0.4c0.2-0.1,0.4-0.2,0.6-0.2V122h0.1l0.4,0l0.7,0
	c0.1,0,0.1,0,0.2,0c0.7,0.1,1.4,0.1,2-0.2c0,0,0.1,0,0.1,0c2.5-1.1,5.1,0.3,7.6-0.5c0.1,0,0.3,0,0.4,0.1c0.1,0.1,0.2,0.1,0.3,0.2
	c0.9,0.7,2.2,0.8,3.2,0.1c0.5-0.2,1-0.3,1.6-0.2c2.7,0.4,5.4,1,8.1-0.1c0.2-0.1,0.5-0.1,0.7,0c2.4,0.7,4.8-0.1,7.2,0.1
	c2.1,0.2,4.2,0.6,6.3-0.1c0.3-0.1,0.6,0.1,0.9,0.1c0.9,0.1,1.9,0.1,2.8,0c1.2-0.2,2.3-0.3,3.5-0.4c1.3-0.1,2.6,0,3.9,0.3
	c-0.1-1-0.1-1.9-0.2-2.9c0-0.3,0-0.7,0-1c0-0.6,0.2-1.3,0.5-1.8c0.6-0.9,0.7-2.1,0.4-3.2C525,111.9,524.8,111.4,524.7,110.9z"/>
<path class="st1" d="M413.4,118.3c0.4-0.4,0.9-0.7,1.3-1.1c0.1-0.1,0.2-0.3,0.3-0.4c0.1-0.4,0.3-0.7,0.7-0.9
	c0.8-0.6,1.6-1.2,2.4-1.8c0.3-0.3,0.5-0.6,0.7-0.9l0.8-0.1c0.4-0.7,0.9-1.3,1.7-1.6c0.2-0.1,0.3-0.2,0.4-0.3
	c0.6-0.6,1.2-1.2,1.9-1.7c0.9-0.6,1.5-1.5,2.4-2.2c0.1,0,0.1-0.1,0.2-0.1c0.4-1,1.4-1.4,2.1-2c0.4-0.2,0.7-0.5,0.9-0.9
	c0-0.1,0.1-0.2,0.2-0.2c0.4-0.1,0.7-0.4,0.8-0.7c0.6-0.4,1.1-1.1,1.8-1.4c0.5-0.2,1-0.6,1.2-1.1c0.1-0.2,0.2-0.3,0.3-0.5
	c0.2-0.3,0.5-0.5,0.9-0.5c0.3,0,0.6-0.2,0.8-0.4c0.8-0.9,1.7-1.8,2.5-2.7c0.5-0.5,0.9-1.1,1.3-1.7c0.6-0.8,1.4-1.4,2.4-1.7
	c0.3-0.1,0.6-0.3,0.8-0.5c0.6-0.7,1.1-1.5,1.5-2.4c0.2,0,0.4-0.1,0.7-0.2c0.7,0,1.4-0.4,1.7-1.1c0-0.1,0.1-0.1,0.1-0.1
	c0.6-0.2,0.8-0.6,1.2-1c0.5-0.6,1.1-1.2,1.8-1.6c0.7-0.4,1.3-1.1,1.5-1.9c0.2-0.6,0.6-1.1,1.1-1.5c0.4,0,0.7-0.1,1.1-0.1
	c1-0.2,1.9-0.8,2.5-1.7c0.2-0.3,0.5-0.6,0.8-0.9c0.6-0.6,1.2-1.2,1.7-1.8c0.3-0.4,0.6-0.8,1.1-1c0.4-0.3,0.8-0.6,1.1-1
	c0.8-0.9,1.7-1.8,2.6-2.5c0.4-0.3,0.9-0.6,1.3-0.9c0.4-0.3,0.6-0.8,0.9-1.2c0.6-0.7,1.4-1.1,2.2-1.4c0.2-0.1,0.4-0.2,0.6-0.4
	c0.1-0.1,0.2-0.2,0.3-0.3c0-0.4,0.1-0.8,0.2-1.2c-1,0.1-1.9,0.1-2.9,0.2c-1,0.2-2,0-2.8-0.5c-0.9-0.6-2.1-0.7-3.1-0.4
	c-0.5,0.1-1.1,0.2-1.6,0.4c-1.7,0.4-3.6,0.5-5.3,0c-2.3-0.6-4.7-0.1-7-0.4c-1.1,0.4-2.4,0.4-3.5,0c-0.3-0.1-0.7,0-1,0.1
	c-1.3,0.3-2.7,0.3-4,0.2c-3.1-0.1-6.2-1-9.2,0.2c-0.2,0-0.4,0-0.7,0c-3.4-0.1-6.7,0.3-10.1,0.1c-1-0.1-2-0.1-3-0.1
	c0.1,0.3,0.1,0.5,0.2,0.7c0.7,2,0.2,4,0.6,6c0,0.2,0,0.5-0.2,0.7c-1,1.1-0.7,2.3-0.5,3.4c0.2,1.4,0.5,2.8-0.1,4.2
	c-0.6,1.3-1.3,2.5-0.2,3.8c0.1,0.2,0,0.5,0,0.7c-0.1,1.3,0,2.7-0.2,4s0.7,2.6-0.3,3.9c-0.1,0.1,0,0.3,0.1,0.4c0.5,0.9,0.6,2,0.2,3
	c-0.2,0.6,0,1.1,0.4,1.6c1.3,0.9,0.8,1.9,0.4,2.9c-0.6,1.5-0.8,3.2-0.5,4.9c0.2,1.1,0.3,2.1,0.5,3.2c0,0-0.1,0.1-0.1,0.1
	c-0.3,0.2-0.5,0.5-0.7,0.8c0,0,0,0.1-0.1,0.1c-0.1,0.1-0.3,0.2-0.4,0.4c0,0,0,0.1,0,0.1v0c0,0.1-0.1,0.1,0,0.1c0.2,0.2,0,0.4,0,0.6
	c0,0.1,0,0.2-0.1,0.3c0,0.1-0.1,0.2,0,0.2c0,0,0,0,0,0.1c0.1,0.2,0,0.3,0.1,0.4v0.1c-0.1,0.2,0.1,0.5,0.1,0.6c0,0.1,0.1,0.1,0.1,0.1
	c-0.1,0-0.1,0.1-0.2,0.1c0,0.2,0,0.3,0,0.5v0.2c0,0.1,0.1,0.2,0.1,0.3l0,0c0,0.2,0.1,0.3,0.1,0.5c0,0.1,0.1,0.2,0,0.3
	c0,0.3,0,0.5,0,0.8v0.2c0.1,0.2,0.1,0.4,0.1,0.6v0.1C413.1,118.6,413.2,118.5,413.4,118.3z M420.9,79L420.9,79
	C420.8,79,420.8,79,420.9,79L420.9,79z"/>
<path class="st2" d="M468.7,119c-0.1-0.2-0.2-0.4-0.2-0.6h-0.1v-0.1l0-0.4l0-0.7c0-0.1,0-0.1,0-0.2c0.1-0.7,0.1-1.4-0.2-2
	c0,0,0-0.1,0-0.1c-0.2-0.4-0.3-0.7-0.3-1.1c-0.4-2.2,0.5-4.3-0.2-6.4c0-0.1,0-0.3,0.1-0.4c0.1-0.1,0.1-0.2,0.2-0.3
	c0.7-0.9,0.8-2.2,0.1-3.2c-0.2-0.5-0.3-1-0.2-1.6c0.4-2.7,1-5.4-0.1-8.1c-0.1-0.2-0.1-0.5,0-0.7c0.7-2.4-0.1-4.8,0.1-7.2
	c0.2-2.1,0.6-4.2-0.1-6.3c-0.1-0.3,0.1-0.6,0.1-0.9c0.1-0.9,0.1-1.9,0-2.8c-0.4-2.1-0.5-4.2-0.3-6.2c-0.1,0.1-0.2,0.2-0.3,0.3
	c-0.2,0.2-0.4,0.3-0.6,0.4c-0.9,0.2-1.6,0.7-2.2,1.4c-0.4,0.3-0.6,0.8-0.9,1.2c-0.4,0.4-0.9,0.6-1.3,0.9c-0.9,0.8-1.8,1.6-2.6,2.5
	c-0.3,0.4-0.7,0.7-1.1,1c-0.4,0.3-0.8,0.6-1.1,1c-0.5,0.6-1.1,1.3-1.7,1.8c-0.3,0.3-0.5,0.6-0.8,0.9c-0.6,0.9-1.4,1.5-2.5,1.7
	c-0.3,0.1-0.7,0.1-1.1,0.1c-0.5,0.4-0.9,0.9-1.1,1.5c-0.2,0.8-0.8,1.5-1.5,1.9c-0.7,0.4-1.3,1-1.8,1.6c-0.4,0.4-0.6,0.9-1.2,1
	c-0.1,0-0.1,0.1-0.1,0.1c-0.3,0.6-1,1.1-1.7,1.1c-0.2,0-0.5,0.1-0.7,0.2c-0.4,0.9-0.9,1.7-1.5,2.4c-0.2,0.2-0.5,0.4-0.8,0.5
	c-1,0.3-1.8,0.9-2.4,1.7c-0.4,0.6-0.8,1.1-1.3,1.7c-0.8,0.9-1.6,1.8-2.5,2.7c-0.2,0.3-0.5,0.4-0.8,0.4c-0.4,0-0.7,0.2-0.9,0.5
	c-0.1,0.1-0.2,0.3-0.3,0.5c-0.3,0.5-0.7,0.9-1.2,1.1c-0.7,0.3-1.1,1-1.8,1.4c-0.1,0.4-0.5,0.6-0.8,0.7c-0.1,0-0.2,0.1-0.2,0.2
	c-0.2,0.4-0.5,0.7-0.9,0.9c-0.7,0.6-1.7,1-2.1,2c0,0.1-0.1,0.1-0.2,0.1c-0.8,0.7-1.5,1.5-2.4,2.2c-0.7,0.5-1.3,1.1-1.9,1.7
	c-0.1,0.1-0.3,0.2-0.4,0.3c-0.7,0.3-1.3,0.9-1.7,1.6l-0.8,0.1c-0.2,0.3-0.5,0.6-0.7,0.9c-0.8,0.6-1.6,1.2-2.4,1.8
	c-0.3,0.2-0.6,0.6-0.7,0.9c0,0.2-0.1,0.3-0.3,0.4c-0.4,0.4-0.9,0.7-1.3,1.1c-0.2,0.1-0.3,0.3-0.5,0.5c0,0.1,0,0.2,0,0.3c0,0,0,0,0,0
	c0.5-0.7,0.9-0.6,1.3-0.3c-0.3,0.6-0.5,1.2-0.5,1.8c0.3,0,0.6,0,0.9,0.1c0.8,0,1.7,0.1,2.5,0.1c1.8,0.7,3.8,0.7,5.6,0.1
	c0.2,0,0.3-0.1,0.5-0.1c0.8-0.1,1.6-0.2,2.3-0.2c0.2,0,0.4,0,0.7,0c2-0.1,4-0.3,6-0.7c1.5-0.4,3.4-0.7,4.9,0.2
	c1.3,0.7,2.8,0.8,4.1,0.2c0.5-0.1,1.1-0.2,1.6-0.3c3.4-0.3,6.9-0.3,10.3-0.2c0.9,0,1.8,0,2.7,0h0.5c0.3,0.1,0.5,0.3,0.7,0.5
	c0.2,0.3,0.6,0.4,1,0.3c1.1-0.2,2.1-0.5,3.2-0.8c0.1,0,0.3-0.1,0.4-0.1c1.1,0,2.1,0,3.1,0.1c0.1,0,0.1,0.1,0.2,0.1
	c0.4,0.3,0.9,0.6,1.3,0c0.6,0.1,1.2,0.1,1.8,0.2c-0.1-0.3-0.1-0.6-0.1-0.9C468.4,119.2,468.6,119.2,468.7,119z"/>
<path class="st1" d="M415.1,59c0.1-0.4,0.3-0.7,0.6-1c0.7-0.7,1.5-1.3,2.2-2c0.3-0.3,0.5-0.6,0.7-0.9l0.7-0.2
	c0.3-0.7,0.9-1.3,1.6-1.7c0.2-0.1,0.3-0.2,0.4-0.3c0.6-0.6,1.2-1.3,1.8-1.8c0.8-0.7,1.4-1.6,2.2-2.3c0.1,0,0.1-0.1,0.2-0.1
	c0.3-1,1.3-1.5,2-2.2c0.3-0.3,0.6-0.6,0.8-1c0-0.1,0.1-0.2,0.2-0.2c0.4-0.1,0.7-0.4,0.8-0.8c0.6-0.4,1-1.1,1.7-1.5
	c0.5-0.3,0.9-0.7,1.2-1.2c0.1-0.2,0.2-0.3,0.2-0.5c0.2-0.3,0.5-0.6,0.8-0.6c0.3,0,0.6-0.2,0.8-0.5c0.8-0.9,1.6-1.9,2.3-2.8
	c0.4-0.6,0.8-1.2,1.2-1.7c0.5-0.9,1.3-1.5,2.2-1.9c0.3-0.1,0.5-0.3,0.7-0.6c0.6-0.7,1-1.6,1.3-2.5c0.2-0.1,0.4-0.1,0.7-0.2
	c0.7,0,1.3-0.5,1.6-1.2c0-0.1,0.1-0.1,0.1-0.1c0.5-0.2,0.8-0.7,1.1-1.1c0.5-0.7,1.1-1.3,1.7-1.7c0.7-0.5,1.2-1.2,1.4-2
	c0.2-0.6,0.5-1.2,1-1.6c0.4-0.1,0.7-0.1,1-0.2c1-0.3,1.9-1,2.4-1.9c0.2-0.3,0.5-0.6,0.7-0.9c0.6-0.6,1.1-1.2,1.6-1.9
	c0.3-0.4,0.6-0.8,1-1.1c0.4-0.3,0.8-0.7,1.1-1.1c0.7-1,1.6-1.9,2.4-2.7c0.4-0.4,0.9-0.6,1.2-1c0.3-0.4,0.5-0.9,0.8-1.2
	c0.6-0.7,1.3-1.2,2.1-1.5c0.2-0.1,0.4-0.2,0.6-0.4c0.3-0.4,0.7-0.8,1.1-1.1c0-0.2,0-0.3,0.1-0.5c-0.3,0.1-0.6,0.1-0.9,0.1
	c0-0.2,0-0.4-0.2-0.6C464.4,6.9,464.2,7,464,7v0.1h-0.1l-0.4,0l-0.7,0c-0.1,0-0.1,0-0.2,0c-0.7-0.1-1.4-0.1-2,0.2c0,0-0.1,0-0.1,0
	c-2.5,1.1-5.1-0.3-7.6,0.5c-0.1,0-0.3,0-0.4-0.1c-0.1-0.1-0.2-0.1-0.3-0.2c-0.9-0.7-2.2-0.8-3.2-0.1c-0.5,0.2-1,0.3-1.6,0.2
	c-2.7-0.4-5.4-1-8.1,0.1c-0.2,0.1-0.5,0.1-0.7,0c-2.4-0.7-4.8,0.1-7.2-0.1c-2.1-0.2-4.2-0.6-6.3,0.1c-0.3,0.1-0.6-0.1-0.9-0.1
	c-0.9-0.1-1.9-0.1-2.8,0c-2.5,0.5-5,0.5-7.5,0.1c0.1,1,0.1,1.9,0.2,2.9c0.2,1,0,2-0.5,2.8c-0.6,0.9-0.7,2.1-0.4,3.1
	c0.1,0.5,0.2,1.1,0.4,1.6c0.4,1.7,0.5,3.6,0,5.3c-0.6,2.3-0.1,4.7-0.4,7c0.4,1.1,0.4,2.4,0,3.5c-0.1,0.3,0,0.7,0.1,1
	c0.3,1.3,0.3,2.7,0.1,4c-0.1,3.1-1,6.2,0.2,9.2c0,0.2,0,0.4,0,0.7c-0.1,3.4,0.3,6.7,0.1,10.1c0,0.5,0,1,0,1.6
	c0.4-0.4,0.8-0.8,1.2-1.2C415,59.3,415.1,59.1,415.1,59z"/>
<path class="st2" d="M466.7,53.8c-0.1-0.4-0.1-0.7-0.2-1.1c0-0.2-0.1-0.3-0.1-0.5c-0.1-0.8-0.2-1.6-0.2-2.3c0-0.2,0-0.4,0-0.7
	c-0.1-2-0.3-4-0.7-6c-0.4-1.5-0.7-3.4,0.2-4.9c0.7-1.3,0.8-2.8,0.2-4.1c-0.1-0.5-0.2-1.1-0.3-1.6c-0.3-3.4-0.3-6.9-0.2-10.3
	c0-0.9,0-1.8,0-2.7V19c0.1-0.3,0.3-0.5,0.5-0.7c0.3-0.2,0.4-0.6,0.3-1c-0.3-1.2-0.6-2.4-0.9-3.6c0-1.1,0-2.1,0.1-3.1
	c0-0.1,0.1-0.1,0.1-0.2c0.3-0.4,0.6-0.9,0-1.3c0-0.5,0.1-0.9,0.2-1.3c-0.4,0.3-0.8,0.7-1.1,1.1c-0.1,0.2-0.3,0.4-0.6,0.4
	c-0.8,0.3-1.6,0.8-2.1,1.5c-0.3,0.4-0.5,0.9-0.8,1.2c-0.4,0.4-0.8,0.6-1.2,1c-0.9,0.8-1.7,1.7-2.4,2.7c-0.3,0.4-0.7,0.8-1.1,1.1
	c-0.4,0.3-0.7,0.7-1,1.1c-0.5,0.7-1,1.3-1.6,1.9c-0.3,0.3-0.5,0.6-0.7,0.9c-0.5,0.9-1.4,1.6-2.4,1.9c-0.3,0.1-0.7,0.1-1,0.2
	c-0.5,0.4-0.8,1-1,1.6c-0.2,0.8-0.7,1.5-1.4,2c-0.7,0.5-1.3,1.1-1.7,1.7c-0.3,0.4-0.6,0.9-1.1,1.1c-0.1,0-0.1,0.1-0.1,0.1
	c-0.3,0.7-0.9,1.1-1.6,1.2c-0.2,0.1-0.5,0.1-0.7,0.2c-0.3,0.9-0.8,1.7-1.3,2.5c-0.2,0.2-0.5,0.4-0.7,0.6c-0.9,0.3-1.7,1-2.2,1.9
	c-0.4,0.6-0.8,1.2-1.2,1.7c-0.7,1-1.5,1.9-2.3,2.8c-0.2,0.3-0.5,0.5-0.8,0.5c-0.4,0-0.7,0.3-0.8,0.6c-0.1,0.2-0.2,0.3-0.2,0.5
	c-0.2,0.5-0.7,0.9-1.2,1.2c-0.7,0.3-1.1,1-1.7,1.5c-0.1,0.4-0.4,0.7-0.8,0.8c-0.1,0.1-0.2,0.1-0.2,0.2c-0.2,0.4-0.5,0.7-0.8,1
	c-0.7,0.7-1.7,1.1-2,2.2c0,0.1-0.1,0.1-0.2,0.1c-0.8,0.7-1.4,1.6-2.2,2.3c-0.6,0.6-1.2,1.2-1.8,1.8c-0.1,0.1-0.3,0.2-0.4,0.3
	c-0.7,0.4-1.2,1-1.6,1.7l-0.7,0.2c-0.2,0.3-0.4,0.6-0.7,0.9c-0.7,0.7-1.5,1.3-2.2,2c-0.3,0.2-0.5,0.6-0.6,1c0,0.2-0.1,0.3-0.2,0.5
	c-0.4,0.4-0.8,0.8-1.2,1.2c0,0.5,0,1,0,1.5c0.3-0.1,0.5-0.1,0.7-0.2c2-0.7,4-0.2,6-0.6c0.2,0,0.5,0,0.7,0.2c1.1,1,2.3,0.7,3.4,0.5
	c1.4-0.2,2.8-0.5,4.2,0.1c1.3,0.6,2.5,1.3,3.8,0.2c0.2-0.1,0.5,0,0.7,0c1.3,0.1,2.7,0,4,0.2c1.3,0.2,2.6-0.7,3.9,0.3
	c0.1,0.1,0.3,0,0.4-0.1c0.9-0.5,2-0.6,3-0.2c0.6,0.2,1.1,0,1.6-0.4c0.9-1.3,1.9-0.8,2.9-0.4c1.5,0.6,3.2,0.8,4.9,0.5
	c1.1-0.2,2.1-0.3,3.2-0.5c0,0,0.1,0.1,0.1,0.1c0.2,0.3,0.5,0.5,0.8,0.7c0,0,0.1,0,0.1,0.1c0,0,0,0,0.1,0.1c0.1,0.1,0.2,0.2,0.3,0.3
	l0.1,0h0h0c0.1,0,0.1,0.1,0.1,0c0.2-0.2,0.4,0,0.6,0c0.1,0,0.2,0,0.3,0.1c0.1,0,0.2,0.1,0.2,0c0,0,0,0,0.1,0c0.2-0.1,0.3,0,0.4-0.1
	h0.1c0.2,0.1,0.5-0.1,0.6-0.1c0.1,0,0.1-0.1,0.1-0.1c0,0.1,0.1,0.1,0.1,0.2c0.2,0,0.3,0,0.5,0h0.2c0.1,0,0.2-0.1,0.3-0.1l0,0
	c0.2,0,0.3-0.1,0.5-0.1c0.1,0,0.2-0.1,0.3,0c0.3,0,0.5,0,0.8,0h0.2c0.2-0.1,0.4-0.1,0.6-0.1c0.1,0,0.3,0,0.4,0c0,0,0,0,0,0
	c-0.7-0.5-0.6-0.9-0.3-1.3c0.6,0.3,1.2,0.5,1.8,0.5c0-0.3,0-0.6,0.1-0.9c0-0.8,0.1-1.7,0.1-2.5C466.9,56.9,467,55.3,466.7,53.8z
	 M424.5,54.7L424.5,54.7C424.5,54.7,424.5,54.7,424.5,54.7L424.5,54.7z"/>
<path class="st1" d="M355.9,114.8c0.1-0.1,0.2-0.2,0.3-0.3c0.6-0.8,1.3-1.4,2.1-2c0.8-0.8,1.6-1.5,2.4-2.2c0.1-0.1,0.2-0.1,0.2-0.2
	c0.7-1,1.6-1.9,2.7-2.5c0.2-0.1,0.4-0.3,0.5-0.5c0.2-0.5,0.6-0.8,1.1-1c0.1,0,0.2-0.1,0.3-0.1c0.7-1,1.8-1.5,2.5-2.5
	c0.3-0.4,0.7-0.8,1.2-1.1c0.3-0.2,0.5-0.5,0.7-0.8c0.3-0.5,0.6-0.9,1.1-1.2c0.9-0.6,1.7-1.3,2.5-2c0.4-0.4,0.9-0.7,1.3-1.1
	c0.4-0.4,0.6-0.9,1-1.2c0.9-0.8,1.7-1.6,2.5-2.5c0.2-0.2,0.4-0.4,0.7-0.5c0.4-0.2,0.8-0.5,1.2-0.9c0.7-0.8,1.4-1.6,2.1-2.3
	c0.2-0.2,0.4-0.4,0.6-0.5c0.4-0.2,0.9-0.5,1.2-0.9c0.7-0.5,1.3-1.1,1.9-1.8c0.2-0.2,0.5-0.3,0.7-0.4c0.4-0.2,0.9-0.4,1.1-0.9
	c0-0.1,0.1-0.2,0.2-0.2c0.9-0.8,1.8-1.7,2.5-2.6c0.3-0.3,0.7-0.6,1.1-0.9c0.8-0.5,1.6-1.1,2.2-1.8c0.2-0.2,0.5-0.4,0.7-0.6
	c1.1-0.9,2.1-1.9,3.1-3c0.1-0.1,0.2-0.3,0.3-0.4c0.2-0.4,0.6-0.8,1-0.8c0.5-0.1,1-0.5,1.2-1c0.4-0.6,0.8-1.2,1.3-1.7
	c0.2-0.2,0.3-0.4,0.5-0.6c0.2-0.6,0.8-1.1,1.4-1.3c0.8-0.8,1.9-1.3,2.6-2.2c0.4-0.5,0.8-0.9,1.3-1.3c0-0.2,0.1-0.3,0.1-0.5
	c-0.3,0-0.6,0-0.9-0.1c-0.8,0-1.7-0.1-2.5-0.1c-1.8-0.7-3.8-0.7-5.6-0.1c-0.2,0-0.3,0.1-0.5,0.1c-0.8,0.1-1.6,0.2-2.3,0.2l-0.7,0
	c-2,0.1-4,0.3-6,0.7c-1.5,0.4-3.4,0.7-4.9-0.2c-1.3-0.7-2.8-0.8-4.1-0.2c-0.5,0.1-1.1,0.2-1.6,0.3c-3.4,0.3-6.9,0.3-10.3,0.2
	c-0.9,0-1.8,0-2.7,0h-0.5c-0.3-0.1-0.5-0.3-0.7-0.5c-0.2-0.3-0.6-0.4-1-0.3c-1.2,0.3-2.4,0.6-3.6,0.9c-1.1,0-2.1,0-3.1-0.1
	c-0.1,0-0.1-0.1-0.2-0.1c-0.4-0.3-0.9-0.6-1.3,0c-0.6-0.1-1.2-0.1-1.8-0.2c0.1,0.3,0.1,0.6,0.1,0.9c-0.2,0-0.4,0-0.6,0.2
	c0.1,0.2,0.2,0.4,0.2,0.6h0.1v0.1l0,0.4l0,0.7c0,0.1,0,0.1,0,0.2c-0.1,0.7-0.1,1.4,0.2,2c0,0,0,0.1,0,0.1c1.1,2.5-0.3,5.1,0.5,7.6
	c0,0.1,0,0.3-0.1,0.4c-0.1,0.1-0.1,0.2-0.2,0.3c-0.7,0.9-0.8,2.2-0.1,3.2c0.2,0.5,0.3,1,0.2,1.6c-0.4,2.7-1,5.4,0.1,8.1
	c0.1,0.2,0.1,0.5,0,0.7c-0.7,2.4,0.1,4.8-0.1,7.2c-0.2,2.1-0.6,4.2,0.1,6.3c0.1,0.3-0.1,0.6-0.1,0.9c-0.1,0.9-0.1,1.9,0,2.8
	c0.4,2.1,0.5,4.2,0.3,6.3c0.5-0.5,1-1,1.5-1.5C355.3,115.3,355.6,115,355.9,114.8z"/>
<path class="st2" d="M408.4,72.1L408.4,72.1c0.1-0.3-0.1-0.5-0.1-0.7c0-0.1-0.1-0.1-0.1-0.1c0.1,0,0.1-0.1,0.2-0.1
	c0-0.2,0-0.3,0-0.5v-0.2c0-0.1-0.1-0.2-0.1-0.3l0,0c0-0.2-0.1-0.3-0.1-0.5c0-0.1-0.1-0.2,0-0.3c0-0.3,0-0.5,0-0.8v-0.2
	c-0.1-0.2-0.1-0.4-0.1-0.6c0-0.1,0-0.3,0-0.4c0,0,0,0,0,0c-0.5,0.7-0.9,0.6-1.3,0.3c0.2-0.4,0.4-0.9,0.4-1.3
	c-0.4,0.4-0.9,0.9-1.3,1.3c-0.8,0.9-1.8,1.4-2.6,2.2c-0.7,0.2-1.2,0.7-1.4,1.3c-0.1,0.2-0.3,0.4-0.5,0.6c-0.5,0.5-0.9,1.1-1.3,1.7
	c-0.2,0.5-0.7,0.9-1.2,1c-0.5,0-0.9,0.4-1,0.8c-0.1,0.2-0.2,0.3-0.3,0.4c-1,1.1-2,2-3.1,3c-0.2,0.2-0.5,0.4-0.7,0.6
	c-0.6,0.7-1.4,1.3-2.2,1.8c-0.4,0.3-0.7,0.6-1.1,0.9c-0.8,1-1.6,1.8-2.5,2.6c-0.1,0.1-0.2,0.1-0.2,0.2c-0.2,0.5-0.7,0.7-1.1,0.9
	c-0.3,0.1-0.5,0.3-0.7,0.4c-0.6,0.6-1.2,1.2-1.9,1.8c-0.3,0.4-0.7,0.7-1.2,0.9c-0.3,0.1-0.5,0.3-0.6,0.5c-0.7,0.8-1.4,1.5-2.1,2.3
	c-0.3,0.4-0.7,0.7-1.2,0.9c-0.3,0.1-0.5,0.3-0.7,0.5c-0.8,0.9-1.6,1.7-2.5,2.5c-0.4,0.3-0.6,0.9-1,1.2c-0.4,0.4-0.9,0.7-1.3,1.1
	c-0.8,0.7-1.6,1.4-2.5,2c-0.5,0.3-0.8,0.7-1.1,1.2c-0.2,0.3-0.4,0.6-0.7,0.8c-0.5,0.3-0.9,0.6-1.2,1.1c-0.6,1.1-1.8,1.6-2.5,2.5
	c-0.1,0.1-0.2,0.1-0.3,0.1c-0.5,0.2-0.9,0.5-1.1,1c-0.1,0.2-0.3,0.4-0.5,0.5c-1,0.7-2,1.5-2.7,2.5c-0.1,0.1-0.1,0.2-0.2,0.2
	c-0.9,0.7-1.7,1.4-2.4,2.2c-0.8,0.6-1.5,1.2-2.1,2c-0.1,0.1-0.2,0.2-0.3,0.3c-0.3,0.3-0.6,0.6-0.9,0.9c-0.5,0.5-1,1.1-1.5,1.5
	c0,0.4-0.1,0.7-0.2,1.1l2.9-0.2c1-0.2,2,0,2.8,0.5c0.9,0.6,2.1,0.7,3.1,0.4c0.5-0.1,1.1-0.2,1.6-0.4c1.7-0.4,3.6-0.5,5.3,0
	c2.3,0.6,4.7,0.1,7,0.4c1.1-0.4,2.4-0.4,3.5,0c0.3,0.1,0.7,0,1-0.1c1.3-0.3,2.7-0.3,4-0.2c3.1,0.1,6.2,1,9.2-0.2c0.2,0,0.4,0,0.7,0
	c2.3,0.1,4.5-0.1,6.8-0.1c1.1,0,2.2,0,3.3,0.1c1,0.1,2,0.1,3,0.1c-0.1-0.3-0.1-0.5-0.2-0.7c-0.6-1.8-0.3-3.6-0.6-5.4
	c0-0.2,0-0.4-0.1-0.6c0-0.2,0-0.5,0.2-0.7c1-1.1,0.7-2.3,0.5-3.4c-0.2-1.4-0.5-2.8,0.1-4.2c0.6-1.3,1.3-2.5,0.2-3.8
	c-0.1-0.2,0-0.5,0-0.7c0.1-1.3,0-2.7,0.2-4c0.2-1.3-0.7-2.6,0.3-3.9c0.1-0.1,0-0.3-0.1-0.4c-0.5-0.9-0.6-2-0.2-3
	c0.2-0.6,0-1.2-0.4-1.6c-1.3-0.9-0.8-1.9-0.4-2.9c0.6-1.5,0.8-3.2,0.5-4.9c-0.2-1.1-0.3-2.1-0.5-3.2c0,0,0.1-0.1,0.1-0.1
	c0.3-0.2,0.5-0.5,0.7-0.8c0,0,0-0.1,0.1-0.1c0.1-0.1,0.3-0.2,0.4-0.4c0,0,0-0.1,0-0.1v0c0-0.1,0.1-0.1,0-0.1c-0.2-0.2,0-0.4,0-0.6
	c0-0.1,0-0.2,0.1-0.3c0-0.1,0.1-0.2,0-0.2c0,0,0,0,0-0.1C408.5,72.4,408.5,72.2,408.4,72.1z M400.3,107.8L400.3,107.8
	C400.3,107.8,400.3,107.8,400.3,107.8z"/>
<path class="st1" d="M355.6,60.1c0.1-0.2,0.3-0.4,0.5-0.5c0.4-0.4,0.9-0.7,1.3-1.1c0.1-0.1,0.2-0.3,0.2-0.5c0.1-0.4,0.3-0.7,0.7-0.9
	c0.8-0.6,1.6-1.2,2.3-1.9c0.3-0.3,0.5-0.6,0.7-0.9l0.8-0.1c0.3-0.7,0.9-1.3,1.6-1.7c0.2-0.1,0.3-0.2,0.4-0.3
	c0.6-0.6,1.2-1.2,1.9-1.8c0.9-0.7,1.5-1.5,2.3-2.2c0.1,0,0.1-0.1,0.2-0.1c0.3-1,1.3-1.4,2-2.1c0.4-0.2,0.7-0.6,0.9-0.9
	c0-0.1,0.1-0.2,0.2-0.2c0.4-0.1,0.7-0.4,0.8-0.8c0.6-0.4,1-1.1,1.7-1.4c0.5-0.3,0.9-0.7,1.2-1.2c0.1-0.2,0.2-0.3,0.3-0.5
	c0.2-0.3,0.5-0.5,0.9-0.5c0.3,0,0.6-0.2,0.8-0.4c0.8-0.9,1.6-1.8,2.4-2.8c0.5-0.5,0.9-1.1,1.3-1.7c0.5-0.8,1.4-1.5,2.3-1.8
	c0.3-0.1,0.6-0.3,0.8-0.5c0.6-0.7,1.1-1.5,1.4-2.4c0.2-0.1,0.4-0.1,0.7-0.2c0.7,0,1.4-0.4,1.7-1.1c0-0.1,0.1-0.1,0.1-0.1
	c0.6-0.2,0.8-0.7,1.2-1.1c0.5-0.6,1.1-1.2,1.8-1.7c0.7-0.4,1.2-1.1,1.5-1.9c0.2-0.6,0.6-1.1,1-1.5c0.4,0,0.7-0.1,1.1-0.1
	c1-0.2,1.9-0.9,2.4-1.8c0.2-0.3,0.5-0.6,0.8-0.9c0.6-0.6,1.1-1.2,1.6-1.8c0.3-0.4,0.6-0.8,1-1.1c0.4-0.3,0.8-0.6,1.1-1
	c0.8-0.9,1.6-1.8,2.5-2.6c0.4-0.3,0.9-0.6,1.3-0.9c0.3-0.3,0.5-0.9,0.9-1.2c0.6-0.7,1.3-1.2,2.2-1.4c0.2,0,0.3-0.1,0.4-0.2
	c0-0.3,0.1-0.5,0.1-0.8c-1,0.1-1.9,0.1-2.9,0.2c-1,0.2-2,0-2.8-0.5c-0.9-0.6-2.1-0.7-3.1-0.4c-0.5,0.1-1.1,0.2-1.6,0.4
	c-1.7,0.4-3.6,0.5-5.3,0c-2.3-0.6-4.7-0.1-7-0.4c-1.1,0.4-2.4,0.4-3.5,0c-0.3-0.1-0.7,0-1,0.1c-1.3,0.3-2.7,0.3-4,0.1
	c-3.1-0.1-6.2-1-9.2,0.2c-0.2,0-0.4,0-0.7,0c-3.4-0.1-6.7,0.3-10.1,0.1c-1-0.1-2-0.1-3-0.1c0.1,0.3,0.1,0.5,0.2,0.7
	c0.7,2,0.2,4,0.6,6c0,0.2,0,0.5-0.2,0.7c-1,1.1-0.7,2.3-0.5,3.4c0.2,1.4,0.5,2.8-0.1,4.2c-0.6,1.3-1.3,2.5-0.2,3.8
	c0.1,0.2,0,0.5,0,0.7c-0.1,1.3,0,2.7-0.2,4c-0.2,1.3,0.7,2.6-0.3,3.9c-0.1,0.1,0,0.3,0.1,0.5c0.5,0.9,0.6,2,0.2,3
	c-0.2,0.6,0,1.2,0.4,1.6c1.3,0.9,0.8,1.9,0.4,2.9c-0.6,1.5-0.8,3.2-0.5,4.9c0.2,1.1,0.3,2.1,0.5,3.2c0,0-0.1,0.1-0.1,0.1
	c-0.3,0.2-0.5,0.5-0.7,0.8c0,0,0,0.1-0.1,0.1c-0.1,0.1-0.3,0.2-0.4,0.4c0,0,0,0.1,0,0.1v0c0,0.1-0.1,0.1,0,0.1c0.2,0.2,0,0.4,0,0.6
	c0,0.1,0,0.2-0.1,0.3c0,0.1-0.1,0.2,0,0.2c0,0,0,0,0,0.1c0.1,0.2,0,0.3,0.1,0.4v0.1c-0.1,0.2,0.1,0.5,0.1,0.6c0,0.1,0.1,0.1,0.1,0.1
	c-0.1,0-0.1,0.1-0.2,0.1c0,0.2,0,0.3,0,0.5V57c0,0.1,0.1,0.2,0.1,0.3l0,0c0,0.2,0.1,0.3,0.1,0.5c0,0.1,0.1,0.2,0,0.3
	c0,0.3,0,0.5,0,0.8v0.2c0.1,0.2,0.1,0.4,0.1,0.6c0,0.1,0,0.3,0,0.4c0,0,0,0,0,0c0.5-0.7,0.9-0.6,1.3-0.3c-0.2,0.4-0.4,0.8-0.4,1.2
	C355.1,60.7,355.4,60.4,355.6,60.1z M361.8,19.8C361.8,19.8,361.8,19.8,361.8,19.8L361.8,19.8L361.8,19.8z"/>
<path class="st2" d="M409.7,59.8c-0.1-0.2-0.2-0.4-0.2-0.6h-0.1v-0.1l0-0.4l0-0.7c0-0.1,0-0.1,0-0.2c0.1-0.7,0.1-1.4-0.2-2
	c0,0,0-0.1,0-0.1c-0.1-0.2-0.2-0.5-0.2-0.7c-0.6-2.3,0.4-4.6-0.3-6.9c0-0.1,0-0.3,0.1-0.4c0.1-0.1,0.1-0.2,0.2-0.3
	c0.7-0.9,0.8-2.2,0.1-3.2c-0.2-0.5-0.3-1-0.2-1.6c0.4-2.7,1-5.4-0.1-8.1c-0.1-0.2-0.1-0.5,0-0.7c0.7-2.4-0.1-4.8,0.1-7.2
	c0.2-2.1,0.6-4.2-0.1-6.3c-0.1-0.3,0.1-0.6,0.1-0.9c0.1-0.9,0.1-1.9,0-2.8c-0.4-2.2-0.5-4.5-0.2-6.7c-0.1,0.1-0.3,0.2-0.4,0.2
	c-0.9,0.3-1.6,0.8-2.2,1.4c-0.4,0.3-0.5,0.8-0.9,1.2c-0.4,0.4-0.9,0.6-1.3,0.9c-0.9,0.8-1.8,1.7-2.5,2.6c-0.3,0.4-0.7,0.7-1.1,1
	c-0.4,0.3-0.8,0.6-1,1.1c-0.5,0.7-1,1.3-1.6,1.9c-0.3,0.3-0.5,0.6-0.8,0.9c-0.5,0.9-1.4,1.5-2.4,1.8c-0.3,0.1-0.7,0.1-1.1,0.1
	c-0.5,0.4-0.9,0.9-1,1.5c-0.2,0.8-0.7,1.5-1.5,1.9c-0.7,0.5-1.3,1-1.8,1.7c-0.3,0.4-0.6,0.9-1.2,1.1c-0.1,0-0.1,0.1-0.1,0.1
	c-0.3,0.7-0.9,1.1-1.7,1.1c-0.2,0-0.5,0.1-0.7,0.2c-0.3,0.9-0.8,1.7-1.4,2.4c-0.2,0.2-0.5,0.4-0.8,0.5c-1,0.3-1.8,0.9-2.3,1.8
	c-0.4,0.6-0.8,1.2-1.3,1.7c-0.8,0.9-1.6,1.8-2.4,2.8c-0.2,0.3-0.5,0.4-0.8,0.4c-0.4,0-0.7,0.2-0.9,0.5c-0.1,0.1-0.2,0.3-0.3,0.5
	c-0.3,0.5-0.7,0.9-1.2,1.2c-0.7,0.3-1.1,1-1.7,1.4c-0.1,0.4-0.4,0.7-0.8,0.8c-0.1,0-0.2,0.1-0.2,0.2c-0.2,0.4-0.5,0.7-0.9,0.9
	c-0.7,0.6-1.7,1-2,2.1c0,0.1-0.1,0.1-0.2,0.1c-0.8,0.7-1.4,1.6-2.3,2.2c-0.7,0.6-1.3,1.1-1.9,1.8c-0.1,0.1-0.3,0.2-0.4,0.3
	c-0.7,0.4-1.3,0.9-1.6,1.7l-0.8,0.1c-0.2,0.3-0.4,0.6-0.7,0.9c-0.8,0.7-1.5,1.3-2.3,1.9c-0.3,0.2-0.6,0.6-0.7,0.9
	c0,0.2-0.1,0.3-0.2,0.5c-0.4,0.4-0.9,0.7-1.3,1.1c-0.2,0.1-0.4,0.3-0.5,0.5c-0.2,0.3-0.4,0.6-0.7,0.7c0,0.2-0.1,0.4-0.1,0.6
	c0.3,0,0.6,0,0.9,0.1c0.8,0,1.7,0.1,2.5,0.1c1.8,0.7,3.8,0.7,5.6,0.1c0.2,0,0.3-0.1,0.5-0.1c0.8-0.1,1.6-0.2,2.3-0.2l0.7,0
	c2-0.1,4-0.3,6-0.7c1.5-0.4,3.4-0.7,4.9,0.2c1.3,0.7,2.8,0.8,4.1,0.2c0.5-0.1,1.1-0.2,1.6-0.3c3.4-0.3,6.9-0.3,10.3-0.2
	c0.9,0,1.8,0,2.7,0h0.5c0.3,0.1,0.5,0.3,0.7,0.5c0.2,0.3,0.6,0.4,1,0.3c1.2-0.3,2.4-0.6,3.6-0.9c0.2,0,0.4,0,0.6,0
	c0.8,0,1.7,0,2.5,0.1c0.1,0,0.1,0.1,0.2,0.1c0.4,0.3,0.9,0.6,1.3,0c0.6,0.1,1.2,0.1,1.8,0.2c-0.1-0.3-0.1-0.6-0.1-0.9
	C409.3,60,409.5,60,409.7,59.8z"/>
<path class="st1" d="M472.2,58.4c0.1-0.1,0.2-0.3,0.2-0.5c0.1-0.4,0.3-0.7,0.7-0.9c0.8-0.6,1.6-1.2,2.3-1.9c0.3-0.3,0.5-0.6,0.7-0.9
	l0.8-0.1c0.3-0.7,0.9-1.3,1.6-1.7c0.2-0.1,0.3-0.2,0.4-0.3c0.6-0.6,1.2-1.2,1.9-1.8c0.9-0.7,1.5-1.5,2.3-2.2c0.1,0,0.1-0.1,0.2-0.1
	c0.3-1,1.3-1.4,2-2.1c0.4-0.2,0.7-0.6,0.9-0.9c0-0.1,0.1-0.2,0.2-0.2c0.4-0.1,0.7-0.4,0.8-0.8c0.6-0.4,1-1.1,1.7-1.4
	c0.5-0.3,0.9-0.7,1.2-1.2c0.1-0.2,0.2-0.3,0.3-0.5c0.2-0.3,0.5-0.5,0.9-0.6c0.3,0,0.6-0.2,0.8-0.4c0.8-0.9,1.6-1.8,2.4-2.8
	c0.5-0.5,0.9-1.1,1.3-1.7c0.5-0.8,1.4-1.5,2.3-1.8c0.3-0.1,0.6-0.3,0.8-0.5c0.6-0.7,1.1-1.5,1.4-2.4c0.2-0.1,0.4-0.1,0.7-0.2
	c0.7,0,1.4-0.4,1.7-1.1c0-0.1,0.1-0.1,0.1-0.1c0.6-0.2,0.8-0.7,1.2-1.1c0.5-0.6,1.1-1.2,1.8-1.7c0.7-0.4,1.2-1.1,1.5-1.9
	c0.2-0.6,0.6-1.1,1-1.5c0.4,0,0.7-0.1,1.1-0.1c1-0.2,1.9-0.9,2.4-1.8c0.2-0.3,0.5-0.6,0.8-0.9c0.6-0.6,1.1-1.2,1.6-1.9
	c0.3-0.4,0.6-0.8,1-1.1c0.4-0.3,0.8-0.6,1.1-1c0.8-0.9,1.6-1.8,2.5-2.6c0.4-0.3,0.9-0.6,1.3-0.9c0.3-0.3,0.5-0.9,0.9-1.2
	c0.6-0.7,1.3-1.2,2.2-1.4c0.2-0.1,0.4-0.2,0.6-0.4c0.2-0.3,0.5-0.6,0.8-0.8c0-0.2,0.1-0.4,0.1-0.6c-0.3,0-0.6,0-0.9-0.1
	c-0.8,0-1.7-0.1-2.5-0.1c-1.8-0.7-3.8-0.7-5.7-0.1c-0.2,0-0.3,0.1-0.5,0.1c-0.8,0.1-1.6,0.2-2.3,0.2c-0.2,0-0.4,0-0.7,0
	c-2,0.1-4,0.3-6,0.7c-1.5,0.4-3.4,0.7-4.9-0.2c-1.3-0.7-2.8-0.8-4.1-0.2c-0.5,0.1-1.1,0.2-1.6,0.3c-3.4,0.3-6.9,0.3-10.3,0.2
	c-0.9,0-1.8,0-2.7,0h-0.5c-0.3-0.1-0.5-0.3-0.7-0.5c-0.2-0.3-0.6-0.4-1-0.3c-1.2,0.3-2.4,0.6-3.6,0.9c-1.1,0-2.1,0-3.1-0.1
	c-0.1,0-0.1-0.1-0.2-0.1c-0.4-0.3-0.9-0.6-1.3,0c-0.6-0.1-1.2-0.1-1.8-0.2c0.1,0.3,0.1,0.6,0.1,0.9c-0.2,0-0.4,0-0.6,0.1
	c0.1,0.2,0.2,0.4,0.2,0.6h0.1v0.1l0,0.4l0,0.7c0,0.1,0,0.1,0,0.2c-0.1,0.7-0.1,1.4,0.2,2c0,0,0,0.1,0,0.1c1.1,2.5-0.3,5.1,0.5,7.6
	c0,0.1,0,0.3-0.1,0.4c-0.1,0.1-0.1,0.2-0.2,0.3c-0.7,0.9-0.8,2.2-0.1,3.2c0.2,0.5,0.3,1,0.2,1.6c-0.4,2.7-1,5.4,0.1,8.1
	c0.1,0.2,0.1,0.5,0,0.7c-0.7,2.4,0.1,4.8-0.1,7.2c-0.2,2.1-0.6,4.2,0.1,6.3c0.1,0.3-0.1,0.6-0.1,0.9c-0.1,0.9-0.1,1.9,0,2.8
	c0.4,2.2,0.5,4.4,0.2,6.6c0.1-0.1,0.2-0.2,0.3-0.3C471.3,59.2,471.8,58.8,472.2,58.4z"/>
<path class="st2" d="M525.6,14.4L525.6,14.4c0.1-0.3-0.1-0.5-0.1-0.7c0-0.1-0.1-0.1-0.1-0.1c0.1,0,0.1-0.1,0.2-0.1
	c0-0.2,0-0.3,0-0.5v-0.2c0-0.1-0.1-0.2-0.1-0.3l0,0c0-0.2-0.1-0.3-0.1-0.5c0-0.1-0.1-0.2,0-0.3c0-0.3,0-0.5,0-0.8V11
	c-0.1-0.2-0.1-0.4-0.1-0.6c0-0.1,0-0.3,0-0.4c0,0,0,0,0,0c-0.5,0.7-0.9,0.6-1.3,0.3c0.2-0.4,0.4-0.8,0.4-1.3
	c-0.3,0.2-0.5,0.5-0.8,0.8c-0.1,0.2-0.4,0.3-0.6,0.4c-0.9,0.3-1.6,0.8-2.2,1.4c-0.4,0.3-0.5,0.8-0.9,1.2c-0.4,0.4-0.9,0.6-1.3,0.9
	c-0.9,0.8-1.8,1.7-2.5,2.6c-0.3,0.4-0.7,0.7-1.1,1c-0.4,0.3-0.8,0.6-1,1.1c-0.5,0.7-1,1.3-1.6,1.9c-0.3,0.3-0.5,0.6-0.8,0.9
	c-0.5,0.9-1.4,1.5-2.4,1.8c-0.3,0.1-0.7,0.1-1.1,0.1c-0.5,0.4-0.9,0.9-1,1.5c-0.2,0.8-0.7,1.5-1.5,1.9c-0.7,0.5-1.3,1-1.8,1.7
	c-0.3,0.4-0.6,0.9-1.2,1.1c-0.1,0-0.1,0.1-0.1,0.1c-0.3,0.7-0.9,1.1-1.7,1.1c-0.2,0-0.5,0.1-0.7,0.2c-0.3,0.9-0.8,1.7-1.4,2.4
	c-0.2,0.2-0.5,0.4-0.8,0.5c-1,0.3-1.8,0.9-2.3,1.8c-0.4,0.6-0.8,1.2-1.3,1.7c-0.8,0.9-1.6,1.8-2.4,2.8c-0.2,0.3-0.5,0.4-0.8,0.4
	c-0.4,0-0.7,0.2-0.9,0.6c-0.1,0.1-0.2,0.3-0.3,0.5c-0.3,0.5-0.7,0.9-1.2,1.2c-0.7,0.3-1.1,1-1.7,1.4c-0.1,0.4-0.4,0.7-0.8,0.8
	c-0.1,0-0.2,0.1-0.2,0.2c-0.2,0.4-0.5,0.7-0.9,0.9c-0.7,0.6-1.7,1-2,2.1c0,0.1-0.1,0.1-0.2,0.1c-0.8,0.7-1.4,1.6-2.3,2.2
	c-0.6,0.6-1.3,1.1-1.9,1.8c-0.1,0.1-0.3,0.2-0.4,0.3c-0.7,0.4-1.3,0.9-1.6,1.7l-0.8,0.1c-0.2,0.3-0.4,0.6-0.7,0.9
	c-0.8,0.7-1.5,1.3-2.3,1.9c-0.3,0.2-0.6,0.6-0.7,0.9c0,0.2-0.1,0.3-0.2,0.5c-0.4,0.4-0.9,0.7-1.3,1.1c-0.1,0.1-0.2,0.2-0.3,0.3
	c0,0.3-0.1,0.5-0.1,0.8c1-0.1,1.9-0.1,2.9-0.2c1-0.2,2,0,2.8,0.5c0.9,0.6,2.1,0.7,3.2,0.4c0.5-0.1,1.1-0.2,1.6-0.4
	c1.7-0.4,3.6-0.4,5.3,0c2.3,0.6,4.7,0.1,7,0.4c1.1-0.4,2.4-0.4,3.5,0c0.3,0.1,0.7,0,1-0.1c1.3-0.3,2.7-0.3,4-0.2
	c3.1,0.1,6.2,1,9.2-0.2c0.2,0,0.4,0,0.7,0c2,0.1,4,0,6-0.1c1.4-0.1,2.7,0,4.1,0c1,0.1,2,0.1,3,0.1c-0.1-0.3-0.1-0.5-0.2-0.7
	c-0.6-1.8-0.3-3.6-0.6-5.4c0-0.2,0-0.4-0.1-0.7c0-0.2,0-0.5,0.2-0.7c1-1.1,0.7-2.3,0.5-3.4c-0.2-1.4-0.5-2.8,0.1-4.2
	c0.6-1.3,1.3-2.5,0.2-3.8c-0.1-0.2,0-0.5,0-0.7c0.1-1.3,0-2.7,0.2-4c0.2-1.3-0.7-2.6,0.3-3.9c0.1-0.1,0-0.3-0.1-0.4
	c-0.5-0.9-0.6-2-0.2-3c0.2-0.6,0-1.2-0.4-1.6c-1.3-0.9-0.8-1.9-0.4-2.9c0.6-1.5,0.8-3.2,0.5-4.9c-0.2-1.1-0.3-2.1-0.5-3.2
	c0,0,0.1-0.1,0.1-0.1c0.3-0.2,0.5-0.5,0.7-0.8c0,0,0-0.1,0.1-0.1c0.1-0.1,0.3-0.2,0.4-0.4c0,0,0-0.1,0-0.1v0c0-0.1,0.1-0.1,0-0.1
	c-0.2-0.2,0-0.4,0-0.6c0-0.1,0-0.2,0.1-0.3c0-0.1,0.1-0.2,0-0.2c0,0,0,0,0-0.1C525.7,14.7,525.7,14.5,525.6,14.4z M517.5,50.1
	L517.5,50.1C517.5,50.1,517.5,50.1,517.5,50.1z"/>
<path class="st1" d="M356.2,177.8c0-0.1,0.1-0.1,0.2-0.2c0.1-0.1,0.2-0.1,0.3-0.2c0.1-0.1,0.2-0.2,0.3-0.3c0.1-0.1,0.2-0.2,0.2-0.3
	c0.1-0.1,0.2-0.2,0.2-0.3c0.1-0.3,0.4-0.6,0.7-0.7c0.2-0.1,0.4-0.3,0.5-0.4c0.5-0.5,0.9-0.9,1.3-1.5c0.2-0.2,0.5-0.5,0.7-0.7
	c0.2-0.2,0.4-0.5,0.5-0.8c0.2-0.3,0.5-0.6,0.9-0.8c0.4-0.2,0.7-0.5,1-0.9c0.2-0.3,0.4-0.6,0.6-0.9c0.1-0.1,0.1-0.1,0.2-0.1
	c0.2-0.1,0.5-0.3,0.6-0.5c0.1-0.1,0.1-0.2,0.2-0.2c0.3-0.2,0.6-0.5,0.8-0.8c0.2-0.3,0.5-0.6,0.8-0.8c0.2-0.2,0.4-0.4,0.6-0.6
	c0.1-0.1,0.1-0.3,0.2-0.4c0.2,0,0.5-0.1,0.6-0.3c0.2-0.2,0.4-0.4,0.6-0.5c0.2-0.1,0.4-0.4,0.5-0.6c0-0.1,0.1-0.1,0.2-0.2
	c0.3-0.1,0.6-0.3,0.8-0.5c0-0.1,0.1-0.3,0.2-0.4c0.1,0,0.2,0,0.3,0c0-0.1,0.1-0.2,0.2-0.3l0.1-0.1c0,0,0,0,0.1,0
	c0.2,0.1,0.4-0.2,0.6,0c0-0.1,0-0.2-0.1-0.3c0-0.1,0.1-0.2,0.1-0.2l0.1-0.1c0.3-0.3,0.5-0.8,0.6-1.2c0-0.3,0.3-0.4,0.3-0.7
	c0.1-0.2,0.3-0.4,0.5-0.5c0.3-0.2,0.6-0.5,0.8-0.8c0.2-0.4,0.5-0.7,0.8-0.9c0.1-0.1,0.3-0.2,0.4-0.3c0.1-0.3,0.4-0.5,0.7-0.5
	c0.1-0.1,0-0.4,0.2-0.5c0.1-0.1,0.2-0.2,0.3-0.4l0.6,0c0-0.1,0-0.2,0-0.3c0-0.1,0-0.3,0.1-0.3c0.1-0.1,0.2-0.1,0.4-0.1
	c0-0.3,0.1-0.7,0.4-0.8c0.2-0.1,0.3-0.3,0.5-0.5c0.5-0.5,0.9-1,1.4-1.5c0.2-0.2,0.4-0.4,0.5-0.6c0.2-0.3,0.4-0.5,0.7-0.6
	c0.2-0.1,0.3-0.2,0.4-0.3c0.1-0.3,0.3-0.5,0.6-0.7c0.2-0.2,0.4-0.5,0.6-0.7c0.3-0.3,0.5-0.5,0.7-0.8c0.2-0.3,0.5-0.5,0.7-0.8
	c0.2-0.1,0.3-0.3,0.4-0.5c0.3-0.4,0.6-0.7,0.9-1c0.1-0.1,0.2-0.2,0.3-0.3c0.2-0.2,0.4-0.3,0.6-0.5c0.2-0.1,0.3-0.3,0.5-0.5
	c0.2-0.4,0.6-0.7,1-0.9c0-0.2,0.1-0.4,0.3-0.5c0.2-0.1,0.3-0.3,0.4-0.4c0-0.1,0.1-0.2,0.2-0.2c0.2-0.2,0.4-0.4,0.6-0.6
	c0.5-0.5,0.9-0.9,1.3-1.4c0.3-0.3,0.6-0.6,0.9-0.9c0.1,0,0.1-0.1,0.2-0.2s0.1-0.2,0.2-0.2c0.3-0.1,0.5-0.4,0.7-0.5
	c0.2-0.1,0.2-0.4,0.4-0.7c0.1,0,0.2,0,0.3,0c0-0.2,0.1-0.4,0.2-0.5c0.4-0.5,0.8-1,1.3-1.4l0.2-0.2c0.3-0.4,0.6-0.8,0.9-1.1
	c0.3-0.2,0.5-0.5,0.7-0.7c0.3-0.4,0.7-0.8,1.1-1.1l0,0c0.3-0.2,0.5-0.4,0.6-0.7c0.1-0.2,0.2-0.4,0.4-0.5c0.3-0.3,0.5-0.5,0.7-0.8
	c0.2-0.2,0.4-0.4,0.6-0.6c0.3-0.3,0.6-0.5,0.8-0.8c0.2-0.2,0.4-0.3,0.6-0.4c0,0,0.1,0,0.2,0c0.2,0.1,0.5,0.1,0.7-0.1
	c0.2-0.1,0.4,0,0.6-0.1c0.1-0.1,0.2-0.1,0.3-0.1c0.3,0,0.7-0.1,0.9-0.3c0.1-0.5,0.3-0.9,0.5-1.3c0.3-0.6,0.6-1.2,1-1.7
	c0.1-0.2,0.2-0.4,0.3-0.6c0.1-0.3,0.3-0.6,0.5-0.9c0.1-0.1,0.1-0.2,0.2-0.3c0,0,0.1-0.1,0.1-0.1c0.4,0,0.4-0.5,0.7-0.6c0,0,0,0,0,0
	v0c-0.6,0-1.3,0.2-1.8,0.5c-0.3-0.4-0.3-0.9,0.3-1.3c0,0,0,0,0,0c-0.1,0-0.2,0-0.4,0c-0.2,0-0.4,0-0.6-0.1H404c-0.3,0-0.5,0-0.8,0
	c-0.1,0.1-0.2,0-0.3,0c-0.2-0.1-0.3-0.1-0.5-0.1l0,0c-0.1,0-0.2-0.1-0.3-0.1h-0.2c-0.1,0-0.3,0.1-0.5,0c0,0.1-0.1,0.2-0.1,0.2
	c-0.1,0-0.1-0.1-0.1-0.1c-0.2-0.1-0.4-0.2-0.6-0.1h-0.1c-0.1-0.1-0.3-0.1-0.4-0.1c0,0,0,0-0.1,0c-0.1,0-0.2,0-0.2,0
	c-0.1,0.1-0.2,0.1-0.3,0.1c-0.2,0-0.4,0.2-0.6,0c-0.1-0.1-0.1,0-0.1,0h0c0,0-0.1,0-0.1,0c-0.1,0.1-0.3,0.2-0.4,0.4c0,0,0,0-0.1,0.1
	c-0.3,0.2-0.6,0.4-0.8,0.7c0,0-0.1,0.1-0.1,0.1c-1.1-0.1-2.1-0.3-3.2-0.5c-1.6-0.3-3.3-0.2-4.9,0.5c-1,0.4-1.9,0.8-2.9-0.4
	c-0.4-0.4-1-0.6-1.6-0.4c-1,0.4-2.1,0.3-3-0.2c-0.1-0.1-0.3-0.2-0.4-0.1c-1.3,1-2.6,0.1-3.9,0.3c-1.3,0.2-2.6,0.2-4,0.2
	c-0.2,0-0.5,0.1-0.7,0c-1.3-1.1-2.6-0.4-3.8,0.2c-1.4,0.7-2.8,0.3-4.2,0.1c-1.2-0.1-2.3-0.5-3.4,0.5c-0.2,0.2-0.4,0.2-0.7,0.2
	c-2-0.5-4,0-6-0.6c-0.2-0.1-0.5-0.2-0.7-0.2c0,1,0,2,0.1,3c0.3,3.4-0.2,6.7-0.1,10.1c0,0.2,0.1,0.4,0,0.7c-1.2,3-0.3,6.1-0.2,9.2
	c0.2,1.3,0.1,2.7-0.2,4c-0.1,0.3-0.1,0.6-0.1,1c0.4,1.1,0.5,2.4,0,3.5c0.3,2.3-0.1,4.7,0.4,7c0.4,1.7,0.4,3.6,0,5.3
	c-0.1,0.5-0.3,1.1-0.4,1.6c-0.3,1.1-0.1,2.2,0.4,3.2c0.5,0.8,0.7,1.8,0.5,2.8c-0.1,1-0.1,1.9-0.2,2.9c0.4-0.1,0.8-0.1,1.2-0.2
	c0-0.2,0.1-0.3,0.3-0.5C356.1,178,356.2,177.9,356.2,177.8z M365,131.8L365,131.8C365,131.8,365,131.8,365,131.8L365,131.8z"/>
<path class="st2" d="M365,131.8L365,131.8C365,131.8,365.1,131.8,365,131.8L365,131.8z"/>
<path class="st2" d="M406.8,128.2c0-0.8,0-1.7-0.1-2.5c0-0.3,0-0.5-0.1-0.8c0,0,0,0,0,0c-0.3,0.1-0.3,0.6-0.7,0.6
	c0,0-0.1,0.1-0.1,0.1c-0.1,0.1-0.1,0.2-0.2,0.3c-0.3,0.2-0.5,0.5-0.5,0.9c-0.1,0.2-0.1,0.4-0.3,0.6c-0.3,0.5-0.7,1.1-1,1.7
	c-0.3,0.4-0.4,0.8-0.5,1.3c-0.3,0.2-0.6,0.3-0.9,0.3c-0.1,0-0.2,0-0.3,0.1c-0.2,0.1-0.5,0-0.6,0.1c-0.2,0.1-0.5,0.1-0.7,0.1
	c0,0-0.1,0-0.2,0c-0.2,0.1-0.4,0.2-0.6,0.4c-0.3,0.3-0.5,0.6-0.8,0.8c-0.2,0.2-0.4,0.4-0.6,0.6c-0.2,0.3-0.4,0.6-0.7,0.8
	c-0.2,0.1-0.3,0.3-0.4,0.5c-0.1,0.3-0.3,0.5-0.6,0.7l0,0c-0.4,0.3-0.8,0.7-1.1,1.1c-0.2,0.3-0.4,0.5-0.7,0.7
	c-0.4,0.3-0.7,0.7-0.9,1.1l-0.2,0.2c-0.5,0.4-0.9,0.9-1.3,1.4c-0.2,0.1-0.2,0.3-0.2,0.5c-0.1,0-0.2,0-0.3,0
	c-0.2,0.3-0.2,0.5-0.4,0.7c-0.2,0.2-0.4,0.4-0.7,0.5c-0.1,0-0.1,0.1-0.2,0.2s-0.1,0.2-0.2,0.2c-0.3,0.2-0.6,0.5-0.9,0.9
	c-0.4,0.5-0.9,1-1.3,1.4c-0.2,0.2-0.4,0.4-0.6,0.6c-0.1,0-0.1,0.1-0.2,0.2c-0.1,0.2-0.2,0.3-0.4,0.4c-0.2,0.1-0.3,0.3-0.3,0.5
	c-0.4,0.2-0.7,0.5-1,0.9c-0.1,0.2-0.3,0.4-0.5,0.5c-0.2,0.2-0.4,0.3-0.6,0.5c-0.1,0.1-0.2,0.2-0.3,0.3c-0.3,0.3-0.6,0.6-0.9,1
	c-0.1,0.2-0.3,0.4-0.4,0.5c-0.3,0.2-0.5,0.5-0.7,0.8c-0.2,0.3-0.4,0.6-0.7,0.8c-0.2,0.2-0.4,0.5-0.6,0.7c-0.2,0.2-0.4,0.4-0.6,0.7
	c-0.1,0.2-0.2,0.3-0.4,0.3c-0.3,0.1-0.5,0.3-0.7,0.6c-0.2,0.2-0.3,0.4-0.5,0.6c-0.5,0.5-1,1-1.4,1.5c-0.1,0.2-0.3,0.3-0.5,0.5
	c-0.3,0.2-0.4,0.5-0.4,0.8c-0.1,0-0.3,0-0.4,0.1c-0.1,0.1-0.1,0.2-0.1,0.3c0,0.1,0,0.2,0,0.3l-0.6,0c-0.1,0.2-0.2,0.3-0.3,0.4
	c-0.2,0.1,0,0.4-0.2,0.5c-0.3,0.1-0.6,0.3-0.7,0.5c-0.1,0.1-0.2,0.2-0.4,0.3c-0.4,0.2-0.6,0.6-0.8,0.9c-0.2,0.4-0.4,0.6-0.8,0.8
	c-0.2,0.2-0.4,0.3-0.5,0.5c0,0.3-0.3,0.4-0.3,0.7c0,0.5-0.2,0.9-0.6,1.2l-0.1,0.1c-0.1,0.1-0.1,0.1-0.1,0.2c0,0.1,0,0.2,0.1,0.3
	c-0.2-0.2-0.4,0.2-0.6,0c0,0-0.1,0-0.1,0l-0.1,0.1c-0.1,0.1-0.1,0.2-0.2,0.3c-0.1,0-0.2,0-0.3,0c-0.1,0.1-0.2,0.2-0.2,0.4
	c-0.3,0.2-0.5,0.4-0.8,0.5c-0.1,0-0.2,0.1-0.2,0.2c-0.1,0.3-0.3,0.5-0.5,0.6c-0.2,0.2-0.4,0.3-0.6,0.5c-0.1,0.2-0.4,0.3-0.6,0.3
	c0,0.1-0.1,0.3-0.2,0.4c-0.2,0.2-0.4,0.4-0.6,0.6c-0.3,0.2-0.5,0.5-0.8,0.8c-0.2,0.3-0.5,0.6-0.8,0.8c-0.1,0-0.1,0.2-0.2,0.2
	c-0.2,0.2-0.4,0.4-0.6,0.5c-0.1,0.1-0.1,0.1-0.2,0.1c-0.2,0.3-0.4,0.6-0.6,0.9c-0.3,0.4-0.6,0.7-1,0.9c-0.4,0.2-0.7,0.5-0.9,0.8
	c-0.1,0.3-0.3,0.5-0.5,0.8c-0.2,0.2-0.5,0.4-0.7,0.7c-0.4,0.5-0.9,1-1.3,1.5c-0.1,0.2-0.3,0.3-0.5,0.4c-0.3,0.2-0.5,0.4-0.7,0.7
	c0,0.1-0.1,0.2-0.2,0.3c-0.1,0.1-0.2,0.2-0.2,0.3c-0.1,0.1-0.2,0.2-0.3,0.3c-0.1,0.1-0.2,0.2-0.3,0.2c-0.1,0-0.2,0.1-0.2,0.2
	c0,0.1-0.1,0.2-0.2,0.3c-0.1,0.1-0.3,0.3-0.3,0.5c2.1-0.2,4.2-0.1,6.2,0.3c0.9,0.1,1.9,0.1,2.8,0c0.3,0,0.6-0.2,0.9-0.1
	c2.1,0.7,4.2,0.3,6.3,0.1c2.4-0.2,4.8,0.5,7.2-0.1c0.2-0.1,0.5-0.1,0.7,0c0.1,0,0.2,0.1,0.3,0.1c2.6,1,5.2,0.4,7.8,0
	c0.5-0.1,1.1,0,1.6,0.2c1,0.6,2.3,0.6,3.2-0.1c0.1-0.1,0.2-0.1,0.3-0.2c0.1-0.1,0.2-0.1,0.4-0.1c2.5,0.8,5-0.5,7.6,0.5
	c0,0,0.1,0,0.1,0c0.6,0.3,1.4,0.3,2,0.2c0,0,0.1,0,0.2,0l0.7,0l0.4,0h0.1v0.1c0.2,0,0.4,0,0.6,0.2c0.1-0.2,0.2-0.4,0.1-0.6
	c0.3,0,0.6,0,0.9,0.1c-0.1-0.6-0.2-1.2-0.2-1.8c0.6-0.4,0.3-0.8,0-1.3c0-0.1-0.1-0.1-0.1-0.2c-0.1-1-0.1-2.1-0.1-3.1
	c0.3-1.2,0.6-2.4,0.9-3.6c0.1-0.3,0-0.7-0.3-1c-0.2-0.2-0.4-0.4-0.5-0.7V167c0-0.9,0-1.8,0-2.7c-0.1-3.5-0.1-6.9,0.2-10.3
	c0-0.6,0.1-1.1,0.3-1.6c0.1-0.4,0.2-0.9,0.3-1.4c0.1-0.9-0.1-1.9-0.5-2.7c-0.8-1.5-0.5-3.3-0.2-4.9c0.4-2,0.6-4,0.7-6
	c0-0.2,0-0.4,0-0.7c0-0.8,0.1-1.6,0.2-2.3c0-0.2,0.1-0.3,0.1-0.5C407.6,132,407.5,130,406.8,128.2z"/>
<path class="st2" d="M329.9,49.9c0,2.3-1.7,4.2-5.8,4.2c-1.6,0-3.2-0.3-4.7-0.9l0.5-1.6c1.4,0.6,2.9,0.9,4.3,0.9
	c2.8,0,3.8-0.9,3.8-2.5c0-1.3-0.9-2.3-3.6-2.3h-3.8v-1.7h4.9c1.5-0.6,2-1.4,2-2.5c0-1.6-1.1-2.2-3.2-2.2c-1.5,0-2.9,0.3-4.2,1
	l-0.5-1.5c1.5-0.7,3.2-1.1,4.9-1.1c3,0,5,1.2,5,3.7c0,1.4-0.8,2.6-2,3.1C329.1,47.3,329.9,48.2,329.9,49.9z"/>
<path class="st3" d="M376.2,28.4c0,2.3-1.7,4.2-5.8,4.2c-1.6,0-3.2-0.3-4.7-0.9l0.5-1.6c1.4,0.6,2.9,0.9,4.3,0.9
	c2.8,0,3.8-0.9,3.8-2.5c0-1.3-0.9-2.3-3.6-2.3h-3.8v-1.7h4.9c1.5-0.6,2-1.4,2-2.5c0-1.6-1.1-2.2-3.2-2.2c-1.5,0-2.9,0.3-4.2,1
	l-0.5-1.5c1.5-0.7,3.2-1.1,4.9-1.1c3,0,5,1.2,5,3.7c0,1.4-0.8,2.6-2,3.1C375.4,25.7,376.2,26.7,376.2,28.4z"/>
<path class="st3" d="M397.9,44.8c0,5.2-1.9,7.3-5.2,7.3c-3.4,0-5.1-2.4-5.1-7.1c0-4.9,1.9-7.3,5.2-7.3
	C396.2,37.7,397.9,40.1,397.9,44.8z M389.5,44.9c0,0.6,0,1.2,0.1,1.7l6-5.2c-0.3-1.3-1.5-2.1-2.8-2
	C390.2,39.4,389.5,41.3,389.5,44.9z M396,44.9c0-0.6,0-1.2-0.1-1.7l-6,5.2c0.3,1.3,1.5,2.1,2.8,2C395.2,50.4,396,48.9,396,44.9z"/>
<path class="st3" d="M433.6,28.4c0,2.3-1.7,4.2-5.8,4.2c-1.6,0-3.2-0.3-4.7-0.9l0.5-1.6c1.4,0.6,2.9,0.9,4.3,0.9
	c2.8,0,3.8-0.9,3.8-2.5c0-1.3-0.9-2.3-3.6-2.3h-3.8v-1.7h4.9c1.5-0.6,2-1.4,2-2.5c0-1.6-1.1-2.2-3.2-2.2c-1.5,0-2.9,0.3-4.2,1
	l-0.5-1.5c1.5-0.7,3.2-1.1,4.9-1.1c3,0,5,1.2,5,3.7c0,1.4-0.8,2.6-2,3.1C432.8,25.7,433.6,26.7,433.6,28.4z"/>
<path class="st3" d="M455.5,50.2v1.7h-9.8v-1.7h4.3v-8.8l-4.3,1.7v-1.8l4.3-1.7v-1.6h1.9v12.3H455.5z"/>
<path class="st3" d="M491,28.4c0,2.3-1.7,4.2-5.8,4.2c-1.6,0-3.2-0.3-4.7-0.9l0.5-1.6c1.4,0.6,2.9,0.9,4.3,0.9
	c2.8,0,3.8-0.9,3.8-2.5c0-1.3-0.9-2.3-3.6-2.3h-3.8v-1.7h4.9c1.5-0.6,2-1.4,2-2.5c0-1.6-1.1-2.2-3.2-2.2c-1.5,0-2.9,0.3-4.2,1
	l-0.5-1.5c1.5-0.7,3.2-1.1,4.9-1.1c3,0,5,1.2,5,3.7c0,1.4-0.8,2.6-2,3.1C490.2,25.7,491,26.7,491,28.4z"/>
<path class="st3" d="M512.9,50.2v1.7h-10.1V50c3.6-2.2,7.8-4.4,7.8-8c0-1.6-0.7-2.6-3-2.6c-2.5,0-3.2,1.1-3.2,3.1
	c0,0.4,0,0.8,0.2,1.3l-1.9-0.1c-0.1-0.4-0.1-0.9-0.1-1.3c0-2.7,1.8-4.5,5.2-4.5c4,0,4.9,2.2,4.9,4.1c0,3.9-3.7,6.2-5.9,7.7l-1.1,0.5
	v0.2L512.9,50.2z"/>
<path class="st3" d="M550.5,28.4c0,2.3-1.7,4.2-5.8,4.2c-1.6,0-3.2-0.3-4.7-0.9l0.5-1.6c1.4,0.6,2.9,0.9,4.3,0.9
	c2.8,0,3.8-0.9,3.8-2.5c0-1.3-0.9-2.3-3.6-2.3h-3.8v-1.7h4.9c1.5-0.6,2-1.4,2-2.5c0-1.6-1.1-2.2-3.2-2.2c-1.5,0-2.9,0.3-4.2,1
	l-0.5-1.5c1.5-0.7,3.2-1.1,4.9-1.1c3,0,5,1.2,5,3.7c0,1.4-0.8,2.6-2,3.1C549.7,25.7,550.5,26.7,550.5,28.4z"/>
<path class="st3" d="M572,47.9c0,2.3-1.7,4.2-5.8,4.2c-1.6,0-3.2-0.3-4.7-0.9l0.5-1.6c1.4,0.6,2.9,0.9,4.3,0.9
	c2.8,0,3.8-0.9,3.8-2.5c0-1.3-0.9-2.3-3.6-2.3h-3.8V44h4.9c1.5-0.6,2-1.4,2-2.5c0-1.6-1.1-2.2-3.2-2.2c-1.5,0-2.9,0.3-4.2,1
	l-0.5-1.5c1.5-0.7,3.2-1.1,4.9-1.1c3,0,5,1.2,5,3.7c0,1.4-0.8,2.6-2,3.1C571.2,45.2,572,46.2,572,47.9z"/>
<path class="st3" d="M376.5,88.1v1.7h-10.1v-1.9c3.6-2.2,7.8-4.4,7.8-8c0-1.6-0.7-2.6-3-2.6c-2.5,0-3.2,1.1-3.2,3.1
	c0,0.4,0,0.8,0.2,1.3l-1.9-0.1c-0.1-0.4-0.1-0.9-0.1-1.3c0-2.7,1.8-4.5,5.2-4.5c4,0,4.9,2.2,4.9,4.1c0,3.9-3.7,6.2-5.9,7.7l-1.1,0.5
	v0.2L376.5,88.1z"/>
<path class="st3" d="M397.9,102.2c0,5.2-1.9,7.3-5.2,7.3c-3.4,0-5.1-2.4-5.1-7.1c0-4.9,1.9-7.3,5.2-7.3
	C396.2,95.1,397.9,97.5,397.9,102.2z M389.5,102.3c0,0.6,0,1.2,0.1,1.7l6-5.2c-0.3-1.3-1.5-2.1-2.8-2
	C390.2,96.8,389.5,98.8,389.5,102.3L389.5,102.3z M396,102.3c0-0.6,0-1.2-0.1-1.7l-6,5.2c0.3,1.3,1.5,2.1,2.8,2
	C395.2,107.8,396,106.3,396,102.3L396,102.3z"/>
<path class="st3" d="M433.9,88.1v1.7h-10.1v-1.9c3.6-2.2,7.8-4.4,7.8-8c0-1.6-0.7-2.6-3-2.6c-2.5,0-3.2,1.1-3.2,3.1
	c0,0.4,0,0.8,0.2,1.3l-1.9-0.1c-0.1-0.4-0.1-0.9-0.1-1.3c0-2.7,1.8-4.5,5.2-4.5c4,0,4.9,2.2,4.9,4.1c0,3.9-3.7,6.2-5.9,7.7l-1.1,0.5
	v0.2L433.9,88.1z"/>
<path class="st3" d="M455.5,107.6v1.7h-9.8v-1.7h4.3v-8.8l-4.3,1.7v-1.8l4.3-1.7v-1.6h1.9v12.3H455.5z"/>
<path class="st3" d="M491.3,88.1v1.7h-10.1v-1.9c3.6-2.2,7.8-4.4,7.8-8c0-1.6-0.7-2.6-3-2.6c-2.5,0-3.2,1.1-3.2,3.1
	c0,0.4,0,0.8,0.2,1.3l-1.9-0.1c-0.1-0.4-0.1-0.9-0.1-1.3c0-2.7,1.8-4.5,5.2-4.5c4,0,4.9,2.2,4.9,4.1c0,3.9-3.7,6.2-5.9,7.7l-1.1,0.5
	v0.2L491.3,88.1z"/>
<path class="st3" d="M512.9,107.6v1.7h-10.1v-1.9c3.6-2.2,7.8-4.4,7.8-8c0-1.6-0.7-2.6-3-2.6c-2.5,0-3.2,1.1-3.2,3.1
	c0,0.4,0,0.8,0.2,1.3l-1.9-0.1c-0.1-0.4-0.1-0.9-0.1-1.3c0-2.7,1.8-4.5,5.2-4.5c4,0,4.9,2.2,4.9,4.1c0,3.9-3.7,6.2-5.9,7.7l-1.1,0.5
	v0.2L512.9,107.6z"/>
<path class="st3" d="M550.8,88.1v1.7h-10.1v-1.9c3.6-2.2,7.8-4.4,7.8-8c0-1.6-0.7-2.6-3-2.6c-2.5,0-3.2,1.1-3.2,3.1
	c0,0.4,0,0.8,0.2,1.3l-1.9-0.1c-0.1-0.4-0.1-0.9-0.1-1.3c0-2.7,1.8-4.5,5.2-4.5c4,0,4.9,2.2,4.9,4.1c0,3.9-3.7,6.2-5.9,7.7l-1.1,0.5
	v0.2L550.8,88.1z"/>
<path class="st3" d="M572,105.3c0,2.3-1.7,4.2-5.8,4.2c-1.6,0-3.2-0.3-4.7-0.9l0.5-1.6c1.4,0.6,2.9,0.9,4.3,0.9
	c2.8,0,3.8-0.9,3.8-2.5c0-1.3-0.9-2.3-3.6-2.3h-3.8v-1.7h4.9c1.5-0.6,2-1.4,2-2.5c0-1.6-1.1-2.2-3.2-2.2c-1.5,0-2.9,0.3-4.2,1
	l-0.5-1.5c1.5-0.7,3.2-1.1,4.9-1.1c3,0,5,1.2,5,3.7c0,1.4-0.8,2.6-2,3.1C571.2,102.7,572,103.6,572,105.3z"/>
<path class="st3" d="M376.6,147.6v1.7h-9.8v-1.7h4.3v-8.8l-4.3,1.7v-1.8l4.3-1.7v-1.6h1.9v12.3H376.6z"/>
<path class="st3" d="M397.9,161.7c0,5.2-1.9,7.3-5.2,7.3c-3.4,0-5.1-2.4-5.1-7.1c0-4.9,1.9-7.3,5.2-7.3
	C396.2,154.6,397.9,157,397.9,161.7z M389.5,161.8c0,0.6,0,1.2,0.1,1.7l6-5.2c-0.3-1.3-1.5-2.1-2.8-2
	C390.2,156.3,389.5,158.2,389.5,161.8L389.5,161.8z M396,161.8c0-0.6,0-1.2-0.1-1.7l-6,5.2c0.3,1.3,1.5,2.1,2.8,2
	C395.2,167.3,396,165.8,396,161.8z"/>
<path class="st3" d="M434,147.6v1.7h-9.8v-1.7h4.3v-8.8l-4.3,1.7v-1.8l4.3-1.7v-1.6h1.9v12.3H434z"/>
<path class="st3" d="M455.5,167.1v1.7h-9.8v-1.7h4.3v-8.8l-4.3,1.7v-1.8l4.3-1.7v-1.6h1.9v12.3L455.5,167.1z"/>
<path class="st3" d="M491.4,147.6v1.7h-9.8v-1.7h4.4v-8.8l-4.3,1.7v-1.8l4.3-1.7v-1.6h1.9v12.3H491.4z"/>
<path class="st3" d="M512.9,167.1v1.7h-10.1v-1.9c3.6-2.2,7.8-4.4,7.8-8c0-1.6-0.7-2.6-3-2.6c-2.5,0-3.2,1.1-3.2,3.1
	c0,0.4,0,0.8,0.2,1.3l-1.9-0.1c-0.1-0.4-0.1-0.9-0.1-1.3c0-2.7,1.8-4.5,5.2-4.5c4,0,4.9,2.2,4.9,4.1c0,3.9-3.7,6.2-5.9,7.7l-1.1,0.5
	v0.2L512.9,167.1z"/>
<g>
	<path class="st3" d="M550.9,147.6v1.7h-9.8v-1.7h4.3v-8.8l-4.3,1.7v-1.8l4.3-1.7v-1.6h1.9v12.3H550.9z"/>
</g>
<path class="st3" d="M572,164.7c0,2.3-1.7,4.2-5.8,4.2c-1.6,0-3.2-0.3-4.7-0.9l0.5-1.6c1.4,0.6,2.9,0.9,4.3,0.9
	c2.8,0,3.8-0.9,3.8-2.5c0-1.3-0.9-2.3-3.6-2.3h-3.8v-1.7h4.9c1.5-0.6,2-1.4,2-2.5c0-1.6-1.1-2.2-3.2-2.2c-1.5,0-2.9,0.3-4.2,1
	l-0.5-1.5c1.5-0.7,3.2-1.1,4.9-1.1c3,0,5,1.2,5,3.7c0,1.4-0.8,2.6-2,3.1C571.2,162.1,572,163.1,572,164.7z"/>
<path class="st3" d="M376.3,199.6c0,5.2-1.9,7.3-5.2,7.3c-3.4,0-5.1-2.4-5.1-7.1c0-4.9,1.9-7.3,5.2-7.3
	C374.7,192.6,376.3,195,376.3,199.6z M367.9,199.8c0,0.6,0,1.2,0.1,1.7l6-5.2c-0.3-1.3-1.5-2.1-2.8-2
	C368.7,194.2,367.9,196.2,367.9,199.8z M374.4,199.7c0-0.6,0-1.2-0.1-1.7l-6,5.2c0.3,1.3,1.5,2.1,2.8,2
	C373.7,205.2,374.4,203.7,374.4,199.7L374.4,199.7z"/>
<path class="st3" d="M397.9,219.1c0,5.2-1.9,7.3-5.2,7.3c-3.4,0-5.1-2.4-5.1-7.1c0-4.9,1.9-7.3,5.2-7.3
	C396.2,212,397.9,214.4,397.9,219.1z M389.5,219.2c0,0.6,0,1.2,0.1,1.7l6-5.2c-0.3-1.3-1.5-2.1-2.8-2
	C390.2,213.7,389.5,215.6,389.5,219.2z M396,219.2c0-0.6,0-1.2-0.1-1.7l-6,5.2c0.3,1.3,1.5,2.1,2.8,2
	C395.2,224.7,396,223.2,396,219.2z"/>
<path class="st3" d="M433.8,199.6c0,5.2-1.9,7.3-5.2,7.3c-3.4,0-5.1-2.4-5.1-7.1c0-4.9,1.9-7.3,5.2-7.3
	C432.1,192.6,433.8,195,433.8,199.6z M425.4,199.8c0,0.6,0,1.2,0.1,1.7l6-5.2c-0.3-1.3-1.5-2.1-2.8-2
	C426.1,194.2,425.4,196.2,425.4,199.8z M431.8,199.7c0-0.6,0-1.2-0.1-1.7l-6,5.2c0.3,1.3,1.5,2.1,2.8,2
	C431.1,205.2,431.8,203.7,431.8,199.7L431.8,199.7z"/>
<path class="st3" d="M455.5,224.5v1.7h-9.8v-1.7h4.3v-8.8l-4.3,1.7v-1.8l4.3-1.7v-1.6h1.9v12.3H455.5z"/>
<path class="st3" d="M491.2,199.6c0,5.2-1.9,7.3-5.2,7.3c-3.4,0-5.1-2.4-5.1-7.1c0-4.9,1.9-7.3,5.2-7.3
	C489.5,192.6,491.2,195,491.2,199.6z M482.8,199.8c0,0.6,0,1.2,0.1,1.7l6-5.2c-0.3-1.3-1.5-2.1-2.8-2
	C483.5,194.2,482.8,196.2,482.8,199.8z M489.3,199.7c0-0.6,0-1.2-0.1-1.7l-6,5.2c0.3,1.3,1.5,2.1,2.8,2
	C488.5,205.2,489.3,203.7,489.3,199.7L489.3,199.7z"/>
<path class="st3" d="M512.9,224.5v1.7h-10.1v-1.9c3.6-2.2,7.8-4.4,7.8-8c0-1.6-0.7-2.6-3-2.6c-2.5,0-3.2,1.1-3.2,3.1
	c0,0.4,0,0.8,0.2,1.3l-1.9-0.1c-0.1-0.4-0.1-0.9-0.1-1.3c0-2.7,1.8-4.5,5.2-4.5c4,0,4.9,2.2,4.9,4.1c0,3.9-3.7,6.2-5.9,7.7l-1.1,0.5
	v0.2L512.9,224.5z"/>
<path class="st3" d="M550.7,199.6c0,5.2-1.9,7.3-5.2,7.3c-3.4,0-5.1-2.4-5.1-7.1c0-4.9,1.9-7.3,5.2-7.3
	C549,192.6,550.7,195,550.7,199.6z M542.2,199.8c0,0.6,0,1.2,0.1,1.7l6-5.2c-0.3-1.3-1.5-2.1-2.8-2
	C543,194.2,542.2,196.2,542.2,199.8z M548.7,199.7c0-0.6,0-1.2-0.1-1.7l-6,5.2c0.3,1.3,1.5,2.1,2.8,2
	C548,205.2,548.7,203.7,548.7,199.7z"/>
<path class="st3" d="M572,222.2c0,2.3-1.7,4.2-5.8,4.2c-1.6,0-3.2-0.3-4.7-0.9l0.5-1.6c1.4,0.6,2.9,0.9,4.3,0.9
	c2.8,0,3.8-0.9,3.8-2.5c0-1.3-0.9-2.3-3.6-2.3h-3.8v-1.7h4.9c1.5-0.6,2-1.4,2-2.5c0-1.6-1.1-2.2-3.2-2.2c-1.5,0-2.9,0.3-4.2,1
	l-0.5-1.5c1.5-0.7,3.2-1.1,4.9-1.1c3,0,5,1.2,5,3.7c0,1.4-0.8,2.6-2,3.1C571.2,219.5,572,220.5,572,222.2z"/>
<path class="st2" d="M330.2,109.7v1.7h-10.1v-1.9c3.6-2.2,7.8-4.4,7.8-8c0-1.6-0.7-2.6-3-2.6c-2.5,0-3.2,1.1-3.2,3.1
	c0,0.4,0,0.8,0.2,1.3l-1.9-0.1c-0.1-0.4-0.1-0.9-0.1-1.3c0-2.7,1.8-4.5,5.2-4.5c4,0,4.9,2.2,4.9,4.1c0,3.9-3.7,6.2-5.9,7.7l-1.1,0.5
	v0.2L330.2,109.7z"/>
<path class="st2" d="M330.3,167.1v1.7h-9.8v-1.7h4.3v-8.8l-4.3,1.7v-1.8l4.3-1.7v-1.6h1.9v12.3H330.3z"/>
<path class="st2" d="M330.1,219.1c0,5.2-1.9,7.3-5.2,7.3c-3.4,0-5.1-2.4-5.1-7.1c0-4.9,1.9-7.3,5.2-7.3
	C328.4,212,330.1,214.4,330.1,219.1z M321.7,219.2c0,0.6,0,1.2,0.1,1.7l6-5.2c-0.3-1.3-1.5-2.1-2.8-2
	C322.4,213.7,321.7,215.6,321.7,219.2z M328.2,219.2c0-0.6,0-1.2-0.1-1.7l-6,5.2c0.3,1.3,1.5,2.1,2.8,2
	C327.4,224.7,328.2,223.2,328.2,219.2z"/>
<path class="st1" d="M376.3,267.5c0,5.2-1.9,7.3-5.2,7.3c-3.4,0-5.1-2.4-5.1-7.1c0-4.9,1.9-7.3,5.2-7.3
	C374.7,260.4,376.3,262.8,376.3,267.5z M367.9,267.6c0,0.6,0,1.2,0.1,1.7l6-5.2c-0.3-1.3-1.5-2.1-2.8-2
	C368.7,262.1,367.9,264,367.9,267.6z M374.4,267.6c0-0.6,0-1.2-0.1-1.7l-6,5.2c0.3,1.3,1.5,2.1,2.8,2
	C373.7,273.1,374.4,271.6,374.4,267.6z"/>
<path class="st1" d="M436,272.9v1.7h-9.8v-1.7h4.3v-8.8l-4.3,1.7v-1.8l4.3-1.7v-1.6h1.9v12.3H436z"/>
<path class="st1" d="M495.4,272.9v1.7h-10.1v-1.9c3.6-2.2,7.8-4.4,7.8-8c0-1.6-0.7-2.6-3-2.6c-2.5,0-3.2,1.1-3.2,3.1
	c0,0.4,0,0.8,0.2,1.3l-1.9-0.1c-0.1-0.4-0.1-0.9-0.1-1.3c0-2.7,1.8-4.5,5.2-4.5c4,0,4.9,2.2,4.9,4.1c0,3.9-3.7,6.2-5.9,7.7l-1.1,0.5
	v0.2L495.4,272.9z"/>
<path class="st1" d="M548.4,270.6c0,2.3-1.7,4.2-5.8,4.2c-1.6,0-3.2-0.3-4.7-0.9l0.5-1.6c1.4,0.6,2.9,0.9,4.3,0.9
	c2.8,0,3.8-0.9,3.8-2.5c0-1.3-0.9-2.3-3.6-2.3h-3.8v-1.7h4.9c1.5-0.6,2-1.4,2-2.5c0-1.6-1.1-2.2-3.2-2.2c-1.5,0-2.9,0.3-4.2,1
	l-0.5-1.5c1.5-0.7,3.2-1.1,4.9-1.1c3,0,5,1.2,5,3.7c0,1.4-0.8,2.6-2,3.1C547.7,267.9,548.4,268.9,548.4,270.6z"/>
</svg>
