<svg xmlns="http://www.w3.org/2000/svg" viewBox="0 0 952 294.078"><defs><style>.cls-1{fill:#f36;}</style></defs><title>10</title><g id="solo_testo" data-name="solo testo"><path class="cls-1" d="M409.682,61.219a1.082,1.082,0,0,1-.152-.621c-.025,0-.049,0-.075,0l0-.083-.006-.351-.013-.682a.818.818,0,0,0-.043-.153,3.637,3.637,0,0,0-.171-2.04c-.017-.039-.022-.076-.039-.114-1.092-2.519.251-5.068-.549-7.559a.482.482,0,0,1,.095-.372,2.545,2.545,0,0,1,.2-.288,2.769,2.769,0,0,0,.132-3.179,2.849,2.849,0,0,1-.226-1.587c.427-2.7,1-5.405-.118-8.1a1.1,1.1,0,0,1-.016-.7c.658-2.407-.135-4.821.11-7.248.211-2.078.6-4.21-.061-6.311-.092-.294.062-.621.072-.932a14.732,14.732,0,0,0,.034-2.8,20.006,20.006,0,0,1-.1-7.453q-1.447.091-2.894.187a3.973,3.973,0,0,1-2.808-.528,4.057,4.057,0,0,0-3.15-.448c-.548.076-1.072.236-1.608.356a11.344,11.344,0,0,1-5.307.046c-2.278-.565-4.7-.083-7.019-.418a5.094,5.094,0,0,1-3.547-.038,1.829,1.829,0,0,0-.967.078,12.211,12.211,0,0,1-3.977.151c-3.054-.065-6.18-.992-9.18.218a2.016,2.016,0,0,1-.663-.022c-3.372-.124-6.718.335-10.121.065-1-.08-2.016-.092-3.032-.089.067.251.146.5.229.749.67,2,.182,4.043.644,6.043a.786.786,0,0,1-.192.68c-1.035,1.086-.674,2.259-.527,3.425.177,1.4.536,2.806-.131,4.195-.606,1.262-1.294,2.516-.237,3.838.143.179.025.46.014.7-.063,1.323-.029,2.654-.221,3.968-.19,1.294.729,2.62-.274,3.885-.082.1.028.313.123.449a3.473,3.473,0,0,1,.245,2.989,1.593,1.593,0,0,0,.414,1.556c1.256.93.843,1.894.448,2.861a8.664,8.664,0,0,0-.455,4.877c.179,1.054.326,2.113.474,3.171a.623.623,0,0,1-.09.118,2.92,2.92,0,0,0-.718.792.214.214,0,0,1-.061.069,2.332,2.332,0,0,0-.383.392c-.011.029-.02.059-.036.1l0,.014,0,.012c0,.059-.052.059,0,.116.163.224-.043.4-.038.632a.458.458,0,0,1-.1.289.37.37,0,0,0-.047.231c0,.029-.018.046-.023.071.065.16.047.345.141.442v.057c-.1.233.064.457.121.628,0,.056.054.055.056.113-.053,0-.1.06-.21.063a1.216,1.216,0,0,1-.042.461l0,.171c.018.088.055.169.079.254l.007.021a3.962,3.962,0,0,0,.143.464c0,.115.058.172.008.287a5.071,5.071,0,0,0-.033.76c0,.053,0,.1,0,.159a1.233,1.233,0,0,1,.068.63c0,.127-.006.254-.008.372.008-.007.017-.009.024-.019.457-.668.9-.6,1.335-.321a3.737,3.737,0,0,0-.468,1.834q.432.032.864.058c.84.048,1.681.077,2.526.062a8.387,8.387,0,0,0,5.649.118c.162-.04.324-.078.487-.12a14.321,14.321,0,0,1,2.346-.2c.222-.015.443-.032.664-.049a40.243,40.243,0,0,0,5.986-.741c1.548-.352,3.366-.653,4.89.164a4.981,4.981,0,0,0,4.117.238,8.41,8.41,0,0,1,1.64-.264,89.306,89.306,0,0,1,10.348-.212q1.374.017,2.748.009c.13,0,.261,0,.391,0h.085a1.305,1.305,0,0,1,.652.537.817.817,0,0,0,.951.275c1.218-.264,2.435-.552,3.65-.895,1.052-.011,2.1.039,3.141.115.062.04.125.063.188.111.427.319.854.64,1.271.014.6.063,1.207.133,1.808.218a3.746,3.746,0,0,1-.057-.866A.85.85,0,0,0,409.682,61.219Zm-47.9-40.073v0c.006,0,.01,0,.016.007Z"/><path class="cls-1" d="M464.6,8.208a1.074,1.074,0,0,1-.621.152c0,.025,0,.05,0,.075l-.083,0-.351.007-.682.013a.813.813,0,0,0-.153.042,3.645,3.645,0,0,0-2.04.171c-.039.017-.075.023-.114.039-2.519,1.092-5.068-.251-7.559.549a.485.485,0,0,1-.372-.094,2.429,2.429,0,0,1-.288-.2,2.771,2.771,0,0,0-3.179-.132,2.85,2.85,0,0,1-1.587.227c-2.705-.428-5.405-1-8.1.118a1.1,1.1,0,0,1-.7.016c-2.407-.658-4.821.134-7.248-.111-2.078-.211-4.21-.6-6.311.062-.294.092-.62-.063-.932-.072a14.816,14.816,0,0,0-2.8-.035,19.985,19.985,0,0,1-7.453.1q.092,1.447.187,2.894a3.972,3.972,0,0,1-.528,2.808,4.059,4.059,0,0,0-.448,3.151c.077.547.236,1.071.356,1.607a11.336,11.336,0,0,1,.046,5.308c-.565,2.278-.083,4.7-.418,7.018a5.094,5.094,0,0,1-.038,3.547,1.828,1.828,0,0,0,.078.967,12.185,12.185,0,0,1,.151,3.977c-.065,3.055-.992,6.18.218,9.18a2.022,2.022,0,0,1-.022.664c-.124,3.372.335,6.717.065,10.12-.08,1-.092,2.017-.089,3.033.251-.067.5-.147.749-.229,2-.67,4.043-.183,6.043-.645a.789.789,0,0,1,.68.192c1.086,1.035,2.259.675,3.426.528,1.4-.177,2.805-.536,4.194.131,1.262.605,2.516,1.294,3.838.236.179-.142.46-.024.695-.013,1.323.062,2.654.029,3.968.221,1.294.19,2.62-.73,3.885.273.1.083.313-.028.449-.123a3.473,3.473,0,0,1,2.989-.244,1.594,1.594,0,0,0,1.556-.415c.931-1.256,1.894-.842,2.861-.447a8.672,8.672,0,0,0,4.877.454c1.054-.178,2.113-.326,3.171-.474a.628.628,0,0,1,.118.091,2.917,2.917,0,0,0,.792.717.217.217,0,0,1,.069.062,2.371,2.371,0,0,0,.392.383c.029.01.06.02.1.036l.014,0,.013,0c.058,0,.058.052.115,0,.224-.164.4.043.632.037a.464.464,0,0,1,.289.1.371.371,0,0,0,.231.048c.03,0,.046.017.071.022.16-.064.345-.046.442-.14l.057,0c.233.1.457-.064.628-.121.056,0,.055-.054.113-.055,0,.053.06.1.063.21a1.215,1.215,0,0,1,.461.041l.172,0c.087-.018.168-.055.253-.078l.021-.007a3.784,3.784,0,0,0,.464-.144c.115,0,.172-.057.287-.007a5.213,5.213,0,0,0,.76.033c.053,0,.106,0,.159,0a1.233,1.233,0,0,1,.63-.068c.127,0,.254.006.373.008-.008-.008-.01-.017-.02-.025-.668-.457-.6-.9-.321-1.335a3.726,3.726,0,0,0,1.834.468c.022-.288.04-.575.058-.863.048-.841.077-1.681.062-2.526a8.39,8.39,0,0,0,.118-5.65c-.04-.162-.078-.324-.12-.486a14.333,14.333,0,0,1-.2-2.347c-.015-.221-.032-.442-.049-.663a40.256,40.256,0,0,0-.741-5.987c-.352-1.547-.653-3.365.164-4.889a4.981,4.981,0,0,0,.238-4.117,8.432,8.432,0,0,1-.264-1.641,89.306,89.306,0,0,1-.212-10.348q.016-1.374.009-2.747c0-.131,0-.261,0-.392,0-.028,0-.056,0-.084a1.3,1.3,0,0,1,.537-.652.818.818,0,0,0,.275-.952c-.264-1.218-.552-2.435-.895-3.649-.01-1.053.039-2.1.115-3.141.04-.063.063-.125.111-.188.319-.428.64-.855.014-1.271.063-.6.133-1.207.218-1.808a3.746,3.746,0,0,1-.866.057A.851.851,0,0,0,464.6,8.208ZM424.531,56.1h0c0-.005,0-.01.007-.015Z"/><path class="cls-1" d="M469.57,11.426a1.069,1.069,0,0,1,.151.62c.026,0,.05,0,.076,0v.083l.007.352.013.681a.775.775,0,0,0,.043.154,3.629,3.629,0,0,0,.171,2.04c.017.038.022.075.039.113,1.091,2.519-.252,5.068.548,7.56a.479.479,0,0,1-.094.371,2.652,2.652,0,0,1-.2.289,2.769,2.769,0,0,0-.133,3.178,2.851,2.851,0,0,1,.227,1.587c-.428,2.7-1,5.4.118,8.1a1.1,1.1,0,0,1,.016.7c-.658,2.407.135,4.821-.111,7.248-.21,2.078-.595,4.21.062,6.312.092.293-.062.62-.072.931a14.732,14.732,0,0,0-.034,2.8A19.99,19.99,0,0,1,470.5,62q1.449-.093,2.895-.188a3.97,3.97,0,0,1,2.807.528,4.059,4.059,0,0,0,3.151.448c.548-.076,1.072-.236,1.608-.356a11.344,11.344,0,0,1,5.307-.046c2.278.565,4.7.083,7.019.418a5.1,5.1,0,0,1,3.546.038,1.832,1.832,0,0,0,.968-.078,12.183,12.183,0,0,1,3.977-.15c3.054.064,6.18.991,9.18-.218a2.013,2.013,0,0,1,.663.021c3.372.124,6.717-.335,10.121-.064,1,.079,2.016.092,3.032.089-.067-.252-.146-.5-.229-.749-.67-2-.182-4.043-.644-6.043a.785.785,0,0,1,.192-.68c1.035-1.087.674-2.26.527-3.426-.177-1.4-.536-2.806.131-4.195.606-1.262,1.294-2.516.237-3.838-.143-.179-.025-.46-.014-.7.063-1.323.029-2.654.221-3.968.19-1.294-.729-2.62.274-3.884.082-.1-.028-.314-.124-.45a3.476,3.476,0,0,1-.244-2.989,1.6,1.6,0,0,0-.414-1.556c-1.257-.93-.843-1.894-.448-2.861a8.672,8.672,0,0,0,.455-4.877c-.179-1.054-.326-2.113-.474-3.171a.584.584,0,0,1,.09-.118,2.905,2.905,0,0,0,.718-.792.2.2,0,0,1,.061-.069,2.364,2.364,0,0,0,.383-.391c.01-.03.02-.06.036-.1l0-.014,0-.012c0-.059.052-.059,0-.115-.163-.224.043-.4.038-.633a.453.453,0,0,1,.1-.288.373.373,0,0,0,.047-.232c0-.029.018-.046.023-.071-.065-.159-.047-.345-.141-.442v-.057c.1-.233-.064-.457-.121-.627,0-.057-.055-.056-.056-.114.053,0,.1-.06.21-.063a1.23,1.23,0,0,1,.041-.46l0-.172c-.017-.088-.054-.169-.078-.254l-.007-.021a3.962,3.962,0,0,0-.143-.464c0-.115-.058-.171-.008-.287a5.063,5.063,0,0,0,.033-.759c0-.054,0-.106,0-.16a1.23,1.23,0,0,1-.068-.629c0-.128.006-.255.008-.373-.008.007-.017.009-.025.02-.456.667-.9.6-1.334.32a3.725,3.725,0,0,0,.467-1.834q-.43-.032-.863-.058c-.84-.048-1.681-.077-2.526-.061a8.384,8.384,0,0,0-5.65-.119l-.486.12a14.331,14.331,0,0,1-2.346.2l-.664.049a40.274,40.274,0,0,0-5.987.742c-1.547.351-3.365.652-4.889-.165a4.977,4.977,0,0,0-4.117-.237,8.561,8.561,0,0,1-1.641.264,89.507,89.507,0,0,1-10.347.211c-.916-.01-1.832-.015-2.748-.009-.131,0-.261,0-.392,0l-.084,0a1.3,1.3,0,0,1-.652-.537.819.819,0,0,0-.952-.275c-1.217.264-2.434.553-3.649.9-1.053.011-2.1-.038-3.141-.115-.063-.04-.125-.063-.188-.111-.428-.319-.855-.64-1.271-.013-.6-.063-1.207-.134-1.808-.218a3.737,3.737,0,0,1,.057.865A.851.851,0,0,0,469.57,11.426Zm47.9,40.072v0s-.01,0-.015-.006Z"/><path class="cls-1" d="M531.132,64.166a1.079,1.079,0,0,1,.62-.152c0-.025,0-.05,0-.075l.083,0,.351-.006.682-.013a.839.839,0,0,0,.153-.043,3.637,3.637,0,0,0,2.04-.171c.038-.017.075-.023.114-.039,2.518-1.092,5.068.251,7.559-.549a.482.482,0,0,1,.372.095,2.545,2.545,0,0,1,.288.2,2.769,2.769,0,0,0,3.179.132,2.849,2.849,0,0,1,1.587-.226c2.705.427,5.4,1,8.1-.118a1.1,1.1,0,0,1,.7-.016c2.406.658,4.821-.135,7.248.11,2.078.211,4.21.595,6.311-.061.293-.093.62.062.932.072a14.815,14.815,0,0,0,2.8.034,20.006,20.006,0,0,1,7.453-.1q-.091-1.448-.187-2.894a3.972,3.972,0,0,1,.528-2.808,4.061,4.061,0,0,0,.448-3.15c-.077-.548-.236-1.072-.356-1.608a11.331,11.331,0,0,1-.046-5.307c.565-2.279.083-4.7.417-7.019a5.1,5.1,0,0,1,.039-3.547,1.829,1.829,0,0,0-.078-.967,12.183,12.183,0,0,1-.151-3.977c.065-3.054.992-6.18-.218-9.18a1.989,1.989,0,0,1,.022-.663c.124-3.372-.335-6.718-.065-10.121.08-1,.092-2.016.089-3.032-.252.067-.5.146-.749.229-2,.67-4.043.182-6.043.644a.786.786,0,0,1-.68-.192c-1.087-1.035-2.259-.675-3.426-.528-1.4.178-2.806.537-4.195-.13-1.261-.606-2.515-1.294-3.837-.237-.18.143-.46.025-.7.014-1.323-.063-2.654-.03-3.968-.222-1.294-.189-2.62.73-3.885-.273-.1-.082-.313.028-.45.123a3.471,3.471,0,0,1-2.988.245,1.6,1.6,0,0,0-1.557.414c-.93,1.256-1.894.843-2.861.448a8.659,8.659,0,0,0-4.876-.455c-1.055.179-2.114.326-3.171.474a.593.593,0,0,1-.118-.09,2.918,2.918,0,0,0-.792-.718.214.214,0,0,1-.069-.061,2.332,2.332,0,0,0-.392-.383c-.029-.011-.06-.02-.1-.036l-.013-.005-.013,0c-.058,0-.058-.052-.115,0-.224.163-.4-.044-.632-.038a.458.458,0,0,1-.289-.1A.365.365,0,0,0,536,8.043c-.029,0-.046-.018-.07-.023-.16.065-.346.047-.442.141h-.057c-.233-.1-.457.064-.628.121-.057,0-.055.054-.113.056,0-.053-.06-.1-.063-.211a1.2,1.2,0,0,1-.461-.041l-.172,0c-.087.018-.169.055-.253.079l-.021.007a3.9,3.9,0,0,0-.464.143c-.115,0-.172.058-.287.008a5.082,5.082,0,0,0-.76-.033c-.054,0-.106,0-.159,0a1.233,1.233,0,0,1-.63.068c-.127,0-.255-.006-.373-.008.008.007.009.017.02.024.668.457.605.9.321,1.335a3.737,3.737,0,0,0-1.834-.468c-.022.288-.04.576-.059.864-.047.84-.076,1.681-.061,2.526a8.381,8.381,0,0,0-.118,5.649c.04.162.078.324.12.487a14.321,14.321,0,0,1,.2,2.346c.015.222.032.443.049.664a40.243,40.243,0,0,0,.741,5.986c.352,1.548.653,3.366-.164,4.89a4.977,4.977,0,0,0-.238,4.117,8.41,8.41,0,0,1,.264,1.64,89.529,89.529,0,0,1,.212,10.348q-.017,1.374-.009,2.748c0,.13,0,.26,0,.391,0,.028,0,.057,0,.084a1.3,1.3,0,0,1-.538.653.818.818,0,0,0-.274.951c.264,1.218.552,2.435.895,3.65.01,1.052-.039,2.1-.116,3.141-.039.062-.063.125-.11.188-.319.427-.64.854-.014,1.271-.063.6-.133,1.207-.218,1.808a3.692,3.692,0,0,1,.866-.057A.85.85,0,0,0,531.132,64.166ZM571.2,16.271h0c0,.006,0,.01-.006.015Z"/><path class="cls-1" d="M528.622,70.626a1.082,1.082,0,0,1,.152.621c.025,0,.049,0,.075,0l0,.083.006.351.013.682a.818.818,0,0,0,.043.153,3.637,3.637,0,0,0,.171,2.04c.017.039.022.076.039.114,1.092,2.519-.251,5.068.549,7.559a.482.482,0,0,1-.1.372,2.545,2.545,0,0,1-.2.288,2.771,2.771,0,0,0-.133,3.179,2.841,2.841,0,0,1,.227,1.587c-.427,2.7-1,5.405.118,8.1a1.1,1.1,0,0,1,.016.7c-.658,2.407.135,4.821-.11,7.248-.211,2.078-.6,4.21.061,6.311.092.294-.062.621-.072.932a14.732,14.732,0,0,0-.034,2.8,20.006,20.006,0,0,1,.1,7.453q1.447-.092,2.894-.187a3.973,3.973,0,0,1,2.808.528,4.057,4.057,0,0,0,3.15.448c.548-.076,1.072-.236,1.608-.356a11.344,11.344,0,0,1,5.307-.046c2.278.565,4.7.083,7.019.418a5.094,5.094,0,0,1,3.547.038,1.829,1.829,0,0,0,.967-.078,12.211,12.211,0,0,1,3.977-.151c3.054.065,6.18.992,9.18-.218a2.016,2.016,0,0,1,.663.022c3.372.124,6.718-.335,10.121-.065,1,.08,2.016.092,3.032.089-.067-.251-.146-.5-.229-.749-.67-2-.182-4.043-.644-6.043a.786.786,0,0,1,.192-.68c1.035-1.086.674-2.259.527-3.425-.177-1.4-.536-2.806.131-4.2.606-1.262,1.294-2.516.237-3.838-.143-.179-.025-.46-.014-.7.063-1.323.029-2.654.221-3.968.19-1.294-.729-2.62.274-3.885.082-.1-.028-.313-.123-.449a3.473,3.473,0,0,1-.245-2.989,1.593,1.593,0,0,0-.414-1.556c-1.256-.93-.843-1.894-.448-2.861a8.664,8.664,0,0,0,.455-4.877c-.179-1.054-.326-2.113-.474-3.171a.584.584,0,0,1,.09-.118,2.92,2.92,0,0,0,.718-.792.214.214,0,0,1,.061-.069,2.332,2.332,0,0,0,.383-.392c.011-.029.02-.059.036-.1l0-.014,0-.012c0-.059.052-.059,0-.116-.163-.224.043-.4.038-.632a.458.458,0,0,1,.1-.289.37.37,0,0,0,.047-.231c0-.029.018-.046.023-.071-.065-.16-.047-.345-.141-.442v-.057c.1-.233-.064-.457-.121-.628,0-.056-.054-.055-.056-.113.053,0,.1-.06.21-.063a1.216,1.216,0,0,1,.042-.461l0-.171c-.018-.088-.055-.169-.079-.254l-.007-.021a3.962,3.962,0,0,0-.143-.464c0-.115-.058-.172-.008-.287a5.071,5.071,0,0,0,.033-.76c0-.053,0-.105,0-.159a1.23,1.23,0,0,1-.068-.629c0-.128.006-.255.008-.373-.008.007-.017.009-.024.019-.457.668-.9.605-1.335.321a3.737,3.737,0,0,0,.468-1.834q-.432-.031-.864-.058c-.84-.048-1.681-.077-2.526-.062a8.387,8.387,0,0,0-5.649-.118c-.162.04-.324.078-.487.12a14.321,14.321,0,0,1-2.346.2c-.222.015-.443.032-.664.049a40.243,40.243,0,0,0-5.986.741c-1.548.352-3.366.653-4.89-.164a4.981,4.981,0,0,0-4.117-.238,8.41,8.41,0,0,1-1.64.264A89.306,89.306,0,0,1,544.023,70q-1.374-.016-2.748-.009c-.13,0-.261,0-.391,0H540.8a1.305,1.305,0,0,1-.652-.537.817.817,0,0,0-.951-.275c-1.218.264-2.435.552-3.65.895-1.052.011-2.1-.039-3.141-.115-.062-.04-.125-.063-.188-.111-.427-.319-.854-.64-1.271-.014-.6-.063-1.207-.133-1.808-.218a3.746,3.746,0,0,1,.057.866A.85.85,0,0,0,528.622,70.626Zm47.9,40.073v0c-.006,0-.01,0-.016-.007Z"/><path class="cls-1" d="M473.7,120.494a1.121,1.121,0,0,1,.62-.143c0-.024,0-.047,0-.071l.083,0,.351-.006.682-.012a.916.916,0,0,0,.153-.041,3.844,3.844,0,0,0,2.04-.161c.038-.016.075-.022.114-.037,2.518-1.031,5.068.237,7.559-.518a.506.506,0,0,1,.372.089,2.615,2.615,0,0,1,.288.191,2.905,2.905,0,0,0,3.179.125,3,3,0,0,1,1.587-.214c2.7.4,5.4.944,8.1-.111a1.153,1.153,0,0,1,.7-.015c2.406.621,4.821-.128,7.248.1,2.078.2,4.21.562,6.311-.058a3.1,3.1,0,0,1,.932.068,15.6,15.6,0,0,0,2.8.032,21.165,21.165,0,0,1,7.453-.094q-.092-1.367-.187-2.732a3.577,3.577,0,0,1,.528-2.651,3.651,3.651,0,0,0,.448-2.974c-.077-.517-.236-1.012-.356-1.518a10.116,10.116,0,0,1-.046-5.01c.565-2.151.083-4.439.417-6.626a4.561,4.561,0,0,1,.039-3.348,1.627,1.627,0,0,0-.079-.913,10.9,10.9,0,0,1-.15-3.755c.064-2.883.992-5.833-.218-8.666a1.776,1.776,0,0,1,.022-.626c.124-3.183-.335-6.341-.065-9.554.08-.947.092-1.9.089-2.863-.252.063-.5.138-.749.217-2,.632-4.043.172-6.043.608a.821.821,0,0,1-.68-.181c-1.087-.977-2.259-.637-3.426-.5-1.4.167-2.806.506-4.2-.124-1.261-.572-2.515-1.222-3.837-.223-.18.134-.46.023-.695.013-1.323-.06-2.654-.028-3.968-.209-1.294-.179-2.62.688-3.885-.258-.1-.078-.313.026-.45.116a3.654,3.654,0,0,1-2.988.231,1.658,1.658,0,0,0-1.557.391c-.93,1.186-1.894.8-2.861.422a9.152,9.152,0,0,0-4.876-.429c-1.055.169-2.114.308-3.171.448a.577.577,0,0,1-.118-.086,2.882,2.882,0,0,0-.792-.677.218.218,0,0,1-.069-.058,2.3,2.3,0,0,0-.392-.362c-.029-.009-.06-.018-.1-.033l-.013,0-.013,0c-.058,0-.058-.049-.115,0-.224.154-.4-.041-.632-.036a.478.478,0,0,1-.289-.093.385.385,0,0,0-.232-.045c-.029,0-.046-.017-.07-.021-.16.061-.346.044-.442.133H478c-.233-.095-.457.06-.628.114-.057,0-.055.051-.113.052,0-.049-.06-.1-.063-.2a1.278,1.278,0,0,1-.461-.039l-.172,0c-.087.017-.169.052-.253.074l-.021.006a4.078,4.078,0,0,0-.464.136c-.115,0-.172.054-.287.007a5.362,5.362,0,0,0-.76-.031c-.054,0-.106,0-.159,0a1.3,1.3,0,0,1-.63.064c-.127,0-.255-.006-.373-.008.008.008.009.017.02.024.668.431.605.847.321,1.26a3.915,3.915,0,0,0-1.834-.442c-.022.272-.04.543-.059.815-.047.794-.076,1.587-.061,2.385a7.5,7.5,0,0,0-.118,5.333c.04.153.078.306.12.459a12.8,12.8,0,0,1,.2,2.216c.015.209.032.417.049.626A35.965,35.965,0,0,0,473,86.135c.352,1.461.653,3.178-.164,4.616a4.464,4.464,0,0,0-.238,3.887,7.528,7.528,0,0,1,.264,1.548,79.806,79.806,0,0,1,.212,9.769q-.017,1.3-.009,2.594c0,.123,0,.246,0,.37,0,.026,0,.053,0,.079a1.246,1.246,0,0,1-.538.616.746.746,0,0,0-.274.9c.264,1.15.552,2.3.894,3.445.011.994-.038,1.981-.115,2.966-.04.059-.063.118-.11.177-.319.4-.64.807-.014,1.2-.063.57-.134,1.139-.218,1.707a3.918,3.918,0,0,1,.866-.054A.769.769,0,0,0,473.7,120.494Zm40.072-44.753h0s0,.01-.007.015Z"/><path class="cls-1" d="M468.734,120.419a1.069,1.069,0,0,1-.151-.62c-.026,0-.05,0-.076,0v-.083l-.007-.352-.013-.681a.775.775,0,0,0-.043-.154,3.629,3.629,0,0,0-.171-2.04c-.017-.038-.022-.075-.039-.113-1.091-2.519.252-5.068-.548-7.56a.479.479,0,0,1,.094-.371,2.652,2.652,0,0,1,.2-.289,2.769,2.769,0,0,0,.133-3.178,2.843,2.843,0,0,1-.227-1.587c.428-2.7,1-5.405-.118-8.1a1.1,1.1,0,0,1-.016-.7c.658-2.407-.135-4.821.111-7.248.21-2.078.6-4.21-.062-6.312-.092-.293.062-.62.072-.931a14.732,14.732,0,0,0,.034-2.8,19.99,19.99,0,0,1-.1-7.454q-1.449.093-2.9.188a3.97,3.97,0,0,1-2.807-.528,4.059,4.059,0,0,0-3.151-.448c-.548.076-1.072.236-1.608.356a11.344,11.344,0,0,1-5.307.046c-2.278-.565-4.7-.083-7.019-.418a5.1,5.1,0,0,1-3.546-.038,1.832,1.832,0,0,0-.968.078,12.183,12.183,0,0,1-3.977.15c-3.054-.064-6.18-.991-9.18.218a2.013,2.013,0,0,1-.663-.021c-3.372-.124-6.717.335-10.121.064-1-.079-2.016-.092-3.032-.089.067.252.146.5.229.749.67,2,.182,4.043.644,6.043a.785.785,0,0,1-.192.68c-1.035,1.087-.674,2.26-.527,3.426.177,1.4.536,2.806-.131,4.195-.606,1.262-1.294,2.516-.237,3.838.143.179.025.46.014.695-.063,1.323-.029,2.654-.221,3.968-.19,1.294.729,2.62-.274,3.884-.082.105.028.314.124.45a3.476,3.476,0,0,1,.244,2.989,1.6,1.6,0,0,0,.414,1.556c1.257.93.843,1.894.448,2.861a8.663,8.663,0,0,0-.455,4.877c.179,1.054.326,2.113.474,3.171a.584.584,0,0,1-.09.118,2.905,2.905,0,0,0-.718.792.2.2,0,0,1-.061.069,2.364,2.364,0,0,0-.383.391c-.01.03-.02.06-.036.1l0,.014-.005.012c0,.059-.052.059,0,.115.163.224-.043.4-.038.633a.453.453,0,0,1-.1.288.373.373,0,0,0-.047.232c0,.029-.018.046-.023.071.065.159.047.345.141.442v.057c-.1.233.064.457.121.627,0,.057.055.056.056.114-.053,0-.1.06-.21.063a1.21,1.21,0,0,1-.042.46l.005.172c.017.088.054.169.078.254l.007.021a3.962,3.962,0,0,0,.143.464c0,.115.058.171.008.287a5.063,5.063,0,0,0-.033.759c0,.054,0,.106,0,.16a1.23,1.23,0,0,1,.068.629c0,.128-.006.255-.008.373.008-.007.017-.009.025-.02.456-.667.9-.6,1.334-.32a3.737,3.737,0,0,0-.468,1.834q.432.031.864.058c.84.048,1.681.077,2.526.061a8.384,8.384,0,0,0,5.65.119c.161-.04.324-.079.486-.12a14.321,14.321,0,0,1,2.346-.2l.664-.049a40.274,40.274,0,0,0,5.987-.742c1.547-.351,3.365-.652,4.889.165a4.977,4.977,0,0,0,4.117.237,8.561,8.561,0,0,1,1.641-.264,89.507,89.507,0,0,1,10.347-.211c.916.01,1.832.015,2.748.009.13,0,.261,0,.392,0l.084,0a1.3,1.3,0,0,1,.652.537.818.818,0,0,0,.951.275c1.218-.264,2.435-.553,3.65-.9,1.053-.011,2.1.038,3.141.115.063.04.125.063.188.111.428.319.855.64,1.271.013.6.063,1.207.134,1.808.218a3.737,3.737,0,0,1-.057-.865A.851.851,0,0,0,468.734,120.419ZM420.839,80.347v0s.01.005.015.006Z"/><path class="cls-1" d="M352.381,69.094a1.074,1.074,0,0,1,.151.621c.026,0,.05,0,.076,0V69.8l.007.351.013.682a.748.748,0,0,0,.043.153,3.628,3.628,0,0,0,.171,2.04c.017.039.022.075.039.114,1.091,2.519-.252,5.068.548,7.559a.481.481,0,0,1-.094.372,2.545,2.545,0,0,1-.2.288A2.771,2.771,0,0,0,353,84.534a2.85,2.85,0,0,1,.227,1.587c-.428,2.7-1,5.405.118,8.1a1.1,1.1,0,0,1,.016.7c-.658,2.407.135,4.821-.111,7.248-.211,2.078-.595,4.21.062,6.311.092.294-.062.62-.072.932a14.732,14.732,0,0,0-.034,2.8,19.985,19.985,0,0,1,.1,7.453q1.449-.092,2.9-.187a3.97,3.97,0,0,1,2.807.528,4.059,4.059,0,0,0,3.151.448c.548-.076,1.072-.236,1.607-.356a11.349,11.349,0,0,1,5.308-.046c2.278.565,4.7.083,7.018.418a5.094,5.094,0,0,1,3.547.038,1.832,1.832,0,0,0,.968-.078,12.183,12.183,0,0,1,3.977-.151c3.054.065,6.18.992,9.18-.218a2.016,2.016,0,0,1,.663.022c3.372.124,6.717-.335,10.121-.065,1,.08,2.016.092,3.032.089-.067-.251-.146-.5-.229-.749-.67-2-.182-4.043-.644-6.043a.786.786,0,0,1,.192-.68c1.035-1.086.674-2.259.527-3.426-.177-1.4-.536-2.805.131-4.194.606-1.262,1.294-2.516.237-3.838-.143-.179-.025-.46-.014-.7.063-1.323.029-2.654.221-3.968.19-1.294-.729-2.62.274-3.885.082-.1-.029-.313-.124-.449a3.477,3.477,0,0,1-.244-2.989,1.6,1.6,0,0,0-.414-1.556c-1.257-.93-.843-1.894-.448-2.861A8.672,8.672,0,0,0,407.5,79.9c-.179-1.054-.326-2.113-.474-3.171a.584.584,0,0,1,.09-.118,2.92,2.92,0,0,0,.718-.792.2.2,0,0,1,.061-.069,2.332,2.332,0,0,0,.383-.392c.01-.029.02-.06.036-.1l0-.014,0-.013c0-.058.052-.058,0-.115-.164-.224.043-.4.038-.632a.452.452,0,0,1,.1-.289.37.37,0,0,0,.047-.231c0-.03.018-.046.023-.071-.065-.16-.047-.345-.141-.442v-.057c.1-.233-.064-.457-.121-.628,0-.056-.055-.055-.056-.113.053,0,.1-.06.21-.063a1.236,1.236,0,0,1,.041-.461l0-.171c-.018-.088-.054-.169-.078-.254l-.007-.021a3.962,3.962,0,0,0-.143-.464c0-.115-.058-.172-.008-.287a5.077,5.077,0,0,0,.033-.76c0-.053,0-.106,0-.159a1.233,1.233,0,0,1-.068-.63c0-.127.006-.254.008-.373-.008.008-.017.01-.025.02-.456.668-.9.6-1.334.321a3.725,3.725,0,0,0,.467-1.834q-.43-.032-.863-.058c-.84-.048-1.681-.077-2.526-.062a8.39,8.39,0,0,0-5.65-.118c-.161.04-.324.078-.486.12a14.331,14.331,0,0,1-2.346.2c-.222.015-.443.032-.664.049a40.256,40.256,0,0,0-5.987.741c-1.547.352-3.365.653-4.889-.164a4.981,4.981,0,0,0-4.117-.238,8.408,8.408,0,0,1-1.641.264,89.284,89.284,0,0,1-10.347.212q-1.374-.017-2.748-.009c-.131,0-.261,0-.392,0h-.084a1.3,1.3,0,0,1-.652-.537.818.818,0,0,0-.952-.275c-1.217.264-2.434.552-3.649.895-1.053.01-2.1-.039-3.141-.115-.063-.04-.125-.063-.188-.111-.428-.319-.855-.64-1.271-.014-.6-.063-1.207-.133-1.808-.218a3.746,3.746,0,0,1,.057.866A.85.85,0,0,0,352.381,69.094Zm47.9,40.072v0s-.01,0-.015-.007Z"/><path class="cls-1" d="M529.2,178.259a3.742,3.742,0,0,1-.057.866c.6-.084,1.2-.155,1.808-.218.417.626.844.306,1.271-.014.063-.047.126-.07.188-.11,1.043-.077,2.089-.126,3.141-.115,1.215.342,2.432.631,3.65.895a.82.82,0,0,0,.951-.275,1.3,1.3,0,0,1,.652-.537l.085,0c.13,0,.261,0,.391,0,.916.006,1.832,0,2.748-.01a89.754,89.754,0,0,1,10.348.212,8.486,8.486,0,0,1,1.64.264,4.973,4.973,0,0,0,4.117-.238c1.524-.816,3.342-.515,4.89-.164a40.111,40.111,0,0,0,5.986.741c.221.017.442.034.664.049a14.21,14.21,0,0,1,2.346.2c.163.041.325.079.487.119a8.381,8.381,0,0,0,5.649-.118c.845.016,1.686-.014,2.526-.061.288-.019.576-.037.864-.059a3.739,3.739,0,0,0-.468-1.834c.437-.284.878-.347,1.335.321.007.011.016.012.024.02,0-.118-.011-.246-.008-.373a1.23,1.23,0,0,1,.068-.629c0-.054,0-.106,0-.16a5.082,5.082,0,0,0-.033-.76c-.05-.115,0-.172.008-.287a3.946,3.946,0,0,0,.143-.463l.007-.022c.024-.084.061-.166.079-.253l0-.172a1.21,1.21,0,0,1-.042-.46c-.106,0-.157-.062-.21-.063,0-.059.054-.057.056-.114.057-.17.221-.394.121-.628v-.057c.094-.1.076-.282.141-.442,0-.024-.024-.041-.023-.07a.372.372,0,0,0-.047-.232.458.458,0,0,1-.1-.289c0-.228-.2-.408-.038-.632.055-.057,0-.057,0-.115l0-.012,0-.014c-.016-.04-.025-.071-.036-.1a2.326,2.326,0,0,0-.383-.391.237.237,0,0,1-.061-.069,2.905,2.905,0,0,0-.718-.792.591.591,0,0,1-.09-.119c.148-1.057.295-2.116.474-3.171a8.66,8.66,0,0,0-.455-4.876c-.395-.967-.808-1.931.448-2.861a1.6,1.6,0,0,0,.414-1.557,3.471,3.471,0,0,1,.245-2.988c.1-.137.2-.345.123-.45-1-1.265-.084-2.591-.274-3.885-.192-1.314-.158-2.644-.221-3.967-.011-.235-.129-.516.014-.7,1.057-1.321.369-2.575-.237-3.837-.667-1.389-.308-2.795-.131-4.195.147-1.167.508-2.339-.527-3.426a.785.785,0,0,1-.192-.68c.462-2-.026-4.041.644-6.043.083-.245.162-.5.229-.749-1.016,0-2.029.009-3.032.089-3.4.27-6.749-.189-10.121-.064a2.013,2.013,0,0,1-.663.021c-3-1.209-6.126-.282-9.18-.218a12.211,12.211,0,0,1-3.977-.15,1.82,1.82,0,0,0-.967-.079,5.1,5.1,0,0,1-3.547.039c-2.317.334-4.741-.148-7.019.417a11.331,11.331,0,0,1-5.307-.046c-.536-.119-1.06-.279-1.608-.356a4.065,4.065,0,0,0-3.15.448,3.968,3.968,0,0,1-2.808.528q-1.447-.1-2.894-.187a20.012,20.012,0,0,1-.1,7.454,14.721,14.721,0,0,0,.034,2.8c.01.312.164.639.072.932-.656,2.1-.272,4.233-.061,6.312.245,2.426-.548,4.841.11,7.248a1.093,1.093,0,0,1-.016.7c-1.118,2.7-.545,5.4-.118,8.1a2.841,2.841,0,0,1-.227,1.587,2.771,2.771,0,0,0,.133,3.179,2.558,2.558,0,0,1,.2.289.48.48,0,0,1,.1.371c-.8,2.491.543,5.041-.549,7.56-.017.038-.022.075-.039.113a3.637,3.637,0,0,0-.171,2.04.827.827,0,0,0-.043.154l-.013.681-.006.352,0,.082h-.075a1.079,1.079,0,0,1-.152.62A.85.85,0,0,0,529.2,178.259ZM576.5,138.04c.006,0,.01-.006.016-.006v0Z"/><path class="cls-1" d="M473.551,125.672a3.746,3.746,0,0,1-.866-.057c.085.6.155,1.2.218,1.808-.626.417-.305.844.014,1.271.048.063.071.126.111.188.076,1.043.125,2.089.115,3.141-.343,1.215-.631,2.432-.895,3.65a.817.817,0,0,0,.275.951,1.305,1.305,0,0,1,.537.652c0,.028,0,.057,0,.085,0,.13,0,.261,0,.391q-.009,1.374.009,2.748a89.306,89.306,0,0,1-.212,10.348,8.41,8.41,0,0,1-.264,1.64,4.981,4.981,0,0,0,.238,4.117c.817,1.524.516,3.342.164,4.89a40.243,40.243,0,0,0-.741,5.986c-.017.221-.034.442-.049.664a14.321,14.321,0,0,1-.2,2.346c-.042.163-.08.325-.12.487a8.387,8.387,0,0,0,.118,5.649c-.015.845.014,1.686.062,2.526.018.288.036.576.058.864a3.737,3.737,0,0,0,1.834-.468c.284.437.347.878-.321,1.335-.01.007-.012.016-.02.024.119,0,.246-.011.373-.008a1.233,1.233,0,0,1,.63.068c.053,0,.106,0,.159,0a5.077,5.077,0,0,0,.76-.033c.115-.05.172,0,.287.008a3.962,3.962,0,0,0,.464.143l.021.007c.085.024.166.061.253.079l.172,0a1.216,1.216,0,0,1,.461-.042c0-.106.061-.157.063-.21.058,0,.057.054.113.056.171.057.4.221.628.121h.057c.1.094.282.076.442.141.025,0,.041-.024.071-.023a.37.37,0,0,0,.231-.047.458.458,0,0,1,.289-.1c.229,0,.408-.2.632-.038.057.055.057,0,.115,0l.013,0,.014,0c.039-.016.07-.025.1-.036a2.332,2.332,0,0,0,.392-.383.214.214,0,0,1,.069-.061,2.935,2.935,0,0,0,.792-.718.623.623,0,0,1,.118-.09c1.058.148,2.117.295,3.171.474a8.664,8.664,0,0,0,4.877-.455c.967-.4,1.93-.808,2.861.448a1.593,1.593,0,0,0,1.556.414,3.473,3.473,0,0,1,2.989.245c.136.095.345.2.449.123,1.265-1,2.591-.084,3.885-.274,1.314-.192,2.645-.158,3.968-.221.235-.011.516-.129.695.014,1.322,1.057,2.576.369,3.837-.237,1.39-.667,2.8-.308,4.2-.131,1.167.147,2.34.508,3.426-.527a.786.786,0,0,1,.68-.192c2,.462,4.042-.026,6.043.644.246.083.5.162.749.229,0-1.016-.009-2.029-.089-3.032-.27-3.4.189-6.749.065-10.121a2.016,2.016,0,0,1-.022-.663c1.21-3,.283-6.126.218-9.18a12.183,12.183,0,0,1,.151-3.977,1.829,1.829,0,0,0,.078-.967,5.094,5.094,0,0,1-.038-3.547c-.335-2.317.147-4.741-.418-7.019a11.331,11.331,0,0,1,.046-5.307c.12-.536.279-1.06.356-1.608a4.057,4.057,0,0,0-.448-3.15,3.973,3.973,0,0,1-.528-2.808q.1-1.448.187-2.894a20.006,20.006,0,0,1-7.453-.1,14.732,14.732,0,0,0-2.8.034c-.312.01-.639.164-.932.072-2.1-.656-4.233-.272-6.311-.061-2.427.245-4.841-.548-7.248.11a1.1,1.1,0,0,1-.7-.016c-2.695-1.118-5.395-.545-8.1-.118a2.841,2.841,0,0,1-1.587-.227,2.771,2.771,0,0,0-3.179.133,2.545,2.545,0,0,1-.288.2.482.482,0,0,1-.372.095c-2.491-.8-5.04.543-7.559-.549-.039-.017-.075-.022-.114-.039a3.637,3.637,0,0,0-2.04-.171.839.839,0,0,0-.153-.043l-.682-.013-.351-.006-.083,0c0-.026,0-.05,0-.075a1.081,1.081,0,0,1-.62-.152A.85.85,0,0,0,473.551,125.672Zm40.219,47.307c0,.006.007.01.007.016h0Z"/><path class="cls-1" d="M468.161,128.166a3.746,3.746,0,0,1,.057-.866c-.6.084-1.2.155-1.808.218-.416-.626-.843-.305-1.271.014-.063.047-.125.07-.188.11-1.042.077-2.088.126-3.141.115-1.215-.342-2.432-.63-3.65-.894a.818.818,0,0,0-.951.274,1.3,1.3,0,0,1-.652.538h-.084c-.131,0-.262,0-.392,0-.916-.007-1.832,0-2.748.009a89.507,89.507,0,0,1-10.347-.212,8.408,8.408,0,0,1-1.641-.264,4.977,4.977,0,0,0-4.117.238c-1.524.816-3.342.516-4.889.164a40.141,40.141,0,0,0-5.987-.741c-.221-.017-.442-.034-.664-.049a14.321,14.321,0,0,1-2.346-.2c-.162-.042-.325-.08-.486-.12a8.384,8.384,0,0,0-5.65.118c-.845-.015-1.686.014-2.526.061-.288.019-.576.037-.864.059a3.739,3.739,0,0,0,.468,1.834c-.437.284-.878.347-1.334-.321-.008-.011-.017-.012-.025-.02,0,.118.011.246.008.373a1.229,1.229,0,0,1-.068.629c0,.054,0,.106,0,.16a5.082,5.082,0,0,0,.033.76c.05.115,0,.172-.008.287a3.946,3.946,0,0,0-.143.463l-.007.022c-.024.084-.061.166-.078.253l-.005.172a1.216,1.216,0,0,1,.042.461c.106,0,.157.061.21.063,0,.058-.054.056-.056.113-.057.171-.221.4-.121.628v.057c-.094.1-.076.282-.141.442,0,.024.024.041.023.07a.372.372,0,0,0,.047.232.458.458,0,0,1,.1.289c0,.228.2.408.038.632-.055.057,0,.057,0,.115l.005.012,0,.014c.016.04.026.071.036.1a2.326,2.326,0,0,0,.383.391.216.216,0,0,1,.061.07,2.935,2.935,0,0,0,.718.792.558.558,0,0,1,.09.118c-.148,1.057-.3,2.116-.474,3.171A8.659,8.659,0,0,0,414.07,144c.395.967.809,1.931-.448,2.861a1.6,1.6,0,0,0-.414,1.557,3.474,3.474,0,0,1-.244,2.988c-.1.137-.206.346-.124.45,1,1.265.084,2.591.274,3.885.192,1.314.158,2.645.221,3.968.011.234.129.515-.014.695-1.057,1.322-.369,2.576.237,3.837.667,1.389.308,2.8.131,4.2-.147,1.167-.508,2.339.527,3.426a.786.786,0,0,1,.192.68c-.462,2,.026,4.042-.644,6.043-.083.246-.162.5-.229.749,1.016,0,2.029-.009,3.032-.089,3.4-.27,6.749.189,10.121.065a1.989,1.989,0,0,1,.663-.022c3,1.21,6.126.282,9.18.218a12.211,12.211,0,0,1,3.977.15,1.823,1.823,0,0,0,.968.079,5.1,5.1,0,0,1,3.546-.039c2.317-.334,4.741.148,7.019-.417a11.331,11.331,0,0,1,5.307.046c.536.12,1.06.279,1.608.356a4.064,4.064,0,0,0,3.151-.448,3.97,3.97,0,0,1,2.807-.528q1.448.1,2.9.187a19.991,19.991,0,0,1,.1-7.454,14.722,14.722,0,0,0-.034-2.8c-.01-.312-.164-.639-.072-.932.657-2.1.272-4.233.062-6.311-.246-2.427.547-4.842-.111-7.248a1.1,1.1,0,0,1,.016-.7c1.118-2.7.546-5.4.118-8.1a2.841,2.841,0,0,1,.227-1.587,2.771,2.771,0,0,0-.133-3.179,2.471,2.471,0,0,1-.2-.289.478.478,0,0,1-.094-.371c.8-2.491-.543-5.041.548-7.559.017-.039.022-.076.039-.114a3.628,3.628,0,0,0,.171-2.04.766.766,0,0,0,.043-.153l.013-.682.007-.351v-.083h.076a1.071,1.071,0,0,1,.151-.62A.85.85,0,0,0,468.161,128.166Zm-47.307,40.219a.047.047,0,0,1-.015.006v0Z"/><path class="cls-1" d="M405.271,180.483a3.742,3.742,0,0,1,.866.057c-.084-.6-.155-1.2-.218-1.808.626-.416.306-.843-.014-1.271-.047-.063-.07-.125-.11-.188-.077-1.042-.126-2.088-.115-3.141.342-1.215.631-2.432.895-3.649a.821.821,0,0,0-.275-.952,1.3,1.3,0,0,1-.537-.652c0-.028,0-.056,0-.084,0-.131,0-.261,0-.392.006-.916,0-1.831-.01-2.747a89.749,89.749,0,0,1,.212-10.348,8.509,8.509,0,0,1,.264-1.641,4.974,4.974,0,0,0-.238-4.117c-.816-1.524-.515-3.342-.164-4.889a40.124,40.124,0,0,0,.741-5.987c.017-.221.034-.442.049-.663a14.223,14.223,0,0,1,.205-2.347c.041-.162.079-.324.119-.486a8.384,8.384,0,0,0-.118-5.65c.016-.845-.014-1.686-.061-2.526-.019-.288-.037-.575-.059-.863a3.718,3.718,0,0,0-1.834.468c-.284-.438-.347-.878.321-1.335.011-.008.012-.017.02-.025-.118,0-.246.011-.373.008a1.23,1.23,0,0,1-.629-.068c-.054,0-.106,0-.16,0a5.219,5.219,0,0,0-.76.033c-.115.05-.172-.005-.287-.007a3.769,3.769,0,0,0-.463-.144l-.022-.007c-.084-.024-.166-.06-.253-.078l-.172,0a1.21,1.21,0,0,1-.46.041c0,.106-.062.157-.063.21-.059,0-.057-.054-.114-.055-.17-.057-.394-.221-.628-.121l-.057,0c-.1-.094-.282-.076-.442-.141-.024.006-.041.024-.07.023a.372.372,0,0,0-.232.047.452.452,0,0,1-.289.1c-.228,0-.408.2-.632.038-.057-.054-.057,0-.115,0l-.012,0-.014,0c-.04.016-.071.026-.1.036a2.326,2.326,0,0,0-.391.383.24.24,0,0,1-.069.062,2.9,2.9,0,0,0-.792.717.591.591,0,0,1-.119.09c-1.057-.148-2.116-.3-3.171-.474a8.669,8.669,0,0,0-4.876.455c-.967.4-1.931.809-2.861-.447a1.6,1.6,0,0,0-1.557-.415,3.471,3.471,0,0,1-2.988-.244c-.137-.095-.345-.206-.45-.123-1.265,1-2.591.083-3.885.273-1.314.192-2.644.159-3.967.221-.235.011-.516.129-.7-.014-1.321-1.057-2.575-.368-3.837.237-1.389.667-2.8.308-4.2.131-1.167-.147-2.339-.507-3.426.528a.792.792,0,0,1-.68.192c-2-.462-4.041.025-6.043-.645-.245-.083-.5-.162-.749-.229,0,1.016.009,2.029.089,3.032.27,3.4-.189,6.749-.064,10.121a2.019,2.019,0,0,1,.021.664c-1.209,3-.282,6.125-.218,9.179a12.211,12.211,0,0,1-.15,3.977,1.823,1.823,0,0,0-.079.968,5.1,5.1,0,0,1,.039,3.547c.334,2.316-.148,4.74.417,7.018a11.336,11.336,0,0,1-.046,5.308c-.119.536-.279,1.059-.356,1.607a4.068,4.068,0,0,0,.448,3.151,3.966,3.966,0,0,1,.528,2.808q-.1,1.446-.187,2.894a19.99,19.99,0,0,1,7.454.1,14.721,14.721,0,0,0,2.8-.034c.312-.009.639-.164.932-.072,2.1.657,4.233.273,6.312.062,2.426-.245,4.841.547,7.248-.111a1.1,1.1,0,0,1,.7.016c2.7,1.118,5.4.546,8.1.118a2.85,2.85,0,0,1,1.587.227,2.772,2.772,0,0,0,3.179-.132,2.442,2.442,0,0,1,.289-.2.483.483,0,0,1,.371-.094c2.491.8,5.041-.543,7.56.548.038.017.075.022.113.04a3.646,3.646,0,0,0,2.04.171.822.822,0,0,0,.154.042l.681.013.352.007.082,0c0,.025,0,.05,0,.075a1.071,1.071,0,0,1,.62.152A.851.851,0,0,0,405.271,180.483Zm-40.219-47.307s-.006-.01-.006-.015h0Z"/><path class="cls-1" d="M409.109,187.367a3.742,3.742,0,0,1,.057-.866c-.6.084-1.2.155-1.808.218-.417-.626-.844-.306-1.271.014-.063.047-.126.07-.188.11-1.043.077-2.089.126-3.141.115-1.215-.342-2.432-.631-3.65-.9a.82.82,0,0,0-.951.275,1.3,1.3,0,0,1-.652.537l-.085,0c-.13,0-.261,0-.391,0-.916-.006-1.832,0-2.748.01a89.754,89.754,0,0,1-10.348-.212,8.563,8.563,0,0,1-1.64-.264,4.973,4.973,0,0,0-4.117.238c-1.524.816-3.342.515-4.89.164a40.111,40.111,0,0,0-5.986-.741l-.664-.05a14.1,14.1,0,0,1-2.346-.2c-.163-.041-.325-.079-.487-.119a8.381,8.381,0,0,0-5.649.118c-.845-.016-1.686.014-2.526.061-.288.019-.576.037-.864.059a3.739,3.739,0,0,0,.468,1.834c-.437.284-.878.347-1.335-.321-.007-.011-.016-.012-.024-.02,0,.118.011.246.008.373a1.23,1.23,0,0,1-.068.629c0,.054,0,.106,0,.16a5.082,5.082,0,0,0,.033.76c.05.115,0,.172-.008.287a3.946,3.946,0,0,0-.143.463l-.007.022c-.024.084-.061.166-.079.253l0,.172a1.21,1.21,0,0,1,.042.46c.106,0,.157.062.21.063,0,.059-.054.057-.056.114-.057.17-.221.394-.121.628v.057c-.094.1-.076.282-.141.442,0,.024.024.041.023.07a.372.372,0,0,0,.047.232.458.458,0,0,1,.1.289c0,.228.2.408.038.632-.055.057,0,.057,0,.115l0,.012,0,.014c.016.04.025.071.036.1a2.326,2.326,0,0,0,.383.391.237.237,0,0,1,.061.069,2.905,2.905,0,0,0,.718.792.63.63,0,0,1,.09.119c-.148,1.057-.295,2.116-.474,3.171a8.66,8.66,0,0,0,.455,4.876c.4.967.808,1.931-.448,2.861a1.6,1.6,0,0,0-.414,1.557,3.471,3.471,0,0,1-.245,2.988c-.1.137-.2.345-.123.45,1,1.265.084,2.591.274,3.885.192,1.314.158,2.644.221,3.967.011.235.129.516-.014.7-1.057,1.321-.369,2.575.237,3.837.667,1.389.308,2.795.131,4.195-.147,1.167-.508,2.339.527,3.426a.785.785,0,0,1,.192.68c-.462,2,.026,4.041-.644,6.043-.083.245-.162.5-.229.749,1.016,0,2.029-.009,3.032-.089,3.4-.27,6.749.189,10.121.064a2.013,2.013,0,0,1,.663-.021c3,1.209,6.126.282,9.18.218a12.211,12.211,0,0,1,3.977.15,1.82,1.82,0,0,0,.967.079,5.1,5.1,0,0,1,3.547-.039c2.317-.334,4.741.147,7.019-.417a11.331,11.331,0,0,1,5.307.046c.536.119,1.06.279,1.608.356a4.065,4.065,0,0,0,3.15-.448,3.968,3.968,0,0,1,2.808-.528q1.447.1,2.894.187a20.012,20.012,0,0,1,.1-7.454,14.721,14.721,0,0,0-.034-2.8c-.01-.312-.164-.639-.072-.932.656-2.1.272-4.233.061-6.312-.245-2.426.548-4.841-.11-7.248a1.093,1.093,0,0,1,.016-.7c1.118-2.7.545-5.4.118-8.1a2.849,2.849,0,0,1,.226-1.587,2.769,2.769,0,0,0-.132-3.179,2.558,2.558,0,0,1-.2-.289.48.48,0,0,1-.095-.371c.8-2.491-.543-5.041.549-7.56.017-.038.022-.075.039-.113a3.637,3.637,0,0,0,.171-2.04.827.827,0,0,0,.043-.154l.013-.681.006-.352,0-.082h.075a1.079,1.079,0,0,1,.152-.62A.85.85,0,0,0,409.109,187.367ZM361.8,227.586c-.006,0-.01.006-.016.006v0Z"/><path class="cls-1" d="M464.753,239.954a3.746,3.746,0,0,1,.866.057c-.085-.6-.155-1.2-.218-1.808.626-.417.305-.844-.014-1.271-.048-.063-.071-.126-.111-.188-.076-1.043-.125-2.089-.115-3.141.343-1.215.631-2.432.895-3.65a.817.817,0,0,0-.275-.951,1.305,1.305,0,0,1-.537-.652c0-.028,0-.057,0-.085,0-.13,0-.261,0-.391q.009-1.374-.009-2.748a89.306,89.306,0,0,1,.212-10.348,8.41,8.41,0,0,1,.264-1.64,4.981,4.981,0,0,0-.238-4.117c-.817-1.524-.516-3.342-.164-4.89a40.243,40.243,0,0,0,.741-5.986c.017-.221.034-.442.049-.664a14.321,14.321,0,0,1,.2-2.346c.042-.163.08-.325.12-.487A8.387,8.387,0,0,0,466.3,189c.015-.845-.014-1.686-.062-2.526-.018-.288-.036-.576-.058-.864a3.737,3.737,0,0,0-1.834.468c-.284-.437-.347-.878.321-1.335.01-.007.012-.016.02-.024-.119,0-.246.011-.373.008a1.233,1.233,0,0,1-.63-.068c-.053,0-.106,0-.159,0a5.077,5.077,0,0,0-.76.033c-.115.05-.172,0-.287-.008a3.962,3.962,0,0,0-.464-.143l-.021-.007c-.085-.024-.166-.061-.253-.079l-.172,0a1.216,1.216,0,0,1-.461.042c0,.106-.061.157-.063.21-.058,0-.057-.055-.113-.056-.171-.057-.395-.221-.628-.121h-.057c-.1-.094-.282-.076-.442-.141-.025,0-.041.024-.071.023a.37.37,0,0,0-.231.047.458.458,0,0,1-.289.1c-.229-.005-.408.2-.632.038-.057-.055-.057,0-.115,0l-.013,0-.014,0c-.039.016-.07.025-.1.036a2.332,2.332,0,0,0-.392.383.214.214,0,0,1-.069.061,2.9,2.9,0,0,0-.792.718.623.623,0,0,1-.118.09c-1.058-.148-2.117-.3-3.171-.474a8.664,8.664,0,0,0-4.877.455c-.967.4-1.93.808-2.861-.448a1.593,1.593,0,0,0-1.556-.414,3.473,3.473,0,0,1-2.989-.245c-.136-.095-.345-.205-.449-.123-1.265,1-2.591.084-3.885.274-1.314.192-2.645.158-3.968.221-.235.011-.516.129-.695-.014-1.322-1.057-2.576-.369-3.838.237-1.389.667-2.8.308-4.194.131-1.167-.147-2.34-.508-3.426.527a.786.786,0,0,1-.68.192c-2-.462-4.042.026-6.043-.644-.246-.083-.5-.162-.749-.229,0,1.016.009,2.029.089,3.032.27,3.4-.189,6.749-.065,10.121a2.016,2.016,0,0,1,.022.663c-1.21,3-.283,6.126-.218,9.18a12.183,12.183,0,0,1-.151,3.977,1.829,1.829,0,0,0-.078.967,5.094,5.094,0,0,1,.038,3.547c.335,2.317-.147,4.741.418,7.019a11.331,11.331,0,0,1-.046,5.307c-.12.536-.279,1.06-.356,1.608a4.057,4.057,0,0,0,.448,3.15,3.973,3.973,0,0,1,.528,2.808q-.1,1.447-.187,2.894a20.006,20.006,0,0,1,7.453.1,14.732,14.732,0,0,0,2.8-.034c.312-.01.638-.164.932-.072,2.1.656,4.233.272,6.311.061,2.427-.245,4.841.548,7.248-.11a1.1,1.1,0,0,1,.7.016c2.695,1.118,5.395.545,8.1.118a2.849,2.849,0,0,1,1.587.226,2.769,2.769,0,0,0,3.179-.132,2.545,2.545,0,0,1,.288-.2.482.482,0,0,1,.372-.095c2.491.8,5.04-.543,7.559.549.039.016.075.022.114.039a3.637,3.637,0,0,0,2.04.171.818.818,0,0,0,.153.043l.682.013.351.006.083,0c0,.026,0,.05,0,.075a1.082,1.082,0,0,1,.621.152A.85.85,0,0,0,464.753,239.954Zm-40.219-47.307c0-.006-.007-.01-.007-.016h0A.04.04,0,0,0,424.534,192.647Z"/><path class="cls-1" d="M470.143,237.46a3.746,3.746,0,0,1-.057.866c.6-.084,1.2-.155,1.808-.218.416.626.843.305,1.271-.014.063-.047.125-.07.188-.11,1.042-.077,2.088-.126,3.141-.115,1.215.342,2.432.63,3.649.894a.819.819,0,0,0,.952-.274,1.3,1.3,0,0,1,.652-.538h.084c.131,0,.261,0,.392,0q1.374.009,2.748-.009a89.507,89.507,0,0,1,10.347.212,8.408,8.408,0,0,1,1.641.264,4.977,4.977,0,0,0,4.117-.238c1.524-.817,3.342-.516,4.889-.164a40.272,40.272,0,0,0,5.987.741c.221.017.442.034.664.049a14.331,14.331,0,0,1,2.346.2c.162.042.325.08.486.12a8.384,8.384,0,0,0,5.65-.118c.845.015,1.686-.014,2.526-.061.288-.019.576-.037.863-.059a3.727,3.727,0,0,0-.467-1.834c.437-.284.878-.347,1.334.321.008.011.017.012.025.02,0-.118-.011-.246-.008-.373a1.234,1.234,0,0,1,.068-.63c0-.053,0-.1,0-.159a5.082,5.082,0,0,0-.033-.76c-.05-.115,0-.172.008-.287a3.9,3.9,0,0,0,.143-.464l.007-.021c.024-.084.061-.166.078-.253l0-.172a1.236,1.236,0,0,1-.041-.461c-.106,0-.157-.061-.21-.063,0-.058.054-.056.056-.113.057-.171.221-.395.121-.628v-.057c.094-.1.076-.282.141-.442,0-.024-.024-.041-.023-.07a.372.372,0,0,0-.047-.232.458.458,0,0,1-.1-.289c0-.228-.2-.408-.038-.632.055-.057,0-.057,0-.115l0-.013,0-.013c-.016-.04-.026-.071-.036-.1a2.332,2.332,0,0,0-.383-.392.2.2,0,0,1-.061-.069,2.935,2.935,0,0,0-.718-.792.558.558,0,0,1-.09-.118c.148-1.057.295-2.116.474-3.171a8.668,8.668,0,0,0-.455-4.876c-.395-.967-.809-1.931.448-2.861a1.6,1.6,0,0,0,.414-1.557,3.474,3.474,0,0,1,.244-2.988c.1-.137.206-.346.124-.45-1-1.265-.084-2.591-.274-3.885-.192-1.314-.158-2.645-.221-3.968-.011-.235-.129-.515.014-.695,1.057-1.322.369-2.576-.237-3.837-.667-1.389-.308-2.795-.131-4.195.147-1.167.508-2.339-.527-3.426a.786.786,0,0,1-.192-.68c.462-2-.026-4.042.644-6.043.083-.246.162-.5.229-.749-1.016,0-2.029.009-3.032.089-3.4.27-6.749-.189-10.121-.065a1.989,1.989,0,0,1-.663.022c-3-1.21-6.126-.282-9.18-.218a12.211,12.211,0,0,1-3.977-.15,1.823,1.823,0,0,0-.968-.079,5.1,5.1,0,0,1-3.546.039c-2.317.334-4.741-.148-7.019.417a11.331,11.331,0,0,1-5.307-.046c-.536-.12-1.06-.279-1.608-.356a4.064,4.064,0,0,0-3.151.448,3.97,3.97,0,0,1-2.807.528q-1.447-.1-2.895-.187a19.985,19.985,0,0,1-.1,7.453,14.732,14.732,0,0,0,.034,2.8c.01.312.164.639.072.932-.657,2.1-.272,4.233-.062,6.311.246,2.427-.547,4.842.111,7.248a1.1,1.1,0,0,1-.016.7c-1.118,2.7-.546,5.4-.118,8.1a2.85,2.85,0,0,1-.227,1.587,2.771,2.771,0,0,0,.133,3.179,2.545,2.545,0,0,1,.2.288.481.481,0,0,1,.094.372c-.8,2.491.543,5.041-.548,7.559-.017.039-.022.076-.039.114a3.628,3.628,0,0,0-.171,2.04.766.766,0,0,0-.043.153l-.013.682-.007.351v.083h-.076a1.071,1.071,0,0,1-.151.62A.85.85,0,0,0,470.143,237.46Zm47.307-40.219a.047.047,0,0,1,.015-.006v0Z"/><path class="cls-1" d="M533.033,185.143a3.742,3.742,0,0,1-.866-.057c.084.6.155,1.2.218,1.808-.626.416-.306.843.014,1.271.047.063.07.125.11.188.077,1.042.126,2.088.115,3.141-.342,1.215-.631,2.432-.895,3.649a.821.821,0,0,0,.275.952,1.3,1.3,0,0,1,.537.652c0,.028,0,.056,0,.084,0,.131,0,.261,0,.392-.006.916,0,1.831.01,2.747a89.749,89.749,0,0,1-.212,10.348,8.586,8.586,0,0,1-.264,1.641,4.974,4.974,0,0,0,.238,4.117c.816,1.524.515,3.342.164,4.889a40.124,40.124,0,0,0-.741,5.987q-.026.332-.05.663a14.117,14.117,0,0,1-.2,2.347c-.041.162-.079.324-.119.486a8.384,8.384,0,0,0,.118,5.65c-.016.845.014,1.685.061,2.526.019.288.037.575.059.863a3.718,3.718,0,0,0,1.834-.468c.284.438.347.878-.321,1.335-.011.008-.012.017-.02.025.118,0,.246-.011.373-.008a1.23,1.23,0,0,1,.629.068c.054,0,.106,0,.16,0a5.219,5.219,0,0,0,.76-.033c.115-.05.172.005.287.007a3.769,3.769,0,0,0,.463.144l.022.007c.084.023.166.06.253.078l.172,0a1.21,1.21,0,0,1,.46-.041c0-.106.062-.157.063-.21.059,0,.057.054.114.055.17.057.394.221.628.121l.057,0c.1.094.282.076.442.141.024-.006.041-.024.07-.023a.366.366,0,0,0,.232-.048.457.457,0,0,1,.289-.1c.228,0,.408-.2.632-.038.057.054.057,0,.115,0l.012,0,.014,0c.04-.016.071-.026.1-.036a2.365,2.365,0,0,0,.391-.383.24.24,0,0,1,.069-.062,2.9,2.9,0,0,0,.792-.717.635.635,0,0,1,.119-.091c1.057.149,2.116.3,3.171.475a8.669,8.669,0,0,0,4.876-.455c.967-.4,1.931-.809,2.861.447a1.6,1.6,0,0,0,1.557.415,3.471,3.471,0,0,1,2.988.244c.137.095.345.206.45.123,1.265-1,2.591-.083,3.885-.273,1.314-.192,2.644-.159,3.967-.221.235-.011.516-.129.7.014,1.321,1.057,2.575.368,3.837-.237,1.389-.667,2.8-.308,4.2-.131,1.167.147,2.339.507,3.426-.528a.792.792,0,0,1,.68-.192c2,.462,4.041-.025,6.043.645.245.083.5.162.749.229,0-1.016-.009-2.029-.089-3.033-.27-3.4.189-6.748.064-10.12a2.019,2.019,0,0,1-.021-.664c1.209-3,.282-6.125.218-9.18a12.213,12.213,0,0,1,.15-3.977,1.819,1.819,0,0,0,.079-.967,5.1,5.1,0,0,1-.039-3.547c-.334-2.316.147-4.74-.417-7.018a11.336,11.336,0,0,1,.046-5.308c.119-.536.279-1.059.356-1.607a4.068,4.068,0,0,0-.448-3.151,3.966,3.966,0,0,1-.528-2.808q.1-1.446.187-2.894a19.97,19.97,0,0,1-7.454-.1,14.8,14.8,0,0,0-2.8.035c-.312.009-.639.164-.932.072-2.1-.657-4.233-.273-6.312-.062-2.426.245-4.841-.547-7.248.111a1.1,1.1,0,0,1-.7-.016c-2.7-1.118-5.4-.546-8.1-.118a2.85,2.85,0,0,1-1.587-.227,2.77,2.77,0,0,0-3.179.132,2.442,2.442,0,0,1-.289.2.483.483,0,0,1-.371.094c-2.491-.8-5.041.543-7.56-.548-.038-.017-.075-.022-.113-.04a3.646,3.646,0,0,0-2.04-.171.822.822,0,0,0-.154-.042l-.681-.013-.352-.007-.082,0c0-.025,0-.05,0-.075a1.071,1.071,0,0,1-.62-.152A.851.851,0,0,0,533.033,185.143Zm40.219,47.307c0,.005.006.01.006.015h0Z"/><path class="cls-1" d="M324.893,35.9c0,2.338-1.661,4.225-5.824,4.225a11.005,11.005,0,0,1-4.717-.923l.534-1.6a10.189,10.189,0,0,0,4.347.862c2.789,0,3.774-.882,3.774-2.461,0-1.333-.9-2.276-3.569-2.276h-3.794V32.062h4.922c1.477-.594,1.99-1.374,1.99-2.461,0-1.579-1.067-2.173-3.22-2.173a9.482,9.482,0,0,0-4.245.963l-.492-1.538a10.808,10.808,0,0,1,4.88-1.087c3.036,0,4.963,1.169,4.963,3.733a3.494,3.494,0,0,1-2.03,3.138C324.135,33.272,324.893,34.216,324.893,35.9Z"/><path class="cls-1" d="M325.222,95.655v1.682h-10.09V95.45c3.589-2.194,7.772-4.43,7.772-8,0-1.579-.7-2.584-3.035-2.584-2.543,0-3.22,1.128-3.22,3.056a3.514,3.514,0,0,0,.164,1.251l-1.948-.144a9.547,9.547,0,0,1-.082-1.312c0-2.728,1.784-4.533,5.189-4.533,4,0,4.86,2.215,4.86,4.061,0,3.937-3.691,6.152-5.947,7.67l-1.108.492v.246Z"/><path class="cls-1" d="M325.3,153.074v1.682h-9.762v-1.682h4.348v-8.818l-4.348,1.661v-1.825l4.348-1.661V140.81h1.886v12.264Z"/><path class="cls-1" d="M325.078,205.08c0,5.168-1.948,7.3-5.229,7.3-3.446,0-5.107-2.4-5.107-7.055,0-4.86,1.948-7.3,5.23-7.3C323.417,198.025,325.078,200.425,325.078,205.08Zm-8.408.144c0,.615.02,1.189.061,1.7l6.009-5.209a2.666,2.666,0,0,0-2.809-2.01C317.429,199.707,316.67,201.635,316.67,205.224Zm6.48-.041c0-.616-.02-1.19-.061-1.7l-6.009,5.209a2.667,2.667,0,0,0,2.81,2.01C322.392,210.7,323.15,209.182,323.15,205.183Z"/><path class="cls-1" d="M384.549,276.855c0,5.168-1.949,7.3-5.23,7.3-3.445,0-5.106-2.4-5.106-7.055,0-4.86,1.948-7.3,5.229-7.3C382.888,269.8,384.549,272.2,384.549,276.855Zm-8.408.144c0,.615.02,1.189.061,1.7l6.009-5.209a2.667,2.667,0,0,0-2.81-2.01C376.9,271.482,376.141,273.41,376.141,277Zm6.48-.041c0-.615-.021-1.19-.062-1.7l-6.008,5.209a2.665,2.665,0,0,0,2.809,2.009C381.862,282.474,382.621,280.957,382.621,276.958Z"/><path class="cls-1" d="M444.245,282.269v1.682h-9.762v-1.682h4.348v-8.818l-4.348,1.661v-1.825l4.348-1.661v-1.62h1.887v12.263Z"/><path class="cls-1" d="M503.635,282.269v1.682h-10.09v-1.887c3.589-2.194,7.772-4.429,7.772-8,0-1.579-.7-2.584-3.035-2.584-2.543,0-3.22,1.128-3.22,3.056a3.51,3.51,0,0,0,.164,1.251l-1.948-.144a9.535,9.535,0,0,1-.082-1.312c0-2.728,1.784-4.532,5.189-4.532,4,0,4.86,2.215,4.86,4.06,0,3.938-3.691,6.153-5.947,7.67l-1.108.492v.246Z"/><path class="cls-1" d="M556.624,279.932c0,2.337-1.661,4.224-5.824,4.224a11,11,0,0,1-4.717-.923l.533-1.6a10.21,10.21,0,0,0,4.348.861c2.789,0,3.773-.882,3.773-2.461,0-1.333-.9-2.276-3.568-2.276h-3.794V276.1H552.3c1.476-.595,1.989-1.374,1.989-2.461,0-1.579-1.066-2.174-3.22-2.174a9.472,9.472,0,0,0-4.245.964l-.492-1.538a10.8,10.8,0,0,1,4.881-1.087c3.035,0,4.963,1.169,4.963,3.732a3.492,3.492,0,0,1-2.031,3.138C555.865,277.307,556.624,278.25,556.624,279.932Z"/></g></svg>