<svg id="Livello_1" data-name="Livello 1" xmlns="http://www.w3.org/2000/svg" viewBox="0 0 952 486.253"><defs><style>.cls-1{fill:#1858a8;}.cls-2{fill:#f36;}</style></defs><title>10</title><path class="cls-1" d="M246.749,66.183V82.331h4.556V84.18h-6.631V64.334h6.631v1.849Z"/><path class="cls-1" d="M266.71,78.271c0,2.639-2.053,4.037-5.255,4.037-3.112,0-5.164-1.172-5.164-3.744,0-1.939,1.51-3.045,3.315-3.968-2.03-.88-3.9-2.008-3.9-4.218,0-2.594,2.21-4.172,5.886-4.172,3.879,0,5.706,1.4,5.706,3.811,0,2.233-1.895,3.428-3.947,4.42C265.153,75.271,266.71,76.332,266.71,78.271Zm-5.143-4.6c1.94-.9,3.654-1.827,3.654-3.564,0-1.262-.969-2.075-3.789-2.075-2.413,0-3.653.813-3.653,2.256C257.779,71.979,259.583,72.836,261.567,73.671Zm3.068,4.69c0-1.443-1.488-2.232-3.248-3-1.669.812-3.022,1.669-3.022,3.112,0,1.127.632,2.052,3.2,2.052C264,80.526,264.635,79.6,264.635,78.361Z"/><path class="cls-1" d="M278.574,81.225c0,1.985-1.218,4.308-4.6,4.308V83.842c1.511,0,2.436-.586,2.729-2.007a1.365,1.365,0,0,1-.812.293,2.031,2.031,0,0,1,.09-4.06C277.175,78.068,278.574,79.06,278.574,81.225Z"/><path class="cls-1" d="M311.188,77.55c0,2.5-1.488,4.6-5.345,4.6-3.631,0-5.8-1.939-5.8-7.194,0-4.714,1.782-8.615,7.082-8.615a12.639,12.639,0,0,1,3.834.564l-.564,1.8a10.509,10.509,0,0,0-3.451-.541c-3.315,0-4.4,1.984-4.713,4.465l3.563.428C309.316,73.468,311.188,74.753,311.188,77.55Zm-2.075.18c0-1.759-1.014-2.526-3.811-2.864l-3.18-.384v.362c0,4.194,1.218,5.479,3.9,5.479C308.256,80.323,309.113,79.331,309.113,77.73Z"/><path class="cls-1" d="M322.556,81.225c0,1.985-1.218,4.308-4.6,4.308V83.842c1.51,0,2.435-.586,2.728-2.007a1.364,1.364,0,0,1-.811.293,2.031,2.031,0,0,1,.089-4.06C321.158,78.068,322.556,79.06,322.556,81.225Z"/><path class="cls-1" d="M355.012,77.143c0,2.706-1.826,5.007-6.179,5.007a10.871,10.871,0,0,1-4.962-1.014l.587-1.76a9.365,9.365,0,0,0,4.555.947c2.842,0,3.925-1.195,3.925-3.044,0-1.76-1.309-2.526-4.038-3.022l-3.991-.722.09-6.946h9.517v1.849h-7.487l-.068,3.586,2.661.474C353.253,73.106,355.012,74.3,355.012,77.143Z"/><path class="cls-1" d="M366.538,81.225c0,1.985-1.218,4.308-4.6,4.308V83.842c1.51,0,2.435-.586,2.728-2.007a1.367,1.367,0,0,1-.811.293,2.031,2.031,0,0,1,.089-4.06C365.14,78.068,366.538,79.06,366.538,81.225Z"/><path class="cls-1" d="M399,77.143c0,2.706-1.827,5.007-6.179,5.007a10.865,10.865,0,0,1-4.962-1.014l.586-1.76a9.37,9.37,0,0,0,4.556.947c2.841,0,3.924-1.195,3.924-3.044,0-1.76-1.308-2.526-4.037-3.022l-3.992-.722.091-6.946H398.5v1.849h-7.488l-.068,3.586,2.662.474C397.235,73.106,399,74.3,399,77.143Z"/><path class="cls-1" d="M410.521,81.225c0,1.985-1.218,4.308-4.6,4.308V83.842c1.511,0,2.436-.586,2.729-2.007a1.37,1.37,0,0,1-.812.293,2.031,2.031,0,0,1,.09-4.06C409.122,78.068,410.521,79.06,410.521,81.225Z"/><path class="cls-1" d="M443.112,74.122c0,5.683-2.143,8.028-5.751,8.028-3.789,0-5.615-2.638-5.615-7.758,0-5.345,2.142-8.029,5.75-8.029C441.285,66.363,443.112,69,443.112,74.122Zm-9.247.157c0,.677.023,1.309.068,1.872l6.608-5.728a2.932,2.932,0,0,0-3.09-2.21C434.7,68.213,433.865,70.333,433.865,74.279Zm7.127-.045c0-.676-.023-1.307-.068-1.872l-6.608,5.729a2.934,2.934,0,0,0,3.09,2.21C440.158,80.3,440.992,78.632,440.992,74.234Z"/><path class="cls-1" d="M454.5,81.225c0,1.985-1.218,4.308-4.6,4.308V83.842c1.511,0,2.435-.586,2.728-2.007a1.364,1.364,0,0,1-.811.293,2.031,2.031,0,0,1,.09-4.06C453.1,78.068,454.5,79.06,454.5,81.225Z"/><path class="cls-1" d="M479.381,80.1a2.03,2.03,0,1,1,2.03,2.03A2.022,2.022,0,0,1,479.381,80.1Z"/><path class="cls-1" d="M494.042,80.1a2.03,2.03,0,1,1,2.03,2.03A2.022,2.022,0,0,1,494.042,80.1Z"/><path class="cls-1" d="M508.7,80.1a2.03,2.03,0,1,1,2.03,2.03A2.022,2.022,0,0,1,508.7,80.1Z"/><path class="cls-1" d="M527.806,81.225c0,1.985-1.218,4.308-4.6,4.308V83.842c1.51,0,2.435-.586,2.728-2.007a1.364,1.364,0,0,1-.811.293,2.031,2.031,0,0,1,.089-4.06C526.408,78.068,527.806,79.06,527.806,81.225Z"/><path class="cls-1" d="M560.894,78.767h-2.21v3.158h-2.075V78.767H548.9V76.692l5.57-10.1h2.143l-4.736,8.593-1.06,1.443v.293h5.8V66.589h2.075V76.918h2.21Z"/><path class="cls-1" d="M571.788,81.225c0,1.985-1.218,4.308-4.6,4.308V83.842c1.51,0,2.435-.586,2.728-2.007a1.367,1.367,0,0,1-.811.293,2.031,2.031,0,0,1,.089-4.06C570.39,78.068,571.788,79.06,571.788,81.225Z"/><path class="cls-1" d="M604.2,68.664l-5.075,11.411h3.5v1.85h-9.066v-1.85h3.293l4.51-9.9.97-1.421v-.316h-9V66.589H604.2Z"/><path class="cls-1" d="M615.523,84.18h-6.631V82.331h4.556V66.183h-4.556V64.334h6.631Z"/><path class="cls-2" d="M258.039,28.5v9.223h-1.805V29.245c0-1.827-.18-2.571-1.376-2.571a3.046,3.046,0,0,0-1.961.925c.022.27.044.563.044.9v9.223h-1.8V29.245c0-1.827-.18-2.571-1.375-2.571a2.973,2.973,0,0,0-1.917.88v10.17h-1.8V25.32h1.488l.023,1.083a3.552,3.552,0,0,1,2.661-1.331,2.328,2.328,0,0,1,2.323,1.241,4.046,4.046,0,0,1,2.774-1.241C257.136,25.072,258.039,26.088,258.039,28.5Z"/><path class="cls-2" d="M267.715,39.979h3.563v1.8h-9.156v-1.8h3.564v-2.5l-4.8-12.156h2.187l2.594,6.743.88,2.8h.45l.9-2.8,2.548-6.743h2.075l-4.8,12.156Z"/><path class="cls-2" d="M281.654,32.018h-3.315v5.706h-2.075V22.389h4.871c3.857,0,5.729,1.669,5.729,4.488,0,1.962-1.06,3.428-3,4.668l3.722,6.179h-2.572Zm-3.315-1.826h4.4a3.485,3.485,0,0,0,2.008-3.157c0-1.939-1.06-2.819-3.834-2.819h-2.571Z"/><path class="cls-2" d="M300.757,29.583l-.112,8.141h-1.692V36.236a5.852,5.852,0,0,1-4.352,1.737c-2.481-.023-3.879-1.331-3.879-3.406,0-2.39,2.458-3.45,7.961-3.879l.022-.88c.023-1.578-.158-2.909-2.616-2.909a9.753,9.753,0,0,0-4.33,1.06l-.541-1.692a10.9,10.9,0,0,1,5.029-1.2C300.329,25.072,300.78,27.147,300.757,29.583Zm-2.142,5.277.045-2.525c-4.15.338-5.908.924-5.908,2.187,0,1.037.721,1.647,2.119,1.669A5.545,5.545,0,0,0,298.615,34.86Z"/><path class="cls-2" d="M315.69,29.177v8.547h-2.03V29.471c0-1.828-.745-2.572-2.256-2.572a6.217,6.217,0,0,0-3.608,1.173v9.652h-2.03V25.32h1.714V26.7a6.14,6.14,0,0,1,4.172-1.624C314.517,25.072,315.69,26.539,315.69,29.177Z"/><path class="cls-2" d="M330.305,19.231V37.724h-1.759V36.393a5.977,5.977,0,0,1-4.127,1.58c-3.067-.023-4.714-2.165-4.714-5.977,0-4.961,2.458-6.9,6.157-6.9a15.153,15.153,0,0,1,2.413.179V19.231Zm-2.03,15.743V27.237a9.472,9.472,0,0,0-2.571-.315c-2.729,0-3.947,1.624-3.947,4.848,0,2.82.993,4.353,2.91,4.375A6.053,6.053,0,0,0,328.275,34.974Z"/><path class="cls-2" d="M334.366,31.658c0-4.127,2.368-6.586,5.705-6.586,3.519,0,5.571,2.413,5.571,6.428s-2.368,6.473-5.706,6.473C336.418,37.973,334.366,35.559,334.366,31.658Zm9.224-.045c0-2.955-1.1-4.714-3.564-4.714-2.48,0-3.608,1.8-3.608,4.646s1.105,4.6,3.564,4.6C342.462,36.145,343.59,34.342,343.59,31.613Z"/><path class="cls-2" d="M360.664,28.5v9.223h-1.805V29.245c0-1.827-.18-2.571-1.376-2.571a3.046,3.046,0,0,0-1.961.925c.022.27.044.563.044.9v9.223h-1.8V29.245c0-1.827-.18-2.571-1.375-2.571a2.973,2.973,0,0,0-1.917.88v10.17h-1.8V25.32h1.488l.023,1.083a3.552,3.552,0,0,1,2.661-1.331,2.328,2.328,0,0,1,2.323,1.241,4.046,4.046,0,0,1,2.774-1.241C359.761,25.072,360.664,26.088,360.664,28.5Z"/><path class="cls-2" d="M374.512,22.389V37.724h-3.2l-5.142-13.012h-.226l.113,13.012h-1.917V22.389h3.2L372.505,35.4h.2L372.6,22.389Z"/><path class="cls-2" d="M388.9,25.32v12.4h-1.713V36.349a6.143,6.143,0,0,1-4.173,1.624c-2.864,0-4.037-1.466-4.037-4.1V25.32h2.03v8.255c0,1.826.744,2.57,2.255,2.57a6.224,6.224,0,0,0,3.609-1.171V25.32Z"/><path class="cls-2" d="M404.646,28.5v9.223h-1.8V29.245c0-1.827-.181-2.571-1.376-2.571a3.048,3.048,0,0,0-1.962.925c.022.27.045.563.045.9v9.223h-1.8V29.245c0-1.827-.18-2.571-1.376-2.571a2.975,2.975,0,0,0-1.917.88v10.17h-1.8V25.32h1.488l.023,1.083a3.553,3.553,0,0,1,2.661-1.331,2.327,2.327,0,0,1,2.323,1.241,4.046,4.046,0,0,1,2.774-1.241C403.744,25.072,404.646,26.088,404.646,28.5Z"/><path class="cls-2" d="M418.946,31.049c0,4.962-2.459,6.9-6.157,6.9a13.905,13.905,0,0,1-4.443-.654V19.231h2.03v5.413l-.181,1.917a6.084,6.084,0,0,1,4.038-1.489C417.3,25.1,418.946,27.237,418.946,31.049Zm-2.052.225c0-2.819-.993-4.352-2.91-4.375a6.063,6.063,0,0,0-3.608,1.173v7.736a9.472,9.472,0,0,0,2.571.315C415.676,36.123,416.894,34.5,416.894,31.274Z"/><path class="cls-2" d="M424.653,31.545c0,3.157,1.33,4.578,3.947,4.578a8.123,8.123,0,0,0,4.1-1.06l.542,1.692a9.2,9.2,0,0,1-4.691,1.2c-3.677,0-5.954-2.075-5.954-6.292s2.593-6.562,5.841-6.562c3.7,0,5.345,2.3,4.849,6.314h-8.638Zm.158-1.759h6.54c-.045-2.075-1.014-2.932-3.044-2.932A3.307,3.307,0,0,0,424.811,29.786Z"/><path class="cls-2" d="M448.222,35.92v1.8H437.487v-1.8h3.225V25.32h1.8l-.045,2.391,5.5-2.684L448,27.035l-5.255,2.548V35.92Z"/><path class="cls-2" d="M451.99,37l.609-1.9a9.534,9.534,0,0,0,4.533,1.037c2.3,0,3.4-.541,3.4-1.691,0-2.5-8.322-1.669-8.322-5.773,0-2.323,2.053-3.585,5.3-3.585a11.537,11.537,0,0,1,4.488.878l-.586,1.85a8.789,8.789,0,0,0-3.9-.925c-2.142,0-3.247.564-3.247,1.556,0,2.414,8.321,1.579,8.321,5.773,0,2.572-2.277,3.722-5.547,3.722A11.75,11.75,0,0,1,451.99,37Z"/><path class="cls-1" d="M246.749,266.384v16.147h4.556v1.849h-6.631V264.534h6.631v1.85Z"/><path class="cls-1" d="M266.71,278.472c0,2.638-2.053,4.037-5.255,4.037-3.112,0-5.164-1.173-5.164-3.744,0-1.94,1.51-3.045,3.315-3.969-2.03-.88-3.9-2.008-3.9-4.218,0-2.594,2.21-4.172,5.886-4.172,3.879,0,5.706,1.4,5.706,3.811,0,2.233-1.895,3.428-3.947,4.421C265.153,275.472,266.71,276.532,266.71,278.472Zm-5.143-4.6c1.94-.9,3.654-1.827,3.654-3.563,0-1.263-.969-2.076-3.789-2.076-2.413,0-3.653.813-3.653,2.256C257.779,272.18,259.583,273.036,261.567,273.871Zm3.068,4.69c0-1.443-1.488-2.232-3.248-3-1.669.812-3.022,1.669-3.022,3.113,0,1.127.632,2.051,3.2,2.051C264,280.726,264.635,279.8,264.635,278.561Z"/><path class="cls-1" d="M278.574,281.426c0,1.984-1.218,4.307-4.6,4.307v-1.691c1.511,0,2.436-.586,2.729-2.007a1.365,1.365,0,0,1-.812.293,2.031,2.031,0,0,1,.09-4.06C277.175,278.268,278.574,279.261,278.574,281.426Z"/><path class="cls-1" d="M311.188,277.75c0,2.5-1.488,4.6-5.345,4.6-3.631,0-5.8-1.939-5.8-7.194,0-4.714,1.782-8.615,7.082-8.615a12.639,12.639,0,0,1,3.834.564l-.564,1.8a10.509,10.509,0,0,0-3.451-.541c-3.315,0-4.4,1.984-4.713,4.465l3.563.429C309.316,273.668,311.188,274.953,311.188,277.75Zm-2.075.181c0-1.76-1.014-2.527-3.811-2.865l-3.18-.383v.361c0,4.194,1.218,5.479,3.9,5.479C308.256,280.523,309.113,279.531,309.113,277.931Z"/><path class="cls-1" d="M322.556,281.426c0,1.984-1.218,4.307-4.6,4.307v-1.691c1.51,0,2.435-.586,2.728-2.007a1.364,1.364,0,0,1-.811.293,2.031,2.031,0,0,1,.089-4.06C321.158,278.268,322.556,279.261,322.556,281.426Z"/><path class="cls-1" d="M355.012,277.344c0,2.706-1.826,5.006-6.179,5.006a10.858,10.858,0,0,1-4.962-1.014l.587-1.76a9.365,9.365,0,0,0,4.555.947c2.842,0,3.925-1.2,3.925-3.044,0-1.759-1.309-2.526-4.038-3.022l-3.991-.722.09-6.946h9.517v1.85h-7.487l-.068,3.585,2.661.474C353.253,273.307,355.012,274.5,355.012,277.344Z"/><path class="cls-1" d="M366.538,281.426c0,1.984-1.218,4.307-4.6,4.307v-1.691c1.51,0,2.435-.586,2.728-2.007a1.367,1.367,0,0,1-.811.293,2.031,2.031,0,0,1,.089-4.06C365.14,278.268,366.538,279.261,366.538,281.426Z"/><path class="cls-1" d="M399,277.344c0,2.706-1.827,5.006-6.179,5.006a10.852,10.852,0,0,1-4.962-1.014l.586-1.76a9.37,9.37,0,0,0,4.556.947c2.841,0,3.924-1.2,3.924-3.044,0-1.759-1.308-2.526-4.037-3.022l-3.992-.722.091-6.946H398.5v1.85h-7.488l-.068,3.585,2.662.474C397.235,273.307,399,274.5,399,277.344Z"/><path class="cls-1" d="M410.521,281.426c0,1.984-1.218,4.307-4.6,4.307v-1.691c1.511,0,2.436-.586,2.729-2.007a1.37,1.37,0,0,1-.812.293,2.031,2.031,0,0,1,.09-4.06C409.122,278.268,410.521,279.261,410.521,281.426Z"/><path class="cls-1" d="M443.112,274.322c0,5.683-2.143,8.028-5.751,8.028-3.789,0-5.615-2.638-5.615-7.757,0-5.346,2.142-8.03,5.75-8.03C441.285,266.563,443.112,269.2,443.112,274.322Zm-9.247.157c0,.677.023,1.309.068,1.872l6.608-5.728a2.932,2.932,0,0,0-3.09-2.21C434.7,268.413,433.865,270.533,433.865,274.479Zm7.127-.045c0-.676-.023-1.307-.068-1.872l-6.608,5.729a2.934,2.934,0,0,0,3.09,2.21C440.158,280.5,440.992,278.832,440.992,274.434Z"/><path class="cls-1" d="M454.5,281.426c0,1.984-1.218,4.307-4.6,4.307v-1.691c1.511,0,2.435-.586,2.728-2.007a1.364,1.364,0,0,1-.811.293,2.031,2.031,0,0,1,.09-4.06C453.1,278.268,454.5,279.261,454.5,281.426Z"/><path class="cls-1" d="M479.381,280.3a2.03,2.03,0,1,1,2.03,2.03A2.022,2.022,0,0,1,479.381,280.3Z"/><path class="cls-1" d="M494.042,280.3a2.03,2.03,0,1,1,2.03,2.03A2.022,2.022,0,0,1,494.042,280.3Z"/><path class="cls-1" d="M508.7,280.3a2.03,2.03,0,1,1,2.03,2.03A2.022,2.022,0,0,1,508.7,280.3Z"/><path class="cls-1" d="M527.806,281.426c0,1.984-1.218,4.307-4.6,4.307v-1.691c1.51,0,2.435-.586,2.728-2.007a1.364,1.364,0,0,1-.811.293,2.031,2.031,0,0,1,.089-4.06C526.408,278.268,527.806,279.261,527.806,281.426Z"/><path class="cls-1" d="M560.894,278.968h-2.21v3.157h-2.075v-3.157H548.9v-2.076l5.57-10.1h2.143l-4.736,8.593-1.06,1.443v.293h5.8V266.789h2.075v10.329h2.21Z"/><path class="cls-1" d="M571.788,281.426c0,1.984-1.218,4.307-4.6,4.307v-1.691c1.51,0,2.435-.586,2.728-2.007a1.367,1.367,0,0,1-.811.293,2.031,2.031,0,0,1,.089-4.06C570.39,278.268,571.788,279.261,571.788,281.426Z"/><path class="cls-1" d="M604.2,268.864l-5.075,11.411h3.5v1.85h-9.066v-1.85h3.293l4.51-9.9.97-1.421v-.315h-9v-1.85H604.2Z"/><path class="cls-1" d="M615.523,284.38h-6.631v-1.849h4.556V266.384h-4.556v-1.85h6.631Z"/><path class="cls-2" d="M258.039,181.9v9.224h-1.805v-8.48c0-1.827-.18-2.571-1.376-2.571A3.046,3.046,0,0,0,252.9,181c.022.27.044.563.044.9v9.224h-1.8v-8.48c0-1.827-.18-2.571-1.375-2.571a2.978,2.978,0,0,0-1.917.88v10.171h-1.8v-12.4h1.488l.023,1.083a3.552,3.552,0,0,1,2.661-1.331,2.326,2.326,0,0,1,2.323,1.241,4.042,4.042,0,0,1,2.774-1.241C257.136,178.473,258.039,179.488,258.039,181.9Z"/><path class="cls-2" d="M267.715,193.38h3.563v1.8h-9.156v-1.8h3.564v-2.5l-4.8-12.156h2.187l2.594,6.743.88,2.8h.45l.9-2.8,2.548-6.743h2.075l-4.8,12.156Z"/><path class="cls-2" d="M281.654,185.419h-3.315v5.706h-2.075V175.789h4.871c3.857,0,5.729,1.669,5.729,4.488,0,1.962-1.06,3.428-3,4.668l3.722,6.18h-2.572Zm-3.315-1.826h4.4a3.487,3.487,0,0,0,2.008-3.158c0-1.939-1.06-2.819-3.834-2.819h-2.571Z"/><path class="cls-2" d="M300.757,182.983l-.112,8.142h-1.692v-1.488a5.854,5.854,0,0,1-4.352,1.736c-2.481-.023-3.879-1.33-3.879-3.405,0-2.391,2.458-3.451,7.961-3.879l.022-.88c.023-1.578-.158-2.909-2.616-2.909a9.753,9.753,0,0,0-4.33,1.059l-.541-1.691a10.886,10.886,0,0,1,5.029-1.195C300.329,178.473,300.78,180.548,300.757,182.983Zm-2.142,5.278.045-2.526c-4.15.338-5.908.924-5.908,2.188,0,1.037.721,1.646,2.119,1.669A5.55,5.55,0,0,0,298.615,188.261Z"/><path class="cls-2" d="M315.69,182.577v8.548h-2.03v-8.254c0-1.827-.745-2.571-2.256-2.571a6.21,6.21,0,0,0-3.608,1.173v9.652h-2.03v-12.4h1.714V180.1a6.136,6.136,0,0,1,4.172-1.624C314.517,178.473,315.69,179.939,315.69,182.577Z"/><path class="cls-2" d="M330.305,172.632v18.493h-1.759v-1.331a5.976,5.976,0,0,1-4.127,1.579c-3.067-.023-4.714-2.165-4.714-5.977,0-4.961,2.458-6.9,6.157-6.9a15.027,15.027,0,0,1,2.413.18v-6.044Zm-2.03,15.742v-7.736a9.433,9.433,0,0,0-2.571-.316c-2.729,0-3.947,1.624-3.947,4.849,0,2.819.993,4.352,2.91,4.375A6.061,6.061,0,0,0,328.275,188.374Z"/><path class="cls-2" d="M334.366,185.058c0-4.126,2.368-6.585,5.705-6.585,3.519,0,5.571,2.413,5.571,6.427s-2.368,6.473-5.706,6.473C336.418,191.373,334.366,188.96,334.366,185.058Zm9.224-.044c0-2.956-1.1-4.714-3.564-4.714-2.48,0-3.608,1.8-3.608,4.645s1.105,4.6,3.564,4.6C342.462,189.546,343.59,187.742,343.59,185.014Z"/><path class="cls-2" d="M360.664,181.9v9.224h-1.805v-8.48c0-1.827-.18-2.571-1.376-2.571a3.046,3.046,0,0,0-1.961.925c.022.27.044.563.044.9v9.224h-1.8v-8.48c0-1.827-.18-2.571-1.375-2.571a2.978,2.978,0,0,0-1.917.88v10.171h-1.8v-12.4h1.488l.023,1.083a3.552,3.552,0,0,1,2.661-1.331,2.326,2.326,0,0,1,2.323,1.241,4.042,4.042,0,0,1,2.774-1.241C359.761,178.473,360.664,179.488,360.664,181.9Z"/><path class="cls-2" d="M374.512,175.789v15.336h-3.2l-5.142-13.013h-.226l.113,13.013h-1.917V175.789h3.2l5.165,13.013h.2l-.113-13.013Z"/><path class="cls-2" d="M388.9,178.721v12.4h-1.713v-1.376a6.143,6.143,0,0,1-4.173,1.624c-2.864,0-4.037-1.466-4.037-4.1v-8.547h2.03v8.254c0,1.827.744,2.571,2.255,2.571a6.225,6.225,0,0,0,3.609-1.172v-9.653Z"/><path class="cls-2" d="M404.646,181.9v9.224h-1.8v-8.48c0-1.827-.181-2.571-1.376-2.571A3.048,3.048,0,0,0,399.5,181c.022.27.045.563.045.9v9.224h-1.8v-8.48c0-1.827-.18-2.571-1.376-2.571a2.98,2.98,0,0,0-1.917.88v10.171h-1.8v-12.4h1.488l.023,1.083a3.553,3.553,0,0,1,2.661-1.331,2.325,2.325,0,0,1,2.323,1.241,4.042,4.042,0,0,1,2.774-1.241C403.744,178.473,404.646,179.488,404.646,181.9Z"/><path class="cls-2" d="M418.946,184.449c0,4.962-2.459,6.9-6.157,6.9a13.877,13.877,0,0,1-4.443-.654V172.632h2.03v5.413l-.181,1.917a6.079,6.079,0,0,1,4.038-1.489C417.3,178.5,418.946,180.638,418.946,184.449Zm-2.052.226c0-2.82-.993-4.353-2.91-4.375a6.049,6.049,0,0,0-3.608,1.173v7.735a9.472,9.472,0,0,0,2.571.315C415.676,189.523,416.894,187.9,416.894,184.675Z"/><path class="cls-2" d="M424.653,184.945c0,3.157,1.33,4.578,3.947,4.578a8.122,8.122,0,0,0,4.1-1.059l.542,1.691a9.192,9.192,0,0,1-4.691,1.195c-3.677,0-5.954-2.075-5.954-6.292s2.593-6.562,5.841-6.562c3.7,0,5.345,2.3,4.849,6.314h-8.638Zm.158-1.759h6.54c-.045-2.075-1.014-2.931-3.044-2.931A3.306,3.306,0,0,0,424.811,183.186Z"/><path class="cls-2" d="M448.222,189.32v1.805H437.487V189.32h3.225v-10.6h1.8l-.045,2.39,5.5-2.683.023,2.007-5.255,2.548v6.337Z"/><path class="cls-2" d="M451.99,190.4l.609-1.894a9.545,9.545,0,0,0,4.533,1.037c2.3,0,3.4-.541,3.4-1.692,0-2.5-8.322-1.669-8.322-5.773,0-2.322,2.053-3.585,5.3-3.585a11.537,11.537,0,0,1,4.488.879l-.586,1.849a8.8,8.8,0,0,0-3.9-.924c-2.142,0-3.247.563-3.247,1.555,0,2.414,8.321,1.579,8.321,5.774,0,2.571-2.277,3.721-5.547,3.721A11.735,11.735,0,0,1,451.99,190.4Z"/><path class="cls-1" d="M469.92,189.3a2.03,2.03,0,1,1,2.03,2.03A2.023,2.023,0,0,1,469.92,189.3Z"/><path class="cls-1" d="M492.2,189.32v1.805H481.469V189.32h3.225v-10.6h1.8l-.045,2.39,5.5-2.683.023,2.007-5.255,2.548v6.337Z"/><path class="cls-1" d="M497.957,184.945c0,3.157,1.33,4.578,3.946,4.578a8.124,8.124,0,0,0,4.1-1.059l.541,1.691a9.186,9.186,0,0,1-4.691,1.195c-3.676,0-5.954-2.075-5.954-6.292s2.594-6.562,5.842-6.562c3.7,0,5.344,2.3,4.848,6.314h-8.637Zm.158-1.759h6.54c-.045-2.075-1.015-2.931-3.045-2.931A3.305,3.305,0,0,0,498.115,183.186Z"/><path class="cls-1" d="M521.932,181.9v9.224h-1.8v-8.48c0-1.827-.181-2.571-1.376-2.571a3.046,3.046,0,0,0-1.962.925c.022.27.045.563.045.9v9.224H515.03v-8.48c0-1.827-.18-2.571-1.375-2.571a2.98,2.98,0,0,0-1.917.88v10.171h-1.8v-12.4h1.488l.023,1.083a3.552,3.552,0,0,1,2.661-1.331,2.327,2.327,0,0,1,2.323,1.241,4.042,4.042,0,0,1,2.774-1.241C521.029,178.473,521.932,179.488,521.932,181.9Z"/><path class="cls-1" d="M524.955,185.058c0-4.126,2.368-6.585,5.706-6.585,3.518,0,5.571,2.413,5.571,6.427s-2.369,6.473-5.707,6.473C527.007,191.373,524.955,188.96,524.955,185.058Zm9.224-.044c0-2.956-1.105-4.714-3.563-4.714-2.481,0-3.609,1.8-3.609,4.645s1.105,4.6,3.564,4.6C533.051,189.546,534.179,187.742,534.179,185.014Z"/><path class="cls-1" d="M551.072,178.721l-4.352,12.4h-2.932l-4.352-12.4h2.187l2.5,7.42.924,3.179h.519l.924-3.179,2.5-7.42Z"/><path class="cls-1" d="M556.6,184.945c0,3.157,1.331,4.578,3.947,4.578a8.12,8.12,0,0,0,4.1-1.059l.542,1.691a9.189,9.189,0,0,1-4.691,1.195c-3.676,0-5.954-2.075-5.954-6.292s2.594-6.562,5.841-6.562c3.7,0,5.345,2.3,4.849,6.314H556.6Zm.158-1.759h6.54c-.044-2.075-1.014-2.931-3.044-2.931A3.306,3.306,0,0,0,556.757,183.186Z"/><path class="cls-1" d="M571.553,183.457c0-8.254,2.617-9.923,6.7-9.923v1.85c-3.089,0-4.555,1.059-4.555,7.847,0,7.24,1.466,8.3,4.555,8.3v1.849C574.17,193.38,571.553,191.936,571.553,183.457Z"/><path class="cls-1" d="M594.784,186.344c0,2.706-1.827,5.006-6.179,5.006a10.852,10.852,0,0,1-4.962-1.014l.586-1.76a9.37,9.37,0,0,0,4.556.947c2.842,0,3.924-1.195,3.924-3.044,0-1.759-1.308-2.526-4.037-3.022l-3.992-.722.091-6.946h9.517v1.85H586.8l-.067,3.585,2.661.474C593.024,182.307,594.784,183.5,594.784,186.344Z"/><path class="cls-1" d="M606.919,183.457c0,8.254-2.616,9.923-6.7,9.923v-1.849c3.09,0,4.555-1.06,4.555-7.848,0-7.24-1.465-8.3-4.555-8.3v-1.85C604.3,173.534,606.919,174.977,606.919,183.457Z"/><path class="cls-2" d="M357.062,285.383a1.017,1.017,0,0,0,.131-.073l.261-.152.178-.108a.616.616,0,0,0-.1-.39.644.644,0,0,1-.156-.246.747.747,0,0,0-.118-.236.869.869,0,0,1-.155-.247.857.857,0,0,0-.114-.238.754.754,0,0,1-.053-.142.907.907,0,0,0-.134-.326,3.011,3.011,0,0,1-.215-.3.532.532,0,0,1-.049-.1,1.318,1.318,0,0,0-.056-.14,1.912,1.912,0,0,0-.216-.413c-.012-.012,0-.036-.008-.052s-.025-.043-.036-.065-.036-.048-.034-.08a.4.4,0,0,0-.109-.268.533.533,0,0,1-.152-.3c0-.027-.025-.044-.039-.064-.042-.06-.088-.116-.125-.178a.522.522,0,0,1-.107-.282.243.243,0,0,0-.109-.2.2.2,0,0,1-.052-.056c-.041-.081-.018-.193-.126-.243-.042-.02-.007-.089-.033-.122a3.335,3.335,0,0,1-.288-.515c-.013-.026-.023-.054-.034-.082a.4.4,0,0,0-.049-.129.362.362,0,0,1-.081-.254.117.117,0,0,0-.047-.086.818.818,0,0,1-.21-.274,1,1,0,0,0-.118-.236c-.065-.094-.134-.187-.2-.281a.19.19,0,0,1-.041-.078.826.826,0,0,0-.182-.442.152.152,0,0,1-.035-.176c.017-.04,0-.062-.036-.078a.349.349,0,0,1-.178-.233c-.035-.1-.019-.221-.14-.277-.017-.008-.011-.032-.017-.047a1.426,1.426,0,0,0-.056-.141c-.021-.041-.062-.073-.075-.117a1.076,1.076,0,0,0-.162-.325c-.015-.02-.039-.038-.037-.065.007-.1-.063-.166-.11-.241a.637.637,0,0,1-.051-.1.931.931,0,0,0-.067-.163c-.119-.176-.244-.348-.37-.52a.275.275,0,0,1-.057-.2.31.31,0,0,0-.033-.136c-.012-.032-.049-.053-.048-.089,0-.1-.069-.172-.119-.25-.018-.028-.051-.051-.051-.087,0-.074-.016-.139-.109-.167-.025-.007-.024-.034-.032-.053-.023-.054-.043-.109-.069-.162-.014-.03-.044-.053-.056-.085a1.078,1.078,0,0,1-.062-.221c-.006-.049-.01-.1-.066-.119a.053.053,0,0,1-.036-.038.345.345,0,0,0-.192-.238c-.065-.038-.141-.086-.09-.176.1-.174,0-.254-.093-.338a.212.212,0,0,1-.076-.113.411.411,0,0,0-.09-.221.4.4,0,0,1-.082-.209.132.132,0,0,0-.071-.088.124.124,0,0,1-.078-.114.159.159,0,0,0-.027-.085c-.031-.05-.078-.093-.019-.181.01-.015.008-.035-.006-.037-.12-.019-.06-.138-.165-.165a.348.348,0,0,0-.161-.239s0-.007,0-.012a.18.18,0,0,0-.076-.173c-.067-.064-.011-.19-.127-.229-.012,0,0-.028.01-.044.042-.084,0-.13-.066-.159a.114.114,0,0,1-.08-.125c0-.042.008-.091-.027-.111a.412.412,0,0,1-.173-.277c-.017-.055.033-.133.009-.18s-.1-.069-.13-.114c-.041-.062-.012-.161-.159-.165-.021,0-.014-.029-.02-.044a.394.394,0,0,0-.034-.082.622.622,0,0,1-.084-.2,1.794,1.794,0,0,1-.065-.3.062.062,0,0,0-.034-.053c-.122-.06-.107-.188-.16-.283-.02-.036-.018-.081-.069-.1a.236.236,0,0,1-.083-.069.493.493,0,0,1-.126-.274c-.006-.034-.042-.056-.037-.094a.517.517,0,0,1,.068-.124c-.163,0-.165,0-.177-.038-.029-.088-.055-.178-.084-.266-.006-.016-.008-.036-.028-.042-.1-.035-.086-.125-.124-.189s-.007-.126-.092-.148c-.015,0-.01-.023-.013-.035-.022-.082-.043-.165-.068-.246a.067.067,0,0,0-.044-.047.1.1,0,0,1-.074-.1.093.093,0,0,0-.057-.083.086.086,0,0,1-.053-.111.161.161,0,0,0-.074-.186.361.361,0,0,1-.133-.254.146.146,0,0,0-.073-.1.44.44,0,0,1-.219-.282.852.852,0,0,0-.11-.227,1.254,1.254,0,0,1-.083-.142,1.543,1.543,0,0,0-.066-.163,3.161,3.161,0,0,0-.193-.27.416.416,0,0,1-.112-.295.155.155,0,0,0-.01-.078c-.075-.146-.162-.285-.226-.436a1.579,1.579,0,0,0-.188-.371c-.01-.013,0-.036-.007-.052a.933.933,0,0,0-.088-.264,2.186,2.186,0,0,0-.271-.4.271.271,0,0,1-.05-.129c-.02-.064-.016-.142-.063-.191a.182.182,0,0,1-.052-.112c-.007-.057-.008-.115-.085-.138-.035-.01-.04-.045-.05-.072a.543.543,0,0,0-.033-.123.124.124,0,0,0-.108-.066c-.089,0-.046-.073-.113-.076-.111,0-.157-.061-.294-.049a.2.2,0,0,1-.192-.072.385.385,0,0,0-.055-.071.125.125,0,0,0-.029-.011c-.159.076-.317.154-.473.238a3.432,3.432,0,0,1-.439.215,1.008,1.008,0,0,0-.13.073l-.261.152-.178.108a.6.6,0,0,0,.1.39.637.637,0,0,1,.155.246.75.75,0,0,0,.119.236.869.869,0,0,1,.155.247.854.854,0,0,0,.113.238.713.713,0,0,1,.053.142.945.945,0,0,0,.134.326,2.975,2.975,0,0,1,.216.3.529.529,0,0,1,.048.1,1.079,1.079,0,0,0,.057.14,1.844,1.844,0,0,0,.215.413c.012.013,0,.036.009.052a.593.593,0,0,0,.036.065c.012.026.036.048.033.08a.4.4,0,0,0,.11.268.531.531,0,0,1,.151.3c0,.027.025.044.04.065.041.059.088.116.124.178a.508.508,0,0,1,.107.281.244.244,0,0,0,.109.2.186.186,0,0,1,.052.057c.042.08.018.192.126.243.042.019.008.088.033.121a3.263,3.263,0,0,1,.288.515.645.645,0,0,1,.034.082.4.4,0,0,0,.049.129.36.36,0,0,1,.081.254.119.119,0,0,0,.047.086.845.845,0,0,1,.211.274.984.984,0,0,0,.118.236c.065.095.133.187.2.281a.187.187,0,0,1,.041.079.823.823,0,0,0,.183.442.152.152,0,0,1,.035.176c-.017.039,0,.061.036.077a.355.355,0,0,1,.178.233c.034.1.018.222.14.278.017.008.011.031.017.047a1.4,1.4,0,0,0,.055.14c.022.041.063.073.076.117a1.043,1.043,0,0,0,.162.325c.015.021.039.038.037.066-.008.1.062.165.11.24a.8.8,0,0,1,.051.1.9.9,0,0,0,.066.163c.12.176.245.349.371.521a.283.283,0,0,1,.057.195.3.3,0,0,0,.032.137c.012.031.05.052.049.088,0,.105.068.172.119.25.018.028.05.051.051.087,0,.074.016.14.109.167.025.007.023.034.031.053.024.054.044.11.069.162.015.031.045.053.056.085a.965.965,0,0,1,.062.221c.006.049.01.1.066.12a.05.05,0,0,1,.036.037.344.344,0,0,0,.193.238c.065.039.141.086.09.176-.1.175,0,.255.092.338a.2.2,0,0,1,.076.113.411.411,0,0,0,.09.221.4.4,0,0,1,.083.209.13.13,0,0,0,.071.089.119.119,0,0,1,.077.114.162.162,0,0,0,.028.084c.03.05.078.093.019.181-.01.015-.009.035.006.037.12.019.06.139.165.165a.348.348,0,0,0,.161.239s0,.008,0,.012a.179.179,0,0,0,.075.173c.068.064.011.19.128.229.011,0,0,.028-.01.044-.042.084,0,.13.066.159a.115.115,0,0,1,.079.126c0,.042-.008.09.028.111a.41.41,0,0,1,.172.277c.017.055-.033.132-.009.179s.1.069.13.114c.042.062.013.162.159.165.022,0,.015.029.021.045a.444.444,0,0,0,.033.081.629.629,0,0,1,.085.2,1.663,1.663,0,0,1,.064.3.062.062,0,0,0,.035.052c.122.06.107.188.159.283.02.036.019.081.07.1a.258.258,0,0,1,.083.069.5.5,0,0,1,.125.274c.007.034.042.056.037.094a.462.462,0,0,1-.067.124c.162,0,.165,0,.177.038.029.088.055.178.084.266,0,.016.008.036.027.043.1.034.086.124.124.189.03.049.007.125.093.147.015,0,.009.023.012.035.023.082.043.165.068.246a.069.069,0,0,0,.044.047.1.1,0,0,1,.074.1.093.093,0,0,0,.057.083.085.085,0,0,1,.053.111.162.162,0,0,0,.075.186.361.361,0,0,1,.133.254.143.143,0,0,0,.072.1.441.441,0,0,1,.22.283.79.79,0,0,0,.11.226,1.187,1.187,0,0,1,.082.142c.026.053.036.113.067.163a2.954,2.954,0,0,0,.193.27.415.415,0,0,1,.111.3.165.165,0,0,0,.011.078c.074.146.162.286.226.436a1.6,1.6,0,0,0,.187.371c.01.014,0,.036.007.052a.972.972,0,0,0,.088.265,2.2,2.2,0,0,0,.272.4.286.286,0,0,1,.05.129c.02.064.015.142.063.191a.2.2,0,0,1,.052.113c.007.056.007.114.084.137.035.011.04.045.05.072a.53.53,0,0,0,.034.123.123.123,0,0,0,.107.066c.089,0,.046.073.114.076.111.006.157.061.293.049a.2.2,0,0,1,.193.073.333.333,0,0,0,.055.07c.006.006.02.007.029.012.158-.077.317-.154.472-.239A3.5,3.5,0,0,1,357.062,285.383Z"/><path class="cls-1" d="M246.749,443.183v16.148h4.556v1.849h-6.631V441.334h6.631v1.849Z"/><path class="cls-1" d="M266.71,455.271c0,2.639-2.053,4.037-5.255,4.037-3.112,0-5.164-1.172-5.164-3.744,0-1.939,1.51-3.045,3.315-3.968-2.03-.88-3.9-2.008-3.9-4.218,0-2.594,2.21-4.172,5.886-4.172,3.879,0,5.706,1.4,5.706,3.811,0,2.233-1.895,3.428-3.947,4.42C265.153,452.271,266.71,453.332,266.71,455.271Zm-5.143-4.6c1.94-.9,3.654-1.827,3.654-3.564,0-1.262-.969-2.075-3.789-2.075-2.413,0-3.653.813-3.653,2.256C257.779,448.979,259.583,449.836,261.567,450.671Zm3.068,4.69c0-1.443-1.488-2.232-3.248-3-1.669.812-3.022,1.669-3.022,3.112,0,1.127.632,2.052,3.2,2.052C264,457.526,264.635,456.6,264.635,455.361Z"/><path class="cls-1" d="M278.574,458.225c0,1.985-1.218,4.308-4.6,4.308v-1.691c1.511,0,2.436-.586,2.729-2.007a1.365,1.365,0,0,1-.812.293,2.031,2.031,0,0,1,.09-4.06C277.175,455.068,278.574,456.06,278.574,458.225Z"/><path class="cls-1" d="M311.188,454.55c0,2.5-1.488,4.6-5.345,4.6-3.631,0-5.8-1.939-5.8-7.194,0-4.714,1.782-8.615,7.082-8.615a12.639,12.639,0,0,1,3.834.564l-.564,1.8a10.509,10.509,0,0,0-3.451-.541c-3.315,0-4.4,1.984-4.713,4.465l3.563.428C309.316,450.468,311.188,451.753,311.188,454.55Zm-2.075.18c0-1.759-1.014-2.526-3.811-2.864l-3.18-.384v.362c0,4.194,1.218,5.479,3.9,5.479C308.256,457.323,309.113,456.331,309.113,454.73Z"/><path class="cls-1" d="M322.556,458.225c0,1.985-1.218,4.308-4.6,4.308v-1.691c1.51,0,2.435-.586,2.728-2.007a1.364,1.364,0,0,1-.811.293,2.031,2.031,0,0,1,.089-4.06C321.158,455.068,322.556,456.06,322.556,458.225Z"/><path class="cls-1" d="M355.012,454.143c0,2.706-1.826,5.007-6.179,5.007a10.871,10.871,0,0,1-4.962-1.014l.587-1.76a9.365,9.365,0,0,0,4.555.947c2.842,0,3.925-1.195,3.925-3.044,0-1.76-1.309-2.526-4.038-3.022l-3.991-.722.09-6.946h9.517v1.849h-7.487l-.068,3.586,2.661.474C353.253,450.106,355.012,451.3,355.012,454.143Z"/><path class="cls-1" d="M366.538,458.225c0,1.985-1.218,4.308-4.6,4.308v-1.691c1.51,0,2.435-.586,2.728-2.007a1.367,1.367,0,0,1-.811.293,2.031,2.031,0,0,1,.089-4.06C365.14,455.068,366.538,456.06,366.538,458.225Z"/><path class="cls-1" d="M399,454.143c0,2.706-1.827,5.007-6.179,5.007a10.865,10.865,0,0,1-4.962-1.014l.586-1.76a9.37,9.37,0,0,0,4.556.947c2.841,0,3.924-1.195,3.924-3.044,0-1.76-1.308-2.526-4.037-3.022l-3.992-.722.091-6.946H398.5v1.849h-7.488l-.068,3.586,2.662.474C397.235,450.106,399,451.3,399,454.143Z"/><path class="cls-1" d="M410.521,458.225c0,1.985-1.218,4.308-4.6,4.308v-1.691c1.511,0,2.436-.586,2.729-2.007a1.37,1.37,0,0,1-.812.293,2.031,2.031,0,0,1,.09-4.06C409.122,455.068,410.521,456.06,410.521,458.225Z"/><path class="cls-1" d="M443.112,451.122c0,5.683-2.143,8.028-5.751,8.028-3.789,0-5.615-2.638-5.615-7.758,0-5.345,2.142-8.029,5.75-8.029C441.285,443.363,443.112,446,443.112,451.122Zm-9.247.157c0,.677.023,1.309.068,1.872l6.608-5.728a2.932,2.932,0,0,0-3.09-2.21C434.7,445.213,433.865,447.333,433.865,451.279Zm7.127-.045c0-.676-.023-1.307-.068-1.872l-6.608,5.729a2.934,2.934,0,0,0,3.09,2.21C440.158,457.3,440.992,455.632,440.992,451.234Z"/><path class="cls-1" d="M454.5,458.225c0,1.985-1.218,4.308-4.6,4.308v-1.691c1.511,0,2.435-.586,2.728-2.007a1.364,1.364,0,0,1-.811.293,2.031,2.031,0,0,1,.09-4.06C453.1,455.068,454.5,456.06,454.5,458.225Z"/><path class="cls-1" d="M479.381,457.1a2.03,2.03,0,1,1,2.03,2.03A2.022,2.022,0,0,1,479.381,457.1Z"/><path class="cls-1" d="M494.042,457.1a2.03,2.03,0,1,1,2.03,2.03A2.022,2.022,0,0,1,494.042,457.1Z"/><path class="cls-1" d="M508.7,457.1a2.03,2.03,0,1,1,2.03,2.03A2.022,2.022,0,0,1,508.7,457.1Z"/><path class="cls-1" d="M527.806,458.225c0,1.985-1.218,4.308-4.6,4.308v-1.691c1.51,0,2.435-.586,2.728-2.007a1.364,1.364,0,0,1-.811.293,2.031,2.031,0,0,1,.089-4.06C526.408,455.068,527.806,456.06,527.806,458.225Z"/><path class="cls-1" d="M560.894,455.767h-2.21v3.158h-2.075v-3.158H548.9v-2.075l5.57-10.1h2.143l-4.736,8.593-1.06,1.443v.293h5.8V443.589h2.075v10.329h2.21Z"/><path class="cls-1" d="M571.788,458.225c0,1.985-1.218,4.308-4.6,4.308v-1.691c1.51,0,2.435-.586,2.728-2.007a1.367,1.367,0,0,1-.811.293,2.031,2.031,0,0,1,.089-4.06C570.39,455.068,571.788,456.06,571.788,458.225Z"/><path class="cls-1" d="M604.2,445.664l-5.075,11.411h3.5v1.85h-9.066v-1.85h3.293l4.51-9.9.97-1.421v-.316h-9v-1.849H604.2Z"/><path class="cls-1" d="M615.523,461.18h-6.631v-1.849h4.556V443.183h-4.556v-1.849h6.631Z"/><path class="cls-2" d="M258.039,358.7v9.224h-1.805v-8.48c0-1.827-.18-2.571-1.376-2.571a3.046,3.046,0,0,0-1.961.925c.022.27.044.563.044.9v9.224h-1.8v-8.48c0-1.827-.18-2.571-1.375-2.571a2.973,2.973,0,0,0-1.917.88v10.171h-1.8V355.52h1.488l.023,1.083a3.555,3.555,0,0,1,2.661-1.331,2.327,2.327,0,0,1,2.323,1.242,4.043,4.043,0,0,1,2.774-1.242C257.136,355.272,258.039,356.288,258.039,358.7Z"/><path class="cls-2" d="M267.715,370.18h3.563v1.8h-9.156v-1.8h3.564v-2.5l-4.8-12.157h2.187l2.594,6.744.88,2.8h.45l.9-2.8,2.548-6.744h2.075l-4.8,12.157Z"/><path class="cls-2" d="M281.654,362.219h-3.315v5.706h-2.075V352.589h4.871c3.857,0,5.729,1.669,5.729,4.488,0,1.962-1.06,3.428-3,4.668l3.722,6.18h-2.572Zm-3.315-1.827h4.4a3.485,3.485,0,0,0,2.008-3.157c0-1.94-1.06-2.819-3.834-2.819h-2.571Z"/><path class="cls-2" d="M300.757,359.783l-.112,8.142h-1.692v-1.489a5.852,5.852,0,0,1-4.352,1.737c-2.481-.023-3.879-1.331-3.879-3.406,0-2.39,2.458-3.45,7.961-3.878l.022-.88c.023-1.578-.158-2.91-2.616-2.91a9.753,9.753,0,0,0-4.33,1.06l-.541-1.691a10.886,10.886,0,0,1,5.029-1.2C300.329,355.272,300.78,357.348,300.757,359.783Zm-2.142,5.277.045-2.525c-4.15.338-5.908.924-5.908,2.188,0,1.037.721,1.646,2.119,1.668A5.54,5.54,0,0,0,298.615,365.06Z"/><path class="cls-2" d="M315.69,359.377v8.548h-2.03v-8.254c0-1.827-.745-2.572-2.256-2.572a6.217,6.217,0,0,0-3.608,1.173v9.653h-2.03V355.52h1.714V356.9a6.14,6.14,0,0,1,4.172-1.624C314.517,355.272,315.69,356.738,315.69,359.377Z"/><path class="cls-2" d="M330.305,349.432v18.493h-1.759v-1.331a5.98,5.98,0,0,1-4.127,1.579c-3.067-.023-4.714-2.165-4.714-5.977,0-4.961,2.458-6.9,6.157-6.9a15.143,15.143,0,0,1,2.413.18v-6.043Zm-2.03,15.742v-7.737a9.472,9.472,0,0,0-2.571-.315c-2.729,0-3.947,1.624-3.947,4.849,0,2.819.993,4.352,2.91,4.375A6.061,6.061,0,0,0,328.275,365.174Z"/><path class="cls-2" d="M334.366,361.858c0-4.127,2.368-6.586,5.705-6.586,3.519,0,5.571,2.413,5.571,6.428s-2.368,6.473-5.706,6.473C336.418,368.173,334.366,365.76,334.366,361.858Zm9.224-.045c0-2.955-1.1-4.714-3.564-4.714-2.48,0-3.608,1.805-3.608,4.646s1.105,4.6,3.564,4.6C342.462,366.346,343.59,364.542,343.59,361.813Z"/><path class="cls-2" d="M360.664,358.7v9.224h-1.805v-8.48c0-1.827-.18-2.571-1.376-2.571a3.046,3.046,0,0,0-1.961.925c.022.27.044.563.044.9v9.224h-1.8v-8.48c0-1.827-.18-2.571-1.375-2.571a2.973,2.973,0,0,0-1.917.88v10.171h-1.8V355.52h1.488l.023,1.083a3.555,3.555,0,0,1,2.661-1.331,2.327,2.327,0,0,1,2.323,1.242,4.043,4.043,0,0,1,2.774-1.242C359.761,355.272,360.664,356.288,360.664,358.7Z"/><path class="cls-2" d="M374.512,352.589v15.336h-3.2l-5.142-13.013h-.226l.113,13.013h-1.917V352.589h3.2l5.165,13.012h.2l-.113-13.012Z"/><path class="cls-2" d="M388.9,355.52v12.405h-1.713v-1.376a6.143,6.143,0,0,1-4.173,1.624c-2.864,0-4.037-1.466-4.037-4.105V355.52h2.03v8.255c0,1.826.744,2.571,2.255,2.571a6.225,6.225,0,0,0,3.609-1.172V355.52Z"/><path class="cls-2" d="M404.646,358.7v9.224h-1.8v-8.48c0-1.827-.181-2.571-1.376-2.571a3.048,3.048,0,0,0-1.962.925c.022.27.045.563.045.9v9.224h-1.8v-8.48c0-1.827-.18-2.571-1.376-2.571a2.975,2.975,0,0,0-1.917.88v10.171h-1.8V355.52h1.488l.023,1.083a3.557,3.557,0,0,1,2.661-1.331,2.326,2.326,0,0,1,2.323,1.242,4.043,4.043,0,0,1,2.774-1.242C403.744,355.272,404.646,356.288,404.646,358.7Z"/><path class="cls-2" d="M418.946,361.249c0,4.962-2.459,6.9-6.157,6.9a13.905,13.905,0,0,1-4.443-.654V349.432h2.03v5.413l-.181,1.917a6.085,6.085,0,0,1,4.038-1.49C417.3,355.3,418.946,357.437,418.946,361.249Zm-2.052.225c0-2.819-.993-4.352-2.91-4.375a6.063,6.063,0,0,0-3.608,1.173v7.736a9.472,9.472,0,0,0,2.571.315C415.676,366.323,416.894,364.7,416.894,361.474Z"/><path class="cls-2" d="M424.653,361.745c0,3.157,1.33,4.578,3.947,4.578a8.133,8.133,0,0,0,4.1-1.059l.542,1.691a9.192,9.192,0,0,1-4.691,1.195c-3.677,0-5.954-2.075-5.954-6.292s2.593-6.563,5.841-6.563c3.7,0,5.345,2.3,4.849,6.315h-8.638Zm.158-1.759h6.54c-.045-2.075-1.014-2.931-3.044-2.931A3.306,3.306,0,0,0,424.811,359.986Z"/><path class="cls-2" d="M448.222,366.121v1.8H437.487v-1.8h3.225v-10.6h1.8l-.045,2.391,5.5-2.684.023,2.008-5.255,2.548v6.338Z"/><path class="cls-2" d="M451.99,367.2l.609-1.895a9.533,9.533,0,0,0,4.533,1.038c2.3,0,3.4-.541,3.4-1.692,0-2.5-8.322-1.669-8.322-5.773,0-2.323,2.053-3.586,5.3-3.586a11.536,11.536,0,0,1,4.488.88l-.586,1.849a8.789,8.789,0,0,0-3.9-.925c-2.142,0-3.247.564-3.247,1.556,0,2.413,8.321,1.579,8.321,5.774,0,2.571-2.277,3.721-5.547,3.721A11.75,11.75,0,0,1,451.99,367.2Z"/><path class="cls-1" d="M469.92,366.1a2.03,2.03,0,1,1,2.03,2.03A2.023,2.023,0,0,1,469.92,366.1Z"/><path class="cls-1" d="M492.2,366.121v1.8H481.469v-1.8h3.225v-10.6h1.8l-.045,2.391,5.5-2.684.023,2.008-5.255,2.548v6.338Z"/><path class="cls-1" d="M497.957,361.745c0,3.157,1.33,4.578,3.946,4.578a8.134,8.134,0,0,0,4.1-1.059l.541,1.691a9.186,9.186,0,0,1-4.691,1.195c-3.676,0-5.954-2.075-5.954-6.292s2.594-6.563,5.842-6.563c3.7,0,5.344,2.3,4.848,6.315h-8.637Zm.158-1.759h6.54c-.045-2.075-1.015-2.931-3.045-2.931A3.305,3.305,0,0,0,498.115,359.986Z"/><path class="cls-1" d="M521.932,358.7v9.224h-1.8v-8.48c0-1.827-.181-2.571-1.376-2.571a3.046,3.046,0,0,0-1.962.925c.022.27.045.563.045.9v9.224H515.03v-8.48c0-1.827-.18-2.571-1.375-2.571a2.975,2.975,0,0,0-1.917.88v10.171h-1.8V355.52h1.488l.023,1.083a3.555,3.555,0,0,1,2.661-1.331,2.328,2.328,0,0,1,2.323,1.242,4.043,4.043,0,0,1,2.774-1.242C521.029,355.272,521.932,356.288,521.932,358.7Z"/><path class="cls-1" d="M524.955,361.858c0-4.127,2.368-6.586,5.706-6.586,3.518,0,5.571,2.413,5.571,6.428s-2.369,6.473-5.707,6.473C527.007,368.173,524.955,365.76,524.955,361.858Zm9.224-.045c0-2.955-1.105-4.714-3.563-4.714-2.481,0-3.609,1.805-3.609,4.646s1.105,4.6,3.564,4.6C533.051,366.346,534.179,364.542,534.179,361.813Z"/><path class="cls-1" d="M551.072,355.52l-4.352,12.405h-2.932l-4.352-12.405h2.187l2.5,7.42.924,3.181h.519l.924-3.181,2.5-7.42Z"/><path class="cls-1" d="M556.6,361.745c0,3.157,1.331,4.578,3.947,4.578a8.13,8.13,0,0,0,4.1-1.059l.542,1.691a9.189,9.189,0,0,1-4.691,1.195c-3.676,0-5.954-2.075-5.954-6.292s2.594-6.563,5.841-6.563c3.7,0,5.345,2.3,4.849,6.315H556.6Zm.158-1.759h6.54c-.044-2.075-1.014-2.931-3.044-2.931A3.306,3.306,0,0,0,556.757,359.986Z"/><path class="cls-1" d="M571.553,360.257c0-8.254,2.617-9.923,6.7-9.923v1.849c-3.089,0-4.555,1.06-4.555,7.848,0,7.239,1.466,8.3,4.555,8.3v1.849C574.17,370.18,571.553,368.736,571.553,360.257Z"/><path class="cls-1" d="M594.784,363.143c0,2.706-1.827,5.007-6.179,5.007a10.865,10.865,0,0,1-4.962-1.014l.586-1.76a9.37,9.37,0,0,0,4.556.947c2.842,0,3.924-1.195,3.924-3.044,0-1.76-1.308-2.526-4.037-3.022l-3.992-.722.091-6.946h9.517v1.849H586.8l-.067,3.586,2.661.474C593.024,359.106,594.784,360.3,594.784,363.143Z"/><path class="cls-1" d="M606.919,360.257c0,8.254-2.616,9.923-6.7,9.923v-1.849c3.09,0,4.555-1.061,4.555-7.849,0-7.239-1.465-8.3-4.555-8.3v-1.849C604.3,350.334,606.919,351.777,606.919,360.257Z"/><path class="cls-2" d="M357.062,462.183a1.017,1.017,0,0,0,.131-.073l.261-.152.178-.108a.616.616,0,0,0-.1-.39.644.644,0,0,1-.156-.246.747.747,0,0,0-.118-.236.869.869,0,0,1-.155-.247.857.857,0,0,0-.114-.238.754.754,0,0,1-.053-.142.907.907,0,0,0-.134-.326,3.011,3.011,0,0,1-.215-.3.532.532,0,0,1-.049-.1,1.318,1.318,0,0,0-.056-.14,1.912,1.912,0,0,0-.216-.413c-.012-.012,0-.036-.008-.052s-.025-.043-.036-.065-.036-.048-.034-.08a.4.4,0,0,0-.109-.268.533.533,0,0,1-.152-.3c0-.027-.025-.044-.039-.064-.042-.06-.088-.116-.125-.178a.522.522,0,0,1-.107-.282.243.243,0,0,0-.109-.2.2.2,0,0,1-.052-.056c-.041-.081-.018-.193-.126-.243-.042-.02-.007-.089-.033-.122a3.335,3.335,0,0,1-.288-.515c-.013-.026-.023-.054-.034-.082a.4.4,0,0,0-.049-.129.362.362,0,0,1-.081-.254.117.117,0,0,0-.047-.086.818.818,0,0,1-.21-.274,1,1,0,0,0-.118-.236c-.065-.094-.134-.187-.2-.281a.19.19,0,0,1-.041-.078.826.826,0,0,0-.182-.442.152.152,0,0,1-.035-.176c.017-.04,0-.062-.036-.078a.349.349,0,0,1-.178-.233c-.035-.1-.019-.221-.14-.277-.017-.008-.011-.032-.017-.047a1.426,1.426,0,0,0-.056-.141c-.021-.041-.062-.073-.075-.117a1.076,1.076,0,0,0-.162-.325c-.015-.02-.039-.038-.037-.065.007-.1-.063-.166-.11-.241a.637.637,0,0,1-.051-.1.931.931,0,0,0-.067-.163c-.119-.176-.244-.348-.37-.52a.275.275,0,0,1-.057-.2.31.31,0,0,0-.033-.136c-.012-.032-.049-.053-.048-.089,0-.105-.069-.172-.119-.25-.018-.028-.051-.051-.051-.087,0-.074-.016-.139-.109-.167-.025-.007-.024-.034-.032-.053-.023-.054-.043-.109-.069-.162-.014-.03-.044-.053-.056-.085a1.078,1.078,0,0,1-.062-.221c-.006-.049-.01-.1-.066-.119a.053.053,0,0,1-.036-.038.345.345,0,0,0-.192-.238c-.065-.038-.141-.086-.09-.176.1-.174,0-.254-.093-.338a.212.212,0,0,1-.076-.113.411.411,0,0,0-.09-.221.4.4,0,0,1-.082-.209.132.132,0,0,0-.071-.088.124.124,0,0,1-.078-.114.159.159,0,0,0-.027-.085c-.031-.05-.078-.093-.019-.181.01-.015.008-.035-.006-.037-.12-.019-.06-.138-.165-.165a.348.348,0,0,0-.161-.239s0-.007,0-.012a.18.18,0,0,0-.076-.173c-.067-.064-.011-.19-.127-.229-.012,0,0-.028.01-.044.042-.084,0-.13-.066-.159a.114.114,0,0,1-.08-.125c0-.042.008-.091-.027-.111a.412.412,0,0,1-.173-.277c-.017-.055.033-.133.009-.18s-.1-.069-.13-.114c-.041-.062-.012-.161-.159-.165-.021,0-.014-.029-.02-.044a.394.394,0,0,0-.034-.082.622.622,0,0,1-.084-.2,1.794,1.794,0,0,1-.065-.3.062.062,0,0,0-.034-.053c-.122-.06-.107-.188-.16-.283-.02-.036-.018-.081-.069-.1a.236.236,0,0,1-.083-.069.493.493,0,0,1-.126-.274c-.006-.034-.042-.056-.037-.094a.517.517,0,0,1,.068-.124c-.163,0-.165,0-.177-.038-.029-.088-.055-.178-.084-.266-.006-.016-.008-.036-.028-.042-.1-.035-.086-.125-.124-.189s-.007-.126-.092-.148c-.015,0-.01-.023-.013-.035-.022-.082-.043-.165-.068-.246a.067.067,0,0,0-.044-.047.1.1,0,0,1-.074-.1.093.093,0,0,0-.057-.083.086.086,0,0,1-.053-.111.161.161,0,0,0-.074-.186.361.361,0,0,1-.133-.254.146.146,0,0,0-.073-.1.44.44,0,0,1-.219-.282.852.852,0,0,0-.11-.227,1.254,1.254,0,0,1-.083-.142,1.543,1.543,0,0,0-.066-.163,3.161,3.161,0,0,0-.193-.27.416.416,0,0,1-.112-.295.155.155,0,0,0-.01-.078c-.075-.146-.162-.285-.226-.436a1.579,1.579,0,0,0-.188-.371c-.01-.013,0-.036-.007-.052a.933.933,0,0,0-.088-.264,2.186,2.186,0,0,0-.271-.4.271.271,0,0,1-.05-.129c-.02-.064-.016-.142-.063-.191a.182.182,0,0,1-.052-.112c-.007-.057-.008-.115-.085-.138-.035-.01-.04-.045-.05-.072a.543.543,0,0,0-.033-.123.124.124,0,0,0-.108-.066c-.089,0-.046-.073-.113-.076-.111,0-.157-.061-.294-.049a.2.2,0,0,1-.192-.072.385.385,0,0,0-.055-.071.125.125,0,0,0-.029-.011c-.159.076-.317.154-.473.238a3.432,3.432,0,0,1-.439.215,1.008,1.008,0,0,0-.13.073l-.261.152-.178.108a.6.6,0,0,0,.1.39.637.637,0,0,1,.155.246.75.75,0,0,0,.119.236.869.869,0,0,1,.155.247.854.854,0,0,0,.113.238.713.713,0,0,1,.053.142.945.945,0,0,0,.134.326,2.975,2.975,0,0,1,.216.3.529.529,0,0,1,.048.1,1.079,1.079,0,0,0,.057.14,1.844,1.844,0,0,0,.215.413c.012.013,0,.036.009.052a.593.593,0,0,0,.036.065c.012.026.036.048.033.08a.4.4,0,0,0,.11.268.531.531,0,0,1,.151.3c0,.027.025.044.04.065.041.059.088.116.124.178a.508.508,0,0,1,.107.281.244.244,0,0,0,.109.2.186.186,0,0,1,.052.057c.042.08.018.192.126.243.042.019.008.088.033.121a3.263,3.263,0,0,1,.288.515.645.645,0,0,1,.034.082.4.4,0,0,0,.049.129.36.36,0,0,1,.081.254.119.119,0,0,0,.047.086.845.845,0,0,1,.211.274.984.984,0,0,0,.118.236c.065.1.133.187.2.281a.187.187,0,0,1,.041.079.823.823,0,0,0,.183.442.152.152,0,0,1,.035.176c-.017.039,0,.061.036.077a.355.355,0,0,1,.178.233c.034.1.018.222.14.278.017.008.011.031.017.047a1.4,1.4,0,0,0,.055.14c.022.041.063.073.076.117a1.043,1.043,0,0,0,.162.325c.015.021.039.038.037.066-.008.1.062.165.11.24a.8.8,0,0,1,.051.1.9.9,0,0,0,.066.163c.12.176.245.349.371.521a.283.283,0,0,1,.057.2.3.3,0,0,0,.032.137c.012.031.05.052.049.088,0,.105.068.172.119.25.018.028.05.051.051.087,0,.074.016.14.109.167.025.007.023.034.031.053.024.054.044.11.069.162.015.031.045.053.056.085a.965.965,0,0,1,.062.221c.006.049.01.1.066.12a.05.05,0,0,1,.036.037.344.344,0,0,0,.193.238c.065.039.141.086.09.176-.1.175,0,.255.092.338a.2.2,0,0,1,.076.113.411.411,0,0,0,.09.221.4.4,0,0,1,.083.209.13.13,0,0,0,.071.089.119.119,0,0,1,.077.114.162.162,0,0,0,.028.084c.03.05.078.093.019.181-.01.015-.009.035.006.037.12.019.06.139.165.165a.348.348,0,0,0,.161.239s0,.008,0,.012a.179.179,0,0,0,.075.173c.068.064.011.19.128.229.011,0,0,.028-.01.044-.042.084,0,.13.066.159a.115.115,0,0,1,.079.126c0,.042-.008.09.028.111a.41.41,0,0,1,.172.277c.017.055-.033.132-.009.179s.1.069.13.114c.042.062.013.162.159.165.022,0,.015.029.021.045a.444.444,0,0,0,.033.081.629.629,0,0,1,.085.2,1.663,1.663,0,0,1,.064.3.062.062,0,0,0,.035.052c.122.06.107.188.159.283.02.036.019.081.07.1a.258.258,0,0,1,.083.069.5.5,0,0,1,.125.274c.007.034.042.056.037.094a.462.462,0,0,1-.067.124c.162,0,.165,0,.177.038.029.088.055.178.084.266,0,.016.008.036.027.043.1.034.086.124.124.189.03.049.007.125.093.147.015,0,.009.023.012.035.023.082.043.165.068.246a.069.069,0,0,0,.044.047.1.1,0,0,1,.074.1.093.093,0,0,0,.057.083.085.085,0,0,1,.053.111.162.162,0,0,0,.075.186.361.361,0,0,1,.133.254.143.143,0,0,0,.072.1.441.441,0,0,1,.22.283.79.79,0,0,0,.11.226,1.187,1.187,0,0,1,.082.142c.026.053.036.113.067.163a2.954,2.954,0,0,0,.193.27.415.415,0,0,1,.111.3.165.165,0,0,0,.011.078c.074.146.162.286.226.436a1.6,1.6,0,0,0,.187.371c.01.014,0,.036.007.052a.972.972,0,0,0,.088.265,2.2,2.2,0,0,0,.272.4.286.286,0,0,1,.05.129c.02.064.015.142.063.191a.2.2,0,0,1,.052.113c.007.056.007.114.084.137.035.011.04.045.05.072a.53.53,0,0,0,.034.123.123.123,0,0,0,.107.066c.089,0,.046.073.114.076.111.006.157.061.293.049a.2.2,0,0,1,.193.073.333.333,0,0,0,.055.07c.006.006.02.007.029.012.158-.077.317-.154.472-.239A3.5,3.5,0,0,1,357.062,462.183Z"/><path class="cls-2" d="M401.262,462.183a1.017,1.017,0,0,0,.131-.073l.261-.152.178-.108a.616.616,0,0,0-.1-.39.644.644,0,0,1-.156-.246.747.747,0,0,0-.118-.236.869.869,0,0,1-.155-.247.857.857,0,0,0-.114-.238.754.754,0,0,1-.053-.142.907.907,0,0,0-.134-.326,3.011,3.011,0,0,1-.215-.3.532.532,0,0,1-.049-.1,1.318,1.318,0,0,0-.056-.14,1.912,1.912,0,0,0-.216-.413c-.012-.012,0-.036-.008-.052s-.025-.043-.036-.065-.036-.048-.034-.08a.4.4,0,0,0-.109-.268.533.533,0,0,1-.152-.3c0-.027-.025-.044-.039-.064-.042-.06-.088-.116-.125-.178a.522.522,0,0,1-.107-.282.243.243,0,0,0-.109-.2.2.2,0,0,1-.052-.056c-.041-.081-.018-.193-.126-.243-.042-.02-.007-.089-.033-.122a3.335,3.335,0,0,1-.288-.515c-.013-.026-.023-.054-.034-.082a.4.4,0,0,0-.049-.129.362.362,0,0,1-.081-.254.117.117,0,0,0-.047-.086.818.818,0,0,1-.21-.274,1,1,0,0,0-.118-.236c-.065-.094-.134-.187-.2-.281a.19.19,0,0,1-.041-.078.826.826,0,0,0-.182-.442.152.152,0,0,1-.035-.176c.017-.04,0-.062-.036-.078a.349.349,0,0,1-.178-.233c-.035-.1-.019-.221-.14-.277-.017-.008-.011-.032-.017-.047a1.426,1.426,0,0,0-.056-.141c-.021-.041-.062-.073-.075-.117a1.076,1.076,0,0,0-.162-.325c-.015-.02-.039-.038-.037-.065.007-.1-.063-.166-.11-.241a.637.637,0,0,1-.051-.1.931.931,0,0,0-.067-.163c-.119-.176-.244-.348-.37-.52a.275.275,0,0,1-.057-.2.31.31,0,0,0-.033-.136c-.012-.032-.049-.053-.048-.089,0-.105-.069-.172-.119-.25-.018-.028-.051-.051-.051-.087,0-.074-.016-.139-.109-.167-.025-.007-.024-.034-.032-.053-.023-.054-.043-.109-.069-.162-.014-.03-.044-.053-.056-.085a1.078,1.078,0,0,1-.062-.221c-.006-.049-.01-.1-.066-.119a.053.053,0,0,1-.036-.038.345.345,0,0,0-.192-.238c-.065-.038-.141-.086-.09-.176.1-.174,0-.254-.093-.338a.212.212,0,0,1-.076-.113.411.411,0,0,0-.09-.221.4.4,0,0,1-.082-.209.132.132,0,0,0-.071-.088.124.124,0,0,1-.078-.114.159.159,0,0,0-.027-.085c-.031-.05-.078-.093-.019-.181.01-.015.008-.035-.006-.037-.12-.019-.06-.138-.165-.165a.348.348,0,0,0-.161-.239s0-.007,0-.012a.18.18,0,0,0-.076-.173c-.067-.064-.011-.19-.127-.229-.012,0,0-.028.01-.044.042-.084,0-.13-.066-.159a.114.114,0,0,1-.08-.125c0-.042.008-.091-.027-.111a.412.412,0,0,1-.173-.277c-.017-.055.033-.133.009-.18s-.1-.069-.13-.114c-.041-.062-.012-.161-.159-.165-.021,0-.014-.029-.02-.044a.394.394,0,0,0-.034-.082.622.622,0,0,1-.084-.2,1.794,1.794,0,0,1-.065-.3.062.062,0,0,0-.034-.053c-.122-.06-.107-.188-.16-.283-.02-.036-.018-.081-.069-.1a.236.236,0,0,1-.083-.069.493.493,0,0,1-.126-.274c-.006-.034-.042-.056-.037-.094a.517.517,0,0,1,.068-.124c-.163,0-.165,0-.177-.038-.029-.088-.055-.178-.084-.266-.006-.016-.008-.036-.028-.042-.1-.035-.086-.125-.124-.189s-.007-.126-.092-.148c-.015,0-.01-.023-.013-.035-.022-.082-.043-.165-.068-.246a.067.067,0,0,0-.044-.047.1.1,0,0,1-.074-.1.093.093,0,0,0-.057-.083.086.086,0,0,1-.053-.111.161.161,0,0,0-.074-.186.361.361,0,0,1-.133-.254.146.146,0,0,0-.073-.1.44.44,0,0,1-.219-.282.852.852,0,0,0-.11-.227,1.254,1.254,0,0,1-.083-.142,1.543,1.543,0,0,0-.066-.163,3.161,3.161,0,0,0-.193-.27.416.416,0,0,1-.112-.295.155.155,0,0,0-.01-.078c-.075-.146-.162-.285-.226-.436a1.579,1.579,0,0,0-.188-.371c-.01-.013,0-.036-.007-.052a.933.933,0,0,0-.088-.264,2.186,2.186,0,0,0-.271-.4.271.271,0,0,1-.05-.129c-.02-.064-.016-.142-.063-.191a.182.182,0,0,1-.052-.112c-.007-.057-.008-.115-.085-.138-.035-.01-.04-.045-.05-.072a.543.543,0,0,0-.033-.123.124.124,0,0,0-.108-.066c-.089,0-.046-.073-.113-.076-.111,0-.157-.061-.294-.049a.2.2,0,0,1-.192-.072.385.385,0,0,0-.055-.071.125.125,0,0,0-.029-.011c-.159.076-.317.154-.473.238a3.432,3.432,0,0,1-.439.215,1.008,1.008,0,0,0-.13.073l-.261.152-.178.108a.6.6,0,0,0,.1.39.637.637,0,0,1,.155.246.75.75,0,0,0,.119.236.869.869,0,0,1,.155.247.854.854,0,0,0,.113.238.713.713,0,0,1,.053.142.945.945,0,0,0,.134.326,2.975,2.975,0,0,1,.216.3.529.529,0,0,1,.048.1,1.079,1.079,0,0,0,.057.14,1.844,1.844,0,0,0,.215.413c.012.013,0,.036.009.052a.593.593,0,0,0,.036.065c.012.026.036.048.033.08a.4.4,0,0,0,.11.268.531.531,0,0,1,.151.3c0,.027.025.044.04.065.041.059.088.116.124.178a.508.508,0,0,1,.107.281.244.244,0,0,0,.109.2.186.186,0,0,1,.052.057c.042.08.018.192.126.243.042.019.008.088.033.121a3.263,3.263,0,0,1,.288.515.645.645,0,0,1,.034.082.4.4,0,0,0,.049.129.36.36,0,0,1,.081.254.119.119,0,0,0,.047.086.845.845,0,0,1,.211.274.984.984,0,0,0,.118.236c.065.1.133.187.2.281a.187.187,0,0,1,.041.079.823.823,0,0,0,.183.442.152.152,0,0,1,.035.176c-.017.039,0,.061.036.077a.355.355,0,0,1,.178.233c.034.1.018.222.14.278.017.008.011.031.017.047a1.4,1.4,0,0,0,.055.14c.022.041.063.073.076.117a1.043,1.043,0,0,0,.162.325c.015.021.039.038.037.066-.008.1.062.165.11.24a.8.8,0,0,1,.051.1.9.9,0,0,0,.066.163c.12.176.245.349.371.521a.283.283,0,0,1,.057.2.3.3,0,0,0,.032.137c.012.031.05.052.049.088,0,.105.068.172.119.25.018.028.05.051.051.087,0,.074.016.14.109.167.025.007.023.034.031.053.024.054.044.11.069.162.015.031.045.053.056.085a.965.965,0,0,1,.062.221c.006.049.01.1.066.12a.05.05,0,0,1,.036.037.344.344,0,0,0,.193.238c.065.039.141.086.09.176-.1.175,0,.255.092.338a.2.2,0,0,1,.076.113.411.411,0,0,0,.09.221.4.4,0,0,1,.083.209.13.13,0,0,0,.071.089.119.119,0,0,1,.077.114.162.162,0,0,0,.028.084c.03.05.078.093.019.181-.01.015-.009.035.006.037.12.019.06.139.165.165a.348.348,0,0,0,.161.239s0,.008,0,.012a.179.179,0,0,0,.075.173c.068.064.011.19.128.229.011,0,0,.028-.01.044-.042.084,0,.13.066.159a.115.115,0,0,1,.079.126c0,.042-.008.09.028.111a.41.41,0,0,1,.172.277c.017.055-.033.132-.009.179s.1.069.13.114c.042.062.013.162.159.165.022,0,.015.029.021.045a.444.444,0,0,0,.033.081.629.629,0,0,1,.085.2,1.663,1.663,0,0,1,.064.3.062.062,0,0,0,.035.052c.122.06.107.188.159.283.02.036.019.081.07.1a.258.258,0,0,1,.083.069.5.5,0,0,1,.125.274c.007.034.042.056.037.094a.462.462,0,0,1-.067.124c.162,0,.165,0,.177.038.029.088.055.178.084.266,0,.016.008.036.027.043.1.034.086.124.124.189.03.049.007.125.093.147.015,0,.009.023.012.035.023.082.043.165.068.246a.069.069,0,0,0,.044.047.1.1,0,0,1,.074.1.093.093,0,0,0,.057.083.085.085,0,0,1,.053.111.162.162,0,0,0,.075.186.361.361,0,0,1,.133.254.143.143,0,0,0,.072.1.441.441,0,0,1,.22.283.79.79,0,0,0,.11.226,1.187,1.187,0,0,1,.082.142c.026.053.036.113.067.163a2.954,2.954,0,0,0,.193.27.415.415,0,0,1,.111.3.165.165,0,0,0,.011.078c.074.146.162.286.226.436a1.6,1.6,0,0,0,.187.371c.01.014,0,.036.007.052a.972.972,0,0,0,.088.265,2.2,2.2,0,0,0,.272.4.286.286,0,0,1,.05.129c.02.064.015.142.063.191a.2.2,0,0,1,.052.113c.007.056.007.114.084.137.035.011.04.045.05.072a.53.53,0,0,0,.034.123.123.123,0,0,0,.107.066c.089,0,.046.073.114.076.111.006.157.061.293.049a.2.2,0,0,1,.193.073.333.333,0,0,0,.055.07c.006.006.02.007.029.012.158-.077.317-.154.472-.239A3.5,3.5,0,0,1,401.262,462.183Z"/><path class="cls-1" d="M587.3,384.015a.577.577,0,0,0-.028-.354,3.061,3.061,0,0,1-.2-1.77c.006-.276-.084-.557-.077-.836a7.71,7.71,0,0,1,.1-2,3.651,3.651,0,0,0,0-1.578,1.232,1.232,0,0,1-.119.048,3.411,3.411,0,0,0-1.819.8.654.654,0,0,1-.369.147c-.262.04-.525.069-.788.107.014.372.031.745.032,1.117a16.033,16.033,0,0,0-.046,2.527.281.281,0,0,1,0,.119c-.325,1.088-.133,2.234-.385,3.33a1.927,1.927,0,0,0-.073.6c.08.8.218,1.586.268,2.381a7.8,7.8,0,0,1-.106,1.436c-.034.279-.236.578-.174.82.3,1.151-.147,2.315.11,3.463a2.982,2.982,0,0,1-.045,1.668,2.739,2.739,0,0,0-.028.942c.012.427.034.853.053,1.277.014.313.02.626.021.937a16.648,16.648,0,0,1-.322,2.506,3.369,3.369,0,0,0-.135.831c.012.483.006.967.009,1.449a13.181,13.181,0,0,1-2.112.012,1.831,1.831,0,0,0-.6-.015c-.784.156-1.557.37-2.344.5a7.76,7.76,0,0,1-1.439.034c-.281-.007-.6-.18-.833-.093-1.118.408-2.318.078-3.436.445a2.976,2.976,0,0,1-1.665.118,2.7,2.7,0,0,0-.94.064c-.423.053-.845.116-1.267.177-.309.045-.619.08-.929.112a16.8,16.8,0,0,1-2.527-.077,3.35,3.35,0,0,0-.839-.054,50.489,50.489,0,0,1-5.409.413c-1.528.022-3.022.376-4.545.4-.416.008-.832,0-1.249-.005-.346,0-.693,0-1.04,0s-.723.014-1.085.018a4.339,4.339,0,0,1-.961-.011,1.922,1.922,0,0,0-1.511.189.708.708,0,0,1-.347.092c-1.286.014-2.559.259-3.854.2a13.9,13.9,0,0,0-2.035.187,2.786,2.786,0,0,1-.834.085,5.348,5.348,0,0,0-1.918.1,43.62,43.62,0,0,1-6.382.262,5.93,5.93,0,0,0-2.268.189,1.1,1.1,0,0,1-.6.059,8.454,8.454,0,0,0-2.818.219.311.311,0,0,0,0-.032.337.337,0,0,0-.013-.133c-.018-.069-.022-.139-.037-.207a3.354,3.354,0,0,1-.985.066c-.895-.066-1.784-.188-2.678-.253a3.2,3.2,0,0,0-.911.1c-.477.108-.94.289-1.422.373-.907.162-1.82.292-2.734.419-.112.016-.222.037-.334.051a9.823,9.823,0,0,1-.982.038c-.172-.2-.332-.408-.524-.587a5.087,5.087,0,0,0-.549-.4c-.232.116-.441.195-.627.314-.076.051-.158.075-.236.119a8.225,8.225,0,0,1-3.363.776,5.656,5.656,0,0,0-1.065.1,9.285,9.285,0,0,1-4.668-.043c-.307-.069-.623-.11-.924-.2a2.529,2.529,0,0,0-1.709.114c-.455.177-.917.329-1.381.466a7.205,7.205,0,0,1-2.954.324,1.635,1.635,0,0,0-.647.156,3.765,3.765,0,0,1-2.376.056,1.18,1.18,0,0,0-.527-.067,6.05,6.05,0,0,1-2.406-.16.754.754,0,0,0-.63.094,1.058,1.058,0,0,1-.3.241l-.041-.052a12.15,12.15,0,0,0-3.439.083,2.5,2.5,0,0,1-1.059,0,5.577,5.577,0,0,0-3.3.356,1.787,1.787,0,0,1-.291.08l-.075.021a1.8,1.8,0,0,1-.354-.153,3.429,3.429,0,0,0-2.247-.148,1.591,1.591,0,0,0-.533.216,2.205,2.205,0,0,0-.658.561,1.645,1.645,0,0,1-.889-.093.715.715,0,0,0-.516-.024,4.568,4.568,0,0,1-2,.1,11.457,11.457,0,0,0-2.275.11c-.134.021-.271.025-.408.033-.266.012-.534.015-.8.023-.089,0-.186-.044-.267-.022-1.876.485-3.855.089-5.72.668a1.42,1.42,0,0,1-.528.064c-1.024-.1-2.047-.224-3.071-.322-.671-.065-1.344-.1-2.015-.141a.651.651,0,0,0-.391.067,3.4,3.4,0,0,1-1.945.414c-.31.023-.613.153-.922.174a8.581,8.581,0,0,1-2.232.1,4.529,4.529,0,0,0-2.112.258,7.991,7.991,0,0,1-1.26.269c-.034-.146-.067-.294-.1-.44-.369.05-.739.1-1.11.14-.237.024-.476.023-.716.029l-.109-.108a1.4,1.4,0,0,0-.226.112l-.011.01a6.223,6.223,0,0,0-1.456.158.275.275,0,0,1-.12.011c-1.113-.217-2.236.085-3.351-.058a1.831,1.831,0,0,0-.6-.015c-.784.156-1.557.37-2.344.5a7.76,7.76,0,0,1-1.439.034c-.281-.007-.6-.18-.833-.093-1.118.408-2.318.078-3.436.445a2.976,2.976,0,0,1-1.665.118,2.7,2.7,0,0,0-.94.064c-.423.053-.845.116-1.267.177-.309.045-.619.08-.929.112a16.8,16.8,0,0,1-2.527-.077,3.35,3.35,0,0,0-.839-.054,50.489,50.489,0,0,1-5.409.413c-1.528.022-3.022.376-4.545.4-.416.008-.832,0-1.249,0-.346,0-.693,0-1.04,0-.362,0-.723.014-1.085.018a4.339,4.339,0,0,1-.961-.011,1.922,1.922,0,0,0-1.511.189.708.708,0,0,1-.347.092c-1.286.014-2.559.259-3.854.2a13.9,13.9,0,0,0-2.035.187,2.786,2.786,0,0,1-.834.085,5.348,5.348,0,0,0-1.918.1c-.784.1-1.571.142-2.358.183,0,.048-.008.095-.011.142.384.006.766.008,1.148.009-.387,0-.774,0-1.162-.009h-.012c-.317.564-.64,1.124-.942,1.695a3.176,3.176,0,0,0-.277.873c-.028.143-.049.286-.068.429a9.621,9.621,0,0,1-.162,1.022c-.217.9-.465,1.785-.715,2.673-.031.109-.056.218-.089.327a9.372,9.372,0,0,1-.359.914c-.249.079-.507.14-.749.244a4.971,4.971,0,0,0-.586.342,6.524,6.524,0,0,0,.036.7c.014.089,0,.174.013.263a7.125,7.125,0,0,1-.489,2.926c.435.021.869.051,1.3.063l.041.052a1.058,1.058,0,0,0,.3-.241.754.754,0,0,1,.63-.094,6.947,6.947,0,0,0,1.059.177c.18-.455.355-.914.548-1.366q.48-1.125.989-2.235c.134-.289.271-.575.4-.865a4.338,4.338,0,0,0,.43-1.536,1.227,1.227,0,0,1,.207-.637c.695-.94.723-2.106,1.1-3.153.022-.062.04-.127.062-.189l.057.016c0-.016.013-.028.016-.044a8.873,8.873,0,0,1,3.574.153c.276.061.559.1.827.177a2.26,2.26,0,0,0,1.53-.1c.409-.157.821-.3,1.237-.419a6.5,6.5,0,0,1,2.644-.293,1.485,1.485,0,0,0,.579-.141,3.372,3.372,0,0,1,2.127-.052,1.074,1.074,0,0,0,.47.06,5.42,5.42,0,0,1,2.155.139.682.682,0,0,0,.565-.083.9.9,0,0,1,.269-.219l.036.047a10.835,10.835,0,0,0,3.079-.078,2.265,2.265,0,0,1,.949,0,4.992,4.992,0,0,0,2.949-.323,2.247,2.247,0,0,1,.329-.09,1.594,1.594,0,0,1,.317.136,3.06,3.06,0,0,0,2.011.13,1.7,1.7,0,0,0,1.065-.7,1.464,1.464,0,0,1,.795.082.638.638,0,0,0,.462.02,4.105,4.105,0,0,1,1.795-.088,10.169,10.169,0,0,0,2.035-.1,3.008,3.008,0,0,1,.367-.029c.237-.013.477-.015.715-.023.08,0,.166.038.241.019,1.677-.435,3.45-.084,5.119-.6a1.247,1.247,0,0,1,.473-.058c.917.087,1.831.2,2.749.285.565.052,1.133.084,1.7.117l-.015.22c.92-.092,1.838-.221,2.756-.333a2.219,2.219,0,0,1,.667-.058,17.361,17.361,0,0,0,3.232,0,9.532,9.532,0,0,0,1.336-.169c.577-.074,1.152-.16,1.73-.217a17.815,17.815,0,0,0,2.815-.219.313.313,0,0,1,.132-.014c1.245.247,2.5-.088,3.746.073a2.114,2.114,0,0,0,.668.016c.875-.172,1.739-.411,2.62-.552a8.7,8.7,0,0,1,1.607-.034c.314.007.668.2.93.1,1.249-.453,2.59-.084,3.839-.491a3.322,3.322,0,0,1,1.859-.131,3.052,3.052,0,0,0,1.052-.067c.472-.06.943-.131,1.415-.2.345-.05.692-.09,1.038-.125.751-.016,1.5-.007,2.252.051.19.015.381.015.57.041a3.911,3.911,0,0,0,.938.061c.531-.064,1.064-.109,1.6-.164,1.479-.15,2.96-.27,4.447-.29,1.706-.021,3.376-.415,5.076-.438.466-.006.932,0,1.4.008.388.006.775.008,1.162.009.4,0,.809-.015,1.213-.019a4.852,4.852,0,0,1,1.072.014,2.158,2.158,0,0,0,1.69-.208.765.765,0,0,1,.387-.1c1.437-.014,2.859-.285,4.306-.217a15.9,15.9,0,0,0,2.271-.207,3.1,3.1,0,0,1,.933-.093,6,6,0,0,0,2.143-.105,39.751,39.751,0,0,1,4.687-.29c.816-.009,1.629-.007,2.445.007.317.006.635.016.952.017a4.342,4.342,0,0,0,1.579-.223,1.214,1.214,0,0,1,.667-.067c1.14.259,2.218-.184,3.327-.263.066,0,.132-.014.2-.019,0,.019.006.038.01.058a3.038,3.038,0,0,1,.883-.061c.8.059,1.6.167,2.4.224a2.856,2.856,0,0,0,.815-.089c.428-.095.842-.259,1.273-.336.91-.163,1.828-.3,2.746-.425a8.671,8.671,0,0,1,.879-.035,6.878,6.878,0,0,0,.469.526,4.855,4.855,0,0,0,.491.356,5.647,5.647,0,0,0,.562-.282,6.782,6.782,0,0,1,3.221-.8,5.347,5.347,0,0,0,.954-.088,8.268,8.268,0,0,1,4.177.032c.276.061.559.1.827.177a2.26,2.26,0,0,0,1.53-.1c.409-.157.821-.295,1.237-.419a6.5,6.5,0,0,1,2.644-.293,1.485,1.485,0,0,0,.579-.141,3.372,3.372,0,0,1,2.127-.052,1.074,1.074,0,0,0,.47.06,5.42,5.42,0,0,1,2.155.139.682.682,0,0,0,.565-.083.9.9,0,0,1,.269-.219l.036.047a10.835,10.835,0,0,0,3.079-.078,2.265,2.265,0,0,1,.949,0,4.992,4.992,0,0,0,2.949-.323,2.247,2.247,0,0,1,.329-.09,1.594,1.594,0,0,1,.317.136,3.06,3.06,0,0,0,2.011.13,1.7,1.7,0,0,0,1.065-.7,1.464,1.464,0,0,1,.8.082.638.638,0,0,0,.462.02,4.105,4.105,0,0,1,1.795-.088,10.169,10.169,0,0,0,2.035-.1,3.008,3.008,0,0,1,.367-.029c.237-.013.477-.015.715-.023.08,0,.166.038.241.019,1.677-.435,3.45-.084,5.119-.6a1.247,1.247,0,0,1,.473-.058c.917.087,1.831.2,2.749.285.6.055,1.2.089,1.8.123h0a.569.569,0,0,0,.349-.062,3.065,3.065,0,0,1,1.742-.372c.276-.02.547-.138.825-.157.1-.008.205-.023.308-.035a5.018,5.018,0,0,0-.087-2.6,2.265,2.265,0,0,1-.057-.336c.01-.024.028-.048.039-.073a1.626,1.626,0,0,1,.126-.229,3.063,3.063,0,0,0,.326-1.99,1.709,1.709,0,0,0-.591-1.127,1.484,1.484,0,0,1,.159-.783.641.641,0,0,0,.066-.457,4.1,4.1,0,0,1,.086-1.8,10.2,10.2,0,0,0,.1-2.035,3.013,3.013,0,0,1,.006-.368c.011-.237.032-.476.048-.713,0-.08.053-.163.041-.239-.27-1.711.253-3.442-.1-5.153a1.272,1.272,0,0,1-.012-.476c.177-.905.375-1.8.551-2.709C587.119,385.206,587.212,384.611,587.3,384.015Z"/><path class="cls-1" d="M589.9,205.415a.576.576,0,0,0-.028-.354,3.062,3.062,0,0,1-.2-1.77c.006-.276-.084-.557-.077-.836a7.71,7.71,0,0,1,.105-2,3.651,3.651,0,0,0,0-1.578c-.04.015-.077.036-.119.048a3.411,3.411,0,0,0-1.819.8.654.654,0,0,1-.369.147c-.262.04-.525.069-.788.107.014.372.031.745.032,1.117a16.022,16.022,0,0,0-.046,2.526.285.285,0,0,1,0,.12c-.325,1.088-.133,2.234-.385,3.33a1.927,1.927,0,0,0-.073.595c.08.8.218,1.586.268,2.381a7.792,7.792,0,0,1-.106,1.435c-.034.28-.236.579-.174.821.3,1.151-.147,2.315.11,3.463a2.982,2.982,0,0,1-.045,1.668,2.738,2.738,0,0,0-.028.942c.012.427.034.853.053,1.277.014.312.02.626.021.937a16.664,16.664,0,0,1-.322,2.506,3.369,3.369,0,0,0-.135.83c.012.484.006.968.009,1.45a13.181,13.181,0,0,1-2.112.012,1.859,1.859,0,0,0-.6-.016c-.784.156-1.557.371-2.344.5a7.76,7.76,0,0,1-1.439.034c-.281-.007-.6-.18-.833-.094-1.118.409-2.318.079-3.436.446a2.976,2.976,0,0,1-1.665.118,2.725,2.725,0,0,0-.94.063c-.423.054-.845.117-1.267.178-.309.045-.619.08-.929.112a16.8,16.8,0,0,1-2.527-.078,3.4,3.4,0,0,0-.839-.053,50.749,50.749,0,0,1-5.409.413c-1.528.021-3.022.376-4.545.4-.416.008-.832,0-1.249,0-.346,0-.693,0-1.04,0s-.723.014-1.085.018a4.278,4.278,0,0,1-.961-.012,1.931,1.931,0,0,0-1.511.189.7.7,0,0,1-.347.093c-1.286.014-2.559.259-3.854.2a14.034,14.034,0,0,0-2.035.186,2.722,2.722,0,0,1-.834.085,5.348,5.348,0,0,0-1.918.1,43.481,43.481,0,0,1-6.382.261,5.95,5.95,0,0,0-2.268.19,1.109,1.109,0,0,1-.6.059,8.454,8.454,0,0,0-2.818.219c0-.011,0-.021,0-.032a.337.337,0,0,0-.013-.133c-.018-.069-.022-.139-.037-.207a3.354,3.354,0,0,1-.985.066c-.895-.066-1.784-.188-2.678-.253a3.237,3.237,0,0,0-.911.1c-.477.108-.94.29-1.422.374-.907.162-1.82.292-2.734.419-.112.016-.222.036-.334.05a9.52,9.52,0,0,1-.982.039c-.172-.2-.332-.408-.524-.587a5.087,5.087,0,0,0-.549-.4,6.773,6.773,0,0,0-.627.314c-.076.05-.158.075-.236.119a8.241,8.241,0,0,1-3.363.776,5.656,5.656,0,0,0-1.065.1,9.263,9.263,0,0,1-4.668-.043c-.307-.068-.623-.109-.924-.2a2.523,2.523,0,0,0-1.709.114c-.455.176-.917.329-1.381.466a7.239,7.239,0,0,1-2.954.324,1.635,1.635,0,0,0-.647.156,3.772,3.772,0,0,1-2.376.056,1.2,1.2,0,0,0-.527-.068,6.013,6.013,0,0,1-2.406-.16.761.761,0,0,0-.63.094,1.045,1.045,0,0,1-.3.242c-.015-.019-.026-.032-.041-.053a12.151,12.151,0,0,0-3.439.084,2.488,2.488,0,0,1-1.059,0,5.585,5.585,0,0,0-3.3.357,1.894,1.894,0,0,1-.291.08l-.075.021a1.857,1.857,0,0,1-.354-.153,3.423,3.423,0,0,0-2.247-.148,1.589,1.589,0,0,0-.533.215,2.223,2.223,0,0,0-.658.562,1.645,1.645,0,0,1-.889-.093.715.715,0,0,0-.516-.024,4.583,4.583,0,0,1-2,.1,11.457,11.457,0,0,0-2.275.109,3.679,3.679,0,0,1-.408.033c-.266.013-.534.016-.8.023-.089,0-.186-.043-.267-.021-1.876.485-3.855.089-5.72.668a1.42,1.42,0,0,1-.528.064c-1.024-.1-2.047-.224-3.071-.322-.671-.065-1.344-.1-2.015-.141a.644.644,0,0,0-.391.067,3.4,3.4,0,0,1-1.945.414c-.31.023-.613.152-.922.174a8.581,8.581,0,0,1-2.232.1,4.541,4.541,0,0,0-2.112.257,7.883,7.883,0,0,1-1.26.27c-.034-.146-.067-.294-.1-.44-.369.05-.739.1-1.11.14-.237.024-.476.023-.716.029l-.109-.108a1.4,1.4,0,0,0-.226.112l-.011.01a6.223,6.223,0,0,0-1.456.158.275.275,0,0,1-.12.011c-1.113-.217-2.236.085-3.351-.058a1.859,1.859,0,0,0-.6-.016c-.784.156-1.557.371-2.344.5a7.76,7.76,0,0,1-1.439.034c-.281-.007-.6-.18-.833-.094-1.118.409-2.318.079-3.436.446a2.976,2.976,0,0,1-1.665.118,2.725,2.725,0,0,0-.94.063c-.423.054-.845.117-1.267.178-.309.045-.619.08-.929.112a16.8,16.8,0,0,1-2.527-.078,3.4,3.4,0,0,0-.839-.053,50.749,50.749,0,0,1-5.409.413c-1.528.021-3.022.376-4.545.4-.416.008-.832,0-1.249-.005-.346,0-.693,0-1.04,0s-.723.014-1.085.018a4.278,4.278,0,0,1-.961-.012,1.931,1.931,0,0,0-1.511.189.7.7,0,0,1-.347.093c-1.286.014-2.559.259-3.854.2a14.034,14.034,0,0,0-2.035.186,2.722,2.722,0,0,1-.834.085,5.348,5.348,0,0,0-1.918.1,43.481,43.481,0,0,1-6.382.261,5.95,5.95,0,0,0-2.268.19,1.109,1.109,0,0,1-.6.059,8.454,8.454,0,0,0-2.818.219c0-.011,0-.021,0-.032a.337.337,0,0,0-.013-.133c-.018-.069-.022-.139-.037-.207a3.354,3.354,0,0,1-.985.066c-.895-.066-1.784-.188-2.678-.253a3.237,3.237,0,0,0-.911.1c-.477.108-.94.29-1.422.374-.907.162-1.82.292-2.734.419-.112.016-.222.036-.334.05a9.52,9.52,0,0,1-.982.039c-.172-.2-.332-.408-.524-.587a5.087,5.087,0,0,0-.549-.4,6.773,6.773,0,0,0-.627.314c-.076.05-.158.075-.236.119a8.241,8.241,0,0,1-3.363.776,5.656,5.656,0,0,0-1.065.1,9.263,9.263,0,0,1-4.668-.043c-.307-.068-.623-.109-.924-.2a2.523,2.523,0,0,0-1.709.114c-.455.176-.917.329-1.381.466a8.429,8.429,0,0,1-1.936.317,5.762,5.762,0,0,1-1.018.007,1.635,1.635,0,0,0-.647.156,4.03,4.03,0,0,1-1.7.15c-.166.53-.267,1.084-.436,1.614a.24.24,0,0,0-.027-.016.334.334,0,0,0-.127-.042c-.071-.011-.136-.036-.205-.049a3.329,3.329,0,0,1-.336.929c-.117.221-.242.437-.365.655-.317.564-.64,1.123-.942,1.695a3.166,3.166,0,0,0-.277.873c-.094.48-.114.976-.23,1.451-.217.9-.465,1.785-.715,2.673-.031.109-.056.218-.089.327a9.372,9.372,0,0,1-.359.914c-.249.079-.507.14-.749.244a5.1,5.1,0,0,0-.586.341,6.543,6.543,0,0,0,.036.7c.014.089,0,.174.013.263a7.125,7.125,0,0,1-.489,2.926c-.051.155-.1.31-.152.465a5.69,5.69,0,0,0-.339,1.016,7.455,7.455,0,0,1-.61,2.057c1.1-.088,2.191-.2,3.287-.283.023-.086.047-.17.072-.256.3-1.035.676-2.043,1.071-3.042.18-.456.355-.914.548-1.366q.48-1.125.989-2.236c.134-.288.271-.575.4-.864a4.338,4.338,0,0,0,.43-1.536,1.231,1.231,0,0,1,.207-.638c.695-.939.723-2.106,1.1-3.152.022-.062.04-.127.062-.189l.057.015a2.986,2.986,0,0,1,.3-.833c.273-.515.564-1.02.849-1.529a1.963,1.963,0,0,0,1.27-.242.774.774,0,0,1,.387-.1c1.437-.014,2.859-.285,4.306-.217a15.9,15.9,0,0,0,2.271-.207,3.1,3.1,0,0,1,.933-.093,6,6,0,0,0,2.143-.1,39.751,39.751,0,0,1,4.687-.29c.816-.009,1.629-.007,2.445.006.317.007.635.017.952.018a4.342,4.342,0,0,0,1.579-.223,1.205,1.205,0,0,1,.667-.067c1.14.259,2.218-.185,3.327-.263.066,0,.132-.014.2-.019,0,.019.006.038.01.058a3.038,3.038,0,0,1,.883-.061c.8.059,1.6.166,2.4.224a2.892,2.892,0,0,0,.815-.089c.428-.095.842-.259,1.273-.337.91-.162,1.828-.295,2.746-.424a8.671,8.671,0,0,1,.879-.035,6.864,6.864,0,0,0,.469.525,4.859,4.859,0,0,0,.491.357,5.647,5.647,0,0,0,.562-.282,6.783,6.783,0,0,1,3.221-.805,5.257,5.257,0,0,0,.954-.087,8.268,8.268,0,0,1,4.177.031c.276.061.559.1.827.178a2.26,2.26,0,0,0,1.53-.1q.614-.236,1.237-.419a6.487,6.487,0,0,1,2.644-.293,1.5,1.5,0,0,0,.579-.141,3.372,3.372,0,0,1,2.127-.052,1.089,1.089,0,0,0,.47.06,5.42,5.42,0,0,1,2.155.139.679.679,0,0,0,.565-.084.9.9,0,0,1,.269-.218l.036.047a10.8,10.8,0,0,0,3.079-.079,2.266,2.266,0,0,1,.949,0,4.992,4.992,0,0,0,2.949-.323,2.247,2.247,0,0,1,.329-.09,1.594,1.594,0,0,1,.317.136,3.054,3.054,0,0,0,2.011.129,1.7,1.7,0,0,0,1.065-.7,1.474,1.474,0,0,1,.8.083.638.638,0,0,0,.462.02,4.121,4.121,0,0,1,1.8-.089,10.1,10.1,0,0,0,2.035-.1,3.008,3.008,0,0,1,.367-.029c.237-.013.477-.015.715-.023.08,0,.166.038.241.019,1.677-.435,3.45-.084,5.119-.6a1.248,1.248,0,0,1,.473-.059c.917.088,1.831.2,2.749.286.565.052,1.133.084,1.7.117l-.015.219c.92-.091,1.838-.22,2.756-.332a2.253,2.253,0,0,1,.667-.059,17.276,17.276,0,0,0,3.232.006,9.532,9.532,0,0,0,1.336-.169c.577-.074,1.152-.16,1.73-.217a17.934,17.934,0,0,0,2.815-.219.313.313,0,0,1,.132-.014c1.245.247,2.5-.089,3.746.073a2.114,2.114,0,0,0,.668.016c.875-.173,1.739-.411,2.62-.552a8.614,8.614,0,0,1,1.607-.034c.314.007.668.2.93.1,1.249-.454,2.59-.084,3.839-.492a3.331,3.331,0,0,1,1.859-.13,3.029,3.029,0,0,0,1.052-.068c.472-.059.943-.13,1.415-.2.345-.05.692-.091,1.038-.125.751-.016,1.5-.007,2.252.051.19.015.381.015.57.041a3.859,3.859,0,0,0,.938.06c.531-.063,1.064-.109,1.6-.163,1.479-.15,2.96-.271,4.447-.29,1.706-.021,3.376-.415,5.076-.438.466-.006.932,0,1.4.008.388.006.775.008,1.162.009.405,0,.809-.015,1.213-.019a4.852,4.852,0,0,1,1.072.014,2.158,2.158,0,0,0,1.69-.209.774.774,0,0,1,.387-.1c1.437-.014,2.859-.285,4.306-.217a15.9,15.9,0,0,0,2.271-.207,3.1,3.1,0,0,1,.933-.093,6,6,0,0,0,2.143-.1,39.751,39.751,0,0,1,4.687-.29c.816-.009,1.629-.007,2.445.006.317.007.635.017.952.018a4.342,4.342,0,0,0,1.579-.223,1.205,1.205,0,0,1,.667-.067c1.14.259,2.218-.185,3.327-.263.066,0,.132-.014.2-.019,0,.019.006.038.01.058a3.038,3.038,0,0,1,.883-.061c.8.059,1.6.166,2.4.224a2.892,2.892,0,0,0,.815-.089c.428-.095.842-.259,1.273-.337.91-.162,1.828-.3,2.746-.424a8.671,8.671,0,0,1,.879-.035,6.864,6.864,0,0,0,.469.525,4.859,4.859,0,0,0,.491.357,5.647,5.647,0,0,0,.562-.282,6.783,6.783,0,0,1,3.221-.805,5.257,5.257,0,0,0,.954-.087,8.268,8.268,0,0,1,4.177.031c.276.061.559.1.827.178a2.26,2.26,0,0,0,1.53-.1q.614-.235,1.237-.419a6.487,6.487,0,0,1,2.644-.293,1.5,1.5,0,0,0,.579-.141,3.372,3.372,0,0,1,2.127-.052,1.089,1.089,0,0,0,.47.06,5.42,5.42,0,0,1,2.155.139.679.679,0,0,0,.565-.084.9.9,0,0,1,.269-.218l.036.047a10.8,10.8,0,0,0,3.079-.079,2.266,2.266,0,0,1,.949,0,4.992,4.992,0,0,0,2.949-.323,2.247,2.247,0,0,1,.329-.09,1.594,1.594,0,0,1,.317.136,3.054,3.054,0,0,0,2.011.129,1.7,1.7,0,0,0,1.065-.7,1.474,1.474,0,0,1,.8.083.638.638,0,0,0,.462.02,4.121,4.121,0,0,1,1.795-.089,10.1,10.1,0,0,0,2.035-.1,3.008,3.008,0,0,1,.367-.029c.237-.013.477-.015.715-.023.08,0,.166.038.241.019,1.677-.435,3.45-.084,5.119-.6a1.248,1.248,0,0,1,.473-.059c.917.088,1.831.2,2.749.286.6.055,1.2.089,1.8.123h0a.576.576,0,0,0,.349-.062,3.057,3.057,0,0,1,1.742-.372c.276-.02.547-.138.825-.157.1-.008.205-.023.308-.035a5.018,5.018,0,0,0-.087-2.6,2.288,2.288,0,0,1-.057-.336c.01-.025.028-.049.039-.073a1.693,1.693,0,0,1,.126-.23,3.059,3.059,0,0,0,.326-1.989,1.709,1.709,0,0,0-.591-1.127,1.489,1.489,0,0,1,.159-.784.64.64,0,0,0,.066-.457,4.1,4.1,0,0,1,.086-1.8,10.2,10.2,0,0,0,.1-2.035,3.013,3.013,0,0,1,.006-.368c.011-.237.032-.476.048-.713,0-.08.053-.163.041-.239-.27-1.711.253-3.442-.1-5.153a1.272,1.272,0,0,1-.012-.476c.177-.905.375-1.8.551-2.709C589.719,206.606,589.812,206.011,589.9,205.415Z"/></svg>