<svg xmlns="http://www.w3.org/2000/svg" viewBox="0 0 296 296"><defs><style>.cls-1{fill:#f36;}.cls-2{fill:#ffeded;}</style></defs><title>9</title><g id="solo_testo" data-name="solo testo"><path class="cls-1" d="M188.073,9.994a9.634,9.634,0,0,0,4.478,3.041,15.053,15.053,0,0,0,5.388,1.492,1.35,1.35,0,0,1,.947.409,2.976,2.976,0,0,0,2.264,1.03,50.977,50.977,0,0,1,5.269,1.122,5.772,5.772,0,0,1,2.472,1.244,4.878,4.878,0,0,0,3.551,1.254,1.859,1.859,0,0,1,1.978,1.263,5.029,5.029,0,0,0,.37.645c.52.013.555-.227.575-.548.1-1.589,1.3-2.422,2.4-3.294a.869.869,0,0,1,.82-.041c.85.707,2.042.464,2.921,1.164a9.818,9.818,0,0,1,2.152,2.367,41.7,41.7,0,0,0,2.831,3.688,1.841,1.841,0,0,0,1.074.592,12.047,12.047,0,0,1,3.93,1.042,1.482,1.482,0,0,0,.614.2c2.083.024,3.849,1.03,5.686,1.807a2.681,2.681,0,0,0,1.688.1,4.457,4.457,0,0,1,3.881.833,2.8,2.8,0,0,0,.362.235c1.77,1.015,1.8,1.247.394,2.817-.668.744-1.341,1.483-2.1,2.32a7.536,7.536,0,0,0,.878.923,4.639,4.639,0,0,1,1.324,1.879c.316.647,1.27.821,1.658,1.6.461.932.808,2.022,2,2.4a.93.93,0,0,1,.43.47c1.25,2.5,3.357,4.213,5.521,5.861a7.362,7.362,0,0,1,1.789,2.127,24.635,24.635,0,0,0,4.787,5.749,5.883,5.883,0,0,1,.627.838c.3.386.623.754.918,1.143a9.555,9.555,0,0,1,.717,1.032,36.764,36.764,0,0,1,2.489,3.931,1.827,1.827,0,0,0,1.012.741,27.127,27.127,0,0,0,3.072,1.014c.7.177,1.235.425,1.318,1.193.093.863.69,1.207,1.416,1.421.275.082.575.076.852.152a2.955,2.955,0,0,1,2.3,3.193,5.13,5.13,0,0,1-.472,1.846c-.657,1.343-.785,2.565.325,3.757a2.362,2.362,0,0,1,.567,2.589,1.488,1.488,0,0,0,.193,1.621,6.678,6.678,0,0,1,1.069,2.77c.3.949.627,1.892.908,2.848.139.472.2.968.3,1.452.058.277.03.688.2.806,1.237.847.9,2.558,1.98,3.478a.741.741,0,0,1,.227.582c-.2,1.2.59,2.375.048,3.606a1.6,1.6,0,0,0,.271,1.183c.646,1.113,1.375,2.178,2.047,3.277.781,1.275,1.613,2.528,2.281,3.86a8.228,8.228,0,0,1,.739,4.817c-.121.921-.389,1.822.261,2.655.016,1.641,1.186,3.08.83,4.808a1.7,1.7,0,0,0,.49,1.124c.358.442.866.761,1.239,1.194.267.309.622.74.585,1.079-.192,1.764.72,3.168,1.387,4.657a2.605,2.605,0,0,1,.079.352,3.8,3.8,0,0,0-.755,3.117,2.512,2.512,0,0,1-.434,2.394c-.257.28-.176.974-.077,1.444a4.525,4.525,0,0,1-.081,2.534,4.788,4.788,0,0,0,.5,4.133,4.675,4.675,0,0,1,.808,2.62,3.376,3.376,0,0,0,.384,1.437,3.738,3.738,0,0,1,.159,2.312c-.187.979-.294,1.974-.423,2.964a4.513,4.513,0,0,1-.052.855,5.382,5.382,0,0,0,.617,4.336,4.881,4.881,0,0,1,.075,3.11c-.035.245-.312.455-.549.779l2.218,3.93c-.194.513-.653,1.125-.566,1.649a8.365,8.365,0,0,1-.135,1.9.675.675,0,0,0,.08.416c1.061,1.351.764,3.179,1.642,4.6a2.645,2.645,0,0,1,.216,1.007,7.523,7.523,0,0,0,.136,1.26,4.262,4.262,0,0,1,.128,3.337.587.587,0,0,0-.012.421c.548,1.416-.088,2.482-.972,3.517-.368.431-.536,1.033-.913,1.454a5.884,5.884,0,0,0-1.68,4.49,3,3,0,0,1-.33,1.44c-.59,1.223-1.243,2.416-1.895,3.609-.507.928-.781,2.012-1.875,2.547a1.441,1.441,0,0,0-.551.882c-.747,2.791-2.341,5.187-3.616,7.731a.915.915,0,0,1-.128.172,18.85,18.85,0,0,0-2.151,2.669,17.233,17.233,0,0,1-1.913,2.82,12.369,12.369,0,0,0-1.907,3.324,5.229,5.229,0,0,1-1.207,1.972,7.562,7.562,0,0,0-2.2,3.12,2.646,2.646,0,0,1-1.008,1.051,16.971,16.971,0,0,0-3.467,4,3.544,3.544,0,0,1-.855.9,4.318,4.318,0,0,0-1.815,1.9c.894,1.765-.006,3.652.084,5.538a12.269,12.269,0,0,1-2,3.234c-.2.181-.545.452-.506.6.26.986-.351,1.435-1.016,1.925a2.475,2.475,0,0,0-.6.847,6.328,6.328,0,0,1-2.8,2.859,8.292,8.292,0,0,0-3.029,2.664,24.956,24.956,0,0,0-2.352,4.749c-.657,1.424-1.017,2.98-1.567,4.455a7.4,7.4,0,0,1-1.712,2.92,3.033,3.033,0,0,0-.607,1.088c-.264.662-.475,1.345-.738,2.106-1.937.58-2.378,2.237-2.641,4.073l-1.153-.047c-1.148,1.332-2.4,2.608-3.443,4.031-1.561,2.121-3.674,2.717-6.233,1.234-.186-.107-.368-.22-.66-.4a6.564,6.564,0,0,1-1.353.858,9.046,9.046,0,0,1-1.5.107,11.518,11.518,0,0,0-1.225.369c-.27.073-.6.23-.818.138-1.608-.694-2.992.136-4.356.686a26.474,26.474,0,0,1-3.994,1.543,3.527,3.527,0,0,0-2.329,1.806,5.483,5.483,0,0,1-1.117,1.266c-.906.914-1.721,1.917-2.593,2.864a2.548,2.548,0,0,1-.955.808,3.535,3.535,0,0,0-2.047,1.8,7.287,7.287,0,0,1-2.3,2.5c-.177.111-.448.263-.461.414-.137,1.683-1.789,1.715-2.763,2.413a5.043,5.043,0,0,1-3.52.567,24.95,24.95,0,0,0-2.552-.049,21.213,21.213,0,0,1-3.805-.681c-.348-.067-.82-.277-1.034-.131-1.2.819-2.364.077-3.537.017a5.063,5.063,0,0,1-.769-.182c-.5.436-.93,1.217-1.845,1.09a.31.31,0,0,0-.206.049,6.788,6.788,0,0,1-1.525,1.063c-.588.2-1.308.008-1.918.175a4.785,4.785,0,0,0-1.459.852c-.576.422-1.091.926-1.663,1.355a1.13,1.13,0,0,1-.771.292c-.985-.259-1.621.465-2.532.808-1.352-1.295-3.231-.624-4.872-1.091a1.051,1.051,0,0,0-.806.221c-.472.379-.916.7-1.557.429a.221.221,0,0,0-.2.039c-.812,1.179-2.211.839-3.31,1.272-.4.157-.8.324-1.284.523l-1.3-.486a5.918,5.918,0,0,0-2.4,2.068c-.468.907-1.458.762-2.459.548l-1.048,2.484c-.3-.137-.591-.289-.9-.4a8.625,8.625,0,0,0-1.02-.31c-1-.234-1.784.426-2.674.656-.805.208-1.633.051-2.366.785-1.07,1.075-2.632,1.089-4.058,1.17-1.794.1-3.6.052-5.4.053a1.006,1.006,0,0,1-.611-.144,2.331,2.331,0,0,0-2.239-.326,3.636,3.636,0,0,1-2.928-.126,1.4,1.4,0,0,0-.839,0,3.055,3.055,0,0,1-2.086-.366,2.655,2.655,0,0,0-2.067-.334,7.513,7.513,0,0,1-1.929.071,3.2,3.2,0,0,1-1.479-.193c-1.117-.675-2.514-.586-3.569-1.447-.576-.47-1.375-.268-2.1-.176a22.414,22.414,0,0,1-2.359.179,1.761,1.761,0,0,1-1.032-.24,6.629,6.629,0,0,0-2.859-.86,10.668,10.668,0,0,0-2.969-.14,11.392,11.392,0,0,1-6-1.488,18.044,18.044,0,0,1-1.667-1,5.81,5.81,0,0,0-3.875-.961,13.617,13.617,0,0,1-6.329-1.068,19.142,19.142,0,0,1-3.5-1.577,4.329,4.329,0,0,0-3.79-.415c-1.051-1.371-2.643-1.468-4.1-1.7a4.365,4.365,0,0,1-2.944-1.579,2.608,2.608,0,0,0-2.655-1.036,3.5,3.5,0,0,1-2.08-.355c-.921-.39-1.893-.665-2.845-.982-.2-.068-.46-.043-.623-.157-2.22-1.552-4.9-2.51-6.476-4.893a3.6,3.6,0,0,1-.6-1.337,2.7,2.7,0,0,0-1.1-1.787,21.986,21.986,0,0,1-3.579-3.981,5.585,5.585,0,0,1-1.3-2.686,2.81,2.81,0,0,0-2.17-2.4c-.815-.269-1.673-.49-2.43-.816-1.266-.544-2.667-.871-3.708-1.953a21.093,21.093,0,0,0-2.734-2.087c-.173-.128-.413-.2-.53-.365a7.241,7.241,0,0,0-2.873-2.172,2.668,2.668,0,0,1-.893-.885c-.895-1.284-1.755-2.593-2.685-3.976-.53-.185-1.125-.445-1.746-.6a2.161,2.161,0,0,1-1.681-1.776,4.364,4.364,0,0,0-1.424-2.8c-.2-.157-.235-.508-.369-.758-.369-.689-.724-1.388-1.134-2.053a6.945,6.945,0,0,1-1.226-3.387c-.09-1.938-.679-2.512-2.658-2.609a2.836,2.836,0,0,1-2.745-1.719c-.39-.954-1.429-.94-1.939-1.607-.468-.612-.692-1.5-1.278-1.911a11.234,11.234,0,0,1-2.853-3.16,9.563,9.563,0,0,0-2.56-2.822,6.114,6.114,0,0,1-2.106-3.4,20.072,20.072,0,0,0-2.8-5.28,26.6,26.6,0,0,1-2.021-3.733,2.438,2.438,0,0,1-.162-2.079,2.128,2.128,0,0,0-.629-2.365c-1.41-1.384-2.025-3.278-3.22-4.806a3.56,3.56,0,0,1-.373-2.062c.01-1.649.134-3.3.2-4.944a9.326,9.326,0,0,0-1.428-5.5c-.939-1.5-1.585-3.179-2.642-4.645-.426-.591-.3-1.556-.676-2.208-.332-.575-1.24-.853-1.494-1.435a17.83,17.83,0,0,1-.862-3.3A8.259,8.259,0,0,0,4,177.589a12.306,12.306,0,0,1-.475-5.73,7.242,7.242,0,0,0-.746-3.958,4.317,4.317,0,0,1-.349-1.433c-.093-.78-.118-1.567-.17-2.351a3.282,3.282,0,0,1-.026-.64c.236-1.768.538-3.529.712-5.3a5.089,5.089,0,0,0-.723-3.3c-.613-.956-1.32-1.853-2.152-3.007a6.148,6.148,0,0,0-.164-1.181,2.821,2.821,0,0,1,.246-1.875c.454-1.2.967-2.39,1.329-3.621a8.117,8.117,0,0,1,1.675-3.213,3.02,3.02,0,0,0,.79-1.941,7.508,7.508,0,0,1,1.482-3.971c.539-.758.911-1.636,1.473-2.374a2.618,2.618,0,0,0,.52-2.191,6.717,6.717,0,0,1,.186-1.905,12.648,12.648,0,0,0,.24-1.477,15.917,15.917,0,0,1,1.094-5.011,10.594,10.594,0,0,0,.428-5.5A1.9,1.9,0,0,1,9.68,116a1.142,1.142,0,0,0,.258-.777,1.73,1.73,0,0,1,.53-1.551,5.728,5.728,0,0,0,.629-1.105,14.368,14.368,0,0,1,1.072-2.076,4.574,4.574,0,0,0,.776-3.672c-.1-.636-.236-1.27-.4-1.892a2.826,2.826,0,0,1,.333-2.248,4.906,4.906,0,0,0,.628-3.3,2.374,2.374,0,0,1,.836-2.509A3.8,3.8,0,0,0,15.6,94.669a20.707,20.707,0,0,1,.939-2.84,14.374,14.374,0,0,0,.651-2.911,1.172,1.172,0,0,0-.1-.627c-.8-1.89-.254-3.6.628-5.3a10.066,10.066,0,0,0,.759-2c.408-1.518.735-3.057,1.14-4.576a2.489,2.489,0,0,1,.558-.878,2.163,2.163,0,0,1,.543-.346,4.228,4.228,0,0,0,2.266-4.076c-.016-.27,0-.659.166-.8,1.442-1.236,2.1-3.2,3.982-4.054a14.194,14.194,0,0,0,2.677-1.8,4.754,4.754,0,0,1,2.441-1.266,1.865,1.865,0,0,0,1.474-1.444,4.292,4.292,0,0,1,2.386-2.615c.951-.5,1.7-1.284,2.731-1.707a3.28,3.28,0,0,0,1.389-1.553A21.882,21.882,0,0,0,41.685,52.3a3.623,3.623,0,0,1,1.869-2.239c.821-.449,1.639-.906,2.477-1.323a19.674,19.674,0,0,0,4.239-2.87,11.254,11.254,0,0,0,2.513-3.44c.49-.947.906-1.933,1.327-2.913A3.3,3.3,0,0,1,56.272,37.3a2.3,2.3,0,0,0,1.072-.99,24.226,24.226,0,0,1,3.224-3.742c1.108-1.116,2.279-2.159,3.423-3.233.46-.431,1.233-.59,1.581-1.074.947-1.317,2.391-1.8,3.734-2.465.443-.22.923-.367,1.381-.562a4.231,4.231,0,0,0,1.145-.544,9.192,9.192,0,0,1,3.833-1.854,4.332,4.332,0,0,0,.807-.3,68.481,68.481,0,0,1,6.953-2.911c1.279-.47,2.535-1.013,3.768-1.592a32.324,32.324,0,0,1,4.78-1.327,8.944,8.944,0,0,1,1.29-.066,4.134,4.134,0,0,0,1.234-.308,35.656,35.656,0,0,0,5.391-3.08,9.223,9.223,0,0,1,4.6-1.652,17.162,17.162,0,0,0,7.566-2.887,9.179,9.179,0,0,1,2.512-1.2,13.332,13.332,0,0,0,2.694-1.3,23.017,23.017,0,0,0,3.38-1.869c1.771-1.321,3.809-1.229,5.818-.858a2.357,2.357,0,0,1,1.889,2.119,1.393,1.393,0,0,0,1.423,1.32,3.713,3.713,0,0,1,1.409.44,6.321,6.321,0,0,0,4.307.853,10.917,10.917,0,0,0,3.644-1.141,10.13,10.13,0,0,1,3.5-.947,17.571,17.571,0,0,0,6.212-1.653c2.275-1.233,4.684-2.219,6.983-3.412,1.472-.764,3.075-.708,4.625-.948a1.749,1.749,0,0,1,2.012,1.3,2.537,2.537,0,0,0,2.306,1.905,17.255,17.255,0,0,1,3.032,1.112c3.129,1.33,6.465,2.005,9.681,3.058,1.17-.338,2.025.464,3.007.813a10.305,10.305,0,0,0,1.236.35c.35.078.772,0,1.056.174a5.253,5.253,0,0,0,2.625.858C186.268,9.716,187.118,9.881,188.073,9.994Z"/><path class="cls-2" d="M109.472,91.81l-2.67-7.671H89.868L87.2,91.81h-5L95.152,54.079h6.706L114.814,91.81ZM98.392,58.682l-7.33,21.252h14.6Z"/><path class="cls-2" d="M198.555,92.672q-2.644,0-4.6-6.782-.748-2.586-1.868-9.052-2.931.4-7.673,1.437l-7.643,1.58q-1.437,3.766-4.915,11.007a2.793,2.793,0,0,1-2.5,1.609,2.952,2.952,0,0,1-2.054-.833,2.7,2.7,0,0,1-.905-2.07q0-1.378,4.338-10.489a3.074,3.074,0,0,1-.488-1.724q0-2.326,2.817-2.988,3.274-6.15,8.276-14.139,6.81-10.89,8.476-10.891,2.271,0,3.1,3.161l1.81,9.656,4.282,19.972,1.637,4.54a11.97,11.97,0,0,1,.834,3.1,2.719,2.719,0,0,1-.891,2.07A2.906,2.906,0,0,1,198.555,92.672ZM188.411,59.826l-8.219,13.248q3.477-.891,10.546-2.156Z"/><path class="cls-2" d="M106.765,158.781l-1.338-10.969H91.944l-4.6,10.969H79.8l18.725-42.8h9.364l6.741,42.8Zm-2.14-17.389-2.3-18.512-7.7,18.512Z"/><path class="cls-2" d="M195.82,146.182H179.585c-.325.779-2.532,6.884-2.532,9.027a3.018,3.018,0,0,0,.324,1.623l5,.78a4.04,4.04,0,0,1,.131,1.169H170.3a4.1,4.1,0,0,1,.129-1.169l2.273-.585c.975-.974,2.4-3.831,3.9-7.858l8.767-23.573a53.154,53.154,0,0,0,2.013-7.274l4.61-1.623,11.821,32.86c1.882,5.325,2.662,6.819,3.377,7.533l3.117.52a4.1,4.1,0,0,1,.129,1.169H194.066a4.04,4.04,0,0,1,.131-1.169l4.221-.52a1.3,1.3,0,0,0,.39-1.1,24.313,24.313,0,0,0-1.493-5.78Zm-15.715-1.559h15.131l-7.6-20.781Z"/><path class="cls-2" d="M120.033,231.179c0,.48-.737.741-2.208.79q2.4-.1-2.533-.195H101.784a2.607,2.607,0,0,1-1.038.195c-.738,0-1.1-.26-1.1-.779q0-.585.713-.585H102.5a7.861,7.861,0,0,0,3.117-.584q.906-.39,1.364-3.637l1.3-8.767a1.7,1.7,0,0,0,.065-.52q0-.453-2.339-.454H95.874q-.388.4-1.686,1.985l-6.041,8.466a5.542,5.542,0,0,0-1.233,2.382q0,1.389,3.572,1.389a7.792,7.792,0,0,0,1.169-.13,7.882,7.882,0,0,1,1.167-.13q.91,0,.91.649,0,.715-1.754.715l-3.571-.195-5.91.195a46.356,46.356,0,0,1-5.325-.1q-1.1-.162-1.1-.747c0-.346.218-.52.65-.52a9.267,9.267,0,0,1,1.3.13,9.165,9.165,0,0,0,1.3.13,7.42,7.42,0,0,0,3.7-.845q1.041-.585,4.221-4.813l18.768-24.713q1.689-2.21,5.131-6.569l5.716-7.414q.648-.844,1.1-.845.648,0,.648.91a17.281,17.281,0,0,1-.454,3.577q-.845,3.9-1.819,11.771l-2.856,23.153q-.39,3.186-.39,3.512,0,1.887,2.338,2.016h3.831C119.773,230.654,120.033,230.844,120.033,231.179Zm-8.637-34.15q0-.584-.26-.583-.388,0-.713.809a2.563,2.563,0,0,1-.585,1q-.388.453-2.079,2.718l-6.948,9.318q-1.169,1.554-3.052,4.013a1.121,1.121,0,0,0-.39.453c0,.345.3.5.909.453h4.547q4.8.066,5.844-.453l2.014-13.267q.192-1.293.584-3.559A5.6,5.6,0,0,0,111.4,197.029Z"/><path class="cls-2" d="M194.08,185.314,201,231.839H188.635l-.65-8.362h-4.328l-.727,8.362H170.423l6.171-46.525Zm-6.412,29.915q-.918-7.9-1.843-19.541-1.848,13.364-2.321,19.541Z"/></g></svg>