<svg xmlns="http://www.w3.org/2000/svg" viewBox="0 0 952 205.502"><defs><style>.cls-1{fill:#ffeded;}.cls-2{fill:none;stroke:#1858a8;stroke-miterlimit:10;stroke-width:0.663px;}.cls-3{fill:#f36;}.cls-4{fill:#1858a8;}</style></defs><title>tracking</title><g id="solo_testo" data-name="solo testo"><path class="cls-1" d="M338.543,95.329a67.366,67.366,0,0,1-1.155-7.982,12.449,12.449,0,0,0-.983-3.633c-.751-1.934-1.309-3.992-.273-6.053.472-.936.128-1.8-.044-2.762-.526-2.94-.732-5.677.96-8.67a10.263,10.263,0,0,0,.035-9.308,21.148,21.148,0,0,1-2-11.171,13.152,13.152,0,0,0,.039-3.344c-1.049-5.7-.706-11.455-.815-17.183-.071-3.778-.834-7.592.468-11.376a6.316,6.316,0,0,0-.224-3.406,39.185,39.185,0,0,1-10.177,1.593c-3.182.234-6.528-.084-9.5.794a17.988,17.988,0,0,1-9.366.07,7.277,7.277,0,0,0-1.915.086c-3.823.224-7.647.47-11.474.656a4.746,4.746,0,0,1-2.492-.253c-2.967-1.812-5.7-.815-8.551.265a8.123,8.123,0,0,1-3.682.481c-.53-.061-1.057-.148-1.583-.237a17.03,17.03,0,0,1-.581-1.817c-.227-.049-.461-.067-.685-.125a39.655,39.655,0,0,0-15.507-.651c-6.733.9-13.5,1.119-20.211-.552a4.813,4.813,0,0,0-2.584-.163c.016-.271-.006-.541.015-.812a6.841,6.841,0,0,0-2.139.815c-2.966,1.553-6.069,1.579-9.31,1.149a36.657,36.657,0,0,0-6.961-.263c-6.428.381-12.68.112-17.97-3.794-3.024,2.071-3.025,2.079-5.334,2.021-.2-.005-.4-.026-.592-.044a7.574,7.574,0,0,0-.358-1.871c-1,.363-2.007.74-3.015,1.1-.678.243-1.351.508-2.023.769l-.046,0,0,.014c-1.255.487-2.509.975-3.789,1.385-.956.306-2.222.705-3,.347-2.908-1.339-5.726-.445-8.631-.252a36.535,36.535,0,0,1-8.715-.455c-2.524-.446-4.712-.839-7.251.374a11.228,11.228,0,0,1-10.272-.039,15.251,15.251,0,0,0-10.96-.793,8.834,8.834,0,0,0-.343-2.77c-.922.346-1.843.7-2.769,1.046-1.8.665-3.562,1.46-5.385,2.064-.878.291-2.042.671-2.757.331-2.674-1.274-5.264-.424-7.935-.24a32.493,32.493,0,0,1-8.013-.433c-2.321-.425-4.332-.8-6.668.355a10,10,0,0,1-9.442-.037,13.62,13.62,0,0,0-10.14-.739c-.921.253-1.81.511-2.686.826.472,3.45-.135,6.894-.24,10.339a25.07,25.07,0,0,0,.449,7.69,3.881,3.881,0,0,1-1.131,3.8,11.594,11.594,0,0,1,1.578,9.035c-.289,1.332-.494,2.684-.773,4.019a18.179,18.179,0,0,0-.158,7.219,66.6,66.6,0,0,1,1.058,7.579,12.171,12.171,0,0,0,.9,3.448c.688,1.837,1.2,3.79.25,5.746a4.011,4.011,0,0,0,.041,2.622c.482,2.791.669,5.39-.878,8.231a10.073,10.073,0,0,0-.032,8.836,20.746,20.746,0,0,1,1.827,10.606,12.992,12.992,0,0,0-.035,3.175,47.612,47.612,0,0,1,.617,6.446,32.615,32.615,0,0,1,6.664.606c2.345.485,4.377.912,6.773-.2a10.159,10.159,0,0,1,9.581.259,13.83,13.83,0,0,0,10.275.989,23.544,23.544,0,0,0,5.424-1.9c1.469-.768,3.71.034,5.6-.024a5.558,5.558,0,0,0,2.187-.779,10.934,10.934,0,0,1,4.208-1.159,15.211,15.211,0,0,1,1.5,3.386c.226.039.459.05.682.1.908.194,1.807.311,2.709.43a7.34,7.34,0,0,1,.443-2.083c.53.09,1.058.173,1.595.293a8.39,8.39,0,0,0,2.051-.051c4.095-.156,8.192-.333,12.288-.45a5.414,5.414,0,0,1,2.66.3c3.139,1.861,6.082.915,9.155-.112a9.3,9.3,0,0,1,3.949-.414c2.912.366,5.761,1.182,8.677,1.5a78.524,78.524,0,0,0,15.1.385,49.442,49.442,0,0,0,16.478.587c7.487-.863,15.011-1.054,22.457.65,1.016.232,2.35.531,3.134.1.033-.018.065-.022.1-.039-.013.309.011.618-.01.928a5.775,5.775,0,0,0,1.921-.825c2.663-1.566,5.456-1.6,8.374-1.188a29.715,29.715,0,0,0,6.265.233c5.782-.409,11.41-.167,16.186,3.716,2.711-2.084,2.714-2.091,4.792-2.043.572.013,1.143.122,1.716.119,1.558,0,2.768-.017,3.714-.1a3.381,3.381,0,0,1-.111-2.085,7.564,7.564,0,0,0,.317-.857,8.609,8.609,0,0,1,6.808,3.032,4.621,4.621,0,0,0,5.2,1.605c4.048-1.707,9-1.269,11.89-4.888,2.83-.111,5.119,2.034,7.762.488.552-.322,1.679.068,2.455.351a23.649,23.649,0,0,0,10.7,1.222,24.614,24.614,0,0,1,8.266.136,15.294,15.294,0,0,0,4.2.449,12.414,12.414,0,0,1,.157-4.917c.316-1.4.54-2.828.844-4.235A18.429,18.429,0,0,0,338.543,95.329Z"/><path class="cls-2" d="M592.016,72.219a34.387,34.387,0,0,0,.622,8.542,17.243,17.243,0,0,0-.206-5.117,4.48,4.48,0,0,1-.037-2.684c.887-2,.41-4-.233-5.883-.134-.391-.245-.771-.359-1.153.062,1.041.124,2.082.235,3.12A21.463,21.463,0,0,1,592.016,72.219Z"/><path class="cls-1" d="M590.686,17.771a34.2,34.2,0,0,0,0-3.58Q590.67,15.981,590.686,17.771Z"/><path class="cls-2" d="M712.345,36.956a10.346,10.346,0,0,1,.768,4.9c.9-1.917.406-3.829-.3-5.629-.187-.481-.353-.947-.5-1.418A4.1,4.1,0,0,0,712.345,36.956Z"/><path class="cls-2" d="M556.591,21.538c.018-.982.112-1.961.219-2.943-.254.485-.519.951-.742,1.395C556.257,20.51,556.42,21.023,556.591,21.538Z"/><path class="cls-2" d="M713.168,65.965a23.324,23.324,0,0,1,.917,5.1,20,20,0,0,0-1.091-7.341A6.178,6.178,0,0,0,713.168,65.965Z"/><path class="cls-2" d="M714.519,79.291c.014.15.022.3.039.45C714.546,79.591,714.532,79.441,714.519,79.291Z"/><path class="cls-2" d="M712.642,49.881a25.551,25.551,0,0,1-1.177,2.933c.11.372.2.738.3,1.107a7.906,7.906,0,0,1,.431-1.1c1.607-2.84,1.412-5.439.913-8.231l0-.019a10.731,10.731,0,0,0,.163,1.529A9.266,9.266,0,0,1,712.642,49.881Z"/><path class="cls-1" d="M866.754,95.925a81.239,81.239,0,0,1-.989-8.133,14.573,14.573,0,0,0-.84-3.7c-.642-1.971-1.119-4.067-.233-6.167a4.911,4.911,0,0,0-.037-2.813c-.451-3-.626-5.784.82-8.834a12.264,12.264,0,0,0,.03-9.482A25.186,25.186,0,0,1,863.8,45.413a15.982,15.982,0,0,0,.034-3.406c-.9-5.8-.6-11.67-.7-17.506-.061-3.848-.714-7.734.4-11.589a7.636,7.636,0,0,0-.192-3.47,28.643,28.643,0,0,1-8.7,1.623c-2.719.238-5.581-.086-8.126.808a12.988,12.988,0,0,1-8.006.072,5.276,5.276,0,0,0-1.638.087c-3.269.229-6.538.479-9.809.669a3.461,3.461,0,0,1-2.131-.258c-2.537-1.846-4.873-.83-7.311.27a5.919,5.919,0,0,1-3.148.49c-1.1-.152-2.183-.408-3.269-.662-.022.146-.025.3-.042.443a9.647,9.647,0,0,0,.513,4.348c.5,1.387.247,3.179.194,4.784-.091,2.759-.2,5.524-.469,8.265-.188,1.918.1,3.906-.739,5.751-.706,1.557-.154,3.193.1,4.786.374,2.392.983,4.747.067,7.2a4.395,4.395,0,0,0,.284,2.319c1.521,5.373,1.42,10.875.958,16.387-.173,2.082-.69,4.124-.9,6.2a6.931,6.931,0,0,0,.338,2.8c.745,2.167,1.433,4.246.207,6.514a4.047,4.047,0,0,0-.164,1.9c.139,2.915.317,5.827.482,8.74a6.167,6.167,0,0,1,.063,1.459,15.3,15.3,0,0,0,.075,7.135c.609,2.263.4,4.815.569,7.238.027.387.056.774.082,1.161.018.26.036.521.056.78.4-.029.807-.05,1.219-.093,3.1-.329,6.2-.311,8.5,2.974,1.071,1.529,2.856,2.434,4.445,1.636,3.46-1.74,7.7-1.293,10.166-4.98,2.419-.113,4.377,2.072,6.635.5.471-.329,1.437.068,2.1.357a17.193,17.193,0,0,0,9.149,1.245,17.7,17.7,0,0,1,7.066.139,11.065,11.065,0,0,0,3.6.457,14.979,14.979,0,0,1,.133-5.01c.27-1.43.461-2.88.722-4.314A22.334,22.334,0,0,0,866.754,95.925Z"/><path class="cls-1" d="M715.275,100.772a4.314,4.314,0,0,0,.156-1.912c-.131-2.934-.3-5.866-.454-8.8a6.76,6.76,0,0,1-.06-1.468,16.408,16.408,0,0,0-.072-7.183,12.656,12.656,0,0,1-.287-1.67c-.017-.148-.025-.3-.039-.45-.149-1.691-.1-3.458-.209-5.166-.067-1.022-.136-2.042-.225-3.058a23.324,23.324,0,0,0-.917-5.1,6.178,6.178,0,0,1-.174-2.239c0-.062,0-.129,0-.191a26.291,26.291,0,0,0-1.229-9.614c-.1-.369-.195-.735-.3-1.107a25.551,25.551,0,0,0,1.177-2.933,9.266,9.266,0,0,0,.632-3.78,10.731,10.731,0,0,1-.163-1.529c-.043-.9-.015-1.811,0-2.72a10.346,10.346,0,0,0-.768-4.9,4.1,4.1,0,0,1-.029-2.151c.012-.076.024-.158.035-.23a60.84,60.84,0,0,0,.028-17.073,51.25,51.25,0,0,1-.314-7.522c.013-.421-.012-.841.013-1.263a4.874,4.874,0,0,0-1.7.825c-2.359,1.566-4.835,1.605-7.421,1.189A23.375,23.375,0,0,0,697.4,10.5c-5.125.409-10.113.167-14.344-3.715-2.405,2.084-2.406,2.091-4.249,2.043-.506-.013-1.014-.122-1.521-.12-.982,0-1.76.021-2.457.055-.283.014-.591.022-.835.046a3.791,3.791,0,0,1,.1,2.085c-1.218,2.989-.411,5.856.093,8.716.207,1.168.689,2.681,1.432,3.208,2.362,1.674,2.548,4.267,2.571,7.114.066,8.7.134,17.385-2.781,25.7,3.512,4.133,3.734,9.053,2.788,14.29a7.755,7.755,0,0,0-.263,2.516c.937,5.529-.043,10.989-.284,16.475-.158,3.606-.435,7.216.31,10.776a6.216,6.216,0,0,1-1.389,5.279,18.943,18.943,0,0,1,1.385,3.83c.048.19.119.375.161.566.2.048.409.067.607.124a31.24,31.24,0,0,0,13.744.651c5.968-.9,11.968-1.119,17.914.553.809.228,1.876.521,2.5.083a5.851,5.851,0,0,1,2.669-1c.078-.011.155-.041.233-.05a7.48,7.48,0,0,0-.311-2.393C714.77,105.147,714.121,103.054,715.275,100.772Z"/><path class="cls-1" d="M781.39,100.825c-.206-1.168-.687-2.681-1.425-3.207-2.35-1.675-2.535-4.267-2.559-7.115-.065-8.695-.133-17.385,2.768-25.7-3.5-4.133-3.716-9.052-2.774-14.29A7.78,7.78,0,0,0,777.661,48c-.932-5.529.043-10.989.283-16.474.158-3.606.433-7.217-.308-10.777a6.235,6.235,0,0,1,1.381-5.279,19.211,19.211,0,0,1-.849-2.024,18.907,18.907,0,0,1-.688-2.372c-.2-.048-.407-.067-.605-.124A30.935,30.935,0,0,0,763.2,10.3q-1.875.282-3.754.456c-.367.034-.735.067-1.1.1a37.137,37.137,0,0,1-12.97-1.1c-.807-.228-1.866-.521-2.487-.082A5.973,5.973,0,0,1,740,10.711a7.755,7.755,0,0,0,.2,1.894c.037.166.056.342.106.5.7,2.183,1.343,4.275.2,6.557a4.329,4.329,0,0,0-.155,1.912c.13,2.935.3,5.866.451,8.8a6.637,6.637,0,0,1,.059,1.468,16.515,16.515,0,0,0,.072,7.183c.569,2.278.374,4.847.532,7.286a33.792,33.792,0,0,0,1.137,8.16,6.453,6.453,0,0,1,.168,2.43,28.344,28.344,0,0,0,1.527,10.721,25.558,25.558,0,0,0-1.171,2.933,9.285,9.285,0,0,0-.629,3.781c.578,3.015-.482,6.247.924,9.144a4.647,4.647,0,0,1-.007,2.382,61.218,61.218,0,0,0-.027,17.073,52.319,52.319,0,0,1,.322,6.56c-.006.741.022,1.482-.021,2.224a4.848,4.848,0,0,0,1.694-.825c2.348-1.566,4.811-1.6,7.386-1.188a23.182,23.182,0,0,0,5.524.233c5.1-.409,10.065-.167,14.275,3.716a11.976,11.976,0,0,1,2.392-1.847,3.749,3.749,0,0,1,1.728-.2l.107,0c.5.014,1.009.122,1.513.12,1.375-.006,2.442-.017,3.276-.1a5.834,5.834,0,0,1-.168-1.418,1.987,1.987,0,0,1,.07-.668C782.7,106.552,781.891,103.685,781.39,100.825Z"/><path class="cls-1" d="M572.193,96.28c.291-.574-.093-1.468-.357-2.161-1.919-5.007-1.792-10.134-1.209-15.27.219-1.94.871-3.843,1.136-5.781a4.895,4.895,0,0,0-.428-2.614c-.938-2.019-1.808-3.956-.262-6.069a2.841,2.841,0,0,0,.21-1.77c-.176-2.716-.4-5.43-.608-8.144a4.255,4.255,0,0,1-.081-1.359,10.63,10.63,0,0,0-.1-6.65c-.767-2.108-.5-4.486-.716-6.744-.243-2.556-.4-5.115-1.531-7.554a4.187,4.187,0,0,1-.226-2.249,16.768,16.768,0,0,0-1.438-8.377c-.2-.515-.394-1.028-.617-1.548.262-.444.576-.91.875-1.395a8.471,8.471,0,0,0,.7-1.32c.452-1.133,1.141-2.444.848-3.5a12.349,12.349,0,0,1-.228-3.741,8.923,8.923,0,0,0-.411-3.572c-1.088.346-2.174.7-3.267,1.047-2.126.664-4.2,1.46-6.35,2.064-1.036.291-2.408.671-3.251.33-3.154-1.274-6.208-.423-9.359-.239a45.156,45.156,0,0,1-9.45-.433c-2.737-.425-5.108-.8-7.863.355a13.687,13.687,0,0,1-11.135-.037,18.714,18.714,0,0,0-11.96-.739c-1.086.252-2.134.511-3.167.826.556,3.449-.159,6.893-.283,10.339-.093,2.578-.311,5.163.529,7.69.494,1.484-.166,2.668-1.334,3.8a10.139,10.139,0,0,1,1.861,9.034c-.341,1.333-.582,2.685-.91,4.02a15.453,15.453,0,0,0-.187,7.219,57,57,0,0,1,1.247,7.578,10.739,10.739,0,0,0,1.059,3.449c.811,1.836,1.413,3.79.3,5.746-.509.889-.138,1.713.047,2.622.568,2.791.79,5.39-1.034,8.231A8.71,8.71,0,0,0,503.2,88.2,17.994,17.994,0,0,1,505.357,98.8a10.977,10.977,0,0,0-.041,3.174,40.481,40.481,0,0,1,.727,6.447,45.274,45.274,0,0,1,7.86.605c2.765.486,5.161.912,7.988-.2a13.891,13.891,0,0,1,11.3.26,18.967,18.967,0,0,0,12.118.989,31.29,31.29,0,0,0,6.4-1.9c1.732-.768,4.376.034,6.608-.024a7.336,7.336,0,0,0,2.579-.78,14.775,14.775,0,0,1,4.963-1.159,14.236,14.236,0,0,1,1.774,3.386c.266.039.541.051.8.1,1.071.2,2.131.312,3.195.43,0-.022.009-.043.01-.065a5.724,5.724,0,0,1,.761-2.608c.891-1.451.2-2.975-.119-4.46C571.8,100.764,571.038,98.569,572.193,96.28Z"/><path class="cls-1" d="M646.356,108.265c-.375-2.282-.982-4.529-.068-6.873a3.994,3.994,0,0,0-.282-2.212c-1.522-5.126-1.421-10.375-.959-15.634.174-1.986.691-3.934.9-5.919a6.3,6.3,0,0,0-.338-2.675c-.745-2.068-1.433-4.051-.207-6.215a3.681,3.681,0,0,0,.166-1.812c-.14-2.781-.319-5.559-.482-8.338a5.613,5.613,0,0,1-.065-1.391,13.921,13.921,0,0,0-.075-6.808c-.609-2.159-.4-4.594-.569-6.905a28.749,28.749,0,0,0-1.214-7.734,5.478,5.478,0,0,1-.18-2.3c.356-3.5-.5-6.758-1.63-10.161a22.542,22.542,0,0,0,1.249-2.78c.359-1.16.906-2.5.672-3.583-.471-2.186.019-4.485-.369-6.678a7.226,7.226,0,0,0-.136-.809c-.863.354-1.724.721-2.591,1.071-1.687.681-3.331,1.495-5.035,2.114-.821.3-1.909.687-2.578.338-2.5-1.3-4.923-.434-7.421-.245a27.794,27.794,0,0,1-7.494-.444c-2.17-.435-4.051-.817-6.234.364a8.651,8.651,0,0,1-8.831-.038,11.737,11.737,0,0,0-9.483-.757c-.862.259-1.692.523-2.511.846.014.111.009.222.021.333.041.392.053.783.072,1.174a34.2,34.2,0,0,1,0,3.58c-.1,1.833-.27,3.666-.32,5.5a28.079,28.079,0,0,0,.418,7.874,4.217,4.217,0,0,1-1.057,3.889,12.8,12.8,0,0,1,1.476,9.249c-.27,1.364-.461,2.748-.722,4.115a20.284,20.284,0,0,0-.148,7.391,74.615,74.615,0,0,1,.989,7.759,10.735,10.735,0,0,0,.481,2.378c.114.382.225.762.359,1.153.643,1.88,1.12,3.88.233,5.883a4.48,4.48,0,0,0,.037,2.684,17.243,17.243,0,0,1,.206,5.117,10.579,10.579,0,0,1-1.026,3.311,11.193,11.193,0,0,0-.03,9.046,21.869,21.869,0,0,1,.828,2.346,23.7,23.7,0,0,1,.88,8.513,14.5,14.5,0,0,0-.032,3.25c.027.169.032.339.058.508a19.834,19.834,0,0,1,4.126.638,6.4,6.4,0,0,0,1.764-.05c3.521-.152,7.042-.324,10.565-.438a4.141,4.141,0,0,1,2.287.289c2.7,1.813,5.229.891,7.87-.109a7.136,7.136,0,0,1,3.4-.4c2.5.357,4.953,1.152,7.461,1.461a54.329,54.329,0,0,0,15.4.089c.114-.019.229-.021.343-.041C646.468,108.868,646.405,108.565,646.356,108.265Z"/><path class="cls-3" d="M602.546,102.514a6.508,6.508,0,0,0-.024-2.622,27.285,27.285,0,0,1-.162-4.428,21.869,21.869,0,0,0-.828-2.346,11.193,11.193,0,0,1,.03-9.046,10.579,10.579,0,0,0,1.026-3.311,34.387,34.387,0,0,1-.622-8.542,21.6,21.6,0,0,0,.023-3.175c-.112-1.038-.174-2.079-.236-3.12a10.735,10.735,0,0,1-.481-2.378,74.613,74.613,0,0,0-.988-7.759,20.283,20.283,0,0,1,.147-7.391c.261-1.367.452-2.751.722-4.115a12.8,12.8,0,0,0-1.476-9.249,4.215,4.215,0,0,0,1.057-3.889,28.079,28.079,0,0,1-.418-7.874c.05-1.832.223-3.665.32-5.5q-.019-1.79,0-3.58c-.019-.391-.031-.782-.072-1.174a4.177,4.177,0,0,1-2.585-1.993l-.015-.012c-1.365-.032-2.663-.606-3.728-2.691-.7-1.377-1.853-2.164-2.855-1.392-2.185,1.68-4.9,1.374-6.421,4.818-1.542.163-2.819-1.795-4.239-.295-.3.314-.918-.028-1.345-.276a7.9,7.9,0,0,0-5.854-.92,7.92,7.92,0,0,1-4.508.046,4.588,4.588,0,0,0-1.131-.268,14.483,14.483,0,0,0,.193,3.741c.249,1.056-.336,2.367-.719,3.5a9.17,9.17,0,0,1-.594,1.32c-.107.982-.2,1.961-.219,2.943a19.449,19.449,0,0,1,1.22,8.377,4.9,4.9,0,0,0,.191,2.249,25.811,25.811,0,0,1,1.3,7.554c.181,2.258-.042,4.636.608,6.744a12.441,12.441,0,0,1,.082,6.65,5.062,5.062,0,0,0,.068,1.359c.175,2.714.367,5.428.516,8.144a3.307,3.307,0,0,1-.177,1.77c-1.312,2.113-.574,4.05.221,6.069a5.671,5.671,0,0,1,.363,2.614c-.224,1.938-.778,3.841-.963,5.781-.5,5.136-.6,10.263,1.025,15.27a3.606,3.606,0,0,1,.3,2.161c-.979,2.289-.329,4.484.073,6.713.267,1.485.856,3.009.1,4.46a6.487,6.487,0,0,0-.645,2.608,7.916,7.916,0,0,0,5.081.2c.289.149.574.3.848.439a18.756,18.756,0,0,1,2.553,1.823c3.188-1.477,6.233-2.573,9.477-1.977a3.462,3.462,0,0,0,2.144-.182,10.219,10.219,0,0,1,1.145-.452,21.406,21.406,0,0,0,4.282.57c-.017-.224-.031-.447-.05-.672-.024-.259-.016-.506-.033-.762.622-.056,1.247-.1,1.869-.15,1.539-.12,3.131.018,4.653-.175-.035-.156-.061-.309-.1-.468A11.278,11.278,0,0,1,602.546,102.514Z"/><path class="cls-3" d="M675.408,55.627c2.915-8.313,2.847-17,2.781-25.7-.023-2.847-.209-5.44-2.571-7.114-.743-.527-1.225-2.04-1.432-3.208-.5-2.86-1.311-5.727-.093-8.716a3.791,3.791,0,0,0-.1-2.085c.244-.024.552-.032.835-.046a12.1,12.1,0,0,0-4.9.13c-.35-.149-.7-.3-1.03-.439a23.364,23.364,0,0,1-3.1-1.824C661.926,8.1,658.228,9.2,654.289,8.6a5.045,5.045,0,0,0-2.6.182,14.171,14.171,0,0,1-1.392.451,31.239,31.239,0,0,0-5.2-.57c.021.223.038.447.061.671.028.259.019.506.039.762-.755.056-1.513.1-2.269.149H642.9c.388,2.193-.1,4.492.369,6.678.234,1.081-.313,2.423-.672,3.583a22.542,22.542,0,0,1-1.249,2.78c1.13,3.4,1.986,6.659,1.63,10.161a5.478,5.478,0,0,0,.18,2.3,28.749,28.749,0,0,1,1.214,7.734c.168,2.311-.04,4.746.569,6.905a13.921,13.921,0,0,1,.075,6.808,5.613,5.613,0,0,0,.065,1.391c.163,2.779.342,5.557.482,8.338a3.681,3.681,0,0,1-.166,1.812c-1.226,2.164-.538,4.147.207,6.215a6.3,6.3,0,0,1,.338,2.675c-.208,1.985-.725,3.933-.9,5.919-.462,5.259-.563,10.508.959,15.634a3.994,3.994,0,0,1,.282,2.212c-.914,2.344-.307,4.591.068,6.873.049.3.112.6.173.905-.114.02-.229.022-.343.041a6,6,0,0,1,1.452,1.617c.852,1.376,2.249,2.164,3.467,1.393,2.654-1.68,5.944-1.372,7.8-4.816,1.874-.162,3.423,1.8,5.149.3.361-.314,1.113.028,1.632.276a11.381,11.381,0,0,0,7.108.922,12.316,12.316,0,0,1,5.163-.107,18.943,18.943,0,0,0-1.385-3.83,6.216,6.216,0,0,0,1.389-5.279c-.745-3.56-.468-7.17-.31-10.776.241-5.486,1.221-10.946.284-16.475a7.755,7.755,0,0,1,.263-2.516C679.142,64.68,678.92,59.76,675.408,55.627Z"/><path class="cls-3" d="M743.976,67.618A36.6,36.6,0,0,1,742.811,56.9a8.39,8.39,0,0,0-.128-2.43,43.722,43.722,0,0,1-.867-8.16,55.093,55.093,0,0,0-.406-7.286,21.508,21.508,0,0,1-.055-7.183,8.672,8.672,0,0,0-.045-1.468c-.117-2.932-.245-5.863-.344-8.8a5.615,5.615,0,0,1,.118-1.912c.876-2.282.383-4.374-.149-6.557-.038-.156-.052-.332-.081-.5a5.9,5.9,0,0,1-1.865-.147,1.084,1.084,0,0,1-.772-.878c-.044.062-.1.105-.14.17-2.295.163-4.2-1.8-6.308-.3-.443.313-1.366-.029-2-.277a16.807,16.807,0,0,0-8.71-.923,17.365,17.365,0,0,1-6.71.042,10.535,10.535,0,0,0-2.322-.316A59.175,59.175,0,0,0,712.3,17.5a70.013,70.013,0,0,1-.023,17.073c-.011.072-.021.154-.031.23.13.471.273.937.435,1.418a7.833,7.833,0,0,1,.257,5.629c-.015.909-.04,1.819,0,2.72l0,.019c.433,2.792.6,5.391-.793,8.231a8.506,8.506,0,0,0-.374,1.1,30.023,30.023,0,0,1,1.067,9.614c0,.062,0,.129,0,.191a22.806,22.806,0,0,1,.947,7.341c.078,1.016.137,2.036.2,3.058.1,1.708.052,3.475.181,5.166.011.15.024.3.034.45a14.53,14.53,0,0,0,.249,1.67,18.823,18.823,0,0,1,.062,7.183,7.758,7.758,0,0,0,.053,1.468c.134,2.932.28,5.864.394,8.8a4.933,4.933,0,0,1-.135,1.912c-1,2.282-.439,4.375.17,6.557a8.606,8.606,0,0,1,.27,2.393c-.068.009-.135.039-.2.05.34.012.678.022,1.019.039a16.83,16.83,0,0,0,8.511.453c.431.149.855.3,1.263.44a30.658,30.658,0,0,1,3.8,1.824c4.627-1.438,9.051-2.5,13.744-2v0a2.944,2.944,0,0,1,.144-1.032c.014-2.176-.049-4.352-.245-6.56a80.068,80.068,0,0,1,.02-17.073,6.05,6.05,0,0,0,0-2.382c-1.072-2.9-.264-6.129-.705-9.144a11.938,11.938,0,0,1,.48-3.781C743.306,69.488,743.7,68.518,743.976,67.618Z"/><path class="cls-3" d="M812.165,101.584a15.3,15.3,0,0,1-.075-7.135,6.167,6.167,0,0,0-.063-1.459c-.165-2.913-.343-5.825-.482-8.74a4.047,4.047,0,0,1,.164-1.9c1.226-2.268.538-4.347-.207-6.514a6.931,6.931,0,0,1-.338-2.8c.21-2.081.727-4.123.9-6.2.462-5.512.563-11.014-.958-16.387a4.395,4.395,0,0,1-.284-2.319c.916-2.457.307-4.812-.067-7.2-.249-1.593-.8-3.229-.1-4.786.834-1.845.551-3.833.739-5.751.266-2.741.378-5.506.469-8.265.053-1.605.307-3.4-.194-4.784a9.647,9.647,0,0,1-.513-4.348c-.263-.008-.526-.015-.79-.026a22.222,22.222,0,0,0-9.8-.454c-.5-.149-.984-.3-1.455-.439a37.878,37.878,0,0,1-4.375-1.825c-5.33,1.439-10.427,2.5-15.833,2v0a2.508,2.508,0,0,1-.258,1.2,20.965,20.965,0,0,0,.746,2.024,6.87,6.87,0,0,0-1.214,5.279,49.067,49.067,0,0,1,.271,10.777C778.238,37.01,777.382,42.47,778.2,48a8.839,8.839,0,0,1-.23,2.516c-.828,5.238-.633,10.157,2.438,14.29-2.549,8.313-2.49,17-2.433,25.7.021,2.848.184,5.44,2.25,7.115a5.978,5.978,0,0,1,1.252,3.207c.441,2.86,1.147,5.727.081,8.716a2.23,2.23,0,0,0-.061.668,7.747,7.747,0,0,1,2.469.1,1.149,1.149,0,0,1,.889.878c.05-.062.111-.105.162-.17,2.643-.162,4.832,1.8,7.267.3.51-.314,1.573.028,2.305.277a21.4,21.4,0,0,0,7.642,1.1,1.192,1.192,0,0,1,1.01-.5H806.4c.875-1.124,2.367-1.407,3.714-1.637.907-.156,1.8-.393,2.7-.573-.026-.387-.055-.774-.082-1.161C812.566,106.4,812.774,103.847,812.165,101.584Z"/><path class="cls-4" d="M776.915,111.821c.143-.08.284-.14.427-.216a2.928,2.928,0,0,0-1.519.2A7.132,7.132,0,0,1,776.915,111.821Z"/><path class="cls-4" d="M566.662,89.3v3.224H543.826V89.3h7.254V64.76c0-4.746-3.583-7.88-8.687-7.88a16.028,16.028,0,0,0-11.463,4.835V89.3h7.254v3.224H515.348V89.3h8.059V34.849l-8.955,4.3L513.2,35.476l17.732-6.358V59.745c4.03-4.746,9.314-8.508,15.224-8.508,8.06,0,12.449,4.568,12.449,12.09V89.3Z"/><path class="cls-4" d="M626.927,93.507c-11.194,0-18.717-7.164-18.717-20.956,0-13.343,8.776-21.314,18.628-21.314,10.209,0,17.1,7.254,17.1,16.658H614.927c-.269,12.269,6.268,19.075,14.06,19.075,5.821,0,11.194-2.777,12.537-9.941h2.329C643.584,87.059,636.867,93.507,626.927,93.507Zm8.508-28.478c0-5.463-2.507-10.478-9.851-10.478-6,0-10.03,4.747-10.477,10.478Z"/><path class="cls-4" d="M701.253,29.118V89.3h8.061v3.224H685.671V89.3h8.06V34.849l-8.956,4.3-1.253-3.672Z"/><path class="cls-4" d="M764.3,29.118V89.3h8.061v3.224H748.713V89.3h8.06V34.849l-8.956,4.3-1.253-3.672Z"/><path class="cls-4" d="M856.264,71.477c0,13.97-10.479,22.03-21.762,22.03-11.374,0-20.329-8.508-20.329-20.418,0-13.971,10.389-21.852,21.672-21.852C847.4,51.237,856.264,59.477,856.264,71.477Zm-8.508,3.671c0-12.537-5.373-21.134-13.612-21.134-6.627,0-11.463,5.731-11.463,15.672,0,12.448,5.552,20.776,13.7,20.776C843.1,90.462,847.756,85.089,847.756,75.148Z"/><path class="cls-4" d="M163.869,89.3v3.224H141.033V89.3h7.254V64.76c0-4.746-3.583-7.88-8.687-7.88a16.028,16.028,0,0,0-11.463,4.835V89.3h7.254v3.224H112.555V89.3h8.059V34.849l-8.955,4.3-1.254-3.672,17.732-6.358V59.745c4.03-4.746,9.314-8.508,15.224-8.508,8.06,0,12.449,4.568,12.449,12.09V89.3Z"/><path class="cls-4" d="M188.314,93.507c-11.194,0-18.717-7.164-18.717-20.956,0-13.343,8.776-21.314,18.628-21.314,10.209,0,17.1,7.254,17.1,16.658H176.314c-.269,12.269,6.268,19.075,14.06,19.075,5.82,0,11.193-2.777,12.537-9.941h2.328C204.971,87.059,198.254,93.507,188.314,93.507Zm8.507-28.478c0-5.463-2.506-10.478-9.85-10.478-6,0-10.03,4.747-10.478,10.478Z"/><path class="cls-4" d="M226.819,29.118V89.3h8.061v3.224H211.237V89.3h8.06V34.849l-8.955,4.3-1.254-3.672Z"/><path class="cls-4" d="M254.041,29.118V89.3H262.1v3.224H238.459V89.3h8.06V34.849l-8.955,4.3-1.254-3.672Z"/><path class="cls-4" d="M310.19,71.477c0,13.97-10.479,22.03-21.762,22.03C277.054,93.507,268.1,85,268.1,73.089c0-13.971,10.388-21.852,21.672-21.852C301.323,51.237,310.19,59.477,310.19,71.477Zm-8.508,3.671c0-12.537-5.373-21.134-13.613-21.134-6.627,0-11.462,5.731-11.462,15.672,0,12.448,5.551,20.776,13.7,20.776C297.024,90.462,301.682,85.089,301.682,75.148Z"/><path class="cls-4" d="M162.086,141.23a40.88,40.88,0,0,0-4.017,11.806l-3.076-.52a55.262,55.262,0,0,1,2.629-9.1,67.294,67.294,0,0,0-5.977,5.184c-.323,1.289-.645,2.43-.943,3.522l-2.976-.744c.917-3.274,2.083-6.722,3.224-11.782l3.175.645a38.869,38.869,0,0,1-1.365,4.861,67.4,67.4,0,0,1,6.474-5.481Z"/><path class="cls-4" d="M173.94,142.966c0,4.514-2.9,9.2-8.011,10-1.091-.471-2.134-.918-3.1-1.389a14.577,14.577,0,0,1-.447-3.5c0-5.135,3.3-9.277,8.434-9.277a11.045,11.045,0,0,1,1.537.124l.621,2.456.868.124A9.721,9.721,0,0,1,173.94,142.966Zm-2.753-.5c0-.273,0-.546-.025-.793-3.646.223-5.581,2.976-5.581,7.093a11.654,11.654,0,0,0,.174,2.034C169.624,150.01,171.187,145.62,171.187,142.47Z"/><path class="cls-4" d="M188.719,141.7c-.966.075-1.934.124-2.9.124a99.353,99.353,0,0,0-3.25,10.467l-2.876-.62c.5-2.083,1.289-5.6,2.678-9.921-1.017-.074-1.885-.149-2.43-.223l.372-1.91c.793.049,1.735.1,2.728.124.595-1.712,1.29-3.522,2.058-5.407l3.349,1.017c-.67,1.488-1.265,2.951-1.835,4.415.793-.05,1.611-.1,2.6-.2Z"/><path class="cls-4" d="M199.979,140.312A37.6,37.6,0,0,0,197.4,148.1l-2.853-.521a37.617,37.617,0,0,1,1.116-3.969c-1.562,1.91-3.2,4.217-4.663,6.251-.223.793-.5,1.612-.744,2.43l-2.976-.744c.918-3.274,2.132-6.97,3.224-12l3.175.695a31.8,31.8,0,0,1-1.464,5.209,57.87,57.87,0,0,1,5.383-6.7Z"/><path class="cls-4" d="M211.461,144.529a44.948,44.948,0,0,0-2.976,8.507l-2.827-.62a27.864,27.864,0,0,1,1.19-4.291,38.741,38.741,0,0,1-4.837,4.539c-.57-.347-1.166-.62-2.183-1.141a11.963,11.963,0,0,1-.2-2.5c0-4.092,3-9.152,9.971-10.368l.695,2.9c-5.457.992-7.565,4.563-7.64,8.209,1.934-1.761,4.762-4.613,6.523-6.448Z"/><path class="cls-4" d="M215.6,149.415a8.925,8.925,0,0,0,.05,1.24,17.461,17.461,0,0,0,5.431-1.885l-.272,2.133a8.837,8.837,0,0,1-5.01,1.935c-1.836,0-3.5-1.091-3.5-3.919,0-4.762,3.646-9.524,8.433-9.524a4.145,4.145,0,0,1,2.7.868l-.67,2.48a4.7,4.7,0,0,0-1.959-.471C217.387,142.272,215.6,146.364,215.6,149.415Z"/><path class="cls-4" d="M232.466,148.82c.073,1.637.2,2.877.421,4.613l-3.4.372a60.173,60.173,0,0,1-.321-6.225,5.878,5.878,0,0,0,4.489-5.953,69.881,69.881,0,0,0-7.292,7.342l-1.092,3.5-2.976-.645c1.413-4.713,4.365-13.815,6.027-19.148l3.15,1.091c-1.464,5.085-2.53,7.615-3.646,10.591,1.935-1.984,3.894-3.844,5.283-5.184l3.4.992A7.161,7.161,0,0,1,232.466,148.82Z"/><path class="cls-4" d="M243.8,140.163a99.805,99.805,0,0,0-3.968,12.154l-2.952-.645a79.029,79.029,0,0,1,3.7-12.352Zm.745-2.306-2.977-.868a51.6,51.6,0,0,1,2.356-5.829l3.051.918C246.4,133.243,245.633,135,244.543,137.857Z"/><path class="cls-4" d="M257.81,141.23a40.851,40.851,0,0,0-4.018,11.806l-3.075-.52a55.262,55.262,0,0,1,2.629-9.1,67.308,67.308,0,0,0-5.978,5.184c-.322,1.289-.645,2.43-.942,3.522l-2.976-.744c.917-3.274,2.083-6.722,3.224-11.782l3.175.645a38.869,38.869,0,0,1-1.365,4.861,67.4,67.4,0,0,1,6.474-5.481Z"/><path class="cls-4" d="M269.862,144.529c-.5,1.091-1.786,6.126-4.266,10.417a6.912,6.912,0,0,1-5.829,3.3,7.039,7.039,0,0,1-3.893-1.091l.3-2.481a6.828,6.828,0,0,0,3.274.72c2.405,0,3.695-2.208,5.68-6.871a34.729,34.729,0,0,1-4.911,4.266c-.571-.347-1.216-.62-2.233-1.141a12.589,12.589,0,0,1-.124-2.753c.174-4.043,2.878-9.8,10.145-10.144l.794,2.927c-5.953.124-7.491,4.34-7.788,8.036a51.9,51.9,0,0,0,6.572-6.4Z"/><path class="cls-4" d="M628.6,141.587l-7.149,12.3-1.575-.575-2.474-.9c.2-2.624.55-5.073.925-7.573l-5.549,9.2-.9-.325-2.9-1.025c.425-3.649.9-8.273,1.125-12.172l3.524.35c-.325,3.024-.875,6.574-1.35,9.823l6.149-10.323,3.374.2c-.3,3.574-.75,6.9-1.1,10.373l5.573-10.673Z"/><path class="cls-4" d="M634.132,141.137a100.469,100.469,0,0,0-4,12.247l-2.975-.649a79.7,79.7,0,0,1,3.725-12.448Zm.75-2.324-3-.875a51.941,51.941,0,0,1,2.375-5.873l3.074.924C636.756,134.164,635.982,135.939,634.882,138.813Z"/><path class="cls-4" d="M643.905,142.687c-.974.075-1.949.125-2.923.125a99.683,99.683,0,0,0-3.275,10.547l-2.9-.624c.5-2.1,1.3-5.649,2.7-10-1.024-.075-1.9-.15-2.449-.225l.375-1.924c.8.049,1.749.1,2.749.124.6-1.724,1.3-3.549,2.074-5.448l3.375,1.024c-.675,1.5-1.275,2.975-1.85,4.449.8-.05,1.624-.1,2.624-.2Z"/><path class="cls-4" d="M656.93,142.212a50.812,50.812,0,0,0-4.3,12.372l-2.975-.7a55.433,55.433,0,0,1,2.7-9.3,73.707,73.707,0,0,0-6.149,5.848c-.325,1.175-.625,2.175-.849,2.924l-3-.749c.925-3.3,4.25-13.322,5.923-19.021l3.175,1.1c-.724,2.774-2.3,7.248-3.974,11.8a61.182,61.182,0,0,1,6.6-5.874Z"/><path class="cls-4" d="M670.955,142.687c-.974.075-1.949.125-2.924.125a99.666,99.666,0,0,0-3.274,10.547l-2.9-.624c.5-2.1,1.3-5.649,2.7-10-1.025-.075-1.9-.15-2.449-.225l.375-1.924c.8.049,1.749.1,2.749.124.6-1.724,1.3-3.549,2.074-5.448l3.375,1.024c-.676,1.5-1.276,2.975-1.85,4.449.8-.05,1.624-.1,2.624-.2Z"/><path class="cls-4" d="M682.3,141.287a37.98,37.98,0,0,0-2.6,7.848l-2.874-.524a37.716,37.716,0,0,1,1.125-4c-1.575,1.924-3.224,4.249-4.7,6.3-.225.8-.5,1.624-.75,2.449l-3-.749c.925-3.3,2.149-7.024,3.249-12.1l3.2.7a32.1,32.1,0,0,1-1.474,5.249,58.275,58.275,0,0,1,5.423-6.748Z"/><path class="cls-4" d="M693.88,145.536a45.311,45.311,0,0,0-3,8.573l-2.849-.625a28.307,28.307,0,0,1,1.2-4.324,39.1,39.1,0,0,1-4.874,4.574c-.575-.35-1.175-.625-2.2-1.149a12.092,12.092,0,0,1-.2-2.525c0-4.124,3.025-9.223,10.048-10.448l.7,2.925c-5.5,1-7.623,4.6-7.7,8.273,1.949-1.775,4.8-4.649,6.573-6.5Z"/><path class="cls-4" d="M698.056,150.46a8.9,8.9,0,0,0,.051,1.25,17.619,17.619,0,0,0,5.473-1.9l-.275,2.15a8.907,8.907,0,0,1-5.049,1.949c-1.85,0-3.524-1.1-3.524-3.949,0-4.8,3.674-9.6,8.5-9.6a4.176,4.176,0,0,1,2.724.875l-.675,2.5a4.729,4.729,0,0,0-1.974-.475C699.856,143.262,698.056,147.385,698.056,150.46Z"/><path class="cls-4" d="M715.054,149.86c.075,1.649.2,2.9.425,4.649l-3.424.375a60.306,60.306,0,0,1-.325-6.273,5.923,5.923,0,0,0,4.524-6,70.352,70.352,0,0,0-7.349,7.4l-1.1,3.524-3-.65c1.425-4.749,4.4-13.921,6.073-19.295l3.175,1.1c-1.476,5.124-2.55,7.673-3.675,10.672,1.95-2,3.924-3.874,5.324-5.224l3.424,1A7.216,7.216,0,0,1,715.054,149.86Z"/><path class="cls-4" d="M726.481,141.137a100.469,100.469,0,0,0-4,12.247l-2.975-.649a79.589,79.589,0,0,1,3.725-12.448Zm.75-2.324-3-.875a51.941,51.941,0,0,1,2.375-5.873l3.074.924C729.105,134.164,728.33,135.939,727.231,138.813Z"/><path class="cls-4" d="M740.6,142.212a41.175,41.175,0,0,0-4.049,11.9l-3.1-.525a55.6,55.6,0,0,1,2.65-9.173,67.933,67.933,0,0,0-6.025,5.224c-.324,1.3-.649,2.45-.949,3.549l-3-.75c.925-3.3,2.1-6.773,3.249-11.872l3.2.65a39.176,39.176,0,0,1-1.375,4.9,67.439,67.439,0,0,1,6.524-5.523Z"/><path class="cls-4" d="M752.753,145.536c-.5,1.1-1.8,6.174-4.3,10.5a6.964,6.964,0,0,1-5.873,3.325,7.09,7.09,0,0,1-3.924-1.1l.3-2.5a6.875,6.875,0,0,0,3.3.726c2.425,0,3.725-2.225,5.724-6.924a34.947,34.947,0,0,1-4.95,4.3c-.574-.35-1.224-.625-2.249-1.15a12.7,12.7,0,0,1-.125-2.774c.175-4.074,2.9-9.872,10.223-10.222l.8,2.949c-6,.125-7.548,4.374-7.848,8.1a52.236,52.236,0,0,0,6.623-6.449Z"/><path class="cls-4" d="M604.671,180.634a36.578,36.578,0,0,0,.625,6.574l-2.35.425a33.674,33.674,0,0,1-1.049-8.2c0-7.423,2.774-14,8.347-17.771l2.425,1.9C606.92,167.113,604.671,173.686,604.671,180.634Z"/><path class="cls-4" d="M624.244,162.639l-.7,2.624a4.446,4.446,0,0,0-2-.449c-1.6,0-2.649,1.2-3.5,4.073-.074.3-.175.576-.25.875,1.075-.025,2.125-.1,3.475-.225l-.5,2.15c-1.15.1-2.325.125-3.45.125h-.149c-1.7,5.6-3.5,11.372-4.624,16.371l-2.9-.6c1.074-5,2.548-10.522,4.023-15.9-.725-.05-1.324-.125-1.749-.175l.375-1.924c.575.024,1.25.074,1.949.1.125-.525.276-1.024.425-1.549.875-3.125,2.75-6.274,6.549-6.274A5.616,5.616,0,0,1,624.244,162.639Z"/><path class="cls-4" d="M626.295,170.137a100.469,100.469,0,0,0-4,12.247l-2.975-.649a79.7,79.7,0,0,1,3.725-12.448Zm.75-2.324-3-.875a51.941,51.941,0,0,1,2.375-5.873l3.074.924C628.919,163.164,628.145,164.939,627.045,167.813Z"/><path class="cls-4" d="M633.271,176.261c.774,1.824,1.649,3.674,2.574,5.423l-2.975,1.4c-.75-1.45-1.425-2.9-2.074-4.324-1.85,1.8-3.425,3.3-4.874,4.5l-1.824-1.774c1.749-1.525,3.7-3.125,5.7-5.024-.925-2.125-1.725-4.2-2.475-6.2l3.225-1c.5,1.45,1.074,3.025,1.725,4.624,1.374-1.574,2.6-3.3,3.824-4.974l2.2,1.6A73.986,73.986,0,0,1,633.271,176.261Z"/><path class="cls-4" d="M641.046,177.91a10.709,10.709,0,0,0-.05,2.5c.824-.05,2.275-.05,5.548-1.675l-.274,2.174a8.475,8.475,0,0,1-4.825,1.75c-2.449,0-3.823-1.424-3.648-4.3a10.054,10.054,0,0,1,7.147-9.348l4.124,1.225a7.749,7.749,0,0,1,.351,2.225c0,2.674-2.024,4.8-5.7,4.8a17.928,17.928,0,0,1-2.525-.225A6.44,6.44,0,0,0,641.046,177.91Zm.774-2.6a6.753,6.753,0,0,0,1.276.125,3.148,3.148,0,0,0,3.3-3.174,4.492,4.492,0,0,0-.2-1.25A9.341,9.341,0,0,0,641.82,175.311Z"/><path class="cls-4" d="M666.166,163.589c-1.7,4.449-5.4,13.171-6.223,19.37l-3.049-.625a49.95,49.95,0,0,1,1.149-5.4,48.34,48.34,0,0,1-5.448,5.648c-.55-.35-1.65-.775-2.675-1.3a15.85,15.85,0,0,1-.175-2.274c0-4.6,2.4-8.8,8.173-10.347l.775,2.949c-3.8,1.149-5.723,3.374-5.8,7.973,1.849-1.8,4.574-4.549,6.249-6.324.974-2.949,2.223-6.273,3.8-10.647Z"/><path class="cls-4" d="M679.818,174.536a45.381,45.381,0,0,0-3,8.573l-2.848-.625a28.165,28.165,0,0,1,1.2-4.324,39.03,39.03,0,0,1-4.874,4.574c-.574-.35-1.175-.625-2.2-1.149a12.025,12.025,0,0,1-.2-2.525c0-4.124,3.024-9.223,10.047-10.448l.7,2.925c-5.5,1-7.623,4.6-7.7,8.273,1.95-1.775,4.8-4.649,6.574-6.5Z"/><path class="cls-4" d="M702.09,171.212a48.89,48.89,0,0,0-4.049,12.2l-3-.525a54.624,54.624,0,0,1,2.5-9.1,67.5,67.5,0,0,0-6.2,5.674c-.175,1.025-.375,1.949-.6,2.949l-3.074-.549c.75-2.95,1.55-5.649,2.624-8.674-2.175,1.825-4.224,3.574-5.974,5.324-.349,1.425-.724,2.649-1.149,4.1l-2.975-.775c1.1-3.6,2.15-7.173,3.374-12.272l3.2.6a37.357,37.357,0,0,1-1.275,4.724c1.85-1.875,4.025-3.674,6.249-5.6l2.774,1.625c-.7,1.8-1.275,3.274-1.874,4.749,1.874-1.95,4.1-3.874,6.573-6.073Z"/><path class="cls-4" d="M714.042,172.962c0,4.548-2.925,9.272-8.073,10.072-1.1-.475-2.15-.925-3.124-1.4a14.643,14.643,0,0,1-.45-3.524c0-5.173,3.324-9.348,8.5-9.348a11.231,11.231,0,0,1,1.549.125l.625,2.475.874.125A9.624,9.624,0,0,1,714.042,172.962Zm-2.774-.5a7.97,7.97,0,0,0-.026-.8c-3.674.225-5.623,3-5.623,7.148a11.747,11.747,0,0,0,.175,2.05C709.692,180.06,711.268,175.636,711.268,172.462Z"/><path class="cls-4" d="M728.767,170.912a62.028,62.028,0,0,0-3.65,12.2l-3.174-.5a37.792,37.792,0,0,1,1.15-5.1,49.168,49.168,0,0,1-5.849,5.5l-1.925-1.075.026-.025-.825-.475c1.15-4.073,2.4-7.9,3.449-12.2l3.175.7c-.776,3.2-1.75,6.424-2.7,9.4,2.3-2.075,4.374-4.249,6.149-6.2q.6-1.536,1.2-3Z"/><path class="cls-4" d="M743.141,171.212a41.175,41.175,0,0,0-4.049,11.9l-3.1-.525a55.692,55.692,0,0,1,2.649-9.173,68.061,68.061,0,0,0-6.024,5.224c-.324,1.3-.649,2.45-.949,3.549l-3-.75c.925-3.3,2.1-6.773,3.249-11.872l3.2.65a39.176,39.176,0,0,1-1.375,4.9,67.439,67.439,0,0,1,6.524-5.523Z"/><path class="cls-4" d="M752.917,171.687c-.975.075-1.949.125-2.924.125a99.666,99.666,0,0,0-3.274,10.547l-2.9-.624c.5-2.1,1.3-5.649,2.7-10-1.025-.075-1.9-.15-2.45-.225l.375-1.924c.8.049,1.749.1,2.749.124.6-1.724,1.3-3.549,2.075-5.448l3.375,1.024c-.675,1.5-1.276,2.975-1.85,4.449.8-.05,1.624-.1,2.624-.2Z"/><path class="cls-4" d="M758.192,161.814a17.286,17.286,0,0,1,2.075,8.273c0,6.3-3.2,12.747-8.248,17.971l-1.75-1.5c4.049-4.774,6.973-10.572,6.973-16.2a14.969,14.969,0,0,0-1.749-7.073Z"/></g></svg>