<svg id="base" xmlns="http://www.w3.org/2000/svg" viewBox="0 0 952 488"><defs><style>.cls-1{fill:#f36;}.cls-2{fill:#ffeded;}.cls-3{fill:#1858a8;}</style></defs><title>abstract-9</title><path class="cls-1" d="M950.666,235.376a25.379,25.379,0,0,0,1.3-5.352c.248-1.642-.766-2.311-2.454-1.835a9.381,9.381,0,0,1-1.745.315c.009-1.571.015-3.082.018-4.55,0-.242-.143-.5-.1-.726.875-5.091-.369-10.234.567-15.346.521-2.847,1.126-5.769.234-8.691a3.1,3.1,0,0,1,.038-1.459c1.035-5.212.263-10.5.847-15.735a7.369,7.369,0,0,0-.233-2.183,16.826,16.826,0,0,1-.085-5.114c.292-2.664.34-5.352.44-8.031.135-3.657.361-7.317.283-10.971a48.762,48.762,0,0,0-.887-7.646,11.979,11.979,0,0,1,.466-7.225c.15-.339.434-.736.349-1.038-.7-2.515,0-5.131-.617-7.606a9.488,9.488,0,0,1-.3-3.962,11.275,11.275,0,0,0-.291-5.084,13.535,13.535,0,0,1-.245-6.915,10.236,10.236,0,0,0-.136-5.8c-.657-1.945.076-3.907.719-5.761a6.22,6.22,0,0,0,.558-3.563,3.7,3.7,0,0,1,.067-1.459,29.7,29.7,0,0,0,.364-5.775c-.021-1.731-.084-3.461,0-5.188.267-5.483-.315-10.966.1-16.446.2-2.555.384-5.116.409-7.674a31.162,31.162,0,0,0-.452-4.737c-.35-2.422-1.125-4.8-.86-7.281.089-.831.23-1.659.349-2.488.052-.357.3-.847.131-1.049-1.075-1.271-.611-2.845-1.122-4.195a25.378,25.378,0,0,1-1.324-13.321c.236-1.455.525-2.907.655-4.369a13.512,13.512,0,0,0-.031-3.639,12.194,12.194,0,0,1,.977-7.891,15.757,15.757,0,0,0,1-3.916,3.681,3.681,0,0,0-.966-3.051,9.943,9.943,0,0,1-2.281-6.675c-3.6.063-7.193.148-10.788-.074-2.843-.176-5.69-.345-8.538-.368a42.572,42.572,0,0,0-5.27.407c-2.695.315-5.343,1.011-8.1.773-.925-.081-1.845-.207-2.767-.314-.4-.047-.943-.272-1.168-.118-1.414.967-3.166.549-4.667,1.009a34.57,34.57,0,0,1-14.822,1.19c-1.618-.212-3.234-.473-4.861-.589a18.614,18.614,0,0,0-4.047.027,16.512,16.512,0,0,1-8.781-.877,20.95,20.95,0,0,0-4.357-.9,4.754,4.754,0,0,0-3.393.868,12.488,12.488,0,0,1-10.438,1.549A3.322,3.322,0,0,0,852.5,4.3a6.831,6.831,0,0,1-4.4.19c-.4-.08-.794-.166-1.19-.242a3.43,3.43,0,0,1-2.059-1.012c-1.08-1.678-2.743-1.806-4.569-1.816-5.575-.032-11.147-.065-16.47,2.024C821.157.949,818,.8,814.646,1.482a4.51,4.51,0,0,1-1.612.192c-3.548-.656-7.047.05-10.562.231a24.882,24.882,0,0,1-6.911-.2,3.71,3.71,0,0,0-3.381,1,11.345,11.345,0,0,0-8.143-1.09c-1.189.263-2.4.456-3.589.71a17.908,17.908,0,0,1-6.473.28,66.136,66.136,0,0,0-6.824-.7,11.849,11.849,0,0,1-3.116-.655,6.927,6.927,0,0,0-5.161-.082,3.967,3.967,0,0,1-2.354.023c-2.515-.331-4.852-.43-7.364.885a9.907,9.907,0,0,1-7.927.213,20.406,20.406,0,0,0-9.559-1.259,12.919,12.919,0,0,1-2.848.1c-4.875-.664-9.771-.293-14.653-.26-3.22.022-6.485-.468-9.68.574a6.866,6.866,0,0,1-3.21-.155c-5.1-1.028-10.272-.674-15.421-.862-5.866-.214-11.681.368-17.519.508-2.578.062-5.145.192-7.718.3-1.215.048-2.44-.083-3.66-.137L646.468.627a3.6,3.6,0,0,0-.295,2.878c-.2.119-.41.348-.607.34-1.88-.069-3.729-.515-5.6.409-.99.489-1.234.213-2.917-1.348.742-1.421,2.678-.681,4.116-1.645A18.746,18.746,0,0,0,633.5.886,12.549,12.549,0,0,1,628.633.9,47.058,47.058,0,0,0,617.675.2c-3.787.166-7.6-.068-11.4-.166a20.073,20.073,0,0,0-6.837.705,9.255,9.255,0,0,1-3.2.077c-2.521-.136-5.041-1.277-7.566.126-.329.183-1.015-.213-1.543-.246a5.254,5.254,0,0,0-1.949.06,7.861,7.861,0,0,1-5.523.234,2.869,2.869,0,0,0-2.223.474,3.663,3.663,0,0,1-4.153.351,4.574,4.574,0,0,0-3.539-.246c-2.047.687-3.955.252-5.953-.371A33.953,33.953,0,0,0,557.843.033c-1.827-.223-2.572.689-2.041,2.206a7.044,7.044,0,0,1,.35,1.569c-1.749-.008-3.43-.015-5.062-.017a6.438,6.438,0,0,1-.808.093c-5.665-.787-11.386.331-17.074-.51-3.168-.468-6.419-1.012-9.671-.21a4.249,4.249,0,0,1-1.622-.034c-5.8-.93-11.685-.237-17.507-.762a10.165,10.165,0,0,0-2.43.209,23.081,23.081,0,0,1-5.689.077c-2.964-.262-5.954-.306-8.935-.395-4.068-.122-8.141-.325-12.206-.255a66.536,66.536,0,0,0-8.508.8,16.33,16.33,0,0,1-8.038-.42c-.378-.134-.82-.389-1.155-.313-2.8.633-5.709,0-8.462.555a13.011,13.011,0,0,1-4.409.267,15.436,15.436,0,0,0-5.656.262,18.521,18.521,0,0,1-7.694.22,13.988,13.988,0,0,0-6.459.122c-2.163.591-4.346-.068-6.409-.646a8.414,8.414,0,0,0-3.964-.5,5.058,5.058,0,0,1-1.624-.061c-4.052-.6-8.135-.167-12.2-.327-6.1-.241-12.2.282-18.3-.095-2.842-.176-5.691-.345-8.538-.368a42.572,42.572,0,0,0-5.27.407c-2.695.315-5.343,1.011-8.1.773-.925-.081-1.845-.207-2.768-.314-.4-.047-.942-.272-1.167-.118-1.414.967-3.166.549-4.667,1.009a34.57,34.57,0,0,1-14.822,1.19c-1.618-.212-3.233-.473-4.861-.589a18.614,18.614,0,0,0-4.047.027,16.507,16.507,0,0,1-8.78-.877,20.959,20.959,0,0,0-4.358-.9,4.758,4.758,0,0,0-3.394.868,12.487,12.487,0,0,1-10.438,1.549,3.318,3.318,0,0,0-1.908-.226c-1.913.872-3.753.3-5.589-.052a3.43,3.43,0,0,1-2.059-1.012c-1.08-1.678-2.743-1.806-4.569-1.816-5.575-.032-11.147-.065-16.471,2.024C267.809.949,264.654.8,261.3,1.482a4.51,4.51,0,0,1-1.612.192c-3.547-.656-7.046.05-10.562.231a24.88,24.88,0,0,1-6.911-.2,3.712,3.712,0,0,0-3.382,1,11.342,11.342,0,0,0-8.142-1.09c-1.189.263-2.4.456-3.589.71a17.908,17.908,0,0,1-6.473.28,66.108,66.108,0,0,0-6.824-.7,11.857,11.857,0,0,1-3.116-.655,6.927,6.927,0,0,0-5.161-.082,3.968,3.968,0,0,1-2.354.023c-2.515-.331-4.852-.43-7.364.885a9.907,9.907,0,0,1-7.927.213,20.408,20.408,0,0,0-9.56-1.259,12.906,12.906,0,0,1-2.847.1C170.6.46,165.7.831,160.821.864c-3.22.022-6.484-.468-9.68.574a6.866,6.866,0,0,1-3.21-.155C142.834.255,137.659.609,132.51.421c-5.866-.214-11.681.368-17.519.508-2.578.062-5.145.192-7.718.3-1.215.048-2.44-.083-3.66-.137l-.519-.023C99.751.92,96.408.772,93.12.627a3.6,3.6,0,0,0-.3,2.878c-.2.119-.41.348-.607.34-1.88-.069-3.73-.515-5.6.409-.99.489-1.234.213-2.917-1.348.743-1.421,2.678-.681,4.116-1.645A18.746,18.746,0,0,0,80.147.886,12.554,12.554,0,0,1,75.284.9,47.041,47.041,0,0,0,64.328.2c-3.788.166-7.6-.068-11.4-.166A20.078,20.078,0,0,0,46.094.74,9.251,9.251,0,0,1,42.9.817C40.377.681,37.857-.46,35.332.943,35,1.126,34.317.73,33.789.7a5.254,5.254,0,0,0-1.949.06,7.861,7.861,0,0,1-5.523.234,2.869,2.869,0,0,0-2.223.474,3.663,3.663,0,0,1-4.153.351A4.573,4.573,0,0,0,16.4,1.57c-2.047.687-3.956.252-5.953-.371A33.964,33.964,0,0,0,4.494.033a3.236,3.236,0,0,0-.922.03,4.376,4.376,0,0,0,.766,1.586,2.5,2.5,0,0,1,.553,1.72c-.45,2.9-.972,5.8-1.6,8.672a2.68,2.68,0,0,1-1.241,1.818c-2.123.786-1.763,2.383-1.529,3.71a70.561,70.561,0,0,0,1.923,7.5,8.094,8.094,0,0,0,1.17,1.913c1.47,2.248,2.91,4.5,1.337,7.2.267,2-.791,3.805-1.045,5.7a42.223,42.223,0,0,0,.024,6.94c.063,1.954.14,3.912.359,5.856a5.338,5.338,0,0,1-.585,3.544C2.76,57.822,3.4,59.6,3.226,61.273S2.014,64.548,1.948,66.2a61.5,61.5,0,0,0,.577,6.926c.09,1.211-.124,2.451.066,3.642.031.074.045.156.081.228A3.362,3.362,0,0,1,2.9,79.469,7.127,7.127,0,0,0,3.584,81.8a8.389,8.389,0,0,1,.573,3.24c.083,1.2.081,2.414.083,3.622l.265.27c-.093.28-.16.492-.242.739,0,.042,0,.085,0,.128-.011,1.135-.048,2.27-.069,3.4-.036,2.033-.064,4.065-.124,6.1a2.382,2.382,0,0,1-.4,1.386c-2.078,2.564-1.36,5.337-.652,8.022a20.509,20.509,0,0,1,.248,10.873,2.825,2.825,0,0,1-1.183,1.778c-2.444,1.074-2.3,2.957-1.766,4.71.753,2.452,1.77,4.823,1.682,7.431-.015.452.354.912.535,1.373a13.368,13.368,0,0,1-.054,11.061,9.747,9.747,0,0,0-.528,7.845,14.386,14.386,0,0,1,.588,9.353c-.214.7-.209,1.463-.409,2.173a11.775,11.775,0,0,0,.757,8.276,5.661,5.661,0,0,1-.6,5.911c-.407.635-.812,1.273-1.167,1.932-.967,1.793-1.493,3.553-.654,5.61a7.754,7.754,0,0,1,.418,4.71,6.335,6.335,0,0,0,.649,4.3c.31.643.734,1.529.474,2.054-.889,1.8-.2,3.381.521,4.954,1.2,2.624,1.308,5.4,1.632,8.158.042.361-.124.752-.034,1.1.854,3.256.351,6.581.619,9.868.2,2.5.162,5.007.181,7.515-.391.553-.394,1.666-.344,3.668.009.365.09.729.11,1.095.07,1.33.065,1.33-1.24,3.1,2.615,3,2.877,6.593,2.718,10.3a18.814,18.814,0,0,0,.269,4.006,7.745,7.745,0,0,1-.618,5.377A3.276,3.276,0,0,0,5.3,258.6c-.036,1.186.524,2.587,0,3.508a13.808,13.808,0,0,0-1.3,3.4,7.918,7.918,0,0,0,.707,6.432,5.829,5.829,0,0,1,.2,6c-.767,1.5-.468,2.775-.126,4.242a18.758,18.758,0,0,1,.452,5.085c-.08,1.7-.63,3.361.315,5.039.253.448.007,1.194-.181,1.756-.392,1.168-.918,2.3-1.352,3.455-1.072,2.855-2.449,5.614-1.511,8.818a12.3,12.3,0,0,1,.106,4.734,11.912,11.912,0,0,0,.824,6.126c.188.445.447,1.09.235,1.407-1.011,1.516.4,2.824.337,4.444-2.375,1.659-2.077,4.5-3.191,6.819a2.457,2.457,0,0,0,1.066,2.974c2.125,1.535,2.144,3.613,1.939,5.691a10.594,10.594,0,0,0,.556,5.387,5.784,5.784,0,0,1-.018,4.661c-.452,1.055-.167,2.395-.081,3.6.148,2.071.315,4.147.634,6.2.223,1.436-.008,2.937.838,4.305.714,1.154.218,2.395.012,3.6-.309,1.806-.845,3.59.092,5.416.235.457-.036,1.184-.223,1.748-1.351,4.072-1.133,8.2-.567,12.336.214,1.56.757,3.083,1,4.642.013.081,0,.17,0,.254a4.125,4.125,0,0,1-.268,1.861c-.671,1.646-1.289,3.223-.057,4.9a2.4,2.4,0,0,1,.2,1.424c-.07,2.194-.179,4.386-.274,6.578a3.633,3.633,0,0,0-.03,1.1A9.014,9.014,0,0,1,5.71,411.9c-.536,1.715-.28,3.628-.391,5.453a18.731,18.731,0,0,1-.994,6.119,3.553,3.553,0,0,0-.12,1.817c.423,2.751-.327,5.335-1.341,8.041a16.283,16.283,0,0,1,1.27,2.162c.372.905.93,1.95.73,2.806-.529,2.265.633,4.652-.753,6.849a2.557,2.557,0,0,0,.059,1.778,33.232,33.232,0,0,1,.4,12.744,24.6,24.6,0,0,0,.451,9.777,15.836,15.836,0,0,1,.145,6.177,21.481,21.481,0,0,0-.068,6.941,10.682,10.682,0,0,1,.137,1.3c.709.058,1.677.041,2.967.014.407-.008.812-.08,1.219-.1,1.48-.063,1.48-.059,3.447,1.115,3.333-2.351,7.336-2.586,11.459-2.444a25.846,25.846,0,0,0,4.458-.241,10.483,10.483,0,0,1,5.981.555,4.181,4.181,0,0,0,1.525.481c1.319.032,2.879-.471,3.9,0a17.764,17.764,0,0,0,3.783,1.172,10.668,10.668,0,0,0,7.156-.635,7.825,7.825,0,0,1,6.674-.18,7.651,7.651,0,0,0,4.721.114,25.673,25.673,0,0,1,5.656-.407c1.893.072,3.74.566,5.607-.283a3.4,3.4,0,0,1,1.954.163c1.3.352,2.557.825,3.844,1.215,3.176.963,6.246,2.2,9.812,1.358a16.862,16.862,0,0,1,5.265-.1,16.177,16.177,0,0,0,6.817-.741c.494-.168,1.212-.4,1.565-.211,1.358.732,2.568.058,3.929-.2a4.588,4.588,0,0,1,1.015-.1c1.846,2.135,5,1.867,7.587,2.868a3.08,3.08,0,0,0,3.309-.958c1.709-1.91,4.019-1.927,6.332-1.742a14.427,14.427,0,0,0,5.993-.5,7.854,7.854,0,0,1,5.186.017,11.066,11.066,0,0,0,4,.072c2.305-.132,4.614-.282,6.9-.569,1.6-.2,3.268.007,4.789-.753,1.285-.643,2.666-.2,4-.011,2.009.278,3.994.759,6.025-.083a3.561,3.561,0,0,1,1.946.2c4.531,1.214,9.128,1.019,13.725.51,1.736-.192,3.43-.68,5.164-.9a5.564,5.564,0,0,1,2.353.239c1.832.6,3.587,1.159,5.452.051a3.246,3.246,0,0,1,1.584-.18c2.44.062,4.879.16,7.319.246a5.02,5.02,0,0,0,1.221.027,12.308,12.308,0,0,1,5.968-.074c1.908.482,4.036.252,6.065.351a25.414,25.414,0,0,1,6.808.893,4.816,4.816,0,0,0,2.023.108,21.361,21.361,0,0,1,8.946,1.206,19.581,19.581,0,0,1,2.4-1.142,6.99,6.99,0,0,1,3.124-.656c2.519.476,5.175-.569,7.62.677a3.477,3.477,0,0,0,1.978-.053A45.613,45.613,0,0,1,260,483.9a33.751,33.751,0,0,0,10.879-.4,21.751,21.751,0,0,1,6.871-.131,29.512,29.512,0,0,0,7.723.062,15.786,15.786,0,0,1,7.232.663,7.909,7.909,0,0,0,3.945.526,5.384,5.384,0,0,1,2.023.107,6.445,6.445,0,0,0,5.081-.616,3.242,3.242,0,0,1,1.913-.5c3.228.4,6.45.874,9.648,1.437a3.066,3.066,0,0,1,2.024,1.116c.873,1.908,2.651,1.584,4.126,1.374,2.815-.4,5.587-1.075,8.349-1.729a9.549,9.549,0,0,0,2.128-1.051c2.5-1.322,5-2.616,8.012-1.2,2.226-.24,4.234.711,6.345.94a58.357,58.357,0,0,0,7.721-.022c2.174-.057,4.353-.126,6.515-.323a7.176,7.176,0,0,1,3.943.526c1.774.849,3.747.274,5.615.431,1.852.154,3.642,1.088,5.48,1.148,2.559.083,5.134-.364,7.706-.518,1.352-.081,2.735.113,4.065-.059,1.863-.242,3.774-.136,5.587-.893a11.3,11.3,0,0,1,3.605-.515c1.761-.1,3.53-.114,5.3-.1q5.286.045,10.571.174a3.141,3.141,0,0,1,1.542.355c2.853,1.868,5.938,1.222,8.925.586a28.079,28.079,0,0,1,12.1-.222,3.248,3.248,0,0,1,1.978,1.063c1.195,2.2,3.289,2.071,5.24,1.587,2.728-.677,5.367-1.591,8.267-1.512a5.2,5.2,0,0,0,1.528-.48,18.122,18.122,0,0,1,12.308.048,13.189,13.189,0,0,0,8.728.474,19.576,19.576,0,0,1,10.406-.528c.784.193,1.627.188,2.417.367a15.973,15.973,0,0,0,9.208-.68,7.562,7.562,0,0,1,6.578.538c.706.367,1.416.73,2.149,1.05a8.281,8.281,0,0,0,6.241.587,10.54,10.54,0,0,1,5.24-.375,8.549,8.549,0,0,0,4.78-.583,3.831,3.831,0,0,1,2.285-.427c2,.8,3.762.177,5.511-.468,2.921-1.076,6.014-1.176,9.078-1.467a11.4,11.4,0,0,0,1.219.03c3.624-.767,7.323-.314,10.98-.556,2.776-.182,5.57-.145,8.361-.163.615.352,1.853.355,4.08.309.407-.008.812-.08,1.219-.1,1.479-.063,1.48-.059,3.447,1.115,3.333-2.351,7.335-2.586,11.46-2.444a25.828,25.828,0,0,0,4.456-.241,10.486,10.486,0,0,1,5.982.555,4.181,4.181,0,0,0,1.525.481c1.32.032,2.879-.471,3.9,0a17.756,17.756,0,0,0,3.782,1.172,10.67,10.67,0,0,0,7.157-.635,7.825,7.825,0,0,1,6.674-.18,7.648,7.648,0,0,0,4.72.114,25.691,25.691,0,0,1,5.658-.407c1.892.072,3.739.566,5.606-.283a3.4,3.4,0,0,1,1.954.163c1.3.352,2.557.825,3.844,1.215,3.176.963,6.246,2.2,9.811,1.358a16.875,16.875,0,0,1,5.267-.1,16.174,16.174,0,0,0,6.816-.741c.5-.168,1.212-.4,1.565-.211,1.687.909,3.141-.363,4.945-.3,1.846,2.135,5,1.867,7.586,2.868a3.082,3.082,0,0,0,3.31-.958c1.708-1.91,4.019-1.927,6.331-1.742a14.426,14.426,0,0,0,5.993-.5,7.854,7.854,0,0,1,5.186.017,11.066,11.066,0,0,0,4,.072c2.3-.132,4.614-.282,6.9-.569,1.6-.2,3.268.007,4.789-.753,1.284-.643,2.666-.2,4-.011,2.009.278,3.994.759,6.025-.083a3.562,3.562,0,0,1,1.946.2c4.531,1.214,9.128,1.019,13.725.51,1.736-.192,3.43-.68,5.164-.9a5.571,5.571,0,0,1,2.354.239c1.831.6,3.586,1.159,5.451.051a3.246,3.246,0,0,1,1.584-.18c2.44.062,4.879.16,7.319.246a5.02,5.02,0,0,0,1.221.027,12.3,12.3,0,0,1,5.967-.074c1.908.482,4.036.252,6.067.351a25.425,25.425,0,0,1,6.808.893,4.809,4.809,0,0,0,2.022.108,21.361,21.361,0,0,1,8.946,1.206,19.527,19.527,0,0,1,2.4-1.142,6.982,6.982,0,0,1,3.122-.656c2.52.476,5.176-.569,7.621.677a3.477,3.477,0,0,0,1.978-.053,45.613,45.613,0,0,1,14.179-.357,33.744,33.744,0,0,0,10.878-.4,21.758,21.758,0,0,1,6.872-.131,29.512,29.512,0,0,0,7.723.062,15.787,15.787,0,0,1,7.232.663,10.941,10.941,0,0,0,2.619.58A5.414,5.414,0,0,0,850,484.61a5.394,5.394,0,0,1,2.025.107,6.441,6.441,0,0,0,5.079-.616,3.247,3.247,0,0,1,1.914-.5c3.228.4,6.45.874,9.648,1.437a3.063,3.063,0,0,1,2.024,1.116c.873,1.908,2.651,1.584,4.127,1.374,2.814-.4,5.586-1.075,8.347-1.729a9.535,9.535,0,0,0,2.129-1.051c2.5-1.322,5-2.616,8.012-1.2,2.226-.24,4.234.711,6.344.94a58.371,58.371,0,0,0,7.722-.022c2.174-.057,4.353-.126,6.515-.323a7.176,7.176,0,0,1,3.943.526c1.774.849,3.747.274,5.615.431,1.852.154,3.642,1.088,5.48,1.148,2.558.083,5.134-.364,7.707-.518,1.351-.081,2.734.113,4.064-.059,1.863-.242,3.774-.136,5.588-.893a11.286,11.286,0,0,1,3.6-.515c.174-.01.35,0,.524-.01,0-.125.017-.244.018-.372.035-5.011.072-10.019-2.252-14.8,2.772-2.389,2.937-5.225,2.179-8.241a3.339,3.339,0,0,1-.214-1.45c.731-3.188-.056-6.333-.257-9.493a18.131,18.131,0,0,1,.225-6.211,2.938,2.938,0,0,0-1.111-3.039,8.5,8.5,0,0,0,1.212-7.319c-.292-1.068-.506-2.155-.789-3.225a13.077,13.077,0,0,1-.312-5.819,48.682,48.682,0,0,0,.777-6.133,8.908,8.908,0,0,1,.729-2.8c.577-1.5.992-3.082.09-4.639a2.917,2.917,0,0,1-.025-2.115c.369-2.261.478-4.361-.985-6.62a7.356,7.356,0,0,1-.237-7.124,14.942,14.942,0,0,0,.941-2.531,15.589,15.589,0,0,0,.46-6.061,9.387,9.387,0,0,1-.106-2.559c.739-4.382.327-8.783.29-13.171-.025-2.893.52-5.828-.639-8.7a5.032,5.032,0,0,1,.173-2.886c1.143-4.581.749-9.233.958-13.86.238-5.273-.408-10.5-.565-15.746-.069-2.317-.213-4.625-.33-6.937a32.118,32.118,0,0,1,.152-3.29c.171-3.161.345-6.322.514-9.43a4.857,4.857,0,0,0-3.2-.266c-.133-.181-.387-.368-.379-.545.077-1.69.573-3.352-.454-5.03-.545-.889-.238-1.109,1.5-2.622,1.582.668.758,2.407,1.831,3.7a13.707,13.707,0,0,0,.417-6.9,9.15,9.15,0,0,1-.013-4.37,34.37,34.37,0,0,0,.776-9.848c-.185-3.4.075-6.829.184-10.243a14.78,14.78,0,0,0-.784-6.145,6.755,6.755,0,0,1-.086-2.872c.151-2.266,1.421-4.531-.141-6.8-.2-.3.238-.912.275-1.387a3.833,3.833,0,0,0-.068-1.751,5.82,5.82,0,0,1-.26-4.965,2.189,2.189,0,0,0-.527-2,2.8,2.8,0,0,1-.391-3.732,3.4,3.4,0,0,0,.274-3.181C949.489,238.886,949.973,237.171,950.666,235.376Z"/><path class="cls-2" d="M889.325,434.377a22.422,22.422,0,0,0-1.056-2.977,8.32,8.32,0,0,1-4.454-.812c-5.669-3.379-12.074-3.32-18.365-3.27a18.686,18.686,0,0,0-3.925.539l-.074.017a14.023,14.023,0,0,1,.85-5.991c1.711-4.585.252-9.463,1.265-14.126a7.076,7.076,0,0,1,.118-7.138,2.53,2.53,0,0,0-.235-1.946c-1.231-2.641-.547-5.283-.46-8,.2-6.147,3.01-12.437-.663-18.475-.2-.324.042-.885.067-1.335.377-6.787-1.016-13.52-.2-20.37.642-5.356.034-10.845.057-16.274a11.493,11.493,0,0,1,.556-3.352,20.246,20.246,0,0,0-.619-14.686c1.158-1.587,2.212-3.033,2.976-4.079-.472-2.736-1.273-4.961-1.152-7.14.349-6.318,1.092-12.615,1.631-18.924.215-2.523.042-4.955-1.674-7.135a5.265,5.265,0,0,1-1.154-3.075c.055-3.612.424-7.219.56-10.832.059-1.568.293-3.345-.348-4.677a7.352,7.352,0,0,1-.561-1.675,13.647,13.647,0,0,1,.363-5.678,35.772,35.772,0,0,0,.149-11.523c-.386-3.389-.735-6.786-.966-10.187-.105-1.563-.37-3.366.287-4.671.071-.141.118-.278.178-.418.887-2.094.454-3.944.079-6.088a119.765,119.765,0,0,1-.981-12.166c2.534-3.543,1.449-7.431,1.232-11.256a11.3,11.3,0,0,1,.272-4.714c2.228-5.521,1.811-11.017.472-16.592-1.271-5.291,1.193-10.844-1.2-16.09a2.493,2.493,0,0,1,.485-1.928c2.108-3.232,1.341-6.7.55-9.95-1.412-5.807-.384-11.728-1.357-17.531a2.91,2.91,0,0,1,.4-1.974c2.18-3.15,1.42-6.551,1.11-9.935-.373-4.064-1.128-8.141.277-12.172,1.276-3.659,2.725-7.3.5-11.131-.3-.518-.051-1.338-.028-2.018.131-3.839.06-7.7.465-11.511.4-3.75-1.536-7.6.577-11.267.174-.3-.06-.911-.261-1.3-1.442-2.835-.981-5.7-.514-8.672.231-1.466.065-3.558-.873-4.514-2.646-2.695-1.776-5.5-.943-8.3A33.005,33.005,0,0,0,863.9,34.8c-.267.029-.532.049-.8.084a7.714,7.714,0,0,1-4.73-.759c-5.3-3.378-11.29-3.32-17.172-3.27-3.244.027-6.468,1.635-9.717,1.695-3.474.064-6.953-1.08-10.457-1.3a145.7,145.7,0,0,0-24.081.78,32.921,32.921,0,0,1-9.93-.158,25.05,25.05,0,0,0-9.784.362,93.924,93.924,0,0,1-16.312,1.442,41.116,41.116,0,0,0-7.673.771c-6.894,1.4-13.739,1.469-19.9-2.566-1.943-1.272-3.748-2.737-5.793-4.243a21.012,21.012,0,0,0-12.075,2.709,20.826,20.826,0,0,1-15.727,2.606c-5.383-1.236-10.842-.8-16.307-.253-3.483.347-7.052,1.469-10.51-.3a1.755,1.755,0,0,0-1.337.01c-5.018,2.378-9.06.222-13.046-2.442-1.323-.883-2.789-1.572-4.022-2.256-5.85,2.753-13.259,4.857-17.892,5.178a13.378,13.378,0,0,1-6.177-.93,34.733,34.733,0,0,0-10.627-2.809,32.272,32.272,0,0,0-8.679.766c-4.587.905-9.178,1.894-13.82,2.425-8.03.919-16.1,1.5-24.154,2.245-2.188.2-4.268.221-5.914-1.532-1.854-1.975-4.258-1.752-6.636-1.3a32.148,32.148,0,0,0-3.386,1.032,17.555,17.555,0,0,1-11.181.133c-4.8-1.634-9.9-.241-14.783-1.208a8.023,8.023,0,0,1-7.472-.113,2.874,2.874,0,0,0-2.037.225c-2.763,1.176-5.529.522-8.378.439-6.433-.189-13.016-2.876-19.336.633-.339.188-.925-.04-1.4-.064-7.1-.36-14.151.972-21.32.187-5.6-.613-11.35-.031-17.032-.053a13.121,13.121,0,0,1-3.508-.532,23.065,23.065,0,0,0-15.371.592l-4.269-2.844c-2.863.451-5.193,1.216-7.473,1.1-6.612-.334-13.2-1.044-19.806-1.558-2.641-.206-5.186-.041-7.468,1.6a5.83,5.83,0,0,1-3.217,1.1c-3.781-.053-7.556-.406-11.338-.536-1.641-.056-3.5-.28-4.895.333-2.641,1.16-5.215.662-7.7.189a40.947,40.947,0,0,0-12.06-.142c-3.547.368-7.1.7-10.661.922-1.636.1-3.524.354-4.889-.274a7.251,7.251,0,0,0-2.864-.664,20.719,20.719,0,0,0-3.945.419c-4.183.669-8.483.661-12.734.938-3.708-2.422-7.777-1.386-11.78-1.178a12.936,12.936,0,0,1-4.934-.259c-5.778-2.13-11.53-1.731-17.366-.452-5.537,1.215-11.349-1.139-16.84,1.144a2.8,2.8,0,0,1-2.017-.462c-3.383-2.014-7.011-1.281-10.415-.526-6.077,1.349-12.274.367-18.347,1.3a3.294,3.294,0,0,1-2.066-.386c-3.3-2.084-6.857-1.358-10.4-1.061-4.254.356-8.521,1.078-12.739-.264-3.83-1.219-7.635-2.6-11.65-.476-.543.287-1.4.048-2.112.026-4.019-.125-8.058-.057-12.048-.444-3.925-.382-7.951,1.468-11.793-.551-.316-.166-.953.057-1.365.249-2.968,1.378-5.968.937-9.076.491-1.535-.221-3.724-.062-4.724.835-2.822,2.528-5.754,1.7-8.688.9a38.966,38.966,0,0,0-14.805-.916c-8.5.957-17.044,1.651-25.58,2.319-1.83.143-4.008.217-5.5-.576a14.254,14.254,0,0,0-6.51-1.337q-.095.868-.172,1.738a43.324,43.324,0,0,0-.188,5.083c-2.8,4.123-1.6,8.189,0,12.35.56,1.449.438,3.141.617,4.722.511,4.506.895,8.978,2.4,13.384,1.066,3.115,1.979,6.774-.5,9.84-2.189,2.71-2.139,5.353-.723,8.287a11.777,11.777,0,0,1,.8,3.3c1.407,9.021.455,18.094.612,27.143a59.772,59.772,0,0,0-.054,6.1,53.424,53.424,0,0,1-1.225,18.246,31.215,31.215,0,0,0-.458,8.789c.447,7.685,2.563,15.289,1.28,23.065a3.246,3.246,0,0,0,.29,1.987c1.8,3.206.378,6.169-.569,9.2-.531,1.705-1.32,3.482-1.235,5.192.272,5.433.875,10.813.243,16.3-.358,3.1.371,6.215-1.271,9.288-.778,1.456-.447,3.56-.292,5.344.161,1.838.346,3.674.522,5.511q.68,7.092,1.431,14.178a19.727,19.727,0,0,1-.792,9.408,12.426,12.426,0,0,0-.589,5.029c.006.1,0,.214.012.318.528,7.456,1.694,14.845.94,22.4-.326,3.258,1.476,6.663,1.564,10.019.094,3.592-.846,7.2-1.066,10.812-.411,6.774-.171,13.6-1.507,20.3a18.591,18.591,0,0,0,.646,10.085,13.927,13.927,0,0,1,.586,6.633c-.381,3.351-1.154,7.039-.13,10.083,2.494,7.415-.472,14.925,1.238,22.259a3.1,3.1,0,0,1-.624,1.916c-1.793,3.044-1.308,6.074-.28,9.223a11.126,11.126,0,0,1,.478,4.6c-.9,7.848-2.107,15.679.249,23.5a4.349,4.349,0,0,1,.033,2.03c-1.282,6.454.039,12.927-.161,19.427l-.028,0c-5.445.468-10.9.884-16.348,1.283-1.957.143-4.287.217-5.887-.576a12.867,12.867,0,0,0-4.741-1.213c-.013.226-.022.451-.04.677-.475,6.031-1.34,12.216.141,18.311a11,11,0,0,1-.164,2.7c-.041,1.756-.188,3.524-.2,5.28a44.814,44.814,0,0,0,8.584-.727,15.273,15.273,0,0,1,3.027.146,77.509,77.509,0,0,0,9.09.069q3.174-.318,6.341-.535c-.022.557-.05,1.114-.055,1.669a39.321,39.321,0,0,0,8.026-.727,13.308,13.308,0,0,1,2.831.146,67.782,67.782,0,0,0,8.5.069,100.408,100.408,0,0,1,19.272-.57c1.141-.148,2.231-.268,3.284-.361,6.506-.574,11.626-.1,19.028,1.456a19.469,19.469,0,0,0,4.94.294c5.17-.262,10.4-1.6,15.351,1.061a1.624,1.624,0,0,0,.705.061c5.443.006,10.865-1.285,16.324-.236,5.561-1.711,11.251-.635,16.854-.478,3.617.1,7.064.142,10.511-1.015,4.095-1.375,8.306-1.393,12.642-1.2,5.305.24,10.837,1.8,15.9-1.31a4.031,4.031,0,0,1,2.065-.325c3.077.067,6.476-.554,9.141.5,3.088,1.22,6.174.057,8.909,1,6.211,2.153,12.514,1.2,18.28-.285,6.03-1.549,11.669-1.062,17.525-.487a10.092,10.092,0,0,0,2.822.234c4.26-.864,7.907.537,11.181,2.772,1.4-.452,2.527-.793,3.636-1.178a17.422,17.422,0,0,1,8.1-1.09,12.889,12.889,0,0,1,2.313.516c2.567.842,5.151.482,7.745-.056,1.583-.329,3.309-.844,4.817-.551,7.138,1.384,14.221.629,21.29-.23,7.652-.93,15.109,1.238,22.7,1.037,4.314,2.672,8.57,1.533,12.925,0a21.923,21.923,0,0,1,4.942-.59c4.716-.488,9.4-.855,14.008-2.3,3.26-1.019,7.09-1.891,10.3.476,2.836,2.092,5.6,2.043,8.673.691a13.254,13.254,0,0,1,3.456-.764c9.441-1.345,18.938-.435,28.408-.584,2.129-.034,4.288.284,6.386.051a61.12,61.12,0,0,1,19.1,1.17,35.683,35.683,0,0,0,9.2.437c8.044-.427,16-2.448,24.141-1.223a3.685,3.685,0,0,0,2.08-.276c3.355-1.72,6.456-.361,9.63.543,1.785.508,3.645,1.262,5.435,1.181,5.686-.26,11.316-.836,17.057-.232,3.247.341,6.5-.355,9.721,1.214,1.524.742,3.725.427,5.593.278,6.876-.547,13.742-1.2,20.607-1.865a22.5,22.5,0,0,1,9.846.756,14.647,14.647,0,0,0,5.6.552c.9-.058,1.794-.126,2.69-.2,6.895-.543,13.757-1.34,20.758-.7,3.41.31,6.973-1.411,10.486-1.5,3.76-.089,7.533.808,11.316,1.018,7.089.394,14.23.164,21.244,1.44a21.228,21.228,0,0,0,10.555-.617,15.885,15.885,0,0,1,6.942-.559c3.507.363,7.368,1.1,10.554.124,7.76-2.384,15.62.451,23.3-1.184a3.46,3.46,0,0,1,2,.6c3.186,1.713,6.358,1.25,9.653.267a12.7,12.7,0,0,1,4.817-.456c8.215.86,16.411,2.013,24.594-.238A4.988,4.988,0,0,1,786,452.7c7.308,1.325,14.639-.271,22,.223,6.312.424,12.785,1.2,19.164-.125a13.374,13.374,0,0,1,2.831.146,67.782,67.782,0,0,0,8.5.069c7.559-.81,15.083-1.272,22.627-.2q-.276-2.914-.567-5.826.279,2.749.535,5.5c.492-.02.983-.048,1.472-.1,8.084-.809,16.13-1.272,24.2-.2-.2-1.943-.395-3.885-.606-5.826-.226-2.091-.246-4.078,1.715-5.65C890.083,438.946,889.833,436.648,889.325,434.377Z"/><path class="cls-3" d="M150.916,195.511a8.676,8.676,0,0,0,1.408,6.281,4.763,4.763,0,0,1,.971,2.707c-.047,3.18-.357,6.355-.471,9.535-.05,1.381-.247,2.945.292,4.118a6.6,6.6,0,0,1,.472,1.474,12.553,12.553,0,0,1-.305,5,32.9,32.9,0,0,0-.125,10.143c.324,2.984.618,5.974.812,8.968.089,1.376.311,2.963-.241,4.111-.06.125-.1.246-.15.369-.746,1.843-.382,3.472-.066,5.359.588,3.518.582,7.135.825,10.71-2.132,3.119-1.219,6.542-1.036,9.909a10.423,10.423,0,0,1-.229,4.149c-1.874,4.861-1.524,9.7-.4,14.607,1.069,4.657-1,9.546,1.007,14.164a2.272,2.272,0,0,1-.407,1.7c-1.773,2.845-1.128,5.9-.463,8.759,1.187,5.112.323,10.324,1.141,15.433a2.656,2.656,0,0,1-.34,1.737c-1.834,2.774-1.194,5.767-.933,8.746.313,3.578.949,7.167-.233,10.715-1.073,3.222-2.292,6.422-.419,9.8.253.456.043,1.178.024,1.776-.11,3.38-.051,6.777-.392,10.134-.335,3.3,1.293,6.688-.485,9.919-.146.266.051.8.219,1.148,1.214,2.5.825,5.02.433,7.634-.194,1.29-.054,3.132.735,3.973,2.225,2.373,1.493,4.84.792,7.307a30.357,30.357,0,0,0-.967,10.785c.223-.025.447-.043.671-.073a6.235,6.235,0,0,1,3.979.667c4.458,2.974,9.495,2.923,14.443,2.879,2.729-.024,5.44-1.44,8.173-1.492,2.922-.056,5.848.95,8.8,1.146a117.3,117.3,0,0,0,20.255-.686,26.462,26.462,0,0,1,8.352.138,20.144,20.144,0,0,0,8.23-.318,75.637,75.637,0,0,1,13.72-1.27,33.139,33.139,0,0,0,6.453-.678c5.8-1.232,11.556-1.293,16.739,2.258,1.634,1.12,3.153,2.41,4.872,3.736a17.024,17.024,0,0,0,10.157-2.386,16.86,16.86,0,0,1,13.228-2.293c4.527,1.088,9.119.7,13.716.223,2.929-.306,5.931-1.294,8.84.265a1.409,1.409,0,0,0,1.124-.009c4.221-2.093,7.621-.195,10.973,2.15,1.113.778,2.346,1.384,3.383,1.987,4.921-2.424,11.152-4.276,15.049-4.559a10.8,10.8,0,0,1,5.2.818,28.144,28.144,0,0,0,8.938,2.474,25.98,25.98,0,0,0,7.3-.675c3.858-.8,7.72-1.667,11.624-2.135,6.754-.808,13.543-1.32,20.316-1.976,1.841-.179,3.59-.194,4.974,1.349,1.559,1.738,3.582,1.542,5.582,1.142a26.07,26.07,0,0,0,2.848-.908,14.144,14.144,0,0,1,9.4-.117c4.036,1.438,8.33.212,12.434,1.063a6.485,6.485,0,0,1,6.285.1,2.32,2.32,0,0,0,1.713-.2c2.324-1.036,4.65-.46,7.047-.387,5.41.167,10.948,2.532,16.263-.557.285-.165.779.035,1.176.056,5.973.317,11.9-.855,17.931-.165,4.715.54,9.547.028,14.326.048a10.58,10.58,0,0,1,2.951.467,18.593,18.593,0,0,0,12.928-.52l3.592,2.5c2.408-.4,4.367-1.071,6.285-.969,5.561.294,11.105.919,16.659,1.372a8.676,8.676,0,0,0,6.281-1.408,4.767,4.767,0,0,1,2.706-.971c3.18.047,6.355.357,9.536.471,1.38.05,2.944.247,4.117-.292,2.221-1.021,4.387-.583,6.473-.167a32.91,32.91,0,0,0,10.144.125c2.983-.324,5.973-.618,8.968-.812,1.375-.089,2.963-.311,4.111.241a5.86,5.86,0,0,0,2.409.585,16.7,16.7,0,0,0,3.319-.369c3.517-.588,7.134-.582,10.71-.825,3.119,2.132,6.541,1.219,9.908,1.036a10.429,10.429,0,0,1,4.15.229c4.86,1.874,9.7,1.524,14.607.4,4.657-1.069,9.545,1,14.164-1.007a2.269,2.269,0,0,1,1.7.407c2.846,1.773,5.9,1.128,8.76.463,5.112-1.187,10.324-.323,15.432-1.141a2.658,2.658,0,0,1,1.738.34c2.773,1.834,5.767,1.195,8.746.934,3.577-.314,7.167-.95,10.715.232,3.221,1.073,6.421,2.292,9.8.419.457-.253,1.179-.043,1.777-.024,3.38.11,6.777.051,10.134.392,3.3.335,6.687-1.292,9.918.485.266.146.8-.051,1.148-.219,2.5-1.214,5.021-.825,7.635-.433,1.29.194,3.132.055,3.973-.735,2.373-2.225,4.839-1.493,7.307-.792a31.367,31.367,0,0,0,12.453.806c7.153-.842,14.335-1.454,21.515-2.041a8.663,8.663,0,0,1,4.63.507,11.531,11.531,0,0,0,5.476,1.177c.052-.51.1-1.02.145-1.53a40.241,40.241,0,0,0,.158-4.475c2.352-3.629,1.349-7.209,0-10.872a17.619,17.619,0,0,1-.519-4.157,56.767,56.767,0,0,0-2.022-11.782c-.9-2.741-1.665-5.962.419-8.662,1.841-2.385,1.8-4.712.608-7.3a10.742,10.742,0,0,1-.672-2.907c-1.184-7.941-.383-15.928-.515-23.894-.029-1.791.25-3.606.046-5.37a49.157,49.157,0,0,1,1.03-16.062,28.742,28.742,0,0,0,.385-7.738c-.376-6.765-2.155-13.458-1.077-20.3a2.973,2.973,0,0,0-.243-1.749c-1.514-2.822-.318-5.431.478-8.1a14.544,14.544,0,0,0,1.039-4.572c-.229-4.782-.736-9.518-.2-14.347.3-2.731-.312-5.471,1.068-8.176.655-1.281.377-3.133.246-4.7-.135-1.618-.291-3.234-.439-4.851q-.57-6.245-1.2-12.482a18.136,18.136,0,0,1,.665-8.281,11.412,11.412,0,0,0,.5-4.428c0-.092,0-.188-.01-.279-.445-6.564-1.425-13.068-.79-19.722.273-2.868-1.243-5.865-1.316-8.819-.079-3.163.711-6.337.9-9.519.346-5.963.144-11.969,1.268-17.868a17.092,17.092,0,0,0-.544-8.878,12.8,12.8,0,0,1-.492-5.839c.32-2.95.97-6.2.109-8.877-2.1-6.527.4-13.138-1.041-19.594a2.812,2.812,0,0,1,.525-1.687c1.508-2.679,1.1-5.347.235-8.119a10.214,10.214,0,0,1-.4-4.052c.758-6.909,1.772-13.8-.209-20.685a3.99,3.99,0,0,1-.028-1.787c1.166-6.147-.239-12.314.2-18.508.373-5.309,1.054-10.754-.11-16.119a10.724,10.724,0,0,1,.128-2.381c.033-1.546.148-3.1.161-4.649a31.641,31.641,0,0,0-6.751.641,10.793,10.793,0,0,1-2.381-.129,54.368,54.368,0,0,0-7.149-.061,80.783,80.783,0,0,1-16.21.5c-.96.13-1.876.236-2.762.317a47.7,47.7,0,0,1-16-1.281,15.7,15.7,0,0,0-4.156-.259c-4.348.231-8.748,1.405-12.911-.934a1.3,1.3,0,0,0-.594-.053c-4.577-.006-9.138,1.131-13.729.207-4.678,1.506-9.464.559-14.177.421a23.775,23.775,0,0,0-8.84.894c-3.444,1.21-6.987,1.226-10.633,1.053-4.462-.211-9.115-1.588-13.373,1.154a3.259,3.259,0,0,1-1.737.285c-2.588-.058-5.447.488-7.689-.439-2.6-1.075-5.192-.051-7.492-.885-5.225-1.894-10.526-1.053-15.376.251-5.072,1.365-9.815.935-14.74.429a8.139,8.139,0,0,0-2.374-.206c-3.583.761-6.651-.472-9.4-2.44-1.177.4-2.125.7-3.057,1.037a14.068,14.068,0,0,1-6.811.96,10.475,10.475,0,0,1-1.945-.455,11.871,11.871,0,0,0-6.514.05,10.48,10.48,0,0,1-4.052.485c-6-1.219-11.962-.554-17.908.2-6.436.819-12.708-1.09-19.093-.913-3.629-2.353-7.209-1.349-10.872,0a17.678,17.678,0,0,1-4.157.519,56.831,56.831,0,0,0-11.782,2.021c-2.741.9-5.962,1.665-8.662-.418-2.385-1.842-4.712-1.8-7.295-.609a10.745,10.745,0,0,1-2.906.673c-7.942,1.183-15.929.383-23.895.514-1.791.03-3.606-.25-5.371-.045a49.18,49.18,0,0,1-16.061-1.03,28.7,28.7,0,0,0-7.737-.385c-6.766.376-13.459,2.155-20.305,1.077a2.967,2.967,0,0,0-1.749.243c-2.822,1.514-5.431.317-8.1-.478a14.516,14.516,0,0,0-4.572-1.039c-4.782.228-9.518.735-14.347.2-2.731-.3-5.471.312-8.176-1.069-1.281-.654-3.133-.376-4.7-.245-5.783.482-11.559,1.06-17.333,1.642a18.136,18.136,0,0,1-8.281-.665,11.768,11.768,0,0,0-4.707-.486c-.755.051-1.509.11-2.262.172-5.8.477-11.571,1.18-17.46.618-2.868-.273-5.865,1.242-8.819,1.316-3.163.078-6.337-.711-9.519-.9-5.963-.347-11.969-.145-17.868-1.268a17.092,17.092,0,0,0-8.878.543,12.775,12.775,0,0,1-5.839.492c-2.95-.319-6.2-.97-8.877-.109-6.527,2.1-13.138-.4-19.594,1.042a2.819,2.819,0,0,1-1.687-.525c-2.679-1.508-5.347-1.1-8.119-.235a10.229,10.229,0,0,1-4.051.4c-6.91-.758-13.8-1.773-20.686.209a4,4,0,0,1-1.787.028c-6.147-1.166-12.314.239-18.508-.2-5.309-.374-10.754-1.054-16.119.11a10.726,10.726,0,0,1-2.381-.129,54.368,54.368,0,0,0-7.149-.06c-6.359.712-12.687,1.119-19.032.176q.231,2.565.476,5.128c.179,1.841.194,3.591-1.349,4.975-1.738,1.559-1.542,3.582-1.142,5.581a26.07,26.07,0,0,0,.908,2.848,14.15,14.15,0,0,1,.118,9.4c-1.439,4.036-.212,8.33-1.064,12.435a6.483,6.483,0,0,1-.1,6.284,2.327,2.327,0,0,0,.2,1.714c1.036,2.324.46,4.65.387,7.046-.167,5.411-2.532,10.948.557,16.264.165.285-.035.778-.056,1.175-.317,5.974.855,11.9.165,17.932-.54,4.714-.028,9.546-.048,14.326a10.549,10.549,0,0,1-.467,2.951,18.593,18.593,0,0,0,.52,12.928c-.974,1.4-1.86,2.67-2.5,3.591.4,2.408,1.071,4.367.969,6.285C152,184.414,151.369,189.957,150.916,195.511Z"/><path class="cls-1" d="M629.515,409.583c.161-.094.4-.17.469-.283a3.342,3.342,0,0,1,1.865-1.268c.233-.083.433-.206.662-.3a1.772,1.772,0,0,1,.994-.181.866.866,0,0,0,.8-.206.581.581,0,0,1,.28-.178,16.41,16.41,0,0,0,2.172-.629,1.038,1.038,0,0,1,.38-.056,1.835,1.835,0,0,0,1.481-.308c.782-.061,1.384-.108,1.986-.157.086-.008.188-.058.252-.042,1.339.328,2.892-.2,4.227.367l.466-.4c.324.019.7.054,1.084.063.59.013.989.4,1.723.218a13.668,13.668,0,0,1,1.8-.108c1.17-.121,2.351-.181,3.518-.347a2.082,2.082,0,0,1,.617.118,3.477,3.477,0,0,1,2.779-.545l-.585.616c.118.05.184.1.232.094.451-.069.958-.025,1.3-.329a1.674,1.674,0,0,1,.476-.147,2.812,2.812,0,0,1,1.654-.032,2.458,2.458,0,0,0,1.63-.1,10.327,10.327,0,0,1,2.528-.489c1.218-.142,2.429-.3,3.659-.338a3.106,3.106,0,0,1,.654-.022,4.213,4.213,0,0,0,1.916-.152,2.852,2.852,0,0,1,.765-.057,10.339,10.339,0,0,0,2.087-.054,2.124,2.124,0,0,1,1.235.148,7.915,7.915,0,0,0,2.807.479c1,.034,2,.094,3,.124a1.85,1.85,0,0,0,.741-.1,2.266,2.266,0,0,1,1.255-.143,5.1,5.1,0,0,0,1.557-.106c.715-.146,1.455-.233,2.184-.342a.894.894,0,0,1,.262-.011,8.684,8.684,0,0,0,3.02-.182c.181.12.369.228.525.352a5.109,5.109,0,0,0,3.558.94c.659-.035,1.32-.042,1.975-.1a9.992,9.992,0,0,1,2.589.135,18.629,18.629,0,0,0,2.961.253,1.4,1.4,0,0,1,.388.012,4.737,4.737,0,0,0,2.419-.039,22.328,22.328,0,0,0,3.4-.7c.235-.075.451-.177.717-.283l.981.167a3.519,3.519,0,0,0,.361-.082c.4-.134.773-.3,1.182-.409.574-.156.929.014,1.036.457.013.055.017.111.025.165.647.148,1.29.3,1.939.442.366.079.741.143,1.115.207.542.093,1.1.165,1.629.273a2.336,2.336,0,0,0,1.146.044,1.382,1.382,0,0,1,.868.053,9.883,9.883,0,0,0,3.532.444,5.178,5.178,0,0,1,1.759.246,3.742,3.742,0,0,0,1.092.231,9.455,9.455,0,0,1,2.478.444,2.908,2.908,0,0,1,.928.431,5,5,0,0,1,1.924,2.019,2.2,2.2,0,0,0,.5.667,4.916,4.916,0,0,1,1.145,1.562,6.429,6.429,0,0,1,.583,2.565.615.615,0,0,1-.248.468,8.409,8.409,0,0,1-2.514,1.653,7.763,7.763,0,0,0-.706.909.957.957,0,0,1-.465.5,1,1,0,0,0-.394.427,6.965,6.965,0,0,0-.326.694c-.629.162-.7-.341-1.292-.283a2.637,2.637,0,0,0-1.039.68,3.054,3.054,0,0,1-1.453.716c-.664.148-1.2.379-1.369.9-.912-.107-1.767-.185-2.6-.312a5.7,5.7,0,0,0-2.321.094,10.415,10.415,0,0,1-3.628.255,28.64,28.64,0,0,0-3.91-.167,3.479,3.479,0,0,1-.647-.045,16.93,16.93,0,0,0-3.526-.065c-.607.037-1.219,0-1.829,0-.3,0-.611-.023-.916-.009-.746.033-1.482.03-2.227,0a10.867,10.867,0,0,0-2.212.159,4.988,4.988,0,0,1-2.055-.01,3.5,3.5,0,0,0-.76-.095,28.358,28.358,0,0,1-3.891-.212,1.086,1.086,0,0,0-.384-.027,18.363,18.363,0,0,1-3.264.116c-1.082.072-2.176.028-3.262.017-.61-.006-1.217-.05-1.826-.074-1.084-.042-2.175-.166-3.252-.1a10.98,10.98,0,0,0-3.339.37,2.926,2.926,0,0,1-1.026.127,5.3,5.3,0,0,0-1.427.069.855.855,0,0,1-.5-.037,1.667,1.667,0,0,0-1.114-.038,1.279,1.279,0,0,1-.962-.148,1.9,1.9,0,0,0-1.193-.219c-1.526-.006-3.05-.037-4.576-.054-.349,0-.7.007-1.052.022a5.681,5.681,0,0,1-2.3-.153,1.2,1.2,0,0,0-.38-.046c-.917-.012-1.834-.01-2.75-.029a18.425,18.425,0,0,0-3.507.175,5.069,5.069,0,0,1-2.186-.1,6.445,6.445,0,0,0-2.184-.166,8.552,8.552,0,0,1-2.091-.011,1.6,1.6,0,0,0-.522,0,36.055,36.055,0,0,1-4.814.17,6.885,6.885,0,0,1-1.91-.1,3.582,3.582,0,0,0-.907-.021c-.483.02-.965.071-1.448.088a30.025,30.025,0,0,1-3.408.031c-1.24-.1-2.511-.078-3.77-.1a3.524,3.524,0,0,0-.642.081,7.477,7.477,0,0,1-2.47.028c-.5-.079-1.019-.114-1.572-.173a2.72,2.72,0,0,1-.163-1.914c.175-.728.534-1.452.134-2.175.262-.692-.291-1.321-.225-2a.624.624,0,0,0-.074-.417c-.4-.585.014-1.165.125-1.746a.588.588,0,0,1,.142-.241c.327-.378-.01-.82.279-1.163a10.542,10.542,0,0,1,1.218-.9c.145-.121.126-.322.181-.486Z"/><path class="cls-1" d="M389.3,216.272l3.307,1.044,3.48,1.044,2.959,2.262,2.958,2.436,2.784,1.218-1.218,2.959-2.088,2.956-1.218,3.307.522,4-2.089,2.956-2.088,2.959v3.827l-1.74,2.96-.349,3.653-2.609,2.786-1.218,3.307V263.6l-2.262,2.96.52,3.827-.347,3.48-1.393,3.306-1.044,3.307-1.565,3.133-3.655.173-3.306-1.044-3.654-.52-3.133-1.742-4,.173-1.74-3.48,2.087-3.129.175-3.657.7-3.307-.349-3.827,2.262-2.959.871-3.307,1.044-3.48.174-2.609-2.436,1.392-1.74,3.133-2.262,2.609-3.306,1.741-2.438,2.61L357.629,265l-2.784,2.262-2.436,2.439-3.133,1.738-1.391,3.654-3.307,1.568-2.784,2.089-2.611,2.956-3.48-1.218L333.441,277l-3.133-1.565L327,274.567,323.7,273l-.522-3.483v-3.48l-1.218-3.48-.173-3.48V255.6l1.391-3.48v-3.48l.175-3.48,1.74-3.306-.175-3.657-.174-3.827,3.48-2.436V228.1L331,225.667l.175-3.827,1.566-3.306,2.609-2.613,2.96-2.262,1.565-3.133,2.611-2.436,2.435-2.609,2.611-2.262,2.958-2.089,2.437-2.609,2.958-1.915,2.958-2.089,3.306-1.391,2.611-2.609,3.655-.524,3.307-.871,3.305-1.391,2.611-2.96,3.306-1.564,3.829.347,3.48-1.045,3.48-.347L393.3,185.3l1.045,3.48-.523,3.827,1.916,3.307.695,3.306-.695,3.831-3.656.52h-3.653l-2.786,2.613-3.654.52-3.306,1.218-2.611,2.262-3.48,1.044-2.958,1.742L366.5,214.7l-2.435,2.262-2.263,2.96-2.437,2.262-2.784,2.262-1.914,2.96-1.393,3.129-3.131,2.263-1.74,3.133-.349,3.657-.695,3.48-1.045,3.306-2.262,3.133-.349,3.48v3.653l.7,3.654,2.96-2.089,1.74-3.48,2.957-1.915,2.96-1.912,1.913-3.133,2.436-2.609,2.437-2.612,2.436-2.436,2.611-2.436,2.609-2.262L371.9,232.8l2.436-2.61,2.611-2.262,1.913-3.133,2.611-2.262,2.958-2.089,3.133-1.911,1.914-2.96Z"/><path class="cls-1" d="M523.287,196.086l.7,3.48.522,3.48-1.218,3.48.871,3.48-.175,3.479-.174,3.48.522,3.657-1.218,3.48-1.217,3.307.7,3.653-1.566,3.307-.349,3.48-1.391,3.306v3.654L516.5,247.6l-1.393,3.306v3.827l-2.784,2.436-1.74,2.959-1.566,3.48-2.785,2.089L503.8,268.3l-1.393,3.484-2.958,2.085-3.48,1.395-2.785,2.085-2.784,1.915-2.784,2.613-3.48.867-3.307,1.044-2.437,3.307-3.48,1.218h-3.653l-3.307-.347-1.915-3.133.349-4-2.611-2.786V274.22l-.7-3.133,2.089-3.133,4,.174,2.958-2.089,2.957-1.738,2.611-2.436,3.829-.7,2.436-2.609,2.262-2.613,3.133-1.738,1.393-3.48,2.609-2.439.522-3.827,2.262-2.786,2.089-2.956.522-3.48,1.044-3.48.523-3.484.869-3.306.871-3.654-1.74-3.653,1.044-3.307-.871-3.653-2.611,2.436-1.913,2.959-2.785,2.262-1.74,3.13-3.479,1.742-1.394,3.479-1.913,2.96-3.133,2.089-1.567,3.306L477,237.151l-3.307,1.916-1.566,3.133-1.914,3.133-1.915,2.956-3.653,1.568-2.263,2.609-1.915,2.96-2.958,2.088-2.262,2.609-2.088,2.61-2.436,2.439-2.96-2.262-3.653-.7-3.307-1.391-2.957-1.915L435.58,255.6l1.915-3.133.7-3.48,1.566-3.306,1.391-3.133,1.567-3.307,1.219-3.306.87-3.48,1.393-3.307.695-3.48,1.218-3.306.173-3.827,1.567-3.133.7-3.48,1.566-3.307,1.393-3.306,1.391-3.133,1.218-3.48,1.393-3.133-1.044-4.178,2.436-2.956.348-3.48,1.74-3.306,1.045-3.307.871-3.483.695-3.48,1.391-3.307,1.22-3.306,1.043-3.48.522-3.48.175-3.48,2.262-3.133,1.045-3.48.346-3.48.523-4,4-.347,3.133,2.609,3.655.351,2.958,1.911,3.828-.173,2.263,2.613,2.957,2.435-2.61,3.133-1.045,3.307-.173,3.827-.522,3.48-1.74,3.133L486.4,169.46l-.175,3.654v3.653l-2.785,2.786v3.654l-1.913,3.133-1.218,3.306V193.3l-2.262,2.959-.7,3.48-1.219,3.307-.869,3.48-1.916,2.959v3.827l-1.217,3.307-1.567,3.133-.7,2.956,2.958-1.565,1.915-3.133,2.611-2.262,2.436-2.609,1.391-3.307,2.438-2.609,2.435-2.613,2.785-2.088,1.74-3.133,2.784-2.436,2.437-2.609,2.785-2.089,2.957-1.915,2.436-2.436,3.655-.871,3.307,1.569,2.088,3.306,3.48,1.045,2.958,1.738,3.829.871Z"/><path class="cls-1" d="M613.591,207.743l-3.655.7-3.48.694-2.611,2.786-3.654,1.218-2.957,1.738-1.22,3.83-3.307,1.915-2.609,2.436-1.044,3.653-1.218,3.307-1.915,2.96-.7,3.48-.871,3.306-1.913,3.133-.522,3.48.173,3.48-.347,3.48-.175,3.48-.347,3.48-1.566,3.83,2.435,3.307,3.656-1.045,3.479-.523,3.307-1.392,3.133-1.391H599.5l2.957-2.089,3.307-.871,3.653-.7,2.96-1.912,2.958-1.394,4,.523-.522,4-2.087,3.3v3.307l-1.742,2.959-2.784,2.089-2.436,2.609-3.653.524-2.96,2.089-3.306,1.391-3.132,1.565-3.481.7-3.48.7-3.48.347h-3.48l-3.482-.524-3.48.177-3.48-.871-2.958-1.569-3.481-1.391L564,274.914l-3.133-2.089-.173-4-2.436-2.786.7-3.653-1.74-3.307-.523-3.653.174-3.48.522-3.48.349-3.484.522-3.48.347-3.653,2.262-2.96.522-3.48.7-3.653,2.089-2.786,1.044-3.48,1.74-3.13,2.089-2.786,2.61-2.435,1.045-3.654,3.48-1.915,1.74-3.133,3.48-1.391,2.088-2.787,3.307-1.564,2.435-2.609,2.438-2.96,3.653-.7,3.307-1.392,3.48-.7,3.133-2.262,3.653.7,3.655-.347,3.307-1.044,3.655.347,3.307,1.742,3.3.52,3.307,1.218,2.959,1.568,2.436,1.912.349,3.48-1.915,3.133.348,3.657-1.044,3.3-1.914,3.133-3.133-1.738-3.306-1.045-3.655-.35-3.48.524Z"/></svg>