<svg xmlns="http://www.w3.org/2000/svg" viewBox="0 0 952 142"><defs><style>.cls-1{fill:#1858a8;}.cls-2{fill:#f36;}.cls-3{fill:#ffeded;}</style></defs><title>manuale_ill_nuove</title><g id="solo_testo" data-name="solo testo"><path class="cls-1" d="M565.963,119.251a52.637,52.637,0,0,1,.069-7.778c.076-2.19.165-4.385.4-6.561a6.563,6.563,0,0,0-.568-3.976c-.94-1.792-.285-3.776-.449-5.659-.163-1.866-1.2-3.676-1.257-5.528a76.569,76.569,0,0,1,.625-7.76c.1-1.361-.112-2.756.089-4.094.281-1.875.173-3.8,1.032-5.623a10.327,10.327,0,0,0,.6-3.628c.12-1.773.147-3.555.14-5.333-.008-2.021-.048-4.041-.077-6.062-1.041-.047-2.083-.107-3.12-.143-2.19-.076-4.385-.165-6.561-.4a6.559,6.559,0,0,0-3.975.567c-1.793.941-3.777.286-5.659.45s-3.676,1.2-5.529,1.256a76.566,76.566,0,0,1-7.76-.624c-1.361-.1-2.756.112-4.094-.089-1.875-.282-3.8-.174-5.623-1.032a10.3,10.3,0,0,0-3.628-.6c-1.773-.121-3.555-.147-5.333-.14q-5.325.02-10.65.134a2.9,2.9,0,0,0-1.556.389c-2.886,2.077-5.99,1.337-9,.607a25.479,25.479,0,0,0-12.186-.318,3.205,3.205,0,0,0-2,1.18c-1.218,2.455-3.326,2.3-5.288,1.749-2.745-.774-5.4-1.813-8.319-1.741a4.849,4.849,0,0,1-1.536-.547,16.527,16.527,0,0,0-12.4-.015,12.042,12.042,0,0,1-8.8.482,17.817,17.817,0,0,0-10.479-.651c-.792.211-1.641.2-2.438.4a14.559,14.559,0,0,1-9.271-.815,6.943,6.943,0,0,0-6.63.566c-.713.407-1.431.81-2.171,1.164a7.587,7.587,0,0,1-6.291.623,9.588,9.588,0,0,0-5.277-.45,7.81,7.81,0,0,1-4.811-.681c-.719-.316-1.711-.749-2.3-.492-2.022.885-3.79.178-5.549-.554-2.935-1.223-6.05-1.352-9.134-1.7a1.8,1.8,0,0,0-.365.018c.148,3.1-.115,6.208,0,9.306.235,6.148-.387,12.289,0,18.435.181,2.864.354,5.735.364,8.6a38.873,38.873,0,0,1-.485,5.307c-.369,2.712-1.164,5.376-.913,8.155.085.933.222,1.861.337,2.79.049.4.3.951.125,1.177-1.092,1.418-.634,3.186-1.158,4.7a31.141,31.141,0,0,0-1.734,10.93c.341-.049.686-.076,1.026-.13a16.274,16.274,0,0,1,6.52.351c1.2.292,2.414.515,3.611.816a10.421,10.421,0,0,0,8.209-1.175,3.5,3.5,0,0,0,3.4,1.137,22.555,22.555,0,0,1,6.963-.186c3.541.222,7.061,1.034,10.639.318a4.136,4.136,0,0,1,1.623.224c3.376.784,6.556.635,9.249-2.143,5.35,2.372,10.963,2.366,16.58,2.362,1.839,0,3.515-.135,4.613-2.01a3.347,3.347,0,0,1,2.081-1.123c1.851-.387,3.709-1.014,5.631-.026.477.246,1.306-.045,1.924-.243a11.52,11.52,0,0,1,10.5,1.795,4.43,4.43,0,0,0,3.413.993,19.222,19.222,0,0,0,4.395-.983,15.076,15.076,0,0,1,8.851-.934,16.786,16.786,0,0,0,4.077.053c1.641-.12,3.269-.4,4.9-.632a31.464,31.464,0,0,1,14.924,1.418c1.509.524,3.277.066,4.694,1.157.227.174.777-.075,1.178-.125.929-.115,1.857-.252,2.79-.336,2.779-.252,5.443.544,8.155.912a38.716,38.716,0,0,0,5.307.485c2.868-.009,5.738-.182,8.6-.363,6.146-.389,12.287.232,18.435,0,3.247-.124,6.5.164,9.752-.034a6.177,6.177,0,0,0-.451-1.173C567.263,123.407,566.207,121.379,565.963,119.251Z"/><path class="cls-2" d="M566.116,51.105c-2.077-2.886-1.336-5.99-.606-8.995a25.467,25.467,0,0,0,.317-12.186,3.2,3.2,0,0,0-1.179-2,3.472,3.472,0,0,1-2.025-3.99c-1.033.009-2.067.035-3.1.039-1.778.007-3.56-.019-5.333-.14a10.327,10.327,0,0,1-3.628-.6c-1.822-.859-3.748-.75-5.623-1.032-1.339-.2-2.733.01-4.094-.089a76.859,76.859,0,0,0-7.76-.625c-1.853.056-3.662,1.094-5.529,1.257-1.882.164-3.866-.491-5.659.45a6.566,6.566,0,0,1-3.975.567c-2.176-.233-4.371-.322-6.561-.4a52.637,52.637,0,0,0-7.778-.069c-2.128.244-4.156,1.3-6.4,1.018-3.039,1.567-5.552.1-8.064-1.393a9.281,9.281,0,0,0-2.137-1.19,86.021,86.021,0,0,0-8.4-1.985c-1.485-.244-3.274-.617-4.166,1.517a3.023,3.023,0,0,1-2.045,1.238c-3.226.614-6.474,1.122-9.729,1.557a3.017,3.017,0,0,1-1.924-.568,5.924,5.924,0,0,0-5.114-.72,4.881,4.881,0,0,1-2.04.11,7.228,7.228,0,0,0-3.977.566,14.392,14.392,0,0,1-7.29.7,26.689,26.689,0,0,0-7.779.026,19.743,19.743,0,0,1-6.922-.186,30.6,30.6,0,0,0-10.956-.515,41.363,41.363,0,0,1-14.282-.482,3.166,3.166,0,0,0-1.992-.07c-2.471,1.382-5.139.2-7.681.716-.961.2-2.129-.373-3.142-.754a18.944,18.944,0,0,1-2.415-1.293c-3.015,1-5.894,1.729-8.947,1.308a14.158,14.158,0,0,1-.461,3.617,16.81,16.81,0,0,0-.29,7.749,12.719,12.719,0,0,1-.173,6.506c-.675,2.176.051,4.378.687,6.461a7.675,7.675,0,0,1,.54,4,4.6,4.6,0,0,0,.058,1.637,26.846,26.846,0,0,1,.3,2.983,1.8,1.8,0,0,1,.365-.018c3.084.344,6.2.473,9.134,1.7,1.759.732,3.527,1.439,5.549.554.589-.257,1.581.176,2.3.492a7.81,7.81,0,0,0,4.811.681,9.588,9.588,0,0,1,5.277.45,7.587,7.587,0,0,0,6.291-.623c.74-.354,1.458-.757,2.171-1.164a6.943,6.943,0,0,1,6.63-.566,14.559,14.559,0,0,0,9.271.815c.8-.2,1.646-.187,2.438-.4a17.817,17.817,0,0,1,10.479.651,12.042,12.042,0,0,0,8.8-.482,16.527,16.527,0,0,1,12.4.015,4.849,4.849,0,0,0,1.536.547c2.922-.072,5.574.967,8.319,1.741,1.962.553,4.07.706,5.288-1.749a3.205,3.205,0,0,1,2-1.18,25.479,25.479,0,0,1,12.186.318c3,.73,6.109,1.47,9-.607a2.9,2.9,0,0,1,1.556-.389q5.324-.11,10.65-.134c1.778-.007,3.56.019,5.333.14a10.3,10.3,0,0,1,3.628.6c1.822.858,3.748.75,5.623,1.032,1.338.2,2.733-.01,4.094.089a76.566,76.566,0,0,0,7.76.624c1.853-.056,3.662-1.093,5.529-1.256s3.866.491,5.659-.45a6.559,6.559,0,0,1,3.975-.567c2.176.233,4.371.322,6.561.4,1.037.036,2.079.1,3.12.143-.021-1.53-.026-3.059-.057-4.588A2.9,2.9,0,0,0,566.116,51.105Z"/><path class="cls-3" d="M468.446,99.567V101.7H455.654V99.307c4.55-2.782,9.854-5.616,9.854-10.14,0-2-.884-3.276-3.848-3.276-3.224,0-4.082,1.43-4.082,3.874a4.435,4.435,0,0,0,.208,1.586l-2.47-.182a12.109,12.109,0,0,1-.1-1.664c0-3.458,2.262-5.746,6.578-5.746,5.07,0,6.162,2.808,6.162,5.148,0,4.992-4.679,7.8-7.54,9.724l-1.4.624v.312Z"/><path class="cls-3" d="M485.164,92.7c0,6.552-2.471,9.256-6.631,9.256-4.368,0-6.473-3.042-6.473-8.944,0-6.162,2.469-9.256,6.63-9.256C483.058,83.759,485.164,86.8,485.164,92.7Zm-10.661.182c0,.78.026,1.508.078,2.158l7.618-6.6a3.38,3.38,0,0,0-3.561-2.548C475.465,85.891,474.5,88.335,474.5,92.885Zm8.217-.052c0-.78-.027-1.508-.078-2.158l-7.618,6.6a3.381,3.381,0,0,0,3.562,2.548C481.758,99.827,482.72,97.9,482.72,92.833Z"/><path class="cls-2" d="M618.338,83.631a.833.833,0,0,0,.219.22c.014.007.023.025.034.037.034.037.066.075.1.111s.072.059.1.094a2.578,2.578,0,0,0,.255.257.277.277,0,0,1,.055.053.891.891,0,0,0,.183.19c.028.026.054.053.08.08.04.043.076.09.12.129.156.141.314.28.473.419a.636.636,0,0,1,.13.153.679.679,0,0,0,.087.107.478.478,0,0,1,.072.07,1.065,1.065,0,0,0,.193.2.4.4,0,0,1,.073.07.314.314,0,0,0,.146.133c.018.007.031.028.045.043l.077.081a.081.081,0,0,1-.019.018h.026l.01,0,.027.028c.024.024.052.043.075.068.05.056.1.113.146.173a.27.27,0,0,0,.1.095.116.116,0,0,1,.039.031.761.761,0,0,0,.229.193c.057.033.124.074.14.14a.476.476,0,0,0,.222.264.484.484,0,0,1,.1.091.958.958,0,0,0,.162.174.948.948,0,0,1,.152.165.31.31,0,0,0,.085.072.268.268,0,0,1,.1.091.366.366,0,0,0,.058.066c.043.041.092.076.1.14a.042.042,0,0,0,.022.029c.078.021.1.11.177.136a.788.788,0,0,0,.212.191l.008.01a.394.394,0,0,0,.13.136c.071.054.1.147.188.183.008,0,.012.021.016.033a.206.206,0,0,0,.117.126.246.246,0,0,1,.109.1.237.237,0,0,0,.071.087.949.949,0,0,1,.238.222c.037.043.047.1.084.137s.092.059.132.095.088.124.174.135c.013,0,.023.023.034.035a.731.731,0,0,0,.06.064,1.449,1.449,0,0,1,.147.156c.064.077.13.153.189.235a.135.135,0,0,0,.046.043,1.129,1.129,0,0,1,.233.225.344.344,0,0,0,.091.083.462.462,0,0,1,.082.057,1.232,1.232,0,0,1,.21.217c.02.027.052.046.068.074a.355.355,0,0,1,.023.092c.1.012.1.011.121.039.061.069.12.139.181.208a.118.118,0,0,0,.037.034c.073.032.112.1.166.152s.067.1.127.118c.01,0,.016.018.025.028q.08.1.162.192a.144.144,0,0,0,.049.039.214.214,0,0,1,.093.081.2.2,0,0,0,.074.067.179.179,0,0,1,.086.088.355.355,0,0,0,.136.146.865.865,0,0,1,.2.2.321.321,0,0,0,.093.083.963.963,0,0,1,.267.229,1.994,1.994,0,0,0,.177.179c.04.037.08.074.118.114s.077.088.12.128c.08.075.162.147.246.218a.976.976,0,0,1,.212.232.262.262,0,0,0,.045.06c.115.116.235.228.348.347a3.883,3.883,0,0,0,.293.3c.012.011.019.028.03.04a2.268,2.268,0,0,0,.183.208c.118.106.227.223.355.319a.648.648,0,0,1,.093.1,1,1,0,0,0,.132.15.452.452,0,0,1,.086.089.271.271,0,0,0,.117.11.208.208,0,0,1,.065.058,1.245,1.245,0,0,0,.081.1.185.185,0,0,0,.094.056c.051.005.063.059.1.065.066.01.12.055.192.053a.227.227,0,0,1,.147.067c.022.019.043.04.067.057a.12.12,0,0,0,.056.026c.044,0,.089,0,.152,0a.154.154,0,0,1,.037-.178c.037-.05.091-.087.112-.15.006-.015.033-.024.051-.033s.045-.011.056-.025c.053-.07.136-.111.181-.191a.14.14,0,0,1,.072-.066.165.165,0,0,0,.092-.076.34.34,0,0,1,.192-.172.125.125,0,0,0,.072-.08.239.239,0,0,1,.142-.165.191.191,0,0,0,.058-.047,1.465,1.465,0,0,0,.221-.275.175.175,0,0,1,.052-.053c.03-.023.064-.041.093-.065a.9.9,0,0,0,.148-.134,1.12,1.12,0,0,1,.223-.238.345.345,0,0,0,.091-.1.9.9,0,0,1,.24-.273.293.293,0,0,0,.065-.075c.016-.024.024-.054.039-.079s.037-.052.051-.071a.868.868,0,0,0-.287-.288c-.092-.071-.206-.116-.267-.224-.023-.04-.048-.079-.068-.12a.278.278,0,0,0-.16-.152.238.238,0,0,1-.085-.051,1.851,1.851,0,0,1-.129-.137.3.3,0,0,1-.055-.082.306.306,0,0,0-.115-.146.339.339,0,0,1-.107-.12.215.215,0,0,0-.1-.106.172.172,0,0,1-.089-.085c-.018-.034-.042-.063-.06-.1a.231.231,0,0,0-.175-.128.163.163,0,0,1-.149-.162.12.12,0,0,0-.015-.036.565.565,0,0,0-.2-.066.186.186,0,0,1-.16-.085c-.015-.026-.052-.04-.08-.059a1.391,1.391,0,0,1-.136-.09c-.069-.061-.132-.129-.2-.192a.3.3,0,0,1-.1-.139c-.007-.026-.035-.046-.054-.068a.447.447,0,0,1-.111-.18.146.146,0,0,0-.09-.114.155.155,0,0,1-.12-.115.06.06,0,0,0-.023-.03c-.11-.089-.2-.2-.313-.3l.042-.1a1.146,1.146,0,0,0-.1-.131c-.072-.07-.15-.135-.227-.2h-.018l-.008.043c-.044,0-.063-.028-.061-.06a.178.178,0,0,0-.043-.115.393.393,0,0,0-.156-.144c-.031-.015-.062-.031-.072-.066a.671.671,0,0,0-.139-.223,1.366,1.366,0,0,0-.183-.173.212.212,0,0,0-.058-.022c-.069-.029-.139-.057-.207-.089-.018-.008-.035-.025-.007-.053.036.018.072.037.11.055a.52.52,0,0,0,.092.037c.017,0,.037-.008.068-.015-.062-.1-.1-.2-.219-.226-.042-.01-.063-.046-.079-.089a.222.222,0,0,0-.15-.156.168.168,0,0,1-.1-.075.532.532,0,0,0-.205-.183.224.224,0,0,1-.126-.133.07.07,0,0,0-.027-.041,1.5,1.5,0,0,1-.244-.2.15.15,0,0,0-.1-.046c-.067.006-.117-.043-.181-.048a.079.079,0,0,1-.047-.038.24.24,0,0,0-.134-.109c-.034-.016-.07-.028-.105-.042-.057-.023-.09-.061-.076-.112-.046-.052-.083-.1-.124-.139a.43.43,0,0,0-.1-.081.44.44,0,0,1-.136-.11.088.088,0,0,0-.048-.034.083.083,0,0,1-.081-.081.059.059,0,0,0-.029-.038c-.039-.016-.055-.05-.079-.079a1.249,1.249,0,0,0-.239-.226,1.352,1.352,0,0,1,.18,0,.813.813,0,0,0,.311,0,.164.164,0,0,1,.049,0c.051,0,.1.006.151.006s.093-.009.139,0a2.573,2.573,0,0,0,.362,0,.277.277,0,0,1,.076,0,.934.934,0,0,0,.264,0c.038,0,.076,0,.113,0,.059,0,.118.01.176.007.21-.011.421-.025.631-.038a.611.611,0,0,1,.2.015.625.625,0,0,0,.137.014.684.684,0,0,1,.1,0,1.027,1.027,0,0,0,.277,0,.479.479,0,0,1,.1,0,.319.319,0,0,0,.2-.009.161.161,0,0,1,.062,0c.059,0,.117.005.176.005.034,0,.067-.006.1-.005.075,0,.151.008.225.019a.265.265,0,0,0,.137,0,.116.116,0,0,1,.049-.006.738.738,0,0,0,.3-.026.261.261,0,0,1,.2,0,.478.478,0,0,0,.344.029.47.47,0,0,1,.135-.006.951.951,0,0,0,.238.008.985.985,0,0,1,.224.009.3.3,0,0,0,.111-.009.262.262,0,0,1,.136-.007.372.372,0,0,0,.088,0,.255.255,0,0,1,.171.028.042.042,0,0,0,.036,0c.07-.04.151,0,.221-.029a.8.8,0,0,0,.285-.014h.013a.412.412,0,0,0,.188,0c.088-.013.175.031.262,0,.009,0,.024.006.035.012a.207.207,0,0,0,.172.006.239.239,0,0,1,.147-.006.243.243,0,0,0,.112.011.935.935,0,0,1,.325-.011c.057,0,.1.037.157.037s.106-.024.16-.027c.074,0,.15.026.219-.027.01-.008.032,0,.048,0s.059,0,.088,0a1.53,1.53,0,0,1,.214.006c.1.009.2.016.3.033a.134.134,0,0,0,.063,0,1.1,1.1,0,0,1,.324-.006.341.341,0,0,0,.123-.006.466.466,0,0,1,.1-.017,1.166,1.166,0,0,1,.3,0,.659.659,0,0,1,.1,0,.375.375,0,0,1,.082.048c.076-.058.076-.06.113-.057l.275.019a.118.118,0,0,0,.05,0,.632.632,0,0,1,.225-.01c.058,0,.116.021.173-.007a.08.08,0,0,1,.037,0c.084.007.167.015.251.021a.162.162,0,0,0,.062-.007.207.207,0,0,1,.123-.009.2.2,0,0,0,.1,0,.179.179,0,0,1,.123,0,.359.359,0,0,0,.2.007.833.833,0,0,1,.286,0,.323.323,0,0,0,.124-.007.991.991,0,0,1,.351-.027,2.121,2.121,0,0,0,.252,0c.054,0,.109,0,.164,0s.117.009.175.006c.11,0,.219-.011.328-.02a1,1,0,0,1,.314.015A.316.316,0,0,0,640,86.1h.318l.009.007a1.352,1.352,0,0,1,.18,0,.813.813,0,0,0,.311,0,.164.164,0,0,1,.049,0c.051,0,.1.006.151.006h.012a1.379,1.379,0,0,0,.2.013c.123-.006.247-.008.37-.017a1,1,0,0,0,.257,0h.046a.56.56,0,0,0,.141.006.428.428,0,0,1,.124,0,.277.277,0,0,0,.161-.006.21.21,0,0,1,.087,0c.042,0,.083.012.125.01a.177.177,0,0,0,.106-.027c.009-.007.019,0,.028-.007l.1-.006a.611.611,0,0,1,.2.015.625.625,0,0,0,.137.014.684.684,0,0,1,.1,0,1.027,1.027,0,0,0,.277,0,.479.479,0,0,1,.1,0,.319.319,0,0,0,.2-.009.161.161,0,0,1,.062,0c.059,0,.117.005.176.005.034,0,.067-.006.1-.005.075,0,.151.008.225.019a.265.265,0,0,0,.137,0,.116.116,0,0,1,.049-.006.738.738,0,0,0,.3-.026.261.261,0,0,1,.2,0,.478.478,0,0,0,.344.029.47.47,0,0,1,.135-.006.951.951,0,0,0,.238.008.985.985,0,0,1,.224.009.3.3,0,0,0,.111-.009.262.262,0,0,1,.136-.007.372.372,0,0,0,.088,0,.255.255,0,0,1,.171.028.042.042,0,0,0,.036,0c.07-.04.151,0,.221-.029a.8.8,0,0,0,.285-.014h.013a.412.412,0,0,0,.188,0c.088-.013.175.031.262,0,.009,0,.024.006.035.012a.207.207,0,0,0,.172.006.239.239,0,0,1,.147-.006.243.243,0,0,0,.112.011.935.935,0,0,1,.325-.011c.057,0,.1.037.157.037s.106-.024.16-.027c.074,0,.15.026.219-.027.01-.008.032,0,.049,0s.058,0,.087,0a1.53,1.53,0,0,1,.214.006c.1.009.2.016.3.033a.134.134,0,0,0,.063,0,1.1,1.1,0,0,1,.324-.006.341.341,0,0,0,.123-.006.466.466,0,0,1,.1-.017,1.166,1.166,0,0,1,.3,0,.677.677,0,0,1,.1,0,.393.393,0,0,1,.081.048c.076-.058.076-.06.113-.057l.275.019a.118.118,0,0,0,.05,0,.632.632,0,0,1,.225-.01c.058,0,.116.021.173-.007a.08.08,0,0,1,.037,0c.084.007.167.015.251.021a.162.162,0,0,0,.062-.007.207.207,0,0,1,.123-.009.2.2,0,0,0,.1,0,.179.179,0,0,1,.123,0,.359.359,0,0,0,.2.007.833.833,0,0,1,.286,0,.323.323,0,0,0,.124-.007.991.991,0,0,1,.351-.027,2.121,2.121,0,0,0,.252,0c.054,0,.109,0,.164,0s.117.009.175.006c.11,0,.219-.011.328-.02a1,1,0,0,1,.314.015.316.316,0,0,0,.075.011c.164,0,.327-.006.491,0a3.849,3.849,0,0,0,.416,0,.413.413,0,0,1,.049.007,2.339,2.339,0,0,0,.276.018c.159-.008.319,0,.477-.025a.583.583,0,0,1,.138.006,1.028,1.028,0,0,0,.2.012.428.428,0,0,1,.124,0,.277.277,0,0,0,.161-.006.21.21,0,0,1,.087,0c.042,0,.083.012.125.01a.177.177,0,0,0,.106-.027c.039-.032.086,0,.119-.027.054-.04.124-.046.174-.1a.225.225,0,0,1,.151-.057.869.869,0,0,0,.088-.007.119.119,0,0,0,.057-.021c.034-.029.064-.063.108-.109-.079-.027-.091-.088-.1-.152a.617.617,0,0,0-.026-.185c-.008-.015.005-.04.011-.059s.025-.04.023-.058a1.765,1.765,0,0,0-.008-.262.148.148,0,0,1,0-.1.164.164,0,0,0,.011-.119.343.343,0,0,1,.014-.257.121.121,0,0,0-.006-.108.242.242,0,0,1-.016-.217.174.174,0,0,0,.008-.075,1.423,1.423,0,0,0-.038-.35.184.184,0,0,1,0-.074c0-.038.017-.074.02-.112a.9.9,0,0,0,.01-.2,1.114,1.114,0,0,1-.01-.326.374.374,0,0,0-.009-.137.885.885,0,0,1-.023-.362.331.331,0,0,0-.007-.1c-.006-.029-.021-.055-.029-.084s-.01-.062-.014-.086a.849.849,0,0,0-.407,0,.865.865,0,0,1-.347.03c-.044-.012-.089-.022-.133-.037a.276.276,0,0,0-.22.006.247.247,0,0,1-.1.024c-.063,0-.126,0-.189-.006a.293.293,0,0,1-.1-.019.3.3,0,0,0-.184-.022.349.349,0,0,1-.161-.009.21.21,0,0,0-.148,0,.174.174,0,0,1-.123,0c-.036-.011-.074-.015-.111-.026a.232.232,0,0,0-.215.034.164.164,0,0,1-.22-.01.1.1,0,0,0-.035-.015.559.559,0,0,0-.19.1.187.187,0,0,1-.173.054.248.248,0,0,0-.1.014,1.262,1.262,0,0,1-.16.033c-.092.006-.184,0-.277,0a.3.3,0,0,1-.172-.025.217.217,0,0,0-.086-.01.436.436,0,0,1-.205-.049.146.146,0,0,0-.145-.016.153.153,0,0,1-.166,0,.064.064,0,0,0-.037,0c-.141.015-.283,0-.43.013l-.042-.1a1.432,1.432,0,0,0-.166-.019c-.1,0-.2.011-.3.018-.005,0-.009.01-.012.014l.024.036c-.035.028-.064.025-.086,0a.18.18,0,0,0-.111-.05.4.4,0,0,0-.212.008.116.116,0,0,1-.1.005.671.671,0,0,0-.256-.06,1.421,1.421,0,0,0-.252.007.275.275,0,0,0-.056.025c-.07.029-.139.058-.21.084-.018.007-.042.007-.042-.033.038-.012.077-.024.116-.038a.541.541,0,0,0,.092-.039c.014-.009.02-.031.037-.059-.113-.026-.21-.067-.314-.005a.124.124,0,0,1-.119-.007.221.221,0,0,0-.216,0,.175.175,0,0,1-.123.016.532.532,0,0,0-.274.016.221.221,0,0,1-.183-.006.07.07,0,0,0-.048-.009,1.434,1.434,0,0,1-.313.032.151.151,0,0,0-.1.04c-.043.052-.114.052-.162.093a.075.075,0,0,1-.061.007.24.24,0,0,0-.171.018c-.036.013-.07.029-.1.044-.057.024-.107.021-.133-.025-.07,0-.128-.01-.186-.011a.425.425,0,0,0-.124.011.447.447,0,0,1-.174.017.089.089,0,0,0-.059.011.082.082,0,0,1-.114,0,.063.063,0,0,0-.048-.007.209.209,0,0,1-.111,0,1.166,1.166,0,0,0-.4.019.577.577,0,0,1-.309.022.55.55,0,0,0-.285-.011c-.01,0-.025-.01-.04-.017l.063-.071c-.052-.009-.093-.017-.135-.022a.232.232,0,0,0-.192.039.188.188,0,0,1-.133.051.481.481,0,0,0-.1.019.357.357,0,0,1-.186.013.346.346,0,0,0-.2.013.116.116,0,0,1-.1,0c-.006,0-.011-.011-.018-.017l.008-.053-.1-.015c-.039.089-.071.1-.223.057l.013-.076-.1-.048c-.1.031-.212.022-.265.129a.076.076,0,0,1-.02,0c-.059-.01-.118-.062-.176,0,0,.006-.024,0-.036,0a1.483,1.483,0,0,0-.4.013.358.358,0,0,1-.113,0,.639.639,0,0,0-.075-.009,2.964,2.964,0,0,1-.377,0,.552.552,0,0,1-.219-.05.77.77,0,0,1-.422.039.348.348,0,0,0-.149-.011.333.333,0,0,1-.113.006l-.009-.027c-.007-.031-.01-.062-.014-.086a.849.849,0,0,0-.407,0,.865.865,0,0,1-.347.03c-.044-.012-.089-.022-.133-.037a.276.276,0,0,0-.22.006.247.247,0,0,1-.1.024c-.063,0-.126,0-.189-.006a.293.293,0,0,1-.1-.019.3.3,0,0,0-.184-.022.349.349,0,0,1-.161-.009.21.21,0,0,0-.148,0,.174.174,0,0,1-.123,0c-.036-.011-.074-.015-.111-.026a.232.232,0,0,0-.215.034.164.164,0,0,1-.22-.01.1.1,0,0,0-.035-.015.559.559,0,0,0-.19.1.187.187,0,0,1-.173.054.131.131,0,0,0-.067.006c-.02,0-.04,0-.06,0a2.711,2.711,0,0,0-.325,0,1.824,1.824,0,0,1-.277,0,.921.921,0,0,0-.2-.007.28.28,0,0,1-.073-.027.146.146,0,0,0-.145-.016.153.153,0,0,1-.166,0,.065.065,0,0,0-.037,0c-.141.015-.283,0-.43.013l-.042-.1a1.432,1.432,0,0,0-.166-.019c-.1,0-.2.011-.3.018,0,0-.009.01-.012.014l.024.036c-.035.028-.064.025-.086,0a.18.18,0,0,0-.111-.05.4.4,0,0,0-.212.008.116.116,0,0,1-.1.005.671.671,0,0,0-.256-.06,1.421,1.421,0,0,0-.252.007.275.275,0,0,0-.056.025c-.07.029-.139.058-.21.084-.018.007-.042.007-.042-.033.038-.012.077-.024.116-.038a.541.541,0,0,0,.092-.039c.014-.009.02-.031.037-.059-.113-.026-.21-.067-.314-.005a.124.124,0,0,1-.119-.007.221.221,0,0,0-.216,0,.175.175,0,0,1-.123.016.532.532,0,0,0-.274.016.221.221,0,0,1-.183-.006.07.07,0,0,0-.048-.009,1.434,1.434,0,0,1-.313.032.151.151,0,0,0-.1.04c-.043.052-.114.052-.162.093a.075.075,0,0,1-.061.007.24.24,0,0,0-.171.018c-.036.013-.07.029-.1.044-.057.024-.107.021-.133-.025-.07,0-.128-.01-.186-.011a.425.425,0,0,0-.124.011.447.447,0,0,1-.174.017.089.089,0,0,0-.059.011.082.082,0,0,1-.114,0,.063.063,0,0,0-.048-.007.209.209,0,0,1-.111,0,1.166,1.166,0,0,0-.4.019.577.577,0,0,1-.309.022.55.55,0,0,0-.285-.011c-.01,0-.025-.01-.04-.017l.063-.071c-.052-.009-.093-.017-.135-.022a.232.232,0,0,0-.192.039.188.188,0,0,1-.133.051.481.481,0,0,0-.1.019.357.357,0,0,1-.186.013.346.346,0,0,0-.2.013.116.116,0,0,1-.1,0c-.006,0-.011-.011-.018-.017l.008-.053-.1-.015c-.039.089-.071.1-.223.057l.013-.076-.1-.048c-.1.031-.212.022-.265.129a.076.076,0,0,1-.02,0c-.059-.01-.118-.062-.176,0,0,.006-.024,0-.036,0a1.483,1.483,0,0,0-.4.013.358.358,0,0,1-.113,0,.639.639,0,0,0-.075-.009,2.964,2.964,0,0,1-.377,0,.552.552,0,0,1-.219-.05.77.77,0,0,1-.422.039.348.348,0,0,0-.149-.011.909.909,0,0,1-.25,0c-.037,0-.075-.01-.112-.008a1.506,1.506,0,0,0-.3.016.2.2,0,0,1-.1,0,.918.918,0,0,0-.251,0,1.283,1.283,0,0,1-.239.01,1.841,1.841,0,0,0-.315,0,.323.323,0,0,1-.088,0,.616.616,0,0,0-.214,0,.716.716,0,0,1-.226-.013.562.562,0,0,0-.3.007.155.155,0,0,1-.036.008,1.582,1.582,0,0,1-.239-.009,1.909,1.909,0,0,0-.378,0,1.79,1.79,0,0,1-.264,0,2.711,2.711,0,0,0-.325,0,1.824,1.824,0,0,1-.277,0,3.9,3.9,0,0,0-.39,0c-.072,0-.145-.006-.217-.012.014-.018.029-.034.043-.052a.484.484,0,0,1,.091-.1.958.958,0,0,0,.174-.162.945.945,0,0,1,.165-.152.294.294,0,0,0,.072-.085.268.268,0,0,1,.091-.1.366.366,0,0,0,.066-.058c.041-.043.076-.092.14-.1a.042.042,0,0,0,.029-.022c.021-.078.11-.1.136-.177a.788.788,0,0,0,.191-.212l.01-.008a.406.406,0,0,0,.137-.13c.053-.071.146-.1.183-.188,0-.008.021-.012.032-.016a.206.206,0,0,0,.126-.117.243.243,0,0,1,.1-.109.233.233,0,0,0,.086-.071.949.949,0,0,1,.222-.238c.043-.037.1-.047.137-.084s.059-.092.1-.132c.049-.055.124-.088.135-.174,0-.013.023-.023.035-.034a.731.731,0,0,0,.064-.06,1.449,1.449,0,0,1,.156-.147c.077-.065.153-.13.235-.189a.145.145,0,0,0,.043-.046,1.129,1.129,0,0,1,.225-.233.344.344,0,0,0,.083-.091.462.462,0,0,1,.057-.082,1.2,1.2,0,0,1,.218-.21c.026-.02.045-.052.073-.068a.355.355,0,0,1,.092-.023c.012-.1.011-.1.039-.121l.208-.181a.108.108,0,0,0,.034-.037c.032-.073.1-.112.152-.166s.1-.067.118-.127c0-.01.018-.016.028-.025q.1-.079.192-.162a.144.144,0,0,0,.039-.049.206.206,0,0,1,.081-.092.209.209,0,0,0,.067-.075.179.179,0,0,1,.088-.086.355.355,0,0,0,.146-.136.865.865,0,0,1,.2-.2.335.335,0,0,0,.083-.093.963.963,0,0,1,.229-.267,1.994,1.994,0,0,0,.179-.177c.037-.04.074-.08.114-.118s.088-.077.128-.12c.075-.08.147-.162.218-.246a.951.951,0,0,1,.232-.211.341.341,0,0,0,.06-.046c.116-.115.228-.235.347-.348a3.883,3.883,0,0,0,.3-.293c.011-.012.028-.019.04-.03a2.268,2.268,0,0,0,.208-.183c.107-.118.223-.227.319-.355a.7.7,0,0,1,.1-.093,1,1,0,0,0,.15-.132.452.452,0,0,1,.089-.086.271.271,0,0,0,.11-.117.208.208,0,0,1,.058-.065,1.245,1.245,0,0,0,.1-.081.185.185,0,0,0,.056-.094c0-.051.059-.063.065-.1.01-.067.055-.121.053-.193a.227.227,0,0,1,.067-.146c.019-.023.04-.044.057-.068a.121.121,0,0,0,.026-.055c0-.045,0-.09,0-.153a.154.154,0,0,1-.178-.037c-.05-.037-.087-.091-.15-.112-.015-.006-.024-.033-.033-.051s-.011-.045-.025-.056c-.07-.053-.111-.136-.191-.181a.144.144,0,0,1-.066-.072.159.159,0,0,0-.076-.091c-.071-.05-.148-.095-.171-.193a.127.127,0,0,0-.081-.072.239.239,0,0,1-.165-.142.208.208,0,0,0-.047-.059,1.468,1.468,0,0,0-.275-.22.187.187,0,0,1-.053-.052c-.023-.03-.041-.064-.065-.093a.9.9,0,0,0-.134-.148,1.12,1.12,0,0,1-.238-.223.359.359,0,0,0-.1-.091.9.9,0,0,1-.273-.24.277.277,0,0,0-.075-.065c-.024-.016-.054-.024-.079-.039s-.052-.037-.071-.051a.878.878,0,0,0-.288.287c-.071.092-.116.206-.224.267-.04.023-.079.047-.12.068a.278.278,0,0,0-.152.16.238.238,0,0,1-.051.085,1.851,1.851,0,0,1-.137.129.3.3,0,0,1-.082.055.306.306,0,0,0-.146.115.339.339,0,0,1-.12.107.219.219,0,0,0-.106.1.172.172,0,0,1-.085.089c-.034.018-.063.042-.1.06a.231.231,0,0,0-.128.175.163.163,0,0,1-.162.149.12.12,0,0,0-.036.015.565.565,0,0,0-.066.2.186.186,0,0,1-.085.16c-.026.015-.04.052-.059.08a1.231,1.231,0,0,1-.09.136c-.061.069-.129.132-.192.2a.3.3,0,0,1-.139.1c-.026.007-.046.035-.068.054a.447.447,0,0,1-.18.111.146.146,0,0,0-.114.09.155.155,0,0,1-.115.12.054.054,0,0,0-.029.023c-.09.11-.2.2-.3.313l-.1-.042a1.052,1.052,0,0,0-.13.1c-.071.073-.135.15-.2.227v.018l.043.008c0,.044-.028.063-.06.061a.176.176,0,0,0-.115.043.4.4,0,0,0-.144.156c-.015.031-.031.062-.066.072a.671.671,0,0,0-.223.139,1.366,1.366,0,0,0-.173.183.212.212,0,0,0-.022.058c-.029.069-.057.139-.089.207-.008.018-.025.035-.053.007.018-.036.037-.072.055-.11a.52.52,0,0,0,.037-.092c0-.017-.007-.037-.015-.068-.1.062-.2.1-.226.219-.01.042-.046.063-.089.079a.222.222,0,0,0-.156.15.168.168,0,0,1-.075.1.532.532,0,0,0-.183.2.224.224,0,0,1-.133.126.07.07,0,0,0-.041.027,1.457,1.457,0,0,1-.2.244.145.145,0,0,0-.045.1c0,.067-.044.117-.049.181a.075.075,0,0,1-.038.046.246.246,0,0,0-.109.135c-.016.034-.028.07-.042.1-.023.057-.06.09-.112.076-.052.046-.1.083-.139.124a.43.43,0,0,0-.081.095.452.452,0,0,1-.11.136.088.088,0,0,0-.034.048.082.082,0,0,1-.08.081.059.059,0,0,0-.039.029c-.016.039-.05.055-.079.079a1.167,1.167,0,0,0-.269.3.573.573,0,0,1-.2.234.572.572,0,0,0-.209.194c0,.009-.025.01-.04.016l-.006-.094c-.043.03-.078.053-.111.079a.235.235,0,0,0-.108.164.188.188,0,0,1-.058.13.39.39,0,0,0-.056.083.366.366,0,0,1-.123.141.346.346,0,0,0-.132.149.112.112,0,0,1-.07.068.069.069,0,0,1-.025,0l-.032-.043-.079.059c.035.09.018.117-.117.2l-.045-.063-.106.039c-.047.09-.135.166-.1.279l-.013.015c-.048.034-.127.039-.122.126,0,.008-.017.017-.025.026a1.454,1.454,0,0,0-.273.292.381.381,0,0,1-.081.079c-.018.016-.042.028-.059.046a2.8,2.8,0,0,1-.267.267.573.573,0,0,1-.19.12.434.434,0,0,1-.028.046.76.76,0,0,1-.243.279.361.361,0,0,0-.113.1c-.044.078-.121.115-.178.175-.026.027-.061.046-.086.074a1.576,1.576,0,0,0-.2.223.2.2,0,0,1-.069.073.858.858,0,0,0-.181.175,1.358,1.358,0,0,1-.162.176,1.949,1.949,0,0,0-.224.221c-.01.011-.021.021-.032.032a.176.176,0,0,1-.031.03.637.637,0,0,0-.154.148.692.692,0,0,1-.169.15.565.565,0,0,0-.207.216.116.116,0,0,1-.02.032,1.671,1.671,0,0,1-.174.163,1.821,1.821,0,0,0-.266.268c-.019.02-.04.038-.059.058A1.024,1.024,0,0,1,618.338,83.631Zm34.05-1.2a.387.387,0,0,1,.219-.042c-.075.037-.133.068-.194.095-.01,0-.028-.008-.042-.012C652.376,82.459,652.378,82.439,652.388,82.432Z"/><path class="cls-2" d="M308.122,83.077a.822.822,0,0,0-.219-.221c-.014-.007-.023-.024-.034-.037-.034-.037-.066-.075-.1-.11s-.072-.06-.1-.095a2.578,2.578,0,0,0-.255-.257.277.277,0,0,1-.055-.053.915.915,0,0,0-.183-.19c-.028-.025-.054-.053-.08-.08-.04-.043-.076-.09-.12-.129-.156-.141-.314-.28-.473-.419a.636.636,0,0,1-.13-.153.672.672,0,0,0-.087-.106.538.538,0,0,1-.072-.071,1.1,1.1,0,0,0-.193-.2.437.437,0,0,1-.073-.069.316.316,0,0,0-.146-.134c-.018-.007-.031-.028-.045-.043l-.077-.081c.007-.006.011-.014.019-.018h-.036l-.027-.029c-.024-.024-.052-.043-.075-.068-.05-.056-.1-.112-.146-.173a.27.27,0,0,0-.1-.095.116.116,0,0,1-.039-.031.761.761,0,0,0-.229-.193c-.057-.033-.124-.074-.14-.14a.476.476,0,0,0-.222-.264.484.484,0,0,1-.1-.091.958.958,0,0,0-.162-.174.948.948,0,0,1-.152-.165.31.31,0,0,0-.085-.072.26.26,0,0,1-.1-.091.366.366,0,0,0-.058-.066c-.043-.041-.092-.076-.1-.14a.044.044,0,0,0-.022-.029c-.078-.021-.1-.109-.177-.136a.805.805,0,0,0-.212-.191l-.008-.01a.394.394,0,0,0-.13-.136c-.071-.053-.1-.147-.188-.183-.008,0-.012-.021-.016-.033a.206.206,0,0,0-.117-.126.24.24,0,0,1-.109-.1.245.245,0,0,0-.071-.087.949.949,0,0,1-.238-.222c-.037-.043-.047-.1-.084-.137s-.092-.058-.132-.095-.088-.124-.174-.135c-.013,0-.023-.023-.034-.035s-.038-.045-.06-.064a1.449,1.449,0,0,1-.147-.156c-.064-.077-.13-.153-.189-.235a.124.124,0,0,0-.046-.042,1.134,1.134,0,0,1-.233-.226.362.362,0,0,0-.091-.083.462.462,0,0,1-.082-.057,1.232,1.232,0,0,1-.21-.217c-.02-.027-.052-.046-.068-.074a.358.358,0,0,1-.023-.091c-.1-.013-.1-.012-.121-.04-.061-.069-.12-.139-.181-.208a.118.118,0,0,0-.037-.034c-.073-.032-.112-.1-.166-.152s-.067-.1-.127-.118c-.01,0-.016-.018-.025-.027q-.079-.1-.162-.192a.133.133,0,0,0-.049-.039.215.215,0,0,1-.092-.082.206.206,0,0,0-.075-.066.186.186,0,0,1-.086-.089.355.355,0,0,0-.136-.146.865.865,0,0,1-.2-.2.321.321,0,0,0-.093-.083.963.963,0,0,1-.267-.229,1.994,1.994,0,0,0-.177-.179c-.04-.037-.08-.074-.118-.113s-.077-.089-.12-.129c-.08-.075-.162-.147-.246-.218a.951.951,0,0,1-.211-.232.3.3,0,0,0-.046-.06c-.115-.116-.235-.228-.348-.347a3.883,3.883,0,0,0-.293-.3.321.321,0,0,1-.03-.04,2.131,2.131,0,0,0-.183-.207c-.118-.107-.227-.224-.355-.32a.648.648,0,0,1-.093-.1,1.05,1.05,0,0,0-.132-.15.427.427,0,0,1-.086-.089.271.271,0,0,0-.117-.11.208.208,0,0,1-.065-.058,1.245,1.245,0,0,0-.081-.1.193.193,0,0,0-.094-.056c-.051,0-.063-.059-.1-.065-.067-.01-.121-.055-.193-.053a.226.226,0,0,1-.146-.066c-.023-.02-.044-.041-.068-.058a.121.121,0,0,0-.055-.026c-.045,0-.09,0-.153,0a.154.154,0,0,1-.037.178c-.037.05-.091.087-.112.15-.006.015-.033.024-.051.034s-.045.01-.056.024c-.053.071-.136.112-.181.191a.14.14,0,0,1-.072.066.159.159,0,0,0-.091.076c-.05.071-.095.148-.193.172a.125.125,0,0,0-.072.081.239.239,0,0,1-.142.164.191.191,0,0,0-.058.047,1.5,1.5,0,0,0-.221.275.175.175,0,0,1-.052.053c-.03.023-.064.041-.093.065a.867.867,0,0,0-.148.135,1.139,1.139,0,0,1-.223.237.349.349,0,0,0-.091.1.906.906,0,0,1-.24.272.293.293,0,0,0-.065.075c-.016.024-.024.054-.039.079a.834.834,0,0,1-.051.071.859.859,0,0,0,.287.288c.092.071.206.116.267.224.023.04.048.079.068.12a.278.278,0,0,0,.16.152.238.238,0,0,1,.085.051,1.851,1.851,0,0,1,.129.137.3.3,0,0,1,.055.082.309.309,0,0,0,.115.147.323.323,0,0,1,.107.12.213.213,0,0,0,.1.1.17.17,0,0,1,.089.086c.018.033.042.062.06.1a.231.231,0,0,0,.175.128.163.163,0,0,1,.149.162.12.12,0,0,0,.015.036.546.546,0,0,0,.2.066.186.186,0,0,1,.16.085c.015.026.052.041.08.059a1.391,1.391,0,0,1,.136.09c.069.061.132.129.2.192a.3.3,0,0,1,.1.139c.007.026.035.047.054.068a.447.447,0,0,1,.111.18.146.146,0,0,0,.09.114.155.155,0,0,1,.12.116.062.062,0,0,0,.023.029c.11.089.2.2.313.3l-.042.1a1.146,1.146,0,0,0,.1.131c.073.07.15.135.227.2h.018l.008-.043c.044,0,.063.028.061.061a.175.175,0,0,0,.043.114.393.393,0,0,0,.156.144c.031.015.062.031.072.066a.661.661,0,0,0,.139.223,1.3,1.3,0,0,0,.183.173.212.212,0,0,0,.058.022c.069.029.139.058.207.089.018.008.035.025.007.053-.036-.018-.072-.037-.11-.055a.52.52,0,0,0-.092-.037c-.016,0-.037.008-.068.015.062.1.1.2.219.226a.123.123,0,0,1,.079.09.221.221,0,0,0,.15.155.165.165,0,0,1,.1.076.553.553,0,0,0,.2.182.224.224,0,0,1,.126.133.067.067,0,0,0,.027.041,1.457,1.457,0,0,1,.244.2.15.15,0,0,0,.1.046c.067-.006.117.043.181.048a.078.078,0,0,1,.047.039.243.243,0,0,0,.134.108c.034.016.07.029.105.043.057.022.09.06.076.111.046.052.083.1.124.139a.43.43,0,0,0,.1.081.44.44,0,0,1,.136.11.088.088,0,0,0,.048.034.083.083,0,0,1,.081.081.059.059,0,0,0,.029.038c.039.016.055.05.079.079a1.249,1.249,0,0,0,.239.226,1.2,1.2,0,0,1-.18,0,.813.813,0,0,0-.311,0,.137.137,0,0,1-.049,0c-.051,0-.1-.006-.151-.006s-.093.009-.139,0a2.573,2.573,0,0,0-.362,0,.277.277,0,0,1-.076,0,.934.934,0,0,0-.264,0c-.038,0-.076,0-.113,0-.059,0-.118-.009-.176-.006-.21.01-.421.024-.631.038a.64.64,0,0,1-.2-.016.692.692,0,0,0-.137-.014.684.684,0,0,1-.1,0,1.027,1.027,0,0,0-.277,0,.419.419,0,0,1-.1,0,.319.319,0,0,0-.2.009.143.143,0,0,1-.062,0l-.176,0c-.034,0-.067.007-.1,0-.075,0-.151-.008-.225-.019a.276.276,0,0,0-.137,0,.116.116,0,0,1-.049.006.738.738,0,0,0-.3.026.266.266,0,0,1-.2,0,.471.471,0,0,0-.343-.03.518.518,0,0,1-.136.007.952.952,0,0,0-.238-.009.931.931,0,0,1-.224-.009.277.277,0,0,0-.111.01.273.273,0,0,1-.136.006.372.372,0,0,0-.088,0,.261.261,0,0,1-.171-.027.039.039,0,0,0-.036,0c-.07.04-.151,0-.221.029a.8.8,0,0,0-.285.015l-.013,0a.4.4,0,0,0-.188,0c-.088.012-.175-.032-.262,0-.009,0-.024-.006-.035-.012a.2.2,0,0,0-.172,0,.246.246,0,0,1-.147,0,.243.243,0,0,0-.112-.011.935.935,0,0,1-.325.011c-.057,0-.1-.036-.157-.036s-.106.023-.16.026c-.074,0-.15-.026-.219.027-.01.008-.032,0-.048,0s-.059,0-.088,0a1.391,1.391,0,0,1-.214-.006c-.1-.009-.2-.016-.3-.033a.135.135,0,0,0-.063,0,1.1,1.1,0,0,1-.324,0,.341.341,0,0,0-.123.006.466.466,0,0,1-.1.017,1.167,1.167,0,0,1-.3,0,.659.659,0,0,1-.1,0,.339.339,0,0,1-.082-.048c-.076.059-.076.06-.113.057-.092,0-.183-.013-.275-.019a.137.137,0,0,0-.05,0,.588.588,0,0,1-.225.01c-.058,0-.116-.021-.173.007a.094.094,0,0,1-.037,0c-.084-.008-.167-.016-.251-.022a.146.146,0,0,0-.062.008.215.215,0,0,1-.123.008.2.2,0,0,0-.1,0,.185.185,0,0,1-.123,0,.35.35,0,0,0-.2-.008.833.833,0,0,1-.286,0,.323.323,0,0,0-.124.007.969.969,0,0,1-.351.028,1.929,1.929,0,0,0-.252,0c-.054,0-.109.005-.164,0s-.117-.008-.175-.006c-.11,0-.219.011-.328.02a.974.974,0,0,1-.314-.015.315.315,0,0,0-.075-.01c-.106,0-.212,0-.318,0l-.009-.007a1.2,1.2,0,0,1-.18,0,.813.813,0,0,0-.311,0,.137.137,0,0,1-.049,0c-.051,0-.1-.006-.151-.006h-.012a1.377,1.377,0,0,0-.2-.012c-.123.006-.247.007-.37.016a1,1,0,0,0-.257,0c-.015,0-.031,0-.046,0a.56.56,0,0,0-.141-.006.467.467,0,0,1-.124,0,.277.277,0,0,0-.161,0,.209.209,0,0,1-.087,0,1.037,1.037,0,0,0-.125-.011.184.184,0,0,0-.106.027c-.009.007-.019,0-.028.007l-.1.007a.64.64,0,0,1-.2-.016.692.692,0,0,0-.137-.014.684.684,0,0,1-.1,0,1.027,1.027,0,0,0-.277,0,.419.419,0,0,1-.1,0,.319.319,0,0,0-.2.009.143.143,0,0,1-.062,0l-.176,0c-.034,0-.067.007-.1,0-.075,0-.151-.008-.225-.019a.276.276,0,0,0-.137,0,.116.116,0,0,1-.049.006.738.738,0,0,0-.3.026.266.266,0,0,1-.2,0,.471.471,0,0,0-.343-.03.518.518,0,0,1-.136.007.952.952,0,0,0-.238-.009.931.931,0,0,1-.224-.009.277.277,0,0,0-.111.01.273.273,0,0,1-.136.006.372.372,0,0,0-.088,0,.261.261,0,0,1-.171-.027.039.039,0,0,0-.036,0c-.07.04-.151,0-.221.029a.8.8,0,0,0-.285.015l-.013,0a.4.4,0,0,0-.188,0c-.088.012-.175-.032-.262,0-.009,0-.024-.006-.035-.012a.2.2,0,0,0-.172,0,.246.246,0,0,1-.147,0,.243.243,0,0,0-.112-.011.935.935,0,0,1-.325.011c-.057,0-.1-.036-.157-.036s-.106.023-.16.026c-.074,0-.15-.026-.219.027-.01.008-.032,0-.048,0s-.059,0-.088,0a1.391,1.391,0,0,1-.214-.006c-.1-.009-.2-.016-.3-.033a.135.135,0,0,0-.063,0,1.1,1.1,0,0,1-.324,0,.341.341,0,0,0-.123.006.466.466,0,0,1-.1.017,1.167,1.167,0,0,1-.3,0,.659.659,0,0,1-.1,0,.339.339,0,0,1-.082-.048c-.076.059-.076.06-.113.057-.092,0-.183-.013-.275-.019a.137.137,0,0,0-.05,0,.588.588,0,0,1-.225.01c-.058,0-.116-.021-.173.007a.094.094,0,0,1-.037,0c-.084-.008-.167-.016-.251-.022a.146.146,0,0,0-.062.008.215.215,0,0,1-.123.008.2.2,0,0,0-.1,0,.185.185,0,0,1-.123,0,.35.35,0,0,0-.2-.008.833.833,0,0,1-.286,0,.323.323,0,0,0-.124.007.969.969,0,0,1-.351.028,1.929,1.929,0,0,0-.252,0c-.054,0-.109.005-.164,0s-.117-.008-.175-.006c-.11,0-.219.011-.328.02a.974.974,0,0,1-.314-.015.315.315,0,0,0-.075-.01c-.164,0-.327,0-.491,0a4.123,4.123,0,0,0-.416,0,.413.413,0,0,1-.049-.007,2.141,2.141,0,0,0-.276-.017c-.159.007-.319,0-.477.024a.64.64,0,0,1-.138,0,1.029,1.029,0,0,0-.2-.013.467.467,0,0,1-.124,0,.277.277,0,0,0-.161,0,.209.209,0,0,1-.087,0,1.037,1.037,0,0,0-.125-.011.184.184,0,0,0-.106.027c-.039.032-.086,0-.119.027-.054.04-.124.046-.174.1A.221.221,0,0,1,269,80.8a.869.869,0,0,0-.088.007.119.119,0,0,0-.057.021c-.034.029-.064.063-.108.109.079.027.091.088.1.152a.613.613,0,0,0,.026.185c.008.015,0,.04-.011.06s-.025.039-.023.057a1.931,1.931,0,0,0,.008.263.146.146,0,0,1,0,.1.164.164,0,0,0-.011.119.343.343,0,0,1-.014.257.121.121,0,0,0,.006.108.242.242,0,0,1,.016.217.174.174,0,0,0-.008.075,1.423,1.423,0,0,0,.038.35.184.184,0,0,1,0,.074c0,.038-.017.075-.02.112a.9.9,0,0,0-.01.2,1.114,1.114,0,0,1,.01.326.374.374,0,0,0,.009.137.885.885,0,0,1,.023.362.331.331,0,0,0,.007.1c.006.029.021.056.029.084s.01.063.014.086a.849.849,0,0,0,.407,0,.865.865,0,0,1,.347-.03c.044.013.089.023.133.037a.276.276,0,0,0,.22-.006.247.247,0,0,1,.1-.024c.063,0,.126,0,.189.006a.321.321,0,0,1,.1.019.3.3,0,0,0,.184.023.324.324,0,0,1,.161.009.215.215,0,0,0,.148,0,.169.169,0,0,1,.123,0c.036.011.074.015.111.026a.234.234,0,0,0,.215-.033.163.163,0,0,1,.22.009.1.1,0,0,0,.035.015.559.559,0,0,0,.19-.1.184.184,0,0,1,.173-.053.25.25,0,0,0,.1-.015,1.105,1.105,0,0,1,.16-.032c.092-.007.184,0,.277,0a.293.293,0,0,1,.172.024.2.2,0,0,0,.086.01.448.448,0,0,1,.205.049.144.144,0,0,0,.145.016.153.153,0,0,1,.166,0,.065.065,0,0,0,.037,0c.141-.015.283,0,.43-.013l.042.1a1.243,1.243,0,0,0,.166.019c.1,0,.2-.011.3-.018,0,0,.008-.01.011-.014l-.024-.036c.035-.027.064-.025.086,0a.175.175,0,0,0,.111.05.391.391,0,0,0,.212-.008.116.116,0,0,1,.1,0,.669.669,0,0,0,.256.059,1.332,1.332,0,0,0,.252-.007c.019,0,.037-.018.056-.025.07-.029.139-.058.21-.084.018-.007.042-.007.042.033-.038.012-.077.024-.116.038a.474.474,0,0,0-.092.04c-.014.008-.02.031-.037.058.113.026.21.068.314,0a.126.126,0,0,1,.12.007.219.219,0,0,0,.215,0,.17.17,0,0,1,.123-.015.543.543,0,0,0,.274-.017.225.225,0,0,1,.183.006.07.07,0,0,0,.048.009,1.434,1.434,0,0,1,.313-.032.147.147,0,0,0,.1-.04c.044-.051.114-.052.162-.093a.071.071,0,0,1,.061-.006.246.246,0,0,0,.171-.019c.036-.013.07-.029.1-.044.057-.024.107-.021.133.025.07,0,.128.01.186.011a.462.462,0,0,0,.124-.01.43.43,0,0,1,.174-.018.089.089,0,0,0,.059-.011.082.082,0,0,1,.114,0,.063.063,0,0,0,.048.007.209.209,0,0,1,.111,0,1.166,1.166,0,0,0,.4-.019.577.577,0,0,1,.309-.022.551.551,0,0,0,.285.011c.01,0,.025.011.04.017l-.063.071c.052.009.093.018.135.022a.232.232,0,0,0,.192-.039.192.192,0,0,1,.133-.051.481.481,0,0,0,.1-.019.368.368,0,0,1,.186-.013.346.346,0,0,0,.2-.012.112.112,0,0,1,.1,0,.091.091,0,0,1,.018.017l-.008.052.1.015c.039-.089.071-.1.223-.057l-.013.076.1.048c.1-.031.212-.022.265-.129a.076.076,0,0,1,.02,0c.059.01.118.062.176,0,0-.006.024,0,.036,0a1.483,1.483,0,0,0,.4-.013.358.358,0,0,1,.113,0,.639.639,0,0,0,.075.009,2.964,2.964,0,0,1,.377,0,.588.588,0,0,1,.219.05.76.76,0,0,1,.422-.038.364.364,0,0,0,.149.011.31.31,0,0,1,.113-.007l.009.027c.007.031.01.063.014.086a.849.849,0,0,0,.407,0,.865.865,0,0,1,.347-.03c.044.013.089.023.133.037a.276.276,0,0,0,.22-.006.247.247,0,0,1,.1-.024c.063,0,.126,0,.189.006a.321.321,0,0,1,.1.019.3.3,0,0,0,.184.023.324.324,0,0,1,.161.009.215.215,0,0,0,.148,0,.169.169,0,0,1,.123,0c.036.011.074.015.111.026a.234.234,0,0,0,.215-.033.163.163,0,0,1,.22.009.1.1,0,0,0,.035.015.559.559,0,0,0,.19-.1.184.184,0,0,1,.173-.053.144.144,0,0,0,.067-.007c.02,0,.04,0,.06,0a2.711,2.711,0,0,0,.325,0,1.824,1.824,0,0,1,.277,0,.921.921,0,0,0,.2.007.28.28,0,0,1,.073.027.144.144,0,0,0,.145.016.153.153,0,0,1,.166,0,.065.065,0,0,0,.037,0c.141-.015.283,0,.43-.013l.042.1a1.243,1.243,0,0,0,.166.019c.1,0,.2-.011.3-.018,0,0,.008-.01.011-.014l-.024-.036c.035-.027.064-.025.086,0a.175.175,0,0,0,.111.05.391.391,0,0,0,.212-.008.116.116,0,0,1,.1,0,.669.669,0,0,0,.256.059,1.332,1.332,0,0,0,.252-.007c.019,0,.037-.018.056-.025.07-.029.139-.058.21-.084.018-.007.042-.007.042.033-.038.012-.077.024-.116.038a.474.474,0,0,0-.092.04c-.014.008-.02.031-.037.058.113.026.21.068.314,0a.126.126,0,0,1,.12.007.219.219,0,0,0,.215,0,.17.17,0,0,1,.123-.015.543.543,0,0,0,.274-.017.225.225,0,0,1,.183.006.07.07,0,0,0,.048.009,1.434,1.434,0,0,1,.313-.032.147.147,0,0,0,.1-.04c.044-.051.114-.052.162-.093a.071.071,0,0,1,.061-.006.246.246,0,0,0,.171-.019c.036-.013.07-.029.1-.044.057-.024.107-.021.133.025.07,0,.128.01.186.011a.462.462,0,0,0,.124-.01.43.43,0,0,1,.174-.018.089.089,0,0,0,.059-.011.082.082,0,0,1,.114,0,.063.063,0,0,0,.048.007.209.209,0,0,1,.111,0,1.166,1.166,0,0,0,.4-.019.577.577,0,0,1,.309-.022.551.551,0,0,0,.285.011c.01,0,.025.011.04.017l-.063.071c.052.009.093.018.135.022a.232.232,0,0,0,.192-.039.192.192,0,0,1,.133-.051.481.481,0,0,0,.1-.019.368.368,0,0,1,.186-.013.346.346,0,0,0,.2-.012.112.112,0,0,1,.1,0,.091.091,0,0,1,.018.017l-.008.052.1.015c.039-.089.071-.1.223-.057l-.013.076.1.048c.1-.031.212-.022.265-.129a.076.076,0,0,1,.02,0c.059.01.118.062.176,0,0-.006.024,0,.036,0a1.483,1.483,0,0,0,.4-.013.358.358,0,0,1,.113,0,.639.639,0,0,0,.075.009,2.964,2.964,0,0,1,.377,0,.588.588,0,0,1,.219.05.76.76,0,0,1,.422-.038.364.364,0,0,0,.149.011.95.95,0,0,1,.25,0c.037,0,.075.01.112.008a1.506,1.506,0,0,0,.3-.016.216.216,0,0,1,.1,0,.918.918,0,0,0,.251,0,1.374,1.374,0,0,1,.239-.01,1.841,1.841,0,0,0,.315,0,.367.367,0,0,1,.088,0,.616.616,0,0,0,.214,0,.688.688,0,0,1,.226.014.583.583,0,0,0,.3-.007.119.119,0,0,1,.036-.009,1.582,1.582,0,0,1,.239.009,1.836,1.836,0,0,0,.378,0,1.79,1.79,0,0,1,.264,0,2.711,2.711,0,0,0,.325,0,1.824,1.824,0,0,1,.277,0,3.9,3.9,0,0,0,.39,0c.072,0,.145.006.217.012-.014.018-.029.034-.043.052a.46.46,0,0,1-.091.1.958.958,0,0,0-.174.162.945.945,0,0,1-.165.152.294.294,0,0,0-.072.085.261.261,0,0,1-.091.1.336.336,0,0,0-.066.059c-.041.042-.076.091-.14.1a.042.042,0,0,0-.029.022c-.021.078-.11.1-.136.178a.77.77,0,0,0-.191.211l-.01.008a.406.406,0,0,0-.137.13c-.053.071-.146.1-.182.188,0,.008-.022.013-.033.016a.206.206,0,0,0-.126.117.243.243,0,0,1-.1.109.241.241,0,0,0-.086.071.949.949,0,0,1-.222.238c-.043.037-.1.047-.137.085s-.059.092-.1.132-.124.087-.135.173c0,.013-.023.023-.035.034s-.045.039-.064.06a1.449,1.449,0,0,1-.156.147c-.077.065-.153.13-.235.189a.145.145,0,0,0-.043.046,1.1,1.1,0,0,1-.225.233.344.344,0,0,0-.083.091.462.462,0,0,1-.057.082,1.2,1.2,0,0,1-.217.21c-.027.02-.046.052-.074.068a.355.355,0,0,1-.092.023c-.012.1-.011.1-.039.121l-.208.181a.118.118,0,0,0-.034.037c-.032.073-.1.112-.152.166s-.1.067-.118.127c0,.01-.018.017-.028.025-.064.054-.128.107-.192.162a.144.144,0,0,0-.039.049.214.214,0,0,1-.081.093.207.207,0,0,0-.067.074.179.179,0,0,1-.088.086.355.355,0,0,0-.146.136.865.865,0,0,1-.2.2.335.335,0,0,0-.083.093.963.963,0,0,1-.229.267,1.994,1.994,0,0,0-.179.177c-.037.04-.074.08-.114.118s-.088.077-.128.12c-.075.08-.147.163-.218.246a.976.976,0,0,1-.232.212.294.294,0,0,0-.06.045c-.116.116-.228.236-.347.348a3.883,3.883,0,0,0-.3.293c-.011.012-.028.019-.04.03a2.268,2.268,0,0,0-.208.183c-.106.118-.223.227-.319.355a.7.7,0,0,1-.1.093,1.057,1.057,0,0,0-.15.132.452.452,0,0,1-.089.086.271.271,0,0,0-.11.117.208.208,0,0,1-.058.065,1.245,1.245,0,0,0-.1.081.193.193,0,0,0-.056.094c0,.051-.059.063-.065.1-.01.066-.055.12-.053.192a.232.232,0,0,1-.067.147c-.019.022-.04.043-.057.067a.12.12,0,0,0-.026.056c0,.044,0,.089,0,.152a.157.157,0,0,1,.178.037.6.6,0,0,0,.15.113c.015.005.024.032.033.05s.011.045.025.056c.07.053.111.136.191.181a.144.144,0,0,1,.066.072.165.165,0,0,0,.076.092.34.34,0,0,1,.172.192.123.123,0,0,0,.08.072.241.241,0,0,1,.165.142.208.208,0,0,0,.047.059,1.429,1.429,0,0,0,.275.22.187.187,0,0,1,.053.052c.023.03.041.064.065.093a.9.9,0,0,0,.134.148,1.146,1.146,0,0,1,.238.223.358.358,0,0,0,.1.091.9.9,0,0,1,.273.24.277.277,0,0,0,.075.065c.024.017.054.024.079.039s.052.037.071.051a.868.868,0,0,0,.288-.287c.071-.091.116-.206.224-.267.04-.023.079-.047.12-.068a.275.275,0,0,0,.152-.16.238.238,0,0,1,.051-.085,1.851,1.851,0,0,1,.137-.129.319.319,0,0,1,.082-.055.306.306,0,0,0,.146-.115.349.349,0,0,1,.12-.107.211.211,0,0,0,.106-.1.166.166,0,0,1,.085-.088c.034-.018.063-.043.1-.061a.231.231,0,0,0,.128-.175.163.163,0,0,1,.162-.149.148.148,0,0,0,.036-.014.57.57,0,0,0,.066-.2.186.186,0,0,1,.085-.16c.026-.015.04-.052.059-.08a1.231,1.231,0,0,1,.09-.136c.061-.069.129-.132.192-.2a.3.3,0,0,1,.139-.1c.026-.007.046-.035.068-.054a.435.435,0,0,1,.18-.11.149.149,0,0,0,.114-.091.152.152,0,0,1,.115-.119.068.068,0,0,0,.03-.024c.089-.11.2-.2.295-.313l.1.043a1.161,1.161,0,0,0,.13-.1c.071-.072.135-.15.2-.227V91.8l-.043-.008c0-.044.028-.063.061-.061a.175.175,0,0,0,.114-.043.4.4,0,0,0,.144-.156c.015-.031.031-.062.066-.072a.671.671,0,0,0,.223-.139,1.366,1.366,0,0,0,.173-.183c.013-.014.014-.038.022-.057.029-.07.057-.14.089-.208.008-.018.025-.035.053-.006-.018.035-.037.071-.055.109a.52.52,0,0,0-.037.092c0,.017.007.037.015.068.1-.062.2-.1.226-.219.01-.042.046-.063.089-.079a.222.222,0,0,0,.156-.15.163.163,0,0,1,.075-.1.543.543,0,0,0,.183-.206.224.224,0,0,1,.133-.126.07.07,0,0,0,.041-.027,1.5,1.5,0,0,1,.2-.244.143.143,0,0,0,.045-.1c-.005-.067.044-.117.049-.18a.077.077,0,0,1,.038-.047.246.246,0,0,0,.109-.135c.016-.034.028-.07.042-.105.023-.057.06-.09.112-.076.052-.046.1-.083.139-.124a.43.43,0,0,0,.081-.095.436.436,0,0,1,.11-.135.09.09,0,0,0,.034-.049.083.083,0,0,1,.08-.081.059.059,0,0,0,.039-.029c.016-.038.05-.055.079-.079a1.167,1.167,0,0,0,.269-.3.579.579,0,0,1,.2-.234.556.556,0,0,0,.209-.194c0-.009.025-.01.04-.016l.006.094c.043-.03.078-.053.111-.079a.235.235,0,0,0,.108-.164.188.188,0,0,1,.058-.13.39.39,0,0,0,.056-.083.373.373,0,0,1,.123-.141.346.346,0,0,0,.132-.149.112.112,0,0,1,.07-.068.1.1,0,0,1,.025,0l.032.043.079-.059c-.035-.09-.018-.117.117-.2l.045.063.106-.039c.047-.09.135-.166.1-.279l.013-.015c.048-.034.127-.039.122-.126,0-.008.017-.017.025-.026a1.454,1.454,0,0,0,.273-.292.355.355,0,0,1,.081-.078c.018-.017.042-.029.059-.047a2.8,2.8,0,0,1,.267-.267.573.573,0,0,1,.19-.12.434.434,0,0,1,.028-.046.776.776,0,0,1,.243-.279.361.361,0,0,0,.113-.1c.044-.077.121-.115.178-.175.026-.027.061-.045.086-.073a1.584,1.584,0,0,0,.2-.224.219.219,0,0,1,.069-.073.879.879,0,0,0,.181-.174,1.367,1.367,0,0,1,.162-.177,1.949,1.949,0,0,0,.224-.221c.01-.011.021-.021.032-.032a.176.176,0,0,1,.031-.03.652.652,0,0,0,.154-.147.694.694,0,0,1,.169-.151.565.565,0,0,0,.207-.216.116.116,0,0,1,.02-.032,1.671,1.671,0,0,1,.174-.163,1.821,1.821,0,0,0,.266-.268c.019-.02.04-.038.059-.058A1.075,1.075,0,0,1,308.122,83.077Zm-34.05,1.2a.4.4,0,0,1-.219.043c.075-.038.134-.069.194-.1.01,0,.028.008.042.012C274.084,84.248,274.082,84.268,274.072,84.275Z"/><path class="cls-1" d="M707.246,76.514a39.5,39.5,0,0,0-2.7,8.164l-2.99-.546a39.378,39.378,0,0,1,1.17-4.16c-1.638,2-3.354,4.42-4.888,6.552-.234.832-.52,1.69-.78,2.549l-3.12-.781c.962-3.432,2.236-7.306,3.38-12.584l3.328.728a33.3,33.3,0,0,1-1.534,5.46,60.624,60.624,0,0,1,5.642-7.02Z"/><path class="cls-1" d="M710.365,84.444a11.176,11.176,0,0,0-.051,2.6c.858-.051,2.366-.051,5.772-1.742l-.286,2.262a8.812,8.812,0,0,1-5.019,1.821c-2.548,0-3.977-1.483-3.8-4.473a10.46,10.46,0,0,1,7.437-9.724l4.29,1.274a8.093,8.093,0,0,1,.364,2.314c0,2.782-2.106,4.992-5.928,4.992a18.62,18.62,0,0,1-2.626-.234A6.7,6.7,0,0,0,710.365,84.444Zm.807-2.7a7.021,7.021,0,0,0,1.326.13,3.275,3.275,0,0,0,3.432-3.3,4.67,4.67,0,0,0-.208-1.3A9.715,9.715,0,0,0,711.172,81.74Z"/><path class="cls-1" d="M722.793,86.057a9.419,9.419,0,0,0,.052,1.3,18.326,18.326,0,0,0,5.694-1.976l-.286,2.237A9.264,9.264,0,0,1,723,89.644c-1.924,0-3.666-1.144-3.666-4.107,0-4.993,3.822-9.985,8.841-9.985a4.349,4.349,0,0,1,2.834.91l-.7,2.6a4.93,4.93,0,0,0-2.055-.494C724.665,78.568,722.793,82.858,722.793,86.057Z"/><path class="cls-1" d="M740.552,77.97c-1.015.078-2.028.13-3.042.13A103.5,103.5,0,0,0,734.1,89.073l-3.017-.651c.521-2.184,1.353-5.876,2.809-10.4-1.067-.078-1.977-.156-2.548-.234l.389-2c.832.052,1.821.1,2.861.13.624-1.794,1.351-3.692,2.158-5.668l3.51,1.066c-.7,1.56-1.326,3.094-1.924,4.628.832-.052,1.689-.1,2.729-.208Z"/><path class="cls-1" d="M766.942,70.326c-3.718,6.136-7.1,12.818-10.608,18.955l-2.652-.52.025-.026-.987-.209-.052-11.206c-2.08,3.2-3.953,6.136-6.475,10.374l-1.585-.858-.338,2.523-2.991-.624,1.768-19.241,3.978-.234-2.08,15.158c2.808-4.81,4.888-8.034,7.67-12.584V70.352l3.641-.442-.313,14.43c2.471-4.94,4.915-10.036,7.593-14.82Z"/><path class="cls-1" d="M770.972,76.358a104.5,104.5,0,0,0-4.16,12.741l-3.1-.677a82.9,82.9,0,0,1,3.874-12.948Zm.779-2.418-3.12-.91a53.861,53.861,0,0,1,2.471-6.11l3.2.962C773.7,69.1,772.9,70.95,771.751,73.94Z"/><path class="cls-1" d="M788.156,69.546c-1.767,4.628-5.615,13.7-6.473,20.151l-3.172-.65a52.2,52.2,0,0,1,1.2-5.617,50.084,50.084,0,0,1-5.668,5.877c-.572-.364-1.716-.807-2.782-1.353a16.511,16.511,0,0,1-.182-2.366c0-4.784,2.5-9.152,8.5-10.764l.807,3.068c-3.952,1.2-5.955,3.51-6.032,8.294,1.923-1.872,4.757-4.732,6.5-6.578,1.013-3.068,2.313-6.526,3.952-11.076Z"/><path class="cls-1" d="M795.723,77.97c-1.015.078-2.029.13-3.042.13a103.753,103.753,0,0,0-3.407,10.973l-3.016-.651c.52-2.184,1.352-5.876,2.808-10.4-1.066-.078-1.976-.156-2.548-.234l.39-2c.832.052,1.821.1,2.861.13.624-1.794,1.351-3.692,2.157-5.668l3.511,1.066c-.7,1.56-1.327,3.094-1.924,4.628.832-.052,1.689-.1,2.729-.208Z"/><path class="cls-1" d="M809.269,77.476A52.864,52.864,0,0,0,804.8,90.347l-3.094-.728a57.594,57.594,0,0,1,2.808-9.673,76.855,76.855,0,0,0-6.4,6.084c-.338,1.222-.65,2.262-.883,3.043l-3.122-.781c.963-3.432,4.421-13.858,6.164-19.786l3.3,1.144c-.754,2.886-2.392,7.54-4.133,12.272a63.265,63.265,0,0,1,6.864-6.11Z"/><path class="cls-1" d="M124.326,76.514a39.5,39.5,0,0,0-2.7,8.164l-2.99-.546a39.378,39.378,0,0,1,1.17-4.16c-1.638,2-3.354,4.42-4.888,6.552-.234.832-.52,1.69-.78,2.549l-3.12-.781c.962-3.432,2.236-7.306,3.38-12.584l3.328.728a33.3,33.3,0,0,1-1.534,5.46,60.624,60.624,0,0,1,5.642-7.02Z"/><path class="cls-1" d="M127.445,84.444a11.176,11.176,0,0,0-.051,2.6c.858-.051,2.366-.051,5.772-1.742l-.286,2.262a8.812,8.812,0,0,1-5.019,1.821c-2.547,0-3.977-1.483-3.8-4.473a10.458,10.458,0,0,1,7.436-9.724l4.29,1.274a8.093,8.093,0,0,1,.364,2.314c0,2.782-2.106,4.992-5.928,4.992a18.62,18.62,0,0,1-2.626-.234A6.855,6.855,0,0,0,127.445,84.444Zm.807-2.7a7.021,7.021,0,0,0,1.326.13,3.275,3.275,0,0,0,3.432-3.3,4.67,4.67,0,0,0-.208-1.3A9.715,9.715,0,0,0,128.252,81.74Z"/><path class="cls-1" d="M139.873,86.057a9.419,9.419,0,0,0,.052,1.3,18.326,18.326,0,0,0,5.694-1.976l-.286,2.237a9.261,9.261,0,0,1-5.252,2.027c-1.924,0-3.666-1.144-3.666-4.107,0-4.993,3.822-9.985,8.841-9.985a4.349,4.349,0,0,1,2.834.91l-.7,2.6a4.93,4.93,0,0,0-2.055-.494C141.745,78.568,139.873,82.858,139.873,86.057Z"/><path class="cls-1" d="M157.632,77.97c-1.015.078-2.028.13-3.042.13a103.5,103.5,0,0,0-3.406,10.973l-3.017-.651c.521-2.184,1.353-5.876,2.809-10.4-1.067-.078-1.977-.156-2.548-.234l.389-2c.832.052,1.821.1,2.861.13.624-1.794,1.351-3.692,2.158-5.668l3.51,1.066c-.7,1.56-1.326,3.094-1.924,4.628.832-.052,1.689-.1,2.729-.208Z"/><path class="cls-1" d="M177.314,69.78c-2.028,6.474-3.9,12.948-5.564,19.423l-3.25-.781c.441-1.845.909-3.692,1.4-5.512-2.21.026-4.5.1-6.734.208q-.857,3.042-1.638,6.085l-3.25-.781c.416-1.716.858-3.406,1.3-5.122-.988.078-1.95.13-2.912.208l.806-3.3c.963-.078,1.976-.156,2.99-.208.988-3.64,2.028-7.254,3.12-10.894l3.511.676c-1.04,3.328-2.055,6.682-3.017,10.01,2.237-.078,4.5-.156,6.708-.182.937-3.484,1.95-6.994,3.017-10.5Z"/><path class="cls-1" d="M179.549,84.444a11.156,11.156,0,0,0-.053,2.6c.859-.051,2.366-.051,5.773-1.742l-.286,2.262a8.814,8.814,0,0,1-5.018,1.821c-2.549,0-3.979-1.483-3.8-4.473a10.459,10.459,0,0,1,7.437-9.724l4.29,1.274a8.093,8.093,0,0,1,.364,2.314c0,2.782-2.107,4.992-5.929,4.992a18.657,18.657,0,0,1-2.626-.234A6.52,6.52,0,0,0,179.549,84.444Zm.806-2.7a7.014,7.014,0,0,0,1.326.13,3.274,3.274,0,0,0,3.431-3.3,4.67,4.67,0,0,0-.208-1.3A9.712,9.712,0,0,0,180.355,81.74Z"/><path class="cls-1" d="M195.409,76.358a104.5,104.5,0,0,0-4.16,12.741l-3.095-.677a83.012,83.012,0,0,1,3.874-12.948Zm.78-2.418-3.121-.91a54.242,54.242,0,0,1,2.471-6.11l3.2.962C198.139,69.1,197.333,70.95,196.189,73.94Z"/><path class="cls-1" d="M208.045,80.934c-.52,1.144-1.872,6.422-4.472,10.921a7.246,7.246,0,0,1-6.11,3.458,7.374,7.374,0,0,1-4.082-1.144l.311-2.6a7.166,7.166,0,0,0,3.433.754c2.522,0,3.874-2.314,5.954-7.2a36.427,36.427,0,0,1-5.148,4.473c-.6-.365-1.275-.65-2.34-1.2a13.1,13.1,0,0,1-.13-2.886c.182-4.238,3.016-10.27,10.634-10.634l.832,3.068c-6.24.13-7.853,4.55-8.164,8.425a54.427,54.427,0,0,0,6.89-6.709Z"/><path class="cls-1" d="M223.541,77.476a52.906,52.906,0,0,0-4.473,12.871l-3.093-.728a57.5,57.5,0,0,1,2.808-9.673,76.855,76.855,0,0,0-6.4,6.084c-.338,1.222-.651,2.262-.885,3.043l-3.119-.781c.962-3.432,4.42-13.858,6.162-19.786l3.3,1.144c-.754,2.886-2.392,7.54-4.134,12.272a63.36,63.36,0,0,1,6.864-6.11Z"/><path class="cls-1" d="M233.706,77.97c-1.015.078-2.028.13-3.042.13a103.5,103.5,0,0,0-3.406,10.973l-3.017-.651c.521-2.184,1.353-5.876,2.809-10.4-1.067-.078-1.977-.156-2.548-.234l.39-2c.832.052,1.82.1,2.86.13.624-1.794,1.352-3.692,2.158-5.668l3.51,1.066c-.7,1.56-1.326,3.094-1.924,4.628.832-.052,1.69-.1,2.73-.208Z"/><path class="cls-3" d="M462.142,36.816a104.546,104.546,0,0,0-4.16,12.74l-3.1-.676a82.9,82.9,0,0,1,3.874-12.948Zm.779-2.419-3.12-.91a53.861,53.861,0,0,1,2.471-6.11l3.2.962C464.871,29.561,464.066,31.407,462.921,34.4Z"/><path class="cls-3" d="M476.832,37.933a42.83,42.83,0,0,0-4.213,12.377l-3.223-.546a57.944,57.944,0,0,1,2.755-9.542,70.637,70.637,0,0,0-6.266,5.434c-.338,1.352-.676,2.548-.987,3.692l-3.121-.78c.962-3.432,2.184-7.046,3.38-12.35l3.328.675a40.554,40.554,0,0,1-1.43,5.1,70.064,70.064,0,0,1,6.787-5.746Z"/><path class="cls-3" d="M487,38.428c-1.014.078-2.028.13-3.042.13a103.489,103.489,0,0,0-3.406,10.972l-3.017-.65c.521-2.184,1.353-5.876,2.809-10.4-1.067-.078-1.977-.156-2.548-.235l.39-2c.832.052,1.82.1,2.86.129.624-1.794,1.352-3.691,2.158-5.668l3.51,1.066c-.7,1.56-1.326,3.095-1.924,4.629.832-.052,1.69-.1,2.73-.208Z"/></g></svg>