<svg xmlns="http://www.w3.org/2000/svg" viewBox="0 0 952 301"><defs><style>.cls-1{fill:#f36;}.cls-2{fill:#1858a8;}.cls-3{fill:#ffeded;}</style></defs><title>manuale_ill_nuove</title><g id="solo_testo" data-name="solo testo"><path class="cls-1" d="M511.786,48.428c.067-.882-.026-1.77-.01-2.653-.131-1.542-.238-3.088-.394-4.627-.321-3.166-.922-6.3-1.471-9.428-.857-4.882-.72-7.646,1.257-13.166a10.108,10.108,0,0,0,.571-4.212c-.01-.161-.034-.346-.049-.517A63.13,63.13,0,0,1,505.5,15.1c-4.68.65-9.383,1.06-14.075,1.586-1.275.143-2.487.155-3.445-1.1-1.079-1.411-2.48-1.253-3.866-.931a16.189,16.189,0,0,0-1.974.735,8.459,8.459,0,0,1-6.514.087c-2.795-1.17-5.771-.179-8.613-.873a3.924,3.924,0,0,1-4.353-.086,1.4,1.4,0,0,0-1.188.159c-1.611.838-3.222.37-4.882.308-3.748-.139-7.582-2.062-11.266.439-.2.133-.54-.029-.815-.047-4.138-.262-8.245.684-12.422.119-3.265-.442-6.613-.03-9.924-.05a6.334,6.334,0,0,1-2.044-.382,11.137,11.137,0,0,0-8.956.412l-2.486-2.033a19.345,19.345,0,0,1-4.355.781c-3.853-.243-7.692-.755-11.539-1.127a5.332,5.332,0,0,0-4.353,1.137,3.013,3.013,0,0,1-1.875.785c-2.2-.04-4.4-.295-6.606-.39a5.68,5.68,0,0,0-2.852.234c-1.539.826-3.039.469-4.485.13a19.53,19.53,0,0,0-7.026-.11c-2.067.26-4.138.5-6.213.651a5.223,5.223,0,0,1-2.848-.2c-1.384-.781-2.573-.451-3.968-.18a65.547,65.547,0,0,1-7.419.661c-2.16-1.731-4.532-.995-6.864-.849a6.192,6.192,0,0,1-2.875-.189c-3.365-1.524-6.717-1.243-10.118-.334a17.288,17.288,0,0,1-5.408.1,2.8,2.8,0,0,1,.166,1.415c-.752,5.55.476,10.979.731,16.465A27.175,27.175,0,0,1,320.5,38.7a49.194,49.194,0,0,0-.856,10.635.88.88,0,0,1,.321.123,13.487,13.487,0,0,1,4.87,1.171,6.992,6.992,0,0,0,3.244.213c2.631-.165,5.307-1,7.742.957a73.941,73.941,0,0,0,8.371-.745c1.573-.306,2.914-.679,4.475.2a5.9,5.9,0,0,0,3.213.224c2.34-.174,4.677-.44,7.009-.734a22.034,22.034,0,0,1,7.927.124c1.63.382,3.322.785,5.059-.147a6.411,6.411,0,0,1,3.218-.264c2.485.108,4.966.4,7.451.44a3.4,3.4,0,0,0,2.116-.886,6.011,6.011,0,0,1,4.91-1.281c4.34.419,8.671,1,13.018,1.27,1.5.1,3.03-.52,4.912-.88l2.8,2.293a12.569,12.569,0,0,1,10.1-.465,7.176,7.176,0,0,0,2.305.431c3.735.022,7.512-.442,11.2.056,4.711.638,9.345-.429,14.013-.134.311.02.7.2.919.053,4.156-2.821,8.482-.652,12.71-.495,1.872.069,3.69.6,5.507-.347a1.582,1.582,0,0,1,1.34-.18,4.426,4.426,0,0,0,4.911.1c3.206.783,6.564-.335,9.717.985a9.541,9.541,0,0,0,7.348-.1,18.382,18.382,0,0,1,2.227-.828c1.562-.364,3.143-.541,4.36,1.05,1.081,1.413,2.448,1.4,3.887,1.239,3.4-.381,6.8-.732,10.192-1.112a.976.976,0,0,1,.229-.2C511.438,50.445,511.708,49.464,511.786,48.428Z"/><path class="cls-2" d="M511.669,70.246a45.375,45.375,0,0,1-.049-4.592c.015-.289.154-.648.04-.855-2.136-3.868-.494-7.892-.375-11.827.049-1.632.369-3.218-.173-4.8-3.421.343-6.844.659-10.264,1-1.439.145-2.806.157-3.887-1.11-1.217-1.428-2.8-1.268-4.36-.942a19.645,19.645,0,0,0-2.227.743,10.561,10.561,0,0,1-7.348.088c-3.153-1.183-6.511-.181-9.717-.883a4.854,4.854,0,0,1-4.911-.087,1.74,1.74,0,0,0-1.34.161c-1.817.848-3.635.374-5.507.311-4.228-.141-8.554-2.085-12.71.444-.223.136-.608-.029-.919-.047-4.668-.265-9.3.692-14.013.121-3.684-.447-7.461-.031-11.2-.051a7.9,7.9,0,0,1-2.305-.386,13.889,13.889,0,0,0-10.1.416L407.5,45.9c-1.882.323-3.414.874-4.912.789-4.347-.245-8.678-.763-13.018-1.139a6.524,6.524,0,0,0-4.91,1.149,3.61,3.61,0,0,1-2.116.8c-2.485-.041-4.966-.3-7.451-.4a7.117,7.117,0,0,0-3.218.237c-1.737.836-3.429.474-5.059.131a24.53,24.53,0,0,0-7.927-.111c-2.332.264-4.669.5-7.009.659a6.537,6.537,0,0,1-3.213-.2c-1.561-.791-2.9-.457-4.475-.182a82.646,82.646,0,0,1-8.371.668c-2.435-1.752-5.111-1.006-7.742-.858a7.782,7.782,0,0,1-3.244-.192,14.854,14.854,0,0,0-5-1.06,43.572,43.572,0,0,1,1.373,8.492,13.387,13.387,0,0,0,.357,3.023c.933,2.665,1.626,5.269-.007,7.906a59.117,59.117,0,0,1-.544,7.491c-.088.858-.16,1.717-.2,2.578a5.5,5.5,0,0,1-.7,1.252c-1.446,1.962-.915,4.3-.3,6.3.008.026.012.052.019.077.5.023,1,.074,1.494.142a32.665,32.665,0,0,1-.289,9.067,7.982,7.982,0,0,0,.333,2.947,9.043,9.043,0,0,1,.03,4.737,9.681,9.681,0,0,0,.344,6.367c.234.679.441,1.368.716,2.225a8.725,8.725,0,0,0-1.7,6.836,6.229,6.229,0,0,1-.144,1.727,37.75,37.75,0,0,0-.2,8.035l.161,0c3.171.007,6.331-.816,9.511-.141,3.242-1.091,6.557-.4,9.821-.3a15.726,15.726,0,0,0,6.125-.644,18.2,18.2,0,0,1,7.367-.758c3.091.157,6.313,1.161,9.265-.829a2.158,2.158,0,0,1,1.2-.206c1.793.044,3.774-.351,5.326.325,1.8.783,3.6.04,5.19.649,3.617,1.381,7.291.773,10.651-.172,3.515-.988,6.8-.672,10.212-.3a5.379,5.379,0,0,0,1.645.152,7.742,7.742,0,0,1,6.512,1.781c.817-.288,1.473-.506,2.119-.752a8.431,8.431,0,0,1,6.066-.36,7.856,7.856,0,0,0,4.513-.032,6.918,6.918,0,0,1,2.807-.349c4.158.89,8.286.411,12.406-.134,4.459-.591,8.8.8,13.226.678,2.512,1.713,4.993.986,7.531.006a11.746,11.746,0,0,1,2.88-.374,37.679,37.679,0,0,0,8.163-1.461c1.9-.651,4.133-1.207,6,.31a4.3,4.3,0,0,0,5.053.448,7.161,7.161,0,0,1,2.014-.487c5.5-.855,11.035-.266,16.554-.356a36.4,36.4,0,0,0,3.72.037,32.508,32.508,0,0,1,11.126.76,14.19,14.19,0,0,0,2.383.312,7.963,7.963,0,0,1-.309-3.238c.318-4.039.755-8.07.963-12.114a24.563,24.563,0,0,0-.667-4.571c.445-.67,1.061-1.594,1.736-2.61a14.145,14.145,0,0,1-.351-9.4,8.09,8.09,0,0,0,.326-2.146c.017-3.475-.334-6.989.042-10.417A52.7,52.7,0,0,0,511.669,70.246Z"/><path class="cls-3" d="M414.31,85.911c0,2.964-2.107,5.356-7.384,5.356a13.958,13.958,0,0,1-5.981-1.17l.676-2.028a12.93,12.93,0,0,0,5.512,1.092c3.537,0,4.785-1.118,4.785-3.12,0-1.69-1.144-2.886-4.524-2.886h-4.811V81.049h6.24c1.872-.754,2.523-1.742,2.523-3.12,0-2-1.353-2.756-4.082-2.756a12.016,12.016,0,0,0-5.383,1.222l-.624-1.95a13.692,13.692,0,0,1,6.188-1.378c3.848,0,6.292,1.482,6.292,4.732a4.426,4.426,0,0,1-2.574,3.978C413.348,82.583,414.31,83.779,414.31,85.911Z"/><path class="cls-3" d="M431.443,82.011c0,6.552-2.47,9.256-6.63,9.256-4.369,0-6.474-3.042-6.474-8.944,0-6.162,2.47-9.256,6.63-9.256C429.337,73.067,431.443,76.109,431.443,82.011Zm-10.661.182c0,.78.027,1.508.078,2.158l7.619-6.6a3.381,3.381,0,0,0-3.562-2.548C421.744,75.2,420.782,77.643,420.782,82.193ZM429,82.141c0-.78-.026-1.508-.078-2.158l-7.618,6.6a3.381,3.381,0,0,0,3.562,2.548C428.037,89.135,429,87.211,429,82.141Z"/><path class="cls-1" d="M642.826,214.432c.067-.754-.026-1.512-.01-2.266-.131-1.318-.238-2.639-.394-3.953-.321-2.7-.922-5.381-1.471-8.054-.857-4.171-.72-6.532,1.257-11.248a7.482,7.482,0,0,0,.571-3.6c-.01-.137-.034-.3-.049-.441-2.055.426-4.112.843-6.188,1.089-4.68.555-9.383.905-14.075,1.355-1.275.122-2.487.132-3.445-.938-1.079-1.205-2.48-1.071-3.866-.8a18.142,18.142,0,0,0-1.974.627,9.8,9.8,0,0,1-6.514.075c-2.795-1-5.771-.153-8.613-.746a4.491,4.491,0,0,1-4.353-.073,1.61,1.61,0,0,0-1.188.135c-1.611.716-3.222.316-4.882.263-3.748-.119-7.582-1.761-11.266.375-.2.114-.54-.025-.815-.04-4.138-.223-8.245.584-12.422.1-3.265-.377-6.613-.026-9.924-.043a7.293,7.293,0,0,1-2.044-.326,12.871,12.871,0,0,0-8.956.352l-2.486-1.737a22.292,22.292,0,0,1-4.355.667c-3.853-.207-7.692-.644-11.539-.962a6.009,6.009,0,0,0-4.353.971,3.3,3.3,0,0,1-1.875.67c-2.2-.034-4.4-.251-6.606-.333a6.606,6.606,0,0,0-2.852.2,6.944,6.944,0,0,1-4.485.111,22.813,22.813,0,0,0-7.026-.094c-2.067.223-4.138.424-6.213.556a6.06,6.06,0,0,1-2.848-.17c-1.384-.667-2.573-.385-3.968-.153-2.437.405-4.943.4-7.419.564-2.16-1.479-4.532-.849-6.864-.725a7.206,7.206,0,0,1-2.875-.161c-3.365-1.3-6.717-1.063-10.118-.286a20.216,20.216,0,0,1-5.408.082,2.065,2.065,0,0,1,.166,1.208c-.752,4.741.476,9.379.731,14.066a19.88,19.88,0,0,1-.272,5.36,36.074,36.074,0,0,0-.856,9.086.985.985,0,0,1,.321.1,15.447,15.447,0,0,1,4.87,1,8.15,8.15,0,0,0,3.244.182c2.631-.141,5.307-.851,7.742.818,2.794-.188,5.621-.18,8.371-.637,1.573-.262,2.914-.58,4.475.173a6.85,6.85,0,0,0,3.213.192c2.34-.149,4.677-.376,7.009-.628a25.772,25.772,0,0,1,7.927.106c1.63.327,3.322.671,5.059-.125a7.458,7.458,0,0,1,3.218-.225c2.485.092,4.966.337,7.451.376a3.724,3.724,0,0,0,2.116-.757,6.777,6.777,0,0,1,4.91-1.095c4.34.358,8.671.851,13.018,1.085a25.168,25.168,0,0,0,4.912-.752l2.8,1.959a14.528,14.528,0,0,1,10.1-.4,8.26,8.26,0,0,0,2.305.368c3.735.019,7.512-.377,11.2.048,4.711.545,9.345-.367,14.013-.114.311.017.7.174.919.045,4.156-2.41,8.482-.558,12.71-.423,1.872.059,3.69.511,5.507-.3a1.818,1.818,0,0,1,1.34-.153,5.065,5.065,0,0,0,4.911.083c3.206.669,6.564-.287,9.717.841a11.058,11.058,0,0,0,7.348-.084,20.249,20.249,0,0,1,2.227-.708c1.562-.311,3.143-.462,4.36.9,1.081,1.207,2.448,1.2,3.887,1.058,3.4-.325,6.8-.625,10.192-.949a.933.933,0,0,1,.229-.175A24.94,24.94,0,0,0,642.826,214.432Z"/><path class="cls-2" d="M642.709,238.218a41.188,41.188,0,0,1-.049-4.375c.015-.275.154-.617.04-.814-2.136-3.685-.494-7.519-.375-11.267.049-1.554.369-3.065-.173-4.574-3.421.327-6.844.629-10.264.956-1.439.138-2.806.149-3.887-1.058-1.217-1.359-2.8-1.208-4.36-.9a20.249,20.249,0,0,0-2.227.708,11.058,11.058,0,0,1-7.348.084c-3.153-1.128-6.511-.172-9.717-.841a5.065,5.065,0,0,1-4.911-.083,1.818,1.818,0,0,0-1.34.153c-1.817.808-3.635.356-5.507.3-4.228-.135-8.554-1.987-12.71.423-.223.129-.608-.028-.919-.045-4.668-.253-9.3.659-14.013.114-3.684-.425-7.461-.029-11.2-.048a8.26,8.26,0,0,1-2.305-.368,14.528,14.528,0,0,0-10.1.4l-2.8-1.959a25.168,25.168,0,0,1-4.912.752c-4.347-.234-8.678-.727-13.018-1.085a6.777,6.777,0,0,0-4.91,1.095,3.724,3.724,0,0,1-2.116.757c-2.485-.039-4.966-.284-7.451-.376a7.458,7.458,0,0,0-3.218.225c-1.737.8-3.429.452-5.059.125a25.772,25.772,0,0,0-7.927-.106c-2.332.252-4.669.479-7.009.628a6.85,6.85,0,0,1-3.213-.192c-1.561-.753-2.9-.435-4.475-.173-2.75.457-5.577.449-8.371.637-2.435-1.669-5.111-.959-7.742-.818a8.15,8.15,0,0,1-3.244-.182,15.451,15.451,0,0,0-5-1.01,39.687,39.687,0,0,1,1.373,8.089,12.18,12.18,0,0,0,.357,2.88c.933,2.539,1.626,5.019-.007,7.532a53.711,53.711,0,0,1-.544,7.136c-.088.817-.16,1.636-.2,2.456a5.2,5.2,0,0,1-.7,1.193c-1.446,1.868-.915,4.1-.3,6,.008.024.012.049.019.074.5.021,1,.07,1.494.135a29.66,29.66,0,0,1-.289,8.637,7.258,7.258,0,0,0,.333,2.807,8.222,8.222,0,0,1,.03,4.513,8.816,8.816,0,0,0,.344,6.066c.234.646.441,1.3.716,2.119a8.021,8.021,0,0,0-1.7,6.513,5.652,5.652,0,0,1-.144,1.644,34.277,34.277,0,0,0-.2,7.655l.161,0c3.171.007,6.331-.777,9.511-.134,3.242-1.04,6.557-.381,9.821-.281a16.506,16.506,0,0,0,6.125-.613,19.069,19.069,0,0,1,7.367-.723c3.091.15,6.313,1.106,9.265-.79a2.256,2.256,0,0,1,1.2-.2c1.793.042,3.774-.335,5.326.31,1.8.746,3.6.038,5.19.618,3.617,1.316,7.291.737,10.651-.163,3.515-.942,6.8-.641,10.212-.287a5.627,5.627,0,0,0,1.645.144,8.02,8.02,0,0,1,6.512,1.7c.817-.275,1.473-.482,2.119-.716a8.822,8.822,0,0,1,6.066-.344,8.222,8.222,0,0,0,4.513-.03,7.262,7.262,0,0,1,2.807-.333c4.158.849,8.286.392,12.406-.127,4.459-.563,8.8.763,13.226.646,2.512,1.632,4.993.939,7.531.006a12.3,12.3,0,0,1,2.88-.357,39.316,39.316,0,0,0,8.163-1.392c1.9-.619,4.133-1.149,6,.3a4.466,4.466,0,0,0,5.053.427,7.456,7.456,0,0,1,2.014-.464c5.5-.814,11.035-.254,16.554-.339,1.24-.02,2.5.175,3.72.035a34.06,34.06,0,0,1,11.126.724,14.91,14.91,0,0,0,2.383.3,7.247,7.247,0,0,1-.309-3.085c.318-3.847.755-7.687.963-11.54a22.37,22.37,0,0,0-.667-4.354l1.736-2.486a12.88,12.88,0,0,1-.351-8.957,7.36,7.36,0,0,0,.326-2.044c.017-3.31-.334-6.658.042-9.924A47.821,47.821,0,0,0,642.709,238.218Z"/><path class="cls-3" d="M545.767,254.236v2.133H532.975v-2.393c4.549-2.782,9.853-5.616,9.853-10.14,0-2-.884-3.276-3.847-3.276-3.225,0-4.082,1.43-4.082,3.874a4.435,4.435,0,0,0,.208,1.586l-2.471-.182a12.109,12.109,0,0,1-.1-1.664c0-3.458,2.262-5.746,6.578-5.746,5.071,0,6.163,2.808,6.163,5.148,0,4.992-4.68,7.8-7.54,9.724l-1.4.624v.312Z"/><path class="cls-3" d="M562.484,247.372c0,6.552-2.47,9.257-6.63,9.257-4.369,0-6.474-3.043-6.474-8.945,0-6.162,2.47-9.256,6.63-9.256C560.378,238.428,562.484,241.47,562.484,247.372Zm-10.661.182c0,.78.027,1.508.078,2.158l7.619-6.6a3.381,3.381,0,0,0-3.562-2.548C552.785,240.56,551.823,243,551.823,247.554Zm8.217-.052c0-.78-.026-1.508-.078-2.158l-7.618,6.6a3.38,3.38,0,0,0,3.562,2.548C559.078,254.5,560.04,252.572,560.04,247.5Z"/><path class="cls-1" d="M676.938,251.817a.833.833,0,0,0,.219.22c.014.007.023.025.034.037.034.037.066.075.1.111s.072.059.1.094a2.578,2.578,0,0,0,.255.257.277.277,0,0,1,.055.053.891.891,0,0,0,.183.19c.028.026.054.053.08.08.04.043.076.09.12.129.156.141.314.28.473.419a.636.636,0,0,1,.13.153.679.679,0,0,0,.087.107.478.478,0,0,1,.072.07,1.065,1.065,0,0,0,.193.2.4.4,0,0,1,.073.07.314.314,0,0,0,.146.133c.018.007.031.028.045.043l.077.081a.081.081,0,0,1-.019.018h.026l.01,0,.027.028c.024.024.052.043.075.068.05.056.1.113.146.173a.27.27,0,0,0,.1.095.116.116,0,0,1,.039.031.761.761,0,0,0,.229.193c.057.033.124.074.14.14a.476.476,0,0,0,.222.264.484.484,0,0,1,.1.091.958.958,0,0,0,.162.174.948.948,0,0,1,.152.165.31.31,0,0,0,.085.072.268.268,0,0,1,.1.091.366.366,0,0,0,.058.066c.043.041.092.076.1.14a.044.044,0,0,0,.022.029c.078.021.1.11.177.136a.805.805,0,0,0,.212.191l.008.01a.394.394,0,0,0,.13.136c.071.054.1.147.188.183.008,0,.012.021.016.033a.206.206,0,0,0,.117.126.246.246,0,0,1,.109.1.237.237,0,0,0,.071.087.949.949,0,0,1,.238.222c.037.043.047.1.084.137s.092.059.132.1.088.124.174.135c.013,0,.023.023.034.035a.731.731,0,0,0,.06.064,1.449,1.449,0,0,1,.147.156c.064.077.13.153.189.235a.135.135,0,0,0,.046.043,1.129,1.129,0,0,1,.233.225.344.344,0,0,0,.091.083.462.462,0,0,1,.082.057,1.232,1.232,0,0,1,.21.217c.02.027.052.046.068.074a.358.358,0,0,1,.023.091c.1.013.1.012.121.04.061.069.12.139.181.208a.118.118,0,0,0,.037.034c.073.032.112.1.166.152s.067.1.127.118c.01,0,.016.018.025.028q.08.1.162.192a.144.144,0,0,0,.049.039.214.214,0,0,1,.093.081.2.2,0,0,0,.074.067.179.179,0,0,1,.086.088.355.355,0,0,0,.136.146.865.865,0,0,1,.2.2.321.321,0,0,0,.093.083.963.963,0,0,1,.267.229,1.994,1.994,0,0,0,.177.179c.04.037.08.074.118.114s.077.088.12.128c.08.075.162.147.246.218a.976.976,0,0,1,.212.232.262.262,0,0,0,.045.06c.115.116.235.228.348.347a3.883,3.883,0,0,0,.293.3c.012.011.019.028.03.04a2.268,2.268,0,0,0,.183.208c.118.106.227.223.355.319a.648.648,0,0,1,.093.1,1,1,0,0,0,.132.15.452.452,0,0,1,.086.089.271.271,0,0,0,.117.11.208.208,0,0,1,.065.058,1.245,1.245,0,0,0,.081.1.185.185,0,0,0,.094.056c.051,0,.063.059.1.065.066.01.12.055.192.053a.227.227,0,0,1,.147.067c.022.019.043.04.067.057a.12.12,0,0,0,.056.026c.044,0,.089,0,.152,0a.154.154,0,0,1,.037-.178c.037-.05.091-.087.112-.15.006-.015.033-.024.051-.033s.045-.011.056-.025c.053-.07.136-.111.181-.191a.14.14,0,0,1,.072-.066.165.165,0,0,0,.092-.076.34.34,0,0,1,.192-.172.125.125,0,0,0,.072-.08.239.239,0,0,1,.142-.165.191.191,0,0,0,.058-.047,1.465,1.465,0,0,0,.221-.275.175.175,0,0,1,.052-.053c.03-.023.064-.041.093-.065a.867.867,0,0,0,.148-.135,1.139,1.139,0,0,1,.223-.237.345.345,0,0,0,.091-.1.9.9,0,0,1,.24-.273.293.293,0,0,0,.065-.075c.016-.024.024-.054.039-.079s.037-.052.051-.071a.868.868,0,0,0-.287-.288c-.092-.071-.206-.116-.267-.224-.023-.04-.048-.079-.068-.12a.278.278,0,0,0-.16-.152.238.238,0,0,1-.085-.051,1.851,1.851,0,0,1-.129-.137.3.3,0,0,1-.055-.082.306.306,0,0,0-.115-.146.339.339,0,0,1-.107-.12.215.215,0,0,0-.1-.106.172.172,0,0,1-.089-.085c-.018-.034-.042-.063-.06-.1a.231.231,0,0,0-.175-.128.163.163,0,0,1-.149-.162.12.12,0,0,0-.015-.036.565.565,0,0,0-.2-.066.186.186,0,0,1-.16-.085c-.015-.026-.052-.04-.08-.059a1.391,1.391,0,0,1-.136-.09c-.069-.061-.132-.129-.2-.192a.3.3,0,0,1-.1-.139c-.007-.026-.035-.046-.054-.068a.447.447,0,0,1-.111-.18.146.146,0,0,0-.09-.114.155.155,0,0,1-.12-.115.06.06,0,0,0-.023-.03c-.11-.089-.2-.2-.313-.295l.042-.1a1.146,1.146,0,0,0-.1-.131c-.072-.07-.15-.135-.227-.2h-.018l-.008.043c-.044,0-.063-.028-.061-.06a.176.176,0,0,0-.043-.115.393.393,0,0,0-.156-.144c-.031-.015-.062-.031-.072-.066a.671.671,0,0,0-.139-.223,1.366,1.366,0,0,0-.183-.173.212.212,0,0,0-.058-.022c-.069-.029-.139-.057-.207-.089-.018-.008-.035-.025-.007-.053.036.018.072.037.11.055a.52.52,0,0,0,.092.037c.017,0,.037-.008.068-.015-.062-.1-.1-.2-.219-.226-.042-.01-.063-.046-.079-.089a.222.222,0,0,0-.15-.156.168.168,0,0,1-.1-.075.532.532,0,0,0-.205-.183.224.224,0,0,1-.126-.133.07.07,0,0,0-.027-.041,1.5,1.5,0,0,1-.244-.2.15.15,0,0,0-.1-.046c-.067.006-.117-.043-.181-.048a.078.078,0,0,1-.047-.039.243.243,0,0,0-.134-.108c-.034-.016-.07-.028-.105-.042-.057-.023-.09-.061-.076-.112-.046-.052-.083-.1-.124-.139a.43.43,0,0,0-.095-.081.44.44,0,0,1-.136-.11.088.088,0,0,0-.048-.034.083.083,0,0,1-.081-.081.059.059,0,0,0-.029-.038c-.039-.016-.055-.05-.079-.079a1.249,1.249,0,0,0-.239-.226,1.352,1.352,0,0,1,.18,0,.813.813,0,0,0,.311,0,.164.164,0,0,1,.049,0c.051,0,.1.006.151.006s.093-.009.139,0a2.573,2.573,0,0,0,.362,0,.277.277,0,0,1,.076,0,.934.934,0,0,0,.264,0c.038,0,.076,0,.113,0,.059,0,.118.009.176.007.21-.011.421-.025.631-.038a.611.611,0,0,1,.2.015.625.625,0,0,0,.137.014.684.684,0,0,1,.1,0,1.027,1.027,0,0,0,.277,0,.479.479,0,0,1,.1,0,.319.319,0,0,0,.2-.009.161.161,0,0,1,.062,0c.059,0,.117.005.176.005.034,0,.067-.006.1-.005.075,0,.151.008.225.019a.265.265,0,0,0,.137,0,.116.116,0,0,1,.049-.006.738.738,0,0,0,.3-.026.261.261,0,0,1,.2,0,.478.478,0,0,0,.344.029.47.47,0,0,1,.135-.006.951.951,0,0,0,.238.008.985.985,0,0,1,.224.009.3.3,0,0,0,.111-.009.262.262,0,0,1,.136-.007.372.372,0,0,0,.088,0,.255.255,0,0,1,.171.028.042.042,0,0,0,.036,0c.07-.04.151,0,.221-.029a.8.8,0,0,0,.285-.014h.013a.412.412,0,0,0,.188,0c.088-.013.175.031.262,0,.009,0,.024.006.035.012a.207.207,0,0,0,.172.006.239.239,0,0,1,.147-.006.243.243,0,0,0,.112.011.935.935,0,0,1,.325-.011c.057,0,.1.037.157.037s.106-.024.16-.027c.074,0,.15.026.219-.027.01-.008.032,0,.048,0s.059,0,.088,0a1.53,1.53,0,0,1,.214.006c.1.009.2.016.3.033a.134.134,0,0,0,.063,0,1.1,1.1,0,0,1,.324-.006.341.341,0,0,0,.123-.006.466.466,0,0,1,.1-.017,1.166,1.166,0,0,1,.3,0,.659.659,0,0,1,.1,0,.339.339,0,0,1,.082.048c.076-.058.076-.06.113-.057.092,0,.183.013.275.019a.118.118,0,0,0,.05,0,.632.632,0,0,1,.225-.01c.058,0,.116.021.173-.007a.08.08,0,0,1,.037,0c.084.007.167.015.251.021a.162.162,0,0,0,.062-.007.207.207,0,0,1,.123-.009.2.2,0,0,0,.1,0,.179.179,0,0,1,.123,0,.359.359,0,0,0,.2.007.833.833,0,0,1,.286,0,.323.323,0,0,0,.124-.007.991.991,0,0,1,.351-.027,2.121,2.121,0,0,0,.252,0c.054,0,.109,0,.164,0s.117.009.175.006c.11,0,.219-.011.328-.02a1,1,0,0,1,.314.015.316.316,0,0,0,.075.011h.318l.009.007a1.352,1.352,0,0,1,.18,0,.813.813,0,0,0,.311,0,.164.164,0,0,1,.049,0c.051,0,.1.006.151.006h.012a1.379,1.379,0,0,0,.2.013c.123-.007.247-.008.37-.017a1,1,0,0,0,.257,0h.046a.56.56,0,0,0,.141.006.428.428,0,0,1,.124,0,.277.277,0,0,0,.161-.006.21.21,0,0,1,.087,0c.042,0,.083.012.125.01a.177.177,0,0,0,.106-.027c.009-.007.019,0,.028-.007l.1-.006a.611.611,0,0,1,.2.015.625.625,0,0,0,.137.014.684.684,0,0,1,.1,0,1.027,1.027,0,0,0,.277,0,.479.479,0,0,1,.1,0,.319.319,0,0,0,.2-.009.161.161,0,0,1,.062,0c.059,0,.117.005.176.005.034,0,.067-.006.1-.005.075,0,.151.008.225.019a.265.265,0,0,0,.137,0,.116.116,0,0,1,.049-.006.738.738,0,0,0,.3-.026.261.261,0,0,1,.2,0,.478.478,0,0,0,.344.029.47.47,0,0,1,.135-.006.951.951,0,0,0,.238.008.985.985,0,0,1,.224.009.3.3,0,0,0,.111-.009.262.262,0,0,1,.136-.007.372.372,0,0,0,.088,0,.255.255,0,0,1,.171.028.042.042,0,0,0,.036,0c.07-.04.151,0,.221-.029a.8.8,0,0,0,.285-.014h.013a.412.412,0,0,0,.188,0c.088-.013.175.031.262,0,.009,0,.024.006.035.012a.207.207,0,0,0,.172.006.239.239,0,0,1,.147-.006.243.243,0,0,0,.112.011.935.935,0,0,1,.325-.011c.057,0,.1.037.157.037s.106-.024.16-.027c.074,0,.15.026.219-.027.01-.008.032,0,.049,0s.058,0,.087,0a1.53,1.53,0,0,1,.214.006c.1.009.2.016.3.033a.134.134,0,0,0,.063,0,1.1,1.1,0,0,1,.324-.006.341.341,0,0,0,.123-.006.466.466,0,0,1,.1-.017,1.166,1.166,0,0,1,.3,0,.677.677,0,0,1,.1,0,.353.353,0,0,1,.081.048c.076-.058.076-.06.113-.057.092,0,.183.013.275.019a.118.118,0,0,0,.05,0,.632.632,0,0,1,.225-.01c.058,0,.116.021.173-.007a.08.08,0,0,1,.037,0c.084.007.167.015.251.021a.162.162,0,0,0,.062-.007.207.207,0,0,1,.123-.009.2.2,0,0,0,.1,0,.179.179,0,0,1,.123,0,.359.359,0,0,0,.2.007.833.833,0,0,1,.286,0,.323.323,0,0,0,.124-.007.991.991,0,0,1,.351-.027,2.121,2.121,0,0,0,.252,0c.054,0,.109,0,.164,0s.117.009.175.006c.11,0,.219-.011.328-.02a1,1,0,0,1,.314.015.316.316,0,0,0,.075.011c.164,0,.327-.006.491,0a3.849,3.849,0,0,0,.416,0,.413.413,0,0,1,.049.007,2.339,2.339,0,0,0,.276.018c.159-.008.319,0,.477-.025a.583.583,0,0,1,.138.006,1.028,1.028,0,0,0,.2.012.428.428,0,0,1,.124,0,.277.277,0,0,0,.161-.006.21.21,0,0,1,.087,0c.042,0,.083.012.125.01a.177.177,0,0,0,.106-.027c.039-.032.086,0,.119-.027.054-.04.124-.046.174-.1a.225.225,0,0,1,.151-.057.869.869,0,0,0,.088-.007.119.119,0,0,0,.057-.021c.034-.029.064-.063.108-.109-.079-.027-.091-.088-.1-.152a.617.617,0,0,0-.026-.185c-.008-.015,0-.04.011-.059s.025-.04.023-.058a1.765,1.765,0,0,0-.008-.262.148.148,0,0,1,0-.1.164.164,0,0,0,.011-.119.343.343,0,0,1,.014-.257.121.121,0,0,0-.006-.108.242.242,0,0,1-.016-.217.174.174,0,0,0,.008-.075,1.423,1.423,0,0,0-.038-.35.184.184,0,0,1,0-.074c0-.038.017-.074.02-.112a.9.9,0,0,0,.01-.2,1.114,1.114,0,0,1-.01-.326.374.374,0,0,0-.009-.137.885.885,0,0,1-.023-.362.331.331,0,0,0-.007-.1c-.006-.029-.021-.055-.029-.084s-.01-.063-.014-.086a.849.849,0,0,0-.407,0,.865.865,0,0,1-.347.03c-.044-.012-.089-.022-.133-.037a.276.276,0,0,0-.22.006.247.247,0,0,1-.1.024c-.063,0-.126,0-.189-.006a.293.293,0,0,1-.1-.019.3.3,0,0,0-.184-.022.349.349,0,0,1-.161-.009.21.21,0,0,0-.148,0,.174.174,0,0,1-.123,0c-.036-.011-.074-.015-.111-.026a.232.232,0,0,0-.215.034.164.164,0,0,1-.22-.01.1.1,0,0,0-.035-.015.559.559,0,0,0-.19.1.187.187,0,0,1-.173.054.248.248,0,0,0-.1.014,1.262,1.262,0,0,1-.16.033c-.092.006-.184,0-.277,0a.3.3,0,0,1-.172-.025.217.217,0,0,0-.086-.01.436.436,0,0,1-.205-.049.146.146,0,0,0-.145-.016.153.153,0,0,1-.166,0,.064.064,0,0,0-.037,0c-.141.015-.283,0-.43.013l-.042-.1a1.432,1.432,0,0,0-.166-.019c-.1,0-.2.011-.3.018,0,0-.009.01-.012.014l.024.036c-.035.028-.064.025-.086,0a.18.18,0,0,0-.111-.05.4.4,0,0,0-.212.008.116.116,0,0,1-.1,0,.671.671,0,0,0-.256-.06,1.421,1.421,0,0,0-.252.007.275.275,0,0,0-.056.025c-.07.029-.139.058-.21.084-.018.007-.042.007-.042-.033.038-.012.077-.024.116-.038a.541.541,0,0,0,.092-.039c.014-.009.02-.031.037-.059-.113-.026-.21-.067-.314,0a.124.124,0,0,1-.119-.007.221.221,0,0,0-.216,0,.175.175,0,0,1-.123.016.532.532,0,0,0-.274.016.221.221,0,0,1-.183-.006.07.07,0,0,0-.048-.009,1.434,1.434,0,0,1-.313.032.151.151,0,0,0-.1.04c-.043.052-.114.052-.162.093a.075.075,0,0,1-.061.007.24.24,0,0,0-.171.018c-.036.013-.07.029-.1.044-.057.024-.107.021-.133-.025-.07,0-.128-.01-.186-.011a.425.425,0,0,0-.124.011.447.447,0,0,1-.174.017.089.089,0,0,0-.059.011.082.082,0,0,1-.114,0,.063.063,0,0,0-.048-.007.209.209,0,0,1-.111,0,1.166,1.166,0,0,0-.4.019.577.577,0,0,1-.309.022.55.55,0,0,0-.285-.011c-.01,0-.025-.01-.04-.017l.063-.071c-.052-.009-.093-.017-.135-.022a.232.232,0,0,0-.192.039.188.188,0,0,1-.133.051.481.481,0,0,0-.1.019.368.368,0,0,1-.186.013.355.355,0,0,0-.2.012.112.112,0,0,1-.1,0c-.006,0-.011-.011-.018-.017l.008-.053-.1-.015c-.039.089-.071.1-.223.057l.013-.076-.1-.048c-.1.031-.212.022-.265.129a.076.076,0,0,1-.02,0c-.059-.01-.118-.062-.176,0-.005.006-.024,0-.036,0a1.483,1.483,0,0,0-.4.013.358.358,0,0,1-.113,0,.639.639,0,0,0-.075-.009,2.964,2.964,0,0,1-.377,0,.552.552,0,0,1-.219-.05.77.77,0,0,1-.422.039.348.348,0,0,0-.149-.011.333.333,0,0,1-.113.006l-.009-.027c-.007-.031-.01-.063-.014-.086a.849.849,0,0,0-.407,0,.865.865,0,0,1-.347.03c-.044-.012-.089-.022-.133-.037a.276.276,0,0,0-.22.006.247.247,0,0,1-.1.024c-.063,0-.126,0-.189-.006a.293.293,0,0,1-.1-.019.3.3,0,0,0-.184-.022.349.349,0,0,1-.161-.009.21.21,0,0,0-.148,0,.174.174,0,0,1-.123,0c-.036-.011-.074-.015-.111-.026a.232.232,0,0,0-.215.034.164.164,0,0,1-.22-.01.1.1,0,0,0-.035-.015.559.559,0,0,0-.19.1.187.187,0,0,1-.173.054.131.131,0,0,0-.067.006c-.02,0-.04,0-.06,0a2.711,2.711,0,0,0-.325,0,1.824,1.824,0,0,1-.277,0,.921.921,0,0,0-.2-.007.28.28,0,0,1-.073-.027.146.146,0,0,0-.145-.016.153.153,0,0,1-.166,0,.065.065,0,0,0-.037,0c-.141.015-.283,0-.43.013l-.042-.1a1.432,1.432,0,0,0-.166-.019c-.1,0-.2.011-.3.018,0,0-.009.01-.012.014l.024.036c-.035.028-.064.025-.086,0a.18.18,0,0,0-.111-.05.4.4,0,0,0-.212.008.116.116,0,0,1-.1,0,.671.671,0,0,0-.256-.06,1.421,1.421,0,0,0-.252.007.275.275,0,0,0-.056.025c-.07.029-.139.058-.21.084-.018.007-.042.007-.042-.033.038-.012.077-.024.116-.038a.541.541,0,0,0,.092-.039c.014-.009.02-.031.037-.059-.113-.026-.21-.067-.314,0a.124.124,0,0,1-.119-.007.221.221,0,0,0-.216,0,.175.175,0,0,1-.123.016.532.532,0,0,0-.274.016.221.221,0,0,1-.183-.006.07.07,0,0,0-.048-.009,1.434,1.434,0,0,1-.313.032.151.151,0,0,0-.1.04c-.043.052-.114.052-.162.093a.075.075,0,0,1-.061.007.24.24,0,0,0-.171.018c-.036.013-.07.029-.1.044-.057.024-.107.021-.133-.025-.07,0-.128-.01-.186-.011a.425.425,0,0,0-.124.011.447.447,0,0,1-.174.017.089.089,0,0,0-.059.011.082.082,0,0,1-.114,0,.063.063,0,0,0-.048-.007.209.209,0,0,1-.111,0,1.166,1.166,0,0,0-.4.019.577.577,0,0,1-.309.022.55.55,0,0,0-.285-.011c-.01,0-.025-.01-.04-.017l.063-.071c-.052-.009-.093-.017-.135-.022a.232.232,0,0,0-.192.039.188.188,0,0,1-.133.051.481.481,0,0,0-.1.019.368.368,0,0,1-.186.013.355.355,0,0,0-.2.012.112.112,0,0,1-.1,0c-.006,0-.011-.011-.018-.017l.008-.053-.1-.015c-.039.089-.071.1-.223.057l.013-.076-.1-.048c-.1.031-.212.022-.265.129a.076.076,0,0,1-.02,0c-.059-.01-.118-.062-.176,0,0,.006-.024,0-.036,0a1.483,1.483,0,0,0-.4.013.358.358,0,0,1-.113,0,.639.639,0,0,0-.075-.009,2.964,2.964,0,0,1-.377,0,.552.552,0,0,1-.219-.05.77.77,0,0,1-.422.039.348.348,0,0,0-.149-.011.909.909,0,0,1-.25,0c-.037,0-.075-.01-.112-.008a1.506,1.506,0,0,0-.3.016.2.2,0,0,1-.1,0,.918.918,0,0,0-.251,0,1.283,1.283,0,0,1-.239.01,1.841,1.841,0,0,0-.315,0,.323.323,0,0,1-.088,0,.616.616,0,0,0-.214,0,.716.716,0,0,1-.226-.013.562.562,0,0,0-.3.007.155.155,0,0,1-.036.008,1.582,1.582,0,0,1-.239-.009,1.909,1.909,0,0,0-.378,0,1.79,1.79,0,0,1-.264,0,2.711,2.711,0,0,0-.325,0,1.824,1.824,0,0,1-.277,0,3.9,3.9,0,0,0-.39,0c-.072,0-.145-.006-.217-.012.014-.018.029-.034.043-.052a.484.484,0,0,1,.091-.1.958.958,0,0,0,.174-.162.945.945,0,0,1,.165-.152.294.294,0,0,0,.072-.085.268.268,0,0,1,.091-.1.366.366,0,0,0,.066-.058c.041-.043.076-.092.14-.1a.042.042,0,0,0,.029-.022c.021-.078.11-.1.136-.177a.788.788,0,0,0,.191-.212l.01-.008a.406.406,0,0,0,.137-.13c.053-.071.146-.1.183-.188,0-.008.021-.013.032-.016a.206.206,0,0,0,.126-.117.243.243,0,0,1,.1-.109.233.233,0,0,0,.086-.071.949.949,0,0,1,.222-.238c.043-.037.1-.047.137-.084s.059-.092.1-.132.124-.088.135-.174c0-.013.023-.023.035-.034a.731.731,0,0,0,.064-.06,1.449,1.449,0,0,1,.156-.147c.077-.065.153-.13.235-.189a.145.145,0,0,0,.043-.046,1.129,1.129,0,0,1,.225-.233.344.344,0,0,0,.083-.091.462.462,0,0,1,.057-.082,1.2,1.2,0,0,1,.218-.21c.026-.02.045-.052.073-.068a.355.355,0,0,1,.092-.023c.012-.1.011-.1.039-.121l.208-.181a.118.118,0,0,0,.034-.037c.032-.073.1-.112.152-.166s.1-.067.118-.127c0-.01.018-.016.028-.025l.192-.162a.144.144,0,0,0,.039-.049.214.214,0,0,1,.081-.093.2.2,0,0,0,.067-.074.179.179,0,0,1,.088-.086.355.355,0,0,0,.146-.136.865.865,0,0,1,.2-.2.335.335,0,0,0,.083-.093.963.963,0,0,1,.229-.267,1.994,1.994,0,0,0,.179-.177c.037-.04.074-.08.114-.118s.088-.077.128-.12c.075-.08.147-.162.218-.246a.951.951,0,0,1,.232-.211.341.341,0,0,0,.06-.046c.116-.115.228-.235.347-.348a3.883,3.883,0,0,0,.295-.293c.011-.012.028-.019.04-.03a2.268,2.268,0,0,0,.208-.183c.107-.118.223-.227.319-.355a.7.7,0,0,1,.1-.093,1,1,0,0,0,.15-.132.452.452,0,0,1,.089-.086.271.271,0,0,0,.11-.117.208.208,0,0,1,.058-.065,1.245,1.245,0,0,0,.1-.081.185.185,0,0,0,.056-.094c0-.051.059-.063.065-.1.01-.067.055-.121.053-.193a.227.227,0,0,1,.067-.146c.019-.023.04-.044.057-.068a.12.12,0,0,0,.026-.056c0-.044,0-.089,0-.152a.154.154,0,0,1-.178-.037c-.05-.037-.087-.091-.15-.112-.015-.006-.024-.033-.033-.051s-.011-.045-.025-.056c-.07-.053-.111-.136-.191-.181a.144.144,0,0,1-.066-.072.159.159,0,0,0-.076-.091c-.071-.05-.148-.095-.171-.193a.127.127,0,0,0-.081-.072.239.239,0,0,1-.165-.142.208.208,0,0,0-.047-.059,1.468,1.468,0,0,0-.275-.22.187.187,0,0,1-.053-.052c-.023-.03-.041-.064-.065-.093a.9.9,0,0,0-.134-.148,1.12,1.12,0,0,1-.238-.223.359.359,0,0,0-.1-.091.9.9,0,0,1-.273-.24.277.277,0,0,0-.075-.065c-.024-.016-.054-.024-.079-.039s-.052-.037-.071-.051a.878.878,0,0,0-.288.287c-.071.092-.116.206-.224.267-.04.023-.079.047-.12.068a.278.278,0,0,0-.152.16.238.238,0,0,1-.051.085,1.851,1.851,0,0,1-.137.129.3.3,0,0,1-.082.055.306.306,0,0,0-.146.115.339.339,0,0,1-.12.107.219.219,0,0,0-.106.1.172.172,0,0,1-.085.089c-.034.018-.063.042-.1.06a.231.231,0,0,0-.128.175.163.163,0,0,1-.162.149.12.12,0,0,0-.036.015.565.565,0,0,0-.066.2.186.186,0,0,1-.085.16c-.026.015-.04.052-.059.08a1.231,1.231,0,0,1-.09.136c-.061.069-.129.132-.192.2a.3.3,0,0,1-.139.1c-.026.007-.046.035-.068.054a.447.447,0,0,1-.18.111.146.146,0,0,0-.114.09.155.155,0,0,1-.115.12.054.054,0,0,0-.029.023c-.09.11-.2.2-.3.313l-.1-.043a1.161,1.161,0,0,0-.13.1c-.071.073-.135.15-.2.227v.018l.043.008c0,.044-.028.063-.06.061a.176.176,0,0,0-.115.043.4.4,0,0,0-.144.156c-.015.031-.031.062-.066.072a.671.671,0,0,0-.223.139,1.366,1.366,0,0,0-.173.183.212.212,0,0,0-.022.058c-.029.069-.057.139-.089.207-.008.018-.025.035-.053.007.018-.036.037-.072.055-.11a.52.52,0,0,0,.037-.092c0-.017-.007-.037-.015-.068-.1.062-.2.1-.226.219-.01.042-.046.063-.089.079a.222.222,0,0,0-.156.15.168.168,0,0,1-.075.1.532.532,0,0,0-.183.205.224.224,0,0,1-.133.126.07.07,0,0,0-.041.027,1.5,1.5,0,0,1-.2.244.143.143,0,0,0-.045.1c0,.067-.044.117-.049.181a.075.075,0,0,1-.038.046.246.246,0,0,0-.109.135c-.016.034-.028.07-.042.1-.023.057-.06.09-.112.076-.052.046-.1.083-.139.124a.43.43,0,0,0-.081.095.452.452,0,0,1-.11.136.088.088,0,0,0-.034.048.082.082,0,0,1-.08.081.059.059,0,0,0-.039.029c-.016.039-.05.055-.079.079a1.167,1.167,0,0,0-.269.3.573.573,0,0,1-.2.234.572.572,0,0,0-.209.194c0,.009-.025.01-.04.016l-.006-.094c-.043.03-.078.053-.111.079a.235.235,0,0,0-.108.164.188.188,0,0,1-.058.13.39.39,0,0,0-.056.083.366.366,0,0,1-.123.141.346.346,0,0,0-.132.149.112.112,0,0,1-.07.068.069.069,0,0,1-.025,0l-.032-.043-.079.059c.035.09.018.117-.117.2l-.045-.063-.106.039c-.047.09-.135.166-.1.279l-.013.015c-.048.034-.127.039-.122.126,0,.008-.017.017-.025.026a1.454,1.454,0,0,0-.273.292.381.381,0,0,1-.081.079c-.018.016-.042.028-.059.046a2.8,2.8,0,0,1-.267.267.573.573,0,0,1-.19.12.434.434,0,0,1-.028.046.76.76,0,0,1-.243.279.361.361,0,0,0-.113.1c-.044.078-.121.115-.178.175-.026.027-.061.046-.086.074a1.576,1.576,0,0,0-.2.223.2.2,0,0,1-.069.073.858.858,0,0,0-.181.175,1.358,1.358,0,0,1-.162.176,1.949,1.949,0,0,0-.224.221c-.01.011-.021.021-.032.032a.176.176,0,0,1-.031.03.637.637,0,0,0-.154.148.692.692,0,0,1-.169.15.565.565,0,0,0-.207.216.116.116,0,0,1-.02.032,1.671,1.671,0,0,1-.174.163,1.821,1.821,0,0,0-.266.268c-.019.02-.04.038-.059.058A1.024,1.024,0,0,1,676.938,251.817Zm34.05-1.2a.387.387,0,0,1,.219-.042c-.075.037-.133.068-.194.095-.01,0-.028-.008-.042-.012C710.976,250.645,710.978,250.625,710.988,250.618Z"/><path class="cls-1" d="M283.522,74.462a.833.833,0,0,0-.219-.22c-.014-.007-.023-.024-.034-.037-.034-.037-.066-.075-.1-.11s-.072-.06-.1-.095a2.578,2.578,0,0,0-.255-.257.277.277,0,0,1-.055-.053.891.891,0,0,0-.183-.19c-.028-.025-.054-.053-.08-.08-.04-.043-.076-.09-.12-.129-.156-.141-.314-.28-.473-.419a.636.636,0,0,1-.13-.153.672.672,0,0,0-.087-.106.538.538,0,0,1-.072-.071,1.065,1.065,0,0,0-.193-.2.437.437,0,0,1-.073-.069.316.316,0,0,0-.146-.134c-.018-.007-.031-.028-.045-.043l-.077-.081c.007-.006.011-.014.019-.018h-.036l-.027-.029c-.024-.024-.052-.043-.075-.068-.05-.056-.1-.112-.146-.173a.27.27,0,0,0-.1-.095.116.116,0,0,1-.039-.031.761.761,0,0,0-.229-.193c-.057-.033-.124-.074-.14-.14a.476.476,0,0,0-.222-.264.484.484,0,0,1-.1-.091.958.958,0,0,0-.162-.174.948.948,0,0,1-.152-.165.31.31,0,0,0-.085-.072.26.26,0,0,1-.1-.091.366.366,0,0,0-.058-.066c-.043-.041-.092-.076-.1-.14a.044.044,0,0,0-.022-.029c-.078-.021-.1-.11-.177-.136a.805.805,0,0,0-.212-.191l-.008-.01a.394.394,0,0,0-.13-.136c-.071-.053-.1-.147-.188-.183-.008,0-.012-.021-.016-.033a.206.206,0,0,0-.117-.126.24.24,0,0,1-.109-.1.245.245,0,0,0-.071-.087.949.949,0,0,1-.238-.222c-.037-.043-.047-.1-.084-.137s-.092-.058-.132-.095-.088-.124-.174-.135c-.013,0-.023-.023-.034-.035s-.038-.045-.06-.064a1.449,1.449,0,0,1-.147-.156c-.064-.077-.13-.153-.189-.235a.124.124,0,0,0-.046-.042,1.161,1.161,0,0,1-.233-.226.362.362,0,0,0-.091-.083.462.462,0,0,1-.082-.057,1.232,1.232,0,0,1-.21-.217c-.02-.027-.052-.046-.068-.074a.358.358,0,0,1-.023-.091c-.1-.013-.1-.012-.121-.04-.061-.069-.12-.139-.181-.208a.118.118,0,0,0-.037-.034c-.073-.032-.112-.1-.166-.152s-.067-.1-.127-.118c-.01,0-.016-.018-.025-.027-.053-.065-.107-.129-.162-.193a.141.141,0,0,0-.049-.038.215.215,0,0,1-.092-.082.206.206,0,0,0-.075-.066.186.186,0,0,1-.086-.089.355.355,0,0,0-.136-.146.865.865,0,0,1-.2-.2.321.321,0,0,0-.093-.083.963.963,0,0,1-.267-.229,1.994,1.994,0,0,0-.177-.179c-.04-.037-.08-.074-.118-.113s-.077-.089-.12-.129c-.08-.075-.162-.147-.246-.218a.951.951,0,0,1-.211-.232.3.3,0,0,0-.046-.06c-.115-.116-.235-.228-.348-.347a3.883,3.883,0,0,0-.293-.3.321.321,0,0,1-.03-.04,2.131,2.131,0,0,0-.183-.207c-.118-.107-.227-.224-.355-.32a.648.648,0,0,1-.093-.1,1,1,0,0,0-.132-.15.427.427,0,0,1-.086-.089.271.271,0,0,0-.117-.11.208.208,0,0,1-.065-.058,1.245,1.245,0,0,0-.081-.1.193.193,0,0,0-.094-.056c-.051-.005-.063-.059-.1-.065-.067-.01-.121-.055-.193-.053a.222.222,0,0,1-.146-.067c-.023-.019-.044-.04-.068-.057a.121.121,0,0,0-.055-.026c-.045,0-.09,0-.153,0a.154.154,0,0,1-.037.178c-.037.05-.091.087-.112.15-.006.015-.033.024-.051.034s-.045.01-.056.024c-.053.071-.136.111-.181.191a.14.14,0,0,1-.072.066.159.159,0,0,0-.091.076c-.05.071-.1.148-.193.172a.125.125,0,0,0-.072.081.239.239,0,0,1-.142.164.191.191,0,0,0-.058.047,1.5,1.5,0,0,0-.221.275.175.175,0,0,1-.052.053c-.03.023-.064.041-.093.065a.867.867,0,0,0-.148.135,1.139,1.139,0,0,1-.223.237.349.349,0,0,0-.091.1.906.906,0,0,1-.24.272.293.293,0,0,0-.065.075c-.016.024-.024.054-.039.079a.834.834,0,0,1-.051.071.859.859,0,0,0,.287.288c.092.071.206.116.267.224.023.04.048.079.068.12a.278.278,0,0,0,.16.152.238.238,0,0,1,.085.051,1.851,1.851,0,0,1,.129.137.3.3,0,0,1,.055.082.309.309,0,0,0,.115.147.323.323,0,0,1,.107.12.217.217,0,0,0,.1.105.17.17,0,0,1,.089.086c.018.033.042.062.06.1a.231.231,0,0,0,.175.128.163.163,0,0,1,.149.162.12.12,0,0,0,.015.036.546.546,0,0,0,.2.066.186.186,0,0,1,.16.085c.015.026.052.041.08.059a1.391,1.391,0,0,1,.136.09c.069.061.132.129.2.192a.3.3,0,0,1,.1.139c.007.026.035.047.054.068a.447.447,0,0,1,.111.18.146.146,0,0,0,.09.114.155.155,0,0,1,.12.115.06.06,0,0,0,.023.03c.11.089.2.2.313.295l-.042.1a1.146,1.146,0,0,0,.1.131c.073.07.15.135.227.2h.018l.008-.043c.044.005.063.028.061.061a.175.175,0,0,0,.043.114.393.393,0,0,0,.156.144c.031.015.062.031.072.066a.671.671,0,0,0,.139.223,1.3,1.3,0,0,0,.183.173.212.212,0,0,0,.058.022c.069.029.139.058.207.089.018.008.035.025.007.053l-.11-.055a.52.52,0,0,0-.092-.037c-.016,0-.037.008-.068.015.062.1.1.2.219.226a.123.123,0,0,1,.079.09.221.221,0,0,0,.15.155.165.165,0,0,1,.1.076.553.553,0,0,0,.2.182.224.224,0,0,1,.126.133.07.07,0,0,0,.027.041,1.457,1.457,0,0,1,.244.2.15.15,0,0,0,.1.046c.067-.006.117.043.181.048a.078.078,0,0,1,.047.039.243.243,0,0,0,.134.108c.034.016.07.029.1.043.057.022.09.06.076.111.046.052.083.1.124.139a.43.43,0,0,0,.095.081.44.44,0,0,1,.136.11.088.088,0,0,0,.048.034.083.083,0,0,1,.081.081.059.059,0,0,0,.029.038c.039.016.055.05.079.079a1.249,1.249,0,0,0,.239.226,1.2,1.2,0,0,1-.18,0,.813.813,0,0,0-.311,0,.137.137,0,0,1-.049,0c-.051,0-.1-.006-.151-.006s-.093.009-.139.005a2.573,2.573,0,0,0-.362,0,.277.277,0,0,1-.076,0,.934.934,0,0,0-.264-.005c-.038,0-.076,0-.113,0-.059,0-.118-.009-.176-.006-.21.01-.421.024-.631.038a.64.64,0,0,1-.2-.016.692.692,0,0,0-.137-.014.684.684,0,0,1-.1,0,1.027,1.027,0,0,0-.277,0,.419.419,0,0,1-.1,0,.319.319,0,0,0-.2.009.143.143,0,0,1-.062,0l-.176,0c-.034,0-.067.007-.1,0-.075,0-.151-.008-.225-.019a.276.276,0,0,0-.137,0,.116.116,0,0,1-.049.006.738.738,0,0,0-.3.026.266.266,0,0,1-.2,0,.471.471,0,0,0-.343-.03.518.518,0,0,1-.136.007.952.952,0,0,0-.238-.009.931.931,0,0,1-.224-.009.3.3,0,0,0-.111.009.262.262,0,0,1-.136.007.372.372,0,0,0-.088-.005.261.261,0,0,1-.171-.027.039.039,0,0,0-.036,0c-.07.04-.151,0-.221.029a.8.8,0,0,0-.285.015l-.013,0a.4.4,0,0,0-.188,0c-.088.012-.175-.032-.262,0-.009,0-.024-.006-.035-.012a.2.2,0,0,0-.172,0,.246.246,0,0,1-.147,0,.243.243,0,0,0-.112-.011.935.935,0,0,1-.325.011c-.057,0-.1-.036-.157-.036s-.106.023-.16.026c-.074,0-.15-.026-.219.027-.01.008-.032,0-.048,0s-.059,0-.088,0a1.53,1.53,0,0,1-.214-.006c-.1-.009-.2-.016-.3-.033a.135.135,0,0,0-.063,0,1.1,1.1,0,0,1-.324,0,.341.341,0,0,0-.123.006.466.466,0,0,1-.1.017,1.167,1.167,0,0,1-.3-.005.659.659,0,0,1-.1,0,.339.339,0,0,1-.082-.048c-.076.058-.076.06-.113.057-.092-.005-.183-.013-.275-.019a.137.137,0,0,0-.05,0,.588.588,0,0,1-.225.01c-.058,0-.116-.021-.173.007a.094.094,0,0,1-.037,0c-.084-.008-.167-.016-.251-.022a.146.146,0,0,0-.062.008.215.215,0,0,1-.123.008.2.2,0,0,0-.1.005.185.185,0,0,1-.123,0,.35.35,0,0,0-.2-.008.833.833,0,0,1-.286,0,.323.323,0,0,0-.124.007.947.947,0,0,1-.351.027,2.121,2.121,0,0,0-.252,0c-.054,0-.109,0-.164,0s-.117-.008-.175-.006c-.11,0-.219.011-.328.02a.974.974,0,0,1-.314-.015.316.316,0,0,0-.075-.011h-.318l-.009-.007a1.2,1.2,0,0,1-.18,0,.813.813,0,0,0-.311,0,.137.137,0,0,1-.049,0c-.051,0-.1-.006-.151-.006h-.012a1.377,1.377,0,0,0-.2-.012c-.123.006-.247.007-.37.016a1,1,0,0,0-.257,0c-.015,0-.031,0-.046,0a.56.56,0,0,0-.141-.006.467.467,0,0,1-.124,0,.277.277,0,0,0-.161,0,.194.194,0,0,1-.087,0c-.041,0-.083-.012-.125-.01a.184.184,0,0,0-.106.027c-.009.007-.019.005-.028.007l-.1.007a.64.64,0,0,1-.2-.016.692.692,0,0,0-.137-.014.684.684,0,0,1-.1,0,1.027,1.027,0,0,0-.277,0,.419.419,0,0,1-.1,0,.319.319,0,0,0-.2.009A.143.143,0,0,1,258,72l-.176,0c-.034,0-.067.007-.1,0-.075,0-.151-.008-.225-.019a.276.276,0,0,0-.137,0,.116.116,0,0,1-.049.006.738.738,0,0,0-.3.026.266.266,0,0,1-.2,0,.471.471,0,0,0-.343-.03.518.518,0,0,1-.136.007.952.952,0,0,0-.238-.009.931.931,0,0,1-.224-.009.3.3,0,0,0-.111.009.262.262,0,0,1-.136.007.372.372,0,0,0-.088-.005.261.261,0,0,1-.171-.027.039.039,0,0,0-.036,0c-.07.04-.151,0-.221.029a.8.8,0,0,0-.285.015l-.013,0a.4.4,0,0,0-.188,0c-.088.012-.175-.032-.262,0-.009,0-.024-.006-.035-.012a.2.2,0,0,0-.172,0,.246.246,0,0,1-.147,0,.243.243,0,0,0-.112-.011.935.935,0,0,1-.325.011c-.057,0-.1-.036-.157-.036s-.106.023-.16.026c-.074,0-.15-.026-.219.027-.01.008-.032,0-.048,0s-.059,0-.088,0a1.53,1.53,0,0,1-.214-.006c-.1-.009-.2-.016-.3-.033a.135.135,0,0,0-.063,0,1.1,1.1,0,0,1-.324,0,.341.341,0,0,0-.123.006.466.466,0,0,1-.1.017,1.167,1.167,0,0,1-.3-.005.659.659,0,0,1-.1,0,.339.339,0,0,1-.082-.048c-.076.058-.076.06-.113.057-.092-.005-.183-.013-.275-.019a.137.137,0,0,0-.05,0,.588.588,0,0,1-.225.01c-.058,0-.116-.021-.173.007a.094.094,0,0,1-.037,0c-.084-.008-.167-.016-.251-.022a.146.146,0,0,0-.062.008.215.215,0,0,1-.123.008.2.2,0,0,0-.1.005.185.185,0,0,1-.123,0,.35.35,0,0,0-.2-.008.833.833,0,0,1-.286,0,.323.323,0,0,0-.124.007.947.947,0,0,1-.351.027,2.121,2.121,0,0,0-.252,0c-.054,0-.109,0-.164,0s-.117-.008-.175-.006c-.11,0-.219.011-.328.02a.974.974,0,0,1-.314-.015A.316.316,0,0,0,247.5,72c-.164,0-.327.006-.491,0a4.123,4.123,0,0,0-.416,0,.413.413,0,0,1-.049-.007,2.141,2.141,0,0,0-.276-.017c-.159.007-.319,0-.477.024a.64.64,0,0,1-.138,0,1.029,1.029,0,0,0-.2-.013.467.467,0,0,1-.124,0,.277.277,0,0,0-.161,0,.194.194,0,0,1-.087,0c-.041,0-.083-.012-.125-.01a.184.184,0,0,0-.106.027c-.039.032-.086,0-.119.027-.054.04-.124.046-.174.1a.221.221,0,0,1-.151.057.869.869,0,0,0-.088.007.119.119,0,0,0-.057.021c-.034.029-.064.063-.108.109.079.027.091.088.1.152a.613.613,0,0,0,.026.185c.008.015-.005.04-.011.06s-.025.039-.023.057a1.912,1.912,0,0,0,.008.262.148.148,0,0,1,0,.1.164.164,0,0,0-.011.119.343.343,0,0,1-.014.257.121.121,0,0,0,.006.108.242.242,0,0,1,.016.217.174.174,0,0,0-.008.075,1.423,1.423,0,0,0,.038.35.184.184,0,0,1,0,.074c0,.038-.017.075-.02.112a.9.9,0,0,0-.01.2,1.114,1.114,0,0,1,.01.326.374.374,0,0,0,.009.137.885.885,0,0,1,.023.362.331.331,0,0,0,.007.1c.006.029.021.056.029.084s.01.063.014.086a.849.849,0,0,0,.407,0,.865.865,0,0,1,.347-.03c.044.013.089.023.133.037a.276.276,0,0,0,.22-.006.247.247,0,0,1,.1-.024c.063,0,.126,0,.189.006a.321.321,0,0,1,.1.019.3.3,0,0,0,.184.023.324.324,0,0,1,.161.009.215.215,0,0,0,.148,0,.169.169,0,0,1,.123,0c.036.011.074.015.111.026a.234.234,0,0,0,.215-.033.163.163,0,0,1,.22.009.1.1,0,0,0,.035.015.559.559,0,0,0,.19-.1.184.184,0,0,1,.173-.053.269.269,0,0,0,.1-.015,1.105,1.105,0,0,1,.16-.032c.092-.007.184,0,.277,0a.293.293,0,0,1,.172.024.2.2,0,0,0,.086.01.436.436,0,0,1,.205.049.144.144,0,0,0,.145.016.153.153,0,0,1,.166,0,.065.065,0,0,0,.037,0c.141-.015.283,0,.43-.013l.042.1a1.243,1.243,0,0,0,.166.019c.1,0,.2-.011.3-.018,0,0,.008-.01.011-.014l-.024-.036c.035-.028.064-.025.086,0a.175.175,0,0,0,.111.05.391.391,0,0,0,.212-.008.116.116,0,0,1,.1,0,.669.669,0,0,0,.256.059,1.332,1.332,0,0,0,.252-.007c.019,0,.037-.018.056-.025.07-.029.139-.058.21-.084.018-.007.042-.007.042.033-.038.012-.077.024-.116.038a.474.474,0,0,0-.092.04c-.014.008-.02.031-.037.058.113.026.21.068.314,0a.126.126,0,0,1,.12.007.219.219,0,0,0,.215,0,.17.17,0,0,1,.123-.015.543.543,0,0,0,.274-.017.225.225,0,0,1,.183.006.07.07,0,0,0,.048.009,1.434,1.434,0,0,1,.313-.032.147.147,0,0,0,.1-.04c.044-.051.114-.052.162-.093a.071.071,0,0,1,.061-.006.246.246,0,0,0,.171-.019c.036-.013.07-.029.1-.044.057-.024.107-.021.133.025.07,0,.128.01.186.011a.462.462,0,0,0,.124-.01.43.43,0,0,1,.174-.018.089.089,0,0,0,.059-.011.082.082,0,0,1,.114,0,.063.063,0,0,0,.048.007.209.209,0,0,1,.111,0,1.166,1.166,0,0,0,.4-.019.577.577,0,0,1,.309-.022.551.551,0,0,0,.285.011c.01,0,.025.011.04.017l-.063.071c.052.009.093.017.135.022a.232.232,0,0,0,.192-.039.188.188,0,0,1,.133-.051.481.481,0,0,0,.1-.019.368.368,0,0,1,.186-.013.355.355,0,0,0,.2-.012.112.112,0,0,1,.1,0,.091.091,0,0,1,.018.017l-.008.052.1.015c.039-.089.071-.1.223-.057l-.013.076.1.048c.1-.031.212-.022.265-.129a.076.076,0,0,1,.02,0c.059.01.118.062.176,0,0-.006.024,0,.036,0a1.483,1.483,0,0,0,.4-.013.358.358,0,0,1,.113,0,.639.639,0,0,0,.075.009,2.964,2.964,0,0,1,.377,0,.588.588,0,0,1,.219.05.76.76,0,0,1,.422-.038.382.382,0,0,0,.149.011.31.31,0,0,1,.113-.007l.009.027c.007.031.01.063.014.086a.849.849,0,0,0,.407,0,.865.865,0,0,1,.347-.03c.044.013.089.023.133.037a.276.276,0,0,0,.22-.006.247.247,0,0,1,.1-.024c.063,0,.126,0,.189.006a.321.321,0,0,1,.1.019.3.3,0,0,0,.184.023.324.324,0,0,1,.161.009.215.215,0,0,0,.148,0,.169.169,0,0,1,.123,0c.036.011.074.015.111.026a.234.234,0,0,0,.215-.033.163.163,0,0,1,.22.009.1.1,0,0,0,.035.015.559.559,0,0,0,.19-.1.184.184,0,0,1,.173-.053.144.144,0,0,0,.067-.007c.02,0,.04,0,.06,0a2.711,2.711,0,0,0,.325,0,1.824,1.824,0,0,1,.277,0,.921.921,0,0,0,.2.007.28.28,0,0,1,.073.027.144.144,0,0,0,.145.016.153.153,0,0,1,.166,0,.065.065,0,0,0,.037,0c.141-.015.283,0,.43-.013l.042.1a1.243,1.243,0,0,0,.166.019c.1,0,.2-.011.3-.018,0,0,.008-.01.011-.014l-.024-.036c.035-.028.064-.025.086,0a.175.175,0,0,0,.111.05.391.391,0,0,0,.212-.008.116.116,0,0,1,.1,0,.669.669,0,0,0,.256.059,1.332,1.332,0,0,0,.252-.007c.019,0,.037-.018.056-.025.07-.029.139-.058.21-.084.018-.007.042-.007.042.033-.038.012-.077.024-.116.038a.474.474,0,0,0-.092.04c-.014.008-.02.031-.037.058.113.026.21.068.314,0a.126.126,0,0,1,.12.007.219.219,0,0,0,.215,0,.17.17,0,0,1,.123-.015.543.543,0,0,0,.274-.017.225.225,0,0,1,.183.006.07.07,0,0,0,.048.009,1.434,1.434,0,0,1,.313-.032.147.147,0,0,0,.1-.04c.044-.051.114-.052.162-.093a.071.071,0,0,1,.061-.006.246.246,0,0,0,.171-.019c.036-.013.07-.029.1-.044.057-.024.107-.021.133.025.07,0,.128.01.186.011a.462.462,0,0,0,.124-.01.43.43,0,0,1,.174-.018.089.089,0,0,0,.059-.011.082.082,0,0,1,.114,0,.063.063,0,0,0,.048.007.209.209,0,0,1,.111,0,1.166,1.166,0,0,0,.4-.019.577.577,0,0,1,.309-.022.551.551,0,0,0,.285.011c.01,0,.025.011.04.017l-.063.071c.052.009.093.017.135.022a.232.232,0,0,0,.192-.039.188.188,0,0,1,.133-.051.481.481,0,0,0,.1-.019.368.368,0,0,1,.186-.013.355.355,0,0,0,.2-.012.112.112,0,0,1,.1,0,.091.091,0,0,1,.018.017l-.008.052.1.015c.039-.089.071-.1.223-.057l-.013.076.1.048c.1-.031.212-.022.265-.129a.076.076,0,0,1,.02,0c.059.01.118.062.176,0,.005-.006.024,0,.036,0a1.483,1.483,0,0,0,.4-.013.358.358,0,0,1,.113,0,.639.639,0,0,0,.075.009,2.964,2.964,0,0,1,.377,0,.588.588,0,0,1,.219.05.76.76,0,0,1,.422-.038.382.382,0,0,0,.149.011.95.95,0,0,1,.25,0c.037,0,.075.01.112.008a1.506,1.506,0,0,0,.3-.016.216.216,0,0,1,.1,0,.918.918,0,0,0,.251,0,1.374,1.374,0,0,1,.239-.01,1.841,1.841,0,0,0,.315,0,.322.322,0,0,1,.088,0,.616.616,0,0,0,.214,0,.688.688,0,0,1,.226.014.583.583,0,0,0,.3-.007.119.119,0,0,1,.036-.009,1.582,1.582,0,0,1,.239.009,1.836,1.836,0,0,0,.378,0,1.79,1.79,0,0,1,.264,0,2.711,2.711,0,0,0,.325,0,1.824,1.824,0,0,1,.277,0,3.9,3.9,0,0,0,.39,0c.072.005.145.006.217.012-.014.018-.029.034-.043.052a.484.484,0,0,1-.091.1.958.958,0,0,0-.174.162.945.945,0,0,1-.165.152.294.294,0,0,0-.072.085.261.261,0,0,1-.091.1.366.366,0,0,0-.066.058c-.041.043-.076.092-.14.1a.042.042,0,0,0-.029.022c-.021.078-.11.1-.136.177a.788.788,0,0,0-.191.212l-.01.008a.406.406,0,0,0-.137.13c-.053.071-.146.1-.182.188,0,.008-.022.013-.033.016a.206.206,0,0,0-.126.117.243.243,0,0,1-.1.109.241.241,0,0,0-.086.071.949.949,0,0,1-.222.238c-.043.037-.1.047-.137.085s-.059.092-.095.131c-.049.055-.124.088-.135.174,0,.013-.023.023-.035.034s-.045.039-.064.06a1.449,1.449,0,0,1-.156.147c-.077.065-.153.13-.235.189a.145.145,0,0,0-.043.046,1.1,1.1,0,0,1-.225.233.344.344,0,0,0-.083.091.462.462,0,0,1-.057.082,1.232,1.232,0,0,1-.217.21c-.027.02-.046.052-.074.068a.355.355,0,0,1-.092.023c-.012.1-.011.1-.039.121l-.208.181a.118.118,0,0,0-.034.037c-.032.073-.1.112-.152.166s-.1.067-.118.127c0,.01-.018.017-.028.025l-.192.162a.144.144,0,0,0-.039.049.214.214,0,0,1-.081.093.207.207,0,0,0-.067.074.179.179,0,0,1-.088.086.355.355,0,0,0-.146.136.865.865,0,0,1-.2.2.335.335,0,0,0-.083.093.963.963,0,0,1-.229.267,1.994,1.994,0,0,0-.179.177c-.037.04-.074.08-.114.118s-.088.077-.128.12c-.075.08-.147.163-.218.246a.976.976,0,0,1-.232.212.294.294,0,0,0-.06.045c-.116.116-.228.235-.347.348a3.883,3.883,0,0,0-.295.293c-.011.012-.028.019-.04.03a2.268,2.268,0,0,0-.208.183c-.106.118-.223.227-.319.355a.7.7,0,0,1-.1.093,1.057,1.057,0,0,0-.15.132.452.452,0,0,1-.089.086.271.271,0,0,0-.11.117.208.208,0,0,1-.058.065,1.245,1.245,0,0,0-.1.081.193.193,0,0,0-.056.094c0,.051-.059.063-.065.1-.01.066-.055.12-.053.192a.232.232,0,0,1-.067.147c-.019.022-.04.043-.057.067a.12.12,0,0,0-.026.056c0,.044,0,.089,0,.152a.157.157,0,0,1,.178.037.6.6,0,0,0,.15.113c.015,0,.024.032.033.05s.011.045.025.056c.07.053.111.136.191.181a.144.144,0,0,1,.066.072.165.165,0,0,0,.076.092.34.34,0,0,1,.172.192.123.123,0,0,0,.08.072.241.241,0,0,1,.165.142.208.208,0,0,0,.047.059,1.429,1.429,0,0,0,.275.22.187.187,0,0,1,.053.052c.023.03.041.064.065.093a.9.9,0,0,0,.134.148,1.146,1.146,0,0,1,.238.223.358.358,0,0,0,.1.091.9.9,0,0,1,.273.24.277.277,0,0,0,.075.065c.024.017.054.024.079.039s.052.037.071.051a.868.868,0,0,0,.288-.287c.071-.091.116-.206.224-.267.04-.023.079-.047.12-.068a.275.275,0,0,0,.152-.16.238.238,0,0,1,.051-.085,1.851,1.851,0,0,1,.137-.129.319.319,0,0,1,.082-.055.306.306,0,0,0,.146-.115.349.349,0,0,1,.12-.107.211.211,0,0,0,.106-.1.172.172,0,0,1,.085-.089c.034-.018.063-.042.1-.06a.231.231,0,0,0,.128-.175.163.163,0,0,1,.162-.149.148.148,0,0,0,.036-.014.57.57,0,0,0,.066-.2.186.186,0,0,1,.085-.16c.026-.015.04-.052.059-.08a1.231,1.231,0,0,1,.09-.136c.061-.069.129-.132.192-.2a.3.3,0,0,1,.139-.1c.026-.007.046-.035.068-.054a.435.435,0,0,1,.18-.11.149.149,0,0,0,.114-.091.152.152,0,0,1,.115-.119.068.068,0,0,0,.03-.024c.089-.11.2-.2.3-.313l.1.043a1.161,1.161,0,0,0,.13-.1c.071-.072.135-.15.2-.227v-.018l-.043-.008c0-.044.028-.063.061-.061a.175.175,0,0,0,.114-.043.4.4,0,0,0,.144-.156c.015-.031.031-.062.066-.072a.671.671,0,0,0,.223-.139,1.366,1.366,0,0,0,.173-.183c.013-.014.014-.038.022-.058.029-.069.057-.139.089-.207.008-.018.025-.035.053-.006-.018.035-.037.071-.055.109a.52.52,0,0,0-.037.092c0,.017.007.037.015.068.1-.062.2-.1.226-.219.01-.042.046-.063.089-.079a.222.222,0,0,0,.156-.15.163.163,0,0,1,.075-.1.543.543,0,0,0,.183-.206.224.224,0,0,1,.133-.126.07.07,0,0,0,.041-.027,1.5,1.5,0,0,1,.2-.244.143.143,0,0,0,.045-.1c0-.067.044-.117.049-.18a.077.077,0,0,1,.038-.047.246.246,0,0,0,.109-.135c.016-.034.028-.07.042-.1.023-.057.06-.09.112-.076.052-.046.1-.083.139-.124a.43.43,0,0,0,.081-.095.436.436,0,0,1,.11-.135.09.09,0,0,0,.034-.049.083.083,0,0,1,.08-.081.059.059,0,0,0,.039-.029c.016-.038.05-.055.079-.079a1.167,1.167,0,0,0,.269-.3.579.579,0,0,1,.2-.234.556.556,0,0,0,.209-.194c0-.009.025-.01.04-.016l.006.094c.043-.03.078-.053.111-.079a.235.235,0,0,0,.108-.164.188.188,0,0,1,.058-.13.39.39,0,0,0,.056-.083.373.373,0,0,1,.123-.141.346.346,0,0,0,.132-.149.112.112,0,0,1,.07-.068.1.1,0,0,1,.025,0l.032.043.079-.059c-.035-.09-.018-.117.117-.2l.045.063.106-.039c.047-.09.135-.166.1-.279l.013-.015c.048-.034.127-.039.122-.126,0-.008.017-.017.025-.026a1.454,1.454,0,0,0,.273-.292.355.355,0,0,1,.081-.078c.018-.017.042-.029.059-.047a2.8,2.8,0,0,1,.267-.267.573.573,0,0,1,.19-.12.434.434,0,0,1,.028-.046.776.776,0,0,1,.243-.279.361.361,0,0,0,.113-.1c.044-.077.121-.115.178-.175.026-.027.061-.045.086-.073a1.584,1.584,0,0,0,.2-.224.219.219,0,0,1,.069-.073.879.879,0,0,0,.181-.174,1.367,1.367,0,0,1,.162-.177,1.949,1.949,0,0,0,.224-.221c.01-.011.021-.021.032-.032a.176.176,0,0,1,.031-.03.637.637,0,0,0,.154-.148.711.711,0,0,1,.169-.15.565.565,0,0,0,.207-.216.116.116,0,0,1,.02-.032,1.671,1.671,0,0,1,.174-.163,1.821,1.821,0,0,0,.266-.268c.019-.02.04-.038.059-.058A1.024,1.024,0,0,1,283.522,74.462Zm-34.05,1.2a.387.387,0,0,1-.219.042c.075-.037.134-.068.194-.095.01-.005.028.008.042.012C249.484,75.634,249.482,75.654,249.472,75.661Z"/><path class="cls-2" d="M765.847,244.7a39.436,39.436,0,0,0-2.7,8.164l-2.991-.546a39.619,39.619,0,0,1,1.17-4.16c-1.637,2-3.353,4.42-4.887,6.552-.235.832-.521,1.69-.781,2.548l-3.12-.78c.962-3.432,2.237-7.306,3.38-12.585l3.328.728a33.286,33.286,0,0,1-1.534,5.461,60.834,60.834,0,0,1,5.643-7.021Z"/><path class="cls-2" d="M768.967,252.632a11.156,11.156,0,0,0-.053,2.6c.859-.052,2.366-.052,5.773-1.742l-.287,2.262a8.814,8.814,0,0,1-5.017,1.82c-2.549,0-3.979-1.482-3.8-4.472a10.46,10.46,0,0,1,7.437-9.725l4.29,1.275a8.093,8.093,0,0,1,.364,2.314c0,2.782-2.107,4.992-5.929,4.992a18.657,18.657,0,0,1-2.626-.234A6.52,6.52,0,0,0,768.967,252.632Zm.806-2.7a7.014,7.014,0,0,0,1.326.13,3.274,3.274,0,0,0,3.431-3.3,4.682,4.682,0,0,0-.208-1.3A9.718,9.718,0,0,0,769.773,249.928Z"/><path class="cls-2" d="M781.394,254.244a9.618,9.618,0,0,0,.051,1.3,18.323,18.323,0,0,0,5.695-1.976l-.286,2.236a9.261,9.261,0,0,1-5.252,2.028c-1.924,0-3.666-1.144-3.666-4.108,0-4.992,3.822-9.984,8.839-9.984a4.345,4.345,0,0,1,2.835.91l-.7,2.6a4.926,4.926,0,0,0-2.054-.494C783.266,246.756,781.394,251.046,781.394,254.244Z"/><path class="cls-2" d="M799.152,246.158c-1.014.078-2.028.129-3.042.129A104.042,104.042,0,0,0,792.7,257.26l-3.016-.65c.52-2.184,1.352-5.876,2.808-10.4-1.066-.078-1.976-.156-2.549-.235l.391-2c.832.052,1.82.1,2.86.129.624-1.794,1.352-3.691,2.158-5.668l3.51,1.066c-.7,1.56-1.326,3.095-1.924,4.629.832-.052,1.69-.1,2.73-.208Z"/><path class="cls-2" d="M825.543,238.513c-3.719,6.137-7.1,12.819-10.608,18.955l-2.653-.52.027-.026-.989-.208-.052-11.206c-2.08,3.2-3.952,6.136-6.474,10.374l-1.586-.858-.338,2.522-2.99-.624,1.768-19.241,3.978-.234-2.08,15.159c2.808-4.81,4.888-8.034,7.67-12.585v-1.482l3.641-.442-.313,14.431c2.471-4.94,4.914-10.036,7.593-14.821Z"/><path class="cls-2" d="M829.572,244.546a104.72,104.72,0,0,0-4.16,12.74l-3.1-.676a83.012,83.012,0,0,1,3.874-12.948Zm.78-2.419-3.12-.91a54.085,54.085,0,0,1,2.47-6.11l3.2.962C832.3,237.291,831.5,239.137,830.352,242.127Z"/><path class="cls-2" d="M846.758,237.733c-1.769,4.628-5.617,13.7-6.475,20.151l-3.172-.65a52.236,52.236,0,0,1,1.2-5.616,50.226,50.226,0,0,1-5.668,5.876c-.573-.364-1.716-.806-2.782-1.352a16.511,16.511,0,0,1-.182-2.366c0-4.784,2.5-9.153,8.5-10.764l.806,3.067c-3.952,1.2-5.954,3.511-6.032,8.295,1.924-1.872,4.758-4.732,6.5-6.578,1.014-3.069,2.315-6.527,3.952-11.077Z"/><path class="cls-2" d="M854.323,246.158c-1.014.078-2.028.129-3.042.129a104.042,104.042,0,0,0-3.406,10.973l-3.017-.65c.521-2.184,1.353-5.876,2.809-10.4-1.066-.078-1.976-.156-2.548-.235l.39-2c.832.052,1.82.1,2.86.129.624-1.794,1.352-3.691,2.158-5.668l3.51,1.066c-.7,1.56-1.326,3.095-1.924,4.629.832-.052,1.69-.1,2.73-.208Z"/><path class="cls-2" d="M867.869,245.663a52.893,52.893,0,0,0-4.472,12.871l-3.094-.728a57.49,57.49,0,0,1,2.808-9.672,76.855,76.855,0,0,0-6.4,6.084c-.338,1.222-.65,2.262-.885,3.042l-3.119-.78c.962-3.432,4.42-13.859,6.162-19.787l3.3,1.144c-.754,2.887-2.392,7.541-4.134,12.273A63.564,63.564,0,0,1,864.905,244Z"/><path class="cls-2" d="M99.727,67.9a39.436,39.436,0,0,0-2.7,8.164l-2.991-.546a39.378,39.378,0,0,1,1.17-4.16c-1.637,2-3.353,4.42-4.887,6.552-.235.832-.521,1.69-.781,2.548l-3.12-.78c.962-3.432,2.236-7.306,3.38-12.584l3.328.728a33.3,33.3,0,0,1-1.534,5.46,60.739,60.739,0,0,1,5.643-7.02Z"/><path class="cls-2" d="M102.846,75.831a11.2,11.2,0,0,0-.052,2.6c.858-.052,2.366-.052,5.772-1.742l-.286,2.262a8.814,8.814,0,0,1-5.018,1.82c-2.548,0-3.978-1.482-3.8-4.472a10.458,10.458,0,0,1,7.436-9.724l4.29,1.274a8.06,8.06,0,0,1,.365,2.314c0,2.782-2.107,4.992-5.929,4.992A18.632,18.632,0,0,1,103,74.921,6.683,6.683,0,0,0,102.846,75.831Zm.806-2.7a7.03,7.03,0,0,0,1.327.13,3.274,3.274,0,0,0,3.431-3.3,4.67,4.67,0,0,0-.208-1.3A9.715,9.715,0,0,0,103.652,73.127Z"/><path class="cls-2" d="M115.274,77.443a9.618,9.618,0,0,0,.051,1.3,18.332,18.332,0,0,0,5.695-1.976L120.733,79a9.255,9.255,0,0,1-5.251,2.028c-1.924,0-3.666-1.144-3.666-4.108,0-4.992,3.822-9.984,8.84-9.984a4.347,4.347,0,0,1,2.834.91l-.7,2.6a4.927,4.927,0,0,0-2.055-.494C117.146,69.955,115.274,74.245,115.274,77.443Z"/><path class="cls-2" d="M133.032,69.357c-1.014.078-2.028.13-3.042.13a103.722,103.722,0,0,0-3.406,10.972l-3.017-.65c.521-2.184,1.353-5.876,2.809-10.4-1.066-.078-1.977-.156-2.548-.234l.39-2c.832.052,1.82.1,2.86.13.624-1.794,1.352-3.692,2.158-5.668l3.51,1.066c-.7,1.56-1.326,3.094-1.924,4.628.832-.052,1.69-.1,2.73-.208Z"/><path class="cls-2" d="M152.714,61.166c-2.027,6.475-3.9,12.949-5.564,19.423l-3.25-.78c.442-1.846.91-3.692,1.4-5.512-2.21.026-4.5.1-6.735.208q-.857,3.042-1.637,6.084l-3.25-.78c.416-1.716.857-3.406,1.3-5.122-.989.078-1.951.13-2.913.208l.806-3.3c.963-.078,1.977-.156,2.99-.208.989-3.64,2.029-7.254,3.12-10.894l3.511.675c-1.04,3.329-2.055,6.683-3.016,10.011,2.236-.078,4.5-.156,6.708-.182.936-3.484,1.95-6.994,3.016-10.5Z"/><path class="cls-2" d="M154.949,75.831a11.138,11.138,0,0,0-.052,2.6c.858-.052,2.366-.052,5.772-1.742l-.286,2.262a8.817,8.817,0,0,1-5.018,1.82c-2.549,0-3.978-1.482-3.8-4.472a10.46,10.46,0,0,1,7.437-9.724l4.29,1.274a8.093,8.093,0,0,1,.364,2.314c0,2.782-2.106,4.992-5.928,4.992a18.632,18.632,0,0,1-2.626-.234A6.532,6.532,0,0,0,154.949,75.831Zm.806-2.7a7.021,7.021,0,0,0,1.326.13,3.275,3.275,0,0,0,3.432-3.3,4.67,4.67,0,0,0-.208-1.3A9.715,9.715,0,0,0,155.755,73.127Z"/><path class="cls-2" d="M170.81,67.745a104.733,104.733,0,0,0-4.161,12.74l-3.094-.676a82.9,82.9,0,0,1,3.874-12.948Zm.779-2.418-3.12-.91a53.7,53.7,0,0,1,2.471-6.11l3.2.961C173.539,60.491,172.733,62.337,171.589,65.327Z"/><path class="cls-2" d="M183.445,72.321c-.519,1.144-1.872,6.422-4.471,10.92a7.248,7.248,0,0,1-6.111,3.459,7.377,7.377,0,0,1-4.082-1.144l.312-2.6a7.165,7.165,0,0,0,3.432.754c2.522,0,3.874-2.314,5.955-7.2a36.419,36.419,0,0,1-5.149,4.472c-.6-.364-1.274-.65-2.34-1.2a13.158,13.158,0,0,1-.13-2.886c.182-4.238,3.016-10.27,10.634-10.634l.832,3.068c-6.24.13-7.852,4.55-8.164,8.424a54.361,54.361,0,0,0,6.891-6.708Z"/><path class="cls-2" d="M198.941,68.863a52.87,52.87,0,0,0-4.472,12.87l-3.094-.728a57.59,57.59,0,0,1,2.809-9.672,76.876,76.876,0,0,0-6.4,6.084c-.338,1.222-.65,2.262-.885,3.042l-3.119-.78c.962-3.432,4.42-13.858,6.162-19.787l3.3,1.145c-.754,2.886-2.391,7.54-4.134,12.272a63.377,63.377,0,0,1,6.865-6.11Z"/><path class="cls-2" d="M209.107,69.357c-1.015.078-2.029.13-3.042.13a103.739,103.739,0,0,0-3.407,10.972l-3.016-.65c.52-2.184,1.352-5.876,2.808-10.4-1.066-.078-1.976-.156-2.548-.234l.39-2c.832.052,1.82.1,2.86.13.624-1.794,1.352-3.692,2.159-5.668L208.82,62.7c-.7,1.56-1.326,3.094-1.923,4.628.832-.052,1.689-.1,2.729-.208Z"/><path class="cls-3" d="M408.42,28.321a104.732,104.732,0,0,0-4.16,12.741l-3.095-.676a83.054,83.054,0,0,1,3.874-12.949ZM409.2,25.9l-3.12-.91a54.051,54.051,0,0,1,2.471-6.11l3.2.962C411.149,21.067,410.344,22.913,409.2,25.9Z"/><path class="cls-3" d="M423.109,29.439A42.848,42.848,0,0,0,418.9,41.816l-3.224-.546a57.888,57.888,0,0,1,2.756-9.543,70.969,70.969,0,0,0-6.267,5.435c-.338,1.352-.676,2.548-.987,3.692l-3.12-.78c.962-3.432,2.183-7.046,3.38-12.35l3.328.675a41.054,41.054,0,0,1-1.43,5.1,70.328,70.328,0,0,1,6.786-5.746Z"/><path class="cls-3" d="M433.275,29.933c-1.014.079-2.028.13-3.042.13a104.042,104.042,0,0,0-3.406,10.973l-3.016-.65c.52-2.184,1.352-5.876,2.808-10.4-1.066-.077-1.976-.156-2.549-.234l.391-2c.832.052,1.82.1,2.86.13.624-1.794,1.352-3.692,2.158-5.668l3.51,1.066c-.7,1.56-1.326,3.094-1.923,4.628.832-.052,1.689-.1,2.729-.208Z"/><path class="cls-3" d="M539.462,197.683a104.546,104.546,0,0,0-4.16,12.74l-3.1-.676a83.012,83.012,0,0,1,3.874-12.948Zm.779-2.418-3.12-.91a53.892,53.892,0,0,1,2.471-6.11l3.2.961C542.191,190.429,541.386,192.275,540.241,195.265Z"/><path class="cls-3" d="M554.152,198.8a42.812,42.812,0,0,0-4.212,12.376l-3.224-.546a57.848,57.848,0,0,1,2.756-9.542,70.652,70.652,0,0,0-6.267,5.434c-.338,1.352-.676,2.548-.987,3.692l-3.12-.78c.962-3.432,2.183-7.046,3.38-12.35l3.328.676a40.766,40.766,0,0,1-1.431,5.1,70.328,70.328,0,0,1,6.787-5.746Z"/><path class="cls-3" d="M564.317,199.3c-1.014.078-2.028.13-3.042.13a103.956,103.956,0,0,0-3.406,10.972l-3.016-.65c.52-2.184,1.352-5.876,2.808-10.4-1.066-.078-1.976-.156-2.548-.234l.39-2c.832.052,1.82.1,2.86.13.624-1.794,1.352-3.692,2.159-5.668l3.509,1.066c-.7,1.56-1.326,3.094-1.923,4.628.832-.052,1.689-.1,2.729-.208Z"/></g></svg>