<svg id="Layer_1" data-name="Layer 1" xmlns="http://www.w3.org/2000/svg" viewBox="0 0 296 193"><defs><style>.cls-1{fill:#f36;}.cls-2{fill:none;stroke:#1858a8;stroke-miterlimit:10;}.cls-3{fill:#1858a8;}.cls-4{fill:#ffeded;}</style></defs><title>Untitled-1</title><path class="cls-1" d="M6.563,185.221a.949.949,0,0,0,.252.144,13.244,13.244,0,0,1,1.947.629.633.633,0,0,0,.658,0c.045-.034.16-.008.243-.012a2,2,0,0,0,.438-.028,1.043,1.043,0,0,1,.682.032.926.926,0,0,0,.621.039.516.516,0,0,1,.25-.014,1.781,1.781,0,0,0,1.105-.172,1.291,1.291,0,0,1,.674-.123,2.462,2.462,0,0,1,.618.121,1.906,1.906,0,0,0,.933.124c.424-.022.847-.05,1.3-.08a1.189,1.189,0,0,1,.183.108.9.9,0,0,0,.875.16,3.418,3.418,0,0,1,.631-.073,3.228,3.228,0,0,0,.573-.039,1.991,1.991,0,0,1,.982-.015,4.852,4.852,0,0,1,.533-.213.342.342,0,0,0,.315-.367c.087,0,.176.008.271.015a2.246,2.246,0,0,0,.553-.106c.165.241.446.243.755.168a.343.343,0,0,0,.113-.047,1.214,1.214,0,0,1,.6-.154,2.039,2.039,0,0,0,.357-.095.961.961,0,0,0,.252.144A13.228,13.228,0,0,1,25.22,186a.635.635,0,0,0,.659,0c.045-.034.16-.007.243-.011a2,2,0,0,0,.437-.029,1.045,1.045,0,0,1,.683.033.926.926,0,0,0,.621.039.529.529,0,0,1,.25-.015,1.788,1.788,0,0,0,1.105-.171,1.271,1.271,0,0,1,.674-.123,2.384,2.384,0,0,1,.619.121,1.885,1.885,0,0,0,.931.123c.424-.021.848-.049,1.3-.08a1.276,1.276,0,0,1,.183.108.894.894,0,0,0,.878.16,3.418,3.418,0,0,1,.63-.073,3.056,3.056,0,0,0,.574-.039,2.007,2.007,0,0,1,.983-.015,4.758,4.758,0,0,1,.532-.213.393.393,0,0,0,.3-.236.372.372,0,0,0,.2-.028.78.78,0,0,1,.593-.088,2.235,2.235,0,0,0,.553-.1c.165.24.447.243.755.168a.391.391,0,0,0,.113-.047,1.215,1.215,0,0,1,.6-.155,1.878,1.878,0,0,0,.357-.095.994.994,0,0,0,.252.144A13.244,13.244,0,0,1,42.2,186a.633.633,0,0,0,.658,0c.046-.034.16-.008.243-.012a2,2,0,0,0,.438-.028,1.043,1.043,0,0,1,.682.032.926.926,0,0,0,.621.039.516.516,0,0,1,.25-.014,1.781,1.781,0,0,0,1.105-.172,1.281,1.281,0,0,1,.674-.123,2.47,2.47,0,0,1,.619.121,1.9,1.9,0,0,0,.931.124c.425-.022.848-.05,1.3-.08.017.01.044.028.068.04a6.59,6.59,0,0,1,1.347-2.392c.612-.7,1.316-1.357,2.041-2.1a6.149,6.149,0,0,0-1.293-4.38,6.025,6.025,0,0,1-1.243-5.7,13.813,13.813,0,0,0,.133-5.911c-.165-1.262-.7-2.557.151-3.81a.494.494,0,0,0,0-.484c-1.138-1.821-.1-3.285,1.181-4.728.425-.479.756-1.01,1.086-1.457a17.3,17.3,0,0,1-2.474-6.488,3.8,3.8,0,0,1,.45-2.24c1.558-2.933,1.667-4.4,1-7A49.238,49.238,0,0,1,51,134.223c-.435-2.911-.709-5.837-1.062-8.757a1.978,1.978,0,0,1,.74-2.143,1.971,1.971,0,0,0,.627-2.4,9.774,9.774,0,0,0-.493-1.228,4.9,4.9,0,0,1-.059-4.053c.788-1.739.122-3.59.59-5.358a2.293,2.293,0,0,1,.058-2.709.814.814,0,0,0-.106-.738c-.563-1-.248-2-.2-3.036.094-2.332,1.388-4.717-.293-7.01-.09-.123.02-.336.031-.506.176-2.575-.457-5.13-.076-7.729a44.742,44.742,0,0,0,.038-6.172,3.684,3.684,0,0,1,.257-1.271,6.459,6.459,0,0,0-.274-5.572l1.368-1.547a11.225,11.225,0,0,1-.524-2.709c.165-2.4.51-4.786.762-7.179a3.138,3.138,0,0,0-.762-2.708,1.812,1.812,0,0,1-.527-1.167c.028-1.371.2-2.738.265-4.11a3.279,3.279,0,0,0-.157-1.774,3.467,3.467,0,0,1-.085-2.79,11.268,11.268,0,0,0,.076-4.372c-.176-1.286-.333-2.575-.436-3.866a3.034,3.034,0,0,1,.134-1.772,3,3,0,0,0,.123-2.468,29.476,29.476,0,0,1-.405-4.091c-.186.025-.371.05-.557.073a1.879,1.879,0,0,1-.382.018,16.125,16.125,0,0,0-1.772-.088,6.458,6.458,0,0,1-1.552-.158c-.2-.05-.394-.131-.6-.17a1.131,1.131,0,0,0-.913.091.339.339,0,0,1-.232.059,2.159,2.159,0,0,0-1.062.094.779.779,0,0,1-.748-.149c-.027-.026-.051-.07-.082-.074-.4-.042-.644-.31-1.009-.416a.849.849,0,0,1-.593.1.744.744,0,0,0-.6.109,1.114,1.114,0,0,1-.213.081l-.556-.222c-.082.058-.15.085-.176.126a.828.828,0,0,1-.959.331,1.092,1.092,0,0,0-.374.014,1.217,1.217,0,0,1-.913-.023c-.054-.03-.167.012-.25.006a2.346,2.346,0,0,0-.488-.046c-.235.034-.2-.221-.453-.186-.042.075-.086.154-.133.235a6.652,6.652,0,0,0-.748-.057,1.955,1.955,0,0,0-1.166.184.66.66,0,0,1-.246.046c-.252.035-.5.071-.756.1a1.949,1.949,0,0,1-.382.017,16.376,16.376,0,0,0-1.772-.088,6.394,6.394,0,0,1-1.551-.157c-.2-.05-.395-.131-.6-.171a1.139,1.139,0,0,0-.913.091.341.341,0,0,1-.234.06,2.147,2.147,0,0,0-1.062.094.782.782,0,0,1-.749-.15c-.026-.025-.05-.07-.081-.073-.4-.042-.644-.311-1.009-.417a.855.855,0,0,1-.593.1.742.742,0,0,0-.6.108,1.092,1.092,0,0,1-.213.082l-.555-.222c-.082.058-.15.084-.176.126a.829.829,0,0,1-.959.33,1.069,1.069,0,0,0-.374.015,1.226,1.226,0,0,1-.913-.023c-.054-.031-.167.012-.25.006a2.347,2.347,0,0,0-.488-.047c-.235.035-.205-.22-.452-.185-.034.059-.07.123-.106.188-.088-.006-.176-.01-.261-.011a1.956,1.956,0,0,0-1.166.185.68.68,0,0,1-.246.046c-.252.034-.5.07-.757.1a1.869,1.869,0,0,1-.381.018,16.125,16.125,0,0,0-1.772-.088,6.458,6.458,0,0,1-1.552-.158c-.2-.05-.394-.131-.6-.17a1.133,1.133,0,0,0-.914.091.34.34,0,0,1-.234.059A2.159,2.159,0,0,0,10.1,34.9a.781.781,0,0,1-.748-.149c-.027-.026-.051-.07-.082-.074-.4-.042-.644-.31-1.009-.416a.85.85,0,0,1-.593.1.746.746,0,0,0-.6.109,1.09,1.09,0,0,1-.213.081l-.555-.222c-.082.058-.15.085-.176.126a.747.747,0,0,1-.794.344c.025.063.036.127.064.19a9.5,9.5,0,0,1,.566,4.583c-.117,1.923-.873,3.927.619,5.764a1.156,1.156,0,0,1,.154.747C6.692,47.2,6.988,48.43,6.48,49.4c-.586,1.119-.031,2.24-.488,3.229-1.037,2.25-.583,4.536.124,6.627A13.419,13.419,0,0,1,6.339,65.6a2.8,2.8,0,0,0-.114,1.023,4.271,4.271,0,0,1-1.338,4.052c.216.508.379.916.563,1.318a4.425,4.425,0,0,1,.268,3.775,4.1,4.1,0,0,0,.022,2.807A3.623,3.623,0,0,1,6,80.326a18.649,18.649,0,0,0,.1,7.717c.442,2.775-.6,5.475-.513,8.229-1.286,1.563-.741,3.106-.007,4.686a6.126,6.126,0,0,1,.279,1.792,19.9,19.9,0,0,0,1.093,5.076c.487,1.182.9,2.572-.234,3.733a2.325,2.325,0,0,0-.337,3.144,3.816,3.816,0,0,1,.364,1.253c.639,3.424.2,6.866.262,10.3a18.421,18.421,0,0,0-.029,2.314,16.911,16.911,0,0,1-.574,6.923,9.777,9.777,0,0,0-.216,3.334c.2,2.916,1.164,5.8.571,8.752a1.041,1.041,0,0,0,.131.754c.823,1.217.169,2.339-.267,3.491a5.181,5.181,0,0,0-.57,1.969,30.93,30.93,0,0,1,.1,6.184c-.166,1.177.166,2.358-.589,3.523a3.24,3.24,0,0,0-.138,2.028c.258,2.492.569,4.982.882,7.471a6.265,6.265,0,0,1-.369,3.569,4.069,4.069,0,0,0-.269,2.028c.188,2.243.541,4.471.512,6.725h.014A1.912,1.912,0,0,0,6.563,185.221Z"/><path class="cls-1" d="M183.935,131.665a9.333,9.333,0,0,0-.35-2.049c-1.588-3.509-.657-6.994.217-10.459a9.049,9.049,0,0,0,.477-3.836c-.481-2.647.086-5.306-.217-7.955a.629.629,0,0,1,.153-.493c1.38-1.436.633-3.02.667-4.543a7.3,7.3,0,0,0-1.4-4.494,4.549,4.549,0,0,1-.824-4.248,49.891,49.891,0,0,0,1.395-6.1,2.1,2.1,0,0,0,.028-1.485c-.255-.406-1.034-.657-1.665-1.022,1.844-3.517.626-7.04.451-10.551-1.144-1.7-.061-3.584-.964-5.3.754-1.777.1-3.621.456-5.389a21.274,21.274,0,0,0-.35-9.247,1.11,1.11,0,0,1,.085-.99c1.29-1.374.91-2.879.507-4.277a12.4,12.4,0,0,1-.236-3.544,60.538,60.538,0,0,1,.218-9.02c.08-.57.089-1.138.176-1.7a8.51,8.51,0,0,0-1.9.006,10.061,10.061,0,0,1-1.334.025,3.761,3.761,0,0,1,.061-.451,7.913,7.913,0,0,0-1.815-.089,9.913,9.913,0,0,1-2.185.05.433.433,0,0,0-.072,0,6.156,6.156,0,0,1-1.684-.1,2.115,2.115,0,0,0-.868.018,2.047,2.047,0,0,1-.724.024,3.281,3.281,0,0,0-.869.031c-.317,0-.634-.013-.948-.043a2.343,2.343,0,0,0-.358.057,1.389,1.389,0,0,1-.289.028q-.514-.032-1.02-.1a2.388,2.388,0,0,0-.8.027,4.284,4.284,0,0,1-1.347.04c-.087-.01-.172-.023-.256-.04a1.668,1.668,0,0,0-.862-.023,2.006,2.006,0,0,1-.579,0,2.594,2.594,0,0,0-.507-.035,12.161,12.161,0,0,1-1.609.035,2.829,2.829,0,0,0-.513.032,1.649,1.649,0,0,1-.8-.012,3.4,3.4,0,0,0-1.455,0,4.552,4.552,0,0,1-1.1.077c-.122-.006-.242-.016-.362-.032a3.234,3.234,0,0,0-1.093.024,1.916,1.916,0,0,1-.435.008c-.195-.006-.39-.031-.585-.034a28.994,28.994,0,0,1-3.387,0h-.006a1.753,1.753,0,0,0-.282.035,1.989,1.989,0,0,1-.362.006,3.919,3.919,0,0,0-1.1.029.7.7,0,0,1-.352-.009,1.985,1.985,0,0,0-1-.1c-.636-.017-1.273,0-1.906.039a.44.44,0,0,1-.145-.007,7.042,7.042,0,0,0-1.543-.041c-.466,0-.933,0-1.4-.005-.268-.005-.537-.04-.805-.038-.542,0-1.086.029-1.625.038a3.825,3.825,0,0,1-.66-.024,1.9,1.9,0,0,0-.724.018,3.477,3.477,0,0,1-1.242.03,5.323,5.323,0,0,0-1.681.043,6.868,6.868,0,0,1-1.761.063c-.707-.061-1.408-.115-2.122-.134-.668-.018-1.318.078-1.98.066-.221,0-.442,0-.663-.012-.342-.013-.685-.05-1.026-.042q-1.215,0-2.421-.112a2.831,2.831,0,0,0-.651.033,5.393,5.393,0,0,1-1.464.045,1.954,1.954,0,0,0-.507-.011,3.5,3.5,0,0,1-.579,0c-.677-.008-1.354.013-2.027.065a4.346,4.346,0,0,0-.955-.057c-.084.007-.168,0-.253,0a2.232,2.232,0,0,0-1.1-.046,1.729,1.729,0,0,1-.583,0,1.63,1.63,0,0,0-.566.008,3.527,3.527,0,0,0-1.2-.075,4.057,4.057,0,0,0-.724.055,3.235,3.235,0,0,1-.575-.05,1.486,1.486,0,0,0-.507.027,5.684,5.684,0,0,1-1.752.05,5.4,5.4,0,0,0-.661-.022c-.516,0-1.03-.014-1.544-.03-.6-.018-1.2.109-1.809.05a1.84,1.84,0,0,1-1.009-.009,1.433,1.433,0,0,0-.79-.015,2.907,2.907,0,0,1-.868-.028c-.316.014-.631.042-.942.083a1.147,1.147,0,0,1-.144-.022q-.329-.029-.659-.03a14.96,14.96,0,0,0-1.906.044,1.922,1.922,0,0,1-.514-.008,8.159,8.159,0,0,0-2.341.05,1.045,1.045,0,0,1-.362.015,6.269,6.269,0,0,0-1.3-.106c-.5,0-.992-.007-1.486.007a.9.9,0,0,0-.156-.019c-.256.027-.507.062-.765.093-.077.01-.153.006-.23.019a3.584,3.584,0,0,1-.434-.02,7.96,7.96,0,0,0-2.04,0,.468.468,0,0,1-.217,0A9.973,9.973,0,0,0,92.8,34.4a3.119,3.119,0,0,1-.724-.054,3.51,3.51,0,0,0-1.665-.029,1.2,1.2,0,0,1-.435.018,2.78,2.78,0,0,0-.367-.029c-.18-.026-.362-.046-.539-.081a2.391,2.391,0,0,0-1.358.082c-.032.011-.068.009-.1.019a4.185,4.185,0,0,1-.434-.008c-.231-.02-.465-.03-.7-.03a1.609,1.609,0,0,0-.607-.013l-.044.007c-.188,0-.376.006-.564.007-.27,0-.54-.01-.81-.021s-.537-.039-.806-.039c-.418,0-.836.023-1.255.027a18.223,18.223,0,0,1-2.871-.014.586.586,0,0,0-.145,0q-1.134.072-2.274.04a5.366,5.366,0,0,0-1.23.086.594.594,0,0,1-.422-.027,1.064,1.064,0,0,0-.776-.04.842.842,0,0,1-.571.021,1.566,1.566,0,0,0-1.128-.042.974.974,0,0,1-.217.021,9.435,9.435,0,0,1-1.324-.023,5.575,5.575,0,0,0-1.46-.019,10.091,10.091,0,0,1-1.1,0c-.388.012-.774.057-1.162.074a7.657,7.657,0,0,1-1.249-.038c-.382-.046-.788.016-1.178-.011a4.805,4.805,0,0,0-.589-.047.68.68,0,0,0-.379.128.282.282,0,0,1-.145.013c-.343-.01-.686-.033-1.026-.069a3.433,3.433,0,0,0-1.238.027,2.374,2.374,0,0,1-.724.024c-.632-.053-1.269-.08-1.9-.118a4.257,4.257,0,0,1-.439-.031,5.465,5.465,0,0,0-1.394.005c-.12.018-.241.031-.362.038-.564,0-1.129-.009-1.694-.008a8.3,8.3,0,0,1-1.1.013,4.305,4.305,0,0,0-1.521.11,1.605,1.605,0,0,1-1.124-.082,1.134,1.134,0,0,0-.7-.058,4.762,4.762,0,0,1-1.027.029,7.723,7.723,0,0,0-1.892-.047,1.478,1.478,0,0,1-.29-.017c-.18-.008-.362-.013-.541-.021a2.46,2.46,0,0,0,.95,1.53c.253.2.1.647.11.981a2.724,2.724,0,0,0,.042,1.272,3.052,3.052,0,0,1,.163,2.775A1.8,1.8,0,0,0,48.538,42a4,4,0,0,1,.177,2.283,6.467,6.467,0,0,0,.131,3.086,8.482,8.482,0,0,1,.252,4.573c-.166.762-.232,1.535-.325,2.3-.289,2.4-1.029,4.778-.5,7.2.421,1.941,1.329,3.855.434,5.841a.523.523,0,0,0,.084.507c.8,1.006.27,2.041.1,3.044-.408,2.389-.99,4.76-1.362,7.149-.114.737.428,1.523.3,2.256-.145.829-.849,1.609-1.029,2.439a5.171,5.171,0,0,0,.234,2.049c.239,1.188.547,2.37.8,3.558a9.253,9.253,0,0,0,.349,2.048c1.588,3.509.656,6.994-.218,10.459a9.065,9.065,0,0,0-.477,3.836c.482,2.647-.087,5.306.217,7.955a.632.632,0,0,1-.152.493c-1.38,1.437-.634,3.02-.667,4.543a7.3,7.3,0,0,0,1.4,4.494,4.55,4.55,0,0,1,.824,4.248,49.523,49.523,0,0,0-1.395,6.1,2.094,2.094,0,0,0-.029,1.485c.255.406,1.034.657,1.662,1.022-1.843,3.517-.626,7.04-.45,10.551,1.143,1.7.061,3.584.963,5.3-.754,1.776-.1,3.62-.456,5.388a21.273,21.273,0,0,0,.35,9.247,1.11,1.11,0,0,1-.085.99c-1.29,1.374-.91,2.879-.507,4.277a12.36,12.36,0,0,1,.235,3.544,60.554,60.554,0,0,1-.217,9.021c-.081.569-.089,1.137-.177,1.7a8.335,8.335,0,0,0,1.9-.007,10.869,10.869,0,0,1,1.831,0c.71.041,1.423.048,2.134.021a4.665,4.665,0,0,1,1.024.059,3.187,3.187,0,0,0,1.013.012,5.384,5.384,0,0,1,1.395,0,5.917,5.917,0,0,0,1.242.056,21.615,21.615,0,0,1,2.707-.115c.29.014.583.058.876.073.35.034.7.052,1.056.056a2.224,2.224,0,0,0,.259-.021c.48-.073.924.066,1.388.012a2.091,2.091,0,0,1,.586.014,1.826,1.826,0,0,0,.8-.02c.309-.08.555.127.85.124a1,1,0,0,0,.286-.045,4.063,4.063,0,0,1,1.441-.126q1.179.03,2.358-.026a8.079,8.079,0,0,1,1.684.1,2.33,2.33,0,0,0,.869,0,3.012,3.012,0,0,1,.8-.05c.95.086,1.9.1,2.86.133.129,0,.257,0,.385,0-.015.073-.034.146-.053.219a1.874,1.874,0,0,0,.282-.036,2.189,2.189,0,0,1,.362-.006,3.957,3.957,0,0,0,1.1-.028.7.7,0,0,1,.352.009,1.978,1.978,0,0,0,1,.1c.636.018,1.273,0,1.906-.038a.416.416,0,0,1,.145.007,7.166,7.166,0,0,0,1.543.041c.466,0,.933,0,1.4.005.269,0,.538.04.806.037.542,0,1.086-.028,1.625-.037a3.825,3.825,0,0,1,.66.024,1.916,1.916,0,0,0,.724-.018,3.477,3.477,0,0,1,1.242-.031,5.264,5.264,0,0,0,1.681-.043,6.868,6.868,0,0,1,1.761-.062c.706.06,1.408.115,2.122.134.668.017,1.318-.078,1.98-.066.221,0,.442,0,.663.012.342.012.685.05,1.026.042q1.215,0,2.42.111a2.782,2.782,0,0,0,.652-.032,5.387,5.387,0,0,1,1.463-.046,1.911,1.911,0,0,0,.507.011,3.5,3.5,0,0,1,.579,0c.677.009,1.354-.013,2.027-.065a4.355,4.355,0,0,0,.956.058c.084-.007.168,0,.253,0a2.221,2.221,0,0,0,1.1.046,1.788,1.788,0,0,1,.584,0,1.624,1.624,0,0,0,.565-.007,3.552,3.552,0,0,0,1.2.075,4.057,4.057,0,0,0,.724-.055,3.331,3.331,0,0,1,.575.049,1.462,1.462,0,0,0,.507-.026,5.684,5.684,0,0,1,1.752-.05,5.4,5.4,0,0,0,.661.022c.516,0,1.03.013,1.544.029.6.018,1.2-.109,1.809-.05a1.84,1.84,0,0,1,1.009.01,1.452,1.452,0,0,0,.79.015,2.874,2.874,0,0,1,.868.027c.316-.013.631-.041.941-.082a1.236,1.236,0,0,1,.145.021q.329.03.659.03a14.778,14.778,0,0,0,1.906-.043,1.882,1.882,0,0,1,.514.008,8.159,8.159,0,0,0,2.341-.05,1.045,1.045,0,0,1,.362-.015,6.269,6.269,0,0,0,1.3.106c.5,0,.992.008,1.486-.007a.9.9,0,0,0,.156.019c.256-.027.507-.061.765-.093.077-.01.153-.006.23-.019a3.584,3.584,0,0,1,.434.02,7.952,7.952,0,0,0,2.039,0,.5.5,0,0,1,.217,0,9.886,9.886,0,0,0,1.837.039,3.119,3.119,0,0,1,.724.054,3.523,3.523,0,0,0,1.665.028,1.239,1.239,0,0,1,.434-.018,2.644,2.644,0,0,0,.367.029c.18.026.362.046.539.082a2.4,2.4,0,0,0,1.359-.082c.031-.012.068-.01.1-.02a4.185,4.185,0,0,1,.434.008q.348.032.7.031a1.6,1.6,0,0,0,.606.012.332.332,0,0,0,.044-.006l.565-.008c.27,0,.54.011.809.022s.537.039.805.039c.419,0,.838-.023,1.256-.027a18.223,18.223,0,0,1,2.871.014.586.586,0,0,0,.145,0q1.134-.072,2.274-.039a5.436,5.436,0,0,0,1.231-.087.6.6,0,0,1,.422.027,1.064,1.064,0,0,0,.776.04.853.853,0,0,1,.571-.021,1.574,1.574,0,0,0,1.127.043.924.924,0,0,1,.217-.022,9.283,9.283,0,0,1,1.324.024,5.575,5.575,0,0,0,1.46.018,10.091,10.091,0,0,1,1.1,0c.388-.012.774-.058,1.158-.074a7.653,7.653,0,0,1,1.249.038c.383.046.789-.015,1.178.012a4.821,4.821,0,0,0,.59.046.68.68,0,0,0,.379-.128.29.29,0,0,1,.144-.013q.516.015,1.026.069a3.416,3.416,0,0,0,1.239-.027,2.374,2.374,0,0,1,.724-.024c.632.053,1.268.08,1.9.118.148,0,.295.013.44.03a5.376,5.376,0,0,0,1.394,0c.119-.017.24-.03.362-.037.564,0,1.129.009,1.693.008a8.315,8.315,0,0,1,1.1-.013,4.33,4.33,0,0,0,1.517-.11,1.6,1.6,0,0,1,1.124.082,1.126,1.126,0,0,0,.7.058,4.762,4.762,0,0,1,1.027-.029,7.674,7.674,0,0,0,1.892.047,1.478,1.478,0,0,1,.29.017c.18.008.362.014.541.021a2.46,2.46,0,0,0-.95-1.53c-.253-.2-.1-.647-.11-.981a2.733,2.733,0,0,0-.042-1.271,3.054,3.054,0,0,1-.163-2.776,1.8,1.8,0,0,0-.08-1.276,3.969,3.969,0,0,1-.176-2.283,6.493,6.493,0,0,0-.131-3.086,8.472,8.472,0,0,1-.253-4.573c.165-.762.232-1.534.325-2.3.289-2.4,1.028-4.778.5-7.2-.421-1.941-1.329-3.855-.434-5.842a.521.521,0,0,0-.084-.506c-.8-1.006-.27-2.04-.1-3.044.406-2.389.989-4.76,1.361-7.149.114-.737-.428-1.523-.3-2.256.145-.829.849-1.609,1.029-2.439a5.171,5.171,0,0,0-.234-2.049C184.488,134.034,184.18,132.852,183.935,131.665Z"/><path class="cls-2" d="M22.834,27.469a1.239,1.239,0,0,0,.8-.182c.039-.03.044-.117.064-.18-.052-.019-.117-.073-.156-.053C23.323,27.171,23.109,27.305,22.834,27.469Z"/><path class="cls-1" d="M114.338,27.576a1.477,1.477,0,0,0,.882-.188c.043-.03.049-.117.072-.18-.059-.019-.13-.072-.171-.052C114.878,27.275,114.642,27.411,114.338,27.576Z"/><path class="cls-1" d="M290.518,17.015c-.541-3.713.058-7.377-.082-11.059-.234.009-.465.012-.695.033a10.329,10.329,0,0,0-1.149.155,2.546,2.546,0,0,1-1.358-.034c-1.816.156-3.631.319-5.442.513a18.9,18.9,0,0,1-7.2-.484c-.416-.118-.833-.228-1.247-.306a6.344,6.344,0,0,0-.73.023c-.377.04-.762.037-1.141.043a3.194,3.194,0,0,0-1.113.657,3.223,3.223,0,0,1-2.3.4,7.477,7.477,0,0,0-4.42.216c-.2.093-.512.2-.666.117-1.864-1-3.829-.1-5.74-.3-1.942-.2-3.909-.175-5.864-.247-.347-.013-.762-.132-1.029.008-1.96,1.029-3.807.343-5.671-.263a7.551,7.551,0,0,0-1.03-.22,1.034,1.034,0,0,1-.717-.08c-.059-.032-.118-.021-.176-.045-.332-.024-.664-.043-1-.039a1.858,1.858,0,0,0-.32.083,2.411,2.411,0,0,1-1.79.144c-.122-.032-.246-.053-.371-.075-.267.024-.534.05-.8.071-1.724.136-3.456.481-5.056-.543a5.007,5.007,0,0,0-.9.123,2.466,2.466,0,0,1-1.054.033c-.469-.083-.943-.118-1.417-.163-.176,0-.352,0-.532.007-.691.117-1.38.242-2.073.337a1.14,1.14,0,0,1-.562-.088,3.289,3.289,0,0,0-1.051-.163,15.672,15.672,0,0,0-2.363.306c-1.658.36-3.427.71-5.069-.283a2.222,2.222,0,0,0-.343-.149c-.351.029-.709.051-1.063.05-2.553.828-5.219-.165-7.777.384a15.311,15.311,0,0,1-7.584-.028,4.119,4.119,0,0,1-.618.048c-.574-.014-1.172.166-1.709-.182a.331.331,0,0,0-.185-.04c-.67.045-1.339,0-2.01-.011-.195,0-.391.008-.585.026a10.346,10.346,0,0,0-1.15.155,2.386,2.386,0,0,1-1.523-.069,2.037,2.037,0,0,0-1.428-.059,2.539,2.539,0,0,1-1.247.094.822.822,0,0,0-.382-.006,5.589,5.589,0,0,1-2.415-.027,1.871,1.871,0,0,1-.523.018,2.16,2.16,0,0,1-.41-.118c-.137-.01-.273-.021-.41-.018a16.951,16.951,0,0,0-2.416.074,3.043,3.043,0,0,1-1.447-.07.484.484,0,0,0-.192-.027c-1.2.1-2.388-.2-3.592-.075-.611.065-1.23.052-1.848.07a2.763,2.763,0,0,1-.68,0,9.393,9.393,0,0,0-2.327-.074c-.351.006-.7.026-1.054.024a17.927,17.927,0,0,1-2.682-.081l-1.414.046c-.106.008-.214.013-.32.025a2.922,2.922,0,0,1-1.792-.1,3.923,3.923,0,0,1-.5-.011c-.1,0-.2.01-.3.009-.3,0-.6.022-.9.04a7.691,7.691,0,0,1-2.05.059h-.012c-.039.016-.081.03-.117.047a1.13,1.13,0,0,1-1.026.059,1.332,1.332,0,0,0-.938-.056,2.653,2.653,0,0,1-.765-.035,1.943,1.943,0,0,0-.574-.041,1.231,1.231,0,0,1-1.107-.1.234.234,0,0,0-.188-.02,3.776,3.776,0,0,1-1.649.02,3.092,3.092,0,0,0-.712.365,5.2,5.2,0,0,1-3.64.761c-1.772-.148-3.542-.318-5.313-.477a2.653,2.653,0,0,1-1.079-.054c-.08-.021-.163-.032-.244-.049-1-.083-2-.176-3-.231a19.466,19.466,0,0,0-3.641.518l-.946-.639a2.424,2.424,0,0,1-.341.01c-.539-.095-1.088-.133-1.634-.188a1.129,1.129,0,0,0-.29.029c-.7.117-1.4.244-2.1.341a1.136,1.136,0,0,1-.561-.089,2.448,2.448,0,0,0-.831-.146c-.26-.015-.519-.014-.78-.046-.976-.067-1.95-.058-2.929-.063a7,7,0,0,0-1.334.046,2.15,2.15,0,0,1-1.609-.14.6.6,0,0,0-.373-.025,12.057,12.057,0,0,1-3.482.053,14.041,14.041,0,0,1-2.028-.132c-.648.217-1.356-.059-2,.22a10.6,10.6,0,0,1-3.97-.15c-.139.154-.235.347-.389.41a1.174,1.174,0,0,1-.559-.013c-.766-.112-1.542-.191-2.292-.368a2.445,2.445,0,0,0-1.6.189,3.8,3.8,0,0,1-1.7.332c-.572-.014-1.171.166-1.708-.182a.333.333,0,0,0-.185-.04c-1,.066-2-.084-3,.025a5.039,5.039,0,0,1-1.443-.131A16.574,16.574,0,0,0,99.35,5.6c-.094.043-.186.087-.277.133a4.24,4.24,0,0,1-1.553.489c-.385.036-.762.129-1.143.195L96.351,6.4a1.432,1.432,0,0,0-.314-.322c-.058-.032-.12-.059-.181-.086-.154.022-.309.044-.464.063a2.9,2.9,0,0,1-.772.052c-.312-.048-.6-.226-.916-.265-.275-.034-.573.1-.85.067-.9-.1-1.79-.254-2.688-.364a1.847,1.847,0,0,0-1.146.014.286.286,0,0,1-.191.019,5,5,0,0,0-2.2.086,12.167,12.167,0,0,1-2.709-.15c-.289-.026-.579-.045-.866-.089a4.8,4.8,0,0,0-1.723.046,3.683,3.683,0,0,1-1.162.022,2.224,2.224,0,0,0-.86.036,1.012,1.012,0,0,1-.48.014,1.685,1.685,0,0,0-1.046.031,1.539,1.539,0,0,1-.479.006c-.125,0-.292-.039-.369.023a1.853,1.853,0,0,1-1.105.276,2.914,2.914,0,0,1-1.792-.1,10.967,10.967,0,0,1-2.018-.247c-.434-.058-.887.04-1.342-.008-.733-.08-1.475-.09-2.214-.113a2.425,2.425,0,0,0-.674.067,4.677,4.677,0,0,1-2.212.08,1.781,1.781,0,0,0-.386-.04C64,5.522,62.8,5.529,61.6,5.48c-1.259-.053-2.518-.085-3.769-.235a2.438,2.438,0,0,0-.391.034c-1.862.262-3.713.618-5.56.974A13.728,13.728,0,0,1,42.736,5.3c-.4,0-.812-.05-1.215-.079-.386-.027-.768-.1-1.154-.129a21.517,21.517,0,0,0-3.569.2,4.469,4.469,0,0,1-.491.006A31.365,31.365,0,0,0,30.755,7.22c-.6-.337-1.311-.677-1.952-1.112A14.224,14.224,0,0,0,26.87,4.975a9.676,9.676,0,0,0-1.464.059,8.092,8.092,0,0,1-2.617,0,4.147,4.147,0,0,0-1.15.07c-.192.019-.4.134-.567.094a2.166,2.166,0,0,0-1.582.217.58.58,0,0,1-.632-.128.72.72,0,0,0-.644-.094c-.379.072-.766.107-1.146.176-.509.088-1.014.2-1.523.285a1.081,1.081,0,0,1-.559.014,3.677,3.677,0,0,0-2.284-.05,2.068,2.068,0,0,1-1.6-.1.819.819,0,0,0-.749-.032,2.029,2.029,0,0,1-1.514-.058,1.2,1.2,0,0,0-.655-.081,2.352,2.352,0,0,1-.861.015,2.5,2.5,0,0,0-1.482.365,4.261,4.261,0,0,1-1.553.49c-.137.012-.272.046-.41.069-.109,3.239,0,6.481-.257,9.72-.358,4.569-1.414,8.552.341,12.752l.8-.036,0,.011c.027.134.038.273.051.376a2.674,2.674,0,0,0,1.489.006,2.654,2.654,0,0,1,1.271-.129c.162.054.327.1.486.161a.858.858,0,0,0,.807-.021.767.767,0,0,1,.352-.105,5.468,5.468,0,0,1,.689.028.951.951,0,0,1,.355.084.959.959,0,0,0,.674.1,1.045,1.045,0,0,1,.586.04.659.659,0,0,0,.543.006.524.524,0,0,1,.451-.007c.131.046.272.063.4.111a.736.736,0,0,0,.787-.142.527.527,0,0,1,.745-.024.478.478,0,0,1,.06.067.423.423,0,0,0,.129.065,1.93,1.93,0,0,0,.7-.417.612.612,0,0,1,.635-.232.616.616,0,0,0,.327-.053,14.044,14.044,0,0,0,2.32-.043,1.153,1.153,0,0,0,.255.029,1.4,1.4,0,0,1,.751.216.465.465,0,0,0,.527.072.487.487,0,0,1,.608-.01.193.193,0,0,0,.135.02c.518-.065,1.039-.015,1.577-.052.048.14.1.287.153.448a3.987,3.987,0,0,0,.605.085c.37-.007.739-.046,1.108-.076.018,0,.033-.043.044-.059l-.088-.156c.127-.122.234-.11.314,0a.607.607,0,0,0,.41.221,1.218,1.218,0,0,0,.775-.035.359.359,0,0,1,.358-.017,2.138,2.138,0,0,0,.937.261,4,4,0,0,0,.921-.028c.07-.005.136-.076.207-.11.254-.123.509-.25.768-.363.066-.03.156-.03.154.145-.138.053-.283.1-.426.166a1.679,1.679,0,0,0-.335.171c-.053.038-.076.135-.137.253.414.117.769.3,1.15.027a.388.388,0,0,1,.438.032.7.7,0,0,0,.79.02.523.523,0,0,1,.448-.067,1.686,1.686,0,0,0,1-.068.7.7,0,0,1,.673.025.216.216,0,0,0,.175.042,4.53,4.53,0,0,1,1.147-.138.5.5,0,0,0,.38-.176c.16-.224.417-.225.6-.406a.223.223,0,0,1,.22-.026.759.759,0,0,0,.628-.08c.13-.055.256-.126.383-.19.207-.106.389-.092.486.11.255.02.469.045.679.048A1.35,1.35,0,0,0,37.9,28.9a1.354,1.354,0,0,1,.637-.077.276.276,0,0,0,.214-.045.27.27,0,0,1,.381-.037.267.267,0,0,1,.038.037.178.178,0,0,0,.173.031.668.668,0,0,1,.41,0,3.569,3.569,0,0,0,1.458-.078,1.791,1.791,0,0,1,1.133-.093,1.722,1.722,0,0,0,1.041.051c.039-.011.091.045.146.076l-.228.307c.189.039.339.078.491.1a.749.749,0,0,0,.7-.169.633.633,0,0,1,.487-.221,1.359,1.359,0,0,0,.361-.081,1.144,1.144,0,0,1,.684-.059,1.062,1.062,0,0,0,.726-.051.351.351,0,0,1,.358.009.39.39,0,0,1,.067.074l-.03.23.357.065c.144-.386.258-.417.815-.243-.014.1-.029.2-.047.331l.375.209c.355-.134.778-.095.973-.56a.448.448,0,0,1,.073,0c.214.043.429.274.645-.013.02-.027.088,0,.133,0a4.537,4.537,0,0,0,1.461-.054,1.048,1.048,0,0,1,.41.007c.09.018.182.03.274.039a8.993,8.993,0,0,1,1.383,0,1.806,1.806,0,0,1,.8.218,2.4,2.4,0,0,1,1.547-.163,1.089,1.089,0,0,0,.546.05,2.876,2.876,0,0,1,.912.013c.138,0,.276.046.41.037a4.7,4.7,0,0,0,1.1-.068.673.673,0,0,1,.367-.009,2.688,2.688,0,0,0,.921.021,4.16,4.16,0,0,1,.878-.04,6,6,0,0,0,1.153.009.961.961,0,0,1,.321.006,1.967,1.967,0,0,0,.783.023,2.113,2.113,0,0,1,.826.059,1.76,1.76,0,0,0,1.095-.028.416.416,0,0,1,.134-.036,4.821,4.821,0,0,1,.874.04,5.663,5.663,0,0,0,1.383-.005,5.783,5.783,0,0,1,.967.009,9.1,9.1,0,0,0,1.191,0,5.335,5.335,0,0,1,1.011.02,12.149,12.149,0,0,0,1.428.021,5.856,5.856,0,0,1,1.182.108.766.766,0,0,0,.271.059,8.342,8.342,0,0,0,1.837-.2,1.148,1.148,0,0,1,.456-.007,5.078,5.078,0,0,0,1.193.081,2.258,2.258,0,0,1,.964.066,4.971,4.971,0,0,0,1.137-.025c.014,0,.028-.013.043-.019a1.515,1.515,0,0,1,.866-.066,3.643,3.643,0,0,0,.87.09,4,4,0,0,0,1.145-.063.326.326,0,0,1,.139,0c.213.019.43.027.644.065a3.672,3.672,0,0,0,1.417,0,1.966,1.966,0,0,1,.46,0c.184.007.368.027.551.031a2.154,2.154,0,0,1,.461-.01,3.424,3.424,0,0,0,.921.028,3.349,3.349,0,0,1,.459.031,2.325,2.325,0,0,0,.729.077,1.987,1.987,0,0,1,.82,0,2.561,2.561,0,0,0,1.1-.027,2.026,2.026,0,0,1,.91.011,1.66,1.66,0,0,0,.867-.059A1.787,1.787,0,0,1,93,28.972a3.363,3.363,0,0,0,.413.032l.46.033.6.045c.015.1.025.189.036.264a3.21,3.21,0,0,0,1.64-.006,3.205,3.205,0,0,1,1.4-.138c.176.054.359.1.534.159a1.034,1.034,0,0,0,.889-.028.9.9,0,0,1,.388-.107,6.612,6.612,0,0,1,.758.023,1.089,1.089,0,0,1,.39.082,1.159,1.159,0,0,0,.742.095,1.236,1.236,0,0,1,.647.036.791.791,0,0,0,.6,0,.633.633,0,0,1,.5-.011c.146.046.3.061.445.109a.879.879,0,0,0,.867-.149.619.619,0,0,1,.877.029l.009.009a.461.461,0,0,0,.141.064,2.183,2.183,0,0,0,.768-.423.719.719,0,0,1,.7-.234.9.9,0,0,0,.395-.065c.058-.013.121-.031.181-.047.813.035,1.623.034,2.432.021h.186a1.636,1.636,0,0,1,.826.21.544.544,0,0,0,.581.069.58.58,0,0,1,.67-.014.223.223,0,0,0,.148.018c.57-.068,1.143-.021,1.735-.063.053.14.107.288.167.448a4.79,4.79,0,0,0,.665.08c.407-.009.814-.051,1.22-.083.019,0,.036-.044.048-.059l-.1-.156c.14-.122.259-.112.345,0a.687.687,0,0,0,.448.218,1.46,1.46,0,0,0,.853-.04.435.435,0,0,1,.394-.021,2.505,2.505,0,0,0,1.03.256,4.913,4.913,0,0,0,1.014-.035c.077-.006.15-.077.227-.111.281-.126.563-.255.848-.37.072-.029.171-.031.168.144-.151.055-.312.108-.469.17a2.023,2.023,0,0,0-.37.176c-.058.039-.084.136-.152.255.456.112.845.293,1.266.018a.457.457,0,0,1,.481.03.829.829,0,0,0,.869.013.626.626,0,0,1,.494-.07,2.044,2.044,0,0,0,1.1-.074.837.837,0,0,1,.74.019.255.255,0,0,0,.191.041,5.54,5.54,0,0,1,1.264-.146.574.574,0,0,0,.418-.176c.176-.225.461-.228.657-.41a.272.272,0,0,1,.243-.027.913.913,0,0,0,.692-.085c.143-.055.281-.127.422-.193.228-.106.429-.095.534.107.28.018.513.041.747.044a1.593,1.593,0,0,0,.5-.047,1.646,1.646,0,0,1,.7-.08.332.332,0,0,0,.234-.047.318.318,0,0,1,.449-.015l.012.012a.219.219,0,0,0,.191.03.787.787,0,0,1,.451,0,4.355,4.355,0,0,0,1.6-.089,2.16,2.16,0,0,1,1.247-.1,2.069,2.069,0,0,0,1.146.044c.044-.011.1.045.161.075l-.253.309c.207.037.372.075.539.095a.89.89,0,0,0,.777-.176.739.739,0,0,1,.537-.224,1.6,1.6,0,0,0,.4-.084,1.39,1.39,0,0,1,.753-.059,1.283,1.283,0,0,0,.8-.058.42.42,0,0,1,.394.007.389.389,0,0,1,.072.074c-.009.062-.019.131-.034.229l.392.063c.161-.387.287-.42.9-.25-.016.1-.033.2-.054.332l.41.207c.391-.137.856-.1,1.074-.567a.529.529,0,0,1,.08-.006c.234.041.468.271.706-.017.023-.027.1,0,.147,0a5.489,5.489,0,0,0,1.608-.064,1.283,1.283,0,0,1,.454,0c.1.006.2.041.3.037a10.9,10.9,0,0,1,1.523,0,2.124,2.124,0,0,1,.878.212,2.89,2.89,0,0,1,1.7-.175,1.33,1.33,0,0,0,.6.046,3.447,3.447,0,0,1,1,.006c.151,0,.3.045.453.034a5.635,5.635,0,0,0,1.21-.076.8.8,0,0,1,.4-.01,3.277,3.277,0,0,0,1.013.014,5.014,5.014,0,0,1,.964-.047,3.462,3.462,0,0,0,.477.021.026.026,0,0,1,.02.006,12.044,12.044,0,0,0,7.524-.014c.09,0,.18,0,.271.011a10.819,10.819,0,0,0,1.311,0,6.566,6.566,0,0,1,1.113.013,14.445,14.445,0,0,0,1.571.011,6.9,6.9,0,0,1,1.3.1.922.922,0,0,0,.3.058c.44-.044.884-.039,1.325-.083.008.008.016.013.023.021,1.142,1.224,2.588,1.214,4.109,1.075,3.846-.351,7.7-.654,11.544-1.011a3.192,3.192,0,0,0,.762-.052c.025,0,.052,0,.077-.01a2.464,2.464,0,0,1,1,0,2.017,2.017,0,0,0,.954-.066,2.148,2.148,0,0,1,1.007-.074,4.306,4.306,0,0,0,.454.029l.5.029c.405.023.809.059,1.214.065a4.346,4.346,0,0,0,.456-.019c.005.016.011.032.015.048.027.134.038.274.051.377a2.665,2.665,0,0,0,1.489,0,2.666,2.666,0,0,1,1.271-.129c.162.055.327.1.486.162a.863.863,0,0,0,.808-.022.747.747,0,0,1,.351-.1,5.467,5.467,0,0,1,.689.027.943.943,0,0,1,.355.085.968.968,0,0,0,.675.1,1.037,1.037,0,0,1,.586.041.661.661,0,0,0,.542.006.528.528,0,0,1,.451-.008c.132.047.272.064.405.112a.736.736,0,0,0,.786-.143.527.527,0,0,1,.745-.024.647.647,0,0,1,.061.067.445.445,0,0,0,.128.066,1.946,1.946,0,0,0,.7-.418.613.613,0,0,1,.635-.231c.106.035.239-.035.358-.063a4.093,4.093,0,0,1,.586-.14c.337-.026.676-.01,1.014-.019a.938.938,0,0,1,.629.109c.083.059.209.037.315.045a1.394,1.394,0,0,1,.751.216.461.461,0,0,0,.527.072.49.49,0,0,1,.609-.009.192.192,0,0,0,.135.019c.518-.065,1.038-.015,1.576-.052l.154.449a3.846,3.846,0,0,0,.6.084c.37-.006.739-.046,1.108-.076.017,0,.033-.042.044-.058-.031-.054-.058-.106-.088-.157.127-.121.234-.11.313,0a.614.614,0,0,0,.41.222,1.227,1.227,0,0,0,.776-.035.362.362,0,0,1,.358-.018,2.121,2.121,0,0,0,.937.261,4,4,0,0,0,.921-.028c.07,0,.136-.075.206-.109.256-.124.51-.251.769-.364.066-.029.156-.03.154.145-.138.054-.283.105-.426.167a1.675,1.675,0,0,0-.335.17c-.053.038-.076.135-.137.254.414.117.769.3,1.15.026a.388.388,0,0,1,.458.028.7.7,0,0,0,.79.02.52.52,0,0,1,.448-.067,1.685,1.685,0,0,0,1-.068.7.7,0,0,1,.673.025.216.216,0,0,0,.175.042,4.53,4.53,0,0,1,1.147-.138.5.5,0,0,0,.38-.176c.16-.225.417-.225.595-.406a.228.228,0,0,1,.221-.027.754.754,0,0,0,.628-.079c.13-.055.256-.126.383-.191.207-.105.389-.092.485.111.255.019.469.045.68.048a1.318,1.318,0,0,0,.455-.043,1.358,1.358,0,0,1,.638-.076.276.276,0,0,0,.214-.045.269.269,0,0,1,.38-.038.228.228,0,0,1,.038.038.181.181,0,0,0,.176.031.668.668,0,0,1,.41,0,3.59,3.59,0,0,0,1.459-.078,1.8,1.8,0,0,1,1.132-.094,1.711,1.711,0,0,0,1.042.051c.039-.01.091.046.146.077l-.229.307c.19.039.34.077.492.1a.749.749,0,0,0,.7-.169.633.633,0,0,1,.487-.221,1.352,1.352,0,0,0,.361-.082,1.147,1.147,0,0,1,.685-.058,1.063,1.063,0,0,0,.726-.052.351.351,0,0,1,.358.01.421.421,0,0,1,.066.074l-.03.23.357.065c.144-.386.258-.417.816-.243-.015.1-.029.2-.048.33l.375.21c.355-.134.779-.095.974-.56a.349.349,0,0,1,.072-.005c.176.035.357.183.534.074a6.607,6.607,0,0,0,4-.058,1.4,1.4,0,0,1,.568.183,2.4,2.4,0,0,1,1.547-.163,1.075,1.075,0,0,0,.545.049.87.87,0,0,1,.274-.017,11.219,11.219,0,0,0,4.781,0c.229,0,.457-.009.686-.017a1,1,0,0,1,.323,0,1.943,1.943,0,0,0,.782.024,2.093,2.093,0,0,1,.826.058,1.76,1.76,0,0,0,1.095-.027.411.411,0,0,1,.134-.037,4.913,4.913,0,0,1,.874.04,5.606,5.606,0,0,0,1.382,0,5.782,5.782,0,0,1,.967.009,8.946,8.946,0,0,0,1.192,0,5.42,5.42,0,0,1,1.011.02,11.731,11.731,0,0,0,1.428.021,5.8,5.8,0,0,1,1.182.109.744.744,0,0,0,.271.058c.488-.051.982-.025,1.469-.112a13.961,13.961,0,0,0,5.163-.033,2.97,2.97,0,0,0,.734.067,4,4,0,0,0,1.145-.063.326.326,0,0,1,.139,0c.214.02.43.027.644.066a3.712,3.712,0,0,0,1.417,0,1.975,1.975,0,0,1,.461,0c.184.007.367.027.551.03a2.082,2.082,0,0,1,.46-.009,3.473,3.473,0,0,0,.922.028,3.538,3.538,0,0,1,.459.03,2.3,2.3,0,0,0,.729.078,1.987,1.987,0,0,1,.82,0,2.561,2.561,0,0,0,1.1-.028,2.036,2.036,0,0,1,.909.011,1.663,1.663,0,0,0,.868-.058,1.775,1.775,0,0,1,.914-.068,3.571,3.571,0,0,0,.413.032l.459.033c.368.026.735.062,1.1.072a4.334,4.334,0,0,0,.692-.046,4.487,4.487,0,0,0,.733-.021,1.876,1.876,0,0,1,.684.038c.137.014.273.048.41.062a.47.47,0,0,0,.413-.143h0c.293.23.931.124,1.268.108.259-.012.518-.025.777-.029a14.606,14.606,0,0,0,2.119.768C293.459,25.463,291.2,21.687,290.518,17.015ZM23.635,28.81a1.239,1.239,0,0,1-.8.182c.275-.164.489-.3.709-.415.039-.02.1.034.156.053C23.679,28.692,23.674,28.779,23.635,28.81Zm91.585.1a1.477,1.477,0,0,1-.882.188c.3-.165.54-.3.783-.42.041-.02.113.033.171.052C115.269,28.793,115.263,28.881,115.22,28.911Zm97.849-.1a1.243,1.243,0,0,1-.8.182c.276-.164.49-.3.71-.415.038-.02.1.034.156.053C213.113,28.692,213.107,28.779,213.069,28.81Z"/><path class="cls-3" d="M18.289,18.965a1.023,1.023,0,0,0-.052.238.391.391,0,0,1-.031.135.4.4,0,0,0-.037.16.178.178,0,0,1-.043.117.8.8,0,0,0-.176.337.211.211,0,0,1-.05.09.847.847,0,0,0-.085.142c-.021.038-.038.079-.059.117a.069.069,0,0,1-.02.028.509.509,0,0,0-.124.156.423.423,0,0,1-.034.04.566.566,0,0,1-.069.078c-.076.059-.131.139-.2.2-.009.006-.018.014-.027.021a.721.721,0,0,1-.325.211,1.821,1.821,0,0,0-.3.105.044.044,0,0,1-.025.008.4.4,0,0,0-.231.062c-.05.022-.1.054-.147.075a.506.506,0,0,0-.127.075c-.056.043-.113.084-.171.122a.3.3,0,0,1-.079.037.387.387,0,0,0-.185.139.235.235,0,0,1-.1.077.717.717,0,0,0-.134.064.163.163,0,0,1-.149.027.039.039,0,0,0-.026,0,2.239,2.239,0,0,0-.229.054.189.189,0,0,1-.051.012l-.1.012a.065.065,0,0,1-.034,0c-.051-.028-.109-.014-.162-.027-.031-.008-.063-.012-.094-.019a.056.056,0,0,1-.029-.016.267.267,0,0,0-.244-.106h-.061a1.625,1.625,0,0,1-.209-.02.425.425,0,0,1-.175-.07.272.272,0,0,0-.265-.04l-.074.028a.142.142,0,0,1-.127-.009.611.611,0,0,0-.21-.081.063.063,0,0,1-.051-.03c-.037-.064-.108-.075-.167-.1a.185.185,0,0,0-.081,0,.083.083,0,0,0-.055-.068.073.073,0,0,1-.042-.054.155.155,0,0,0-.045-.072.788.788,0,0,0-.156-.165c-.042-.076-.129-.109-.175-.183a.075.075,0,0,0-.044-.025.073.073,0,0,1-.065-.072.243.243,0,0,0-.081-.15.844.844,0,0,1-.052-.07.659.659,0,0,0-.091-.092l-.008,0c-.04-.012-.05-.056-.081-.077a.506.506,0,0,1-.09-.053.276.276,0,0,1-.062-.142,1.387,1.387,0,0,0-.041-.169.576.576,0,0,1-.036-.1c0-.012-.009-.025,0-.034a.213.213,0,0,0-.014-.136.079.079,0,0,1,0-.043.144.144,0,0,0-.036-.145,2.105,2.105,0,0,1-.157-.24.147.147,0,0,1-.018-.064.826.826,0,0,0-.031-.2.427.427,0,0,1-.012-.112.183.183,0,0,0-.021-.1.084.084,0,0,1-.011-.041,2.693,2.693,0,0,0-.024-.285.451.451,0,0,1,0-.052c0-.018.006-.04,0-.052a.2.2,0,0,1-.013-.151.178.178,0,0,0-.01-.069.181.181,0,0,1,0-.1c.019-.064.033-.13.051-.194a.154.154,0,0,0,0-.1.759.759,0,0,1-.018-.26.1.1,0,0,1,.011-.042c.024-.053.049-.105.074-.157s.046-.1.1-.122a.062.062,0,0,0,.038-.045.557.557,0,0,0,.034-.145.279.279,0,0,1,.079-.187.57.57,0,0,0,.128-.194.214.214,0,0,1,.093-.112.366.366,0,0,0,.1-.1,1,1,0,0,1,.1-.15c.022-.022.024-.063.04-.106a.2.2,0,0,0,.085-.172L12.325,16a.386.386,0,0,0,.13-.169.343.343,0,0,1,.064-.1c.043-.048.075-.1.117-.153.007-.008.011-.021.02-.028.026-.018.055-.033.08-.051a.533.533,0,0,1,.071-.063.144.144,0,0,0,.075-.073h.08a.181.181,0,0,0,.118-.028.187.187,0,0,1,.153-.019.232.232,0,0,0,.128,0,.39.39,0,0,1,.059,0,.092.092,0,0,0,.043-.008.352.352,0,0,1,.13-.048.068.068,0,0,0,.036-.022.119.119,0,0,1,.1-.045.271.271,0,0,0,.084-.02.594.594,0,0,1,.161-.035.787.787,0,0,0,.153-.033c.02,0,.04-.012.059-.017.087-.025.176-.048.261-.073a.168.168,0,0,1,.094-.009.146.146,0,0,0,.051,0,.251.251,0,0,1,.176.024c.024.014.058.01.082.025a.239.239,0,0,0,.168.018,1.38,1.38,0,0,0,.156-.018.158.158,0,0,1,.078,0,.206.206,0,0,0,.183-.029.041.041,0,0,1,.059,0,.04.04,0,0,1,.012.029.145.145,0,0,0,.1.122.644.644,0,0,1,.133.1.23.23,0,0,0,.136.052.162.162,0,0,1,.091.027.147.147,0,0,0,.1.027h.059a.155.155,0,0,1,.043,0,1.109,1.109,0,0,0,.112.048.242.242,0,0,1,.108.029.235.235,0,0,0,.123.041.3.3,0,0,1,.17.077.231.231,0,0,0,.137.069.29.29,0,0,1,.205.106.082.082,0,0,0,.068.031c.072,0,.117.048.167.085.009.007.011.026.013.033l.176.106a.111.111,0,0,1,.03.031.16.16,0,0,0,.1.084.028.028,0,0,1,.013.011c.023.059.076.067.127.077a.334.334,0,0,1,.082.171.078.078,0,0,0,.015.04.071.071,0,0,1,.009.066.152.152,0,0,0,.013.118.151.151,0,0,1,.013.076.25.25,0,0,0,.234.241l.062,0a.208.208,0,0,1,.04.132.341.341,0,0,0,.038.169.448.448,0,0,1,.032.108.851.851,0,0,1,.013.086.079.079,0,0,1,0,.043.573.573,0,0,0-.013.165.17.17,0,0,0,.036.117Z"/><path class="cls-3" d="M25.445,21.073a1.036,1.036,0,0,0-.182-.133.339.339,0,0,1-.1-.077.406.406,0,0,0-.123-.091.157.157,0,0,1-.085-.081.74.74,0,0,0-.222-.274.206.206,0,0,1-.058-.076.8.8,0,0,0-.089-.126c-.025-.031-.053-.058-.079-.092a.071.071,0,0,1-.016-.028.5.5,0,0,0-.086-.164.244.244,0,0,1-.021-.043.483.483,0,0,1-.042-.089c-.022-.086-.069-.163-.1-.248,0-.01,0-.021-.008-.031a.669.669,0,0,1-.059-.355,1.746,1.746,0,0,0,.025-.3.033.033,0,0,1,0-.024.363.363,0,0,0,.032-.22c0-.051-.009-.1-.007-.153a.53.53,0,0,0-.017-.137c-.015-.063-.028-.127-.04-.191a.268.268,0,0,1,0-.08.352.352,0,0,0-.049-.21.215.215,0,0,1-.027-.117.626.626,0,0,0,0-.137.154.154,0,0,1,.034-.138.051.051,0,0,0,.01-.021c.008-.073.037-.141.039-.215a.2.2,0,0,1,.009-.048c.009-.031.019-.062.029-.093a.062.062,0,0,1,.014-.028c.043-.033.051-.088.082-.128.019-.024.034-.049.053-.073a.048.048,0,0,1,.024-.018c.1-.013.141-.091.181-.168.009-.017.016-.035.025-.052a1.4,1.4,0,0,1,.094-.169.4.4,0,0,1,.126-.125.255.255,0,0,0,.134-.21.594.594,0,0,1,0-.073.127.127,0,0,1,.055-.1.571.571,0,0,0,.148-.15.059.059,0,0,1,.044-.032c.068-.007.105-.063.151-.1.016-.014.02-.043.032-.068a.078.078,0,0,0,.077-.022.07.07,0,0,1,.062-.016.144.144,0,0,0,.079-.012.7.7,0,0,0,.2-.07c.08-.008.141-.069.221-.08a.061.061,0,0,0,.037-.028.069.069,0,0,1,.086-.028.23.23,0,0,0,.159-.013.66.66,0,0,1,.077-.017.575.575,0,0,0,.113-.044l.006-.005c.025-.03.066-.022.1-.041a.553.553,0,0,1,.079-.058.252.252,0,0,1,.144,0,1.407,1.407,0,0,0,.16.028.444.444,0,0,1,.1.007c.01,0,.024,0,.031.007a.2.2,0,0,0,.121.04.062.062,0,0,1,.036.016.131.131,0,0,0,.137.023,2.327,2.327,0,0,1,.263-.044.147.147,0,0,1,.062.01.751.751,0,0,0,.179.047.377.377,0,0,1,.1.032.164.164,0,0,0,.094.02.086.086,0,0,1,.039.006c.082.035.168.059.252.086a.355.355,0,0,1,.044.021c.015.007.031.02.045.018a.191.191,0,0,1,.133.046.184.184,0,0,0,.062.017.178.178,0,0,1,.087.04c.048.04.1.076.146.117a.14.14,0,0,0,.082.034.671.671,0,0,1,.228.082.092.092,0,0,1,.031.024l.107.123a.181.181,0,0,1,.064.134.056.056,0,0,0,.024.049.517.517,0,0,0,.11.082.269.269,0,0,1,.13.138.531.531,0,0,0,.117.182.2.2,0,0,1,.059.121.316.316,0,0,0,.045.117.937.937,0,0,1,.09.141c.01.027.045.045.076.074a.184.184,0,0,0,.114.136l.026-.013a.357.357,0,0,0,.095.176.324.324,0,0,1,.064.092c.024.055.058.1.087.156,0,.009.014.017.016.027.006.029.007.059.014.087a.588.588,0,0,1,.027.084.133.133,0,0,0,.033.091l-.03.069a.164.164,0,0,0-.018.109.18.18,0,0,1-.042.137.227.227,0,0,0-.048.11.335.335,0,0,1-.019.053.086.086,0,0,0-.009.039.33.33,0,0,1-.008.129.062.062,0,0,0,0,.038.114.114,0,0,1,0,.1.263.263,0,0,0-.015.079.549.549,0,0,1-.031.15.863.863,0,0,0-.029.143c0,.018,0,.037-.007.058-.012.083-.025.166-.035.249a.159.159,0,0,1-.028.084.118.118,0,0,0-.019.043.236.236,0,0,1-.087.142c-.021.016-.031.046-.052.059a.217.217,0,0,0-.078.137,1.3,1.3,0,0,0-.044.138.142.142,0,0,1-.032.065.2.2,0,0,0-.044.167.04.04,0,0,1-.052.05.131.131,0,0,0-.14.036.631.631,0,0,1-.133.077.21.21,0,0,0-.1.1.151.151,0,0,1-.058.067.135.135,0,0,0-.059.074c-.007.017-.015.035-.023.052a.116.116,0,0,1-.018.037.85.85,0,0,0-.082.077c-.021.027-.032.063-.065.081a.211.211,0,0,0-.081.089.276.276,0,0,1-.129.117.221.221,0,0,0-.11.092.27.27,0,0,1-.167.134.073.073,0,0,0-.052.047c-.024.062-.084.08-.135.109-.009.006-.026,0-.033,0-.054.039-.1.074-.156.109a.085.085,0,0,1-.037.015.15.15,0,0,0-.108.049.019.019,0,0,1-.014.007c-.059,0-.085.04-.112.08a.3.3,0,0,1-.176.005.09.09,0,0,0-.04,0,.068.068,0,0,1-.059-.018.142.142,0,0,0-.105-.032.146.146,0,0,1-.07-.018.235.235,0,0,0-.293.107l-.027.05a.191.191,0,0,1-.127-.014.32.32,0,0,0-.158-.031.367.367,0,0,1-.1-.014.7.7,0,0,1-.079-.02.114.114,0,0,1-.036-.015.526.526,0,0,0-.136-.073.151.151,0,0,0-.11-.012Z"/><path class="cls-3" d="M40.432,16.9a.962.962,0,0,0,.092.223.393.393,0,0,1,.05.128.411.411,0,0,0,.059.151.174.174,0,0,1,.032.121.807.807,0,0,0,.048.374.216.216,0,0,1,.01.1.887.887,0,0,0,.01.163c.005.044.014.086.02.129a.065.065,0,0,1,0,.034.544.544,0,0,0-.013.2.294.294,0,0,1-.005.051.6.6,0,0,1-.012.1c-.028.091-.029.187-.052.279a.2.2,0,0,0-.009.033.711.711,0,0,1-.147.352,1.91,1.91,0,0,0-.189.257.035.035,0,0,1-.016.02c-.079.037-.11.118-.152.181-.03.047-.049.1-.079.145a.526.526,0,0,0-.058.133c-.022.066-.046.131-.071.195a.281.281,0,0,1-.043.075.37.37,0,0,0-.073.217.229.229,0,0,1-.04.118.7.7,0,0,0-.073.127.158.158,0,0,1-.107.106.045.045,0,0,0-.021.015,1.659,1.659,0,0,0-.156.176.211.211,0,0,1-.035.038c-.025.023-.052.045-.079.068a.068.068,0,0,1-.028.018c-.058.006-.1.05-.147.07-.03.011-.058.025-.088.036a.045.045,0,0,1-.032,0,.263.263,0,0,0-.259.051c-.017.01-.033.023-.051.033a1.778,1.778,0,0,1-.181.1.431.431,0,0,1-.183.043.272.272,0,0,0-.24.117c-.015.021-.029.043-.043.065a.139.139,0,0,1-.109.063.63.63,0,0,0-.217.054.065.065,0,0,1-.059,0c-.066-.032-.13,0-.194.008-.023,0-.042.027-.068.045a.081.081,0,0,0-.082-.024.071.071,0,0,1-.065-.02.157.157,0,0,0-.078-.034.865.865,0,0,0-.219-.047c-.077-.038-.167-.016-.246-.05a.064.064,0,0,0-.049,0,.076.076,0,0,1-.095-.022.237.237,0,0,0-.15-.078.641.641,0,0,1-.081-.027.668.668,0,0,0-.126-.024h-.009c-.039.014-.072-.016-.109-.016a.505.505,0,0,1-.1.007.283.283,0,0,1-.131-.08,1.419,1.419,0,0,0-.129-.117.551.551,0,0,1-.084-.059c-.008-.008-.021-.015-.024-.024a.2.2,0,0,0-.087-.1.071.071,0,0,1-.024-.035.145.145,0,0,0-.111-.1,2,2,0,0,1-.264-.107.15.15,0,0,1-.051-.043.883.883,0,0,0-.136-.144A.365.365,0,0,1,34.9,20.7a.187.187,0,0,0-.074-.071.076.076,0,0,1-.032-.027c-.057-.076-.118-.15-.181-.219a.3.3,0,0,1-.028-.044c-.01-.014-.017-.036-.031-.041-.054-.022-.071-.071-.1-.117a.172.172,0,0,0-.046-.051.174.174,0,0,1-.058-.085c-.022-.063-.048-.124-.069-.187a.142.142,0,0,0-.055-.075.737.737,0,0,1-.161-.2.1.1,0,0,1-.015-.04c-.01-.058-.018-.113-.028-.17a.19.19,0,0,1,.017-.158.06.06,0,0,0,.005-.059.536.536,0,0,0-.054-.136.277.277,0,0,1-.04-.2.6.6,0,0,0-.006-.231.217.217,0,0,1,.013-.144.359.359,0,0,0,.026-.134,1.034,1.034,0,0,1,0-.176c.006-.03-.016-.066-.028-.11a.193.193,0,0,0-.027-.187l-.031,0a.383.383,0,0,0,.012-.212A.307.307,0,0,1,33.9,17.5c.009-.064,0-.126.008-.189a.2.2,0,0,1,0-.035c.011-.029.027-.059.036-.087a.54.54,0,0,1,.023-.09.142.142,0,0,0,.02-.1l.066-.046a.175.175,0,0,0,.078-.089.183.183,0,0,1,.117-.1.243.243,0,0,0,.1-.074.349.349,0,0,1,.047-.037c.011-.009.026-.019.03-.03a.36.36,0,0,1,.079-.113.063.063,0,0,0,.017-.038.124.124,0,0,1,.055-.094.288.288,0,0,0,.059-.062.545.545,0,0,1,.112-.118.811.811,0,0,0,.106-.113c.013-.015.024-.032.037-.047.059-.069.117-.137.171-.207a.193.193,0,0,1,.072-.058.155.155,0,0,0,.043-.029.242.242,0,0,1,.158-.08c.028,0,.054-.025.081-.027a.23.23,0,0,0,.147-.08,1.424,1.424,0,0,0,.117-.1.157.157,0,0,1,.066-.041.206.206,0,0,0,.133-.126.042.042,0,0,1,.05-.033.039.039,0,0,1,.025.017.143.143,0,0,0,.148.045.6.6,0,0,1,.164.005.22.22,0,0,0,.139-.035.172.172,0,0,1,.09-.029.141.141,0,0,0,.1-.034l.051-.034a.109.109,0,0,1,.036-.022.977.977,0,0,0,.117-.025c.035-.013.065-.039.105-.037a.224.224,0,0,0,.123-.036.291.291,0,0,1,.183-.032.247.247,0,0,0,.151-.022.289.289,0,0,1,.226-.029.076.076,0,0,0,.074-.013.26.26,0,0,1,.183-.024c.012,0,.024.015.03.019l.2-.012a.126.126,0,0,1,.043.008.161.161,0,0,0,.125.016.017.017,0,0,1,.017,0,.14.14,0,0,0,.146-.009.327.327,0,0,1,.164.094.07.07,0,0,0,.035.023.074.074,0,0,1,.044.05.152.152,0,0,0,.078.089.147.147,0,0,1,.053.055.248.248,0,0,0,.325.066l.054-.031a.2.2,0,0,1,.107.085.322.322,0,0,0,.126.117.458.458,0,0,1,.087.071c.021.02.04.041.059.063a.094.094,0,0,1,.025.034.559.559,0,0,0,.082.142.165.165,0,0,0,.093.073Z"/><path class="cls-1" d="M191.922,91.959c.117.26.195.52.286.78a4.485,4.485,0,0,0-.151.491c-.015.053-.042.115-.007.159s.141.072.226.111c-.26.376-.1.755-.084,1.131.154.183,0,.385.122.57-.106.19-.021.388-.073.577a1.8,1.8,0,0,0,.03.992c.01.035.018.08-.014.106-.179.147-.13.308-.078.458a1.041,1.041,0,0,1,.026.381,5.129,5.129,0,0,1-.05.967.632.632,0,0,1-.093.325.189.189,0,0,0-.05.16c.053.2.124.4.188.6a.179.179,0,0,1,.015.082,3.233,3.233,0,0,1-.1.466.381.381,0,0,0,.018.3c.006.011,0,.024.01.035a.807.807,0,0,1,.033.57.61.61,0,0,0-.027.275,1.436,1.436,0,0,1-.144.878c-.044.089-.059.182-.105.271a.4.4,0,0,0,.079.51.266.266,0,0,1,0,.425c-.1.088-.055.171-.029.266.055.2.2.391.122.6a.088.088,0,0,0,.015.081.764.764,0,0,1,.093.439,3.891,3.891,0,0,0,.05.61c.05.2-.134.4.013.6a.042.042,0,0,1-.011.054c-.141.1-.106.2-.053.316.025.049-.015.108-.023.163-.01.073-.05.15-.019.218a.216.216,0,0,1-.031.267c-.093.1-.056.2.032.292.044.05.091.108.074.157a.713.713,0,0,0-.034.234c0,.162.042.324.039.485a.68.68,0,0,1-.007.277.977.977,0,0,0-.04.5c.015.249.033.5.047.747a.387.387,0,0,1,0,.194,1.151,1.151,0,0,0-.045.579,1.393,1.393,0,0,1-.041.663.42.42,0,0,0,0,.193,3.564,3.564,0,0,0,.039.527c.07.343-.1.681-.042,1.023a.082.082,0,0,1-.014.055.471.471,0,0,0-.039.412,2.527,2.527,0,0,1,.041.689,1.241,1.241,0,0,1-.046.3c-.057.255-.184.509-.035.768a.13.13,0,0,1,0,.109.377.377,0,0,0,.03.316c.26-.025.518-.056.777-.081.2-.02.406-.031.606-.05a.631.631,0,0,1,.339.028.5.5,0,0,0,.334.038,1.949,1.949,0,0,1,.835-.065,1.793,1.793,0,0,0,.3-.028,3.73,3.73,0,0,1,.607-.02,7.6,7.6,0,0,0,1.382,0,9.687,9.687,0,0,1,1.275,0c.5.028.991.017,1.486.011a4.355,4.355,0,0,1,.713.03,2.986,2.986,0,0,0,.707.007,4.923,4.923,0,0,1,.971,0,5.308,5.308,0,0,0,.864.029l.2-.011c.561-.034,1.12-.069,1.686-.05.2.007.406.03.61.039.244.01.5.035.736.029a1.509,1.509,0,0,0,.179-.011c.335-.039.644.034.967.006a1.987,1.987,0,0,1,.408.007,1.682,1.682,0,0,0,.553-.01c.215-.042.386.066.592.065a.85.85,0,0,0,.2-.024,3.777,3.777,0,0,1,1-.065c.551.018,1.1,0,1.643-.014a7.529,7.529,0,0,1,1.172.052,2.121,2.121,0,0,0,.606,0,2.8,2.8,0,0,1,.557-.027c.662.045,1.325.054,1.991.07.634.014,1.265.012,1.9.009a1.745,1.745,0,0,1,.2.012,4.312,4.312,0,0,0,1.168-.024,2.218,2.218,0,0,1,.355-.019c.391.006.783.009,1.171.033.24.014.479-.015.708,0a10.26,10.26,0,0,0,1.066.073,2.668,2.668,0,0,0,.947.03,1.627,1.627,0,0,0,.583-.081.671.671,0,0,1,.195-.008,1.316,1.316,0,0,0,.251,0,1.54,1.54,0,0,1,.55-.009.939.939,0,0,0,.254,0,2.09,2.09,0,0,1,.454-.011,3.5,3.5,0,0,0,.614-.006,4.464,4.464,0,0,1,.91-.014c.15.013.3.019.458.026a11.377,11.377,0,0,0,1.43.045,4.668,4.668,0,0,1,1.163-.026.26.26,0,0,0,.1,0,1.685,1.685,0,0,1,.605,0c.474.032.945.078,1.42.108.146.009.3-.03.451-.02.164.011.319.064.483.079a2.779,2.779,0,0,0,.408-.015c.237-.017.472-.038.708-.055.136-.01.28,0,.409-.024a8,8,0,0,1,2.079.027,4.73,4.73,0,0,0,.762.04c.527-.033,1.055.012,1.582-.008a.272.272,0,0,1,.1.012,2.73,2.73,0,0,0,.9.054,3.41,3.41,0,0,0,.9-.1,2.214,2.214,0,0,1,.846-.056c.4.053.806.076,1.21.11a1.128,1.128,0,0,0,.3,0,.673.673,0,0,0,.2-.121,9.877,9.877,0,0,0,2.1.044c.338-.082.712,0,1.055-.065.351.057.72.011,1.071.04a11.406,11.406,0,0,0,1.839-.016.544.544,0,0,1,.2.007,1.957,1.957,0,0,0,.851.041,6.911,6.911,0,0,1,.705-.013c.6,0,1.2-.009,1.794.025a3.567,3.567,0,0,1,.6.05,1.055,1.055,0,0,0,.3.027c.371-.029.739-.068,1.109-.1a1.121,1.121,0,0,1,.153-.008c.288.016.578.027.863.056a2.3,2.3,0,0,0,.556-.01,4.936,4.936,0,0,1,1.12-.023,3.96,3.96,0,0,0,.511.015,8.62,8.62,0,0,1,1.629.077c.164.024.338.032.5.057a2.189,2.189,0,0,0,.946-.043,1.373,1.373,0,0,1,.788,0,1.217,1.217,0,0,0,.492.016,5.7,5.7,0,0,1,1.108-.066.5.5,0,0,0,.15-.008,4.43,4.43,0,0,1,.814-.05c.377-.01.757,0,1.13-.026a7.857,7.857,0,0,0,1.117-.007.212.212,0,0,1,.1.006,1.1,1.1,0,0,0,.585.028,1.8,1.8,0,0,1,.3.013,2.492,2.492,0,0,0,.405.01,1.215,1.215,0,0,1,.5.017,1.018,1.018,0,0,0,.542-.018.92.92,0,0,1,.29-.04c.447.045.89,0,1.334,0,.114,0,.23-.006.344,0a1.351,1.351,0,0,1,.168.009,6.157,6.157,0,0,0,.921.022l1.388-.026a2.688,2.688,0,0,1,.359,0,7.017,7.017,0,0,0,1.075.025c.085,0,.17,0,.255,0a6.338,6.338,0,0,1,.974.027,2.688,2.688,0,0,0,.359,0l.306,0c.073-.017.147-.036.22-.056a2.166,2.166,0,0,1,.783-.109,2.3,2.3,0,0,0,.454,0,1.087,1.087,0,0,1,.346.023,1.835,1.835,0,0,0,.8.018.75.75,0,0,1,.4.009,1.89,1.89,0,0,0,.843.029,3.4,3.4,0,0,1,1.207.015,1,1,0,0,0,.294,0c.269-.026.536-.059.805-.085.2-.02.4-.03.6-.05a.635.635,0,0,1,.34.028.492.492,0,0,0,.333.038,1.989,1.989,0,0,1,.585-.072.533.533,0,0,1,.483-.183c.029,0,.057.009.085.012.751.08,1.482.271,2.232.335,0-.139-.008-.278-.025-.416a21.073,21.073,0,0,1,.416-6.924,12.264,12.264,0,0,0,.15-3.335c-.175-2.914-.96-5.8-.5-8.748a1.266,1.266,0,0,0-.109-.754c-.662-1.213-.147-2.339.192-3.492a6.221,6.221,0,0,0,.442-1.972,38.652,38.652,0,0,1-.115-6.183c.125-1.177-.145-2.357.45-3.526a4.02,4.02,0,0,0,.1-2.027c-.22-2.492-.482-4.977-.745-7.466a7.772,7.772,0,0,1,.273-3.571,5.048,5.048,0,0,0,.2-2.029,51.6,51.6,0,0,1-.38-8.5c.113-1.236-.551-2.525-.587-3.8-.04-1.363.3-2.732.371-4.1a58.834,58.834,0,0,1,.516-7.7,7.33,7.33,0,0,0-.251-3.826c-.036-.1-.056-.2-.085-.308-.691.014-1.359-.088-2.027-.1a.634.634,0,0,1-.2-.044c0-.019.006-.038.011-.057a7.229,7.229,0,0,0-1.265-.046,9.2,9.2,0,0,1-1.521.027h-.05a5.671,5.671,0,0,1-1.172-.05,1.949,1.949,0,0,0-.605.01,1.926,1.926,0,0,1-.5.013,3.047,3.047,0,0,0-.6.015c-.216.013-.439-.018-.66-.022a2.122,2.122,0,0,0-.251.03,1.215,1.215,0,0,1-.2.014c-.237-.013-.477-.025-.71-.049a2.194,2.194,0,0,0-.555.014,3.924,3.924,0,0,1-.938.02c-.059-.006-.118-.01-.177-.02a1.521,1.521,0,0,0-.6-.012,1.939,1.939,0,0,1-.4,0,2.334,2.334,0,0,0-.354-.019q-.56.038-1.121.019a2.51,2.51,0,0,0-.357.016,1.54,1.54,0,0,1-.55-.006,3.124,3.124,0,0,0-1.012,0,4.2,4.2,0,0,1-.768.04c-.084,0-.167-.008-.251-.016a3.029,3.029,0,0,0-.761.012,1.768,1.768,0,0,1-.3,0c-.137,0-.272-.016-.408-.018-.786-.007-1.571.079-2.358,0a1.488,1.488,0,0,0-.2.019,1.912,1.912,0,0,1-.251,0,3.623,3.623,0,0,0-.765.015.632.632,0,0,1-.245,0,1.8,1.8,0,0,0-.7-.049c-.442.023-.887-.036-1.327.019a.336.336,0,0,1-.1,0,6.519,6.519,0,0,0-1.073-.02q-.489,0-.975,0c-.188,0-.374-.021-.562-.02-.377,0-.754.015-1.131.02a3.72,3.72,0,0,1-.46-.013,1.71,1.71,0,0,0-.5.01,3.212,3.212,0,0,1-.865.015,4.933,4.933,0,0,0-1.171.023,6.438,6.438,0,0,1-1.226.033c-.491-.032-.98-.06-1.477-.07-.465-.01-.918.04-1.378.034-.154,0-.308,0-.463-.006-.238-.007-.476-.025-.714-.022-.566.008-1.124-.028-1.685-.058a2.507,2.507,0,0,0-.45.017,5.031,5.031,0,0,1-1.019.023,1.79,1.79,0,0,0-.351,0,3.387,3.387,0,0,1-.4,0,14.022,14.022,0,0,0-1.739.054.832.832,0,0,1-.344-.019,2.129,2.129,0,0,0-.939-.054,1.63,1.63,0,0,1-.407,0,1.5,1.5,0,0,0-.4,0,1.393,1.393,0,0,1-.25.005c-.187-.005-.374-.018-.561-.018a6.294,6.294,0,0,1-.921-.023,1.324,1.324,0,0,0-.35.014,5.25,5.25,0,0,1-1.221.025c-.15-.014-.306-.011-.46-.011-.359,0-.717-.007-1.075-.016-.415-.009-.837.058-1.262.027a1.69,1.69,0,0,1-.7,0,1.329,1.329,0,0,0-.551-.008,2.671,2.671,0,0,1-.606-.014c-.219,0-.437.029-.656.043-.032,0-.066-.01-.1-.011-.15-.007-.305-.019-.458-.016-.442.01-.886-.03-1.327.023a1.862,1.862,0,0,1-.358,0,7.456,7.456,0,0,0-1.629.026,1,1,0,0,1-.251.008,5.769,5.769,0,0,0-.9-.056,14.068,14.068,0,0,0-1.836.053c-.094.011-.2-.013-.3-.011a7.323,7.323,0,0,0-1.42,0,.472.472,0,0,1-.15,0,9.1,9.1,0,0,0-1.279-.021,2.842,2.842,0,0,1-.5-.028,3.265,3.265,0,0,0-1.158-.015,1.123,1.123,0,0,1-.3.01,5.616,5.616,0,0,0-.87-.019c-.36.005-.727.038-1.078.01-.448-.035-.888-.018-1.332-.015-.188,0-.376-.006-.564-.012s-.373-.02-.561-.02c-.291,0-.583.012-.874.015a17.092,17.092,0,0,1-2-.008.557.557,0,0,0-.1,0c-.526.045-1.056.013-1.583.02a4.987,4.987,0,0,0-.855.046.554.554,0,0,1-.294-.014.973.973,0,0,0-.54-.021.778.778,0,0,1-.4.011,1.444,1.444,0,0,0-.785-.023.753.753,0,0,1-.15.012,8.6,8.6,0,0,1-.922-.013,5.226,5.226,0,0,0-1.016-.009c-.246.026-.511-.005-.766,0-.27.006-.539.03-.809.039a7.2,7.2,0,0,1-.869-.02c-.267-.024-.551.008-.821-.007-.139-.007-.278-.029-.41-.023a.581.581,0,0,0-.264.067.279.279,0,0,1-.1.006c-.238-.01-.48-.012-.714-.036a3.158,3.158,0,0,0-.863.014,2.195,2.195,0,0,1-.506.013c-.44-.028-.883-.042-1.325-.062-.1,0-.207,0-.306-.016a3.311,3.311,0,0,0-.434-.02c-.179,0-.358.011-.536.023-.085.006-.168.019-.251.02-.393,0-.786-.005-1.179,0-.257,0-.522.031-.769.006a3.937,3.937,0,0,0-1.056.058,1.458,1.458,0,0,1-.783-.044,1.025,1.025,0,0,0-.489-.029,4.375,4.375,0,0,1-.715.014,7.153,7.153,0,0,0-1.317-.024,1.333,1.333,0,0,1-.2-.009c-.205-.007-.409-.02-.613-.018-.429,0-.857.02-1.286.022-.221,0-.442-.019-.663-.021h-.033a.285.285,0,0,0,.012.058.2.2,0,0,1-.044.187.331.331,0,0,0-.033.432.139.139,0,0,1,0,.2l-.017.015c-.176.149-.112.3-.053.455a.58.58,0,0,1-.027.65c-.037.043-.01.107.007.159.05.145.109.289.157.434.037.108.057.219.1.326a.13.13,0,0,1-.043.18l-.007,0c-.085.053-.13.12-.07.18a.372.372,0,0,1,.119.45c-.022.05.041.107.05.162.021.109.078.224.039.327a1.222,1.222,0,0,0,0,.747,1.592,1.592,0,0,1,0,.687,3.168,3.168,0,0,0-.021.8.713.713,0,0,1-.057.384.479.479,0,0,0-.012.382.808.808,0,0,1,0,.523c-.006.015-.009.031-.014.046a.7.7,0,0,0-.009.093.829.829,0,0,0-.032.328,2.976,2.976,0,0,1,.067.351,3.981,3.981,0,0,1-.081.693,6.434,6.434,0,0,0-.068,2.062.152.152,0,0,0-.037.092.173.173,0,0,0,.043.106c.009.011.01.026.018.037.025.159.067.317.1.475,0,.01,0,.02,0,.03a4.758,4.758,0,0,0,.026.885,1.229,1.229,0,0,1-.1.633.353.353,0,0,0,0,.327.461.461,0,0,1,.05.3,7.2,7.2,0,0,0-.129,1.074c-.027.342-.023.683-.017,1.024a.281.281,0,0,1-.022.11.72.72,0,0,0,.044.63.374.374,0,0,1,.037.192,4.3,4.3,0,0,1-.062.63c-.027.13.027.259,0,.383a1.726,1.726,0,0,0-.136.575c-.171.165-.093.337-.056.51.023.11,0,.221.15.315.034.021.013.069.014.105s-.026.1,0,.137a.264.264,0,0,1,.016.3.157.157,0,0,0,.009.137c.006.013,0,.028,0,.042a21.951,21.951,0,0,0-.492,4.818l0,0,.006.019a8.042,8.042,0,0,0,.157,1.213c.029.137.065.273.1.41a.822.822,0,0,0-.038.213c.061.284-.022.569.014.853a.058.058,0,0,1-.022.053c-.191.153-.092.323-.1.487a.661.661,0,0,0,.183.482.405.405,0,0,1,.1.457,4.245,4.245,0,0,0-.2.653c-.015.053-.042.114-.007.159a.784.784,0,0,0,.225.11c-.259.376-.1.755-.083,1.132.153.183,0,.384.122.569-.107.19-.021.388-.073.578a1.8,1.8,0,0,0,.029.992c.01.034.018.08-.013.106-.18.146-.13.308-.078.458a1.058,1.058,0,0,1,.026.38,5.3,5.3,0,0,1-.05.967.627.627,0,0,1-.094.326.19.19,0,0,0-.05.16c.053.2.125.4.188.6a.179.179,0,0,1,.016.082,3.525,3.525,0,0,1-.1.466.377.377,0,0,0,.018.3.808.808,0,0,1,.042.605.639.639,0,0,0-.027.275c0,.031,0,.062,0,.092-.06.292-.118.584-.178.876a1.449,1.449,0,0,1-.07.182.376.376,0,0,0-.029.315c-.217,1.068-.428,2.136-.595,3.208-.114.737.428,1.523.3,2.256-.145.829-.849,1.609-1.029,2.439a5.171,5.171,0,0,0,.234,2.049c.239,1.188.547,2.37.8,3.558A9.253,9.253,0,0,0,191.922,91.959Z"/><path class="cls-1" d="M289.512,178.281a3.49,3.49,0,0,0,.085-1.024,4.967,4.967,0,0,1,1.04-4.058c-.175-.506-.306-.914-.455-1.316a5.449,5.449,0,0,1-.235-3.772,5.092,5.092,0,0,0-.035-2.807,4.478,4.478,0,0,1-.217-1.746,23.348,23.348,0,0,0-.123-7.717c-.366-2.773.451-5.48.361-8.231,1.013-1.569.571-3.11-.022-4.685a7.631,7.631,0,0,1-.232-1.792,24.378,24.378,0,0,0-.9-5.075c-.394-1.179-.733-2.566.166-3.732a2.769,2.769,0,0,0,.25-3.146,4.6,4.6,0,0,1-.3-1.251,37.519,37.519,0,0,1-.293-6.312c-.773.05-1.543.153-2.32.164a.17.17,0,0,1-.05-.009.618.618,0,0,1-.089.156,8.865,8.865,0,0,0-1.23-.037,11.046,11.046,0,0,1-1.511.022h-.05a6.755,6.755,0,0,1-1.164-.041,2.37,2.37,0,0,0-.6.008,2.209,2.209,0,0,1-.5.01,3.658,3.658,0,0,0-.6.014c-.214.01-.436-.015-.656-.019a2.351,2.351,0,0,0-.25.025,1.665,1.665,0,0,1-.2.012c-.236-.011-.474-.021-.7-.043a2.671,2.671,0,0,0-.551.012,4.759,4.759,0,0,1-.932.017c-.059,0-.118-.009-.177-.017a1.834,1.834,0,0,0-.6-.01,2.238,2.238,0,0,1-.4,0,2.918,2.918,0,0,0-.35-.015c-.371.04-.742.006-1.113.015a3.213,3.213,0,0,0-.354.014,1.818,1.818,0,0,1-.551,0,3.758,3.758,0,0,0-1,0,4.987,4.987,0,0,1-.763.034c-.083,0-.166-.007-.251-.014a3.6,3.6,0,0,0-.756.01,2.326,2.326,0,0,1-.3,0c-.135,0-.27-.014-.405-.015-.781-.007-1.561.064-2.342,0a1.7,1.7,0,0,0-.2.015c-.083,0-.167.006-.25,0a4.287,4.287,0,0,0-.76.012.792.792,0,0,1-.243,0,2.138,2.138,0,0,0-.695-.042c-.44.02-.882-.03-1.319.016a.419.419,0,0,1-.1,0,7.916,7.916,0,0,0-1.067-.018h-.969c-.185,0-.371-.017-.556-.016-.376,0-.752.012-1.125.016a4.338,4.338,0,0,1-.456-.01,2.1,2.1,0,0,0-.5.008,3.916,3.916,0,0,1-.859.013,5.8,5.8,0,0,0-1.163.018,7.505,7.505,0,0,1-1.218.027c-.489-.026-.974-.05-1.468-.058-.462-.007-.911.034-1.369.029-.153,0-.306,0-.459-.005-.237-.006-.474-.021-.71-.018-.562.006-1.117-.023-1.674-.05a3.073,3.073,0,0,0-.45.015,6.122,6.122,0,0,1-1.013.019,2.166,2.166,0,0,0-.351-.005,3.831,3.831,0,0,1-.4,0,16.591,16.591,0,0,0-1.727.045,1.008,1.008,0,0,1-.342-.016,2.551,2.551,0,0,0-.934-.044,1.91,1.91,0,0,1-.4,0,1.793,1.793,0,0,0-.4,0,1.606,1.606,0,0,1-.25,0c-.186,0-.372-.015-.558-.015a7.336,7.336,0,0,1-.914-.019,1.585,1.585,0,0,0-.351.012,6.224,6.224,0,0,1-1.213.02c-.15-.011-.3-.008-.457-.009-.356,0-.712,0-1.067-.012-.413-.008-.832.046-1.252.021a2.02,2.02,0,0,1-.7,0,1.589,1.589,0,0,0-.546-.007,3.177,3.177,0,0,1-.6-.012c-.217,0-.434.024-.651.035-.031,0-.066-.008-.1-.009-.15,0-.3-.015-.456-.012-.439.008-.88-.025-1.318.018a2.016,2.016,0,0,1-.356,0,9.12,9.12,0,0,0-1.619.022,1.1,1.1,0,0,1-.25.007,6.878,6.878,0,0,0-.9-.046,17.082,17.082,0,0,0-1.824.043c-.093.01-.2-.011-.3-.009a8.982,8.982,0,0,0-1.411,0,.538.538,0,0,1-.15,0,11,11,0,0,0-1.271-.017,3.356,3.356,0,0,1-.5-.023,3.9,3.9,0,0,0-1.152-.012,1.368,1.368,0,0,1-.3.008,6.558,6.558,0,0,0-.864-.015c-.358,0-.723.031-1.071.008-.446-.03-.883-.016-1.324-.013-.187,0-.373,0-.56-.009s-.371-.017-.557-.017c-.289,0-.579.01-.869.011-.661,0-1.324.056-1.985-.006a.834.834,0,0,0-.1,0c-.522.037-1.049.011-1.573.018a5.914,5.914,0,0,0-.852.037.651.651,0,0,1-.291-.012,1.148,1.148,0,0,0-.537-.017.923.923,0,0,1-.4.009,1.713,1.713,0,0,0-.78-.018.944.944,0,0,1-.15.009c-.306,0-.607.013-.916-.01a6.193,6.193,0,0,0-1.01-.008c-.244.022-.507-.005-.761,0s-.535.025-.8.032a8.3,8.3,0,0,1-.864-.017c-.265-.019-.545.007-.815,0-.139-.006-.276-.024-.408-.02a.677.677,0,0,0-.262.056.306.306,0,0,1-.1,0c-.237-.008-.477-.01-.71-.03a3.829,3.829,0,0,0-.856.012,2.572,2.572,0,0,1-.5.01c-.437-.022-.877-.034-1.316-.05-.1,0-.2,0-.292-.013h-.012a5.967,5.967,0,0,0-.964,0c-.084.005-.167.016-.25.016-.39,0-.781,0-1.172,0-.255,0-.518.026-.764.006a4.679,4.679,0,0,0-1.051.047,1.733,1.733,0,0,1-.778-.036,1.243,1.243,0,0,0-.486-.025,5.1,5.1,0,0,1-.71.013,8.538,8.538,0,0,0-1.309-.02,1.681,1.681,0,0,1-.2-.008c-.2-.006-.406-.016-.609-.014-.425,0-.851.016-1.277.018-.219,0-.439-.016-.659-.018h-.033a.283.283,0,0,0,.013.05.143.143,0,0,1-.045.154.237.237,0,0,0-.049.333l.018.021c.05.06.063.12-.018.176-.175.121-.111.245-.052.374.08.178.157.357-.028.535-.037.036-.009.088.008.131.047.119.107.238.156.357.036.089.055.179.095.268a.1.1,0,0,1-.027.139l-.023.011c-.009,0-.011.01-.018.015-.068.041-.1.089-.052.134.146.119.192.238.119.37-.022.041.041.088.05.133.021.09.078.185.038.27a.842.842,0,0,0,0,.613,1.087,1.087,0,0,1,0,.566,2.207,2.207,0,0,0-.02.659.5.5,0,0,1-.057.316.336.336,0,0,0-.012.314.556.556,0,0,1,0,.431c-.006.012-.009.024-.014.037a.578.578,0,0,0-.04.348,2.217,2.217,0,0,1,.1.554c-.458,1.654-.726,3.34-1.073,5.011a2.1,2.1,0,0,0-.029,1.485,2.272,2.272,0,0,0,.912.635c-.011.086-.013.172-.031.256-.027.107.027.213,0,.315a1.238,1.238,0,0,0-.135.472c-.169.136-.092.278-.055.42.023.09,0,.182.15.259.034.017.012.057.013.087s-.025.079,0,.112a.19.19,0,0,1,.017.245.106.106,0,0,0,.008.112.233.233,0,0,1,.019.2v.009a11.23,11.23,0,0,0-.225,2.946l-.006.018a.1.1,0,0,0,.008.041c0,.064,0,.127.007.191a1.609,1.609,0,0,0-.123.181.31.31,0,0,0,.028.182c.01.036.023.072.035.108-.016.015-.03.029-.047.043a.875.875,0,0,1-.176.074l-.013.005a1.721,1.721,0,0,1,.107.268.719.719,0,0,0,.268.364l.026.023.016.144a1.915,1.915,0,0,1-.119.388.55.55,0,0,0-.072.339,6.828,6.828,0,0,1,.013.7.044.044,0,0,1-.022.044c-.19.126-.092.265-.1.4a.5.5,0,0,0,.182.4c.12.114.178.239.1.375a3.124,3.124,0,0,0-.2.537c-.015.044-.042.094-.007.131a.857.857,0,0,0,.224.091c-.258.309-.1.621-.082.931.15.149,0,.316.12.468-.106.156-.021.319-.072.475a1.235,1.235,0,0,0,.029.816c.01.028.018.066-.014.087-.177.121-.129.253-.076.377a.736.736,0,0,1,.025.313,3.539,3.539,0,0,1-.047.8c-.022.091-.008.181-.093.268a.141.141,0,0,0-.05.132c.053.164.124.327.187.491a.124.124,0,0,1,.015.068,2.3,2.3,0,0,1-.1.383.263.263,0,0,0,.019.249.568.568,0,0,1,.041.5.436.436,0,0,0-.027.226,1,1,0,0,1-.143.723c-.043.073-.058.149-.1.223a.289.289,0,0,0,.06.406l.019.013c.129.11.15.234,0,.348-.1.073-.056.141-.03.218.055.163.2.322.121.492a.065.065,0,0,0,.015.067c.1.117.079.24.092.361a2.808,2.808,0,0,0,.05.5c.05.167-.132.332.013.5a.029.029,0,0,1-.006.041l0,0c-.14.083-.1.168-.05.26.024.041-.015.089-.023.134-.01.06-.05.124-.019.179a.155.155,0,0,1-.029.219h0c-.092.082-.055.161.033.241.043.039.09.088.073.128-.082.2.009.4,0,.592a.64.64,0,0,1,0,.186c-.169.136-.092.278-.055.42.006.025.009.05.013.075.015.19.03.381.044.571,0,.053.024.109,0,.159a.788.788,0,0,0-.045.477.955.955,0,0,1-.041.547c-.027.05,0,.106,0,.159a2.623,2.623,0,0,0,.039.434c.07.282-.1.56-.041.841a.06.06,0,0,1-.015.045.33.33,0,0,0-.038.339,1.741,1.741,0,0,1,.04.566.434.434,0,0,1-.009.1.365.365,0,0,0-.066.1.2.2,0,0,0,.009.123c-.06.188-.147.376-.015.566a.084.084,0,0,1,0,.089.283.283,0,0,0,.05.292.234.234,0,0,1-.028.332l0,0a.273.273,0,0,0-.039.357,1.156,1.156,0,0,1,.086.269.9.9,0,0,1,.014.137,2.745,2.745,0,0,0-.007.471.043.043,0,0,1-.021.044c-.19.126-.092.266-.1.4a.5.5,0,0,0,.181.4c.121.114.179.239.1.375a3.213,3.213,0,0,0-.2.537c-.015.044-.041.094-.007.131a.872.872,0,0,0,.224.091c-.257.309-.1.621-.082.931.15.149,0,.316.121.468-.106.156-.021.319-.073.475a1.235,1.235,0,0,0,.029.816c.01.028.018.066-.013.087-.178.121-.13.253-.077.377a.72.72,0,0,1,.025.313,3.482,3.482,0,0,1-.047.8c-.022.091-.007.181-.093.268a.141.141,0,0,0-.05.132c.053.164.124.327.187.491a.124.124,0,0,1,.016.068,2.333,2.333,0,0,1-.1.383.263.263,0,0,0,.019.249.564.564,0,0,1,.042.5.426.426,0,0,0-.028.226,1.006,1.006,0,0,1-.142.723c-.044.073-.059.149-.1.223a.289.289,0,0,0,.059.406l.019.013c.129.11.15.234,0,.348-.1.073-.055.141-.029.218.054.163.2.322.121.492a.062.062,0,0,0,.015.067c.1.117.079.24.092.361a2.719,2.719,0,0,0,.05.5c.05.167-.133.332.013.5a.03.03,0,0,1-.007.041l0,0c-.14.082-.106.168-.05.26.024.041-.015.089-.023.134-.011.06-.051.124-.019.179a.156.156,0,0,1-.03.219h0c-.092.082-.056.161.032.241.043.039.09.088.074.128a.471.471,0,0,0-.034.193c0,.133.041.266.038.4,0,.076.033.156-.007.227a.683.683,0,0,0-.04.409c.015.205.033.41.047.616,0,.053.025.109,0,.159a.787.787,0,0,0-.044.477.955.955,0,0,1-.041.547c-.027.05,0,.106,0,.159a2.424,2.424,0,0,0,.039.434c.069.282-.1.56-.042.841a.053.053,0,0,1-.015.045.332.332,0,0,0-.038.339,1.714,1.714,0,0,1,.041.566.843.843,0,0,1-.046.249c-.056.21-.183.419-.035.632a.089.089,0,0,1,0,.089.263.263,0,0,0,.031.261c.258-.021.514-.047.772-.068.2-.016.4-.025.6-.042a.757.757,0,0,1,.338.023.585.585,0,0,0,.331.031,2.345,2.345,0,0,1,.83-.053,2.124,2.124,0,0,0,.3-.023,4.667,4.667,0,0,1,.6-.017,9,9,0,0,0,1.374,0,12.15,12.15,0,0,1,1.266,0c.352.017.7.01,1.049.007.051.007.1.008.154.017a3.187,3.187,0,0,0,1.013.012h.017a3.55,3.55,0,0,0,.652,0,5.939,5.939,0,0,1,.706,0h.02a5.92,5.92,0,0,0,1.242.056c.355-.038.713-.06,1.071-.079.219,0,.437-.012.657,0,.2.006.4.024.606.031.243.008.493.029.731.024a1.773,1.773,0,0,0,.179-.009,2.81,2.81,0,0,1,.4,0c.33.03.663.049,1,.052a2.225,2.225,0,0,0,.258-.021,2.13,2.13,0,0,1,.345-.021,3.424,3.424,0,0,1,.506.046c.031,0,.063-.007.094-.01a2.522,2.522,0,0,0,.443,0,2.091,2.091,0,0,1,.586.014,1.857,1.857,0,0,0,.8-.02c.31-.08.555.127.85.124a1,1,0,0,0,.286-.045,3.973,3.973,0,0,1,.63-.113c.1.007.2,0,.3.011a2.517,2.517,0,0,0,.6,0,3.412,3.412,0,0,1,.553-.022c.658.037,1.317.044,1.978.057.447.009.892.006,1.337.006.026,0,.054,0,.08.009a2.341,2.341,0,0,0,.761.006,5.152,5.152,0,0,0,1.068-.023c.085-.009.171-.01.256-.012.033,0,.065,0,.1,0,.388,0,.777.008,1.162.027.239.012.476-.012.7,0,.35.022.7.068,1.058.06a3.193,3.193,0,0,0,.941.025,1.9,1.9,0,0,0,.58-.067.787.787,0,0,1,.194-.006,1.738,1.738,0,0,0,.25,0,1.851,1.851,0,0,1,.551-.007,1.109,1.109,0,0,0,.251,0,2.416,2.416,0,0,1,.45-.009,4.153,4.153,0,0,0,.611,0,5.315,5.315,0,0,1,.9-.011c.15.01.3.015.455.021a13.471,13.471,0,0,0,1.421.037,5.565,5.565,0,0,1,1.154-.021.311.311,0,0,0,.1,0,2.087,2.087,0,0,1,.6,0c.471.027.938.064,1.41.089.145.007.3-.025.446-.016.164.009.317.053.48.064a3.234,3.234,0,0,0,.406-.012c.235-.014.469-.031.7-.045.134-.008.277,0,.405-.02a9.578,9.578,0,0,1,2.066.023,5.787,5.787,0,0,0,.756.032c.524-.027,1.049.01,1.572-.006a.324.324,0,0,1,.1.01,3.323,3.323,0,0,0,.9.044,4.03,4.03,0,0,0,.89-.081,2.636,2.636,0,0,1,.84-.046c.394.043.8.062,1.2.09a1.435,1.435,0,0,0,.293,0,.75.75,0,0,0,.2-.1,11.88,11.88,0,0,0,2.083.036c.337-.067.708,0,1.049-.053.35.049.715.009,1.064.032a13.584,13.584,0,0,0,1.827-.013.716.716,0,0,1,.2.006,2.3,2.3,0,0,0,.844.034c.239-.02.464-.012.7-.011.595,0,1.188-.007,1.782.021a4.03,4.03,0,0,1,.6.042,1.215,1.215,0,0,0,.295.021c.368-.023.734-.055,1.1-.083a1.083,1.083,0,0,1,.151-.007c.286.013.575.022.857.046a2.743,2.743,0,0,0,.551-.008,5.912,5.912,0,0,1,1.113-.019,4.768,4.768,0,0,0,.507.012,10.3,10.3,0,0,1,1.619.064c.163.019.335.026.5.046a2.623,2.623,0,0,0,.939-.035,1.646,1.646,0,0,1,.783,0,1.461,1.461,0,0,0,.489.014,6.655,6.655,0,0,1,1.1-.054.629.629,0,0,0,.15-.007,5.323,5.323,0,0,1,.808-.041c.375-.008.751,0,1.123-.022a9.343,9.343,0,0,0,1.11-.006.306.306,0,0,1,.1,0,1.3,1.3,0,0,0,.581.024,2.308,2.308,0,0,1,.3.01,2.983,2.983,0,0,0,.4.009,1.452,1.452,0,0,1,.492.013,1.207,1.207,0,0,0,.538-.014,1.075,1.075,0,0,1,.288-.033c.444.037.885,0,1.326,0,.113,0,.229-.006.341-.005a1.574,1.574,0,0,1,.168.008,7.335,7.335,0,0,0,.914.017c.46-.006.92-.014,1.38-.021a3.02,3.02,0,0,1,.356,0,8.458,8.458,0,0,0,1.068.02l.253,0a7.608,7.608,0,0,1,.967.022,3.037,3.037,0,0,0,.357,0c.1,0,.2,0,.3,0,.074-.014.146-.029.219-.047a2.586,2.586,0,0,1,.778-.089,2.516,2.516,0,0,0,.451,0,1.367,1.367,0,0,1,.344.02,2.208,2.208,0,0,0,.794.015.884.884,0,0,1,.393.007,2.229,2.229,0,0,0,.838.024,4.077,4.077,0,0,1,1.2.012,1.205,1.205,0,0,0,.294,0c.267-.021.532-.05.8-.07.2-.016.4-.025.6-.042a.753.753,0,0,1,.337.022.58.58,0,0,0,.332.032,2.3,2.3,0,0,1,.792-.054.578.578,0,0,1,.347-.194.621.621,0,0,1,.135-.027c1.368,0,2.785-.077,4.186-.076-.107-.6-.245-1.185-.4-1.757A16.858,16.858,0,0,1,289.512,178.281Z"/><path class="cls-4" d="M124.717,151.575c.032-1.852.229-3.7.3-5.552a5.178,5.178,0,0,0-.18-2.4,5.448,5.448,0,0,1-.1-3.77,18.83,18.83,0,0,0,.087-5.906c-.2-1.737-.382-3.478-.5-5.222a4.776,4.776,0,0,1,.154-2.394,4.717,4.717,0,0,0,.141-3.335c-.193-1.334-.307-2.678-.384-4.024l1.646-.165a15.545,15.545,0,0,1-.565-3.482c.189-3.238.585-6.466.874-9.7a4.773,4.773,0,0,0-.874-3.658,2.659,2.659,0,0,1-.605-1.577c.032-1.852.229-3.7.3-5.552a5.179,5.179,0,0,0-.18-2.4,5.448,5.448,0,0,1-.1-3.77,18.83,18.83,0,0,0,.087-5.906c-.2-1.737-.382-3.478-.5-5.222a4.776,4.776,0,0,1,.154-2.394,4.717,4.717,0,0,0,.141-3.335,46.692,46.692,0,0,1-.466-5.527c-.213.034-.425.067-.638.1a1.9,1.9,0,0,1-.439.024,15.9,15.9,0,0,0-2.034-.119,6.341,6.341,0,0,1-1.782-.213c-.233-.067-.452-.177-.688-.23a1.128,1.128,0,0,0-1.048.123.352.352,0,0,1-.266.08,2.129,2.129,0,0,0-1.219.127.8.8,0,0,1-.859-.2c-.03-.035-.059-.094-.093-.1-.457-.057-.74-.42-1.159-.563a.852.852,0,0,1-.681.131.746.746,0,0,0-.69.146,1.148,1.148,0,0,1-.245.11l-.638-.3c-.094.079-.172.114-.2.171a.882.882,0,0,1-1.1.446,1.057,1.057,0,0,0-.43.02,1.211,1.211,0,0,1-1.048-.031c-.062-.041-.191.016-.288.008a2.291,2.291,0,0,0-.56-.063c-.269.047-.234-.3-.519-.251-.049.1-.1.208-.152.318a6.513,6.513,0,0,0-.859-.078,1.949,1.949,0,0,0-1.339.249.641.641,0,0,1-.282.062c-.289.047-.578.1-.868.135a1.9,1.9,0,0,1-.439.024,15.9,15.9,0,0,0-2.034-.119,6.329,6.329,0,0,1-1.781-.213c-.233-.068-.453-.177-.688-.23a1.128,1.128,0,0,0-1.048.123.351.351,0,0,1-.269.08,2.112,2.112,0,0,0-1.219.127.8.8,0,0,1-.86-.2c-.03-.035-.057-.095-.092-.1-.457-.057-.74-.42-1.159-.563a.85.85,0,0,1-.68.13.753.753,0,0,0-.692.147,1.163,1.163,0,0,1-.244.11l-.638-.3c-.094.078-.172.114-.2.17a.883.883,0,0,1-1.1.447,1.074,1.074,0,0,0-.43.019,1.208,1.208,0,0,1-1.048-.031c-.062-.041-.191.016-.287.008a2.355,2.355,0,0,0-.561-.063c-.269.047-.234-.3-.519-.25-.039.08-.08.167-.121.254-.1-.009-.2-.014-.3-.015a1.952,1.952,0,0,0-1.338.25.674.674,0,0,1-.283.062c-.289.047-.577.095-.868.134a1.839,1.839,0,0,1-.438.024,16.079,16.079,0,0,0-2.034-.119,6.268,6.268,0,0,1-1.782-.213c-.234-.067-.452-.177-.688-.23a1.133,1.133,0,0,0-1.048.123.343.343,0,0,1-.269.08,2.124,2.124,0,0,0-1.22.128.8.8,0,0,1-.858-.2c-.031-.035-.059-.095-.094-.1-.456-.056-.739-.419-1.158-.563a.853.853,0,0,1-.681.131.753.753,0,0,0-.691.146,1.1,1.1,0,0,1-.245.111l-.637-.3c-.094.078-.172.113-.2.17a.814.814,0,0,1-.911.465c.028.084.041.17.073.256a14.967,14.967,0,0,1,.65,6.192c-.135,2.6-1,5.305.71,7.787a1.787,1.787,0,0,1,.177,1.009,16.638,16.638,0,0,1-.133,4.054,3.4,3.4,0,0,1-.149.422c-.672,1.511-.036,3.026-.56,4.362-1.191,3.04-.669,6.128.142,8.953.85,2.954.577,5.715.256,8.583a4.413,4.413,0,0,0-.131,1.383,6.411,6.411,0,0,1-1.536,5.473c.248.686.435,1.238.646,1.781a6.643,6.643,0,0,1,.331.874.82.82,0,0,1-.476.052c.028.084.041.17.073.256a14.967,14.967,0,0,1,.65,6.192c-.135,2.6-1,5.3.71,7.787a1.787,1.787,0,0,1,.177,1.009,16.638,16.638,0,0,1-.133,4.054,3.4,3.4,0,0,1-.149.422c-.672,1.511-.036,3.026-.56,4.362-1.191,3.04-.669,6.128.142,8.953.85,2.954.577,5.715.256,8.583a4.41,4.41,0,0,0-.131,1.382,6.412,6.412,0,0,1-1.536,5.474c.248.686.435,1.238.646,1.781a6.943,6.943,0,0,1,.521,1.624,3.081,3.081,0,0,1,3.145.212,2.29,2.29,0,0,0,2.743.25,3.79,3.79,0,0,1,1.094-.27c2.988-.474,5.992-.146,8.988-.194a19.17,19.17,0,0,0,2.02.021,17.262,17.262,0,0,1,6.041.426,10.043,10.043,0,0,0,2.91.16c2.545-.148,5.064-.863,7.638-.423a1.048,1.048,0,0,0,.658-.1c1.063-.61,2.042-.125,3.047.2a5.16,5.16,0,0,0,1.719.423,31.655,31.655,0,0,1,5.4-.074c1.027.123,2.058-.123,3.075.437a3.3,3.3,0,0,0,1.769.1c.935-.082,1.867-.187,2.8-.281a15.545,15.545,0,0,1-.565-3.482c.189-3.238.585-6.466.874-9.7a4.773,4.773,0,0,0-.874-3.658A2.659,2.659,0,0,1,124.717,151.575Z"/></svg>