<svg id="Layer_1" data-name="Layer 1" xmlns="http://www.w3.org/2000/svg" viewBox="0 0 296 194"><defs><style>.cls-1{fill:#f36;}.cls-2{fill:none;stroke:#1858a8;stroke-miterlimit:10;}.cls-3{fill:#ffeded;}.cls-4{fill:#1858a8;}</style></defs><title>Untitled-1</title><path class="cls-1" d="M6.652,186.2a.952.952,0,0,0,.252.145,13.271,13.271,0,0,1,1.947.637.624.624,0,0,0,.658,0c.045-.034.16-.007.243-.011a2.005,2.005,0,0,0,.438-.029,1.03,1.03,0,0,1,.682.033.914.914,0,0,0,.621.039.516.516,0,0,1,.25-.014,1.768,1.768,0,0,0,1.105-.174,1.263,1.263,0,0,1,.674-.125,2.379,2.379,0,0,1,.618.123,1.884,1.884,0,0,0,.933.125c.424-.022.847-.05,1.3-.081a1.2,1.2,0,0,1,.183.109.883.883,0,0,0,.875.162,3.335,3.335,0,0,1,.631-.073,3.138,3.138,0,0,0,.573-.04,1.968,1.968,0,0,1,.982-.015,4.677,4.677,0,0,1,.533-.216.346.346,0,0,0,.315-.372c.087,0,.176.009.271.015a2.185,2.185,0,0,0,.552-.107c.166.244.447.246.756.171a.367.367,0,0,0,.113-.048,1.2,1.2,0,0,1,.6-.156,2.044,2.044,0,0,0,.357-.1.966.966,0,0,0,.252.146,13.141,13.141,0,0,1,1.946.637.63.63,0,0,0,.659,0c.045-.034.16-.008.243-.012a2,2,0,0,0,.437-.028,1.026,1.026,0,0,1,.683.032.92.92,0,0,0,.621.04A.516.516,0,0,1,28.2,187a1.769,1.769,0,0,0,1.1-.173,1.253,1.253,0,0,1,.674-.125,2.353,2.353,0,0,1,.619.123,1.886,1.886,0,0,0,.931.125c.424-.023.848-.051,1.3-.082a1.286,1.286,0,0,1,.183.11.888.888,0,0,0,.878.162,3.419,3.419,0,0,1,.63-.074,3.056,3.056,0,0,0,.574-.04,1.983,1.983,0,0,1,.983-.015,4.773,4.773,0,0,1,.532-.216.392.392,0,0,0,.3-.239.372.372,0,0,0,.2-.028.771.771,0,0,1,.593-.089,2.238,2.238,0,0,0,.553-.107c.165.243.446.246.755.17a.344.344,0,0,0,.113-.048,1.2,1.2,0,0,1,.6-.156,1.958,1.958,0,0,0,.357-.1.952.952,0,0,0,.252.145,13.22,13.22,0,0,1,1.946.637.626.626,0,0,0,.659,0c.046-.034.16-.007.243-.011a1.992,1.992,0,0,0,.437-.029,1.033,1.033,0,0,1,.683.033.914.914,0,0,0,.621.039.516.516,0,0,1,.25-.014,1.762,1.762,0,0,0,1.105-.174,1.263,1.263,0,0,1,.674-.125,2.386,2.386,0,0,1,.619.123,1.874,1.874,0,0,0,.931.125c.425-.022.848-.05,1.3-.081.017.01.044.028.068.04a6.7,6.7,0,0,1,1.347-2.423c.612-.713,1.316-1.375,2.041-2.126a6.289,6.289,0,0,0-1.293-4.438,6.167,6.167,0,0,1-1.243-5.78,14.159,14.159,0,0,0,.132-5.989c-.164-1.28-.7-2.591.152-3.861a.507.507,0,0,0,0-.491c-1.138-1.844-.1-3.328,1.181-4.791.425-.485.756-1.023,1.086-1.475A17.661,17.661,0,0,1,50.8,148.96a3.89,3.89,0,0,1,.45-2.27c1.558-2.972,1.667-4.461,1-7.09a50.542,50.542,0,0,1-1.155-5.078c-.435-2.95-.709-5.915-1.062-8.874a2.017,2.017,0,0,1,.74-2.171,2.013,2.013,0,0,0,.627-2.437A9.929,9.929,0,0,0,50.9,119.8a5.026,5.026,0,0,1-.059-4.107c.788-1.762.122-3.638.59-5.43a2.347,2.347,0,0,1,.058-2.744.834.834,0,0,0-.106-.748c-.563-1.016-.248-2.032-.2-3.077.094-2.363,1.388-4.779-.293-7.1-.09-.124.02-.34.031-.513.176-2.609-.457-5.2-.076-7.831a45.938,45.938,0,0,0,.038-6.254,3.773,3.773,0,0,1,.257-1.288,6.625,6.625,0,0,0-.274-5.647l1.368-1.566a11.518,11.518,0,0,1-.524-2.746c.165-2.428.51-4.849.762-7.275a3.208,3.208,0,0,0-.762-2.743,1.849,1.849,0,0,1-.527-1.183c.028-1.389.2-2.774.265-4.164a3.365,3.365,0,0,0-.157-1.8,3.556,3.556,0,0,1-.085-2.827,11.566,11.566,0,0,0,.076-4.43c-.176-1.3-.333-2.609-.436-3.917a3.115,3.115,0,0,1,.134-1.8,3.079,3.079,0,0,0,.123-2.5,30.234,30.234,0,0,1-.405-4.145c-.186.026-.371.05-.557.074a1.879,1.879,0,0,1-.382.018,16.126,16.126,0,0,0-1.772-.089,6.36,6.36,0,0,1-1.552-.16c-.2-.05-.394-.133-.6-.172a1.115,1.115,0,0,0-.913.092.339.339,0,0,1-.232.06,2.125,2.125,0,0,0-1.062.095.772.772,0,0,1-.748-.151c-.027-.026-.051-.071-.082-.075-.4-.042-.644-.315-1.009-.422a.839.839,0,0,1-.593.1.733.733,0,0,0-.6.11,1.191,1.191,0,0,1-.213.083l-.556-.225c-.082.058-.15.085-.176.127a.822.822,0,0,1-.959.335,1.068,1.068,0,0,0-.374.015,1.207,1.207,0,0,1-.913-.023c-.054-.031-.167.012-.251.006a2.332,2.332,0,0,0-.487-.048c-.235.035-.2-.223-.453-.187-.042.075-.086.155-.133.238a6.653,6.653,0,0,0-.748-.059,1.934,1.934,0,0,0-1.166.187.66.66,0,0,1-.246.047c-.252.035-.5.071-.756.1a1.95,1.95,0,0,1-.382.019,15.883,15.883,0,0,0-1.772-.09,6.3,6.3,0,0,1-1.551-.16c-.2-.05-.395-.132-.6-.172a1.12,1.12,0,0,0-.913.092.331.331,0,0,1-.234.06,2.125,2.125,0,0,0-1.062.1.775.775,0,0,1-.749-.152c-.026-.026-.05-.071-.081-.074-.4-.043-.644-.315-1.009-.422a.839.839,0,0,1-.593.1.739.739,0,0,0-.6.11,1.035,1.035,0,0,1-.213.083l-.555-.225c-.082.059-.15.085-.176.128a.824.824,0,0,1-.959.335,1.093,1.093,0,0,0-.374.014,1.207,1.207,0,0,1-.913-.023c-.054-.031-.167.012-.25.006a2.281,2.281,0,0,0-.488-.047c-.235.035-.2-.224-.452-.188l-.107.19c-.087-.006-.175-.01-.26-.01a1.927,1.927,0,0,0-1.166.187.64.64,0,0,1-.246.046c-.252.035-.5.072-.757.1a1.875,1.875,0,0,1-.382.018,16.1,16.1,0,0,0-1.771-.089,6.311,6.311,0,0,1-1.552-.16c-.2-.05-.394-.133-.6-.172a1.118,1.118,0,0,0-.914.092.341.341,0,0,1-.234.06,2.125,2.125,0,0,0-1.062.095.772.772,0,0,1-.748-.151c-.027-.026-.051-.071-.082-.075-.4-.042-.644-.315-1.009-.422a.84.84,0,0,1-.593.1.735.735,0,0,0-.6.11,1.191,1.191,0,0,1-.213.083L6.382,33.3c-.082.058-.15.085-.176.127a.744.744,0,0,1-.794.349c.025.063.036.128.064.192a9.746,9.746,0,0,1,.566,4.644c-.117,1.949-.873,3.979.618,5.841a1.178,1.178,0,0,1,.155.757c-.034,1.129.262,2.378-.246,3.357-.586,1.133-.032,2.269-.488,3.271-1.037,2.281-.583,4.6.124,6.715a13.775,13.775,0,0,1,.223,6.438,2.871,2.871,0,0,0-.114,1.037,4.361,4.361,0,0,1-1.338,4.1c.216.515.379.929.563,1.336a4.537,4.537,0,0,1,.268,3.825,4.2,4.2,0,0,0,.022,2.844,3.729,3.729,0,0,1,.262,1.77,19.145,19.145,0,0,0,.1,7.82c.442,2.812-.6,5.548-.513,8.339-1.286,1.583-.741,3.147-.007,4.747a6.286,6.286,0,0,1,.279,1.816,20.392,20.392,0,0,0,1.093,5.144c.487,1.2.9,2.606-.234,3.783a2.377,2.377,0,0,0-.337,3.185,3.928,3.928,0,0,1,.364,1.27c.639,3.469.2,6.957.262,10.436a18.915,18.915,0,0,0-.029,2.345,17.349,17.349,0,0,1-.574,7.014,10.066,10.066,0,0,0-.217,3.379c.2,2.955,1.165,5.879.572,8.868a1.067,1.067,0,0,0,.131.764c.823,1.234.169,2.37-.267,3.537a5.305,5.305,0,0,0-.57,2,31.753,31.753,0,0,1,.1,6.266c-.166,1.192.166,2.389-.589,3.57a3.321,3.321,0,0,0-.138,2.054c.258,2.526.569,5.049.882,7.571a6.424,6.424,0,0,1-.369,3.616,4.174,4.174,0,0,0-.269,2.055c.188,2.273.541,4.53.512,6.815h.014A1.989,1.989,0,0,0,6.652,186.2Z"/><path class="cls-1" d="M184.024,131.929a9.571,9.571,0,0,0-.35-2.076c-1.588-3.555-.657-7.086.217-10.6a9.294,9.294,0,0,0,.477-3.886c-.481-2.683.086-5.377-.217-8.061a.643.643,0,0,1,.153-.5c1.38-1.455.633-3.06.666-4.6a7.462,7.462,0,0,0-1.4-4.554,4.657,4.657,0,0,1-.824-4.3,51.148,51.148,0,0,0,1.395-6.178,2.154,2.154,0,0,0,.028-1.5c-.255-.411-1.034-.666-1.665-1.035,1.844-3.564.626-7.134.451-10.692-1.144-1.719-.061-3.631-.964-5.372.754-1.8.1-3.668.456-5.46a21.82,21.82,0,0,0-.351-9.37,1.141,1.141,0,0,1,.086-1c1.29-1.392.91-2.917.507-4.334a12.717,12.717,0,0,1-.236-3.59,62.166,62.166,0,0,1,.218-9.141c.08-.577.089-1.153.176-1.723a8.335,8.335,0,0,0-1.9.006,9.894,9.894,0,0,1-1.334.025,3.816,3.816,0,0,1,.061-.456,7.748,7.748,0,0,0-1.815-.091,9.852,9.852,0,0,1-2.185.051.433.433,0,0,0-.072,0,6.079,6.079,0,0,1-1.684-.1,2.1,2.1,0,0,0-.868.019,2.047,2.047,0,0,1-.724.024,3.239,3.239,0,0,0-.869.031c-.317,0-.634-.013-.948-.043a2.227,2.227,0,0,0-.358.058,1.324,1.324,0,0,1-.289.027c-.343-.021-.683-.054-1.02-.1a2.388,2.388,0,0,0-.8.028,4.255,4.255,0,0,1-1.347.041c-.087-.011-.172-.024-.256-.041a1.647,1.647,0,0,0-.862-.023,2.006,2.006,0,0,1-.579,0,2.525,2.525,0,0,0-.507-.036,11.993,11.993,0,0,1-1.609.036,2.66,2.66,0,0,0-.513.032,1.625,1.625,0,0,1-.8-.012,3.338,3.338,0,0,0-1.455,0,4.454,4.454,0,0,1-1.1.078c-.122-.006-.242-.017-.362-.032a3.208,3.208,0,0,0-1.093.023,1.86,1.86,0,0,1-.435.009c-.195-.007-.39-.031-.585-.034a28.562,28.562,0,0,1-3.387,0h-.006a1.753,1.753,0,0,0-.282.035,1.989,1.989,0,0,1-.362.006,3.919,3.919,0,0,0-1.1.029.688.688,0,0,1-.352-.009,1.964,1.964,0,0,0-1-.1c-.636-.018-1.273-.005-1.906.039a.415.415,0,0,1-.145-.007,7.042,7.042,0,0,0-1.543-.041c-.466,0-.933,0-1.4-.005-.268-.005-.537-.041-.806-.039-.541.005-1.085.03-1.624.039a3.825,3.825,0,0,1-.66-.025,1.856,1.856,0,0,0-.724.019,3.455,3.455,0,0,1-1.242.03,5.236,5.236,0,0,0-1.681.044,6.825,6.825,0,0,1-1.761.064c-.707-.062-1.408-.117-2.122-.136-.668-.019-1.318.079-1.98.066-.221,0-.442,0-.663-.012-.342-.013-.685-.05-1.026-.042q-1.215,0-2.421-.113a2.776,2.776,0,0,0-.651.032,5.276,5.276,0,0,1-1.464.046,1.954,1.954,0,0,0-.507-.011,3.293,3.293,0,0,1-.579,0c-.677-.008-1.354.014-2.027.066a4.346,4.346,0,0,0-.955-.058c-.084.007-.168,0-.253,0a2.209,2.209,0,0,0-1.1-.046,1.729,1.729,0,0,1-.583,0,1.612,1.612,0,0,0-.567.008,3.47,3.47,0,0,0-1.2-.076,3.966,3.966,0,0,0-.724.055,3.144,3.144,0,0,1-.575-.05,1.462,1.462,0,0,0-.507.027,5.593,5.593,0,0,1-1.752.051,5.4,5.4,0,0,0-.661-.023c-.516,0-1.03-.013-1.544-.029-.6-.019-1.2.11-1.809.05a1.812,1.812,0,0,1-1.009-.009,1.424,1.424,0,0,0-.79-.016,2.843,2.843,0,0,1-.868-.027c-.316.014-.631.041-.942.083a1.147,1.147,0,0,1-.144-.022c-.219-.019-.439-.03-.659-.03a14.6,14.6,0,0,0-1.906.044,1.882,1.882,0,0,1-.514-.008,8.053,8.053,0,0,0-2.341.051,1.022,1.022,0,0,1-.362.015,6.2,6.2,0,0,0-1.295-.108c-.5,0-.992-.007-1.486.007a1.007,1.007,0,0,0-.156-.018c-.256.027-.507.062-.765.094-.077.01-.153.006-.23.019a3.584,3.584,0,0,1-.434-.02,7.827,7.827,0,0,0-2.04,0,.468.468,0,0,1-.217,0,9.716,9.716,0,0,0-1.837-.039,3.066,3.066,0,0,1-.724-.055,3.485,3.485,0,0,0-1.665-.029,1.2,1.2,0,0,1-.435.019,2.78,2.78,0,0,0-.367-.03c-.18-.026-.362-.046-.539-.082a2.373,2.373,0,0,0-1.358.082c-.032.013-.068.01-.1.021-.145,0-.29,0-.434-.008q-.348-.032-.7-.032a1.589,1.589,0,0,0-.607-.012l-.044.006-.564.008c-.27,0-.541-.011-.81-.021s-.537-.04-.806-.04c-.418,0-.836.023-1.255.027a17.986,17.986,0,0,1-2.871-.014.586.586,0,0,0-.145,0q-1.134.073-2.274.04a5.311,5.311,0,0,0-1.23.088.589.589,0,0,1-.422-.028,1.054,1.054,0,0,0-.776-.041.836.836,0,0,1-.571.022,1.55,1.55,0,0,0-1.128-.043.869.869,0,0,1-.217.021,9.141,9.141,0,0,1-1.324-.023,5.49,5.49,0,0,0-1.46-.018,10.091,10.091,0,0,1-1.1,0c-.388.011-.774.058-1.162.075a7.657,7.657,0,0,1-1.249-.039c-.382-.047-.788.015-1.178-.012a5.011,5.011,0,0,0-.589-.047.673.673,0,0,0-.379.13.282.282,0,0,1-.145.013c-.343-.01-.686-.034-1.026-.071A3.411,3.411,0,0,0,62,33.3a2.312,2.312,0,0,1-.724.024c-.632-.053-1.269-.08-1.9-.119a4.258,4.258,0,0,1-.438-.031,5.376,5.376,0,0,0-1.394.005c-.12.018-.241.031-.362.038-.564,0-1.129-.009-1.694-.008a8.3,8.3,0,0,1-1.1.014,4.235,4.235,0,0,0-1.521.111,1.589,1.589,0,0,1-1.124-.083,1.113,1.113,0,0,0-.7-.059,4.7,4.7,0,0,1-1.027.029,7.626,7.626,0,0,0-1.892-.047,1.559,1.559,0,0,1-.29-.018c-.18-.008-.362-.013-.541-.021a2.5,2.5,0,0,0,.95,1.551c.253.2.1.655.11.994a2.792,2.792,0,0,0,.042,1.288,3.129,3.129,0,0,1,.163,2.812,1.846,1.846,0,0,0,.08,1.293,4.1,4.1,0,0,1,.177,2.313,6.637,6.637,0,0,0,.131,3.127,8.708,8.708,0,0,1,.252,4.635c-.166.772-.232,1.554-.325,2.333-.289,2.427-1.029,4.842-.5,7.293.422,1.967,1.33,3.906.435,5.92a.534.534,0,0,0,.084.513c.8,1.019.27,2.068.1,3.085-.408,2.42-.99,4.823-1.362,7.243-.114.747.428,1.544.3,2.287-.145.84-.849,1.63-1.029,2.471a5.305,5.305,0,0,0,.234,2.076c.239,1.2.547,2.4.8,3.605a9.508,9.508,0,0,0,.349,2.076c1.588,3.555.656,7.086-.218,10.6a9.294,9.294,0,0,0-.477,3.886c.482,2.683-.087,5.377.217,8.061a.647.647,0,0,1-.152.5c-1.38,1.455-.634,3.06-.667,4.6a7.461,7.461,0,0,0,1.4,4.554,4.658,4.658,0,0,1,.824,4.3,50.813,50.813,0,0,0-1.4,6.178,2.149,2.149,0,0,0-.029,1.5c.255.412,1.034.665,1.662,1.035-1.843,3.564-.626,7.134-.451,10.692,1.144,1.719.062,3.631.964,5.372-.754,1.8-.1,3.668-.456,5.46a21.835,21.835,0,0,0,.35,9.37,1.138,1.138,0,0,1-.085,1c-1.29,1.392-.91,2.917-.507,4.333a12.689,12.689,0,0,1,.235,3.591,62.166,62.166,0,0,1-.217,9.141c-.081.577-.089,1.153-.177,1.723a8.278,8.278,0,0,0,1.9-.006,10.663,10.663,0,0,1,1.831,0c.71.042,1.423.049,2.134.021a4.728,4.728,0,0,1,1.024.06,3.13,3.13,0,0,0,1.013.012,5.384,5.384,0,0,1,1.4,0,5.851,5.851,0,0,0,1.242.057,21.419,21.419,0,0,1,2.707-.117c.29.015.583.059.876.075.35.034.7.053,1.056.056a2.224,2.224,0,0,0,.259-.021c.48-.074.924.066,1.388.012a2.091,2.091,0,0,1,.586.014,1.8,1.8,0,0,0,.8-.02c.309-.081.555.129.85.126a1,1,0,0,0,.286-.046,4.017,4.017,0,0,1,1.441-.127q1.179.03,2.358-.027a7.949,7.949,0,0,1,1.684.1,2.289,2.289,0,0,0,.869,0,3.009,3.009,0,0,1,.8-.05c.95.086,1.9.1,2.86.134.129,0,.257,0,.385,0-.015.074-.034.148-.053.222a1.874,1.874,0,0,0,.282-.036,2.187,2.187,0,0,1,.362-.006,3.845,3.845,0,0,0,1.1-.029.7.7,0,0,1,.352.009,1.946,1.946,0,0,0,1,.1c.636.018,1.273,0,1.906-.038a.393.393,0,0,1,.145.007,7.033,7.033,0,0,0,1.542.041c.467,0,.934,0,1.4,0,.269,0,.538.041.806.038.542,0,1.086-.029,1.625-.038a3.825,3.825,0,0,1,.66.024,1.876,1.876,0,0,0,.724-.018,3.455,3.455,0,0,1,1.242-.031,5.207,5.207,0,0,0,1.681-.043,6.779,6.779,0,0,1,1.761-.064c.706.062,1.408.117,2.122.136.668.018,1.318-.079,1.98-.067.221,0,.442,0,.663.012.342.013.685.051,1.026.043q1.215,0,2.42.113a2.782,2.782,0,0,0,.652-.033,5.308,5.308,0,0,1,1.463-.046,1.911,1.911,0,0,0,.507.011,3.293,3.293,0,0,1,.579,0c.677.009,1.354-.013,2.027-.066a4.3,4.3,0,0,0,.956.058c.084-.007.168,0,.253,0a2.2,2.2,0,0,0,1.1.046,1.735,1.735,0,0,1,.584,0,1.6,1.6,0,0,0,.565-.007,3.478,3.478,0,0,0,1.2.076,3.966,3.966,0,0,0,.724-.056,3.331,3.331,0,0,1,.575.05,1.431,1.431,0,0,0,.506-.027,5.63,5.63,0,0,1,1.753-.05,5.4,5.4,0,0,0,.661.022c.516,0,1.03.014,1.543.03.6.018,1.2-.111,1.81-.051a1.813,1.813,0,0,1,1.009.01,1.424,1.424,0,0,0,.79.015,2.843,2.843,0,0,1,.868.028c.316-.014.631-.042.941-.084a1.274,1.274,0,0,1,.145.022q.328.03.659.03a14.778,14.778,0,0,0,1.906-.043,1.882,1.882,0,0,1,.514.008,8.053,8.053,0,0,0,2.341-.051,1.022,1.022,0,0,1,.362-.015,6.134,6.134,0,0,0,1.3.107c.5,0,.992.008,1.486-.007a.9.9,0,0,0,.156.019c.256-.027.507-.061.765-.094.076-.01.153-.006.23-.019a3.584,3.584,0,0,1,.434.02,7.819,7.819,0,0,0,2.039,0,.5.5,0,0,1,.217,0,9.8,9.8,0,0,0,1.837.04,3.07,3.07,0,0,1,.724.054,3.472,3.472,0,0,0,1.665.029,1.193,1.193,0,0,1,.434-.018,2.644,2.644,0,0,0,.367.029c.18.027.362.047.539.083a2.368,2.368,0,0,0,1.359-.083c.031-.012.068-.01.1-.02a4.185,4.185,0,0,1,.434.008q.348.032.7.031a1.583,1.583,0,0,0,.606.013.335.335,0,0,0,.044-.007c.188,0,.376-.006.565-.007.27,0,.54.01.809.021s.537.04.805.04c.419,0,.838-.024,1.256-.028a18.1,18.1,0,0,1,2.871.015.586.586,0,0,0,.145,0q1.134-.074,2.274-.04a5.367,5.367,0,0,0,1.23-.088.592.592,0,0,1,.423.028,1.054,1.054,0,0,0,.776.04.841.841,0,0,1,.571-.021,1.553,1.553,0,0,0,1.127.043.919.919,0,0,1,.217-.022,9.141,9.141,0,0,1,1.324.024,5.49,5.49,0,0,0,1.46.018,10.091,10.091,0,0,1,1.1,0c.388-.011.774-.058,1.158-.074a7.546,7.546,0,0,1,1.249.038c.383.046.788-.015,1.178.012a4.821,4.821,0,0,0,.59.047.673.673,0,0,0,.379-.13.29.29,0,0,1,.144-.013c.344.01.686.034,1.026.07a3.394,3.394,0,0,0,1.239-.027,2.343,2.343,0,0,1,.724-.025c.632.054,1.268.082,1.9.119a4.277,4.277,0,0,1,.44.032,5.376,5.376,0,0,0,1.394,0c.119-.018.24-.031.362-.038.564,0,1.129.009,1.693.007a8.315,8.315,0,0,1,1.1-.013,4.26,4.26,0,0,0,1.517-.111,1.589,1.589,0,0,1,1.124.083,1.112,1.112,0,0,0,.7.059,4.7,4.7,0,0,1,1.027-.029,7.626,7.626,0,0,0,1.892.047,1.4,1.4,0,0,1,.29.018c.18.008.362.013.541.021a2.5,2.5,0,0,0-.95-1.55c-.253-.2-.1-.656-.11-1a2.805,2.805,0,0,0-.042-1.288,3.131,3.131,0,0,1-.163-2.813,1.846,1.846,0,0,0-.08-1.293,4.07,4.07,0,0,1-.176-2.313,6.659,6.659,0,0,0-.131-3.126,8.7,8.7,0,0,1-.253-4.635c.165-.771.232-1.554.325-2.333.289-2.428,1.028-4.842.5-7.294-.421-1.966-1.329-3.906-.434-5.919a.534.534,0,0,0-.084-.513c-.8-1.02-.27-2.068-.1-3.085.406-2.421.989-4.823,1.361-7.244.114-.746-.428-1.542-.3-2.286.145-.84.849-1.63,1.029-2.471a5.305,5.305,0,0,0-.234-2.076C184.577,134.33,184.269,133.133,184.024,131.929Z"/><path class="cls-2" d="M22.923,26.438a1.239,1.239,0,0,0,.8-.182c.038-.03.044-.117.064-.18-.052-.019-.117-.073-.156-.053C23.412,26.14,23.2,26.274,22.923,26.438Z"/><path class="cls-1" d="M114.427,26.545a1.477,1.477,0,0,0,.882-.188c.042-.03.049-.117.072-.18-.059-.019-.13-.072-.171-.052C114.967,26.244,114.731,26.38,114.427,26.545Z"/><path class="cls-1" d="M290.607,15.984c-.541-3.713.058-7.377-.082-11.059-.234.009-.465.012-.7.033a10.311,10.311,0,0,0-1.148.155,2.546,2.546,0,0,1-1.358-.034c-1.816.156-3.632.319-5.442.513a18.9,18.9,0,0,1-7.2-.484c-.416-.118-.833-.228-1.247-.306a6.344,6.344,0,0,0-.73.023c-.377.04-.762.037-1.141.043a3.194,3.194,0,0,0-1.113.657,3.223,3.223,0,0,1-2.3.4,7.477,7.477,0,0,0-4.42.216c-.2.093-.512.2-.666.117-1.864-1-3.829-.1-5.74-.3-1.942-.2-3.909-.175-5.864-.247-.347-.013-.762-.132-1.029.008-1.96,1.029-3.807.343-5.671-.263a7.551,7.551,0,0,0-1.03-.22,1.034,1.034,0,0,1-.717-.08c-.059-.032-.118-.021-.176-.045-.332-.024-.664-.043-1-.039a1.858,1.858,0,0,0-.32.083,2.411,2.411,0,0,1-1.79.144c-.122-.032-.246-.053-.371-.075-.267.024-.534.05-.8.071-1.724.136-3.456.481-5.056-.543a5.007,5.007,0,0,0-.9.123,2.466,2.466,0,0,1-1.054.033c-.469-.083-.943-.118-1.417-.163-.176,0-.352,0-.532.007-.691.117-1.38.242-2.073.337A1.14,1.14,0,0,1,226.963,5a3.289,3.289,0,0,0-1.051-.163,15.672,15.672,0,0,0-2.363.306c-1.658.36-3.427.71-5.069-.283a2.265,2.265,0,0,0-.343-.149c-.351.029-.709.051-1.064.05-2.552.828-5.219-.165-7.776.384a15.311,15.311,0,0,1-7.584-.028,4.119,4.119,0,0,1-.618.048c-.574-.014-1.172.166-1.709-.182a.331.331,0,0,0-.185-.04c-.67.045-1.339,0-2.01-.011-.195,0-.391.008-.585.026a10.346,10.346,0,0,0-1.15.155,2.386,2.386,0,0,1-1.523-.069,2.037,2.037,0,0,0-1.428-.059,2.539,2.539,0,0,1-1.247.094.822.822,0,0,0-.382-.006,5.589,5.589,0,0,1-2.415-.027,1.871,1.871,0,0,1-.523.018,2.16,2.16,0,0,1-.41-.118c-.137-.01-.273-.021-.41-.018A16.951,16.951,0,0,0,184.7,5a3.042,3.042,0,0,1-1.447-.07.484.484,0,0,0-.192-.027c-1.2.1-2.388-.2-3.592-.075-.611.065-1.23.052-1.848.07a2.763,2.763,0,0,1-.68,0,9.393,9.393,0,0,0-2.327-.074c-.351.006-.7.026-1.054.024a17.927,17.927,0,0,1-2.682-.081l-1.414.046c-.106.008-.214.013-.32.025a2.922,2.922,0,0,1-1.792-.1,3.923,3.923,0,0,1-.5-.011c-.1,0-.2.01-.3.009-.3,0-.6.022-.9.041a7.733,7.733,0,0,1-2.05.058H163.6c-.039.016-.081.03-.117.047a1.13,1.13,0,0,1-1.026.059,1.332,1.332,0,0,0-.938-.056,2.653,2.653,0,0,1-.765-.035,1.943,1.943,0,0,0-.574-.041,1.231,1.231,0,0,1-1.107-.1.234.234,0,0,0-.188-.02,3.776,3.776,0,0,1-1.649.02,3.092,3.092,0,0,0-.712.365,5.2,5.2,0,0,1-3.64.761c-1.772-.148-3.542-.318-5.314-.477a2.649,2.649,0,0,1-1.078-.054c-.08-.021-.163-.032-.244-.049-1-.083-2-.176-3-.231a19.466,19.466,0,0,0-3.641.518l-.946-.639a2.424,2.424,0,0,1-.341.01c-.539-.1-1.088-.133-1.634-.188a1.129,1.129,0,0,0-.29.029c-.7.117-1.4.244-2.1.341a1.136,1.136,0,0,1-.561-.089,2.448,2.448,0,0,0-.831-.146c-.26-.015-.519-.014-.78-.046-.976-.067-1.95-.058-2.929-.063a7,7,0,0,0-1.334.046,2.153,2.153,0,0,1-1.61-.14.6.6,0,0,0-.372-.025,12.057,12.057,0,0,1-3.482.053,14.041,14.041,0,0,1-2.028-.132c-.648.217-1.356-.059-2,.22a10.6,10.6,0,0,1-3.97-.15c-.139.154-.235.347-.389.41a1.174,1.174,0,0,1-.559-.013c-.766-.112-1.542-.191-2.292-.368a2.445,2.445,0,0,0-1.6.189,3.8,3.8,0,0,1-1.7.332c-.573-.014-1.171.166-1.708-.182a.333.333,0,0,0-.185-.04c-1,.066-2-.084-3,.025a5.039,5.039,0,0,1-1.443-.131,16.574,16.574,0,0,0-2.092-.279c-.094.043-.187.087-.278.133a4.23,4.23,0,0,1-1.552.489c-.385.036-.762.129-1.143.2l-.026-.022a1.432,1.432,0,0,0-.314-.322c-.058-.032-.121-.059-.181-.086-.154.022-.309.044-.464.063a2.9,2.9,0,0,1-.772.052c-.312-.048-.6-.226-.916-.265-.275-.034-.573.1-.85.067-.9-.1-1.79-.254-2.688-.364a1.847,1.847,0,0,0-1.146.014.286.286,0,0,1-.191.019,5,5,0,0,0-2.2.086,12.167,12.167,0,0,1-2.709-.15c-.289-.026-.579-.045-.866-.089a4.8,4.8,0,0,0-1.723.046,3.683,3.683,0,0,1-1.162.022,2.224,2.224,0,0,0-.86.036,1.013,1.013,0,0,1-.48.014,1.685,1.685,0,0,0-1.046.031,1.539,1.539,0,0,1-.479.006c-.126,0-.292-.039-.369.023a1.855,1.855,0,0,1-1.105.276,2.914,2.914,0,0,1-1.792-.1,10.967,10.967,0,0,1-2.018-.247c-.434-.058-.887.04-1.342-.008-.733-.08-1.475-.09-2.214-.113a2.425,2.425,0,0,0-.674.067,4.677,4.677,0,0,1-2.212.08,1.781,1.781,0,0,0-.386-.04c-1.2.011-2.392.018-3.593-.031-1.26-.053-2.518-.085-3.769-.235a2.438,2.438,0,0,0-.391.034c-1.862.262-3.713.618-5.56.974a13.731,13.731,0,0,1-9.144-.951c-.4,0-.811-.05-1.214-.079-.386-.027-.768-.105-1.154-.129a21.517,21.517,0,0,0-3.569.2,4.472,4.472,0,0,1-.491.006,31.365,31.365,0,0,0-5.552,1.918c-.6-.337-1.311-.677-1.952-1.112a14.224,14.224,0,0,0-1.933-1.133A9.676,9.676,0,0,0,25.5,4a8.092,8.092,0,0,1-2.617,0,4.147,4.147,0,0,0-1.15.07c-.192.019-.4.134-.567.094a2.166,2.166,0,0,0-1.582.217.58.58,0,0,1-.632-.128.72.72,0,0,0-.644-.094c-.379.072-.766.107-1.146.176-.509.088-1.014.2-1.523.285a1.081,1.081,0,0,1-.559.014,3.677,3.677,0,0,0-2.284-.05,2.068,2.068,0,0,1-1.6-.1.819.819,0,0,0-.749-.032A2.029,2.029,0,0,1,8.932,4.4a1.2,1.2,0,0,0-.655-.081,2.352,2.352,0,0,1-.861.015A2.5,2.5,0,0,0,5.934,4.7a4.261,4.261,0,0,1-1.553.49c-.137.012-.272.046-.41.069-.109,3.239,0,6.481-.257,9.72-.358,4.569-1.414,8.552.341,12.752l.8-.036,0,.011c.028.134.039.273.052.376a2.674,2.674,0,0,0,1.489.006,2.654,2.654,0,0,1,1.271-.129c.162.054.327.1.486.161a.858.858,0,0,0,.807-.021.767.767,0,0,1,.352-.105,5.468,5.468,0,0,1,.689.028.951.951,0,0,1,.355.084.959.959,0,0,0,.674.1,1.045,1.045,0,0,1,.586.04.659.659,0,0,0,.543.006.524.524,0,0,1,.451-.007c.131.046.272.063.4.111a.736.736,0,0,0,.787-.142.527.527,0,0,1,.745-.024.478.478,0,0,1,.06.067.423.423,0,0,0,.129.065,1.93,1.93,0,0,0,.7-.417.612.612,0,0,1,.635-.232.616.616,0,0,0,.327-.053,14.044,14.044,0,0,0,2.32-.043,1.146,1.146,0,0,0,.255.029,1.4,1.4,0,0,1,.751.216.465.465,0,0,0,.527.072.487.487,0,0,1,.608-.01.192.192,0,0,0,.135.02c.518-.065,1.039-.015,1.577-.052.048.14.1.287.153.448a3.987,3.987,0,0,0,.605.085c.37-.007.739-.046,1.108-.076.018,0,.033-.043.044-.059l-.088-.156c.127-.122.234-.11.314,0a.607.607,0,0,0,.41.221,1.218,1.218,0,0,0,.775-.035.359.359,0,0,1,.358-.017,2.138,2.138,0,0,0,.937.261A4,4,0,0,0,28.1,28.5c.07,0,.136-.076.207-.11.254-.123.509-.25.768-.363.066-.03.156-.03.153.145-.137.053-.282.105-.425.166a1.679,1.679,0,0,0-.335.171c-.053.038-.076.135-.137.253.414.117.769.3,1.15.027a.388.388,0,0,1,.438.032.7.7,0,0,0,.79.02.523.523,0,0,1,.448-.067,1.686,1.686,0,0,0,1-.068.7.7,0,0,1,.673.025.215.215,0,0,0,.175.042,4.53,4.53,0,0,1,1.147-.138.5.5,0,0,0,.38-.176c.16-.224.417-.225.595-.406a.225.225,0,0,1,.221-.026.759.759,0,0,0,.628-.08c.13-.055.256-.126.383-.19.206-.106.389-.092.486.11.255.02.468.045.679.048a1.342,1.342,0,0,0,.455-.042,1.36,1.36,0,0,1,.638-.077.277.277,0,0,0,.214-.045.27.27,0,0,1,.381-.037.267.267,0,0,1,.038.037.178.178,0,0,0,.173.031.668.668,0,0,1,.41,0A3.569,3.569,0,0,0,41.3,27.7a1.791,1.791,0,0,1,1.133-.093,1.722,1.722,0,0,0,1.041.051c.039-.011.091.045.146.076l-.228.307c.189.039.339.078.491.1a.749.749,0,0,0,.7-.169.633.633,0,0,1,.487-.221,1.359,1.359,0,0,0,.361-.081,1.144,1.144,0,0,1,.684-.059,1.062,1.062,0,0,0,.726-.051.3.3,0,0,1,.424.083c-.007.062-.016.131-.029.23l.357.065c.144-.386.258-.417.815-.243-.014.1-.029.2-.047.331l.375.209c.355-.134.778-.095.973-.56a.448.448,0,0,1,.073,0c.214.043.429.274.645-.013.02-.027.088,0,.133,0A4.537,4.537,0,0,0,52.02,27.6a1.048,1.048,0,0,1,.41.007c.09.018.182.03.274.039a8.993,8.993,0,0,1,1.383.005,1.806,1.806,0,0,1,.8.218,2.4,2.4,0,0,1,1.547-.163,1.086,1.086,0,0,0,.545.05,2.883,2.883,0,0,1,.913.013c.138,0,.276.046.41.037a4.7,4.7,0,0,0,1.1-.068.673.673,0,0,1,.367-.009,2.683,2.683,0,0,0,.92.021,4.172,4.172,0,0,1,.879-.04,6,6,0,0,0,1.153.009.961.961,0,0,1,.321.006,1.967,1.967,0,0,0,.783.023,2.113,2.113,0,0,1,.826.059,1.76,1.76,0,0,0,1.095-.028.416.416,0,0,1,.134-.036,4.821,4.821,0,0,1,.874.04,5.663,5.663,0,0,0,1.383,0,5.783,5.783,0,0,1,.967.009,9.1,9.1,0,0,0,1.191,0,5.337,5.337,0,0,1,1.011.02,12.149,12.149,0,0,0,1.428.021,5.863,5.863,0,0,1,1.182.108.766.766,0,0,0,.271.059,8.342,8.342,0,0,0,1.837-.2,1.143,1.143,0,0,1,.455-.007,5.086,5.086,0,0,0,1.194.081,2.258,2.258,0,0,1,.964.066,4.971,4.971,0,0,0,1.137-.025c.014,0,.028-.013.043-.019a1.515,1.515,0,0,1,.866-.066,3.643,3.643,0,0,0,.87.09,4,4,0,0,0,1.145-.063.326.326,0,0,1,.139,0c.213.02.429.027.644.065a3.672,3.672,0,0,0,1.417,0,1.966,1.966,0,0,1,.46,0c.184.007.367.027.551.031a2.154,2.154,0,0,1,.461-.01,3.424,3.424,0,0,0,.921.028,3.349,3.349,0,0,1,.459.031,2.325,2.325,0,0,0,.729.077,1.987,1.987,0,0,1,.82,0,2.561,2.561,0,0,0,1.1-.027,2.026,2.026,0,0,1,.91.011,1.66,1.66,0,0,0,.867-.059,1.787,1.787,0,0,1,.914-.068,3.363,3.363,0,0,0,.413.032l.46.033.6.045c.015.1.025.189.036.264a3.21,3.21,0,0,0,1.64-.006,3.205,3.205,0,0,1,1.4-.138c.175.054.359.1.534.159a1.034,1.034,0,0,0,.889-.028.9.9,0,0,1,.388-.107,6.612,6.612,0,0,1,.758.023,1.089,1.089,0,0,1,.39.082,1.159,1.159,0,0,0,.742.095,1.236,1.236,0,0,1,.647.036.791.791,0,0,0,.6,0,.633.633,0,0,1,.5-.011c.146.046.3.061.445.109a.879.879,0,0,0,.867-.149.619.619,0,0,1,.877.029l.009.009a.461.461,0,0,0,.141.064,2.183,2.183,0,0,0,.768-.423.719.719,0,0,1,.7-.234.9.9,0,0,0,.395-.065c.058-.013.121-.031.181-.047.813.035,1.623.034,2.432.021h.186a1.636,1.636,0,0,1,.826.21.544.544,0,0,0,.581.069.58.58,0,0,1,.67-.014.223.223,0,0,0,.148.018c.57-.068,1.143-.021,1.735-.063l.167.448a4.79,4.79,0,0,0,.665.08c.407-.009.814-.051,1.22-.083.019,0,.036-.044.048-.059l-.1-.156c.14-.122.259-.112.345,0a.687.687,0,0,0,.448.218,1.46,1.46,0,0,0,.853-.04.435.435,0,0,1,.394-.021,2.505,2.505,0,0,0,1.03.256,4.913,4.913,0,0,0,1.014-.035c.077-.006.15-.077.227-.111.281-.126.563-.255.848-.37.072-.029.171-.031.168.144-.151.055-.312.108-.469.17a2.023,2.023,0,0,0-.37.176c-.058.039-.084.136-.152.255.456.112.845.293,1.266.018a.457.457,0,0,1,.481.03.829.829,0,0,0,.869.013.63.63,0,0,1,.494-.07,2.044,2.044,0,0,0,1.1-.074.837.837,0,0,1,.74.019.254.254,0,0,0,.191.041,5.54,5.54,0,0,1,1.264-.146.574.574,0,0,0,.418-.176c.176-.225.461-.228.657-.41a.272.272,0,0,1,.243-.027.913.913,0,0,0,.692-.085c.143-.055.281-.127.422-.193.228-.106.429-.1.534.107.28.018.513.041.747.044a1.6,1.6,0,0,0,.5-.047,1.644,1.644,0,0,1,.7-.08.332.332,0,0,0,.234-.047.318.318,0,0,1,.449-.015l.012.012a.219.219,0,0,0,.191.03.787.787,0,0,1,.451,0,4.355,4.355,0,0,0,1.6-.089,2.168,2.168,0,0,1,1.247-.1,2.069,2.069,0,0,0,1.146.044c.044-.011.1.045.161.075l-.253.309c.207.037.372.075.539.095a.89.89,0,0,0,.777-.176.739.739,0,0,1,.537-.224,1.6,1.6,0,0,0,.4-.084,1.389,1.389,0,0,1,.753-.059,1.283,1.283,0,0,0,.8-.058.42.42,0,0,1,.394.007.389.389,0,0,1,.072.074c-.009.062-.019.131-.034.229l.392.063c.161-.387.287-.42.9-.25-.016.1-.033.2-.054.332l.41.207c.391-.137.856-.1,1.074-.567a.529.529,0,0,1,.08-.006c.234.041.468.271.706-.017.023-.027.1,0,.147,0a5.489,5.489,0,0,0,1.608-.064,1.283,1.283,0,0,1,.454,0c.1.006.2.041.3.037a10.9,10.9,0,0,1,1.523,0,2.124,2.124,0,0,1,.878.212,2.89,2.89,0,0,1,1.7-.175,1.33,1.33,0,0,0,.6.046,3.447,3.447,0,0,1,1,.006c.151,0,.3.045.453.034a5.639,5.639,0,0,0,1.21-.076.8.8,0,0,1,.4-.01,3.277,3.277,0,0,0,1.013.014,5.014,5.014,0,0,1,.964-.047,3.462,3.462,0,0,0,.477.021.026.026,0,0,1,.02.006,12.044,12.044,0,0,0,7.524-.014c.09,0,.18,0,.271.011a10.82,10.82,0,0,0,1.311,0,6.566,6.566,0,0,1,1.113.013,14.445,14.445,0,0,0,1.571.011,6.9,6.9,0,0,1,1.3.1.922.922,0,0,0,.3.058c.44-.044.884-.039,1.325-.083.008.008.016.013.023.021,1.142,1.224,2.588,1.214,4.109,1.075,3.846-.351,7.7-.654,11.544-1.011a3.192,3.192,0,0,0,.762-.052c.025,0,.052,0,.077-.01a2.459,2.459,0,0,1,1,.005,2.02,2.02,0,0,0,.955-.066,2.148,2.148,0,0,1,1.007-.074,4.289,4.289,0,0,0,.454.029l.5.029c.405.023.809.059,1.214.065a4.346,4.346,0,0,0,.456-.019c.005.016.011.032.015.048.027.134.038.274.051.377a2.665,2.665,0,0,0,1.489,0,2.666,2.666,0,0,1,1.271-.129c.162.055.327.1.486.162a.863.863,0,0,0,.808-.022.747.747,0,0,1,.351-.1,5.467,5.467,0,0,1,.689.027.943.943,0,0,1,.355.085.968.968,0,0,0,.675.1,1.037,1.037,0,0,1,.586.041.661.661,0,0,0,.542.006.528.528,0,0,1,.451-.008c.132.047.272.064.4.112a.738.738,0,0,0,.787-.143.527.527,0,0,1,.745-.024.647.647,0,0,1,.061.067.445.445,0,0,0,.128.066,1.946,1.946,0,0,0,.7-.418.613.613,0,0,1,.635-.231c.106.035.239-.035.358-.063a4.093,4.093,0,0,1,.586-.14c.337-.026.676-.01,1.014-.019a.938.938,0,0,1,.629.109c.083.059.209.037.315.045a1.394,1.394,0,0,1,.751.216.461.461,0,0,0,.527.072.49.49,0,0,1,.609-.009.192.192,0,0,0,.135.019c.518-.065,1.038-.015,1.576-.052l.154.449a3.846,3.846,0,0,0,.6.084c.37-.006.739-.046,1.108-.076.017,0,.032-.042.044-.058-.031-.054-.058-.106-.088-.157.127-.121.234-.11.313,0a.614.614,0,0,0,.41.222,1.227,1.227,0,0,0,.776-.035.362.362,0,0,1,.358-.018,2.121,2.121,0,0,0,.937.261,4,4,0,0,0,.921-.028c.07-.005.136-.075.206-.109.256-.124.51-.251.769-.364.066-.029.156-.03.154.145-.138.054-.283.1-.426.167a1.675,1.675,0,0,0-.335.17c-.053.038-.076.135-.137.254.414.117.769.3,1.15.026a.388.388,0,0,1,.458.028.7.7,0,0,0,.79.02.519.519,0,0,1,.448-.067,1.685,1.685,0,0,0,1-.068.7.7,0,0,1,.673.025.216.216,0,0,0,.175.042,4.53,4.53,0,0,1,1.147-.138.5.5,0,0,0,.38-.176c.16-.225.417-.225.595-.406a.228.228,0,0,1,.221-.027.755.755,0,0,0,.628-.079c.13-.055.256-.126.383-.191.207-.105.389-.092.485.111.255.019.469.045.68.048a1.318,1.318,0,0,0,.455-.043,1.358,1.358,0,0,1,.638-.076.277.277,0,0,0,.214-.045.269.269,0,0,1,.38-.038.228.228,0,0,1,.038.038.181.181,0,0,0,.176.031.668.668,0,0,1,.41,0,3.59,3.59,0,0,0,1.459-.078,1.8,1.8,0,0,1,1.132-.094,1.711,1.711,0,0,0,1.042.051c.039-.01.091.046.146.077l-.229.307c.19.039.34.077.492.1a.749.749,0,0,0,.7-.169.633.633,0,0,1,.487-.221,1.352,1.352,0,0,0,.361-.082,1.147,1.147,0,0,1,.685-.058,1.063,1.063,0,0,0,.726-.052.351.351,0,0,1,.358.01.421.421,0,0,1,.066.074l-.03.23.357.065c.144-.386.258-.417.816-.243-.015.1-.029.2-.048.33l.375.21c.355-.134.779-.1.974-.56a.349.349,0,0,1,.072,0c.176.035.357.183.534.074a6.607,6.607,0,0,0,4-.058,1.4,1.4,0,0,1,.568.183,2.4,2.4,0,0,1,1.547-.163,1.075,1.075,0,0,0,.545.049.87.87,0,0,1,.274-.017,11.219,11.219,0,0,0,4.781,0c.229,0,.457-.009.686-.017a.994.994,0,0,1,.322.005,1.949,1.949,0,0,0,.783.024,2.094,2.094,0,0,1,.826.058,1.76,1.76,0,0,0,1.095-.027.411.411,0,0,1,.134-.037,4.913,4.913,0,0,1,.874.04,5.606,5.606,0,0,0,1.382-.005,5.782,5.782,0,0,1,.967.009,8.946,8.946,0,0,0,1.192,0,5.42,5.42,0,0,1,1.011.02,11.731,11.731,0,0,0,1.428.021,5.8,5.8,0,0,1,1.182.109.744.744,0,0,0,.271.058c.488-.051.982-.025,1.469-.112a13.961,13.961,0,0,0,5.163-.033,2.97,2.97,0,0,0,.734.067,4,4,0,0,0,1.145-.063.326.326,0,0,1,.139,0c.214.02.43.027.644.066a3.712,3.712,0,0,0,1.417,0,1.975,1.975,0,0,1,.461,0c.184.007.367.027.551.03a2.082,2.082,0,0,1,.46-.009,3.473,3.473,0,0,0,.922.028,3.511,3.511,0,0,1,.458.03,2.306,2.306,0,0,0,.73.078,1.987,1.987,0,0,1,.82,0,2.561,2.561,0,0,0,1.1-.028,2.036,2.036,0,0,1,.909.011,1.664,1.664,0,0,0,.868-.058,1.775,1.775,0,0,1,.914-.068,3.571,3.571,0,0,0,.413.032l.459.033c.368.026.735.062,1.1.072a4.334,4.334,0,0,0,.692-.046,4.49,4.49,0,0,0,.733-.021,1.869,1.869,0,0,1,.683.038c.138.014.274.048.411.062a.47.47,0,0,0,.413-.143h0c.293.23.931.124,1.268.108.259-.012.518-.025.777-.029a14.606,14.606,0,0,0,2.119.768C293.548,24.432,291.287,20.656,290.607,15.984ZM23.724,27.779a1.239,1.239,0,0,1-.8.182c.275-.164.489-.3.709-.415.039-.02.1.034.156.053C23.768,27.661,23.762,27.748,23.724,27.779Zm91.585.1a1.477,1.477,0,0,1-.882.188c.3-.165.54-.3.783-.42.041-.02.113.033.171.052C115.358,27.762,115.352,27.85,115.309,27.88Zm97.849-.1a1.243,1.243,0,0,1-.8.182c.276-.164.49-.3.71-.415.038-.02.1.034.156.053C213.2,27.661,213.2,27.748,213.158,27.779Z"/><path class="cls-3" d="M174.648,113.253a19.4,19.4,0,0,0-.071-8.41,25.71,25.71,0,0,1-.249-3.528,22.262,22.262,0,0,1-5.417.007c-3.052-.224-6.083-.955-9.176-.368a3.565,3.565,0,0,1-1.4-.208c-2.906-.7-5.651-.6-8,1.769-4.595-2.093-9.439-2.138-14.285-2.183a3.945,3.945,0,0,0-4,1.694,2.884,2.884,0,0,1-1.806.95,6.847,6.847,0,0,1-4.859-.026c-.409-.215-1.127.028-1.663.193a9.939,9.939,0,0,1-9.048-1.64,3.821,3.821,0,0,0-2.937-.893,16.639,16.639,0,0,0-3.8.81,12.991,12.991,0,0,1-7.643.728,14.533,14.533,0,0,0-3.518-.074c-1.417.095-2.824.318-4.235.5-.756.1-1.516.157-2.276.194a9.108,9.108,0,0,1-.9-.362,6.739,6.739,0,0,0-4.146-.63,8.284,8.284,0,0,1-4.549-.433,6.538,6.538,0,0,0-5.433.481c-.642.3-1.264.642-1.885.986a5.988,5.988,0,0,1-5.724.43,12.557,12.557,0,0,0-7.993-.783c-.689.162-1.423.147-2.108.321a15.368,15.368,0,0,1-9.036-.653,10.38,10.38,0,0,0-7.593.341,14.269,14.269,0,0,1-10.7-.122,4.149,4.149,0,0,0-1.32-.486,24.2,24.2,0,0,1-7.164-1.575c-1.687-.494-3.505-.644-4.577,1.464a2.662,2.662,0,0,1-1.648.974,9.551,9.551,0,0,1,.448,3.639c1.324,2.636.039,4.791-1.273,6.943a7.949,7.949,0,0,0-1.045,1.834c-.6,1.984-1.092,4-1.521,6.024a17.561,17.561,0,0,1,2.391.43,13.433,13.433,0,0,0,5.179.329,11.315,11.315,0,0,1,4.036.319c2.5.572,5.19,0,7.744.653.3.077.715-.162,1.063-.287a14.194,14.194,0,0,1,7.371-.3,58.252,58.252,0,0,0,7.784.888c3.725.123,7.46-.01,11.189-.08,2.732-.045,5.472-.047,8.2-.26a20.036,20.036,0,0,1,5.212.152,8.836,8.836,0,0,0,2.223.235c5.342-.428,10.724.324,16.051-.5a3.692,3.692,0,0,1,1.488-.009,21.534,21.534,0,0,0,8.866-.072,28.349,28.349,0,0,1,3.718-.248c0-.02,0-.04-.006-.06.582.121,1.16.257,1.745.365,1.348.226,2.972.561,3.8-1.272a2.775,2.775,0,0,1,1.871-1.054c2.94-.5,5.9-.912,8.863-1.258a2.842,2.842,0,0,1,1.745.512,5.638,5.638,0,0,0,4.647.665,4.694,4.694,0,0,1,1.855-.077,6.9,6.9,0,0,0,3.623-.455,13.793,13.793,0,0,1,6.636-.542,25.58,25.58,0,0,0,7.078.046,18.886,18.886,0,0,1,6.292.221,29.311,29.311,0,0,0,9.961.539,39.6,39.6,0,0,1,12.34.42,37.049,37.049,0,0,0-.405-5.8A3.344,3.344,0,0,1,174.648,113.253Z"/><path class="cls-4" d="M18.378,17.934a1.023,1.023,0,0,0-.052.238.391.391,0,0,1-.031.135.4.4,0,0,0-.037.16.178.178,0,0,1-.043.117.8.8,0,0,0-.176.337.211.211,0,0,1-.05.09.847.847,0,0,0-.085.142c-.021.038-.038.079-.059.117a.069.069,0,0,1-.02.028.509.509,0,0,0-.124.156.423.423,0,0,1-.034.04.566.566,0,0,1-.069.078c-.076.059-.131.139-.2.2a.194.194,0,0,0-.027.021.721.721,0,0,1-.325.211,1.821,1.821,0,0,0-.3.1.046.046,0,0,1-.025.008.4.4,0,0,0-.231.062c-.05.022-.1.054-.147.075a.506.506,0,0,0-.127.075c-.056.043-.113.084-.171.122a.3.3,0,0,1-.079.037.387.387,0,0,0-.185.139.235.235,0,0,1-.1.077.717.717,0,0,0-.134.064.163.163,0,0,1-.149.027.039.039,0,0,0-.026,0,2.239,2.239,0,0,0-.229.054.189.189,0,0,1-.051.012l-.1.012a.065.065,0,0,1-.034,0c-.051-.028-.109-.014-.162-.027-.031-.008-.063-.012-.094-.019a.056.056,0,0,1-.029-.016.267.267,0,0,0-.244-.106h-.061a1.625,1.625,0,0,1-.209-.02.425.425,0,0,1-.175-.07.273.273,0,0,0-.265-.04l-.074.028a.142.142,0,0,1-.127-.009.611.611,0,0,0-.21-.081.063.063,0,0,1-.051-.03c-.037-.064-.108-.075-.167-.1a.184.184,0,0,0-.081,0,.083.083,0,0,0-.055-.068.073.073,0,0,1-.042-.054.149.149,0,0,0-.046-.072.758.758,0,0,0-.155-.165c-.042-.076-.129-.109-.175-.183a.075.075,0,0,0-.044-.025.073.073,0,0,1-.065-.072.243.243,0,0,0-.081-.15.844.844,0,0,1-.052-.07.659.659,0,0,0-.091-.092l-.008,0c-.04-.012-.05-.056-.081-.077a.506.506,0,0,1-.09-.053.276.276,0,0,1-.062-.142,1.227,1.227,0,0,0-.042-.169.632.632,0,0,1-.035-.1c0-.012-.009-.025-.006-.034a.206.206,0,0,0-.013-.136.079.079,0,0,1,0-.043.144.144,0,0,0-.036-.145,2.105,2.105,0,0,1-.157-.24.134.134,0,0,1-.018-.064.826.826,0,0,0-.031-.2.427.427,0,0,1-.012-.112.183.183,0,0,0-.021-.1.084.084,0,0,1-.011-.041,2.693,2.693,0,0,0-.024-.285.451.451,0,0,1,0-.052c0-.018.006-.04,0-.052a.2.2,0,0,1-.013-.151.181.181,0,0,0-.01-.069.181.181,0,0,1,0-.1c.018-.064.033-.13.051-.194a.154.154,0,0,0,0-.095.759.759,0,0,1-.018-.26.1.1,0,0,1,.011-.042c.024-.053.049-.105.074-.157s.046-.1.1-.122a.062.062,0,0,0,.038-.045A.557.557,0,0,0,11.814,16a.279.279,0,0,1,.079-.187.57.57,0,0,0,.128-.194.214.214,0,0,1,.093-.112.366.366,0,0,0,.1-.1,1,1,0,0,1,.1-.15c.022-.022.024-.063.04-.106a.2.2,0,0,0,.085-.172l-.024-.02a.386.386,0,0,0,.13-.169.343.343,0,0,1,.064-.1c.043-.048.075-.1.117-.153.007-.008.011-.021.02-.028.026-.018.055-.033.08-.051A.533.533,0,0,1,12.9,14.4a.144.144,0,0,0,.075-.073h.08a.181.181,0,0,0,.118-.028.185.185,0,0,1,.152-.019.236.236,0,0,0,.129,0,.39.39,0,0,1,.059,0,.092.092,0,0,0,.043-.008.352.352,0,0,1,.13-.048.068.068,0,0,0,.036-.022.119.119,0,0,1,.1-.045.271.271,0,0,0,.084-.02.594.594,0,0,1,.161-.035.866.866,0,0,0,.153-.032c.02-.005.04-.013.059-.018.087-.025.176-.048.261-.073a.168.168,0,0,1,.094-.009.146.146,0,0,0,.051,0,.251.251,0,0,1,.176.024c.024.014.058.01.082.025a.239.239,0,0,0,.168.018,1.38,1.38,0,0,0,.156-.018.158.158,0,0,1,.078,0,.206.206,0,0,0,.183-.029.041.041,0,0,1,.059,0,.04.04,0,0,1,.012.029.145.145,0,0,0,.1.122.644.644,0,0,1,.133.1.227.227,0,0,0,.136.052.162.162,0,0,1,.091.027.147.147,0,0,0,.1.027h.059a.155.155,0,0,1,.043,0,1.109,1.109,0,0,0,.112.048.242.242,0,0,1,.108.029.235.235,0,0,0,.123.041.3.3,0,0,1,.17.077.231.231,0,0,0,.137.069.29.29,0,0,1,.2.106.082.082,0,0,0,.068.031c.072,0,.117.048.166.085.01.007.012.026.014.033l.176.106a.111.111,0,0,1,.03.031.16.16,0,0,0,.1.084.028.028,0,0,1,.013.011c.023.059.076.067.127.077a.334.334,0,0,1,.082.171.078.078,0,0,0,.015.04.071.071,0,0,1,.009.066.152.152,0,0,0,.013.118.151.151,0,0,1,.013.076.25.25,0,0,0,.234.241l.062.005a.208.208,0,0,1,.04.132.341.341,0,0,0,.038.169.448.448,0,0,1,.032.108.851.851,0,0,1,.013.086.079.079,0,0,1,0,.043.573.573,0,0,0-.013.165.17.17,0,0,0,.036.117Z"/><path class="cls-4" d="M25.534,20.042a1.036,1.036,0,0,0-.182-.133.339.339,0,0,1-.1-.077.406.406,0,0,0-.123-.091.157.157,0,0,1-.085-.081.74.74,0,0,0-.222-.274.2.2,0,0,1-.058-.076.8.8,0,0,0-.089-.126c-.025-.031-.053-.058-.079-.092a.071.071,0,0,1-.016-.028.5.5,0,0,0-.086-.164.348.348,0,0,1-.022-.043.553.553,0,0,1-.041-.089c-.022-.086-.069-.163-.1-.248,0-.01,0-.021-.008-.031a.669.669,0,0,1-.059-.355,1.746,1.746,0,0,0,.025-.3.033.033,0,0,1,0-.024.363.363,0,0,0,.032-.22c0-.051-.009-.1-.007-.153A.53.53,0,0,0,24.3,17.3c-.015-.063-.028-.127-.04-.191a.268.268,0,0,1,0-.08.352.352,0,0,0-.049-.21.207.207,0,0,1-.027-.117.626.626,0,0,0,0-.137.151.151,0,0,1,.034-.137.062.062,0,0,0,.01-.022c.008-.073.037-.141.039-.215a.2.2,0,0,1,.009-.048c.009-.031.019-.062.029-.093a.062.062,0,0,1,.014-.028c.043-.033.051-.088.082-.128.019-.024.034-.049.053-.073a.048.048,0,0,1,.024-.018c.1-.013.141-.091.181-.168.009-.017.016-.035.025-.052a1.4,1.4,0,0,1,.094-.169.4.4,0,0,1,.126-.125.255.255,0,0,0,.134-.21.594.594,0,0,1,0-.073.127.127,0,0,1,.055-.1.571.571,0,0,0,.148-.15.059.059,0,0,1,.044-.032c.068-.007.105-.063.151-.1.016-.014.02-.043.032-.068a.078.078,0,0,0,.077-.022.07.07,0,0,1,.062-.016.144.144,0,0,0,.079-.012.7.7,0,0,0,.2-.07c.08-.008.141-.069.221-.08a.061.061,0,0,0,.037-.028.069.069,0,0,1,.086-.028.226.226,0,0,0,.158-.013.725.725,0,0,1,.078-.017.575.575,0,0,0,.113-.044l.006,0c.025-.03.066-.022.095-.041a.553.553,0,0,1,.079-.058.252.252,0,0,1,.144,0,1.407,1.407,0,0,0,.16.028.444.444,0,0,1,.1.007c.01,0,.024,0,.031.007a.2.2,0,0,0,.121.04.062.062,0,0,1,.036.016.131.131,0,0,0,.137.023,2.327,2.327,0,0,1,.263-.044.147.147,0,0,1,.062.01.751.751,0,0,0,.179.047.377.377,0,0,1,.1.032.162.162,0,0,0,.094.02.086.086,0,0,1,.039.006c.082.035.168.059.252.086a.286.286,0,0,1,.043.021c.016.007.032.02.046.018a.191.191,0,0,1,.133.046.184.184,0,0,0,.062.017.178.178,0,0,1,.087.04c.048.04.1.076.146.117a.14.14,0,0,0,.082.034.671.671,0,0,1,.228.082.092.092,0,0,1,.031.024l.107.123a.181.181,0,0,1,.064.134.056.056,0,0,0,.024.049.517.517,0,0,0,.11.082.269.269,0,0,1,.13.138.531.531,0,0,0,.117.182.2.2,0,0,1,.059.121.316.316,0,0,0,.045.117.937.937,0,0,1,.09.141c.01.027.045.045.076.074a.184.184,0,0,0,.114.136l.026-.013a.35.35,0,0,0,.1.176.324.324,0,0,1,.064.092c.024.055.058.1.087.156,0,.009.014.017.016.027.006.029.007.059.014.087a.588.588,0,0,1,.027.084.133.133,0,0,0,.033.091l-.03.069a.164.164,0,0,0-.018.109.18.18,0,0,1-.042.137.227.227,0,0,0-.048.11.335.335,0,0,1-.019.053.086.086,0,0,0-.009.039.33.33,0,0,1-.008.129.062.062,0,0,0,0,.038.114.114,0,0,1,0,.1.263.263,0,0,0-.015.079.549.549,0,0,1-.031.15.863.863,0,0,0-.029.143c0,.018,0,.037-.007.058-.012.083-.025.166-.035.249a.168.168,0,0,1-.028.084.118.118,0,0,0-.019.043.236.236,0,0,1-.087.142c-.021.016-.031.046-.052.059a.217.217,0,0,0-.078.137,1.3,1.3,0,0,0-.044.138.142.142,0,0,1-.032.065.2.2,0,0,0-.044.167.04.04,0,0,1-.052.05.131.131,0,0,0-.14.036.631.631,0,0,1-.133.077.21.21,0,0,0-.095.1.151.151,0,0,1-.058.067.135.135,0,0,0-.059.074l-.023.053a.122.122,0,0,1-.018.036.85.85,0,0,0-.082.077c-.021.027-.032.063-.065.081a.211.211,0,0,0-.081.089.276.276,0,0,1-.129.117.221.221,0,0,0-.11.092.27.27,0,0,1-.167.134.073.073,0,0,0-.052.047c-.024.062-.084.08-.135.109-.01.006-.026,0-.033,0-.054.039-.105.074-.156.109a.085.085,0,0,1-.037.015.15.15,0,0,0-.108.049.019.019,0,0,1-.014.007c-.059,0-.085.04-.113.08a.3.3,0,0,1-.175,0,.09.09,0,0,0-.04,0,.068.068,0,0,1-.059-.018.142.142,0,0,0-.105-.032.146.146,0,0,1-.07-.018.235.235,0,0,0-.293.107l-.027.05a.191.191,0,0,1-.127-.014.32.32,0,0,0-.158-.031.367.367,0,0,1-.1-.014.7.7,0,0,1-.079-.02.131.131,0,0,1-.037-.015.5.5,0,0,0-.135-.073.153.153,0,0,0-.111-.012Z"/><path class="cls-4" d="M40.521,15.867a.962.962,0,0,0,.092.223.393.393,0,0,1,.05.128.411.411,0,0,0,.059.151.174.174,0,0,1,.032.121.807.807,0,0,0,.048.374.216.216,0,0,1,.01.1.887.887,0,0,0,.01.163c0,.044.014.086.02.129a.065.065,0,0,1,0,.034.523.523,0,0,0-.013.2.294.294,0,0,1-.005.051.6.6,0,0,1-.012.1c-.028.091-.029.187-.052.279a.2.2,0,0,0-.009.033.711.711,0,0,1-.147.352,1.91,1.91,0,0,0-.189.257.035.035,0,0,1-.016.02c-.079.037-.11.118-.152.181-.03.047-.049.1-.079.145a.567.567,0,0,0-.059.133c-.021.066-.045.131-.07.2a.281.281,0,0,1-.043.075.37.37,0,0,0-.073.217.238.238,0,0,1-.04.118.7.7,0,0,0-.073.127.16.16,0,0,1-.107.106.045.045,0,0,0-.021.015,1.787,1.787,0,0,0-.157.176.175.175,0,0,1-.034.038c-.025.023-.052.045-.079.068a.068.068,0,0,1-.028.018c-.058.006-.1.05-.147.07-.03.011-.058.025-.088.036a.045.045,0,0,1-.032,0,.263.263,0,0,0-.259.051c-.017.01-.033.023-.051.033a1.778,1.778,0,0,1-.181.1.431.431,0,0,1-.183.043.272.272,0,0,0-.24.117c-.015.021-.029.043-.043.065a.139.139,0,0,1-.109.063.63.63,0,0,0-.217.054.065.065,0,0,1-.059,0c-.066-.032-.13,0-.194.008-.023,0-.042.027-.068.045a.081.081,0,0,0-.082-.024.071.071,0,0,1-.065-.02.157.157,0,0,0-.078-.034.865.865,0,0,0-.219-.047c-.077-.038-.167-.016-.246-.05a.064.064,0,0,0-.049,0,.076.076,0,0,1-.095-.022.237.237,0,0,0-.15-.078.592.592,0,0,1-.081-.027.668.668,0,0,0-.126-.024h-.009c-.039.014-.072-.016-.109-.016a.505.505,0,0,1-.1.007.283.283,0,0,1-.131-.08,1.419,1.419,0,0,0-.129-.117.551.551,0,0,1-.084-.059c-.008-.008-.021-.015-.024-.024a.2.2,0,0,0-.088-.1.07.07,0,0,1-.023-.035.145.145,0,0,0-.111-.1,2,2,0,0,1-.264-.107.15.15,0,0,1-.051-.043.883.883,0,0,0-.136-.144.365.365,0,0,1-.073-.084.187.187,0,0,0-.074-.071.079.079,0,0,1-.033-.027,2.534,2.534,0,0,0-.181-.219.4.4,0,0,1-.027-.044c-.01-.014-.017-.036-.031-.041-.054-.022-.071-.071-.1-.117a.172.172,0,0,0-.046-.051.174.174,0,0,1-.058-.085c-.022-.063-.048-.124-.069-.187a.148.148,0,0,0-.055-.075.737.737,0,0,1-.161-.2.1.1,0,0,1-.015-.04c-.01-.058-.018-.113-.028-.17a.191.191,0,0,1,.017-.158.06.06,0,0,0,0-.059.536.536,0,0,0-.054-.136.277.277,0,0,1-.04-.2.6.6,0,0,0-.006-.231.217.217,0,0,1,.013-.144.359.359,0,0,0,.026-.134,1.034,1.034,0,0,1,0-.176c.006-.03-.016-.066-.028-.11a.193.193,0,0,0-.027-.187l-.031,0A.392.392,0,0,0,34,16.586a.307.307,0,0,1-.007-.117c.009-.064,0-.126.008-.189a.2.2,0,0,1,0-.035c.011-.029.027-.059.036-.087a.54.54,0,0,1,.023-.09.142.142,0,0,0,.02-.1l.066-.046a.175.175,0,0,0,.078-.089.183.183,0,0,1,.117-.1.243.243,0,0,0,.1-.074.349.349,0,0,1,.047-.037c.011-.009.026-.019.03-.03a.36.36,0,0,1,.079-.113.063.063,0,0,0,.017-.038.124.124,0,0,1,.055-.094.288.288,0,0,0,.059-.062.545.545,0,0,1,.112-.118.875.875,0,0,0,.106-.113c.013-.015.024-.032.037-.047.059-.069.117-.137.171-.207a.193.193,0,0,1,.072-.058.137.137,0,0,0,.042-.029.247.247,0,0,1,.159-.08c.028,0,.054-.025.081-.027a.23.23,0,0,0,.147-.08,1.424,1.424,0,0,0,.117-.1.157.157,0,0,1,.066-.041.206.206,0,0,0,.133-.126.042.042,0,0,1,.05-.033.039.039,0,0,1,.025.017.143.143,0,0,0,.148.045.6.6,0,0,1,.164,0,.22.22,0,0,0,.139-.035.172.172,0,0,1,.09-.029.141.141,0,0,0,.1-.034l.05-.034a.125.125,0,0,1,.037-.022.977.977,0,0,0,.117-.025c.035-.013.065-.039.1-.037a.224.224,0,0,0,.123-.036.291.291,0,0,1,.183-.032.247.247,0,0,0,.151-.022.289.289,0,0,1,.226-.029.076.076,0,0,0,.074-.013.26.26,0,0,1,.183-.024c.012,0,.024.015.03.019l.2-.012a.126.126,0,0,1,.043.008.161.161,0,0,0,.125.016.017.017,0,0,1,.017,0,.14.14,0,0,0,.146-.009.327.327,0,0,1,.164.094.07.07,0,0,0,.035.023.074.074,0,0,1,.044.05.152.152,0,0,0,.078.089.147.147,0,0,1,.053.055.248.248,0,0,0,.325.066l.053-.031a.2.2,0,0,1,.108.085.322.322,0,0,0,.126.117.458.458,0,0,1,.087.071.687.687,0,0,1,.058.063.086.086,0,0,1,.026.034.559.559,0,0,0,.082.142.165.165,0,0,0,.093.073Z"/><path class="cls-1" d="M192.011,91.7c.117.264.195.527.286.791a4.518,4.518,0,0,0-.151.5c-.015.054-.042.116-.007.161s.14.073.226.113c-.26.381-.1.765-.084,1.146.154.185,0,.39.122.577-.107.192-.021.393-.073.585a1.846,1.846,0,0,0,.03,1c.01.035.018.081-.014.108a.365.365,0,0,0-.078.464,1.063,1.063,0,0,1,.026.385,5.278,5.278,0,0,1-.05.981.646.646,0,0,1-.093.329.192.192,0,0,0-.05.162c.053.2.124.4.188.606a.18.18,0,0,1,.015.083,3.313,3.313,0,0,1-.1.472.391.391,0,0,0,.018.3c.006.012.005.024.01.035a.834.834,0,0,1,.033.578.642.642,0,0,0-.028.279,1.466,1.466,0,0,1-.143.89c-.044.09-.059.184-.1.274a.405.405,0,0,0,.079.517.27.27,0,0,1,.053.377.3.3,0,0,1-.053.054c-.1.089-.055.173-.029.269.055.2.2.4.122.6a.09.09,0,0,0,.015.082.784.784,0,0,1,.093.445,3.993,3.993,0,0,0,.05.618c.05.2-.134.408.013.61a.043.043,0,0,1-.011.055c-.141.1-.107.207-.053.32.025.05-.015.109-.023.165-.01.074-.05.152-.019.221a.222.222,0,0,1-.031.271c-.093.1-.056.2.032.3.044.05.091.109.074.158a.737.737,0,0,0-.034.238c0,.164.042.327.039.491a.713.713,0,0,1-.007.28,1.019,1.019,0,0,0-.041.505c.016.252.033.5.048.756a.394.394,0,0,1,0,.2,1.171,1.171,0,0,0-.045.587,1.429,1.429,0,0,1-.041.672.432.432,0,0,0,0,.2,3.669,3.669,0,0,0,.039.534c.07.347-.1.69-.042,1.037a.083.083,0,0,1-.014.055.484.484,0,0,0-.039.418,2.586,2.586,0,0,1,.041.7,1.258,1.258,0,0,1-.046.306c-.057.259-.184.516-.035.779a.132.132,0,0,1,0,.11.388.388,0,0,0,.03.321c.26-.025.518-.057.777-.083.2-.02.406-.031.606-.05a.622.622,0,0,1,.339.028.484.484,0,0,0,.334.038,1.933,1.933,0,0,1,.835-.065,1.793,1.793,0,0,0,.3-.028,3.621,3.621,0,0,1,.607-.021,7.6,7.6,0,0,0,1.382,0,9.687,9.687,0,0,1,1.275,0c.5.029.991.018,1.486.011a4.355,4.355,0,0,1,.713.031,2.934,2.934,0,0,0,.707.007,4.923,4.923,0,0,1,.971,0,5.308,5.308,0,0,0,.864.029l.2-.011c.561-.034,1.12-.07,1.686-.05.2.007.406.03.61.039.244.01.5.036.736.029a1.509,1.509,0,0,0,.179-.011c.335-.039.644.035.967.006a1.919,1.919,0,0,1,.408.008,1.682,1.682,0,0,0,.553-.011c.215-.042.386.068.592.066a.85.85,0,0,0,.2-.024,3.7,3.7,0,0,1,1-.066c.551.018,1.1,0,1.642-.014a7.3,7.3,0,0,1,1.173.053,2.121,2.121,0,0,0,.606,0,2.732,2.732,0,0,1,.557-.028c.662.046,1.325.055,1.991.071.634.015,1.265.013,1.9.01a1.526,1.526,0,0,1,.2.011,4.239,4.239,0,0,0,1.169-.024,2.212,2.212,0,0,1,.355-.02c.391.007.783.01,1.17.034.241.015.48-.015.709,0a9.993,9.993,0,0,0,1.066.074,2.64,2.64,0,0,0,.946.031,1.588,1.588,0,0,0,.584-.083.638.638,0,0,1,.195-.007,1.5,1.5,0,0,0,.251,0,1.5,1.5,0,0,1,.55-.009.939.939,0,0,0,.254,0,2.09,2.09,0,0,1,.454-.011,3.314,3.314,0,0,0,.614-.006,4.394,4.394,0,0,1,.91-.014c.15.013.3.019.458.027a11.377,11.377,0,0,0,1.43.045,4.574,4.574,0,0,1,1.163-.026.242.242,0,0,0,.1-.006,1.685,1.685,0,0,1,.605,0c.474.033.945.079,1.42.11.146.009.3-.031.45-.021.165.012.32.065.484.08a2.779,2.779,0,0,0,.408-.015c.237-.017.472-.038.708-.056.136-.01.28,0,.409-.024a7.908,7.908,0,0,1,2.079.028,4.73,4.73,0,0,0,.762.04c.527-.033,1.055.012,1.582-.008a.272.272,0,0,1,.1.012,2.7,2.7,0,0,0,.9.055,3.411,3.411,0,0,0,.9-.1,2.195,2.195,0,0,1,.846-.057c.4.053.806.077,1.21.111a1.048,1.048,0,0,0,.3,0,.671.671,0,0,0,.2-.123,9.748,9.748,0,0,0,2.1.046c.338-.084.712,0,1.055-.067.351.059.72.012,1.071.041a11.182,11.182,0,0,0,1.839-.017.567.567,0,0,1,.2.007,1.927,1.927,0,0,0,.851.043,6.636,6.636,0,0,1,.705-.014c.6,0,1.2-.009,1.794.026a3.466,3.466,0,0,1,.6.05.985.985,0,0,0,.3.027c.371-.029.739-.068,1.109-.1a1.112,1.112,0,0,1,.153-.008c.287.016.578.028.863.057a2.3,2.3,0,0,0,.556-.01,4.879,4.879,0,0,1,1.12-.024,3.789,3.789,0,0,0,.511.016,8.378,8.378,0,0,1,1.629.078c.164.024.337.032.5.057a2.159,2.159,0,0,0,.946-.043,1.356,1.356,0,0,1,.788,0,1.2,1.2,0,0,0,.492.016,5.627,5.627,0,0,1,1.108-.067.5.5,0,0,0,.15-.008,4.344,4.344,0,0,1,.814-.05c.377-.01.757,0,1.13-.027a7.857,7.857,0,0,0,1.117-.007.212.212,0,0,1,.1.006,1.088,1.088,0,0,0,.585.029,1.8,1.8,0,0,1,.3.012,2.384,2.384,0,0,0,.405.011,1.2,1.2,0,0,1,.5.017,1,1,0,0,0,.542-.018.892.892,0,0,1,.29-.04c.447.045.89,0,1.334,0,.114,0,.23-.007.343-.006a1.189,1.189,0,0,1,.169.01,6.157,6.157,0,0,0,.921.021l1.388-.025a2.39,2.39,0,0,1,.359,0,7.014,7.014,0,0,0,1.075.024c.085,0,.17,0,.255,0a6.218,6.218,0,0,1,.974.028,2.688,2.688,0,0,0,.359,0l.306,0c.073-.018.147-.036.22-.057a2.124,2.124,0,0,1,.783-.11,2.223,2.223,0,0,0,.454,0,1.087,1.087,0,0,1,.346.024,1.835,1.835,0,0,0,.8.018.73.73,0,0,1,.4.01,1.861,1.861,0,0,0,.843.028,3.371,3.371,0,0,1,1.206.015.941.941,0,0,0,.3,0c.269-.025.536-.059.805-.085.2-.021.4-.031.6-.051a.635.635,0,0,1,.34.028.486.486,0,0,0,.333.039,1.957,1.957,0,0,1,.585-.073.527.527,0,0,1,.483-.185c.029,0,.057.009.085.012.751.08,1.482.275,2.232.339,0-.141-.009-.282-.026-.421a21.657,21.657,0,0,1,.417-7.016,12.631,12.631,0,0,0,.15-3.379c-.175-2.954-.96-5.874-.5-8.865a1.3,1.3,0,0,0-.109-.764c-.662-1.229-.147-2.37.192-3.538a6.377,6.377,0,0,0,.442-2,39.7,39.7,0,0,1-.115-6.266c.125-1.193-.146-2.389.45-3.572a4.13,4.13,0,0,0,.1-2.055c-.22-2.525-.482-5.043-.745-7.565a7.974,7.974,0,0,1,.273-3.618,5.181,5.181,0,0,0,.2-2.056,52.976,52.976,0,0,1-.38-8.612c.113-1.253-.551-2.559-.587-3.849-.04-1.381.3-2.768.371-4.158a60.422,60.422,0,0,1,.516-7.806,7.518,7.518,0,0,0-.251-3.876c-.036-.106-.056-.208-.085-.312-.691.014-1.359-.09-2.027-.105a.634.634,0,0,1-.2-.044c0-.02.006-.039.011-.058a7.134,7.134,0,0,0-1.265-.047,8.985,8.985,0,0,1-1.521.027h-.05a5.6,5.6,0,0,1-1.172-.05,1.949,1.949,0,0,0-.605.01,1.883,1.883,0,0,1-.5.013,2.9,2.9,0,0,0-.6.016c-.216.012-.439-.019-.66-.023a2.122,2.122,0,0,0-.251.03,1.336,1.336,0,0,1-.2.015c-.237-.014-.477-.025-.71-.05a2.194,2.194,0,0,0-.555.014,3.977,3.977,0,0,1-.938.021c-.059-.006-.118-.011-.177-.021a1.521,1.521,0,0,0-.6-.012,1.939,1.939,0,0,1-.4,0,2.335,2.335,0,0,0-.354-.02,11.03,11.03,0,0,1-1.121.02,2.51,2.51,0,0,0-.357.016,1.5,1.5,0,0,1-.55-.006,3.069,3.069,0,0,0-1.012,0,4.205,4.205,0,0,1-.768.041c-.084,0-.167-.009-.251-.017a2.983,2.983,0,0,0-.761.013,1.768,1.768,0,0,1-.3,0c-.137,0-.272-.017-.408-.018-.786-.008-1.571.079-2.358,0a1.341,1.341,0,0,0-.2.019,2.1,2.1,0,0,1-.251,0,3.623,3.623,0,0,0-.765.015.632.632,0,0,1-.245-.005,1.783,1.783,0,0,0-.7-.05c-.442.024-.887-.037-1.327.02a.373.373,0,0,1-.1,0,6.421,6.421,0,0,0-1.074-.021q-.488,0-.974,0c-.188,0-.375-.022-.562-.02-.377,0-.754.015-1.131.02a3.72,3.72,0,0,1-.46-.013,1.71,1.71,0,0,0-.5.01,3.173,3.173,0,0,1-.865.016,4.881,4.881,0,0,0-1.171.022,6.2,6.2,0,0,1-1.226.034c-.491-.032-.98-.061-1.477-.071-.465-.01-.918.041-1.378.034-.154,0-.308,0-.463-.006-.238-.006-.476-.025-.714-.022-.566.008-1.124-.028-1.685-.059a2.507,2.507,0,0,0-.45.017,4.823,4.823,0,0,1-1.019.024,1.872,1.872,0,0,0-.351-.006,3.011,3.011,0,0,1-.4,0,14.023,14.023,0,0,0-1.739.055.8.8,0,0,1-.344-.019,2.1,2.1,0,0,0-.939-.054,1.63,1.63,0,0,1-.407,0,1.5,1.5,0,0,0-.4,0,1.229,1.229,0,0,1-.25.005c-.187,0-.374-.018-.561-.017a6.158,6.158,0,0,1-.921-.024,1.323,1.323,0,0,0-.35.014,5.2,5.2,0,0,1-1.221.026c-.15-.015-.307-.011-.46-.012-.359,0-.717-.007-1.075-.015-.415-.01-.837.058-1.262.026a1.641,1.641,0,0,1-.7,0,1.312,1.312,0,0,0-.551-.007,2.671,2.671,0,0,1-.606-.015c-.219,0-.437.029-.656.044-.032,0-.067-.011-.1-.012-.15-.006-.306-.019-.458-.016-.442.01-.886-.029-1.327.024a1.785,1.785,0,0,1-.358,0,7.456,7.456,0,0,0-1.629.027.959.959,0,0,1-.251.008,5.65,5.65,0,0,0-.9-.056,13.89,13.89,0,0,0-1.836.053c-.094.012-.2-.013-.3-.011a7.235,7.235,0,0,0-1.419,0,.42.42,0,0,1-.15,0,9.1,9.1,0,0,0-1.279-.021,2.858,2.858,0,0,1-.506-.028,3.169,3.169,0,0,0-1.157-.015,1.125,1.125,0,0,1-.3.009,5.494,5.494,0,0,0-.87-.018c-.36,0-.727.037-1.078.009-.448-.036-.888-.018-1.333-.015-.187,0-.375-.006-.563-.012s-.373-.02-.561-.02c-.291,0-.583.012-.874.014a16.665,16.665,0,0,1-2-.007.418.418,0,0,0-.1,0c-.526.045-1.056.013-1.583.02a4.987,4.987,0,0,0-.855.046.535.535,0,0,1-.294-.014.955.955,0,0,0-.54-.021.768.768,0,0,1-.4.011,1.425,1.425,0,0,0-.785-.023.753.753,0,0,1-.15.012,8.6,8.6,0,0,1-.922-.013,5.149,5.149,0,0,0-1.016-.009c-.246.027-.511-.006-.766,0-.27.006-.539.031-.809.039a7,7,0,0,1-.869-.02c-.267-.024-.551.008-.821-.007-.139-.007-.278-.03-.41-.024a.592.592,0,0,0-.264.068.258.258,0,0,1-.1.007c-.238-.011-.48-.012-.714-.037a3.119,3.119,0,0,0-.863.015,2.14,2.14,0,0,1-.506.012c-.44-.028-.883-.042-1.325-.062-.1-.005-.207,0-.306-.016a3.311,3.311,0,0,0-.434-.021c-.179,0-.358.011-.536.023-.085.006-.168.02-.251.02-.393,0-.786-.005-1.179,0-.257,0-.522.032-.769.007a3.9,3.9,0,0,0-1.056.058,1.439,1.439,0,0,1-.783-.044,1.026,1.026,0,0,0-.489-.03,4.266,4.266,0,0,1-.715.015,6.982,6.982,0,0,0-1.317-.024,1.481,1.481,0,0,1-.2-.01c-.205-.007-.409-.02-.613-.018-.429,0-.857.02-1.286.023-.221,0-.442-.02-.663-.022h-.033a.294.294,0,0,0,.012.059.2.2,0,0,1-.044.19.337.337,0,0,0-.033.437.143.143,0,0,1,0,.2l-.017.015c-.176.151-.112.3-.053.461a.6.6,0,0,1-.027.659c-.037.044-.01.108.007.161.05.147.109.293.157.44.037.109.056.221.1.33a.133.133,0,0,1-.043.182l-.007,0c-.085.054-.13.122-.07.182a.381.381,0,0,1,.119.457c-.022.05.041.108.05.164.021.11.078.227.039.332a1.25,1.25,0,0,0,0,.756,1.638,1.638,0,0,1,0,.7,3.244,3.244,0,0,0-.021.812.732.732,0,0,1-.057.389.491.491,0,0,0-.012.387.829.829,0,0,1,0,.53c-.006.015-.01.031-.015.046-.01.03,0,.064-.008.095a.831.831,0,0,0-.032.332,3.059,3.059,0,0,1,.067.356,4.083,4.083,0,0,1-.081.7,6.58,6.58,0,0,0-.068,2.09.152.152,0,0,0-.037.092.183.183,0,0,0,.043.109c.009.011.01.025.018.037.025.161.067.321.1.481,0,.01,0,.02,0,.03a4.9,4.9,0,0,0,.026.9,1.255,1.255,0,0,1-.1.64.361.361,0,0,0,0,.331.476.476,0,0,1,.05.3,7.375,7.375,0,0,0-.129,1.088c-.027.347-.023.692-.017,1.037a.283.283,0,0,1-.022.112.738.738,0,0,0,.044.638.387.387,0,0,1,.037.2,4.417,4.417,0,0,1-.062.639c-.027.132.027.262,0,.387a1.772,1.772,0,0,0-.136.583c-.171.167-.093.342-.056.517.023.111,0,.224.15.319.034.022.013.071.014.107s-.026.1,0,.138a.272.272,0,0,1,.016.3.156.156,0,0,0,.009.138c.006.014,0,.029,0,.043a22.528,22.528,0,0,0-.492,4.882l0,0,.006.019a8.233,8.233,0,0,0,.157,1.229c.029.138.065.277.1.415a.811.811,0,0,0-.038.216c.061.288-.022.577.014.865a.058.058,0,0,1-.022.053c-.191.156-.092.328-.1.493a.677.677,0,0,0,.183.49.413.413,0,0,1,.1.462,4.352,4.352,0,0,0-.2.662c-.015.053-.042.115-.007.161a.79.79,0,0,0,.225.112c-.259.381-.1.765-.083,1.147.153.185,0,.389.122.576-.107.193-.021.393-.073.586a1.846,1.846,0,0,0,.029,1c.01.035.018.081-.013.107-.18.148-.131.312-.078.465a1.084,1.084,0,0,1,.026.385,5.449,5.449,0,0,1-.05.98.644.644,0,0,1-.094.33.2.2,0,0,0-.05.162c.053.2.124.4.188.6a.184.184,0,0,1,.016.083,3.612,3.612,0,0,1-.1.472.389.389,0,0,0,.018.3.827.827,0,0,1,.042.612.659.659,0,0,0-.027.279c.005.031,0,.062,0,.094-.06.3-.118.591-.178.887a1.418,1.418,0,0,1-.07.184.387.387,0,0,0-.029.32c-.217,1.082-.428,2.164-.595,3.25-.114.746.428,1.543.3,2.286-.145.84-.849,1.631-1.029,2.471a5.31,5.31,0,0,0,.234,2.077c.239,1.2.547,2.4.8,3.6A9.49,9.49,0,0,0,192.011,91.7Z"/><path class="cls-1" d="M289.6,179.165a3.581,3.581,0,0,0,.085-1.037,5.081,5.081,0,0,1,1.04-4.112c-.175-.513-.306-.926-.455-1.333a5.6,5.6,0,0,1-.236-3.823,5.219,5.219,0,0,0-.034-2.845,4.587,4.587,0,0,1-.217-1.768,23.97,23.97,0,0,0-.123-7.82c-.366-2.81.451-5.552.361-8.34,1.013-1.59.571-3.151-.022-4.748a7.881,7.881,0,0,1-.233-1.816,24.9,24.9,0,0,0-.9-5.141c-.394-1.2-.733-2.6.165-3.783a2.833,2.833,0,0,0,.251-3.187,4.731,4.731,0,0,1-.3-1.268,38.515,38.515,0,0,1-.293-6.4c-.773.051-1.543.155-2.32.167a.171.171,0,0,1-.05-.01.654.654,0,0,1-.089.159,8.424,8.424,0,0,0-1.23-.038,10.889,10.889,0,0,1-1.511.022.417.417,0,0,0-.05,0,6.755,6.755,0,0,1-1.164-.041,2.282,2.282,0,0,0-.6.008,2.209,2.209,0,0,1-.5.01,3.55,3.55,0,0,0-.6.014c-.214.01-.436-.015-.656-.019a2.351,2.351,0,0,0-.25.025,1.665,1.665,0,0,1-.2.012c-.236-.011-.474-.021-.7-.043a2.671,2.671,0,0,0-.551.012,4.683,4.683,0,0,1-.932.017c-.059-.005-.118-.009-.177-.017a1.807,1.807,0,0,0-.6-.01,2.238,2.238,0,0,1-.4,0,2.919,2.919,0,0,0-.35-.016c-.371.041-.742.007-1.113.016a3.213,3.213,0,0,0-.354.014,1.818,1.818,0,0,1-.551,0,3.677,3.677,0,0,0-1,0,4.992,4.992,0,0,1-.763.034c-.083,0-.166-.007-.251-.014a3.538,3.538,0,0,0-.756.01,2.16,2.16,0,0,1-.3,0c-.135,0-.27-.014-.405-.015-.781-.007-1.561.065-2.342,0a1.7,1.7,0,0,0-.2.015c-.083,0-.167.006-.25,0a4.194,4.194,0,0,0-.76.013.8.8,0,0,1-.244,0,2.1,2.1,0,0,0-.694-.043c-.44.02-.882-.031-1.319.016a.419.419,0,0,1-.1,0,7.919,7.919,0,0,0-1.067-.018h-.969c-.185,0-.371-.017-.557-.017-.375,0-.751.013-1.124.017a4.338,4.338,0,0,1-.456-.01,2.048,2.048,0,0,0-.5.008,3.856,3.856,0,0,1-.859.013,5.8,5.8,0,0,0-1.163.018,7.506,7.506,0,0,1-1.218.028c-.489-.027-.974-.051-1.468-.059-.462-.007-.911.034-1.369.029-.153,0-.306,0-.459,0-.237-.006-.474-.021-.71-.018-.562.006-1.117-.023-1.674-.051a3.091,3.091,0,0,0-.451.015,6,6,0,0,1-1.012.02,1.96,1.96,0,0,0-.351,0,3.831,3.831,0,0,1-.4,0,16.583,16.583,0,0,0-1.727.045.96.96,0,0,1-.342-.016,2.531,2.531,0,0,0-.934-.045,1.91,1.91,0,0,1-.4,0,1.793,1.793,0,0,0-.4,0,1.606,1.606,0,0,1-.25,0c-.186,0-.372-.015-.558-.015a7.148,7.148,0,0,1-.914-.019,1.585,1.585,0,0,0-.351.012,6.225,6.225,0,0,1-1.213.021c-.15-.012-.3-.009-.457-.01-.356,0-.712,0-1.067-.012-.413-.008-.832.047-1.252.022a2.02,2.02,0,0,1-.7,0,1.565,1.565,0,0,0-.546-.007,3.176,3.176,0,0,1-.6-.012c-.217,0-.434.024-.651.036-.032,0-.066-.008-.1-.01-.15,0-.305-.015-.456-.012-.439.008-.88-.025-1.318.019a2.226,2.226,0,0,1-.356,0,8.935,8.935,0,0,0-1.619.022,1.1,1.1,0,0,1-.25.007,6.879,6.879,0,0,0-.9-.047,16.824,16.824,0,0,0-1.824.044c-.093.01-.2-.011-.3-.009a8.734,8.734,0,0,0-1.41,0,.538.538,0,0,1-.15,0,11.231,11.231,0,0,0-1.271-.018,3.227,3.227,0,0,1-.5-.023,3.835,3.835,0,0,0-1.152-.012,1.309,1.309,0,0,1-.3.008,6.558,6.558,0,0,0-.864-.015c-.358,0-.723.031-1.071.008-.446-.03-.883-.016-1.324-.013-.187,0-.373,0-.56-.01s-.371-.017-.557-.017c-.29,0-.579.01-.869.012-.661,0-1.324.056-1.985-.006a.557.557,0,0,0-.1,0c-.522.037-1.049.011-1.573.018a5.773,5.773,0,0,0-.852.037.623.623,0,0,1-.291-.012,1.148,1.148,0,0,0-.537-.017.908.908,0,0,1-.4.009,1.686,1.686,0,0,0-.78-.018,1.258,1.258,0,0,1-.15.009c-.306,0-.607.013-.916-.01a5.977,5.977,0,0,0-1.01-.008c-.244.022-.507,0-.761,0s-.535.025-.8.032a8.3,8.3,0,0,1-.864-.017c-.265-.02-.545.007-.815,0-.139-.006-.276-.025-.408-.02a.677.677,0,0,0-.262.056.306.306,0,0,1-.1,0c-.237-.008-.477-.01-.71-.03a3.713,3.713,0,0,0-.856.012,2.572,2.572,0,0,1-.5.01c-.437-.022-.877-.034-1.316-.05-.1,0-.2,0-.292-.013h-.012a5.967,5.967,0,0,0-.964,0c-.084,0-.167.016-.25.016-.39,0-.781,0-1.172,0-.255,0-.518.027-.764.006a4.739,4.739,0,0,0-1.051.048,1.719,1.719,0,0,1-.778-.036,1.225,1.225,0,0,0-.486-.025,5.1,5.1,0,0,1-.71.012,8.538,8.538,0,0,0-1.309-.02,1.679,1.679,0,0,1-.2-.007c-.2-.006-.406-.016-.609-.015-.425,0-.851.016-1.277.018-.22,0-.439-.015-.659-.017h-.033a.283.283,0,0,0,.013.05.144.144,0,0,1-.045.155.243.243,0,0,0-.049.338l.018.022c.05.06.063.121-.018.178-.175.123-.111.248-.052.379.08.18.157.361-.028.542-.037.036-.009.089.008.133.047.121.107.241.156.361.036.09.055.182.095.272a.1.1,0,0,1-.027.14.127.127,0,0,1-.023.012c-.009,0-.011.01-.018.015-.068.042-.106.091-.052.136.146.121.192.241.119.375-.022.041.041.09.05.135.021.091.078.187.038.273a.866.866,0,0,0,0,.622,1.113,1.113,0,0,1,0,.573,2.233,2.233,0,0,0-.02.668.516.516,0,0,1-.057.32.344.344,0,0,0-.012.318.571.571,0,0,1,0,.437c-.006.012-.009.024-.014.037a.6.6,0,0,0-.041.353,2.235,2.235,0,0,1,.1.561c-.458,1.676-.726,3.385-1.073,5.078a2.152,2.152,0,0,0-.029,1.5,2.274,2.274,0,0,0,.911.644c-.01.087-.012.174-.03.26-.027.107.027.215,0,.318a1.272,1.272,0,0,0-.135.479c-.169.138-.092.282-.055.426.023.091,0,.184.15.262.034.017.012.058.013.088s-.025.08,0,.114a.194.194,0,0,1,.017.248.109.109,0,0,0,.008.114.237.237,0,0,1,.019.2v.01a11.514,11.514,0,0,0-.225,2.984l-.006.018c0,.014,0,.028.008.042,0,.065,0,.129.007.193a1.512,1.512,0,0,0-.123.184.315.315,0,0,0,.028.184c.01.037.023.074.035.11-.016.015-.03.029-.047.043a.825.825,0,0,1-.176.075l-.013.006a1.755,1.755,0,0,1,.107.271.732.732,0,0,0,.268.369l.026.023.015.146a1.914,1.914,0,0,1-.118.393.564.564,0,0,0-.073.343,6.749,6.749,0,0,1,.014.711.044.044,0,0,1-.022.044c-.19.128-.092.27-.1.4a.508.508,0,0,0,.182.4c.12.116.178.242.1.38a3.2,3.2,0,0,0-.2.544c-.015.044-.042.1-.007.133a.9.9,0,0,0,.224.093c-.258.313-.1.628-.082.942.15.151,0,.32.12.475-.106.158-.021.323-.072.481a1.268,1.268,0,0,0,.029.827c.01.029.018.067-.014.088-.178.122-.129.257-.076.382a.756.756,0,0,1,.025.317,3.7,3.7,0,0,1-.047.807c-.023.092-.008.183-.093.272a.14.14,0,0,0-.05.133c.053.167.124.332.187.5a.127.127,0,0,1,.015.069,2.36,2.36,0,0,1-.1.388.268.268,0,0,0,.019.252.581.581,0,0,1,.041.5.451.451,0,0,0-.027.23,1.024,1.024,0,0,1-.143.732c-.043.074-.058.151-.1.226a.3.3,0,0,0,.06.412l.019.013c.129.112.15.237,0,.353-.1.073-.056.143-.03.221.055.165.2.326.121.5a.068.068,0,0,0,.015.068c.1.118.079.243.092.366a2.8,2.8,0,0,0,.05.508c.05.168-.132.335.013.5a.029.029,0,0,1-.006.041l0,0c-.14.084-.1.171-.05.263.024.042-.015.091-.023.137-.01.061-.05.125-.019.181a.159.159,0,0,1-.029.222h0c-.092.083-.055.163.033.244.043.04.09.09.073.13-.082.2.009.4,0,.6a.414.414,0,0,0,.006.07.426.426,0,0,0-.007.118c-.169.138-.092.282-.055.426.006.025.009.05.013.075.015.194.03.386.044.579,0,.054.024.111,0,.161a.808.808,0,0,0-.045.483.982.982,0,0,1-.041.555c-.027.051,0,.108,0,.162a2.586,2.586,0,0,0,.039.439c.07.285-.1.568-.042.852a.058.058,0,0,1-.014.046.339.339,0,0,0-.038.344,1.78,1.78,0,0,1,.04.573.4.4,0,0,1-.01.1.356.356,0,0,0-.065.1.2.2,0,0,0,.009.124c-.06.19-.147.381-.015.574a.086.086,0,0,1,0,.09.29.29,0,0,0,.05.3.239.239,0,0,1-.028.336l0,0a.278.278,0,0,0-.039.362,1.179,1.179,0,0,1,.086.272.935.935,0,0,1,.014.14,2.813,2.813,0,0,0-.007.477.044.044,0,0,1-.021.044c-.19.127-.092.269-.1.4a.5.5,0,0,0,.181.4c.121.116.179.243.1.381a3.276,3.276,0,0,0-.2.543c-.015.045-.041.1-.007.134a.874.874,0,0,0,.224.092c-.257.313-.1.629-.082.942.15.152,0,.321.121.475-.106.158-.021.323-.073.481a1.268,1.268,0,0,0,.029.827c.01.029.018.067-.013.089-.178.122-.13.256-.077.381a.743.743,0,0,1,.025.318,3.569,3.569,0,0,1-.047.806c-.022.092-.008.184-.093.272a.143.143,0,0,0-.05.133c.053.167.124.332.187.5a.128.128,0,0,1,.016.069,2.467,2.467,0,0,1-.1.388.268.268,0,0,0,.019.252.579.579,0,0,1,.041.5.447.447,0,0,0-.027.229,1.028,1.028,0,0,1-.142.732c-.044.075-.059.152-.1.226a.3.3,0,0,0,.059.412l.019.013c.129.112.15.238,0,.353-.1.074-.055.143-.029.221.054.165.2.326.121.5a.063.063,0,0,0,.015.068c.1.118.079.243.091.366a2.9,2.9,0,0,0,.051.508c.05.168-.133.336.013.5a.031.031,0,0,1-.007.042l0,0c-.14.083-.106.17-.05.263.024.042-.015.091-.024.136-.01.061-.05.126-.019.182a.159.159,0,0,1-.029.222h0c-.092.084-.056.163.032.244.043.04.09.09.074.13a.486.486,0,0,0-.034.2c0,.134.041.269.038.4,0,.077.033.158-.007.23a.7.7,0,0,0-.04.414c.015.208.033.416.047.624,0,.054.025.111,0,.162a.807.807,0,0,0-.044.483.979.979,0,0,1-.041.554c-.027.051,0,.108,0,.162a2.488,2.488,0,0,0,.039.439c.069.286-.1.568-.042.852a.055.055,0,0,1-.015.046.341.341,0,0,0-.038.344,1.754,1.754,0,0,1,.041.573.863.863,0,0,1-.046.252c-.056.213-.183.425-.035.641a.09.09,0,0,1,0,.09.269.269,0,0,0,.031.264c.258-.021.514-.047.771-.068.2-.016.4-.025.6-.043a.757.757,0,0,1,.338.023.577.577,0,0,0,.331.032,2.3,2.3,0,0,1,.83-.054,2.124,2.124,0,0,0,.3-.023,4.5,4.5,0,0,1,.6-.017,9,9,0,0,0,1.374,0,11.623,11.623,0,0,1,1.266,0c.352.016.7.009,1.049.006.051.007.1.009.154.018a3.187,3.187,0,0,0,1.013.012h.017a3.55,3.55,0,0,0,.652,0,5.939,5.939,0,0,1,.706,0h.02a5.788,5.788,0,0,0,1.242.056c.355-.038.713-.06,1.071-.08.219-.005.437-.011.657-.005.2.006.4.025.606.032.243.008.493.029.731.024a1.773,1.773,0,0,0,.179-.009,2.81,2.81,0,0,1,.4,0c.33.03.662.049,1,.052a2.224,2.224,0,0,0,.259-.02,2.133,2.133,0,0,1,.345-.022,3.425,3.425,0,0,1,.506.047c.031,0,.063-.007.094-.01a2.43,2.43,0,0,0,.443,0,2.091,2.091,0,0,1,.586.015,1.811,1.811,0,0,0,.8-.021c.31-.08.555.129.85.126a1,1,0,0,0,.286-.045,3.976,3.976,0,0,1,.63-.115c.1.007.2,0,.3.012a2.517,2.517,0,0,0,.6,0,3.294,3.294,0,0,1,.553-.023c.658.037,1.317.045,1.978.058.447.009.891.006,1.337,0,.026,0,.054,0,.08.01a2.287,2.287,0,0,0,.761.006,5.084,5.084,0,0,0,1.068-.023,2.437,2.437,0,0,1,.256-.012c.033,0,.065-.005.1-.005.388.006.777.009,1.162.028.239.012.476-.012.7,0,.35.022.7.069,1.058.061a3.159,3.159,0,0,0,.941.025,1.866,1.866,0,0,0,.58-.068.787.787,0,0,1,.194-.006,1.738,1.738,0,0,0,.25,0,1.85,1.85,0,0,1,.551-.007,1.1,1.1,0,0,0,.25,0,2.428,2.428,0,0,1,.451-.009,4.154,4.154,0,0,0,.611,0,5.214,5.214,0,0,1,.9-.012c.15.011.3.016.455.022a13.207,13.207,0,0,0,1.421.037,5.565,5.565,0,0,1,1.154-.021.285.285,0,0,0,.1,0,2.011,2.011,0,0,1,.6,0c.472.027.939.065,1.411.09.145.008.3-.025.446-.016.164.009.317.053.48.065a3.234,3.234,0,0,0,.406-.013c.235-.013.469-.031.7-.045.134-.008.277,0,.405-.02a9.452,9.452,0,0,1,2.066.023,5.618,5.618,0,0,0,.756.033c.524-.027,1.049.01,1.572-.007a.359.359,0,0,1,.1.01,3.206,3.206,0,0,0,.9.045,4.03,4.03,0,0,0,.89-.082,2.606,2.606,0,0,1,.84-.047c.394.044.8.064,1.2.091a1.305,1.305,0,0,0,.293,0,.7.7,0,0,0,.2-.1,11.6,11.6,0,0,0,2.083.037c.337-.068.708,0,1.049-.054.35.05.715.009,1.064.033a13.421,13.421,0,0,0,1.827-.014.671.671,0,0,1,.2.007,2.31,2.31,0,0,0,.845.034c.239-.02.464-.012.7-.011.595,0,1.188-.007,1.782.021a4.03,4.03,0,0,1,.6.042,1.216,1.216,0,0,0,.295.022c.368-.024.734-.056,1.1-.084a1.083,1.083,0,0,1,.151-.007c.286.013.574.022.857.046a2.671,2.671,0,0,0,.551-.008,5.912,5.912,0,0,1,1.113-.019,4.517,4.517,0,0,0,.507.012,10.169,10.169,0,0,1,1.618.065c.164.02.336.026.5.047a2.623,2.623,0,0,0,.939-.035,1.621,1.621,0,0,1,.783,0,1.435,1.435,0,0,0,.489.013,6.656,6.656,0,0,1,1.1-.055.581.581,0,0,0,.15-.007,5.323,5.323,0,0,1,.808-.041c.375-.008.751,0,1.123-.022a9.343,9.343,0,0,0,1.11-.006.26.26,0,0,1,.1,0,1.3,1.3,0,0,0,.581.024,2.308,2.308,0,0,1,.3.01,2.983,2.983,0,0,0,.4.009,1.427,1.427,0,0,1,.492.014,1.207,1.207,0,0,0,.538-.014,1.037,1.037,0,0,1,.288-.034c.444.037.885,0,1.326,0,.113,0,.229-.006.341,0a1.574,1.574,0,0,1,.168.008,7.148,7.148,0,0,0,.914.017c.46-.006.92-.014,1.38-.021a3.02,3.02,0,0,1,.356,0,8.458,8.458,0,0,0,1.068.02l.253,0a7.427,7.427,0,0,1,.967.023,3.542,3.542,0,0,0,.357,0c.1,0,.2,0,.3,0,.073-.015.146-.03.219-.048a2.555,2.555,0,0,1,.778-.09,2.6,2.6,0,0,0,.45,0,1.285,1.285,0,0,1,.345.02,2.208,2.208,0,0,0,.794.015.869.869,0,0,1,.393.007,2.2,2.2,0,0,0,.837.024,3.983,3.983,0,0,1,1.2.013,1.157,1.157,0,0,0,.294,0c.267-.021.531-.05.8-.071.2-.016.4-.025.6-.042a.726.726,0,0,1,.337.023.572.572,0,0,0,.332.031,2.3,2.3,0,0,1,.792-.054.577.577,0,0,1,.347-.2.621.621,0,0,1,.135-.027c1.368,0,2.785-.078,4.186-.077-.107-.605-.246-1.2-.4-1.78A17.307,17.307,0,0,1,289.6,179.165Z"/></svg>