<svg id="Layer_1" data-name="Layer 1" xmlns="http://www.w3.org/2000/svg" viewBox="0 0 296 198"><defs><style>.cls-1{fill:#f36;}.cls-2{fill:none;stroke:#1858a8;stroke-miterlimit:10;}.cls-3{fill:#1858a8;}.cls-4{fill:#ffeded;}</style></defs><title>Untitled-1</title><path class="cls-1" d="M7.563,193.129a.97.97,0,0,0,.252.151,12.9,12.9,0,0,1,1.947.661.6.6,0,0,0,.658,0c.045-.035.16-.008.243-.012a1.889,1.889,0,0,0,.438-.03,1,1,0,0,1,.682.034.881.881,0,0,0,.621.041.5.5,0,0,1,.25-.015,1.712,1.712,0,0,0,1.105-.18,1.229,1.229,0,0,1,.674-.13,2.344,2.344,0,0,1,.618.128,1.82,1.82,0,0,0,.933.13c.424-.023.847-.053,1.3-.085a1.221,1.221,0,0,1,.183.114.86.86,0,0,0,.875.168,3.258,3.258,0,0,1,.631-.076,3.053,3.053,0,0,0,.573-.042,1.9,1.9,0,0,1,.982-.015,4.727,4.727,0,0,1,.533-.225.354.354,0,0,0,.315-.385c.087,0,.176.008.271.015a2.122,2.122,0,0,0,.553-.111c.165.253.446.256.755.177a.348.348,0,0,0,.113-.05,1.17,1.17,0,0,1,.6-.162,1.89,1.89,0,0,0,.357-.1.953.953,0,0,0,.252.151,12.886,12.886,0,0,1,1.946.662.609.609,0,0,0,.659,0c.045-.036.16-.008.243-.012a1.941,1.941,0,0,0,.437-.03.991.991,0,0,1,.683.034.886.886,0,0,0,.621.041.5.5,0,0,1,.25-.015,1.712,1.712,0,0,0,1.105-.18,1.22,1.22,0,0,1,.674-.13,2.311,2.311,0,0,1,.619.127,1.811,1.811,0,0,0,.931.13c.424-.023.848-.052,1.3-.084a1.221,1.221,0,0,1,.183.114.86.86,0,0,0,.878.168,3.259,3.259,0,0,1,.63-.077,2.975,2.975,0,0,0,.574-.041,1.905,1.905,0,0,1,.983-.016,4.63,4.63,0,0,1,.532-.224.4.4,0,0,0,.3-.249.355.355,0,0,0,.2-.028.743.743,0,0,1,.593-.093,2.155,2.155,0,0,0,.553-.111c.165.253.447.255.755.177a.348.348,0,0,0,.113-.05,1.16,1.16,0,0,1,.6-.162,1.967,1.967,0,0,0,.357-.1.986.986,0,0,0,.252.151,12.9,12.9,0,0,1,1.947.661.6.6,0,0,0,.658,0c.046-.035.16-.007.243-.012a1.945,1.945,0,0,0,.438-.029.988.988,0,0,1,.682.034.886.886,0,0,0,.621.04.5.5,0,0,1,.25-.015,1.705,1.705,0,0,0,1.105-.18,1.229,1.229,0,0,1,.674-.13,2.351,2.351,0,0,1,.619.128,1.813,1.813,0,0,0,.931.13c.425-.023.848-.052,1.3-.084.017.01.044.029.068.041a7.033,7.033,0,0,1,1.347-2.516c.612-.74,1.316-1.428,2.041-2.207a6.707,6.707,0,0,0-1.293-4.608,6.591,6.591,0,0,1-1.243-6,15.272,15.272,0,0,0,.133-6.219c-.165-1.328-.7-2.69.151-4.008a.545.545,0,0,0,0-.51c-1.138-1.916-.1-3.456,1.181-4.975.425-.5.756-1.062,1.086-1.532a18.791,18.791,0,0,1-2.474-6.827,4.17,4.17,0,0,1,.45-2.357c1.558-3.086,1.667-4.632,1-7.362-.431-1.75-.9-3.5-1.155-5.272-.435-3.063-.709-6.143-1.062-9.214a2.142,2.142,0,0,1,.74-2.255,2.141,2.141,0,0,0,.627-2.53,10.529,10.529,0,0,0-.493-1.292,5.4,5.4,0,0,1-.059-4.264c.788-1.83.122-3.778.59-5.639a2.513,2.513,0,0,1,.058-2.849.9.9,0,0,0-.106-.777c-.563-1.055-.248-2.109-.2-3.194.094-2.454,1.388-4.963-.293-7.376-.09-.129.02-.353.031-.532.176-2.709-.457-5.4-.076-8.132a49.526,49.526,0,0,0,.038-6.494,4.057,4.057,0,0,1,.257-1.338,7.113,7.113,0,0,0-.274-5.862L53.142,76.1a12.355,12.355,0,0,1-.524-2.851c.165-2.521.51-5.035.762-7.553a3.422,3.422,0,0,0-.762-2.849,1.952,1.952,0,0,1-.527-1.228c.028-1.442.2-2.88.265-4.324a3.622,3.622,0,0,0-.157-1.867,3.823,3.823,0,0,1-.085-2.936,12.456,12.456,0,0,0,.076-4.6c-.176-1.353-.333-2.709-.436-4.067a3.351,3.351,0,0,1,.134-1.865,3.308,3.308,0,0,0,.123-2.6,32.555,32.555,0,0,1-.405-4.3c-.186.027-.371.052-.557.077a1.879,1.879,0,0,1-.382.019A15.421,15.421,0,0,0,48.9,35.06a6.128,6.128,0,0,1-1.552-.166c-.2-.052-.394-.138-.6-.179a1.083,1.083,0,0,0-.913.1.33.33,0,0,1-.232.062,2.05,2.05,0,0,0-1.062.1.753.753,0,0,1-.748-.157c-.027-.027-.051-.074-.082-.078-.4-.044-.644-.326-1.009-.438a.81.81,0,0,1-.593.1.709.709,0,0,0-.6.114,1.13,1.13,0,0,1-.213.086l-.556-.234c-.082.061-.15.089-.176.133a.808.808,0,0,1-.959.347,1.044,1.044,0,0,0-.374.016,1.167,1.167,0,0,1-.913-.025c-.054-.031-.167.013-.25.007a2.221,2.221,0,0,0-.488-.049c-.235.036-.2-.232-.453-.2-.042.078-.086.162-.133.247a6.429,6.429,0,0,0-.748-.061,1.866,1.866,0,0,0-1.166.194.625.625,0,0,1-.246.049c-.252.036-.5.074-.756.1a1.807,1.807,0,0,1-.382.019,15.421,15.421,0,0,0-1.772-.093,6.026,6.026,0,0,1-1.551-.166c-.2-.052-.395-.137-.6-.179a1.083,1.083,0,0,0-.913.1.328.328,0,0,1-.234.063,2.039,2.039,0,0,0-1.062.1.753.753,0,0,1-.749-.158c-.026-.027-.05-.073-.081-.077-.4-.044-.644-.327-1.009-.438a.815.815,0,0,1-.593.1.716.716,0,0,0-.6.114,1.044,1.044,0,0,1-.213.086l-.555-.233c-.082.06-.15.088-.176.132a.807.807,0,0,1-.959.348,1.023,1.023,0,0,0-.374.015,1.167,1.167,0,0,1-.913-.024c-.054-.032-.167.013-.25.006A2.283,2.283,0,0,0,20.6,34.8c-.235.037-.205-.232-.452-.2l-.106.2c-.088-.007-.176-.011-.261-.011a1.866,1.866,0,0,0-1.166.194.624.624,0,0,1-.246.048c-.252.037-.5.074-.757.1a1.869,1.869,0,0,1-.381.019,15.421,15.421,0,0,0-1.772-.093A6.128,6.128,0,0,1,13.9,34.9c-.2-.052-.394-.138-.6-.179a1.085,1.085,0,0,0-.914.1.327.327,0,0,1-.234.062,2.05,2.05,0,0,0-1.062.1.748.748,0,0,1-.748-.157c-.027-.027-.051-.074-.082-.078-.4-.044-.644-.326-1.009-.438a.811.811,0,0,1-.593.1.715.715,0,0,0-.6.114,1.044,1.044,0,0,1-.213.086l-.555-.234c-.082.061-.15.089-.176.133a.735.735,0,0,1-.794.362c.025.066.036.133.064.2a10.482,10.482,0,0,1,.566,4.823c-.117,2.022-.873,4.131.619,6.064a1.268,1.268,0,0,1,.154.786c-.034,1.173.262,2.47-.246,3.486-.586,1.176-.031,2.356-.488,3.4-1.037,2.367-.583,4.772.124,6.972a14.836,14.836,0,0,1,.223,6.685,3.086,3.086,0,0,0-.114,1.076,4.636,4.636,0,0,1-1.338,4.263c.216.534.379.964.563,1.387a4.871,4.871,0,0,1,.268,3.971,4.525,4.525,0,0,0,.022,2.954A3.993,3.993,0,0,1,7,82.764a20.626,20.626,0,0,0,.1,8.12c.442,2.919-.6,5.76-.513,8.658-1.286,1.644-.741,3.267-.007,4.93a6.747,6.747,0,0,1,.279,1.885A21.882,21.882,0,0,0,7.95,111.7c.487,1.244.9,2.706-.234,3.928a2.536,2.536,0,0,0-.337,3.307,4.183,4.183,0,0,1,.364,1.319c.639,3.6.2,7.223.262,10.836a20.393,20.393,0,0,0-.029,2.435,18.677,18.677,0,0,1-.574,7.283,10.816,10.816,0,0,0-.216,3.509c.2,3.067,1.164,6.1.571,9.207a1.146,1.146,0,0,0,.131.794c.823,1.281.169,2.461-.267,3.673a5.668,5.668,0,0,0-.57,2.072,34.225,34.225,0,0,1,.1,6.506c-.166,1.238.166,2.481-.589,3.707a3.573,3.573,0,0,0-.138,2.133c.258,2.622.569,5.242.882,7.861a6.911,6.911,0,0,1-.369,3.755,4.484,4.484,0,0,0-.269,2.133c.188,2.361.541,4.7.512,7.077h.014A2,2,0,0,0,7.563,193.129Z"/><path class="cls-1" d="M184.935,136.779a10.285,10.285,0,0,0-.35-2.155c-1.588-3.692-.657-7.359.217-11a9.986,9.986,0,0,0,.477-4.036c-.481-2.786.086-5.583-.217-8.37a.686.686,0,0,1,.153-.519c1.38-1.511.633-3.177.667-4.78a7.964,7.964,0,0,0-1.4-4.728,4.983,4.983,0,0,1-.824-4.469,54.835,54.835,0,0,0,1.395-6.415,2.318,2.318,0,0,0,.028-1.563c-.255-.427-1.034-.691-1.665-1.075,1.844-3.7.626-7.407.451-11.1-1.144-1.785-.061-3.771-.964-5.578.754-1.87.1-3.809.456-5.669a23.522,23.522,0,0,0-.35-9.73,1.22,1.22,0,0,1,.085-1.041c1.29-1.446.91-3.029.507-4.5a13.708,13.708,0,0,1-.236-3.729,67.011,67.011,0,0,1,.218-9.491c.08-.6.089-1.2.176-1.789a8.006,8.006,0,0,0-1.9.007,9.575,9.575,0,0,1-1.334.025,4.178,4.178,0,0,1,.061-.474,7.488,7.488,0,0,0-1.815-.093,9.447,9.447,0,0,1-2.185.052.433.433,0,0,0-.072,0,5.858,5.858,0,0,1-1.684-.1,2.017,2.017,0,0,0-.868.019,1.958,1.958,0,0,1-.724.025,3.083,3.083,0,0,0-.869.033,9.358,9.358,0,0,1-.948-.045,2.124,2.124,0,0,0-.358.06,1.325,1.325,0,0,1-.289.029q-.514-.033-1.02-.105a2.24,2.24,0,0,0-.8.029,4.086,4.086,0,0,1-1.347.041c-.087-.01-.172-.024-.256-.042a1.587,1.587,0,0,0-.862-.024,1.874,1.874,0,0,1-.579,0,2.449,2.449,0,0,0-.507-.037,11.515,11.515,0,0,1-1.609.037,2.661,2.661,0,0,0-.513.034,1.567,1.567,0,0,1-.8-.013,3.22,3.22,0,0,0-1.455,0,4.316,4.316,0,0,1-1.1.082c-.122-.007-.242-.018-.362-.034a3.064,3.064,0,0,0-1.093.024,1.808,1.808,0,0,1-.435.01c-.195-.008-.39-.033-.585-.037a27.34,27.34,0,0,1-3.387,0h-.006a1.755,1.755,0,0,0-.282.037,1.824,1.824,0,0,1-.362.006,3.774,3.774,0,0,0-1.1.031.667.667,0,0,1-.352-.01,1.882,1.882,0,0,0-1-.1,18.927,18.927,0,0,0-1.906.04.415.415,0,0,1-.145-.007,6.746,6.746,0,0,0-1.543-.043c-.466,0-.933,0-1.4-.006-.268-.005-.537-.042-.805-.039-.542,0-1.086.031-1.625.039a3.635,3.635,0,0,1-.66-.025,1.819,1.819,0,0,0-.724.019,3.3,3.3,0,0,1-1.242.032,5.044,5.044,0,0,0-1.681.045,6.567,6.567,0,0,1-1.761.067c-.707-.065-1.408-.122-2.122-.142-.668-.019-1.318.082-1.98.069-.221,0-.442,0-.663-.012-.342-.013-.685-.053-1.026-.044q-1.215,0-2.421-.117a2.624,2.624,0,0,0-.651.034,5.127,5.127,0,0,1-1.464.047,1.831,1.831,0,0,0-.507-.011,3.293,3.293,0,0,1-.579,0c-.677-.009-1.354.014-2.027.068a4.171,4.171,0,0,0-.955-.06c-.084.007-.168,0-.253,0a2.132,2.132,0,0,0-1.1-.048,1.679,1.679,0,0,1-.583,0,1.56,1.56,0,0,0-.566.008,3.384,3.384,0,0,0-1.2-.079,3.88,3.88,0,0,0-.724.058,3.06,3.06,0,0,1-.575-.052,1.393,1.393,0,0,0-.507.028,5.419,5.419,0,0,1-1.752.052,5.2,5.2,0,0,0-.661-.023c-.516,0-1.03-.014-1.544-.031-.6-.019-1.2.115-1.809.053a1.751,1.751,0,0,1-1.009-.01A1.371,1.371,0,0,0,110,34.4a2.752,2.752,0,0,1-.868-.029c-.316.015-.631.043-.942.087a1.158,1.158,0,0,1-.144-.023c-.219-.02-.439-.031-.659-.031a14.093,14.093,0,0,0-1.906.045,1.806,1.806,0,0,1-.514-.008,7.783,7.783,0,0,0-2.341.053,1,1,0,0,1-.362.016,5.944,5.944,0,0,0-1.3-.112c-.5,0-.992-.007-1.486.007a.9.9,0,0,0-.156-.019c-.256.028-.507.064-.765.1-.077.01-.153.006-.23.019a3.584,3.584,0,0,1-.434-.02,7.533,7.533,0,0,0-2.04,0,.468.468,0,0,1-.217,0,9.4,9.4,0,0,0-1.837-.041,2.916,2.916,0,0,1-.724-.057,3.364,3.364,0,0,0-1.665-.03,1.136,1.136,0,0,1-.435.019,2.78,2.78,0,0,0-.367-.031c-.18-.027-.362-.048-.539-.085a2.284,2.284,0,0,0-1.358.086c-.032.013-.068.01-.1.021a4.185,4.185,0,0,1-.434-.008c-.231-.022-.465-.033-.7-.033a1.55,1.55,0,0,0-.607-.013l-.044.007-.564.008c-.27,0-.54-.011-.81-.022s-.537-.042-.806-.042c-.418,0-.836.025-1.255.029a17.419,17.419,0,0,1-2.871-.015.586.586,0,0,0-.145,0q-1.134.076-2.274.042a5.1,5.1,0,0,0-1.23.091.569.569,0,0,1-.422-.029,1.021,1.021,0,0,0-.776-.042.808.808,0,0,1-.571.022,1.5,1.5,0,0,0-1.128-.044.919.919,0,0,1-.217.022,8.865,8.865,0,0,1-1.324-.024,5.288,5.288,0,0,0-1.46-.02,9.611,9.611,0,0,1-1.1,0c-.388.012-.774.06-1.162.078a7.335,7.335,0,0,1-1.249-.04c-.382-.048-.788.016-1.178-.012a4.617,4.617,0,0,0-.589-.049.655.655,0,0,0-.379.135.282.282,0,0,1-.145.013c-.343-.01-.686-.035-1.026-.073a3.283,3.283,0,0,0-1.238.029,2.254,2.254,0,0,1-.724.025c-.632-.055-1.269-.084-1.9-.124a4.258,4.258,0,0,1-.439-.032,5.205,5.205,0,0,0-1.394.005c-.12.019-.241.032-.362.039-.564,0-1.129-.009-1.694-.007a7.974,7.974,0,0,1-1.1.013,4.128,4.128,0,0,0-1.521.116,1.538,1.538,0,0,1-1.124-.086,1.073,1.073,0,0,0-.7-.061,4.578,4.578,0,0,1-1.027.03,7.3,7.3,0,0,0-1.892-.049,1.478,1.478,0,0,1-.29-.019c-.18-.008-.362-.014-.541-.021a2.61,2.61,0,0,0,.95,1.609c.253.206.1.681.11,1.033a3.01,3.01,0,0,0,.042,1.338,3.36,3.36,0,0,1,.163,2.92,1.983,1.983,0,0,0,.08,1.342,4.409,4.409,0,0,1,.177,2.4,7.148,7.148,0,0,0,.131,3.247A9.37,9.37,0,0,1,50.1,52.9c-.166.8-.232,1.614-.325,2.423-.289,2.52-1.029,5.027-.5,7.572.421,2.043,1.329,4.056.434,6.147a.573.573,0,0,0,.084.533c.8,1.058.27,2.147.1,3.2-.408,2.513-.99,5.008-1.362,7.521-.114.775.428,1.6.3,2.374-.145.872-.849,1.693-1.029,2.566a5.709,5.709,0,0,0,.234,2.156c.239,1.25.547,2.493.8,3.743A10.2,10.2,0,0,0,49.18,93.3c1.588,3.692.656,7.359-.218,11a10,10,0,0,0-.477,4.036c.482,2.786-.087,5.583.217,8.37a.689.689,0,0,1-.152.519c-1.38,1.511-.634,3.177-.667,4.78a7.957,7.957,0,0,0,1.4,4.728,4.983,4.983,0,0,1,.824,4.469,54.474,54.474,0,0,0-1.395,6.415,2.312,2.312,0,0,0-.029,1.563c.255.427,1.034.691,1.662,1.075-1.843,3.7-.626,7.407-.45,11.1,1.143,1.786.061,3.771.963,5.579-.754,1.869-.1,3.808-.456,5.669a23.518,23.518,0,0,0,.35,9.729,1.223,1.223,0,0,1-.085,1.042c-1.29,1.445-.91,3.029-.507,4.5A13.668,13.668,0,0,1,50.4,181.6a67.01,67.01,0,0,1-.217,9.491c-.081.6-.089,1.2-.177,1.789a7.953,7.953,0,0,0,1.9-.007,10.273,10.273,0,0,1,1.831,0c.71.043,1.423.05,2.134.022a4.433,4.433,0,0,1,1.024.062,3.022,3.022,0,0,0,1.013.012,5.172,5.172,0,0,1,1.395.006,5.6,5.6,0,0,0,1.242.058,20.706,20.706,0,0,1,2.707-.121c.29.015.583.061.876.078.35.035.7.055,1.056.058a2.224,2.224,0,0,0,.259-.021c.48-.078.924.068,1.388.012a2.019,2.019,0,0,1,.586.014,1.739,1.739,0,0,0,.8-.021c.309-.084.555.134.85.131a.937.937,0,0,0,.286-.047,3.847,3.847,0,0,1,1.441-.132q1.179.03,2.358-.028a7.63,7.63,0,0,1,1.684.105,2.21,2.21,0,0,0,.869,0,2.892,2.892,0,0,1,.8-.052c.95.09,1.9.109,2.86.14.129,0,.257,0,.385,0-.015.077-.034.153-.053.23a1.755,1.755,0,0,0,.282-.037,1.99,1.99,0,0,1,.362-.006,3.74,3.74,0,0,0,1.1-.031.678.678,0,0,1,.352.01,1.9,1.9,0,0,0,1,.1c.636.018,1.273,0,1.906-.04a.373.373,0,0,1,.145.007,6.8,6.8,0,0,0,1.543.043c.466,0,.933,0,1.4,0,.269,0,.538.042.806.04.542,0,1.086-.031,1.625-.04a3.635,3.635,0,0,1,.66.025,1.8,1.8,0,0,0,.724-.019,3.324,3.324,0,0,1,1.242-.032,5.017,5.017,0,0,0,1.681-.045,6.567,6.567,0,0,1,1.761-.066c.706.064,1.408.122,2.122.141.668.019,1.318-.082,1.98-.069.221,0,.442,0,.663.012.342.013.685.053,1.026.044q1.215,0,2.42.118a2.679,2.679,0,0,0,.652-.034,5.121,5.121,0,0,1,1.463-.048,1.87,1.87,0,0,0,.507.012,3.111,3.111,0,0,1,.579,0c.677.009,1.354-.014,2.027-.069a4.18,4.18,0,0,0,.956.061c.084-.008.168,0,.253,0a2.111,2.111,0,0,0,1.1.048,1.685,1.685,0,0,1,.584,0,1.555,1.555,0,0,0,.565-.007,3.361,3.361,0,0,0,1.2.078,3.8,3.8,0,0,0,.724-.058,3.146,3.146,0,0,1,.575.053,1.393,1.393,0,0,0,.507-.029,5.419,5.419,0,0,1,1.752-.052,5.025,5.025,0,0,0,.661.023c.516,0,1.03.014,1.544.031.6.019,1.2-.115,1.809-.052a1.743,1.743,0,0,1,1.009.01,1.379,1.379,0,0,0,.79.015,2.752,2.752,0,0,1,.868.029c.316-.014.631-.043.941-.086a.925.925,0,0,1,.145.022q.329.03.659.032a14.259,14.259,0,0,0,1.906-.046,1.806,1.806,0,0,1,.514.008,7.783,7.783,0,0,0,2.341-.052.977.977,0,0,1,.362-.016,6.007,6.007,0,0,0,1.3.112c.5,0,.992.008,1.486-.008a.812.812,0,0,0,.156.02c.256-.028.507-.064.765-.1.077-.011.153-.006.23-.019a3.223,3.223,0,0,1,.434.021,7.607,7.607,0,0,0,2.039,0,.455.455,0,0,1,.217,0,9.4,9.4,0,0,0,1.837.042,2.916,2.916,0,0,1,.724.056,3.352,3.352,0,0,0,1.665.03,1.151,1.151,0,0,1,.434-.019,2.646,2.646,0,0,0,.367.031c.18.027.362.048.539.085a2.287,2.287,0,0,0,1.359-.086c.031-.012.068-.01.1-.021a3.925,3.925,0,0,1,.434.009q.348.032.7.032a1.526,1.526,0,0,0,.606.013.335.335,0,0,0,.044-.007l.565-.008c.27,0,.54.011.809.023s.537.041.805.041c.419,0,.838-.024,1.256-.028a17.419,17.419,0,0,1,2.871.015.586.586,0,0,0,.145,0q1.134-.076,2.274-.042a5.165,5.165,0,0,0,1.231-.091.574.574,0,0,1,.422.028,1.016,1.016,0,0,0,.776.043.807.807,0,0,1,.571-.023,1.494,1.494,0,0,0,1.127.045.874.874,0,0,1,.217-.022,8.731,8.731,0,0,1,1.324.025,5.327,5.327,0,0,0,1.46.018,10.091,10.091,0,0,1,1.1,0c.388-.012.774-.06,1.158-.077a7.231,7.231,0,0,1,1.249.04c.383.048.789-.016,1.178.012a4.633,4.633,0,0,0,.59.049.662.662,0,0,0,.379-.135.269.269,0,0,1,.144-.013q.516.015,1.026.073a3.288,3.288,0,0,0,1.239-.029,2.226,2.226,0,0,1,.724-.025c.632.055,1.268.084,1.9.123a4.014,4.014,0,0,1,.44.033,5.164,5.164,0,0,0,1.394-.006c.119-.018.24-.031.362-.039.564,0,1.129.01,1.693.008a7.99,7.99,0,0,1,1.1-.014,4.107,4.107,0,0,0,1.517-.115,1.533,1.533,0,0,1,1.124.086,1.073,1.073,0,0,0,.7.061,4.519,4.519,0,0,1,1.027-.03,7.3,7.3,0,0,0,1.892.049,1.4,1.4,0,0,1,.29.018c.18.009.362.015.541.022a2.61,2.61,0,0,0-.95-1.609c-.253-.207-.1-.681-.11-1.033a3.02,3.02,0,0,0-.042-1.337,3.362,3.362,0,0,1-.163-2.921,1.986,1.986,0,0,0-.08-1.343,4.376,4.376,0,0,1-.176-2.4,7.176,7.176,0,0,0-.131-3.247,9.36,9.36,0,0,1-.253-4.812c.165-.8.232-1.614.325-2.423.289-2.52,1.028-5.027.5-7.573-.421-2.042-1.329-4.056-.434-6.146a.573.573,0,0,0-.084-.533c-.8-1.059-.27-2.147-.1-3.2.406-2.514.989-5.008,1.361-7.522.114-.775-.428-1.6-.3-2.373.145-.873.849-1.693,1.029-2.566a5.709,5.709,0,0,0-.234-2.156C185.488,139.272,185.18,138.029,184.935,136.779Z"/><path class="cls-2" d="M23.834,26.5a1.239,1.239,0,0,0,.8-.182c.039-.03.044-.117.064-.18-.052-.019-.117-.073-.156-.053C24.323,26.2,24.109,26.336,23.834,26.5Z"/><path class="cls-1" d="M115.338,26.607a1.477,1.477,0,0,0,.882-.188c.043-.03.049-.117.072-.18-.059-.019-.13-.072-.171-.052C115.878,26.306,115.642,26.442,115.338,26.607Z"/><path class="cls-1" d="M291.518,16.046c-.541-3.713.058-7.377-.082-11.059-.234.009-.465.012-.695.033a10.329,10.329,0,0,0-1.149.155,2.546,2.546,0,0,1-1.358-.034c-1.816.156-3.631.319-5.442.513a18.9,18.9,0,0,1-7.2-.484c-.416-.118-.833-.228-1.247-.306a6.344,6.344,0,0,0-.73.023c-.377.04-.762.037-1.141.043a3.194,3.194,0,0,0-1.113.657,3.223,3.223,0,0,1-2.3.4,7.477,7.477,0,0,0-4.42.216c-.2.093-.512.2-.666.117-1.864-1-3.829-.1-5.74-.3-1.942-.2-3.909-.175-5.864-.247-.347-.013-.762-.132-1.029.008-1.96,1.029-3.807.343-5.671-.263a7.551,7.551,0,0,0-1.03-.22,1.034,1.034,0,0,1-.717-.08c-.059-.032-.118-.021-.176-.045-.332-.024-.664-.043-1-.039a1.858,1.858,0,0,0-.32.083,2.411,2.411,0,0,1-1.79.144c-.122-.032-.246-.053-.371-.075-.267.024-.534.05-.8.071-1.724.136-3.456.481-5.056-.543a5.007,5.007,0,0,0-.9.123,2.466,2.466,0,0,1-1.054.033c-.469-.083-.943-.118-1.417-.163-.176,0-.352,0-.532.007-.691.117-1.38.242-2.073.337a1.14,1.14,0,0,1-.562-.088,3.289,3.289,0,0,0-1.051-.163,15.672,15.672,0,0,0-2.363.306c-1.658.36-3.427.71-5.069-.283a2.222,2.222,0,0,0-.343-.149c-.351.029-.709.051-1.063.05-2.553.828-5.219-.165-7.777.384a15.311,15.311,0,0,1-7.584-.028,4.119,4.119,0,0,1-.618.048c-.574-.014-1.172.166-1.709-.182a.331.331,0,0,0-.185-.04c-.67.045-1.339,0-2.01-.011-.195,0-.391.008-.585.026a10.346,10.346,0,0,0-1.15.155,2.386,2.386,0,0,1-1.523-.069,2.037,2.037,0,0,0-1.428-.059,2.539,2.539,0,0,1-1.247.094.822.822,0,0,0-.382-.006,5.589,5.589,0,0,1-2.415-.027,1.871,1.871,0,0,1-.523.018,2.16,2.16,0,0,1-.41-.118c-.137-.01-.273-.021-.41-.018a16.951,16.951,0,0,0-2.416.074,3.043,3.043,0,0,1-1.447-.07.484.484,0,0,0-.192-.027c-1.2.1-2.388-.2-3.592-.075-.611.065-1.23.052-1.848.07a2.763,2.763,0,0,1-.68,0,9.393,9.393,0,0,0-2.327-.074c-.351.006-.7.026-1.054.024a17.927,17.927,0,0,1-2.682-.081l-1.414.046c-.106.008-.214.013-.32.025a2.922,2.922,0,0,1-1.792-.1,3.923,3.923,0,0,1-.5-.011c-.1,0-.2.01-.3.009-.3,0-.6.022-.9.04a7.691,7.691,0,0,1-2.05.059h-.012c-.039.016-.081.03-.117.047A1.13,1.13,0,0,1,163.368,5a1.332,1.332,0,0,0-.938-.056,2.653,2.653,0,0,1-.765-.035,1.943,1.943,0,0,0-.574-.041,1.231,1.231,0,0,1-1.107-.1.234.234,0,0,0-.188-.02,3.776,3.776,0,0,1-1.649.02,3.092,3.092,0,0,0-.712.365,5.2,5.2,0,0,1-3.64.761c-1.772-.148-3.542-.318-5.313-.477a2.653,2.653,0,0,1-1.079-.054c-.08-.021-.163-.032-.244-.049-1-.083-2-.176-3-.231a19.466,19.466,0,0,0-3.641.518l-.946-.639a2.424,2.424,0,0,1-.341.01c-.539-.095-1.088-.133-1.634-.188a1.129,1.129,0,0,0-.29.029c-.7.117-1.4.244-2.1.341a1.136,1.136,0,0,1-.561-.089,2.448,2.448,0,0,0-.831-.146c-.26-.015-.519-.014-.78-.046-.976-.067-1.95-.058-2.929-.063a7,7,0,0,0-1.334.046,2.15,2.15,0,0,1-1.609-.14.6.6,0,0,0-.373-.025,12.057,12.057,0,0,1-3.482.053,14.041,14.041,0,0,1-2.028-.132c-.648.217-1.356-.059-2,.219a10.58,10.58,0,0,1-3.97-.149c-.139.154-.235.347-.389.41a1.174,1.174,0,0,1-.559-.013c-.766-.112-1.542-.191-2.292-.368a2.445,2.445,0,0,0-1.6.189,3.8,3.8,0,0,1-1.7.332c-.572-.014-1.171.166-1.708-.182a.333.333,0,0,0-.185-.04c-1,.066-2-.084-3,.025a5.039,5.039,0,0,1-1.443-.131,16.574,16.574,0,0,0-2.092-.279c-.094.043-.186.087-.277.133a4.24,4.24,0,0,1-1.553.489c-.385.036-.762.129-1.143.2l-.026-.022a1.432,1.432,0,0,0-.314-.322c-.058-.032-.12-.059-.181-.086-.154.022-.309.044-.464.063a2.9,2.9,0,0,1-.772.052c-.312-.048-.6-.226-.916-.265-.275-.034-.573.1-.85.067-.9-.1-1.79-.254-2.688-.364a1.847,1.847,0,0,0-1.146.014.286.286,0,0,1-.191.019,5,5,0,0,0-2.2.086,12.167,12.167,0,0,1-2.709-.15c-.289-.026-.579-.045-.866-.089a4.8,4.8,0,0,0-1.723.046,3.683,3.683,0,0,1-1.162.022,2.224,2.224,0,0,0-.86.036,1.012,1.012,0,0,1-.48.014,1.685,1.685,0,0,0-1.046.031,1.539,1.539,0,0,1-.479.006c-.125,0-.292-.039-.369.023a1.853,1.853,0,0,1-1.105.276,2.914,2.914,0,0,1-1.792-.1,10.967,10.967,0,0,1-2.018-.247c-.434-.058-.887.04-1.342-.008-.733-.08-1.475-.09-2.214-.113a2.425,2.425,0,0,0-.674.067,4.677,4.677,0,0,1-2.212.08,1.781,1.781,0,0,0-.386-.04C65,4.553,63.8,4.56,62.6,4.511c-1.259-.053-2.518-.085-3.769-.235a2.438,2.438,0,0,0-.391.034c-1.862.262-3.713.618-5.56.974a13.728,13.728,0,0,1-9.143-.951c-.4,0-.812-.05-1.215-.079-.386-.027-.768-.1-1.154-.129a21.517,21.517,0,0,0-3.569.2,4.469,4.469,0,0,1-.491.006,31.365,31.365,0,0,0-5.552,1.918c-.6-.337-1.311-.677-1.952-1.112A14.224,14.224,0,0,0,27.87,4.006a9.676,9.676,0,0,0-1.464.059,8.092,8.092,0,0,1-2.617,0,4.147,4.147,0,0,0-1.15.07c-.192.019-.4.134-.567.094a2.166,2.166,0,0,0-1.582.217.58.58,0,0,1-.632-.128.72.72,0,0,0-.644-.094c-.379.072-.766.107-1.146.176-.509.088-1.014.2-1.523.285a1.081,1.081,0,0,1-.559.014,3.677,3.677,0,0,0-2.284-.05,2.068,2.068,0,0,1-1.6-.1.819.819,0,0,0-.749-.032,2.029,2.029,0,0,1-1.514-.058,1.2,1.2,0,0,0-.655-.081,2.352,2.352,0,0,1-.861.015,2.5,2.5,0,0,0-1.482.365,4.261,4.261,0,0,1-1.553.49c-.137.012-.272.046-.41.069-.109,3.239,0,6.481-.257,9.72-.358,4.569-1.414,8.552.341,12.752l.8-.036,0,.011c.027.134.038.273.051.376a2.674,2.674,0,0,0,1.489.006,2.654,2.654,0,0,1,1.271-.129c.162.054.327.1.486.161a.858.858,0,0,0,.807-.021.767.767,0,0,1,.352-.105,5.468,5.468,0,0,1,.689.028.951.951,0,0,1,.355.084.959.959,0,0,0,.674.1,1.045,1.045,0,0,1,.586.04.659.659,0,0,0,.543.006.524.524,0,0,1,.451-.007c.131.046.272.063.4.111a.736.736,0,0,0,.787-.142.527.527,0,0,1,.745-.024.478.478,0,0,1,.06.067.423.423,0,0,0,.129.065,1.93,1.93,0,0,0,.7-.417.612.612,0,0,1,.635-.232.616.616,0,0,0,.327-.053,14.044,14.044,0,0,0,2.32-.043,1.153,1.153,0,0,0,.255.029,1.4,1.4,0,0,1,.751.216.465.465,0,0,0,.527.072.487.487,0,0,1,.608-.01.193.193,0,0,0,.135.02c.518-.065,1.039-.015,1.577-.052.048.14.1.287.153.448a3.987,3.987,0,0,0,.605.085c.37-.007.739-.046,1.108-.076.018,0,.033-.043.044-.059l-.088-.156c.127-.122.234-.11.314,0a.607.607,0,0,0,.41.221,1.218,1.218,0,0,0,.775-.035.359.359,0,0,1,.358-.017,2.138,2.138,0,0,0,.937.261,4,4,0,0,0,.921-.028c.07,0,.136-.076.207-.11.254-.123.509-.25.768-.363.066-.03.156-.03.154.145-.138.053-.283.105-.426.166a1.679,1.679,0,0,0-.335.171c-.053.038-.076.135-.137.253.414.117.769.3,1.15.027a.388.388,0,0,1,.438.032.7.7,0,0,0,.79.02.523.523,0,0,1,.448-.067,1.686,1.686,0,0,0,1-.068.7.7,0,0,1,.673.025.216.216,0,0,0,.175.042,4.53,4.53,0,0,1,1.147-.138.5.5,0,0,0,.38-.176c.16-.224.417-.225.6-.406a.223.223,0,0,1,.22-.026.759.759,0,0,0,.628-.08c.13-.055.256-.126.383-.19.207-.106.389-.092.486.11.255.02.469.045.679.048a1.35,1.35,0,0,0,.456-.042,1.354,1.354,0,0,1,.637-.077.276.276,0,0,0,.214-.045.27.27,0,0,1,.381-.037.267.267,0,0,1,.038.037.178.178,0,0,0,.173.031.668.668,0,0,1,.41,0,3.569,3.569,0,0,0,1.458-.078,1.791,1.791,0,0,1,1.133-.093,1.722,1.722,0,0,0,1.041.051c.039-.011.091.045.146.076L44.3,28.1c.189.039.339.078.491.1a.749.749,0,0,0,.7-.169.633.633,0,0,1,.487-.221,1.359,1.359,0,0,0,.361-.081,1.144,1.144,0,0,1,.684-.059,1.056,1.056,0,0,0,.726-.052.353.353,0,0,1,.358.01.39.39,0,0,1,.067.074l-.03.23L48.5,28c.144-.386.258-.417.815-.243-.014.1-.029.2-.047.331l.375.209c.355-.134.778-.1.973-.56a.448.448,0,0,1,.073,0c.214.043.429.274.645-.013.02-.027.088,0,.133,0a4.537,4.537,0,0,0,1.461-.054,1.048,1.048,0,0,1,.41.007c.09.018.182.03.274.039a8.993,8.993,0,0,1,1.383,0,1.806,1.806,0,0,1,.8.218,2.4,2.4,0,0,1,1.547-.163,1.089,1.089,0,0,0,.546.05,2.876,2.876,0,0,1,.912.013c.138,0,.276.046.41.037a4.7,4.7,0,0,0,1.1-.068.673.673,0,0,1,.367-.009,2.688,2.688,0,0,0,.921.021,4.16,4.16,0,0,1,.878-.04,6,6,0,0,0,1.153.009.961.961,0,0,1,.321.006,1.967,1.967,0,0,0,.783.023,2.113,2.113,0,0,1,.826.059,1.76,1.76,0,0,0,1.095-.028.416.416,0,0,1,.134-.036,4.821,4.821,0,0,1,.874.04,5.663,5.663,0,0,0,1.383,0,5.783,5.783,0,0,1,.967.009,9.1,9.1,0,0,0,1.191,0,5.335,5.335,0,0,1,1.011.02,12.149,12.149,0,0,0,1.428.021A5.856,5.856,0,0,1,74.825,28a.766.766,0,0,0,.271.059,8.342,8.342,0,0,0,1.837-.2,1.148,1.148,0,0,1,.456-.007,5.078,5.078,0,0,0,1.193.081,2.258,2.258,0,0,1,.964.066,4.971,4.971,0,0,0,1.137-.025c.014,0,.028-.013.043-.019a1.515,1.515,0,0,1,.866-.066,3.643,3.643,0,0,0,.87.09,4,4,0,0,0,1.145-.063.326.326,0,0,1,.139,0c.213.019.43.027.644.065a3.672,3.672,0,0,0,1.417,0,1.966,1.966,0,0,1,.46,0c.184.007.368.027.551.031a2.154,2.154,0,0,1,.461-.01,3.424,3.424,0,0,0,.921.028,3.349,3.349,0,0,1,.459.031,2.325,2.325,0,0,0,.729.077,1.987,1.987,0,0,1,.82,0,2.561,2.561,0,0,0,1.1-.027,2.026,2.026,0,0,1,.91.011,1.66,1.66,0,0,0,.867-.059A1.787,1.787,0,0,1,94,28a3.363,3.363,0,0,0,.413.032l.46.033.6.045c.015.1.025.189.036.264a3.21,3.21,0,0,0,1.64-.006,3.205,3.205,0,0,1,1.4-.138c.176.054.359.1.534.159a1.034,1.034,0,0,0,.889-.028.9.9,0,0,1,.388-.107,6.612,6.612,0,0,1,.758.023,1.089,1.089,0,0,1,.39.082,1.159,1.159,0,0,0,.742.1,1.236,1.236,0,0,1,.647.036.791.791,0,0,0,.6,0,.633.633,0,0,1,.5-.011c.146.046.3.061.445.109a.879.879,0,0,0,.867-.149.619.619,0,0,1,.877.029l.009.009a.461.461,0,0,0,.141.064,2.2,2.2,0,0,0,.768-.423.719.719,0,0,1,.7-.234.9.9,0,0,0,.395-.065c.058-.013.121-.031.181-.047.813.035,1.623.034,2.432.021h.186a1.636,1.636,0,0,1,.826.21.544.544,0,0,0,.581.069.58.58,0,0,1,.67-.014.223.223,0,0,0,.148.018c.57-.068,1.143-.021,1.735-.063.053.14.107.288.167.448a4.79,4.79,0,0,0,.665.08c.407-.009.814-.051,1.22-.083.019,0,.036-.044.048-.059l-.1-.156c.14-.122.259-.112.345,0a.687.687,0,0,0,.448.218,1.46,1.46,0,0,0,.853-.04A.435.435,0,0,1,119,28.4a2.505,2.505,0,0,0,1.03.256,4.913,4.913,0,0,0,1.014-.035c.077-.006.15-.077.227-.111.281-.126.563-.255.848-.37.072-.029.171-.031.168.144-.151.055-.312.108-.469.17a2.023,2.023,0,0,0-.37.176c-.058.039-.084.136-.152.255.456.112.845.293,1.266.018a.457.457,0,0,1,.481.03.831.831,0,0,0,.869.013.626.626,0,0,1,.494-.07,2.044,2.044,0,0,0,1.1-.074.837.837,0,0,1,.74.019.255.255,0,0,0,.191.041,5.54,5.54,0,0,1,1.264-.146.574.574,0,0,0,.418-.176c.176-.225.461-.228.657-.41a.272.272,0,0,1,.243-.027.913.913,0,0,0,.692-.085c.143-.055.281-.127.422-.193.228-.106.429-.095.534.107.28.018.513.041.747.044a1.593,1.593,0,0,0,.5-.047,1.646,1.646,0,0,1,.7-.08.332.332,0,0,0,.234-.047.318.318,0,0,1,.449-.015l.012.012a.219.219,0,0,0,.191.03.787.787,0,0,1,.451,0,4.355,4.355,0,0,0,1.6-.089,2.16,2.16,0,0,1,1.247-.1,2.069,2.069,0,0,0,1.146.044c.044-.011.1.045.161.075l-.253.309c.207.037.372.075.539.1a.89.89,0,0,0,.777-.176.739.739,0,0,1,.537-.224,1.6,1.6,0,0,0,.4-.084,1.39,1.39,0,0,1,.753-.059,1.283,1.283,0,0,0,.8-.058.42.42,0,0,1,.394.007.389.389,0,0,1,.072.074c-.009.062-.019.131-.034.229l.392.063c.161-.387.287-.42.9-.25-.016.1-.033.2-.054.332l.41.207c.391-.137.856-.1,1.074-.567a.529.529,0,0,1,.08-.006c.234.041.468.271.706-.017.023-.027.1,0,.147,0a5.489,5.489,0,0,0,1.608-.064,1.283,1.283,0,0,1,.454,0c.1.006.2.041.3.037a10.9,10.9,0,0,1,1.523,0,2.124,2.124,0,0,1,.878.212,2.89,2.89,0,0,1,1.7-.175,1.33,1.33,0,0,0,.6.046,3.447,3.447,0,0,1,1,.006c.151,0,.3.045.453.034a5.635,5.635,0,0,0,1.21-.076.8.8,0,0,1,.4-.01,3.277,3.277,0,0,0,1.013.014,5.014,5.014,0,0,1,.964-.047,3.462,3.462,0,0,0,.477.021.026.026,0,0,1,.02.006,12.044,12.044,0,0,0,7.524-.014c.09,0,.18,0,.271.011a10.819,10.819,0,0,0,1.311,0,6.566,6.566,0,0,1,1.113.013,14.445,14.445,0,0,0,1.571.011,6.9,6.9,0,0,1,1.3.1.922.922,0,0,0,.3.058c.44-.044.884-.039,1.325-.083.008.008.016.013.023.021,1.142,1.224,2.588,1.214,4.109,1.075,3.846-.351,7.7-.654,11.544-1.011a3.192,3.192,0,0,0,.762-.052c.025-.005.052,0,.077-.01a2.464,2.464,0,0,1,1,0,2.017,2.017,0,0,0,.954-.066,2.148,2.148,0,0,1,1.007-.074,4.306,4.306,0,0,0,.454.029l.5.029c.405.023.809.059,1.214.065a4.346,4.346,0,0,0,.456-.019c.005.016.011.032.015.048.027.134.038.274.051.377a2.665,2.665,0,0,0,1.489.005,2.666,2.666,0,0,1,1.271-.129c.162.055.327.1.486.162a.863.863,0,0,0,.808-.022.747.747,0,0,1,.351-.1,5.467,5.467,0,0,1,.689.027.943.943,0,0,1,.355.085.968.968,0,0,0,.675.1,1.037,1.037,0,0,1,.586.041.661.661,0,0,0,.542.006.528.528,0,0,1,.451-.008c.132.047.272.064.405.112a.736.736,0,0,0,.786-.143.527.527,0,0,1,.745-.024.647.647,0,0,1,.061.067.445.445,0,0,0,.128.066,1.946,1.946,0,0,0,.7-.418.613.613,0,0,1,.635-.231c.106.035.239-.035.358-.063a4.093,4.093,0,0,1,.586-.14c.337-.026.676-.01,1.014-.019a.938.938,0,0,1,.629.109c.083.059.209.037.315.045a1.394,1.394,0,0,1,.751.216.461.461,0,0,0,.527.072.49.49,0,0,1,.609-.009.192.192,0,0,0,.135.019c.518-.065,1.038-.015,1.576-.052l.154.449a3.846,3.846,0,0,0,.6.084c.37-.006.739-.046,1.108-.076.017,0,.033-.042.044-.058-.031-.054-.058-.106-.088-.157.127-.121.234-.11.313,0a.614.614,0,0,0,.41.222,1.227,1.227,0,0,0,.776-.035c.12-.048.242-.1.358-.018a2.121,2.121,0,0,0,.937.261,4,4,0,0,0,.921-.028c.07,0,.136-.075.206-.109.256-.124.51-.251.769-.364.066-.029.156-.03.154.145-.138.054-.283.105-.426.167a1.675,1.675,0,0,0-.335.17c-.053.038-.076.135-.137.254.414.117.769.3,1.15.026a.388.388,0,0,1,.458.028.7.7,0,0,0,.79.02.52.52,0,0,1,.448-.067,1.685,1.685,0,0,0,1-.068.7.7,0,0,1,.673.025.216.216,0,0,0,.175.042,4.53,4.53,0,0,1,1.147-.138.5.5,0,0,0,.38-.176c.16-.225.417-.225.595-.406a.228.228,0,0,1,.221-.027.754.754,0,0,0,.628-.079c.13-.055.256-.126.383-.191.207-.105.389-.092.485.111.255.019.469.045.68.048a1.318,1.318,0,0,0,.455-.043,1.358,1.358,0,0,1,.638-.076.276.276,0,0,0,.214-.045.269.269,0,0,1,.38-.038.228.228,0,0,1,.038.038.181.181,0,0,0,.176.031.668.668,0,0,1,.41,0,3.59,3.59,0,0,0,1.459-.078,1.8,1.8,0,0,1,1.132-.094,1.711,1.711,0,0,0,1.042.051c.039-.01.091.046.146.077l-.229.307c.19.039.34.077.492.1a.749.749,0,0,0,.7-.169.633.633,0,0,1,.487-.221,1.352,1.352,0,0,0,.361-.082,1.147,1.147,0,0,1,.685-.058,1.063,1.063,0,0,0,.726-.052.351.351,0,0,1,.358.01.421.421,0,0,1,.066.074l-.03.23.357.065c.144-.386.258-.417.816-.243-.015.1-.029.2-.048.33l.375.21c.355-.134.779-.095.974-.56a.349.349,0,0,1,.072,0c.176.035.357.183.534.074a6.607,6.607,0,0,0,4-.058,1.4,1.4,0,0,1,.568.183,2.4,2.4,0,0,1,1.547-.163,1.075,1.075,0,0,0,.545.049.87.87,0,0,1,.274-.017,11.219,11.219,0,0,0,4.781,0c.229,0,.457-.009.686-.017a1,1,0,0,1,.323,0,1.943,1.943,0,0,0,.782.024,2.093,2.093,0,0,1,.826.058,1.76,1.76,0,0,0,1.1-.027.411.411,0,0,1,.134-.037,4.913,4.913,0,0,1,.874.04,5.606,5.606,0,0,0,1.382,0,5.782,5.782,0,0,1,.967.009,8.946,8.946,0,0,0,1.192,0,5.42,5.42,0,0,1,1.011.02,11.731,11.731,0,0,0,1.428.021,5.8,5.8,0,0,1,1.182.109.744.744,0,0,0,.271.058c.488-.051.982-.025,1.469-.112a13.961,13.961,0,0,0,5.163-.033,2.97,2.97,0,0,0,.734.067,4,4,0,0,0,1.145-.063.326.326,0,0,1,.139,0c.214.02.43.027.644.066a3.712,3.712,0,0,0,1.417,0,1.975,1.975,0,0,1,.461,0c.184.007.367.027.551.03a2.082,2.082,0,0,1,.46-.009,3.473,3.473,0,0,0,.922.028,3.538,3.538,0,0,1,.459.03,2.3,2.3,0,0,0,.729.078,1.987,1.987,0,0,1,.82,0,2.561,2.561,0,0,0,1.1-.028,2.036,2.036,0,0,1,.909.011,1.663,1.663,0,0,0,.868-.058,1.775,1.775,0,0,1,.914-.068,3.571,3.571,0,0,0,.413.032l.459.033c.368.026.735.062,1.1.072a4.334,4.334,0,0,0,.692-.046,4.487,4.487,0,0,0,.733-.021,1.876,1.876,0,0,1,.684.038c.137.014.273.048.41.062a.47.47,0,0,0,.413-.143h0c.293.23.931.124,1.268.108.259-.012.518-.025.777-.029a14.606,14.606,0,0,0,2.119.768C294.459,24.494,292.2,20.718,291.518,16.046ZM24.635,27.841a1.239,1.239,0,0,1-.8.182c.275-.164.489-.3.709-.415.039-.02.1.034.156.053C24.679,27.723,24.674,27.81,24.635,27.841Zm91.585.1a1.477,1.477,0,0,1-.882.188c.3-.165.54-.3.783-.42.041-.02.113.033.171.052C116.269,27.824,116.263,27.912,116.22,27.942Zm97.849-.1a1.243,1.243,0,0,1-.8.182c.276-.164.49-.3.71-.415.038-.02.1.034.156.053C214.113,27.723,214.107,27.81,214.069,27.841Z"/><path class="cls-3" d="M19.289,18a1.023,1.023,0,0,0-.052.238.4.4,0,0,1-.031.135.4.4,0,0,0-.037.16.178.178,0,0,1-.043.117.8.8,0,0,0-.176.337.211.211,0,0,1-.05.09.847.847,0,0,0-.085.142c-.021.038-.038.079-.059.117a.069.069,0,0,1-.02.028.509.509,0,0,0-.124.156.423.423,0,0,1-.034.04.566.566,0,0,1-.069.078c-.076.059-.131.139-.2.2-.009.006-.018.014-.027.021a.721.721,0,0,1-.325.211,1.821,1.821,0,0,0-.3.105.044.044,0,0,1-.025.008.4.4,0,0,0-.231.062c-.05.022-.1.054-.147.075a.506.506,0,0,0-.127.075c-.056.042-.113.084-.171.122a.3.3,0,0,1-.079.037.387.387,0,0,0-.185.139.235.235,0,0,1-.1.077.717.717,0,0,0-.134.064.163.163,0,0,1-.149.027.039.039,0,0,0-.026,0,2.239,2.239,0,0,0-.229.054.236.236,0,0,1-.051.012l-.1.012a.065.065,0,0,1-.034,0c-.051-.028-.109-.014-.162-.027-.031-.008-.063-.012-.094-.019a.056.056,0,0,1-.029-.016.267.267,0,0,0-.244-.106h-.061a1.625,1.625,0,0,1-.209-.02.425.425,0,0,1-.175-.07.272.272,0,0,0-.265-.04l-.074.028a.14.14,0,0,1-.127-.01.63.63,0,0,0-.21-.08.063.063,0,0,1-.051-.03c-.037-.064-.108-.075-.167-.1a.184.184,0,0,0-.081,0,.083.083,0,0,0-.055-.068.073.073,0,0,1-.042-.054.155.155,0,0,0-.045-.072.788.788,0,0,0-.156-.165c-.042-.076-.129-.109-.175-.183a.075.075,0,0,0-.044-.025.073.073,0,0,1-.065-.072.243.243,0,0,0-.081-.15.844.844,0,0,1-.052-.07.659.659,0,0,0-.091-.092l-.008,0c-.04-.012-.05-.056-.081-.077a.506.506,0,0,1-.09-.053.276.276,0,0,1-.062-.142,1.387,1.387,0,0,0-.041-.169.576.576,0,0,1-.036-.1c0-.012-.009-.025,0-.034a.213.213,0,0,0-.014-.136.079.079,0,0,1,0-.043.144.144,0,0,0-.036-.145,2.105,2.105,0,0,1-.157-.24.147.147,0,0,1-.018-.064.826.826,0,0,0-.031-.2.427.427,0,0,1-.012-.112.183.183,0,0,0-.021-.1.084.084,0,0,1-.011-.041,2.693,2.693,0,0,0-.024-.285.451.451,0,0,1,0-.052c0-.018.006-.04,0-.052a.2.2,0,0,1-.013-.151.178.178,0,0,0-.01-.069.181.181,0,0,1,0-.1c.019-.064.033-.13.051-.194a.154.154,0,0,0,0-.095.759.759,0,0,1-.018-.26.1.1,0,0,1,.011-.042c.024-.053.049-.105.074-.157s.046-.1.1-.122a.062.062,0,0,0,.038-.045.557.557,0,0,0,.034-.145.279.279,0,0,1,.079-.187.57.57,0,0,0,.128-.194.214.214,0,0,1,.093-.112.366.366,0,0,0,.1-.1,1,1,0,0,1,.1-.15c.022-.022.024-.063.04-.107a.2.2,0,0,0,.085-.171l-.024-.02a.386.386,0,0,0,.13-.169.343.343,0,0,1,.064-.1c.043-.048.075-.1.117-.153.007-.008.011-.021.02-.028.026-.018.055-.033.08-.051a.533.533,0,0,1,.071-.063.144.144,0,0,0,.075-.073h.08a.181.181,0,0,0,.118-.028.187.187,0,0,1,.153-.019.232.232,0,0,0,.128,0,.39.39,0,0,1,.059,0,.092.092,0,0,0,.043-.008.352.352,0,0,1,.13-.048.068.068,0,0,0,.036-.022.119.119,0,0,1,.1-.045.271.271,0,0,0,.084-.02.594.594,0,0,1,.161-.035.787.787,0,0,0,.153-.033c.02,0,.04-.012.059-.017.087-.025.176-.048.261-.073a.168.168,0,0,1,.094-.009.146.146,0,0,0,.051,0,.251.251,0,0,1,.176.024c.024.014.058.01.082.025a.239.239,0,0,0,.168.018,1.38,1.38,0,0,0,.156-.018.158.158,0,0,1,.078,0,.206.206,0,0,0,.183-.029.041.041,0,0,1,.059,0,.04.04,0,0,1,.012.029.145.145,0,0,0,.1.122.644.644,0,0,1,.133.1.23.23,0,0,0,.136.052.162.162,0,0,1,.091.027.147.147,0,0,0,.1.027h.059a.155.155,0,0,1,.043,0,1.109,1.109,0,0,0,.112.048.242.242,0,0,1,.108.029.235.235,0,0,0,.123.041.3.3,0,0,1,.17.077.231.231,0,0,0,.137.069.29.29,0,0,1,.205.106.082.082,0,0,0,.068.031c.072,0,.117.048.167.085.009.007.011.026.013.033l.176.106a.111.111,0,0,1,.03.031.16.16,0,0,0,.1.084.028.028,0,0,1,.013.011c.023.059.076.067.127.077a.334.334,0,0,1,.082.171.078.078,0,0,0,.015.04.071.071,0,0,1,.009.066.152.152,0,0,0,.013.118.151.151,0,0,1,.013.076.25.25,0,0,0,.234.241l.062,0a.208.208,0,0,1,.04.132.341.341,0,0,0,.038.169.448.448,0,0,1,.032.108.851.851,0,0,1,.013.086.079.079,0,0,1,0,.043.573.573,0,0,0-.013.165.17.17,0,0,0,.036.117Z"/><path class="cls-3" d="M26.445,20.1a1.036,1.036,0,0,0-.182-.133.339.339,0,0,1-.1-.077.406.406,0,0,0-.123-.091.157.157,0,0,1-.085-.081.74.74,0,0,0-.222-.274.206.206,0,0,1-.058-.076.8.8,0,0,0-.089-.126c-.025-.031-.053-.058-.079-.092a.071.071,0,0,1-.016-.028.5.5,0,0,0-.086-.164.244.244,0,0,1-.021-.043.483.483,0,0,1-.042-.089c-.022-.086-.069-.163-.1-.248,0-.01,0-.021-.008-.031a.669.669,0,0,1-.059-.355,1.746,1.746,0,0,0,.025-.3.033.033,0,0,1,0-.024.363.363,0,0,0,.032-.22c0-.051-.009-.1-.007-.153a.53.53,0,0,0-.017-.137c-.015-.063-.028-.127-.04-.191a.268.268,0,0,1,0-.08.352.352,0,0,0-.049-.21.215.215,0,0,1-.027-.117.626.626,0,0,0,0-.137.154.154,0,0,1,.034-.138.051.051,0,0,0,.01-.021c.008-.073.037-.141.039-.215a.2.2,0,0,1,.009-.048c.009-.031.019-.062.029-.093a.062.062,0,0,1,.014-.028c.043-.033.051-.088.082-.128.019-.024.034-.049.053-.073a.048.048,0,0,1,.024-.018c.1-.013.141-.091.181-.168.009-.017.016-.035.025-.052a1.4,1.4,0,0,1,.094-.169.4.4,0,0,1,.126-.125.255.255,0,0,0,.134-.21.594.594,0,0,1,0-.073.127.127,0,0,1,.055-.1.571.571,0,0,0,.148-.15.059.059,0,0,1,.044-.032c.068-.007.105-.063.151-.1.016-.014.02-.043.032-.068a.078.078,0,0,0,.077-.022.07.07,0,0,1,.062-.016.144.144,0,0,0,.079-.012.7.7,0,0,0,.2-.07c.08-.008.141-.069.221-.08a.061.061,0,0,0,.037-.028.069.069,0,0,1,.086-.028.23.23,0,0,0,.159-.013.66.66,0,0,1,.077-.017.575.575,0,0,0,.113-.044l.006-.005c.025-.03.066-.022.1-.041a.553.553,0,0,1,.079-.058.252.252,0,0,1,.144,0,1.407,1.407,0,0,0,.16.028.444.444,0,0,1,.1.007c.01,0,.024,0,.031.007a.2.2,0,0,0,.121.04.062.062,0,0,1,.036.016.131.131,0,0,0,.137.023,2.327,2.327,0,0,1,.263-.044.147.147,0,0,1,.062.01.751.751,0,0,0,.179.047.377.377,0,0,1,.1.032.164.164,0,0,0,.094.02.086.086,0,0,1,.039.006c.082.035.168.059.252.086a.355.355,0,0,1,.044.021c.015.007.031.02.045.018a.191.191,0,0,1,.133.046.184.184,0,0,0,.062.017.178.178,0,0,1,.087.04c.048.04.1.076.146.117a.14.14,0,0,0,.082.034.671.671,0,0,1,.228.082.092.092,0,0,1,.031.024l.107.123a.181.181,0,0,1,.064.134.056.056,0,0,0,.024.049.517.517,0,0,0,.11.082.269.269,0,0,1,.13.138.531.531,0,0,0,.117.182.2.2,0,0,1,.059.121.316.316,0,0,0,.045.117.937.937,0,0,1,.09.141c.01.027.045.045.076.074a.184.184,0,0,0,.114.136l.026-.013a.362.362,0,0,0,.095.176.324.324,0,0,1,.064.092c.024.055.058.1.087.156,0,.009.014.017.016.027.006.029.007.059.014.087a.588.588,0,0,1,.027.084.133.133,0,0,0,.033.091l-.03.069a.164.164,0,0,0-.018.109.18.18,0,0,1-.042.137.227.227,0,0,0-.048.11.335.335,0,0,1-.019.053.086.086,0,0,0-.009.039.33.33,0,0,1-.008.129.062.062,0,0,0,0,.038.114.114,0,0,1,0,.1.263.263,0,0,0-.015.079.549.549,0,0,1-.031.15.863.863,0,0,0-.029.143c0,.018,0,.037-.007.058-.012.083-.025.166-.035.249a.159.159,0,0,1-.028.084.118.118,0,0,0-.019.043.236.236,0,0,1-.087.142c-.021.016-.031.046-.052.059a.217.217,0,0,0-.078.137,1.3,1.3,0,0,0-.044.138.142.142,0,0,1-.032.065.2.2,0,0,0-.044.167.04.04,0,0,1-.052.05.131.131,0,0,0-.14.036.631.631,0,0,1-.133.077.21.21,0,0,0-.1.1.151.151,0,0,1-.058.067.135.135,0,0,0-.059.074c-.007.017-.015.035-.023.052a.116.116,0,0,1-.018.037.85.85,0,0,0-.082.077c-.021.027-.032.063-.065.081a.211.211,0,0,0-.081.089.276.276,0,0,1-.129.117.221.221,0,0,0-.11.092.27.27,0,0,1-.167.134.073.073,0,0,0-.052.047c-.024.062-.084.08-.135.109-.009.006-.026,0-.033,0-.054.039-.1.074-.156.109a.085.085,0,0,1-.037.015.15.15,0,0,0-.108.049.019.019,0,0,1-.014.007c-.059,0-.085.04-.112.08a.3.3,0,0,1-.176,0,.09.09,0,0,0-.04,0,.068.068,0,0,1-.059-.018.142.142,0,0,0-.105-.032.146.146,0,0,1-.07-.018.235.235,0,0,0-.293.107l-.027.05a.191.191,0,0,1-.127-.014.32.32,0,0,0-.158-.031.367.367,0,0,1-.1-.014.7.7,0,0,1-.079-.02.114.114,0,0,1-.036-.015.526.526,0,0,0-.136-.073.151.151,0,0,0-.11-.012Z"/><path class="cls-3" d="M41.432,15.929a.962.962,0,0,0,.092.223.393.393,0,0,1,.05.128.411.411,0,0,0,.059.151.174.174,0,0,1,.032.121.807.807,0,0,0,.048.374.216.216,0,0,1,.01.1.887.887,0,0,0,.01.163c.005.044.014.086.02.129a.065.065,0,0,1,0,.034.544.544,0,0,0-.013.2.294.294,0,0,1-.005.051.6.6,0,0,1-.012.1c-.028.091-.029.187-.052.279a.2.2,0,0,0-.009.033.711.711,0,0,1-.147.352,1.91,1.91,0,0,0-.189.257.035.035,0,0,1-.016.02c-.079.037-.11.118-.152.181-.03.047-.049.1-.079.145a.526.526,0,0,0-.058.133c-.022.066-.046.131-.071.2a.281.281,0,0,1-.043.075.37.37,0,0,0-.073.217.229.229,0,0,1-.04.118.7.7,0,0,0-.073.127.158.158,0,0,1-.107.106.045.045,0,0,0-.021.015,1.659,1.659,0,0,0-.156.176.211.211,0,0,1-.035.038c-.025.023-.052.045-.079.068a.068.068,0,0,1-.028.018c-.058.006-.1.05-.147.07-.03.011-.058.025-.088.036a.045.045,0,0,1-.032,0,.263.263,0,0,0-.259.051c-.017.01-.033.023-.051.033a1.778,1.778,0,0,1-.181.1.431.431,0,0,1-.183.043.272.272,0,0,0-.24.117c-.015.021-.029.043-.043.065a.139.139,0,0,1-.109.063.63.63,0,0,0-.217.054.065.065,0,0,1-.059,0c-.066-.032-.13,0-.194.008-.023,0-.042.027-.068.045a.081.081,0,0,0-.082-.024.071.071,0,0,1-.065-.02.157.157,0,0,0-.078-.034.865.865,0,0,0-.219-.047c-.077-.038-.167-.016-.246-.05a.064.064,0,0,0-.049,0,.076.076,0,0,1-.095-.022.237.237,0,0,0-.15-.078.641.641,0,0,1-.081-.027.668.668,0,0,0-.126-.024h-.009c-.039.014-.072-.016-.109-.016a.505.505,0,0,1-.1.007.283.283,0,0,1-.131-.08,1.419,1.419,0,0,0-.129-.117.551.551,0,0,1-.084-.059c-.008-.008-.021-.015-.024-.024a.2.2,0,0,0-.087-.1.071.071,0,0,1-.024-.035.145.145,0,0,0-.111-.1A2,2,0,0,1,36.158,20a.15.15,0,0,1-.051-.043.883.883,0,0,0-.136-.144.365.365,0,0,1-.073-.084.187.187,0,0,0-.074-.071.076.076,0,0,1-.032-.027c-.057-.076-.118-.15-.181-.219a.3.3,0,0,1-.028-.044c-.01-.014-.017-.036-.031-.041-.054-.022-.071-.071-.1-.117a.172.172,0,0,0-.046-.051.174.174,0,0,1-.058-.085c-.022-.063-.048-.124-.069-.187a.142.142,0,0,0-.055-.075.737.737,0,0,1-.161-.2.1.1,0,0,1-.015-.04c-.01-.058-.018-.113-.028-.17a.19.19,0,0,1,.017-.158.06.06,0,0,0,.005-.059.536.536,0,0,0-.054-.136.277.277,0,0,1-.04-.2.6.6,0,0,0-.006-.231.217.217,0,0,1,.013-.144.359.359,0,0,0,.026-.134,1.034,1.034,0,0,1,0-.176c.006-.03-.016-.066-.028-.11a.193.193,0,0,0-.027-.187l-.031,0a.383.383,0,0,0,.012-.212.307.307,0,0,1-.007-.117c.009-.064,0-.126.008-.189a.2.2,0,0,1,0-.035c.011-.029.027-.059.036-.087a.54.54,0,0,1,.023-.09.142.142,0,0,0,.02-.1l.066-.046a.175.175,0,0,0,.078-.089.183.183,0,0,1,.117-.1.243.243,0,0,0,.1-.074.349.349,0,0,1,.047-.037c.011-.009.026-.019.03-.03a.36.36,0,0,1,.079-.113.063.063,0,0,0,.017-.038.124.124,0,0,1,.055-.094.288.288,0,0,0,.059-.062.545.545,0,0,1,.112-.118.811.811,0,0,0,.106-.113c.013-.015.024-.032.037-.047.059-.069.117-.137.171-.207a.193.193,0,0,1,.072-.058.155.155,0,0,0,.043-.029.242.242,0,0,1,.158-.08c.028,0,.054-.025.081-.027a.23.23,0,0,0,.147-.08,1.424,1.424,0,0,0,.117-.1.157.157,0,0,1,.066-.041.206.206,0,0,0,.133-.126.042.042,0,0,1,.05-.033.039.039,0,0,1,.025.017.143.143,0,0,0,.148.045.6.6,0,0,1,.164.005.22.22,0,0,0,.139-.035.172.172,0,0,1,.09-.029.141.141,0,0,0,.1-.034l.051-.034a.109.109,0,0,1,.036-.022.977.977,0,0,0,.117-.025c.035-.013.065-.039.105-.037a.224.224,0,0,0,.123-.036.291.291,0,0,1,.183-.032.247.247,0,0,0,.151-.022.289.289,0,0,1,.226-.029A.076.076,0,0,0,38.665,14a.26.26,0,0,1,.183-.024c.012,0,.024.015.03.019l.2-.012a.126.126,0,0,1,.043.008.161.161,0,0,0,.125.016.017.017,0,0,1,.017,0A.14.14,0,0,0,39.411,14a.32.32,0,0,1,.164.094.07.07,0,0,0,.035.023.074.074,0,0,1,.044.05.152.152,0,0,0,.078.089.147.147,0,0,1,.053.055.248.248,0,0,0,.325.066l.054-.031a.2.2,0,0,1,.107.085.322.322,0,0,0,.126.117.458.458,0,0,1,.087.071c.021.02.04.041.059.063a.094.094,0,0,1,.025.034.559.559,0,0,0,.082.142.165.165,0,0,0,.093.073Z"/><path class="cls-1" d="M192.922,95c.117.274.195.547.286.82a4.927,4.927,0,0,0-.151.517c-.015.056-.042.12-.007.168s.141.075.226.116c-.26.4-.1.794-.084,1.19.154.192,0,.405.122.6-.106.2-.021.409-.073.608a1.985,1.985,0,0,0,.03,1.043c.01.037.018.085-.014.112a.39.39,0,0,0-.078.482,1.146,1.146,0,0,1,.026.4,5.677,5.677,0,0,1-.05,1.018.691.691,0,0,1-.093.342.207.207,0,0,0-.05.169c.053.209.124.419.188.628a.2.2,0,0,1,.015.087,3.558,3.558,0,0,1-.1.49.422.422,0,0,0,.018.314c.006.012,0,.025.01.036a.891.891,0,0,1,.033.6.674.674,0,0,0-.027.289,1.583,1.583,0,0,1-.144.925c-.044.093-.059.191-.105.285a.432.432,0,0,0,.079.536.288.288,0,0,1,.053.392.282.282,0,0,1-.053.056c-.1.092-.055.18-.029.279.055.209.2.411.122.628a.1.1,0,0,0,.015.086.839.839,0,0,1,.093.462,4.294,4.294,0,0,0,.05.641c.05.213-.134.424.013.634a.046.046,0,0,1-.011.057c-.141.1-.106.214-.053.332.025.052-.015.114-.023.172-.01.076-.05.157-.019.229a.237.237,0,0,1-.031.281c-.093.105-.056.206.032.307.044.053.091.114.074.165a.786.786,0,0,0-.034.246c0,.171.042.341.039.511a.751.751,0,0,1-.007.291,1.079,1.079,0,0,0-.04.523c.015.262.033.524.047.786a.423.423,0,0,1,0,.2,1.274,1.274,0,0,0-.045.61,1.54,1.54,0,0,1-.041.7.464.464,0,0,0,0,.2,3.937,3.937,0,0,0,.039.554c.07.361-.1.717-.042,1.077a.091.091,0,0,1-.014.058.517.517,0,0,0-.039.433,2.791,2.791,0,0,1,.041.724,1.357,1.357,0,0,1-.046.318c-.057.269-.184.536-.035.808a.144.144,0,0,1,0,.115.416.416,0,0,0,.03.333c.26-.026.518-.059.777-.086.2-.021.406-.032.606-.052a.6.6,0,0,1,.339.029.473.473,0,0,0,.334.04,1.86,1.86,0,0,1,.835-.068,1.794,1.794,0,0,0,.3-.029,3.622,3.622,0,0,1,.607-.022,7.251,7.251,0,0,0,1.382,0,9.354,9.354,0,0,1,1.275,0c.5.03.991.019,1.486.012a4.144,4.144,0,0,1,.713.032,2.835,2.835,0,0,0,.707.007,4.774,4.774,0,0,1,.971,0,5.2,5.2,0,0,0,.864.031l.2-.012c.561-.035,1.12-.073,1.686-.052.2.007.406.031.61.04.244.011.5.037.736.031a1.755,1.755,0,0,0,.179-.011c.335-.041.644.035.967.005a1.919,1.919,0,0,1,.408.008,1.58,1.58,0,0,0,.553-.011c.215-.043.386.07.592.069a.907.907,0,0,0,.2-.025,3.581,3.581,0,0,1,1-.069c.551.019,1.1,0,1.643-.015a7.179,7.179,0,0,1,1.172.055,1.986,1.986,0,0,0,.606,0,2.662,2.662,0,0,1,.557-.028c.662.047,1.325.057,1.991.073.634.016,1.265.014,1.9.01a1.745,1.745,0,0,1,.2.012,4.119,4.119,0,0,0,1.168-.024,2.109,2.109,0,0,1,.355-.021c.391.007.783.01,1.171.035.24.015.479-.016.708,0a9.742,9.742,0,0,0,1.066.077,2.557,2.557,0,0,0,.947.032,1.547,1.547,0,0,0,.583-.086.638.638,0,0,1,.195-.008,1.316,1.316,0,0,0,.251,0,1.454,1.454,0,0,1,.55-.009.9.9,0,0,0,.254,0,1.971,1.971,0,0,1,.454-.011,3.229,3.229,0,0,0,.614-.007,4.259,4.259,0,0,1,.91-.014c.15.013.3.019.458.027a10.669,10.669,0,0,0,1.43.047,4.441,4.441,0,0,1,1.163-.027.242.242,0,0,0,.1-.006,1.641,1.641,0,0,1,.605,0c.474.034.945.082,1.42.114.146.01.3-.032.451-.021.164.012.319.067.483.083a2.647,2.647,0,0,0,.408-.016c.237-.017.472-.04.708-.058.136-.01.28,0,.409-.025a7.58,7.58,0,0,1,2.079.029,4.512,4.512,0,0,0,.762.041c.527-.034,1.055.013,1.582-.008a.273.273,0,0,1,.1.013,2.628,2.628,0,0,0,.9.057,3.292,3.292,0,0,0,.9-.105,2.1,2.1,0,0,1,.846-.059c.4.055.806.08,1.21.115a1.087,1.087,0,0,0,.3,0,.673.673,0,0,0,.2-.128,9.378,9.378,0,0,0,2.1.047c.338-.087.712,0,1.055-.069.351.061.72.012,1.071.042a10.756,10.756,0,0,0,1.839-.017.544.544,0,0,1,.2.007,1.843,1.843,0,0,0,.851.044,6.636,6.636,0,0,1,.705-.014c.6,0,1.2-.009,1.794.027a3.373,3.373,0,0,1,.6.052.955.955,0,0,0,.3.028c.371-.03.739-.071,1.109-.105a1.308,1.308,0,0,1,.153-.009c.288.018.578.03.863.06a2.2,2.2,0,0,0,.556-.011,4.769,4.769,0,0,1,1.12-.024,3.789,3.789,0,0,0,.511.016,8.151,8.151,0,0,1,1.629.081c.164.025.338.034.5.059a2.073,2.073,0,0,0,.946-.045,1.324,1.324,0,0,1,.788,0,1.15,1.15,0,0,0,.492.017,5.408,5.408,0,0,1,1.108-.069.5.5,0,0,0,.15-.008,4.183,4.183,0,0,1,.814-.053c.377-.01.757,0,1.13-.027a7.573,7.573,0,0,0,1.117-.008.2.2,0,0,1,.1.007,1.05,1.05,0,0,0,.585.029,1.7,1.7,0,0,1,.3.014,2.492,2.492,0,0,0,.405.011,1.133,1.133,0,0,1,.5.017.971.971,0,0,0,.542-.019.867.867,0,0,1,.29-.041c.447.046.89-.006,1.334,0,.114,0,.23-.007.344-.006a1.053,1.053,0,0,1,.168.01,5.9,5.9,0,0,0,.921.022l1.388-.026a2.152,2.152,0,0,1,.359,0,6.771,6.771,0,0,0,1.075.025c.085,0,.17,0,.255,0a6.1,6.1,0,0,1,.974.028,2.39,2.39,0,0,0,.359,0l.306,0c.073-.019.147-.038.22-.06a2.066,2.066,0,0,1,.783-.114,2.153,2.153,0,0,0,.454-.005,1.033,1.033,0,0,1,.346.025,1.749,1.749,0,0,0,.8.018.72.72,0,0,1,.4.01,1.794,1.794,0,0,0,.843.03,3.245,3.245,0,0,1,1.207.016.935.935,0,0,0,.294,0c.269-.027.536-.061.805-.089.2-.021.4-.032.6-.053a.6.6,0,0,1,.34.03.47.47,0,0,0,.333.04,1.867,1.867,0,0,1,.585-.076.521.521,0,0,1,.483-.193c.029,0,.057.01.085.013.751.084,1.482.285,2.232.352,0-.146-.008-.292-.025-.437a23.3,23.3,0,0,1,.416-7.285,13.569,13.569,0,0,0,.15-3.509c-.175-3.066-.96-6.1-.5-9.2a1.391,1.391,0,0,0-.109-.793c-.662-1.277-.147-2.461.192-3.674a6.839,6.839,0,0,0,.442-2.075,42.787,42.787,0,0,1-.115-6.506c.125-1.239-.145-2.48.45-3.709a4.448,4.448,0,0,0,.1-2.134c-.22-2.621-.482-5.236-.745-7.855a8.586,8.586,0,0,1,.273-3.757,5.575,5.575,0,0,0,.2-2.135,57.085,57.085,0,0,1-.38-8.941c.113-1.3-.551-2.657-.587-4-.04-1.434.3-2.874.371-4.318a65.116,65.116,0,0,1,.516-8.105,8.09,8.09,0,0,0-.251-4.024c-.036-.11-.056-.217-.085-.325-.691.015-1.359-.093-2.027-.109a.609.609,0,0,1-.2-.046c0-.02.006-.039.011-.059a6.951,6.951,0,0,0-1.265-.05,8.684,8.684,0,0,1-1.521.029.417.417,0,0,0-.05,0,5.407,5.407,0,0,1-1.172-.052,1.861,1.861,0,0,0-.605.01,1.8,1.8,0,0,1-.5.013,2.9,2.9,0,0,0-.6.017c-.216.013-.439-.019-.66-.023a1.933,1.933,0,0,0-.251.031,1.116,1.116,0,0,1-.2.015c-.237-.014-.477-.026-.71-.052a2.064,2.064,0,0,0-.555.015,3.823,3.823,0,0,1-.938.022c-.059-.007-.118-.012-.177-.022a1.45,1.45,0,0,0-.6-.013,1.81,1.81,0,0,1-.4,0,2.335,2.335,0,0,0-.354-.02,10.748,10.748,0,0,1-1.121.02,2.511,2.511,0,0,0-.357.017,1.454,1.454,0,0,1-.55-.006,2.965,2.965,0,0,0-1.012,0,3.955,3.955,0,0,1-.768.042c-.084,0-.167-.009-.251-.017a2.811,2.811,0,0,0-.761.013,1.67,1.67,0,0,1-.3,0c-.137,0-.272-.017-.408-.018-.786-.009-1.571.082-2.358,0a1.341,1.341,0,0,0-.2.019,1.753,1.753,0,0,1-.251,0,3.5,3.5,0,0,0-.765.016.613.613,0,0,1-.245-.005,1.729,1.729,0,0,0-.7-.052c-.442.025-.887-.038-1.327.021a.336.336,0,0,1-.1-.005,6.307,6.307,0,0,0-1.073-.022q-.489,0-.975,0c-.188,0-.374-.022-.562-.02-.377,0-.754.016-1.131.021a3.535,3.535,0,0,1-.46-.014,1.676,1.676,0,0,0-.5.01,3.021,3.021,0,0,1-.865.017,4.731,4.731,0,0,0-1.171.023,5.982,5.982,0,0,1-1.226.035c-.491-.033-.98-.063-1.477-.074-.465-.01-.918.043-1.378.036-.154,0-.308,0-.463-.006-.238-.007-.476-.027-.714-.023-.566.008-1.124-.029-1.685-.061a2.418,2.418,0,0,0-.45.018,4.757,4.757,0,0,1-1.019.024,1.716,1.716,0,0,0-.351-.006,3.011,3.011,0,0,1-.4,0,13.646,13.646,0,0,0-1.739.057.8.8,0,0,1-.344-.019,2.018,2.018,0,0,0-.939-.057,1.541,1.541,0,0,1-.407,0,1.418,1.418,0,0,0-.4.005,1.229,1.229,0,0,1-.25.005c-.187-.005-.374-.019-.561-.018a6.028,6.028,0,0,1-.921-.025,1.284,1.284,0,0,0-.35.015,5.039,5.039,0,0,1-1.221.026c-.15-.015-.306-.011-.46-.012-.359,0-.717-.007-1.075-.016-.415-.01-.837.06-1.262.028a1.61,1.61,0,0,1-.7-.005,1.265,1.265,0,0,0-.551-.008,2.56,2.56,0,0,1-.606-.015c-.219,0-.437.03-.656.045-.032,0-.066-.011-.1-.012-.15-.007-.305-.02-.458-.017-.442.011-.886-.03-1.327.024a1.648,1.648,0,0,1-.358,0,7.158,7.158,0,0,0-1.629.028.917.917,0,0,1-.251.008,5.427,5.427,0,0,0-.9-.058,13.4,13.4,0,0,0-1.836.055c-.094.012-.2-.014-.3-.011a6.877,6.877,0,0,0-1.42,0,.472.472,0,0,1-.15,0,8.671,8.671,0,0,0-1.279-.022,2.667,2.667,0,0,1-.5-.03,3.089,3.089,0,0,0-1.158-.015,1.083,1.083,0,0,1-.3.01,5.379,5.379,0,0,0-.87-.02c-.36,0-.727.04-1.078.01-.448-.037-.888-.019-1.332-.015-.188,0-.376-.006-.564-.013s-.373-.021-.561-.021c-.291,0-.583.013-.874.015a16.064,16.064,0,0,1-2-.008.557.557,0,0,0-.1,0c-.526.047-1.056.014-1.583.022a4.794,4.794,0,0,0-.855.047.517.517,0,0,1-.294-.014.921.921,0,0,0-.54-.022.737.737,0,0,1-.4.011,1.372,1.372,0,0,0-.785-.023.836.836,0,0,1-.15.012,8.343,8.343,0,0,1-.922-.013,4.929,4.929,0,0,0-1.016-.01c-.246.028-.511-.006-.766,0-.27.006-.539.032-.809.041a7,7,0,0,1-.869-.021c-.267-.025-.551.008-.821-.007-.139-.007-.278-.032-.41-.025a.56.56,0,0,0-.264.07.24.24,0,0,1-.1.007c-.238-.011-.48-.012-.714-.038a3.044,3.044,0,0,0-.863.015,2.039,2.039,0,0,1-.506.013c-.44-.029-.883-.044-1.325-.065-.1,0-.207,0-.306-.016a3.146,3.146,0,0,0-.434-.021c-.179,0-.358.011-.536.023-.085.006-.168.021-.251.021-.393,0-.786,0-1.179,0a7.613,7.613,0,0,1-.769.007,3.781,3.781,0,0,0-1.056.06,1.384,1.384,0,0,1-.783-.045.978.978,0,0,0-.489-.031,4.266,4.266,0,0,1-.715.015,6.74,6.74,0,0,0-1.317-.025,1.334,1.334,0,0,1-.2-.01c-.205-.008-.409-.021-.613-.019-.429,0-.857.021-1.286.023-.221,0-.442-.02-.663-.022h-.033a.324.324,0,0,0,.012.062.214.214,0,0,1-.044.2.361.361,0,0,0-.033.454.153.153,0,0,1,0,.209l-.017.015c-.176.157-.112.314-.053.479a.637.637,0,0,1-.027.684c-.037.046-.01.113.007.168.05.152.109.3.157.456.037.114.057.23.1.343a.141.141,0,0,1-.043.189l-.007.005c-.085.056-.13.126-.07.189a.4.4,0,0,1,.119.474c-.022.052.041.112.05.17a.69.69,0,0,1,.039.344,1.349,1.349,0,0,0,0,.786,1.761,1.761,0,0,1,0,.723,3.5,3.5,0,0,0-.021.843.79.79,0,0,1-.057.405.526.526,0,0,0-.012.4.894.894,0,0,1,0,.551c-.006.016-.009.032-.014.048a.776.776,0,0,0-.009.1.916.916,0,0,0-.032.345,3.279,3.279,0,0,1,.067.369,4.385,4.385,0,0,1-.081.729,7.121,7.121,0,0,0-.068,2.17.165.165,0,0,0-.037.1.19.19,0,0,0,.043.113c.009.011.01.027.018.039.025.167.067.333.1.5,0,.01,0,.021,0,.031a5.276,5.276,0,0,0,.026.932,1.349,1.349,0,0,1-.1.665.389.389,0,0,0,0,.344.511.511,0,0,1,.05.315,7.913,7.913,0,0,0-.129,1.13c-.027.359-.023.718-.017,1.076a.3.3,0,0,1-.022.116.793.793,0,0,0,.044.663.414.414,0,0,1,.037.2,4.766,4.766,0,0,1-.062.664c-.027.136.027.272,0,.4a1.894,1.894,0,0,0-.136.6c-.171.174-.093.355-.056.537.023.115,0,.232.15.331.034.022.013.073.014.111s-.026.1,0,.143a.292.292,0,0,1,.016.315.173.173,0,0,0,.009.144c.006.013,0,.029,0,.044a24.251,24.251,0,0,0-.492,5.069l0,0,.006.02a8.874,8.874,0,0,0,.157,1.276c.029.144.065.288.1.431a.922.922,0,0,0-.038.225c.061.3-.022.6.014.9a.063.063,0,0,1-.022.056c-.191.161-.092.34-.1.512a.718.718,0,0,0,.183.508.441.441,0,0,1,.1.48,4.659,4.659,0,0,0-.2.687c-.015.056-.042.12-.007.167a.755.755,0,0,0,.225.117c-.259.395-.1.794-.083,1.19.153.192,0,.405.122.6-.107.2-.021.408-.073.608a1.985,1.985,0,0,0,.029,1.043c.01.037.018.085-.013.112a.388.388,0,0,0-.078.482,1.172,1.172,0,0,1,.026.4,5.873,5.873,0,0,1-.05,1.018.681.681,0,0,1-.094.342.208.208,0,0,0-.05.168c.053.21.125.419.188.629a.2.2,0,0,1,.016.087,3.865,3.865,0,0,1-.1.489.419.419,0,0,0,.018.315.887.887,0,0,1,.042.635.713.713,0,0,0-.027.29c0,.032,0,.065,0,.1-.06.307-.118.615-.178.922a1.57,1.57,0,0,1-.07.191.414.414,0,0,0-.029.332c-.217,1.123-.428,2.247-.595,3.375-.114.775.428,1.6.3,2.373-.145.873-.849,1.693-1.029,2.566a5.709,5.709,0,0,0,.234,2.156c.239,1.25.547,2.494.8,3.744A10.218,10.218,0,0,0,192.922,95Z"/><path class="cls-1" d="M290.512,185.826a3.856,3.856,0,0,0,.085-1.077,5.425,5.425,0,0,1,1.04-4.269c-.175-.533-.306-.962-.455-1.385a6.012,6.012,0,0,1-.235-3.969,5.629,5.629,0,0,0-.035-2.954,4.935,4.935,0,0,1-.217-1.836,25.832,25.832,0,0,0-.123-8.12c-.366-2.917.451-5.765.361-8.66,1.013-1.65.571-3.272-.022-4.93a8.413,8.413,0,0,1-.232-1.885,26.845,26.845,0,0,0-.9-5.339c-.394-1.241-.733-2.7.166-3.927a3.035,3.035,0,0,0,.25-3.309,5.073,5.073,0,0,1-.3-1.317,41.511,41.511,0,0,1-.293-6.641c-.773.052-1.543.161-2.32.173a.171.171,0,0,1-.05-.01.692.692,0,0,1-.089.165,8.287,8.287,0,0,0-1.23-.04,10.587,10.587,0,0,1-1.511.024h-.05a6.561,6.561,0,0,1-1.164-.043,2.2,2.2,0,0,0-.6.008,2.153,2.153,0,0,1-.5.011,3.449,3.449,0,0,0-.6.014c-.214.01-.436-.016-.656-.02a2.354,2.354,0,0,0-.25.026,1.482,1.482,0,0,1-.2.013c-.236-.012-.474-.022-.7-.045a2.477,2.477,0,0,0-.551.013,4.537,4.537,0,0,1-.932.017c-.059,0-.118-.009-.177-.018a1.754,1.754,0,0,0-.6-.01,2.066,2.066,0,0,1-.4,0,2.725,2.725,0,0,0-.35-.016c-.371.042-.742.007-1.113.016a2.985,2.985,0,0,0-.354.015,1.786,1.786,0,0,1-.551-.005,3.525,3.525,0,0,0-1,0,4.987,4.987,0,0,1-.763.035c-.083,0-.166-.008-.251-.015a3.474,3.474,0,0,0-.756.01,2.017,2.017,0,0,1-.3.005c-.135,0-.27-.014-.405-.016-.781-.007-1.561.067-2.342,0a1.512,1.512,0,0,0-.2.016c-.083,0-.167.006-.25,0a4.106,4.106,0,0,0-.76.013.762.762,0,0,1-.243,0,2.034,2.034,0,0,0-.695-.045c-.44.021-.882-.031-1.319.017a.419.419,0,0,1-.1,0,7.6,7.6,0,0,0-1.067-.019h-.969c-.185,0-.371-.018-.556-.017-.376,0-.752.013-1.125.017a3.857,3.857,0,0,1-.456-.011,2,2,0,0,0-.5.009,3.63,3.63,0,0,1-.859.013,5.583,5.583,0,0,0-1.163.02,7.181,7.181,0,0,1-1.218.028c-.489-.027-.974-.052-1.468-.061-.462-.007-.911.036-1.369.03-.153,0-.306,0-.459,0-.237-.006-.474-.022-.71-.019-.562.007-1.117-.024-1.674-.052a2.818,2.818,0,0,0-.45.015,5.622,5.622,0,0,1-1.013.02,2.058,2.058,0,0,0-.351-.005,3.353,3.353,0,0,1-.4,0,16.058,16.058,0,0,0-1.727.047.937.937,0,0,1-.342-.016,2.428,2.428,0,0,0-.934-.047,1.783,1.783,0,0,1-.4,0,1.681,1.681,0,0,0-.4,0,1.606,1.606,0,0,1-.25,0c-.186,0-.372-.016-.558-.016a6.97,6.97,0,0,1-.914-.02,1.527,1.527,0,0,0-.351.013,6,6,0,0,1-1.213.021c-.15-.012-.3-.009-.457-.01-.356,0-.712-.005-1.067-.013-.413-.008-.832.049-1.252.023a1.927,1.927,0,0,1-.7,0,1.518,1.518,0,0,0-.546-.007,3.1,3.1,0,0,1-.6-.012c-.217,0-.434.024-.651.037-.031,0-.066-.009-.1-.01-.15,0-.3-.016-.456-.013-.439.008-.88-.026-1.318.019a2.116,2.116,0,0,1-.356,0,8.5,8.5,0,0,0-1.619.023,1.1,1.1,0,0,1-.25.006,6.709,6.709,0,0,0-.9-.048,16.33,16.33,0,0,0-1.824.045c-.093.011-.2-.011-.3-.009a8.523,8.523,0,0,0-1.411,0,.472.472,0,0,1-.15,0,10.571,10.571,0,0,0-1.271-.018,3.228,3.228,0,0,1-.5-.024,3.679,3.679,0,0,0-1.152-.013,1.254,1.254,0,0,1-.3.008,6.391,6.391,0,0,0-.864-.015c-.358,0-.723.032-1.071.008-.446-.031-.883-.016-1.324-.014-.187,0-.373,0-.56-.009s-.371-.018-.557-.018c-.289,0-.579.011-.869.012a19.328,19.328,0,0,1-1.985-.006.557.557,0,0,0-.1,0c-.522.039-1.049.011-1.573.018a5.775,5.775,0,0,0-.852.039.623.623,0,0,1-.291-.012,1.1,1.1,0,0,0-.537-.018.893.893,0,0,1-.4.01,1.621,1.621,0,0,0-.78-.02,1.08,1.08,0,0,1-.15.01c-.306,0-.607.013-.916-.011a5.874,5.874,0,0,0-1.01-.008c-.244.023-.507-.005-.761,0s-.535.026-.8.033a8.032,8.032,0,0,1-.864-.017c-.265-.02-.545.007-.815,0-.139-.007-.276-.026-.408-.021a.662.662,0,0,0-.262.058.337.337,0,0,1-.1.006c-.237-.009-.477-.011-.71-.032a3.553,3.553,0,0,0-.856.013,2.5,2.5,0,0,1-.5.01c-.437-.023-.877-.036-1.316-.052-.1,0-.2,0-.292-.014h-.012a5.747,5.747,0,0,0-.964,0c-.084,0-.167.017-.25.017-.39,0-.781,0-1.172,0-.255,0-.518.028-.764.007a4.456,4.456,0,0,0-1.051.049,1.665,1.665,0,0,1-.778-.037,1.172,1.172,0,0,0-.486-.027,4.949,4.949,0,0,1-.71.014,7.948,7.948,0,0,0-1.309-.021,1.681,1.681,0,0,1-.2-.008c-.2-.007-.406-.017-.609-.015-.425,0-.851.016-1.277.018-.219,0-.439-.016-.659-.018h-.033a.283.283,0,0,0,.013.052.155.155,0,0,1-.045.162.259.259,0,0,0-.049.351l.018.022c.05.063.063.126-.018.185-.175.127-.111.258-.052.393.08.187.157.376-.028.564-.037.037-.009.092.008.137.047.126.107.25.156.375.036.094.055.189.095.283a.109.109,0,0,1-.027.146l-.023.011c-.009,0-.011.011-.018.016-.068.043-.1.094-.052.141.146.126.192.251.119.39-.022.042.041.093.05.14.021.095.078.194.038.284a.929.929,0,0,0,0,.645,1.2,1.2,0,0,1,0,.595,2.446,2.446,0,0,0-.02.694.552.552,0,0,1-.057.332.369.369,0,0,0-.012.33.614.614,0,0,1,0,.454c-.006.012-.009.025-.014.038a.64.64,0,0,0-.04.367,2.447,2.447,0,0,1,.1.583c-.458,1.74-.726,3.514-1.073,5.272a2.315,2.315,0,0,0-.029,1.562,2.278,2.278,0,0,0,.912.669c-.011.09-.013.18-.031.269-.027.112.027.224,0,.331a1.351,1.351,0,0,0-.135.5c-.169.143-.092.293-.055.442.023.095,0,.192.15.272.034.019.012.06.013.091s-.025.084,0,.119a.206.206,0,0,1,.017.257.118.118,0,0,0,.008.119.255.255,0,0,1,.019.209v.01a12.411,12.411,0,0,0-.225,3.1l-.006.019a.109.109,0,0,0,.008.043c0,.067,0,.134.007.2a1.62,1.62,0,0,0-.123.191.335.335,0,0,0,.028.19c.01.039.023.077.035.115-.016.015-.03.03-.047.045a.887.887,0,0,1-.176.077l-.013.006a1.88,1.88,0,0,1,.107.282.755.755,0,0,0,.268.383l.026.024.016.151a2.111,2.111,0,0,1-.119.409.6.6,0,0,0-.072.356c.016.246.021.492.013.738a.047.047,0,0,1-.022.046c-.19.132-.092.279-.1.419a.537.537,0,0,0,.182.419.32.32,0,0,1,.1.394,3.417,3.417,0,0,0-.2.565c-.015.046-.042.1-.007.138a.837.837,0,0,0,.224.1c-.258.325-.1.653-.082.979.15.157,0,.332.12.493-.106.164-.021.335-.072.5a1.365,1.365,0,0,0,.029.859c.01.03.018.069-.014.092-.177.126-.129.266-.076.4a.813.813,0,0,1,.025.329,3.913,3.913,0,0,1-.047.838c-.022.1-.008.19-.093.282a.151.151,0,0,0-.05.138c.053.174.124.345.187.518a.132.132,0,0,1,.015.071,2.534,2.534,0,0,1-.1.4.289.289,0,0,0,.019.262.625.625,0,0,1,.041.524.481.481,0,0,0-.027.238,1.1,1.1,0,0,1-.143.76c-.043.077-.058.157-.1.235a.314.314,0,0,0,.06.427l.019.014c.129.116.15.246,0,.366-.1.077-.056.149-.03.23.055.171.2.339.121.517a.073.073,0,0,0,.015.071.583.583,0,0,1,.092.38,3.1,3.1,0,0,0,.05.527c.05.175-.132.349.013.524a.031.031,0,0,1-.006.043l0,0c-.14.087-.1.177-.05.273.024.043-.015.094-.023.141-.01.064-.05.131-.019.189a.169.169,0,0,1-.029.23h0c-.092.087-.055.169.033.253.043.042.09.094.073.135-.082.21.009.416,0,.624a.437.437,0,0,0,.006.072.463.463,0,0,0-.007.123c-.169.143-.092.293-.055.442.006.026.009.052.013.078q.023.3.044.6a.3.3,0,0,1,0,.168.866.866,0,0,0-.045.5,1.055,1.055,0,0,1-.041.576c-.027.053,0,.112,0,.168a2.9,2.9,0,0,0,.039.456c.07.3-.1.59-.041.885a.069.069,0,0,1-.015.048.361.361,0,0,0-.038.356,1.924,1.924,0,0,1,.04.6.487.487,0,0,1-.009.1.375.375,0,0,0-.066.1.219.219,0,0,0,.009.129c-.06.2-.147.4-.015.6a.091.091,0,0,1,0,.093.311.311,0,0,0,.05.308.255.255,0,0,1-.028.349l0,0a.3.3,0,0,0-.039.375,1.284,1.284,0,0,1,.086.283,1.017,1.017,0,0,1,.014.145,3.031,3.031,0,0,0-.007.5.045.045,0,0,1-.021.046c-.19.132-.092.28-.1.419a.533.533,0,0,0,.181.419.32.32,0,0,1,.1.4,3.469,3.469,0,0,0-.2.564c-.015.046-.041.1-.007.138a.851.851,0,0,0,.224.1c-.257.325-.1.653-.082.979.15.157,0,.333.121.493-.106.164-.021.335-.073.5a1.365,1.365,0,0,0,.029.859c.01.03.018.069-.013.092-.178.127-.13.266-.077.4a.8.8,0,0,1,.025.33,3.844,3.844,0,0,1-.047.837c-.022.1-.007.191-.093.282a.154.154,0,0,0-.05.139c.053.173.124.345.187.517a.135.135,0,0,1,.016.071,2.537,2.537,0,0,1-.1.4.289.289,0,0,0,.019.262.621.621,0,0,1,.042.524.471.471,0,0,0-.028.238,1.1,1.1,0,0,1-.142.76c-.044.077-.059.158-.1.235a.314.314,0,0,0,.059.427l.019.014c.129.116.15.247,0,.367-.1.076-.055.148-.029.229.054.171.2.339.121.517a.068.068,0,0,0,.015.071.585.585,0,0,1,.092.38,3.005,3.005,0,0,0,.05.527c.05.175-.133.349.013.524a.033.033,0,0,1-.007.043l0,0c-.14.087-.106.177-.05.273.024.044-.015.094-.023.142s-.051.13-.019.188a.171.171,0,0,1-.03.231h0c-.092.086-.056.169.032.252.043.042.09.094.074.136a.516.516,0,0,0-.034.2c0,.14.041.279.038.419,0,.079.033.163-.007.238a.753.753,0,0,0-.04.43c.015.216.033.432.047.648a.283.283,0,0,1,0,.168.866.866,0,0,0-.044.5,1.055,1.055,0,0,1-.041.576.3.3,0,0,0,0,.168,2.674,2.674,0,0,0,.039.456c.069.3-.1.59-.042.885a.06.06,0,0,1-.015.048.363.363,0,0,0-.038.356,1.894,1.894,0,0,1,.041.6.936.936,0,0,1-.046.262c-.056.221-.183.441-.035.665a.1.1,0,0,1,0,.093.29.29,0,0,0,.031.275c.258-.022.514-.049.772-.071.2-.017.4-.026.6-.045a.73.73,0,0,1,.338.024.553.553,0,0,0,.331.033,2.215,2.215,0,0,1,.83-.056,1.985,1.985,0,0,0,.3-.024,4.5,4.5,0,0,1,.6-.018,8.518,8.518,0,0,0,1.374,0,11.139,11.139,0,0,1,1.266,0c.352.018.7.01,1.049.007.051.007.1.009.154.018a3.048,3.048,0,0,0,1.013.013h.017a3.382,3.382,0,0,0,.652,0,5.544,5.544,0,0,1,.706,0h.02a5.6,5.6,0,0,0,1.242.059c.355-.04.713-.063,1.071-.083.219-.005.437-.012.657-.006.2.007.4.026.606.033.243.009.493.031.731.026a1.773,1.773,0,0,0,.179-.01,2.81,2.81,0,0,1,.4,0c.33.031.663.051,1,.054a2.225,2.225,0,0,0,.258-.021,1.928,1.928,0,0,1,.345-.022,3.3,3.3,0,0,1,.506.048c.031,0,.063-.007.094-.01a2.343,2.343,0,0,0,.443,0,1.984,1.984,0,0,1,.586.015,1.753,1.753,0,0,0,.8-.021c.31-.084.555.134.85.13a.932.932,0,0,0,.286-.047,3.872,3.872,0,0,1,.63-.119c.1.008.2,0,.3.012a2.417,2.417,0,0,0,.6,0,3.2,3.2,0,0,1,.553-.023c.658.038,1.317.046,1.978.06.447.009.892.006,1.337.006.026,0,.054,0,.08.009a2.21,2.21,0,0,0,.761.007,4.953,4.953,0,0,0,1.068-.024c.085-.01.171-.011.256-.013.033,0,.065,0,.1,0,.388,0,.777.008,1.162.028.239.013.476-.013.7,0,.35.023.7.072,1.058.063a3.032,3.032,0,0,0,.941.027,1.811,1.811,0,0,0,.58-.071.741.741,0,0,1,.194-.006,1.738,1.738,0,0,0,.25,0,1.787,1.787,0,0,1,.551-.008,1.054,1.054,0,0,0,.251,0,2.416,2.416,0,0,1,.45-.009,3.894,3.894,0,0,0,.611-.006,5.116,5.116,0,0,1,.9-.011c.15.011.3.016.455.022a12.955,12.955,0,0,0,1.421.039,5.24,5.24,0,0,1,1.154-.022.311.311,0,0,0,.1,0,1.953,1.953,0,0,1,.6,0c.471.027.938.067,1.41.093.145.008.3-.026.446-.017.164.009.317.056.48.068a3.234,3.234,0,0,0,.406-.013c.235-.015.469-.033.7-.048.134-.008.277,0,.405-.02a9.036,9.036,0,0,1,2.066.024,5.619,5.619,0,0,0,.756.034c.524-.029,1.049.01,1.572-.007a.324.324,0,0,1,.1.01,3.133,3.133,0,0,0,.9.047,3.861,3.861,0,0,0,.89-.086,2.526,2.526,0,0,1,.84-.048c.394.045.8.066,1.2.095a1.305,1.305,0,0,0,.293,0,.737.737,0,0,0,.2-.1,11.238,11.238,0,0,0,2.083.038c.337-.071.708,0,1.049-.056.35.052.715.01,1.064.034a12.954,12.954,0,0,0,1.827-.014.645.645,0,0,1,.2.006,2.181,2.181,0,0,0,.844.036c.239-.021.464-.012.7-.011.595,0,1.188-.008,1.782.022a3.9,3.9,0,0,1,.6.043,1.168,1.168,0,0,0,.295.023c.368-.025.734-.058,1.1-.088a1.262,1.262,0,0,1,.151-.007c.286.014.575.024.857.048a2.6,2.6,0,0,0,.551-.008,5.67,5.67,0,0,1,1.113-.02,4.292,4.292,0,0,0,.507.013,9.845,9.845,0,0,1,1.619.067c.163.021.335.027.5.049a2.494,2.494,0,0,0,.939-.037,1.573,1.573,0,0,1,.783,0,1.363,1.363,0,0,0,.489.014,6.551,6.551,0,0,1,1.1-.057.54.54,0,0,0,.15-.007,5.078,5.078,0,0,1,.808-.043c.375-.008.751,0,1.123-.023a8.937,8.937,0,0,0,1.11-.006.26.26,0,0,1,.1.005,1.241,1.241,0,0,0,.581.025,2.144,2.144,0,0,1,.3.011,2.686,2.686,0,0,0,.4.009,1.379,1.379,0,0,1,.492.014,1.152,1.152,0,0,0,.538-.015,1.038,1.038,0,0,1,.288-.035c.444.039.885,0,1.326,0,.113,0,.229,0,.341,0,.056,0,.112,0,.168.008a6.8,6.8,0,0,0,.914.019l1.38-.022a2.643,2.643,0,0,1,.356,0,8.275,8.275,0,0,0,1.068.021l.253,0a7.091,7.091,0,0,1,.967.023,3.037,3.037,0,0,0,.357,0c.1,0,.2,0,.3,0,.074-.015.146-.031.219-.05a2.467,2.467,0,0,1,.778-.093,2.517,2.517,0,0,0,.451,0,1.322,1.322,0,0,1,.344.021,2.08,2.08,0,0,0,.794.015.856.856,0,0,1,.393.008,2.149,2.149,0,0,0,.838.026,3.821,3.821,0,0,1,1.2.012,1.157,1.157,0,0,0,.294,0c.267-.023.532-.052.8-.074.2-.017.4-.026.6-.044a.713.713,0,0,1,.337.024.564.564,0,0,0,.332.033,2.2,2.2,0,0,1,.792-.057.833.833,0,0,1,.482-.232c1.368,0,2.785-.082,4.186-.081-.107-.628-.245-1.246-.4-1.848A18.646,18.646,0,0,1,290.512,185.826Z"/><path class="cls-4" d="M119.788,123.781a2.656,2.656,0,0,1-.6-1.577c.032-1.852.229-3.7.3-5.552a5.166,5.166,0,0,0-.18-2.4,5.448,5.448,0,0,1-.1-3.77,18.877,18.877,0,0,0,.088-5.906c-.2-1.737-.382-3.478-.5-5.222a4.776,4.776,0,0,1,.154-2.394,4.712,4.712,0,0,0,.141-3.335,46.691,46.691,0,0,1-.465-5.527q-.32.051-.639.1a1.9,1.9,0,0,1-.439.024,15.9,15.9,0,0,0-2.034-.119,6.293,6.293,0,0,1-1.781-.213c-.234-.067-.453-.177-.688-.23a1.13,1.13,0,0,0-1.049.123.34.34,0,0,1-.265.08,2.131,2.131,0,0,0-1.22.127.793.793,0,0,1-.859-.2c-.03-.034-.058-.094-.093-.1-.457-.056-.74-.42-1.159-.563a.85.85,0,0,1-.68.131.748.748,0,0,0-.691.146,1.148,1.148,0,0,1-.245.11l-.638-.3c-.094.078-.172.113-.2.17a.884.884,0,0,1-1.1.446,1.057,1.057,0,0,0-.43.02,1.208,1.208,0,0,1-1.048-.031c-.061-.041-.191.016-.287.008a2.3,2.3,0,0,0-.56-.063c-.269.047-.234-.3-.52-.251-.049.1-.1.208-.152.318a6.672,6.672,0,0,0-.859-.078A1.949,1.949,0,0,0,99.649,88a.638.638,0,0,1-.282.062c-.289.047-.578.1-.868.135a1.9,1.9,0,0,1-.439.024,15.885,15.885,0,0,0-2.034-.119,6.338,6.338,0,0,1-1.781-.213c-.233-.068-.452-.177-.688-.23a1.128,1.128,0,0,0-1.048.123.349.349,0,0,1-.269.08,2.12,2.12,0,0,0-1.219.127.8.8,0,0,1-.859-.2c-.031-.035-.058-.095-.093-.1-.457-.057-.74-.42-1.159-.563a.85.85,0,0,1-.68.13.751.751,0,0,0-.691.147,1.17,1.17,0,0,1-.245.11l-.638-.3c-.094.078-.172.114-.2.17a.884.884,0,0,1-1.1.447,1.075,1.075,0,0,0-.43.019,1.208,1.208,0,0,1-1.048-.031c-.061-.041-.191.017-.287.009a2.3,2.3,0,0,0-.56-.064c-.269.047-.235-.3-.519-.25-.039.08-.081.167-.122.254-.1-.008-.2-.014-.3-.014a1.949,1.949,0,0,0-1.339.249.674.674,0,0,1-.283.062c-.289.047-.577.1-.868.134a1.887,1.887,0,0,1-.438.025,15.711,15.711,0,0,0-2.033-.119,6.3,6.3,0,0,1-1.782-.214c-.234-.067-.453-.176-.688-.23a1.135,1.135,0,0,0-1.049.123.343.343,0,0,1-.269.08,2.121,2.121,0,0,0-1.219.128.8.8,0,0,1-.859-.2c-.031-.035-.058-.095-.093-.1-.457-.056-.74-.419-1.159-.562a.852.852,0,0,1-.681.13.752.752,0,0,0-.691.147,1.163,1.163,0,0,1-.244.11l-.638-.3c-.094.078-.172.114-.2.17a.814.814,0,0,1-.911.465c.028.084.041.171.073.256a14.952,14.952,0,0,1,.65,6.192c-.134,2.6-1,5.306.71,7.787a1.8,1.8,0,0,1,.178,1.009,16.637,16.637,0,0,1-.134,4.054,3.248,3.248,0,0,1-.149.422c-.672,1.511-.036,3.026-.56,4.362-1.191,3.04-.669,6.128.143,8.953.85,2.954.577,5.715.255,8.583a4.443,4.443,0,0,0-.131,1.383,6.411,6.411,0,0,1-1.536,5.473c.248.686.435,1.238.647,1.781a6.908,6.908,0,0,1,.52,1.624,3.083,3.083,0,0,1,3.145.212,2.29,2.29,0,0,0,2.743.25,3.8,3.8,0,0,1,1.094-.27c2.988-.474,5.992-.146,8.988-.194a19.173,19.173,0,0,0,2.02.021,17.262,17.262,0,0,1,6.041.426,10.014,10.014,0,0,0,2.911.16c2.544-.148,5.063-.863,7.637-.423a1.047,1.047,0,0,0,.658-.1c1.063-.611,2.042-.126,3.047.2a5.134,5.134,0,0,0,1.719.422,31.667,31.667,0,0,1,5.4-.074c1.026.123,2.058-.123,3.074.437a3.3,3.3,0,0,0,1.77.1c.934-.082,1.866-.187,2.8-.281a15.545,15.545,0,0,1-.565-3.482c.189-3.238.585-6.466.874-9.7A4.769,4.769,0,0,0,119.788,123.781Z"/></svg>