<svg id="Layer_1" data-name="Layer 1" xmlns="http://www.w3.org/2000/svg" viewBox="0 0 296 189.537"><defs><style>.cls-1{fill:#f36;}.cls-2{fill:#1858a8;}</style></defs><title>oval()</title><path class="cls-1" d="M123.914,150.884a6.765,6.765,0,0,1,2.085-.139,13.623,13.623,0,0,0,2.221-.1,5.443,5.443,0,0,1,1.983.062,2.28,2.28,0,0,0,1.157-.01,6.126,6.126,0,0,1,2.2-.136,2.583,2.583,0,0,0,1.707-.209,2.961,2.961,0,0,1,2.775-.285,1.784,1.784,0,0,0,.458.076l2.436.317a2.551,2.551,0,0,1,1.44-.305,6.419,6.419,0,0,0,1.176-.033,32.366,32.366,0,0,1,5.135-.428c1.088.014,2.178-.112,3.269-.162a2.4,2.4,0,0,1,2.135.615.738.738,0,0,0,.3.162,2.058,2.058,0,0,0,1.981-.071,6.66,6.66,0,0,1,2.629-.859,2.754,2.754,0,0,1,2.313.433c.048.041.147.032.271.057.145-.041.336-.085.517-.149a9.408,9.408,0,0,1,1.189-.227,4.613,4.613,0,0,0,3.106-1.275c.351-.425.745-.822,1.135-1.22a1.678,1.678,0,0,1,.528-.407,7.042,7.042,0,0,0,2.244-1.5,27.914,27.914,0,0,0,2.332-2.083,1.429,1.429,0,0,1,.385-.228c.172.194.278.435.46.5.709.248,1.325.776,2.177.622.107-.018.229.059.344.059a6.282,6.282,0,0,0,3-.3,1.126,1.126,0,0,1,.455-.086,2.33,2.33,0,0,0,1.454-.624,6.615,6.615,0,0,1,.643-.462,11.63,11.63,0,0,1,3.212-1.276,2.3,2.3,0,0,0,.734-.3c.738-.573,1.445-1.18,2.247-1.844a1.268,1.268,0,0,0,1.547-.22,1.225,1.225,0,0,1,.771-.17,3.806,3.806,0,0,0,2.013-.463c.373-.193.783-.327,1.149-.529a4.231,4.231,0,0,0,.833-.584,1.657,1.657,0,0,1,.552-.157,5.614,5.614,0,0,1,1.53.109,1.016,1.016,0,0,0,.4-.011c.266-.031.535-.057.8-.111a4.651,4.651,0,0,0,1-.264,3.336,3.336,0,0,1,1.56-.323,2.041,2.041,0,0,0,1.223-.339c.016-.175.029-.345.046-.514a2.218,2.218,0,0,1,2.232-1.944,1.6,1.6,0,0,0,.706-.1,1.539,1.539,0,0,1,1.095-.116.738.738,0,0,0,.615-.067.781.781,0,0,1,.37-.133,3.237,3.237,0,0,0,1.589-.682c.088-.433.174-.874.707-1.065a.182.182,0,0,0,.1-.112c.1-.4.44-.6.782-.8a.954.954,0,0,0,.287-.257c.326-.47.638-.947.984-1.464.063-.022.238-.033.3-.116.341-.425.821-.791.79-1.391a.632.632,0,0,1,.29-.574A2.358,2.358,0,0,0,213,124.96a1.944,1.944,0,0,1,.637-1.155,2.39,2.39,0,0,0,.715-1.424,1.843,1.843,0,0,1,.383-1.03,1.294,1.294,0,0,0,.236-.715c.392-.77.751-1.555,1.221-2.291.382-.6.686-1.235,1.007-1.863.1-.2.218-.4.328-.6q.466-.858.969-1.7c.061-.1.116-.207.17-.313a.259.259,0,0,0,.141-.257,2.1,2.1,0,0,1,.7-.842.42.42,0,0,0,.167-.27c.057-.452.424-.753.634-1.13a5.13,5.13,0,0,0,.327-.559c.022-.053.049-.1.071-.158a1.084,1.084,0,0,1-.753-.89,1.315,1.315,0,0,0-.379-.75c-.3-.27-.643-.512-.973-.758a1.556,1.556,0,0,1,.155-.47,1.927,1.927,0,0,0,.225-1.489,1,1,0,0,1,0-.429,1.361,1.361,0,0,0-.082-.79c-.238-.725-.453-1.456-.679-2.183-.051-.165-.12-.325-.164-.49a6.72,6.72,0,0,1-.306-1.28,4.32,4.32,0,0,0-.325-1.353,2.274,2.274,0,0,1-.176-.706.978.978,0,0,0-.423-.832.58.58,0,0,1-.2-.3,2.768,2.768,0,0,0-.443-1.09.68.68,0,0,1-.074-.354,2.582,2.582,0,0,0-.039-.512,1.86,1.86,0,0,1-.007-1.081,1.426,1.426,0,0,0-.168-1.281,1.407,1.407,0,0,1-.269-.967v-.673a1.275,1.275,0,0,1-.671-.632c-.129-.228-.4-.386-.578-.595s-.309-.451-.479-.667c-.059-.075-.178-.108-.262-.168-.459-.335-.968-.6-1.411-.966a3.209,3.209,0,0,0-.95-.532,3.55,3.55,0,0,1-1.568-1.1c-.058.06-.125.133-.187.2a1.885,1.885,0,0,1-1.586-.709,3.023,3.023,0,0,1-.987-.332,9.572,9.572,0,0,0-1.389-.84,3.093,3.093,0,0,1-.9-.828,1.961,1.961,0,0,0-1.039-.779,5.507,5.507,0,0,1-1.8-1.069,2.746,2.746,0,0,0-1.738-.67,5.634,5.634,0,0,1-1.335-.278.577.577,0,0,1-.419-.318c-.188-.493-.658-.678-1.122-.875l-.326-.139c-.168-.491-.7-.763-.884-1.2-.236-.562-.83-.734-1.208-1.127a1.37,1.37,0,0,0-1.062-.368,6.844,6.844,0,0,1-3.465-.839,3.115,3.115,0,0,0-.77-.246,4.587,4.587,0,0,1-1.739-.851,11.646,11.646,0,0,0-1.353-.83,9.135,9.135,0,0,0-2.61-1.16,1.009,1.009,0,0,1-.285-.184c-.373-.259-.727-.543-1.122-.77a2.65,2.65,0,0,0-1.047-.432c-1-.069-1.663-.758-2.538-1.042a2.22,2.22,0,0,0-1.027-.683A2.49,2.49,0,0,1,176.532,70a1.361,1.361,0,0,0-1.119-.7,7.411,7.411,0,0,1-2.78-.675,5.739,5.739,0,0,0-2.088-.232,7.874,7.874,0,0,1-2.684-.182,6.091,6.091,0,0,0-2.966-.275,9.2,9.2,0,0,1-1.613-.176,2.389,2.389,0,0,1-1.189-.384,3,3,0,0,0-1.048-.443,12.008,12.008,0,0,0-3.032-.242,2.478,2.478,0,0,1-.819-.046,5.872,5.872,0,0,0-1.748-.141,1.577,1.577,0,0,1-1.2-.338,1.2,1.2,0,0,0-1.193-.281,2.64,2.64,0,0,1-1.494-.07c-1.212-.265-2.371-.7-3.6-.914a4.705,4.705,0,0,0-1.858-.008,6.827,6.827,0,0,1-2.085.139,13.512,13.512,0,0,0-2.221.1,5.465,5.465,0,0,1-1.983-.061,2.258,2.258,0,0,0-1.157.01,6.15,6.15,0,0,1-2.2.135,2.573,2.573,0,0,0-1.708.21,2.961,2.961,0,0,1-2.762.265,1.7,1.7,0,0,0-.459-.076L129.09,65.3a2.564,2.564,0,0,1-1.439.3,6.508,6.508,0,0,0-1.176.032,32.6,32.6,0,0,1-5.135.428c-1.088-.013-2.179.112-3.269.162a2.4,2.4,0,0,1-2.135-.615.705.705,0,0,0-.3-.16,2.047,2.047,0,0,0-1.981.071,6.679,6.679,0,0,1-2.63.858,2.758,2.758,0,0,1-2.312-.433c-.048-.041-.147-.033-.271-.058-.145.043-.336.086-.517.15a9.777,9.777,0,0,1-1.189.227,4.6,4.6,0,0,0-3.106,1.274c-.351.425-.745.823-1.135,1.22a1.707,1.707,0,0,1-.528.407,7.042,7.042,0,0,0-2.244,1.5,28.073,28.073,0,0,0-2.332,2.083,1.448,1.448,0,0,1-.386.229c-.171-.194-.277-.436-.459-.5-.709-.246-1.326-.775-2.177-.622-.107.019-.23-.058-.344-.058a6.307,6.307,0,0,0-3,.3,1.145,1.145,0,0,1-.455.088,2.315,2.315,0,0,0-1.455.623,7.1,7.1,0,0,1-.642.462,11.692,11.692,0,0,1-3.212,1.276,2.275,2.275,0,0,0-.734.3c-.739.575-1.445,1.181-2.247,1.845a1.264,1.264,0,0,0-1.547.221,1.235,1.235,0,0,1-.772.168,3.794,3.794,0,0,0-2.012.464c-.373.192-.783.327-1.149.528a2.593,2.593,0,0,0-1.193.992,1.467,1.467,0,0,1-.574.5c-.5.285-1.024.522-1.525.8a7.916,7.916,0,0,0-.7.449c-.083.006-.167.014-.249.021a1.424,1.424,0,0,0-.6.151A20.65,20.65,0,0,0,69.733,82.3a1.419,1.419,0,0,1-1.343.3A.732.732,0,0,0,68,82.594a2.108,2.108,0,0,1-1.26.114c-.088-.027-.208.037-.314.051a5.057,5.057,0,0,0-.905.293,13.8,13.8,0,0,1-1.571.347,2.715,2.715,0,0,0-1.31.524,4.622,4.622,0,0,0-.493.75c-.194.259-.6.342-.708.683a.146.146,0,0,1-.033.067,5.715,5.715,0,0,1-.852.763,6.549,6.549,0,0,0-.642.432,2.308,2.308,0,0,1-1.392.673.673.673,0,0,0-.67.55.57.57,0,0,1-.234.365c-.683.378-.987,1.108-1.688,1.462a7.344,7.344,0,0,1-1.524,1.3,1.563,1.563,0,0,1-.677.384.642.642,0,0,0-.5.348.765.765,0,0,1-.622.462c0,.258.079.509-.015.682-.268.491-.372,1.086-.972,1.392a.532.532,0,0,0-.272.427,4.939,4.939,0,0,1-.745,1.769,1.054,1.054,0,0,0-.086,1.058c.09.2.18.41.26.617a2.061,2.061,0,0,1-.213,1.887c-.125.018-.241.06-.369.07a2.646,2.646,0,0,0-.754.251,2.763,2.763,0,0,0-1,.878,1.645,1.645,0,0,0-.465.947c-.043.421.528.415.558.852-.127.244-.3.559-.456.881a.639.639,0,0,0,.237.873.689.689,0,0,0,.082.04,1.664,1.664,0,0,0,.547.168,1.281,1.281,0,0,1,.371.153c-.091.223-.2.438-.3.652a1.673,1.673,0,0,1-.437.348.411.411,0,0,0-.147.247c-.032.121-.059.243-.084.364-.023.024-.033.052-.058.074a.819.819,0,0,0-.175,1.088l.035.052A1.261,1.261,0,0,1,48,108.5a.513.513,0,0,0-.011.288c.03.291.063.581.107.871a1.639,1.639,0,0,0,.108.425A18.3,18.3,0,0,1,48.7,112a.323.323,0,0,1,0,.217,1.264,1.264,0,0,0,.247,1.254,5.508,5.508,0,0,1,.595,1.119,2,2,0,0,0,.711.858A3.241,3.241,0,0,1,51.544,117a2.266,2.266,0,0,0,.341.656c.359.487.733.967,1.127,1.433a4.408,4.408,0,0,1,.7,1.063c.191.428.489.815.689,1.239a3.072,3.072,0,0,1,.578,1.931.336.336,0,0,0,.076.207,14.451,14.451,0,0,1,.972,2.553,6.04,6.04,0,0,0,1.946,2.722,1.979,1.979,0,0,1,.206.223c.583.6,1.32,1.068,1.875,1.7a5.186,5.186,0,0,0,.725.579,2.609,2.609,0,0,0,.371.282,4.833,4.833,0,0,1,1.441,1.041.752.752,0,0,0,.258.173c.362.162.737.3,1.091.475a7.9,7.9,0,0,1,1.312.714,2.063,2.063,0,0,0,.833.418,7.7,7.7,0,0,1,3.119,1.457,1.715,1.715,0,0,0,1.1.359,4.248,4.248,0,0,1,1.485.309,3.972,3.972,0,0,0,1.25.264,7.762,7.762,0,0,1,1.806.333,2.274,2.274,0,0,1,.376.286,1.378,1.378,0,0,0,1.062.368,6.813,6.813,0,0,1,3.465.838,3.2,3.2,0,0,0,.77.245,4.575,4.575,0,0,1,1.739.852,11.639,11.639,0,0,0,1.353.829,9.159,9.159,0,0,0,2.609,1.161.91.91,0,0,1,.286.184c.372.258.727.543,1.122.77a2.663,2.663,0,0,0,1.047.431c1,.069,1.663.759,2.538,1.042a2.23,2.23,0,0,0,1.027.684,2.473,2.473,0,0,1,1.246.952,1.369,1.369,0,0,0,1.12.7,7.41,7.41,0,0,1,2.78.674,5.718,5.718,0,0,0,2.088.232,7.922,7.922,0,0,1,2.684.182,6.115,6.115,0,0,0,2.966.276,9.008,9.008,0,0,1,1.613.176,2.355,2.355,0,0,1,1.189.385,3.034,3.034,0,0,0,1.048.442,12.2,12.2,0,0,0,3.032.243,2.425,2.425,0,0,1,.819.044,5.905,5.905,0,0,0,1.748.141,1.58,1.58,0,0,1,1.2.339,1.2,1.2,0,0,0,1.192.281,2.632,2.632,0,0,1,1.494.069c1.213.266,2.372.7,3.6.915A4.733,4.733,0,0,0,123.914,150.884Z"/><path class="cls-2" d="M166.978,62.055c.037-.032.093-.058.107-.1a.815.815,0,0,1,.427-.444c.053-.029.1-.072.152-.1a.277.277,0,0,1,.23-.058.152.152,0,0,0,.184-.069c.017-.024.041-.059.065-.062a2.745,2.745,0,0,0,.5-.211.145.145,0,0,1,.089-.017.307.307,0,0,0,.342-.1c.182-.016.322-.028.462-.042.02,0,.043-.019.058-.013.314.129.672-.052.987.164l.106-.141c.075.01.164.025.253.031.137.009.232.153.4.091a2.016,2.016,0,0,1,.418-.025c.271-.035.546-.048.817-.1.042-.008.093.029.144.047a.572.572,0,0,1,.644-.176l-.133.218c.028.019.044.038.055.035.1-.021.223,0,.3-.109.021-.028.073-.032.11-.05a.441.441,0,0,1,.385,0,.381.381,0,0,0,.379-.024,1.622,1.622,0,0,1,.586-.158,6.912,6.912,0,0,1,.849-.1.491.491,0,0,1,.153,0,.645.645,0,0,0,.445-.04.408.408,0,0,1,.177-.015,1.584,1.584,0,0,0,.486,0,.351.351,0,0,1,.289.062,1.323,1.323,0,0,0,.656.194c.233.02.465.049.7.067a.278.278,0,0,0,.172-.03.348.348,0,0,1,.291-.042.766.766,0,0,0,.362-.027c.166-.047.338-.073.507-.107a.126.126,0,0,1,.061,0,1.312,1.312,0,0,0,.7-.044c.043.045.087.085.124.131a.95.95,0,0,0,.834.366c.153-.007.307,0,.46-.021a1.5,1.5,0,0,1,.6.068,3.05,3.05,0,0,0,.691.113.2.2,0,0,1,.091.007.733.733,0,0,0,.563,0,3.544,3.544,0,0,0,.787-.227c.054-.026.1-.061.165-.1l.23.067a.618.618,0,0,0,.083-.027c.092-.045.178-.1.273-.139.133-.052.216.012.244.173l.007.06c.151.058.3.118.454.174.086.031.173.057.261.083.127.038.256.068.381.111a.369.369,0,0,0,.267.024.219.219,0,0,1,.2.026,1.6,1.6,0,0,0,.825.186.841.841,0,0,1,.411.1.663.663,0,0,0,.255.092,1.56,1.56,0,0,1,.58.178.675.675,0,0,1,.219.163,1.832,1.832,0,0,1,.46.743.906.906,0,0,0,.122.245,2.077,2.077,0,0,1,.276.573,3.532,3.532,0,0,1,.152.93.271.271,0,0,1-.055.168c-.185.2-.311.458-.575.578a2.763,2.763,0,0,0-.159.323.327.327,0,0,1-.1.176.329.329,0,0,0-.09.151c-.03.084-.049.171-.071.248-.146.054-.164-.128-.3-.112a.623.623,0,0,0-.237.238.629.629,0,0,1-.334.248.4.4,0,0,0-.313.316c-.214-.045-.413-.079-.608-.131a.86.86,0,0,0-.54.016,1.582,1.582,0,0,1-.843.066,4.358,4.358,0,0,0-.911-.09.55.55,0,0,1-.151-.021,2.524,2.524,0,0,0-.822-.049c-.141.008-.283-.008-.425-.014-.072,0-.143-.013-.214-.01a3.894,3.894,0,0,1-.518-.017,1.618,1.618,0,0,0-.514.041.762.762,0,0,1-.479-.019.541.541,0,0,0-.177-.039,4.476,4.476,0,0,1-.908-.106.17.17,0,0,0-.089-.012,2.8,2.8,0,0,1-.76.017,6.407,6.407,0,0,1-.759-.018c-.142-.006-.284-.027-.425-.04a4.934,4.934,0,0,0-.758-.06,1.644,1.644,0,0,0-.776.109.453.453,0,0,1-.238.038.787.787,0,0,0-.331.014.136.136,0,0,1-.116-.017c-.085-.076-.171-.037-.26-.022a.22.22,0,0,1-.225-.06c-.075-.092-.175-.084-.279-.088-.355-.014-.711-.036-1.066-.054h-.245a.891.891,0,0,1-.536-.072.183.183,0,0,0-.089-.019c-.213-.011-.427-.018-.64-.031a2.759,2.759,0,0,0-.816.037.783.783,0,0,1-.509-.053.99.99,0,0,0-.51-.076,1.309,1.309,0,0,1-.487-.019.226.226,0,0,0-.121,0,5.446,5.446,0,0,1-1.12.025,1.054,1.054,0,0,1-.446-.049.536.536,0,0,0-.211-.014c-.112,0-.224.019-.336.021a4.679,4.679,0,0,1-.794-.014c-.289-.044-.585-.047-.878-.064a.535.535,0,0,0-.149.025,1.132,1.132,0,0,1-.575-.008c-.117-.033-.238-.049-.367-.074a1.493,1.493,0,0,1-.05-.693,1.57,1.57,0,0,0,.018-.785c.056-.248-.076-.479-.065-.723a.338.338,0,0,0-.02-.151,1.125,1.125,0,0,1,.019-.63.217.217,0,0,1,.031-.086c.074-.134-.007-.3.058-.418a2.609,2.609,0,0,1,.278-.316c.033-.043.027-.116.039-.175Z"/><path class="cls-2" d="M199.364,62.055c.037-.032.093-.058.108-.1a.81.81,0,0,1,.426-.444c.054-.029.1-.072.152-.1a.279.279,0,0,1,.231-.058.152.152,0,0,0,.184-.069c.017-.024.04-.059.064-.062a2.817,2.817,0,0,0,.5-.211c.029-.01.064-.026.088-.017a.308.308,0,0,0,.343-.1c.182-.016.322-.028.461-.042.02,0,.044-.019.059-.013.314.129.672-.052.986.164l.106-.141c.076.01.164.025.253.031.138.009.233.153.4.091a2.011,2.011,0,0,1,.417-.025c.272-.035.547-.048.817-.1.043-.008.094.029.145.047a.572.572,0,0,1,.644-.176l-.133.218c.028.019.044.038.055.035.1-.021.222,0,.3-.109.02-.028.073-.032.11-.05a.441.441,0,0,1,.385,0,.381.381,0,0,0,.379-.024,1.611,1.611,0,0,1,.585-.158,6.928,6.928,0,0,1,.85-.1.484.484,0,0,1,.152,0,.645.645,0,0,0,.445-.04.413.413,0,0,1,.178-.015,1.584,1.584,0,0,0,.486,0,.349.349,0,0,1,.288.062,1.327,1.327,0,0,0,.657.194c.233.02.465.049.7.067a.278.278,0,0,0,.172-.03.348.348,0,0,1,.291-.042.779.779,0,0,0,.362-.027c.165-.047.337-.073.506-.107a.126.126,0,0,1,.061,0,1.312,1.312,0,0,0,.7-.044c.043.045.087.085.125.131a.95.95,0,0,0,.834.366c.153-.007.307,0,.459-.021a1.5,1.5,0,0,1,.6.068,3.05,3.05,0,0,0,.691.113.19.19,0,0,1,.09.007.733.733,0,0,0,.563,0,3.536,3.536,0,0,0,.788-.227c.054-.026.1-.061.165-.1l.229.067a.588.588,0,0,0,.084-.027c.091-.045.178-.1.273-.139.132-.052.216.012.244.173l.007.06c.151.058.3.118.454.174.085.031.173.057.261.083.126.038.256.068.381.111a.369.369,0,0,0,.267.024.216.216,0,0,1,.2.026,1.6,1.6,0,0,0,.825.186.831.831,0,0,1,.411.1.652.652,0,0,0,.256.092,1.56,1.56,0,0,1,.58.178.675.675,0,0,1,.219.163,1.832,1.832,0,0,1,.46.743.933.933,0,0,0,.121.245,2.063,2.063,0,0,1,.276.573,3.446,3.446,0,0,1,.152.93.269.269,0,0,1-.055.168c-.185.2-.311.458-.575.578a2.763,2.763,0,0,0-.159.323.313.313,0,0,1-.1.176.327.327,0,0,0-.089.151c-.031.084-.05.171-.071.248-.146.054-.165-.128-.3-.112a.64.64,0,0,0-.238.238.621.621,0,0,1-.334.248.4.4,0,0,0-.313.316c-.213-.045-.412-.079-.607-.131a.86.86,0,0,0-.54.016,1.582,1.582,0,0,1-.843.066,4.367,4.367,0,0,0-.912-.09.55.55,0,0,1-.151-.021,2.517,2.517,0,0,0-.821-.049c-.141.008-.284-.008-.426-.014-.071,0-.142-.013-.213-.01a3.909,3.909,0,0,1-.519-.017,1.618,1.618,0,0,0-.514.041.759.759,0,0,1-.478-.019.547.547,0,0,0-.178-.039,4.467,4.467,0,0,1-.907-.106.172.172,0,0,0-.09-.012,2.8,2.8,0,0,1-.759.017,6.407,6.407,0,0,1-.759-.018c-.142-.006-.284-.027-.426-.04a4.812,4.812,0,0,0-.758-.06,1.655,1.655,0,0,0-.775.109.453.453,0,0,1-.238.038.791.791,0,0,0-.332.014.136.136,0,0,1-.116-.017c-.085-.076-.17-.037-.259-.022a.22.22,0,0,1-.225-.06c-.075-.092-.175-.084-.279-.088-.356-.014-.711-.036-1.066-.054h-.245a.9.9,0,0,1-.537-.072.18.18,0,0,0-.088-.019c-.214-.011-.427-.018-.641-.031a2.751,2.751,0,0,0-.815.037.786.786,0,0,1-.51-.053.988.988,0,0,0-.509-.076,1.309,1.309,0,0,1-.487-.019.23.23,0,0,0-.122,0,5.446,5.446,0,0,1-1.12.025,1.05,1.05,0,0,1-.445-.049.536.536,0,0,0-.211-.014c-.113,0-.224.019-.337.021a4.667,4.667,0,0,1-.793-.014c-.289-.044-.585-.047-.879-.064a.534.534,0,0,0-.148.025,1.132,1.132,0,0,1-.575-.008c-.117-.033-.238-.049-.368-.074a1.507,1.507,0,0,1-.049-.693,1.558,1.558,0,0,0,.017-.785c.057-.248-.075-.479-.064-.723a.338.338,0,0,0-.02-.151c-.1-.215,0-.421.018-.63a.235.235,0,0,1,.032-.086c.073-.134-.008-.3.057-.418a2.883,2.883,0,0,1,.278-.316.443.443,0,0,0,.04-.175Z"/><path class="cls-2" d="M123.8,62.055c.036-.032.092-.058.107-.1a.816.816,0,0,1,.426-.444c.054-.029.1-.072.153-.1a.277.277,0,0,1,.23-.058.152.152,0,0,0,.184-.069c.017-.024.04-.059.064-.062a2.817,2.817,0,0,0,.5-.211c.029-.01.064-.026.088-.017a.308.308,0,0,0,.343-.1c.182-.016.322-.028.462-.042.02,0,.043-.019.058-.013.314.129.672-.052.986.164l.106-.141c.076.01.164.025.253.031.138.009.233.153.4.091a2.016,2.016,0,0,1,.418-.025c.271-.035.546-.048.817-.1.042-.008.093.029.144.047a.572.572,0,0,1,.644-.176l-.133.218c.028.019.044.038.055.035.1-.021.223,0,.3-.109.02-.028.073-.032.11-.05a.441.441,0,0,1,.385,0,.381.381,0,0,0,.379-.024,1.611,1.611,0,0,1,.585-.158,6.928,6.928,0,0,1,.85-.1.484.484,0,0,1,.152,0,.645.645,0,0,0,.445-.04.413.413,0,0,1,.178-.015,1.584,1.584,0,0,0,.486,0,.349.349,0,0,1,.288.062,1.327,1.327,0,0,0,.657.194c.233.02.465.049.7.067a.278.278,0,0,0,.172-.03.348.348,0,0,1,.291-.042.779.779,0,0,0,.362-.027c.166-.047.337-.073.507-.107a.122.122,0,0,1,.06,0,1.312,1.312,0,0,0,.7-.044c.043.045.088.085.125.131a.95.95,0,0,0,.834.366c.153-.007.307,0,.459-.021a1.5,1.5,0,0,1,.6.068,3.05,3.05,0,0,0,.691.113.19.19,0,0,1,.09.007.733.733,0,0,0,.563,0,3.536,3.536,0,0,0,.788-.227c.054-.026.1-.061.165-.1l.229.067a.588.588,0,0,0,.084-.027c.091-.045.178-.1.273-.139.132-.052.216.012.244.173l.007.06c.151.058.3.118.454.174.086.031.173.057.261.083.127.038.256.068.381.111a.369.369,0,0,0,.267.024.216.216,0,0,1,.2.026,1.6,1.6,0,0,0,.825.186.834.834,0,0,1,.412.1.642.642,0,0,0,.255.092,1.56,1.56,0,0,1,.58.178.675.675,0,0,1,.219.163,1.832,1.832,0,0,1,.46.743.933.933,0,0,0,.121.245,2.066,2.066,0,0,1,.277.573,3.491,3.491,0,0,1,.151.93.276.276,0,0,1-.054.168c-.185.2-.311.458-.576.578a2.756,2.756,0,0,0-.158.323.316.316,0,0,1-.106.176.327.327,0,0,0-.089.151c-.031.084-.05.171-.071.248-.146.054-.165-.128-.3-.112a.623.623,0,0,0-.237.238.629.629,0,0,1-.334.248.4.4,0,0,0-.314.316c-.213-.045-.412-.079-.607-.131a.86.86,0,0,0-.54.016,1.582,1.582,0,0,1-.843.066,4.367,4.367,0,0,0-.912-.09.543.543,0,0,1-.15-.021,2.524,2.524,0,0,0-.822-.049c-.141.008-.284-.008-.426-.014-.071,0-.142-.013-.213-.01a3.909,3.909,0,0,1-.519-.017,1.618,1.618,0,0,0-.514.041.759.759,0,0,1-.478-.019.547.547,0,0,0-.178-.039,4.467,4.467,0,0,1-.907-.106.172.172,0,0,0-.09-.012,2.8,2.8,0,0,1-.759.017,6.407,6.407,0,0,1-.759-.018c-.142-.006-.284-.027-.426-.04a4.812,4.812,0,0,0-.758-.06,1.655,1.655,0,0,0-.775.109.453.453,0,0,1-.238.038.791.791,0,0,0-.332.014.136.136,0,0,1-.116-.017c-.084-.076-.17-.037-.259-.022a.22.22,0,0,1-.225-.06c-.075-.092-.175-.084-.279-.088-.356-.014-.711-.036-1.066-.054h-.245a.891.891,0,0,1-.536-.072.183.183,0,0,0-.089-.019c-.214-.011-.427-.018-.64-.031a2.759,2.759,0,0,0-.816.037.786.786,0,0,1-.51-.053.988.988,0,0,0-.509-.076,1.309,1.309,0,0,1-.487-.019.23.23,0,0,0-.122,0,5.446,5.446,0,0,1-1.12.025,1.05,1.05,0,0,1-.445-.049.536.536,0,0,0-.211-.014c-.112,0-.224.019-.337.021a4.667,4.667,0,0,1-.793-.014c-.289-.044-.585-.047-.878-.064a.535.535,0,0,0-.149.025,1.132,1.132,0,0,1-.575-.008c-.117-.033-.238-.049-.367-.074a1.494,1.494,0,0,1-.05-.693,1.57,1.57,0,0,0,.018-.785c.056-.248-.076-.479-.065-.723a.338.338,0,0,0-.02-.151,1.134,1.134,0,0,1,.018-.63.218.218,0,0,1,.032-.086c.073-.134-.008-.3.057-.418a2.706,2.706,0,0,1,.279-.316c.033-.043.027-.116.039-.175Z"/><path class="cls-2" d="M84.212,62.055c.037-.032.093-.058.107-.1a.815.815,0,0,1,.427-.444c.053-.029.1-.072.152-.1a.277.277,0,0,1,.23-.058.153.153,0,0,0,.185-.069c.016-.024.04-.059.064-.062a2.817,2.817,0,0,0,.5-.211.143.143,0,0,1,.088-.017.307.307,0,0,0,.342-.1c.182-.016.322-.028.462-.042.02,0,.043-.019.058-.013.314.129.673-.052.987.164l.106-.141c.075.01.164.025.253.031.137.009.233.153.4.091a2.088,2.088,0,0,1,.418-.025c.272-.035.546-.048.817-.1.042-.008.093.029.144.047a.572.572,0,0,1,.644-.176l-.133.218c.028.019.044.038.055.035.1-.021.223,0,.3-.109.021-.028.073-.032.11-.05a.441.441,0,0,1,.385,0,.381.381,0,0,0,.379-.024,1.616,1.616,0,0,1,.586-.158,6.928,6.928,0,0,1,.85-.1.484.484,0,0,1,.152,0,.645.645,0,0,0,.445-.04.408.408,0,0,1,.177-.015,1.584,1.584,0,0,0,.486,0,.351.351,0,0,1,.289.062,1.323,1.323,0,0,0,.656.194c.233.02.465.049.7.067a.278.278,0,0,0,.172-.03.35.35,0,0,1,.292-.042.774.774,0,0,0,.361-.027c.166-.047.338-.073.507-.107a.126.126,0,0,1,.061,0,1.312,1.312,0,0,0,.7-.044c.043.045.087.085.124.131a.95.95,0,0,0,.834.366c.154-.007.308,0,.46-.021a1.5,1.5,0,0,1,.6.068,3.05,3.05,0,0,0,.691.113.2.2,0,0,1,.091.007.733.733,0,0,0,.563,0,3.544,3.544,0,0,0,.787-.227c.054-.026.1-.061.165-.1l.23.067a.618.618,0,0,0,.083-.027c.092-.045.179-.1.273-.139.133-.052.216.012.244.173l.007.06c.152.058.3.118.454.174.086.031.174.057.261.083.127.038.256.068.381.111a.369.369,0,0,0,.267.024.219.219,0,0,1,.2.026,1.6,1.6,0,0,0,.825.186.831.831,0,0,1,.411.1.652.652,0,0,0,.256.092,1.555,1.555,0,0,1,.579.178.675.675,0,0,1,.219.163,1.819,1.819,0,0,1,.46.743.906.906,0,0,0,.122.245,2.063,2.063,0,0,1,.276.573,3.526,3.526,0,0,1,.152.93.271.271,0,0,1-.055.168c-.185.2-.311.458-.575.578a2.763,2.763,0,0,0-.159.323.327.327,0,0,1-.105.176.329.329,0,0,0-.09.151c-.03.084-.049.171-.071.248-.145.054-.164-.128-.3-.112a.63.63,0,0,0-.237.238.629.629,0,0,1-.334.248A.4.4,0,0,0,105.9,67c-.213-.045-.413-.079-.608-.131a.86.86,0,0,0-.54.016,1.582,1.582,0,0,1-.843.066,4.358,4.358,0,0,0-.911-.09.55.55,0,0,1-.151-.021,2.524,2.524,0,0,0-.822-.049c-.141.008-.283-.008-.425-.014-.071,0-.143-.013-.214-.01a3.894,3.894,0,0,1-.518-.017,1.618,1.618,0,0,0-.514.041.766.766,0,0,1-.471-.019.535.535,0,0,0-.177-.039,4.468,4.468,0,0,1-.908-.106.17.17,0,0,0-.089-.012,2.8,2.8,0,0,1-.76.017,6.407,6.407,0,0,1-.759-.018c-.142-.006-.284-.027-.425-.04a4.934,4.934,0,0,0-.758-.06,1.642,1.642,0,0,0-.775.109.453.453,0,0,1-.238.038.791.791,0,0,0-.332.014.136.136,0,0,1-.116-.017c-.085-.076-.17-.037-.26-.022a.22.22,0,0,1-.225-.06c-.075-.092-.175-.084-.279-.088-.355-.014-.71-.036-1.066-.054h-.244a.9.9,0,0,1-.537-.072.183.183,0,0,0-.089-.019c-.213-.011-.427-.018-.64-.031a2.759,2.759,0,0,0-.816.037.783.783,0,0,1-.509-.053.99.99,0,0,0-.51-.076,1.33,1.33,0,0,1-.487-.019.226.226,0,0,0-.121,0,5.446,5.446,0,0,1-1.12.025,1.054,1.054,0,0,1-.446-.049.536.536,0,0,0-.211-.014c-.112,0-.224.019-.336.021a4.679,4.679,0,0,1-.794-.014c-.289-.044-.585-.047-.878-.064a.535.535,0,0,0-.149.025,1.132,1.132,0,0,1-.575-.008c-.117-.033-.238-.049-.367-.074a1.521,1.521,0,0,1-.05-.693,1.57,1.57,0,0,0,.018-.785c.057-.248-.076-.479-.065-.723a.338.338,0,0,0-.02-.151,1.125,1.125,0,0,1,.019-.63.234.234,0,0,1,.031-.086c.074-.134-.007-.3.058-.418a2.609,2.609,0,0,1,.278-.316c.033-.043.027-.116.039-.175Z"/><path class="cls-2" d="M51.028,63.025c.033.037.058.093.1.107a.818.818,0,0,1,.444.427c.028.053.071.1.1.152a.283.283,0,0,1,.058.23.151.151,0,0,0,.068.184c.025.017.059.041.063.065a2.677,2.677,0,0,0,.211.5.16.16,0,0,1,.017.089.307.307,0,0,0,.1.342l.043.462c0,.02.019.043.013.058-.129.314.051.672-.164.987l.141.106c-.01.075-.025.164-.031.253-.009.137-.153.232-.092.4a2.017,2.017,0,0,1,.026.418c.035.271.048.546.1.817.008.042-.029.093-.047.144a.573.573,0,0,1,.176.644l-.218-.133c-.019.028-.038.044-.036.055.022.105,0,.223.109.3.029.021.033.073.05.11a.434.434,0,0,1,0,.385.386.386,0,0,0,.024.379,1.591,1.591,0,0,1,.158.586,6.7,6.7,0,0,1,.095.849.491.491,0,0,1,0,.153.646.646,0,0,0,.041.445.407.407,0,0,1,.015.177,1.584,1.584,0,0,0,0,.486.352.352,0,0,1-.062.289,1.3,1.3,0,0,0-.194.656c-.02.233-.049.465-.067.7a.278.278,0,0,0,.029.172.352.352,0,0,1,.043.291.779.779,0,0,0,.026.362c.048.166.074.337.108.507a.126.126,0,0,1,0,.061,1.322,1.322,0,0,0,.043.7c-.045.042-.085.087-.131.124a.955.955,0,0,0-.366.834c.008.153.006.307.022.46a1.509,1.509,0,0,1-.068.6,2.892,2.892,0,0,0-.113.691.217.217,0,0,1-.007.091.724.724,0,0,0,0,.563,3.491,3.491,0,0,0,.227.787c.025.054.061.1.1.165l-.068.23a.618.618,0,0,0,.027.083c.046.092.1.178.139.273.052.133-.011.216-.172.244a.173.173,0,0,0-.06.007c-.058.151-.118.3-.174.454-.032.086-.058.173-.083.261-.038.127-.068.256-.111.381a.368.368,0,0,0-.024.267.219.219,0,0,1-.026.2,1.6,1.6,0,0,0-.186.826.867.867,0,0,1-.1.411.642.642,0,0,0-.092.255,1.562,1.562,0,0,1-.179.58.658.658,0,0,1-.162.219,1.829,1.829,0,0,1-.744.46.9.9,0,0,0-.244.122,2.135,2.135,0,0,1-.573.276,3.54,3.54,0,0,1-.931.152.272.272,0,0,1-.167-.055c-.2-.185-.458-.311-.578-.575a2.763,2.763,0,0,0-.323-.159.324.324,0,0,1-.176-.105.329.329,0,0,0-.151-.09c-.084-.03-.172-.049-.249-.071-.053-.146.129-.164.112-.3a.613.613,0,0,0-.237-.237.629.629,0,0,1-.248-.334.4.4,0,0,0-.317-.313c.046-.214.08-.413.132-.608a.853.853,0,0,0-.017-.54,1.582,1.582,0,0,1-.065-.843,4.291,4.291,0,0,0,.089-.911.551.551,0,0,1,.022-.151,2.581,2.581,0,0,0,.049-.822,4.014,4.014,0,0,1,.014-.425c0-.072.012-.143.01-.214a4.07,4.07,0,0,1,.016-.518,1.615,1.615,0,0,0-.041-.514.769.769,0,0,1,.019-.479.542.542,0,0,0,.04-.177,4.331,4.331,0,0,1,.106-.908.17.17,0,0,0,.012-.089,2.8,2.8,0,0,1-.018-.76A6.407,6.407,0,0,1,46.471,76c.007-.142.028-.284.041-.425a5.063,5.063,0,0,0,.06-.758,1.657,1.657,0,0,0-.109-.776.444.444,0,0,1-.038-.238.787.787,0,0,0-.014-.331.139.139,0,0,1,.016-.116c.077-.085.038-.171.022-.26a.218.218,0,0,1,.061-.225c.092-.075.084-.175.088-.279.013-.355.036-.711.053-1.066V71.28a.883.883,0,0,1,.073-.536.2.2,0,0,0,.019-.089c.011-.213.017-.427.031-.64a2.756,2.756,0,0,0-.037-.816.783.783,0,0,1,.052-.509,1.014,1.014,0,0,0,.077-.51,1.287,1.287,0,0,1,.019-.487.248.248,0,0,0,0-.121,5.378,5.378,0,0,1-.026-1.12,1.069,1.069,0,0,1,.049-.446.538.538,0,0,0,.015-.211c0-.112-.019-.224-.021-.336a4.386,4.386,0,0,1,.014-.794c.044-.289.047-.585.063-.878a.534.534,0,0,0-.024-.149,1.132,1.132,0,0,1,.008-.575c.032-.117.049-.238.074-.367a1.493,1.493,0,0,1,.693-.05,1.577,1.577,0,0,0,.784.018c.248.056.48-.076.724-.065a.352.352,0,0,0,.151-.02,1.125,1.125,0,0,1,.63.019.217.217,0,0,1,.086.031c.134.074.3-.007.418.058a2.609,2.609,0,0,1,.316.278c.043.033.115.027.174.039Z"/><path class="cls-2" d="M51.028,95.411c.033.037.058.093.1.108a.813.813,0,0,1,.444.426c.028.054.071.1.1.152a.287.287,0,0,1,.058.231.151.151,0,0,0,.068.184c.025.017.059.04.063.064a2.677,2.677,0,0,0,.211.5c.01.029.026.064.017.088a.309.309,0,0,0,.1.343c.017.182.029.322.043.461,0,.02.019.044.013.059-.129.314.051.672-.164.986l.141.106c-.01.076-.025.164-.031.253-.009.138-.153.233-.092.4a2,2,0,0,1,.026.417c.035.272.048.547.1.817.008.043-.029.094-.047.145a.573.573,0,0,1,.176.644l-.218-.133c-.019.028-.038.044-.036.055.022.1,0,.222.109.3.029.02.033.073.05.11a.434.434,0,0,1,0,.385.386.386,0,0,0,.024.379,1.586,1.586,0,0,1,.158.585,6.739,6.739,0,0,1,.095.85.484.484,0,0,1,0,.152.646.646,0,0,0,.041.445.411.411,0,0,1,.015.178,1.584,1.584,0,0,0,0,.486.349.349,0,0,1-.062.288,1.3,1.3,0,0,0-.194.657c-.02.233-.049.465-.067.7a.285.285,0,0,0,.029.172.352.352,0,0,1,.043.291.779.779,0,0,0,.026.362c.048.165.074.337.108.506a.126.126,0,0,1,0,.061,1.322,1.322,0,0,0,.043.7c-.045.043-.085.087-.131.125a.955.955,0,0,0-.366.834c.008.153.006.307.022.459a1.509,1.509,0,0,1-.068.6,2.892,2.892,0,0,0-.113.691.211.211,0,0,1-.007.09.724.724,0,0,0,0,.563,3.5,3.5,0,0,0,.227.788c.025.054.061.1.1.165l-.068.229a.682.682,0,0,0,.027.084c.046.091.1.178.139.273.052.132-.011.216-.172.244a.173.173,0,0,0-.06.007c-.058.151-.118.3-.174.454-.032.085-.058.173-.083.261-.038.126-.068.256-.111.381a.368.368,0,0,0-.024.267.219.219,0,0,1-.026.2,1.6,1.6,0,0,0-.186.825.867.867,0,0,1-.1.411.652.652,0,0,0-.092.256,1.562,1.562,0,0,1-.179.58.658.658,0,0,1-.162.219,1.829,1.829,0,0,1-.744.46.927.927,0,0,0-.244.121,2.077,2.077,0,0,1-.573.276,3.459,3.459,0,0,1-.931.152.266.266,0,0,1-.167-.055c-.2-.185-.458-.311-.578-.575a2.763,2.763,0,0,0-.323-.159.313.313,0,0,1-.176-.1.324.324,0,0,0-.151-.089c-.084-.031-.172-.05-.249-.071-.053-.146.129-.165.112-.3a.623.623,0,0,0-.237-.238.615.615,0,0,1-.248-.334.4.4,0,0,0-.317-.313c.046-.213.08-.412.132-.607a.853.853,0,0,0-.017-.54,1.582,1.582,0,0,1-.065-.843,4.3,4.3,0,0,0,.089-.912.551.551,0,0,1,.022-.151,2.576,2.576,0,0,0,.049-.821,4.033,4.033,0,0,1,.014-.426c0-.071.012-.142.01-.213a4.085,4.085,0,0,1,.016-.519,1.615,1.615,0,0,0-.041-.514.766.766,0,0,1,.019-.478.548.548,0,0,0,.04-.178,4.314,4.314,0,0,1,.106-.907.175.175,0,0,0,.012-.09,2.838,2.838,0,0,1-.018-.759,6.407,6.407,0,0,1,.018-.759c.007-.142.028-.284.041-.426a5.063,5.063,0,0,0,.06-.758,1.666,1.666,0,0,0-.109-.775.454.454,0,0,1-.038-.238.807.807,0,0,0-.014-.332.139.139,0,0,1,.016-.116c.077-.085.038-.17.022-.259a.218.218,0,0,1,.061-.225c.092-.075.084-.175.088-.279.013-.356.036-.711.053-1.066v-.245a.887.887,0,0,1,.073-.537.194.194,0,0,0,.019-.088c.011-.214.017-.427.031-.641a2.751,2.751,0,0,0-.037-.815.786.786,0,0,1,.052-.51,1.01,1.01,0,0,0,.077-.509,1.287,1.287,0,0,1,.019-.487.252.252,0,0,0,0-.122,5.378,5.378,0,0,1-.026-1.12,1.066,1.066,0,0,1,.049-.445.538.538,0,0,0,.015-.211c0-.113-.019-.225-.021-.337a4.376,4.376,0,0,1,.014-.793c.044-.29.047-.585.063-.879a.493.493,0,0,0-.024-.148,1.132,1.132,0,0,1,.008-.575c.032-.117.049-.238.074-.368a1.493,1.493,0,0,1,.693-.049,1.566,1.566,0,0,0,.784.017c.248.057.48-.076.724-.064a.352.352,0,0,0,.151-.02c.214-.1.421,0,.63.018a.235.235,0,0,1,.086.032c.134.073.3-.008.418.057a2.687,2.687,0,0,1,.316.278.456.456,0,0,0,.174.04Z"/><path class="cls-2" d="M51.028,127.8c.033.037.058.093.1.107a.818.818,0,0,1,.444.427c.028.054.071.1.1.152a.287.287,0,0,1,.058.231.151.151,0,0,0,.068.184c.025.017.059.04.063.064a2.677,2.677,0,0,0,.211.5.157.157,0,0,1,.017.088.309.309,0,0,0,.1.343l.043.461c0,.02.019.044.013.059-.129.313.051.672-.164.986l.141.106c-.01.076-.025.164-.031.253-.009.137-.153.233-.092.4a2.017,2.017,0,0,1,.026.418c.035.272.048.546.1.817.008.043-.029.094-.047.144a.575.575,0,0,1,.176.644l-.218-.132c-.019.028-.038.043-.036.054.022.1,0,.223.109.3.029.02.033.072.05.109a.434.434,0,0,1,0,.385.386.386,0,0,0,.024.379,1.591,1.591,0,0,1,.158.586,6.739,6.739,0,0,1,.095.85.484.484,0,0,1,0,.152.646.646,0,0,0,.041.445.411.411,0,0,1,.015.178,1.578,1.578,0,0,0,0,.485.352.352,0,0,1-.062.289,1.3,1.3,0,0,0-.194.656c-.02.233-.049.465-.067.7a.276.276,0,0,0,.029.171.354.354,0,0,1,.043.292.779.779,0,0,0,.026.362c.048.165.074.337.108.506a.126.126,0,0,1,0,.061,1.322,1.322,0,0,0,.043.7c-.045.043-.085.087-.131.124a.956.956,0,0,0-.366.835c.008.153.006.307.022.459a1.509,1.509,0,0,1-.068.6,2.943,2.943,0,0,0-.113.691.217.217,0,0,1-.007.091.724.724,0,0,0,0,.563,3.491,3.491,0,0,0,.227.787c.025.055.061.1.1.166l-.068.229a.618.618,0,0,0,.027.083c.046.092.1.179.139.273.052.133-.011.217-.172.244a.173.173,0,0,0-.06.007c-.058.152-.118.3-.174.454-.032.086-.058.174-.083.261-.038.127-.068.256-.111.381a.368.368,0,0,0-.024.267.222.222,0,0,1-.026.2,1.6,1.6,0,0,0-.186.825.867.867,0,0,1-.1.411.652.652,0,0,0-.092.256,1.557,1.557,0,0,1-.179.579.658.658,0,0,1-.162.219,1.831,1.831,0,0,1-.744.461.869.869,0,0,0-.244.121,2.077,2.077,0,0,1-.573.276,3.54,3.54,0,0,1-.931.152.266.266,0,0,1-.167-.055c-.2-.185-.458-.311-.578-.575a2.763,2.763,0,0,0-.323-.159.313.313,0,0,1-.176-.1.319.319,0,0,0-.151-.089c-.084-.031-.172-.05-.249-.072-.053-.145.129-.164.112-.3a.623.623,0,0,0-.237-.238.624.624,0,0,1-.248-.334.4.4,0,0,0-.317-.313c.046-.213.08-.413.132-.608a.85.85,0,0,0-.017-.539,1.586,1.586,0,0,1-.065-.844,4.291,4.291,0,0,0,.089-.911.551.551,0,0,1,.022-.151,2.576,2.576,0,0,0,.049-.821,4.033,4.033,0,0,1,.014-.426c0-.071.012-.143.01-.213a4.085,4.085,0,0,1,.016-.519,1.615,1.615,0,0,0-.041-.514.769.769,0,0,1,.019-.479.542.542,0,0,0,.04-.177,4.314,4.314,0,0,1,.106-.907.175.175,0,0,0,.012-.09,2.838,2.838,0,0,1-.018-.759,6.419,6.419,0,0,1,.018-.76c.007-.142.028-.283.041-.425a5.063,5.063,0,0,0,.06-.758,1.653,1.653,0,0,0-.109-.775.454.454,0,0,1-.038-.238.807.807,0,0,0-.014-.332.139.139,0,0,1,.016-.116c.077-.085.038-.17.022-.26a.218.218,0,0,1,.061-.225c.092-.074.084-.175.088-.279.013-.355.036-.71.053-1.066v-.244a.887.887,0,0,1,.073-.537.2.2,0,0,0,.019-.089c.011-.213.017-.427.031-.64a2.756,2.756,0,0,0-.037-.816.783.783,0,0,1,.052-.509,1.015,1.015,0,0,0,.077-.51,1.287,1.287,0,0,1,.019-.487.248.248,0,0,0,0-.121,5.378,5.378,0,0,1-.026-1.12,1.066,1.066,0,0,1,.049-.445.542.542,0,0,0,.015-.212c0-.112-.019-.224-.021-.336a4.375,4.375,0,0,1,.014-.793c.044-.29.047-.586.063-.879a.534.534,0,0,0-.024-.149,1.132,1.132,0,0,1,.008-.575c.032-.117.049-.238.074-.367a1.493,1.493,0,0,1,.693-.05,1.555,1.555,0,0,0,.784.018c.248.057.48-.076.724-.065a.338.338,0,0,0,.151-.02,1.116,1.116,0,0,1,.63.019.24.24,0,0,1,.086.031c.134.074.3-.007.418.058a2.609,2.609,0,0,1,.316.278c.043.033.115.027.174.039Z"/><path class="cls-2" d="M48.227,148.42c.037-.033.093-.058.107-.1a.815.815,0,0,1,.427-.444c.053-.028.1-.071.152-.1a.285.285,0,0,1,.23-.058.15.15,0,0,0,.184-.068c.017-.025.04-.059.064-.063a2.677,2.677,0,0,0,.5-.211c.029-.009.064-.026.088-.017a.308.308,0,0,0,.343-.1l.462-.042c.02,0,.043-.02.058-.014.314.129.672-.051.987.164l.106-.14c.075.009.164.024.253.03.137.01.232.153.4.092a2.017,2.017,0,0,1,.418-.026c.271-.035.546-.048.817-.1.042-.008.093.029.144.047a.572.572,0,0,1,.644-.176l-.133.218c.028.019.044.038.055.036.1-.022.223,0,.3-.109.021-.029.073-.033.11-.05a.434.434,0,0,1,.385,0,.386.386,0,0,0,.379-.024,1.572,1.572,0,0,1,.586-.158,6.544,6.544,0,0,1,.849-.095.437.437,0,0,1,.153,0,.646.646,0,0,0,.445-.041.441.441,0,0,1,.177-.015,1.524,1.524,0,0,0,.486,0,.348.348,0,0,1,.289.063,1.323,1.323,0,0,0,.656.194c.233.019.465.048.7.067a.293.293,0,0,0,.172-.03.348.348,0,0,1,.291-.043.779.779,0,0,0,.362-.026c.166-.048.337-.074.507-.108a.126.126,0,0,1,.061,0,1.3,1.3,0,0,0,.7-.043c.043.045.088.085.125.131a.955.955,0,0,0,.834.366c.153-.008.307-.006.459-.022a1.544,1.544,0,0,1,.6.068,2.943,2.943,0,0,0,.691.113.2.2,0,0,1,.091.008.733.733,0,0,0,.563,0,3.528,3.528,0,0,0,.787-.227c.054-.025.1-.061.165-.1l.23.068a.618.618,0,0,0,.083-.027c.092-.046.178-.1.273-.139.133-.052.216.012.244.173l.007.059c.151.059.3.119.454.174.086.032.173.058.261.084.127.037.256.067.381.11a.364.364,0,0,0,.267.025.216.216,0,0,1,.2.025,1.6,1.6,0,0,0,.826.187.841.841,0,0,1,.411.1.684.684,0,0,0,.255.091,1.6,1.6,0,0,1,.58.179.648.648,0,0,1,.219.162,1.829,1.829,0,0,1,.46.744.9.9,0,0,0,.122.244,2.135,2.135,0,0,1,.276.573,3.5,3.5,0,0,1,.151.931.259.259,0,0,1-.054.167c-.185.2-.311.458-.575.578a2.559,2.559,0,0,0-.159.324.314.314,0,0,1-.1.175.332.332,0,0,0-.09.152c-.03.083-.05.171-.071.248-.146.053-.164-.129-.3-.112a.6.6,0,0,0-.237.238.634.634,0,0,1-.334.248.392.392,0,0,0-.313.316c-.214-.046-.413-.08-.608-.132a.853.853,0,0,0-.54.017,1.581,1.581,0,0,1-.843.065,4.3,4.3,0,0,0-.912-.089.585.585,0,0,1-.15-.022,2.552,2.552,0,0,0-.822-.049,4.014,4.014,0,0,1-.425-.014c-.072,0-.143-.012-.214-.01a4.07,4.07,0,0,1-.518-.016,1.618,1.618,0,0,0-.514.041.77.77,0,0,1-.479-.019.536.536,0,0,0-.177-.04,4.331,4.331,0,0,1-.908-.106.17.17,0,0,0-.089-.012,2.764,2.764,0,0,1-.76.018,6.407,6.407,0,0,1-.759-.018c-.142-.007-.284-.027-.426-.041a4.8,4.8,0,0,0-.757-.06,1.657,1.657,0,0,0-.776.109.453.453,0,0,1-.238.038.8.8,0,0,0-.331.015.144.144,0,0,1-.116-.017c-.085-.077-.171-.038-.26-.022a.218.218,0,0,1-.225-.061c-.075-.091-.175-.084-.279-.088-.356-.013-.711-.036-1.066-.053h-.245a.891.891,0,0,1-.536-.072.184.184,0,0,0-.089-.02c-.213-.011-.427-.017-.64-.031a2.793,2.793,0,0,0-.816.037.792.792,0,0,1-.51-.052,1.01,1.01,0,0,0-.509-.077,1.309,1.309,0,0,1-.487-.019.248.248,0,0,0-.121,0,5.446,5.446,0,0,1-1.12.026,1.054,1.054,0,0,1-.446-.049.518.518,0,0,0-.211-.014c-.112,0-.224.018-.336.021a4.578,4.578,0,0,1-.794-.015c-.289-.043-.585-.046-.878-.063a.47.47,0,0,0-.149.024,1.132,1.132,0,0,1-.575-.008c-.117-.032-.238-.049-.367-.074a1.494,1.494,0,0,1-.05-.693,1.566,1.566,0,0,0,.018-.784c.056-.248-.076-.48-.065-.724a.336.336,0,0,0-.02-.151,1.134,1.134,0,0,1,.018-.63.235.235,0,0,1,.032-.086c.074-.134-.008-.3.058-.418a2.535,2.535,0,0,1,.278-.316c.033-.043.027-.115.039-.174Z"/><path class="cls-2" d="M80.613,148.42c.037-.033.093-.058.108-.1a.816.816,0,0,1,.426-.444c.054-.028.1-.071.152-.1a.287.287,0,0,1,.231-.058.15.15,0,0,0,.184-.068c.017-.025.04-.059.064-.063a2.677,2.677,0,0,0,.5-.211c.029-.009.064-.026.088-.017a.308.308,0,0,0,.343-.1l.461-.042c.02,0,.044-.02.059-.014.314.129.672-.051.986.164l.106-.14c.076.009.164.024.253.03.138.01.233.153.4.092a2.007,2.007,0,0,1,.417-.026c.272-.035.547-.048.817-.1.043-.008.094.029.145.047a.57.57,0,0,1,.643-.176l-.132.218c.028.019.043.038.055.036.1-.022.222,0,.3-.109.02-.029.073-.033.11-.05a.434.434,0,0,1,.385,0,.386.386,0,0,0,.379-.024,1.572,1.572,0,0,1,.585-.158,6.559,6.559,0,0,1,.85-.095.431.431,0,0,1,.152,0,.646.646,0,0,0,.445-.041.446.446,0,0,1,.178-.015,1.524,1.524,0,0,0,.486,0,.345.345,0,0,1,.288.063,1.337,1.337,0,0,0,.657.194c.233.019.465.048.7.067a.293.293,0,0,0,.172-.03.348.348,0,0,1,.291-.043.779.779,0,0,0,.362-.026c.165-.048.337-.074.506-.108a.126.126,0,0,1,.061,0,1.312,1.312,0,0,0,.7-.043c.043.045.087.085.125.131a.955.955,0,0,0,.834.366c.153-.008.307-.006.459-.022a1.544,1.544,0,0,1,.6.068,2.943,2.943,0,0,0,.691.113.184.184,0,0,1,.09.008.733.733,0,0,0,.563,0,3.536,3.536,0,0,0,.788-.227c.054-.025.1-.061.165-.1l.229.068a.588.588,0,0,0,.084-.027c.091-.046.178-.1.273-.139.132-.052.216.012.243.173a.56.56,0,0,0,.007.059c.152.059.3.119.455.174.085.032.173.058.261.084.126.037.256.067.38.11a.374.374,0,0,0,.267.025.216.216,0,0,1,.2.025,1.6,1.6,0,0,0,.825.187.831.831,0,0,1,.411.1.683.683,0,0,0,.256.091,1.6,1.6,0,0,1,.58.179.644.644,0,0,1,.218.162,1.82,1.82,0,0,1,.461.744.927.927,0,0,0,.121.244,2.063,2.063,0,0,1,.276.573,3.459,3.459,0,0,1,.152.931.266.266,0,0,1-.055.167c-.185.2-.311.458-.575.578a2.777,2.777,0,0,0-.159.324.311.311,0,0,1-.1.175.33.33,0,0,0-.089.152c-.031.083-.05.171-.071.248-.146.053-.165-.129-.3-.112a.619.619,0,0,0-.238.238.621.621,0,0,1-.334.248.392.392,0,0,0-.313.316c-.213-.046-.412-.08-.607-.132a.853.853,0,0,0-.54.017,1.581,1.581,0,0,1-.843.065,4.3,4.3,0,0,0-.912-.089.593.593,0,0,1-.151-.022,2.546,2.546,0,0,0-.821-.049c-.142,0-.284,0-.426-.014-.071,0-.142-.012-.213-.01a4.085,4.085,0,0,1-.519-.016,1.618,1.618,0,0,0-.514.041.766.766,0,0,1-.478-.019.523.523,0,0,0-.178-.04,4.33,4.33,0,0,1-.907-.106.172.172,0,0,0-.09-.012,2.757,2.757,0,0,1-.759.018,6.407,6.407,0,0,1-.759-.018c-.143-.007-.284-.027-.426-.041a4.812,4.812,0,0,0-.758-.06,1.655,1.655,0,0,0-.775.109.453.453,0,0,1-.238.038.807.807,0,0,0-.332.015.144.144,0,0,1-.116-.017c-.085-.077-.17-.038-.259-.022a.218.218,0,0,1-.225-.061c-.075-.091-.175-.084-.279-.088-.356-.013-.711-.036-1.066-.053H88.87a.91.91,0,0,1-.537-.072.178.178,0,0,0-.088-.02c-.214-.011-.427-.017-.641-.031a2.751,2.751,0,0,0-.815.037.792.792,0,0,1-.51-.052,1.01,1.01,0,0,0-.509-.077,1.309,1.309,0,0,1-.487-.019.252.252,0,0,0-.122,0,5.446,5.446,0,0,1-1.12.026,1.05,1.05,0,0,1-.445-.049.518.518,0,0,0-.211-.014c-.113,0-.225.018-.337.021a4.566,4.566,0,0,1-.793-.015c-.29-.043-.585-.046-.879-.063a.47.47,0,0,0-.149.024,1.128,1.128,0,0,1-.574-.008c-.117-.032-.238-.049-.368-.074a1.521,1.521,0,0,1-.05-.693,1.544,1.544,0,0,0,.018-.784c.057-.248-.076-.48-.064-.724a.336.336,0,0,0-.02-.151c-.1-.214,0-.421.018-.63a.235.235,0,0,1,.032-.086c.073-.134-.008-.3.057-.418a2.609,2.609,0,0,1,.278-.316.438.438,0,0,0,.04-.174Z"/><path class="cls-2" d="M49.283,60.331c.037-.033.093-.058.108-.1a.82.82,0,0,1,.426-.444c.054-.028.1-.071.152-.1a.287.287,0,0,1,.231-.058.149.149,0,0,0,.184-.068c.017-.025.04-.059.064-.063a2.585,2.585,0,0,0,.5-.211c.029-.009.064-.026.088-.017a.307.307,0,0,0,.343-.1l.461-.042c.02,0,.044-.02.059-.014.314.129.672-.051.986.164l.106-.14c.076.009.164.024.253.03.138.01.233.153.4.092a2.159,2.159,0,0,1,.417-.026c.272-.035.547-.048.817-.1.043-.008.094.029.145.047a.573.573,0,0,1,.643-.176l-.132.218c.028.019.043.038.055.036.1-.022.222,0,.3-.109.02-.029.073-.033.11-.05a.434.434,0,0,1,.385,0,.381.381,0,0,0,.379-.024,1.611,1.611,0,0,1,.585-.158,6.928,6.928,0,0,1,.85-.095.484.484,0,0,1,.152,0,.634.634,0,0,0,.445-.041.446.446,0,0,1,.178-.015,1.524,1.524,0,0,0,.486,0,.345.345,0,0,1,.288.063,1.327,1.327,0,0,0,.657.194c.233.019.465.048.7.067a.285.285,0,0,0,.172-.03.352.352,0,0,1,.291-.043.754.754,0,0,0,.362-.026c.165-.048.337-.074.506-.108a.157.157,0,0,1,.061,0,1.3,1.3,0,0,0,.7-.043c.043.045.087.085.125.131a.95.95,0,0,0,.834.366c.153-.008.307-.006.459-.022a1.541,1.541,0,0,1,.6.068,2.843,2.843,0,0,0,.691.113.211.211,0,0,1,.09.008.724.724,0,0,0,.563,0,3.433,3.433,0,0,0,.788-.227c.054-.025.1-.061.165-.1l.229.068a.412.412,0,0,0,.084-.027c.091-.046.178-.1.273-.139.132-.052.216.012.243.173a.56.56,0,0,0,.007.059c.152.059.3.119.455.174.085.032.173.058.261.084.126.037.256.067.38.11a.364.364,0,0,0,.267.025.222.222,0,0,1,.2.025,1.58,1.58,0,0,0,.825.187.841.841,0,0,1,.411.1.65.65,0,0,0,.256.091,1.6,1.6,0,0,1,.58.179.658.658,0,0,1,.218.162,1.827,1.827,0,0,1,.461.744.927.927,0,0,0,.121.244,2.077,2.077,0,0,1,.276.573,3.459,3.459,0,0,1,.152.931.257.257,0,0,1-.055.167c-.185.2-.311.458-.575.578a3.036,3.036,0,0,0-.159.324.308.308,0,0,1-.1.175.341.341,0,0,0-.089.152c-.031.083-.05.171-.071.248-.146.053-.165-.129-.3-.112a.632.632,0,0,0-.238.238.612.612,0,0,1-.334.248.4.4,0,0,0-.313.316c-.213-.046-.412-.08-.607-.132a.867.867,0,0,0-.54.017,1.572,1.572,0,0,1-.843.065,4.435,4.435,0,0,0-.912-.089.516.516,0,0,1-.151-.022,2.6,2.6,0,0,0-.821-.049,4.042,4.042,0,0,1-.426-.014c-.071,0-.142-.012-.213-.01a3.914,3.914,0,0,1-.519-.016,1.618,1.618,0,0,0-.514.041.759.759,0,0,1-.478-.019.575.575,0,0,0-.178-.04,4.2,4.2,0,0,1-.907-.106.2.2,0,0,0-.09-.012,2.757,2.757,0,0,1-.759.018,6.412,6.412,0,0,1-.759-.018c-.143-.007-.284-.027-.426-.041a5.063,5.063,0,0,0-.758-.06,1.681,1.681,0,0,0-.775.109.434.434,0,0,1-.238.038.809.809,0,0,0-.332.015.14.14,0,0,1-.116-.017c-.085-.077-.17-.038-.259-.022a.218.218,0,0,1-.225-.061c-.075-.091-.175-.084-.279-.088-.356-.013-.711-.036-1.066-.053H57.54A.9.9,0,0,1,57,64.637a.189.189,0,0,0-.088-.02c-.214-.011-.427-.017-.641-.031a2.821,2.821,0,0,0-.815.037.786.786,0,0,1-.51-.052,1.019,1.019,0,0,0-.509-.077,1.268,1.268,0,0,1-.487-.019.252.252,0,0,0-.122,0,5.309,5.309,0,0,1-1.12.026,1.05,1.05,0,0,1-.445-.049.536.536,0,0,0-.211-.014c-.113,0-.225.018-.337.021a4.378,4.378,0,0,1-.793-.015c-.29-.043-.585-.046-.879-.063a.54.54,0,0,0-.149.024,1.128,1.128,0,0,1-.574-.008c-.117-.032-.238-.049-.368-.074a1.52,1.52,0,0,1-.05-.693,1.532,1.532,0,0,0,.018-.784c.057-.248-.076-.48-.064-.724a.34.34,0,0,0-.02-.151c-.1-.214,0-.421.018-.63a.249.249,0,0,1,.032-.086c.073-.134-.008-.3.057-.418a2.781,2.781,0,0,1,.278-.316.434.434,0,0,0,.04-.174Z"/><path class="cls-2" d="M120.2,148.42c.037-.033.093-.058.107-.1a.818.818,0,0,1,.427-.444c.054-.028.1-.071.152-.1a.285.285,0,0,1,.23-.058.152.152,0,0,0,.185-.068c.017-.025.04-.059.064-.063a2.677,2.677,0,0,0,.5-.211c.028-.009.063-.026.088-.017a.308.308,0,0,0,.343-.1l.461-.042c.02,0,.044-.02.059-.014.313.129.672-.051.986.164l.106-.14c.076.009.164.024.253.03.137.01.233.153.4.092a2.017,2.017,0,0,1,.418-.026c.272-.035.546-.048.817-.1.042-.008.094.029.144.047a.573.573,0,0,1,.644-.176l-.132.218c.028.019.043.038.054.036.105-.022.223,0,.3-.109.021-.029.073-.033.11-.05a.434.434,0,0,1,.385,0,.386.386,0,0,0,.379-.024,1.572,1.572,0,0,1,.586-.158,6.559,6.559,0,0,1,.85-.095.431.431,0,0,1,.152,0,.646.646,0,0,0,.445-.041.446.446,0,0,1,.178-.015,1.518,1.518,0,0,0,.485,0,.348.348,0,0,1,.289.063,1.323,1.323,0,0,0,.656.194c.233.019.465.048.7.067a.29.29,0,0,0,.171-.03.35.35,0,0,1,.292-.043.779.779,0,0,0,.362-.026c.165-.048.337-.074.506-.108a.126.126,0,0,1,.061,0,1.312,1.312,0,0,0,.7-.043c.043.045.087.085.124.131a.957.957,0,0,0,.835.366c.153-.008.307-.006.459-.022a1.525,1.525,0,0,1,.6.068,2.943,2.943,0,0,0,.691.113.2.2,0,0,1,.091.008.733.733,0,0,0,.563,0,3.528,3.528,0,0,0,.787-.227c.055-.025.1-.061.166-.1l.229.068a.618.618,0,0,0,.083-.027c.092-.046.179-.1.273-.139.133-.052.217.012.244.173a.168.168,0,0,0,.007.059c.152.059.3.119.454.174.086.032.174.058.261.084.127.037.256.067.381.11a.364.364,0,0,0,.267.025.216.216,0,0,1,.2.025,1.6,1.6,0,0,0,.825.187.831.831,0,0,1,.411.1.683.683,0,0,0,.256.091,1.575,1.575,0,0,1,.579.179.635.635,0,0,1,.219.162,1.82,1.82,0,0,1,.461.744.927.927,0,0,0,.121.244,2.063,2.063,0,0,1,.276.573,3.54,3.54,0,0,1,.152.931.266.266,0,0,1-.055.167c-.185.2-.311.458-.575.578a2.777,2.777,0,0,0-.159.324.311.311,0,0,1-.1.175.322.322,0,0,0-.089.152c-.031.083-.05.171-.072.248-.145.053-.164-.129-.3-.112a.612.612,0,0,0-.238.238.629.629,0,0,1-.334.248.392.392,0,0,0-.313.316c-.213-.046-.413-.08-.608-.132a.85.85,0,0,0-.539.017,1.585,1.585,0,0,1-.844.065,4.291,4.291,0,0,0-.911-.089.593.593,0,0,1-.151-.022,2.546,2.546,0,0,0-.821-.049,4.042,4.042,0,0,1-.426-.014c-.071,0-.143-.012-.213-.01a4.085,4.085,0,0,1-.519-.016,1.618,1.618,0,0,0-.514.041.77.77,0,0,1-.479-.019.513.513,0,0,0-.177-.04,4.33,4.33,0,0,1-.907-.106.175.175,0,0,0-.09-.012,2.757,2.757,0,0,1-.759.018,6.424,6.424,0,0,1-.76-.018c-.142-.007-.283-.027-.425-.041a4.812,4.812,0,0,0-.758-.06,1.655,1.655,0,0,0-.775.109.453.453,0,0,1-.238.038.807.807,0,0,0-.332.015.144.144,0,0,1-.116-.017c-.085-.077-.17-.038-.26-.022a.22.22,0,0,1-.225-.061c-.074-.091-.175-.084-.279-.088-.355-.013-.71-.036-1.066-.053h-.244a.91.91,0,0,1-.537-.072.184.184,0,0,0-.089-.02c-.213-.011-.427-.017-.64-.031a2.793,2.793,0,0,0-.816.037.789.789,0,0,1-.509-.052,1.014,1.014,0,0,0-.51-.077,1.309,1.309,0,0,1-.487-.019.248.248,0,0,0-.121,0,5.446,5.446,0,0,1-1.12.026,1.05,1.05,0,0,1-.445-.049.523.523,0,0,0-.212-.014c-.112,0-.224.018-.336.021a4.566,4.566,0,0,1-.793-.015c-.29-.043-.586-.046-.879-.063a.47.47,0,0,0-.149.024,1.132,1.132,0,0,1-.575-.008c-.117-.032-.238-.049-.367-.074a1.507,1.507,0,0,1-.05-.693,1.555,1.555,0,0,0,.018-.784c.057-.248-.076-.48-.065-.724a.31.31,0,0,0-.02-.151,1.125,1.125,0,0,1,.019-.63.253.253,0,0,1,.031-.086c.074-.134-.007-.3.058-.418a2.535,2.535,0,0,1,.278-.316c.033-.043.027-.115.039-.174Z"/><path class="cls-2" d="M163.379,148.42c.037-.033.093-.058.108-.1a.816.816,0,0,1,.426-.444c.054-.028.1-.071.152-.1a.287.287,0,0,1,.231-.058.15.15,0,0,0,.184-.068c.017-.025.04-.059.064-.063a2.677,2.677,0,0,0,.5-.211c.028-.009.064-.026.088-.017a.308.308,0,0,0,.343-.1l.461-.042c.02,0,.044-.02.059-.014.314.129.672-.051.986.164l.106-.14c.076.009.164.024.253.03.138.01.233.153.4.092a2.017,2.017,0,0,1,.418-.026c.272-.035.547-.048.817-.1.043-.008.094.029.145.047a.57.57,0,0,1,.643-.176l-.132.218c.028.019.043.038.055.036.1-.022.222,0,.3-.109.02-.029.073-.033.11-.05a.434.434,0,0,1,.385,0,.386.386,0,0,0,.379-.024,1.572,1.572,0,0,1,.585-.158,6.559,6.559,0,0,1,.85-.095.431.431,0,0,1,.152,0,.646.646,0,0,0,.445-.041.446.446,0,0,1,.178-.015,1.518,1.518,0,0,0,.485,0,.348.348,0,0,1,.289.063,1.327,1.327,0,0,0,.657.194c.232.019.465.048.7.067a.293.293,0,0,0,.172-.03.348.348,0,0,1,.291-.043.779.779,0,0,0,.362-.026c.165-.048.337-.074.506-.108a.126.126,0,0,1,.061,0,1.312,1.312,0,0,0,.7-.043c.043.045.087.085.124.131a.957.957,0,0,0,.835.366c.153-.008.307-.006.459-.022a1.544,1.544,0,0,1,.6.068,2.943,2.943,0,0,0,.691.113.184.184,0,0,1,.09.008.733.733,0,0,0,.563,0,3.528,3.528,0,0,0,.787-.227c.057-.031.112-.064.166-.1l.229.068a.588.588,0,0,0,.084-.027c.091-.046.178-.1.272-.139.133-.052.217.012.244.173a.56.56,0,0,0,.007.059c.152.059.3.119.455.174.085.032.173.058.26.084.127.037.256.067.381.11a.374.374,0,0,0,.267.025.216.216,0,0,1,.2.025,1.6,1.6,0,0,0,.825.187.831.831,0,0,1,.411.1.683.683,0,0,0,.256.091,1.575,1.575,0,0,1,.579.179.635.635,0,0,1,.219.162,1.82,1.82,0,0,1,.461.744.927.927,0,0,0,.121.244,2.063,2.063,0,0,1,.276.573,3.459,3.459,0,0,1,.152.931.266.266,0,0,1-.055.167c-.185.2-.311.458-.575.578a2.777,2.777,0,0,0-.159.324.31.31,0,0,1-.1.175.322.322,0,0,0-.089.152c-.031.083-.05.171-.072.248-.145.053-.164-.129-.3-.112a.619.619,0,0,0-.238.238.621.621,0,0,1-.334.248.392.392,0,0,0-.313.316c-.213-.046-.413-.08-.607-.132a.853.853,0,0,0-.54.017,1.585,1.585,0,0,1-.844.065,4.291,4.291,0,0,0-.911-.089.593.593,0,0,1-.151-.022,2.545,2.545,0,0,0-.821-.049c-.142,0-.284,0-.426-.014-.071,0-.142-.012-.213-.01a4.085,4.085,0,0,1-.519-.016,1.618,1.618,0,0,0-.514.041.766.766,0,0,1-.478-.019.523.523,0,0,0-.178-.04,4.33,4.33,0,0,1-.907-.106.173.173,0,0,0-.09-.012,2.757,2.757,0,0,1-.759.018,6.429,6.429,0,0,1-.76-.018c-.142-.007-.283-.027-.425-.041a4.812,4.812,0,0,0-.758-.06,1.655,1.655,0,0,0-.775.109.453.453,0,0,1-.238.038.807.807,0,0,0-.332.015.144.144,0,0,1-.116-.017c-.085-.077-.17-.038-.26-.022a.22.22,0,0,1-.225-.061c-.074-.091-.175-.084-.279-.088-.355-.013-.71-.036-1.065-.053h-.245a.91.91,0,0,1-.537-.072.184.184,0,0,0-.089-.02c-.213-.011-.427-.017-.64-.031a2.751,2.751,0,0,0-.815.037.792.792,0,0,1-.51-.052,1.014,1.014,0,0,0-.51-.077,1.3,1.3,0,0,1-.486-.019.252.252,0,0,0-.122,0,5.446,5.446,0,0,1-1.12.026,1.05,1.05,0,0,1-.445-.049.518.518,0,0,0-.211-.014c-.113,0-.225.018-.337.021a4.566,4.566,0,0,1-.793-.015c-.29-.043-.585-.046-.879-.063a.47.47,0,0,0-.149.024,1.132,1.132,0,0,1-.575-.008c-.116-.032-.238-.049-.367-.074a1.521,1.521,0,0,1-.05-.693,1.544,1.544,0,0,0,.018-.784c.057-.248-.076-.48-.064-.724a.336.336,0,0,0-.02-.151c-.1-.214,0-.421.018-.63a.235.235,0,0,1,.032-.086c.073-.134-.008-.3.057-.418a2.609,2.609,0,0,1,.278-.316.437.437,0,0,0,.039-.174Z"/><path class="cls-2" d="M195.766,148.42c.037-.033.093-.058.107-.1a.818.818,0,0,1,.427-.444c.053-.028.1-.071.152-.1a.285.285,0,0,1,.23-.058.152.152,0,0,0,.185-.068c.016-.025.04-.059.064-.063a2.677,2.677,0,0,0,.5-.211c.028-.009.063-.026.088-.017a.307.307,0,0,0,.342-.1l.462-.042c.02,0,.043-.02.058-.014.314.129.673-.051.987.164l.106-.14c.075.009.164.024.253.03.137.01.233.153.4.092a2.017,2.017,0,0,1,.418-.026c.272-.035.546-.048.817-.1.042-.008.093.029.144.047a.573.573,0,0,1,.644-.176l-.132.218c.027.019.043.038.054.036.1-.022.223,0,.3-.109.021-.029.073-.033.11-.05a.434.434,0,0,1,.385,0,.386.386,0,0,0,.379-.024,1.572,1.572,0,0,1,.586-.158,6.559,6.559,0,0,1,.85-.095.431.431,0,0,1,.152,0,.646.646,0,0,0,.445-.041.441.441,0,0,1,.177-.015,1.524,1.524,0,0,0,.486,0,.348.348,0,0,1,.289.063,1.323,1.323,0,0,0,.656.194c.233.019.465.048.7.067a.293.293,0,0,0,.172-.03.35.35,0,0,1,.292-.043.775.775,0,0,0,.361-.026c.166-.048.338-.074.507-.108a.126.126,0,0,1,.061,0,1.312,1.312,0,0,0,.7-.043c.043.045.087.085.124.131a.957.957,0,0,0,.835.366c.153-.008.307-.006.459-.022a1.544,1.544,0,0,1,.6.068,2.943,2.943,0,0,0,.691.113.2.2,0,0,1,.091.008.733.733,0,0,0,.563,0,3.528,3.528,0,0,0,.787-.227c.054-.025.1-.061.165-.1l.23.068a.618.618,0,0,0,.083-.027c.092-.046.179-.1.273-.139.133-.052.216.012.244.173l.007.059c.152.059.3.119.454.174.086.032.174.058.261.084.127.037.256.067.381.11a.364.364,0,0,0,.267.025.216.216,0,0,1,.2.025,1.6,1.6,0,0,0,.825.187.831.831,0,0,1,.411.1.683.683,0,0,0,.256.091,1.575,1.575,0,0,1,.579.179.648.648,0,0,1,.219.162,1.82,1.82,0,0,1,.461.744.869.869,0,0,0,.121.244,2.063,2.063,0,0,1,.276.573,3.5,3.5,0,0,1,.152.931.266.266,0,0,1-.055.167c-.185.2-.311.458-.575.578a2.7,2.7,0,0,0-.159.324.31.31,0,0,1-.105.175.322.322,0,0,0-.089.152c-.031.083-.05.171-.072.248-.145.053-.164-.129-.3-.112a.623.623,0,0,0-.237.238.634.634,0,0,1-.334.248.392.392,0,0,0-.313.316c-.213-.046-.413-.08-.608-.132a.853.853,0,0,0-.54.017,1.581,1.581,0,0,1-.843.065,4.291,4.291,0,0,0-.911-.089.593.593,0,0,1-.151-.022,2.552,2.552,0,0,0-.822-.049c-.142,0-.284,0-.425-.014-.071,0-.143-.012-.214-.01a4.07,4.07,0,0,1-.518-.016,1.618,1.618,0,0,0-.514.041.77.77,0,0,1-.479-.019.513.513,0,0,0-.177-.04,4.331,4.331,0,0,1-.908-.106.17.17,0,0,0-.089-.012,2.764,2.764,0,0,1-.76.018,6.407,6.407,0,0,1-.759-.018c-.142-.007-.283-.027-.425-.041a4.812,4.812,0,0,0-.758-.06,1.655,1.655,0,0,0-.775.109.453.453,0,0,1-.238.038.808.808,0,0,0-.332.015.144.144,0,0,1-.116-.017c-.085-.077-.17-.038-.26-.022a.22.22,0,0,1-.225-.061c-.075-.091-.175-.084-.279-.088-.355-.013-.71-.036-1.066-.053h-.244a.91.91,0,0,1-.537-.072.184.184,0,0,0-.089-.02c-.213-.011-.427-.017-.64-.031a2.793,2.793,0,0,0-.816.037.789.789,0,0,1-.509-.052,1.014,1.014,0,0,0-.51-.077,1.309,1.309,0,0,1-.487-.019.248.248,0,0,0-.121,0,5.446,5.446,0,0,1-1.12.026,1.054,1.054,0,0,1-.446-.049.518.518,0,0,0-.211-.014c-.112,0-.224.018-.336.021a4.578,4.578,0,0,1-.794-.015c-.289-.043-.585-.046-.878-.063a.47.47,0,0,0-.149.024,1.132,1.132,0,0,1-.575-.008c-.117-.032-.238-.049-.367-.074a1.521,1.521,0,0,1-.05-.693,1.566,1.566,0,0,0,.018-.784c.057-.248-.076-.48-.065-.724a.336.336,0,0,0-.02-.151,1.125,1.125,0,0,1,.019-.63.253.253,0,0,1,.031-.086c.074-.134-.007-.3.058-.418a2.535,2.535,0,0,1,.278-.316c.033-.043.027-.115.039-.174Z"/><path class="cls-2" d="M220.159,131.4c.032.037.058.092.1.107a.813.813,0,0,1,.444.426c.029.054.072.1.1.153a.276.276,0,0,1,.058.23.151.151,0,0,0,.069.184c.024.017.059.04.062.064a2.775,2.775,0,0,0,.211.5c.01.029.026.064.017.088a.309.309,0,0,0,.1.343c.016.182.028.322.042.462,0,.02.019.043.013.058-.128.314.052.672-.164.986l.141.107c-.01.075-.025.163-.031.252-.009.138-.153.233-.091.4a2.088,2.088,0,0,1,.025.418c.035.271.048.546.1.817.008.042-.029.093-.047.144a.572.572,0,0,1,.176.644l-.218-.133c-.019.028-.038.044-.035.055.021.1,0,.223.109.3.028.02.032.073.05.11a.434.434,0,0,1,0,.385.381.381,0,0,0,.024.379,1.631,1.631,0,0,1,.158.585,6.928,6.928,0,0,1,.095.85.484.484,0,0,1,0,.152.643.643,0,0,0,.04.446.407.407,0,0,1,.015.177,1.584,1.584,0,0,0,0,.486.346.346,0,0,1-.062.288,1.324,1.324,0,0,0-.194.657c-.02.233-.049.465-.067.7a.278.278,0,0,0,.03.172.351.351,0,0,1,.042.291.766.766,0,0,0,.027.362c.047.166.073.337.107.507a.151.151,0,0,1,0,.06,1.312,1.312,0,0,0,.044.7c-.045.043-.085.088-.131.125a.949.949,0,0,0-.366.834c.007.153.005.307.021.459a1.527,1.527,0,0,1-.068.6,2.943,2.943,0,0,0-.113.691.188.188,0,0,1-.007.09.733.733,0,0,0,0,.563,3.552,3.552,0,0,0,.227.788c.026.054.061.1.1.165l-.067.229a.432.432,0,0,0,.027.084c.045.091.1.178.139.273.052.132-.012.216-.173.244a.176.176,0,0,0-.06.007c-.058.151-.118.3-.174.454-.031.086-.057.173-.083.261-.038.127-.068.256-.111.381a.363.363,0,0,0-.024.267.216.216,0,0,1-.026.2,1.6,1.6,0,0,0-.186.825.848.848,0,0,1-.1.412.627.627,0,0,0-.092.255,1.579,1.579,0,0,1-.178.58.675.675,0,0,1-.163.219,1.854,1.854,0,0,1-.743.46.9.9,0,0,0-.245.121,2.108,2.108,0,0,1-.573.277,3.538,3.538,0,0,1-.93.151.274.274,0,0,1-.168-.054c-.2-.185-.458-.311-.578-.576a2.607,2.607,0,0,0-.323-.158.316.316,0,0,1-.176-.106.324.324,0,0,0-.151-.089c-.084-.031-.171-.05-.248-.071-.054-.146.128-.165.112-.3a.63.63,0,0,0-.238-.237.629.629,0,0,1-.248-.334.4.4,0,0,0-.316-.314c.045-.213.079-.412.131-.607a.867.867,0,0,0-.016-.54,1.563,1.563,0,0,1-.065-.843,4.435,4.435,0,0,0,.089-.912.5.5,0,0,1,.021-.15,2.554,2.554,0,0,0,.049-.822c-.008-.141.008-.284.014-.426,0-.071.013-.142.01-.213a3.9,3.9,0,0,1,.017-.519,1.675,1.675,0,0,0-.041-.514.759.759,0,0,1,.019-.478.574.574,0,0,0,.039-.178,4.389,4.389,0,0,1,.106-.907.175.175,0,0,0,.012-.09,2.758,2.758,0,0,1-.017-.759,6.407,6.407,0,0,1,.018-.759c.007-.142.027-.284.04-.426a5.063,5.063,0,0,0,.06-.758,1.653,1.653,0,0,0-.109-.775.454.454,0,0,1-.038-.238.791.791,0,0,0-.014-.332.136.136,0,0,1,.017-.116c.076-.084.037-.17.022-.259a.217.217,0,0,1,.06-.225c.092-.075.084-.175.088-.279.014-.356.036-.711.054-1.066v-.245a.883.883,0,0,1,.072-.536.2.2,0,0,0,.019-.089c.011-.214.018-.427.031-.64a2.756,2.756,0,0,0-.037-.816.786.786,0,0,1,.053-.51,1.009,1.009,0,0,0,.076-.509,1.287,1.287,0,0,1,.02-.487.252.252,0,0,0,0-.122,5.367,5.367,0,0,1-.025-1.119,1.053,1.053,0,0,1,.049-.446.557.557,0,0,0,.014-.211c0-.112-.018-.224-.021-.337a4.564,4.564,0,0,1,.014-.793c.044-.289.047-.585.064-.878a.574.574,0,0,0-.025-.149,1.132,1.132,0,0,1,.008-.575c.033-.117.049-.238.075-.367a1.463,1.463,0,0,1,.692-.05,1.581,1.581,0,0,0,.785.018c.248.056.479-.076.723-.065a.352.352,0,0,0,.151-.02,1.126,1.126,0,0,1,.63.018.2.2,0,0,1,.086.032c.134.074.3-.008.418.057a2.7,2.7,0,0,1,.316.279c.043.033.116.027.175.039Z"/><path class="cls-2" d="M220.159,63.025c.032.037.058.093.1.107a.815.815,0,0,1,.444.427c.029.053.072.1.1.152a.276.276,0,0,1,.058.23.152.152,0,0,0,.069.184c.024.017.059.041.062.065a2.745,2.745,0,0,0,.211.5.16.16,0,0,1,.017.089.307.307,0,0,0,.1.342c.016.182.028.322.042.462,0,.02.019.043.013.058-.128.314.052.672-.164.987l.141.106c-.01.075-.025.164-.031.253-.009.137-.153.232-.091.4a2.088,2.088,0,0,1,.025.418c.035.271.048.546.1.817.008.042-.029.093-.047.144a.573.573,0,0,1,.176.644l-.218-.133c-.019.028-.038.044-.035.055.021.105,0,.223.109.3.028.021.032.073.05.11a.434.434,0,0,1,0,.385.381.381,0,0,0,.024.379,1.611,1.611,0,0,1,.158.586,6.912,6.912,0,0,1,.095.849.491.491,0,0,1,0,.153.64.64,0,0,0,.04.445.407.407,0,0,1,.015.177,1.584,1.584,0,0,0,0,.486.349.349,0,0,1-.062.289,1.32,1.32,0,0,0-.194.656c-.02.233-.049.465-.067.7a.278.278,0,0,0,.03.172.351.351,0,0,1,.042.291.766.766,0,0,0,.027.362c.047.166.073.337.107.507a.157.157,0,0,1,0,.061,1.312,1.312,0,0,0,.044.7c-.045.042-.085.087-.131.124a.949.949,0,0,0-.366.834c.007.153.005.307.021.46a1.509,1.509,0,0,1-.068.6,2.943,2.943,0,0,0-.113.691.217.217,0,0,1-.007.091.733.733,0,0,0,0,.563,3.544,3.544,0,0,0,.227.787c.026.054.061.1.1.165l-.067.23a.423.423,0,0,0,.027.083c.045.092.1.178.139.273.052.133-.012.216-.173.244a.176.176,0,0,0-.06.007c-.058.151-.118.3-.174.454-.031.086-.057.173-.083.261-.038.127-.068.256-.111.381a.363.363,0,0,0-.024.267.216.216,0,0,1-.026.2,1.6,1.6,0,0,0-.186.826.844.844,0,0,1-.1.411.642.642,0,0,0-.092.255,1.579,1.579,0,0,1-.178.58.675.675,0,0,1-.163.219,1.832,1.832,0,0,1-.743.46.906.906,0,0,0-.245.122,2.135,2.135,0,0,1-.573.276,3.539,3.539,0,0,1-.93.152.273.273,0,0,1-.168-.055c-.2-.185-.458-.311-.578-.575a2.763,2.763,0,0,0-.323-.159.324.324,0,0,1-.176-.105.329.329,0,0,0-.151-.09c-.084-.03-.171-.049-.248-.071-.054-.146.128-.164.112-.3a.63.63,0,0,0-.238-.237.629.629,0,0,1-.248-.334.4.4,0,0,0-.316-.313c.045-.214.079-.413.131-.608a.867.867,0,0,0-.016-.54,1.563,1.563,0,0,1-.065-.843,4.425,4.425,0,0,0,.089-.911.515.515,0,0,1,.021-.151,2.552,2.552,0,0,0,.049-.822c-.008-.141.008-.283.014-.425,0-.072.013-.143.01-.214a3.894,3.894,0,0,1,.017-.518,1.645,1.645,0,0,0-.041-.514.762.762,0,0,1,.019-.479.6.6,0,0,0,.039-.177,4.4,4.4,0,0,1,.106-.908.17.17,0,0,0,.012-.089,2.765,2.765,0,0,1-.017-.76A6.407,6.407,0,0,1,215.6,76c.007-.142.027-.284.04-.425a5.063,5.063,0,0,0,.06-.758,1.657,1.657,0,0,0-.109-.776.454.454,0,0,1-.038-.238.787.787,0,0,0-.014-.331.136.136,0,0,1,.017-.116c.076-.085.037-.171.022-.26a.217.217,0,0,1,.06-.225c.092-.075.084-.175.088-.279.014-.355.036-.711.054-1.066V71.28a.883.883,0,0,1,.072-.536.183.183,0,0,0,.019-.089c.011-.213.018-.427.031-.64a2.756,2.756,0,0,0-.037-.816.783.783,0,0,1,.053-.509,1,1,0,0,0,.076-.51,1.287,1.287,0,0,1,.02-.487.248.248,0,0,0,0-.121,5.378,5.378,0,0,1-.025-1.12,1.053,1.053,0,0,1,.049-.446.557.557,0,0,0,.014-.211c0-.112-.018-.224-.021-.336a4.576,4.576,0,0,1,.014-.794c.044-.289.047-.585.064-.878a.574.574,0,0,0-.025-.149,1.132,1.132,0,0,1,.008-.575c.033-.117.049-.238.075-.367a1.49,1.49,0,0,1,.692-.05,1.581,1.581,0,0,0,.785.018c.248.056.479-.076.723-.065a.352.352,0,0,0,.151-.02,1.125,1.125,0,0,1,.63.019.223.223,0,0,1,.086.031c.134.074.3-.007.418.058a2.609,2.609,0,0,1,.316.278c.043.033.116.027.175.039Z"/><path class="cls-2" d="M220.159,95.411c.032.037.058.093.1.108a.81.81,0,0,1,.444.426c.029.054.072.1.1.152a.279.279,0,0,1,.058.231.152.152,0,0,0,.069.184c.024.017.059.04.062.064a2.775,2.775,0,0,0,.211.5c.01.029.026.064.017.088a.309.309,0,0,0,.1.343c.016.182.028.322.042.461,0,.02.019.044.013.059-.128.314.052.672-.164.986l.141.106c-.01.076-.025.164-.031.253-.009.138-.153.233-.091.4a2.078,2.078,0,0,1,.025.417c.035.272.048.547.1.817.008.043-.029.094-.047.145a.573.573,0,0,1,.176.644l-.218-.133c-.019.028-.038.044-.035.055.021.1,0,.222.109.3.028.02.032.073.05.11a.441.441,0,0,1,0,.385.381.381,0,0,0,.024.379,1.631,1.631,0,0,1,.158.585,6.928,6.928,0,0,1,.095.85.484.484,0,0,1,0,.152.64.64,0,0,0,.04.445.411.411,0,0,1,.015.178,1.584,1.584,0,0,0,0,.486.346.346,0,0,1-.062.288,1.324,1.324,0,0,0-.194.657c-.02.233-.049.465-.067.7a.278.278,0,0,0,.03.172.348.348,0,0,1,.042.291.766.766,0,0,0,.027.362c.047.165.073.337.107.506a.157.157,0,0,1,0,.061,1.312,1.312,0,0,0,.044.7c-.045.043-.085.087-.131.125a.949.949,0,0,0-.366.834c.007.153.005.307.021.459a1.527,1.527,0,0,1-.068.6,2.943,2.943,0,0,0-.113.691.19.19,0,0,1-.007.09.733.733,0,0,0,0,.563,3.552,3.552,0,0,0,.227.788c.026.054.061.1.1.165l-.067.229a.412.412,0,0,0,.027.084c.045.091.1.178.139.273.052.132-.012.216-.173.244a.176.176,0,0,0-.06.007c-.058.151-.118.3-.174.454-.031.085-.057.173-.083.261-.038.126-.068.256-.111.381a.363.363,0,0,0-.024.267.216.216,0,0,1-.026.2,1.6,1.6,0,0,0-.186.825.841.841,0,0,1-.1.411.652.652,0,0,0-.092.256,1.579,1.579,0,0,1-.178.58.686.686,0,0,1-.163.219,1.854,1.854,0,0,1-.743.46.9.9,0,0,0-.245.121,2.063,2.063,0,0,1-.573.276,3.459,3.459,0,0,1-.93.152.267.267,0,0,1-.168-.055c-.2-.185-.458-.311-.578-.575a2.763,2.763,0,0,0-.323-.159.313.313,0,0,1-.176-.1.324.324,0,0,0-.151-.089c-.084-.031-.171-.05-.248-.071-.054-.146.128-.165.112-.3a.632.632,0,0,0-.238-.238.624.624,0,0,1-.248-.334.4.4,0,0,0-.316-.313c.045-.213.079-.412.131-.607a.867.867,0,0,0-.016-.54,1.563,1.563,0,0,1-.065-.843,4.435,4.435,0,0,0,.089-.912.55.55,0,0,1,.021-.151,2.546,2.546,0,0,0,.049-.821c-.008-.141.008-.284.014-.426,0-.071.013-.142.01-.213a3.909,3.909,0,0,1,.017-.519,1.645,1.645,0,0,0-.041-.514.759.759,0,0,1,.019-.478.574.574,0,0,0,.039-.178,4.4,4.4,0,0,1,.106-.907.175.175,0,0,0,.012-.09,2.758,2.758,0,0,1-.017-.759,6.407,6.407,0,0,1,.018-.759c.007-.142.027-.284.04-.426a5.063,5.063,0,0,0,.06-.758,1.653,1.653,0,0,0-.109-.775.454.454,0,0,1-.038-.238.791.791,0,0,0-.014-.332.136.136,0,0,1,.017-.116c.076-.085.037-.17.022-.259a.217.217,0,0,1,.06-.225c.092-.075.084-.175.088-.279.014-.356.036-.711.054-1.066v-.245a.887.887,0,0,1,.072-.537.182.182,0,0,0,.019-.088c.011-.214.018-.427.031-.641a2.751,2.751,0,0,0-.037-.815.786.786,0,0,1,.053-.51,1.009,1.009,0,0,0,.076-.509,1.287,1.287,0,0,1,.02-.487.252.252,0,0,0,0-.122,5.378,5.378,0,0,1-.025-1.12,1.05,1.05,0,0,1,.049-.445.557.557,0,0,0,.014-.211c0-.113-.018-.225-.021-.337a4.564,4.564,0,0,1,.014-.793c.044-.29.047-.585.064-.879a.528.528,0,0,0-.025-.148,1.132,1.132,0,0,1,.008-.575c.033-.117.049-.238.075-.368a1.476,1.476,0,0,1,.692-.049,1.57,1.57,0,0,0,.785.017c.248.057.479-.076.723-.064a.352.352,0,0,0,.151-.02c.215-.1.421,0,.63.018a.2.2,0,0,1,.086.032c.134.073.3-.008.418.057a2.687,2.687,0,0,1,.316.278.461.461,0,0,0,.175.04Z"/><path class="cls-1" d="M15.949,172.226c0-7.029,2.228-8.45,5.7-8.45v1.575c-2.631,0-3.879.9-3.879,6.684,0,6.165,1.248,7.067,3.879,7.067v1.575C18.177,180.677,15.949,179.448,15.949,172.226Z"/><path class="cls-1" d="M31.078,174.186h-.21l-2.824,4.575h-1.9l3.612-5.532-3.551-5.036h1.9l2.823,4.129h.25L34,168.193h1.8l-3.553,4.994,3.61,5.57h-1.9Z"/><path class="cls-1" d="M45.535,178.161a3.564,3.564,0,0,1-3.439,3.685,3.631,3.631,0,0,1-.478-.016v-1.441a2.04,2.04,0,0,0,2.323-1.71,1.152,1.152,0,0,1-.691.25,1.729,1.729,0,0,1,.077-3.457,2.389,2.389,0,0,1,2.222,2.545C45.546,178.065,45.541,178.114,45.535,178.161Z"/><path class="cls-1" d="M69.305,180.677H72.34v1.537h-7.8v-1.537h3.035v-2.132l-4.091-10.352h1.863l2.209,5.743.749,2.381h.383l.769-2.381,2.171-5.743h1.766l-4.089,10.352Z"/><path class="cls-1" d="M83.491,172.226c0,7.03-2.228,8.451-5.7,8.451V179.1c2.632,0,3.879-.9,3.879-6.684,0-6.165-1.247-7.067-3.879-7.067v-1.575C81.263,163.776,83.491,165.005,83.491,172.226Z"/><path class="cls-2" d="M259.433,153.287c.14,0,.281,0,.42-.013a1,1,0,0,1,.267.009.4.4,0,0,0,.114.013c.274-.022.55.02.823-.023a.167.167,0,0,1,.077,0,1.053,1.053,0,0,0,.454,0c.268-.039.536.025.8-.011a.232.232,0,0,1,.038.006h.38a2.552,2.552,0,0,1-.048-.389,2.29,2.29,0,0,0-.061-.589.652.652,0,0,1,.007-.391.13.13,0,0,0,0-.091.153.153,0,0,1,.018-.145c.016-.026.03-.054.047-.087a.357.357,0,0,1-.093-.339.393.393,0,0,0-.031-.186.694.694,0,0,1-.028-.52,1,1,0,0,0,.036-.169c.018-.079.006-.168.081-.229a.077.077,0,0,0,.018-.052,2.517,2.517,0,0,0,0-.325.46.46,0,0,1,.043-.278.566.566,0,0,0,.077-.331.562.562,0,0,1,.039-.186c.022-.086.048-.172.068-.259a.318.318,0,0,0-.011-.092c-.034,0-.059-.01-.084-.011a4.134,4.134,0,0,1-.459-.017,3.415,3.415,0,0,1-.515-.039h-.058a1.536,1.536,0,0,1-.424-.085.311.311,0,0,0-.259-.029c-.028.012-.074-.01-.107-.025a.362.362,0,0,0-.224-.034.459.459,0,0,1-.246-.025.354.354,0,0,0-.293.025.944.944,0,0,0-.1.053.323.323,0,0,1-.31.022.676.676,0,0,0-.432-.043c-.037.008-.077.007-.114.017a.839.839,0,0,1-.488-.038.554.554,0,0,0-.41.017.771.771,0,0,1-.578-.009.27.27,0,0,0-.072-.026,1.316,1.316,0,0,1-.387-.086c-.091-.027-.189-.036-.247.078a.153.153,0,0,1-.094.054,1.2,1.2,0,0,1-.568-.023.477.477,0,0,0-.42.022.132.132,0,0,1-.073.018h-.5a2.049,2.049,0,0,1-.248-.01.485.485,0,0,1-.169-.03.871.871,0,0,0-.262-.052c-.062-.01-.127,0-.191-.006a3.366,3.366,0,0,0-.361-.035c-.087,0-.171.049-.259.055s-.18-.025-.264.018a.313.313,0,0,1-.186.024c-.1-.013-.2-.018-.3-.023a2.317,2.317,0,0,0-.363-.008,1.221,1.221,0,0,1-.3.043.361.361,0,0,1-.375-.07.431.431,0,0,0-.1-.057c-.129-.036-.259-.074-.39-.1-.07-.012-.153-.031-.2.068a.143.143,0,0,1-.1.057c-.151.026-.3.048-.454.066a.146.146,0,0,1-.09-.028.276.276,0,0,0-.238-.037.218.218,0,0,1-.095,0,.331.331,0,0,0-.186.024.689.689,0,0,1-.34.029,1.227,1.227,0,0,0-.363,0,.947.947,0,0,1-.323-.013h-.006a4.571,4.571,0,0,1,.119-2.618c.166-.369,0-.857,0-1.291.006-.595.026-1.19.05-1.785.022-.539.093-1.078.077-1.615a9.608,9.608,0,0,1,.083-2.756,1.45,1.45,0,0,0-.027-.962,3.9,3.9,0,0,1-.083-2.55,17.443,17.443,0,0,1,.921-4.456,1.55,1.55,0,0,0-.006-1.11,2.347,2.347,0,0,1,0-1.59c.074-.26.216-.563.135-.79a2.914,2.914,0,0,1,.171-1.91,3.606,3.606,0,0,0-.055-2.088c-.091-.313-.332-.669-.243-.932a7.233,7.233,0,0,0-.052-2.558c0-.63-.248-1.278.258-1.867.125-.145.066-.418.1-.632.123-.8.243-1.606.376-2.407.2-1.176.438-2.346.589-3.526a6.417,6.417,0,0,0-.112-1.39l-1.366-.614a14.268,14.268,0,0,0,.5-1.961,15.1,15.1,0,0,0-.043-1.95,1.2,1.2,0,0,1,.07-.482,2.9,2.9,0,0,0,.165-2.519,1.292,1.292,0,0,1,.075-.793c.678-2.553.345-5.173.623-7.753.151-1.4-.044-2.826.167-4.209a18.53,18.53,0,0,0-.011-4.378,8.908,8.908,0,0,1,.182-2.585c.229-1.1.854-2.17.261-3.326-.042-.081.059-.212.051-.317-.034-.48-.065-.961-.134-1.437a10.723,10.723,0,0,1-.274-1.6c.016-1.511.044-3.027.206-4.529a2.5,2.5,0,0,0-.378-2,1.6,1.6,0,0,1-.306-1.216,2.6,2.6,0,0,0,.017-1.12.625.625,0,0,0,.086-.018.7.7,0,0,1,.413-.038.712.712,0,0,0,.19.005,1.764,1.764,0,0,0,.229-.026,1.463,1.463,0,0,1,.7.076c.07.025.153,0,.218.057.011.008.037,0,.055-.005.043,0,.087-.011.131-.014a1.613,1.613,0,0,1,.379.048,2.048,2.048,0,0,0,.247.026c.134,0,.268,0,.4-.012.287-.014.573.019.86.012a4.98,4.98,0,0,0,.573-.006.194.194,0,0,1,.076,0,.373.373,0,0,0,.187-.022.5.5,0,0,1,.3-.028.61.61,0,0,0,.3.012.787.787,0,0,1,.361.018.658.658,0,0,0,.265.019.555.555,0,0,1,.207.018c.129.031.266,0,.4.037a.206.206,0,0,0,.055-.015.675.675,0,0,1,.378-.015,2.837,2.837,0,0,0,.4.049c.19.008.382,0,.573,0,.14,0,.281,0,.42-.012a.919.919,0,0,1,.267.009.486.486,0,0,0,.114.013c.274-.022.55.019.823-.024a.167.167,0,0,1,.077,0,1.053,1.053,0,0,0,.454,0c.268-.038.536.025.8-.011a.232.232,0,0,1,.038.006c.12,0,.24,0,.38,0a2.568,2.568,0,0,1-.048-.389,2.29,2.29,0,0,0-.061-.589.652.652,0,0,1,.007-.391.13.13,0,0,0,0-.091.153.153,0,0,1,.018-.145c.016-.026.03-.054.047-.087a.358.358,0,0,1-.093-.338.4.4,0,0,0-.031-.187.7.7,0,0,1-.028-.52.967.967,0,0,0,.036-.168c.018-.08.006-.169.081-.23a.077.077,0,0,0,.018-.052,2.517,2.517,0,0,0,0-.325.476.476,0,0,1,.043-.278.566.566,0,0,0,.077-.331.582.582,0,0,1,.039-.185c.022-.087.048-.172.068-.26a.307.307,0,0,0-.011-.091c-.034,0-.059-.01-.084-.011-.153-.006-.307,0-.459-.018a3.173,3.173,0,0,1-.515-.039h-.058a1.534,1.534,0,0,1-.424-.084.307.307,0,0,0-.259-.03c-.028.012-.074-.009-.107-.024a.354.354,0,0,0-.224-.035.458.458,0,0,1-.246-.024.346.346,0,0,0-.293.025.94.94,0,0,0-.1.052.323.323,0,0,1-.31.023.669.669,0,0,0-.432-.044c-.037.008-.077.007-.114.017a.83.83,0,0,1-.488-.037.554.554,0,0,0-.41.017.78.78,0,0,1-.578-.009.232.232,0,0,0-.072-.027,1.316,1.316,0,0,1-.387-.086c-.091-.027-.189-.035-.247.078a.153.153,0,0,1-.094.054A1.2,1.2,0,0,1,256.5,62a.477.477,0,0,0-.42.022.132.132,0,0,1-.073.018h-.5a2.275,2.275,0,0,1-.248-.009.511.511,0,0,1-.169-.031.9.9,0,0,0-.262-.052c-.062-.01-.127,0-.191-.006a3.364,3.364,0,0,0-.361-.034c-.087,0-.171.048-.259.055s-.18-.026-.264.017a.313.313,0,0,1-.186.024c-.1-.012-.2-.018-.3-.023a2.317,2.317,0,0,0-.363-.008,1.221,1.221,0,0,1-.3.043.361.361,0,0,1-.375-.07.5.5,0,0,0-.1-.057c-.129-.036-.259-.074-.39-.1-.07-.012-.153-.03-.2.068a.141.141,0,0,1-.1.057c-.138.024-.277.044-.417.061h-.037a.145.145,0,0,1-.09-.027.275.275,0,0,0-.238-.037.253.253,0,0,1-.095,0,.329.329,0,0,0-.186.024.689.689,0,0,1-.34.028,1.227,1.227,0,0,0-.363,0,.947.947,0,0,1-.323-.013,1.39,1.39,0,0,0-.51-.031,1.938,1.938,0,0,1-.666-.032.148.148,0,0,0-.093,0c-.116.063-.24.007-.359.029a.31.31,0,0,1-.146-.037,1.207,1.207,0,0,1-.111-.062.919.919,0,0,1-.422.055.191.191,0,0,0-.095,0,1.088,1.088,0,0,1-.321.04,1.359,1.359,0,0,0-.285.013.533.533,0,0,1-.28-.009.182.182,0,0,0-.057,0c-.115,0-.23,0-.344.006a.149.149,0,0,1-.075-.01.26.26,0,0,0-.256,0,.247.247,0,0,1-.111.011c-.081-.014-.16-.041-.241-.052s-.147-.014-.221-.018a1.243,1.243,0,0,0-.425.032.15.15,0,0,1-.091.008.471.471,0,0,0-.283-.009.288.288,0,0,1-.188,0,.592.592,0,0,0-.224-.044c-.108-.017-.216-.027-.324-.036a.458.458,0,0,0-.188,0,.342.342,0,0,1-.244,0,.61.61,0,0,0-.281-.031.309.309,0,0,1-.3-.1.136.136,0,0,0-.155-.053c-.122.05-.27.033-.359.143-.085,0-.152-.067-.232-.021-.017.01-.05,0-.073-.012a.672.672,0,0,0-.32-.045.707.707,0,0,1-.247-.01.773.773,0,0,0-.462.062c-.061.019-.121.043-.182.06a.145.145,0,0,1-.092.007.481.481,0,0,0-.263-.02,1.124,1.124,0,0,1-.265-.026.326.326,0,0,0-.222,0,.336.336,0,0,1-.314-.015.454.454,0,0,0-.335-.04.749.749,0,0,0-.179.058c-.049.024-.121,0-.184,0a.158.158,0,0,0-.072.024.459.459,0,0,1-.281.023,1.127,1.127,0,0,0-.209-.017.781.781,0,0,1-.536-.138c-.094.06-.094.06-.163.055a.185.185,0,0,1-.057-.006c-.245-.01-.246-.008-.178.234l-.187.2c.03.083.062.167.091.251a.2.2,0,0,1,0,.168c-.016.034-.021.073-.036.108a.788.788,0,0,1-.161.3.208.208,0,0,0-.077.2.216.216,0,0,1-.029.108c-.024.059-.051.116-.074.166l.084.173a.375.375,0,0,0-.062.419.248.248,0,0,1-.03.2.869.869,0,0,1-.172.186l.109.317a1.9,1.9,0,0,0-.043.239c0,.079-.027.167.053.23.012.009.013.036.013.054a1.446,1.446,0,0,1,0,.228.3.3,0,0,0,.091.259.615.615,0,0,1,.185.327.375.375,0,0,0,.045.1.347.347,0,0,1,.019.282c-.027.078.007.127.093.117a1.413,1.413,0,0,0,.281-.056.392.392,0,0,1,.28-.014.2.2,0,0,0,.167-.009.156.156,0,0,1,.194.022.125.125,0,0,0,.1.026.336.336,0,0,1,.26.018.232.232,0,0,0,.091,0c.025,0,.058-.022.073-.012.117.076.236.018.355.014a.379.379,0,0,1,.15.006.852.852,0,0,0,.321.043c.178,0,.357-.01.535,0a1.976,1.976,0,0,0,.515-.026.521.521,0,0,1,.229,0,.815.815,0,0,0,.361-.012c-.067-.052-.158-.015-.192-.09.081-.081.092-.095.139-.068a.461.461,0,0,0,.262.026c.009,0,.019.012.028.019a.2.2,0,0,0,.011.15l.493-.014a1.664,1.664,0,0,1,.173,0c.12.008.241.017.362.022.274.013.546.049.822.043a4.086,4.086,0,0,0,.725-.031.3.3,0,0,1,.151-.006,1.312,1.312,0,0,0,.454.039h.382c-.007.131-.019.262-.024.393a3.625,3.625,0,0,0,.168,1.287,3.119,3.119,0,0,1,.1,1.595,9.347,9.347,0,0,0-.013,1.622c0,.487.011.975,0,1.461-.016.648-.086,1.3-.069,1.941.032,1.194.227,2.393.142,3.577a38,38,0,0,0-.227,6.318,7.172,7.172,0,0,1-.06.971c-.027.647-.063,1.294-.06,1.94.011,2.219.149,4.444.018,6.655-.086,1.449-.381,2.89-.5,4.351a12.466,12.466,0,0,0,.245,3.7,10.327,10.327,0,0,1,.18,2.579c-.044,1.293-.2,2.583-.3,3.874a1.474,1.474,0,0,0,.039.486,11.968,11.968,0,0,1,0,4.344,18.814,18.814,0,0,0-.118,4.7,31.415,31.415,0,0,1,.042,6.163,1.463,1.463,0,0,1-.229.765,1.353,1.353,0,0,0-.13,1.232,4.414,4.414,0,0,1,.151,1.918c-.4,1.649.092,3.346-.422,4.976a.523.523,0,0,0,.017.32,15.33,15.33,0,0,1,.452,3.707,4.549,4.549,0,0,1-.232,2.25,2.853,2.853,0,0,0,.181,2.524,1.793,1.793,0,0,1,.332,1.074c-.244,1.144.119,2.295-.079,3.405a8.648,8.648,0,0,0-.114,1.473h-.009a.288.288,0,0,1-.188,0,.556.556,0,0,0-.224-.044c-.108-.017-.216-.028-.324-.037a.458.458,0,0,0-.188,0,.342.342,0,0,1-.244,0,.624.624,0,0,0-.281-.032.3.3,0,0,1-.3-.1.136.136,0,0,0-.155-.053c-.122.05-.27.034-.359.143-.085,0-.152-.066-.232-.02a.092.092,0,0,1-.073-.013.685.685,0,0,0-.32-.044.759.759,0,0,1-.247-.01.773.773,0,0,0-.462.062c-.061.019-.121.043-.182.06a.152.152,0,0,1-.092.007.481.481,0,0,0-.263-.02,1.124,1.124,0,0,1-.265-.026.326.326,0,0,0-.222,0,.336.336,0,0,1-.314-.015.444.444,0,0,0-.335-.04.749.749,0,0,0-.179.058c-.049.024-.121,0-.184,0a.169.169,0,0,0-.072.023.452.452,0,0,1-.281.024,1.127,1.127,0,0,0-.209-.017.781.781,0,0,1-.536-.138c-.094.06-.094.06-.163.055a.185.185,0,0,1-.057-.006c-.245-.01-.246-.009-.178.233l-.187.2c.03.083.062.167.091.251a.2.2,0,0,1,0,.168c-.016.034-.021.073-.036.108a.755.755,0,0,1-.161.3.211.211,0,0,0-.077.206.216.216,0,0,1-.029.108c-.024.059-.051.115-.074.166l.084.173a.375.375,0,0,0-.062.419.248.248,0,0,1-.03.2.869.869,0,0,1-.172.186l.109.317a1.9,1.9,0,0,0-.043.239c0,.079-.027.167.053.23.012.009.013.035.013.054a1.446,1.446,0,0,1,0,.228.3.3,0,0,0,.091.259.615.615,0,0,1,.185.327.375.375,0,0,0,.045.1.347.347,0,0,1,.019.282c-.027.079.007.127.093.118a1.589,1.589,0,0,0,.281-.056.392.392,0,0,1,.28-.014.2.2,0,0,0,.167-.01.156.156,0,0,1,.194.022.125.125,0,0,0,.1.027.34.34,0,0,1,.26.017.234.234,0,0,0,.091.006c.025,0,.058-.022.073-.012.117.075.236.018.355.014a.379.379,0,0,1,.15.006.872.872,0,0,0,.321.043c.178,0,.357-.01.535,0a2.067,2.067,0,0,0,.515-.026.521.521,0,0,1,.229,0,.815.815,0,0,0,.361-.013c-.067-.052-.158-.015-.192-.09.081-.08.092-.094.139-.068a.452.452,0,0,0,.262.027c.009,0,.019.012.028.018a.2.2,0,0,0,.011.151c.163,0,.328-.01.493-.015a1.427,1.427,0,0,1,.173,0c.12.008.241.016.362.022.274.013.546.048.822.043a4.086,4.086,0,0,0,.725-.031.277.277,0,0,1,.151-.006,1.312,1.312,0,0,0,.454.039h.047a3.823,3.823,0,0,0,.642,0,.546.546,0,0,1,.134.007.866.866,0,0,0,.45-.057.42.42,0,0,1,.372.019.5.5,0,0,0,.345.053.163.163,0,0,1,.111,0,.292.292,0,0,0,.242,0,.465.465,0,0,1,.147-.031,2.859,2.859,0,0,0,.321-.031.76.76,0,0,1,.3.021c.056.015.113.026.168.04a.484.484,0,0,0,.384-.049.163.163,0,0,0,.158.055,1.036,1.036,0,0,1,.324,0,1.947,1.947,0,0,0,.5.021.2.2,0,0,1,.076.012.419.419,0,0,0,.433-.094,1.36,1.36,0,0,0,.457.106c.1.008.209.013.314.015a.215.215,0,0,0,.217-.091.157.157,0,0,1,.1-.051.372.372,0,0,1,.263,0,.133.133,0,0,0,.09-.01.532.532,0,0,1,.488.091.213.213,0,0,0,.159.048.91.91,0,0,0,.206-.043.7.7,0,0,1,.413-.038.755.755,0,0,0,.19,0,1.764,1.764,0,0,0,.229-.026,1.475,1.475,0,0,1,.7.075c.07.026.153.006.218.058.011.008.037,0,.055-.006.043,0,.087-.01.131-.013a1.515,1.515,0,0,1,.379.048,2.046,2.046,0,0,0,.247.025c.134,0,.268,0,.4-.011.287-.014.573.018.86.012a4.98,4.98,0,0,0,.573-.007.194.194,0,0,1,.076,0,.362.362,0,0,0,.187-.023.506.506,0,0,1,.3-.028.6.6,0,0,0,.3.012.774.774,0,0,1,.361.019.658.658,0,0,0,.265.019.516.516,0,0,1,.207.018c.129.031.266,0,.4.037a.134.134,0,0,0,.055-.016.684.684,0,0,1,.378-.014,2.837,2.837,0,0,0,.4.049A3.583,3.583,0,0,0,259.433,153.287Z"/><path class="cls-2" d="M274.83,93.311a39.007,39.007,0,0,0-9.507-3.3l.537-2.286A42.471,42.471,0,0,1,273,89.8a56.8,56.8,0,0,0-4.493-4.725c-.9-.25-1.671-.48-2.248-.653l.577-2.3c2.535.71,10.236,3.265,14.616,4.551l-.845,2.44c-2.133-.557-5.571-1.767-9.066-3.054a46.9,46.9,0,0,1,4.514,5.07Z"/><path class="cls-2" d="M269.683,95.861a8.23,8.23,0,0,0-1.921-.039,9.484,9.484,0,0,0,1.286,4.264l-1.671-.211a6.513,6.513,0,0,1-1.344-3.707c0-1.882,1.095-2.939,3.3-2.8a7.722,7.722,0,0,1,7.183,5.493l-.94,3.169a6.011,6.011,0,0,1-1.71.269c-2.055,0-3.688-1.556-3.688-4.379a13.712,13.712,0,0,1,.174-1.94A4.908,4.908,0,0,0,269.683,95.861Zm2,.595a5.1,5.1,0,0,0-.1.979,2.419,2.419,0,0,0,2.3,2.533c.047,0,.093,0,.14,0a3.471,3.471,0,0,0,.96-.154,7.175,7.175,0,0,0-3.3-3.363Z"/><path class="cls-2" d="M277.441,108.149l.672-2.305a39.691,39.691,0,0,1,4.514,1.824l-.71,2.362C281.014,109.589,279.65,108.993,277.441,108.149Zm-1.786-.577a77.349,77.349,0,0,0-9.411-3.073l.5-2.285a61.1,61.1,0,0,1,9.566,2.862Z"/><path class="cls-2" d="M272.275,116.9a49.313,49.313,0,0,1-8.066-3.3,5.352,5.352,0,0,1-2.555-4.514,5.439,5.439,0,0,1,.845-3.015l1.92.231a5.3,5.3,0,0,0-.557,2.535c0,1.863,1.71,2.861,5.321,4.4a26.947,26.947,0,0,1-3.3-3.8c.269-.442.481-.941.884-1.729a9.683,9.683,0,0,1,2.131-.1,8,8,0,0,1,7.857,7.856l-2.268.615c-.1-4.61-3.361-5.8-6.222-6.031a40.179,40.179,0,0,0,4.955,5.089Z"/><path class="cls-2" d="M274.83,128.347a39.007,39.007,0,0,0-9.507-3.3l.537-2.286A42.471,42.471,0,0,1,273,124.835a56.645,56.645,0,0,0-4.493-4.725c-.9-.25-1.671-.48-2.248-.652l.577-2.306c2.535.711,10.236,3.265,14.616,4.552l-.845,2.44c-2.133-.557-5.571-1.768-9.066-3.054a46.9,46.9,0,0,1,4.514,5.07Z"/><path class="cls-2" d="M274.465,135.854c-.058-.749-.1-1.5-.1-2.248a76.708,76.708,0,0,0-8.1-2.515l.48-2.228c1.614.384,4.341,1,7.683,2.074.057-.787.116-1.46.173-1.882l1.478.288c-.038.614-.076,1.344-.1,2.112,1.324.461,2.727,1,4.187,1.594l-.787,2.593c-1.153-.518-2.286-.979-3.42-1.421.039.615.077,1.249.154,2.017Z"/><path class="cls-1" d="M48.692,141.408a2.049,2.049,0,0,0,.482-.027.754.754,0,0,1,.276-.012.833.833,0,0,0,.326-.014.341.341,0,0,1,.251.018,1.6,1.6,0,0,0,.737.154.41.41,0,0,1,.2.048,1.754,1.754,0,0,0,.317.088c.084.019.17.029.255.046a.156.156,0,0,1,.065.024,1.05,1.05,0,0,0,.364.155.533.533,0,0,1,.094.043,1.077,1.077,0,0,1,.187.091c.155.113.337.177.5.281a.558.558,0,0,0,.056.039,1.454,1.454,0,0,1,.576.51,3.656,3.656,0,0,0,.362.528.077.077,0,0,1,.029.043.79.79,0,0,0,.242.408c.069.085.155.157.221.243a1.059,1.059,0,0,0,.212.2c.111.084.219.172.324.263a.536.536,0,0,1,.112.13.762.762,0,0,0,.365.28.458.458,0,0,1,.2.156,1.4,1.4,0,0,0,.194.221.324.324,0,0,1,.13.273.086.086,0,0,0,.013.049c.084.132.129.285.226.409a.38.38,0,0,1,.049.091c.028.064.053.128.078.193a.137.137,0,0,1,.016.066c-.027.113.032.215.035.324,0,.064.01.127.012.19a.094.094,0,0,1-.015.065.525.525,0,0,0-.072.522c.008.04.02.079.028.119a3.305,3.305,0,0,1,.074.409.869.869,0,0,1-.041.375.545.545,0,0,0,.064.529q.045.065.093.126a.271.271,0,0,1,.049.247,1.269,1.269,0,0,0-.041.447.127.127,0,0,1-.03.113c-.1.1-.088.246-.112.374-.009.045.024.1.04.157a.165.165,0,0,0-.1.141.141.141,0,0,1-.081.108.317.317,0,0,0-.115.126,1.641,1.641,0,0,0-.233.385c-.122.121-.139.306-.256.431a.137.137,0,0,0-.025.1.15.15,0,0,1-.1.164.482.482,0,0,0-.245.234,1.622,1.622,0,0,1-.1.135,1.272,1.272,0,0,0-.128.224v.017c0,.084-.08.126-.1.2a1.159,1.159,0,0,1-.054.2.558.558,0,0,1-.238.2,2.594,2.594,0,0,0-.3.169,1.05,1.05,0,0,1-.169.119c-.021.01-.042.031-.062.03a.409.409,0,0,0-.253.1.147.147,0,0,1-.082.022.279.279,0,0,0-.258.146,4.491,4.491,0,0,1-.377.428.285.285,0,0,1-.114.069,1.663,1.663,0,0,0-.362.164.815.815,0,0,1-.208.083.364.364,0,0,0-.183.093.147.147,0,0,1-.073.043,5.6,5.6,0,0,0-.533.2c-.032.012-.067.015-.1.024s-.079.009-.1.031a.416.416,0,0,1-.282.1.349.349,0,0,0-.127.054.361.361,0,0,1-.2.052c-.133,0-.266.008-.4.007a.3.3,0,0,0-.18.054,1.466,1.466,0,0,1-.489.173.243.243,0,0,1-.085,0c-.114-.018-.228-.039-.342-.059a.383.383,0,0,1-.287-.135.123.123,0,0,0-.107-.049,1.074,1.074,0,0,0-.294.013.557.557,0,0,1-.4-.053,1.155,1.155,0,0,0-.439-.141.436.436,0,0,1-.264-.118.67.67,0,0,0-.238-.138,2.148,2.148,0,0,1-.34-.112c-.053-.031-.135-.013-.225-.019a.388.388,0,0,0-.373-.071l-.026.056a.761.761,0,0,0-.394-.16.692.692,0,0,1-.231-.068c-.114-.057-.236-.089-.352-.139a.3.3,0,0,1-.065-.023c-.049-.04-.092-.088-.142-.125a1.16,1.16,0,0,1-.157-.1.28.28,0,0,0-.179-.106l-.042-.154a.36.36,0,0,0-.117-.2.369.369,0,0,1-.116-.283.487.487,0,0,0-.07-.247.675.675,0,0,1-.041-.114c-.01-.027-.017-.062-.037-.077a.7.7,0,0,1-.161-.224.148.148,0,0,0-.061-.058.241.241,0,0,1-.141-.165.523.523,0,0,0-.081-.151,1.174,1.174,0,0,1-.153-.291,1.754,1.754,0,0,0-.144-.275c-.02-.035-.044-.068-.065-.1-.093-.153-.184-.308-.279-.46a.356.356,0,0,1-.067-.176.248.248,0,0,0-.027-.1.5.5,0,0,1-.048-.353c.014-.054-.011-.118,0-.171a.466.466,0,0,0-.056-.331,2.7,2.7,0,0,0-.116-.29.319.319,0,0,1-.035-.151.4.4,0,0,0-.152-.334.085.085,0,0,1,.02-.154.289.289,0,0,0,.182-.25,1.339,1.339,0,0,1,.116-.307.443.443,0,0,0,.027-.287.32.32,0,0,1,0-.189.287.287,0,0,0,0-.2l-.032-.117a.276.276,0,0,1-.019-.085,2.125,2.125,0,0,0,.032-.238.494.494,0,0,1,0-.223.478.478,0,0,0,.014-.257.589.589,0,0,1,.057-.367.47.47,0,0,0,.058-.3.572.572,0,0,1,.094-.447.16.16,0,0,0,.023-.148c-.044-.135.032-.246.075-.363.009-.023.044-.035.056-.044.038-.138.073-.265.11-.391a.216.216,0,0,1,.043-.075.32.32,0,0,0,.111-.228.044.044,0,0,1,.013-.031c.1-.074.088-.18.079-.284a.648.648,0,0,1,.285-.247.159.159,0,0,0,.068-.052.141.141,0,0,1,.123-.05.305.305,0,0,0,.219-.09.3.3,0,0,1,.14-.064.5.5,0,0,0,.338-.573l-.023-.12a.4.4,0,0,1,.231-.147.666.666,0,0,0,.3-.164.919.919,0,0,1,.191-.118,1.347,1.347,0,0,1,.158-.071.192.192,0,0,1,.081-.025,1.115,1.115,0,0,0,.324-.063.334.334,0,0,0,.2-.129Z"/><path class="cls-2" d="M124.932,13.255,119.439,22.7l-1.211-.441-1.9-.692c.154-2.016.424-3.9.711-5.819l-4.264,7.068-.692-.25-2.227-.788c.326-2.8.691-6.357.865-9.353l2.708.269c-.25,2.324-.673,5.052-1.038,7.548l4.725-7.932,2.592.154c-.23,2.746-.575,5.3-.844,7.97l4.282-8.2Z"/><path class="cls-2" d="M129.17,12.909A77.381,77.381,0,0,0,126.1,22.32l-2.286-.5a61.229,61.229,0,0,1,2.862-9.565Zm.576-1.786-2.3-.672a39.682,39.682,0,0,1,1.825-4.513l2.362.71C131.186,7.551,130.591,8.914,129.746,11.123Z"/><path class="cls-2" d="M141.863,7.877C140.557,11.3,137.714,18,137.081,22.762l-2.343-.48a38.4,38.4,0,0,1,.883-4.149,36.854,36.854,0,0,1-4.187,4.341c-.423-.269-1.268-.595-2.055-1a12.028,12.028,0,0,1-.134-1.748,7.836,7.836,0,0,1,6.28-7.951l.595,2.266c-2.919.884-4.4,2.593-4.455,6.127,1.421-1.382,3.515-3.5,4.8-4.859.748-2.266,1.709-4.821,2.918-8.182Z"/><path class="cls-2" d="M147.447,14.1c-.749.058-1.5.1-2.247.1a76.48,76.48,0,0,0-2.516,8.1l-2.228-.48c.385-1.613,1-4.341,2.074-7.682-.787-.058-1.459-.116-1.882-.173l.288-1.479c.615.038,1.344.076,2.113.1.461-1.325,1-2.727,1.594-4.187l2.593.787c-.519,1.153-.98,2.286-1.421,3.419.614-.039,1.248-.077,2.016-.154Z"/><path class="cls-2" d="M157.451,13.74a39.064,39.064,0,0,0-3.3,9.507l-2.286-.538a42.5,42.5,0,0,1,2.074-7.144,56.821,56.821,0,0,0-4.725,4.494c-.249.9-.48,1.671-.652,2.247l-2.305-.576c.711-2.535,3.265-10.237,4.551-14.616l2.439.845c-.556,2.132-1.766,5.57-3.053,9.066a46.815,46.815,0,0,1,5.071-4.514Z"/><path class="cls-2" d="M52.507,48.675a3.922,3.922,0,0,1,.018-.46,3.181,3.181,0,0,1,.039-.515.561.561,0,0,0,0-.058,1.507,1.507,0,0,1,.085-.424.308.308,0,0,0,.029-.258c-.011-.029.01-.074.025-.108a.358.358,0,0,0,.034-.223.461.461,0,0,1,.025-.246.353.353,0,0,0-.025-.294.944.944,0,0,0-.053-.1.323.323,0,0,1-.022-.31.673.673,0,0,0,.044-.431c-.009-.037-.008-.077-.017-.114a.834.834,0,0,1,.037-.489.564.564,0,0,0-.017-.41.771.771,0,0,1,.009-.578.252.252,0,0,0,.026-.071,1.325,1.325,0,0,1,.087-.387c.027-.092.035-.19-.079-.248a.149.149,0,0,1-.053-.094,1.187,1.187,0,0,1,.022-.568.477.477,0,0,0-.022-.42.124.124,0,0,1-.017-.073v-.5a2.074,2.074,0,0,1,.01-.249.494.494,0,0,1,.03-.169.836.836,0,0,0,.052-.262c.01-.062,0-.127.007-.19.01-.121.036-.242.034-.362,0-.086-.049-.171-.055-.258a.659.659,0,0,0-.017-.265.3.3,0,0,1-.024-.185c.012-.1.018-.2.022-.306v-.115c1.9-.079,3.807.022,5.709.111a.647.647,0,0,1,0-.215c.314.015.627.028.941.041,1.581.066,3.159.2,4.74.267a4.623,4.623,0,0,0,1.507-.179c.05-.015.1-.013.147-.026-.024-.122-.038-.25-.061-.374a1.215,1.215,0,0,1,.451.067.994.994,0,0,0,.649.067,3.55,3.55,0,0,1,1.039-.047c.272.017.544.025.816.039a.259.259,0,0,1,.113.025,1.117,1.117,0,0,0,.683.092h.312c.453.022.9.051,1.358.068a.4.4,0,0,1,.355.112.274.274,0,0,0,.287.077c.114-.019.222-.069.33.028a.17.17,0,0,0,.148.022,1.04,1.04,0,0,1,.423-.019.553.553,0,0,0,.3-.048,2.122,2.122,0,0,1,1-.137,6.376,6.376,0,0,1,.966.077c.181.017.361.043.542.051a8.006,8.006,0,0,0,.967.023,3.481,3.481,0,0,0,.967-.022.2.2,0,0,1,.114.016,5.554,5.554,0,0,0,1.156.134.728.728,0,0,1,.226.051.972.972,0,0,0,.61.024,2.058,2.058,0,0,1,.654-.052,4.706,4.706,0,0,0,.661.02c.09,0,.181.01.272.013a4.9,4.9,0,0,0,.542.018,3.283,3.283,0,0,1,1.046.063.69.69,0,0,0,.192.027,5.521,5.521,0,0,1,1.161.114,2,2,0,0,0,1.074-.083,1.109,1.109,0,0,1,.688-.022c.248.066.5.11.774.168a.5.5,0,0,1,.4-.4.788.788,0,0,0,.425-.316c.029-.04.061-.08.092-.12a.973.973,0,0,0,.436.009,3.55,3.55,0,0,1,1.039-.047c.272.017.544.025.816.039a.259.259,0,0,1,.113.025,1.117,1.117,0,0,0,.683.092h.312c.453.022.905.051,1.358.068a.4.4,0,0,1,.355.112.274.274,0,0,0,.287.077c.114-.019.222-.069.33.028a.17.17,0,0,0,.148.022,1.04,1.04,0,0,1,.423-.019.553.553,0,0,0,.3-.048,2.132,2.132,0,0,1,.987-.139,6.376,6.376,0,0,1,.966.077c.181.017.361.043.542.051a8.006,8.006,0,0,0,.967.023,3.481,3.481,0,0,0,.967-.022.2.2,0,0,1,.114.016,5.554,5.554,0,0,0,1.156.134.728.728,0,0,1,.226.051.972.972,0,0,0,.61.024,2.058,2.058,0,0,1,.654-.052,4.71,4.71,0,0,0,.661.02c.09,0,.181.01.272.013a4.9,4.9,0,0,0,.542.018,3.283,3.283,0,0,1,1.046.063.7.7,0,0,0,.192.027,5.521,5.521,0,0,1,1.161.114,2,2,0,0,0,1.074-.083,1.109,1.109,0,0,1,.688-.022c.248.066.5.11.774.168a.5.5,0,0,1,.4-.4c.022-.007.033-.032.054-.04.451,0,.9-.009,1.354,0,.758.017,1.516.091,2.273.073,1.4-.033,2.8-.241,4.19-.15a48.9,48.9,0,0,0,7.4.24,9.624,9.624,0,0,1,1.138.065c.757.028,1.514.067,2.272.063,2.6-.012,5.2-.158,7.8-.019,1.7.091,3.385.405,5.1.525a15.928,15.928,0,0,0,4.336-.26,13.472,13.472,0,0,1,3.021-.191c1.515.047,3.025.214,4.538.321a1.916,1.916,0,0,0,.57-.041,15.46,15.46,0,0,1,5.088,0,24.208,24.208,0,0,0,5.5.126,40.68,40.68,0,0,1,7.22-.045,1.846,1.846,0,0,1,.9.244,1.723,1.723,0,0,0,1.444.138,5.681,5.681,0,0,1,2.247-.16c1.931.426,3.919-.1,5.828.447a.648.648,0,0,0,.375-.018,19.768,19.768,0,0,1,4.343-.479,5.853,5.853,0,0,1,2.634.246,3.651,3.651,0,0,0,2.957-.192,2.261,2.261,0,0,1,1.259-.352c1.339.258,2.688-.128,3.988.082a21.237,21.237,0,0,0,4.366.03c1.079-.045,2.158-.1,3.237-.094.884,0,1.768.076,2.653.116.694.033,1.39.054,2.084.1a31.071,31.071,0,0,0,5.317.173,11.445,11.445,0,0,1,3.038-.019,9.747,9.747,0,0,0,2.125.081V40.3c.014.287-.019.573-.012.86a4.977,4.977,0,0,0,.006.573.194.194,0,0,1,0,.076.361.361,0,0,0,.023.187.522.522,0,0,1,.028.3.588.588,0,0,0-.013.3.761.761,0,0,1-.018.361.647.647,0,0,0-.019.266.55.55,0,0,1-.018.206c-.031.129,0,.267-.037.4a.178.178,0,0,0,.016.055.685.685,0,0,1,.014.378,2.837,2.837,0,0,0-.049.4c-.007.191,0,.382,0,.574,0,.14,0,.28.013.42a1.011,1.011,0,0,1-.011.252.4.4,0,0,0-.014.114c.022.274-.019.549.024.823a.163.163,0,0,1,0,.076,1.028,1.028,0,0,0,0,.455c.039.268-.025.535.011.8a.232.232,0,0,1-.006.038v.381a2.42,2.42,0,0,1,.389-.049,2.247,2.247,0,0,0,.589-.061.66.66,0,0,1,.391.007.13.13,0,0,0,.091,0,.151.151,0,0,1,.145.019l.087.047a.357.357,0,0,1,.339-.093.409.409,0,0,0,.186-.032.7.7,0,0,1,.52-.027.89.89,0,0,0,.169.035c.079.018.168.006.229.081a.078.078,0,0,0,.052.019,2.936,2.936,0,0,0,.325,0,.468.468,0,0,1,.278.044.573.573,0,0,0,.331.076.588.588,0,0,1,.186.039c.086.022.172.049.259.068a.287.287,0,0,0,.092-.011c0-.034.009-.059.01-.083.006-.154,0-.307.018-.46a3.3,3.3,0,0,1,.039-.515.225.225,0,0,0,0-.058,1.507,1.507,0,0,1,.085-.424.308.308,0,0,0,.029-.258c-.012-.029.009-.074.024-.108a.357.357,0,0,0,.035-.223.451.451,0,0,1,.024-.246.356.356,0,0,0-.024-.294c-.016-.035-.035-.069-.053-.1a.323.323,0,0,1-.022-.31.679.679,0,0,0,.043-.431c-.008-.037-.007-.077-.017-.114a.834.834,0,0,1,.037-.489.554.554,0,0,0-.017-.41.776.776,0,0,1,.009-.578.227.227,0,0,0,.027-.071,1.262,1.262,0,0,1,.086-.387c.027-.092.036-.19-.078-.248a.151.151,0,0,1-.054-.094,1.188,1.188,0,0,1,.023-.568.474.474,0,0,0-.023-.42.141.141,0,0,1-.017-.073v-.5a2.074,2.074,0,0,1,.01-.249.49.49,0,0,1,.03-.169.9.9,0,0,0,.052-.262c.01-.062,0-.127.006-.19a3.122,3.122,0,0,0,.034-.362c0-.086-.048-.171-.054-.258s.025-.18-.018-.265a.3.3,0,0,1-.024-.185c.013-.1.018-.2.023-.306a2.442,2.442,0,0,0,.008-.363,1.207,1.207,0,0,1-.043-.3.363.363,0,0,1,.07-.375.411.411,0,0,0,.057-.1c.036-.129.074-.258.1-.39.012-.069.031-.152-.068-.2a.141.141,0,0,1-.057-.1c-.026-.15-.048-.3-.066-.454a.134.134,0,0,1,.028-.09.278.278,0,0,0,.036-.238.253.253,0,0,1,0-.095.339.339,0,0,0-.024-.186.666.666,0,0,1-.028-.34,1.227,1.227,0,0,0,0-.363.948.948,0,0,1,.013-.323,1.434,1.434,0,0,0,.032-.51,1.937,1.937,0,0,1,.031-.666.148.148,0,0,0,0-.093c-.063-.116-.006-.239-.029-.358a.31.31,0,0,1,.037-.146.45.45,0,0,0,.007-.534.191.191,0,0,0,0-.1,1.081,1.081,0,0,1-.04-.32,1.371,1.371,0,0,0-.013-.286.513.513,0,0,1,.009-.28.182.182,0,0,0,0-.057l-.006-.344a.136.136,0,0,1,.011-.074.262.262,0,0,0,0-.257.228.228,0,0,1-.01-.11c.013-.082.04-.161.051-.242a1.546,1.546,0,0,0-.014-.646.149.149,0,0,1-.008-.091.471.471,0,0,0,.01-.283.276.276,0,0,1,0-.188.591.591,0,0,0,.043-.224c.017-.107.027-.216.036-.323a.463.463,0,0,0,0-.189.332.332,0,0,1,0-.244.618.618,0,0,0,.032-.28.3.3,0,0,1,.1-.3.139.139,0,0,0,.053-.155c-.051-.122-.034-.27-.143-.359,0-.085.066-.152.02-.232-.01-.017,0-.05.012-.073a.684.684,0,0,0,.045-.32.707.707,0,0,1,.01-.247.782.782,0,0,0-.062-.462c-.019-.061-.043-.121-.06-.182a.145.145,0,0,1-.007-.092.5.5,0,0,0,.02-.263,1.124,1.124,0,0,1,.026-.265.326.326,0,0,0,0-.222.331.331,0,0,1,.015-.313.456.456,0,0,0,.04-.336.814.814,0,0,0-.058-.179c-.024-.048,0-.121,0-.183a.169.169,0,0,0-.023-.072.448.448,0,0,1-.024-.282,1.127,1.127,0,0,0,.017-.209.779.779,0,0,1,.138-.535c-.06-.094-.06-.094-.055-.164l.015-.044c.01-.244.009-.246-.233-.178l-.2-.187c-.083.031-.167.062-.251.091a.213.213,0,0,1-.168,0c-.034-.017-.073-.021-.108-.036a.769.769,0,0,1-.3-.162.213.213,0,0,0-.2-.077.216.216,0,0,1-.108-.029c-.059-.023-.115-.051-.166-.074l-.173.084a.376.376,0,0,0-.419-.062.24.24,0,0,1-.2-.03.821.821,0,0,1-.186-.172l-.317.11a2.138,2.138,0,0,0-.239-.044c-.079,0-.167-.027-.23.054-.009.011-.036.012-.054.013a1.735,1.735,0,0,1-.228,0,.3.3,0,0,0-.259.091.6.6,0,0,1-.327.185.361.361,0,0,0-.1.045.342.342,0,0,1-.283.019c-.078-.026-.127.007-.117.094a1.4,1.4,0,0,0,.056.28.4.4,0,0,1,.014.281.193.193,0,0,0,.009.166.157.157,0,0,1-.022.2.121.121,0,0,0-.026.1.337.337,0,0,1-.018.259.232.232,0,0,0,0,.091c0,.025.022.058.012.073-.076.118-.018.237-.014.356a.379.379,0,0,1-.006.15.811.811,0,0,0-.043.32c0,.178.01.357,0,.535a2.026,2.026,0,0,0,.026.516.516.516,0,0,1,0,.228.8.8,0,0,0,.013.361c.052-.067.015-.158.09-.191.08.08.094.092.067.138a.461.461,0,0,0-.026.262c0,.009-.012.019-.019.028a.221.221,0,0,0-.15.011l.015.494a1.41,1.41,0,0,1,0,.172c-.007.121-.017.241-.022.362-.013.274-.048.547-.043.822a4,4,0,0,0,.032.726.321.321,0,0,1,0,.151,1.288,1.288,0,0,0-.039.454,4.39,4.39,0,0,0,0,.688.546.546,0,0,1-.007.134.854.854,0,0,0,.057.45.42.42,0,0,1-.019.372.5.5,0,0,0-.053.345.163.163,0,0,1,0,.111.292.292,0,0,0,0,.242.543.543,0,0,1,.031.148,2.858,2.858,0,0,0,.03.321.74.74,0,0,1-.02.3c-.015.056-.026.113-.041.169a.493.493,0,0,0,.05.383.163.163,0,0,0-.055.157,1.048,1.048,0,0,1,0,.326,1.862,1.862,0,0,0-.022.5.174.174,0,0,1-.011.075.547.547,0,0,0-.01.238c-.023.007-.044,0-.067.011a3.368,3.368,0,0,1-1.862-.029,18.206,18.206,0,0,0-5.286-.433,7.405,7.405,0,0,1-3.558-.444,4.974,4.974,0,0,0-2.239-.323c-2.474.167-4.952.283-7.425.457-1.245.088-2.467.456-3.727-.055a4.52,4.52,0,0,0-1.513,0c-.7-.006-1.394-.028-2.091-.053-.631-.023-1.262-.1-1.892-.082a12.375,12.375,0,0,1-3.228-.088,1.869,1.869,0,0,0-1.127.028,4.992,4.992,0,0,1-2.987.088,22.241,22.241,0,0,1-5.22-.978,2.01,2.01,0,0,0-1.3.006,2.993,2.993,0,0,1-1.862,0,1.918,1.918,0,0,0-.926-.142,3.717,3.717,0,0,1-2.237-.183,4.626,4.626,0,0,0-2.446.06c-.367.1-.783.352-1.091.257a9.35,9.35,0,0,0-3,.056c-.738,0-1.5.263-2.186-.275-.171-.132-.491-.07-.741-.105-.94-.131-1.881-.258-2.819-.4-1.378-.208-2.749-.465-4.131-.625a8.288,8.288,0,0,0-1.627.119l-.72,1.451a18.279,18.279,0,0,0-2.3-.527,19.558,19.558,0,0,0-2.284.046,1.563,1.563,0,0,1-.564-.074,3.715,3.715,0,0,0-2.952-.176,1.647,1.647,0,0,1-.929-.079c-2.99-.721-6.059-.367-9.081-.663-1.634-.16-3.31.047-4.931-.177a23.888,23.888,0,0,0-5.128.012,11.478,11.478,0,0,1-3.028-.193c-1.287-.243-2.542-.907-3.9-.277-.094.043-.248-.063-.371-.055-.562.037-1.126.069-1.684.142a13.735,13.735,0,0,1-1.871.292c-1.77-.018-3.546-.048-5.3-.22a3.2,3.2,0,0,0-2.346.4,1.961,1.961,0,0,1-.469.2c-.007.04-.006.081-.012.121h-.014a.22.22,0,0,0-.009-.076c-.035-.206-.142-.287-.311-.221-.12.048-.231.12-.347.178a.579.579,0,0,1-.107.034c-.1-.031-.2-.06-.292-.086-.078.046-.141.091-.21.123a4.422,4.422,0,0,1-1,.29.929.929,0,0,1-.717,0c-.03-.018-.077-.008-.115-.01a3.661,3.661,0,0,1-.881-.144,1.981,1.981,0,0,0-.769-.086c-.193.02-.389.018-.584.028a1.213,1.213,0,0,1-1.063-.467,1.889,1.889,0,0,0-.159-.166,1.658,1.658,0,0,1-.894.055.167.167,0,0,0-.077,0c-.216.044-.435.076-.645.137a.974.974,0,0,1-.461.034.45.45,0,0,0-.371.054.354.354,0,0,1-.219.038c-.3-.023-.593-.06-.89-.085a1.672,1.672,0,0,1-.836-.247.442.442,0,0,0-.367-.08,1.948,1.948,0,0,1-.619,0,.581.581,0,0,0-.227.019.808.808,0,0,1-.566.052.7.7,0,0,0-.194,0,8.931,8.931,0,0,0-1.082.121,2.068,2.068,0,0,0-.747.2.483.483,0,0,1-.482.031.557.557,0,0,0-.491,0c-.047.022-.114.027-.14.063-.1.136-.249.111-.382.139-.014,0-.034-.021-.07-.045l.169-.278a.734.734,0,0,0-.82.224c-.064-.022-.129-.07-.184-.06-.344.066-.694.082-1.04.127a2.707,2.707,0,0,0-.532.032c-.216.079-.338-.1-.513-.116-.113-.008-.226-.027-.322-.04l-.135.18c-.4-.275-.857-.045-1.256-.209-.02-.008-.049.014-.075.017-.049,0-.113.01-.163.014a.185.185,0,0,0-.24-.077c-.12.048-.231.12-.347.178a.579.579,0,0,1-.107.034c-.1-.031-.2-.06-.292-.086-.078.046-.141.091-.21.123a4.422,4.422,0,0,1-1,.29.929.929,0,0,1-.717,0c-.03-.018-.077-.008-.115-.01a3.661,3.661,0,0,1-.881-.144,1.981,1.981,0,0,0-.769-.086c-.193.02-.389.018-.584.028a1.213,1.213,0,0,1-1.063-.467,1.889,1.889,0,0,0-.159-.166,1.658,1.658,0,0,1-.894.055.167.167,0,0,0-.077,0c-.216.044-.435.076-.645.137a.974.974,0,0,1-.461.034.45.45,0,0,0-.371.054.354.354,0,0,1-.219.038c-.3-.023-.593-.06-.89-.085a1.672,1.672,0,0,1-.836-.247.442.442,0,0,0-.367-.08,1.948,1.948,0,0,1-.619,0,.574.574,0,0,0-.226.019.812.812,0,0,1-.567.052.7.7,0,0,0-.194,0,8.931,8.931,0,0,0-1.082.121,2.068,2.068,0,0,0-.747.2.483.483,0,0,1-.482.031.557.557,0,0,0-.491,0c-.047.022-.114.027-.14.063-.1.136-.249.111-.382.139-.014,0-.034-.021-.07-.045l.169-.278a.734.734,0,0,0-.82.224c-.064-.022-.129-.07-.184-.06-.034.007-.068.007-.1.013a.957.957,0,0,1,.011-.119,1.782,1.782,0,0,1-.954.123,3.379,3.379,0,0,0-1.344-.012H63.7v.007c-.124.023-.248.044-.368.076-.337-.092-.7.02-1.018-.112-.02-.008-.049.014-.075.017l-.588.054a.388.388,0,0,1-.436.127c-.032-.011-.076.01-.113.022a3.418,3.418,0,0,1-.639.269c-.031,0-.06.048-.082.079s-.052.012-.074.028c-.355-.012-.71-.032-1.065-.054-.01.071-.029.142-.04.213-.294-.019-.587-.037-.881-.043-.439-.007-.876-.216-1.312-.208a26.292,26.292,0,0,1-4.2-.021v-.024a.523.523,0,0,1,.01-.28.182.182,0,0,0,0-.057l-.006-.344a.136.136,0,0,1,.011-.074.261.261,0,0,0,0-.257.241.241,0,0,1-.01-.11c.013-.082.04-.161.052-.242a1.58,1.58,0,0,0-.014-.646.142.142,0,0,1-.009-.091.464.464,0,0,0,.01-.283.276.276,0,0,1,0-.188.592.592,0,0,0,.044-.224c.017-.107.027-.216.036-.323a.463.463,0,0,0,0-.189.332.332,0,0,1,0-.244.6.6,0,0,0,.031-.28.3.3,0,0,1,.1-.3.136.136,0,0,0,.053-.155c-.05-.122-.033-.27-.143-.359,0-.085.066-.152.02-.232a.092.092,0,0,1,.013-.073.7.7,0,0,0,.045-.32.685.685,0,0,1,.009-.247A.767.767,0,0,0,53,26.148c-.019-.061-.043-.121-.06-.182a.152.152,0,0,1-.007-.092.481.481,0,0,0,.02-.263,1.18,1.18,0,0,1,.027-.265.326.326,0,0,0,0-.222A.334.334,0,0,1,53,24.811a.451.451,0,0,0,.039-.336.707.707,0,0,0-.058-.179c-.023-.048,0-.121,0-.183a.186.186,0,0,0-.024-.072.447.447,0,0,1-.024-.282,1.035,1.035,0,0,0,.017-.209.779.779,0,0,1,.138-.535c-.059-.094-.059-.094-.055-.164,0-.019.006-.038.006-.057.011-.244.009-.246-.233-.178l-.2-.187c-.083.031-.166.062-.25.091a.213.213,0,0,1-.168,0c-.034-.017-.074-.021-.109-.036a.757.757,0,0,1-.3-.162.216.216,0,0,0-.206-.077.216.216,0,0,1-.108-.029c-.058-.023-.115-.051-.165-.074l-.173.084a.378.378,0,0,0-.42-.062.24.24,0,0,1-.2-.03.8.8,0,0,1-.186-.172l-.318.11a2.138,2.138,0,0,0-.239-.044c-.078,0-.167-.027-.229.054-.01.011-.036.012-.055.013a1.72,1.72,0,0,1-.227,0,.3.3,0,0,0-.26.091.6.6,0,0,1-.326.185.375.375,0,0,0-.1.045.34.34,0,0,1-.282.019c-.079-.026-.127.007-.117.094a1.476,1.476,0,0,0,.055.28.4.4,0,0,1,.014.281.193.193,0,0,0,.01.166.159.159,0,0,1-.022.2.126.126,0,0,0-.027.1.329.329,0,0,1-.017.259.216.216,0,0,0-.005.091c0,.025.021.058.011.073-.075.118-.018.237-.013.356a.4.4,0,0,1-.007.15.849.849,0,0,0-.043.32c0,.178.01.357,0,.535a1.982,1.982,0,0,0,.027.516.547.547,0,0,1,0,.228.8.8,0,0,0,.012.361c.052-.067.015-.158.09-.191.08.08.094.092.068.138a.452.452,0,0,0-.027.262c0,.009-.012.019-.018.028a.224.224,0,0,0-.151.011l.015.494a1.41,1.41,0,0,1,0,.172c-.008.121-.017.241-.023.362-.012.274-.048.547-.042.822a4,4,0,0,0,.031.726.3.3,0,0,1,0,.151,1.312,1.312,0,0,0-.039.454,4.39,4.39,0,0,0,0,.688.546.546,0,0,1-.007.134.873.873,0,0,0,.056.444v.006a.423.423,0,0,1-.018.372.5.5,0,0,0-.053.345.163.163,0,0,1,0,.111.3.3,0,0,0,0,.242.508.508,0,0,1,.031.148,2.859,2.859,0,0,0,.031.321.758.758,0,0,1-.021.3c-.014.056-.025.113-.04.169a.485.485,0,0,0,.05.383.16.16,0,0,0-.056.157.991.991,0,0,1,0,.326,1.907,1.907,0,0,0-.021.5.191.191,0,0,1-.012.075.421.421,0,0,0,.094.433,1.847,1.847,0,0,0-.121.771.217.217,0,0,0,.091.217.152.152,0,0,1,.051.1.37.37,0,0,1,0,.262.133.133,0,0,0,.01.09.534.534,0,0,1-.091.489.211.211,0,0,0-.048.158.943.943,0,0,0,.043.206.7.7,0,0,1,.038.413.755.755,0,0,0,0,.19,1.957,1.957,0,0,0,.026.229,1.474,1.474,0,0,1-.075.7c-.026.07,0,.153-.057.218-.009.011,0,.037,0,.056,0,.042.01.084.013.127h0a1.667,1.667,0,0,1-.048.379,1.882,1.882,0,0,0-.026.247c0,.135,0,.268.011.4.015.287-.018.573-.011.86a4.563,4.563,0,0,0,.006.573.194.194,0,0,1,0,.076.361.361,0,0,0,.023.187.514.514,0,0,1,.028.3.588.588,0,0,0-.012.3.787.787,0,0,1-.019.361.683.683,0,0,0-.019.266.528.528,0,0,1-.017.206c-.032.129,0,.267-.037.4a.175.175,0,0,0,.015.055.694.694,0,0,1,.015.378,2.839,2.839,0,0,0-.05.4c-.007.191,0,.382,0,.574,0,.14,0,.28.012.42a1,1,0,0,1-.009.267.4.4,0,0,0-.013.114c.022.274-.02.549.024.823a.163.163,0,0,1,0,.076,1.058,1.058,0,0,0,0,.455c.039.268-.025.535.011.8V48.2l-.006.381a2.42,2.42,0,0,1,.389-.049,2.247,2.247,0,0,0,.589-.061.66.66,0,0,1,.391.007.13.13,0,0,0,.091,0,.151.151,0,0,1,.145.019l.088.047a.355.355,0,0,1,.338-.093.4.4,0,0,0,.186-.032.7.7,0,0,1,.52-.027.89.89,0,0,0,.169.035c.079.018.169.006.229.081a.075.075,0,0,0,.053.019,2.918,2.918,0,0,0,.324,0,.476.476,0,0,1,.278.044.565.565,0,0,0,.331.076.588.588,0,0,1,.186.039c.087.022.172.049.259.068a.287.287,0,0,0,.092-.011A.106.106,0,0,1,52.507,48.675Z"/></svg>