<svg id="Layer_1" data-name="Layer 1" xmlns="http://www.w3.org/2000/svg" viewBox="0 0 296 121"><defs><style>.cls-1{fill:#1858a8;}.cls-2{fill:#f36;}</style></defs><title>line()</title><path class="cls-1" d="M190.171,25.774c0-7.03,2.228-8.451,5.705-8.451V18.9c-2.632,0-3.88.9-3.88,6.684,0,6.165,1.248,7.068,3.88,7.068v1.575C192.4,34.225,190.171,33,190.171,25.774Z"/><path class="cls-1" d="M205.3,27.733h-.211L202.266,32.3h-1.9l3.61-5.531-3.553-5.032h1.9l2.823,4.129h.25l2.823-4.129h1.805l-3.553,4.993,3.61,5.57h-1.9Z"/><path class="cls-1" d="M222.677,30.729V32.3h-9.45V30.537c3.362-2.055,7.279-4.149,7.279-7.491,0-1.479-.653-2.419-2.842-2.419-2.382,0-3.016,1.056-3.016,2.861a3.278,3.278,0,0,0,.154,1.172l-1.825-.135A9.117,9.117,0,0,1,212.9,23.3c0-2.554,1.67-4.244,4.859-4.244,3.745,0,4.551,2.074,4.551,3.8,0,3.687-3.456,5.761-5.569,7.183L215.7,30.5v.23Z"/><path class="cls-1" d="M232.236,31.708a3.564,3.564,0,0,1-3.439,3.685,3.646,3.646,0,0,1-.479-.016v-1.44a2.043,2.043,0,0,0,2.324-1.71,1.159,1.159,0,0,1-.692.25,1.729,1.729,0,0,1,.077-3.457,2.389,2.389,0,0,1,2.223,2.544C232.247,31.612,232.242,31.66,232.236,31.708Z"/><path class="cls-1" d="M256,34.225h3.035v1.536h-7.8V34.225h3.034V32.093l-4.091-10.352h1.863l2.209,5.742.75,2.382h.384l.768-2.382,2.171-5.742h1.767L256,32.093Z"/><path class="cls-1" d="M272.592,30.729V32.3h-9.45V30.537c3.362-2.055,7.279-4.149,7.279-7.491,0-1.479-.653-2.419-2.842-2.419-2.382,0-3.016,1.056-3.016,2.861a3.278,3.278,0,0,0,.154,1.172l-1.825-.135a9.013,9.013,0,0,1-.076-1.229c0-2.554,1.67-4.244,4.859-4.244,3.745,0,4.551,2.074,4.551,3.8,0,3.687-3.456,5.761-5.569,7.183l-1.037.461v.23Z"/><path class="cls-1" d="M282.67,25.774c0,7.029-2.228,8.451-5.705,8.451V32.65c2.632,0,3.88-.9,3.88-6.684,0-6.165-1.248-7.068-3.88-7.068V17.323C280.442,17.323,282.67,18.553,282.67,25.774Z"/><path class="cls-1" d="M7.078,95.515c0-7.029,2.228-8.451,5.7-8.451v1.575c-2.631,0-3.878.9-3.878,6.683,0,6.166,1.247,7.068,3.878,7.068v1.575C9.306,103.965,7.078,102.736,7.078,95.515Z"/><path class="cls-1" d="M22.208,97.473H22l-2.823,4.572h-1.9l3.612-5.531-3.555-5.033h1.9l2.824,4.129H22.3l2.824-4.129h1.8l-3.553,4.994,3.611,5.57h-1.9Z"/><path class="cls-1" d="M39.661,100.469v1.576H30.519v-1.576h4.072V92.212l-4.072,1.554V92.057l4.072-1.552v-1.52h1.767v11.484Z"/><path class="cls-1" d="M49.144,101.45a3.564,3.564,0,0,1-3.441,3.683,3.615,3.615,0,0,1-.477-.015v-1.44a2.043,2.043,0,0,0,2.324-1.71,1.171,1.171,0,0,1-.692.25,1.729,1.729,0,0,1,.077-3.457,2.391,2.391,0,0,1,2.223,2.546C49.154,101.354,49.15,101.4,49.144,101.45Z"/><path class="cls-1" d="M72.91,103.965h3.035v1.54h-7.8v-1.537H71.18v-2.132L67.09,91.481h1.863l2.209,5.744.749,2.381H72.3l.768-2.381,2.171-5.744H77L72.91,101.833Z"/><path class="cls-1" d="M89.576,100.469v1.576H80.431v-1.576H84.5V92.212l-4.072,1.554V92.057L84.5,90.5V88.985H86.27v11.484Z"/><path class="cls-1" d="M99.577,95.515c0,7.03-2.229,8.45-5.706,8.45V102.39c2.634,0,3.88-.9,3.88-6.684,0-6.165-1.247-7.067-3.88-7.067V87.064C97.349,87.064,99.577,88.294,99.577,95.515Z"/><path class="cls-2" d="M268.212,61.2c.187-1.107-.095-2.241.237-3.334a.7.7,0,0,0-.038-.341,3.912,3.912,0,0,1-.045-1.168.808.808,0,0,0-.571.164,1.847,1.847,0,0,1-1.036.278,11.607,11.607,0,0,1-1.216-.091,1.967,1.967,0,0,0-.846.056,2.7,2.7,0,0,1-1.562.07,4.4,4.4,0,0,0-1.207,0,10.012,10.012,0,0,1-1.942-.1,6.477,6.477,0,0,0-1.342-.039c-1.54.24-3.1.208-4.644.306a21.98,21.98,0,0,1-2.69-.134,3.6,3.6,0,0,0-.485-.063,38.455,38.455,0,0,1-4.06.049c-1.595-.027-3.191.051-4.785.073a3.089,3.089,0,0,1-.729-.1,9.456,9.456,0,0,0-3.058-.1q-1.593.156-3.192.239c-.569.027-1.142-.039-1.712-.038-.532,0-1.065.027-1.6.056A19.289,19.289,0,0,1,229.24,57a9.536,9.536,0,0,0-3.412.313,3.221,3.221,0,0,1-1.205.084,8.327,8.327,0,0,0-2.795.047,3.473,3.473,0,0,1-1.946-.048,1.776,1.776,0,0,0-1.2,0,1.959,1.959,0,0,1-.967.064,2.061,2.061,0,0,0-1.2.094,1.4,1.4,0,0,1-.6.078c-.815-.046-1.631-.117-2.443-.174-.121-.008-.267-.062-.361-.014-.557.274-1.125.062-1.688.082a6.025,6.025,0,0,0-2.186.131,1.209,1.209,0,0,1-.49.025c-.894-.046-1.791-.106-2.687-.149-.356-.018-.357-.006-1.093.574a3.424,3.424,0,0,0-.8-.457,6.754,6.754,0,0,0-.975-.026,11.412,11.412,0,0,0-2.937-.014,4.917,4.917,0,0,0-.962.181,3.488,3.488,0,0,1-1.2.077,10.731,10.731,0,0,0-3.155.095,1.374,1.374,0,0,1-.608.035c-.971-.151-1.948-.211-2.928-.284a14.616,14.616,0,0,0-2.082-.031c-.285.019-.572-.011-.857-.017-.16,0-.382-.082-.48,0-.66.526-1.407.248-2.123.293-.526.032-1.039.27-1.562.279s-.978-.306-1.536-.336a9.3,9.3,0,0,0-3.165.152,2.3,2.3,0,0,1-1.088-.09,2.412,2.412,0,0,0-1.441.071A1.985,1.985,0,0,1,175.39,58c-.107-.057-.257-.146-.343-.112-.844.354-1.7-.062-2.554.069a3.93,3.93,0,0,1-1.833-.022.237.237,0,0,0-.121-.011,7.734,7.734,0,0,1-2.778.177c-.681.334-1.474-.088-2.152.315a.4.4,0,0,1-.35-.041,2.5,2.5,0,0,0-1.669-.242,3.591,3.591,0,0,1-.854-.043,2.577,2.577,0,0,0-1.332.086,2.841,2.841,0,0,1-1.077.108,9.087,9.087,0,0,0-2.186-.062,9.471,9.471,0,0,1-2.319-.052,4.8,4.8,0,0,0-1.321.082,4.607,4.607,0,0,1-3.348-.243,2.535,2.535,0,0,0-1.928.025,7.287,7.287,0,0,1-2.909.29,1.048,1.048,0,0,0-.48.066,2.679,2.679,0,0,1-1.331.037c-.727-.1-1.463-.122-2.2-.154-.327-.014-.655.057-.983.057-.571,0-1.141-.018-1.713-.027a1.507,1.507,0,0,0-.6.023,3.089,3.089,0,0,1-1.928.11,4.286,4.286,0,0,0-.98.038,10.24,10.24,0,0,1-2.7,0,6.181,6.181,0,0,0-.981.022,6.656,6.656,0,0,1-1.336-.114,6.156,6.156,0,0,0-1.952-.129c-2.046.162-4.093.321-6.14.454-.567.036-1.142-.028-1.712-.037-.369-.006-.738-.009-1.106.01a8.952,8.952,0,0,1-2.574-.012,2.516,2.516,0,0,0-.735.022,24.826,24.826,0,0,1-3.535.033c-.447-.03-.9.069-1.351.072-.491.005-.977-.022-1.467-.039a1.6,1.6,0,0,0-.486-.018,7.94,7.94,0,0,1-3.026.034,7.646,7.646,0,0,0-2.8.245,1.073,1.073,0,0,1-.834,0,3.063,3.063,0,0,0-1.693-.175,19.067,19.067,0,0,1-4.653-.093,4.326,4.326,0,0,0-.859.015c-1.106.077-2.21.169-3.317.241a23.5,23.5,0,0,1-2.573.026,18.465,18.465,0,0,0-3.294.293,2.643,2.643,0,0,1-.959.023,8.067,8.067,0,0,0-2.565-.14,9.579,9.579,0,0,1-1.344-.043c-.286-.01-.571-.02-.858-.016-1.915.025-3.83-.005-5.743.162-.4.034-.855-.206-1.211-.084a8.191,8.191,0,0,1-2.665.039,4.031,4.031,0,0,0-.718.092,5.432,5.432,0,0,1-2.192.057,11.918,11.918,0,0,0-2.923-.091c-.7.025-1.392.1-2.089.144a2.791,2.791,0,0,1-.736.035,12.311,12.311,0,0,0-3.31.03,9.266,9.266,0,0,1-2.816-.063,3.548,3.548,0,0,0-.843-.014c-.242,0-.482.024-.723.018a3.589,3.589,0,0,0-.486-.057,44.358,44.358,0,0,1-4.54.073c-.488.019-.979-.025-1.468-.034-.368-.007-.738-.022-1.1,0-1.188.076-2.381.127-3.562.265a21.692,21.692,0,0,1-3.429-.07c-.489-.02-.98-.075-1.466-.051a20.1,20.1,0,0,1-2.574,0,19.887,19.887,0,0,0-2.824.142h0a3.389,3.389,0,0,0,.04.513,8.223,8.223,0,0,1,.255,3.317,2.841,2.841,0,0,0,.079.909c.054.261.2.5.269.764.074.28.1.572.141.788a7.935,7.935,0,0,0,3.746-.046c1.053-.144,2.077-.615,3.18-.322.406.107.82.193,1.222.32a2.532,2.532,0,0,0,2.022-.078,2.173,2.173,0,0,1,.879-.234,16.565,16.565,0,0,1,1.726.032,2.684,2.684,0,0,1,.891.162,2.841,2.841,0,0,0,1.695.183,3.053,3.053,0,0,1,1.474.062,1.938,1.938,0,0,0,1.359-.01,1.552,1.552,0,0,1,1.128-.033c.33.1.685.122,1.017.218a2.116,2.116,0,0,0,1.966-.332,1.5,1.5,0,0,1,2.019.059,1.1,1.1,0,0,0,.321.129,5.086,5.086,0,0,0,1.734-.9,1.7,1.7,0,0,1,1.583-.511,2.174,2.174,0,0,0,.9-.145,11.594,11.594,0,0,1,1.461-.317c.839-.065,1.693-.048,2.535-.084a2.736,2.736,0,0,1,1.579.2,1.9,1.9,0,0,0,.791.081,4,4,0,0,1,1.888.424,1.339,1.339,0,0,0,1.326.131,1.41,1.41,0,0,1,1.523-.045.552.552,0,0,0,.34.034c1.294-.157,2.6-.071,3.943-.174l.4.937a11.734,11.734,0,0,0,1.52.153c.925-.028,1.849-.126,2.772-.2.044,0,.08-.092.108-.127l-.23-.328c.315-.261.585-.241.786-.015a1.641,1.641,0,0,0,1.029.448,3.6,3.6,0,0,0,1.939-.1,1.056,1.056,0,0,1,.895-.053,6.1,6.1,0,0,0,2.358.512,11.935,11.935,0,0,0,2.306-.095,1.986,1.986,0,0,0,.512-.237c.635-.271,1.269-.547,1.916-.8.164-.063.389-.068.389.3-.341.117-.706.234-1.06.367a4.7,4.7,0,0,0-.833.37c-.131.084-.186.287-.334.538,1.04.224,1.936.6,2.88.01a1.126,1.126,0,0,1,1.1.052,2.034,2.034,0,0,0,1.979.01,1.511,1.511,0,0,1,1.12-.159,4.989,4.989,0,0,0,2.516-.172,2.06,2.06,0,0,1,1.686.026.623.623,0,0,0,.438.081,13.625,13.625,0,0,1,2.867-.335,1.354,1.354,0,0,0,.947-.378c.389-.476,1.036-.489,1.474-.875a.662.662,0,0,1,.552-.063,2.223,2.223,0,0,0,1.57-.192c.325-.12.636-.275.948-.412.515-.229.974-.209,1.22.212.64.031,1.172.075,1.7.075a3.993,3.993,0,0,0,1.137-.108,4.007,4.007,0,0,1,1.594-.186.794.794,0,0,0,.534-.1.765.765,0,0,1,1.049-.017.531.531,0,0,0,.436.058,2.017,2.017,0,0,1,1.026-.013,10.642,10.642,0,0,0,3.649-.221,5.27,5.27,0,0,1,2.833-.24,5.11,5.11,0,0,0,2.61.064c.1-.023.23.093.37.155-.219.252-.376.437-.564.655.475.073.853.148,1.234.185A2.137,2.137,0,0,0,134,64.235a1.738,1.738,0,0,1,1.213-.482,4.019,4.019,0,0,0,.9-.185,3.372,3.372,0,0,1,1.713-.144,3.13,3.13,0,0,0,1.816-.138,1.033,1.033,0,0,1,.895.006.879.879,0,0,1,.168.154l-.065.483.9.123c.348-.815.632-.887,2.034-.543l-.108.7c.328.145.637.284.947.423.884-.3,1.945-.23,2.419-1.215A1.216,1.216,0,0,1,147,63.4c.536.08,1.083.557,1.609-.056.048-.056.22,0,.334-.008a13.455,13.455,0,0,0,3.656-.169,3.148,3.148,0,0,1,1.034,0c.229.009.459.081.689.068a26.7,26.7,0,0,1,3.464-.042,5.149,5.149,0,0,1,2.009.425,7.045,7.045,0,0,1,3.866-.4,3.25,3.25,0,0,0,1.37.083,8.574,8.574,0,0,1,2.28-.011c.341-.014.694.09,1.034.062a13.924,13.924,0,0,0,2.75-.187,2,2,0,0,1,.919-.031,7.984,7.984,0,0,0,2.305.007,12.4,12.4,0,0,1,2.195-.12,17.839,17.839,0,0,0,2.887-.027,2.962,2.962,0,0,1,.809,0,5.785,5.785,0,0,0,1.96.02,6.258,6.258,0,0,1,2.07.091,5.221,5.221,0,0,0,2.745-.094,1.172,1.172,0,0,1,.335-.081,14.415,14.415,0,0,1,2.189.049,16.7,16.7,0,0,0,3.462-.066,17.025,17.025,0,0,1,2.422-.019,26.54,26.54,0,0,0,2.985-.039,16.093,16.093,0,0,1,2.532,0,34.963,34.963,0,0,0,3.576-.012,17.275,17.275,0,0,1,2.963.181,2.228,2.228,0,0,0,.682.115,24.773,24.773,0,0,0,4.593-.487,3.416,3.416,0,0,1,1.141-.034,15.128,15.128,0,0,0,2.993.123,6.7,6.7,0,0,1,2.415.1,14.713,14.713,0,0,0,2.846-.1.362.362,0,0,0,.109-.04,4.5,4.5,0,0,1,2.164-.175,10.633,10.633,0,0,0,2.182.154,11.927,11.927,0,0,0,2.867-.176.92.92,0,0,1,.343-.016c.534.033,1.076.038,1.612.11a11.035,11.035,0,0,0,3.549-.05,5.76,5.76,0,0,1,1.152-.016c.461.01.922.039,1.383.043a6.248,6.248,0,0,1,1.152-.038,10.288,10.288,0,0,0,2.307.022,11.032,11.032,0,0,1,1.15.045,6.807,6.807,0,0,0,1.829.134,5.922,5.922,0,0,1,2.057-.033,7.641,7.641,0,0,0,2.763-.1,6.05,6.05,0,0,1,2.28-.011,4.923,4.923,0,0,0,2.171-.16,5.289,5.289,0,0,1,2.288-.178c.341.048.69.037,1.035.052l1.151.049c.921.039,1.843.1,2.769.113a12.876,12.876,0,0,0,1.732-.126,13.394,13.394,0,0,0,1.824-.079,5.594,5.594,0,0,1,1.713.053c.345.023.689.094,1.032.113a1.29,1.29,0,0,0,1.462-1.092A1.233,1.233,0,0,0,268.212,61.2Zm-188.5,3.879c.686-.355,1.216-.644,1.764-.9.093-.043.26.067.393.107-.05.128-.061.314-.156.377A3.6,3.6,0,0,1,79.716,65.082Z"/><path class="cls-1" d="M263.837,54.259a2.229,2.229,0,0,0,.412-.276.816.816,0,0,1,.237-.155.844.844,0,0,0,.28-.183.351.351,0,0,1,.231-.114,1.632,1.632,0,0,0,.731-.25.449.449,0,0,1,.2-.064,1.834,1.834,0,0,0,.325-.087c.084-.027.166-.064.25-.094a.15.15,0,0,1,.069-.011,1.1,1.1,0,0,0,.4-.054.625.625,0,0,1,.106-.011,1.163,1.163,0,0,1,.213-.018c.2.019.389-.019.584-.011a.414.414,0,0,0,.07.006,1.471,1.471,0,0,1,.777.153,3.76,3.76,0,0,0,.6.275.1.1,0,0,1,.048.022.787.787,0,0,0,.427.234c.106.044.218.059.322.1a1.135,1.135,0,0,0,.293.068c.141.017.281.034.423.062a.636.636,0,0,1,.17.054.772.772,0,0,0,.469.058.469.469,0,0,1,.259.032,1.436,1.436,0,0,0,.287.093.334.334,0,0,1,.264.174.09.09,0,0,0,.037.038,4.767,4.767,0,0,0,.414.243.469.469,0,0,1,.091.055c.057.042.113.086.169.131a.116.116,0,0,1,.049.049c.035.114.138.175.2.268.035.055.076.107.11.161a.1.1,0,0,1,.021.065.541.541,0,0,0,.209.5c.025.032.059.058.087.089a3.569,3.569,0,0,1,.279.323.905.905,0,0,1,.16.353.558.558,0,0,0,.332.434l.149.063a.279.279,0,0,1,.172.191,1.263,1.263,0,0,0,.2.415.13.13,0,0,1,.033.115c-.038.147.051.264.1.39.016.044.071.072.117.116a.171.171,0,0,0-.014.177.143.143,0,0,1-.017.141.331.331,0,0,0-.035.172,1.656,1.656,0,0,0-.005.461c-.045.171.036.343,0,.512a.143.143,0,0,0,.028.1.152.152,0,0,1,0,.2.5.5,0,0,0-.1.331,1.478,1.478,0,0,1-.022.174,1.294,1.294,0,0,0,0,.264.028.028,0,0,0,.011.013c.043.075-.006.155.011.228a1.148,1.148,0,0,1,.059.208.565.565,0,0,1-.108.3,2.711,2.711,0,0,0-.179.308.993.993,0,0,1-.085.2c-.014.019-.021.049-.039.058a.424.424,0,0,0-.173.22.144.144,0,0,1-.061.061.291.291,0,0,0-.152.264,4.483,4.483,0,0,1-.109.575.276.276,0,0,1-.065.12,1.687,1.687,0,0,0-.233.335.848.848,0,0,1-.141.181.391.391,0,0,0-.114.179.157.157,0,0,1-.041.076,5.688,5.688,0,0,0-.367.454c-.022.027-.053.049-.077.074s-.064.05-.067.076a.419.419,0,0,1-.194.239.376.376,0,0,0-.083.115.372.372,0,0,1-.148.149c-.118.069-.232.146-.349.215a.3.3,0,0,0-.131.142,1.539,1.539,0,0,1-.341.408.215.215,0,0,1-.075.045c-.11.044-.221.085-.332.127a.39.39,0,0,1-.325.03.128.128,0,0,0-.117.013,1.131,1.131,0,0,0-.253.164.572.572,0,0,1-.381.162,1.2,1.2,0,0,0-.46.107.431.431,0,0,1-.3.034.7.7,0,0,0-.282,0,2.187,2.187,0,0,1-.359.078c-.064,0-.126.059-.21.1a.4.4,0,0,0-.366.132l.007.063a.787.787,0,0,0-.431.064.691.691,0,0,1-.239.061c-.131.01-.256.045-.384.061a.24.24,0,0,1-.07.013c-.065-.009-.126-.028-.19-.036a1.106,1.106,0,0,1-.193-.009.3.3,0,0,0-.214,0l-.117-.113a.374.374,0,0,0-.211-.121.374.374,0,0,1-.248-.187.508.508,0,0,0-.19-.181.612.612,0,0,1-.1-.079.185.185,0,0,0-.074-.049.708.708,0,0,1-.259-.114.144.144,0,0,0-.084-.018.248.248,0,0,1-.21-.073.582.582,0,0,0-.151-.092,1.108,1.108,0,0,1-.286-.176,1.779,1.779,0,0,0-.272-.168c-.036-.022-.075-.037-.111-.057-.162-.086-.324-.175-.483-.256a.344.344,0,0,1-.151-.121.282.282,0,0,0-.073-.069.516.516,0,0,1-.226-.287c-.015-.056-.074-.1-.086-.154a.48.48,0,0,0-.222-.263,2.551,2.551,0,0,0-.254-.195.325.325,0,0,1-.109-.115.421.421,0,0,0-.309-.217.086.086,0,0,1-.087-.086.082.082,0,0,1,.024-.059.291.291,0,0,0,.03-.315,1.369,1.369,0,0,1-.059-.336.454.454,0,0,0-.126-.267.345.345,0,0,1-.1-.168.3.3,0,0,0-.107-.18l-.09-.087a.251.251,0,0,1-.061-.065,1.875,1.875,0,0,0-.1-.226.539.539,0,0,1-.118-.2.472.472,0,0,0-.122-.235.6.6,0,0,1-.141-.353.48.48,0,0,0-.106-.3.591.591,0,0,1-.152-.444.158.158,0,0,0-.057-.143c-.11-.1-.1-.234-.122-.36,0-.024.02-.054.026-.067-.038-.142-.075-.273-.107-.4a.222.222,0,0,1,0-.089.329.329,0,0,0-.02-.259.045.045,0,0,1,0-.034c.048-.116-.016-.2-.079-.292a.675.675,0,0,1,.123-.367.151.151,0,0,0,.032-.081.154.154,0,0,1,.083-.109.313.313,0,0,0,.147-.194.332.332,0,0,1,.09-.129.51.51,0,0,0,0-.682l-.084-.094a.428.428,0,0,1,.128-.252.687.687,0,0,0,.182-.3.907.907,0,0,1,.106-.2c.03-.05.067-.1.1-.145a.215.215,0,0,1,.06-.064,1.126,1.126,0,0,0,.252-.225.332.332,0,0,0,.111-.215Z"/><path class="cls-1" d="M31.729,56.426a2.147,2.147,0,0,0,.411-.277A.822.822,0,0,1,32.376,56a.833.833,0,0,0,.281-.183.357.357,0,0,1,.232-.115,1.619,1.619,0,0,0,.731-.249.437.437,0,0,1,.2-.064,1.661,1.661,0,0,0,.325-.088c.085-.027.166-.063.25-.093a.167.167,0,0,1,.07-.012,1.054,1.054,0,0,0,.4-.053.537.537,0,0,1,.106-.011,1.163,1.163,0,0,1,.213-.017c.2.019.389-.021.584-.011a.417.417,0,0,0,.071,0,1.487,1.487,0,0,1,.776.153,3.678,3.678,0,0,0,.6.276.087.087,0,0,1,.048.023.8.8,0,0,0,.426.234c.108.042.219.058.323.1a1.06,1.06,0,0,0,.293.069c.141.017.281.034.423.063a.563.563,0,0,1,.17.054.764.764,0,0,0,.469.057.47.47,0,0,1,.259.032,1.442,1.442,0,0,0,.287.1.329.329,0,0,1,.26.169.1.1,0,0,0,.038.038c.143.072.262.183.413.243a.351.351,0,0,1,.091.055c.058.042.114.086.17.13a.128.128,0,0,1,.048.05c.036.113.138.175.2.267.035.056.076.108.114.166a.1.1,0,0,1,.021.066.533.533,0,0,0,.209.5c.025.032.059.059.086.09a3.308,3.308,0,0,1,.279.324.891.891,0,0,1,.16.351.56.56,0,0,0,.333.434c.049.023.1.042.148.063a.277.277,0,0,1,.172.192,1.293,1.293,0,0,0,.2.415.13.13,0,0,1,.033.115c-.038.146.051.264.1.389a.449.449,0,0,0,.117.117.176.176,0,0,0-.013.177.145.145,0,0,1-.017.141.33.33,0,0,0-.036.172,1.656,1.656,0,0,0,0,.461c-.044.17.037.342,0,.511a.144.144,0,0,0,.028.1.152.152,0,0,1-.006.2.489.489,0,0,0-.1.33,1.47,1.47,0,0,1-.023.175,1.359,1.359,0,0,0,0,.263l.01.014c.045.074-.006.154.013.228a1.281,1.281,0,0,1,.056.2.557.557,0,0,1-.109.3,2.7,2.7,0,0,0-.178.308,1.06,1.06,0,0,1-.086.195c-.014.02-.021.049-.038.058a.421.421,0,0,0-.173.219.138.138,0,0,1-.062.062.292.292,0,0,0-.151.264,4.483,4.483,0,0,1-.109.575.3.3,0,0,1-.065.121,1.685,1.685,0,0,0-.234.334.825.825,0,0,1-.14.182.359.359,0,0,0-.114.179.175.175,0,0,1-.043.076c-.134.142-.248.3-.367.454-.022.027-.051.048-.072.071s-.064.05-.067.076a.43.43,0,0,1-.194.239.36.36,0,0,0-.083.114.381.381,0,0,1-.148.15c-.118.069-.231.145-.349.214a.3.3,0,0,0-.13.141,1.559,1.559,0,0,1-.341.409.225.225,0,0,1-.076.045c-.11.044-.221.085-.332.127a.394.394,0,0,1-.325.031.125.125,0,0,0-.117.012,1.131,1.131,0,0,0-.253.164.572.572,0,0,1-.381.162,1.179,1.179,0,0,0-.46.108.442.442,0,0,1-.3.033.7.7,0,0,0-.281,0,2.227,2.227,0,0,1-.36.08c-.063,0-.125.057-.209.1a.4.4,0,0,0-.367.132l.007.063a.778.778,0,0,0-.431.065.713.713,0,0,1-.239.06c-.13.01-.256.045-.384.062a.332.332,0,0,1-.07.013c-.064-.01-.126-.029-.19-.037a1.129,1.129,0,0,1-.193-.008.288.288,0,0,0-.212,0l-.119-.114a.368.368,0,0,0-.211-.121.384.384,0,0,1-.248-.186.493.493,0,0,0-.19-.181.667.667,0,0,1-.095-.081.2.2,0,0,0-.074-.048.736.736,0,0,1-.26-.113.142.142,0,0,0-.083-.02.242.242,0,0,1-.21-.073.646.646,0,0,0-.151-.091,1.113,1.113,0,0,1-.287-.176,1.861,1.861,0,0,0-.272-.168c-.035-.021-.074-.037-.111-.057-.162-.086-.323-.176-.483-.256a.369.369,0,0,1-.151-.12.256.256,0,0,0-.073-.07.514.514,0,0,1-.226-.288c-.016-.055-.075-.095-.086-.153a.482.482,0,0,0-.222-.264,2.989,2.989,0,0,0-.254-.194.319.319,0,0,1-.11-.115.411.411,0,0,0-.309-.216.087.087,0,0,1-.086-.088.086.086,0,0,1,.023-.059.289.289,0,0,0,.031-.315,1.363,1.363,0,0,1-.06-.335.455.455,0,0,0-.127-.268.332.332,0,0,1-.094-.168.3.3,0,0,0-.108-.179l-.09-.087a.341.341,0,0,1-.061-.065,1.9,1.9,0,0,0-.1-.228c-.041-.064-.107-.114-.118-.2a.48.48,0,0,0-.122-.235.608.608,0,0,1-.141-.354.486.486,0,0,0-.107-.3.588.588,0,0,1-.151-.444.16.16,0,0,0-.057-.143c-.109-.1-.1-.234-.123-.36,0-.024.02-.054.026-.068-.038-.142-.074-.272-.107-.4a.242.242,0,0,1,0-.089.327.327,0,0,0-.021-.258.043.043,0,0,1,0-.035c.048-.117-.017-.205-.08-.291a.685.685,0,0,1,.124-.368.186.186,0,0,0,.033-.081.148.148,0,0,1,.082-.109.314.314,0,0,0,.147-.193.316.316,0,0,1,.089-.13.509.509,0,0,0,0-.682l-.083-.094a.416.416,0,0,1,.127-.251.663.663,0,0,0,.182-.3.9.9,0,0,1,.107-.2c.032-.051.066-.1.1-.146a.2.2,0,0,1,.059-.064,1.126,1.126,0,0,0,.252-.225.332.332,0,0,0,.111-.215Z"/></svg>