<svg id="Layer_1" data-name="Layer 1" xmlns="http://www.w3.org/2000/svg" viewBox="0 0 296 177.846"><defs><style>.cls-1{fill:#f36;}.cls-2{fill:#1858a8;}</style></defs><title>polygon()</title><path class="cls-1" d="M273.511,39.54a14.763,14.763,0,0,0-4.886-5.079,5.327,5.327,0,0,0-2-.91,12.712,12.712,0,0,0-4.866-.425,5.2,5.2,0,0,1-2.17-.288,6.8,6.8,0,0,0-3.412-.108,12.818,12.818,0,0,1-6.815-.073,1.775,1.775,0,0,0-1.639.142,2.926,2.926,0,0,1-2.148.261c-1.056-.125-2.124-.144-3.187-.225-.733-.056-1.469-.112-2.2-.214-1.292-.182-2.58-.4-3.873-.6-.052-.145-.095-.307-.156-.457-.489-1.222-1.256-1.583-2.214-.95-.682.452-1.27,1.044-1.913,1.557a4.552,4.552,0,0,1-.612.355l-1.921-.144c-.421.388-.754.749-1.139,1.042a28.3,28.3,0,0,1-5.818,3.124,10.583,10.583,0,0,1-2.916,1.047,3.334,3.334,0,0,1-1.524-.123c-.208-.071-.483.052-.726.093a23.529,23.529,0,0,1-5.635.279,12.369,12.369,0,0,0-4.871.486c-1.169.386-2.386.63-3.579.949A7.683,7.683,0,0,1,196.1,37.8c-.37-.3-.787-.539-1.2-.819a10.581,10.581,0,0,1-5.456,1.529,1.076,1.076,0,0,0-.476.117c-1.276.557-2.584,1.048-3.808,1.706a6.2,6.2,0,0,1-2.806.82,2.828,2.828,0,0,0-2.222.828,2.288,2.288,0,0,1-1.305.526c-1.866.25-3.745.414-5.613.654a10.618,10.618,0,0,1-5.5-.416,2.8,2.8,0,0,0-2.38,0,12.49,12.49,0,0,1-3.818.853,3.467,3.467,0,0,0-1.374.419,5.166,5.166,0,0,1-3.438,1.075,3.762,3.762,0,0,0-1.193.281,54.623,54.623,0,0,0-6.534,2.186,13.01,13.01,0,0,0-4.345,2.235,3.084,3.084,0,0,1-2.944.833,3.5,3.5,0,0,0-3.035.643,2.1,2.1,0,0,1-.233.138,1.207,1.207,0,0,0-.549.439c-.429.976-1.4,1.018-2.177,1.37-.085.036-.241-.088-.492-.19.213-.61.425-1.226.674-1.941a4.621,4.621,0,0,0-4.772,2.476c-.431-.054-.9-.261-1.218-.126-2.045.863-4.187,1.43-6.268,2.164-1.09.385-2.335.336-3.247.909-1.233.772-2.227-.2-3.326-.041-.711.1-1.432.134-2.044.187-.238.511-.4.856-.6,1.287-2.84-1.166-5.359.86-8.047.378-.13-.023-.285.155-.442.207-1.079.343-2.16.677-3.563,1.115a2.472,2.472,0,0,1-2.531,1.369c-.207-.026-.458.159-.665.285-1.254.753-2.167,1.994-3.6,2.513-.183.067-.308.377-.4.6a1.433,1.433,0,0,1-.39.516,48.474,48.474,0,0,1,2.954,4.152,36.3,36.3,0,0,0,4.028,4.965c.6.678,1.271,1.29,1.875,1.965a4.386,4.386,0,0,1,1.009,1.378,8.484,8.484,0,0,0,2.007,3c2,2.241,3.489,4.936,5.968,6.771a1.993,1.993,0,0,1,.607.769,10.433,10.433,0,0,0,2.405,3.1,8.111,8.111,0,0,1,2.173,3.537,6.34,6.34,0,0,0,2.317,3.418,14.428,14.428,0,0,1,1.527,1.429,29.733,29.733,0,0,1,2.932,3.408c1.024,1.384,2.093,2.734,3.132,4.108a1.528,1.528,0,0,1,.34.648c.225,1.588,1.352,2.586,2.34,3.683.44.485.872.987,1.27,1.509,1.736,2.281,3.438,4.587,5.2,6.848.516.662,1.083,1.241.907,2.176a1.756,1.756,0,0,0,.792,1.7c.56.47,1.242.794,1.212,1.715a1.1,1.1,0,0,0,.5.8,6.47,6.47,0,0,1,1.811,1.97,3.561,3.561,0,0,0,1.468,1.27c2.14.788,3.255,2.71,4.693,4.214a38.939,38.939,0,0,1,3.519,4.922c.013.02.027.043.042.063.655.943,1.264,1.922,1.958,2.832a51.474,51.474,0,0,0,3.826,4.773c1.427,1.467,2.2,3.5,4.045,4.59a1.376,1.376,0,0,1,.389.617,35.046,35.046,0,0,0,4.056,6.142,4.581,4.581,0,0,1,.676,1.3,5.048,5.048,0,0,0,.694,1.271c.064.064.145.1.207.169,2.191.583,3.53,2.309,5.083,3.762a12.113,12.113,0,0,0,4.794,2.886c.77-.732,1.438-1.456,2.194-2.074a9.117,9.117,0,0,0,2.724-3.747,4.264,4.264,0,0,1,.532-1.094c1.472-1.853,2.866-3.785,4.5-5.485a36.269,36.269,0,0,0,3.778-5.158c.5-.749.926-1.556,1.424-2.313a4.4,4.4,0,0,1,1.076-1.324,8.509,8.509,0,0,0,2.392-2.7c1.659-2.506,3.889-4.628,5.034-7.492a2.007,2.007,0,0,1,.589-.784,8.7,8.7,0,0,0,1.97-2.442c.131-.228.286-.44.418-.667a8.123,8.123,0,0,1,2.868-3,6.33,6.33,0,0,0,2.715-3.11,22.29,22.29,0,0,1,3.548-5.54c1.079-1.34,2.113-2.718,3.178-4.072a1.565,1.565,0,0,1,.54-.5c1.479-.62,2.159-1.964,2.969-3.2.361-.55.732-1.095,1.137-1.613,1.766-2.257,3.563-4.491,5.3-6.77.509-.667.927-1.362,1.875-1.429a1.761,1.761,0,0,0,1.446-1.2c.312-.662.452-1.4,1.349-1.608a1.1,1.1,0,0,0,.65-.684,6.441,6.441,0,0,1,1.446-2.252,3.56,3.56,0,0,0,.857-1.743c.217-2.27,1.793-3.838,2.884-5.61a40,40,0,0,1,3.917-4.71c.745-.873,1.536-1.71,2.241-2.614.977-1.254,1.97-2.5,2.873-3.806.257-.37.542-.726.774-1.109,1.055-1.754,2.827-3.017,3.411-5.081a1.394,1.394,0,0,1,.5-.533,34.942,34.942,0,0,0,4.909-5.479,4.524,4.524,0,0,1,1.086-.984,6.139,6.139,0,0,0,2.348-3.062,13.133,13.133,0,0,1,2.119-3.573A32.047,32.047,0,0,0,263.6,54.9c.313-.479.708-.9,1.055-1.353a33.549,33.549,0,0,0,2.079-2.758,20.709,20.709,0,0,1,4.146-5.174,4.376,4.376,0,0,0,.841-.894,28.431,28.431,0,0,1,2.985-3.672A6.662,6.662,0,0,1,273.511,39.54Z"/><path class="cls-2" d="M271.218,37.13a1.834,1.834,0,0,0,.193-.383.71.71,0,0,1,.114-.218.74.74,0,0,0,.134-.258.3.3,0,0,1,.126-.184,1.422,1.422,0,0,0,.447-.5.4.4,0,0,1,.125-.132,1.507,1.507,0,0,0,.21-.2c.052-.056.1-.118.148-.177a.147.147,0,0,1,.048-.038.914.914,0,0,0,.281-.212.493.493,0,0,1,.076-.053,1.057,1.057,0,0,1,.153-.1c.155-.069.286-.18.437-.256a.32.32,0,0,0,.056-.027,1.283,1.283,0,0,1,.648-.215,3.385,3.385,0,0,0,.569-.045.072.072,0,0,1,.046,0,.7.7,0,0,0,.422,0c.1-.014.19-.049.288-.064a.958.958,0,0,0,.25-.074c.114-.047.229-.091.347-.132a.546.546,0,0,1,.15-.029.67.67,0,0,0,.379-.156.412.412,0,0,1,.209-.086,1.219,1.219,0,0,0,.26-.05.293.293,0,0,1,.268.021.069.069,0,0,0,.044.013c.139-.006.277.027.415.009a.315.315,0,0,1,.092,0c.061.007.122.016.183.026a.117.117,0,0,1,.058.018c.075.07.18.07.265.116.05.029.1.049.152.076a.09.09,0,0,1,.044.04.464.464,0,0,0,.37.288c.034.012.07.02.1.031a2.9,2.9,0,0,1,.348.127.767.767,0,0,1,.271.2.484.484,0,0,0,.436.187l.138-.016a.244.244,0,0,1,.213.072,1.089,1.089,0,0,0,.327.232.112.112,0,0,1,.074.073c.034.127.15.178.238.253.031.027.086.025.138.039a.147.147,0,0,0,.065.139.126.126,0,0,1,.051.113.284.284,0,0,0,.048.143,1.42,1.42,0,0,0,.192.35c.039.149.174.244.219.39a.116.116,0,0,0,.062.063.132.132,0,0,1,.081.153.42.42,0,0,0,.071.292c.023.047.039.094.058.142a1.044,1.044,0,0,0,.116.2l.014.008c.064.037.061.118.105.167a.932.932,0,0,1,.129.13.506.506,0,0,1,.045.271,2.277,2.277,0,0,0,0,.309.926.926,0,0,1,.016.182c0,.021.006.046,0,.061a.371.371,0,0,0-.038.238.124.124,0,0,1-.02.073.253.253,0,0,0,0,.264,4.077,4.077,0,0,1,.163.482.271.271,0,0,1,0,.117,1.428,1.428,0,0,0-.035.351.691.691,0,0,1-.029.2.326.326,0,0,0-.01.183.131.131,0,0,1,0,.076,5,5,0,0,0-.084.5.687.687,0,0,1-.027.088c-.008.03-.028.065-.019.089a.367.367,0,0,1-.046.265.33.33,0,0,0-.014.121.325.325,0,0,1-.048.177c-.059.1-.113.208-.172.31a.268.268,0,0,0-.039.163,1.322,1.322,0,0,1-.084.453.181.181,0,0,1-.038.066c-.064.079-.131.156-.195.234a.347.347,0,0,1-.232.162.111.111,0,0,0-.086.06.981.981,0,0,0-.12.232.5.5,0,0,1-.22.286,1.018,1.018,0,0,0-.305.276.377.377,0,0,1-.2.153.622.622,0,0,0-.212.121,1.816,1.816,0,0,1-.237.21c-.048.027-.07.1-.115.164a.35.35,0,0,0-.221.256l.032.045a.668.668,0,0,0-.3.232.6.6,0,0,1-.155.147c-.094.061-.175.143-.264.21a.232.232,0,0,1-.048.04c-.051.02-.108.031-.159.053a1.1,1.1,0,0,1-.149.076.252.252,0,0,0-.161.09l-.138-.035a.319.319,0,0,0-.209-.005.326.326,0,0,1-.268-.04.434.434,0,0,0-.22-.056.525.525,0,0,1-.1-.019.163.163,0,0,0-.076,0,.614.614,0,0,1-.245.023.134.134,0,0,0-.072.021.207.207,0,0,1-.189.035.531.531,0,0,0-.154-.005.98.98,0,0,1-.291-.011,1.594,1.594,0,0,0-.276-.012c-.036,0-.072,0-.108,0-.16,0-.32.005-.478.01a.314.314,0,0,1-.166-.027.224.224,0,0,0-.088-.022.444.444,0,0,1-.293-.121c-.035-.034-.1-.044-.131-.076a.417.417,0,0,0-.281-.1,2.28,2.28,0,0,0-.273-.043.279.279,0,0,1-.132-.04.361.361,0,0,0-.327-.033.075.075,0,0,1-.1-.03.07.07,0,0,1-.007-.053.256.256,0,0,0-.112-.252,1.177,1.177,0,0,1-.187-.224.4.4,0,0,0-.209-.148.288.288,0,0,1-.146-.084.261.261,0,0,0-.156-.091l-.106-.027a.214.214,0,0,1-.073-.023,1.777,1.777,0,0,0-.17-.13.47.47,0,0,1-.173-.1.414.414,0,0,0-.192-.126.515.515,0,0,1-.257-.208.431.431,0,0,0-.2-.179.51.51,0,0,1-.305-.272.139.139,0,0,0-.1-.083c-.125-.026-.177-.135-.247-.219-.014-.018-.008-.05-.009-.064-.089-.09-.171-.173-.251-.26a.172.172,0,0,1-.038-.067.29.29,0,0,0-.123-.187.041.041,0,0,1-.019-.024c-.013-.108-.1-.148-.184-.187a.6.6,0,0,1-.063-.33.138.138,0,0,0-.009-.075.131.131,0,0,1,.016-.118.274.274,0,0,0,.031-.213.275.275,0,0,1,.013-.136.442.442,0,0,0-.292-.515l-.1-.036a.359.359,0,0,1-.011-.244.584.584,0,0,0,.009-.3.787.787,0,0,1,0-.2c0-.051.007-.1.014-.153a.159.159,0,0,1,.018-.074,1,1,0,0,0,.1-.277.29.29,0,0,0-.011-.211Z"/><path class="cls-2" d="M164.8,166.276a1.83,1.83,0,0,0,.192-.383.691.691,0,0,1,.115-.218.757.757,0,0,0,.134-.258.3.3,0,0,1,.126-.184,1.409,1.409,0,0,0,.446-.5.379.379,0,0,1,.126-.132,1.44,1.44,0,0,0,.208-.205c.053-.056.1-.118.15-.177a.137.137,0,0,1,.048-.038.939.939,0,0,0,.281-.212.475.475,0,0,1,.075-.059.976.976,0,0,1,.153-.1c.156-.07.286-.182.437-.257a.289.289,0,0,0,.056-.027,1.286,1.286,0,0,1,.649-.215,3.382,3.382,0,0,0,.568-.045.074.074,0,0,1,.046,0,.7.7,0,0,0,.421,0c.1-.014.191-.049.288-.064a.924.924,0,0,0,.252-.074c.114-.049.229-.091.345-.132a.524.524,0,0,1,.151-.029.67.67,0,0,0,.379-.156.421.421,0,0,1,.209-.086,1.16,1.16,0,0,0,.26-.05.292.292,0,0,1,.268.021.069.069,0,0,0,.044.013c.139-.006.276.027.415.009a.353.353,0,0,1,.092,0c.062.007.122.017.184.027a.112.112,0,0,1,.058.017c.075.07.18.071.265.116.049.028.1.049.152.076a.09.09,0,0,1,.043.041.466.466,0,0,0,.37.287c.035.012.069.02.1.032a2.675,2.675,0,0,1,.348.126.746.746,0,0,1,.271.2.485.485,0,0,0,.436.187c.047,0,.093-.01.139-.016a.24.24,0,0,1,.211.072,1.093,1.093,0,0,0,.328.232.115.115,0,0,1,.074.073c.034.127.15.178.238.253.031.027.085.025.138.039a.147.147,0,0,0,.065.139.131.131,0,0,1,.051.113.275.275,0,0,0,.046.142,1.415,1.415,0,0,0,.194.351c.039.149.173.244.217.389a.118.118,0,0,0,.063.063.131.131,0,0,1,.081.153.423.423,0,0,0,.071.293,1.357,1.357,0,0,1,.057.142,1.1,1.1,0,0,0,.117.2l.013.008c.064.037.061.117.1.167a.894.894,0,0,1,.13.131.491.491,0,0,1,.044.27,2.435,2.435,0,0,0,0,.308.945.945,0,0,1,.017.183c0,.021,0,.046,0,.061a.366.366,0,0,0-.037.239.123.123,0,0,1-.02.072.251.251,0,0,0,0,.265,4.041,4.041,0,0,1,.162.48.257.257,0,0,1,0,.117,1.441,1.441,0,0,0-.035.352.691.691,0,0,1-.029.2.326.326,0,0,0-.009.183.14.14,0,0,1,0,.076,5,5,0,0,0-.085.5.687.687,0,0,1-.027.088c-.008.03-.028.064-.019.089a.368.368,0,0,1-.046.265.309.309,0,0,0-.013.121.324.324,0,0,1-.049.177c-.059.1-.113.208-.172.31a.273.273,0,0,0-.039.162,1.3,1.3,0,0,1-.084.454.181.181,0,0,1-.038.066c-.064.079-.13.156-.195.234a.342.342,0,0,1-.232.161.113.113,0,0,0-.085.061.929.929,0,0,0-.12.232.5.5,0,0,1-.221.286,1.015,1.015,0,0,0-.3.276.378.378,0,0,1-.209.15.641.641,0,0,0-.212.122,1.745,1.745,0,0,1-.236.21c-.048.026-.071.1-.115.164a.346.346,0,0,0-.221.256l.032.045a.677.677,0,0,0-.3.232.591.591,0,0,1-.152.143c-.094.061-.174.143-.264.21-.017.012-.029.033-.048.039-.051.02-.107.032-.159.054a.994.994,0,0,1-.149.076.246.246,0,0,0-.161.09l-.137-.035a.319.319,0,0,0-.209,0,.329.329,0,0,1-.268-.04.44.44,0,0,0-.221-.056.607.607,0,0,1-.1-.019.155.155,0,0,0-.077,0,.61.61,0,0,1-.244.023.13.13,0,0,0-.072.022.212.212,0,0,1-.19.034.524.524,0,0,0-.153,0,1.021,1.021,0,0,1-.292-.012,1.49,1.49,0,0,0-.275-.011c-.037,0-.073,0-.108,0-.16,0-.32,0-.479.01a.32.32,0,0,1-.165-.026.225.225,0,0,0-.088-.023.444.444,0,0,1-.294-.121c-.034-.034-.091-.041-.131-.076a.417.417,0,0,0-.28-.1,2.28,2.28,0,0,0-.273-.043.262.262,0,0,1-.133-.04.361.361,0,0,0-.327-.033.075.075,0,0,1-.109-.083.254.254,0,0,0-.111-.252,1.107,1.107,0,0,1-.187-.223.4.4,0,0,0-.21-.149.285.285,0,0,1-.145-.084.266.266,0,0,0-.157-.091l-.1-.025a.194.194,0,0,1-.074-.023,1.777,1.777,0,0,0-.17-.13.454.454,0,0,1-.173-.1.42.42,0,0,0-.192-.126.521.521,0,0,1-.257-.208.424.424,0,0,0-.2-.178.51.51,0,0,1-.305-.272.138.138,0,0,0-.1-.084c-.124-.026-.176-.134-.247-.219-.013-.017-.007-.049-.009-.063-.089-.091-.172-.174-.251-.261a.174.174,0,0,1-.039-.067.286.286,0,0,0-.123-.187.035.035,0,0,1-.017-.024c-.014-.108-.1-.148-.184-.187a.589.589,0,0,1-.064-.33.138.138,0,0,0-.009-.075.131.131,0,0,1,.016-.118.27.27,0,0,0,.029-.208.262.262,0,0,1,.012-.136.442.442,0,0,0-.291-.515l-.1-.036a.359.359,0,0,1-.011-.244.6.6,0,0,0,.008-.306.811.811,0,0,1,0-.2c0-.051.009-.1.015-.153a.186.186,0,0,1,.017-.074.938.938,0,0,0,.095-.277.3.3,0,0,0-.009-.211Z"/><path class="cls-2" d="M89.122,58.985a1.937,1.937,0,0,0,.193-.383.689.689,0,0,1,.114-.218.74.74,0,0,0,.134-.258.31.31,0,0,1,.125-.185,1.4,1.4,0,0,0,.447-.5.388.388,0,0,1,.126-.132,1.5,1.5,0,0,0,.209-.205c.052-.056.1-.118.149-.177a.137.137,0,0,1,.048-.038.926.926,0,0,0,.281-.212.538.538,0,0,1,.075-.053.88.88,0,0,1,.154-.1c.155-.07.286-.182.437-.257a.32.32,0,0,0,.056-.027,1.274,1.274,0,0,1,.648-.215,3.382,3.382,0,0,0,.568-.045.083.083,0,0,1,.046,0,.7.7,0,0,0,.422,0c.1-.015.19-.049.288-.065a.916.916,0,0,0,.251-.073c.114-.049.23-.091.346-.132a.511.511,0,0,1,.15-.029.667.667,0,0,0,.379-.156.415.415,0,0,1,.209-.086,1.2,1.2,0,0,0,.26-.05.29.29,0,0,1,.268.021.076.076,0,0,0,.044.013c.139-.007.277.027.415.009a.362.362,0,0,1,.093,0c.061.007.122.017.182.026a.127.127,0,0,1,.058.017c.075.07.181.071.266.117.049.028.1.049.152.075a.09.09,0,0,1,.043.041.467.467,0,0,0,.37.288c.035.012.07.02.105.032a2.872,2.872,0,0,1,.347.125.773.773,0,0,1,.272.2.482.482,0,0,0,.435.187c.047,0,.093-.01.139-.016a.243.243,0,0,1,.212.072,1.1,1.1,0,0,0,.328.232.114.114,0,0,1,.073.072c.033.127.15.178.238.253.03.027.085.026.138.04a.149.149,0,0,0,.065.139.125.125,0,0,1,.05.112.293.293,0,0,0,.047.143,1.4,1.4,0,0,0,.193.351c.038.147.173.242.218.389a.118.118,0,0,0,.063.063.13.13,0,0,1,.08.152.422.422,0,0,0,.071.293,1.457,1.457,0,0,1,.058.142,1.162,1.162,0,0,0,.116.2l.013.007c.064.037.061.118.106.167a.94.94,0,0,1,.129.131.493.493,0,0,1,.044.27,2.655,2.655,0,0,0,0,.309.86.86,0,0,1,.017.183c0,.02.005.045,0,.06a.361.361,0,0,0-.036.239.143.143,0,0,1-.02.073.251.251,0,0,0,0,.264,4.057,4.057,0,0,1,.162.481.257.257,0,0,1,0,.117,1.535,1.535,0,0,0-.035.352.7.7,0,0,1-.028.2.314.314,0,0,0-.01.182.151.151,0,0,1,0,.076c-.04.165-.06.333-.085.5-.007.029-.016.058-.026.087s-.028.065-.02.09a.365.365,0,0,1-.045.264.335.335,0,0,0-.014.122.331.331,0,0,1-.048.176c-.059.1-.113.209-.173.31a.274.274,0,0,0-.038.163,1.305,1.305,0,0,1-.085.454.171.171,0,0,1-.038.065c-.064.079-.129.157-.194.235a.347.347,0,0,1-.233.161.111.111,0,0,0-.085.06,1.025,1.025,0,0,0-.121.232.5.5,0,0,1-.22.286,1.054,1.054,0,0,0-.3.276.384.384,0,0,1-.209.151.618.618,0,0,0-.211.121,1.816,1.816,0,0,1-.237.21c-.048.027-.07.1-.115.165a.343.343,0,0,0-.22.256l.032.045a.669.669,0,0,0-.3.231.606.606,0,0,1-.155.148c-.094.061-.174.143-.264.209a.232.232,0,0,1-.048.04c-.051.02-.107.032-.159.054a.989.989,0,0,1-.149.075.254.254,0,0,0-.161.09l-.138-.035a.316.316,0,0,0-.208,0,.329.329,0,0,1-.268-.039.441.441,0,0,0-.221-.057.525.525,0,0,1-.1-.019.163.163,0,0,0-.076,0,.633.633,0,0,1-.245.024.121.121,0,0,0-.071.021.212.212,0,0,1-.19.034.524.524,0,0,0-.153,0,1.021,1.021,0,0,1-.292-.012,1.5,1.5,0,0,0-.276-.011c-.036,0-.072,0-.108,0-.16,0-.32,0-.478.01a.306.306,0,0,1-.166-.026.239.239,0,0,0-.087-.023.439.439,0,0,1-.294-.121c-.035-.034-.1-.044-.131-.076a.421.421,0,0,0-.285-.107,2.5,2.5,0,0,0-.273-.042.279.279,0,0,1-.132-.04.363.363,0,0,0-.328-.033.075.075,0,0,1-.1-.03.083.083,0,0,1-.007-.054.249.249,0,0,0-.111-.251,1.153,1.153,0,0,1-.187-.224.4.4,0,0,0-.209-.148A.281.281,0,0,1,91.5,66.2a.266.266,0,0,0-.158-.091l-.105-.028a.192.192,0,0,1-.074-.022,1.657,1.657,0,0,0-.169-.131.449.449,0,0,1-.173-.1.428.428,0,0,0-.192-.126.519.519,0,0,1-.257-.207.424.424,0,0,0-.2-.178.515.515,0,0,1-.305-.272.141.141,0,0,0-.1-.085c-.125-.026-.176-.134-.247-.218-.013-.017-.008-.05-.009-.063-.089-.091-.172-.175-.251-.261a.174.174,0,0,1-.039-.067.284.284,0,0,0-.123-.187.043.043,0,0,1-.018-.024c-.013-.109-.1-.148-.183-.187a.582.582,0,0,1-.063-.33.139.139,0,0,0-.01-.075.131.131,0,0,1,.016-.118.271.271,0,0,0,.029-.208.266.266,0,0,1,.012-.137.441.441,0,0,0-.291-.514l-.1-.036a.368.368,0,0,1-.012-.245.6.6,0,0,0,.01-.3.744.744,0,0,1-.006-.2c0-.051.009-.1.015-.153a.174.174,0,0,1,.017-.074,1,1,0,0,0,.095-.277.3.3,0,0,0-.01-.211Z"/><path class="cls-2" d="M58.265,160.821c0-7.029,2.228-8.45,5.7-8.45v1.575c-2.632,0-3.88.9-3.88,6.684,0,6.165,1.248,7.067,3.88,7.067v1.575C60.49,169.27,58.265,168.041,58.265,160.821Z"/><path class="cls-2" d="M73.39,162.779h-.211l-2.823,4.571h-1.9l3.61-5.532-3.553-5.032h1.9l2.823,4.129h.254l2.823-4.129h1.8l-3.552,4.994,3.61,5.57h-1.9Z"/><path class="cls-2" d="M90.771,165.775v1.575h-9.45v-1.767c3.362-2.056,7.279-4.149,7.279-7.491,0-1.479-.653-2.42-2.842-2.42-2.382,0-3.016,1.057-3.016,2.862a3.278,3.278,0,0,0,.154,1.172l-1.825-.135A9.013,9.013,0,0,1,81,158.342c0-2.555,1.67-4.245,4.859-4.245,3.745,0,4.551,2.075,4.551,3.8,0,3.688-3.456,5.762-5.569,7.183l-1.037.461v.231Z"/><path class="cls-2" d="M100.33,166.754a3.564,3.564,0,0,1-3.439,3.685,3.646,3.646,0,0,1-.479-.016v-1.441a2.042,2.042,0,0,0,2.324-1.71,1.158,1.158,0,0,1-.692.25,1.729,1.729,0,0,1,.077-3.457,2.389,2.389,0,0,1,2.223,2.544C100.341,166.658,100.336,166.706,100.33,166.754Z"/><path class="cls-2" d="M124.1,169.27h3.035v1.537h-7.8V169.27h3.033v-2.132l-4.09-10.352h1.863l2.209,5.743.749,2.381h.384l.768-2.381,2.171-5.743h1.772L124.1,167.138Z"/><path class="cls-2" d="M140.69,165.775v1.575h-9.45v-1.767c3.362-2.056,7.279-4.149,7.279-7.491,0-1.479-.653-2.42-2.842-2.42-2.382,0-3.016,1.057-3.016,2.862a3.278,3.278,0,0,0,.154,1.172l-1.825-.135a8.856,8.856,0,0,1-.076-1.229c0-2.555,1.67-4.245,4.859-4.245,3.745,0,4.551,2.075,4.551,3.8,0,3.688-3.456,5.762-5.569,7.183l-1.037.461v.231Z"/><path class="cls-2" d="M150.764,160.821c0,7.03-2.228,8.451-5.705,8.451V167.7c2.632,0,3.88-.9,3.88-6.684,0-6.165-1.248-7.067-3.88-7.067v-1.575C148.536,152.369,150.764,153.6,150.764,160.821Z"/><path class="cls-2" d="M200.455,10.693c0-7.029,2.229-8.45,5.706-8.45V3.818c-2.633,0-3.88.9-3.88,6.684,0,6.165,1.246,7.068,3.88,7.068v1.575C202.684,19.144,200.455,17.915,200.455,10.693Z"/><path class="cls-2" d="M215.585,12.652h-.211l-2.823,4.571h-1.9l3.613-5.53-3.553-5.031h1.9l2.824,4.129h.249l2.824-4.129h1.8l-3.553,4.993,3.611,5.57h-1.9Z"/><path class="cls-2" d="M232.653,13.458c0,2.19-1.554,3.957-5.454,3.957a10.331,10.331,0,0,1-4.417-.864l.5-1.5a9.564,9.564,0,0,0,4.072.806c2.612,0,3.534-.826,3.534-2.3,0-1.248-.845-2.131-3.341-2.131h-3.554V9.867H228.6c1.382-.557,1.863-1.287,1.863-2.3,0-1.479-1-2.036-3.015-2.036a8.857,8.857,0,0,0-3.975.9l-.463-1.441a10.139,10.139,0,0,1,4.573-1.018c2.842,0,4.647,1.1,4.647,3.5a3.271,3.271,0,0,1-1.9,2.939A2.963,2.963,0,0,1,232.653,13.458Z"/><path class="cls-2" d="M242.521,16.627a3.565,3.565,0,0,1-3.44,3.685,3.637,3.637,0,0,1-.478-.016V18.855a2.043,2.043,0,0,0,2.324-1.709,1.17,1.17,0,0,1-.692.249,1.729,1.729,0,0,1,.077-3.456,2.388,2.388,0,0,1,2.223,2.542C242.532,16.53,242.527,16.578,242.521,16.627Z"/><path class="cls-2" d="M266.287,19.144h3.035V20.68h-7.8V19.144h3.034V17.012L260.464,6.66h1.863l2.209,5.742.749,2.381h.383l.769-2.381,2.171-5.742h1.767l-4.092,10.352Z"/><path class="cls-2" d="M282.564,13.458c0,2.19-1.554,3.957-5.454,3.957a10.331,10.331,0,0,1-4.417-.864l.5-1.5a9.564,9.564,0,0,0,4.072.806c2.612,0,3.534-.826,3.534-2.3,0-1.248-.845-2.131-3.341-2.131H273.9V9.867h4.609c1.383-.557,1.863-1.287,1.863-2.3,0-1.479-1-2.036-3.015-2.036a8.857,8.857,0,0,0-3.975.9l-.462-1.441A10.132,10.132,0,0,1,277.5,3.972c2.842,0,4.647,1.1,4.647,3.5a3.271,3.271,0,0,1-1.9,2.939A2.963,2.963,0,0,1,282.564,13.458Z"/><path class="cls-2" d="M292.955,10.693c0,7.03-2.228,8.452-5.7,8.452V17.569c2.631,0,3.879-.9,3.879-6.684,0-6.165-1.248-7.068-3.879-7.068V2.242C290.727,2.242,292.955,3.471,292.955,10.693Z"/><path class="cls-2" d="M3.789,39.046c0-7.029,2.228-8.451,5.7-8.451V32.17c-2.631,0-3.879.9-3.879,6.684,0,6.165,1.248,7.068,3.879,7.068V47.5C6.019,47.5,3.789,46.267,3.789,39.046Z"/><path class="cls-2" d="M18.919,41.005h-.21l-2.824,4.571h-1.9L17.6,40.045l-3.553-5.032h1.9l2.823,4.129h.25l2.823-4.129h1.8l-3.553,4.993,3.61,5.57H21.8Z"/><path class="cls-2" d="M36.371,44v1.575H27.23V44H31.3V35.742L27.23,37.3V35.591L31.3,34.036V32.518h1.766V44Z"/><path class="cls-2" d="M45.854,44.981a3.564,3.564,0,0,1-3.44,3.683,3.466,3.466,0,0,1-.478-.015v-1.44A2.044,2.044,0,0,0,44.26,45.5a1.173,1.173,0,0,1-.691.249,1.729,1.729,0,0,1,.077-3.457,2.389,2.389,0,0,1,2.222,2.545C45.865,44.885,45.86,44.933,45.854,44.981Z"/><path class="cls-2" d="M69.619,47.5h3.035v1.536h-7.8V47.5h3.035V45.368L63.8,35.016h1.864l2.208,5.743.75,2.381H69l.769-2.381,2.17-5.743h1.767L69.619,45.365Z"/><path class="cls-2" d="M86.286,44v1.575H77.145V44h4.074V35.742L77.145,37.3V35.591l4.072-1.555V32.518h1.766V44Z"/><path class="cls-2" d="M96.288,39.046c0,7.03-2.228,8.451-5.7,8.451V45.922c2.632,0,3.88-.9,3.88-6.684,0-6.165-1.248-7.068-3.88-7.068V30.6C94.06,30.6,96.288,31.824,96.288,39.046Z"/></svg>