<svg id="base" xmlns="http://www.w3.org/2000/svg" viewBox="0 0 100 100"><defs><style>.cls-1{fill:#1858a8;}.cls-2{fill:#f36;}.cls-3{fill:#ffeded;}</style></defs><title>c 2</title><path class="cls-1" d="M41.237,16.713a.582.582,0,0,1-.272.172c-.073.03-.144.066-.216.1a.42.42,0,0,0-.312.06.473.473,0,0,1-.307.081h-.213a.394.394,0,0,1-.2.2c-.072.038-.122.12-.189.173s-.143.093-.211.144c-.024.017-.034.053-.053.078s-.034.047-.051.07c-.329.249-.664.492-.991.741a1.353,1.353,0,0,1-.544.345c-.08.016-.145.1-.219.144-.1.065-.2.128-.308.19s-.191.105-.28.167a2.175,2.175,0,0,1-.475.294.32.32,0,0,0-.161.11.857.857,0,0,1-.422.3,3.846,3.846,0,0,1-.848.353.347.347,0,0,0-.187.124.521.521,0,0,1-.269.177.317.317,0,0,0-.147.067.646.646,0,0,1-.341.185.812.812,0,0,0-.348.24c-.044.049-.08.126-.133.141a1.63,1.63,0,0,0-.428.292c-.106.071-.192.18-.342.168-.037,0-.077.036-.117.055l-.445.209c-.219.1-.441.193-.656.3a.463.463,0,0,0-.075.057,6.48,6.48,0,0,0,.7-.163c.105-.026.206-.068.31-.1.462-.135.926-.264,1.385-.407a.916.916,0,0,1,.5-.049.651.651,0,0,0,.271,0,1.281,1.281,0,0,1,.944.135c.129.078.311.059.439.138a1.062,1.062,0,0,0,.747.109c.049-.006.1,0,.145-.012a6.92,6.92,0,0,0,.83-.1.8.8,0,0,1,.414.019,1.052,1.052,0,0,0,.972-.159.223.223,0,0,1,.38.168.787.787,0,0,0,.515.676,3.5,3.5,0,0,1,.708.545,1.15,1.15,0,0,0,.676.278c.015,0,.029.008.045.009a.831.831,0,0,1,.482.152.766.766,0,0,0,.527.15c.109,0,.217,0,.326,0a.654.654,0,0,1,.231.011,5.091,5.091,0,0,0,.593.264c.193.05.405.022.574.161a1.224,1.224,0,0,0,.654.23,1.549,1.549,0,0,1,.9.428,1.248,1.248,0,0,0,.732.382,1.517,1.517,0,0,1,1.085.586.415.415,0,0,0,.365.174c.381-.019.612.269.882.473.053.04.06.145.074.183.327.207.63.395.927.59a.573.573,0,0,1,.164.172.873.873,0,0,0,.507.469.115.115,0,0,1,.072.059c.12.319.4.371.675.424a1.884,1.884,0,0,1,.433.952.449.449,0,0,0,.084.222.422.422,0,0,1,.042.369.881.881,0,0,0,.073.656.552.552,0,0,1,.044.151,1.744,1.744,0,0,1,.417.12.464.464,0,0,1,.181.16c.015.02.042.027.054.049s.029.04.042.061c.141.226.321.425.454.66a1.193,1.193,0,0,0,.406.446c.016.009.023.024.037.034a.713.713,0,0,0,.13-.1.338.338,0,0,1,.157-.117.136.136,0,0,0,.072-.049.909.909,0,0,1,.258-.208c.1-.074.2-.147.3-.223a.313.313,0,0,0,.109-.108.369.369,0,0,1,.293-.208,1.078,1.078,0,0,0,.42-.2.713.713,0,0,1,.272-.147.239.239,0,0,0,.1-.051,1.5,1.5,0,0,1,.232-.127c.069-.04.146-.07.218-.107l.068-.1a.1.1,0,0,1,.034-.033.46.46,0,0,0,.177-.217c.022-.036.043-.073.068-.107.1-.152.211-.3.314-.455.03-.045.054-.091.114-.1a.115.115,0,0,0,.089-.083c.017-.044.023-.092.08-.108a.067.067,0,0,0,.039-.047.423.423,0,0,1,.084-.149.239.239,0,0,0,.049-.115.842.842,0,0,1,.164-.371,2.459,2.459,0,0,1,.233-.317c.044-.059.092-.116.134-.177a3.377,3.377,0,0,0,.215-.329c.061-.116.17-.2.2-.338,0-.014.018-.026.029-.037a2.24,2.24,0,0,0,.3-.37.247.247,0,0,1,.066-.067.4.4,0,0,0,.138-.205.893.893,0,0,1,.122-.238,1.814,1.814,0,0,0,.149-.224c.019-.032.042-.06.063-.091a2.155,2.155,0,0,0,.122-.183,1.311,1.311,0,0,1,.247-.348.267.267,0,0,0,.05-.061,2.2,2.2,0,0,1,.288-.376.833.833,0,0,0,.2-.389.442.442,0,0,1,.14-.242c.076-.072.145-.15.223-.232-.008-.008-.008-.017-.014-.025.009-.009.017-.018.027-.027.123-.109.247-.218.369-.329.036-.032.067-.067.121-.061a.1.1,0,0,0,.094-.054c.024-.034.04-.075.093-.077a.067.067,0,0,0,.044-.032.366.366,0,0,1,.1-.113.2.2,0,0,0,.066-.09.776.776,0,0,1,.221-.288,2.35,2.35,0,0,1,.27-.227c.052-.042.105-.081.154-.125a2.95,2.95,0,0,0,.257-.242c.078-.088.191-.141.246-.252,0-.012.021-.019.033-.026a2,2,0,0,0,.334-.26.253.253,0,0,1,.072-.044.363.363,0,0,0,.165-.15.751.751,0,0,1,.156-.181,1.953,1.953,0,0,0,.177-.163c.022-.024.049-.044.073-.066.049-.045.1-.086.146-.134a1.184,1.184,0,0,1,.287-.251.244.244,0,0,0,.057-.043,2.01,2.01,0,0,1,.331-.266.736.736,0,0,0,.257-.3.409.409,0,0,1,.173-.181c.081-.046.159-.1.244-.154a.188.188,0,0,1,0-.207.284.284,0,0,0,.031-.19.288.288,0,0,1,0-.157c.04-.05.106,0,.136-.061-.018-.032-.04-.068-.057-.105a.158.158,0,0,1-.02-.08.142.142,0,0,0-.022-.092,1.407,1.407,0,0,1-.052-.159.943.943,0,0,0,0-.378.12.12,0,0,0-.037-.073,1.568,1.568,0,0,0-.352-.259.954.954,0,0,0-.278-.1.411.411,0,0,1-.119-.042.849.849,0,0,0-.394-.1.29.29,0,0,0-.125.018.71.71,0,0,0-.25.129.292.292,0,0,1-.114.053.387.387,0,0,0-.169.1.74.74,0,0,1-.334.207.1.1,0,0,0-.075.057.168.168,0,0,1-.1.079c-.055.027-.108.059-.162.088-.038.019-.075.04-.114.057-.068.031-.137.06-.206.09l-.022-.017c-.061-.045-.11-.039-.137.022-.019.043-.03.09-.045.135a.2.2,0,0,1-.019.036l-.1.052c-.008.032-.013.06-.022.086a1.645,1.645,0,0,1-.187.332c-.05.074-.089.158-.187.182-.013,0-.022.017-.033.026a1.288,1.288,0,0,1-.265.188.72.72,0,0,0-.222.174c-.044.055-.1.1-.145.157a.44.44,0,0,1-.394.15c-.027,0-.055,0-.084,0a.6.6,0,0,1-.218.243.061.061,0,0,0-.019.02c-.045.067-.094.131-.133.2a.357.357,0,0,1-.111.126.167.167,0,0,0-.083.109.122.122,0,0,1-.047.066c-.082.07-.169.136-.252.205a.608.608,0,0,1-.28.15.161.161,0,0,0-.116.073.714.714,0,0,1-.16.16.185.185,0,0,0-.053.062.3.3,0,0,1-.134.159c-.02.009-.033.033-.05.05a3.074,3.074,0,0,0-.249.308.845.845,0,0,0-.125.212s-.01.007-.014.012a.33.33,0,0,1-.109.088.437.437,0,0,0-.158.153c-.029.051-.083.079-.12.122l0-.011a.257.257,0,0,0-.13.146c-.021.015-.03.041-.053.055a.114.114,0,0,0-.067.082.181.181,0,0,1-.084.11c-.052.044-.1.093-.152.138-.036.031-.071.063-.108.092-.066.052-.134.1-.2.152l-.027-.013c-.079-.032-.13-.013-.143.06-.01.052-.009.105-.014.158a.313.313,0,0,1-.01.044l-.093.083v.053a.422.422,0,0,1-.128.1c-.007,0-.009.017-.015.024l-.139.164a.143.143,0,0,1-.081.145c-.011.005-.017.022-.023.034a1.251,1.251,0,0,1-.1.233c-.007.009,0,.028,0,.042a.07.07,0,0,1-.038.083.128.128,0,0,0-.058.094c-.007.027-.009.056-.017.083s.006.054,0,.081a.737.737,0,0,0-.136.173c-.034.071-.077.138-.116.208a.493.493,0,0,1-.388.267c-.031,0-.061.012-.092.019a.679.679,0,0,1-.172.321.081.081,0,0,0-.016.027c-.031.084-.067.166-.091.252a.405.405,0,0,1-.087.167.178.178,0,0,0-.061.139.147.147,0,0,1-.034.084c-.071.1-.148.192-.22.289a.689.689,0,0,1-.264.236.182.182,0,0,0-.107.11.781.781,0,0,1-.13.214.218.218,0,0,0-.042.083.418.418,0,0,1-.073.165c.015-.049.028-.1.047-.147a1.129,1.129,0,0,0,.084-.374,3.048,3.048,0,0,1,.137-.66V23.741a.473.473,0,0,1-.095-.317,1.639,1.639,0,0,1,.034-.458.272.272,0,0,0,0-.12,2.414,2.414,0,0,0-.035-.239,1.352,1.352,0,0,0-.084-.3.959.959,0,0,1-.1-.468.587.587,0,0,0-.108-.366l-.163-.014a.681.681,0,0,1-.616-.669.452.452,0,0,0-.033-.212.434.434,0,0,1-.037-.328.212.212,0,0,0-.021-.185.211.211,0,0,1-.042-.111.953.953,0,0,0-.217-.476c-.137-.026-.277-.052-.337-.212a.056.056,0,0,0-.036-.029c-.126-.03-.189-.132-.254-.235a.269.269,0,0,0-.082-.086c-.148-.1-.3-.191-.463-.295-.008-.019-.011-.071-.037-.091-.135-.1-.251-.246-.441-.237a.206.206,0,0,1-.183-.087.757.757,0,0,0-.542-.293.621.621,0,0,1-.366-.191.78.78,0,0,0-.452-.214.607.607,0,0,1-.326-.115c-.085-.069-.191-.055-.288-.08a2.676,2.676,0,0,1-.3-.132.337.337,0,0,0-.115-.006c-.055,0-.109,0-.164,0a.383.383,0,0,1-.263-.075.409.409,0,0,0-.241-.076.585.585,0,0,1-.361-.144,1.739,1.739,0,0,0-.354-.272.393.393,0,0,1-.257-.338.112.112,0,0,0-.19-.084.528.528,0,0,1-.486.08.4.4,0,0,0-.207-.01,3.448,3.448,0,0,1-.415.048.6.6,0,0,1-.446-.049c-.064-.04-.155-.03-.22-.068a.634.634,0,0,0-.471-.068.328.328,0,0,1-.136,0,.458.458,0,0,0-.251.025c-.23.071-.462.136-.692.2-.052.015-.1.036-.156.049a2.241,2.241,0,0,1-.406.091,1.449,1.449,0,0,0-.428.1.775.775,0,0,1-.224.052.318.318,0,0,0-.252.118c-.019-.031-.05-.044-.063-.083a.264.264,0,0,0-.18-.2C41.538,16.549,41.35,16.566,41.237,16.713Z"/><path class="cls-2" d="M96.843,32.563a8.444,8.444,0,0,1-.883-2.4,2.5,2.5,0,0,0-.333-.891,6.007,6.007,0,0,1-1.106-2.524.316.316,0,0,0-.084-.2c-.34-.257-.327-.649-.369-1-.036-.3-.322-.462-.35-.707a1.588,1.588,0,0,0-.212-.759,2.639,2.639,0,0,1-.176-.4l.939-.514c.632-.349.648-.428.194-.957a1.127,1.127,0,0,1-.089-.117,1.509,1.509,0,0,0-1.153-.709.916.916,0,0,1-.531-.224,5.111,5.111,0,0,0-1.621-1.229.5.5,0,0,1-.175-.133,4.071,4.071,0,0,0-1.144-.782.622.622,0,0,1-.278-.314,14.223,14.223,0,0,1-.49-1.515,3.37,3.37,0,0,0-.421-1.01c-.2-.326-.614-.382-.807-.708a.293.293,0,0,0-.268-.079c-.453.158-.933.292-1.147.8-.043.1-.082.176-.247.113a1.83,1.83,0,0,1-.046-.251.632.632,0,0,0-.491-.633,1.654,1.654,0,0,1-1-.808,1.959,1.959,0,0,0-.652-.683,17.266,17.266,0,0,0-1.566-.96c-.267-.146-.517-.264-.61-.59a.458.458,0,0,0-.258-.239,5.1,5.1,0,0,1-1.562-1.093,3.284,3.284,0,0,1-1.092-1.492c-.294-.145-.549-.295-.821-.4a1.791,1.791,0,0,1-.746-.575c-.072-.087-.216-.111-.319-.176a3.448,3.448,0,0,1-.358-.253c-.275-.224-.459-.581-.873-.6-.914-.7-1.909-1.3-2.763-2.086a5.882,5.882,0,0,0-.848-.7.867.867,0,0,1-.524-.878.6.6,0,0,0-.5-.649,4.8,4.8,0,0,0-1.594-.217c-.875.126-1.762.173-2.634.315a5.934,5.934,0,0,1-2.185-.168,3.467,3.467,0,0,0-1.235-.09,3.706,3.706,0,0,1-1.3-.042,2.143,2.143,0,0,1-1.287-.764,1.263,1.263,0,0,0-.4-.3.478.478,0,0,1-.307-.589.806.806,0,0,0-.365-.9,2.393,2.393,0,0,0-1.968-.38,7.889,7.889,0,0,1-1.3.223,4.53,4.53,0,0,1-1.013.115,3.122,3.122,0,0,0-.945.1,5.818,5.818,0,0,1-2.761.079A3.126,3.126,0,0,0,50.1.62a12.073,12.073,0,0,1-2.084.387,1.377,1.377,0,0,1-.432-.039,3.009,3.009,0,0,0-.422-.125A10.823,10.823,0,0,0,45.473.732c-.463.048-.928.082-1.393.089a23.193,23.193,0,0,0-2.567.156,1.434,1.434,0,0,1-.293,0,3.139,3.139,0,0,0-1.443.167,1.445,1.445,0,0,1-.43.047c-.17.011-.341,0-.509.025a3.042,3.042,0,0,0-1.481.376c-.167.118-.433.081-.63.169-.49.219-.986.424-1.469.66a8.369,8.369,0,0,0-1.464.847.774.774,0,0,1-.457.2,1.134,1.134,0,0,0-.947.472c-.247.27-.493.543-.759.793a3.837,3.837,0,0,1-1.2.83,6.655,6.655,0,0,1-1.689.45c-.318.04-.633.1-.948.148a1.247,1.247,0,0,0-.856.514,7.648,7.648,0,0,1-.875.994,1.133,1.133,0,0,1-.624.346c-.38.02-.71.191-1.073.244a1.468,1.468,0,0,0-1.065.577.636.636,0,0,1-.638.3,1.631,1.631,0,0,0-.93.134,4.849,4.849,0,0,1-1.065.279c-.7.064-1.137.625-1.742.862-.07.028-.119.152-.145.241a1.454,1.454,0,0,1-1.193,1.064.729.729,0,0,0-.214.051.85.85,0,0,0-.279.221c-.3.446-.584.908-.888,1.353a3.507,3.507,0,0,1-.474.564,2.05,2.05,0,0,0-.806,1.645.4.4,0,0,1-.04.214,5.023,5.023,0,0,1-.541.87,7,7,0,0,0-.626.813,1.308,1.308,0,0,1-.656.573.819.819,0,0,0-.554.718,1.7,1.7,0,0,1-.578,1,.979.979,0,0,0-.364.69,6.635,6.635,0,0,1-.086.659,1.582,1.582,0,0,1-.669,1.1,4.932,4.932,0,0,0-.581.551,1.923,1.923,0,0,1-.328.286.6.6,0,0,0-.347.443.4.4,0,0,1-.172.222.659.659,0,0,0-.283.487,3.65,3.65,0,0,1-.765,1.732,5.514,5.514,0,0,0-.923,1.5,4.323,4.323,0,0,1-.246.452,2.3,2.3,0,0,0-.276.595.906.906,0,0,1-.417.651c-.266.176-.485.418-.745.6A2.593,2.593,0,0,0,4.8,30.828a1.042,1.042,0,0,1-.475.539,2.789,2.789,0,0,0-.9.852c-.256.357-.557.684-.84,1.022a.979.979,0,0,0-.293.579,2.133,2.133,0,0,1-.082.4c.136.467.26.838.349,1.217a1.758,1.758,0,0,1-.144,1.149c-.258.555-.556,1.091-.833,1.637a1.148,1.148,0,0,0-.065.211c-.073.259-.154.517-.214.78a1.5,1.5,0,0,0-.05.5,2.5,2.5,0,0,1-.212,1.366A4.25,4.25,0,0,0,.536,43a2.887,2.887,0,0,1-.105.427,6.165,6.165,0,0,0-.1,1.168c.015.217.275.41.317.634.047.253-.1.551-.035.791.173.595.189,1.211.32,1.8a3.219,3.219,0,0,1-.168,1.943c-.209.527-.436,1.046-.628,1.579a1.234,1.234,0,0,0-.115.71,14.764,14.764,0,0,0,.487,1.921.734.734,0,0,1-.068.837.846.846,0,0,0-.185.692A9.156,9.156,0,0,0,.48,56.94a6.911,6.911,0,0,1,.3,2.027,2.106,2.106,0,0,0,.289,1.341,3.285,3.285,0,0,1,.5,1.2,3.852,3.852,0,0,0,.557,1.346c.142.2.112.512.192.764.088.274.424.387.44.74a.967.967,0,0,0,.686.867c.626.256.749.508.557,1.146a2.4,2.4,0,0,0,.008,1.236c.056.262.091.528.131.793.014.1-.014.214.032.288a1.5,1.5,0,0,1,.138,1.069.741.741,0,0,0,.337.766c.183.12.344.271.494.391.141.553.268,1.075.409,1.592a.905.905,0,0,0,.186.388,2.465,2.465,0,0,1,.676,1.028c.019.067.088.117.129.179a7.178,7.178,0,0,1,.64.985,3.48,3.48,0,0,0,.969,1.052c.206.192.457.36.688.539A.965.965,0,0,1,9.262,77.7a1.907,1.907,0,0,0,.112,1.016,7.531,7.531,0,0,0,.7,1.7.927.927,0,0,1,.151.7,1.242,1.242,0,0,0,.041.5,7.191,7.191,0,0,0,1.523,2.317c.04.056.125.077.183.122.27.21.551.409.8.64a1.187,1.187,0,0,0,.628.35.886.886,0,0,1,.735.637,1.484,1.484,0,0,0,.766.844c.441.242.942.453,1.123,1.016a1.463,1.463,0,0,1,1.171.564,6.513,6.513,0,0,0,.944.906,4.6,4.6,0,0,0,1.913,1.062,1.977,1.977,0,0,1,1.136.75,6.084,6.084,0,0,0,.421.514,3.851,3.851,0,0,0,1.758,1.16,3.614,3.614,0,0,1,.938.382,2.254,2.254,0,0,1,.821.6.6.6,0,0,0,.3.195,7.448,7.448,0,0,0,.779.208c.243.052.523.077.654.3.241.4.7.528.982.873a1.1,1.1,0,0,0,.453.23,2.571,2.571,0,0,0,.629.195.9.9,0,0,1,.626.342,1.036,1.036,0,0,0,.629.355c.094.017.219.032.269.1a1.233,1.233,0,0,0,.927.372.792.792,0,0,1,.683.359.333.333,0,0,0,.179.116c.579.2,1.152.424,1.741.594a1.981,1.981,0,0,0,1.438.08c.319-.155.567-.01.85.013.312.027.638-.1.934.091a2.785,2.785,0,0,1,.292.216c.085.071.161.153.242.231l.621-.686c.3.183.6.342.853.1a2.024,2.024,0,0,1,1.008-.4l.363.3c.18-.009.326-.018.473-.024.4-.016.813.252,1.208-.038a.078.078,0,0,1,.071.011c.174.161.354.107.549.037a.359.359,0,0,1,.285.02c.473.337,1.154.332,1.441.9.332-.007.619-.17.906.026a.386.386,0,0,0,.281-.008c.232-.074.456-.179.689-.251a1.639,1.639,0,0,1,.566-.11c.215.015.425.159.637.16a2.315,2.315,0,0,0,.611-.171.1.1,0,0,1,.072.007c.279.145.507-.06.717-.144a1.787,1.787,0,0,0,.227.146c.37.152.659.524,1.138.4.086-.023.214.1.318.159a7.218,7.218,0,0,0,1.145.651,8.3,8.3,0,0,1,.815.305,1.707,1.707,0,0,0,1.2.214c.393-.115.927.061,1.163-.468.021-.048.126-.066.2-.082a2.5,2.5,0,0,0,1.024-.551,1.2,1.2,0,0,1,.862-.35.876.876,0,0,0,.4-.154c.388-.208.765-.44,1.16-.634a1.863,1.863,0,0,0,.5-.284,1.207,1.207,0,0,1,.955-.321,8.87,8.87,0,0,0,1.459-.048,1.817,1.817,0,0,1,1.479.271c.058.054.184.041.279.048a3.914,3.914,0,0,1,.435.019,3.018,3.018,0,0,0,.5.135,2.246,2.246,0,0,0,.533-.124c.074.09.119.147.167.2a1.461,1.461,0,0,0,2.144.306c.5-.342,1.045-.614,1.567-.916l.365.146c.293-.565.624-1.052,1.313-1.02.171-.217.317-.415.477-.6a1.072,1.072,0,0,1,.319-.284A2.543,2.543,0,0,0,72.1,94.5c.345-.415.638-.879,1.012-1.265a8.575,8.575,0,0,1,1.3-1.272,2.839,2.839,0,0,1,1.278-.521,2.163,2.163,0,0,0,1.225-.609.861.861,0,0,1,.29-.207c.269-.083.517-.159.545-.508,0-.052.147-.1.232-.136a4.278,4.278,0,0,0,1.01-.822c.186-.621.691-1.131.6-1.8a1.473,1.473,0,0,1,.8-.41,1.218,1.218,0,0,0,.378-.2,5.819,5.819,0,0,1,1.57-.9.912.912,0,0,0,.445-.227,2.608,2.608,0,0,1,1.064-.761,1.785,1.785,0,0,0,.612-.5,4.266,4.266,0,0,1,.993-.861,5.9,5.9,0,0,0,.936-.7,6.385,6.385,0,0,1,1-.621.33.33,0,0,0,.061-.042A14.41,14.41,0,0,0,89.5,80.039a.494.494,0,0,1,.277-.223c.413-.049.625-.369.894-.613.345-.312.691-.625,1.02-.954a1.038,1.038,0,0,0,.271-.429,2.025,2.025,0,0,1,1.051-1.264c.17-.094.292-.27.46-.368a1.131,1.131,0,0,0,.714-1.029.2.2,0,0,1,.051-.135,1.477,1.477,0,0,0,.34-1.1,2.593,2.593,0,0,1,.1-.423.9.9,0,0,0,.045-.351c-.12-.56.184-1.118,0-1.676a.236.236,0,0,1,.021-.143,2.9,2.9,0,0,0,.261-.6c.031-.179.249-.326.369-.47-.09-.522-.177-1.022-.264-1.524.113-.078.226-.115.265-.19a1.683,1.683,0,0,0,.33-1.016,1.861,1.861,0,0,1,.3-1.474,1.619,1.619,0,0,0,.114-.272c.154-.306.3-.616.474-.912a1.285,1.285,0,0,0,.212-.767,1.179,1.179,0,0,1,.041-.508,1.617,1.617,0,0,0,.039-.941,1.654,1.654,0,0,1,.313-1.394,1.571,1.571,0,0,0,.314-.812c.022-.163.075-.4.189-.459a.869.869,0,0,0,.414-.726,1.314,1.314,0,0,1,.6-.925.87.87,0,0,0,.014-.122,3.07,3.07,0,0,1,.086-1.666.633.633,0,0,0-.066-.416c-.07-.182-.2-.343-.261-.526a.588.588,0,0,1-.03-.42c.311-.519.1-1.118.282-1.651-.114-.344.075-.6.219-.89a2.84,2.84,0,0,0,.311-1.644C99.2,50.5,99.071,50,98.965,49.5c-.09-.432-.2-.86-.284-1.293a.552.552,0,0,1,.048-.414c.314-.338.194-.807.4-1.173a.261.261,0,0,0-.007-.215c-.243-.42.061-.936-.24-1.35-.042-.058.014-.188.027-.284.023-.169.061-.336.07-.505.019-.341.022-.683.033-1.025a2.29,2.29,0,0,0-.028-1.018.513.513,0,0,1,.123-.547.815.815,0,0,0,.113-.9,1.039,1.039,0,0,1,.324-1.254,1.761,1.761,0,0,0,.362-.544,1.013,1.013,0,0,0-.374-1.294c-.08-.056-.177-.088-.257-.146a.563.563,0,0,1-.292-.62c.061-.258-.083-.4-.288-.536a9.188,9.188,0,0,1-.872-.676.622.622,0,0,1-.241-.355,12.771,12.771,0,0,0-.351-1.555,3.4,3.4,0,0,0-.113-.415c-.051-.159-.112-.315-.165-.474A1.926,1.926,0,0,0,96.843,32.563ZM75.7,42.505a.217.217,0,0,1,0,.11.921.921,0,0,1-.043.172.208.208,0,0,0,.022.21c.016.025.028.053.049.092a.758.758,0,0,0-.038.185.858.858,0,0,1-.024.189c-.037.169-.1.348.035.513a1.318,1.318,0,0,0-.07.572.527.527,0,0,1-.059.32.2.2,0,0,0-.026.106c0,.146,0,.292,0,.438a.164.164,0,0,0,.009.044.819.819,0,0,1,.025.308,1.177,1.177,0,0,0,0,.222.718.718,0,0,1,0,.371.181.181,0,0,0,.017.107.475.475,0,0,1,0,.346.544.544,0,0,0-.026.152,5.175,5.175,0,0,1-.011.528.175.175,0,0,0,0,.088.679.679,0,0,1,.019.329,1.244,1.244,0,0,0,0,.244,2.06,2.06,0,0,1-.022.576.3.3,0,0,0,.029.235.251.251,0,0,1,.007.254.691.691,0,0,0-.064.475.22.22,0,0,1,0,.088,1.364,1.364,0,0,0-.015.464,1.459,1.459,0,0,0,.012.287.086.086,0,0,1-.015.062.633.633,0,0,0-.071.387,1.618,1.618,0,0,1-.075.548.211.211,0,0,0-.01.128.793.793,0,0,1,.019.349c-.006.126-.007.251-.012.377a.156.156,0,0,1-.011.065,1.3,1.3,0,0,0-.1.5.971.971,0,0,1-.028.13c-.011.057-.02.115-.033.172s-.025.115-.042.171a2.318,2.318,0,0,0-.14.647.409.409,0,0,1-.026.152,1.273,1.273,0,0,0-.088.365,1.358,1.358,0,0,1-.048.217,3.108,3.108,0,0,0-.117.427c-.014.107-.085.193-.089.3-.006.15-.061.289-.074.436a.6.6,0,0,1-.1.355.241.241,0,0,0-.026.107,1.566,1.566,0,0,1-.156.462.279.279,0,0,0-.04.1,1.06,1.06,0,0,1-.119.419.994.994,0,0,0-.094.362,2.692,2.692,0,0,1-.13.373c-.043.165-.1.326-.152.487-.043.125-.09.249-.142.37s-.109.227-.16.342-.107.241-.156.364a2.55,2.55,0,0,1-.136.347,1.771,1.771,0,0,0-.187.4,1.632,1.632,0,0,1-.083.181,3.567,3.567,0,0,0-.228.527.613.613,0,0,1-.105.192c-.109.158-.223.312-.334.468a.26.26,0,0,0-.015.042c-.118.247-.233.495-.358.739-.043.084-.12.151-.165.235a4.631,4.631,0,0,1-.414.606.936.936,0,0,0-.159.289,1,1,0,0,1-.126.234c-.1.156-.206.307-.307.461-.033.05-.055.106-.083.158s-.062.118-.1.173c-.124.194-.249.386-.373.58-.056.087-.1.179-.165.262a3.917,3.917,0,0,0-.252.363,1.136,1.136,0,0,1-.178.226,1.462,1.462,0,0,0-.215.281,5.244,5.244,0,0,1-.423.6c-.133.165-.23.358-.377.514-.005,0-.005.014-.009.02-.079.125-.152.253-.239.371-.105.143-.22.28-.335.415a1.272,1.272,0,0,1-.162.149.189.189,0,0,1-.244.029.165.165,0,0,0-.221.033.646.646,0,0,0-.077.08.291.291,0,0,1-.2.121.5.5,0,0,0-.31.161.6.6,0,0,1-.264.148.556.556,0,0,0-.354.211.2.2,0,0,1-.091.062.46.46,0,0,0-.217.212c-.017.032-.037.08-.063.086-.115.026-.157.12-.2.209-.108.006-.2.009-.3.017a.365.365,0,0,0-.15.03c-.136.086-.312.108-.409.256-.011.016-.039.02-.058.032-.088.053-.177.106-.265.162a1.615,1.615,0,0,1-.344.2.571.571,0,0,0-.219.148.6.6,0,0,1-.3.173,1.016,1.016,0,0,0-.376.184.655.655,0,0,1-.3.142c-.039.006-.073.044-.108.069-.122.083-.238.177-.366.249a1.3,1.3,0,0,0-.448.272c-.021.027-.064.036-.1.053L61.553,72a1.018,1.018,0,0,1-.175.093.278.278,0,0,0-.177.155.923.923,0,0,0-.551.252.328.328,0,0,1-.092.058c-.07.041-.143.076-.211.121-.148.1-.3.2-.439.3a.48.48,0,0,1-.318.124l-.087.154c-.032.01-.053.019-.074.024a.4.4,0,0,0-.283.195.2.2,0,0,1-.122.089.287.287,0,0,0-.18.129c.029.189.056.361.084.531a.363.363,0,0,1-.234.006,2.15,2.15,0,0,0-.506-.055.2.2,0,0,1-.083-.02,1.823,1.823,0,0,0-.489-.14.324.324,0,0,1-.263-.14.173.173,0,0,0-.216-.071.3.3,0,0,1-.332-.033.094.094,0,0,0-.062-.022.411.411,0,0,1-.222-.09.5.5,0,0,0-.383-.063,2,2,0,0,1-.256.033.311.311,0,0,1-.334.141.305.305,0,0,0-.129.029.423.423,0,0,1-.261.019.32.32,0,0,0-.258.031,1.021,1.021,0,0,1-.125.053c-.055-.016-.111-.034-.169-.048a.438.438,0,0,1-.267-.186c-.1-.14-.186-.286-.279-.428a1.125,1.125,0,0,0-.092-.123,2.1,2.1,0,0,1-.244-.284.875.875,0,0,0-.155-.185,1,1,0,0,1-.3-.35c-.011-.031-.05-.052-.078-.077a1.89,1.89,0,0,1-.151-.131c-.013-.016-.022-.034-.036-.049a.264.264,0,0,0-.125,0,.161.161,0,0,1-.19-.065c-.114-.134-.237-.26-.356-.39-.078-.085-.153-.174-.232-.258s-.153-.149-.228-.226c-.046-.05-.086-.106-.132-.157-.068-.072-.138-.141-.206-.212-.048-.05-.094-.1-.141-.15a2.6,2.6,0,0,0-.268-.277,1.412,1.412,0,0,0-.3-.241.165.165,0,0,1-.053-.055c-.03-.045-.058-.093-.088-.14,0-.008-.011-.014-.015-.021-.045-.076-.146-.087-.185-.172a.308.308,0,0,0-.124-.113l-.028.059a.365.365,0,0,0-.039.208.208.208,0,0,1-.126.225c-.194.114-.381.24-.571.36-.125.079-.254.154-.378.235s-.223.159-.338.235c-.072.048-.153.085-.226.133-.107.068-.21.141-.315.211-.073.049-.148.1-.221.144a3.612,3.612,0,0,0-.41.274,1.906,1.906,0,0,0-.372.322.178.178,0,0,1-.08.054c-.065.029-.131.053-.2.08l-.03.014c-.1.039-.142.164-.259.194a.648.648,0,0,0-.258.2,1.8,1.8,0,0,1-.283.247c-.027.017-.05.042-.076.062a1.733,1.733,0,0,1-.312.239.906.906,0,0,0-.168.131c-.143.12-.284.242-.428.361a1.518,1.518,0,0,1-.149.1.128.128,0,0,1-.123.021c-.031-.01-.072.009-.121.018-.029-.045-.052-.082-.079-.123a.187.187,0,0,1-.075-.008c-.014-.008-.031-.006-.044-.013a1.9,1.9,0,0,1-.18.156.766.766,0,0,0-.21.156.455.455,0,0,1-.383.147,1.255,1.255,0,0,0-.368.021,2.027,2.027,0,0,0-.325.093.311.311,0,0,1-.254.014.714.714,0,0,0-.543,0,1.571,1.571,0,0,1-.6.084c-.084,0-.159,0-.206.082a.092.092,0,0,1-.064.041,1.962,1.962,0,0,1-.708-.024,3.126,3.126,0,0,0-.361-.076,2.568,2.568,0,0,1-1-.329.6.6,0,0,0-.122-.051c-.032-.012-.076-.014-.1-.036a3.342,3.342,0,0,0-.774-.448c-.045-.028-.085-.065-.13-.092a2.762,2.762,0,0,0-.439-.238,1.461,1.461,0,0,1-.486-.261.76.76,0,0,0-.2-.123,3.9,3.9,0,0,1-.37-.138c-.1-.058-.173-.174-.3-.214a.433.433,0,0,1-.23-.171.611.611,0,0,0-.315-.232.387.387,0,0,1-.248-.222.464.464,0,0,0-.166-.2,1.92,1.92,0,0,1-.2-.177,8.265,8.265,0,0,0-.761-.568,4.975,4.975,0,0,1-.391-.351.162.162,0,0,0-.018-.019,2.823,2.823,0,0,1-.405-.336,1.635,1.635,0,0,0-.39-.353c-.008,0-.017-.008-.021-.015a2.223,2.223,0,0,0-.66-.478.777.777,0,0,1-.243-.2.515.515,0,0,0-.168-.126,2.966,2.966,0,0,1-.54-.383.236.236,0,0,0-.082-.065,3.725,3.725,0,0,1-.575-.324.682.682,0,0,1-.24-.207,1.469,1.469,0,0,1-.335-.533.263.263,0,0,0-.073-.109.859.859,0,0,1-.221-.417.537.537,0,0,0-.2-.309.838.838,0,0,1-.247-.369,1.79,1.79,0,0,0-.4-.647.128.128,0,0,1-.045-.064c-.031-.16-.162-.247-.254-.363a.961.961,0,0,1-.106-.149,2.555,2.555,0,0,0-.4-.65.41.41,0,0,1-.064-.114c-.079-.168-.156-.337-.239-.5a1.219,1.219,0,0,1-.147-.339.148.148,0,0,0-.03-.073c-.119-.13-.2-.285-.311-.423-.172-.224-.368-.429-.549-.646a.572.572,0,0,1-.1-.183.9.9,0,0,0-.346-.547c-.1-.153-.258-.26-.314-.453-.037-.13-.163-.228-.2-.371a.139.139,0,0,0-.07-.074c-.1-.055-.2-.107-.306-.157-.087-.042-.176-.08-.263-.119a5.49,5.49,0,0,1-.072-.926.633.633,0,0,0-.029-.155.853.853,0,0,1-.037-.445.241.241,0,0,0-.045-.2.426.426,0,0,1-.07-.278.488.488,0,0,0-.015-.157,2.523,2.523,0,0,1-.056-.527c-.011-.211-.047-.421-.073-.631a.562.562,0,0,1-.023-.1c.021-.357-.088-.7-.1-1.054a.122.122,0,0,1,0-.027,3.346,3.346,0,0,0-.034-.921.724.724,0,0,0-.057-.311.3.3,0,0,1-.008-.178.906.906,0,0,0-.014-.471,2.025,2.025,0,0,1-.063-.684,1.3,1.3,0,0,0-.04-.367c-.038-.144-.063-.291-.09-.438a.469.469,0,0,1,.01-.1.365.365,0,0,0,.01-.13,5.062,5.062,0,0,1-.057-.843c-.02-.166-.037-.333-.057-.5-.012-.1-.031-.192-.039-.289a.835.835,0,0,0-.115-.4.253.253,0,0,1-.009-.3.315.315,0,0,0,.022-.177,1.061,1.061,0,0,0-.053-.233.874.874,0,0,1-.01-.338,2.611,2.611,0,0,0-.077-.33,1.177,1.177,0,0,1,.027-.287.3.3,0,0,0-.269-.356c-.068-.008-.155.027-.2-.045a.893.893,0,0,1-.07-.223c0-.007,0-.017.011-.043a.374.374,0,0,1,.112-.012c.1.021.2.055.308.077a.4.4,0,0,0,.11-.009c-.032-.122-.06-.231-.09-.351a1.118,1.118,0,0,1,.3-.25.69.69,0,0,0,.26-.26c.074-.109.128-.229.2-.357a.89.89,0,0,1-.149-.464l.24-.249a.9.9,0,0,1-.092-.278,1.085,1.085,0,0,1,.088-.275c.012-.042.005-.089.017-.131a.422.422,0,0,1,.2-.281l-.117-.2a.188.188,0,0,1,.022-.057.655.655,0,0,1,.081-.067c.178-.135.2-.2.136-.4a1.648,1.648,0,0,0-.066-.158c.073-.063.172-.11.15-.246-.009-.052.053-.127.1-.176a1.239,1.239,0,0,0,.34-.43.074.074,0,0,1,.032-.041c.183-.1.2-.275.224-.449,0-.008,0-.018,0-.026a.408.408,0,0,0-.161-.524c.054-.077.1-.147.15-.217a.609.609,0,0,1,.1-.571.532.532,0,0,1,.1-.125c.132-.093.134-.186.075-.339a.511.511,0,0,1,.128-.537.529.529,0,0,1,.078-.072c.1-.072.144-.155.074-.273-.012-.02-.021-.061-.01-.073.079-.088.06-.2.081-.3.014-.063.077-.115.119-.175a.693.693,0,0,0-.041-.15.164.164,0,0,1,.009-.172c.056-.109.039-.156-.053-.224a.425.425,0,0,0-.067-.043c-.154-.08-.29-.173-.3-.37a.133.133,0,0,0-.033-.072.382.382,0,0,1-.075-.332,2.08,2.08,0,0,0-.489-.31,1.136,1.136,0,0,1-.449-.267.773.773,0,0,0-.271-.11c.023-.024.042-.057.07-.069a1.643,1.643,0,0,0,.441-.339.724.724,0,0,1,.264-.21.2.2,0,0,0,.111-.108,1.812,1.812,0,0,1,.336-.5c.087-.111.161-.231.241-.346a.538.538,0,0,1,.242-.2.244.244,0,0,0,.138-.153.968.968,0,0,1,.117-.318c.082-.091.059-.2.127-.307.04-.016.1-.036.153-.062.079-.037.158-.077.234-.121a.159.159,0,0,0,.083-.18.35.35,0,0,1,.173-.382c.13-.092.246-.2.367-.307a.24.24,0,0,1,.191-.073.342.342,0,0,0,.106,0c.147-.032.307-.043.343-.222a1.58,1.58,0,0,0,.227.021.112.112,0,0,0,.118-.089.453.453,0,0,1,.306-.338A.411.411,0,0,0,29.9,33a.51.51,0,0,1,.243-.194.944.944,0,0,0,.441-.366c.063-.1.168-.125.257-.177s.158-.093.185-.18a.459.459,0,0,1,.326-.283c.126-.047.255-.073.313-.217a.108.108,0,0,1,.063-.045,3.454,3.454,0,0,1,.52-.2,2.449,2.449,0,0,0,.275-.09.348.348,0,0,1,.152-.018.576.576,0,0,0,.314-.027.949.949,0,0,1,.31,0,2.271,2.271,0,0,0,.276-.082,1.05,1.05,0,0,1,.263-.019.873.873,0,0,0,.493-.163,1.491,1.491,0,0,1,.484-.209.482.482,0,0,0,.205-.112,1.367,1.367,0,0,1,.344-.188,1.061,1.061,0,0,0,.338-.2.515.515,0,0,1,.13-.086c.238-.117.478-.229.717-.344.04-.019.095-.031.113-.064.1-.176.3-.246.423-.4a.557.557,0,0,1,.18-.108c.047-.024.1-.04.145-.063a.271.271,0,0,0,.187-.288c0-.015.015-.031.026-.054a2.614,2.614,0,0,1,.325-.08.258.258,0,0,0,.188-.081.532.532,0,0,1,.448-.191.485.485,0,0,0,.357-.136.838.838,0,0,1,.261-.123,4.026,4.026,0,0,1,.443-.168.228.228,0,0,0,.167-.111.4.4,0,0,1,.423-.206.527.527,0,0,1,.132.01,2.318,2.318,0,0,0,.329.095,2.051,2.051,0,0,1,.334.043,1.226,1.226,0,0,0,.471.038,1.521,1.521,0,0,1,.776.094.836.836,0,0,0,.39.058,2.617,2.617,0,0,1,.392.03c.274.017.549.01.818.052.223.035.44,0,.659.017a.532.532,0,0,0,.157-.022.615.615,0,0,1,.391-.011c.043.018.1-.006.156-.006a1.07,1.07,0,0,1,.464.081,1.374,1.374,0,0,0,.571.085c.246,0,.493.008.739.018a.579.579,0,0,1,.208.035.477.477,0,0,0,.362,0,2.05,2.05,0,0,1,.522-.08.267.267,0,0,1,.216.08,3.549,3.549,0,0,0,.485.443,2.4,2.4,0,0,0,.95.5c.153.088.308.171.458.264.113.07.215.157.327.226a.784.784,0,0,1,.375.461,1.62,1.62,0,0,0,.167.312.988.988,0,0,1,.455.166.4.4,0,0,0,.25.072.671.671,0,0,1,.118.017.552.552,0,0,0-.044-.151.881.881,0,0,1-.073-.656.422.422,0,0,0-.042-.369.449.449,0,0,1-.084-.222,1.884,1.884,0,0,0-.433-.952c-.275-.053-.555-.105-.675-.424a.115.115,0,0,0-.072-.059.873.873,0,0,1-.507-.469.573.573,0,0,0-.164-.172c-.3-.2-.6-.383-.927-.59-.014-.038-.021-.143-.074-.183-.27-.2-.5-.492-.882-.473a.415.415,0,0,1-.365-.174,1.517,1.517,0,0,0-1.085-.586,1.248,1.248,0,0,1-.732-.382,1.549,1.549,0,0,0-.9-.428,1.224,1.224,0,0,1-.654-.23c-.169-.139-.381-.111-.574-.161a5.091,5.091,0,0,1-.593-.264.654.654,0,0,0-.231-.011c-.109,0-.217,0-.326,0a.766.766,0,0,1-.527-.15.831.831,0,0,0-.482-.152c-.016,0-.03-.008-.045-.009a1.15,1.15,0,0,1-.676-.278,3.5,3.5,0,0,0-.708-.545.787.787,0,0,1-.515-.676.223.223,0,0,0-.38-.168,1.052,1.052,0,0,1-.972.159A.8.8,0,0,0,37.748,22a6.92,6.92,0,0,1-.83.1c-.049.008-.1.006-.145.012A1.062,1.062,0,0,1,36.026,22c-.128-.079-.31-.06-.439-.138a1.281,1.281,0,0,0-.944-.135.651.651,0,0,1-.271,0,.916.916,0,0,0-.5.049c-.459.143-.923.272-1.385.407-.1.031-.2.073-.31.1a6.48,6.48,0,0,1-.7.163.463.463,0,0,1,.075-.057c.215-.108.437-.2.656-.3l.445-.209c.04-.019.08-.058.117-.055.15.012.236-.1.342-.168a1.63,1.63,0,0,1,.428-.292c.053-.015.089-.092.133-.141a.812.812,0,0,1,.348-.24.646.646,0,0,0,.341-.185.317.317,0,0,1,.147-.067.521.521,0,0,0,.269-.177.347.347,0,0,1,.187-.124,3.846,3.846,0,0,0,.848-.353.857.857,0,0,0,.422-.3.32.32,0,0,1,.161-.11,2.175,2.175,0,0,0,.475-.294c.089-.062.188-.11.28-.167s.207-.125.308-.19c.074-.048.139-.128.219-.144a1.353,1.353,0,0,0,.544-.345c.327-.249.662-.492.991-.741.017-.023.033-.047.051-.07s.029-.061.053-.078c.068-.051.145-.091.211-.144s.117-.135.189-.173a.394.394,0,0,0,.2-.2h.213a.473.473,0,0,0,.307-.081.42.42,0,0,1,.312-.06c.072-.032.143-.068.216-.1a.582.582,0,0,0,.272-.172c.113-.147.3-.164.434-.245a.264.264,0,0,1,.18.2c.013.039.044.052.063.083a.318.318,0,0,1,.252-.118.775.775,0,0,0,.224-.052,1.449,1.449,0,0,1,.428-.1,2.241,2.241,0,0,0,.406-.091c.053-.013.1-.034.156-.049.23-.068.462-.133.692-.2a.458.458,0,0,1,.251-.025.328.328,0,0,0,.136,0,.634.634,0,0,1,.471.068c.065.038.156.028.22.068a.6.6,0,0,0,.446.049,3.448,3.448,0,0,0,.415-.048.4.4,0,0,1,.207.01.528.528,0,0,0,.486-.08.112.112,0,0,1,.19.084.393.393,0,0,0,.257.338,1.739,1.739,0,0,1,.354.272.585.585,0,0,0,.361.144.409.409,0,0,1,.241.076.383.383,0,0,0,.263.075c.055,0,.109,0,.164,0a.337.337,0,0,1,.115.006,2.676,2.676,0,0,0,.3.132c.1.025.2.011.288.08a.607.607,0,0,0,.326.115.78.78,0,0,1,.452.214.621.621,0,0,0,.366.191.757.757,0,0,1,.542.293.206.206,0,0,0,.183.087c.19-.009.306.135.441.237.026.02.029.072.037.091.164.1.315.2.463.295a.269.269,0,0,1,.082.086c.065.1.128.2.254.235a.056.056,0,0,1,.036.029c.06.16.2.186.337.212a.953.953,0,0,1,.217.476.211.211,0,0,0,.042.111.212.212,0,0,1,.021.185.434.434,0,0,0,.037.328.452.452,0,0,1,.033.212.681.681,0,0,0,.616.669l.163.014a.587.587,0,0,1,.108.366.959.959,0,0,0,.1.468,1.352,1.352,0,0,1,.084.3,2.414,2.414,0,0,1,.035.239.272.272,0,0,1,0,.12,1.639,1.639,0,0,0-.034.458.473.473,0,0,0,.095.317v3.408a3.048,3.048,0,0,0-.137.66,1.129,1.129,0,0,1-.084.374c-.019.049-.032.1-.047.147a.418.418,0,0,0,.073-.165.218.218,0,0,1,.042-.083.781.781,0,0,0,.13-.214.182.182,0,0,1,.107-.11.689.689,0,0,0,.264-.236c.072-.1.149-.191.22-.289a.147.147,0,0,0,.034-.084.178.178,0,0,1,.061-.139.405.405,0,0,0,.087-.167c.024-.086.06-.168.091-.252a.081.081,0,0,1,.016-.027.679.679,0,0,0,.172-.321c.031-.007.061-.015.092-.019a.493.493,0,0,0,.388-.267c.039-.07.082-.137.116-.208a.737.737,0,0,1,.136-.173c.005-.027-.009-.054,0-.081s.01-.056.017-.083a.128.128,0,0,1,.058-.094.07.07,0,0,0,.038-.083c0-.014-.006-.033,0-.042a1.251,1.251,0,0,0,.1-.233c.006-.012.012-.029.023-.034a.143.143,0,0,0,.081-.145l.139-.164c.006-.007.008-.021.015-.024a.422.422,0,0,0,.128-.1v-.053l.093-.083a.313.313,0,0,0,.01-.044c.005-.053,0-.106.014-.158.013-.073.064-.092.143-.06l.027.013c.067-.05.135-.1.2-.152.037-.029.072-.061.108-.092.051-.045.1-.094.152-.138a.181.181,0,0,0,.084-.11.114.114,0,0,1,.067-.082c.023-.014.032-.04.053-.055a.257.257,0,0,1,.13-.146l0,.011c.037-.043.091-.071.12-.122A.437.437,0,0,1,58,23.066a.33.33,0,0,0,.109-.088c0-.005.011-.007.014-.012a.845.845,0,0,1,.125-.212,3.074,3.074,0,0,1,.249-.308c.017-.017.03-.041.05-.05a.3.3,0,0,0,.134-.159.185.185,0,0,1,.053-.062.714.714,0,0,0,.16-.16.161.161,0,0,1,.116-.073.608.608,0,0,0,.28-.15c.083-.069.17-.135.252-.205a.122.122,0,0,0,.047-.066.167.167,0,0,1,.083-.109.357.357,0,0,0,.111-.126c.039-.07.088-.134.133-.2a.061.061,0,0,1,.019-.02.6.6,0,0,0,.218-.243c.029,0,.057,0,.084,0a.44.44,0,0,0,.394-.15c.048-.053.1-.1.145-.157a.72.72,0,0,1,.222-.174,1.288,1.288,0,0,0,.265-.188c.011-.009.02-.023.033-.026.1-.024.137-.108.187-.182a1.645,1.645,0,0,0,.187-.332c.009-.026.014-.054.022-.086l.1-.052a.2.2,0,0,0,.019-.036c.015-.045.026-.092.045-.135.027-.061.076-.067.137-.022l.022.017c.069-.03.138-.059.206-.09.039-.017.076-.038.114-.057.054-.029.107-.061.162-.088a.168.168,0,0,0,.1-.079.1.1,0,0,1,.075-.057A.74.74,0,0,0,63,18.724a.387.387,0,0,1,.169-.1.292.292,0,0,0,.114-.053.71.71,0,0,1,.25-.129.29.29,0,0,1,.125-.018.849.849,0,0,1,.394.1.411.411,0,0,0,.119.042.954.954,0,0,1,.278.1,1.568,1.568,0,0,1,.352.259.12.12,0,0,1,.037.073.943.943,0,0,1,0,.378,1.407,1.407,0,0,0,.052.159.142.142,0,0,1,.022.092.158.158,0,0,0,.02.08c.017.037.039.073.057.105-.03.065-.1.011-.136.061a.288.288,0,0,0,0,.157.284.284,0,0,1-.031.19.188.188,0,0,0,0,.207c-.085.054-.163.108-.244.154a.409.409,0,0,0-.173.181.736.736,0,0,1-.257.3,2.01,2.01,0,0,0-.331.266.244.244,0,0,1-.057.043,1.184,1.184,0,0,0-.287.251c-.044.048-.1.089-.146.134-.024.022-.051.042-.073.066a1.953,1.953,0,0,1-.177.163.751.751,0,0,0-.156.181.363.363,0,0,1-.165.15.253.253,0,0,0-.072.044,2,2,0,0,1-.334.26c-.012.007-.028.014-.033.026-.055.111-.168.164-.246.252a2.95,2.95,0,0,1-.257.242c-.049.044-.1.083-.154.125a2.35,2.35,0,0,0-.27.227.776.776,0,0,0-.221.288.2.2,0,0,1-.066.09.366.366,0,0,0-.1.113.067.067,0,0,1-.044.032c-.053,0-.069.043-.093.077a.1.1,0,0,1-.094.054c-.054-.006-.085.029-.121.061-.122.111-.246.22-.369.329-.01.009-.018.018-.027.027.006.008.006.017.014.025-.078.082-.147.16-.223.232a.442.442,0,0,0-.14.242.833.833,0,0,1-.2.389,2.2,2.2,0,0,0-.288.376.267.267,0,0,1-.05.061,1.311,1.311,0,0,0-.247.348,2.155,2.155,0,0,1-.122.183c-.021.031-.044.059-.063.091a1.814,1.814,0,0,1-.149.224.893.893,0,0,0-.122.238.4.4,0,0,1-.138.205.247.247,0,0,0-.066.067,2.24,2.24,0,0,1-.3.37c-.011.011-.027.023-.029.037-.03.134-.139.222-.2.338a3.377,3.377,0,0,1-.215.329c-.042.061-.09.118-.134.177a2.459,2.459,0,0,0-.233.317.842.842,0,0,0-.164.371.239.239,0,0,1-.049.115.423.423,0,0,0-.084.149.067.067,0,0,1-.039.047c-.057.016-.063.064-.08.108a.115.115,0,0,1-.089.083c-.06.007-.084.053-.114.1-.1.153-.21.3-.314.455-.025.034-.046.071-.068.107a.46.46,0,0,1-.177.217.1.1,0,0,0-.034.033l-.068.1a.4.4,0,0,0,.217-.213c.005-.013.018-.03.03-.032.135-.024.211-.164.351-.178a.167.167,0,0,0,.082-.032,4,4,0,0,1,.481-.273,4.516,4.516,0,0,1,.622-.33,1.952,1.952,0,0,0,.478-.278c.072-.053.146-.1.222-.148a.346.346,0,0,0,.171-.223c.014-.057.022-.116.035-.173a.828.828,0,0,1,.094-.347c.1.018.2.041.307.051.221.021.442.033.662.054.3.03.6.065.9.1.088.01.176.018.263.031a1.826,1.826,0,0,1,.456.1.1.1,0,0,0,.064.007.817.817,0,0,1,.308,0,6.554,6.554,0,0,1,.926.1,1.13,1.13,0,0,0,.4.036.965.965,0,0,1,.414.037,1.875,1.875,0,0,0,.483.06,1.773,1.773,0,0,1,.309.025,2.159,2.159,0,0,0,.507.049.444.444,0,0,1,.153.023.981.981,0,0,0,.46.03.418.418,0,0,1,.132,0l.7.095c.044.005.088,0,.133.007a4.49,4.49,0,0,1,.615.055c.291.064.588.052.88.1a.155.155,0,0,0,.085-.014.466.466,0,0,1,.266-.03,4.284,4.284,0,0,1,.356.246c.106.09.2.2.3.3a5.028,5.028,0,0,0,.486.387.574.574,0,0,1,.118.1.988.988,0,0,0,.3.26,1.007,1.007,0,0,1,.41.358.18.18,0,0,0,.05.044l.276.223c.074.06.157.109.185.213.01.035.062.058.1.085a2.264,2.264,0,0,1,.327.26,2.739,2.739,0,0,0,.354.3c.063.051.128.1.19.154.1.087.194.183.3.263.243.183.451.405.682.6a1.216,1.216,0,0,1,.172.172.917.917,0,0,0,.233.236.3.3,0,0,1,.115.157,1.647,1.647,0,0,0,.142.3,1.647,1.647,0,0,1,.244.542.211.211,0,0,0,.044.074c.068.092.137.182.209.278-.061.012-.106.028-.093.087a.97.97,0,0,0,.068.234,3.863,3.863,0,0,1,.222.65,1.441,1.441,0,0,0,.2.535,4.973,4.973,0,0,0,.2.515,1.08,1.08,0,0,0,.189.35.888.888,0,0,1,.138.277,2.039,2.039,0,0,0,.214.557.429.429,0,0,1,.03.083c.066.157.131.314.2.469.049.108.1.212.156.318.036.073.066.149.105.22a.328.328,0,0,1,.049.167c0,.11.007.221.014.331a.188.188,0,0,0,.022.085.785.785,0,0,1,.084.453,4.248,4.248,0,0,0,.023.618.368.368,0,0,1-.01.155.468.468,0,0,0,0,.22,1.155,1.155,0,0,0,.071.367.057.057,0,0,1,.006.043c-.055.1-.025.22-.05.325A.832.832,0,0,0,75.7,42.505Z"/><path class="cls-3" d="M75.748,41.658a.057.057,0,0,0-.006-.043,1.155,1.155,0,0,1-.071-.367.468.468,0,0,1,0-.22.368.368,0,0,0,.01-.155,4.248,4.248,0,0,1-.023-.618.785.785,0,0,0-.084-.453.188.188,0,0,1-.022-.085c-.007-.11-.015-.221-.014-.331a.328.328,0,0,0-.049-.167c-.039-.071-.069-.147-.105-.22-.051-.106-.107-.21-.156-.318-.07-.155-.135-.312-.2-.469a.429.429,0,0,0-.03-.083,2.039,2.039,0,0,1-.214-.557.888.888,0,0,0-.138-.277,1.08,1.08,0,0,1-.189-.35,4.973,4.973,0,0,1-.2-.515,1.441,1.441,0,0,1-.2-.535,3.863,3.863,0,0,0-.222-.65.97.97,0,0,1-.068-.234c-.013-.059.032-.075.093-.087-.072-.1-.141-.186-.209-.278a.211.211,0,0,1-.044-.074,1.647,1.647,0,0,0-.244-.542,1.647,1.647,0,0,1-.142-.3.3.3,0,0,0-.115-.157.917.917,0,0,1-.233-.236,1.216,1.216,0,0,0-.172-.172c-.231-.2-.439-.418-.682-.6-.106-.08-.2-.176-.3-.263-.062-.053-.127-.1-.19-.154a2.739,2.739,0,0,1-.354-.3,2.264,2.264,0,0,0-.327-.26c-.034-.027-.086-.05-.1-.085-.028-.1-.111-.153-.185-.213l-.276-.223a.18.18,0,0,1-.05-.044,1.007,1.007,0,0,0-.41-.358.988.988,0,0,1-.3-.26.574.574,0,0,0-.118-.1,5.028,5.028,0,0,1-.486-.387c-.1-.1-.19-.207-.3-.3a4.284,4.284,0,0,0-.356-.246.466.466,0,0,0-.266.03.155.155,0,0,1-.085.014c-.292-.044-.589-.032-.88-.1a4.49,4.49,0,0,0-.615-.055c-.045,0-.089,0-.133-.007l-.7-.095a.418.418,0,0,0-.132,0,.981.981,0,0,1-.46-.03.444.444,0,0,0-.153-.023,2.159,2.159,0,0,1-.507-.049,1.773,1.773,0,0,0-.309-.025,1.875,1.875,0,0,1-.483-.06.965.965,0,0,0-.414-.037,1.13,1.13,0,0,1-.4-.036,6.554,6.554,0,0,0-.926-.1.817.817,0,0,0-.308,0,.1.1,0,0,1-.064-.007,1.826,1.826,0,0,0-.456-.1c-.087-.013-.175-.021-.263-.031-.3-.032-.6-.067-.9-.1-.22-.021-.441-.033-.662-.054-.1-.01-.2-.033-.307-.051a.828.828,0,0,0-.094.347c-.013.057-.021.116-.035.173a.346.346,0,0,1-.171.223c-.076.045-.15.095-.222.148a1.952,1.952,0,0,1-.478.278,4.516,4.516,0,0,0-.622.33,4,4,0,0,0-.481.273.167.167,0,0,1-.082.032c-.14.014-.216.154-.351.178-.012,0-.025.019-.03.032a.4.4,0,0,1-.217.213c-.072.037-.149.067-.218.107a1.5,1.5,0,0,0-.232.127.239.239,0,0,1-.1.051.713.713,0,0,0-.272.147,1.078,1.078,0,0,1-.42.2.369.369,0,0,0-.293.208.313.313,0,0,1-.109.108c-.1.076-.2.149-.3.223a.909.909,0,0,0-.258.208.136.136,0,0,1-.072.049.338.338,0,0,0-.157.117.713.713,0,0,1-.13.1c-.014-.01-.021-.025-.037-.034a1.193,1.193,0,0,1-.406-.446c-.133-.235-.313-.434-.454-.66-.013-.021-.03-.04-.042-.061s-.039-.029-.054-.049a.464.464,0,0,0-.181-.16,1.744,1.744,0,0,0-.417-.12.671.671,0,0,0-.118-.017.4.4,0,0,1-.25-.072.988.988,0,0,0-.455-.166,1.62,1.62,0,0,1-.167-.312.784.784,0,0,0-.375-.461c-.112-.069-.214-.156-.327-.226-.15-.093-.305-.176-.458-.264a2.4,2.4,0,0,1-.95-.5,3.549,3.549,0,0,1-.485-.443.267.267,0,0,0-.216-.08,2.05,2.05,0,0,0-.522.08.477.477,0,0,1-.362,0,.579.579,0,0,0-.208-.035c-.246-.01-.493-.016-.739-.018A1.374,1.374,0,0,1,45.7,28.2a1.07,1.07,0,0,0-.464-.081c-.053,0-.113.024-.156.006a.615.615,0,0,0-.391.011.532.532,0,0,1-.157.022c-.219-.017-.436.018-.659-.017-.269-.042-.544-.035-.818-.052a2.617,2.617,0,0,0-.392-.03.836.836,0,0,1-.39-.058,1.521,1.521,0,0,0-.776-.094,1.226,1.226,0,0,1-.471-.038,2.051,2.051,0,0,0-.334-.043,2.318,2.318,0,0,1-.329-.095.527.527,0,0,0-.132-.01.4.4,0,0,0-.423.206.228.228,0,0,1-.167.111,4.026,4.026,0,0,0-.443.168.838.838,0,0,0-.261.123.485.485,0,0,1-.357.136.532.532,0,0,0-.448.191.258.258,0,0,1-.188.081,2.614,2.614,0,0,0-.325.08c-.011.023-.027.039-.026.054a.271.271,0,0,1-.187.288c-.047.023-.1.039-.145.063a.557.557,0,0,0-.18.108c-.124.151-.322.221-.423.4-.018.033-.073.045-.113.064-.239.115-.479.227-.717.344a.515.515,0,0,0-.13.086,1.061,1.061,0,0,1-.338.2,1.367,1.367,0,0,0-.344.188.482.482,0,0,1-.205.112,1.491,1.491,0,0,0-.484.209.873.873,0,0,1-.493.163,1.05,1.05,0,0,0-.263.019,2.271,2.271,0,0,1-.276.082.949.949,0,0,0-.31,0,.576.576,0,0,1-.314.027.348.348,0,0,0-.152.018,2.449,2.449,0,0,1-.275.09,3.454,3.454,0,0,0-.52.2.108.108,0,0,0-.063.045c-.058.144-.187.17-.313.217a.459.459,0,0,0-.326.283c-.027.087-.106.133-.185.18s-.194.078-.257.177a.944.944,0,0,1-.441.366A.51.51,0,0,0,29.9,33a.411.411,0,0,1-.178.149.453.453,0,0,0-.306.338.112.112,0,0,1-.118.089,1.58,1.58,0,0,1-.227-.021c-.036.179-.2.19-.343.222a.342.342,0,0,1-.106,0,.24.24,0,0,0-.191.073c-.121.1-.237.215-.367.307a.35.35,0,0,0-.173.382.159.159,0,0,1-.083.18c-.076.044-.155.084-.234.121-.054.026-.113.046-.153.062-.068.1-.045.216-.127.307a.968.968,0,0,0-.117.318.244.244,0,0,1-.138.153.538.538,0,0,0-.242.2c-.08.115-.154.235-.241.346a1.812,1.812,0,0,0-.336.5.2.2,0,0,1-.111.108.724.724,0,0,0-.264.21,1.643,1.643,0,0,1-.441.339c-.028.012-.047.045-.07.069a.773.773,0,0,1,.271.11,1.136,1.136,0,0,0,.449.267,2.08,2.08,0,0,1,.489.31.382.382,0,0,0,.075.332.133.133,0,0,1,.033.072c.012.2.148.29.3.37a.425.425,0,0,1,.067.043c.092.068.109.115.053.224a.164.164,0,0,0-.009.172.693.693,0,0,1,.041.15c-.042.06-.105.112-.119.175-.021.1,0,.211-.081.3-.011.012,0,.053.01.073.07.118.022.2-.074.273a.529.529,0,0,0-.078.072.511.511,0,0,0-.128.537c.059.153.057.246-.075.339a.532.532,0,0,0-.1.125.609.609,0,0,0-.1.571c-.048.07-.1.14-.15.217a.408.408,0,0,1,.161.524c0,.008,0,.018,0,.026-.026.174-.041.353-.224.449a.074.074,0,0,0-.032.041,1.239,1.239,0,0,1-.34.43c-.046.049-.108.124-.1.176.022.136-.077.183-.15.246a1.648,1.648,0,0,1,.066.158c.065.2.042.269-.136.4a.655.655,0,0,0-.081.067.188.188,0,0,0-.022.057l.117.2a.422.422,0,0,0-.2.281c-.012.042-.005.089-.017.131a1.085,1.085,0,0,0-.088.275.9.9,0,0,0,.092.278l-.24.249a.89.89,0,0,0,.149.464c-.07.128-.124.248-.2.357a.69.69,0,0,1-.26.26,1.118,1.118,0,0,0-.3.25c.03.12.058.229.09.351a.4.4,0,0,1-.11.009c-.1-.022-.2-.056-.308-.077a.374.374,0,0,0-.112.012c-.007.026-.013.036-.011.043a.893.893,0,0,0,.07.223c.041.072.128.037.2.045a.3.3,0,0,1,.269.356,1.177,1.177,0,0,0-.027.287,2.611,2.611,0,0,1,.077.33.874.874,0,0,0,.01.338,1.061,1.061,0,0,1,.053.233.315.315,0,0,1-.022.177.253.253,0,0,0,.009.3.835.835,0,0,1,.115.4c.008.1.027.193.039.289.02.167.037.334.057.5a5.062,5.062,0,0,0,.057.843.365.365,0,0,1-.01.13.469.469,0,0,0-.01.1c.027.147.052.294.09.438a1.3,1.3,0,0,1,.04.367,2.025,2.025,0,0,0,.063.684.906.906,0,0,1,.014.471.3.3,0,0,0,.008.178.724.724,0,0,1,.057.311,3.346,3.346,0,0,1,.034.921.122.122,0,0,0,0,.027c.014.353.123.7.1,1.054a.562.562,0,0,0,.023.1c.026.21.062.42.073.631a2.523,2.523,0,0,0,.056.527.488.488,0,0,1,.015.157.426.426,0,0,0,.07.278.241.241,0,0,1,.045.2.853.853,0,0,0,.037.445.633.633,0,0,1,.029.155,5.49,5.49,0,0,0,.072.926c.087.039.176.077.263.119.1.05.205.1.306.157a.139.139,0,0,1,.07.074c.034.143.16.241.2.371.056.193.214.3.314.453a.9.9,0,0,1,.346.547.572.572,0,0,0,.1.183c.181.217.377.422.549.646.106.138.192.293.311.423a.148.148,0,0,1,.03.073,1.219,1.219,0,0,0,.147.339c.083.166.16.335.239.5a.41.41,0,0,0,.064.114,2.555,2.555,0,0,1,.4.65.961.961,0,0,0,.106.149c.092.116.223.2.254.363a.128.128,0,0,0,.045.064,1.79,1.79,0,0,1,.4.647.838.838,0,0,0,.247.369.537.537,0,0,1,.2.309.859.859,0,0,0,.221.417.263.263,0,0,1,.073.109,1.469,1.469,0,0,0,.335.533.682.682,0,0,0,.24.207,3.725,3.725,0,0,0,.575.324.236.236,0,0,1,.082.065,2.966,2.966,0,0,0,.54.383.515.515,0,0,1,.168.126.777.777,0,0,0,.243.2,2.223,2.223,0,0,1,.66.478c0,.007.013.01.021.015a1.635,1.635,0,0,1,.39.353,2.823,2.823,0,0,0,.405.336.162.162,0,0,1,.018.019,4.975,4.975,0,0,0,.391.351,8.265,8.265,0,0,1,.761.568,1.92,1.92,0,0,0,.2.177.464.464,0,0,1,.166.2.387.387,0,0,0,.248.222.611.611,0,0,1,.315.232.433.433,0,0,0,.23.171c.123.04.192.156.3.214a3.9,3.9,0,0,0,.37.138.76.76,0,0,1,.2.123,1.461,1.461,0,0,0,.486.261,2.762,2.762,0,0,1,.439.238c.045.027.085.064.13.092a3.342,3.342,0,0,1,.774.448c.022.022.066.024.1.036a.6.6,0,0,1,.122.051,2.568,2.568,0,0,0,1,.329,3.126,3.126,0,0,1,.361.076,1.962,1.962,0,0,0,.708.024.092.092,0,0,0,.064-.041c.047-.086.122-.085.206-.082a1.571,1.571,0,0,0,.6-.084.714.714,0,0,1,.543,0,.311.311,0,0,0,.254-.014,2.027,2.027,0,0,1,.325-.093,1.255,1.255,0,0,1,.368-.021.455.455,0,0,0,.383-.147.766.766,0,0,1,.21-.156,1.9,1.9,0,0,0,.18-.156c.013.007.03,0,.044.013a.187.187,0,0,0,.075.008c.027.041.05.078.079.123.049-.009.09-.028.121-.018a.128.128,0,0,0,.123-.021,1.518,1.518,0,0,0,.149-.1c.144-.119.285-.241.428-.361a.906.906,0,0,1,.168-.131,1.733,1.733,0,0,0,.312-.239c.026-.02.049-.045.076-.062a1.8,1.8,0,0,0,.283-.247.648.648,0,0,1,.258-.2c.117-.03.154-.155.259-.194l.03-.014c.066-.027.132-.051.2-.08a.178.178,0,0,0,.08-.054,1.906,1.906,0,0,1,.372-.322,3.612,3.612,0,0,1,.41-.274c.073-.048.148-.095.221-.144.1-.07.208-.143.315-.211.073-.048.154-.085.226-.133.115-.076.223-.16.338-.235s.253-.156.378-.235c.19-.12.377-.246.571-.36a.208.208,0,0,0,.126-.225.365.365,0,0,1,.039-.208l.028-.059a.308.308,0,0,1,.124.113c.039.085.14.1.185.172,0,.007.011.013.015.021.03.047.058.095.088.14a.165.165,0,0,0,.053.055,1.412,1.412,0,0,1,.3.241,2.6,2.6,0,0,1,.268.277c.047.049.093.1.141.15.068.071.138.14.206.212.046.051.086.107.132.157.075.077.154.149.228.226s.154.173.232.258c.119.13.242.256.356.39a.161.161,0,0,0,.19.065.264.264,0,0,1,.125,0c.014.015.023.033.036.049a1.89,1.89,0,0,0,.151.131c.028.025.067.046.078.077a1,1,0,0,0,.3.35.875.875,0,0,1,.155.185,2.1,2.1,0,0,0,.244.284,1.125,1.125,0,0,1,.092.123c.093.142.182.288.279.428a.438.438,0,0,0,.267.186c.058.014.114.032.169.048a1.021,1.021,0,0,0,.125-.053.32.32,0,0,1,.258-.031.423.423,0,0,0,.261-.019.305.305,0,0,1,.129-.029.311.311,0,0,0,.334-.141,2,2,0,0,0,.256-.033.5.5,0,0,1,.383.063.411.411,0,0,0,.222.09.094.094,0,0,1,.062.022.3.3,0,0,0,.332.033.173.173,0,0,1,.216.071.324.324,0,0,0,.263.14,1.823,1.823,0,0,1,.489.14.2.2,0,0,0,.083.02,2.15,2.15,0,0,1,.506.055.363.363,0,0,0,.234-.006c-.028-.17-.055-.342-.084-.531a.287.287,0,0,1,.18-.129.2.2,0,0,0,.122-.089.4.4,0,0,1,.283-.195c.021-.005.042-.014.074-.024l.087-.154a.48.48,0,0,0,.318-.124c.144-.106.291-.206.439-.3.068-.045.141-.08.211-.121a.328.328,0,0,0,.092-.058.923.923,0,0,1,.551-.252.278.278,0,0,1,.177-.155A1.018,1.018,0,0,0,61.553,72l.233-.128c.032-.017.075-.026.1-.053a1.3,1.3,0,0,1,.448-.272c.128-.072.244-.166.366-.249.035-.025.069-.063.108-.069a.655.655,0,0,0,.3-.142,1.016,1.016,0,0,1,.376-.184.6.6,0,0,0,.3-.173A.571.571,0,0,1,64,70.58a1.615,1.615,0,0,0,.344-.2c.088-.056.177-.109.265-.162.019-.012.047-.016.058-.032.1-.148.273-.17.409-.256a.365.365,0,0,1,.15-.03c.095-.008.191-.011.3-.017.043-.089.085-.183.2-.209.026-.006.046-.054.063-.086a.46.46,0,0,1,.217-.212.2.2,0,0,0,.091-.062.556.556,0,0,1,.354-.211.6.6,0,0,0,.264-.148.5.5,0,0,1,.31-.161.291.291,0,0,0,.2-.121.646.646,0,0,1,.077-.08.165.165,0,0,1,.221-.033.189.189,0,0,0,.244-.029,1.272,1.272,0,0,0,.162-.149c.115-.135.23-.272.335-.415.087-.118.16-.246.239-.371,0-.006,0-.015.009-.02.147-.156.244-.349.377-.514a5.244,5.244,0,0,0,.423-.6,1.462,1.462,0,0,1,.215-.281,1.136,1.136,0,0,0,.178-.226,3.917,3.917,0,0,1,.252-.363c.061-.083.109-.175.165-.262.124-.194.249-.386.373-.58.035-.055.065-.115.1-.173s.05-.108.083-.158c.1-.154.207-.305.307-.461a1,1,0,0,0,.126-.234.936.936,0,0,1,.159-.289,4.631,4.631,0,0,0,.414-.606c.045-.084.122-.151.165-.235.125-.244.24-.492.358-.739a.26.26,0,0,1,.015-.042c.111-.156.225-.31.334-.468a.613.613,0,0,0,.105-.192,3.567,3.567,0,0,1,.228-.527,1.632,1.632,0,0,0,.083-.181,1.771,1.771,0,0,1,.187-.4A2.55,2.55,0,0,0,73.3,59.7c.049-.123.1-.244.156-.364s.111-.226.16-.342.1-.245.142-.37c.055-.161.109-.322.152-.487a2.692,2.692,0,0,0,.13-.373.994.994,0,0,1,.094-.362,1.06,1.06,0,0,0,.119-.419.279.279,0,0,1,.04-.1,1.566,1.566,0,0,0,.156-.462.241.241,0,0,1,.026-.107.6.6,0,0,0,.1-.355c.013-.147.068-.286.074-.436,0-.1.075-.188.089-.3a3.108,3.108,0,0,1,.117-.427,1.358,1.358,0,0,0,.048-.217,1.273,1.273,0,0,1,.088-.365.409.409,0,0,0,.026-.152,2.318,2.318,0,0,1,.14-.647c.017-.056.03-.113.042-.171s.022-.115.033-.172a.971.971,0,0,0,.028-.13,1.3,1.3,0,0,1,.1-.5.156.156,0,0,0,.011-.065c0-.126.006-.251.012-.377a.793.793,0,0,0-.019-.349.211.211,0,0,1,.01-.128,1.618,1.618,0,0,0,.075-.548.633.633,0,0,1,.071-.387.086.086,0,0,0,.015-.062,1.459,1.459,0,0,1-.012-.287,1.364,1.364,0,0,1,.015-.464.22.22,0,0,0,0-.088.691.691,0,0,1,.064-.475.251.251,0,0,0-.007-.254.3.3,0,0,1-.029-.235,2.06,2.06,0,0,0,.022-.576,1.244,1.244,0,0,1,0-.244.679.679,0,0,0-.019-.329.175.175,0,0,1,0-.088,5.175,5.175,0,0,0,.011-.528.544.544,0,0,1,.026-.152.475.475,0,0,0,0-.346.181.181,0,0,1-.017-.107.718.718,0,0,0,0-.371,1.177,1.177,0,0,1,0-.222.819.819,0,0,0-.025-.308.164.164,0,0,1-.009-.044c0-.146,0-.292,0-.438a.2.2,0,0,1,.026-.106.527.527,0,0,0,.059-.32,1.318,1.318,0,0,1,.07-.572c-.136-.165-.072-.344-.035-.513a.858.858,0,0,0,.024-.189.758.758,0,0,1,.038-.185c-.021-.039-.033-.067-.049-.092a.208.208,0,0,1-.022-.21.921.921,0,0,0,.043-.172.217.217,0,0,0,0-.11.832.832,0,0,1,0-.522C75.723,41.878,75.693,41.761,75.748,41.658Z"/></svg>