<svg id="Layer_1" data-name="Layer 1" xmlns="http://www.w3.org/2000/svg" xmlns:xlink="http://www.w3.org/1999/xlink" viewBox="0 0 100 100"><defs><style>.cls-1{fill:#fd3366;}.cls-2{fill:none;}.cls-3{clip-path:url(#clip-path);}.cls-4{fill:#1858a5;}.cls-5{fill:#fde8e6;}.cls-6{clip-path:url(#clip-path-2);}</style><clipPath id="clip-path"><path class="cls-1" d="M87.969,80.119a8.624,8.624,0,0,0-1.844,2.872l-1.37,1.61L83.384,86.21l-1.1,1.288A9.974,9.974,0,0,0,78.3,90.766a1.482,1.482,0,0,1-1.172.668,3.562,3.562,0,0,0-1.72,1.312c-.274.322-.822.966-1.445.99l-.274.322a5.7,5.7,0,0,0-2.344,1.336c-.274.322-.274.322-.9.347-.274.322-.9.346-1.172.668A24.136,24.136,0,0,0,65.687,97.8a.427.427,0,0,1-.624.024,7.7,7.7,0,0,1-5.26.518,25.422,25.422,0,0,0-4.439-.448l-.349-.3c-.973-.273-2.294-.843-3.192-.5l-2.493.1-1.87.074a9.4,9.4,0,0,1-2.768.419l-1.246.049c-.973-.273-2.145.4-3.042.742-.274.322-.9.347-1.521.371l-1.87.073a3.6,3.6,0,0,1-1.945-.545l-.349-.3a9.693,9.693,0,0,0-3.192-.5l-.623.024c-.349-.3-.973-.273-1.322-.57l-.349-.3-1.746-1.487-1.048-.892-.349-.3c.124-1.561-1.2-2.131-2.52-2.7l-.7-.595c-.7-.595-1.671-.868-2.37-1.462A6.274,6.274,0,0,1,18.681,87.2a3.7,3.7,0,0,0-3.068-2.057l-.972-.273c-.623.025-.973-.273-1.671-.868A8.416,8.416,0,0,0,10.8,81.6c-.349-.3-.349-.3-.424-.917a3.559,3.559,0,0,0-1.547-2.428c-.349-.3-.7-.595-.973-.273a.951.951,0,0,0-.15-1.239c-.349-.3-.075-.619-.424-.916a.951.951,0,0,0-.151-1.239,9.709,9.709,0,0,0-1-3.072c-.151-1.238-1.2-2.131-1.348-3.369,0,0-.076-.619-.35-.3a2.456,2.456,0,0,1-.5-1.536,3.455,3.455,0,0,0-.3-2.477c-.076-.619-.076-.619-.151-1.238a2.456,2.456,0,0,0-.5-1.536h0a2.46,2.46,0,0,1-.5-1.536c-.35-.3-.425-.917-.774-1.214a5.918,5.918,0,0,1,.049-2.18c.2-.941.124-1.56.323-2.5-.075-.619.2-.941.124-1.56l.274-.322a2.148,2.148,0,0,0,.4-1.882l.274-.322a2.148,2.148,0,0,0,.4-1.882c-.15-1.239-.65-2.775-.8-4.013.274-.322-.075-.62.2-.942l.6-2.823c-.075-.619.2-.941.747-1.585.274-.322.2-.941.473-1.263l-.075-.619q.71-1.894,1.42-3.79l.548-.643.548-.644a3.1,3.1,0,0,1,.672-2.2c.274-.322.274-.322.2-.942a1.478,1.478,0,0,1,.473-1.263l1.919-2.253a1.478,1.478,0,0,0,.473-1.263c.473-1.263.672-2.2,1.145-3.467l.274-.322c.549-.644,1.446-.99,1.994-1.634a3.107,3.107,0,0,1,2.069-1.015,1.445,1.445,0,0,0,.9-.346l1.37-1.609c.2-.942,1.371-1.61,2.268-1.956A7.381,7.381,0,0,0,23.581,11.4a2.146,2.146,0,0,1,1.8-.692,2.148,2.148,0,0,0,1.795-.693,5.689,5.689,0,0,1,2.343-1.337l1.1-1.287c.9-.347,1.8-.693,1.994-1.634l-.349-.3A5.681,5.681,0,0,0,34.6,4.126c.274-.322.822-.966,1.446-.99.9-.347,1.446-.991,2.343-1.337l.274-.322,1.247-.049c.623-.024.9-.346,1.521-.37s.9-.347,1.52-.371l.973.273a2.456,2.456,0,0,0,1.6.248,3.6,3.6,0,0,1,1.945.546,2.944,2.944,0,0,0,1.671.868c.349.3.349.3.972.273a.44.44,0,0,0,.624-.025L52.6,2.8l.623-.025c.274-.321.9-.346,1.6.249a1.647,1.647,0,0,0,.972.273,3.6,3.6,0,0,1,1.945.545c.624-.024,1.322.571,1.945.546.35.3.624-.024.973.273.973.273,2.568.521,3.541.794a1.779,1.779,0,0,1,1.322.571l.7.594a5.359,5.359,0,0,1,2.02,1.165l1.048.893c.7.594,1.4,1.189,2.02,1.165.973.273,1.322.57,1.945.545a1.643,1.643,0,0,0,.973.273,3.667,3.667,0,0,0,2.294.844c.274-.322.624-.025.7.594l.075.62a1.912,1.912,0,0,0,.574,2.155c.7.595.774,1.214,1.2,2.131.075.619.774,1.214,1.123,1.511l1.048.892,1.047.892.7.595.349.3c.349.3.425.917,1.123,1.512l1.048.892a1.484,1.484,0,0,0,1.4,1.189,6.266,6.266,0,0,1,1.822,2.107c.075.619.773,1.214,1.472,1.808a4.639,4.639,0,0,1,1.9,2.726c.075.619.425.917.7.6.972.273,1.122,1.511,1.821,2.106l.075.619,1.547,2.428a.439.439,0,0,1,.075.619,2.459,2.459,0,0,0,.849,1.834h0a1.18,1.18,0,0,0,1.123,1.511,4.308,4.308,0,0,1,.026,2.8.426.426,0,0,0,.075.619c.075.62.075.62-.2.942s-.473,1.263-.747,1.585c.075.619.075.619-.2.941-.747,1.585.1,3.418,1.5,4.608l.7.594a2.149,2.149,0,0,1-.4,1.883,2.3,2.3,0,0,0-.323,2.5c.075.62-.2.942-.124,1.561-.274.322-.2.941-.473,1.263l-.274.322c-.548.644-1.1,1.287-1.021,1.907-.274.321-.473,1.263-.124,1.56Z"/></clipPath><clipPath id="clip-path-2"><path class="cls-2" d="M930.841,448.584c1.043-1.164-1.381-2.352.109-3.454l-1-1.9a16.245,16.245,0,0,0,.733-2.829c-.852-.647-.359-1.426-.259-2.162a1.1,1.1,0,0,0-.222-.9c.712-1.078-.185-2.434.926-3.445.044-1.756.886-3.695-1.4-4.9a5.376,5.376,0,0,0-.588-.27c-.275-.108-.452-.738-.343-1.052.274-.791.782-1.53,1.105-2.314a1.475,1.475,0,0,0,.062-1.131,2.12,2.12,0,0,1-.134-1.937,5.92,5.92,0,0,0,.147-1.9c.062-1.262.4-2.628-.637-3.823-.564-.653-.762-1.742-1.49-2.019-1.16-.442-1.3-1.207-1.712-1.911-.72-1.251-1.362-2.532-2.012-3.808-.044-.094.155-.25.155-.38.058-1.147.222-2.29.274-3.437.032-.732.295-1.134-.777-1.4-.263-.065-.494-.689-.427-1.015a8.488,8.488,0,0,1,.731-1.541c.253-.567.007-1.046-.672-1.295-.627-.233-1.289-.394-1.908-.631-.963-.367-.552-1.591-1.762-1.842-.239-.05-.422-.269-.631-.41.234-.176.434-.464.7-.509,1.5-.253,1.577-1,1.455-2.053-.055-.469.544-1.312-.042-1.465-1.6-.418-1.809-1.515-2.371-2.469l-1.4-2.636c.975-1.122-.016-2.045-.474-3.021.818-.343,2.168-.35,1.418-1.627-.217-.366.079-.752.682-.889s.773-.521.548-.933c-.413-.759-.771-1.445-.172-2.3.581-.829.8-1.826,1.409-2.639.811-1.081-1.279-2.028-.08-3.06.05-.042-.027-.272-.061-.272-.314-.023-.633-.022-.947-.016s-.855.105-.913.006c-.506-.825-.927-1.684-1.372-2.533.8-1.134.231-1.723-1.181-2.108-.245-.066-.445-.722-.345-1.04.7-2.232.727-2.227-.1-3.8l-1.2-2.272c-.362-.444-.1-.765.351-1.014a4.026,4.026,0,0,0,1.888-3.138c.1-.457-.392-1.05-.763-1.5-.579-.7.42-1.289.12-1.914a14.7,14.7,0,0,0-1.847-3.4c-1.073-1.241-.106-2.6-.805-3.849-.988-1.759-.769-1.791-.627-4.565.065-1.251.7-2.608-.442-3.826a1.027,1.027,0,0,1-.116-1.11c1.025-1.357.591-2.583-.274-3.835-.231-.336-.536-.88-.36-1.114l.006-.008v0a1.626,1.626,0,0,0-.4-2.27c-.93-.928.659-1.858-.24-2.7-.991-.925-.537-2.01-.492-3.047a3.8,3.8,0,0,0,1.354-.5c.225-.229.106-.719.036-1.081-.074-.383-.53-.86-.368-1.1.609-.918.56-2.066,1.783-2.793a1.782,1.782,0,0,0,.71-2.806c-.191-.279-.032-.746.068-1.109.2-.743,1.235-1.468.336-2.237-1.031-.878.82-1.8-.223-2.653-.025-.021-.049-.044-.073-.067a1,1,0,0,1,.012-1.421c.419-.582-.293-1-.419-1.494a1.56,1.56,0,0,0,1.145-1.655,2.852,2.852,0,0,0-1.8-2.637c-.71-.251-.457-.529-.278-.859a3.153,3.153,0,0,1,1.1-1.248,1.754,1.754,0,0,0,.46-.305h0a1.781,1.781,0,0,0,.114-2.522c-.086-.114-.237-.305-.186-.365.967-1.127-.033-2.041-.48-3.013a4.641,4.641,0,0,0,1.632-3.456,5.771,5.771,0,0,0-.506-3.023,6.625,6.625,0,0,1-.041-2.613c.013-.176.455-.322.676-.5s.637-.45.583-.556q-1.423-2.778-2.981-5.509c-.048-.091-.587,0-.9,0-.576-.773-.524-1.863-1.918-2.238-.361-.1-.879-.7-.779-.879.62-1.1-.088-2.365.848-3.452a2.368,2.368,0,0,0,.253-3.046c-.392-.652.216-1.689.374-2.552,1.6-.612,1.46-2.016,2.181-3.039-.533-1.007-1.072-2.009-1.579-3.021-.046-.091.157-.246.169-.376a7.251,7.251,0,0,1,.923-3.421c.316-.5-.848-1.309.474-1.663.153-.054.453-.11.453-.161-.035-1.419-.747-2.878.535-4.208.109-.113-.168-.5-.329-.737a1.451,1.451,0,0,1-.094-1.534,8.363,8.363,0,0,1,3-3.521c.832-.6,1.378-1.33,1.119-2.056-.344-.962.369-1.116,1.041-1.494.391-.218.2-.427-.1-.59s-1.312.008-.791-.642c.612-.761-.373-1.57.3-2.327.172-.193-.09-.945-.346-1.021-2.153-.642-2.022-2.335-2.762-3.63.952-1.168-.111-2.111-.675-3.023-.546-.884-.184-1.557.216-2.3.135-.252.456-.643.356-.743a1.468,1.468,0,0,1-.448-.848,3.07,3.07,0,0,1,1.059-.305c.223-.028.606-.634.5-.824-1.248-2.224,1.357-3.528,1.9-5.321.183.069.384.221.547.2,1.237-.168,1.168-1.21,1.816-1.761.5-.43,1.322-.615,1.9-1.007.226-.156.366-.69.213-.853-1.138-1.22,1.053-2.138.47-3.151-.659-1.146.054-2.028.763-2.663,1.193-1.069-.877-2.216.471-3.2s.289-2.547.947-3.523c.771-1.145,0-2.154.371-3.211a2.059,2.059,0,0,0-1.152-2.5c.184-.6.991-1.02.635-1.793-.546-1.185-1.417-2.388-.1-3.646a.8.8,0,0,0-.05-.881c-1.255-1.568.069-3.513-1.2-5.079a.773.773,0,0,1,.013-.875c1.168-.974.139-2.143.523-3.17.183-.608.9-1.006.649-1.8-.518-1.636.387-3.392-.379-5.021-.775-1.649.047-3.53-1.237-5.087.681-.817.674-1.424-.617-1.9-2.794-1.028-5.532-2.158-8.309-3.219-.71-.272-1.7-.783-2.178-.584a15.143,15.143,0,0,0-2.74,1.615c-.847.575-1.132,1.681-1.665,2.553-1.889.115-3.1-.931-4.561-1.407-.445-.144-.681-.711-1-1.089a3.2,3.2,0,0,0-2.672-1.133c-.113,0-.225.007-.343.018-1.535.162-3.135-.2-4.621.5a2.53,2.53,0,0,1-1.66-.1,3.592,3.592,0,0,0-4.227.738,3.73,3.73,0,0,1-4.328.364c-1.584-.745-3.3-1.315-4.923-1.952-1.2.333-2.36.673-3.535.965-.556.134-1.372.423-1.689.233-1.844-1.107-3.463-.178-5.182.164-.5.1-1.5-.357-1.621-.213-1.874,2.276-3.91,1.262-6.307.583-1.67-.473-3.746.02-5.652-.1-1.039-.064-2.363.625-2.427-.949-1.493-.315-2.583-1.729-4.451-1.032-.915.342-1.521-.291-2.229-.533a8.692,8.692,0,0,0-2.83-.38c-1.979-.03-3.93-.636-4.421-2.589a1.875,1.875,0,0,0-1.339-1.488c-1.324-.44-2.584-1.008-3.882-1.493-1.11-.415-2.207-.768-2.476-1.934-.05-.216-.981-.377-1.524-.423-.56-.049-1.182.192-1.708.092-1.311-.257-2.339-1.374-3.937-.777-1.267.476-2.013-.9-3.389-.585a9.169,9.169,0,0,1-3.958.186c-1.4-.34-2.332.239-3.47.447s-2.315-.448-3.476.15c-.157.08-.967-.449-1.279-.806-1.417-1.613-2-1.849-3.821-1.394a5.92,5.92,0,0,1-3.456.226c-.157-.051-.551.37-.834.57-1.358-.963-1.676-2.079-.7-3.339.65-.842-.131-1.512-.323-2.255-.1-.371-.348-.389-.859-.177a2.242,2.242,0,0,1-1.116.19c-3.626-.569-3.766-.618-6.385.844-.485.271-.872.711-1.407.49a1.486,1.486,0,0,0-.392-.181,1.467,1.467,0,0,0-1.819.992,7.434,7.434,0,0,1-2.984,2.677c-.738-.153-1.263-.783-2.2-.513a28.79,28.79,0,0,1-4.568,1.113c-1.254.144-2.614-.319-3.874-.186-.871.093-2.056.116-2.556,1.012a21.969,21.969,0,0,1-2.281.06,2.022,2.022,0,0,1-.531-.124,7.671,7.671,0,0,0-2.757-.372l-.748-.432a27.532,27.532,0,0,0-3.82-1.611,34.19,34.19,0,0,0-3.671-1.17c.02.161.032.324.056.484.048.329.071.662.091,1-.136.007-.269.007-.4.007-1.377.009-2.72.252-3.974-.46a1.279,1.279,0,0,0-1.027.234,15.382,15.382,0,0,0-1.623,2.648,2.4,2.4,0,0,1-2.373,1.244,13.1,13.1,0,0,0-4.609.558c-.119.04-.56-.266-.635-.465a1.476,1.476,0,0,0-1.7-1.046,5.893,5.893,0,0,1-2.3.053,2.051,2.051,0,0,0-.716-.013,3.432,3.432,0,0,0-.492.1,1.612,1.612,0,0,1-.455-.1c-1.191-.421-1.953.122-2.882.354l-.008.017c-.937-.34-1.842-.742-2.778-1.085a3.793,3.793,0,0,0-3.2.769c-.629.85-1.038,1.78-2.5,1.88-.249,1.146-2,.921-2.566,1.806-.16.251-.653.625-.82.575-1.928-.585-3.561.23-5.174.754-2.713.877-5.325,1.387-8.006-.019-.084-.044-.542.373-.826.572-.895-.362-1.726-.844-2.833-.34a4.378,4.378,0,0,1-3.987-.1c-1.211-.606-2.633-.945-3.838-1.558a8.025,8.025,0,0,0-3.974-.469c-1.72.014-3.583.179-5.056-.842-1.65-1.143-3.874.123-5.678-1.034-1.564-1-3.631-1.5-5.752-2.33-1.323.4-2.916.767-4.359,1.365-1.14.472-2.343.211-3.514.265a4.235,4.235,0,0,0-1.128.188,1.708,1.708,0,0,1-1.333-.677c-.268-1.251-1.657-1.312-2.629-1.824a4.862,4.862,0,0,0-4.562-.292,1.89,1.89,0,0,1-.854.09c-.28-.015-.57-.04-.838-.04-1.638.029-1.709.082-1.384,1.783.087.448.22.616-.413.641-1.047.041-1.81-.836-2.931-.686a4.69,4.69,0,0,0-4.535-.535,6.1,6.1,0,0,0-4.949-.561,4.52,4.52,0,0,0-4.186-.661c-.938.291-1.363-.374-2.028-.6-1.413-.476-1.094,1.067-2.03,1.154-.487.046-1.175.223-1.444.037-.072-.05-.145-.09-.218-.135-.011-.024-.02-.048-.032-.072l-.053.019c-2.075-1.217-4.321-.374-6.192.13-.035.01-.071.022-.105.031-.511-.77-1.434-.907-2.233-1.252-1.644-.715-1.663-.686-2.728.679-.791,1.016-.821,1.071-2.289.612a3.59,3.59,0,0,0-2.284-.186c-3.862,1.112-7.752,2.164-11.637,3.223-.837.229-.88.188-1.826-.835-1.423-1.542-2.05-1.749-3.905-1.267a12.931,12.931,0,0,0-2.306.672,1.933,1.933,0,0,0-.9,1.1c-.159.517.719.916,1.8.816.4-.036.768-.245,1.167-.29.432-.048,1.5.739,1.292.884a2.093,2.093,0,0,1-.851.433,23.534,23.534,0,0,1-4.01.337,7.856,7.856,0,0,1-2.773-.874c-1.832-.858-3.614-1.41-5.7-.474-.389.175-1.125-.23-1.663-.163a10.059,10.059,0,0,1-2.878.079,7.828,7.828,0,0,0-3.453.887,2.175,2.175,0,0,0-.565.342,4.228,4.228,0,0,0-1.7-.513,7.366,7.366,0,0,1-5.286-2.928c-.414-.567-.781-1.232-1.467-1.033-3.433.987-6.892-1.039-10.287.126a.913.913,0,0,1-.656-.193c-1.481-1.276-1.838.036-2.679.625a6.063,6.063,0,0,1-2.228.362c-1.787-.39-3.5-1.319-5.457-.49-1.652-1.353-3.58-.7-5.457-.5a17.5,17.5,0,0,1-2.839.139c-.265-.016-.479-.578-.715-.889-.254-.32-.53-.928-.759-.917-1.713.08-3.417.283-4.95.431-.737,1.533.015,2.687.2,3.866.085.543.2,1.083.325,1.622a5.724,5.724,0,0,0-2.906.41c-1.286.667-2.972.619-4.095,1.814-.576.609-2.457,1.294-2.879-.6-1.6,1.058-2.948-.61-4.539-.259-.886.195-1.944-.1-2.819.112a15.9,15.9,0,0,0-4.972,1.648c-1,.677-1.532.806-2.477.322-1.073-.55-1.779-.423-2.366.554-.257.429-.952.249-1.574.15a3.389,3.389,0,0,0-3.138.925c-1.279-.337-2.314-1.375-3.918-.778-1.236.457-2.1-1.126-3.341-.522-1.511.739-2.521-.525-3.954-.508a23.465,23.465,0,0,0-6.875,1.3,4.238,4.238,0,0,1-3.414-.2c-1.053-.517-2.3.634-3.388-.227-.893-.71-1.922.1-2.812-.061a21.576,21.576,0,0,1-2.775-1.016,1.783,1.783,0,0,0-1.116.044c-2.056.936-3.874.412-5.643-.515-1.22-.639-2.216-.7-2.8.6a.7.7,0,0,1-.549.151c-1.825-.944-3.332.6-5.15.386-.569-.067-1.151-.119-1.738-.143-1-.557-2-1.121-2.931-1.751a4.2,4.2,0,0,0-3.553-.377,1.387,1.387,0,0,1-1.749-.734,4.62,4.62,0,0,1-.282-1.211c-.171-.892-.543-1.454-1.941-1.306a33.924,33.924,0,0,0-6.352,1.935c-1.5.558-3.705,1.029-4.994.532a9.2,9.2,0,0,0-4.357-.249,4.5,4.5,0,0,1-2.136-.078c-2-1.25-3.982-.3-5.835.016-2.49.427-2.43.585-3.317.41-1.383-.272-3.01-.928-4.146-.589-3.046.909-5.84-1.263-8.816-.168a3.641,3.641,0,0,1-2.03-.409c-1.3-.513-3.041-.066-4.052-1.19-1.139.359-2.615-.1-3.486.913s-1.752,2.031-2.669,3.026a6.07,6.07,0,0,1-1.054.7c-1.536-1.911-3.966-1.577-6.216-1.828-.23-.809-.791-1.149-2.227-1.095-1.167.044-2.471-1.342-3.31.483a1.8,1.8,0,0,1-1.369.227c-1.264-.886-2.617-.722-4.148-.707a19.3,19.3,0,0,1-4.694-1.031c-.453-.113-.887-.512-1.286-.477-1.5.13-2.983.547-4.472.547-1.369,0-2.73-.507-4.112-.582-1.913-.1-3.738.964-5.778.139-2.175-.881-4.387.489-6.5.232-1.347-.164-2.472-1.151-3.3.527a1.871,1.871,0,0,1-1.41.18c-.888-.356-1.646-.921-2.5-1.351-1.5-.757-2.086-.7-3.084.306-.473.474-.835,1.015-1.329,1.47a2.12,2.12,0,0,1-.985.4c-.113.018-.408-.237-.461-.4-.253-.766-.167-1.732-.731-2.274-.965-.928-2.339-.13-3.51-.009a4.3,4.3,0,0,1-2.777-.417c-.962-.537-1.713-1.5-3.217-1.25-1.393.236-2.695-1.763-3.916-.461a5.638,5.638,0,0,1-3.779,1.552c-1.988.266-3.972.552-5.957.832a4.894,4.894,0,0,0-2.569.955,6.373,6.373,0,0,1-3.1,1.245c-.134.02-.27.036-.4.05a16.573,16.573,0,0,1-3.377-.054c-1.108-.112-2.075-1.08-3.105-1.66-.147.158-.42.313-.42.474-.041,1.195.07,2.216-2.152,2.39-.3.024-.609.06-.909.088-1.212-.518-2.719-.491-3.709-1.089a8.152,8.152,0,0,0-7.041-1,4.329,4.329,0,0,1-4.115-.909,4.276,4.276,0,0,0-3.5-.567,40.431,40.431,0,0,1-7.566.984c-2.4-.066-4.765-.952-7.215-.151-1.313-.839-2.5-1.095-3.288.46-1.778.078-3.333.45-4.365,1.744l-2.851-2c-1.606.224-2.61.324-3.588.512a4.547,4.547,0,0,0-1.133.5.391.391,0,0,0-.24-.123,10.359,10.359,0,0,0-2.978.266,6.843,6.843,0,0,1-6.227-1.228c-.968-.7-1.938,0-2.906-.031-.046-.207,0-.5-.146-.6-1.621-1.089-4.052.674-5.55-.989-.085-.1-.466-.058-.7-.026-2.273.31-4.7.333-6.776,1.023-2.63.872-4.786-1.029-7.252-.332a7.418,7.418,0,0,1-.874.185,5.265,5.265,0,0,1-.752.066,3.886,3.886,0,0,1-2.569-.888,4.188,4.188,0,0,0-3.411-.848c-.625.081-1.256.209-1.889.337-1.145-.271-2.167-1.219-3.63-.663a7.359,7.359,0,0,1-2.2.372c-.08-.045-.161-.084-.241-.133a8.993,8.993,0,0,0-1.969.21c-1.773-1.418-3.728-.328-5.593-.191-1.5.109-2.973.536-4.461.549-.868.008-1.923-.925-2.578-.735-1.881.546-3.4-.871-4.842-.532-1.94.453-3.258-.508-4.87-.7-1.865-.22-3.532-1-5.617-.462-2.035.52-4.246,1.006-6.352-.237-.42-.248-1.439.161-2.183.26l-4.707.66c-1.282-.569-2.576-1.242-4.094-.645-1.818.719-3.228-.537-4.85-.512-.556.008-1.059.7-1.654.982s-1.707.758-1.852.627c-1.109-1.014-2.86-.48-4-1.15a4.37,4.37,0,0,0-4.142.068c-4.841,2.059-4.812,2.1-9.288,1.117a25.182,25.182,0,0,0-3.361-.728c-1.644-.133-3.2.925-5.014-.053-1.836-.989-3.834.187-5.763.332-2.246.17-4.455.619-6.692.887a3.85,3.85,0,0,1-2.077-.1c-1.7-1.093-3.339-.175-4.994-.126a15.767,15.767,0,0,0-5.493-1.693c-3.321.223-6.61,1.695-9.977.168a41.179,41.179,0,0,0-5.148.766c-2.038.56-3.529-1.331-5.582-.523-1.763.693-3.242,0-4.715-.877-1.713-1.017-2.36-.925-3.527.453-1.542,1.822-3.185,3.014-5.982,1.5a1.163,1.163,0,0,0-.523-.065c-.68,1.931-3.668.912-4.686,2.367-.095.134.068.383.111.582-.772,1.69-.905,1.859-2.662,1.043a5.567,5.567,0,0,0-3.3-.207,25.673,25.673,0,0,0-4.8-1.78c-2.252.6-5.172-.137-6.6,2.107-1.2.047-2.445.875-3.558.12-1.365-.928-3.449-.211-4.647-1.487a2.858,2.858,0,0,0-1.868-.83c-2.158.114-4.342.982-6.353-.392-2.231.313-4.5.519-6.691.969-2.219.455-4.044-1.474-6.4-.433a5.125,5.125,0,0,1-3.526.163c-1.486-.728-3.433-.23-4.682-1.425a3.482,3.482,0,0,0-3.359-.787,3.977,3.977,0,0,1-2.051-.233c-1.107-.405-2.092-1.3-3.19-1.38-1.783-.128-2.165,1.446-3.015,2.356-1.311,1.4-3.193,2.73-1.871,4.815a3.35,3.35,0,0,0-.688,3.892,2.576,2.576,0,0,0-.809,3.292c.355.736-.461,1.071-.734,1.594-.584,1.108,1.307.857,1.414,1.593.056.384.273.925.045,1.136-1.83,1.695-.72,3.563-.071,5.106a7.723,7.723,0,0,0,3.715,4.048c1.637.8,3.245,1.614,4.594,2.29-.991.211-1.4.678-1.3,1.834.084.951-1.646,2.049.693,2.689.254.07.522.925.322,1.111-1.051,1.008-.875,2.061-.809,3.245-.071.058-.137.12-.21.176a1.144,1.144,0,0,0-.277.232v0a1.134,1.134,0,0,0,.118,1.6c-.252.668-.579,1.337-.819,2-.134.372-.629.734-.575,1.061a29.658,29.658,0,0,1,.8,3.634c.035,1.117-.579,2.24-.64,3.369-.086,1.563,1.312,3.026.313,4.71-1.015,1.709.557,3.4.473,5.049-.114.123-.233.245-.363.367a2.605,2.605,0,0,0-.842,1.567,5.822,5.822,0,0,1-3.588,4.158c-.694.325-1.507.614-1.266,1.154,1.21,2.7-1.273,5.417.154,8.092.064.125-.082.4-.235.515-1.563,1.167.044,1.445.766,2.107.425.39.313,1.156.444,1.753-.475,1.4-1.616,2.751-.6,4.291-1.659,1.3-.852,2.817-.61,4.292a8.818,8.818,0,0,1,.169,2.234c-.019.208-.694.363-1.087.563s-1.138.417-1.125.6c.1,1.348.348,2.688.511,3.893,1.88.576,3.294-.015,4.739-.161,1.749-.176,3.472-.515,5.222-.691.083-.009.177-.012.266-.018a7.705,7.705,0,0,1,.174,3.37c-.117.9-1.324,1.717-2.036,2.572.205.116.408.331.613.331,1.52.006,2.822-.11,3.1,1.7a55.148,55.148,0,0,0,2.1,8.464c.366,1.148-.561,1.806-.811,2.7,2.439,1.173,2.8,2.625,1.265,4.587-.4.514,2.379.807.827,2.056-.921.741-.014,1.845-.9,2.795-.9.97-.4,2.289.834,3.2.472.348,1.414.509.571,1.254-.34.3-.512.735-.875,1.01-2.378,1.8-2.35,3.918-1.07,6.534l-3.971,3.812c.323,1.3.47,2.108.738,2.914s2.779,3,4.026,3.607c-.017.774.812,1.5.063,2.341a2.055,2.055,0,0,0-.6,1.614,11.523,11.523,0,0,1,.678,3.943c-2.3,1.915-3.842,4.272-5.957,6.283a2.309,2.309,0,0,0-.46,2.8c.243.73-.15,1.14-.9,1.376a8.547,8.547,0,0,1-1.484.221c-1.091.133-1.781.426-1.6,1.527a20.276,20.276,0,0,0,2.37,5c.684,1.178,1.258,2.912.652,3.927-.763,1.277-.413,2.277-.306,3.428.053.565.259,1.317-.094,1.678-1.533,1.572-.37,3.134.018,4.59.114.446.216.784.3,1.055a3.2,3.2,0,0,0,.211,1.513l-.012.042c-.334,1.087-1.138,2.365-.722,3.261,1.113,2.4-1.545,4.593-.206,6.934.228.391-.2,1.1-.5,1.593-.629,1.025-.08,2.39-1.458,3.187.439.9-.132,2.051,1.119,2.742.09.052.177.1.267.152a3.419,3.419,0,0,0,.185,2.085c.712,1.647,1.381,3.44-.149,5.187-.3.349.234,1.17.384,1.774l.95,3.825c-.692,1.057-1.52,2.129-.721,3.353.963,1.466-.6,2.647-.535,3.968.013.234.255.452.538.675.086.49.326,1.118.409,1.593A18.688,18.688,0,0,1-10,382.148c-.064.346-.094.7-.164,1.032a2.463,2.463,0,0,1-.8.965c-.123.094-.124.416-.058.691a2.832,2.832,0,0,0,.645,2.61c2.734,3.9,2.79,3.877,1.643,7.553a14.379,14.379,0,0,0-.847,2.759,3.829,3.829,0,0,0,.287,1.517c-.729,1.735-1.339,3.484-.385,5.413a1.59,1.59,0,0,1-.379,2.209c-.536.394-.564.65-.037.881,2.182.953,1.586,2.793,1.958,4.269.155.622-1.105,1.119-1.06,2.086.062,1.347.944,2.674,1.087,4.02-.87,1.21-1.806,3.433-1.713,4.122.225,1.708,1.09,3.4,1.224,5.107a1.931,1.931,0,0,1-.4-.134c-.425-.217-.828-.459-1.24-.69-.191.336-.6.7-.536,1,.376,1.8.506,3.643,1.916,5.2a9.347,9.347,0,0,0,.59,1.83,1.945,1.945,0,0,1-.1,1.693c-1.293,1-1.02,2.588-1.924,3.554-1.67,1.786-2.2,3.516-1.227,5.538.644,1.34-.077,2.333-1.113,3.237a2.407,2.407,0,0,0-.7,2.753c.507,1.969,1.29,3.98,1.207,5.952-.085,1.892-1.168,3.748-.185,5.676-1.034,1.035-1.344,1.967.564,2.589a3.752,3.752,0,0,0,2.264,3.5.957.957,0,0,1,.125,1.106c-.891.881-1.084,1.387.315,2.216,1.131.669.742,1.277-.848,2.106-.387.2-1.077.421-1.086.645a5.362,5.362,0,0,0,.327,2.343c.842,1.932.093,3.485-1.5,4.9-.86.761,0,1.524-.037,2.285-.249.035-.605,0-.727.116-1.333,1.277.827,3.184-1.213,4.364-.117.069-.07.37-.03.552.379,1.792.409,3.7,1.253,5.324,1.067,2.068-1.259,3.764-.408,5.7a2.5,2.5,0,0,1-.781,3.3,2.51,2.51,0,0,0-1.039,2.682c.416,2.063,1.866,4.2-.106,6.257-.041,2.216,1.7,4.6,4.378,5.984l.521,2.39c-.392.2-1.147.437-1.123.6.316,2.18.281,4.491,1.259,6.483,1.121,2.284-.848,4.2-.3,6.31a13.422,13.422,0,0,0,.706,2.963c.707,1.348-1.037,2.159-.85,3.306.041.256.1.512.149.768-2.043,1.256-3.216,2.864-2.41,5.277-.774.733-1.11,1.214.257,1.987a22.485,22.485,0,0,1,2.643,1.8,10,10,0,0,0,.528,2.4,2.932,2.932,0,0,1-.879,3.3c.977,1.433-1.3,2.312-.833,3.9.7,2.382,2.354,4.932.237,7.436.122.561.194,1.14.281,1.712-.089.409-.163.823-.24,1.221-.184.958-.63,1.158-1.529,1.388-.321.082-.521.466-.777.712.191.1.388.3.571.289a6,6,0,0,1,2.729.367c-.4.963-1.346,1.832-.792,3,.645,1.358,1.6,3.081-.3,4.481a13.464,13.464,0,0,0,.7,3.531c.652,1.366-1.069,2.151-.87,3.309.207,1.2.509,2.383.768,3.578a10.382,10.382,0,0,0,.7,2.961c.766,1.369-1.173,2.106-.884,3.312.474,1.977.878,3.973,1.311,5.96.3,1.394.654,2.783.886,4.182.091.551.187,1.34-.192,1.647-1.151.931-.638,2.2-1.251,3.278s.224,2.671.324,4.043a4.994,4.994,0,0,1-.324,1.656c-.65,2.252-.609,2.246.753,3.662.714.739,1.339,1.543,2.132,2.222.963.83,2.584,1.047,2.86,2.573.128.706,1.671.676,2.458.045.628-.5.82-1.352,2.106-.562,1.108.68,2.927.127,3.934,1.2q1.255-.178,2.512-.361a4.168,4.168,0,0,0,1,.037c1.056-.063,2.287,1.167,2.986-.5a.294.294,0,0,1,.139-.1q.542-.069,1.085-.133h.012c1.174.78,2.4.6,3.784.559a17.664,17.664,0,0,1,4.289.84c.414.1.818.447,1.181.407,1.356-.148,2.686-.553,4.037-.585,1.242-.029,2.491.4,3.747.444,1.739.059,3.359-.948,5.234-.24,2,.755,3.966-.532,5.893-.341,1.225.121,2.28,1,2.979-.544.08-.176.939-.316,1.273-.19.819.3,1.524.8,2.309,1.175,1.382.655,1.908.587,2.786-.341.414-.437.726-.937,1.159-1.359a1.9,1.9,0,0,1,.881-.379c.1-.021.377.2.431.349.253.689.2,1.566.733,2.046.9.823,2.124.071,3.182-.062a3.907,3.907,0,0,1,2.532.323c.889.467,1.6,1.327,2.962,1.074,1.257-.241,2.5,1.543,3.566.339a5.045,5.045,0,0,1,3.378-1.484c1.794-.275,3.584-.579,5.375-.873a4.365,4.365,0,0,0,2.3-.918c1.667-1.392,4.025-1.437,6.2-1.263,1.007.081,1.915.938,2.868,1.444.127-.146.365-.292.365-.439,0-1.084-.132-2.015,1.878-2.214a90.708,90.708,0,0,0,9.4-1.524c1.275-.266,2.008.393,3.007.569a3.592,3.592,0,0,1,2.025-1.467,34.4,34.4,0,0,1,4.041.974,3.848,3.848,0,0,0,3.877-.605,2.041,2.041,0,0,1,.543.211,2.681,2.681,0,0,0,2.236.153c.02.317.016.636.029.955.009.23.146.343.428.362a.582.582,0,0,0,.156,0,6.1,6.1,0,0,1,1.245-.007c.364,0,.729.034,1.094.053a.562.562,0,0,0,.116,0,15.489,15.489,0,0,1,1.6-.016,1.664,1.664,0,0,1,.2.006l1.21.061a.582.582,0,0,0,.156,0,3.306,3.306,0,0,1,.855.007c.247.008.493.008.739.008h.2a8.711,8.711,0,0,1,1.322.028,3.069,3.069,0,0,0,.46.023c.185,0,.371-.006.554,0,.561.02,1.12-.027,1.681.011a3,3,0,0,0,.621-.048,2.015,2.015,0,0,1,.3-.019l2.389,1.584c1.449-.238,2.357-.347,3.237-.537a11.227,11.227,0,0,0,3.345-2.215c.142-.029.283-.057.427-.1a4.012,4.012,0,0,0,3.716.634c.842-.248,1.209.349,1.8.556,1.25.439.993-.938,1.827-1.006.435-.035,1.051-.185,1.286-.017a4.862,4.862,0,0,0,4.095.555,2.112,2.112,0,0,0,.71-.105c1.853-.712,3.262.962,5.032.553,1.346,1.542,3.29-.068,5.042.645,1.539.628,3.483,1.443,5.581.814a3.281,3.281,0,0,1,1.778.474c1.149.515,2.108,1.433,3.668.84s2.682,1.175,4.442.458a16.087,16.087,0,0,1,3.922-.539c1.667,1.3,3.424.251,5.122.088,1.354-.128,2.678-.546,4.027-.587.786-.025,1.773.8,2.361.614,1.688-.532,3.108.722,4.406.386,1.741-.45,2.96.394,4.438.534s2.835.667,4.4.453a5.324,5.324,0,0,0,.708-.146c.317-.089.64-.173.964-.253a6.327,6.327,0,0,1,4.8.341c.388.217,1.3-.172,1.97-.281l4.247-.691c1.178.486,2.372,1.073,3.731.5,1.626-.689,2.944.423,4.412.367.5-.019.94-.652,1.47-.923s1.525-.722,1.659-.605c1.042.9,2.609.377,3.667.961a3.956,3.956,0,0,0,3.754-.145c4.328-1.961,4.295-2,8.39-1.195a23.184,23.184,0,0,0,3.07.6c1.495.086,2.869-.9,4.547-.053,1.7.86,3.472-.246,5.216-.416,2.031-.2,4.02-.651,6.04-.938a3.51,3.51,0,0,1,1.888.047c1.566.958,3.03.092,4.528.015a14.432,14.432,0,0,0,5.034,1.429c3-.269,5.944-1.669,9.04-.352a37.393,37.393,0,0,0,4.644-.8c1.831-.549,3.241,1.136,5.078.363,1.577-.668,2.939-.066,4.3.7,1.586.888,2.169.792,3.184-.481,1.341-1.682,2.8-2.8,5.376-1.483a1.041,1.041,0,0,0,.476.049c.558-1.765,3.3-.9,4.176-2.24.081-.128-.074-.348-.119-.526.148-.354.268-.627.385-.842.016.124.032.247.053.368.136.8.457,1.3,1.706,1.185a22.235,22.235,0,0,0,4.256-1.149,18.708,18.708,0,0,0,3.4,1.079c1.9-.551,4.362-.051,5.675-1.686.228-.017.457-.034.693-.045a4,4,0,0,1,1.9.093c1.479.956,2.978.525,4.4.208a2.106,2.106,0,0,1,.733.462,2.621,2.621,0,0,0,1.72.716c1.951-.146,3.906-.978,5.772.227,1.7-.277,3.429-.493,5.114-.824a4.9,4.9,0,0,0,1.944-.249h.019a9.808,9.808,0,0,1,1.728.368l.053.021c1.151.471,2.705.091,3.587,1.1,1.023-.306,2.321.123,3.12-.774.106-.119.217-.236.324-.355,1.193.238,2.507.091,3.449.944a3.176,3.176,0,0,0,3.07.647,3.615,3.615,0,0,1,1.866.17c1.016.345,1.937,1.139,2.936,1.188,1.621.08,1.916-1.356,2.659-2.2a12.358,12.358,0,0,0,1.712-2.059q.952-.114,1.9-.231c.036.18-.011.438.121.529,1.427.984,3.52-.487,4.993.9.327.307,1.7-.092,2.59-.18,1.527-.151,3.093-.69,4.44.48A1.637,1.637,0,0,0,386.41,622c1.181-1.827,3.455-1.477,5.36-1.742,1.582-.22,2.975-.416,4.033-1.6a1.327,1.327,0,0,1,.325-.165h0a1.344,1.344,0,0,1,1.712.821c.1.323.311.862.54.885,3.361.349,6.39,2.376,10.047,1.268a2.5,2.5,0,0,1,2.5.308c.442.394.731.418,1,.038,1.111-1.572,3.185-1.113,4.861-1.362.707-.107,1.247.816,2.346.8,2.391-.046,4.759-1.556,7.185-.146,2.441-.183,4.88-.373,7.322-.532.173-.012.368.2.553.306a1.911,1.911,0,0,1-.21.416c-.251.3-.53.592-.8.891.379.143.786.445,1.129.4,2.376-.289,4.805-.327,6.744-1.875a2.687,2.687,0,0,1,3.1.2c1.1,1.019,2.968.816,4.067,1.5a7.244,7.244,0,0,0,6.252.97,3.836,3.836,0,0,1,3.648.853,3.8,3.8,0,0,0,3.108.545,36.015,36.015,0,0,1,6.754-.8c2.136.086,4.224.9,6.422.214,1.153.763,2.2,1,2.935-.373,1.626-.047,3.054-.373,4-1.593a1.575,1.575,0,0,1,1.254-.075c.985.658,1.556.807,2.512-.2.775-.812,1.458-.521,2.373.646.225.285.462.787.715.8a9.338,9.338,0,0,0,2.657-.2,6.059,6.059,0,0,1,5.523,1.162c.849.635,1.725.019,2.586.058.036.182-.012.439.12.53,1.429.987,3.617-.556,4.925.943.075.086.416.056.624.03a34.571,34.571,0,0,0,6.051-.836c2.356-.747,4.244.967,6.451.377a3.886,3.886,0,0,1,3.725.613,3.712,3.712,0,0,0,3.022.8c2.341-.273,4.784-1.3,7.081.165a9.011,9.011,0,0,0,6.836-3.1l2.713-.344c.22.288.473.839.656.824,2.471-.2,5.091-.14,7.356-.823,2.6-.784,4.749.674,7.139.3a22.577,22.577,0,0,0,3.365-.471c1.532-.494,2.431.783,3.729.665,1.587-.146,3.153-.445,4.741-.574,1.539-.123,3.223-.955,4.586-.223,1.62.869,3.064.321,4.532.122a4.611,4.611,0,0,1,3.721.68c1.636-.687,2.6.98,4.419.663,2.706-.472,5.616-1.642,8.422-.068a24.821,24.821,0,0,0,4.707-.658c1.96-.669,3.145,1.181,5.133.6,1.541-.447,3.5-1.118,5.062.284a23.007,23.007,0,0,0,4.011-.455c1.555-.454,2.42.808,3.733.679,1.36-.133,2.708-.335,4.061-.508a17.5,17.5,0,0,0,3.363-.469c1.56-.537,2.367.883,3.736.689,2.25-.317,4.51-.582,6.765-.869,1.58-.2,3.154-.436,4.742-.584a3.26,3.26,0,0,1,1.861.162c1.04.849,2.478.5,3.695.956s3.027-.127,4.582-.179a8.361,8.361,0,0,1,1.869.26c2.542.507,2.533.474,4.154-.5.628-.377,1.278-.731,1.9-1.113a6.514,6.514,0,0,0,1.584.072c.25-.021.528.769.884.828.654.108.25-1.041,1.083-.835a2.934,2.934,0,0,0,1.923.015c1.395-.531,2.857-.947,4.255-1.474a3.573,3.573,0,0,1,2.891-.1c.29.122.924-.278,1.4-.439.44,1.066,1.4.24,2.1.356,1.1.177,2.369.645,3.287.377,1.324-.389,2.589-.125,3.814-.324a4.591,4.591,0,0,1,2.878.01,16.889,16.889,0,0,0,4.73.168,4.329,4.329,0,0,1,.944-.175c1.118.137,1.974,1.038,3.357.578.464-.154,1.253.277,1.875.476,2.543.816,5.1,1.613,7.609,2.484a3.317,3.317,0,0,0,2.863-.007,2.939,2.939,0,0,1,2.85-.069c.574.286,1.738.348,1.811.646.332,1.338,2.148,1.607,2.74,2.709.184.344.474.8.85.907a14.371,14.371,0,0,1,3.281,1.671,17.129,17.129,0,0,0,3.771,1.272,4.114,4.114,0,0,0,2.387.385c.872-.2,1.881.5,2.837-.1.649-.4,1.269-.017,1.9.14a13.28,13.28,0,0,0,1.9.352c1.756.171,3.567-.047,5.243.681a1.232,1.232,0,0,0,.136.052,1.1,1.1,0,0,0,1.363-.731c.169-.5.841-.923.389-1.52,1.078-.915,1.81-2.391,3.965-1.561a.785.785,0,0,0,.469.047c2.511-.872,5.014-1.759,7.519-2.642.2-.853.7-.966,1.7-.618.5.18,1.184-.177,1.9,0a3.371,3.371,0,0,0,.5.086,2.253,2.253,0,0,0,1.666-.449,2.782,2.782,0,0,0,.67-.748c.444-.711.693-.832,1.559-.523.992.356,1.94-.262,2.928.2.4.184,1.237-.323,1.866-.352s1.287.253,1.9.2a12.4,12.4,0,0,1,2.391-.373c1.759.122,3.6-.515,5.266.481a1.18,1.18,0,0,0,.89-.3c.407-1.575,1.621-1.141,3.054-1.114,1.2.023,2.625.654,3.843-.266.315-.239.942.021,1.1.517s.631.6,1.169.46c.489-.124,1-.5,1.419-.438a28.024,28.024,0,0,0,2.882.733c.919.04,1.679-.77,2.884-.338.812.291,1.89-.1,2.85.329a15.084,15.084,0,0,0,3.341,1.077,9.023,9.023,0,0,0,3.312.114,3.989,3.989,0,0,1,2.885.03,2.5,2.5,0,0,0,2.382.051,3.735,3.735,0,0,1,3.345-.1,10.377,10.377,0,0,0,3.341,1.042c1.241.069,2.566.577,3.8-.02a5.027,5.027,0,0,1,3.351-.268,5.7,5.7,0,0,0,2.819-.083,3.739,3.739,0,0,1,2.887.2c1.122.446,1.98.379,2.329-.7.138-.411.253-.3.7-.259a17.843,17.843,0,0,0,4.288.169c1.384,1.016,2.9-.889,4.3.12.076.055.32,0,.464-.053.127-.04.256-.078.386-.116a9.69,9.69,0,0,0,1.928-.688c.014-.008.03-.013.043-.021,1.01-.58,1.947.193,2.878-.055,1.246-.331,2.395-1.177,3.814-.386,1.477-.921,2.878-.355,4.3.108.106.035.395-.236.557-.391.1-.1.095-.289.21-.37.242-.171.622-.469.789-.414,1.818.608,3.3-.181,4.759-.767a3.807,3.807,0,0,1,3.346.066,2.726,2.726,0,0,0,2.39-.184,2.929,2.929,0,0,0,3.5.614c.713-.3,1.091-.089,1.6.436a2.877,2.877,0,0,0,3.521.531,12.952,12.952,0,0,1,1.409-.487l4.269,1.246c1.233-1.085,2.926.125,4.238-.542a1.936,1.936,0,0,1,1.881.1c1.171.645,2.553.163,3.811.537.848.252,1.688-.79,2.819-.32.848.355,1.865-.159,2.855.255.529.22,1.121-.38,1.346-.955.083-.214.421-.363.642-.542,1.513-.36,2.718,1.2,4.295.447l4.305,1.394,3.817.234a2.983,2.983,0,0,1,2.863.039c2.662,1.119,5.9,1.326,8.056,3.247a5.339,5.339,0,0,1,3.344.451,14.617,14.617,0,0,0,2.876.9,16.679,16.679,0,0,1,3.366.443,10.455,10.455,0,0,0,3.315.307c1.435-.023,2.707-1.614,2.2-2.656-.561-1.141-1.692-2.29-1.617-3.286.126-1.661,2.282-2.985.784-4.748-.115-.136.149-.506.284-.749.842-1.507,1.665-2.962.283-4.619-.355-.427-.087-1.261.079-1.875a22.331,22.331,0,0,0,.884-2.307c.108-.747-1.09-1.394-.384-2.29.65-.823-1.045-1.471-.388-2.275.615-.75-.42-1.6.345-2.311a.362.362,0,0,0,.067-.372c-.519-1.022-1.039-2.043-1.606-3.048-.556-.983.617-2.052-.434-3.087-.732-.719-.828-1.834-1.5-2.611-.989-1.147-.313-2.349-.28-3.455a9.043,9.043,0,0,1,.751-3.033c.6-1.419.753-2.618-.284-3.845l-.013-.015a1.605,1.605,0,0,1,.148-2.269c.65-.761-.177-1.58.337-2.313s-.542-1.279-.477-1.9c.068-.654.627-1.267.812-1.926a2.266,2.266,0,0,0-.241-1.138c-.512-1.651-2.522-3.01-1.5-4.958-.354-.743-1.073-1.455-.293-2.29-.551-.994.19-1.809.554-2.682.1-.234.192-.579.052-.748a2.013,2.013,0,0,1,.125-2.689,2.656,2.656,0,0,0,.062-3.454c-.222-.286-.094-.749-.107-1.131a4.324,4.324,0,0,1,.013-1.522,21.5,21.5,0,0,1,1.13-2.307c.311-.635.86-1.283.838-1.914-.027-.751-.949-1.387-.35-2.318.221-.341-.249-1-.488-1.494a31.853,31.853,0,0,0-1.617-3.043c-.736-1.162-1.047-2.279-.085-3.445.432-.526-.111-.608-.535-.774-1.243-.485-1.152-1.6-1.681-2.421-.077-.12.529-.559.869-.806.406-.3.706-.579.343-1.025.157-.052.444-.1.451-.16.075-.707,1.824-1.659-.431-2.042.126-.211.188-.515.4-.615.6-.274,1.244-.447.845-1.185-.116-.215-.149-.676-.031-.722,1.347-.54,1.451-1.284.7-2.233a1.7,1.7,0,0,1-.049-2.276c.763-1.076.556-2.044-.842-2.741-1.416-.7-2.119-1.861-1.66-3.011.7-1.76.473-3.71,1.8-5.336.388-.477.148-.778-.64-1.284-.37-.238-.9-.411-1.09-.718-.607-.975-1.091-2-1.622-3-.362-.443-.121-.8.354-1,.969-.426,2.539-.5,1.52-1.92,1.4-1.57.688-3.058-.211-4.576-.737-1.24-1.347-2.528-2.022-3.791-.794-1.485-2.025-3.011.671-4.129.58-1.146,1.213-2.279,1.705-3.449a1.3,1.3,0,0,0-.267-1.121c-.728-.979.833-2.106-.408-3.1-.234-.184.252-.981.451-1.479.4-1,1.194-1.843.522-3.081-.477-.877.413-2.058-.546-3.031-.411-.411-.5-1.02-.839-1.493a2.3,2.3,0,0,1-.083-3.067,1.068,1.068,0,0,0,.088-1.112c-.62-.824-.329-1.528.079-2.311.385-.734,1.072-1.65.807-2.257-.54-1.238,1.479-1.181,1.251-1.861-.473-1.411.375-2.16,1.512-3.046a1.471,1.471,0,0,0,.314-2.251c-.182-.2-.38-.584-.265-.738.676-.908.49-2.2,1.86-2.8.357-.158.554-.355.574-.6a.078.078,0,0,1,.034,0,.447.447,0,0,0,.127-.073l.06-.041c.019-.01.019-.035.019-.045.1-.056.189-.1.279-.156a.165.165,0,0,0,.048-.043.521.521,0,0,1,.06-.072.192.192,0,0,1,.09-.048l.011-.008.011-.007a.133.133,0,0,1,.033-.049.233.233,0,0,1,.107-.049l.064-.014c.026-.038.057-.073.08-.111a.219.219,0,0,0,.038-.124.084.084,0,0,1,.022-.054.08.08,0,0,0,.017-.044.18.18,0,0,0-.01-.046.162.162,0,0,1,.011-.158.111.111,0,0,0,.006-.051.434.434,0,0,0,.007-.052.236.236,0,0,1,.022-.128.348.348,0,0,1,.14-.142.519.519,0,0,1,.2-.069l.1-.011a.234.234,0,0,0,.054-.179.376.376,0,0,1,0-.116.328.328,0,0,1,.023-.059c.3-.134.5-.308.385-.571a2.156,2.156,0,0,1,.148-1.973l.051-.024c.026-.013.056-.026.087-.039a.34.34,0,0,0,.076-.049v-.014a.046.046,0,0,1,.018-.013,1.315,1.315,0,0,1,.164-.055.166.166,0,0,0,.092-.049c.016-.03.082-.054.157-.078a.285.285,0,0,0,.065-.026.379.379,0,0,1,.07-.028.742.742,0,0,1,.1-.035c.069-.018.068-.04.054-.061a.192.192,0,0,0-.1-.021c-.043,0-.063-.007-.063-.016a.036.036,0,0,0-.019-.015c-.034-.014-.049-.028-.034-.045a.15.15,0,0,1,.064-.038.1.1,0,0,0,.054-.037.183.183,0,0,1,.1-.065c.045-.016.084-.033.125-.049l.017.006a.194.194,0,0,0,.058.012.067.067,0,0,0,.077-.037.112.112,0,0,0,.012-.062.313.313,0,0,0-.047-.122.574.574,0,0,1-.1-.224c-.009-.044-.04-.091-.009-.136a.149.149,0,0,1-.056-.095c-.015-.055-.032-.109-.047-.165.048-.089.1-.177.141-.268.507-1.151,1.007-2.053-.991-2.526C930.97,449.542,930.675,448.773,930.841,448.584Z"/></clipPath></defs><path class="cls-1" d="M87.969,80.119a8.624,8.624,0,0,0-1.844,2.872l-1.37,1.61L83.384,86.21l-1.1,1.288A9.974,9.974,0,0,0,78.3,90.766a1.482,1.482,0,0,1-1.172.668,3.562,3.562,0,0,0-1.72,1.312c-.274.322-.822.966-1.445.99l-.274.322a5.7,5.7,0,0,0-2.344,1.336c-.274.322-.274.322-.9.347-.274.322-.9.346-1.172.668A24.136,24.136,0,0,0,65.687,97.8a.427.427,0,0,1-.624.024,7.7,7.7,0,0,1-5.26.518,25.422,25.422,0,0,0-4.439-.448l-.349-.3c-.973-.273-2.294-.843-3.192-.5l-2.493.1-1.87.074a9.4,9.4,0,0,1-2.768.419l-1.246.049c-.973-.273-2.145.4-3.042.742-.274.322-.9.347-1.521.371l-1.87.073a3.6,3.6,0,0,1-1.945-.545l-.349-.3a9.693,9.693,0,0,0-3.192-.5l-.623.024c-.349-.3-.973-.273-1.322-.57l-.349-.3-1.746-1.487-1.048-.892-.349-.3c.124-1.561-1.2-2.131-2.52-2.7l-.7-.595c-.7-.595-1.671-.868-2.37-1.462A6.274,6.274,0,0,1,18.681,87.2a3.7,3.7,0,0,0-3.068-2.057l-.972-.273c-.623.025-.973-.273-1.671-.868A8.416,8.416,0,0,0,10.8,81.6c-.349-.3-.349-.3-.424-.917a3.559,3.559,0,0,0-1.547-2.428c-.349-.3-.7-.595-.973-.273a.951.951,0,0,0-.15-1.239c-.349-.3-.075-.619-.424-.916a.951.951,0,0,0-.151-1.239,9.709,9.709,0,0,0-1-3.072c-.151-1.238-1.2-2.131-1.348-3.369,0,0-.076-.619-.35-.3a2.456,2.456,0,0,1-.5-1.536,3.455,3.455,0,0,0-.3-2.477c-.076-.619-.076-.619-.151-1.238a2.456,2.456,0,0,0-.5-1.536h0a2.46,2.46,0,0,1-.5-1.536c-.35-.3-.425-.917-.774-1.214a5.918,5.918,0,0,1,.049-2.18c.2-.941.124-1.56.323-2.5-.075-.619.2-.941.124-1.56l.274-.322a2.148,2.148,0,0,0,.4-1.882l.274-.322a2.148,2.148,0,0,0,.4-1.882c-.15-1.239-.65-2.775-.8-4.013.274-.322-.075-.62.2-.942l.6-2.823c-.075-.619.2-.941.747-1.585.274-.322.2-.941.473-1.263l-.075-.619q.71-1.894,1.42-3.79l.548-.643.548-.644a3.1,3.1,0,0,1,.672-2.2c.274-.322.274-.322.2-.942a1.478,1.478,0,0,1,.473-1.263l1.919-2.253a1.478,1.478,0,0,0,.473-1.263c.473-1.263.672-2.2,1.145-3.467l.274-.322c.549-.644,1.446-.99,1.994-1.634a3.107,3.107,0,0,1,2.069-1.015,1.445,1.445,0,0,0,.9-.346l1.37-1.609c.2-.942,1.371-1.61,2.268-1.956A7.381,7.381,0,0,0,23.581,11.4a2.146,2.146,0,0,1,1.8-.692,2.148,2.148,0,0,0,1.795-.693,5.689,5.689,0,0,1,2.343-1.337l1.1-1.287c.9-.347,1.8-.693,1.994-1.634l-.349-.3A5.681,5.681,0,0,0,34.6,4.126c.274-.322.822-.966,1.446-.99.9-.347,1.446-.991,2.343-1.337l.274-.322,1.247-.049c.623-.024.9-.346,1.521-.37s.9-.347,1.52-.371l.973.273a2.456,2.456,0,0,0,1.6.248,3.6,3.6,0,0,1,1.945.546,2.944,2.944,0,0,0,1.671.868c.349.3.349.3.972.273a.44.44,0,0,0,.624-.025L52.6,2.8l.623-.025c.274-.321.9-.346,1.6.249a1.647,1.647,0,0,0,.972.273,3.6,3.6,0,0,1,1.945.545c.624-.024,1.322.571,1.945.546.35.3.624-.024.973.273.973.273,2.568.521,3.541.794a1.779,1.779,0,0,1,1.322.571l.7.594a5.359,5.359,0,0,1,2.02,1.165l1.048.893c.7.594,1.4,1.189,2.02,1.165.973.273,1.322.57,1.945.545a1.643,1.643,0,0,0,.973.273,3.667,3.667,0,0,0,2.294.844c.274-.322.624-.025.7.594l.075.62a1.912,1.912,0,0,0,.574,2.155c.7.595.774,1.214,1.2,2.131.075.619.774,1.214,1.123,1.511l1.048.892,1.047.892.7.595.349.3c.349.3.425.917,1.123,1.512l1.048.892a1.484,1.484,0,0,0,1.4,1.189,6.266,6.266,0,0,1,1.822,2.107c.075.619.773,1.214,1.472,1.808a4.639,4.639,0,0,1,1.9,2.726c.075.619.425.917.7.6.972.273,1.122,1.511,1.821,2.106l.075.619,1.547,2.428a.439.439,0,0,1,.075.619,2.459,2.459,0,0,0,.849,1.834h0a1.18,1.18,0,0,0,1.123,1.511,4.308,4.308,0,0,1,.026,2.8.426.426,0,0,0,.075.619c.075.62.075.62-.2.942s-.473,1.263-.747,1.585c.075.619.075.619-.2.941-.747,1.585.1,3.418,1.5,4.608l.7.594a2.149,2.149,0,0,1-.4,1.883,2.3,2.3,0,0,0-.323,2.5c.075.62-.2.942-.124,1.561-.274.322-.2.941-.473,1.263l-.274.322c-.548.644-1.1,1.287-1.021,1.907-.274.321-.473,1.263-.124,1.56Z"/><g class="cls-3"><path class="cls-4" d="M-4.774,101.774l.846.19a1.734,1.734,0,0,0,1.172.7,1.072,1.072,0,0,1,.587.191,1.8,1.8,0,0,1,1.041-.636,5.659,5.659,0,0,1,.521-.636,14.213,14.213,0,0,1,2.019-1.91,18.7,18.7,0,0,1,2.214-1.718,7.769,7.769,0,0,0,1.368-1.082,6.127,6.127,0,0,1,.651-.636,4.944,4.944,0,0,0,1.172-1.146,1.5,1.5,0,0,1,.456-.445,18.9,18.9,0,0,0,2.409-2.1,1.7,1.7,0,0,1,.391-.318c.716-.637,1.433-1.21,2.149-1.846.586-.509,1.172-1.018,1.758-1.464.2-.127.391-.318.586-.445A2.372,2.372,0,0,1,16,87.646a.89.89,0,0,0,.326-.191.923.923,0,0,0,.13-.191c-.065-.318.2-.573.391-.891a1.79,1.79,0,0,1,.846-.7,5.5,5.5,0,0,0,.782-.509c.586-.51,1.237-1.019,1.823-1.591,1.172-1.082,2.279-2.1,3.386-3.182l.586-.382a2.958,2.958,0,0,0,1.107-.891,5.572,5.572,0,0,1,1.3-1.146,9.679,9.679,0,0,0,1.758-1.463,9.914,9.914,0,0,1,1.237-1.082,7.694,7.694,0,0,0,1.3-1.209,37.165,37.165,0,0,1,2.865-2.61,26.275,26.275,0,0,0,2.865-2.482.9.9,0,0,1,.261-.19,7.682,7.682,0,0,0,1.823-1.4c.326-.318.716-.636,1.107-.954a2.964,2.964,0,0,0,.456-.446,4.569,4.569,0,0,1,1.237-.954.649.649,0,0,0,.326-.255,6.774,6.774,0,0,1,1.823-1.464,2.778,2.778,0,0,0,.456-.381,3.556,3.556,0,0,1,1.889-1.464c.521-.191.781-.764,1.3-.955a1.708,1.708,0,0,0,.391-.318c.065-.063.065-.127.13-.127a1.238,1.238,0,0,1,.912-.764c.065-.063.2-.127.26-.191a9.049,9.049,0,0,0,.586-.827.866.866,0,0,1,.391-.446,8.183,8.183,0,0,0,1.628-1.336l.586-.573c-.651-.382-1.367-.763-2.084-1.145a3.3,3.3,0,0,1-1.432-1.209.941.941,0,0,0-.847-.509,3.384,3.384,0,0,1-1.107-.191c-.065.127-.13.318-.2.445-.065.064-.065.127-.131.191a1.263,1.263,0,0,1-.846-.064.785.785,0,0,0-.716.255,19.185,19.185,0,0,1-2.54,1.973,1.14,1.14,0,0,0-.456.509,2.081,2.081,0,0,1-.716.954c-.521.255-.977.446-1.433.637-.065,0-.2.064-.2.127-.2.573-.782.637-1.172,1.018a3.559,3.559,0,0,1-.587.446c-.065.064-.13.064-.2.127-.521.191-.586.764-.977.955a2.355,2.355,0,0,0-1.042.891,2.511,2.511,0,0,1-1.237,1.082,1.9,1.9,0,0,0-.977.891,1.893,1.893,0,0,1-.846.89,14.428,14.428,0,0,1-1.368.764l-.911.891a6.8,6.8,0,0,1-.652.764,1.213,1.213,0,0,0-.456.7,6.88,6.88,0,0,1-1.107.254,5.218,5.218,0,0,1-1.172,1.21.858.858,0,0,0-.39.445,1.517,1.517,0,0,1-.782.891c-.13.064-.2.191-.26.255v.763a18.568,18.568,0,0,1-1.954,1.018.658.658,0,0,0-.326.255q-.682.669-1.367,1.336a1.054,1.054,0,0,1-.456.255,2.809,2.809,0,0,1-.716.127.775.775,0,0,0-.326.318,1.465,1.465,0,0,1-1.107.828.951.951,0,0,0-.391.318c-.065.127-.2.191-.26.318A3.5,3.5,0,0,0,17.3,77.4a1.157,1.157,0,0,1-.521.445,2.185,2.185,0,0,0-1.042.637c-.651.572-1.3,1.209-2.019,1.781a3.01,3.01,0,0,1-.586.191l-.065.509c-.13.064-.2.128-.326.191A5.723,5.723,0,0,0,10.4,82.873c-.065.127-.195.191-.326.318a2.86,2.86,0,0,0-1.042,1.273.5.5,0,0,1-.26.127,1.255,1.255,0,0,0-.977.891,1.134,1.134,0,0,1-.456.509c-.456.255-.846.636-1.367.636a6.9,6.9,0,0,1-.651.764,2.476,2.476,0,0,1-1.173.827,1.682,1.682,0,0,0-.911.7,3.37,3.37,0,0,1-1.368,1.146,2.412,2.412,0,0,0-.846.764,2.059,2.059,0,0,1-.782.7,2.419,2.419,0,0,0-.846.763.648.648,0,0,1-.326.255,22.343,22.343,0,0,0-3.712,3.245A4.609,4.609,0,0,1-6.142,97a1.5,1.5,0,0,0-.455.445,1.558,1.558,0,0,1-.652.637,22.245,22.245,0,0,0-2.018,1.4,1.118,1.118,0,0,0-.326.254,15.231,15.231,0,0,0,2.279,1.146A23.491,23.491,0,0,0-4.774,101.774Z"/><path class="cls-4" d="M78.775,62.253a11.787,11.787,0,0,0-1.107,1.973,5.137,5.137,0,0,1-.651,1.146,4.561,4.561,0,0,0-.782,1.336,1.8,1.8,0,0,1-.716.955,7.247,7.247,0,0,0-2.41,2.609,2.469,2.469,0,0,1-.716.7,5.854,5.854,0,0,0-1.107,1.082,11.266,11.266,0,0,1-.781.891.921.921,0,0,1-.261.191,5.909,5.909,0,0,0-1.5,1.082,1.352,1.352,0,0,1-.39.254,5.416,5.416,0,0,1-.782.509A21.092,21.092,0,0,0,65.3,76.318c-.065.063-.2.063-.26.127a6.843,6.843,0,0,1-3.322,1.082,14.461,14.461,0,0,0-2.865.191h-.2a2.934,2.934,0,0,0-2.084,0c-.521.063-.977.254-1.433.318a5.057,5.057,0,0,0-1.3.382c-.586.254-1.172.445-1.758.636a3.323,3.323,0,0,1-.782.127,3.72,3.72,0,0,0-1.953.764,2.4,2.4,0,0,1-1.108.446,9.378,9.378,0,0,0-1.3.254,1.332,1.332,0,0,1-1.3-.127.243.243,0,0,0-.2-.064,11.347,11.347,0,0,0-2.084-.063h-.455a4.472,4.472,0,0,0-.912-.128c-.13,0-.2,0-.261-.063-.39-.382-.846-.382-1.3-.637a6.96,6.96,0,0,1-.716-.382l-.2-.19c-.2-.955-.976-1.273-1.758-1.528l-.521-.127a13.482,13.482,0,0,1-1.693-.7,4.2,4.2,0,0,1-1.3-1.082,2.252,2.252,0,0,0-2.084-1.018l-.717.063a1.091,1.091,0,0,1-1.041-.381,5.2,5.2,0,0,0-1.5-1.21.4.4,0,0,1-.326-.381c-.13-.7-.716-.955-1.107-1.337-.13-.127-.456-.127-.651-.191a.8.8,0,0,0-.261-.763.634.634,0,0,1-.195-.573,1.667,1.667,0,0,0-.2-.764,6.775,6.775,0,0,0-.847-1.845c-.13-.764-.781-1.273-.977-2.037a.64.64,0,0,0-.26-.318.626.626,0,0,1-.326-.827,2.1,2.1,0,0,0-.26-1.528c-.065-.254-.2-.509-.261-.763a5.008,5.008,0,0,0-.521-1.019l-.065-.063c-.325-.191-.26-.637-.456-.891a3.12,3.12,0,0,1-.586-.7,2.594,2.594,0,0,1-.13-1.4,13.14,13.14,0,0,0,.13-1.591,2.363,2.363,0,0,1,0-.955.468.468,0,0,1,.065-.318,2.146,2.146,0,0,0,.261-1.273.892.892,0,0,1,.13-.382,1.533,1.533,0,0,0,.13-1.4c-.26-.827-.455-1.655-.651-2.545a2.093,2.093,0,0,1,0-.637,8.384,8.384,0,0,0,.326-1.845,4.749,4.749,0,0,1,.2-1.019,1.627,1.627,0,0,0,.13-.954v-.382a18.67,18.67,0,0,0,.586-2.609c.066-.128.066-.319.131-.446a1.159,1.159,0,0,0,.13-.445,2.137,2.137,0,0,1,.326-1.4,2.224,2.224,0,0,0,.13-.637,2.62,2.62,0,0,1,.26-.954c.326-.509.652-1.082.977-1.591a1.382,1.382,0,0,0,.261-.828,6.959,6.959,0,0,1,.586-2.354,1.386,1.386,0,0,1,.2-.319c.326-.381.716-.827,1.042-1.209a1.685,1.685,0,0,1,1.237-.827c.2,0,.326-.127.456-.318a4.355,4.355,0,0,0,.651-1.209A2.673,2.673,0,0,1,30.326,27.7a6.736,6.736,0,0,0,1.628-1.4,1.938,1.938,0,0,1,1.107-.764,2.787,2.787,0,0,0,1.107-.636,9.843,9.843,0,0,1,1.237-1.082c.26-.127.391-.509.651-.827a1.774,1.774,0,0,0,1.172-1.337L37.1,21.4a3.581,3.581,0,0,0,1.563-1.21,3.163,3.163,0,0,1,.846-.763c.521-.318.912-.764,1.368-1.082.065-.064.13-.191.26-.191a3.775,3.775,0,0,1,.782-.255,4.384,4.384,0,0,1,.781-.381,1.569,1.569,0,0,0,.847-.446l.716.191a1.473,1.473,0,0,0,1.042,0,1.529,1.529,0,0,1,1.3.191,2.229,2.229,0,0,0,1.107.318,1.583,1.583,0,0,1,.521.127.836.836,0,0,0,.39.064,4.11,4.11,0,0,1,1.238-.127.482.482,0,0,0,.39-.128,1.311,1.311,0,0,1,.977-.19,3.279,3.279,0,0,0,.782.063,5.424,5.424,0,0,1,1.432.064,4.951,4.951,0,0,0,1.368.063h2.93a1.553,1.553,0,0,1,.782.128.962.962,0,0,0,.455.127,2.118,2.118,0,0,1,1.433.636c.13.191.456.255.651.446a1.9,1.9,0,0,0,1.368.573,10.253,10.253,0,0,0,1.367.254.845.845,0,0,1,.651.255,1.816,1.816,0,0,0,1.628.191.355.355,0,0,1,.521.127.275.275,0,0,1,0,.318,1.305,1.305,0,0,0,.456,1.337,8.04,8.04,0,0,1,.847,1.209,2.413,2.413,0,0,0,.977.827,1.2,1.2,0,0,1,.651.446,1.3,1.3,0,0,0,.781.509l.521.127a.95.95,0,0,1,.391.127,7.7,7.7,0,0,0,.781.7,3.773,3.773,0,0,1,.847.509,1.942,1.942,0,0,0,.912.7A2.877,2.877,0,0,1,75,28.333a1.774,1.774,0,0,0,.977.955,2.474,2.474,0,0,1,1.432,1.464.638.638,0,0,0,.456.445c.586.127.847.7,1.172,1.146.066.063,0,.254,0,.318l1.173,1.4.2.382a1.642,1.642,0,0,0,.586,1.018c.065,0,.065.064.065.127,0,.573.456.764.847,1.019a3.08,3.08,0,0,1,.2,1.718v.382a.77.77,0,0,1-.13.636,1.553,1.553,0,0,0-.2,1.082,1.237,1.237,0,0,1-.13.7,2.178,2.178,0,0,0,1.3,2.673l.521.191a2.126,2.126,0,0,1,0,1.273,2.674,2.674,0,0,0-.131,1.591,6.4,6.4,0,0,1-.065,1.081,4.293,4.293,0,0,1-.13.828.9.9,0,0,1-.13.382,5.721,5.721,0,0,0-.586,1.463,1.536,1.536,0,0,0,0,1.082Z"/></g><path class="cls-1" d="M46.6,62.172a1.894,1.894,0,0,0-.688.086H44.7a2.184,2.184,0,0,0-1.033-.172A.316.316,0,0,1,43.412,62a.775.775,0,0,0-.43-.086.515.515,0,0,1-.345-.087h-.086a1.222,1.222,0,0,0-.516-.172c-.086,0-.086,0-.172-.086-.087,0-.173-.086-.259-.086a5.071,5.071,0,0,0-.688-.344.084.084,0,0,1-.086-.086,1.518,1.518,0,0,1-.775-.689,4.784,4.784,0,0,0-.517-.689v-.086c-.086-.172-.172-.43-.344-.516l-.345-.345-.258-.258a1.876,1.876,0,0,1-.43-.344l-.172-.172c-.086-.173-.345-.259-.517-.345-.086,0-.172-.086-.258-.172l-.258-.258a.653.653,0,0,1-.173-.345v-.086a1.8,1.8,0,0,0-.344-.516l-.086-.086c0-.086-.086-.172-.086-.258v-.861c.258-.173.172-.431.086-.689v-.172c0-.172-.086-.345-.086-.517a1.091,1.091,0,0,1,.086-.516.651.651,0,0,0-.086-.689l-.086-.172c-.086-.086-.086-.172-.086-.344a1.471,1.471,0,0,0,.086-.6c0-.086,0-.086.086-.172a.634.634,0,0,0,.172-.517c0-.086,0-.172-.086-.172a.185.185,0,0,0,.172-.172c0-.086.086-.086.086-.172a.185.185,0,0,0,.172-.173,1.783,1.783,0,0,0,.345-.516c.172-.172.172-.43.344-.6,0,0,.086-.086,0-.086,0-.086.086-.172.172-.258a.67.67,0,0,0,.345-.344l.172-.173c.086-.086.172-.172.172-.258h0c0-.086.086-.172.172-.258,0-.086.086-.172.086-.258a1.212,1.212,0,0,1,.345-.259c.172-.086.258-.172.43-.258.086-.086.172-.086.258-.172h.087a.447.447,0,0,0,.344-.172h.086a.447.447,0,0,0,.344-.172c.172-.173.345-.431.517-.6.086,0,.086-.086.172-.086l.516-.258c.087-.086.173-.086.345-.086.086,0,.172-.086.258-.086l.086-.087.775-.258H43.5a.66.66,0,0,1,.431-.172c.086,0,.086,0,.172-.086a.316.316,0,0,1,.258-.086h.6a.316.316,0,0,0,.258-.086c.258-.086.43-.172.689-.259H46c.172,0,.344.087.516.087a.66.66,0,0,1,.431.172.3.3,0,0,0,.172.086h.43a.757.757,0,0,1,.6.086,1.594,1.594,0,0,0,.6.172.447.447,0,0,1,.344.172.447.447,0,0,0,.344.172,1.224,1.224,0,0,1,.517.173H50.3a.571.571,0,0,0,.517.086v-.086a1.222,1.222,0,0,0,.516.172.521.521,0,0,1,.345.086c.172.086.344.086.516.172h.086l.172.172c.086.086.172.086.259.173s.172.086.258.172l.086.172c0,.086.086.172.172.258a.652.652,0,0,1,.172.344.518.518,0,0,0,.086.345c0,.086,0,.086.086.172a.084.084,0,0,0,.086.086l.259.258L54,47.8c.086,0,.172.087.172.259a.3.3,0,0,0,.086.172.652.652,0,0,1,.172.344c.086.086.086.258.172.345,0,.086.086.086.086.172.086.172.259.43.345.6a.318.318,0,0,1,.086.259v.172a.935.935,0,0,1,.086.43v.258a.646.646,0,0,0,.086.431c.086.172.086.258.172.344a.3.3,0,0,0,.086.172.657.657,0,0,0,.172.431c.086,0,.086.086,0,.172l-.086.086c-.172.086-.258.172-.258.344s-.086.259-.172.431a.517.517,0,0,0-.086.344v.775c0,.086-.086.172-.086.344v.259a.262.262,0,0,0,0,.344,1.091,1.091,0,0,1-.086.516.649.649,0,0,0-.086.431.819.819,0,0,1-.173.6c-.086.086-.086.172,0,.172.087.172-.086.344-.086.516l-.086.086-.172.517a.084.084,0,0,1-.086.086.447.447,0,0,0-.172.344h0A.214.214,0,0,0,54,58.9a.857.857,0,0,1-.431.344.084.084,0,0,0-.086.086c-.086.086-.086.086-.172.086s-.258.086-.344.086c-.086.086-.086.086-.172.086a.753.753,0,0,0-.517.775v.172a.447.447,0,0,1-.344.172.475.475,0,0,0-.431.259c-.086.086-.172.086-.258.172-.086,0-.172.086-.258.086H50.9a.647.647,0,0,0-.431.086c-.086,0-.258.086-.258.172Z"/><path class="cls-5" d="M57.971,62.964a2.382,2.382,0,0,0-.569.584c-.131.09-.173.312-.3.4s-.284.292-.416.383q-.032.167-.4.27a2.877,2.877,0,0,0-1.277.681c-.132.091-.264.181-.375.16a1.562,1.562,0,0,0-.506.25l-.4.271a.112.112,0,0,0-.132.091l-.729.208c-.111-.021-.132.09-.243.07a.415.415,0,0,1-.354.048l-1.062.147-.111-.021a3.593,3.593,0,0,1-1.6-.069,5.5,5.5,0,0,0-1.312-.36l-.111-.021a3.137,3.137,0,0,0-.979-.3l-.667-.125a.852.852,0,0,0-.576.007,1.912,1.912,0,0,1-.8-.034l-.333-.062a1.212,1.212,0,0,0-.93.056.852.852,0,0,1-.576.007l-.556-.1a1.439,1.439,0,0,1-.646-.236l-.111-.021c-.333-.062-.645-.235-.979-.3l-.222-.041c-.111-.021-.312-.174-.423-.194l-.112-.021-.6-.458c-.09-.132-.2-.153-.291-.285a.11.11,0,0,1-.091-.131,1.172,1.172,0,0,0-.764-.833l-.2-.153c-.2-.152-.514-.326-.716-.479s-.382-.416-.583-.569A1.227,1.227,0,0,0,36,61.155l-.333-.062a.591.591,0,0,1-.4-.306,2.035,2.035,0,0,0-.673-.7c-.112-.02-.091-.131-.2-.152a1.363,1.363,0,0,0-.451-.66.42.42,0,0,0-.313-.173.412.412,0,0,0-.049-.354c-.09-.132-.09-.132-.069-.243a.416.416,0,0,0-.049-.354,2.839,2.839,0,0,0-.3-.861c-.049-.354-.34-.638-.3-.86a.11.11,0,0,0-.09-.132c-.09-.132-.181-.264-.16-.375a.845.845,0,0,0-.007-.576c.021-.111-.07-.243-.049-.354-.09-.132-.049-.354-.139-.486h0c-.09-.132-.07-.243-.16-.375l-.271-.4a1.019,1.019,0,0,1-.007-.576l.1-.555.062-.334.021-.111a.678.678,0,0,0,.194-.423l.021-.111a.506.506,0,0,0,.1-.556q-.074-.531-.146-1.062l.041-.222a1.439,1.439,0,0,0,.236-.646.417.417,0,0,1,.173-.313c.021-.111.153-.2.063-.333l.02-.111a3.3,3.3,0,0,0,.41-.958c.02-.111.02-.111.152-.2.021-.111.132-.09.153-.2a1.023,1.023,0,0,1,.215-.535l.042-.222a.411.411,0,0,1,.173-.312,1.982,1.982,0,0,1,.548-.473.415.415,0,0,0,.174-.312,2.658,2.658,0,0,1,.388-.847.112.112,0,0,1,.132-.091,1.678,1.678,0,0,0,.527-.361.863.863,0,0,1,.6-.118c.112.021.112.021.243-.07a1.549,1.549,0,0,0,.417-.382c.152-.2.3-.4.638-.34a1.038,1.038,0,0,0,.75-.32.858.858,0,0,1,.486-.139,1.194,1.194,0,0,0,.6-.118c.243-.07.375-.16.618-.23.111.021.263-.18.284-.291a.753.753,0,0,0,.639-.341l-.09-.132a1.825,1.825,0,0,0,.728-.208c.132-.091.264-.181.375-.16l.729-.209.132-.09a.412.412,0,0,0,.354-.049.415.415,0,0,1,.354-.048c.111.02.333.062.354-.049l.313.173a.672.672,0,0,0,.423.194,1.451,1.451,0,0,1,.646.236c.09.132.312.174.514.326.111.021.111.021.2.153l.222.041.556.1.222.042a.343.343,0,0,1,.444.083l.334.062a1.431,1.431,0,0,1,.645.236c.223.042.424.194.646.236l.222.041c.334.063.757.257,1.091.319a.415.415,0,0,1,.312.174c.111.02.09.131.2.152a.978.978,0,0,1,.605.458c.09.132.2.153.291.285l.6.458a1.429,1.429,0,0,0,.645.235c.111.021.2.153.313.174a.993.993,0,0,0,.757.256c.111.021.222.042.2.153l-.021.111c-.041.222-.083.444.119.6l.361.527c.09.132.271.4.382.417s.2.152.292.284.18.264.291.285l.2.153c.111.02.111.02.2.152a1.583,1.583,0,0,0,.382.417c.091.131.313.173.4.3a1.549,1.549,0,0,0,.382.416,1.128,1.128,0,0,1,.472.548.885.885,0,0,0,.362.528,1.016,1.016,0,0,1,.541.791c-.02.111.091.132.181.264a.927.927,0,0,1,.452.659l-.021.111.451.66.091.132a.6.6,0,0,0,.25.506h0c-.042.222.16.375.361.528a1.433,1.433,0,0,1-.013.687l-.021.111-.042.222c-.132.091-.152.2-.194.424l-.042.222a1.075,1.075,0,0,0,.459,1.236l.2.152a.346.346,0,0,1-.083.445.5.5,0,0,0-.1.555l-.083.445-.063.333-.021.111a.869.869,0,0,0-.326.514c-.132.09-.041.222-.083.444Z"/><path class="cls-5" d="M48.561,33.307a2.385,2.385,0,0,0,.7-.424c.15-.054.246-.259.4-.314s.348-.212.5-.266q.072-.154.451-.164a2.875,2.875,0,0,0,1.406-.342.6.6,0,0,1,.4-.062,1.553,1.553,0,0,0,.553-.116l.451-.164a.11.11,0,0,0,.15-.055l.758-.021c.1.048.15-.054.252-.006a.417.417,0,0,1,.355.04L56,31.536l.1.048a3.6,3.6,0,0,1,1.529.463,5.479,5.479,0,0,0,1.182.676l.1.048a3.149,3.149,0,0,0,.874.532l.615.287a.848.848,0,0,0,.56.136,1.914,1.914,0,0,1,.765.232l.307.143a1.216,1.216,0,0,0,.915.177.85.85,0,0,1,.56.137l.512.238a1.437,1.437,0,0,1,.567.389l.1.048c.308.143.567.389.874.532l.2.1c.1.048.26.246.362.293l.1.048.471.594c.055.15.157.2.212.348a.11.11,0,0,1,.054.15,1.176,1.176,0,0,0,.533,1l.157.2c.158.2.417.443.574.641s.267.5.424.7a1.225,1.225,0,0,0,.731.839l.307.143a.589.589,0,0,1,.314.4,2.029,2.029,0,0,0,.478.847c.1.048.055.15.157.2a1.366,1.366,0,0,0,.274.751.413.413,0,0,0,.259.245.417.417,0,0,0-.04.355c.054.151.054.151.006.253a.417.417,0,0,0-.04.355,2.842,2.842,0,0,0,.075.908c-.041.355.171.7.075.908a.111.111,0,0,0,.055.15.6.6,0,0,1,.062.4.85.85,0,0,0-.137.56c-.047.1.007.253-.04.355.054.15-.041.355.013.5h0c.055.151.007.253.062.4l.164.451a1.024,1.024,0,0,1-.136.56l-.239.512-.143.307-.048.1c-.15.055-.246.26-.294.362l-.047.1a.5.5,0,0,0-.239.512l-.123,1.065-.095.2a1.427,1.427,0,0,0-.389.567.416.416,0,0,1-.246.259c-.048.1-.2.158-.143.308l-.048.1a3.324,3.324,0,0,0-.635.826c-.047.1-.047.1-.2.158-.047.1-.15.054-.2.157a1.012,1.012,0,0,1-.341.464l-.095.2a.416.416,0,0,1-.246.259,1.981,1.981,0,0,1-.648.322.413.413,0,0,0-.246.259,2.646,2.646,0,0,1-.587.724.111.111,0,0,1-.15.055,1.694,1.694,0,0,0-.6.218.865.865,0,0,1-.608-.033c-.1-.048-.1-.048-.252.006a1.566,1.566,0,0,0-.5.267c-.2.157-.4.314-.7.171a1.035,1.035,0,0,0-.8.123.855.855,0,0,1-.506.014,1.185,1.185,0,0,0-.607-.034c-.253.007-.4.062-.656.068-.1-.047-.3.11-.348.212a.752.752,0,0,0-.7.171l.055.15a1.83,1.83,0,0,0-.758.021.6.6,0,0,1-.4.062l-.758.02-.15.055a.417.417,0,0,0-.355-.041.413.413,0,0,1-.355-.041c-.1-.047-.308-.143-.355-.041l-.26-.245c-.054-.15-.259-.246-.362-.294a1.433,1.433,0,0,1-.567-.389c-.054-.15-.259-.245-.416-.443-.1-.048-.1-.048-.157-.2l-.2-.1-.512-.238-.2-.1a.344.344,0,0,1-.41-.191l-.307-.143a1.437,1.437,0,0,1-.567-.389c-.205-.1-.362-.294-.567-.389l-.205-.1c-.307-.143-.669-.436-.976-.58a.413.413,0,0,1-.26-.245c-.1-.048-.055-.151-.157-.2a.978.978,0,0,1-.471-.594c-.055-.15-.158-.2-.212-.348l-.471-.594a1.433,1.433,0,0,0-.567-.389c-.1-.048-.157-.2-.26-.246a.992.992,0,0,0-.669-.436c-.1-.048-.2-.1-.157-.2l.047-.1c.1-.2.192-.41.034-.607l-.218-.6c-.055-.15-.164-.451-.267-.5s-.157-.2-.212-.348-.109-.3-.211-.348l-.157-.2c-.1-.048-.1-.048-.158-.2a1.548,1.548,0,0,0-.266-.5c-.055-.15-.26-.246-.314-.4a1.574,1.574,0,0,0-.267-.5,1.13,1.13,0,0,1-.321-.649.88.88,0,0,0-.218-.6,1.019,1.019,0,0,1-.328-.9c.047-.1-.055-.15-.11-.3a.93.93,0,0,1-.273-.751l.048-.1-.274-.751-.055-.15a.6.6,0,0,0-.116-.553h0c.1-.205-.061-.4-.218-.6a1.428,1.428,0,0,1,.184-.663l.047-.1.1-.205c.15-.054.2-.157.293-.362l.1-.205a1.075,1.075,0,0,0-.137-1.311l-.157-.2a.342.342,0,0,1,.191-.409.506.506,0,0,0,.239-.512l.191-.41.143-.307.048-.1a.86.86,0,0,0,.443-.416c.151-.055.1-.2.191-.41Z"/><path class="cls-5" d="M44.642,57.2a1.747,1.747,0,0,0-.125-.587c0-.117-.121-.233-.123-.351s-.062-.293-.064-.411c-.06-.058-.061-.176,0-.353a2.119,2.119,0,0,0,.1-1.061.436.436,0,0,1,.055-.294,1.174,1.174,0,0,0,.053-.413l-.005-.353a.082.082,0,0,0,0-.118l.169-.531c.058-.06,0-.118.056-.178a.31.31,0,0,1,.115-.237l.343-.71.058-.06a2.646,2.646,0,0,1,.694-.951,4.038,4.038,0,0,0,.756-.657l.058-.06a2.3,2.3,0,0,0,.582-.478l.348-.358c.116-.119.232-.239.231-.356a1.422,1.422,0,0,1,.346-.476l.174-.178a.9.9,0,0,0,.346-.593c0-.118.114-.237.23-.357l.29-.3a1.052,1.052,0,0,1,.408-.3l.058-.06c.174-.179.408-.3.582-.479l.116-.119c.058-.059.234-.121.292-.18l.058-.06.527-.183c.118,0,.176-.062.293-.063a.082.082,0,0,1,.118,0A.86.86,0,0,0,52.6,45.2l.176-.061c.176-.061.409-.182.585-.243s.411-.064.587-.126a.9.9,0,0,0,.761-.3l.174-.179a.43.43,0,0,1,.351-.122,1.5,1.5,0,0,0,.7-.127c.058-.06.118,0,.176-.062a.991.991,0,0,0,.588-.008.3.3,0,0,1,.471-.006c.118,0,.118,0,.177.057a.306.306,0,0,0,.237.114,2.079,2.079,0,0,0,.65.168c.237.114.53.052.649.168a.082.082,0,0,0,.118,0,.445.445,0,0,1,.295.055c.119.116.238.232.356.231.06.058.177.056.237.114.117,0,.237.115.354.113h0c.118,0,.178.056.3.055l.353-.005a.75.75,0,0,1,.356.231l.3.29.178.174.06.058a.5.5,0,0,0,.18.292l.06.058c0,.117.121.234.3.29l.711.343.119.117a1.058,1.058,0,0,0,.3.407.311.311,0,0,1,.121.234c.059.058.061.176.178.174l.06.058a2.428,2.428,0,0,0,.421.642c.059.058.059.058.061.176.059.058,0,.117.061.175a.749.749,0,0,1,.24.35l.119.116a.3.3,0,0,1,.121.234,1.462,1.462,0,0,1,.066.529.305.305,0,0,0,.121.233,1.957,1.957,0,0,1,.361.584.082.082,0,0,1,0,.118,1.246,1.246,0,0,0,.007.47.637.637,0,0,1-.171.414c-.058.06-.058.06-.057.178a1.146,1.146,0,0,0,.065.411.448.448,0,0,1-.052.53.763.763,0,0,0-.11.59.624.624,0,0,1-.113.354c-.116.12-.114.237-.171.415s-.055.3-.111.472c-.058.059,0,.235.063.293a.553.553,0,0,0-.052.53H64.8a1.359,1.359,0,0,0-.17.532.44.44,0,0,1-.055.3l-.169.531,0,.118a.308.308,0,0,0-.115.237.3.3,0,0,1-.114.237c-.058.059-.175.179-.115.237l-.234.121c-.117,0-.233.12-.291.18a1.072,1.072,0,0,1-.408.3c-.118,0-.234.121-.41.182-.058.059-.058.059-.175.061l-.116.119-.291.3-.116.12a.253.253,0,0,1-.232.238l-.174.179a1.064,1.064,0,0,1-.408.3c-.116.119-.292.18-.408.3l-.116.12c-.174.178-.466.359-.64.538a.309.309,0,0,1-.233.121c-.059.059-.118,0-.176.061a.719.719,0,0,1-.527.183c-.118,0-.176.062-.294.063l-.527.184a1.067,1.067,0,0,0-.408.3c-.058.06-.175.062-.233.121-.176.062-.41.182-.466.36-.058.059-.116.119-.176.061l-.059-.058c-.12-.116-.239-.232-.415-.171l-.47.006c-.118,0-.353.005-.411.065a.443.443,0,0,1-.294.062.441.441,0,0,0-.293.063l-.176.061c-.058.06-.058.06-.175.062a1.135,1.135,0,0,0-.411.064c-.118,0-.234.121-.352.122a1.146,1.146,0,0,0-.411.065.833.833,0,0,1-.528.066.649.649,0,0,0-.471.006.748.748,0,0,1-.706.009c-.06-.058-.118,0-.235,0a.686.686,0,0,1-.589.007l-.059-.058-.589.008-.117,0a.445.445,0,0,0-.413-.053h0c-.119-.116-.3-.055-.47.006a1.056,1.056,0,0,1-.416-.289l-.06-.058-.119-.116c0-.117-.061-.176-.181-.292l-.119-.116a.79.79,0,0,0-.944-.222l-.176.061a.253.253,0,0,1-.238-.232c-.062-.176-.181-.292-.3-.29l-.238-.233-.179-.174-.059-.058a.639.639,0,0,0-.182-.409c0-.118-.12-.116-.239-.232Z"/><path class="cls-5" d="M33.686,49.083a2.363,2.363,0,0,0-.06-.812c.02-.159-.119-.337-.1-.5s-.03-.406-.01-.565q-.1-.133.059-.476a2.87,2.87,0,0,0,.336-1.407c.019-.159.039-.318.128-.387a1.542,1.542,0,0,0,.148-.545l.059-.476a.112.112,0,0,0,.02-.159l.326-.684c.09-.07.02-.159.109-.228a.418.418,0,0,1,.2-.3l.594-.892.089-.07a3.612,3.612,0,0,1,1.109-1.151,5.484,5.484,0,0,0,1.14-.744l.089-.07a3.117,3.117,0,0,0,.872-.536l.534-.417c.179-.139.357-.277.377-.436a1.916,1.916,0,0,1,.554-.575l.268-.209c.267-.208.535-.417.574-.734.02-.159.2-.3.376-.436l.446-.348a1.425,1.425,0,0,1,.6-.327l.089-.07c.268-.208.605-.328.872-.536l.179-.139c.089-.069.336-.119.426-.189l.089-.069.743-.15c.159.02.248-.049.406-.03a.112.112,0,0,1,.159.02,1.171,1.171,0,0,0,1.13-.021l.248-.05c.247-.049.584-.169.832-.219s.565-.01.813-.06a1.226,1.226,0,0,0,1.08-.268l.268-.209a.584.584,0,0,1,.495-.1,2.033,2.033,0,0,0,.971-.041c.09-.069.159.02.248-.05a1.358,1.358,0,0,0,.793.1.416.416,0,0,0,.337-.12.412.412,0,0,0,.3.2c.158.02.158.02.228.109a.413.413,0,0,0,.3.2,2.821,2.821,0,0,0,.843.346c.3.2.7.168.843.346a.111.111,0,0,0,.159.02c.158.02.317.04.386.129.139.178.278.356.437.376.069.089.228.109.3.2.159.019.3.2.457.218h0c.158.019.228.108.386.128l.476.059a1.024,1.024,0,0,1,.437.376l.347.446.208.267.07.09a.679.679,0,0,0,.189.426l.069.089c-.02.158.119.337.347.445l.893.594.139.179a1.431,1.431,0,0,0,.328.6.415.415,0,0,1,.119.337c.069.089.05.248.208.267l.07.09a3.3,3.3,0,0,0,.447.941c.069.089.069.089.049.248.07.089-.019.158.05.247a1.016,1.016,0,0,1,.258.516l.139.178a.416.416,0,0,1,.12.337,1.986,1.986,0,0,1-.01.723.416.416,0,0,0,.12.337,2.666,2.666,0,0,1,.377.852.111.111,0,0,1-.02.159,1.717,1.717,0,0,0-.078.634.867.867,0,0,1-.307.526c-.089.07-.089.07-.109.228a1.569,1.569,0,0,0,.01.565c.05.248.1.5-.167.7a1.038,1.038,0,0,0-.257.774.864.864,0,0,1-.218.456c-.178.139-.2.3-.307.525s-.128.387-.237.615c-.089.07-.039.317.03.406a.752.752,0,0,0-.168.7l.159.02a1.855,1.855,0,0,0-.327.684c-.019.159-.039.318-.128.387l-.327.684-.019.159a.41.41,0,0,0-.2.3.418.418,0,0,1-.2.3c-.09.069-.268.208-.2.3l-.337.12a.678.678,0,0,0-.426.188,1.441,1.441,0,0,1-.605.328c-.158-.02-.336.119-.584.169-.089.07-.089.07-.248.05l-.178.139-.446.347-.178.139a.344.344,0,0,1-.357.278l-.267.208a1.441,1.441,0,0,1-.605.328c-.178.139-.426.189-.6.328l-.178.139c-.268.208-.694.4-.961.6a.417.417,0,0,1-.337.12c-.089.069-.159-.02-.248.049a.977.977,0,0,1-.743.15c-.159-.02-.248.05-.407.03l-.743.149a1.431,1.431,0,0,0-.6.328c-.089.07-.248.05-.337.119a.994.994,0,0,0-.694.4c-.089.07-.178.139-.247.05l-.07-.089c-.139-.178-.278-.356-.525-.307l-.635-.078c-.158-.02-.476-.059-.565.01a.593.593,0,0,1-.406.03.608.608,0,0,0-.407.03l-.247.05c-.089.07-.089.07-.248.05a1.569,1.569,0,0,0-.565.01c-.159-.019-.337.12-.5.1a1.569,1.569,0,0,0-.565.01,1.124,1.124,0,0,1-.723-.009.887.887,0,0,0-.635-.079,1.015,1.015,0,0,1-.951-.118c-.07-.089-.159-.019-.318-.039a.932.932,0,0,1-.793-.1l-.069-.09-.793-.1-.159-.02a.6.6,0,0,0-.545-.148h0c-.139-.178-.387-.128-.635-.079a1.417,1.417,0,0,1-.505-.465l-.07-.089-.139-.178c.02-.159-.05-.248-.189-.426l-.139-.179a1.072,1.072,0,0,0-1.229-.474l-.248.049a.343.343,0,0,1-.278-.356c-.05-.248-.189-.426-.347-.446l-.278-.356-.208-.268-.07-.089a.862.862,0,0,0-.169-.585c.02-.158-.139-.178-.278-.356Z"/><path class="cls-1" d="M47.384,60.445a1.559,1.559,0,0,0-.571.072h-1a1.812,1.812,0,0,0-.857-.143.265.265,0,0,1-.215-.071.639.639,0,0,0-.357-.072.434.434,0,0,1-.286-.071h-.071a1.009,1.009,0,0,0-.429-.143c-.071,0-.071,0-.143-.072-.071,0-.143-.071-.214-.071a4.3,4.3,0,0,0-.571-.286.07.07,0,0,1-.072-.071,1.261,1.261,0,0,1-.643-.572,4.055,4.055,0,0,0-.428-.571V58.3c-.072-.143-.143-.357-.286-.428l-.286-.286-.214-.214a1.571,1.571,0,0,1-.357-.286l-.143-.143c-.072-.143-.286-.214-.429-.286-.071,0-.143-.071-.214-.143l-.215-.214a.54.54,0,0,1-.142-.286v-.071a1.506,1.506,0,0,0-.286-.429l-.072-.071c0-.072-.071-.143-.071-.214v-.715c.214-.143.143-.357.071-.571V53.8c0-.143-.071-.286-.071-.429a.907.907,0,0,1,.071-.428.539.539,0,0,0-.071-.572l-.071-.143c-.072-.071-.072-.143-.072-.286a1.2,1.2,0,0,0,.072-.5c0-.071,0-.071.071-.143a.522.522,0,0,0,.143-.428c0-.072,0-.143-.072-.143a.153.153,0,0,0,.143-.143c0-.071.072-.071.072-.143a.154.154,0,0,0,.143-.143,1.477,1.477,0,0,0,.285-.428c.143-.143.143-.357.286-.5,0,0,.072-.072,0-.072,0-.071.072-.143.143-.214a.562.562,0,0,0,.286-.286l.143-.143c.071-.071.143-.143.143-.214h0c0-.071.071-.143.142-.214,0-.072.072-.143.072-.215a.98.98,0,0,1,.286-.214c.143-.071.214-.143.357-.214.071-.072.143-.072.214-.143h.072a.372.372,0,0,0,.285-.143h.072a.371.371,0,0,0,.286-.143c.142-.143.285-.357.428-.5.072,0,.072-.071.143-.071l.429-.215c.071-.071.142-.071.285-.071.072,0,.143-.072.215-.072l.071-.071.643-.214h.286a.541.541,0,0,1,.357-.143c.071,0,.071,0,.143-.072a.263.263,0,0,1,.214-.071h.5a.263.263,0,0,0,.215-.072c.214-.071.357-.142.571-.214h.071c.143,0,.286.072.429.072a.546.546,0,0,1,.357.142.251.251,0,0,0,.143.072h.357a.626.626,0,0,1,.5.071,1.319,1.319,0,0,0,.5.143.372.372,0,0,1,.286.143.371.371,0,0,0,.286.143,1.009,1.009,0,0,1,.429.143h.285a.473.473,0,0,0,.429.071V46.3a1.023,1.023,0,0,0,.429.143.43.43,0,0,1,.285.071c.143.072.286.072.429.143H52.1l.143.143c.072.071.143.071.215.143s.142.071.214.143l.071.143c0,.071.072.142.143.214a.535.535,0,0,1,.143.286.43.43,0,0,0,.071.285c0,.072,0,.072.072.143a.07.07,0,0,0,.071.072l.215.214.071.071c.071,0,.143.072.143.215a.252.252,0,0,0,.071.143.536.536,0,0,1,.143.285c.072.072.072.215.143.286,0,.072.071.072.071.143.072.143.215.357.286.5a.261.261,0,0,1,.072.214v.143a.781.781,0,0,1,.071.357v.215a.531.531,0,0,0,.072.357c.071.143.071.214.142.286a.251.251,0,0,0,.072.143.546.546,0,0,0,.143.357c.071,0,.071.071,0,.143l-.072.071c-.143.072-.214.143-.214.286s-.071.214-.143.357a.431.431,0,0,0-.071.286v.643c0,.071-.072.143-.072.285v.215a.217.217,0,0,0,0,.285.913.913,0,0,1-.071.429.532.532,0,0,0-.072.357.683.683,0,0,1-.142.5c-.072.072-.072.143,0,.143.071.143-.072.286-.072.429l-.071.071-.143.429a.07.07,0,0,1-.072.071.373.373,0,0,0-.142.286h0a.177.177,0,0,0-.072.286.713.713,0,0,1-.357.286.07.07,0,0,0-.072.071c-.071.071-.071.071-.142.071s-.215.072-.286.072c-.072.071-.072.071-.143.071a.626.626,0,0,0-.429.643v.143a.369.369,0,0,1-.285.143.4.4,0,0,0-.358.214c-.071.072-.142.072-.214.143-.071,0-.143.072-.214.072h-.072a.539.539,0,0,0-.357.071c-.071,0-.214.072-.214.143Z"/><path class="cls-5" d="M45.4,58.256a.487.487,0,0,1-.051-.226L45.339,58c-.043-.1-.05-.225-.093-.331l-.028-.07c-.015-.035-.008-.12-.022-.155l-.014-.035L45.2,57.2c0-.008-.006-.013-.011-.029l-.068-.034-.17-.084-.068-.034a.116.116,0,0,1-.136-.068l-.1-.051a.486.486,0,0,1-.186-.136c-.068-.034-.119-.1-.187-.136l-.068-.034c-.1-.05-.221-.152-.322-.2A.14.14,0,0,1,43.8,56.3c-.034-.017-.017-.051-.051-.068a.329.329,0,0,1-.153-.2c-.017-.05-.051-.067-.068-.118l-.153-.2a.472.472,0,0,0-.186-.136c-.034-.017-.051-.068-.085-.085a.336.336,0,0,0-.221-.152c-.034-.017-.068-.034-.051-.068l.017-.034c.034-.068.068-.136.017-.2l-.068-.2c-.017-.051-.051-.153-.085-.17s-.051-.068-.067-.119-.034-.1-.068-.119l-.051-.068c-.034-.017-.034-.017-.051-.067a.525.525,0,0,0-.085-.17c-.017-.051-.085-.085-.1-.136a.525.525,0,0,0-.085-.17.377.377,0,0,1-.1-.22.3.3,0,0,0-.068-.2.344.344,0,0,1-.1-.3c.016-.034-.017-.051-.034-.1a.312.312,0,0,1-.085-.255l.017-.034-.085-.254-.017-.051a.2.2,0,0,0-.034-.187.119.119,0,0,0,0-.1l-.095-.08a.488.488,0,0,1-.15-.176l-.029-.024c-.087-.074-.149-.176-.236-.25l-.058-.049c-.029-.024-.063-.1-.092-.127L41,51.36l-.1-.234c-.005-.053-.034-.078-.038-.131a.038.038,0,0,1-.005-.054.227.227,0,0,0,.006-.025l-.019.022-.074.087-.122.145a.342.342,0,0,0-.093.169l.013.161c0,.053-.02.082-.015.136s-.045.111-.04.165c-.025.029-.02.082-.045.111,0,.053-.044.111-.093.169a.2.2,0,0,0-.016.136.038.038,0,0,1,.005.054c-.049.058-.011.189-.056.3a.955.955,0,0,1-.055.3.139.139,0,0,1-.045.111c-.024.029-.024.029-.02.083a.135.135,0,0,0,.018.214.452.452,0,0,1,.023.267c.029.024,0,.053.033.078a.672.672,0,0,1,.081.316.2.2,0,0,0,.067.156l.087.074a.412.412,0,0,1,.163.336c.033.078.042.185.076.263s.1.18.129.258l.034.078a.4.4,0,0,1,.085.37.037.037,0,0,0,0,.054c.005.053.034.078.038.131l.1.234.029.025c.029.024.062.1.091.126l.058.049c.087.074.15.176.237.25l.029.024a.476.476,0,0,0,.149.176l.145.123c.058.049.116.1.169.093a.411.411,0,0,1,.281.138l.087.074a.643.643,0,0,0,.228.142c.053-.005.111.044.169.093l.174.147a1.065,1.065,0,0,1,.237.25l.029.024a1.829,1.829,0,0,1,.323.323,1.2,1.2,0,0,0,.455.285l.029.025.334.133a.14.14,0,0,0,.112.044c.029.025.053,0,.082.02l.248.06a.036.036,0,0,1,.053,0l.16-.014a.537.537,0,0,1,.19.011.2.2,0,0,0,.136.016.859.859,0,0,1,.153-.015c-.013-.026-.025-.053-.037-.082Z"/><g class="cls-6"><path class="cls-5" d="M160.872,82.025c-.919.087-1.837.174-2.773.289l-2.287-.083c-4.015.241-8.3.086-12.318.328a92.468,92.468,0,0,1-10.031.41l-3.144-.114a8.527,8.527,0,0,1-7.389-1.426,2.8,2.8,0,0,0-1.7-.447,1.171,1.171,0,0,1-.871.354c-.628,1.523-2.357,1.847-3.814,2.567a6.945,6.945,0,0,1-4.873.211,14.1,14.1,0,0,0-3.988-.531c-3.443.262-7.159.128-10.617.776-6.887.524-13.789,1.433-20.676,1.957a8.8,8.8,0,0,1-3.13-.5,13.111,13.111,0,0,0-3.931-.32c.117,1.215.258,2.439.425,3.683-.022.855-.036,1.426-.057,2.281.287,4,.18,8.276.467,12.276a91.788,91.788,0,0,1,.525,10c-.029,1.14-.057,2.28-.079,3.135a8.459,8.459,0,0,1-1.347,7.382,2.786,2.786,0,0,0-.43,1.7,1.165,1.165,0,0,1,.366.865c1.534.609,1.878,2.328,2.617,3.773a6.89,6.89,0,0,1,.266,4.856,13.95,13.95,0,0,0-.487,3.981c.3,3.43.208,7.136.9,10.576.6,6.86,1.593,13.731,2.2,20.591,0,.221-.012.425-.02.629.565-.037,1.168-.02,1.773,0a8.965,8.965,0,0,0,5.4.968c4.015-.241,7.745-.493,11.76-.734a11.167,11.167,0,0,0,2.53,1.25l1.8-2.253a2.8,2.8,0,0,1,1.7.448,20.962,20.962,0,0,0,12.848.85c.571.021,1.157-.344,2.014-.313a8.793,8.793,0,0,0,6.93-1.682,2.025,2.025,0,0,1,1.415.438,3.855,3.855,0,0,0,3.4.9c.857.031,1.743-.71,2.614-1.065a4.429,4.429,0,0,1,3.172-.658c2.273.468,4.859.175,6.518,1.781,1.443-.335,2.9-1.055,4.329-1a9.619,9.619,0,0,1,6.574.238,6.012,6.012,0,0,0,5.145.185,2.809,2.809,0,0,1,1.728-.324,13.855,13.855,0,0,1,1.04-4.985,8.7,8.7,0,0,0,.384-2.691c.028-.771-.23-1.553-.2-2.325a21.659,21.659,0,0,0-.479-10.45,8.787,8.787,0,0,1,.14-3.858,12.543,12.543,0,0,0,1.1-6.529l.28-7.718c.084-2.315.183-5.016.267-7.331a26.807,26.807,0,0,1,1.255-3.046l-1.63-2.377c.028-.772.341-1.533.356-1.919a38.586,38.586,0,0,0,1.732-16.165l.084-2.315a10.568,10.568,0,0,0,.154-4.245,27.273,27.273,0,0,0-.975-4.672,2.974,2.974,0,0,1,.342-1.533A8.254,8.254,0,0,0,160.872,82.025Z"/><path class="cls-5" d="M63.087,143.855a2.785,2.785,0,0,1,.45-1.7,20.789,20.789,0,0,0,.853-12.809c.02-.57-.346-1.154-.315-2.009a8.734,8.734,0,0,0-1.686-6.909,2.011,2.011,0,0,1,.438-1.41,3.825,3.825,0,0,0,.9-3.392c.031-.855-.712-1.738-1.068-2.606a4.391,4.391,0,0,1-.66-3.163c.47-2.265.176-4.844,1.786-6.5-.335-1.439-1.057-2.891-1.006-4.316a9.539,9.539,0,0,1,.239-6.554,5.959,5.959,0,0,0,.186-5.129,2.79,2.79,0,0,1-.325-1.724,13.95,13.95,0,0,1-5-1.037,8.786,8.786,0,0,0-2.7-.382c-.774-.029-1.558.229-2.333.2a21.834,21.834,0,0,0-10.481.477,8.871,8.871,0,0,1-3.87-.14,12.651,12.651,0,0,0-6.548-1.093l-7.741-.279-7.354-.266A26.9,26.9,0,0,1,13.8,81.869L11.413,83.5c-.774-.028-1.537-.341-1.924-.355A38.928,38.928,0,0,0-6.725,81.413l-2.322-.084a10.668,10.668,0,0,0-4.258-.154,27.631,27.631,0,0,0-4.686.973,3.005,3.005,0,0,1-1.537-.341,8.328,8.328,0,0,0-6.082-.7c.087.916.175,1.831.29,2.765l-.083,2.28c.242,4,.087,8.277.329,12.281a91.915,91.915,0,0,1,.411,10c-.041,1.14-.083,2.28-.114,3.134a8.46,8.46,0,0,1-1.43,7.367,2.777,2.777,0,0,0-.449,1.7,1.167,1.167,0,0,1,.356.869c1.527.626,1.852,2.35,2.574,3.8a6.89,6.89,0,0,1,.211,4.859,14.012,14.012,0,0,0-.532,3.975c.263,3.433.128,7.138.778,10.585.526,6.867,1.438,13.748,1.964,20.615a8.759,8.759,0,0,1-.5,3.121,12.961,12.961,0,0,0-.321,3.918c1.218-.117,2.446-.257,3.694-.423l2.287.057c4.013-.286,8.3-.18,12.314-.466a92.557,92.557,0,0,1,10.026-.523l3.145.078a8.528,8.528,0,0,1,7.4,1.343,2.8,2.8,0,0,0,1.706.429,1.171,1.171,0,0,1,.867-.365c.61-1.529,2.335-1.873,3.784-2.609a6.953,6.953,0,0,1,4.871-.265,14.139,14.139,0,0,0,3.993.486c3.44-.3,7.157-.208,10.608-.9,6.881-.6,13.772-1.588,20.653-2.189.222,0,.426.012.631.02a17.4,17.4,0,0,1,0-1.769,8.9,8.9,0,0,0,.971-5.386c-.242-4-.5-7.722-.737-11.725a11.053,11.053,0,0,0,1.254-2.523Z"/></g></svg>