<svg id="Layer_1" data-name="Layer 1" xmlns="http://www.w3.org/2000/svg" xmlns:xlink="http://www.w3.org/1999/xlink" viewBox="0 0 100 100"><defs><style>.cls-1{fill:#fd3366;}.cls-2{clip-path:url(#clip-path);}.cls-3{fill:#1858a5;}.cls-4{fill:#fde8e6;}</style><clipPath id="clip-path"><path class="cls-1" d="M88,80.12A8.57,8.57,0,0,0,86.13,83L84.75,84.6l-1.37,1.61L82.29,87.5a9.94,9.94,0,0,0-4,3.27,1.46,1.46,0,0,1-1.17.66,3.55,3.55,0,0,0-1.72,1.32c-.28.32-.82,1-1.45,1l-.27.32a5.58,5.58,0,0,0-2.34,1.33c-.28.33-.28.33-.9.35-.28.32-.9.35-1.17.67a24.6,24.6,0,0,0-3.59,1.38.43.43,0,0,1-.63,0,7.74,7.74,0,0,1-5.26.52,25.08,25.08,0,0,0-4.44-.45l-.35-.3c-1-.27-2.29-.84-3.19-.5l-2.49.1-1.87.08a9.82,9.82,0,0,1-2.77.42l-1.24,0c-1-.28-2.15.39-3.05.74-.27.32-.89.34-1.52.37L37,98.92a3.61,3.61,0,0,1-1.94-.54l-.35-.3a9.75,9.75,0,0,0-3.19-.5l-.63,0c-.35-.3-1-.28-1.32-.57l-.35-.3-1.74-1.49-1-.89-.35-.3c.12-1.56-1.2-2.13-2.52-2.7l-.7-.59c-.7-.6-1.67-.87-2.37-1.47a6.3,6.3,0,0,1-1.82-2.1,3.68,3.68,0,0,0-3.07-2.06l-1-.27c-.62,0-1-.28-1.67-.87a8.21,8.21,0,0,0-2.17-2.4c-.35-.3-.35-.3-.43-.92a3.56,3.56,0,0,0-1.54-2.43c-.35-.3-.7-.59-1-.27a1,1,0,0,0-.15-1.24c-.35-.3-.08-.62-.43-.92a1,1,0,0,0-.15-1.24,9.64,9.64,0,0,0-1-3.07c-.15-1.24-1.2-2.13-1.35-3.37,0,0-.07-.62-.35-.29a2.56,2.56,0,0,1-.5-1.54,3.43,3.43,0,0,0-.3-2.48c-.07-.62-.07-.62-.15-1.24A2.47,2.47,0,0,0,3,61.06H3a2.44,2.44,0,0,1-.5-1.54c-.35-.3-.43-.91-.78-1.21a6,6,0,0,1,.05-2.18c.2-.94.12-1.56.32-2.5-.07-.62.2-.94.13-1.56l.27-.33a2.15,2.15,0,0,0,.4-1.88l.27-.32a2.12,2.12,0,0,0,.4-1.88c-.15-1.24-.65-2.78-.8-4,.28-.32-.07-.61.2-.94l.6-2.82c-.08-.62.2-.94.75-1.59.27-.32.19-.94.47-1.26l-.08-.62c.48-1.26.95-2.52,1.42-3.79L6.66,32l.55-.64a3.09,3.09,0,0,1,.67-2.21c.28-.32.28-.32.2-.94a1.46,1.46,0,0,1,.47-1.26l1.92-2.26A1.47,1.47,0,0,0,11,23.41c.47-1.26.67-2.2,1.14-3.47l.27-.32c.55-.64,1.45-1,2-1.63a3.1,3.1,0,0,1,2.07-1,1.41,1.41,0,0,0,.89-.34L18.7,15c.19-.94,1.37-1.61,2.26-2a7.22,7.22,0,0,0,2.62-1.66,2.18,2.18,0,0,1,1.8-.69A2.14,2.14,0,0,0,27.17,10a5.72,5.72,0,0,1,2.34-1.34l1.1-1.29c.9-.34,1.8-.69,2-1.63l-.34-.3A5.7,5.7,0,0,0,34.6,4.13c.27-.33.82-1,1.44-1,.9-.35,1.45-1,2.35-1.34l.27-.32,1.25-.05c.62,0,.9-.35,1.52-.37S42.33.71,43,.69l1,.27a2.47,2.47,0,0,0,1.6.25,3.61,3.61,0,0,1,1.94.54,2.91,2.91,0,0,0,1.67.87c.35.3.35.3,1,.27a.44.44,0,0,0,.62,0L52.6,2.8l.62,0c.28-.32.9-.34,1.6.25a1.61,1.61,0,0,0,1,.27,3.65,3.65,0,0,1,2,.55c.62,0,1.32.57,1.94.55.35.29.62,0,1,.27,1,.27,2.57.52,3.55.79A1.83,1.83,0,0,1,65.52,6l.7.6a5.45,5.45,0,0,1,2,1.16l1,.89c.7.6,1.4,1.19,2,1.17,1,.27,1.32.57,2,.55a1.69,1.69,0,0,0,1,.27,3.66,3.66,0,0,0,2.3.84c.27-.32.62,0,.69.6l.08.62a1.91,1.91,0,0,0,.57,2.15c.7.6.78,1.21,1.2,2.13a2.92,2.92,0,0,0,1.12,1.51l1,.9,1,.89.7.59.35.3c.35.3.42.92,1.12,1.51l1,.89a1.47,1.47,0,0,0,1.39,1.19,6.36,6.36,0,0,1,1.83,2.11c.07.62.77,1.21,1.47,1.81a4.59,4.59,0,0,1,1.89,2.72c.08.62.43.92.7.6,1,.27,1.13,1.51,1.82,2.1l.08.62,1.55,2.43a.44.44,0,0,1,.07.62,2.45,2.45,0,0,0,.85,1.83h0a1.19,1.19,0,0,0,1.12,1.52,4.24,4.24,0,0,1,0,2.79.43.43,0,0,0,.07.62c.08.62.08.62-.19.94s-.48,1.27-.75,1.59c.07.62.07.62-.2.94-.75,1.59.1,3.42,1.5,4.61l.7.59a2.18,2.18,0,0,1-.4,1.89,2.31,2.31,0,0,0-.33,2.5c.08.62-.19.94-.12,1.56-.27.32-.2.94-.47,1.26l-.28.32c-.54.65-1.09,1.29-1,1.91-.27.32-.47,1.26-.12,1.56Z"/></clipPath></defs><path class="cls-1" d="M88,80.12A8.57,8.57,0,0,0,86.13,83L84.75,84.6l-1.37,1.61L82.29,87.5a9.94,9.94,0,0,0-4,3.27,1.46,1.46,0,0,1-1.17.66,3.55,3.55,0,0,0-1.72,1.32c-.28.32-.82,1-1.45,1l-.27.32a5.58,5.58,0,0,0-2.34,1.33c-.28.33-.28.33-.9.35-.28.32-.9.35-1.17.67a24.6,24.6,0,0,0-3.59,1.38.43.43,0,0,1-.63,0,7.74,7.74,0,0,1-5.26.52,25.08,25.08,0,0,0-4.44-.45l-.35-.3c-1-.27-2.29-.84-3.19-.5l-2.49.1-1.87.08a9.82,9.82,0,0,1-2.77.42l-1.24,0c-1-.28-2.15.39-3.05.74-.27.32-.89.34-1.52.37L37,98.92a3.61,3.61,0,0,1-1.94-.54l-.35-.3a9.75,9.75,0,0,0-3.19-.5l-.63,0c-.35-.3-1-.28-1.32-.57l-.35-.3-1.74-1.49-1-.89-.35-.3c.12-1.56-1.2-2.13-2.52-2.7l-.7-.59c-.7-.6-1.67-.87-2.37-1.47a6.3,6.3,0,0,1-1.82-2.1,3.68,3.68,0,0,0-3.07-2.06l-1-.27c-.62,0-1-.28-1.67-.87a8.21,8.21,0,0,0-2.17-2.4c-.35-.3-.35-.3-.43-.92a3.56,3.56,0,0,0-1.54-2.43c-.35-.3-.7-.59-1-.27a1,1,0,0,0-.15-1.24c-.35-.3-.08-.62-.43-.92a1,1,0,0,0-.15-1.24,9.64,9.64,0,0,0-1-3.07c-.15-1.24-1.2-2.13-1.35-3.37,0,0-.07-.62-.35-.29a2.56,2.56,0,0,1-.5-1.54,3.43,3.43,0,0,0-.3-2.48c-.07-.62-.07-.62-.15-1.24A2.47,2.47,0,0,0,3,61.06H3a2.44,2.44,0,0,1-.5-1.54c-.35-.3-.43-.91-.78-1.21a6,6,0,0,1,.05-2.18c.2-.94.12-1.56.32-2.5-.07-.62.2-.94.13-1.56l.27-.33a2.15,2.15,0,0,0,.4-1.88l.27-.32a2.12,2.12,0,0,0,.4-1.88c-.15-1.24-.65-2.78-.8-4,.28-.32-.07-.61.2-.94l.6-2.82c-.08-.62.2-.94.75-1.59.27-.32.19-.94.47-1.26l-.08-.62c.48-1.26.95-2.52,1.42-3.79L6.66,32l.55-.64a3.09,3.09,0,0,1,.67-2.21c.28-.32.28-.32.2-.94a1.46,1.46,0,0,1,.47-1.26l1.92-2.26A1.47,1.47,0,0,0,11,23.41c.47-1.26.67-2.2,1.14-3.47l.27-.32c.55-.64,1.45-1,2-1.63a3.1,3.1,0,0,1,2.07-1,1.41,1.41,0,0,0,.89-.34L18.7,15c.19-.94,1.37-1.61,2.26-2a7.22,7.22,0,0,0,2.62-1.66,2.18,2.18,0,0,1,1.8-.69A2.14,2.14,0,0,0,27.17,10a5.72,5.72,0,0,1,2.34-1.34l1.1-1.29c.9-.34,1.8-.69,2-1.63l-.34-.3A5.7,5.7,0,0,0,34.6,4.13c.27-.33.82-1,1.44-1,.9-.35,1.45-1,2.35-1.34l.27-.32,1.25-.05c.62,0,.9-.35,1.52-.37S42.33.71,43,.69l1,.27a2.47,2.47,0,0,0,1.6.25,3.61,3.61,0,0,1,1.94.54,2.91,2.91,0,0,0,1.67.87c.35.3.35.3,1,.27a.44.44,0,0,0,.62,0L52.6,2.8l.62,0c.28-.32.9-.34,1.6.25a1.61,1.61,0,0,0,1,.27,3.65,3.65,0,0,1,2,.55c.62,0,1.32.57,1.94.55.35.29.62,0,1,.27,1,.27,2.57.52,3.55.79A1.83,1.83,0,0,1,65.52,6l.7.6a5.45,5.45,0,0,1,2,1.16l1,.89c.7.6,1.4,1.19,2,1.17,1,.27,1.32.57,2,.55a1.69,1.69,0,0,0,1,.27,3.66,3.66,0,0,0,2.3.84c.27-.32.62,0,.69.6l.08.62a1.91,1.91,0,0,0,.57,2.15c.7.6.78,1.21,1.2,2.13a2.92,2.92,0,0,0,1.12,1.51l1,.9,1,.89.7.59.35.3c.35.3.42.92,1.12,1.51l1,.89a1.47,1.47,0,0,0,1.39,1.19,6.36,6.36,0,0,1,1.83,2.11c.07.62.77,1.21,1.47,1.81a4.59,4.59,0,0,1,1.89,2.72c.08.62.43.92.7.6,1,.27,1.13,1.51,1.82,2.1l.08.62,1.55,2.43a.44.44,0,0,1,.07.62,2.45,2.45,0,0,0,.85,1.83h0a1.19,1.19,0,0,0,1.12,1.52,4.24,4.24,0,0,1,0,2.79.43.43,0,0,0,.07.62c.08.62.08.62-.19.94s-.48,1.27-.75,1.59c.07.62.07.62-.2.94-.75,1.59.1,3.42,1.5,4.61l.7.59a2.18,2.18,0,0,1-.4,1.89,2.31,2.31,0,0,0-.33,2.5c.08.62-.19.94-.12,1.56-.27.32-.2.94-.47,1.26l-.28.32c-.54.65-1.09,1.29-1,1.91-.27.32-.47,1.26-.12,1.56Z"/><g class="cls-2"><path class="cls-3" d="M-4.77,101.77l.84.19a1.7,1.7,0,0,0,1.17.7,1,1,0,0,1,.59.2,1.77,1.77,0,0,1,1-.64,6.22,6.22,0,0,1,.52-.64,15.22,15.22,0,0,1,2-1.91A18,18,0,0,1,3.63,98,7.47,7.47,0,0,0,5,96.87a7.56,7.56,0,0,1,.65-.63,5,5,0,0,0,1.18-1.15,1.45,1.45,0,0,1,.45-.44,18.7,18.7,0,0,0,2.41-2.1,1.57,1.57,0,0,1,.39-.32c.72-.64,1.44-1.21,2.15-1.85s1.17-1,1.76-1.46c.2-.13.39-.32.59-.45A2.37,2.37,0,0,1,16,87.65a.94.94,0,0,0,.32-.2.68.68,0,0,0,.13-.19c-.06-.31.2-.57.4-.89a1.78,1.78,0,0,1,.84-.7,5,5,0,0,0,.78-.51c.59-.51,1.24-1,1.83-1.59,1.17-1.08,2.28-2.1,3.38-3.18l.59-.38a3,3,0,0,0,1.11-.89A5.51,5.51,0,0,1,26.68,78a9.56,9.56,0,0,0,1.76-1.46,9.71,9.71,0,0,1,1.23-1.08A7.84,7.84,0,0,0,31,74.22a37.89,37.89,0,0,1,2.86-2.61,27.31,27.31,0,0,0,2.87-2.48.7.7,0,0,1,.26-.19,8,8,0,0,0,1.82-1.4c.33-.32.72-.64,1.11-1a3.08,3.08,0,0,0,.45-.44,4.68,4.68,0,0,1,1.24-1,.7.7,0,0,0,.33-.25,6.54,6.54,0,0,1,1.82-1.47,2.27,2.27,0,0,0,.46-.38,3.49,3.49,0,0,1,1.88-1.46c.53-.19.79-.77,1.31-1a1.57,1.57,0,0,0,.39-.32c.06-.06.06-.12.13-.12a1.24,1.24,0,0,1,.91-.77c.06-.06.2-.12.26-.19a8.52,8.52,0,0,0,.59-.83.82.82,0,0,1,.39-.44,8.44,8.44,0,0,0,1.63-1.34l.58-.57c-.65-.38-1.37-.76-2.08-1.15a3.33,3.33,0,0,1-1.44-1.2.93.93,0,0,0-.84-.51A3.6,3.6,0,0,1,46.8,53c-.06.12-.13.31-.19.44s-.07.13-.13.19a1.28,1.28,0,0,1-.85-.06.78.78,0,0,0-.72.25,19.84,19.84,0,0,1-2.54,2,1.08,1.08,0,0,0-.45.5,2.06,2.06,0,0,1-.72,1c-.52.25-1,.44-1.43.64-.07,0-.2.06-.2.12-.19.58-.78.64-1.17,1a3.42,3.42,0,0,1-.59.45c-.06.06-.13.06-.19.12-.52.2-.59.77-1,1a2.38,2.38,0,0,0-1,.89,2.53,2.53,0,0,1-1.24,1.08,1.89,1.89,0,0,0-1,.89,1.93,1.93,0,0,1-.85.89c-.46.32-.91.51-1.37.77l-.91.89a6.27,6.27,0,0,1-.65.76,1.25,1.25,0,0,0-.46.7,7.3,7.3,0,0,1-1.1.26,5.42,5.42,0,0,1-1.18,1.21.87.87,0,0,0-.39.44,1.52,1.52,0,0,1-.78.89,1.06,1.06,0,0,0-.26.26v.76a20,20,0,0,1-2,1,.7.7,0,0,0-.33.25L21.79,73.9a1,1,0,0,1-.45.25,2.6,2.6,0,0,1-.72.13.71.71,0,0,0-.32.32,1.5,1.5,0,0,1-1.11.83.93.93,0,0,0-.39.31c-.07.13-.2.2-.26.32A3.53,3.53,0,0,0,17.3,77.4a1.18,1.18,0,0,1-.52.45,2.11,2.11,0,0,0-1,.63c-.65.57-1.3,1.21-2,1.78a2.55,2.55,0,0,1-.59.19l-.06.51c-.13.07-.2.13-.33.19a5.79,5.79,0,0,0-2.34,1.72c-.07.13-.2.19-.33.32a2.92,2.92,0,0,0-1,1.27.43.43,0,0,1-.26.13,1.27,1.27,0,0,0-1,.89,1.15,1.15,0,0,1-.45.51c-.46.26-.85.64-1.37.64a6.27,6.27,0,0,1-.65.76,2.56,2.56,0,0,1-1.17.83,1.66,1.66,0,0,0-.91.7,3.35,3.35,0,0,1-1.37,1.14,2.42,2.42,0,0,0-.85.77,2,2,0,0,1-.78.7,2.4,2.4,0,0,0-.85.76.64.64,0,0,1-.32.26,21.73,21.73,0,0,0-3.71,3.24A4.68,4.68,0,0,1-6.14,97a1.52,1.52,0,0,0-.46.45,1.52,1.52,0,0,1-.65.63,24.13,24.13,0,0,0-2,1.4,1.22,1.22,0,0,0-.32.26,15.16,15.16,0,0,0,2.28,1.14A21.49,21.49,0,0,0-4.77,101.77Z"/><path class="cls-3" d="M78.77,62.25a12,12,0,0,0-1.1,2A5.1,5.1,0,0,1,77,65.37a4.33,4.33,0,0,0-.78,1.34,1.88,1.88,0,0,1-.72,1,7.3,7.3,0,0,0-2.41,2.61,2.41,2.41,0,0,1-.72.7,5.91,5.91,0,0,0-1.1,1.08,8.75,8.75,0,0,1-.79.89.84.84,0,0,1-.26.2,5.6,5.6,0,0,0-1.49,1.08,1.42,1.42,0,0,1-.39.25,5.85,5.85,0,0,1-.79.51,20.7,20.7,0,0,0-2.27,1.34c-.07.06-.2.06-.27.12a6.82,6.82,0,0,1-3.32,1.09,14.48,14.48,0,0,0-2.86.19h-.2a2.87,2.87,0,0,0-2.08,0c-.52.06-1,.25-1.43.32a5,5,0,0,0-1.31.38c-.58.25-1.17.44-1.75.63a3.11,3.11,0,0,1-.79.13,3.76,3.76,0,0,0-1.95.77,2.43,2.43,0,0,1-1.11.44,8.8,8.8,0,0,0-1.3.26,1.34,1.34,0,0,1-1.3-.13.24.24,0,0,0-.2-.07,11.11,11.11,0,0,0-2.08-.06h-.46a4.64,4.64,0,0,0-.91-.13c-.13,0-.19,0-.26-.06-.39-.38-.85-.38-1.3-.64a6,6,0,0,1-.72-.38L39.51,79c-.2-.95-1-1.27-1.76-1.53l-.52-.12a13.58,13.58,0,0,1-1.69-.7,4.15,4.15,0,0,1-1.31-1.09,2.22,2.22,0,0,0-2.08-1l-.72.06a1.09,1.09,0,0,1-1-.38A5.19,5.19,0,0,0,28.89,73a.41.41,0,0,1-.32-.38c-.13-.7-.72-1-1.11-1.34-.13-.13-.46-.13-.65-.19a.82.82,0,0,0-.26-.76.67.67,0,0,1-.2-.58,1.64,1.64,0,0,0-.19-.76,7,7,0,0,0-.85-1.85c-.13-.76-.78-1.27-1-2a.59.59,0,0,0-.26-.32.63.63,0,0,1-.32-.83,2.11,2.11,0,0,0-.26-1.53c-.07-.25-.2-.5-.26-.76a5.43,5.43,0,0,0-.52-1l-.07-.06c-.32-.19-.26-.64-.45-.89a3,3,0,0,1-.59-.7,2.51,2.51,0,0,1-.13-1.4A14.2,14.2,0,0,0,21.6,56a2.22,2.22,0,0,1,0-1,.51.51,0,0,1,.06-.32,2.06,2.06,0,0,0,.26-1.27.84.84,0,0,1,.14-.38,1.56,1.56,0,0,0,.13-1.4c-.27-.83-.46-1.66-.66-2.55a2.22,2.22,0,0,1,0-.63,8.52,8.52,0,0,0,.33-1.85,4.5,4.5,0,0,1,.2-1,1.65,1.65,0,0,0,.13-1v-.38a18.8,18.8,0,0,0,.58-2.61c.07-.13.07-.32.13-.45a1.1,1.1,0,0,0,.13-.44,2.17,2.17,0,0,1,.33-1.4,2.43,2.43,0,0,0,.13-.64,2.55,2.55,0,0,1,.26-1c.32-.51.65-1.09,1-1.6A1.39,1.39,0,0,0,25,35.4,7,7,0,0,1,25.57,33a1.78,1.78,0,0,1,.2-.32c.32-.38.71-.82,1-1.2a1.67,1.67,0,0,1,1.24-.83c.19,0,.32-.13.45-.32a4.29,4.29,0,0,0,.65-1.21,2.65,2.65,0,0,1,1.18-1.46A6.72,6.72,0,0,0,32,26.3a2,2,0,0,1,1.11-.77,2.82,2.82,0,0,0,1.11-.63,9.78,9.78,0,0,1,1.23-1.09c.27-.12.4-.5.66-.82a1.78,1.78,0,0,0,1.17-1.34l-.13-.25a3.66,3.66,0,0,0,1.56-1.21,3.08,3.08,0,0,1,.85-.77c.52-.31.91-.76,1.36-1.08.07-.06.14-.19.27-.19a3.37,3.37,0,0,1,.78-.25,4.73,4.73,0,0,1,.78-.39,1.56,1.56,0,0,0,.84-.44l.72.19a1.44,1.44,0,0,0,1,0,1.55,1.55,0,0,1,1.31.19,2.2,2.2,0,0,0,1.1.32,1.37,1.37,0,0,1,.52.13.89.89,0,0,0,.39.06,4,4,0,0,1,1.24-.13.5.5,0,0,0,.39-.12,1.29,1.29,0,0,1,1-.2,3,3,0,0,0,.78.07,5.26,5.26,0,0,1,1.43.06,4.86,4.86,0,0,0,1.37.07h2.93a1.63,1.63,0,0,1,.78.12A.89.89,0,0,0,59,18a2.08,2.08,0,0,1,1.43.64c.13.19.46.25.65.44a1.91,1.91,0,0,0,1.37.57,9.44,9.44,0,0,0,1.37.26.85.85,0,0,1,.65.25,1.78,1.78,0,0,0,1.63.19.36.36,0,0,1,.52.13.3.3,0,0,1,0,.32,1.31,1.31,0,0,0,.45,1.34,7.49,7.49,0,0,1,.85,1.21,2.42,2.42,0,0,0,1,.82,1.24,1.24,0,0,1,.65.45,1.32,1.32,0,0,0,.78.51l.52.12a1,1,0,0,1,.39.13A7,7,0,0,0,72,26a3.76,3.76,0,0,1,.85.51,2,2,0,0,0,.91.7A2.94,2.94,0,0,1,75,28.33a1.76,1.76,0,0,0,1,1,2.45,2.45,0,0,1,1.44,1.46.64.64,0,0,0,.45.45c.59.12.85.7,1.18,1.14.06.07,0,.26,0,.32l1.17,1.4.19.38a1.65,1.65,0,0,0,.59,1c.06,0,.06.06.06.13,0,.57.46.76.85,1a3,3,0,0,1,.2,1.71v.39a.77.77,0,0,1-.13.63,1.56,1.56,0,0,0-.2,1.08,1.23,1.23,0,0,1-.13.7,2.18,2.18,0,0,0,1.3,2.68l.52.19a2.12,2.12,0,0,1,0,1.27,2.72,2.72,0,0,0-.13,1.59,6.89,6.89,0,0,1-.06,1.08,4.7,4.7,0,0,1-.13.83.91.91,0,0,1-.13.38,5.88,5.88,0,0,0-.59,1.47,1.54,1.54,0,0,0,0,1.08Z"/></g><path class="cls-1" d="M46.6,62.17a1.82,1.82,0,0,0-.69.09H44.7a2.2,2.2,0,0,0-1-.17.31.31,0,0,1-.26-.09.75.75,0,0,0-.43-.09.54.54,0,0,1-.34-.08h-.09a1.14,1.14,0,0,0-.52-.17c-.08,0-.08,0-.17-.09s-.17-.09-.26-.09a4.26,4.26,0,0,0-.68-.34.09.09,0,0,1-.09-.09,1.55,1.55,0,0,1-.78-.69,5,5,0,0,0-.51-.68v-.09c-.09-.17-.17-.43-.35-.52l-.34-.34-.26-.26a2.38,2.38,0,0,1-.43-.34L38,58c-.09-.17-.35-.25-.52-.34s-.17-.09-.26-.17L37,57.18a.66.66,0,0,1-.18-.35v-.08a1.72,1.72,0,0,0-.34-.52l-.09-.08c0-.09-.08-.18-.08-.26V55c.26-.18.17-.43.08-.69v-.17c0-.18-.08-.35-.08-.52a1.18,1.18,0,0,1,.08-.52.65.65,0,0,0-.08-.69l-.09-.17c-.09-.08-.09-.17-.09-.34a1.42,1.42,0,0,0,.09-.61c0-.08,0-.08.09-.17a.62.62,0,0,0,.17-.51c0-.09,0-.18-.09-.18a.18.18,0,0,0,.18-.17c0-.08.08-.08.08-.17a.18.18,0,0,0,.17-.17,1.76,1.76,0,0,0,.35-.52c.17-.17.17-.43.34-.6,0,0,.09-.09,0-.09s.09-.17.17-.26a.65.65,0,0,0,.35-.34l.17-.17c.09-.09.17-.17.17-.26h0c0-.09.09-.17.18-.26s.08-.17.08-.26a1.37,1.37,0,0,1,.35-.26c.17-.08.25-.17.43-.25s.17-.09.25-.18h.09a.42.42,0,0,0,.34-.17h.09a.46.46,0,0,0,.35-.17c.17-.17.34-.43.51-.6.09,0,.09-.09.17-.09l.52-.26c.09-.08.17-.08.34-.08s.18-.09.26-.09l.09-.09.77-.25h.35a.63.63,0,0,1,.43-.18c.08,0,.08,0,.17-.08a.31.31,0,0,1,.26-.09H45a.34.34,0,0,0,.26-.08c.26-.09.43-.18.69-.26H46c.18,0,.35.08.52.08a.63.63,0,0,1,.43.18.32.32,0,0,0,.17.08h.43a.78.78,0,0,1,.61.09,1.7,1.7,0,0,0,.6.17.45.45,0,0,1,.34.17.46.46,0,0,0,.35.17,1.16,1.16,0,0,1,.51.18h.35a.58.58,0,0,0,.52.08v-.08a1.28,1.28,0,0,0,.51.17.56.56,0,0,1,.35.08c.17.09.34.09.51.18h.09l.17.17c.09.09.17.09.26.17s.17.09.26.17l.08.18c0,.08.09.17.18.25a.71.71,0,0,1,.17.35.54.54,0,0,0,.08.34c0,.09,0,.09.09.17a.09.09,0,0,0,.09.09l.25.26.09.09c.09,0,.17.08.17.25a.31.31,0,0,0,.09.18.58.58,0,0,1,.17.34c.09.09.09.26.17.34s.09.09.09.18.26.43.34.6a.31.31,0,0,1,.09.26v.17a.89.89,0,0,1,.09.43v.26a.69.69,0,0,0,.08.43c.09.17.09.26.17.34a.31.31,0,0,0,.09.18.7.7,0,0,0,.17.43c.09,0,.09.08,0,.17l-.08.08c-.18.09-.26.18-.26.35s-.09.26-.17.43a.49.49,0,0,0-.09.34v.78c0,.08-.09.17-.09.34v.26a.27.27,0,0,0,0,.34,1.16,1.16,0,0,1-.08.52.63.63,0,0,0-.09.43.82.82,0,0,1-.17.6c-.09.09-.09.18,0,.18.09.17-.09.34-.09.51l-.08.09-.17.52a.08.08,0,0,1-.09.08.44.44,0,0,0-.17.35h0a.2.2,0,0,0-.09.34.86.86,0,0,1-.43.34.09.09,0,0,0-.09.09c-.08.09-.08.09-.17.09s-.26.08-.34.08-.09.09-.17.09a.75.75,0,0,0-.52.77v.18a.47.47,0,0,1-.35.17.47.47,0,0,0-.43.26c-.08.08-.17.08-.25.17s-.18.08-.26.08H50.9a.63.63,0,0,0-.43.09c-.08,0-.26.09-.26.17Z"/><path class="cls-4" d="M58,63a2.62,2.62,0,0,0-.57.59c-.13.09-.17.31-.3.4s-.29.29-.42.38-.15.2-.39.27a2.85,2.85,0,0,0-1.28.68c-.13.09-.27.19-.38.16a1.54,1.54,0,0,0-.5.25l-.4.28a.1.1,0,0,0-.13.09l-.73.2c-.11,0-.13.09-.24.07a.43.43,0,0,1-.36,0l-1.06.15-.11,0a3.65,3.65,0,0,1-1.6-.07,5.42,5.42,0,0,0-1.31-.36l-.11,0a2.93,2.93,0,0,0-1-.3l-.67-.12a.79.79,0,0,0-.57,0,1.94,1.94,0,0,1-.8,0l-.33-.06a1.18,1.18,0,0,0-.93,0,.87.87,0,0,1-.58,0l-.56-.11a1.42,1.42,0,0,1-.64-.23l-.11,0c-.34-.06-.65-.24-1-.3l-.22,0c-.11,0-.32-.17-.43-.2l-.11,0-.6-.45c-.09-.14-.2-.16-.29-.29s-.12,0-.09-.13a1.19,1.19,0,0,0-.77-.83l-.2-.16c-.2-.15-.51-.32-.72-.47s-.38-.42-.58-.57a1.2,1.2,0,0,0-.92-.63l-.33-.07a.58.58,0,0,1-.4-.3,1.9,1.9,0,0,0-.68-.7c-.11,0-.09-.14-.2-.16a1.42,1.42,0,0,0-.45-.66.41.41,0,0,0-.31-.17.41.41,0,0,0-.05-.35c-.09-.13-.09-.13-.07-.25a.41.41,0,0,0,0-.35,2.86,2.86,0,0,0-.3-.86c0-.35-.34-.64-.3-.86a.11.11,0,0,0-.09-.13c-.09-.14-.18-.27-.16-.38a.79.79,0,0,0,0-.57c0-.12-.07-.25,0-.36s-.05-.35-.14-.48h0c-.09-.14-.07-.25-.16-.38L32,53.74a1,1,0,0,1,0-.58l.1-.56.07-.33,0-.11a.67.67,0,0,0,.19-.42l0-.12a.5.5,0,0,0,.11-.55L32.34,50l0-.23a1.44,1.44,0,0,0,.24-.64.41.41,0,0,1,.17-.31c0-.11.15-.2.06-.34l0-.11a3,3,0,0,0,.41-1c0-.11,0-.11.16-.2s.13-.09.15-.2a1,1,0,0,1,.21-.53l.05-.23A.41.41,0,0,1,34,46a1.88,1.88,0,0,1,.55-.47.41.41,0,0,0,.17-.31,2.61,2.61,0,0,1,.39-.85.11.11,0,0,1,.13-.09,1.72,1.72,0,0,0,.53-.36.87.87,0,0,1,.6-.12c.11,0,.11,0,.24-.07A1.54,1.54,0,0,0,37,43.3c.16-.2.31-.4.64-.34a1,1,0,0,0,.75-.32.88.88,0,0,1,.49-.14c.22,0,.35,0,.6-.12s.37-.16.61-.23.27-.18.29-.29a.77.77,0,0,0,.64-.34L41,41.39a1.94,1.94,0,0,0,.73-.21c.13-.09.26-.18.37-.16l.73-.21.13-.09a.44.44,0,0,0,.36,0,.41.41,0,0,1,.35-.05c.11,0,.33.06.35,0l.32.18a.67.67,0,0,0,.42.19,1.33,1.33,0,0,1,.64.24c.1.13.32.17.52.32s.11,0,.2.16l.22,0,.56.1.22,0a.33.33,0,0,1,.44.09l.34.06a1.42,1.42,0,0,1,.64.23c.23.05.43.2.65.24l.22,0c.33.06.76.26,1.09.32a.41.41,0,0,1,.31.17c.12,0,.09.14.21.16a1,1,0,0,1,.6.45c.09.14.2.16.29.29l.61.46a1.42,1.42,0,0,0,.64.23c.11,0,.2.15.31.18a1,1,0,0,0,.76.25c.11,0,.22,0,.2.15l0,.12c0,.22-.08.44.12.59l.36.53c.09.13.27.4.38.42s.2.15.29.28.19.27.3.29l.2.15c.11,0,.11,0,.2.15a1.72,1.72,0,0,0,.38.42c.09.13.31.17.4.3a1.46,1.46,0,0,0,.39.42,1.1,1.1,0,0,1,.47.55.87.87,0,0,0,.36.52,1,1,0,0,1,.54.8c0,.11.09.13.18.26a.94.94,0,0,1,.45.66l0,.11.45.66.09.13a.62.62,0,0,0,.25.51h0c0,.22.16.37.37.53a1.42,1.42,0,0,1,0,.68l0,.11,0,.23c-.13.09-.15.2-.19.42l-.05.22a1.09,1.09,0,0,0,.46,1.24l.2.15a.34.34,0,0,1-.08.44.52.52,0,0,0-.1.56l-.09.44-.06.34,0,.11a.85.85,0,0,0-.32.51c-.14.09-.05.22-.09.45Z"/><path class="cls-4" d="M48.56,33.31a2.38,2.38,0,0,0,.7-.43c.15-.05.24-.26.39-.31s.35-.21.5-.27.2-.15.45-.16A3,3,0,0,0,52,31.8a.55.55,0,0,1,.4-.06,1.74,1.74,0,0,0,.55-.12l.45-.17s.11.05.15-.05l.76,0c.11.05.15-.06.26,0a.45.45,0,0,1,.35,0l1.07.13.1,0a3.66,3.66,0,0,1,1.53.47,5.52,5.52,0,0,0,1.18.67l.1.05a3,3,0,0,0,.88.53l.61.29a.85.85,0,0,0,.56.14,1.78,1.78,0,0,1,.76.23l.31.14a1.25,1.25,0,0,0,.92.18c.15-.06.35,0,.56.13l.51.24a1.53,1.53,0,0,1,.57.39l.1.05c.31.14.57.39.87.53l.21.1c.1.05.26.24.36.29l.1.05.47.59c.06.15.16.2.21.35a.11.11,0,0,1,.06.15,1.18,1.18,0,0,0,.53,1l.16.2c.16.19.42.44.57.64s.27.5.43.69a1.2,1.2,0,0,0,.73.84l.3.15a.58.58,0,0,1,.32.39,2.07,2.07,0,0,0,.48.85c.1.05.05.15.15.2a1.38,1.38,0,0,0,.28.75.36.36,0,0,0,.26.24.4.4,0,0,0,0,.36c0,.15,0,.15,0,.25a.48.48,0,0,0,0,.36,2.87,2.87,0,0,0,.08.9c0,.36.17.71.07.91a.12.12,0,0,0,.06.15.63.63,0,0,1,.06.41.84.84,0,0,0-.14.56c0,.1,0,.25,0,.35s0,.36,0,.51h0c.05.15,0,.25.06.4l.16.45a1.05,1.05,0,0,1-.13.56l-.24.51-.15.31,0,.1a.73.73,0,0,0-.3.36l0,.1a.51.51,0,0,0-.23.52c0,.35-.09.71-.13,1.06l-.09.21a1.33,1.33,0,0,0-.39.56.4.4,0,0,1-.25.26c0,.11-.19.16-.14.31l-.05.1a3.31,3.31,0,0,0-.63.83c0,.1,0,.1-.2.16s-.15.05-.2.15a1,1,0,0,1-.34.47l-.1.2a.36.36,0,0,1-.24.26,2,2,0,0,1-.65.32.45.45,0,0,0-.25.26,2.67,2.67,0,0,1-.58.73.11.11,0,0,1-.15.05,1.7,1.7,0,0,0-.6.22.87.87,0,0,1-.61,0c-.1,0-.1,0-.25,0a1.66,1.66,0,0,0-.5.27c-.2.16-.4.31-.7.17a1.08,1.08,0,0,0-.81.12.82.82,0,0,1-.51,0c-.2-.1-.35,0-.6,0s-.41.07-.66.07c-.1,0-.3.11-.35.21a.76.76,0,0,0-.7.18l0,.15a1.59,1.59,0,0,0-.75,0,.63.63,0,0,1-.41.06l-.75,0-.15.05a.48.48,0,0,0-.36,0,.38.38,0,0,1-.35,0c-.11,0-.31-.14-.36,0l-.26-.25c-.05-.15-.26-.24-.36-.29a1.36,1.36,0,0,1-.57-.39c-.05-.15-.26-.24-.41-.44s-.11-.05-.16-.2l-.21-.09-.51-.24-.2-.1a.34.34,0,0,1-.41-.19l-.31-.14a1.46,1.46,0,0,1-.57-.39c-.2-.1-.36-.3-.56-.39l-.21-.1c-.31-.14-.67-.43-1-.58a.37.37,0,0,1-.25-.24c-.11,0-.06-.15-.16-.2a1,1,0,0,1-.47-.59c-.06-.15-.16-.2-.22-.35l-.47-.6a1.53,1.53,0,0,0-.56-.39c-.11,0-.16-.19-.26-.24a1,1,0,0,0-.67-.44c-.1-.05-.21-.09-.16-.2l0-.1c.09-.2.19-.41,0-.61l-.22-.6c-.05-.15-.16-.45-.26-.49s-.16-.2-.21-.35-.11-.3-.22-.35l-.15-.2c-.11,0-.11,0-.16-.2a1.52,1.52,0,0,0-.27-.49c0-.16-.26-.25-.31-.4a1.66,1.66,0,0,0-.27-.5,1.21,1.21,0,0,1-.32-.65.89.89,0,0,0-.22-.6,1,1,0,0,1-.33-.9c.05-.1,0-.15-.1-.3a1,1,0,0,1-.28-.75l0-.1-.27-.75-.06-.15a.63.63,0,0,0-.11-.56h0c.09-.2-.07-.4-.22-.6a1.44,1.44,0,0,1,.18-.66l0-.1.09-.21c.15-.05.2-.15.3-.36l.09-.2a1.08,1.08,0,0,0-.13-1.32l-.16-.19a.34.34,0,0,1,.19-.41.52.52,0,0,0,.24-.52l.19-.41.14-.3,0-.1a.89.89,0,0,0,.44-.42c.15-.06.1-.21.2-.41Z"/><path class="cls-4" d="M44.64,57.2a1.67,1.67,0,0,0-.12-.59c0-.12-.12-.24-.13-.35s-.06-.3-.06-.41-.06-.18,0-.36a2.19,2.19,0,0,0,.1-1.06.49.49,0,0,1,0-.29,1.17,1.17,0,0,0,.06-.42v-.35a.08.08,0,0,0,0-.12l.17-.53c.06-.06,0-.12.06-.17a.28.28,0,0,1,.11-.24l.34-.71.06-.06a2.72,2.72,0,0,1,.7-.95,3.94,3.94,0,0,0,.75-.66l.06-.06a2.25,2.25,0,0,0,.58-.48l.35-.36c.12-.12.23-.23.23-.35a1.42,1.42,0,0,1,.35-.48l.17-.18a.88.88,0,0,0,.35-.59c0-.12.11-.24.23-.36l.29-.29a1,1,0,0,1,.41-.3l0-.06c.18-.18.41-.3.59-.48l.11-.12c.06-.06.23-.12.29-.18l.06-.06.53-.18c.12,0,.17-.07.29-.07a.08.08,0,0,1,.12,0,.85.85,0,0,0,.82-.13l.18-.06c.17-.06.41-.18.58-.24s.41-.07.59-.13a.88.88,0,0,0,.76-.3l.17-.18a.44.44,0,0,1,.36-.12,1.58,1.58,0,0,0,.7-.13c.06-.06.12,0,.18-.06a1,1,0,0,0,.58,0,.31.31,0,0,0,.24-.12.27.27,0,0,0,.23.11c.12,0,.12,0,.18.06a.31.31,0,0,0,.24.12,2.07,2.07,0,0,0,.65.16c.23.12.53.05.65.17a.07.07,0,0,0,.11,0,.52.52,0,0,1,.3.05c.12.12.24.24.36.23s.17.06.23.12.24.11.36.11h0c.12,0,.17.06.29.06h.36a.86.86,0,0,1,.35.23l.3.29.18.18.06.05a.51.51,0,0,0,.18.3l.06.05c0,.12.12.24.3.29l.71.35.12.11a1,1,0,0,0,.3.41.31.31,0,0,1,.12.24c.06,0,.06.17.18.17l.06.06a2.37,2.37,0,0,0,.42.64c.06.06.06.06.06.18s0,.11.06.17a.79.79,0,0,1,.24.35l.12.12a.29.29,0,0,1,.12.23,1.43,1.43,0,0,1,.06.53.34.34,0,0,0,.12.23,2.19,2.19,0,0,1,.37.59.07.07,0,0,1,0,.11,1.28,1.28,0,0,0,0,.48.58.58,0,0,1-.17.41c-.06.06-.06.06,0,.18a1.15,1.15,0,0,0,.06.41.46.46,0,0,1,0,.53.74.74,0,0,0-.11.59.69.69,0,0,1-.11.35c-.12.12-.12.24-.17.42s-.06.29-.12.47,0,.23.07.29a.52.52,0,0,0,0,.53h.11a1.53,1.53,0,0,0-.17.53c0,.12,0,.24,0,.3l-.17.53v.12a.27.27,0,0,0-.11.23.31.31,0,0,1-.12.24c-.06.06-.17.18-.11.24l-.24.12c-.11,0-.23.12-.29.18a1,1,0,0,1-.41.3c-.11,0-.23.12-.41.18s0,.06-.17.06l-.12.12-.29.3-.11.12a.26.26,0,0,1-.24.24l-.17.18a1.15,1.15,0,0,1-.41.3c-.11.11-.29.18-.41.3l-.11.11c-.18.18-.47.36-.64.54a.31.31,0,0,1-.24.12c-.05.06-.11,0-.17.06a.71.71,0,0,1-.53.19c-.12,0-.17.06-.29.06l-.53.18a1.4,1.4,0,0,0-.41.3c-.05.06-.17.07-.23.13a.74.74,0,0,0-.47.35c0,.06-.11.12-.17.07L57,62.21c-.12-.12-.24-.23-.42-.17h-.47a.86.86,0,0,0-.41.07.42.42,0,0,1-.29.06c-.12,0-.24,0-.29.06l-.18.06c-.06.06-.06.06-.18.07a1.15,1.15,0,0,0-.41.06c-.11,0-.23.12-.35.12a1.17,1.17,0,0,0-.41.07.81.81,0,0,1-.53.06.69.69,0,0,0-.47,0,.75.75,0,0,1-.7,0c-.06-.06-.12,0-.24,0a.68.68,0,0,1-.59,0L51,62.64h-.7a.46.46,0,0,0-.42,0h0c-.12-.12-.29-.06-.47,0a1.07,1.07,0,0,1-.41-.28l-.06-.06-.12-.12c0-.12-.06-.17-.18-.29l-.12-.12a.8.8,0,0,0-.95-.22l-.17.06a.25.25,0,0,1-.24-.23c-.06-.18-.18-.29-.3-.29l-.24-.23-.17-.18-.06,0a.67.67,0,0,0-.19-.41c0-.12-.12-.12-.23-.24Z"/><path class="cls-4" d="M33.69,49.08a2.35,2.35,0,0,0-.06-.81c0-.16-.12-.34-.1-.49s0-.41,0-.57-.05-.25,0-.48a2.82,2.82,0,0,0,.34-1.4c0-.16,0-.32.13-.39a1.57,1.57,0,0,0,.15-.55l.06-.47a.11.11,0,0,0,0-.16l.32-.68c.09-.07,0-.16.11-.23a.42.42,0,0,1,.2-.3l.59-.89.09-.07a3.57,3.57,0,0,1,1.11-1.15,5.48,5.48,0,0,0,1.14-.75l.09-.07a3.07,3.07,0,0,0,.87-.53l.54-.42c.17-.14.35-.28.37-.44a2,2,0,0,1,.56-.57l.26-.21c.27-.21.54-.42.58-.73,0-.16.2-.3.38-.44l.44-.35a1.45,1.45,0,0,1,.61-.33l.08-.06c.27-.21.61-.33.88-.54l.17-.14c.09-.07.34-.12.43-.19l.09-.07.74-.15c.16,0,.25-.05.41,0a.11.11,0,0,1,.16,0,1.16,1.16,0,0,0,1.13,0l.25-.05c.24,0,.58-.17.83-.22s.56,0,.81-.06a1.22,1.22,0,0,0,1.08-.27l.27-.2a.58.58,0,0,1,.49-.1,2.18,2.18,0,0,0,1,0c.08-.07.15,0,.24,0a1.46,1.46,0,0,0,.8.09.41.41,0,0,0,.33-.12.42.42,0,0,0,.3.2c.16,0,.16,0,.23.11a.42.42,0,0,0,.3.2,2.69,2.69,0,0,0,.84.35c.3.19.7.16.84.34a.11.11,0,0,0,.16,0c.16,0,.32,0,.39.13s.28.36.43.38.23.1.3.19.3.2.46.22h0c.16,0,.23.11.38.13l.48.06a1,1,0,0,1,.44.38l.34.44.21.27.07.09a.66.66,0,0,0,.19.42l.07.09c0,.16.12.34.35.45l.89.59.14.18a1.45,1.45,0,0,0,.33.61.39.39,0,0,1,.12.33c.07.09,0,.25.2.27l.07.09a3.27,3.27,0,0,0,.45.94c.07.09.07.09,0,.25s0,.16.05.25a1,1,0,0,1,.26.51l.14.18a.42.42,0,0,1,.12.34,2,2,0,0,1,0,.72.42.42,0,0,0,.12.34,2.74,2.74,0,0,1,.37.85.11.11,0,0,1,0,.16,1.68,1.68,0,0,0-.07.63.87.87,0,0,1-.31.53c-.09.07-.09.07-.11.23a1.52,1.52,0,0,0,0,.56c0,.25.1.5-.17.7a1,1,0,0,0-.25.78.83.83,0,0,1-.22.45c-.18.14-.2.3-.31.53s-.13.39-.24.61,0,.32,0,.41a.77.77,0,0,0-.16.7l.15,0a2,2,0,0,0-.32.69c0,.16,0,.32-.13.39l-.33.68,0,.16a.41.41,0,0,0-.19.3.42.42,0,0,1-.2.29c-.09.07-.27.21-.2.3l-.34.12a.66.66,0,0,0-.42.19,1.45,1.45,0,0,1-.61.33c-.16,0-.33.12-.58.17-.09.06-.09.06-.25,0l-.18.14-.44.35-.18.14a.35.35,0,0,1-.36.28l-.27.21a1.34,1.34,0,0,1-.6.32c-.18.14-.43.19-.61.33l-.17.14c-.27.21-.7.4-1,.61a.42.42,0,0,1-.34.12c-.09.07-.16,0-.25,0a1,1,0,0,1-.74.14c-.16,0-.25.05-.41,0l-.74.15a1.45,1.45,0,0,0-.61.33c-.09.07-.24,0-.33.12a1,1,0,0,0-.7.4c-.09.07-.17.14-.24.05l-.07-.09c-.14-.18-.28-.36-.53-.31l-.63-.08c-.16,0-.48-.06-.57,0a.6.6,0,0,1-.41,0,.58.58,0,0,0-.4,0l-.25.05c-.09.07-.09.07-.25,0a1.52,1.52,0,0,0-.56,0c-.16,0-.34.12-.5.1a1.52,1.52,0,0,0-.56,0,1.21,1.21,0,0,1-.73,0,.86.86,0,0,0-.63-.08,1,1,0,0,1-.95-.12c-.07-.09-.16,0-.32,0a.91.91,0,0,1-.79-.1l-.07-.09-.8-.1-.15,0a.61.61,0,0,0-.55-.14h0c-.14-.18-.39-.13-.63-.08a1.45,1.45,0,0,1-.51-.47l-.07-.09-.14-.18c0-.15,0-.24-.19-.42L38,55.9a1.08,1.08,0,0,0-1.23-.48l-.24,0a.34.34,0,0,1-.28-.35c-.05-.25-.19-.43-.35-.45l-.28-.35-.2-.27L35.34,54a.87.87,0,0,0-.17-.59c0-.15-.14-.17-.28-.35Z"/><path class="cls-1" d="M47.38,60.45a1.62,1.62,0,0,0-.57.07h-1a1.71,1.71,0,0,0-.85-.15.27.27,0,0,1-.22-.07.65.65,0,0,0-.36-.07.42.42,0,0,1-.28-.07H44A1.08,1.08,0,0,0,43.6,60c-.07,0-.07,0-.14-.07s-.15-.08-.22-.08a4.16,4.16,0,0,0-.57-.28.07.07,0,0,1-.07-.07A1.28,1.28,0,0,1,42,59a5.15,5.15,0,0,0-.43-.58V58.3a1,1,0,0,0-.29-.43L41,57.59l-.22-.22a1.88,1.88,0,0,1-.36-.28L40.24,57c-.07-.15-.29-.22-.43-.29s-.14-.07-.21-.14l-.22-.22a.53.53,0,0,1-.14-.28v-.08a1.33,1.33,0,0,0-.29-.42l-.07-.08c0-.07-.07-.14-.07-.21v-.71c.22-.15.14-.36.07-.58V53.8c0-.14-.07-.28-.07-.43a1,1,0,0,1,.07-.43.55.55,0,0,0-.07-.57l-.07-.14c-.07-.07-.07-.14-.07-.29a1.21,1.21,0,0,0,.07-.5c0-.07,0-.07.07-.14a.52.52,0,0,0,.14-.43c0-.07,0-.14-.07-.14a.16.16,0,0,0,.15-.14c0-.07.07-.07.07-.15a.15.15,0,0,0,.14-.14,1.63,1.63,0,0,0,.29-.43c.14-.14.14-.35.28-.5,0,0,.07-.07,0-.07s.07-.14.15-.21a.57.57,0,0,0,.28-.29l.14-.14c.08-.07.15-.14.15-.22h0c0-.07.07-.14.14-.21s.07-.14.07-.21A.78.78,0,0,1,41,47.8c.14-.07.21-.14.35-.21s.15-.07.22-.15h.07A.4.4,0,0,0,42,47.3H42a.36.36,0,0,0,.28-.14c.15-.14.29-.36.43-.5s.07-.07.14-.07l.43-.22c.07-.07.15-.07.29-.07s.14-.07.21-.07l.07-.07.65-.22h.28a.56.56,0,0,1,.36-.14c.07,0,.07,0,.14-.07a.28.28,0,0,1,.22-.07H46a.26.26,0,0,0,.21-.07c.22-.07.36-.15.57-.22h.07c.15,0,.29.07.43.07a.55.55,0,0,1,.36.15.24.24,0,0,0,.14.07h.36a.64.64,0,0,1,.5.07,1.34,1.34,0,0,0,.5.14.38.38,0,0,1,.29.15.36.36,0,0,0,.28.14,1,1,0,0,1,.43.14h.29a.46.46,0,0,0,.42.07V46.3a1.08,1.08,0,0,0,.43.14.4.4,0,0,1,.29.08c.14.07.29.07.43.14h.07l.14.14c.07.07.15.07.22.14s.14.08.21.15l.07.14c0,.07.07.14.15.21a.6.6,0,0,1,.14.29.46.46,0,0,0,.07.29c0,.07,0,.07.07.14a.07.07,0,0,0,.07.07l.22.21.07.08c.07,0,.14.07.14.21a.24.24,0,0,0,.07.14.58.58,0,0,1,.15.29c.07.07.07.21.14.28s.07.08.07.15.21.35.29.5a.26.26,0,0,1,.07.21v.14a.82.82,0,0,1,.07.36V51a.52.52,0,0,0,.07.35c.07.15.07.22.14.29a.24.24,0,0,0,.07.14.57.57,0,0,0,.15.36c.07,0,.07.07,0,.14l-.07.07c-.15.07-.22.15-.22.29s-.07.21-.14.36a.42.42,0,0,0-.07.28v.64c0,.08-.07.15-.07.29v.21a.21.21,0,0,0,0,.29.83.83,0,0,1-.08.43.54.54,0,0,0-.07.36.7.7,0,0,1-.14.5c-.07.07-.07.14,0,.14s-.07.28-.07.43l-.07.07-.15.43a.07.07,0,0,1-.07.07.37.37,0,0,0-.14.29h0a.17.17,0,0,0-.07.28.74.74,0,0,1-.36.29.07.07,0,0,0-.07.07c-.07.07-.07.07-.14.07s-.22.07-.29.07-.07.07-.14.07a.63.63,0,0,0-.43.65v.14a.37.37,0,0,1-.29.14.38.38,0,0,0-.35.22c-.08.07-.15.07-.22.14s-.14.07-.21.07H51a.54.54,0,0,0-.36.07c-.07,0-.22.07-.22.14Z"/><path class="cls-4" d="M45.4,58.26a.86.86,0,0,1,0-.23v0c0-.11-.05-.23-.09-.34l0-.07s0-.12,0-.15l0,0,0-.21s0,0,0,0l-.07,0L45,57.05l-.07,0a.1.1,0,0,1-.13-.06l-.11-.06a.44.44,0,0,1-.18-.13c-.07,0-.12-.1-.19-.14l-.07,0c-.1-.05-.22-.15-.32-.2a.19.19,0,0,1-.09-.09s0,0,0-.07a.36.36,0,0,1-.15-.2c0-.05-.05-.07-.07-.12l-.15-.2a.52.52,0,0,0-.19-.14s0-.07-.08-.08-.14-.16-.22-.16-.07,0-.05-.06v0c0-.07.07-.13,0-.2l-.07-.21a.38.38,0,0,0-.08-.17s-.05-.06-.07-.11,0-.11-.07-.12l0-.07s0,0-.05-.07a.63.63,0,0,0-.08-.17S42.3,54,42.28,54a.37.37,0,0,0-.08-.17.4.4,0,0,1-.1-.22.31.31,0,0,0-.07-.21.31.31,0,0,1-.1-.3s0,0,0-.11a.3.3,0,0,1-.08-.25l0,0-.09-.26,0,0a.2.2,0,0,0,0-.19.12.12,0,0,0,0-.1l-.1-.08a.54.54,0,0,1-.15-.18l0,0c-.08-.07-.15-.18-.23-.25l-.06-.05s-.06-.1-.09-.13l0,0-.1-.23c0-.06,0-.08,0-.14s0,0,0-.05v0l0,0-.07.08-.12.15a.37.37,0,0,0-.1.17l0,.16s0,.08,0,.14,0,.11,0,.16,0,.08,0,.11,0,.11-.1.17a.21.21,0,0,0,0,.14s0,0,0,.05,0,.19,0,.3a.89.89,0,0,1-.06.3.11.11,0,0,1,0,.11s0,0,0,.09a.14.14,0,0,1,0,.11.12.12,0,0,1,.06.1.42.42,0,0,1,0,.27s0,.05,0,.08a.71.71,0,0,1,.08.31.21.21,0,0,0,.07.16l.08.07a.44.44,0,0,1,.17.34c0,.08,0,.18.07.26s.1.18.13.26l0,.08a.38.38,0,0,1,.08.37,0,0,0,0,0,0,.05s0,.08,0,.13l.1.24,0,0,.1.13,0,.05c.09.07.15.17.24.25l0,0a.44.44,0,0,0,.15.18l.14.12c.06,0,.12.1.17.09a.4.4,0,0,1,.28.14l.09.07a.7.7,0,0,0,.23.15s.11,0,.17.09l.17.15a.82.82,0,0,1,.24.25l0,0a2.42,2.42,0,0,1,.32.32,1.12,1.12,0,0,0,.45.29l0,0,.34.14a.18.18,0,0,0,.11,0s0,0,.08,0l.25.06s0,0,0,0l.16,0a.64.64,0,0,1,.19,0s.09,0,.14,0l.15,0a.59.59,0,0,0,0-.08Z"/></svg>