<?xml version="1.0" encoding="utf-8"?>
<!-- Generator: Adobe Illustrator 23.1.1, SVG Export Plug-In . SVG Version: 6.00 Build 0)  -->
<svg version="1.1" id="base" xmlns="http://www.w3.org/2000/svg" xmlns:xlink="http://www.w3.org/1999/xlink" x="0px" y="0px"
	 viewBox="0 0 100 100" style="enable-background:new 0 0 100 100;" xml:space="preserve">
<style type="text/css">
	.st0{fill:#FF3366;}
</style>
<title>c 2</title>
<path class="st0" d="M3.1,38.5c0.5-0.4,0.8-1,1-1.6c0.3-0.6,0.4-1.2,0.4-1.8c0-0.1,0-0.2,0.1-0.3c0.2-0.2,0.3-0.5,0.3-0.8
	c0.1-0.6,0.2-1.2,0.3-1.8c0.1-0.3,0.2-0.6,0.4-0.9C5.9,31,6,30.6,6,30.1c0-0.3,0.1-0.6,0.4-0.7c0.1,0,0.1-0.1,0.2-0.1
	c0-0.2-0.1-0.2-0.2-0.2c-0.5,0-0.8-0.4-1.1-0.8c-0.1-0.1-0.1-0.2,0-0.3c0.2-0.3,0.1-0.7,0.4-1c0.2-0.3,0.5-0.6,0.8-0.8
	c0.4-0.3,0.8-0.7,1.2-1c0.1-0.1,0.2-0.2,0.2-0.4c0-0.5,0.1-0.9,0.3-1.3c0-0.1,0.1-0.1,0.1-0.2c0-0.7,0.2-1.3,0.5-1.9
	c0.1-0.2,0.1-0.4,0-0.6c-0.1-0.5-0.1-0.9,0.2-1.3c0,0,0.1-0.1,0.1-0.1c0.3-0.6,0.4-0.6,0.9-0.2c0.3,0.2,0.5,0.4,0.8,0.7
	c0.1-0.1,0.2-0.2,0.3-0.3c0.2-0.2,0.4-0.4,0.6-0.5c0.2-0.1,0.3-0.4,0.5-0.6c0.3-0.2,0.7-0.3,0.8-0.7c0-0.1,0.1-0.1,0.2-0.2
	c0.8-0.5,1.4-1.2,1.9-1.9c0.2-0.3,0.4-0.5,0.7-0.6c0.7-0.5,1.3-1,1.9-1.7c0.1-0.1,0.2-0.2,0.3-0.2c0.1-0.1,0.2-0.2,0.4-0.3
	c0.1-0.1,0.2-0.2,0.3-0.3c0.4-0.3,0.8-0.6,1.3-0.9c0.1-0.1,0.2-0.2,0.2-0.4c0.1-0.3,0.2-0.7,0.3-1.1c0-0.2,0.1-0.4,0.4-0.5
	c0.3,0,0.4-0.2,0.5-0.5c0-0.1,0-0.2,0-0.3c0.1-0.5,0.5-0.9,1-0.8c0.2,0,0.4,0.1,0.6,0.1c0.4,0.3,0.9,0.2,1.3-0.2
	C24.4,8,24.8,7.9,25.1,8c0.2,0.1,0.4,0,0.5-0.1c0.3-0.2,0.6-0.3,0.9-0.4c0.3-0.1,0.6-0.2,0.9-0.3C27.6,7.1,27.8,7.1,28,7
	c0.1,0,0.2,0,0.3-0.1c0.3-0.4,0.9-0.3,1.1-0.7c0-0.1,0.1-0.1,0.2-0.1c0.4,0.1,0.8-0.2,1.2-0.1c0.1,0,0.3,0,0.4-0.1
	c0.4-0.2,0.7-0.5,1.1-0.7c0.4-0.3,0.8-0.6,1.3-0.8c0.5-0.3,1.1-0.4,1.6-0.3c0.3,0,0.6,0.1,0.9-0.1c0.6,0,1-0.4,1.6-0.3
	c0.1,0,0.3-0.1,0.4-0.2c0.1-0.1,0.2-0.3,0.4-0.4c0.1-0.1,0.2-0.2,0.4-0.2c0.6,0,1.1-0.2,1.6-0.5c0,0,0.1,0,0.1,0
	c0.3,0.2,0.7,0.3,1.1,0.2c0.3-0.1,0.6-0.1,0.8,0.1c0.1,0.1,0.3,0,0.5,0c0.3-0.1,0.6-0.1,0.9,0c0.5,0.1,1,0.1,1.4-0.2
	c0.3-0.2,0.6-0.3,0.9-0.3c0.2,0,0.3-0.1,0.5-0.1c0.2-0.1,0.5-0.1,0.8-0.1c0.3,0,0.7,0.1,1,0.1c0.1,0,0.2,0,0.3,0
	c0.5,0.1,1,0,1.5-0.3c0.3-0.1,0.7-0.2,1-0.1c0.1,0,0.2,0.1,0.3,0.2L52.6,1C52.7,1,53,1.2,53.1,1.1c0.2,0,0.4,0,0.6,0
	c0,0,0.1,0,0.1,0c0.4-0.4,1.1-0.3,1.5-0.6c0.1-0.1,0.2-0.1,0.3-0.1c0.1,0,0.3,0,0.4-0.1c0.3-0.2,0.8-0.2,1.1-0.1c0,0,0.1,0,0.1,0
	c0.4-0.2,0.9,0,1.2,0.3c0.2,0.1,0.4,0.2,0.5,0.3c0.4,0.4,1,0.6,1.5,0.5c0.2,0,0.3,0,0.5,0.1C61.6,1.6,62,1.8,62.4,2
	c0.3,0.2,0.7,0.2,0.9,0.6c0.1,0.1,0.2,0.2,0.3,0.2c0.9,0.3,1.8,0.7,2.7,1.1c0,0,0,0,0.1,0c0.3,0.3,0.6,0.5,0.9,0.7
	c0.3,0.2,0.7,0.4,1,0.6c0.3,0.3,0.7,0.5,1.1,0.6c0.3,0.1,0.5,0.2,0.7,0.4c0.3,0.3,0.7,0.6,1.1,0.7c0.2,0.1,0.3,0.2,0.4,0.3
	C72,7.7,72.4,8.1,73,8.4c0.1,0.1,0.2,0.2,0.3,0.3c0.2,0.3,0.4,0.5,0.7,0.6c0.6-0.3,1.2,0,1.9-0.1c0.4,0.2,0.8,0.4,1.1,0.6
	c0.1,0.1,0.2,0.2,0.2,0.2c0.3-0.1,0.5,0.1,0.7,0.3c0.1,0.1,0.2,0.1,0.3,0.2c0.4,0.2,0.8,0.5,1,0.9c0.2,0.4,0.6,0.7,0.9,1
	c0.5,0.3,1.1,0.5,1.6,0.7c0.5,0.2,1,0.3,1.5,0.5c0.4,0.1,0.7,0.3,1,0.5c0.1,0.1,0.2,0.2,0.4,0.2c0.2,0.1,0.5,0.1,0.7,0.2
	c0.2,0.6,0.8,0.8,1.4,0.8v0.4c0.5,0.4,0.9,0.8,1.4,1.1c0.7,0.4,1,1.3,0.6,2c0,0,0,0.1-0.1,0.1c0,0.1-0.1,0.1-0.1,0.2
	c0.1,0.1,0.2,0.3,0.3,0.4c0,0.2,0.1,0.3,0.1,0.5c0,0.1,0.1,0.3,0.1,0.4c0,0.1,0.1,0.2,0.1,0.3c-0.1,0.5,0,1,0.3,1.5
	c0.2,0.4,0.4,0.9,0.6,1.3c0.1,0.3,0.3,0.6,0.6,0.8c0.2,0.1,0.3,0.2,0.4,0.4c0.3,0.3,0.7,0.6,1,0.8c0.1,0.1,0.2,0.2,0.3,0.3
	c0.1,0.3,0.3,0.5,0.6,0.7c0.3,0.2,0.6,0.4,0.9,0.7c0,0.1,0.1,0.1,0.1,0.1c0.6,0,0.6,0.6,0.9,0.9c0.2,0.4,0.3,0.8,0.2,1.2
	c0,0.3,0,0.6,0,0.9c0,0.4-0.1,0.9-0.2,1.3c0,0.1-0.1,0.3,0,0.4c0.3,0.4,0.1,0.8,0.1,1.2c0,0.1,0,0.2-0.1,0.3
	c0.2,0.2,0.4,0.3,0.4,0.6c0,0,0,0,0,0.1c0.1,0.1,0.3,0.3,0.4,0.5c0.1,0.2,0,0.4,0.1,0.6c0.1,0.2,0.2,0.3,0.3,0.5
	c0.2,0.2,0.3,0.4,0.5,0.5c0.1,0.1,0.1,0.2,0.1,0.3c-0.1,0.3,0.2,0.5,0.3,0.8c-0.4,0.5-0.2,1.1-0.3,1.7c0,0.1,0,0.2,0.1,0.3
	c0.1,0.2,0.2,0.3,0.2,0.5c0,0,0,0,0,0.1c0.4,0.3,0.3,0.7,0.5,1.1c0.1,0.1,0.1,0.3,0.2,0.4l-0.1,0.4c0.2,0.3,0.4,0.6,0.7,0.8
	c0.3,0.1,0.3,0.5,0.2,0.8l0.9,0.3c0,0.1-0.1,0.2-0.1,0.3c0,0.1-0.1,0.2-0.1,0.3c-0.1,0.3,0.2,0.6,0.3,0.9c0.1,0.3,0,0.6,0.3,0.8
	c0.3,0.4,0.5,0.9,0.5,1.4c0.1,0.6,0.1,1.2,0.1,1.8c0,0.1,0,0.1,0,0.2c-0.2,0.2-0.2,0.5-0.1,0.8c0.1,0.3,0.1,0.7,0,1
	c0,0.1,0,0.2,0,0.3c0.1,0.2,0,0.5-0.1,0.7c-0.1,0.2-0.2,0.5-0.1,0.7c0,0.2,0.1,0.4,0.1,0.7c0,0.2,0,0.3,0,0.5
	c-0.2,0.4-0.2,0.9-0.4,1.2c-0.2,0.2-0.1,0.5,0,0.7c0,0.3,0.1,0.5,0.1,0.8c0,0.1,0,0.2-0.1,0.4c-0.2,0.3-0.2,0.6-0.3,1
	c0,0.3-0.1,0.7,0,1c0.1,0.7-0.1,1.4-0.4,2c-0.1,0.2-0.2,0.4-0.3,0.6c-0.2,0.4-0.3,0.9-0.3,1.3c0.1,0.7,0,1.5-0.3,2.2
	c-0.1,0.4-0.3,0.8-0.5,1.2c-0.2,0.4-0.3,0.9-0.1,1.3c-0.4,0.4-0.5,0.9-0.5,1.4c0,0.4-0.2,0.8-0.5,1c-0.3,0.2-0.4,0.6-0.3,0.9
	c0,0.2,0,0.5-0.1,0.7c-0.1,0.3-0.2,0.6-0.3,1c0,0.1,0,0.2,0,0.2c-0.4,0.8-0.9,1.6-1.6,2.3c-0.1,0.1-0.3,0.2-0.4,0.2
	c-0.2,0-0.5,0.2-0.6,0.4c-0.4,0.5-0.8,0.9-1.3,1.3c-0.2,0.2-0.6,0.4-0.9,0.5c-0.4,0.1-0.7,0.4-0.8,0.8c-0.1,0.3-0.1,0.6-0.2,0.8
	c-0.1,0.5-0.3,0.9-0.6,1.3c-0.2,0.3-0.5,0.6-0.7,1c0,0.1-0.1,0.1-0.1,0.2c-0.3,0.3-0.6,0.6-0.7,1c-0.1,0.1-0.2,0.2-0.3,0.3
	c-0.4,0.3-0.9,0.6-1.3,1c-0.1,0.2-0.1,0.4-0.2,0.6c-0.1,0.3-0.3,0.5-0.6,0.6c-0.4,0.1-0.7,0.2-0.9,0.5c-0.1,0.1-0.2,0.1-0.3,0.1
	c-0.2,0.1-0.5,0.3-0.7,0.4c-0.3,0.2-0.7,0.4-1.1,0.5c-0.7,0.1-0.8,0.3-0.8,0.9c0,0.4-0.2,0.8-0.5,1c-0.3,0.1-0.3,0.5-0.5,0.7
	c-0.2,0.2-0.5,0.3-0.6,0.5c-0.3,0.4-0.6,0.7-1,1c-0.4,0.2-0.7,0.5-0.9,0.9c-0.3,0.4-0.7,0.6-1.1,0.8c-0.6,0.2-1.2,0.6-1.7,1
	c-0.4,0.3-0.8,0.5-1.2,0.7c-0.2,0.1-0.5,0.2-0.7,0.1c-0.3-0.1-0.6,0-0.8,0.2c-0.5,0.4-1,0.8-1.6,1.2c-0.2,0.1-0.5,0.2-0.7,0.2
	c-0.6,0-1.1,0-1.7,0c-0.7,0-1.3,0.2-1.8,0.6c-0.5,0.3-1.1,0.6-1.5,1c-0.2,0.2-0.5,0.1-0.7,0.3c-0.2,0.1-0.3,0.4-0.5,0.5
	c-0.4,0.1-0.7,0.3-1.1,0.3c-0.1,0-0.3,0-0.4,0.1c-0.6,0.2-1.3,0.3-1.9,0.2c-0.5,0-0.9,0.1-1.3,0.3c-0.2,0.1-0.3,0.1-0.5,0.1
	c-0.3,0-0.5,0.1-0.8,0.1c-0.1,0-0.1,0-0.2,0c-0.6-0.1-1.2-0.1-1.8-0.2c-0.4,0-0.8,0.1-1.1,0.3c-0.3,0.2-0.6,0.5-1,0.8
	c-0.1,0-0.3,0-0.4,0.1c-0.2,0.1-0.4,0-0.6-0.1c-0.4-0.1-0.8-0.3-1.2-0.4c-0.4-0.1-0.8-0.3-1.1-0.5c-0.2-0.2-0.4-0.2-0.7-0.2
	c-0.5,0-1-0.2-1.4-0.4c-0.3-0.2-0.6-0.3-0.8-0.5c-0.2-0.2-0.5-0.2-0.7-0.1c-0.2,0-0.4,0-0.6,0c-0.2,0-0.3-0.1-0.5-0.1
	c-0.6,0-1.2-0.1-1.7-0.3c-0.6-0.2-1.2-0.2-1.9-0.1c-0.2,0.1-0.4,0-0.5-0.1c-0.1-0.1-0.2-0.1-0.3-0.1c-0.2,0-0.4,0-0.5-0.2
	c-0.1-0.1-0.2-0.1-0.4-0.2c-0.2-0.1-0.5-0.2-0.7-0.3c-0.4-0.2-0.8-0.3-1.2-0.2c-0.2,0-0.4,0.1-0.6,0.2c-0.3,0.1-0.5,0.1-0.8-0.1
	c-0.3-0.2-0.7-0.2-1.1-0.2c-0.3,0.1-0.6,0-0.9-0.2c-0.2-0.2-0.5-0.4-0.8-0.4c-0.3-0.1-0.7-0.2-1-0.3c-0.3-0.1-0.7-0.2-1-0.2
	c-0.1,0-0.1,0-0.2,0c-0.6,0.2-1.3,0.2-1.8-0.1c-0.2-0.1-0.5-0.2-0.7-0.2c-0.5-0.1-1-0.2-1.6-0.3c-0.1,0-0.2-0.1-0.3-0.2
	c-0.1-0.1-0.1-0.1-0.1-0.2c-0.3-0.5-0.9-0.8-1.4-0.7c-0.1,0-0.2,0-0.3,0c-0.4-0.5-1.1-0.7-1.4-1.3c-0.2-0.3-0.4-0.6-0.6-0.9
	c-0.2-0.2-0.4-0.5-0.5-0.8c-0.1-0.2-0.3-0.4-0.5-0.5c-0.4-0.1-0.7-0.4-0.9-0.8c-0.2-0.3-0.5-0.6-0.6-0.9c-0.1-0.2-0.3-0.4-0.5-0.4
	c-0.4-0.2-0.8-0.3-1.2-0.4c-0.3-0.1-0.6-0.3-0.8-0.6c-0.2-0.3-0.3-0.5-0.5-0.8c-0.3-0.5-0.6-1-1-1.4c-0.3-0.3-0.8-0.6-1.2-0.8
	c-0.3-0.2-0.7-0.3-1-0.4c-0.4-0.1-0.7-0.4-0.8-0.7c-0.1-0.2-0.2-0.3-0.3-0.3c-0.5-0.3-0.9-0.6-1.3-1c-0.4-0.4-0.8-0.7-1.1-1.1
	c-0.2-0.2-0.2-0.4-0.4-0.5c-0.4-0.3-0.7-0.8-0.9-1.2c-0.1-0.1-0.1-0.3-0.2-0.5c0-0.1-0.1-0.3-0.2-0.4c-0.3-0.4-0.6-0.8-0.7-1.3
	c0-0.1-0.1-0.2-0.1-0.3c-0.4-0.7-0.8-1.5-1.1-2.3c-0.2-0.4-0.4-0.8-0.6-1.3c-0.2-0.5-0.4-1.1-0.5-1.6c0-0.1,0-0.3,0-0.4
	c0-0.1-0.1-0.3-0.1-0.4c-0.3-0.6-0.7-1.2-1.1-1.8c-0.3-0.4-0.6-1-0.6-1.5c-0.2-0.9-0.5-1.8-1.1-2.5c-0.2-0.3-0.3-0.5-0.4-0.8
	C3.1,63,3,62.7,2.8,62.5c-0.2-0.4-0.4-0.8-0.7-1.1c-0.4-0.6-0.5-1.3-0.4-2c0.1-0.4,0.3-0.6,0.7-0.7c0.3,0,0.4-0.2,0.4-0.5
	c0-0.2,0.1-0.3,0.1-0.5c0.2-0.4,0.3-1,0.2-1.5c-0.1-0.4-0.2-0.8-0.4-1.2c-0.2-0.4-0.3-0.8-0.4-1.2c-0.1-0.7-0.3-1.4-0.6-2.1
	c-0.5-0.8-0.8-1.6-1.3-2.3c-0.2-0.5-0.3-1-0.4-1.5c-0.1-0.3,0.1-0.6,0.4-0.7c0.4-0.1,0.6-0.4,0.6-0.8c0.1-0.4,0.2-0.7,0.3-1
	c0.4-1.1,0.6-2.2,0.9-3.3c-0.1-0.4,0.1-0.7,0.2-1c0-0.1,0.1-0.3,0.1-0.4c0-0.1,0-0.3,0-0.4C2.9,40,3,39.7,3,39.4
	C3,39.1,3.1,38.8,3.1,38.5z"/>
</svg>
