<svg id="base" xmlns="http://www.w3.org/2000/svg" viewBox="0 0 100 100"><defs><style>.cls-1{fill:#1858a8;}.cls-2{fill:#f36;}.cls-3{fill:#ffeded;}</style></defs><title>c 2</title><path class="cls-1" d="M20.269,63.557a.717.717,0,0,0,.45.071.578.578,0,0,1,.316.017.633.633,0,0,0,.274,0,2.309,2.309,0,0,1,.293.039.327.327,0,0,0,.1-.024l.145-.04a.361.361,0,0,1,.251,0,.394.394,0,0,0,.231.005.553.553,0,0,1,.353.033,1.608,1.608,0,0,0,.378.144.348.348,0,0,1,.307.224.1.1,0,0,0,.188.024.5.5,0,0,1,.412-.187.391.391,0,0,0,.185-.043,3.48,3.48,0,0,1,.356-.143.571.571,0,0,1,.406-.068c.066.017.145-.013.211,0a.613.613,0,0,0,.433-.059.331.331,0,0,1,.121-.033.435.435,0,0,0,.216-.083c.187-.117.377-.228.565-.343.042-.026.082-.056.126-.08a2.138,2.138,0,0,1,.338-.177,1.388,1.388,0,0,0,.357-.189.7.7,0,0,1,.185-.1.3.3,0,0,0,.2-.173.171.171,0,0,1,.071-.075.851.851,0,0,0,.274-.2.229.229,0,0,1,.095-.047.8.8,0,0,0,.14-.049.6.6,0,0,1,.3-.086.457.457,0,0,0,.347-.143.438.438,0,0,1,.253-.144l.189-.053a.349.349,0,0,1,.13-.219,1.32,1.32,0,0,0,.126-.194c.046-.062.105-.114.153-.174a.33.33,0,0,0,.029-.08c.062-.142.1-.293.171-.434a.832.832,0,0,0,.083-.283.948.948,0,0,1,.2-.485l-.069-.032a.48.48,0,0,1,.087-.458.734.734,0,0,1,.024-.277,2.6,2.6,0,0,0,.137-.419.87.87,0,0,1,.17-.293.524.524,0,0,0,.145-.325,1.456,1.456,0,0,1,.173-.541.689.689,0,0,0,.066-.494,1.328,1.328,0,0,1-.016-.361.156.156,0,0,1,.059-.132.47.47,0,0,0,.167-.353c.024-.14.049-.28.071-.421a.243.243,0,0,0,0-.1,1.833,1.833,0,0,0-.212-.6.363.363,0,0,1-.067-.221c0-.164-.009-.327-.009-.491a.436.436,0,0,0-.064-.244.465.465,0,0,1-.066-.156.511.511,0,0,0-.129-.348c-.027-.023-.028-.079-.038-.12a1.246,1.246,0,0,0-.03-.124c-.086-.216-.178-.431-.244-.656a.191.191,0,0,0-.053-.09.442.442,0,0,1-.115-.225.97.97,0,0,0-.1-.256,2.024,2.024,0,0,1-.2-.445.361.361,0,0,0-.084-.141,5.388,5.388,0,0,0-.527-.463.347.347,0,0,1-.179-.318.173.173,0,0,0-.027-.1.513.513,0,0,1-.121-.311c0-.025-.025-.05-.036-.076A1.161,1.161,0,0,0,28.8,49.9a3.135,3.135,0,0,1-.208-.372.683.683,0,0,0-.239-.293,1.367,1.367,0,0,0-.246-.066c-.086-.03-.138-.127-.241-.127a.051.051,0,0,1-.022,0,1.6,1.6,0,0,1-.274-.157,1.726,1.726,0,0,0-.166-.13.586.586,0,0,1-.288-.3.182.182,0,0,0-.2-.127.168.168,0,0,1-.119-.031c-.154-.144-.38-.165-.529-.315a2.019,2.019,0,0,1-.473-.287.4.4,0,0,1-.156-.142.175.175,0,0,0-.133-.1.2.2,0,0,1-.173-.122c-.073.02-.137.06-.192.05-.157-.03-.332-.01-.46-.139a.16.16,0,0,0-.139-.036,1.519,1.519,0,0,1-.549-.051.337.337,0,0,0-.3.06c-.051.04-.1.078-.155.115a.667.667,0,0,1-.65.078,1.072,1.072,0,0,0-.461-.049,4.179,4.179,0,0,0-.5.09c-.048.01-.1.025-.145.035a.647.647,0,0,1-.642-.089.117.117,0,0,0-.08-.018c-.077,0-.155.013-.233.015-.134,0-.259.076-.4.043a.151.151,0,0,0-.082.02c-.079.03-.158.061-.237.095a.521.521,0,0,0-.111.061c-.153.119-.341.175-.5.278a.109.109,0,0,1-.061.015.4.4,0,0,0-.334.161,1.72,1.72,0,0,1-.273.239.563.563,0,0,0-.19.247.935.935,0,0,1-.345.45.68.68,0,0,0-.16.138c-.111.129-.22.262-.322.4a1.344,1.344,0,0,1-.25.261c-.106.082-.194.188-.3.272a.966.966,0,0,1-.5.3c-.018,0-.037.02-.052.035a4.434,4.434,0,0,1-.648.446,2.708,2.708,0,0,0-.241.208,1.523,1.523,0,0,0-.386.5.622.622,0,0,1-.048.07c-.129.2-.207.419-.345.61a1.28,1.28,0,0,0-.112.229.765.765,0,0,0-.053.117l-.007.022a1.266,1.266,0,0,1-.183.425.216.216,0,0,0-.031.08c-.02.1-.032.211-.056.314a2.045,2.045,0,0,1-.108.39.525.525,0,0,0-.059.244,1.95,1.95,0,0,1-.189.907.431.431,0,0,0-.023.309,1.007,1.007,0,0,1,.018.4.965.965,0,0,0,.015.339,2.623,2.623,0,0,1,.034.593q.4,1.446.8,2.892a.4.4,0,0,1,.158.245,1.338,1.338,0,0,1,.077.4.246.246,0,0,0,.031.1,1.988,1.988,0,0,0,.088.194,1.1,1.1,0,0,0,.145.235.813.813,0,0,1,.2.371.493.493,0,0,0,.181.285l.147-.028a.609.609,0,0,1,.7.416.387.387,0,0,0,.08.171.373.373,0,0,1,.109.27.18.18,0,0,0,.063.151.191.191,0,0,1,.063.084.817.817,0,0,0,.3.35c.128-.011.257-.023.349.1a.048.048,0,0,0,.038.016.4.4,0,0,1,.28.137.257.257,0,0,0,.092.053c.155.046.311.088.48.136.011.014.027.058.055.068.143.054.279.147.446.093a.189.189,0,0,1,.182.029.7.7,0,0,0,.549.114A.59.59,0,0,1,20.269,63.557Z"/><path class="cls-1" d="M65.435,56.4c.023-.134.048-.268.069-.4a.258.258,0,0,0,0-.1,1.759,1.759,0,0,0-.2-.577.361.361,0,0,1-.064-.212c0-.156-.008-.313-.008-.47a.427.427,0,0,0-.061-.234.446.446,0,0,1-.064-.149.486.486,0,0,0-.124-.333c-.025-.023-.026-.076-.036-.116a1.19,1.19,0,0,0-.028-.118c-.083-.208-.171-.413-.234-.628a.187.187,0,0,0-.051-.087.423.423,0,0,1-.11-.215.928.928,0,0,0-.1-.246,1.943,1.943,0,0,1-.193-.426.351.351,0,0,0-.081-.135,5.18,5.18,0,0,0-.5-.443.335.335,0,0,1-.171-.3.174.174,0,0,0-.025-.1.493.493,0,0,1-.117-.3c0-.023-.023-.048-.034-.073a1.143,1.143,0,0,0-.14-.2,3.267,3.267,0,0,1-.2-.357.644.644,0,0,0-.229-.28,1.248,1.248,0,0,0-.235-.064c-.082-.028-.133-.122-.231-.122a.042.042,0,0,1-.02,0,1.47,1.47,0,0,1-.263-.15,1.591,1.591,0,0,0-.16-.124.57.57,0,0,1-.275-.289.174.174,0,0,0-.193-.122.164.164,0,0,1-.114-.03c-.148-.138-.364-.158-.507-.3a1.934,1.934,0,0,1-.453-.274.4.4,0,0,1-.149-.136A.164.164,0,0,0,60,48.192a.2.2,0,0,1-.166-.117c-.07.019-.131.057-.185.047-.15-.028-.317-.009-.44-.132a.151.151,0,0,0-.133-.035,1.461,1.461,0,0,1-.526-.049.319.319,0,0,0-.29.058c-.049.037-.1.074-.149.11a.641.641,0,0,1-.622.075,1.029,1.029,0,0,0-.441-.048,4,4,0,0,0-.482.087c-.047.009-.093.024-.14.034a.619.619,0,0,1-.614-.086.115.115,0,0,0-.077-.018c-.074,0-.149.013-.223.015-.129,0-.249.072-.382.041a.157.157,0,0,0-.078.019c-.076.029-.152.059-.226.091a.5.5,0,0,0-.107.058c-.147.115-.327.168-.482.267a.1.1,0,0,1-.059.015.38.38,0,0,0-.32.154,1.569,1.569,0,0,1-.261.228.55.55,0,0,0-.183.238.891.891,0,0,1-.33.43.686.686,0,0,0-.153.132q-.16.186-.309.382a1.258,1.258,0,0,1-.239.25c-.1.078-.186.18-.286.26a.923.923,0,0,1-.48.285.1.1,0,0,0-.051.034,4.279,4.279,0,0,1-.621.428,1.7,1.7,0,0,0-.6.678.725.725,0,0,1-.046.067c-.123.187-.2.4-.331.584a1.357,1.357,0,0,0-.107.22.792.792,0,0,0-.051.111,1.225,1.225,0,0,1-.182.429.185.185,0,0,0-.029.076c-.019.1-.031.2-.054.3a2.015,2.015,0,0,1-.1.373.5.5,0,0,0-.057.235,1.883,1.883,0,0,1-.18.869.4.4,0,0,0-.022.3,1.016,1.016,0,0,1,.017.385.932.932,0,0,0,.013.325,2.462,2.462,0,0,1,.033.568l.768,2.77a.387.387,0,0,1,.151.235,1.3,1.3,0,0,1,.075.381.221.221,0,0,0,.029.1c.027.063.052.126.084.186a1.073,1.073,0,0,0,.139.225.787.787,0,0,1,.193.356.476.476,0,0,0,.173.273L51,61.455a.585.585,0,0,1,.674.4.36.36,0,0,0,.076.164.357.357,0,0,1,.1.258.171.171,0,0,0,.06.145.187.187,0,0,1,.06.08.776.776,0,0,0,.291.336c.123-.01.247-.023.334.093a.055.055,0,0,0,.037.016.375.375,0,0,1,.268.13.255.255,0,0,0,.089.051c.148.044.3.085.46.13.01.014.025.056.051.066.138.051.268.141.428.088a.183.183,0,0,1,.174.028.677.677,0,0,0,.526.11.558.558,0,0,1,.354.069.693.693,0,0,0,.431.067.551.551,0,0,1,.3.017.6.6,0,0,0,.261,0,2.293,2.293,0,0,1,.282.037.308.308,0,0,0,.1-.023l.138-.038a.345.345,0,0,1,.241,0,.369.369,0,0,0,.221.005.527.527,0,0,1,.338.032,1.514,1.514,0,0,0,.362.137.334.334,0,0,1,.294.215.1.1,0,0,0,.181.023.479.479,0,0,1,.394-.179.37.37,0,0,0,.177-.042,3.185,3.185,0,0,1,.341-.136.546.546,0,0,1,.389-.066c.063.017.139-.012.2,0a.588.588,0,0,0,.416-.056.309.309,0,0,1,.115-.032.412.412,0,0,0,.207-.079c.179-.112.361-.219.541-.329.041-.024.079-.053.12-.076a1.967,1.967,0,0,1,.324-.17,1.333,1.333,0,0,0,.342-.181.694.694,0,0,1,.178-.095.286.286,0,0,0,.2-.166.168.168,0,0,1,.068-.072.817.817,0,0,0,.263-.189.212.212,0,0,1,.09-.045.8.8,0,0,0,.135-.047.571.571,0,0,1,.29-.083.432.432,0,0,0,.333-.136.421.421,0,0,1,.242-.138l.182-.051a.332.332,0,0,1,.124-.21,1.265,1.265,0,0,0,.121-.186c.044-.059.1-.109.147-.166a.35.35,0,0,0,.028-.077c.059-.137.1-.281.164-.416a.807.807,0,0,0,.079-.271.886.886,0,0,1,.189-.464l-.067-.031a.457.457,0,0,1,.084-.439c.007-.107-.014-.2.023-.266a2.509,2.509,0,0,0,.132-.4.8.8,0,0,1,.162-.28.5.5,0,0,0,.138-.311,1.365,1.365,0,0,1,.166-.518.656.656,0,0,0,.063-.474,1.3,1.3,0,0,1-.015-.346.149.149,0,0,1,.057-.126A.449.449,0,0,0,65.435,56.4Z"/><path class="cls-2" d="M.256,55.5A9.275,9.275,0,0,0,.48,56.94a6.911,6.911,0,0,1,.3,2.027,2.1,2.1,0,0,0,.289,1.341,3.287,3.287,0,0,1,.5,1.2,3.866,3.866,0,0,0,.556,1.347c.143.2.113.512.193.764.088.274.424.387.44.74a.967.967,0,0,0,.687.867c.625.256.748.508.556,1.146a2.4,2.4,0,0,0,.008,1.236c.056.262.091.528.131.793.014.1-.015.214.032.288a1.5,1.5,0,0,1,.138,1.069.741.741,0,0,0,.337.766c.183.12.344.271.494.391.141.553.268,1.075.409,1.592a.917.917,0,0,0,.186.388,2.465,2.465,0,0,1,.676,1.028c.019.067.087.117.128.179a7.193,7.193,0,0,1,.642.985,3.464,3.464,0,0,0,.968,1.052c.206.192.457.36.688.539A.965.965,0,0,1,9.262,77.7a1.916,1.916,0,0,0,.111,1.016,7.537,7.537,0,0,0,.7,1.7.935.935,0,0,1,.15.7,1.242,1.242,0,0,0,.041.5,7.175,7.175,0,0,0,1.523,2.317c.04.056.125.077.183.122.27.21.551.409.8.64a1.183,1.183,0,0,0,.628.35.885.885,0,0,1,.735.637,1.484,1.484,0,0,0,.766.844c.441.242.942.453,1.123,1.016a1.463,1.463,0,0,1,1.171.564,6.565,6.565,0,0,0,.944.906,4.6,4.6,0,0,0,1.913,1.062,1.971,1.971,0,0,1,1.136.75,6.084,6.084,0,0,0,.421.514,3.857,3.857,0,0,0,1.758,1.16,3.614,3.614,0,0,1,.938.382,2.254,2.254,0,0,1,.821.6.6.6,0,0,0,.3.195,7.708,7.708,0,0,0,.779.209c.243.052.522.076.654.294.241.4.7.528.982.873a1.108,1.108,0,0,0,.454.23,2.564,2.564,0,0,0,.628.195.9.9,0,0,1,.626.342,1.036,1.036,0,0,0,.629.355c.094.017.219.032.269.1a1.233,1.233,0,0,0,.927.372.792.792,0,0,1,.683.359.333.333,0,0,0,.179.116c.579.2,1.152.424,1.74.594a1.981,1.981,0,0,0,1.438.08c.32-.155.568-.01.851.013.312.026.638-.1.934.091a2.785,2.785,0,0,1,.292.216c.086.071.161.153.242.231l.621-.686c.3.183.6.342.852.1a2.031,2.031,0,0,1,1.009-.4l.363.3c.18-.009.326-.018.473-.024.4-.016.813.252,1.208-.038a.075.075,0,0,1,.07.011c.175.161.355.107.55.037a.357.357,0,0,1,.284.02c.474.337,1.155.332,1.442.905.332-.008.619-.171.906.025a.386.386,0,0,0,.281-.008c.233-.074.456-.179.689-.251a1.644,1.644,0,0,1,.566-.11c.215.015.425.159.637.16a2.271,2.271,0,0,0,.611-.172.106.106,0,0,1,.072.008c.279.145.506-.06.717-.144a1.947,1.947,0,0,0,.226.146c.371.152.66.524,1.14.4.085-.023.213.1.317.159a7.218,7.218,0,0,0,1.145.651,8.3,8.3,0,0,1,.815.305,1.707,1.707,0,0,0,1.2.214c.393-.115.927.061,1.163-.468.021-.048.126-.066.2-.082a2.5,2.5,0,0,0,1.024-.551,1.2,1.2,0,0,1,.862-.35.876.876,0,0,0,.4-.154c.388-.208.764-.44,1.16-.634a1.863,1.863,0,0,0,.5-.284,1.207,1.207,0,0,1,.955-.321,8.886,8.886,0,0,0,1.46-.048,1.814,1.814,0,0,1,1.478.271c.058.054.184.041.279.048a3.914,3.914,0,0,1,.435.019,3.018,3.018,0,0,0,.5.135,2.246,2.246,0,0,0,.533-.124c.074.089.119.147.167.2a1.461,1.461,0,0,0,2.144.306c.5-.342,1.046-.614,1.567-.916l.365.146c.294-.565.624-1.052,1.313-1.02.171-.217.317-.415.477-.6a1.063,1.063,0,0,1,.32-.284A2.548,2.548,0,0,0,72.1,94.5c.345-.415.638-.879,1.012-1.265a8.575,8.575,0,0,1,1.3-1.272,2.839,2.839,0,0,1,1.278-.521,2.157,2.157,0,0,0,1.224-.609.875.875,0,0,1,.291-.207c.269-.083.517-.159.546-.508,0-.052.146-.1.231-.136a4.278,4.278,0,0,0,1.01-.822c.186-.621.691-1.131.6-1.8a1.473,1.473,0,0,1,.8-.41,1.218,1.218,0,0,0,.378-.2,5.81,5.81,0,0,1,1.571-.9.9.9,0,0,0,.443-.227,2.618,2.618,0,0,1,1.065-.761,1.785,1.785,0,0,0,.612-.5,4.266,4.266,0,0,1,.993-.861,5.9,5.9,0,0,0,.936-.7,6.385,6.385,0,0,1,1-.621.33.33,0,0,0,.061-.042A14.41,14.41,0,0,0,89.5,80.039a.494.494,0,0,1,.277-.223c.413-.049.625-.369.893-.613.346-.312.692-.625,1.021-.954a1.026,1.026,0,0,0,.27-.429,2.028,2.028,0,0,1,1.053-1.264c.169-.094.291-.27.459-.368a1.131,1.131,0,0,0,.714-1.029.2.2,0,0,1,.051-.135,1.477,1.477,0,0,0,.34-1.1,2.493,2.493,0,0,1,.1-.423.9.9,0,0,0,.045-.351c-.12-.56.184-1.118,0-1.676a.236.236,0,0,1,.021-.143,2.9,2.9,0,0,0,.26-.6c.032-.179.25-.326.371-.47-.091-.522-.178-1.022-.266-1.524.114-.078.227-.115.266-.19a1.683,1.683,0,0,0,.33-1.016,1.861,1.861,0,0,1,.3-1.474,1.619,1.619,0,0,0,.114-.272c.154-.306.3-.616.474-.912a1.285,1.285,0,0,0,.212-.767,1.185,1.185,0,0,1,.041-.509,1.613,1.613,0,0,0,.039-.94,1.657,1.657,0,0,1,.312-1.394,1.564,1.564,0,0,0,.315-.812c.022-.163.075-.4.19-.459a.868.868,0,0,0,.412-.726,1.315,1.315,0,0,1,.6-.925.87.87,0,0,0,.014-.122,3.06,3.06,0,0,1,.086-1.666.633.633,0,0,0-.066-.416c-.07-.182-.2-.343-.261-.526a.588.588,0,0,1-.03-.42c.311-.519.1-1.118.282-1.651-.114-.344.075-.6.219-.89a2.848,2.848,0,0,0,.311-1.644C99.2,50.5,99.071,50,98.966,49.5c-.091-.432-.2-.86-.285-1.293a.557.557,0,0,1,.048-.414c.314-.338.194-.807.4-1.173a.257.257,0,0,0-.007-.215c-.244-.42.062-.936-.24-1.35-.042-.058.014-.188.027-.284.023-.169.061-.336.07-.505.019-.341.022-.683.033-1.025a2.3,2.3,0,0,0-.028-1.018.513.513,0,0,1,.123-.547.815.815,0,0,0,.113-.9,1.039,1.039,0,0,1,.324-1.254,1.761,1.761,0,0,0,.362-.544,1.013,1.013,0,0,0-.374-1.294c-.08-.056-.177-.088-.257-.146a.565.565,0,0,1-.293-.62c.061-.258-.082-.4-.287-.536a9.317,9.317,0,0,1-.872-.676.622.622,0,0,1-.241-.355,12.41,12.41,0,0,0-.352-1.555,3.224,3.224,0,0,0-.112-.415c-.051-.159-.112-.315-.165-.474a1.926,1.926,0,0,0-.106-.343,8.444,8.444,0,0,1-.883-2.4,2.5,2.5,0,0,0-.333-.891,6.007,6.007,0,0,1-1.106-2.524.316.316,0,0,0-.084-.2c-.34-.257-.327-.649-.369-1-.035-.3-.322-.462-.35-.707a1.6,1.6,0,0,0-.211-.759,2.542,2.542,0,0,1-.177-.4l.939-.514c.632-.349.648-.428.194-.957a1.127,1.127,0,0,1-.089-.117,1.509,1.509,0,0,0-1.153-.709.916.916,0,0,1-.531-.224,5.1,5.1,0,0,0-1.621-1.229.5.5,0,0,1-.175-.133,4.062,4.062,0,0,0-1.145-.782.625.625,0,0,1-.277-.314,14.223,14.223,0,0,1-.49-1.515,3.347,3.347,0,0,0-.422-1.01c-.2-.326-.613-.382-.806-.708a.293.293,0,0,0-.268-.079c-.453.158-.933.292-1.147.8-.043.1-.082.176-.247.113a1.83,1.83,0,0,1-.046-.251.632.632,0,0,0-.491-.633,1.654,1.654,0,0,1-1-.808,1.959,1.959,0,0,0-.652-.683,17.405,17.405,0,0,0-1.566-.96c-.267-.146-.517-.264-.611-.59a.45.45,0,0,0-.257-.239,5.1,5.1,0,0,1-1.561-1.093,3.279,3.279,0,0,1-1.093-1.492c-.294-.145-.548-.295-.821-.4a1.785,1.785,0,0,1-.746-.575c-.072-.087-.216-.111-.319-.176a3.448,3.448,0,0,1-.358-.253c-.275-.224-.459-.581-.873-.6-.914-.7-1.91-1.3-2.764-2.086a5.821,5.821,0,0,0-.847-.7.867.867,0,0,1-.524-.878.6.6,0,0,0-.5-.649,4.8,4.8,0,0,0-1.594-.217c-.875.126-1.762.173-2.634.315a5.934,5.934,0,0,1-2.185-.168,3.467,3.467,0,0,0-1.235-.09,3.706,3.706,0,0,1-1.3-.042,2.143,2.143,0,0,1-1.287-.764,1.263,1.263,0,0,0-.4-.3.475.475,0,0,1-.306-.589.808.808,0,0,0-.366-.9,2.393,2.393,0,0,0-1.968-.38,7.871,7.871,0,0,1-1.3.223,4.53,4.53,0,0,1-1.013.115,3.112,3.112,0,0,0-.944.1,5.823,5.823,0,0,1-2.762.079A3.116,3.116,0,0,0,50.1.62a12.073,12.073,0,0,1-2.084.387,1.377,1.377,0,0,1-.432-.039,3.009,3.009,0,0,0-.422-.125A10.823,10.823,0,0,0,45.473.732c-.462.048-.928.082-1.393.089a23.193,23.193,0,0,0-2.567.156,1.434,1.434,0,0,1-.293,0,3.139,3.139,0,0,0-1.443.167,1.445,1.445,0,0,1-.43.047c-.17.011-.341,0-.508.025a3.043,3.043,0,0,0-1.482.376c-.167.118-.433.081-.631.169-.489.219-.985.424-1.468.66a8.332,8.332,0,0,0-1.464.847.783.783,0,0,1-.457.2,1.135,1.135,0,0,0-.947.472c-.247.27-.493.542-.759.793a3.857,3.857,0,0,1-1.2.831,6.694,6.694,0,0,1-1.689.449c-.317.04-.633.1-.948.148a1.247,1.247,0,0,0-.856.514,7.582,7.582,0,0,1-.876.994,1.124,1.124,0,0,1-.623.346c-.38.02-.711.191-1.072.244a1.468,1.468,0,0,0-1.066.577.636.636,0,0,1-.638.3,1.633,1.633,0,0,0-.93.134,4.849,4.849,0,0,1-1.065.279c-.7.064-1.137.625-1.742.862-.07.028-.119.152-.145.241a1.453,1.453,0,0,1-1.193,1.064.737.737,0,0,0-.214.051.85.85,0,0,0-.279.221c-.3.446-.584.908-.889,1.353a3.5,3.5,0,0,1-.472.564,2.051,2.051,0,0,0-.807,1.645.4.4,0,0,1-.04.214,5.023,5.023,0,0,1-.541.87,7,7,0,0,0-.626.813,1.31,1.31,0,0,1-.655.573.819.819,0,0,0-.555.718,1.7,1.7,0,0,1-.578,1,.979.979,0,0,0-.364.691c-.017.22-.047.44-.086.658a1.584,1.584,0,0,1-.668,1.1,4.864,4.864,0,0,0-.582.551,1.923,1.923,0,0,1-.328.286.6.6,0,0,0-.347.443.4.4,0,0,1-.171.222.661.661,0,0,0-.285.487,3.659,3.659,0,0,1-.764,1.732,5.514,5.514,0,0,0-.923,1.5,4.323,4.323,0,0,1-.246.452,2.3,2.3,0,0,0-.276.595.906.906,0,0,1-.417.651c-.265.176-.485.418-.745.6A2.593,2.593,0,0,0,4.8,30.828a1.042,1.042,0,0,1-.475.539,2.789,2.789,0,0,0-.9.852c-.257.357-.557.684-.841,1.022a.983.983,0,0,0-.292.579,2.133,2.133,0,0,1-.082.4c.136.467.261.838.349,1.217a1.757,1.757,0,0,1-.143,1.149c-.259.555-.557,1.091-.834,1.637a1.148,1.148,0,0,0-.065.211c-.073.259-.154.517-.213.78a1.5,1.5,0,0,0-.052.5,2.5,2.5,0,0,1-.211,1.366A4.263,4.263,0,0,0,.536,43a2.887,2.887,0,0,1-.105.427,6.161,6.161,0,0,0-.1,1.167c.015.218.275.411.317.634.047.254-.1.552-.035.792.173.595.189,1.211.32,1.8a3.227,3.227,0,0,1-.168,1.943c-.208.527-.436,1.046-.628,1.579a1.234,1.234,0,0,0-.115.71,14.764,14.764,0,0,0,.487,1.921.734.734,0,0,1-.068.837A.846.846,0,0,0,.256,55.5Zm10.37-1.694a.1.1,0,0,0,.019-.123c-.009-.017-.021-.04-.015-.054a1.7,1.7,0,0,0,.037-.341.1.1,0,0,1,.017-.054.2.2,0,0,0,.05-.219c.046-.106.082-.186.117-.267,0-.012,0-.03.011-.037.166-.133.176-.386.39-.493-.015-.034-.026-.061-.045-.1.029-.039.064-.083.094-.13a.514.514,0,0,1,.111-.1c0-.029,0-.059.008-.089a.514.514,0,0,1,.008-.119c.043-.1.1-.193.142-.3a2.015,2.015,0,0,1,.1-.311.5.5,0,0,0,.093-.348l.185-.112.006-.01,0,0L12,50.581a1.1,1.1,0,0,0,.1-.073c0-.019,0-.039.005-.059a.274.274,0,0,1,.118-.212.24.24,0,0,0,.1-.216,1.028,1.028,0,0,1,.092-.371,4.405,4.405,0,0,1,.206-.5.325.325,0,0,1,.045-.085.4.4,0,0,0,.114-.257.272.272,0,0,1,.046-.1.975.975,0,0,0,.146-.269.22.22,0,0,1,.122-.14A.831.831,0,0,0,13.4,48c.081-.122.168-.241.249-.364a.175.175,0,0,0,.036-.1.224.224,0,0,1,.066-.174.5.5,0,0,0,.1-.207c.023-.106.062-.208.1-.312a.1.1,0,0,1,.017-.034.824.824,0,0,0,.19-.4c.038-.01.074-.022.11-.028a.6.6,0,0,0,.456-.348c.043-.087.091-.171.128-.26a.98.98,0,0,1,.221-.312,1.825,1.825,0,0,0,.273-.346c.011-.016.017-.039.032-.047.119-.07.138-.194.174-.309a2.233,2.233,0,0,0,.115-.5c0-.037,0-.076,0-.12l.107-.106a.322.322,0,0,0,.01-.054c0-.065,0-.13.007-.193.012-.089.073-.116.17-.082l.035.015c.078-.066.157-.131.234-.2.043-.038.084-.078.125-.119.059-.058.115-.12.177-.176a.225.225,0,0,0,.095-.139.135.135,0,0,1,.071-.1c0-.012,0-.026.012-.033a.192.192,0,0,0,.048-.219c.047-.106.083-.186.118-.268,0-.011,0-.029.011-.036.166-.133.176-.386.39-.493l-.044-.1c.028-.038.063-.082.093-.129.048-.073.156-.082.174-.194a1.314,1.314,0,0,1,.113-.238c.063-.16.14-.316.194-.481.009-.025.045-.042.07-.065a.363.363,0,0,1,.1-.408l.079.139c.019-.009.034-.012.036-.019.02-.064.067-.123.032-.2-.009-.02,0-.051.006-.076a.274.274,0,0,1,.118-.212.24.24,0,0,0,.1-.216,1.008,1.008,0,0,1,.092-.371,4.233,4.233,0,0,1,.207-.5.275.275,0,0,1,.045-.085.409.409,0,0,0,.113-.257.272.272,0,0,1,.046-.1.975.975,0,0,0,.146-.269.22.22,0,0,1,.122-.14.821.821,0,0,0,.306-.3c.082-.122.169-.241.25-.364a.183.183,0,0,0,.037-.1.22.22,0,0,1,.065-.174.487.487,0,0,0,.1-.207c.024-.106.062-.208.095-.312a.084.084,0,0,1,.017-.034.824.824,0,0,0,.19-.4c.038-.01.074-.022.11-.028a.6.6,0,0,0,.456-.348c.043-.087.091-.171.128-.26a.98.98,0,0,1,.221-.312,1.825,1.825,0,0,0,.273-.346c.011-.016.017-.039.032-.047.119-.07.138-.194.174-.31a2.212,2.212,0,0,0,.115-.5c0-.037,0-.076,0-.12l.107-.106a.245.245,0,0,0,.01-.054c0-.065,0-.13.007-.193.012-.089.073-.116.17-.082l.035.015c.078-.066.157-.131.234-.2.043-.038.084-.078.125-.119.059-.058.115-.12.177-.176.015-.013.019-.033.032-.047a.938.938,0,0,0,.063-.127c.059-.162.132-.32.181-.486.008-.026.044-.044.068-.067a.361.361,0,0,1,.089-.411c.03.051.057.094.083.137.019-.01.034-.013.036-.02.018-.065.063-.125.026-.2-.01-.02,0-.051,0-.076a.274.274,0,0,1,.111-.215.244.244,0,0,0,.1-.219,1.008,1.008,0,0,1,.081-.373,4.242,4.242,0,0,1,.193-.5.287.287,0,0,1,.042-.086.4.4,0,0,0,.106-.261.282.282,0,0,1,.043-.1.978.978,0,0,0,.139-.273.217.217,0,0,1,.118-.143.842.842,0,0,0,.3-.311c.078-.125.161-.246.239-.371a.183.183,0,0,0,.033-.105.223.223,0,0,1,.061-.175.489.489,0,0,0,.09-.21c.021-.107.056-.21.086-.315a.119.119,0,0,1,.016-.034.83.83,0,0,0,.18-.4,1.121,1.121,0,0,1,.109-.032.6.6,0,0,0,.446-.361c.04-.087.086-.173.12-.263a.962.962,0,0,1,.213-.317,1.859,1.859,0,0,0,.263-.354c.01-.017.016-.039.031-.048.116-.073.132-.2.165-.314a2.182,2.182,0,0,0,.1-.506c0-.038,0-.076,0-.121l.1-.109c0-.017.008-.035.009-.054,0-.064-.006-.129,0-.193.01-.089.069-.117.167-.086l.035.013c.077-.068.154-.135.229-.2.042-.039.082-.081.122-.122.058-.06.112-.124.172-.181a.227.227,0,0,0,.091-.142.136.136,0,0,1,.073-.106,1,1,0,0,0,.343-.408.528.528,0,0,1,.176-.2.41.41,0,0,0,.125-.116,1,1,0,0,1,.268-.273.421.421,0,0,1,.153-.075,1.931,1.931,0,0,1,.224-.045.258.258,0,0,1,0-.04.142.142,0,0,1,.081-.151.42.42,0,0,0,.073-.053.252.252,0,0,0,.163.008.575.575,0,0,1,.171,0c.1,0,.2.008.306.013a.239.239,0,0,0,.084,0,.3.3,0,0,1,.192.009.213.213,0,0,0,.157,0,.433.433,0,0,1,.3-.005.154.154,0,0,0,.095,0,.5.5,0,0,1,.217-.029.27.27,0,0,0,.121-.01.217.217,0,0,1,.144-.007.3.3,0,0,0,.193-.015.142.142,0,0,1,.095-.008.691.691,0,0,0,.208.006.877.877,0,0,1,.293.016.139.139,0,0,0,.06.008.686.686,0,0,1,.311.046.16.16,0,0,0,.072,0,.449.449,0,0,0,.056-.024.35.35,0,0,1,.25-.026,1.606,1.606,0,0,0,.22.01c.11,0,.22-.01.33-.016a.5.5,0,0,1,.086,0,.756.756,0,0,0,.207-.017.737.737,0,0,1,.252-.022.1.1,0,0,0,.06,0c.06-.033.121-.009.181-.009.017,0,.033.006.049.007.073.009.148-.034.219,0a.768.768,0,0,0,.217.039c.1.013.2.021.31.033l.038.088.156.071c.009.024.017.047.025.07a.518.518,0,0,0,.159.244.6.6,0,0,1,.222.37.3.3,0,0,0,.064.143.34.34,0,0,1,.054.235.509.509,0,0,1-.007.11.205.205,0,0,0,.016.131.371.371,0,0,1,.017.1c.009.04.02.08.029.12.011.056.023.112.034.168a.192.192,0,0,1-.018.12c-.027.06-.057.118-.081.178a.609.609,0,0,0-.054.187c0,.021,0,.047-.006.06-.056.072-.047.163-.078.241a.386.386,0,0,1-.072.141.237.237,0,0,0-.042.089,1.418,1.418,0,0,0-.052.151.454.454,0,0,1-.173.23.16.16,0,0,0-.07.122c0,.115-.077.165-.164.209a.344.344,0,0,1-.081.03.2.2,0,0,1-.241-.072.16.16,0,0,0-.155-.07,1.36,1.36,0,0,1-.355-.013.207.207,0,0,0-.061,0c-.111,0-.221,0-.331,0s-.2.01-.3.007a2.481,2.481,0,0,1-.4-.008,1.156,1.156,0,0,0-.2-.008,2.71,2.71,0,0,1-.441-.014,1.722,1.722,0,0,1-.366.01,2.453,2.453,0,0,1-.257,0c-.086,0-.172,0-.258,0-.053,0-.106,0-.159,0a1.673,1.673,0,0,0-.283.006c-.06.007-.122,0-.184,0s-.115.009-.173.013a.188.188,0,0,1-.014.024,2.747,2.747,0,0,0-.314.484.309.309,0,0,1-.056.078,1.645,1.645,0,0,0-.265.445,2.33,2.33,0,0,1-.131.234c-.022.039-.048.077-.067.117a2.559,2.559,0,0,1-.159.285.986.986,0,0,0-.126.3.49.49,0,0,1-.149.263.342.342,0,0,0-.074.087,2.7,2.7,0,0,1-.322.477.113.113,0,0,0-.033.047c-.023.166-.147.282-.21.429a3.731,3.731,0,0,1-.23.42c-.044.077-.1.15-.145.226a3.26,3.26,0,0,0-.253.406,1.06,1.06,0,0,0-.164.465.283.283,0,0,1-.047.144.5.5,0,0,0-.088.19.085.085,0,0,1-.043.06c-.067.025-.07.084-.088.139a.135.135,0,0,1-.1.108c-.072.015-.1.074-.129.131-.111.2-.226.387-.339.58-.025.045-.048.091-.07.137a.563.563,0,0,1-.2.279.123.123,0,0,0-.037.044c-.068.116-.133.234-.2.349a1.757,1.757,0,0,0-.216.467c-.007.026-.033.043-.044.068a.219.219,0,0,0,.08.192c-.09.1-.17.2-.257.3a.539.539,0,0,0-.156.3,1,1,0,0,1-.221.485,2.723,2.723,0,0,0-.328.474.327.327,0,0,1-.057.077,1.6,1.6,0,0,0-.277.437c-.039.081-.091.154-.138.231-.023.038-.05.074-.07.114a2.566,2.566,0,0,1-.167.281,1.019,1.019,0,0,0-.135.3.489.489,0,0,1-.156.258.343.343,0,0,0-.076.085,2.753,2.753,0,0,1-.335.468c-.013.013-.031.029-.034.045-.028.166-.155.279-.222.424a3.9,3.9,0,0,1-.241.413c-.047.076-.1.148-.152.222a3.129,3.129,0,0,0-.264.4,1.034,1.034,0,0,0-.176.461.286.286,0,0,1-.052.142.524.524,0,0,0-.094.187.084.084,0,0,1-.044.059c-.068.024-.073.082-.091.136a.138.138,0,0,1-.1.106c-.074.013-.1.071-.134.127-.115.191-.236.38-.354.571-.027.043-.051.089-.075.135a.563.563,0,0,1-.2.273.122.122,0,0,0-.038.043c-.071.114-.14.23-.212.343a1.739,1.739,0,0,0-.228.461.5.5,0,0,1-.185.265.645.645,0,0,0-.2.257.8.8,0,0,1-.159.262.159.159,0,0,0-.039.066,3.41,3.41,0,0,1-.327.625,1.007,1.007,0,0,1-.105.148c0,.017.01.032.006.049a.249.249,0,0,0,.079.269c-.09.1-.17.2-.258.3a.544.544,0,0,0-.155.3,1,1,0,0,1-.221.485c-.038.046-.066.1-.1.147.037,0,.075,0,.115,0a2.23,2.23,0,0,1,.568.051.786.786,0,0,0,.492-.09.545.545,0,0,1,.316-.082.511.511,0,0,0,.34-.1c.06-.037.12-.074.181-.11a.447.447,0,0,1,.132-.071,3.48,3.48,0,0,0,.413-.06c.123-.038.232-.124.37-.107a.819.819,0,0,0,.436-.1,1.021,1.021,0,0,1,.638-.076.825.825,0,0,0,.529-.044.994.994,0,0,1,.789-.054.271.271,0,0,0,.258-.03c.206-.138.426-.063.641-.045.042,0,.08.057.1.072.248,0,.476,0,.7,0a.366.366,0,0,1,.145.037.56.56,0,0,0,.433.078.073.073,0,0,1,.058.007.483.483,0,0,0,.51,0,1.143,1.143,0,0,1,.546.361.277.277,0,0,0,.118.089.257.257,0,0,1,.143.182.526.526,0,0,0,.251.324.542.542,0,0,1,.173.2.86.86,0,0,0,1.114.3c.063-.03.125-.062.19-.095a.7.7,0,0,1,.354.318,1.159,1.159,0,0,0,.415.428,1.576,1.576,0,0,1,.286.263c.07.072.131.152.193.23a.341.341,0,0,1,.08.125,1.881,1.881,0,0,0,.257.51.573.573,0,0,0,.308.273q.978,1.615,1.957,3.231c.018-.015.037-.028.054-.044a.174.174,0,0,1,.1-.049.189.189,0,0,0,.089-.036c.03-.02.062-.035.093-.054a.374.374,0,0,0,.059-.046c.041-.039.08-.082.123-.12a.49.49,0,0,1,.087-.062c.045-.028.094-.053.14-.081a.137.137,0,0,0,.052-.052.253.253,0,0,1,.11-.1c.033-.021.071-.034.105-.054a.322.322,0,0,1,.185-.047.1.1,0,0,0,.071-.017.106.106,0,0,1,.141-.022c.074-.068.138-.129.206-.188a.21.21,0,0,1,.068-.03.99.99,0,0,0,.294-.129.675.675,0,0,0,.059-.047.2.2,0,0,1,.134-.063.1.1,0,0,0,.041-.009.529.529,0,0,1,.275-.031c.011,0,.022.008.032.006.078-.015.134.038.2.063.017.007.027.031.042.051a.124.124,0,0,0,.036-.023,2.676,2.676,0,0,1,.214-.212.624.624,0,0,1,.206-.152.173.173,0,0,0,.048-.042c.036-.04.072-.08.1-.123a.4.4,0,0,1,.285-.13.682.682,0,0,0,.109-.023l.047-.015c.011,0,.021,0,.025.006a.235.235,0,0,0,.212.044.587.587,0,0,0,.241-.087.174.174,0,0,1,.182-.008.066.066,0,0,1,.028.017.2.2,0,0,0,.2.062c.1-.005.2-.018.3-.016a2.654,2.654,0,0,0,.471-.044.555.555,0,0,1,.108,0,.216.216,0,0,0,.132-.031l.223.032a.136.136,0,0,1,.042.008.249.249,0,0,0,.255-.029.216.216,0,0,1,.156-.021.507.507,0,0,0,.2-.014.182.182,0,0,1,.106,0,.446.446,0,0,0,.182.006,1.162,1.162,0,0,1,.2-.01.554.554,0,0,0,.191-.014.39.39,0,0,1,.17,0c.113.021.219.066.331.093a.218.218,0,0,0,.136.007.1.1,0,0,1,.11.028.135.135,0,0,0,.11.035.456.456,0,0,1,.16.014.211.211,0,0,0,.075,0,1.04,1.04,0,0,1,.278.025.272.272,0,0,1,.1.045.212.212,0,0,0,.109.039.786.786,0,0,0,.148.018.5.5,0,0,1,.272.028.659.659,0,0,0,.246.018.475.475,0,0,1,.192.024.62.62,0,0,0,.255.068.125.125,0,0,1,.1.072.237.237,0,0,0,.114.1.2.2,0,0,1,.094.069c.08.029.141.1.233.106a.236.236,0,0,1,.1.043c.036.023.068.052.1.079.008.006.016.016.026.018a.8.8,0,0,1,.239.118.964.964,0,0,1,.124.084.41.41,0,0,0,.16.087.248.248,0,0,1,.071.024.565.565,0,0,0,.317.085.123.123,0,0,1,.1.038c.034.04.088.057.11.114s.077.074.087.133c0,.016.02.029.03.044.023.032.048.063.068.1a.136.136,0,0,0,.076.071.076.076,0,0,1,.059.057.091.091,0,0,0,.058.06.184.184,0,0,1,.079.07.239.239,0,0,0,.083.056c0-.009.01-.017.013-.026a1.91,1.91,0,0,1,.1-.311.5.5,0,0,0,.094-.348l.236-.144A.618.618,0,0,0,47,50.289a.642.642,0,0,1,.418-.327.833.833,0,0,0,.378-.232,1.141,1.141,0,0,1,.173-.122c.04-.029.094-.057.11-.1a1.229,1.229,0,0,1,.3-.374.236.236,0,0,0,.068-.129.419.419,0,0,1,.211-.312,1,1,0,0,0,.214-.207,1.943,1.943,0,0,1,.413-.391,3.034,3.034,0,0,0,.391-.371c.05-.049.092-.105.14-.157.212-.227.428-.451.637-.682a.613.613,0,0,1,.261-.194.449.449,0,0,0,.151-.091.863.863,0,0,1,.567-.246c.1,0,.192-.074.287-.075a.81.81,0,0,0,.527-.248,4.933,4.933,0,0,0,.428-.33.535.535,0,0,1,.236-.129.708.708,0,0,0,.487-.412.146.146,0,0,1,.265-.039.493.493,0,0,0,.5.187,2.238,2.238,0,0,1,.568.051.783.783,0,0,0,.491-.09.545.545,0,0,1,.316-.082.51.51,0,0,0,.34-.1l.181-.11a.46.46,0,0,1,.132-.071,3.48,3.48,0,0,0,.413-.06c.123-.038.232-.124.37-.107a.815.815,0,0,0,.436-.1,1.023,1.023,0,0,1,.639-.076.822.822,0,0,0,.528-.044,1,1,0,0,1,.79-.054.272.272,0,0,0,.258-.03c.205-.138.426-.063.641-.045.042,0,.079.057.1.072.248,0,.475,0,.7,0a.375.375,0,0,1,.146.037.558.558,0,0,0,.432.078.075.075,0,0,1,.059.007.483.483,0,0,0,.51,0,1.143,1.143,0,0,1,.546.361.271.271,0,0,0,.118.089.253.253,0,0,1,.142.182.525.525,0,0,0,.252.324.542.542,0,0,1,.173.2.86.86,0,0,0,1.114.3c.062-.03.124-.062.189-.095a.708.708,0,0,1,.355.318,1.156,1.156,0,0,0,.414.428,1.543,1.543,0,0,1,.286.263c.07.072.131.152.194.23a.354.354,0,0,1,.08.125,1.907,1.907,0,0,0,.256.51.571.571,0,0,0,.309.273l1.779,2.939a.983.983,0,0,0,.2-.267c.067-.131.139-.26.2-.391a.184.184,0,0,0,.024-.108.224.224,0,0,1,.044-.18.469.469,0,0,0,.071-.217c.012-.108.038-.214.058-.321a.092.092,0,0,1,.013-.036.824.824,0,0,0,.142-.419,1,1,0,0,1,.106-.041.6.6,0,0,0,.412-.4c.032-.091.07-.18.1-.273a.953.953,0,0,1,.183-.335,1.9,1.9,0,0,0,.23-.376c.008-.018.012-.041.026-.051a.459.459,0,0,0,.136-.327,2.223,2.223,0,0,0,.055-.514c0-.037-.01-.075-.017-.119l.094-.118a.324.324,0,0,0,0-.055c0-.064-.017-.128-.016-.192,0-.09.058-.123.159-.1l.036.01c.07-.074.141-.148.21-.223.038-.043.074-.088.11-.132.052-.065.1-.134.155-.2a.23.23,0,0,0,.078-.15.134.134,0,0,1,.06-.106c0-.013,0-.027.007-.034a.194.194,0,0,0,.023-.224c.033-.11.06-.194.085-.279,0-.012,0-.03.007-.037.149-.153.129-.405.33-.536l-.057-.1c.023-.042.053-.089.078-.14.038-.078.145-.1.149-.213A1.287,1.287,0,0,1,72,43.588c.044-.167.1-.33.136-.5.006-.027.04-.048.062-.073a.362.362,0,0,1,.051-.417l.095.129c.018-.012.033-.017.034-.024.012-.066.052-.13.008-.2-.011-.018,0-.05,0-.075a.274.274,0,0,1,.093-.225.242.242,0,0,0,.076-.226A1,1,0,0,1,72.6,41.6a4.375,4.375,0,0,1,.147-.518.3.3,0,0,1,.035-.09.407.407,0,0,0,.082-.269.261.261,0,0,1,.033-.107.983.983,0,0,0,.114-.284.222.222,0,0,1,.1-.154.828.828,0,0,0,.269-.336c.067-.131.139-.26.2-.391a.184.184,0,0,0,.024-.108.224.224,0,0,1,.044-.18.481.481,0,0,0,.071-.217c.012-.108.038-.214.058-.321a.092.092,0,0,1,.013-.036.814.814,0,0,0,.142-.419c.037-.014.07-.031.106-.042a.6.6,0,0,0,.411-.4c.033-.091.071-.18.1-.273a.972.972,0,0,1,.184-.335,1.858,1.858,0,0,0,.23-.376c.008-.018.012-.041.026-.051a.458.458,0,0,0,.136-.327,2.17,2.17,0,0,0,.055-.514c0-.037-.01-.075-.017-.119l.094-.118a.246.246,0,0,0,0-.055c0-.064-.017-.128-.016-.192,0-.09.059-.123.159-.1l.036.01c.071-.074.141-.148.21-.223.038-.043.074-.088.11-.132.052-.065.1-.134.155-.2a.226.226,0,0,0,.078-.15.14.14,0,0,1,.063-.112,1,1,0,0,0,.305-.437.538.538,0,0,1,.157-.215.407.407,0,0,0,.115-.127l.009-.014a1.049,1.049,0,0,1,.047-.372,4.445,4.445,0,0,1,.147-.519.318.318,0,0,1,.035-.089.4.4,0,0,0,.082-.269.263.263,0,0,1,.034-.107,1.01,1.01,0,0,0,.113-.284.222.222,0,0,1,.105-.154.828.828,0,0,0,.269-.336c.067-.131.139-.26.206-.391a.183.183,0,0,0,.023-.108.224.224,0,0,1,.044-.18.469.469,0,0,0,.071-.217c.012-.108.038-.214.058-.321a.08.08,0,0,1,.014-.036.833.833,0,0,0,.142-.419c.036-.015.07-.031.105-.042a.6.6,0,0,0,.412-.4c.032-.091.07-.18.1-.273a.953.953,0,0,1,.183-.335,1.858,1.858,0,0,0,.23-.376c.008-.018.013-.041.026-.051.11-.083.114-.208.137-.327a2.222,2.222,0,0,0,.054-.514,1.193,1.193,0,0,0-.016-.119l.093-.118a.321.321,0,0,0,.005-.055c-.005-.064-.017-.128-.016-.192,0-.09.058-.123.158-.1l.036.01c.071-.074.142-.148.21-.223.039-.043.075-.088.111-.132.052-.065.1-.134.155-.2a.225.225,0,0,0,.077-.15.138.138,0,0,1,.064-.112,1,1,0,0,0,.3-.437.531.531,0,0,1,.158-.215.4.4,0,0,0,.114-.127.992.992,0,0,1,.242-.295A.4.4,0,0,1,81.121,25a1.143,1.143,0,0,1,.542-.092.549.549,0,0,0,.171-.012,1.312,1.312,0,0,1,.4-.024c.045.005.09.014.135.021.026,0,.051,0,.077,0l.306.014a.265.265,0,0,0,.084,0,.3.3,0,0,1,.193.009.205.205,0,0,0,.156,0,.436.436,0,0,1,.3,0,.154.154,0,0,0,.095,0,.5.5,0,0,1,.217-.028.253.253,0,0,0,.12-.011.211.211,0,0,1,.144-.006.3.3,0,0,0,.193-.015.139.139,0,0,1,.1-.008.659.659,0,0,0,.208,0,.925.925,0,0,1,.292.016.146.146,0,0,0,.061.009.656.656,0,0,1,.31.046.175.175,0,0,0,.072,0,.462.462,0,0,0,.057-.024.348.348,0,0,1,.249-.026,1.472,1.472,0,0,0,.22.009c.111,0,.22-.01.331-.015a.621.621,0,0,1,.086,0,.712.712,0,0,0,.206-.016.763.763,0,0,1,.252-.023c.02,0,.046.011.06,0,.061-.034.121-.01.182-.009a.4.4,0,0,1,.048.007c.074.009.149-.034.22,0a.734.734,0,0,0,.216.039c.1.014.2.022.311.033l.038.089.156.07c.009.025.016.048.025.07a.527.527,0,0,0,.158.245.6.6,0,0,1,.223.369.3.3,0,0,0,.063.144.339.339,0,0,1,.054.234.576.576,0,0,1-.006.11.215.215,0,0,0,.015.132.419.419,0,0,1,.018.1c.008.04.019.079.028.119.012.056.024.112.035.169a.2.2,0,0,1-.018.12c-.027.059-.057.117-.081.178a.6.6,0,0,0-.055.187c0,.02,0,.047-.006.06-.056.071-.046.163-.078.241a.378.378,0,0,1-.072.141.256.256,0,0,0-.042.088,1.356,1.356,0,0,0-.051.152.456.456,0,0,1-.174.23.16.16,0,0,0-.07.122c0,.114-.077.165-.164.208a.377.377,0,0,1-.081.031.2.2,0,0,1-.24-.073.163.163,0,0,0-.156-.07,1.321,1.321,0,0,1-.355-.012.205.205,0,0,0-.061,0c-.11,0-.22,0-.331,0s-.2.01-.294.007a2.478,2.478,0,0,1-.4-.007,1.068,1.068,0,0,0-.2-.008,2.841,2.841,0,0,1-.442-.015,1.59,1.59,0,0,1-.365.01,2.225,2.225,0,0,1-.258,0c-.086,0-.172,0-.257,0-.054,0-.107,0-.16,0a1.661,1.661,0,0,0-.282.005c-.061.008-.123,0-.184.006-.078,0-.156.014-.233.017-.139,0-.278.006-.417.008a.09.09,0,0,1-.037,0s-.009,0-.014,0c-.03.061-.071.117-.095.181a.349.349,0,0,1-.049.083,1.649,1.649,0,0,0-.224.467,2.54,2.54,0,0,1-.109.245c-.019.041-.041.08-.057.122a2.334,2.334,0,0,1-.133.3,1.048,1.048,0,0,0-.1.31.479.479,0,0,1-.125.274.34.34,0,0,0-.066.094,2.685,2.685,0,0,1-.277.5c-.012.015-.028.032-.028.049a1.743,1.743,0,0,1-.171.447,4.053,4.053,0,0,1-.192.439c-.037.081-.083.158-.124.238a3.059,3.059,0,0,0-.215.428,1.049,1.049,0,0,0-.122.477.28.28,0,0,1-.034.148.513.513,0,0,0-.071.2.088.088,0,0,1-.037.064c-.065.031-.063.09-.075.146a.138.138,0,0,1-.089.117c-.071.021-.09.082-.117.141-.093.2-.19.406-.285.609a1.379,1.379,0,0,0-.058.143.563.563,0,0,1-.17.295.122.122,0,0,0-.033.047c-.057.122-.112.245-.17.366a1.754,1.754,0,0,0-.173.485.5.5,0,0,1-.151.284.63.63,0,0,0-.166.279.821.821,0,0,1-.127.279.159.159,0,0,0-.032.07,3.43,3.43,0,0,1-.251.659.673.673,0,0,1-.135.248.335.335,0,0,0-.058.12c-.025.066-.043.135-.068.2a2.813,2.813,0,0,1-.2.459c-.094.158-.166.33-.246.5a.35.35,0,0,0-.021.093.716.716,0,0,1-.141.333c-.047.06-.085.127-.131.2a.87.87,0,0,1-.277-.071c-.038.106-.094.2-.129.313a4.053,4.053,0,0,1-.192.439c-.037.081-.083.158-.124.238a3.178,3.178,0,0,0-.216.428,1.048,1.048,0,0,0-.121.477.278.278,0,0,1-.034.148.5.5,0,0,0-.071.2.088.088,0,0,1-.037.064c-.065.031-.063.09-.075.146a.138.138,0,0,1-.089.117c-.071.021-.091.082-.118.141-.092.2-.19.406-.284.609-.022.046-.041.094-.059.143a.561.561,0,0,1-.169.3.122.122,0,0,0-.033.047c-.057.122-.112.245-.17.366a1.754,1.754,0,0,0-.173.485.492.492,0,0,1-.152.284.649.649,0,0,0-.166.279.8.8,0,0,1-.127.279.169.169,0,0,0-.031.07,3.43,3.43,0,0,1-.251.659,1.037,1.037,0,0,1-.084.174c0,.012.01.021.009.033a.249.249,0,0,0,.109.258c-.077.114-.144.222-.221.323a.543.543,0,0,0-.118.319.99.99,0,0,1-.164.507,2.82,2.82,0,0,0-.269.51.311.311,0,0,1-.047.083,1.625,1.625,0,0,0-.225.467,2.54,2.54,0,0,1-.109.245c-.019.041-.041.08-.057.122a2.482,2.482,0,0,1-.133.3,1.05,1.05,0,0,0-.1.31.472.472,0,0,1-.125.274.359.359,0,0,0-.065.094,2.743,2.743,0,0,1-.277.5.1.1,0,0,0-.029.049,1.707,1.707,0,0,1-.171.447,4.244,4.244,0,0,1-.19.439c-.039.081-.084.158-.125.238a3.178,3.178,0,0,0-.216.428,1.048,1.048,0,0,0-.121.477.281.281,0,0,1-.035.148.511.511,0,0,0-.07.2.088.088,0,0,1-.037.064c-.065.031-.063.09-.075.146a.138.138,0,0,1-.089.117c-.071.021-.09.082-.118.141-.092.2-.19.406-.284.609a1.379,1.379,0,0,0-.058.143.569.569,0,0,1-.17.3.122.122,0,0,0-.033.047c-.057.122-.112.245-.17.366a1.754,1.754,0,0,0-.173.485.492.492,0,0,1-.152.284.639.639,0,0,0-.166.279.811.811,0,0,1-.127.279.169.169,0,0,0-.031.07,3.43,3.43,0,0,1-.251.659.673.673,0,0,1-.135.248.354.354,0,0,0-.059.12c-.025.066-.042.135-.068.2a3.636,3.636,0,0,1-.163.381c-.005.025-.008.051-.012.077a1.957,1.957,0,0,1-.064.354c-.116.312-.137.646-.236.961a.8.8,0,0,0-.039.113,2.5,2.5,0,0,1-.581,1.2,6.358,6.358,0,0,0-.71.854.154.154,0,0,1-.058.069c-.285.108-.407.372-.567.595-.111.155-.19.333-.3.484a1.818,1.818,0,0,0-.239.45c-.088.224-.184.446-.286.664a1.037,1.037,0,0,1-.165.249,1.314,1.314,0,0,0-.3.741.816.816,0,0,1-.164.41,2.349,2.349,0,0,0-.279.428.56.56,0,0,1-.393.346.148.148,0,0,0-.077.045,7.955,7.955,0,0,0-.577.57.758.758,0,0,1-.128.125c-.093.075-.189.148-.286.22a.222.222,0,0,1-.1.057c-.2.009-.343.156-.524.211-.1.032-.206.077-.311.11a.165.165,0,0,1-.115.006.91.91,0,0,0-.906.123c-.062.033-.121.072-.184.1a5.7,5.7,0,0,1-.649.315,1.5,1.5,0,0,1-.644.109.942.942,0,0,0-.853.355c-.057.07-.112.142-.167.214a.468.468,0,0,1-.388.2,2.179,2.179,0,0,0-.766.141.222.222,0,0,1-.2,0c-.223-.126-.452-.032-.676-.012-.08.007-.152.085-.243.14a.286.286,0,0,0-.282-.1.242.242,0,0,1-.218-.084.565.565,0,0,0-.265-.133,2.811,2.811,0,0,0-.752-.208c-.259-.148-.574-.089-.839-.226a.235.235,0,0,0-.173,0,.256.256,0,0,1-.322-.1A.83.83,0,0,0,54,67.4a2.522,2.522,0,0,1-.275-.113,2.2,2.2,0,0,0-.433-.108.06.06,0,0,0-.029,0c-.14.039-.248-.074-.377-.08a1.866,1.866,0,0,1-.358,0,.95.95,0,0,1-.437-.306,4.619,4.619,0,0,0-.425-.426,1.71,1.71,0,0,1-.277-.226c-.026-.031-.071-.055-.079-.089a.712.712,0,0,0-.283-.377.245.245,0,0,1-.073-.126.493.493,0,0,0-.366-.364,7.668,7.668,0,0,1-.891-.428.488.488,0,0,1-.168-.158,2.821,2.821,0,0,0-.444-.527,1.369,1.369,0,0,1-.235-.31.628.628,0,0,0-.242-.261.283.283,0,0,1-.107-.1c-.174-.281-.381-.537-.581-.8a1.4,1.4,0,0,1-.087-.157c-.03-.052-.052-.127-.1-.149-.184-.087-.232-.261-.307-.422a.658.658,0,0,0-.15-.187.618.618,0,0,1-.181-.307c-.061-.222-.137-.441-.2-.663a.531.531,0,0,0-.174-.275,2.551,2.551,0,0,1-.519-.736.378.378,0,0,1-.042-.141c-.023-.2-.042-.4-.063-.6a.663.663,0,0,1,.092-.543.221.221,0,0,0,.03-.2,1.884,1.884,0,0,0-.16-.484,1.01,1.01,0,0,1-.113-.347.5.5,0,0,1-.053-.175c0-.014,0-.032,0-.042-.062-.086-.065-.207-.161-.273-.039-.026-.021-.074-.033-.093-.093-.063-.172-.116-.25-.172a.348.348,0,0,1-.047-.059l-.119-.141c0-.016.006-.047.008-.079a.133.133,0,0,0-.067-.137c-.031-.018-.061-.038-.091-.058a1.047,1.047,0,0,1-.291-.264.1.1,0,0,0-.049-.041c-.063-.018-.09-.073-.117-.12s-.074-.114-.113-.17a.232.232,0,0,1-.03-.056.112.112,0,0,0-.08-.079c-.031-.008-.06-.024-.091-.032a.407.407,0,0,1-.155-.072.482.482,0,0,0-.116-.057.127.127,0,0,0-.094-.1c-.015,0-.028-.022-.039-.037-.033-.05-.092-.068-.132-.108a.806.806,0,0,0-.106-.121.338.338,0,0,1-.076-.075.337.337,0,0,0-.105-.091c-.07-.038-.138-.078-.209-.111a.273.273,0,0,1-.09-.058.2.2,0,0,0-.157-.058A.558.558,0,0,1,42.9,54.5a.337.337,0,0,1-.107-.046.355.355,0,0,0-.109-.04.049.049,0,0,0-.041.01.211.211,0,0,1-.2.044,1.069,1.069,0,0,0-.277-.009.976.976,0,0,1-.246-.022.342.342,0,0,0-.159,0,.773.773,0,0,1-.234.032.775.775,0,0,0-.16.016.287.287,0,0,1-.159-.034.4.4,0,0,1-.22.018.075.075,0,0,0-.042,0,.3.3,0,0,1-.191-.01.661.661,0,0,0-.241-.027.123.123,0,0,1-.09-.019.189.189,0,0,0-.133-.033.171.171,0,0,1-.159-.046.056.056,0,0,0-.039-.017.208.208,0,0,1-.131-.06.135.135,0,0,0-.035,0,.114.114,0,0,1-.13-.027.143.143,0,0,0-.168-.027.633.633,0,0,1-.115.023.253.253,0,0,0-.216-.021c-.111-.013-.221.011-.332,0a.145.145,0,0,0-.082.024c-.039.024-.082.043-.124.065a.85.85,0,0,1-.117-.058.162.162,0,0,0-.123-.028c-.1.011-.191.025-.287.04a.158.158,0,0,0-.059.023.618.618,0,0,1-.286.085.148.148,0,0,0-.091.03.119.119,0,0,1-.047.025.205.205,0,0,0-.147.093.288.288,0,0,1-.047,0,1.517,1.517,0,0,0-.343.025.224.224,0,0,0-.067.031c-.019.009-.038.026-.056.025a.286.286,0,0,0-.2.079.13.13,0,0,1-.056.031.338.338,0,0,0-.143.071.57.57,0,0,1-.277.108.106.106,0,0,0-.058.026.543.543,0,0,1-.114.08.358.358,0,0,0-.081.07.259.259,0,0,1-.107.07.271.271,0,0,0-.1.056.589.589,0,0,1-.183.109.345.345,0,0,0-.111.082.5.5,0,0,1-.24.173.085.085,0,0,0-.06.042.2.2,0,0,1-.1.083.408.408,0,0,0-.161.136.161.161,0,0,1-.115.069.352.352,0,0,0-.085.032c0,.082.01.165.014.247.007.15.03.3.043.449a.3.3,0,0,1-.011.119,1.824,1.824,0,0,0-.088.68,1.006,1.006,0,0,1-.027.179,1.957,1.957,0,0,1-.064.354c-.116.312-.138.646-.237.961a.944.944,0,0,0-.039.113,2.505,2.505,0,0,1-.58,1.2,6.291,6.291,0,0,0-.711.854.148.148,0,0,1-.058.069c-.285.108-.406.372-.567.595-.111.155-.189.333-.3.484a1.887,1.887,0,0,0-.239.45c-.088.224-.184.446-.286.664a.98.98,0,0,1-.165.249,1.305,1.305,0,0,0-.3.741.817.817,0,0,1-.165.41,2.4,2.4,0,0,0-.279.428.56.56,0,0,1-.393.346.148.148,0,0,0-.077.045c-.181.2-.414.349-.577.57a.752.752,0,0,1-.127.125c-.094.075-.19.148-.286.22-.032.023-.068.056-.1.057-.2.009-.343.156-.524.211-.105.032-.207.077-.312.11a.165.165,0,0,1-.115.006.909.909,0,0,0-.905.123c-.063.033-.122.072-.184.1a5.784,5.784,0,0,1-.649.315,1.5,1.5,0,0,1-.644.109.942.942,0,0,0-.853.355c-.058.07-.113.142-.167.214a.469.469,0,0,1-.388.2,2.175,2.175,0,0,0-.766.141.222.222,0,0,1-.2,0c-.223-.126-.453-.032-.677-.012-.079.007-.152.085-.243.14a.285.285,0,0,0-.281-.1.243.243,0,0,1-.219-.084.561.561,0,0,0-.265-.133,2.794,2.794,0,0,0-.751-.208c-.259-.148-.575-.089-.839-.226a.235.235,0,0,0-.173,0,.258.258,0,0,1-.323-.1.825.825,0,0,0-.505-.3,2.442,2.442,0,0,1-.275-.113,2.213,2.213,0,0,0-.433-.108.064.064,0,0,0-.03,0c-.139.039-.248-.074-.376-.08a1.877,1.877,0,0,1-.359,0,.96.96,0,0,1-.437-.306,4.382,4.382,0,0,0-.425-.426,1.754,1.754,0,0,1-.277-.226c-.025-.031-.071-.055-.078-.089a.717.717,0,0,0-.283-.377.247.247,0,0,1-.074-.126.493.493,0,0,0-.365-.364,7.605,7.605,0,0,1-.892-.428.5.5,0,0,1-.168-.158,2.783,2.783,0,0,0-.444-.527,1.4,1.4,0,0,1-.235-.31A.615.615,0,0,0,13.9,63.5a.29.29,0,0,1-.107-.1,9.673,9.673,0,0,0-.581-.8c-.035-.047-.056-.1-.087-.157s-.051-.127-.1-.149c-.185-.087-.232-.261-.308-.422a.641.641,0,0,0-.15-.187.624.624,0,0,1-.18-.307c-.062-.222-.138-.441-.2-.663a.518.518,0,0,0-.174-.275,2.547,2.547,0,0,1-.518-.736.345.345,0,0,1-.042-.141c-.024-.2-.042-.4-.063-.6a.666.666,0,0,1,.091-.543.221.221,0,0,0,.031-.2,1.924,1.924,0,0,0-.16-.484.975.975,0,0,1-.1-.7,2.03,2.03,0,0,0,.029-.8.74.74,0,0,1,.073-.5,1.21,1.21,0,0,0,.119-.462.192.192,0,0,1,0-.024.809.809,0,0,1-.316-.192.146.146,0,0,1-.038-.044c-.052-.081-.166-.086-.212-.159a1.644,1.644,0,0,1-.09-.25c-.013-.031-.055-.05-.084-.075l0-.012c-.006-.03,0-.069-.021-.089a.515.515,0,0,1-.114-.371c0-.038-.009-.076-.01-.115A.175.175,0,0,1,10.626,53.808Z"/><path class="cls-3" d="M86.984,24.816a.4.4,0,0,0-.048-.007c-.061,0-.121-.025-.182.009-.014.008-.04,0-.06,0a.763.763,0,0,0-.252.023.712.712,0,0,1-.206.016.621.621,0,0,0-.086,0c-.111,0-.22.013-.331.015a1.472,1.472,0,0,1-.22-.009.348.348,0,0,0-.249.026.462.462,0,0,1-.057.024.175.175,0,0,1-.072,0,.656.656,0,0,0-.31-.046.146.146,0,0,1-.061-.009.925.925,0,0,0-.292-.016.659.659,0,0,1-.208,0,.139.139,0,0,0-.1.008.3.3,0,0,1-.193.015.211.211,0,0,0-.144.006.253.253,0,0,1-.12.011.5.5,0,0,0-.217.028.154.154,0,0,1-.095,0,.436.436,0,0,0-.3,0,.205.205,0,0,1-.156,0,.3.3,0,0,0-.193-.009.265.265,0,0,1-.084,0l-.306-.014c-.026,0-.051,0-.077,0-.045-.007-.09-.016-.135-.021a1.312,1.312,0,0,0-.4.024.549.549,0,0,1-.171.012,1.143,1.143,0,0,0-.542.092.4.4,0,0,0-.147.089.992.992,0,0,0-.242.295.4.4,0,0,1-.114.127.531.531,0,0,0-.158.215,1,1,0,0,1-.3.437.138.138,0,0,0-.064.112.225.225,0,0,1-.077.15c-.055.062-.1.131-.155.2-.036.044-.072.089-.111.132-.068.075-.139.149-.21.223l-.036-.01c-.1-.022-.157.011-.158.1,0,.064.011.128.016.192a.321.321,0,0,1-.005.055l-.093.118a1.193,1.193,0,0,1,.016.119,2.222,2.222,0,0,1-.054.514c-.023.119-.027.244-.137.327-.013.01-.018.033-.026.051a1.858,1.858,0,0,1-.23.376.953.953,0,0,0-.183.335c-.027.093-.065.182-.1.273a.6.6,0,0,1-.412.4c-.035.011-.069.027-.105.042a.833.833,0,0,1-.142.419.08.08,0,0,0-.014.036c-.02.107-.046.213-.058.321a.469.469,0,0,1-.071.217.224.224,0,0,0-.044.18.183.183,0,0,1-.023.108c-.067.131-.139.26-.206.391a.828.828,0,0,1-.269.336.222.222,0,0,0-.105.154,1.01,1.01,0,0,1-.113.284.263.263,0,0,0-.034.107.4.4,0,0,1-.082.269.318.318,0,0,0-.035.089,4.445,4.445,0,0,0-.147.519,1.049,1.049,0,0,0-.047.372l-.009.014a.407.407,0,0,1-.115.127.538.538,0,0,0-.157.215,1,1,0,0,1-.305.437.14.14,0,0,0-.063.112.226.226,0,0,1-.078.15c-.054.062-.1.131-.155.2-.036.044-.072.089-.11.132-.069.075-.139.149-.21.223l-.036-.01c-.1-.022-.158.011-.159.1,0,.064.012.128.016.192a.246.246,0,0,1,0,.055l-.094.118c.007.044.015.082.017.119a2.17,2.17,0,0,1-.055.514.458.458,0,0,1-.136.327c-.014.01-.018.033-.026.051a1.858,1.858,0,0,1-.23.376.972.972,0,0,0-.184.335c-.026.093-.064.182-.1.273a.6.6,0,0,1-.411.4c-.036.011-.069.028-.106.042a.814.814,0,0,1-.142.419.092.092,0,0,0-.013.036c-.02.107-.046.213-.058.321a.481.481,0,0,1-.071.217.224.224,0,0,0-.044.18.184.184,0,0,1-.024.108c-.066.131-.138.26-.2.391a.828.828,0,0,1-.269.336.222.222,0,0,0-.1.154.983.983,0,0,1-.114.284.261.261,0,0,0-.033.107.407.407,0,0,1-.082.269.3.3,0,0,0-.035.09,4.375,4.375,0,0,0-.147.518,1,1,0,0,0-.047.379.242.242,0,0,1-.076.226.274.274,0,0,0-.093.225c0,.025-.008.057,0,.075.044.071,0,.135-.008.2,0,.007-.016.012-.034.024l-.095-.129a.362.362,0,0,0-.051.417c-.022.025-.056.046-.062.073-.034.17-.092.333-.136.5a1.287,1.287,0,0,0-.085.249c0,.114-.111.135-.149.213-.025.051-.055.1-.078.14l.057.1c-.2.131-.181.383-.33.536-.008.007,0,.025-.007.037-.025.085-.052.169-.085.279a.194.194,0,0,1-.023.224c-.007.007-.006.021-.007.034a.134.134,0,0,0-.06.106.23.23,0,0,1-.078.15c-.054.062-.1.131-.155.2-.036.044-.072.089-.11.132-.069.075-.14.149-.21.223l-.036-.01c-.1-.022-.157.011-.159.1,0,.064.012.128.016.192a.324.324,0,0,1,0,.055l-.094.118c.007.044.015.082.017.119a2.223,2.223,0,0,1-.055.514.459.459,0,0,1-.136.327c-.014.01-.018.033-.026.051a1.9,1.9,0,0,1-.23.376.953.953,0,0,0-.183.335c-.027.093-.065.182-.1.273a.6.6,0,0,1-.412.4,1,1,0,0,0-.106.041.824.824,0,0,1-.142.419.092.092,0,0,0-.013.036c-.02.107-.046.213-.058.321a.469.469,0,0,1-.071.217.224.224,0,0,0-.044.18.184.184,0,0,1-.024.108c-.066.131-.138.26-.2.391a.983.983,0,0,1-.2.267L66.639,48.1a.571.571,0,0,1-.309-.273,1.907,1.907,0,0,1-.256-.51.354.354,0,0,0-.08-.125c-.063-.078-.124-.158-.194-.23a1.543,1.543,0,0,0-.286-.263,1.156,1.156,0,0,1-.414-.428.708.708,0,0,0-.355-.318c-.065.033-.127.065-.189.095a.86.86,0,0,1-1.114-.3.542.542,0,0,0-.173-.2.525.525,0,0,1-.252-.324.253.253,0,0,0-.142-.182.271.271,0,0,1-.118-.089,1.143,1.143,0,0,0-.546-.361.483.483,0,0,1-.51,0,.075.075,0,0,0-.059-.007.558.558,0,0,1-.432-.078.375.375,0,0,0-.146-.037c-.228,0-.455,0-.7,0-.021-.015-.058-.069-.1-.072-.215-.018-.436-.093-.641.045a.272.272,0,0,1-.258.03,1,1,0,0,0-.79.054.822.822,0,0,1-.528.044,1.023,1.023,0,0,0-.639.076.815.815,0,0,1-.436.1c-.138-.017-.247.069-.37.107a3.48,3.48,0,0,1-.413.06.46.46,0,0,0-.132.071l-.181.11a.51.51,0,0,1-.34.1.545.545,0,0,0-.316.082.783.783,0,0,1-.491.09,2.238,2.238,0,0,0-.568-.051.493.493,0,0,1-.5-.187.146.146,0,0,0-.265.039.708.708,0,0,1-.487.412.535.535,0,0,0-.236.129,4.933,4.933,0,0,1-.428.33.81.81,0,0,1-.527.248c-.1,0-.191.073-.287.075a.863.863,0,0,0-.567.246.449.449,0,0,1-.151.091.613.613,0,0,0-.261.194c-.209.231-.425.455-.637.682-.048.052-.09.108-.14.157a3.034,3.034,0,0,1-.391.371,1.943,1.943,0,0,0-.413.391,1,1,0,0,1-.214.207.419.419,0,0,0-.211.312.236.236,0,0,1-.068.129,1.229,1.229,0,0,0-.3.374c-.016.042-.07.07-.11.1a1.141,1.141,0,0,0-.173.122.833.833,0,0,1-.378.232.642.642,0,0,0-.418.327.618.618,0,0,1-.288.292l-.236.144a.5.5,0,0,1-.094.348,1.91,1.91,0,0,0-.1.311c0,.009-.009.017-.013.026a.239.239,0,0,1-.083-.056.184.184,0,0,0-.079-.07.091.091,0,0,1-.058-.06.076.076,0,0,0-.059-.057.136.136,0,0,1-.076-.071c-.02-.034-.045-.065-.068-.1-.01-.015-.027-.028-.03-.044-.01-.059-.068-.084-.087-.133s-.076-.074-.11-.114a.123.123,0,0,0-.1-.038.565.565,0,0,1-.317-.085.248.248,0,0,0-.071-.024.41.41,0,0,1-.16-.087.964.964,0,0,0-.124-.084.8.8,0,0,0-.239-.118c-.01,0-.018-.012-.026-.018-.035-.027-.067-.056-.1-.079a.236.236,0,0,0-.1-.043c-.092-.007-.153-.077-.233-.106a.2.2,0,0,0-.094-.069.237.237,0,0,1-.114-.1.125.125,0,0,0-.1-.072.62.62,0,0,1-.255-.068.475.475,0,0,0-.192-.024.659.659,0,0,1-.246-.018.5.5,0,0,0-.272-.028.786.786,0,0,1-.148-.018.212.212,0,0,1-.109-.039.272.272,0,0,0-.1-.045,1.04,1.04,0,0,0-.278-.025.211.211,0,0,1-.075,0,.456.456,0,0,0-.16-.014.135.135,0,0,1-.11-.035.1.1,0,0,0-.11-.028.218.218,0,0,1-.136-.007c-.112-.027-.218-.072-.331-.093a.39.39,0,0,0-.17,0,.554.554,0,0,1-.191.014,1.162,1.162,0,0,0-.2.01.446.446,0,0,1-.182-.006.182.182,0,0,0-.106,0,.507.507,0,0,1-.2.014.216.216,0,0,0-.156.021.249.249,0,0,1-.255.029.136.136,0,0,0-.042-.008l-.223-.032a.216.216,0,0,1-.132.031.555.555,0,0,0-.108,0,2.654,2.654,0,0,1-.471.044c-.1,0-.2.011-.3.016a.2.2,0,0,1-.2-.062.066.066,0,0,0-.028-.017.174.174,0,0,0-.182.008.587.587,0,0,1-.241.087.235.235,0,0,1-.212-.044s-.014,0-.025-.006l-.047.015a.682.682,0,0,1-.109.023.4.4,0,0,0-.285.13c-.032.043-.068.083-.1.123a.173.173,0,0,1-.048.042.624.624,0,0,0-.206.152,2.676,2.676,0,0,0-.214.212.124.124,0,0,1-.036.023c-.015-.02-.025-.044-.042-.051-.065-.025-.121-.078-.2-.063-.01,0-.021-.006-.032-.006a.529.529,0,0,0-.275.031.1.1,0,0,1-.041.009.2.2,0,0,0-.134.063.675.675,0,0,1-.059.047.99.99,0,0,1-.294.129.21.21,0,0,0-.068.03c-.068.059-.132.12-.206.188a.106.106,0,0,0-.141.022.1.1,0,0,1-.071.017.322.322,0,0,0-.185.047c-.034.02-.072.033-.105.054a.253.253,0,0,0-.11.1.137.137,0,0,1-.052.052c-.046.028-.095.053-.14.081a.49.49,0,0,0-.087.062c-.043.038-.082.081-.123.12a.374.374,0,0,1-.059.046c-.031.019-.063.034-.093.054a.189.189,0,0,1-.089.036.174.174,0,0,0-.1.049c-.017.016-.036.029-.054.044q-.979-1.615-1.957-3.231a.573.573,0,0,1-.308-.273,1.881,1.881,0,0,1-.257-.51.341.341,0,0,0-.08-.125c-.062-.078-.123-.158-.193-.23a1.576,1.576,0,0,0-.286-.263,1.159,1.159,0,0,1-.415-.428.7.7,0,0,0-.354-.318c-.065.033-.127.065-.19.095a.86.86,0,0,1-1.114-.3.542.542,0,0,0-.173-.2.526.526,0,0,1-.251-.324.257.257,0,0,0-.143-.182.277.277,0,0,1-.118-.089,1.143,1.143,0,0,0-.546-.361.483.483,0,0,1-.51,0,.073.073,0,0,0-.058-.007.56.56,0,0,1-.433-.078.366.366,0,0,0-.145-.037c-.228,0-.456,0-.7,0-.02-.015-.058-.069-.1-.072-.215-.018-.435-.093-.641.045a.271.271,0,0,1-.258.03.994.994,0,0,0-.789.054.825.825,0,0,1-.529.044,1.021,1.021,0,0,0-.638.076.819.819,0,0,1-.436.1c-.138-.017-.247.069-.37.107a3.48,3.48,0,0,1-.413.06.447.447,0,0,0-.132.071c-.061.036-.121.073-.181.11a.511.511,0,0,1-.34.1.545.545,0,0,0-.316.082.786.786,0,0,1-.492.09,2.23,2.23,0,0,0-.568-.051c-.04,0-.078,0-.115,0,.036-.048.064-.1.1-.147a1,1,0,0,0,.221-.485.544.544,0,0,1,.155-.3c.088-.092.168-.191.258-.3a.249.249,0,0,1-.079-.269c0-.017-.008-.032-.006-.049a1.007,1.007,0,0,0,.105-.148,3.41,3.41,0,0,0,.327-.625.159.159,0,0,1,.039-.066.8.8,0,0,0,.159-.262.645.645,0,0,1,.2-.257A.5.5,0,0,0,21,42.142a1.739,1.739,0,0,1,.228-.461c.072-.113.141-.229.212-.343a.122.122,0,0,1,.038-.043.563.563,0,0,0,.2-.273c.024-.046.048-.092.075-.135.118-.191.239-.38.354-.571.034-.056.06-.114.134-.127a.138.138,0,0,0,.1-.106c.018-.054.023-.112.091-.136a.084.084,0,0,0,.044-.059.524.524,0,0,1,.094-.187.286.286,0,0,0,.052-.142A1.034,1.034,0,0,1,22.8,39.1a3.129,3.129,0,0,1,.264-.4c.051-.074.105-.146.152-.222a3.9,3.9,0,0,0,.241-.413c.067-.145.194-.258.222-.424,0-.016.021-.032.034-.045a2.753,2.753,0,0,0,.335-.468.343.343,0,0,1,.076-.085.489.489,0,0,0,.156-.258,1.019,1.019,0,0,1,.135-.3,2.566,2.566,0,0,0,.167-.281c.02-.04.047-.076.07-.114.047-.077.1-.15.138-.231a1.6,1.6,0,0,1,.277-.437.327.327,0,0,0,.057-.077,2.723,2.723,0,0,1,.328-.474,1,1,0,0,0,.221-.485.539.539,0,0,1,.156-.3c.087-.092.167-.191.257-.3A.219.219,0,0,1,26,33.6c.011-.025.037-.042.044-.068a1.757,1.757,0,0,1,.216-.467c.069-.115.134-.233.2-.349a.123.123,0,0,1,.037-.044.563.563,0,0,0,.2-.279c.022-.046.045-.092.07-.137.113-.193.228-.385.339-.58.032-.057.057-.116.129-.131a.135.135,0,0,0,.1-.108c.018-.055.021-.114.088-.139a.085.085,0,0,0,.043-.06.5.5,0,0,1,.088-.19A.283.283,0,0,0,27.6,30.9a1.06,1.06,0,0,1,.164-.465,3.26,3.26,0,0,1,.253-.406c.048-.076.1-.149.145-.226a3.731,3.731,0,0,0,.23-.42c.063-.147.187-.263.21-.429a.113.113,0,0,1,.033-.047,2.7,2.7,0,0,0,.322-.477.342.342,0,0,1,.074-.087.49.49,0,0,0,.149-.263.986.986,0,0,1,.126-.3,2.559,2.559,0,0,0,.159-.285c.019-.04.045-.078.067-.117a2.33,2.33,0,0,0,.131-.234,1.645,1.645,0,0,1,.265-.445.309.309,0,0,0,.056-.078,2.747,2.747,0,0,1,.314-.484.188.188,0,0,0,.014-.024c.058,0,.116-.01.173-.013s.124,0,.184,0a1.673,1.673,0,0,1,.283-.006c.053,0,.106,0,.159,0,.086,0,.172,0,.258,0a2.453,2.453,0,0,0,.257,0,1.722,1.722,0,0,0,.366-.01,2.71,2.71,0,0,0,.441.014,1.156,1.156,0,0,1,.2.008,2.481,2.481,0,0,0,.4.008c.1,0,.2-.006.3-.007s.22,0,.331,0a.207.207,0,0,1,.061,0,1.36,1.36,0,0,0,.355.013.16.16,0,0,1,.155.07.2.2,0,0,0,.241.072.344.344,0,0,0,.081-.03c.087-.044.163-.094.164-.209a.16.16,0,0,1,.07-.122.454.454,0,0,0,.173-.23,1.418,1.418,0,0,1,.052-.151.237.237,0,0,1,.042-.089.386.386,0,0,0,.072-.141c.031-.078.022-.169.078-.241.01-.013,0-.039.006-.06a.609.609,0,0,1,.054-.187c.024-.06.054-.118.081-.178a.192.192,0,0,0,.018-.12c-.011-.056-.023-.112-.034-.168-.009-.04-.02-.08-.029-.12a.371.371,0,0,0-.017-.1A.205.205,0,0,1,35.268,24a.509.509,0,0,0,.007-.11.34.34,0,0,0-.054-.235.3.3,0,0,1-.064-.143.6.6,0,0,0-.222-.37.518.518,0,0,1-.159-.244c-.008-.023-.016-.046-.025-.07l-.156-.071-.038-.088c-.107-.012-.209-.02-.31-.033a.768.768,0,0,1-.217-.039c-.071-.032-.146.011-.219,0-.016,0-.032-.006-.049-.007-.06,0-.121-.024-.181.009a.1.1,0,0,1-.06,0,.737.737,0,0,0-.252.022.756.756,0,0,1-.207.017.5.5,0,0,0-.086,0c-.11.006-.22.014-.33.016a1.606,1.606,0,0,1-.22-.01.35.35,0,0,0-.25.026.449.449,0,0,1-.056.024.16.16,0,0,1-.072,0,.686.686,0,0,0-.311-.046.139.139,0,0,1-.06-.008.877.877,0,0,0-.293-.016.691.691,0,0,1-.208-.006.142.142,0,0,0-.095.008.3.3,0,0,1-.193.015.217.217,0,0,0-.144.007.27.27,0,0,1-.121.01.5.5,0,0,0-.217.029.154.154,0,0,1-.095,0,.433.433,0,0,0-.3.005.213.213,0,0,1-.157,0,.3.3,0,0,0-.192-.009.239.239,0,0,1-.084,0c-.1,0-.2-.01-.306-.013a.575.575,0,0,0-.171,0,.252.252,0,0,1-.163-.008.42.42,0,0,1-.073.053.142.142,0,0,0-.081.151.258.258,0,0,0,0,.04,1.931,1.931,0,0,0-.224.045.421.421,0,0,0-.153.075,1,1,0,0,0-.268.273.41.41,0,0,1-.125.116.528.528,0,0,0-.176.2,1,1,0,0,1-.343.408.136.136,0,0,0-.073.106.227.227,0,0,1-.091.142c-.06.057-.114.121-.172.181-.04.041-.08.083-.122.122-.075.068-.152.135-.229.2l-.035-.013c-.1-.031-.157,0-.167.086-.007.064,0,.129,0,.193,0,.019-.007.037-.009.054l-.1.109c0,.045.007.083,0,.121a2.182,2.182,0,0,1-.1.506c-.033.116-.049.241-.165.314-.015.009-.021.031-.031.048a1.859,1.859,0,0,1-.263.354.962.962,0,0,0-.213.317c-.034.09-.08.176-.12.263a.6.6,0,0,1-.446.361,1.121,1.121,0,0,0-.109.032.83.83,0,0,1-.18.4.119.119,0,0,0-.016.034c-.03.105-.065.208-.086.315a.489.489,0,0,1-.09.21.223.223,0,0,0-.061.175.183.183,0,0,1-.033.105c-.078.125-.161.246-.239.371a.842.842,0,0,1-.3.311.217.217,0,0,0-.118.143.978.978,0,0,1-.139.273.282.282,0,0,0-.043.1.4.4,0,0,1-.106.261.287.287,0,0,0-.042.086,4.242,4.242,0,0,0-.193.5,1.008,1.008,0,0,0-.081.373.244.244,0,0,1-.1.219.274.274,0,0,0-.111.215c0,.025-.014.056,0,.076.037.074-.008.134-.026.2,0,.007-.017.01-.036.02-.026-.043-.053-.086-.083-.137a.361.361,0,0,0-.089.411c-.024.023-.06.041-.068.067-.049.166-.122.324-.181.486a.938.938,0,0,1-.063.127c-.013.014-.017.034-.032.047-.062.056-.118.118-.177.176-.041.041-.082.081-.125.119-.077.066-.156.131-.234.2l-.035-.015c-.1-.034-.158-.007-.17.082-.008.063,0,.128-.007.193a.245.245,0,0,1-.01.054l-.107.106c0,.044,0,.083,0,.12a2.212,2.212,0,0,1-.115.5c-.036.116-.055.24-.174.31-.015.008-.021.031-.032.047a1.825,1.825,0,0,1-.273.346.98.98,0,0,0-.221.312c-.037.089-.085.173-.128.26a.6.6,0,0,1-.456.348c-.036.006-.072.018-.11.028a.824.824,0,0,1-.19.4.084.084,0,0,0-.017.034c-.033.1-.071.206-.095.312a.487.487,0,0,1-.1.207.22.22,0,0,0-.065.174.183.183,0,0,1-.037.1c-.081.123-.168.242-.25.364a.821.821,0,0,1-.306.3.22.22,0,0,0-.122.14.975.975,0,0,1-.146.269.272.272,0,0,0-.046.1.409.409,0,0,1-.113.257.275.275,0,0,0-.045.085,4.233,4.233,0,0,0-.207.5,1.008,1.008,0,0,0-.092.371.24.24,0,0,1-.1.216.274.274,0,0,0-.118.212c0,.025-.015.056-.006.076.035.075-.012.134-.032.2,0,.007-.017.01-.036.019l-.079-.139a.363.363,0,0,0-.1.408c-.025.023-.061.04-.07.065-.054.165-.131.321-.194.481a1.314,1.314,0,0,0-.113.238c-.018.112-.126.121-.174.194-.03.047-.065.091-.093.129l.044.1c-.214.107-.224.36-.39.493-.008.007-.006.025-.011.036-.035.082-.071.162-.118.268a.192.192,0,0,1-.048.219c-.008.007-.009.021-.012.033a.135.135,0,0,0-.071.1.225.225,0,0,1-.095.139c-.062.056-.118.118-.177.176-.041.041-.082.081-.125.119-.077.066-.156.131-.234.2l-.035-.015c-.1-.034-.158-.007-.17.082-.008.063,0,.128-.007.193a.322.322,0,0,1-.01.054l-.107.106c0,.044.006.083,0,.12a2.233,2.233,0,0,1-.115.5c-.036.115-.055.239-.174.309-.015.008-.021.031-.032.047a1.825,1.825,0,0,1-.273.346.98.98,0,0,0-.221.312c-.037.089-.085.173-.128.26a.6.6,0,0,1-.456.348c-.036.006-.072.018-.11.028a.824.824,0,0,1-.19.4.1.1,0,0,0-.017.034c-.033.1-.072.206-.1.312a.5.5,0,0,1-.1.207.224.224,0,0,0-.066.174.175.175,0,0,1-.036.1c-.081.123-.168.242-.249.364a.831.831,0,0,1-.307.3.22.22,0,0,0-.122.14.975.975,0,0,1-.146.269.272.272,0,0,0-.046.1.4.4,0,0,1-.114.257.325.325,0,0,0-.045.085,4.405,4.405,0,0,0-.206.5,1.028,1.028,0,0,0-.092.371.24.24,0,0,1-.1.216.274.274,0,0,0-.118.212c0,.02-.005.04-.005.059a1.1,1.1,0,0,1-.1.073l-.044.027,0,0-.006.01-.185.112a.5.5,0,0,1-.093.348,2.015,2.015,0,0,0-.1.311c-.039.1-.1.2-.142.3a.514.514,0,0,0-.008.119c-.005.03-.005.06-.008.089a.514.514,0,0,0-.111.1c-.03.047-.065.091-.094.13.019.04.03.067.045.1-.214.107-.224.36-.39.493-.009.007-.006.025-.011.037-.035.081-.071.161-.117.267a.2.2,0,0,1-.05.219.1.1,0,0,0-.017.054,1.7,1.7,0,0,1-.037.341c-.006.014.006.037.015.054a.1.1,0,0,1-.019.123.175.175,0,0,0-.038.144c0,.039.01.077.01.115a.515.515,0,0,0,.114.371c.018.02.015.059.021.089l0,.012c.029.025.071.044.084.075a1.644,1.644,0,0,0,.09.25c.046.073.16.078.212.159a.146.146,0,0,0,.038.044.809.809,0,0,0,.316.192.192.192,0,0,0,0,.024,1.21,1.21,0,0,1-.119.462.74.74,0,0,0-.073.5,2.03,2.03,0,0,1-.029.8.975.975,0,0,0,.1.7,1.924,1.924,0,0,1,.16.484.221.221,0,0,1-.031.2.666.666,0,0,0-.091.543c.021.2.039.4.063.6a.345.345,0,0,0,.042.141,2.547,2.547,0,0,0,.518.736.518.518,0,0,1,.174.275c.061.222.137.441.2.663a.624.624,0,0,0,.18.307.641.641,0,0,1,.15.187c.076.161.123.335.308.422.046.022.067.1.1.149s.052.11.087.157a9.673,9.673,0,0,1,.581.8.29.29,0,0,0,.107.1.615.615,0,0,1,.242.261,1.4,1.4,0,0,0,.235.31,2.783,2.783,0,0,1,.444.527.5.5,0,0,0,.168.158,7.605,7.605,0,0,0,.892.428.493.493,0,0,1,.365.364.247.247,0,0,0,.074.126.717.717,0,0,1,.283.377c.007.034.053.058.078.089a1.754,1.754,0,0,0,.277.226,4.382,4.382,0,0,1,.425.426.96.96,0,0,0,.437.306,1.877,1.877,0,0,0,.359,0c.128.006.237.119.376.08a.064.064,0,0,1,.03,0,2.213,2.213,0,0,1,.433.108,2.442,2.442,0,0,0,.275.113.825.825,0,0,1,.505.3.258.258,0,0,0,.323.1.235.235,0,0,1,.173,0c.264.137.58.078.839.226a2.794,2.794,0,0,1,.751.208.561.561,0,0,1,.265.133.243.243,0,0,0,.219.084.285.285,0,0,1,.281.1c.091-.055.164-.133.243-.14.224-.02.454-.114.677.012a.222.222,0,0,0,.2,0,2.175,2.175,0,0,1,.766-.141.469.469,0,0,0,.388-.2c.054-.072.109-.144.167-.214a.942.942,0,0,1,.853-.355,1.5,1.5,0,0,0,.644-.109,5.784,5.784,0,0,0,.649-.315c.062-.032.121-.071.184-.1a.909.909,0,0,1,.905-.123.165.165,0,0,0,.115-.006c.105-.033.207-.078.312-.11.181-.055.323-.2.524-.211.035,0,.071-.034.1-.057.1-.072.192-.145.286-.22a.752.752,0,0,0,.127-.125c.163-.221.4-.369.577-.57a.148.148,0,0,1,.077-.045.56.56,0,0,0,.393-.346,2.4,2.4,0,0,1,.279-.428.817.817,0,0,0,.165-.41,1.305,1.305,0,0,1,.3-.741.98.98,0,0,0,.165-.249c.1-.218.2-.44.286-.664a1.887,1.887,0,0,1,.239-.45c.114-.151.192-.329.3-.484.161-.223.282-.487.567-.595a.148.148,0,0,0,.058-.069,6.291,6.291,0,0,1,.711-.854,2.505,2.505,0,0,0,.58-1.2.944.944,0,0,1,.039-.113c.1-.315.121-.649.237-.961a1.957,1.957,0,0,0,.064-.354,1.006,1.006,0,0,0,.027-.179,1.824,1.824,0,0,1,.088-.68.3.3,0,0,0,.011-.119c-.013-.15-.036-.3-.043-.449,0-.082-.01-.165-.014-.247a.352.352,0,0,1,.085-.032.161.161,0,0,0,.115-.069.408.408,0,0,1,.161-.136.2.2,0,0,0,.1-.083.085.085,0,0,1,.06-.042.5.5,0,0,0,.24-.173.345.345,0,0,1,.111-.082.589.589,0,0,0,.183-.109.271.271,0,0,1,.1-.056.259.259,0,0,0,.107-.07.358.358,0,0,1,.081-.07.543.543,0,0,0,.114-.08.106.106,0,0,1,.058-.026.57.57,0,0,0,.277-.108.338.338,0,0,1,.143-.071.13.13,0,0,0,.056-.031.286.286,0,0,1,.2-.079c.018,0,.037-.016.056-.025a.224.224,0,0,1,.067-.031,1.517,1.517,0,0,1,.343-.025.288.288,0,0,0,.047,0,.205.205,0,0,1,.147-.093.119.119,0,0,0,.047-.025.148.148,0,0,1,.091-.03.618.618,0,0,0,.286-.085.158.158,0,0,1,.059-.023c.1-.015.191-.029.287-.04a.162.162,0,0,1,.123.028.85.85,0,0,0,.117.058c.042-.022.085-.041.124-.065a.145.145,0,0,1,.082-.024c.111.007.221-.017.332,0a.253.253,0,0,1,.216.021.633.633,0,0,0,.115-.023.143.143,0,0,1,.168.027.114.114,0,0,0,.13.027.135.135,0,0,1,.035,0,.208.208,0,0,0,.131.06.056.056,0,0,1,.039.017.171.171,0,0,0,.159.046.189.189,0,0,1,.133.033.123.123,0,0,0,.09.019.661.661,0,0,1,.241.027.3.3,0,0,0,.191.01.075.075,0,0,1,.042,0,.4.4,0,0,0,.22-.018.287.287,0,0,0,.159.034.775.775,0,0,1,.16-.016.773.773,0,0,0,.234-.032.342.342,0,0,1,.159,0,.976.976,0,0,0,.246.022,1.069,1.069,0,0,1,.277.009.211.211,0,0,0,.2-.044.049.049,0,0,1,.041-.01.355.355,0,0,1,.109.04.337.337,0,0,0,.107.046.558.558,0,0,0,.182.013.2.2,0,0,1,.157.058.273.273,0,0,0,.09.058c.071.033.139.073.209.111a.337.337,0,0,1,.105.091.338.338,0,0,0,.076.075.806.806,0,0,1,.106.121c.04.04.1.058.132.108.011.015.024.034.039.037a.127.127,0,0,1,.094.1.482.482,0,0,1,.116.057.407.407,0,0,0,.155.072c.031.008.06.024.091.032a.112.112,0,0,1,.08.079.232.232,0,0,0,.03.056c.039.056.079.11.113.17s.054.1.117.12a.1.1,0,0,1,.049.041,1.047,1.047,0,0,0,.291.264c.03.02.06.04.091.058a.133.133,0,0,1,.067.137c0,.032-.006.063-.008.079l.119.141a.348.348,0,0,0,.047.059c.078.056.157.109.25.172.012.019-.006.067.033.093.1.066.1.187.161.273.007.01,0,.028,0,.042a.5.5,0,0,0,.053.175,1.01,1.01,0,0,0,.113.347,1.884,1.884,0,0,1,.16.484.221.221,0,0,1-.03.2.663.663,0,0,0-.092.543c.021.2.04.4.063.6a.378.378,0,0,0,.042.141,2.551,2.551,0,0,0,.519.736.531.531,0,0,1,.174.275c.061.222.137.441.2.663a.618.618,0,0,0,.181.307.658.658,0,0,1,.15.187c.075.161.123.335.307.422.046.022.068.1.1.149a1.4,1.4,0,0,0,.087.157c.2.261.407.517.581.8a.283.283,0,0,0,.107.1.628.628,0,0,1,.242.261,1.369,1.369,0,0,0,.235.31,2.821,2.821,0,0,1,.444.527.488.488,0,0,0,.168.158,7.668,7.668,0,0,0,.891.428.493.493,0,0,1,.366.364.245.245,0,0,0,.073.126.712.712,0,0,1,.283.377c.008.034.053.058.079.089a1.71,1.71,0,0,0,.277.226,4.619,4.619,0,0,1,.425.426.95.95,0,0,0,.437.306,1.866,1.866,0,0,0,.358,0c.129.006.237.119.377.08a.06.06,0,0,1,.029,0,2.2,2.2,0,0,1,.433.108A2.522,2.522,0,0,0,54,67.4a.83.83,0,0,1,.506.3.256.256,0,0,0,.322.1.235.235,0,0,1,.173,0c.265.137.58.078.839.226a2.811,2.811,0,0,1,.752.208.565.565,0,0,1,.265.133.242.242,0,0,0,.218.084.286.286,0,0,1,.282.1c.091-.055.163-.133.243-.14.224-.02.453-.114.676.012a.222.222,0,0,0,.2,0,2.179,2.179,0,0,1,.766-.141.468.468,0,0,0,.388-.2c.055-.072.11-.144.167-.214a.942.942,0,0,1,.853-.355,1.5,1.5,0,0,0,.644-.109,5.7,5.7,0,0,0,.649-.315c.063-.032.122-.071.184-.1a.91.91,0,0,1,.906-.123.165.165,0,0,0,.115-.006c.105-.033.206-.078.311-.11.181-.055.324-.2.524-.211a.222.222,0,0,0,.1-.057c.1-.072.193-.145.286-.22a.758.758,0,0,0,.128-.125,7.955,7.955,0,0,1,.577-.57.148.148,0,0,1,.077-.045.56.56,0,0,0,.393-.346,2.349,2.349,0,0,1,.279-.428.816.816,0,0,0,.164-.41,1.314,1.314,0,0,1,.3-.741,1.037,1.037,0,0,0,.165-.249c.1-.218.2-.44.286-.664a1.818,1.818,0,0,1,.239-.45c.113-.151.192-.329.3-.484.16-.223.282-.487.567-.595a.154.154,0,0,0,.058-.069,6.358,6.358,0,0,1,.71-.854,2.5,2.5,0,0,0,.581-1.2.8.8,0,0,1,.039-.113c.1-.315.12-.649.236-.961a1.957,1.957,0,0,0,.064-.354c0-.026.007-.052.012-.077a3.636,3.636,0,0,0,.163-.381c.026-.066.043-.135.068-.2a.354.354,0,0,1,.059-.12.673.673,0,0,0,.135-.248,3.43,3.43,0,0,0,.251-.659.169.169,0,0,1,.031-.07.811.811,0,0,0,.127-.279.639.639,0,0,1,.166-.279.492.492,0,0,0,.152-.284,1.754,1.754,0,0,1,.173-.485c.058-.121.113-.244.17-.366a.122.122,0,0,1,.033-.047.569.569,0,0,0,.17-.3,1.379,1.379,0,0,1,.058-.143c.094-.2.192-.405.284-.609.028-.059.047-.12.118-.141a.138.138,0,0,0,.089-.117c.012-.056.01-.115.075-.146a.088.088,0,0,0,.037-.064.511.511,0,0,1,.07-.2.281.281,0,0,0,.035-.148,1.048,1.048,0,0,1,.121-.477,3.178,3.178,0,0,1,.216-.428c.041-.08.086-.157.125-.238a4.244,4.244,0,0,0,.19-.439,1.707,1.707,0,0,0,.171-.447.1.1,0,0,1,.029-.049,2.743,2.743,0,0,0,.277-.5.359.359,0,0,1,.065-.094.472.472,0,0,0,.125-.274,1.05,1.05,0,0,1,.1-.31,2.482,2.482,0,0,0,.133-.3c.016-.042.038-.081.057-.122a2.54,2.54,0,0,0,.109-.245,1.625,1.625,0,0,1,.225-.467A.311.311,0,0,0,74,47.754a2.82,2.82,0,0,1,.269-.51.99.99,0,0,0,.164-.507.543.543,0,0,1,.118-.319c.077-.1.144-.209.221-.323a.249.249,0,0,1-.109-.258c0-.012-.009-.021-.009-.033a1.037,1.037,0,0,0,.084-.174,3.43,3.43,0,0,0,.251-.659.169.169,0,0,1,.031-.07.8.8,0,0,0,.127-.279.649.649,0,0,1,.166-.279.492.492,0,0,0,.152-.284,1.754,1.754,0,0,1,.173-.485c.058-.121.113-.244.17-.366a.122.122,0,0,1,.033-.047.561.561,0,0,0,.169-.3c.018-.049.037-.1.059-.143.094-.2.192-.405.284-.609.027-.059.047-.12.118-.141a.138.138,0,0,0,.089-.117c.012-.056.01-.115.075-.146a.088.088,0,0,0,.037-.064.5.5,0,0,1,.071-.2.278.278,0,0,0,.034-.148,1.048,1.048,0,0,1,.121-.477,3.178,3.178,0,0,1,.216-.428c.041-.08.087-.157.124-.238a4.053,4.053,0,0,0,.192-.439c.035-.108.091-.207.129-.313a.87.87,0,0,0,.277.071c.046-.069.084-.136.131-.2a.716.716,0,0,0,.141-.333.35.35,0,0,1,.021-.093c.08-.167.152-.339.246-.5a2.813,2.813,0,0,0,.2-.459c.025-.066.043-.135.068-.2a.335.335,0,0,1,.058-.12.673.673,0,0,0,.135-.248,3.43,3.43,0,0,0,.251-.659.159.159,0,0,1,.032-.07.821.821,0,0,0,.127-.279.63.63,0,0,1,.166-.279.5.5,0,0,0,.151-.284,1.754,1.754,0,0,1,.173-.485c.058-.121.113-.244.17-.366a.122.122,0,0,1,.033-.047.563.563,0,0,0,.17-.295,1.379,1.379,0,0,1,.058-.143c.095-.2.192-.405.285-.609.027-.059.046-.12.117-.141a.138.138,0,0,0,.089-.117c.012-.056.01-.115.075-.146a.088.088,0,0,0,.037-.064.513.513,0,0,1,.071-.2A.28.28,0,0,0,80.875,33,1.049,1.049,0,0,1,81,32.524a3.059,3.059,0,0,1,.215-.428c.041-.08.087-.157.124-.238a4.053,4.053,0,0,0,.192-.439,1.743,1.743,0,0,0,.171-.447c0-.017.016-.034.028-.049a2.685,2.685,0,0,0,.277-.5.34.34,0,0,1,.066-.094.479.479,0,0,0,.125-.274,1.048,1.048,0,0,1,.1-.31,2.334,2.334,0,0,0,.133-.3c.016-.042.038-.081.057-.122a2.54,2.54,0,0,0,.109-.245,1.649,1.649,0,0,1,.224-.467.349.349,0,0,0,.049-.083c.024-.064.065-.12.095-.181.005,0,.01,0,.014,0a.09.09,0,0,0,.037,0c.139,0,.278,0,.417-.008.077,0,.155-.013.233-.017.061,0,.123,0,.184-.006a1.661,1.661,0,0,1,.282-.005c.053,0,.106,0,.16,0,.085,0,.171,0,.257,0a2.225,2.225,0,0,0,.258,0,1.59,1.59,0,0,0,.365-.01,2.841,2.841,0,0,0,.442.015,1.068,1.068,0,0,1,.2.008,2.478,2.478,0,0,0,.4.007c.1,0,.2-.006.294-.007s.221,0,.331,0a.205.205,0,0,1,.061,0,1.321,1.321,0,0,0,.355.012.163.163,0,0,1,.156.07.2.2,0,0,0,.24.073.377.377,0,0,0,.081-.031c.087-.043.164-.094.164-.208a.16.16,0,0,1,.07-.122.456.456,0,0,0,.174-.23,1.356,1.356,0,0,1,.051-.152.256.256,0,0,1,.042-.088.378.378,0,0,0,.072-.141c.032-.078.022-.17.078-.241.011-.013,0-.04.006-.06a.6.6,0,0,1,.055-.187c.024-.061.054-.119.081-.178a.2.2,0,0,0,.018-.12c-.011-.057-.023-.113-.035-.169-.009-.04-.02-.079-.028-.119a.419.419,0,0,0-.018-.1.215.215,0,0,1-.015-.132.576.576,0,0,0,.006-.11.339.339,0,0,0-.054-.234.3.3,0,0,1-.063-.144.6.6,0,0,0-.223-.369.527.527,0,0,1-.158-.245c-.009-.022-.016-.045-.025-.07l-.156-.07-.038-.089c-.108-.011-.21-.019-.311-.033a.734.734,0,0,1-.216-.039C87.133,24.782,87.058,24.825,86.984,24.816ZM31.011,56.378a.156.156,0,0,0-.059.132,1.328,1.328,0,0,0,.016.361.689.689,0,0,1-.066.494,1.456,1.456,0,0,0-.173.541.524.524,0,0,1-.145.325.87.87,0,0,0-.17.293,2.6,2.6,0,0,1-.137.419.734.734,0,0,0-.024.277.48.48,0,0,0-.087.458l.069.032a.948.948,0,0,0-.2.485.832.832,0,0,1-.083.283c-.07.141-.109.292-.171.434a.33.33,0,0,1-.029.08c-.048.06-.107.112-.153.174a1.32,1.32,0,0,1-.126.194.349.349,0,0,0-.13.219l-.189.053a.438.438,0,0,0-.253.144.457.457,0,0,1-.347.143.6.6,0,0,0-.3.086.8.8,0,0,1-.14.049.229.229,0,0,0-.095.047.851.851,0,0,1-.274.2.171.171,0,0,0-.071.075.3.3,0,0,1-.2.173.7.7,0,0,0-.185.1,1.388,1.388,0,0,1-.357.189,2.138,2.138,0,0,0-.338.177c-.044.024-.084.054-.126.08-.188.115-.378.226-.565.343a.435.435,0,0,1-.216.083.331.331,0,0,0-.121.033.613.613,0,0,1-.433.059c-.066-.017-.145.013-.211,0a.571.571,0,0,0-.406.068,3.48,3.48,0,0,0-.356.143.391.391,0,0,1-.185.043.5.5,0,0,0-.412.187.1.1,0,0,1-.188-.024.348.348,0,0,0-.307-.224,1.608,1.608,0,0,1-.378-.144.553.553,0,0,0-.353-.033.394.394,0,0,1-.231-.005.361.361,0,0,0-.251,0l-.145.04a.327.327,0,0,1-.1.024,2.309,2.309,0,0,0-.293-.039.633.633,0,0,1-.274,0,.578.578,0,0,0-.316-.017.717.717,0,0,1-.45-.071.59.59,0,0,0-.369-.072.7.7,0,0,1-.549-.114.189.189,0,0,0-.182-.029c-.167.054-.3-.039-.446-.093-.028-.01-.044-.054-.055-.068-.169-.048-.325-.09-.48-.136a.257.257,0,0,1-.092-.053.4.4,0,0,0-.28-.137.048.048,0,0,1-.038-.016c-.092-.12-.221-.108-.349-.1a.817.817,0,0,1-.3-.35.191.191,0,0,0-.063-.084A.18.18,0,0,1,17,62.157a.373.373,0,0,0-.109-.27.387.387,0,0,1-.08-.171.609.609,0,0,0-.7-.416l-.147.028a.493.493,0,0,1-.181-.285.813.813,0,0,0-.2-.371,1.1,1.1,0,0,1-.145-.235,1.988,1.988,0,0,1-.088-.194.246.246,0,0,1-.031-.1,1.338,1.338,0,0,0-.077-.4.4.4,0,0,0-.158-.245q-.4-1.446-.8-2.892a2.623,2.623,0,0,0-.034-.593.965.965,0,0,1-.015-.339,1.007,1.007,0,0,0-.018-.4.431.431,0,0,1,.023-.309,1.95,1.95,0,0,0,.189-.907.525.525,0,0,1,.059-.244,2.045,2.045,0,0,0,.108-.39c.024-.1.036-.21.056-.314a.216.216,0,0,1,.031-.08,1.266,1.266,0,0,0,.183-.425l.007-.022a.765.765,0,0,1,.053-.117,1.28,1.28,0,0,1,.112-.229c.138-.191.216-.415.345-.61a.622.622,0,0,0,.048-.07,1.523,1.523,0,0,1,.386-.5,2.708,2.708,0,0,1,.241-.208A4.434,4.434,0,0,0,16.7,50.4c.015-.015.034-.034.052-.035a.966.966,0,0,0,.5-.3c.105-.084.193-.19.3-.272a1.344,1.344,0,0,0,.25-.261c.1-.136.211-.269.322-.4a.68.68,0,0,1,.16-.138.935.935,0,0,0,.345-.45.563.563,0,0,1,.19-.247,1.72,1.72,0,0,0,.273-.239.4.4,0,0,1,.334-.161.109.109,0,0,0,.061-.015c.162-.1.35-.159.5-.278a.521.521,0,0,1,.111-.061c.079-.034.158-.065.237-.095a.151.151,0,0,1,.082-.02c.139.033.264-.04.4-.043.078,0,.156-.013.233-.015a.117.117,0,0,1,.08.018.647.647,0,0,0,.642.089c.049-.01.1-.025.145-.035a4.179,4.179,0,0,1,.5-.09,1.072,1.072,0,0,1,.461.049.667.667,0,0,0,.65-.078c.052-.037.1-.075.155-.115a.337.337,0,0,1,.3-.06,1.519,1.519,0,0,0,.549.051.16.16,0,0,1,.139.036c.128.129.3.109.46.139.055.01.119-.03.192-.05a.2.2,0,0,0,.173.122.175.175,0,0,1,.133.1.4.4,0,0,0,.156.142,2.019,2.019,0,0,0,.473.287c.149.15.375.171.529.315a.168.168,0,0,0,.119.031.182.182,0,0,1,.2.127.586.586,0,0,0,.288.3,1.726,1.726,0,0,1,.166.13,1.6,1.6,0,0,0,.274.157.051.051,0,0,0,.022,0c.1,0,.155.1.241.127a1.367,1.367,0,0,1,.246.066.683.683,0,0,1,.239.293,3.135,3.135,0,0,0,.208.372,1.161,1.161,0,0,1,.146.208c.011.026.038.051.036.076a.513.513,0,0,0,.121.311.173.173,0,0,1,.027.1.347.347,0,0,0,.179.318,5.388,5.388,0,0,1,.527.463.361.361,0,0,1,.084.141,2.024,2.024,0,0,0,.2.445.97.97,0,0,1,.1.256.442.442,0,0,0,.115.225.191.191,0,0,1,.053.09c.066.225.158.44.244.656a1.246,1.246,0,0,1,.03.124c.01.041.011.1.038.12a.511.511,0,0,1,.129.348.465.465,0,0,0,.066.156.436.436,0,0,1,.064.244c0,.164.01.327.009.491a.363.363,0,0,0,.067.221,1.833,1.833,0,0,1,.212.6.243.243,0,0,1,0,.1c-.022.141-.047.281-.071.421A.47.47,0,0,1,31.011,56.378Zm34.223.835a.656.656,0,0,1-.063.474,1.365,1.365,0,0,0-.166.518.5.5,0,0,1-.138.311.8.8,0,0,0-.162.28,2.509,2.509,0,0,1-.132.4c-.037.063-.016.159-.023.266a.457.457,0,0,0-.084.439l.067.031a.886.886,0,0,0-.189.464.807.807,0,0,1-.079.271c-.068.135-.105.279-.164.416a.35.35,0,0,1-.028.077c-.047.057-.1.107-.147.166a1.265,1.265,0,0,1-.121.186.332.332,0,0,0-.124.21l-.182.051a.421.421,0,0,0-.242.138.432.432,0,0,1-.333.136.571.571,0,0,0-.29.083.8.8,0,0,1-.135.047.212.212,0,0,0-.09.045.817.817,0,0,1-.263.189.168.168,0,0,0-.068.072.286.286,0,0,1-.2.166.694.694,0,0,0-.178.095,1.333,1.333,0,0,1-.342.181,1.967,1.967,0,0,0-.324.17c-.041.023-.079.052-.12.076-.18.11-.362.217-.541.329a.412.412,0,0,1-.207.079.309.309,0,0,0-.115.032.588.588,0,0,1-.416.056c-.063-.016-.139.013-.2,0a.546.546,0,0,0-.389.066,3.185,3.185,0,0,0-.341.136.37.37,0,0,1-.177.042.479.479,0,0,0-.394.179.1.1,0,0,1-.181-.023.334.334,0,0,0-.294-.215,1.514,1.514,0,0,1-.362-.137.527.527,0,0,0-.338-.032.369.369,0,0,1-.221-.005.345.345,0,0,0-.241,0l-.138.038a.308.308,0,0,1-.1.023,2.293,2.293,0,0,0-.282-.037.6.6,0,0,1-.261,0,.551.551,0,0,0-.3-.017.693.693,0,0,1-.431-.067.558.558,0,0,0-.354-.069.677.677,0,0,1-.526-.11.183.183,0,0,0-.174-.028c-.16.053-.29-.037-.428-.088-.026-.01-.041-.052-.051-.066-.163-.045-.312-.086-.46-.13a.255.255,0,0,1-.089-.051.375.375,0,0,0-.268-.13.055.055,0,0,1-.037-.016c-.087-.116-.211-.1-.334-.093a.776.776,0,0,1-.291-.336.187.187,0,0,0-.06-.08.171.171,0,0,1-.06-.145.357.357,0,0,0-.1-.258.36.36,0,0,1-.076-.164.585.585,0,0,0-.674-.4l-.141.028a.476.476,0,0,1-.173-.273.787.787,0,0,0-.193-.356,1.073,1.073,0,0,1-.139-.225c-.032-.06-.057-.123-.084-.186a.221.221,0,0,1-.029-.1,1.3,1.3,0,0,0-.075-.381.387.387,0,0,0-.151-.235l-.768-2.77a2.462,2.462,0,0,0-.033-.568.932.932,0,0,1-.013-.325,1.016,1.016,0,0,0-.017-.385.4.4,0,0,1,.022-.3,1.883,1.883,0,0,0,.18-.869.5.5,0,0,1,.057-.235,2.015,2.015,0,0,0,.1-.373c.023-.1.035-.2.054-.3a.185.185,0,0,1,.029-.076,1.225,1.225,0,0,0,.182-.429.792.792,0,0,1,.051-.111,1.357,1.357,0,0,1,.107-.22c.133-.183.208-.4.331-.584a.725.725,0,0,0,.046-.067,1.7,1.7,0,0,1,.6-.678,4.279,4.279,0,0,0,.621-.428.1.1,0,0,1,.051-.034.923.923,0,0,0,.48-.285c.1-.08.184-.182.286-.26a1.258,1.258,0,0,0,.239-.25q.148-.2.309-.382a.686.686,0,0,1,.153-.132.891.891,0,0,0,.33-.43.55.55,0,0,1,.183-.238,1.569,1.569,0,0,0,.261-.228.38.38,0,0,1,.32-.154.1.1,0,0,0,.059-.015c.155-.1.335-.152.482-.267a.5.5,0,0,1,.107-.058c.074-.032.15-.062.226-.091a.157.157,0,0,1,.078-.019c.133.031.253-.038.382-.041.074,0,.149-.012.223-.015a.115.115,0,0,1,.077.018.619.619,0,0,0,.614.086c.047-.01.093-.025.14-.034a4,4,0,0,1,.482-.087,1.029,1.029,0,0,1,.441.048.641.641,0,0,0,.622-.075c.051-.036.1-.073.149-.11a.319.319,0,0,1,.29-.058,1.461,1.461,0,0,0,.526.049.151.151,0,0,1,.133.035c.123.123.29.1.44.132.054.01.115-.028.185-.047a.2.2,0,0,0,.166.117.164.164,0,0,1,.127.095.4.4,0,0,0,.149.136,1.934,1.934,0,0,0,.453.274c.143.144.359.164.507.3a.164.164,0,0,0,.114.03.174.174,0,0,1,.193.122.57.57,0,0,0,.275.289,1.591,1.591,0,0,1,.16.124,1.47,1.47,0,0,0,.263.15.042.042,0,0,0,.02,0c.1,0,.149.094.231.122a1.248,1.248,0,0,1,.235.064.644.644,0,0,1,.229.28,3.267,3.267,0,0,0,.2.357,1.143,1.143,0,0,1,.14.2c.011.025.036.05.034.073a.493.493,0,0,0,.117.3.174.174,0,0,1,.025.1.335.335,0,0,0,.171.3,5.18,5.18,0,0,1,.5.443.351.351,0,0,1,.081.135,1.943,1.943,0,0,0,.193.426.928.928,0,0,1,.1.246.423.423,0,0,0,.11.215.187.187,0,0,1,.051.087c.063.215.151.42.234.628a1.19,1.19,0,0,1,.028.118c.01.04.011.093.036.116a.486.486,0,0,1,.124.333.446.446,0,0,0,.064.149.427.427,0,0,1,.061.234c0,.157.009.314.008.47a.361.361,0,0,0,.064.212,1.759,1.759,0,0,1,.2.577.258.258,0,0,1,0,.1c-.021.134-.046.268-.069.4a.449.449,0,0,1-.159.339.149.149,0,0,0-.057.126A1.3,1.3,0,0,0,65.234,57.213Z"/></svg>