<svg id="base" xmlns="http://www.w3.org/2000/svg" viewBox="0 0 100 100"><defs><style>.cls-1{fill:#f36;}.cls-2{fill:#fde8e6;}</style></defs><title>c 2</title><path class="cls-1" d="M90.793,24.109a5.645,5.645,0,0,0-.842-1.369,11.683,11.683,0,0,1-1.613-2.353,2.046,2.046,0,0,0-.628-.722,31.774,31.774,0,0,0-3.516-2.123A2.023,2.023,0,0,1,82.837,15.9a1.018,1.018,0,0,0-.251-.553,2.924,2.924,0,0,1-1.011-1.668c-.015-.141-.194-.26-.286-.4a7.152,7.152,0,0,0-1.053-1.042,18.715,18.715,0,0,1-1.578-1.928,3.962,3.962,0,0,0-1.681-1.436,7.986,7.986,0,0,0-1.489-.132c-.53-.079-.93-.586-1.528-.481a.254.254,0,0,1-.125,0,9.321,9.321,0,0,1-1.747-.62,10.465,10.465,0,0,0-1.095-.575,3.43,3.43,0,0,1-1.966-1.438,1.07,1.07,0,0,0-1.3-.526.99.99,0,0,1-.72-.056c-1.038-.67-2.371-.555-3.385-1.268A11.737,11.737,0,0,1,60.6,2.621a2.345,2.345,0,0,1-1.043-.657,1.011,1.011,0,0,0-.869-.432,1.2,1.2,0,0,1-1.127-.525c-.4.191-.737.486-1.068.483-.939-.01-1.932.285-2.8-.323a.93.93,0,0,0-.842-.064,9.094,9.094,0,0,1-3.239.271,1.986,1.986,0,0,0-1.7.661c-.257.277-.517.552-.786.818a3.974,3.974,0,0,1-3.695,1.12,6.3,6.3,0,0,0-2.72.189A24.212,24.212,0,0,0,37.879,5.2c-.275.106-.536.245-.81.353-1.255.5-2.507,1.007-3.811.145a.717.717,0,0,0-.481-.023c-.45.1-.89.237-1.341.328-.773.155-1.43.7-2.265.658a.953.953,0,0,0-.454.2c-.431.257-.86.518-1.28.793a2.986,2.986,0,0,0-.587.464c-.77.844-1.8,1.358-2.641,2.116a.624.624,0,0,1-.34.154,2.357,2.357,0,0,0-1.781,1.269,10.119,10.119,0,0,1-1.343,1.653,3.36,3.36,0,0,0-.861,1.622,5.474,5.474,0,0,1-1.555,2.939,4.1,4.1,0,0,0-.792.958c-.519.859-1.014,1.734-1.476,2.625a7.767,7.767,0,0,1-1.188,1.756c-.538.58-.941,1.281-1.468,1.873-.763.858-1.384,1.9-2.613,2.229-.105.028-.2.156-.269.257A26.587,26.587,0,0,1,7.2,30.8a10.445,10.445,0,0,0-2.934,4.715,3.066,3.066,0,0,1-.211.451c-.549,1.258-.782,2.624-1.4,3.863a8.151,8.151,0,0,0-.42,1.437,4.12,4.12,0,0,0-.192.724,7.5,7.5,0,0,1-.661,2.771,1.177,1.177,0,0,0-.1.487c-.012.623.019,1.247-.015,1.869a11.835,11.835,0,0,1-.24,2.35,3.043,3.043,0,0,0-.1,1.468,11.359,11.359,0,0,1-.2,5.411,2.462,2.462,0,0,0,.173,1.8,5.945,5.945,0,0,1,.5,2.292,5.588,5.588,0,0,0,.418,1.934,14.884,14.884,0,0,1,.785,3.376l7.523,15.811A2.336,2.336,0,0,1,11.3,82.809a7.756,7.756,0,0,1,.844,2.206,1.4,1.4,0,0,0,.28.546c.224.348.443.7.7,1.026a6.459,6.459,0,0,0,1.075,1.2,4.722,4.722,0,0,1,1.533,1.93,2.894,2.894,0,0,0,1.334,1.452c.284-.108.555-.214.829-.316a3.581,3.581,0,0,1,4.492,1.669,2.216,2.216,0,0,0,.631.9,2.154,2.154,0,0,1,.9,1.437,1.035,1.035,0,0,0,.51.806,1.121,1.121,0,0,1,.451.416,4.731,4.731,0,0,0,2.109,1.706c.731-.2,1.473-.4,2.121.2a.31.31,0,0,0,.239.053,2.323,2.323,0,0,1,1.758.5,1.525,1.525,0,0,0,.589.209c.944.106,1.892.189,2.921.288.077.072.211.307.383.338.884.16,1.768.557,2.68.071a1.136,1.136,0,0,1,1.083-.02,4.18,4.18,0,0,0,3.3.094,3.451,3.451,0,0,1,2.212.034,4.3,4.3,0,0,0,2.683-.058,3.409,3.409,0,0,1,1.852-.227,3.689,3.689,0,0,0,1.583-.3,14.111,14.111,0,0,1,1.74-.077,1.914,1.914,0,0,0,.579-.243c.268-.123.534-.25.8-.378a2.147,2.147,0,0,1,1.454-.266,2.327,2.327,0,0,0,1.347-.209,3.271,3.271,0,0,1,2.08-.173,9.4,9.4,0,0,0,2.335.438,2.044,2.044,0,0,1,2.005.971.609.609,0,0,0,1.115-.054,2.983,2.983,0,0,1,2.2-1.5,2.266,2.266,0,0,0,1.033-.437,19.775,19.775,0,0,1,1.924-1.188,3.416,3.416,0,0,1,2.291-.813c.4.035.825-.223,1.225-.192a3.633,3.633,0,0,0,2.459-.786,1.9,1.9,0,0,1,.666-.314,2.589,2.589,0,0,0,1.173-.7c.967-.865,1.958-1.7,2.937-2.555.221-.193.423-.407.651-.591A12.623,12.623,0,0,1,82.2,88.541a8.207,8.207,0,0,0,1.884-1.45,4.221,4.221,0,0,1,.979-.766,1.747,1.747,0,0,0,1.009-1.2,1.025,1.025,0,0,1,.338-.5,5.065,5.065,0,0,0,1.4-1.42c.087-.164.323-.259.5-.365a5.043,5.043,0,0,0,.767-.431,3.548,3.548,0,0,1,1.673-.807,2.7,2.7,0,0,0,1.875-1.179,2.629,2.629,0,0,1,1.322-1.088c.339-.159.676-.321,1.046-.5a2.067,2.067,0,0,1,.537-1.4,7.931,7.931,0,0,0,.541-1.243c.207-.4.5-.762.717-1.157a1.982,1.982,0,0,0,.088-.489c.216-.885.3-1.792.564-2.674a4.816,4.816,0,0,0,.2-1.714,5.5,5.5,0,0,1,.663-2.991l-.433-.113a2.789,2.789,0,0,1,.051-2.729c-.069-.65-.294-1.2-.137-1.618a14.726,14.726,0,0,0,.383-2.551,5.014,5.014,0,0,1,.692-1.857,3.065,3.065,0,0,0,.52-2.018,8.348,8.348,0,0,1,.47-3.289,4,4,0,0,0-.109-2.911,7.828,7.828,0,0,1-.452-2.062A.915.915,0,0,1,99.5,47.2a2.752,2.752,0,0,0,.617-2.2c0-.83.009-1.661,0-2.491a1.522,1.522,0,0,0-.112-.6,10.572,10.572,0,0,0-1.832-3.244,2.13,2.13,0,0,1-.6-1.2c-.157-.942-.376-1.874-.535-2.816a2.578,2.578,0,0,0-.615-1.338,2.622,2.622,0,0,1-.541-.828c-.245-.7-.366-1.434-1.093-1.867-.181-.108-.237-.427-.341-.654a6.234,6.234,0,0,0-.294-.679c-.714-1.159-1.464-2.3-2.065-3.523a1.115,1.115,0,0,0-.4-.465A2.565,2.565,0,0,1,90.793,24.109Z"/><path class="cls-2" d="M39.944,23.053l-1.686,5.6c-1.451,4.744-2.618,8.893-3.81,13.507l-3.241-.777c.83-3.4,2.022-7.933,3.137-11.848l-2.23-.389v-.13l4.667-6.585v.156l.026-.1Z"/><path class="cls-2" d="M70.311,39.023l-.777,3.06a66.643,66.643,0,0,0-6.793-.234,59.475,59.475,0,0,0-6.04.337l.881-3.111c.778-.1,1.478-.155,2.2-.207,2.981-1.971,7.907-5.678,9.022-10.629a11.42,11.42,0,0,0,.337-2.489,7.07,7.07,0,0,0-.156-1.581c-2.333,1.3-4.381,4.355-5.548,7.1L60.33,30.105c1.271-3.681,3.811-7.052,6.533-7.907l5.807,1.659a8.051,8.051,0,0,1,.208,1.659,11.993,11.993,0,0,1-3.241,8.426,23.359,23.359,0,0,1-5.859,4.8C66.163,38.738,67.848,38.842,70.311,39.023Z"/><path class="cls-2" d="M39.651,70.1c0,2.9-2.7,6.274-6.455,7.829l-5.574-1.581a16.428,16.428,0,0,1-.752-4.952,14.817,14.817,0,0,1,.078-1.555h3.266a14.255,14.255,0,0,0,.908,6.2c2.981-1.3,4.925-3.682,4.925-5.626,0-1.97-2.67-2.411-3.759-2.515-1.063-.1-1.4-.052-2.1-.1l.311-1.815a16.891,16.891,0,0,0,1.919-.285,5.376,5.376,0,0,0,4.277-5.6c0-.26,0-.571-.026-.934a11,11,0,0,0-4.744,4.511l-2.9-1.3A11.649,11.649,0,0,1,34.233,57.4l5.7,1.556a5.789,5.789,0,0,1,.285,1.763c0,2.9-2.515,4.847-5.133,5.262C37.006,66.261,39.651,67.427,39.651,70.1Z"/><path class="cls-2" d="M72.96,73.183l-3.889-.078c-.337,1.349-.7,2.723-1.089,4.226l-3.188-.778c.311-1.244.6-2.384.855-3.5-1.141-.025-2.307-.025-3.422-.025-1.529,0-2.955.025-4.122.052l.052-2.23c2.178-3.059,5.444-7.959,7.881-11.225h3.241c.233-.83.492-1.686.777-2.618l3.448.673c-1.737,5.548-2.774,9.229-3.707,12.7,1.4-.051,2.722-.1,3.915-.1Zm-6.689-2.671c.778-3.032,1.582-6.091,2.852-10.369-2.592,3.577-5.392,7.311-7.674,10.577C62.927,70.669,64.586,70.591,66.271,70.512Z"/></svg>