<svg id="base" xmlns="http://www.w3.org/2000/svg" viewBox="0 0 100 100"><defs><style>.cls-1{fill:#f36;}.cls-2{fill:#1858a8;}.cls-3{fill:#ffeded;}</style></defs><title>c 2</title><path class="cls-1" d="M99.29,43.27c-.535-.7-1.008-1.439-1.555-2.124a5.924,5.924,0,0,1-.923-1.973,3.435,3.435,0,0,0-.526-1.111,3.724,3.724,0,0,1-.6-1.147,2.149,2.149,0,0,1,.027-1.488,1.248,1.248,0,0,0,.063-.5.472.472,0,0,1,.355-.554.8.8,0,0,0,.594-.759,2.4,2.4,0,0,0-.635-1.889,7.858,7.858,0,0,1-.825-1.014,4.5,4.5,0,0,1-.594-.821,3.134,3.134,0,0,0-.55-.766,5.8,5.8,0,0,1-1.415-2.349,3.123,3.123,0,0,0-.827-1.437,12.09,12.09,0,0,1-1.35-1.612,1.4,1.4,0,0,1-.176-.393,3.167,3.167,0,0,0-.1-.427,11.034,11.034,0,0,0-.729-1.514c-.267-.377-.523-.763-.757-1.161a22.8,22.8,0,0,0-1.387-2.144,1.5,1.5,0,0,1-.146-.252,3.113,3.113,0,0,0-.848-1.166,1.386,1.386,0,0,1-.25-.35c-.093-.14-.17-.292-.27-.426a3.012,3.012,0,0,0-1.046-1.1c-.182-.087-.281-.335-.453-.463-.426-.316-.844-.644-1.283-.947a8.22,8.22,0,0,0-1.441-.849.779.779,0,0,1-.394-.3,1.12,1.12,0,0,0-.867-.588c-.352-.081-.706-.16-1.051-.267a3.815,3.815,0,0,1-1.3-.63,6.679,6.679,0,0,1-1.211-1.241c-.189-.254-.391-.5-.589-.747a1.226,1.226,0,0,0-.859-.488,7.379,7.379,0,0,1-1.28-.27,1.1,1.1,0,0,1-.6-.369c-.2-.319-.511-.521-.733-.808A1.449,1.449,0,0,0,71.747,6.2a.633.633,0,0,1-.57-.4,1.606,1.606,0,0,0-.568-.738,4.77,4.77,0,0,1-.759-.785c-.4-.575-1.092-.677-1.591-1.084-.057-.046-.188-.028-.277-.006a1.432,1.432,0,0,1-1.5-.51.713.713,0,0,0-.148-.16.836.836,0,0,0-.326-.134c-.531-.043-1.064-.059-1.595-.1a3.391,3.391,0,0,1-.714-.132,2.009,2.009,0,0,0-1.8.11.388.388,0,0,1-.2.07,4.846,4.846,0,0,1-1.01-.041,7.1,7.1,0,0,0-1-.142,1.286,1.286,0,0,1-.811-.285.8.8,0,0,0-.887-.128,1.66,1.66,0,0,1-1.138-.01.96.96,0,0,0-.769.024c-.2.093-.4.176-.607.249A1.556,1.556,0,0,1,54.2,1.948a4.95,4.95,0,0,0-.756-.233,1.9,1.9,0,0,1-.406-.143.586.586,0,0,0-.549-.083.386.386,0,0,1-.275-.039.645.645,0,0,0-.556-.007,3.584,3.584,0,0,1-1.859.189A5.383,5.383,0,0,0,48.06,1.57a4.275,4.275,0,0,1-.507.009,2.254,2.254,0,0,0-.646.053.889.889,0,0,1-.762-.041c-.28-.143-.6-.214-.88-.348A2.539,2.539,0,0,0,43.852.988a1.022,1.022,0,0,1-.7-.146A2.742,2.742,0,0,0,41.985.477C41.553.431,41.126.331,40.7.252a.959.959,0,0,0-.64.031,2.1,2.1,0,0,1-.384.126c-.335.347-.592.637-.874.9a1.733,1.733,0,0,1-1.057.44c-.6.049-1.207.054-1.811.082a1.156,1.156,0,0,0-.212.048c-.258.064-.519.12-.773.2a1.49,1.49,0,0,0-.458.2,2.449,2.449,0,0,1-1.275.488,4.18,4.18,0,0,0-1.883.5c-.117.075-.285.064-.417.119a6.059,6.059,0,0,0-1.051.487c-.178.12-.217.439-.389.585-.2.165-.524.181-.7.359-.426.441-.946.758-1.391,1.162a3.163,3.163,0,0,1-1.749.808c-.553.079-1.11.137-1.661.233a1.2,1.2,0,0,0-.665.249A14.656,14.656,0,0,0,21.9,8.638a.722.722,0,0,1-.751.353.828.828,0,0,0-.683.179,9.037,9.037,0,0,0-1.125.9,6.843,6.843,0,0,1-1.593,1.253,2.065,2.065,0,0,0-1.009.908,3.261,3.261,0,0,1-.788,1.024,3.814,3.814,0,0,0-.884,1.143c-.1.22-.384.348-.561.541-.192.211-.125.557-.42.744a.966.966,0,0,0-.409,1.02c.086.666-.07.9-.711,1.044a2.365,2.365,0,0,0-1.056.613c-.2.177-.409.338-.617.5-.075.06-.191.093-.231.169a1.484,1.484,0,0,1-.85.644.734.734,0,0,0-.492.668c-.014.216-.065.43-.1.619-.406.393-.791.759-1.166,1.135a.9.9,0,0,0-.241.352,2.461,2.461,0,0,1-.553,1.089c-.048.049-.058.134-.09.2a7.141,7.141,0,0,1-.532,1.038,3.462,3.462,0,0,0-.43,1.355c-.064.272-.086.572-.127.86a.955.955,0,0,1-.669.869,1.881,1.881,0,0,0-.818.6A7.4,7.4,0,0,0,3.886,29.89a.92.92,0,0,1-.53.475,1.234,1.234,0,0,0-.41.282A7.152,7.152,0,0,0,1.7,33.1c-.028.062,0,.146-.015.218-.048.336-.082.677-.157,1.008a1.187,1.187,0,0,0,.006.715.885.885,0,0,1-.187.949A1.483,1.483,0,0,0,1,37.069a1.928,1.928,0,0,1-.324,1.47,1.467,1.467,0,0,1,.088,1.29A6.559,6.559,0,0,0,.446,41.09a4.613,4.613,0,0,0,.022,2.176A1.977,1.977,0,0,1,.38,44.617a5.957,5.957,0,0,0-.235.616,3.863,3.863,0,0,0-.138,2.091,3.582,3.582,0,0,1,.131,1,2.24,2.24,0,0,1-.116,1.006A.606.606,0,0,0,0,49.687a7.427,7.427,0,0,0,.2.776c.074.236.189.49.067.711-.224.4-.111.864-.27,1.278a1.082,1.082,0,0,0,.025.505,2.511,2.511,0,0,0,.139.639.9.9,0,0,1,.012.71,1.031,1.031,0,0,0,0,.718.476.476,0,0,1,.049.28,1.23,1.23,0,0,0,.133.984.79.79,0,0,1,.025.767.343.343,0,0,0-.012.212c.109.6.2,1.2.341,1.8a1.981,1.981,0,0,0,.633,1.284c.289.2.286.485.4.741.129.283.4.5.378.853a2.9,2.9,0,0,1-.042.359c-.02.108-.053.214-.081.323l.892.2c-.012.347,0,.686.33.787a2,2,0,0,1,.833.677l-.084.464c.1.151.175.273.251.4.21.34.181.827.622,1.027a.076.076,0,0,1,.026.066c-.053.23.081.359.236.493a.358.358,0,0,1,.122.256c-.058.575.278,1.162-.072,1.691.168.283.448.452.42.8-.006.076.077.177.144.239.177.165.376.307.552.474a1.627,1.627,0,0,1,.371.435c.092.193.07.445.173.629a2.321,2.321,0,0,0,.446.445.105.105,0,0,1,.029.066c.012.313.3.409.473.549a1.773,1.773,0,0,0-.014.268c.05.395-.128.828.217,1.179.061.062.02.232.018.353a7.164,7.164,0,0,0,0,1.31,8.287,8.287,0,0,1,.136.854,1.708,1.708,0,0,0,.4,1.14c.291.283.4.832.97.777.051,0,.118.076.166.128a2.469,2.469,0,0,0,.972.616,1.194,1.194,0,0,1,.722.574.869.869,0,0,0,.326.27c.369.234.752.445,1.111.692a1.846,1.846,0,0,0,.489.3,1.2,1.2,0,0,1,.742.668,9,9,0,0,0,.753,1.24c.265.421.625.833.49,1.411-.018.077.054.179.1.265a4,4,0,0,1,.2.386,2.939,2.939,0,0,0,.126.495,2.208,2.208,0,0,0,.367.4c-.042.108-.068.176-.093.244a1.458,1.458,0,0,0,.785,2.005c.537.264,1.037.6,1.55.905l.053.388c.628-.023,1.208.024,1.517.635.269.042.51.071.747.119a1.029,1.029,0,0,1,.4.137,2.5,2.5,0,0,0,1.076.395c.525.094,1.066.121,1.58.254a8.4,8.4,0,0,1,1.724.5,2.8,2.8,0,0,1,1.07.849,2.137,2.137,0,0,0,1.121.761.831.831,0,0,1,.319.149c.2.192.389.369.7.223.046-.022.157.077.229.133a4.2,4.2,0,0,0,1.2.47c.624-.144,1.308.043,1.843-.362a1.455,1.455,0,0,1,.742.491,1.2,1.2,0,0,0,.353.23,5.763,5.763,0,0,1,1.543.915.889.889,0,0,0,.411.273A2.562,2.562,0,0,1,36.1,95.9a1.773,1.773,0,0,0,.73.284,4.182,4.182,0,0,1,1.223.435,5.806,5.806,0,0,0,1.055.468,6.408,6.408,0,0,1,1.019.556.331.331,0,0,0,.065.033,14.062,14.062,0,0,0,2.8.739.491.491,0,0,1,.327.131c.244.333.622.359.961.472.437.145.874.291,1.318.414a1.012,1.012,0,0,0,.5.023,1.993,1.993,0,0,1,1.6.29c.163.1.374.12.54.217a1.109,1.109,0,0,0,1.231.112.194.194,0,0,1,.141-.022,1.444,1.444,0,0,0,1.105-.244,2.514,2.514,0,0,1,.412-.121.925.925,0,0,0,.323-.133c.422-.379,1.049-.39,1.436-.826a.229.229,0,0,1,.134-.052,2.8,2.8,0,0,0,.641-.069c.17-.061.4.055.584.089l1.178-.977c.122.059.209.139.293.136a1.657,1.657,0,0,0,1.033-.213,1.824,1.824,0,0,1,1.409-.467,1.55,1.55,0,0,0,.289-.035c.337-.016.676-.041,1.013-.037a1.273,1.273,0,0,0,.762-.193,1.15,1.15,0,0,1,.456-.215,1.592,1.592,0,0,0,.826-.428,1.622,1.622,0,0,1,1.349-.414,1.534,1.534,0,0,0,.85-.126c.15-.062.377-.131.486-.062a.85.85,0,0,0,.824,0,1.285,1.285,0,0,1,1.085.063.908.908,0,0,0,.113-.047,3.011,3.011,0,0,1,1.47-.744c.115-.008.238-.153.325-.261.122-.15.2-.339.324-.485.09-.1.231-.234.346-.231.6.014,1.008-.463,1.554-.567.239-.267.556-.232.87-.248a2.791,2.791,0,0,0,1.562-.537c.405-.3.773-.657,1.151-.994.327-.291.638-.6.971-.881a.548.548,0,0,1,.378-.162c.443.107.788-.228,1.2-.233a.251.251,0,0,0,.18-.111c.242-.417.834-.407,1.042-.871.029-.064.168-.08.257-.116.155-.063.317-.112.466-.187.3-.152.6-.317.9-.475a2.274,2.274,0,0,0,.86-.524.5.5,0,0,1,.529-.162.8.8,0,0,0,.83-.346,1.019,1.019,0,0,1,1.233-.335,1.724,1.724,0,0,0,.644.046,1,1,0,0,0,.928-.959c.009-.1-.011-.2,0-.293a.56.56,0,0,1,.39-.558c.251-.074.3-.268.319-.512a9.068,9.068,0,0,1,.154-1.086.629.629,0,0,1,.187-.383A12.379,12.379,0,0,0,86.429,82.4a3.178,3.178,0,0,0,.3-.3c.112-.122.216-.251.327-.375a1.974,1.974,0,0,0,.242-.26,8.36,8.36,0,0,1,1.631-1.944,2.485,2.485,0,0,0,.6-.725,5.947,5.947,0,0,1,1.625-2.2.317.317,0,0,0,.131-.171c.054-.421.4-.6.68-.812.238-.177.239-.506.436-.65a1.571,1.571,0,0,0,.547-.555,2.553,2.553,0,0,1,.256-.349c.324.2.611.383.9.56.608.376.683.351.916-.3a.941.941,0,0,1,.057-.135,1.512,1.512,0,0,0,.045-1.345.918.918,0,0,1-.067-.569,5.133,5.133,0,0,0,.263-2.006.509.509,0,0,1,.028-.217,4.1,4.1,0,0,0,.113-1.374.623.623,0,0,1,.133-.394,13.987,13.987,0,0,1,1.061-1.167,3.335,3.335,0,0,0,.66-.861c.181-.335.029-.718.214-1.045a.293.293,0,0,0-.063-.271,1.6,1.6,0,0,0-1.242-.6c-.109.012-.191.015-.217-.159a1.623,1.623,0,0,1,.193-.163.631.631,0,0,0,.3-.736,1.66,1.66,0,0,1,.206-1.26,1.967,1.967,0,0,0,.268-.9,17.359,17.359,0,0,0,.058-1.825,1.015,1.015,0,0,1,.208-.818.455.455,0,0,0,.08-.34,5.108,5.108,0,0,1,.176-1.888,3.269,3.269,0,0,1,.746-1.677c-.02-.326-.015-.619-.059-.906a1.77,1.77,0,0,1,.129-.927c.039-.105-.011-.242-.006-.363a3.488,3.488,0,0,1,.043-.433c.058-.349.274-.683.092-1.052.158-1.137.184-2.291.44-3.415a5.816,5.816,0,0,0,.19-1.078.861.861,0,0,1,.5-.885.6.6,0,0,0,.314-.75A4.8,4.8,0,0,0,99.29,43.27Z"/><path class="cls-1" d="M24.306,47.393a2.147,2.147,0,0,0,.069-.493.819.819,0,0,1,.043-.28.861.861,0,0,0,.051-.332.356.356,0,0,1,.07-.25,1.649,1.649,0,0,0,.3-.713.435.435,0,0,1,.088-.192,1.665,1.665,0,0,0,.152-.3c.037-.082.064-.167.1-.249a.162.162,0,0,1,.038-.06,1.077,1.077,0,0,0,.229-.337.737.737,0,0,1,.063-.087,1.135,1.135,0,0,1,.129-.17c.145-.134.246-.3.383-.444a.4.4,0,0,0,.051-.049,1.487,1.487,0,0,1,.631-.478,3.769,3.769,0,0,0,.605-.261.086.086,0,0,1,.049-.02.806.806,0,0,0,.461-.163c.1-.051.189-.124.29-.174a1.093,1.093,0,0,0,.248-.173c.106-.095.217-.186.33-.274a.572.572,0,0,1,.154-.087.779.779,0,0,0,.356-.312.482.482,0,0,1,.2-.173,1.377,1.377,0,0,0,.263-.151.331.331,0,0,1,.3-.077.088.088,0,0,0,.053,0c.15-.058.313-.073.459-.146a.394.394,0,0,1,.1-.031c.07-.015.14-.028.21-.04a.144.144,0,0,1,.071,0c.108.05.223.01.333.03.065.011.13.015.2.026a.092.092,0,0,1,.062.028c.129.183.321.179.513.178.042,0,.084,0,.125,0a3.406,3.406,0,0,1,.429.008.9.9,0,0,1,.37.116.561.561,0,0,0,.547.042c.049-.022.1-.045.146-.069a.282.282,0,0,1,.259,0,1.275,1.275,0,0,0,.443.132.13.13,0,0,1,.108.052c.084.127.231.139.355.189a.421.421,0,0,0,.166-.009.171.171,0,0,0,.123.129.142.142,0,0,1,.092.1.337.337,0,0,0,.1.142,1.667,1.667,0,0,0,.342.313c.1.148.28.2.383.345a.14.14,0,0,0,.093.045.153.153,0,0,1,.145.137.494.494,0,0,0,.187.295,1.612,1.612,0,0,1,.115.133,1.343,1.343,0,0,0,.2.174.032.032,0,0,0,.017.006c.084.017.111.106.178.144a1.054,1.054,0,0,1,.19.1.562.562,0,0,1,.149.279,2.7,2.7,0,0,0,.111.34,1.09,1.09,0,0,1,.086.194c.005.023.023.048.017.068a.425.425,0,0,0,.049.275.152.152,0,0,1,.005.087.29.29,0,0,0,.095.29,4.773,4.773,0,0,1,.358.467.3.3,0,0,1,.046.129,1.669,1.669,0,0,0,.093.4.807.807,0,0,1,.041.227.377.377,0,0,0,.058.2.16.16,0,0,1,.029.083c.017.2.058.386.093.578a.939.939,0,0,1,0,.106c0,.036-.006.082.012.1a.43.43,0,0,1,.049.307.4.4,0,0,0,.029.139.367.367,0,0,1,.013.21c-.027.135-.046.271-.073.4a.309.309,0,0,0,.019.192,1.526,1.526,0,0,1,.076.528.22.22,0,0,1-.016.087c-.041.111-.085.222-.127.333a.4.4,0,0,1-.2.263.128.128,0,0,0-.07.1,1.11,1.11,0,0,0-.046.3.573.573,0,0,1-.135.395,1.19,1.19,0,0,0-.23.415.44.44,0,0,1-.173.243.731.731,0,0,0-.187.212,2.086,2.086,0,0,1-.181.322c-.042.047-.041.133-.065.223a.4.4,0,0,0-.146.362l.051.038a.789.789,0,0,0-.241.365.68.68,0,0,1-.114.219c-.081.1-.138.221-.211.329-.014.019-.02.046-.037.06-.05.042-.107.075-.155.118s-.082.106-.135.138a.294.294,0,0,0-.143.159l-.164.012a.378.378,0,0,0-.231.077.382.382,0,0,1-.309.061.49.49,0,0,0-.263.021.7.7,0,0,1-.123.017.188.188,0,0,0-.086.023.712.712,0,0,1-.258.118.147.147,0,0,0-.07.049.249.249,0,0,1-.2.109.612.612,0,0,0-.169.052,1.158,1.158,0,0,1-.323.1,1.792,1.792,0,0,0-.307.09c-.04.013-.077.031-.116.045-.174.063-.348.124-.521.189a.367.367,0,0,1-.191.033.282.282,0,0,0-.1.007.514.514,0,0,1-.366-.022c-.052-.025-.121-.013-.172-.038a.486.486,0,0,0-.346-.011,3.168,3.168,0,0,0-.315.059.32.32,0,0,1-.16,0,.42.42,0,0,0-.368.087.087.087,0,0,1-.151-.051.293.293,0,0,0-.216-.234,1.352,1.352,0,0,1-.287-.18.465.465,0,0,0-.284-.085.325.325,0,0,1-.19-.042.3.3,0,0,0-.206-.039l-.125.009a.3.3,0,0,1-.089,0,2.033,2.033,0,0,0-.235-.08.528.528,0,0,1-.225-.043.478.478,0,0,0-.257-.065.6.6,0,0,1-.358-.132.486.486,0,0,0-.292-.119.593.593,0,0,1-.432-.184.161.161,0,0,0-.145-.054c-.146.018-.242-.081-.351-.148-.022-.014-.027-.052-.034-.066-.131-.066-.252-.126-.372-.19a.2.2,0,0,1-.067-.058.335.335,0,0,0-.208-.158.043.043,0,0,1-.029-.019c-.055-.114-.164-.125-.271-.137a.682.682,0,0,1-.192-.337.169.169,0,0,0-.038-.08.147.147,0,0,1-.027-.134.311.311,0,0,0-.046-.239A.327.327,0,0,1,25.554,52a.512.512,0,0,0-.51-.456h-.126a.414.414,0,0,1-.1-.263.685.685,0,0,0-.105-.338.979.979,0,0,1-.08-.216,1.756,1.756,0,0,1-.041-.174.2.2,0,0,1-.009-.087,1.133,1.133,0,0,0,0-.339.342.342,0,0,0-.09-.227Z"/><path class="cls-2" d="M14.339,53.047c.029.021.064.032.093.053a.2.2,0,0,1,.106.224c-.022.094.03.145.1.194a3.365,3.365,0,0,1,.315.245.227.227,0,0,1,.088.128,4.479,4.479,0,0,0,.127.562,1.109,1.109,0,0,0,.041.15c.018.058.04.114.059.171a.716.716,0,0,0,.039.124,3.038,3.038,0,0,1,.319.869.931.931,0,0,0,.121.323,2.152,2.152,0,0,1,.4.912.114.114,0,0,0,.031.072c.123.093.118.235.133.363.013.108.117.167.127.256a.571.571,0,0,0,.077.274.97.97,0,0,1,.064.144l-.34.186c-.229.126-.235.154-.071.346a.339.339,0,0,1,.033.042.544.544,0,0,0,.417.256.337.337,0,0,1,.192.081,1.853,1.853,0,0,0,.587.445.161.161,0,0,1,.063.048,1.472,1.472,0,0,0,.415.282.227.227,0,0,1,.1.114,5.052,5.052,0,0,1,.177.547,1.215,1.215,0,0,0,.153.366c.074.117.222.138.292.255a.1.1,0,0,0,.1.029c.164-.057.338-.1.415-.287.016-.037.03-.064.09-.041a.534.534,0,0,1,.016.091.228.228,0,0,0,.178.228.6.6,0,0,1,.362.293.7.7,0,0,0,.236.246,6.1,6.1,0,0,0,.567.347c.1.053.187.1.221.214a.162.162,0,0,0,.093.086,1.863,1.863,0,0,1,.565.4,1.191,1.191,0,0,1,.4.54c.106.052.2.106.3.144a.65.65,0,0,1,.27.207c.026.032.078.041.116.064a1.264,1.264,0,0,1,.129.092c.1.081.166.209.316.218.331.255.691.47,1,.754a2.1,2.1,0,0,0,.306.254.314.314,0,0,1,.19.318.216.216,0,0,0,.181.234,1.721,1.721,0,0,0,.577.079c.317-.046.638-.063.953-.114a2.163,2.163,0,0,1,.791.06,1.255,1.255,0,0,0,.447.033,1.358,1.358,0,0,1,.471.015.775.775,0,0,1,.466.276.465.465,0,0,0,.146.11.171.171,0,0,1,.111.212.293.293,0,0,0,.132.326.868.868,0,0,0,.713.137,2.9,2.9,0,0,1,.47-.08,1.66,1.66,0,0,1,.367-.042,1.141,1.141,0,0,0,.342-.037c.066-.014.132-.027.2-.038a2.948,2.948,0,0,0,.44-.016c.052-.006.1-.01.155-.013a1.5,1.5,0,0,1,.207.038,1.13,1.13,0,0,0,.4.032c.034.01.068.022.1.035a1.2,1.2,0,0,0,.542.069c.6-.051,1.2-.089,1.793-.141a1.889,1.889,0,0,1,.9,0,1.077,1.077,0,0,0,.366-.006c.169,0,.337,0,.505,0,.153,0,.306.018.458.011a3.04,3.04,0,0,1,.78.008.451.451,0,0,0,.273-.011,1.2,1.2,0,0,1,.721-.034,5.4,5.4,0,0,1,1.266.215.483.483,0,0,0,.314-.007.729.729,0,0,1,.45-.008.452.452,0,0,0,.224.031.894.894,0,0,1,.542.035,1.115,1.115,0,0,0,.59-.025c.089-.025.188-.088.263-.067a2.251,2.251,0,0,0,.724-.026c.178,0,.361-.069.53.058.041.031.118.015.179.022.228.028.456.055.683.085.334.045.666.1,1,.134a1.955,1.955,0,0,0,.393-.036l.168-.353a4.5,4.5,0,0,0,.557.118,4.877,4.877,0,0,0,.552-.021.346.346,0,0,1,.136.016.9.9,0,0,0,.714.03.4.4,0,0,1,.225.015,15.67,15.67,0,0,0,2.2.122c.4.032.8-.025,1.193.023a5.827,5.827,0,0,0,1.239-.024,2.757,2.757,0,0,1,.732.034c.312.053.618.208.943.05.023-.011.06.015.09.012.136-.011.272-.021.406-.041a3.254,3.254,0,0,1,.451-.079c.428,0,.857,0,1.283.032a.774.774,0,0,0,.565-.107.489.489,0,0,1,.343-.085.934.934,0,0,0,.541-.065,2.837,2.837,0,0,1,1.087-.073c.106,0,.213.049.318.045a3.886,3.886,0,0,1,1.326.052,1.251,1.251,0,0,1,.879.184,1.269,1.269,0,0,0,.937.036.8.8,0,0,0,.417-.21.916.916,0,0,1,.243-.021,1.141,1.141,0,0,0,.342-.037,2.109,2.109,0,0,1,1-.029,1.135,1.135,0,0,0,.6,0,4.457,4.457,0,0,1,.755-.14.487.487,0,0,1,.156.015,1.264,1.264,0,0,0,.153.045,4.02,4.02,0,0,0,.611.04c.167-.018.336-.03.5-.032a8.47,8.47,0,0,0,.929-.057.546.546,0,0,1,.107,0,1.133,1.133,0,0,0,.522-.061.57.57,0,0,1,.156-.017c.061,0,.123,0,.184-.009a1.1,1.1,0,0,0,.536-.136c.06-.042.157-.029.228-.061.178-.079.357-.153.532-.238a3.008,3.008,0,0,0,.53-.307.287.287,0,0,1,.165-.072.407.407,0,0,0,.343-.17c.09-.1.179-.2.275-.287a1.388,1.388,0,0,1,.434-.3,2.418,2.418,0,0,1,.612-.163c.115-.014.229-.034.343-.053a.451.451,0,0,0,.31-.186,2.636,2.636,0,0,1,.317-.359.4.4,0,0,1,.226-.125c.137-.007.257-.069.388-.088a.533.533,0,0,0,.385-.209.232.232,0,0,1,.232-.109.584.584,0,0,0,.336-.048,1.758,1.758,0,0,1,.386-.1c.254-.023.411-.226.63-.312.026-.009.043-.054.053-.087a.524.524,0,0,1,.432-.384.272.272,0,0,0,.077-.019.3.3,0,0,0,.1-.08c.11-.161.212-.328.322-.489a1.234,1.234,0,0,1,.171-.2.74.74,0,0,0,.292-.595.139.139,0,0,1,.015-.078,1.818,1.818,0,0,1,.195-.314,2.453,2.453,0,0,0,.227-.294.472.472,0,0,1,.237-.207.3.3,0,0,0,.2-.26.611.611,0,0,1,.209-.36.355.355,0,0,0,.132-.25,2.383,2.383,0,0,1,.031-.238.569.569,0,0,1,.242-.4,1.875,1.875,0,0,0,.21-.2.721.721,0,0,1,.119-.1.215.215,0,0,0,.126-.16.138.138,0,0,1,.062-.08.242.242,0,0,0,.1-.176,1.317,1.317,0,0,1,.276-.626,2.02,2.02,0,0,0,.335-.542,1.455,1.455,0,0,1,.089-.164.854.854,0,0,0,.1-.215.326.326,0,0,1,.151-.235c.1-.064.175-.151.269-.218a.945.945,0,0,0,.337-.4.373.373,0,0,1,.172-.2,1.023,1.023,0,0,0,.327-.308c.093-.129.2-.247.3-.37a.348.348,0,0,0,.106-.209.835.835,0,0,1,.03-.145c-.049-.169-.094-.3-.126-.44a.635.635,0,0,1,.052-.416c.093-.2.2-.394.3-.592a.448.448,0,0,0,.023-.076c.026-.094.056-.187.077-.282a.514.514,0,0,0,.019-.182.909.909,0,0,1,.076-.494,1.535,1.535,0,0,0,.182-.69.921.921,0,0,1,.038-.155,2.235,2.235,0,0,0,.036-.422c-.006-.078-.1-.148-.115-.229s.038-.2.013-.286c-.063-.215-.069-.438-.116-.652a1.163,1.163,0,0,1,.061-.7c.075-.19.158-.378.227-.57a.453.453,0,0,0,.042-.257,5.361,5.361,0,0,0-.177-.7.264.264,0,0,1,.025-.3.306.306,0,0,0,.067-.25,3.324,3.324,0,0,0-.081-.52,2.5,2.5,0,0,1-.108-.733.764.764,0,0,0-.1-.485,1.171,1.171,0,0,1-.182-.435,1.406,1.406,0,0,0-.2-.487c-.052-.071-.041-.185-.07-.276s-.154-.14-.159-.267A.352.352,0,0,0,82,43.089c-.226-.092-.271-.184-.2-.414a.858.858,0,0,0,0-.447c-.021-.095-.033-.191-.048-.287-.005-.034.006-.077-.011-.1a.539.539,0,0,1-.05-.386.269.269,0,0,0-.122-.277,2.111,2.111,0,0,1-.179-.142c-.051-.2-.1-.388-.148-.575a.322.322,0,0,0-.068-.14.9.9,0,0,1-.244-.372c-.007-.024-.032-.042-.047-.065a2.555,2.555,0,0,1-.232-.356,1.251,1.251,0,0,0-.35-.38c-.075-.069-.166-.13-.25-.2a.349.349,0,0,1-.153-.37.684.684,0,0,0-.041-.367A2.639,2.639,0,0,0,79.6,37.6a.335.335,0,0,1-.054-.254.446.446,0,0,0-.015-.181,2.591,2.591,0,0,0-.551-.838c-.015-.02-.045-.028-.066-.044-.1-.076-.2-.148-.291-.232a.431.431,0,0,0-.227-.126.321.321,0,0,1-.266-.23.541.541,0,0,0-.278-.306c-.159-.087-.341-.163-.406-.367a.528.528,0,0,1-.424-.2,2.348,2.348,0,0,0-.342-.327,1.661,1.661,0,0,0-.692-.384.714.714,0,0,1-.411-.271,2.291,2.291,0,0,0-.153-.186,1.409,1.409,0,0,0-.636-.42,1.3,1.3,0,0,1-.34-.137.818.818,0,0,1-.3-.218.22.22,0,0,0-.11-.071,2.791,2.791,0,0,0-.282-.075c-.088-.019-.189-.028-.237-.106-.087-.144-.253-.191-.356-.316a.38.38,0,0,0-.164-.083.9.9,0,0,0-.227-.071.327.327,0,0,1-.227-.123.372.372,0,0,0-.227-.129c-.034-.006-.08-.011-.1-.034a.443.443,0,0,0-.335-.135.282.282,0,0,1-.247-.13.132.132,0,0,0-.066-.042c-.209-.073-.417-.153-.63-.214a.716.716,0,0,0-.52-.029c-.116.056-.206,0-.308,0s-.231.036-.338-.033a1,1,0,0,1-.106-.078c-.031-.025-.058-.055-.088-.083l-.224.248c-.108-.066-.217-.124-.309-.037a.731.731,0,0,1-.365.144l-.131-.11-.171.008c-.146.006-.3-.091-.438.014a.026.026,0,0,1-.025,0c-.064-.058-.129-.038-.2-.013a.13.13,0,0,1-.1-.007c-.172-.122-.418-.121-.522-.327-.12,0-.224.061-.328-.01a.144.144,0,0,0-.1,0c-.084.027-.165.065-.249.091a.622.622,0,0,1-.2.04c-.078-.006-.154-.058-.231-.058a.843.843,0,0,0-.221.062.039.039,0,0,1-.026,0c-.1-.052-.183.022-.26.052a.54.54,0,0,0-.082-.052c-.134-.055-.239-.19-.412-.143-.031.008-.077-.036-.115-.058a2.585,2.585,0,0,0-.414-.235c-.1-.035-.2-.066-.295-.11a.618.618,0,0,0-.433-.078c-.143.042-.336-.022-.422.169-.007.018-.045.024-.07.03s-.031.01-.046.015c-.053,0-.105.009-.158.015a13.8,13.8,0,0,1-1.982,0c-.383-.012-.766-.043-1.15-.054a1.152,1.152,0,0,0-.365.047.978.978,0,0,1-.453.031,2.839,2.839,0,0,0-.461,0c-.138,0-.276,0-.415,0-.184,0-.368-.018-.551-.012-.339.011-.679.065-1.016.046a11.951,11.951,0,0,0-1.8-.041,2.142,2.142,0,0,1-.276-.013c-.183,0-.367-.012-.551-.01-.63.009-1.262.051-1.89.023-.412-.018-.822-.09-1.237-.115a3.893,3.893,0,0,0-1.051.073,3.2,3.2,0,0,1-.732.053c-.367-.007-.734-.044-1.1-.067a.489.489,0,0,0-.138.011,3.758,3.758,0,0,1-1.234.014A5.9,5.9,0,0,0,45.3,30.74a9.836,9.836,0,0,1-1.75.028.448.448,0,0,1-.218-.057.417.417,0,0,0-.35-.03,1.392,1.392,0,0,1-.545.044c-.469-.1-.95.033-1.414-.1a.157.157,0,0,0-.091.005,4.782,4.782,0,0,1-1.052.127,1.425,1.425,0,0,1-.639-.054.881.881,0,0,0-.717.054.556.556,0,0,1-.3.088c-.325-.06-.652.037-.967-.011a5.2,5.2,0,0,0-1.059,0c-.262.013-.523.028-.785.03-.214,0-.429-.014-.643-.022-.169-.006-.337-.009-.506-.018a7.506,7.506,0,0,0-1.29-.03,2.752,2.752,0,0,1-.736.012,2.343,2.343,0,0,0-.5-.016.907.907,0,0,0-.157-.076c-.1-.035-.2-.066-.3-.11a.618.618,0,0,0-.433-.078c-.142.042-.336-.022-.421.169-.008.018-.046.024-.071.03a.9.9,0,0,0-.371.2.438.438,0,0,1-.312.127.31.31,0,0,0-.144.055c-.141.076-.277.16-.42.23a.689.689,0,0,0-.183.1.431.431,0,0,1-.345.116,3.216,3.216,0,0,0-.529.018.66.66,0,0,1-.535-.1c-.021-.02-.066-.015-.1-.018a1.171,1.171,0,0,1-.157-.007,1.117,1.117,0,0,0-.18-.048.789.789,0,0,0-.192.045l-.061-.074a.529.529,0,0,0-.776-.11c-.181.124-.379.222-.567.331l-.132-.053c-.107.2-.227.38-.476.369-.062.078-.115.15-.173.217a.371.371,0,0,1-.115.1.926.926,0,0,0-.32.272c-.125.15-.231.318-.366.457a3.053,3.053,0,0,1-.47.46,1.016,1.016,0,0,1-.463.188.784.784,0,0,0-.443.221.31.31,0,0,1-.1.074c-.1.03-.187.058-.2.184,0,.019-.053.036-.083.049a1.547,1.547,0,0,0-.366.3c-.067.224-.25.408-.219.652a.537.537,0,0,1-.29.148.422.422,0,0,0-.136.071,2.121,2.121,0,0,1-.569.327.325.325,0,0,0-.161.082.94.94,0,0,1-.385.275.645.645,0,0,0-.222.181,1.52,1.52,0,0,1-.359.311,2.208,2.208,0,0,0-.339.252,2.4,2.4,0,0,1-.36.225.114.114,0,0,0-.023.015,5.186,5.186,0,0,0-.739.757.183.183,0,0,1-.1.081c-.149.018-.226.133-.323.221-.125.113-.251.226-.37.345a.393.393,0,0,0-.1.155.729.729,0,0,1-.38.457c-.062.034-.106.1-.167.133a.41.41,0,0,0-.258.372.071.071,0,0,1-.019.049.537.537,0,0,0-.123.4.828.828,0,0,1-.036.153.315.315,0,0,0-.016.127c.043.2-.067.4,0,.606a.081.081,0,0,1-.008.052,1.038,1.038,0,0,0-.094.217c-.012.065-.09.117-.134.17l.1.551c-.041.028-.082.041-.1.068a.609.609,0,0,0-.12.367.67.67,0,0,1-.107.533.515.515,0,0,0-.041.1c-.056.11-.11.222-.172.329a.463.463,0,0,0-.077.278.405.405,0,0,1-.015.184.586.586,0,0,0-.014.339.6.6,0,0,1-.113.5.567.567,0,0,0-.114.293c-.008.059-.027.144-.068.166a.314.314,0,0,0-.15.262.475.475,0,0,1-.216.335.361.361,0,0,0-.006.044,1.1,1.1,0,0,1-.031.6c-.018.038.006.1.024.15.025.066.071.125.1.191a.214.214,0,0,1,.01.152c-.112.187-.036.4-.1.6.042.124-.027.218-.079.321a1.033,1.033,0,0,0-.113.594c.023.184.068.364.106.546.033.156.074.311.1.467a.2.2,0,0,1-.017.15c-.114.122-.07.292-.143.424a.09.09,0,0,0,0,.077c.088.153-.022.339.087.489.015.021,0,.068-.01.1-.008.061-.022.122-.025.183-.007.123-.008.247-.012.37a.832.832,0,0,0,.01.368.186.186,0,0,1-.044.2.294.294,0,0,0-.041.327.375.375,0,0,1-.118.453.628.628,0,0,0-.131.2A.366.366,0,0,0,14.339,53.047Z"/><path class="cls-3" d="M68.587,59.885a3.519,3.519,0,0,0-.791.228,1.353,1.353,0,0,1-.453.122,1.438,1.438,0,0,0-.537.148.586.586,0,0,1-.424.063,2.716,2.716,0,0,0-1.283.022.72.72,0,0,1-.348,0,2.887,2.887,0,0,0-.559-.027c-.147,0-.295.015-.442.02a.264.264,0,0,1-.116-.016,1.77,1.77,0,0,0-.663-.121.961.961,0,0,1-.174-.036,1.853,1.853,0,0,1-.344-.08c-.3-.129-.626-.167-.93-.28a.638.638,0,0,0-.109-.044,2.451,2.451,0,0,1-1.147-.631,6.31,6.31,0,0,0-.8-.74c-.025-.015-.056-.035-.064-.06-.092-.285-.344-.418-.556-.587-.146-.116-.316-.2-.459-.321a1.813,1.813,0,0,0-.428-.258c-.216-.1-.429-.2-.638-.313a1.006,1.006,0,0,1-.235-.175,1.283,1.283,0,0,0-.712-.328.793.793,0,0,1-.393-.182,2.366,2.366,0,0,0-.406-.295.551.551,0,0,1-.32-.4.137.137,0,0,0-.04-.078,7.858,7.858,0,0,0-.529-.595.7.7,0,0,1-.116-.132c-.07-.1-.136-.193-.2-.292a.216.216,0,0,1-.051-.1c0-.2-.136-.344-.181-.524-.026-.105-.064-.207-.092-.312a.168.168,0,0,1,0-.113.9.9,0,0,0-.075-.895c-.029-.063-.065-.123-.092-.186A5.629,5.629,0,0,1,53.6,51.7a1.481,1.481,0,0,1-.074-.638.929.929,0,0,0-.3-.855c-.066-.06-.134-.117-.2-.174a.461.461,0,0,1-.175-.391,2.142,2.142,0,0,0-.1-.759.218.218,0,0,1,.006-.2c.134-.212.054-.442.046-.664,0-.078-.077-.153-.126-.245a.283.283,0,0,0,.112-.272.237.237,0,0,1,.093-.209.557.557,0,0,0,.144-.254,2.826,2.826,0,0,0,.242-.727c.157-.248.116-.56.263-.813a.231.231,0,0,0,.005-.17.254.254,0,0,1,.111-.312.817.817,0,0,0,.319-.48,2.364,2.364,0,0,1,.124-.265,2.237,2.237,0,0,0,.128-.419.063.063,0,0,0,0-.03c-.031-.139.085-.24.1-.365a1.854,1.854,0,0,1,.015-.352.945.945,0,0,1,.321-.414,4.482,4.482,0,0,0,.44-.4,1.656,1.656,0,0,1,.235-.261c.031-.023.058-.067.091-.072a.705.705,0,0,0,.384-.259.24.24,0,0,1,.128-.066.484.484,0,0,0,.374-.34,7.668,7.668,0,0,1,.464-.855.5.5,0,0,1,.164-.157,2.766,2.766,0,0,0,.539-.409,1.37,1.37,0,0,1,.315-.215.617.617,0,0,0,.269-.224.266.266,0,0,1,.1-.1c.284-.157.545-.348.812-.53a1.433,1.433,0,0,1,.157-.078c.053-.028.128-.045.151-.089.095-.176.268-.214.43-.281a.623.623,0,0,0,.19-.137.621.621,0,0,1,.31-.162c.222-.049.44-.113.661-.161a.516.516,0,0,0,.278-.158,2.515,2.515,0,0,1,.747-.472.361.361,0,0,1,.141-.034c.2-.013.393-.021.59-.032a.652.652,0,0,1,.528.117.216.216,0,0,0,.2.04,1.873,1.873,0,0,0,.483-.132.955.955,0,0,1,.688-.063,1.964,1.964,0,0,0,.783.069.722.722,0,0,1,.483.1,1.189,1.189,0,0,0,.448.139,3.474,3.474,0,0,1,.607.058c.1.032.228-.028.382-.053a.661.661,0,0,0,.646-.023l.022-.1a1.3,1.3,0,0,0,.715.118,1.148,1.148,0,0,1,.408.025c.211.052.427.059.639.1a.479.479,0,0,1,.116.014c.1.048.185.111.282.155a1.782,1.782,0,0,1,.3.111.491.491,0,0,0,.337.109c.046.085.088.162.129.239a.613.613,0,0,0,.272.3.629.629,0,0,1,.3.426.815.815,0,0,0,.209.383,1.16,1.16,0,0,1,.11.176c.028.04.052.094.092.113a1.192,1.192,0,0,1,.352.311.237.237,0,0,0,.123.073.409.409,0,0,1,.3.222.985.985,0,0,0,.192.221,1.9,1.9,0,0,1,.364.424,2.892,2.892,0,0,0,.343.4c.046.051.1.1.147.146.212.219.421.442.636.658a.611.611,0,0,1,.178.267.451.451,0,0,0,.081.153.844.844,0,0,1,.213.569c0,.094.063.191.059.286a.791.791,0,0,0,.217.528,4.738,4.738,0,0,0,.3.438.53.53,0,0,1,.115.238.7.7,0,0,0,.379.5.143.143,0,0,1,.025.261.484.484,0,0,0-.208.485,2.253,2.253,0,0,1-.079.555.76.76,0,0,0,.064.487.544.544,0,0,1,.064.314.5.5,0,0,0,.079.339c.033.06.066.122.1.183a.448.448,0,0,1,.063.133,3.237,3.237,0,0,0,.038.409.872.872,0,0,1,.087.368.8.8,0,0,0,.073.433,1,1,0,0,1,.043.631.809.809,0,0,0,.016.52.981.981,0,0,1,.014.779.266.266,0,0,0,.016.254c.125.209.041.422.012.632,0,.041-.059.075-.075.094-.013.244-.022.468-.037.691a.351.351,0,0,1-.043.141.548.548,0,0,0-.1.42.075.075,0,0,1-.01.057c-.136.16-.079.332-.024.5a1.137,1.137,0,0,1-.381.518.269.269,0,0,0-.094.111.242.242,0,0,1-.185.13.52.52,0,0,0-.33.231.526.526,0,0,1-.207.16.845.845,0,0,0-.346,1.078l.083.191a.7.7,0,0,1-.329.333,1.119,1.119,0,0,0-.44.385,1.576,1.576,0,0,1-.273.268c-.074.064-.155.121-.235.178a.329.329,0,0,1-.126.072,1.872,1.872,0,0,0-.513.227.558.558,0,0,0-.283.289Z"/><path class="cls-3" d="M26.276,47.541a1.5,1.5,0,0,0,.049-.347.582.582,0,0,1,.031-.2.626.626,0,0,0,.036-.234.246.246,0,0,1,.049-.176,1.173,1.173,0,0,0,.214-.5.3.3,0,0,1,.062-.134,1.179,1.179,0,0,0,.107-.213c.026-.058.045-.118.069-.176a.117.117,0,0,1,.027-.042.779.779,0,0,0,.162-.238.362.362,0,0,1,.044-.061.823.823,0,0,1,.091-.12c.1-.094.173-.215.27-.313a.239.239,0,0,0,.036-.035,1.047,1.047,0,0,1,.445-.337,2.644,2.644,0,0,0,.427-.184.062.062,0,0,1,.035-.014.567.567,0,0,0,.324-.115c.071-.036.134-.088.2-.123a.763.763,0,0,0,.175-.122c.075-.067.153-.131.233-.193a.415.415,0,0,1,.108-.062.546.546,0,0,0,.252-.22.331.331,0,0,1,.139-.121,1.034,1.034,0,0,0,.185-.107.235.235,0,0,1,.212-.055.055.055,0,0,0,.038,0,3.106,3.106,0,0,0,.323-.1.287.287,0,0,1,.072-.022l.148-.028a.107.107,0,0,1,.05,0c.076.035.157.008.235.021.045.008.092.011.137.018a.075.075,0,0,1,.044.02.383.383,0,0,0,.362.126c.029,0,.059,0,.088,0a2.336,2.336,0,0,1,.3.005.627.627,0,0,1,.262.082.4.4,0,0,0,.385.03l.1-.049a.2.2,0,0,1,.183,0,.88.88,0,0,0,.312.093.093.093,0,0,1,.077.037c.059.089.163.1.25.133a.32.32,0,0,0,.117-.006.122.122,0,0,0,.087.09.1.1,0,0,1,.065.073.252.252,0,0,0,.074.1,1.171,1.171,0,0,0,.241.22c.069.1.2.143.271.244a.1.1,0,0,0,.065.032.107.107,0,0,1,.1.1.35.35,0,0,0,.132.207,1.053,1.053,0,0,1,.082.095.981.981,0,0,0,.141.122l.011,0c.06.012.079.075.126.1a.8.8,0,0,1,.134.067.387.387,0,0,1,.105.2,1.922,1.922,0,0,0,.078.24.733.733,0,0,1,.061.137c0,.016.016.034.012.048a.3.3,0,0,0,.035.194.109.109,0,0,1,0,.062.205.205,0,0,0,.067.2,3.186,3.186,0,0,1,.252.329.213.213,0,0,1,.033.091,1.138,1.138,0,0,0,.066.281.6.6,0,0,1,.029.16.254.254,0,0,0,.041.144.115.115,0,0,1,.02.058c.012.138.041.273.066.408,0,.024,0,.05,0,.075s0,.057.008.074a.3.3,0,0,1,.035.216.277.277,0,0,0,.02.1.252.252,0,0,1,.009.149c-.019.094-.032.19-.051.285a.215.215,0,0,0,.013.135,1.1,1.1,0,0,1,.054.373.162.162,0,0,1-.012.061c-.029.079-.059.157-.089.235a.277.277,0,0,1-.138.185.094.094,0,0,0-.049.07.823.823,0,0,0-.033.211.4.4,0,0,1-.095.278.85.85,0,0,0-.162.293.316.316,0,0,1-.122.172.51.51,0,0,0-.132.149,1.417,1.417,0,0,1-.128.227c-.029.033-.028.094-.045.158a.28.28,0,0,0-.1.255l.037.027a.554.554,0,0,0-.17.257.507.507,0,0,1-.081.155c-.057.073-.1.156-.149.231-.01.014-.014.033-.026.043-.035.029-.075.053-.109.083s-.058.075-.095.1a.206.206,0,0,0-.1.112l-.116.008a.263.263,0,0,0-.163.055.269.269,0,0,1-.218.042.352.352,0,0,0-.185.015.493.493,0,0,1-.087.013.12.12,0,0,0-.061.016.491.491,0,0,1-.182.082.105.105,0,0,0-.049.036.177.177,0,0,1-.138.076.421.421,0,0,0-.119.037.817.817,0,0,1-.229.067,1.329,1.329,0,0,0-.216.064c-.028.009-.055.022-.082.032-.123.044-.245.087-.367.133a.252.252,0,0,1-.135.023.2.2,0,0,0-.073,0,.362.362,0,0,1-.259-.015c-.036-.018-.085-.009-.121-.027a.337.337,0,0,0-.244-.007,1.921,1.921,0,0,0-.222.041.227.227,0,0,1-.113,0,.292.292,0,0,0-.26.061.061.061,0,0,1-.106-.036.208.208,0,0,0-.152-.165.958.958,0,0,1-.2-.127.326.326,0,0,0-.2-.06A.226.226,0,0,1,30,52.5a.218.218,0,0,0-.145-.028l-.089.007a.191.191,0,0,1-.063,0,1.393,1.393,0,0,0-.165-.056.378.378,0,0,1-.159-.03.333.333,0,0,0-.181-.046.434.434,0,0,1-.253-.093.344.344,0,0,0-.205-.084.42.42,0,0,1-.306-.13.112.112,0,0,0-.1-.038c-.1.012-.171-.057-.248-.1-.015-.009-.019-.036-.023-.046-.093-.047-.178-.089-.263-.134a.142.142,0,0,1-.047-.041.23.23,0,0,0-.147-.111.032.032,0,0,1-.02-.014c-.039-.081-.116-.088-.191-.1a.485.485,0,0,1-.136-.238.109.109,0,0,0-.027-.056.105.105,0,0,1-.018-.095.222.222,0,0,0-.033-.169.227.227,0,0,1-.026-.108.362.362,0,0,0-.36-.322h-.089a.3.3,0,0,1-.072-.186.472.472,0,0,0-.074-.238.666.666,0,0,1-.056-.153,1.046,1.046,0,0,1-.029-.123.144.144,0,0,1-.006-.061.832.832,0,0,0,0-.239.238.238,0,0,0-.064-.16Z"/></svg>