<svg id="base" xmlns="http://www.w3.org/2000/svg" viewBox="0 0 100 100"><defs><style>.cls-1{fill:#fff;}.cls-2{fill:#1858a8;}.cls-3{fill:#f36;}.cls-4{fill:#ffeded;}</style></defs><title>c 2</title><path class="cls-1" d="M32.179,34.973a.225.225,0,0,0,.064.049C32.286,35.038,32.265,34.974,32.179,34.973Z"/><polygon class="cls-1" points="32.178 34.973 32.178 34.973 32.179 34.974 32.178 34.973"/><path class="cls-2" d="M12.821,54.932a2.334,2.334,0,0,1,1.738-.467c0-.117-.116-.35-.116-.467a1.18,1.18,0,0,1,1.159-.466c.232,0,.464-.117.7-.117.579,0,.811.117,1.043.817.116.233.116.467.348.7.116.117.232.35.347.467.58.35,1.16.584,1.739.934a8.858,8.858,0,0,1,2.666,1.984,2.291,2.291,0,0,1-.116.934,10.015,10.015,0,0,0,2.318,2.1.877.877,0,0,1,.464-.234h.116a.877.877,0,0,1,.464.234.41.41,0,0,1,.115.233.1.1,0,0,1-.014.048c-.03.065-.122.069-.217.069-.313-.1-.535-.209-.829-.314-.033-.012-.063-.024-.1-.036.011.033.028.055.04.084l.027.056a2.4,2.4,0,0,0,.513.56c.232.234.579.467.579.7.232.7.812,1.05,1.392,1.517.115.117.231.234.347.234a3.217,3.217,0,0,1,1.275,1.517,1.515,1.515,0,0,0,1.159,1.05c.58.117,1.043.467,1.623.584.232.117.348.233.348.467A4.187,4.187,0,0,0,33.1,69.756a2.91,2.91,0,0,0,1.623.7,1.456,1.456,0,0,1,.7.117c.116,0,.232.117.348.233.116.467.464.467.811.7a4,4,0,0,1,1.275,1.167,3.089,3.089,0,0,0,.58.7,1.74,1.74,0,0,1,1.276.467c-.232.35-.58,0-.928.117.116.467.7.467.928.7l.811.816v-.583c.231.233.463.35.7.583a3.8,3.8,0,0,0,1.855.818,2.586,2.586,0,0,1,1.738.933.724.724,0,0,0,.928.234,1.956,1.956,0,0,1,2.086.466c.348.234.58.467.928.7l.7.35a8.226,8.226,0,0,1,2.087.934c.347-.233.579-.35.927-.584,0-.35-.116-.817-.116-1.167l1.043-.7A3.77,3.77,0,0,0,54.9,75.942a1.468,1.468,0,0,1,1.159-.817,1.721,1.721,0,0,0,1.043-.466A2.832,2.832,0,0,1,58.052,74a1.023,1.023,0,0,0-.721-.271l-1.043-.351c-.695-.35-1.275-.7-1.97-1.05a.114.114,0,0,0-.116-.117c.039-.019.07-.032.1-.046a.124.124,0,0,0-.1-.071c.232-.116.349-.116.464-.233a2.13,2.13,0,0,1,.811-.233,1.912,1.912,0,0,0,1.391-.584,2.375,2.375,0,0,1,1.043-.584c.348-.116.7,0,.928-.466h.116c.116.117.231,0,.347-.117.117,0,.232-.117.348-.117.232,0,.348,0,.464-.117a4.978,4.978,0,0,1,.811-.467,2.392,2.392,0,0,0,1.159-.7.693.693,0,0,1,.464-.117,4.275,4.275,0,0,1,1.275.584c.116.117.232.233.348.233a.909.909,0,0,1,.463.467,1.163,1.163,0,0,0,.58.467,3.687,3.687,0,0,0,1.043.35,3.454,3.454,0,0,1,1.623.7,1.851,1.851,0,0,0,.811.467l.348-.7a1.875,1.875,0,0,1,.463-.817.114.114,0,0,0,.116-.117c.116-1.051,1.16-1.4,1.623-2.1,0-.117.232-.117.348-.234a6.1,6.1,0,0,0,1.275-1.167,10.47,10.47,0,0,1,1.043-1.167,3.619,3.619,0,0,0,.811-1.05,2.675,2.675,0,0,1,.812-1.168c.231-.117.231-.466.347-.583a.429.429,0,0,0-.116-.35A1.059,1.059,0,0,1,75.644,61a6.585,6.585,0,0,0,.464-1.4,1.059,1.059,0,0,1,.116-.584,3.248,3.248,0,0,1,.116-1.05A9.94,9.94,0,0,0,76.8,55.4v-.817a2.3,2.3,0,0,1,.117-1.517,1,1,0,0,0,0-.817,1.136,1.136,0,0,1,.116-1.051,8.741,8.741,0,0,1,.695-1.517,2.724,2.724,0,0,0,.464-1.168,5.735,5.735,0,0,1,1.274-2.334c.117-.117.232-.233.232-.35a4.95,4.95,0,0,0-.232-1.284,1.619,1.619,0,0,1-.115-1.284v-.234c-.232-.583,0-1.05,0-1.634a1.2,1.2,0,0,0-.464-1.167,10.083,10.083,0,0,0,.579-3.735v-.233a14.333,14.333,0,0,1-.579-2.1,11.925,11.925,0,0,0-1.275-3.385,1.612,1.612,0,0,0-.927-.817c-.58-.117-.812-.584-1.159-.934a3.7,3.7,0,0,0-1.275-1.4,1.163,1.163,0,0,1-.464-.584,2.574,2.574,0,0,0-.348-.584,1.665,1.665,0,0,1-.232-.7,3.438,3.438,0,0,0-.348-1.167A5.758,5.758,0,0,1,72.4,23.3a3.691,3.691,0,0,0-.579-1.168,8.044,8.044,0,0,0-1.276-1.517c-.116-.234-.348-.35-.463-.584a1.48,1.48,0,0,0-1.043-.817,1.585,1.585,0,0,1-.464-.35,18.054,18.054,0,0,0-1.855-2.334c-.695-.584-1.159-1.4-2.086-1.868-.463.233-1.043.35-1.623.584a1.351,1.351,0,0,0-.7.7,4.385,4.385,0,0,1-1.391,1.167,8.058,8.058,0,0,0-1.623.351,13.357,13.357,0,0,0-2.086.466c-.58.234-1.275.467-1.855.7-.116,0-.232.117-.348.233a6.719,6.719,0,0,0-1.623.584c-.463.233-.927.467-1.506.7a1.552,1.552,0,0,0-.58.35,1.765,1.765,0,0,1-1.391.817H49.8a6.563,6.563,0,0,1-3.015.467,4.447,4.447,0,0,1-2.434-.35,1.325,1.325,0,0,0-1.159-.117,2.7,2.7,0,0,1-.928.233c-.347,0-.579.117-.927.117h-1.39a6.957,6.957,0,0,0-2.2,0A9.532,9.532,0,0,0,34.148,19.8c-.116.117-.232.233-.348.233a1.045,1.045,0,0,1-1.159,0,4.7,4.7,0,0,1-1.507-1.517c-.116-.234-.348-.584-.58-.584-.695-.233-1.043-1.05-1.854-1.167a6.292,6.292,0,0,1-2.087-.7,3.724,3.724,0,0,0-1.97-.35,1.726,1.726,0,0,0-.811.35c-.116.117-.116.117-.116.351,0,.116-.117.35-.232.35-.58.233-.7.7-.7,1.284a.361.361,0,0,1-.116.233c-.232,0-.58.117-.927.117a6.773,6.773,0,0,0-1.507.233,3.121,3.121,0,0,1-1.043,0c-.464.234-.464.7-.464,1.168-.463.35-.927.117-1.275.117a1.44,1.44,0,0,1-.927-.7,3.807,3.807,0,0,0-2.782.584,1.657,1.657,0,0,1-1.623.35c-.116-.117-.347,0-.579,0a3.224,3.224,0,0,1-1.663-.31.777.777,0,0,0-.08.293c-.015.216-.065.43-.1.619-.406.393-.79.759-1.165,1.135a.913.913,0,0,0-.242.351,2.457,2.457,0,0,1-.552,1.09.774.774,0,0,0-.091.2,7.141,7.141,0,0,1-.532,1.038A3.444,3.444,0,0,0,6.7,25.919c-.064.272-.086.572-.127.86a.952.952,0,0,1-.67.868,1.909,1.909,0,0,0-.818.6,7.541,7.541,0,0,0-1.114,1.434.913.913,0,0,1-.529.476,1.207,1.207,0,0,0-.41.281A7.166,7.166,0,0,0,1.782,32.89c-.028.061-.005.145-.015.217-.049.337-.083.678-.158,1.009a1.2,1.2,0,0,0,.007.715.885.885,0,0,1-.188.948,1.485,1.485,0,0,0-.35,1.078,1.929,1.929,0,0,1-.323,1.47,1.465,1.465,0,0,1,.088,1.289,6.571,6.571,0,0,0-.317,1.262,4.626,4.626,0,0,0,.023,2.176A1.968,1.968,0,0,1,.46,44.4a6.47,6.47,0,0,0-.235.617,3.869,3.869,0,0,0-.137,2.09,3.631,3.631,0,0,1,.131,1A2.254,2.254,0,0,1,.1,49.116a.589.589,0,0,0-.018.359,7.68,7.68,0,0,0,.2.776c.075.235.19.49.067.71-.224.4-.111.865-.269,1.278a1.094,1.094,0,0,0,.024.505,2.607,2.607,0,0,0,.139.64.9.9,0,0,1,.013.709,1.037,1.037,0,0,0,0,.718c.032.09.08.206.049.28a1.236,1.236,0,0,0,.133.985.79.79,0,0,1,.025.767.351.351,0,0,0-.011.212c.108.6.2,1.2.341,1.8a2.046,2.046,0,0,0,.6,1.253,1.5,1.5,0,0,1,.872-.737c.232-.117.348-.234.58-.351a3.3,3.3,0,0,1,1.043-.7A4.415,4.415,0,0,0,5.4,57.267a1.631,1.631,0,0,1,.7-.234,4.9,4.9,0,0,0,2.2-.7,4.822,4.822,0,0,1,1.391-.35,2.849,2.849,0,0,0,1.275-.467.863.863,0,0,1,.58-.117,1.948,1.948,0,0,0,1.158-.35ZM47.013,32.288h0a.421.421,0,0,0,.347-.117,1.247,1.247,0,0,0,.232-.7c-.116-.234,0-.584-.116-.934a1,1,0,0,0,0-.817,2,2,0,0,0-.116-.817v-.934c0-.117-.116-.233,0-.35a1.923,1.923,0,0,1,.927-1.4c.116-.116.232-.116.232-.35a.358.358,0,0,1,.232-.117c.116-.117.232-.233.348-.233s.232-.117.348-.233a.882.882,0,0,0,.579-.234c.116-.117.232-.35.348-.467.232-.116.232-.466.58-.466,0-.234.347-.234.463-.351.116,0,.232-.116.348-.233.116-.233.232-.467.579-.35h.117c.115-.234.347-.117.579-.117h.232a.862.862,0,0,1,.579-.117h.464a1.456,1.456,0,0,0,.7-.117,1.038,1.038,0,0,1,.58-.117c.232,0,.348.117.463-.116h.117c.116.116.116,0,.232,0h.463c.116,0,.348-.117.464-.117a.882.882,0,0,0,.579-.234h.232a1.427,1.427,0,0,1,.154.09.9.9,0,0,1,.309.377l.116.117c.117.117.117.117.117.233s.115.234.231.351a1.007,1.007,0,0,0,.189.16.508.508,0,0,0,.275.073.952.952,0,0,1,.224.108,3.318,3.318,0,0,1,.471.476l.348.35h0c.232.117.579.233.81.35h0l.042.042.189.19h0a.249.249,0,0,1,.231.233l.348.35h0a1.072,1.072,0,0,0,.191.152,1.226,1.226,0,0,0,.619.2h0c.013.013.022.036.035.052a.848.848,0,0,1,.2.414.1.1,0,0,0,.021.068c.038.049.124.049.21.049h0c.117.116.232.233.362.349.044.039.091.078.139.117.023.019.044.039.069.058.049.039.105.077.159.116.028.02.052.039.082.059a.516.516,0,0,0,.088.072c.029.02.057.038.086.06a.573.573,0,0,1,.174.218,1.117,1.117,0,0,0,.137.221.846.846,0,0,0,.173.158,1.515,1.515,0,0,0,.153.088.155.155,0,0,1,.059.016.1.1,0,0,1,.057.1,1.606,1.606,0,0,0,.311.477.692.692,0,0,0,.152.107h0c.116.117.116.117.116.233s-.117.233-.117.35h-.463a.364.364,0,0,1,.116.234c0,.117-.116.117-.232.233v.233h-.231a.7.7,0,0,0,.116.467.886.886,0,0,1-.116.467.892.892,0,0,0-.116,1.05c.116.117.116.234.116.467a.092.092,0,0,1-.07-.036.746.746,0,0,0-.141-.16.25.25,0,0,0-.137-.037c0,.233.116.35,0,.583h-.232c0,.117.116.234.116.351,0,.35.116.7.116,1.05.116.117,0,.35.116.467v.35c0,.117-.116.35,0,.467v.117a.429.429,0,0,0-.116.35v.817a.43.43,0,0,0,.116.35v.117c-.116.117,0,.233,0,.35h-.116c0,.117,0,.233-.116.233-.116.117-.231.234-.463.117s-.464.117-.464.351h-.116l-.115.115h0c0-.058,0-.087-.014-.1s-.043-.015-.1-.015a1.62,1.62,0,0,1-.464.35h-.115c-.117.117-.117.233-.232.35l-.116.117a.25.25,0,0,0-.232.233.5.5,0,0,1-.261-.049.387.387,0,0,1-.086-.067h0v.351a.12.12,0,0,0-.007-.03c-.017-.071-.077-.1-.1-.165a.1.1,0,0,1-.01-.037v0c-.116.234-.116.35-.232.467a.314.314,0,0,1-.066-.043c-.113-.1.05-.2-.049-.306h0l-.231.233c-.232-.117-.232-.117-.348,0-.116,0-.232-.117-.348-.117a.432.432,0,0,1-.116.351,1.455,1.455,0,0,1-.29-.19c-.086-.073-.173-.16-.289-.276h0c-.116,0-.232.117-.347,0-.116,0-.232-.117-.348-.117-.232.117-.464.117-.7.233h-.116c-.231,0-.463-.117-.7-.117A2.393,2.393,0,0,1,57,39.451a.753.753,0,0,1-.246-.276h0c-.216.072-.3.1-.329.082s-.019-.038-.019-.082A2.187,2.187,0,0,0,56.209,39a2.488,2.488,0,0,0-.734-.411h-.232a2.382,2.382,0,0,0-.293-.435c-.136-.132-.272-.105-.634-.032h0c-.087-.087-.109-.174-.162-.212a.119.119,0,0,0-.07-.021c-.116.117-.116.117-.232.117s-.231-.117-.347-.117a.213.213,0,0,1-.261.066.381.381,0,0,1-.088-.066.464.464,0,0,0-.077-.063c-.029-.021-.058-.038-.082-.054a.13.13,0,0,1-.072-.116h-.116c0,.116-.116.116-.116.233a.693.693,0,0,1-.464-.117c-.086-.058-.173-.116-.26-.176a5.532,5.532,0,0,1-.736-.6c-.016-.015-.031-.026-.046-.041h0a2.486,2.486,0,0,0-.249-.265.339.339,0,0,0-.214-.085h0l-.011-.011-.105-.106c-.117-.233-.348-.467-.464-.7-.232-.351-.464-.584-.7-.934l-.106-.108-.034-.034-.091-.092a.131.131,0,0,0-.072-.116c-.022-.014-.047-.029-.074-.048a.506.506,0,0,1-.085-.068h0c-.231-.117-.348-.233-.58-.35a.757.757,0,0,1-.153-.106,4.589,4.589,0,0,1-.31-.361h0a.779.779,0,0,1-.156-.106c-.026-.022-.049-.046-.074-.07-.058-.057-.116-.114-.176-.168l-.017-.016a.783.783,0,0,0-.156-.107A.659.659,0,0,1,47.187,33c-.057-.059-.057-.141-.057-.361,0-.087,0-.173-.049-.212a.1.1,0,0,0-.065-.02h0ZM21.282,29.837a1,1,0,0,0,0-.817,2,2,0,0,0-.116-.817v-.934c0-.117-.116-.234,0-.35a1.921,1.921,0,0,1,.927-1.4c.117-.117.232-.117.232-.35a.358.358,0,0,1,.232-.117c.116-.117.232-.233.347-.233s.232-.117.349-.234a.886.886,0,0,0,.579-.233c.116-.117.232-.35.348-.467.231-.117.231-.467.579-.467,0-.233.348-.233.464-.35.116,0,.232-.117.348-.233.116-.234.231-.467.579-.351h.116c.117-.233.348-.116.58-.116h.232a.86.86,0,0,1,.579-.117h.464a1.456,1.456,0,0,0,.7-.117,1.038,1.038,0,0,1,.58-.117c.232,0,.348.117.464-.117h.117l0,0c.111.106.113,0,.227,0h.464c.116,0,.347-.117.463-.117a.882.882,0,0,0,.58-.233h.232a1.362,1.362,0,0,1,.154.09.9.9,0,0,1,.309.377l.116.116c.116.117.116.117.116.234a.309.309,0,0,0,.074.176l.006.007a1.781,1.781,0,0,0,.152.167.976.976,0,0,0,.189.161.508.508,0,0,0,.275.073.944.944,0,0,1,.223.108,3.264,3.264,0,0,1,.472.475l.348.35h0c.231.116.579.233.81.35h0c.115.116.115.117.231.233h0a.229.229,0,0,1,.158.073.233.233,0,0,1,.073.16c.116.117.231.234.348.351a1.094,1.094,0,0,0,.192.153,1.236,1.236,0,0,0,.619.2h0a.89.89,0,0,1,.231.466.1.1,0,0,0,.021.068c.038.048.124.048.211.048h0c.058.059.116.117.176.175.09.088.183.175.287.263a4.093,4.093,0,0,0,.348.262h0a.543.543,0,0,0,.087.071c.029.021.058.039.087.061a.565.565,0,0,1,.174.218.9.9,0,0,0,.31.378,1.263,1.263,0,0,0,.153.089.147.147,0,0,1,.059.015.107.107,0,0,1,.057.1,1.6,1.6,0,0,0,.311.476.645.645,0,0,0,.153.107h0l.01.012c.1.1.1.11.1.221s-.115.233-.115.35h-.464a.363.363,0,0,1,.116.233c0,.117-.116.117-.232.234v.233h-.231a.71.71,0,0,0,.115.467.894.894,0,0,1-.115.467.894.894,0,0,0-.117,1.05c.117.117.117.233.117.467A.1.1,0,0,1,38.6,31.9a.675.675,0,0,0-.141-.16.236.236,0,0,0-.136-.038c0,.234.116.351,0,.584h-.232c0,.117.116.233.116.35,0,.35.116.7.116,1.051.116.116,0,.35.116.466v.351c0,.116-.116.35,0,.466v.117a.43.43,0,0,0-.116.35v.817a.432.432,0,0,0,.116.351v.116c-.116.117,0,.234,0,.351h-.116c0,.116,0,.233-.116.233-.116.117-.232.233-.464.117s-.463.117-.463.35h-.116l-.115.116h0c0-.058,0-.087-.015-.1s-.043-.015-.1-.015a1.6,1.6,0,0,1-.464.35H36.35c-.116.117-.116.234-.231.351L36,38.59a.25.25,0,0,0-.232.234.424.424,0,0,1-.348-.117v.35a.123.123,0,0,0-.007-.029c-.016-.071-.076-.1-.1-.164a.141.141,0,0,1-.011-.038v0c-.116.233-.116.35-.232.467a.314.314,0,0,1-.066-.044c-.113-.1.05-.2-.049-.306h0l-.232.234c-.232-.117-.232-.117-.347,0-.117,0-.232-.117-.348-.117a.43.43,0,0,1-.116.35,1.416,1.416,0,0,1-.289-.189c-.087-.073-.174-.16-.29-.277h0c-.113,0-.225.107-.338.006l-.008,0h0c-.116,0-.231-.117-.348-.117-.231.117-.463.117-.7.234h-.116c-.232,0-.464-.117-.7-.117a2.52,2.52,0,0,1-.333-.19.743.743,0,0,1-.245-.276h0c-.217.073-.3.1-.329.082s-.019-.038-.019-.082h0a2.351,2.351,0,0,0-.193-.172,2.466,2.466,0,0,0-.734-.411h-.232a2.345,2.345,0,0,0-.293-.435c-.136-.132-.272-.1-.634-.032h0c-.087-.087-.109-.174-.163-.213a.113.113,0,0,0-.069-.021c-.116.117-.116.117-.232.117s-.231-.117-.348-.117a.211.211,0,0,1-.26.066.3.3,0,0,1-.087-.066.6.6,0,0,0-.085-.068l-.075-.048a.13.13,0,0,1-.072-.116h-.117c0,.117-.115.117-.115.233a.994.994,0,0,1-.359-.049c-.016-.007-.028-.019-.043-.027a.321.321,0,0,1-.061-.04h0l-.157-.107c-.035-.023-.069-.046-.1-.07a5.263,5.263,0,0,1-.784-.64c-.087-.088-.173-.24-.309-.311a.312.312,0,0,0-.154-.04h0l-.117-.116c-.115-.234-.347-.467-.463-.7-.232-.35-.463-.583-.7-.934-.116-.116-.116-.116-.231-.233a.12.12,0,0,0-.02-.069.5.5,0,0,0-.129-.1.526.526,0,0,1-.082-.067h0a2.171,2.171,0,0,1-.21-.122c-.062-.04-.121-.081-.184-.122l-.029-.018c-.047-.03-.1-.059-.155-.088h0a.712.712,0,0,1-.154-.106c-.136-.12-.223-.274-.31-.361h0a.785.785,0,0,1-.155-.106c-.094-.08-.174-.175-.268-.255a.758.758,0,0,0-.157-.106.7.7,0,0,1-.174-.106c-.058-.06-.058-.142-.058-.361,0-.03,0-.061,0-.092a.371.371,0,0,0-.111-.256h0a.423.423,0,0,0,.347-.117,1.258,1.258,0,0,0,.232-.7C21.282,30.537,21.4,30.187,21.282,29.837Zm-1.043,25.8h0a.908.908,0,0,0,.463.466h.348v.117h0c-.347-.117-.7-.117-.811-.35a.378.378,0,0,1-.064-.085h0a.155.155,0,0,1-.014-.047.162.162,0,0,1-.008-.027C20.152,55.662,20.181,55.632,20.239,55.632Z"/><path class="cls-3" d="M59.757,23.758a.952.952,0,0,0-.224-.108.508.508,0,0,1-.275-.073.509.509,0,0,0,.276.074A.943.943,0,0,1,59.757,23.758Z"/><path class="cls-3" d="M61.62,25.168h0a.231.231,0,0,1,.159.073A.233.233,0,0,0,61.62,25.168Z"/><path class="cls-3" d="M61.387,24.934c-.231-.117-.578-.233-.81-.35h0c.232.116.579.233.811.35Z"/><path class="cls-3" d="M65.1,28.2a1.515,1.515,0,0,1-.153-.088,1.28,1.28,0,0,0,.154.089.14.14,0,0,1,.058.015A.155.155,0,0,0,65.1,28.2Z"/><path class="cls-3" d="M49.07,34.457a.538.538,0,0,1-.085-.068h0A.506.506,0,0,0,49.07,34.457Z"/><path class="cls-3" d="M47.13,32.637c0,.22,0,.3.057.361-.056-.059-.056-.141-.056-.36,0-.088,0-.175-.05-.213C47.129,32.464,47.13,32.55,47.13,32.637Z"/><path class="cls-3" d="M48.251,33.932c-.135-.12-.222-.273-.309-.36h0A4.589,4.589,0,0,0,48.251,33.932Z"/><path class="cls-3" d="M49.449,34.856l-.108-.109.106.108c.232.35.464.583.7.934.116.233.347.467.464.7l.105.106-.1-.1c-.116-.234-.348-.467-.464-.7C49.912,35.439,49.68,35.206,49.449,34.856Z"/><path class="cls-3" d="M49.216,34.621l.091.092-.09-.091a.131.131,0,0,0-.073-.117A.131.131,0,0,1,49.216,34.621Z"/><path class="cls-3" d="M51.186,36.956h0a2.407,2.407,0,0,0-.25-.266A2.486,2.486,0,0,1,51.186,36.956Z"/><path class="cls-3" d="M51.969,37.6a5.532,5.532,0,0,1-.736-.6A5.532,5.532,0,0,0,51.969,37.6Z"/><path class="cls-3" d="M63.01,26.1a1.226,1.226,0,0,1-.619-.2,1.231,1.231,0,0,0,.62.2Z"/><path class="cls-3" d="M53,37.773a.131.131,0,0,1-.071-.116h0A.13.13,0,0,0,53,37.773Z"/><path class="cls-3" d="M61.619,39.754a.1.1,0,0,0-.007-.026.12.12,0,0,1,.007.03Z"/><path class="cls-3" d="M61.5,39.526a.1.1,0,0,0,.01.037.106.106,0,0,1-.01-.038Z"/><path class="cls-3" d="M63.228,38.489c.014.014.014.043.014.1h0C63.243,38.532,63.243,38.5,63.228,38.489Z"/><path class="cls-3" d="M61.62,39.408a.387.387,0,0,0,.086.067.387.387,0,0,1-.086-.067Z"/><path class="cls-3" d="M63.263,26.636c.037.05.124.05.211.05h0C63.387,26.685,63.3,26.685,63.263,26.636Z"/><path class="cls-3" d="M61.205,39.948c-.112-.1.053-.2-.049-.306h0C61.255,39.744,61.092,39.846,61.205,39.948Z"/><path class="cls-3" d="M54.316,38.123c-.086-.087-.108-.174-.162-.212.053.038.075.125.162.212Z"/><path class="cls-3" d="M55.243,38.59h0a2.388,2.388,0,0,0-.294-.435A2.382,2.382,0,0,1,55.243,38.59Z"/><path class="cls-3" d="M56.4,39.174c0,.044,0,.071.019.082-.017-.011-.017-.038-.017-.081a2.382,2.382,0,0,0-.2-.174A2.187,2.187,0,0,1,56.4,39.174Z"/><path class="cls-3" d="M53.156,37.89a.381.381,0,0,0,.088.066.33.33,0,0,1-.086-.065.483.483,0,0,0-.079-.064A.464.464,0,0,1,53.156,37.89Z"/><path class="cls-3" d="M56.751,39.175a.753.753,0,0,0,.246.276.762.762,0,0,1-.246-.276Z"/><path class="cls-3" d="M35.191,24.234c-.231-.117-.579-.234-.81-.35h0c.231.117.579.233.811.35Z"/><path class="cls-3" d="M35.424,24.467h0a.23.23,0,0,1,.158.072A.229.229,0,0,0,35.424,24.467Z"/><path class="cls-3" d="M38.9,27.5a1.263,1.263,0,0,1-.153-.089,1.427,1.427,0,0,0,.154.09.149.149,0,0,1,.058.014A.147.147,0,0,0,38.9,27.5Z"/><path class="cls-3" d="M33.56,23.058a.944.944,0,0,0-.223-.108.508.508,0,0,1-.275-.073.509.509,0,0,0,.276.073A.956.956,0,0,1,33.56,23.058Z"/><path class="cls-3" d="M37.278,25.984c-.087,0-.173,0-.211-.048.037.049.124.049.211.049Z"/><path class="cls-3" d="M30.44,21.9h.232c.116,0,.347-.117.463-.117a.882.882,0,0,0,.58-.233h.232a1.263,1.263,0,0,1,.153.089,1.362,1.362,0,0,0-.154-.09h-.232a.882.882,0,0,1-.58.233c-.116,0-.347.117-.463.117h-.464c-.114,0-.116.11-.227,0,.111.109.114,0,.228,0Z"/><path class="cls-3" d="M29.962,27.837c-.015.015-.044.015-.1.015a.39.39,0,0,0-.179.028.092.092,0,0,0-.052.089.131.131,0,0,0-.117.073.793.793,0,0,1-.115.16c-.08.08-.145.115-.187.161-.019.02-.045.036-.045.072s-.023.033-.035.05a.233.233,0,0,1-.2.067c0,.059,0,.088-.015.1s-.043.014-.1.014h0l-.116.117a.1.1,0,0,1-.058.1.14.14,0,0,1-.058.015h0a.115.115,0,0,1-.117.117,1.233,1.233,0,0,0-.32.3.6.6,0,0,0-.041.05.647.647,0,0,0-.1.35v1.868a.43.43,0,0,1-.116.35h-.116v.117c0,.116,0,.117.116.233l.205.207.027.027h0l.232.233a.4.4,0,0,0,.231.117l.116.117a.114.114,0,0,0,.116.116,1.607,1.607,0,0,0,.348.467c.114.114.117.229.226.343l.006.007h0c.009.009.018.013.027.021.106.092.205.1.205.212.114.115.341.23.459.346l0,0h.232a.108.108,0,0,0,.114-.1l0-.011v-.007l.116.117H30.9l.109-.111.007-.006.115.117h0a.807.807,0,0,1,.318.029c.058.03.087.088.145.2h.117a.6.6,0,0,1,.463.234h0a.409.409,0,0,0,.116.233.424.424,0,0,0,.348.117h.116c.116,0,.232-.117.348-.117h.347l.219.22.013.014h0v-.232a.075.075,0,0,0,.01.032.11.11,0,0,0,.048.067.121.121,0,0,0,.05.016h.125a.1.1,0,0,0,.074-.032l.013,0a.124.124,0,0,0,.026-.062v-.017c.087.087.044.174.066.213.007.012.021.02.051.02a.14.14,0,0,1,.048-.106.507.507,0,0,0,.037-.044.125.125,0,0,0,.03-.084.116.116,0,0,1,.067.019h0a.109.109,0,0,1,.033.039h0a.141.141,0,0,1,.013.04h0l0,.017v-.117h.231c0-.117,0-.117.117-.117,0-.117.115-.117.115-.233h.117c.087,0,.108-.066.163-.1a.122.122,0,0,1,.068-.018v.117h.232c0-.234.116-.234.232-.234s.116-.116.232-.116v-.117h.116s-.116-.117,0-.117c-.116-.117-.116-.117-.116-.233v-.351s-.116-.116,0-.116V33.1c0-.116.116-.233,0-.233v-.7h.116c.079-.079.05-.106.024-.151l-.008-.013a.107.107,0,0,1-.006-.027.1.1,0,0,1-.01-.042c.115,0,0,.116.115.116h0c.116-.116,0-.116,0-.233a.356.356,0,0,1,0-.466v-.468h.116v-.116l.087-.088.029-.029h0l-.11-.111-.006-.006h.231V30.42h0V30.3h0a.2.2,0,0,1-.089-.023.253.253,0,0,1-.142-.21h-.116c-.116-.117-.232-.117-.232-.234a.128.128,0,0,0-.049-.1.118.118,0,0,0-.067-.018l-.348-.351-.116-.116c0-.117-.116-.117-.116-.234-.116-.116-.231-.116-.348-.233,0-.117-.115-.117-.115-.233a.116.116,0,0,0-.117-.118l-.109-.109-.007-.007h0l-.008-.008c-.113-.114-.226-.226-.339-.226s-.117-.116-.232-.116a1.075,1.075,0,0,0-.241-.2.233.233,0,0,0-.107-.033.126.126,0,0,1-.092-.038c-.039-.034-.067-.079-.14-.079s-.1-.016-.108-.058a.214.214,0,0,1-.008-.058l-.011-.011-.1-.107-.087-.087h0l-.026-.027,0,0h0l-.042-.042c-.066-.068-.095-.1-.19-.192h-.116c0,.117-.116.117-.232.117H31.6c-.116,0-.116.117-.232.117h-.58c-.115.117-.115.117-.232.117H30.44a.358.358,0,0,0-.232.117.25.25,0,0,0-.232.233C29.976,27.794,29.976,27.823,29.962,27.837Zm2.217,7.136c.086,0,.107.065.064.049A.225.225,0,0,1,32.179,34.973Z"/><path class="cls-3" d="M20.819,31.588h0a.427.427,0,0,0,.348-.116,1.268,1.268,0,0,0,.231-.7c-.116-.233,0-.583-.116-.934a1,1,0,0,0,0-.817,2,2,0,0,0-.116-.817V27.27c0-.117-.116-.234,0-.351a1.921,1.921,0,0,1,.927-1.4c.116-.117.232-.117.232-.35a.358.358,0,0,1,.232-.117c.116-.117.232-.234.348-.234s.231-.116.348-.233a.884.884,0,0,0,.579-.233c.116-.117.232-.35.348-.467.232-.117.232-.467.579-.467,0-.233.348-.233.464-.35.116,0,.232-.117.348-.234.116-.233.231-.467.579-.35h.116c.116-.233.348-.117.58-.117h.232a.866.866,0,0,1,.579-.116h.464a1.46,1.46,0,0,0,.7-.117,1.033,1.033,0,0,1,.579-.117c.232,0,.347.116.464-.117h0c-.116.234-.232.117-.464.117a1.038,1.038,0,0,0-.58.117,1.456,1.456,0,0,1-.7.117h-.464a.86.86,0,0,0-.579.117h-.232c-.232,0-.463-.117-.58.116H26.15c-.348-.116-.463.117-.579.351-.116.116-.232.233-.348.233-.116.117-.464.117-.464.35-.348,0-.348.35-.579.467-.116.117-.232.35-.348.467a.886.886,0,0,1-.579.233c-.117.117-.232.234-.349.234s-.231.116-.347.233a.358.358,0,0,0-.232.117c0,.233-.115.233-.232.35a1.921,1.921,0,0,0-.927,1.4c-.116.116,0,.233,0,.35V28.2a2,2,0,0,1,.116.817,1,1,0,0,1,0,.817c.116.35,0,.7.116.933a1.258,1.258,0,0,1-.232.7A.423.423,0,0,1,20.819,31.588Z"/><path class="cls-3" d="M1.834,60.877c.13.283.4.5.379.853a2.691,2.691,0,0,1-.043.358c-.019.109-.052.215-.08.324l.891.2c-.011.347,0,.686.33.787a2.016,2.016,0,0,1,.834.677c-.031.171-.061.333-.085.464.1.151.175.273.252.4.21.341.18.828.622,1.028a.072.072,0,0,1,.025.065c-.053.231.082.359.237.494a.362.362,0,0,1,.122.256c-.058.575.278,1.161-.073,1.691.169.283.449.451.421.8-.006.076.076.177.144.239.177.165.376.307.551.473a1.61,1.61,0,0,1,.371.436c.092.193.07.445.173.629a2.316,2.316,0,0,0,.446.444.1.1,0,0,1,.029.066c.012.313.3.409.474.55a1.542,1.542,0,0,0-.014.268c.049.394-.128.828.216,1.178.062.063.02.233.019.353a7.255,7.255,0,0,0,0,1.31,8.638,8.638,0,0,1,.137.855,1.708,1.708,0,0,0,.4,1.14c.29.283.4.832.969.776.052-.005.118.077.166.129a2.469,2.469,0,0,0,.972.616,1.2,1.2,0,0,1,.723.574.853.853,0,0,0,.326.27c.368.234.751.445,1.11.692a1.889,1.889,0,0,0,.489.3,1.192,1.192,0,0,1,.742.668,8.932,8.932,0,0,0,.753,1.239c.266.422.625.834.49,1.412-.018.077.054.179.095.265a3.782,3.782,0,0,1,.2.386,3.1,3.1,0,0,0,.126.494,2.251,2.251,0,0,0,.367.4c-.041.108-.067.176-.092.244a1.458,1.458,0,0,0,.784,2c.537.263,1.038.6,1.55.905.02.14.035.252.054.388.628-.024,1.207.024,1.516.635.27.042.511.071.747.119a1.023,1.023,0,0,1,.4.137,2.521,2.521,0,0,0,1.077.395c.525.094,1.065.12,1.579.253a8.473,8.473,0,0,1,1.725.5,2.816,2.816,0,0,1,1.07.85,2.137,2.137,0,0,0,1.121.76.85.85,0,0,1,.318.15c.2.192.39.369.7.223.047-.022.158.077.23.132a4.15,4.15,0,0,0,1.2.471c.624-.144,1.307.042,1.843-.362a1.459,1.459,0,0,1,.742.49,1.181,1.181,0,0,0,.352.231,5.737,5.737,0,0,1,1.543.915.9.9,0,0,0,.411.273,2.547,2.547,0,0,1,1.172.547,1.777,1.777,0,0,0,.73.283,4.179,4.179,0,0,1,1.224.436,5.767,5.767,0,0,0,1.054.468,6.365,6.365,0,0,1,1.019.556.362.362,0,0,0,.065.033,14.217,14.217,0,0,0,2.795.739.484.484,0,0,1,.327.131c.244.332.622.359.962.472.437.145.874.291,1.317.414a1.024,1.024,0,0,0,.5.023,1.991,1.991,0,0,1,1.6.289c.163.1.374.12.54.217a1.105,1.105,0,0,0,1.231.112.2.2,0,0,1,.141-.021,1.448,1.448,0,0,0,1.106-.245,2.555,2.555,0,0,1,.412-.121.889.889,0,0,0,.323-.133c.421-.379,1.049-.39,1.436-.825a.229.229,0,0,1,.133-.052,2.756,2.756,0,0,0,.642-.07c.169-.06.4.056.584.09L55.5,97.5c.122.059.209.139.293.136a1.654,1.654,0,0,0,1.032-.213,1.827,1.827,0,0,1,1.41-.468,1.449,1.449,0,0,0,.288-.034c.338-.017.676-.041,1.014-.038a1.259,1.259,0,0,0,.762-.193,1.141,1.141,0,0,1,.456-.214,1.593,1.593,0,0,0,.825-.428,1.624,1.624,0,0,1,1.349-.414,1.542,1.542,0,0,0,.85-.127c.151-.061.378-.13.486-.061a.852.852,0,0,0,.825,0,1.289,1.289,0,0,1,1.085.064,1.052,1.052,0,0,0,.112-.047,3.014,3.014,0,0,1,1.471-.744c.115-.009.237-.153.325-.261.122-.15.2-.339.324-.485.089-.1.231-.234.345-.232.6.015,1.008-.463,1.554-.567.239-.267.556-.232.871-.247a2.794,2.794,0,0,0,1.562-.538c.4-.3.773-.656,1.151-.993.326-.291.638-.6.971-.881a.542.542,0,0,1,.378-.162c.443.107.787-.228,1.2-.234a.251.251,0,0,0,.181-.11c.242-.418.833-.407,1.041-.871.029-.065.168-.08.257-.116.156-.063.318-.113.467-.187.3-.152.6-.317.895-.475a2.271,2.271,0,0,0,.86-.524.506.506,0,0,1,.529-.163.8.8,0,0,0,.83-.345A1.02,1.02,0,0,1,82.727,87a1.742,1.742,0,0,0,.644.046,1,1,0,0,0,.927-.959c.009-.1-.011-.2,0-.293a.562.562,0,0,1,.389-.559c.251-.074.3-.267.32-.511a8.886,8.886,0,0,1,.154-1.087.622.622,0,0,1,.186-.382,12.255,12.255,0,0,0,1.162-1.068,3.064,3.064,0,0,0,.3-.3c.112-.122.216-.252.326-.375a2.033,2.033,0,0,0,.242-.26A8.384,8.384,0,0,1,89.01,79.3a2.485,2.485,0,0,0,.6-.725,5.952,5.952,0,0,1,1.625-2.2.31.31,0,0,0,.131-.172c.055-.42.4-.6.681-.811.238-.177.238-.506.435-.65a1.583,1.583,0,0,0,.548-.555,2.482,2.482,0,0,1,.255-.349c.325.2.612.382.9.56.608.376.683.35.916-.3a.892.892,0,0,1,.056-.135,1.514,1.514,0,0,0,.046-1.346.9.9,0,0,1-.067-.569,5.128,5.128,0,0,0,.262-2.006.505.505,0,0,1,.029-.216,4.076,4.076,0,0,0,.112-1.374.628.628,0,0,1,.134-.394,13.8,13.8,0,0,1,1.06-1.167,3.339,3.339,0,0,0,.661-.861c.18-.336.029-.719.214-1.045a.3.3,0,0,0-.063-.271,1.6,1.6,0,0,0-1.243-.6c-.108.013-.19.016-.217-.158a1.692,1.692,0,0,1,.193-.163.631.631,0,0,0,.3-.736,1.651,1.651,0,0,1,.206-1.26,1.97,1.97,0,0,0,.267-.9,17.379,17.379,0,0,0,.059-1.826,1.01,1.01,0,0,1,.208-.817.46.46,0,0,0,.08-.341,5.083,5.083,0,0,1,.175-1.887,3.272,3.272,0,0,1,.746-1.678c-.019-.325-.015-.619-.059-.905a1.783,1.783,0,0,1,.129-.928c.039-.1-.01-.241-.005-.362a3.5,3.5,0,0,1,.043-.434c.057-.348.274-.682.091-1.052.159-1.136.185-2.29.441-3.414a5.982,5.982,0,0,0,.19-1.079.861.861,0,0,1,.5-.884.594.594,0,0,0,.313-.75,4.794,4.794,0,0,0-.593-1.485c-.535-.7-1.009-1.439-1.556-2.124a5.953,5.953,0,0,1-.923-1.973,3.423,3.423,0,0,0-.525-1.111,3.682,3.682,0,0,1-.6-1.147,2.146,2.146,0,0,1,.027-1.489,1.258,1.258,0,0,0,.062-.5.474.474,0,0,1,.356-.555.8.8,0,0,0,.593-.758,2.394,2.394,0,0,0-.634-1.889,7.726,7.726,0,0,1-.826-1.015,4.556,4.556,0,0,1-.594-.82,3.111,3.111,0,0,0-.549-.766,5.8,5.8,0,0,1-1.416-2.35,3.123,3.123,0,0,0-.826-1.436,11.961,11.961,0,0,1-1.35-1.613,1.384,1.384,0,0,1-.177-.393,3.008,3.008,0,0,0-.1-.426,10.98,10.98,0,0,0-.728-1.515c-.267-.376-.524-.762-.757-1.161a23.205,23.205,0,0,0-1.387-2.144,1.4,1.4,0,0,1-.147-.251,3.114,3.114,0,0,0-.848-1.167,1.451,1.451,0,0,1-.25-.349c-.092-.141-.17-.292-.27-.427a3.025,3.025,0,0,0-1.045-1.1c-.183-.086-.282-.335-.453-.462-.427-.317-.845-.645-1.283-.947a8.192,8.192,0,0,0-1.442-.849.784.784,0,0,1-.394-.3,1.116,1.116,0,0,0-.867-.588c-.352-.082-.706-.16-1.051-.267a3.8,3.8,0,0,1-1.3-.631,6.607,6.607,0,0,1-1.21-1.24c-.189-.255-.391-.5-.59-.747a1.224,1.224,0,0,0-.859-.488,7.4,7.4,0,0,1-1.28-.27,1.113,1.113,0,0,1-.6-.37,10.713,10.713,0,0,0-.733-.808,1.45,1.45,0,0,0-1.015-.638.629.629,0,0,1-.569-.4,1.617,1.617,0,0,0-.569-.739,4.805,4.805,0,0,1-.759-.784c-.4-.576-1.091-.677-1.59-1.084-.058-.047-.188-.028-.278-.007a1.431,1.431,0,0,1-1.5-.509.716.716,0,0,0-.148-.161.843.843,0,0,0-.326-.133c-.53-.043-1.064-.059-1.594-.1a3.389,3.389,0,0,1-.715-.132,2.006,2.006,0,0,0-1.8.11.385.385,0,0,1-.2.07,4.913,4.913,0,0,1-1.01-.041,6.973,6.973,0,0,0-1-.142,1.289,1.289,0,0,1-.811-.286.8.8,0,0,0-.886-.127,1.666,1.666,0,0,1-1.138-.01.958.958,0,0,0-.77.024,6.55,6.55,0,0,1-.607.249,1.55,1.55,0,0,1-1.271-.038,4.851,4.851,0,0,0-.757-.232,1.9,1.9,0,0,1-.406-.143.586.586,0,0,0-.549-.083.389.389,0,0,1-.274-.039.641.641,0,0,0-.556-.007,3.6,3.6,0,0,1-1.859.189,5.385,5.385,0,0,0-1.737-.062,4.516,4.516,0,0,1-.508.009,2.26,2.26,0,0,0-.646.053.889.889,0,0,1-.762-.041c-.279-.144-.594-.215-.88-.349A2.547,2.547,0,0,0,43.932.776a1.028,1.028,0,0,1-.7-.147A2.732,2.732,0,0,0,42.066.265C41.633.218,41.207.119,40.779.04a.956.956,0,0,0-.641.031A2.049,2.049,0,0,1,39.754.2c-.335.347-.592.637-.874.9a1.723,1.723,0,0,1-1.056.441c-.6.049-1.208.054-1.811.082a1.135,1.135,0,0,0-.212.047c-.258.065-.52.121-.774.2a1.451,1.451,0,0,0-.457.2,2.461,2.461,0,0,1-1.275.488,4.176,4.176,0,0,0-1.883.5,2.943,2.943,0,0,1-.418.119,5.977,5.977,0,0,0-1.05.487c-.179.119-.217.439-.389.585-.2.165-.525.181-.7.359-.426.441-.947.758-1.392,1.162a3.164,3.164,0,0,1-1.748.808c-.554.078-1.111.136-1.662.232a1.213,1.213,0,0,0-.665.25,14.646,14.646,0,0,0-1.41,1.364.723.723,0,0,1-.751.353.823.823,0,0,0-.684.179,8.946,8.946,0,0,0-1.124.9,6.8,6.8,0,0,1-1.594,1.253,2.083,2.083,0,0,0-1.009.908,3.25,3.25,0,0,1-.788,1.025,3.807,3.807,0,0,0-.883,1.142c-.1.22-.385.349-.561.542-.192.21-.125.556-.42.744a.962.962,0,0,0-.409,1.019c.086.666-.07.9-.711,1.045a2.354,2.354,0,0,0-1.057.613c-.2.177-.409.337-.616.5-.076.06-.191.093-.232.169a1.48,1.48,0,0,1-.849.645.75.75,0,0,0-.412.375,3.224,3.224,0,0,0,1.663.31c.232,0,.463-.117.579,0a1.657,1.657,0,0,0,1.623-.35,3.807,3.807,0,0,1,2.782-.584,1.44,1.44,0,0,0,.927.7c.348,0,.812.233,1.275-.117,0-.467,0-.934.464-1.168a3.121,3.121,0,0,0,1.043,0,6.773,6.773,0,0,1,1.507-.233c.347,0,.7-.117.927-.117a.361.361,0,0,0,.116-.233c0-.584.116-1.051.7-1.284.115,0,.232-.234.232-.35,0-.234,0-.234.116-.351a1.726,1.726,0,0,1,.811-.35,3.724,3.724,0,0,1,1.97.35,6.292,6.292,0,0,0,2.087.7c.811.117,1.159.934,1.854,1.167.232,0,.464.35.58.584a4.7,4.7,0,0,0,1.507,1.517,1.045,1.045,0,0,0,1.159,0c.116,0,.232-.116.348-.233a9.532,9.532,0,0,1,3.593,1.867,6.957,6.957,0,0,1,2.2,0h1.39c.348,0,.58-.117.927-.117a2.7,2.7,0,0,0,.928-.233,1.325,1.325,0,0,1,1.159.117,4.447,4.447,0,0,0,2.434.35,6.563,6.563,0,0,0,3.015-.467h.115A1.765,1.765,0,0,0,51.3,20.5a1.552,1.552,0,0,1,.58-.35c.579-.233,1.043-.467,1.506-.7a6.719,6.719,0,0,1,1.623-.584c.116-.116.232-.233.348-.233.58-.234,1.275-.467,1.855-.7a13.357,13.357,0,0,1,2.086-.466,8.058,8.058,0,0,1,1.623-.351,4.385,4.385,0,0,0,1.391-1.167,1.351,1.351,0,0,1,.7-.7c.58-.234,1.16-.351,1.623-.584.927.467,1.391,1.284,2.086,1.868a18.054,18.054,0,0,1,1.855,2.334,1.585,1.585,0,0,0,.464.35,1.48,1.48,0,0,1,1.043.817c.115.234.347.35.463.584a8.044,8.044,0,0,1,1.276,1.517A3.691,3.691,0,0,1,72.4,23.3a5.758,5.758,0,0,0,.463,1.284,3.438,3.438,0,0,1,.348,1.167,1.665,1.665,0,0,0,.232.7,2.574,2.574,0,0,1,.348.584,1.163,1.163,0,0,0,.464.584,3.7,3.7,0,0,1,1.275,1.4c.347.35.579.817,1.159.934a1.612,1.612,0,0,1,.927.817,11.925,11.925,0,0,1,1.275,3.385,14.333,14.333,0,0,0,.579,2.1v.233a10.083,10.083,0,0,1-.579,3.735,1.2,1.2,0,0,1,.464,1.167c0,.584-.232,1.051,0,1.634v.234a1.619,1.619,0,0,0,.115,1.284,4.95,4.95,0,0,1,.232,1.284c0,.117-.115.233-.232.35a5.735,5.735,0,0,0-1.274,2.334,2.724,2.724,0,0,1-.464,1.168,8.741,8.741,0,0,0-.695,1.517,1.136,1.136,0,0,0-.116,1.051,1,1,0,0,1,0,.817,2.3,2.3,0,0,0-.117,1.517V55.4a9.94,9.94,0,0,1-.463,2.568,3.248,3.248,0,0,0-.116,1.05,1.059,1.059,0,0,0-.116.584,6.585,6.585,0,0,1-.464,1.4,1.059,1.059,0,0,0,.116,1.168.429.429,0,0,1,.116.35c-.116.117-.116.466-.347.583a2.675,2.675,0,0,0-.812,1.168,3.619,3.619,0,0,1-.811,1.05,10.47,10.47,0,0,0-1.043,1.167,6.1,6.1,0,0,1-1.275,1.167c-.116.117-.348.117-.348.234-.463.7-1.507,1.05-1.623,2.1a.114.114,0,0,1-.116.117,1.875,1.875,0,0,0-.463.817l-.348.7a1.851,1.851,0,0,1-.811-.467,3.454,3.454,0,0,0-1.623-.7,3.687,3.687,0,0,1-1.043-.35,1.163,1.163,0,0,1-.58-.467.909.909,0,0,0-.463-.467c-.116,0-.232-.116-.348-.233a4.275,4.275,0,0,0-1.275-.584.693.693,0,0,0-.464.117,2.392,2.392,0,0,1-1.159.7,4.978,4.978,0,0,0-.811.467c-.116.117-.232.117-.464.117-.116,0-.231.117-.348.117-.116.117-.231.234-.347.117h-.116c-.232.466-.58.35-.928.466a2.375,2.375,0,0,0-1.043.584,1.912,1.912,0,0,1-1.391.584,2.13,2.13,0,0,0-.811.233c-.115.117-.232.117-.464.233a.124.124,0,0,1,.1.071,1,1,0,0,0,.36-.187,2.135,2.135,0,0,1,.812-.233,1.911,1.911,0,0,0,1.39-.584,2.36,2.36,0,0,1,1.044-.583c.347-.117.7,0,.927-.468h.116c.116.117.232,0,.347-.116.117,0,.232-.117.349-.117.232,0,.347,0,.463-.117a5.036,5.036,0,0,1,.812-.467,2.4,2.4,0,0,0,1.159-.7.689.689,0,0,1,.463-.117,4.287,4.287,0,0,1,1.275.583c.116.117.232.234.348.234a.906.906,0,0,1,.463.467,1.165,1.165,0,0,0,.58.466,3.656,3.656,0,0,0,1.043.35,3.455,3.455,0,0,1,1.623.7,1.171,1.171,0,0,0,.811.467.535.535,0,0,0-.1.156.518.518,0,0,1,.1-.155h.116a4.61,4.61,0,0,1,1.739.35,1.651,1.651,0,0,0,.7.233c.231,0,.348.117.58.234a2.519,2.519,0,0,0,.927.583,4.627,4.627,0,0,0,1.739.351,5.085,5.085,0,0,1,.811.7.874.874,0,0,0,.463.234c.7.234,1.16.817,1.855.934.348.116.7.233.811.467a1.331,1.331,0,0,0,1.043.7c.117,0,.348,0,.348.117a2.205,2.205,0,0,0,1.275.817c.232.117.232.233.232.467v.7c-.348.117-.58.233-.927.351.231.233.463.35.463.466s-.232.35-.348.584c0,.116.116.349.116.467a.7.7,0,0,0-.463.116c.116.351.116.7.347.934a.985.985,0,0,1,0,.817q-.173.525-.347,1.051a5.761,5.761,0,0,1-1.391-.234A18.007,18.007,0,0,1,76.8,82.6c-.231-.468-.579-.934-.927-1.518A2.729,2.729,0,0,0,74.6,79.794c-.927-.584-1.623-1.4-2.666-1.517H71.82a3.985,3.985,0,0,0-2.086-.584H67.415a9.26,9.26,0,0,1-1.739-.35,2.647,2.647,0,0,0-1.622-.233c-.463-.35-.927-.584-1.391-.934a.424.424,0,0,0-.348-.117,1.655,1.655,0,0,1-1.275-.35,11.7,11.7,0,0,0-1.739-.818,4.147,4.147,0,0,1-1.158-.816c-.03-.03-.061-.053-.091-.079a2.832,2.832,0,0,0-.953.663,1.721,1.721,0,0,1-1.043.466,1.468,1.468,0,0,0-1.159.817A3.77,3.77,0,0,1,53.39,77.46l-1.043.7c0,.35.116.817.116,1.167-.348.234-.58.351-.927.584a8.226,8.226,0,0,0-2.087-.934l-.7-.35c-.348-.234-.58-.467-.928-.7a1.956,1.956,0,0,0-2.086-.466.724.724,0,0,1-.928-.234,2.586,2.586,0,0,0-1.738-.933,3.8,3.8,0,0,1-1.855-.818c-.232-.233-.464-.35-.7-.583v.583l-.811-.816c-.232-.234-.812-.234-.928-.7.348-.117.7.233.928-.117a1.74,1.74,0,0,0-1.276-.467,3.089,3.089,0,0,1-.58-.7,4,4,0,0,0-1.275-1.167c-.347-.234-.7-.234-.811-.7-.116-.116-.232-.233-.348-.233a1.456,1.456,0,0,0-.7-.117,2.91,2.91,0,0,1-1.623-.7,4.187,4.187,0,0,1-1.159-1.634c0-.234-.116-.35-.348-.467-.58-.117-1.043-.467-1.623-.584a1.515,1.515,0,0,1-1.159-1.05A3.217,3.217,0,0,0,27.541,64.5c-.116,0-.232-.117-.347-.234-.58-.467-1.16-.817-1.392-1.517,0-.234-.347-.467-.579-.7a2.4,2.4,0,0,1-.513-.56l-.027-.056c-.012-.029-.029-.051-.04-.084a10.015,10.015,0,0,1-2.318-2.1,2.291,2.291,0,0,0,.116-.934,8.858,8.858,0,0,0-2.666-1.984c-.579-.35-1.159-.584-1.739-.934-.115-.117-.231-.35-.347-.467-.232-.233-.232-.467-.348-.7-.232-.7-.464-.817-1.043-.817-.232,0-.464.117-.7.117A1.18,1.18,0,0,0,14.443,54c0,.117.116.35.116.467a2.334,2.334,0,0,0-1.738.467l-.117.117a1.948,1.948,0,0,1-1.158.35.863.863,0,0,0-.58.117,2.849,2.849,0,0,1-1.275.467,4.822,4.822,0,0,0-1.391.35,4.9,4.9,0,0,1-2.2.7,1.631,1.631,0,0,0-.7.234A4.415,4.415,0,0,1,3.9,58.317a3.3,3.3,0,0,0-1.043.7c-.232.117-.348.234-.58.351a1.5,1.5,0,0,0-.872.737c.011.009.018.022.03.03C1.719,60.335,1.716,60.621,1.834,60.877Z"/><path class="cls-3" d="M20.152,55.706a.162.162,0,0,0,.008.027.155.155,0,0,0,.014.047h0a.378.378,0,0,0,.064.085c.116.233.464.233.811.35h0V56.1H20.7a.908.908,0,0,1-.463-.466h0C20.181,55.632,20.152,55.662,20.152,55.706Z"/><path class="cls-3" d="M38.089,26.685a4.093,4.093,0,0,1-.348-.262,4.042,4.042,0,0,0,.348.262Z"/><path class="cls-3" d="M36.814,25.4a1.236,1.236,0,0,1-.619-.2,1.231,1.231,0,0,0,.62.2Z"/><path class="cls-3" d="M47.015,32.288h0V32.4h0v-.116a.421.421,0,0,0,.347-.117,1.25,1.25,0,0,0,.232-.7c-.115-.234,0-.584-.115-.934a1.01,1.01,0,0,0,0-.817,1.979,1.979,0,0,0-.117-.817V27.97c0-.117-.116-.233,0-.35a1.922,1.922,0,0,1,.928-1.4c.115-.117.231-.117.231-.35a.358.358,0,0,1,.232-.117c.116-.116.232-.233.348-.233s.232-.117.348-.234a.879.879,0,0,0,.579-.233c.116-.117.232-.35.348-.467.232-.116.232-.467.58-.467,0-.233.347-.233.463-.35.116,0,.232-.116.348-.233.116-.234.232-.467.58-.35h.116c.116-.234.347-.117.579-.117h.232a.863.863,0,0,1,.58-.117h.463a1.46,1.46,0,0,0,.7-.117,1.037,1.037,0,0,1,.579-.117c.232,0,.348.117.464-.117h.116c.115.117.115,0,.231,0h.464c.116,0,.348-.116.464-.116a.879.879,0,0,0,.579-.234h.232a1.345,1.345,0,0,1,.153.089,1.427,1.427,0,0,0-.154-.09H57.91a.882.882,0,0,1-.579.234c-.116,0-.348.117-.464.117H56.4c-.116,0-.116.116-.232,0h-.117c-.115.233-.231.116-.463.116a1.038,1.038,0,0,0-.58.117,1.456,1.456,0,0,1-.7.117h-.464a.862.862,0,0,0-.579.117h-.232c-.232,0-.464-.117-.579.117h-.117c-.347-.117-.463.117-.579.35-.116.117-.232.233-.348.233-.116.117-.463.117-.463.351-.348,0-.348.35-.58.466-.116.117-.232.35-.348.467a.882.882,0,0,1-.579.234c-.116.116-.232.233-.348.233s-.232.116-.348.233a.358.358,0,0,0-.232.117c0,.234-.116.234-.232.35a1.923,1.923,0,0,0-.927,1.4c-.116.117,0,.233,0,.35V28.9a2,2,0,0,1,.116.817,1,1,0,0,1,0,.817c.116.35,0,.7.116.934a1.247,1.247,0,0,1-.232.7A.421.421,0,0,1,47.015,32.288Z"/><path class="cls-3" d="M20.933,31.937c0,.219,0,.3.058.361-.057-.06-.057-.142-.057-.36,0-.032,0-.063,0-.093C20.933,31.876,20.934,31.907,20.933,31.937Z"/><path class="cls-3" d="M30.225,38.555c-.017-.011-.018-.038-.018-.081h0C30.206,38.517,30.206,38.545,30.225,38.555Z"/><path class="cls-3" d="M30.555,38.474a.743.743,0,0,0,.245.276.751.751,0,0,1-.245-.276Z"/><path class="cls-3" d="M33.337,38.941c.116.117.2.2.29.277-.087-.073-.174-.16-.29-.277Z"/><path class="cls-3" d="M28.12,37.423h0c-.086-.088-.108-.175-.163-.213C28.011,37.249,28.033,37.336,28.12,37.423Z"/><path class="cls-3" d="M29.047,37.89h0a2.337,2.337,0,0,0-.294-.435A2.345,2.345,0,0,1,29.047,37.89Z"/><path class="cls-3" d="M35.009,39.247c-.112-.1.053-.2-.049-.306h0C35.059,39.043,34.9,39.145,35.009,39.247Z"/><path class="cls-3" d="M37.031,37.788c.015.015.015.044.015.1h0C37.047,37.831,37.047,37.8,37.031,37.788Z"/><path class="cls-3" d="M35.307,38.826a.141.141,0,0,0,.011.038.118.118,0,0,1-.01-.039Z"/><path class="cls-3" d="M35.423,39.054a.1.1,0,0,0-.007-.026.123.123,0,0,1,.007.029Z"/><path class="cls-3" d="M24.681,35.945c.136.071.222.223.309.311a5.263,5.263,0,0,0,.784.64,5.309,5.309,0,0,1-.783-.64C24.9,36.169,24.818,36.016,24.681,35.945Z"/><path class="cls-3" d="M26.8,37.073a.129.129,0,0,1-.071-.116h0A.13.13,0,0,0,26.8,37.073Z"/><path class="cls-3" d="M22.055,33.232c-.135-.12-.222-.273-.309-.361h0C21.832,32.958,21.919,33.112,22.055,33.232Z"/><path class="cls-3" d="M23.948,35.089c-.232-.35-.464-.584-.7-.934l-.232-.233a.114.114,0,0,0-.021-.07.12.12,0,0,1,.02.069c.115.117.115.117.231.233.233.351.464.584.7.934.116.234.348.467.463.7l.117.116h0l-.116-.116C24.3,35.556,24.064,35.322,23.948,35.089Z"/><path class="cls-3" d="M25.571,61.7c.095,0,.187,0,.217-.069a.1.1,0,0,0,.014-.048.41.41,0,0,0-.115-.233.877.877,0,0,0-.464-.234h-.116a.877.877,0,0,0-.464.234c.036.012.066.024.1.036C25.036,61.493,25.258,61.6,25.571,61.7Z"/><path class="cls-3" d="M58.954,27.268h-.116a.1.1,0,0,1-.072.1.564.564,0,0,1-.159.014H57.8a.128.128,0,0,0-.069.019c-.054.033-.076.1-.163.1h-.58a.575.575,0,0,1-.115.1.257.257,0,0,1-.116.014h-.116a.323.323,0,0,0-.084.02.391.391,0,0,0-.148.1.251.251,0,0,0-.232.234c0,.116,0,.116-.116.116s-.232,0-.232.117c-.116,0-.116.117-.232.234s-.231.116-.231.233-.116.117-.232.117c0,.117,0,.117-.116.117l-.116.117a38.306,38.306,0,0,0-.232.233.845.845,0,0,0-.464.7v1.878c0,.031-.005.061-.008.092-.014.082-.06.165-.224.247h0v.117c0,.117,0,.117.116.234l.232.233.232.233a.5.5,0,0,0,.147.1.226.226,0,0,0,.084.018l.116.117a.1.1,0,0,0,.059.1.132.132,0,0,0,.057.015,1.621,1.621,0,0,0,.348.467c.116.116.116.233.231.35s.232.116.232.233c.116.117.348.233.464.35h.233a.113.113,0,0,0,.115-.116l.116.116H57.1l.116-.116.116.116c.347,0,.347,0,.463.234h.116a.6.6,0,0,1,.464.233c.116.117.232.233.116.233h0s.009,0,.013.007a.435.435,0,0,0,.335.109h.116a.246.246,0,0,0,.087-.018.844.844,0,0,1,.261-.1h.348l.231.233h0v-.231a.1.1,0,0,0,.008.031.16.16,0,0,0,.011.035l.007.006a.119.119,0,0,0,.032.028.143.143,0,0,0,.057.014h.117a.113.113,0,0,0,.066-.018.126.126,0,0,0,.05-.1c.114.117,0,.233.115.233h0c0-.117.117-.117.117-.233a.113.113,0,0,1,.066.018.1.1,0,0,1,.043.061v.006a.2.2,0,0,1,0,.031V35.44h.231c0-.067,0-.094.024-.106a.194.194,0,0,1,.092-.011h0c0-.116.117-.116.117-.233h.115c.116,0,.117-.116.232-.116v.116h.232c0-.233.116-.233.232-.233.091,0,.113-.07.172-.1a.118.118,0,0,1,.06-.016h0v-.117H62.2s-.067-.069-.044-.1a.048.048,0,0,1,.043-.017h0c-.116-.116-.116-.116-.116-.233v-.351s-.116-.116,0-.116v-.467c0-.117.116-.234,0-.234v-.7H62.2c.116-.116,0-.117,0-.233.1,0,.038.079.083.105a.05.05,0,0,0,.032.012h0c.116-.117,0-.117,0-.234a.356.356,0,0,1,0-.466v-.467h.116V31l.116-.117-.116-.117h.232v-.233a.25.25,0,0,1-.232-.233h-.116c-.116-.117-.232-.117-.232-.233a.114.114,0,0,0-.116-.117l-.348-.35-.116-.117c0-.117-.116-.117-.116-.233-.116-.117-.232-.117-.347-.234,0-.116-.117-.116-.117-.233a.114.114,0,0,0-.116-.117l-.115-.117a1,1,0,0,0-.262-.213.212.212,0,0,0-.087-.02.124.124,0,0,1-.068-.018c-.055-.033-.076-.1-.163-.1-.116-.117-.232-.233-.348-.233s-.116-.117-.232-.117-.115,0-.115-.117l-.117-.117-.116-.117C59.071,27.384,59.071,27.384,58.954,27.268Z"/><path class="cls-4" d="M20.934,31.938c0,.218,0,.3.057.36a.7.7,0,0,0,.174.106.758.758,0,0,1,.157.106c.094.08.174.175.268.255a.785.785,0,0,0,.155.106h0c.087.088.174.241.309.361a.712.712,0,0,0,.154.106h0c.057.029.108.058.155.088l.029.018c.063.041.122.082.184.122a2.171,2.171,0,0,0,.21.122h0a.526.526,0,0,0,.082.067.5.5,0,0,1,.129.1.114.114,0,0,1,.021.07l.232.233c.231.35.463.584.7.934.116.233.348.467.463.7l.116.116a.312.312,0,0,1,.154.04c.137.071.223.224.31.311a5.309,5.309,0,0,0,.783.64c.033.024.067.047.1.07l.157.107h0a.321.321,0,0,0,.061.04c.015.008.027.02.043.027a.994.994,0,0,0,.359.049c0-.116.115-.116.115-.233h.118a.129.129,0,0,0,.071.116l.075.048a.6.6,0,0,1,.085.068.3.3,0,0,0,.087.066.211.211,0,0,0,.26-.066c.117,0,.232.117.348.117s.116,0,.232-.117a.113.113,0,0,1,.069.021c.055.038.077.125.163.213.362-.073.5-.1.634.032a2.337,2.337,0,0,1,.294.435h.231a2.466,2.466,0,0,1,.734.411,2.351,2.351,0,0,1,.193.172h0c0,.043,0,.07.018.081s.112-.009.329-.082h0a.751.751,0,0,0,.245.276,2.52,2.52,0,0,0,.333.19c.232,0,.464.117.7.117h.116c.232-.117.464-.117.7-.234.117,0,.232.117.348.117h0l.008,0c.113.1.225-.006.338-.006h0c.116.117.2.2.29.277a1.416,1.416,0,0,0,.289.189.43.43,0,0,0,.116-.35c.116,0,.231.117.348.117.115-.117.115-.117.347,0l.232-.234h0c.1.1-.063.2.049.306a.314.314,0,0,0,.066.044c.116-.117.116-.234.232-.467v0h0a.118.118,0,0,0,.01.039c.022.065.082.093.1.164a.1.1,0,0,1,.007.026v-.347a.424.424,0,0,0,.348.117A.25.25,0,0,1,36,38.59l.116-.116c.115-.117.115-.234.231-.351h.116a1.6,1.6,0,0,0,.464-.35c.058,0,.087,0,.1.015s.016.043.016.1l.115-.116h.116c0-.233.232-.467.463-.35s.348,0,.464-.117c.116,0,.116-.117.116-.233h.116c0-.117-.116-.234,0-.351v-.116a.432.432,0,0,1-.116-.351v-.817a.43.43,0,0,1,.116-.35v-.117c-.116-.116,0-.35,0-.466v-.351c-.116-.116,0-.35-.116-.466,0-.35-.116-.7-.116-1.051,0-.117-.116-.233-.116-.35h.232c.116-.233,0-.35,0-.584a.236.236,0,0,1,.136.038.675.675,0,0,1,.141.16.1.1,0,0,0,.071.036c0-.234,0-.35-.117-.467a.894.894,0,0,1,.117-1.05.894.894,0,0,0,.115-.467.71.71,0,0,1-.115-.467H38.9v-.233c.116-.117.232-.117.232-.234a.363.363,0,0,0-.116-.233h.464c0-.117.115-.234.115-.35s-.006-.122-.1-.221l-.01-.012h0a.645.645,0,0,1-.153-.107,1.6,1.6,0,0,1-.311-.476.107.107,0,0,0-.057-.1A.149.149,0,0,0,38.9,27.5a1.427,1.427,0,0,1-.154-.09.9.9,0,0,1-.31-.378.565.565,0,0,0-.174-.218c-.029-.022-.058-.04-.087-.061a.543.543,0,0,1-.087-.071,4.042,4.042,0,0,1-.348-.262c-.1-.088-.2-.175-.287-.263-.06-.058-.118-.116-.176-.175-.087,0-.174,0-.211-.049a.1.1,0,0,1-.021-.068.89.89,0,0,0-.231-.466,1.231,1.231,0,0,1-.62-.2A1.094,1.094,0,0,1,36,25.051c-.117-.117-.232-.234-.348-.351a.233.233,0,0,0-.073-.16.23.23,0,0,0-.158-.072h0c-.116-.116-.116-.117-.231-.233-.232-.117-.58-.233-.811-.35h0l-.348-.35a3.264,3.264,0,0,0-.472-.475.956.956,0,0,0-.222-.108.509.509,0,0,1-.276-.073.976.976,0,0,1-.189-.161,1.781,1.781,0,0,1-.152-.167l-.006-.007a.309.309,0,0,1-.074-.176c0-.117,0-.117-.116-.234l-.116-.116a.9.9,0,0,0-.309-.377,1.263,1.263,0,0,0-.153-.089h-.232a.882.882,0,0,1-.58.233c-.116,0-.347.117-.463.117h-.464c-.114,0-.117.112-.228,0l0,0h-.116c-.117.233-.232.117-.464.117a1.033,1.033,0,0,0-.579.117,1.46,1.46,0,0,1-.7.117h-.464a.866.866,0,0,0-.579.116h-.232c-.232,0-.464-.116-.58.117h-.116c-.348-.117-.463.117-.579.35-.116.117-.232.234-.348.234-.116.117-.464.117-.464.35-.347,0-.347.35-.579.467-.116.117-.232.35-.348.467a.884.884,0,0,1-.579.233c-.117.117-.232.233-.348.233s-.232.117-.348.234a.358.358,0,0,0-.232.117c0,.233-.116.233-.232.35a1.921,1.921,0,0,0-.927,1.4c-.116.117,0,.234,0,.351V28.2a2,2,0,0,1,.116.817,1,1,0,0,1,0,.817c.116.351,0,.7.116.934a1.268,1.268,0,0,1-.231.7.427.427,0,0,1-.348.116h0a.371.371,0,0,1,.111.256C20.934,31.875,20.934,31.906,20.934,31.938Zm6.839,0h.116a.43.43,0,0,0,.116-.35V29.72a.647.647,0,0,1,.1-.35.6.6,0,0,1,.041-.05,1.233,1.233,0,0,1,.32-.3.115.115,0,0,0,.117-.117h0a.14.14,0,0,0,.058-.015.1.1,0,0,0,.058-.1l.116-.117h0c.058,0,.087,0,.1-.014s.015-.044.015-.1a.233.233,0,0,0,.2-.067c.012-.017.035-.021.035-.05s.026-.052.045-.072c.042-.046.107-.081.187-.161a.793.793,0,0,0,.115-.16.131.131,0,0,1,.117-.073.092.092,0,0,1,.052-.089.39.39,0,0,1,.179-.028c.058,0,.087,0,.1-.015s.014-.043.014-.1a.25.25,0,0,1,.232-.233.358.358,0,0,1,.232-.117h.115c.117,0,.117,0,.232-.117h.58c.116,0,.116-.117.232-.117h.811c.116,0,.232,0,.232-.117h.116c.095.1.124.124.19.192l.042.042h0l0,0,.026.027h0l.087.087.1.107.011.011a.214.214,0,0,0,.008.058c.007.042.025.058.108.058s.1.045.14.079a.126.126,0,0,0,.092.038.233.233,0,0,1,.107.033,1.075,1.075,0,0,1,.241.2c.115,0,.115.116.232.116s.226.112.339.226l.008.008h0l.007.007.109.109a.116.116,0,0,1,.117.118c0,.116.115.116.115.233.117.117.232.117.348.233,0,.117.116.117.116.234l.116.116.348.351a.118.118,0,0,1,.067.018.128.128,0,0,1,.049.1c0,.117.116.117.232.234h.116a.253.253,0,0,0,.142.21.2.2,0,0,0,.089.023h0v.116h0v.117h-.231l.006.006.11.111h0l-.029.029-.087.088v.116h-.116v.468a.356.356,0,0,0,0,.466c0,.117.116.117,0,.233h0c-.115,0,0-.116-.115-.116a.1.1,0,0,0,.01.042.107.107,0,0,0,.006.027l.008.013c.026.045.055.072-.024.151h-.116v.7c.116,0,0,.117,0,.233v.468c-.116,0,0,.116,0,.116v.351c0,.116,0,.116.116.233-.116,0,0,.117,0,.117h-.116v.117c-.116,0-.116.116-.232.116s-.232,0-.232.234h-.232v-.117a.122.122,0,0,0-.068.018c-.055.033-.076.1-.163.1h-.117c0,.116-.115.116-.115.233-.117,0-.117,0-.117.117h-.231v.117l0-.017h0a.141.141,0,0,0-.013-.04h0a.109.109,0,0,0-.033-.039h0a.116.116,0,0,0-.067-.019.125.125,0,0,1-.03.084.507.507,0,0,1-.037.044.14.14,0,0,0-.048.106c-.03,0-.044-.008-.051-.02-.022-.039.021-.126-.066-.213v.017a.124.124,0,0,1-.026.062l-.013,0a.1.1,0,0,1-.074.032h-.125a.121.121,0,0,1-.05-.016.11.11,0,0,1-.048-.067.075.075,0,0,1-.01-.032v.232h0l-.013-.014-.219-.22h-.347c-.116,0-.232.117-.348.117h-.116a.424.424,0,0,1-.348-.117.409.409,0,0,1-.116-.233.6.6,0,0,0-.463-.234H31.6c-.058-.116-.087-.174-.145-.2a.807.807,0,0,0-.318-.029h0l-.115-.117-.007.006-.109.111h-.348l-.116-.117V34.4l0,.011a.108.108,0,0,1-.114.1h-.232l0,0c-.118-.116-.345-.231-.459-.346,0-.108-.1-.12-.205-.212-.009-.008-.018-.012-.027-.021h0l-.006-.007c-.109-.114-.112-.229-.226-.343a1.607,1.607,0,0,1-.348-.467.114.114,0,0,1-.116-.116l-.116-.117a.4.4,0,0,1-.231-.117l-.232-.233h0l-.027-.027-.205-.207c-.116-.116-.116-.117-.116-.233Z"/><path class="cls-4" d="M47.131,32.638c0,.219,0,.3.056.36a.659.659,0,0,0,.175.106.783.783,0,0,1,.156.107l.017.016c.06.054.118.111.176.168.025.024.048.048.074.07a.779.779,0,0,0,.156.106h0c.087.087.174.24.309.36a.757.757,0,0,0,.153.106c.232.117.349.233.58.35h0a.538.538,0,0,0,.085.068c.027.019.052.034.074.048a.131.131,0,0,1,.073.117l.09.091.034.034.108.109c.231.35.463.583.7.933.116.234.348.467.464.7l.1.1.011.011h0a.339.339,0,0,1,.214.085,2.407,2.407,0,0,1,.25.266c.015.015.03.026.046.041a5.532,5.532,0,0,0,.736.6c.087.06.174.118.26.176a.693.693,0,0,0,.464.117c0-.117.116-.117.116-.233h.117a.131.131,0,0,0,.071.116c.024.016.053.033.082.054a.483.483,0,0,1,.079.064.33.33,0,0,0,.086.065.213.213,0,0,0,.261-.066c.116,0,.232.117.347.117s.116,0,.232-.117a.119.119,0,0,1,.07.021c.054.038.076.125.162.212.362-.073.5-.1.634.032a2.388,2.388,0,0,1,.294.435h.231a2.488,2.488,0,0,1,.734.411,2.382,2.382,0,0,1,.2.174c0,.043,0,.07.017.081s.113-.01.329-.082h0a.762.762,0,0,0,.246.276,2.393,2.393,0,0,0,.333.189c.232,0,.464.117.7.117h.116c.232-.116.464-.116.7-.233.116,0,.232.117.348.117.115.117.231,0,.347,0h0c.116.116.2.2.289.276a1.455,1.455,0,0,0,.29.19.432.432,0,0,0,.116-.351c.116,0,.232.117.348.117.116-.117.116-.117.348,0l.231-.233h0c.1.1-.063.2.049.306a.314.314,0,0,0,.066.043c.116-.117.116-.233.232-.467v0h0a.106.106,0,0,0,.01.038c.021.067.081.094.1.165a.1.1,0,0,1,.007.026v-.347h0a.387.387,0,0,0,.086.067.5.5,0,0,0,.261.049.25.25,0,0,1,.232-.233l.116-.117c.115-.117.115-.233.232-.35h.115a1.62,1.62,0,0,0,.464-.35c.059,0,.088,0,.1.015s.015.043.015.1l.115-.115h.116c0-.234.232-.468.464-.351s.347,0,.463-.117c.116,0,.116-.116.116-.233h.116c0-.117-.116-.233,0-.35v-.117a.43.43,0,0,1-.116-.35v-.817a.429.429,0,0,1,.116-.35v-.117c-.116-.117,0-.35,0-.467v-.35c-.116-.117,0-.35-.116-.467,0-.35-.116-.7-.116-1.05,0-.117-.116-.234-.116-.351h.232c.116-.233,0-.35,0-.583a.25.25,0,0,1,.137.037.746.746,0,0,1,.141.16.092.092,0,0,0,.07.036c0-.233,0-.35-.116-.467a.892.892,0,0,1,.116-1.05.886.886,0,0,0,.116-.467.7.7,0,0,1-.116-.467H65.1v-.233c.116-.116.232-.116.232-.233a.364.364,0,0,0-.116-.234h.463c0-.117.117-.233.117-.35s0-.116-.116-.233h0a.692.692,0,0,1-.152-.107,1.606,1.606,0,0,1-.311-.477.1.1,0,0,0-.057-.1A.14.14,0,0,0,65.1,28.2a1.28,1.28,0,0,1-.154-.089.846.846,0,0,1-.173-.158,1.117,1.117,0,0,1-.137-.221.573.573,0,0,0-.174-.218c-.029-.022-.057-.04-.086-.06a.516.516,0,0,1-.088-.072c-.03-.02-.054-.039-.082-.059-.054-.039-.11-.077-.159-.116-.025-.019-.046-.039-.069-.058-.048-.039-.095-.078-.139-.117-.13-.116-.245-.233-.362-.349-.087,0-.174,0-.211-.05a.1.1,0,0,1-.021-.068.848.848,0,0,0-.2-.414c-.013-.016-.022-.039-.035-.052h0a1.231,1.231,0,0,1-.62-.2,1.072,1.072,0,0,1-.191-.152h0l-.348-.35a.235.235,0,0,0-.072-.16.231.231,0,0,0-.159-.073h0l-.189-.19-.042-.042h0c-.232-.117-.579-.234-.811-.35h0l-.348-.35a3.318,3.318,0,0,0-.471-.476.943.943,0,0,0-.223-.107.509.509,0,0,1-.276-.074,1.007,1.007,0,0,1-.189-.16c-.116-.117-.231-.234-.231-.351s0-.116-.117-.233l-.116-.117a.9.9,0,0,0-.309-.377,1.345,1.345,0,0,0-.153-.089h-.232a.879.879,0,0,1-.579.234c-.116,0-.348.116-.464.116H56.4c-.116,0-.116.117-.231,0h-.116c-.116.234-.232.117-.464.117a1.037,1.037,0,0,0-.579.117,1.46,1.46,0,0,1-.7.117h-.463a.863.863,0,0,0-.58.117h-.232c-.232,0-.463-.117-.579.117h-.116c-.348-.117-.464.116-.58.35-.116.117-.232.233-.348.233-.116.117-.463.117-.463.35-.348,0-.348.351-.58.467-.116.117-.232.35-.348.467a.879.879,0,0,1-.579.233c-.116.117-.232.234-.348.234s-.232.117-.348.233a.358.358,0,0,0-.232.117c0,.233-.116.233-.231.35a1.922,1.922,0,0,0-.928,1.4c-.116.117,0,.233,0,.35V28.9a1.979,1.979,0,0,1,.117.817,1.01,1.01,0,0,1,0,.817c.115.35,0,.7.115.934a1.25,1.25,0,0,1-.232.7.421.421,0,0,1-.347.117v.116a.1.1,0,0,1,.065.02C47.131,32.463,47.131,32.55,47.131,32.638Zm6.838-.467h0c.164-.082.21-.165.224-.247,0-.031.008-.061.008-.092V29.954a.845.845,0,0,1,.464-.7,38.306,38.306,0,0,1,.232-.233l.116-.117c.116,0,.116,0,.116-.117.116,0,.232,0,.232-.117s.116-.117.231-.233.116-.234.232-.234c0-.117.116-.117.232-.117s.116,0,.116-.116a.251.251,0,0,1,.232-.234.391.391,0,0,1,.148-.1.323.323,0,0,1,.084-.02h.116a.257.257,0,0,0,.116-.014.575.575,0,0,0,.115-.1h.58c.087,0,.109-.066.163-.1a.128.128,0,0,1,.069-.019h.812a.564.564,0,0,0,.159-.014.1.1,0,0,0,.072-.1h.116c.117.116.117.116.232.233l.116.117.117.117c0,.117,0,.117.115.117s.116.117.232.117.232.116.348.233c.087,0,.108.066.163.1a.124.124,0,0,0,.068.018.212.212,0,0,1,.087.02,1,1,0,0,1,.262.213l.115.117a.114.114,0,0,1,.116.117c0,.117.117.117.117.233.115.117.231.117.347.234,0,.116.116.116.116.233l.116.117.348.35a.114.114,0,0,1,.116.117c0,.116.116.116.232.233h.116a.25.25,0,0,0,.232.233v.233h-.232l.116.117L62.433,31v.117h-.116v.467a.356.356,0,0,0,0,.466c0,.117.116.117,0,.234h0a.05.05,0,0,1-.032-.012c-.045-.026.013-.1-.083-.105,0,.116.116.117,0,.233h-.116v.7c.116,0,0,.117,0,.234v.467c-.116,0,0,.116,0,.116v.351c0,.117,0,.117.116.233h0a.048.048,0,0,0-.043.017c-.023.031.044.1.044.1h-.116v.117h0a.118.118,0,0,0-.06.016c-.059.031-.081.1-.172.1-.116,0-.232,0-.232.233h-.232v-.116c-.115,0-.116.116-.232.116h-.115c0,.117-.117.117-.117.233h0a.194.194,0,0,0-.092.011c-.021.012-.024.039-.024.106h-.231v.116a.2.2,0,0,0,0-.031v-.006a.1.1,0,0,0-.043-.061.113.113,0,0,0-.066-.018c0,.116-.117.116-.117.233h0c-.116,0,0-.116-.115-.233a.126.126,0,0,1-.05.1.113.113,0,0,1-.066.018H60a.143.143,0,0,1-.057-.014.119.119,0,0,1-.032-.028l-.007-.006a.16.16,0,0,1-.011-.035.1.1,0,0,1-.008-.031v.231h0l-.231-.233H59.3a.844.844,0,0,0-.261.1.246.246,0,0,1-.087.018h-.116a.435.435,0,0,1-.335-.109s-.008,0-.013-.007h0c.116,0,0-.116-.116-.233a.6.6,0,0,0-.464-.233h-.116c-.116-.234-.116-.234-.463-.234l-.116-.116-.116.116h-.348l-.116-.116a.113.113,0,0,1-.115.116h-.233c-.116-.117-.348-.233-.464-.35,0-.117-.116-.117-.232-.233s-.115-.234-.231-.35a1.621,1.621,0,0,1-.348-.467.132.132,0,0,1-.057-.015.1.1,0,0,1-.059-.1L54.78,33.1a.226.226,0,0,1-.084-.018.5.5,0,0,1-.147-.1l-.232-.233-.232-.233c-.116-.117-.116-.117-.116-.234Z"/><path class="cls-4" d="M64.633,69.756a.906.906,0,0,0-.463-.467c-.116,0-.232-.117-.348-.234a4.287,4.287,0,0,0-1.275-.583.689.689,0,0,0-.463.117,2.4,2.4,0,0,1-1.159.7,5.036,5.036,0,0,0-.812.467c-.116.117-.231.117-.463.117-.117,0-.232.117-.349.117-.115.116-.231.233-.347.116h-.116c-.232.468-.58.351-.927.468a2.36,2.36,0,0,0-1.044.583,1.911,1.911,0,0,1-1.39.584,2.135,2.135,0,0,0-.812.233,1,1,0,0,1-.36.187c-.033.014-.064.027-.1.046a.114.114,0,0,1,.116.117c.7.35,1.275.7,1.97,1.05l1.043.351a1.023,1.023,0,0,1,.721.271c.03.026.061.049.091.079a4.147,4.147,0,0,0,1.158.816,11.7,11.7,0,0,1,1.739.818,1.655,1.655,0,0,0,1.275.35.424.424,0,0,1,.348.117c.464.35.928.584,1.391.934a2.647,2.647,0,0,1,1.622.233,9.26,9.26,0,0,0,1.739.35h2.319a3.985,3.985,0,0,1,2.086.584h.116c1.043.117,1.739.933,2.666,1.517a2.729,2.729,0,0,1,1.275,1.284c.348.584.7,1.05.927,1.518a18.007,18.007,0,0,0,1.971.583,5.761,5.761,0,0,0,1.391.234q.174-.526.347-1.051a.985.985,0,0,0,0-.817c-.231-.233-.231-.583-.347-.934a.7.7,0,0,1,.463-.116c0-.118-.116-.351-.116-.467.116-.234.348-.467.348-.584s-.232-.233-.463-.466c.347-.118.579-.234.927-.351v-.7c0-.234,0-.35-.232-.467a2.205,2.205,0,0,1-1.275-.817c0-.117-.231-.117-.348-.117a1.331,1.331,0,0,1-1.043-.7c-.116-.234-.463-.351-.811-.467-.695-.117-1.159-.7-1.855-.934a.874.874,0,0,1-.463-.234,5.085,5.085,0,0,0-.811-.7,4.627,4.627,0,0,1-1.739-.351,2.519,2.519,0,0,1-.927-.583c-.232-.117-.349-.234-.58-.234a1.651,1.651,0,0,1-.7-.233,4.61,4.61,0,0,0-1.739-.35H68.69a.518.518,0,0,0-.1.155.535.535,0,0,1,.1-.156,1.171,1.171,0,0,1-.811-.467,3.455,3.455,0,0,0-1.623-.7,3.656,3.656,0,0,1-1.043-.35A1.165,1.165,0,0,1,64.633,69.756Z"/></svg>