<svg id="Layer_1" data-name="Layer 1" xmlns="http://www.w3.org/2000/svg" xmlns:xlink="http://www.w3.org/1999/xlink" viewBox="0 0 100 100"><defs><style>.cls-1{fill:#fd3366;}.cls-2{clip-path:url(#clip-path);}.cls-3{fill:#fde8e6;}.cls-4{fill:#1858a5;}</style><clipPath id="clip-path"><path class="cls-1" d="M87.136,80.562a8.621,8.621,0,0,0-1.843,2.872l-1.371,1.61-1.37,1.609-1.1,1.288a9.979,9.979,0,0,0-3.988,3.267,1.478,1.478,0,0,1-1.171.669,3.553,3.553,0,0,0-1.72,1.312c-.274.322-.822.965-1.446.99l-.274.322a5.7,5.7,0,0,0-2.343,1.336c-.274.322-.274.322-.9.347-.274.321-.9.346-1.171.668a24.278,24.278,0,0,0-3.59,1.385.426.426,0,0,1-.623.025,7.706,7.706,0,0,1-5.261.518,25.324,25.324,0,0,0-4.438-.448l-.35-.3c-.972-.273-2.294-.844-3.191-.5l-2.494.1-1.87.073a9.368,9.368,0,0,1-2.767.42l-1.247.049c-.972-.273-2.144.4-3.041.742-.274.322-.9.346-1.521.371l-1.87.073a3.6,3.6,0,0,1-1.945-.545l-.349-.3a9.7,9.7,0,0,0-3.192-.5l-.624.025c-.349-.3-.972-.273-1.321-.57l-.349-.3-1.747-1.487L25.607,94.8l-.349-.3c.123-1.561-1.2-2.131-2.52-2.7l-.7-.595c-.7-.595-1.671-.868-2.369-1.463a6.239,6.239,0,0,1-1.821-2.106,3.7,3.7,0,0,0-3.068-2.057l-.973-.273c-.623.024-.972-.273-1.671-.868a8.414,8.414,0,0,0-2.17-2.4c-.349-.3-.349-.3-.425-.917A3.553,3.553,0,0,0,8,78.694c-.349-.3-.7-.595-.972-.273a.951.951,0,0,0-.15-1.239c-.35-.3-.076-.619-.425-.916a.951.951,0,0,0-.15-1.239,9.7,9.7,0,0,0-1-3.072c-.15-1.239-1.2-2.131-1.348-3.369,0,0-.075-.62-.349-.3a2.456,2.456,0,0,1-.5-1.536,3.455,3.455,0,0,0-.3-2.477l-.15-1.239a2.455,2.455,0,0,0-.5-1.535h0a2.454,2.454,0,0,1-.5-1.536c-.349-.3-.424-.917-.773-1.214a5.875,5.875,0,0,1,.049-2.18c.2-.941.123-1.561.322-2.5-.075-.619.2-.941.124-1.56l.274-.322a2.145,2.145,0,0,0,.4-1.882l.274-.322a2.146,2.146,0,0,0,.4-1.883c-.15-1.238-.649-2.774-.8-4.013.274-.321-.075-.619.2-.941l.6-2.823c-.075-.619.2-.941.748-1.585.274-.322.2-.942.473-1.263l-.075-.62L5.28,33.066l.548-.644.549-.643a3.1,3.1,0,0,1,.672-2.2c.274-.321.274-.321.2-.941a1.475,1.475,0,0,1,.473-1.263L9.64,25.117a1.478,1.478,0,0,0,.473-1.263c.473-1.263.672-2.2,1.145-3.467l.274-.322c.548-.644,1.446-.99,1.994-1.634A3.1,3.1,0,0,1,15.6,17.416a1.443,1.443,0,0,0,.9-.346l1.371-1.61c.2-.941,1.37-1.609,2.268-1.955a7.386,7.386,0,0,0,2.617-1.659,2.15,2.15,0,0,1,1.795-.693,2.146,2.146,0,0,0,1.8-.692,5.7,5.7,0,0,1,2.343-1.337l1.1-1.288c.9-.346,1.8-.692,1.994-1.633l-.349-.3a5.7,5.7,0,0,0,2.343-1.336c.274-.322.822-.966,1.445-.99.9-.347,1.446-.991,2.343-1.337l.275-.322,1.246-.049c.624-.024.9-.346,1.521-.371s.9-.346,1.521-.37l.972.273a2.458,2.458,0,0,0,1.6.248A3.6,3.6,0,0,1,46.63,2.2a2.944,2.944,0,0,0,1.671.867c.35.3.35.3.973.273a.439.439,0,0,0,.623-.024l1.87-.073.623-.025c.274-.322.9-.346,1.6.248a1.642,1.642,0,0,0,.973.273,3.608,3.608,0,0,1,1.945.546c.623-.024,1.322.571,1.945.546.349.3.623-.024.973.273.972.273,2.568.521,3.541.794a1.78,1.78,0,0,1,1.321.57l.7.595A5.367,5.367,0,0,1,67.4,8.225l1.048.892c.7.595,1.4,1.19,2.02,1.166.972.273,1.321.57,1.945.545a1.639,1.639,0,0,0,.972.273,3.662,3.662,0,0,0,2.3.843c.274-.321.623-.024.7.595l.075.619a1.913,1.913,0,0,0,.575,2.156c.7.594.774,1.214,1.2,2.13.075.62.773,1.214,1.123,1.512l1.047.892,1.048.892.7.6.35.3c.349.3.424.917,1.122,1.512l1.048.892a1.485,1.485,0,0,0,1.4,1.189,6.269,6.269,0,0,1,1.821,2.106c.075.62.774,1.214,1.472,1.809a4.64,4.64,0,0,1,1.9,2.726c.075.619.424.916.7.595.973.273,1.123,1.511,1.821,2.106l.076.619,1.547,2.428a.439.439,0,0,1,.075.619,2.454,2.454,0,0,0,.848,1.834h0a1.18,1.18,0,0,0,1.123,1.511,4.3,4.3,0,0,1,.027,2.8.426.426,0,0,0,.075.619c.075.619.075.619-.2.941S96.87,47.2,96.6,47.522c.076.62.076.62-.2.942-.747,1.585.1,3.418,1.5,4.607l.7.595a2.147,2.147,0,0,1-.4,1.883,2.306,2.306,0,0,0-.323,2.5c.076.619-.2.941-.124,1.561-.274.322-.2.941-.473,1.263L97,61.2c-.548.643-1.1,1.287-1.021,1.906-.274.322-.473,1.263-.124,1.561Z"/></clipPath></defs><path class="cls-1" d="M87.136,80.562a8.621,8.621,0,0,0-1.843,2.872l-1.371,1.61-1.37,1.609-1.1,1.288a9.979,9.979,0,0,0-3.988,3.267,1.478,1.478,0,0,1-1.171.669,3.553,3.553,0,0,0-1.72,1.312c-.274.322-.822.965-1.446.99l-.274.322a5.7,5.7,0,0,0-2.343,1.336c-.274.322-.274.322-.9.347-.274.321-.9.346-1.171.668a24.278,24.278,0,0,0-3.59,1.385.426.426,0,0,1-.623.025,7.706,7.706,0,0,1-5.261.518,25.324,25.324,0,0,0-4.438-.448l-.35-.3c-.972-.273-2.294-.844-3.191-.5l-2.494.1-1.87.073a9.368,9.368,0,0,1-2.767.42l-1.247.049c-.972-.273-2.144.4-3.041.742-.274.322-.9.346-1.521.371l-1.87.073a3.6,3.6,0,0,1-1.945-.545l-.349-.3a9.7,9.7,0,0,0-3.192-.5l-.624.025c-.349-.3-.972-.273-1.321-.57l-.349-.3-1.747-1.487L25.607,94.8l-.349-.3c.123-1.561-1.2-2.131-2.52-2.7l-.7-.595c-.7-.595-1.671-.868-2.369-1.463a6.239,6.239,0,0,1-1.821-2.106,3.7,3.7,0,0,0-3.068-2.057l-.973-.273c-.623.024-.972-.273-1.671-.868a8.414,8.414,0,0,0-2.17-2.4c-.349-.3-.349-.3-.425-.917A3.553,3.553,0,0,0,8,78.694c-.349-.3-.7-.595-.972-.273a.951.951,0,0,0-.15-1.239c-.35-.3-.076-.619-.425-.916a.951.951,0,0,0-.15-1.239,9.7,9.7,0,0,0-1-3.072c-.15-1.239-1.2-2.131-1.348-3.369,0,0-.075-.62-.349-.3a2.456,2.456,0,0,1-.5-1.536,3.455,3.455,0,0,0-.3-2.477l-.15-1.239a2.455,2.455,0,0,0-.5-1.535h0a2.454,2.454,0,0,1-.5-1.536c-.349-.3-.424-.917-.773-1.214a5.875,5.875,0,0,1,.049-2.18c.2-.941.123-1.561.322-2.5-.075-.619.2-.941.124-1.56l.274-.322a2.145,2.145,0,0,0,.4-1.882l.274-.322a2.146,2.146,0,0,0,.4-1.883c-.15-1.238-.649-2.774-.8-4.013.274-.321-.075-.619.2-.941l.6-2.823c-.075-.619.2-.941.748-1.585.274-.322.2-.942.473-1.263l-.075-.62L5.28,33.066l.548-.644.549-.643a3.1,3.1,0,0,1,.672-2.2c.274-.321.274-.321.2-.941a1.475,1.475,0,0,1,.473-1.263L9.64,25.117a1.478,1.478,0,0,0,.473-1.263c.473-1.263.672-2.2,1.145-3.467l.274-.322c.548-.644,1.446-.99,1.994-1.634A3.1,3.1,0,0,1,15.6,17.416a1.443,1.443,0,0,0,.9-.346l1.371-1.61c.2-.941,1.37-1.609,2.268-1.955a7.386,7.386,0,0,0,2.617-1.659,2.15,2.15,0,0,1,1.795-.693,2.146,2.146,0,0,0,1.8-.692,5.7,5.7,0,0,1,2.343-1.337l1.1-1.288c.9-.346,1.8-.692,1.994-1.633l-.349-.3a5.7,5.7,0,0,0,2.343-1.336c.274-.322.822-.966,1.445-.99.9-.347,1.446-.991,2.343-1.337l.275-.322,1.246-.049c.624-.024.9-.346,1.521-.371s.9-.346,1.521-.37l.972.273a2.458,2.458,0,0,0,1.6.248A3.6,3.6,0,0,1,46.63,2.2a2.944,2.944,0,0,0,1.671.867c.35.3.35.3.973.273a.439.439,0,0,0,.623-.024l1.87-.073.623-.025c.274-.322.9-.346,1.6.248a1.642,1.642,0,0,0,.973.273,3.608,3.608,0,0,1,1.945.546c.623-.024,1.322.571,1.945.546.349.3.623-.024.973.273.972.273,2.568.521,3.541.794a1.78,1.78,0,0,1,1.321.57l.7.595A5.367,5.367,0,0,1,67.4,8.225l1.048.892c.7.595,1.4,1.19,2.02,1.166.972.273,1.321.57,1.945.545a1.639,1.639,0,0,0,.972.273,3.662,3.662,0,0,0,2.3.843c.274-.321.623-.024.7.595l.075.619a1.913,1.913,0,0,0,.575,2.156c.7.594.774,1.214,1.2,2.13.075.62.773,1.214,1.123,1.512l1.047.892,1.048.892.7.6.35.3c.349.3.424.917,1.122,1.512l1.048.892a1.485,1.485,0,0,0,1.4,1.189,6.269,6.269,0,0,1,1.821,2.106c.075.62.774,1.214,1.472,1.809a4.64,4.64,0,0,1,1.9,2.726c.075.619.424.916.7.595.973.273,1.123,1.511,1.821,2.106l.076.619,1.547,2.428a.439.439,0,0,1,.075.619,2.454,2.454,0,0,0,.848,1.834h0a1.18,1.18,0,0,0,1.123,1.511,4.3,4.3,0,0,1,.027,2.8.426.426,0,0,0,.075.619c.075.619.075.619-.2.941S96.87,47.2,96.6,47.522c.076.62.076.62-.2.942-.747,1.585.1,3.418,1.5,4.607l.7.595a2.147,2.147,0,0,1-.4,1.883,2.306,2.306,0,0,0-.323,2.5c.076.619-.2.941-.124,1.561-.274.322-.2.941-.473,1.263L97,61.2c-.548.643-1.1,1.287-1.021,1.906-.274.322-.473,1.263-.124,1.561Z"/><g class="cls-2"><path class="cls-3" d="M-4.033,112.105c.021-.021.07-.068.091-.09l.062-.065c.054-.063.116-.128.185-.2l.062-.065c.034-.041.1-.106.137-.15s.09-.09.131-.134c.083-.087.145-.152.235-.243.07-.068.153-.155.215-.221l.042-.045c.113-.11.226-.219.331-.326.346-.368.743-.757,1.1-1.077.02-.021.029-.025.049-.046.384-.4.772-.783,1.169-1.172.375-.394.8-.82,1.189-1.194.258-.252.5-.5.735-.754.277-.3.579-.61.886-.909.368-.364.758-.724,1.074-1.093a.163.163,0,0,0,.032-.04c.041-.044.1-.109.151-.156.213-.22.43-.429.655-.641.243-.219.43-.429.643-.623.439-.406.889-.857,1.3-1.305.163-.174.334-.35.514-.531a1.549,1.549,0,0,1,.131-.162c0,.027-.026.077-.089.155a.2.2,0,0,0-.028.051c.009,0,.009,0,0,.015.268-.3.542-.585.816-.861.149-.15.3-.3.445-.442.081-.087.151-.155.232-.242.246-.252.492-.5.738-.735.207-.2.415-.4.621-.594.119-.115.238-.231.348-.343.346-.368.743-.757,1.1-1.077.02-.021.029-.025.049-.046.384-.4.772-.783,1.169-1.172.375-.394.8-.82,1.189-1.194.258-.252.5-.5.735-.754.277-.3.579-.61.886-.909.368-.364.758-.724,1.074-1.093a.163.163,0,0,0,.032-.04c.041-.044.1-.109.151-.156.213-.22.43-.429.655-.641.243-.219.43-.429.643-.623.439-.406.889-.857,1.3-1.305.133-.142.273-.286.417-.432l.179-.17c.119-.115.237-.23.348-.342.346-.368.743-.758,1.1-1.077.02-.022.028-.025.049-.047.383-.4.772-.783,1.169-1.172.375-.393.8-.819,1.189-1.193.258-.252.5-.5.735-.754.277-.3.579-.611.886-.91.368-.364.758-.723,1.074-1.093a.231.231,0,0,0,.032-.04c.041-.043.1-.108.151-.155.212-.22.429-.429.655-.641.242-.219.429-.429.643-.623.439-.407.889-.857,1.3-1.306q.245-.26.514-.53a1.651,1.651,0,0,1,.131-.163.341.341,0,0,1-.09.156.169.169,0,0,0-.027.051c.008,0,.008,0,0,.015.269-.3.543-.586.817-.861q.223-.225.444-.442c.082-.087.151-.156.233-.242.246-.253.492-.5.737-.736q.312-.3.622-.594c.118-.115.237-.23.347-.342.347-.368.744-.758,1.1-1.077.021-.022.029-.025.05-.047.383-.4.772-.783,1.169-1.172.375-.393.8-.819,1.189-1.193.258-.252.5-.5.735-.754.277-.3.579-.611.886-.91.368-.364.758-.723,1.074-1.093a.231.231,0,0,0,.032-.04c.041-.043.1-.108.151-.155.212-.22.429-.429.655-.641.242-.219.429-.429.643-.623s.449-.425.672-.649l.048.006c.062-.058.127-.121.172-.169.07-.068.153-.156.222-.224.042-.044.07-.068.119-.115.1-.093.189-.183.264-.268a.948.948,0,0,1,.09-.09c.008,0,.029-.024.016,0a.6.6,0,0,0,.146-.111c.078-.071.143-.123.2-.173l.1-.087c.048-.05.1-.1.155-.152s.119-.115.181-.18c.02-.022.069-.068.09-.09l.062-.066c.054-.062.116-.128.186-.2l.062-.066c.033-.04.095-.106.136-.149s.091-.091.132-.134c.082-.088.144-.153.235-.243.069-.069.152-.156.214-.221l.082-.088.13-.134a.1.1,0,0,1-.039-.066c-.032.011-.035,0-.067.01-.105,0-.09-.125-.026-.291,0-.029,0-.058-.016-.066-.135.05-.146-.032-.022-.235-.008,0,.013-.019,0-.016-.1.009-.133-.051-.144-.133-.122.03-.19,0-.152-.131,0-.055-.05-.067-.166-.01-.132.062-.2.059-.2-.013-.024-.063.063-.238-.2-.055-.008,0-.008,0-.037.028-.015.006-.039.014-.034,0-.059.007-.048-.054-.016-.137.073-.127-.047-.054.013-.162.092-.191.037-.242-.171-.138-.063.023-.106.025-.128,0a1.033,1.033,0,0,1-.148.112,3.7,3.7,0,0,1,.29-.258c.028-.025.057-.05.106-.1a.57.57,0,0,1,.049-.047c-.166.1-.244.109-.284.084a.106.106,0,0,1-.039-.066c-.032.012-.035,0-.066.01-.057,0-.077-.041-.075-.1a.646.646,0,0,1,.048-.191c0-.029,0-.058-.015-.065-.135.049-.146-.033-.022-.235-.008,0,.012-.019.005-.017-.1.009-.133-.051-.144-.133-.122.03-.191,0-.152-.13,0-.056-.051-.068-.167-.011-.131.062-.2.059-.2-.013-.023-.063.064-.237-.2-.054-.008,0-.008,0-.037.027-.016.006-.039.015-.035,0-.058.007-.047-.055-.015-.138.073-.126-.048-.054.013-.162.092-.191.037-.242-.171-.138a.156.156,0,0,1-.111.01c.007-.021.012-.039.02-.061s0-.058-.016-.066c-.134.05-.145-.032-.021-.235-.008,0,.012-.019,0-.016-.1.009-.133-.051-.144-.133-.122.03-.19,0-.151-.131-.005-.055-.051-.067-.167-.01-.131.062-.2.059-.2-.013-.024-.063.064-.238-.2-.055-.007,0-.007,0-.036.028-.016.006-.04.014-.035,0-.058.007-.047-.054-.015-.137.073-.127-.048-.054.013-.162.092-.191.036-.242-.171-.138-.064.023-.107.025-.129,0a1.054,1.054,0,0,1-.148.112c.116-.111.219-.2.29-.258.029-.025.057-.05.107-.1a.375.375,0,0,1,.049-.047c-.166.1-.244.109-.284.084a.1.1,0,0,1-.039-.066c-.032.012-.035,0-.067.01-.057,0-.076-.041-.074-.1a.646.646,0,0,1,.048-.191c0-.029,0-.058-.016-.065-.135.049-.146-.033-.022-.236-.008,0,.013-.018.005-.016-.1.009-.133-.051-.144-.133-.122.03-.19,0-.152-.13,0-.056-.05-.068-.166-.011-.132.062-.2.059-.2-.013-.024-.063.064-.237-.2-.055-.008,0-.008,0-.036.028-.016.006-.04.015-.035,0-.059.008-.048-.054-.016-.137.073-.127-.047-.054.013-.162.092-.191.037-.242-.171-.138-.063.023-.106.025-.128,0-.086.074-.167.132-.178.122s0-.013-.031.012-.032.011-.027,0,0-.016,0-.013l-.016.006a.33.33,0,0,0-.053.025v0l-.035.027c-.011.008-.02.012-.035.024h0c-.016.011-.036.026-.061.046a.2.2,0,0,1-.062.038.166.166,0,0,0-.029.025l-.19.158c-.037.029-.095.079-.124.1s-.055.049-.083.072l-.008,0a2.428,2.428,0,0,0-.2.172.492.492,0,0,1-.086.075,2.422,2.422,0,0,0-.249.219c-.027.026-.049.047-.072.067l-.042.036c-.02.017-.041.034-.057.045-.066.053-.143.124-.213.192-.049.047-.1.093-.156.143-.028.024-.077.071-.126.118s-.107.1-.135.12l-.006.006-.041.05c-.042.044-.054.063-.088.1s-.054.062-.095.106c-.021.022-.013.019-.013.019-.044.057-.07.095-.113.151-.268.265-.54.525-.772.787-.041.044-.1.094-.148.141a10.238,10.238,0,0,0-.745.731c-.407.433-.87.876-1.294,1.317a1.862,1.862,0,0,1-.148.14c-.2.176-.4.363-.611.583-.04.043-.11.112-.151.155-.293.307-.612.624-.916.909a9.616,9.616,0,0,0-.834.821c-.033.04-.09.09-.16.159-.278.274-.568.566-.855.843s-.538.567-.855.843a.919.919,0,0,0-.1.109c-.2.213-.416.437-.641.649a4.357,4.357,0,0,0-.335.35,5.349,5.349,0,0,1-.6.621c-.308.285-.607.578-.914.89l-.158.162c-.4.414-.8.822-1.2,1.23l-.092.095c-.049.04-.095.08-.14.119a.482.482,0,0,1-.066.053c-.18.181-.372.379-.555.574-.069.073-.14.146-.211.218-.126.112-.254.235-.392.372.009,0,.029-.025.037-.029.03-.022.061-.054.1-.09-.251.246-.5.49-.719.734-.041.044-.1.094-.148.141a10.238,10.238,0,0,0-.745.731c-.407.433-.87.876-1.294,1.317a1.862,1.862,0,0,1-.148.14c-.2.176-.4.363-.61.583-.041.043-.111.112-.152.155-.293.307-.612.624-.916.909a9.908,9.908,0,0,0-.834.821c-.033.04-.09.09-.16.159-.278.274-.568.566-.855.843s-.538.567-.855.843a1.01,1.01,0,0,0-.1.109c-.195.213-.416.437-.641.649a4.357,4.357,0,0,0-.335.35,5.349,5.349,0,0,1-.6.621c-.361.334-.709.677-1.072,1.052-.4.414-.8.822-1.2,1.23a.049.049,0,0,0,0,.019c-.049.051-.1.1-.145.154-.408.434-.871.877-1.295,1.317a1.564,1.564,0,0,1-.148.14c-.2.176-.4.363-.61.584-.041.043-.11.111-.151.155-.294.307-.613.624-.916.908a9.784,9.784,0,0,0-.835.822c-.032.039-.09.09-.16.158-.278.274-.568.566-.855.843s-.538.567-.855.844a.992.992,0,0,0-.1.108c-.2.213-.416.437-.642.649a4.169,4.169,0,0,0-.334.351,5.509,5.509,0,0,1-.6.62c-.309.286-.608.578-.914.891l-.159.161c-.4.415-.8.822-1.2,1.231l-.092.094-.14.119a.54.54,0,0,1-.066.054c-.179.18-.371.379-.555.574-.068.073-.139.145-.211.218-.125.112-.254.234-.392.371.009,0,.029-.025.038-.028.029-.023.061-.054.1-.091-.251.247-.5.49-.719.735-.041.043-.1.093-.148.14-.25.222-.508.475-.744.731-.408.434-.871.877-1.3,1.317a1.564,1.564,0,0,1-.148.14c-.2.176-.4.363-.61.584-.041.043-.11.111-.151.155-.294.307-.613.624-.916.908a9.784,9.784,0,0,0-.835.822c-.032.039-.09.09-.16.158-.278.274-.568.566-.855.843s-.538.567-.855.844a.992.992,0,0,0-.1.108c-.2.213-.416.437-.642.649a4.169,4.169,0,0,0-.334.351,5.509,5.509,0,0,1-.6.62c-.248.23-.49.463-.734.708-.053.043-.105.087-.162.142a.479.479,0,0,1-.085.074,2.328,2.328,0,0,0-.249.22,1.435,1.435,0,0,1-.172.148,2.748,2.748,0,0,0-.212.192c-.05.046-.1.093-.156.142-.028.025-.078.072-.127.118s-.106.1-.135.121l-.006.006-.041.05c-.041.044-.054.062-.087.1s-.054.063-.095.106c-.021.022-.013.019-.013.019-.046.06-.071.1-.117.158a1.083,1.083,0,0,0-.072.1,1.734,1.734,0,0,1-.13.176l.028-.024c0,.013-.014.048-.088.132-.013.019,0,.016-.018.035s-.005.016-.025.038c-.046.06-.072.1-.1.135a.509.509,0,0,1-.046.06c.022.021.073.016.144-.01.15-.055-.012.2.222.062.015,0-.01.033-.015.049-.094.148-.089.2.027.147.158-.058.123.084.241.07.015-.006.019.007-.015.048-.089.132-.108.2-.049.189.016,0,.019.008.035,0,.09-.019.118.028.069.146-.135.192-.107.239.038.158.036-.028.011.01.014.023.013.053.054.081.046.155s.185-.053.045.155c-.012.019,0,.013.04-.014.1-.051.138-.036.106.047-.022.051.025.034.106-.024.232-.185.179-.08.14.006-.064.133-.059.2,0,.211a.1.1,0,0,0,.032.005c.093,0,.175.018.26.029l.02,0c-.03.039-.052.072-.072.1a.42.42,0,0,1-.046.06c.022.02.073.016.144-.01a.06.06,0,0,1,.053,0c-.044.071-.055.111-.043.132.021-.022.013-.019.034-.041a.158.158,0,0,0,.031-.054c.01.05,0,.114.147.026.016,0-.01.032-.014.048-.094.149-.09.2.026.148.159-.058.124.084.241.069.016,0,.019.008-.014.049-.089.132-.109.2-.05.189.016-.006.019.008.035,0,.09-.019.119.028.069.146-.135.192-.106.239.038.158.037-.028.011.01.014.023.013.053.054.081.046.155s.185-.053.046.155c-.013.019,0,.013.039-.014.1-.051.138-.036.106.047-.022.051.026.033.106-.025.232-.184.18-.079.14.007-.075.156-.059.221.034.216s.176.018.26.029l.071-.067a.182.182,0,0,0,.053-.018c.159-.058.124.084.241.07.016-.006.019.007-.014.048-.089.132-.108.2-.05.189.016-.005.019.008.035,0,.09-.019.119.028.07.146-.135.192-.107.239.037.158.037-.028.011.01.014.024.013.052.054.08.046.154s.186-.053.046.155c-.013.019,0,.013.039-.014.1-.051.138-.036.107.047-.023.051.025.034.106-.024.231-.185.179-.08.139.006-.064.133-.058.2,0,.211a.1.1,0,0,0,.033,0c.093,0,.175.018.26.029l.019,0c-.029.039-.052.072-.071.1a.509.509,0,0,1-.046.06c.022.02.072.016.144-.01a.058.058,0,0,1,.052,0c-.043.071-.054.112-.042.132.02-.022.012-.019.033-.041a.166.166,0,0,0,.032-.054c.009.05,0,.114.146.026.016,0-.009.032-.014.048-.094.149-.089.2.027.148.158-.058.123.084.24.07.016-.006.019.007-.014.048-.089.132-.108.2-.049.189.015-.006.019.008.034,0,.091-.019.119.028.07.146-.135.192-.107.239.038.158.036-.028.011.01.014.023.012.053.054.081.045.155s.186-.053.046.155c-.013.019,0,.013.04-.014.1-.051.138-.036.106.047-.022.051.025.033.106-.025.232-.184.179-.079.139.007-.074.156-.059.221.035.216s.175.018.26.029c.062-.058.127-.121.172-.169.07-.068.152-.155.222-.224.041-.043.07-.068.119-.114.089-.084.169-.165.239-.241l.017-.006c.041-.042.082-.082.124-.123a.669.669,0,0,0,.136-.1c.078-.072.143-.124.2-.173.028-.025.062-.055.1-.088.049-.05.1-.1.155-.151S-4.095,112.171-4.033,112.105Z"/><path class="cls-4" d="M76.423,51.789a.974.974,0,0,1-.341-1.033l-.027-.212-.139-1.06-.055-.424-.6-1.431-.028-.212a1.626,1.626,0,0,0-.569-1.219.815.815,0,0,1-.285-.61,2.5,2.5,0,0,0-.826-1.616,1.677,1.677,0,0,1-.541-1.007l-.771-1.193a1.131,1.131,0,0,1-.514-.8.974.974,0,0,0-.191-.486c-.016.022-.031.047-.047.07-.111.156-.226.308-.342.457-.054.094-.109.164-.164.259-.177.267-.367.519-.564.762-.166.2-.336.4-.51.6-.1.117-.19.234-.272.351a4.96,4.96,0,0,1-.871,1.1c-.013.024-.027.023-.04.047-.274.423-.573.821-.886,1.22a9.566,9.566,0,0,1-.9,1.243,5.25,5.25,0,0,0-.532.8,6.53,6.53,0,0,1-.642.963,5.166,5.166,0,0,0-.792,1.15.064.064,0,0,0-.014.048,1.137,1.137,0,0,1-.109.164c-.019.029-.04.054-.059.082l-.067.092a.083.083,0,0,1-.03.014l-.077.105a1.276,1.276,0,0,0-.32.329.718.718,0,0,0-.11.2,5.1,5.1,0,0,1-.371.471,6.13,6.13,0,0,0-.981,1.36c-.09.154-.19.307-.3.46-.05.057-.1.114-.149.169-.095.117-.19.234-.272.351a4.943,4.943,0,0,1-.871,1.1c-.013.023-.027.023-.04.047-.078.12-.162.234-.243.351a.918.918,0,0,0-.14.157.459.459,0,0,1-.332.235,2.392,2.392,0,0,0-1.123.435c-.077.1-.166.117-.345.141a1.09,1.09,0,0,0-.523.164c-.089.012-.255.129-.345.141l-.089.012-.624.082-.179.023-.357.047c-.28-.058-.624.083-.9.024l-.089.012a2.466,2.466,0,0,1-1.209-.223c-.292-.153-.674-.294-.966-.446l-.089.011a2.746,2.746,0,0,0-.686-.387c-.191-.071-.37-.047-.56-.118s-.28-.058-.471-.129-.458-.035-.649-.105c-.089.011-.191-.071-.28-.059a2.03,2.03,0,0,0-.738-.094.778.778,0,0,1-.459-.035c-.19-.071-.292-.153-.47-.129a.406.406,0,0,1-.394-.235.091.091,0,0,0-.1-.082,2.734,2.734,0,0,0-.686-.388c-.089.012-.1-.082-.19-.07l-.305-.247-.1-.082a1.67,1.67,0,0,0-.419-.423c-.1-.082-.114-.176-.215-.258l-.012-.094c.04-.387-.163-.552-.468-.8l-.2-.165c-.2-.164-.317-.34-.52-.5l-.341-.528a1.471,1.471,0,0,0-.634-.681l-.28-.059c-.1-.082-.292-.152-.317-.34-.126-.27-.24-.446-.366-.716-.1-.083-.1-.083-.113-.177.064-.2-.151-.457-.265-.634-.012-.094-.1-.082-.2-.164a.183.183,0,0,0-.037-.282l-.024-.188c-.013-.094.064-.2.052-.293l-.1-.752c.052-.293-.163-.552-.111-.845-.012-.094-.012-.094-.114-.176s-.126-.27-.037-.282a1.385,1.385,0,0,0,.1-.587l-.037-.282-.061-.47c-.1-.082-.037-.282-.05-.376a.488.488,0,0,0-.067-.152.6.6,0,0,1-.071-.212.743.743,0,0,1,.117-.493c.065-.2.142-.3.206-.505-.012-.094.065-.2.053-.293a.091.091,0,0,1,.076-.106,1.31,1.31,0,0,0,.219-.411l.077-.106a.4.4,0,0,0,.218-.411,3.488,3.488,0,0,1,.056-.962c-.013-.094.077-.106.064-.2a1.654,1.654,0,0,0,.3-.517c.077-.1.064-.2.141-.3s.154-.211.142-.3a.092.092,0,0,1,.077-.106c.154-.211.295-.517.449-.728l.077-.106L45,37.4a1.3,1.3,0,0,1,.218-.411c.09-.011.077-.1.065-.2.077-.106.065-.2.243-.223l.5-.353a.2.2,0,0,0,.154-.211,1.574,1.574,0,0,1,.462-.634l.077-.106c.166-.117.344-.141.51-.258a.549.549,0,0,1,.536-.071l.178-.023c.092-.065.159-.1.215-.132.121-.192.248-.379.38-.554.121-.154.206-.325.343-.5s.24-.336.346-.513c.027-.038.056-.09.076-.125a.078.078,0,0,1,.013-.033,7.133,7.133,0,0,1,.547-.878c.163-.239.316-.488.448-.731a7.036,7.036,0,0,1,.371-.606c.213-.3.429-.64.614-.957.209-.311.412-.62.6-.94.01-.017.017-.019.027-.037a6.721,6.721,0,0,0,.582-.861c.056-.09.119-.182.182-.274q.169-.233.336-.474c.13-.191.259-.387.383-.59.039-.07.076-.124.115-.194.078-.116.156-.234.232-.355.141-.221.278-.45.4-.693,0,.015,0,.015,0,.012a.1.1,0,0,1,0,.044c-.025.063-.028.106-.014.129a.586.586,0,0,0,.052-.132c.013-.02.024-.039.036-.059-.126-.145-.178-.272-.337-.252-.2.027-.458-.37-.687-.556a1.631,1.631,0,0,0-.916-.742,1.037,1.037,0,0,1-.861-.318l-.458-.371a.594.594,0,0,1-.806.106l-.6.08c-.2.026-.43-.159-.632-.133l-.2.027-1.409.185c-.2.027-.577.292-.778.318a3.151,3.151,0,0,1-1.41.186l.028.212a.952.952,0,0,1-1.152.583c-.4.053-.577.292-.778.318-.4.053-.778.318-1.18.371-.375.265-.6.08-1.007.133a.883.883,0,0,0-1.007.133,4.28,4.28,0,0,1-1.583.424,1.655,1.655,0,0,0-1.354.609c-.174.239-.375.265-.75.53l-.4.053a1.238,1.238,0,0,0-1.208.16c-.375.265-.777.318-1.152.583l-.174.238a3.538,3.538,0,0,0-1.041,1.431.45.45,0,0,1-.348.477l-1.124.8c-.4.054-.375.266-.549.5.028.212.056.424-.146.451a2.956,2.956,0,0,0-.493.927l-.173.239-.174.238c-.347.477-.667,1.166-1.014,1.643a.207.207,0,0,0-.173.239,1.145,1.145,0,0,1-.32.689c-.174.238-.146.45-.319.689a3.747,3.747,0,0,1-.667,1.166c.028.212-.174.239-.146.451a7.965,7.965,0,0,0-.125,2.173.893.893,0,0,1-.493.927l-.174.239a2.915,2.915,0,0,1-.493.927.207.207,0,0,0-.173.239c.027.212-.146.45-.118.662-.146.451-.32.689-.466,1.14A1.686,1.686,0,0,0,24.42,45.7c.056.424.285.609.313.821s-.118.663.111.848l.138,1.06.084.636a3.157,3.157,0,0,1-.237,1.325c-.2.027-.145.451.084.636s.229.186.256.4c-.118.662.368,1.246.25,1.908.083.636.139,1.06.222,1.7.028.212-.146.451-.118.663l.055.424a.414.414,0,0,1,.084.636c.229.185.43.159.458.371.257.4.743.98.6,1.431.028.212.028.212.257.4.284.61.541,1.007.826,1.617.055.424.486.583.715.768l.631.133A3.305,3.305,0,0,1,30.576,63l.771,1.193c.458.371.715.768,1.173,1.139l.458.371c.688.557,1.146.928,1.056,1.8l.027.212c.229.186.257.4.486.583a3.722,3.722,0,0,1,.944.954l.229.186.688.556c.2-.026.229.186.43.159a6.168,6.168,0,0,1,1.548.875.2.2,0,0,1,.229.185.917.917,0,0,0,.889.53c.4-.053.632.133,1.062.292a1.762,1.762,0,0,0,1.035.079,4.562,4.562,0,0,1,1.666.212c.2-.027.431.159.632.132.43.159,1.034.08,1.465.239s.632.132,1.062.291.833.106,1.264.265a6.186,6.186,0,0,1,1.548.875l.2-.027c.66.345,1.521.662,2.18,1.007a5.548,5.548,0,0,0,2.729.5l.2-.026a2.318,2.318,0,0,0,.712.01,4.533,4.533,0,0,1,1.329-.063l.806-.106.4-.053,1.41-.186.2-.027c.2-.026.577-.291.778-.318a2.463,2.463,0,0,1,1.18-.371c.4-.053.6-.079.778-.318a5.4,5.4,0,0,1,2.534-.981,1.037,1.037,0,0,0,.75-.53,1.821,1.821,0,0,1,.543-.524c.113-.073.233-.14.381-.244a1.522,1.522,0,0,0,.75-.53,3.246,3.246,0,0,1,1.3-1.034l4.576-7.288a1.131,1.131,0,0,1,.292-.9,2.824,2.824,0,0,1,.722-.742l.174-.239c.2-.026.173-.238.347-.477a1.143,1.143,0,0,0,.32-.689,1.83,1.83,0,0,1,.465-1.139,1.132,1.132,0,0,0,.292-.9l-.227-.352-.03-.046A2.024,2.024,0,0,1,75,55a.449.449,0,0,0,.347-.477l.521-.716c-.028-.212.173-.238.146-.45l.173-.239A3.157,3.157,0,0,0,76.423,51.789Z"/><path class="cls-4" d="M-9.572,106.168c.02-.022.069-.068.09-.09l.062-.066c.054-.062.116-.128.186-.2l.062-.065c.033-.041.1-.107.136-.15s.09-.09.132-.134c.082-.087.144-.153.235-.243.069-.068.152-.156.214-.221l.042-.045c.113-.11.226-.219.331-.326.346-.368.743-.757,1.1-1.077.02-.022.029-.025.049-.047.384-.4.772-.783,1.169-1.172.375-.393.8-.819,1.19-1.193.258-.252.5-.5.735-.754.276-.3.578-.611.885-.91.368-.364.759-.723,1.074-1.093a.157.157,0,0,0,.033-.04c.04-.043.1-.108.151-.155.212-.22.429-.429.655-.641.242-.219.429-.429.643-.623.439-.406.888-.857,1.3-1.306.163-.173.335-.35.514-.53a1.458,1.458,0,0,1,.132-.162.345.345,0,0,1-.09.155.169.169,0,0,0-.027.051c.008,0,.008,0,0,.015.268-.3.543-.586.816-.861.149-.15.3-.3.445-.442.081-.087.151-.155.232-.242.246-.253.492-.5.738-.736.207-.2.415-.4.621-.594.119-.115.238-.23.348-.342.346-.368.743-.757,1.1-1.077.02-.022.029-.025.049-.047.384-.4.772-.783,1.169-1.172.375-.393.8-.819,1.19-1.193.258-.252.5-.5.734-.754.277-.3.579-.611.886-.91.368-.364.758-.723,1.074-1.093a.157.157,0,0,0,.033-.04c.04-.043.1-.108.151-.155.212-.22.429-.429.655-.641.242-.219.429-.429.642-.623.44-.406.889-.857,1.3-1.306.133-.141.273-.286.418-.432l.178-.169c.119-.115.238-.23.348-.342.346-.369.743-.758,1.1-1.077.02-.022.029-.026.049-.047.384-.4.772-.783,1.169-1.172.375-.394.8-.819,1.189-1.194.258-.252.5-.5.735-.754.277-.3.579-.61.886-.909.368-.364.758-.724,1.074-1.093a.231.231,0,0,0,.032-.04c.041-.043.1-.108.151-.155.213-.22.43-.429.655-.642.243-.219.43-.429.643-.623.439-.406.889-.857,1.3-1.3q.245-.26.514-.53a1.651,1.651,0,0,1,.131-.163c0,.027-.026.077-.09.155a.236.236,0,0,0-.027.052c.009,0,.009,0,0,.014.268-.3.542-.585.816-.86.149-.151.3-.3.445-.443.081-.086.151-.155.232-.242.246-.252.492-.5.738-.735q.31-.3.621-.594c.119-.115.237-.23.348-.342.346-.369.743-.758,1.1-1.077.02-.022.029-.026.049-.047.383-.4.772-.783,1.169-1.172.375-.394.8-.819,1.189-1.194.258-.252.5-.5.735-.754.277-.3.579-.61.886-.909.368-.364.758-.724,1.074-1.093a.231.231,0,0,0,.032-.04c.041-.043.1-.109.151-.155.213-.22.43-.429.655-.642.243-.219.429-.429.643-.623s.45-.425.672-.648l.048,0c.062-.058.127-.12.173-.168.069-.069.152-.156.222-.224.041-.044.07-.069.119-.115.1-.093.189-.183.263-.268a.777.777,0,0,1,.091-.09c.008,0,.028-.025.015-.006a.543.543,0,0,0,.146-.11c.078-.071.143-.124.2-.173.029-.025.063-.055.1-.088.048-.05.1-.1.155-.151s.119-.115.181-.18c.021-.022.07-.069.09-.091l.062-.065c.054-.063.116-.128.186-.2l.062-.066c.033-.041.095-.106.136-.15s.091-.09.132-.134c.083-.087.144-.152.235-.243.07-.068.152-.155.214-.221l.083-.087c.042-.045.086-.09.129-.135a.1.1,0,0,1-.039-.066c-.032.012-.035,0-.067.01-.1,0-.09-.124-.026-.29,0-.029,0-.059-.016-.066-.135.049-.146-.033-.022-.235-.008,0,.013-.019,0-.016-.1.008-.133-.052-.144-.133-.122.03-.19,0-.152-.131,0-.055-.05-.067-.166-.011-.132.062-.2.059-.2-.012-.024-.063.064-.238-.2-.055-.008,0-.008,0-.036.028-.016,0-.04.014-.035,0-.059.007-.048-.054-.016-.137.073-.127-.047-.054.013-.162.092-.191.037-.242-.171-.138-.063.023-.106.024-.128,0a1.14,1.14,0,0,1-.148.112,3.723,3.723,0,0,1,.29-.259c.029-.024.057-.049.106-.1a.617.617,0,0,1,.05-.046c-.167.1-.245.109-.284.083a.1.1,0,0,1-.04-.065c-.031.011-.034,0-.066.01-.057,0-.076-.041-.074-.1a.634.634,0,0,1,.047-.19c0-.029,0-.058-.015-.066-.135.049-.146-.032-.022-.235-.008,0,.013-.019,0-.016-.1.008-.133-.051-.144-.133-.122.03-.19,0-.152-.131,0-.055-.051-.067-.166-.011-.132.063-.2.059-.2-.012-.024-.063.063-.238-.2-.055-.008,0-.008,0-.037.028-.015.006-.039.014-.034,0-.059.007-.048-.054-.016-.137.073-.127-.047-.054.013-.162.092-.191.037-.242-.171-.138a.151.151,0,0,1-.11.009c.006-.02.011-.038.019-.06s0-.059-.015-.066c-.135.049-.146-.033-.022-.235-.008,0,.013-.019.005-.016-.1.008-.133-.052-.144-.134-.122.031-.19,0-.152-.13-.005-.056-.051-.067-.166-.011-.132.062-.2.059-.2-.012-.023-.063.064-.238-.2-.055-.008,0-.008,0-.037.028-.016.005-.039.014-.035,0-.058.007-.047-.054-.015-.137.073-.127-.048-.055.013-.162.092-.191.037-.243-.171-.138-.063.023-.106.024-.128,0a1.135,1.135,0,0,1-.149.112,3.53,3.53,0,0,1,.291-.259c.028-.024.057-.049.106-.1.021-.021.021-.021.049-.046-.166.1-.244.109-.284.083a.1.1,0,0,1-.039-.065c-.032.011-.035,0-.067.01-.056,0-.076-.041-.074-.1a.64.64,0,0,1,.048-.19c0-.029,0-.058-.016-.066-.134.049-.145-.032-.022-.235-.007,0,.013-.019,0-.016-.1.008-.133-.052-.144-.133-.122.03-.19,0-.151-.131-.005-.055-.051-.067-.167-.011-.131.063-.2.059-.2-.012-.024-.063.064-.238-.2-.055-.008,0-.008,0-.036.028-.016.006-.04.014-.035,0-.059.007-.047-.054-.015-.137.073-.127-.048-.054.012-.162.093-.191.037-.242-.17-.138-.064.023-.107.024-.129,0-.085.074-.166.132-.177.122s0-.013-.032.011-.032.012-.027,0,0-.016,0-.013l-.016.006a.288.288,0,0,0-.053.025l0,0v0l-.034.027a.372.372,0,0,0-.035.024h0l-.06.046a.22.22,0,0,1-.063.039.162.162,0,0,0-.029.025c-.066.054-.123.1-.19.158-.037.028-.094.078-.123.1s-.056.048-.084.071l-.007,0a2.637,2.637,0,0,0-.2.173.443.443,0,0,1-.086.074,2.557,2.557,0,0,0-.249.22c-.026.026-.049.046-.072.067l-.041.036c-.021.017-.041.033-.058.045-.065.052-.143.124-.213.192-.049.046-.1.093-.155.142-.029.025-.078.072-.127.118s-.106.1-.135.121l-.006.006-.041.05c-.041.044-.054.063-.087.1s-.054.063-.1.107c-.02.021-.012.019-.012.019-.045.057-.071.095-.113.151-.269.264-.541.525-.773.787-.041.043-.1.093-.148.14-.251.223-.508.475-.744.732-.408.433-.871.876-1.295,1.316a1.583,1.583,0,0,1-.148.141c-.2.175-.4.363-.61.583-.041.043-.111.112-.151.155-.294.307-.613.624-.916.908a9.935,9.935,0,0,0-.835.822c-.032.04-.09.09-.16.158-.278.274-.568.566-.855.844s-.538.567-.855.843a.992.992,0,0,0-.1.108c-.2.214-.415.437-.641.65a4.022,4.022,0,0,0-.334.35,5.6,5.6,0,0,1-.6.621c-.309.285-.608.577-.914.89l-.159.162c-.4.414-.8.821-1.2,1.23L19.081,66l-.14.119a.456.456,0,0,1-.066.054c-.179.18-.371.379-.555.574-.068.073-.139.146-.211.218-.125.112-.254.235-.392.371.009,0,.029-.025.038-.028.029-.022.061-.054.1-.091-.251.247-.5.49-.719.735-.041.043-.1.093-.148.14-.251.223-.508.475-.744.732-.408.433-.871.876-1.295,1.316a1.583,1.583,0,0,1-.148.141c-.2.175-.4.363-.61.583l-.151.155c-.294.307-.613.624-.916.908a9.935,9.935,0,0,0-.835.822c-.032.04-.09.09-.16.158-.278.274-.568.566-.855.844s-.538.567-.855.843a1.1,1.1,0,0,0-.1.108c-.2.214-.415.437-.641.65a4.022,4.022,0,0,0-.334.35,5.6,5.6,0,0,1-.6.621c-.362.334-.709.676-1.073,1.052-.4.414-.8.821-1.2,1.23a.033.033,0,0,0,0,.019c-.049.051-.1.1-.146.154-.407.434-.87.876-1.295,1.317a1.56,1.56,0,0,1-.147.14c-.2.176-.4.363-.611.583-.041.044-.11.112-.151.155-.294.307-.613.624-.916.909a9.77,9.77,0,0,0-.835.821c-.032.04-.09.09-.159.159-.279.274-.569.566-.855.843s-.538.567-.855.843a.919.919,0,0,0-.1.109c-.195.213-.416.437-.642.649a4.329,4.329,0,0,0-.334.35,5.517,5.517,0,0,1-.6.621c-.308.285-.607.578-.914.89l-.158.162c-.4.414-.8.822-1.2,1.23l-.092.095c-.048.04-.094.08-.139.119a.555.555,0,0,1-.066.053c-.18.181-.372.379-.555.574-.069.074-.14.146-.212.218-.125.112-.254.235-.391.372.008,0,.029-.025.037-.029.029-.022.061-.054.1-.09-.252.246-.5.49-.72.734-.04.044-.1.094-.147.141a10.238,10.238,0,0,0-.745.731c-.407.434-.87.876-1.295,1.317a1.56,1.56,0,0,1-.147.14c-.2.176-.4.363-.611.583-.041.044-.11.112-.151.155-.294.307-.613.625-.916.909a9.77,9.77,0,0,0-.835.821c-.032.04-.09.09-.159.159-.278.274-.569.566-.855.843s-.538.567-.855.843a.919.919,0,0,0-.1.109c-.195.213-.416.437-.642.649a4.329,4.329,0,0,0-.334.35,5.517,5.517,0,0,1-.6.621c-.248.229-.489.463-.734.708-.052.043-.105.087-.161.142a.526.526,0,0,1-.086.074,2.422,2.422,0,0,0-.249.219,1.371,1.371,0,0,1-.172.149c-.065.052-.142.123-.212.191-.049.047-.1.094-.156.143-.028.025-.077.071-.127.118s-.106.1-.134.12l-.007.006-.04.051a1.278,1.278,0,0,0-.088.1c-.033.041-.054.062-.095.106-.021.022-.013.019-.013.019-.046.06-.071.1-.117.157-.034.041-.059.079-.072.1a1.854,1.854,0,0,1-.13.176l.029-.025c0,.013-.015.048-.089.133-.013.019,0,.016-.018.035s0,.016-.025.038c-.046.059-.072.1-.1.135a.42.42,0,0,1-.046.06c.022.02.073.016.144-.01.151-.055-.011.2.222.062.016-.006-.01.032-.015.048-.093.149-.089.2.027.148.159-.058.124.083.241.069.016-.005.019.008-.015.048-.088.133-.108.2-.049.19.016-.006.019.007.035,0,.09-.019.119.028.069.146-.135.192-.106.239.038.158.037-.028.011.01.014.023.013.053.054.081.046.155s.185-.053.046.155c-.013.019,0,.013.039-.014.1-.051.138-.036.106.047-.022.051.026.033.106-.025.232-.184.18-.079.14.007-.064.133-.058.2,0,.21a.079.079,0,0,0,.032.006,2.55,2.55,0,0,1,.26.029l.02,0c-.029.04-.052.072-.072.1a.317.317,0,0,1-.046.059c.022.021.073.017.144-.009a.061.061,0,0,1,.053,0c-.044.071-.055.112-.042.132.02-.021.012-.019.033-.04a.166.166,0,0,0,.032-.054c.009.049,0,.113.146.026.016-.006-.009.032-.014.048-.094.149-.089.2.026.148.159-.058.124.083.241.069.016-.006.019.008-.014.048-.089.133-.108.2-.05.19.016-.006.019.007.035,0,.091-.018.119.029.07.147-.135.192-.107.239.037.158.037-.028.011.01.015.023.012.053.053.08.045.155s.186-.053.046.155c-.013.019,0,.013.04-.015.1-.05.137-.036.106.047-.023.051.025.034.106-.024.231-.184.179-.08.139.006-.075.156-.059.222.035.217a2.582,2.582,0,0,1,.26.029l.07-.068a.179.179,0,0,0,.054-.017c.158-.058.123.084.24.069.016,0,.019.008-.014.048-.089.133-.108.2-.049.19.015-.006.019.007.034,0,.091-.019.119.028.07.146-.135.192-.107.239.038.158.036-.028.011.01.014.023.012.053.053.081.045.155s.186-.053.046.155c-.013.019,0,.013.04-.014.1-.051.138-.036.106.047-.023.051.025.033.106-.025.232-.184.179-.079.139.007-.063.133-.058.2,0,.21a.084.084,0,0,0,.033.006,2.582,2.582,0,0,1,.26.029l.02,0c-.03.04-.052.072-.072.1a.509.509,0,0,1-.046.06c.022.02.073.016.144-.01a.061.061,0,0,1,.053,0c-.044.072-.055.112-.043.132.021-.021.013-.019.033-.04a.149.149,0,0,0,.032-.054c.009.049,0,.113.147.026.015-.006-.01.032-.015.048-.093.149-.089.2.027.148.158-.058.123.083.241.069.015-.006.019.008-.015.048-.089.133-.108.2-.049.19.016-.006.019.007.035,0,.09-.019.118.028.069.146-.135.192-.106.239.038.158.036-.028.011.01.014.023.013.053.054.08.046.155s.185-.053.045.155c-.012.019,0,.013.04-.015.1-.05.138-.036.106.047-.022.051.025.034.106-.024.232-.184.179-.08.14.006-.075.156-.059.222.034.217a2.55,2.55,0,0,1,.26.029c.062-.058.127-.121.172-.169.07-.068.153-.155.222-.224.042-.043.07-.068.119-.115.089-.083.169-.164.239-.241l.017,0,.124-.123a.624.624,0,0,0,.136-.1c.078-.071.143-.123.2-.173.029-.024.062-.055.1-.087.048-.05.1-.105.155-.152S-9.634,106.233-9.572,106.168Z"/><path class="cls-4" d="M1.323,116.441c.02-.022.069-.069.09-.091l.062-.065c.054-.063.116-.128.186-.2l.061-.066c.034-.041.1-.106.137-.15s.09-.09.132-.134c.082-.087.144-.152.235-.243.069-.068.152-.155.214-.221l.042-.045c.113-.109.226-.219.331-.325.346-.369.743-.758,1.1-1.078.02-.021.029-.025.049-.046.384-.4.772-.783,1.169-1.172.375-.394.8-.819,1.19-1.194.257-.252.5-.5.734-.754.277-.3.579-.61.886-.909.368-.364.758-.724,1.074-1.093a.2.2,0,0,0,.033-.04c.04-.044.1-.109.151-.155.212-.221.429-.429.654-.642.243-.219.43-.429.643-.623.44-.406.889-.857,1.3-1.3q.245-.26.514-.531a1.557,1.557,0,0,1,.132-.162.34.34,0,0,1-.09.155.221.221,0,0,0-.028.051c.009,0,.009,0,0,.015.268-.3.543-.585.816-.861.149-.15.3-.3.445-.442.081-.087.151-.155.232-.242.246-.252.492-.5.738-.735.207-.2.415-.4.621-.594.119-.115.238-.231.348-.342.346-.369.743-.758,1.1-1.078.02-.021.029-.025.049-.046.384-.4.772-.783,1.169-1.172.375-.394.8-.819,1.19-1.194.257-.252.5-.5.734-.754.277-.3.579-.61.886-.909.368-.364.758-.724,1.074-1.093a.2.2,0,0,0,.033-.04c.04-.044.1-.109.151-.155.212-.221.429-.429.654-.642.243-.219.43-.429.643-.623.44-.406.889-.857,1.3-1.305.133-.142.273-.286.417-.432l.179-.169c.119-.116.237-.231.348-.343.346-.368.743-.757,1.1-1.077.02-.022.029-.025.049-.047.383-.4.772-.782,1.169-1.172.375-.393.8-.819,1.189-1.193.258-.252.5-.5.735-.754.277-.3.579-.611.886-.91.368-.364.758-.723,1.074-1.093a.174.174,0,0,0,.032-.04c.041-.043.1-.108.151-.155.212-.22.43-.429.655-.641.243-.219.429-.429.643-.623.439-.406.889-.857,1.3-1.305q.245-.261.514-.531a1.549,1.549,0,0,1,.131-.162.345.345,0,0,1-.09.155.2.2,0,0,0-.027.051c.009,0,.009,0,0,.015.268-.3.542-.585.816-.861q.224-.225.445-.442c.081-.087.151-.155.232-.242q.369-.378.738-.736.311-.3.621-.593c.119-.116.237-.231.348-.343.346-.368.743-.757,1.1-1.077.02-.022.028-.025.049-.047.383-.4.772-.782,1.169-1.172.375-.393.8-.819,1.189-1.193.258-.252.5-.5.735-.754.277-.3.579-.611.886-.91.368-.364.758-.723,1.074-1.093a.174.174,0,0,0,.032-.04c.041-.043.1-.108.151-.155.212-.22.43-.429.655-.641.243-.219.429-.429.643-.623s.45-.425.672-.649c.016,0,.033,0,.048.006.062-.058.127-.121.172-.169.07-.068.153-.155.223-.224.041-.044.069-.068.119-.115.1-.093.188-.183.263-.267a.776.776,0,0,1,.091-.091c.007,0,.028-.024.015,0a.558.558,0,0,0,.146-.111c.078-.071.143-.123.2-.173.029-.024.063-.055.1-.087.048-.05.1-.105.155-.152s.119-.115.181-.18c.021-.022.07-.068.09-.09l.062-.066c.054-.062.116-.128.186-.2l.062-.065c.033-.041.095-.107.136-.15s.091-.09.132-.134c.082-.087.144-.153.235-.243.07-.068.152-.156.214-.221l.083-.087q.063-.068.129-.135a.1.1,0,0,1-.039-.066c-.032.012-.035,0-.067.01-.1,0-.09-.125-.026-.291,0-.029,0-.058-.016-.065-.135.049-.146-.033-.022-.236-.008,0,.013-.018.005-.016-.1.009-.133-.051-.144-.133-.122.03-.19,0-.152-.13,0-.056-.05-.068-.166-.011-.132.062-.2.059-.2-.013-.024-.063.064-.237-.2-.055-.008,0-.008,0-.036.028-.016.006-.04.015-.035,0-.059.008-.048-.054-.016-.137.073-.127-.047-.054.013-.162.092-.191.037-.242-.171-.138-.063.023-.106.025-.128,0a.98.98,0,0,1-.148.112c.116-.111.219-.2.29-.258.029-.025.057-.05.106-.1a.474.474,0,0,1,.05-.047c-.167.1-.245.109-.284.084a.1.1,0,0,1-.04-.066c-.031.012-.034,0-.066.01-.057,0-.077-.041-.074-.1a.634.634,0,0,1,.047-.19c0-.03,0-.059-.015-.066-.135.049-.146-.033-.022-.235-.008,0,.013-.019.005-.016-.1.008-.133-.052-.144-.134-.122.03-.19,0-.152-.13-.005-.056-.051-.068-.166-.011-.132.062-.2.059-.2-.013-.023-.062.064-.237-.2-.054-.008,0-.008,0-.037.027-.016.006-.039.015-.035,0-.058.007-.047-.055-.015-.138.073-.126-.048-.054.013-.162.092-.19.037-.242-.171-.137a.157.157,0,0,1-.11.009c.006-.02.011-.039.019-.061s0-.058-.015-.065c-.135.049-.146-.033-.022-.236-.008,0,.012-.019,0-.016-.1.009-.133-.051-.144-.133-.122.03-.19,0-.152-.131,0-.055-.051-.067-.167-.01-.131.062-.2.059-.2-.013-.023-.063.064-.238-.2-.055-.008,0-.008,0-.037.028-.016.006-.039.014-.035,0-.058.008-.047-.054-.015-.137.073-.127-.048-.054.013-.162.092-.191.037-.242-.171-.138-.064.023-.106.025-.128,0a.977.977,0,0,1-.149.112,3.678,3.678,0,0,1,.291-.258c.028-.025.057-.05.106-.1a.57.57,0,0,1,.049-.047c-.166.1-.244.109-.284.084a.1.1,0,0,1-.039-.066c-.032.012-.035,0-.067.01-.056,0-.076-.041-.074-.1a.653.653,0,0,1,.048-.191c0-.029,0-.058-.016-.065-.135.049-.145-.033-.022-.235-.008,0,.013-.019.005-.016-.1.008-.133-.052-.144-.134-.122.03-.19,0-.152-.13,0-.056-.05-.068-.166-.011s-.2.059-.2-.013c-.024-.062.064-.237-.2-.054-.008,0-.008,0-.036.027-.016.006-.04.015-.035,0-.059.007-.047-.055-.016-.138.073-.126-.047-.054.013-.162.093-.191.037-.242-.17-.138-.064.024-.107.025-.129,0-.085.075-.166.133-.177.122s0-.013-.032.012-.032.011-.027-.005.005-.016,0-.013l-.016.006a.542.542,0,0,0-.053.025l0,0h0l-.035.026c-.011.008-.02.013-.035.025h0c-.016.011-.035.027-.06.046a.248.248,0,0,1-.063.039.162.162,0,0,0-.029.025c-.066.053-.124.1-.19.157-.037.029-.095.079-.123.1s-.056.049-.084.072l-.007,0a2.429,2.429,0,0,0-.2.173.526.526,0,0,1-.086.074,2.422,2.422,0,0,0-.249.219c-.026.026-.049.047-.072.067l-.042.036c-.02.017-.04.034-.057.046-.065.052-.143.123-.213.191-.049.047-.1.093-.155.143-.029.025-.078.071-.127.118s-.107.1-.135.12l-.006.006-.041.051a1.278,1.278,0,0,0-.088.1c-.033.041-.054.062-.095.106-.02.022-.012.019-.012.019-.045.057-.071.095-.113.151-.269.265-.541.525-.773.787-.041.044-.1.094-.148.141a10.227,10.227,0,0,0-.744.731c-.408.434-.871.876-1.3,1.317a1.564,1.564,0,0,1-.148.14c-.2.176-.4.363-.61.583-.041.044-.111.112-.151.155-.294.307-.613.625-.917.909a9.908,9.908,0,0,0-.834.821c-.033.04-.09.09-.16.159-.278.274-.568.566-.855.843s-.538.567-.855.843a1.114,1.114,0,0,0-.1.109c-.2.213-.415.437-.641.649a4.329,4.329,0,0,0-.334.35,5.517,5.517,0,0,1-.6.621c-.309.285-.608.578-.915.891l-.158.161-1.2,1.231-.092.094c-.049.04-.095.08-.14.119a.54.54,0,0,1-.066.054c-.18.18-.371.378-.555.573-.068.074-.139.146-.211.218-.125.112-.254.235-.392.372.009,0,.029-.025.038-.029.029-.022.06-.054.1-.09-.251.246-.5.49-.719.734-.041.044-.1.094-.148.141a10.227,10.227,0,0,0-.744.731c-.408.434-.871.876-1.295,1.317a1.564,1.564,0,0,1-.148.14c-.2.176-.4.363-.61.583-.041.044-.111.112-.151.155-.294.307-.613.625-.916.909a9.77,9.77,0,0,0-.835.821c-.032.04-.09.09-.16.159-.278.274-.568.566-.855.843s-.538.567-.855.843a1.114,1.114,0,0,0-.1.109c-.2.213-.415.437-.641.649a4.329,4.329,0,0,0-.334.35,5.517,5.517,0,0,1-.6.621c-.362.334-.709.677-1.073,1.052l-1.2,1.231a.03.03,0,0,0,0,.018c-.05.051-.1.1-.146.154-.407.434-.871.877-1.295,1.317a1.714,1.714,0,0,1-.147.141c-.2.175-.4.362-.611.583-.041.043-.11.111-.151.155-.294.307-.613.624-.916.908a9.935,9.935,0,0,0-.835.822c-.032.04-.09.09-.159.158-.279.274-.569.566-.855.844s-.538.567-.855.843a.9.9,0,0,0-.1.108c-.2.214-.416.437-.642.649a4.169,4.169,0,0,0-.334.351,5.509,5.509,0,0,1-.6.62c-.309.286-.608.578-.914.891l-.158.161c-.4.415-.8.822-1.2,1.231l-.092.094c-.049.041-.1.08-.139.119a.766.766,0,0,1-.066.054c-.18.18-.372.379-.555.574-.069.073-.14.146-.212.218-.125.112-.254.234-.391.371.008,0,.028-.025.037-.028.029-.023.061-.054.1-.091-.252.247-.5.49-.72.735-.04.043-.1.093-.147.14-.251.223-.509.475-.745.731-.407.434-.871.877-1.295,1.317a1.714,1.714,0,0,1-.147.141c-.2.175-.4.362-.611.583-.041.043-.11.111-.151.155-.294.307-.613.624-.916.908a9.935,9.935,0,0,0-.835.822c-.032.04-.09.09-.159.158-.279.274-.569.566-.855.844s-.538.567-.855.843a.9.9,0,0,0-.1.108c-.2.214-.416.437-.642.649a4.169,4.169,0,0,0-.334.351,5.509,5.509,0,0,1-.6.62c-.248.23-.489.464-.734.708-.052.043-.1.087-.162.142a.414.414,0,0,1-.085.074,2.444,2.444,0,0,0-.249.22,1.347,1.347,0,0,1-.172.148c-.065.052-.142.124-.212.192-.049.046-.1.093-.156.142-.028.025-.077.072-.127.118s-.106.1-.134.121l-.007.006-.041.05c-.041.044-.054.063-.087.1s-.054.063-.095.107c-.021.021-.013.019-.013.019-.046.059-.071.1-.117.157-.034.041-.059.078-.072.1a1.734,1.734,0,0,1-.13.176l.029-.024c0,.013-.015.048-.089.132-.013.019,0,.016-.018.035s0,.016-.025.038c-.046.06-.072.1-.1.135a.42.42,0,0,1-.046.06c.022.021.073.017.144-.01.151-.054-.011.2.222.063.016-.006-.01.032-.015.048-.093.148-.089.2.027.147.159-.057.123.084.241.07.016-.006.019.007-.015.048-.089.132-.108.2-.049.19.016-.006.019.007.035,0,.09-.019.119.028.069.146-.135.193-.106.239.038.158.036-.027.011.01.014.024.013.052.054.08.046.155s.185-.054.045.154c-.012.019,0,.014.04-.014.1-.051.138-.036.106.047-.022.051.025.034.106-.024.232-.185.18-.08.14.006-.064.133-.058.2,0,.211a.1.1,0,0,0,.032,0c.093,0,.176.018.26.029l.02,0c-.029.039-.052.072-.072.1a.357.357,0,0,1-.046.06c.022.021.073.016.144-.01a.063.063,0,0,1,.053,0c-.044.071-.055.112-.043.132.021-.022.013-.019.034-.041a.188.188,0,0,0,.032-.054c.009.05,0,.114.146.026.016-.005-.009.033-.014.049-.094.148-.089.2.026.147.159-.058.124.084.241.07.016-.006.019.007-.014.048-.089.132-.108.2-.05.189.016-.005.019.008.035,0,.09-.019.119.028.07.146-.135.192-.107.239.037.158.037-.028.011.01.015.023.012.053.053.081.045.155s.186-.053.046.155c-.013.019,0,.013.039-.014.1-.051.138-.036.107.047-.023.051.025.034.106-.025.231-.184.179-.079.139.007-.075.156-.059.222.035.216s.175.018.26.029l.07-.067a.187.187,0,0,0,.054-.018c.158-.057.123.084.24.07.016-.006.019.007-.014.048-.089.132-.108.2-.05.19.016-.006.019.007.035,0,.091-.018.119.028.07.146-.135.193-.107.239.037.158.037-.027.012.01.015.024.012.052.053.08.045.155s.186-.054.046.154c-.013.019,0,.014.04-.014.1-.051.137-.036.106.047-.023.051.025.034.106-.024.231-.185.179-.08.139.006-.064.133-.058.2,0,.211a.109.109,0,0,0,.033.005c.093,0,.175.018.26.03l.02,0c-.03.039-.052.072-.072.1a.509.509,0,0,1-.046.06c.022.021.073.016.144-.01a.061.061,0,0,1,.052,0c-.043.071-.054.112-.042.132.021-.022.013-.019.033-.041a.166.166,0,0,0,.032-.054c.009.05,0,.114.147.027.015-.006-.01.032-.015.048-.094.148-.089.2.027.147.158-.058.123.084.241.07.015-.006.019.007-.015.048-.089.132-.108.2-.049.189.016,0,.019.008.035,0,.09-.019.118.028.069.146-.135.192-.106.239.038.158.036-.028.011.01.014.023.013.053.054.081.046.155s.185-.053.045.155c-.012.019,0,.013.04-.014.1-.051.138-.036.106.047-.022.051.025.034.106-.024.232-.185.179-.08.14.006-.075.156-.059.222.034.216s.175.018.26.029c.062-.058.127-.12.172-.168.07-.069.153-.156.222-.224.042-.044.07-.069.119-.115.089-.084.169-.164.239-.241l.017-.006c.042-.041.083-.081.124-.123a.642.642,0,0,0,.136-.1c.078-.071.143-.124.2-.173l.1-.088c.048-.05.1-.1.155-.151S1.261,116.506,1.323,116.441Z"/></g></svg>